<?xml version="1.0" encoding="utf-8"?>
<!-- Generator: Adobe Illustrator 24.0.2, SVG Export Plug-In . SVG Version: 6.00 Build 0)  -->
<svg version="1.1" xmlns="http://www.w3.org/2000/svg" xmlns:xlink="http://www.w3.org/1999/xlink" x="0px" y="0px"
	 viewBox="0 0 920 59.67" style="enable-background:new 0 0 920 59.67;" xml:space="preserve">
<style type="text/css">
	.st0{fill:#DBA723;}
	.st1{fill:#FFFFFF;}
	.st2{font-family:'Livvic-SemiBold';}
	.st3{font-size:28.2023px;}
	.st4{display:none;}
</style>
<g id="refs">
</g>
<g id="Camada_4">
	<path class="st0" d="M212.47,37.87c-0.89-4.68-0.61-9.55-0.35-14.25c0.14-2.52,0.29-5.13,0.26-7.69c-0.04-3.5-0.42-7.13-4.39-9.79
		c-3.71-2.48-9.6-3.39-14.33-4.11c-8.82-1.35-17.35-1.19-26.39-1.02c-2.1,0.04-4.27,0.08-6.43,0.1l-0.15,0
		C150.58,1.21,113.3,1.3,103.02,1.3c-23.05,0-45.56,0.45-68.49,0.97C1.25,3.03,7.74,18.6,4.71,30.04
		c-2.13,8.05-11.36,18.65,3.88,25.3c7.11,3.11,17.61,3.5,27.25,3.61c23.99,0.28,48.07,0.23,72.07,0.31
		c23.71,0.08,46.56,1.22,70.32-0.74c7.94-0.66,16.01-1.57,22.7-3.72C213.3,50.84,213.69,44.27,212.47,37.87z"/>
	<g>
		<text transform="matrix(1 0 0 1 33.9022 38.792)" class="st1 st2 st3">Autoritário</text>
	</g>
	<path class="st0" d="M448.11,36.96c-0.89-4.68-0.61-9.55-0.35-14.25c0.14-2.52,0.29-5.13,0.26-7.69c-0.04-3.5-0.42-7.13-4.39-9.79
		c-3.71-2.48-9.6-3.39-14.33-4.11c-8.82-1.35-17.35-1.19-26.39-1.02c-2.1,0.04-4.27,0.08-6.43,0.1l-0.15,0
		c-10.11,0.09-47.39,0.19-57.67,0.19c-23.05,0-45.56,0.45-68.49,0.97c-33.27,0.75-26.79,16.32-29.81,27.77
		c-2.13,8.05-11.36,18.65,3.88,25.3c7.11,3.11,17.61,3.5,27.25,3.61c23.99,0.28,48.07,0.23,72.07,0.31
		c23.71,0.08,46.56,1.22,70.32-0.74c7.94-0.66,16.01-1.57,22.7-3.72C448.94,49.93,449.33,43.36,448.11,36.96z"/>
	<g>
		<text transform="matrix(1 0 0 1 269.8943 37.8896)" class="st1 st2 st3">Negligente</text>
	</g>
	<path class="st0" d="M683.83,37.87c-0.89-4.68-0.61-9.55-0.35-14.25c0.14-2.52,0.29-5.13,0.26-7.69c-0.04-3.5-0.42-7.13-4.39-9.79
		c-3.71-2.48-9.6-3.39-14.33-4.11c-8.82-1.35-17.35-1.19-26.39-1.02c-2.1,0.04-4.27,0.08-6.43,0.1l-0.15,0
		c-10.11,0.09-47.39,0.19-57.67,0.19c-23.05,0-45.56,0.45-68.49,0.97c-33.27,0.75-26.79,16.32-29.81,27.77
		c-2.13,8.05-11.36,18.65,3.88,25.3c7.11,3.11,17.61,3.5,27.25,3.61c23.99,0.28,48.07,0.23,72.07,0.31
		c23.71,0.08,46.56,1.22,70.32-0.74c7.94-0.66,16.01-1.57,22.7-3.72C684.66,50.84,685.04,44.27,683.83,37.87z"/>
	<g>
		<text transform="matrix(1 0 0 1 505.6116 38.792)" class="st1 st2 st3">Indulgente</text>
	</g>
	<path class="st0" d="M919.54,37.87c-0.89-4.68-0.61-9.55-0.35-14.25c0.14-2.52,0.29-5.13,0.26-7.69c-0.04-3.5-0.42-7.13-4.39-9.79
		c-3.71-2.48-9.6-3.39-14.33-4.11c-8.82-1.35-17.35-1.19-26.39-1.02c-2.1,0.04-4.27,0.08-6.43,0.1l-0.15,0
		c-10.11,0.09-47.39,0.19-57.67,0.19c-23.05,0-45.56,0.45-68.49,0.97c-33.27,0.75-26.79,16.32-29.81,27.77
		c-2.13,8.05-11.36,18.65,3.88,25.3c7.11,3.11,17.61,3.5,27.25,3.61c23.99,0.28,48.07,0.23,72.07,0.31
		c23.71,0.08,46.56,1.22,70.32-0.74c7.94-0.66,16.01-1.57,22.7-3.72C920.37,50.84,920.76,44.27,919.54,37.87z"/>
	<g>
		<text transform="matrix(1 0 0 1 733.8353 38.792)" class="st1 st2 st3">Autoritativo</text>
	</g>
</g>
<g id="Camada_2">
</g>
<g id="guias" class="st4">
</g>
</svg>
