<?xml version="1.0" encoding="utf-8"?>
<!-- Generator: Adobe Illustrator 24.0.1, SVG Export Plug-In . SVG Version: 6.00 Build 0)  -->
<svg version="1.1" id="Layer_1" xmlns="http://www.w3.org/2000/svg" xmlns:xlink="http://www.w3.org/1999/xlink" x="0px" y="0px"
	 viewBox="0 0 917.2 1470.2" style="enable-background:new 0 0 917.2 1470.2;" xml:space="preserve">
<style type="text/css">
	.st0{fill:#381213;}
	.st1{fill:#FFFFFF;}
	.st2{fill:#A0B0CE;}
	.st3{fill:#B8BFCD;}
	.st4{fill:#5679C1;}
	.st5{fill:#BC562C;}
	.st6{fill:#702305;}
	.st7{fill:#933710;}
	.st8{fill:#A7260C;}
</style>
<g>
	<path class="st0" d="M812,542.8c-9.6-13.6-25.4-26.1-23.1-42.6c2-14.9,17.9-23.3,25.8-36c9-14.3,7.1-33.3-0.6-48.3
		c-7.7-15-20.5-26.7-33.3-37.6c-15.9-13.5-34-30.9-30-51.3c2.1-10.7,10-19.3,14.2-29.4c6.5-15.7,3.4-34.2-4.5-49.3
		c-7.9-15.1-20.2-27.4-32.5-39.1c-11.2-10.6-23.6-22.5-24.4-38c-0.5-9.7,3.7-19,4.8-28.7c1.8-17-7-34-20-45.2
		c-13-11.2-29.6-17.4-46.3-21.1c-15.6-3.5-33.5-6.2-42.4-19.5c-4.2-6.3-5.6-14-8.5-21c-8.3-19.6-29.2-31.8-50.3-34.5
		c-21.1-2.7-40.7-0.8-60.6,6.7c-13.4-3.6-27-7.3-40.9-7c-13.9,0.3-28.3,5.1-37.2,15.8c-5.9,7.1-9,16.3-14.9,23.5
		c-11.6,14-31.3,17.5-49.1,21.4c-17.8,3.9-37.5,11.2-44.2,28.2c-5.5,14,0,30.3-4.1,44.8c-8.6,31.2-56,42.2-58.5,74.5
		c-1.4,19.3,14.9,35.7,16.6,55c2,22.3-15.4,41.1-31.5,56.6c-16.2,15.5-33.7,34.1-32.1,56.4c1.5,19.5,17.5,35.5,19.3,55
		c2.3,25.6-20.2,46.2-28.9,70.4c-9.7,27-0.3,59.6,22.2,77.3c22.6,17.7,56.6,19,80.4,3.1L729.6,633c24.5,14,58.3,8.7,77.3-12.1
		C826,600.1,828.2,565.8,812,542.8z"/>
	<path class="st1" d="M753.3,1428.6c0,1.7-0.1,3.3-0.1,5c-0.3,12.2-1,24.4-2.2,36.6H186.7c-0.9-18.4-0.5-37.2,1.1-56
		c0.1-1.3,0.2-2.5,0.3-3.8c2-22.1,5.4-44.2,10.1-66c0.4-2.1,0.9-4.1,1.3-6.1c3.4-15.3,7.4-30.4,11.9-45.1c0.3-1.1,0.6-2.1,1-3.2
		c0.4-1.3,0.8-2.7,1.2-4c6.4-20.3,13.3-40.5,20.8-60.6c0.5-1.4,1.1-2.9,1.6-4.3c7.5-20.1,15.5-40.1,23.8-59.9
		c0.5-1.3,1.1-2.6,1.6-3.9c6.1-14.5,12.4-29,18.9-43.3c-17.5-41.3-29.4-84.9-35.5-129.4c-0.3-2.2-0.6-4.3-0.9-6.5
		c-0.2-1.4-0.3-2.8-0.5-4.3c-2.6-22.1-3.8-44.4-3.5-66.7c0-1.5,0-3.1,0.1-4.6c0.4-19,1.9-37.9,4.4-56.7c0.1-1.2,0.3-2.5,0.5-3.7
		c1.2-8.4,2.6-16.7,4.2-25c2.1-10.9,4.7-21.9,8.2-32.6c0.4-1.4,0.9-2.8,1.4-4.1c6.1-17.1,14.7-32.9,27.8-45.3
		c17.5-16.5,37.8-26.9,59.9-33c0,0,0,0,0,0c4.6-1.3,9.2-2.3,13.9-3.2c0,0,0,0,0,0c66.6-12.8,147.1,7.6,216.7,15
		c15.5,1.6,31.2,3.4,46.4,6.8h0c4.4,1,8.8,2.1,13,3.5h0c6.8,2.1,13.5,4.7,19.9,7.9c23.2,11.6,41.3,30.7,54,53.4
		c0.7,1.3,1.4,2.5,2.1,3.8c9.5,18.1,15.7,38.2,18.3,58.3c0.3,2.2,0.5,4.5,0.8,6.7c0.2,1.5,0.3,3,0.4,4.6c0.9,12.4,0.8,24.8-0.2,37.2
		c-0.1,1.6-0.3,3.2-0.4,4.9c-2.1,21.7-6.7,43.3-12.5,64.5c-0.4,1.6-0.9,3.2-1.3,4.8c-1.7,6.1-3.5,12.1-5.4,18
		c-2.1,6.6-4.2,13.2-6.4,19.9c-12.9,38.7-27.2,77-35,117c8.9,14.3,17.1,29.1,24.6,44.2c1,1.9,1.9,3.9,2.8,5.8
		c10,20.7,18.6,42,25.9,63.8c0.6,1.8,1.2,3.6,1.8,5.4c6.7,20.8,12.3,41.9,16.6,63.4c0.3,1.7,0.7,3.3,1,5c3,15.5,5.3,31.1,6.9,46.7
		c0.2,1.4,0.3,2.7,0.4,4.1C752.8,1385.4,753.7,1407,753.3,1428.6z"/>
	<path class="st1" d="M917.2,969.1c-0.3,0.2-0.6,0.4-0.9,0.7c-1.9,1.5-3.8,2.9-5.7,4.3c-59,43.3-135.5,56.1-204.9,34.5
		c-6.7-2.1-13.3-4.5-19.9-7.2c1.7-9.3,3.3-18.7,4.6-28.1c0.2-1.6,0.4-3.1,0.6-4.7c2.8-21,4.6-42.2,5.3-63.5c0.1-1.5,0.1-3.1,0.1-4.7
		c0.3-11.8,0.4-23.7,0.1-35.5c0-1.5-0.1-3-0.1-4.5c-0.7-23-2.5-45.9-5.5-68.7c-0.2-1.3-0.3-2.6-0.5-3.9c-1-7.3-2.1-14.6-3.3-21.9
		c-72.9-0.6-149.6-1.1-225.9-0.8c-10.5,0-21,0.1-31.5,0.2c-18.8,0.1-37.4,0.3-56,0.6c-11.2,0.1-22.4,0.3-33.5,0.5
		c-19,0.3-37.7,0.7-56.3,1.2c-0.7,3-1.4,6-2.2,9.1c-0.3,1.4-0.7,2.7-1,4.1c-4.6,19.6-9.2,39.1-13.2,58.7c-0.3,1.3-0.5,2.5-0.8,3.7
		c-3.7,18.5-7,37-9.5,55.7c-0.2,1.7-0.4,3.4-0.7,5c-2.8,22.5-4.5,45.2-4.5,68.2c0,1.5,0,2.9,0,4.4c0,1.6,0,3.3,0.1,4.9
		c-2.5,1.1-5.1,2.2-7.7,3.2c-37.2,14.9-81.9,21.9-121.2,19.7c-22-1.3-43.7-5.5-64.7-12.3c-5.2-1.7-60.3-25.5-58.9-27.4
		c6.1-8.7,12.1-17.6,17.9-26.5c0.6-0.9,1.2-1.7,1.7-2.6c11.3-17.4,22-35.3,32.1-53.4c0.6-1,1.1-2,1.7-3
		c8.4-15.3,16.4-30.9,23.8-46.7c0.4-0.7,0.7-1.4,1-2.1c3.8-8.1,7.5-16.3,11-24.5c4.6-10.7,8.5-21.6,12.4-32.3c0.4-1,0.8-2,1.1-3
		c5.6-15.1,11.6-30,19.9-43.8c2.7-4.5,5.3-9.1,7.7-13.9c0.5-0.9,1-1.8,1.4-2.7c10-19.7,18.4-41.7,25.5-62.4c0.4-1.2,0.9-2.4,1.2-3.6
		c1-2.9,1.9-5.7,2.8-8.5c4.1-12.6,8.5-24.7,14.4-36.1c0.4-0.8,0.9-1.7,1.3-2.5c4.3-7.9,9.4-15.5,15.9-22.5
		c9.3-10.3,20.5-18.8,32.7-25.5c1.1-0.6,2.1-1.2,3.2-1.7c10.7-5.7,22.1-10.1,33.6-13.6c31.9-9.5,68.9-10.4,100-23.4
		c6.3,16.5,14.7,31.8,24.5,45.9c0.8,1.2,1.6,2.3,2.5,3.5c7.7,10.8,16.4,20.9,25.6,30.6c1.4,1.4,2.7,2.8,4.1,4.2
		c17.1,17.4,36.2,33.1,55.6,47.9c2.5,1.9,5,3.8,7.6,5.7c1.8,1.3,3.6,2.7,5.3,4c1.4-0.9,2.8-1.7,4.2-2.7c2-1.3,3.9-2.6,5.8-3.9
		c17.5-11.9,33.5-25.9,47.5-41.6c1.2-1.3,2.3-2.7,3.5-4c6.6-7.7,12.7-15.8,18.2-24.3c0.9-1.3,1.7-2.6,2.5-4
		c9.8-15.8,17.6-32.7,23-50.5c30.7,15.2,70.4,15.3,101.8,26.5c4.8,1.7,9.6,3.6,14.4,5.7c2.2,0.9,4.3,1.9,6.4,3
		c21.5,10.3,41.2,24.6,55.5,43.6c0.5,0.7,1.1,1.5,1.6,2.2c1.1,1.6,2.3,3.2,3.4,4.8c8.3,12.4,14.8,26,20.1,40.4
		c0.6,1.6,1.2,3.3,1.8,4.9c6,17.1,10.5,35.2,14.7,53.2c0.3,1.6,0.7,3.2,1.1,4.8c5.6,24.7,10.6,49.4,17.9,71.8c0.2,0.7,0.4,1.3,0.7,2
		c0.5,1.7,1.1,3.3,1.6,5c6.9,20.7,14.7,41.3,23.1,61.4c0.7,1.6,1.4,3.3,2.1,4.9c6.7,15.8,13.9,31.3,21.5,46.7
		c0.8,1.5,1.5,3.1,2.3,4.6C893,927.8,904.7,948.7,917.2,969.1z"/>
	<g>
		<g>
			<path class="st2" d="M775.3,606.7c-20.5,4.3-41.4,6.7-62.3,7.8c-56.4,2.9-112.2-4.2-168.1-10.8c-34.6-4.1-69.1-8-103.9-9.2
				c-7.4-0.2-14.7-0.3-22.1-0.3c-81.2,0.4-162.3,16.4-243.3,5.2c0.4-0.8,0.9-1.7,1.3-2.5c48.7,6.1,97.9,2.2,146.7-1.8
				c30.4-2.5,60.8-4.7,91.2-5.1c14-0.2,27.9,0,42,0.8c30.6,1.7,61.1,5.2,91.6,8.8c14.1,1.7,28.3,3.4,42.4,4.9
				c60.7,6.6,122,9.2,181.1-2.7C773,603.5,774.2,605.1,775.3,606.7z"/>
		</g>
		<g>
			<path class="st2" d="M797.2,652c-26.3,4.6-52.8,8.3-79.3,10.8c-53.2,5-105.9,2.6-158.8-4.2c-22.5-2.9-45-6.3-67.5-9.5
				c-3.2-0.4-6.3-0.9-9.5-1.3c-25.9-3.5-51.9-6.6-78-8c-82-4.4-165.4,15.8-246.9,7.7c0.4-1.2,0.9-2.4,1.2-3.6
				c38.2,3.1,77,0.1,115.2-3.3c50.8-4.5,101-8.4,151.9-4c16.4,1.4,32.8,3.3,49.1,5.5c7.6,1,15.3,2.1,22.9,3.1
				c26.3,3.7,52.6,7.7,79.1,10.8c51.8,6,103.3,6.4,155.2,0.6c21.4-2.4,42.6-5.8,63.7-9.5C796,648.7,796.6,650.4,797.2,652z"/>
		</g>
		<g>
			<path class="st2" d="M813,710c-18.4,0.2-36.8,1-55.2,2.5c-40.5,3.3-80.8,8.8-121.3,12h0c-16.6,1.3-33.2,2.3-49.9,2.5
				c-56.1,0.8-111.5-7.4-166.8-16.2c-24.4-3.9-48.8-7.3-73.5-8.4c0,0,0,0,0,0c-3.8-0.2-7.6-0.3-11.3-0.3c-28.5-0.3-56.9,2-85.2,4.5
				c-39.8,3.6-79.7,7.6-119.5,6c0.5-0.9,1-1.8,1.4-2.7c49,1.4,98.2-5.7,147.1-9.5c27.1-2.2,54.3-3.2,81.5-1.2c0,0,0,0,0,0
				c0.6,0,1.2,0.1,1.8,0.1c26.2,2,52.2,6.5,78.1,10.6c57.8,9.1,115.7,15,174.2,11.6c3-0.2,5.9-0.3,8.9-0.5h0
				c54.2-3.7,108-12.1,162.2-14.9c8.7-0.4,17.5-0.8,26.2-0.9C812.2,706.8,812.6,708.4,813,710z"/>
		</g>
		<g>
			<path class="st2" d="M833.2,788.8c-16.4-2.2-32.8-3.8-49-3.7c-24,0-47.8,2.2-71.6,4.6c-7.2,0.7-14.3,1.4-21.5,2.1
				c-33.3,3.2-66.6,5.5-100.3,1.4c-54-6.5-106.7-23.5-160.9-27.8c-8.5-0.7-16.9-1-25.5-1c-10.2,0-20.4,0.6-30.5,1.6
				c-31.2,2.9-62,9.4-92.9,14.9c-7.9,1.4-15.7,2.8-23.6,4c-11.5,1.8-23,3.3-34.6,4.3c-29.1,2.5-58.3,1.5-86.7-5.8
				c-11.6-3-23-6.6-34.4-10c0.4-1,0.8-2,1.1-3c12.6,3.5,25.1,7.4,37.8,10.4c35.2,8.2,71.3,6.7,106.9,1.6c3.8-0.5,7.5-1.1,11.3-1.7
				c7.7-1.2,15.5-2.6,23.2-4c19.5-3.5,38.9-7.3,58.4-10.3c28.5-4.4,57.2-7.3,86.4-5.2c11.6,0.8,23.2,2.2,34.6,4
				c48.9,7.5,96.7,21.7,146.2,25.4c27.8,2.1,55.4,0,83-2.8c6.6-0.7,13.2-1.4,19.9-2.1c30.3-3.2,60.7-6.3,91.2-4.7
				c9.9,0.5,19.9,1.5,29.9,2.8C832.1,785.5,832.6,787.1,833.2,788.8z"/>
		</g>
		<g>
			<path class="st2" d="M858.4,855.1c-16.6-0.7-33.1-1.5-49.3-1.6c-26-0.2-51.5,2.1-77.1,5.7c-8.1,1.1-16.2,2.4-24.2,3.7
				c-3.7,0.6-7.4,1.2-11.1,1.8c-28.3,4.7-56.8,9.2-85.6,9.4c-64.6,0.6-127.2-17.8-190.4-28.6c-33.3-5.7-66.8-9-100.5-7.3
				c-17.8,0.9-35.4,2.8-53.1,5c-7.5,0.9-15,1.8-22.6,2.7c-8.2,1-16.5,1.9-24.8,2.7c-47.7,4.7-98.7,4.2-142.5-16.4
				c0.4-0.7,0.7-1.4,1-2.1c51.3,23.7,111.1,18.8,166.7,12.1c3.2-0.4,6.3-0.8,9.5-1.2c4.4-0.5,8.9-1.1,13.3-1.6
				c28.2-3.4,56.4-6.3,84.8-5.3c30.7,1.1,61,6,91.1,11.7c62.8,12,125.9,27.8,190.3,22.9c21-1.6,41.8-5,62.5-8.5
				c11.7-2,23.4-4,35.1-5.7c1.3-0.2,2.5-0.4,3.8-0.6c30.6-4.4,61.1-5.7,91.9-4.8c9.6,0.3,19.3,0.6,28.9,1
				C857,851.9,857.7,853.5,858.4,855.1z"/>
		</g>
		<g>
			<path class="st2" d="M882.2,906.4c-23.1-0.1-46.1-2.6-69.5-5.2c-27.5-3-54.3-2.3-81.3,0.1c-9.2,0.8-18.5,1.8-27.9,2.8
				c-2.4,0.3-4.7,0.5-7.1,0.8c-32.1,3.6-64.3,6-96.4,0.3c-34.7-6.1-67.8-18.9-102.4-25.6c-36.5-7.1-74-8.7-111-5.1
				c-43.9,4.2-86.5,19.9-129.8,29.4c-5.6,1.2-11.2,2.4-16.9,3.3c-20.1,3.5-40.3,5.2-60.9,3.4c-42.9-3.8-84.8-21-127.3-28.5
				c0.6-1,1.1-2,1.7-3c47.1,8.2,93.3,27.9,141.5,28.2c15.2,0.1,30.3-1.7,45.1-4.6c5.8-1.1,11.6-2.4,17.4-3.7
				c14.4-3.4,28.6-7.4,42.8-11.4c33.4-9.2,67-16.7,101.7-18.7c34.9-2,70.2,0.7,104.4,8c34.3,7.3,67.4,20.2,102.3,25.2
				c29.3,4.2,58.7,1.5,87.9-1.8c7.5-0.9,14.9-1.7,22.3-2.6c4.3-0.5,8.7-0.9,12.9-1.3c31.6-2.7,62.3-2.1,94.2,1.6
				c18.1,2.1,36,3.6,53.9,3.7C880.7,903.3,881.4,904.9,882.2,906.4z"/>
		</g>
		<g>
			<path class="st2" d="M916.3,969.7c-1.9,1.5-3.8,2.9-5.7,4.3c-12.2-1-24.5-2.5-36.9-4.3c-39.8-5.6-78.9-6-118.9-2.7
				c-12.4,1-24.8,2.3-37.2,3.5c-9,0.9-18.1,1.8-27.1,2.6c-16.4,1.5-32.9,2.6-49.4,3c-38.1,1-74.3-3.9-111-13.6
				c-38.5-10.2-75.8-18.7-116-16.4c-55,3.2-107.8,19.8-161.6,30.4c-2.8,0.5-5.6,1.1-8.5,1.6c-17.5,3.3-35.1,5.8-53,6.9
				c-34.3,2.2-69.4-0.6-101.6-13.2C65.5,962.5,43,944.7,18,938.2c0.6-0.9,1.2-1.7,1.7-2.6c26.4,6.8,50.1,25.6,75.6,34.6
				c37.4,13.2,77.9,13.5,116.9,8.7c10.5-1.3,20.9-3,31.3-4.9c3-0.6,6-1.1,8.9-1.7c60-12,119-31.3,180.7-31
				c37.1,0.2,71.7,10.5,107.3,19.5c38.2,9.7,76.5,12.4,115.7,10.3c11.7-0.6,23.3-1.5,34.9-2.6c9.3-0.8,18.5-1.7,27.8-2.7
				c17-1.7,34-3.3,51.1-4.5c36.7-2.5,72.4-0.7,108.8,4.4C891.4,967.5,903.9,968.9,916.3,969.7z"/>
		</g>
		<g>
			<path class="st2" d="M698.1,1175.5c-5.7-2-11.4-4-17.2-5.8c-43.9-13.6-85.2,4.2-127.8,13.4c-39.6,8.6-80.6,10.6-120.9,5.9
				c-20.4-2.4-40.4-6.6-60.1-12.2c-20.8-5.9-41.5-12.8-63-15.6c-16.5-2.1-33-2-49.3,0.1c0.5-1.3,1.1-2.6,1.6-3.9
				c15.8-2.1,31.9-2.2,47.9-0.2c20.5,2.5,40.3,8.8,60.1,14.5c21.8,6.2,43.9,11,66.5,13.4c43.1,4.6,86.8,1.3,128.8-9.3
				c39.1-9.9,77.3-22.8,117.4-10.4c4.4,1.4,8.8,2.9,13.1,4.4C696.2,1171.6,697.1,1173.5,698.1,1175.5z"/>
		</g>
		<g>
			<path class="st2" d="M714.7,556.1c-18.8,9.2-39.9,14.8-58.8,17.9c-30,5-59.7,4.3-89.3,1.3c-48.5-4.8-96.7-15.4-145.5-17
				c-10.2-0.3-20.9,0.2-31.7,1c-55.2,4.4-116.9,19-163.7-10.6c1.1-0.6,2.1-1.2,3.2-1.7c28.5,16.3,63.9,17.5,96.5,14.6
				c20.8-1.9,41.2-4.3,61.6-5.7c18.3-1.3,36.6-1.8,55.4-0.3c39.9,3.1,79.3,10.9,119.1,15c2.6,0.3,5.2,0.5,7.8,0.7
				c31,2.8,62.5,2.8,93.2-3.4c15.8-3.2,31.4-8,46-14.9C710.5,554.1,712.6,555.1,714.7,556.1z"/>
		</g>
		<g>
			<path class="st2" d="M725.8,1244.6c-3-0.3-5.9-0.8-8.9-1.3c-24.1-4.1-47.3-11.5-71.9-12.6c-24.5-1.1-48.9,2.2-73,6.5
				c-46.8,8.4-92.7,19.4-140.6,16.7c-47.8-2.8-92.5-17.5-139.1-26.4c-19.7-3.8-39-4.1-57.8-2c0.5-1.4,1.1-2.9,1.6-4.3
				c16.9-1.9,34.2-1.8,51.9,1.1c23.7,3.9,46.7,10.9,70,16.1c24.8,5.5,50,9.6,75.4,10.9c50,2.5,97.7-10.4,146.6-18.5
				c22.1-3.7,44.5-6.2,66.9-5c22.5,1.2,44,7.4,66,11.6c3.7,0.7,7.5,1.3,11.2,1.8C724.6,1241,725.2,1242.8,725.8,1244.6z"/>
		</g>
		<g>
			<path class="st2" d="M743.3,1313c-16.5,1.4-33.2,1.4-49.8-0.4c-43.9-4.8-86.2-17.6-130.8-16.8c-44.2,0.8-87.7,10.1-131.3,16.3
				c-40.4,5.8-81.1,8.5-121.4,0.3c-32.5-6.6-65.5-19-98.7-19.1c0.3-1.1,0.6-2.1,1-3.2c34.4-0.1,68.6,12.5,102.5,18.8
				c86.9,16.2,172.1-19.3,258.9-18c44.4,0.7,87,14.9,131.1,17.8c12.6,0.9,25.1,0.5,37.5-0.7C742.7,1309.6,743,1311.3,743.3,1313z"/>
		</g>
		<g>
			<path class="st2" d="M750.7,1363.9c-27.9-0.1-55.8-3.2-83.7-6c-44-4.5-86.8-5.5-130.8-0.1c-43.8,5.4-87.6,14-131.9,13.2
				c-21.1-0.4-41.7-3.3-62.1-8.5c-21.4-5.4-42.3-12.4-64.1-16.1c-22.5-3.9-45.6-4.9-68.4-3.1c-3.9,0.3-7.8,0.7-11.6,1.2
				c0.4-2.1,0.9-4.1,1.3-6.1c26.9-2.9,54.6-1.4,80,3c21.2,3.7,41.5,10.4,62.2,15.8c23,6,46.3,9,70.1,8.9c44.4-0.2,88.1-9,132-14
				c44.6-5.1,88.1-2.6,132.7,2.2c24.5,2.6,49.2,5.2,73.7,5.6C750.4,1361.1,750.6,1362.5,750.7,1363.9z"/>
		</g>
		<g>
			<path class="st2" d="M753.3,1428.6c0,1.7-0.1,3.3-0.1,5c-15.1,0.6-30.2,0.1-45.4-1.9c-23.4-3.2-46.2-10-69.6-13.3
				c-25.1-3.6-50-1.3-74.9,2.4c-45.8,6.7-91.6,13.6-138,11.9c-22.8-0.8-45.3-3.8-67.5-9c-22-5.2-43.8-12-66.1-15.8
				c-35-6-70-2.3-104,6.3c0.1-1.3,0.2-2.5,0.3-3.8c34.8-9.1,70.6-13,106.7-6.6c23,4.1,45.3,11.1,68,16.2c23.7,5.3,47.9,7.8,72.2,8.1
				c47.6,0.5,94-8,141-14c22.5-2.9,44.8-3.5,67.3,0.1c23.8,3.8,47,10.7,70.9,13.4C727.3,1429,740.3,1429.2,753.3,1428.6z"/>
		</g>
	</g>
	<g>
		<path class="st3" d="M291.8,737.5c-10.9,30.4-19.2,61.6-25.7,93.2c-6.1,29.7-12.9,62-12.6,92.4c0,2.5,4.1,3.3,4.6,0.6
			c2.7-15.5,3.4-31.4,5.6-47c2.2-15.6,4.8-31.2,7.9-46.7c6.1-31,14.3-61.5,23.3-91.8C295.4,736.4,292.4,735.6,291.8,737.5
			L291.8,737.5z"/>
	</g>
	<polygon class="st4" points="253.3,820.8 597.1,775.2 671.8,1210.2 334.2,1277.3 	"/>
	<path class="st5" d="M712.6,1042c-7.8,7.3-20,6.7-30.6,5.6c-19.5-2-39.1-4-58.6-6c-13.4-1.4-64.2-3.9-63.8-24.4
		c0.2-9.9,18.9-18.1,26.3-22.4c11-6.3,22.6-11.5,34.6-15.6c13.8-4.7,28.2-7.9,42.8-9.4c9.1-0.9,18.9-1.1,27.5,1.6
		c-0.1,0.6-0.2,1.2-0.2,1.7c-1.3,9.4-2.9,18.8-4.6,28.1c6.5,2.7,13.2,5.1,19.9,7.2c4.4,1.4,8.8,2.6,13.2,3.7
		C720.6,1022.7,720.4,1034.8,712.6,1042z"/>
	<g>
		<path class="st6" d="M627.5,993.6c20.8-6.2,42-7.8,63-12.2c1.8-0.4,1.3-3.1-0.4-3.1c-21.3-0.4-43.2,6.5-63.3,12.8
			C625.2,991.6,625.8,994.1,627.5,993.6L627.5,993.6z"/>
	</g>
	<g>
		<path class="st6" d="M649.3,1007.8c12.8-4,25.9-5.6,38.8-8.8c1.7-0.4,1.4-3.2-0.4-3.1c-13.3,0.6-26.6,5.2-39,9.5
			C647.1,1005.9,647.7,1008.3,649.3,1007.8L649.3,1007.8z"/>
	</g>
	<g>
		<path class="st3" d="M686.8,760.1c11.6,79.1,9,161.6-3.6,240.4c-0.5,3.4,4.6,4.8,5.2,1.4c13.1-80.6,13.5-161.8,0.6-242.4
			C688.8,758.1,686.6,758.7,686.8,760.1L686.8,760.1z"/>
	</g>
	<path class="st5" d="M514.8,1064.6c-129.7,51.1-270.2,74.2-409.4,67.3c-16.5-0.8-32.7-4.1-46.9-12.6
		c-13.7-41.5-15.4-86.9-5.3-129.4c2.9,1.2,4.9,2,5.7,2.3c20.9,6.8,42.7,11,64.7,12.3c42,2.4,90.3-5.8,128.9-22.9
		c-0.1-5.1-0.1-10.1-0.1-15.1c79.7,6.3,158.2,21.2,232.8,50.7C500.9,1023.3,514.7,1047.8,514.8,1064.6z"/>
	<path class="st5" d="M833.4,1156.9c-3.2,12.9-16.5,6.7-29.7,5.7c-57.9-4.3-114.4-19.7-170.4-34.9c-48.2-13.1-96.5-26.3-142.6-45.3
		c-46.1-19.1-90.3-44.3-126.1-79c-27.9-27-73.2-20.9-112.1-21.8c-0.1-5.3-0.1-10.6-0.1-15.9c0-1.7,0.1-3.4,0.1-5.1
		c0-1.7,0.1-3.4,0.1-5.1c0.3-8.5,0.8-16.9,1.5-25.3c3-1.1,6.4-1.1,9.6-1.1c52.8,0.7,105.4,14.6,151.7,40.2
		c48,26.5,101,37.5,155.7,41.4c54.7,3.9,94.4,0,148.6,8.5c0.2-2-0.9-5.1-0.7-6.9c35.8,10.1,86.2,7.1,119.3-2.6
		C846.9,1058.4,845.3,1108.9,833.4,1156.9z"/>
	<g>
		<path class="st6" d="M562.3,1011.9c42,6.8,84.6,4.7,126.9,7.4c21.4,1.4,42.9,4.1,63.4,10.3c23.4,7,43.5,19.1,62.4,34.3
			c2.2,1.8,5.4-1.1,3.2-3.2c-66.3-66.7-171.5-40-255-52.6C560.9,1007.7,559.8,1011.5,562.3,1011.9L562.3,1011.9z"/>
	</g>
	<g>
		<path class="st6" d="M251.5,980.7c14.8,12.1,33.2,14.5,51.7,12.4c12.5-1.4,22.2-1.5,34,3.7c10.3,4.6,19.5,10.6,28.5,17.4
			c17.5,13.1,36.9,24.2,55.9,35c19,10.8,39.6,23.2,60.7,29.5c2.4,0.7,3.8-2.8,1.7-4c-19.3-11-40.4-19-59.9-29.8
			c-18.5-10.4-37.3-21.2-54.4-33.8c-14-10.3-30.1-21.6-47.9-23.7c-9.5-1.1-19,1.9-28.4,2.3c-14.3,0.7-28.2-2.2-39.7-11.1
			C252.1,977.4,250,979.4,251.5,980.7L251.5,980.7z"/>
	</g>
	<g>
		<path class="st6" d="M279.2,989.5c-30.7-0.8-65.8,5.7-93.5,19.3c-1.4,0.7-0.3,2.6,1,2.3c15-2.5,29.4-8.3,44.2-11.8
			c15.9-3.7,32-6,48.3-5.7C281.9,993.7,281.9,989.6,279.2,989.5L279.2,989.5z"/>
	</g>
	<path class="st7" d="M502.3,462.8c18.1-3.2,33.4-12,45.3-24.2c-0.3-20,4.8-39.9-0.4-59.3c-42.2,0-83.8,1.6-126,1.6
		c0.7,15.9,1.1,32.5-0.7,48.5C435.3,457.4,471,469.8,502.3,462.8z"/>
	<path class="st5" d="M616.7,233.3c-4.4,31.3-9.2,62.8-19.3,92.5c-10.1,29.6-26.1,57.7-49.2,76.5C525,421,494,429.6,466.6,420
		c-19.8-6.9-36.3-22.4-49.9-39.7c-30.3-38.4-48.9-87.8-52.3-138.5c7.2-0.3,15.7-5.6,18-13.2c2.5-8.5-2.2-17.4-6.7-24.9
		c-4.5-7.5-9.1-16.5-6.2-24.9c2.6-7.8,10.7-11.6,18.2-12.2c7.5-0.6,15,1.2,22.5,0.8c7.5-0.4,15.7-3.9,18.7-11.5
		c4.6-11.5-4.7-26.7,2.1-36.8c5.1-7.6,15.3-6.7,23.7-7.9c16.9-2.5,31.6-17.9,34.8-36.4c-3.9,9.6,1.8,21.9,8.9,29
		c7.1,7.1,17.3,9.5,26.8,8c5.4-0.9,10.7-2.9,16.2-3.1c5.5-0.2,11.6,2,14.2,7.3c3.5,7.2-0.8,16.4,1.6,24.1
		c2.6,8.3,11.6,11.6,19.5,12.9c7.9,1.3,16.8,2.4,21.8,9.2c6.4,8.7,3.1,21.4,2.8,32.7C600.9,210.2,605.6,223.9,616.7,233.3z"/>
	<path class="st5" d="M612.2,304.2c-20.5,1.1-18-29.4-15-42.2c3.6-15.5,13.3-30.6,30.5-31.9c7.7-0.6,15.9,2.8,20,9.3
		c4.8,7.6,3.5,17.5,0.5,26c-3.6,10.4-9.5,20.1-17.1,28.1C626,299,619.6,303.8,612.2,304.2z"/>
	<path class="st5" d="M360.1,304.2c20.5,1.1,18-29.4,15-42.2c-3.6-15.5-13.3-30.6-30.5-31.9c-7.7-0.6-15.9,2.8-20,9.3
		c-4.8,7.6-3.5,17.5-0.5,26c3.6,10.4,9.5,20.1,17.1,28.1C346.3,299,352.7,303.8,360.1,304.2z"/>
	<path class="st0" d="M399.8,199.6c1.2-6.5,5-12.2,10-16.6c5-4.4,11.4-7.4,18.1-8.6c6.8-1.2,13.7-0.6,20,1.8
		c6.2,2.4,11.8,6.4,15.2,12.1c0.3,0.6,0.2,1.3-0.4,1.6c-0.2,0.1-0.5,0.2-0.8,0.2l0,0c-6.2-1-11.5-1.6-16.6-1.8
		c-5.1-0.1-10,0.2-14.7,1c-4.7,0.8-9.4,2.2-14.1,4.1c-4.8,1.9-9.5,4.3-15,7.4l0,0c-0.6,0.3-1.3,0.1-1.6-0.4
		C399.8,200.1,399.8,199.9,399.8,199.6z"/>
	<path class="st0" d="M523.9,184.3c3.9-5.1,9.5-8.3,15.6-10.2c6.1-1.9,12.7-2.1,19-0.9c6.4,1.2,12.4,4,17.3,8.2
		c4.8,4.2,8.6,9.6,9.7,16.2c0.1,0.7-0.3,1.3-1,1.5c-0.2,0-0.4,0-0.6,0l0,0c-6.1-1.9-10.8-3.6-15.5-5.1c-4.6-1.5-9-2.8-13.4-3.9
		c-4.4-1.1-9-1.9-13.9-2.5c-4.9-0.6-10.1-0.9-16.2-1.2l0,0c-0.7,0-1.2-0.6-1.1-1.3C523.7,184.7,523.8,184.5,523.9,184.3z"/>
	<path class="st0" d="M545,254.7c1.8,0.5,3.8-0.1,5.3-1.3c1.5-1.2,2.5-2.9,3.2-4.6c1.3-3.3,1.7-6.9,1.2-10.4c-0.4-2.3-1.2-4.6-3-6.1
		c-2.8-2.4-8.2-1.9-10.6,1C537,238,537.9,252.8,545,254.7z"/>
	<path class="st0" d="M440.8,255.2c1.8,0.5,3.8-0.1,5.3-1.3c1.5-1.2,2.5-2.9,3.2-4.6c1.3-3.3,1.7-6.9,1.2-10.4
		c-0.4-2.3-1.2-4.6-3-6.1c-2.8-2.4-8.2-1.9-10.6,1C432.9,238.5,433.7,253.3,440.8,255.2z"/>
	<path class="st1" d="M540.6,347.8c2.5-5.2,4.5-10.6,6.4-16c-30.7,11.8-65.7,12.2-96.7,1.1c0.7,5.1,2.2,10.1,4.3,14.7
		C481.7,356.6,515.9,361.6,540.6,347.8z"/>
	<path class="st8" d="M454.6,347.7c3.2,6.9,7.9,13,14,17.6c10.2,7.7,23.5,11.2,36.2,9.7c8-0.9,15.8-3.8,22-8.8
		c6-4.9,10.3-11.3,13.7-18.4C515.9,361.6,481.7,356.6,454.6,347.7z"/>
	<g>
		<path class="st6" d="M487,243.3c1.1,9.2,3.2,18.7,10.4,25c6.1,5.3,21.4,10,16.2,21.4c-4.7,10.4-15.5,9.8-24.9,9.4
			c-3.2-0.1-4,5.2-0.8,5.7c13,1.9,30.6-1.2,31.9-17.3c0.5-6.2-2.4-12-7.2-15.8c-4.6-3.6-10.3-5.3-14.3-9.7
			c-4.7-5.2-6.4-12.5-8.2-19.1C489.7,241.2,486.7,241.4,487,243.3L487,243.3z"/>
	</g>
	<path class="st5" d="M565.8,500.6c-13.5-16.1-17.2-38.1-18.1-59.1c0-1-0.1-2-0.1-3c-11.9,12.3-27.2,21.1-45.3,24.2
		c-31.3,7-67.1-5.5-81.8-33.4c-2.1,18.8-7.3,36.7-18.8,51.5c-10.9,14-24.4,22.9-39.2,29.1c23.3,61.1,74.2,104,125,141.7
		c49.1-30.5,88.3-76.4,104.7-130.9C582.2,516,573.2,509.6,565.8,500.6z"/>
</g>
<g>
</g>
<g>
</g>
<g>
</g>
<g>
</g>
<g>
</g>
<g>
</g>
<g>
</g>
<g>
</g>
<g>
</g>
<g>
</g>
<g>
</g>
<g>
</g>
<g>
</g>
<g>
</g>
<g>
</g>
</svg>
