<?xml version="1.0" encoding="utf-8"?>
<!-- Generator: Adobe Illustrator 24.0.1, SVG Export Plug-In . SVG Version: 6.00 Build 0)  -->
<svg version="1.1" id="Layer_1" xmlns="http://www.w3.org/2000/svg" xmlns:xlink="http://www.w3.org/1999/xlink" x="0px" y="0px"
	 viewBox="0 0 1012.2 1516.1" style="enable-background:new 0 0 1012.2 1516.1;" xml:space="preserve">
<style type="text/css">
	.st0{fill:#F69281;}
	.st1{fill:#381213;}
	.st2{fill:#5679C1;}
	.st3{fill:#AC2F1A;}
	.st4{fill:#FFFFFF;}
	.st5{fill:#BC562C;}
	.st6{fill:#DE8261;}
	.st7{fill:#802B07;}
	.st8{fill:#F4ECC2;}
	.st9{fill:#C7B978;}
	.st10{fill:#9E9048;}
	.st11{fill:#BC4C38;}
	.st12{fill:#37599F;}
</style>
<g>
	<path class="st0" d="M383.6,301.2c-2.4,2.1-5.7,3.6-10,4.1c-13.4,1.7-26-12-32.4-22.5c-4.6-7.6-7-16.9-5.1-25.6
		c1.9-8.7,8.5-16.6,17.1-18.8c10.5-2.6,21.6,3.5,28.5,11.9c7.7,9.3,6.5,22.5,7.2,34.6C389.3,291.8,387.8,297.6,383.6,301.2z"/>
	<path class="st1" d="M629.1,252.7c5.9-26.8,9.6-54.1,11.2-81.6c-8.2-5.7-19.3-4.3-25.8,3.2c-5.9,6.8-6.6,16.5-7,25.5
		c-0.5,9.4-0.9,18.9-1.4,28.3c-0.3,7.2-0.6,14.9,3,21.1C612.6,255.6,623.3,257.1,629.1,252.7z"/>
	<path class="st0" d="M604,301.2c2.4,2.1,5.7,3.6,10,4.1c13.4,1.7,26-12,32.4-22.5c4.6-7.6,7-16.9,5.1-25.6
		c-1.9-8.7-8.5-16.6-17.1-18.8c-10.5-2.6-21.6,3.5-28.5,11.9c-7.7,9.3-6.5,22.5-7.2,34.6C598.2,291.8,599.8,297.6,604,301.2z"/>
	<path class="st2" d="M740.5,1348.2c-3.3-35.5-6.8-72.7-27.7-101.6c-144.2-12.8-289.4-18.4-434.1-14
		c-30.5,88.4-46.9,189.9-48.5,283.5h516.8C746.4,1460.1,745.6,1404,740.5,1348.2z"/>
	<path class="st0" d="M515.9,528.2c-22.3,1.4-44.6-2.2-66.6-6.3c-14.5-2.7-29.9-5.1-39-16.7c3.2-21.9,10.5-42.6,15-64.2
		c1.1-5.4,9.4-66.1,6.4-66.1c40.4,1.1,81.1,1.5,121.5,2.7c-2,21.9,1.6,44.1,9.3,64.6c3.8,10.2,8.5,20.5,14.5,29.7
		c5.2,8,10.4,16.9,16.6,24.2c1.5,1.8-24.9,17.4-27,18.7C551.8,523.4,533,527.1,515.9,528.2z"/>
	<path class="st1" d="M617.4,173.2c-4.6,56.5-6.9,112.8-17.5,168.6c-2.2,11.8-9.2,19.3-17,28.2c-17.8,20.3-41.1,49.1-71.2,48.4
		c-9.8-0.2-19.7-1.3-29.5-2.2c-11.8-1.2-21.8-9.3-31.5-15.9c-11.1-7.5-21.6-15.7-31.7-24.4c-14.7-12.8-26.9-25.8-30.5-45.4
		c-2.5-13.8-4.8-27.7-6.8-41.5c-4-27.8-7.1-55.7-9.2-83.7c-1.7-22.8-1.6-45.2,9-65.4c1.5-2.8,3.1-5.4,4.9-7.9
		c-2.4,6.8-3.2,14.2-2.8,21.5c0.7,12.4,4.7,23.1,5.8,35.5c2.9,32.5,8.5,64.7,16.4,96.3c2,7.9,4.2,15.8,6.5,23.6
		c2,6.7,3.3,15.4,7.4,21c8.4,11.5,22.3,21.4,33.7,29.7c6.1,4.4,12.4,8.5,18.8,12.3c7.3,4.3,19.7,3.2,28.2,3.7
		c8.8,0.5,18,1.4,26.8,0.7c7-0.6,13.3-5.3,19-9.2c11.9-8.2,22.3-18.5,30.6-30.3c8.6-12.1,10.1-29.3,13.1-43.8
		c6.6-32.5,11.2-65.4,13.7-98.4c1-13.5,1.7-27.1,2-40.7c3.9-6,4.2-13.9-0.9-19c-5.1-5.1-12.2-7.4-19.1-9.5
		c-44.1-13.3-90.1-20.7-136.2-22.3c-9.3-0.3-18.7-0.4-27.9,1.3c3.2-1.4,6.4-2.7,9.7-3.8c20.7-6.7,42.9-7.4,64.6-5.8
		c23.7,1.7,47.2,5.8,70,12.4c10.4,3,20.9,6.7,28.8,14.1C608.9,134.1,619,154,617.4,173.2z"/>
	<g>
		<path d="M520.2,377.3c-5.1,0-10.3-0.3-15.3-0.7c-1.5-0.1-2.9-0.2-4.3-0.3c-1.9-0.1-4.1-0.1-6.3-0.2c-7.7-0.1-16.4-0.2-22.3-3.7
			c-6.4-3.7-12.7-7.9-18.9-12.3l-0.9-0.7c-11.6-8.4-24.7-17.9-33-29.2c-3.2-4.4-4.8-10.7-6.2-16.3c-0.4-1.8-0.9-3.5-1.4-5.1
			c-2.3-7.9-4.5-15.8-6.5-23.6c-8-31.6-13.5-64.1-16.5-96.5c-0.5-5.7-1.7-11.3-2.8-16.6c-1.3-6.1-2.6-12.3-3-19
			c-0.4-7.8,0.6-15.4,2.8-21.9c0-0.1,0.1-0.2,0.1-0.3c8.4-11.8,20.8-21.5,35.7-28.2c0.1,0,0.2-0.1,0.2-0.1
			c9.5-1.8,19.1-1.6,28.1-1.3c46.9,1.7,92.8,9.2,136.4,22.4c7.3,2.2,14.4,4.7,19.6,9.8c5,5,5.5,13.2,1.2,20.1
			c-0.3,13.6-1,27.2-2,40.5c-2.5,32.9-7.1,66.1-13.7,98.6c-0.6,2.8-1.1,5.7-1.6,8.7c-2.2,12.5-4.6,25.5-11.6,35.5
			c-8.5,12-18.9,22.3-30.9,30.6l-1.4,1c-5.4,3.7-11.5,7.9-18.2,8.5C525.1,377.3,522.7,377.3,520.2,377.3z M387.5,132.2
			c-2.1,6.2-3.1,13.4-2.7,20.9c0.4,6.5,1.7,12.6,2.9,18.6c1.1,5.4,2.3,11,2.9,16.8c2.9,32.3,8.4,64.6,16.4,96.1
			c2,7.8,4.1,15.7,6.5,23.5c0.5,1.6,0.9,3.4,1.4,5.2c1.4,5.6,2.9,11.4,5.9,15.5c8.1,11.1,21.1,20.5,32.5,28.8l0.9,0.7
			c6.1,4.4,12.4,8.5,18.7,12.2c5.4,3.2,13.8,3.3,21.3,3.4c2.3,0,4.4,0.1,6.4,0.2c1.4,0.1,2.9,0.2,4.3,0.3c7.4,0.5,15.1,1,22.3,0.4
			c6.1-0.5,12-4.5,17.1-8.1l1.4-1c11.8-8.1,22-18.2,30.4-30.1c6.8-9.6,9-22.3,11.2-34.6c0.5-3,1.1-5.9,1.6-8.7
			c6.6-32.4,11.2-65.5,13.7-98.3c1-13.3,1.7-27,2-40.7c0-0.2,0.1-0.4,0.2-0.6c3.9-6,3.6-13.3-0.7-17.6c-4.9-4.8-11.6-7.1-18.7-9.3
			c-43.4-13.1-89.1-20.6-135.9-22.3c-8.9-0.3-18.3-0.4-27.6,1.3C407.7,111.4,395.7,120.8,387.5,132.2z"/>
	</g>
	<path class="st0" d="M605.9,153.5c-0.3,13.6-1,27.2-2,40.7c-2.5,33.1-7.1,66-13.7,98.4c-3,14.5-4.5,31.6-13.1,43.8
		c-8.4,11.8-18.7,22.1-30.6,30.3c-5.7,3.9-12.1,8.7-19,9.2c-8.8,0.7-18.1-0.1-26.8-0.7c-8.4-0.5-20.8,0.6-28.2-3.7
		c-6.5-3.8-12.7-7.9-18.8-12.3c-11.4-8.3-25.3-18.2-33.7-29.7c-4.1-5.6-5.5-14.3-7.4-21c-2.3-7.8-4.5-15.7-6.5-23.6
		c-8-31.6-13.5-63.8-16.4-96.3c-1.1-12.4-5.1-23.1-5.8-35.5c-0.4-7.2,0.4-14.7,2.8-21.5c1.7-4.9,4.1-9.4,7.5-13.3
		c6.6-7.5,16.1-12,25.8-14.1c0.7-0.1,1.3-0.3,1.9-0.4c9.2-1.7,18.6-1.6,27.9-1.3c46.1,1.6,92,9,136.2,22.3c6.9,2.1,14,4.5,19.1,9.5
		C610.2,139.6,609.9,147.5,605.9,153.5z"/>
	<path class="st1" d="M524.5,378.9c-2.7-6.2-3.6-13.3-2.5-20c0.2-1.3,0.4-2.8-0.6-3.6c-0.7-0.6-1.6-0.5-2.5-0.5
		c-8.3,0.4-16.9,1.1-25.2,1.5c0.2,7.7-0.4,15.4-1.9,22.9C503.9,384.2,512.5,383.5,524.5,378.9z"/>
	<path class="st3" d="M465.9,339.4c6.4,9.6,14,17.8,24.8,22.2c12.3,5,26.8,3.9,38.2-2.8c7.3-4.3,13.2-11.5,16.9-19.6
		C520.9,349,491.6,346.6,465.9,339.4z"/>
	<path class="st4" d="M545.9,339.3c2.1-4.5,3.5-9.4,4.1-14.1c-31.1,6.6-63.8,5.3-94.2-3.7c3.2,6.1,6.5,12.2,10.3,17.9
		C491.6,346.6,520.9,349,545.9,339.3z"/>
	<path class="st1" d="M471,199.6c-2.3-1.3-4.7-2.2-5.6-2.5c-8.1-2.5-17-2.7-25.2-0.6c-4.7,1.2-9.7,3-13.6,5.9
		c-2.6,1.9-6.7,6.5-5.2,9.9c1.8,4,7.5,0.1,10.1-0.9c4.2-1.5,8.4-2.6,12.8-3.4c5.5-1,11.1-1.3,16.7-1.1c3.6,0.2,10.7,2.4,13.9,0.4
		C478.8,204.9,474.9,201.8,471,199.6z"/>
	<path class="st1" d="M569.4,198.7c-7.4-3.3-14.1-4.1-22.1-3.2c-7.6,0.8-14.9,3.6-21.1,8.1c-1,0.7-2.1,1.6-2.3,2.9
		c-0.3,1.7,1.3,3.2,2.9,3.6c3.5,0.8,8.4-1.6,12-2.1c4.1-0.5,8.3-0.6,12.4-0.3c5.2,0.4,10.3,1.4,15.2,3c4.4,1.5,8.9,3,13.6,2.9
		c0.7,0,1.4-0.1,1.9-0.4C587,210,571.7,199.8,569.4,198.7z"/>
	<path d="M544.6,261.8c0.8,1.4,1.9,2.8,3.5,3.1c1.5,0.3,3-0.5,4.1-1.6c2.4-2.4,3.1-5.9,3.2-9.3c0-2-0.1-4.1-1-6
		c-0.8-1.9-2.4-3.5-4.4-3.9C539.9,241.8,541.9,256.9,544.6,261.8z"/>
	<path d="M450.9,261.8c0.8,1.4,1.9,2.8,3.5,3.1c1.5,0.3,3-0.5,4.1-1.6c2.4-2.4,3.1-5.9,3.2-9.3c0-2-0.1-4.1-1-6
		c-0.8-1.9-2.4-3.5-4.4-3.9C446.2,241.8,448.3,256.9,450.9,261.8z"/>
	<g>
		<path class="st4" d="M581.5,281.4h-51.9c-3.8,0-6.8-3.1-6.8-6.8v-37.7c0-3.8,3.1-6.8,6.8-6.8h51.9c3.8,0,6.8,3.1,6.8,6.8v37.7
			C588.3,278.4,585.3,281.4,581.5,281.4z M529.6,232.3c-2.6,0-4.7,2.1-4.7,4.7v37.7c0,2.6,2.1,4.7,4.7,4.7h51.9
			c2.6,0,4.7-2.1,4.7-4.7v-37.7c0-2.6-2.1-4.7-4.7-4.7H529.6z"/>
	</g>
	<g>
		<path class="st4" d="M475.6,281.4h-51.9c-3.8,0-6.8-3.1-6.8-6.8v-37.7c0-3.8,3.1-6.8,6.8-6.8h51.9c3.8,0,6.8,3.1,6.8,6.8v37.7
			C482.4,278.4,479.3,281.4,475.6,281.4z M423.7,232.3c-2.6,0-4.7,2.1-4.7,4.7v37.7c0,2.6,2.1,4.7,4.7,4.7h51.9
			c2.6,0,4.7-2.1,4.7-4.7v-37.7c0-2.6-2.1-4.7-4.7-4.7H423.7z"/>
	</g>
	<g>
		<path class="st1" d="M587.3,255.6c-2.4,0-4.3-1.9-4.3-4.3v-14.3c0-0.8-0.6-1.4-1.4-1.4h-51.9c-0.8,0-1.4,0.6-1.4,1.4
			c0,2.4-1.9,4.3-4.3,4.3c-2.4,0-4.3-1.9-4.3-4.3c0-5.5,4.5-10.1,10.1-10.1h51.9c5.5,0,10.1,4.5,10.1,10.1v14.3
			C591.6,253.6,589.6,255.6,587.3,255.6z"/>
	</g>
	<g>
		<path class="st1" d="M417.9,255.6c-2.4,0-4.3-1.9-4.3-4.3v-14.3c0-5.5,4.5-10.1,10.1-10.1h51.9c5.5,0,10.1,4.5,10.1,10.1
			c0,2.4-1.9,4.3-4.3,4.3s-4.3-1.9-4.3-4.3c0-0.8-0.6-1.4-1.4-1.4h-51.9c-0.8,0-1.4,0.6-1.4,1.4v14.3
			C422.2,253.6,420.3,255.6,417.9,255.6z"/>
	</g>
	<g>
		<path class="st1" d="M417.9,250.2h-40.6c-2.4,0-4.3-1.9-4.3-4.3c0-2.4,1.9-4.3,4.3-4.3h40.6c2.4,0,4.3,1.9,4.3,4.3
			C422.2,248.3,420.3,250.2,417.9,250.2z"/>
	</g>
	<g>
		<path class="st1" d="M613.6,250.2h-23.7c-2.4,0-4.3-1.9-4.3-4.3c0-2.4,1.9-4.3,4.3-4.3h23.7c2.4,0,4.3,1.9,4.3,4.3
			C617.9,248.3,616,250.2,613.6,250.2z"/>
	</g>
	<path class="st1" d="M689.4,128.3c-4.5,18.8-16.4,36.1-33.4,45.7c-27.1,15.4-64.4,9.8-85.8-12.9c-2.6-2.8-5.3-6-9.1-6.8
		c-5.6-1.2-10.6,3.3-15.3,6.5c-9.5,6.5-21.8,8.6-32.9,5.9c-11.1-2.8-20.9-10.5-26.2-20.7c-4.6-8.9-6.2-19.8-13.7-26.4
		c-7.2-6.2-17.7-6.7-27.1-5.4c-8,1.1-15.9,3.2-23.4,6.2c-3.9,1.6-7.8,3.3-11.3,5.4c-4.3,2.6-3.4,3.2-1.8,7.9
		c5.4,15.8,9.8,33.2,4.9,49.6c-4.1,13.7-14.2,24.8-22.1,36.7c-4.8,7.2-9,14.9-15.5,20.5c-1,0.9-2,1.7-3.1,2.5
		c-6.1-4.1-13.3-6.2-20.3-4.5c0,0-0.1,0-0.1,0c-4.6-25.1-12.5-49.5-23.6-72.5c-13.2-27.4-23-54.6-13.9-85
		c3.3-10.9,8.1-18.1,16.6-25.5c8.5-7.5,18.8-13,29.7-16c6.8-1.9,13.9-2.7,20.9-2.6c1.7,0,19.7,2.2,18.2,6.1
		c2.8-7.5,8.8-13.6,14.7-18.9C436.4,5.9,465-2.9,492.3,0.8c14.8,2,29.1,7.7,41.5,16.2c6.3,4.4,11.9,9.5,17.1,15.1
		c5.4,5.8,8,12.1,12,18.9c3.1,5.3,8.6,10.1,14.6,8.9c3-0.6,5.5-2.6,8.3-3.7c6.2-2.4,13.5-0.2,18.6,4c5.1,4.2,8.6,10.2,11.6,16.1
		c3,5.9,5.9,12.1,10.2,17.1c7.3,8.6,18.9,13.5,30.2,12.6c5.7-0.4,11.2-2.3,16.1-5.3c2.4-1.5,5.2-3.3,7-5.6c2.5-3.1,3.4-8.3,6.7-3.7
		C693,100.9,691.8,118,689.4,128.3z"/>
	<path class="st5" d="M1011.7,976.4c-1.9,13.2-10.6,27.6-17,39.4c-5.1,9.5-11,23.8-20.4,29.6c-19,11.7-46.9,18.2-68.6,22.8
		c-26.1,5.6-53,7.4-79.7,5.5c-13.6-1-27.1-3-40.4-6c-5.4-1.2-33.7-5.7-35.7-10.8c14.5,36.8,23.2,75.9,25.6,115.4
		c0.5,8,2.9,19.7-0.1,27.3c-2.6,6.7-8.4,13.8-12.3,19.9c-4.9,7.8-10.1,15.3-15.8,22.6c-2.9,3.7-12.1,18.4-16.7,19
		c-77.6,10.3-155.5,19.2-233.8,18.6c-1,0-1.9,0-2.9,0c-48.2-0.5-96.5-4.7-143.8-14.3c-23.6-4.8-47-10.9-69.7-18.7
		c-16.4-5.6-30.4-24.4-40.8-37.7c-7.5-9.5-18-24-18.8-36.6c-0.6-10.9,4.9-24.9,6.9-35.8c5.4-29.8,12.2-52.5,19-82.1
		c-38.6,26.8-79.3,44-121.1,65.5c-19.3,9.9-41.3,19.5-62.1,13.6c-12.5-3.6-23-12.5-30.8-23c-18.3-24.7-26.3-59.6-30.3-89.7
		c-4.5-33-2.1-66.9,7-99c8.1-28.4,23.1-51,37.9-76.1c13.1-22.2,25.3-44.8,35.5-68.5c1.7-4,3.4-8,5-12c0.1-0.3,0.3-0.7,0.4-1
		c7.2-18.4,13.1-37.2,18.6-56.1c6.2-21.1,11.9-42.3,18.8-63.2c0.5-1.6,1.1-3.2,1.6-4.8c3.5-10.4,7.3-20.7,11.7-30.8
		c1.5-3.5,3-6.9,4.6-10.4c2.8-6,5.9-12,9.2-17.8c9.8-17.4,18.4-36.2,31.9-51.2c20.3-22.5,49.3-35.2,78.6-42.9
		c29.3-7.7,59.6-11.1,88.9-18.6c16.1-4.1,32.2-9.7,46.9-17.6c20.6,46.7,86.2,55.3,132.1,50.7c27.3-1.7,47.3-15.5,61.9-35.4
		c3.9,1.5,7.9,2.6,11.9,3.3c26.3,5,52.4,11.8,79.2,15.7c24.2,3.5,48.7,7.5,71,17.4c43.4,19.1,61.1,60.8,80.8,101
		c0.3,0.6,0.6,1.3,0.9,1.9c2.8,5.7,5.5,11.4,8.2,17.1c3.6,7.8,7.2,15.7,10.6,23.6c10.3,23.4,19.9,47.1,29.6,70.7c0,0,0,0,0,0
		c0,0.1,0.1,0.2,0.1,0.4c4,9.7,8.1,19.4,12.3,29.1c2.6,6,5.2,12,7.9,17.9c9.4,20.8,19.3,41.4,30.6,61.4
		c10.2,18.2,21.3,35.9,33.3,53.1c11.4,16.3,26,31,33.6,49.4C1008.7,942.4,1013.9,961,1011.7,976.4z"/>
	<g>
		<g>
			<g>
				<path class="st6" d="M885.1,717c-9.8-23.6-19.4-47.3-29.6-70.7c-6,1.9-11.7,4.1-16.8,6.4c-26.5,11.5-52.3,24.9-78.1,37.8
					c-6.3,3.1-12.5,6.3-18.8,9.4c-0.7,0.4-5.5,2.2-6.1,2.6c-0.5,0-1,0-1.5,0c-15.3-0.3-30-2-45.4-0.8c-28.7,2.3-57.1,4.7-86,4.3
					c-113.8-1.3-226.6-27.9-340.5-13.2c-3.5,0.5-7.1,0.9-10.6,1.4c-0.8,0.1-1.6,0.2-2.2,0.3c0.6-0.3-4.6-0.3-6.9-0.1
					c-1.4-0.6-3.7-1.2-2.5-0.7c-3.7-1.7-7.3-3.8-10.9-5.6c-13.6-6.8-27.4-13.3-41.3-19.4c-19.8-8.7-40.8-17.6-62.3-23.7
					c-6.9,20.9-12.7,42.1-18.8,63.2c12,6.5,24.2,12.7,36.1,19.7c11.8,6.8,23.9,13.1,35.8,19.9c14.3,8.2,28.3,18.6,44.2,23.5
					c7.9,2.4,16.6,3.5,24.8,3c5.6-0.4,11.2-1.3,16.7-2c0.2,0,1.9-0.2,3.1-0.4c0.2,0,0.3,0,0.4,0c0.1,0,0.1,0,0.2,0c0,0,0.1,0,0.2,0
					c0.1,0,0.2,0,0.2,0c14.5-1.7,29-2.8,43.6-3.3c28.7-1,57.5,0,86.2,1.9c56.9,3.7,113.6,10.8,170.6,13.4c28,1.3,56.1,1.6,84.1-0.2
					c14.3-0.9,28.4-2.8,42.7-3.3c14.6-0.6,28.9,2.5,43.4,2.2c21.2-0.5,39.5-11.6,57.8-20.9c13.9-7,27.7-14.2,41.5-21.4
					c8.3-4.3,16.6-8.6,24.9-13c2.5-1.3,5.1-2.7,7.6-3.9c0,0,6.9-3.1,6.9-3.3c2-0.7,4.1-1.3,6.1-2c0.7-0.1,1.2-0.3,1.7-0.4
					c0.7-0.2,1.2-0.3,1.5-0.4C888,716.7,887.5,716.7,885.1,717z M735.8,702.5c0.2,0,0.6-0.1,1.2-0.3
					C737.5,702,746.1,702.6,735.8,702.5z"/>
			</g>
		</g>
		<g>
			<path class="st6" d="M905.4,764.4c-48.2,21.8-87.2,60.3-135.8,81.7c-26.5,11.7-51.5,14-80,9.7c-30.5-4.6-60.6-11.4-91.5-12.7
				c-60.1-2.6-119.1,11-179.3,4.5c-30.4-3.3-60.6-8.4-91.2-8.7c-29.5-0.3-58.7,2.4-87.9-2.3c-28.4-4.6-55-15.1-81.2-26.6
				c-25.2-11-50.5-21.9-75.8-32.7c1.7-4,3.4-8,5-12c28.3,11.3,56.6,22.8,85.3,33.1c30.9,11.2,62.8,21.1,95.9,21.9
				c28.8,0.7,57.4-2.1,86.2,0.4c29.7,2.6,59.1,8,88.9,9.5c59.1,2.9,117.5-11.7,176.7-5.1c30.1,3.3,59.8,11.7,90,13.5
				c28.1,1.6,53.1-9.8,76.8-23.8c37.4-21.9,70.8-50.2,110.1-68.3C900.1,752.5,902.7,758.5,905.4,764.4z"/>
		</g>
		<g>
			<path class="st6" d="M844.8,622.7c-14.3,5.9-28.8,11.3-42.6,17.2c-23.3,10-48.6,25-74,28c-25.9,3.1-53.1-1.8-78.8-5.2
				c-27.1-3.5-54.1-6.3-81.5-6.9c-54.1-1.1-108.3,2-162.4,3.6c-27.1,0.8-54.2,1.7-81.3,2.5c-27,0.7-55.4,4-82.3,1.3
				c-38.7-3.9-74.4-27.5-103.3-53.8c1.5-3.5,3-6.9,4.6-10.4c17,11.6,35.1,21.8,53.4,30.7c11.5,5.6,23.7,11.6,36.4,14.1
				c14.1,2.7,29.1,1.3,43.3,0.8c52.6-1.9,105.1-3.6,157.7-5.3c51.4-1.7,103.1-4.8,154.5-2.1c25.9,1.3,51.4,5.1,77.1,8.2
				c24.3,3,51.7,7.8,75.2-0.8c23.9-8.8,47.2-20.1,70.6-30.1c8-3.4,16.1-7.2,24.2-10.8c0.3,0.6,0.6,1.3,0.9,1.9
				C839.4,611.3,842.2,617,844.8,622.7z"/>
		</g>
	</g>
	<path class="st0" d="M530.9,501.7c27.3-1.7,47.4-15.5,61.9-35.4c-17.1-6.4-32.4-18.9-40.7-34.8c-4.9-0.3-8.2-4.5-13.1-4.1
		c-34.9,2.9-72.9,2.8-107.8-0.7c-9.3,10-20.4,17.9-32.4,24.3C419.4,497.7,485,506.3,530.9,501.7z"/>
	<g>
		<path class="st7" d="M744.9,651.2c-9.8,85.4-10.7,172.4-7.4,258.2c0.1,3.8,6.1,3.9,6,0c-3.2-86.3,0.3-172.1,5.5-258.2
			C749.2,648.5,745.2,648.6,744.9,651.2L744.9,651.2z"/>
	</g>
	<g>
		<path class="st8" d="M787.4,919c-3-5.9-7.6-10.8-12-15.7c-26.1,4.8-53,2.5-79.4,0.1c-26.5-2.3-53.3-4.6-79.4,0.2
			c-26.1,4.8-53.3,17.9-67.8,40.1c-14.1-22.8-40.3-35.7-66.7-40.5c-26.4-4.8-53.4-2.5-80.2-1.4c-26.8,1.1-53.1-1.5-78.2-10.9
			c-8.3,3.5-16,8.3-22.9,14c18.5,28.1,54.4,38.8,87.2,46.5c66.9,15.7,135.4,26.7,204.1,24.3C660.7,973.2,728.9,955,787.4,919z"/>
		<path class="st9" d="M772,970.9c-16.6,7.4-33.9,13.1-50.7,16.7c6.3,10.1,11.4,21.2,14.6,32.8l-30.4,6.5l-129.7,27.7h-49.2
			l-198.2-37.3c-12.2-39.6-24.5-79.2-36.7-118.8l12.8,3.6l227.1,64.8h32.8l217.9-55.6l19.8-5.1L772,970.9z"/>
		<g>
			<path class="st10" d="M531.5,1048.6c-0.6,0-1.1-0.5-1.1-1.1v-80.8c0-0.6,0.5-1.1,1.1-1.1c0.6,0,1.1,0.5,1.1,1.1v80.8
				C532.6,1048.1,532.1,1048.6,531.5,1048.6z"/>
		</g>
		<g>
			<path class="st10" d="M563.9,1048.6c-0.6,0-1.1-0.5-1.1-1.1v-80.8c0-0.6,0.5-1.1,1.1-1.1s1.1,0.5,1.1,1.1v80.8
				C565,1048.1,564.5,1048.6,563.9,1048.6z"/>
		</g>
	</g>
	<path class="st0" d="M727.1,1041.5c-16.5,12.5-39.2,15-59.1,18.1c-22.7,3.5-45.6,5.8-68.5,8.1c-21.2,2.1-42.6,4.3-64,3.4
		c-8.6-0.3-16.8-0.1-23.9-5c-7.7-5.3-15.6-9.9-22.6-16.1c-8.1-7.2-17.6-16.7-22-26.7c-1.4-3.2-1.6-7,0-10.1c5.2-9.4,19.9,0,27,1.8
		c12.5,3.2,25.3,5.2,38.2,5.9c13.2,0.7,26.5,0.2,39.6-1.5c3.5-0.5,36.7-8.9,37-8.3c-9.1-13-25.8-20.2-41.5-18.1
		c-2.4,0.3-4.8,0.8-7.2,0.7s-4.9-0.9-6.4-2.9s-3-6-0.9-7.1c12.6-6.6,27.1-9.3,41.2-7.8c17,1.8,32.8,9.5,49.3,14.1
		c21.3,5.9,44,6.4,65.6,1.6C717.7,1007.6,722.7,1023.6,727.1,1041.5z"/>
	<path class="st5" d="M739.6,1051.6c-3.7,3.9-7.4,7.3-12.7,8c-5.3,0.7-10.9,0.2-15.4-2.7c-1-10.2-3-20.3-6-30.2
		c-3.8-12.7-9.3-24.9-16.2-36.2c1.1-3.5,4.6-3.9,8-5c7.1-2.3,14.7-2.6,22-1.1c0.7,1,1.3,2,2,3c6.3,10.1,11.4,21.2,14.6,32.8
		C738.7,1030.5,740.1,1041.1,739.6,1051.6z"/>
	<g>
		<path class="st7" d="M223.4,674.4c17.6,91.8,24.5,185.9,21.1,279.3c-0.1,4,6,4,6.2,0c3.3-94.3-4.8-187.9-23.7-280.3
			C226.5,671.1,222.9,672,223.4,674.4L223.4,674.4z"/>
	</g>
	<g>
		<path class="st7" d="M877.5,871.7c13.3,0,26.7,1,39.3,5.3c6.9,2.3,13.6,5.7,19.1,10.7c3.6,3.3,11.4,10,3.3,15.4
			c-2.3,1.5-8.5,0.9-11.2,1c-24.4,0.6-48.8-10.7-70.6,5.3c-9.7,7.2-17.3,16.8-26.6,24.5c-10.4,8.6-22.1,15.7-34.2,21.8
			c-24.9,12.4-51.7,20.2-78.3,27.8c-3.7,1.1-2.1,6.8,1.6,5.7c30.4-8.8,61.1-17.8,88.8-33.4c12.3-6.9,23.7-15.1,33.9-24.8
			c14-13.3,25.3-25.8,46.3-24.9c10,0.4,69.4,13.9,58.8-12.3c-4.3-10.7-17.8-17.8-28-21.3c-13.5-4.7-28.1-5.3-42.2-5
			C874.7,867.5,874.7,871.7,877.5,871.7L877.5,871.7z"/>
	</g>
	<g>
		<path class="st7" d="M43.2,992.4c15.5-14.6,34.9-25.1,55.6-30.1c23.4-5.6,46.1-1.4,69.5,1.5c46.6,5.7,90.3-8.7,133.6-24.3
			c3.7-1.3,2.1-7.3-1.6-5.9c-23,8.3-46.2,16.6-70.2,21.6c-26.6,5.4-51.5,4-78.2,0.7c-41.9-5.2-80.8,3.6-111.2,34.2
			C39.2,991.5,41.6,993.9,43.2,992.4L43.2,992.4z"/>
	</g>
	<g>
		<path class="st11" d="M499.5,246.3c-1.1,10.9,2,22.5,11.2,29.4c2.9,2.2,6.3,3.5,9.6,5.1c1.9,0.9,5.3,2.2,6.5,4
			c7,10.1-7.4,12.5-13.5,13.2c-3.3,0.4-3.4,4.9,0,5.2c9.9,0.7,26.6-7,19.4-19.5c-2.9-4.9-9-6.8-13.8-9.2
			c-11.5-5.7-15.7-16.2-17.5-28.4C501.2,244.9,499.6,245.3,499.5,246.3L499.5,246.3z"/>
	</g>
	<g>
		<path class="st1" d="M522.5,257.4c-0.5,0-0.9-0.2-1.3-0.5c-6.3-5-11.5-7-18.4-7.2c-7-0.1-12.2,1.7-18.6,6.4c-1,0.7-2.3,0.5-3-0.5
			c-0.7-1-0.5-2.3,0.5-3c7.1-5.3,13.3-7.3,21.2-7.2c7.9,0.1,13.9,2.5,21,8.1c0.9,0.7,1.1,2.1,0.3,3
			C523.8,257.1,523.1,257.4,522.5,257.4z"/>
	</g>
	<g>
		<g>
			<g>
				<path class="st7" d="M371.8,464.5c22.7,42.4,67.5,71.4,115.2,76.6c27.3,3,60.7-0.8,86.1-11.5c11.1-4.7,20.3-12.7,29.2-20.6
					c10.6-9.3,20.1-19.2,26.5-31.9c1.5-3-3-5.7-4.6-2.7c-11.2,21.7-35.8,44.8-59.2,52.3c-24.4,7.9-52.4,11.8-78,8.9
					c-46.6-5.2-87.7-33.4-112-73C373.7,460.6,370.6,462.4,371.8,464.5L371.8,464.5z"/>
			</g>
			<g>
				<path class="st7" d="M384.6,477.6c4.2-2.2,8.4-4.4,12.6-6.6c3.4-1.8,7.5-3.2,9.8-6.3c0.7-1-0.2-2.5-1.4-2.4
					c-3.9,0.2-7.3,3-10.7,4.9c-4.2,2.3-8.3,4.6-12.4,7C380.2,475.3,382.3,478.8,384.6,477.6L384.6,477.6z"/>
			</g>
			<g>
				<path class="st7" d="M397,491.6c3.2-2.4,6.4-4.7,9.7-6.8c2.7-1.8,6.3-3.2,8.2-6c0.7-1-0.2-2.7-1.5-2.6c-3.3,0.3-6.2,2.8-9,4.7
					c-3.3,2.2-6.5,4.5-9.6,6.9C392.5,489.5,394.7,493.3,397,491.6L397,491.6z"/>
			</g>
			<g>
				<path class="st7" d="M501.2,504.8c-0.3,10.9-1.5,22.5-0.1,33.4c0.4,2.7,4.1,1.7,4.4-0.6c1.1-10.7-0.2-22-0.3-32.8
					C505.2,502.2,501.3,502.2,501.2,504.8L501.2,504.8z"/>
			</g>
			<g>
				<path class="st7" d="M480.6,503.8c-2.6,10.1-4.7,20.3-6.4,30.7c-0.5,3.3,4.5,4.7,5,1.4c1.7-10.3,3.6-20.6,5.5-30.9
					C485.2,502.3,481.2,501.1,480.6,503.8L480.6,503.8z"/>
			</g>
			<g>
				<path class="st7" d="M443.4,493.6c-3.5,7.9-7.3,15.7-10.4,23.7c-0.9,2.4,3.1,4.1,4.2,1.8c3.6-7.9,6.5-16,9.6-24
					C447.6,493.1,444.3,491.7,443.4,493.6L443.4,493.6z"/>
			</g>
			<g>
				<path class="st7" d="M461.8,498.9c-3.7,8.9-7.6,17.8-10.6,26.9c-0.8,2.6,3.3,4.4,4.4,1.9c3.9-9,6.9-18.5,10.1-27.7
					C466.6,497.5,462.8,496.6,461.8,498.9L461.8,498.9z"/>
			</g>
			<g>
				<path class="st7" d="M428.6,485.4c-3.4,4.2-6.7,8.4-10.1,12.5c-2.4,3-5.7,5.8-6.2,9.7c-0.3,2.1,3.2,3.1,4.1,1.1
					c1.6-3.7,4.8-6.9,7.3-10.2c2.6-3.4,5.3-6.8,7.9-10.2C433.2,486.3,430.3,483.3,428.6,485.4L428.6,485.4z"/>
			</g>
			<g>
				<path class="st7" d="M556.4,498.9c3.2,5.1,5.4,10.6,7.9,16.1c2.2,4.8,4.2,10.7,8.3,14.1c1.4,1.1,3.9,0.1,3.3-1.9
					c-1.6-5.1-5.1-9.8-7.5-14.6c-2.6-5.4-5.4-10.6-8.7-15.6C558.3,495,555.1,496.9,556.4,498.9L556.4,498.9z"/>
			</g>
			<g>
				<path class="st7" d="M523.9,504.4c0.6,9.3-0.5,21.4,3.3,30c0.6,1.3,3,1,3.2-0.4c0.6-4.1-0.4-8.1-0.9-12.3
					c-0.8-5.8-1.7-11.6-2.4-17.4C526.8,502.4,523.8,502.3,523.9,504.4L523.9,504.4z"/>
			</g>
			<g>
				<path class="st7" d="M541.9,502.6c1.5,4.8,3.1,9.7,4.5,14.5c1.4,4.5,1.6,9.6,3.4,13.9c0.6,1.4,1.6,1.9,3,1.7
					c0.2,0,0.4-0.1,0.7-0.1c0.7-0.1,1.1-0.9,1.1-1.5c0.1-4.1-1.9-9.3-3.1-13.2c-1.7-5.5-3.8-10.9-5.8-16.4
					C544.9,499.1,541.1,500.1,541.9,502.6L541.9,502.6z"/>
			</g>
			<g>
				<path class="st7" d="M571.3,491c5.5,7.7,11.1,16.8,18.2,23c1.7,1.5,4.6-0.4,3.3-2.5c-5.2-8.1-12.7-15.1-18.9-22.5
					C572.7,487.6,570.2,489.5,571.3,491L571.3,491z"/>
			</g>
			<g>
				<path class="st7" d="M583.9,480.3c3.6,3.2,7.1,6.3,11,9.2c3.6,2.7,7.7,6.4,12,7.6c2,0.5,3-1.8,1.9-3.2
					c-2.6-3.1-6.9-5.1-10.2-7.5c-4-2.9-8.1-5.7-12-8.7C584.7,476.3,582.1,478.7,583.9,480.3L583.9,480.3z"/>
			</g>
		</g>
	</g>
	<path class="st5" d="M731.9,1310.2c3.2-0.9,5.4-3.8,5.6-7.2c0.5-15.8-1.7-32-11.3-44.3c-10.8-13.9-30.9-15.4-48.5-15.8
		c-134.6-2.6-267.4-6.2-402-8.9c-7.7,13.8-12.7,29.3-14.4,45c-0.4,4,1.5,7.8,4.9,9.9c28.2,16.6,59.4,28.2,91.4,35.3
		C480,1351.4,611.5,1345.2,731.9,1310.2z"/>
	<g>
		<path class="st7" d="M248.1,1056c12.5-8.2,24.8-16.5,38-23.7c13.2-7.2,27-12.6,40.4-19.3c2-1,0.6-4.2-1.5-3.6
			c-28,8.1-56.6,25.5-78.8,44.1C244.7,1054.6,246.5,1057,248.1,1056L248.1,1056z"/>
	</g>
	<g>
		<path class="st7" d="M708.8,1050.1c0.2,21.3,27.9,16.9,40.6,10.9c2.4-1.1,0.7-5.3-1.8-4.3c-11.2,4.1-32.5,10.7-35.7-7
			C711.6,1048,708.8,1048.4,708.8,1050.1L708.8,1050.1z"/>
	</g>
	<g>
		<path class="st7" d="M718.2,987.7c6.8,11.3,12.8,23.2,17.6,35.6c4.5,11.5,6.4,23.5,10.2,35.2c0.7,2.3,4.4,2,4.3-0.6
			c-0.8-25.2-14.7-51.9-29.6-71.6C719.6,985,717.3,986.2,718.2,987.7L718.2,987.7z"/>
	</g>
	<g>
		<path class="st7" d="M695.8,998.4c3.9-2,8.1-3.7,12.4-4.7c3.9-1,8.1-0.8,11.8-2.2c1.5-0.6,1.6-2.7,0-3.2
			c-8.2-2.5-19.1,2.7-26.1,6.8C691.7,996.3,693.6,999.5,695.8,998.4L695.8,998.4z"/>
	</g>
	<g>
		<path class="st7" d="M700.9,1010.5c9.4-2.7,20.1-3.5,29-7.1c2-0.8,1.8-3.7-0.5-3.8c-9.7-0.5-20.6,3.9-29.6,7
			C697.4,1007.4,698.4,1011.2,700.9,1010.5L700.9,1010.5z"/>
	</g>
	<g>
		<path class="st7" d="M707.3,1024.7c9-2.4,18.2-3.9,27.1-6.3c2.4-0.7,2-4.7-0.6-4.5c-9.4,0.7-18.8,3.3-27.9,5.9
			C702.9,1020.7,704.2,1025.5,707.3,1024.7L707.3,1024.7z"/>
	</g>
	<g>
		<path class="st7" d="M712.4,1040.3c4.6-0.9,9.3-1.8,14-2.4c4.6-0.7,9.5-0.8,13.8-2.5c1.4-0.5,1.8-3,0-3.3
			c-9.2-1.5-20.1,1.7-29.1,3.6C708.1,1036.2,709.4,1040.9,712.4,1040.3L712.4,1040.3z"/>
	</g>
	<g>
		<path class="st7" d="M714.4,1053.1c9.9-0.3,21.2-1.6,29.5-7.4c1.6-1.1,0.6-3.4-1.3-3.1c-9.6,2-18.3,5.3-28.2,5.7
			C711.3,1048.4,711.3,1053.2,714.4,1053.1L714.4,1053.1z"/>
	</g>
	<g>
		<g>
			<g>
				<path class="st7" d="M283.5,1249.9c-4.6,14.5-9.6,29-9.6,44.4c0,3.2,4.7,3.1,4.9,0c1.1-14.8,4.3-29.1,8.4-43.4
					C287.9,1248.6,284.2,1247.6,283.5,1249.9L283.5,1249.9z"/>
			</g>
			<g>
				<path class="st7" d="M305.4,1257.5c-3.6,14.7-8.6,30.9-8.5,46.2c0,2.1,3.1,2.6,3.7,0.5c4.2-14.7,4.8-30.9,7.5-45.9
					C308.5,1256.5,305.9,1255.7,305.4,1257.5L305.4,1257.5z"/>
			</g>
			<g>
				<path class="st7" d="M334.5,1263.8c-5.6,17.1-9,34.3-10.6,52.2c-0.3,3.3,4.9,3.3,5.1,0c1.5-17.3,4.7-34.4,9.4-51.1
					C339,1262.4,335.2,1261.4,334.5,1263.8L334.5,1263.8z"/>
			</g>
			<g>
				<path class="st7" d="M362,1267.8c-4.7,17.3-7.8,34.8-9.4,52.7c-0.3,3.5,5.1,3.5,5.4,0c1.5-17.4,4.3-34.5,8.3-51.5
					C367,1266.2,362.8,1265.1,362,1267.8L362,1267.8z"/>
			</g>
			<g>
				<path class="st7" d="M388.6,1274.2c-3.6,17.2-6.4,34.1-7.5,51.7c-0.2,3.4,5.1,3.4,5.3,0c1.2-16.9,2.9-34,6-50.6
					C392.8,1272.8,389.1,1271.7,388.6,1274.2L388.6,1274.2z"/>
			</g>
			<g>
				<path class="st7" d="M417.7,1277.1c-1.6,18.5-4.7,37.9-3.7,56.6c0.1,2.4,3.9,3.2,4.4,0.6c3.2-18.6,2.6-38.4,3.2-57.2
					C421.8,1274.5,418,1274.6,417.7,1277.1L417.7,1277.1z"/>
			</g>
			<g>
				<path class="st7" d="M450,1279.9c-2.2,19.1-3.5,38.1-3.6,57.4c0,3.5,5.4,3.5,5.4,0c0.2-19.1,0.8-38.3,2-57.4
					C454,1277.4,450.3,1277.5,450,1279.9L450,1279.9z"/>
			</g>
			<g>
				<path class="st7" d="M709.6,1266.4c6.3,14.8,8.9,30,13.5,45.3c0.7,2.4,4.4,2,4.4-0.6c-0.1-16.1-7.3-32.6-15-46.4
					C711.5,1262.8,708.8,1264.5,709.6,1266.4L709.6,1266.4z"/>
			</g>
			<g>
				<path class="st7" d="M684.7,1269.8c5.2,16.1,9,32.6,11.8,49.4c0.6,3.4,5.5,1.9,5.1-1.4c-2.3-17-7-33.1-13.6-48.9
					C687.2,1266.9,684,1267.6,684.7,1269.8L684.7,1269.8z"/>
			</g>
			<g>
				<path class="st7" d="M654.4,1272.2c6.4,16.7,10.8,34.2,12.6,52c0.3,3.3,5.6,3.3,5.2,0c-1.9-18.8-6.6-36.3-14.6-53.3
					C656.8,1269.1,653.7,1270.4,654.4,1272.2L654.4,1272.2z"/>
			</g>
			<g>
				<path class="st7" d="M624.2,1274.3c5.8,18.6,9,37.5,11.1,56.8c0.4,3.2,5.4,3.4,5.2,0c-1.2-19.9-5.8-39.2-12.3-57.9
					C627.3,1270.8,623.4,1271.8,624.2,1274.3L624.2,1274.3z"/>
			</g>
			<g>
				<path class="st7" d="M597.6,1277.9c2.2,18.9,4.1,38.1,8.1,56.7c0.5,2.5,4.7,2,4.5-0.6c-1.3-19-4.9-38-8-56.7
					C601.7,1274.7,597.3,1275.3,597.6,1277.9L597.6,1277.9z"/>
			</g>
			<g>
				<path class="st7" d="M562.7,1279.5c2.2,18.9,1.8,39.4,6.1,57.9c0.5,2.3,3.7,1.6,3.9-0.5c1.7-18.6-3-39.5-6.3-57.9
					C566.2,1276.9,562.5,1277.3,562.7,1279.5L562.7,1279.5z"/>
			</g>
			<g>
				<path class="st7" d="M487.7,1282c1.6,19.3,3.5,38.5,5,57.8c0.2,3.2,5.3,3.3,5.1,0c-1.5-19.5-3.4-39-6.4-58.3
					C491.1,1279.4,487.5,1279.9,487.7,1282L487.7,1282z"/>
			</g>
			<g>
				<path class="st7" d="M527.6,1282.8c1,19.3,0.7,39.8,4.2,58.8c0.5,2.5,4.2,1.8,4.3-0.6c0.8-19.1-2.3-39.2-4-58.2
					C531.8,1280,527.5,1279.9,527.6,1282.8L527.6,1282.8z"/>
			</g>
			<g>
				<path class="st7" d="M270.4,1245.9c30.4,18.9,71,23.7,105.7,28.5c38.8,5.3,78.1,7.3,117.3,7.3c39.7,0.1,79.4-1.6,119-3.7
					c38.3-2,76.8-5.3,113.6-16.7c3.2-1,1.9-6.1-1.4-5.1c-37.2,11.3-75.6,14.5-114.2,16.5c-37.6,2-75.2,3.6-112.9,3.7
					c-37.6,0-75.2-1.5-112.6-6c-20.1-2.4-40.1-5.8-59.8-10.2c-18.1-4-36.7-8-52.8-17.7C270.2,1241.2,268.3,1244.6,270.4,1245.9
					L270.4,1245.9z"/>
			</g>
		</g>
	</g>
	<g>
		<path class="st11" d="M472.8,1031c16.4,7,32.9,13.4,50.7,15.8c16.4,2.2,32.7,0,48.7-3.8c3-0.7,1.7-5-1.2-4.5
			c-17.6,2.9-34.1,5.9-52,2.9c-15.4-2.6-30.3-8.1-45.1-13.1C472.4,1027.8,471.3,1030.3,472.8,1031L472.8,1031z"/>
	</g>
	<g>
		<path class="st12" d="M450.1,1349.2c4.6,32.1-17,74.5,11.1,100.6c9.3,8.7,21.5,13,32.5,19c15.7,8.5,21.9,18.7,22.4,36.7
			c0.1,2.8,4.5,3.7,5.1,0.7c6.3-28.8-22.7-40.3-42.7-51.1c-18.5-9.9-27-24.9-27.1-46c0-20.5,5.9-40.4,2.5-60.9
			C453.6,1345.6,449.7,1346.7,450.1,1349.2L450.1,1349.2z"/>
	</g>
</g>
<g>
</g>
<g>
</g>
<g>
</g>
<g>
</g>
<g>
</g>
<g>
</g>
<g>
</g>
<g>
</g>
<g>
</g>
<g>
</g>
<g>
</g>
<g>
</g>
<g>
</g>
<g>
</g>
<g>
</g>
</svg>
