<?xml version="1.0" encoding="utf-8"?>
<!-- Generator: Adobe Illustrator 24.0.1, SVG Export Plug-In . SVG Version: 6.00 Build 0)  -->
<svg version="1.1" id="Layer_1" xmlns="http://www.w3.org/2000/svg" xmlns:xlink="http://www.w3.org/1999/xlink" x="0px" y="0px"
	 viewBox="0 0 1276.3 1547.8" style="enable-background:new 0 0 1276.3 1547.8;" xml:space="preserve">
<style type="text/css">
	.st0{fill:#381213;}
	.st1{fill:#BC562C;}
	.st2{fill:#702305;}
	.st3{fill:#FFFFFF;}
	.st4{fill:#B8BFCD;}
	.st5{fill:#5679C1;}
	.st6{fill:#7A8AAA;}
	.st7{fill:#F69281;}
	.st8{fill:#89A963;}
	.st9{fill:#734B30;}
	.st10{fill:#E6573D;}
	.st11{fill:#FC9180;}
	.st12{fill:#D6CC9B;}
</style>
<g>
	<path class="st0" d="M378,1413c-12.7,42.6-22.1,119.4-22.1,134.8c40.2,0,501.1,0,501.1,0s-7-94.4-21.8-146.5
		C820.4,1349.2,378,1413,378,1413z"/>
	<path class="st1" d="M1192.1,771.8c9.9-6.2,23.3-9.2,34.3-13.9c18-7.6,23.9-32.5,30.2-49c8.6-22.2,15.9-44.9,19.5-68.4
		c1.1-7.2-2.3-14.8-8.3-18.8c-6-4-13.4-4.4-19.5-0.6c-1-7.5-6.4-14.1-13.5-16.7c-7.1-2.6-14.6-2.5-20.2,2.5c-1-6.3-5.8-11.9-11.8-14
		c-6.1-2.1-13.6-2.1-18.3,2.2c4.5-36,7.4-72.4,11.3-108.5c0.8-7.7,3.9-17.1-2.2-21.8c-3.1-2.3-7.4-2.3-10.9-0.7
		c-3.5,1.6-6.2,4.5-8.4,7.7c-7.4,10.7-9.4,24.1-11.1,37c-4.5,32.5-9,65.1-13.5,97.6c-0.3,2.2-13.8,10-16.1,12
		c-5.3,4.6-10.2,9.7-14.5,15.3c-4.4,5.5-8.2,11.5-11.3,17.8c-3.3,6.6-2.1,12.1-1.1,19.4c4.3,31,15.1,61,31.5,87.6
		c5.8,9.5,15.9,10.3,26.3,14.2C1174.8,776.5,1182.7,777.8,1192.1,771.8z"/>
	<g>
		<path class="st2" d="M1146.2,610.5c0,19.1-2.6,37.2-10.1,54.8c-0.5,1.2-0.5,3.1,1,3.8c30,12.7,38.9,40.2,44.3,69.7
			c0.5,2.9,5,2.1,5-0.7c0.5-31.2-18.3-62.2-47.2-74.1c0.6,1.1,1.3,2.3,1.9,3.4c7.7-18.2,11.2-37.7,8.4-57.4
			C1149.3,608.1,1146.3,608.6,1146.2,610.5L1146.2,610.5z"/>
	</g>
	<g>
		<path class="st2" d="M1213.1,606.2c-5.3,19-9.7,38.3-14.5,57.5c-2.4,9.7-8.1,25.4-2.1,34.8c8.3,12.9,33.4,10.1,34.7-6.5
			c0.2-2.3-2.9-2.6-3.9-1.1c-5.1,7.4-13.3,14-22.3,7.9c-9.3-6.3-4.1-21.2-2-30.1c4.7-20.5,9.3-41.1,13-61.8
			C1216.3,605.1,1213.6,604.3,1213.1,606.2L1213.1,606.2z"/>
	</g>
	<g>
		<path class="st2" d="M1246.2,621.9c-3.7,14.9-9.4,29-14.1,43.5c-3.1,9.7-8.7,25.1-5,35.4c7.2,19.5,31.1,7.5,36.9-5.9
			c1.2-2.8-2.4-5.1-4.2-2.5c-3.4,5.1-6.9,10.8-13.4,12.6c-7.5,2-13.9-2.1-14.7-10.2c-0.9-8.3,2.6-18.2,5-26.1
			c4.6-15.3,10.8-30.3,12.5-46.4C1249.4,620.6,1246.6,620.3,1246.2,621.9L1246.2,621.9z"/>
	</g>
	<g>
		<path class="st2" d="M1182.3,594.2c-5.9,17.1-10.1,34.3-12.5,52.3c-1.7,12.4-5.5,28.8-0.3,40.8c2.8,6.4,8.4,10.8,15.4,11.1
			c4.3,0.2,11.5-1.2,12.5-6.3c0.4-1.8-1.6-3.8-3.4-2.6c-4.6,3.1-9.6,4.9-14.9,1.6c-9.1-5.8-6.6-20.5-5.9-29.5
			c1.8-22.4,6.2-44.8,11.9-66.6C1185.6,593.2,1182.9,592.4,1182.3,594.2L1182.3,594.2z"/>
	</g>
	<path class="st3" d="M391.4,784.6c29.2,127,68.4,259.4,51,388.5c-2.8,20.9-4.4,38.7-7.2,59.6c-127,18.5-257.4,24.4-382.9-2.4
		c-14.4-3.1-30.2-7.2-41.8-16.8c-13.3-11.1-10.5-25.4-9.6-41.6c2.1-37.5,13.3-73.8,25.7-109c5.7-16.2,11.7-32.4,17.9-48.4
		c32.9-84.4,73.3-165.9,120.8-243.1c20.2-32.8,35.5-68.1,57.9-100.1c14.6-20.8,36.5-55.3,64.1-59.9
		C339.4,659.2,375.5,715.6,391.4,784.6z"/>
	<path class="st3" d="M1200.8,772.2c-23.8-9.3-50-17.6-73.9-26.9c-34.8,95.7-84.7,185.6-144,268.4c-1.1-62.8-42.8-199.4-50.3-252
		c-9.5-66.1-36.9-140.2-75.6-152.4c-41.2,22-64.2,65.7-74.4,111.3c-12.1,54.6-8.4,112.5,9.9,165.3c9.2,26.6,35.9,49.3,40,76.9
		c8,53.8,56.2,173.6,78.9,200.2c16.3,19.2,73.1,57.4,101.5,42.6c5.6-2.9,10.1-7.4,14.6-11.8c16.2-16.1,32.9-31.8,49.1-47.7
		c42-41,46.2-106.9,60-160.7c15.8-61.5,33.6-122.4,53.7-182.6C1191.2,800.3,1200.9,772.2,1200.8,772.2z"/>
	<path class="st4" d="M656.2,1506.6c60.8-33.2,120.5-68.2,179-105.3c-6.1-52.7-12.2-105.4-18.3-158.1c-2.7-23-7.7-46.9-5-69.7
		c2.9-25.4,5.3-51,7.8-76.5c2.4-24.2,4.8-48.5,7.2-72.7c1.9-19.1,8.5-42.7,5.6-61.4c-3-19.4-12.6-38.9-16.8-58.4
		c-4.3-19.9-7.1-40.1-8.6-60.4c-5.9-80.7,10-164,49.9-234.8c-56.6-19.7-119.1-37.4-178.4-46.4c-24.2-3.7-71.3,24.9-95.8,25.1
		c-45.3,0.4-61.6-31.9-106.3-24.6c-64.3,10.5-127.7,26.5-189.3,47.9c46.1,171,74.9,343.5,78.8,520.5c2,90.8,10.8,190.4,12,281.2
		c59.7,37.5,120.2,65.3,187.1,87.5c13.7-26.6,32.5-60.6,48.8-85.6C630.4,1445.8,639.7,1475.7,656.2,1506.6z"/>
	<path class="st1" d="M530.2,584.9c-9.5-9.9-21-28.8-18.8-43.2c1.8-11.8,2.7-23.8,3.2-35.8c0.3-6.5,1.2-76.9-1.5-77
		c42.6,0.5,85.1,2,127.6,2.5c-2.5,34.8-2,68.8,1.8,103.5c2.2,20.4-19.8,35.8-34.7,49.9c-9.1,8.6-19.8,16.2-32.1,18.2
		C559,605.7,542,597.1,530.2,584.9z"/>
	<path class="st1" d="M750.4,312.4c-1-7.5-4.5-14.9-10.5-19.4c-7.6-5.7-18.4-6.1-27.2-2.4c-8.8,3.7-15.7,11-20.5,19.2l1.9,41.3
		c1.7,8.4,9.9,14.6,18.4,15.4c8.5,0.7,17-3.3,23-9.4c6-6.1,9.8-14.1,12.3-22.3C750,327.5,751.4,319.9,750.4,312.4z"/>
	<path class="st1" d="M400,312.4c1-7.5,4.5-14.9,10.5-19.4c7.6-5.7,18.4-6.1,27.2-2.4c8.8,3.7,15.7,11,20.5,19.2l-1.9,41.3
		c-1.7,8.4-9.9,14.6-18.4,15.4c-8.5,0.7-17-3.3-23-9.4c-6-6.1-9.8-14.1-12.3-22.3C400.3,327.5,399,319.9,400,312.4z"/>
	<polygon class="st3" points="663.8,603.5 660.8,686.7 640.9,741.7 600.5,853.4 557.7,772.6 522.5,706.3 522.5,619.4 582.8,588 	"/>
	<path class="st0" d="M731.3,150.2c-2.2-2.8-3.5-6.8-1.6-9.7c2-3.1,6.2-3.5,9.4-5.2c7.3-3.9,8.3-14.6,4-21.6
		c-4.3-7-12.3-10.8-20.2-13.2c-3.6-1.1-7.4-2.1-10.7-4c-3.3-2-6-5.2-6.3-9c-0.3-4.3,2.6-8.1,3.7-12.2c1.6-5.8-0.6-12.4-5.2-16.2
		c-4.6-3.8-11.6-4.5-16.9-1.8c-3.9,2-7.8,5.8-12,4.5c-3.3-1-4.8-4.9-4.6-8.4c0.2-3.4,1.7-6.6,2.6-10c4.2-15.6-6-32.7-20.6-39.4
		c-14.7-6.7-32.3-4.3-46.7,3.2c-14.3,7.4-23.2,19.1-33.4,31.6c-2-10-6.7-19.9-15.2-25.6c-8.4-5.7-20.9-5.9-28.1,1.3
		c-3,3.1-5.6,7.6-9.9,7.9c-4,0.3-7-3.3-10-5.9c-7.6-6.6-19.1-8.4-28.3-4.4c-9.3,4-15.8,13.6-16.2,23.6c-0.2,5.6,1.3,11.1,1.8,16.7
		c0.5,5.6-0.2,11.7-4.1,15.8c-3.9,4.1-10.1,5-15.8,4.7c-5.7-0.3-11.3-1.6-16.9-1c-6.3,0.6-12.4,3.8-15.9,9.1
		c-3.5,5.3-3.8,12.6-0.3,17.8c3.5,5,10.5,9.3,8.7,15.1c-1.3,4-6.3,5.4-10.5,4.9c-4.2-0.6-8.1-2.5-12.3-2.6
		c-5.7-0.2-11.2,3.1-14.4,7.8c-3.2,4.7-4.4,10.6-4,16.3c0.9,13.1,9.7,24.9,21.1,31.5c11.4,6.6,25,8.5,38.2,7.6
		c13.1-0.8,26-4.2,38.7-7.6l205.6,7.5c7.8,4.6,16.1,8.8,25.1,10.2c9,1.4,18.8-0.6,25.4-6.8c6.5-6.3,8.6-17.4,3.1-24.7
		C736.5,155,733.5,152.9,731.3,150.2z"/>
	<path class="st0" d="M700.6,158.4c-0.8,44.3-1.6,88.5-2.4,132.8c-0.4,22.1-0.8,44.3-1.2,66.4c-0.3,17.6-2,38-13,52.6
		c-12.8,17.1-27.6,33.6-43.5,48.3c-7.5,7-16.5,17.1-25.8,21.7c-7.9,3.8-20.2,3.1-28.9,3c-6.7-0.1-13.4-0.2-19.8-1.7
		c-14.7-3.5-28.5-18-39.8-27.4c-14.1-11.7-27.5-24-40.3-37.1c-9.6-9.8-24.4-21.5-28.8-34.8c-4.5-13.6-2.8-28.3-3.8-42.3
		c-1.3-19.1-2.5-38.1-3.8-57.2c-2.5-38.1-5.1-76.2-7.6-114.4c-0.7-9.8,7.4-16.6,15.7-21.8c23.2-14.6,50-23.2,77.2-27.2
		c27.2-4,54.8-3.6,82.2-1.4c15.9,1.3,32,3.2,46.9,9C678.8,132.8,700.9,142.5,700.6,158.4z"/>
	<path class="st1" d="M676.5,177.6c5.8,66.8,4.6,136,0.1,202.9c-8.8,8.2-19.6,14.2-30.9,18.2c-17.9-15-41-23.7-64.4-24.2
		c-23.4-0.5-45.5,5.8-64,20.1c-14.2-7-26.9-16.8-37.9-28.2c-6.6-63.5-9.6-127.3-9-191.1c9.6-13,21.6-22.1,36.4-28.5
		c33.1-14.4,69.4-21.3,105.5-20.3c16.9,0.5,34.1,2.9,48.9,11c6.9,3.8,13.4,9,17.2,15.9C682.1,160.3,680.4,170.7,676.5,177.6z"/>
	<path class="st0" d="M465.7,198.7c8.8,6.9,21,10.7,30.6,10.5c7.6-0.2,15.7-2.8,19.8-9.2c2.5-3.9,3.1-8.6,4.5-13
		c1.3-4.4,3.7-9,8-10.6c8.5-3.2,17.1,6.8,26,5.3c6.8-1.1,10.7-8.3,12.9-14.8s4.4-13.9,10.3-17.4c6.2-3.7,15.4-0.9,18.4,5.7
		c1.1,2.4,1.5,5.1,3.1,7.1c3.5,4.3,10.5,3.2,15.3,0.5c8.8-5,15.2-14.1,16.8-24.2c5.3,2.1,11.1,3.3,16.4,5.4
		c6.2,2.5,13.3,6,14.2,12.6c0.9,6.6-5,12.4-5.1,19c-0.1,6,4.7,11.3,10.3,13.6c5.6,2.3,11.8,2.3,17.8,2.2c10-11.9,10.5-29.6,4.8-44.1
		c-5.7-14.5-17.9-25.8-31.9-32.6c-14-6.8-29.7-9.4-45.3-10c-26.6-1.1-53.3,3.6-78,13.5c-23.6,9.5-47.3,18.1-66.6,35.5
		c-5.6,5-10.9,10.9-13,18.1C452.1,182.9,457.3,192.2,465.7,198.7z"/>
	<path class="st3" d="M621.8,397.7c-26,1.5-52,1.6-78,0.2c5.8,16.2,22,28,39.2,27.9C600.2,425.7,616.1,413.9,621.8,397.7z"/>
	<path class="st0" d="M489.6,267.5c2-5.8,6.1-10.4,10.9-13.8c4.8-3.4,10.5-5.7,16.4-6.6c5.9-1,12-0.6,17.6,1.1
		c5.7,1.7,11,4.8,14.7,9.6c0.4,0.5,0.3,1.3-0.2,1.7c-0.2,0.2-0.4,0.2-0.6,0.3l0,0c-5.8,0.5-10.6,0.7-15.3,1.2
		c-4.7,0.4-9.1,1-13.5,1.8c-4.4,0.8-8.8,1.6-13.4,2.7c-4.6,1-9.3,2.3-14.9,3.7l0,0c-0.7,0.2-1.3-0.2-1.5-0.9
		C489.5,267.9,489.5,267.7,489.6,267.5z"/>
	<path class="st0" d="M607.8,259.4c3.5-4.4,8.5-7.3,13.8-9c5.3-1.7,11-2.2,16.6-1.5c5.6,0.7,11.1,2.6,15.7,5.7
		c4.6,3.2,8.6,7.6,10.2,13.2c0.2,0.7-0.2,1.4-0.9,1.6c-0.2,0.1-0.4,0.1-0.6,0l0,0c-5.6-1-9.9-2.1-14.3-3c-4.3-1-8.3-1.9-12.5-2.7
		c-4.2-0.8-8.4-1.3-12.8-1.7c-4.4-0.4-9.1-0.5-14.4-0.7l0,0c-0.7,0-1.2-0.6-1.2-1.2C607.6,259.9,607.7,259.6,607.8,259.4z"/>
	<path d="M630.1,318.3c1,1.8,2.5,3.7,4.6,3.9c1.6,0.2,3.1-0.6,4.2-1.8c1.1-1.2,1.7-2.7,2.2-4.2c1.2-3.7,1.6-7.7,1.1-11.6
		c-0.3-2.6-1.1-5.3-3.1-7c-4.6-4-10.3-0.2-11.6,4.9C626.2,307.5,627.7,314,630.1,318.3z"/>
	<path d="M522.7,318.3c1,1.8,2.5,3.7,4.6,3.9c1.6,0.2,3.1-0.6,4.2-1.8c1.1-1.2,1.7-2.7,2.2-4.2c1.2-3.7,1.6-7.7,1.1-11.6
		c-0.3-2.6-1.1-5.3-3.1-7c-4.6-4-10.3-0.2-11.6,4.9C518.7,307.5,520.2,314,522.7,318.3z"/>
	<g>
		<path class="st2" d="M577.8,302.9c1,10,1.7,19.9,9.1,27.5c4.7,4.9,11.1,7.8,14.8,13.7c4,6.5,4.4,16.4-5.1,19.7
			c-4.4,1.5-9.8-0.4-13.9-1.6c-3.5-1-4.9,4.2-1.5,5.5c13,4.8,29.6,0.2,28.4-16.3c-0.5-7.1-5.1-13.1-10.3-17.6
			c-4.8-4.2-10.2-6.9-13.4-12.8c-3-5.5-4.3-12.3-5.2-18.5C580.4,301,577.7,301.4,577.8,302.9L577.8,302.9z"/>
	</g>
	<path class="st5" d="M638.5,658.5c-5.6,10.2-12.8,18.4-25.1,23c-14.7,5.5-32,3.4-44.9-5.4c-8.4-5.8-14.9-14.3-18.4-23.9l32.7-64.1
		L638.5,658.5z"/>
	<path class="st5" d="M640.9,741.7l-40.4,111.7l-42.8-80.8c8.1-34.5,16.3-69.1,24.5-103.6c13,0.5,26.3,0,39.3-1.4
		C627.8,692.6,634.6,716.7,640.9,741.7z"/>
	<g>
		<path class="st6" d="M613.9,1415.9L613.9,1415.9c-0.6,0-1.1-0.5-1.1-1.1c0-4.3,0.7-430-13.3-561.4c-0.1-0.6,0.4-1.1,1-1.2
			c0.6-0.1,1.1,0.4,1.2,1c14,131.5,13.4,557.3,13.4,561.6C615,1415.5,614.5,1415.9,613.9,1415.9z"/>
	</g>
	<path class="st3" d="M58.8,1109.4c27.6-9,57.6-8,86.1-2.7c28.5,5.3,56,14.9,83.9,23c67.9,19.9,143.9,31.6,214.6,34.9
		c-2.1,23.5-5,46.8-8.9,70c0,0-59.9,7.4-104.8,10.1c-44.9,2.7-296.1-89.7-296.1-89.7l9.5-39.4L58.8,1109.4z"/>
	<g>
		<path class="st4" d="M388.4,1162.4c-8.4,25.4-16.3,51-24.1,76.6c-1,3.3,4.2,4.8,5.2,1.4c7.8-25.6,15.4-51.2,22.5-77
			C392.7,1161,389.1,1160.1,388.4,1162.4L388.4,1162.4z"/>
	</g>
	<path class="st4" d="M407.3,1196.8c-7.1-2-5.5-11.7,1.1-12.8c5.3-0.9,9,3.4,7.4,8.4C414.6,1195.6,410.7,1197.7,407.3,1196.8z"/>
	<path class="st5" d="M426,1073.8v89.7c-65.6-4.2-134.8-15.6-197.2-33.9c-27.8-8.2-55.4-17.7-83.9-23c-2.7-0.5-5.4-1-8.1-1.4v-31.4
		H426z"/>
	<rect x="161.3" y="1021" class="st7" width="315.2" height="52.8"/>
	<g>
		<path class="st8" d="M350.3,806.7c-3.4-14.3-6.8-28.6-12.3-42.2s-9.8-30.9-23.4-36.4c-20.8-8.4-43.4-12.3-65.7-11.2
			c17.9,8.9,33.4,20.6,48.6,33.7c9.7,8.4,20.5,15.3,29.6,24.6c9,9.2,16.8,19.7,22.9,31.1L350.3,806.7z"/>
		<path class="st9" d="M354.1,821.8c-1.7-15.9,1.7-32.3,9.5-46.3c7.9-13.9,20.1-25.8,34.6-32.6c-2.5-4.7-5-9.8-7.6-14.6
			c-31,18-48.9,56.1-42.9,91.5C350.1,820.8,351.6,821.8,354.1,821.8z"/>
		<path class="st10" d="M373,955.5c-16.3-0.5-32.5-2.1-48.6-4.8c-3.3-0.6-6.5-1.5-9.5-2.9c-5.6-2.7-5.9-4.8-8.8-9.5
			c-19.7-31.6-32.1-67.1-36.8-104c-0.7-5.5,1.1-11,5.1-14.8c8.8-8.5,18.6-15.9,29.2-21.7c6.1-3.3,13.4-3.6,19.8-0.9
			c10.2,4.3,19.9,9.9,28.8,16.5c9.4-4.7,18.7-8.2,28.8-10.2c4.5-0.9,9.1,0.7,12.2,4c6.9,7.4,12,16.5,15.4,26.1
			c1.5,4.4,1.6,9.1,0.2,13.6c-10.8,33-20.8,65.1-31.7,98.2C375.7,949.2,376,952.1,373,955.5z"/>
		<path class="st11" d="M384.5,836.1c2,1.3,4.7,2.5,6.7,1.1c1.6-1.1,1.8-3.4,1.6-5.3c-0.8-7.8-7-14.7-14.6-16.5
			c-6.2-1.5-9.3,2.5-7.1,7.9C373.2,828.2,380.1,833.2,384.5,836.1z"/>
	</g>
	<path class="st1" d="M428.2,1229.1c11.4,4.2,24,4.7,35.7,1.5c20.4-5.6,29.9-20.1,40.8-36.8c10.8-16.6,20.6-33.9,26.6-52.8
		c6.8-21.5,10-44.9,8-67.5c-1.5-17.2-15.4-37.7-29.1-47.9c-2.9-2.2-6.2-4.1-9.8-4.7c-6.2-1.1-11.6,1.2-11,8.4
		c0.3,3.4,1.9,6.6,3.5,9.6c3,5.8,6.1,11.5,9.1,17.3c2.6,5,6.7,10.5,7.8,16c2.2,11.1,1.1,20-2.9,30.4c2.1-2.8-0.2-6.2-3.1-8.1
		c-2.9-1.9-6.8-1.8-10-0.4c-3.2,1.4-5.8,3.8-8.4,6.2c-10.2,9.8-19.3,20.6-27.1,32.4c-7.9,12-11.1,26.1-16.9,39.3
		c-6,13.5-15,24.6-17.9,39c-0.7,3.6-1.2,7.3-0.2,10.9C424.2,1225.3,424.8,1227.9,428.2,1229.1z"/>
	<g>
		<path class="st2" d="M506.1,1102.4c-4.5,10.3-9.6,20.5-15,30.4c-5.4,9.9-12.6,19.1-17.2,29.3c-0.9,2,1.5,4.4,3.3,2.6
			c15.1-16.1,24-40.7,31.4-61.1C509.2,1102,506.8,1100.9,506.1,1102.4L506.1,1102.4z"/>
	</g>
	<circle class="st6" cx="639.2" cy="889.1" r="9.8"/>
	<circle class="st6" cx="650.8" cy="988.7" r="9.8"/>
	<circle class="st6" cx="650.8" cy="1092.8" r="9.8"/>
	<circle class="st6" cx="650.8" cy="1196.8" r="9.8"/>
	<circle class="st6" cx="650.8" cy="1300.9" r="9.8"/>
	<g>
		<path class="st4" d="M980.7,1015.6c-13.3,12.6-24.2,24.5-27.9,43c-3.4,17.1-3.9,38.2-0.2,55.3c0.6,2.8,4.5,1.9,4.7-0.6
			c1.3-16.2-1.5-32.4,0.4-48.7c2.2-19.2,12.1-33.3,25.4-46.7C984.5,1016.4,982.2,1014.1,980.7,1015.6L980.7,1015.6z"/>
	</g>
	<g>
		<path class="st4" d="M1109.3,802c22.7,8.3,45.1,17.5,67.2,27.4c3.1,1.4,5.8-3.2,2.7-4.6c-22.4-10.1-45.4-19.2-68.6-27.4
			C1107.7,796.3,1106.4,800.9,1109.3,802L1109.3,802z"/>
	</g>
	
		<ellipse transform="matrix(0.1602 -0.9871 0.9871 0.1602 191.4471 1781.1243)" class="st4" cx="1142.5" cy="778.1" rx="8.6" ry="8.6"/>
	<path class="st3" d="M454.5,567.2c19.1-19.9,60.9-61,60-60.1l68.3,80.9l-60.3,118.2L454.5,567.2z"/>
	<polygon class="st3" points="582.8,588.1 640.2,507.1 705.6,567.6 660.8,686.7 	"/>
	<g>
		<path class="st4" d="M581,587.9c-20.4,38-40.3,76.3-60.1,114.7c-1.5,2.9,2.9,5.5,4.4,2.6c19.9-38.3,39.6-76.7,58.9-115.4
			C585.3,587.6,582.2,585.8,581,587.9L581,587.9z"/>
	</g>
	<g>
		<path class="st4" d="M582.2,588.9c22.7,36.1,48.7,70,75.8,102.9c2.3,2.8,6.2-1.2,4-4c-26.9-32.6-52.1-66.5-77.2-100.5
			C583.7,586,581.2,587.3,582.2,588.9L582.2,588.9z"/>
	</g>
	<g>
		<path class="st4" d="M45.6,1117.5c32.7-9.2,67.5-11.7,101.2-6.9c33.4,4.8,65.7,16.9,98.4,25.1c63.8,16,129,26.6,194.9,27.7
			c2.8,0,2.8-4.3,0-4.3c-69.5-1.5-138.4-13.4-205.5-31c-31.6-8.3-62.7-19.5-95.4-23c-32.1-3.4-63.6,0.2-94.4,9.5
			C42.9,1115,43.7,1118,45.6,1117.5L45.6,1117.5z"/>
	</g>
	<rect x="125" y="936.7" class="st12" width="318.4" height="84.3"/>
</g>
<g>
</g>
<g>
</g>
<g>
</g>
<g>
</g>
<g>
</g>
<g>
</g>
<g>
</g>
<g>
</g>
<g>
</g>
<g>
</g>
<g>
</g>
<g>
</g>
<g>
</g>
<g>
</g>
<g>
</g>
</svg>
