<?xml version="1.0" encoding="utf-8"?>
<!-- Generator: Adobe Illustrator 24.0.1, SVG Export Plug-In . SVG Version: 6.00 Build 0)  -->
<svg version="1.1" id="Layer_1" xmlns="http://www.w3.org/2000/svg" xmlns:xlink="http://www.w3.org/1999/xlink" x="0px" y="0px"
	 viewBox="0 0 1139.8 1561.6" style="enable-background:new 0 0 1139.8 1561.6;" xml:space="preserve">
<style type="text/css">
	.st0{fill:#FFFFFF;}
	.st1{fill:#B8BFCD;}
	.st2{fill:#5679C1;}
	.st3{fill:#BC562C;}
	.st4{fill:#E67866;}
	.st5{fill:#F69281;}
	.st6{fill:#AC2F1A;}
	.st7{fill:#BC4C38;}
	.st8{fill:#381213;}
	.st9{fill:#29488A;}
	.st10{fill:#C7B978;}
</style>
<g>
	<path class="st0" d="M364,1246.6c-71.1,51-128.2,213.5-120.4,314.4c93.1,0,621.5,0,621.5,0s-16.9-242.9-112.3-306.9
		C640.6,1179,364,1246.6,364,1246.6z"/>
	<g>
		<path class="st1" d="M400.4,1252.3c-6.1,18.5-11.7,37.1-17.1,55.8c-5.1,17.5-8.9,36.2-16.7,52.8c-7.5,16.1-20.3,28.2-37.2,33.9
			c-17.7,6-37.9,5.7-56.4,7.2c-3.7,0.3-3.8,6.1,0,5.8c34.1-2.8,71.9-2.2,92.9-34.1c10.9-16.6,14.8-37.5,20.2-56.3
			c6.1-21.4,12.2-42.8,17.5-64.4C404.2,1251,401.1,1250.2,400.4,1252.3L400.4,1252.3z"/>
	</g>
	<g>
		<path class="st1" d="M711.7,1280.3c13.1,39.1,27.1,78.5,43.5,116.3c6.9,16,14.6,25.8,30.6,33.3c14.4,6.8,30.9,13.2,46.7,7.6
			c3.1-1.1,1.8-5.4-1.3-4.8c-18.1,3-37-3.3-52.3-13.2c-14.8-9.6-20.3-29.8-26.5-45.3c-12.7-31.7-24.5-63.7-38.1-95
			C713.7,1277.7,711.2,1278.8,711.7,1280.3L711.7,1280.3z"/>
	</g>
	<g>
		<path class="st1" d="M496.5,1258.2c0.4,45.3,1.3,90.6,2.2,135.9c0.2,10.9,0.1,21.9,0.7,32.8c0.4,6.5,1,13.5,4.8,19
			c8.1,11.7,27.5,13.9,40.5,13.7c3.6-0.1,3.5-5.2,0-5.5c-9.6-0.8-20.6-1.7-29.3-6.3c-9.1-4.9-9.8-14.7-10.1-24
			c-0.6-18.4-0.8-36.8-1.3-55.2c-0.9-36.8-1.9-73.6-3.2-110.4C500.8,1255.4,496.5,1255.4,496.5,1258.2L496.5,1258.2z"/>
	</g>
	<g>
		<path class="st1" d="M536.6,1259.9c2.3,99.7,8.4,199.5,16.5,298.9c0.3,3.8,6.2,3.8,5.9,0c-7.4-99.6-13.1-199.2-18.4-298.9
			C540.5,1257.4,536.6,1257.3,536.6,1259.9L536.6,1259.9z"/>
	</g>
	<path class="st2" d="M365.9,1178c-0.6,22.9-1.3,45.8-1.9,68.6c125,10.9,250.9,14.4,376.3,11.8l2.9-66.3
		C617.5,1193.7,491.1,1188.8,365.9,1178z"/>
	<path class="st3" d="M729.6,130.9c-11.5-39.1-29.2-78.4-61.1-103.7c-31.9-25.4-77.8-34.6-109.8-9.4C544.7,4,523.8-1.6,504.2,0.4
		c-19.6,2-38,10.8-53.9,22.4c-37.3,27-62.2,68.4-76.8,112c-14.6,43.6-19.9,89.8-24.2,135.6c-11.8,122.9-18.3,246.4-19.5,369.8
		l441.8-5.3C739,469,777.4,293.1,729.6,130.9z"/>
	<path class="st4" d="M617.6,481.3c-4.1-19.4-5.7-40-2.9-59.6c-37.9,5.4-88.4,4.3-126.4,0c0.4,0.9,1,3.3,1.2,2.1
		c0.8,16,1.5,32.1,0,48c13.8,13.7,28.3,26.8,50,32.7C569.9,512.9,597.6,501.7,617.6,481.3z"/>
	<path class="st5" d="M690.1,299.9c1.3-36.5,2.9-73.7,0.7-110.1c-1.7-29.5-21.3-60.3-42.1-79.9c-21.6-20.4-50.4-32.3-79.8-35.6
		c-40.7-4.6-84.2,8-112,38c-15.2,16.4-25.2,37.2-31.4,58.6c-12.8,44.1-13.3,92.8-7.6,138.2c3.5,27.5,9.3,52,23.4,76.5
		c14.2,24.5,33.7,45.9,56.6,62.4c17.2,12.4,42.9,27.9,64.9,24.3c23.8-3.9,45.2-16.8,63.5-31.8c21.2-17.4,36.8-36.4,47.1-61.9
		C683.4,353.6,689.1,326.8,690.1,299.9z"/>
	<path class="st0" d="M599.1,400.2c3.6-6.6,6.2-13.9,8.6-21c-28.7,15.9-66.2,14.5-93.5-3.6c2.2,7.4,4.9,14.8,8.6,21.5
		C547.1,406.6,574.2,407.7,599.1,400.2z"/>
	<path class="st6" d="M522.9,397.1c3.9,7,8.8,13.2,15.3,17.8c12.8,9,30.8,11.6,44.3,3.6c7.4-4.3,12.6-10.9,16.6-18.4
		C574.2,407.7,547.1,406.6,522.9,397.1z"/>
	<path class="st3" d="M586.1,214.7c2.9-5.3,7.9-9.3,13.4-11.8c5.6-2.5,12-3.6,18.3-3c6.3,0.6,12.3,3,17.3,6.6c5,3.6,9,8.5,10.8,14.2
		c0.2,0.6-0.1,1.3-0.8,1.4c-0.3,0.1-0.7,0.1-0.9-0.1l0,0c-4.9-2.9-9.4-5.1-14-6.7c-4.6-1.7-9.1-2.7-13.7-3.2
		c-4.6-0.5-9.2-0.3-14,0.4c-4.8,0.7-9.7,2-15,3.8l0,0c-0.6,0.2-1.3-0.1-1.5-0.7C585.9,215.3,585.9,214.9,586.1,214.7z"/>
	<path class="st3" d="M460.2,219.9c2.5-5.4,7-9.7,12.2-12.7c5.3-3,11.3-4.7,17.5-4.7c6.2-0.1,12.3,1.4,17.7,4.2
		c5.3,2.9,9.9,7,12.5,12.4c0.3,0.6,0,1.3-0.5,1.6c-0.3,0.1-0.6,0.2-0.9,0.1l0,0c-5.4-1.7-10.2-3-14.9-3.8c-4.7-0.9-9.2-1.3-13.7-1.2
		c-4.5,0.1-9,0.6-13.7,1.6c-4.7,1-9.4,2.4-14.7,4.2l0,0c-0.6,0.2-1.3-0.1-1.5-0.7C460.1,220.5,460.1,220.2,460.2,219.9z"/>
	<path d="M610.8,292.6c2.5,0.8,5.3-0.5,7-2.4c1.7-2,2.6-4.5,3.2-7c0.8-3.1,1.5-6.4,1.2-9.6c-0.9-10.3-14.4-15.1-18.6-4.1
		C601.4,275.2,604.5,290.6,610.8,292.6z"/>
	<path d="M501.7,292.6c-2.5,0.8-5.3-0.5-7-2.4c-1.7-2-2.6-4.5-3.2-7c-0.8-3.1-1.5-6.4-1.2-9.6c0.9-10.3,14.4-15.1,18.6-4.1
		C511.1,275.2,507.9,290.6,501.7,292.6z"/>
	<g>
		<path class="st0" d="M493.3,330.6c-26.4,0-47.8-21.5-47.8-47.8c0-26.4,21.5-47.8,47.8-47.8c26.4,0,47.8,21.5,47.8,47.8
			C541.1,309.1,519.7,330.6,493.3,330.6z M493.3,237.1c-25.2,0-45.7,20.5-45.7,45.7c0,25.2,20.5,45.7,45.7,45.7
			c25.2,0,45.7-20.5,45.7-45.7C538.9,257.6,518.5,237.1,493.3,237.1z"/>
	</g>
	<g>
		<path class="st7" d="M551.4,272.2c0.5,14.5,5.6,27.6,16,37.8c6.2,6.1,29.8,16.7,19.4,28.8c-7.1,8.1-24.3,8.5-33.9,8.8
			c-3.6,0.1-3.6,5.7,0,5.6c12.8-0.4,45.3-3,41.9-23.2c-1.6-9.5-11-13.8-18-18.9c-12.5-9.1-20.4-23.6-22-38.9
			C554.5,270.2,551.3,270.1,551.4,272.2L551.4,272.2z"/>
	</g>
	<g>
		<path class="st0" d="M618,330.6c-26.4,0-47.8-21.5-47.8-47.8c0-26.4,21.5-47.8,47.8-47.8s47.8,21.5,47.8,47.8
			C665.8,309.1,644.3,330.6,618,330.6z M618,237.1c-25.2,0-45.7,20.5-45.7,45.7c0,25.2,20.5,45.7,45.7,45.7s45.7-20.5,45.7-45.7
			C663.6,257.6,643.1,237.1,618,237.1z"/>
	</g>
	<g>
		<g>
			<g>
				<path class="st8" d="M537.8,273.7c-2.3,0-4.4-1.5-5.1-3.7c-5.5-17.1-21.3-28.6-39.3-28.6c-17.5,0-33.2,11.1-39,27.6
					c-1,2.8-4.1,4.3-6.9,3.3c-2.8-1-4.3-4.1-3.3-6.9c7.3-20.9,27.1-34.9,49.2-34.9c22.7,0,42.6,14.5,49.6,36
					c0.9,2.8-0.6,5.9-3.5,6.8C538.9,273.7,538.3,273.7,537.8,273.7z"/>
			</g>
			<g>
				<path class="st8" d="M573.5,273.7c-0.6,0-1.1-0.1-1.7-0.3c-2.8-0.9-4.4-4-3.5-6.8c7-21.6,26.9-36,49.6-36
					c22.1,0,41.9,14,49.2,34.9c1,2.8-0.5,5.9-3.3,6.9c-2.8,1-5.9-0.5-6.9-3.3c-5.8-16.5-21.5-27.6-39-27.6
					c-18,0-33.8,11.5-39.3,28.6C577.9,272.3,575.8,273.7,573.5,273.7z"/>
			</g>
			<g>
				<path class="st8" d="M571,281.7c-1.3,0-2.6-0.5-3.7-1.4c-3.2-3-7.5-4.8-11.9-4.9c-4.4-0.2-8.8,1.2-12.3,3.9
					c-2.4,1.8-5.8,1.4-7.6-0.9c-1.8-2.4-1.4-5.8,0.9-7.6c5.4-4.2,12.5-6.5,19.4-6.2c6.9,0.3,13.7,3.1,18.8,7.8
					c2.2,2,2.3,5.4,0.3,7.6C573.9,281.2,572.5,281.7,571,281.7z"/>
			</g>
			<g>
				<path class="st8" d="M696.6,275h-33.2c-3,0-5.4-2.4-5.4-5.4s2.4-5.4,5.4-5.4h33.2c3,0,5.4,2.4,5.4,5.4S699.6,275,696.6,275z"/>
			</g>
			<g>
				<path class="st8" d="M448.5,275h-36.1c-3,0-5.4-2.4-5.4-5.4s2.4-5.4,5.4-5.4h36.1c3,0,5.4,2.4,5.4,5.4S451.4,275,448.5,275z"/>
			</g>
		</g>
	</g>
	<path class="st5" d="M731.6,265.5c-7.4-5.7-18.1-6.2-26.7-2.3s-15.1,11.4-19.1,19.9l-2,35.4c0,7.1,5.6,13.4,12.3,15.5
		c6.8,2.1,14.3,0.3,20.3-3.4c6-3.7,10.7-9.3,14.7-15.1c5.2-7.6,9.4-16.2,10.1-25.3C742,281,738.9,271.2,731.6,265.5z"/>
	<path class="st5" d="M376.8,265.5c7.4-5.7,18.1-6.2,26.7-2.3c8.6,3.8,15.1,11.4,19.1,19.9l2,35.4c0,7.1-5.6,13.4-12.3,15.5
		c-6.8,2.1-14.3,0.3-20.3-3.4c-6-3.7-10.7-9.3-14.7-15.1c-5.2-7.6-9.4-16.2-10.1-25.3C366.4,281,369.5,271.2,376.8,265.5z"/>
	<path class="st3" d="M698,201.8c-20.9-2.5-40.3-5.6-61.2-8.1c-5.2-38.3-28.7-73.1-59.7-96.1c18.2,26.9,27.1,59.3,24.9,91.7
		c-11.7,8.3-26.5,12.8-40.5,16.1c-2.1-38.5-14.6-75.5-35.5-107.8c-6.9,31.6-22.5,61.3-44.7,84.9c-22.1,23.6-50.8,41.1-81.9,50
		c-1-26.8,0.1-53.3,8.1-78.9c8-25.6,21.8-49.6,41.6-67.8c28.9-26.6,69-38.9,108.2-39.4c27.8-0.3,56.4,5.2,79.8,20.5
		c21.7,14.1,37.7,35.9,47.5,59.8C694.6,150.5,697.3,176,698,201.8z"/>
	<path class="st5" d="M539.5,504.6c-21.6-5.9-36.1-19-50-32.7c-0.4,4.5-1,9.1-1.9,13.5c-2.8,14.5-8.4,28.8-17.3,40.4
		c46.3,38.7,111.5,38.4,165.2,7c-7.3-14.8-13.8-32.7-17.8-51.6C597.6,501.7,569.9,512.9,539.5,504.6z"/>
	<path class="st2" d="M1133,1119.4c-13.1-39.1-42.7-70-67.4-103c-46.5-62.2-76.6-134.6-100-208.1c-21.8-68.4-32.7-149.7-89.3-200
		c-25.2-22.3-57.6-35.3-90.5-42c-27.7-5.7-55.8-6.7-84-8c-21.6-1-38.5-10.6-66.3-25.4c-53.7,31.4-118.9,31.7-165.2-7
		c-3.5,4.6-7.6,8.8-12.1,12.3c-22.6,17.6-53.4,18.2-81.9,21c-41.5,4.1-84.1,15.3-115.4,42.9c-98.9,87.4-139.6,226.6-178.6,352.7
		c-10.6,34.4-25,77.7-12.1,113.3c2.5,7,7.6,13.5,14.6,15.9c8.9,3,18.5-0.9,26.9-5.3c29.9-15.7,58.8-34.5,78.1-62.9
		c17.1-25.3,32-50.3,51.2-74.3c20.2-25.3,42-49.2,65.4-71.6c9.9,28.7,15,61.5,12,91.7c-6.9,68.5-43.1,152,18.4,206.9
		c26,23.2,60.9,34.2,95.4,38.1c34.6,3.9,69.5,1.5,104.3,1.1c29.2-0.3,51.4-0.5,78.5,10.9c35.9,15.2,63.6,40.2,99.5,54.5
		c39.7,15.8,82.2,27.3,125.2,23.9c47.3-3.8,91.8-25.2,139.1-29.5c25.4-2.3,50.8,0.3,76.2-0.6c25.8-0.8,43.5-1.6,58.9-23.2
		C1138.9,1208.3,1146.8,1160.7,1133,1119.4z"/>
	<path class="st2" d="M143.6,1019.7c-11.1,16.5-50.2,49.7-58.9,64.3c-28.8-8.5-36.7-39.2-47.8-62.8c-13.2-28.3-23.4-58.1-30.4-88.5
		c-11.8-51.7-10-92.4,25.6-134.5c23.4-27.7,52.5-51.8,67-85.1c12.1-27.8,12.9-59.7,26.2-86.9c11.1-22.7,30-40.5,46.3-59.7
		c15.8-18.6,29.4-39.1,40.6-60.8c11.5-22.4,19.2-46.4,28.8-69.6c15,3.4,30,7.1,44.7,11.7c7.3,2.3,14.6,4.8,21.7,7.7
		c3.4,1.3,8.3,2.5,11.2,4.8c4,3.2,3.4,2.2,0.7,7.2c-15.1,27.9-20.3,56.2-27.6,86.4c-7.6,31.1-3.8,63.2-16.2,93.6
		c-9.1,22.3-24.6,41.8-31.5,64.9c-7.5,25.1-4.3,51.9-6.4,78c-3.5,42.4-23.9,79.6-43.4,116.5C175.1,942.8,166.2,986.1,143.6,1019.7z"
		/>
	<g>
		<path class="st9" d="M287.3,584.3c-0.8,15.8-2.1,32-6.1,47.3c-4.5,17.2-13.8,29.8-24.6,43.5c-17.9,22.9-24.4,48.3-21.3,77.1
			c1.8,16.7,3.6,32.8,0.7,49.5c-2.8,16.2-8.5,31.8-15.8,46.5c-6.9,13.8-15.2,26.8-23.9,39.5c-9,13.1-19.9,25.5-27.5,39.4
			c-1.3,2.4,2,5.3,4,3.1c10.4-11.5,19-25,27.8-37.8c9.1-13.2,17.8-26.7,24.9-41.1c14-28.4,20.4-57.8,16.8-89.3
			c-1.9-17.1-3.6-33.3,1.2-50.2c4.7-16.5,14.3-28.8,24.6-42.2c19.8-25.7,21.5-54.1,22.1-85.4C290.1,582.5,287.4,582.5,287.3,584.3
			L287.3,584.3z"/>
	</g>
	<g>
		<path class="st9" d="M440.2,553c35,27.6,73.9,44.9,119.2,44.7c23.2-0.1,47-2.6,68.7-11.3c16.6-6.6,36.1-17.9,45-34.1
			c1-1.9-1.4-3.7-2.9-2.3c-15.1,14.1-28.4,25.9-48.3,32.8c-21.2,7.4-43.9,9.5-66.3,9.3C514,591.9,475.3,575,442,550.7
			C440.7,549.7,438.9,551.9,440.2,553L440.2,553z"/>
	</g>
	<g>
		<path class="st9" d="M479.7,535c-6.1,9.7-12.2,19.3-18.1,29.1c-1.7,2.8,2.7,5.3,4.3,2.5c5.8-9.9,11.3-19.8,16.9-29.8
			C483.9,534.8,480.9,533.1,479.7,535L479.7,535z"/>
	</g>
	<g>
		<path class="st9" d="M509.9,549.2c-4,11.1-9.6,21.8-13.1,33c-0.7,2.2,2.4,3.3,3.6,1.5c6.2-9.9,9.6-22.5,12.7-33.7
			C513.6,548.1,510.6,547.3,509.9,549.2L509.9,549.2z"/>
	</g>
	<g>
		<path class="st9" d="M561.2,555.2c-0.1,11.6-0.9,23.2-0.7,34.8c0,3,4.7,3.1,4.7,0c0-11.6-1.1-23.2-1.3-34.8
			C563.9,553.4,561.3,553.4,561.2,555.2L561.2,555.2z"/>
	</g>
	<g>
		<path class="st9" d="M537.2,554.3c-1.8,5.4-2.1,11.4-3,17c-1,6.6-2.6,13.1-3.5,19.7c-0.4,2.6,3.5,3.9,4.1,1.1
			c2.9-12,1.9-25.1,5.3-37C540.7,553.2,537.9,552.5,537.2,554.3L537.2,554.3z"/>
	</g>
	<g>
		<path class="st9" d="M588.4,550.6c4.5,13.4,9.1,27.8,16.8,39.8c1.3,2,5,0.7,4-1.7c-5.2-13.3-12.5-25.7-17.8-39
			C590.7,547.9,587.7,548.6,588.4,550.6L588.4,550.6z"/>
	</g>
	<g>
		<path class="st9" d="M619.6,542.1c7.4,10.6,13.7,22.1,21.2,32.7c1.8,2.6,6,0.3,4.3-2.5c-6.9-11.4-15.5-21.2-23.7-31.6
			C620.6,539.6,618.8,541,619.6,542.1L619.6,542.1z"/>
	</g>
	<g>
		<path class="st9" d="M282.8,757.2c3.4,19.2,6.9,38.3,10.4,57.5c3.5,19,6,38.6,11.1,57.3c0.7,2.6,5.2,2.2,4.8-0.7
			c-2.3-18.7-7.1-37.4-10.9-55.9c-4-19.7-8.1-39.4-12.3-59.1C285.5,754.3,282.5,755.2,282.8,757.2L282.8,757.2z"/>
	</g>
	<g>
		<path class="st9" d="M812.5,762.9c-9.3,24.9-15.9,50.5-19.5,76.8c-3.3,23.7-5.5,48.9-1.5,72.6c0.4,2.3,3.7,1.6,3.8-0.5
			c1.3-25.1,0.4-49.9,3.8-74.9c3.4-24.8,9.1-49.3,17-73.1C816.7,761.7,813.3,760.8,812.5,762.9L812.5,762.9z"/>
	</g>
	<rect x="475.1" y="852.4" class="st3" width="433.3" height="66.5"/>
	<g>
		<path class="st9" d="M368.5,1191.4c26.2,7.3,58.5,15.6,85.9,11.4c1.2-0.2,1.1-2.1,0-2.4c-13.4-2.8-27.3-2.5-40.9-4.3
			c-14.8-2-29.5-4.8-44-8.3C367.2,1187.2,366.2,1190.7,368.5,1191.4L368.5,1191.4z"/>
	</g>
	<rect x="380.5" y="918.9" class="st10" width="493.6" height="63.4"/>
	<rect x="479" y="982.2" class="st5" width="461.5" height="118.1"/>
	<path class="st1" d="M859.9,1100.3v28c-2.5,0.7-5,1.5-7.5,2.4c-20.8,7.2-39.8,18.8-59.5,28.7c-31.6,16-67.9,28-102.6,35.6
		c-0.1,1.3-0.2,2.7-0.3,4H395v-98.7H859.9z"/>
	<path class="st5" d="M658.2,1231.1c-42.1,3.4-84.5,6.2-126.6,2.6c-42.1-3.7-84.2-14-120.7-35.4c-5.3-3.1-10.7-6.7-13.8-12.1
		c-3.1-5.4-3-13,1.8-17c4.9-4,12-2.7,18.2-1.3c45.4,10.6,94,15.9,140.7,13.9c-9.7-13.2-24.7-22.2-40.9-24.7c-3-0.5-6.1-0.7-8.7-2.1
		c-2.7-1.4-4.8-4.3-4.2-7.3c0.8-3.8,5.3-5.4,9.2-6c25.2-4,51.1,3.1,73.6,15.2c22.5,12.1,42,28.8,61.3,45.5
		C655.4,1208.9,656.9,1221.4,658.2,1231.1z"/>
	<path class="st2" d="M690.4,1194.4c0,0.2,0,0.4,0,0.7c-0.1,1.3-0.2,2.7-0.3,4c-2,26-2,51.2-3.5,77.4c-15.4,0-29.9-1.2-44.9-4.6
		c0.9-24.2,1.7-48.5,2.5-72.7c0.1-2.9,0.2-5.9,0.3-8.8C659.7,1189.7,675.6,1190.3,690.4,1194.4z"/>
	<g>
		<path class="st9" d="M228.2,481.2c24.6,8.1,49.5,15.2,74.9,20.7c3.4,0.7,4.8-4.5,1.4-5.2c-25.3-5.6-50.4-12-75.2-19.7
			C226.7,476.1,225.5,480.3,228.2,481.2L228.2,481.2z"/>
	</g>
	<g>
		<path class="st9" d="M252.5,442.4c-2.1,7.1-4.2,14.3-6.2,21.4c-1.8,6.2-4.5,12.6-4.4,19.1c0,1.7,2.2,2.2,3.1,0.8
			c3.3-5.5,4.3-12.5,5.9-18.7c1.9-7.2,3.7-14.4,5.5-21.6C256.9,441,253.2,439.9,252.5,442.4L252.5,442.4z"/>
	</g>
	<g>
		<path class="st9" d="M277.8,448.6c-4.4,12.1-8.3,24.4-11,37c-0.7,3.3,4.3,4.7,5.1,1.4c3.1-12.5,6.2-25,10.2-37.3
			C282.9,447.1,278.8,446,277.8,448.6L277.8,448.6z"/>
	</g>
	<g>
		<path class="st9" d="M301.1,457.6c-4.1,11.2-9.5,23.3-11.5,35.1c-0.4,2.3,3,4.3,4.1,1.7c5.2-11.1,7.9-24,11.6-35.7
			C306.2,456,302.1,455,301.1,457.6L301.1,457.6z"/>
	</g>
	<g>
		<path class="st9" d="M987.1,1090.3c14.2-3.6,44.6-3.5,51.3,14.2c7,18.6-37.7,15.6-47.6,15.1c-34.2-1.7-69.4-3.6-103.5,1.1
			c-35.3,4.8-64,21.3-95.3,37.1c-32.8,16.6-67.9,27.6-103.6,35.7c-2.4,0.6-1.4,4.3,1,3.8c31.7-7.2,62.9-16.7,92.5-30.3
			c32-14.7,61-34.3,96.3-40.9c34.5-6.4,71.1-4.8,106.1-3c12.4,0.6,56.8,6.6,59.1-13.5c0.9-8.1-7.4-15.4-13.8-18.9
			c-13.2-7.2-29.2-7.8-43.4-4.2C983.6,1087.1,984.6,1090.9,987.1,1090.3L987.1,1090.3z"/>
	</g>
	<path class="st5" d="M431.4,258.6c-27.3,5.5-54.5,11-81.8,16.4c-5.5,1.1-9.2,1-13.4,4.8c-4.1,3.7-7.6,8.1-10.6,12.7
		c-6,9.3-10.1,19.8-14.1,30.1c-16.3,41.4-34.5,82-54.7,121.6l41.9,25.4c2.6-9.3,9.2-24.8,18.3-29.7c4.9-2.7,10.8-3,15.9-6.2
		c4.6-3,8.7-6.8,12.1-11c7.1-8.7,10.6-18.7,15.8-28.4c4.8-8.9,13.9-16.8,20.5-24.6c4.5-5.2,7.5-9.7,5.6-16.4
		c-1.9-6.5-4.3-12.9-6.8-19.1c-1.3-3.3-15.3-36.3-17.9-35.4c22.1-7.9,44.3-15.9,65.4-26.1c3-1.5,6.3-3.2,7.6-6.3
		C436.4,263.2,434.7,257.9,431.4,258.6z"/>
	<g>
		<path class="st9" d="M644.6,1206.5c13,3,27.8,5.2,41.1,5.2c2.6,0,3.2-4,0.6-4.6c-13.2-3-27.2-2.7-40.6-4.6
			C643.2,1202.1,642,1205.9,644.6,1206.5L644.6,1206.5z"/>
	</g>
	<g>
		<path class="st9" d="M645.4,1226.3c13.9,2.2,28.9,5.4,43,5.5c2.6,0,3.1-3.9,0.6-4.5c-13.6-3.7-28.9-4.4-42.9-5.7
			C643.4,1221.3,642.8,1225.9,645.4,1226.3L645.4,1226.3z"/>
	</g>
	<g>
		<path class="st9" d="M643.2,1251.7c14.1,2.7,28.5,4.8,42.8,5.1c3.4,0.1,3.3-5,0-5.2c-13.9-1.2-27.8-2.2-41.6-4.2
			C641.6,1247,640.3,1251.1,643.2,1251.7L643.2,1251.7z"/>
	</g>
	<g>
		<path class="st9" d="M689.2,1199.1c-2.2,22.9-5.1,46.5-3.9,69.5c0.1,2.6,3.8,2.5,4,0c2.3-22.9,1.6-46.5,2.4-69.5
			C691.7,1197.4,689.3,1197.5,689.2,1199.1L689.2,1199.1z"/>
	</g>
	<g>
		<path class="st7" d="M394.9,268c8-2.1,17-6,25.3-6.6c8.4-0.5,15.2,2.5,7.6,9.9c-4.2,4.1-10.3,5.8-15.7,7.5
			c-17.1,5.6-34.4,10.4-50.7,18.4c-2.7,1.3-0.3,5.4,2.4,4c15.8-7.9,32.7-12.6,49.5-18.1c8.4-2.8,18.3-6.2,22.1-15.1
			c9.4-22.8-34.6-4.8-41.2-3C392.2,265.6,393,268.5,394.9,268L394.9,268z"/>
	</g>
</g>
<g>
</g>
<g>
</g>
<g>
</g>
<g>
</g>
<g>
</g>
<g>
</g>
<g>
</g>
<g>
</g>
<g>
</g>
<g>
</g>
<g>
</g>
<g>
</g>
<g>
</g>
<g>
</g>
<g>
</g>
</svg>
