<?xml version="1.0" encoding="utf-8"?>
<!-- Generator: Adobe Illustrator 24.0.1, SVG Export Plug-In . SVG Version: 6.00 Build 0)  -->
<svg version="1.1" id="Layer_1" xmlns="http://www.w3.org/2000/svg" xmlns:xlink="http://www.w3.org/1999/xlink" x="0px" y="0px"
	 viewBox="0 0 1270.2 1516.4" style="enable-background:new 0 0 1270.2 1516.4;" xml:space="preserve">
<style type="text/css">
	.st0{fill:#381213;}
	.st1{fill:#E67866;}
	.st2{fill:#F69281;}
	.st3{fill:#5679C1;}
	.st4{fill:#783032;}
	.st5{fill:#FFFFFF;}
	.st6{fill:#A73823;}
	.st7{fill:#BC4C38;}
	.st8{fill:#29488A;}
	.st9{fill:#B8BFCD;}
</style>
<g>
	<path class="st0" d="M1016.8,1361.4c-8.8-47-22.4-93.2-43.9-135.9c-9.7-19.2-7.3-47.2-7.4-68.5c0-6.5,1.2-72.7,5.3-72.9
		c-120.3,5.5-239.3,6.3-359.7,3c0.8,24.5,1.6,49.1,2.4,73.6c-14.7,25.8-28.8,51.9-43,78c-7,12.8-15.7,25.6-21.5,39
		c-5.4,12.2-5.8,27.7-7.8,41c-9,59.8-15.8,137.1-20.3,197.4h513.7C1030.4,1464.3,1026.4,1412.5,1016.8,1361.4z"/>
	<path class="st1" d="M792.7,429.8c19.2-2.3,34.8-10.4,47.2-22.2c-1.4-21.5-2.3-43.1-2.3-64.4c-44.5-1.8-89-2.9-133.6-2.2
		c1,15.9,1.2,31.8,0.6,47.6C721.1,418.4,757.8,433.7,792.7,429.8z"/>
	<path class="st2" d="M207.7,556.7c-5.8-16.5-12.5-27.5-26.4-38.4c-12.6-9.9-27.4-17.2-43.4-19.6c-31.7-4.9-63.4-10.5-93.2-22.1
		c-0.9,5.4-1.4,10.9,3.3,13.5c-10.4-2.2-23-1.1-33.6-0.7c-3.1,0.1-6.3,0.3-8.9,1.9c-3.3,2-4.9,5.9-5.4,9.8c-0.4,3.9,0.3,8,2.4,11.3
		c2.8,4.3,9.7,5.9,14.6,6.1c-6.9,2.1-11.5,10.8-9.8,17.7c1.7,7,9.3,12,16.3,10.7c-5.2,1.3-6.5,8.4-5.9,13.7
		c0.6,5.3,4.3,9.9,8.8,12.7c4.5,2.8,9.8,4.2,15,5.2c-3.1-0.9-4.9,3-6.4,5.8c-1.5,2.8-1.4,6.3-0.6,9.4c2.2,8.1,9.6,14.5,18,15.5
		c16.3,1.9,30.8,4.9,46.7,8.8c15.9,3.9,32.9,6.8,48.5,1.9c11.2,22.6,17.8,48.5,23.7,73.1l64.2-34.5
		C218.9,627,219.4,590.1,207.7,556.7z"/>
	<path class="st3" d="M720.9,1105.7c-22,0.6-44.1,1.2-66.1-0.1c-16.2-1-40.1,0.2-51.7-12.6c-8-8.8-16-17.6-24-26.4
		c-11.1-12.2-23.2-25.7-21.3-43c2.1-19.1,9.7-36.8,5.7-56.6c-16.1,31.1-28.6,64.1-37.2,98c-4,15.9-7.2,32.3-14.8,46.8
		c-5,9.6-12.3,18.6-21.5,24.3c-9.9,6.2-15.2,3.3-25.7,1.5c-27-4.5-54.7-6.5-81.9-9.7c-9.9-1.2-19.8-2.4-29.1-6
		c-9.3-3.6-13.3-6.6-19.3-14.5c-20.9-27.5-38.3-57.7-51.8-89.5c-11.7-27.6-21.6-58.1-45.4-76.3c-7.3-5.6-19-8.6-25-15.4
		c-5.1-5.8-8.2-16.9-10.5-24.1c-6-18.5-7.8-38.1-10.2-57.4c-7.2-56.3-18.3-114.9-31.8-170.1c25.1-11.5,50.9-19.8,77.1-28.6
		c38.2,92.3,93.8,179.4,159.8,254.3c-3.9-6.1-2.5-14.2,0.9-20.5c3.4-6.3,8.7-11.4,13-17.1c4.3-5.7,7.9-12.7,7-19.8
		c-0.9-7-5.7-12.7-8.7-19.1c-8-17.1,1.2-31.3,5.5-47.7c4.9-19,9.8-37.9,14.7-56.9c9.8-37.9,19.6-75.9,29.5-113.8
		c3.4-12.9,6.7-25.9,10.6-38.7c3.2-10.4,6.1-28.1,13.3-36.5c6.2-7.1,21.1-11.5,29.6-15.6c11.1-5.4,22.4-10.5,33.8-15.4
		c47.2-20,96.4-35.2,146.6-45.3c26.8-5.3,54.1-5,81.3-3.2c25.3,1.7,54,1,78.4,8.3c53.7,16.1,106.7,34.9,157.1,59.6
		c10.3,5,25.5,10,33.1,18.7c7.7,8.9,13.8,21.5,20.1,31.6c14.5,23.3,27.9,47.4,39.9,72.1c33.3,68.6,47.6,144.4,98.2,203.6
		c13.4,15.7,8.2,34.8,10.6,55.3c5.9,51.7,23.9,101.1,44.1,148.7c4,9.4,10.5,19.4,13.2,29.1c4.9,17.2,0.8,34.8-1.5,51.9
		c-2,14.9-3.2,30.8-3.2,45.9c0,12.3-1,22.5-13.4,29c-9.2,4.7-20,5-30.4,5.4c-13.3,0.6-25.6,0.9-37.8,5.8c-11,4.4-23.4,6.2-35.2,6.1
		c-44.7-0.4-78-29.2-111-55.1c-36.6-28.8-86.1-67.2-134.8-65.9C840.7,1102.4,780.8,1104.1,720.9,1105.7z"/>
	<g>
		<path class="st4" d="M614.9,1162.6c41.1,8.7,83.4,7.6,125.2,7.6c44.2,0,88.7,0.5,132.9-1.6c2.8-0.1,2.8-4.3,0-4.3
			c-42.9-0.1-85.7,1.4-128.6,1.6c-42.8,0.2-86.3,1.6-128.5-6.7C613.6,1158.7,612.7,1162.1,614.9,1162.6L614.9,1162.6z"/>
	</g>
	<g>
		<path class="st4" d="M621.9,1204.9c-4.1,26.6-5.9,55.1-14,80.9c-4.1,13-11.1,24.8-23.1,31.9c-12.1,7.1-27,8-40.7,8.3
			c-4,0.1-4,6.3,0,6.2c27.1-0.5,52.9-7.3,65.2-33.8c5.6-12,7.9-25.2,9.7-38.1c2.6-18.2,4.7-36.5,7-54.8
			C626.3,1203.2,622.2,1202.6,621.9,1204.9L621.9,1204.9z"/>
	</g>
	<g>
		<path class="st4" d="M921.1,1262.6c4.3,14.2,8.7,28.4,13.2,42.5c3.4,10.7,6,23.1,13,32.3c12.7,16.8,44.6,18.7,63.2,13.9
			c2.6-0.7,1.9-4.3-0.6-4.5c-22.5-1.8-50.7,4.5-62.4-20.6c-9.5-20.4-15-43.5-22.4-64.7C924.2,1259,920.3,1260.1,921.1,1262.6
			L921.1,1262.6z"/>
	</g>
	<g>
		<path class="st4" d="M765.9,1170.9c-0.5,55.2-0.1,110.3,0.2,165.5c0.1,13.6,0.2,27.2,0.2,40.8c0.1,10.7-1.1,22.3,1.5,32.8
			c4.2,16.4,22.4,23.5,38.1,22.8c2.8-0.1,3.5-4.2,0.7-5c-9.1-2.5-19.4-2.1-26.9-8.8c-9.5-8.4-7.4-23.9-7.5-35.4
			c-0.2-23.6-0.3-47.3-0.5-70.9c-0.4-47.3-0.8-94.6-1.8-141.8C769.8,1168.3,765.9,1168.3,765.9,1170.9L765.9,1170.9z"/>
	</g>
	<path class="st4" d="M793,1216.6c1.2,1.6,2.9,2.9,4.8,3.3c1.6,0.4,3.3,0.3,4.9-0.1c3.6-0.9,7-3.1,8.8-6.4c1.8-3.3,1.9-7.5,0-10.7
		C804.6,1191,783.9,1204,793,1216.6z"/>
	<g>
		<path class="st4" d="M788.1,1429.2c0.1,15.2,0.1,30.4,0.3,45.5c0.2,12.4-1.9,27.4,1,39.4c0.2,0.9,1,1.7,1.9,1.9
			c0.4,0.1,0.8,0.2,1.1,0.2c1.8,0.4,3.6-1.5,2.5-3.3c-2.6-4.2-0.8-17-0.9-21.8c-0.2-6.9-0.3-13.8-0.5-20.7
			c-0.3-13.8-0.8-27.6-1.2-41.4C792.2,1426.5,788.1,1426.4,788.1,1429.2L788.1,1429.2z"/>
	</g>
	<path class="st2" d="M893.8,193.6c0.6,40-1.1,80.1-5.1,119.9c-1.6,15.8-16.5,28.8-27.3,39.9c-11.6,12.1-24.4,23.1-38,32.9
		c-8.1,5.8-13.1,8.8-23.1,7.9c-9.9-0.9-20.1-0.8-30.1-1c-10.5-0.2-20.8,1.7-29.8-4.5c-27.4-18.7-51.4-42.3-70.6-69.2
		c-5.6-7.9-6.8-11.8-7.7-21.2c-1-9.5-2-19.1-3-28.6c-2-19.1-3.9-38.2-5.9-57.3c-2.1-20.5,1.1-39.5,2-60.1
		c0.9-20.6,4.7-41.9,17.1-58.3c13.2-17.6,34.8-27.4,56.4-31.3s43.9-2.7,65.9-2.2c19.3,0.4,39.6,0.5,56.2,10.2
		c13.5,7.9,23,21.2,30,35.2C894.8,134,893.3,162.3,893.8,193.6z"/>
	<path class="st5" d="M910.3,199.5c-1.4,8.5-10,50.9-23.9,26.4c-5.9-10.5-3.5-22.8-3.6-34.3c-0.1-13.4-0.7-26.8-1.7-40.2
		c-0.8-10-1.9-20.1-5.8-29.3c-3.9-9.2-10-16-19.4-19.3c-38.1-13.6-79.5-17.3-119.5-11.1c-16.4,2.5-41.9,4.6-51.5,19.5
		c-9.6,14.9-10.1,33.9-9.4,51c0.9,20.6,3,42.5-6.8,60.6c-3.2,6-8.7,11.9-15.6,11.7c-6.7-0.2-10.8-2.2-14.3-7.9
		c-3.5-5.8-4.9-12.5-6.2-19.1c-8.3-42.5-17.2-96.6,7.8-135.4c11-17.1,30.4-29.7,50.7-28.3C704,21.5,730.4,5.2,755.7,1.3
		C781-2.6,807,2.6,831,11.7c17.1,6.5,31.4,15.9,46.8,25.4c12.6,7.8,25.3,16.9,31.4,30.6c11.7,26.7,9.3,55.7,7.1,84.1
		C914.9,167.8,913,183.7,910.3,199.5z"/>
	<path class="st0" d="M825.3,246.1c0.8,1.2,2,2.5,3.5,2.5c2,0.1,3.4-1.8,4.2-3.6c1.6-3.6,2.1-7.7,1.5-11.6c-0.3-1.6-0.7-3.3-1.7-4.6
		c-1-1.3-2.5-2.4-4.1-2.4C819.3,226,822.5,241.9,825.3,246.1z"/>
	<path class="st0" d="M735.1,246.1c-0.8,1.2-2,2.5-3.5,2.5c-2,0.1-3.4-1.8-4.2-3.6c-1.6-3.6-2.1-7.7-1.5-11.6
		c0.3-1.6,0.7-3.3,1.7-4.6c1-1.3,2.5-2.4,4.1-2.4C741.1,226,737.9,241.9,735.1,246.1z"/>
	<path class="st2" d="M891.2,279.6c-2.3-2.9-4.8-7.2-5.3-10.9c-0.4-3.1,0.4-6.5,0.4-9.6c0-8.3,1.7-16.7,4.7-24.4
		c2.9-7.7,9.1-14.4,16.8-17.3c9.2-3.5,20.6-1.1,27,6.4c4.8,5.6,6.5,13.3,5.9,20.7c-1.3,14.9-10.7,30.7-23.4,38.7
		c-4,2.6-8.7,4.5-13.5,4C898.8,286.8,894.3,283.6,891.2,279.6z"/>
	<path class="st2" d="M659.4,279.6c2.3-2.9,4.8-7.2,5.3-10.9c0.4-3.1-0.4-6.5-0.4-9.6c0-8.3-1.7-16.7-4.7-24.4
		c-2.9-7.7-9.1-14.4-16.8-17.3c-9.2-3.5-20.6-1.1-27,6.4c-4.8,5.6-6.5,13.3-5.9,20.7c1.3,14.9,10.7,30.7,23.4,38.7
		c4,2.6,8.7,4.5,13.5,4C651.9,286.8,656.4,283.6,659.4,279.6z"/>
	<path class="st2" d="M839.9,407.5c-12.4,11.9-28,20-47.2,22.2c-34.9,3.9-71.6-11.4-88.1-41.2c-0.6,16.3-1.9,32.6-4.1,48.8
		c-3.5,26.2,7.8,52.1,26.5,73.5c7.6,8.7,42.4,5,55,2.3c15.9-3.4,38.9,9.9,45.8-2.4c6.9-12.3,18.4-27.4,17.1-41
		C843,449.1,841.3,428.3,839.9,407.5z"/>
	<path class="st5" d="M701.3,193c2.5-5.1,6.8-9.2,11.7-12.1c5-2.9,10.7-4.6,16.5-5c5.8-0.4,11.7,0.7,17,2.9
		c5.2,2.3,10,5.8,13.1,10.6c0.4,0.5,0.2,1.3-0.3,1.6c-0.3,0.2-0.6,0.2-0.8,0.2l0,0c-5.3-1-10-1.8-14.6-2.2c-4.6-0.5-9-0.6-13.4-0.3
		c-4.4,0.3-8.8,0.9-13.3,1.9c-4.5,1-9.1,2.4-14.3,4l0,0c-0.6,0.2-1.3-0.1-1.5-0.8C701.1,193.6,701.2,193.3,701.3,193z"/>
	<path class="st5" d="M806.5,186.9c2.9-5.2,7.9-8.8,13.4-10.9c5.5-2.1,11.6-2.6,17.5-1.5c5.9,1,11.5,3.5,16,7.1
		c4.5,3.6,8.2,8.4,9.8,13.9c0.2,0.6-0.2,1.3-0.8,1.5c-0.3,0.1-0.5,0.1-0.8,0l0,0c-5.1-2-9.5-3.6-13.9-4.8c-4.3-1.2-8.5-2.1-12.6-2.6
		c-4.1-0.5-8.3-0.7-12.7-0.8c-4.5-0.1-9.1,0-14.8,0h0c-0.7,0-1.2-0.6-1.2-1.2C806.4,187.3,806.4,187.1,806.5,186.9z"/>
	<path class="st6" d="M744.1,333.2c1.9,3,3.9,5.8,6.5,8.3c6.3,6.2,13.9,11.2,22.5,13.2c10.9,2.5,22.7-0.2,31.7-6.8
		c5.1-3.7,9-8.5,11.8-13.9C792.7,338.3,768,338,744.1,333.2z"/>
	<path class="st5" d="M816.6,334c2.2-4.2,3.8-8.8,4.8-13.6c-28.4,1.3-57,1-85.4-0.8c2.8,4.4,5.2,9.2,8,13.6
		C768,338,792.7,338.3,816.6,334z"/>
	<g>
		<path class="st7" d="M777.6,233.9c-0.5,12.5,4.2,24.1,14.4,31.7c6.4,4.8,24.9,7.8,16.6,20.1c-5.5,8.1-19.1,7.5-27.5,8.1
			c-3.4,0.2-3.5,5.4,0,5.4c11.6,0.2,36.1-2.8,35.7-19.5c-0.2-7.5-7.1-10.8-12.9-13.6c-13.3-6.4-22.1-16.9-23.1-32.1
			C780.6,231.9,777.7,231.9,777.6,233.9L777.6,233.9z"/>
	</g>
	<g>
		<path class="st8" d="M1017.4,603.3c-6.4,19.9-14.2,40.1-18.1,60.6c-2.6,13.8-1.4,26.1,8.6,36.5c16.6,17.3,1.7,39.7-5.3,58.2
			c-6.4,16.8-13,35.8-9.9,53.9c0.5,2.7,4.4,1.8,4.6-0.6c1.7-21.1,6.2-39.4,13.8-59c5.1-13,13.9-29.3,9.3-43.7
			c-1.8-5.9-5.9-9.3-9.9-13.7c-8.7-9.6-8.2-21.6-5.8-33.5c3.9-19.5,10.1-38.7,15-58C1020,602.4,1017.8,601.8,1017.4,603.3
			L1017.4,603.3z"/>
	</g>
	<polygon class="st5" points="762.6,845 847.2,1279.8 1141.5,1242.3 1057.7,796.4 	"/>
	<path class="st2" d="M889,1127.6c-20.7,9.1-41.5,18.2-63.3,24.4c-7.9,2.2-15.9,4.1-24.1,4c-5.9-0.1-11.9-1.2-17.2-3.9
		c-4.3-2.2-6.2-5.6-8.9-9.5c-6.1-9.1-8.3-20.3-9.2-31.1c-1.1-13.3-0.8-26.7,1.1-40c0.9-6.3,1.1-10.6,7-13.8c4.2-2.3,9.2-3.1,14-3
		c8.2,0.2,16.4,2.5,24.5,1.3c-6.8-5.8-17.9-5.2-25-10.6c-5.8-4.4-9-12.2-7.9-19.4c10.7,2.2,21.5,3.9,32.4,5.3
		c10.3,1.3,20.9,1.1,30.7,4.9c17.9,6.8,34,18.3,46.2,33.1C901.1,1083.5,891.9,1109.4,889,1127.6z"/>
	<path class="st3" d="M1129.9,1220.4c-56.8-6.8-139.1-44.9-203.2-66.7c-16.4-5.6-30.7-14.7-47.2-20.3c1.7-26,3.5-52,5.2-78
		c0,0.3,112.5,13.4,122.7,14.6c17.8,2.1,39.2,8.3,56.4,3.2c19.7-5.9,39.7-10.7,59.9-14c20.9,18.6,36.3,43.7,42.8,70.9
		c4.1,17.2,4.8,35.5-0.7,52.2C1160.5,1199.1,1147.4,1222.5,1129.9,1220.4z"/>
	<g>
		<path class="st8" d="M929.7,1063.1c-2.9,29-4.3,58.1-5.1,87.2c-0.1,3.6,5.6,3.6,5.6,0c0.4-29.1,1.9-58.2,3.4-87.2
			C933.7,1060.6,930,1060.7,929.7,1063.1L929.7,1063.1z"/>
	</g>
	<g>
		<path class="st8" d="M1070.5,1070.9c19.9-5.7,40.6-12.1,61-15.1c21-3.1,37.1,5.3,54.4,15.7c8.1,4.8,24.1,17,34.1,12.8
			c10.4-4.4,5.7-17.8-0.3-23.5c-2.2-2-5.1,0.5-3.9,3c1.8,3.9,8.7,13-3.5,14.3c-2.9,0.3-9-3.7-11.6-5c-5-2.6-9.8-5.6-14.7-8.4
			c-10.2-6-20.7-12.2-32.6-14.2c-12.6-2.1-25,0.5-37.2,3.7c-15.7,4.1-31.1,9-46.6,13.9C1067.9,1068.6,1068.6,1071.5,1070.5,1070.9
			L1070.5,1070.9z"/>
	</g>
	<g>
		<path class="st8" d="M521.2,633.2c15.4,26.4,31.5,58,34.6,88.7c1.6,16.1-2,32.3-7.7,47.3c-4.6,12.2-11.6,24.5-11.1,38
			c0.5,11.9,7.4,20.7,13.7,30.3c8.8,13.2,12.6,27.6,13.3,43.4c1.2,28.7-4.4,57.4-2.9,86.2c0.1,2.6,4.2,3.5,4.8,0.7
			c2.9-13.8,1.4-28.5,2.1-42.6c0.7-14.8,2.6-29.4,1.9-44.2c-0.6-12.9-2.9-25.9-8.9-37.5c-7.6-15-21.2-25.8-17.7-44.4
			c2.8-14.8,11.1-28.1,14.8-42.6c3.3-12.7,4.5-26,2.5-39c-4.7-30.3-20.2-60.2-36-86.1C523.4,628.9,519.9,630.9,521.2,633.2
			L521.2,633.2z"/>
	</g>
	<g>
		<path class="st8" d="M395.8,902c8.3,10.6,16.5,21.1,26.2,30.6c8.9,8.8,19.2,16.4,27.6,25.7c9,9.9,12,22.1,14.1,35
			c1.7,10.7,2.3,23.6,8.7,32.7c1.6,2.3,5.2,0.9,4.6-1.9c-2.7-12-5.7-23.6-7.9-35.7c-2-11-5-21.4-12-30.3c-8-10.2-19-17.8-28.5-26.5
			c-10.7-9.9-21.3-20.3-30.6-31.5C396.7,898.5,394.7,900.6,395.8,902L395.8,902z"/>
	</g>
	<g>
		<path class="st8" d="M176,730.5c29.7-5.4,58.3-14.4,85.6-27.1c3-1.4,0.4-5.8-2.6-4.4c-26.9,12.5-55.1,21.5-84.3,27
			C171.9,726.6,173.1,731,176,730.5L176,730.5z"/>
	</g>
	<polygon class="st5" points="703.5,407.1 668.3,459.2 723.6,580.1 780.4,513.1 	"/>
	<polygon class="st5" points="840,411.6 780.4,513.1 841.3,590 870.4,464.9 	"/>
	<g>
		<path class="st7" d="M47.2,493.3c9,23.6,28.6,38,51.9,46.3c5.1,1.8,9.5,1.8,11.7,8.2c1.1,3.1,0,8.4,0.1,11.7
			c0.1,6.5,0.4,13,1.8,19.3c2.1,9.5,6.9,19.9,16,24.4c2.3,1.2,4.7-1.7,2.8-3.7c-10.8-11.4-14.4-22.4-14.9-38.1
			c-0.2-7.3,3.1-19.9-4.8-23.7c-11.1-5.4-23-7.4-33.7-14.2c-12-7.7-22.2-18.4-28.1-31.4C49.3,490.5,46.6,491.6,47.2,493.3
			L47.2,493.3z"/>
	</g>
	<g>
		<path class="st7" d="M19.8,521.7c16.1,1.7,33.5,4.4,49.7,3c2.2-0.2,3.2-3.9,0.6-4.2c-16.5-2.4-33.6-1.9-50.3-3.4
			C16.8,516.7,16.8,521.4,19.8,521.7L19.8,521.7z"/>
	</g>
	<g>
		<path class="st7" d="M25.9,549.2c16.9,2,33.7,4.2,50.6,6c7.2,0.7,16.2,0.7,22.7,4.1c9.7,5.2,7.6,15.1-0.1,19.9
			c-5,3.1-9.7,4.2-15.5,4c-2.6-0.1-3.2,3.9-0.6,4.5c15.1,3.5,41.6-15.7,24.2-29.9c-7.7-6.3-19.8-6.4-29.2-7.4
			c-17.4-1.7-34.8-3.4-52.1-5.4C23.2,544.7,23.2,548.9,25.9,549.2L25.9,549.2z"/>
	</g>
	<g>
		<path class="st7" d="M40.8,581.1c11.2,1.8,22.5,3.4,33.7,5.3c4.7,0.8,9.9,1.2,14.4,3c10.1,2.8,11.3,9.4,3.5,19.8
			c-3.4,0.7-6.8,0.9-10.3,0.5c-3.4-0.2-3.4,5.2,0,5.3c12.6,0.6,29.7-7.1,19.9-22.2c-4.1-6.4-11.6-8.5-18.7-9.7
			c-13.7-2.4-27.7-3.9-41.5-5.9C39.3,576.9,38.2,580.7,40.8,581.1L40.8,581.1z"/>
	</g>
	<g>
		<path class="st7" d="M95.5,536.9c0.2,4.1-1.5,8.9-5.3,10.9c-3.1,1.7-7.2,1.9-10.6,2.4c-3.6,0.5-3,5.6,0.7,5
			c4.7-0.8,10.1-1.4,13.9-4.5c4-3.3,5.6-8.7,5.2-13.7C99.2,534.4,95.5,534.3,95.5,536.9L95.5,536.9z"/>
	</g>
	<g>
		<path class="st9" d="M689.7,45.9c-0.2,9.7,1.1,19.1,4.1,28.3c2.3,6.9,5,14.7,11.9,17.9c2.2,1,4.2-1.4,2.6-3.3
			c-10.1-11.8-13.6-27.8-14.8-42.9C693.2,43.5,689.7,43.4,689.7,45.9L689.7,45.9z"/>
	</g>
</g>
<g>
</g>
<g>
</g>
<g>
</g>
<g>
</g>
<g>
</g>
<g>
</g>
<g>
</g>
<g>
</g>
<g>
</g>
<g>
</g>
<g>
</g>
<g>
</g>
<g>
</g>
<g>
</g>
<g>
</g>
</svg>
