<?xml version="1.0" encoding="utf-8"?>
<!-- Generator: Adobe Illustrator 24.0.1, SVG Export Plug-In . SVG Version: 6.00 Build 0)  -->
<svg version="1.1" id="Layer_1" xmlns="http://www.w3.org/2000/svg" xmlns:xlink="http://www.w3.org/1999/xlink" x="0px" y="0px"
	 viewBox="0 0 1147.2 1563.5" style="enable-background:new 0 0 1147.2 1563.5;" xml:space="preserve">
<style type="text/css">
	.st0{fill:#BC562C;}
	.st1{fill:#E67866;}
	.st2{fill:#F69281;}
	.st3{fill:#381213;}
	.st4{fill:#BC4C38;}
	.st5{fill:#F1E5DB;}
	.st6{fill:#5679C1;}
	.st7{fill:#802B07;}
	.st8{fill:#29488A;}
	.st9{fill:#D37049;}
	.st10{fill:#FFFFFF;}
</style>
<g>
	<path class="st0" d="M743.1,437.7c-3.1,1.7-6.8,2.8-12,3.6c-13.6,2-27.3,3.9-40.9,5.8c-55.1,7.6-110.4,14.4-165.9,17.4
		c-94.6,5.1-191.6-1.1-280.6-35.8c-22.9-8.9-35.3-38.2-25.9-60.9c9.3-22.4,35.8-37.1,37.2-61.4c1.4-25.5-26.2-43.7-31.3-68.7
		c-4.9-23.5,11.7-46.8,32-59.5c20.4-12.7,44.3-17.9,66.5-27c10.1-4.1,20.8-10.1,24.4-20.4c4.1-11.7-2.3-24.1-5.1-36.2
		c-5.5-23.9,4.5-49.9,22.4-66.7c17.9-16.8,42.6-25.2,67.1-26.6c24.5-1.4,49,3.8,72.4,11.2C522.9,7.8,542.6,0.4,562.8,0
		c20.2-0.4,41,3.7,57.6,15.2c16.6,11.4,28.3,31,27.1,51.1c-0.7,11.8-5.6,23.6-2.6,35c2.9,10.9,12.5,18.8,22.6,23.9
		c10.1,5.1,21.1,8.4,30.7,14.3c20.3,12.6,32.1,37.5,29,61.1c-2.4,18.3-12.8,37.1-6,54.2c5.2,13.1,18.7,20.4,29.6,29.4
		c22.5,18.8,35.2,48.9,32.8,78.1c-1.9,23.9-12.1,46.1-28,63.9C750.7,431.8,747.5,435.4,743.1,437.7z"/>
	<path class="st0" d="M757.5,1165.1c0,6.1,3.1,11.8,7.3,16.3c4.2,4.4,9.4,7.7,14.5,11c21.5,13.7,43.1,27.3,64.6,41
		c17.8,11.3,36,22.8,56.5,28.2c37.9,10.1,71.7-9.5,90.6-42.5c12.2-21.2,13.7-46.7,13.4-71.2s-1.9-49.4,4.9-72.8
		c-46.1-11.4-93.4-10.1-138.4,4.8C825.8,1094.8,787.6,1128.3,757.5,1165.1z"/>
	<path class="st1" d="M561.8,462.1c-3.4-27.3-7-72.4,0.8-72.3c-44.9-0.2-88.4-0.5-133.3-0.6c-1.3,17.2,0.5,34.4,0.1,51.6
		c-0.1,5.9-0.4,12.4-1.2,19C461.8,506.5,555.8,477,561.8,462.1z"/>
	<path class="st2" d="M372.3,268.3c3.6,42.2,14.3,75.9,37.7,111.3c22,33.4,72.1,82.4,116.5,68c13.8-4.5,25.6-13.5,36.1-23.4
		c31.7-29.8,54.1-69.1,64.3-111.3c2.5-10.5,4.4-21.3,5.3-32.1c0.9-11-5.9-18.6-9.9-28.8c-8.5-21.8-10.9-46-6.7-69
		c-27.4-5.3-55.5-10.1-80.9-21.6c-25.4-11.6-48.7-30-60.6-55.3c-11.7,31.7-36.7,57.2-67.1,71.9C405.9,209.1,392.1,244,372.3,268.3z"
		/>
	<path class="st2" d="M615.6,328.9c4.6,10.4,18.7,13.9,29.3,9.8c10.6-4,18.2-13.6,23.9-23.4c4.1-7.1,7.5-14.8,8.7-22.9
		s-0.2-16.8-5-23.5c-5.8-8.2-16.7-12.4-26.5-10.4c-9.8,2.1-18.1,10.3-20.1,20.1C622.3,295.7,619.7,312,615.6,328.9z"/>
	<path class="st2" d="M392,328.9c-4.6,10.4-18.7,13.9-29.3,9.8c-10.6-4-18.2-13.6-23.9-23.4c-4.1-7.1-7.5-14.8-8.7-22.9
		c-1.1-8.1,0.2-16.8,5-23.5c5.8-8.2,16.7-12.4,26.5-10.4c9.8,2.1,18.1,10.3,20.1,20.1C385.3,295.7,387.9,312,392,328.9z"/>
	<path class="st3" d="M442.8,280.3c0.7,2.1,1.7,4.2,3.7,5.1c1.5,0.6,3.3,0.4,4.7-0.4c1.4-0.8,2.5-2.1,3.3-3.5
		c2-3.3,2.6-7.3,2.9-11.1c0.3-3,0.3-6.3-1.5-8.7c-3-4.1-10.5-3.7-13,0.7C440.4,267.2,441.2,275.4,442.8,280.3z"/>
	<path class="st3" d="M553.3,280.3c0.7,2.1,1.7,4.2,3.7,5.1c1.5,0.6,3.3,0.4,4.7-0.4c1.4-0.8,2.5-2.1,3.3-3.5
		c2-3.3,2.6-7.3,2.9-11.1c0.3-3,0.3-6.3-1.5-8.7c-3-4.1-10.5-3.7-13,0.7C550.9,267.2,551.7,275.4,553.3,280.3z"/>
	<g>
		<path class="st4" d="M501,269.9c-1.4,8.9,2.2,15.9,8.8,21.9c3.8,3.4,10.3,5.8,13.2,9.8c10.2,14.3-11.6,17.7-18.8,19.1
			c-2.8,0.5-2.2,5.2,0.7,5c9.3-0.6,27.4-5.1,27.4-17.1c0-5.7-3.9-9.5-8.1-12.8c-9.2-7.3-19.8-12.1-20.1-25.5
			C504,268.7,501.3,268.2,501,269.9L501,269.9z"/>
	</g>
	<g>
		<path class="st4" d="M461.2,359.8c25.5,21.5,66.9,18.5,95.2,4c1.5-0.7,0.4-2.8-1.1-2.5c-16.6,3.1-31.7,8.8-49,8.7
			c-15.5-0.1-30.2-4.3-43.3-12.6C461.6,356.5,459.9,358.7,461.2,359.8L461.2,359.8z"/>
	</g>
	<g>
		<path class="st4" d="M489.2,387.6c9.7,5,20.5,6.4,30.8,2.4c2.6-1,1.6-5-1.2-4.2c-9.2,2.6-19,2.6-27.8-1.3
			C489,383.6,487.1,386.6,489.2,387.6L489.2,387.6z"/>
	</g>
	<g>
		<path class="st4" d="M552.7,359.2c1.3,1.3,2.4,2.8,3.2,4.5c0.7,1.6,1,3.6,2.6,4.5c0.7,0.3,1.7,0.3,2.2-0.3c1.6-2,0.6-4.4-0.3-6.5
			c-1-2.2-2.4-4.1-4.1-5.7C554,353.5,550.5,357,552.7,359.2L552.7,359.2z"/>
	</g>
	<g>
		<path class="st4" d="M457.6,364.7c1.6-2,3.4-3.9,5.4-5.4c1.8-1.3,4.1-2.2,5.4-4.1c0.7-0.9-0.3-2-1.2-2.1c-2.5-0.2-5,1.8-6.9,3.2
			c-2.2,1.7-4.1,3.8-5.7,6C453.4,364.1,456.3,366.4,457.6,364.7L457.6,364.7z"/>
	</g>
	<path class="st0" d="M417,223.7c2.1-5.9,6.4-10.6,11.5-14.2c5.1-3.6,11.2-5.8,17.5-6.5c6.3-0.7,12.7-0.1,18.5,2
		c5.8,2.1,11.2,5.4,15,10.2c0.4,0.5,0.3,1.2-0.2,1.6c-0.3,0.2-0.6,0.3-0.9,0.2l0,0c-5.7-1.1-10.9-1.9-16-2.1c-5.1-0.2-10,0-14.7,0.7
		c-4.8,0.8-9.4,2-14.2,3.6c-4.8,1.6-9.5,3.6-15,6l0,0c-0.6,0.3-1.3,0-1.5-0.6C416.9,224.3,416.9,224,417,223.7z"/>
	<path class="st0" d="M535.6,210.8c4.2-4.4,9.8-7.3,15.7-8.7c6-1.5,12.4-1.5,18.5-0.1c6.1,1.4,11.9,4.2,16.6,8.2
		c4.7,4,8.4,9.2,9.9,15.2c0.2,0.6-0.2,1.3-0.9,1.4c-0.3,0.1-0.6,0-0.8-0.1l0,0c-5.4-2.6-9.9-4.8-14.5-6.7c-4.6-1.9-9-3.5-13.5-4.7
		c-4.5-1.2-9.3-1.9-14.2-2.3c-5-0.4-10.1-0.4-15.9-0.3l0,0c-0.6,0-1.2-0.5-1.2-1.1C535.3,211.3,535.4,211,535.6,210.8z"/>
	<path class="st0" d="M729.1,1184.4c-5.3-64.3,23.8-125.3,53.1-180.7c24.8-46.8,73.7-92.2,62.7-150.1c-7.9-41.3-6.4-83.9-11.3-125.7
		c-4.8-41.8-17.2-84.9-47.2-114.4c-22.4-22-52.5-34.3-82.5-43.4c-30.1-9-61.1-15.3-90-27.7c-11.8-5.1-21-11.4-28.3-19.1
		c-8.7-9.3-24.3-8.2-28.5-22c-43.7,27.9-87.6,25.6-130.5-2.2c-7.2,10-17.2,20-26.5,28c-3.3,2.8-13.9-6.4-17.3-4.1
		c-42.9,30-98,30.9-147,45.1c-18.6,5.4-37,13-52.1,25.2c-35.7,28.7-37.4,80-50,121.1C99.2,827.8,33.7,927.5,8.6,1044.2
		c-8.3,38.5-14.7,83.4,1.1,120.7c14.4,34.3,41.7,63.2,75.5,78.9c42.4,19.7,94,18.2,135.1-4c-7.3,3.9-14.7,26-18.4,33.5
		c-6,12.1-11.4,24.5-16.2,37.1c-9.9,25.9-17.4,52.7-22.4,80c-4.9,26.5-7.4,53.5-7.5,80.4c-0.1,13.5,0.4,27,1.6,40.5
		c1,11.6-0.7,39.5,4.6,49.9h638.7c8.2-82.3-2.3-166.3-30.4-244.1C754.4,1273.3,732.9,1230.7,729.1,1184.4z"/>
	<path class="st5" d="M558.7,1213.2c0-59.6,1.8-119.3,4.4-178.7c4.5-105.1,41-213,40.2-321c-0.4-63.5-6.8-127.4-17.8-190.2
		c-10.1-10.8-16.5-24.4-20.8-41.4c-0.5-2.1-1.7-9.7-2.9-19.8c-42.9,20.6-92.8,20.7-133.6-2.5c-1.2,9.1-3.5,18.2-8.4,25.2
		c-7.6,11-16.8,21.7-27,30.4c-3.3,2.8-6.6,5.4-10.1,7.8c-6.1,10.5-12.2,21.4-17.5,33.2c-15.2,34.1-23.4,71.1-26.8,108.2
		c-5.9,65,17.7,175,22.4,240.1c8.4,115.2-5.2,197-11.5,303.7C419.1,1215.3,488.9,1216.9,558.7,1213.2z"/>
	<path class="st6" d="M558.7,1213.2c-69.8,3.7-139.5,2.1-209.3-5c-0.9,16.1-1.7,32.8-2.2,50.3c-2.9,101.5-5.9,204-30.2,302.6h273.2
		C566.1,1446.7,558.7,1330,558.7,1213.2z"/>
	<g>
		<path class="st7" d="M340.4,548.1c-26.8,56.4-45,117.7-41.3,180.6c2,33.9,9.8,67,14.7,100.5c5.1,34.5,7.3,69.4,7.7,104.2
			c0.8,68.7-5.5,137.3-10.1,205.8c-2.3,34.2-4.5,68.4-3.4,102.7c1.1,33.5,3.5,66.9,2.5,100.5c-2.2,73.7-15,145.7-28.5,218
			c-0.6,3.1,4,4.5,4.8,1.3c14.9-61.3,23.7-125.1,27.8-188c4.2-65.4-3.6-130.5-0.1-195.9c3.7-68.9,10.8-137.6,12.2-206.7
			c0.7-33.6,0.1-67.2-2.8-100.6c-2.8-32.6-8.9-64.5-14.3-96.7c-6.5-38.6-8.1-76.8-1.5-115.5c6.5-37.7,19.1-74,35.1-108.6
			C344.1,547.8,341.4,546.2,340.4,548.1L340.4,548.1z"/>
	</g>
	<g>
		<path class="st7" d="M617.7,550.6c13.8,63.4,18.4,128.8,16.8,193.6c-0.8,31.4-3.1,62.8-7,93.9c-4.1,32.7-10.9,64.8-16.3,97.3
			c-21.9,131-28.1,264.6-18.9,397.1c5.2,75.5,15.1,150.9,30.4,225.1c0.7,3.5,6,2,5.3-1.5c-26.2-134.3-38.2-270.7-33-407.5
			c2.6-68.2,9.4-136.1,20.1-203.5c9.8-61.8,21.5-122.4,23.9-185.2c2.7-70.6-2.8-141.2-18.4-210.2
			C620.2,547.9,617.3,548.7,617.7,550.6L617.7,550.6z"/>
	</g>
	<g>
		<path class="st7" d="M335.3,563.1c3.7,2,7.3,4.1,10.8,6.3c3,1.8,5.8,4.6,9.3,5c1.3,0.2,2-1.5,1.5-2.5c-1.7-3-5.6-4.6-8.5-6.4
			c-3.6-2.1-7.2-4.2-10.9-6.1C335,558,332.8,561.7,335.3,563.1L335.3,563.1z"/>
	</g>
	<g>
		<path class="st7" d="M326.2,585c7.4,3.3,14.7,7,22.2,9.8c2.5,0.9,4.1-3.1,1.8-4.2c-7.2-3.6-14.9-6.5-22.3-9.7
			C325.6,579.9,323.9,584,326.2,585L326.2,585z"/>
	</g>
	<g>
		<path class="st7" d="M319.6,607.3c7.7,2.5,15.4,5.3,23.3,7.5c3,0.8,4.2-3.6,1.3-4.7c-7.7-2.7-15.6-4.9-23.3-7.2
			C318,602,316.8,606.4,319.6,607.3L319.6,607.3z"/>
	</g>
	<g>
		<path class="st7" d="M315.2,630.5c3.9,1.3,7.9,2.5,11.8,3.8c3.6,1.1,7.2,2.7,10.9,3c2.1,0.1,2.7-2.9,1.1-3.9
			c-3.2-1.9-7.1-2.7-10.7-3.8c-4-1.2-7.9-2.4-11.9-3.7C313.6,625.1,312.4,629.5,315.2,630.5L315.2,630.5z"/>
	</g>
	<g>
		<path class="st7" d="M312,651.1c8.4,0.5,16.5,2.9,24.8,3.6c2.2,0.2,3.2-3.4,1.2-4.3c-7.8-3.4-17.6-3.9-26-4.3
			C308.8,645.9,308.8,650.9,312,651.1L312,651.1z"/>
	</g>
	<g>
		<path class="st7" d="M304.3,675.6c9.4,2.1,19.7,5.4,29.3,5.6c2.2,0,2.4-2.9,0.5-3.7c-8.8-3.4-19.4-4.3-28.7-5.9
			C302.8,671.2,301.6,675,304.3,675.6L304.3,675.6z"/>
	</g>
	<g>
		<path class="st7" d="M304.8,700.1c10.1,1.6,21.9,4.6,32,3.2c2-0.3,1.7-3.3,0-3.8c-4.4-1.3-9.3-1.2-13.9-1.7
			c-5.7-0.6-11.4-1.2-17-2C303.3,695.6,302,699.6,304.8,700.1L304.8,700.1z"/>
	</g>
	<g>
		<path class="st7" d="M306,728.8c10-0.2,20.4,0.4,30.3-0.7c2.7-0.3,2.8-4,0-4.2c-10-0.8-20.3,0.1-30.3,0.2
			C302.9,724.1,302.9,728.8,306,728.8L306,728.8z"/>
	</g>
	<g>
		<path class="st7" d="M307.1,753.2c10.5-1.9,20.3-1.4,30.9-1.9c2.1-0.1,2.8-3.4,0.5-3.8c-10.7-2-22-0.4-32.6,1.5
			C303.2,749.5,304.3,753.7,307.1,753.2L307.1,753.2z"/>
	</g>
	<g>
		<path class="st7" d="M311.5,779.4c10.5-0.4,21.6,0.1,32-1.7c2.4-0.4,1.6-3.9-0.6-4.1c-10.3-0.8-21.1,0.8-31.4,1.4
			C308.7,775.2,308.7,779.5,311.5,779.4L311.5,779.4z"/>
	</g>
	<g>
		<path class="st7" d="M317,803.9c4.9-0.2,9.8-0.4,14.6-0.6c3.8-0.1,8.2,0.6,11.4-1.7c0.8-0.6,0.9-1.7,0-2.3
			c-3.4-2.1-7.6-1-11.4-0.8c-4.9,0.2-9.8,0.4-14.6,0.7C314,799.3,314,804,317,803.9L317,803.9z"/>
	</g>
	<g>
		<path class="st7" d="M316.4,827.1c9.9,0,21.1,1.4,30.9-0.5c1.8-0.4,1.9-3.4,0-3.7c-9.8-1.8-20.9-0.2-30.9,0
			C313.7,822.8,313.7,827.1,316.4,827.1L316.4,827.1z"/>
	</g>
	<g>
		<path class="st7" d="M324.7,856.9c9.5-0.8,19.8-3,29.2-1.6c2.9,0.4,4-3.3,1.2-4.4c-4.3-1.7-8.8-0.9-13.3-0.4
			c-5.7,0.6-11.5,1.2-17.2,1.9C321.9,852.6,321.8,857.1,324.7,856.9L324.7,856.9z"/>
	</g>
	<g>
		<path class="st7" d="M327.7,887.4c5.2-1.3,10.5-2.2,15.9-2.2c4.3,0,8.8,1.4,13,0.1c1.4-0.4,1.5-2.1,0.4-2.9
			c-3.9-2.8-9.8-2.3-14.4-2.2c-5.5,0.2-10.9,1-16.2,2.4C323.3,883.4,324.6,888.2,327.7,887.4L327.7,887.4z"/>
	</g>
	<g>
		<path class="st7" d="M327.5,911.4c9.9,0.5,19.9,1.1,29.8,1.4c3.1,0.1,3.1-4.7,0-4.8c-9.9-0.5-19.9-0.8-29.8-1.2
			C324.5,906.6,324.5,911.2,327.5,911.4L327.5,911.4z"/>
	</g>
	<g>
		<path class="st7" d="M328.6,934c5.2-0.1,10.4-0.3,15.7-0.4c4.5-0.1,9.1,0.7,13.6,0.5c2-0.1,2.5-2.4,1-3.5c-3.5-2.6-8.1-2.1-12.3-2
			c-6,0.1-11.9,0.3-17.9,0.5C325.4,929.1,325.4,934.1,328.6,934L328.6,934z"/>
	</g>
	<g>
		<path class="st7" d="M327.5,956.8c11,0.2,22.1,0.7,33.1,0.3c3.1-0.1,3-4.6,0-4.7c-11-0.6-22.1-0.2-33.1-0.3
			C324.4,952,324.4,956.7,327.5,956.8L327.5,956.8z"/>
	</g>
	<g>
		<path class="st7" d="M326.3,976.9c11.2,2.4,23,1.1,34.3,2.3c2.6,0.3,2.7-3.5,0.6-4.3c-10.6-3.8-22.7-0.2-33.7-2.4
			C324.6,971.9,323.4,976.3,326.3,976.9L326.3,976.9z"/>
	</g>
	<g>
		<path class="st7" d="M326.4,998.9c11.1,0.9,23.1,3.3,34.2,2.4c2.4-0.2,3.1-3.7,0.6-4.3c-11-2.7-23.5-2.3-34.8-3.2
			C323.1,993.5,323.1,998.6,326.4,998.9L326.4,998.9z"/>
	</g>
	<g>
		<path class="st7" d="M324.2,1020.4c11.7,1.1,25.2,4.3,36.9,2.7c2-0.3,1.6-3.1,0-3.6c-11.2-3.7-25.2-3-36.9-4
			C321.1,1015.3,321.1,1020.1,324.2,1020.4L324.2,1020.4z"/>
	</g>
	<g>
		<path class="st7" d="M325.2,1041.1c10.2,2,21.8,4.5,32.1,3c2-0.3,1.8-3.4,0-3.8c-10-2.3-20.6-2.2-30.8-4
			C323.3,1035.6,322,1040.5,325.2,1041.1L325.2,1041.1z"/>
	</g>
	<g>
		<path class="st7" d="M314.8,1240.5c5.5,0,11,0,16.6,0c4.4,0,8.9,0.8,12.9-1.2c1-0.5,1-2.1,0-2.6c-4-2-8.5-1.1-12.9-1.1
			c-5.5,0.1-11,0.2-16.6,0.3C311.8,1235.9,311.8,1240.5,314.8,1240.5L314.8,1240.5z"/>
	</g>
	<g>
		<path class="st7" d="M314.9,1266.6c11-2.3,21.9-2.9,33-2.1c3.1,0.2,3-4.5,0-4.8c-11.6-0.9-22.9,0-34.3,2.4
			C310.7,1262.8,312,1267.2,314.9,1266.6L314.9,1266.6z"/>
	</g>
	<g>
		<path class="st7" d="M317.5,1291.8c9.1-1,18-0.5,27.1-0.9c2.3-0.1,3-3.8,0.6-4.2c-9-1.4-18.6-0.5-27.6,0.6
			C314.7,1287.7,314.7,1292.1,317.5,1291.8L317.5,1291.8z"/>
	</g>
	<g>
		<path class="st7" d="M317.5,1321.2c7.2,0.4,14.4,0.8,21.5,1.2c3,0.2,3-4.5,0-4.6c-7.2-0.3-14.4-0.5-21.5-0.8
			C314.8,1316.9,314.8,1321,317.5,1321.2L317.5,1321.2z"/>
	</g>
	<g>
		<path class="st7" d="M316.5,1347.9c4.1-0.1,8.1,0,12.2,0.3c4,0.3,8.1,1.3,12.1,1.1c2.3-0.1,2.6-3.1,0.5-3.9
			c-7.3-2.9-17.2-2.2-24.9-2C313.5,1343.5,313.5,1348,316.5,1347.9L316.5,1347.9z"/>
	</g>
	<g>
		<path class="st7" d="M313.1,1368.4c5,0.7,9.9,1.2,14.9,1.6c4.8,0.3,10.2,1.1,14.9-0.4c1.6-0.5,1.7-2.8,0-3.3
			c-4.4-1.3-9.2-0.7-13.7-0.8c-5.2-0.2-10.3-0.6-15.4-1.2C311.3,1363.9,310.7,1368,313.1,1368.4L313.1,1368.4z"/>
	</g>
	<g>
		<path class="st7" d="M313.1,1395.9c8.4,1,16.7,3.9,25,4.6c1.8,0.2,2.5-2.7,0.9-3.4c-7.7-3.5-17.5-4.2-25.9-5.1
			C310.6,1391.7,310.6,1395.6,313.1,1395.9L313.1,1395.9z"/>
	</g>
	<g>
		<path class="st7" d="M309.1,1421.4c8.3,1.8,16.5,3.9,24.9,5.2c2.9,0.5,4.2-3.7,1.2-4.5c-8.2-2.2-16.6-3.6-24.9-5.3
			C307.4,1416.3,306.2,1420.8,309.1,1421.4L309.1,1421.4z"/>
	</g>
	<g>
		<path class="st7" d="M307.6,1445.2c4.7,0.8,9.3,1.7,14,2.6c4.1,0.8,8.3,2.3,12.5,2.2c1.7,0,2.5-2.5,0.9-3.3
			c-7.6-3.9-18.4-4.2-26.9-5.3C306,1441,305.5,1444.8,307.6,1445.2L307.6,1445.2z"/>
	</g>
	<g>
		<path class="st7" d="M304.3,1468.3c4.8,1.4,9.7,2.8,14.6,4.1c3.7,1,7.8,3.1,11.6,1.6c0.7-0.3,0.9-1,0.4-1.7
			c-2.5-3.2-7.1-3.3-10.8-4.3c-4.9-1.3-9.8-2.5-14.7-3.6C302.9,1463.9,301.8,1467.6,304.3,1468.3L304.3,1468.3z"/>
	</g>
	<g>
		<path class="st7" d="M297.2,1493c8.7,3,17.4,5.9,26.4,8.1c3,0.7,4.3-3.9,1.3-4.7c-8.9-2.4-17.8-4.5-26.6-7.2
			C295.8,1488.6,294.8,1492.2,297.2,1493L297.2,1493z"/>
	</g>
	<g>
		<path class="st7" d="M293.8,1518c5,1.5,9.9,3,14.9,4.4c4.4,1.3,8.8,3.1,13.4,3.2c1.6,0,2.2-2.2,0.8-3.1c-3.9-2.3-8.7-3.1-13.1-4.2
			c-5-1.3-10-2.6-15-3.9C292.5,1513.7,291.5,1517.3,293.8,1518L293.8,1518z"/>
	</g>
	<g>
		<path class="st7" d="M289.9,1542c8.9,2.7,18.4,6.7,27.7,7.6c2.1,0.2,3-3.1,1.1-4c-8.5-3.9-18.7-5.2-27.7-7.3
			C288.5,1537.7,287.5,1541.3,289.9,1542L289.9,1542z"/>
	</g>
	<g>
		<path class="st7" d="M595.2,1555.9c8.6-1.5,17.4-2.7,25.9-4.7c2.4-0.6,2-4.8-0.6-4.5c-8.9,1-17.7,3-26.6,4.5
			C590.9,1551.7,592.2,1556.4,595.2,1555.9L595.2,1555.9z"/>
	</g>
	<g>
		<path class="st7" d="M590.3,1537.1c5.1-1.3,10.2-2.3,15.3-2.9c4.2-0.5,8.7-0.1,12.6-1.6c1.5-0.6,1.6-2.7,0-3.2
			c-4.2-1.3-8.9-0.3-13.2,0.3c-5.4,0.7-10.7,1.8-15.9,3.1C586.3,1533.6,587.5,1537.8,590.3,1537.1L590.3,1537.1z"/>
	</g>
	<g>
		<path class="st7" d="M583.6,1511.3c9-1.3,18.1-2.3,27-3.9c2.5-0.5,2-4.8-0.6-4.5c-9.2,1-18.4,2.7-27.6,4
			C579.5,1507.3,580.7,1511.7,583.6,1511.3L583.6,1511.3z"/>
	</g>
	<g>
		<path class="st7" d="M579.1,1485.5c9.7-0.9,19.6-1.4,29.2-3c2.2-0.4,1.7-4-0.5-3.9c-9.6,0.3-19.2,1.8-28.7,2.7
			C576.4,1481.5,576.4,1485.7,579.1,1485.5L579.1,1485.5z"/>
	</g>
	<g>
		<path class="st7" d="M576.4,1461.1c5.1-0.6,10.2-1.2,15.3-1.7c4-0.5,8.5-0.2,12-2.4c1.1-0.7,0.9-2.3-0.4-2.8
			c-3.9-1.3-8.6,0-12.6,0.5c-4.7,0.5-9.5,1.1-14.2,1.6C573.4,1456.7,573.3,1461.5,576.4,1461.1L576.4,1461.1z"/>
	</g>
	<g>
		<path class="st7" d="M575.3,1439.5c5.6-0.4,11.2-0.9,16.9-1.3c4.4-0.3,9.1,0,13.1-2.2c1.1-0.6,0.7-2.1-0.3-2.5
			c-4.3-1.6-9.4-0.4-13.9-0.1c-5.2,0.4-10.5,0.8-15.7,1.2C572.2,1434.9,572.1,1439.8,575.3,1439.5L575.3,1439.5z"/>
	</g>
	<g>
		<path class="st7" d="M570.3,1415.7c4.9-0.5,9.8-1,14.6-1.5c4-0.4,8-0.5,11.6-2.1c1.4-0.6,1-3-0.4-3.3c-4-0.8-8.2,0-12.2,0.5
			c-4.6,0.5-9.1,1-13.7,1.5C567.2,1411.2,567.1,1416,570.3,1415.7L570.3,1415.7z"/>
	</g>
	<g>
		<path class="st7" d="M567,1388.2c8.6-0.5,18.1,0.1,26.4-2c2.3-0.6,1.5-3.5-0.5-3.7c-8.4-1.1-17.5,0.5-25.9,0.9
			C563.9,1383.6,563.9,1388.4,567,1388.2L567,1388.2z"/>
	</g>
	<g>
		<path class="st7" d="M565.9,1364c8.5,0.6,19.4,1.7,27.5-1.4c2-0.8,1.7-3.5-0.5-3.7c-4.4-0.5-9,0.4-13.5,0.6c-4.5,0.1-9,0-13.5-0.3
			C562.8,1359,562.8,1363.8,565.9,1364L565.9,1364z"/>
	</g>
	<g>
		<path class="st7" d="M561.5,1334.7c9.9,0.6,21.7,2.4,31.4-0.1c1.7-0.5,1.8-3.2,0-3.6c-9.9-2.1-21.3-0.6-31.4-1.1
			C558.4,1329.8,558.4,1334.5,561.5,1334.7L561.5,1334.7z"/>
	</g>
	<g>
		<path class="st7" d="M564.8,1304.4c4.5,0.4,8.9,0.7,13.4,0.7c3.6,0,7.4,0.2,10.5-1.8c0.7-0.5,0.9-1.8,0-2.2c-3.3-1.5-6.9-1-10.5-1
			c-4.5,0-8.9-0.2-13.4-0.6C561.6,1299.2,561.6,1304.1,564.8,1304.4L564.8,1304.4z"/>
	</g>
	<g>
		<path class="st7" d="M562,1283.4c4.7-0.3,9.3-0.5,14-0.6c3.7,0,7.8,0.9,10.9-1.4c0.6-0.4,0.9-1.3,0.2-1.8
			c-2.9-2.5-6.5-1.9-10.2-1.8c-5,0-10,0.3-14.9,0.6C558.8,1278.6,558.8,1283.6,562,1283.4L562,1283.4z"/>
	</g>
	<g>
		<path class="st7" d="M562,1260.7c7.2-0.9,14.5-1.4,21.6-3c2.4-0.6,1.9-4.4-0.6-4.3c-7,0.2-14,1.5-21,2.4
			C558.9,1256.2,558.9,1261.1,562,1260.7L562,1260.7z"/>
	</g>
	<g>
		<path class="st7" d="M560.9,1240.1c7,0,17.1,1.2,23.3-2.5c1-0.6,0.7-2-0.3-2.4c-3.5-1.2-7.2-0.6-10.8-0.4
			c-4.1,0.2-8.1,0.3-12.2,0.3C557.8,1235.2,557.8,1240.1,560.9,1240.1L560.9,1240.1z"/>
	</g>
	<g>
		<path class="st7" d="M563.1,1219.8c3.9-0.2,7.7-0.3,11.6-0.5c3.5-0.2,7.2,0.1,10.4-1.3c1.5-0.6,1.8-2.8,0-3.4
			c-3.3-1-6.9-0.5-10.4-0.3c-3.9,0.2-7.7,0.4-11.6,0.6C560,1215.1,560,1220,563.1,1219.8L563.1,1219.8z"/>
	</g>
	<g>
		<path class="st7" d="M563,1197.1c7.2,1.2,18.6,2.9,24.6-2.3c0.6-0.5,0.3-1.6-0.5-1.8c-3.3-0.9-6.8-0.1-10.2,0.1
			c-4.3,0.3-8.5,0-12.7-0.6C561.3,1192,560,1196.6,563,1197.1L563,1197.1z"/>
	</g>
	<g>
		<path class="st7" d="M563.1,1064.1c11,0.9,23.8,3,34.7,0.8c1.5-0.3,1.5-2.8,0-3.1c-10.9-2.3-23.5-1.1-34.7-1.6
			C560.6,1060,560.6,1063.9,563.1,1064.1L563.1,1064.1z"/>
	</g>
	<g>
		<path class="st7" d="M566.4,1038.2c5.7,0.7,11.4,1.3,17.2,1.8c4.5,0.4,9.1,1.2,13.3-0.6c1-0.4,0.8-1.9,0-2.4
			c-4.1-2.1-8.8-1.6-13.3-1.9c-5.7-0.4-11.5-0.9-17.2-1.5C563.5,1033.2,563.5,1037.8,566.4,1038.2L566.4,1038.2z"/>
	</g>
	<g>
		<path class="st7" d="M567,1014c5.6,0.8,11.2,1.6,16.8,1.9c4.7,0.2,10.5,1.5,14.6-1.3c0.6-0.4,0.7-1.4,0-1.8
			c-3.9-2.4-8.9-1.2-13.4-1.4c-5.9-0.2-11.7-0.6-17.5-1.3C565.3,1009.7,564.8,1013.6,567,1014L567,1014z"/>
	</g>
	<g>
		<path class="st7" d="M569.7,984.5c10.3,2.6,23.6,5.7,34.2,3.4c1.7-0.4,1.7-3.1,0-3.5c-4.8-1-9.7-0.7-14.6-1.1
			c-6.2-0.5-12.4-1.5-18.4-2.9C568.2,979.8,567.1,983.8,569.7,984.5L569.7,984.5z"/>
	</g>
	<g>
		<path class="st7" d="M573,961.9c5.5,0.9,11,1.7,16.6,2.2c4.8,0.4,10,1.5,14.5-0.6c0.9-0.4,0.9-1.9,0-2.3c-3.8-1.9-8-1.4-12.2-1.6
			c-5.9-0.4-11.8-1-17.7-1.9C571.4,957.3,570.2,961.4,573,961.9L573,961.9z"/>
	</g>
	<g>
		<path class="st7" d="M576.3,935.4c10.6,2.5,21.2,5.7,32,7c2.2,0.3,2.3-3,0.5-3.6c-10.1-3.6-20.9-5.3-31.3-7.7
			C574.7,930.4,573.5,934.7,576.3,935.4L576.3,935.4z"/>
	</g>
	<g>
		<path class="st7" d="M583.5,908.9c10.8,2,22.1,5,33.1,5.7c2.4,0.1,2.8-3.4,0.6-4.1c-10.4-3-21.8-3.9-32.6-5.5
			C582.1,904.5,580.9,908.4,583.5,908.9L583.5,908.9z"/>
	</g>
	<g>
		<path class="st7" d="M585.8,884.9c9.6,2.5,21.4,6.2,31.4,5.1c2-0.2,2.7-3.1,0.5-3.7c-9.8-2.9-20.8-2.9-30.8-5.3
			C584.3,880.4,583.3,884.3,585.8,884.9L585.8,884.9z"/>
	</g>
	<g>
		<path class="st7" d="M592.9,859.3c5.3,0.5,10.5,1,15.8,1.5c4.6,0.4,9.4,1.5,13.9,0.4c1.1-0.3,1.5-2.1,0.3-2.6
			c-4.1-1.8-8.7-1.7-13.1-2.1c-5.6-0.5-11.3-0.9-16.9-1.4C590.2,854.9,590.3,859.1,592.9,859.3L592.9,859.3z"/>
	</g>
	<g>
		<path class="st7" d="M597.3,834.7c9.4,0.3,19.3,2.2,28.7,1.6c2.1-0.1,2.7-3.2,0.5-3.8c-9.2-2.5-19.8-2.1-29.2-2.4
			C594.4,829.9,594.4,834.6,597.3,834.7L597.3,834.7z"/>
	</g>
	<g>
		<path class="st7" d="M602.9,812.4c9.4,0.4,20.4,2.3,29.7,0.4c1.5-0.3,1.4-2.6,0-3c-9.1-2.6-20.2-1.4-29.7-1.8
			C600.1,808,600.1,812.3,602.9,812.4L602.9,812.4z"/>
	</g>
	<g>
		<path class="st7" d="M602.3,790c5.4,0.3,10.8,0.5,16.2,0.6c4.3,0,8.7,0.6,12.6-1.3c0.9-0.4,1-2.1,0-2.5c-4-1.7-8.3-1-12.6-1
			c-5.4,0-10.8-0.2-16.2-0.5C599.3,785.1,599.3,789.8,602.3,790L602.3,790z"/>
	</g>
	<g>
		<path class="st7" d="M602.3,762.4c9.9,0.3,19.9,1,29.8,0.9c3.1,0,3-4.6,0-4.8c-9.9-0.7-19.9-0.6-29.8-0.9
			C599.3,757.6,599.3,762.3,602.3,762.4L602.3,762.4z"/>
	</g>
	<g>
		<path class="st7" d="M606.7,739.2c5.2-0.3,10.5-0.5,15.7-0.6c4.7,0,9.5,0.5,14-0.5c2-0.4,1.8-3.3,0-3.8c-9-2.5-20.5-0.6-29.8-0.1
			C603.6,734.5,603.5,739.4,606.7,739.2L606.7,739.2z"/>
	</g>
	<g>
		<path class="st7" d="M607.3,714.1c5.6,0,11.2,0.1,16.9,0.1c4.5,0,9,0.8,13.1-1c1-0.4,1-2.1,0-2.5c-4.1-1.8-8.7-1.1-13.1-1
			c-5.6,0-11.2,0.1-16.9,0.1C604.5,709.8,604.5,714.1,607.3,714.1L607.3,714.1z"/>
	</g>
	<g>
		<path class="st7" d="M604,695.8c10.5-0.6,21-1,31.4-2.1c2.8-0.3,3-4.6,0-4.5c-10.5,0.4-21,1.6-31.4,2.6
			C601.4,691.9,601.3,696,604,695.8L604,695.8z"/>
	</g>
	<g>
		<path class="st7" d="M605.1,670.7c5.2-0.6,10.4-1.2,15.6-1.8c4.2-0.5,8.5-0.4,12.3-2.2c1.3-0.6,1-2.9-0.4-3.2
			c-4.2-0.9-8.7,0.3-13,0.8c-4.9,0.6-9.7,1.2-14.6,1.7C602.1,666.4,602.1,671,605.1,670.7L605.1,670.7z"/>
	</g>
	<g>
		<path class="st7" d="M604,642.6c9.6-0.6,19.1-1,28.7-1.8c2.9-0.2,3-4.8,0-4.7c-9.6,0.5-19.1,1.3-28.7,1.9
			C601.1,638.2,601,642.8,604,642.6L604,642.6z"/>
	</g>
	<g>
		<path class="st7" d="M600.6,620.4c4.5-0.1,8.9-0.2,13.4-0.4c3.9-0.1,8.1,0.3,11.9-0.9c1.6-0.5,1.7-2.9,0-3.3
			c-3.8-1-8-0.4-11.9-0.2c-4.5,0.1-8.9,0.3-13.4,0.4C597.8,616,597.8,620.5,600.6,620.4L600.6,620.4z"/>
	</g>
	<g>
		<path class="st7" d="M597.3,591.9c7.7,1,15.9,2.1,23.7,1.5c2.9-0.2,2.8-4.1,0-4.4c-7.9-0.9-15.8-0.9-23.7-1.9
			C594.3,586.7,594.3,591.5,597.3,591.9L597.3,591.9z"/>
	</g>
	<g>
		<path class="st7" d="M593.4,565.1c8.7,2.3,19.7,5.3,28.7,3.6c1.9-0.4,1.8-3.3,0-3.8c-4-1.1-8.3-1-12.4-1.5
			c-5.1-0.6-10.1-1.6-15-2.8C591.8,559.9,590.6,564.3,593.4,565.1L593.4,565.1z"/>
	</g>
	<g>
		<path class="st7" d="M220.2,1241.5c22.8-4,45.5-7.9,68.1-12.8c10.6-2.3,21.2-4.7,31.7-7.4c10.3-2.7,22.1-4.6,31.4-10
			c1.3-0.8,0.8-3.1-0.8-3c-10.2,0.9-20.1,5.2-29.9,7.8c-11.1,3-22.3,5.7-33.6,8.3c-22.5,5.1-45.1,9.6-67.8,14
			C217.3,1238.8,218.1,1241.9,220.2,1241.5L220.2,1241.5z"/>
	</g>
	<g>
		<path class="st8" d="M349.7,1263.1c69.1,10.2,138.6,14.7,208.4,13c3.1-0.1,3.1-4.9,0-4.8c-69.3,2.1-138.9-1.6-207.6-11.2
			C348.5,1259.8,347.7,1262.8,349.7,1263.1L349.7,1263.1z"/>
	</g>
	<g>
		<path class="st8" d="M432.6,1271.7c3,60.9,7.6,122.3,14.4,182.9c1.3,11.2,1.9,24.8,6.9,35.1c4.1,8.3,14.3,12.2,22.2,15.7
			c13.1,5.9,27,10.5,38.2,19.9c10.6,8.9,17.9,20.8,21.9,33.9c1,3.4,6.3,1.9,5.3-1.5c-6.1-20.5-19.7-36.6-38.7-46.4
			c-11.6-6-24.4-9.8-35.6-16.5c-13.8-8.2-13.6-29.9-15.1-44.3c-6.3-59.6-9.6-119.4-16.9-178.9C435,1270.1,432.6,1270,432.6,1271.7
			L432.6,1271.7z"/>
	</g>
	<g>
		<g>
			<g>
				<path class="st9" d="M269.2,607.3c-2.8,2.6-5.7,5.2-8.5,7.8c-2.5,2.3-5.6,4.8-7.4,7.8c-0.8,1.4,0.8,2.8,2.2,2.2
					c3.1-1.5,5.8-4.5,8.3-6.8c2.8-2.6,5.6-5.3,8.4-7.9C274.3,608.5,271.2,605.5,269.2,607.3L269.2,607.3z"/>
			</g>
			<g>
				<path class="st9" d="M204.9,612.7c1.9,2.3,3.8,4.5,5.7,6.8c1.7,2,3.5,4.8,5.9,6c1.5,0.7,3.4-0.5,2.9-2.2c-0.8-2.6-3.2-4.8-5-6.8
					c-2-2.4-4.1-4.7-6.1-7.1C206.3,607,203,610.3,204.9,612.7L204.9,612.7z"/>
			</g>
			<g>
				<path class="st9" d="M185.8,656.4c4.2-1.5,8.8-2.5,12.7-4.7c1.3-0.7,0.6-2.4-0.7-2.5c-4.5-0.5-9,1.1-13.3,2.6
					C181.6,652.8,182.9,657.5,185.8,656.4L185.8,656.4z"/>
			</g>
			<g>
				<path class="st9" d="M216.7,676.6c0.5,6.3,0.8,13.5,4,19c0.9,1.5,3,0.7,3.1-0.8c0.4-6-1.4-12.2-1.7-18.2
					C221.8,673.2,216.4,673.2,216.7,676.6L216.7,676.6z"/>
			</g>
			<g>
				<path class="st9" d="M255.2,655.6c1.9,1.6,3.7,3.3,5.6,4.9c1.6,1.5,3.3,3.5,5.5,4.1c1.8,0.5,2.8-1.4,2.2-2.8
					c-0.8-1.9-3.2-3.4-4.7-4.8c-1.7-1.6-3.5-3.1-5.2-4.7C256.3,650.4,253,653.7,255.2,655.6L255.2,655.6z"/>
			</g>
			<g>
				<path class="st9" d="M275.8,693.7c-2.2,3.7-5.2,7.6-6.4,11.7c-0.5,1.8,1.8,3,3,1.8c1.6-1.5,2.6-3.5,3.7-5.3
					c1.2-1.9,2.4-3.9,3.6-5.8C281.3,693.5,277.3,691.1,275.8,693.7L275.8,693.7z"/>
			</g>
			<g>
				<path class="st9" d="M267.4,748.3c1.9,1.8,3.8,3.6,5.6,5.4c1.6,1.6,3.3,3.7,5.5,4.4c1.1,0.4,2.3-0.8,1.9-1.9
					c-0.8-2.2-2.9-3.8-4.4-5.5c-1.8-1.9-3.6-3.8-5.4-5.6C268.6,743,265.3,746.3,267.4,748.3L267.4,748.3z"/>
			</g>
			<g>
				<path class="st9" d="M267.4,795.3c7.5-1.5,15.8-2.4,22.9-5.4c1.4-0.6,1.4-2.8-0.4-2.8c-7.9,0-16,2.4-23.7,3.9
					C263.4,791.5,264.6,795.8,267.4,795.3L267.4,795.3z"/>
			</g>
			<g>
				<path class="st9" d="M286.5,819.1c2.1,6.9,5.1,15.8,10.7,20.7c1.3,1.1,3.7,0.1,3-1.8c-1.2-3.2-3.1-6.1-4.6-9.2
					c-1.8-3.6-3.2-7.3-4.4-11.1C290.4,814.7,285.6,816,286.5,819.1L286.5,819.1z"/>
			</g>
			<g>
				<path class="st9" d="M269.5,853.7c-1.2,3.1-2.4,6.2-3.7,9.2c-1.1,2.6-2.5,5.3-3,8c-0.3,1.6,1.7,3.2,2.9,1.7
					c4.1-4.6,6.1-12,8.3-17.7C275.1,852.2,270.6,850.9,269.5,853.7L269.5,853.7z"/>
			</g>
			<g>
				<path class="st9" d="M288.8,876.8c5.2,1.2,11.2,3.4,16.6,3c1.2-0.1,1.8-1.7,0.6-2.4c-4.6-2.7-10.9-3.5-16.1-4.8
					C287.3,872.1,286.2,876.2,288.8,876.8L288.8,876.8z"/>
			</g>
			<g>
				<path class="st9" d="M288.4,901.8c1,5.2,1.4,11.2,3.9,16c0.5,0.8,2,0.7,2.2-0.3c0.9-5.5-0.8-11.5-1.7-16.9
					C292.4,897.7,287.8,898.9,288.4,901.8L288.4,901.8z"/>
			</g>
			<g>
				<path class="st9" d="M220.9,726.4c-6.2,3.6-14.1,8-18.1,14.2c-0.9,1.3,0.8,2.5,2,2c3.2-1.5,6.3-4,9.2-6.1c3-2.1,6.1-4.1,9.3-6
					C225.8,729,223.5,724.9,220.9,726.4L220.9,726.4z"/>
			</g>
			<g>
				<path class="st9" d="M174.9,699.5c-1.8,2.2-3.7,4.3-5.5,6.5c-1.6,1.9-3.8,4.1-4.8,6.4c-0.5,1.2,0.6,2.8,1.9,1.9
					c2.1-1.3,3.9-3.7,5.6-5.6c1.9-2.1,3.7-4.3,5.5-6.4C179.2,700.4,176.5,697.6,174.9,699.5L174.9,699.5z"/>
			</g>
			<g>
				<path class="st9" d="M145.4,740.1c1.9,0.2,3.8,0.4,5.6,0.6c1.8,0.2,3.6,0.5,5.3,0c1.4-0.4,1.8-2.5,0.4-3.2
					c-1.6-0.9-3.5-0.9-5.3-1.1c-2-0.2-4-0.4-6-0.7C142.5,735.4,142.5,739.8,145.4,740.1L145.4,740.1z"/>
			</g>
			<g>
				<path class="st9" d="M158.2,771.6c-0.2,6.6-1,13.7,0.8,20.2c0.3,1.2,1.9,1.1,2.3,0c2.2-6.4,1.7-13.5,1.9-20.2
					C163.4,768.3,158.3,768.3,158.2,771.6L158.2,771.6z"/>
			</g>
			<g>
				<path class="st9" d="M195,780.2c5.9,0.5,13.6,1.8,19.3-0.1c1.8-0.6,1.9-3.2,0-3.8c-3-0.8-6.1-0.5-9.2-0.6
					c-3.4-0.1-6.7-0.3-10.1-0.6C191.8,774.8,191.8,779.9,195,780.2L195,780.2z"/>
			</g>
			<g>
				<path class="st9" d="M211.4,810.6c-1.4,7.5-3.9,15.6-3.4,23.3c0.1,1.2,2,2,2.6,0.7c3.2-7,4-15.2,5.4-22.7
					C216.5,808.9,212,807.7,211.4,810.6L211.4,810.6z"/>
			</g>
			<g>
				<path class="st9" d="M187.8,833.5c-2.6,0.7-5.1,1.6-7.6,2.5c-2.1,0.8-4.4,1.5-6.1,3c-0.9,0.8-0.2,2.5,1,2.4
					c2.3-0.1,4.5-1.1,6.6-1.7c2.4-0.7,4.8-1.4,7.2-2C191.7,837,190.5,832.7,187.8,833.5L187.8,833.5z"/>
			</g>
			<g>
				<path class="st9" d="M110.4,806.9c4.3,5.6,8.6,11.4,13.6,16.4c1.1,1.1,2.9-0.3,2.1-1.7c-3.5-6-7.8-11.5-12-17
					C112.5,802.5,108.7,804.6,110.4,806.9L110.4,806.9z"/>
			</g>
			<g>
				<path class="st9" d="M97.8,879.2c1.5-0.8,2.9-1.7,4.4-2.5c1.5-0.9,2.7-1.9,4.1-3c1.2-0.8,0.5-3.2-1.1-2.6
					c-1.6,0.7-3.2,1.1-4.7,2c-1.6,0.9-3.1,1.8-4.7,2.6C93.6,877.1,95.6,880.5,97.8,879.2L97.8,879.2z"/>
			</g>
			<g>
				<path class="st9" d="M143.9,875.9c2.1,8.7,2.3,18.4,5.5,26.7c0.3,0.9,1.7,1,1.9,0c2-8.9-0.9-19.3-3.2-27.9
					C147.3,872.1,143.2,873.2,143.9,875.9L143.9,875.9z"/>
			</g>
			<g>
				<path class="st9" d="M198.9,888.1c1.9-1,3.8-2,5.6-3.1c1.6-1,3.3-1.9,4.4-3.4c0.7-1-0.5-2.1-1.5-1.9c-1.7,0.3-3.3,1.4-4.9,2.1
					c-1.8,0.9-3.6,1.7-5.4,2.5C194.5,885.5,196.1,889.5,198.9,888.1L198.9,888.1z"/>
			</g>
			<g>
				<path class="st9" d="M202,915.6c2.8,7.1,5.3,15.5,10.4,21.3c0.9,1.1,2.5-0.1,2.2-1.3c-1.5-7.4-6.3-14.5-9.5-21.3
					C204.3,912.6,201.3,913.8,202,915.6L202,915.6z"/>
			</g>
			<g>
				<path class="st9" d="M194.6,953.6c-1.5,2.4-3,4.8-4.5,7.3c-1.3,2.2-2.8,4.7-3.4,7.2c-0.3,1.5,1.4,2.4,2.5,1.5
					c2-1.6,3.5-4.1,4.9-6.3c1.6-2.4,3-4.8,4.6-7.3C200.5,953.4,196.3,950.9,194.6,953.6L194.6,953.6z"/>
			</g>
			<g>
				<path class="st9" d="M131.5,935.3c-4.4,0.9-9.9,1.5-13.9,3.9c-1,0.6-0.9,2.5,0.3,2.6c4.7,0.7,10.2-0.9,14.8-1.8
					C135.9,939.5,134.6,934.6,131.5,935.3L131.5,935.3z"/>
			</g>
			<g>
				<path class="st9" d="M65.4,933.2c7.7-2,16.1-3.5,23.3-7.1c1.3-0.6,0.7-2.8-0.7-2.7c-8,0.4-16.1,3.2-23.8,5.2
					C61.1,929.4,62.4,934,65.4,933.2L65.4,933.2z"/>
			</g>
			<g>
				<path class="st9" d="M275.9,958.1c0.7,8,1.5,17.4,5.5,24.5c0.6,1.1,2.6,0.7,2.5-0.7c-0.6-8-3.2-15.8-3.9-23.8
					C279.8,955.4,275.7,955.4,275.9,958.1L275.9,958.1z"/>
			</g>
			<g>
				<path class="st9" d="M289.4,1008.6c2.9-0.7,5.7-1.4,8.6-2.1c2.6-0.6,5.3-1,7.7-2.2c1.4-0.7,0.7-3-0.8-3c-2.7,0-5.3,0.9-7.9,1.5
					c-2.9,0.7-5.8,1.4-8.6,2C285.9,1005.5,287,1009.2,289.4,1008.6L289.4,1008.6z"/>
			</g>
			<g>
				<path class="st9" d="M316.6,950.6c-2.7,2.1-5.4,4.3-7.9,6.7c-2,1.9-5,4.4-5.6,7.1c-0.2,0.9,0.6,1.8,1.5,1.5
					c2.7-0.8,5.1-3.7,7.2-5.6c2.5-2.4,5.1-4.7,7.8-6.9C321.6,951.8,318.7,949,316.6,950.6L316.6,950.6z"/>
			</g>
			<g>
				<path class="st9" d="M258.3,1003.4c-2.1,1.1-4.3,2.1-6.5,3.3c-1.9,1-4.2,2.2-5.6,3.8c-0.8,1-0.4,2.8,1.1,2.8
					c2.2-0.1,4.5-1.2,6.5-2.2c2.3-1.1,4.6-2.3,6.9-3.5C263.6,1006.2,261.1,1002,258.3,1003.4L258.3,1003.4z"/>
			</g>
			<g>
				<path class="st9" d="M233,910c5.3,3.8,12.1,8.5,18.9,8.9c1.7,0.1,1.9-2,0.8-2.9c-2.6-2-5.9-3.3-8.7-4.8
					c-2.9-1.6-5.8-3.4-8.5-5.3C232.9,904,230.5,908.2,233,910L233,910z"/>
			</g>
			<g>
				<path class="st9" d="M212.1,983.3c7.4,4.5,14.4,9.8,22.1,13.9c1.2,0.6,2.2-0.8,1.4-1.8c-5.9-6.7-13.5-11.6-21-16.3
					C211.9,977.4,209.4,981.7,212.1,983.3L212.1,983.3z"/>
			</g>
			<g>
				<path class="st9" d="M189.6,1017c-3.4,6.9-8.2,14.3-9.9,21.8c-0.3,1.4,1.5,2.7,2.5,1.5c5-5.8,8.1-14,11.6-20.8
					C195.2,1016.6,191,1014.2,189.6,1017L189.6,1017z"/>
			</g>
			<g>
				<path class="st9" d="M124.3,1004.5c8.5,1.9,16.8,4.1,25.5,4.9c2,0.2,2.1-2.7,0.4-3.3c-8-2.9-16.3-4.5-24.6-6.3
					C122.6,999,121.3,1003.8,124.3,1004.5L124.3,1004.5z"/>
			</g>
			<g>
				<path class="st9" d="M147.2,962c1.2,7.8,2,18.2,6.7,24.8c0.7,1,2.2,0.6,2.2-0.6c0.5-8.2-3.1-17.4-4.6-25.4
					C151,957.9,146.7,959.2,147.2,962L147.2,962z"/>
			</g>
			<g>
				<path class="st9" d="M68.7,990.4c6-2.8,13.2-5.7,17.9-10.6c0.8-0.8,0-2.2-1.1-1.9c-6.4,1.8-12.4,5.8-18.5,8.2
					C63.8,987.4,65.6,991.9,68.7,990.4L68.7,990.4z"/>
			</g>
			<g>
				<path class="st9" d="M36.6,1008.3c0.5,7,0.1,15.3,2.5,21.9c0.5,1.3,2.6,1.6,3,0c1.4-6.9-0.2-14.9-0.7-21.9
					C41.1,1005.3,36.4,1005.3,36.6,1008.3L36.6,1008.3z"/>
			</g>
			<g>
				<path class="st9" d="M90.1,1024.8c-0.9,6.5-3.6,12.9-4.1,19.4c-0.1,1.7,2,1.8,2.8,0.8c3.8-5.1,4.9-12.8,5.9-18.9
					C95.2,1023,90.5,1021.7,90.1,1024.8L90.1,1024.8z"/>
			</g>
			<g>
				<path class="st9" d="M28.9,1084.8c9.1-1,18.5-0.4,27.5-1.9c1.7-0.3,1.6-3,0-3.4c-8.8-1.9-18.6-0.6-27.5,0.3
					C25.8,1080.1,25.7,1085.1,28.9,1084.8L28.9,1084.8z"/>
			</g>
			<g>
				<path class="st9" d="M86.3,1072.7c4.7,8.2,8.8,17.6,15.1,24.8c0.9,1,2.4-0.1,2.1-1.2c-2.2-9.3-8.1-17.9-12.9-26
					C88.9,1067.6,84.7,1070,86.3,1072.7L86.3,1072.7z"/>
			</g>
			<g>
				<path class="st9" d="M145.7,1052.4c2.9,8.5,5.7,17.5,10.9,24.8c0.6,0.9,2,0.4,1.7-0.7c-1.9-8.6-5.8-16.8-8.6-25.2
					C148.9,1048.8,144.9,1049.9,145.7,1052.4L145.7,1052.4z"/>
			</g>
			<g>
				<path class="st9" d="M194.5,1077.7c6.2-1.3,13.2-1.9,18.9-4.6c1.4-0.7,0.6-2.7-0.7-2.7c-6.3-0.3-13.2,2-19.3,3.3
					C190.7,1074.1,191.8,1078.2,194.5,1077.7L194.5,1077.7z"/>
			</g>
			<g>
				<path class="st9" d="M236.5,1061.4c3.9,8.2,8.6,15.9,15.8,21.5c1.2,0.9,2.7-0.8,2-2c-4.6-7.3-9.9-14.1-13.6-21.9
					C239.3,1056.2,235.2,1058.6,236.5,1061.4L236.5,1061.4z"/>
			</g>
			<g>
				<path class="st9" d="M246.7,1114.8c0,5.6-0.9,12.1,0.7,17.6c0.5,1.6,2.8,1.6,3.3,0c1.7-5.4,0.8-12,0.7-17.6
					C251.5,1111.7,246.7,1111.7,246.7,1114.8L246.7,1114.8z"/>
			</g>
			<g>
				<path class="st9" d="M154.1,1128.7c2.8,0.5,5.5,0.9,8.3,1.1c2.7,0.2,5.7,0.6,8.3-0.3c1.8-0.7,2-3.2,0-3.8
					c-2.3-0.7-4.7-0.4-7.1-0.5c-2.8-0.2-5.5-0.5-8.2-1C152.4,1123.5,151.1,1128.2,154.1,1128.7L154.1,1128.7z"/>
			</g>
			<g>
				<path class="st9" d="M187.3,1112.1c5.2,1.8,10.3,3.8,15.6,4.8c1.7,0.3,2.9-2,1.2-2.9c-4.9-2.7-10.4-4.4-15.6-6.4
					C185.7,1106.6,184.4,1111.1,187.3,1112.1L187.3,1112.1z"/>
			</g>
			<g>
				<path class="st9" d="M52.2,1111.9c-4,7.4-9.1,15.6-10.6,23.9c-0.3,1.9,1.8,2.7,2.9,1.2c5-6.6,8.1-15.3,12-22.6
					C58.2,1111.6,53.8,1109,52.2,1111.9L52.2,1111.9z"/>
			</g>
			<g>
				<path class="st9" d="M62,1152.1c8.2,2.4,17.8,4.3,26.3,2.3c1.2-0.3,1.4-2.4,0-2.6c-8.5-1.4-16.8-1.6-25.1-4
					C60.5,1146.9,59.2,1151.3,62,1152.1L62,1152.1z"/>
			</g>
			<g>
				<path class="st9" d="M107.6,1133c2.8,5.9,6.5,13.6,12.2,17.3c1.1,0.7,2.8-0.5,2.3-1.8c-1.2-3-3.4-5.7-5.2-8.5
					c-2-3-3.7-6.2-5.3-9.4C110.3,1128,106.3,1130.4,107.6,1133L107.6,1133z"/>
			</g>
			<g>
				<path class="st9" d="M78.2,1188.8c-0.5,5.7-2,12.3-0.6,18c0.3,1,2,1.4,2.5,0.3c2.3-5.5,2-12.4,2.4-18.3
					C82.7,1186,78.5,1186.1,78.2,1188.8L78.2,1188.8z"/>
			</g>
			<g>
				<path class="st9" d="M127.6,1216.4c5,3.9,10.5,8.7,16.8,10c1.2,0.3,2-1.1,1.2-2.1c-3.9-4.6-9.7-7.7-14.4-11.6
					C128.7,1210.8,125.1,1214.5,127.6,1216.4L127.6,1216.4z"/>
			</g>
			<g>
				<path class="st9" d="M152.6,1180.2c2.2-1.6,4.3-3.2,6.4-4.9c2-1.6,4.5-3,5.8-5.2c0.7-1.1-0.4-2.4-1.6-2.1
					c-2.3,0.5-4.4,2.4-6.4,3.7c-2.2,1.5-4.4,3-6.5,4.5C147.8,1178,150.2,1182,152.6,1180.2L152.6,1180.2z"/>
			</g>
			<g>
				<path class="st9" d="M217.5,1158c2.4,6.9,6,15.6,12.5,19.5c1,0.6,2.8-0.4,2.2-1.7c-1.2-3.1-3.3-5.8-5-8.7
					c-1.9-3.4-3.6-6.8-4.8-10.5C221.4,1153.5,216.4,1154.8,217.5,1158L217.5,1158z"/>
			</g>
			<g>
				<path class="st9" d="M234.6,1195.8c-2.2,2.6-4.4,5.2-6.4,7.8c-1.8,2.3-4.2,4.8-4.9,7.7c-0.4,1.7,1.4,3.2,3,2.3
					c2.5-1.5,4.2-4.5,6-6.7c2-2.5,4-5,6.1-7.4C240.5,1197,236.8,1193.3,234.6,1195.8L234.6,1195.8z"/>
			</g>
			<g>
				<path class="st9" d="M261.2,1180.7c3.1,0.6,6.1,1.2,9.2,1.8c2.8,0.5,5.7,1.3,8.5,1.1c1.6-0.1,2.6-2.5,0.9-3.3
					c-5.1-2.5-11.8-3.1-17.4-4.2C259.4,1175.4,258.1,1180.1,261.2,1180.7L261.2,1180.7z"/>
			</g>
			<g>
				<path class="st9" d="M234,1261.6c5.9,4.3,13.2,10.1,20.5,11.5c1.7,0.3,3.5-1.9,1.9-3.2c-2.8-2.4-6.4-4-9.6-5.9
					c-3.5-2.1-6.9-4.4-10.2-6.8C234,1255.3,231.4,1259.7,234,1261.6L234,1261.6z"/>
			</g>
			<g>
				<path class="st9" d="M290.2,1253.9c-3.3,5.5-6.7,11-9.4,16.8c-0.9,2,1.6,3.4,2.9,1.7c3.9-5.2,7.1-10.7,10.4-16.3
					C295.6,1253.6,291.7,1251.4,290.2,1253.9L290.2,1253.9z"/>
			</g>
			<g>
				<path class="st9" d="M264.5,1305.2c5.8,1.4,12.3,4,18.3,3.8c1.6,0,2.3-2.3,0.9-3.1c-5.3-2.9-12.1-3.8-17.9-5.2
					C262.8,1299.9,261.6,1304.4,264.5,1305.2L264.5,1305.2z"/>
			</g>
			<g>
				<path class="st9" d="M209.4,1299.2c2.3,2.3,4.8,4.5,7.4,6.5c2.2,1.8,4.8,3.9,7.6,4.7c1.4,0.4,3-1.3,2-2.6
					c-1.7-2.3-4.4-3.9-6.6-5.7c-2.4-2-4.7-4.1-6.9-6.2C210.6,1293.6,207.2,1297,209.4,1299.2L209.4,1299.2z"/>
			</g>
			<g>
				<path class="st9" d="M194.5,1355.7c7.6-3.6,15.1-7.1,22.3-11.6c1.4-0.9,0.5-3.3-1.1-2.7c-8.2,2.8-15.7,6.5-23.5,10.3
					C189.4,1352.9,191.8,1356.9,194.5,1355.7L194.5,1355.7z"/>
			</g>
			<g>
				<path class="st9" d="M243.6,1331.1c0.2,7.9-1.2,16.9,0.6,24.7c0.4,1.6,2.5,1.3,2.9,0c2.7-7.4,1.7-16.9,1.5-24.7
					C248.5,1327.9,243.5,1327.9,243.6,1331.1L243.6,1331.1z"/>
			</g>
			<g>
				<path class="st9" d="M277.9,1353.9c2.8-0.8,5.5-1.6,8.3-2.4c2.5-0.7,5.3-1.2,7.5-2.6c1.6-1,1-3.5-1-3.5
					c-2.6-0.1-5.3,0.9-7.8,1.6c-2.8,0.7-5.6,1.5-8.4,2.2C273.5,1349.9,274.8,1354.8,277.9,1353.9L277.9,1353.9z"/>
			</g>
			<g>
				<path class="st9" d="M280.5,1389.1c1.8,2.3,3.4,4.7,4.9,7.2c1.3,2.2,2.3,4.6,4,6.5c0.8,0.9,2.4,0.2,2.4-1c0-2.8-1.4-5.8-2.6-8.3
					c-1.4-2.8-3.2-5.4-5.2-7.8C282,1383.2,278.6,1386.7,280.5,1389.1L280.5,1389.1z"/>
			</g>
			<g>
				<path class="st9" d="M210.4,1385.4c-2.7,1.9-5.4,3.8-8,5.7c-2.3,1.6-4.8,3.4-6.5,5.6c-0.9,1.2,0.6,2.8,1.9,2.4
					c2.6-0.8,5.2-2.7,7.4-4.3c2.5-1.8,5.1-3.5,7.6-5.3C215.3,1387.8,212.9,1383.6,210.4,1385.4L210.4,1385.4z"/>
			</g>
			<g>
				<path class="st9" d="M232.9,1405.1c0.4,5.6,0.7,11,1.8,16.5c0.4,2.1,3.5,1.5,3.6-0.5c0.3-5.4-0.1-10.6-0.5-16
					C237.6,1401.9,232.7,1401.9,232.9,1405.1L232.9,1405.1z"/>
			</g>
			<g>
				<path class="st9" d="M185.2,1445.8c5.6-2.4,11.8-3.5,17.2-6.2c1.4-0.7,0.6-2.6-0.7-2.7c-6.4-0.7-13.2,2.2-18.9,4.7
					C179.9,1442.8,182.3,1447.1,185.2,1445.8L185.2,1445.8z"/>
			</g>
			<g>
				<path class="st9" d="M265,1430.9c4.8,3.5,10.6,7.8,16.7,8.5c1.1,0.1,1.5-1.4,0.9-2.1c-4.1-4.3-10.3-7-15.1-10.5
					C264.9,1425,262.5,1429.1,265,1430.9L265,1430.9z"/>
			</g>
			<g>
				<path class="st9" d="M230.1,1466c2.5,2,5,3.9,7.5,5.9c2.2,1.7,4.5,3.9,7.2,4.6c1.7,0.5,3.1-1.4,2.2-2.9c-1.3-2.4-4-4.1-6-5.8
					c-2.3-1.9-4.7-3.7-7-5.6C231.2,1460.1,227.4,1463.9,230.1,1466L230.1,1466z"/>
			</g>
			<g>
				<path class="st9" d="M272.6,1482.9c0.8,6.3,1.1,14.5,5.3,19.6c0.5,0.6,1.7,0.3,1.9-0.5c1.1-6.1-1.4-13.1-2-19.1
					C277.4,1479.6,272.2,1479.7,272.6,1482.9L272.6,1482.9z"/>
			</g>
			<g>
				<path class="st9" d="M172.3,1487.5c5.6,0.9,12.1,2.8,17.7,2.2c1.5-0.2,2.6-2.4,0.9-3.2c-5.2-2.4-11.7-2.8-17.3-3.7
					C170.5,1482.2,169.2,1487,172.3,1487.5L172.3,1487.5z"/>
			</g>
			<g>
				<path class="st9" d="M215.9,1498.8c-1,2.3-2.1,4.6-3.3,6.8c-1.1,2-2.8,3.9-3.2,6.1c-0.3,1.5,1.3,3.1,2.8,2.1
					c2-1.4,3.2-3.8,4.4-5.9c1.4-2.4,2.6-4.8,3.7-7.3C221.7,1497.5,217.2,1495.6,215.9,1498.8L215.9,1498.8z"/>
			</g>
			<g>
				<path class="st9" d="M234.1,1516.1c2.4,2.2,4.9,4.4,7.5,6.4c2.2,1.7,4.8,4.3,7.5,4.9c1.7,0.4,3.4-1.4,2.4-3.1
					c-1.5-2.4-4.4-4-6.7-5.7c-2.4-1.9-4.8-3.9-7.2-6C235.3,1510.4,231.7,1513.9,234.1,1516.1L234.1,1516.1z"/>
			</g>
			<g>
				<path class="st9" d="M189.3,1535.1c-3,2.9-6,5.8-9,8.8c-2.7,2.6-6,5.4-7.9,8.7c-1,1.7,1,3.6,2.7,2.7c3.4-1.8,6.2-5.1,8.9-7.7
					c3-2.9,6-5.8,9-8.7C195.4,1536.4,191.7,1532.7,189.3,1535.1L189.3,1535.1z"/>
			</g>
			<g>
				<path class="st9" d="M228.6,1547c1.3,1.3,2.4,2.7,3.5,4.2c0.9,1.3,1.9,2.5,3.1,3.5c0.9,0.7,2-0.3,2.1-1.2
					c0.4-3.8-2.7-7.4-5.1-10.1C229.9,1541.1,226.3,1544.7,228.6,1547L228.6,1547z"/>
			</g>
			<g>
				<path class="st9" d="M265.3,1546.1c2.5-0.9,5.1-1.6,7.5-2.6c2.3-1,5.1-1.9,7-3.4c1.2-0.9,0.9-3-0.8-3c-2.5,0-5.1,1-7.5,1.6
					c-2.5,0.6-5,1.6-7.5,2.5C260.7,1542.2,262.1,1547.2,265.3,1546.1L265.3,1546.1z"/>
			</g>
			<g>
				<path class="st9" d="M647.3,1522c-1.3,3.5-2.7,7.1-4,10.6c-1.2,3.2-2.8,6.4-3,9.9c-0.2,2.2,2.7,2.5,3.8,1c2-2.8,2.9-6.4,4.1-9.6
					c1.3-3.5,2.6-7.1,3.9-10.6C653.3,1520.3,648.5,1519,647.3,1522L647.3,1522z"/>
			</g>
			<g>
				<path class="st9" d="M683.6,1523.9c2.3,4,4.9,7.8,7.7,11.4c2.7,3.5,5.6,7.5,9.5,9.7c1.7,0.9,3.4-0.9,2.6-2.6
					c-1.9-3.6-5.1-6.4-7.6-9.6c-2.9-3.7-5.4-7.6-7.8-11.6C686.4,1518.4,681.9,1521,683.6,1523.9L683.6,1523.9z"/>
			</g>
			<g>
				<path class="st9" d="M752,1531.9c7.9-1.1,16.3-1.5,23.9-4.2c1.5-0.5,1.2-2.5-0.4-2.7c-7.8-0.7-15.8,0.8-23.5,1.7
					C748.7,1527,748.7,1532.3,752,1531.9L752,1531.9z"/>
			</g>
			<g>
				<path class="st9" d="M718.6,1481.5c-1.9,8.3-4.9,17.2-5.1,25.8c0,1.8,2.8,2.8,3.6,1c3.4-7.8,4.5-17.1,6.4-25.4
					C724.3,1479.6,719.3,1478.3,718.6,1481.5L718.6,1481.5z"/>
			</g>
			<g>
				<path class="st9" d="M648.5,1473.2c9.4,4.5,18.7,9.8,28.7,12.7c1.8,0.5,2.6-1.9,1.2-2.9c-8.5-5.8-18.2-9.7-27.5-14.1
					C648.2,1467.6,645.7,1471.9,648.5,1473.2L648.5,1473.2z"/>
			</g>
			<g>
				<path class="st9" d="M761.6,1491.5c7.3-2.1,15.4-3.6,22-7.5c1.2-0.7,0.7-2.7-0.7-2.6c-7.6,0.2-15.3,3.2-22.6,5.3
					C757.2,1487.6,758.5,1492.4,761.6,1491.5L761.6,1491.5z"/>
			</g>
			<g>
				<path class="st9" d="M741.1,1430.4c5.1,7.6,7.7,16.1,12.3,23.9c0.7,1.3,3,0.8,2.9-0.8c-0.5-9.1-6-18.3-10.9-25.6
					C743.6,1425.3,739.3,1427.7,741.1,1430.4L741.1,1430.4z"/>
			</g>
			<g>
				<path class="st9" d="M766.7,1383.7c-2.4,3.2-4.9,6.1-7.4,9.2c-2.2,2.6-4.9,5.2-6.5,8.2c-0.8,1.5,0.8,3.2,2.4,2.4
					c3.3-1.8,6.1-5.1,8.6-7.9c2.6-2.9,5-6.1,7.4-9.3C773.2,1383.6,768.7,1381.1,766.7,1383.7L766.7,1383.7z"/>
			</g>
			<g>
				<path class="st9" d="M690.7,1427c-1.8,10.1-4.7,20.5-4.5,30.8c0,1.8,2.3,1.9,2.9,0.4c3.8-9.4,4.8-19.9,6.7-29.8
					C696.4,1425.1,691.3,1423.6,690.7,1427L690.7,1427z"/>
			</g>
			<g>
				<path class="st9" d="M629.3,1424.1c7.7,3.3,16.3,7.5,24.8,7.4c1.4,0,2-2,0.7-2.7c-7.1-4.1-15.5-5.9-22.9-9.2
					C628.9,1418.2,626.2,1422.8,629.3,1424.1L629.3,1424.1z"/>
			</g>
			<g>
				<path class="st9" d="M707.1,1382c0.8,5.2,1.5,11.1,4.5,15.6c0.7,1.1,2.5,0.7,2.5-0.7c0.1-5.4-1.7-10.9-2.5-16.2
					C711.3,1377.7,706.7,1379,707.1,1382L707.1,1382z"/>
			</g>
			<g>
				<path class="st9" d="M645.3,1384.6c8.8-2.5,19.9-6.1,26.1-13.1c0.9-1,0-2.9-1.4-2.4c-8.9,2.9-16.9,8.1-26.1,10.7
					C640.9,1380.6,642.2,1385.5,645.3,1384.6L645.3,1384.6z"/>
			</g>
			<g>
				<path class="st9" d="M723.1,1321c0.9,9,1.7,19.3,6,27.4c0.8,1.5,3.5,0.9,3.3-0.9c-0.7-8.9-3.5-17.6-4.4-26.5
					C727.7,1317.9,722.8,1317.8,723.1,1321L723.1,1321z"/>
			</g>
			<g>
				<path class="st9" d="M622.9,1334.7c8,5.7,16.9,13,26.6,15.3c1.2,0.3,2.3-1.3,1.3-2.2c-7.4-6.9-17.4-11.2-25.6-17.1
					C622.8,1329,620.5,1333,622.9,1334.7L622.9,1334.7z"/>
			</g>
			<g>
				<path class="st9" d="M694,1323.5c-1.9,3.3-3.9,6.7-5.8,10c-1.6,2.7-3.6,5.6-3.6,8.9c0,0.9,1,1.4,1.8,1c2.8-1.5,4.4-4.7,6-7.4
					c2-3.3,3.9-6.7,5.9-10C699.8,1323.2,695.6,1320.7,694,1323.5L694,1323.5z"/>
			</g>
			<g>
				<path class="st9" d="M646.8,1293c2.5,7.3,7.4,16.4,15.1,19.1c1.1,0.4,2.2-1,1.5-2c-1.9-2.9-4.5-5.3-6.6-8
					c-2.4-3.1-4.2-6.6-5.5-10.3C650.3,1288.9,645.8,1290.1,646.8,1293L646.8,1293z"/>
			</g>
			<g>
				<path class="st9" d="M710.1,1278.1c6.3,0.4,13.5,1.8,19.7,0.6c2-0.4,1.7-3.2,0-3.8c-6-2-13.4-1.6-19.7-2
					C706.8,1272.7,706.8,1277.8,710.1,1278.1L710.1,1278.1z"/>
			</g>
			<g>
				<path class="st9" d="M675.2,1253.3c0.8,3.1,1.4,6.3,1.9,9.5c0.4,3.1,0.4,6.5,1.5,9.5c0.6,1.8,3.3,2,3.8,0
					c1.7-6.2-0.6-14.3-2.1-20.4C679.5,1248.6,674.4,1250,675.2,1253.3L675.2,1253.3z"/>
			</g>
			<g>
				<path class="st9" d="M715.6,1234.5c-5.5,5.2-11.2,10.3-15.9,16.4c-1,1.4,1,3.2,2.3,2.3c6.3-4.3,11.7-9.8,17.2-15
					C721.7,1235.9,718,1232.2,715.6,1234.5L715.6,1234.5z"/>
			</g>
			<g>
				<path class="st9" d="M608.5,1274.1c6-1.5,13.1-2.6,18.5-5.6c1.4-0.8,0.7-2.9-0.8-2.9c-6.2-0.2-13.1,2.3-19,3.7
					C604,1270.1,605.4,1274.9,608.5,1274.1L608.5,1274.1z"/>
			</g>
			<g>
				<path class="st9" d="M624.2,1218.5c4,5.9,8.8,14.3,15.2,17.8c1.4,0.8,2.7-0.7,2.1-2.1c-1.4-3.1-4-5.9-6.1-8.6
					c-2.5-3.1-4.8-6.3-7-9.6C626.6,1213.4,622.4,1215.9,624.2,1218.5L624.2,1218.5z"/>
			</g>
			<g>
				<path class="st9" d="M692.9,1194.9c-2.4,3-4.8,6-7,9.1c-2.1,2.9-4.8,6.2-5.7,9.7c-0.5,2,1.8,3.1,3.3,1.9c2.5-2,4.3-5.4,6.2-8
					c2.2-3.1,4.5-6.1,6.9-9.1C698.5,1196,695,1192.3,692.9,1194.9L692.9,1194.9z"/>
			</g>
			<g>
				<path class="st9" d="M642.8,1192.6c2.5,2.7,4.9,5.5,7.4,8.2c2.2,2.5,4.4,5.6,7.3,7.2c1.9,1.1,3.5-1,2.7-2.7
					c-1.3-3-4.3-5.7-6.5-8.1c-2.5-2.7-4.9-5.5-7.4-8.2C644.2,1186.5,640.6,1190.1,642.8,1192.6L642.8,1192.6z"/>
			</g>
			<g>
				<path class="st9" d="M830,1199.1c8.1,0.8,16,1.2,24,0.1c2.2-0.3,1.4-3.4-0.5-3.6c-7.8-0.6-15.7-0.6-23.5-1.3
					C826.9,1193.9,826.9,1198.8,830,1199.1L830,1199.1z"/>
			</g>
			<g>
				<path class="st9" d="M885.1,1198.2c-2.7,7.5-6.2,16.9-5.3,24.9c0.2,2.1,2.8,2.5,3.6,0.5c1.5-3.8,1.9-8.1,2.9-12.1
					c1-4.1,2.3-8,3.7-11.9C891.1,1196.5,886.2,1195.2,885.1,1198.2L885.1,1198.2z"/>
			</g>
			<g>
				<path class="st9" d="M903.4,1224.2c4,3.1,7.9,6.5,11.7,10c3.3,3.2,6.4,7.5,10.5,9.7c1.2,0.7,3.2-0.5,2.6-2
					c-1.8-4.5-6-8-9.5-11.3c-3.9-3.7-8-7.1-12.2-10.3C904.2,1218.5,901.1,1222.4,903.4,1224.2L903.4,1224.2z"/>
			</g>
			<g>
				<path class="st9" d="M962.4,1198.3c-1.9,3.4-3.8,6.9-5.7,10.3c-1.7,3.1-4.1,6.2-4.8,9.7c-0.4,2,1.9,3.5,3.5,2
					c2.6-2.5,4-6.1,5.7-9.2c1.9-3.4,3.8-6.9,5.7-10.3C968.4,1198,964,1195.5,962.4,1198.3L962.4,1198.3z"/>
			</g>
			<g>
				<path class="st9" d="M903,1173.2c4.3,2.2,8.6,4.6,12.7,7.3c4.1,2.6,7.9,5.7,12.4,7.6c1.1,0.5,2.8-0.6,1.9-1.9
					c-5.6-7.9-16-13-24.5-17.3C902.7,1167.5,900.2,1171.7,903,1173.2L903,1173.2z"/>
			</g>
			<g>
				<path class="st9" d="M936.8,1133.9c-3.7,1.5-7.4,2.9-11,4.4c-3.3,1.3-6.9,2.5-9.8,4.5c-1.2,0.9-1,3.5,0.9,3.2
					c7.2-0.8,14.6-4.7,21.3-7.3C941.1,1137.6,939.8,1132.7,936.8,1133.9L936.8,1133.9z"/>
			</g>
			<g>
				<path class="st9" d="M952.9,1157.5c4.1,6.8,9.1,15.8,16.1,20c1.5,0.9,2.8-0.8,2.2-2.2c-1.7-3.7-4.5-6.8-7-10.1
					c-2.4-3.3-4.7-6.8-6.9-10.3C955.7,1152.1,951.2,1154.6,952.9,1157.5L952.9,1157.5z"/>
			</g>
			<g>
				<path class="st9" d="M980.1,1143.2c4.9-1,10.5-0.8,15.2-2.5c1.4-0.5,1.4-2.4,0-2.9c-5-1.9-11.5-0.4-16.5,0.6
					C975.6,1139,976.9,1143.9,980.1,1143.2L980.1,1143.2z"/>
			</g>
			<g>
				<path class="st9" d="M973.3,1103.8c-2.8,2.4-5.7,5-8,7.9c-2,2.5-4.6,5.4-5.5,8.5c-0.4,1.3,1.3,2.9,2.5,2c2.6-2,4.6-5,6.8-7.4
					c2.5-2.6,4.9-5.2,7.7-7.5C979.3,1105.2,975.7,1101.7,973.3,1103.8L973.3,1103.8z"/>
			</g>
			<g>
				<path class="st9" d="M921,1092.5c2.7,3.2,5.1,6.6,7.2,10.2c1.8,3.1,3.1,6.7,5.5,9.4c1.1,1.2,3.5,0.3,3.3-1.4
					c-0.3-4-2.7-7.8-4.7-11.2c-2.2-3.8-4.9-7.3-7.7-10.6C922.5,1086.3,918.8,1090,921,1092.5L921,1092.5z"/>
			</g>
			<g>
				<path class="st9" d="M886.7,1130.7c6.4,1.3,13.8,3,20.3,1.6c1.8-0.4,1.5-2.8,0-3.4c-5.9-2-12.7-2.1-18.8-3.4
					C884.8,1124.8,883.3,1130,886.7,1130.7L886.7,1130.7z"/>
			</g>
			<g>
				<path class="st9" d="M613.2,1024.4c7.9,3.5,16.7,7.9,25.5,8.5c1.7,0.1,2.2-2.3,0.8-3.1c-7.3-4.2-16.1-6.3-23.8-9.8
					C612.8,1018.8,610.3,1023.1,613.2,1024.4L613.2,1024.4z"/>
			</g>
			<g>
				<path class="st9" d="M648.7,989.2c0.5,7,0.1,15.9,3.8,22.1c0.6,1,2.2,0.8,2.5-0.3c1.7-6.8-0.5-14.9-1-21.8
					C653.7,985.8,648.5,985.8,648.7,989.2L648.7,989.2z"/>
			</g>
			<g>
				<path class="st9" d="M694.8,965.2c-2.9,4.1-6.1,7.9-9.8,11.3c-3.4,3.1-7.6,5.6-10.6,9.2c-0.9,1.1-0.1,2.7,1.4,2.4
					c9.8-2,18.1-12.6,23.4-20.4C700.9,965,696.6,962.6,694.8,965.2L694.8,965.2z"/>
			</g>
			<g>
				<path class="st9" d="M669.2,1006.5c2.6,3.1,5.2,6.2,8,9.1c2.4,2.6,5.3,5.8,8.6,7.3c1.5,0.7,3-0.7,2.2-2.2
					c-1.7-3.2-4.7-6.1-7.2-8.7c-2.7-3-5.4-6-8-9.1C670.7,1000.3,667.2,1004,669.2,1006.5L669.2,1006.5z"/>
			</g>
			<g>
				<path class="st9" d="M647,925.6c3.4,6.5,9.5,15.9,17.2,17.6c1.1,0.3,2.2-1,1.5-2c-2-3-5.2-5.3-7.6-8c-2.7-3.1-5.1-6.4-7-10.1
					C649.7,920.3,645.5,922.8,647,925.6L647,925.6z"/>
			</g>
			<g>
				<path class="st9" d="M627,961.4c6.7-0.6,14.5-1,20.6-4.2c1.3-0.7,0.6-2.5-0.7-2.6c-6.5-0.5-13.4,1.4-19.9,1.9
					C623.9,956.9,623.9,961.7,627,961.4L627,961.4z"/>
			</g>
			<g>
				<path class="st9" d="M698.9,915.1c1.6,1.6,3.3,3,5,4.4c1.7,1.3,3.5,3,5.6,3.3c1.5,0.2,3.4-1.4,2.3-2.9c-1.2-1.7-3.1-2.7-4.7-3.9
					c-1.7-1.3-3.3-2.7-4.8-4.2C700,909.5,696.6,912.9,698.9,915.1L698.9,915.1z"/>
			</g>
			<g>
				<path class="st9" d="M739.7,916.3c-2.9,1.9-5.8,4-8.4,6.4c-2.2,2.1-5.3,4.8-6.1,7.8c-0.5,1.7,1.3,2.9,2.8,2.1
					c2.6-1.3,4.5-4.1,6.7-6c2.4-2.2,4.9-4.2,7.6-6C745,918.9,742.5,914.5,739.7,916.3L739.7,916.3z"/>
			</g>
			<g>
				<path class="st9" d="M663.9,863.1c2.2,3.7,4.4,7.4,6.5,11.1c2,3.3,3.7,7.1,6.6,9.7c1.4,1.2,3.5,0,3.1-1.8
					c-0.9-3.8-3.3-7.1-5.3-10.5c-2.2-3.7-4.4-7.4-6.6-11C666.6,857.7,662.3,860.3,663.9,863.1L663.9,863.1z"/>
			</g>
			<g>
				<path class="st9" d="M717.8,849.6c-4.1,3-8.3,5.9-12,9.5c-1.6,1.6,0.4,4,2.3,3c2.2-1.2,4.2-2.3,6.3-3.8c2-1.4,4-2.9,6-4.3
					C723.1,852.2,720.5,847.7,717.8,849.6L717.8,849.6z"/>
			</g>
			<g>
				<path class="st9" d="M639.4,891.6c2.9-0.7,5.7-1.2,8.7-1.5c2.3-0.2,4.7-0.2,6.7-1.5c0.5-0.4,0.8-1.3,0.2-1.7
					c-4.2-3.6-12.1-1.4-16.9-0.2C634.9,887.5,636.2,892.4,639.4,891.6L639.4,891.6z"/>
			</g>
			<g>
				<path class="st9" d="M663.5,803c0.4,3.2,0.8,6.4,1.4,9.6c0.6,3,1,6.6,2.9,9.1c1.2,1.5,3.3,1,3.5-1c0.3-2.7-0.8-5.5-1.3-8.2
					c-0.6-3.2-1.1-6.3-1.5-9.5C668.2,799.8,663.1,799.8,663.5,803L663.5,803z"/>
			</g>
			<g>
				<path class="st9" d="M721.9,802.7c-3.1,1-6.2,1.9-9.3,2.9c-2.6,0.8-5.7,1.4-7.5,3.5c-0.8,1-0.6,2.5,0.8,2.9
					c2.7,0.7,5.5-0.4,8.1-1.3c3.1-1,6.2-1.9,9.3-2.9C726.7,806.9,725.2,801.6,721.9,802.7L721.9,802.7z"/>
			</g>
			<g>
				<path class="st9" d="M683.7,831.7c2.8,0.6,5.5,1.1,8.3,1.7c2.5,0.5,5.2,1.3,7.8,1c1.8-0.2,2.8-2.6,1-3.6
					c-2.2-1.3-4.9-1.6-7.4-2.1c-2.8-0.6-5.5-1.1-8.3-1.7C681.9,826.4,680.6,831.1,683.7,831.7L683.7,831.7z"/>
			</g>
			<g>
				<path class="st9" d="M681.3,750.9c2.4,3,4.9,5.9,7.5,8.8c2.3,2.5,4.6,5.2,7.8,6.5c1.5,0.6,2.4-1.3,1.9-2.4
					c-1.4-3.1-4.3-5.5-6.6-7.9c-2.5-2.7-4.8-5.5-7.1-8.3C682.8,745,679.4,748.5,681.3,750.9L681.3,750.9z"/>
			</g>
			<g>
				<path class="st9" d="M768.2,733.3c-2.1,3-4.2,6-6.6,8.8c-2,2.4-4.3,4.6-5.2,7.6c-0.3,1.1,0.8,2.3,1.9,1.9
					c3.3-1.2,5.4-4.1,7.6-6.7c2.3-2.9,4.5-5.9,6.6-9C774.4,733.1,770,730.7,768.2,733.3L768.2,733.3z"/>
			</g>
			<g>
				<path class="st9" d="M767.5,771.7c7,1.4,15.4,2.5,22-0.7c1.1-0.5,0.9-2.6-0.4-2.8c-6.8-0.9-13.5-0.1-20.3-1.5
					C765.7,766.1,764.3,771.1,767.5,771.7L767.5,771.7z"/>
			</g>
			<g>
				<path class="st9" d="M766,801.4c2.8,5.3,6.9,12.8,12.7,15.1c1.2,0.5,2.6-1,2.1-2.1c-1.1-2.7-3.3-4.9-5.1-7.2
					c-2-2.6-3.7-5.5-5.3-8.4C769,795.7,764.5,798.4,766,801.4L766,801.4z"/>
			</g>
			<g>
				<path class="st9" d="M817.7,796.4c-3.7,1.6-7.4,3.2-11,5.1c-3,1.5-6.1,3.1-7.9,6.1c-0.5,0.8,0.1,2,1.1,1.9
					c3.4-0.1,6.5-1.9,9.5-3.4c3.6-1.8,7.3-3.5,11-5.1C823.5,799.7,820.8,795.1,817.7,796.4L817.7,796.4z"/>
			</g>
			<g>
				<path class="st9" d="M755.3,840.2c2.3,2.1,4.7,4.1,7.2,5.9c2.3,1.6,5.1,3.9,7.9,3.9c1.6,0,2.8-1.9,1.9-3.3
					c-1.5-2.2-4.2-3.3-6.4-4.7c-2.4-1.7-4.7-3.6-6.9-5.6C756.6,834,752.8,837.8,755.3,840.2L755.3,840.2z"/>
			</g>
			<g>
				<path class="st9" d="M731.5,753.9c-1.9,4.1-3.7,8.3-5.5,12.4c-1.4,3.4-3.1,6.9-2.7,10.7c0.1,0.9,1,1.3,1.7,0.7
					c2.9-2.5,4.2-6.2,5.7-9.6c1.7-3.9,3.4-7.8,5.1-11.7C737.2,753.6,732.8,751,731.5,753.9L731.5,753.9z"/>
			</g>
			<g>
				<path class="st9" d="M787.1,704.6c3.2,2.9,6.5,5.6,10,8c3.3,2.3,7.2,5.2,11.2,5.9c1.7,0.3,3.2-1.7,1.8-3.1
					c-2.6-2.6-6.3-4.4-9.3-6.4c-3.6-2.4-6.9-5.1-10.1-8C788.3,699,784.7,702.5,787.1,704.6L787.1,704.6z"/>
			</g>
			<g>
				<path class="st9" d="M767.6,652.4c-1.8,3.4-3.6,6.7-5.6,10c-1.8,3-3.9,6-5,9.2c-0.6,1.8,1.7,2.7,2.9,1.7
					c5.3-4.6,8.6-12.3,11.8-18.5C773.2,652.1,769,649.7,767.6,652.4L767.6,652.4z"/>
			</g>
			<g>
				<path class="st9" d="M702.8,707.8c7.6,1.5,15.1,2.9,22.8,3.8c2.1,0.2,2.4-3.1,0.5-3.6c-7.2-2.1-14.5-3.7-21.9-5.2
					C700.9,702.2,699.5,707.1,702.8,707.8L702.8,707.8z"/>
			</g>
			<g>
				<path class="st9" d="M752.8,703.1c-2.2,4.7-6.1,12.4-3.7,17.5c0.4,0.9,1.9,1.1,2.5,0.3c1.6-1.9,1.9-4.4,2.5-6.8
					c0.8-2.9,1.9-5.7,3.2-8.4C758.7,702.8,754.2,700.1,752.8,703.1L752.8,703.1z"/>
			</g>
			<g>
				<path class="st9" d="M704.6,652.9c0,4.1-0.1,8.2,0,12.3c0.1,3.6-0.3,7.6,1.1,10.9c0.6,1.5,2.5,1.5,3,0c1.3-3.4,1-7.4,1.1-10.9
					c0.1-4.1,0-8.2,0-12.3C709.7,649.6,704.6,649.6,704.6,652.9L704.6,652.9z"/>
			</g>
			<g>
				<path class="st9" d="M654.9,708.5c7.1,0.8,14.9,2.5,22,1.7c1.9-0.2,2.4-2.8,0.5-3.5c-7-2.4-15.2-2.5-22.5-3.3
					C651.7,703,651.7,708.1,654.9,708.5L654.9,708.5z"/>
			</g>
			<g>
				<path class="st9" d="M664.4,764.1c-3.5,1.4-6.9,3-10.2,5c-2.8,1.7-6.8,3.6-8.3,6.6c-0.8,1.7,0.5,3.5,2.4,3.1
					c3-0.6,5.5-3.2,8.1-4.8c3-1.8,6.1-3.4,9.4-4.8C668.9,768,667.6,762.8,664.4,764.1L664.4,764.1z"/>
			</g>
			<g>
				<path class="st9" d="M658.4,633c1.2,6.9,2.7,17.1,8.1,22.1c1,0.9,2.9,0.3,2.9-1.2c-0.2-3.7-2-7-3.1-10.5
					c-1.3-3.8-2.2-7.8-2.9-11.8C662.8,628.3,657.8,629.7,658.4,633L658.4,633z"/>
			</g>
			<g>
				<path class="st9" d="M715.3,610.6c10-0.3,20.3,0.9,30.2-0.2c1.8-0.2,2.5-2.9,0.5-3.5c-9.8-2.5-20.7-1.7-30.6-1.4
					C712,605.7,712,610.7,715.3,610.6L715.3,610.6z"/>
			</g>
			<g>
				<path class="st9" d="M752.5,622.5c-3.1,2.9-6,5.9-8.9,9c-2.4,2.7-5.6,5.7-6.6,9.3c-0.5,1.7,1.4,3.2,3,2.3
					c3.2-1.9,5.3-5.5,7.7-8.2c2.7-3,5.5-5.9,8.4-8.6C758.7,623.9,755,620.2,752.5,622.5L752.5,622.5z"/>
			</g>
			<g>
				<path class="st9" d="M671.5,572.7c-0.5,7.7-0.8,16.5,2.5,23.6c0.7,1.6,2.9,0.6,3.1-0.8c0.6-7.5-0.8-15.2-0.4-22.8
					C676.9,569.4,671.7,569.4,671.5,572.7L671.5,572.7z"/>
			</g>
			<g>
				<path class="st9" d="M808.9,658c-3.6,2.2-6.9,4.7-10.1,7.4c-2.9,2.5-6,5.3-7.1,9.1c-0.4,1.4,1.2,2.4,2.4,1.8
					c3.2-1.6,5.5-4.4,8.1-6.7c2.9-2.6,6.1-4.9,9.5-6.9C814.5,660.9,811.8,656.2,808.9,658L808.9,658z"/>
			</g>
			<g>
				<path class="st9" d="M637.1,594c7.3-1.7,15.4-2.8,22.2-6c1.3-0.6,0.6-2.7-0.7-2.7c-7.6,0.1-15.4,2.5-22.7,4.2
					C632.9,590.1,634.1,594.7,637.1,594L637.1,594z"/>
			</g>
			<g>
				<path class="st9" d="M293.4,571.9c1.5,6.1,3.2,14.5,7.6,19.2c1.1,1.2,3.6,0.3,3.4-1.4c-0.4-3.2-2-6.1-3.1-9.1
					c-1.2-3.3-2.2-6.6-3.1-10C297.4,567.5,292.6,568.8,293.4,571.9L293.4,571.9z"/>
			</g>
			<g>
				<path class="st9" d="M239.2,573.6c-1.5,9.5-5.2,19-6,28.5c-0.2,2,2.8,2.7,3.7,1c4.4-8.1,5.5-19.2,6.7-28.3
					C244.1,571.9,239.7,570.6,239.2,573.6L239.2,573.6z"/>
			</g>
			<g>
				<path class="st9" d="M165.1,624.6c1.4,2.2,2.9,4.4,4.5,6.5c1.4,1.9,2.9,4.1,5.2,4.9c1.2,0.4,2.2-0.9,2-2
					c-0.5-2.2-2.5-3.9-3.8-5.7c-1.5-1.9-2.8-3.9-4-6C167.5,620,163.7,622.2,165.1,624.6L165.1,624.6z"/>
			</g>
			<g>
				<path class="st9" d="M150.7,688.2c4.8-2.4,10.6-4.7,14.5-8.5c1.1-1.1-0.1-2.5-1.4-2.3c-5.3,0.8-10.9,4-15.7,6.4
					C145.1,685.2,147.7,689.7,150.7,688.2L150.7,688.2z"/>
			</g>
		</g>
	</g>
	<g>
		<path class="st7" d="M736.8,810.7c0,27.6-0.4,55.2-1.1,82.8c-0.7,27.4-4.1,55.4-2.9,82.7c0.1,2.1,3.4,2.8,3.8,0.5
			c4.4-26.4,3.5-54.4,4.1-81.1c0.6-28.3,0.2-56.6-0.7-84.9C739.9,808.7,736.8,808.6,736.8,810.7L736.8,810.7z"/>
	</g>
	<g>
		<path class="st7" d="M69.4,1085.3c41.8-25.4,90-36.2,138.6-37.3c26.9-0.6,53.8,1.6,80.4,5.6c12.5,1.9,25,4.1,37.4,6.6
			c12.5,2.5,25.1,6.4,37.8,7.5c2.3,0.2,2.4-3,0.5-3.7c-13-4.9-27.5-6.8-41.1-9.4c-13.8-2.7-27.7-5-41.6-6.9
			c-26.1-3.5-52.6-5.3-78.9-4.2c-47.2,2.1-94.2,14-134.4,39.3C66.5,1083.8,67.9,1086.2,69.4,1085.3L69.4,1085.3z"/>
	</g>
	<g>
		<path class="st7" d="M243.2,743c-5.1,30-4.7,60.4-2.4,90.7c2.2,28.9,7.1,58.6,5.7,87.7c-2,41.9-15.7,83-25.9,123.4
			c-0.9,3.4,4.4,4.9,5.3,1.5c9.8-39.5,22.3-79.1,25.5-119.9c2.2-27.9-2.5-56.6-5-84.4c-3-32.7-5.2-65.5-0.4-98.1
			C246.3,742,243.5,741.2,243.2,743L243.2,743z"/>
	</g>
	<polygon class="st10" points="1147.2,742.3 863.1,742.3 604,1186.9 870.5,1186.9 	"/>
	<path class="st2" d="M1015.1,1026.8c1.4-2,2.4-4.5,3-7.6c1.2-6.5,1.5-13.4,2.1-20c1.1-13.4,1.7-26.8,1.7-40.2
		c0-26.8-2.1-53.7-6.5-80.2c-2-12.3-2.2-19.4-11.8-27.3c-9.9-8.1-19.7-16.4-29.5-24.7c-19.7-16.4-39.4-32.9-59.1-49.3
		c-4.2-3.5-10.3-2.3-13.6,2c-3.3,4.3-2.1,11.3,2.4,14.3c-4.2-4.1-10.2-8.3-15.8-10c-5.6-1.7-12.7,0.1-15,5.5
		c-3.7,8.6,7.4,21.2,13,26.9c-1.3-3.4-6.9-2.8-10.2-1.2c-3.3,1.6-5.2,5.3-5.5,8.9c-0.3,3.7,0.8,7.3,2.1,10.7
		c2.5,6.6,5.8,12.8,9.9,18.5c-1.5-2.9-5.9-1.6-8.1,0.8c-2.2,2.4-2.5,6-2.2,9.3c1.3,19.3,13.8,36.7,23.8,52.6
		c11.1,17.6,17,37.6,18,58.5c0.5,10.2-0.3,20.4,0.5,30.6c0.8,10.2,3.2,20.5,9.3,28.7c6.1,8.2,16.3,13.8,26.4,12.2
		c15.1-2.4,30.4-4.4,45.1-8.8C1003,1034.7,1010.8,1033,1015.1,1026.8z"/>
	<g>
		<path class="st4" d="M904.2,796.4c11.4,12.1,23,23.9,34.3,36.1c11.2,12,21.6,25.6,33.8,36.5c1.8,1.6,5-0.5,3.5-2.7
			c-8.8-13.2-21.1-24.7-32-36.2c-11.9-12.5-24.1-24.8-37-36.4C905,792.1,902.5,794.6,904.2,796.4L904.2,796.4z"/>
	</g>
	<g>
		<path class="st4" d="M887.2,818.3c10.2,11.9,20,24.3,30.3,36.2c9.9,11.4,19.3,25.9,31.2,35.2c1.7,1.3,4.2-0.3,3.1-2.4
			c-7-12.9-19.5-24.1-29.2-35.1c-10.8-12.3-22.4-23.9-33.7-35.8C887.9,815.4,886.2,817.2,887.2,818.3L887.2,818.3z"/>
	</g>
	<g>
		<path class="st4" d="M881.7,855.8c6.7,10.8,13.8,21.4,20.7,32.1c6.2,9.6,11.6,20.4,19.2,29c1.2,1.4,4-0.1,3.3-1.9
			c-4.6-11.2-12.5-21.3-19.2-31.3c-6.8-10.2-13.9-20.1-21.6-29.7C883,852.7,880.8,854.4,881.7,855.8L881.7,855.8z"/>
	</g>
	<path class="st0" d="M940.8,1089.4c-3.9-0.3-8.2-0.9-10.6-3.9c-2.2-2.7-2.2-6.4-2.1-9.8c0.3-11.1,1.6-22.2,3.8-33.1
		c27.4,1,55.2-5,80.5-15.8c2.9-1.2,6.3-2.5,9.1-1c3.5,2,3.4,7,2.8,11.1c-1.6,10.8-2.1,21.7-3.5,32.3c-1.8,13.2-18.5,17.6-29,19
		C974.8,1090.3,957.7,1090.7,940.8,1089.4z"/>
	<g>
		<path class="st7" d="M1009.5,1029.8c-0.1,18.1-3.9,36.6-3.2,54.6c0.1,2.1,3,2.5,3.6,0.5c5.1-17.1,3.5-37.5,3.1-55.1
			C1013,1027.6,1009.5,1027.6,1009.5,1029.8L1009.5,1029.8z"/>
	</g>
	<g>
		<path class="st7" d="M990.5,1039.2c0.1,14.7-0.8,29.4-1.4,44.1c-0.1,3.4,5,3.3,5.2,0c1.1-14.8,0.4-29.4-0.6-44.1
			C993.5,1037.2,990.5,1037.2,990.5,1039.2L990.5,1039.2z"/>
	</g>
	<g>
		<path class="st7" d="M967,1044.7c-0.6,14.2-1.8,28.3-2.1,42.5c-0.1,3.4,5,3.3,5.2,0c0.7-14.1,0.6-28.3,1-42.5
			C971.2,1042.1,967.2,1042.1,967,1044.7L967,1044.7z"/>
	</g>
	<path class="st2" d="M803.5,1069.6c-2.8-7.6-24.8-6-30.7-6.2c-13.4-0.3-26.9-0.1-40.3,1.5c14.5-2.3,28.9-5.3,43.1-9
		c4.4-1.1,9.6-1.4,11-6.4c1.5-5-2.7-8.3-7.4-9c-16-2.1-32.6,0.6-48.8,1.5c-17.3,1-34.5,2-51.8,3c-13.6,0.8-24.8,2-37.6,7
		c-12.4,4.8-24.4,10.7-36.7,15.8c-18.6,7.6-37.3,15.2-55.9,22.8l-25,70.2c17,5.1,34.1,10.3,51.8,12.4c17.6,2.1,36,0.9,52.3-6.2
		c8-3.5,15.3-8.4,23.1-12.5c8.5-4.5,13.6-5.5,23-4.9c19.5,1.3,39.1,2,58.6,1.2c3.5-0.1,7-0.4,10.2-1.7c3.2-1.4,6-4.2,6.4-7.6
		c0.4-3.4-0.2-6.8-3.6-7.5c-23.6-5-45.4-10.3-69-15.3c30.4-0.2,60.7-0.5,91.1-0.7c6.4-0.1,14.5-1.4,15.9-7.7
		c0.9-4.3-2.4-8.6-6.5-10.3c-9.2-3.8-23.3-2.9-33.1-3.6c-11.3-0.9-24.6-4-35.9-2.9c28.9-2.9,57.7-7.6,86-14.1
		c2.5-0.6,5.2-1.2,7.2-2.8C803,1074.9,804.4,1072,803.5,1069.6z"/>
	<g>
		<path class="st4" d="M690.6,1069.1c15.8-1.6,31.6-1.8,47.4-2.9c2.4-0.2,2.4-3.6,0-3.7c-15.8-0.4-31.8,1.6-47.4,3.5
			C688.7,1066.3,688.6,1069.4,690.6,1069.1L690.6,1069.1z"/>
	</g>
	<path class="st0" d="M287,1053.3l5,168.4c80.7-17.5,161.6-37,242.3-54.5c9-32.6,17.3-66.5,26.2-99.1
		C469.3,1076,376.9,1071,287,1053.3z"/>
	<g>
		<path class="st4" d="M685.6,1095.9c9.8-0.2,20.1,0.3,29.7-1.3c2.2-0.4,1.5-3.6-0.5-3.7c-9.6-0.6-19.6,0.8-29.2,1.5
			C683.4,1092.5,683.4,1095.9,685.6,1095.9L685.6,1095.9z"/>
	</g>
	<g>
		<path class="st7" d="M499.9,11.5c-28.7,21.4-42.7,59.7-29.6,94c1.1,2.8,5.5,1.8,4.7-1.3c-9.6-33.9-1-67.6,27.4-89.6
			C504.1,13.3,501.7,10.1,499.9,11.5L499.9,11.5z"/>
	</g>
	<g>
		<g>
			<path class="st9" d="M303.7,1078.4c-3.8,3.8-7.5,7.7-11,11.8c-2.9,3.4-6.3,7.1-7.7,11.4c-0.4,1.2,1.1,2.4,2.2,1.7
				c3.8-2.6,6.6-6.7,9.6-10.2c3.3-3.9,6.8-7.6,10.4-11.2C309.5,1079.6,306,1076.1,303.7,1078.4L303.7,1078.4z"/>
		</g>
		<g>
			<path class="st9" d="M302,1151.5c2.8,1,5.5,2,8.3,2.8c2.6,0.7,5.1,1.9,7.8,1.9c1.9,0.1,2.1-2.2,0.9-3.2c-2.2-1.7-5.1-2.4-7.6-3.5
				c-2.6-1.1-5.3-2-8-2.9C300.3,1145.6,298.9,1150.4,302,1151.5L302,1151.5z"/>
		</g>
		<g>
			<path class="st9" d="M370.1,1102.7c-3.2,7.9-8.1,16.1-10,24.4c-0.3,1.5,1.6,3,2.7,1.6c5.5-6.9,8.4-16.6,11.5-24.8
				C375.4,1101.1,371.1,1100,370.1,1102.7L370.1,1102.7z"/>
		</g>
		<g>
			<path class="st9" d="M465.2,1092.6c-3.1,2.1-6.3,3.9-9.5,5.9c-2.8,1.8-6.1,3.5-8.5,5.8c-1.2,1.2,0.1,2.9,1.5,2.6
				c6.7-1.3,13.3-6.3,19-10C470.5,1095.2,467.9,1090.8,465.2,1092.6L465.2,1092.6z"/>
		</g>
		<g>
			<path class="st9" d="M419.7,1120.5c2.2,3,4.3,6,6.5,9.1c1.9,2.7,4,6,6.6,8c1.3,1,3.8,0.1,3.1-1.8c-1.1-3.2-3.4-6-5.4-8.8
				c-2.2-3-4.4-6-6.5-9C422.1,1115.5,417.8,1117.9,419.7,1120.5L419.7,1120.5z"/>
		</g>
		<g>
			<path class="st9" d="M388.4,1173.4c1.1,1.8,2.2,3.7,3.3,5.5c1,1.6,1.9,3.4,3.5,4.4c0.8,0.5,1.8-0.1,1.8-1c0-1.9-1.1-3.7-1.9-5.3
				c-1-1.9-1.9-3.8-2.9-5.8C390.9,1168.6,386.9,1170.9,388.4,1173.4L388.4,1173.4z"/>
		</g>
		<g>
			<path class="st9" d="M359.4,1168.8c-2,1.6-4,3.3-6,4.9c-1.8,1.5-4.1,2.9-5.3,4.9c-0.7,1.3,0.5,2.9,1.9,2.5c2.3-0.7,4.2-2.5,6-3.9
				c2.1-1.5,4.1-3.1,6.2-4.6C365,1170.5,362.1,1166.6,359.4,1168.8L359.4,1168.8z"/>
		</g>
		<g>
			<path class="st7" d="M494,1073.1c-3.1,17.2-6,34.4-8.7,51.7c-2.5,15.6-7.2,32.6-6.7,48.4c0.1,2.2,3,2.5,3.7,0.5
				c5.4-16,5.9-35.1,8.3-51.8c2.3-16.1,4.4-32.2,6.4-48.4C497.1,1071.9,494.3,1071.5,494,1073.1L494,1073.1z"/>
		</g>
		<g>
			<path class="st9" d="M428,1169.5c4.5-3.5,9.6-6.8,14.6-9.6c1.6-0.9,0.5-3.6-1.3-3c-3.1,1-5.9,2-8.8,3.6c-2.8,1.6-5.4,3.5-7.9,5.5
				C422,1168,425.5,1171.4,428,1169.5L428,1169.5z"/>
		</g>
		<g>
			<path class="st7" d="M493.6,1095.1c19,0,37.9,0.9,56.8,1.2c2.9,0.1,2.9-4.3,0-4.5c-18.8-1.5-38-1.2-56.8-0.7
				C491.1,1091.3,491,1095.1,493.6,1095.1L493.6,1095.1z"/>
		</g>
		<g>
			<path class="st7" d="M492.5,1121.1c16.2,0.1,34.8,1.8,50.6-2c1.8-0.4,1.2-2.9-0.4-3c-16.2-1.9-33.8,0.9-50.2,1
				C489.9,1117.1,489.9,1121.1,492.5,1121.1L492.5,1121.1z"/>
		</g>
		<g>
			<path class="st7" d="M486.4,1152.4c9.1-0.8,18.2-1.4,27.3-1.8c7.9-0.3,16.1,0.4,23.9-1.2c1.6-0.3,1.6-2.8,0-3.2
				c-15.9-3.4-35.2,0.1-51.2,1.7C483.6,1148.3,483.5,1152.7,486.4,1152.4L486.4,1152.4z"/>
		</g>
	</g>
	<g>
		<path class="st7" d="M933.3,1090.5c20.6,4.8,53,12.4,71.3-2.5c1.3-1.1-0.2-2.7-1.5-2.5c-11.1,1.9-20.8,5.8-32.4,5.8
			c-12.2-0.1-24.4-2.4-36.3-4.8C931.8,1085.8,930.6,1089.9,933.3,1090.5L933.3,1090.5z"/>
	</g>
</g>
<g>
</g>
<g>
</g>
<g>
</g>
<g>
</g>
<g>
</g>
<g>
</g>
<g>
</g>
<g>
</g>
<g>
</g>
<g>
</g>
<g>
</g>
<g>
</g>
<g>
</g>
<g>
</g>
<g>
</g>
</svg>
