<?xml version="1.0" encoding="utf-8"?>
<!-- Generator: Adobe Illustrator 24.0.2, SVG Export Plug-In . SVG Version: 6.00 Build 0)  -->
<svg version="1.1" xmlns="http://www.w3.org/2000/svg" xmlns:xlink="http://www.w3.org/1999/xlink" x="0px" y="0px"
	 viewBox="0 0 526.01 388.57" style="enable-background:new 0 0 526.01 388.57;" xml:space="preserve">
<style type="text/css">
	.st0{fill:#DBA723;}
	.st1{fill:#E5D389;}
	.st2{fill:#FFFFFF;}
	.st3{font-family:'Livvic-SemiBold';}
	.st4{font-size:31.572px;}
</style>
<g id="Camada_3">
</g>
<g id="Camada_1">
	<path class="st0" d="M44.96,75.64H0L62.4,0l73.47,75.64H91.23c-0.92,11.25-2.39,22.42-3.93,33.44
		c-3.69,26.61-7.19,51.75-2.67,76.92c0.16,0.88,0.64,3.57,1.34,4.31l-39.75,12.95c-5.46-5.05-6.79-10.27-7.59-14.77
		c-1.68-9.32-2.34-18.64-2.34-27.93c0-18.01,2.49-35.9,4.92-53.4C42.69,96.45,44.07,85.98,44.96,75.64z"/>
	<path class="st1" d="M141.53,312.93h44.96l-62.4,75.64l-73.47-75.64h44.64c0.92-11.25,2.39-22.42,3.93-33.44
		c3.69-26.61,7.19-51.75,2.67-76.92c-0.16-0.88-0.64-3.57-1.34-4.31l39.75-12.95c5.46,5.05,6.79,10.27,7.59,14.77
		c1.68,9.32,2.34,18.64,2.34,27.93c0,18.01-2.49,35.9-4.92,53.4C143.79,292.12,142.42,302.59,141.53,312.93z"/>
	<path class="st1" d="M524.87,260.13c-1.27-7.21-0.88-14.69-0.5-21.92c0.2-3.88,0.41-7.89,0.37-11.83
		c-0.06-5.38-0.6-10.98-6.29-15.06c-5.32-3.82-13.77-5.21-20.56-6.32c-12.64-2.08-24.89-1.83-37.85-1.57
		c-3.01,0.06-6.13,0.12-9.22,0.15l-0.22,0c-14.5,0.14-67.96,0.29-82.7,0.29H269.7c-9.46,0-20.45,0.34-30.19,2.87
		c-4.19,1.09-8.95,2.25-12.87,6.09c-3.68,3.6-4.59,10.49-5.25,19.37c-0.38,5.14-0.76,10.28-1.14,15.41
		c-0.73,9.86-1.45,20.17-0.15,29.7c0.35,2.53,0.85,5.03,1.69,6.82c0.82,1.73,1.88,2.67,2.93,3.48c7.91,6.16,16.82,7.11,25.06,7.18
		c33.12,0.28,65.5,0.53,97.55,0.45c14.98-0.03,30.22,0.32,44.95,0.66c14.09,0.33,28.57,0.66,42.98,0.66c2.77,0,5.54-0.01,8.3-0.04
		c15.34-0.15,28.89-0.38,41.43-0.71c0.9-0.02,1.79-0.04,2.67-0.06c10.77-0.25,20.07-0.46,28.79-5.9c5.23-3.27,8.25-7.94,9.21-14.3
		C526.45,270.4,525.75,265.09,524.87,260.13z"/>
	<g>
		<text transform="matrix(1 0 0 1 236.3832 240.4867)"><tspan x="0" y="0" class="st2 st3 st4">transtornos</tspan><tspan x="0" y="37.89" class="st2 st3 st4">comportamentais</tspan></text>
	</g>
	<path class="st0" d="M333.39,65.19c-0.65-7.21-0.45-14.69-0.26-21.92c0.1-3.88,0.21-7.89,0.19-11.83
		c-0.03-5.38-0.31-10.98-3.22-15.06c-2.72-3.82-7.05-5.21-10.52-6.32c-6.47-2.08-12.73-1.83-19.37-1.57
		c-1.54,0.06-3.13,0.12-4.72,0.15l-0.11,0c-7.42,0.14-34.77,0.29-42.32,0.29h-50.25c-4.84,0-10.46,0.34-15.45,2.87
		c-2.14,1.09-4.58,2.25-6.59,6.09c-1.88,3.6-2.35,10.49-2.69,19.37c-0.2,5.14-0.39,10.28-0.59,15.41
		c-0.37,9.86-0.74,20.17-0.08,29.7c0.18,2.53,0.44,5.03,0.87,6.82c0.42,1.73,0.96,2.67,1.5,3.48c4.05,6.16,8.61,7.11,12.83,7.18
		c16.95,0.28,33.51,0.53,49.92,0.45c7.67-0.03,15.46,0.32,23,0.66c7.21,0.33,14.62,0.66,21.99,0.66c1.42,0,2.83-0.01,4.25-0.04
		c7.85-0.15,14.78-0.38,21.2-0.71c0.46-0.02,0.92-0.04,1.37-0.06c5.51-0.25,10.27-0.46,14.73-5.9c2.68-3.27,4.22-7.94,4.71-14.3
		C334.2,75.46,333.84,70.16,333.39,65.19z"/>
	<g>
		<text transform="matrix(1 0 0 1 194.0746 45.5502)"><tspan x="0" y="0" class="st2 st3 st4">saúde</tspan><tspan x="0" y="37.89" class="st2 st3 st4">familiar</tspan></text>
	</g>
</g>
<g id="Camada_2">
</g>
</svg>
