<?xml version="1.0" encoding="utf-8"?>
<!-- Generator: Adobe Illustrator 24.0.2, SVG Export Plug-In . SVG Version: 6.00 Build 0)  -->
<svg version="1.1" id="Camada_1" xmlns="http://www.w3.org/2000/svg" xmlns:xlink="http://www.w3.org/1999/xlink" x="0px" y="0px"
	 viewBox="0 0 360 7.72" style="enable-background:new 0 0 360 7.72;" xml:space="preserve">
<style type="text/css">
	.st0{fill:#F9EC6B;}
</style>
<g>
	<g>
		<g id="XMLID_108_">
			<path class="st0" d="M358.6,3.18c-20.38,0.28-40.74,0.94-61.12,0.96c-17.72,0.02-35.42-0.24-53.13-0.57
				c-27.73-0.51-55.45-1.02-83.18-1.53c-26.32-0.48-52.66-1.19-78.98-1.35C58.27,0.55,34.35,1.16,10.44,0.93
				C7.43,0.9,4.41,0.85,1.4,0.78c-1.87-0.05-1.87,2.86,0,2.9c24.24,0.59,48.51-0.2,72.76-0.12c25.55,0.08,51.1,0.72,76.65,1.19
				c27.73,0.51,55.45,1.02,83.18,1.53c18.4,0.34,36.78,0.71,55.18,0.75c21.68,0.05,43.36-0.25,65.03-0.85
				c1.47-0.04,2.93-0.08,4.4-0.1C360.46,6.06,360.47,3.15,358.6,3.18L358.6,3.18z"/>
		</g>
	</g>
</g>
</svg>
