<?xml version="1.0" encoding="utf-8"?>
<!-- Generator: Adobe Illustrator 24.0.2, SVG Export Plug-In . SVG Version: 6.00 Build 0)  -->
<svg version="1.1" xmlns="http://www.w3.org/2000/svg" xmlns:xlink="http://www.w3.org/1999/xlink" x="0px" y="0px"
	 viewBox="0 0 920 335.24" style="enable-background:new 0 0 920 335.24;" xml:space="preserve">
<style type="text/css">
	.st0{fill:#FFFCCC;}
	.st1{fill:#FFFFFF;}
	.st2{fill:#FFEE00;}
	.st3{fill:#DBA723;}
	.st4{font-family:'Livvic-Bold';}
	.st5{font-size:23.3391px;}
	.st6{fill:#1E1E1E;}
	.st7{font-family:'Livvic-Medium';}
	.st8{font-size:24.4566px;}
	.st9{font-size:25.9775px;}
</style>
<g id="Camada_1">
	<path class="st0" d="M152.35,332.32H83.22c-44.35,0-80.31-35.95-80.31-80.31V102.12h149.85V331.9
		C152.77,332.13,152.58,332.32,152.35,332.32z"/>
	<path class="st1" d="M834.5,332.32H152.77V105.6h764.31v144.14C917.08,295.35,880.11,332.32,834.5,332.32z"/>
	<path class="st2" d="M873.41,0H46.59C20.9,0,0,20.9,0,46.59v58.45h920V46.59C920,20.9,899.1,0,873.41,0z"/>
	<g>
		<text transform="matrix(1 0 0 1 66.3851 40.7956)" class="st3 st4 st5">Estilo</text>
	</g>
	<g>
		<text transform="matrix(1 0 0 1 27.4544 87.9645)" class="st3 st4 st5">Eixo</text>
	</g>
	<g>
		<text transform="matrix(1 0 0 1 191.8113 61.4323)" class="st3 st4 st5">Autoritário</text>
	</g>
	<g>
		<text transform="matrix(1 0 0 1 371.7825 61.4313)" class="st3 st4 st5">Negligente</text>
	</g>
	<g>
		<text transform="matrix(1 0 0 1 542.1204 61.4323)" class="st3 st4 st5">Indulgente</text>
	</g>
	<g>
		<text transform="matrix(1 0 0 1 729.4775 61.4313)" class="st3 st4 st5">Autoritativo</text>
	</g>
	<g>
		<text transform="matrix(1 0 0 1 21.6204 160.7526)" class="st6 st7 st8">Exigência</text>
	</g>
	<text transform="matrix(1 0 0 1 211.0325 160.7526)" class="st6 st7 st8">Alta</text>
	<text transform="matrix(1 0 0 1 387.9183 160.7506)" class="st6 st7 st9">Baixa</text>
	<text transform="matrix(1 0 0 1 569.2269 160.7497)" class="st6 st7 st9">Baixa</text>
	<text transform="matrix(1 0 0 1 769.3284 160.7497)" class="st6 st7 st9">Alta</text>
	<g>
		<text transform="matrix(1 0 0 1 21.6204 235.6872)"><tspan x="0" y="0" class="st6 st7 st8">Responsi-</tspan><tspan x="0" y="29.35" class="st6 st7 st8">vidade</tspan></text>
	</g>
	<text transform="matrix(1 0 0 1 204.3997 253.3747)" class="st6 st7 st8">Baixa</text>
	<text transform="matrix(1 0 0 1 387.9183 253.3737)" class="st6 st7 st9">Baixa</text>
	<text transform="matrix(1 0 0 1 578.0687 253.3737)" class="st6 st7 st9">Alta</text>
	<text transform="matrix(1 0 0 1 769.3284 260.0075)" class="st6 st7 st9">Alta</text>
	<g>
		<g>
			<g>
				<rect x="151.31" y="102.12" class="st2" width="2.92" height="230.2"/>
			</g>
			<g>
				<g>
					<path class="st2" d="M837.42,335.24H82.58C37.04,335.24,0,298.19,0,252.66V99.2h920v153.46
						C920,298.19,882.96,335.24,837.42,335.24z M5.83,105.04v147.62c0,42.32,34.43,76.74,76.74,76.74h754.85
						c42.31,0,76.74-34.42,76.74-76.74V105.04H5.83z"/>
				</g>
				<g>
					<rect x="2.92" y="192.87" class="st2" width="914.17" height="2.92"/>
				</g>
				<g>
					<rect x="342.04" y="102.12" class="st2" width="2.92" height="230.2"/>
				</g>
				<g>
					<rect x="514.49" y="102.12" class="st2" width="2.92" height="230.2"/>
				</g>
				<g>
					<rect x="688.61" y="102.12" class="st2" width="2.92" height="230.2"/>
				</g>
			</g>
		</g>
	</g>
	<g>
		<path class="st3" d="M152.77,100.66c-0.23,0-0.46-0.05-0.67-0.16L10.8,27.23c-0.72-0.37-0.99-1.25-0.62-1.97
			c0.37-0.72,1.25-1,1.97-0.62l141.3,73.27c0.72,0.37,0.99,1.25,0.62,1.97C153.81,100.38,153.3,100.66,152.77,100.66z"/>
	</g>
</g>
<g id="Camada_2">
</g>
</svg>
