<svg id="Layer_1" data-name="Layer 1" xmlns="http://www.w3.org/2000/svg" viewBox="0 0 297 240.98"><defs><style>.cls-1{fill:#c64df6;}.cls-2{fill:#6960e5;}.cls-3{fill:#ff2b8c;}.cls-4{fill:#ff36ce;}</style></defs><path class="cls-1" d="M158.47,71.14l.16-.36a61.64,61.64,0,0,1,8-13.44,1.42,1.42,0,0,1,.88-.49,55.47,55.47,0,0,1,11.3-.53,43.86,43.86,0,0,1,4.45.48,32.39,32.39,0,0,0,9.54-4.72,34.19,34.19,0,0,0-7-2.08,58.77,58.77,0,0,0-22.08.26,1.62,1.62,0,0,0-.89.5,59.69,59.69,0,0,0-8.28,12.07c-.7,1.33-1.78,3.55-2.43,4.9.87.47,2,.8,2.88,1.26a35.21,35.21,0,0,1,3.49,2.15"/><path class="cls-1" d="M206.63,70.2a19.85,19.85,0,0,0-4.88-11.62,32.06,32.06,0,0,1-5.92,4.13,14.52,14.52,0,0,1,3.07,5.14c1.49,4.26.43,7.91-3.23,10.55A15.29,15.29,0,0,1,183.05,81l-2.54-.53c-.37,1.11-.68,2.16-1.06,3.19a15,15,0,0,1-8.91,9.19A8.31,8.31,0,0,1,161,90.71c-1.36-1.37-2.41-4.11-3.13-5.89a2.44,2.44,0,0,0-.71-1c-1.16-.91-2.34-1.82-3.56-2.63s-2.58-1.58-4-2.45c0,.35.05,1.63.05,1.75a21.31,21.31,0,0,0,6.63,15.56,15,15,0,0,0,15.17,4c6.07-1.66,10.41-5.53,13.42-11a.92.92,0,0,1,1-.57,22.26,22.26,0,0,0,14.87-4.92,14.88,14.88,0,0,0,5.92-13.35"/><path class="cls-2" d="M53.46,158.41l6.86,2.5-.85,5.54H36.76l-.86-5.54,6.17-2.5-3.51-9.36H20.3l-3.75,9.36,7.34,2.42-.78,5.62H3.6l-.86-5.54,6.79-2.5,18-46.58,8.5-1.32ZM29.52,125.12,22.64,143H36.29L31.38,129.7Z"/><path class="cls-2" d="M192.41,129.15c10.07,0,16.08,5.23,16.08,14.67V160l4.37,1.72-.94,4.76H202l-2.34-1.8c-2.34,1.64-5.54,2.66-10.06,2.66-7,0-13.19-3.75-13.19-10.85,0-10.61,12.41-13,22.24-13V140.7a6.29,6.29,0,0,0-6.64-6.63,25.63,25.63,0,0,0-5.77.86l-1.72,5.93-5.22-.94v-7.49a30,30,0,0,1,13.1-3.28m-5.3,26.61c0,4.45,3.2,5.85,5.38,5.85a8,8,0,0,0,6.17-3.12V148.27c-7.26,0-11.55,3-11.55,7.49"/><path class="cls-2" d="M241.25,135.08a15.87,15.87,0,0,0-3.12-.31,25,25,0,0,0-7,1.56V160l6.48,1.72-.94,4.76H217.3l-.94-4.76,4.92-1.72v-25.2h-3.51l-.94-4.76,10.15-.86,3.19,2a32.78,32.78,0,0,1,10.07-2,22,22,0,0,1,8,1.72v9l-5.23.94Z"/><path class="cls-2" d="M290.1,148.19c0,11.94-6.79,19-19.43,19s-19.51-7.41-19.51-19,7.65-19,19.51-19,19.43,7.1,19.43,19M261.23,148c0,8.58,3.35,14.35,9.44,14.35,5.93,0,9.52-5.69,9.52-14.35s-3.75-13.89-9.52-13.89-9.44,5.3-9.44,13.89"/><path class="cls-2" d="M133.28,162.34c-4.7,0-8.86-4.89-9.45-13.06v-6.94c0-8.51-5.38-13.19-15.53-13.19A26.26,26.26,0,0,0,97.15,132c-2.27-2.11-6-2.89-10.22-2.89a33.78,33.78,0,0,0-9.76,2l-3.2-2-9.75.86.86,4.76h3.51V160l-4.91,1.72.93,4.76H82.4l.94-4.76L78.42,160V136.33a23.84,23.84,0,0,1,6.79-1.56,6,6,0,0,1,6.16,6.16v19l-4.91,1.72.93,4.76h17.87l.94-4.76-5-1.72V142.26a14.36,14.36,0,0,0-1.17-5.93,17,17,0,0,1,7-1.56,6.85,6.85,0,0,1,7.1,6.87v5.56c0,.26,0,.51,0,.78,0,11.55,7,19.12,19.07,19.12h1.64v-4.76Z"/><path class="cls-2" d="M129.85,73.85a16.67,16.67,0,0,1,.32,8.63,11.42,11.42,0,0,1-1.55,1.65,21.52,21.52,0,0,0-5.46,7.74,13.94,13.94,0,0,0-.33,9.53,8.28,8.28,0,0,0,7.52,6,15.3,15.3,0,0,0,12.15-3.91c.71-.62,1.41-1.26,2.13-1.91.92.81,1.76,1.64,2.69,2.36a15,15,0,0,0,13.28,3.12,7.93,7.93,0,0,0,4.76-3.35c.1-.16.77-1.63.95-1.62a19.16,19.16,0,0,0,7.47-1,1.3,1.3,0,0,1,.24,0,26,26,0,0,1-2.27,5.9,15.22,15.22,0,0,1-11.77,7.5,22.52,22.52,0,0,1-14.89-3.35.74.74,0,0,0-.9,0A23.19,23.19,0,0,1,131,114.66a15.87,15.87,0,0,1-15.63-13.55c-1.23-7,.66-13.09,5-18.56a50.17,50.17,0,0,1,9.49-8.7"/><path class="cls-2" d="M141.34,75.75a22.86,22.86,0,0,0-1.83-6.53,32.35,32.35,0,0,1,5-2.29A.87.87,0,0,1,145,67c8.1,2.83,15.49,6.84,21.62,13a35.39,35.39,0,0,1,6,8.87c.09.19.17.39.26.58s0,.12.06.22c-1.8,1.3-3.67,2.38-6,2.07a1.88,1.88,0,0,1-1.52-1A33.13,33.13,0,0,0,156.84,81a54.51,54.51,0,0,0-11.7-6.34,1.59,1.59,0,0,0-1,0c-.62.19-1.21.48-1.82.72l-1,.34"/><path class="cls-3" d="M159.12,40.85a16.67,16.67,0,0,1-.32-8.63,1.62,1.62,0,0,1,.5-.7c2.32-2.23,5.34-5.67,6.51-8.7a14,14,0,0,0,.33-9.54,8.26,8.26,0,0,0-7.52-6,15.26,15.26,0,0,0-12.15,3.9c-.71.62-1.41,1.26-2.14,1.92-.91-.81-1.75-1.64-2.68-2.36a14.94,14.94,0,0,0-13.28-3.12A7.88,7.88,0,0,0,123.61,11a.73.73,0,0,1-.53.33,19.34,19.34,0,0,0-7.47,1,.68.68,0,0,1-.24,0,15.8,15.8,0,0,1,1.85-4.6A15.17,15.17,0,0,1,129,.18a22.52,22.52,0,0,1,14.89,3.34.72.72,0,0,0,.9,0A23.27,23.27,0,0,1,158,0,15.88,15.88,0,0,1,173.6,13.58c1.23,7-.66,13.09-5,18.55a50.27,50.27,0,0,1-9.49,8.72"/><path class="cls-3" d="M148.06,38.39a21.5,21.5,0,0,0,.62,3.55,28.48,28.48,0,0,0,1.17,3.48c-1.32.47-4,1.86-5.42,2.33a.79.79,0,0,1-.49-.07c-8.1-2.83-15.49-6.84-21.62-13a27.35,27.35,0,0,1-5.5-7.67c-.09-.19-.17-.38-.26-.58s0-.11-.06-.22c1.8-1.3,3.67-2.38,6-2.07a1.9,1.9,0,0,1,1.52,1,27.09,27.09,0,0,0,8.07,8.44A55.4,55.4,0,0,0,143.83,40a1.66,1.66,0,0,0,1,0c.62-.19,2.55-1.37,3.16-1.61,0,0,.08,0,.06,0"/><path class="cls-2" d="M152.55,162.32h-1.48v4.76h1.64c12.09,0,21.61-12.84,21.61-24.39,0-12-10.25-16-16.32-15.76a17.91,17.91,0,0,0-12.92,5.25l-1,1.16-.16-.21s-4.24-8-16.06-5.69a4.29,4.29,0,0,1-.8,0l3.1,5.6h.16a10.2,10.2,0,0,1,7.67,3.75v39.37l-4.91,1.72.93,4.76h17.79l.94-4.76-5-1.72V137c1.73-2.44,5.46-4.93,8-4.93,4.37,0,8.23,1.74,8.4,9.54.21,9.37-6.6,20.75-11.67,20.75"/><path class="cls-4" d="M161.53,50.33a45.3,45.3,0,0,1-3.2-6.7,22.45,22.45,0,0,1-1.58-11.76,13.58,13.58,0,0,1,5.32-9A3.45,3.45,0,0,0,163.42,21a11.19,11.19,0,0,0,.1-6.51A12.26,12.26,0,0,0,159.66,16a20.33,20.33,0,0,0-9.74,13.42,25.87,25.87,0,0,0,.71,13.79,51.56,51.56,0,0,0,5.84,12.72Z"/><path class="cls-4" d="M206.28,41.56a15,15,0,0,0-5.09-9.74,22.23,22.23,0,0,0-15.7-5.6.84.84,0,0,1-.91-.54,22.55,22.55,0,0,0-7.23-8.08c-.16-.11-.34-.2-.49-.29-.12,1.36-.17,2.67-.37,4s-.59,2.54-.86,3.81a.79.79,0,0,0,.19.6,15.87,15.87,0,0,1,3.71,6.54c.21.69.46,1.38.69,2.06l.51-.09,1.61-.34a15.63,15.63,0,0,1,12.76,2.24c3.76,2.54,5,6.23,3.58,10.54A14.26,14.26,0,0,1,193,54.16a25.81,25.81,0,0,1-11.69,4,54,54,0,0,1-13.91-.22,11,11,0,0,0-1.87,2.39,27.24,27.24,0,0,0-1.93,4.25,1.41,1.41,0,0,0,.22.06,63.9,63.9,0,0,0,17.52.76,37,37,0,0,0,11.37-2.81c6.46-2.86,11-7.52,13-14.38.33-1.13.48-2.31.71-3.46V42a3.72,3.72,0,0,1-.11-.48"/><path class="cls-1" d="M109.44,82.47c-.21-.7-.46-1.38-.69-2.06l-.51.08-1.61.34a15.59,15.59,0,0,1-12.76-2.24c-3.77-2.54-5-6.23-3.58-10.54a14.08,14.08,0,0,1,3.16-5.37,31.85,31.85,0,0,1-5.94-4.16,21.84,21.84,0,0,0-4.22,8c-.33,1.12-.48,2.3-.71,3.45v2.66a4.15,4.15,0,0,1,.11.48,15,15,0,0,0,5.09,9.75,22.27,22.27,0,0,0,15.7,5.59.86.86,0,0,1,.91.54c1.74,3.29,5.45,6.9,8.51,9l.5.3c.12-1.37.16-2.68.37-4s.58-2.54.85-3.81a.76.76,0,0,0-.19-.61c-1.77-1.87-4.26-5-5-7.46"/><path class="cls-1" d="M138.34,71.53a57,57,0,0,0-11.51-20.46,2.66,2.66,0,0,0-1.68-1,63.51,63.51,0,0,0-17.52-.76,36.94,36.94,0,0,0-11.14,2.71,32.52,32.52,0,0,0,9.58,4.75c.53-.09,1.06-.16,1.59-.23a54.45,54.45,0,0,1,14.2.26,1.25,1.25,0,0,1,.72.41,52.12,52.12,0,0,1,8.06,13.81,22.49,22.49,0,0,1,1.58,11.77c-.62,3.65-3.86,7.25-6.86,9.49A3.39,3.39,0,0,0,124,94.18a11.19,11.19,0,0,0-.11,6.51,23.13,23.13,0,0,0,5.39-2,20.32,20.32,0,0,0,9.75-13.41,25.86,25.86,0,0,0-.71-13.79"/><path class="cls-3" d="M130.37,43.12c-.06.13-.12.24-.17.36-.84,2-1.89,4.22-3,6.37l5.2,5.69c.73-1.21,1.43-2.43,2.09-3.68s1.64-4,2.29-5.33c-1.21-.64-2.43-1-3.6-1.67a19.72,19.72,0,0,1-2.76-1.74"/><path class="cls-4" d="M132.68,18.62a15,15,0,0,0-15.16-4c-6.07,1.66-10.41,5.54-13.42,11a.91.91,0,0,1-1,.56,22.26,22.26,0,0,0-14.87,4.92,14.93,14.93,0,0,0-5.93,13.36,20.36,20.36,0,0,0,6.8,13.59c4,3.69,8.82,5.6,14.06,6.6a58.78,58.78,0,0,0,22.08-.25l0,0a28.74,28.74,0,0,0-2-4.42,11.36,11.36,0,0,0-1.67-2.2l-.19.05a56.19,56.19,0,0,1-11.3.53A32.68,32.68,0,0,1,98.92,56a15.26,15.26,0,0,1-8.85-9.11c-1.49-4.26-.43-7.91,3.23-10.56a15.28,15.28,0,0,1,12.62-2.54l2.54.52c.37-1.11.68-2.16,1.06-3.18a15,15,0,0,1,8.91-9.19A8.31,8.31,0,0,1,128,24c1.36,1.36,2.31,4.27,3,6.05a2.44,2.44,0,0,0,.71,1c1.16.91,2.34,1.82,3.56,2.63s2.58,1.58,4,2.45c0-.35,0-1.79,0-1.91a21.29,21.29,0,0,0-6.64-15.57"/><path class="cls-2" d="M2,204.13H.1L4.3,193H6l4.14,11.18H8.25l-2.76-8.31-.31-1.07-.33,1.07Zm.24-2.71.3-1.29H7.57l.31,1.29Z"/><path class="cls-2" d="M11.45,207.81v-12H13v1l.15.18v6.42l0,.34,0,1.36v2.66Zm3.06-3.56a3.68,3.68,0,0,1-1.28-.19,3,3,0,0,1-.66-.31l.6-1.1a1.52,1.52,0,0,0,.6.28,3.6,3.6,0,0,0,.86.09,2,2,0,0,0,1.16-.36,2.46,2.46,0,0,0,.81-1.06,4.48,4.48,0,0,0,.32-1.7,3.42,3.42,0,0,0-.52-2.17,1.77,1.77,0,0,0-1.48-.67,2.33,2.33,0,0,0-1,.22,3.87,3.87,0,0,0-.71.43l-.27-.85c.11-.12.27-.27.47-.45a2.8,2.8,0,0,1,.79-.47,3.12,3.12,0,0,1,1.23-.21,3.28,3.28,0,0,1,1.63.43,3.07,3.07,0,0,1,1.2,1.31,4.67,4.67,0,0,1,.46,2.21,5.31,5.31,0,0,1-.52,2.38,3.91,3.91,0,0,1-1.45,1.61A4.08,4.08,0,0,1,14.51,204.25Z"/><path class="cls-2" d="M20.49,204.13v-8.28H22l.12,1.06.14.63v6.59ZM22.12,198,22,196.91a1.75,1.75,0,0,1,.47-.51,3.31,3.31,0,0,1,.85-.48,2.61,2.61,0,0,1,1-.2l.49,0a.79.79,0,0,1,.3.08v1.61a1.59,1.59,0,0,0-.34-.12,2.56,2.56,0,0,0-.73-.07,2.37,2.37,0,0,0-.83.13,3.27,3.27,0,0,0-.65.31A3.71,3.71,0,0,0,22.12,198Z"/><path class="cls-2" d="M29.67,204.25a3.43,3.43,0,0,1-2.76-1.13A4.7,4.7,0,0,1,26,200a5.27,5.27,0,0,1,.42-2.16,3.48,3.48,0,0,1,1.27-1.51,3.65,3.65,0,0,1,2.06-.58,3.28,3.28,0,0,1,1.18.18,2.84,2.84,0,0,1,1,.59,2.91,2.91,0,0,1,.68,1,4.15,4.15,0,0,1,.27,1.4c0,.31,0,.59,0,.83a3.18,3.18,0,0,1-.07.66H26.94l.15-1.09h4.1a4.61,4.61,0,0,0-.07-1.13,1.6,1.6,0,0,0-.46-.86,1.5,1.5,0,0,0-1.05-.33,1.73,1.73,0,0,0-1,.32,2.09,2.09,0,0,0-.72,1.09,6.21,6.21,0,0,0-.21,2.1A3.11,3.11,0,0,0,28,202a1.94,1.94,0,0,0,.88.78,3.16,3.16,0,0,0,1.22.23,3.91,3.91,0,0,0,.69-.07,6.49,6.49,0,0,0,.79-.16,2.54,2.54,0,0,0,.59-.22l.32,1a2.67,2.67,0,0,1-.74.4,7.36,7.36,0,0,1-1,.27A6.62,6.62,0,0,1,29.67,204.25Z"/><path class="cls-2" d="M34.81,204.13v-8.28h1.54v.88a6.66,6.66,0,0,1,1.77-.83,4.07,4.07,0,0,1,1.08-.18,2.18,2.18,0,0,1,1.91.69A4.16,4.16,0,0,1,41.7,199v5.17H40v-5.08a3.05,3.05,0,0,0-.28-1.5c-.19-.3-.59-.44-1.21-.4a2.3,2.3,0,0,0-.6.09,3.83,3.83,0,0,0-.69.25,3.11,3.11,0,0,0-.68.4v6.24Z"/><path class="cls-2" d="M46.9,204.25a3.12,3.12,0,0,1-1.62-.43,3.09,3.09,0,0,1-1.21-1.31,4.76,4.76,0,0,1-.46-2.23,5.14,5.14,0,0,1,.52-2.37,4,4,0,0,1,1.46-1.6,4.11,4.11,0,0,1,2.19-.58,3.74,3.74,0,0,1,1.29.19,2,2,0,0,1,.66.31l-.61,1.09a1.24,1.24,0,0,0-.59-.27,4.51,4.51,0,0,0-.87-.07,1.93,1.93,0,0,0-1.15.35,2.34,2.34,0,0,0-.81,1,4.28,4.28,0,0,0-.32,1.71,3.43,3.43,0,0,0,.51,2.14,1.78,1.78,0,0,0,1.48.68,2.31,2.31,0,0,0,1-.22,3.16,3.16,0,0,0,.71-.42l.29.85c-.12.13-.28.28-.48.46a2.58,2.58,0,0,1-.79.47A3.18,3.18,0,0,1,46.9,204.25Zm2.31-.12V203l-.09,0v-5.87l.06-.05-.06-1.63V192h1.71v12.11Z"/><path class="cls-2" d="M56.49,204.25a3.39,3.39,0,0,1-2.75-1.13,4.65,4.65,0,0,1-1-3.14,5.11,5.11,0,0,1,.43-2.16,3.46,3.46,0,0,1,1.26-1.51,3.67,3.67,0,0,1,2.06-.58,3.28,3.28,0,0,1,1.18.18,2.74,2.74,0,0,1,1.65,1.57,3.71,3.71,0,0,1,.27,1.4v.83a4.05,4.05,0,0,1-.07.66H53.77l.15-1.09H58a4.17,4.17,0,0,0-.07-1.13,1.54,1.54,0,0,0-.46-.86,1.47,1.47,0,0,0-1-.33,1.75,1.75,0,0,0-1,.32,2.08,2.08,0,0,0-.71,1.09,6.21,6.21,0,0,0-.21,2.1,3,3,0,0,0,.38,1.48,1.89,1.89,0,0,0,.88.78,3.11,3.11,0,0,0,1.21.23,3.82,3.82,0,0,0,.69-.07,6.66,6.66,0,0,0,.8-.16,2.44,2.44,0,0,0,.58-.22l.33,1a2.6,2.6,0,0,1-.75.4,7.22,7.22,0,0,1-1,.27A6.74,6.74,0,0,1,56.49,204.25Z"/><path class="cls-2" d="M61.63,204.13v-8.28h1.54v.88a8.08,8.08,0,0,1,.77-.44,7.07,7.07,0,0,1,1-.39,4.07,4.07,0,0,1,1.08-.18,2.2,2.2,0,0,1,1.91.69,4.16,4.16,0,0,1,.58,2.55v5.17H66.8v-5.08a2.94,2.94,0,0,0-.28-1.5c-.18-.3-.59-.44-1.21-.4a2.43,2.43,0,0,0-.6.09,4.47,4.47,0,0,0-.69.25,3,3,0,0,0-.67.4v6.24Z"/><path class="cls-2" d="M73.72,204.25a3.1,3.1,0,0,1-2.83-1.74,4.89,4.89,0,0,1-.45-2.23,5.14,5.14,0,0,1,.52-2.37,3.94,3.94,0,0,1,1.45-1.6,4.17,4.17,0,0,1,2.2-.58,3.64,3.64,0,0,1,1.28.19,2.21,2.21,0,0,1,.67.31L76,197.32a1.29,1.29,0,0,0-.59-.27,4.55,4.55,0,0,0-.88-.07,1.92,1.92,0,0,0-1.14.35,2.36,2.36,0,0,0-.82,1,4.28,4.28,0,0,0-.31,1.71,3.37,3.37,0,0,0,.5,2.14,1.8,1.8,0,0,0,1.49.68,2.36,2.36,0,0,0,1-.22,3.4,3.4,0,0,0,.71-.42l.28.85c-.12.13-.28.28-.48.46A2.58,2.58,0,0,1,75,204,3.14,3.14,0,0,1,73.72,204.25Zm2.32-.12V203L76,203v-5.87l.06-.05L76,195.44V192h1.71v12.11Z"/><path class="cls-2" d="M83.25,204.25a3.91,3.91,0,0,1-1.72-.35,3.1,3.1,0,0,1-1.14-1,3.92,3.92,0,0,1-.64-1.42,6.56,6.56,0,0,1-.19-1.68,4.68,4.68,0,0,1,.53-2.25,3.35,3.35,0,0,1,1.37-1.37,4,4,0,0,1,1.94-.47,3.52,3.52,0,0,1,2.17.62A3.39,3.39,0,0,1,86.75,198a6.21,6.21,0,0,1,.35,2.19,4.75,4.75,0,0,1-.53,2.24,3.35,3.35,0,0,1-1.36,1.38A4,4,0,0,1,83.25,204.25Zm0-1.21a1.68,1.68,0,0,0,1.53-.77,3.88,3.88,0,0,0,.52-2.18,5.47,5.47,0,0,0-.21-1.57,2.52,2.52,0,0,0-.65-1.13,1.61,1.61,0,0,0-1.13-.43,1.69,1.69,0,0,0-1.53.73,3.82,3.82,0,0,0-.51,2.15,6,6,0,0,0,.2,1.58,2.61,2.61,0,0,0,.65,1.16A1.57,1.57,0,0,0,83.3,203Z"/><path class="cls-2" d="M91.24,203.64l.24-1.26a3.76,3.76,0,0,0,.47.22,6.88,6.88,0,0,0,.85.25,4.31,4.31,0,0,0,1,.12,1.86,1.86,0,0,0,1.09-.24.81.81,0,0,0,.37-.71.79.79,0,0,0-.22-.56,2.19,2.19,0,0,0-.62-.44c-.26-.14-.56-.28-.89-.43a7.28,7.28,0,0,1-1.18-.66,2.69,2.69,0,0,1-.8-.85,2.12,2.12,0,0,1-.28-1.16,1.85,1.85,0,0,1,.43-1.22,2.42,2.42,0,0,1,1.09-.73,4.63,4.63,0,0,1,1.53-.24,5.54,5.54,0,0,1,1.37.16,3.65,3.65,0,0,1,.78.28l-.26,1.29a1.5,1.5,0,0,0-.41-.22,3.49,3.49,0,0,0-.64-.17,3.81,3.81,0,0,0-.75-.07,2.34,2.34,0,0,0-1.15.22.73.73,0,0,0-.4.61.92.92,0,0,0,.38.82,6.86,6.86,0,0,0,.92.52c.51.25,1,.5,1.38.74a3.37,3.37,0,0,1,1,.82,1.84,1.84,0,0,1,.36,1.16,2.07,2.07,0,0,1-.79,1.76,3.56,3.56,0,0,1-2.19.6,6.74,6.74,0,0,1-1.11-.09,5.3,5.3,0,0,1-1-.23A2.26,2.26,0,0,1,91.24,203.64Z"/><path class="cls-2" d="M102,204.25a3.94,3.94,0,0,1-1.72-.35,3.1,3.1,0,0,1-1.14-1,3.92,3.92,0,0,1-.64-1.42,7,7,0,0,1-.19-1.68,4.79,4.79,0,0,1,.53-2.25,3.41,3.41,0,0,1,1.37-1.37,4,4,0,0,1,1.94-.47,3.5,3.5,0,0,1,2.17.62A3.39,3.39,0,0,1,105.5,198a6.21,6.21,0,0,1,.35,2.19,4.75,4.75,0,0,1-.53,2.24,3.35,3.35,0,0,1-1.36,1.38A4,4,0,0,1,102,204.25Zm0-1.21a1.71,1.71,0,0,0,1.54-.77,4,4,0,0,0,.51-2.18,5.48,5.48,0,0,0-.2-1.57,2.53,2.53,0,0,0-.66-1.13,1.61,1.61,0,0,0-1.13-.43,1.69,1.69,0,0,0-1.53.73,3.82,3.82,0,0,0-.51,2.15,5.64,5.64,0,0,0,.21,1.58,2.6,2.6,0,0,0,.64,1.16A1.57,1.57,0,0,0,102.05,203Z"/><path class="cls-2" d="M107.81,192.05h1.72v3.39l-.06,1.46.06,0v6l-1.72.76Zm3,12.22a7.5,7.5,0,0,1-.93-.06c-.32-.05-.63-.1-.91-.17a6.77,6.77,0,0,1-.75-.19,2.32,2.32,0,0,1-.42-.18l1.72-.94a1.38,1.38,0,0,0,.57.22,3.84,3.84,0,0,0,.9.08,1.94,1.94,0,0,0,1.15-.36,2.4,2.4,0,0,0,.81-1.06,4.55,4.55,0,0,0,.32-1.72,3.46,3.46,0,0,0-.51-2.15,1.8,1.8,0,0,0-1.49-.68,2.29,2.29,0,0,0-1,.22,5.31,5.31,0,0,0-.72.42l-.27-.85a5.46,5.46,0,0,1,.47-.44,2.8,2.8,0,0,1,.79-.47,3.14,3.14,0,0,1,1.24-.21,3.22,3.22,0,0,1,1.62.43,3.07,3.07,0,0,1,1.2,1.31,4.67,4.67,0,0,1,.46,2.21,5.18,5.18,0,0,1-.53,2.38,4,4,0,0,1-1.47,1.62A4.16,4.16,0,0,1,110.82,204.27Z"/><path class="cls-2" d="M116.85,204.13v-8.28h1.46l.12,1.06.14.63v6.59Zm1.63-6.09-.11-1.13a1.75,1.75,0,0,1,.47-.51,3.31,3.31,0,0,1,.85-.48,2.61,2.61,0,0,1,1-.2l.49,0a.79.79,0,0,1,.3.08v1.61a1.59,1.59,0,0,0-.34-.12,2.56,2.56,0,0,0-.73-.07,2.37,2.37,0,0,0-.83.13,3.27,3.27,0,0,0-.65.31A3.71,3.71,0,0,0,118.48,198Z"/><path class="cls-2" d="M126,204.25a3.39,3.39,0,0,1-2.75-1.13,4.65,4.65,0,0,1-1-3.14,5.11,5.11,0,0,1,.43-2.16,3.46,3.46,0,0,1,1.26-1.51,3.67,3.67,0,0,1,2.06-.58,3.28,3.28,0,0,1,1.18.18,2.74,2.74,0,0,1,1.65,1.57,3.71,3.71,0,0,1,.27,1.4v.83a4.05,4.05,0,0,1-.07.66h-5.78l.15-1.09h4.09a4.17,4.17,0,0,0-.07-1.13,1.54,1.54,0,0,0-.46-.86,1.49,1.49,0,0,0-1-.33,1.75,1.75,0,0,0-1,.32,2.08,2.08,0,0,0-.71,1.09,6.21,6.21,0,0,0-.21,2.1,3,3,0,0,0,.38,1.48,1.89,1.89,0,0,0,.88.78,3.11,3.11,0,0,0,1.21.23,3.82,3.82,0,0,0,.69-.07,6.66,6.66,0,0,0,.8-.16,2.44,2.44,0,0,0,.58-.22l.33,1a2.6,2.6,0,0,1-.75.4,7.22,7.22,0,0,1-1,.27A6.74,6.74,0,0,1,126,204.25Z"/><path class="cls-2" d="M135.83,204.25a2.79,2.79,0,0,1-1.32-.29,2.17,2.17,0,0,1-.91-.84,2.38,2.38,0,0,1-.33-1.27,2.12,2.12,0,0,1,.43-1.35,2.84,2.84,0,0,1,1.15-.87,6.2,6.2,0,0,1,1-.31,8.63,8.63,0,0,1,1.12-.16,9.56,9.56,0,0,1,1,0l.36.45-.36.61a6.24,6.24,0,0,0-.69,0,7,7,0,0,0-.8.12,2.92,2.92,0,0,0-.67.22,2,2,0,0,0-.64.44,1.09,1.09,0,0,0-.25.75,1.22,1.22,0,0,0,.35.94,1.43,1.43,0,0,0,1,.32,2.53,2.53,0,0,0,.71-.1,4,4,0,0,0,.62-.24,1.27,1.27,0,0,0,.34-.23l.35.36-.25.64a3.23,3.23,0,0,1-.94.56A3.4,3.4,0,0,1,135.83,204.25Zm3.92-.12h-1.62V202.9H138v-4.57a1,1,0,0,0-.38-1,2.06,2.06,0,0,0-1.09-.23,5.47,5.47,0,0,0-1,.09,6.7,6.7,0,0,0-.91.23,2.85,2.85,0,0,0-.64.28l-.41-1.24a6.48,6.48,0,0,1,.66-.29c.33-.12.71-.23,1.14-.34a5.81,5.81,0,0,1,1.29-.15,5.25,5.25,0,0,1,1.62.22,1.87,1.87,0,0,1,1,.8,3.24,3.24,0,0,1,.36,1.69Z"/><path class="cls-2" d="M147.56,204.25a3.1,3.1,0,0,1-2.83-1.74,4.89,4.89,0,0,1-.45-2.23,5.14,5.14,0,0,1,.52-2.37,3.94,3.94,0,0,1,1.45-1.6,4.17,4.17,0,0,1,2.2-.58,3.64,3.64,0,0,1,1.28.19,2.21,2.21,0,0,1,.67.31l-.61,1.09a1.28,1.28,0,0,0-.6-.27,4.37,4.37,0,0,0-.87-.07,1.92,1.92,0,0,0-1.14.35,2.36,2.36,0,0,0-.82,1,4.28,4.28,0,0,0-.31,1.71,3.37,3.37,0,0,0,.5,2.14,1.8,1.8,0,0,0,1.49.68,2.36,2.36,0,0,0,1-.22,3.4,3.4,0,0,0,.71-.42l.28.85c-.12.13-.28.28-.48.46a2.58,2.58,0,0,1-.79.47A3.14,3.14,0,0,1,147.56,204.25Zm2.32-.12V203l-.09,0v-5.87l.06-.05-.06-1.63V192h1.71v12.11Z"/><path class="cls-2" d="M157.16,204.25a3.43,3.43,0,0,1-2.76-1.13,4.7,4.7,0,0,1-1-3.14,5.27,5.27,0,0,1,.43-2.16,3.48,3.48,0,0,1,1.27-1.51,3.65,3.65,0,0,1,2.06-.58,3.28,3.28,0,0,1,1.18.18,2.84,2.84,0,0,1,1,.59,2.76,2.76,0,0,1,.67,1,3.91,3.91,0,0,1,.28,1.4c0,.31,0,.59,0,.83a4.05,4.05,0,0,1-.07.66h-5.78l.15-1.09h4.1a4.61,4.61,0,0,0-.07-1.13,1.6,1.6,0,0,0-.46-.86,1.5,1.5,0,0,0-1.05-.33,1.71,1.71,0,0,0-1,.32,2.09,2.09,0,0,0-.72,1.09,6.21,6.21,0,0,0-.21,2.1,3.11,3.11,0,0,0,.38,1.48,1.94,1.94,0,0,0,.88.78,3.16,3.16,0,0,0,1.22.23,4,4,0,0,0,.69-.07,6.91,6.91,0,0,0,.79-.16,2.54,2.54,0,0,0,.59-.22l.32,1a2.6,2.6,0,0,1-.75.4,6.87,6.87,0,0,1-1,.27A6.62,6.62,0,0,1,157.16,204.25Z"/><path class="cls-2" d="M162.22,207.81v-12h1.57v1l.14.18v10.78Zm3.06-3.56a3.64,3.64,0,0,1-1.28-.19,3,3,0,0,1-.66-.31l.59-1.1a1.52,1.52,0,0,0,.6.28,3.69,3.69,0,0,0,.87.09,2,2,0,0,0,1.16-.36,2.46,2.46,0,0,0,.81-1.06,4.48,4.48,0,0,0,.32-1.7,3.42,3.42,0,0,0-.52-2.17,1.77,1.77,0,0,0-1.48-.67,2.31,2.31,0,0,0-1,.22,4.4,4.4,0,0,0-.72.43l-.26-.85c.11-.12.27-.27.47-.45a2.66,2.66,0,0,1,.79-.47,3.12,3.12,0,0,1,1.23-.21,3.28,3.28,0,0,1,1.63.43,3.07,3.07,0,0,1,1.2,1.31,4.8,4.8,0,0,1,.46,2.21,5.31,5.31,0,0,1-.52,2.38,3.91,3.91,0,0,1-1.45,1.61A4.08,4.08,0,0,1,165.28,204.25Z"/><path class="cls-2" d="M174.58,204.25a3.41,3.41,0,0,1-2.75-1.13,4.65,4.65,0,0,1-1-3.14,5.11,5.11,0,0,1,.43-2.16,3.48,3.48,0,0,1,1.27-1.51,3.63,3.63,0,0,1,2.06-.58,3.26,3.26,0,0,1,1.17.18,2.89,2.89,0,0,1,1,.59,2.76,2.76,0,0,1,.67,1,3.71,3.71,0,0,1,.27,1.4v.83a4.05,4.05,0,0,1-.07.66h-5.78l.15-1.09h4.09a3.8,3.8,0,0,0-.07-1.13,1.54,1.54,0,0,0-.46-.86,1.46,1.46,0,0,0-1-.33,1.76,1.76,0,0,0-1.05.32,2.08,2.08,0,0,0-.71,1.09,6.21,6.21,0,0,0-.21,2.1,3.11,3.11,0,0,0,.38,1.48,1.89,1.89,0,0,0,.88.78A3.11,3.11,0,0,0,175,203a3.82,3.82,0,0,0,.69-.07,6.66,6.66,0,0,0,.8-.16,2.44,2.44,0,0,0,.58-.22l.33,1a2.6,2.6,0,0,1-.75.4,6.87,6.87,0,0,1-1,.27A6.74,6.74,0,0,1,174.58,204.25Z"/><path class="cls-2" d="M179.72,204.13v-8.28h1.54v.88a8.08,8.08,0,0,1,.77-.44,7.07,7.07,0,0,1,1-.39,4.06,4.06,0,0,1,1.07-.18,2.21,2.21,0,0,1,1.92.69,4.16,4.16,0,0,1,.58,2.55v5.17h-1.73v-5.08a2.94,2.94,0,0,0-.28-1.5c-.18-.3-.59-.44-1.21-.4a2.43,2.43,0,0,0-.6.09,4.47,4.47,0,0,0-.69.25,3,3,0,0,0-.67.4v6.24Z"/><path class="cls-2" d="M191.81,204.25a3.1,3.1,0,0,1-2.83-1.74,4.89,4.89,0,0,1-.45-2.23,5.14,5.14,0,0,1,.52-2.37,3.94,3.94,0,0,1,1.45-1.6,4.17,4.17,0,0,1,2.2-.58,3.64,3.64,0,0,1,1.28.19,2.21,2.21,0,0,1,.67.31l-.61,1.09a1.29,1.29,0,0,0-.59-.27,4.55,4.55,0,0,0-.88-.07,1.92,1.92,0,0,0-1.14.35,2.36,2.36,0,0,0-.82,1,4.28,4.28,0,0,0-.31,1.71,3.37,3.37,0,0,0,.5,2.14,1.8,1.8,0,0,0,1.49.68,2.36,2.36,0,0,0,1-.22,3.4,3.4,0,0,0,.71-.42l.28.85c-.12.13-.28.28-.48.46a2.58,2.58,0,0,1-.79.47A3.14,3.14,0,0,1,191.81,204.25Zm2.32-.12V203l-.09,0v-5.87l.06-.05-.06-1.63V192h1.71v12.11Z"/><path class="cls-2" d="M201.41,204.25a3.43,3.43,0,0,1-2.76-1.13,4.7,4.7,0,0,1-1-3.14,5.27,5.27,0,0,1,.42-2.16,3.48,3.48,0,0,1,1.27-1.51,3.65,3.65,0,0,1,2.06-.58,3.28,3.28,0,0,1,1.18.18,2.84,2.84,0,0,1,1,.59,2.78,2.78,0,0,1,.68,1,4.15,4.15,0,0,1,.27,1.4c0,.31,0,.59,0,.83a3.18,3.18,0,0,1-.07.66h-5.78l.15-1.09h4.1a4.61,4.61,0,0,0-.07-1.13,1.6,1.6,0,0,0-.46-.86,1.5,1.5,0,0,0-1.05-.33,1.73,1.73,0,0,0-1,.32,2.09,2.09,0,0,0-.72,1.09,6.21,6.21,0,0,0-.21,2.1,3.11,3.11,0,0,0,.38,1.48,1.94,1.94,0,0,0,.88.78,3.16,3.16,0,0,0,1.22.23,3.91,3.91,0,0,0,.69-.07,6.49,6.49,0,0,0,.79-.16,2.54,2.54,0,0,0,.59-.22l.32,1a2.67,2.67,0,0,1-.74.4,7.36,7.36,0,0,1-1,.27A6.62,6.62,0,0,1,201.41,204.25Zm-1.94-9.36-.82-.44,2.09-2.55h1.35l2,2.55-.9.43-1.83-1.6Z"/><path class="cls-2" d="M206.55,204.13v-8.28h1.54v.88a6.66,6.66,0,0,1,1.77-.83,4.07,4.07,0,0,1,1.08-.18,2.18,2.18,0,0,1,1.91.69,4.16,4.16,0,0,1,.58,2.55v5.17h-1.72v-5.08a3.05,3.05,0,0,0-.28-1.5c-.19-.3-.59-.44-1.21-.4a2.3,2.3,0,0,0-.6.09,3.83,3.83,0,0,0-.69.25,3.11,3.11,0,0,0-.68.4v6.24Z"/><path class="cls-2" d="M215.26,200.08a5.26,5.26,0,0,1,.45-2.21,3.63,3.63,0,0,1,1.34-1.56,4.06,4.06,0,0,1,2.23-.58,5.08,5.08,0,0,1,1.33.15,2.53,2.53,0,0,1,.74.27l-.26,1.36a2.11,2.11,0,0,0-.76-.33,4.54,4.54,0,0,0-1.06-.11,2.35,2.35,0,0,0-1.08.28,2.18,2.18,0,0,0-.87.86,3.34,3.34,0,0,0-.39,1.58,4.12,4.12,0,0,0,.27,1.73,2.32,2.32,0,0,0,.84,1.06,2.05,2.05,0,0,0,1.18.36,4.16,4.16,0,0,0,1.15-.15,3.73,3.73,0,0,0,.79-.32l.33,1a2.84,2.84,0,0,1-1.07.58,5.14,5.14,0,0,1-1.48.21,3.46,3.46,0,0,1-2-.55,3.51,3.51,0,0,1-1.25-1.49A5,5,0,0,1,215.26,200.08Z"/><path class="cls-2" d="M224,194.39a1.17,1.17,0,0,1-.76-.28.91.91,0,0,1-.32-.75,1,1,0,0,1,.18-.59,1.35,1.35,0,0,1,.46-.43,1.27,1.27,0,0,1,.59-.16,1,1,0,0,1,.8.3,1,1,0,0,1,.27.73,1.1,1.1,0,0,1-.37.84A1.21,1.21,0,0,1,224,194.39Zm-.76,9.74v-8.28H225v8.28Z"/><path class="cls-2" d="M229.58,204.25a2.86,2.86,0,0,1-1.33-.29,2.3,2.3,0,0,1-.91-.84,2.38,2.38,0,0,1-.33-1.27,2.18,2.18,0,0,1,.43-1.35,2.9,2.9,0,0,1,1.15-.87,6,6,0,0,1,1-.31,8.48,8.48,0,0,1,1.11-.16,9.74,9.74,0,0,1,1,0l.36.45-.36.61a6.41,6.41,0,0,0-.7,0,7.36,7.36,0,0,0-.8.12,3.29,3.29,0,0,0-.67.22,2.09,2.09,0,0,0-.63.44,1,1,0,0,0-.25.75,1.22,1.22,0,0,0,.34.94,1.45,1.45,0,0,0,1,.32,2.48,2.48,0,0,0,.71-.1,3.35,3.35,0,0,0,.62-.24,1.38,1.38,0,0,0,.35-.23l.34.36-.24.64a3.64,3.64,0,0,1-2.3.82Zm3.92-.12h-1.62V202.9h-.1v-4.57a1.07,1.07,0,0,0-.38-1,2.1,2.1,0,0,0-1.1-.23,5.36,5.36,0,0,0-1,.09,6.86,6.86,0,0,0-.92.23,3.08,3.08,0,0,0-.64.28l-.4-1.24a4.88,4.88,0,0,1,.66-.29,10.71,10.71,0,0,1,1.14-.34,5.68,5.68,0,0,1,1.29-.15,5.14,5.14,0,0,1,1.61.22,1.81,1.81,0,0,1,1,.8,3.14,3.14,0,0,1,.37,1.69Z"/><path class="cls-2" d="M241.3,204.25a3.17,3.17,0,0,1-1.62-.43,3.13,3.13,0,0,1-1.2-1.31,4.76,4.76,0,0,1-.46-2.23,5.14,5.14,0,0,1,.52-2.37,4,4,0,0,1,1.46-1.6,4.11,4.11,0,0,1,2.19-.58,4.45,4.45,0,0,1,1.37.19,2.17,2.17,0,0,1,.74.31l-.75,1.09a1.37,1.37,0,0,0-.61-.27,4.55,4.55,0,0,0-.88-.07,1.92,1.92,0,0,0-1.14.35,2.34,2.34,0,0,0-.81,1,4.28,4.28,0,0,0-.32,1.71,3.43,3.43,0,0,0,.51,2.14,1.78,1.78,0,0,0,1.48.68,2.38,2.38,0,0,0,1.05-.22,3.26,3.26,0,0,0,.72-.42l.26.85a5.23,5.23,0,0,1-.47.46,2.58,2.58,0,0,1-.79.47A3.2,3.2,0,0,1,241.3,204.25Zm2.25.9,0-1.81,0-.67V197l.16-.18,0-.73,1.51-.28v12h-1.71Z"/><path class="cls-2" d="M250.05,204.25a2.91,2.91,0,0,1-1.31-.25,1.79,1.79,0,0,1-.76-.73,3.28,3.28,0,0,1-.35-1.12,10.79,10.79,0,0,1-.09-1.46v-4.85h1.71v4.84a5,5,0,0,0,.15,1.44.89.89,0,0,0,.48.6,2.25,2.25,0,0,0,.84.13,2.61,2.61,0,0,0,.66-.09,6.19,6.19,0,0,0,.65-.22,3.44,3.44,0,0,0,.48-.25v-6.45h1.72v8.41h-.79a1.23,1.23,0,0,1-.55-.1c-.13-.06-.2-.23-.2-.51v-.58l0,.33a4.71,4.71,0,0,1-.78.42,6.24,6.24,0,0,1-.95.32A3.91,3.91,0,0,1,250.05,204.25Z"/><path class="cls-2" d="M257.26,194.77l-.78-.65c.28-.29.56-.61.85-1s.58-.69.86-1,.53-.71.76-1.06l1.11.93a3.26,3.26,0,0,1-.38.52c-.18.21-.38.44-.61.68s-.46.48-.7.7-.45.42-.65.58A1.72,1.72,0,0,1,257.26,194.77Zm-.41,9.36v-8.28h1.71v8.28Z"/><path class="cls-2" d="M261.18,204.13v-8.28h1.54v.88a7.79,7.79,0,0,1,.76-.44,6.93,6.93,0,0,1,1-.39,3.93,3.93,0,0,1,1.07-.18A2.69,2.69,0,0,1,267,196a1.79,1.79,0,0,1,.79,1,5.94,5.94,0,0,1,.25,1.93v5.19h-1.71v-5.08a4.27,4.27,0,0,0-.12-1.11,1,1,0,0,0-.43-.62,1.6,1.6,0,0,0-.92-.16,2.89,2.89,0,0,0-.94.19,3.77,3.77,0,0,0-1,.54v6.24ZM268,197.9l-.37-1.09a5.08,5.08,0,0,1,.78-.49,7.18,7.18,0,0,1,1.05-.42,4,4,0,0,1,1.17-.18A2.91,2.91,0,0,1,272,196a1.81,1.81,0,0,1,.83,1,5.91,5.91,0,0,1,.26,1.93v5.19h-1.72v-5.08a4.82,4.82,0,0,0-.11-1.11,1,1,0,0,0-.41-.62,1.64,1.64,0,0,0-.93-.16,2.75,2.75,0,0,0-1,.21A3.88,3.88,0,0,0,268,197.9Z"/><path class="cls-2" d="M276.43,194.39a1.14,1.14,0,0,1-.75-.28.92.92,0,0,1-.33-.75,1,1,0,0,1,.19-.59,1.35,1.35,0,0,1,.46-.43,1.27,1.27,0,0,1,.59-.16,1,1,0,0,1,.8.3,1,1,0,0,1,.26.73,1.09,1.09,0,0,1-.36.84A1.22,1.22,0,0,1,276.43,194.39Zm-.76,9.74v-8.28h1.72v8.28Z"/><path class="cls-2" d="M279.32,200.08a5.26,5.26,0,0,1,.45-2.21,3.63,3.63,0,0,1,1.34-1.56,4.08,4.08,0,0,1,2.23-.58,5,5,0,0,1,1.33.15,2.53,2.53,0,0,1,.74.27l-.26,1.36a2.11,2.11,0,0,0-.76-.33,4.54,4.54,0,0,0-1.06-.11,2.35,2.35,0,0,0-1.08.28,2.18,2.18,0,0,0-.87.86,3.34,3.34,0,0,0-.39,1.58,4.12,4.12,0,0,0,.27,1.73,2.32,2.32,0,0,0,.84,1.06,2.05,2.05,0,0,0,1.18.36,4.16,4.16,0,0,0,1.15-.15,3.73,3.73,0,0,0,.79-.32l.33,1a2.84,2.84,0,0,1-1.07.58,5.14,5.14,0,0,1-1.48.21,3.46,3.46,0,0,1-2-.55,3.51,3.51,0,0,1-1.25-1.49A5,5,0,0,1,279.32,200.08Z"/><path class="cls-2" d="M289.24,204.25a2.82,2.82,0,0,1-1.32-.29,2.23,2.23,0,0,1-.91-.84,2.38,2.38,0,0,1-.33-1.27,2.12,2.12,0,0,1,.43-1.35,2.84,2.84,0,0,1,1.15-.87,6.2,6.2,0,0,1,1-.31,8.88,8.88,0,0,1,1.12-.16,9.62,9.62,0,0,1,1,0l.35.45-.35.61a6.28,6.28,0,0,0-.7,0,7,7,0,0,0-.8.12,3.1,3.1,0,0,0-.67.22,2.09,2.09,0,0,0-.63.44,1.05,1.05,0,0,0-.26.75,1.22,1.22,0,0,0,.35.94,1.43,1.43,0,0,0,1,.32,2.53,2.53,0,0,0,.71-.1,3.65,3.65,0,0,0,.62-.24,1.38,1.38,0,0,0,.35-.23l.34.36-.25.64a3.1,3.1,0,0,1-.94.56A3.37,3.37,0,0,1,289.24,204.25Zm3.93-.12h-1.63V202.9h-.09v-4.57a1,1,0,0,0-.39-1,2.06,2.06,0,0,0-1.09-.23,5.56,5.56,0,0,0-1,.09,7.1,7.1,0,0,0-.91.23,3.08,3.08,0,0,0-.64.28l-.41-1.24a6.48,6.48,0,0,1,.66-.29c.33-.12.71-.23,1.14-.34a5.83,5.83,0,0,1,1.3-.15,5.18,5.18,0,0,1,1.61.22,1.87,1.87,0,0,1,1.05.8,3.23,3.23,0,0,1,.37,1.69Z"/><path class="cls-2" d="M34.11,220.57a3.4,3.4,0,0,1-2.75-1.14,4.65,4.65,0,0,1-1-3.14,5.18,5.18,0,0,1,.43-2.16,3.45,3.45,0,0,1,1.26-1.51,3.75,3.75,0,0,1,2.06-.57,3.28,3.28,0,0,1,1.18.18,2.67,2.67,0,0,1,1,.58,2.73,2.73,0,0,1,.68,1,4.09,4.09,0,0,1,.27,1.39c0,.31,0,.59,0,.84a3.16,3.16,0,0,1-.07.65H31.38l.15-1.09h4.1a4.64,4.64,0,0,0-.07-1.13,1.6,1.6,0,0,0-.46-.86,1.5,1.5,0,0,0-1.05-.33,1.8,1.8,0,0,0-1,.32,2.09,2.09,0,0,0-.72,1.09,6.48,6.48,0,0,0-.21,2.1,3.23,3.23,0,0,0,.38,1.48,1.88,1.88,0,0,0,.88.78,3.19,3.19,0,0,0,1.22.23,4.82,4.82,0,0,0,.69-.06A6.5,6.5,0,0,0,36,219a2.16,2.16,0,0,0,.59-.22l.33,1a2.62,2.62,0,0,1-.75.39,5.35,5.35,0,0,1-1,.27A6.56,6.56,0,0,1,34.11,220.57Z"/><path class="cls-2" d="M39.25,220.45v-8.28h1.54V213a7.93,7.93,0,0,1,.76-.43,6,6,0,0,1,1-.4,3.93,3.93,0,0,1,1.07-.18,2.71,2.71,0,0,1,1.44.28,1.78,1.78,0,0,1,.79,1,5.9,5.9,0,0,1,.25,1.93v5.19H44.4v-5.09a4.27,4.27,0,0,0-.12-1.11,1,1,0,0,0-.43-.62,1.6,1.6,0,0,0-.92-.16,3.18,3.18,0,0,0-.94.19,3.55,3.55,0,0,0-1,.55v6.24ZM46,214.21l-.37-1.08a3.8,3.8,0,0,1,.77-.49,6.71,6.71,0,0,1,1.06-.43,4.74,4.74,0,0,1,1.17-.18,2.91,2.91,0,0,1,1.44.29,1.79,1.79,0,0,1,.83,1,5.91,5.91,0,0,1,.26,1.93v5.2H49.46v-5.09a4.82,4.82,0,0,0-.11-1.11,1,1,0,0,0-.42-.62,1.58,1.58,0,0,0-.92-.16,2.84,2.84,0,0,0-1,.21A4.76,4.76,0,0,0,46,214.21Z"/><path class="cls-2" d="M56.36,220.45v-8.28H57.9V213a8.23,8.23,0,0,1,.77-.43,5.53,5.53,0,0,1,1-.4,4,4,0,0,1,1.07-.18,2.67,2.67,0,0,1,1.44.28,1.74,1.74,0,0,1,.79,1,5.9,5.9,0,0,1,.25,1.93v5.19H61.51v-5.09a4.27,4.27,0,0,0-.12-1.11,1,1,0,0,0-.42-.62,1.64,1.64,0,0,0-.93-.16,3.07,3.07,0,0,0-.93.19,3.31,3.31,0,0,0-1,.55v6.24Zm6.77-6.24-.36-1.08a3.54,3.54,0,0,1,.77-.49,6,6,0,0,1,1.06-.43,4.6,4.6,0,0,1,1.16-.18,3,3,0,0,1,1.45.29,1.77,1.77,0,0,1,.82,1,5.65,5.65,0,0,1,.26,1.93v5.2H66.57v-5.09a4.32,4.32,0,0,0-.11-1.11,1,1,0,0,0-.41-.62,1.64,1.64,0,0,0-.93-.16,2.75,2.75,0,0,0-1,.21A4.84,4.84,0,0,0,63.13,214.21Z"/><path class="cls-2" d="M73.12,220.57a2.88,2.88,0,0,1-1.31-.26,1.77,1.77,0,0,1-.76-.72,3.34,3.34,0,0,1-.35-1.13,9.26,9.26,0,0,1-.1-1.45v-4.86h1.71V217a5,5,0,0,0,.16,1.45.88.88,0,0,0,.47.59,2.42,2.42,0,0,0,1.5,0,4.13,4.13,0,0,0,.65-.22,3.12,3.12,0,0,0,.49-.25v-6.45h1.71v8.42H76.5a1.3,1.3,0,0,1-.54-.1c-.14-.07-.2-.24-.2-.51v-.58l0,.32a5.28,5.28,0,0,1-.79.42,6.12,6.12,0,0,1-.94.32A3.54,3.54,0,0,1,73.12,220.57Z"/><path class="cls-2" d="M79.91,220.45V208.34h1.73v12.11Z"/><path class="cls-2" d="M84.25,220.45V208.34H86v3.41l-.08,1.5-.09-.2a5,5,0,0,1,.76-.47,5.92,5.92,0,0,1,1-.38,4.42,4.42,0,0,1,1.07-.17,2.26,2.26,0,0,1,2,.75,4.27,4.27,0,0,1,.61,2.6v5.07H89.49v-5.09a2.62,2.62,0,0,0-.32-1.47,1.3,1.3,0,0,0-1.22-.41,3.13,3.13,0,0,0-1,.18,3.48,3.48,0,0,0-1,.55v6.24Z"/><path class="cls-2" d="M96.88,220.57a3.42,3.42,0,0,1-2.76-1.14,4.65,4.65,0,0,1-1-3.14,5.18,5.18,0,0,1,.43-2.16,3.54,3.54,0,0,1,1.27-1.51,3.7,3.7,0,0,1,2.06-.57,3.26,3.26,0,0,1,1.17.18,2.67,2.67,0,0,1,1.65,1.57,3.66,3.66,0,0,1,.27,1.39V216a4,4,0,0,1-.07.65H94.15l.15-1.09h4.09a3.83,3.83,0,0,0-.07-1.13,1.54,1.54,0,0,0-.46-.86,1.46,1.46,0,0,0-1-.33,1.83,1.83,0,0,0-1,.32,2.08,2.08,0,0,0-.71,1.09,6.21,6.21,0,0,0-.21,2.1,3.11,3.11,0,0,0,.38,1.48,1.84,1.84,0,0,0,.88.78,3.14,3.14,0,0,0,1.21.23,4.82,4.82,0,0,0,.69-.06,6.66,6.66,0,0,0,.8-.17,2.07,2.07,0,0,0,.58-.22l.33,1a2.38,2.38,0,0,1-.75.39,5.07,5.07,0,0,1-1,.27A6.77,6.77,0,0,1,96.88,220.57Z"/><path class="cls-2" d="M101.87,220.45v-8.28h1.46l.11,1.05.14.63v6.6Zm1.62-6.09-.11-1.14a1.9,1.9,0,0,1,.47-.51,4,4,0,0,1,.85-.48,2.65,2.65,0,0,1,1-.2l.49,0a.76.76,0,0,1,.3.09v1.61a1.51,1.51,0,0,0-.34-.13,2.56,2.56,0,0,0-.73-.07,2.41,2.41,0,0,0-.83.13,2.55,2.55,0,0,0-.64.32A2.21,2.21,0,0,0,103.49,214.36Z"/><path class="cls-2" d="M111.05,220.57a3.41,3.41,0,0,1-2.75-1.14,4.65,4.65,0,0,1-1-3.14,5.18,5.18,0,0,1,.43-2.16,3.47,3.47,0,0,1,1.27-1.51,3.69,3.69,0,0,1,2-.57,3.28,3.28,0,0,1,1.18.18,2.67,2.67,0,0,1,1.65,1.57,3.66,3.66,0,0,1,.27,1.39V216a4,4,0,0,1-.07.65h-5.78l.15-1.09h4.09a3.83,3.83,0,0,0-.07-1.13,1.54,1.54,0,0,0-.46-.86,1.46,1.46,0,0,0-1-.33,1.83,1.83,0,0,0-1,.32,2.08,2.08,0,0,0-.71,1.09,6.21,6.21,0,0,0-.21,2.1,3.11,3.11,0,0,0,.38,1.48,1.84,1.84,0,0,0,.88.78,3.11,3.11,0,0,0,1.21.23,4.82,4.82,0,0,0,.69-.06,6.66,6.66,0,0,0,.8-.17,2.07,2.07,0,0,0,.58-.22l.33,1a2.38,2.38,0,0,1-.75.39,5.07,5.07,0,0,1-1,.27A6.78,6.78,0,0,1,111.05,220.57Z"/><path class="cls-2" d="M115.69,220l.23-1.27a2.1,2.1,0,0,0,.47.22,5.85,5.85,0,0,0,.85.25,4.91,4.91,0,0,0,1,.13,1.93,1.93,0,0,0,1.09-.25.85.85,0,0,0,.15-1.27,2.25,2.25,0,0,0-.62-.44c-.26-.14-.55-.28-.88-.43a7,7,0,0,1-1.19-.66,2.77,2.77,0,0,1-.8-.84,2.24,2.24,0,0,1-.28-1.16,1.89,1.89,0,0,1,.43-1.23,2.44,2.44,0,0,1,1.1-.72,4.55,4.55,0,0,1,1.53-.24,5.15,5.15,0,0,1,1.37.16,3,3,0,0,1,.77.27l-.25,1.29a2,2,0,0,0-.42-.22,3.29,3.29,0,0,0-.64-.17,3.67,3.67,0,0,0-.75-.07,2.45,2.45,0,0,0-1.14.22.69.69,0,0,0-.4.62.91.91,0,0,0,.37.81,7.51,7.51,0,0,0,.92.53c.51.25,1,.49,1.39.73a3.53,3.53,0,0,1,1,.83,1.82,1.82,0,0,1,.36,1.15,2.08,2.08,0,0,1-.8,1.76,3.49,3.49,0,0,1-2.18.61,6.86,6.86,0,0,1-1.12-.09,6.63,6.63,0,0,1-1-.23A2.92,2.92,0,0,1,115.69,220Z"/><path class="cls-2" d="M128,220.57a2.79,2.79,0,0,1-1.32-.3,2.15,2.15,0,0,1-.91-.83,2.41,2.41,0,0,1-.33-1.28,2.12,2.12,0,0,1,.43-1.35,2.84,2.84,0,0,1,1.15-.87,6.2,6.2,0,0,1,1-.31,11.18,11.18,0,0,1,1.12-.16c.37,0,.72-.05,1-.05l.36.45-.36.61a6.24,6.24,0,0,0-.69,0,7,7,0,0,0-.8.13,2.51,2.51,0,0,0-.67.22,2,2,0,0,0-.64.43,1.09,1.09,0,0,0-.25.75,1.25,1.25,0,0,0,.35.95,1.48,1.48,0,0,0,1,.32,2.56,2.56,0,0,0,.71-.11,4,4,0,0,0,.62-.24,1.07,1.07,0,0,0,.34-.23l.35.37-.25.64a3.47,3.47,0,0,1-.94.56A3.58,3.58,0,0,1,128,220.57Zm3.93-.12h-1.63v-1.24h-.1v-4.57a1,1,0,0,0-.38-1,2.16,2.16,0,0,0-1.09-.23,5.47,5.47,0,0,0-1,.09,6.7,6.7,0,0,0-.91.23,3.4,3.4,0,0,0-.64.28l-.41-1.23a4.78,4.78,0,0,1,.66-.29,8.21,8.21,0,0,1,1.14-.34,5.84,5.84,0,0,1,1.29-.16,5.57,5.57,0,0,1,1.62.22,1.87,1.87,0,0,1,1.05.8,3.27,3.27,0,0,1,.37,1.7Z"/><path class="cls-2" d="M133.6,216.4a5.31,5.31,0,0,1,.45-2.22,3.69,3.69,0,0,1,1.34-1.56,4.09,4.09,0,0,1,2.24-.57,5,5,0,0,1,1.32.14,2.75,2.75,0,0,1,.75.27l-.27,1.36a2.13,2.13,0,0,0-.75-.32,4.19,4.19,0,0,0-1.07-.11,2.33,2.33,0,0,0-1.08.27,2.14,2.14,0,0,0-.87.87,3.42,3.42,0,0,0-.39,1.57,4.12,4.12,0,0,0,.27,1.73,2.39,2.39,0,0,0,.84,1.06,2,2,0,0,0,1.19.37,4.13,4.13,0,0,0,1.14-.16,3.27,3.27,0,0,0,.79-.32l.33,1a2.64,2.64,0,0,1-1.07.57,5.09,5.09,0,0,1-1.48.22,3.36,3.36,0,0,1-3.25-2A5.14,5.14,0,0,1,133.6,216.4Z"/><path class="cls-2" d="M144.66,220.57a3.8,3.8,0,0,1-1.72-.36,3,3,0,0,1-1.14-1,3.92,3.92,0,0,1-.64-1.42,6.56,6.56,0,0,1-.19-1.68,4.61,4.61,0,0,1,.53-2.24,3.37,3.37,0,0,1,1.37-1.38,4,4,0,0,1,1.94-.46,3.49,3.49,0,0,1,2.17.61,3.39,3.39,0,0,1,1.18,1.62,6.29,6.29,0,0,1,.35,2.19,4.79,4.79,0,0,1-.53,2.25,3.47,3.47,0,0,1-1.36,1.38A4.09,4.09,0,0,1,144.66,220.57Zm.05-1.22a1.68,1.68,0,0,0,1.54-.77,4,4,0,0,0,.51-2.18,5.78,5.78,0,0,0-.2-1.56,2.48,2.48,0,0,0-.66-1.13,1.53,1.53,0,0,0-1.13-.43,1.66,1.66,0,0,0-1.53.72,3.84,3.84,0,0,0-.51,2.15,5.72,5.72,0,0,0,.21,1.59,2.66,2.66,0,0,0,.64,1.16A1.6,1.6,0,0,0,144.71,219.35Z"/><path class="cls-2" d="M150.54,220.45V208.34h1.73v12.11Z"/><path class="cls-2" d="M154.88,220.45V208.34h1.71v3.41l-.08,1.5-.09-.2a5,5,0,0,1,.76-.47,5.92,5.92,0,0,1,1-.38,4.42,4.42,0,0,1,1.07-.17,2.26,2.26,0,0,1,2,.75,4.34,4.34,0,0,1,.61,2.6v5.07h-1.71v-5.09a2.62,2.62,0,0,0-.32-1.47,1.3,1.3,0,0,0-1.22-.41,3.13,3.13,0,0,0-1,.18,3.48,3.48,0,0,0-1,.55v6.24Z"/><path class="cls-2" d="M165.15,210.7a1.12,1.12,0,0,1-.76-.28.94.94,0,0,1-.32-.75,1,1,0,0,1,.18-.59,1.49,1.49,0,0,1,.47-.43,1.23,1.23,0,0,1,.59-.15,1,1,0,0,1,.79.29,1,1,0,0,1,.27.73,1.09,1.09,0,0,1-.37.85A1.23,1.23,0,0,1,165.15,210.7Zm-.76,9.75v-8.28h1.71v8.28Z"/><path class="cls-2" d="M171.41,220.57a3.18,3.18,0,0,1-1.62-.44,3,3,0,0,1-1.2-1.31,4.69,4.69,0,0,1-.46-2.22,5.11,5.11,0,0,1,.52-2.37,3.93,3.93,0,0,1,1.46-1.61,4.11,4.11,0,0,1,2.19-.57,4,4,0,0,1,1.29.18,2,2,0,0,1,.66.31l-.61,1.09a1.4,1.4,0,0,0-.59-.27,5.5,5.5,0,0,0-.88-.07,2,2,0,0,0-1.14.35,2.43,2.43,0,0,0-.82,1,4.56,4.56,0,0,0-.31,1.72,3.41,3.41,0,0,0,.51,2.13,1.74,1.74,0,0,0,1.48.68,2.48,2.48,0,0,0,1-.21,4.58,4.58,0,0,0,.71-.42l.28.85c-.12.12-.27.27-.47.45a2.81,2.81,0,0,1-.79.48A3.2,3.2,0,0,1,171.41,220.57Zm2.32-.12v-1.11l-.09,0v-5.87l.06,0-.06-1.64v-3.41h1.71v12.11Z"/><path class="cls-2" d="M179.81,220.57a2.79,2.79,0,0,1-1.32-.3,2.15,2.15,0,0,1-.91-.83,2.41,2.41,0,0,1-.33-1.28,2.17,2.17,0,0,1,.42-1.35,2.9,2.9,0,0,1,1.15-.87,6.32,6.32,0,0,1,1-.31,10.41,10.41,0,0,1,1.12-.16c.37,0,.71-.05,1-.05l.36.45-.36.61a6.24,6.24,0,0,0-.69,0,7.19,7.19,0,0,0-.81.13,2.77,2.77,0,0,0-.67.22,2.06,2.06,0,0,0-.63.43,1,1,0,0,0-.25.75,1.24,1.24,0,0,0,.34.95,1.52,1.52,0,0,0,1,.32,2.43,2.43,0,0,0,.7-.11,3.78,3.78,0,0,0,.63-.24,1.07,1.07,0,0,0,.34-.23l.34.37-.24.64a3.39,3.39,0,0,1-1,.56A3.49,3.49,0,0,1,179.81,220.57Zm3.92-.12h-1.62v-1.24H182v-4.57a1.07,1.07,0,0,0-.38-1,2.18,2.18,0,0,0-1.09-.23,5.39,5.39,0,0,0-1,.09,7.27,7.27,0,0,0-.92.23,4.12,4.12,0,0,0-.64.28l-.4-1.23a3.85,3.85,0,0,1,.66-.29,7.46,7.46,0,0,1,1.14-.34,5.69,5.69,0,0,1,1.29-.16,5.45,5.45,0,0,1,1.61.22,1.81,1.81,0,0,1,1.05.8,3.18,3.18,0,0,1,.37,1.7Z"/><path class="cls-2" d="M185.66,220l.24-1.27a2,2,0,0,0,.46.22,5.85,5.85,0,0,0,.85.25,4.92,4.92,0,0,0,1,.13,1.9,1.9,0,0,0,1.08-.25.83.83,0,0,0,.15-1.27,2.34,2.34,0,0,0-.61-.44c-.26-.14-.56-.28-.89-.43a6.88,6.88,0,0,1-1.18-.66,2.69,2.69,0,0,1-.81-.84,2.15,2.15,0,0,1-.27-1.16,1.89,1.89,0,0,1,.42-1.23,2.44,2.44,0,0,1,1.1-.72,4.63,4.63,0,0,1,1.53-.24,5.1,5.1,0,0,1,1.37.16,3,3,0,0,1,.77.27l-.25,1.29a2.11,2.11,0,0,0-.41-.22,3.4,3.4,0,0,0-.65-.17,3.64,3.64,0,0,0-.74-.07,2.46,2.46,0,0,0-1.15.22.71.71,0,0,0-.4.62.91.91,0,0,0,.37.81,8.35,8.35,0,0,0,.92.53c.52.25,1,.49,1.39.73a3.39,3.39,0,0,1,1,.83,1.82,1.82,0,0,1,.36,1.15,2.08,2.08,0,0,1-.8,1.76,3.49,3.49,0,0,1-2.18.61,6.82,6.82,0,0,1-2.07-.32A2.92,2.92,0,0,1,185.66,220Z"/><path class="cls-2" d="M199.17,220.57a3.43,3.43,0,0,1-2.76-1.14,4.7,4.7,0,0,1-1-3.14,5.34,5.34,0,0,1,.42-2.16,3.54,3.54,0,0,1,1.27-1.51,3.73,3.73,0,0,1,2.06-.57,3.28,3.28,0,0,1,1.18.18,2.67,2.67,0,0,1,1,.58,2.86,2.86,0,0,1,.68,1,4.09,4.09,0,0,1,.27,1.39c0,.31,0,.59,0,.84a3.16,3.16,0,0,1-.07.65h-5.78l.15-1.09h4.1a4.64,4.64,0,0,0-.07-1.13,1.6,1.6,0,0,0-.46-.86,1.5,1.5,0,0,0-1-.33,1.8,1.8,0,0,0-1,.32,2.09,2.09,0,0,0-.72,1.09,6.21,6.21,0,0,0-.21,2.1,3.11,3.11,0,0,0,.38,1.48,1.88,1.88,0,0,0,.88.78,3.16,3.16,0,0,0,1.22.23,4.94,4.94,0,0,0,.69-.06,6.5,6.5,0,0,0,.79-.17,2.16,2.16,0,0,0,.59-.22l.32,1a2.43,2.43,0,0,1-.74.39,5.35,5.35,0,0,1-1,.27A6.66,6.66,0,0,1,199.17,220.57Z"/><path class="cls-2" d="M206.84,220.45v-8.28h1.46l.12,1.05.13.63v6.6Zm1.62-6.09-.1-1.14a1.62,1.62,0,0,1,.47-.51,4.2,4.2,0,0,1,.84-.48,2.7,2.7,0,0,1,1-.2l.49,0a.89.89,0,0,1,.3.09v1.61a1.74,1.74,0,0,0-.34-.13,2.64,2.64,0,0,0-.74-.07,2.45,2.45,0,0,0-.83.13,2.73,2.73,0,0,0-.64.32A3,3,0,0,0,208.46,214.36Z"/><path class="cls-2" d="M216,220.57a3.41,3.41,0,0,1-2.75-1.14,4.65,4.65,0,0,1-1-3.14,5.18,5.18,0,0,1,.43-2.16,3.47,3.47,0,0,1,1.27-1.51,3.69,3.69,0,0,1,2-.57,3.28,3.28,0,0,1,1.18.18,2.67,2.67,0,0,1,1.65,1.57,3.66,3.66,0,0,1,.27,1.39V216a4,4,0,0,1-.07.65h-5.78l.15-1.09h4.09a3.83,3.83,0,0,0-.07-1.13,1.54,1.54,0,0,0-.46-.86,1.46,1.46,0,0,0-1-.33,1.83,1.83,0,0,0-1.05.32,2.08,2.08,0,0,0-.71,1.09,6.21,6.21,0,0,0-.21,2.1,3.11,3.11,0,0,0,.38,1.48,1.84,1.84,0,0,0,.88.78,3.11,3.11,0,0,0,1.21.23,4.82,4.82,0,0,0,.69-.06,6.66,6.66,0,0,0,.8-.17,2.07,2.07,0,0,0,.58-.22l.33,1a2.38,2.38,0,0,1-.75.39,5.07,5.07,0,0,1-1,.27A6.78,6.78,0,0,1,216,220.57Z"/><path class="cls-2" d="M220.47,216.4a5.31,5.31,0,0,1,.45-2.22,3.56,3.56,0,0,1,1.34-1.56,4.06,4.06,0,0,1,2.23-.57,5.17,5.17,0,0,1,1.33.14,2.53,2.53,0,0,1,.74.27l-.27,1.36a2.13,2.13,0,0,0-.75-.32,4.11,4.11,0,0,0-1.06-.11,2.28,2.28,0,0,0-1.08.27,2.22,2.22,0,0,0-.88.87,3.3,3.3,0,0,0-.38,1.57,4.12,4.12,0,0,0,.27,1.73,2.37,2.37,0,0,0,.83,1.06,2,2,0,0,0,1.19.37,4.13,4.13,0,0,0,1.14-.16,3.37,3.37,0,0,0,.8-.32l.32,1a2.64,2.64,0,0,1-1.07.57,5,5,0,0,1-1.47.22,3.59,3.59,0,0,1-2-.55,3.52,3.52,0,0,1-1.24-1.5A5,5,0,0,1,220.47,216.4Z"/><path class="cls-2" d="M228.48,220.45V208.34h1.73v12.11Z"/><path class="cls-2" d="M235.15,220.57a2.91,2.91,0,0,1-1.31-.26,1.82,1.82,0,0,1-.76-.72,3.34,3.34,0,0,1-.35-1.13,10.74,10.74,0,0,1-.09-1.45v-4.86h1.71V217a5.1,5.1,0,0,0,.15,1.45.87.87,0,0,0,.48.59,2.23,2.23,0,0,0,.84.14,2.25,2.25,0,0,0,.66-.1,4.51,4.51,0,0,0,.65-.22,3.44,3.44,0,0,0,.48-.25v-6.45h1.72v8.42h-.79a1.39,1.39,0,0,1-.55-.1c-.13-.07-.2-.24-.2-.51v-.58l0,.32a5.15,5.15,0,0,1-.78.42,6.24,6.24,0,0,1-.95.32A3.54,3.54,0,0,1,235.15,220.57Z"/><path class="cls-2" d="M241.38,220l.24-1.27a2,2,0,0,0,.46.22,5.85,5.85,0,0,0,.85.25,4.92,4.92,0,0,0,1,.13A1.9,1.9,0,0,0,245,219a.83.83,0,0,0,.15-1.27,2.34,2.34,0,0,0-.61-.44c-.26-.14-.56-.28-.89-.43a7.4,7.4,0,0,1-1.19-.66,2.77,2.77,0,0,1-.8-.84,2.24,2.24,0,0,1-.28-1.16,2,2,0,0,1,.43-1.23,2.44,2.44,0,0,1,1.1-.72,4.63,4.63,0,0,1,1.53-.24,5.1,5.1,0,0,1,1.37.16,3,3,0,0,1,.77.27l-.25,1.29a2.11,2.11,0,0,0-.41-.22,3.4,3.4,0,0,0-.65-.17,3.64,3.64,0,0,0-.74-.07,2.46,2.46,0,0,0-1.15.22.71.71,0,0,0-.4.62.91.91,0,0,0,.37.81,8.35,8.35,0,0,0,.92.53c.52.25,1,.49,1.39.73a3.39,3.39,0,0,1,1,.83,1.82,1.82,0,0,1,.36,1.15,2.08,2.08,0,0,1-.8,1.76,3.49,3.49,0,0,1-2.18.61,6.82,6.82,0,0,1-2.07-.32A2.92,2.92,0,0,1,241.38,220Z"/><path class="cls-2" d="M250.7,220.57a2.85,2.85,0,0,1-1.32-.3,2.21,2.21,0,0,1-.91-.83,2.41,2.41,0,0,1-.33-1.28,2.18,2.18,0,0,1,.43-1.35,2.9,2.9,0,0,1,1.15-.87,6,6,0,0,1,1-.31,10.6,10.6,0,0,1,1.11-.16c.38,0,.72-.05,1-.05l.36.45-.36.61a6.28,6.28,0,0,0-.7,0,7,7,0,0,0-.8.13,2.63,2.63,0,0,0-.67.22,2.06,2.06,0,0,0-.63.43,1,1,0,0,0-.25.75,1.24,1.24,0,0,0,.34.95,1.49,1.49,0,0,0,1,.32,2.5,2.5,0,0,0,.71-.11,3.35,3.35,0,0,0,.62-.24,1.15,1.15,0,0,0,.35-.23l.34.37-.25.64a3.32,3.32,0,0,1-.94.56A3.51,3.51,0,0,1,250.7,220.57Zm3.93-.12H253v-1.24h-.09v-4.57a1,1,0,0,0-.39-1,2.13,2.13,0,0,0-1.09-.23,5.36,5.36,0,0,0-1,.09,6.86,6.86,0,0,0-.92.23,3.73,3.73,0,0,0-.64.28l-.4-1.23a3.85,3.85,0,0,1,.66-.29,7.46,7.46,0,0,1,1.14-.34,5.69,5.69,0,0,1,1.29-.16,5.45,5.45,0,0,1,1.61.22,1.87,1.87,0,0,1,1,.8,3.18,3.18,0,0,1,.37,1.7Z"/><path class="cls-2" d="M256.56,220l.24-1.27a2,2,0,0,0,.46.22,5.85,5.85,0,0,0,.85.25,4.91,4.91,0,0,0,1,.13,1.93,1.93,0,0,0,1.09-.25.85.85,0,0,0,.15-1.27,2.34,2.34,0,0,0-.61-.44c-.26-.14-.56-.28-.89-.43a7,7,0,0,1-1.19-.66,2.77,2.77,0,0,1-.8-.84,2.24,2.24,0,0,1-.28-1.16A1.89,1.89,0,0,1,257,213a2.44,2.44,0,0,1,1.1-.72,4.59,4.59,0,0,1,1.53-.24,5.15,5.15,0,0,1,1.37.16,3,3,0,0,1,.77.27l-.25,1.29a2,2,0,0,0-.42-.22,3.29,3.29,0,0,0-.64-.17,3.64,3.64,0,0,0-.74-.07,2.46,2.46,0,0,0-1.15.22.71.71,0,0,0-.4.62.91.91,0,0,0,.37.81,7.51,7.51,0,0,0,.92.53c.51.25,1,.49,1.39.73a3.39,3.39,0,0,1,1,.83,1.82,1.82,0,0,1,.36,1.15,2.08,2.08,0,0,1-.8,1.76,3.49,3.49,0,0,1-2.18.61,6.68,6.68,0,0,1-2.07-.32A2.92,2.92,0,0,1,256.56,220Z"/><path class="cls-2" d="M265.09,214.86a1,1,0,0,1-.77-.33,1.16,1.16,0,0,1-.34-.82,1.26,1.26,0,0,1,.16-.67,1.47,1.47,0,0,1,.46-.47,1.11,1.11,0,0,1,.6-.18,1,1,0,0,1,.82.34,1.24,1.24,0,0,1,.29.81,1.27,1.27,0,0,1-.15.67,1.41,1.41,0,0,1-.46.48A1.19,1.19,0,0,1,265.09,214.86Zm0,5.75a1,1,0,0,1-.77-.33,1.17,1.17,0,0,1-.34-.82,1.26,1.26,0,0,1,.16-.67,1.38,1.38,0,0,1,.46-.47,1.11,1.11,0,0,1,.6-.18,1,1,0,0,1,.82.34,1.24,1.24,0,0,1,.29.81,1.27,1.27,0,0,1-.15.67,1.41,1.41,0,0,1-.46.48A1.19,1.19,0,0,1,265.09,220.61Z"/><path class="cls-2" d="M24,236.87a3.88,3.88,0,0,1-1.72-.35,3.06,3.06,0,0,1-1.15-1,4.09,4.09,0,0,1-.64-1.42,7,7,0,0,1-.19-1.68,4.79,4.79,0,0,1,.53-2.25,3.47,3.47,0,0,1,1.37-1.37,4,4,0,0,1,1.94-.47,3.55,3.55,0,0,1,2.18.62,3.44,3.44,0,0,1,1.17,1.62,6.21,6.21,0,0,1,.35,2.19,4.72,4.72,0,0,1-.53,2.24A3.44,3.44,0,0,1,26,236.41,4,4,0,0,1,24,236.87Zm0-1.21a1.71,1.71,0,0,0,1.54-.77,4,4,0,0,0,.52-2.18,5.47,5.47,0,0,0-.21-1.57,2.61,2.61,0,0,0-.65-1.13,1.66,1.66,0,0,0-1.14-.43,1.7,1.7,0,0,0-1.53.73,3.82,3.82,0,0,0-.51,2.15,5.64,5.64,0,0,0,.21,1.58,2.61,2.61,0,0,0,.65,1.17A1.56,1.56,0,0,0,24.08,235.66Z"/><path class="cls-2" d="M29.78,240.43v-12h1.56v1l.15.18v10.78Zm3.06-3.56a3.64,3.64,0,0,1-1.28-.19,2.87,2.87,0,0,1-.67-.31l.6-1.1a1.39,1.39,0,0,0,.6.28,3.63,3.63,0,0,0,.87.09,2,2,0,0,0,1.15-.36,2.41,2.41,0,0,0,.82-1.06,4.49,4.49,0,0,0,.31-1.7,3.49,3.49,0,0,0-.51-2.17,1.79,1.79,0,0,0-1.49-.67,2.26,2.26,0,0,0-1,.22,4.4,4.4,0,0,0-.72.43l-.27-.85c.12-.12.27-.27.47-.45a2.8,2.8,0,0,1,.79-.47,3.18,3.18,0,0,1,1.24-.21,3.24,3.24,0,0,1,1.62.43,3.15,3.15,0,0,1,1.21,1.31A4.8,4.8,0,0,1,37,232.3a5.18,5.18,0,0,1-.52,2.38A3.78,3.78,0,0,1,35,236.29,4,4,0,0,1,32.84,236.87Z"/><path class="cls-2" d="M42.07,236.87a3.91,3.91,0,0,1-1.72-.35,3.1,3.1,0,0,1-1.14-1,3.92,3.92,0,0,1-.64-1.42,6.56,6.56,0,0,1-.19-1.68,4.68,4.68,0,0,1,.53-2.25,3.41,3.41,0,0,1,1.37-1.37,4,4,0,0,1,1.94-.47,3.52,3.52,0,0,1,2.17.62,3.39,3.39,0,0,1,1.18,1.62,6.21,6.21,0,0,1,.35,2.19,4.72,4.72,0,0,1-.53,2.24A3.44,3.44,0,0,1,44,236.41,4.08,4.08,0,0,1,42.07,236.87Zm0-1.21a1.71,1.71,0,0,0,1.54-.77,4,4,0,0,0,.51-2.18,5.47,5.47,0,0,0-.21-1.57,2.43,2.43,0,0,0-.65-1.13,1.61,1.61,0,0,0-1.13-.43,1.69,1.69,0,0,0-1.53.73,3.82,3.82,0,0,0-.51,2.15,6,6,0,0,0,.2,1.58,2.71,2.71,0,0,0,.65,1.17A1.6,1.6,0,0,0,42.12,235.66Z"/><path class="cls-2" d="M47.74,236.75v-8.28H49.2l.12,1.06.13.63v6.59Zm1.62-6.09-.1-1.13a1.62,1.62,0,0,1,.47-.51,3.41,3.41,0,0,1,.84-.48,2.7,2.7,0,0,1,1-.2l.49,0a.92.92,0,0,1,.3.08v1.61a1.83,1.83,0,0,0-.34-.12,2.61,2.61,0,0,0-.73-.07,2.37,2.37,0,0,0-.83.13,2.63,2.63,0,0,0-.65.32A3.73,3.73,0,0,0,49.36,230.66Z"/><path class="cls-2" d="M56.2,236.87a2.71,2.71,0,0,1-1-.18,1.44,1.44,0,0,1-.7-.66,2.9,2.9,0,0,1-.25-1.35v-5H53.15v-.92c.36-.1.65-.19.84-.26a.76.76,0,0,0,.42-.47c0-.11.09-.24.14-.39l.16-.51c.06-.18.13-.38.2-.6h1v1.89h2.33v1.26H55.93v4.06A7.84,7.84,0,0,0,56,235a.65.65,0,0,0,.27.47,1.31,1.31,0,0,0,.59.1,3,3,0,0,0,.48-.05,4.37,4.37,0,0,0,.52-.12,1.55,1.55,0,0,0,.38-.16l.28,1a2.32,2.32,0,0,1-.6.34,5.65,5.65,0,0,1-.82.26A3.94,3.94,0,0,1,56.2,236.87Z"/><path class="cls-2" d="M62.52,236.87a2.86,2.86,0,0,1-1.31-.25,1.68,1.68,0,0,1-.76-.73,3.08,3.08,0,0,1-.36-1.12,10.79,10.79,0,0,1-.09-1.46v-4.85h1.71v4.84a5,5,0,0,0,.15,1.44.91.91,0,0,0,.48.6,2.27,2.27,0,0,0,.85.13,2.6,2.6,0,0,0,.65-.09,5.5,5.5,0,0,0,.65-.22,3.44,3.44,0,0,0,.48-.25v-6.45h1.72v8.41H65.9a1.23,1.23,0,0,1-.55-.1c-.13-.06-.2-.23-.2-.51v-.58l0,.33a4.71,4.71,0,0,1-.78.42,5.89,5.89,0,0,1-1,.32A3.89,3.89,0,0,1,62.52,236.87Z"/><path class="cls-2" d="M69.25,236.75v-8.28h1.54v.88a6.66,6.66,0,0,1,1.77-.83,4.07,4.07,0,0,1,1.08-.18,2.18,2.18,0,0,1,1.91.69,4.16,4.16,0,0,1,.58,2.55v5.17H74.42v-5.08a3.05,3.05,0,0,0-.28-1.5c-.19-.3-.59-.44-1.21-.4a2.82,2.82,0,0,0-.6.09,4.22,4.22,0,0,0-.7.25,3.3,3.3,0,0,0-.67.4v6.24Z"/><path class="cls-2" d="M79.47,227a1.12,1.12,0,0,1-.76-.28.91.91,0,0,1-.32-.75,1,1,0,0,1,.18-.59A1.35,1.35,0,0,1,79,225a1.27,1.27,0,0,1,.59-.16,1,1,0,0,1,.8.3,1,1,0,0,1,.27.73,1.1,1.1,0,0,1-.37.84A1.21,1.21,0,0,1,79.47,227Zm-.76,9.74v-8.28h1.71v8.28Z"/><path class="cls-2" d="M85.73,236.87a3.1,3.1,0,0,1-2.83-1.74,4.86,4.86,0,0,1-.46-2.23,5.3,5.3,0,0,1,.52-2.37,4,4,0,0,1,1.46-1.6,4.14,4.14,0,0,1,2.19-.58,3.9,3.9,0,0,1,1.29.19,2.21,2.21,0,0,1,.67.31L88,229.94a1.28,1.28,0,0,0-.6-.27,4.37,4.37,0,0,0-.87-.07,2,2,0,0,0-1.15.35,2.34,2.34,0,0,0-.81,1,4.28,4.28,0,0,0-.31,1.71,3.37,3.37,0,0,0,.5,2.14,1.8,1.8,0,0,0,1.49.68,2.29,2.29,0,0,0,1-.22,3.74,3.74,0,0,0,.72-.41l.28.84c-.12.13-.28.28-.48.46a2.81,2.81,0,0,1-.79.48A3.39,3.39,0,0,1,85.73,236.87Zm2.31-.12v-1.1l-.08,0v-5.87l.05,0L88,228.06v-3.41h1.71v12.1Z"/><path class="cls-2" d="M94.12,236.87a2.79,2.79,0,0,1-1.32-.29,2.22,2.22,0,0,1-.91-.83,2.41,2.41,0,0,1-.33-1.28,2.12,2.12,0,0,1,.43-1.35,2.84,2.84,0,0,1,1.15-.87,6.2,6.2,0,0,1,1-.31,8.88,8.88,0,0,1,1.12-.16,9.62,9.62,0,0,1,1-.05l.35.45-.35.61a6.28,6.28,0,0,0-.7,0,7,7,0,0,0-.8.12,3.1,3.1,0,0,0-.67.22,2,2,0,0,0-.63.44,1.05,1.05,0,0,0-.26.75,1.22,1.22,0,0,0,.35.94,1.43,1.43,0,0,0,1,.32,2.53,2.53,0,0,0,.71-.1,3.65,3.65,0,0,0,.62-.24,1.38,1.38,0,0,0,.35-.23l.34.36-.25.64a3.23,3.23,0,0,1-.94.56A3.4,3.4,0,0,1,94.12,236.87Zm3.93-.12H96.42v-1.23h-.09V231a1,1,0,0,0-.39-1,2.16,2.16,0,0,0-1.09-.23,5.47,5.47,0,0,0-1,.09,7.1,7.1,0,0,0-.91.23,3.08,3.08,0,0,0-.64.28l-.41-1.24a6.48,6.48,0,0,1,.66-.29c.33-.12.71-.23,1.14-.34a5.81,5.81,0,0,1,1.29-.15,5.2,5.2,0,0,1,1.62.22,1.87,1.87,0,0,1,1.05.8,3.23,3.23,0,0,1,.37,1.69Z"/><path class="cls-2" d="M103.17,236.87a3.1,3.1,0,0,1-2.83-1.74,4.86,4.86,0,0,1-.45-2.23,5.17,5.17,0,0,1,.52-2.37,3.94,3.94,0,0,1,1.45-1.6,4.17,4.17,0,0,1,2.2-.58,3.88,3.88,0,0,1,1.28.19,2.21,2.21,0,0,1,.67.31l-.61,1.09a1.28,1.28,0,0,0-.6-.27,4.37,4.37,0,0,0-.87-.07,1.92,1.92,0,0,0-1.14.35,2.36,2.36,0,0,0-.82,1,4.28,4.28,0,0,0-.31,1.71,3.37,3.37,0,0,0,.5,2.14,1.8,1.8,0,0,0,1.49.68,2.36,2.36,0,0,0,1-.22,3.94,3.94,0,0,0,.71-.41l.28.84c-.12.13-.28.28-.48.46a2.81,2.81,0,0,1-.79.48A3.35,3.35,0,0,1,103.17,236.87Zm2.32-.12v-1.1l-.09,0v-5.87l.06,0-.06-1.64v-3.41h1.71v12.1Z"/><path class="cls-2" d="M112.77,236.87a3.43,3.43,0,0,1-2.76-1.13,4.7,4.7,0,0,1-1-3.14,5.3,5.3,0,0,1,.43-2.16,3.48,3.48,0,0,1,1.27-1.51,3.73,3.73,0,0,1,2.06-.58,3.28,3.28,0,0,1,1.18.18,2.84,2.84,0,0,1,1,.59,2.76,2.76,0,0,1,.67,1,4,4,0,0,1,.28,1.4c0,.31,0,.59,0,.83a4.05,4.05,0,0,1-.07.66H110l.15-1.09h4.1a4.64,4.64,0,0,0-.07-1.13,1.6,1.6,0,0,0-.46-.86,1.5,1.5,0,0,0-1.05-.33,1.71,1.71,0,0,0-1,.32A2.09,2.09,0,0,0,111,231a6.21,6.21,0,0,0-.21,2.1,3.11,3.11,0,0,0,.38,1.48,1.94,1.94,0,0,0,.88.78,3.16,3.16,0,0,0,1.22.23,4,4,0,0,0,.69-.07,6.49,6.49,0,0,0,.79-.16,2.54,2.54,0,0,0,.59-.22l.32,1a2.67,2.67,0,0,1-.74.4,7.36,7.36,0,0,1-1,.27A6.62,6.62,0,0,1,112.77,236.87Z"/><path class="cls-2" d="M117.4,236.26l.24-1.26a3.14,3.14,0,0,0,.47.22,6.68,6.68,0,0,0,.84.25,4.4,4.4,0,0,0,1,.12,1.86,1.86,0,0,0,1.09-.24.83.83,0,0,0,.37-.71.8.8,0,0,0-.23-.56,2,2,0,0,0-.61-.44c-.26-.14-.56-.28-.89-.43a6.88,6.88,0,0,1-1.18-.66,2.65,2.65,0,0,1-.8-.84,2.1,2.1,0,0,1-.28-1.17,1.9,1.9,0,0,1,.42-1.22,2.51,2.51,0,0,1,1.1-.73,4.63,4.63,0,0,1,1.53-.24,5.54,5.54,0,0,1,1.37.16,3.3,3.3,0,0,1,.77.28l-.25,1.29a1.68,1.68,0,0,0-.41-.22,3.4,3.4,0,0,0-.65-.17,3.64,3.64,0,0,0-.74-.07,2.34,2.34,0,0,0-1.15.22.71.71,0,0,0-.4.61.92.92,0,0,0,.38.82,5.91,5.91,0,0,0,.92.52c.51.25,1,.5,1.38.74a3.24,3.24,0,0,1,1,.83,1.82,1.82,0,0,1,.36,1.15,2.05,2.05,0,0,1-.8,1.76,3.53,3.53,0,0,1-2.18.6,8.05,8.05,0,0,1-1.11-.08,6.25,6.25,0,0,1-1-.24A2.26,2.26,0,0,1,117.4,236.26Z"/><path class="cls-2" d="M130.43,236.87a3.1,3.1,0,0,1-2.83-1.74,4.73,4.73,0,0,1-.46-2.23,5.3,5.3,0,0,1,.52-2.37,4,4,0,0,1,1.46-1.6,4.11,4.11,0,0,1,2.19-.58,4,4,0,0,1,1.29.19,2,2,0,0,1,.66.31l-.61,1.09a1.24,1.24,0,0,0-.59-.27,4.44,4.44,0,0,0-.87-.07A1.93,1.93,0,0,0,130,230a2.34,2.34,0,0,0-.81,1,4.12,4.12,0,0,0-.31,1.71,3.37,3.37,0,0,0,.5,2.14,1.78,1.78,0,0,0,1.48.68,2.31,2.31,0,0,0,1-.22,3.62,3.62,0,0,0,.71-.41l.29.84c-.12.13-.28.28-.48.46a2.81,2.81,0,0,1-.79.48A3.39,3.39,0,0,1,130.43,236.87Zm2.31-.12v-1.1l-.09,0v-5.87l.06,0-.06-1.64v-3.41h1.72v12.1Z"/><path class="cls-2" d="M140,236.87a3.41,3.41,0,0,1-2.76-1.13,4.65,4.65,0,0,1-1-3.14,5.14,5.14,0,0,1,.43-2.16,3.48,3.48,0,0,1,1.27-1.51,3.7,3.7,0,0,1,2.06-.58,3.26,3.26,0,0,1,1.17.18,2.89,2.89,0,0,1,1,.59,2.76,2.76,0,0,1,.67,1,3.75,3.75,0,0,1,.27,1.4v.83a4.05,4.05,0,0,1-.07.66H137.3l.15-1.09h4.09a3.83,3.83,0,0,0-.07-1.13,1.54,1.54,0,0,0-.46-.86,1.46,1.46,0,0,0-1-.33,1.76,1.76,0,0,0-1.05.32,2.14,2.14,0,0,0-.71,1.09,6.21,6.21,0,0,0-.21,2.1,3.11,3.11,0,0,0,.38,1.48,1.89,1.89,0,0,0,.88.78,3.14,3.14,0,0,0,1.21.23,4,4,0,0,0,.7-.07,6.91,6.91,0,0,0,.79-.16,2.44,2.44,0,0,0,.58-.22l.33,1a2.6,2.6,0,0,1-.75.4,6.87,6.87,0,0,1-1,.27A6.72,6.72,0,0,1,140,236.87Z"/><path class="cls-2" d="M147.16,232.7a5.26,5.26,0,0,1,.45-2.21,3.63,3.63,0,0,1,1.34-1.56,4.06,4.06,0,0,1,2.23-.58,5.13,5.13,0,0,1,1.33.15,2.53,2.53,0,0,1,.74.27l-.27,1.36a2.24,2.24,0,0,0-.75-.33,4.65,4.65,0,0,0-1.06-.1,2.28,2.28,0,0,0-1.08.27,2.18,2.18,0,0,0-.87.86,3.23,3.23,0,0,0-.39,1.58,4.12,4.12,0,0,0,.27,1.73,2.37,2.37,0,0,0,.83,1.06,2.11,2.11,0,0,0,1.19.36,4.21,4.21,0,0,0,1.15-.15,3.73,3.73,0,0,0,.79-.32l.33,1a2.82,2.82,0,0,1-1.08.58,5,5,0,0,1-1.47.21,3.46,3.46,0,0,1-2-.55,3.39,3.39,0,0,1-1.25-1.49A5,5,0,0,1,147.16,232.7Z"/><path class="cls-2" d="M157.44,236.87a2.88,2.88,0,0,1-1.31-.25,1.68,1.68,0,0,1-.76-.73,3.28,3.28,0,0,1-.36-1.12,10.79,10.79,0,0,1-.09-1.46v-4.85h1.71v4.84a4.57,4.57,0,0,0,.16,1.44.9.9,0,0,0,.47.6,2.27,2.27,0,0,0,.85.13,2.6,2.6,0,0,0,.65-.09,5.5,5.5,0,0,0,.65-.22,3.64,3.64,0,0,0,.49-.25v-6.45h1.71v8.41h-.79a1.23,1.23,0,0,1-.55-.1c-.13-.06-.2-.23-.2-.51v-.58l0,.33a4.71,4.71,0,0,1-.78.42,6.12,6.12,0,0,1-.94.32A4,4,0,0,1,157.44,236.87Z"/><path class="cls-2" d="M165,227a1.12,1.12,0,0,1-.76-.28.94.94,0,0,1-.32-.75,1,1,0,0,1,.18-.59,1.39,1.39,0,0,1,.47-.43,1.24,1.24,0,0,1,.59-.16,1,1,0,0,1,.79.3,1,1,0,0,1,.27.73,1.07,1.07,0,0,1-.37.84A1.19,1.19,0,0,1,165,227Zm-.76,9.74v-8.28h1.71v8.28Z"/><path class="cls-2" d="M171.25,236.87a3.17,3.17,0,0,1-1.62-.43,3.07,3.07,0,0,1-1.2-1.31,4.73,4.73,0,0,1-.46-2.23,5.17,5.17,0,0,1,.52-2.37,4,4,0,0,1,1.45-1.6,4.17,4.17,0,0,1,2.2-.58,4,4,0,0,1,1.29.19,2.12,2.12,0,0,1,.66.31l-.61,1.09a1.29,1.29,0,0,0-.59-.27,4.55,4.55,0,0,0-.88-.07,1.92,1.92,0,0,0-1.14.35,2.43,2.43,0,0,0-.82,1,4.47,4.47,0,0,0-.31,1.71,3.3,3.3,0,0,0,.51,2.14,1.77,1.77,0,0,0,1.48.68,2.33,2.33,0,0,0,1-.22,3.94,3.94,0,0,0,.71-.41l.28.84c-.12.13-.28.28-.47.46a3,3,0,0,1-.79.48A3.44,3.44,0,0,1,171.25,236.87Zm2.32-.12v-1.1l-.09,0v-5.87l.06,0-.06-1.64v-3.41h1.71v12.1Z"/><path class="cls-2" d="M179.64,236.87a2.85,2.85,0,0,1-1.32-.29,2.28,2.28,0,0,1-.91-.83,2.41,2.41,0,0,1-.33-1.28,2.18,2.18,0,0,1,.43-1.35,2.9,2.9,0,0,1,1.15-.87,6,6,0,0,1,1-.31,8.48,8.48,0,0,1,1.11-.16,9.74,9.74,0,0,1,1-.05l.36.45-.36.61a6.41,6.41,0,0,0-.7,0,7.36,7.36,0,0,0-.8.12,3.29,3.29,0,0,0-.67.22,2.09,2.09,0,0,0-.63.44,1,1,0,0,0-.25.75,1.22,1.22,0,0,0,.34.94,1.45,1.45,0,0,0,1,.32,2.48,2.48,0,0,0,.71-.1,3.35,3.35,0,0,0,.62-.24,1.38,1.38,0,0,0,.35-.23l.34.36-.24.64a3.64,3.64,0,0,1-2.31.82Zm3.93-.12H182v-1.23h-.1V231a1,1,0,0,0-.39-1,2.13,2.13,0,0,0-1.09-.23,5.36,5.36,0,0,0-1,.09,6.86,6.86,0,0,0-.92.23,3.08,3.08,0,0,0-.64.28l-.4-1.24a4.88,4.88,0,0,1,.66-.29,10.71,10.71,0,0,1,1.14-.34,5.68,5.68,0,0,1,1.29-.15,5.14,5.14,0,0,1,1.61.22,1.84,1.84,0,0,1,1,.8,3.14,3.14,0,0,1,.37,1.69Z"/><path class="cls-2" d="M188.69,236.87a3.17,3.17,0,0,1-1.62-.43,3.07,3.07,0,0,1-1.2-1.31,4.73,4.73,0,0,1-.46-2.23,5.17,5.17,0,0,1,.52-2.37,4,4,0,0,1,1.46-1.6,4.11,4.11,0,0,1,2.19-.58,4,4,0,0,1,1.29.19,2.12,2.12,0,0,1,.66.31l-.61,1.09a1.29,1.29,0,0,0-.59-.27,4.55,4.55,0,0,0-.88-.07,1.92,1.92,0,0,0-1.14.35,2.43,2.43,0,0,0-.82,1,4.47,4.47,0,0,0-.31,1.71,3.36,3.36,0,0,0,.51,2.14,1.77,1.77,0,0,0,1.48.68,2.33,2.33,0,0,0,1-.22,3.94,3.94,0,0,0,.71-.41l.28.84c-.12.13-.28.28-.47.46a3,3,0,0,1-.79.48A3.44,3.44,0,0,1,188.69,236.87Zm2.32-.12v-1.1l-.09,0v-5.87l.06,0-.06-1.64v-3.41h1.71v12.1Z"/><path class="cls-2" d="M198.23,236.87a4,4,0,0,1-1.73-.35,3.1,3.1,0,0,1-1.14-1,4.09,4.09,0,0,1-.64-1.42,7,7,0,0,1-.19-1.68,4.79,4.79,0,0,1,.53-2.25,3.41,3.41,0,0,1,1.37-1.37,4,4,0,0,1,1.94-.47,3.5,3.5,0,0,1,2.17.62,3.39,3.39,0,0,1,1.18,1.62,6.21,6.21,0,0,1,.35,2.19,4.72,4.72,0,0,1-.53,2.24,3.44,3.44,0,0,1-1.36,1.39A4,4,0,0,1,198.23,236.87Zm0-1.21a1.71,1.71,0,0,0,1.54-.77,4,4,0,0,0,.52-2.18,5.47,5.47,0,0,0-.21-1.57,2.53,2.53,0,0,0-.66-1.13,1.61,1.61,0,0,0-1.13-.43,1.7,1.7,0,0,0-1.53.73,3.82,3.82,0,0,0-.51,2.15,5.64,5.64,0,0,0,.21,1.58,2.61,2.61,0,0,0,.65,1.17A1.56,1.56,0,0,0,198.27,235.66Z"/><path class="cls-2" d="M209.9,236.87a3.41,3.41,0,0,1-2.76-1.13,4.7,4.7,0,0,1-1-3.14,5.14,5.14,0,0,1,.43-2.16,3.48,3.48,0,0,1,1.27-1.51,3.7,3.7,0,0,1,2.06-.58,3.26,3.26,0,0,1,1.17.18,2.89,2.89,0,0,1,1,.59,2.76,2.76,0,0,1,.67,1,3.75,3.75,0,0,1,.27,1.4v.83a4.05,4.05,0,0,1-.07.66h-5.78l.15-1.09h4.1a4.19,4.19,0,0,0-.08-1.13,1.54,1.54,0,0,0-.46-.86,1.46,1.46,0,0,0-1-.33,1.76,1.76,0,0,0-1.05.32,2.14,2.14,0,0,0-.71,1.09,6.21,6.21,0,0,0-.21,2.1,3.11,3.11,0,0,0,.38,1.48,1.89,1.89,0,0,0,.88.78,3.14,3.14,0,0,0,1.21.23,4,4,0,0,0,.7-.07,6.91,6.91,0,0,0,.79-.16,2.44,2.44,0,0,0,.58-.22l.33,1a2.6,2.6,0,0,1-.75.4,6.87,6.87,0,0,1-1,.27A6.72,6.72,0,0,1,209.9,236.87Z"/><path class="cls-2" d="M219.68,236.87a2.79,2.79,0,0,1-1.32-.29,2.22,2.22,0,0,1-.91-.83,2.41,2.41,0,0,1-.33-1.28,2.12,2.12,0,0,1,.43-1.35,2.84,2.84,0,0,1,1.15-.87,6.2,6.2,0,0,1,1-.31,8.88,8.88,0,0,1,1.12-.16,9.56,9.56,0,0,1,1-.05l.36.45-.36.61a6.24,6.24,0,0,0-.69,0,7,7,0,0,0-.8.12,2.92,2.92,0,0,0-.67.22,2,2,0,0,0-.64.44,1.09,1.09,0,0,0-.25.75,1.22,1.22,0,0,0,.35.94,1.43,1.43,0,0,0,1,.32,2.53,2.53,0,0,0,.71-.1,3.65,3.65,0,0,0,.62-.24,1.27,1.27,0,0,0,.34-.23l.35.36-.25.64a3.23,3.23,0,0,1-.94.56A3.4,3.4,0,0,1,219.68,236.87Zm3.93-.12H222v-1.23h-.1V231a1,1,0,0,0-.38-1,2.16,2.16,0,0,0-1.09-.23,5.47,5.47,0,0,0-1,.09,6.7,6.7,0,0,0-.91.23,3.08,3.08,0,0,0-.64.28l-.41-1.24a6.48,6.48,0,0,1,.66-.29c.33-.12.71-.23,1.14-.34a5.81,5.81,0,0,1,1.29-.15,5.2,5.2,0,0,1,1.62.22,1.87,1.87,0,0,1,1.05.8,3.23,3.23,0,0,1,.37,1.69Z"/><path class="cls-2" d="M228.35,236.87a2.8,2.8,0,0,1-1-.18,1.42,1.42,0,0,1-.69-.66,2.9,2.9,0,0,1-.25-1.35v-5H225.3v-.92c.36-.1.64-.19.84-.26a.76.76,0,0,0,.42-.47c0-.11.09-.24.14-.39l.16-.51.19-.6h1v1.89h2.33v1.26h-2.33v4.06a6.67,6.67,0,0,0,.07,1.17.65.65,0,0,0,.27.47,1.29,1.29,0,0,0,.58.1,3.25,3.25,0,0,0,.49-.05,4.37,4.37,0,0,0,.52-.12,1.55,1.55,0,0,0,.38-.16l.28,1a2.72,2.72,0,0,1-.6.34,5.65,5.65,0,0,1-.82.26A3.94,3.94,0,0,1,228.35,236.87Z"/><path class="cls-2" d="M235.51,236.87a3.39,3.39,0,0,1-2.75-1.13,4.65,4.65,0,0,1-1-3.14,5.14,5.14,0,0,1,.43-2.16,3.46,3.46,0,0,1,1.26-1.51,3.75,3.75,0,0,1,2.06-.58,3.28,3.28,0,0,1,1.18.18,2.74,2.74,0,0,1,1.65,1.57,3.75,3.75,0,0,1,.27,1.4c0,.31,0,.59,0,.83a3.23,3.23,0,0,1-.06.66h-5.78l.15-1.09H237a4.19,4.19,0,0,0-.07-1.13,1.54,1.54,0,0,0-.46-.86,1.49,1.49,0,0,0-1.05-.33,1.75,1.75,0,0,0-1,.32,2.08,2.08,0,0,0-.71,1.09,6.21,6.21,0,0,0-.21,2.1,3,3,0,0,0,.38,1.48,1.84,1.84,0,0,0,.88.78,3.11,3.11,0,0,0,1.21.23,3.82,3.82,0,0,0,.69-.07,6.66,6.66,0,0,0,.8-.16,2.44,2.44,0,0,0,.58-.22l.33,1a2.74,2.74,0,0,1-.75.4,7.59,7.59,0,0,1-1,.27A6.74,6.74,0,0,1,235.51,236.87Z"/><path class="cls-2" d="M240.65,236.75v-8.28h1.54v.88a7,7,0,0,1,.77-.44,7.07,7.07,0,0,1,1-.39,4.06,4.06,0,0,1,1.07-.18A2.21,2.21,0,0,1,247,229a4.23,4.23,0,0,1,.58,2.55v5.17h-1.73v-5.08a2.94,2.94,0,0,0-.28-1.5c-.19-.3-.59-.44-1.21-.4a3,3,0,0,0-.6.09,4.12,4.12,0,0,0-.69.25,3,3,0,0,0-.67.4v6.24Z"/><path class="cls-2" d="M249.37,232.7a5.26,5.26,0,0,1,.44-2.21,3.69,3.69,0,0,1,1.34-1.56,4.1,4.1,0,0,1,2.24-.58,5,5,0,0,1,1.32.15,2.62,2.62,0,0,1,.75.27l-.27,1.36a2.34,2.34,0,0,0-.75-.33,4.75,4.75,0,0,0-1.07-.1,2.33,2.33,0,0,0-1.08.27,2.18,2.18,0,0,0-.87.86,3.46,3.46,0,0,0-.39,1.58,4,4,0,0,0,.28,1.73,2.3,2.3,0,0,0,.83,1.06,2.06,2.06,0,0,0,1.19.36,4.14,4.14,0,0,0,1.14-.15,3.73,3.73,0,0,0,.79-.32l.33,1a2.77,2.77,0,0,1-1.07.58,5,5,0,0,1-1.48.21,3.48,3.48,0,0,1-2-.55,3.52,3.52,0,0,1-1.25-1.49A5.19,5.19,0,0,1,249.37,232.7Zm.95,7.23.1-1.06a.88.88,0,0,0,.27.07l.33,0a1,1,0,0,0,.71-.25,1.11,1.11,0,0,0,.27-.84,3.9,3.9,0,0,0-.05-.81,2.06,2.06,0,0,0-.17-.53l.67,0,.33,0a1.32,1.32,0,0,1,.24.44,3.56,3.56,0,0,1,.13.62,5.8,5.8,0,0,1,0,.74,1.81,1.81,0,0,1-.26,1,1.63,1.63,0,0,1-.66.59,2,2,0,0,1-.83.19l-.44,0-.41-.07A.91.91,0,0,1,250.32,239.93Z"/><path class="cls-2" d="M259.29,236.87a2.86,2.86,0,0,1-1.33-.29,2.35,2.35,0,0,1-.91-.83,2.41,2.41,0,0,1-.33-1.28,2.18,2.18,0,0,1,.43-1.35,2.9,2.9,0,0,1,1.15-.87,6,6,0,0,1,1-.31,8.48,8.48,0,0,1,1.11-.16,9.74,9.74,0,0,1,1-.05l.36.45-.36.61a6.41,6.41,0,0,0-.7,0,7.36,7.36,0,0,0-.8.12,3.29,3.29,0,0,0-.67.22,2.09,2.09,0,0,0-.63.44,1,1,0,0,0-.25.75,1.22,1.22,0,0,0,.34.94,1.45,1.45,0,0,0,1,.32,2.48,2.48,0,0,0,.71-.1,3.35,3.35,0,0,0,.62-.24,1.38,1.38,0,0,0,.35-.23l.34.36-.24.64a3.64,3.64,0,0,1-2.3.82Zm3.92-.12h-1.62v-1.23h-.1V231a1.07,1.07,0,0,0-.38-1,2.2,2.2,0,0,0-1.1-.23,5.36,5.36,0,0,0-1,.09,6.86,6.86,0,0,0-.92.23,3.08,3.08,0,0,0-.64.28l-.4-1.24a4.88,4.88,0,0,1,.66-.29,10.71,10.71,0,0,1,1.14-.34,5.68,5.68,0,0,1,1.29-.15,5.14,5.14,0,0,1,1.61.22,1.81,1.81,0,0,1,1,.8,3.14,3.14,0,0,1,.37,1.69Zm-2.14-9.61a1.2,1.2,0,0,1-.66-.16,2.09,2.09,0,0,1-.47-.36l-.39-.36a.69.69,0,0,0-.44-.15,1.22,1.22,0,0,0-.5.08.87.87,0,0,0-.32.24,1.6,1.6,0,0,0-.2.34l-.67-.34a3.6,3.6,0,0,1,.34-.75,1.82,1.82,0,0,1,.55-.59,1.35,1.35,0,0,1,.82-.24,1.3,1.3,0,0,1,.65.16,2.25,2.25,0,0,1,.45.35,4.18,4.18,0,0,0,.4.36.67.67,0,0,0,.44.15,1.05,1.05,0,0,0,.46-.08,1,1,0,0,0,.33-.24,1,1,0,0,0,.21-.33l.7.39a2.12,2.12,0,0,1-.33.77,1.82,1.82,0,0,1-.59.55A1.47,1.47,0,0,1,261.07,227.14Z"/><path class="cls-2" d="M268.69,236.87a3.91,3.91,0,0,1-1.72-.35,3.22,3.22,0,0,1-1.15-1,4.08,4.08,0,0,1-.63-1.42,6.56,6.56,0,0,1-.19-1.68,4.68,4.68,0,0,1,.53-2.25,3.35,3.35,0,0,1,1.37-1.37,4,4,0,0,1,1.94-.47A3.52,3.52,0,0,1,271,229a3.46,3.46,0,0,1,1.18,1.62,6.21,6.21,0,0,1,.34,2.19A4.72,4.72,0,0,1,272,235a3.5,3.5,0,0,1-1.36,1.39A4.08,4.08,0,0,1,268.69,236.87Zm.05-1.21a1.68,1.68,0,0,0,1.53-.77,3.88,3.88,0,0,0,.52-2.18,5.47,5.47,0,0,0-.21-1.57,2.52,2.52,0,0,0-.65-1.13,1.62,1.62,0,0,0-1.14-.43,1.68,1.68,0,0,0-1.52.73,3.81,3.81,0,0,0-.52,2.15A5.64,5.64,0,0,0,267,234a2.71,2.71,0,0,0,.65,1.17A1.59,1.59,0,0,0,268.74,235.66Z"/><path class="cls-2" d="M275.1,236.92a1,1,0,0,1-.77-.33,1.18,1.18,0,0,1-.34-.83,1.24,1.24,0,0,1,.16-.66,1.41,1.41,0,0,1,.46-.48,1.19,1.19,0,0,1,.6-.17,1,1,0,0,1,.82.34,1.23,1.23,0,0,1,.29.8,1.23,1.23,0,0,1-.61,1.15A1.09,1.09,0,0,1,275.1,236.92Z"/></svg>