<?xml version="1.0" encoding="utf-8"?>
<!-- Generator: Adobe Illustrator 24.0.1, SVG Export Plug-In . SVG Version: 6.00 Build 0)  -->
<svg version="1.1" id="Layer_1" xmlns="http://www.w3.org/2000/svg" xmlns:xlink="http://www.w3.org/1999/xlink" x="0px" y="0px"
	 viewBox="0 0 723.1 229.5" style="enable-background:new 0 0 723.1 229.5;" xml:space="preserve">
<style type="text/css">
	.st0{clip-path:url(#SVGID_2_);fill:url(#SVGID_3_);}
	.st1{clip-path:url(#SVGID_5_);fill:url(#SVGID_6_);}
</style>
<g>
	<g>
		<g>
			<path d="M315.1,176.1v-29.3h19.7v3.7h-15.7v8.8h13.7v3.6h-13.7v13.2H315.1z"/>
			<path d="M341.1,154.8v13.1c0,2.1,0.3,3.5,1,4.4c0.7,0.8,1.8,1.2,3.3,1.2c2.1,0,3.6-0.6,4.7-1.8s1.6-3,1.6-5.4v-11.5h3.6v21.3
				h-3.4v-3.2c-0.7,1.2-1.7,2.2-2.9,2.8c-1.2,0.6-2.6,0.9-4.2,0.9c-1.5,0-2.8-0.3-3.9-0.8c-1.1-0.5-1.9-1.2-2.5-2.1
				c-0.3-0.5-0.6-1.1-0.7-1.8c-0.1-0.7-0.2-1.8-0.2-3.3v-1v-12.8H341.1z"/>
			<path d="M374.8,176.1V163c0-2.1-0.3-3.5-1-4.3c-0.6-0.8-1.7-1.2-3.3-1.2c-2,0-3.6,0.6-4.7,1.7c-1.1,1.1-1.7,2.7-1.7,4.8v12.1
				h-3.6v-21.3h3.4v3.1c0.8-1.2,1.8-2.1,2.9-2.7c1.1-0.6,2.4-0.9,3.9-0.9c1.6,0,3,0.2,4.1,0.7c1.1,0.5,1.9,1.2,2.5,2.2
				c0.3,0.5,0.6,1.1,0.7,1.8c0.1,0.7,0.2,1.8,0.2,3.3v1v12.8H374.8z"/>
			<path d="M402.4,146.9v29.3H399v-2.7c-0.9,1.1-1.9,1.9-3.1,2.5c-1.2,0.6-2.4,0.8-3.8,0.8c-2.8,0-5.1-1-6.8-3.1
				c-1.7-2-2.5-4.8-2.5-8.2c0-3.5,0.8-6.3,2.5-8.3c1.7-2.1,4-3.1,6.8-3.1c1.5,0,2.8,0.3,3.9,0.8c1.1,0.5,2.1,1.4,3,2.5v-10.6H402.4z
				 M399.1,165.3c0-2.6-0.5-4.6-1.6-6c-1.1-1.3-2.6-2-4.7-2c-2,0-3.6,0.7-4.7,2.2c-1.1,1.5-1.6,3.5-1.6,6.2c0,2.4,0.6,4.3,1.7,5.7
				c1.1,1.4,2.7,2.1,4.7,2.1c2,0,3.6-0.7,4.6-2.1C398.5,170,399.1,168,399.1,165.3z"/>
			<path d="M421.2,173.3c-1.1,1.2-2.3,2-3.5,2.6c-1.3,0.6-2.6,0.9-4,0.9c-2.2,0-3.9-0.6-5.1-1.7c-1.2-1.1-1.8-2.7-1.8-4.7
				c0-1.9,0.6-3.5,1.8-4.5c1.2-1.1,3-1.8,5.5-2.1c0.6-0.1,1.5-0.2,2.5-0.3c1.8-0.2,2.9-0.4,3.3-0.5c0.4-0.2,0.7-0.4,0.8-0.6
				c0.1-0.3,0.2-0.8,0.2-1.7c0-1.1-0.4-1.9-1.2-2.4c-0.8-0.5-2-0.8-3.6-0.8c-1.7,0-2.9,0.3-3.7,1c-0.8,0.7-1.3,1.6-1.3,2.9h-3.4
				v-0.2c0-2.1,0.8-3.8,2.3-5.1c1.5-1.2,3.6-1.9,6.2-1.9c2.8,0,4.9,0.5,6.3,1.6c1.3,1.1,2,2.7,2,5v10.7c0,0.9,0.1,1.5,0.3,1.8
				c0.2,0.3,0.6,0.4,1.1,0.4c0.1,0,0.2,0,0.4,0c0.2,0,0.3,0,0.5-0.1v2.8c-0.4,0.1-0.8,0.2-1.1,0.2c-0.3,0-0.6,0.1-0.9,0.1
				c-1.2,0-2.1-0.3-2.7-0.8c-0.6-0.5-0.9-1.3-0.9-2.3V173.3z M420.8,165.3c-1,0.5-2.6,0.9-4.9,1.2c-0.8,0.1-1.4,0.2-1.8,0.3
				c-1.3,0.2-2.2,0.6-2.8,1.2c-0.6,0.6-0.9,1.4-0.9,2.4s0.3,1.9,1,2.4c0.7,0.6,1.6,0.9,2.8,0.9c1.9,0,3.5-0.5,4.7-1.5
				c1.2-1,1.8-2.2,1.8-3.7V165.3z"/>
			<path d="M444.2,161.9c-0.1-1.5-0.6-2.6-1.6-3.4c-0.9-0.8-2.2-1.2-3.9-1.2c-1.9,0-3.4,0.7-4.5,2.1c-1,1.4-1.6,3.4-1.6,6
				c0,2.6,0.5,4.6,1.5,6c1,1.4,2.4,2.1,4.3,2.1c1.7,0,3-0.4,4-1.3c1-0.9,1.6-2.1,1.9-3.8h3.4c-0.1,2.4-0.9,4.4-2.5,5.9
				c-1.6,1.5-3.7,2.3-6.2,2.4v1.5h0.5c1.4,0,2.4,0.3,3.1,0.8c0.7,0.5,1.1,1.3,1.1,2.3c0,1.2-0.4,2-1.2,2.6c-0.8,0.6-2,0.9-3.6,0.9
				c-0.7,0-1.4-0.1-2.3-0.2c-0.8-0.1-1.7-0.3-2.6-0.6v-1.8c1,0.2,2,0.4,2.8,0.5c0.8,0.1,1.5,0.2,2,0.2c0.7,0,1.2-0.1,1.6-0.4
				c0.4-0.3,0.5-0.6,0.5-1.1c0-0.5-0.2-0.9-0.6-1.2s-1-0.4-1.8-0.4c-0.2,0-0.4,0-0.6,0c-0.2,0-0.4,0-0.5,0v-3.3
				c-2.7-0.3-4.8-1.4-6.3-3.4c-1.5-2-2.3-4.6-2.3-7.8c0-3.5,0.9-6.3,2.6-8.4c1.8-2,4.1-3.1,7.2-3.1c2.7,0,4.8,0.7,6.4,2.1
				c1.6,1.4,2.4,3.3,2.5,5.7H444.2z"/>
			<path d="M464.6,173.3c-1.1,1.2-2.3,2-3.5,2.6c-1.3,0.6-2.6,0.9-4,0.9c-2.2,0-3.9-0.6-5.1-1.7c-1.2-1.1-1.8-2.7-1.8-4.7
				c0-1.9,0.6-3.5,1.8-4.5c1.2-1.1,3-1.8,5.5-2.1c0.6-0.1,1.5-0.2,2.5-0.3c1.8-0.2,2.9-0.4,3.3-0.5c0.4-0.2,0.7-0.4,0.8-0.6
				c0.1-0.3,0.2-0.8,0.2-1.7c0-1.1-0.4-1.9-1.2-2.4c-0.8-0.5-2-0.8-3.6-0.8c-1.7,0-2.9,0.3-3.7,1c-0.8,0.7-1.3,1.6-1.3,2.9h-3.4
				v-0.2c0-2.1,0.8-3.8,2.3-5.1c1.5-1.2,3.6-1.9,6.2-1.9c2.8,0,4.9,0.5,6.3,1.6c1.3,1.1,2,2.7,2,5v10.7c0,0.9,0.1,1.5,0.3,1.8
				c0.2,0.3,0.6,0.4,1.1,0.4c0.1,0,0.2,0,0.4,0c0.2,0,0.3,0,0.5-0.1v2.8c-0.4,0.1-0.8,0.2-1.1,0.2c-0.3,0-0.6,0.1-0.9,0.1
				c-1.2,0-2.1-0.3-2.7-0.8c-0.6-0.5-0.9-1.3-0.9-2.3V173.3z M464.3,165.3c-1,0.5-2.6,0.9-4.9,1.2c-0.8,0.1-1.4,0.2-1.8,0.3
				c-1.3,0.2-2.2,0.6-2.8,1.2s-0.9,1.4-0.9,2.4s0.3,1.9,1,2.4c0.7,0.6,1.6,0.9,2.8,0.9c1.9,0,3.5-0.5,4.7-1.5c1.2-1,1.8-2.2,1.8-3.7
				V165.3z M465.6,146.5c-0.3,1.3-0.7,2.4-1.4,3.1c-0.7,0.7-1.5,1.1-2.5,1.1c-0.2,0-0.4,0-0.6,0c-0.2,0-0.5-0.1-0.7-0.1l-1.9-0.5
				c-0.2-0.1-0.3-0.1-0.5-0.1c-0.2,0-0.3,0-0.5,0c-0.4,0-0.7,0.1-1.1,0.3c-0.3,0.2-0.5,0.6-0.7,1H454c0.2-1.3,0.7-2.3,1.4-3
				c0.7-0.7,1.5-1.1,2.5-1.1c0.2,0,0.4,0,0.6,0c0.2,0,0.4,0.1,0.5,0.1l2,0.6c0.2,0.1,0.4,0.1,0.6,0.1c0.2,0,0.3,0,0.5,0
				c0.4,0,0.8-0.1,1.1-0.4c0.3-0.2,0.5-0.6,0.7-1.1H465.6z"/>
			<path d="M472.5,165.5c0-3.6,0.9-6.3,2.7-8.3c1.8-2,4.3-3,7.5-3c3.2,0,5.7,1,7.5,3c1.8,2,2.7,4.8,2.7,8.3s-0.9,6.4-2.7,8.3
				c-1.8,2-4.3,3-7.5,3c-3.2,0-5.7-1-7.5-3C473.4,171.8,472.5,169,472.5,165.5z M476.1,165.5c0,2.6,0.6,4.7,1.7,6.1
				c1.1,1.4,2.8,2.1,4.9,2.1c2.1,0,3.7-0.7,4.8-2.1c1.1-1.4,1.7-3.4,1.7-6.1c0-2.6-0.6-4.6-1.7-6c-1.1-1.4-2.7-2.1-4.8-2.1
				c-2.1,0-3.7,0.7-4.9,2.1C476.7,160.8,476.1,162.8,476.1,165.5z"/>
			<path d="M529.2,165.3h3.9c-0.2,3.6-1.4,6.4-3.6,8.5c-2.3,2.1-5.2,3.2-8.8,3.2c-4.1,0-7.3-1.4-9.7-4.2c-2.3-2.8-3.5-6.7-3.5-11.7
				c0-4.6,1.2-8.2,3.7-10.9c2.5-2.7,5.8-4,9.9-4c3.3,0,6,0.9,8.1,2.6c2.1,1.7,3.3,4,3.7,7H529c-0.4-1.9-1.3-3.4-2.6-4.5
				c-1.4-1-3.2-1.6-5.4-1.6c-3,0-5.3,1-6.9,3.1c-1.6,2.1-2.5,5-2.5,8.8c0,3.6,0.9,6.4,2.6,8.6c1.7,2.2,4,3.2,6.8,3.2
				c2.4,0,4.4-0.7,5.9-2.2C528.3,169.7,529.1,167.7,529.2,165.3z"/>
			<path d="M550.5,173.3c-1.1,1.2-2.3,2-3.5,2.6c-1.3,0.6-2.6,0.9-4,0.9c-2.2,0-3.9-0.6-5.1-1.7c-1.2-1.1-1.8-2.7-1.8-4.7
				c0-1.9,0.6-3.5,1.8-4.5c1.2-1.1,3-1.8,5.5-2.1c0.6-0.1,1.5-0.2,2.5-0.3c1.8-0.2,2.9-0.4,3.3-0.5c0.4-0.2,0.7-0.4,0.8-0.6
				c0.1-0.3,0.2-0.8,0.2-1.7c0-1.1-0.4-1.9-1.2-2.4c-0.8-0.5-2-0.8-3.6-0.8c-1.7,0-2.9,0.3-3.7,1c-0.8,0.7-1.3,1.6-1.3,2.9h-3.4
				v-0.2c0-2.1,0.8-3.8,2.3-5.1c1.5-1.2,3.6-1.9,6.2-1.9c2.8,0,4.9,0.5,6.3,1.6c1.3,1.1,2,2.7,2,5v10.7c0,0.9,0.1,1.5,0.3,1.8
				c0.2,0.3,0.6,0.4,1.1,0.4c0.1,0,0.2,0,0.4,0c0.2,0,0.3,0,0.5-0.1v2.8c-0.4,0.1-0.8,0.2-1.1,0.2c-0.3,0-0.6,0.1-0.9,0.1
				c-1.2,0-2.1-0.3-2.7-0.8c-0.6-0.5-0.9-1.3-0.9-2.3V173.3z M550.2,165.3c-1,0.5-2.6,0.9-4.9,1.2c-0.8,0.1-1.4,0.2-1.8,0.3
				c-1.3,0.2-2.2,0.6-2.8,1.2s-0.9,1.4-0.9,2.4s0.3,1.9,1,2.4c0.7,0.6,1.6,0.9,2.8,0.9c1.9,0,3.5-0.5,4.7-1.5c1.2-1,1.8-2.2,1.8-3.7
				V165.3z"/>
			<path d="M563.7,170.8c0,1,0.1,1.6,0.4,1.9c0.3,0.3,0.8,0.5,1.5,0.5c0.2,0,0.5,0,0.8,0c0.3,0,0.7,0,1.2-0.1v3
				c-0.6,0.1-1.1,0.2-1.6,0.2c-0.5,0.1-0.9,0.1-1.3,0.1c-1.7,0-2.9-0.3-3.5-1c-0.7-0.6-1-1.8-1-3.5v-14.3h-3.2v-2.8h3.2v-5.9h3.6
				v5.9h3.8v2.8h-3.8V170.8z"/>
			<path d="M584.1,173.3c-1.1,1.2-2.3,2-3.5,2.6c-1.3,0.6-2.6,0.9-4,0.9c-2.2,0-3.9-0.6-5.1-1.7c-1.2-1.1-1.8-2.7-1.8-4.7
				c0-1.9,0.6-3.5,1.8-4.5c1.2-1.1,3-1.8,5.5-2.1c0.6-0.1,1.5-0.2,2.5-0.3c1.8-0.2,2.9-0.4,3.3-0.5c0.4-0.2,0.7-0.4,0.8-0.6
				c0.1-0.3,0.2-0.8,0.2-1.7c0-1.1-0.4-1.9-1.2-2.4c-0.8-0.5-2-0.8-3.6-0.8c-1.7,0-2.9,0.3-3.7,1c-0.8,0.7-1.3,1.6-1.3,2.9h-3.4
				v-0.2c0-2.1,0.8-3.8,2.3-5.1c1.5-1.2,3.6-1.9,6.2-1.9c2.8,0,4.9,0.5,6.3,1.6c1.3,1.1,2,2.7,2,5v10.7c0,0.9,0.1,1.5,0.3,1.8
				c0.2,0.3,0.6,0.4,1.1,0.4c0.1,0,0.2,0,0.4,0c0.2,0,0.3,0,0.5-0.1v2.8c-0.4,0.1-0.8,0.2-1.1,0.2c-0.3,0-0.6,0.1-0.9,0.1
				c-1.2,0-2.1-0.3-2.7-0.8c-0.6-0.5-0.9-1.3-0.9-2.3V173.3z M583.7,165.3c-1,0.5-2.6,0.9-4.9,1.2c-0.8,0.1-1.4,0.2-1.8,0.3
				c-1.3,0.2-2.2,0.6-2.8,1.2s-0.9,1.4-0.9,2.4s0.3,1.9,1,2.4c0.7,0.6,1.6,0.9,2.8,0.9c1.9,0,3.5-0.5,4.7-1.5c1.2-1,1.8-2.2,1.8-3.7
				V165.3z"/>
			<path d="M593,176.1v-21.3h3.5v3.8c0.6-1.4,1.3-2.5,2.3-3.2c1-0.7,2.2-1.1,3.6-1.1c0.3,0,0.5,0,0.6,0c0.1,0,0.2,0,0.4,0v3.8
				c-0.1,0-0.2,0-0.3,0c-0.1,0-0.3,0-0.5,0c-1.9,0-3.4,0.5-4.4,1.6c-1,1-1.5,2.6-1.5,4.5v11.8H593z"/>
			<path d="M606.5,150.9v-4.1h3.6v4.1H606.5z M606.5,176.1v-21.3h3.6v21.3H606.5z"/>
			<path d="M629.7,176.1V163c0-2.1-0.3-3.5-1-4.3c-0.6-0.8-1.7-1.2-3.3-1.2c-2,0-3.6,0.6-4.7,1.7c-1.1,1.1-1.7,2.7-1.7,4.8v12.1
				h-3.6v-21.3h3.4v3.1c0.8-1.2,1.8-2.1,2.9-2.7c1.1-0.6,2.4-0.9,3.9-0.9c1.6,0,3,0.2,4.1,0.7c1.1,0.5,1.9,1.2,2.5,2.2
				c0.3,0.5,0.6,1.1,0.7,1.8c0.1,0.7,0.2,1.8,0.2,3.3v1v12.8H629.7z"/>
			<path d="M653,169.2h3.5c-0.4,2.3-1.4,4.2-3.1,5.5s-3.7,2-6.3,2c-3,0-5.3-1-7-3c-1.7-2-2.6-4.7-2.6-8.1c0-3.6,0.8-6.5,2.5-8.5
				c1.7-2,4-3.1,7-3.1c3.1,0,5.4,0.9,7.1,2.8c1.7,1.9,2.5,4.5,2.5,8c0,0.4,0,0.8,0,1c0,0.2,0,0.4,0,0.6h-15.4c0,2.2,0.6,4,1.7,5.2
				c1.1,1.2,2.6,1.8,4.5,1.8c1.5,0,2.7-0.4,3.6-1.1S652.8,170.6,653,169.2z M641.4,163.5h11.7c0-2-0.5-3.5-1.5-4.6
				c-1-1.1-2.4-1.6-4.2-1.6c-1.8,0-3.2,0.5-4.2,1.6C642.2,160,641.6,161.5,641.4,163.5z"/>
			<path d="M675.1,176.1V163c0-2.1-0.3-3.5-1-4.3c-0.6-0.8-1.7-1.2-3.3-1.2c-2,0-3.6,0.6-4.7,1.7c-1.1,1.1-1.7,2.7-1.7,4.8v12.1H661
				v-21.3h3.4v3.1c0.8-1.2,1.8-2.1,2.9-2.7c1.1-0.6,2.4-0.9,3.9-0.9c1.6,0,3,0.2,4.1,0.7c1.1,0.5,1.9,1.2,2.5,2.2
				c0.3,0.5,0.6,1.1,0.7,1.8c0.1,0.7,0.2,1.8,0.2,3.3v1v12.8H675.1z"/>
			<path d="M682.6,169.2h3.4c0.1,1.4,0.7,2.5,1.6,3.3c0.9,0.7,2.2,1.1,3.9,1.1c1.5,0,2.7-0.3,3.6-0.9c0.9-0.6,1.3-1.4,1.3-2.5
				c0-0.8-0.2-1.4-0.7-1.8c-0.4-0.4-1.3-0.8-2.6-1.1l-4-1c-2.3-0.5-3.8-1.3-4.7-2.2c-0.9-0.9-1.3-2.2-1.3-3.8c0-1.9,0.7-3.4,2.1-4.5
				c1.4-1.1,3.4-1.7,5.9-1.7c2.5,0,4.5,0.6,6,1.8c1.5,1.2,2.2,2.8,2.2,4.7v0.1H696c-0.1-1.1-0.5-2-1.4-2.6c-0.8-0.6-2-0.9-3.4-0.9
				c-1.4,0-2.5,0.3-3.3,0.8c-0.7,0.5-1.1,1.2-1.1,2.2c0,0.7,0.2,1.2,0.7,1.6c0.5,0.4,1.3,0.7,2.6,1l3.5,0.8c2.5,0.6,4.2,1.3,5.1,2.2
				c0.9,0.9,1.4,2.2,1.4,3.9c0,2.2-0.8,3.9-2.3,5.2c-1.6,1.2-3.7,1.8-6.5,1.8c-2.7,0-4.8-0.6-6.3-1.9
				C683.4,173.5,682.7,171.7,682.6,169.2z"/>
			<path d="M718.6,169.2h3.5c-0.4,2.3-1.4,4.2-3.1,5.5s-3.7,2-6.3,2c-3,0-5.3-1-7-3c-1.7-2-2.6-4.7-2.6-8.1c0-3.6,0.8-6.5,2.5-8.5
				c1.7-2,4-3.1,7-3.1c3.1,0,5.4,0.9,7.1,2.8c1.7,1.9,2.5,4.5,2.5,8c0,0.4,0,0.8,0,1c0,0.2,0,0.4,0,0.6H707c0,2.2,0.6,4,1.7,5.2
				c1.1,1.2,2.6,1.8,4.5,1.8c1.5,0,2.7-0.4,3.6-1.1S718.3,170.6,718.6,169.2z M707,163.5h11.7c0-2-0.5-3.5-1.5-4.6
				c-1-1.1-2.4-1.6-4.2-1.6c-1.8,0-3.2,0.5-4.2,1.6C707.8,160,707.2,161.5,707,163.5z"/>
		</g>
		<g>
			<path d="M333.6,187.3v29.7h-3.5v-2.7c-0.9,1.1-2,2-3.1,2.5c-1.2,0.6-2.5,0.8-3.9,0.8c-2.9,0-5.2-1-6.9-3.1
				c-1.7-2.1-2.6-4.8-2.6-8.3c0-3.5,0.9-6.4,2.6-8.4c1.7-2.1,4-3.1,6.9-3.1c1.5,0,2.8,0.3,4,0.8c1.2,0.6,2.2,1.4,3,2.5v-10.8H333.6z
				 M330.2,206.1c0-2.7-0.5-4.7-1.6-6.1c-1.1-1.4-2.7-2-4.8-2c-2,0-3.6,0.7-4.7,2.2c-1.1,1.5-1.7,3.6-1.7,6.3c0,2.5,0.6,4.4,1.7,5.8
				c1.2,1.4,2.7,2.1,4.7,2.1c2,0,3.6-0.7,4.7-2.2C329.6,210.9,330.2,208.8,330.2,206.1z"/>
			<path d="M353.8,210.1h3.6c-0.4,2.4-1.4,4.3-3.1,5.6c-1.7,1.4-3.8,2.1-6.4,2.1c-3,0-5.4-1-7.1-3c-1.7-2-2.6-4.8-2.6-8.3
				c0-3.7,0.9-6.6,2.6-8.6c1.7-2.1,4.1-3.1,7.1-3.1c3.1,0,5.5,1,7.2,2.9c1.7,1.9,2.6,4.6,2.6,8.1c0,0.4,0,0.8,0,1s0,0.4-0.1,0.6H342
				c0,2.3,0.6,4,1.7,5.3c1.1,1.2,2.6,1.9,4.5,1.9c1.5,0,2.7-0.4,3.7-1.1C352.9,212.6,353.5,211.5,353.8,210.1z M342,204.3h11.9
				c0-2-0.5-3.6-1.5-4.7c-1-1.1-2.4-1.6-4.3-1.6c-1.8,0-3.2,0.5-4.2,1.6C342.8,200.7,342.2,202.2,342,204.3z"/>
			<path d="M373.6,217.1v-29.7h21.2v3.7h-17.2v8.9h15.9v3.5h-15.9v10h17.5v3.7H373.6z"/>
			<path d="M418.5,187.3v29.7H415v-2.7c-0.9,1.1-2,2-3.1,2.5c-1.2,0.6-2.5,0.8-3.9,0.8c-2.9,0-5.2-1-6.9-3.1
				c-1.7-2.1-2.6-4.8-2.6-8.3c0-3.5,0.9-6.4,2.6-8.4c1.7-2.1,4-3.1,6.9-3.1c1.5,0,2.8,0.3,4,0.8c1.2,0.6,2.2,1.4,3,2.5v-10.8H418.5z
				 M415.1,206.1c0-2.7-0.5-4.7-1.6-6.1c-1.1-1.4-2.7-2-4.8-2c-2,0-3.6,0.7-4.7,2.2c-1.1,1.5-1.7,3.6-1.7,6.3c0,2.5,0.6,4.4,1.7,5.8
				c1.2,1.4,2.7,2.1,4.7,2.1c2,0,3.6-0.7,4.7-2.2C414.5,210.9,415.1,208.8,415.1,206.1z"/>
			<path d="M427.7,195.4v13.3c0,2.1,0.3,3.6,1,4.4c0.7,0.8,1.8,1.2,3.4,1.2c2.1,0,3.7-0.6,4.8-1.8c1.1-1.2,1.6-3,1.6-5.4v-11.6h3.6
				v21.6h-3.5v-3.2c-0.8,1.3-1.7,2.2-2.9,2.8c-1.2,0.6-2.6,0.9-4.2,0.9c-1.5,0-2.8-0.3-3.9-0.8c-1.1-0.5-2-1.2-2.6-2.2
				c-0.3-0.5-0.6-1.1-0.7-1.8c-0.1-0.7-0.2-1.8-0.2-3.4v-1v-13H427.7z"/>
			<path d="M462,202.6c-0.1-1.5-0.6-2.6-1.6-3.4s-2.3-1.2-3.9-1.2c-2,0-3.5,0.7-4.6,2.1c-1.1,1.4-1.6,3.4-1.6,6.1
				c0,2.6,0.5,4.7,1.5,6.1c1,1.4,2.5,2.1,4.4,2.1c1.7,0,3-0.4,4.1-1.3s1.6-2.1,1.9-3.8h3.5c-0.2,2.7-1.1,4.7-2.8,6.2
				c-1.7,1.5-3.9,2.2-6.8,2.2c-3,0-5.3-1-7-3c-1.7-2-2.5-4.8-2.5-8.4c0-3.6,0.9-6.5,2.6-8.5c1.8-2.1,4.2-3.1,7.3-3.1
				c2.7,0,4.9,0.7,6.5,2.1c1.6,1.4,2.5,3.3,2.6,5.8H462z"/>
			<path d="M482.7,214.2c-1.1,1.2-2.3,2.1-3.6,2.7c-1.3,0.6-2.6,0.9-4,0.9c-2.2,0-3.9-0.6-5.2-1.7c-1.2-1.2-1.9-2.7-1.9-4.8
				c0-2,0.6-3.5,1.8-4.6c1.2-1.1,3.1-1.8,5.6-2.2c0.6-0.1,1.5-0.2,2.6-0.3c1.8-0.2,3-0.4,3.4-0.5c0.4-0.2,0.7-0.4,0.8-0.6
				s0.2-0.8,0.2-1.7c0-1.1-0.4-1.9-1.2-2.5s-2-0.8-3.7-0.8c-1.7,0-2.9,0.3-3.8,1c-0.9,0.7-1.3,1.7-1.3,3H469v-0.2
				c0-2.2,0.8-3.9,2.3-5.2c1.5-1.3,3.6-1.9,6.3-1.9c2.9,0,5,0.5,6.4,1.6c1.4,1.1,2,2.8,2,5.1v10.8c0,0.9,0.1,1.5,0.3,1.8
				c0.2,0.3,0.6,0.4,1.1,0.4c0.1,0,0.2,0,0.4,0c0.2,0,0.3-0.1,0.6-0.1v2.8c-0.4,0.1-0.8,0.2-1.2,0.3c-0.3,0-0.6,0.1-0.9,0.1
				c-1.2,0-2.1-0.3-2.7-0.8c-0.6-0.5-0.9-1.3-0.9-2.4V214.2z M482.4,206.1c-1,0.5-2.6,0.9-5,1.2c-0.8,0.1-1.5,0.2-1.9,0.3
				c-1.3,0.2-2.3,0.6-2.8,1.2c-0.6,0.6-0.9,1.4-0.9,2.5c0,1.1,0.3,1.9,1,2.5c0.7,0.6,1.6,0.9,2.9,0.9c2,0,3.6-0.5,4.8-1.5
				c1.3-1,1.9-2.2,1.9-3.8V206.1z"/>
			<path d="M506.1,202.6c-0.1-1.5-0.6-2.6-1.6-3.4s-2.3-1.2-3.9-1.2c-2,0-3.5,0.7-4.6,2.1c-1.1,1.4-1.6,3.4-1.6,6.1
				c0,2.7,0.5,4.7,1.5,6.1c1,1.4,2.5,2.1,4.4,2.1c1.7,0,3-0.4,4-1.3c1-0.9,1.7-2.1,1.9-3.8h3.5c-0.1,2.4-1,4.4-2.6,6
				c-1.6,1.5-3.7,2.3-6.3,2.5v1.6h0.5c1.4,0,2.4,0.3,3.2,0.8c0.7,0.6,1.1,1.3,1.1,2.3c0,1.2-0.4,2.1-1.2,2.7c-0.8,0.6-2,0.9-3.6,0.9
				c-0.7,0-1.4-0.1-2.3-0.2c-0.8-0.1-1.7-0.3-2.7-0.6v-1.9c1.1,0.2,2,0.4,2.9,0.6c0.9,0.1,1.5,0.2,2,0.2c0.7,0,1.2-0.1,1.6-0.4
				c0.4-0.3,0.6-0.6,0.6-1.1c0-0.5-0.2-0.9-0.6-1.2c-0.4-0.3-1-0.4-1.8-0.4c-0.2,0-0.4,0-0.6,0c-0.2,0-0.4,0-0.5,0v-3.3
				c-2.7-0.3-4.9-1.4-6.4-3.4c-1.6-2-2.3-4.7-2.3-8c0-3.6,0.9-6.4,2.7-8.5c1.8-2.1,4.2-3.1,7.3-3.1c2.7,0,4.9,0.7,6.5,2.1
				c1.6,1.4,2.5,3.3,2.5,5.7H506.1z"/>
			<path d="M526.8,214.2c-1.1,1.2-2.3,2.1-3.6,2.7c-1.3,0.6-2.6,0.9-4,0.9c-2.2,0-3.9-0.6-5.2-1.7c-1.2-1.2-1.9-2.7-1.9-4.8
				c0-2,0.6-3.5,1.8-4.6c1.2-1.1,3.1-1.8,5.6-2.2c0.6-0.1,1.5-0.2,2.6-0.3c1.8-0.2,3-0.4,3.4-0.5c0.4-0.2,0.7-0.4,0.8-0.6
				c0.1-0.3,0.2-0.8,0.2-1.7c0-1.1-0.4-1.9-1.2-2.5s-2-0.8-3.7-0.8c-1.7,0-2.9,0.3-3.8,1c-0.9,0.7-1.3,1.7-1.3,3h-3.4v-0.2
				c0-2.2,0.8-3.9,2.3-5.2c1.5-1.3,3.6-1.9,6.3-1.9c2.9,0,5,0.5,6.4,1.6c1.4,1.1,2,2.8,2,5.1v10.8c0,0.9,0.1,1.5,0.3,1.8
				c0.2,0.3,0.6,0.4,1.1,0.4c0.1,0,0.2,0,0.4,0c0.2,0,0.3-0.1,0.6-0.1v2.8c-0.4,0.1-0.8,0.2-1.2,0.3c-0.3,0-0.6,0.1-0.9,0.1
				c-1.2,0-2.1-0.3-2.7-0.8c-0.6-0.5-0.9-1.3-0.9-2.4V214.2z M526.5,206.1c-1,0.5-2.6,0.9-5,1.2c-0.8,0.1-1.5,0.2-1.9,0.3
				c-1.3,0.2-2.3,0.6-2.8,1.2c-0.6,0.6-0.9,1.4-0.9,2.5c0,1.1,0.3,1.9,1,2.5c0.7,0.6,1.6,0.9,2.9,0.9c2,0,3.6-0.5,4.8-1.5
				c1.3-1,1.9-2.2,1.9-3.8V206.1z M527.9,186.9c-0.3,1.4-0.7,2.4-1.4,3.1c-0.7,0.7-1.5,1.1-2.6,1.1c-0.2,0-0.4,0-0.6-0.1
				c-0.2,0-0.5-0.1-0.7-0.2l-2-0.5c-0.2-0.1-0.3-0.1-0.5-0.1c-0.2,0-0.3,0-0.5,0c-0.4,0-0.8,0.1-1.1,0.4c-0.3,0.2-0.6,0.6-0.7,1H516
				c0.2-1.3,0.7-2.3,1.4-3c0.7-0.7,1.5-1.1,2.5-1.1c0.2,0,0.4,0,0.6,0c0.2,0,0.4,0.1,0.5,0.1l2,0.6c0.2,0.1,0.4,0.1,0.6,0.1
				c0.2,0,0.3,0,0.5,0c0.5,0,0.8-0.1,1.2-0.4c0.3-0.2,0.6-0.6,0.7-1.1H527.9z"/>
			<path d="M534.8,206.2c0-3.6,0.9-6.4,2.7-8.5c1.8-2,4.3-3,7.6-3c3.3,0,5.8,1,7.6,3c1.8,2,2.7,4.8,2.7,8.5s-0.9,6.5-2.7,8.5
				c-1.8,2-4.3,3-7.6,3c-3.3,0-5.8-1-7.6-3C535.7,212.7,534.8,209.9,534.8,206.2z M538.5,206.2c0,2.7,0.6,4.7,1.7,6.1
				c1.1,1.4,2.8,2.1,4.9,2.1c2.1,0,3.8-0.7,4.9-2.1c1.1-1.4,1.7-3.5,1.7-6.1c0-2.7-0.6-4.7-1.7-6.1c-1.1-1.4-2.8-2.1-4.9-2.1
				c-2.2,0-3.8,0.7-4.9,2.1C539.1,201.5,538.5,203.5,538.5,206.2z"/>
			<path d="M571.7,217.1v-29.7h21.2v3.7h-17.2v8.9h15.9v3.5h-15.9v10h17.5v3.7H571.7z"/>
			<path d="M596.2,210h3.5c0.1,1.5,0.7,2.6,1.6,3.3c0.9,0.8,2.2,1.1,3.9,1.1c1.6,0,2.8-0.3,3.7-0.9c0.9-0.6,1.4-1.4,1.4-2.5
				c0-0.8-0.2-1.4-0.7-1.8c-0.5-0.4-1.3-0.8-2.6-1.1l-4.1-1c-2.3-0.6-3.9-1.3-4.8-2.2c-0.9-0.9-1.3-2.2-1.3-3.9
				c0-1.9,0.7-3.4,2.2-4.5c1.4-1.1,3.4-1.7,5.9-1.7c2.6,0,4.6,0.6,6.1,1.8c1.5,1.2,2.3,2.8,2.3,4.8v0.1h-3.5c-0.1-1.1-0.5-2-1.4-2.7
				c-0.9-0.6-2-0.9-3.5-0.9c-1.5,0-2.6,0.3-3.3,0.8c-0.8,0.5-1.1,1.3-1.1,2.2c0,0.7,0.2,1.2,0.7,1.6c0.5,0.4,1.4,0.7,2.7,1l3.5,0.8
				c2.5,0.6,4.2,1.3,5.2,2.3c0.9,0.9,1.4,2.2,1.4,3.9c0,2.2-0.8,4-2.4,5.2c-1.6,1.2-3.8,1.9-6.6,1.9c-2.8,0-4.9-0.7-6.4-2
				C597,214.4,596.2,212.5,596.2,210z"/>
			<path d="M618.2,225.7v-30.2h3.6v3c0.9-1.3,1.9-2.2,3-2.8c1.1-0.6,2.5-0.9,4-0.9c2.9,0,5.2,1,6.9,3.1c1.7,2.1,2.6,4.9,2.6,8.3
				c0,3.5-0.9,6.3-2.6,8.4c-1.7,2.1-4,3.1-6.9,3.1c-1.5,0-2.9-0.3-4-0.8s-2.1-1.4-3-2.5v11.3H618.2z M621.7,206.4
				c0,2.7,0.5,4.7,1.6,6.1c1.1,1.4,2.7,2,4.8,2c2,0,3.6-0.7,4.7-2.2c1.1-1.5,1.7-3.6,1.7-6.3c0-2.5-0.6-4.4-1.7-5.8
				c-1.2-1.4-2.7-2.1-4.7-2.1c-2,0-3.6,0.7-4.7,2.2C622.2,201.6,621.7,203.7,621.7,206.4z"/>
			<path d="M657.3,210.1h3.6c-0.4,2.4-1.4,4.3-3.1,5.6c-1.7,1.4-3.8,2.1-6.4,2.1c-3,0-5.4-1-7.1-3c-1.7-2-2.6-4.8-2.6-8.3
				c0-3.7,0.9-6.6,2.6-8.6c1.7-2.1,4.1-3.1,7.1-3.1c3.1,0,5.5,1,7.2,2.9c1.7,1.9,2.6,4.6,2.6,8.1c0,0.4,0,0.8,0,1
				c0,0.2,0,0.4-0.1,0.6h-15.6c0,2.3,0.6,4,1.7,5.3c1.1,1.2,2.6,1.9,4.5,1.9c1.5,0,2.7-0.4,3.7-1.1
				C656.4,212.6,657,211.5,657.3,210.1z M645.5,204.3h11.9c0-2-0.5-3.6-1.5-4.7c-1-1.1-2.4-1.6-4.3-1.6c-1.8,0-3.2,0.5-4.2,1.6
				C646.3,200.7,645.7,202.2,645.5,204.3z"/>
			<path d="M679.7,202.6c-0.1-1.5-0.6-2.6-1.6-3.4s-2.3-1.2-3.9-1.2c-2,0-3.5,0.7-4.6,2.1c-1.1,1.4-1.6,3.4-1.6,6.1
				c0,2.6,0.5,4.7,1.5,6.1c1,1.4,2.5,2.1,4.4,2.1c1.7,0,3-0.4,4.1-1.3s1.6-2.1,1.9-3.8h3.5c-0.2,2.7-1.1,4.7-2.8,6.2
				c-1.7,1.5-3.9,2.2-6.8,2.2c-3,0-5.3-1-7-3c-1.7-2-2.5-4.8-2.5-8.4c0-3.6,0.9-6.5,2.6-8.5c1.8-2.1,4.2-3.1,7.3-3.1
				c2.7,0,4.9,0.7,6.5,2.1c1.6,1.4,2.5,3.3,2.6,5.8H679.7z"/>
			<path d="M687,191.5v-4.1h3.6v4.1H687z M687,217.1v-21.6h3.6v21.6H687z"/>
			<path d="M709.5,214.2c-1.1,1.2-2.3,2.1-3.6,2.7c-1.3,0.6-2.6,0.9-4,0.9c-2.2,0-3.9-0.6-5.2-1.7c-1.2-1.2-1.9-2.7-1.9-4.8
				c0-2,0.6-3.5,1.8-4.6c1.2-1.1,3.1-1.8,5.6-2.2c0.6-0.1,1.5-0.2,2.6-0.3c1.8-0.2,3-0.4,3.4-0.5c0.4-0.2,0.7-0.4,0.8-0.6
				c0.1-0.3,0.2-0.8,0.2-1.7c0-1.1-0.4-1.9-1.2-2.5c-0.8-0.6-2-0.8-3.7-0.8c-1.7,0-2.9,0.3-3.8,1c-0.9,0.7-1.3,1.7-1.3,3h-3.4v-0.2
				c0-2.2,0.8-3.9,2.3-5.2c1.5-1.3,3.6-1.9,6.3-1.9c2.9,0,5,0.5,6.4,1.6c1.4,1.1,2,2.8,2,5.1v10.8c0,0.9,0.1,1.5,0.3,1.8
				c0.2,0.3,0.6,0.4,1.1,0.4c0.1,0,0.2,0,0.4,0c0.2,0,0.3-0.1,0.6-0.1v2.8c-0.4,0.1-0.8,0.2-1.2,0.3c-0.3,0-0.6,0.1-0.9,0.1
				c-1.2,0-2.1-0.3-2.7-0.8c-0.6-0.5-0.9-1.3-0.9-2.4V214.2z M709.2,206.1c-1,0.5-2.6,0.9-5,1.2c-0.8,0.1-1.5,0.2-1.9,0.3
				c-1.3,0.2-2.3,0.6-2.8,1.2c-0.6,0.6-0.9,1.4-0.9,2.5c0,1.1,0.3,1.9,1,2.5c0.7,0.6,1.6,0.9,2.9,0.9c2,0,3.6-0.5,4.8-1.5
				c1.3-1,1.9-2.2,1.9-3.8V206.1z"/>
			<path d="M718.7,217.1v-29.7h3.7v29.7H718.7z"/>
		</g>
	</g>
	<g>
		<g>
			<path d="M313.6,13.8h85.8v26h-56.1v18.2H394v24.7h-50.7V121H323c-5.2,0-9.5-4.2-9.5-9.5V13.8z"/>
			<path d="M412.2,67.7v-0.3c0-31.2,24-55.8,56.5-55.8c21.9,0,36,9.2,45.5,22.4l-22.4,17.3c-6.1-7.7-13.2-12.6-23.4-12.6
				c-15,0-25.6,12.7-25.6,28.3v0.3c0,16.1,10.6,28.6,25.6,28.6c11.2,0,17.8-5.2,24.2-13L515,98.9c-10.1,13.9-23.7,24.2-47.5,24.2
				C436.9,123.1,412.2,99.7,412.2,67.7"/>
			<path d="M530.8,13.8H617v25.3h-56.8v16.2h51.5v23.4h-51.5v17h57.6V121h-77.5c-5.2,0-9.5-4.2-9.5-9.5V13.8z"/>
			<path d="M636,13.8h86.2v25.3h-56.8v16.2h51.5v23.4h-51.5v17h57.6V121h-77.6c-5.2,0-9.5-4.2-9.5-9.5V13.8z"/>
		</g>
	</g>
	<g>
		<g>
			<defs>
				<path id="SVGID_1_" d="M58.8,88.3l-16.3,28c-0.7,1.2-0.5,2.6,0.4,3.6c9.1,9.9,23.2,18.3,39.2,23.3c4.4,1.4,8.8,2.2,13.2,2.7
					c12.2,1.3,18.8,15.1,12.1,25.4c-5.4,8.3-14.9,13-24.8,12c-4.7-0.5-9.5-1.4-14.1-2.8c-18.7-5.8-34.7-16.1-43.6-27.8
					c-1.3-1.7-3.9-1.5-4.9,0.3c-4.9,8.4-16,27.5-19.6,33.7c-0.7,1.2-0.5,2.7,0.5,3.6C15.2,204,34.2,215,55.7,221.6
					c5.2,1.6,10.5,2.8,15.6,3.6c19.6,3.1,38,1.1,52.6-1.3c2.6-0.4,8.1-1.4,14.5-2.6c6.3-1.2,13.5-2.5,16-2.9
					c14.2-2.2,30.9-3.9,47,1.1c7.9,2.4,15.3,5.7,21.9,9.5c1.4,0.8,3.2,0.3,4.1-1.1l18.6-32.1c0.8-1.4,0.4-3.3-1.1-4.1
					c-9.4-5.4-19.7-9.9-30.6-13.3c-9.9-3.1-19.6-4.5-28.9-5c-12.9-0.7-20.1-15.1-13.2-25.9c4.9-7.6,13.4-12.2,22.5-11.9
					c9.8,0.3,20.2,1.8,30.7,5.1c14.4,4.5,27.6,11,39,19c1.4,1,3.4,0.5,4.3-1l16.7-28.7c0.7-1.2,0.5-2.8-0.6-3.7
					c-13.4-11.7-30.5-21.2-49.5-27.1c-13-4-25.7-5.5-37.4-5.1c-7.3,0.2-25.9,3-25.9,3l-28.2,4.6c-2,0.4-3.7,0.7-4.5,0.8
					c-14.4,2.4-31.2,4.2-47.3-0.8c-10.9-3.4-20.8-8.4-28.9-14.3c-0.5-0.4-1.1-0.6-1.7-0.6C60.4,86.8,59.4,87.3,58.8,88.3"/>
			</defs>
			<clipPath id="SVGID_2_">
				<use xlink:href="#SVGID_1_"  style="overflow:visible;"/>
			</clipPath>
			
				<linearGradient id="SVGID_3_" gradientUnits="userSpaceOnUse" x1="-131.8706" y1="508.4924" x2="-130.548" y2="508.4924" gradientTransform="matrix(216.1544 0 0 -216.1544 28504.1211 110071.2031)">
				<stop  offset="0" style="stop-color:#EA1F27"/>
				<stop  offset="0.6164" style="stop-color:#B21C22"/>
				<stop  offset="1" style="stop-color:#931B20"/>
			</linearGradient>
			<rect x="-0.3" y="86.8" class="st0" width="286.5" height="143.1"/>
		</g>
		<g>
			<defs>
				<path id="SVGID_4_" d="M132.3,42.7c0,23.6,19.1,42.7,42.7,42.7c23.6,0,42.7-19.1,42.7-42.7C217.7,19.1,198.6,0,175,0
					C151.4,0,132.3,19.1,132.3,42.7"/>
			</defs>
			<clipPath id="SVGID_5_">
				<use xlink:href="#SVGID_4_"  style="overflow:visible;"/>
			</clipPath>
			
				<linearGradient id="SVGID_6_" gradientUnits="userSpaceOnUse" x1="-133.5301" y1="509.8469" x2="-132.2075" y2="509.8469" gradientTransform="matrix(64.5205 0 0 -64.5205 8747.7588 32938.2266)">
				<stop  offset="0" style="stop-color:#EA1F27"/>
				<stop  offset="0.6164" style="stop-color:#B21C22"/>
				<stop  offset="1" style="stop-color:#931B20"/>
			</linearGradient>
			<rect x="132.3" class="st1" width="85.3" height="85.3"/>
		</g>
	</g>
</g>
<g>
</g>
<g>
</g>
<g>
</g>
<g>
</g>
<g>
</g>
<g>
</g>
<g>
</g>
<g>
</g>
<g>
</g>
<g>
</g>
<g>
</g>
<g>
</g>
<g>
</g>
<g>
</g>
<g>
</g>
</svg>
