<?xml version="1.0" encoding="utf-8"?>
<!-- Generator: Adobe Illustrator 24.0.2, SVG Export Plug-In . SVG Version: 6.00 Build 0)  -->
<svg version="1.1" id="Camada_1" xmlns="http://www.w3.org/2000/svg" xmlns:xlink="http://www.w3.org/1999/xlink" x="0px" y="0px"
	 viewBox="0 0 646.66 1319.77" style="enable-background:new 0 0 646.66 1319.77;" xml:space="preserve">
<style type="text/css">
	.st0{fill:#F2E9C6;}
	.st1{fill:#DAA723;}
	.st2{font-family:'Livvic-SemiBold';}
	.st3{font-size:24.0656px;}
	.st4{font-family:'Livvic-Bold';}
	.st5{font-size:30.082px;}
	.st6{font-size:27.1385px;}
	.st7{fill:#F7F7F6;}
	.st8{font-family:'Livvic-Medium';}
</style>
<g id="Camada_2_1_">
</g>
<g id="Camada_1_1_">
	<path class="st0" d="M373.8,913.7c64.35-19.17,119.55-41.94,184.09-60.94c24.7-7.27,37.08-13.97,36.61-30.92
		c-0.66-23.81-6.18-47.65-7.31-71.79c-1.26-26.94-0.96-53.92-0.04-80.86c1.77-52.06,5.95-104.05,5.95-156.16
		c0-20.91-5.08-18.01-24.12-13.82c-16.68,3.67-33.26,7.76-49.72,12.28c-32.93,9.04-65.4,19.76-97.24,32.11
		c-21.02,8.15-41.71,20.69-64.71,21.43c-19.35,0.62-38.77-6.03-57.21-11.02c-6.71-1.81-13.41-3.64-20.11-5.46
		c-32.09-8.73-64.18-17.45-96.27-26.18c-11.4-3.1-81.42-29.46-88.16-22.13c-3.99,4.34,3.01,30.89,3.5,36.34
		c1.53,16.89,2.69,33.81,3.48,50.76c1.49,32,1.67,64.06,0.54,96.08c-1.05,29.6-3.21,59.17-6.5,88.6
		c-1.9,17.01-17.23,59.31,5.82,66.73c77.52,24.95,163.17,52.26,241.71,76.38C351.07,917.24,365.83,916.07,373.8,913.7z"/>
	<path class="st0" d="M356.67,513.89c86.01-19.9,136.12-48.97,221.49-69.3c5.41-1.29,10.69-4.62,10.9-7.07
		c1.05-12.33,0.34-24.69,0.35-37.03c0-52.36-3.14-103.48-4.64-155.72c-0.38-13.08,1.52-26.27-0.29-39.3
		c-5.09-36.76-39.11-33.22-67.97-29.84c-25.63,3.01-52.18,1.93-77.76,2.26c-26.84,0.34-53.68-0.82-80.52-0.47
		c-47.89,0.63-95.8-0.98-143.54-4.83c-31.34-2.53-62.42-5.39-93.89-3.69c-23.63,1.28-32.2-0.01-29.62,26.91
		c2.49,25.99,3.01,52.36,3.21,78.46c0.38,50.5-2.47,101.03-8.56,151.17c-3.14,25.85,21.02,25.1,40.57,30.49
		c23.65,6.52,47.33,12.93,71.02,19.31c47.08,12.68,94.2,25.2,141.29,37.86C343.24,514.33,352.39,514.88,356.67,513.89z"/>
	<g>
		<path class="st1" d="M336.74,897.61c-4.27,0-8.21-0.38-11.05-1.25c-65.66-20.16-142.48-44.43-241.75-76.39
			c-20.85-6.72-14.5-36.93-10.29-56.93c1.09-5.16,2.03-9.62,2.4-13.01c3.26-29.21,5.45-58.95,6.49-88.38
			c1.13-31.83,0.94-64.07-0.54-95.83c-0.78-16.81-1.95-33.84-3.47-50.63c-0.11-1.25-0.68-4.11-1.34-7.42
			c-3.64-18.22-4.77-27.54-1.37-31.23c4.99-5.42,23.63-1.4,76.71,16.54c6.73,2.28,12.04,4.07,14.44,4.73l116.38,31.65
			c2.99,0.81,6,1.66,9.04,2.51c15.5,4.38,31.53,8.91,47.29,8.4c16.41-0.52,32.04-7.47,47.15-14.18c5.42-2.41,11.02-4.89,16.57-7.05
			c31.81-12.34,64.62-23.18,97.53-32.21c16.4-4.5,33.18-8.65,49.87-12.32c1.46-0.32,2.83-0.63,4.13-0.93
			c9.35-2.13,14.99-3.42,19.07-0.16c3.81,3.04,4.57,9.08,4.57,17.84c0,33.15-1.71,66.76-3.37,99.27c-0.95,18.68-1.94,38-2.58,57
			c-1.07,31.51-1.06,57.13,0.04,80.62c0.53,11.4,2.09,22.96,3.59,34.14c1.66,12.34,3.37,25.11,3.72,37.71
			c0.57,20.62-17.22,27.55-38.76,33.89c-32.75,9.64-63.63,20.45-93.5,30.9c-28.95,10.13-58.88,20.6-90.57,30.04
			C351.76,896.57,343.8,897.61,336.74,897.61z M355.42,889.2l0.86,2.88L355.42,889.2c31.56-9.4,61.42-19.85,90.3-29.96
			c29.94-10.47,60.9-21.31,93.79-30.99c26.78-7.88,34.82-14.42,34.45-27.96c-0.34-12.28-2.04-24.89-3.67-37.07
			c-1.52-11.31-3.09-23.01-3.64-34.66c-1.11-23.65-1.12-49.42-0.04-81.1c0.65-19.05,1.63-38.39,2.59-57.1
			c1.65-32.43,3.36-65.96,3.36-98.96c0-4.85-0.24-11.49-2.31-13.14c-1.82-1.45-6.92-0.29-13.98,1.32c-1.31,0.3-2.7,0.62-4.18,0.94
			c-16.59,3.65-33.27,7.77-49.58,12.25c-32.72,8.97-65.33,19.75-96.95,32.01c-5.42,2.1-10.95,4.56-16.3,6.94
			c-15.64,6.95-31.81,14.13-49.4,14.69c-16.66,0.52-33.17-4.12-49.12-8.62c-3.01-0.85-6-1.7-8.97-2.5l-116.39-31.65
			c-2.58-0.7-7.97-2.52-14.79-4.83c-15.99-5.41-64.65-21.85-70.45-18.09c-1.69,2.68,1.67,19.55,2.94,25.89
			c0.72,3.62,1.29,6.48,1.44,8.05c1.53,16.87,2.7,33.99,3.49,50.89c1.49,31.92,1.67,64.33,0.54,96.32
			c-1.05,29.58-3.24,59.47-6.52,88.83c-0.41,3.67-1.37,8.26-2.49,13.58c-3.99,18.95-9.45,44.91,6.24,49.96
			c99.25,31.95,176.04,56.21,241.67,76.37C333.79,892.55,347.94,891.43,355.42,889.2z"/>
	</g>
	<g>
		<path class="st1" d="M335.87,501.78c-4.55,0-9.65-0.56-12.73-1.39c-22.11-5.95-44.23-11.86-66.35-17.78
			c-24.99-6.68-49.97-13.36-74.94-20.09c-19.59-5.28-45.37-12.24-71.03-19.32c-3.43-0.95-7.1-1.72-10.65-2.46
			c-16.41-3.45-35.02-7.36-32.11-31.29c6.05-49.81,8.92-100.54,8.54-150.78c-0.22-29.23-0.85-53.71-3.2-78.19
			c-1.18-12.34-0.12-19.16,3.66-23.53c4.73-5.47,12.69-5.87,24.75-6.46l4.04-0.21c29.37-1.58,58.88,0.82,87.42,3.14l6.87,0.56
			c47.43,3.82,95.63,5.45,143.26,4.82c13.5-0.18,27.2,0.03,40.45,0.23c13.14,0.2,26.73,0.41,40.08,0.23
			c6.57-0.09,13.2-0.08,19.86-0.07c19.04,0.01,38.7,0.05,57.59-2.17c27.74-3.25,65.74-7.71,71.3,32.42
			c1.15,8.33,0.84,16.74,0.54,24.87c-0.18,4.86-0.37,9.88-0.23,14.76c0.52,18.05,1.24,36.26,1.95,53.87
			c1.32,33.25,2.7,67.62,2.7,101.93c0,3.52,0.06,7.04,0.12,10.57c0.14,8.74,0.29,17.77-0.47,26.72c-0.42,4.9-8.32,8.57-13.2,9.74
			c-41.88,9.97-75.83,22.27-108.66,34.16c-33.94,12.29-69.03,25-112.85,35.14l-0.68-2.93l0.68,2.93
			C340.81,501.61,338.42,501.78,335.87,501.78z M125.62,155.78c-6.49,0-12.98,0.15-19.45,0.5l-4.07,0.21
			c-10.5,0.52-17.44,0.86-20.49,4.39c-2.52,2.91-3.2,8.78-2.22,19.02c2.37,24.7,3,49.33,3.22,78.72c0.38,50.5-2.5,101.5-8.58,151.56
			c-2.13,17.56,9.01,20.82,27.38,24.68c3.64,0.77,7.4,1.56,11.01,2.55c25.65,7.07,51.42,14.03,71,19.31
			c24.97,6.73,49.95,13.41,74.93,20.08c22.12,5.92,44.24,11.83,66.36,17.78c3.99,1.07,12.72,1.63,16.5,0.75l0,0
			c43.47-10.06,78.39-22.71,112.16-34.94c32.99-11.95,67.1-24.3,109.32-34.35c4.59-1.09,8.2-3.61,8.64-4.62
			c0.69-8.42,0.54-17.3,0.4-25.89c-0.06-3.55-0.12-7.11-0.12-10.66c0-34.19-1.37-68.51-2.69-101.69
			c-0.7-17.63-1.43-35.85-1.95-53.94c-0.15-5.07,0.04-10.2,0.23-15.15c0.29-7.87,0.59-16.01-0.49-23.82
			c-4.4-31.77-30.71-31.25-64.64-27.27c-19.24,2.25-39.09,2.22-58.3,2.21c-6.63-0.01-13.24-0.01-19.78,0.07
			c-13.42,0.17-27.06-0.03-40.24-0.24c-13.21-0.2-26.87-0.41-40.28-0.23c-47.82,0.62-96.2-1-143.82-4.84l-6.88-0.56
			C170.77,157.62,148.18,155.78,125.62,155.78z"/>
	</g>
	<g>
		<text transform="matrix(1 0 0 1 119.3801 270.1875)" class="st2 st3">Os responsáveis e os jovens se reúnem </text>
		<text transform="matrix(1 0 0 1 119.3801 299.0675)" class="st2 st3">separadamente, de forma que cada </text>
		<text transform="matrix(1 0 0 1 119.3801 327.9475)" class="st2 st3">grupo tenha um espaço entre iguais </text>
		<text transform="matrix(1 0 0 1 119.3801 356.8275)" class="st2 st3">para se expressar. Os temas são </text>
		<text transform="matrix(1 0 0 1 119.3801 385.6975)" class="st2 st3">tratados com linguagem adequada </text>
		<text transform="matrix(1 0 0 1 119.3801 414.5775)" class="st2 st3">ao público.</text>
	</g>
	<text transform="matrix(1 0 0 1 221.4328 222.0381)" class="st1 st4 st5">1º MOMENTO</text>
	<g>
		<text transform="matrix(1 0 0 1 166.4826 660.8047)" class="st2 st3">Os jovens e responsáveis</text>
		<text transform="matrix(1 0 0 1 166.4826 689.6847)" class="st2 st3">participam juntos, para o uso </text>
		<text transform="matrix(1 0 0 1 166.4826 718.5647)" class="st2 st3">de habilidades aprendidas na </text>
		<text transform="matrix(1 0 0 1 166.4826 747.4447)" class="st2 st3">hora anterior e diversão em </text>
		<text transform="matrix(1 0 0 1 166.4826 776.3147)" class="st2 st3">família, acompanhados pelos </text>
		<text transform="matrix(1 0 0 1 166.4826 805.1947)" class="st2 st3">facilitadores dos grupos.</text>
	</g>
	<text transform="matrix(1 0 0 1 221.4328 615.0234)" class="st1 st4 st5">2º MOMENTO</text>
	<path class="st0" d="M373.8,1317.24c64.35-19.17,119.55-41.94,184.09-60.94c24.7-7.27,37.08-13.97,36.61-30.92
		c-0.66-23.81-6.18-47.65-7.31-71.79c-1.26-26.94-0.96-53.92-0.04-80.86c1.77-52.06,5.95-104.05,5.95-156.16
		c0-20.91-5.08-18.01-24.12-13.82c-16.68,3.67-33.26,7.76-49.72,12.28c-32.93,9.04-65.4,19.76-97.24,32.11
		c-21.02,8.15-41.71,20.69-64.71,21.43c-19.35,0.62-38.77-6.03-57.21-11.02c-6.71-1.81-13.41-3.64-20.11-5.46
		c-32.09-8.73-64.18-17.45-96.27-26.18c-11.4-3.1-81.42-29.46-88.16-22.13c-3.99,4.34,3.01,30.89,3.5,36.34
		c1.53,16.89,2.69,33.81,3.48,50.76c1.49,32,1.67,64.06,0.54,96.08c-1.05,29.6-3.21,59.17-6.5,88.6
		c-1.9,17.01-17.23,59.31,5.82,66.73c77.52,24.95,163.17,52.26,241.71,76.38C351.07,1320.78,365.83,1319.61,373.8,1317.24z"/>
	<g>
		<path class="st1" d="M336.74,1301.15c-4.27,0-8.21-0.38-11.05-1.25c-65.66-20.16-142.48-44.43-241.75-76.39
			c-20.85-6.72-14.5-36.93-10.29-56.93c1.09-5.16,2.03-9.62,2.4-13.01c3.26-29.21,5.45-58.94,6.49-88.37
			c1.13-31.83,0.94-64.07-0.54-95.83c-0.78-16.81-1.95-33.84-3.47-50.63c-0.11-1.25-0.68-4.11-1.34-7.42
			c-3.64-18.22-4.77-27.53-1.37-31.23c5-5.42,23.63-1.4,76.74,16.55c6.71,2.27,12.02,4.06,14.42,4.72l100.34,27.29
			c5.35,1.45,10.69,2.91,16.04,4.35c2.99,0.81,6,1.66,9.03,2.51c15.5,4.38,31.53,8.86,47.3,8.4c16.41-0.53,32.04-7.47,47.15-14.18
			c5.41-2.41,11.01-4.89,16.56-7.05c31.79-12.34,64.61-23.17,97.53-32.21c16.43-4.5,33.21-8.65,49.87-12.32
			c1.46-0.32,2.84-0.63,4.14-0.93c9.35-2.13,14.99-3.41,19.07-0.15c3.81,3.03,4.57,9.08,4.57,17.84c0,33.15-1.71,66.76-3.37,99.26
			c-0.95,18.69-1.94,38-2.58,57.01c-1.07,31.51-1.06,57.13,0.04,80.62c0.53,11.4,2.09,22.96,3.59,34.14
			c1.66,12.35,3.37,25.11,3.72,37.71c0.57,20.62-17.22,27.55-38.76,33.89c-32.75,9.64-63.63,20.45-93.5,30.9
			c-28.95,10.13-58.88,20.6-90.57,30.04C351.76,1300.11,343.8,1301.15,336.74,1301.15z M355.42,1292.74l0.86,2.88L355.42,1292.74
			c31.56-9.4,61.42-19.85,90.3-29.96c29.94-10.47,60.9-21.31,93.79-30.99c26.78-7.88,34.82-14.42,34.45-27.96
			c-0.34-12.28-2.04-24.89-3.67-37.08c-1.52-11.31-3.09-23-3.64-34.66c-1.11-23.65-1.12-49.42-0.04-81.1
			c0.65-19.05,1.63-38.4,2.59-57.11c1.65-32.43,3.36-65.96,3.36-98.96c0-4.85-0.24-11.49-2.31-13.14
			c-1.82-1.45-6.92-0.29-13.98,1.32c-1.31,0.3-2.71,0.62-4.18,0.94c-16.56,3.65-33.24,7.77-49.58,12.25
			c-32.73,8.98-65.35,19.75-96.95,32.01c-5.42,2.1-10.95,4.56-16.3,6.94c-15.64,6.95-31.81,14.13-49.4,14.69
			c-16.68,0.54-33.18-4.12-49.12-8.62c-3.01-0.85-6-1.7-8.96-2.49c-5.36-1.45-10.71-2.91-16.06-4.36l-100.34-27.29
			c-2.58-0.7-7.96-2.52-14.77-4.82c-15.99-5.41-64.67-21.86-70.48-18.09c-1.69,2.68,1.67,19.54,2.94,25.89
			c0.72,3.62,1.29,6.48,1.44,8.06c1.52,16.87,2.7,33.99,3.49,50.88c1.49,31.92,1.67,64.33,0.54,96.32
			c-1.05,29.58-3.24,59.47-6.52,88.83c-0.41,3.67-1.37,8.26-2.49,13.58c-3.99,18.95-9.45,44.91,6.24,49.96
			c99.25,31.95,176.04,56.21,241.67,76.37C333.79,1296.1,347.94,1294.97,355.42,1292.74z"/>
	</g>
	<g>
		<text transform="matrix(1 0 0 1 146.4885 1077.2969)" class="st2 st3">De desenvolvimento e prática de </text>
		<text transform="matrix(1 0 0 1 146.4885 1106.1769)" class="st2 st3">casa, quando os participantes são</text>
		<text transform="matrix(1 0 0 1 146.4885 1135.0569)" class="st2 st3">estimulados a experimentarem as</text>
		<text transform="matrix(1 0 0 1 146.4885 1163.9369)" class="st2 st3">técnicas e habilidades aprendidas </text>
		<text transform="matrix(1 0 0 1 146.4885 1192.8069)" class="st2 st3">ao longo da semana.</text>
	</g>
	<text transform="matrix(1 0 0 1 231.6897 1031.5156)" class="st1 st4 st5">3º MOMENTO</text>
	<g>
		<text transform="matrix(1 0 0 1 6.0369 25.3472)" class="st1 st4 st6">DESCRIÇÃO DOS MOMENTOS DE UM ENCONTRO</text>
	</g>
	<path class="st1" d="M390.17,60.28c-1.63-3.11-1.13-6.33-0.64-9.45c0.26-1.67,0.53-3.4,0.47-5.1c-0.08-2.32-0.77-4.73-8.07-6.49
		c-6.83-1.65-17.66-2.24-26.36-2.72c-16.21-0.89-31.91-0.79-48.53-0.67c-3.86,0.03-7.86,0.05-11.82,0.07h-0.28
		c-18.59,0.06-87.14,0.12-106.04,0.12H62.97c-12.14,0-26.22,0.15-38.71,1.24c-3.41,0.3-6.75,0.96-10.13,1.14
		c-3.08,0.16-6.34,0.35-8.51,2.33c-1.71,1.56-2.09,3.73-2.41,5.77c-1,6.51-2,13.03-3,19.54c-0.29,1.86-0.52,3.92,0.86,5.46
		c2.36,2.64,8.11,2.63,11.77,2.96c7.89,0.7,16.76,0.73,24.59,0.75c42.46,0.12,83.98,0.23,125.09,0.19
		c19.21-0.01,38.74,0.14,57.64,0.28c18.06,0.14,36.64,0.28,55.11,0.28c3.55,0,7.1-0.01,10.64-0.02c19.67-0.06,37.05-0.17,53.13-0.31
		c1.16-0.01,2.3-0.02,3.42-0.03c13.81-0.11,25.73-0.2,36.91-2.54c6.71-1.41,10.57-3.42,11.81-6.16
		C392.19,64.71,391.29,62.42,390.17,60.28z"/>
	<text transform="matrix(1 0 0 1 14.5066 65.1164)" class="st7 st8 st6">do Programa Famílias Fortes</text>
</g>
</svg>
