<?xml version="1.0" encoding="utf-8"?>
<!-- Generator: Adobe Illustrator 24.0.2, SVG Export Plug-In . SVG Version: 6.00 Build 0)  -->
<svg version="1.1" xmlns="http://www.w3.org/2000/svg" xmlns:xlink="http://www.w3.org/1999/xlink" x="0px" y="0px"
	 viewBox="0 0 575 90" style="enable-background:new 0 0 575 90;" xml:space="preserve">
<style type="text/css">
	.st0{fill:#FFEE00;}
	.st1{fill:#FFF566;}
	.st2{fill:#FFF899;}
	.st3{display:none;}
	.st4{display:inline;}
	.st5{fill:#F4F4F4;}
</style>
<g id="Camada_1">
</g>
<g id="Camada_2">
</g>
<g id="Camada_3">
</g>
<g id="Camada_4">
</g>
<g id="Camada_5">
</g>
<g id="Camada_6" class="st3">
	<g class="st4">
		<path id="XMLID_9_" class="st0" d="M302.54,46.51C146.08,67.11,10.12,50.84,10.12,50.84c-7.26-0.9-9.41-2.29-9.95-3.27v25.77
			c0,0-2.27,2.92,9.95,4.43c0,0,142.34,20.43,292.42-4.33s199.19-43.86,655.2,3.36c0,0,27.77,3.6,69.33,5.94
			c-36.63-2.45-58.83-6.16-58.83-6.16C540.07,23.45,471.27,24.31,302.54,46.51z"/>
		<path id="XMLID_8_" class="st1" d="M996.58,49.11c-18.12-1.76-28.34-3.3-28.34-3.3c-18.29-1.63-39.83-4.34-62.93-7.69
			C796.12,22.28,697.08,1.26,697.08,1.26l-10.32-5.58H0.17v2.6v48.14c0,0-0.37,0.48,0,1.15c0.55,0.98,2.69,2.38,9.95,3.27
			c0,0,135.96,16.27,292.42-4.33c168.72-22.21,237.53-23.07,665.7,30.06c0,0,22.2,3.72,58.83,6.16c22.74,1.52,51.04,2.55,83.04,1.89
			c41.65-0.85,89.57-4.56,139.66-13.75c9.32-1.71,18.72-3.61,28.17-5.72V40.99C1156.63,60.49,1046.56,53.97,996.58,49.11z"/>
	</g>
</g>
<g id="Camada_7">
	<g>
		<g>
			<g>
				<path id="XMLID_75_" class="st5" d="M132.14,56.27C64.13,74.01,5.03,60,5.03,60c-3.16-0.77-4.09-1.97-4.33-2.82v22.19
					c0,0-0.98,2.51,4.33,3.81c0,0,61.87,17.59,127.11-3.73s106.1-37.77,304.32,2.9c0,0,12.07,3.1,30.14,5.12
					c-15.92-2.11-25.57-5.31-25.57-5.31C254.9,36.41,205.48,37.15,132.14,56.27z"/>
				<path id="XMLID_74_" class="st5" d="M452.7,58.51c-7.87-1.51-12.32-2.84-12.32-2.84c-7.95-1.41-17.31-3.74-27.35-6.62
					C365.57,35.4,303,9.29,303,9.29l-4.49-4.8H0.07v2.24v49.46c0,0-0.16,0.41,0,0.99C0.31,58.03,1.24,59.23,4.4,60
					c0,0,59.1,14.01,127.11-3.73c73.34-19.12,122.77-19.86,308.88,25.89c0,0,9.65,3.2,25.57,5.31c9.88,1.31,22.19,2.19,36.09,1.63
					c18.1-0.73,38.93-3.93,60.71-11.84c4.05-1.47,8.14-3.11,12.24-4.93V51.52C522.27,68.31,474.43,62.69,452.7,58.51z"/>
				<path id="XMLID_73_" class="st5" d="M291.97,4.49l11.66,4.8c0,0,62.57,26.11,110.03,39.76c10.04,2.89,19.4,5.22,27.35,6.62
					c0,0,4.44,1.33,12.32,2.84c21.72,4.18,69.57,9.8,121.67-6.99V4.49H291.97z"/>
			</g>
		</g>
		<g>
			<path id="XMLID_128_" class="st0" d="M131.54,51.86c-68,17.73-127.09,3.73-127.09,3.73c-3.16-0.77-4.09-1.97-4.33-2.82v22.19
				c0,0-0.98,2.51,4.33,3.81c0,0,61.86,17.59,127.09-3.73s106.09-37.77,304.28,2.9c0,0,12.07,3.1,30.13,5.12
				c-15.92-2.11-25.57-5.31-25.57-5.31C254.29,32,204.87,32.74,131.54,51.86z"/>
			<path id="XMLID_127_" class="st1" d="M452.7,54.1c-7.87-1.51-12.32-2.84-12.32-2.84c-7.95-1.41-17.31-3.74-27.35-6.62
				C365.57,30.99,303.01,4.88,303.01,4.88l-4.49-4.8H0.12v2.24v49.46c0,0-0.16,0.41,0,0.99c0.24,0.85,1.17,2.05,4.33,2.82
				c0,0,59.09,14.01,127.09-3.73C204.87,32.74,254.29,32,440.38,77.75c0,0,9.65,3.2,25.57,5.31c9.88,1.31,22.18,2.19,36.09,1.63
				c18.1-0.73,38.93-3.93,60.7-11.84c4.05-1.47,8.14-3.11,12.24-4.93V47.11C522.25,63.89,474.42,58.28,452.7,54.1z"/>
			<path id="XMLID_126_" class="st2" d="M291.35,0.08l11.66,4.8c0,0,62.56,26.11,110.02,39.76c10.04,2.89,19.4,5.22,27.35,6.62
				c0,0,4.44,1.33,12.32,2.84c21.72,4.18,69.56,9.8,122.28-6.99V0.08H291.35z"/>
		</g>
	</g>
</g>
<g id="Camada_8">
</g>
<g id="Camada_9">
</g>
<g id="Camada_10">
</g>
</svg>
