<?xml version="1.0" encoding="utf-8"?>
<!-- Generator: Adobe Illustrator 24.0.2, SVG Export Plug-In . SVG Version: 6.00 Build 0)  -->
<svg version="1.1" id="Camada_1" xmlns="http://www.w3.org/2000/svg" xmlns:xlink="http://www.w3.org/1999/xlink" x="0px" y="0px"
	 viewBox="0 0 540 104.92" style="enable-background:new 0 0 540 104.92;" xml:space="preserve">
<style type="text/css">
	.st0{fill:#CDECF5;}
</style>
<path class="st0" d="M519.89,0.32V0.2h-0.48c-0.16-0.04-0.32-0.09-0.49-0.12c-0.89-0.17-6.98-0.04-7.94,0.12H92.95
	c-0.12,0-0.23-0.02-0.35-0.02H14.42C6.46,0.18,0,6.64,0,14.6v75.9c0,7.96,6.46,14.42,14.42,14.42H92.6c0.15,0,0.29-0.02,0.44-0.02
	c10.09,0.03,26.26,0.05,27.02-0.1h375.97l-0.05-0.02c0.82,0.16,5.36-0.45,5.92-0.56c7.58-1.48,13.31-7.97,13.31-15.94
	c0-7.97-5.72-14.61-13.31-16.09c-0.56-0.11-1.82-0.21-3.09-0.14c-1.09,0.05-2.18,0.25-2.23,0.27c-6.96,1.4-15.01,3.01-19.19,3.85
	c-0.84,0.17-1.93,0.36-3.02,0.42c-1.28,0.06-2.54-0.03-3.09-0.14c-7.58-1.48-13.31-8.12-13.31-16.09s5.72-14.61,13.31-16.09
	c0.56-0.11,1.81-0.21,3.09-0.14c1.09,0.06,2.18,0.25,3.1,0.45c12.37,2.51,25.12,5.08,31.74,6.42c1.34,0.27,3.07,0.58,4.79,0.67
	c2.03,0.1,4.02-0.06,4.9-0.23C530.93,49.05,540,38.46,540,25.75C540,13.38,531.41,3.05,519.89,0.32z"/>
</svg>
