<?xml version="1.0" encoding="utf-8"?>
<!-- Generator: Adobe Illustrator 24.0.1, SVG Export Plug-In . SVG Version: 6.00 Build 0)  -->
<svg version="1.1" id="Layer_1" xmlns="http://www.w3.org/2000/svg" xmlns:xlink="http://www.w3.org/1999/xlink" x="0px" y="0px"
	 viewBox="0 0 33.1 29.6" style="enable-background:new 0 0 33.1 29.6;" xml:space="preserve">
<style type="text/css">
	.st0{fill:#FFFFFF;}
	.st1{opacity:0.51;fill:none;stroke:#FFFFFF;stroke-miterlimit:10;}
</style>
<g>
	<g>
		<path class="st0" d="M12.5,21.8l0-1.8c0.3,0.1,0.5,0.1,0.8,0.2s0.6,0.1,0.8,0.1c0.7,0,1.3-0.1,1.8-0.3c0.5-0.2,0.9-0.4,1.2-0.8
			s0.4-0.7,0.4-1.2c0-0.4-0.1-0.7-0.2-1s-0.4-0.5-0.7-0.7c-0.3-0.2-0.8-0.2-1.4-0.2l-1,0.2l-0.4-1.7c0.3-0.1,0.6-0.1,0.9-0.2
			c0.3-0.1,0.6-0.2,0.8-0.3c0.4-0.2,0.8-0.5,1-0.8c0.2-0.3,0.3-0.7,0.4-1.1c0-0.5-0.1-0.9-0.4-1.1c-0.3-0.2-0.7-0.4-1.2-0.4
			c-0.6,0-1,0.1-1.4,0.3c-0.4,0.2-0.7,0.4-1,0.6l-0.8-1.7c0.2-0.2,0.5-0.4,0.8-0.6c0.4-0.2,0.8-0.4,1.3-0.5s1-0.2,1.5-0.2
			c0.8,0,1.4,0.1,2,0.4c0.6,0.2,1,0.6,1.3,1.1c0.3,0.5,0.5,1,0.5,1.7c0,0.6-0.1,1.1-0.3,1.6s-0.5,0.9-0.9,1.2
			c-0.4,0.3-0.8,0.6-1.3,0.8v-0.3c0.8,0,1.4,0.2,1.9,0.5c0.5,0.3,0.8,0.7,1.1,1.2s0.3,1,0.3,1.5c0,0.7-0.2,1.4-0.7,2
			s-1.1,1.1-1.9,1.5c-0.8,0.4-1.8,0.6-2.9,0.6c-0.5,0-0.9,0-1.2-0.1C13.1,21.9,12.8,21.8,12.5,21.8z"/>
	</g>
	<path class="st1" d="M16.6,4.1c0.5-0.5,1.1-0.9,1.6-1.4c1.3-1.1,2.7-1.8,4.3-2c2.4-0.3,4.6,0.3,6.5,1.9c1.9,1.6,3,3.6,3.4,6
		c0.5,3-0.1,5.8-1.9,8.3C30,17.5,29.5,18,29,18.5c-3.9,3.4-7.8,6.7-11.8,10C17,28.7,16.8,29,16.6,29c-0.2,0-0.4-0.3-0.6-0.4
		C12,25.1,8,21.8,4.1,18.4c-1.7-1.5-2.8-3.4-3.2-5.6c-0.6-3.2,0-6.1,2-8.7c1.3-1.7,3-2.8,5.2-3.2c2.5-0.5,4.8,0.2,6.7,1.8
		C15.3,3,15.9,3.5,16.4,4C16.5,4,16.5,4,16.6,4.1z"/>
</g>
<g>
</g>
<g>
</g>
<g>
</g>
<g>
</g>
<g>
</g>
<g>
</g>
<g>
</g>
<g>
</g>
<g>
</g>
<g>
</g>
<g>
</g>
<g>
</g>
<g>
</g>
<g>
</g>
<g>
</g>
</svg>
