<?xml version="1.0" encoding="utf-8"?>
<!-- Generator: Adobe Illustrator 24.0.2, SVG Export Plug-In . SVG Version: 6.00 Build 0)  -->
<svg version="1.1" id="Camada_1" xmlns="http://www.w3.org/2000/svg" xmlns:xlink="http://www.w3.org/1999/xlink" x="0px" y="0px"
	 viewBox="0 0 206.53 409.1" style="enable-background:new 0 0 206.53 409.1;" xml:space="preserve">
<style type="text/css">
	.st0{fill:#FFFCCC;}
	.st1{fill:#FFFFFF;}
	.st2{fill:#FFEE00;}
	.st3{enable-background:new    ;}
	.st4{fill:#DBA723;}
	.st5{fill:#1E1E1E;}
</style>
<g id="Camada_1_1_">
	<path class="st0" d="M205.23,67.7V36.95c0-19.69-15.96-35.66-35.66-35.66H58.54v66.64H205C205.13,67.93,205.23,67.83,205.23,67.7z"
		/>
	<path class="st1" d="M205.23,372.79V67.93H57.25V407.8h112.97C189.55,407.81,205.23,392.13,205.23,372.79z"/>
	<path class="st2" d="M0,388.39V20.72C0,9.29,11.91,0,26.54,0h33.3v409.1h-33.3C11.91,409.1,0,399.81,0,388.39z"/>
	<g>
		<g class="st3">
			<path class="st4" d="M9.88,46.12H6.5v1.46h3.17v1.46H6.5v1.52h3.49l-0.1,1.46H4.84v-7.37h5.04V46.12z"/>
			<path class="st4" d="M12.66,52.13c-0.77,0-1.35-0.14-1.74-0.43s-0.63-0.67-0.7-1.14l1.32-0.33c0.04,0.2,0.16,0.36,0.34,0.48
				c0.19,0.12,0.44,0.18,0.77,0.18c0.52,0,0.78-0.12,0.78-0.36c0-0.13-0.07-0.22-0.22-0.29c-0.15-0.07-0.39-0.13-0.72-0.19
				c-0.62-0.11-1.1-0.29-1.45-0.53c-0.34-0.24-0.51-0.61-0.51-1.11c0-0.34,0.1-0.64,0.29-0.9s0.46-0.47,0.8-0.62
				c0.34-0.15,0.73-0.23,1.17-0.23c0.57,0,1.05,0.13,1.43,0.4s0.6,0.6,0.67,1l-1.3,0.35c-0.05-0.15-0.14-0.28-0.29-0.37
				c-0.14-0.1-0.33-0.15-0.58-0.15c-0.23,0-0.4,0.04-0.5,0.11c-0.11,0.08-0.16,0.17-0.16,0.27c0,0.13,0.07,0.22,0.22,0.3
				c0.15,0.07,0.4,0.15,0.77,0.22c0.37,0.07,0.7,0.16,0.99,0.29s0.51,0.29,0.67,0.5c0.16,0.21,0.24,0.5,0.24,0.86
				c0,0.34-0.1,0.64-0.3,0.89s-0.47,0.45-0.81,0.59C13.5,52.06,13.1,52.13,12.66,52.13z"/>
			<path class="st4" d="M18.03,52.13c-0.65,0-1.17-0.18-1.55-0.54c-0.38-0.36-0.57-0.84-0.56-1.44l0.04-2.09h-0.87v-1.32h0.89
				l0.01-1.08h1.58l-0.01,1.08h1.65v1.32h-1.67l-0.03,1.91c0,0.25,0.07,0.44,0.2,0.58c0.13,0.14,0.33,0.21,0.59,0.21
				c0.15,0,0.3-0.02,0.44-0.06c0.14-0.04,0.29-0.11,0.44-0.22l0.46,1.21C19.28,51.99,18.75,52.13,18.03,52.13z"/>
			<path class="st4" d="M20.88,46.12c-0.3,0-0.55-0.09-0.73-0.28c-0.18-0.19-0.27-0.41-0.27-0.66s0.09-0.48,0.26-0.66
				c0.18-0.19,0.42-0.28,0.73-0.28c0.3,0,0.55,0.09,0.73,0.28c0.18,0.19,0.27,0.41,0.27,0.66s-0.09,0.48-0.27,0.66
				C21.43,46.03,21.19,46.12,20.88,46.12z M21.68,46.75v5.28h-1.59v-5.28H21.68z"/>
			<path class="st4" d="M24.56,52.13c-0.53,0-0.94-0.15-1.23-0.44s-0.43-0.72-0.43-1.28v-6.06h1.59v5.95c0,0.32,0.15,0.48,0.45,0.48
				c0.16,0,0.29-0.04,0.4-0.11l0.38,1.13c-0.12,0.1-0.28,0.18-0.49,0.24C25.02,52.1,24.8,52.13,24.56,52.13z"/>
			<path class="st4" d="M28.63,46.66c0.82,0,1.47,0.24,1.94,0.71c0.47,0.47,0.7,1.11,0.7,1.91c0,0.55-0.12,1.03-0.35,1.46
				c-0.24,0.43-0.57,0.77-1,1.02s-0.93,0.37-1.52,0.37c-0.82,0-1.46-0.24-1.93-0.71c-0.47-0.47-0.7-1.1-0.7-1.9
				c0-0.55,0.12-1.04,0.35-1.47c0.24-0.43,0.57-0.77,1-1.02C27.56,46.79,28.06,46.66,28.63,46.66z M28.48,50.75
				c0.35,0,0.63-0.13,0.85-0.4c0.21-0.27,0.32-0.63,0.32-1.07c0-0.39-0.09-0.69-0.28-0.91c-0.19-0.22-0.44-0.33-0.77-0.33
				c-0.36,0-0.65,0.13-0.86,0.4c-0.21,0.27-0.32,0.63-0.32,1.07c0,0.39,0.09,0.69,0.27,0.91C27.88,50.64,28.14,50.75,28.48,50.75z"
				/>
		</g>
	</g>
	<g>
		<g class="st3">
			<path class="st4" d="M37.11,20.56h-3.38v1.46h3.17v1.46h-3.17V25h3.49l-0.1,1.46h-5.04v-7.37h5.04V20.56z"/>
			<path class="st4" d="M38.78,20.56c-0.3,0-0.55-0.09-0.73-0.28c-0.18-0.19-0.27-0.41-0.27-0.66s0.09-0.48,0.26-0.66
				c0.18-0.19,0.42-0.28,0.73-0.28c0.3,0,0.55,0.09,0.73,0.28c0.18,0.19,0.27,0.41,0.27,0.66s-0.09,0.48-0.27,0.66
				C39.33,20.46,39.09,20.56,38.78,20.56z M39.58,21.18v5.28H38v-5.28H39.58z"/>
			<path class="st4" d="M41.81,26.46h-1.85l1.95-2.71l-1.85-2.57H42l0.89,1.27l0.91-1.27h1.84l-1.86,2.51l1.94,2.77H43.8L42.82,25
				L41.81,26.46z"/>
			<path class="st4" d="M48.47,21.1c0.82,0,1.47,0.24,1.94,0.71c0.47,0.47,0.7,1.11,0.7,1.91c0,0.55-0.12,1.03-0.35,1.46
				c-0.24,0.43-0.57,0.77-1,1.02s-0.93,0.37-1.52,0.37c-0.82,0-1.46-0.24-1.93-0.71c-0.47-0.47-0.7-1.1-0.7-1.9
				c0-0.55,0.12-1.04,0.35-1.47c0.24-0.43,0.57-0.77,1-1.02C47.39,21.22,47.89,21.1,48.47,21.1z M48.31,25.18
				c0.35,0,0.63-0.13,0.85-0.4c0.21-0.27,0.32-0.63,0.32-1.07c0-0.39-0.09-0.69-0.28-0.91c-0.19-0.22-0.44-0.33-0.77-0.33
				c-0.36,0-0.65,0.13-0.86,0.4c-0.21,0.27-0.32,0.63-0.32,1.07c0,0.39,0.09,0.69,0.27,0.91C47.71,25.08,47.97,25.18,48.31,25.18z"
				/>
		</g>
	</g>
	<g>
		<g class="st3">
			<path class="st4" d="M31.93,140.99l-7.37-3.2v-1.42l7.37-3.07v1.72l-1.5,0.59v3.04l1.5,0.61V140.99z M29.01,138.07v-1.9
				l-2.38,0.93L29.01,138.07z"/>
			<path class="st4" d="M32.03,131.2c0,0.61-0.21,1.07-0.62,1.38s-0.99,0.46-1.73,0.46l-3.03-0.02v-1.59l2.91,0.02
				c0.31,0,0.56-0.06,0.74-0.17c0.18-0.11,0.27-0.28,0.27-0.52c0-0.2-0.06-0.38-0.19-0.55c-0.13-0.17-0.33-0.31-0.62-0.44
				c-0.29-0.12-0.69-0.22-1.19-0.3c-0.5-0.07-1.14-0.11-1.91-0.12v-1.54h5.28v1.59l-1.02-0.07c0.36,0.21,0.64,0.47,0.83,0.79
				C31.94,130.45,32.03,130.81,32.03,131.2z"/>
			<path class="st4" d="M32.03,124.24c0,0.65-0.18,1.17-0.54,1.55c-0.36,0.38-0.84,0.57-1.44,0.56l-2.09-0.04v0.87h-1.32v-0.89
				l-1.08-0.01v-1.58l1.08,0.01v-1.65h1.32v1.67l1.91,0.03c0.25,0,0.44-0.07,0.58-0.2c0.14-0.13,0.21-0.33,0.21-0.59
				c0-0.15-0.02-0.3-0.06-0.44c-0.04-0.14-0.11-0.29-0.22-0.44l1.21-0.46C31.89,122.98,32.03,123.52,32.03,124.24z"/>
			<path class="st4" d="M26.56,119.69c0-0.82,0.24-1.47,0.71-1.94c0.47-0.47,1.11-0.7,1.91-0.7c0.55,0,1.03,0.12,1.46,0.35
				c0.43,0.24,0.77,0.57,1.02,1s0.37,0.93,0.37,1.52c0,0.82-0.24,1.46-0.71,1.93c-0.47,0.47-1.1,0.7-1.9,0.7
				c-0.55,0-1.04-0.12-1.47-0.35c-0.43-0.24-0.77-0.57-1.02-1C26.69,120.77,26.56,120.27,26.56,119.69z M30.65,119.85
				c0-0.35-0.13-0.63-0.4-0.85c-0.27-0.21-0.63-0.32-1.07-0.32c-0.39,0-0.69,0.09-0.91,0.28c-0.22,0.19-0.33,0.44-0.33,0.77
				c0,0.36,0.13,0.65,0.4,0.86c0.27,0.21,0.63,0.32,1.07,0.32c0.39,0,0.69-0.09,0.91-0.27C30.54,120.45,30.65,120.19,30.65,119.85z"
				/>
			<path class="st4" d="M28.18,112.47c-0.05,0.14-0.08,0.33-0.08,0.56c0,0.36,0.13,0.65,0.38,0.86c0.25,0.21,0.66,0.37,1.22,0.47
				c0.56,0.1,1.31,0.15,2.23,0.15v1.58h-3.42l-1.86,0.02v-1.59l1.32,0.07c-0.5-0.19-0.86-0.44-1.08-0.75
				c-0.21-0.31-0.32-0.65-0.32-1.01c0-0.12,0.01-0.23,0.02-0.33c0.01-0.1,0.04-0.2,0.07-0.31L28.18,112.47z"/>
			<path class="st4" d="M26.02,110.87c0,0.3-0.09,0.55-0.28,0.73c-0.19,0.18-0.41,0.27-0.66,0.27s-0.48-0.09-0.66-0.26
				c-0.19-0.18-0.28-0.42-0.28-0.73c0-0.3,0.09-0.55,0.28-0.73c0.19-0.18,0.41-0.27,0.66-0.27s0.48,0.09,0.66,0.27
				C25.93,110.33,26.02,110.57,26.02,110.87z M26.65,110.07h5.28v1.59h-5.28V110.07z"/>
			<path class="st4" d="M32.03,106.48c0,0.65-0.18,1.17-0.54,1.55c-0.36,0.38-0.84,0.57-1.44,0.56l-2.09-0.04v0.87h-1.32v-0.89
				l-1.08-0.01v-1.58l1.08,0.01v-1.65h1.32v1.67l1.91,0.03c0.25,0,0.44-0.07,0.58-0.2c0.14-0.13,0.21-0.33,0.21-0.59
				c0-0.15-0.02-0.3-0.06-0.44c-0.04-0.14-0.11-0.29-0.22-0.44l1.21-0.46C31.89,105.23,32.03,105.76,32.03,106.48z"/>
			<path class="st4" d="M25.98,102.5l-1.84-1.27l0.39-1.62l1.44,1.49V102.5z M26.67,99.33h5.26v1.6l-0.79-0.05
				c0.6,0.38,0.89,0.94,0.89,1.69c0,0.47-0.11,0.87-0.32,1.2c-0.21,0.33-0.51,0.58-0.89,0.76c-0.38,0.17-0.82,0.26-1.31,0.26
				c-0.59,0-1.1-0.12-1.55-0.36c-0.44-0.24-0.79-0.57-1.03-0.98c-0.25-0.41-0.37-0.86-0.37-1.37c0-0.33,0.07-0.63,0.2-0.88
				c0.13-0.26,0.31-0.45,0.53-0.59l-0.63-0.13V99.33z M27.94,101.93c0,0.38,0.14,0.68,0.43,0.9c0.28,0.22,0.65,0.33,1.09,0.33
				c0.38,0,0.67-0.08,0.88-0.25s0.31-0.4,0.31-0.69c0-0.35-0.15-0.66-0.44-0.91c-0.29-0.25-0.67-0.38-1.14-0.38
				c-0.35,0-0.63,0.09-0.83,0.27C28.05,101.37,27.94,101.62,27.94,101.93z"/>
			<path class="st4" d="M28.18,94.49c-0.05,0.14-0.08,0.33-0.08,0.56c0,0.36,0.13,0.65,0.38,0.86c0.25,0.21,0.66,0.37,1.22,0.47
				c0.56,0.1,1.31,0.15,2.23,0.15v1.58h-3.42l-1.86,0.02v-1.59l1.32,0.07c-0.5-0.19-0.86-0.44-1.08-0.75
				c-0.21-0.31-0.32-0.65-0.32-1.01c0-0.12,0.01-0.23,0.02-0.33c0.01-0.1,0.04-0.2,0.07-0.31L28.18,94.49z"/>
			<path class="st4" d="M26.02,92.89c0,0.3-0.09,0.55-0.28,0.73c-0.19,0.18-0.41,0.27-0.66,0.27s-0.48-0.09-0.66-0.26
				c-0.19-0.18-0.28-0.42-0.28-0.73c0-0.3,0.09-0.55,0.28-0.73c0.19-0.18,0.41-0.27,0.66-0.27s0.48,0.09,0.66,0.27
				C25.93,92.34,26.02,92.58,26.02,92.89z M26.65,92.09h5.28v1.59h-5.28V92.09z"/>
			<path class="st4" d="M26.56,88.29c0-0.82,0.24-1.47,0.71-1.94c0.47-0.47,1.11-0.7,1.91-0.7c0.55,0,1.03,0.12,1.46,0.35
				c0.43,0.24,0.77,0.57,1.02,1s0.37,0.93,0.37,1.52c0,0.82-0.24,1.46-0.71,1.93c-0.47,0.47-1.1,0.7-1.9,0.7
				c-0.55,0-1.04-0.12-1.47-0.35c-0.43-0.24-0.77-0.57-1.02-1C26.69,89.37,26.56,88.86,26.56,88.29z M30.65,88.45
				c0-0.35-0.13-0.63-0.4-0.85c-0.27-0.21-0.63-0.32-1.07-0.32c-0.39,0-0.69,0.09-0.91,0.28c-0.22,0.19-0.33,0.44-0.33,0.77
				c0,0.36,0.13,0.65,0.4,0.86c0.27,0.21,0.63,0.32,1.07,0.32c0.39,0,0.69-0.09,0.91-0.27C30.54,89.05,30.65,88.79,30.65,88.45z"/>
		</g>
	</g>
	<g>
		<g class="st3">
			<path class="st4" d="M24.56,214.5v-1.63h7.37v1.5l-4.58,3.27h4.58v1.63h-7.37v-1.5l4.58-3.27H24.56z"/>
			<path class="st4" d="M32.03,208.96c0,0.59-0.11,1.1-0.33,1.53c-0.22,0.43-0.53,0.76-0.92,1c-0.4,0.24-0.87,0.35-1.42,0.35
				c-0.55,0-1.04-0.12-1.46-0.36c-0.42-0.24-0.75-0.56-0.99-0.96c-0.24-0.4-0.35-0.86-0.35-1.38c0-0.58,0.13-1.05,0.39-1.42
				c0.26-0.37,0.64-0.62,1.12-0.76s1.04-0.17,1.68-0.09v3.35c0.26-0.04,0.48-0.18,0.66-0.42c0.18-0.23,0.26-0.56,0.26-0.96
				c0-0.19-0.04-0.38-0.12-0.59c-0.08-0.21-0.2-0.38-0.36-0.53l0.93-0.88c0.28,0.23,0.5,0.51,0.66,0.85
				C31.95,208.02,32.03,208.44,32.03,208.96z M27.72,209.11c0,0.28,0.08,0.51,0.25,0.7c0.17,0.19,0.4,0.32,0.7,0.38v-1.98
				c-0.33-0.01-0.56,0.07-0.72,0.23S27.72,208.82,27.72,209.11z"/>
			<path class="st4" d="M34.11,203.97c0,0.21-0.02,0.43-0.05,0.68s-0.08,0.48-0.14,0.7c-0.06,0.22-0.14,0.41-0.25,0.57l-1.35-0.38
				c0.12-0.23,0.21-0.48,0.29-0.75c0.07-0.27,0.11-0.58,0.11-0.91c0-0.58-0.13-0.99-0.39-1.23s-0.67-0.38-1.24-0.42L31,202.22
				c0.55,0.37,0.83,0.93,0.83,1.66c0,0.48-0.1,0.9-0.3,1.24c-0.2,0.34-0.48,0.6-0.84,0.78c-0.36,0.18-0.78,0.27-1.25,0.27
				c-0.57,0-1.07-0.12-1.49-0.36s-0.77-0.56-1.01-0.97c-0.25-0.41-0.37-0.87-0.37-1.39c0-0.35,0.07-0.65,0.2-0.91
				s0.31-0.46,0.53-0.6l-0.63-0.13v-1.14h4.23c0.72,0,1.32,0.14,1.79,0.41s0.83,0.66,1.06,1.15
				C33.99,202.72,34.11,203.3,34.11,203.97z M27.94,203.28c0,0.39,0.13,0.69,0.39,0.91c0.26,0.22,0.59,0.33,1,0.33
				c0.35,0,0.63-0.09,0.82-0.26c0.19-0.18,0.29-0.42,0.29-0.72c0-0.24-0.06-0.46-0.19-0.65s-0.3-0.35-0.52-0.46
				c-0.22-0.11-0.47-0.17-0.76-0.17c-0.32,0-0.57,0.09-0.76,0.28C28.04,202.71,27.94,202.96,27.94,203.28z"/>
			<path class="st4" d="M32.03,197.78c0,0.53-0.15,0.94-0.44,1.23s-0.72,0.43-1.28,0.43h-6.06v-1.59h5.95
				c0.32,0,0.48-0.15,0.48-0.45c0-0.16-0.04-0.29-0.11-0.4l1.13-0.38c0.1,0.12,0.18,0.28,0.24,0.49
				C32,197.31,32.03,197.53,32.03,197.78z"/>
			<path class="st4" d="M26.02,195.44c0,0.3-0.09,0.55-0.28,0.73c-0.19,0.18-0.41,0.27-0.66,0.27s-0.48-0.09-0.66-0.26
				c-0.19-0.18-0.28-0.42-0.28-0.73c0-0.3,0.09-0.55,0.28-0.73c0.19-0.18,0.41-0.27,0.66-0.27s0.48,0.09,0.66,0.27
				C25.93,194.89,26.02,195.14,26.02,195.44z M26.65,194.64h5.28v1.59h-5.28V194.64z"/>
			<path class="st4" d="M34.11,191.51c0,0.21-0.02,0.43-0.05,0.68s-0.08,0.48-0.14,0.7c-0.06,0.22-0.14,0.41-0.25,0.57l-1.35-0.38
				c0.12-0.23,0.21-0.48,0.29-0.75c0.07-0.27,0.11-0.58,0.11-0.91c0-0.58-0.13-0.99-0.39-1.23s-0.67-0.38-1.24-0.42L31,189.75
				c0.55,0.37,0.83,0.93,0.83,1.66c0,0.48-0.1,0.9-0.3,1.24c-0.2,0.34-0.48,0.6-0.84,0.78c-0.36,0.18-0.78,0.27-1.25,0.27
				c-0.57,0-1.07-0.12-1.49-0.36s-0.77-0.56-1.01-0.97c-0.25-0.41-0.37-0.87-0.37-1.39c0-0.35,0.07-0.65,0.2-0.91
				s0.31-0.46,0.53-0.6l-0.63-0.13v-1.14h4.23c0.72,0,1.32,0.14,1.79,0.41s0.83,0.66,1.06,1.15
				C33.99,190.25,34.11,190.84,34.11,191.51z M27.94,190.81c0,0.39,0.13,0.69,0.39,0.91c0.26,0.22,0.59,0.33,1,0.33
				c0.35,0,0.63-0.09,0.82-0.26c0.19-0.18,0.29-0.42,0.29-0.72c0-0.24-0.06-0.46-0.19-0.65s-0.3-0.35-0.52-0.46
				c-0.22-0.11-0.47-0.17-0.76-0.17c-0.32,0-0.57,0.09-0.76,0.28C28.04,190.25,27.94,190.5,27.94,190.81z"/>
			<path class="st4" d="M32.03,184.37c0,0.59-0.11,1.1-0.33,1.53c-0.22,0.43-0.53,0.76-0.92,1c-0.4,0.24-0.87,0.35-1.42,0.35
				c-0.55,0-1.04-0.12-1.46-0.36c-0.42-0.24-0.75-0.56-0.99-0.96s-0.35-0.86-0.35-1.38c0-0.58,0.13-1.05,0.39-1.42
				c0.26-0.37,0.64-0.62,1.12-0.76c0.48-0.14,1.04-0.17,1.68-0.09v3.35c0.26-0.04,0.48-0.18,0.66-0.42s0.26-0.56,0.26-0.97
				c0-0.19-0.04-0.38-0.12-0.59c-0.08-0.21-0.2-0.38-0.36-0.53l0.93-0.88c0.28,0.23,0.5,0.51,0.66,0.85
				C31.95,183.42,32.03,183.85,32.03,184.37z M27.72,184.51c0,0.28,0.08,0.51,0.25,0.7c0.17,0.19,0.4,0.32,0.7,0.38v-1.98
				c-0.33-0.01-0.56,0.07-0.72,0.23S27.72,184.23,27.72,184.51z"/>
			<path class="st4" d="M31.93,181.29h-5.28v-1.58l1.13,0.07c-0.39-0.21-0.69-0.49-0.9-0.83c-0.21-0.34-0.32-0.71-0.32-1.13
				c0-0.63,0.21-1.1,0.64-1.41c0.43-0.31,1.04-0.46,1.83-0.46l2.9,0.02v1.59l-2.78-0.02c-0.36-0.01-0.63,0.05-0.83,0.16
				c-0.19,0.11-0.29,0.3-0.29,0.54c0,0.21,0.06,0.4,0.18,0.57s0.33,0.32,0.62,0.45s0.69,0.23,1.19,0.31s1.14,0.12,1.9,0.12V181.29z"
				/>
			<path class="st4" d="M32.03,172.45c0,0.65-0.18,1.17-0.54,1.55c-0.36,0.38-0.84,0.57-1.44,0.56l-2.09-0.04v0.87h-1.32v-0.89
				l-1.08-0.01v-1.58l1.08,0.01v-1.65h1.32v1.67l1.91,0.03c0.25,0,0.44-0.07,0.58-0.2c0.14-0.13,0.21-0.33,0.21-0.59
				c0-0.15-0.02-0.3-0.06-0.44c-0.04-0.14-0.11-0.29-0.22-0.44l1.21-0.46C31.89,171.2,32.03,171.73,32.03,172.45z"/>
			<path class="st4" d="M32.03,167.89c0,0.59-0.11,1.1-0.33,1.53c-0.22,0.43-0.53,0.76-0.92,1c-0.4,0.24-0.87,0.35-1.42,0.35
				c-0.55,0-1.04-0.12-1.46-0.36c-0.42-0.24-0.75-0.56-0.99-0.96s-0.35-0.86-0.35-1.38c0-0.58,0.13-1.05,0.39-1.42
				c0.26-0.37,0.64-0.62,1.12-0.76c0.48-0.14,1.04-0.17,1.68-0.09v3.35c0.26-0.04,0.48-0.18,0.66-0.42s0.26-0.56,0.26-0.97
				c0-0.19-0.04-0.38-0.12-0.59c-0.08-0.21-0.2-0.38-0.36-0.53l0.93-0.88c0.28,0.23,0.5,0.51,0.66,0.85
				C31.95,166.94,32.03,167.37,32.03,167.89z M27.72,168.03c0,0.28,0.08,0.51,0.25,0.7c0.17,0.19,0.4,0.32,0.7,0.38v-1.98
				c-0.33-0.01-0.56,0.07-0.72,0.23S27.72,167.75,27.72,168.03z"/>
		</g>
	</g>
	<g>
		<g class="st3">
			<path class="st4" d="M31.93,294.05h-7.37v-1.69h7.37V294.05z"/>
			<path class="st4" d="M31.93,291.05h-5.28v-1.58l1.13,0.07c-0.39-0.21-0.69-0.49-0.9-0.82s-0.32-0.71-0.32-1.13
				c0-0.63,0.21-1.1,0.64-1.41s1.04-0.46,1.83-0.46l2.9,0.02v1.59l-2.78-0.02c-0.36-0.01-0.63,0.05-0.83,0.16
				c-0.19,0.11-0.29,0.3-0.29,0.54c0,0.21,0.06,0.4,0.18,0.57s0.33,0.32,0.62,0.45s0.69,0.23,1.19,0.31s1.14,0.12,1.9,0.13V291.05z"
				/>
			<path class="st4" d="M24.25,279.4h7.68v1.6l-0.78-0.05c0.59,0.38,0.88,0.95,0.88,1.69c0,0.47-0.11,0.87-0.32,1.2
				s-0.51,0.58-0.89,0.76c-0.38,0.17-0.82,0.26-1.31,0.26c-0.59,0-1.1-0.12-1.55-0.36c-0.44-0.24-0.79-0.57-1.03-0.98
				c-0.25-0.41-0.37-0.86-0.37-1.37c0-0.24,0.03-0.45,0.1-0.65s0.17-0.37,0.29-0.52l-0.31,0.01h-2.4V279.4z M27.94,281.99
				c0,0.38,0.14,0.68,0.43,0.9c0.28,0.22,0.65,0.33,1.09,0.33c0.38,0,0.67-0.08,0.88-0.25s0.31-0.4,0.31-0.69
				c0-0.35-0.15-0.66-0.44-0.91c-0.29-0.25-0.67-0.38-1.14-0.38c-0.35,0-0.63,0.09-0.83,0.27
				C28.05,281.44,27.94,281.68,27.94,281.99z"/>
			<path class="st4" d="M32.03,276.43c0,0.61-0.21,1.07-0.62,1.38s-0.99,0.46-1.73,0.46l-3.03-0.02v-1.59l2.91,0.02
				c0.31,0,0.56-0.05,0.74-0.17c0.18-0.11,0.27-0.28,0.27-0.52c0-0.2-0.06-0.38-0.19-0.55c-0.13-0.17-0.33-0.31-0.62-0.44
				c-0.29-0.13-0.69-0.22-1.19-0.3c-0.5-0.07-1.14-0.11-1.91-0.12v-1.54h5.28v1.59l-1.02-0.07c0.36,0.21,0.64,0.47,0.83,0.79
				C31.94,275.68,32.03,276.04,32.03,276.43z"/>
			<path class="st4" d="M32.03,270.18c0,0.53-0.15,0.94-0.44,1.23s-0.72,0.43-1.28,0.43h-6.06v-1.59h5.95
				c0.32,0,0.48-0.15,0.48-0.45c0-0.16-0.04-0.29-0.11-0.41l1.13-0.38c0.1,0.12,0.18,0.28,0.24,0.49
				C32,269.72,32.03,269.94,32.03,270.18z"/>
			<path class="st4" d="M34.11,266.77c0,0.21-0.02,0.43-0.05,0.68s-0.08,0.48-0.14,0.7c-0.06,0.22-0.14,0.41-0.25,0.57l-1.35-0.38
				c0.12-0.23,0.21-0.48,0.29-0.75s0.11-0.58,0.11-0.91c0-0.58-0.13-0.99-0.39-1.23s-0.67-0.38-1.24-0.42L31,265.01
				c0.55,0.37,0.83,0.93,0.83,1.66c0,0.48-0.1,0.9-0.3,1.24c-0.2,0.34-0.48,0.6-0.84,0.78c-0.36,0.18-0.78,0.27-1.25,0.27
				c-0.57,0-1.07-0.12-1.49-0.36c-0.43-0.24-0.77-0.56-1.01-0.97c-0.25-0.41-0.37-0.87-0.37-1.39c0-0.35,0.07-0.65,0.2-0.91
				s0.31-0.46,0.53-0.6l-0.63-0.13v-1.14h4.23c0.72,0,1.32,0.14,1.79,0.41s0.83,0.66,1.06,1.15S34.11,266.1,34.11,266.77z
				 M27.94,266.07c0,0.39,0.13,0.69,0.39,0.91s0.59,0.33,1,0.33c0.35,0,0.63-0.09,0.82-0.26c0.19-0.18,0.29-0.42,0.29-0.72
				c0-0.24-0.06-0.46-0.19-0.65s-0.3-0.35-0.52-0.46c-0.22-0.11-0.47-0.17-0.76-0.17c-0.32,0-0.57,0.09-0.76,0.28
				C28.04,265.51,27.94,265.76,27.94,266.07z"/>
			<path class="st4" d="M32.03,259.63c0,0.59-0.11,1.1-0.33,1.53c-0.22,0.43-0.53,0.76-0.92,1c-0.4,0.24-0.87,0.35-1.42,0.35
				c-0.55,0-1.04-0.12-1.46-0.36c-0.42-0.24-0.75-0.56-0.99-0.96s-0.35-0.86-0.35-1.38c0-0.58,0.13-1.05,0.39-1.42
				c0.26-0.37,0.64-0.62,1.12-0.76c0.48-0.14,1.04-0.17,1.68-0.09v3.35c0.26-0.04,0.48-0.18,0.66-0.42s0.26-0.56,0.26-0.97
				c0-0.19-0.04-0.38-0.12-0.59c-0.08-0.21-0.2-0.38-0.36-0.53l0.93-0.88c0.28,0.23,0.5,0.51,0.66,0.85
				C31.95,258.68,32.03,259.11,32.03,259.63z M27.72,259.77c0,0.28,0.08,0.51,0.25,0.7c0.17,0.19,0.4,0.32,0.7,0.38v-1.98
				c-0.33-0.01-0.56,0.07-0.72,0.23C27.79,259.27,27.72,259.49,27.72,259.77z"/>
			<path class="st4" d="M31.93,256.56h-5.28v-1.58l1.13,0.07c-0.39-0.21-0.69-0.49-0.9-0.83c-0.21-0.33-0.32-0.71-0.32-1.13
				c0-0.63,0.21-1.1,0.64-1.41c0.43-0.31,1.04-0.46,1.83-0.46l2.9,0.02v1.59l-2.78-0.02c-0.36-0.01-0.63,0.05-0.83,0.16
				c-0.19,0.11-0.29,0.29-0.29,0.54c0,0.21,0.06,0.4,0.18,0.57s0.33,0.32,0.62,0.45s0.69,0.23,1.19,0.31s1.14,0.12,1.9,0.12V256.56z
				"/>
			<path class="st4" d="M32.03,247.71c0,0.65-0.18,1.17-0.54,1.55c-0.36,0.38-0.84,0.57-1.44,0.56l-2.09-0.04v0.87h-1.32v-0.89
				l-1.08-0.01v-1.58l1.08,0.01v-1.65h1.32v1.67l1.91,0.03c0.25,0,0.44-0.07,0.58-0.2s0.21-0.33,0.21-0.59
				c0-0.15-0.02-0.3-0.06-0.44c-0.04-0.14-0.11-0.29-0.22-0.44l1.21-0.46C31.89,246.46,32.03,246.99,32.03,247.71z"/>
			<path class="st4" d="M32.03,243.15c0,0.59-0.11,1.1-0.33,1.53c-0.22,0.43-0.53,0.76-0.92,1c-0.4,0.24-0.87,0.35-1.42,0.35
				c-0.55,0-1.04-0.12-1.46-0.36c-0.42-0.24-0.75-0.56-0.99-0.96s-0.35-0.86-0.35-1.38c0-0.58,0.13-1.05,0.39-1.42
				c0.26-0.37,0.64-0.62,1.12-0.76c0.48-0.14,1.04-0.17,1.68-0.09v3.35c0.26-0.04,0.48-0.18,0.66-0.42s0.26-0.56,0.26-0.97
				c0-0.19-0.04-0.38-0.12-0.59c-0.08-0.21-0.2-0.38-0.36-0.53l0.93-0.88c0.28,0.23,0.5,0.51,0.66,0.85
				C31.95,242.2,32.03,242.63,32.03,243.15z M27.72,243.29c0,0.28,0.08,0.51,0.25,0.7c0.17,0.19,0.4,0.32,0.7,0.38v-1.98
				c-0.33-0.01-0.56,0.07-0.72,0.23C27.79,242.79,27.72,243.01,27.72,243.29z"/>
		</g>
	</g>
	<g>
		<g class="st3">
			<path class="st4" d="M31.93,392.69l-7.37-3.2v-1.42l7.37-3.07v1.72l-1.5,0.59v3.04l1.5,0.61V392.69z M29.01,389.78v-1.9
				l-2.38,0.93L29.01,389.78z"/>
			<path class="st4" d="M32.03,382.91c0,0.61-0.21,1.07-0.62,1.38s-0.99,0.46-1.73,0.46l-3.03-0.02v-1.59l2.91,0.02
				c0.31,0,0.56-0.06,0.74-0.17c0.18-0.11,0.27-0.28,0.27-0.52c0-0.2-0.06-0.38-0.19-0.55c-0.13-0.17-0.33-0.31-0.62-0.44
				c-0.29-0.12-0.69-0.22-1.19-0.29s-1.14-0.11-1.91-0.12v-1.54h5.28v1.59l-1.02-0.07c0.36,0.21,0.64,0.47,0.83,0.79
				C31.94,382.16,32.03,382.51,32.03,382.91z"/>
			<path class="st4" d="M32.03,375.94c0,0.65-0.18,1.17-0.54,1.55c-0.36,0.38-0.84,0.57-1.44,0.56l-2.09-0.04v0.87h-1.32v-0.89
				l-1.08-0.01v-1.58l1.08,0.01v-1.65h1.32v1.67l1.91,0.03c0.25,0,0.44-0.06,0.58-0.2c0.14-0.13,0.21-0.33,0.21-0.59
				c0-0.15-0.02-0.3-0.06-0.44c-0.04-0.14-0.11-0.29-0.22-0.44l1.21-0.46C31.89,374.69,32.03,375.22,32.03,375.94z"/>
			<path class="st4" d="M26.56,371.4c0-0.82,0.24-1.47,0.71-1.94c0.47-0.47,1.11-0.7,1.91-0.7c0.55,0,1.03,0.12,1.46,0.35
				c0.43,0.24,0.77,0.57,1.02,1s0.37,0.93,0.37,1.51c0,0.82-0.24,1.46-0.71,1.93c-0.47,0.47-1.1,0.7-1.9,0.7
				c-0.55,0-1.04-0.12-1.47-0.35c-0.43-0.24-0.77-0.57-1.02-1C26.69,372.47,26.56,371.97,26.56,371.4z M30.65,371.55
				c0-0.35-0.13-0.63-0.4-0.85c-0.27-0.21-0.63-0.32-1.07-0.32c-0.39,0-0.69,0.09-0.91,0.28s-0.33,0.44-0.33,0.77
				c0,0.36,0.13,0.65,0.4,0.86c0.27,0.21,0.63,0.32,1.07,0.32c0.39,0,0.69-0.09,0.91-0.28C30.54,372.15,30.65,371.89,30.65,371.55z"
				/>
			<path class="st4" d="M28.18,364.17c-0.05,0.14-0.08,0.33-0.08,0.56c0,0.36,0.13,0.65,0.38,0.86c0.25,0.21,0.66,0.37,1.22,0.47
				c0.56,0.1,1.31,0.15,2.23,0.15v1.58h-3.42l-1.86,0.02v-1.59l1.32,0.07c-0.5-0.19-0.86-0.44-1.08-0.75
				c-0.21-0.32-0.32-0.65-0.32-1.01c0-0.12,0.01-0.23,0.02-0.33c0.01-0.1,0.04-0.2,0.07-0.31L28.18,364.17z"/>
			<path class="st4" d="M26.02,362.58c0,0.3-0.09,0.55-0.28,0.73c-0.19,0.18-0.41,0.27-0.66,0.27s-0.48-0.09-0.66-0.27
				c-0.19-0.18-0.28-0.42-0.28-0.73c0-0.3,0.09-0.55,0.28-0.73c0.19-0.18,0.41-0.27,0.66-0.27s0.48,0.09,0.66,0.27
				C25.93,362.03,26.02,362.27,26.02,362.58z M26.65,361.78h5.28v1.59h-5.28V361.78z"/>
			<path class="st4" d="M32.03,358.19c0,0.65-0.18,1.17-0.54,1.55s-0.84,0.57-1.44,0.56l-2.09-0.04v0.87h-1.32v-0.89l-1.08-0.01
				v-1.58l1.08,0.01V357h1.32v1.67l1.91,0.03c0.25,0,0.44-0.07,0.58-0.2c0.14-0.13,0.21-0.33,0.21-0.59c0-0.15-0.02-0.3-0.06-0.44
				c-0.04-0.14-0.11-0.29-0.22-0.44l1.21-0.46C31.89,356.93,32.03,357.47,32.03,358.19z"/>
			<path class="st4" d="M26.67,351.04h5.26v1.6l-0.79-0.05c0.6,0.38,0.89,0.94,0.89,1.69c0,0.47-0.11,0.87-0.32,1.2
				s-0.51,0.58-0.89,0.76c-0.38,0.17-0.82,0.26-1.31,0.26c-0.59,0-1.1-0.12-1.55-0.36c-0.44-0.24-0.79-0.57-1.03-0.98
				c-0.25-0.41-0.37-0.86-0.37-1.37c0-0.33,0.07-0.63,0.2-0.88c0.13-0.26,0.31-0.45,0.53-0.59l-0.63-0.13V351.04z M27.94,353.63
				c0,0.38,0.14,0.68,0.43,0.9c0.28,0.22,0.65,0.33,1.09,0.33c0.38,0,0.67-0.08,0.88-0.25c0.21-0.17,0.31-0.4,0.31-0.69
				c0-0.35-0.15-0.66-0.44-0.91c-0.29-0.25-0.67-0.38-1.14-0.38c-0.35,0-0.63,0.09-0.83,0.27
				C28.05,353.07,27.94,353.32,27.94,353.63z"/>
			<path class="st4" d="M32.03,347.43c0,0.65-0.18,1.17-0.54,1.55s-0.84,0.57-1.44,0.56l-2.09-0.04v0.87h-1.32v-0.89l-1.08-0.01
				v-1.58l1.08,0.01v-1.65h1.32v1.67l1.91,0.03c0.25,0,0.44-0.07,0.58-0.2c0.14-0.13,0.21-0.33,0.21-0.59c0-0.15-0.02-0.3-0.06-0.44
				c-0.04-0.14-0.11-0.29-0.22-0.44l1.21-0.46C31.89,346.18,32.03,346.72,32.03,347.43z"/>
			<path class="st4" d="M26.02,344.58c0,0.3-0.09,0.55-0.28,0.73s-0.41,0.27-0.66,0.27s-0.48-0.09-0.66-0.26
				c-0.19-0.18-0.28-0.42-0.28-0.73c0-0.3,0.09-0.55,0.28-0.73c0.19-0.18,0.41-0.27,0.66-0.27s0.48,0.09,0.66,0.27
				S26.02,344.28,26.02,344.58z M26.65,343.78h5.28v1.59h-5.28V343.78z"/>
			<path class="st4" d="M26.65,338.89v-1.58l5.28,1.94v2.26l-5.28,1.66v-1.72l3.97-1.16L26.65,338.89z"/>
			<path class="st4" d="M26.56,334.48c0-0.82,0.24-1.47,0.71-1.94c0.47-0.47,1.11-0.7,1.91-0.7c0.55,0,1.03,0.12,1.46,0.35
				c0.43,0.24,0.77,0.57,1.02,1c0.25,0.43,0.37,0.93,0.37,1.51c0,0.82-0.24,1.46-0.71,1.92c-0.47,0.47-1.1,0.7-1.9,0.7
				c-0.55,0-1.04-0.12-1.47-0.35c-0.43-0.23-0.77-0.57-1.02-1C26.69,335.56,26.56,335.06,26.56,334.48z M30.65,334.64
				c0-0.35-0.13-0.63-0.4-0.85c-0.27-0.21-0.63-0.32-1.07-0.32c-0.39,0-0.69,0.09-0.91,0.28c-0.22,0.19-0.33,0.44-0.33,0.77
				c0,0.36,0.13,0.64,0.4,0.86c0.27,0.21,0.63,0.32,1.07,0.32c0.39,0,0.69-0.09,0.91-0.27C30.54,335.24,30.65,334.98,30.65,334.64z"
				/>
		</g>
	</g>
	<g>
		<g class="st3">
			<path class="st5" d="M149.6,29.69h-3.59v1.99h3.41v1.22h-3.41v2.08h3.72l-0.1,1.22h-5v-7.72h4.97V29.69z"/>
			<path class="st5" d="M151.32,36.2h-1.54l2.03-2.79l-1.92-2.7h1.61l1.13,1.59l1.14-1.59h1.54l-1.95,2.64l2.02,2.85h-1.62
				l-1.21-1.75L151.32,36.2z"/>
			<path class="st5" d="M156.69,29.84c-0.26,0-0.47-0.08-0.62-0.24c-0.15-0.16-0.23-0.35-0.23-0.58s0.08-0.42,0.23-0.58
				s0.36-0.24,0.62-0.24c0.26,0,0.47,0.08,0.62,0.24s0.23,0.35,0.23,0.58s-0.08,0.42-0.23,0.58
				C157.16,29.76,156.95,29.84,156.69,29.84z M157.35,30.71v5.49h-1.33v-5.49H157.35z"/>
			<path class="st5" d="M160.75,38.48c-0.32,0-0.66-0.03-1.03-0.1c-0.37-0.06-0.67-0.17-0.91-0.33l0.33-1.15
				c0.24,0.12,0.5,0.22,0.78,0.29c0.28,0.07,0.58,0.11,0.9,0.11c0.64,0,1.1-0.15,1.37-0.46c0.27-0.3,0.42-0.78,0.45-1.44l0.02-0.34
				c-0.2,0.34-0.46,0.6-0.77,0.78c-0.31,0.18-0.67,0.27-1.08,0.27c-0.49,0-0.91-0.1-1.26-0.32c-0.34-0.21-0.6-0.5-0.78-0.88
				s-0.26-0.81-0.26-1.29c0-0.59,0.12-1.11,0.35-1.56c0.24-0.45,0.56-0.81,0.98-1.07c0.42-0.26,0.9-0.39,1.44-0.39
				c0.36,0,0.68,0.07,0.95,0.22c0.27,0.15,0.48,0.35,0.62,0.59l0.13-0.71h0.97v4.52c0,1.08-0.28,1.89-0.85,2.43
				C162.53,38.21,161.75,38.48,160.75,38.48z M161.38,31.79c-0.46,0-0.82,0.16-1.09,0.49c-0.27,0.33-0.41,0.75-0.41,1.26
				c0,0.45,0.11,0.8,0.32,1.04s0.5,0.37,0.86,0.37c0.3,0,0.56-0.08,0.8-0.24s0.42-0.39,0.56-0.67s0.21-0.6,0.21-0.96
				c0-0.41-0.11-0.72-0.34-0.95C162.05,31.91,161.75,31.79,161.38,31.79z"/>
			<path class="st5" d="M167.98,36.3c-0.59,0-1.11-0.11-1.54-0.33c-0.43-0.22-0.76-0.54-1-0.95c-0.23-0.41-0.35-0.91-0.35-1.48
				c0-0.57,0.12-1.08,0.36-1.52c0.24-0.44,0.56-0.78,0.97-1.03c0.41-0.25,0.88-0.37,1.4-0.37c0.85,0,1.47,0.29,1.88,0.86
				c0.4,0.58,0.54,1.37,0.42,2.39h-3.68c0.03,0.38,0.19,0.69,0.47,0.92c0.28,0.23,0.67,0.35,1.16,0.35c0.23,0,0.47-0.05,0.7-0.15
				s0.44-0.26,0.6-0.47l0.77,0.78c-0.25,0.31-0.55,0.55-0.9,0.73S168.48,36.3,167.98,36.3z M169.78,29.97h-1.25l-0.73-0.98
				l-0.73,0.98h-1.25l1.42-1.82h1.11L169.78,29.97z M167.85,31.62c-0.37,0-0.67,0.12-0.91,0.35c-0.24,0.23-0.39,0.54-0.46,0.94h2.5
				c0.01-0.45-0.08-0.78-0.29-0.98C168.47,31.72,168.2,31.62,167.85,31.62z"/>
			<path class="st5" d="M171.26,36.2v-5.49h1.33l-0.07,1.38c0.21-0.47,0.5-0.83,0.86-1.09s0.78-0.38,1.24-0.38
				c0.62,0,1.08,0.21,1.4,0.64c0.32,0.42,0.47,1.03,0.46,1.82l-0.02,3.12h-1.33l0.02-3.01c0.01-0.43-0.06-0.76-0.2-0.98
				c-0.14-0.23-0.37-0.34-0.68-0.34c-0.24,0-0.46,0.07-0.66,0.21c-0.2,0.14-0.38,0.37-0.53,0.7c-0.15,0.33-0.27,0.78-0.36,1.34
				c-0.09,0.56-0.13,1.26-0.14,2.09H171.26z"/>
			<path class="st5" d="M180.27,36.3c-0.83,0-1.49-0.24-1.98-0.72c-0.49-0.48-0.73-1.16-0.73-2.02c0-0.58,0.12-1.09,0.36-1.53
				c0.24-0.44,0.57-0.79,1-1.03c0.43-0.25,0.92-0.37,1.48-0.37c0.46,0,0.87,0.09,1.22,0.27c0.35,0.18,0.63,0.46,0.85,0.85
				l-0.95,0.72c-0.14-0.23-0.3-0.4-0.47-0.5c-0.18-0.1-0.39-0.15-0.65-0.15c-0.43,0-0.78,0.16-1.05,0.48
				c-0.27,0.32-0.41,0.74-0.41,1.26c0,0.51,0.12,0.9,0.36,1.17c0.24,0.27,0.59,0.41,1.05,0.41c0.24,0,0.46-0.05,0.67-0.16
				c0.21-0.11,0.38-0.28,0.52-0.51l0.92,0.74c-0.25,0.4-0.56,0.68-0.94,0.85C181.15,36.21,180.73,36.3,180.27,36.3z"/>
			<path class="st5" d="M183.84,29.84c-0.26,0-0.47-0.08-0.62-0.24c-0.15-0.16-0.23-0.35-0.23-0.58s0.08-0.42,0.23-0.58
				s0.36-0.24,0.62-0.24c0.26,0,0.47,0.08,0.62,0.24s0.23,0.35,0.23,0.58s-0.08,0.42-0.23,0.58
				C184.31,29.76,184.11,29.84,183.84,29.84z M184.51,30.71v5.49h-1.33v-5.49H184.51z"/>
			<path class="st5" d="M191.05,30.73v5.47h-1.35l0.04-0.96c-0.2,0.33-0.45,0.59-0.77,0.78c-0.32,0.19-0.68,0.28-1.08,0.28
				c-0.48,0-0.88-0.11-1.22-0.33c-0.33-0.22-0.59-0.53-0.76-0.92c-0.17-0.39-0.26-0.84-0.26-1.35c0-0.61,0.12-1.14,0.36-1.6
				c0.24-0.46,0.57-0.82,0.98-1.08s0.89-0.39,1.41-0.39c0.35,0,0.66,0.07,0.92,0.22c0.27,0.15,0.47,0.35,0.62,0.59l0.13-0.71H191.05
				z M188.51,31.79c-0.45,0-0.81,0.17-1.08,0.51c-0.27,0.34-0.4,0.79-0.4,1.34c0,0.47,0.1,0.84,0.3,1.1
				c0.2,0.26,0.48,0.39,0.84,0.39c0.29,0,0.55-0.08,0.79-0.25c0.24-0.17,0.42-0.4,0.56-0.7c0.14-0.3,0.21-0.64,0.21-1.02
				c0-0.43-0.11-0.76-0.33-1.01C189.18,31.92,188.89,31.79,188.51,31.79z"/>
		</g>
	</g>
	<g class="st3">
		<path class="st5" d="M159.49,102.02v5.44h-1.07l0.04-1.12c-0.2,0.38-0.47,0.67-0.79,0.89s-0.7,0.33-1.12,0.33
			c-0.47,0-0.87-0.11-1.19-0.33c-0.32-0.22-0.57-0.52-0.73-0.91c-0.17-0.38-0.25-0.83-0.25-1.33c0-0.6,0.11-1.13,0.34-1.6
			s0.54-0.82,0.95-1.08c0.4-0.26,0.86-0.39,1.39-0.39c0.35,0,0.66,0.08,0.93,0.23s0.47,0.36,0.6,0.61l0.13-0.75H159.49z
			 M157.09,102.84c-0.5,0-0.9,0.19-1.2,0.57s-0.45,0.88-0.45,1.51c0,0.54,0.12,0.95,0.35,1.25s0.54,0.45,0.94,0.45
			c0.33,0,0.62-0.09,0.88-0.28s0.47-0.45,0.62-0.79c0.15-0.34,0.23-0.72,0.23-1.16c0-0.48-0.12-0.86-0.36-1.13
			C157.85,102.98,157.51,102.84,157.09,102.84z"/>
		<path class="st5" d="M162.47,107.55c-0.49,0-0.85-0.13-1.09-0.4c-0.24-0.26-0.36-0.63-0.36-1.08v-6.67h1.04v6.56
			c0,0.44,0.2,0.66,0.6,0.66c0.1,0,0.2-0.01,0.29-0.04c0.09-0.03,0.17-0.06,0.23-0.1l0.26,0.77c-0.1,0.09-0.24,0.16-0.42,0.21
			C162.84,107.53,162.65,107.55,162.47,107.55z"/>
		<path class="st5" d="M166.12,107.55c-0.65,0-1.14-0.17-1.47-0.52c-0.34-0.34-0.5-0.8-0.49-1.38l0.04-2.77h-0.95v-0.88h0.96
			l0.01-1.13h1.04l-0.02,1.13h1.85v0.88h-1.86l-0.03,2.69c0,0.32,0.08,0.58,0.25,0.77c0.17,0.19,0.42,0.29,0.77,0.29
			c0.17,0,0.32-0.02,0.47-0.06c0.15-0.04,0.3-0.12,0.46-0.24l0.32,0.82c-0.16,0.14-0.36,0.24-0.59,0.31
			C166.63,107.52,166.38,107.55,166.12,107.55z"/>
		<path class="st5" d="M172.87,102.02v5.44h-1.07l0.04-1.12c-0.2,0.38-0.47,0.67-0.79,0.89s-0.7,0.33-1.12,0.33
			c-0.47,0-0.87-0.11-1.19-0.33c-0.32-0.22-0.57-0.52-0.73-0.91c-0.17-0.38-0.25-0.83-0.25-1.33c0-0.6,0.11-1.13,0.34-1.6
			s0.54-0.82,0.95-1.08c0.4-0.26,0.86-0.39,1.39-0.39c0.35,0,0.66,0.08,0.93,0.23s0.47,0.36,0.6,0.61l0.13-0.75H172.87z
			 M170.48,102.84c-0.5,0-0.9,0.19-1.2,0.57s-0.45,0.88-0.45,1.51c0,0.54,0.12,0.95,0.35,1.25s0.54,0.45,0.94,0.45
			c0.33,0,0.62-0.09,0.88-0.28s0.47-0.45,0.62-0.79c0.15-0.34,0.23-0.72,0.23-1.16c0-0.48-0.12-0.86-0.36-1.13
			C171.23,102.98,170.9,102.84,170.48,102.84z"/>
	</g>
	<g class="st3">
		<path class="st5" d="M150.82,190.36v-8.55h1.11v2.76l-0.05,1.22c0.22-0.42,0.5-0.74,0.84-0.97c0.35-0.23,0.75-0.35,1.21-0.35
			c0.5,0,0.92,0.12,1.26,0.35s0.6,0.55,0.78,0.96c0.18,0.41,0.27,0.88,0.27,1.41c0,0.65-0.12,1.21-0.36,1.7
			c-0.24,0.49-0.58,0.87-1,1.15c-0.43,0.28-0.92,0.42-1.46,0.42c-0.38,0-0.71-0.08-1-0.25c-0.29-0.17-0.5-0.39-0.63-0.67l-0.14,0.82
			H150.82z M153.36,189.47c0.53,0,0.96-0.2,1.28-0.61s0.48-0.94,0.48-1.61c0-0.56-0.12-1-0.37-1.32c-0.25-0.32-0.58-0.47-0.99-0.47
			c-0.35,0-0.66,0.1-0.94,0.3s-0.5,0.48-0.66,0.83s-0.24,0.76-0.24,1.22c0,0.52,0.13,0.92,0.39,1.21
			C152.56,189.33,152.91,189.47,153.36,189.47z"/>
		<path class="st5" d="M162.78,184.59v5.78h-1.13l0.05-1.19c-0.22,0.4-0.5,0.72-0.84,0.95c-0.35,0.23-0.74,0.35-1.19,0.35
			c-0.5,0-0.92-0.12-1.26-0.35c-0.34-0.24-0.6-0.56-0.78-0.96s-0.27-0.88-0.27-1.41c0-0.64,0.12-1.21,0.36-1.7
			c0.24-0.49,0.58-0.88,1-1.15c0.43-0.27,0.92-0.41,1.47-0.41c0.37,0,0.7,0.08,0.99,0.25c0.29,0.17,0.5,0.38,0.64,0.65l0.14-0.8
			H162.78z M160.24,185.47c-0.53,0-0.96,0.2-1.28,0.61s-0.48,0.94-0.48,1.6c0,0.57,0.12,1.01,0.37,1.33
			c0.25,0.32,0.58,0.47,0.99,0.47c0.35,0,0.66-0.1,0.94-0.3s0.5-0.48,0.66-0.84c0.16-0.36,0.24-0.77,0.24-1.23
			c0-0.51-0.13-0.91-0.39-1.2C161.04,185.61,160.69,185.47,160.24,185.47z"/>
		<path class="st5" d="M164.97,183.46c-0.22,0-0.4-0.07-0.53-0.21s-0.2-0.31-0.2-0.5s0.07-0.36,0.2-0.5
			c0.13-0.14,0.31-0.21,0.53-0.21s0.4,0.07,0.53,0.21c0.13,0.14,0.2,0.31,0.2,0.5s-0.07,0.36-0.2,0.5S165.19,183.46,164.97,183.46z
			 M165.5,184.58v5.79h-1.1v-5.79H165.5z"/>
		<path class="st5" d="M167.61,190.36h-1.27l2.14-2.92l-2.03-2.86h1.34l1.38,1.94l1.4-1.94h1.27l-2.06,2.81l2.13,2.98h-1.35
			l-1.44-2.06L167.61,190.36z"/>
		<path class="st5" d="M177.7,184.59v5.78h-1.13l0.05-1.19c-0.22,0.4-0.5,0.72-0.84,0.95c-0.35,0.23-0.74,0.35-1.19,0.35
			c-0.5,0-0.92-0.12-1.26-0.35c-0.34-0.24-0.6-0.56-0.78-0.96c-0.18-0.41-0.27-0.88-0.27-1.41c0-0.64,0.12-1.21,0.36-1.7
			c0.24-0.49,0.58-0.88,1-1.15c0.43-0.27,0.92-0.41,1.47-0.41c0.37,0,0.7,0.08,0.99,0.25c0.29,0.17,0.5,0.38,0.64,0.65l0.14-0.8
			H177.7z M175.15,185.47c-0.53,0-0.96,0.2-1.28,0.61c-0.32,0.4-0.48,0.94-0.48,1.6c0,0.57,0.12,1.01,0.37,1.33
			c0.25,0.32,0.58,0.47,0.99,0.47c0.35,0,0.66-0.1,0.94-0.3s0.5-0.48,0.66-0.84s0.24-0.77,0.24-1.23c0-0.51-0.13-0.91-0.39-1.2
			S175.6,185.47,175.15,185.47z"/>
	</g>
	<g class="st3">
		<path class="st5" d="M150.82,270.99v-8.55h1.11v2.76l-0.05,1.22c0.22-0.42,0.5-0.74,0.84-0.97c0.35-0.23,0.75-0.35,1.21-0.35
			c0.5,0,0.92,0.12,1.26,0.35s0.6,0.55,0.78,0.96c0.18,0.41,0.27,0.88,0.27,1.41c0,0.65-0.12,1.21-0.36,1.7s-0.58,0.87-1,1.15
			s-0.91,0.42-1.46,0.42c-0.38,0-0.71-0.08-1.01-0.25c-0.29-0.17-0.5-0.39-0.63-0.67l-0.14,0.82H150.82z M153.36,270.1
			c0.53,0,0.96-0.2,1.28-0.61c0.32-0.41,0.48-0.94,0.48-1.61c0-0.56-0.12-1-0.37-1.32c-0.25-0.32-0.58-0.47-0.99-0.47
			c-0.35,0-0.66,0.1-0.94,0.3s-0.5,0.48-0.66,0.83s-0.24,0.76-0.24,1.22c0,0.52,0.13,0.92,0.39,1.21
			C152.56,269.95,152.91,270.1,153.36,270.1z"/>
		<path class="st5" d="M162.78,265.21v5.78h-1.13l0.05-1.19c-0.22,0.4-0.5,0.72-0.84,0.95c-0.35,0.23-0.74,0.35-1.19,0.35
			c-0.5,0-0.92-0.12-1.26-0.35c-0.34-0.24-0.6-0.56-0.78-0.96c-0.18-0.41-0.27-0.88-0.27-1.41c0-0.64,0.12-1.21,0.36-1.7
			s0.58-0.88,1-1.15s0.92-0.41,1.47-0.41c0.37,0,0.7,0.08,0.99,0.25c0.29,0.17,0.5,0.38,0.64,0.65l0.14-0.8H162.78z M160.24,266.09
			c-0.53,0-0.96,0.2-1.28,0.61c-0.32,0.4-0.48,0.94-0.48,1.6c0,0.57,0.12,1.01,0.37,1.33c0.25,0.32,0.58,0.47,0.99,0.47
			c0.35,0,0.66-0.1,0.94-0.3s0.5-0.48,0.66-0.84c0.16-0.36,0.24-0.77,0.24-1.23c0-0.51-0.13-0.91-0.39-1.2
			C161.04,266.23,160.69,266.09,160.24,266.09z"/>
		<path class="st5" d="M164.97,264.08c-0.22,0-0.4-0.07-0.53-0.21s-0.2-0.31-0.2-0.5s0.07-0.36,0.2-0.5
			c0.13-0.14,0.31-0.21,0.53-0.21c0.22,0,0.4,0.07,0.53,0.21c0.13,0.14,0.2,0.31,0.2,0.5s-0.07,0.36-0.2,0.5
			S165.19,264.08,164.97,264.08z M165.5,265.2v5.79h-1.1v-5.79H165.5z"/>
		<path class="st5" d="M167.61,270.99h-1.27l2.14-2.92l-2.03-2.86h1.34l1.38,1.94l1.4-1.94h1.27l-2.06,2.81l2.13,2.98h-1.35
			l-1.44-2.06L167.61,270.99z"/>
		<path class="st5" d="M177.7,265.21v5.78h-1.13l0.05-1.19c-0.22,0.4-0.5,0.72-0.84,0.95c-0.35,0.23-0.74,0.35-1.19,0.35
			c-0.5,0-0.92-0.12-1.27-0.35c-0.34-0.24-0.6-0.56-0.78-0.96c-0.18-0.41-0.27-0.88-0.27-1.41c0-0.64,0.12-1.21,0.36-1.7
			c0.24-0.49,0.58-0.88,1.01-1.15c0.43-0.27,0.92-0.41,1.47-0.41c0.37,0,0.7,0.08,0.99,0.25c0.29,0.17,0.5,0.38,0.64,0.65l0.14-0.8
			H177.7z M175.16,266.09c-0.53,0-0.96,0.2-1.28,0.61c-0.32,0.4-0.48,0.94-0.48,1.6c0,0.57,0.12,1.01,0.37,1.33
			c0.25,0.32,0.58,0.47,0.99,0.47c0.35,0,0.66-0.1,0.94-0.3s0.5-0.48,0.66-0.84c0.16-0.36,0.24-0.77,0.24-1.23
			c0-0.51-0.13-0.91-0.39-1.2C175.95,266.23,175.6,266.09,175.16,266.09z"/>
	</g>
	<g class="st3">
		<path class="st5" d="M159.39,350.79v5.78h-1.13l0.05-1.19c-0.21,0.4-0.5,0.72-0.84,0.95c-0.35,0.23-0.74,0.35-1.19,0.35
			c-0.5,0-0.92-0.12-1.26-0.35c-0.34-0.24-0.6-0.56-0.78-0.96s-0.27-0.88-0.27-1.41c0-0.64,0.12-1.21,0.36-1.7
			c0.24-0.49,0.58-0.88,1-1.15c0.43-0.27,0.92-0.41,1.47-0.41c0.37,0,0.7,0.08,0.99,0.25c0.29,0.17,0.5,0.38,0.64,0.65l0.14-0.8
			H159.39z M156.85,351.67c-0.53,0-0.96,0.2-1.28,0.61s-0.48,0.94-0.48,1.6c0,0.57,0.12,1.01,0.37,1.33
			c0.25,0.32,0.58,0.47,0.99,0.47c0.35,0,0.66-0.1,0.94-0.3s0.5-0.48,0.66-0.84s0.24-0.77,0.24-1.23c0-0.51-0.13-0.91-0.39-1.2
			S157.3,351.67,156.85,351.67z"/>
		<path class="st5" d="M162.56,356.67c-0.52,0-0.9-0.14-1.16-0.42c-0.26-0.28-0.39-0.66-0.39-1.15v-7.08h1.11v6.96
			c0,0.47,0.21,0.71,0.63,0.71c0.11,0,0.21-0.02,0.31-0.05c0.1-0.03,0.18-0.07,0.25-0.1l0.28,0.82c-0.11,0.09-0.26,0.17-0.44,0.23
			S162.76,356.67,162.56,356.67z"/>
		<path class="st5" d="M166.44,356.67c-0.69,0-1.21-0.18-1.57-0.55c-0.36-0.37-0.53-0.85-0.53-1.46l0.05-2.95h-1v-0.94h1.02
			l0.01-1.2h1.11l-0.02,1.2h1.96v0.94h-1.97l-0.04,2.85c0,0.34,0.09,0.61,0.27,0.81c0.18,0.2,0.45,0.31,0.82,0.31
			c0.18,0,0.34-0.02,0.5-0.06c0.15-0.04,0.32-0.13,0.49-0.26l0.33,0.87c-0.17,0.15-0.38,0.26-0.63,0.33S166.72,356.67,166.44,356.67
			z"/>
		<path class="st5" d="M173.61,350.79v5.78h-1.13l0.05-1.19c-0.22,0.4-0.5,0.72-0.84,0.95c-0.35,0.23-0.74,0.35-1.19,0.35
			c-0.5,0-0.92-0.12-1.26-0.35c-0.34-0.24-0.6-0.56-0.78-0.96c-0.18-0.41-0.27-0.88-0.27-1.41c0-0.64,0.12-1.21,0.36-1.7
			s0.58-0.88,1-1.15s0.92-0.41,1.47-0.41c0.37,0,0.7,0.08,0.99,0.25c0.29,0.17,0.5,0.38,0.64,0.65l0.14-0.8H173.61z M171.07,351.67
			c-0.53,0-0.96,0.2-1.28,0.61c-0.32,0.4-0.48,0.94-0.48,1.6c0,0.57,0.12,1.01,0.37,1.33c0.25,0.32,0.58,0.47,0.99,0.47
			c0.35,0,0.66-0.1,0.94-0.3s0.5-0.48,0.66-0.84s0.24-0.77,0.24-1.23c0-0.51-0.13-0.91-0.39-1.2S171.52,351.67,171.07,351.67z"/>
	</g>
	<g>
		<g class="st3">
			<path class="st5" d="M78.05,29.15l0.33,1.1c-0.15,0.11-0.32,0.19-0.53,0.26c-0.21,0.06-0.43,0.09-0.66,0.09
				c-0.81,0-1.45-0.36-1.91-1.08l-1.12-1.72c-0.12-0.18-0.24-0.31-0.36-0.38c-0.12-0.07-0.26-0.11-0.4-0.11h-0.05v3.19h-1.38v-7.72
				h2.4c0.98,0,1.72,0.2,2.22,0.61s0.76,0.96,0.76,1.67c0,0.43-0.09,0.8-0.28,1.1c-0.19,0.31-0.45,0.55-0.77,0.73
				c-0.33,0.18-0.7,0.3-1.11,0.35c0.22,0.12,0.42,0.31,0.6,0.59l0.61,0.9c0.16,0.23,0.31,0.39,0.45,0.48
				c0.14,0.09,0.32,0.13,0.54,0.13C77.62,29.35,77.85,29.28,78.05,29.15z M74.25,23.93h-0.92v2.27h0.86c0.59,0,1.03-0.09,1.32-0.27
				c0.28-0.18,0.42-0.47,0.42-0.87C75.93,24.31,75.37,23.93,74.25,23.93z"/>
			<path class="st5" d="M81.25,30.6c-0.59,0-1.11-0.11-1.54-0.33c-0.43-0.22-0.76-0.54-1-0.95s-0.35-0.91-0.35-1.48
				c0-0.57,0.12-1.08,0.36-1.52s0.56-0.78,0.97-1.03c0.41-0.25,0.88-0.37,1.4-0.37c0.85,0,1.47,0.29,1.88,0.86
				c0.4,0.58,0.54,1.37,0.42,2.39h-3.68c0.03,0.38,0.19,0.69,0.47,0.92c0.28,0.23,0.67,0.35,1.16,0.35c0.23,0,0.47-0.05,0.7-0.15
				c0.24-0.1,0.44-0.26,0.6-0.47l0.77,0.78c-0.25,0.31-0.55,0.55-0.9,0.73S81.75,30.6,81.25,30.6z M81.12,25.92
				c-0.37,0-0.67,0.12-0.91,0.35s-0.39,0.54-0.46,0.94h2.5c0.01-0.45-0.08-0.78-0.29-0.98C81.74,26.02,81.46,25.92,81.12,25.92z"/>
			<path class="st5" d="M86.46,30.6c-0.75,0-1.33-0.14-1.73-0.43c-0.4-0.29-0.63-0.69-0.7-1.2l1.12-0.27
				c0.04,0.28,0.17,0.49,0.38,0.64c0.21,0.15,0.51,0.22,0.9,0.22c0.32,0,0.56-0.05,0.72-0.15c0.16-0.1,0.24-0.24,0.24-0.41
				s-0.09-0.31-0.27-0.4c-0.18-0.09-0.45-0.18-0.82-0.25c-0.41-0.08-0.77-0.18-1.06-0.3c-0.29-0.12-0.52-0.29-0.67-0.51
				c-0.16-0.21-0.23-0.49-0.23-0.84c0-0.33,0.09-0.63,0.28-0.9c0.19-0.26,0.45-0.47,0.78-0.63c0.33-0.16,0.71-0.23,1.14-0.23
				c0.57,0,1.04,0.13,1.41,0.4c0.37,0.27,0.59,0.61,0.66,1.03l-1.1,0.29c-0.05-0.21-0.16-0.38-0.33-0.5
				c-0.17-0.12-0.39-0.18-0.67-0.18s-0.5,0.06-0.65,0.17c-0.15,0.12-0.22,0.26-0.22,0.44s0.08,0.31,0.26,0.41
				c0.17,0.1,0.46,0.19,0.88,0.28c0.38,0.08,0.72,0.18,1.01,0.3c0.29,0.12,0.51,0.28,0.68,0.49c0.17,0.21,0.25,0.48,0.25,0.83
				c0,0.34-0.1,0.64-0.29,0.9c-0.19,0.26-0.46,0.46-0.8,0.6S86.89,30.6,86.46,30.6z"/>
			<path class="st5" d="M89.66,32.67v-7.67H91l-0.04,0.98c0.2-0.34,0.45-0.6,0.76-0.79s0.67-0.28,1.09-0.28
				c0.49,0,0.9,0.11,1.23,0.34c0.33,0.23,0.59,0.53,0.76,0.92c0.17,0.39,0.26,0.84,0.26,1.34c0,0.61-0.12,1.15-0.36,1.61
				s-0.57,0.82-0.98,1.08s-0.89,0.39-1.42,0.39c-0.28,0-0.53-0.05-0.75-0.14c-0.23-0.09-0.41-0.22-0.57-0.38l0.01,0.42v2.17H89.66z
				 M92.2,29.43c0.46,0,0.82-0.17,1.09-0.52c0.27-0.35,0.4-0.8,0.4-1.35c0-0.46-0.1-0.82-0.3-1.08c-0.2-0.26-0.48-0.39-0.84-0.39
				c-0.3,0-0.56,0.08-0.79,0.24s-0.42,0.39-0.55,0.69s-0.21,0.63-0.21,1.02c0,0.43,0.11,0.77,0.33,1.02
				C91.53,29.31,91.83,29.43,92.2,29.43z"/>
			<path class="st5" d="M98.79,24.92c0.82,0,1.46,0.25,1.93,0.73c0.47,0.49,0.7,1.15,0.7,1.98c0,0.57-0.12,1.07-0.35,1.52
				c-0.24,0.45-0.57,0.8-1,1.05s-0.92,0.39-1.49,0.39c-0.82,0-1.46-0.24-1.93-0.73c-0.47-0.49-0.7-1.15-0.7-1.99
				c0-0.57,0.12-1.07,0.35-1.52c0.24-0.45,0.57-0.8,0.99-1.06C97.72,25.05,98.21,24.92,98.79,24.92z M98.62,29.43
				c0.43,0,0.77-0.16,1.03-0.49c0.26-0.33,0.39-0.76,0.39-1.31c0-0.49-0.11-0.87-0.34-1.14c-0.23-0.27-0.54-0.4-0.94-0.4
				c-0.44,0-0.79,0.16-1.06,0.49c-0.26,0.33-0.39,0.76-0.39,1.29c0,0.49,0.11,0.88,0.34,1.15S98.21,29.43,98.62,29.43z"/>
			<path class="st5" d="M102.57,30.5v-5.49h1.33l-0.07,1.38c0.21-0.47,0.5-0.83,0.86-1.09c0.36-0.25,0.78-0.38,1.24-0.38
				c0.62,0,1.08,0.21,1.4,0.64c0.32,0.42,0.47,1.03,0.46,1.82l-0.02,3.12h-1.33l0.02-3.01c0.01-0.43-0.06-0.76-0.2-0.98
				c-0.14-0.23-0.37-0.34-0.68-0.34c-0.24,0-0.46,0.07-0.66,0.21c-0.2,0.14-0.38,0.37-0.53,0.7c-0.15,0.33-0.27,0.78-0.36,1.34
				c-0.09,0.56-0.13,1.26-0.14,2.09H102.57z"/>
			<path class="st5" d="M111.05,30.6c-0.75,0-1.33-0.14-1.73-0.43c-0.4-0.29-0.63-0.69-0.7-1.2l1.12-0.27
				c0.04,0.28,0.17,0.49,0.38,0.64c0.21,0.15,0.51,0.22,0.9,0.22c0.32,0,0.56-0.05,0.72-0.15s0.25-0.24,0.25-0.41
				s-0.09-0.31-0.27-0.4c-0.18-0.09-0.45-0.18-0.82-0.25c-0.41-0.08-0.77-0.18-1.06-0.3c-0.29-0.12-0.52-0.29-0.67-0.51
				c-0.16-0.21-0.23-0.49-0.23-0.84c0-0.33,0.09-0.63,0.28-0.9c0.19-0.26,0.45-0.47,0.78-0.63c0.33-0.16,0.71-0.23,1.14-0.23
				c0.57,0,1.04,0.13,1.41,0.4c0.37,0.27,0.58,0.61,0.66,1.03l-1.1,0.29c-0.05-0.21-0.16-0.38-0.33-0.5
				c-0.17-0.12-0.39-0.18-0.67-0.18s-0.5,0.06-0.65,0.17c-0.15,0.12-0.22,0.26-0.22,0.44s0.08,0.31,0.25,0.41
				c0.17,0.1,0.46,0.19,0.88,0.28c0.38,0.08,0.72,0.18,1.01,0.3c0.29,0.12,0.51,0.28,0.68,0.49c0.17,0.21,0.25,0.48,0.25,0.83
				c0,0.34-0.1,0.64-0.29,0.9c-0.19,0.26-0.46,0.46-0.8,0.6S111.49,30.6,111.05,30.6z"/>
			<path class="st5" d="M114.93,24.14c-0.26,0-0.47-0.08-0.62-0.24c-0.15-0.16-0.23-0.35-0.23-0.58s0.08-0.42,0.23-0.58
				s0.36-0.24,0.62-0.24c0.26,0,0.47,0.08,0.62,0.24s0.23,0.35,0.23,0.58s-0.08,0.42-0.23,0.58
				C115.39,24.06,115.19,24.14,114.93,24.14z M115.59,25.01v5.49h-1.33v-5.49H115.59z"/>
			<path class="st5" d="M116.95,28.31v-1.2h3.25v1.2H116.95z"/>
		</g>
		<g class="st3">
			<path class="st5" d="M75.66,38.06h1.33l-2.06,5.49h-1.89l-1.74-5.49h1.44l1.33,4.42L75.66,38.06z"/>
			<path class="st5" d="M78.22,37.19c-0.26,0-0.47-0.08-0.62-0.24c-0.15-0.16-0.23-0.35-0.23-0.58s0.08-0.42,0.23-0.58
				s0.36-0.24,0.62-0.24c0.26,0,0.47,0.08,0.62,0.24s0.23,0.35,0.23,0.58s-0.08,0.42-0.23,0.58C78.69,37.11,78.48,37.19,78.22,37.19
				z M78.89,38.06v5.49h-1.33v-5.49H78.89z"/>
			<path class="st5" d="M85.43,35.5v8.05h-1.35l0.04-0.96c-0.2,0.34-0.45,0.6-0.76,0.78c-0.31,0.18-0.67,0.27-1.09,0.27
				c-0.48,0-0.88-0.11-1.22-0.33c-0.33-0.22-0.59-0.53-0.76-0.92c-0.17-0.39-0.26-0.84-0.26-1.35c0-0.61,0.12-1.14,0.36-1.6
				c0.24-0.46,0.57-0.82,0.98-1.08s0.89-0.39,1.41-0.39c0.28,0,0.53,0.05,0.76,0.14c0.23,0.09,0.42,0.22,0.57,0.39l-0.01-0.45V35.5
				H85.43z M82.89,39.15c-0.45,0-0.81,0.17-1.08,0.51c-0.27,0.34-0.4,0.79-0.4,1.34c0,0.47,0.1,0.84,0.3,1.1
				c0.2,0.26,0.48,0.39,0.84,0.39c0.29,0,0.55-0.08,0.79-0.25c0.24-0.17,0.42-0.4,0.56-0.7c0.14-0.3,0.21-0.64,0.21-1.02
				c0-0.43-0.11-0.76-0.33-1.01S83.26,39.15,82.89,39.15z"/>
			<path class="st5" d="M91.98,38.08v5.47h-1.35l0.04-0.96c-0.2,0.33-0.45,0.59-0.77,0.78c-0.31,0.19-0.68,0.28-1.08,0.28
				c-0.48,0-0.88-0.11-1.22-0.33c-0.33-0.22-0.59-0.53-0.76-0.92c-0.17-0.39-0.26-0.84-0.26-1.35c0-0.61,0.12-1.14,0.36-1.6
				c0.24-0.46,0.57-0.82,0.98-1.08s0.89-0.39,1.41-0.39c0.35,0,0.66,0.07,0.92,0.22c0.27,0.15,0.48,0.35,0.62,0.59l0.13-0.71H91.98z
				 M89.44,39.15c-0.45,0-0.81,0.17-1.08,0.51c-0.27,0.34-0.4,0.79-0.4,1.34c0,0.47,0.1,0.84,0.3,1.1c0.2,0.26,0.48,0.39,0.84,0.39
				c0.29,0,0.55-0.08,0.79-0.25c0.24-0.17,0.42-0.4,0.56-0.7c0.14-0.3,0.21-0.64,0.21-1.02c0-0.43-0.11-0.76-0.33-1.01
				S89.81,39.15,89.44,39.15z"/>
			<path class="st5" d="M98.53,35.5v8.05h-1.35l0.04-0.96c-0.2,0.34-0.45,0.6-0.76,0.78c-0.31,0.18-0.67,0.27-1.09,0.27
				c-0.48,0-0.88-0.11-1.22-0.33c-0.33-0.22-0.59-0.53-0.76-0.92c-0.17-0.39-0.26-0.84-0.26-1.35c0-0.61,0.12-1.14,0.36-1.6
				c0.24-0.46,0.57-0.82,0.98-1.08s0.89-0.39,1.41-0.39c0.28,0,0.53,0.05,0.76,0.14c0.23,0.09,0.42,0.22,0.57,0.39l-0.01-0.45V35.5
				H98.53z M95.98,39.15c-0.45,0-0.81,0.17-1.08,0.51c-0.27,0.34-0.4,0.79-0.4,1.34c0,0.47,0.1,0.84,0.3,1.1
				c0.2,0.26,0.48,0.39,0.84,0.39c0.29,0,0.55-0.08,0.79-0.25c0.24-0.17,0.42-0.4,0.56-0.7c0.14-0.3,0.21-0.64,0.21-1.02
				c0-0.43-0.11-0.76-0.33-1.01S96.36,39.15,95.98,39.15z"/>
			<path class="st5" d="M102.56,43.65c-0.59,0-1.11-0.11-1.54-0.33c-0.43-0.22-0.76-0.54-1-0.95s-0.35-0.91-0.35-1.48
				c0-0.57,0.12-1.08,0.36-1.52s0.56-0.78,0.97-1.03c0.41-0.25,0.88-0.37,1.4-0.37c0.85,0,1.47,0.29,1.88,0.86
				c0.4,0.58,0.54,1.37,0.42,2.39h-3.68c0.03,0.38,0.19,0.69,0.47,0.92c0.28,0.23,0.67,0.35,1.16,0.35c0.23,0,0.47-0.05,0.7-0.15
				c0.24-0.1,0.44-0.26,0.6-0.47l0.77,0.78c-0.25,0.31-0.55,0.55-0.9,0.73S103.06,43.65,102.56,43.65z M102.43,38.97
				c-0.37,0-0.67,0.12-0.91,0.35s-0.39,0.54-0.46,0.94h2.5c0.01-0.45-0.08-0.78-0.29-0.98C103.06,39.07,102.78,38.97,102.43,38.97z"
				/>
		</g>
	</g>
	<g class="st3">
		<path class="st5" d="M82.27,107.71v-8.05h1.04v2.6l-0.04,1.15c0.2-0.39,0.47-0.7,0.79-0.91c0.33-0.22,0.71-0.33,1.14-0.33
			c0.47,0,0.87,0.11,1.19,0.33c0.32,0.22,0.57,0.52,0.73,0.9c0.17,0.38,0.25,0.83,0.25,1.33c0,0.61-0.11,1.14-0.34,1.6
			c-0.23,0.46-0.54,0.82-0.95,1.08c-0.4,0.26-0.86,0.39-1.38,0.39c-0.35,0-0.67-0.08-0.95-0.24c-0.28-0.16-0.48-0.37-0.6-0.63
			l-0.13,0.77H82.27z M84.66,106.87c0.5,0,0.9-0.19,1.2-0.58c0.3-0.38,0.45-0.89,0.45-1.51c0-0.53-0.12-0.94-0.35-1.24
			c-0.23-0.3-0.54-0.45-0.94-0.45c-0.33,0-0.62,0.09-0.88,0.28c-0.26,0.19-0.47,0.45-0.62,0.78c-0.15,0.33-0.23,0.72-0.23,1.15
			c0,0.49,0.12,0.87,0.36,1.14C83.91,106.74,84.24,106.87,84.66,106.87z"/>
		<path class="st5" d="M93.54,102.27v5.44h-1.07l0.04-1.12c-0.2,0.38-0.47,0.67-0.79,0.89s-0.7,0.33-1.12,0.33
			c-0.47,0-0.87-0.11-1.19-0.33c-0.32-0.22-0.57-0.52-0.73-0.91c-0.17-0.38-0.25-0.83-0.25-1.33c0-0.6,0.11-1.13,0.34-1.6
			c0.23-0.46,0.54-0.82,0.95-1.08c0.4-0.26,0.86-0.39,1.39-0.39c0.35,0,0.66,0.08,0.93,0.23c0.27,0.16,0.47,0.36,0.6,0.61l0.13-0.75
			H93.54z M91.15,103.1c-0.5,0-0.9,0.19-1.2,0.57s-0.45,0.88-0.45,1.51c0,0.54,0.12,0.95,0.35,1.25c0.23,0.3,0.54,0.45,0.94,0.45
			c0.33,0,0.62-0.09,0.88-0.28c0.26-0.19,0.47-0.45,0.62-0.79c0.15-0.34,0.23-0.72,0.23-1.16c0-0.48-0.12-0.86-0.36-1.13
			C91.9,103.24,91.57,103.1,91.15,103.1z"/>
		<path class="st5" d="M95.59,101.21c-0.21,0-0.38-0.07-0.5-0.2c-0.12-0.13-0.19-0.29-0.19-0.47c0-0.18,0.06-0.34,0.19-0.47
			c0.12-0.13,0.29-0.2,0.5-0.2c0.21,0,0.38,0.07,0.5,0.2c0.12,0.13,0.19,0.29,0.19,0.47c0,0.18-0.06,0.34-0.19,0.47
			C95.97,101.14,95.8,101.21,95.59,101.21z M96.09,102.26v5.45h-1.03v-5.45H96.09z"/>
		<path class="st5" d="M98.08,107.71h-1.2l2.01-2.75l-1.91-2.7h1.26l1.29,1.83l1.32-1.83h1.2l-1.94,2.64l2,2.81h-1.27l-1.36-1.94
			L98.08,107.71z"/>
		<path class="st5" d="M107.58,102.27v5.44h-1.07l0.04-1.12c-0.2,0.38-0.47,0.67-0.79,0.89s-0.7,0.33-1.12,0.33
			c-0.47,0-0.87-0.11-1.19-0.33c-0.32-0.22-0.57-0.52-0.73-0.91c-0.17-0.38-0.25-0.83-0.25-1.33c0-0.6,0.11-1.13,0.34-1.6
			c0.23-0.46,0.54-0.82,0.95-1.08c0.4-0.26,0.86-0.39,1.39-0.39c0.35,0,0.66,0.08,0.93,0.23s0.47,0.36,0.6,0.61l0.13-0.75H107.58z
			 M105.19,103.1c-0.5,0-0.9,0.19-1.2,0.57c-0.3,0.38-0.45,0.88-0.45,1.51c0,0.54,0.12,0.95,0.35,1.25s0.54,0.45,0.94,0.45
			c0.33,0,0.62-0.09,0.88-0.28s0.47-0.45,0.62-0.79c0.15-0.34,0.23-0.72,0.23-1.16c0-0.48-0.12-0.86-0.36-1.13
			C105.94,103.24,105.61,103.1,105.19,103.1z"/>
	</g>
	<g class="st3">
		<path class="st5" d="M81.67,190.36v-8.55h1.11v2.76l-0.05,1.22c0.22-0.42,0.5-0.74,0.84-0.97c0.35-0.23,0.75-0.35,1.21-0.35
			c0.5,0,0.92,0.12,1.26,0.35s0.6,0.55,0.78,0.96s0.27,0.88,0.27,1.41c0,0.65-0.12,1.21-0.36,1.7s-0.58,0.87-1,1.15
			c-0.43,0.28-0.91,0.42-1.46,0.42c-0.38,0-0.71-0.08-1-0.25c-0.29-0.17-0.5-0.39-0.64-0.67l-0.14,0.82H81.67z M84.22,189.47
			c0.53,0,0.96-0.2,1.28-0.61c0.32-0.41,0.48-0.94,0.48-1.61c0-0.56-0.12-1-0.37-1.32c-0.25-0.32-0.58-0.47-0.99-0.47
			c-0.35,0-0.66,0.1-0.94,0.3s-0.5,0.48-0.66,0.83c-0.16,0.35-0.24,0.76-0.24,1.22c0,0.52,0.13,0.92,0.39,1.21
			C83.42,189.33,83.77,189.47,84.22,189.47z"/>
		<path class="st5" d="M93.64,184.59v5.78h-1.13l0.05-1.19c-0.22,0.4-0.5,0.72-0.84,0.95c-0.35,0.23-0.74,0.35-1.19,0.35
			c-0.5,0-0.92-0.12-1.26-0.35c-0.34-0.24-0.6-0.56-0.78-0.96c-0.18-0.41-0.27-0.88-0.27-1.41c0-0.64,0.12-1.21,0.36-1.7
			s0.58-0.88,1-1.15s0.92-0.41,1.47-0.41c0.37,0,0.7,0.08,0.99,0.25c0.29,0.17,0.5,0.38,0.64,0.65l0.14-0.8H93.64z M91.1,185.47
			c-0.53,0-0.96,0.2-1.28,0.61c-0.32,0.4-0.48,0.94-0.48,1.6c0,0.57,0.12,1.01,0.37,1.33c0.25,0.32,0.58,0.47,0.99,0.47
			c0.35,0,0.66-0.1,0.94-0.3s0.5-0.48,0.66-0.84c0.16-0.36,0.24-0.77,0.24-1.23c0-0.51-0.13-0.91-0.39-1.2
			C91.9,185.61,91.55,185.47,91.1,185.47z"/>
		<path class="st5" d="M95.82,183.46c-0.22,0-0.4-0.07-0.53-0.21s-0.2-0.31-0.2-0.5s0.07-0.36,0.2-0.5
			c0.13-0.14,0.31-0.21,0.53-0.21c0.22,0,0.4,0.07,0.53,0.21c0.13,0.14,0.2,0.31,0.2,0.5s-0.07,0.36-0.2,0.5
			C96.23,183.39,96.05,183.46,95.82,183.46z M96.36,184.58v5.79h-1.1v-5.79H96.36z"/>
		<path class="st5" d="M98.47,190.36H97.2l2.14-2.92l-2.03-2.86h1.34l1.37,1.94l1.4-1.94h1.27l-2.06,2.81l2.13,2.98h-1.35
			l-1.44-2.06L98.47,190.36z"/>
		<path class="st5" d="M108.55,184.59v5.78h-1.13l0.05-1.19c-0.22,0.4-0.5,0.72-0.84,0.95c-0.35,0.23-0.74,0.35-1.19,0.35
			c-0.5,0-0.92-0.12-1.26-0.35c-0.34-0.24-0.6-0.56-0.78-0.96c-0.18-0.41-0.27-0.88-0.27-1.41c0-0.64,0.12-1.21,0.36-1.7
			s0.58-0.88,1-1.15c0.43-0.27,0.92-0.41,1.47-0.41c0.37,0,0.7,0.08,0.99,0.25c0.29,0.17,0.5,0.38,0.64,0.65l0.14-0.8H108.55z
			 M106.01,185.47c-0.53,0-0.96,0.2-1.28,0.61s-0.48,0.94-0.48,1.6c0,0.57,0.12,1.01,0.37,1.33c0.25,0.32,0.58,0.47,0.99,0.47
			c0.35,0,0.66-0.1,0.94-0.3s0.5-0.48,0.66-0.84c0.16-0.36,0.24-0.77,0.24-1.23c0-0.51-0.13-0.91-0.39-1.2
			C106.81,185.61,106.46,185.47,106.01,185.47z"/>
	</g>
	<g class="st3">
		<path class="st5" d="M90.25,265.74v5.78h-1.13l0.05-1.19c-0.22,0.4-0.5,0.72-0.84,0.95c-0.35,0.23-0.74,0.35-1.19,0.35
			c-0.5,0-0.92-0.12-1.26-0.35c-0.34-0.24-0.6-0.56-0.78-0.96c-0.18-0.41-0.27-0.88-0.27-1.41c0-0.64,0.12-1.21,0.36-1.7
			s0.58-0.88,1-1.15s0.92-0.41,1.47-0.41c0.37,0,0.7,0.08,0.99,0.25c0.29,0.17,0.5,0.38,0.64,0.65l0.14-0.8H90.25z M87.71,266.62
			c-0.53,0-0.96,0.2-1.28,0.61c-0.32,0.4-0.48,0.94-0.48,1.6c0,0.57,0.12,1.01,0.37,1.33c0.25,0.32,0.58,0.47,0.99,0.47
			c0.35,0,0.66-0.1,0.94-0.3s0.5-0.48,0.66-0.84c0.16-0.36,0.24-0.77,0.24-1.23c0-0.51-0.13-0.91-0.39-1.2
			C88.51,266.76,88.16,266.62,87.71,266.62z"/>
		<path class="st5" d="M93.42,271.62c-0.52,0-0.9-0.14-1.16-0.42c-0.26-0.28-0.39-0.66-0.39-1.15v-7.08h1.11v6.96
			c0,0.47,0.21,0.71,0.64,0.71c0.11,0,0.21-0.02,0.31-0.05c0.1-0.03,0.18-0.07,0.25-0.1l0.28,0.82c-0.11,0.09-0.26,0.17-0.44,0.23
			C93.81,271.59,93.62,271.62,93.42,271.62z"/>
		<path class="st5" d="M97.3,271.62c-0.69,0-1.21-0.18-1.57-0.55c-0.36-0.37-0.53-0.85-0.53-1.46l0.05-2.95h-1v-0.94h1.02l0.01-1.2
			h1.11l-0.02,1.2h1.96v0.94h-1.98l-0.03,2.85c0,0.34,0.09,0.61,0.27,0.81s0.45,0.31,0.82,0.31c0.18,0,0.34-0.02,0.5-0.06
			c0.15-0.04,0.32-0.13,0.49-0.26l0.33,0.87c-0.17,0.15-0.38,0.26-0.63,0.33C97.84,271.58,97.57,271.62,97.3,271.62z"/>
		<path class="st5" d="M104.47,265.74v5.78h-1.13l0.05-1.19c-0.22,0.4-0.5,0.72-0.84,0.95c-0.35,0.23-0.74,0.35-1.19,0.35
			c-0.5,0-0.92-0.12-1.26-0.35c-0.34-0.24-0.6-0.56-0.78-0.96c-0.18-0.41-0.27-0.88-0.27-1.41c0-0.64,0.12-1.21,0.36-1.7
			s0.58-0.88,1-1.15s0.92-0.41,1.47-0.41c0.37,0,0.7,0.08,0.99,0.25c0.29,0.17,0.5,0.38,0.64,0.65l0.14-0.8H104.47z M101.93,266.62
			c-0.53,0-0.96,0.2-1.28,0.61c-0.32,0.4-0.48,0.94-0.48,1.6c0,0.57,0.12,1.01,0.37,1.33c0.25,0.32,0.58,0.47,0.99,0.47
			c0.35,0,0.66-0.1,0.94-0.3s0.5-0.48,0.66-0.84c0.16-0.36,0.24-0.77,0.24-1.23c0-0.51-0.13-0.91-0.39-1.2
			C102.73,266.76,102.38,266.62,101.93,266.62z"/>
	</g>
	<g class="st3">
		<path class="st5" d="M87.3,350.79v5.78h-1.13l0.05-1.19c-0.22,0.4-0.5,0.72-0.84,0.95c-0.35,0.23-0.74,0.35-1.19,0.35
			c-0.5,0-0.92-0.12-1.26-0.35c-0.34-0.24-0.6-0.56-0.78-0.96c-0.18-0.41-0.27-0.88-0.27-1.41c0-0.64,0.12-1.21,0.36-1.7
			s0.58-0.88,1-1.15s0.92-0.41,1.47-0.41c0.37,0,0.7,0.08,0.99,0.25c0.29,0.17,0.5,0.38,0.64,0.65l0.14-0.8H87.3z M84.76,351.67
			c-0.53,0-0.96,0.2-1.28,0.61c-0.32,0.4-0.48,0.94-0.48,1.6c0,0.57,0.12,1.01,0.37,1.33c0.25,0.32,0.58,0.47,0.99,0.47
			c0.35,0,0.66-0.1,0.94-0.3s0.5-0.48,0.66-0.84c0.16-0.36,0.24-0.77,0.24-1.23c0-0.51-0.13-0.91-0.39-1.2
			C85.56,351.81,85.21,351.67,84.76,351.67z"/>
		<path class="st5" d="M90.47,356.67c-0.52,0-0.9-0.14-1.16-0.42c-0.26-0.28-0.39-0.66-0.39-1.15v-7.08h1.11v6.96
			c0,0.47,0.21,0.71,0.64,0.71c0.11,0,0.21-0.02,0.31-0.05c0.1-0.03,0.18-0.07,0.25-0.1l0.28,0.82c-0.11,0.09-0.26,0.17-0.44,0.23
			C90.86,356.64,90.67,356.67,90.47,356.67z"/>
		<path class="st5" d="M94.35,356.67c-0.69,0-1.21-0.18-1.57-0.55c-0.36-0.37-0.53-0.85-0.53-1.46l0.05-2.95h-1v-0.94h1.02l0.01-1.2
			h1.11l-0.02,1.2h1.96v0.94H93.4l-0.03,2.85c0,0.34,0.09,0.61,0.27,0.81s0.45,0.31,0.82,0.31c0.18,0,0.34-0.02,0.5-0.06
			c0.15-0.04,0.32-0.13,0.49-0.26l0.33,0.87c-0.17,0.15-0.38,0.26-0.63,0.33C94.89,356.63,94.63,356.67,94.35,356.67z"/>
		<path class="st5" d="M101.52,350.79v5.78h-1.13l0.05-1.19c-0.22,0.4-0.5,0.72-0.84,0.95c-0.35,0.23-0.74,0.35-1.19,0.35
			c-0.5,0-0.92-0.12-1.26-0.35c-0.34-0.24-0.6-0.56-0.78-0.96c-0.18-0.41-0.27-0.88-0.27-1.41c0-0.64,0.12-1.21,0.36-1.7
			s0.58-0.88,1-1.15s0.92-0.41,1.47-0.41c0.37,0,0.7,0.08,0.99,0.25c0.29,0.17,0.5,0.38,0.64,0.65l0.14-0.8H101.52z M98.98,351.67
			c-0.53,0-0.96,0.2-1.28,0.61c-0.32,0.4-0.48,0.94-0.48,1.6c0,0.57,0.12,1.01,0.37,1.33c0.25,0.32,0.58,0.47,0.99,0.47
			c0.35,0,0.66-0.1,0.94-0.3s0.5-0.48,0.66-0.84c0.16-0.36,0.24-0.77,0.24-1.23c0-0.51-0.13-0.91-0.39-1.2
			C99.78,351.81,99.43,351.67,98.98,351.67z"/>
	</g>
	<g>
		<g>
			<g>
				<rect x="58.54" y="67.28" class="st2" width="146.69" height="1.3"/>
			</g>
			<g>
				<g>
					<path class="st2" d="M169.81,409.1H57.25V0h112.56c20.25,0,36.72,16.47,36.72,36.72v335.66
						C206.53,392.63,190.05,409.1,169.81,409.1z M59.84,406.51h109.97c18.82,0,34.12-15.31,34.12-34.12V36.72
						c0-18.82-15.31-34.12-34.12-34.12H59.84V406.51z"/>
				</g>
				<g>
					<rect x="128.75" y="1.3" class="st2" width="1.3" height="406.51"/>
				</g>
				<g>
					<rect x="58.54" y="152.1" class="st2" width="146.69" height="1.3"/>
				</g>
				<g>
					<rect x="58.54" y="228.78" class="st2" width="146.69" height="1.3"/>
				</g>
				<g>
					<rect x="58.54" y="306.21" class="st2" width="146.69" height="1.3"/>
				</g>
			</g>
		</g>
	</g>
	<g>
		<path class="st4" d="M7.24,13c0.1,0,0.2,0.02,0.3,0.06l49.34,49.39c0.32,0.15,0.46,0.54,0.3,0.87c-0.15,0.32-0.54,0.46-0.87,0.3
			L6.98,14.24c-0.32-0.15-0.46-0.54-0.3-0.87C6.79,13.14,7.01,13.01,7.24,13z"/>
	</g>
</g>
<g id="Camada_2_1_">
</g>
</svg>
