<?xml version="1.0" encoding="utf-8"?>
<!-- Generator: Adobe Illustrator 24.0.2, SVG Export Plug-In . SVG Version: 6.00 Build 0)  -->
<svg version="1.1" xmlns="http://www.w3.org/2000/svg" xmlns:xlink="http://www.w3.org/1999/xlink" x="0px" y="0px"
	 viewBox="0 0 920 335.24" style="enable-background:new 0 0 920 335.24;" xml:space="preserve">
<style type="text/css">
	.st0{fill:#FFFCCC;}
	.st1{fill:#FFFFFF;}
	.st2{fill:#FFEE00;}
	.st3{fill:#DBA723;}
	.st4{fill:#1E1E1E;}
</style>
<g id="Camada_1">
	<path class="st0" d="M152.35,332.32H81.59c-43.45,0-78.67-35.22-78.67-78.67V102.12h149.85V331.9
		C152.77,332.13,152.58,332.32,152.35,332.32z"/>
	<path class="st1" d="M834.18,332.32H152.77V105.6h764.31v143.82C917.08,295.2,879.97,332.32,834.18,332.32z"/>
	<path class="st2" d="M873.41,0H46.59C20.9,0,0,20.9,0,46.59v58.45h920V46.59C920,20.9,899.1,0,873.41,0z"/>
	<g>
		<g>
			<path class="st3" d="M79.51,27.52H71.9v3.29h7.12v3.29H71.9v3.41h7.84l-0.23,3.29H68.17V24.22h11.34V27.52z"/>
			<path class="st3" d="M85.77,41.03c-1.73,0-3.03-0.32-3.92-0.97c-0.89-0.65-1.41-1.5-1.56-2.56l2.96-0.75
				c0.09,0.45,0.35,0.81,0.77,1.08c0.42,0.27,1,0.41,1.73,0.41c1.17,0,1.75-0.27,1.75-0.82c0-0.28-0.17-0.49-0.5-0.64
				c-0.33-0.15-0.88-0.29-1.62-0.43c-1.4-0.25-2.49-0.65-3.26-1.19s-1.16-1.38-1.16-2.5c0-0.76,0.22-1.44,0.65-2.03
				s1.03-1.06,1.8-1.4c0.76-0.34,1.64-0.51,2.64-0.51c1.29,0,2.36,0.3,3.21,0.91c0.85,0.61,1.35,1.35,1.51,2.24l-2.92,0.79
				c-0.11-0.34-0.32-0.62-0.64-0.84c-0.32-0.22-0.75-0.33-1.3-0.33c-0.51,0-0.89,0.09-1.13,0.26c-0.24,0.17-0.36,0.37-0.36,0.61
				c0,0.28,0.16,0.5,0.49,0.67s0.9,0.33,1.73,0.5c0.84,0.16,1.58,0.37,2.23,0.64c0.65,0.27,1.15,0.65,1.52,1.12
				c0.37,0.48,0.55,1.12,0.55,1.93c0,0.76-0.22,1.43-0.67,2.01c-0.44,0.58-1.05,1.02-1.83,1.33S86.76,41.03,85.77,41.03z"/>
			<path class="st3" d="M97.83,41.03c-1.46,0-2.62-0.41-3.48-1.23c-0.86-0.82-1.28-1.89-1.26-3.23l0.09-4.69h-1.96v-2.96h2.01
				l0.02-2.43h3.55l-0.02,2.43h3.71v2.96h-3.76l-0.07,4.29c0,0.56,0.15,1,0.44,1.31s0.74,0.47,1.33,0.47c0.34,0,0.67-0.04,0.99-0.13
				s0.65-0.25,0.99-0.5l1.03,2.73C100.66,40.7,99.45,41.03,97.83,41.03z"/>
			<path class="st3" d="M104.25,27.52c-0.69,0-1.23-0.21-1.63-0.63c-0.4-0.42-0.61-0.92-0.61-1.49s0.2-1.07,0.6-1.49
				s0.95-0.63,1.65-0.63c0.68,0,1.23,0.21,1.63,0.63c0.4,0.42,0.61,0.92,0.61,1.49s-0.2,1.07-0.61,1.49
				C105.48,27.31,104.94,27.52,104.25,27.52z M106.05,28.92V40.8h-3.57V28.92H106.05z"/>
			<path class="st3" d="M112.51,41.03c-1.2,0-2.12-0.33-2.77-0.99c-0.65-0.66-0.97-1.62-0.97-2.88V23.52h3.57V36.9
				c0,0.72,0.33,1.07,1,1.07c0.36,0,0.66-0.08,0.91-0.26l0.86,2.54c-0.26,0.22-0.63,0.4-1.1,0.55
				C113.56,40.95,113.06,41.03,112.51,41.03z"/>
			<path class="st3" d="M121.69,28.73c1.85,0,3.3,0.53,4.35,1.59c1.05,1.06,1.58,2.49,1.58,4.29c0,1.23-0.26,2.33-0.79,3.29
				c-0.53,0.96-1.28,1.73-2.24,2.29c-0.96,0.56-2.1,0.84-3.41,0.84c-1.84,0-3.28-0.53-4.33-1.59s-1.58-2.48-1.58-4.27
				c0-1.24,0.26-2.35,0.79-3.31c0.53-0.96,1.28-1.73,2.24-2.29S120.39,28.73,121.69,28.73z M121.34,37.92c0.79,0,1.43-0.3,1.9-0.9
				c0.47-0.6,0.71-1.4,0.71-2.42c0-0.87-0.21-1.55-0.63-2.04c-0.42-0.49-1-0.74-1.73-0.74c-0.81,0-1.45,0.3-1.93,0.9
				s-0.71,1.4-0.71,2.42c0,0.87,0.21,1.55,0.62,2.04C119.99,37.68,120.57,37.92,121.34,37.92z"/>
		</g>
	</g>
	<g>
		<g>
			<path class="st3" d="M40.66,74.68h-7.61v3.29h7.12v3.29h-7.12v3.41h7.84l-0.23,3.29H29.32V71.39h11.34V74.68z"/>
			<path class="st3" d="M44.42,74.68c-0.69,0-1.23-0.21-1.63-0.63c-0.4-0.42-0.61-0.92-0.61-1.49s0.2-1.07,0.6-1.49
				s0.95-0.63,1.65-0.63c0.68,0,1.23,0.21,1.63,0.63c0.4,0.42,0.61,0.92,0.61,1.49s-0.2,1.07-0.61,1.49
				C45.65,74.47,45.11,74.68,44.42,74.68z M46.22,76.09v11.88h-3.57V76.09H46.22z"/>
			<path class="st3" d="M51.24,87.96h-4.15l4.39-6.09l-4.15-5.79h4.34l2.01,2.85l2.05-2.85h4.13l-4.18,5.65l4.36,6.23h-4.34
				l-2.19-3.29L51.24,87.96z"/>
			<path class="st3" d="M66.2,75.9c1.85,0,3.3,0.53,4.35,1.59c1.05,1.06,1.58,2.49,1.58,4.29c0,1.23-0.26,2.33-0.79,3.29
				c-0.53,0.96-1.28,1.73-2.24,2.29c-0.96,0.56-2.1,0.84-3.41,0.84c-1.84,0-3.28-0.53-4.33-1.59s-1.58-2.48-1.58-4.27
				c0-1.24,0.26-2.35,0.79-3.31c0.53-0.96,1.28-1.73,2.24-2.29S64.91,75.9,66.2,75.9z M65.85,85.09c0.79,0,1.43-0.3,1.9-0.9
				c0.47-0.6,0.71-1.4,0.71-2.42c0-0.87-0.21-1.55-0.63-2.04c-0.42-0.49-1-0.74-1.73-0.74c-0.81,0-1.45,0.3-1.93,0.9
				s-0.71,1.4-0.71,2.42c0,0.87,0.21,1.55,0.62,2.04C64.5,84.85,65.08,85.09,65.85,85.09z"/>
		</g>
	</g>
	<g>
		<g>
			<path class="st3" d="M191.54,61.43l7.19-16.57h3.2l6.91,16.57h-3.87l-1.33-3.38h-6.84l-1.38,3.38H191.54z M198.1,54.87h4.27
				l-2.1-5.34L198.1,54.87z"/>
			<path class="st3" d="M213.55,61.67c-1.37,0-2.4-0.47-3.1-1.4s-1.04-2.23-1.03-3.9l0.05-6.81h3.57l-0.05,6.53
				c0,0.7,0.12,1.25,0.37,1.66c0.25,0.4,0.64,0.61,1.17,0.61c0.45,0,0.86-0.14,1.24-0.42c0.37-0.28,0.7-0.75,0.98-1.4
				c0.28-0.65,0.5-1.55,0.67-2.68c0.16-1.14,0.25-2.57,0.27-4.29h3.45v11.88h-3.57l0.16-2.29c-0.47,0.81-1.06,1.43-1.77,1.87
				C215.24,61.45,214.44,61.67,213.55,61.67z"/>
			<path class="st3" d="M229.21,61.67c-1.46,0-2.62-0.41-3.48-1.23c-0.86-0.82-1.28-1.89-1.26-3.23l0.09-4.69h-1.96v-2.96h2.01
				l0.02-2.43h3.55l-0.02,2.43h3.71v2.96h-3.76l-0.07,4.29c0,0.56,0.15,1,0.44,1.31s0.74,0.47,1.33,0.47c0.34,0,0.67-0.04,0.99-0.13
				s0.65-0.25,0.99-0.5l1.03,2.73C232.04,61.34,230.83,61.67,229.21,61.67z"/>
			<path class="st3" d="M239.43,49.37c1.85,0,3.3,0.53,4.35,1.59c1.05,1.06,1.58,2.49,1.58,4.29c0,1.23-0.26,2.33-0.79,3.29
				c-0.53,0.96-1.28,1.73-2.24,2.29c-0.96,0.56-2.1,0.84-3.41,0.84c-1.84,0-3.28-0.53-4.33-1.59s-1.58-2.48-1.58-4.27
				c0-1.24,0.26-2.35,0.79-3.31c0.53-0.96,1.28-1.73,2.24-2.29S238.14,49.37,239.43,49.37z M239.08,58.56c0.79,0,1.43-0.3,1.9-0.9
				c0.47-0.6,0.71-1.4,0.71-2.42c0-0.87-0.21-1.55-0.63-2.04c-0.42-0.49-1-0.74-1.73-0.74c-0.81,0-1.45,0.3-1.93,0.9
				s-0.71,1.4-0.71,2.42c0,0.87,0.21,1.55,0.62,2.04C237.73,58.32,238.32,58.56,239.08,58.56z"/>
			<path class="st3" d="M255.68,53.01c-0.31-0.12-0.73-0.19-1.26-0.19c-0.81,0-1.46,0.28-1.94,0.85c-0.48,0.57-0.83,1.49-1.05,2.75
				c-0.22,1.27-0.33,2.94-0.33,5.01h-3.55v-7.7l-0.05-4.18h3.57l-0.16,2.96c0.42-1.14,0.98-1.94,1.69-2.43
				c0.71-0.48,1.47-0.72,2.28-0.72c0.26,0,0.51,0.02,0.73,0.05s0.46,0.09,0.69,0.16L255.68,53.01z"/>
			<path class="st3" d="M259.27,48.15c-0.69,0-1.23-0.21-1.63-0.63c-0.4-0.42-0.61-0.92-0.61-1.49s0.2-1.07,0.6-1.49
				s0.95-0.63,1.65-0.63c0.68,0,1.23,0.21,1.63,0.63c0.4,0.42,0.61,0.92,0.61,1.49s-0.2,1.07-0.61,1.49
				C260.5,47.94,259.96,48.15,259.27,48.15z M261.07,49.55v11.88h-3.57V49.55H261.07z"/>
			<path class="st3" d="M269.14,61.67c-1.46,0-2.62-0.41-3.48-1.23c-0.86-0.82-1.28-1.89-1.26-3.23l0.09-4.69h-1.96v-2.96h2.01
				l0.02-2.43h3.55l-0.02,2.43h3.71v2.96h-3.76l-0.07,4.29c0,0.56,0.15,1,0.44,1.31s0.74,0.47,1.33,0.47c0.34,0,0.67-0.04,0.99-0.13
				s0.65-0.25,0.99-0.5l1.03,2.73C271.97,61.34,270.76,61.67,269.14,61.67z"/>
			<path class="st3" d="M285.22,49.6v11.83h-3.59l0.12-1.77c-0.86,1.34-2.12,2.01-3.8,2.01c-1.06,0-1.96-0.24-2.71-0.72
				c-0.75-0.48-1.32-1.15-1.7-2.01c-0.39-0.86-0.58-1.84-0.58-2.94c0-1.32,0.27-2.48,0.82-3.48c0.54-1,1.28-1.77,2.19-2.32
				c0.92-0.55,1.94-0.83,3.08-0.83c0.75,0,1.41,0.15,1.98,0.46c0.58,0.3,1.02,0.7,1.33,1.2l0.3-1.42H285.22z M279.39,52.47
				c-0.86,0-1.53,0.32-2.02,0.96c-0.49,0.64-0.73,1.46-0.73,2.45c0,0.86,0.19,1.52,0.57,1.98c0.38,0.47,0.9,0.7,1.55,0.7
				c0.79,0,1.47-0.33,2.04-0.98c0.57-0.65,0.85-1.51,0.85-2.57c0-0.79-0.2-1.42-0.61-1.87S280.09,52.47,279.39,52.47z M278.11,48.06
				l2.85-4.13l3.64,0.89l-3.36,3.24H278.11z"/>
			<path class="st3" d="M296.12,53.01c-0.31-0.12-0.73-0.19-1.26-0.19c-0.81,0-1.46,0.28-1.94,0.85c-0.48,0.57-0.83,1.49-1.05,2.75
				c-0.22,1.27-0.33,2.94-0.33,5.01H288v-7.7l-0.05-4.18h3.57l-0.16,2.96c0.42-1.14,0.98-1.94,1.69-2.43
				c0.71-0.48,1.47-0.72,2.28-0.72c0.26,0,0.51,0.02,0.73,0.05s0.46,0.09,0.69,0.16L296.12,53.01z"/>
			<path class="st3" d="M299.72,48.15c-0.69,0-1.23-0.21-1.63-0.63c-0.4-0.42-0.61-0.92-0.61-1.49s0.2-1.07,0.6-1.49
				s0.95-0.63,1.65-0.63c0.68,0,1.23,0.21,1.63,0.63c0.4,0.42,0.61,0.92,0.61,1.49s-0.2,1.07-0.61,1.49
				C300.95,47.94,300.4,48.15,299.72,48.15z M301.51,49.55v11.88h-3.57V49.55H301.51z"/>
			<path class="st3" d="M310.06,49.37c1.85,0,3.3,0.53,4.35,1.59c1.05,1.06,1.58,2.49,1.58,4.29c0,1.23-0.26,2.33-0.79,3.29
				c-0.53,0.96-1.28,1.73-2.24,2.29c-0.96,0.56-2.1,0.84-3.41,0.84c-1.84,0-3.28-0.53-4.33-1.59s-1.58-2.48-1.58-4.27
				c0-1.24,0.26-2.35,0.79-3.31c0.53-0.96,1.28-1.73,2.24-2.29S308.77,49.37,310.06,49.37z M309.71,58.56c0.79,0,1.43-0.3,1.9-0.9
				c0.47-0.6,0.71-1.4,0.71-2.42c0-0.87-0.21-1.55-0.63-2.04c-0.42-0.49-1-0.74-1.73-0.74c-0.81,0-1.45,0.3-1.93,0.9
				s-0.71,1.4-0.71,2.42c0,0.87,0.21,1.55,0.62,2.04C308.36,58.32,308.94,58.56,309.71,58.56z"/>
		</g>
	</g>
	<g>
		<g>
			<path class="st3" d="M384.2,44.86h3.66v16.57h-3.38l-7.35-10.29v10.29h-3.66V44.86h3.38l7.35,10.29V44.86z"/>
			<path class="st3" d="M396.66,61.66c-1.32,0-2.47-0.25-3.43-0.74c-0.96-0.49-1.71-1.18-2.24-2.08c-0.53-0.89-0.79-1.96-0.79-3.19
				c0-1.24,0.27-2.34,0.81-3.29c0.54-0.95,1.26-1.69,2.17-2.22c0.91-0.53,1.94-0.79,3.09-0.79c1.31,0,2.37,0.3,3.2,0.89
				s1.4,1.43,1.72,2.51c0.32,1.08,0.38,2.34,0.2,3.77h-7.54c0.09,0.59,0.4,1.09,0.93,1.48c0.53,0.4,1.25,0.59,2.17,0.59
				c0.42,0,0.86-0.09,1.33-0.27s0.86-0.45,1.19-0.81l1.98,2.1c-0.51,0.62-1.15,1.12-1.9,1.48
				C398.79,61.48,397.83,61.66,396.66,61.66z M396.33,51.96c-0.62,0-1.15,0.19-1.58,0.56c-0.43,0.37-0.71,0.9-0.85,1.56h4.46
				c0.02-0.73-0.16-1.27-0.53-1.61C397.47,52.13,396.97,51.96,396.33,51.96z"/>
			<path class="st3" d="M407.89,66.33c-0.47,0-0.98-0.04-1.53-0.1c-0.55-0.07-1.08-0.18-1.58-0.32c-0.5-0.14-0.93-0.33-1.28-0.56
				l0.86-3.03c0.51,0.26,1.08,0.48,1.69,0.64c0.61,0.16,1.29,0.25,2.04,0.25c1.31,0,2.23-0.3,2.78-0.89
				c0.54-0.59,0.86-1.52,0.93-2.78l0.02-0.21c-0.84,1.25-2.09,1.87-3.73,1.87c-1.09,0-2.02-0.23-2.78-0.68
				c-0.76-0.45-1.35-1.08-1.75-1.89c-0.4-0.81-0.61-1.74-0.61-2.8c0-1.28,0.27-2.4,0.81-3.36c0.54-0.96,1.26-1.72,2.18-2.28
				c0.92-0.55,1.96-0.83,3.13-0.83c0.78,0,1.46,0.15,2.04,0.46c0.58,0.3,1.03,0.7,1.34,1.2l0.3-1.42h2.57v9.52
				c0,1.62-0.31,2.96-0.92,4.03c-0.62,1.07-1.48,1.86-2.59,2.39C410.71,66.07,409.4,66.33,407.89,66.33z M409.45,52.47
				c-0.87,0-1.56,0.3-2.05,0.89s-0.75,1.34-0.75,2.24c0,0.79,0.2,1.41,0.59,1.84c0.4,0.44,0.94,0.65,1.62,0.65
				c0.54,0,1.03-0.14,1.47-0.42c0.44-0.28,0.78-0.67,1.04-1.17c0.26-0.5,0.38-1.07,0.38-1.7c0-0.72-0.21-1.28-0.63-1.7
				C410.71,52.68,410.15,52.47,409.45,52.47z"/>
			<path class="st3" d="M421.82,61.66c-1.2,0-2.12-0.33-2.77-0.99c-0.65-0.66-0.97-1.62-0.97-2.88V44.16h3.57v13.37
				c0,0.72,0.33,1.07,1,1.07c0.36,0,0.66-0.08,0.91-0.26l0.86,2.54c-0.26,0.22-0.63,0.4-1.1,0.55
				C422.87,61.59,422.37,61.66,421.82,61.66z"/>
			<path class="st3" d="M427.07,48.15c-0.69,0-1.23-0.21-1.63-0.63c-0.4-0.42-0.61-0.92-0.61-1.49s0.2-1.07,0.6-1.49
				s0.95-0.63,1.65-0.63c0.68,0,1.23,0.21,1.63,0.63c0.4,0.42,0.61,0.92,0.61,1.49s-0.2,1.07-0.61,1.49
				C428.3,47.94,427.76,48.15,427.07,48.15z M428.87,49.55v11.88h-3.57V49.55H428.87z"/>
			<path class="st3" d="M435.92,66.33c-0.47,0-0.98-0.04-1.53-0.1c-0.55-0.07-1.08-0.18-1.58-0.32c-0.5-0.14-0.93-0.33-1.28-0.56
				l0.86-3.03c0.51,0.26,1.08,0.48,1.69,0.64c0.61,0.16,1.29,0.25,2.04,0.25c1.31,0,2.23-0.3,2.78-0.89
				c0.54-0.59,0.86-1.52,0.93-2.78l0.02-0.21c-0.84,1.25-2.09,1.87-3.73,1.87c-1.09,0-2.02-0.23-2.78-0.68
				c-0.76-0.45-1.35-1.08-1.75-1.89c-0.4-0.81-0.61-1.74-0.61-2.8c0-1.28,0.27-2.4,0.81-3.36c0.54-0.96,1.26-1.72,2.18-2.28
				c0.92-0.55,1.96-0.83,3.13-0.83c0.78,0,1.46,0.15,2.04,0.46c0.58,0.3,1.03,0.7,1.34,1.2l0.3-1.42h2.57v9.52
				c0,1.62-0.31,2.96-0.92,4.03c-0.62,1.07-1.48,1.86-2.59,2.39C438.74,66.07,437.43,66.33,435.92,66.33z M437.48,52.47
				c-0.87,0-1.56,0.3-2.05,0.89s-0.75,1.34-0.75,2.24c0,0.79,0.2,1.41,0.59,1.84c0.4,0.44,0.94,0.65,1.62,0.65
				c0.54,0,1.03-0.14,1.47-0.42c0.44-0.28,0.78-0.67,1.04-1.17c0.26-0.5,0.38-1.07,0.38-1.7c0-0.72-0.21-1.28-0.63-1.7
				C438.74,52.68,438.18,52.47,437.48,52.47z"/>
			<path class="st3" d="M451.97,61.66c-1.32,0-2.47-0.25-3.43-0.74c-0.96-0.49-1.71-1.18-2.24-2.08c-0.53-0.89-0.79-1.96-0.79-3.19
				c0-1.24,0.27-2.34,0.81-3.29c0.54-0.95,1.26-1.69,2.17-2.22c0.91-0.53,1.94-0.79,3.09-0.79c1.31,0,2.37,0.3,3.2,0.89
				s1.4,1.43,1.72,2.51c0.32,1.08,0.38,2.34,0.2,3.77h-7.54c0.09,0.59,0.4,1.09,0.93,1.48c0.53,0.4,1.25,0.59,2.17,0.59
				c0.42,0,0.86-0.09,1.33-0.27s0.86-0.45,1.19-0.81l1.98,2.1c-0.51,0.62-1.15,1.12-1.9,1.48C454.1,61.48,453.14,61.66,451.97,61.66
				z M451.65,51.96c-0.62,0-1.15,0.19-1.58,0.56c-0.43,0.37-0.71,0.9-0.85,1.56h4.46c0.02-0.73-0.16-1.27-0.53-1.61
				C452.79,52.13,452.29,51.96,451.65,51.96z"/>
			<path class="st3" d="M458.88,61.43V49.55h3.55l-0.16,2.54c0.48-0.87,1.1-1.54,1.86-2.02s1.6-0.71,2.53-0.71
				c1.42,0,2.47,0.48,3.17,1.44s1.04,2.33,1.03,4.12l-0.05,6.51h-3.57l0.05-6.25c0.01-0.81-0.11-1.43-0.36-1.86
				c-0.26-0.43-0.67-0.64-1.22-0.64c-0.47,0-0.9,0.14-1.28,0.41c-0.39,0.27-0.73,0.74-1.01,1.39c-0.29,0.65-0.52,1.55-0.69,2.68
				c-0.17,1.14-0.27,2.56-0.28,4.27H458.88z"/>
			<path class="st3" d="M478.77,61.66c-1.46,0-2.62-0.41-3.48-1.23s-1.28-1.89-1.26-3.23l0.09-4.69h-1.96v-2.96h2.01l0.02-2.43h3.55
				l-0.02,2.43h3.71v2.96h-3.76l-0.07,4.29c0,0.56,0.15,1,0.44,1.31s0.74,0.47,1.33,0.47c0.34,0,0.67-0.04,0.99-0.13
				c0.32-0.09,0.65-0.25,0.99-0.5l1.03,2.73C481.59,61.34,480.39,61.66,478.77,61.66z"/>
			<path class="st3" d="M489.04,61.66c-1.32,0-2.47-0.25-3.43-0.74c-0.97-0.49-1.71-1.18-2.24-2.08c-0.53-0.89-0.79-1.96-0.79-3.19
				c0-1.24,0.27-2.34,0.8-3.29c0.54-0.95,1.26-1.69,2.17-2.22c0.91-0.53,1.94-0.79,3.09-0.79c1.31,0,2.37,0.3,3.2,0.89
				c0.82,0.59,1.4,1.43,1.71,2.51c0.32,1.08,0.39,2.34,0.2,3.77h-7.54c0.09,0.59,0.4,1.09,0.93,1.48c0.53,0.4,1.25,0.59,2.17,0.59
				c0.42,0,0.86-0.09,1.33-0.27s0.86-0.45,1.19-0.81l1.98,2.1c-0.51,0.62-1.15,1.12-1.9,1.48C491.16,61.48,490.2,61.66,489.04,61.66
				z M488.71,51.96c-0.62,0-1.15,0.19-1.58,0.56s-0.71,0.9-0.85,1.56h4.46c0.02-0.73-0.16-1.27-0.52-1.61
				C489.85,52.13,489.35,51.96,488.71,51.96z"/>
		</g>
	</g>
	<g>
		<g>
			<path class="st3" d="M543.86,61.43V44.86h3.8v16.57H543.86z"/>
			<path class="st3" d="M550.6,61.43V49.55h3.55l-0.16,2.54c0.48-0.87,1.1-1.54,1.86-2.02s1.6-0.71,2.53-0.71
				c1.42,0,2.47,0.48,3.17,1.44s1.04,2.33,1.03,4.12l-0.05,6.51h-3.57l0.05-6.25c0.01-0.81-0.11-1.43-0.36-1.86
				c-0.26-0.43-0.67-0.64-1.22-0.64c-0.47,0-0.9,0.14-1.28,0.41c-0.39,0.27-0.73,0.74-1.01,1.39c-0.29,0.65-0.52,1.55-0.69,2.68
				c-0.17,1.14-0.27,2.56-0.28,4.27H550.6z"/>
			<path class="st3" d="M576.81,44.16v17.27h-3.59l0.12-1.75c-0.86,1.32-2.12,1.98-3.8,1.98c-1.06,0-1.96-0.24-2.71-0.72
				c-0.75-0.48-1.32-1.15-1.7-2.01c-0.39-0.86-0.58-1.84-0.58-2.94c0-1.32,0.27-2.48,0.82-3.48c0.54-1,1.28-1.77,2.19-2.32
				c0.92-0.55,1.94-0.83,3.08-0.83c0.53,0,1.02,0.08,1.47,0.23c0.45,0.16,0.84,0.37,1.17,0.65l-0.02-0.7v-5.39H576.81z
				 M570.98,52.47c-0.86,0-1.53,0.32-2.02,0.96c-0.49,0.64-0.74,1.46-0.74,2.45c0,0.86,0.19,1.52,0.57,1.98
				c0.38,0.47,0.9,0.7,1.55,0.7c0.79,0,1.47-0.33,2.04-0.98c0.57-0.65,0.85-1.51,0.85-2.57c0-0.79-0.2-1.42-0.61-1.87
				C572.23,52.7,571.68,52.47,570.98,52.47z"/>
			<path class="st3" d="M583.49,61.67c-1.37,0-2.4-0.47-3.1-1.4s-1.04-2.23-1.03-3.9l0.05-6.81h3.57l-0.05,6.53
				c0,0.7,0.12,1.25,0.37,1.66c0.25,0.4,0.64,0.61,1.17,0.61c0.45,0,0.86-0.14,1.24-0.42c0.37-0.28,0.7-0.75,0.98-1.4
				c0.28-0.65,0.5-1.55,0.67-2.68c0.16-1.14,0.25-2.57,0.27-4.29h3.45v11.88h-3.57l0.16-2.29c-0.47,0.81-1.06,1.43-1.77,1.87
				C585.18,61.45,584.38,61.67,583.49,61.67z"/>
			<path class="st3" d="M597.54,61.67c-1.2,0-2.12-0.33-2.77-0.99s-0.97-1.62-0.97-2.88V44.16h3.57v13.37c0,0.72,0.33,1.07,1,1.07
				c0.36,0,0.66-0.08,0.91-0.26l0.86,2.54c-0.26,0.22-0.63,0.4-1.1,0.55C598.59,61.59,598.08,61.67,597.54,61.67z"/>
			<path class="st3" d="M605.22,66.33c-0.47,0-0.98-0.04-1.53-0.1c-0.55-0.07-1.08-0.18-1.58-0.32c-0.5-0.14-0.93-0.33-1.28-0.56
				l0.86-3.03c0.51,0.26,1.08,0.48,1.69,0.64c0.62,0.16,1.3,0.25,2.04,0.25c1.31,0,2.23-0.3,2.78-0.89
				c0.54-0.59,0.86-1.52,0.93-2.78l0.02-0.21c-0.84,1.25-2.08,1.87-3.73,1.87c-1.09,0-2.02-0.23-2.78-0.68
				c-0.76-0.45-1.35-1.08-1.75-1.89c-0.4-0.81-0.61-1.74-0.61-2.8c0-1.28,0.27-2.4,0.8-3.36c0.54-0.96,1.26-1.72,2.18-2.28
				c0.92-0.55,1.96-0.83,3.13-0.83c0.78,0,1.46,0.15,2.04,0.46c0.58,0.3,1.03,0.7,1.34,1.2l0.3-1.42h2.57v9.52
				c0,1.62-0.31,2.96-0.92,4.03c-0.61,1.07-1.48,1.86-2.59,2.39C608.04,66.07,606.73,66.33,605.22,66.33z M606.78,52.47
				c-0.87,0-1.56,0.3-2.05,0.89c-0.5,0.59-0.75,1.34-0.75,2.24c0,0.79,0.2,1.41,0.59,1.84c0.4,0.44,0.94,0.65,1.62,0.65
				c0.54,0,1.04-0.14,1.47-0.42c0.44-0.28,0.78-0.67,1.04-1.17s0.39-1.07,0.39-1.7c0-0.72-0.21-1.28-0.63-1.7
				C608.04,52.68,607.48,52.47,606.78,52.47z"/>
			<path class="st3" d="M621.27,61.67c-1.32,0-2.47-0.25-3.43-0.74c-0.97-0.49-1.71-1.18-2.24-2.08c-0.53-0.89-0.79-1.96-0.79-3.19
				c0-1.24,0.27-2.34,0.8-3.29c0.54-0.95,1.26-1.69,2.17-2.22c0.91-0.53,1.94-0.79,3.09-0.79c1.31,0,2.37,0.3,3.2,0.89
				c0.82,0.59,1.4,1.43,1.71,2.51c0.32,1.08,0.39,2.34,0.2,3.77h-7.54c0.09,0.59,0.4,1.09,0.93,1.48c0.53,0.4,1.25,0.59,2.17,0.59
				c0.42,0,0.86-0.09,1.33-0.27s0.86-0.45,1.19-0.81l1.98,2.1c-0.51,0.62-1.15,1.12-1.9,1.48C623.4,61.48,622.44,61.67,621.27,61.67
				z M620.95,51.96c-0.62,0-1.15,0.19-1.58,0.56s-0.71,0.9-0.85,1.56h4.46c0.02-0.73-0.16-1.27-0.52-1.61
				C622.09,52.13,621.58,51.96,620.95,51.96z"/>
			<path class="st3" d="M628.18,61.43V49.55h3.55l-0.16,2.54c0.48-0.87,1.1-1.54,1.86-2.02s1.6-0.71,2.53-0.71
				c1.42,0,2.47,0.48,3.17,1.44s1.04,2.33,1.03,4.12l-0.05,6.51h-3.57l0.05-6.25c0.01-0.81-0.11-1.43-0.36-1.86
				c-0.26-0.43-0.67-0.64-1.22-0.64c-0.47,0-0.9,0.14-1.28,0.41c-0.39,0.27-0.73,0.74-1.01,1.39c-0.29,0.65-0.52,1.55-0.69,2.68
				c-0.17,1.14-0.27,2.56-0.28,4.27H628.18z"/>
			<path class="st3" d="M648.07,61.67c-1.46,0-2.62-0.41-3.48-1.23s-1.28-1.89-1.26-3.23l0.09-4.69h-1.96v-2.96h2.01l0.02-2.43h3.55
				l-0.02,2.43h3.71v2.96h-3.76l-0.07,4.29c0,0.56,0.15,1,0.44,1.31s0.74,0.47,1.33,0.47c0.34,0,0.67-0.04,0.99-0.13
				c0.32-0.09,0.65-0.25,0.99-0.5l1.03,2.73C650.89,61.34,649.68,61.67,648.07,61.67z"/>
			<path class="st3" d="M658.34,61.67c-1.32,0-2.47-0.25-3.43-0.74c-0.97-0.49-1.71-1.18-2.24-2.08c-0.53-0.89-0.79-1.96-0.79-3.19
				c0-1.24,0.27-2.34,0.8-3.29c0.54-0.95,1.26-1.69,2.17-2.22c0.91-0.53,1.94-0.79,3.09-0.79c1.31,0,2.37,0.3,3.2,0.89
				c0.82,0.59,1.4,1.43,1.71,2.51c0.32,1.08,0.39,2.34,0.2,3.77h-7.54c0.09,0.59,0.4,1.09,0.93,1.48c0.53,0.4,1.25,0.59,2.17,0.59
				c0.42,0,0.86-0.09,1.33-0.27s0.86-0.45,1.19-0.81l1.98,2.1c-0.51,0.62-1.15,1.12-1.9,1.48C660.46,61.48,659.5,61.67,658.34,61.67
				z M658.01,51.96c-0.62,0-1.15,0.19-1.58,0.56s-0.71,0.9-0.85,1.56h4.46c0.02-0.73-0.16-1.27-0.52-1.61
				C659.15,52.13,658.65,51.96,658.01,51.96z"/>
		</g>
	</g>
	<g>
		<g>
			<path class="st3" d="M714.23,61.43l7.19-16.57h3.2l6.91,16.57h-3.88l-1.33-3.38h-6.84l-1.38,3.38H714.23z M720.78,54.87h4.27
				l-2.1-5.34L720.78,54.87z"/>
			<path class="st3" d="M736.23,61.66c-1.37,0-2.4-0.47-3.1-1.4s-1.04-2.23-1.03-3.9l0.05-6.81h3.57l-0.05,6.53
				c0,0.7,0.12,1.25,0.37,1.66c0.25,0.4,0.64,0.61,1.17,0.61c0.45,0,0.86-0.14,1.24-0.42c0.37-0.28,0.7-0.75,0.98-1.4
				c0.28-0.65,0.5-1.55,0.67-2.68c0.16-1.14,0.25-2.57,0.27-4.29h3.45v11.88h-3.57l0.16-2.29c-0.47,0.81-1.06,1.43-1.77,1.87
				C737.92,61.45,737.12,61.66,736.23,61.66z"/>
			<path class="st3" d="M751.9,61.66c-1.46,0-2.62-0.41-3.48-1.23s-1.28-1.89-1.26-3.23l0.09-4.69h-1.96v-2.96h2.01l0.02-2.43h3.55
				l-0.02,2.43h3.71v2.96h-3.76l-0.07,4.29c0,0.56,0.15,1,0.44,1.31s0.74,0.47,1.33,0.47c0.34,0,0.67-0.04,0.99-0.13
				c0.32-0.09,0.65-0.25,0.99-0.5l1.03,2.73C754.72,61.34,753.51,61.66,751.9,61.66z"/>
			<path class="st3" d="M762.12,49.36c1.85,0,3.3,0.53,4.35,1.59c1.05,1.06,1.58,2.49,1.58,4.29c0,1.23-0.26,2.33-0.79,3.29
				c-0.53,0.96-1.28,1.73-2.24,2.29s-2.1,0.84-3.41,0.84c-1.84,0-3.28-0.53-4.33-1.59c-1.05-1.06-1.58-2.48-1.58-4.27
				c0-1.24,0.26-2.35,0.79-3.31c0.53-0.96,1.28-1.73,2.24-2.29C759.7,49.65,760.83,49.36,762.12,49.36z M761.77,58.56
				c0.79,0,1.43-0.3,1.9-0.9s0.71-1.4,0.71-2.42c0-0.87-0.21-1.55-0.63-2.04s-1-0.74-1.73-0.74c-0.81,0-1.45,0.3-1.92,0.9
				c-0.48,0.6-0.71,1.4-0.71,2.42c0,0.87,0.21,1.55,0.62,2.04S761.01,58.56,761.77,58.56z"/>
			<path class="st3" d="M778.36,53.01c-0.31-0.12-0.73-0.19-1.26-0.19c-0.81,0-1.46,0.28-1.94,0.85c-0.48,0.57-0.83,1.49-1.05,2.75
				c-0.22,1.27-0.33,2.94-0.33,5.01h-3.55v-7.7l-0.05-4.18h3.57l-0.16,2.96c0.42-1.14,0.98-1.94,1.69-2.43
				c0.71-0.48,1.47-0.72,2.28-0.72c0.26,0,0.51,0.02,0.74,0.05s0.46,0.09,0.69,0.16L778.36,53.01z"/>
			<path class="st3" d="M781.96,48.15c-0.68,0-1.23-0.21-1.63-0.63c-0.4-0.42-0.61-0.92-0.61-1.49s0.2-1.07,0.6-1.49
				c0.4-0.42,0.94-0.63,1.64-0.63c0.68,0,1.23,0.21,1.63,0.63s0.61,0.92,0.61,1.49s-0.2,1.07-0.61,1.49S782.64,48.15,781.96,48.15z
				 M783.75,49.55v11.88h-3.57V49.55H783.75z"/>
			<path class="st3" d="M791.83,61.66c-1.46,0-2.62-0.41-3.48-1.23s-1.28-1.89-1.26-3.23l0.09-4.69h-1.96v-2.96h2.01l0.02-2.43h3.55
				l-0.02,2.43h3.71v2.96h-3.76l-0.07,4.29c0,0.56,0.15,1,0.44,1.31s0.74,0.47,1.33,0.47c0.34,0,0.67-0.04,0.99-0.13
				c0.32-0.09,0.65-0.25,0.99-0.5l1.03,2.73C794.65,61.34,793.45,61.66,791.83,61.66z"/>
			<path class="st3" d="M807.91,49.6v11.83h-3.59l0.12-1.77c-0.86,1.34-2.12,2.01-3.8,2.01c-1.06,0-1.96-0.24-2.71-0.72
				c-0.75-0.48-1.32-1.15-1.7-2.01c-0.39-0.86-0.58-1.84-0.58-2.94c0-1.32,0.27-2.48,0.82-3.48c0.54-1,1.28-1.77,2.19-2.32
				c0.92-0.55,1.94-0.83,3.08-0.83c0.75,0,1.41,0.15,1.98,0.46c0.58,0.3,1.02,0.7,1.33,1.2l0.3-1.42H807.91z M802.07,52.47
				c-0.86,0-1.53,0.32-2.02,0.96c-0.49,0.64-0.74,1.46-0.74,2.45c0,0.86,0.19,1.52,0.57,1.98c0.38,0.47,0.9,0.7,1.55,0.7
				c0.79,0,1.47-0.33,2.04-0.98c0.57-0.65,0.85-1.51,0.85-2.57c0-0.79-0.2-1.42-0.61-1.87C803.33,52.69,802.77,52.47,802.07,52.47z"
				/>
			<path class="st3" d="M816.01,61.66c-1.46,0-2.62-0.41-3.48-1.23s-1.28-1.89-1.26-3.23l0.09-4.69h-1.96v-2.96h2.01l0.02-2.43h3.55
				l-0.02,2.43h3.71v2.96h-3.76l-0.07,4.29c0,0.56,0.15,1,0.44,1.31s0.74,0.47,1.33,0.47c0.34,0,0.67-0.04,0.99-0.13
				c0.32-0.09,0.65-0.25,0.99-0.5l1.03,2.73C818.83,61.34,817.63,61.66,816.01,61.66z"/>
			<path class="st3" d="M822.43,48.15c-0.68,0-1.23-0.21-1.63-0.63c-0.4-0.42-0.61-0.92-0.61-1.49s0.2-1.07,0.6-1.49
				c0.4-0.42,0.94-0.63,1.64-0.63c0.68,0,1.23,0.21,1.63,0.63s0.61,0.92,0.61,1.49s-0.2,1.07-0.61,1.49S823.11,48.15,822.43,48.15z
				 M824.22,49.55v11.88h-3.57V49.55H824.22z"/>
			<path class="st3" d="M835.21,49.55h3.55l-4.36,11.88h-5.09l-3.73-11.88h3.87l2.61,8.94L835.21,49.55z"/>
			<path class="st3" d="M845.13,49.36c1.85,0,3.3,0.53,4.35,1.59c1.05,1.06,1.58,2.49,1.58,4.29c0,1.23-0.26,2.33-0.79,3.29
				c-0.53,0.96-1.28,1.73-2.24,2.29s-2.1,0.84-3.41,0.84c-1.84,0-3.28-0.53-4.33-1.59c-1.05-1.06-1.58-2.48-1.58-4.27
				c0-1.24,0.26-2.35,0.79-3.31c0.53-0.96,1.28-1.73,2.24-2.29C842.71,49.65,843.84,49.36,845.13,49.36z M844.78,58.56
				c0.79,0,1.43-0.3,1.9-0.9s0.71-1.4,0.71-2.42c0-0.87-0.21-1.55-0.63-2.04s-1-0.74-1.73-0.74c-0.81,0-1.45,0.3-1.92,0.9
				c-0.48,0.6-0.71,1.4-0.71,2.42c0,0.87,0.21,1.55,0.62,2.04S844.02,58.56,844.78,58.56z"/>
		</g>
	</g>
	<g>
		<g>
			<path class="st4" d="M34.09,145.52h-8.14v5.38h7.85v2.13h-7.85v5.6h8.46l-0.2,2.13H23.53v-17.36h10.56V145.52z"/>
			<path class="st4" d="M37.62,160.75h-2.69l4.52-6.19l-4.3-6.07h2.84l2.91,4.11l2.96-4.11h2.69l-4.35,5.94l4.5,6.31h-2.86
				l-3.06-4.35L37.62,160.75z"/>
			<path class="st4" d="M49.72,146.13c-0.47,0-0.85-0.15-1.13-0.45c-0.28-0.3-0.42-0.66-0.42-1.06c0-0.41,0.14-0.76,0.42-1.06
				s0.65-0.45,1.13-0.45s0.85,0.15,1.13,0.45s0.42,0.66,0.42,1.06c0,0.41-0.14,0.76-0.42,1.06
				C50.57,145.98,50.19,146.13,49.72,146.13z M50.85,148.5v12.25h-2.32V148.5H50.85z"/>
			<path class="st4" d="M58.7,165.89c-0.7,0-1.44-0.07-2.21-0.22c-0.77-0.15-1.42-0.38-1.94-0.69l0.59-2.05
				c0.55,0.28,1.14,0.49,1.76,0.64c0.62,0.15,1.26,0.22,1.91,0.22c1.5,0,2.57-0.37,3.2-1.1c0.64-0.73,0.98-1.89,1.03-3.47l0.05-1.32
				c-0.46,0.86-1.06,1.54-1.8,2.03c-0.74,0.49-1.6,0.73-2.58,0.73c-1.08,0-1.98-0.24-2.71-0.71c-0.73-0.47-1.29-1.13-1.66-1.98
				c-0.38-0.85-0.56-1.82-0.56-2.91c0-1.3,0.26-2.47,0.77-3.49c0.51-1.02,1.22-1.82,2.13-2.4c0.9-0.58,1.95-0.87,3.14-0.87
				c0.81,0,1.53,0.18,2.15,0.53c0.62,0.35,1.08,0.81,1.37,1.38l0.29-1.69h1.74v10.35c0,2.33-0.58,4.08-1.72,5.26
				S60.83,165.89,58.7,165.89z M59.92,150.38c-1.14,0-2.05,0.42-2.74,1.26c-0.68,0.84-1.03,1.92-1.03,3.24
				c0,1.17,0.26,2.08,0.79,2.73c0.53,0.64,1.25,0.97,2.16,0.97c0.73,0,1.4-0.21,1.99-0.64c0.6-0.42,1.06-1,1.41-1.74
				c0.34-0.73,0.51-1.57,0.51-2.49c0-1.03-0.28-1.84-0.84-2.43C61.62,150.68,60.86,150.38,59.92,150.38z"/>
			<path class="st4" d="M74.45,160.97c-1.92,0-3.44-0.55-4.55-1.64c-1.11-1.09-1.66-2.6-1.66-4.52c0-1.27,0.26-2.4,0.77-3.38
				c0.51-0.98,1.22-1.74,2.12-2.3s1.92-0.83,3.06-0.83c1.76,0,3.1,0.61,4.01,1.82c0.91,1.21,1.23,2.97,0.95,5.27h-8.54
				c0.05,1.11,0.42,1.97,1.11,2.58c0.69,0.61,1.66,0.92,2.9,0.92c0.6,0,1.19-0.13,1.75-0.4s1.05-0.67,1.46-1.21l1.42,1.37
				c-0.57,0.75-1.25,1.32-2.03,1.72C76.43,160.77,75.51,160.97,74.45,160.97z M78.29,146.74h-2.25l-1.91-2.57l-1.91,2.57h-2.25
				l3.16-4.08h2.01L78.29,146.74z M74.2,150.11c-0.99,0-1.8,0.33-2.42,1c-0.62,0.67-0.99,1.51-1.13,2.52h6.46
				c0.05-1.24-0.2-2.14-0.75-2.69C75.82,150.39,75.1,150.11,74.2,150.11z"/>
			<path class="st4" d="M81.95,160.75V148.5h2.35l-0.15,3.62c0.46-1.22,1.1-2.16,1.93-2.82c0.83-0.66,1.8-0.99,2.91-0.99
				c1.3,0,2.3,0.45,2.98,1.36c0.68,0.91,1.02,2.21,1,3.9l-0.05,7.19h-2.32l0.05-6.97c0.02-2.2-0.73-3.3-2.25-3.3
				c-0.8,0-1.5,0.31-2.12,0.93c-0.61,0.62-1.1,1.68-1.46,3.18c-0.36,1.5-0.55,3.55-0.56,6.16H81.95z"/>
			<path class="st4" d="M101.59,160.97c-1.83,0-3.26-0.54-4.3-1.61c-1.04-1.08-1.57-2.58-1.57-4.5c0-1.3,0.26-2.45,0.77-3.44
				s1.23-1.75,2.16-2.3c0.93-0.55,2.01-0.82,3.23-0.82c2.04,0,3.52,0.81,4.45,2.42l-1.71,1.3c-0.6-1.08-1.52-1.61-2.76-1.61
				c-1.11,0-2.01,0.4-2.69,1.21c-0.68,0.81-1.03,1.88-1.03,3.22c0,1.3,0.31,2.3,0.92,2.98c0.61,0.68,1.5,1.03,2.65,1.03
				c0.6,0,1.16-0.13,1.68-0.39c0.51-0.26,0.94-0.68,1.28-1.25l1.66,1.32c-0.52,0.85-1.19,1.47-1.99,1.86
				C103.54,160.78,102.62,160.97,101.59,160.97z"/>
			<path class="st4" d="M109.44,146.13c-0.47,0-0.85-0.15-1.13-0.45c-0.28-0.3-0.42-0.66-0.42-1.06c0-0.41,0.14-0.76,0.42-1.06
				s0.65-0.45,1.13-0.45s0.85,0.15,1.13,0.45s0.42,0.66,0.42,1.06c0,0.41-0.14,0.76-0.42,1.06
				C110.29,145.98,109.92,146.13,109.44,146.13z M110.57,148.5v12.25h-2.32V148.5H110.57z"/>
			<path class="st4" d="M124.97,148.52v12.23h-2.4l0.1-2.52c-0.46,0.85-1.05,1.52-1.79,2.01c-0.73,0.49-1.57,0.73-2.52,0.73
				c-1.06,0-1.95-0.25-2.68-0.75c-0.73-0.5-1.28-1.18-1.65-2.04s-0.56-1.86-0.56-2.98c0-1.35,0.26-2.55,0.77-3.6
				c0.51-1.04,1.22-1.85,2.13-2.43c0.9-0.58,1.94-0.87,3.12-0.87c0.78,0,1.48,0.18,2.09,0.53c0.61,0.35,1.06,0.81,1.36,1.38
				l0.29-1.69H124.97z M119.59,150.38c-1.13,0-2.03,0.43-2.7,1.28s-1.01,1.98-1.01,3.39c0,1.21,0.26,2.14,0.78,2.81
				c0.52,0.67,1.22,1,2.1,1c0.73,0,1.39-0.21,1.98-0.64c0.59-0.42,1.05-1.02,1.39-1.77c0.34-0.76,0.51-1.63,0.51-2.6
				c0-1.08-0.27-1.92-0.82-2.54C121.28,150.69,120.54,150.38,119.59,150.38z"/>
		</g>
	</g>
	<g>
		<path class="st4" d="M223.7,148.52v12.23h-2.4l0.1-2.52c-0.46,0.85-1.05,1.52-1.79,2.01c-0.73,0.49-1.57,0.73-2.52,0.73
			c-1.06,0-1.95-0.25-2.68-0.75c-0.73-0.5-1.28-1.18-1.65-2.04s-0.56-1.86-0.56-2.98c0-1.35,0.26-2.55,0.77-3.6
			c0.51-1.04,1.22-1.85,2.13-2.43c0.9-0.58,1.94-0.87,3.12-0.87c0.78,0,1.48,0.18,2.09,0.53c0.61,0.35,1.06,0.81,1.36,1.38
			l0.29-1.69H223.7z M218.32,150.38c-1.13,0-2.03,0.43-2.7,1.28s-1.01,1.98-1.01,3.39c0,1.21,0.26,2.14,0.78,2.81
			c0.52,0.67,1.22,1,2.1,1c0.73,0,1.39-0.21,1.98-0.64c0.59-0.42,1.05-1.02,1.39-1.77c0.34-0.76,0.51-1.63,0.51-2.6
			c0-1.08-0.27-1.92-0.82-2.54C220.01,150.69,219.27,150.38,218.32,150.38z"/>
		<path class="st4" d="M230.4,160.97c-1.09,0-1.91-0.3-2.46-0.89c-0.55-0.6-0.82-1.41-0.82-2.43v-14.99h2.35v14.75
			c0,0.99,0.45,1.49,1.35,1.49c0.23,0,0.44-0.03,0.65-0.1c0.2-0.06,0.38-0.14,0.53-0.22l0.59,1.74c-0.23,0.2-0.54,0.35-0.94,0.48
			C231.24,160.91,230.83,160.97,230.4,160.97z"/>
		<path class="st4" d="M238.62,160.97c-1.45,0-2.56-0.39-3.31-1.16s-1.13-1.81-1.11-3.09l0.1-6.24h-2.13v-1.98h2.15l0.02-2.54h2.35
			l-0.05,2.54h4.16v1.98h-4.18l-0.07,6.04c0,0.72,0.19,1.29,0.56,1.72c0.38,0.43,0.95,0.65,1.74,0.65c0.37,0,0.73-0.04,1.05-0.13
			c0.33-0.09,0.67-0.27,1.03-0.55l0.71,1.83c-0.36,0.31-0.8,0.54-1.33,0.7C239.76,160.9,239.21,160.97,238.62,160.97z"/>
		<path class="st4" d="M253.81,148.52v12.23h-2.4l0.1-2.52c-0.46,0.85-1.05,1.52-1.79,2.01c-0.73,0.49-1.57,0.73-2.52,0.73
			c-1.06,0-1.95-0.25-2.68-0.75c-0.73-0.5-1.28-1.18-1.65-2.04s-0.56-1.86-0.56-2.98c0-1.35,0.26-2.55,0.77-3.6
			c0.51-1.04,1.22-1.85,2.13-2.43c0.9-0.58,1.94-0.87,3.12-0.87c0.78,0,1.48,0.18,2.09,0.53c0.61,0.35,1.06,0.81,1.36,1.38
			l0.29-1.69H253.81z M248.43,150.38c-1.13,0-2.03,0.43-2.7,1.28s-1.01,1.98-1.01,3.39c0,1.21,0.26,2.14,0.78,2.81
			c0.52,0.67,1.22,1,2.1,1c0.73,0,1.39-0.21,1.98-0.64c0.59-0.42,1.05-1.02,1.39-1.77c0.34-0.76,0.51-1.63,0.51-2.6
			c0-1.08-0.27-1.92-0.82-2.54C250.12,150.69,249.37,150.38,248.43,150.38z"/>
	</g>
	<g>
		<path class="st4" d="M389.74,160.75v-19.22h2.49v6.21l-0.1,2.75c0.48-0.94,1.12-1.66,1.9-2.18s1.69-0.78,2.73-0.78
			c1.13,0,2.07,0.26,2.84,0.78s1.35,1.24,1.75,2.16c0.4,0.92,0.6,1.97,0.6,3.17c0,1.45-0.27,2.73-0.82,3.83
			c-0.55,1.1-1.3,1.96-2.26,2.58c-0.96,0.62-2.06,0.94-3.29,0.94c-0.85,0-1.6-0.19-2.26-0.57c-0.66-0.38-1.13-0.88-1.43-1.51
			l-0.31,1.84H389.74z M395.45,158.75c1.19,0,2.15-0.46,2.87-1.38s1.08-2.12,1.08-3.61c0-1.26-0.28-2.25-0.83-2.96
			c-0.55-0.71-1.3-1.07-2.23-1.07c-0.78,0-1.48,0.23-2.1,0.68s-1.12,1.07-1.48,1.87c-0.36,0.8-0.55,1.71-0.55,2.75
			c0,1.16,0.29,2.07,0.87,2.73C393.65,158.42,394.45,158.75,395.45,158.75z"/>
		<path class="st4" d="M416.65,147.76v12.99h-2.55l0.1-2.68c-0.49,0.9-1.12,1.61-1.9,2.13s-1.67,0.78-2.68,0.78
			c-1.13,0-2.07-0.26-2.84-0.79c-0.77-0.53-1.35-1.25-1.75-2.17s-0.6-1.97-0.6-3.17c0-1.44,0.27-2.71,0.82-3.82
			c0.55-1.11,1.3-1.97,2.26-2.58c0.96-0.61,2.07-0.92,3.31-0.92c0.83,0,1.57,0.19,2.22,0.56c0.65,0.37,1.13,0.86,1.44,1.47
			l0.31-1.79H416.65z M410.93,149.74c-1.19,0-2.15,0.45-2.87,1.36c-0.72,0.91-1.08,2.11-1.08,3.6c0,1.28,0.28,2.28,0.83,2.99
			c0.55,0.71,1.3,1.06,2.23,1.06c0.78,0,1.48-0.22,2.1-0.68c0.62-0.45,1.12-1.08,1.48-1.88s0.55-1.73,0.55-2.77
			c0-1.14-0.29-2.04-0.87-2.7C412.73,150.07,411.94,149.74,410.93,149.74z"/>
		<path class="st4" d="M421.56,145.22c-0.5,0-0.9-0.16-1.19-0.48c-0.29-0.32-0.44-0.7-0.44-1.13c0-0.43,0.15-0.81,0.44-1.13
			c0.29-0.32,0.69-0.48,1.19-0.48c0.5,0,0.9,0.16,1.19,0.48c0.29,0.32,0.44,0.7,0.44,1.13c0,0.43-0.15,0.81-0.44,1.13
			C422.46,145.06,422.06,145.22,421.56,145.22z M422.75,147.74v13.01h-2.47v-13.01H422.75z"/>
		<path class="st4" d="M427.51,160.75h-2.86l4.81-6.57l-4.57-6.44h3.01l3.09,4.36l3.14-4.36h2.86l-4.62,6.31l4.78,6.7h-3.04
			l-3.25-4.62L427.51,160.75z"/>
		<path class="st4" d="M450.19,147.76v12.99h-2.55l0.1-2.68c-0.49,0.9-1.12,1.61-1.9,2.13s-1.67,0.78-2.68,0.78
			c-1.13,0-2.07-0.26-2.84-0.79c-0.77-0.53-1.35-1.25-1.75-2.17s-0.6-1.97-0.6-3.17c0-1.44,0.27-2.71,0.82-3.82
			c0.55-1.11,1.3-1.97,2.26-2.58c0.96-0.61,2.07-0.92,3.31-0.92c0.83,0,1.57,0.19,2.22,0.56c0.65,0.37,1.13,0.86,1.44,1.47
			l0.31-1.79H450.19z M444.47,149.74c-1.19,0-2.15,0.45-2.87,1.36c-0.72,0.91-1.08,2.11-1.08,3.6c0,1.28,0.28,2.28,0.83,2.99
			c0.55,0.71,1.3,1.06,2.23,1.06c0.78,0,1.48-0.22,2.1-0.68c0.62-0.45,1.12-1.08,1.48-1.88s0.55-1.73,0.55-2.77
			c0-1.14-0.29-2.04-0.87-2.7C446.27,150.07,445.47,149.74,444.47,149.74z"/>
	</g>
	<g>
		<path class="st4" d="M571.05,160.75v-19.22h2.49v6.21l-0.1,2.75c0.49-0.94,1.12-1.66,1.9-2.18s1.69-0.78,2.73-0.78
			c1.13,0,2.07,0.26,2.84,0.78s1.36,1.24,1.75,2.16c0.4,0.92,0.6,1.97,0.6,3.17c0,1.45-0.27,2.73-0.82,3.83
			c-0.55,1.1-1.3,1.96-2.26,2.58c-0.96,0.62-2.06,0.94-3.29,0.94c-0.85,0-1.6-0.19-2.26-0.57c-0.66-0.38-1.13-0.88-1.43-1.51
			l-0.31,1.84H571.05z M576.76,158.75c1.2,0,2.15-0.46,2.87-1.38c0.72-0.92,1.08-2.12,1.08-3.61c0-1.26-0.28-2.25-0.83-2.96
			c-0.55-0.71-1.3-1.07-2.23-1.07c-0.78,0-1.48,0.23-2.1,0.68s-1.12,1.07-1.48,1.87c-0.36,0.8-0.55,1.71-0.55,2.75
			c0,1.16,0.29,2.07,0.87,2.73S575.76,158.75,576.76,158.75z"/>
		<path class="st4" d="M597.96,147.76v12.99h-2.55l0.1-2.68c-0.49,0.9-1.12,1.61-1.9,2.13s-1.67,0.78-2.68,0.78
			c-1.13,0-2.07-0.26-2.84-0.79c-0.77-0.53-1.36-1.25-1.75-2.17c-0.4-0.92-0.6-1.97-0.6-3.17c0-1.44,0.27-2.71,0.82-3.82
			c0.54-1.11,1.3-1.97,2.26-2.58s2.07-0.92,3.31-0.92c0.83,0,1.57,0.19,2.22,0.56c0.65,0.37,1.13,0.86,1.44,1.47l0.31-1.79H597.96z
			 M592.24,149.74c-1.2,0-2.15,0.45-2.87,1.36c-0.72,0.91-1.08,2.11-1.08,3.6c0,1.28,0.28,2.28,0.83,2.99
			c0.55,0.71,1.3,1.06,2.23,1.06c0.78,0,1.48-0.22,2.1-0.68c0.62-0.45,1.12-1.08,1.48-1.88c0.36-0.81,0.54-1.73,0.54-2.77
			c0-1.14-0.29-2.04-0.87-2.7C594.04,150.06,593.25,149.74,592.24,149.74z"/>
		<path class="st4" d="M602.87,145.21c-0.5,0-0.9-0.16-1.2-0.48c-0.29-0.32-0.44-0.7-0.44-1.13c0-0.43,0.15-0.81,0.44-1.13
			c0.29-0.32,0.69-0.48,1.2-0.48c0.5,0,0.9,0.16,1.19,0.48c0.29,0.32,0.44,0.7,0.44,1.13c0,0.43-0.15,0.81-0.44,1.13
			C603.77,145.06,603.37,145.21,602.87,145.21z M604.06,147.74v13.01h-2.47v-13.01H604.06z"/>
		<path class="st4" d="M608.82,160.75h-2.86l4.81-6.57l-4.57-6.44h3.01l3.09,4.36l3.14-4.36h2.86l-4.62,6.31l4.78,6.7h-3.04
			l-3.25-4.62L608.82,160.75z"/>
		<path class="st4" d="M631.49,147.76v12.99h-2.55l0.1-2.68c-0.49,0.9-1.12,1.61-1.9,2.13s-1.67,0.78-2.68,0.78
			c-1.13,0-2.07-0.26-2.84-0.79c-0.77-0.53-1.36-1.25-1.75-2.17c-0.4-0.92-0.6-1.97-0.6-3.17c0-1.44,0.27-2.71,0.82-3.82
			c0.54-1.11,1.3-1.97,2.26-2.58s2.07-0.92,3.31-0.92c0.83,0,1.57,0.19,2.22,0.56c0.65,0.37,1.13,0.86,1.44,1.47l0.31-1.79H631.49z
			 M625.78,149.74c-1.2,0-2.15,0.45-2.87,1.36c-0.72,0.91-1.08,2.11-1.08,3.6c0,1.28,0.28,2.28,0.83,2.99
			c0.55,0.71,1.3,1.06,2.23,1.06c0.78,0,1.48-0.22,2.1-0.68c0.62-0.45,1.12-1.08,1.48-1.88c0.36-0.81,0.54-1.73,0.54-2.77
			c0-1.14-0.29-2.04-0.87-2.7C627.58,150.06,626.78,149.74,625.78,149.74z"/>
	</g>
	<g>
		<path class="st4" d="M782.78,147.76v12.99h-2.55l0.1-2.68c-0.49,0.9-1.12,1.61-1.9,2.13s-1.67,0.78-2.68,0.78
			c-1.13,0-2.07-0.26-2.84-0.79c-0.77-0.53-1.36-1.25-1.75-2.17c-0.4-0.92-0.6-1.97-0.6-3.17c0-1.44,0.27-2.71,0.82-3.82
			c0.54-1.11,1.3-1.97,2.26-2.58s2.07-0.92,3.31-0.92c0.83,0,1.57,0.19,2.22,0.56c0.65,0.37,1.13,0.86,1.44,1.47l0.31-1.79H782.78z
			 M777.07,149.74c-1.2,0-2.15,0.45-2.87,1.36c-0.72,0.91-1.08,2.11-1.08,3.6c0,1.28,0.28,2.28,0.83,2.99
			c0.55,0.71,1.3,1.06,2.23,1.06c0.78,0,1.48-0.22,2.1-0.68c0.62-0.45,1.12-1.08,1.48-1.88c0.36-0.81,0.54-1.73,0.54-2.77
			c0-1.14-0.29-2.04-0.87-2.7C778.87,150.06,778.07,149.74,777.07,149.74z"/>
		<path class="st4" d="M789.9,160.98c-1.16,0-2.03-0.32-2.61-0.95c-0.58-0.63-0.87-1.49-0.87-2.58v-15.92h2.49v15.66
			c0,1.06,0.48,1.58,1.43,1.58c0.24,0,0.47-0.03,0.69-0.1c0.22-0.07,0.4-0.15,0.56-0.23l0.62,1.84c-0.24,0.21-0.58,0.38-1,0.51
			C790.79,160.92,790.35,160.98,789.9,160.98z"/>
		<path class="st4" d="M798.63,160.98c-1.54,0-2.71-0.41-3.52-1.23c-0.81-0.82-1.2-1.92-1.18-3.29l0.1-6.62h-2.26v-2.1h2.29
			l0.03-2.7h2.49l-0.05,2.7h4.42v2.1h-4.44l-0.08,6.42c0,0.76,0.2,1.37,0.6,1.83s1.01,0.69,1.84,0.69c0.4,0,0.77-0.05,1.12-0.14
			c0.35-0.09,0.71-0.29,1.09-0.58l0.75,1.95c-0.38,0.33-0.85,0.58-1.42,0.74C799.85,160.9,799.25,160.98,798.63,160.98z"/>
		<path class="st4" d="M814.76,147.76v12.99h-2.55l0.1-2.68c-0.49,0.9-1.12,1.61-1.9,2.13s-1.67,0.78-2.68,0.78
			c-1.13,0-2.07-0.26-2.84-0.79c-0.77-0.53-1.36-1.25-1.75-2.17c-0.4-0.92-0.6-1.97-0.6-3.17c0-1.44,0.27-2.71,0.82-3.82
			c0.54-1.11,1.3-1.97,2.26-2.58s2.07-0.92,3.31-0.92c0.83,0,1.57,0.19,2.22,0.56c0.65,0.37,1.13,0.86,1.44,1.47l0.31-1.79H814.76z
			 M809.05,149.74c-1.2,0-2.15,0.45-2.87,1.36c-0.72,0.91-1.08,2.11-1.08,3.6c0,1.28,0.28,2.28,0.83,2.99
			c0.55,0.71,1.3,1.06,2.23,1.06c0.78,0,1.48-0.22,2.1-0.68c0.62-0.45,1.12-1.08,1.48-1.88c0.36-0.81,0.54-1.73,0.54-2.77
			c0-1.14-0.29-2.04-0.87-2.7C810.85,150.06,810.05,149.74,809.05,149.74z"/>
	</g>
	<g>
		<g>
			<path class="st4" d="M36.59,233.29l0.56,1.91c-0.57,0.44-1.34,0.66-2.32,0.66c-0.78,0-1.49-0.18-2.13-0.53
				c-0.64-0.35-1.22-0.93-1.76-1.75l-2.91-4.35c-0.49-0.73-1.05-1.1-1.69-1.1h-0.39v7.56h-2.42v-17.36h5.11
				c2.07,0,3.64,0.44,4.72,1.31s1.61,2.07,1.61,3.58c0,1.03-0.24,1.89-0.71,2.59c-0.47,0.7-1.12,1.24-1.93,1.61s-1.72,0.6-2.71,0.66
				c0.46,0.24,0.9,0.68,1.34,1.32l1.86,2.74c0.41,0.62,0.77,1.03,1.09,1.24c0.32,0.2,0.75,0.31,1.28,0.31
				C35.7,233.68,36.16,233.55,36.59,233.29z M28.47,220.35h-2.52v5.82h2.32c1.39,0,2.44-0.23,3.17-0.7c0.73-0.46,1.09-1.2,1.09-2.21
				c0-0.93-0.33-1.65-1-2.15S29.84,220.35,28.47,220.35z"/>
			<path class="st4" d="M43.63,235.91c-1.92,0-3.44-0.55-4.55-1.64c-1.11-1.09-1.66-2.6-1.66-4.52c0-1.27,0.26-2.4,0.77-3.38
				c0.51-0.98,1.22-1.74,2.12-2.3s1.92-0.83,3.06-0.83c1.76,0,3.1,0.61,4.01,1.82c0.91,1.21,1.23,2.97,0.95,5.27h-8.54
				c0.05,1.11,0.42,1.97,1.11,2.58c0.69,0.61,1.66,0.92,2.9,0.92c0.6,0,1.19-0.13,1.75-0.4s1.05-0.67,1.46-1.21l1.42,1.37
				c-0.57,0.75-1.25,1.32-2.03,1.72C45.61,235.71,44.69,235.91,43.63,235.91z M43.39,225.05c-0.99,0-1.8,0.33-2.42,1
				c-0.62,0.67-0.99,1.51-1.13,2.52h6.46c0.05-1.24-0.2-2.14-0.75-2.69C45,225.33,44.28,225.05,43.39,225.05z"/>
			<path class="st4" d="M55.25,235.91c-1.6,0-2.83-0.32-3.69-0.95c-0.86-0.64-1.36-1.53-1.49-2.69l2.01-0.49
				c0.11,0.75,0.42,1.31,0.93,1.69c0.5,0.38,1.26,0.56,2.25,0.56c0.8,0,1.41-0.15,1.83-0.45c0.42-0.3,0.64-0.7,0.64-1.21
				c0-0.49-0.22-0.85-0.67-1.09c-0.45-0.24-1.14-0.44-2.07-0.62c-0.86-0.16-1.61-0.38-2.24-0.65c-0.63-0.27-1.11-0.64-1.46-1.1
				c-0.34-0.46-0.51-1.08-0.51-1.85c0-0.73,0.2-1.39,0.6-1.96c0.4-0.57,0.95-1.02,1.64-1.36c0.69-0.33,1.49-0.5,2.38-0.5
				c1.21,0,2.2,0.29,2.97,0.87c0.77,0.58,1.23,1.34,1.38,2.29l-1.93,0.51c-0.26-1.19-1.08-1.79-2.47-1.79
				c-0.72,0-1.28,0.17-1.69,0.5c-0.41,0.33-0.61,0.76-0.61,1.28c0,0.46,0.2,0.83,0.59,1.11s1.09,0.53,2.1,0.72
				c0.86,0.18,1.61,0.4,2.25,0.65c0.64,0.25,1.13,0.6,1.48,1.03c0.35,0.43,0.53,1.02,0.55,1.77c0,0.72-0.2,1.36-0.6,1.92
				c-0.4,0.56-0.96,1-1.68,1.32C57.03,235.75,56.19,235.91,55.25,235.91z"/>
			<path class="st4" d="M62.41,240.58v-17.14h2.37l-0.1,2.54c0.46-0.86,1.05-1.54,1.79-2.02c0.73-0.48,1.58-0.72,2.54-0.72
				c1.06,0,1.95,0.24,2.68,0.73s1.28,1.17,1.65,2.03c0.38,0.86,0.56,1.86,0.56,2.98c0,1.37-0.26,2.57-0.77,3.61
				c-0.51,1.04-1.22,1.85-2.13,2.43s-1.94,0.88-3.09,0.88c-0.69,0-1.3-0.13-1.86-0.4s-1-0.63-1.35-1.09l0.05,1.27v4.89H62.41z
				 M67.79,233.8c1.13,0,2.03-0.43,2.7-1.3c0.68-0.86,1.02-2,1.02-3.4c0-1.19-0.26-2.12-0.78-2.79c-0.52-0.67-1.22-1-2.1-1
				c-0.73,0-1.39,0.21-1.98,0.64c-0.59,0.42-1.05,1.01-1.39,1.76s-0.51,1.61-0.51,2.59c0,1.09,0.27,1.95,0.82,2.57
				S66.85,233.8,67.79,233.8z"/>
			<path class="st4" d="M82.35,223.24c1.74,0,3.12,0.55,4.13,1.64c1.01,1.09,1.52,2.57,1.52,4.43c0,1.26-0.25,2.38-0.76,3.38
				c-0.51,0.99-1.21,1.78-2.12,2.36s-1.96,0.87-3.17,0.87c-1.79,0-3.19-0.55-4.19-1.64c-1-1.09-1.5-2.58-1.5-4.45
				c0-1.26,0.25-2.38,0.75-3.38c0.5-0.99,1.2-1.78,2.12-2.35S81.11,223.24,82.35,223.24z M81.98,233.8c1.08,0,1.94-0.41,2.6-1.23
				s0.99-1.91,0.99-3.27c0-1.27-0.29-2.25-0.87-2.95s-1.37-1.04-2.38-1.04c-1.11,0-2,0.42-2.67,1.25c-0.67,0.83-1,1.92-1,3.25
				c0,1.27,0.29,2.25,0.88,2.95S80.94,233.8,81.98,233.8z"/>
			<path class="st4" d="M90.86,235.69v-12.25h2.35l-0.15,3.62c0.46-1.22,1.1-2.16,1.93-2.82c0.83-0.66,1.8-0.99,2.91-0.99
				c1.3,0,2.3,0.45,2.98,1.36c0.68,0.91,1.02,2.21,1,3.9l-0.05,7.19h-2.32l0.05-6.97c0.02-2.2-0.73-3.3-2.25-3.3
				c-0.8,0-1.5,0.31-2.12,0.93c-0.61,0.62-1.1,1.68-1.46,3.18c-0.36,1.5-0.55,3.55-0.56,6.16H90.86z"/>
			<path class="st4" d="M109.27,235.91c-1.6,0-2.83-0.32-3.69-0.95c-0.86-0.64-1.36-1.53-1.49-2.69l2.01-0.49
				c0.11,0.75,0.42,1.31,0.93,1.69c0.5,0.38,1.26,0.56,2.25,0.56c0.8,0,1.41-0.15,1.83-0.45c0.42-0.3,0.64-0.7,0.64-1.21
				c0-0.49-0.22-0.85-0.67-1.09c-0.45-0.24-1.14-0.44-2.07-0.62c-0.86-0.16-1.61-0.38-2.24-0.65c-0.63-0.27-1.11-0.64-1.46-1.1
				c-0.34-0.46-0.51-1.08-0.51-1.85c0-0.73,0.2-1.39,0.6-1.96c0.4-0.57,0.95-1.02,1.64-1.36c0.69-0.33,1.49-0.5,2.38-0.5
				c1.21,0,2.2,0.29,2.97,0.87c0.77,0.58,1.23,1.34,1.38,2.29l-1.93,0.51c-0.26-1.19-1.08-1.79-2.47-1.79
				c-0.72,0-1.28,0.17-1.69,0.5c-0.41,0.33-0.61,0.76-0.61,1.28c0,0.46,0.2,0.83,0.59,1.11s1.09,0.53,2.1,0.72
				c0.86,0.18,1.61,0.4,2.25,0.65c0.64,0.25,1.13,0.6,1.48,1.03c0.35,0.43,0.53,1.02,0.55,1.77c0,0.72-0.2,1.36-0.6,1.92
				c-0.4,0.56-0.96,1-1.68,1.32C111.05,235.75,110.22,235.91,109.27,235.91z"/>
			<path class="st4" d="M117.64,221.06c-0.47,0-0.85-0.15-1.13-0.45c-0.28-0.3-0.42-0.66-0.42-1.06c0-0.41,0.14-0.76,0.42-1.06
				s0.65-0.45,1.13-0.45s0.85,0.15,1.13,0.45s0.42,0.66,0.42,1.06c0,0.41-0.14,0.76-0.42,1.06
				C118.48,220.91,118.11,221.06,117.64,221.06z M118.76,223.43v12.25h-2.32v-12.25H118.76z"/>
			<path class="st4" d="M121.97,230.5v-2.1h6.97v2.1H121.97z"/>
			<path class="st4" d="M31.79,252.78h2.32l-4.7,12.25h-3.28l-3.94-12.25h2.52l3.18,10.37L31.79,252.78z"/>
			<path class="st4" d="M36.91,250.41c-0.47,0-0.85-0.15-1.13-0.45c-0.28-0.3-0.42-0.66-0.42-1.06c0-0.41,0.14-0.76,0.42-1.06
				s0.65-0.45,1.13-0.45s0.85,0.15,1.13,0.45s0.42,0.66,0.42,1.06c0,0.41-0.14,0.76-0.42,1.06
				C37.75,250.26,37.38,250.41,36.91,250.41z M38.03,252.78v12.25h-2.32v-12.25H38.03z"/>
			<path class="st4" d="M52.44,246.94v18.1h-2.4l0.1-2.52c-0.46,0.85-1.05,1.52-1.79,2.01c-0.73,0.49-1.57,0.73-2.52,0.73
				c-1.06,0-1.95-0.25-2.68-0.75c-0.73-0.5-1.28-1.18-1.65-2.04s-0.56-1.86-0.56-2.98c0-1.35,0.26-2.55,0.77-3.6
				c0.51-1.04,1.22-1.85,2.13-2.43c0.9-0.58,1.94-0.87,3.12-0.87c0.67,0,1.28,0.13,1.83,0.39c0.55,0.26,1,0.61,1.35,1.05l-0.05-1.25
				v-5.85H52.44z M47.06,254.67c-1.13,0-2.03,0.43-2.7,1.28s-1.01,1.98-1.01,3.39c0,1.21,0.26,2.14,0.78,2.81
				c0.52,0.67,1.22,1,2.1,1c0.73,0,1.39-0.21,1.98-0.64c0.59-0.42,1.05-1.02,1.39-1.77c0.34-0.76,0.51-1.63,0.51-2.6
				c0-1.08-0.27-1.92-0.82-2.54C48.75,254.98,48,254.67,47.06,254.67z"/>
			<path class="st4" d="M66.82,252.81v12.23h-2.4l0.1-2.52c-0.46,0.85-1.05,1.52-1.79,2.01c-0.73,0.49-1.57,0.73-2.52,0.73
				c-1.06,0-1.95-0.25-2.68-0.75c-0.73-0.5-1.28-1.18-1.65-2.04s-0.56-1.86-0.56-2.98c0-1.35,0.26-2.55,0.77-3.6
				c0.51-1.04,1.22-1.85,2.13-2.43c0.9-0.58,1.94-0.87,3.12-0.87c0.78,0,1.48,0.18,2.09,0.53c0.61,0.35,1.06,0.81,1.36,1.38
				l0.29-1.69H66.82z M61.44,254.67c-1.13,0-2.03,0.43-2.7,1.28s-1.01,1.98-1.01,3.39c0,1.21,0.26,2.14,0.78,2.81
				c0.52,0.67,1.22,1,2.1,1c0.73,0,1.39-0.21,1.98-0.64c0.59-0.42,1.05-1.02,1.39-1.77c0.34-0.76,0.51-1.63,0.51-2.6
				c0-1.08-0.27-1.92-0.82-2.54C63.13,254.98,62.38,254.67,61.44,254.67z"/>
			<path class="st4" d="M81.2,246.94v18.1h-2.4l0.1-2.52c-0.46,0.85-1.05,1.52-1.79,2.01c-0.73,0.49-1.57,0.73-2.52,0.73
				c-1.06,0-1.95-0.25-2.68-0.75c-0.73-0.5-1.28-1.18-1.65-2.04s-0.56-1.86-0.56-2.98c0-1.35,0.26-2.55,0.77-3.6
				c0.51-1.04,1.22-1.85,2.13-2.43c0.9-0.58,1.94-0.87,3.12-0.87c0.67,0,1.28,0.13,1.83,0.39c0.55,0.26,1,0.61,1.35,1.05l-0.05-1.25
				v-5.85H81.2z M75.82,254.67c-1.13,0-2.03,0.43-2.7,1.28s-1.01,1.98-1.01,3.39c0,1.21,0.26,2.14,0.78,2.81c0.52,0.67,1.22,1,2.1,1
				c0.73,0,1.39-0.21,1.98-0.64c0.59-0.42,1.05-1.02,1.39-1.77c0.34-0.76,0.51-1.63,0.51-2.6c0-1.08-0.27-1.92-0.82-2.54
				C77.51,254.98,76.76,254.67,75.82,254.67z"/>
			<path class="st4" d="M90.29,265.26c-1.92,0-3.44-0.55-4.55-1.64c-1.11-1.09-1.66-2.6-1.66-4.52c0-1.27,0.26-2.4,0.77-3.38
				c0.51-0.98,1.22-1.74,2.12-2.3s1.92-0.83,3.06-0.83c1.76,0,3.1,0.61,4.01,1.82c0.91,1.21,1.23,2.97,0.95,5.27h-8.54
				c0.05,1.11,0.42,1.97,1.11,2.58c0.69,0.61,1.66,0.92,2.9,0.92c0.6,0,1.19-0.13,1.75-0.4s1.05-0.67,1.46-1.21l1.42,1.37
				c-0.57,0.75-1.25,1.32-2.03,1.72C92.28,265.06,91.35,265.26,90.29,265.26z M90.05,254.4c-0.99,0-1.8,0.33-2.42,1
				c-0.62,0.67-0.99,1.51-1.13,2.52h6.46c0.05-1.24-0.2-2.14-0.75-2.69C91.67,254.67,90.95,254.4,90.05,254.4z"/>
		</g>
	</g>
	<g>
		<path class="st4" d="M206.11,253.37v-18.1h2.35v5.85l-0.1,2.59c0.46-0.88,1.05-1.57,1.79-2.05c0.73-0.49,1.59-0.73,2.57-0.73
			c1.06,0,1.95,0.24,2.68,0.73s1.28,1.17,1.65,2.03c0.38,0.86,0.56,1.86,0.56,2.98c0,1.37-0.26,2.57-0.77,3.61
			c-0.51,1.04-1.22,1.85-2.13,2.43s-1.94,0.88-3.09,0.88c-0.8,0-1.51-0.18-2.13-0.54s-1.07-0.83-1.35-1.42l-0.29,1.74H206.11z
			 M211.49,251.49c1.13,0,2.03-0.43,2.7-1.3c0.68-0.86,1.02-2,1.02-3.4c0-1.19-0.26-2.12-0.78-2.79c-0.52-0.67-1.22-1-2.1-1
			c-0.73,0-1.39,0.21-1.98,0.64c-0.59,0.42-1.05,1.01-1.39,1.76s-0.51,1.61-0.51,2.59c0,1.09,0.27,1.95,0.82,2.57
			S210.55,251.49,211.49,251.49z"/>
		<path class="st4" d="M231.45,241.15v12.23h-2.4l0.1-2.52c-0.46,0.85-1.05,1.52-1.79,2.01c-0.73,0.49-1.57,0.73-2.52,0.73
			c-1.06,0-1.95-0.25-2.68-0.75c-0.73-0.5-1.28-1.18-1.65-2.04s-0.56-1.86-0.56-2.98c0-1.35,0.26-2.55,0.77-3.6
			c0.51-1.04,1.22-1.85,2.13-2.43c0.9-0.58,1.94-0.87,3.12-0.87c0.78,0,1.48,0.18,2.09,0.53c0.61,0.35,1.06,0.81,1.36,1.38
			l0.29-1.69H231.45z M226.07,243.01c-1.13,0-2.03,0.43-2.7,1.28s-1.01,1.98-1.01,3.39c0,1.21,0.26,2.14,0.78,2.81
			c0.52,0.67,1.22,1,2.1,1c0.73,0,1.39-0.21,1.98-0.64c0.59-0.42,1.05-1.02,1.39-1.77c0.34-0.76,0.51-1.63,0.51-2.6
			c0-1.08-0.27-1.92-0.82-2.54C227.76,243.32,227.01,243.01,226.07,243.01z"/>
		<path class="st4" d="M236.07,238.75c-0.47,0-0.85-0.15-1.13-0.45c-0.28-0.3-0.42-0.66-0.42-1.06c0-0.41,0.14-0.76,0.42-1.06
			s0.65-0.45,1.13-0.45s0.85,0.15,1.13,0.45s0.42,0.66,0.42,1.06c0,0.41-0.14,0.76-0.42,1.06
			C236.92,238.6,236.54,238.75,236.07,238.75z M237.2,241.12v12.25h-2.32v-12.25H237.2z"/>
		<path class="st4" d="M241.67,253.37h-2.69l4.52-6.19l-4.3-6.07h2.84l2.91,4.11l2.96-4.11h2.69l-4.35,5.94l4.5,6.31h-2.86
			l-3.06-4.35L241.67,253.37z"/>
		<path class="st4" d="M263.02,241.15v12.23h-2.4l0.1-2.52c-0.46,0.85-1.05,1.52-1.79,2.01c-0.73,0.49-1.57,0.73-2.52,0.73
			c-1.06,0-1.95-0.25-2.68-0.75c-0.73-0.5-1.28-1.18-1.65-2.04s-0.56-1.86-0.56-2.98c0-1.35,0.26-2.55,0.77-3.6
			c0.51-1.04,1.22-1.85,2.13-2.43c0.9-0.58,1.94-0.87,3.12-0.87c0.78,0,1.48,0.18,2.09,0.53c0.61,0.35,1.06,0.81,1.36,1.38
			l0.29-1.69H263.02z M257.64,243.01c-1.13,0-2.03,0.43-2.7,1.28s-1.01,1.98-1.01,3.39c0,1.21,0.26,2.14,0.78,2.81
			c0.52,0.67,1.22,1,2.1,1c0.73,0,1.39-0.21,1.98-0.64c0.59-0.42,1.05-1.02,1.39-1.77c0.34-0.76,0.51-1.63,0.51-2.6
			c0-1.08-0.27-1.92-0.82-2.54C259.33,243.32,258.59,243.01,257.64,243.01z"/>
	</g>
	<g>
		<path class="st4" d="M389.74,253.37v-19.22h2.49v6.21l-0.1,2.75c0.48-0.94,1.12-1.66,1.9-2.18s1.69-0.78,2.73-0.78
			c1.13,0,2.07,0.26,2.84,0.78s1.35,1.24,1.75,2.16c0.4,0.92,0.6,1.97,0.6,3.17c0,1.45-0.27,2.73-0.82,3.83
			c-0.55,1.1-1.3,1.96-2.26,2.58c-0.96,0.62-2.06,0.94-3.29,0.94c-0.85,0-1.6-0.19-2.26-0.57c-0.66-0.38-1.13-0.88-1.43-1.51
			l-0.31,1.84H389.74z M395.45,251.37c1.19,0,2.15-0.46,2.87-1.38s1.08-2.12,1.08-3.61c0-1.26-0.28-2.25-0.83-2.96
			c-0.55-0.71-1.3-1.07-2.23-1.07c-0.78,0-1.48,0.23-2.1,0.68s-1.12,1.07-1.48,1.87c-0.36,0.8-0.55,1.71-0.55,2.75
			c0,1.16,0.29,2.07,0.87,2.73C393.65,251.04,394.45,251.37,395.45,251.37z"/>
		<path class="st4" d="M416.65,240.38v12.99h-2.55l0.1-2.68c-0.49,0.9-1.12,1.61-1.9,2.13s-1.67,0.78-2.68,0.78
			c-1.13,0-2.07-0.26-2.84-0.79c-0.77-0.53-1.35-1.25-1.75-2.17s-0.6-1.97-0.6-3.17c0-1.44,0.27-2.71,0.82-3.82
			c0.55-1.11,1.3-1.97,2.26-2.58c0.96-0.61,2.07-0.92,3.31-0.92c0.83,0,1.57,0.19,2.22,0.56c0.65,0.37,1.13,0.86,1.44,1.47
			l0.31-1.79H416.65z M410.93,242.36c-1.19,0-2.15,0.45-2.87,1.36c-0.72,0.91-1.08,2.11-1.08,3.6c0,1.28,0.28,2.28,0.83,2.99
			c0.55,0.71,1.3,1.06,2.23,1.06c0.78,0,1.48-0.22,2.1-0.68c0.62-0.45,1.12-1.08,1.48-1.88s0.55-1.73,0.55-2.77
			c0-1.14-0.29-2.04-0.87-2.7C412.73,242.69,411.94,242.36,410.93,242.36z"/>
		<path class="st4" d="M421.56,237.84c-0.5,0-0.9-0.16-1.19-0.48c-0.29-0.32-0.44-0.7-0.44-1.13c0-0.43,0.15-0.81,0.44-1.13
			c0.29-0.32,0.69-0.48,1.19-0.48c0.5,0,0.9,0.16,1.19,0.48c0.29,0.32,0.44,0.7,0.44,1.13c0,0.43-0.15,0.81-0.44,1.13
			C422.46,237.68,422.06,237.84,421.56,237.84z M422.75,240.36v13.01h-2.47v-13.01H422.75z"/>
		<path class="st4" d="M427.51,253.37h-2.86l4.81-6.57l-4.57-6.44h3.01l3.09,4.36l3.14-4.36h2.86l-4.62,6.31l4.78,6.7h-3.04
			l-3.25-4.62L427.51,253.37z"/>
		<path class="st4" d="M450.19,240.38v12.99h-2.55l0.1-2.68c-0.49,0.9-1.12,1.61-1.9,2.13s-1.67,0.78-2.68,0.78
			c-1.13,0-2.07-0.26-2.84-0.79c-0.77-0.53-1.35-1.25-1.75-2.17s-0.6-1.97-0.6-3.17c0-1.44,0.27-2.71,0.82-3.82
			c0.55-1.11,1.3-1.97,2.26-2.58c0.96-0.61,2.07-0.92,3.31-0.92c0.83,0,1.57,0.19,2.22,0.56c0.65,0.37,1.13,0.86,1.44,1.47
			l0.31-1.79H450.19z M444.47,242.36c-1.19,0-2.15,0.45-2.87,1.36c-0.72,0.91-1.08,2.11-1.08,3.6c0,1.28,0.28,2.28,0.83,2.99
			c0.55,0.71,1.3,1.06,2.23,1.06c0.78,0,1.48-0.22,2.1-0.68c0.62-0.45,1.12-1.08,1.48-1.88s0.55-1.73,0.55-2.77
			c0-1.14-0.29-2.04-0.87-2.7C446.27,242.69,445.47,242.36,444.47,242.36z"/>
	</g>
	<g>
		<path class="st4" d="M591.52,240.38v12.99h-2.55l0.1-2.68c-0.49,0.9-1.12,1.61-1.9,2.13s-1.67,0.78-2.68,0.78
			c-1.13,0-2.07-0.26-2.84-0.79c-0.77-0.53-1.36-1.25-1.75-2.17c-0.4-0.92-0.6-1.97-0.6-3.17c0-1.44,0.27-2.71,0.82-3.82
			c0.54-1.11,1.3-1.97,2.26-2.58s2.07-0.92,3.31-0.92c0.83,0,1.57,0.19,2.22,0.56c0.65,0.37,1.13,0.86,1.44,1.47l0.31-1.79H591.52z
			 M585.81,242.36c-1.2,0-2.15,0.45-2.87,1.36c-0.72,0.91-1.08,2.11-1.08,3.6c0,1.28,0.28,2.28,0.83,2.99
			c0.55,0.71,1.3,1.06,2.23,1.06c0.78,0,1.48-0.22,2.1-0.68c0.62-0.45,1.12-1.08,1.48-1.88c0.36-0.81,0.54-1.73,0.54-2.77
			c0-1.14-0.29-2.04-0.87-2.7C587.61,242.69,586.81,242.36,585.81,242.36z"/>
		<path class="st4" d="M598.64,253.61c-1.16,0-2.03-0.32-2.61-0.95c-0.58-0.63-0.87-1.49-0.87-2.58v-15.92h2.49v15.66
			c0,1.06,0.48,1.58,1.43,1.58c0.24,0,0.47-0.03,0.69-0.1c0.22-0.07,0.4-0.15,0.56-0.23l0.62,1.84c-0.24,0.21-0.58,0.38-1,0.51
			C599.53,253.54,599.09,253.61,598.64,253.61z"/>
		<path class="st4" d="M607.37,253.61c-1.54,0-2.71-0.41-3.52-1.23c-0.81-0.82-1.2-1.92-1.18-3.29l0.1-6.62h-2.26v-2.1h2.29
			l0.03-2.7h2.49l-0.05,2.7h4.42v2.1h-4.44l-0.08,6.42c0,0.76,0.2,1.37,0.6,1.83s1.01,0.69,1.84,0.69c0.4,0,0.77-0.05,1.12-0.14
			c0.35-0.09,0.71-0.29,1.09-0.58l0.75,1.95c-0.38,0.33-0.85,0.58-1.42,0.74C608.59,253.53,607.99,253.61,607.37,253.61z"/>
		<path class="st4" d="M623.5,240.38v12.99h-2.55l0.1-2.68c-0.49,0.9-1.12,1.61-1.9,2.13s-1.67,0.78-2.68,0.78
			c-1.13,0-2.07-0.26-2.84-0.79c-0.77-0.53-1.36-1.25-1.75-2.17c-0.4-0.92-0.6-1.97-0.6-3.17c0-1.44,0.27-2.71,0.82-3.82
			c0.54-1.11,1.3-1.97,2.26-2.58s2.07-0.92,3.31-0.92c0.83,0,1.57,0.19,2.22,0.56c0.65,0.37,1.13,0.86,1.44,1.47l0.31-1.79H623.5z
			 M617.79,242.36c-1.2,0-2.15,0.45-2.87,1.36c-0.72,0.91-1.08,2.11-1.08,3.6c0,1.28,0.28,2.28,0.83,2.99
			c0.55,0.71,1.3,1.06,2.23,1.06c0.78,0,1.48-0.22,2.1-0.68c0.62-0.45,1.12-1.08,1.48-1.88c0.36-0.81,0.54-1.73,0.54-2.77
			c0-1.14-0.29-2.04-0.87-2.7C619.59,242.69,618.79,242.36,617.79,242.36z"/>
	</g>
	<g>
		<path class="st4" d="M782.78,247.02v12.99h-2.55l0.1-2.68c-0.49,0.9-1.12,1.61-1.9,2.13s-1.67,0.78-2.68,0.78
			c-1.13,0-2.07-0.26-2.84-0.79c-0.77-0.53-1.36-1.25-1.75-2.17c-0.4-0.92-0.6-1.97-0.6-3.17c0-1.44,0.27-2.71,0.82-3.82
			c0.54-1.11,1.3-1.97,2.26-2.58s2.07-0.92,3.31-0.92c0.83,0,1.57,0.19,2.22,0.56c0.65,0.37,1.13,0.86,1.44,1.47l0.31-1.79H782.78z
			 M777.07,248.99c-1.2,0-2.15,0.45-2.87,1.36c-0.72,0.91-1.08,2.11-1.08,3.6c0,1.28,0.28,2.28,0.83,2.99
			c0.55,0.71,1.3,1.06,2.23,1.06c0.78,0,1.48-0.22,2.1-0.68c0.62-0.45,1.12-1.08,1.48-1.88c0.36-0.81,0.54-1.73,0.54-2.77
			c0-1.14-0.29-2.04-0.87-2.7C778.87,249.32,778.07,248.99,777.07,248.99z"/>
		<path class="st4" d="M789.9,260.24c-1.16,0-2.03-0.32-2.61-0.95c-0.58-0.63-0.87-1.49-0.87-2.58v-15.92h2.49v15.66
			c0,1.06,0.48,1.58,1.43,1.58c0.24,0,0.47-0.03,0.69-0.1c0.22-0.07,0.4-0.15,0.56-0.23l0.62,1.84c-0.24,0.21-0.58,0.38-1,0.51
			C790.79,260.18,790.35,260.24,789.9,260.24z"/>
		<path class="st4" d="M798.63,260.24c-1.54,0-2.71-0.41-3.52-1.23c-0.81-0.82-1.2-1.92-1.18-3.29l0.1-6.62h-2.26v-2.1h2.29
			l0.03-2.7h2.49l-0.05,2.7h4.42v2.1h-4.44l-0.08,6.42c0,0.76,0.2,1.37,0.6,1.83s1.01,0.69,1.84,0.69c0.4,0,0.77-0.05,1.12-0.14
			c0.35-0.09,0.71-0.29,1.09-0.58l0.75,1.95c-0.38,0.33-0.85,0.58-1.42,0.74C799.85,260.16,799.25,260.24,798.63,260.24z"/>
		<path class="st4" d="M814.76,247.02v12.99h-2.55l0.1-2.68c-0.49,0.9-1.12,1.61-1.9,2.13s-1.67,0.78-2.68,0.78
			c-1.13,0-2.07-0.26-2.84-0.79c-0.77-0.53-1.36-1.25-1.75-2.17c-0.4-0.92-0.6-1.97-0.6-3.17c0-1.44,0.27-2.71,0.82-3.82
			c0.54-1.11,1.3-1.97,2.26-2.58s2.07-0.92,3.31-0.92c0.83,0,1.57,0.19,2.22,0.56c0.65,0.37,1.13,0.86,1.44,1.47l0.31-1.79H814.76z
			 M809.05,248.99c-1.2,0-2.15,0.45-2.87,1.36c-0.72,0.91-1.08,2.11-1.08,3.6c0,1.28,0.28,2.28,0.83,2.99
			c0.55,0.71,1.3,1.06,2.23,1.06c0.78,0,1.48-0.22,2.1-0.68c0.62-0.45,1.12-1.08,1.48-1.88c0.36-0.81,0.54-1.73,0.54-2.77
			c0-1.14-0.29-2.04-0.87-2.7C810.85,249.32,810.05,248.99,809.05,248.99z"/>
	</g>
	<g>
		<g>
			<g>
				<rect x="151.31" y="102.12" class="st2" width="2.92" height="230.2"/>
			</g>
			<g>
				<g>
					<path class="st2" d="M837.42,335.24H82.58C37.04,335.24,0,298.19,0,252.66V99.2h920v153.46
						C920,298.19,882.96,335.24,837.42,335.24z M5.83,105.04v147.62c0,42.32,34.43,76.74,76.74,76.74h754.85
						c42.31,0,76.74-34.42,76.74-76.74V105.04H5.83z"/>
				</g>
				<g>
					<rect x="2.92" y="192.87" class="st2" width="914.17" height="2.92"/>
				</g>
				<g>
					<rect x="342.04" y="102.12" class="st2" width="2.92" height="230.2"/>
				</g>
				<g>
					<rect x="514.49" y="102.12" class="st2" width="2.92" height="230.2"/>
				</g>
				<g>
					<rect x="688.61" y="102.12" class="st2" width="2.92" height="230.2"/>
				</g>
			</g>
		</g>
	</g>
	<g>
		<path class="st3" d="M152.77,100.66c-0.23,0-0.46-0.05-0.67-0.16L10.8,27.23c-0.72-0.37-0.99-1.25-0.62-1.97
			c0.37-0.72,1.25-1,1.97-0.62l141.3,73.27c0.72,0.37,0.99,1.25,0.62,1.97C153.81,100.38,153.3,100.66,152.77,100.66z"/>
	</g>
</g>
<g id="Camada_2">
	<g>
	</g>
	<g>
	</g>
	<g>
	</g>
	<g>
	</g>
	<g>
	</g>
	<g>
	</g>
</g>
</svg>
