<?xml version="1.0" encoding="utf-8"?>
<!-- Generator: Adobe Illustrator 24.0.2, SVG Export Plug-In . SVG Version: 6.00 Build 0)  -->
<svg version="1.1" id="Camada_1" xmlns="http://www.w3.org/2000/svg" xmlns:xlink="http://www.w3.org/1999/xlink" x="0px" y="0px"
	 viewBox="0 0 540 74.59" style="enable-background:new 0 0 540 74.59;" xml:space="preserve">
<style type="text/css">
	.st0{fill:#F9EC6B;}
</style>
<g id="XMLID_98_">
	<path class="st0" d="M5.92,2.17c1.1,4.75,0.76,9.56,1.07,14.39c0.26,4.15,0.9,8.26,1.95,12.29c2.29,8.76,6.53,15.87,13.67,21.49
		c15.44,12.16,35.84,15.79,54.96,16.91c36.35,2.12,72.78,1.56,109.15,0.53c31.61-0.89,64.53-2.11,96.64-3.04
		c61.53-1.77,124.28,1.41,186.26,1.57c20.75,0.05,41.51,0.1,62.26,0.19c1.73,0.01,3.46,0.01,5.19,0.02c3.89,0.03,3.9,6.08,0,6.05
		c-3.97-0.03-7.93-0.05-11.9-0.07c-130.98-0.76-262.99-4.85-394.06,0.76c-35.15,1.51-77.87,5.59-108.68-15.59
		C13.91,51.81,7.83,44.6,4.42,34.78c-1.56-4.51-2.5-9.2-3.08-13.93C0.65,15.21,1.38,9.31,0.09,3.77C-0.79-0.01,5.04-1.63,5.92,2.17z
		"/>
</g>
</svg>
