<?xml version="1.0" encoding="utf-8"?>
<!-- Generator: Adobe Illustrator 24.0.2, SVG Export Plug-In . SVG Version: 6.00 Build 0)  -->
<svg version="1.1" id="Camada_1" xmlns="http://www.w3.org/2000/svg" xmlns:xlink="http://www.w3.org/1999/xlink" x="0px" y="0px"
	 viewBox="0 0 539.7 472.51" style="enable-background:new 0 0 539.7 472.51;" xml:space="preserve">
<style type="text/css">
	.st0{fill:#BC000D;}
	.st1{fill:#FFFFFF;}
</style>
<g>
	<path class="st0" d="M270.27,472.47c-82.32,0-164.64-0.03-246.95,0.04c-7.92,0.01-14.66-2.21-19.3-8.81
		c-5.1-7.26-5.29-14.98-0.89-22.67C21.4,409.1,39.7,377.2,58.01,345.29c34.37-59.91,68.75-119.83,103.13-179.73
		c29.34-51.12,59.08-102.03,87.83-153.49c8.72-15.61,29.52-16.67,39.25,0.24c62.74,109,126.07,217.68,189.21,326.45
		c19.51,33.62,39.06,67.22,58.58,100.83c9.4,16.18-0.04,32.81-18.79,32.83c-82.32,0.05-164.64,0.02-246.95,0.02
		C270.27,472.45,270.27,472.46,270.27,472.47z M261.34,256.76c-0.13-0.58-0.39-1.83-0.7-3.07c-5.86-23.84-11.84-47.65-17.49-71.53
		c-1.12-4.74-3.8-5.72-7.69-4.73c-24.73,6.29-49.42,12.72-74.13,19.06c-3.64,0.93-5.31,3.43-4.43,6.74
		c0.54,2.05,2.41,4.04,4.18,5.43c3.43,2.7,4.57,5.23,2.03,9.38c-21.08,34.55-42.02,69.18-62.99,103.8
		c-24.38,40.24-48.76,80.47-73.1,120.73c-3.77,6.23-1.22,10.7,6.04,10.7c32.15,0.02,64.31-0.04,96.46,0.07
		c4,0.01,6.52-1.31,8.55-4.82c34.99-60.47,70.11-120.86,105.1-181.33c2.38-4.11,4.83-5.86,9.69-4
		C257.16,264.82,261.21,261.75,261.34,256.76z M458.42,453.27c15.75,0,31.5,0.14,47.24-0.13c2.71-0.05,6.11-1.08,7.91-2.92
		c2.67-2.72,0.46-5.9-1.26-8.72c-44.94-74.13-89.86-148.27-134.78-222.41c-3.48-5.75-3.07-6.62,2.18-11.15
		c1.76-1.52,3.44-4.72,3.04-6.73c-0.39-1.98-3.2-4.17-5.41-4.97c-5.11-1.84-10.5-2.9-15.78-4.25c-18.65-4.77-37.3-9.54-55.96-14.28
		c-5.13-1.31-7.58-0.28-8.64,3.99c-6.1,24.43-12.16,48.87-18.12,73.34c-1.44,5.92,2.89,10.07,8.59,8.06
		c4.45-1.57,6.82-0.17,8.99,3.63c10.45,18.25,21.05,36.41,31.61,54.59c24.5,42.2,49.04,84.38,73.45,126.64
		c2.3,3.99,5.11,5.48,9.69,5.41C426.92,453.12,442.67,453.27,458.42,453.27z M269.01,89.26c-6.87-7.18-15.79-11.03-26.43-8.82
		c-20.23,4.21-30.69,27.13-21.92,46.88c9.74,21.91,26.96,36.35,47.12,47.92c1.11,0.64,3.23,0.62,4.36-0.02
		c15.96-9.05,30.27-20.07,40.46-35.65c5.88-8.99,10.04-18.53,9.5-29.72c-0.93-19.39-18.9-33.78-37.17-28.82
		C279.57,82.48,274.81,86.18,269.01,89.26z"/>
	<path class="st1" d="M261.34,256.76c-0.13,5-4.18,8.06-8.49,6.42c-4.86-1.86-7.31-0.11-9.69,4
		c-34.99,60.47-70.1,120.86-105.1,181.33c-2.03,3.52-4.55,4.84-8.55,4.82c-32.15-0.11-64.31-0.05-96.46-0.07
		c-7.25,0-9.8-4.47-6.04-10.7c24.34-40.26,48.73-80.49,73.1-120.73c20.97-34.61,41.91-69.25,62.99-103.8
		c2.53-4.15,1.4-6.68-2.03-9.38c-1.77-1.39-3.64-3.37-4.18-5.43c-0.88-3.32,0.79-5.81,4.43-6.74c24.71-6.34,49.41-12.77,74.13-19.06
		c3.89-0.99,6.57-0.01,7.69,4.73c5.65,23.89,11.63,47.7,17.49,71.53C260.95,254.93,261.21,256.18,261.34,256.76z M154.1,366.21
		c-6.77-4.11-13.12-7.95-20.31-12.32c6.37,0,11.87,0,18.15,0c-2.56-5.73-4.81-10.76-7.35-16.46c6.7,4.25,12.81,8.14,19.31,12.27
		c2.13-3.42,4.11-6.6,6.42-10.31c-11.95-6.8-23.45-13.34-34.88-19.84c-6.6,7.69-6.67,8.18-2.57,16.09c1.53,2.94,3.06,5.88,5,9.6
		c-4.07,0-7.38,0-10.69,0c-8.6-0.01-9.85,0.94-12.68,9.94c10.83,6.8,21.75,13.65,32.89,20.63
		C149.7,372.51,151.69,369.67,154.1,366.21z M193.71,265.26c-0.1-0.36-0.39-1.76-0.87-3.11c-2.81-7.84-13.37-11.21-18.61-5.3
		c-5.42,6.12-9.62,13.34-14.59,20.42c12.29,7.52,23.45,14.35,35.02,21.42c1.98-3.65,3.76-6.92,5.6-10.32
		c-4.45-2.85-8.31-5.33-12.79-8.2c6.64-5.71,12.04-0.68,18.03,0.72c1.96-3.38,3.99-6.87,6.55-11.29
		C205.55,268.07,199.93,266.74,193.71,265.26z M186.54,309.6c-0.88-2.52-1.25-5.4-2.73-7.5c-5.53-7.89-13.19-12.75-22.93-12.9
		c-3.18-0.05-7.42,1.37-9.41,3.65c-9.72,11.19-12.02,20.3,2.59,30.23c1.98,1.34,4.1,2.54,6.3,3.47
		C172.84,331.82,185.59,323.45,186.54,309.6z M132.62,401.43c-5.03-4.96-4.93-6.11,0.63-13.57c7.24,1.43,9.5-0.21,12.07-9.13
		c-13.41-3.43-26.8-6.85-40.32-10.31c-2.64,4.67-5.06,8.96-7.58,13.42c9.53,10.13,18.91,20.11,28.72,30.54
		C128.52,408.38,130.52,404.99,132.62,401.43z"/>
	<path class="st1" d="M458.42,453.27c-15.75,0-31.5-0.15-47.24,0.09c-4.58,0.07-7.39-1.43-9.69-5.41
		c-24.4-42.26-48.95-84.44-73.45-126.64c-10.56-18.19-21.16-36.35-31.61-54.59c-2.17-3.79-4.54-5.2-8.99-3.63
		c-5.7,2.01-10.03-2.14-8.59-8.06c5.95-24.47,12.01-48.91,18.12-73.34c1.07-4.27,3.51-5.3,8.64-3.99
		c18.66,4.75,37.31,9.52,55.96,14.28c5.28,1.35,10.67,2.41,15.78,4.25c2.21,0.8,5.02,2.99,5.41,4.97c0.4,2.01-1.28,5.21-3.04,6.73
		c-5.24,4.52-5.66,5.4-2.18,11.15c44.92,74.14,89.84,148.29,134.78,222.41c1.71,2.82,3.92,6,1.26,8.72c-1.8,1.84-5.2,2.87-7.91,2.92
		C489.92,453.4,474.17,453.27,458.42,453.27z M376.92,301.86c-2.62,5.23-4.94,9.85-7.71,15.39c6.32,0,11.62,0,18.18,0
		c-7,4.3-12.8,7.86-18.86,11.59c2.02,3.32,3.74,6.13,5.7,9.36c11.05-6.81,21.63-13.34,32.11-19.8c-2.3-6.98-5.77-11.32-13.62-9.87
		c-2.97,0.55-6.13,0.09-9.93,0.09c2.1-3.87,3.57-6.7,5.15-9.47c3.88-6.82,3.64-8.85-2.03-15.11c-10.76,6.16-21.56,12.35-32.82,18.8
		c2.1,3.46,3.87,6.36,5.74,9.44C365.07,308.68,370.71,305.44,376.92,301.86z M416.48,393.27c2.34-1.07,4.04-1.85,5.91-2.71
		c2.71,3.87,5.25,7.49,7.9,11.27c2.28-1.35,4.16-2.46,6.22-3.67c-2.51-4.34-4.79-8.28-7.28-12.58c2.6-1.07,4.59-1.9,6.69-2.77
		c1.65,2.78,3.07,5.1,4.41,7.46c3.72,6.56,3.71,6.57,10.5,1.67c-4.64-7.71-9.3-15.46-14.08-23.4
		c-11.44,6.54-22.37,12.79-33.53,19.16c5,8.6,9.66,16.62,14.44,24.86c2.66-1.69,4.89-3.12,7.37-4.69
		C422.15,402.91,419.49,398.39,416.48,393.27z M427.64,409.77c-1.92,3.26-8.01,2.28-6.06,7.26c2.02,5.14,4.71,10.2,8,14.62
		c3.6,4.83,8.26,5.4,13.3,2.98c4.95-2.37,7.63-7.18,6.89-12.58c-0.37-2.69-1.26-5.34-1.35-8.03c-0.04-1.25,1.25-2.54,1.93-3.82
		c1.11,0.69,2.73,1.12,3.24,2.12c1.8,3.54,3.22,7.28,4.97,11.37c2.51-1.57,4.85-3.04,7.7-4.83c-2.78-5.22-4.93-10.27-7.97-14.72
		c-3.55-5.2-8.75-6.57-13.44-4.53c-5.08,2.22-8.17,7.61-7.46,13.32c0.27,2.21,1.21,4.38,1.27,6.58c0.05,1.58-0.85,3.19-1.32,4.78
		c-1.54-0.88-3.74-1.38-4.49-2.7C430.91,418.16,429.6,414.37,427.64,409.77z M419.46,338.6c-2.8,1.78-5.04,3.21-7.33,4.67
		c1.58,3.17,2.91,5.85,4.36,8.76c-8.35,5.21-16.46,10.26-24.77,15.44c2,3.64,3.73,6.81,5.63,10.26c8.99-5.28,17.37-10.2,25.85-15.17
		c1.85,2.67,3.48,5,5.22,7.5c2.42-0.97,4.58-1.83,7.19-2.88C430.14,357.48,424.95,348.31,419.46,338.6z M342.29,267.03
		c8.57-5.02,16.67-9.75,24.9-14.56c-2.05-3.69-3.81-6.84-5.73-10.29c-11.41,6.85-22.2,13.34-33.43,20.08
		c3.27,4.96,6.22,9.49,9.22,13.99c3.7,5.56,5.07,5.76,11.12,1.55C346.43,274.37,344.48,270.91,342.29,267.03z M411.73,325.05
		c-11.59,6.98-22.48,13.55-33.59,20.24c2.13,3.75,3.91,6.88,5.83,10.28c11.37-6.85,22.26-13.41,33.31-20.07
		C415.27,331.72,413.64,328.65,411.73,325.05z M342.42,286.42c2.47,3.39,4.59,6.31,6.81,9.37c11.01-6.49,21.59-12.73,32.46-19.14
		c-2.01-3.61-3.76-6.76-5.74-10.31C364.64,273.1,353.83,279.58,342.42,286.42z"/>
	<path class="st1" d="M269.01,89.26c5.8-3.08,10.55-6.78,15.92-8.24c18.28-4.95,36.24,9.44,37.17,28.82
		c0.54,11.2-3.62,20.73-9.5,29.72c-10.19,15.58-24.5,26.6-40.46,35.65c-1.13,0.64-3.25,0.66-4.36,0.02
		c-20.16-11.57-37.38-26.01-47.12-47.92c-8.78-19.75,1.69-42.67,21.92-46.88C253.22,78.23,262.15,82.08,269.01,89.26z"/>
	<path class="st0" d="M154.1,366.21c-2.42,3.47-4.4,6.31-6.71,9.62c-11.14-6.99-22.06-13.84-32.89-20.63
		c2.83-9,4.08-9.95,12.68-9.94c3.31,0,6.61,0,10.69,0c-1.93-3.71-3.47-6.65-5-9.6c-4.1-7.92-4.03-8.4,2.57-16.09
		c11.43,6.5,22.93,13.04,34.88,19.84c-2.31,3.7-4.29,6.89-6.42,10.31c-6.5-4.13-12.61-8.01-19.31-12.27
		c2.55,5.7,4.79,10.73,7.35,16.46c-6.28,0-11.78,0-18.15,0C140.99,358.25,147.33,362.1,154.1,366.21z"/>
	<path class="st0" d="M193.71,265.26c6.22,1.47,11.84,2.8,18.33,4.34c-2.56,4.42-4.58,7.91-6.55,11.29
		c-5.99-1.4-11.39-6.43-18.03-0.72c4.48,2.87,8.34,5.35,12.79,8.2c-1.84,3.4-3.62,6.67-5.6,10.32
		c-11.57-7.08-22.73-13.9-35.02-21.42c4.97-7.08,9.17-14.29,14.59-20.42c5.24-5.92,15.81-2.54,18.61,5.3
		C193.32,263.5,193.61,264.91,193.71,265.26z M172.59,270.89c3.25,2.01,6.26,3.86,9.27,5.72c3.36-5.43,3.2-8.16-0.32-10.34
		C176.5,263.16,175.31,267.77,172.59,270.89z"/>
	<path class="st0" d="M186.54,309.6c-0.95,13.85-13.7,22.22-26.18,16.95c-2.2-0.93-4.33-2.12-6.3-3.47
		c-14.61-9.93-12.31-19.05-2.59-30.23c1.99-2.28,6.23-3.7,9.41-3.65c9.74,0.15,17.4,5.01,22.93,12.9
		C185.29,304.2,185.66,307.08,186.54,309.6z M157.97,298.96c-1.19,0.9-3.13,1.65-3.67,2.97c-0.61,1.51-0.69,4.49,0.23,5.17
		c5.08,3.73,10.44,7.11,15.95,10.19c0.96,0.54,3.74-0.48,4.44-1.57c0.86-1.34,1.22-4.07,0.41-5.24
		C171.27,304.6,165.22,301.41,157.97,298.96z"/>
	<path class="st0" d="M132.62,401.43c-2.1,3.56-4.1,6.95-6.47,10.96c-9.82-10.44-19.2-20.41-28.72-30.54
		c2.52-4.46,4.94-8.75,7.58-13.42c13.52,3.45,26.91,6.88,40.32,10.31c-2.57,8.91-4.83,10.56-12.07,9.13
		C127.69,395.32,127.59,396.47,132.62,401.43z M120.88,392.5c1.87-3.42,2.97-5.42,4.17-7.61c-5.56-2.06-10.57-3.92-15.58-5.78
		c-0.17,0.26-0.35,0.52-0.52,0.78C112.65,383.81,116.36,387.73,120.88,392.5z"/>
	<path class="st0" d="M376.92,301.86c-6.21,3.57-11.85,6.81-18.08,10.4c-1.87-3.08-3.64-5.98-5.74-9.44
		c11.25-6.45,22.06-12.63,32.82-18.8c5.67,6.26,5.91,8.3,2.03,15.11c-1.58,2.77-3.05,5.6-5.15,9.47c3.81,0,6.96,0.46,9.93-0.09
		c7.85-1.44,11.32,2.89,13.62,9.87c-10.48,6.46-21.06,12.99-32.11,19.8c-1.97-3.23-3.68-6.04-5.7-9.36
		c6.06-3.73,11.86-7.29,18.86-11.59c-6.56,0-11.86,0-18.18,0C371.98,311.72,374.3,307.1,376.92,301.86z"/>
	<path class="st0" d="M416.48,393.27c3.01,5.12,5.66,9.65,8.57,14.59c-2.48,1.58-4.71,3-7.37,4.69
		c-4.79-8.24-9.45-16.26-14.44-24.86c11.16-6.38,22.09-12.63,33.53-19.16c4.78,7.94,9.44,15.69,14.08,23.4
		c-6.8,4.9-6.78,4.89-10.5-1.67c-1.34-2.36-2.76-4.67-4.41-7.46c-2.11,0.87-4.1,1.69-6.69,2.77c2.49,4.3,4.76,8.23,7.28,12.58
		c-2.05,1.21-3.94,2.33-6.22,3.67c-2.65-3.79-5.19-7.41-7.9-11.27C420.52,391.42,418.82,392.2,416.48,393.27z"/>
	<path class="st0" d="M427.64,409.77c1.96,4.59,3.27,8.39,5.22,11.83c0.75,1.32,2.95,1.83,4.49,2.7c0.47-1.6,1.37-3.2,1.32-4.78
		c-0.07-2.2-1-4.36-1.27-6.58c-0.71-5.71,2.38-11.1,7.46-13.32c4.68-2.05,9.88-0.67,13.44,4.53c3.04,4.45,5.2,9.5,7.97,14.72
		c-2.85,1.79-5.19,3.26-7.7,4.83c-1.75-4.1-3.17-7.83-4.97-11.37c-0.51-1-2.13-1.43-3.24-2.12c-0.69,1.27-1.98,2.57-1.93,3.82
		c0.09,2.69,0.98,5.34,1.35,8.03c0.75,5.41-1.94,10.21-6.89,12.58c-5.04,2.42-9.7,1.85-13.3-2.98c-3.3-4.42-5.99-9.48-8-14.62
		C419.62,412.05,425.71,413.03,427.64,409.77z"/>
	<path class="st0" d="M419.46,338.6c5.49,9.71,10.67,18.88,16.16,28.59c-2.62,1.05-4.77,1.91-7.19,2.88
		c-1.74-2.5-3.36-4.84-5.22-7.5c-8.48,4.98-16.86,9.9-25.85,15.17c-1.9-3.46-3.63-6.62-5.63-10.26
		c8.32-5.19,16.42-10.24,24.77-15.44c-1.45-2.91-2.79-5.59-4.36-8.76C414.43,341.81,416.67,340.38,419.46,338.6z"/>
	<path class="st0" d="M342.29,267.03c2.19,3.87,4.14,7.33,6.08,10.78c-6.05,4.2-7.43,4.01-11.12-1.55c-3-4.5-5.95-9.03-9.22-13.99
		c11.23-6.75,22.03-13.23,33.43-20.08c1.92,3.44,3.67,6.6,5.73,10.29C358.96,257.28,350.87,262.02,342.29,267.03z"/>
	<path class="st0" d="M411.73,325.05c1.91,3.6,3.54,6.67,5.55,10.44c-11.05,6.66-21.94,13.22-33.31,20.07
		c-1.93-3.39-3.7-6.53-5.83-10.28C389.24,338.6,400.13,332.04,411.73,325.05z"/>
	<path class="st0" d="M342.42,286.42c11.41-6.84,22.23-13.31,33.54-20.09c1.98,3.55,3.73,6.7,5.74,10.31
		c-10.87,6.41-21.46,12.65-32.46,19.14C347.01,292.73,344.89,289.81,342.42,286.42z"/>
	<path class="st1" d="M172.59,270.89c2.72-3.11,3.92-7.73,8.94-4.62c3.52,2.18,3.68,4.91,0.32,10.34
		C178.84,274.75,175.83,272.89,172.59,270.89z"/>
	<path class="st1" d="M157.97,298.96c7.24,2.44,13.3,5.64,17.36,11.52c0.81,1.17,0.45,3.9-0.41,5.24c-0.7,1.09-3.48,2.11-4.44,1.57
		c-5.5-3.08-10.87-6.46-15.95-10.19c-0.92-0.67-0.85-3.66-0.23-5.17C154.84,300.61,156.78,299.87,157.97,298.96z"/>
	<path class="st1" d="M120.88,392.5c-4.52-4.77-8.23-8.69-11.94-12.61c0.17-0.26,0.35-0.52,0.52-0.78
		c5.01,1.86,10.02,3.72,15.58,5.78C123.84,387.09,122.75,389.08,120.88,392.5z"/>
</g>
</svg>
