<?xml version="1.0" encoding="utf-8"?>
<!-- Generator: Adobe Illustrator 24.0.2, SVG Export Plug-In . SVG Version: 6.00 Build 0)  -->
<svg version="1.1" id="Camada_1" xmlns="http://www.w3.org/2000/svg" xmlns:xlink="http://www.w3.org/1999/xlink" x="0px" y="0px"
	 viewBox="0 0 500 512.58" style="enable-background:new 0 0 500 512.58;" xml:space="preserve">
<style type="text/css">
	.st0{fill:#DBA723;}
	.st1{fill:#EDE1AE;}
	.st2{enable-background:new    ;}
	.st3{fill:#3D3D3D;}
	.st4{fill:#FFFFFF;}
</style>
<g id="Camada_1_1_">
</g>
<g id="Camada_2_1_">
</g>
<g id="Camada_3">
</g>
<g id="Camada_5">
</g>
<g id="Camada_4">
	<path class="st0" d="M265.43,250.8v-15.17l25.51,21.05l-25.51,24.78V266.4c-3.79-0.31-7.56-0.81-11.28-1.32
		c-8.98-1.25-17.45-2.43-25.94-0.9c-0.3,0.05-1.2,0.22-1.45,0.45l-4.37-13.41c1.7-1.84,3.46-2.29,4.98-2.56
		c3.14-0.57,6.29-0.79,9.42-0.79c6.07,0,12.11,0.84,18.01,1.66C258.41,250.04,261.94,250.5,265.43,250.8z"/>
	<g>
		<g>
			<g>
				<path class="st1" d="M197.98,105.57c0,32.93-12.13,61.6-44.02,75.13c-22.73,9.65-48.34,9.57-72.95,7.5
					c-11.1-0.93-22.48-2.33-32.27-7.64C7.36,158.13-0.13,81.75,27.9,47.2c6.64-8.18,15.68-14.04,24.92-19.09
					c32.65-17.88,70.11-21.28,102.42-0.59C181.64,44.42,197.98,74.21,197.98,105.57z"/>
			</g>
		</g>
	</g>
	<g>
		<g>
			<path class="st0" d="M96.01,180.61c-8.28,0-16.38-0.5-24.06-1.14c-11.13-0.94-22.87-2.32-33.19-7.92
				c-17.94-9.72-31.21-30.33-36.42-56.54c-6.01-30.25-0.17-61.79,14.89-80.36c7.26-8.95,17.02-14.97,25.61-19.67
				C79.01-4.82,117.21-5,147.63,14.48c27.03,17.31,43.82,47.97,43.82,80.03c0,37.94-15.71,64.67-45.45,77.28
				C129.93,178.61,112.61,180.61,96.01,180.61z M97.87,4.49c-17.13,0-35.01,4.87-52.79,14.61c-8.19,4.48-17.47,10.19-24.23,18.52
				C6.63,55.14,1.17,85.16,6.92,114.11c4.94,24.84,17.35,44.28,34.06,53.34c9.53,5.17,20.72,6.47,31.35,7.37
				c22.53,1.89,48.69,2.5,71.84-7.33c35.21-14.94,42.6-47.93,42.6-72.98c0-30.48-15.96-59.63-41.66-76.09
				C130.6,9.13,114.59,4.49,97.87,4.49z"/>
		</g>
	</g>
	<g>
		<g class="st2">
			<path class="st3" d="M53.36,85.22h-2.38V71.94h4.68c1.72,0,3.04,0.35,3.95,1.05c0.91,0.7,1.37,1.71,1.37,3.03
				c0,1.33-0.49,2.38-1.48,3.13c-0.99,0.75-2.42,1.13-4.3,1.13h-1.83V85.22z M55.57,73.93h-2.21v4.36h1.96
				c1.12,0,1.94-0.18,2.45-0.54c0.51-0.36,0.77-0.92,0.77-1.68s-0.24-1.31-0.72-1.64C57.35,74.09,56.59,73.93,55.57,73.93z"/>
			<path class="st3" d="M68.57,77.99c-0.25-0.09-0.57-0.13-0.95-0.13c-0.67,0-1.22,0.25-1.63,0.74c-0.41,0.49-0.71,1.28-0.91,2.36
				c-0.19,1.08-0.29,2.5-0.29,4.27h-2.26v-6.1l-0.02-3.35h2.28l-0.11,2.64c0.32-1.01,0.78-1.73,1.36-2.15
				c0.58-0.42,1.2-0.64,1.86-0.64c0.2,0,0.39,0.01,0.56,0.04c0.17,0.03,0.34,0.06,0.49,0.11L68.57,77.99z"/>
			<path class="st3" d="M74.15,75.63c1.41,0,2.52,0.42,3.32,1.26c0.8,0.84,1.21,1.98,1.21,3.41c0,0.97-0.2,1.84-0.61,2.61
				c-0.41,0.77-0.98,1.37-1.71,1.81c-0.74,0.44-1.59,0.66-2.56,0.66c-1.41,0-2.52-0.42-3.32-1.25c-0.8-0.83-1.21-1.98-1.21-3.42
				c0-0.97,0.2-1.84,0.61-2.61c0.4-0.77,0.97-1.37,1.7-1.82C72.3,75.85,73.16,75.63,74.15,75.63z M73.87,83.39
				c0.74,0,1.33-0.28,1.78-0.84c0.45-0.56,0.67-1.31,0.67-2.25c0-0.85-0.2-1.5-0.59-1.96c-0.39-0.46-0.93-0.69-1.62-0.69
				c-0.76,0-1.37,0.28-1.81,0.84c-0.45,0.56-0.67,1.3-0.67,2.23c0,0.85,0.2,1.51,0.59,1.97C72.6,83.16,73.15,83.39,73.87,83.39z"/>
			<path class="st3" d="M84.06,89.15c-0.55,0-1.14-0.06-1.77-0.17s-1.15-0.3-1.56-0.56l0.56-1.98c0.41,0.21,0.86,0.38,1.34,0.5
				c0.48,0.13,0.99,0.19,1.54,0.19c1.11,0,1.9-0.26,2.36-0.79c0.46-0.52,0.72-1.35,0.77-2.47l0.04-0.58
				c-0.35,0.59-0.79,1.03-1.32,1.34c-0.53,0.31-1.15,0.46-1.86,0.46c-0.85,0-1.57-0.18-2.16-0.54c-0.59-0.36-1.04-0.87-1.34-1.51
				s-0.45-1.39-0.45-2.23c0-1.01,0.2-1.9,0.61-2.68c0.4-0.78,0.97-1.39,1.68-1.83c0.72-0.44,1.54-0.66,2.48-0.66
				c0.62,0,1.17,0.13,1.63,0.38c0.46,0.26,0.82,0.6,1.07,1.02l0.22-1.22h1.67v7.78c0,1.86-0.49,3.25-1.46,4.17
				C87.13,88.69,85.78,89.15,84.06,89.15z M85.15,77.65c-0.79,0-1.41,0.28-1.88,0.84c-0.47,0.56-0.7,1.29-0.7,2.17
				c0,0.77,0.18,1.37,0.54,1.8c0.36,0.42,0.85,0.64,1.48,0.64c0.51,0,0.97-0.14,1.38-0.42c0.41-0.28,0.73-0.66,0.96-1.15
				s0.36-1.04,0.36-1.65c0-0.7-0.19-1.24-0.58-1.64C86.31,77.84,85.79,77.65,85.15,77.65z"/>
			<path class="st3" d="M98.05,77.99c-0.25-0.09-0.57-0.13-0.95-0.13c-0.67,0-1.22,0.25-1.63,0.74c-0.41,0.49-0.71,1.28-0.91,2.36
				c-0.19,1.08-0.29,2.5-0.29,4.27h-2.26v-6.1l-0.02-3.35h2.28l-0.11,2.64c0.32-1.01,0.78-1.73,1.36-2.15
				c0.58-0.42,1.2-0.64,1.86-0.64c0.2,0,0.39,0.01,0.56,0.04c0.17,0.03,0.34,0.06,0.49,0.11L98.05,77.99z"/>
			<path class="st3" d="M108.02,75.82v9.41h-2.32l0.07-1.65c-0.34,0.57-0.78,1.02-1.32,1.34s-1.16,0.48-1.86,0.48
				c-0.82,0-1.52-0.19-2.1-0.57c-0.57-0.38-1.01-0.91-1.31-1.58c-0.3-0.67-0.45-1.45-0.45-2.32c0-1.05,0.21-1.97,0.62-2.76
				s0.98-1.41,1.69-1.86c0.72-0.45,1.52-0.67,2.42-0.67c0.6,0,1.13,0.13,1.59,0.38c0.46,0.26,0.82,0.6,1.07,1.02l0.22-1.22H108.02z
				 M103.65,77.65c-0.77,0-1.39,0.29-1.85,0.88c-0.46,0.59-0.69,1.35-0.69,2.3c0,0.81,0.17,1.44,0.52,1.89
				c0.35,0.45,0.83,0.67,1.44,0.67c0.5,0,0.95-0.14,1.36-0.43c0.4-0.29,0.73-0.69,0.96-1.2c0.24-0.51,0.36-1.1,0.36-1.76
				c0-0.74-0.19-1.31-0.56-1.73C104.81,77.86,104.29,77.65,103.65,77.65z"/>
			<path class="st3" d="M110.45,85.22v-9.45h2.28l-0.11,2.32c0.39-0.86,0.89-1.49,1.51-1.88s1.28-0.59,1.99-0.59
				c0.69,0,1.29,0.19,1.81,0.56c0.52,0.37,0.9,0.96,1.12,1.76c0.4-0.79,0.93-1.37,1.58-1.75c0.65-0.38,1.33-0.57,2.03-0.57
				c1.05,0,1.84,0.37,2.38,1.09s0.81,1.77,0.79,3.13l-0.04,5.37h-2.28l0.04-5.29c0-0.69-0.13-1.22-0.37-1.6
				c-0.25-0.38-0.64-0.57-1.16-0.57c-0.36,0-0.71,0.12-1.04,0.35c-0.33,0.23-0.62,0.63-0.88,1.19s-0.46,1.33-0.61,2.29
				c-0.15,0.97-0.23,2.18-0.24,3.64H117v-5.29c0-0.69-0.12-1.22-0.36-1.6c-0.24-0.38-0.62-0.57-1.14-0.57
				c-0.36,0-0.71,0.12-1.04,0.35c-0.33,0.23-0.62,0.63-0.88,1.19c-0.26,0.56-0.46,1.33-0.62,2.29c-0.16,0.97-0.24,2.18-0.25,3.64
				H110.45z"/>
			<path class="st3" d="M136.98,75.82v9.41h-2.32l0.07-1.65c-0.34,0.57-0.78,1.02-1.32,1.34s-1.16,0.48-1.86,0.48
				c-0.82,0-1.52-0.19-2.1-0.57c-0.57-0.38-1.01-0.91-1.31-1.58c-0.3-0.67-0.45-1.45-0.45-2.32c0-1.05,0.21-1.97,0.62-2.76
				s0.98-1.41,1.69-1.86c0.72-0.45,1.52-0.67,2.42-0.67c0.6,0,1.13,0.13,1.59,0.38c0.46,0.26,0.82,0.6,1.07,1.02l0.22-1.22H136.98z
				 M132.6,77.65c-0.77,0-1.39,0.29-1.85,0.88c-0.46,0.59-0.69,1.35-0.69,2.3c0,0.81,0.17,1.44,0.52,1.89
				c0.35,0.45,0.83,0.67,1.44,0.67c0.5,0,0.95-0.14,1.36-0.43c0.4-0.29,0.73-0.69,0.96-1.2c0.24-0.51,0.36-1.1,0.36-1.76
				c0-0.74-0.19-1.31-0.56-1.73C133.76,77.86,133.25,77.65,132.6,77.65z"/>
			<path class="st3" d="M142.72,85.39c-1.3,0-2.29-0.25-2.97-0.74c-0.69-0.49-1.08-1.18-1.2-2.07l1.93-0.47
				c0.07,0.47,0.29,0.84,0.65,1.09c0.36,0.26,0.88,0.38,1.55,0.38c0.55,0,0.96-0.09,1.24-0.26c0.28-0.17,0.42-0.41,0.42-0.71
				c0-0.3-0.15-0.53-0.46-0.69s-0.78-0.31-1.41-0.43c-0.71-0.14-1.32-0.31-1.82-0.52c-0.51-0.21-0.89-0.5-1.16-0.87
				c-0.27-0.37-0.4-0.85-0.4-1.45c0-0.57,0.16-1.09,0.49-1.54c0.32-0.46,0.77-0.82,1.34-1.08c0.57-0.27,1.22-0.4,1.96-0.4
				c0.98,0,1.79,0.23,2.42,0.69c0.63,0.46,1.01,1.05,1.13,1.78l-1.89,0.5c-0.09-0.36-0.27-0.65-0.56-0.85
				c-0.29-0.21-0.67-0.31-1.16-0.31s-0.86,0.1-1.11,0.3c-0.26,0.2-0.38,0.45-0.38,0.75c0,0.3,0.15,0.53,0.44,0.7
				c0.29,0.17,0.79,0.33,1.51,0.48c0.66,0.14,1.24,0.31,1.73,0.51c0.49,0.21,0.88,0.49,1.17,0.84c0.29,0.36,0.43,0.83,0.43,1.43
				c0,0.59-0.17,1.1-0.5,1.54c-0.33,0.44-0.79,0.79-1.38,1.03C144.14,85.27,143.47,85.39,142.72,85.39z"/>
		</g>
		<g class="st2">
			<path class="st3" d="M50.99,107.67V94.39h2.43v13.28H50.99z"/>
			<path class="st3" d="M56,107.67v-9.45h2.28l-0.11,2.38c0.36-0.81,0.85-1.43,1.48-1.87c0.62-0.44,1.33-0.66,2.13-0.66
				c1.06,0,1.86,0.37,2.4,1.09s0.81,1.77,0.79,3.13l-0.04,5.37h-2.28l0.04-5.18c0.01-0.74-0.1-1.3-0.35-1.69
				c-0.24-0.39-0.63-0.59-1.17-0.59c-0.41,0-0.79,0.12-1.14,0.36c-0.35,0.24-0.65,0.64-0.92,1.21s-0.47,1.33-0.62,2.3
				c-0.15,0.97-0.23,2.17-0.24,3.6H56z"/>
			<path class="st3" d="M71.28,107.84c-1.14,0-2.02-0.31-2.65-0.93c-0.63-0.62-0.94-1.44-0.93-2.45l0.08-4.32h-1.61v-1.91h1.65
				l0.02-1.95h2.28l-0.04,1.95h3.09v1.91h-3.11l-0.06,4.08c-0.01,0.51,0.12,0.91,0.38,1.21c0.27,0.29,0.67,0.44,1.21,0.44
				c0.29,0,0.55-0.04,0.8-0.11s0.51-0.21,0.79-0.41l0.67,1.76c-0.29,0.25-0.65,0.44-1.1,0.56
				C72.31,107.78,71.82,107.84,71.28,107.84z"/>
			<path class="st3" d="M79.18,107.84c-1.02,0-1.91-0.19-2.65-0.57c-0.74-0.38-1.31-0.93-1.71-1.64c-0.4-0.71-0.6-1.56-0.6-2.54
				s0.21-1.85,0.62-2.61s0.97-1.34,1.67-1.77c0.7-0.42,1.51-0.64,2.4-0.64c1.46,0,2.53,0.5,3.23,1.49c0.69,0.99,0.93,2.36,0.72,4.11
				h-6.32c0.05,0.66,0.32,1.19,0.8,1.59c0.49,0.4,1.15,0.6,2,0.6c0.4,0,0.8-0.09,1.21-0.26c0.4-0.17,0.75-0.44,1.04-0.8l1.33,1.35
				c-0.42,0.54-0.94,0.95-1.54,1.25C80.77,107.69,80.04,107.84,79.18,107.84z M78.95,99.8c-0.64,0-1.16,0.2-1.57,0.6
				s-0.67,0.93-0.79,1.61h4.3c0.02-0.77-0.14-1.33-0.5-1.68C80.03,99.97,79.55,99.8,78.95,99.8z"/>
			<path class="st3" d="M90.89,100.44c-0.25-0.09-0.57-0.13-0.95-0.13c-0.67,0-1.22,0.25-1.63,0.74c-0.41,0.49-0.71,1.28-0.91,2.36
				c-0.19,1.08-0.29,2.5-0.29,4.27h-2.26v-6.1l-0.02-3.35h2.28L87,100.87c0.32-1.01,0.78-1.73,1.36-2.15
				c0.58-0.42,1.2-0.64,1.86-0.64c0.2,0,0.39,0.01,0.56,0.04c0.17,0.03,0.34,0.06,0.49,0.11L90.89,100.44z"/>
			<path class="st3" d="M100.86,98.27v9.41h-2.32l0.07-1.65c-0.34,0.57-0.78,1.02-1.32,1.34s-1.16,0.48-1.86,0.48
				c-0.82,0-1.52-0.19-2.1-0.57c-0.57-0.38-1.01-0.91-1.31-1.58c-0.3-0.67-0.45-1.45-0.45-2.32c0-1.05,0.21-1.97,0.62-2.76
				s0.98-1.41,1.69-1.86c0.72-0.45,1.52-0.67,2.42-0.67c0.6,0,1.13,0.13,1.59,0.38c0.46,0.26,0.82,0.6,1.07,1.02l0.22-1.22H100.86z
				 M96.48,100.1c-0.77,0-1.39,0.29-1.85,0.88c-0.46,0.59-0.69,1.35-0.69,2.3c0,0.81,0.17,1.44,0.52,1.89
				c0.35,0.45,0.83,0.67,1.44,0.67c0.5,0,0.95-0.14,1.36-0.43c0.4-0.29,0.73-0.69,0.96-1.2c0.24-0.51,0.36-1.1,0.36-1.76
				c0-0.74-0.19-1.31-0.56-1.73C97.64,100.31,97.13,100.1,96.48,100.1z"/>
			<path class="st3" d="M107.29,107.84c-1.14,0-2.02-0.31-2.65-0.93c-0.63-0.62-0.94-1.44-0.93-2.45l0.08-4.32h-1.61v-1.91h1.65
				l0.02-1.95h2.28l-0.04,1.95h3.09v1.91h-3.11l-0.06,4.08c-0.01,0.51,0.12,0.91,0.38,1.21c0.27,0.29,0.67,0.44,1.21,0.44
				c0.29,0,0.55-0.04,0.8-0.11s0.51-0.21,0.79-0.41l0.67,1.76c-0.29,0.25-0.65,0.44-1.1,0.56
				C108.32,107.78,107.83,107.84,107.29,107.84z"/>
			<path class="st3" d="M112.01,96.73c-0.45,0-0.8-0.14-1.07-0.41c-0.26-0.27-0.39-0.6-0.39-0.99s0.13-0.72,0.39-0.99
				c0.26-0.27,0.62-0.41,1.07-0.41c0.45,0,0.8,0.14,1.07,0.41c0.26,0.27,0.39,0.61,0.39,0.99s-0.13,0.72-0.39,0.99
				C112.81,96.59,112.46,96.73,112.01,96.73z M113.15,98.23v9.45h-2.28v-9.45H113.15z"/>
			<path class="st3" d="M122.11,98.23h2.28l-3.54,9.45h-3.25l-2.99-9.45h2.47l2.28,7.59L122.11,98.23z"/>
			<path class="st3" d="M129.53,98.08c1.41,0,2.52,0.42,3.32,1.26c0.8,0.84,1.21,1.98,1.21,3.41c0,0.97-0.2,1.84-0.61,2.61
				c-0.41,0.77-0.98,1.37-1.71,1.81c-0.74,0.44-1.59,0.66-2.56,0.66c-1.41,0-2.52-0.42-3.32-1.25c-0.8-0.83-1.21-1.98-1.21-3.42
				c0-0.97,0.2-1.84,0.61-2.61c0.4-0.77,0.97-1.37,1.7-1.82C127.69,98.3,128.55,98.08,129.53,98.08z M129.25,105.84
				c0.74,0,1.33-0.28,1.78-0.84c0.45-0.56,0.67-1.31,0.67-2.25c0-0.85-0.2-1.5-0.59-1.96c-0.39-0.46-0.93-0.69-1.62-0.69
				c-0.76,0-1.37,0.28-1.81,0.84c-0.45,0.56-0.67,1.3-0.67,2.23c0,0.85,0.2,1.51,0.59,1.97
				C127.99,105.61,128.54,105.84,129.25,105.84z"/>
			<path class="st3" d="M139.35,107.84c-1.3,0-2.29-0.25-2.97-0.74c-0.69-0.49-1.08-1.18-1.2-2.07l1.93-0.47
				c0.07,0.47,0.29,0.84,0.65,1.09c0.36,0.26,0.88,0.38,1.55,0.38c0.55,0,0.96-0.09,1.24-0.26c0.28-0.17,0.42-0.41,0.42-0.71
				c0-0.3-0.15-0.53-0.46-0.69s-0.78-0.31-1.41-0.43c-0.71-0.14-1.32-0.31-1.82-0.52c-0.51-0.21-0.89-0.5-1.16-0.87
				c-0.27-0.37-0.4-0.85-0.4-1.45c0-0.57,0.16-1.09,0.49-1.54c0.32-0.46,0.77-0.82,1.34-1.08c0.57-0.27,1.22-0.4,1.96-0.4
				c0.98,0,1.79,0.23,2.42,0.69c0.63,0.46,1.01,1.05,1.13,1.78l-1.89,0.5c-0.09-0.36-0.27-0.65-0.56-0.85
				c-0.29-0.21-0.67-0.31-1.16-0.31s-0.86,0.1-1.11,0.3c-0.26,0.2-0.38,0.45-0.38,0.75c0,0.3,0.15,0.53,0.44,0.7
				c0.29,0.17,0.79,0.33,1.51,0.48c0.66,0.14,1.24,0.31,1.73,0.51c0.49,0.21,0.88,0.49,1.17,0.84c0.29,0.36,0.43,0.83,0.43,1.43
				c0,0.59-0.17,1.1-0.5,1.54c-0.33,0.44-0.79,0.79-1.38,1.03C140.77,107.72,140.1,107.84,139.35,107.84z"/>
		</g>
	</g>
	<g>
		<g>
			<g>
				<path class="st1" d="M202.41,428.83c0,32.93-12.13,61.6-44.02,75.13c-22.73,9.65-48.34,9.57-72.95,7.5
					c-11.1-0.93-22.48-2.33-32.27-7.64C11.79,481.39,4.3,405.01,32.33,370.46c6.64-8.18,15.68-14.04,24.92-19.09
					c32.65-17.88,70.11-21.28,102.42-0.59C186.07,367.68,202.41,397.47,202.41,428.83z"/>
			</g>
		</g>
	</g>
	<g>
		<g>
			<path class="st0" d="M100.44,503.88c-8.28,0-16.38-0.5-24.06-1.14c-11.13-0.94-22.87-2.32-33.19-7.92
				c-17.94-9.72-31.21-30.33-36.42-56.54c-6.01-30.25-0.17-61.79,14.89-80.36c7.26-8.95,17.02-14.97,25.61-19.67
				c36.18-19.81,74.37-20,104.8-0.51c27.03,17.31,43.82,47.97,43.82,80.03c0,37.94-15.71,64.67-45.45,77.28
				C134.36,501.87,117.04,503.88,100.44,503.88z M102.3,327.75c-17.13,0-35.01,4.87-52.79,14.61c-8.19,4.48-17.47,10.19-24.23,18.52
				c-14.22,17.53-19.69,47.55-13.93,76.5c4.94,24.84,17.35,44.28,34.06,53.34c9.53,5.17,20.71,6.47,31.35,7.37
				c22.53,1.89,48.69,2.5,71.84-7.33c35.21-14.94,42.6-47.93,42.6-72.98c0-30.48-15.96-59.63-41.66-76.09
				C135.04,332.39,119.02,327.75,102.3,327.75z"/>
		</g>
	</g>
	<g>
		<g class="st2">
			<path class="st3" d="M48.69,392.63h-2.38v-13.28h4.68c1.72,0,3.04,0.35,3.95,1.05c0.91,0.7,1.37,1.71,1.37,3.03
				c0,1.33-0.49,2.38-1.48,3.13c-0.99,0.75-2.42,1.13-4.3,1.13h-1.83V392.63z M50.9,381.34h-2.21v4.36h1.96
				c1.12,0,1.94-0.18,2.45-0.54c0.51-0.36,0.77-0.92,0.77-1.68s-0.24-1.31-0.72-1.64C52.67,381.5,51.92,381.34,50.9,381.34z"/>
			<path class="st3" d="M63.9,385.4c-0.25-0.09-0.57-0.13-0.95-0.13c-0.67,0-1.22,0.25-1.63,0.74c-0.41,0.49-0.71,1.28-0.91,2.36
				c-0.19,1.08-0.29,2.5-0.29,4.27h-2.26v-6.1l-0.02-3.35h2.28L60,385.83c0.32-1.01,0.78-1.73,1.36-2.15
				c0.58-0.42,1.2-0.64,1.86-0.64c0.2,0,0.39,0.01,0.56,0.04c0.17,0.03,0.34,0.06,0.49,0.11L63.9,385.4z"/>
			<path class="st3" d="M69.47,383.04c1.41,0,2.52,0.42,3.32,1.26c0.8,0.84,1.21,1.98,1.21,3.41c0,0.97-0.2,1.84-0.61,2.61
				c-0.41,0.77-0.98,1.37-1.71,1.81c-0.74,0.44-1.59,0.66-2.56,0.66c-1.41,0-2.52-0.42-3.32-1.25c-0.8-0.83-1.21-1.98-1.21-3.42
				c0-0.97,0.2-1.84,0.61-2.61c0.4-0.77,0.97-1.37,1.7-1.82C67.63,383.26,68.48,383.04,69.47,383.04z M69.19,390.8
				c0.74,0,1.33-0.28,1.78-0.84c0.45-0.56,0.67-1.31,0.67-2.25c0-0.85-0.2-1.5-0.59-1.96c-0.39-0.46-0.93-0.69-1.62-0.69
				c-0.76,0-1.37,0.28-1.81,0.84c-0.45,0.56-0.67,1.3-0.67,2.23c0,0.85,0.2,1.51,0.59,1.97C67.93,390.57,68.48,390.8,69.19,390.8z"
				/>
			<path class="st3" d="M79.38,396.56c-0.55,0-1.14-0.06-1.77-0.17s-1.15-0.3-1.56-0.56l0.56-1.98c0.41,0.21,0.86,0.38,1.34,0.5
				c0.48,0.13,0.99,0.19,1.54,0.19c1.11,0,1.9-0.26,2.36-0.79c0.46-0.52,0.72-1.35,0.77-2.47l0.04-0.58
				c-0.35,0.59-0.79,1.03-1.32,1.34c-0.53,0.31-1.15,0.46-1.86,0.46c-0.85,0-1.57-0.18-2.16-0.54c-0.59-0.36-1.04-0.87-1.34-1.51
				s-0.45-1.39-0.45-2.23c0-1.01,0.2-1.9,0.61-2.68c0.4-0.78,0.97-1.39,1.68-1.83c0.72-0.44,1.54-0.66,2.48-0.66
				c0.62,0,1.17,0.13,1.63,0.38c0.46,0.26,0.82,0.6,1.07,1.02l0.22-1.22h1.67v7.78c0,1.86-0.49,3.25-1.46,4.17
				C82.45,396.1,81.1,396.56,79.38,396.56z M80.47,385.06c-0.79,0-1.41,0.28-1.88,0.84c-0.47,0.56-0.7,1.29-0.7,2.17
				c0,0.77,0.18,1.37,0.54,1.8c0.36,0.42,0.85,0.64,1.48,0.64c0.51,0,0.97-0.14,1.38-0.42c0.41-0.28,0.73-0.66,0.96-1.15
				s0.36-1.04,0.36-1.65c0-0.7-0.19-1.24-0.58-1.64C81.63,385.25,81.12,385.06,80.47,385.06z"/>
			<path class="st3" d="M93.38,385.4c-0.25-0.09-0.57-0.13-0.95-0.13c-0.67,0-1.22,0.25-1.63,0.74c-0.41,0.49-0.71,1.28-0.91,2.36
				c-0.19,1.08-0.29,2.5-0.29,4.27h-2.26v-6.1l-0.02-3.35h2.28l-0.11,2.64c0.32-1.01,0.78-1.73,1.36-2.15
				c0.58-0.42,1.2-0.64,1.86-0.64c0.2,0,0.39,0.01,0.56,0.04c0.17,0.03,0.34,0.06,0.49,0.11L93.38,385.4z"/>
			<path class="st3" d="M103.35,383.23v9.41h-2.32l0.07-1.65c-0.34,0.57-0.78,1.02-1.32,1.34s-1.16,0.48-1.86,0.48
				c-0.82,0-1.52-0.19-2.1-0.57c-0.57-0.38-1.01-0.91-1.31-1.58c-0.3-0.67-0.45-1.45-0.45-2.32c0-1.05,0.21-1.97,0.62-2.76
				s0.98-1.41,1.69-1.86c0.72-0.45,1.52-0.67,2.42-0.67c0.6,0,1.13,0.13,1.59,0.38c0.46,0.26,0.82,0.6,1.07,1.02l0.22-1.22H103.35z
				 M98.97,385.06c-0.77,0-1.39,0.29-1.85,0.88c-0.46,0.59-0.69,1.35-0.69,2.3c0,0.81,0.17,1.44,0.52,1.89
				c0.35,0.45,0.83,0.67,1.44,0.67c0.5,0,0.95-0.14,1.36-0.43c0.4-0.29,0.73-0.69,0.96-1.2c0.24-0.51,0.36-1.1,0.36-1.76
				c0-0.74-0.19-1.31-0.56-1.73C100.13,385.27,99.62,385.06,98.97,385.06z"/>
			<path class="st3" d="M105.78,392.63v-9.45h2.28l-0.11,2.32c0.39-0.86,0.89-1.49,1.51-1.88s1.28-0.59,1.99-0.59
				c0.69,0,1.29,0.19,1.81,0.56c0.52,0.37,0.9,0.96,1.12,1.76c0.4-0.79,0.93-1.37,1.58-1.75c0.65-0.38,1.33-0.57,2.03-0.57
				c1.05,0,1.84,0.37,2.38,1.09s0.81,1.77,0.79,3.13l-0.04,5.37h-2.28l0.04-5.29c0-0.69-0.13-1.22-0.37-1.6
				c-0.25-0.38-0.64-0.57-1.16-0.57c-0.36,0-0.71,0.12-1.04,0.35c-0.33,0.23-0.62,0.63-0.88,1.19s-0.46,1.33-0.61,2.29
				c-0.15,0.97-0.23,2.18-0.24,3.64h-2.26v-5.29c0-0.69-0.12-1.22-0.36-1.6c-0.24-0.38-0.62-0.57-1.14-0.57
				c-0.36,0-0.71,0.12-1.04,0.35c-0.33,0.23-0.62,0.63-0.88,1.19c-0.26,0.56-0.46,1.33-0.62,2.29c-0.16,0.97-0.24,2.18-0.25,3.64
				H105.78z"/>
			<path class="st3" d="M132.3,383.23v9.41h-2.32l0.07-1.65c-0.34,0.57-0.78,1.02-1.32,1.34s-1.16,0.48-1.86,0.48
				c-0.82,0-1.52-0.19-2.1-0.57c-0.57-0.38-1.01-0.91-1.31-1.58c-0.3-0.67-0.45-1.45-0.45-2.32c0-1.05,0.21-1.97,0.62-2.76
				s0.98-1.41,1.69-1.86c0.72-0.45,1.52-0.67,2.42-0.67c0.6,0,1.13,0.13,1.59,0.38c0.46,0.26,0.82,0.6,1.07,1.02l0.22-1.22H132.3z
				 M127.93,385.06c-0.77,0-1.39,0.29-1.85,0.88c-0.46,0.59-0.69,1.35-0.69,2.3c0,0.81,0.17,1.44,0.52,1.89
				c0.35,0.45,0.83,0.67,1.44,0.67c0.5,0,0.95-0.14,1.36-0.43c0.4-0.29,0.73-0.69,0.96-1.2c0.24-0.51,0.36-1.1,0.36-1.76
				c0-0.74-0.19-1.31-0.56-1.73C129.09,385.27,128.57,385.06,127.93,385.06z"/>
			<path class="st3" d="M138.05,392.8c-1.3,0-2.29-0.25-2.97-0.74c-0.69-0.49-1.08-1.18-1.2-2.07l1.93-0.47
				c0.07,0.47,0.29,0.84,0.65,1.09c0.36,0.26,0.88,0.38,1.55,0.38c0.55,0,0.96-0.09,1.24-0.26c0.28-0.17,0.42-0.41,0.42-0.71
				c0-0.3-0.15-0.53-0.46-0.69s-0.78-0.31-1.41-0.43c-0.71-0.14-1.32-0.31-1.82-0.52c-0.51-0.21-0.89-0.5-1.16-0.87
				c-0.27-0.37-0.4-0.85-0.4-1.45c0-0.57,0.16-1.09,0.49-1.54c0.32-0.46,0.77-0.82,1.34-1.08c0.57-0.27,1.22-0.4,1.96-0.4
				c0.98,0,1.79,0.23,2.42,0.69c0.63,0.46,1.01,1.05,1.13,1.78l-1.89,0.5c-0.09-0.36-0.27-0.65-0.56-0.85
				c-0.29-0.21-0.67-0.31-1.16-0.31s-0.86,0.1-1.11,0.3c-0.26,0.2-0.38,0.45-0.38,0.75c0,0.3,0.15,0.53,0.44,0.7
				c0.29,0.17,0.79,0.33,1.51,0.48c0.66,0.14,1.24,0.31,1.73,0.51c0.49,0.21,0.88,0.49,1.17,0.84c0.29,0.36,0.43,0.83,0.43,1.43
				c0,0.59-0.17,1.1-0.5,1.54c-0.33,0.44-0.79,0.79-1.38,1.03C139.46,392.68,138.79,392.8,138.05,392.8z"/>
		</g>
		<g class="st2">
			<path class="st3" d="M54.99,405.68v13.15h-2.28v-3.74l0.06-1.68c-0.34,0.59-0.78,1.04-1.32,1.37s-1.17,0.49-1.88,0.49
				c-0.82,0-1.52-0.19-2.1-0.57c-0.57-0.38-1.01-0.91-1.31-1.58c-0.3-0.67-0.45-1.45-0.45-2.32c0-1.05,0.21-1.97,0.62-2.76
				s0.98-1.41,1.69-1.86c0.72-0.45,1.52-0.67,2.42-0.67c0.6,0,1.13,0.13,1.59,0.38c0.46,0.26,0.81,0.6,1.05,1.02l0.24-1.22H54.99z
				 M50.61,407.51c-0.77,0-1.39,0.29-1.85,0.88c-0.46,0.59-0.69,1.35-0.69,2.3c0,0.81,0.17,1.44,0.52,1.89
				c0.35,0.45,0.83,0.67,1.44,0.67c0.5,0,0.95-0.14,1.36-0.43c0.4-0.29,0.73-0.69,0.96-1.2c0.24-0.51,0.36-1.1,0.36-1.76
				c0-0.74-0.19-1.31-0.56-1.73C51.77,407.72,51.26,407.51,50.61,407.51z"/>
			<path class="st3" d="M60.43,415.25c-1.05,0-1.84-0.36-2.37-1.07c-0.53-0.71-0.79-1.7-0.78-2.96l0.04-5.59h2.28l-0.04,5.39
				c-0.01,0.65,0.1,1.16,0.34,1.53s0.61,0.56,1.12,0.56c0.4,0,0.77-0.12,1.11-0.36c0.34-0.24,0.64-0.64,0.89-1.21
				c0.25-0.57,0.45-1.33,0.59-2.3c0.14-0.97,0.22-2.17,0.22-3.62h2.21v9.45h-2.3l0.13-2.15c-0.37,0.76-0.86,1.34-1.45,1.73
				S61.17,415.25,60.43,415.25z"/>
			<path class="st3" d="M72.99,415.25c-1.02,0-1.91-0.19-2.65-0.57c-0.74-0.38-1.31-0.93-1.71-1.64c-0.4-0.71-0.6-1.56-0.6-2.54
				s0.21-1.85,0.62-2.61s0.97-1.34,1.67-1.77c0.7-0.42,1.51-0.64,2.4-0.64c1.46,0,2.53,0.5,3.23,1.49c0.69,0.99,0.93,2.36,0.72,4.11
				h-6.32c0.05,0.66,0.32,1.19,0.8,1.59c0.49,0.4,1.15,0.6,2,0.6c0.4,0,0.8-0.09,1.21-0.26c0.4-0.17,0.75-0.44,1.04-0.8l1.33,1.35
				c-0.42,0.54-0.94,0.95-1.54,1.25C74.58,415.1,73.85,415.25,72.99,415.25z M72.76,407.21c-0.64,0-1.16,0.2-1.57,0.6
				s-0.67,0.93-0.79,1.61h4.3c0.02-0.77-0.14-1.33-0.5-1.68C73.84,407.38,73.36,407.21,72.76,407.21z"/>
			<path class="st3" d="M92.01,405.68v9.41h-2.32l0.07-1.65c-0.34,0.57-0.78,1.02-1.32,1.34s-1.16,0.48-1.86,0.48
				c-0.82,0-1.52-0.19-2.1-0.57c-0.57-0.38-1.01-0.91-1.31-1.58c-0.3-0.67-0.45-1.45-0.45-2.32c0-1.05,0.21-1.97,0.62-2.76
				s0.98-1.41,1.69-1.86c0.72-0.45,1.52-0.67,2.42-0.67c0.6,0,1.13,0.13,1.59,0.38c0.46,0.26,0.82,0.6,1.07,1.02l0.22-1.22H92.01z
				 M87.63,407.51c-0.77,0-1.39,0.29-1.85,0.88c-0.46,0.59-0.69,1.35-0.69,2.3c0,0.81,0.17,1.44,0.52,1.89
				c0.35,0.45,0.83,0.67,1.44,0.67c0.5,0,0.95-0.14,1.36-0.43c0.4-0.29,0.73-0.69,0.96-1.2c0.24-0.51,0.36-1.1,0.36-1.76
				c0-0.74-0.19-1.31-0.56-1.73C88.79,407.72,88.28,407.51,87.63,407.51z"/>
			<path class="st3" d="M98.45,415.25c-1.14,0-2.02-0.31-2.65-0.93c-0.63-0.62-0.94-1.44-0.93-2.45l0.08-4.32h-1.61v-1.91h1.65
				l0.02-1.95h2.28l-0.04,1.95h3.09v1.91h-3.11l-0.06,4.08c-0.01,0.51,0.12,0.91,0.38,1.21c0.27,0.29,0.67,0.44,1.21,0.44
				c0.29,0,0.55-0.04,0.8-0.11s0.51-0.21,0.79-0.41l0.67,1.76c-0.29,0.25-0.65,0.44-1.1,0.56
				C99.47,415.19,98.98,415.25,98.45,415.25z"/>
			<path class="st3" d="M103.16,404.14c-0.45,0-0.8-0.14-1.07-0.41c-0.26-0.27-0.39-0.6-0.39-0.99s0.13-0.72,0.39-0.99
				c0.26-0.27,0.62-0.41,1.07-0.41c0.45,0,0.8,0.14,1.07,0.41c0.26,0.27,0.39,0.61,0.39,0.99s-0.13,0.72-0.39,0.99
				C103.96,404,103.61,404.14,103.16,404.14z M104.3,405.64v9.45h-2.28v-9.45H104.3z"/>
			<path class="st3" d="M106.73,415.08v-9.45h2.28l-0.11,2.38c0.36-0.81,0.85-1.43,1.48-1.87c0.62-0.44,1.33-0.66,2.13-0.66
				c1.06,0,1.86,0.37,2.4,1.09s0.81,1.77,0.79,3.13l-0.04,5.37h-2.28l0.04-5.18c0.01-0.74-0.1-1.3-0.35-1.69
				c-0.24-0.39-0.63-0.59-1.17-0.59c-0.41,0-0.79,0.12-1.14,0.36c-0.35,0.24-0.65,0.64-0.92,1.21s-0.47,1.33-0.62,2.3
				c-0.15,0.97-0.23,2.17-0.24,3.6H106.73z"/>
			<path class="st3" d="M121.42,419.01c-0.55,0-1.14-0.06-1.77-0.17s-1.15-0.3-1.56-0.56l0.56-1.98c0.41,0.21,0.86,0.38,1.34,0.5
				c0.48,0.13,0.99,0.19,1.54,0.19c1.11,0,1.9-0.26,2.36-0.79c0.46-0.52,0.72-1.35,0.77-2.47l0.04-0.58
				c-0.35,0.59-0.79,1.03-1.32,1.34c-0.53,0.31-1.15,0.46-1.86,0.46c-0.85,0-1.57-0.18-2.16-0.54c-0.59-0.36-1.04-0.87-1.34-1.51
				s-0.45-1.39-0.45-2.23c0-1.01,0.2-1.9,0.61-2.68c0.4-0.78,0.97-1.39,1.68-1.83c0.72-0.44,1.54-0.66,2.48-0.66
				c0.62,0,1.17,0.13,1.63,0.38c0.46,0.26,0.82,0.6,1.07,1.02l0.22-1.22h1.67v7.78c0,1.86-0.49,3.25-1.46,4.17
				C124.48,418.55,123.14,419.01,121.42,419.01z M122.5,407.51c-0.79,0-1.41,0.28-1.88,0.84c-0.47,0.56-0.7,1.29-0.7,2.17
				c0,0.77,0.18,1.37,0.54,1.8c0.36,0.42,0.85,0.64,1.48,0.64c0.51,0,0.97-0.14,1.38-0.42c0.41-0.28,0.73-0.66,0.96-1.15
				s0.36-1.04,0.36-1.65c0-0.7-0.19-1.24-0.58-1.64C123.67,407.7,123.15,407.51,122.5,407.51z"/>
			<path class="st3" d="M133.86,415.25c-1.02,0-1.91-0.19-2.65-0.57c-0.74-0.38-1.31-0.93-1.71-1.64c-0.4-0.71-0.6-1.56-0.6-2.54
				s0.21-1.85,0.62-2.61s0.97-1.34,1.67-1.77c0.7-0.42,1.51-0.64,2.4-0.64c1.46,0,2.53,0.5,3.23,1.49c0.69,0.99,0.93,2.36,0.72,4.11
				h-6.32c0.05,0.66,0.32,1.19,0.8,1.59c0.49,0.4,1.15,0.6,2,0.6c0.4,0,0.8-0.09,1.21-0.26c0.4-0.17,0.75-0.44,1.04-0.8l1.33,1.35
				c-0.42,0.54-0.94,0.95-1.54,1.25C135.45,415.1,134.72,415.25,133.86,415.25z M133.63,407.21c-0.64,0-1.16,0.2-1.57,0.6
				s-0.67,0.93-0.79,1.61h4.3c0.02-0.77-0.14-1.33-0.5-1.68C134.71,407.38,134.23,407.21,133.63,407.21z"/>
			<path class="st3" d="M139.5,415.08v-9.45h2.28l-0.11,2.32c0.39-0.86,0.89-1.49,1.51-1.88s1.28-0.59,1.99-0.59
				c0.69,0,1.29,0.19,1.81,0.56c0.52,0.37,0.9,0.96,1.12,1.76c0.4-0.79,0.93-1.37,1.58-1.75c0.65-0.38,1.33-0.57,2.03-0.57
				c1.05,0,1.84,0.37,2.38,1.09s0.81,1.77,0.79,3.13l-0.04,5.37h-2.28l0.04-5.29c0-0.69-0.13-1.22-0.37-1.6
				c-0.25-0.38-0.64-0.57-1.16-0.57c-0.36,0-0.71,0.12-1.04,0.35c-0.33,0.23-0.62,0.63-0.88,1.19s-0.46,1.33-0.61,2.29
				c-0.15,0.97-0.23,2.18-0.24,3.64h-2.26v-5.29c0-0.69-0.12-1.22-0.36-1.6c-0.24-0.38-0.62-0.57-1.14-0.57
				c-0.36,0-0.71,0.12-1.04,0.35c-0.33,0.23-0.62,0.63-0.88,1.19c-0.26,0.56-0.46,1.33-0.62,2.29c-0.16,0.97-0.24,2.18-0.25,3.64
				H139.5z"/>
		</g>
		<g class="st2">
			<path class="st3" d="M54.99,428.12v9.41h-2.32l0.07-1.65c-0.34,0.57-0.78,1.02-1.32,1.34s-1.16,0.48-1.86,0.48
				c-0.82,0-1.52-0.19-2.1-0.57c-0.57-0.38-1.01-0.91-1.31-1.58c-0.3-0.67-0.45-1.45-0.45-2.32c0-1.05,0.21-1.97,0.62-2.76
				s0.98-1.41,1.69-1.86c0.72-0.45,1.52-0.67,2.42-0.67c0.6,0,1.13,0.13,1.59,0.38c0.46,0.26,0.82,0.6,1.07,1.02l0.22-1.22H54.99z
				 M50.61,429.95c-0.77,0-1.39,0.29-1.85,0.88c-0.46,0.59-0.69,1.35-0.69,2.3c0,0.81,0.17,1.44,0.52,1.89
				c0.35,0.45,0.83,0.67,1.44,0.67c0.5,0,0.95-0.14,1.36-0.43c0.4-0.29,0.73-0.69,0.96-1.2c0.24-0.51,0.36-1.1,0.36-1.76
				c0-0.74-0.19-1.31-0.56-1.73C51.77,430.16,51.26,429.95,50.61,429.95z"/>
			<path class="st3" d="M60.73,437.69c-1.3,0-2.29-0.25-2.97-0.74c-0.69-0.49-1.08-1.18-1.2-2.07l1.93-0.47
				c0.07,0.47,0.29,0.84,0.65,1.09c0.36,0.26,0.88,0.38,1.55,0.38c0.55,0,0.96-0.09,1.24-0.26c0.28-0.17,0.42-0.41,0.42-0.71
				c0-0.3-0.15-0.53-0.46-0.69s-0.78-0.31-1.41-0.43c-0.71-0.14-1.32-0.31-1.82-0.52c-0.51-0.21-0.89-0.5-1.16-0.87
				c-0.27-0.37-0.4-0.85-0.4-1.45c0-0.57,0.16-1.09,0.49-1.54c0.32-0.46,0.77-0.82,1.34-1.08c0.57-0.27,1.22-0.4,1.96-0.4
				c0.98,0,1.79,0.23,2.42,0.69c0.63,0.46,1.01,1.05,1.13,1.78l-1.89,0.5c-0.09-0.36-0.27-0.65-0.56-0.85
				c-0.29-0.21-0.67-0.31-1.16-0.31s-0.86,0.1-1.11,0.3c-0.26,0.2-0.38,0.45-0.38,0.75c0,0.3,0.15,0.53,0.44,0.7
				c0.29,0.17,0.79,0.33,1.51,0.48c0.66,0.14,1.24,0.31,1.73,0.51c0.49,0.21,0.88,0.49,1.17,0.84c0.29,0.36,0.43,0.83,0.43,1.43
				c0,0.59-0.17,1.1-0.5,1.54c-0.33,0.44-0.79,0.79-1.38,1.03C62.15,437.57,61.48,437.69,60.73,437.69z"/>
			<path class="st3" d="M71.27,437.53v-7.54h-1.8v-1.91h1.8v-0.5c0-0.84,0.17-1.56,0.51-2.16c0.34-0.6,0.81-1.08,1.4-1.41
				c0.59-0.34,1.27-0.5,2.05-0.5c0.92,0,1.66,0.23,2.22,0.68c0.56,0.46,0.89,1.14,1,2.05l-1.95,0.22c-0.04-0.32-0.17-0.58-0.41-0.76
				c-0.24-0.18-0.54-0.27-0.92-0.27c-0.51,0-0.91,0.17-1.21,0.5c-0.29,0.34-0.44,0.82-0.44,1.44v0.71h2.81v1.91h-2.77v7.54H71.27z"
				/>
			<path class="st3" d="M85.99,428.12v9.41h-2.32l0.07-1.65c-0.34,0.57-0.78,1.02-1.32,1.34s-1.16,0.48-1.86,0.48
				c-0.82,0-1.52-0.19-2.1-0.57c-0.57-0.38-1.01-0.91-1.31-1.58c-0.3-0.67-0.45-1.45-0.45-2.32c0-1.05,0.21-1.97,0.62-2.76
				s0.98-1.41,1.69-1.86c0.72-0.45,1.52-0.67,2.42-0.67c0.6,0,1.13,0.13,1.59,0.38c0.46,0.26,0.82,0.6,1.07,1.02l0.22-1.22H85.99z
				 M81.61,429.95c-0.77,0-1.39,0.29-1.85,0.88c-0.46,0.59-0.69,1.35-0.69,2.3c0,0.81,0.17,1.44,0.52,1.89
				c0.35,0.45,0.83,0.67,1.44,0.67c0.5,0,0.95-0.14,1.36-0.43c0.4-0.29,0.73-0.69,0.96-1.2c0.24-0.51,0.36-1.1,0.36-1.76
				c0-0.74-0.19-1.31-0.56-1.73C82.77,430.16,82.26,429.95,81.61,429.95z"/>
			<path class="st3" d="M88.42,437.53v-9.45h2.28l-0.11,2.32c0.39-0.86,0.89-1.49,1.51-1.88s1.28-0.59,1.99-0.59
				c0.69,0,1.29,0.19,1.81,0.56c0.52,0.37,0.9,0.96,1.12,1.76c0.4-0.79,0.93-1.37,1.58-1.75c0.65-0.38,1.33-0.57,2.03-0.57
				c1.05,0,1.84,0.37,2.38,1.09s0.81,1.77,0.79,3.13l-0.04,5.37h-2.28l0.04-5.29c0-0.69-0.13-1.22-0.37-1.6
				c-0.25-0.38-0.64-0.57-1.16-0.57c-0.36,0-0.71,0.12-1.04,0.35c-0.33,0.23-0.62,0.63-0.88,1.19s-0.46,1.33-0.61,2.29
				c-0.15,0.97-0.23,2.18-0.24,3.64h-2.26v-5.29c0-0.69-0.12-1.22-0.36-1.6c-0.24-0.38-0.62-0.57-1.14-0.57
				c-0.36,0-0.71,0.12-1.04,0.35c-0.33,0.23-0.62,0.63-0.88,1.19c-0.26,0.56-0.46,1.33-0.62,2.29c-0.16,0.97-0.24,2.18-0.25,3.64
				H88.42z"/>
			<path class="st3" d="M108.4,428.08v9.45h-2.28v-9.45H108.4z M106.21,426.81l2.23-3.31l2.36,0.6l-2.54,2.71H106.21z"/>
			<path class="st3" d="M113.56,437.69c-0.9,0-1.58-0.24-2.04-0.73c-0.46-0.49-0.69-1.18-0.69-2.08v-11.21h2.28v11.02
				c0,0.67,0.31,1.01,0.94,1.01c0.31,0,0.59-0.08,0.82-0.22l0.56,1.67c-0.2,0.15-0.47,0.28-0.8,0.38
				C114.29,437.64,113.93,437.69,113.56,437.69z"/>
			<path class="st3" d="M117.43,426.58c-0.45,0-0.8-0.14-1.07-0.41c-0.26-0.27-0.39-0.6-0.39-0.99s0.13-0.72,0.39-0.99
				c0.26-0.27,0.62-0.41,1.07-0.41c0.45,0,0.8,0.14,1.07,0.41c0.26,0.27,0.39,0.61,0.39,0.99s-0.13,0.72-0.39,0.99
				C118.24,426.44,117.88,426.58,117.43,426.58z M118.57,428.08v9.45h-2.28v-9.45H118.57z"/>
			<path class="st3" d="M129.83,428.12v9.41h-2.32l0.07-1.65c-0.34,0.57-0.78,1.02-1.32,1.34s-1.16,0.48-1.86,0.48
				c-0.82,0-1.52-0.19-2.1-0.57c-0.57-0.38-1.01-0.91-1.31-1.58c-0.3-0.67-0.45-1.45-0.45-2.32c0-1.05,0.21-1.97,0.62-2.76
				s0.98-1.41,1.69-1.86c0.72-0.45,1.52-0.67,2.42-0.67c0.6,0,1.13,0.13,1.59,0.38c0.46,0.26,0.82,0.6,1.07,1.02l0.22-1.22H129.83z
				 M125.46,429.95c-0.77,0-1.39,0.29-1.85,0.88c-0.46,0.59-0.69,1.35-0.69,2.3c0,0.81,0.17,1.44,0.52,1.89
				c0.35,0.45,0.83,0.67,1.44,0.67c0.5,0,0.95-0.14,1.36-0.43c0.4-0.29,0.73-0.69,0.96-1.2c0.24-0.51,0.36-1.1,0.36-1.76
				c0-0.74-0.19-1.31-0.56-1.73C126.62,430.16,126.1,429.95,125.46,429.95z"/>
			<path class="st3" d="M135.58,437.69c-1.3,0-2.29-0.25-2.97-0.74c-0.69-0.49-1.08-1.18-1.2-2.07l1.93-0.47
				c0.07,0.47,0.29,0.84,0.65,1.09c0.36,0.26,0.88,0.38,1.55,0.38c0.55,0,0.96-0.09,1.24-0.26c0.28-0.17,0.42-0.41,0.42-0.71
				c0-0.3-0.15-0.53-0.46-0.69s-0.78-0.31-1.41-0.43c-0.71-0.14-1.32-0.31-1.82-0.52c-0.51-0.21-0.89-0.5-1.16-0.87
				c-0.27-0.37-0.4-0.85-0.4-1.45c0-0.57,0.16-1.09,0.49-1.54c0.32-0.46,0.77-0.82,1.34-1.08c0.57-0.27,1.22-0.4,1.96-0.4
				c0.98,0,1.79,0.23,2.42,0.69c0.63,0.46,1.01,1.05,1.13,1.78l-1.89,0.5c-0.09-0.36-0.27-0.65-0.56-0.85
				c-0.29-0.21-0.67-0.31-1.16-0.31s-0.86,0.1-1.11,0.3c-0.26,0.2-0.38,0.45-0.38,0.75c0,0.3,0.15,0.53,0.44,0.7
				c0.29,0.17,0.79,0.33,1.51,0.48c0.66,0.14,1.24,0.31,1.73,0.51c0.49,0.21,0.88,0.49,1.17,0.84c0.29,0.36,0.43,0.83,0.43,1.43
				c0,0.59-0.17,1.1-0.5,1.54c-0.33,0.44-0.79,0.79-1.38,1.03C136.99,437.57,136.32,437.69,135.58,437.69z"/>
			<path class="st3" d="M150.15,437.69c-1.02,0-1.91-0.19-2.65-0.57c-0.74-0.38-1.31-0.93-1.71-1.64c-0.4-0.71-0.6-1.56-0.6-2.54
				s0.21-1.85,0.62-2.61s0.97-1.34,1.67-1.77c0.7-0.42,1.51-0.64,2.4-0.64c1.46,0,2.53,0.5,3.23,1.49c0.69,0.99,0.93,2.36,0.72,4.11
				h-6.32c0.05,0.66,0.32,1.19,0.8,1.59c0.49,0.4,1.15,0.6,2,0.6c0.4,0,0.8-0.09,1.21-0.26c0.4-0.17,0.75-0.44,1.04-0.8l1.33,1.35
				c-0.42,0.54-0.94,0.95-1.54,1.25C151.74,437.54,151.01,437.69,150.15,437.69z M149.92,429.65c-0.64,0-1.16,0.2-1.57,0.6
				s-0.67,0.93-0.79,1.61h4.3c0.02-0.77-0.14-1.33-0.5-1.68C151,429.82,150.52,429.65,149.92,429.65z"/>
			<path class="st3" d="M169.17,428.12v9.41h-2.32l0.07-1.65c-0.34,0.57-0.78,1.02-1.32,1.34s-1.16,0.48-1.86,0.48
				c-0.82,0-1.52-0.19-2.1-0.57c-0.57-0.38-1.01-0.91-1.31-1.58c-0.3-0.67-0.45-1.45-0.45-2.32c0-1.05,0.21-1.97,0.62-2.76
				s0.98-1.41,1.69-1.86c0.72-0.45,1.52-0.67,2.42-0.67c0.6,0,1.13,0.13,1.59,0.38c0.46,0.26,0.82,0.6,1.07,1.02l0.22-1.22H169.17z
				 M164.79,429.95c-0.77,0-1.39,0.29-1.85,0.88c-0.46,0.59-0.69,1.35-0.69,2.3c0,0.81,0.17,1.44,0.52,1.89
				c0.35,0.45,0.83,0.67,1.44,0.67c0.5,0,0.95-0.14,1.36-0.43c0.4-0.29,0.73-0.69,0.96-1.2c0.24-0.51,0.36-1.1,0.36-1.76
				c0-0.74-0.19-1.31-0.56-1.73C165.95,430.16,165.44,429.95,164.79,429.95z"/>
		</g>
		<g class="st2">
			<path class="st3" d="M50.37,460.14c-1.43,0-2.57-0.41-3.4-1.24c-0.84-0.83-1.25-1.99-1.25-3.47c0-1,0.21-1.88,0.62-2.64
				c0.41-0.76,0.98-1.35,1.72-1.78s1.58-0.64,2.54-0.64c0.8,0,1.5,0.16,2.09,0.47c0.6,0.31,1.08,0.8,1.46,1.46l-1.63,1.24
				c-0.24-0.4-0.51-0.69-0.81-0.86s-0.68-0.26-1.11-0.26c-0.74,0-1.34,0.27-1.81,0.82c-0.47,0.55-0.7,1.27-0.7,2.17
				c0,0.87,0.21,1.54,0.63,2.01s1.02,0.7,1.81,0.7c0.41,0,0.8-0.09,1.15-0.28c0.36-0.19,0.65-0.48,0.89-0.88l1.59,1.27
				c-0.42,0.69-0.96,1.17-1.61,1.47S51.17,460.14,50.37,460.14z"/>
			<path class="st3" d="M59.44,450.38c1.41,0,2.52,0.42,3.32,1.26c0.8,0.84,1.21,1.98,1.21,3.41c0,0.97-0.2,1.84-0.61,2.61
				c-0.41,0.77-0.98,1.37-1.71,1.81c-0.74,0.44-1.59,0.66-2.56,0.66c-1.41,0-2.52-0.42-3.32-1.25c-0.8-0.83-1.21-1.98-1.21-3.42
				c0-0.97,0.2-1.84,0.61-2.61c0.4-0.77,0.97-1.37,1.7-1.82C57.6,450.6,58.46,450.38,59.44,450.38z M59.16,458.14
				c0.74,0,1.33-0.28,1.78-0.84c0.45-0.56,0.67-1.31,0.67-2.25c0-0.85-0.2-1.5-0.59-1.96c-0.39-0.46-0.93-0.69-1.62-0.69
				c-0.76,0-1.37,0.28-1.81,0.84c-0.45,0.56-0.67,1.3-0.67,2.23c0,0.85,0.2,1.51,0.59,1.97C57.9,457.91,58.45,458.14,59.16,458.14z"
				/>
			<path class="st3" d="M65.95,459.98v-9.45h2.28l-0.11,2.32c0.39-0.86,0.89-1.49,1.51-1.88s1.28-0.59,1.99-0.59
				c0.69,0,1.29,0.19,1.81,0.56c0.52,0.37,0.9,0.96,1.12,1.76c0.4-0.79,0.93-1.37,1.58-1.75c0.65-0.38,1.33-0.57,2.03-0.57
				c1.05,0,1.84,0.37,2.38,1.09s0.81,1.77,0.79,3.13l-0.04,5.37h-2.28l0.04-5.29c0-0.69-0.13-1.22-0.37-1.6
				c-0.25-0.38-0.64-0.57-1.16-0.57c-0.36,0-0.71,0.12-1.04,0.35c-0.33,0.23-0.62,0.63-0.88,1.19s-0.46,1.33-0.61,2.29
				c-0.15,0.97-0.23,2.18-0.24,3.64H72.5v-5.29c0-0.69-0.12-1.22-0.36-1.6c-0.24-0.38-0.62-0.57-1.14-0.57
				c-0.36,0-0.71,0.12-1.04,0.35c-0.33,0.23-0.62,0.63-0.88,1.19c-0.26,0.56-0.46,1.33-0.62,2.29c-0.16,0.97-0.24,2.18-0.25,3.64
				H65.95z"/>
			<path class="st3" d="M86.66,460.14c-1.05,0-1.84-0.36-2.37-1.07c-0.53-0.71-0.79-1.7-0.78-2.96l0.04-5.59h2.28l-0.04,5.39
				c-0.01,0.65,0.1,1.16,0.34,1.53s0.61,0.56,1.12,0.56c0.4,0,0.77-0.12,1.11-0.36c0.34-0.24,0.64-0.64,0.89-1.21
				c0.25-0.57,0.45-1.33,0.59-2.3c0.14-0.97,0.22-2.17,0.22-3.62h2.21v9.45h-2.3l0.13-2.15c-0.37,0.76-0.86,1.34-1.45,1.73
				S87.4,460.14,86.66,460.14z"/>
			<path class="st3" d="M94.7,459.98v-9.45h2.28l-0.11,2.38c0.36-0.81,0.85-1.43,1.48-1.87c0.62-0.44,1.33-0.66,2.13-0.66
				c1.06,0,1.86,0.37,2.4,1.09s0.81,1.77,0.79,3.13l-0.04,5.37h-2.28l0.04-5.18c0.01-0.74-0.1-1.3-0.35-1.69
				c-0.24-0.39-0.63-0.59-1.17-0.59c-0.41,0-0.79,0.12-1.14,0.36c-0.35,0.24-0.65,0.64-0.92,1.21s-0.47,1.33-0.62,2.3
				c-0.15,0.97-0.23,2.17-0.24,3.6H94.7z"/>
			<path class="st3" d="M107.13,449.03c-0.45,0-0.8-0.14-1.07-0.41c-0.26-0.27-0.39-0.6-0.39-0.99s0.13-0.72,0.39-0.99
				c0.26-0.27,0.62-0.41,1.07-0.41c0.45,0,0.8,0.14,1.07,0.41c0.26,0.27,0.39,0.61,0.39,0.99s-0.13,0.72-0.39,0.99
				C107.93,448.9,107.57,449.03,107.13,449.03z M108.27,450.53v9.45h-2.28v-9.45H108.27z"/>
			<path class="st3" d="M119.53,446.13v13.84h-2.32l0.07-1.65c-0.34,0.59-0.77,1.04-1.31,1.35c-0.54,0.31-1.16,0.47-1.87,0.47
				c-0.82,0-1.52-0.19-2.1-0.57c-0.57-0.38-1.01-0.91-1.31-1.58c-0.3-0.67-0.45-1.45-0.45-2.32c0-1.05,0.21-1.97,0.62-2.76
				s0.98-1.41,1.69-1.86c0.72-0.45,1.52-0.67,2.42-0.67c0.47,0,0.91,0.08,1.3,0.24c0.39,0.16,0.72,0.39,0.98,0.67l-0.02-0.77v-4.4
				H119.53z M115.15,452.4c-0.77,0-1.39,0.29-1.85,0.88c-0.46,0.59-0.69,1.35-0.69,2.3c0,0.81,0.17,1.44,0.52,1.89
				c0.35,0.45,0.83,0.67,1.44,0.67c0.5,0,0.95-0.14,1.36-0.43c0.4-0.29,0.73-0.69,0.96-1.2c0.24-0.51,0.36-1.1,0.36-1.76
				c0-0.74-0.19-1.31-0.56-1.73C116.31,452.61,115.8,452.4,115.15,452.4z"/>
			<path class="st3" d="M130.79,450.57v9.41h-2.32l0.07-1.65c-0.34,0.57-0.78,1.02-1.32,1.34s-1.16,0.48-1.86,0.48
				c-0.82,0-1.52-0.19-2.1-0.57c-0.57-0.38-1.01-0.91-1.31-1.58c-0.3-0.67-0.45-1.45-0.45-2.32c0-1.05,0.21-1.97,0.62-2.76
				s0.98-1.41,1.69-1.86c0.72-0.45,1.52-0.67,2.42-0.67c0.6,0,1.13,0.13,1.59,0.38c0.46,0.26,0.82,0.6,1.07,1.02l0.22-1.22H130.79z
				 M126.41,452.4c-0.77,0-1.39,0.29-1.85,0.88c-0.46,0.59-0.69,1.35-0.69,2.3c0,0.81,0.17,1.44,0.52,1.89
				c0.35,0.45,0.83,0.67,1.44,0.67c0.5,0,0.95-0.14,1.36-0.43c0.4-0.29,0.73-0.69,0.96-1.2c0.24-0.51,0.36-1.1,0.36-1.76
				c0-0.74-0.19-1.31-0.56-1.73C127.57,452.61,127.06,452.4,126.41,452.4z"/>
			<path class="st3" d="M142.05,446.13v13.84h-2.32l0.07-1.65c-0.34,0.59-0.77,1.04-1.31,1.35c-0.54,0.31-1.16,0.47-1.87,0.47
				c-0.82,0-1.52-0.19-2.1-0.57c-0.57-0.38-1.01-0.91-1.31-1.58c-0.3-0.67-0.45-1.45-0.45-2.32c0-1.05,0.21-1.97,0.62-2.76
				s0.98-1.41,1.69-1.86c0.72-0.45,1.52-0.67,2.42-0.67c0.47,0,0.91,0.08,1.3,0.24c0.39,0.16,0.72,0.39,0.98,0.67l-0.02-0.77v-4.4
				H142.05z M137.67,452.4c-0.77,0-1.39,0.29-1.85,0.88c-0.46,0.59-0.69,1.35-0.69,2.3c0,0.81,0.17,1.44,0.52,1.89
				c0.35,0.45,0.83,0.67,1.44,0.67c0.5,0,0.95-0.14,1.36-0.43c0.4-0.29,0.73-0.69,0.96-1.2c0.24-0.51,0.36-1.1,0.36-1.76
				c0-0.74-0.19-1.31-0.56-1.73C138.83,452.61,138.32,452.4,137.67,452.4z"/>
			<path class="st3" d="M148.99,460.14c-1.02,0-1.91-0.19-2.65-0.57c-0.74-0.38-1.31-0.93-1.71-1.64c-0.4-0.71-0.6-1.56-0.6-2.54
				s0.21-1.85,0.62-2.61s0.97-1.34,1.67-1.77c0.7-0.42,1.51-0.64,2.4-0.64c1.46,0,2.53,0.5,3.23,1.49c0.69,0.99,0.93,2.36,0.72,4.11
				h-6.32c0.05,0.66,0.32,1.19,0.8,1.59c0.49,0.4,1.15,0.6,2,0.6c0.4,0,0.8-0.09,1.21-0.26c0.4-0.17,0.75-0.44,1.04-0.8l1.33,1.35
				c-0.42,0.54-0.94,0.95-1.54,1.25C150.58,459.99,149.85,460.14,148.99,460.14z M148.76,452.1c-0.64,0-1.16,0.2-1.57,0.6
				s-0.67,0.93-0.79,1.61h4.3c0.02-0.77-0.14-1.33-0.5-1.68C149.84,452.28,149.36,452.1,148.76,452.1z"/>
		</g>
	</g>
	<path class="st0" d="M143.51,264.34l-1.27-17.51c-8.81,0.14-17.56,0.97-26.15,1.82c-0.8,0.08-1.59,0.15-2.39,0.23
		c-0.13-1.33-0.25-2.67-0.39-4c-0.89-9.03-1.73-17.77-1.8-26.39L94,219.77c0.14,8.81,0.97,17.56,1.82,26.15
		c0.14,1.46,0.28,2.9,0.42,4.35c-7.18,0.35-14.26,0.3-21.33-0.6c-0.47-0.06-1.91-0.24-2.31-0.51l-6.93,15.08
		c2.7,2.07,5.5,2.58,7.91,2.88c4.99,0.64,9.98,0.89,14.95,0.89c3.01,0,6-0.11,8.99-0.27c0.24,6.51,0.13,12.93-0.69,19.36
		c-0.06,0.47-0.24,1.91-0.51,2.31l15.08,6.93c2.07-2.7,2.58-5.5,2.88-7.91c0.64-4.99,0.89-9.98,0.89-14.95
		c0-2.38-0.06-4.76-0.16-7.13c0.7-0.07,1.41-0.13,2.1-0.2C126.16,265.24,134.9,264.4,143.51,264.34z"/>
	<g>
		<path class="st0" d="M500,256.14c0,32.93-12.13,61.6-44.02,75.13c-22.73,9.65-48.34,9.57-72.95,7.5
			c-11.1-0.93-22.48-2.33-32.27-7.64c-41.37-22.43-48.86-98.82-20.83-133.37c6.64-8.18,15.68-14.04,24.92-19.09
			c32.65-17.88,70.11-21.28,102.42-0.59C483.66,194.99,500,224.78,500,256.14z"/>
	</g>
	<g>
		<g class="st2">
			<path class="st4" d="M363.32,218.49l0.5-13.28h2.11l4.86,10.23l4.84-10.23h2.11l0.41,13.28h-2.34l-0.26-8.27l-3.95,8.27h-1.83
				l-3.89-8.21l-0.34,8.21H363.32z"/>
			<path class="st4" d="M389.55,209.08v9.41h-2.32l0.07-1.65c-0.34,0.57-0.78,1.02-1.32,1.34c-0.54,0.32-1.16,0.48-1.86,0.48
				c-0.82,0-1.52-0.19-2.09-0.57c-0.57-0.38-1.01-0.91-1.31-1.58c-0.3-0.67-0.45-1.45-0.45-2.32c0-1.05,0.21-1.97,0.62-2.76
				c0.41-0.79,0.98-1.41,1.69-1.86c0.72-0.45,1.52-0.67,2.42-0.67c0.6,0,1.13,0.13,1.59,0.38c0.46,0.26,0.82,0.6,1.07,1.02
				l0.22-1.22H389.55z M385.17,210.92c-0.77,0-1.39,0.29-1.85,0.88c-0.46,0.59-0.69,1.35-0.69,2.3c0,0.81,0.17,1.44,0.52,1.89
				c0.35,0.45,0.83,0.67,1.44,0.67c0.5,0,0.95-0.14,1.36-0.43c0.4-0.29,0.73-0.69,0.96-1.2c0.24-0.51,0.36-1.1,0.36-1.76
				c0-0.74-0.19-1.31-0.56-1.73C386.33,211.13,385.82,210.92,385.17,210.92z"/>
			<path class="st4" d="M393.12,207.55c-0.45,0-0.8-0.14-1.07-0.41s-0.39-0.6-0.39-0.99s0.13-0.72,0.39-0.99
				c0.26-0.27,0.62-0.41,1.07-0.41s0.8,0.14,1.07,0.41c0.26,0.27,0.39,0.61,0.39,0.99s-0.13,0.72-0.39,0.99
				C393.93,207.41,393.57,207.55,393.12,207.55z M394.26,209.05v9.45h-2.28v-9.45H394.26z"/>
			<path class="st4" d="M401.13,208.9c1.41,0,2.52,0.42,3.32,1.26s1.21,1.98,1.21,3.41c0,0.97-0.2,1.84-0.61,2.61
				c-0.41,0.77-0.98,1.37-1.71,1.81c-0.74,0.44-1.59,0.66-2.56,0.66c-1.41,0-2.52-0.42-3.32-1.25c-0.8-0.83-1.21-1.98-1.21-3.42
				c0-0.97,0.2-1.84,0.61-2.61c0.41-0.77,0.97-1.37,1.7-1.82C399.29,209.12,400.14,208.9,401.13,208.9z M400.85,216.66
				c0.74,0,1.33-0.28,1.78-0.84c0.45-0.56,0.67-1.31,0.67-2.25c0-0.85-0.2-1.5-0.59-1.96c-0.39-0.46-0.93-0.69-1.62-0.69
				c-0.76,0-1.37,0.28-1.81,0.84c-0.45,0.56-0.67,1.3-0.67,2.23c0,0.85,0.2,1.51,0.59,1.97
				C399.59,216.43,400.14,216.66,400.85,216.66z"/>
			<path class="st4" d="M413.7,211.25c-0.25-0.09-0.57-0.13-0.95-0.13c-0.67,0-1.22,0.25-1.63,0.74c-0.41,0.49-0.71,1.28-0.91,2.36
				c-0.19,1.08-0.29,2.5-0.29,4.27h-2.26v-6.1l-0.02-3.35h2.28l-0.11,2.64c0.32-1.01,0.78-1.73,1.36-2.15
				c0.58-0.42,1.2-0.64,1.86-0.64c0.2,0,0.39,0.01,0.56,0.04s0.34,0.06,0.49,0.11L413.7,211.25z"/>
			<path class="st4" d="M419.35,218.66c-1.02,0-1.91-0.19-2.65-0.57c-0.74-0.38-1.31-0.93-1.71-1.64c-0.4-0.71-0.6-1.56-0.6-2.54
				s0.21-1.85,0.62-2.61c0.41-0.75,0.97-1.34,1.67-1.77c0.7-0.42,1.51-0.64,2.4-0.64c1.46,0,2.53,0.5,3.23,1.49
				c0.69,0.99,0.93,2.36,0.72,4.11h-6.32c0.05,0.66,0.32,1.19,0.8,1.59c0.49,0.4,1.15,0.6,2,0.6c0.4,0,0.8-0.09,1.21-0.26
				c0.4-0.17,0.75-0.44,1.04-0.8l1.33,1.35c-0.42,0.54-0.94,0.95-1.54,1.25C420.94,218.51,420.21,218.66,419.35,218.66z
				 M419.12,210.62c-0.64,0-1.16,0.2-1.57,0.6c-0.41,0.4-0.67,0.93-0.79,1.61h4.3c0.02-0.77-0.14-1.33-0.5-1.68
				C420.2,210.79,419.72,210.62,419.12,210.62z"/>
			<path class="st4" d="M428.31,218.66c-1.3,0-2.29-0.25-2.97-0.74c-0.69-0.49-1.08-1.18-1.2-2.07l1.93-0.47
				c0.08,0.47,0.29,0.84,0.66,1.09c0.36,0.26,0.88,0.38,1.55,0.38c0.55,0,0.96-0.09,1.24-0.26c0.28-0.17,0.42-0.41,0.42-0.71
				c0-0.3-0.15-0.53-0.46-0.69s-0.78-0.31-1.41-0.43c-0.71-0.14-1.32-0.31-1.82-0.52s-0.89-0.5-1.16-0.87
				c-0.27-0.37-0.4-0.85-0.4-1.45c0-0.57,0.16-1.09,0.49-1.54c0.32-0.46,0.77-0.82,1.34-1.08c0.57-0.27,1.22-0.4,1.96-0.4
				c0.99,0,1.79,0.23,2.42,0.69c0.63,0.46,1.01,1.05,1.13,1.78l-1.89,0.5c-0.09-0.36-0.27-0.65-0.56-0.85
				c-0.29-0.21-0.67-0.31-1.16-0.31s-0.86,0.1-1.11,0.3c-0.26,0.2-0.38,0.45-0.38,0.75c0,0.3,0.15,0.53,0.44,0.7
				c0.29,0.17,0.79,0.33,1.51,0.48c0.66,0.14,1.24,0.31,1.73,0.51c0.49,0.21,0.88,0.49,1.17,0.84s0.43,0.83,0.43,1.43
				c0,0.59-0.17,1.1-0.5,1.54c-0.33,0.44-0.79,0.79-1.38,1.03S429.06,218.66,428.31,218.66z"/>
		</g>
		<g class="st2">
			<path class="st4" d="M367.46,241.11c-1.43,0-2.57-0.41-3.4-1.24c-0.84-0.83-1.25-1.99-1.25-3.47c0-1,0.21-1.88,0.62-2.64
				c0.41-0.76,0.98-1.35,1.72-1.78c0.74-0.42,1.58-0.64,2.54-0.64c0.8,0,1.5,0.16,2.09,0.47c0.6,0.31,1.08,0.8,1.46,1.46l-1.63,1.24
				c-0.24-0.4-0.51-0.69-0.81-0.86s-0.68-0.26-1.11-0.26c-0.74,0-1.34,0.27-1.8,0.82c-0.47,0.55-0.7,1.27-0.7,2.17
				c0,0.87,0.21,1.54,0.63,2.01s1.02,0.7,1.8,0.7c0.41,0,0.8-0.09,1.15-0.28c0.36-0.19,0.65-0.48,0.89-0.88l1.59,1.27
				c-0.42,0.69-0.96,1.17-1.61,1.47S368.26,241.11,367.46,241.11z"/>
			<path class="st4" d="M372.47,240.94V227.1h2.28l0.02,4.4l-0.13,2.36c0.37-0.8,0.87-1.42,1.49-1.85s1.32-0.66,2.12-0.66
				c1.06,0,1.86,0.37,2.4,1.09c0.54,0.73,0.81,1.77,0.79,3.13l-0.04,5.37h-2.28l0.04-5.18c0.01-0.74-0.1-1.3-0.35-1.69
				c-0.24-0.39-0.63-0.59-1.17-0.59c-0.41,0-0.79,0.12-1.14,0.36c-0.35,0.24-0.65,0.64-0.92,1.21s-0.47,1.33-0.62,2.3
				c-0.15,0.97-0.23,2.17-0.24,3.6H372.47z"/>
			<path class="st4" d="M392.58,231.53v9.41h-2.32l0.08-1.65c-0.34,0.57-0.78,1.02-1.32,1.34c-0.54,0.32-1.16,0.48-1.86,0.48
				c-0.82,0-1.52-0.19-2.1-0.57c-0.57-0.38-1.01-0.91-1.31-1.58c-0.3-0.67-0.45-1.45-0.45-2.32c0-1.05,0.21-1.97,0.62-2.76
				c0.41-0.79,0.98-1.41,1.69-1.86s1.52-0.67,2.42-0.67c0.6,0,1.13,0.13,1.59,0.38c0.46,0.26,0.82,0.6,1.07,1.02l0.22-1.22H392.58z
				 M388.2,233.37c-0.77,0-1.39,0.29-1.85,0.88c-0.46,0.59-0.69,1.35-0.69,2.3c0,0.81,0.17,1.44,0.52,1.89
				c0.35,0.45,0.83,0.67,1.44,0.67c0.5,0,0.95-0.14,1.36-0.43c0.41-0.29,0.73-0.69,0.96-1.2c0.24-0.51,0.36-1.1,0.36-1.76
				c0-0.74-0.19-1.31-0.56-1.73S388.85,233.37,388.2,233.37z"/>
			<path class="st4" d="M395.01,240.94v-9.45h2.28l-0.11,2.38c0.36-0.81,0.85-1.43,1.48-1.87c0.62-0.44,1.33-0.66,2.13-0.66
				c1.06,0,1.86,0.37,2.4,1.09c0.54,0.73,0.81,1.77,0.79,3.13l-0.04,5.37h-2.28l0.04-5.18c0.01-0.74-0.1-1.3-0.35-1.69
				c-0.24-0.39-0.63-0.59-1.17-0.59c-0.41,0-0.79,0.12-1.14,0.36c-0.35,0.24-0.66,0.64-0.92,1.21s-0.47,1.33-0.62,2.3
				c-0.15,0.97-0.23,2.17-0.24,3.6H395.01z"/>
			<path class="st4" d="M410.5,241.11c-1.43,0-2.57-0.41-3.41-1.24c-0.83-0.83-1.25-1.99-1.25-3.47c0-1,0.21-1.88,0.62-2.64
				c0.41-0.76,0.99-1.35,1.72-1.78c0.74-0.42,1.58-0.64,2.54-0.64c0.8,0,1.5,0.16,2.09,0.47c0.6,0.31,1.08,0.8,1.46,1.46l-1.63,1.24
				c-0.24-0.4-0.51-0.69-0.81-0.86s-0.68-0.26-1.11-0.26c-0.74,0-1.34,0.27-1.81,0.82s-0.7,1.27-0.7,2.17
				c0,0.87,0.21,1.54,0.63,2.01s1.02,0.7,1.81,0.7c0.41,0,0.79-0.09,1.15-0.28c0.36-0.19,0.65-0.48,0.89-0.88l1.59,1.27
				c-0.42,0.69-0.96,1.17-1.61,1.47S411.3,241.11,410.5,241.11z"/>
			<path class="st4" d="M419.65,241.11c-1.02,0-1.91-0.19-2.65-0.57c-0.74-0.38-1.31-0.93-1.71-1.64c-0.4-0.71-0.6-1.56-0.6-2.54
				s0.21-1.85,0.62-2.61c0.41-0.75,0.97-1.34,1.67-1.77c0.7-0.42,1.51-0.64,2.4-0.64c1.46,0,2.53,0.5,3.23,1.49
				c0.69,0.99,0.93,2.36,0.72,4.11h-6.32c0.05,0.66,0.32,1.19,0.8,1.59c0.49,0.4,1.15,0.6,2,0.6c0.4,0,0.8-0.09,1.21-0.26
				c0.4-0.17,0.75-0.44,1.04-0.8l1.33,1.35c-0.42,0.54-0.94,0.95-1.54,1.25C421.24,240.96,420.51,241.11,419.65,241.11z
				 M419.42,233.07c-0.64,0-1.16,0.2-1.57,0.6c-0.41,0.4-0.67,0.93-0.79,1.61h4.3c0.02-0.77-0.14-1.33-0.5-1.68
				C420.5,233.24,420.02,233.07,419.42,233.07z"/>
			<path class="st4" d="M428.61,241.11c-1.3,0-2.29-0.25-2.97-0.74c-0.69-0.49-1.08-1.18-1.2-2.07l1.93-0.47
				c0.08,0.47,0.29,0.84,0.66,1.09c0.36,0.26,0.88,0.38,1.55,0.38c0.55,0,0.96-0.09,1.24-0.26c0.28-0.17,0.42-0.41,0.42-0.71
				c0-0.3-0.15-0.53-0.46-0.69s-0.78-0.31-1.41-0.43c-0.71-0.14-1.32-0.31-1.82-0.52s-0.89-0.5-1.16-0.87
				c-0.27-0.37-0.4-0.85-0.4-1.45c0-0.57,0.16-1.09,0.49-1.54c0.32-0.46,0.77-0.82,1.34-1.08c0.57-0.27,1.22-0.4,1.96-0.4
				c0.99,0,1.79,0.23,2.42,0.69c0.63,0.46,1.01,1.05,1.13,1.78l-1.89,0.5c-0.09-0.36-0.27-0.65-0.56-0.85
				c-0.29-0.21-0.67-0.31-1.16-0.31s-0.86,0.1-1.11,0.3c-0.26,0.2-0.38,0.45-0.38,0.75c0,0.3,0.15,0.53,0.44,0.7
				c0.29,0.17,0.79,0.33,1.51,0.48c0.66,0.14,1.24,0.31,1.73,0.51c0.49,0.21,0.88,0.49,1.17,0.84s0.43,0.83,0.43,1.43
				c0,0.59-0.17,1.1-0.5,1.54c-0.33,0.44-0.79,0.79-1.38,1.03S429.36,241.11,428.61,241.11z"/>
			<path class="st4" d="M447.5,227.1v13.84h-2.32l0.07-1.65c-0.34,0.59-0.77,1.04-1.31,1.35c-0.54,0.31-1.16,0.47-1.87,0.47
				c-0.82,0-1.52-0.19-2.09-0.57c-0.57-0.38-1.01-0.91-1.31-1.58c-0.3-0.67-0.45-1.45-0.45-2.32c0-1.05,0.21-1.97,0.62-2.76
				c0.41-0.79,0.98-1.41,1.69-1.86c0.72-0.45,1.52-0.67,2.42-0.67c0.47,0,0.91,0.08,1.3,0.24c0.39,0.16,0.72,0.39,0.98,0.67
				l-0.02-0.77v-4.4H447.5z M443.12,233.37c-0.77,0-1.39,0.29-1.85,0.88c-0.46,0.59-0.69,1.35-0.69,2.3c0,0.81,0.17,1.44,0.52,1.89
				c0.35,0.45,0.83,0.67,1.44,0.67c0.5,0,0.95-0.14,1.36-0.43c0.4-0.29,0.73-0.69,0.96-1.2c0.24-0.51,0.36-1.1,0.36-1.76
				c0-0.74-0.19-1.31-0.56-1.73C444.28,233.58,443.77,233.37,443.12,233.37z"/>
			<path class="st4" d="M454.44,241.11c-1.02,0-1.91-0.19-2.65-0.57c-0.74-0.38-1.31-0.93-1.71-1.64s-0.6-1.56-0.6-2.54
				s0.21-1.85,0.62-2.61c0.41-0.75,0.97-1.34,1.67-1.77c0.7-0.42,1.51-0.64,2.4-0.64c1.46,0,2.54,0.5,3.23,1.49
				c0.69,0.99,0.93,2.36,0.72,4.11h-6.32c0.05,0.66,0.32,1.19,0.8,1.59s1.15,0.6,2,0.6c0.4,0,0.8-0.09,1.21-0.26s0.75-0.44,1.04-0.8
				l1.33,1.35c-0.42,0.54-0.94,0.95-1.54,1.25C456.03,240.96,455.3,241.11,454.44,241.11z M454.22,233.07c-0.64,0-1.16,0.2-1.57,0.6
				c-0.41,0.4-0.67,0.93-0.79,1.61h4.3c0.03-0.77-0.14-1.33-0.5-1.68C455.29,233.24,454.81,233.07,454.22,233.07z"/>
		</g>
		<g class="st2">
			<path class="st4" d="M367.68,253.79c1.41,0,2.52,0.42,3.32,1.26s1.21,1.98,1.21,3.41c0,0.97-0.2,1.84-0.61,2.61
				c-0.41,0.77-0.98,1.37-1.71,1.81c-0.74,0.44-1.59,0.66-2.56,0.66c-1.41,0-2.52-0.42-3.32-1.25c-0.8-0.83-1.21-1.98-1.21-3.42
				c0-0.97,0.2-1.84,0.61-2.61c0.41-0.77,0.97-1.37,1.7-1.82C365.84,254.01,366.7,253.79,367.68,253.79z M367.4,261.55
				c0.74,0,1.33-0.28,1.78-0.84c0.45-0.56,0.67-1.31,0.67-2.25c0-0.85-0.2-1.5-0.59-1.96c-0.39-0.46-0.93-0.69-1.62-0.69
				c-0.76,0-1.37,0.28-1.81,0.84c-0.45,0.56-0.67,1.3-0.67,2.23c0,0.85,0.2,1.51,0.59,1.97
				C366.14,261.32,366.69,261.55,367.4,261.55z"/>
			<path class="st4" d="M374.19,263.38v-13.84h2.28v4.4l-0.08,1.72c0.34-0.6,0.78-1.06,1.32-1.38c0.54-0.32,1.17-0.49,1.88-0.49
				c0.83,0,1.54,0.19,2.11,0.58c0.57,0.39,1.01,0.92,1.31,1.59c0.3,0.67,0.45,1.44,0.45,2.3c0,1.05-0.21,1.97-0.62,2.77
				c-0.41,0.8-0.98,1.42-1.69,1.86c-0.72,0.44-1.52,0.66-2.42,0.66c-0.61,0-1.15-0.13-1.61-0.38c-0.46-0.26-0.81-0.6-1.05-1.02
				l-0.22,1.23H374.19z M378.55,261.55c0.79,0,1.41-0.3,1.87-0.9c0.46-0.6,0.69-1.37,0.69-2.32c0-0.8-0.17-1.42-0.52-1.86
				c-0.35-0.44-0.83-0.66-1.44-0.66c-0.51,0-0.97,0.14-1.37,0.42c-0.4,0.28-0.72,0.67-0.95,1.18c-0.24,0.5-0.36,1.09-0.36,1.75
				c0,0.74,0.19,1.32,0.56,1.75S377.92,261.55,378.55,261.55z"/>
			<path class="st4" d="M389.36,263.55c-1.14,0-2.02-0.31-2.65-0.93c-0.63-0.62-0.94-1.44-0.93-2.45l0.08-4.32h-1.61v-1.91h1.65
				l0.02-1.95h2.28l-0.04,1.95h3.09v1.91h-3.11l-0.06,4.08c-0.01,0.51,0.12,0.91,0.38,1.21c0.27,0.29,0.67,0.44,1.21,0.44
				c0.29,0,0.55-0.04,0.8-0.11c0.25-0.08,0.51-0.21,0.79-0.41l0.67,1.76c-0.29,0.25-0.66,0.44-1.1,0.56
				C390.39,263.49,389.9,263.55,389.36,263.55z"/>
			<path class="st4" d="M397.26,263.55c-1.02,0-1.91-0.19-2.65-0.57c-0.74-0.38-1.31-0.93-1.71-1.64s-0.6-1.56-0.6-2.54
				s0.21-1.85,0.62-2.61c0.41-0.75,0.97-1.34,1.67-1.77c0.7-0.42,1.51-0.64,2.4-0.64c1.46,0,2.54,0.5,3.23,1.49
				c0.69,0.99,0.93,2.36,0.72,4.11h-6.32c0.05,0.66,0.32,1.19,0.8,1.59s1.15,0.6,2,0.6c0.4,0,0.8-0.09,1.21-0.26s0.75-0.44,1.04-0.8
				l1.33,1.35c-0.42,0.54-0.94,0.95-1.54,1.25C398.85,263.4,398.12,263.55,397.26,263.55z M397.03,255.51c-0.64,0-1.16,0.2-1.57,0.6
				c-0.41,0.4-0.67,0.93-0.79,1.61h4.3c0.03-0.77-0.14-1.33-0.5-1.68C398.11,255.68,397.63,255.51,397.03,255.51z"/>
			<path class="st4" d="M408.97,256.14c-0.25-0.09-0.57-0.13-0.95-0.13c-0.67,0-1.22,0.25-1.63,0.74c-0.41,0.49-0.71,1.28-0.91,2.36
				c-0.19,1.08-0.29,2.5-0.29,4.27h-2.26v-6.1l-0.02-3.35h2.28l-0.11,2.64c0.32-1.01,0.78-1.73,1.36-2.15
				c0.58-0.42,1.2-0.64,1.86-0.64c0.2,0,0.39,0.01,0.56,0.04s0.34,0.06,0.49,0.11L408.97,256.14z"/>
		</g>
		<g class="st2">
			<path class="st4" d="M369.31,278.59c-0.25-0.09-0.57-0.13-0.95-0.13c-0.67,0-1.22,0.25-1.63,0.74c-0.41,0.49-0.71,1.28-0.91,2.36
				c-0.19,1.08-0.29,2.5-0.29,4.27h-2.26v-6.1l-0.02-3.35h2.28l-0.11,2.64c0.32-1.01,0.78-1.73,1.36-2.15s1.2-0.64,1.86-0.64
				c0.2,0,0.39,0.01,0.56,0.04c0.17,0.03,0.34,0.06,0.49,0.11L369.31,278.59z"/>
			<path class="st4" d="M374.96,286c-1.02,0-1.91-0.19-2.65-0.57c-0.74-0.38-1.31-0.93-1.71-1.64s-0.6-1.56-0.6-2.54
				s0.21-1.85,0.62-2.61c0.41-0.75,0.97-1.34,1.67-1.77c0.7-0.42,1.51-0.64,2.4-0.64c1.46,0,2.54,0.5,3.23,1.49
				c0.69,0.99,0.93,2.36,0.72,4.11h-6.32c0.05,0.66,0.32,1.19,0.8,1.59s1.15,0.6,2,0.6c0.4,0,0.8-0.09,1.21-0.26s0.75-0.44,1.04-0.8
				l1.33,1.35c-0.42,0.54-0.94,0.95-1.54,1.25C376.55,285.85,375.82,286,374.96,286z M374.73,277.96c-0.64,0-1.16,0.2-1.57,0.6
				c-0.41,0.4-0.67,0.93-0.79,1.61h4.3c0.03-0.77-0.14-1.33-0.5-1.68C375.81,278.13,375.33,277.96,374.73,277.96z"/>
			<path class="st4" d="M383.92,286c-1.3,0-2.29-0.25-2.97-0.74c-0.69-0.49-1.08-1.18-1.2-2.07l1.93-0.47
				c0.08,0.47,0.29,0.84,0.66,1.09c0.36,0.26,0.88,0.38,1.55,0.38c0.55,0,0.96-0.09,1.24-0.26c0.28-0.17,0.42-0.41,0.42-0.71
				c0-0.3-0.15-0.53-0.46-0.69s-0.78-0.31-1.41-0.43c-0.71-0.14-1.32-0.31-1.82-0.52s-0.89-0.5-1.16-0.87
				c-0.27-0.37-0.4-0.85-0.4-1.45c0-0.57,0.16-1.09,0.49-1.54c0.32-0.46,0.77-0.82,1.34-1.08c0.57-0.27,1.22-0.4,1.96-0.4
				c0.99,0,1.79,0.23,2.42,0.69c0.63,0.46,1.01,1.05,1.13,1.78l-1.89,0.5c-0.09-0.36-0.27-0.65-0.56-0.85
				c-0.29-0.21-0.67-0.31-1.16-0.31s-0.86,0.1-1.11,0.3c-0.26,0.2-0.38,0.45-0.38,0.75c0,0.3,0.15,0.53,0.44,0.7
				c0.29,0.17,0.79,0.33,1.51,0.48c0.66,0.14,1.24,0.31,1.73,0.51c0.49,0.21,0.88,0.49,1.17,0.84s0.43,0.83,0.43,1.43
				c0,0.59-0.17,1.1-0.5,1.54c-0.33,0.44-0.79,0.79-1.38,1.03S384.67,286,383.92,286z"/>
			<path class="st4" d="M392.45,286c-1.05,0-1.84-0.36-2.37-1.07c-0.53-0.71-0.79-1.7-0.78-2.96l0.04-5.59h2.28l-0.04,5.39
				c-0.01,0.65,0.1,1.16,0.34,1.53c0.24,0.37,0.61,0.56,1.12,0.56c0.4,0,0.77-0.12,1.11-0.36c0.34-0.24,0.64-0.64,0.89-1.21
				c0.25-0.57,0.45-1.33,0.59-2.3c0.14-0.97,0.21-2.17,0.21-3.62h2.21v9.45h-2.3l0.13-2.15c-0.37,0.76-0.86,1.34-1.45,1.73
				C393.85,285.81,393.18,286,392.45,286z"/>
			<path class="st4" d="M403.22,286c-0.9,0-1.58-0.24-2.04-0.73c-0.46-0.49-0.69-1.18-0.69-2.08v-11.21h2.28v11.02
				c0,0.67,0.31,1.01,0.94,1.01c0.31,0,0.59-0.08,0.82-0.22l0.56,1.67c-0.2,0.15-0.47,0.28-0.8,0.38
				C403.95,285.95,403.6,286,403.22,286z"/>
			<path class="st4" d="M409.77,286c-1.13,0-2.02-0.31-2.65-0.93c-0.63-0.62-0.94-1.44-0.93-2.45l0.08-4.32h-1.61v-1.91h1.65
				l0.02-1.95h2.28l-0.04,1.95h3.09v1.91h-3.11l-0.06,4.08c-0.01,0.51,0.12,0.91,0.38,1.21s0.67,0.44,1.21,0.44
				c0.29,0,0.55-0.04,0.8-0.11c0.25-0.08,0.51-0.21,0.79-0.41l0.67,1.76c-0.29,0.25-0.65,0.44-1.1,0.56
				C410.8,285.94,410.31,286,409.77,286z"/>
			<path class="st4" d="M421.99,276.42v9.41h-2.32l0.08-1.65c-0.34,0.57-0.78,1.02-1.32,1.34c-0.54,0.32-1.16,0.48-1.86,0.48
				c-0.82,0-1.52-0.19-2.1-0.57c-0.57-0.38-1.01-0.91-1.31-1.58c-0.3-0.67-0.45-1.45-0.45-2.32c0-1.05,0.21-1.97,0.62-2.76
				c0.41-0.79,0.98-1.41,1.69-1.86s1.52-0.67,2.42-0.67c0.6,0,1.13,0.13,1.59,0.38c0.46,0.26,0.82,0.6,1.07,1.02l0.22-1.22H421.99z
				 M417.61,278.26c-0.77,0-1.39,0.29-1.85,0.88c-0.46,0.59-0.69,1.35-0.69,2.3c0,0.81,0.17,1.44,0.52,1.89
				c0.35,0.45,0.83,0.67,1.44,0.67c0.5,0,0.95-0.14,1.36-0.43c0.41-0.29,0.73-0.69,0.96-1.2c0.24-0.51,0.36-1.1,0.36-1.76
				c0-0.74-0.19-1.31-0.56-1.73S418.26,278.26,417.61,278.26z"/>
			<path class="st4" d="M433.25,271.99v13.84h-2.32l0.08-1.65c-0.34,0.59-0.77,1.04-1.31,1.35c-0.54,0.31-1.16,0.47-1.87,0.47
				c-0.82,0-1.52-0.19-2.1-0.57c-0.57-0.38-1.01-0.91-1.31-1.58c-0.3-0.67-0.45-1.45-0.45-2.32c0-1.05,0.21-1.97,0.62-2.76
				c0.41-0.79,0.98-1.41,1.69-1.86s1.52-0.67,2.42-0.67c0.47,0,0.91,0.08,1.3,0.24c0.39,0.16,0.72,0.39,0.98,0.67l-0.02-0.77v-4.4
				H433.25z M428.87,278.26c-0.77,0-1.39,0.29-1.85,0.88c-0.46,0.59-0.69,1.35-0.69,2.3c0,0.81,0.17,1.44,0.52,1.89
				c0.35,0.45,0.83,0.67,1.44,0.67c0.5,0,0.95-0.14,1.36-0.43c0.41-0.29,0.73-0.69,0.96-1.2c0.24-0.51,0.36-1.1,0.36-1.76
				c0-0.74-0.19-1.31-0.56-1.73S429.52,278.26,428.87,278.26z"/>
			<path class="st4" d="M440.11,276.24c1.41,0,2.52,0.42,3.32,1.26c0.8,0.84,1.21,1.98,1.21,3.41c0,0.97-0.2,1.84-0.61,2.61
				c-0.41,0.77-0.98,1.37-1.71,1.81c-0.74,0.44-1.59,0.66-2.56,0.66c-1.41,0-2.52-0.42-3.32-1.25c-0.8-0.83-1.21-1.98-1.21-3.42
				c0-0.97,0.2-1.84,0.61-2.61c0.4-0.77,0.97-1.37,1.7-1.82C438.27,276.46,439.13,276.24,440.11,276.24z M439.83,284
				c0.74,0,1.33-0.28,1.78-0.84c0.45-0.56,0.67-1.31,0.67-2.25c0-0.85-0.2-1.5-0.59-1.96c-0.39-0.46-0.93-0.69-1.62-0.69
				c-0.76,0-1.37,0.28-1.81,0.84c-0.45,0.56-0.67,1.3-0.67,2.23c0,0.85,0.2,1.51,0.59,1.97C438.57,283.77,439.12,284,439.83,284z"/>
			<path class="st4" d="M449.93,286c-1.3,0-2.29-0.25-2.97-0.74c-0.69-0.49-1.08-1.18-1.2-2.07l1.93-0.47
				c0.08,0.47,0.29,0.84,0.66,1.09c0.36,0.26,0.88,0.38,1.55,0.38c0.55,0,0.96-0.09,1.24-0.26c0.28-0.17,0.42-0.41,0.42-0.71
				c0-0.3-0.15-0.53-0.46-0.69s-0.78-0.31-1.41-0.43c-0.71-0.14-1.32-0.31-1.82-0.52s-0.89-0.5-1.16-0.87
				c-0.27-0.37-0.4-0.85-0.4-1.45c0-0.57,0.16-1.09,0.49-1.54c0.32-0.46,0.77-0.82,1.34-1.08c0.57-0.27,1.22-0.4,1.96-0.4
				c0.99,0,1.79,0.23,2.42,0.69c0.63,0.46,1.01,1.05,1.13,1.78l-1.89,0.5c-0.09-0.36-0.27-0.65-0.56-0.85
				c-0.29-0.21-0.67-0.31-1.16-0.31s-0.86,0.1-1.11,0.3c-0.26,0.2-0.38,0.45-0.38,0.75c0,0.3,0.15,0.53,0.44,0.7
				c0.29,0.17,0.79,0.33,1.51,0.48c0.66,0.14,1.24,0.31,1.73,0.51c0.49,0.21,0.88,0.49,1.17,0.84s0.43,0.83,0.43,1.43
				c0,0.59-0.17,1.1-0.5,1.54c-0.33,0.44-0.79,0.79-1.38,1.03S450.68,286,449.93,286z"/>
		</g>
		<g class="st2">
			<path class="st4" d="M363.25,312.02v-13.19h2.3l-0.07,1.68c0.34-0.59,0.77-1.04,1.31-1.36c0.54-0.32,1.16-0.48,1.87-0.48
				c0.84,0,1.54,0.19,2.11,0.58c0.57,0.39,1.01,0.92,1.31,1.59c0.3,0.67,0.45,1.44,0.45,2.3c0,1.05-0.21,1.97-0.62,2.77
				c-0.41,0.8-0.98,1.42-1.69,1.86c-0.72,0.44-1.53,0.66-2.44,0.66c-0.47,0-0.9-0.08-1.29-0.24c-0.39-0.16-0.71-0.38-0.97-0.65
				l0.02,0.73v3.74H363.25z M367.61,306.45c0.79,0,1.41-0.3,1.87-0.9c0.46-0.6,0.69-1.37,0.69-2.32c0-0.8-0.17-1.42-0.52-1.86
				c-0.35-0.44-0.83-0.66-1.44-0.66c-0.51,0-0.97,0.14-1.37,0.42c-0.4,0.28-0.72,0.67-0.95,1.18s-0.36,1.09-0.36,1.75
				c0,0.74,0.19,1.32,0.56,1.75S366.97,306.45,367.61,306.45z"/>
			<path class="st4" d="M378.94,298.69c1.41,0,2.52,0.42,3.32,1.26s1.21,1.98,1.21,3.41c0,0.97-0.2,1.84-0.61,2.61
				c-0.41,0.77-0.98,1.37-1.71,1.81c-0.74,0.44-1.59,0.66-2.56,0.66c-1.41,0-2.52-0.42-3.32-1.25c-0.8-0.83-1.21-1.98-1.21-3.42
				c0-0.97,0.2-1.84,0.61-2.61c0.41-0.77,0.97-1.37,1.7-1.82C377.1,298.91,377.96,298.69,378.94,298.69z M378.66,306.45
				c0.74,0,1.33-0.28,1.78-0.84c0.45-0.56,0.67-1.31,0.67-2.25c0-0.85-0.2-1.5-0.59-1.96c-0.39-0.46-0.93-0.69-1.62-0.69
				c-0.76,0-1.37,0.28-1.81,0.84c-0.45,0.56-0.67,1.3-0.67,2.23c0,0.85,0.2,1.51,0.59,1.97
				C377.4,306.22,377.95,306.45,378.66,306.45z"/>
			<path class="st4" d="M388.76,308.45c-1.3,0-2.29-0.25-2.97-0.74c-0.69-0.49-1.08-1.18-1.2-2.07l1.93-0.47
				c0.07,0.47,0.29,0.84,0.65,1.09s0.88,0.38,1.55,0.38c0.55,0,0.96-0.09,1.24-0.26c0.28-0.17,0.42-0.41,0.42-0.71
				c0-0.3-0.15-0.53-0.46-0.69s-0.78-0.31-1.41-0.43c-0.71-0.14-1.32-0.31-1.82-0.52c-0.51-0.21-0.89-0.5-1.16-0.87
				c-0.27-0.37-0.4-0.85-0.4-1.45c0-0.57,0.16-1.09,0.49-1.54c0.32-0.46,0.77-0.82,1.34-1.08c0.57-0.27,1.22-0.4,1.96-0.4
				c0.98,0,1.79,0.23,2.42,0.69c0.63,0.46,1.01,1.05,1.13,1.78l-1.89,0.5c-0.09-0.36-0.27-0.65-0.56-0.85
				c-0.29-0.21-0.67-0.31-1.16-0.31s-0.86,0.1-1.11,0.3s-0.38,0.45-0.38,0.75c0,0.3,0.15,0.53,0.44,0.7
				c0.29,0.17,0.79,0.33,1.51,0.48c0.66,0.14,1.24,0.31,1.73,0.51c0.49,0.21,0.88,0.49,1.17,0.84c0.29,0.36,0.43,0.83,0.43,1.43
				c0,0.59-0.17,1.1-0.5,1.54c-0.33,0.44-0.79,0.79-1.38,1.03C390.18,308.33,389.51,308.45,388.76,308.45z"/>
			<path class="st4" d="M395.42,297.34c-0.45,0-0.8-0.14-1.07-0.41c-0.26-0.27-0.39-0.6-0.39-0.99s0.13-0.72,0.39-0.99
				c0.26-0.27,0.62-0.41,1.07-0.41c0.45,0,0.8,0.14,1.07,0.41c0.26,0.27,0.39,0.61,0.39,0.99s-0.13,0.72-0.39,0.99
				S395.87,297.34,395.42,297.34z M396.56,298.84v9.45h-2.28v-9.45H396.56z"/>
			<path class="st4" d="M403,308.45c-1.13,0-2.02-0.31-2.65-0.93c-0.63-0.62-0.94-1.44-0.93-2.45l0.08-4.32h-1.61v-1.91h1.65
				l0.02-1.95h2.28l-0.04,1.95h3.09v1.91h-3.11l-0.06,4.08c-0.01,0.51,0.12,0.91,0.38,1.21s0.67,0.44,1.21,0.44
				c0.29,0,0.55-0.04,0.8-0.11c0.25-0.08,0.51-0.21,0.79-0.41l0.67,1.76c-0.29,0.25-0.65,0.44-1.1,0.56
				C404.03,308.39,403.54,308.45,403,308.45z"/>
			<path class="st4" d="M407.71,297.34c-0.45,0-0.8-0.14-1.07-0.41c-0.26-0.27-0.39-0.6-0.39-0.99s0.13-0.72,0.39-0.99
				c0.26-0.27,0.62-0.41,1.07-0.41c0.45,0,0.8,0.14,1.07,0.41c0.26,0.27,0.39,0.61,0.39,0.99s-0.13,0.72-0.39,0.99
				S408.16,297.34,407.71,297.34z M408.85,298.84v9.45h-2.28v-9.45H408.85z"/>
			<path class="st4" d="M417.81,298.84h2.28l-3.54,9.45h-3.25l-2.99-9.45h2.47l2.28,7.59L417.81,298.84z"/>
			<path class="st4" d="M425.24,298.69c1.41,0,2.52,0.42,3.32,1.26s1.21,1.98,1.21,3.41c0,0.97-0.2,1.84-0.61,2.61
				c-0.41,0.77-0.98,1.37-1.71,1.81c-0.74,0.44-1.59,0.66-2.56,0.66c-1.41,0-2.52-0.42-3.32-1.25c-0.8-0.83-1.21-1.98-1.21-3.42
				c0-0.97,0.2-1.84,0.61-2.61c0.41-0.77,0.97-1.37,1.7-1.82C423.4,298.91,424.25,298.69,425.24,298.69z M424.96,306.45
				c0.74,0,1.33-0.28,1.78-0.84c0.45-0.56,0.67-1.31,0.67-2.25c0-0.85-0.2-1.5-0.59-1.96c-0.39-0.46-0.93-0.69-1.62-0.69
				c-0.76,0-1.37,0.28-1.81,0.84c-0.45,0.56-0.67,1.3-0.67,2.23c0,0.85,0.2,1.51,0.59,1.97
				C423.7,306.22,424.25,306.45,424.96,306.45z"/>
			<path class="st4" d="M435.06,308.45c-1.3,0-2.29-0.25-2.97-0.74c-0.69-0.49-1.08-1.18-1.2-2.07l1.93-0.47
				c0.07,0.47,0.29,0.84,0.65,1.09s0.88,0.38,1.55,0.38c0.55,0,0.96-0.09,1.24-0.26c0.28-0.17,0.42-0.41,0.42-0.71
				c0-0.3-0.15-0.53-0.46-0.69s-0.78-0.31-1.41-0.43c-0.71-0.14-1.32-0.31-1.82-0.52c-0.51-0.21-0.89-0.5-1.16-0.87
				c-0.27-0.37-0.4-0.85-0.4-1.45c0-0.57,0.16-1.09,0.49-1.54c0.32-0.46,0.77-0.82,1.34-1.08c0.57-0.27,1.22-0.4,1.96-0.4
				c0.98,0,1.79,0.23,2.42,0.69c0.63,0.46,1.01,1.05,1.13,1.78l-1.89,0.5c-0.09-0.36-0.27-0.65-0.56-0.85
				c-0.29-0.21-0.67-0.31-1.16-0.31s-0.86,0.1-1.11,0.3s-0.38,0.45-0.38,0.75c0,0.3,0.15,0.53,0.44,0.7
				c0.29,0.17,0.79,0.33,1.51,0.48c0.66,0.14,1.24,0.31,1.73,0.51c0.49,0.21,0.88,0.49,1.17,0.84c0.29,0.36,0.43,0.83,0.43,1.43
				c0,0.59-0.17,1.1-0.5,1.54c-0.33,0.44-0.79,0.79-1.38,1.03C436.48,308.33,435.81,308.45,435.06,308.45z"/>
		</g>
	</g>
</g>
</svg>
