<svg id="Camada_1" data-name="Camada 1" xmlns="http://www.w3.org/2000/svg" xmlns:xlink="http://www.w3.org/1999/xlink" viewBox="0 0 292.82 341.48"><defs><style>.cls-1,.cls-10,.cls-13{fill:none;}.cls-2,.cls-4{fill:#efefef;}.cls-2{opacity:0;}.cls-3{clip-path:url(#clip-path);}.cls-5{fill:#6960e5;}.cls-6{fill:#ff278f;}.cls-7{fill:#fff;}.cls-8{fill:#ff36ce;}.cls-9{fill:#a045ef;}.cls-10{stroke:#6960e5;stroke-miterlimit:10;stroke-width:1.5px;}.cls-11{fill:#ae4ef2;}.cls-12{fill:#ffa9ea;}.cls-13{stroke:#fff;stroke-linecap:round;stroke-linejoin:round;stroke-width:1.76px;}.cls-14{fill:#e89ee1;}.cls-15{fill:#f2c0ed;}.cls-16{fill:#6660e2;}</style><clipPath id="clip-path" transform="translate(0 0)"><rect class="cls-1" width="292.82" height="341.57"/></clipPath></defs><title>info11</title><rect class="cls-2" width="292.82" height="341.48"/><g class="cls-3"><path class="cls-4" d="M2.94,48.81H278.8A5.14,5.14,0,0,1,283.94,54v2.14a12.85,12.85,0,0,1-12.85,12.85H2.94A2.57,2.57,0,0,1,.37,66.37v-15a2.57,2.57,0,0,1,2.57-2.57" transform="translate(0 0)"/></g><path class="cls-5" d="M29.59,59c0-1.87.87-4.45,3-4.45v.72c-1.25,0-1.79,1.91-1.79,3.68s.53,4,1.79,4v.72C30.31,63.63,29.59,60.82,29.59,59Z" transform="translate(0 0)"/><path class="cls-5" d="M34.74,58V60.7l.58.19-.1.55H33.14l-.1-.55.57-.19V57.79H33.2l-.1-.55,1.16-.1.37.23a4.11,4.11,0,0,1,1.12-.23c1,0,1.71.54,1.71,1.52v2l.57.19-.11.55H35.87l-.11-.55.57-.19V58.53a.76.76,0,0,0-.8-.74A2.82,2.82,0,0,0,34.74,58Z" transform="translate(0 0)"/><path class="cls-5" d="M43.19,59.34A2,2,0,0,1,41,61.53a2,2,0,0,1-2.25-2.19A2.08,2.08,0,0,1,41,57.14,2.06,2.06,0,0,1,43.19,59.34Zm-3.33,0c0,1,.39,1.66,1.09,1.66s1.1-.66,1.1-1.66-.43-1.6-1.1-1.6S39.86,58.32,39.86,59.31Z" transform="translate(0 0)"/><path class="cls-5" d="M48.82,57.24l-.11.55H47.63v2.6a.47.47,0,0,0,.39.5,1.22,1.22,0,0,0,.76-.44l.39.48a1.71,1.71,0,0,1-1.3.6,1.21,1.21,0,0,1-1.37-1.21V57.79H46l-.09-.5.68-.2.39-1,.67.15v1Z" transform="translate(0 0)"/><path class="cls-5" d="M54,59.34a2,2,0,0,1-2.24,2.19,2,2,0,0,1-2.25-2.19,2.08,2.08,0,0,1,2.25-2.2A2.06,2.06,0,0,1,54,59.34Zm-3.33,0c0,1,.39,1.66,1.09,1.66s1.1-.66,1.1-1.66-.43-1.6-1.1-1.6S50.69,58.32,50.69,59.31Z" transform="translate(0 0)"/><path class="cls-5" d="M57.4,57.24l-.11.55H56.21v2.6a.47.47,0,0,0,.38.5,1.21,1.21,0,0,0,.77-.44l.39.48a1.71,1.71,0,0,1-1.3.6,1.22,1.22,0,0,1-1.38-1.21V57.79h-.51l-.09-.5.67-.2.39-1,.68.15v1Z" transform="translate(0 0)"/><path class="cls-5" d="M59.87,57.14c1.16,0,1.85.6,1.85,1.69V60.7l.51.19-.11.55H61l-.27-.2a2,2,0,0,1-1.16.3c-.81,0-1.53-.43-1.53-1.25,0-1.22,1.44-1.5,2.57-1.5v-.32a.73.73,0,0,0-.77-.76,2.69,2.69,0,0,0-.66.1l-.2.68-.6-.11v-.86A3.47,3.47,0,0,1,59.87,57.14Zm-.61,3.07a.62.62,0,0,0,.62.68.94.94,0,0,0,.71-.36V59.35C59.75,59.35,59.26,59.7,59.26,60.21Z" transform="translate(0 0)"/><path class="cls-5" d="M65,61.44H62.79l-.11-.55.62-.19V55.37h-.47l-.1-.52,1.17-.13.53.13V60.7l.62.19Z" transform="translate(0 0)"/><path class="cls-5" d="M71.91,60.47l.31.46a2.59,2.59,0,0,1-1.74.61c-1.71,0-2.46-.87-2.46-2.2a2.15,2.15,0,0,1,2.31-2.2c1.08,0,2,.58,2,1.46a1.75,1.75,0,0,1-.2.76H69.26c0,.9.49,1.53,1.27,1.53A2.41,2.41,0,0,0,71.91,60.47Zm-.75-1.93a.78.78,0,0,0-.83-.83,1.08,1.08,0,0,0-1,1.09h1.85A1.22,1.22,0,0,0,71.16,58.54Z" transform="translate(0 0)"/><path class="cls-5" d="M77.15,60.89a1.57,1.57,0,0,0,1.28-1.73c0-1-.39-1.37-.89-1.37a2.65,2.65,0,0,0-.94.18v4.88l.58.2-.11.55H75l-.11-.55.57-.2V57.79H75l-.11-.55,1.21-.1.39.28a2.94,2.94,0,0,1,1.14-.28,1.86,1.86,0,0,1,2,2.08,2.29,2.29,0,0,1-2.49,2.22H77v-.55Z" transform="translate(0 0)"/><path class="cls-5" d="M84.87,59.34a2,2,0,0,1-2.24,2.19,2,2,0,0,1-2.25-2.19,2.08,2.08,0,0,1,2.25-2.2A2.06,2.06,0,0,1,84.87,59.34Zm-3.33,0c0,1,.39,1.66,1.09,1.66s1.1-.66,1.1-1.66-.43-1.6-1.1-1.6S81.54,58.32,81.54,59.31Z" transform="translate(0 0)"/><path class="cls-5" d="M88.42,57.82l-.36,0a2.85,2.85,0,0,0-.81.18V60.7l.74.19-.1.55H85.65l-.1-.55.56-.19V57.79h-.4l-.11-.55,1.17-.1.37.23a4.11,4.11,0,0,1,1.16-.23,2.44,2.44,0,0,1,.93.2v1l-.6.11Z" transform="translate(0 0)"/><path class="cls-5" d="M91.93,61.16V60.1l.6-.11.31.89a2.49,2.49,0,0,0,.57.09c.44,0,.83-.16.83-.49s-.49-.54-.89-.73c-.59-.28-1.41-.66-1.41-1.44s.71-1.17,1.79-1.17a2.67,2.67,0,0,1,1.38.38v.86l-.61.11-.19-.69a2.57,2.57,0,0,0-.67-.09c-.36,0-.66.2-.66.47s.72.55,1.17.77c.62.3,1.13.58,1.13,1.28s-.71,1.3-1.8,1.3A3.78,3.78,0,0,1,91.93,61.16Z" transform="translate(0 0)"/><path class="cls-5" d="M99.88,60.47l.31.46a2.59,2.59,0,0,1-1.74.61c-1.71,0-2.45-.87-2.45-2.2a2.14,2.14,0,0,1,2.3-2.2c1.08,0,2,.58,2,1.46a1.75,1.75,0,0,1-.2.76H97.23c0,.9.49,1.53,1.27,1.53A2.39,2.39,0,0,0,99.88,60.47Zm-.75-1.93a.78.78,0,0,0-.83-.83c-.59,0-1,.44-1,1.09H99.1A1.22,1.22,0,0,0,99.13,58.54Z" transform="translate(0 0)"/><path class="cls-5" d="M103.74,59.29l1,1.41.67.19-.11.55H103l-.1-.55.45-.19-.44-.63v-.33l-.79,1,.43.19-.11.55h-1.71l-.1-.55.68-.19,1-1.24-1-1.47-.64-.2.11-.55h2.24l.11.55-.46.2.44.64V59l.83-1-.49-.2.1-.55h1.78l.1.55-.67.2Z" transform="translate(0 0)"/><path class="cls-5" d="M110.41,59.34a2.25,2.25,0,0,1-4.5,0,2.25,2.25,0,0,1,4.5,0Zm-3.34,0c0,1,.39,1.66,1.09,1.66s1.1-.66,1.1-1.66-.43-1.6-1.1-1.6S107.07,58.32,107.07,59.31Z" transform="translate(0 0)"/><path class="cls-5" d="M112.45,61a2.76,2.76,0,0,1-1.28,2.09l-.32-.32a1.85,1.85,0,0,0,.71-1.31h-.13a.67.67,0,0,1-.21-.46.62.62,0,1,1,1.23,0Z" transform="translate(0 0)"/><path class="cls-5" d="M116.59,60.64v-4h-.92l-.12-.63,1.6-.36h.61v5l.95.18-.11.62h-2.89l-.11-.63Z" transform="translate(0 0)"/><path class="cls-5" d="M121.33,57.68a1.75,1.75,0,0,1,1.78,1.85,1.92,1.92,0,0,1-2.1,2,2.75,2.75,0,0,1-1.78-.65l.36-.55a2.49,2.49,0,0,0,1.36.54c.52,0,1-.43,1-1.32,0-.73-.29-1.2-.9-1.2a1.49,1.49,0,0,0-.86.27l-.49-.2.36-2.8h2.11l.2-.62.6.11v1.47h-2.32l-.17,1.31A1.85,1.85,0,0,1,121.33,57.68Z" transform="translate(0 0)"/><path class="cls-5" d="M126.14,59.41h-1.88l.1-.78h1.78V56.78h.8v1.85h1.87l-.13.78h-1.74v1.87h-.8Z" transform="translate(0 0)"/><path class="cls-5" d="M133.72,57.14c1.16,0,1.86.6,1.86,1.69V60.7l.5.19-.11.55h-1.14l-.27-.2a2,2,0,0,1-1.16.3c-.81,0-1.52-.43-1.52-1.25,0-1.22,1.43-1.5,2.56-1.5v-.32a.72.72,0,0,0-.76-.76,2.7,2.7,0,0,0-.67.1l-.2.68-.6-.11v-.86A3.47,3.47,0,0,1,133.72,57.14Zm-.61,3.07a.62.62,0,0,0,.62.68.92.92,0,0,0,.71-.36V59.35C133.61,59.35,133.11,59.7,133.11,60.21Z" transform="translate(0 0)"/><path class="cls-5" d="M138.19,58V60.7l.57.19-.1.55h-2.08l-.09-.55.56-.19V57.79h-.4l-.1-.55,1.15-.1.37.23a4.27,4.27,0,0,1,1.13-.23c1,0,1.71.54,1.71,1.52v2l.56.19-.1.55h-2.06l-.11-.55.57-.19V58.53a.76.76,0,0,0-.8-.74A2.75,2.75,0,0,0,138.19,58Z" transform="translate(0 0)"/><path class="cls-5" d="M146.64,59.34a2,2,0,0,1-2.24,2.19,2,2,0,0,1-2.25-2.19,2.08,2.08,0,0,1,2.25-2.2A2.06,2.06,0,0,1,146.64,59.34Zm-3.33,0c0,1,.39,1.66,1.09,1.66s1.1-.66,1.1-1.66-.44-1.6-1.1-1.6S143.31,58.32,143.31,59.31Z" transform="translate(0 0)"/><path class="cls-5" d="M147.36,61.16V60.1L148,60l.31.89a2.49,2.49,0,0,0,.57.09c.45,0,.83-.16.83-.49s-.48-.54-.89-.73c-.59-.28-1.4-.66-1.4-1.44s.7-1.17,1.78-1.17a2.67,2.67,0,0,1,1.38.38v.86l-.61.11-.19-.69a2.52,2.52,0,0,0-.67-.09c-.36,0-.66.2-.66.47s.72.55,1.17.77c.62.3,1.13.58,1.13,1.28s-.71,1.3-1.79,1.3A3.78,3.78,0,0,1,147.36,61.16Z" transform="translate(0 0)"/><path class="cls-5" d="M152.75,61a2.76,2.76,0,0,1-1.28,2.09l-.31-.32a1.92,1.92,0,0,0,.71-1.31h-.14a.72.72,0,0,1-.21-.46.62.62,0,1,1,1.23,0Z" transform="translate(0 0)"/><path class="cls-5" d="M158.08,61.44h-2.16l-.11-.55.62-.19V55.37H156l-.1-.52,1.17-.13.53.13V60.7l.63.19Z" transform="translate(0 0)"/><path class="cls-5" d="M161.08,61.44H159l-.1-.55.57-.19V57.79h-.41l-.1-.55,1.1-.1.55.1V60.7l.57.19Zm-.52-5.69a.59.59,0,0,1-.58.59.6.6,0,0,1-.59-.59.59.59,0,0,1,.59-.58A.58.58,0,0,1,160.56,55.75Z" transform="translate(0 0)"/><path class="cls-5" d="M164.57,57.24l-.11.55h-1.08v2.6a.47.47,0,0,0,.39.5,1.22,1.22,0,0,0,.76-.44l.39.48a1.71,1.71,0,0,1-1.3.6,1.22,1.22,0,0,1-1.38-1.21V57.79h-.51l-.09-.5.68-.2.38-1,.68.15v1Z" transform="translate(0 0)"/><path class="cls-5" d="M168.1,57.82a2.7,2.7,0,0,0-.36,0,2.85,2.85,0,0,0-.81.18V60.7l.75.19-.11.55h-2.23l-.11-.55.57-.19V57.79h-.41l-.1-.55,1.17-.1.36.23a4.11,4.11,0,0,1,1.17-.23,2.43,2.43,0,0,1,.92.2v1l-.6.11Z" transform="translate(0 0)"/><path class="cls-5" d="M173.85,59.34a2,2,0,0,1-2.24,2.19,2,2,0,0,1-2.25-2.19,2.08,2.08,0,0,1,2.25-2.2A2.06,2.06,0,0,1,173.85,59.34Zm-3.33,0c0,1,.39,1.66,1.09,1.66s1.1-.66,1.1-1.66-.43-1.6-1.1-1.6S170.52,58.32,170.52,59.31Z" transform="translate(0 0)"/><path class="cls-5" d="M174.57,61.16V60.1l.61-.11.3.89a2.57,2.57,0,0,0,.58.09c.44,0,.83-.16.83-.49s-.49-.54-.89-.73c-.6-.28-1.41-.66-1.41-1.44s.7-1.17,1.78-1.17a2.7,2.7,0,0,1,1.39.38v.86l-.61.11L177,57.8a2.65,2.65,0,0,0-.68-.09c-.36,0-.65.2-.65.47s.72.55,1.17.77c.62.3,1.12.58,1.12,1.28s-.7,1.3-1.79,1.3A3.82,3.82,0,0,1,174.57,61.16Z" transform="translate(0 0)"/><path class="cls-5" d="M183.08,61.54a2,2,0,0,1-2.23-2.17,2.14,2.14,0,0,1,2.27-2.23,3.09,3.09,0,0,1,.79.12V55.37h-.49l-.1-.52,1.19-.13.53.13V60.7l.59.19-.11.55h-1.23l-.27-.2A1.64,1.64,0,0,1,183.08,61.54Zm.1-3.75c-.7,0-1.11.56-1.11,1.49s.45,1.61,1.06,1.61a1.17,1.17,0,0,0,.78-.28V58A1.67,1.67,0,0,0,183.18,57.79Z" transform="translate(0 0)"/><path class="cls-5" d="M189.92,60.47l.31.46a2.61,2.61,0,0,1-1.74.61c-1.71,0-2.46-.87-2.46-2.2a2.15,2.15,0,0,1,2.3-2.2c1.09,0,2,.58,2,1.46a1.75,1.75,0,0,1-.2.76h-2.84c0,.9.5,1.53,1.27,1.53A2.42,2.42,0,0,0,189.92,60.47Zm-.76-1.93a.78.78,0,0,0-.83-.83c-.58,0-1,.44-1,1.09h1.85A2.46,2.46,0,0,0,189.16,58.54Z" transform="translate(0 0)"/><path class="cls-5" d="M195,57.14c1.16,0,1.85.6,1.85,1.69V60.7l.5.19-.1.55h-1.15l-.27-.2a2,2,0,0,1-1.16.3c-.81,0-1.52-.43-1.52-1.25,0-1.22,1.43-1.5,2.57-1.5v-.32a.73.73,0,0,0-.77-.76,2.77,2.77,0,0,0-.67.1l-.19.68-.61-.11v-.86A3.54,3.54,0,0,1,195,57.14Zm-.62,3.07a.62.62,0,0,0,.63.68,1,1,0,0,0,.71-.36V59.35C194.87,59.35,194.37,59.7,194.37,60.21Zm.26-4,.65-1.64.88.42L195,56.39Z" transform="translate(0 0)"/><path class="cls-5" d="M200.06,61.44H197.9l-.11-.55.63-.19V55.37H198l-.1-.52,1.17-.13.53.13V60.7l.62.19Z" transform="translate(0 0)"/><path class="cls-5" d="M202.12,59.18c0,.94.32,1.71,1.24,1.71a2.43,2.43,0,0,0,1.29-.42l.31.46a2.43,2.43,0,0,1-1.65.61c-1.62,0-2.42-.87-2.42-2.19a2.19,2.19,0,0,1,2.44-2.21,3.46,3.46,0,0,1,1.49.38v.86l-.6.11-.19-.67a2.1,2.1,0,0,0-.68-.11C202.62,57.71,202.12,58.26,202.12,59.18Z" transform="translate(0 0)"/><path class="cls-5" d="M210,59.34a2,2,0,0,1-2.24,2.19,2,2,0,0,1-2.25-2.19,2.08,2.08,0,0,1,2.25-2.2A2.06,2.06,0,0,1,210,59.34Zm-3.33,0c0,1,.38,1.66,1.09,1.66s1.09-.66,1.09-1.66-.43-1.6-1.09-1.6S206.68,58.32,206.68,59.31Z" transform="translate(0 0)"/><path class="cls-5" d="M215.22,59.34A2,2,0,0,1,213,61.53a2,2,0,0,1-2.25-2.19,2.08,2.08,0,0,1,2.25-2.2A2.06,2.06,0,0,1,215.22,59.34Zm-3.33,0c0,1,.38,1.66,1.09,1.66s1.1-.66,1.1-1.66-.44-1.6-1.1-1.6S211.89,58.32,211.89,59.31Z" transform="translate(0 0)"/><path class="cls-5" d="M218.21,61.44H216l-.1-.55.62-.19V55.37h-.47l-.1-.52,1.17-.13.53.13V60.7l.62.19Z" transform="translate(0 0)"/><path class="cls-5" d="M223.22,60.89a1.57,1.57,0,0,0,1.28-1.73c0-1-.39-1.37-.89-1.37a2.65,2.65,0,0,0-.94.18v4.88l.58.2-.11.55h-2.06l-.1-.55.56-.2V57.79h-.49l-.11-.55,1.21-.1.38.28a3,3,0,0,1,1.15-.28,1.86,1.86,0,0,1,2,2.08,2.29,2.29,0,0,1-2.49,2.22h-.19v-.55Z" transform="translate(0 0)"/><path class="cls-5" d="M229.17,57.79l-.1-.53,1.16-.12.45.14V60.7l.58.19-.11.55h-1.23l-.27-.2a2,2,0,0,1-1.18.3,1.52,1.52,0,0,1-1.64-1.64V57.79h-.37l-.1-.53,1.08-.12.52.13V60a.82.82,0,0,0,.82.91,1.1,1.1,0,0,0,.77-.35V57.79Z" transform="translate(0 0)"/><path class="cls-5" d="M234.58,57.82l-.36,0a2.85,2.85,0,0,0-.81.18V60.7l.74.19-.1.55h-2.24l-.1-.55.56-.19V57.79h-.4l-.11-.55,1.17-.1.37.23a4.11,4.11,0,0,1,1.16-.23,2.48,2.48,0,0,1,.93.2v1l-.61.11Z" transform="translate(0 0)"/><path class="cls-5" d="M240.33,59.34a2,2,0,0,1-2.24,2.19,2,2,0,0,1-2.25-2.19,2.08,2.08,0,0,1,2.25-2.2A2.06,2.06,0,0,1,240.33,59.34Zm-3.33,0c0,1,.38,1.66,1.09,1.66s1.09-.66,1.09-1.66-.43-1.6-1.09-1.6S237,58.32,237,59.31Z" transform="translate(0 0)"/><path class="cls-5" d="M242.65,58.93c0-1.77-.54-3.68-1.78-3.68v-.72c2.09,0,2.95,2.58,2.95,4.45s-.71,4.65-2.95,4.65v-.72C242.13,62.91,242.65,60.71,242.65,58.93Z" transform="translate(0 0)"/><path class="cls-5" d="M245.68,61a2.73,2.73,0,0,1-1.28,2.09l-.31-.32a1.92,1.92,0,0,0,.71-1.31h-.13a.67.67,0,0,1-.21-.46.61.61,0,1,1,1.22,0Z" transform="translate(0 0)"/><path class="cls-5" d="M250.07,56.34l-.27.89-.6-.12V55.92a3.74,3.74,0,0,1,1.59-.37,1.57,1.57,0,0,1,1.76,1.56c0,1.8-2.28,2.44-2.57,3.37h1.66l.21-.62.6.12v1.46H249V61c0-1.61,2.33-2.33,2.33-4,0-.59-.28-.8-.6-.8A1.8,1.8,0,0,0,250.07,56.34Z" transform="translate(0 0)"/><path class="cls-5" d="M258.26,58.54c0,1.4-.47,3-2.21,3s-2.25-1.54-2.25-3,.62-3,2.25-3S258.26,57.13,258.26,58.54Zm-3.2,0c0,1.13.31,2.37,1,2.37s.95-1.23.95-2.37-.23-2.29-.95-2.29S255.06,57.37,255.06,58.5Z" transform="translate(0 0)"/><path class="cls-5" d="M260.3,60.64v-4h-.92l-.12-.63,1.6-.36h.61v5l.95.18-.11.62h-2.89l-.11-.63Z" transform="translate(0 0)"/><path class="cls-5" d="M264.55,57.92a1.83,1.83,0,0,1,.82-.23,1.75,1.75,0,0,1,1.68,1.81,2,2,0,1,1-3.93-.19,4,4,0,0,1,3.07-3.76l.33.59A3.93,3.93,0,0,0,264.55,57.92Zm-.3,1.38c0,.81.23,1.57.85,1.57s.82-.78.82-1.39-.34-1.12-.66-1.12a1,1,0,0,0-.59.18l-.21-.36A3.44,3.44,0,0,0,264.25,59.3Z" transform="translate(0 0)"/><g class="cls-3"><path class="cls-6" d="M289.81,48.21H20.41A11.34,11.34,0,0,1,9.07,36.87v-8.2A19.85,19.85,0,0,1,28.91,8.83h260.9a2.84,2.84,0,0,1,2.83,2.84V45.38a2.83,2.83,0,0,1-2.83,2.83" transform="translate(0 0)"/></g><path class="cls-7" d="M49.43,25.46,50,23.8l.84.12v1.94a5.26,5.26,0,0,1-2.81.78,4.1,4.1,0,0,1-4.34-4.4,4.2,4.2,0,0,1,4.34-4.4,5.36,5.36,0,0,1,2.81.76v1.87l-.85.14L49.47,19a5.85,5.85,0,0,0-1.41-.2c-1.64,0-2.56,1.07-2.56,3.34,0,1.63.54,3.45,2.56,3.45A6.11,6.11,0,0,0,49.43,25.46Z" transform="translate(0 0)"/><path class="cls-7" d="M59.94,22.24c0,2.47-1.25,4.4-4.08,4.4s-4.09-2.2-4.09-4.4a4.14,4.14,0,0,1,4.09-4.4C58.5,17.84,59.94,19.77,59.94,22.24Zm-6.39-.06c0,2.26.77,3.45,2.31,3.45s2.32-1.25,2.32-3.45-.8-3.34-2.32-3.34S53.55,19.91,53.55,22.18Z" transform="translate(0 0)"/><path class="cls-7" d="M61.93,19.29l-1-.4.12-.85h2.46l3.34,5,.42,1.24v-5l-1-.4.12-.85h2.64l.12.85-1,.4v7.15l-1,.2-4.36-6.59v5.16l1,.37-.13.86H61.07l-.13-.86,1-.38Z" transform="translate(0 0)"/><path class="cls-7" d="M73,17.84a5,5,0,0,1,2.54.76v1.87l-.85.14L74.1,19A4.17,4.17,0,0,0,73,18.84c-.86,0-1.4.4-1.4,1.07,0,.88,1.41,1.34,1.86,1.57,1.25.53,2.43,1.32,2.43,2.76s-1,2.4-3.13,2.4a4.66,4.66,0,0,1-2.62-.78V23.92L71,23.8l.6,1.57a3.11,3.11,0,0,0,1.09.26c1,0,1.73-.37,1.73-1,0-.95-1.41-1.41-2.23-1.82s-2.07-1-2.07-2.68C70.08,18.59,71.45,17.84,73,17.84Z" transform="translate(0 0)"/><path class="cls-7" d="M77.73,22.85V19.29l-1-.4.12-.85h3.39l.12.85-1,.4v3.63c0,1.92.59,2.71,1.84,2.71s2-.9,2-2.68V19.29l-1-.4.14-.85H85l.12.85-1,.4v3.56c0,3.11-1.55,3.79-3.08,3.79S77.73,26,77.73,22.85Z" transform="translate(0 0)"/><path class="cls-7" d="M90.15,26.64l-2.07-5.75-.53,4.31,1,.38-.12.86H85.76l-.15-.86,1-.38.69-5.91-1-.4.14-.85h2.38l1.92,5.24v1.2L93.11,18h2.44l.14.85-1,.4.56,5.92,1,.37-.12.86H92.77l-.11-.86,1-.37-.47-4.62L91,26.44Z" transform="translate(0 0)"/><path class="cls-7" d="M105.59,22.24c0,2.47-1.25,4.4-4.08,4.4s-4.09-2.2-4.09-4.4a4.14,4.14,0,0,1,4.09-4.4C104.15,17.84,105.59,19.77,105.59,22.24Zm-6.4-.06c0,2.26.78,3.45,2.32,3.45s2.32-1.25,2.32-3.45-.81-3.34-2.32-3.34S99.19,19.91,99.19,22.18Z" transform="translate(0 0)"/><path class="cls-7" d="M116.83,18v2.45l-.84.13-.63-1.73h-1.27v6.32l1,.37-.12.86h-3.39l-.12-.86,1-.37V18.89H111.2l-.63,1.73-.84-.13V18Z" transform="translate(0 0)"/><path class="cls-7" d="M126.18,22.24c0,2.47-1.24,4.4-4.08,4.4s-4.09-2.2-4.09-4.4a4.14,4.14,0,0,1,4.09-4.4C124.75,17.84,126.18,19.77,126.18,22.24Zm-6.39-.06c0,2.26.77,3.45,2.31,3.45s2.33-1.25,2.33-3.45-.81-3.34-2.33-3.34S119.79,19.91,119.79,22.18Z" transform="translate(0 0)"/><path class="cls-7" d="M134.46,18v2.45l-.84.13L133,18.89h-1.27v6.32l1,.37-.12.86h-3.39l-.12-.86,1-.37V18.89h-1.26l-.63,1.73-.84-.13V18Z" transform="translate(0 0)"/><path class="cls-7" d="M142.46,25.2l1,.38-.13.86h-3.45l-.13-.86.94-.38-.53-1.44h-2.78l-.57,1.44,1.12.37-.12.87h-3l-.13-.86,1-.38L138.51,18l1.3-.2Zm-3.35-5.78-1.33,3.41h2.07l-.74-2Z" transform="translate(0 0)"/><path class="cls-7" d="M147.65,18.89l-1,.4v6.29h2.29l.65-1.8.84.12v2.54h-6.29l-.12-.86,1-.38V19.29l-1-.4.12-.85h3.39Z" transform="translate(0 0)"/><path class="cls-7" d="M153.93,25.58l1-.37V19.29l-1-.4L154,18h3.51c3,0,4.32,1.81,4.32,4.14a4,4,0,0,1-4.35,4.26h-3.46Zm2.62,0h1c1.75,0,2.55-1.62,2.55-3.43s-.8-3.26-2.55-3.26h-1Z" transform="translate(0 0)"/><path class="cls-7" d="M165.26,21.64h1.22l.35-1,.86.12v2.65l-.84.12-.37-1h-1.22v3h2.33l.63-1.8.84.12v2.54h-6.29l-.12-.86,1-.37V19.29l-1-.4.13-.85h6.1v2.13l-.85.14-.46-1.42h-2.29Z" transform="translate(0 0)"/><path class="cls-7" d="M180.32,25.2l1.05.38-.14.86h-3.45l-.13-.86.94-.38-.53-1.44h-2.78l-.57,1.44,1.12.37-.12.87h-3l-.13-.86,1-.38L176.37,18l1.3-.2ZM177,19.42l-1.33,3.41h2.07l-.74-2Zm-.63-2.4,1.47-1.87,1,.85-2.09,1.34Z" transform="translate(0 0)"/><path class="cls-7" d="M185.51,18.89l-1,.4v6.29h2.29l.65-1.8.84.12v2.54H182l-.12-.86,1-.38V19.29l-1-.4L182,18h3.39Z" transform="translate(0 0)"/><path class="cls-7" d="M194.46,25.46l.6-1.66.84.12v1.94a5.26,5.26,0,0,1-2.81.78,4.1,4.1,0,0,1-4.34-4.4,4.2,4.2,0,0,1,4.34-4.4,5.36,5.36,0,0,1,2.81.76v1.87l-.85.14L194.5,19a5.92,5.92,0,0,0-1.41-.2c-1.64,0-2.56,1.07-2.56,3.34,0,1.63.54,3.45,2.56,3.45A6.11,6.11,0,0,0,194.46,25.46Z" transform="translate(0 0)"/><path class="cls-7" d="M205,22.24c0,2.47-1.24,4.4-4.08,4.4s-4.09-2.2-4.09-4.4a4.14,4.14,0,0,1,4.09-4.4C203.54,17.84,205,19.77,205,22.24Zm-6.39-.06c0,2.26.77,3.45,2.31,3.45s2.33-1.25,2.33-3.45-.81-3.34-2.33-3.34S198.58,19.91,198.58,22.18Z" transform="translate(0 0)"/><path class="cls-7" d="M214.56,22.24c0,2.47-1.25,4.4-4.08,4.4s-4.09-2.2-4.09-4.4a4.14,4.14,0,0,1,4.09-4.4C213.12,17.84,214.56,19.77,214.56,22.24Zm-6.39-.06c0,2.26.77,3.45,2.31,3.45s2.32-1.25,2.32-3.45-.8-3.34-2.32-3.34S208.17,19.91,208.17,22.18Z" transform="translate(0 0)"/><path class="cls-7" d="M219.32,18.89l-1,.4v6.29h2.29l.65-1.8.84.12v2.54H215.8l-.12-.86,1-.38V19.29l-1-.4.12-.85h3.39Z" transform="translate(0 0)"/><path class="cls-7" d="M229.59,25.58l-.13.86h-3.72l-.13-.86,1-.37V19.29l-1-.4.15-.85h3.91a2.44,2.44,0,0,1,2.69,2.66c0,1.95-1.46,2.58-3.12,2.58h-.47v-.93h.51a1.55,1.55,0,0,0,1.48-1.65c0-1-.4-1.81-1.46-1.81h-1v6.32Z" transform="translate(0 0)"/><path class="cls-7" d="M241.56,22.24c0,2.47-1.24,4.4-4.08,4.4s-4.09-2.2-4.09-4.4a4.14,4.14,0,0,1,4.09-4.4C240.13,17.84,241.56,19.77,241.56,22.24Zm-6.39-.06c0,2.26.77,3.45,2.31,3.45s2.33-1.25,2.33-3.45-.81-3.34-2.33-3.34S235.17,19.91,235.17,22.18Z" transform="translate(0 0)"/><path class="cls-7" d="M246.31,25.58l-.13.86h-3.34l-.13-.86,1-.37V19.29l-1-.4.15-.85h4.09c1.77,0,2.74.92,2.74,2.41a2.44,2.44,0,0,1-2.47,2.23l.78.41,1.19,2.12,1,.37-.13.86h-2.6l.12-.66-1.75-3.1v-.75h.75a1.5,1.5,0,0,0,1.49-1.48,1.46,1.46,0,0,0-1.58-1.56h-1.16V25.2Z" transform="translate(0 0)"/><path class="cls-7" d="M37.87,40l-.13.86H34L33.89,40l1-.37V33.69l-1-.4.14-.85h3.91a2.44,2.44,0,0,1,2.69,2.66c0,1.95-1.46,2.58-3.12,2.58H37v-.93h.51A1.55,1.55,0,0,0,39,35.1c0-1-.4-1.81-1.46-1.81h-1v6.32Z" transform="translate(0 0)"/><path class="cls-7" d="M44,36h1.22l.36-1,.85.12v2.65L45.6,38l-.37-1H44v3h2.34l.62-1.8.85.12v2.54h-6.3L41.4,40l1-.37V33.69l-1-.4.13-.85h6.1v2.13l-.85.14-.46-1.42H44Z" transform="translate(0 0)"/><path class="cls-7" d="M51.71,32.24a5,5,0,0,1,2.54.76v1.87L53.4,35l-.56-1.61a4.17,4.17,0,0,0-1.13-.16c-.86,0-1.4.4-1.4,1.07,0,.88,1.41,1.34,1.87,1.57,1.24.53,2.43,1.32,2.43,2.76s-1,2.4-3.13,2.4a4.61,4.61,0,0,1-2.62-.78V38.32l.84-.12.6,1.57a3.11,3.11,0,0,0,1.09.26c1,0,1.73-.37,1.73-1,0-.95-1.41-1.41-2.23-1.82s-2.07-1-2.07-2.68C48.82,33,50.2,32.24,51.71,32.24Z" transform="translate(0 0)"/><path class="cls-7" d="M58.61,32.24a5,5,0,0,1,2.54.76v1.87l-.86.14-.55-1.61a4.23,4.23,0,0,0-1.13-.16c-.87,0-1.4.4-1.4,1.07,0,.88,1.41,1.34,1.86,1.57,1.25.53,2.43,1.32,2.43,2.76s-1,2.4-3.13,2.4a4.66,4.66,0,0,1-2.62-.78V38.32l.84-.12.61,1.57a3.11,3.11,0,0,0,1.09.26c1,0,1.73-.37,1.73-1,0-.95-1.41-1.41-2.23-1.82s-2.07-1-2.07-2.68C55.72,33,57.09,32.24,58.61,32.24Z" transform="translate(0 0)"/><path class="cls-7" d="M70.9,36.64c0,2.47-1.24,4.4-4.08,4.4s-4.09-2.2-4.09-4.4a4.14,4.14,0,0,1,4.09-4.4C69.47,32.24,70.9,34.17,70.9,36.64Zm-6.39-.06c0,2.26.77,3.45,2.31,3.45s2.33-1.25,2.33-3.45-.81-3.34-2.33-3.34S64.51,34.31,64.51,36.58Z" transform="translate(0 0)"/><path class="cls-7" d="M79,39.6l1,.38-.13.86H76.48L76.35,40l.94-.38-.54-1.44H74l-.57,1.44,1.11.37-.12.87h-3L71.31,40l1-.38,2.73-7.16,1.29-.2Zm-3.36-5.78-1.33,3.41h2.08l-.75-2Z" transform="translate(0 0)"/><path class="cls-7" d="M83.82,37.55c0-2.48,1.14-5.93,3.89-5.93v1c-1.63,0-2.34,2.55-2.34,4.91s.68,5.3,2.34,5.3v1C84.76,43.75,83.82,40,83.82,37.55Z" transform="translate(0 0)"/><path class="cls-7" d="M94,39.86l.6-1.66.84.12v1.94a5.29,5.29,0,0,1-2.81.78,4.1,4.1,0,0,1-4.34-4.4,4.2,4.2,0,0,1,4.34-4.4,5.36,5.36,0,0,1,2.81.76v1.87L94.6,35l-.55-1.57a5.92,5.92,0,0,0-1.41-.2c-1.65,0-2.56,1.07-2.56,3.34,0,1.63.53,3.45,2.56,3.45A6.18,6.18,0,0,0,94,39.86Z" transform="translate(0 0)"/><path class="cls-7" d="M100.06,40l-.13.86H96.21L96.08,40l1-.37V33.69l-1-.4.14-.85h3.92a2.44,2.44,0,0,1,2.69,2.66c0,1.95-1.46,2.58-3.12,2.58h-.47v-.93h.51a1.55,1.55,0,0,0,1.48-1.65c0-1-.41-1.81-1.46-1.81h-1v6.32Z" transform="translate(0 0)"/><path class="cls-7" d="M110.32,39.6l1.05.38-.13.86h-3.45l-.13-.86.93-.38-.53-1.44h-2.77l-.57,1.44,1.11.37-.12.87h-3l-.13-.86,1-.38,2.73-7.16,1.29-.2ZM107,33.82l-1.33,3.41h2.08l-.75-2Z" transform="translate(0 0)"/><path class="cls-7" d="M114,37.49c0-2.36-.71-4.91-2.35-4.91v-1c2.75,0,3.89,3.45,3.89,5.93s-.93,6.2-3.89,6.2v-1C113.35,42.79,114,39.85,114,37.49Z" transform="translate(0 0)"/><path class="cls-7" d="M121.83,36h1.22l.35-1,.86.12v2.65l-.84.12-.37-1h-1.22v3h2.33l.63-1.8.84.12v2.54h-6.29l-.12-.86,1-.37V33.69l-1-.4.13-.85h6.1v2.13l-.85.14-.46-1.42h-2.29Z" transform="translate(0 0)"/><path class="cls-7" d="M127.32,33.69l-1-.4.12-.85h2.46l3.34,5,.42,1.24v-5l-1-.4.12-.85h2.64l.12.85-1,.4v7.15l-1,.2-4.36-6.59v5.16l1,.37-.13.86h-2.62l-.13-.86,1-.38Z" transform="translate(0 0)"/><path class="cls-7" d="M142.46,32.44v2.45l-.84.13L141,33.29h-1.27v6.32l1,.37-.12.86h-3.39l-.12-.86,1-.37V33.29h-1.26L136.2,35l-.84-.13V32.44Z" transform="translate(0 0)"/><path class="cls-7" d="M147,40l-.13.86H143.5l-.13-.86,1-.37V33.69l-1-.4.14-.85h4.09c1.78,0,2.74.92,2.74,2.41a2.44,2.44,0,0,1-2.47,2.23l.78.41,1.19,2.12,1,.37-.13.86h-2.6l.12-.66-1.75-3.1v-.75h.76a1.49,1.49,0,0,0,1.48-1.48,1.45,1.45,0,0,0-1.58-1.56H146V39.6Z" transform="translate(0 0)"/><path class="cls-7" d="M154.15,36h1.23l.35-1,.85.12v2.65l-.84.12-.36-1h-1.23v3h2.34l.63-1.8.84.12v2.54h-6.3l-.12-.86,1-.37V33.69l-1-.4.13-.85h6.11v2.13l-.86.14-.46-1.42h-2.29Z" transform="translate(0 0)"/><path class="cls-7" d="M167.39,39.86,168,38.2l.84.12v1.94A5.32,5.32,0,0,1,166,41a4.1,4.1,0,0,1-4.34-4.4,4.19,4.19,0,0,1,4.34-4.4,5.39,5.39,0,0,1,2.81.76v1.87L168,35l-.54-1.57a6,6,0,0,0-1.41-.2c-1.65,0-2.56,1.07-2.56,3.34,0,1.63.53,3.45,2.56,3.45A6.09,6.09,0,0,0,167.39,39.86Z" transform="translate(0 0)"/><path class="cls-7" d="M177.9,36.64c0,2.47-1.24,4.4-4.07,4.4s-4.1-2.2-4.1-4.4a4.14,4.14,0,0,1,4.1-4.4C176.47,32.24,177.9,34.17,177.9,36.64Zm-6.39-.06c0,2.26.77,3.45,2.32,3.45s2.32-1.25,2.32-3.45-.81-3.34-2.32-3.34S171.51,34.31,171.51,36.58Z" transform="translate(0 0)"/><path class="cls-7" d="M179.89,33.69l-1-.4.12-.85h2.47l3.33,5,.43,1.24v-5l-1-.4.12-.85H187l.11.85-1,.4v7.15l-1,.2-4.37-6.59v5.16l1,.37-.13.86H179l-.13-.86,1-.38Z" transform="translate(0 0)"/><path class="cls-7" d="M190.94,32.24a5,5,0,0,1,2.53.76v1.87l-.85.14-.56-1.61a4.15,4.15,0,0,0-1.12-.16c-.87,0-1.4.4-1.4,1.07,0,.88,1.41,1.34,1.86,1.57,1.24.53,2.43,1.32,2.43,2.76s-1,2.4-3.13,2.4a4.64,4.64,0,0,1-2.62-.78V38.32l.84-.12.61,1.57a3.11,3.11,0,0,0,1.09.26c1,0,1.73-.37,1.73-1,0-.95-1.41-1.41-2.23-1.82s-2.08-1-2.08-2.68C188,33,189.42,32.24,190.94,32.24Z" transform="translate(0 0)"/><path class="cls-7" d="M195.7,37.25V33.69l-1-.4.12-.85h3.39l.12.85-1,.4v3.63c0,1.92.6,2.71,1.84,2.71s2-.9,2-2.69V33.69l-1-.4.15-.85h2.65l.12.85-1,.4v3.56c0,3.11-1.56,3.79-3.09,3.79S195.7,40.38,195.7,37.25Z" transform="translate(0 0)"/><path class="cls-7" d="M208.12,41,206,35.29l-.53,4.31,1,.38-.12.86h-2.63l-.14-.86,1-.38.68-5.91-1-.4.13-.85h2.38l1.92,5.24v1.2l2.35-6.44h2.44l.15.85-1,.4.57,5.92,1,.37-.12.86h-3.35l-.12-.86,1-.37L211.12,35,209,40.84Z" transform="translate(0 0)"/><path class="cls-7" d="M219,40l-.14.86h-3.37l-.14-.86,1-.37V33.69l-1-.4.14-.85h3.37l.14.85-1,.4v5.92Z" transform="translate(0 0)"/><path class="cls-7" d="M220.17,40l1-.37V33.69l-1-.4.11-.85h3.51c3,0,4.32,1.81,4.32,4.14a4,4,0,0,1-4.35,4.26h-3.46Zm2.62,0h1c1.75,0,2.55-1.62,2.55-3.43s-.8-3.26-2.55-3.26h-1Z" transform="translate(0 0)"/><path class="cls-7" d="M237.33,36.64c0,2.47-1.24,4.4-4.08,4.4s-4.09-2.2-4.09-4.4a4.14,4.14,0,0,1,4.09-4.4C235.9,32.24,237.33,34.17,237.33,36.64Zm-6.39-.06c0,2.26.77,3.45,2.31,3.45s2.33-1.25,2.33-3.45-.81-3.34-2.33-3.34S230.94,34.31,230.94,36.58Z" transform="translate(0 0)"/><path class="cls-7" d="M242.08,40l-.13.86h-3.34l-.13-.86,1-.37V33.69l-1-.4.14-.85h4.09c1.78,0,2.74.92,2.74,2.41A2.44,2.44,0,0,1,243,37.08l.78.41,1.19,2.12,1,.37-.13.86h-2.6l.12-.66-1.76-3.1v-.75h.76a1.49,1.49,0,0,0,1.48-1.48,1.45,1.45,0,0,0-1.57-1.56H241.1V39.6Z" transform="translate(0 0)"/><path class="cls-7" d="M249.26,36h1.22l.36-1,.85.12v2.65l-.84.12-.37-1h-1.22v3h2.34l.62-1.8.85.12v2.54h-6.3l-.12-.86,1-.37V33.69l-1-.4.13-.85h6.11v2.13l-.86.14-.46-1.42h-2.29Z" transform="translate(0 0)"/><path class="cls-7" d="M257,32.24a5,5,0,0,1,2.54.76v1.87l-.85.14-.56-1.61a4.17,4.17,0,0,0-1.13-.16c-.86,0-1.4.4-1.4,1.07,0,.88,1.41,1.34,1.87,1.57,1.24.53,2.43,1.32,2.43,2.76s-1,2.4-3.13,2.4a4.61,4.61,0,0,1-2.62-.78V38.32l.84-.12.6,1.57a3.16,3.16,0,0,0,1.09.26c1,0,1.73-.37,1.73-1,0-.95-1.41-1.41-2.22-1.82s-2.08-1-2.08-2.68C254.07,33,255.45,32.24,257,32.24Z" transform="translate(0 0)"/><g class="cls-3"><path class="cls-4" d="M43.5,183.31H276.89a7.05,7.05,0,0,1,7.05,7.05v16.78a15.55,15.55,0,0,1-15.55,15.55H43.5Z" transform="translate(0 0)"/><path class="cls-8" d="M165.68,235.93H73.35V219.46H173.51a3.73,3.73,0,0,1,3.73,3.73v1.18a11.55,11.55,0,0,1-11.56,11.56" transform="translate(0 0)"/></g><path class="cls-7" d="M119.13,230.93l-.14.73h-2.75l-.14-.73.75-.26v-2.93a.91.91,0,0,0-.94-1,3.55,3.55,0,0,0-1,.24v3.64l.76.26-.15.73h-2.73l-.14-.73.75-.26v-3.88h-.54l-.13-.73,1.5-.13.49.31a5.32,5.32,0,0,1,1.5-.31,2.33,2.33,0,0,1,1.57.44,4.19,4.19,0,0,1,1.72-.44c1.55,0,2.38.72,2.38,2v2.72l.77.26-.14.73h-2.74l-.14-.73.75-.26v-2.82a1.06,1.06,0,0,0-1.09-1.06,2.6,2.6,0,0,0-1.07.24,2.21,2.21,0,0,1,.18.91v2.73Z" transform="translate(0 0)"/><path class="cls-7" d="M127.14,226.79l-.14-.71,1.55-.15.6.18v4.56l.77.26-.14.73h-1.64l-.36-.27a2.63,2.63,0,0,1-1.58.4A2,2,0,0,1,124,229.6v-2.81h-.49l-.13-.71,1.43-.15.7.17v3.61a1.08,1.08,0,0,0,1.09,1.21,1.46,1.46,0,0,0,1-.46v-3.67Z" transform="translate(0 0)"/><path class="cls-7" d="M133.6,231.66h-2.87l-.15-.73.83-.26v-7.1h-.62l-.14-.69,1.56-.18.71.18v7.79l.83.26Z" transform="translate(0 0)"/><path class="cls-7" d="M137.34,231.66h-2.73l-.14-.73.74-.26v-7.1h-.66l-.14-.69,1.61-.18.71.18v3.36a3.86,3.86,0,0,1,1.35-.31c1.36,0,2.26.6,2.26,1.9v2.84l.75.26-.14.73H138.2l-.14-.73.76-.26v-3a.77.77,0,0,0-.82-.87,3.88,3.88,0,0,0-1.27.24v3.63l.75.26Z" transform="translate(0 0)"/><path class="cls-7" d="M147.12,230.37l.4.61a3.46,3.46,0,0,1-2.31.81c-2.28,0-3.28-1.16-3.28-2.94a2.86,2.86,0,0,1,3.07-2.92c1.44,0,2.62.77,2.62,1.94a2.36,2.36,0,0,1-.26,1h-3.78c0,1.2.66,2,1.69,2A3.33,3.33,0,0,0,147.12,230.37Zm-1-2.58a1,1,0,0,0-1.11-1.11,1.45,1.45,0,0,0-1.39,1.45h2.46A1.37,1.37,0,0,0,146.11,227.79Z" transform="translate(0 0)"/><path class="cls-7" d="M152.29,226.84a2.61,2.61,0,0,0-.48-.05,4,4,0,0,0-1.08.24v3.64l1,.26-.14.73h-3l-.15-.73.76-.26v-3.88h-.54l-.14-.73,1.55-.13.5.31a5.05,5.05,0,0,1,1.54-.31,3.4,3.4,0,0,1,1.24.26v1.39l-.81.15Z" transform="translate(0 0)"/><path class="cls-7" d="M159.15,230.37l.41.61a3.48,3.48,0,0,1-2.31.81c-2.28,0-3.28-1.16-3.28-2.94a2.86,2.86,0,0,1,3.07-2.92c1.44,0,2.62.77,2.62,1.94a2.23,2.23,0,0,1-.27,1h-3.78c0,1.2.66,2,1.69,2A3.28,3.28,0,0,0,159.15,230.37Zm-1-2.58a1,1,0,0,0-1.1-1.11c-.78,0-1.28.59-1.39,1.45h2.46A2,2,0,0,0,158.14,227.79Z" transform="translate(0 0)"/><path class="cls-7" d="M160.56,231.29v-1.42l.8-.15.41,1.18a2.76,2.76,0,0,0,.77.13c.59,0,1.1-.21,1.1-.65s-.65-.72-1.19-1c-.79-.38-1.87-.88-1.87-1.92s.94-1.56,2.38-1.56a3.64,3.64,0,0,1,1.84.5v1.15l-.81.15-.25-.93a4,4,0,0,0-.9-.12c-.48,0-.88.27-.88.63s1,.74,1.56,1c.83.39,1.5.78,1.5,1.7s-.94,1.74-2.39,1.74A5.32,5.32,0,0,1,160.56,231.29Z" transform="translate(0 0)"/><path class="cls-5" d="M116.72,193.61a2.83,2.83,0,0,1,1.55,2.33,2.38,2.38,0,0,1-2.62,2.11c-1.27,0-2.61-.72-2.61-2.05a2.59,2.59,0,0,1,1.49-2.05,2.61,2.61,0,0,1-1.28-2c0-1,.94-1.9,2.4-1.9s2.33.84,2.33,1.74A2.36,2.36,0,0,1,116.72,193.61Zm-1.34.86a1.84,1.84,0,0,0-.84,1.53,1.12,1.12,0,1,0,2.24,0C116.78,195.28,115.94,194.8,115.38,194.47Zm1.2-2.57a.92.92,0,1,0-1.84,0c0,.49.61.9,1.13,1.18A1.57,1.57,0,0,0,116.58,191.9Z" transform="translate(0 0)"/><path class="cls-5" d="M121.26,197.3a.82.82,0,1,1-1.64,0,.82.82,0,0,1,1.64,0Z" transform="translate(0 0)"/><path class="cls-5" d="M125.61,195a2.73,2.73,0,0,1-1,.25,2.35,2.35,0,0,1-2.22-2.5,2.64,2.64,0,0,1,2.64-2.71,2.51,2.51,0,0,1,2.63,2.77,6.46,6.46,0,0,1-3.82,5.22l-.45-.79A5.16,5.16,0,0,0,125.61,195Zm.1-.94.18.29a5.23,5.23,0,0,0,.25-1.54c0-1.21-.34-1.88-1.08-1.88s-1.08.91-1.08,1.86.35,1.57.84,1.57A1.71,1.71,0,0,0,125.71,194.09Z" transform="translate(0 0)"/><path class="cls-5" d="M135.32,190.38l-1,.4v6.3h2.32l.66-1.8.85.12v2.53h-6.37l-.12-.85,1-.39v-5.91l-1-.4.12-.85h3.43Z" transform="translate(0 0)"/><path class="cls-5" d="M147.72,195.12a2.69,2.69,0,0,1-3,2.93,2.72,2.72,0,0,1-3-2.93,3,3,0,0,1,6,0Zm-4.44,0c0,1.31.51,2.2,1.45,2.2s1.46-.87,1.46-2.2-.57-2.14-1.46-2.14S143.28,193.77,143.28,195.09Z" transform="translate(0 0)"/><path class="cls-5" d="M152.3,193.06l-.13-.71,1.55-.15.6.18v4.55l.76.27-.14.73h-1.63l-.36-.28a2.61,2.61,0,0,1-1.58.41,2,2,0,0,1-2.19-2.19v-2.81h-.49l-.13-.71,1.44-.15.69.16V196a1.09,1.09,0,0,0,1.1,1.22,1.44,1.44,0,0,0,1-.46v-3.67Z" transform="translate(0 0)"/><path class="cls-5" d="M114.2,211.26v-5.34H113l-.16-.84,2.13-.47h.81v6.65l1.27.24-.15.83H113l-.15-.84Z" transform="translate(0 0)"/><path class="cls-5" d="M121.13,209.43a2.83,2.83,0,0,1-1,.25,2.36,2.36,0,0,1-2.22-2.5,2.64,2.64,0,0,1,2.64-2.71,2.51,2.51,0,0,1,2.63,2.77,6.46,6.46,0,0,1-3.81,5.22l-.46-.79A5.23,5.23,0,0,0,121.13,209.43Zm.09-.94.18.29a4.92,4.92,0,0,0,.25-1.54c0-1.21-.33-1.88-1.08-1.88s-1.08.91-1.08,1.86.35,1.57.84,1.57A1.71,1.71,0,0,0,121.22,208.49Z" transform="translate(0 0)"/><path class="cls-5" d="M126,211.7a.82.82,0,1,1-1.64,0,.82.82,0,0,1,1.64,0Z" transform="translate(0 0)"/><path class="cls-5" d="M132.39,209.93a2.56,2.56,0,0,1-2.79,2.52,3.37,3.37,0,0,1-2.26-.88l.49-.73a3,3,0,0,0,1.71.72,1.48,1.48,0,0,0,1.3-1.59c0-.88-.56-1.31-1.54-1.31l-.57.11-.39-.57,2.37-2.68-1,.37h-1.07l-.28.84-.79-.16v-2h4.27l.29.64-2.06,2.38A2.29,2.29,0,0,1,132.39,209.93Z" transform="translate(0 0)"/><path class="cls-5" d="M141.57,213.29c0,1.43-1.37,2-2.83,2-1.17,0-2.32-.41-2.32-1.47,0-.63.63-1.15,1.27-1.36l.43.52a1,1,0,0,0-.53.78c0,.38.46.68,1.15.68s1.27-.36,1.27-.88-.56-.82-1-1l-1.23-.4c-.42-.14-.94-.41-.94-1l.57-1a1.78,1.78,0,0,1-.73-1.57,2.25,2.25,0,0,1,2.45-2.08,4,4,0,0,1,1,.13l1.66-.15-.18.88h-.7l.54.34a2.1,2.1,0,0,1,.18.88c0,1.38-1.13,2.07-2.64,2.07a3.33,3.33,0,0,1-.84-.1l0,.1c0,.13.14.22.35.28l1.05.37C140.72,211.82,141.57,212.28,141.57,213.29Zm-3.51-4.64c0,.88.43,1.34,1,1.34s1.1-.42,1.1-1.37-.58-1.27-1.1-1.27S138.06,207.77,138.06,208.65Z" transform="translate(0 0)"/><path class="cls-5" d="M146.16,207.51a2.08,2.08,0,0,0-.48,0,3.87,3.87,0,0,0-1.08.24v3.63l1,.27-.14.73h-3l-.14-.73.76-.27v-3.87h-.54l-.15-.73,1.56-.13.49.31a5.19,5.19,0,0,1,1.55-.31,3.4,3.4,0,0,1,1.24.26v1.39l-.81.15Z" transform="translate(0 0)"/><path class="cls-5" d="M150.19,206.6c1.55,0,2.47.8,2.47,2.25v2.48l.67.27-.14.73h-1.53l-.36-.28a2.62,2.62,0,0,1-1.54.41c-1.08,0-2-.57-2-1.67,0-1.63,1.91-2,3.42-2v-.42a1,1,0,0,0-1-1,4,4,0,0,0-.89.13l-.26.92-.81-.15V207.1A4.61,4.61,0,0,1,150.19,206.6Zm-.82,4.09a.83.83,0,0,0,.83.9,1.28,1.28,0,0,0,1-.48v-1.58C150,209.53,149.37,210,149.37,210.69Z" transform="translate(0 0)"/><path class="cls-5" d="M160.41,211.6l-.14.73h-2.75l-.14-.73.75-.27v-2.92a.92.92,0,0,0-.95-.95,3.56,3.56,0,0,0-1,.24v3.63l.76.27-.15.73H154l-.14-.73.75-.27v-3.87h-.54l-.13-.73,1.5-.13.49.31a5.32,5.32,0,0,1,1.5-.31A2.33,2.33,0,0,1,159,207a4,4,0,0,1,1.72-.44c1.55,0,2.38.72,2.38,2v2.71l.77.27-.14.73H161l-.14-.73.75-.27v-2.81a1.05,1.05,0,0,0-1.09-1.06,2.6,2.6,0,0,0-1.07.24,2.21,2.21,0,0,1,.18.91v2.72Z" transform="translate(0 0)"/><path class="cls-5" d="M167.14,206.6c1.55,0,2.48.8,2.48,2.25v2.48l.67.27-.15.73h-1.52l-.36-.28a2.63,2.63,0,0,1-1.55.41c-1.08,0-2-.57-2-1.67,0-1.63,1.9-2,3.41-2v-.42a1,1,0,0,0-1-1,4,4,0,0,0-.88.13l-.27.92-.8-.15V207.1A4.57,4.57,0,0,1,167.14,206.6Zm-.81,4.09a.82.82,0,0,0,.83.9,1.25,1.25,0,0,0,.94-.48v-1.58C167,209.53,166.33,210,166.33,210.69Z" transform="translate(0 0)"/><path class="cls-5" d="M170.89,212v-1.42l.8-.15.41,1.18a2.73,2.73,0,0,0,.77.12c.59,0,1.1-.2,1.1-.64s-.65-.72-1.18-1c-.8-.37-1.88-.87-1.88-1.92s.94-1.55,2.38-1.55a3.71,3.71,0,0,1,1.85.5v1.15l-.82.15-.25-.93a4,4,0,0,0-.9-.12c-.48,0-.88.26-.88.63s1,.74,1.56,1c.83.39,1.5.78,1.5,1.7s-.93,1.74-2.39,1.74A5.32,5.32,0,0,1,170.89,212Z" transform="translate(0 0)"/><path class="cls-5" d="M176,213.89l-.27-.13,5.4-10.75H182l.23.11-5.4,10.77Z" transform="translate(0 0)"/><path class="cls-5" d="M185.47,212.46a2.68,2.68,0,0,1-3-2.89,2.86,2.86,0,0,1,3-3,4.15,4.15,0,0,1,1,.15v-2.52h-.65l-.13-.68,1.59-.18.7.18v7.78l.78.27-.14.73h-1.63l-.36-.28A2.2,2.2,0,0,1,185.47,212.46Zm.13-5c-.93,0-1.47.74-1.47,2s.59,2.14,1.41,2.14a1.45,1.45,0,0,0,1-.38V207.7A2.28,2.28,0,0,0,185.6,207.46Z" transform="translate(0 0)"/><path class="cls-5" d="M192.31,212.33h-2.76l-.14-.73.76-.27v-3.87h-.55l-.13-.73,1.46-.13.74.13v4.6l.76.27Zm-.7-7.58a.78.78,0,0,1-.78.78.78.78,0,1,1,0-1.56A.77.77,0,0,1,191.61,204.75Z" transform="translate(0 0)"/><path class="cls-5" d="M195.76,206.6c1.55,0,2.48.8,2.48,2.25v2.48l.67.27-.15.73h-1.52l-.36-.28a2.63,2.63,0,0,1-1.55.41c-1.08,0-2-.57-2-1.67,0-1.63,1.9-2,3.41-2v-.42a1,1,0,0,0-1-1,3.88,3.88,0,0,0-.89.13l-.27.92-.8-.15V207.1A4.6,4.6,0,0,1,195.76,206.6Zm-.81,4.09a.82.82,0,0,0,.83.9,1.25,1.25,0,0,0,.94-.48v-1.58C195.61,209.53,195,210,195,210.69Z" transform="translate(0 0)"/><g class="cls-3"><path class="cls-5" d="M67.38,188a11.11,11.11,0,0,0-6.65-20,11,11,0,0,0-4.14.81,7.2,7.2,0,0,0,0-.81,8.22,8.22,0,0,0-14.76-5,8.23,8.23,0,0,0-14.77,5,7.2,7.2,0,0,0,0,.81A11,11,0,0,0,23,168a11.11,11.11,0,0,0-6.65,20,11.11,11.11,0,0,0,6.65,20l.52,0a8.23,8.23,0,1,0,16,2.82c0-4.12-1.09-8.16-5-8.76,1-1.69-.31-3-.31-5.15a11.08,11.08,0,0,0-4.46-8.9,11.08,11.08,0,0,0,4-11.94,8.07,8.07,0,0,0,1.64.16A8.21,8.21,0,0,0,41.87,173a8.18,8.18,0,0,0,6.53,3.24A8,8,0,0,0,50,176.1a11.08,11.08,0,0,0,4,11.94,11.08,11.08,0,0,0-4.46,8.9c0,2.12-1.06,3.29,0,5-3.95.6-5.32,4.81-5.32,8.93a8.23,8.23,0,1,0,16-2.82l.52,0a11.11,11.11,0,0,0,6.65-20" transform="translate(0 0)"/><path class="cls-9" d="M73.35,229.1A9,9,0,0,0,67,220.59l-12.08-3.52c-3.62-1.65-6.65-4-6.65-8.18v-4H35.47v4c0,4.16-3,6.53-6.65,8.18l-12.08,3.52a8.93,8.93,0,0,0-6.35,8.51s0,.05,0,.08v5.21h63V229.1" transform="translate(0 0)"/><path class="cls-10" d="M73.35,229.1A9,9,0,0,0,67,220.59l-12.08-3.52c-3.62-1.65-6.65-4-6.65-8.18v-4H35.47v4c0,4.16-3,6.53-6.65,8.18l-12.08,3.52a8.93,8.93,0,0,0-6.35,8.51s0,.05,0,.08v5.21h63V229.1Z" transform="translate(0 0)"/><path class="cls-11" d="M57,187.37c0,8.36-6.78,19.28-15.13,19.28s-15.14-10.92-15.14-19.28a15.14,15.14,0,0,1,30.27,0" transform="translate(0 0)"/><path class="cls-10" d="M57,187.37c0,8.36-6.78,19.28-15.13,19.28s-15.14-10.92-15.14-19.28a15.14,15.14,0,0,1,30.27,0Z" transform="translate(0 0)"/><path class="cls-7" d="M9.49,235.29v-5.8a9.41,9.41,0,0,1,7-8.94l12-3.3c3.88-1.67,5.8-3.67,6-6.3l.08-1,1,.18a37.17,37.17,0,0,0,6.91.61,38.62,38.62,0,0,0,5.67-.4l.92-.14.1.92c.3,2.54,2.21,4.48,6,6.11l12,3.3a9.39,9.39,0,0,1,7,8.86v5.88Z" transform="translate(0 0)"/><path class="cls-5" d="M35.44,211a38.32,38.32,0,0,0,7.07.63,39.39,39.39,0,0,0,5.81-.42c.4,3.4,3.23,5.42,6.59,6.86L67,221.41a8.48,8.48,0,0,1,6.35,8,.25.25,0,0,1,0,.08v4.9h-63v-5a8.51,8.51,0,0,1,6.36-8l12.08-3.31c3.43-1.47,6.31-3.54,6.62-7.07m-1.61-2.12-.17,2c-.2,2.25-1.92,4-5.43,5.53l-12,3.28A10.28,10.28,0,0,0,8.6,229.4v6.78H75.13V229.4a10.28,10.28,0,0,0-7.67-9.71l-12-3.28c-3.43-1.49-5.15-3.2-5.41-5.38l-.22-1.83-1.82.27a36.85,36.85,0,0,1-5.54.4,36.19,36.19,0,0,1-6.74-.6Z" transform="translate(0 0)"/><rect class="cls-7" x="67.65" y="193.91" width="13" height="8.04"/><path class="cls-12" d="M81.9,201.94a43.6,43.6,0,0,1-.36,6.66l-1.79,13.72a30.82,30.82,0,0,0,.12,8.79l.64,4.06a.86.86,0,0,1-.84,1H68.25a.88.88,0,0,1-.85-1l.65-3.93a30.57,30.57,0,0,0,.14-9.06l-1.8-13.53a44.2,44.2,0,0,1-.38-6.71Z" transform="translate(0 0)"/><path class="cls-5" d="M79.85,194.8l.4,4.61a41.2,41.2,0,0,1-.21,9L78.2,222.09a31.51,31.51,0,0,0,.13,9.3l.49,3H69.2l.49-2.89a31.54,31.54,0,0,0,.15-9.6L68,208.42a41.07,41.07,0,0,1-.22-9.07l.39-4.55H79.85m.88-1.75H67.28a.79.79,0,0,0-.79.72L66,199.2a42.07,42.07,0,0,0,.23,9.45l1.85,13.53a30.24,30.24,0,0,1-.14,9.06l-.67,3.93a.88.88,0,0,0,.87,1h11.7a.87.87,0,0,0,.86-1l-.66-4.06a30.11,30.11,0,0,1-.12-8.79l1.84-13.72a43,43,0,0,0,.22-9.35l-.48-5.48a.78.78,0,0,0-.79-.72" transform="translate(0 0)"/><path class="cls-5" d="M66.79,201c2,.19,4.16.29,6.35.29a65.26,65.26,0,0,0,7.86-.45l.23,1.74a68.06,68.06,0,0,1-8.09.47c-2.21,0-4.35-.1-6.35-.29Z" transform="translate(0 0)"/><line class="cls-13" x1="77.99" y1="198.57" x2="77.74" y2="206.75"/><path class="cls-7" d="M77.49,210.75a.92.92,0,0,0,0-1.83.92.92,0,0,0,0,1.83" transform="translate(0 0)"/><path class="cls-4" d="M43.5,269H276.89a7,7,0,0,1,7.05,7v16.78a15.55,15.55,0,0,1-15.55,15.55H43.5Z" transform="translate(0 0)"/><path class="cls-8" d="M165.68,320.63H73.35V304.16H173.51a3.73,3.73,0,0,1,3.73,3.73v1.18a11.56,11.56,0,0,1-11.56,11.56" transform="translate(0 0)"/></g><path class="cls-7" d="M115.28,316.43h-2.72l-.14-.73.74-.26v-7.1h-.66l-.15-.69,1.61-.18.71.18V311a3.91,3.91,0,0,1,1.36-.31c1.35,0,2.25.6,2.25,1.91v2.83l.76.26-.15.73h-2.74l-.15-.73.77-.26v-3a.78.78,0,0,0-.83-.87,3.88,3.88,0,0,0-1.27.24v3.63l.76.26Z" transform="translate(0 0)"/><path class="cls-7" d="M125.86,313.62a2.68,2.68,0,0,1-3,2.93,2.72,2.72,0,0,1-3-2.93,2.77,2.77,0,0,1,3-2.92A2.74,2.74,0,0,1,125.86,313.62Zm-4.43,0c0,1.32.51,2.21,1.45,2.21s1.46-.88,1.46-2.21-.57-2.14-1.46-2.14S121.43,312.27,121.43,313.59Z" transform="translate(0 0)"/><path class="cls-7" d="M133.3,315.7l-.14.73h-2.75l-.14-.73.75-.26v-2.93a.92.92,0,0,0-.94-.95,3.7,3.7,0,0,0-1.05.24v3.64l.76.26-.14.73h-2.74l-.14-.73.75-.26v-3.88H127l-.13-.73,1.5-.13.49.31a5.32,5.32,0,0,1,1.5-.31,2.33,2.33,0,0,1,1.57.44,4.19,4.19,0,0,1,1.72-.44c1.56,0,2.38.72,2.38,2v2.71l.77.26-.14.73H133.9l-.14-.73.75-.26v-2.82a1.05,1.05,0,0,0-1.09-1.06,2.51,2.51,0,0,0-1.06.24,2.21,2.21,0,0,1,.18.91v2.73Z" transform="translate(0 0)"/><path class="cls-7" d="M142.87,315.14l.41.61a3.5,3.5,0,0,1-2.32.81c-2.28,0-3.27-1.16-3.27-2.94a2.85,2.85,0,0,1,3.07-2.92c1.44,0,2.61.77,2.61,1.94a2.36,2.36,0,0,1-.26,1h-3.78c0,1.2.66,2,1.69,2A3.3,3.3,0,0,0,142.87,315.14Zm-1-2.58a1,1,0,0,0-1.1-1.11,1.44,1.44,0,0,0-1.39,1.45h2.45A1.32,1.32,0,0,0,141.86,312.56Z" transform="translate(0 0)"/><path class="cls-7" d="M146.48,311.8v3.64l.77.26-.13.73h-2.77l-.14-.73.76-.26v-3.88h-.54l-.13-.73,1.53-.13.5.31a5.18,5.18,0,0,1,1.49-.31c1.4,0,2.28.72,2.28,2v2.71l.76.26-.15.73H148l-.14-.73.75-.26v-2.89a1,1,0,0,0-1.07-1A3.56,3.56,0,0,0,146.48,311.8Z" transform="translate(0 0)"/><path class="cls-7" d="M151.76,316.06v-1.42l.81-.15.4,1.19a3.29,3.29,0,0,0,.77.12c.59,0,1.11-.21,1.11-.65s-.65-.72-1.19-1c-.79-.38-1.87-.88-1.87-1.92s.93-1.56,2.37-1.56a3.71,3.71,0,0,1,1.85.5v1.15l-.82.15-.25-.93a4,4,0,0,0-.9-.12c-.48,0-.87.27-.87.63s1,.74,1.56,1c.82.39,1.49.78,1.49,1.7s-.93,1.74-2.38,1.74A5.19,5.19,0,0,1,151.76,316.06Z" transform="translate(0 0)"/><path class="cls-5" d="M114.54,275.42l-.36,1.19-.81-.16v-1.6a5.24,5.24,0,0,1,2.12-.49,2.09,2.09,0,0,1,2.35,2.09c0,2.4-3,3.25-3.43,4.49h2.22l.27-.83.8.15v2h-4.55v-.64c0-2.14,3.1-3.09,3.1-5.26,0-.79-.37-1.07-.8-1.07A2.34,2.34,0,0,0,114.54,275.42Z" transform="translate(0 0)"/><path class="cls-5" d="M118.87,279.6l3.84-5.24.77.21v4.75h1.1l-.22.87h-.88v1l1.26.24-.16.83h-3.81l-.15-.84,1.31-.23v-1H119.3Zm3.58-3.32-2.22,3h1.7v-1.44Z" transform="translate(0 0)"/><path class="cls-5" d="M127.5,281.59a.83.83,0,1,1-.83-.81A.83.83,0,0,1,127.5,281.59Z" transform="translate(0 0)"/><path class="cls-5" d="M132.55,277.9a2.83,2.83,0,0,1,1.55,2.33,2.39,2.39,0,0,1-2.62,2.11c-1.27,0-2.61-.72-2.61-2a2.58,2.58,0,0,1,1.48-2.05,2.63,2.63,0,0,1-1.27-2c0-1,.94-1.9,2.4-1.9s2.33.84,2.33,1.74A2.36,2.36,0,0,1,132.55,277.9Zm-1.34.86a1.84,1.84,0,0,0-.84,1.53,1.12,1.12,0,1,0,2.24,0C132.61,279.57,131.77,279.09,131.21,278.76Zm1.19-2.57a.86.86,0,0,0-.92-.94.87.87,0,0,0-.91,1c0,.49.61.9,1.13,1.18A1.56,1.56,0,0,0,132.4,276.19Z" transform="translate(0 0)"/><path class="cls-5" d="M142,274.67l-1,.4v6.3h2.31l.66-1.8.85.12v2.53h-6.37l-.12-.85,1-.39v-5.91l-1-.4.12-.85h3.43Z" transform="translate(0 0)"/><path class="cls-5" d="M154.35,279.41a2.68,2.68,0,0,1-3,2.93,2.72,2.72,0,0,1-3-2.93,3,3,0,0,1,6,0Zm-4.44,0c0,1.32.52,2.2,1.46,2.2s1.46-.87,1.46-2.2-.58-2.14-1.46-2.14S149.91,278.06,149.91,279.38Z" transform="translate(0 0)"/><path class="cls-5" d="M158.94,277.35l-.14-.71,1.55-.15.6.18v4.55l.77.27-.14.73h-1.64l-.36-.28a2.57,2.57,0,0,1-1.58.41,2,2,0,0,1-2.18-2.19v-2.81h-.49l-.14-.71,1.44-.15.7.16v3.61a1.09,1.09,0,0,0,1.09,1.22,1.44,1.44,0,0,0,1-.46v-3.67Z" transform="translate(0 0)"/><path class="cls-5" d="M115.43,291.61a2.32,2.32,0,0,1,2.37,2.45,2.56,2.56,0,0,1-2.81,2.68,3.64,3.64,0,0,1-2.36-.88l.48-.73a3.25,3.25,0,0,0,1.81.72c.7,0,1.32-.57,1.32-1.75,0-1-.38-1.61-1.2-1.61a2.14,2.14,0,0,0-1.15.36l-.65-.26.48-3.73h2.81l.26-.83.81.16v1.95h-3.1l-.23,1.74A2.6,2.6,0,0,1,115.43,291.61Z" transform="translate(0 0)"/><path class="cls-5" d="M124.44,294.22a2.57,2.57,0,0,1-2.8,2.52,3.34,3.34,0,0,1-2.25-.88l.49-.73a3,3,0,0,0,1.7.72,1.48,1.48,0,0,0,1.31-1.59c0-.88-.56-1.31-1.55-1.31l-.56.11-.4-.57,2.38-2.68-1,.37h-1.07l-.27.84-.79-.16v-2h4.27l.28.64-2.06,2.38A2.3,2.3,0,0,1,124.44,294.22Z" transform="translate(0 0)"/><path class="cls-5" d="M127.4,296a.82.82,0,1,1-1.64,0,.82.82,0,0,1,1.64,0Z" transform="translate(0 0)"/><path class="cls-5" d="M131.76,293.72a2.84,2.84,0,0,1-1,.25,2.35,2.35,0,0,1-2.22-2.5,2.64,2.64,0,0,1,2.64-2.71,2.51,2.51,0,0,1,2.62,2.77,6.45,6.45,0,0,1-3.81,5.22l-.46-.79A5.23,5.23,0,0,0,131.76,293.72Zm.09-.94.18.29a4.92,4.92,0,0,0,.25-1.54c0-1.21-.33-1.88-1.07-1.88s-1.08.91-1.08,1.86.34,1.57.84,1.57A1.71,1.71,0,0,0,131.85,292.78Z" transform="translate(0 0)"/><path class="cls-5" d="M134.52,294l3.84-5.24.76.21v4.75h1.11l-.22.87h-.89v1l1.26.24-.15.83h-3.82l-.14-.84,1.31-.23v-1H135Zm3.57-3.32-2.22,3h1.71v-1.44Z" transform="translate(0 0)"/><path class="cls-5" d="M149.36,297.58c0,1.43-1.37,2-2.83,2-1.18,0-2.33-.41-2.33-1.47,0-.63.64-1.15,1.27-1.36l.44.52a1,1,0,0,0-.53.78c0,.38.45.68,1.15.68s1.27-.36,1.27-.88-.56-.82-1.05-1l-1.23-.4c-.42-.14-1-.41-1-1l.58-1a1.78,1.78,0,0,1-.73-1.57,2.25,2.25,0,0,1,2.45-2.08,4,4,0,0,1,1,.13l1.66-.15-.18.88h-.7l.54.34a2.1,2.1,0,0,1,.18.88c0,1.38-1.13,2.07-2.64,2.07a3.22,3.22,0,0,1-.84-.1l0,.1c0,.13.14.22.34.28l1.06.38C148.51,296.11,149.36,296.57,149.36,297.58Zm-3.51-4.64c0,.88.43,1.34,1,1.34s1.1-.42,1.1-1.37-.58-1.27-1.1-1.27S145.85,292.06,145.85,292.94Z" transform="translate(0 0)"/><path class="cls-5" d="M154,291.8a2.11,2.11,0,0,0-.49-.05,3.89,3.89,0,0,0-1.07.24v3.63l1,.27-.14.73h-3l-.14-.73.76-.27v-3.87h-.55l-.14-.73,1.56-.13.49.31a5.12,5.12,0,0,1,1.55-.31,3.32,3.32,0,0,1,1.23.26v1.39l-.8.15Z" transform="translate(0 0)"/><path class="cls-5" d="M158,290.89a2.16,2.16,0,0,1,2.47,2.25v2.48l.67.27-.14.73h-1.53l-.36-.28a2.63,2.63,0,0,1-1.55.41c-1.07,0-2-.57-2-1.67,0-1.63,1.9-2,3.42-2v-.42a1,1,0,0,0-1-1,4,4,0,0,0-.89.13l-.26.92-.81-.15v-1.15A4.61,4.61,0,0,1,158,290.89Zm-.82,4.09a.82.82,0,0,0,.83.9,1.25,1.25,0,0,0,.95-.48v-1.58C157.82,293.82,157.16,294.29,157.16,295Z" transform="translate(0 0)"/><path class="cls-5" d="M168.2,295.89l-.15.73h-2.74l-.15-.73.76-.27V292.7a.92.92,0,0,0-.95-.95,3.56,3.56,0,0,0-1,.24v3.63l.75.27-.14.73h-2.73l-.15-.73.76-.27v-3.87h-.54l-.13-.73,1.5-.13.49.31a5.18,5.18,0,0,1,1.5-.31,2.35,2.35,0,0,1,1.57.44,4,4,0,0,1,1.71-.44c1.56,0,2.39.72,2.39,2v2.71l.77.27-.15.73H168.8l-.15-.73.76-.27v-2.81a1.06,1.06,0,0,0-1.09-1.06,2.6,2.6,0,0,0-1.07.24,2.21,2.21,0,0,1,.18.91v2.72Z" transform="translate(0 0)"/><path class="cls-5" d="M174.93,290.89c1.55,0,2.47.8,2.47,2.25v2.48l.68.27-.15.73h-1.52l-.36-.28a2.63,2.63,0,0,1-1.55.41c-1.08,0-2-.57-2-1.67,0-1.63,1.91-2,3.42-2v-.42a1,1,0,0,0-1-1,3.79,3.79,0,0,0-.88.13l-.27.92-.8-.15v-1.15A4.54,4.54,0,0,1,174.93,290.89Zm-.81,4.09a.82.82,0,0,0,.83.9,1.21,1.21,0,0,0,.94-.48v-1.58C174.78,293.82,174.12,294.29,174.12,295Z" transform="translate(0 0)"/><path class="cls-5" d="M178.68,296.25v-1.42l.8-.15.41,1.18a2.73,2.73,0,0,0,.77.12c.58,0,1.1-.2,1.1-.64s-.65-.72-1.19-1c-.79-.37-1.87-.87-1.87-1.91s.94-1.56,2.38-1.56a3.64,3.64,0,0,1,1.84.5v1.15l-.81.15-.25-.93a4,4,0,0,0-.9-.12c-.48,0-.88.26-.88.63s1,.74,1.56,1c.83.39,1.5.78,1.5,1.7s-.94,1.74-2.39,1.74A5.32,5.32,0,0,1,178.68,296.25Z" transform="translate(0 0)"/><path class="cls-5" d="M183.74,298.18l-.26-.13,5.4-10.75h.86l.23.11-5.4,10.77Z" transform="translate(0 0)"/><path class="cls-5" d="M193.26,296.75a2.68,2.68,0,0,1-3-2.89,2.86,2.86,0,0,1,3-3,4.15,4.15,0,0,1,1,.15v-2.52h-.65l-.13-.68,1.58-.18.71.18v7.78l.78.27-.14.73h-1.63l-.36-.28A2.23,2.23,0,0,1,193.26,296.75Zm.13-5c-.94,0-1.48.74-1.48,2s.6,2.14,1.42,2.14a1.45,1.45,0,0,0,1-.38V292A2.28,2.28,0,0,0,193.39,291.75Z" transform="translate(0 0)"/><path class="cls-5" d="M200.1,296.62h-2.76l-.15-.73.77-.27v-3.87h-.55l-.13-.73,1.46-.13.73.13v4.6l.77.27Zm-.7-7.58a.78.78,0,1,1-.78-.78A.79.79,0,0,1,199.4,289Z" transform="translate(0 0)"/><path class="cls-5" d="M203.55,290.89c1.55,0,2.47.8,2.47,2.25v2.48l.68.27-.15.73H205l-.36-.28a2.63,2.63,0,0,1-1.55.41c-1.08,0-2-.57-2-1.67,0-1.63,1.91-2,3.42-2v-.42a1,1,0,0,0-1-1,3.88,3.88,0,0,0-.88.13l-.27.92-.8-.15v-1.15A4.54,4.54,0,0,1,203.55,290.89Zm-.81,4.09a.82.82,0,0,0,.83.9,1.21,1.21,0,0,0,.94-.48v-1.58C203.4,293.82,202.74,294.29,202.74,295Z" transform="translate(0 0)"/><g class="cls-3"><path class="cls-14" d="M9.49,316.21v-5.6c0-4,3.06-7.54,7.36-8.61l12.65-3.17c4.35-1.7,6.38-3.77,6.38-6.51v-4.5H51.13v4.5c0,2.74,2,4.81,6.37,6.51L70.15,302c4.31,1.07,7.34,4.58,7.37,8.53v5.68Z" transform="translate(0 0)"/><path class="cls-5" d="M50.23,288.72v3.6c0,3.75,3.18,5.89,7,7.37l12.71,3.18c3.82.95,6.65,4.05,6.68,7.66v4.78H10.38v-4.78c0-3.61,2.86-6.71,6.69-7.66l12.71-3.18c3.81-1.48,7-3.62,7-7.37v-3.6H50.23m1.8-1.8H35v5.4c0,1.58-.66,3.66-5.75,5.66l-12.6,3.15c-4.7,1.17-8,5-8,9.39v6.58H78.42v-6.58c0-4.36-3.34-8.22-8-9.39L57.78,298c-5.1-2-5.75-4.08-5.75-5.66v-5.4Z" transform="translate(0 0)"/><path class="cls-15" d="M28.68,282.37c-.78,0-2.68-2.42-2.88-4.82a2.52,2.52,0,0,1,.62-2.08,2.82,2.82,0,0,1,1.65-.69h0c.94,0,2,1.5,2.21,3.64s-.7,3.88-1.6,3.95Z" transform="translate(0 0)"/><path class="cls-5" d="M28.13,275.68c.27.06,1.11,1,1.26,2.82a3.89,3.89,0,0,1-.7,2.93,6.46,6.46,0,0,1-2-4c-.08-.94.24-1.25.35-1.36a1.84,1.84,0,0,1,1.08-.43m0-1.79H28a3.2,3.2,0,0,0-3.09,3.73c.21,2.54,2.23,5.65,3.77,5.65h.09c1.54-.12,2.62-2.32,2.41-4.91s-1.55-4.46-3-4.46" transform="translate(0 0)"/><path class="cls-15" d="M58.42,282.37c-.9-.07-1.77-1.78-1.6-3.95s1.28-3.64,2.15-3.64a2.83,2.83,0,0,1,1.72.69,2.49,2.49,0,0,1,.61,2.08c-.19,2.4-2.09,4.82-2.87,4.82Z" transform="translate(0 0)"/><path class="cls-5" d="M59,275.68a1.43,1.43,0,0,1,1.44,1.79,6.41,6.41,0,0,1-2,3.95,3.87,3.87,0,0,1-.7-2.92c.15-1.82,1-2.76,1.25-2.82m0-1.79c-1.49,0-2.84,1.95-3,4.46s.87,4.79,2.41,4.91h.09c1.54,0,3.56-3.11,3.77-5.65a3.2,3.2,0,0,0-3.09-3.73H59" transform="translate(0 0)"/><path class="cls-15" d="M43.46,292c-8.68-.39-14.74-8.34-14.74-19.33,0-7.82,0-15.2,14.77-15.39,14.8.19,14.8,7.57,14.8,15.39,0,11-6.07,18.94-14.75,19.33h-.08Z" transform="translate(0 0)"/><path class="cls-5" d="M43.5,258.21c13.88.19,13.89,6.61,13.89,14.5,0,11.22-6.16,18.09-13.89,18.44-7.72-.35-13.89-7.22-13.89-18.44,0-7.89,0-14.31,13.89-14.5m0-1.79h0c-15.66.21-15.66,8.38-15.66,16.29,0,11.5,6.42,19.82,15.6,20.23h.16c9.19-.41,15.61-8.73,15.61-20.23,0-7.91,0-16.08-15.66-16.29Z" transform="translate(0 0)"/><path class="cls-5" d="M62,265.29c-.79-4.13-2.58-8.24-5.87-10.85a10.86,10.86,0,0,0-8.45-2.24,7.85,7.85,0,0,0-4.13,2.09,7.78,7.78,0,0,0-4.13-2.09A10.85,10.85,0,0,0,31,254.44c-3.29,2.61-5.08,6.72-5.87,10.85-.51,2.7-.51,11.11,4.41,9.71l-.36-8.1a21.1,21.1,0,0,0,14.39-9,21.14,21.14,0,0,0,14.4,9l-.37,8.1c4.93,1.4,4.93-7,4.42-9.71" transform="translate(0 0)"/><path class="cls-16" d="M9.49,319.61v-9c0-4,3.06-7.54,7.36-8.61l12.65-3.16,1.23-.5.31.9a13.3,13.3,0,0,0,12.79,8.67,13.36,13.36,0,0,0,12.72-8.48l.28-.76L70.15,302c4.31,1.07,7.34,4.58,7.37,8.53v9.1Z" transform="translate(0 0)"/><path class="cls-5" d="M30.19,299.51a14.25,14.25,0,0,0,13.64,9.28,14.26,14.26,0,0,0,13.56-9.08l12.55,3.14c3.82.95,6.65,4,6.68,7.67v8.19H10.38v-8.19c0-3.62,2.86-6.72,6.69-7.67l12.71-3.18.41-.16m1.08-2.38-1.76.71-.11.05-.17.07-12.6,3.15c-4.7,1.17-8,5-8,9.39v10H78.42v-10c0-4.35-3.34-8.22-8-9.39L57.83,298l-1.57-.39-.55,1.52A12.46,12.46,0,0,1,43.83,307a12.41,12.41,0,0,1-11.94-8.06Z" transform="translate(0 0)"/><rect class="cls-7" x="67.51" y="278.2" width="13" height="8.04"/><path class="cls-12" d="M81.76,286.24a43.47,43.47,0,0,1-.36,6.65l-1.8,13.73a30.75,30.75,0,0,0,.12,8.78l.65,4.07a.88.88,0,0,1-.85,1H68.1a.87.87,0,0,1-.84-1l.65-3.92a30.92,30.92,0,0,0,.14-9.06L66.24,293a44.33,44.33,0,0,1-.37-6.71Z" transform="translate(0 0)"/><path class="cls-5" d="M79.7,279.1l.4,4.6a40.67,40.67,0,0,1-.21,9l-1.84,13.72a31.92,31.92,0,0,0,.13,9.31l.5,3H69.05l.5-2.9a32.11,32.11,0,0,0,.15-9.59l-1.85-13.53a41.06,41.06,0,0,1-.23-9.07l.4-4.54H79.7m.89-1.76H67.13a.8.8,0,0,0-.79.72l-.47,5.43a42.76,42.76,0,0,0,.24,9.46L68,306.48a29.92,29.92,0,0,1-.15,9.06l-.66,3.92a.88.88,0,0,0,.86,1h11.7a.88.88,0,0,0,.87-1l-.66-4.07a29.7,29.7,0,0,1-.12-8.78l1.83-13.73a42.28,42.28,0,0,0,.22-9.34l-.47-5.49a.8.8,0,0,0-.79-.72" transform="translate(0 0)"/><path class="cls-5" d="M66.64,285.3c2,.19,4.16.29,6.36.29a65.19,65.19,0,0,0,7.86-.46l.22,1.74a65.77,65.77,0,0,1-8.08.48c-2.22,0-4.36-.1-6.36-.29Z" transform="translate(0 0)"/><line class="cls-13" x1="77.85" y1="282.86" x2="77.59" y2="291.04"/><path class="cls-7" d="M77.34,295a.92.92,0,0,0,0-1.83.92.92,0,0,0,0,1.83" transform="translate(0 0)"/><path class="cls-4" d="M43.5,92.4H276.89a7.05,7.05,0,0,1,7.05,7v16.78a15.55,15.55,0,0,1-15.55,15.55H43.5Z" transform="translate(0 0)"/><path class="cls-16" d="M166.29,144.18H43.5V127.71H174.11a3.73,3.73,0,0,1,3.73,3.73v1.18a11.55,11.55,0,0,1-11.55,11.56" transform="translate(0 0)"/></g><path class="cls-7" d="M113.07,138.92l1-.37v-5.93l-1-.4.13-.85h4.33a2.09,2.09,0,0,1,2.18,2,2,2,0,0,1-.91,1.68,2.42,2.42,0,0,1,1.69,2.29,2.51,2.51,0,0,1-2.78,2.41h-4.5Zm4.31,0a1.53,1.53,0,0,0,1.32-1.68,1.58,1.58,0,0,0-1.59-1.62h-.88v-.94h.5a1.23,1.23,0,1,0-.1-2.46h-.91v6.7Z" transform="translate(0 0)"/><path class="cls-7" d="M125.33,135a2,2,0,0,0-.48,0,4,4,0,0,0-1.08.24v3.63l1,.27-.14.73h-3l-.14-.73.75-.27V134.9h-.54l-.14-.73,1.56-.13.49.31a5.12,5.12,0,0,1,1.55-.31,3.32,3.32,0,0,1,1.23.26v1.39l-.8.14Z" transform="translate(0 0)"/><path class="cls-7" d="M129.37,134a2.16,2.16,0,0,1,2.47,2.25v2.48l.67.27-.15.73h-1.52l-.36-.28a2.63,2.63,0,0,1-1.55.41c-1.08,0-2-.58-2-1.67,0-1.63,1.9-2,3.42-2v-.42a1,1,0,0,0-1-1,4,4,0,0,0-.89.13l-.27.91-.8-.14v-1.15A4.61,4.61,0,0,1,129.37,134Zm-.82,4.09a.81.81,0,0,0,.83.89,1.27,1.27,0,0,0,1-.47V137C129.21,137,128.55,137.44,128.55,138.13Z" transform="translate(0 0)"/><path class="cls-7" d="M133.11,139.4V138l.8-.15.41,1.18a3.14,3.14,0,0,0,.77.12c.59,0,1.1-.2,1.1-.64s-.64-.72-1.18-1c-.8-.37-1.88-.87-1.88-1.92s.94-1.55,2.38-1.55a3.71,3.71,0,0,1,1.85.5v1.15l-.82.14-.25-.92a4,4,0,0,0-.9-.12c-.48,0-.88.26-.88.62s1,.75,1.56,1c.83.39,1.5.78,1.5,1.7s-.93,1.74-2.38,1.74A5.33,5.33,0,0,1,133.11,139.4Z" transform="translate(0 0)"/><path class="cls-7" d="M141.44,139.77h-2.76l-.15-.73.77-.27V134.9h-.55l-.13-.73,1.46-.13.73.13v4.6l.77.27Zm-.7-7.58a.78.78,0,1,1-.78-.78A.79.79,0,0,1,140.74,132.19Z" transform="translate(0 0)"/><path class="cls-7" d="M145.56,139.77h-2.87l-.15-.73.83-.27v-7.1h-.62l-.14-.68,1.56-.18.71.18v7.78l.83.27Z" transform="translate(0 0)"/><path class="cls-5" d="M114.56,106v-5.33h-1.23l-.15-.84,2.12-.48h.82V106l1.27.24-.16.83h-3.85l-.14-.84Z" transform="translate(0 0)"/><path class="cls-5" d="M121.48,104.12a2.78,2.78,0,0,1-1,.25,2.34,2.34,0,0,1-2.22-2.49,2.65,2.65,0,0,1,2.64-2.72,2.51,2.51,0,0,1,2.63,2.78c0,2.09-2,4.49-3.82,5.21l-.45-.79A5.1,5.1,0,0,0,121.48,104.12Zm.1-.94.18.29a5.21,5.21,0,0,0,.25-1.53c0-1.22-.34-1.89-1.08-1.89s-1.08.91-1.08,1.86.35,1.57.84,1.57A1.74,1.74,0,0,0,121.58,103.18Z" transform="translate(0 0)"/><path class="cls-5" d="M126.32,106.4a.83.83,0,1,1-.83-.82A.83.83,0,0,1,126.32,106.4Z" transform="translate(0 0)"/><path class="cls-5" d="M132.75,104.62a2.57,2.57,0,0,1-2.8,2.52,3.36,3.36,0,0,1-2.25-.88l.49-.73a3,3,0,0,0,1.7.72,1.48,1.48,0,0,0,1.31-1.59c0-.88-.56-1.31-1.55-1.31l-.56.11-.4-.57,2.38-2.68-1,.37H129l-.28.84-.79-.16v-2h4.27l.29.64-2.07,2.38A2.3,2.3,0,0,1,132.75,104.62Z" transform="translate(0 0)"/><path class="cls-5" d="M140.58,99.48l-1,.39v6.3h2.31l.66-1.8.85.12V107H137l-.12-.85,1-.39V99.87l-1-.39.12-.86h3.43Z" transform="translate(0 0)"/><path class="cls-5" d="M153,104.21a2.68,2.68,0,0,1-3,2.93,2.72,2.72,0,0,1-3-2.93,2.77,2.77,0,0,1,3-2.92A2.74,2.74,0,0,1,153,104.21Zm-4.44,0c0,1.32.52,2.2,1.45,2.2s1.47-.87,1.47-2.2S150.88,102,150,102,148.54,102.86,148.54,104.18Z" transform="translate(0 0)"/><path class="cls-5" d="M157.56,102.15l-.13-.71,1.55-.15.6.18V106l.77.27-.15.73h-1.63l-.36-.28a2.57,2.57,0,0,1-1.58.41,2,2,0,0,1-2.18-2.19v-2.81H154l-.14-.71,1.44-.15.7.17v3.61a1.09,1.09,0,0,0,1.09,1.21,1.46,1.46,0,0,0,1-.46v-3.67Z" transform="translate(0 0)"/><path class="cls-5" d="M112.79,118.81l3.84-5.25.77.21v4.75h1.1l-.21.87h-.89v1l1.26.24-.16.83h-3.81l-.14-.84,1.3-.23v-1h-2.62Zm3.58-3.33-2.22,3h1.7v-1.44Z" transform="translate(0 0)"/><path class="cls-5" d="M121.11,120.35V115h-1.22l-.16-.84,2.12-.48h.82v6.65l1.27.24-.16.83h-3.85l-.14-.84Z" transform="translate(0 0)"/><path class="cls-5" d="M126.52,120.8a.82.82,0,1,1-.83-.82A.83.83,0,0,1,126.52,120.8Z" transform="translate(0 0)"/><path class="cls-5" d="M130.88,118.52a2.84,2.84,0,0,1-1,.25,2.34,2.34,0,0,1-2.22-2.49,2.64,2.64,0,0,1,2.64-2.72,2.51,2.51,0,0,1,2.62,2.77,6.45,6.45,0,0,1-3.81,5.22l-.46-.79A5.18,5.18,0,0,0,130.88,118.52Zm.09-.94.18.29a4.92,4.92,0,0,0,.25-1.54c0-1.21-.33-1.88-1.07-1.88s-1.08.91-1.08,1.86.34,1.57.83,1.57A1.71,1.71,0,0,0,131,117.58Z" transform="translate(0 0)"/><path class="cls-5" d="M141.93,122.38c0,1.43-1.37,2-2.83,2-1.18,0-2.33-.41-2.33-1.46,0-.64.64-1.16,1.27-1.37l.43.53a1,1,0,0,0-.52.78c0,.37.45.67,1.15.67s1.27-.36,1.27-.88-.56-.81-1.06-1l-1.22-.4c-.42-.14-1-.4-1-1l.58-1a1.78,1.78,0,0,1-.73-1.58,2.24,2.24,0,0,1,2.44-2.08,4.52,4.52,0,0,1,1.06.13l1.65-.14-.18.87h-.69l.54.34a2.1,2.1,0,0,1,.18.88c0,1.38-1.13,2.07-2.64,2.07a3.22,3.22,0,0,1-.84-.1l0,.1c0,.13.15.22.35.28l1.06.38C141.08,120.92,141.93,121.37,141.93,122.38Zm-3.52-4.64c0,.89.44,1.34,1,1.34s1.11-.42,1.11-1.37-.58-1.27-1.11-1.27S138.41,116.86,138.41,117.74Z" transform="translate(0 0)"/><path class="cls-5" d="M146.51,116.6a2,2,0,0,0-.48,0,4,4,0,0,0-1.08.24v3.63l1,.27-.15.73h-3l-.14-.73.75-.27v-3.87h-.54l-.14-.73,1.56-.13.49.31a5.06,5.06,0,0,1,1.55-.31,3.32,3.32,0,0,1,1.23.26v1.39l-.8.15Z" transform="translate(0 0)"/><path class="cls-5" d="M150.54,115.69c1.55,0,2.48.8,2.48,2.25v2.48l.67.27-.15.73H152l-.36-.28a2.56,2.56,0,0,1-1.55.41c-1.08,0-2-.57-2-1.67,0-1.63,1.9-2,3.41-2v-.42a1,1,0,0,0-1-1,4,4,0,0,0-.89.13l-.27.92-.8-.15v-1.15A4.6,4.6,0,0,1,150.54,115.69Zm-.81,4.09a.82.82,0,0,0,.83.9,1.21,1.21,0,0,0,.94-.48v-1.57C150.39,118.63,149.73,119.09,149.73,119.78Z" transform="translate(0 0)"/><path class="cls-5" d="M160.77,120.69l-.15.73h-2.74l-.15-.73.76-.27V117.5a.92.92,0,0,0-1-1,3.56,3.56,0,0,0-1,.24v3.63l.75.27-.14.73h-2.74l-.14-.73.76-.27v-3.87h-.54l-.14-.73,1.5-.13.49.31a5.32,5.32,0,0,1,1.5-.31,2.36,2.36,0,0,1,1.58.44,4.1,4.1,0,0,1,1.71-.44c1.56,0,2.39.72,2.39,2v2.71l.77.27-.15.73h-2.73l-.15-.73.76-.27v-2.81a1.06,1.06,0,0,0-1.09-1.06,2.56,2.56,0,0,0-1.07.24,2.21,2.21,0,0,1,.18.91v2.72Z" transform="translate(0 0)"/><path class="cls-5" d="M167.5,115.69c1.55,0,2.47.8,2.47,2.25v2.48l.67.27-.14.73H169l-.36-.28a2.56,2.56,0,0,1-1.55.41c-1.08,0-2-.57-2-1.67,0-1.63,1.91-2,3.42-2v-.42a1,1,0,0,0-1-1,4,4,0,0,0-.89.13l-.26.92-.8-.15v-1.15A4.54,4.54,0,0,1,167.5,115.69Zm-.81,4.09a.82.82,0,0,0,.82.9,1.22,1.22,0,0,0,1-.48v-1.57C167.35,118.63,166.69,119.09,166.69,119.78Z" transform="translate(0 0)"/><path class="cls-5" d="M171.25,121.05v-1.42l.8-.15.41,1.18a2.73,2.73,0,0,0,.77.12c.58,0,1.1-.2,1.1-.64s-.65-.72-1.19-1c-.79-.38-1.87-.88-1.87-1.92s.94-1.56,2.37-1.56a3.68,3.68,0,0,1,1.85.5v1.15l-.81.15-.26-.93a3.89,3.89,0,0,0-.89-.12c-.49,0-.88.27-.88.63s1,.74,1.56,1c.83.39,1.5.78,1.5,1.7s-.94,1.74-2.39,1.74A5.29,5.29,0,0,1,171.25,121.05Z" transform="translate(0 0)"/><path class="cls-5" d="M176.31,123l-.26-.13,5.39-10.75h.87l.23.11L177.14,123Z" transform="translate(0 0)"/><path class="cls-5" d="M185.83,121.55a2.68,2.68,0,0,1-3-2.89,2.86,2.86,0,0,1,3-3,4.16,4.16,0,0,1,1.05.15v-2.52h-.65l-.13-.68,1.58-.18.71.18v7.78l.78.27-.14.73h-1.64l-.36-.28A2.17,2.17,0,0,1,185.83,121.55Zm.13-5c-.94,0-1.48.74-1.48,2s.6,2.14,1.42,2.14a1.47,1.47,0,0,0,1-.38v-3.51A2.28,2.28,0,0,0,186,116.55Z" transform="translate(0 0)"/><path class="cls-5" d="M192.66,121.42h-2.75l-.15-.73.77-.27v-3.87H190l-.13-.73,1.46-.13.73.13v4.6l.77.27Zm-.69-7.58a.78.78,0,1,1-.78-.78A.79.79,0,0,1,192,113.84Z" transform="translate(0 0)"/><path class="cls-5" d="M196.12,115.69c1.55,0,2.47.8,2.47,2.25v2.48l.67.27-.14.73H197.6l-.36-.28a2.58,2.58,0,0,1-1.55.41c-1.08,0-2-.57-2-1.67,0-1.63,1.91-2,3.42-2v-.42a1,1,0,0,0-1-1,4,4,0,0,0-.89.13l-.26.92-.8-.15v-1.15A4.54,4.54,0,0,1,196.12,115.69Zm-.82,4.09a.83.83,0,0,0,.83.9,1.22,1.22,0,0,0,1-.48v-1.57C196,118.63,195.3,119.09,195.3,119.78Z" transform="translate(0 0)"/><g class="cls-3"><path class="cls-7" d="M44.11,143.49a32,32,0,1,1,32-32,32,32,0,0,1-32,32" transform="translate(0 0)"/><path class="cls-5" d="M44.11,80.24a31.25,31.25,0,1,1-31.26,31.25A31.25,31.25,0,0,1,44.11,80.24m0-1.5a32.75,32.75,0,1,0,32.75,32.75A32.79,32.79,0,0,0,44.11,78.74" transform="translate(0 0)"/><path class="cls-5" d="M59.83,125.61H28.38a4.11,4.11,0,0,1-4.11-4.11V105.21a4.11,4.11,0,0,1,4.11-4.11H59.83a4.11,4.11,0,0,1,4.11,4.11V121.5a4.11,4.11,0,0,1-4.11,4.11" transform="translate(0 0)"/><polygon class="cls-15" points="24.27 113.35 44.11 101.92 63.94 113.35 44.11 124.79 24.27 113.35"/><path class="cls-5" d="M50.68,116a7.08,7.08,0,0,1-13.47-1,7.22,7.22,0,0,1-.19-1.94c6.09-1.51,11.54,1.51,13.66,2.94" transform="translate(0 0)"/><path class="cls-5" d="M37.24,111.6a7.09,7.09,0,0,1,13.85,3c-2.45-1.59-7.74-4.27-13.85-3" transform="translate(0 0)"/></g></svg>