<?xml version="1.0" encoding="utf-8"?>
<!-- Generator: Adobe Illustrator 25.2.0, SVG Export Plug-In . SVG Version: 6.00 Build 0)  -->
<svg version="1.1" id="Camada_1" xmlns="http://www.w3.org/2000/svg" xmlns:xlink="http://www.w3.org/1999/xlink" x="0px" y="0px"
	 viewBox="0 0 292.8 176.6" style="enable-background:new 0 0 292.8 176.6;" xml:space="preserve">
<style type="text/css">
	.st0{fill:#FF278F;}
	.st1{fill:none;}
	.st2{fill:#FFFFFF;}
	.st3{fill:#6660E2;}
	.st4{fill:none;stroke:#6960E5;stroke-width:1.5;stroke-miterlimit:10;}
	.st5{fill:#6960E5;}
	.st6{fill:#FFA9EA;}
	.st7{fill:none;stroke:#FFFFFF;stroke-width:1.888;stroke-linecap:round;stroke-linejoin:round;stroke-miterlimit:10;}
	.st8{fill:none;stroke:#FFFFFF;stroke-width:1.5;stroke-miterlimit:10;}
</style>
<path class="st0" d="M290.1,28.7H12.2c-1.6,0-2.8-1.3-2.8-2.8V15.6c0-6.3,5.1-11.3,11.3-11.3h272.2v21.6
	C292.9,27.5,291.7,28.7,290.1,28.7"/>
<rect y="-27.1" class="st1" width="292.8" height="215.4"/>
<g>
	<path class="st2" d="M71.5,20.9l0.6-1.7l0.9,0.1v1.9c-0.7,0.5-1.9,0.8-2.8,0.8c-3.1,0-4.4-2.2-4.4-4.4c0-2.2,1.5-4.4,4.4-4.4
		c1.1,0,1.9,0.3,2.8,0.8v1.9L72.1,16l-0.6-1.6c-0.4-0.1-1-0.2-1.4-0.2c-1.7,0-2.6,1.1-2.6,3.3c0,1.6,0.5,3.5,2.6,3.5
		C70.5,21.1,71.1,21,71.5,20.9z"/>
	<path class="st2" d="M82.1,17.7c0,2.5-1.3,4.4-4.1,4.4c-2.9,0-4.1-2.2-4.1-4.4c0-2.2,1.5-4.4,4.1-4.4
		C80.7,13.3,82.1,15.2,82.1,17.7z M75.7,17.6c0,2.3,0.8,3.5,2.3,3.5c1.6,0,2.4-1.2,2.4-3.5c0-2.2-0.8-3.3-2.4-3.3
		S75.7,15.3,75.7,17.6z"/>
	<path class="st2" d="M87,14.3l-1,0.4V21h2.3l0.7-1.8l0.9,0.1v2.5h-6.4L83.3,21l1-0.4v-5.9l-1-0.4l0.1-0.9h3.4L87,14.3z"/>
	<path class="st2" d="M98.9,17.7c0,2.5-1.3,4.4-4.1,4.4c-2.9,0-4.1-2.2-4.1-4.4c0-2.2,1.5-4.4,4.1-4.4
		C97.4,13.3,98.9,15.2,98.9,17.7z M92.4,17.6c0,2.3,0.8,3.5,2.3,3.5c1.6,0,2.4-1.2,2.4-3.5c0-2.2-0.8-3.3-2.4-3.3
		S92.4,15.3,92.4,17.6z"/>
	<path class="st2" d="M105.7,20.9l0.6-1.7l0.9,0.1v1.9c-0.7,0.5-1.9,0.8-2.8,0.8c-3.1,0-4.4-2.2-4.4-4.4c0-2.2,1.5-4.4,4.4-4.4
		c1.1,0,1.9,0.3,2.8,0.8v1.9l-0.9,0.1l-0.6-1.6c-0.4-0.1-1-0.2-1.4-0.2c-1.7,0-2.6,1.1-2.6,3.3c0,1.6,0.5,3.5,2.6,3.5
		C104.7,21.1,105.3,21,105.7,20.9z"/>
	<path class="st2" d="M115.4,20.6l1.1,0.4l-0.1,0.9h-3.5l-0.1-0.9l0.9-0.4l-0.5-1.4h-2.8l-0.6,1.4l1.1,0.4l-0.1,0.9h-3l-0.1-0.9
		l1-0.4l2.8-7.2l1.3-0.2L115.4,20.6z M112,14.8l-1.3,3.4h2.1l-0.8-2V14.8z"/>
	<path class="st2" d="M117.8,14.7l-1-0.4l0.1-0.9h2.5l3.4,5l0.4,1.2v-5l-1-0.4l0.1-0.9h2.7l0.1,0.9l-1,0.4v7.1l-1,0.2l-4.4-6.6v5.2
		l1,0.4l-0.1,0.9H117l-0.1-0.9l1-0.4V14.7z"/>
	<path class="st2" d="M125.9,21l1-0.4v-5.9l-1-0.4l0.1-0.9h3.6c3,0,4.4,1.8,4.4,4.1s-1.4,4.3-4.4,4.3H126L125.9,21z M128.6,21h1
		c1.8,0,2.6-1.6,2.6-3.4c0-1.8-0.8-3.3-2.6-3.3h-1V21z"/>
	<path class="st2" d="M143.3,17.7c0,2.5-1.3,4.4-4.1,4.4c-2.9,0-4.1-2.2-4.1-4.4c0-2.2,1.5-4.4,4.1-4.4
		C141.8,13.3,143.3,15.2,143.3,17.7z M136.8,17.6c0,2.3,0.8,3.5,2.3,3.5c1.6,0,2.4-1.2,2.4-3.5c0-2.2-0.8-3.3-2.4-3.3
		S136.8,15.3,136.8,17.6z"/>
	<path class="st2" d="M148.3,14.7l-1-0.4l0.1-0.9h2.5l3.4,5l0.4,1.2v-5l-1-0.4l0.1-0.9h2.7l0.1,0.9l-1,0.4v7.1l-1,0.2l-4.4-6.6v5.2
		l1,0.4l-0.1,0.9h-2.7l-0.1-0.9l1-0.4V14.7z"/>
	<path class="st2" d="M163.9,20.6L165,21l-0.1,0.9h-3.5l-0.1-0.9l0.9-0.4l-0.5-1.4h-2.8l-0.6,1.4l1.1,0.4l-0.1,0.9h-3l-0.1-0.9
		l1-0.4l2.8-7.2l1.3-0.2L163.9,20.6z M160.5,14.8l-1.3,3.4h2.1l-0.8-2V14.8z"/>
	<path class="st2" d="M168.5,21l1-0.4v-5.9l-1-0.4l0.1-0.9h4.3c1.2,0,2.2,0.9,2.2,2c0,0.7-0.4,1.3-0.9,1.7c1,0.3,1.7,1.2,1.7,2.3
		c0,1.3-1.1,2.4-2.8,2.4h-4.5L168.5,21z M172.8,21c0.8,0,1.3-0.8,1.3-1.7s-0.7-1.6-1.6-1.6h-0.9v-0.9h0.5c0.7,0,1.2-0.5,1.2-1.2
		c0-0.7-0.3-1.3-1.3-1.3h-0.9V21H172.8z"/>
	<path class="st2" d="M184.3,20.6l1.1,0.4l-0.1,0.9h-3.5l-0.1-0.9l0.9-0.4l-0.5-1.4h-2.8l-0.6,1.4l1.1,0.4l-0.1,0.9h-3l-0.1-0.9
		l1-0.4l2.8-7.2l1.3-0.2L184.3,20.6z M180.9,14.8l-1.3,3.4h2.1l-0.8-2V14.8z"/>
	<path class="st2" d="M189.5,14.3l-1,0.4V21h2.3l0.7-1.8l0.9,0.1v2.5H186l-0.1-0.9l1-0.4v-5.9l-1-0.4l0.1-0.9h3.4L189.5,14.3z"/>
	<path class="st2" d="M200.4,20.6l1.1,0.4l-0.1,0.9h-3.5l-0.1-0.9l0.9-0.4l-0.5-1.4h-2.8l-0.6,1.4l1.1,0.4l-0.1,0.9h-3l-0.1-0.9
		l1-0.4l2.8-7.2l1.3-0.2L200.4,20.6z M197,14.8l-1.3,3.4h2.1l-0.8-2V14.8z"/>
	<path class="st2" d="M202.9,14.7l-1-0.4l0.1-0.9h2.5l3.4,5l0.4,1.2v-5l-1-0.4l0.1-0.9h2.7l0.1,0.9l-1,0.4v7.1l-1,0.2l-4.4-6.6v5.2
		l1,0.4l-0.1,0.9H202l-0.1-0.9l1-0.4V14.7z"/>
	<path class="st2" d="M216.7,20.9l0.6-1.7l0.9,0.1v1.9c-0.6,0.4-1.6,0.7-2.6,0.8v0.3c0.4,0,1,0.3,1,0.9c0,1-1,1.3-1.8,1.3l-0.2-0.7
		c0.6,0,1-0.2,1-0.6c0-0.2-0.1-0.4-0.3-0.4h-0.4V22c-2.8-0.2-3.9-2.3-3.9-4.4c0-2.2,1.5-4.4,4.4-4.4c1.1,0,1.9,0.3,2.8,0.8v1.9
		l-0.9,0.1l-0.6-1.6c-0.4-0.1-1-0.2-1.4-0.2c-1.7,0-2.6,1.1-2.6,3.3c0,1.6,0.5,3.5,2.6,3.5C215.6,21.1,216.3,21,216.7,20.9z"/>
	<path class="st2" d="M226.3,20.6l1.1,0.4l-0.1,0.9h-3.5l-0.1-0.9l0.9-0.4l-0.5-1.4h-2.8l-0.6,1.4l1.1,0.4l-0.1,0.9h-3l-0.1-0.9
		l1-0.4l2.8-7.2l1.3-0.2L226.3,20.6z M222.9,14.8l-1.3,3.4h2.1l-0.8-2V14.8z"/>
</g>
<g>
	<path class="st3" d="M30.2,93.8c0,0.9,0.3,1.7,1.2,1.7c0.4,0,0.9-0.1,1.3-0.4l0.3,0.5c-0.4,0.4-1.1,0.6-1.6,0.6
		c-1.6,0-2.4-0.9-2.4-2.2c0-1.4,1-2.2,2.4-2.2c0.4,0,1,0.1,1.5,0.4V93l-0.6,0.1l-0.2-0.7c-0.2-0.1-0.5-0.1-0.7-0.1
		C30.7,92.3,30.2,92.9,30.2,93.8z"/>
	<path class="st3" d="M38.1,94c0,1.4-0.8,2.2-2.2,2.2c-1.4,0-2.3-0.9-2.3-2.2c0-1.3,0.9-2.2,2.3-2.2C37.2,91.8,38.1,92.6,38.1,94z
		 M34.8,93.9c0,1,0.4,1.7,1.1,1.7c0.7,0,1.1-0.7,1.1-1.7c0-1-0.4-1.6-1.1-1.6S34.8,92.9,34.8,93.9z"/>
	<path class="st3" d="M40.5,92.6v2.7l0.6,0.2L41,96.1h-2.1l-0.1-0.5l0.6-0.2v-2.9H39l-0.1-0.5l1.2-0.1l0.4,0.2
		c0.3-0.1,0.7-0.2,1.1-0.2c1,0,1.7,0.5,1.7,1.5v2l0.6,0.2l-0.1,0.5h-2.1l-0.1-0.5l0.6-0.2v-2.2c0-0.5-0.4-0.7-0.8-0.7
		C41.1,92.4,40.7,92.5,40.5,92.6z"/>
	<path class="st3" d="M47.1,91.9L47,92.4h-1.1V95c0,0.3,0.2,0.5,0.4,0.5c0.2,0,0.5-0.2,0.8-0.4l0.4,0.5c-0.4,0.4-0.7,0.6-1.3,0.6
		c-0.9,0-1.4-0.5-1.4-1.2v-2.5h-0.5l-0.1-0.5l0.7-0.2l0.4-1l0.7,0.2v1H47.1z"/>
	<path class="st3" d="M50.7,92.5c-0.1,0-0.2,0-0.4,0c-0.2,0-0.5,0.1-0.8,0.2v2.7l0.7,0.2l-0.1,0.5h-2.2l-0.1-0.5l0.6-0.2v-2.9h-0.4
		l-0.1-0.5l1.2-0.1l0.4,0.2c0.3-0.1,0.7-0.2,1.2-0.2c0.3,0,0.6,0.1,0.9,0.2v1l-0.6,0.1L50.7,92.5z"/>
	<path class="st3" d="M54.1,96.1H52l-0.1-0.5l0.6-0.2v-2.9h-0.4L52,91.9l1.1-0.1l0.5,0.1v3.5l0.6,0.2L54.1,96.1z M53.6,90.4
		c0,0.3-0.3,0.6-0.6,0.6c-0.3,0-0.6-0.3-0.6-0.6c0-0.3,0.3-0.6,0.6-0.6C53.3,89.8,53.6,90.1,53.6,90.4z"/>
	<path class="st3" d="M57.3,91.8c1.4,0,2,0.7,2,2.1c0,1.4-0.8,2.3-2.3,2.3c-0.7,0-1.4-0.2-1.9-0.5V90h-0.5l-0.1-0.5l1.2-0.1l0.5,0.1
		v5.9c0.2,0.1,0.4,0.1,0.7,0.1c0.6,0,1.1-0.7,1.1-1.7c0-1-0.4-1.4-0.9-1.4c-0.2,0-0.4,0-0.6,0.1v-0.6C56.8,91.8,57.1,91.8,57.3,91.8
		z"/>
	<path class="st3" d="M62.8,92.4l-0.1-0.5l1.2-0.1l0.5,0.1v3.4l0.6,0.2l-0.1,0.5h-1.2l-0.3-0.2c-0.3,0.2-0.7,0.3-1.2,0.3
		c-1,0-1.6-0.7-1.6-1.6v-2.1h-0.4L60,91.9l1.1-0.1l0.5,0.1v2.7c0,0.7,0.5,0.9,0.8,0.9c0.2,0,0.6-0.1,0.8-0.3v-2.8H62.8z"/>
	<path class="st3" d="M67.6,96.1h-2.1l-0.1-0.5l0.6-0.2v-2.9h-0.4l-0.1-0.5l1.1-0.1l0.5,0.1v3.5l0.6,0.2L67.6,96.1z M67,90.4
		c0,0.3-0.3,0.6-0.6,0.6c-0.3,0-0.6-0.3-0.6-0.6c0-0.3,0.3-0.6,0.6-0.6C66.8,89.8,67,90.1,67,90.4z"/>
	<path class="st3" d="M69.6,93.8c0,0.9,0.3,1.7,1.2,1.7c0.4,0,0.9-0.1,1.3-0.4l0.3,0.5c-0.4,0.4-1,0.6-1.5,0.6v0.3
		c0.3,0,0.7,0.2,0.7,0.7c0,0.7-0.8,1-1.3,1l-0.2-0.5c0.5,0,0.7-0.2,0.7-0.4c0-0.2-0.1-0.3-0.3-0.3h-0.3v-0.7c-1.3-0.1-2-1-2-2.2
		c0-1.4,1-2.2,2.4-2.2c0.4,0,1,0.1,1.5,0.4V93l-0.6,0.1l-0.2-0.7c-0.2-0.1-0.5-0.1-0.7-0.1C70.1,92.3,69.6,92.9,69.6,93.8z"/>
	<path class="st3" d="M74.8,91.8c1.2,0,1.9,0.6,1.9,1.7v1.9l0.5,0.2L77,96.1h-1.1l-0.3-0.2c-0.3,0.2-0.6,0.3-1.2,0.3
		c-0.8,0-1.5-0.4-1.5-1.3c0-1.2,1.4-1.5,2.6-1.5v-0.3c0-0.5-0.4-0.8-0.8-0.8c-0.2,0-0.5,0.1-0.7,0.1l-0.2,0.7L73.3,93v-0.9
		C73.8,91.9,74.3,91.8,74.8,91.8z M74.4,90.6L73.7,91l-0.3-0.2l0.8-1h0.3l0.9,0.4l0.8-0.4l0.3,0.2l-0.8,1h-0.3L74.4,90.6z
		 M74.2,94.8c0,0.5,0.4,0.7,0.6,0.7c0.2,0,0.6-0.1,0.7-0.4V94C74.7,94,74.2,94.3,74.2,94.8z"/>
	<path class="st3" d="M82.1,94c0,1.4-0.8,2.2-2.2,2.2c-1.4,0-2.3-0.9-2.3-2.2c0-1.3,0.9-2.2,2.3-2.2C81.2,91.8,82.1,92.6,82.1,94z
		 M78.7,93.9c0,1,0.4,1.7,1.1,1.7c0.7,0,1.1-0.7,1.1-1.7c0-1-0.4-1.6-1.1-1.6S78.7,92.9,78.7,93.9z"/>
	<path class="st3" d="M87,95.5c0.6,0,1.3-0.7,1.3-1.7c0-1-0.4-1.4-0.9-1.4c-0.3,0-0.6,0.1-0.9,0.2v4.9l0.6,0.2l-0.1,0.5h-2.1
		l-0.1-0.5l0.6-0.2v-5.1h-0.5l-0.1-0.5l1.2-0.1l0.4,0.3c0.3-0.1,0.7-0.3,1.1-0.3c1.3,0,2.1,0.7,2.1,2.1c0,1.3-1.1,2.2-2.5,2.2h-0.2
		v-0.5H87z"/>
	<path class="st3" d="M92,91.8c1.2,0,1.9,0.6,1.9,1.7v1.9l0.5,0.2l-0.1,0.5h-1.1l-0.3-0.2c-0.3,0.2-0.6,0.3-1.2,0.3
		c-0.8,0-1.5-0.4-1.5-1.3c0-1.2,1.4-1.5,2.6-1.5v-0.3c0-0.5-0.4-0.8-0.8-0.8c-0.2,0-0.5,0.1-0.7,0.1l-0.2,0.7L90.5,93v-0.9
		C91,91.9,91.5,91.8,92,91.8z M91.4,94.8c0,0.5,0.4,0.7,0.6,0.7c0.2,0,0.6-0.1,0.7-0.4V94C91.9,94,91.4,94.3,91.4,94.8z"/>
	<path class="st3" d="M97.6,92.5c-0.1,0-0.2,0-0.4,0c-0.2,0-0.5,0.1-0.8,0.2v2.7l0.7,0.2l-0.1,0.5h-2.2l-0.1-0.5l0.6-0.2v-2.9h-0.4
		l-0.1-0.5l1.2-0.1l0.4,0.2c0.3-0.1,0.7-0.2,1.2-0.2c0.3,0,0.6,0.1,0.9,0.2v1l-0.6,0.1L97.6,92.5z"/>
	<path class="st3" d="M100.6,91.8c1.2,0,1.9,0.6,1.9,1.7v1.9l0.5,0.2l-0.1,0.5h-1.1l-0.3-0.2c-0.3,0.2-0.6,0.3-1.2,0.3
		c-0.8,0-1.5-0.4-1.5-1.3c0-1.2,1.4-1.5,2.6-1.5v-0.3c0-0.5-0.4-0.8-0.8-0.8c-0.2,0-0.5,0.1-0.7,0.1l-0.2,0.7L99.1,93v-0.9
		C99.6,91.9,100.2,91.8,100.6,91.8z M100,94.8c0,0.5,0.4,0.7,0.6,0.7c0.2,0,0.6-0.1,0.7-0.4V94C100.5,94,100,94.3,100,94.8z"/>
	<path class="st3" d="M107.4,91.8c1.2,0,1.9,0.6,1.9,1.7v1.9l0.5,0.2l-0.1,0.5h-1.1l-0.3-0.2c-0.3,0.2-0.6,0.3-1.2,0.3
		c-0.8,0-1.5-0.4-1.5-1.3c0-1.2,1.4-1.5,2.6-1.5v-0.3c0-0.5-0.4-0.8-0.8-0.8c-0.2,0-0.5,0.1-0.7,0.1l-0.2,0.7l-0.6-0.1v-0.9
		C106.5,91.9,107,91.8,107.4,91.8z M106.8,94.8c0,0.5,0.4,0.7,0.6,0.7c0.2,0,0.6-0.1,0.7-0.4V94C107.3,94,106.8,94.3,106.8,94.8z"/>
</g>
<g>
	<path class="st3" d="M34,105.9l0.3,0.5c-0.6,0.5-1.1,0.6-1.7,0.6c-1.7,0-2.5-0.9-2.5-2.2c0-1.4,1-2.2,2.3-2.2c1.1,0,2,0.6,2,1.5
		c0,0.2-0.1,0.6-0.2,0.8h-2.8c0,0.9,0.5,1.5,1.3,1.5C33.1,106.3,33.5,106.2,34,105.9z M33.2,104c0-0.5-0.4-0.8-0.8-0.8
		c-0.6,0-1,0.4-1,1.1h1.8C33.2,104.1,33.2,104,33.2,104z"/>
	<path class="st3" d="M36.3,104.6c0,0.9,0.3,1.7,1.2,1.7c0.4,0,0.9-0.1,1.3-0.4l0.3,0.5c-0.4,0.4-1.1,0.6-1.6,0.6
		c-1.6,0-2.4-0.9-2.4-2.2c0-1.4,1-2.2,2.4-2.2c0.4,0,1,0.1,1.5,0.4v0.9l-0.6,0.1l-0.2-0.7c-0.2-0.1-0.5-0.1-0.7-0.1
		C36.8,103.1,36.3,103.7,36.3,104.6z"/>
	<path class="st3" d="M44.2,104.8c0,1.4-0.8,2.2-2.2,2.2c-1.4,0-2.3-0.9-2.3-2.2c0-1.3,0.9-2.2,2.3-2.2
		C43.3,102.6,44.2,103.4,44.2,104.8z M40.8,104.7c0,1,0.4,1.7,1.1,1.7c0.7,0,1.1-0.7,1.1-1.7c0-1-0.4-1.6-1.1-1.6
		S40.8,103.7,40.8,104.7z"/>
	<path class="st3" d="M46.5,103.4v2.7l0.6,0.2l-0.1,0.5h-2.1l-0.1-0.5l0.6-0.2v-2.9H45l-0.1-0.5l1.2-0.1l0.4,0.2
		c0.3-0.1,0.7-0.2,1.1-0.2c1,0,1.7,0.5,1.7,1.5v2l0.6,0.2l-0.1,0.5h-2.1l-0.1-0.5l0.6-0.2V104c0-0.5-0.4-0.7-0.8-0.7
		C47.1,103.2,46.8,103.3,46.5,103.4z"/>
	<path class="st3" d="M55,104.8c0,1.4-0.8,2.2-2.2,2.2c-1.4,0-2.3-0.9-2.3-2.2c0-1.3,0.9-2.2,2.3-2.2C54.1,102.6,55,103.4,55,104.8z
		 M51.7,104.7c0,1,0.4,1.7,1.1,1.7c0.7,0,1.1-0.7,1.1-1.7c0-1-0.4-1.6-1.1-1.6C52.1,103.1,51.7,103.7,51.7,104.7z"/>
	<path class="st3" d="M60.6,106.3l-0.1,0.5h-2.1l-0.1-0.5l0.6-0.2v-2.2c0-0.5-0.4-0.7-0.7-0.7c-0.2,0-0.5,0.1-0.8,0.2v2.7l0.6,0.2
		l-0.1,0.5h-2.1l-0.1-0.5l0.6-0.2v-2.9h-0.4l-0.1-0.5l1.1-0.1l0.4,0.2c0.3-0.1,0.7-0.2,1.1-0.2c0.5,0,0.9,0.1,1.2,0.3
		c0.3-0.2,0.8-0.3,1.3-0.3c1.2,0,1.8,0.5,1.8,1.5v2l0.6,0.2l-0.1,0.5H61l-0.1-0.5l0.6-0.2V104c0-0.5-0.4-0.8-0.8-0.8
		c-0.3,0-0.6,0.1-0.8,0.2c0.1,0.2,0.1,0.4,0.1,0.7v2L60.6,106.3z"/>
	<path class="st3" d="M66,106.9H64l-0.1-0.5l0.6-0.2v-2.9H64l-0.1-0.5l1.1-0.1l0.5,0.1v3.5l0.6,0.2L66,106.9z M65.5,101.2
		c0,0.3-0.3,0.6-0.6,0.6c-0.3,0-0.6-0.3-0.6-0.6c0-0.3,0.3-0.6,0.6-0.6C65.3,100.6,65.5,100.9,65.5,101.2z"/>
	<path class="st3" d="M68.6,102.6c1.2,0,1.9,0.6,1.9,1.7v1.9l0.5,0.2l-0.1,0.5h-1.1l-0.3-0.2c-0.3,0.2-0.6,0.3-1.2,0.3
		c-0.8,0-1.5-0.4-1.5-1.3c0-1.2,1.4-1.5,2.6-1.5v-0.3c0-0.5-0.4-0.8-0.8-0.8c-0.2,0-0.5,0.1-0.7,0.1l-0.2,0.7l-0.6-0.1v-0.9
		C67.6,102.7,68.2,102.6,68.6,102.6z M68,105.6c0,0.5,0.4,0.7,0.6,0.7c0.2,0,0.6-0.1,0.7-0.4v-1.2C68.5,104.8,68,105.1,68,105.6z"/>
	<path class="st3" d="M75.9,107c-1.4,0-2.2-0.8-2.2-2.2c0-1.3,0.9-2.2,2.3-2.2c0.2,0,0.5,0,0.8,0.1v-1.9h-0.5l-0.1-0.5l1.2-0.1
		l0.5,0.1v5.8l0.6,0.2l-0.1,0.5h-1.2l-0.3-0.2C76.6,106.8,76.2,107,75.9,107z M76,103.2c-0.7,0-1.1,0.6-1.1,1.5
		c0,0.9,0.5,1.6,1.1,1.6c0.3,0,0.6-0.1,0.8-0.3v-2.6C76.5,103.3,76.2,103.2,76,103.2z"/>
	<path class="st3" d="M83.3,104.8c0,1.4-0.8,2.2-2.2,2.2c-1.4,0-2.3-0.9-2.3-2.2c0-1.3,0.9-2.2,2.3-2.2
		C82.4,102.6,83.3,103.4,83.3,104.8z M80,104.7c0,1,0.4,1.7,1.1,1.7c0.7,0,1.1-0.7,1.1-1.7c0-1-0.4-1.6-1.1-1.6
		C80.4,103.1,80,103.7,80,104.7z"/>
	<path class="st3" d="M86.3,106.2L87,106v-4.4l-0.8-0.3l0.1-0.6h3.2c0.9,0,1.6,0.7,1.6,1.5c0,0.5-0.3,1-0.7,1.3
		c0.7,0.2,1.3,0.9,1.3,1.7c0,1-0.8,1.8-2.1,1.8h-3.4L86.3,106.2z M89.5,106.2c0.6,0,1-0.6,1-1.3s-0.5-1.2-1.2-1.2h-0.7v-0.7H89
		c0.5,0,0.9-0.4,0.9-0.9s-0.3-1-1-1h-0.7v5H89.5z"/>
	<path class="st3" d="M95.5,103.3c-0.1,0-0.2,0-0.4,0c-0.2,0-0.5,0.1-0.8,0.2v2.7l0.7,0.2l-0.1,0.5h-2.2l-0.1-0.5l0.6-0.2v-2.9h-0.4
		l-0.1-0.5l1.2-0.1l0.4,0.2c0.3-0.1,0.7-0.2,1.2-0.2c0.3,0,0.6,0.1,0.9,0.2v1l-0.6,0.1L95.5,103.3z"/>
	<path class="st3" d="M98.5,102.6c1.2,0,1.9,0.6,1.9,1.7v1.9l0.5,0.2l-0.1,0.5h-1.1l-0.3-0.2c-0.3,0.2-0.6,0.3-1.2,0.3
		c-0.8,0-1.5-0.4-1.5-1.3c0-1.2,1.4-1.5,2.6-1.5v-0.3c0-0.5-0.4-0.8-0.8-0.8c-0.2,0-0.5,0.1-0.7,0.1l-0.2,0.7l-0.6-0.1v-0.9
		C97.5,102.7,98,102.6,98.5,102.6z M97.9,105.6c0,0.5,0.4,0.7,0.6,0.7c0.2,0,0.6-0.1,0.7-0.4v-1.2C98.4,104.8,97.9,105.1,97.9,105.6
		z"/>
	<path class="st3" d="M101.3,106.6v-1.1l0.6-0.1l0.3,0.9c0.1,0.1,0.5,0.1,0.6,0.1c0.4,0,0.8-0.2,0.8-0.5c0-0.3-0.5-0.5-0.9-0.7
		c-0.6-0.3-1.4-0.7-1.4-1.4c0-0.8,0.7-1.2,1.8-1.2c0.5,0,1,0.1,1.4,0.4v0.9l-0.6,0.1l-0.2-0.7c-0.2-0.1-0.5-0.1-0.7-0.1
		c-0.4,0-0.7,0.2-0.7,0.5c0,0.4,0.7,0.6,1.2,0.8c0.6,0.3,1.1,0.6,1.1,1.3c0,0.8-0.7,1.3-1.8,1.3C102.4,107,101.8,106.8,101.3,106.6z
		"/>
	<path class="st3" d="M107.5,106.9h-2.1l-0.1-0.5l0.6-0.2v-2.9h-0.4l-0.1-0.5l1.1-0.1l0.5,0.1v3.5l0.6,0.2L107.5,106.9z M107,101.2
		c0,0.3-0.3,0.6-0.6,0.6c-0.3,0-0.6-0.3-0.6-0.6c0-0.3,0.3-0.6,0.6-0.6C106.7,100.6,107,100.9,107,101.2z"/>
	<path class="st3" d="M110.6,106.9h-2.2l-0.1-0.5l0.6-0.2v-5.3h-0.5l-0.1-0.5l1.2-0.1l0.5,0.1v5.8l0.6,0.2L110.6,106.9z"/>
</g>
<g>
	<path class="st3" d="M185.5,56.7h-2.2l-0.1-0.5l0.6-0.2v-5.3h-0.5l-0.1-0.5l1.2-0.1l0.5,0.1V56l0.6,0.2L185.5,56.7z"/>
	<path class="st3" d="M189,53.1l-0.1-0.5l1.2-0.1l0.5,0.1V56l0.6,0.2l-0.1,0.5h-1.2l-0.3-0.2c-0.3,0.2-0.7,0.3-1.2,0.3
		c-1,0-1.6-0.7-1.6-1.6v-2.1h-0.4l-0.1-0.5l1.1-0.1l0.5,0.1v2.7c0,0.7,0.5,0.9,0.8,0.9c0.2,0,0.6-0.1,0.8-0.3v-2.8H189z"/>
	<path class="st3" d="M192.8,54.5c0,0.9,0.3,1.7,1.2,1.7c0.4,0,0.9-0.1,1.3-0.4l0.3,0.5c-0.4,0.4-1.1,0.6-1.6,0.6
		c-1.6,0-2.4-0.9-2.4-2.2c0-1.4,1-2.2,2.4-2.2c0.4,0,1,0.1,1.5,0.4v0.9l-0.6,0.1l-0.2-0.7c-0.2-0.1-0.5-0.1-0.7-0.1
		C193.3,53,192.8,53.6,192.8,54.5z"/>
	<path class="st3" d="M199.1,53.1c-0.1,0-0.2,0-0.4,0c-0.2,0-0.5,0.1-0.8,0.2V56l0.7,0.2l-0.1,0.5h-2.2l-0.1-0.5l0.6-0.2v-2.9h-0.4
		l-0.1-0.5l1.2-0.1l0.4,0.2c0.3-0.1,0.7-0.2,1.2-0.2c0.3,0,0.6,0.1,0.9,0.2v1l-0.6,0.1L199.1,53.1z"/>
	<path class="st3" d="M204.8,54.6c0,1.4-0.8,2.2-2.2,2.2c-1.4,0-2.2-0.9-2.2-2.2c0-1.3,0.9-2.2,2.2-2.2
		C203.9,52.4,204.8,53.3,204.8,54.6z M201.5,54.6c0,1,0.4,1.7,1.1,1.7c0.7,0,1.1-0.7,1.1-1.7c0-1-0.4-1.6-1.1-1.6
		C201.9,53,201.5,53.6,201.5,54.6z"/>
	<path class="st3" d="M210,56.8c-1.4,0-2.2-0.8-2.2-2.2c0-1.3,0.9-2.2,2.3-2.2c0.2,0,0.5,0,0.8,0.1v-1.9h-0.5l-0.1-0.5l1.2-0.1
		l0.5,0.1V56l0.6,0.2l-0.1,0.5h-1.2l-0.3-0.2C210.7,56.7,210.3,56.8,210,56.8z M210.1,53.1c-0.7,0-1.1,0.6-1.1,1.5
		c0,0.9,0.5,1.6,1.1,1.6c0.3,0,0.6-0.1,0.8-0.3v-2.6C210.6,53.2,210.3,53.1,210.1,53.1z"/>
	<path class="st3" d="M214.7,52.4c1.2,0,1.9,0.6,1.9,1.7V56l0.5,0.2l-0.1,0.5h-1.1l-0.3-0.2c-0.3,0.2-0.6,0.3-1.2,0.3
		c-0.8,0-1.5-0.4-1.5-1.3c0-1.2,1.4-1.5,2.6-1.5v-0.3c0-0.5-0.4-0.8-0.8-0.8c-0.2,0-0.5,0.1-0.7,0.1l-0.2,0.7l-0.6-0.1v-0.9
		C213.7,52.6,214.2,52.4,214.7,52.4z M214.1,55.5c0,0.5,0.4,0.7,0.6,0.7c0.2,0,0.6-0.1,0.7-0.4v-1.2C214.6,54.6,214.1,55,214.1,55.5
		z"/>
	<path class="st3" d="M221.9,56.7h-2.1l-0.1-0.5l0.6-0.2v-2.9h-0.4l-0.1-0.5l1.1-0.1l0.5,0.1V56l0.6,0.2L221.9,56.7z M221.4,51
		c0,0.3-0.3,0.6-0.6,0.6c-0.3,0-0.6-0.3-0.6-0.6c0-0.3,0.3-0.6,0.6-0.6C221.1,50.5,221.4,50.7,221.4,51z"/>
	<path class="st3" d="M224.4,53.3V56l0.6,0.2l-0.1,0.5h-2.1l-0.1-0.5l0.6-0.2v-2.9h-0.4l-0.1-0.5l1.2-0.1l0.4,0.2
		c0.3-0.1,0.7-0.2,1.1-0.2c1,0,1.7,0.5,1.7,1.5v2l0.6,0.2l-0.1,0.5h-2.1l-0.1-0.5L226,56v-2.2c0-0.5-0.4-0.7-0.8-0.7
		C225,53.1,224.6,53.2,224.4,53.3z"/>
	<path class="st3" d="M230.6,56.8c-1.4,0-2.2-0.8-2.2-2.2c0-1.3,0.9-2.2,2.3-2.2c0.2,0,0.5,0,0.8,0.1v-1.9h-0.5l-0.1-0.5L232,50
		l0.5,0.1V56l0.6,0.2l-0.1,0.5h-1.2l-0.3-0.2C231.3,56.7,230.9,56.8,230.6,56.8z M230.7,53.1c-0.7,0-1.1,0.6-1.1,1.5
		c0,0.9,0.5,1.6,1.1,1.6c0.3,0,0.6-0.1,0.8-0.3v-2.6C231.2,53.2,230.9,53.1,230.7,53.1z"/>
	<path class="st3" d="M236.2,53.1l-0.1-0.5l1.2-0.1l0.5,0.1V56l0.6,0.2l-0.1,0.5H237l-0.3-0.2c-0.3,0.2-0.7,0.3-1.2,0.3
		c-1,0-1.6-0.7-1.6-1.6v-2.1h-0.4l-0.1-0.5l1.1-0.1l0.5,0.1v2.7c0,0.7,0.4,0.9,0.8,0.9c0.2,0,0.6-0.1,0.8-0.3v-2.8H236.2z
		 M235.5,51.5l0.7-1.6l0.9,0.4l-1.1,1.4L235.5,51.5z"/>
	<path class="st3" d="M238.8,56.5v-1.1l0.6-0.1l0.3,0.9c0.1,0.1,0.5,0.1,0.6,0.1c0.4,0,0.8-0.2,0.8-0.5c0-0.3-0.5-0.5-0.9-0.7
		c-0.6-0.3-1.4-0.7-1.4-1.4c0-0.8,0.7-1.2,1.8-1.2c0.5,0,1,0.1,1.4,0.4v0.9l-0.6,0.1l-0.2-0.7c-0.2-0.1-0.5-0.1-0.7-0.1
		c-0.4,0-0.7,0.2-0.7,0.5c0,0.4,0.7,0.6,1.2,0.8c0.6,0.3,1.1,0.6,1.1,1.3c0,0.8-0.7,1.3-1.8,1.3C240,56.8,239.3,56.7,238.8,56.5z"/>
	<path class="st3" d="M245.5,52.5l-0.1,0.5h-1.1v2.6c0,0.3,0.2,0.5,0.4,0.5c0.2,0,0.5-0.2,0.8-0.4l0.4,0.5c-0.4,0.4-0.7,0.6-1.3,0.6
		c-0.9,0-1.4-0.5-1.4-1.2v-2.5h-0.5l-0.1-0.5l0.7-0.2l0.4-1l0.7,0.2v1H245.5z"/>
	<path class="st3" d="M249.1,53.1c-0.1,0-0.2,0-0.4,0c-0.2,0-0.5,0.1-0.8,0.2V56l0.7,0.2l-0.1,0.5h-2.2l-0.1-0.5l0.6-0.2v-2.9h-0.4
		l-0.1-0.5l1.2-0.1l0.4,0.2c0.3-0.1,0.7-0.2,1.2-0.2c0.3,0,0.6,0.1,0.9,0.2v1l-0.6,0.1L249.1,53.1z"/>
	<path class="st3" d="M252.5,56.7h-2.1l-0.1-0.5l0.6-0.2v-2.9h-0.4l-0.1-0.5l1.1-0.1l0.5,0.1V56l0.6,0.2L252.5,56.7z M252,51
		c0,0.3-0.3,0.6-0.6,0.6c-0.3,0-0.6-0.3-0.6-0.6c0-0.3,0.3-0.6,0.6-0.6C251.7,50.5,252,50.7,252,51z"/>
	<path class="st3" d="M255.1,52.4c1.2,0,1.9,0.6,1.9,1.7V56l0.5,0.2l-0.1,0.5h-1.1l-0.3-0.2c-0.3,0.2-0.6,0.3-1.2,0.3
		c-0.8,0-1.5-0.4-1.5-1.3c0-1.2,1.4-1.5,2.6-1.5v-0.3c0-0.5-0.4-0.8-0.8-0.8c-0.2,0-0.5,0.1-0.7,0.1l-0.2,0.7l-0.6-0.1v-0.9
		C254.1,52.6,254.7,52.4,255.1,52.4z M254.5,55.5c0,0.5,0.4,0.7,0.6,0.7c0.2,0,0.6-0.1,0.7-0.4v-1.2C255,54.6,254.5,55,254.5,55.5z"
		/>
</g>
<g>
	<path class="st3" d="M203.5,67.6c-1.4,0-2.2-0.8-2.2-2.2c0-1.3,0.9-2.2,2.3-2.2c0.2,0,0.5,0,0.8,0.1v-1.9h-0.5l-0.1-0.5l1.2-0.1
		l0.5,0.1v5.8l0.6,0.2l-0.1,0.5h-1.2l-0.3-0.2C204.3,67.5,203.9,67.6,203.5,67.6z M203.6,63.9c-0.7,0-1.1,0.6-1.1,1.5
		c0,0.9,0.5,1.6,1.1,1.6c0.3,0,0.6-0.1,0.8-0.3v-2.6C204.2,64,203.9,63.9,203.6,63.9z"/>
	<path class="st3" d="M211,65.4c0,1.4-0.8,2.2-2.2,2.2c-1.4,0-2.2-0.9-2.2-2.2c0-1.3,0.9-2.2,2.2-2.2C210.1,63.2,211,64.1,211,65.4z
		 M207.7,65.4c0,1,0.4,1.7,1.1,1.7c0.7,0,1.1-0.7,1.1-1.7c0-1-0.4-1.6-1.1-1.6C208.1,63.8,207.7,64.4,207.7,65.4z"/>
	<path class="st3" d="M215.7,63.2c1.2,0,1.9,0.6,1.9,1.7v1.9l0.5,0.2l-0.1,0.5h-1.1l-0.3-0.2c-0.3,0.2-0.6,0.3-1.2,0.3
		c-0.8,0-1.5-0.4-1.5-1.3c0-1.2,1.4-1.5,2.6-1.5v-0.3c0-0.5-0.4-0.8-0.8-0.8c-0.2,0-0.5,0.1-0.7,0.1l-0.2,0.7l-0.6-0.1v-0.9
		C214.7,63.4,215.3,63.2,215.7,63.2z M215.1,66.3c0,0.5,0.4,0.7,0.6,0.7c0.2,0,0.6-0.1,0.7-0.4v-1.2
		C215.6,65.4,215.1,65.8,215.1,66.3z M215.4,62.3l0.7-1.6l0.9,0.4l-1.1,1.4L215.4,62.3z"/>
	<path class="st3" d="M220.8,67.5h-2.2l-0.1-0.5l0.6-0.2v-5.3h-0.5l-0.1-0.5l1.2-0.1l0.5,0.1v5.8l0.6,0.2L220.8,67.5z"/>
	<path class="st3" d="M222.9,65.3c0,0.9,0.3,1.7,1.2,1.7c0.4,0,0.9-0.1,1.3-0.4l0.3,0.5c-0.4,0.4-1.1,0.6-1.6,0.6
		c-1.6,0-2.4-0.9-2.4-2.2c0-1.4,1-2.2,2.4-2.2c0.4,0,1,0.1,1.5,0.4v0.9l-0.6,0.1l-0.2-0.7c-0.2-0.1-0.5-0.1-0.7-0.1
		C223.4,63.8,222.9,64.4,222.9,65.3z"/>
	<path class="st3" d="M230.7,65.4c0,1.4-0.8,2.2-2.2,2.2c-1.4,0-2.2-0.9-2.2-2.2c0-1.3,0.9-2.2,2.2-2.2
		C229.9,63.2,230.7,64.1,230.7,65.4z M227.4,65.4c0,1,0.4,1.7,1.1,1.7c0.7,0,1.1-0.7,1.1-1.7c0-1-0.4-1.6-1.1-1.6
		C227.8,63.8,227.4,64.4,227.4,65.4z"/>
	<path class="st3" d="M236,65.4c0,1.4-0.8,2.2-2.2,2.2c-1.4,0-2.2-0.9-2.2-2.2c0-1.3,0.9-2.2,2.2-2.2C235.1,63.2,236,64.1,236,65.4z
		 M232.6,65.4c0,1,0.4,1.7,1.1,1.7c0.7,0,1.1-0.7,1.1-1.7c0-1-0.4-1.6-1.1-1.6C233,63.8,232.6,64.4,232.6,65.4z"/>
	<path class="st3" d="M238.9,67.5h-2.2l-0.1-0.5l0.6-0.2v-5.3h-0.5l-0.1-0.5l1.2-0.1l0.5,0.1v5.8L239,67L238.9,67.5z"/>
</g>
<path class="st4" d="M68.8,154.1v-12c0-1.2,1-2.2,2.2-2.2c1.2,0,2.2,1,2.2,2.2v12c0,1.2-1,2.2-2.2,2.2
	C69.8,156.3,68.8,155.3,68.8,154.1z"/>
<path class="st4" d="M218,114v-12c0-1.2,1-2.2,2.2-2.2s2.2,1,2.2,2.2v12c0,1.2-1,2.2-2.2,2.2S218,115.2,218,114z"/>
<path class="st5" d="M105.7,122.1H36.3c-1.2,0-2.2-1-2.2-2.2c0-1.2,1-2.2,2.2-2.2h69.5c1.2,0,2.2,1,2.2,2.2
	C107.9,121.1,106.9,122.1,105.7,122.1"/>
<path class="st6" d="M71,144.2c14.7,0,27.5-7.7,34.8-19.2c0.1-0.2,0-0.5-0.3-0.5H36.5c-0.3,0-0.4,0.3-0.3,0.5
	C43.5,136.5,56.3,144.2,71,144.2"/>
<path class="st4" d="M71.3,144.4c14.7,0,27.5-7.7,34.8-19.2c0.1-0.2,0-0.5-0.3-0.5H36.7c-0.3,0-0.4,0.3-0.3,0.5
	C43.8,136.8,56.6,144.4,71.3,144.4z"/>
<path class="st7" d="M93.1,132.8c0,0-3.1,4.2-9.3,5.4"/>
<path class="st2" d="M95.1,131.1c1.3,0,1.3-2,0-2C93.8,129.1,93.8,131.1,95.1,131.1"/>
<path class="st5" d="M254.9,82.1h-69.5c-1.2,0-2.2-1-2.2-2.2c0-1.2,1-2.2,2.2-2.2h69.5c1.2,0,2.2,1,2.2,2.2
	C257.1,81.1,256.1,82.1,254.9,82.1"/>
<path class="st6" d="M220.2,104.2c14.7,0,27.5-7.7,34.8-19.2c0.1-0.2,0-0.5-0.3-0.5h-69.1c-0.3,0-0.4,0.3-0.3,0.5
	C192.7,96.5,205.6,104.2,220.2,104.2"/>
<path class="st4" d="M220.5,104.4c14.7,0,27.5-7.7,34.8-19.2c0.1-0.2,0-0.5-0.3-0.5h-69.1c-0.3,0-0.4,0.3-0.3,0.5
	C193,96.8,205.8,104.4,220.5,104.4z"/>
<path class="st7" d="M242.3,92.8c0,0-3.1,4.2-9.3,5.4"/>
<path class="st2" d="M244.3,91.1c1.3,0,1.3-2,0-2C243,89.1,243,91.1,244.3,91.1"/>
<path class="st5" d="M223.3,117.4L69.8,158.5c-2.2,0.6-4.5-0.7-5.1-3c-0.6-2.2,0.7-4.5,3-5.1l153.5-41.1c2.2-0.6,4.5,0.7,5.1,3
	S225.5,116.8,223.3,117.4"/>
<path class="st5" d="M72.7,153.9c0,0.9-0.7,1.7-1.7,1.7c-0.9,0-1.7-0.7-1.7-1.7c0-0.9,0.7-1.7,1.7-1.7
	C71.9,152.2,72.7,152.9,72.7,153.9"/>
<path class="st8" d="M72.7,153.9c0,0.9-0.7,1.7-1.7,1.7c-0.9,0-1.7-0.7-1.7-1.7c0-0.9,0.7-1.7,1.7-1.7
	C71.9,152.2,72.7,152.9,72.7,153.9z"/>
<path class="st5" d="M221.9,113.8c0,0.9-0.7,1.7-1.7,1.7c-0.9,0-1.7-0.7-1.7-1.7c0-0.9,0.7-1.7,1.7-1.7
	C221.1,112.1,221.9,112.8,221.9,113.8"/>
<circle class="st8" cx="220.2" cy="113.8" r="1.7"/>
<path class="st6" d="M158,149.4L158,149.4c-2.1,0-3.8-1.7-3.8-3.8v-13c0-4.6-3.5-8.6-8-8.9c-5-0.3-9.2,3.6-9.2,8.6v13.3
	c0,2.1-1.7,3.8-3.8,3.8c-9.3,0-16.8,7.5-16.8,16.8H137h17.2h20.5C174.7,156.9,167.2,149.4,158,149.4"/>
<path class="st4" d="M158,149.4L158,149.4c-2.1,0-3.8-1.7-3.8-3.8v-13c0-4.6-3.5-8.6-8-8.9c-5-0.3-9.2,3.6-9.2,8.6v13.3
	c0,2.1-1.7,3.8-3.8,3.8c-9.3,0-16.8,7.5-16.8,16.8H137h17.2h20.5C174.7,156.9,167.2,149.4,158,149.4z"/>
<path class="st2" d="M149.6,133.9c0,2.3-1.9,4.2-4.2,4.2c-2.3,0-4.2-1.9-4.2-4.2c0-2.3,1.9-4.2,4.2-4.2
	C147.7,129.7,149.6,131.6,149.6,133.9"/>
<path class="st4" d="M149.8,133.9c0,2.3-1.9,4.2-4.2,4.2c-2.3,0-4.2-1.9-4.2-4.2c0-2.3,1.9-4.2,4.2-4.2
	C147.9,129.7,149.8,131.6,149.8,133.9z"/>
<path class="st5" d="M177.1,173h-63.1c-1.2,0-2.2-1-2.2-2.2c0-1.2,1-2.2,2.2-2.2h63.1c1.2,0,2.2,1,2.2,2.2
	C179.3,172,178.3,173,177.1,173"/>
<rect y="-27.1" class="st1" width="292.8" height="215.4"/>
</svg>
