<?xml version="1.0" encoding="utf-8"?>
<!-- Generator: Adobe Illustrator 25.2.0, SVG Export Plug-In . SVG Version: 6.00 Build 0)  -->
<svg version="1.1" xmlns="http://www.w3.org/2000/svg" xmlns:xlink="http://www.w3.org/1999/xlink" x="0px" y="0px"
	 viewBox="0 0 292.8 397.1" style="enable-background:new 0 0 292.8 397.1;" xml:space="preserve">
<style type="text/css">
	.st0{display:none;fill:#EFEFEF;}
	.st1{fill:#FF278F;}
	.st2{fill:none;}
	.st3{fill:#FFFFFF;}
	.st4{fill:#4C4C4C;}
	.st5{font-family:'Marta-Bold';}
	.st6{font-size:9px;}
	.st7{fill:none;stroke:#BCBCBC;stroke-width:0.5;stroke-linecap:round;stroke-linejoin:round;stroke-miterlimit:10;}
	.st8{fill:#AE4EF2;}
	.st9{fill:#E239CA;}
	.st10{display:none;}
	.st11{display:inline;}
	.st12{fill:#3A26D1;}
	.st13{fill:#563DE8;}
	.st14{fill:#6660E2;}
	.st15{fill:#EA2F89;}
	.st16{fill:#FF1A9D;}
	.st17{fill:#FF36CE;}
	.st18{opacity:0.5;fill:#FF36CE;}
	.st19{fill:#6960E3;}
	.st20{opacity:0.26;}
	.st21{fill:#B9B9DB;}
	.st22{fill:#E89EE1;}
</style>
<g id="Camada_1">
	<rect id="Fundo" class="st0" width="292.8" height="397.1"/>
	<g id="Título_1_">
		<g>
			<path class="st1" d="M290.1,49.7H20.7c-6.3,0-11.3-5.1-11.3-11.3V27c0-11,8.9-19.8,19.8-19.8h260.9c1.6,0,2.8,1.3,2.8,2.8v36.8
				C292.9,48.4,291.7,49.7,290.1,49.7z"/>
		</g>
		<g id="Título">
			<rect x="9.4" y="15.8" class="st2" width="283.6" height="39.1"/>
			<path class="st3" d="M63.4,23.9l1-0.4v-5.9l-1-0.4l0.1-0.9h3.6c3,0,4.4,1.8,4.4,4.1s-1.4,4.3-4.4,4.3h-3.5L63.4,23.9z M66.1,23.9
				h1c1.8,0,2.6-1.6,2.6-3.4c0-1.8-0.8-3.3-2.6-3.3h-1V23.9z"/>
			<path class="st3" d="M76.2,23.9l-0.1,0.9h-3.4l-0.1-0.9l1-0.4v-5.9l-1-0.4l0.1-0.9h3.4l0.1,0.9l-1,0.4v5.9L76.2,23.9z"/>
			<path class="st3" d="M81.4,20l0.4-1l0.8,0.1v2.6l-0.8,0.1l-0.4-1H80v2.6l1.4,0.4l-0.1,0.9h-3.8l-0.1-0.9l1-0.4v-5.9l-1-0.4
				l0.1-0.9h6v2.1l-0.9,0.1l-0.5-1.4H80V20H81.4z"/>
			<path class="st3" d="M86.9,20h1.2l0.4-1l0.9,0.1v2.7l-0.9,0.1l-0.4-1h-1.2v3h2.4l0.6-1.8l0.9,0.1v2.5h-6.4l-0.1-0.9l1-0.4v-5.9
				l-1-0.4l0.1-0.9h6.2v2.1l-0.9,0.1l-0.5-1.4h-2.3V20z"/>
			<path class="st3" d="M95.3,23.9l-0.1,0.9h-3.4l-0.1-0.9l1-0.4v-5.9l-1-0.4l0.1-0.9h4.1c1.8,0,2.8,0.9,2.8,2.4
				c0,1.3-1.3,2.2-2.5,2.2l0.8,0.4l1.2,2.1l1,0.4l-0.1,0.9h-2.6l0.1-0.7L94.8,21v-0.8h0.8c0.9,0,1.5-0.8,1.5-1.5
				c0-0.9-0.5-1.6-1.6-1.6h-1.2v6.3L95.3,23.9z"/>
			<path class="st3" d="M102.6,20h1.2l0.4-1l0.9,0.1v2.7l-0.9,0.1l-0.4-1h-1.2v3h2.4l0.6-1.8l0.9,0.1v2.5H100l-0.1-0.9l1-0.4v-5.9
				l-1-0.4l0.1-0.9h6.2v2.1l-0.9,0.1l-0.5-1.4h-2.3V20z"/>
			<path class="st3" d="M108.1,17.7l-1-0.4l0.1-0.9h2.5l3.4,5l0.4,1.2v-5l-1-0.4l0.1-0.9h2.7l0.1,0.9l-1,0.4v7.1l-1,0.2l-4.4-6.6
				v5.2l1,0.4l-0.1,0.9h-2.7l-0.1-0.9l1-0.4V17.7z"/>
			<path class="st3" d="M121.9,23.8l0.6-1.7l0.9,0.1v1.9c-0.6,0.4-1.6,0.7-2.6,0.8v0.3c0.4,0,1,0.3,1,0.9c0,1-1,1.3-1.8,1.3
				l-0.2-0.7c0.6,0,1-0.2,1-0.6c0-0.2-0.1-0.4-0.3-0.4h-0.4V25c-2.8-0.2-3.9-2.3-3.9-4.4c0-2.2,1.5-4.4,4.4-4.4
				c1.1,0,1.9,0.3,2.8,0.8v1.9l-0.9,0.1l-0.6-1.6c-0.4-0.1-1-0.2-1.4-0.2c-1.7,0-2.6,1.1-2.6,3.3c0,1.6,0.5,3.5,2.6,3.5
				C120.9,24,121.5,23.9,121.9,23.8z"/>
			<path class="st3" d="M131.6,23.6l1.1,0.4l-0.1,0.9H129l-0.1-0.9l0.9-0.4l-0.5-1.4h-2.8l-0.6,1.4l1.1,0.4l-0.1,0.9h-3l-0.1-0.9
				l1-0.4l2.8-7.2l1.3-0.2L131.6,23.6z M128.2,17.8l-1.3,3.4h2.1l-0.8-2V17.8z"/>
			<path class="st3" d="M136.2,16.2c0.9,0,1.8,0.3,2.6,0.8v1.9l-0.9,0.1l-0.6-1.6c-0.3-0.1-0.8-0.2-1.1-0.2c-0.9,0-1.4,0.4-1.4,1.1
				c0,0.9,1.4,1.3,1.9,1.6c1.3,0.5,2.5,1.3,2.5,2.8c0,1.4-1,2.4-3.2,2.4c-1,0-2-0.3-2.7-0.8v-1.9l0.9-0.1l0.6,1.6
				c0.3,0.1,0.8,0.3,1.1,0.3c1,0,1.8-0.4,1.8-1c0-0.9-1.4-1.4-2.3-1.8c-0.9-0.5-2.1-1-2.1-2.7C133.3,17,134.7,16.2,136.2,16.2z"/>
			<path class="st3" d="M145.8,20h1.2l0.4-1l0.9,0.1v2.7l-0.9,0.1l-0.4-1h-1.2v3h2.4l0.6-1.8l0.9,0.1v2.5h-6.4l-0.1-0.9l1-0.4v-5.9
				l-1-0.4l0.1-0.9h6.2v2.1l-0.9,0.1l-0.5-1.4h-2.3V20z"/>
			<path class="st3" d="M151.3,17.7l-1-0.4l0.1-0.9h2.5l3.4,5l0.4,1.2v-5l-1-0.4l0.1-0.9h2.7l0.1,0.9l-1,0.4v7.1l-1,0.2l-4.4-6.6
				v5.2l1,0.4l-0.1,0.9h-2.7l-0.1-0.9l1-0.4V17.7z"/>
			<path class="st3" d="M166.7,16.4v2.4l-0.9,0.1l-0.6-1.7h-1.3v6.3l1,0.4l-0.1,0.9h-3.4l-0.1-0.9l1-0.4v-6.3H161l-0.6,1.7l-0.9-0.1
				v-2.4H166.7z"/>
			<path class="st3" d="M171.2,23.9l-0.1,0.9h-3.4l-0.1-0.9l1-0.4v-5.9l-1-0.4l0.1-0.9h4.1c1.8,0,2.8,0.9,2.8,2.4
				c0,1.3-1.3,2.2-2.5,2.2l0.8,0.4l1.2,2.1l1,0.4l-0.1,0.9h-2.6l0.1-0.7l-1.8-3.1v-0.8h0.8c0.9,0,1.5-0.8,1.5-1.5
				c0-0.9-0.5-1.6-1.6-1.6h-1.2v6.3L171.2,23.9z"/>
			<path class="st3" d="M178.5,20h1.2l0.4-1l0.9,0.1v2.7l-0.9,0.1l-0.4-1h-1.2v3h2.4l0.6-1.8l0.9,0.1v2.5H176l-0.1-0.9l1-0.4v-5.9
				l-1-0.4l0.1-0.9h6.2v2.1l-0.9,0.1l-0.5-1.4h-2.3V20z"/>
			<path class="st3" d="M189.3,16.2c0.9,0,1.8,0.3,2.6,0.8v1.9L191,19l-0.6-1.6c-0.3-0.1-0.8-0.2-1.1-0.2c-0.9,0-1.4,0.4-1.4,1.1
				c0,0.9,1.4,1.3,1.9,1.6c1.3,0.5,2.5,1.3,2.5,2.8c0,1.4-1,2.4-3.2,2.4c-1,0-2-0.3-2.7-0.8v-1.9l0.9-0.1l0.6,1.6
				c0.3,0.1,0.8,0.3,1.1,0.3c1,0,1.8-0.4,1.8-1c0-0.9-1.4-1.4-2.3-1.8c-0.9-0.5-2.1-1-2.1-2.7C186.4,17,187.8,16.2,189.3,16.2z"/>
			<path class="st3" d="M195.9,20h1.2l0.4-1l0.9,0.1v2.7l-0.9,0.1l-0.4-1h-1.2v3h2.4l0.6-1.8l0.9,0.1v2.5h-6.4l-0.1-0.9l1-0.4v-5.9
				l-1-0.4l0.1-0.9h6.2v2.1l-0.9,0.1l-0.5-1.4h-2.3V20z"/>
			<path class="st3" d="M203.3,23.9l-0.1,0.9h-2.8l-0.1-0.9l1-0.4l2.2-2.7l-2.2-3.2l-1-0.4l0.1-0.9h3.6l0.1,0.9l-0.9,0.4l1.1,1.5
				v0.5l1.7-2.1l-0.8-0.4l0.1-0.9h2.8l0.1,0.9l-1.1,0.4l-2.2,2.7l2.2,3.2l1,0.4l-0.1,0.9h-3.6l-0.1-0.9l0.9-0.4l-1.1-1.5v-0.6
				l-1.7,2.1L203.3,23.9z"/>
			<path class="st3" d="M217.5,20.6c0,2.5-1.3,4.4-4.1,4.4s-4.1-2.2-4.1-4.4c0-2.2,1.5-4.4,4.1-4.4S217.5,18.1,217.5,20.6z
				 M211,20.5c0,2.3,0.8,3.5,2.3,3.5c1.6,0,2.4-1.2,2.4-3.5c0-2.2-0.8-3.3-2.4-3.3S211,18.3,211,20.5z"/>
			<path class="st3" d="M222.5,17.7l-1-0.4l0.1-0.9h2.5l3.4,5l0.4,1.2v-5l-1-0.4l0.1-0.9h2.7l0.1,0.9l-1,0.4v7.1l-1,0.2l-4.4-6.6
				v5.2l1,0.4l-0.1,0.9h-2.7l-0.1-0.9l1-0.4V17.7z"/>
			<path class="st3" d="M238.1,23.6l1.1,0.4l-0.1,0.9h-3.5l-0.1-0.9l0.9-0.4l-0.5-1.4H233l-0.6,1.4l1.1,0.4l-0.1,0.9h-3l-0.1-0.9
				l1-0.4l2.8-7.2l1.3-0.2L238.1,23.6z M234.7,17.8l-1.3,3.4h2.1l-0.8-2V17.8z"/>
			<path class="st3" d="M18.7,34.4h1.2l0.4-1l0.9,0.1v2.7l-0.9,0.1l-0.4-1h-1.2v3H21l0.6-1.8l0.9,0.1v2.5h-6.4L16,38.3l1-0.4v-5.9
				l-1-0.4l0.1-0.9h6.2v2.1l-0.9,0.1L21,31.7h-2.3V34.4z"/>
			<path class="st3" d="M25.9,38.3l-0.1,0.9H23l-0.1-0.9l1-0.4l2.2-2.7l-2.2-3.2l-1-0.4l0.1-0.9h3.6l0.1,0.9l-0.9,0.4l1.1,1.5v0.5
				l1.7-2.1l-0.8-0.4l0.1-0.9h2.8l0.1,0.9l-1.1,0.4l-2.2,2.7l2.2,3.2l1,0.4l-0.1,0.9h-3.6L27,38.3l0.9-0.4l-1.1-1.5v-0.6L25.1,38
				L25.9,38.3z"/>
			<path class="st3" d="M35.3,38.3l-0.1,0.9h-3.8l-0.1-0.9l1-0.4v-5.9l-1-0.4l0.1-0.9h4c1.8,0,2.7,1.1,2.7,2.7
				c0,1.9-1.5,2.6-3.2,2.6h-0.5v-0.9H35c0.9,0,1.5-0.8,1.5-1.6c0-1-0.4-1.8-1.5-1.8h-1V38L35.3,38.3z"/>
			<path class="st3" d="M41.3,34.4h1.2l0.4-1l0.9,0.1v2.7l-0.9,0.1l-0.4-1h-1.2v3h2.4l0.6-1.8l0.9,0.1v2.5h-6.4l-0.1-0.9l1-0.4v-5.9
				l-1-0.4l0.1-0.9h6.2v2.1l-0.9,0.1l-0.5-1.4h-2.3V34.4z"/>
			<path class="st3" d="M49.4,38.3l-0.1,0.9h-3.4l-0.1-0.9l1-0.4v-5.9l-1-0.4l0.1-0.9H50c1.8,0,2.8,0.9,2.8,2.4
				c0,1.3-1.3,2.2-2.5,2.2l0.8,0.4l1.2,2.1l1,0.4l-0.1,0.9h-2.6l0.1-0.7l-1.8-3.1v-0.8h0.8c0.9,0,1.5-0.8,1.5-1.5
				c0-0.9-0.5-1.6-1.6-1.6h-1.2V38L49.4,38.3z"/>
			<path class="st3" d="M57.8,38.3l-0.1,0.9h-3.4l-0.1-0.9l1-0.4v-5.9l-1-0.4l0.1-0.9h3.4l0.1,0.9l-1,0.4V38L57.8,38.3z"/>
			<path class="st3" d="M63.2,39.4l-2.1-5.7L60.6,38l1,0.4l-0.1,0.9h-2.7l-0.1-0.9l1-0.4l0.7-5.9l-1-0.4l0.1-0.9h2.4l1.9,5.2v1.2
				l2.4-6.4h2.5l0.1,0.9l-1,0.4l0.6,5.9l1,0.4l-0.1,0.9h-3.4l-0.1-0.9l1-0.4l-0.5-4.6l-2.1,5.8L63.2,39.4z"/>
			<path class="st3" d="M72.7,34.4h1.2l0.4-1l0.9,0.1v2.7l-0.9,0.1l-0.4-1h-1.2v3H75l0.6-1.8l0.9,0.1v2.5h-6.4L70,38.3l1-0.4v-5.9
				l-1-0.4l0.1-0.9h6.2v2.1l-0.9,0.1L75,31.7h-2.3V34.4z"/>
			<path class="st3" d="M78,32.1l-1-0.4l0.1-0.9h2.5l3.4,5l0.4,1.2v-5l-1-0.4l0.1-0.9h2.7l0.1,0.9l-1,0.4v7.1l-1,0.2l-4.4-6.6V38
				l1,0.4l-0.1,0.9h-2.7L77,38.3l1-0.4V32.1z"/>
			<path class="st3" d="M93.1,30.8v2.4l-0.9,0.1l-0.6-1.7h-1.3V38l1,0.4l-0.1,0.9h-3.4l-0.1-0.9l1-0.4v-6.3h-1.3l-0.6,1.7l-0.9-0.1
				v-2.4H93.1z"/>
			<path class="st3" d="M100.9,38l1.1,0.4l-0.1,0.9h-3.5l-0.1-0.9l0.9-0.4l-0.5-1.4h-2.8L95.3,38l1.1,0.4l-0.1,0.9h-3l-0.1-0.9
				l1-0.4l2.8-7.2l1.3-0.2L100.9,38z M97.5,32.2l-1.3,3.4h2.1l-0.8-2V32.2z"/>
			<path class="st3" d="M107.7,38.2l0.6-1.7l0.9,0.1v1.9c-0.6,0.4-1.6,0.7-2.6,0.8v0.3c0.4,0,1,0.3,1,0.9c0,1-1,1.3-1.8,1.3
				l-0.2-0.7c0.6,0,1-0.2,1-0.6c0-0.2-0.1-0.4-0.3-0.4h-0.4v-0.9c-2.8-0.2-3.9-2.3-3.9-4.4c0-2.2,1.5-4.4,4.4-4.4
				c1.1,0,1.9,0.3,2.8,0.8v1.9l-0.9,0.1l-0.6-1.6c-0.4-0.1-1-0.2-1.4-0.2c-1.7,0-2.6,1.1-2.6,3.3c0,1.6,0.5,3.5,2.6,3.5
				C106.7,38.4,107.4,38.3,107.7,38.2z"/>
			<path class="st3" d="M117.1,38l1.1,0.4l-0.1,0.9h-3.5l-0.1-0.9l0.9-0.4l-0.5-1.4H112l-0.6,1.4l1.1,0.4l-0.1,0.9h-3l-0.1-0.9
				l1-0.4l2.8-7.2l1.3-0.2L117.1,38z M113.4,29.5l-1,0.6l-0.4-0.3l1.1-1.4h0.4l1.2,0.5l1-0.5l0.4,0.3l-1.1,1.4h-0.4L113.4,29.5z
				 M113.7,32.2l-1.3,3.4h2.1l-0.8-2V32.2z"/>
			<path class="st3" d="M126.7,35c0,2.5-1.3,4.4-4.1,4.4c-2.9,0-4.1-2.2-4.1-4.4c0-2.2,1.5-4.4,4.1-4.4
				C125.2,30.6,126.7,32.5,126.7,35z M120.2,34.9c0,2.3,0.8,3.5,2.3,3.5c1.6,0,2.4-1.2,2.4-3.5c0-2.2-0.8-3.3-2.4-3.3
				S120.2,32.7,120.2,34.9z"/>
			<path class="st3" d="M130.4,38.3l1-0.4v-5.9l-1-0.4l0.1-0.9h3.6c3,0,4.4,1.8,4.4,4.1s-1.4,4.3-4.4,4.3h-3.5L130.4,38.3z
				 M133,38.3h1c1.8,0,2.6-1.6,2.6-3.4c0-1.8-0.8-3.3-2.6-3.3h-1V38.3z"/>
			<path class="st3" d="M141.6,34.4h1.2l0.4-1l0.9,0.1v2.7l-0.9,0.1l-0.4-1h-1.2v3h2.4l0.6-1.8l0.9,0.1v2.5h-6.4l-0.1-0.9l1-0.4
				v-5.9l-1-0.4l0.1-0.9h6.2v2.1l-0.9,0.1l-0.5-1.4h-2.3V34.4z"/>
			<path class="st3" d="M151.9,30.6c0.9,0,1.8,0.3,2.6,0.8v1.9l-0.9,0.1l-0.6-1.6c-0.3-0.1-0.8-0.2-1.1-0.2c-0.9,0-1.4,0.4-1.4,1.1
				c0,0.9,1.4,1.3,1.9,1.6c1.3,0.5,2.5,1.3,2.5,2.8c0,1.4-1,2.4-3.2,2.4c-1,0-2-0.3-2.7-0.8v-1.9l0.9-0.1l0.6,1.6
				c0.3,0.1,0.8,0.3,1.1,0.3c1,0,1.8-0.4,1.8-1c0-0.9-1.4-1.4-2.3-1.8c-0.9-0.5-2.1-1-2.1-2.7C149,31.4,150.4,30.6,151.9,30.6z"/>
			<path class="st3" d="M159.6,38.3l-0.1,0.9h-3.8l-0.1-0.9l1-0.4v-5.9l-1-0.4l0.1-0.9h4c1.8,0,2.7,1.1,2.7,2.7
				c0,1.9-1.5,2.6-3.2,2.6h-0.5v-0.9h0.5c0.9,0,1.5-0.8,1.5-1.6c0-1-0.4-1.8-1.5-1.8h-1V38L159.6,38.3z"/>
			<path class="st3" d="M169.7,38l1.1,0.4l-0.1,0.9h-3.5l-0.1-0.9L168,38l-0.5-1.4h-2.8l-0.6,1.4l1.1,0.4l-0.1,0.9h-3l-0.1-0.9
				l1-0.4l2.8-7.2l1.3-0.2L169.7,38z M166.4,32.2l-1.3,3.4h2.1l-0.8-2V32.2z"/>
			<path class="st3" d="M174.7,32.1l-1-0.4l0.1-0.9h2.5l3.4,5l0.4,1.2v-5l-1-0.4l0.1-0.9h2.7l0.1,0.9l-1,0.4v7.1l-1,0.2l-4.4-6.6V38
				l1,0.4l-0.1,0.9h-2.7l-0.1-0.9l1-0.4V32.1z"/>
			<path class="st3" d="M191.1,35c0,2.5-1.3,4.4-4.1,4.4s-4.1-2.2-4.1-4.4c0-2.2,1.5-4.4,4.1-4.4S191.1,32.5,191.1,35z M184.7,34.9
				c0,2.3,0.8,3.5,2.3,3.5c1.6,0,2.4-1.2,2.4-3.5c0-2.2-0.8-3.3-2.4-3.3S184.7,32.7,184.7,34.9z"/>
			<path class="st3" d="M194.8,38.3l1-0.4v-5.9l-1-0.4l0.1-0.9h4.3c1.2,0,2.2,0.9,2.2,2c0,0.7-0.4,1.3-0.9,1.7
				c1,0.3,1.7,1.2,1.7,2.3c0,1.3-1.1,2.4-2.8,2.4h-4.5L194.8,38.3z M199.1,38.3c0.8,0,1.3-0.8,1.3-1.7s-0.7-1.6-1.6-1.6H198v-0.9
				h0.5c0.7,0,1.2-0.5,1.2-1.2s-0.3-1.3-1.3-1.3h-0.9v6.7H199.1z"/>
			<path class="st3" d="M206.7,38.3l-0.1,0.9h-3.4l-0.1-0.9l1-0.4v-5.9l-1-0.4l0.1-0.9h4.1c1.8,0,2.8,0.9,2.8,2.4
				c0,1.3-1.3,2.2-2.5,2.2l0.8,0.4l1.2,2.1l1,0.4l-0.1,0.9h-2.6l0.1-0.7l-1.8-3.1v-0.8h0.8c0.9,0,1.5-0.8,1.5-1.5
				c0-0.9-0.5-1.6-1.6-1.6h-1.2V38L206.7,38.3z"/>
			<path class="st3" d="M218.6,38l1.1,0.4l-0.1,0.9H216l-0.1-0.9l0.9-0.4l-0.5-1.4h-2.8l-0.6,1.4l1.1,0.4l-0.1,0.9h-3l-0.1-0.9
				l1-0.4l2.8-7.2l1.3-0.2L218.6,38z M215.2,32.2l-1.3,3.4h2.1l-0.8-2V32.2z"/>
			<path class="st3" d="M223,30.6c0.9,0,1.8,0.3,2.6,0.8v1.9l-0.9,0.1l-0.6-1.6c-0.3-0.1-0.8-0.2-1.1-0.2c-0.9,0-1.4,0.4-1.4,1.1
				c0,0.9,1.4,1.3,1.9,1.6c1.3,0.5,2.5,1.3,2.5,2.8c0,1.4-1,2.4-3.2,2.4c-1,0-2-0.3-2.7-0.8v-1.9l0.9-0.1l0.6,1.6
				c0.3,0.1,0.8,0.3,1.1,0.3c1,0,1.8-0.4,1.8-1c0-0.9-1.4-1.4-2.3-1.8c-0.9-0.5-2.1-1-2.1-2.7C220.1,31.4,221.5,30.6,223,30.6z"/>
			<path class="st3" d="M230.7,38.3l-0.1,0.9h-3.4l-0.1-0.9l1-0.4v-5.9l-1-0.4l0.1-0.9h3.4l0.1,0.9l-1,0.4V38L230.7,38.3z"/>
			<path class="st3" d="M235.2,31.7l-1,0.4v6.3h2.3l0.7-1.8l0.9,0.1v2.5h-6.4l-0.1-0.9l1-0.4v-5.9l-1-0.4l0.1-0.9h3.4L235.2,31.7z"
				/>
			<path class="st3" d="M243.8,34.4h1.2l0.4-1l0.9,0.1v2.7l-0.9,0.1l-0.4-1h-1.2v3h2.4l0.6-1.8l0.9,0.1v2.5h-6.4l-0.1-0.9l1-0.4
				v-5.9l-1-0.4l0.1-0.9h6.2v2.1l-0.9,0.1l-0.5-1.4h-2.3V34.4z"/>
			<path class="st3" d="M252.8,39.4l-2.1-5.7l-0.5,4.3l1,0.4l-0.1,0.9h-2.7l-0.1-0.9l1-0.4l0.7-5.9l-1-0.4l0.1-0.9h2.4l1.9,5.2v1.2
				l2.4-6.4h2.5l0.1,0.9l-1,0.4l0.6,5.9l1,0.4l-0.1,0.9h-3.4l-0.1-0.9l1-0.4l-0.5-4.6l-2.1,5.8L252.8,39.4z"/>
			<path class="st3" d="M264.2,32.4l-0.4,1.2l-0.8-0.2v-1.6c0.7-0.3,1.5-0.5,2.1-0.5c1.6,0,2.4,1,2.4,2.1c0,2.4-3,3.3-3.4,4.5h2.2
				l0.3-0.8l0.8,0.2v2h-4.6v-0.6c0-2.1,3.1-3.1,3.1-5.3c0-0.8-0.4-1.1-0.8-1.1C264.8,32.2,264.4,32.3,264.2,32.4z"/>
			<path class="st3" d="M274.8,35.3c0,1.9-0.6,4-2.9,4c-2.3,0-3-2.1-3-4s0.8-4,3-4S274.8,33.5,274.8,35.3z M270.6,35.3
				c0,1.5,0.4,3.2,1.3,3.2c0.9,0,1.3-1.6,1.3-3.2c0-1.5-0.3-3-1.3-3C270.9,32.2,270.6,33.8,270.6,35.3z"/>
			<path class="st3" d="M277.3,38.1v-5.3h-1.2l-0.2-0.8l2.1-0.5h0.8v6.7l1.3,0.2l-0.2,0.8h-3.9l-0.1-0.8L277.3,38.1z"/>
			<path class="st3" d="M282.5,32.4l-0.4,1.2l-0.8-0.2v-1.6c0.7-0.3,1.5-0.5,2.1-0.5c1.6,0,2.4,1,2.4,2.1c0,2.4-3,3.3-3.4,4.5h2.2
				l0.3-0.8l0.8,0.2v2h-4.6v-0.6c0-2.1,3.1-3.1,3.1-5.3c0-0.8-0.4-1.1-0.8-1.1C283.2,32.2,282.8,32.3,282.5,32.4z"/>
		</g>
	</g>
	<g id="Gráfico">
		<g>
			<g>
				<g>
					<text transform="matrix(1 0 0 1 72.4486 343.037)" class="st4 st5 st6">0</text>
					<text transform="matrix(1 0 0 1 108.0531 343.037)" class="st4 st5 st6">1</text>
					<text transform="matrix(1 0 0 1 142.2445 343.037)" class="st4 st5 st6">2</text>
					<text transform="matrix(1 0 0 1 176.891 343.037)" class="st4 st5 st6">3</text>
					<text transform="matrix(1 0 0 1 211.5814 343.037)" class="st4 st5 st6">4</text>
					<text transform="matrix(1 0 0 1 246.3539 343.037)" class="st4 st5 st6">5</text>
					<text transform="matrix(1 0 0 1 281.013 343.037)" class="st4 st5 st6">6</text>
				</g>
				<line class="st7" x1="75.3" y1="331.5" x2="283.4" y2="331.5"/>
				<g>
					<g>
						<line class="st7" x1="75.3" y1="331.5" x2="75.3" y2="63.6"/>
						<line class="st7" x1="110" y1="331.5" x2="110" y2="63.6"/>
						<line class="st7" x1="144.7" y1="331.5" x2="144.7" y2="63.6"/>
						<line class="st7" x1="179.3" y1="331.5" x2="179.3" y2="63.6"/>
						<line class="st7" x1="214" y1="331.5" x2="214" y2="63.6"/>
						<line class="st7" x1="248.7" y1="331.5" x2="248.7" y2="63.6"/>
						<line class="st7" x1="283.4" y1="331.5" x2="283.4" y2="63.6"/>
					</g>
					<g>
					</g>
				</g>
			</g>
			<g>
				<line class="st7" x1="75.3" y1="331.5" x2="75.3" y2="63.6"/>
				<g>
					<g>
					</g>
					<g>
					</g>
				</g>
			</g>
			<g>
				<g>
					<rect x="69.8" y="375.9" class="st8" width="25.1" height="13"/>
					<g>
						<rect x="75.3" y="69" class="st8" width="176.9" height="16.1"/>
						<rect x="75.3" y="113.6" class="st8" width="111" height="16.1"/>
						<rect x="75.3" y="158.3" class="st8" width="24.3" height="16.1"/>
						<rect x="75.3" y="202.9" class="st8" width="27.8" height="16.1"/>
						<rect x="75.3" y="247.6" class="st8" width="38.2" height="16.1"/>
						<rect x="75.3" y="292.2" class="st8" width="10.4" height="16.1"/>
					</g>
				</g>
				<g>
					<rect x="151.3" y="375.8" class="st9" width="25.1" height="13"/>
					<g>
						<rect x="75.3" y="86.8" class="st9" width="24.3" height="16.1"/>
						<rect x="75.3" y="131.5" class="st9" width="24.3" height="16.1"/>
						<rect x="75.3" y="176.1" class="st9" width="17.3" height="16.1"/>
						<rect x="75.3" y="220.8" class="st9" width="13.9" height="16.1"/>
						<rect x="75.3" y="265.4" class="st9" width="10.4" height="16.1"/>
						<rect x="75.3" y="310.1" class="st9" width="6.9" height="16.1"/>
					</g>
				</g>
			</g>
			<g>
				<g>
				</g>
				<g>
				</g>
			</g>
			<g>
				<g>
				</g>
				<g>
					<g>
						<g>
							<path class="st4" d="M184.3,385.3v-4.5h1.3l0,0.5c0.1-0.1,0.2-0.2,0.4-0.2c0.2-0.1,0.3-0.2,0.5-0.2c0.2-0.1,0.4-0.1,0.6-0.1
								c0.3,0,0.5,0,0.7,0.1c0.2,0.1,0.3,0.3,0.5,0.5c0.1,0.3,0.1,0.6,0.1,1v2.8H187v-2.5c0-0.2,0-0.4-0.1-0.5
								c0-0.1-0.1-0.2-0.2-0.3s-0.2-0.1-0.3-0.1c-0.1,0-0.2,0-0.4,0.1c-0.1,0-0.3,0.1-0.4,0.2v3.1H184.3z M188.4,382.3l-0.2-0.9
								c0.1-0.1,0.2-0.1,0.3-0.2c0.1-0.1,0.3-0.2,0.5-0.2c0.2-0.1,0.4-0.1,0.7-0.1c0.3,0,0.6,0,0.8,0.2c0.2,0.1,0.4,0.3,0.5,0.5
								c0.1,0.3,0.2,0.6,0.2,1v2.8h-1.4v-2.6c0-0.2,0-0.4-0.1-0.5c0-0.1-0.1-0.2-0.2-0.3c-0.1,0-0.2-0.1-0.3-0.1
								c-0.2,0-0.3,0-0.4,0.1C188.6,382.1,188.5,382.2,188.4,382.3z"/>
							<path class="st4" d="M193.5,385.4c-0.3,0-0.6,0-0.8-0.1c-0.2-0.1-0.3-0.2-0.5-0.4c-0.1-0.2-0.2-0.4-0.2-0.6
								c0-0.2-0.1-0.5-0.1-0.8v-2.6h1.4v2.7c0,0.2,0,0.4,0.1,0.5c0,0.1,0.1,0.2,0.2,0.2s0.2,0.1,0.3,0.1c0.1,0,0.2,0,0.3,0
								c0.1,0,0.2-0.1,0.2-0.1c0.1,0,0.1-0.1,0.2-0.1v-3.3h1.4v4.5h-1c-0.1,0-0.2,0-0.2,0c0,0-0.1-0.1-0.1-0.2v-0.3l0,0.1
								c-0.1,0.1-0.2,0.2-0.4,0.2c-0.2,0.1-0.3,0.1-0.5,0.2C193.8,385.4,193.6,385.4,193.5,385.4z"/>
							<path class="st4" d="M197.1,385.3v-6.5h1.4v6.5H197.1z"/>
							<path class="st4" d="M199.4,385.3v-6.5h1.4v1.7l-0.1,1l0-0.1c0.1-0.1,0.2-0.2,0.4-0.3s0.3-0.2,0.5-0.2
								c0.2-0.1,0.4-0.1,0.6-0.1c0.5,0,0.8,0.1,1.1,0.4c0.2,0.3,0.3,0.7,0.3,1.3v2.8h-1.5v-2.5c0-0.3,0-0.6-0.1-0.7
								c-0.1-0.1-0.2-0.2-0.4-0.2c-0.1,0-0.2,0-0.3,0.1c-0.1,0-0.3,0.1-0.4,0.2v3.1H199.4z"/>
							<path class="st4" d="M206.5,385.4c-0.7,0-1.3-0.2-1.6-0.6c-0.4-0.4-0.6-1-0.6-1.7c0-0.4,0.1-0.8,0.3-1.2
								c0.2-0.3,0.4-0.6,0.8-0.8s0.7-0.3,1.2-0.3c0.2,0,0.5,0,0.7,0.1s0.4,0.1,0.6,0.3s0.3,0.3,0.4,0.6c0.1,0.2,0.2,0.5,0.2,0.9
								c0,0.2,0,0.3,0,0.5s0,0.3,0,0.4h-3.3l0.1-0.7h1.9c0-0.2,0-0.4,0-0.5s-0.1-0.3-0.2-0.3c-0.1-0.1-0.2-0.1-0.3-0.1
								c-0.2,0-0.3,0-0.4,0.1c-0.1,0.1-0.2,0.2-0.3,0.5c-0.1,0.2-0.1,0.5-0.1,0.9c0,0.3,0.1,0.5,0.1,0.6c0.1,0.2,0.2,0.3,0.4,0.3
								c0.2,0.1,0.4,0.1,0.6,0.1c0.1,0,0.3,0,0.5,0c0.2,0,0.3,0,0.4-0.1c0.1,0,0.2-0.1,0.3-0.1l0.2,0.8c-0.1,0.1-0.2,0.2-0.4,0.2
								c-0.2,0.1-0.4,0.1-0.6,0.2C207,385.4,206.8,385.4,206.5,385.4z"/>
							<path class="st4" d="M209.1,385.3v-4.5h1.3l0.1,0.8l0.1,0.1v3.5H209.1z M210.5,382.7l-0.1-1c0.1-0.2,0.1-0.3,0.3-0.4
								s0.3-0.2,0.5-0.3c0.2-0.1,0.4-0.1,0.6-0.1c0.1,0,0.1,0,0.2,0c0.1,0,0.1,0,0.1,0v1.4c0,0-0.1,0-0.2-0.1c-0.1,0-0.2,0-0.3,0
								c-0.2,0-0.4,0-0.5,0.1c-0.1,0.1-0.3,0.1-0.4,0.2C210.6,382.6,210.5,382.6,210.5,382.7z"/>
							<path class="st4" d="M214.6,385.4c-0.7,0-1.3-0.2-1.6-0.6c-0.4-0.4-0.6-1-0.6-1.7c0-0.4,0.1-0.8,0.3-1.2
								c0.2-0.3,0.4-0.6,0.8-0.8s0.7-0.3,1.2-0.3c0.2,0,0.5,0,0.7,0.1s0.4,0.1,0.6,0.3s0.3,0.3,0.4,0.6c0.1,0.2,0.2,0.5,0.2,0.9
								c0,0.2,0,0.3,0,0.5s0,0.3,0,0.4h-3.3l0.1-0.7h1.9c0-0.2,0-0.4,0-0.5s-0.1-0.3-0.2-0.3c-0.1-0.1-0.2-0.1-0.3-0.1
								c-0.2,0-0.3,0-0.4,0.1c-0.1,0.1-0.2,0.2-0.3,0.5c-0.1,0.2-0.1,0.5-0.1,0.9c0,0.3,0.1,0.5,0.1,0.6c0.1,0.2,0.2,0.3,0.4,0.3
								c0.2,0.1,0.4,0.1,0.6,0.1c0.1,0,0.3,0,0.5,0c0.2,0,0.3,0,0.4-0.1c0.1,0,0.2-0.1,0.3-0.1l0.2,0.8c-0.1,0.1-0.2,0.2-0.4,0.2
								c-0.2,0.1-0.4,0.1-0.6,0.2C215.1,385.4,214.9,385.4,214.6,385.4z"/>
							<path class="st4" d="M217,385l0.1-1c0,0,0.1,0.1,0.3,0.1s0.3,0.1,0.5,0.2c0.2,0,0.4,0.1,0.6,0.1c0.2,0,0.4,0,0.5-0.1
								c0.1-0.1,0.2-0.1,0.2-0.2c0-0.1,0-0.1-0.1-0.2c-0.1-0.1-0.2-0.1-0.3-0.2c-0.1-0.1-0.3-0.1-0.4-0.2c-0.3-0.1-0.6-0.2-0.8-0.4
								c-0.2-0.1-0.3-0.3-0.4-0.5c-0.1-0.2-0.1-0.4-0.1-0.6c0-0.3,0.1-0.5,0.2-0.7c0.2-0.2,0.4-0.3,0.7-0.4c0.3-0.1,0.6-0.1,0.9-0.1
								c0.4,0,0.7,0,0.9,0.1c0.2,0.1,0.4,0.1,0.5,0.2l-0.1,1c-0.1,0-0.1-0.1-0.3-0.2c-0.1-0.1-0.2-0.1-0.4-0.1
								c-0.1,0-0.3-0.1-0.4-0.1c-0.2,0-0.4,0-0.5,0.1c-0.1,0.1-0.2,0.1-0.2,0.2c0,0.1,0.1,0.2,0.2,0.3s0.3,0.1,0.5,0.2
								c0.4,0.1,0.6,0.3,0.9,0.4c0.2,0.1,0.4,0.3,0.5,0.4c0.1,0.2,0.1,0.4,0.1,0.6c0,0.5-0.2,0.8-0.5,1.1c-0.3,0.2-0.8,0.4-1.4,0.4
								c-0.2,0-0.5,0-0.7-0.1c-0.2,0-0.4-0.1-0.6-0.1C217.2,385.1,217.1,385.1,217,385z"/>
						</g>
					</g>
				</g>
				<g>
					<g>
						<g>
							<path class="st4" d="M102,385.5V379h1.4v1.7l-0.1,1l0-0.1c0.1-0.1,0.2-0.2,0.4-0.3s0.3-0.2,0.5-0.2c0.2-0.1,0.4-0.1,0.6-0.1
								c0.5,0,0.8,0.1,1.1,0.4s0.3,0.7,0.3,1.3v2.8h-1.5V383c0-0.3,0-0.6-0.1-0.7c-0.1-0.1-0.2-0.2-0.4-0.2c-0.1,0-0.2,0-0.3,0.1
								s-0.3,0.1-0.4,0.2v3.1H102z"/>
							<path class="st4" d="M109,385.6c-0.4,0-0.8-0.1-1-0.2c-0.3-0.1-0.5-0.3-0.7-0.5c-0.2-0.2-0.3-0.5-0.4-0.8
								c-0.1-0.3-0.1-0.6-0.1-0.9c0-0.5,0.1-0.9,0.3-1.2s0.5-0.6,0.8-0.7c0.3-0.2,0.7-0.3,1.2-0.3c0.5,0,1,0.1,1.3,0.3
								s0.6,0.5,0.7,0.9c0.1,0.4,0.2,0.8,0.2,1.2c0,0.5-0.1,0.9-0.3,1.2c-0.2,0.3-0.5,0.6-0.8,0.7
								C109.8,385.5,109.4,385.6,109,385.6z M109,384.6c0.3,0,0.5-0.1,0.6-0.3c0.1-0.2,0.2-0.5,0.2-1c0-0.2,0-0.5-0.1-0.7
								c0-0.2-0.1-0.4-0.2-0.5c-0.1-0.1-0.3-0.2-0.4-0.2c-0.3,0-0.5,0.1-0.6,0.3s-0.2,0.5-0.2,0.9c0,0.2,0,0.5,0.1,0.7
								c0,0.2,0.1,0.4,0.2,0.5S108.8,384.6,109,384.6z"/>
							<path class="st4" d="M111.9,385.5v-4.5h1.3l0,0.5c0.1-0.1,0.2-0.2,0.4-0.2c0.2-0.1,0.3-0.2,0.5-0.2c0.2-0.1,0.4-0.1,0.6-0.1
								c0.3,0,0.5,0,0.7,0.1c0.2,0.1,0.4,0.3,0.5,0.5s0.1,0.6,0.1,1v2.8h-1.4V383c0-0.2,0-0.4-0.1-0.5c0-0.1-0.1-0.2-0.2-0.3
								s-0.2-0.1-0.3-0.1c-0.1,0-0.2,0-0.4,0.1s-0.3,0.1-0.4,0.2v3.1H111.9z M116,382.4l-0.2-0.9c0.1-0.1,0.2-0.1,0.3-0.2
								c0.1-0.1,0.3-0.2,0.5-0.2c0.2-0.1,0.4-0.1,0.7-0.1c0.3,0,0.6,0,0.8,0.2c0.2,0.1,0.4,0.3,0.5,0.5c0.1,0.2,0.2,0.6,0.2,1v2.8
								h-1.4V383c0-0.2,0-0.4-0.1-0.5c0-0.1-0.1-0.2-0.2-0.3c-0.1,0-0.2-0.1-0.3-0.1c-0.2,0-0.3,0-0.4,0.1S116.1,382.4,116,382.4z"
								/>
							<path class="st4" d="M121.7,385.6c-0.7,0-1.3-0.2-1.6-0.6c-0.4-0.4-0.6-1-0.6-1.7c0-0.4,0.1-0.8,0.3-1.2
								c0.2-0.3,0.4-0.6,0.8-0.8s0.7-0.3,1.2-0.3c0.2,0,0.5,0,0.7,0.1c0.2,0.1,0.4,0.1,0.6,0.3c0.2,0.1,0.3,0.3,0.4,0.6
								c0.1,0.2,0.2,0.5,0.2,0.9c0,0.2,0,0.3,0,0.5c0,0.1,0,0.3,0,0.4h-3.3l0.1-0.7h1.9c0-0.2,0-0.4,0-0.5s-0.1-0.3-0.2-0.3
								c-0.1-0.1-0.2-0.1-0.4-0.1c-0.2,0-0.3,0-0.4,0.1c-0.1,0.1-0.2,0.2-0.3,0.5c-0.1,0.2-0.1,0.5-0.1,0.9c0,0.3,0.1,0.5,0.1,0.6
								c0.1,0.2,0.2,0.3,0.4,0.3s0.4,0.1,0.6,0.1c0.1,0,0.3,0,0.5,0s0.3,0,0.4-0.1c0.1,0,0.2-0.1,0.3-0.1l0.2,0.8
								c-0.1,0.1-0.2,0.2-0.4,0.2c-0.2,0.1-0.4,0.1-0.6,0.2C122.2,385.5,121.9,385.6,121.7,385.6z"/>
							<path class="st4" d="M124.3,385.5v-4.5h1.3l0,0.5c0.1-0.1,0.2-0.2,0.4-0.3c0.2-0.1,0.3-0.2,0.5-0.2c0.2-0.1,0.4-0.1,0.6-0.1
								c0.5,0,0.8,0.1,1,0.4c0.2,0.3,0.3,0.7,0.3,1.3v2.8H127V383c0-0.3,0-0.5-0.1-0.7c-0.1-0.1-0.2-0.2-0.4-0.2c-0.1,0-0.1,0-0.2,0
								s-0.2,0.1-0.3,0.1c-0.1,0-0.2,0.1-0.2,0.2v3.1H124.3z"/>
							<path class="st4" d="M129.2,385.2l0.1-1c0,0,0.1,0.1,0.3,0.1s0.3,0.1,0.5,0.2c0.2,0,0.4,0.1,0.6,0.1c0.2,0,0.4,0,0.5-0.1
								c0.1-0.1,0.2-0.1,0.2-0.2c0-0.1,0-0.1-0.1-0.2c-0.1-0.1-0.2-0.1-0.3-0.2s-0.3-0.1-0.4-0.2c-0.3-0.1-0.6-0.2-0.8-0.4
								c-0.2-0.1-0.3-0.3-0.4-0.5c-0.1-0.2-0.1-0.4-0.1-0.6c0-0.3,0.1-0.5,0.2-0.7c0.2-0.2,0.4-0.3,0.7-0.4c0.3-0.1,0.6-0.1,0.9-0.1
								c0.4,0,0.7,0,0.9,0.1c0.2,0.1,0.4,0.1,0.5,0.2l-0.1,1c-0.1,0-0.1-0.1-0.3-0.2c-0.1-0.1-0.2-0.1-0.4-0.1
								c-0.1,0-0.3-0.1-0.4-0.1c-0.2,0-0.4,0-0.5,0.1c-0.1,0.1-0.2,0.1-0.2,0.2c0,0.1,0.1,0.2,0.2,0.3c0.1,0.1,0.3,0.1,0.5,0.2
								c0.4,0.1,0.6,0.3,0.9,0.4c0.2,0.1,0.4,0.3,0.5,0.4c0.1,0.2,0.1,0.4,0.1,0.6c0,0.5-0.2,0.8-0.5,1.1c-0.3,0.2-0.8,0.4-1.4,0.4
								c-0.2,0-0.5,0-0.7-0.1c-0.2,0-0.4-0.1-0.6-0.1C129.4,385.3,129.3,385.3,129.2,385.2z"/>
						</g>
					</g>
				</g>
			</g>
			<g>
				<text transform="matrix(1 0 0 1 25.3402 312.8646)" class="st4 st5 st6">anestésicos</text>
				<text transform="matrix(1 0 0 1 49.5052 268.2098)" class="st4 st5 st6">crack</text>
				<text transform="matrix(1 0 0 1 33.0619 223.5555)"><tspan x="0" y="0" class="st4 st5 st6">sol</tspan><tspan x="11.8" y="0" class="st4 st5 st6">v</tspan><tspan x="16.7" y="0" class="st4 st5 st6">entes</tspan></text>
				<text transform="matrix(1 0 0 1 11.1293 178.9012)" class="st4 st5 st6">alucinogênicos</text>
				<text transform="matrix(1 0 0 1 40.8744 134.2469)" class="st4 st5 st6">cocaína</text>
				<text transform="matrix(1 0 0 1 34.9432 89.5926)" class="st4 st5 st6">maconha</text>
			</g>
		</g>
		<g>
			<rect x="111.6" y="351.2" class="st2" width="129.6" height="13.5"/>
			<path class="st4" d="M151.9,357.4c0.6,0,1.2-0.7,1.2-1.7c0-1-0.4-1.4-0.8-1.4c-0.3,0-0.6,0.1-0.9,0.2v4.9l0.5,0.2l-0.1,0.5h-1.9
				l-0.1-0.5l0.5-0.2v-5.1h-0.5l-0.1-0.5l1.1-0.1l0.4,0.3c0.3-0.1,0.7-0.3,1.1-0.3c1.2,0,1.9,0.7,1.9,2.1c0,1.3-1,2.2-2.4,2.2h-0.2
				v-0.5H151.9z"/>
			<path class="st4" d="M159.2,355.8c0,1.4-0.7,2.2-2.1,2.2c-1.4,0-2.1-0.9-2.1-2.2c0-1.3,0.8-2.2,2.1-2.2
				C158.4,353.6,159.2,354.4,159.2,355.8z M156,355.8c0,1,0.4,1.7,1,1.7c0.6,0,1-0.7,1-1.7c0-1-0.4-1.6-1-1.6S156,354.8,156,355.8z"
				/>
			<path class="st4" d="M162.5,354.3c-0.1,0-0.2,0-0.3,0c-0.2,0-0.5,0.1-0.8,0.2v2.7l0.7,0.2l-0.1,0.5h-2.1l-0.1-0.5l0.5-0.2v-2.9
				H160l-0.1-0.5l1.1-0.1l0.3,0.2c0.3-0.1,0.7-0.2,1.1-0.2c0.3,0,0.6,0.1,0.9,0.2v1l-0.6,0.1L162.5,354.3z"/>
			<path class="st4" d="M164.9,355.7c0,0.9,0.3,1.7,1.2,1.7c0.4,0,0.8-0.1,1.2-0.4l0.3,0.5c-0.4,0.4-1,0.6-1.6,0.6
				c-1.5,0-2.3-0.9-2.3-2.2c0-1.4,1-2.2,2.3-2.2c0.4,0,0.9,0.1,1.4,0.4v0.9l-0.6,0.1l-0.2-0.7c-0.2-0.1-0.5-0.1-0.6-0.1
				C165.4,354.2,164.9,354.7,164.9,355.7z"/>
			<path class="st4" d="M171.8,356.9l0.3,0.5c-0.5,0.5-1.1,0.6-1.6,0.6c-1.6,0-2.3-0.9-2.3-2.2c0-1.4,1-2.2,2.2-2.2
				c1,0,1.9,0.6,1.9,1.5c0,0.2-0.1,0.6-0.2,0.8h-2.7c0,0.9,0.5,1.5,1.2,1.5C170.9,357.4,171.3,357.3,171.8,356.9z M171.1,355
				c0-0.5-0.3-0.8-0.8-0.8c-0.6,0-0.9,0.4-1,1.1h1.7C171,355.2,171.1,355.1,171.1,355z"/>
			<path class="st4" d="M174.3,354.4v2.7l0.5,0.2l-0.1,0.5h-2l-0.1-0.5l0.5-0.2v-2.9h-0.4l-0.1-0.5l1.1-0.1l0.3,0.2
				c0.3-0.1,0.7-0.2,1.1-0.2c1,0,1.6,0.5,1.6,1.5v2l0.5,0.2l-0.1,0.5h-1.9l-0.1-0.5l0.5-0.2V355c0-0.5-0.4-0.7-0.8-0.7
				C174.8,354.3,174.5,354.4,174.3,354.4z"/>
			<path class="st4" d="M180.6,353.7l-0.1,0.5h-1v2.6c0,0.3,0.2,0.5,0.4,0.5c0.2,0,0.5-0.2,0.7-0.4l0.4,0.5
				c-0.3,0.4-0.7,0.6-1.2,0.6c-0.8,0-1.3-0.5-1.3-1.2v-2.5h-0.5l-0.1-0.5l0.6-0.2l0.4-1l0.6,0.2v1H180.6z"/>
			<path class="st4" d="M182.9,353.6c1.1,0,1.8,0.6,1.8,1.7v1.9l0.5,0.2l-0.1,0.5H184l-0.3-0.2c-0.3,0.2-0.6,0.3-1.1,0.3
				c-0.8,0-1.4-0.4-1.4-1.3c0-1.2,1.4-1.5,2.4-1.5V355c0-0.5-0.3-0.8-0.7-0.8c-0.2,0-0.5,0.1-0.6,0.1l-0.2,0.7l-0.6-0.1V354
				C182,353.7,182.5,353.6,182.9,353.6z M182.3,356.7c0,0.5,0.3,0.7,0.6,0.7c0.2,0,0.5-0.1,0.7-0.4v-1.2
				C182.8,355.8,182.3,356.2,182.3,356.7z"/>
			<path class="st4" d="M189.1,358.6c0,1.1-1,1.5-2,1.5c-0.8,0-1.6-0.3-1.6-1.1c0-0.5,0.5-0.9,0.9-1l0.3,0.4
				c-0.3,0.2-0.4,0.4-0.4,0.6c0,0.3,0.3,0.5,0.8,0.5c0.5,0,0.9-0.3,0.9-0.7c0-0.3-0.4-0.6-0.7-0.7l-0.9-0.3
				c-0.3-0.1-0.7-0.3-0.7-0.8l0.4-0.7c-0.4-0.3-0.5-0.7-0.5-1.2c0-0.8,0.7-1.6,1.7-1.6c0.2,0,0.5,0,0.7,0.1l1.2-0.1l-0.1,0.7h-0.5
				l0.4,0.3c0.1,0.2,0.1,0.4,0.1,0.7c0,1-0.8,1.5-1.9,1.5c-0.2,0-0.4,0-0.6-0.1l0,0.1c0,0.1,0.1,0.2,0.2,0.2l0.7,0.3
				C188.5,357.5,189.1,357.9,189.1,358.6z M186.6,355.2c0,0.7,0.3,1,0.7,1c0.4,0,0.8-0.3,0.8-1c0-0.8-0.4-1-0.8-1
				C186.9,354.2,186.6,354.5,186.6,355.2z"/>
			<path class="st4" d="M193.3,356.9l0.3,0.5c-0.5,0.5-1.1,0.6-1.6,0.6c-1.6,0-2.3-0.9-2.3-2.2c0-1.4,1-2.2,2.2-2.2
				c1,0,1.9,0.6,1.9,1.5c0,0.2-0.1,0.6-0.2,0.8h-2.7c0,0.9,0.5,1.5,1.2,1.5C192.5,357.4,192.9,357.3,193.3,356.9z M192.6,355
				c0-0.5-0.3-0.8-0.8-0.8c-0.6,0-0.9,0.4-1,1.1h1.7C192.6,355.2,192.6,355.1,192.6,355z"/>
			<path class="st4" d="M195.9,354.4v2.7l0.5,0.2l-0.1,0.5h-2l-0.1-0.5l0.5-0.2v-2.9h-0.4l-0.1-0.5l1.1-0.1l0.3,0.2
				c0.3-0.1,0.7-0.2,1.1-0.2c1,0,1.6,0.5,1.6,1.5v2l0.5,0.2l-0.1,0.5H197l-0.1-0.5l0.5-0.2V355c0-0.5-0.4-0.7-0.8-0.7
				C196.4,354.3,196.1,354.4,195.9,354.4z"/>
			<path class="st4" d="M199.6,357.6v-1.1l0.6-0.1l0.3,0.9c0.1,0.1,0.4,0.1,0.5,0.1c0.4,0,0.8-0.2,0.8-0.5c0-0.3-0.5-0.5-0.8-0.7
				c-0.6-0.3-1.3-0.7-1.3-1.4c0-0.8,0.7-1.2,1.7-1.2c0.5,0,0.9,0.1,1.3,0.4v0.9l-0.6,0.1l-0.2-0.7c-0.2-0.1-0.4-0.1-0.6-0.1
				c-0.3,0-0.6,0.2-0.6,0.5c0,0.4,0.7,0.6,1.1,0.8c0.6,0.3,1.1,0.6,1.1,1.3c0,0.8-0.7,1.3-1.7,1.3
				C200.7,358,200.1,357.9,199.6,357.6z"/>
		</g>
		<g>
			<rect x="252.3" y="72.8" class="st2" width="25" height="9.2"/>
			<path class="st4" d="M257.4,79.4c-0.1,0-0.1,0-0.2,0c-0.1,0-0.2,0-0.2,0v-0.6c0,0,0.1,0,0.1,0c0,0,0.1,0,0.1,0
				c0.4,0,0.8-0.1,1.1-0.2c0.3-0.1,0.6-0.3,0.8-0.5c0.2-0.2,0.3-0.5,0.3-0.7c0-0.4-0.1-0.6-0.3-0.8c-0.2-0.2-0.5-0.2-0.9-0.2
				c-0.1,0-0.3,0-0.5,0.1c-0.2,0-0.4,0.1-0.5,0.1l-0.2-0.1l0.2-2.9h2.9l-0.1,0.8h-2.1l-0.1,1.5c0.2,0,0.3-0.1,0.5-0.1
				c0.1,0,0.3,0,0.4,0c0.5,0,1,0.1,1.2,0.4s0.4,0.7,0.4,1.2c0,0.3-0.1,0.5-0.2,0.8s-0.3,0.5-0.5,0.7c-0.2,0.2-0.5,0.4-0.9,0.5
				C258.3,79.3,257.9,79.4,257.4,79.4z"/>
			<path class="st4" d="M261.2,80.9L261.2,80.9c0.1-0.2,0.2-0.3,0.3-0.5s0.1-0.4,0.1-0.6c0-0.1,0-0.2-0.1-0.3s-0.1-0.2-0.2-0.3
				c-0.1-0.1-0.1-0.1-0.2-0.1v-0.3l0.6-0.5c0.2,0.1,0.3,0.2,0.4,0.3c0.1,0.1,0.2,0.3,0.2,0.5c0,0.2,0.1,0.3,0.1,0.5
				c0,0.3,0,0.5-0.1,0.8s-0.2,0.4-0.4,0.6c-0.1,0.2-0.3,0.3-0.5,0.4L261.2,80.9z"/>
			<path class="st4" d="M264,79.3v-4.9c-0.1,0-0.3,0.1-0.4,0.1s-0.3,0.1-0.4,0.1l-0.1-0.6c0.1,0,0.3-0.1,0.4-0.2s0.3-0.1,0.4-0.2
				c0.1-0.1,0.3-0.1,0.4-0.2c0.1-0.1,0.2-0.1,0.2-0.2l0.4,0.1v6H264z"/>
			<path class="st4" d="M267.7,76.7c-0.3,0-0.5-0.1-0.7-0.2c-0.2-0.1-0.3-0.3-0.5-0.6c-0.1-0.2-0.2-0.5-0.2-0.8
				c0-0.4,0.1-0.7,0.2-0.9c0.1-0.2,0.3-0.4,0.5-0.6c0.2-0.1,0.5-0.2,0.7-0.2c0.3,0,0.6,0.1,0.8,0.2c0.2,0.1,0.3,0.3,0.4,0.6
				s0.1,0.5,0.1,0.8c0,0.4-0.1,0.7-0.2,0.9s-0.3,0.4-0.5,0.6C268.2,76.7,267.9,76.7,267.7,76.7z M267.7,76.1c0.2,0,0.4-0.1,0.5-0.3
				c0.1-0.2,0.2-0.4,0.2-0.7c0-0.3-0.1-0.6-0.2-0.8s-0.3-0.3-0.5-0.3c-0.2,0-0.4,0.1-0.5,0.3c-0.1,0.2-0.2,0.4-0.2,0.8
				c0,0.3,0.1,0.6,0.2,0.8C267.4,76,267.5,76.1,267.7,76.1z M268.2,79.3l2.4-6h0.7l-2.4,6H268.2z M271.7,79.1
				c-0.3,0-0.5-0.1-0.7-0.2c-0.2-0.1-0.3-0.3-0.5-0.6s-0.2-0.5-0.2-0.8c0-0.4,0.1-0.7,0.2-0.9c0.1-0.2,0.3-0.4,0.5-0.6
				c0.2-0.1,0.5-0.2,0.7-0.2c0.3,0,0.6,0.1,0.8,0.2s0.3,0.3,0.4,0.6c0.1,0.2,0.1,0.5,0.1,0.8c0,0.4-0.1,0.7-0.2,0.9
				c-0.1,0.2-0.3,0.4-0.5,0.6C272.2,79.1,271.9,79.1,271.7,79.1z M271.7,78.5c0.2,0,0.4-0.1,0.5-0.3s0.2-0.4,0.2-0.7
				c0-0.3-0.1-0.6-0.2-0.8c-0.1-0.2-0.3-0.3-0.5-0.3c-0.2,0-0.4,0.1-0.5,0.3c-0.1,0.2-0.2,0.4-0.2,0.8c0,0.3,0.1,0.6,0.2,0.8
				C271.4,78.4,271.5,78.5,271.7,78.5z"/>
		</g>
		<g>
			<rect x="99.5" y="90.7" class="st2" width="25" height="9.2"/>
			<path class="st4" d="M105,97.3c-0.4,0-0.7-0.1-0.9-0.3c-0.3-0.2-0.5-0.4-0.6-0.7s-0.3-0.6-0.3-1c-0.1-0.4-0.1-0.8-0.1-1.2
				c0-0.6,0.1-1.1,0.3-1.6c0.2-0.4,0.4-0.8,0.8-1s0.7-0.4,1.1-0.4c0.4,0,0.7,0.1,1,0.2c0.3,0.2,0.5,0.4,0.6,0.6s0.3,0.6,0.3,1
				s0.1,0.7,0.1,1.2c0,0.6-0.1,1.2-0.3,1.6s-0.4,0.8-0.7,1.1C105.8,97.2,105.4,97.3,105,97.3z M105,96.5c0.4,0,0.7-0.2,0.8-0.5
				c0.2-0.4,0.3-0.9,0.3-1.7c0-0.4,0-0.8-0.1-1.1c-0.1-0.3-0.2-0.6-0.4-0.8c-0.2-0.2-0.4-0.3-0.6-0.3c-0.4,0-0.7,0.2-0.9,0.5
				c-0.2,0.4-0.3,0.9-0.3,1.5c0,0.4,0,0.8,0.1,1.1c0.1,0.3,0.2,0.6,0.4,0.8S104.8,96.5,105,96.5z"/>
			<path class="st4" d="M108.2,98.8L108.2,98.8c0.1-0.2,0.2-0.3,0.3-0.5s0.1-0.4,0.1-0.6c0-0.1,0-0.2-0.1-0.3s-0.1-0.2-0.2-0.3
				c-0.1-0.1-0.1-0.1-0.2-0.1v-0.3l0.6-0.5c0.2,0.1,0.3,0.2,0.4,0.3c0.1,0.1,0.2,0.3,0.2,0.5c0,0.2,0.1,0.3,0.1,0.5
				c0,0.3,0,0.5-0.1,0.8s-0.2,0.4-0.4,0.6c-0.1,0.2-0.3,0.3-0.5,0.4L108.2,98.8z"/>
			<path class="st4" d="M110.9,97.2c0.1-0.3,0.3-0.6,0.4-0.9c0.1-0.3,0.2-0.6,0.4-0.9c0.1-0.3,0.2-0.6,0.3-0.9
				c0.1-0.3,0.2-0.6,0.3-0.9s0.2-0.6,0.3-0.9c0.1-0.3,0.2-0.6,0.3-0.8l-2.8,0l0-0.8h3.5l0.2,0.3l-2,5.7H110.9z"/>
			<path class="st4" d="M115.9,94.7c-0.3,0-0.5-0.1-0.7-0.2s-0.3-0.3-0.5-0.6c-0.1-0.2-0.2-0.5-0.2-0.8c0-0.4,0.1-0.7,0.2-0.9
				c0.1-0.2,0.3-0.4,0.5-0.6c0.2-0.1,0.5-0.2,0.7-0.2c0.3,0,0.6,0.1,0.8,0.2c0.2,0.1,0.3,0.3,0.4,0.6s0.1,0.5,0.1,0.8
				c0,0.4-0.1,0.7-0.2,0.9c-0.1,0.2-0.3,0.4-0.5,0.6C116.4,94.6,116.1,94.7,115.9,94.7z M115.9,94.1c0.2,0,0.4-0.1,0.5-0.3
				c0.1-0.2,0.2-0.4,0.2-0.7c0-0.3-0.1-0.6-0.2-0.8s-0.3-0.3-0.5-0.3c-0.2,0-0.4,0.1-0.5,0.3s-0.2,0.4-0.2,0.8
				c0,0.3,0.1,0.6,0.2,0.8C115.6,94,115.7,94.1,115.9,94.1z M116.4,97.2l2.4-6h0.7l-2.4,6H116.4z M119.9,97.1
				c-0.3,0-0.5-0.1-0.7-0.2c-0.2-0.1-0.3-0.3-0.5-0.6c-0.1-0.2-0.2-0.5-0.2-0.8c0-0.4,0.1-0.7,0.2-0.9c0.1-0.2,0.3-0.4,0.5-0.6
				c0.2-0.1,0.5-0.2,0.7-0.2c0.3,0,0.6,0.1,0.8,0.2s0.3,0.3,0.4,0.6c0.1,0.2,0.1,0.5,0.1,0.8c0,0.4-0.1,0.7-0.2,0.9
				c-0.1,0.2-0.3,0.4-0.5,0.6C120.4,97,120.2,97.1,119.9,97.1z M120,96.5c0.2,0,0.4-0.1,0.5-0.3s0.2-0.4,0.2-0.7
				c0-0.3-0.1-0.6-0.2-0.8s-0.3-0.3-0.5-0.3c-0.2,0-0.4,0.1-0.5,0.3c-0.1,0.2-0.2,0.4-0.2,0.8c0,0.3,0.1,0.6,0.2,0.8
				C119.6,96.4,119.8,96.5,120,96.5z"/>
		</g>
		<g>
			<rect x="99.5" y="135.1" class="st2" width="25" height="9.2"/>
			<path class="st4" d="M105,141.7c-0.4,0-0.7-0.1-0.9-0.3c-0.3-0.2-0.5-0.4-0.6-0.7s-0.3-0.6-0.3-1c-0.1-0.4-0.1-0.8-0.1-1.2
				c0-0.6,0.1-1.1,0.3-1.6c0.2-0.4,0.4-0.8,0.8-1s0.7-0.4,1.1-0.4c0.4,0,0.7,0.1,1,0.2c0.3,0.2,0.5,0.4,0.6,0.6s0.3,0.6,0.3,1
				s0.1,0.7,0.1,1.2c0,0.6-0.1,1.2-0.3,1.6s-0.4,0.8-0.7,1.1C105.8,141.6,105.4,141.7,105,141.7z M105,140.9c0.4,0,0.7-0.2,0.8-0.5
				c0.2-0.4,0.3-0.9,0.3-1.7c0-0.4,0-0.8-0.1-1.1c-0.1-0.3-0.2-0.6-0.4-0.8c-0.2-0.2-0.4-0.3-0.6-0.3c-0.4,0-0.7,0.2-0.9,0.5
				c-0.2,0.4-0.3,0.9-0.3,1.5c0,0.4,0,0.8,0.1,1.1c0.1,0.3,0.2,0.6,0.4,0.8S104.8,140.9,105,140.9z"/>
			<path class="st4" d="M108.2,143.2L108.2,143.2c0.1-0.2,0.2-0.3,0.3-0.5s0.1-0.4,0.1-0.6c0-0.1,0-0.2-0.1-0.3s-0.1-0.2-0.2-0.3
				c-0.1-0.1-0.1-0.1-0.2-0.1v-0.3l0.6-0.5c0.2,0.1,0.3,0.2,0.4,0.3c0.1,0.1,0.2,0.3,0.2,0.5c0,0.2,0.1,0.3,0.1,0.5
				c0,0.3,0,0.5-0.1,0.8s-0.2,0.4-0.4,0.6c-0.1,0.2-0.3,0.3-0.5,0.4L108.2,143.2z"/>
			<path class="st4" d="M110.9,141.6c0.1-0.3,0.3-0.6,0.4-0.9c0.1-0.3,0.2-0.6,0.4-0.9c0.1-0.3,0.2-0.6,0.3-0.9
				c0.1-0.3,0.2-0.6,0.3-0.9s0.2-0.6,0.3-0.9c0.1-0.3,0.2-0.6,0.3-0.8l-2.8,0l0-0.8h3.5l0.2,0.3l-2,5.7H110.9z"/>
			<path class="st4" d="M115.9,139.1c-0.3,0-0.5-0.1-0.7-0.2s-0.3-0.3-0.5-0.6c-0.1-0.2-0.2-0.5-0.2-0.8c0-0.4,0.1-0.7,0.2-0.9
				c0.1-0.2,0.3-0.4,0.5-0.6c0.2-0.1,0.5-0.2,0.7-0.2c0.3,0,0.6,0.1,0.8,0.2c0.2,0.1,0.3,0.3,0.4,0.6s0.1,0.5,0.1,0.8
				c0,0.4-0.1,0.7-0.2,0.9c-0.1,0.2-0.3,0.4-0.5,0.6C116.4,139,116.1,139.1,115.9,139.1z M115.9,138.5c0.2,0,0.4-0.1,0.5-0.3
				c0.1-0.2,0.2-0.4,0.2-0.7c0-0.3-0.1-0.6-0.2-0.8s-0.3-0.3-0.5-0.3c-0.2,0-0.4,0.1-0.5,0.3s-0.2,0.4-0.2,0.8
				c0,0.3,0.1,0.6,0.2,0.8C115.6,138.4,115.7,138.5,115.9,138.5z M116.4,141.6l2.4-6h0.7l-2.4,6H116.4z M119.9,141.5
				c-0.3,0-0.5-0.1-0.7-0.2c-0.2-0.1-0.3-0.3-0.5-0.6c-0.1-0.2-0.2-0.5-0.2-0.8c0-0.4,0.1-0.7,0.2-0.9c0.1-0.2,0.3-0.4,0.5-0.6
				c0.2-0.1,0.5-0.2,0.7-0.2c0.3,0,0.6,0.1,0.8,0.2s0.3,0.3,0.4,0.6c0.1,0.2,0.1,0.5,0.1,0.8c0,0.4-0.1,0.7-0.2,0.9
				c-0.1,0.2-0.3,0.4-0.5,0.6C120.4,141.4,120.2,141.5,119.9,141.5z M120,140.9c0.2,0,0.4-0.1,0.5-0.3s0.2-0.4,0.2-0.7
				c0-0.3-0.1-0.6-0.2-0.8s-0.3-0.3-0.5-0.3c-0.2,0-0.4,0.1-0.5,0.3c-0.1,0.2-0.2,0.4-0.2,0.8c0,0.3,0.1,0.6,0.2,0.8
				C119.6,140.8,119.8,140.9,120,140.9z"/>
		</g>
		<g>
			<rect x="99.5" y="161.8" class="st2" width="25" height="9.2"/>
			<path class="st4" d="M105,168.3c-0.4,0-0.7-0.1-0.9-0.3c-0.3-0.2-0.5-0.4-0.6-0.7s-0.3-0.6-0.3-1c-0.1-0.4-0.1-0.8-0.1-1.2
				c0-0.6,0.1-1.1,0.3-1.6c0.2-0.4,0.4-0.8,0.8-1s0.7-0.4,1.1-0.4c0.4,0,0.7,0.1,1,0.2c0.3,0.2,0.5,0.4,0.6,0.6s0.3,0.6,0.3,1
				s0.1,0.7,0.1,1.2c0,0.6-0.1,1.2-0.3,1.6s-0.4,0.8-0.7,1.1C105.8,168.2,105.4,168.3,105,168.3z M105,167.5c0.4,0,0.7-0.2,0.8-0.5
				c0.2-0.4,0.3-0.9,0.3-1.7c0-0.4,0-0.8-0.1-1.1c-0.1-0.3-0.2-0.6-0.4-0.8c-0.2-0.2-0.4-0.3-0.6-0.3c-0.4,0-0.7,0.2-0.9,0.5
				c-0.2,0.4-0.3,0.9-0.3,1.5c0,0.4,0,0.8,0.1,1.1c0.1,0.3,0.2,0.6,0.4,0.8S104.8,167.5,105,167.5z"/>
			<path class="st4" d="M108.2,169.9L108.2,169.9c0.1-0.2,0.2-0.3,0.3-0.5s0.1-0.4,0.1-0.6c0-0.1,0-0.2-0.1-0.3s-0.1-0.2-0.2-0.3
				c-0.1-0.1-0.1-0.1-0.2-0.1v-0.3l0.6-0.5c0.2,0.1,0.3,0.2,0.4,0.3c0.1,0.1,0.2,0.3,0.2,0.5c0,0.2,0.1,0.3,0.1,0.5
				c0,0.3,0,0.5-0.1,0.8s-0.2,0.4-0.4,0.6c-0.1,0.2-0.3,0.3-0.5,0.4L108.2,169.9z"/>
			<path class="st4" d="M110.9,168.3c0.1-0.3,0.3-0.6,0.4-0.9c0.1-0.3,0.2-0.6,0.4-0.9c0.1-0.3,0.2-0.6,0.3-0.9
				c0.1-0.3,0.2-0.6,0.3-0.9s0.2-0.6,0.3-0.9c0.1-0.3,0.2-0.6,0.3-0.8l-2.8,0l0-0.8h3.5l0.2,0.3l-2,5.7H110.9z"/>
			<path class="st4" d="M115.9,165.7c-0.3,0-0.5-0.1-0.7-0.2s-0.3-0.3-0.5-0.6c-0.1-0.2-0.2-0.5-0.2-0.8c0-0.4,0.1-0.7,0.2-0.9
				c0.1-0.2,0.3-0.4,0.5-0.6c0.2-0.1,0.5-0.2,0.7-0.2c0.3,0,0.6,0.1,0.8,0.2c0.2,0.1,0.3,0.3,0.4,0.6s0.1,0.5,0.1,0.8
				c0,0.4-0.1,0.7-0.2,0.9c-0.1,0.2-0.3,0.4-0.5,0.6C116.4,165.6,116.1,165.7,115.9,165.7z M115.9,165.1c0.2,0,0.4-0.1,0.5-0.3
				c0.1-0.2,0.2-0.4,0.2-0.7c0-0.3-0.1-0.6-0.2-0.8s-0.3-0.3-0.5-0.3c-0.2,0-0.4,0.1-0.5,0.3s-0.2,0.4-0.2,0.8
				c0,0.3,0.1,0.6,0.2,0.8C115.6,165,115.7,165.1,115.9,165.1z M116.4,168.3l2.4-6h0.7l-2.4,6H116.4z M119.9,168.1
				c-0.3,0-0.5-0.1-0.7-0.2c-0.2-0.1-0.3-0.3-0.5-0.6c-0.1-0.2-0.2-0.5-0.2-0.8c0-0.4,0.1-0.7,0.2-0.9c0.1-0.2,0.3-0.4,0.5-0.6
				c0.2-0.1,0.5-0.2,0.7-0.2c0.3,0,0.6,0.1,0.8,0.2s0.3,0.3,0.4,0.6c0.1,0.2,0.1,0.5,0.1,0.8c0,0.4-0.1,0.7-0.2,0.9
				c-0.1,0.2-0.3,0.4-0.5,0.6C120.4,168,120.2,168.1,119.9,168.1z M120,167.5c0.2,0,0.4-0.1,0.5-0.3s0.2-0.4,0.2-0.7
				c0-0.3-0.1-0.6-0.2-0.8s-0.3-0.3-0.5-0.3c-0.2,0-0.4,0.1-0.5,0.3c-0.1,0.2-0.2,0.4-0.2,0.8c0,0.3,0.1,0.6,0.2,0.8
				C119.6,167.4,119.8,167.5,120,167.5z"/>
		</g>
		<g>
			<rect x="103.3" y="206.8" class="st2" width="25" height="9.2"/>
			<path class="st4" d="M108.5,213.3c-0.4,0-0.7-0.1-0.9-0.3c-0.3-0.2-0.5-0.4-0.6-0.7s-0.3-0.6-0.3-1c-0.1-0.4-0.1-0.8-0.1-1.2
				c0-0.6,0.1-1.1,0.3-1.6c0.2-0.4,0.4-0.8,0.8-1s0.7-0.4,1.1-0.4c0.4,0,0.7,0.1,1,0.2c0.3,0.2,0.5,0.4,0.6,0.6s0.3,0.6,0.3,1
				s0.1,0.7,0.1,1.2c0,0.6-0.1,1.2-0.3,1.6s-0.4,0.8-0.7,1.1C109.2,213.2,108.9,213.3,108.5,213.3z M108.5,212.5
				c0.4,0,0.7-0.2,0.8-0.5c0.2-0.4,0.3-0.9,0.3-1.7c0-0.4,0-0.8-0.1-1.1c-0.1-0.3-0.2-0.6-0.4-0.8c-0.2-0.2-0.4-0.3-0.6-0.3
				c-0.4,0-0.7,0.2-0.9,0.5c-0.2,0.4-0.3,0.9-0.3,1.5c0,0.4,0,0.8,0.1,1.1c0.1,0.3,0.2,0.6,0.4,0.8S108.2,212.5,108.5,212.5z"/>
			<path class="st4" d="M111.6,214.9L111.6,214.9c0.1-0.2,0.2-0.3,0.3-0.5s0.1-0.4,0.1-0.6c0-0.1,0-0.2-0.1-0.3s-0.1-0.2-0.2-0.3
				c-0.1-0.1-0.1-0.1-0.2-0.1v-0.3l0.6-0.5c0.2,0.1,0.3,0.2,0.4,0.3c0.1,0.1,0.2,0.3,0.2,0.5c0,0.2,0.1,0.3,0.1,0.5
				c0,0.3,0,0.5-0.1,0.8s-0.2,0.4-0.4,0.6c-0.1,0.2-0.3,0.3-0.5,0.4L111.6,214.9z"/>
			<path class="st4" d="M115.8,213.3c-0.2,0-0.5,0-0.7-0.1s-0.4-0.1-0.6-0.3c-0.2-0.1-0.3-0.3-0.4-0.5c-0.1-0.2-0.2-0.4-0.2-0.7
				c0-0.2,0-0.4,0.1-0.6c0.1-0.2,0.2-0.4,0.4-0.6c0.2-0.2,0.5-0.4,0.8-0.5l0.5,0.4c-0.2,0.1-0.4,0.2-0.5,0.3
				c-0.1,0.1-0.3,0.3-0.3,0.4c-0.1,0.2-0.1,0.3-0.1,0.5c0,0.2,0,0.4,0.1,0.5c0.1,0.1,0.2,0.3,0.4,0.3c0.2,0.1,0.4,0.1,0.6,0.1
				c0.2,0,0.3,0,0.5-0.1c0.2-0.1,0.3-0.2,0.4-0.3s0.1-0.3,0.1-0.5c0-0.2,0-0.3-0.1-0.5c-0.1-0.1-0.2-0.3-0.4-0.4
				c-0.2-0.1-0.3-0.2-0.5-0.3s-0.4-0.2-0.6-0.3s-0.4-0.2-0.5-0.4c-0.2-0.1-0.3-0.3-0.4-0.5c-0.1-0.2-0.1-0.4-0.1-0.7
				c0-0.3,0.1-0.6,0.2-0.8s0.4-0.4,0.6-0.5c0.3-0.1,0.6-0.2,0.9-0.2c0.3,0,0.6,0.1,0.9,0.2c0.2,0.1,0.4,0.3,0.6,0.5
				c0.1,0.2,0.2,0.4,0.2,0.7c0,0.2,0,0.4-0.1,0.6c-0.1,0.2-0.2,0.4-0.4,0.6c-0.2,0.2-0.4,0.3-0.7,0.5l-0.4-0.4
				c0.3-0.1,0.5-0.3,0.6-0.5c0.1-0.2,0.2-0.5,0.2-0.7c0-0.2-0.1-0.4-0.2-0.6s-0.4-0.2-0.7-0.2c-0.3,0-0.5,0.1-0.6,0.2
				s-0.3,0.3-0.3,0.6c0,0.2,0.1,0.4,0.2,0.5c0.1,0.2,0.2,0.3,0.4,0.4c0.2,0.1,0.4,0.2,0.5,0.4c0.2,0.1,0.4,0.2,0.6,0.3
				c0.2,0.1,0.4,0.2,0.6,0.4s0.3,0.3,0.4,0.5c0.1,0.2,0.2,0.4,0.2,0.6c0,0.4-0.1,0.7-0.3,0.9c-0.2,0.2-0.4,0.4-0.7,0.5
				C116.5,213.3,116.2,213.3,115.8,213.3z"/>
			<path class="st4" d="M119.8,210.7c-0.3,0-0.5-0.1-0.7-0.2s-0.3-0.3-0.5-0.6c-0.1-0.2-0.2-0.5-0.2-0.8c0-0.4,0.1-0.7,0.2-0.9
				c0.1-0.2,0.3-0.4,0.5-0.6c0.2-0.1,0.5-0.2,0.7-0.2c0.3,0,0.6,0.1,0.8,0.2c0.2,0.1,0.3,0.3,0.4,0.6s0.1,0.5,0.1,0.8
				c0,0.4-0.1,0.7-0.2,0.9c-0.1,0.2-0.3,0.4-0.5,0.6C120.3,210.6,120.1,210.7,119.8,210.7z M119.9,210.1c0.2,0,0.4-0.1,0.5-0.3
				c0.1-0.2,0.2-0.4,0.2-0.7c0-0.3-0.1-0.6-0.2-0.8s-0.3-0.3-0.5-0.3c-0.2,0-0.4,0.1-0.5,0.3s-0.2,0.4-0.2,0.8
				c0,0.3,0.1,0.6,0.2,0.8C119.5,210,119.7,210.1,119.9,210.1z M120.4,213.3l2.4-6h0.7l-2.4,6H120.4z M123.9,213.1
				c-0.3,0-0.5-0.1-0.7-0.2c-0.2-0.1-0.3-0.3-0.5-0.6c-0.1-0.2-0.2-0.5-0.2-0.8c0-0.4,0.1-0.7,0.2-0.9c0.1-0.2,0.3-0.4,0.5-0.6
				c0.2-0.1,0.5-0.2,0.7-0.2c0.3,0,0.6,0.1,0.8,0.2s0.3,0.3,0.4,0.6c0.1,0.2,0.1,0.5,0.1,0.8c0,0.4-0.1,0.7-0.2,0.9
				c-0.1,0.2-0.3,0.4-0.5,0.6C124.4,213,124.1,213.1,123.9,213.1z M123.9,212.5c0.2,0,0.4-0.1,0.5-0.3s0.2-0.4,0.2-0.7
				c0-0.3-0.1-0.6-0.2-0.8s-0.3-0.3-0.5-0.3c-0.2,0-0.4,0.1-0.5,0.3c-0.1,0.2-0.2,0.4-0.2,0.8c0,0.3,0.1,0.6,0.2,0.8
				C123.6,212.4,123.7,212.5,123.9,212.5z"/>
		</g>
		<g>
			<rect x="89.2" y="224.5" class="st2" width="25" height="9.2"/>
			<path class="st4" d="M94.3,231.1c-0.4,0-0.7-0.1-0.9-0.3c-0.3-0.2-0.5-0.4-0.6-0.7s-0.3-0.6-0.3-1c-0.1-0.4-0.1-0.8-0.1-1.2
				c0-0.6,0.1-1.1,0.3-1.6c0.2-0.4,0.4-0.8,0.8-1s0.7-0.4,1.1-0.4c0.4,0,0.7,0.1,1,0.2c0.3,0.2,0.5,0.4,0.6,0.6s0.3,0.6,0.3,1
				s0.1,0.7,0.1,1.2c0,0.6-0.1,1.2-0.3,1.6s-0.4,0.8-0.7,1.1C95.1,231,94.7,231.1,94.3,231.1z M94.3,230.3c0.4,0,0.7-0.2,0.8-0.5
				c0.2-0.4,0.3-0.9,0.3-1.7c0-0.4,0-0.8-0.1-1.1c-0.1-0.3-0.2-0.6-0.4-0.8c-0.2-0.2-0.4-0.3-0.6-0.3c-0.4,0-0.7,0.2-0.9,0.5
				c-0.2,0.4-0.3,0.9-0.3,1.5c0,0.4,0,0.8,0.1,1.1c0.1,0.3,0.2,0.6,0.4,0.8S94.1,230.3,94.3,230.3z"/>
			<path class="st4" d="M97.5,232.6L97.5,232.6c0.1-0.2,0.2-0.3,0.3-0.5s0.1-0.4,0.1-0.6c0-0.1,0-0.2-0.1-0.3s-0.1-0.2-0.2-0.3
				c-0.1-0.1-0.1-0.1-0.2-0.1v-0.3l0.6-0.5c0.2,0.1,0.3,0.2,0.4,0.3c0.1,0.1,0.2,0.3,0.2,0.5c0,0.2,0.1,0.3,0.1,0.5
				c0,0.3,0,0.5-0.1,0.8s-0.2,0.4-0.4,0.6c-0.1,0.2-0.3,0.3-0.5,0.4L97.5,232.6z"/>
			<path class="st4" d="M99.8,229.9l-0.2-0.4c0.1-0.2,0.2-0.4,0.3-0.7s0.2-0.4,0.3-0.6c0.1-0.2,0.2-0.4,0.3-0.6
				c0.1-0.2,0.2-0.4,0.2-0.6s0.2-0.4,0.3-0.6s0.2-0.4,0.3-0.6c0.1-0.2,0.2-0.4,0.3-0.7h0.3l0.6,0.4c-0.1,0.2-0.2,0.4-0.3,0.6
				c-0.1,0.2-0.2,0.4-0.2,0.5c-0.1,0.2-0.1,0.4-0.2,0.5c-0.1,0.2-0.1,0.3-0.2,0.5c-0.1,0.2-0.2,0.4-0.2,0.5
				c-0.1,0.2-0.2,0.4-0.3,0.6l-0.3,0.6h3.4v0.7H99.8z M102.2,231v-1.9l0.1-1.9h0.8v3.9H102.2z"/>
			<path class="st4" d="M105.9,228.5c-0.3,0-0.5-0.1-0.7-0.2s-0.3-0.3-0.5-0.6c-0.1-0.2-0.2-0.5-0.2-0.8c0-0.4,0.1-0.7,0.2-0.9
				c0.1-0.2,0.3-0.4,0.5-0.6c0.2-0.1,0.5-0.2,0.7-0.2c0.3,0,0.6,0.1,0.8,0.2c0.2,0.1,0.3,0.3,0.4,0.6s0.1,0.5,0.1,0.8
				c0,0.4-0.1,0.7-0.2,0.9c-0.1,0.2-0.3,0.4-0.5,0.6C106.4,228.4,106.2,228.5,105.9,228.5z M106,227.9c0.2,0,0.4-0.1,0.5-0.3
				c0.1-0.2,0.2-0.4,0.2-0.7c0-0.3-0.1-0.6-0.2-0.8s-0.3-0.3-0.5-0.3c-0.2,0-0.4,0.1-0.5,0.3s-0.2,0.4-0.2,0.8
				c0,0.3,0.1,0.6,0.2,0.8C105.6,227.8,105.8,227.9,106,227.9z M106.4,231l2.4-6h0.7l-2.4,6H106.4z M109.9,230.9
				c-0.3,0-0.5-0.1-0.7-0.2c-0.2-0.1-0.3-0.3-0.5-0.6c-0.1-0.2-0.2-0.5-0.2-0.8c0-0.4,0.1-0.7,0.2-0.9c0.1-0.2,0.3-0.4,0.5-0.6
				c0.2-0.1,0.5-0.2,0.7-0.2c0.3,0,0.6,0.1,0.8,0.2s0.3,0.3,0.4,0.6c0.1,0.2,0.1,0.5,0.1,0.8c0,0.4-0.1,0.7-0.2,0.9
				c-0.1,0.2-0.3,0.4-0.5,0.6C110.4,230.8,110.2,230.9,109.9,230.9z M110,230.3c0.2,0,0.4-0.1,0.5-0.3s0.2-0.4,0.2-0.7
				c0-0.3-0.1-0.6-0.2-0.8s-0.3-0.3-0.5-0.3c-0.2,0-0.4,0.1-0.5,0.3c-0.1,0.2-0.2,0.4-0.2,0.8c0,0.3,0.1,0.6,0.2,0.8
				C109.6,230.2,109.8,230.3,110,230.3z"/>
		</g>
		<g>
			<rect x="113.5" y="251.3" class="st2" width="25" height="9.2"/>
			<path class="st4" d="M119.2,257.8v-4.9c-0.1,0-0.3,0.1-0.4,0.1s-0.3,0.1-0.4,0.1l-0.1-0.6c0.1,0,0.3-0.1,0.4-0.2
				c0.1-0.1,0.3-0.1,0.4-0.2c0.1-0.1,0.3-0.1,0.4-0.2c0.1-0.1,0.2-0.1,0.2-0.2l0.4,0.1v6H119.2z"/>
			<path class="st4" d="M121.8,259.4L121.8,259.4c0.1-0.2,0.2-0.3,0.3-0.5s0.1-0.4,0.1-0.6c0-0.1,0-0.2-0.1-0.3s-0.1-0.2-0.2-0.3
				c-0.1-0.1-0.1-0.1-0.2-0.1v-0.3l0.6-0.5c0.2,0.1,0.3,0.2,0.4,0.3c0.1,0.1,0.2,0.3,0.2,0.5c0,0.2,0.1,0.3,0.1,0.5
				c0,0.3,0,0.5-0.1,0.8s-0.2,0.4-0.4,0.6c-0.1,0.2-0.3,0.3-0.5,0.4L121.8,259.4z"/>
			<path class="st4" d="M124.6,257.8v-4.9c-0.1,0-0.3,0.1-0.4,0.1s-0.3,0.1-0.4,0.1l-0.1-0.6c0.1,0,0.3-0.1,0.4-0.2
				c0.1-0.1,0.3-0.1,0.4-0.2c0.1-0.1,0.3-0.1,0.4-0.2c0.1-0.1,0.2-0.1,0.2-0.2l0.4,0.1v6H124.6z"/>
			<path class="st4" d="M128.3,255.2c-0.3,0-0.5-0.1-0.7-0.2s-0.3-0.3-0.5-0.6c-0.1-0.2-0.2-0.5-0.2-0.8c0-0.4,0.1-0.7,0.2-0.9
				c0.1-0.2,0.3-0.4,0.5-0.6c0.2-0.1,0.5-0.2,0.7-0.2c0.3,0,0.6,0.1,0.8,0.2c0.2,0.1,0.3,0.3,0.4,0.6s0.1,0.5,0.1,0.8
				c0,0.4-0.1,0.7-0.2,0.9c-0.1,0.2-0.3,0.4-0.5,0.6C128.8,255.2,128.5,255.2,128.3,255.2z M128.3,254.6c0.2,0,0.4-0.1,0.5-0.3
				c0.1-0.2,0.2-0.4,0.2-0.7c0-0.3-0.1-0.6-0.2-0.8s-0.3-0.3-0.5-0.3c-0.2,0-0.4,0.1-0.5,0.3s-0.2,0.4-0.2,0.8
				c0,0.3,0.1,0.6,0.2,0.8C128,254.5,128.2,254.6,128.3,254.6z M128.8,257.8l2.4-6h0.7l-2.4,6H128.8z M132.3,257.6
				c-0.3,0-0.5-0.1-0.7-0.2c-0.2-0.1-0.3-0.3-0.5-0.6c-0.1-0.2-0.2-0.5-0.2-0.8c0-0.4,0.1-0.7,0.2-0.9c0.1-0.2,0.3-0.4,0.5-0.6
				c0.2-0.1,0.5-0.2,0.7-0.2c0.3,0,0.6,0.1,0.8,0.2s0.3,0.3,0.4,0.6c0.1,0.2,0.1,0.5,0.1,0.8c0,0.4-0.1,0.7-0.2,0.9
				c-0.1,0.2-0.3,0.4-0.5,0.6C132.8,257.6,132.6,257.6,132.3,257.6z M132.4,257c0.2,0,0.4-0.1,0.5-0.3s0.2-0.4,0.2-0.7
				c0-0.3-0.1-0.6-0.2-0.8s-0.3-0.3-0.5-0.3c-0.2,0-0.4,0.1-0.5,0.3c-0.1,0.2-0.2,0.4-0.2,0.8c0,0.3,0.1,0.6,0.2,0.8
				C132,256.9,132.2,257,132.4,257z"/>
		</g>
		<g>
			<rect x="85.7" y="268.8" class="st2" width="25" height="9.2"/>
			<path class="st4" d="M91.3,275.4c-0.4,0-0.7-0.1-0.9-0.3c-0.3-0.2-0.5-0.4-0.6-0.7s-0.3-0.6-0.3-1c-0.1-0.4-0.1-0.8-0.1-1.2
				c0-0.6,0.1-1.1,0.3-1.6c0.2-0.4,0.4-0.8,0.8-1s0.7-0.4,1.1-0.4c0.4,0,0.7,0.1,1,0.2c0.3,0.2,0.5,0.4,0.6,0.6s0.3,0.6,0.3,1
				s0.1,0.7,0.1,1.2c0,0.6-0.1,1.2-0.3,1.6s-0.4,0.8-0.7,1.1C92,275.3,91.7,275.4,91.3,275.4z M91.3,274.5c0.4,0,0.7-0.2,0.8-0.5
				c0.2-0.4,0.3-0.9,0.3-1.7c0-0.4,0-0.8-0.1-1.1c-0.1-0.3-0.2-0.6-0.4-0.8c-0.2-0.2-0.4-0.3-0.6-0.3c-0.4,0-0.7,0.2-0.9,0.5
				c-0.2,0.4-0.3,0.9-0.3,1.5c0,0.4,0,0.8,0.1,1.1c0.1,0.3,0.2,0.6,0.4,0.8S91,274.5,91.3,274.5z"/>
			<path class="st4" d="M94.4,276.9L94.4,276.9c0.1-0.2,0.2-0.3,0.3-0.5s0.1-0.4,0.1-0.6c0-0.1,0-0.2-0.1-0.3s-0.1-0.2-0.2-0.3
				c-0.1-0.1-0.1-0.1-0.2-0.1v-0.3l0.6-0.5c0.2,0.1,0.3,0.2,0.4,0.3c0.1,0.1,0.2,0.3,0.2,0.5c0,0.2,0.1,0.3,0.1,0.5
				c0,0.3,0,0.5-0.1,0.8s-0.2,0.4-0.4,0.6c-0.1,0.2-0.3,0.3-0.5,0.4L94.4,276.9z"/>
			<path class="st4" d="M96.7,275.3l0-0.6c0.1,0,0.2,0,0.3,0c0.1,0,0.2,0,0.3,0c0.4,0,0.7,0,0.9-0.1c0.3-0.1,0.5-0.2,0.6-0.4
				c0.2-0.2,0.2-0.4,0.2-0.6c0-0.2,0-0.4-0.1-0.6c-0.1-0.2-0.2-0.3-0.4-0.4c-0.2-0.1-0.4-0.1-0.7-0.1l-0.4,0.1l-0.2-0.6
				c0.1,0,0.3-0.1,0.4-0.1c0.1,0,0.2-0.1,0.3-0.1c0.3-0.1,0.5-0.3,0.6-0.4s0.2-0.4,0.2-0.6c0-0.3-0.1-0.5-0.2-0.6
				c-0.2-0.1-0.4-0.2-0.6-0.2c-0.3,0-0.5,0-0.7,0.1c-0.2,0.1-0.3,0.2-0.5,0.3l-0.3-0.5c0.1-0.1,0.2-0.2,0.4-0.3
				c0.2-0.1,0.3-0.2,0.5-0.2c0.2-0.1,0.4-0.1,0.6-0.1c0.3,0,0.6,0.1,0.8,0.2c0.2,0.1,0.4,0.3,0.6,0.5c0.1,0.2,0.2,0.5,0.2,0.8
				c0,0.3-0.1,0.5-0.2,0.7c-0.1,0.2-0.3,0.4-0.5,0.5s-0.4,0.3-0.6,0.3v-0.1c0.3,0,0.6,0.1,0.9,0.2c0.2,0.1,0.4,0.3,0.5,0.5
				c0.1,0.2,0.2,0.5,0.2,0.7c0,0.3-0.1,0.6-0.3,0.9s-0.5,0.5-0.9,0.7c-0.4,0.2-0.8,0.3-1.3,0.3c-0.1,0-0.3,0-0.4,0
				S96.8,275.3,96.7,275.3z"/>
			<path class="st4" d="M102,272.7c-0.3,0-0.5-0.1-0.7-0.2s-0.3-0.3-0.5-0.6c-0.1-0.2-0.2-0.5-0.2-0.8c0-0.4,0.1-0.7,0.2-0.9
				c0.1-0.2,0.3-0.4,0.5-0.6c0.2-0.1,0.5-0.2,0.7-0.2c0.3,0,0.6,0.1,0.8,0.2c0.2,0.1,0.3,0.3,0.4,0.6s0.1,0.5,0.1,0.8
				c0,0.4-0.1,0.7-0.2,0.9c-0.1,0.2-0.3,0.4-0.5,0.6C102.5,272.7,102.3,272.7,102,272.7z M102.1,272.1c0.2,0,0.4-0.1,0.5-0.3
				c0.1-0.2,0.2-0.4,0.2-0.7c0-0.3-0.1-0.6-0.2-0.8s-0.3-0.3-0.5-0.3c-0.2,0-0.4,0.1-0.5,0.3s-0.2,0.4-0.2,0.8
				c0,0.3,0.1,0.6,0.2,0.8C101.7,272,101.9,272.1,102.1,272.1z M102.5,275.3l2.4-6h0.7l-2.4,6H102.5z M106,275.1
				c-0.3,0-0.5-0.1-0.7-0.2c-0.2-0.1-0.3-0.3-0.5-0.6c-0.1-0.2-0.2-0.5-0.2-0.8c0-0.4,0.1-0.7,0.2-0.9c0.1-0.2,0.3-0.4,0.5-0.6
				c0.2-0.1,0.5-0.2,0.7-0.2c0.3,0,0.6,0.1,0.8,0.2s0.3,0.3,0.4,0.6c0.1,0.2,0.1,0.5,0.1,0.8c0,0.4-0.1,0.7-0.2,0.9
				c-0.1,0.2-0.3,0.4-0.5,0.6C106.5,275.1,106.3,275.1,106,275.1z M106.1,274.5c0.2,0,0.4-0.1,0.5-0.3s0.2-0.4,0.2-0.7
				c0-0.3-0.1-0.6-0.2-0.8s-0.3-0.3-0.5-0.3c-0.2,0-0.4,0.1-0.5,0.3c-0.1,0.2-0.2,0.4-0.2,0.8c0,0.3,0.1,0.6,0.2,0.8
				C105.7,274.4,105.9,274.5,106.1,274.5z"/>
		</g>
		<g>
			<rect x="85.7" y="295.6" class="st2" width="25" height="9.2"/>
			<path class="st4" d="M91.3,302.1c-0.4,0-0.7-0.1-0.9-0.3c-0.3-0.2-0.5-0.4-0.6-0.7s-0.3-0.6-0.3-1c-0.1-0.4-0.1-0.8-0.1-1.2
				c0-0.6,0.1-1.1,0.3-1.6c0.2-0.4,0.4-0.8,0.8-1s0.7-0.4,1.1-0.4c0.4,0,0.7,0.1,1,0.2c0.3,0.2,0.5,0.4,0.6,0.6s0.3,0.6,0.3,1
				s0.1,0.7,0.1,1.2c0,0.6-0.1,1.2-0.3,1.6s-0.4,0.8-0.7,1.1C92,302,91.7,302.1,91.3,302.1z M91.3,301.3c0.4,0,0.7-0.2,0.8-0.5
				c0.2-0.4,0.3-0.9,0.3-1.7c0-0.4,0-0.8-0.1-1.1c-0.1-0.3-0.2-0.6-0.4-0.8c-0.2-0.2-0.4-0.3-0.6-0.3c-0.4,0-0.7,0.2-0.9,0.5
				c-0.2,0.4-0.3,0.9-0.3,1.5c0,0.4,0,0.8,0.1,1.1c0.1,0.3,0.2,0.6,0.4,0.8S91,301.3,91.3,301.3z"/>
			<path class="st4" d="M94.4,303.7L94.4,303.7c0.1-0.2,0.2-0.3,0.3-0.5s0.1-0.4,0.1-0.6c0-0.1,0-0.2-0.1-0.3s-0.1-0.2-0.2-0.3
				c-0.1-0.1-0.1-0.1-0.2-0.1v-0.3L95,301c0.2,0.1,0.3,0.2,0.4,0.3c0.1,0.1,0.2,0.3,0.2,0.5c0,0.2,0.1,0.3,0.1,0.5
				c0,0.3,0,0.5-0.1,0.8s-0.2,0.4-0.4,0.6c-0.1,0.2-0.3,0.3-0.5,0.4L94.4,303.7z"/>
			<path class="st4" d="M96.7,302.1l0-0.6c0.1,0,0.2,0,0.3,0c0.1,0,0.2,0,0.3,0c0.4,0,0.7,0,0.9-0.1c0.3-0.1,0.5-0.2,0.6-0.4
				c0.2-0.2,0.2-0.4,0.2-0.6c0-0.2,0-0.4-0.1-0.6c-0.1-0.2-0.2-0.3-0.4-0.4c-0.2-0.1-0.4-0.1-0.7-0.1l-0.4,0.1l-0.2-0.6
				c0.1,0,0.3-0.1,0.4-0.1c0.1,0,0.2-0.1,0.3-0.1c0.3-0.1,0.5-0.3,0.6-0.4s0.2-0.4,0.2-0.6c0-0.3-0.1-0.5-0.2-0.6
				c-0.2-0.1-0.4-0.2-0.6-0.2c-0.3,0-0.5,0-0.7,0.1c-0.2,0.1-0.3,0.2-0.5,0.3l-0.3-0.5c0.1-0.1,0.2-0.2,0.4-0.3
				c0.2-0.1,0.3-0.2,0.5-0.2c0.2-0.1,0.4-0.1,0.6-0.1c0.3,0,0.6,0.1,0.8,0.2c0.2,0.1,0.4,0.3,0.6,0.5c0.1,0.2,0.2,0.5,0.2,0.8
				c0,0.3-0.1,0.5-0.2,0.7c-0.1,0.2-0.3,0.4-0.5,0.5s-0.4,0.3-0.6,0.3v-0.1c0.3,0,0.6,0.1,0.9,0.2c0.2,0.1,0.4,0.3,0.5,0.5
				c0.1,0.2,0.2,0.5,0.2,0.7c0,0.3-0.1,0.6-0.3,0.9s-0.5,0.5-0.9,0.7c-0.4,0.2-0.8,0.3-1.3,0.3c-0.1,0-0.3,0-0.4,0
				S96.8,302.1,96.7,302.1z"/>
			<path class="st4" d="M102,299.5c-0.3,0-0.5-0.1-0.7-0.2s-0.3-0.3-0.5-0.6c-0.1-0.2-0.2-0.5-0.2-0.8c0-0.4,0.1-0.7,0.2-0.9
				c0.1-0.2,0.3-0.4,0.5-0.6c0.2-0.1,0.5-0.2,0.7-0.2c0.3,0,0.6,0.1,0.8,0.2c0.2,0.1,0.3,0.3,0.4,0.6s0.1,0.5,0.1,0.8
				c0,0.4-0.1,0.7-0.2,0.9c-0.1,0.2-0.3,0.4-0.5,0.6C102.5,299.4,102.3,299.5,102,299.5z M102.1,298.9c0.2,0,0.4-0.1,0.5-0.3
				c0.1-0.2,0.2-0.4,0.2-0.7c0-0.3-0.1-0.6-0.2-0.8s-0.3-0.3-0.5-0.3c-0.2,0-0.4,0.1-0.5,0.3s-0.2,0.4-0.2,0.8
				c0,0.3,0.1,0.6,0.2,0.8C101.7,298.8,101.9,298.9,102.1,298.9z M102.5,302.1l2.4-6h0.7l-2.4,6H102.5z M106,301.9
				c-0.3,0-0.5-0.1-0.7-0.2c-0.2-0.1-0.3-0.3-0.5-0.6c-0.1-0.2-0.2-0.5-0.2-0.8c0-0.4,0.1-0.7,0.2-0.9c0.1-0.2,0.3-0.4,0.5-0.6
				c0.2-0.1,0.5-0.2,0.7-0.2c0.3,0,0.6,0.1,0.8,0.2s0.3,0.3,0.4,0.6c0.1,0.2,0.1,0.5,0.1,0.8c0,0.4-0.1,0.7-0.2,0.9
				c-0.1,0.2-0.3,0.4-0.5,0.6C106.5,301.8,106.3,301.9,106,301.9z M106.1,301.3c0.2,0,0.4-0.1,0.5-0.3s0.2-0.4,0.2-0.7
				c0-0.3-0.1-0.6-0.2-0.8s-0.3-0.3-0.5-0.3c-0.2,0-0.4,0.1-0.5,0.3c-0.1,0.2-0.2,0.4-0.2,0.8c0,0.3,0.1,0.6,0.2,0.8
				C105.7,301.2,105.9,301.3,106.1,301.3z"/>
		</g>
		<g>
			<rect x="82.4" y="313.6" class="st2" width="25" height="9.2"/>
			<path class="st4" d="M87.7,320.1c-0.4,0-0.7-0.1-0.9-0.3c-0.3-0.2-0.5-0.4-0.6-0.7s-0.3-0.6-0.3-1c-0.1-0.4-0.1-0.8-0.1-1.2
				c0-0.6,0.1-1.1,0.3-1.6c0.2-0.4,0.4-0.8,0.8-1s0.7-0.4,1.1-0.4c0.4,0,0.7,0.1,1,0.2c0.3,0.2,0.5,0.4,0.6,0.6s0.3,0.6,0.3,1
				s0.1,0.7,0.1,1.2c0,0.6-0.1,1.2-0.3,1.6s-0.4,0.8-0.7,1.1C88.5,320,88.1,320.1,87.7,320.1z M87.7,319.3c0.4,0,0.7-0.2,0.8-0.5
				c0.2-0.4,0.3-0.9,0.3-1.7c0-0.4,0-0.8-0.1-1.1c-0.1-0.3-0.2-0.6-0.4-0.8c-0.2-0.2-0.4-0.3-0.6-0.3c-0.4,0-0.7,0.2-0.9,0.5
				c-0.2,0.4-0.3,0.9-0.3,1.5c0,0.4,0,0.8,0.1,1.1c0.1,0.3,0.2,0.6,0.4,0.8S87.5,319.3,87.7,319.3z"/>
			<path class="st4" d="M90.9,321.7L90.9,321.7c0.1-0.2,0.2-0.3,0.3-0.5s0.1-0.4,0.1-0.6c0-0.1,0-0.2-0.1-0.3s-0.1-0.2-0.2-0.3
				c-0.1-0.1-0.1-0.1-0.2-0.1v-0.3l0.6-0.5c0.2,0.1,0.3,0.2,0.4,0.3c0.1,0.1,0.2,0.3,0.2,0.5c0,0.2,0.1,0.3,0.1,0.5
				c0,0.3,0,0.5-0.1,0.8s-0.2,0.4-0.4,0.6c-0.1,0.2-0.3,0.3-0.5,0.4L90.9,321.7z"/>
			<path class="st4" d="M93.2,320.1l-0.1-0.5c0.2-0.2,0.5-0.4,0.7-0.6s0.5-0.4,0.7-0.7c0.2-0.2,0.4-0.5,0.6-0.8s0.3-0.5,0.4-0.8
				c0.1-0.3,0.2-0.5,0.2-0.8c0-0.4-0.1-0.6-0.3-0.8s-0.4-0.3-0.7-0.3c-0.3,0-0.5,0.1-0.7,0.2c-0.2,0.1-0.4,0.2-0.5,0.4l-0.4-0.6
				c0.1-0.1,0.2-0.2,0.4-0.3s0.4-0.2,0.6-0.3c0.2-0.1,0.5-0.1,0.8-0.1c0.4,0,0.7,0.1,1,0.2c0.3,0.2,0.4,0.4,0.6,0.7
				c0.1,0.3,0.2,0.6,0.2,0.9c0,0.4-0.1,0.8-0.3,1.2s-0.4,0.8-0.8,1.2c-0.3,0.4-0.7,0.7-1.1,1l2.4,0v0.8H93.2z"/>
			<path class="st4" d="M98.9,317.5c-0.3,0-0.5-0.1-0.7-0.2s-0.3-0.3-0.5-0.6c-0.1-0.2-0.2-0.5-0.2-0.8c0-0.4,0.1-0.7,0.2-0.9
				c0.1-0.2,0.3-0.4,0.5-0.6c0.2-0.1,0.5-0.2,0.7-0.2c0.3,0,0.6,0.1,0.8,0.2c0.2,0.1,0.3,0.3,0.4,0.6s0.1,0.5,0.1,0.8
				c0,0.4-0.1,0.7-0.2,0.9c-0.1,0.2-0.3,0.4-0.5,0.6C99.3,317.4,99.1,317.5,98.9,317.5z M98.9,316.9c0.2,0,0.4-0.1,0.5-0.3
				c0.1-0.2,0.2-0.4,0.2-0.7c0-0.3-0.1-0.6-0.2-0.8s-0.3-0.3-0.5-0.3c-0.2,0-0.4,0.1-0.5,0.3s-0.2,0.4-0.2,0.8
				c0,0.3,0.1,0.6,0.2,0.8C98.6,316.8,98.7,316.9,98.9,316.9z M99.4,320.1l2.4-6h0.7l-2.4,6H99.4z M102.9,319.9
				c-0.3,0-0.5-0.1-0.7-0.2c-0.2-0.1-0.3-0.3-0.5-0.6c-0.1-0.2-0.2-0.5-0.2-0.8c0-0.4,0.1-0.7,0.2-0.9c0.1-0.2,0.3-0.4,0.5-0.6
				c0.2-0.1,0.5-0.2,0.7-0.2c0.3,0,0.6,0.1,0.8,0.2s0.3,0.3,0.4,0.6c0.1,0.2,0.1,0.5,0.1,0.8c0,0.4-0.1,0.7-0.2,0.9
				c-0.1,0.2-0.3,0.4-0.5,0.6C103.4,319.8,103.1,319.9,102.9,319.9z M102.9,319.3c0.2,0,0.4-0.1,0.5-0.3s0.2-0.4,0.2-0.7
				c0-0.3-0.1-0.6-0.2-0.8s-0.3-0.3-0.5-0.3c-0.2,0-0.4,0.1-0.5,0.3c-0.1,0.2-0.2,0.4-0.2,0.8c0,0.3,0.1,0.6,0.2,0.8
				C102.6,319.2,102.7,319.3,102.9,319.3z"/>
		</g>
		<g>
			<rect x="92.8" y="179.5" class="st2" width="25" height="9.2"/>
			<path class="st4" d="M98.2,186.1c-0.4,0-0.7-0.1-0.9-0.3c-0.3-0.2-0.5-0.4-0.6-0.7s-0.3-0.6-0.3-1c-0.1-0.4-0.1-0.8-0.1-1.2
				c0-0.6,0.1-1.1,0.3-1.6c0.2-0.4,0.4-0.8,0.8-1s0.7-0.4,1.1-0.4c0.4,0,0.7,0.1,1,0.2c0.3,0.2,0.5,0.4,0.6,0.6s0.3,0.6,0.3,1
				s0.1,0.7,0.1,1.2c0,0.6-0.1,1.2-0.3,1.6s-0.4,0.8-0.7,1.1C99,186,98.6,186.1,98.2,186.1z M98.2,185.3c0.4,0,0.7-0.2,0.8-0.5
				c0.2-0.4,0.3-0.9,0.3-1.7c0-0.4,0-0.8-0.1-1.1c-0.1-0.3-0.2-0.6-0.4-0.8c-0.2-0.2-0.4-0.3-0.6-0.3c-0.4,0-0.7,0.2-0.9,0.5
				c-0.2,0.4-0.3,0.9-0.3,1.5c0,0.4,0,0.8,0.1,1.1c0.1,0.3,0.2,0.6,0.4,0.8S98,185.3,98.2,185.3z"/>
			<path class="st4" d="M101.4,187.6L101.4,187.6c0.1-0.2,0.2-0.3,0.3-0.5s0.1-0.4,0.1-0.6c0-0.1,0-0.2-0.1-0.3s-0.1-0.2-0.2-0.3
				c-0.1-0.1-0.1-0.1-0.2-0.1v-0.3l0.6-0.5c0.2,0.1,0.3,0.2,0.4,0.3c0.1,0.1,0.2,0.3,0.2,0.5c0,0.2,0.1,0.3,0.1,0.5
				c0,0.3,0,0.5-0.1,0.8s-0.2,0.4-0.4,0.6c-0.1,0.2-0.3,0.3-0.5,0.4L101.4,187.6z"/>
			<path class="st4" d="M104.2,186.1c-0.1,0-0.1,0-0.2,0c-0.1,0-0.2,0-0.2,0v-0.6c0,0,0.1,0,0.1,0c0,0,0.1,0,0.1,0
				c0.4,0,0.8-0.1,1.1-0.2c0.3-0.1,0.6-0.3,0.8-0.5c0.2-0.2,0.3-0.5,0.3-0.7c0-0.4-0.1-0.6-0.3-0.8s-0.5-0.2-0.9-0.2
				c-0.1,0-0.3,0-0.5,0.1c-0.2,0-0.4,0.1-0.5,0.1l-0.2-0.1l0.2-2.9h2.9l-0.1,0.8h-2.1l-0.1,1.5c0.2,0,0.3-0.1,0.5-0.1
				c0.1,0,0.3,0,0.4,0c0.5,0,1,0.1,1.2,0.4c0.3,0.3,0.4,0.7,0.4,1.2c0,0.3-0.1,0.5-0.2,0.8s-0.3,0.5-0.5,0.7
				c-0.2,0.2-0.5,0.4-0.9,0.5S104.7,186.1,104.2,186.1z"/>
			<path class="st4" d="M109.2,183.5c-0.3,0-0.5-0.1-0.7-0.2s-0.3-0.3-0.5-0.6c-0.1-0.2-0.2-0.5-0.2-0.8c0-0.4,0.1-0.7,0.2-0.9
				c0.1-0.2,0.3-0.4,0.5-0.6c0.2-0.1,0.5-0.2,0.7-0.2c0.3,0,0.6,0.1,0.8,0.2c0.2,0.1,0.3,0.3,0.4,0.6s0.1,0.5,0.1,0.8
				c0,0.4-0.1,0.7-0.2,0.9c-0.1,0.2-0.3,0.4-0.5,0.6C109.7,183.4,109.5,183.5,109.2,183.5z M109.3,182.9c0.2,0,0.4-0.1,0.5-0.3
				c0.1-0.2,0.2-0.4,0.2-0.7c0-0.3-0.1-0.6-0.2-0.8s-0.3-0.3-0.5-0.3c-0.2,0-0.4,0.1-0.5,0.3s-0.2,0.4-0.2,0.8
				c0,0.3,0.1,0.6,0.2,0.8C108.9,182.8,109.1,182.9,109.3,182.9z M109.7,186l2.4-6h0.7l-2.4,6H109.7z M113.2,185.9
				c-0.3,0-0.5-0.1-0.7-0.2c-0.2-0.1-0.3-0.3-0.5-0.6c-0.1-0.2-0.2-0.5-0.2-0.8c0-0.4,0.1-0.7,0.2-0.9c0.1-0.2,0.3-0.4,0.5-0.6
				c0.2-0.1,0.5-0.2,0.7-0.2c0.3,0,0.6,0.1,0.8,0.2s0.3,0.3,0.4,0.6c0.1,0.2,0.1,0.5,0.1,0.8c0,0.4-0.1,0.7-0.2,0.9
				c-0.1,0.2-0.3,0.4-0.5,0.6C113.7,185.8,113.5,185.9,113.2,185.9z M113.3,185.3c0.2,0,0.4-0.1,0.5-0.3s0.2-0.4,0.2-0.7
				c0-0.3-0.1-0.6-0.2-0.8s-0.3-0.3-0.5-0.3c-0.2,0-0.4,0.1-0.5,0.3c-0.1,0.2-0.2,0.4-0.2,0.8c0,0.3,0.1,0.6,0.2,0.8
				C112.9,185.2,113.1,185.3,113.3,185.3z"/>
		</g>
		<g>
			<rect x="186.3" y="117.3" class="st2" width="25" height="9.2"/>
			<path class="st4" d="M190.1,123.7l0-0.6c0.1,0,0.2,0,0.3,0c0.1,0,0.2,0,0.3,0c0.4,0,0.7,0,0.9-0.1c0.3-0.1,0.5-0.2,0.6-0.4
				c0.2-0.2,0.2-0.4,0.2-0.6c0-0.2,0-0.4-0.1-0.6c-0.1-0.2-0.2-0.3-0.4-0.4c-0.2-0.1-0.4-0.1-0.7-0.1l-0.4,0.1l-0.2-0.6
				c0.1,0,0.3-0.1,0.4-0.1c0.1,0,0.2-0.1,0.3-0.1c0.3-0.1,0.5-0.3,0.6-0.4c0.1-0.2,0.2-0.4,0.2-0.6c0-0.3-0.1-0.5-0.2-0.6
				c-0.2-0.1-0.4-0.2-0.6-0.2c-0.3,0-0.5,0-0.7,0.1c-0.2,0.1-0.3,0.2-0.5,0.3l-0.3-0.5c0.1-0.1,0.2-0.2,0.4-0.3
				c0.2-0.1,0.3-0.2,0.5-0.2c0.2-0.1,0.4-0.1,0.6-0.1c0.3,0,0.6,0.1,0.8,0.2s0.4,0.3,0.6,0.5c0.1,0.2,0.2,0.5,0.2,0.8
				c0,0.3-0.1,0.5-0.2,0.7c-0.1,0.2-0.3,0.4-0.5,0.5s-0.4,0.3-0.6,0.3v-0.1c0.3,0,0.6,0.1,0.9,0.2c0.2,0.1,0.4,0.3,0.5,0.5
				c0.1,0.2,0.2,0.5,0.2,0.7c0,0.3-0.1,0.6-0.3,0.9c-0.2,0.3-0.5,0.5-0.9,0.7c-0.4,0.2-0.8,0.3-1.3,0.3c-0.1,0-0.3,0-0.4,0
				S190.2,123.8,190.1,123.7z"/>
			<path class="st4" d="M194.3,125.3L194.3,125.3c0.1-0.2,0.2-0.3,0.3-0.5s0.1-0.4,0.1-0.6c0-0.1,0-0.2-0.1-0.3s-0.1-0.2-0.2-0.3
				c-0.1-0.1-0.1-0.1-0.2-0.1v-0.3l0.6-0.5c0.2,0.1,0.3,0.2,0.4,0.3c0.1,0.1,0.2,0.3,0.2,0.5c0,0.2,0.1,0.3,0.1,0.5
				c0,0.3,0,0.5-0.1,0.8s-0.2,0.4-0.4,0.6c-0.1,0.2-0.3,0.3-0.5,0.4L194.3,125.3z"/>
			<path class="st4" d="M196.6,123.8l-0.1-0.5c0.2-0.2,0.5-0.4,0.7-0.6s0.5-0.4,0.7-0.7c0.2-0.2,0.4-0.5,0.6-0.8
				c0.2-0.3,0.3-0.5,0.4-0.8c0.1-0.3,0.2-0.5,0.2-0.8c0-0.4-0.1-0.6-0.3-0.8c-0.2-0.2-0.4-0.3-0.7-0.3c-0.3,0-0.5,0.1-0.7,0.2
				s-0.4,0.2-0.5,0.4l-0.4-0.6c0.1-0.1,0.2-0.2,0.4-0.3s0.4-0.2,0.6-0.3c0.2-0.1,0.5-0.1,0.8-0.1c0.4,0,0.7,0.1,1,0.2
				c0.3,0.2,0.4,0.4,0.6,0.7c0.1,0.3,0.2,0.6,0.2,0.9c0,0.4-0.1,0.8-0.3,1.2s-0.4,0.8-0.8,1.2c-0.3,0.4-0.7,0.7-1.1,1l2.4,0v0.8
				H196.6z"/>
			<path class="st4" d="M202.3,121.2c-0.3,0-0.5-0.1-0.7-0.2c-0.2-0.1-0.3-0.3-0.5-0.6c-0.1-0.2-0.2-0.5-0.2-0.8
				c0-0.4,0.1-0.7,0.2-0.9c0.1-0.2,0.3-0.4,0.5-0.6c0.2-0.1,0.5-0.2,0.7-0.2c0.3,0,0.6,0.1,0.8,0.2c0.2,0.1,0.3,0.3,0.4,0.6
				s0.1,0.5,0.1,0.8c0,0.4-0.1,0.7-0.2,0.9s-0.3,0.4-0.5,0.6C202.8,121.1,202.6,121.2,202.3,121.2z M202.4,120.6
				c0.2,0,0.4-0.1,0.5-0.3c0.1-0.2,0.2-0.4,0.2-0.7c0-0.3-0.1-0.6-0.2-0.8s-0.3-0.3-0.5-0.3c-0.2,0-0.4,0.1-0.5,0.3
				c-0.1,0.2-0.2,0.4-0.2,0.8c0,0.3,0.1,0.6,0.2,0.8C202,120.5,202.2,120.6,202.4,120.6z M202.8,123.8l2.4-6h0.7l-2.4,6H202.8z
				 M206.4,123.6c-0.3,0-0.5-0.1-0.7-0.2c-0.2-0.1-0.3-0.3-0.5-0.6s-0.2-0.5-0.2-0.8c0-0.4,0.1-0.7,0.2-0.9c0.1-0.2,0.3-0.4,0.5-0.6
				c0.2-0.1,0.5-0.2,0.7-0.2c0.3,0,0.6,0.1,0.8,0.2s0.3,0.3,0.4,0.6c0.1,0.2,0.1,0.5,0.1,0.8c0,0.4-0.1,0.7-0.2,0.9
				c-0.1,0.2-0.3,0.4-0.5,0.6C206.8,123.5,206.6,123.6,206.4,123.6z M206.4,123c0.2,0,0.4-0.1,0.5-0.3s0.2-0.4,0.2-0.7
				c0-0.3-0.1-0.6-0.2-0.8c-0.1-0.2-0.3-0.3-0.5-0.3c-0.2,0-0.4,0.1-0.5,0.3c-0.1,0.2-0.2,0.4-0.2,0.8c0,0.3,0.1,0.6,0.2,0.8
				C206.1,122.9,206.2,123,206.4,123z"/>
		</g>
	</g>
</g>
<g id="Guia" class="st10">
	<g id="Cores" class="st11">
		<rect x="304.8" y="338" class="st12" width="37.7" height="18.4"/>
		<rect x="342.5" y="338" class="st13" width="48.5" height="18.4"/>
		<rect x="383.6" y="338" class="st14" width="48.5" height="18.4"/>
		<rect x="424.8" y="338" class="st8" width="48.5" height="18.4"/>
		<rect x="465.9" y="338" class="st9" width="48.5" height="18.4"/>
		<rect x="507.1" y="338" class="st15" width="48.5" height="18.4"/>
		<rect x="548.3" y="338" class="st16" width="48.5" height="18.4"/>
		<rect x="304.8" y="318.2" class="st17" width="41.8" height="17.4"/>
		<rect x="346.4" y="318.2" class="st18" width="41.8" height="17.4"/>
		<g>
			<rect x="388.2" y="318.2" class="st1" width="41.8" height="17.4"/>
		</g>
		<g>
			<rect x="429.9" y="318.2" class="st19" width="41.8" height="17.4"/>
		</g>
		<g class="st20">
			<rect x="471.5" y="318.2" class="st17" width="41.8" height="17.4"/>
		</g>
		<rect x="554.8" y="318.2" class="st21" width="41.8" height="17.4"/>
		<rect x="513.2" y="318.2" class="st22" width="41.6" height="17.4"/>
	</g>
</g>
</svg>
