<svg id="Camada_1" data-name="Camada 1" xmlns="http://www.w3.org/2000/svg" viewBox="0 0 292.82 432.92"><defs><style>.cls-1{fill:#efefef;opacity:0;}.cls-2{fill:#ff278f;}.cls-3{fill:#fff;}.cls-4{fill:#4c4c4c;}.cls-5{fill:none;stroke:#bcbcbc;stroke-miterlimit:10;stroke-width:0.5px;}.cls-6{fill:#ff36ce;}.cls-7{fill:#b9b9db;}.cls-8{fill:#ea2f89;}.cls-9{fill:#6960e3;}.cls-10{fill:#e89ee1;}.cls-11{fill:#ae4ef2;}.cls-12{fill:#e239ca;}</style></defs><title>info12</title><rect id="Fundo" class="cls-1" width="292.82" height="432.92"/><g id="Título"><path class="cls-2" d="M289.81,46.61H20.41A11.34,11.34,0,0,1,9.07,35.27v-8.2A19.84,19.84,0,0,1,28.91,7.23h260.9a2.83,2.83,0,0,1,2.83,2.83V43.77A2.84,2.84,0,0,1,289.81,46.61Z"/><path class="cls-3" d="M36,16.44v2.44l-.84.13-.63-1.72H33.23v6.32l1,.37-.11.85h-3.4L30.6,24l1-.37V17.29H30.34L29.71,19l-.85-.13V16.44Z"/><path class="cls-3" d="M44,23.6,45,24l-.13.85H41.43L41.3,24l.93-.38-.53-1.44H38.93l-.57,1.44,1.11.37-.12.86h-3L36.26,24l1-.38L40,16.44l1.29-.21Zm-3.36-5.78-1.33,3.4h2.08l-.75-2Z"/><path class="cls-3" d="M48.26,24l-.13.85H45.36L45.23,24l1-.37,2.17-2.68-2.17-3.25-1-.39.13-.85H49l.12.85-.86.39,1.09,1.54v.54L51,17.68l-.79-.39.12-.85h2.81l.11.85-1.06.39L50,20.37l2.16,3.24,1,.37-.13.85H49.51L49.38,24l.85-.37L49.17,22.1v-.6l-1.72,2.11Z"/><path class="cls-3" d="M61.24,23.6l1,.38-.13.85H58.71L58.57,24l.94-.38L59,22.16H56.2l-.57,1.44,1.12.37-.12.86h-3L53.54,24l1-.38,2.72-7.16,1.3-.21Zm-3.35-5.78-1.33,3.4h2.07l-.74-2Z"/><path class="cls-3" d="M65.76,24l1-.37V17.68l-1-.39.12-.85h3.51c3,0,4.32,1.81,4.32,4.13a4,4,0,0,1-4.35,4.26H65.88Zm2.62,0h1c1.74,0,2.55-1.62,2.55-3.43s-.81-3.26-2.55-3.26h-1Z"/><path class="cls-3" d="M77.09,20h1.23l.35-1,.86.12v2.65l-.85.12-.36-1H77.09v3h2.34l.63-1.8.84.12v2.53H74.6L74.49,24l1-.37V17.68l-1-.39.13-.85H80.7v2.13l-.85.13-.47-1.41H77.09Z"/><path class="cls-3" d="M91.85,16.44v2.44L91,19l-.63-1.72H89.11v6.32l1,.37-.12.85H86.6L86.48,24l1-.37V17.29H86.22L85.59,19l-.84-.13V16.44Z"/><path class="cls-3" d="M96.36,24l-.13.85H92.89L92.76,24l1-.37V17.68l-1-.39.14-.85H97c1.78,0,2.74.92,2.74,2.41a2.45,2.45,0,0,1-2.47,2.23l.78.41,1.19,2.12,1,.37-.13.85h-2.6l.12-.66-1.75-3.09v-.76h.76a1.49,1.49,0,0,0,1.48-1.47,1.45,1.45,0,0,0-1.58-1.56H95.38V23.6Z"/><path class="cls-3" d="M108.38,23.6l1,.38-.13.85h-3.45l-.13-.85.94-.38-.53-1.44h-2.78l-.57,1.44,1.12.37-.12.86h-3l-.13-.85,1-.38,2.72-7.16,1.29-.21ZM105,17.82l-1.33,3.4h2.07l-.74-2Z"/><path class="cls-3" d="M110.79,17.68l-1-.39.12-.85h2.46l3.33,5,.43,1.25v-5l-1-.39.12-.85h2.64l.12.85-1,.39v7.15l-1,.21-4.36-6.59v5.16l1,.37-.13.85h-2.62l-.13-.85,1-.38Z"/><path class="cls-3" d="M121.84,16.23a5,5,0,0,1,2.54.77v1.87l-.86.13L123,17.4a4.17,4.17,0,0,0-1.13-.16c-.87,0-1.4.4-1.4,1.07,0,.87,1.41,1.34,1.86,1.57,1.25.53,2.43,1.32,2.43,2.76s-1,2.4-3.13,2.4a4.66,4.66,0,0,1-2.62-.78v-2l.84-.12.61,1.57a2.92,2.92,0,0,0,1.09.27c1,0,1.73-.37,1.73-1,0-1-1.41-1.42-2.23-1.82s-2.07-1-2.07-2.68C119,17,120.32,16.23,121.84,16.23Z"/><path class="cls-3" d="M132.83,16.44v2.44L132,19l-.62-1.72h-1.27v6.32l1,.37-.11.85h-3.4l-.11-.85,1-.37V17.29h-1.26L126.57,19l-.85-.13V16.44Z"/><path class="cls-3" d="M142.18,20.63c0,2.47-1.25,4.41-4.08,4.41S134,22.84,134,20.63a4.14,4.14,0,0,1,4.09-4.4C140.74,16.23,142.18,18.16,142.18,20.63Zm-6.39-.06c0,2.27.77,3.46,2.31,3.46s2.32-1.25,2.32-3.46-.8-3.33-2.32-3.33S135.79,18.31,135.79,20.57Z"/><path class="cls-3" d="M146.93,24l-.13.85h-3.35l-.13-.85,1-.37V17.68l-1-.39.14-.85h4.09c1.78,0,2.74.92,2.74,2.41a2.45,2.45,0,0,1-2.47,2.23l.78.41,1.19,2.12,1,.37-.13.85h-2.6l.12-.66-1.75-3.09v-.76h.76a1.49,1.49,0,0,0,1.48-1.47,1.45,1.45,0,0,0-1.58-1.56h-1.16V23.6Z"/><path class="cls-3" d="M152.34,17.68l-1-.39.12-.85h2.47l3.33,5,.43,1.25v-5l-1-.39.12-.85h2.64l.12.85-1,.39v7.15l-1,.21-4.36-6.59v5.16l1,.37-.13.85h-2.62l-.13-.85,1-.38Z"/><path class="cls-3" d="M168.78,20.63c0,2.47-1.25,4.41-4.08,4.41s-4.09-2.2-4.09-4.41a4.15,4.15,0,0,1,4.09-4.4C167.34,16.23,168.78,18.16,168.78,20.63Zm-6.39-.06c0,2.27.77,3.46,2.31,3.46S167,22.78,167,20.57s-.8-3.33-2.32-3.33S162.39,18.31,162.39,20.57Z"/><path class="cls-3" d="M173,16.23a5,5,0,0,1,2.54.77v1.87l-.86.13-.55-1.6a4.17,4.17,0,0,0-1.13-.16c-.86,0-1.4.4-1.4,1.07,0,.87,1.41,1.34,1.86,1.57,1.25.53,2.43,1.32,2.43,2.76s-1,2.4-3.13,2.4a4.66,4.66,0,0,1-2.62-.78v-2l.84-.12.61,1.57a2.92,2.92,0,0,0,1.09.27c1,0,1.73-.37,1.73-1,0-1-1.41-1.42-2.23-1.82s-2.07-1-2.07-2.68C170.08,17,171.45,16.23,173,16.23Z"/><path class="cls-3" d="M187.23,23.6l1,.38-.13.85h-3.45l-.13-.85.94-.38L185,22.16h-2.77l-.57,1.44,1.12.37-.12.86h-3l-.13-.85,1-.38,2.73-7.16,1.29-.21Zm-3.36-5.78-1.32,3.4h2.07l-.75-2Z"/><path class="cls-3" d="M195.7,16.44v2.44l-.84.13-.63-1.72H193v6.32l1,.37-.12.85h-3.39l-.12-.85,1-.37V17.29h-1.26L189.44,19l-.84-.13V16.44Z"/><path class="cls-3" d="M200.21,24l-.13.85h-3.34l-.13-.85,1-.37V17.68l-1-.39.14-.85h4.09c1.78,0,2.74.92,2.74,2.41a2.45,2.45,0,0,1-2.47,2.23l.78.41,1.19,2.12,1,.37-.13.85h-2.6l.12-.66-1.75-3.09v-.76h.76A1.49,1.49,0,0,0,202,18.85a1.45,1.45,0,0,0-1.58-1.56h-1.16V23.6Z"/><path class="cls-3" d="M208.71,24l-.14.85H205.2l-.14-.85,1-.37V17.68l-1-.39.14-.85h3.37l.14.85-1,.39v5.93Z"/><path class="cls-3" d="M209.85,24l1-.37V17.68l-1-.39.13-.85h4.28a2.07,2.07,0,0,1,2.16,2,2,2,0,0,1-.9,1.68,2.42,2.42,0,0,1,1.67,2.29,2.49,2.49,0,0,1-2.75,2.41H210Zm4.25,0a1.53,1.53,0,0,0,1.31-1.68,1.58,1.58,0,0,0-1.57-1.62H213v-.93h.5a1.18,1.18,0,0,0,1.18-1.19,1.17,1.17,0,0,0-1.27-1.27h-.9V24Z"/><path class="cls-3" d="M218.76,21.25V17.68l-1-.39.12-.85h3.39l.12.85-1,.39v3.64c0,1.92.6,2.71,1.84,2.71s2-.9,2-2.69V17.68l-1-.39.15-.85H226l.12.85-1,.39v3.57c0,3.1-1.55,3.79-3.08,3.79S218.76,24.38,218.76,21.25Z"/><path class="cls-3" d="M230.66,24l-.15.85h-3.36L227,24l1-.37V17.68l-1-.39.15-.85h3.36l.15.85-1,.39v5.93Zm-2.5-8.56,1.47-1.87,1,.85-2.09,1.34Z"/><path class="cls-3" d="M231.79,24l1-.37V17.68l-1-.39.12-.85h3.51c3,0,4.31,1.81,4.31,4.13a4,4,0,0,1-4.35,4.26h-3.46Zm2.62,0h1c1.74,0,2.55-1.62,2.55-3.43s-.81-3.26-2.55-3.26h-1Z"/><path class="cls-3" d="M249,20.63c0,2.47-1.24,4.41-4.07,4.41s-4.09-2.2-4.09-4.41a4.14,4.14,0,0,1,4.09-4.4C247.52,16.23,249,18.16,249,20.63Zm-6.38-.06c0,2.27.77,3.46,2.31,3.46s2.32-1.25,2.32-3.46-.81-3.33-2.32-3.33S242.57,18.31,242.57,20.57Z"/><path class="cls-3" d="M253.15,16.23a5,5,0,0,1,2.53.77v1.87l-.85.13-.56-1.6a4.15,4.15,0,0,0-1.12-.16c-.87,0-1.4.4-1.4,1.07,0,.87,1.41,1.34,1.86,1.57,1.25.53,2.43,1.32,2.43,2.76s-1,2.4-3.13,2.4a4.64,4.64,0,0,1-2.62-.78v-2l.84-.12.61,1.57a2.92,2.92,0,0,0,1.09.27c1,0,1.73-.37,1.73-1,0-1-1.41-1.42-2.23-1.82s-2.08-1-2.08-2.68C250.25,17,251.63,16.23,253.15,16.23Z"/><path class="cls-3" d="M267.41,23.6l1,.38-.13.85h-3.45l-.13-.85.93-.38-.53-1.44h-2.77l-.57,1.44,1.11.37-.12.86h-3L259.7,24l1-.38,2.73-7.16,1.29-.21Zm-3.36-5.78-1.33,3.4h2.08l-.75-2Z"/><path class="cls-3" d="M277.06,20.63c0,2.47-1.24,4.41-4.07,4.41s-4.1-2.2-4.1-4.41a4.15,4.15,0,0,1,4.1-4.4C275.63,16.23,277.06,18.16,277.06,20.63Zm-6.39-.06c0,2.27.77,3.46,2.32,3.46s2.32-1.25,2.32-3.46-.81-3.33-2.32-3.33S270.67,18.31,270.67,20.57Z"/><path class="cls-3" d="M40.42,35.65V32.08l-1-.39.12-.85h3.39l.12.85-1,.39v3.64c0,1.92.59,2.71,1.84,2.71s2-.9,2-2.69V32.08l-1-.39.14-.85h2.66l.12.85-1,.39v3.57c0,3.1-1.55,3.79-3.08,3.79S40.42,38.78,40.42,35.65Z"/><path class="cls-3" d="M51.45,30.63A5,5,0,0,1,54,31.4v1.87l-.85.13-.56-1.6a4.15,4.15,0,0,0-1.12-.16c-.87,0-1.4.4-1.4,1.07,0,.87,1.41,1.34,1.86,1.57,1.24.53,2.43,1.32,2.43,2.76s-1,2.4-3.13,2.4a4.64,4.64,0,0,1-2.62-.78V36.71l.84-.12L50,38.16a2.92,2.92,0,0,0,1.09.27c1,0,1.73-.37,1.73-1,0-.95-1.41-1.42-2.23-1.82s-2.08-1-2.08-2.68C48.55,31.39,49.93,30.63,51.45,30.63Z"/><path class="cls-3" d="M63.74,35c0,2.47-1.25,4.41-4.08,4.41s-4.09-2.2-4.09-4.41a4.14,4.14,0,0,1,4.09-4.4C62.3,30.63,63.74,32.56,63.74,35ZM57.35,35c0,2.27.77,3.46,2.31,3.46S62,37.18,62,35s-.8-3.33-2.32-3.33S57.35,32.71,57.35,35Z"/><path class="cls-3" d="M67.83,38.38l1-.37V32.08l-1-.39.12-.85h3.51c3,0,4.31,1.81,4.31,4.13a4,4,0,0,1-4.35,4.26H68Zm2.62,0h1C73.19,38.38,74,36.76,74,35s-.81-3.26-2.55-3.26h-1Z"/><path class="cls-3" d="M79.16,34.43h1.22l.36-1,.85.12v2.65l-.84.12-.37-1H79.16v3H81.5l.63-1.8.84.12v2.53h-6.3l-.12-.85,1-.37V32.08l-1-.39.13-.85h6.11V33l-.86.13-.46-1.41H79.16Z"/><path class="cls-3" d="M94.23,38l1,.38-.13.85H91.69l-.13-.85L92.5,38,92,36.56H89.19L88.62,38l1.11.37-.12.86h-3l-.13-.85,1-.38,2.73-7.16,1.29-.21Zm-3.36-5.78-1.33,3.4h2.08l-.75-2Zm-.63-2.4L91.71,28l1,.85-2.08,1.34Z"/><path class="cls-3" d="M99.41,31.69l-1,.39v6.3h2.29l.65-1.8.84.12v2.53h-6.3l-.12-.85,1-.38V32.08l-1-.39.12-.85h3.39Z"/><path class="cls-3" d="M108.36,38.26l.61-1.67.84.12v1.95a5.32,5.32,0,0,1-2.81.78A4.1,4.1,0,0,1,102.66,35a4.2,4.2,0,0,1,4.34-4.4,5.31,5.31,0,0,1,2.81.77v1.87l-.86.13-.54-1.57a6,6,0,0,0-1.41-.19c-1.65,0-2.56,1.07-2.56,3.33,0,1.64.53,3.46,2.56,3.46A6.09,6.09,0,0,0,108.36,38.26Z"/><path class="cls-3" d="M118.87,35c0,2.47-1.24,4.41-4.07,4.41s-4.09-2.2-4.09-4.41a4.14,4.14,0,0,1,4.09-4.4C117.44,30.63,118.87,32.56,118.87,35ZM112.48,35c0,2.27.77,3.46,2.32,3.46s2.32-1.25,2.32-3.46-.81-3.33-2.32-3.33S112.48,32.71,112.48,35Z"/><path class="cls-3" d="M128.46,35c0,2.47-1.24,4.41-4.08,4.41s-4.09-2.2-4.09-4.41a4.15,4.15,0,0,1,4.09-4.4C127,30.63,128.46,32.56,128.46,35ZM122.07,35c0,2.27.77,3.46,2.31,3.46s2.33-1.25,2.33-3.46-.81-3.33-2.33-3.33S122.07,32.71,122.07,35Z"/><path class="cls-3" d="M133.22,31.69l-1,.39v6.3h2.29l.65-1.8.85.12v2.53h-6.3l-.12-.85,1-.38V32.08l-1-.39.12-.85h3.39Z"/><path class="cls-3" d="M142.12,34.43h1.22l.36-1,.85.12v2.65l-.84.12-.37-1h-1.22v3h2.34l.62-1.8.85.12v2.53h-6.3l-.12-.85,1-.37V32.08l-1-.39.13-.85h6.1V33l-.85.13-.46-1.41h-2.29Z"/><path class="cls-3" d="M147.62,32.08l-1-.39.12-.85h2.47l3.33,5,.42,1.25v-5l-1-.39.12-.85h2.64l.12.85-1,.39v7.15l-1,.21-4.36-6.59V38l1,.37-.13.85h-2.62l-.13-.85,1-.38Z"/><path class="cls-3" d="M162.75,30.84v2.44l-.84.13-.63-1.72H160V38l1,.37-.12.85H157.5l-.12-.85,1-.37V31.69h-1.26l-.63,1.72-.84-.13V30.84Z"/><path class="cls-3" d="M167.27,38.38l-.14.85h-3.34l-.13-.85,1-.37V32.08l-1-.39.14-.85h4.09c1.78,0,2.74.92,2.74,2.41a2.45,2.45,0,0,1-2.47,2.23l.79.41L170.11,38l1,.37-.13.85h-2.59l.11-.66-1.75-3.09v-.76h.76A1.49,1.49,0,0,0,169,33.25a1.45,1.45,0,0,0-1.58-1.56h-1.16V38Z"/><path class="cls-3" d="M174.45,34.43h1.22l.35-1,.86.12v2.65l-.85.12-.36-1h-1.22v3h2.33l.63-1.8.84.12v2.53H172l-.12-.85,1-.37V32.08l-1-.39.13-.85h6.11V33l-.85.13-.47-1.41h-2.28Z"/><path class="cls-3" d="M189.51,38l1,.38-.13.85H187l-.13-.85.94-.38-.53-1.44h-2.78L183.9,38l1.12.37-.12.86h-3l-.13-.85,1-.38,2.73-7.16,1.29-.21Zm-3.35-5.78-1.33,3.4h2.07l-.74-2Z"/><path class="cls-3" d="M194.13,30.63a5,5,0,0,1,2.54.77v1.87l-.86.13-.55-1.6a4.17,4.17,0,0,0-1.13-.16c-.87,0-1.4.4-1.4,1.07,0,.87,1.41,1.34,1.86,1.57,1.25.53,2.43,1.32,2.43,2.76s-1,2.4-3.13,2.4a4.66,4.66,0,0,1-2.62-.78V36.71l.84-.12.61,1.57a2.92,2.92,0,0,0,1.09.27c1,0,1.73-.37,1.73-1,0-.95-1.41-1.42-2.23-1.82s-2.07-1-2.07-2.68C191.24,31.39,192.61,30.63,194.13,30.63Z"/><path class="cls-3" d="M205.39,39.44l-2.08-5.75L202.78,38l1,.38-.12.85H201l-.14-.85,1-.38.69-5.92-1-.39.13-.85h2.38L206,36.08v1.2l2.35-6.44h2.44l.14.85-1,.39L210.5,38l1,.37-.12.85H208l-.12-.85,1-.37-.46-4.62-2.11,5.84Z"/><path class="cls-3" d="M213.29,35.65V32.08l-1-.39.12-.85h3.39l.12.85-1,.39v3.64c0,1.92.59,2.71,1.83,2.71s2-.9,2-2.69V32.08l-1-.39.14-.85h2.65l.12.85-1,.39v3.57c0,3.1-1.56,3.79-3.09,3.79S213.29,38.78,213.29,35.65Z"/><path class="cls-3" d="M224.88,31.69l-1,.39v6.3h2.29l.65-1.8.85.12v2.53h-6.3l-.12-.85,1-.38V32.08l-1-.39.12-.85h3.39Z"/><path class="cls-3" d="M236,38l1,.38-.13.85h-3.37l-.12-.85,1-.37V35.37h-3.51V38l1,.37-.12.85h-3.34l-.13-.85,1-.37V32.08l-1-.39.12-.85h3.39l.12.85-1,.39v2.37h3.51V32.08l-1-.39.12-.85h3.39l.12.85-1,.39Z"/><path class="cls-3" d="M240.53,34.43h1.23l.35-1,.85.12v2.65l-.84.12-.36-1h-1.23v3h2.34l.63-1.8.84.12v2.53H238l-.11-.85,1-.37V32.08l-1-.39.13-.85h6.11V33l-.86.13-.46-1.41h-2.29Z"/><path class="cls-3" d="M248.79,38.38l-.13.85h-3.34l-.13-.85,1-.37V32.08l-1-.39.14-.85h4.09c1.78,0,2.74.92,2.74,2.41a2.45,2.45,0,0,1-2.47,2.23l.78.41L251.64,38l1,.37-.13.85h-2.6l.12-.66-1.75-3.09v-.76h.76a1.49,1.49,0,0,0,1.48-1.47A1.45,1.45,0,0,0,249,31.69h-1.16V38Z"/><path class="cls-3" d="M256,34.43h1.23l.35-1,.86.12v2.65l-.85.12-.36-1H256v3h2.34l.63-1.8.84.12v2.53h-6.29l-.12-.85,1-.37V32.08l-1-.39.13-.85h6.11V33l-.85.13-.47-1.41H256Z"/><path class="cls-3" d="M263.68,30.63a5,5,0,0,1,2.53.77v1.87l-.85.13-.56-1.6a4.15,4.15,0,0,0-1.12-.16c-.87,0-1.4.4-1.4,1.07,0,.87,1.41,1.34,1.86,1.57,1.24.53,2.43,1.32,2.43,2.76s-1,2.4-3.13,2.4a4.64,4.64,0,0,1-2.62-.78V36.71l.84-.12.61,1.57a2.92,2.92,0,0,0,1.09.27c1,0,1.73-.37,1.73-1,0-.95-1.41-1.42-2.23-1.82s-2.08-1-2.08-2.68C260.78,31.39,262.16,30.63,263.68,30.63Z"/></g><g id="Info"><path class="cls-4" d="M125.32,80V73.6h.8v.55l.07.09V80Zm1.56-1.92a1.74,1.74,0,0,1-.65-.1,1.44,1.44,0,0,1-.34-.17l.3-.59a.69.69,0,0,0,.31.15,1.44,1.44,0,0,0,.44,0,.94.94,0,0,0,.58-.19,1.33,1.33,0,0,0,.42-.57,2.71,2.71,0,0,0,.16-.92,2,2,0,0,0-.27-1.16.88.88,0,0,0-.75-.36,1.08,1.08,0,0,0-.52.12,1.7,1.7,0,0,0-.37.23l-.13-.46.23-.24a1.59,1.59,0,0,1,.41-.25,1.56,1.56,0,0,1,.62-.11,1.53,1.53,0,0,1,.83.23,1.63,1.63,0,0,1,.61.7,2.74,2.74,0,0,1,.23,1.19,3,3,0,0,1-.26,1.28,2.15,2.15,0,0,1-.74.86A2,2,0,0,1,126.88,78.12Z"/><path class="cls-4" d="M129.91,78.06V73.61h.74l.06.57.07.34v3.54Zm.82-3.27,0-.61a.93.93,0,0,1,.24-.27,1.64,1.64,0,0,1,.43-.26,1.25,1.25,0,0,1,.5-.11h.25a.26.26,0,0,1,.15,0v.86l-.17-.07a1.64,1.64,0,0,0-.37,0,1.09,1.09,0,0,0-.42.07,1,1,0,0,0-.33.17A1.55,1.55,0,0,0,130.73,74.79Z"/><path class="cls-4" d="M134.56,78.12a1.68,1.68,0,0,1-1.39-.6,2.62,2.62,0,0,1-.49-1.69,3,3,0,0,1,.21-1.16,1.92,1.92,0,0,1,.64-.81,1.81,1.81,0,0,1,1.05-.31,1.51,1.51,0,0,1,.6.09,1.43,1.43,0,0,1,.49.32,1.51,1.51,0,0,1,.34.53,2.09,2.09,0,0,1,.14.75v.45a3.39,3.39,0,0,1,0,.35h-2.93l.08-.59h2.07a2,2,0,0,0,0-.6.92.92,0,0,0-.24-.47.69.69,0,0,0-.53-.18.82.82,0,0,0-.52.18,1.1,1.1,0,0,0-.37.58,3.62,3.62,0,0,0-.1,1.13,1.74,1.74,0,0,0,.19.8.94.94,0,0,0,.45.41,1.33,1.33,0,0,0,.61.13,1.63,1.63,0,0,0,.35,0l.4-.08a1.54,1.54,0,0,0,.3-.12l.17.53a1.35,1.35,0,0,1-.38.21,2.83,2.83,0,0,1-.52.14A2.62,2.62,0,0,1,134.56,78.12Z"/><path class="cls-4" d="M138.17,78.12l-1.66-4.52h.94l.8,2.48.42,1.5h-.22l.39-1.5.77-2.48h.92l-1.61,4.52Z"/><path class="cls-4" d="M142.25,78.12a1.44,1.44,0,0,1-.67-.15,1.17,1.17,0,0,1-.46-.45,1.29,1.29,0,0,1-.17-.69,1.14,1.14,0,0,1,.22-.72,1.42,1.42,0,0,1,.58-.47,4,4,0,0,1,.52-.17,3.72,3.72,0,0,1,.57-.08l.53,0,.18.24-.18.33L143,76l-.4.07a1.22,1.22,0,0,0-.34.12,1,1,0,0,0-.32.23.57.57,0,0,0-.13.4.7.7,0,0,0,.17.51.75.75,0,0,0,.53.17,1.63,1.63,0,0,0,.36,0,1.81,1.81,0,0,0,.31-.13.59.59,0,0,0,.18-.13l.17.2-.12.34a1.8,1.8,0,0,1-.48.3A1.58,1.58,0,0,1,142.25,78.12Zm2-.06h-.82V77.4h0V74.94a.59.59,0,0,0-.2-.52,1,1,0,0,0-.55-.12,2.09,2.09,0,0,0-.49,0,2.93,2.93,0,0,0-.47.12,1.38,1.38,0,0,0-.32.15l-.21-.66a2.27,2.27,0,0,1,.34-.16,3.33,3.33,0,0,1,.58-.18,2.41,2.41,0,0,1,.65-.08,2.5,2.5,0,0,1,.82.11.94.94,0,0,1,.53.43,1.74,1.74,0,0,1,.19.91Z"/><path class="cls-4" d="M145.5,78.06v-6.5h.88v6.5Z"/><path class="cls-4" d="M149.32,78.12a1.72,1.72,0,0,1-1.4-.6,2.62,2.62,0,0,1-.49-1.69,2.86,2.86,0,0,1,.22-1.16,1.84,1.84,0,0,1,.64-.81,1.76,1.76,0,0,1,1-.31,1.44,1.44,0,0,1,1.1.41,1.67,1.67,0,0,1,.34.53,2.33,2.33,0,0,1,.14.75c0,.16,0,.31,0,.45a1.9,1.9,0,0,1,0,.35h-2.93l.07-.59h2.08a2.36,2.36,0,0,0,0-.6.84.84,0,0,0-.23-.47.72.72,0,0,0-.53-.18.85.85,0,0,0-.53.18,1,1,0,0,0-.36.58,3.58,3.58,0,0,0-.11,1.13,1.74,1.74,0,0,0,.2.8,1,1,0,0,0,.44.41,1.38,1.38,0,0,0,.62.13,1.7,1.7,0,0,0,.35,0l.4-.08a1.54,1.54,0,0,0,.3-.12l.16.53a1.22,1.22,0,0,1-.38.21,2.63,2.63,0,0,1-.52.14A2.47,2.47,0,0,1,149.32,78.12Zm-1-5-.42-.24L149,71.49h.68l1,1.37-.46.23-.93-.86Z"/><path class="cls-4" d="M151.93,78.06V73.61h.78v.47l.39-.23a3.89,3.89,0,0,1,.51-.21,2.2,2.2,0,0,1,.55-.1,1.11,1.11,0,0,1,1,.37,2.34,2.34,0,0,1,.29,1.37v2.78h-.87V75.33a1.78,1.78,0,0,0-.14-.81c-.1-.16-.3-.23-.62-.21a1.17,1.17,0,0,0-.3,0,1.66,1.66,0,0,0-.35.13,1.86,1.86,0,0,0-.35.22v3.35Z"/><path class="cls-4" d="M156.35,75.88a3,3,0,0,1,.22-1.18,1.88,1.88,0,0,1,.68-.84,2,2,0,0,1,1.14-.31,2.65,2.65,0,0,1,.67.07,1.73,1.73,0,0,1,.38.15l-.14.73a.89.89,0,0,0-.38-.17,2.12,2.12,0,0,0-.54-.06,1.21,1.21,0,0,0-.55.14,1.18,1.18,0,0,0-.44.47,1.79,1.79,0,0,0-.2.84,2.34,2.34,0,0,0,.14.93,1.23,1.23,0,0,0,.42.58,1,1,0,0,0,.61.19,2.14,2.14,0,0,0,.58-.08,1.93,1.93,0,0,0,.4-.18l.16.54A1.26,1.26,0,0,1,159,78a2.27,2.27,0,0,1-.75.11,1.65,1.65,0,0,1-1-.29,2,2,0,0,1-.64-.8A3,3,0,0,1,156.35,75.88Z"/><path class="cls-4" d="M160.8,72.82a.55.55,0,0,1-.39-.14.53.53,0,0,1-.16-.41.59.59,0,0,1,.09-.32.64.64,0,0,1,.24-.22.53.53,0,0,1,.3-.09.49.49,0,0,1,.4.16.6.6,0,0,1,.14.39.63.63,0,0,1-.19.46A.65.65,0,0,1,160.8,72.82Zm-.39,5.24V73.61h.87v4.45Z"/><path class="cls-4" d="M163.61,78.12a1.44,1.44,0,0,1-.67-.15,1.17,1.17,0,0,1-.46-.45,1.29,1.29,0,0,1-.17-.69,1.14,1.14,0,0,1,.22-.72,1.36,1.36,0,0,1,.58-.47,4,4,0,0,1,.52-.17,3.72,3.72,0,0,1,.57-.08l.53,0,.18.24-.18.33-.36,0L164,76a1.22,1.22,0,0,0-.34.12,1.14,1.14,0,0,0-.33.23.62.62,0,0,0-.12.4.7.7,0,0,0,.17.51.75.75,0,0,0,.53.17,1.48,1.48,0,0,0,.35,0,1.63,1.63,0,0,0,.32-.13.59.59,0,0,0,.18-.13l.17.2-.13.34a1.53,1.53,0,0,1-.48.3A1.51,1.51,0,0,1,163.61,78.12Zm2-.06h-.83V77.4h0V74.94a.59.59,0,0,0-.2-.52,1,1,0,0,0-.55-.12,2.09,2.09,0,0,0-.49,0,2.93,2.93,0,0,0-.47.12,1.38,1.38,0,0,0-.32.15l-.21-.66a2.27,2.27,0,0,1,.34-.16,3.08,3.08,0,0,1,.58-.18,2.41,2.41,0,0,1,.65-.08,2.54,2.54,0,0,1,.82.11.94.94,0,0,1,.53.43,1.74,1.74,0,0,1,.19.91Z"/><path class="cls-4" d="M169.66,79.37a1.76,1.76,0,0,1-.3-.26,4.4,4.4,0,0,1-.43-.52,5,5,0,0,1-.44-.81,5.79,5.79,0,0,1-.36-1.11,6.86,6.86,0,0,1-.14-1.43,5.87,5.87,0,0,1,.48-2.31,4.79,4.79,0,0,1,.45-.82,4.24,4.24,0,0,1,.43-.56,1.28,1.28,0,0,1,.31-.27l.58.31a4.28,4.28,0,0,0-.33.35,4,4,0,0,0-.46.73,5.05,5.05,0,0,0-.43,1.09,6.47,6.47,0,0,0-.2,1.49,6.07,6.07,0,0,0,.09,1.25,6.75,6.75,0,0,0,.28,1,4.34,4.34,0,0,0,.38.75,4.15,4.15,0,0,0,.38.52,2.35,2.35,0,0,0,.29.28Z"/><path class="cls-4" d="M172.16,75.49a1.16,1.16,0,0,1-.72-.22,1.39,1.39,0,0,1-.45-.59,2.18,2.18,0,0,1-.16-.82A1.81,1.81,0,0,1,171,73a1.43,1.43,0,0,1,.53-.56,1.45,1.45,0,0,1,.7-.2,1.14,1.14,0,0,1,.76.21,1.26,1.26,0,0,1,.44.59,2.45,2.45,0,0,1,.13.83,1.87,1.87,0,0,1-.2.9,1.51,1.51,0,0,1-.53.56A1.49,1.49,0,0,1,172.16,75.49Zm.05-.61a.53.53,0,0,0,.48-.27,1.44,1.44,0,0,0,.16-.75,1.57,1.57,0,0,0-.16-.77.51.51,0,0,0-.46-.29.54.54,0,0,0-.48.28,1.44,1.44,0,0,0-.16.75,1.54,1.54,0,0,0,.16.75A.5.5,0,0,0,172.21,74.88Zm.46,3.18,2.36-6h.73l-2.35,6Zm3.51-.17a1.16,1.16,0,0,1-.72-.22,1.28,1.28,0,0,1-.45-.59,2.18,2.18,0,0,1-.16-.82,1.75,1.75,0,0,1,.21-.89,1.39,1.39,0,0,1,.53-.57,1.46,1.46,0,0,1,.71-.2,1.11,1.11,0,0,1,.75.21,1.26,1.26,0,0,1,.44.59,2.45,2.45,0,0,1,.13.83,1.76,1.76,0,0,1-.2.9,1.43,1.43,0,0,1-.53.56A1.46,1.46,0,0,1,176.18,77.89Zm.06-.61a.53.53,0,0,0,.47-.27,1.44,1.44,0,0,0,.16-.75,1.57,1.57,0,0,0-.16-.77.51.51,0,0,0-.46-.29.55.55,0,0,0-.48.28,1.44,1.44,0,0,0-.16.75,1.54,1.54,0,0,0,.16.75A.52.52,0,0,0,176.24,77.28Z"/><path class="cls-4" d="M178.8,71.18a2.08,2.08,0,0,1,.29.25,3.75,3.75,0,0,1,.43.53,4.56,4.56,0,0,1,.45.8,5.81,5.81,0,0,1,.35,1.11,6.3,6.3,0,0,1,.14,1.43,5.63,5.63,0,0,1-.13,1.27,6.16,6.16,0,0,1-.35,1.05,6.88,6.88,0,0,1-.44.82,5.07,5.07,0,0,1-.43.55,2,2,0,0,1-.31.28l-.58-.32a2,2,0,0,0,.32-.35,4.28,4.28,0,0,0,.47-.72,5.51,5.51,0,0,0,.42-1.1,5.89,5.89,0,0,0,.2-1.48,6.23,6.23,0,0,0-.09-1.26,5,5,0,0,0-.28-1,4.37,4.37,0,0,0-.37-.75,4.22,4.22,0,0,0-.38-.51l-.29-.29Z"/><path class="cls-4" d="M184.29,78.12a1.53,1.53,0,0,1-.83-.23,1.69,1.69,0,0,1-.61-.7,2.82,2.82,0,0,1-.23-1.2,3,3,0,0,1,.26-1.27,2.15,2.15,0,0,1,.74-.86,2,2,0,0,1,1.12-.31,1.78,1.78,0,0,1,.65.1,1.19,1.19,0,0,1,.34.16l-.31.59a.6.6,0,0,0-.3-.14,2,2,0,0,0-.45,0,1,1,0,0,0-.58.18,1.34,1.34,0,0,0-.41.56,2.3,2.3,0,0,0-.16.92,1.86,1.86,0,0,0,.26,1.15.86.86,0,0,0,.75.37,1.18,1.18,0,0,0,.53-.12,2.59,2.59,0,0,0,.36-.22l.14.45-.24.25a1.52,1.52,0,0,1-.4.25A1.48,1.48,0,0,1,184.29,78.12Zm1.17-.06v-.59l0,0V74.29l0,0,0-.88V71.56h.86v6.5Z"/><path class="cls-4" d="M189.12,78.12a1.8,1.8,0,0,1-.87-.19,1.62,1.62,0,0,1-.58-.52,2.37,2.37,0,0,1-.33-.76,4.46,4.46,0,0,1-.09-.91,2.66,2.66,0,0,1,.27-1.2,1.77,1.77,0,0,1,.69-.74,1.92,1.92,0,0,1,1-.25,1.72,1.72,0,0,1,1.1.33,2,2,0,0,1,.6.87,3.42,3.42,0,0,1,.17,1.17,2.74,2.74,0,0,1-.26,1.21,1.73,1.73,0,0,1-.7.74A1.92,1.92,0,0,1,189.12,78.12Zm0-.65a.82.82,0,0,0,.78-.41,2.16,2.16,0,0,0,.27-1.17,3.11,3.11,0,0,0-.11-.84,1.32,1.32,0,0,0-.33-.61.78.78,0,0,0-.58-.23.82.82,0,0,0-.77.39,2.15,2.15,0,0,0-.26,1.15,3.18,3.18,0,0,0,.11.85,1.56,1.56,0,0,0,.32.63A.75.75,0,0,0,189.14,77.47Z"/><path class="cls-4" d="M191.82,77.8l.12-.68a1,1,0,0,0,.23.11,3.11,3.11,0,0,0,.43.14,3,3,0,0,0,.52.07.93.93,0,0,0,.55-.14.42.42,0,0,0,.19-.38.43.43,0,0,0-.11-.3,1.31,1.31,0,0,0-.31-.23,4.67,4.67,0,0,0-.45-.23,3.4,3.4,0,0,1-.6-.36,1.45,1.45,0,0,1-.41-.45,1.22,1.22,0,0,1-.14-.63,1,1,0,0,1,.22-.65,1.16,1.16,0,0,1,.55-.39,2.13,2.13,0,0,1,.78-.13,2.84,2.84,0,0,1,.69.08,2.15,2.15,0,0,1,.4.15l-.13.7a1,1,0,0,0-.21-.12l-.33-.1a2.34,2.34,0,0,0-.38,0,1.14,1.14,0,0,0-.58.12.36.36,0,0,0-.2.33.47.47,0,0,0,.19.43,3.69,3.69,0,0,0,.46.29c.26.13.5.26.71.39a1.76,1.76,0,0,1,.49.44,1,1,0,0,1,.19.62,1.15,1.15,0,0,1-.41,1,1.69,1.69,0,0,1-1.1.32,3.48,3.48,0,0,1-.57,0,4.09,4.09,0,0,1-.48-.13A1.11,1.11,0,0,1,191.82,77.8Z"/><path class="cls-4" d="M198.23,78.12a1.29,1.29,0,0,1-.53-.1.7.7,0,0,1-.35-.35,1.73,1.73,0,0,1-.12-.72V74.28h-.55v-.49l.43-.14a.38.38,0,0,0,.21-.25c0-.06.05-.13.07-.21s.05-.18.08-.28.07-.2.1-.32h.52v1h1.18v.68h-1.18v2.18a4.26,4.26,0,0,0,0,.63.31.31,0,0,0,.14.25.55.55,0,0,0,.29.06l.25,0,.26-.07a.64.64,0,0,0,.2-.08l.14.53a1.7,1.7,0,0,1-.31.18,3.26,3.26,0,0,1-.41.14A1.85,1.85,0,0,1,198.23,78.12Z"/><path class="cls-4" d="M200.18,78.06V73.61h.74l.06.57.07.34v3.54Zm.82-3.27-.05-.61a.93.93,0,0,1,.24-.27,1.64,1.64,0,0,1,.43-.26,1.25,1.25,0,0,1,.5-.11h.25a.26.26,0,0,1,.15,0v.86l-.17-.07a1.64,1.64,0,0,0-.37,0,1.09,1.09,0,0,0-.42.07,1,1,0,0,0-.33.17A1.55,1.55,0,0,0,201,74.79Z"/><path class="cls-4" d="M204.15,78.12a1.41,1.41,0,0,1-.67-.15,1.27,1.27,0,0,1-.47-.45,1.38,1.38,0,0,1-.16-.69,1.2,1.2,0,0,1,.21-.72,1.45,1.45,0,0,1,.59-.47,3.52,3.52,0,0,1,.52-.17,3.72,3.72,0,0,1,.57-.08l.52,0,.19.24-.19.33-.35,0-.41.07a1.5,1.5,0,0,0-.34.12,1.24,1.24,0,0,0-.32.23.62.62,0,0,0-.13.4.66.66,0,0,0,.18.51.74.74,0,0,0,.52.17,1.49,1.49,0,0,0,.36,0,1.93,1.93,0,0,0,.32-.13.43.43,0,0,0,.17-.13l.18.2-.13.34a1.78,1.78,0,0,1-1.16.44Zm2-.06h-.83V77.4h-.05V74.94a.59.59,0,0,0-.19-.52,1.07,1.07,0,0,0-.55-.12,2,2,0,0,0-.49,0,2.93,2.93,0,0,0-.47.12,1.38,1.38,0,0,0-.32.15L203,74a2.27,2.27,0,0,1,.34-.16,3.2,3.2,0,0,1,.57-.18,2.48,2.48,0,0,1,.66-.08,2.54,2.54,0,0,1,.82.11,1,1,0,0,1,.53.43,1.84,1.84,0,0,1,.19.91Z"/><path class="cls-4" d="M207.37,78.06V73.61h.78v.47a3.1,3.1,0,0,1,.39-.23,3.89,3.89,0,0,1,.51-.21,2.05,2.05,0,0,1,.54-.1,1.12,1.12,0,0,1,1,.37,2.42,2.42,0,0,1,.29,1.37v2.78H210V75.33a1.65,1.65,0,0,0-.14-.81c-.09-.16-.3-.23-.61-.21a1.32,1.32,0,0,0-.31,0,1.89,1.89,0,0,0-.35.13,1.79,1.79,0,0,0-.34.22v3.35Z"/><path class="cls-4" d="M211.88,77.8l.12-.68a1.46,1.46,0,0,0,.24.11,2.72,2.72,0,0,0,.43.14,3,3,0,0,0,.52.07,1,1,0,0,0,.55-.14.42.42,0,0,0,.19-.38.48.48,0,0,0-.11-.3,1.31,1.31,0,0,0-.31-.23c-.14-.08-.29-.15-.46-.23a4.33,4.33,0,0,1-.6-.36,1.41,1.41,0,0,1-.4-.45,1.13,1.13,0,0,1-.14-.63,1,1,0,0,1,.21-.65,1.19,1.19,0,0,1,.56-.39,2.11,2.11,0,0,1,.77-.13,2.87,2.87,0,0,1,.7.08,1.74,1.74,0,0,1,.39.15l-.13.7a.64.64,0,0,0-.21-.12,2,2,0,0,0-.32-.1,2.43,2.43,0,0,0-.38,0,1.12,1.12,0,0,0-.58.12.39.39,0,0,0-.21.33.52.52,0,0,0,.19.43,3.86,3.86,0,0,0,.47.29c.26.13.49.26.7.39a1.81,1.81,0,0,1,.5.44,1.05,1.05,0,0,1,.18.62,1.14,1.14,0,0,1-.4,1,1.71,1.71,0,0,1-1.11.32,3.43,3.43,0,0,1-.56,0,3.8,3.8,0,0,1-.49-.13A1.28,1.28,0,0,1,211.88,77.8Z"/><path class="cls-4" d="M216.94,78.12a1.25,1.25,0,0,1-.53-.1.66.66,0,0,1-.35-.35,1.57,1.57,0,0,1-.13-.72V74.28h-.54v-.49l.43-.14a.41.41,0,0,0,.21-.25c0-.06,0-.13.07-.21l.08-.28.1-.32h.52v1H218v.68H216.8v2.18a3.21,3.21,0,0,0,0,.63.33.33,0,0,0,.13.25.61.61,0,0,0,.3.06l.24,0,.27-.07a.57.57,0,0,0,.19-.08l.15.53a1.7,1.7,0,0,1-.31.18,4.13,4.13,0,0,1-.42.14A1.73,1.73,0,0,1,216.94,78.12Z"/><path class="cls-4" d="M220.54,78.12a1.82,1.82,0,0,1-.88-.19,1.7,1.7,0,0,1-.58-.52,2.35,2.35,0,0,1-.32-.76,3.85,3.85,0,0,1-.1-.91,2.66,2.66,0,0,1,.27-1.2,1.73,1.73,0,0,1,.7-.74,1.91,1.91,0,0,1,1-.25,1.7,1.7,0,0,1,1.1.33,1.8,1.8,0,0,1,.6.87,3.68,3.68,0,0,1,.18,1.17,2.74,2.74,0,0,1-.27,1.21,1.77,1.77,0,0,1-.69.74A1.92,1.92,0,0,1,220.54,78.12Zm0-.65a.83.83,0,0,0,.78-.41,2.16,2.16,0,0,0,.26-1.17,3.12,3.12,0,0,0-.1-.84,1.32,1.32,0,0,0-.33-.61.8.8,0,0,0-.58-.23.82.82,0,0,0-.77.39,2.06,2.06,0,0,0-.27,1.15,3.18,3.18,0,0,0,.11.85,1.46,1.46,0,0,0,.33.63A.75.75,0,0,0,220.56,77.47Z"/><path class="cls-4" d="M223.41,78.06V73.61h.74l.06.57.07.34v3.54Zm.83-3.27-.06-.61a.93.93,0,0,1,.24-.27,1.64,1.64,0,0,1,.43-.26,1.25,1.25,0,0,1,.5-.11h.25a.26.26,0,0,1,.15,0v.86l-.17-.07a1.58,1.58,0,0,0-.37,0,1.09,1.09,0,0,0-.42.07,1.14,1.14,0,0,0-.33.17A1.08,1.08,0,0,0,224.24,74.79Z"/><path class="cls-4" d="M226.53,78.06V73.61h.78v.47a3.1,3.1,0,0,1,.39-.23,3.89,3.89,0,0,1,.51-.21,2.05,2.05,0,0,1,.55-.1,1.11,1.11,0,0,1,1,.37,2.42,2.42,0,0,1,.29,1.37v2.78h-.88V75.33a1.65,1.65,0,0,0-.14-.81c-.09-.16-.3-.23-.61-.21a1.32,1.32,0,0,0-.31,0,1.89,1.89,0,0,0-.35.13,1.79,1.79,0,0,0-.34.22v3.35Z"/><path class="cls-4" d="M232.88,78.12a1.82,1.82,0,0,1-.88-.19,1.62,1.62,0,0,1-.58-.52,2.15,2.15,0,0,1-.32-.76,3.85,3.85,0,0,1-.1-.91,2.66,2.66,0,0,1,.27-1.2,1.77,1.77,0,0,1,.69-.74,2,2,0,0,1,1-.25,1.7,1.7,0,0,1,1.1.33,1.8,1.8,0,0,1,.6.87,3.42,3.42,0,0,1,.17,1.17,2.61,2.61,0,0,1-.26,1.21,1.77,1.77,0,0,1-.69.74A1.92,1.92,0,0,1,232.88,78.12Zm0-.65a.84.84,0,0,0,.78-.41,2.25,2.25,0,0,0,.26-1.17,2.76,2.76,0,0,0-.11-.84,1.32,1.32,0,0,0-.33-.61.78.78,0,0,0-.57-.23.85.85,0,0,0-.78.39,2.15,2.15,0,0,0-.26,1.15,3.18,3.18,0,0,0,.11.85,1.46,1.46,0,0,0,.33.63A.75.75,0,0,0,232.9,77.47Z"/><path class="cls-4" d="M235.57,77.8l.12-.68a1.46,1.46,0,0,0,.24.11,2.72,2.72,0,0,0,.43.14,2.84,2.84,0,0,0,.52.07,1,1,0,0,0,.55-.14.45.45,0,0,0,.19-.38.44.44,0,0,0-.12-.3,1.14,1.14,0,0,0-.31-.23,4.67,4.67,0,0,0-.45-.23,3.4,3.4,0,0,1-.6-.36,1.58,1.58,0,0,1-.41-.45,1.33,1.33,0,0,1-.14-.63,1.06,1.06,0,0,1,.22-.65,1.14,1.14,0,0,1,.56-.39,2.11,2.11,0,0,1,.77-.13,2.87,2.87,0,0,1,.7.08,2,2,0,0,1,.39.15l-.13.7a.78.78,0,0,0-.21-.12,1.87,1.87,0,0,0-.33-.1,2.31,2.31,0,0,0-.37,0,1.18,1.18,0,0,0-.59.12.38.38,0,0,0-.2.33.49.49,0,0,0,.19.43,3.86,3.86,0,0,0,.47.29c.26.13.49.26.7.39a2,2,0,0,1,.5.44,1.05,1.05,0,0,1,.18.62,1.14,1.14,0,0,1-.4,1,1.71,1.71,0,0,1-1.11.32,3.64,3.64,0,0,1-.57,0,4.09,4.09,0,0,1-.48-.13A1.28,1.28,0,0,1,235.57,77.8Z"/><path class="cls-4" d="M240.77,80V73.6h.8v.55l.07.09V80Zm1.56-1.92a1.74,1.74,0,0,1-.65-.1,1.44,1.44,0,0,1-.34-.17l.3-.59a.69.69,0,0,0,.31.15,1.44,1.44,0,0,0,.44,0,.94.94,0,0,0,.58-.19,1.33,1.33,0,0,0,.42-.57,2.71,2.71,0,0,0,.16-.92,2,2,0,0,0-.27-1.16.87.87,0,0,0-.75-.36,1.08,1.08,0,0,0-.52.12,2,2,0,0,0-.37.23l-.13-.46c.06-.06.13-.14.24-.24a1.37,1.37,0,0,1,.4-.25,1.56,1.56,0,0,1,.62-.11,1.51,1.51,0,0,1,.83.23,1.63,1.63,0,0,1,.61.7,2.74,2.74,0,0,1,.23,1.19,3,3,0,0,1-.26,1.28,2.08,2.08,0,0,1-.74.86A2,2,0,0,1,242.33,78.12Z"/><path class="cls-4" d="M247,78.12a1.8,1.8,0,0,1-.87-.19,1.62,1.62,0,0,1-.58-.52,2.37,2.37,0,0,1-.33-.76,4.46,4.46,0,0,1-.09-.91,2.66,2.66,0,0,1,.27-1.2,1.77,1.77,0,0,1,.69-.74,1.92,1.92,0,0,1,1-.25,1.72,1.72,0,0,1,1.1.33,1.85,1.85,0,0,1,.59.87,3.19,3.19,0,0,1,.18,1.17,2.89,2.89,0,0,1-.26,1.21,1.79,1.79,0,0,1-.7.74A1.92,1.92,0,0,1,247,78.12Zm0-.65a.82.82,0,0,0,.78-.41,2.16,2.16,0,0,0,.27-1.17,3.11,3.11,0,0,0-.11-.84,1.32,1.32,0,0,0-.33-.61.78.78,0,0,0-.58-.23.82.82,0,0,0-.77.39,2.15,2.15,0,0,0-.26,1.15,3.18,3.18,0,0,0,.11.85,1.56,1.56,0,0,0,.32.63A.75.75,0,0,0,247,77.47Z"/><path class="cls-4" d="M249.89,78.06V73.61h.74l.06.57.07.34v3.54Zm.82-3.27-.05-.61a.8.8,0,0,1,.24-.27,1.75,1.75,0,0,1,.42-.26,1.34,1.34,0,0,1,.51-.11h.25a.26.26,0,0,1,.15,0v.86l-.17-.07a1.64,1.64,0,0,0-.37,0,1.18,1.18,0,0,0-.43.07,1.09,1.09,0,0,0-.32.17A1.16,1.16,0,0,0,250.71,74.79Z"/><path class="cls-4" d="M255.55,78.12a1.43,1.43,0,0,1-.67-.13.84.84,0,0,1-.38-.39,1.75,1.75,0,0,1-.18-.61,4.65,4.65,0,0,1,0-.78V73.6h.87v2.6a2.49,2.49,0,0,0,.08.78.46.46,0,0,0,.24.32,1,1,0,0,0,.43.07,1,1,0,0,0,.33-.05l.33-.12a1.29,1.29,0,0,0,.24-.13V73.6h.87v4.52h-.4a.52.52,0,0,1-.27-.05.29.29,0,0,1-.11-.27v-.32l0,.18a3,3,0,0,1-.4.23,3.39,3.39,0,0,1-.48.17A2,2,0,0,1,255.55,78.12Z"/><path class="cls-4" d="M258.7,77.8l.12-.68a1.46,1.46,0,0,0,.24.11,2.72,2.72,0,0,0,.43.14,3,3,0,0,0,.52.07.93.93,0,0,0,.55-.14.42.42,0,0,0,.19-.38.48.48,0,0,0-.11-.3,1.31,1.31,0,0,0-.31-.23c-.14-.08-.29-.15-.46-.23a4.33,4.33,0,0,1-.6-.36,1.55,1.55,0,0,1-.4-.45,1.13,1.13,0,0,1-.14-.63,1,1,0,0,1,.21-.65,1.19,1.19,0,0,1,.56-.39,2.13,2.13,0,0,1,.78-.13,2.84,2.84,0,0,1,.69.08,1.74,1.74,0,0,1,.39.15l-.12.7a1,1,0,0,0-.21-.12l-.33-.1a2.43,2.43,0,0,0-.38,0,1.12,1.12,0,0,0-.58.12.39.39,0,0,0-.21.33.5.5,0,0,0,.2.43,3.69,3.69,0,0,0,.46.29c.26.13.5.26.71.39a1.92,1.92,0,0,1,.49.44,1.05,1.05,0,0,1,.18.62,1.14,1.14,0,0,1-.4,1,1.71,1.71,0,0,1-1.11.32,3.43,3.43,0,0,1-.56,0A4.09,4.09,0,0,1,259,78,1.38,1.38,0,0,1,258.7,77.8Z"/><path class="cls-4" d="M264.16,78.12a1.8,1.8,0,0,1-.87-.19,1.62,1.62,0,0,1-.58-.52,2.15,2.15,0,0,1-.32-.76,3.85,3.85,0,0,1-.1-.91,2.66,2.66,0,0,1,.27-1.2,1.77,1.77,0,0,1,.69-.74,1.92,1.92,0,0,1,1-.25,1.72,1.72,0,0,1,1.1.33,2,2,0,0,1,.6.87,3.42,3.42,0,0,1,.17,1.17,2.74,2.74,0,0,1-.26,1.21,1.73,1.73,0,0,1-.7.74A1.92,1.92,0,0,1,264.16,78.12Zm0-.65a.84.84,0,0,0,.78-.41,2.25,2.25,0,0,0,.26-1.17,3.11,3.11,0,0,0-.11-.84,1.32,1.32,0,0,0-.33-.61.78.78,0,0,0-.57-.23.83.83,0,0,0-.78.39,2.15,2.15,0,0,0-.26,1.15,3.18,3.18,0,0,0,.11.85,1.56,1.56,0,0,0,.32.63A.75.75,0,0,0,264.19,77.47Z"/><path class="cls-4" d="M269.84,78.12a1.47,1.47,0,0,1-.82-.23,1.64,1.64,0,0,1-.62-.7,2.82,2.82,0,0,1-.23-1.2,2.86,2.86,0,0,1,.27-1.27,2.06,2.06,0,0,1,.73-.86,2,2,0,0,1,1.12-.31,1.78,1.78,0,0,1,.65.1,1.19,1.19,0,0,1,.34.16l-.31.59a.6.6,0,0,0-.3-.14,2,2,0,0,0-.45,0,1,1,0,0,0-.58.18,1.34,1.34,0,0,0-.41.56,2.49,2.49,0,0,0-.16.92,1.86,1.86,0,0,0,.26,1.15.87.87,0,0,0,.75.37,1.15,1.15,0,0,0,.53-.12,2.59,2.59,0,0,0,.36-.22l.14.45-.24.25a1.52,1.52,0,0,1-.4.25A1.48,1.48,0,0,1,269.84,78.12Zm1.17-.06v-.59l0,0V74.29l0,0,0-.88V71.56h.87v6.5Z"/><path class="cls-4" d="M274.71,78.12a1.7,1.7,0,0,1-1.4-.6,2.62,2.62,0,0,1-.49-1.69,3,3,0,0,1,.21-1.16,1.86,1.86,0,0,1,.65-.81,1.76,1.76,0,0,1,1-.31,1.51,1.51,0,0,1,.6.09,1.43,1.43,0,0,1,.49.32,1.53,1.53,0,0,1,.35.53,2.1,2.1,0,0,1,.13.75v.45a1.9,1.9,0,0,1,0,.35h-2.94l.08-.59h2.08a2.36,2.36,0,0,0,0-.6.84.84,0,0,0-.23-.47.72.72,0,0,0-.53-.18.83.83,0,0,0-.53.18,1.1,1.1,0,0,0-.37.58,3.62,3.62,0,0,0-.1,1.13,1.74,1.74,0,0,0,.19.8,1,1,0,0,0,.45.41,1.36,1.36,0,0,0,.61.13,1.56,1.56,0,0,0,.35,0l.41-.08a1.41,1.41,0,0,0,.29-.12l.17.53a1.22,1.22,0,0,1-.38.21,2.63,2.63,0,0,1-.52.14A2.59,2.59,0,0,1,274.71,78.12Z"/><path class="cls-4" d="M126.36,87.72a1.44,1.44,0,0,1-.67-.15,1.17,1.17,0,0,1-.46-.45,1.36,1.36,0,0,1-.17-.69,1.14,1.14,0,0,1,.22-.72,1.42,1.42,0,0,1,.58-.47,4,4,0,0,1,.52-.17A3.72,3.72,0,0,1,127,85l.53,0,.18.24-.18.33-.36,0-.4.07a1.22,1.22,0,0,0-.34.12,1,1,0,0,0-.32.23.57.57,0,0,0-.13.4.7.7,0,0,0,.17.51.77.77,0,0,0,.53.17,1.56,1.56,0,0,0,.36,0,1.81,1.81,0,0,0,.31-.13.59.59,0,0,0,.18-.13l.17.2-.12.34a1.53,1.53,0,0,1-.48.3A1.58,1.58,0,0,1,126.36,87.72Zm2-.06h-.82V87h0V84.54a.59.59,0,0,0-.2-.52,1,1,0,0,0-.55-.12,2.09,2.09,0,0,0-.49,0,2.93,2.93,0,0,0-.47.12,1.38,1.38,0,0,0-.32.15l-.21-.66a2.27,2.27,0,0,1,.34-.16,3.33,3.33,0,0,1,.58-.18,2.46,2.46,0,0,1,.65-.08,2.81,2.81,0,0,1,.82.11.94.94,0,0,1,.53.43,1.76,1.76,0,0,1,.19.91Zm-1.8-5-.4-.35c.15-.16.29-.33.44-.51l.43-.56q.21-.28.39-.57l.56.5a2.8,2.8,0,0,1-.19.28l-.31.36c-.12.13-.23.26-.36.38l-.33.31A1,1,0,0,1,126.55,82.63Z"/><path class="cls-4" d="M129.62,87.66v-6.5h.87v6.5Z"/><path class="cls-4" d="M131.47,85.48a3,3,0,0,1,.23-1.18,1.88,1.88,0,0,1,.68-.84,1.93,1.93,0,0,1,1.13-.31,2.68,2.68,0,0,1,.68.07,1.42,1.42,0,0,1,.37.15l-.13.73a1.1,1.1,0,0,0-.38-.17,2.12,2.12,0,0,0-.54-.06A1.18,1.18,0,0,0,133,84a1.12,1.12,0,0,0-.44.47,1.79,1.79,0,0,0-.2.84,2.34,2.34,0,0,0,.14.93,1.23,1.23,0,0,0,.42.58,1,1,0,0,0,.6.19,2.08,2.08,0,0,0,.58-.08,1.82,1.82,0,0,0,.41-.18l.16.54a1.4,1.4,0,0,1-.54.31,2.35,2.35,0,0,1-.75.11,1.7,1.7,0,0,1-1-.29,2,2,0,0,1-.63-.8A3,3,0,0,1,131.47,85.48Z"/><path class="cls-4" d="M137.08,87.72a1.8,1.8,0,0,1-.87-.19,1.62,1.62,0,0,1-.58-.52,2.15,2.15,0,0,1-.32-.76,3.85,3.85,0,0,1-.1-.91,2.66,2.66,0,0,1,.27-1.2,1.77,1.77,0,0,1,.69-.74,1.94,1.94,0,0,1,1-.25,1.72,1.72,0,0,1,1.1.33,1.8,1.8,0,0,1,.6.87,3.42,3.42,0,0,1,.17,1.17,2.61,2.61,0,0,1-.26,1.21,1.77,1.77,0,0,1-.69.74A2,2,0,0,1,137.08,87.72Zm0-.65a.84.84,0,0,0,.78-.41,2.25,2.25,0,0,0,.26-1.17,3.11,3.11,0,0,0-.11-.84,1.32,1.32,0,0,0-.33-.61.78.78,0,0,0-.57-.23.84.84,0,0,0-.78.39,2.15,2.15,0,0,0-.26,1.15,3.18,3.18,0,0,0,.11.85,1.46,1.46,0,0,0,.33.63A.72.72,0,0,0,137.11,87.07Z"/><path class="cls-4" d="M141.53,87.72a1.8,1.8,0,0,1-.87-.19,1.62,1.62,0,0,1-.58-.52,2.15,2.15,0,0,1-.32-.76,3.85,3.85,0,0,1-.1-.91,2.66,2.66,0,0,1,.27-1.2,1.77,1.77,0,0,1,.69-.74,1.94,1.94,0,0,1,1-.25,1.72,1.72,0,0,1,1.1.33,1.8,1.8,0,0,1,.6.87,3.42,3.42,0,0,1,.17,1.17,2.61,2.61,0,0,1-.26,1.21,1.77,1.77,0,0,1-.69.74A2,2,0,0,1,141.53,87.72Zm0-.65a.84.84,0,0,0,.78-.41,2.25,2.25,0,0,0,.26-1.17,3.11,3.11,0,0,0-.11-.84,1.32,1.32,0,0,0-.33-.61.78.78,0,0,0-.57-.23.84.84,0,0,0-.78.39,2.15,2.15,0,0,0-.26,1.15,3.18,3.18,0,0,0,.11.85,1.46,1.46,0,0,0,.33.63A.72.72,0,0,0,141.56,87.07Z"/><path class="cls-4" d="M144.51,87.66v-6.5h.88v6.5Z"/><path class="cls-4" d="M146.65,89.25v-.09a.9.9,0,0,0,.33-.4,1.32,1.32,0,0,0,.13-.6,1.07,1.07,0,0,0-.06-.35,1.31,1.31,0,0,0-.17-.31.36.36,0,0,0-.22-.14V87.1l.57-.52a1,1,0,0,1,.41.32,1.56,1.56,0,0,1,.22.47,1.69,1.69,0,0,1,.07.48,2.26,2.26,0,0,1-.14.79,2,2,0,0,1-.36.62,1.27,1.27,0,0,1-.49.36Z"/><path class="cls-4" d="M150.32,89.64V83.2h.8v.55l.07.09v5.8Zm1.56-1.92a1.74,1.74,0,0,1-.65-.1,1.44,1.44,0,0,1-.34-.17l.3-.59a.69.69,0,0,0,.31.15,1.44,1.44,0,0,0,.44,0,.94.94,0,0,0,.58-.19,1.33,1.33,0,0,0,.42-.57,2.71,2.71,0,0,0,.16-.92,2,2,0,0,0-.27-1.16.87.87,0,0,0-.75-.36,1.08,1.08,0,0,0-.52.12,2,2,0,0,0-.37.23l-.13-.46a2.65,2.65,0,0,1,.24-.24,1.37,1.37,0,0,1,.4-.25,1.56,1.56,0,0,1,.62-.11,1.51,1.51,0,0,1,.83.23,1.63,1.63,0,0,1,.61.7,2.74,2.74,0,0,1,.23,1.19,3,3,0,0,1-.26,1.28,2.08,2.08,0,0,1-.74.86A2,2,0,0,1,151.88,87.72Z"/><path class="cls-4" d="M156.56,87.72a1.8,1.8,0,0,1-.87-.19,1.62,1.62,0,0,1-.58-.52,2.37,2.37,0,0,1-.33-.76,4.46,4.46,0,0,1-.09-.91,2.53,2.53,0,0,1,.27-1.2,1.77,1.77,0,0,1,.69-.74,1.92,1.92,0,0,1,1-.25,1.72,1.72,0,0,1,1.1.33,1.85,1.85,0,0,1,.59.87,3.19,3.19,0,0,1,.18,1.17,2.74,2.74,0,0,1-.27,1.21,1.77,1.77,0,0,1-.69.74A1.92,1.92,0,0,1,156.56,87.72Zm0-.65a.82.82,0,0,0,.78-.41,2.16,2.16,0,0,0,.27-1.17,3.11,3.11,0,0,0-.11-.84,1.32,1.32,0,0,0-.33-.61.78.78,0,0,0-.58-.23.82.82,0,0,0-.77.39,2.15,2.15,0,0,0-.26,1.15,2.82,2.82,0,0,0,.11.85,1.44,1.44,0,0,0,.32.63A.75.75,0,0,0,156.58,87.07Z"/><path class="cls-4" d="M159.44,87.66V83.21h.74l.06.57.07.34v3.54Zm.82-3.27,0-.61a.7.7,0,0,1,.24-.27,1.75,1.75,0,0,1,.42-.26,1.34,1.34,0,0,1,.51-.11h.25a.37.37,0,0,1,.15,0v.86l-.17-.07a1.64,1.64,0,0,0-.37,0,1.18,1.18,0,0,0-.43.07,1.09,1.09,0,0,0-.32.17A1.16,1.16,0,0,0,160.26,84.39Z"/><path class="cls-4" d="M163.66,87.4l.12-.68a1.46,1.46,0,0,0,.24.11,2.72,2.72,0,0,0,.43.14A2.84,2.84,0,0,0,165,87a1,1,0,0,0,.55-.14.45.45,0,0,0,.19-.38.44.44,0,0,0-.12-.3,1.14,1.14,0,0,0-.31-.23,4.67,4.67,0,0,0-.45-.23,3.4,3.4,0,0,1-.6-.36,1.58,1.58,0,0,1-.41-.45,1.33,1.33,0,0,1-.14-.63,1.06,1.06,0,0,1,.22-.65,1.19,1.19,0,0,1,.56-.39,2.11,2.11,0,0,1,.77-.13,2.87,2.87,0,0,1,.7.08,1.74,1.74,0,0,1,.39.15l-.13.7A.64.64,0,0,0,166,84a2,2,0,0,0-.32-.1,2.43,2.43,0,0,0-.38,0,1.12,1.12,0,0,0-.58.12.37.37,0,0,0-.21.33.49.49,0,0,0,.19.43,3.86,3.86,0,0,0,.47.29c.26.13.49.26.7.39a1.81,1.81,0,0,1,.5.44,1.05,1.05,0,0,1,.18.62,1.14,1.14,0,0,1-.4,1,1.71,1.71,0,0,1-1.11.32,3.64,3.64,0,0,1-.57,0,4.09,4.09,0,0,1-.48-.13A1.28,1.28,0,0,1,163.66,87.4Z"/><path class="cls-4" d="M169.15,87.72a1.72,1.72,0,0,1-1.4-.6,2.68,2.68,0,0,1-.49-1.69,3,3,0,0,1,.22-1.16,1.92,1.92,0,0,1,.64-.81,1.79,1.79,0,0,1,1-.31,1.62,1.62,0,0,1,.59.09,1.38,1.38,0,0,1,.5.32,1.51,1.51,0,0,1,.34.53,2.09,2.09,0,0,1,.14.75v.45a3.39,3.39,0,0,1,0,.35h-2.93l.08-.59h2.07a2.37,2.37,0,0,0,0-.6.92.92,0,0,0-.24-.47.71.71,0,0,0-.53-.18.87.87,0,0,0-.53.18,1.16,1.16,0,0,0-.36.58,3.94,3.94,0,0,0-.11,1.13,1.74,1.74,0,0,0,.2.8,1,1,0,0,0,.44.41,1.41,1.41,0,0,0,.62.13,1.63,1.63,0,0,0,.35,0l.4-.08a1.54,1.54,0,0,0,.3-.12l.17.53a1.35,1.35,0,0,1-.38.21,2.83,2.83,0,0,1-.52.14A2.62,2.62,0,0,1,169.15,87.72Z"/><path class="cls-4" d="M171.12,87.66l1.57-2.38v.26l-1.59-2.34h1l.88,1.43.26.45H173l.22-.46.89-1.42h1l-1.6,2.33v-.29l1.63,2.42h-1l-.89-1.44-.31-.53h.33l-.25.54-.83,1.43Z"/><path class="cls-4" d="M177.29,87.72a1.8,1.8,0,0,1-.87-.19,1.62,1.62,0,0,1-.58-.52,2.15,2.15,0,0,1-.32-.76,3.85,3.85,0,0,1-.1-.91,2.66,2.66,0,0,1,.27-1.2,1.77,1.77,0,0,1,.69-.74,1.94,1.94,0,0,1,1-.25,1.7,1.7,0,0,1,1.1.33,1.8,1.8,0,0,1,.6.87,3.42,3.42,0,0,1,.17,1.17,2.61,2.61,0,0,1-.26,1.21,1.77,1.77,0,0,1-.69.74A2,2,0,0,1,177.29,87.72Zm0-.65a.84.84,0,0,0,.78-.41,2.25,2.25,0,0,0,.26-1.17,3.11,3.11,0,0,0-.11-.84,1.32,1.32,0,0,0-.33-.61.78.78,0,0,0-.57-.23.84.84,0,0,0-.78.39,2.15,2.15,0,0,0-.26,1.15,3.18,3.18,0,0,0,.11.85,1.46,1.46,0,0,0,.33.63A.72.72,0,0,0,177.32,87.07Z"/><path class="cls-4" d="M180,89.25v-.09a.9.9,0,0,0,.33-.4,1.33,1.33,0,0,0,.14-.6,1.09,1.09,0,0,0-.07-.35,1,1,0,0,0-.17-.31.37.37,0,0,0-.21-.14V87.1l.56-.52a.94.94,0,0,1,.41.32,1.35,1.35,0,0,1,.22.47,1.69,1.69,0,0,1,.07.48,2.26,2.26,0,0,1-.13.79,2,2,0,0,1-.36.62,1.3,1.3,0,0,1-.5.36Z"/><path class="cls-4" d="M183.7,89.64V83.2h.79v.55l.08.09v5.8Zm1.55-1.92a1.74,1.74,0,0,1-.65-.1,1.7,1.7,0,0,1-.34-.17l.31-.59a.71.71,0,0,0,.3.15,1.44,1.44,0,0,0,.44,0,1,1,0,0,0,.59-.19,1.31,1.31,0,0,0,.41-.57,2.49,2.49,0,0,0,.16-.92,1.9,1.9,0,0,0-.26-1.16.89.89,0,0,0-.76-.36,1.11,1.11,0,0,0-.52.12,1.87,1.87,0,0,0-.36.23l-.14-.46.24-.24a1.37,1.37,0,0,1,.4-.25,1.62,1.62,0,0,1,.63-.11,1.5,1.5,0,0,1,.82.23,1.57,1.57,0,0,1,.61.7,2.74,2.74,0,0,1,.23,1.19,3,3,0,0,1-.26,1.28,2.08,2.08,0,0,1-.74.86A1.93,1.93,0,0,1,185.25,87.72Z"/><path class="cls-4" d="M189.93,87.72a1.8,1.8,0,0,1-.87-.19,1.62,1.62,0,0,1-.58-.52,2.15,2.15,0,0,1-.32-.76,3.85,3.85,0,0,1-.1-.91,2.66,2.66,0,0,1,.27-1.2,1.77,1.77,0,0,1,.69-.74,2,2,0,0,1,1-.25,1.7,1.7,0,0,1,1.1.33,1.8,1.8,0,0,1,.6.87,3.42,3.42,0,0,1,.17,1.17,2.61,2.61,0,0,1-.26,1.21,1.77,1.77,0,0,1-.69.74A2,2,0,0,1,189.93,87.72Zm0-.65a.84.84,0,0,0,.78-.41,2.25,2.25,0,0,0,.26-1.17,3.11,3.11,0,0,0-.11-.84,1.32,1.32,0,0,0-.33-.61.78.78,0,0,0-.57-.23.85.85,0,0,0-.78.39,2.15,2.15,0,0,0-.26,1.15,3.18,3.18,0,0,0,.11.85,1.46,1.46,0,0,0,.33.63A.73.73,0,0,0,190,87.07Z"/><path class="cls-4" d="M192.81,87.66V83.21h.74l.06.57.07.34v3.54Zm.82-3.27,0-.61a.93.93,0,0,1,.24-.27,1.64,1.64,0,0,1,.43-.26,1.25,1.25,0,0,1,.5-.11H195a.37.37,0,0,1,.15,0v.86L195,84a1.64,1.64,0,0,0-.37,0,1.09,1.09,0,0,0-.42.07,1,1,0,0,0-.33.17A1.55,1.55,0,0,0,193.63,84.39Z"/><path class="cls-4" d="M197.21,87.66V83.21H198l.07.57.06.34v3.54Zm.83-3.27,0-.61a.75.75,0,0,1,.23-.27,1.82,1.82,0,0,1,.43-.26,1.34,1.34,0,0,1,.51-.11h.24a.5.5,0,0,1,.16,0v.86l-.18-.07a1.58,1.58,0,0,0-.37,0,1.16,1.16,0,0,0-.42.07,1.29,1.29,0,0,0-.33.17A1.44,1.44,0,0,0,198,84.39Z"/><path class="cls-4" d="M201.87,87.72a1.7,1.7,0,0,1-1.4-.6,2.62,2.62,0,0,1-.49-1.69,2.86,2.86,0,0,1,.22-1.16,1.84,1.84,0,0,1,.64-.81,1.76,1.76,0,0,1,1-.31,1.68,1.68,0,0,1,.6.09,1.47,1.47,0,0,1,.5.32,1.67,1.67,0,0,1,.34.53,2.1,2.1,0,0,1,.13.75v.45a1.9,1.9,0,0,1,0,.35h-2.93l.07-.59h2.08a2.36,2.36,0,0,0,0-.6.84.84,0,0,0-.23-.47.72.72,0,0,0-.53-.18.85.85,0,0,0-.53.18,1,1,0,0,0-.36.58,3.61,3.61,0,0,0-.11,1.13,1.88,1.88,0,0,0,.19.8,1,1,0,0,0,.45.41,1.38,1.38,0,0,0,.62.13,1.7,1.7,0,0,0,.35,0l.4-.08a1.54,1.54,0,0,0,.3-.12l.16.53a1.22,1.22,0,0,1-.38.21,2.63,2.63,0,0,1-.52.14A2.53,2.53,0,0,1,201.87,87.72Z"/><path class="cls-4" d="M206,89.68a2.32,2.32,0,0,1-1.32-.33,1.1,1.1,0,0,1-.48-1,.93.93,0,0,1,.11-.44,1.1,1.1,0,0,1,.28-.32,1.17,1.17,0,0,1,.33-.2l.56.08c-.06,0-.11.11-.18.16a.69.69,0,0,0-.17.23.75.75,0,0,0-.08.37,1.06,1.06,0,0,0,.1.45.71.71,0,0,0,.31.28,1.32,1.32,0,0,0,.57.1,2.23,2.23,0,0,0,.6-.08,1,1,0,0,0,.44-.22.48.48,0,0,0,.17-.37,1,1,0,0,0-.08-.4.53.53,0,0,0-.31-.25,1.74,1.74,0,0,0-.64-.09h-.8a1.34,1.34,0,0,1-.3-.05.12.12,0,0,1-.08,0l-.09,0a.73.73,0,0,1-.38-.32,1,1,0,0,1-.09-.41.74.74,0,0,1,.07-.32,1.26,1.26,0,0,1,.22-.31,2.16,2.16,0,0,1,.33-.27l.54.15a.62.62,0,0,0-.25.19.48.48,0,0,0-.11.29.39.39,0,0,0,.11.33.62.62,0,0,0,.38.09h.75a2.53,2.53,0,0,1,.8.11,1.14,1.14,0,0,1,.47.29,1,1,0,0,1,.23.4,1.76,1.76,0,0,1,.06.46,1.27,1.27,0,0,1-.16.62,1.41,1.41,0,0,1-.45.46,2.34,2.34,0,0,1-.66.3A3.44,3.44,0,0,1,206,89.68Zm0-3.54a1.83,1.83,0,0,1-.85-.19,1.4,1.4,0,0,1-.59-.51,1.33,1.33,0,0,1-.22-.76,1.5,1.5,0,0,1,.22-.86,1.29,1.29,0,0,1,.6-.5,2.44,2.44,0,0,1,1.71,0,1.32,1.32,0,0,1,.86,1.34,1.52,1.52,0,0,1-.22.82,1.44,1.44,0,0,1-.62.52A2.24,2.24,0,0,1,206,86.14Zm0-.6a.92.92,0,0,0,.62-.19.82.82,0,0,0,.23-.69.94.94,0,0,0-.2-.67.72.72,0,0,0-.6-.23,1.27,1.27,0,0,0-.44.07.62.62,0,0,0-.32.26,1.19,1.19,0,0,0,.08,1.18A.72.72,0,0,0,206,85.54Zm1.24-1.64-.23-.37a.77.77,0,0,1,.33-.23,1.19,1.19,0,0,1,.54-.12h.42v.72Z"/><path class="cls-4" d="M209.44,82.42a.55.55,0,0,1-.39-.14.53.53,0,0,1-.16-.41.62.62,0,0,1,.09-.32.64.64,0,0,1,.24-.22.52.52,0,0,1,.29-.09.5.5,0,0,1,.41.16.59.59,0,0,1,.13.39.62.62,0,0,1-.18.46A.65.65,0,0,1,209.44,82.42Zm-.39,5.24V83.21h.87v4.45Z"/><path class="cls-4" d="M212.25,87.72a1.48,1.48,0,0,1-.68-.15,1.32,1.32,0,0,1-.46-.45,1.35,1.35,0,0,1-.16-.69,1.2,1.2,0,0,1,.21-.72,1.45,1.45,0,0,1,.59-.47,3.52,3.52,0,0,1,.52-.17,3.72,3.72,0,0,1,.57-.08l.52,0,.19.24-.19.33-.35,0-.41.07a1.5,1.5,0,0,0-.34.12,1.24,1.24,0,0,0-.32.23.62.62,0,0,0-.12.4.66.66,0,0,0,.17.51.74.74,0,0,0,.52.17,1.49,1.49,0,0,0,.36,0,1.93,1.93,0,0,0,.32-.13.43.43,0,0,0,.17-.13l.18.2-.13.34a1.53,1.53,0,0,1-.48.3A1.56,1.56,0,0,1,212.25,87.72Zm2-.06h-.83V87h0V84.54a.59.59,0,0,0-.19-.52,1,1,0,0,0-.55-.12,2.18,2.18,0,0,0-.5,0,3.09,3.09,0,0,0-.46.12,1.38,1.38,0,0,0-.32.15l-.21-.66a2.27,2.27,0,0,1,.34-.16,3.2,3.2,0,0,1,.57-.18,2.48,2.48,0,0,1,.66-.08,2.86,2.86,0,0,1,.82.11,1,1,0,0,1,.53.43,1.87,1.87,0,0,1,.19.91Zm-1.09-5.16a.62.62,0,0,1-.34-.09,1.37,1.37,0,0,1-.23-.19l-.2-.2a.35.35,0,0,0-.22-.08.63.63,0,0,0-.26,0,.4.4,0,0,0-.16.13.77.77,0,0,0-.1.18l-.34-.19a2,2,0,0,1,.17-.4,1.08,1.08,0,0,1,.28-.32.7.7,0,0,1,.42-.12.61.61,0,0,1,.32.08,1.12,1.12,0,0,1,.24.19.89.89,0,0,0,.2.19.31.31,0,0,0,.22.09.6.6,0,0,0,.24,0,.4.4,0,0,0,.16-.13.54.54,0,0,0,.11-.18l.35.21a1.26,1.26,0,0,1-.16.42.92.92,0,0,1-.3.29A.7.7,0,0,1,213.15,82.5Z"/><path class="cls-4" d="M217,87.72a1.8,1.8,0,0,1-.87-.19,1.54,1.54,0,0,1-.58-.52,2.37,2.37,0,0,1-.33-.76,3.85,3.85,0,0,1-.09-.91,2.54,2.54,0,0,1,.26-1.2,1.86,1.86,0,0,1,.7-.74,1.92,1.92,0,0,1,1-.25,1.74,1.74,0,0,1,1.1.33,1.85,1.85,0,0,1,.59.87,3.42,3.42,0,0,1,.18,1.17,2.74,2.74,0,0,1-.27,1.21,1.77,1.77,0,0,1-.69.74A1.92,1.92,0,0,1,217,87.72Zm0-.65a.82.82,0,0,0,.78-.41,2.16,2.16,0,0,0,.26-1.17,3.12,3.12,0,0,0-.1-.84,1.32,1.32,0,0,0-.33-.61.78.78,0,0,0-.58-.23.82.82,0,0,0-.77.39,2.06,2.06,0,0,0-.26,1.15,3.2,3.2,0,0,0,.1.85,1.46,1.46,0,0,0,.33.63A.75.75,0,0,0,217,87.07Z"/><path class="cls-4" d="M222.68,87.72a1.5,1.5,0,0,1-.82-.23,1.69,1.69,0,0,1-.61-.7,2.82,2.82,0,0,1-.23-1.2,3,3,0,0,1,.26-1.27,2.08,2.08,0,0,1,.74-.86,2,2,0,0,1,1.11-.31,1.83,1.83,0,0,1,.66.1,1.24,1.24,0,0,1,.33.16l-.31.59a.53.53,0,0,0-.3-.14,1.89,1.89,0,0,0-.44,0,1,1,0,0,0-.58.18,1.34,1.34,0,0,0-.41.56,2.3,2.3,0,0,0-.16.92,1.87,1.87,0,0,0,.25,1.15.87.87,0,0,0,.76.37,1.11,1.11,0,0,0,.52-.12,1.76,1.76,0,0,0,.36-.22l.15.45-.24.25a1.71,1.71,0,0,1-.4.25A1.5,1.5,0,0,1,222.68,87.72Zm1.18-.06v-.59l-.05,0V83.89l0,0,0-.88V81.16h.87v6.5Z"/><path class="cls-4" d="M226.94,87.72a1.47,1.47,0,0,1-.67-.15,1.24,1.24,0,0,1-.46-.45,1.36,1.36,0,0,1-.17-.69,1.14,1.14,0,0,1,.22-.72,1.42,1.42,0,0,1,.58-.47,3.66,3.66,0,0,1,.53-.17,3.78,3.78,0,0,1,.56-.08l.53,0,.18.24-.18.33-.35,0-.41.07a1.35,1.35,0,0,0-.34.12,1.09,1.09,0,0,0-.32.23.57.57,0,0,0-.13.4.66.66,0,0,0,.18.51.72.72,0,0,0,.52.17,1.49,1.49,0,0,0,.36,0,1.81,1.81,0,0,0,.31-.13.59.59,0,0,0,.18-.13l.17.2-.12.34a1.53,1.53,0,0,1-.48.3A1.58,1.58,0,0,1,226.94,87.72Zm2-.06h-.82V87h-.05V84.54a.59.59,0,0,0-.2-.52,1,1,0,0,0-.55-.12,2.09,2.09,0,0,0-.49,0,2.8,2.8,0,0,0-.46.12,1.49,1.49,0,0,0-.33.15l-.2-.66a2,2,0,0,1,.33-.16,3.62,3.62,0,0,1,.58-.18,2.48,2.48,0,0,1,.66-.08,2.78,2.78,0,0,1,.81.11,1,1,0,0,1,.54.43,1.88,1.88,0,0,1,.18.91Z"/><path class="cls-4" d="M233.67,87.72a2.19,2.19,0,0,1-1.36-.37,2.52,2.52,0,0,1-.87-1.1,3.74,3.74,0,0,1-.28-1.61,3.6,3.6,0,0,1,.37-1.66,2.43,2.43,0,0,1,.94-1,2.64,2.64,0,0,1,1.31-.34,2.26,2.26,0,0,1,1.3.37,2.4,2.4,0,0,1,.86,1.06,3.81,3.81,0,0,1,.28,1.6,3.75,3.75,0,0,1-.36,1.67,2.34,2.34,0,0,1-.9,1A2.55,2.55,0,0,1,233.67,87.72Zm0-.72a1.42,1.42,0,0,0,1.19-.59,3,3,0,0,0,.44-1.77,3.72,3.72,0,0,0-.17-1.13,2,2,0,0,0-.53-.83,1.24,1.24,0,0,0-.87-.32,1.53,1.53,0,0,0-.84.25,1.67,1.67,0,0,0-.62.77,3.13,3.13,0,0,0-.23,1.32,3.49,3.49,0,0,0,.18,1.14,1.84,1.84,0,0,0,.55.84A1.27,1.27,0,0,0,233.69,87Z"/><path class="cls-4" d="M237,87.66l.58-5.94h1.25l1,3.34.29,1.27.26-1.27.94-3.34h1.2l.67,5.94h-.89l-.33-3.6-.11-1.64-.38,1.64-1.11,3.66h-.53l-1.16-3.66-.41-1.64-.11,1.64-.3,3.6Z"/><path class="cls-4" d="M245.73,87.72a3.69,3.69,0,0,1-1.26-.19,1.78,1.78,0,0,1-.33-.15l.18-.76a3.08,3.08,0,0,0,.36.17,4.41,4.41,0,0,0,.47.14,3.07,3.07,0,0,0,.53,0,1.41,1.41,0,0,0,.78-.18.67.67,0,0,0,.28-.6.77.77,0,0,0-.14-.47,1.42,1.42,0,0,0-.4-.36c-.19-.11-.41-.24-.68-.37a4.54,4.54,0,0,1-.67-.44,2.14,2.14,0,0,1-.53-.59,1.58,1.58,0,0,1,0-1.5,1.25,1.25,0,0,1,.43-.48,2,2,0,0,1,.6-.26,3.25,3.25,0,0,1,.69-.08,2.88,2.88,0,0,1,.85.11,1.72,1.72,0,0,1,.48.21l-.17.74a2.37,2.37,0,0,0-.45-.23,2,2,0,0,0-.71-.1,1.7,1.7,0,0,0-.51.07.9.9,0,0,0-.38.23.61.61,0,0,0-.14.4.86.86,0,0,0,.11.47,1,1,0,0,0,.35.34,6.88,6.88,0,0,0,.63.38l.56.33a3.92,3.92,0,0,1,.5.39,1.68,1.68,0,0,1,.36.48,1.45,1.45,0,0,1,.13.63,1.65,1.65,0,0,1-.24.91,1.47,1.47,0,0,1-.66.54A2.72,2.72,0,0,1,245.73,87.72Z"/><path class="cls-4" d="M248.49,89.25v-.09a.9.9,0,0,0,.33-.4,1.33,1.33,0,0,0,.14-.6.87.87,0,0,0-.07-.35,1,1,0,0,0-.17-.31.34.34,0,0,0-.21-.14V87.1l.56-.52a.94.94,0,0,1,.41.32,1.35,1.35,0,0,1,.22.47,1.69,1.69,0,0,1,.07.48,2.26,2.26,0,0,1-.13.79,2,2,0,0,1-.36.62,1.3,1.3,0,0,1-.5.36Z"/><path class="cls-4" d="M252.16,87.66l-.13-.47q.34-.25.72-.57c.24-.22.47-.45.7-.7a6.86,6.86,0,0,0,.59-.77,3.92,3.92,0,0,0,.42-.81,2.35,2.35,0,0,0,.15-.8,1.18,1.18,0,0,0-.25-.82.89.89,0,0,0-.7-.29,1.55,1.55,0,0,0-.71.17,1.75,1.75,0,0,0-.54.39l-.36-.56a2.79,2.79,0,0,1,.39-.34,2.29,2.29,0,0,1,1.36-.42,1.86,1.86,0,0,1,1,.24,1.45,1.45,0,0,1,.56.66,2.25,2.25,0,0,1,.18.92,3,3,0,0,1-.27,1.21,4.93,4.93,0,0,1-.75,1.19,7.36,7.36,0,0,1-1.12,1l2.36,0v.78Z"/><path class="cls-4" d="M258.77,87.72a1.67,1.67,0,0,1-.94-.25,1.89,1.89,0,0,1-.64-.7,3.57,3.57,0,0,1-.35-1,6.29,6.29,0,0,1-.1-1.17A4.31,4.31,0,0,1,257,83a2.42,2.42,0,0,1,.76-1,1.66,1.66,0,0,1,1.07-.37,1.74,1.74,0,0,1,.95.24,1.76,1.76,0,0,1,.62.65,3.22,3.22,0,0,1,.33,1,7.18,7.18,0,0,1,.09,1.16,4.7,4.7,0,0,1-.27,1.62,2.51,2.51,0,0,1-.72,1.08A1.64,1.64,0,0,1,258.77,87.72Zm0-.84a.88.88,0,0,0,.85-.54,3.82,3.82,0,0,0,.28-1.66,5.58,5.58,0,0,0-.11-1.14,1.89,1.89,0,0,0-.37-.78.81.81,0,0,0-.64-.28A.93.93,0,0,0,258,83a3.39,3.39,0,0,0-.29,1.55,5.11,5.11,0,0,0,.12,1.14,2,2,0,0,0,.37.84A.77.77,0,0,0,258.8,86.88Z"/><path class="cls-4" d="M262.72,87.66V82.75l-.42.11-.41.1-.1-.56a2.25,2.25,0,0,0,.4-.15,3.17,3.17,0,0,0,.41-.21,2.58,2.58,0,0,0,.37-.22l.25-.18.4.07v6Z"/><path class="cls-4" d="M265.32,85.42a4,4,0,0,1,.18-1.21,4.4,4.4,0,0,1,.5-1,4.3,4.3,0,0,1,1.56-1.4,3.37,3.37,0,0,1,.85-.31l.23.59a3.2,3.2,0,0,0-.95.45,3.67,3.67,0,0,0-.75.72,3.41,3.41,0,0,0-.49.87,3.06,3.06,0,0,0-.18.93,4.67,4.67,0,0,0,.07,1,1.62,1.62,0,0,0,.33.75.85.85,0,0,0,.69.28.87.87,0,0,0,.57-.19,1.16,1.16,0,0,0,.33-.5,1.85,1.85,0,0,0,.12-.67,1.87,1.87,0,0,0-.12-.74.85.85,0,0,0-.3-.38.76.76,0,0,0-.39-.1,1.14,1.14,0,0,0-.39.06,1.22,1.22,0,0,0-.25.11l-.22-.55a1.7,1.7,0,0,1,.21-.15,2.12,2.12,0,0,1,.36-.13,1.73,1.73,0,0,1,.47-.06,1.37,1.37,0,0,1,.82.24,1.46,1.46,0,0,1,.51.64,2.12,2.12,0,0,1,.18.87,2.76,2.76,0,0,1-.12.82,2.16,2.16,0,0,1-.38.7,1.67,1.67,0,0,1-.62.49,2,2,0,0,1-.89.18,1.73,1.73,0,0,1-1-.31,2,2,0,0,1-.66-.84A2.91,2.91,0,0,1,265.32,85.42Z"/><path class="cls-4" d="M270.94,87.75a.52.52,0,0,1-.4-.18.64.64,0,0,1-.17-.44.86.86,0,0,1,.08-.36.72.72,0,0,1,.24-.25.47.47,0,0,1,.3-.1.52.52,0,0,1,.42.18.83.83,0,0,1,.15.44.86.86,0,0,1-.08.36.7.7,0,0,1-.23.25A.52.52,0,0,1,270.94,87.75Z"/></g><g id="Gráfico"><line class="cls-5" x1="81.48" y1="59.08" x2="81.48" y2="425.8"/><rect class="cls-6" x="81.48" y="373.67" width="104.86" height="45.95"/><rect class="cls-7" x="81.48" y="322.62" width="71.96" height="45.95"/><rect class="cls-8" x="81.48" y="271.57" width="34.95" height="45.95"/><rect class="cls-9" x="81.48" y="220.52" width="20.56" height="45.95"/><rect class="cls-10" x="81.48" y="169.47" width="14.39" height="45.95"/><rect class="cls-11" x="81.48" y="118.42" width="10.28" height="45.95"/><rect class="cls-12" x="81.48" y="67.37" width="4.11" height="45.95"/><path class="cls-4" d="M52.45,80.05l-.09.63H49.74l-.1-.63.7-.28V75.32l-.71-.3.1-.64h2.75a1.78,1.78,0,0,1,1.9,2c0,1.46-1,1.94-2.2,1.94h-.33v-.71h.36a1.13,1.13,0,0,0,1-1.23c0-.75-.28-1.36-1-1.36H51.5v4.75Z"/><path class="cls-4" d="M56.59,76.38a1.55,1.55,0,0,1,1.72,1.69v1.87l.47.19-.1.55H57.62l-.25-.2a1.72,1.72,0,0,1-1.08.3,1.27,1.27,0,0,1-1.41-1.25c0-1.22,1.33-1.5,2.38-1.5v-.32a.7.7,0,0,0-.71-.76,2.37,2.37,0,0,0-.62.1l-.18.68-.56-.11v-.86A3.08,3.08,0,0,1,56.59,76.38ZM56,79.45a.6.6,0,0,0,.57.68.84.84,0,0,0,.66-.36V78.59C56.49,78.59,56,78.94,56,79.45Z"/><path class="cls-4" d="M61.22,80.68H59.3l-.1-.55.53-.19V77h-.38l-.1-.55,1-.1.51.1v3.46l.54.19ZM59.7,75.43l.61-1.64.81.42-1,1.42Z"/><path class="cls-4" d="M62,80.4V79.34l.56-.11.29.89a2.1,2.1,0,0,0,.53.09c.41,0,.77-.16.77-.49s-.45-.54-.83-.73c-.55-.28-1.3-.66-1.3-1.44s.65-1.17,1.65-1.17a2.47,2.47,0,0,1,1.29.38v.86l-.57.11L64.19,77a2.21,2.21,0,0,0-.62-.09c-.34,0-.61.2-.61.47s.67.55,1.08.77c.58.3,1,.59,1,1.28s-.65,1.3-1.66,1.3A3.34,3.34,0,0,1,62,80.4Z"/><path class="cls-4" d="M69.36,79.71l.28.46a2.29,2.29,0,0,1-1.61.61,2,2,0,0,1-2.28-2.2,2.07,2.07,0,0,1,2.14-2.2c1,0,1.82.58,1.82,1.46a1.89,1.89,0,0,1-.18.76H66.9c0,.9.46,1.53,1.17,1.53A2.13,2.13,0,0,0,69.36,79.71Zm-.7-1.93a.76.76,0,0,0-.77-.83c-.54,0-.89.44-1,1.09h1.71A1.22,1.22,0,0,0,68.66,77.78Z"/><path class="cls-4" d="M70.33,80.4V79.34l.56-.11.29.89a2.1,2.1,0,0,0,.53.09c.41,0,.77-.16.77-.49s-.45-.54-.83-.73c-.55-.28-1.3-.66-1.3-1.44S71,76.38,72,76.38a2.47,2.47,0,0,1,1.29.38v.86l-.57.11L72.55,77a2.34,2.34,0,0,0-.63-.09.55.55,0,0,0-.61.47c0,.35.67.55,1.09.77s1,.59,1,1.28-.65,1.3-1.66,1.3A3.34,3.34,0,0,1,70.33,80.4Z"/><path class="cls-4" d="M19.29,91.64l-1.46-4.32-.37,3.24.67.28-.08.64H16.2l-.1-.64.71-.28.48-4.44-.69-.3.09-.64h1.68l1.35,3.94V90l1.65-4.84h1.72l.1.64-.7.3.4,4.45.69.27-.08.64H21.14l-.09-.64.68-.27L21.4,87.1l-1.48,4.38Z"/><path class="cls-4" d="M27.68,90.51,28,91a2.29,2.29,0,0,1-1.61.61,2,2,0,0,1-2.28-2.2,2.06,2.06,0,0,1,2.14-2.2c1,0,1.82.58,1.82,1.46a1.89,1.89,0,0,1-.19.76H25.22c0,.9.45,1.53,1.17,1.53A2.13,2.13,0,0,0,27.68,90.51ZM27,88.58a.76.76,0,0,0-.77-.83c-.54,0-.89.44-1,1.09H27A1.22,1.22,0,0,0,27,88.58Z"/><path class="cls-4" d="M30.68,91.58a1.94,1.94,0,0,1-2.07-2.17,2.07,2.07,0,0,1,2.11-2.23,2.65,2.65,0,0,1,.73.12V85.41H31l-.09-.52,1.1-.13.49.13v5.85l.54.19-.1.55H31.81l-.25-.2A1.5,1.5,0,0,1,30.68,91.58Zm.09-3.75c-.65,0-1,.56-1,1.49s.41,1.61,1,1.61a1,1,0,0,0,.72-.28V88A1.47,1.47,0,0,0,30.77,87.83Z"/><path class="cls-4" d="M35.44,91.48H33.52l-.1-.55.53-.19V87.83h-.38l-.1-.55,1-.1.51.1v3.46l.54.19ZM35,85.79a.57.57,0,0,1-.54.59.58.58,0,0,1-.54-.59.57.57,0,0,1,.54-.58A.56.56,0,0,1,35,85.79Z"/><path class="cls-4" d="M38.66,87.28l-.1.55h-1v2.6a.46.46,0,0,0,.36.5,1.06,1.06,0,0,0,.71-.44L39,91a1.55,1.55,0,0,1-1.2.6,1.16,1.16,0,0,1-1.28-1.21V87.83H36l-.09-.5.63-.2.36-1,.62.16v1Z"/><path class="cls-4" d="M42.93,90.51l.28.46a2.29,2.29,0,0,1-1.61.61,2,2,0,0,1-2.28-2.2,2.07,2.07,0,0,1,2.14-2.2c1,0,1.82.58,1.82,1.46a1.74,1.74,0,0,1-.19.76H40.47c0,.9.46,1.53,1.17,1.53A2.13,2.13,0,0,0,42.93,90.51Zm-.7-1.93a.76.76,0,0,0-.77-.83c-.54,0-.89.44-1,1.09H42.2A1.22,1.22,0,0,0,42.23,88.58Z"/><path class="cls-4" d="M46.52,87.86a2.19,2.19,0,0,0-.33,0,2.45,2.45,0,0,0-.75.18v2.73l.69.19-.1.55H44l-.1-.55.53-.19V87.83H44l-.1-.55,1.09-.1.34.23a3.53,3.53,0,0,1,1.07-.23,2.09,2.09,0,0,1,.86.2v1l-.55.11Z"/><path class="cls-4" d="M50.31,87.86a2.5,2.5,0,0,0-.33,0,2.45,2.45,0,0,0-.75.18v2.73l.69.19-.1.55H47.75l-.1-.55.52-.19V87.83H47.8l-.1-.55,1.08-.1.35.23a3.47,3.47,0,0,1,1.07-.23,2.13,2.13,0,0,1,.86.2v1l-.56.11Z"/><path class="cls-4" d="M51.71,88.42v-.86a3.08,3.08,0,0,1,1.4-.38,1.55,1.55,0,0,1,1.72,1.69v1.87l.47.19-.1.55H54.14l-.25-.2a1.72,1.72,0,0,1-1.08.3,1.27,1.27,0,0,1-1.41-1.25c0-1.22,1.33-1.5,2.38-1.5v-.32a.7.7,0,0,0-.71-.76,2.37,2.37,0,0,0-.62.1l-.18.68Zm2.71-2-1-1.53h-.58l-1,1.53.25.19,1-.89,1,.89Zm-.64,4.17V89.39c-.77,0-1.23.35-1.23.86a.6.6,0,0,0,.57.68A.84.84,0,0,0,53.78,90.57Z"/><path class="cls-4" d="M57.25,88v2.73l.54.19-.1.55H55.77l-.1-.55.53-.19V87.83h-.38l-.09-.55,1.07-.1.34.23a3.76,3.76,0,0,1,1-.23,1.43,1.43,0,0,1,1.58,1.52v2l.53.19-.1.55H58.3l-.1-.55.52-.19V88.57a.73.73,0,0,0-.74-.74A2.44,2.44,0,0,0,57.25,88Z"/><path class="cls-4" d="M64.53,90.51l.28.46a2.29,2.29,0,0,1-1.61.61,2,2,0,0,1-2.28-2.2,2.06,2.06,0,0,1,2.14-2.2c1,0,1.82.58,1.82,1.46a1.89,1.89,0,0,1-.19.76H62.07c0,.9.45,1.53,1.17,1.53A2.13,2.13,0,0,0,64.53,90.51Zm-.7-1.93a.76.76,0,0,0-.77-.83c-.54,0-.89.44-1,1.09H63.8A1.22,1.22,0,0,0,63.83,88.58Z"/><path class="cls-4" d="M69.67,89.38a1.94,1.94,0,0,1-2.08,2.19,2,2,0,0,1-2.09-2.19,2,2,0,0,1,2.09-2.2A2,2,0,0,1,69.67,89.38Zm-3.09,0c0,1,.36,1.66,1,1.66s1-.66,1-1.66-.4-1.6-1-1.6S66.58,88.36,66.58,89.35Z"/><path class="cls-4" d="M70.33,91.2V90.14l.56-.11.29.89a2.1,2.1,0,0,0,.53.09c.41,0,.77-.16.77-.49s-.45-.54-.83-.73c-.55-.28-1.3-.66-1.3-1.44S71,87.18,72,87.18a2.38,2.38,0,0,1,1.29.38v.86l-.57.11-.18-.69a2.21,2.21,0,0,0-.62-.09c-.34,0-.61.2-.61.47s.67.55,1.08.77c.58.3,1,.59,1,1.28s-.65,1.3-1.66,1.3A3.34,3.34,0,0,1,70.33,91.2Z"/><path class="cls-4" d="M43.51,102.38a1.94,1.94,0,0,1-2.07-2.17A2.07,2.07,0,0,1,43.55,98a2.65,2.65,0,0,1,.73.12V96.21h-.45l-.09-.52,1.1-.13.49.13v5.85l.54.19-.1.55H44.64l-.25-.2A1.5,1.5,0,0,1,43.51,102.38Zm.09-3.75c-.65,0-1,.56-1,1.49s.41,1.61,1,1.61a1,1,0,0,0,.72-.28V98.81A1.47,1.47,0,0,0,43.6,98.63Z"/><path class="cls-4" d="M50.41,100.18a1.94,1.94,0,0,1-2.08,2.19,2,2,0,0,1-2.08-2.19,2.08,2.08,0,1,1,4.16,0Zm-3.09,0c0,1,.36,1.66,1,1.66s1-.66,1-1.66-.4-1.6-1-1.6S47.32,99.16,47.32,100.15Z"/><path class="cls-4" d="M55.68,96.62l-.7.3v4.72h1.61l.46-1.35.59.09v1.9H53.21l-.09-.64.7-.28V96.92l-.7-.3.09-.64h2.38Z"/><path class="cls-4" d="M61.66,101.31l.28.46a2.29,2.29,0,0,1-1.61.61,2,2,0,0,1-2.28-2.2A2.07,2.07,0,0,1,60.19,98c1,0,1.82.58,1.82,1.46a1.89,1.89,0,0,1-.18.76H59.2c0,.9.46,1.53,1.17,1.53A2.13,2.13,0,0,0,61.66,101.31ZM61,99.38a.75.75,0,0,0-.77-.83c-.54,0-.89.44-1,1.09h1.71A1.22,1.22,0,0,0,61,99.38Z"/><path class="cls-4" d="M62.63,102v-1.06l.56-.11.29.89a2.1,2.1,0,0,0,.53.09c.41,0,.77-.16.77-.49s-.45-.54-.83-.73c-.55-.28-1.3-.66-1.3-1.44S63.3,98,64.3,98a2.38,2.38,0,0,1,1.29.38v.86l-.57.11-.17-.69a2.34,2.34,0,0,0-.63-.09.55.55,0,0,0-.61.47c0,.35.67.55,1.09.77s1,.59,1,1.28-.65,1.3-1.66,1.3A3.34,3.34,0,0,1,62.63,102Z"/><path class="cls-4" d="M68.87,98.08l-.1.55h-1v2.6a.46.46,0,0,0,.36.5,1.1,1.1,0,0,0,.71-.44l.36.48a1.52,1.52,0,0,1-1.2.6,1.17,1.17,0,0,1-1.28-1.21V98.63h-.47l-.09-.5.63-.2.36-1,.62.16v1Z"/><path class="cls-4" d="M73.13,101.31l.28.46a2.29,2.29,0,0,1-1.61.61,2,2,0,0,1-2.28-2.2A2.07,2.07,0,0,1,71.66,98c1,0,1.82.58,1.82,1.46a1.89,1.89,0,0,1-.18.76H70.67c0,.9.46,1.53,1.17,1.53A2.13,2.13,0,0,0,73.13,101.31Zm-.7-1.93a.75.75,0,0,0-.77-.83c-.54,0-.89.44-1,1.09H72.4A1.22,1.22,0,0,0,72.43,99.38Z"/><path class="cls-4" d="M46.3,131.4a3.18,3.18,0,0,1,1.75.58v1.4l-.59.1-.38-1.21a2.83,2.83,0,0,0-.78-.11c-.59,0-1,.29-1,.8s1,1,1.28,1.18a2.35,2.35,0,0,1,1.67,2.07c0,1-.69,1.8-2.15,1.8a3,3,0,0,1-1.8-.59V136l.58-.09.41,1.18a2,2,0,0,0,.75.2c.66,0,1.19-.28,1.19-.76,0-.71-1-1.07-1.53-1.37a2.11,2.11,0,0,1-1.43-2A1.78,1.78,0,0,1,46.3,131.4Z"/><path class="cls-4" d="M51.43,134.2l-.08-.53,1-.12.4.14v3.42l.53.2-.1.54H52.12l-.25-.2a1.64,1.64,0,0,1-1.07.3,1.45,1.45,0,0,1-1.48-1.64V134.2H49l-.09-.53,1-.12.47.13v2.71c0,.67.41.91.74.91a1,1,0,0,0,.7-.35V134.2Z"/><path class="cls-4" d="M55.75,138a1.92,1.92,0,0,1-2-2.17,2,2,0,0,1,2.06-2.23,2.52,2.52,0,0,1,.71.12v-1.89h-.44l-.09-.52,1.08-.13.48.13v5.85l.53.2-.1.54H56.85l-.24-.2A1.43,1.43,0,0,1,55.75,138Zm.09-3.75c-.63,0-1,.56-1,1.49s.41,1.61,1,1.61a.93.93,0,0,0,.7-.28v-2.64A1.36,1.36,0,0,0,55.84,134.2Z"/><path class="cls-4" d="M61.94,136.88l.28.46a2.2,2.2,0,0,1-1.57.61,2,2,0,0,1-2.23-2.2,2,2,0,0,1,2.09-2.2A1.6,1.6,0,0,1,62.29,135a2.07,2.07,0,0,1-.18.76H59.54c0,.9.45,1.53,1.15,1.53A2,2,0,0,0,61.94,136.88ZM61.26,135a.75.75,0,0,0-.75-.83c-.53,0-.87.44-.95,1.09h1.67A1.22,1.22,0,0,0,61.26,135Z"/><path class="cls-4" d="M62.9,137.58v-1.07l.54-.11.28.89a2,2,0,0,0,.52.09c.4,0,.75-.16.75-.49s-.44-.54-.81-.73c-.53-.28-1.27-.65-1.27-1.44s.64-1.17,1.62-1.17a2.36,2.36,0,0,1,1.25.38v.86l-.55.11-.18-.69a2.1,2.1,0,0,0-.61-.09.54.54,0,0,0-.59.47c0,.35.65.55,1.06.77.56.3,1,.59,1,1.28s-.64,1.3-1.63,1.3A3.26,3.26,0,0,1,62.9,137.58Z"/><path class="cls-4" d="M69,133.65l-.1.55h-1v2.6c0,.31.2.5.35.5a1,1,0,0,0,.69-.44l.35.48a1.49,1.49,0,0,1-1.17.6,1.15,1.15,0,0,1-1.25-1.21V134.2h-.47l-.08-.5.61-.2.35-1,.62.16v1Z"/><path class="cls-4" d="M73.14,136.88l.28.46a2.2,2.2,0,0,1-1.57.61,2,2,0,0,1-2.23-2.2,2,2,0,0,1,2.09-2.2A1.6,1.6,0,0,1,73.49,135a1.89,1.89,0,0,1-.18.76H70.74c0,.9.45,1.53,1.15,1.53A2,2,0,0,0,73.14,136.88ZM72.46,135a.75.75,0,0,0-.75-.83c-.53,0-.87.44-.95,1.09h1.68A2.46,2.46,0,0,0,72.46,135Z"/><path class="cls-4" d="M47.78,147.73l.72.29-.09.63H46L46,148l.64-.29-.37-1.08h-1.9l-.4,1.08.77.28-.08.64h-2l-.09-.63.71-.29,1.87-5.38.89-.15Zm-2.31-4.34-.91,2.55H46l-.52-1.53Z"/><path class="cls-4" d="M48.88,148.38v-1.07l.55-.11.28.89a2,2,0,0,0,.52.09c.4,0,.75-.16.75-.49s-.44-.54-.81-.73c-.54-.28-1.27-.66-1.27-1.44s.64-1.17,1.61-1.17a2.36,2.36,0,0,1,1.26.38v.86l-.55.11L51,145a2.1,2.1,0,0,0-.61-.09.54.54,0,0,0-.59.47c0,.35.65.55,1.06.77.56.3,1,.59,1,1.28s-.64,1.3-1.63,1.3A3.33,3.33,0,0,1,48.88,148.38Z"/><path class="cls-4" d="M54.54,148.65H52.66l-.09-.54.52-.2V145h-.38l-.09-.55,1-.1.49.1v3.46l.53.2ZM54.07,143a.53.53,0,1,1-.53-.59A.57.57,0,0,1,54.07,143Z"/><path class="cls-4" d="M56.88,144.35A1.53,1.53,0,0,1,58.56,146v1.87l.46.2-.1.54h-1l-.25-.2a1.64,1.64,0,0,1-1,.3,1.26,1.26,0,0,1-1.38-1.25c0-1.22,1.3-1.5,2.33-1.5v-.32a.69.69,0,0,0-.7-.76,2.28,2.28,0,0,0-.6.1l-.18.68-.54-.11v-.86A2.9,2.9,0,0,1,56.88,144.35Zm-.55,3.07c0,.51.33.68.56.68a.84.84,0,0,0,.65-.36v-1.18C56.78,146.56,56.33,146.91,56.33,147.42Zm.23-4,.59-1.64.79.42-1,1.42Z"/><path class="cls-4" d="M61.83,144.45l-.1.55h-1v2.6a.46.46,0,0,0,.35.5,1,1,0,0,0,.7-.44l.35.48a1.5,1.5,0,0,1-1.18.6,1.15,1.15,0,0,1-1.24-1.21V145h-.47l-.08-.5.61-.2.35-1,.61.16v.95Z"/><path class="cls-4" d="M64.44,148.65H62.57l-.1-.54.52-.2V145h-.37l-.09-.55,1-.1.5.1v3.46l.52.2ZM64,143a.56.56,0,0,1-.53.58.59.59,0,0,1,0-1.17A.56.56,0,0,1,64,143Z"/><path class="cls-4" d="M66.31,146.39c0,.94.28,1.71,1.12,1.71a2.09,2.09,0,0,0,1.17-.42l.28.46a2.1,2.1,0,0,1-1.5.61,2,2,0,0,1-2.19-2.19,2.07,2.07,0,0,1,2.21-2.21,2.89,2.89,0,0,1,1.35.38v.86l-.54.11L68,145a1.77,1.77,0,0,0-.62-.11C66.76,144.92,66.31,145.47,66.31,146.39Z"/><path class="cls-4" d="M73.45,146.55a1.92,1.92,0,0,1-2,2.19,2,2,0,0,1-2-2.19,2,2,0,0,1,2-2.2A2,2,0,0,1,73.45,146.55Zm-3,0c0,1,.35,1.66,1,1.66s1-.66,1-1.66-.39-1.6-1-1.6S70.43,145.53,70.43,146.52Z"/><path class="cls-4" d="M45.61,187.79l-.09.64H43l-.09-.64.69-.28v-4.44l-.7-.3.09-.64h2.69a1.76,1.76,0,0,1,1.85,2c0,1.46-1,1.93-2.14,1.93H45v-.7h.35a1.12,1.12,0,0,0,1-1.23c0-.75-.27-1.36-1-1.36h-.71v4.74Z"/><path class="cls-4" d="M49.66,184.13a1.53,1.53,0,0,1,1.68,1.69v1.86l.45.2-.09.55h-1l-.24-.21a1.66,1.66,0,0,1-1.05.31A1.25,1.25,0,0,1,48,187.28c0-1.23,1.29-1.5,2.32-1.5v-.32a.7.7,0,0,0-.69-.77,2.59,2.59,0,0,0-.6.1l-.18.69-.55-.11v-.86A2.79,2.79,0,0,1,49.66,184.13Zm-.55,3.07c0,.51.33.67.56.67a.79.79,0,0,0,.64-.36v-1.18C49.55,186.33,49.11,186.68,49.11,187.2Z"/><path class="cls-4" d="M53.32,186.16c0,1,.28,1.71,1.11,1.71a2.08,2.08,0,0,0,1.18-.41l.27.46a2.12,2.12,0,0,1-1.49.61,2,2,0,0,1-2.19-2.2,2.07,2.07,0,0,1,2.21-2.2,2.78,2.78,0,0,1,1.35.38v.86l-.54.11L55,184.8a2,2,0,0,0-.62-.11C53.76,184.69,53.32,185.24,53.32,186.16Z"/><path class="cls-4" d="M58.36,188.43H56.49l-.1-.56.52-.19v-2.9h-.38l-.09-.55,1-.1.5.1v3.45l.52.19Zm-1.48-5.26.6-1.64.79.43-1,1.42Z"/><path class="cls-4" d="M62.43,182.14V183l-.54.12-.18-.75a1.05,1.05,0,0,0-.36-.08c-.36,0-.71.22-.71,1v.92h.94l-.08.55h-.86v2.9l.77.2-.1.55H59.19l-.1-.55.52-.2v-2.9H59l-.08-.5.66-.22v-.58a1.65,1.65,0,0,1,1.71-1.77A1.56,1.56,0,0,1,62.43,182.14Z"/><path class="cls-4" d="M64.44,188.43H62.57l-.1-.55.52-.2v-2.9h-.37l-.09-.55,1-.1.5.1v3.45l.52.2ZM64,182.74a.56.56,0,0,1-.53.59.57.57,0,0,1-.53-.59.57.57,0,0,1,.53-.58A.55.55,0,0,1,64,182.74Z"/><path class="cls-4" d="M66.31,186.16c0,1,.28,1.71,1.12,1.71a2.08,2.08,0,0,0,1.17-.41l.28.46a2.14,2.14,0,0,1-1.5.61,2,2,0,0,1-2.19-2.2,2.07,2.07,0,0,1,2.21-2.2,2.78,2.78,0,0,1,1.35.38v.86l-.54.11L68,184.8a2,2,0,0,0-.62-.11C66.76,184.69,66.31,185.24,66.31,186.16Z"/><path class="cls-4" d="M73.45,186.32a1.92,1.92,0,0,1-2,2.2,2,2,0,0,1-2-2.2,2,2,0,1,1,4.07,0Zm-3,0c0,1,.35,1.65,1,1.65s1-.65,1-1.65-.39-1.61-1-1.61S70.43,185.31,70.43,186.3Z"/><path class="cls-4" d="M57.61,196.08c0,1.85-.85,3.3-2.8,3.3S52,197.74,52,196.08s1-3.3,2.81-3.3S57.61,194.23,57.61,196.08ZM53.22,196c0,1.71.53,2.6,1.59,2.6s1.59-.94,1.59-2.6-.55-2.5-1.59-2.5S53.22,194.33,53.22,196Z"/><path class="cls-4" d="M61.94,198.26l.28.46a2.2,2.2,0,0,1-1.57.61,2,2,0,0,1-2.23-2.21,2,2,0,0,1,2.09-2.19,1.59,1.59,0,0,1,1.78,1.46,2,2,0,0,1-.18.75H59.54c0,.9.45,1.53,1.15,1.53A2.07,2.07,0,0,0,61.94,198.26Zm-.68-1.94a.75.75,0,0,0-.75-.83c-.53,0-.87.45-.95,1.09h1.68A2.46,2.46,0,0,0,61.26,196.32Z"/><path class="cls-4" d="M62.9,199v-1.06l.54-.12.28.89a1.67,1.67,0,0,0,.52.09c.4,0,.75-.15.75-.48s-.44-.54-.81-.73c-.53-.28-1.27-.66-1.27-1.44s.64-1.17,1.62-1.17a2.27,2.27,0,0,1,1.25.38v.86l-.55.11-.17-.7a2.65,2.65,0,0,0-.62-.09.54.54,0,0,0-.59.47c0,.35.65.56,1.06.78.56.29,1,.58,1,1.28s-.64,1.3-1.62,1.3A3.29,3.29,0,0,1,62.9,199Z"/><path class="cls-4" d="M69,195l-.1.55h-1v2.6a.45.45,0,0,0,.35.49,1.07,1.07,0,0,0,.69-.43l.35.48a1.49,1.49,0,0,1-1.17.6,1.15,1.15,0,0,1-1.25-1.21v-2.53h-.46l-.09-.5.61-.21.36-1,.61.15v1Z"/><path class="cls-4" d="M73.14,198.26l.28.46a2.2,2.2,0,0,1-1.57.61,2,2,0,0,1-2.23-2.21,2,2,0,0,1,2.09-2.19,1.59,1.59,0,0,1,1.78,1.46,1.84,1.84,0,0,1-.18.75H70.74c0,.9.45,1.53,1.15,1.53A2.05,2.05,0,0,0,73.14,198.26Zm-.68-1.94a.75.75,0,0,0-.75-.83c-.53,0-.87.45-.94,1.09h1.67A2.46,2.46,0,0,0,72.46,196.32Z"/><path class="cls-4" d="M54.88,241.7l.72.28-.09.64H53.14l-.09-.64.64-.28-.36-1.08H51.42L51,241.7l.76.27-.08.65h-2l-.09-.64.7-.28,1.88-5.38.89-.15Zm-2.3-4.34-.92,2.55h1.43l-.51-1.53Zm-.44-1.8,1-1.41.66.64-1.43,1Z"/><path class="cls-4" d="M59.31,236.33v.85l-.54.11-.18-.74a.86.86,0,0,0-.36-.08c-.36,0-.71.21-.71,1v.92h.95l-.09.55h-.86v2.91l.77.19-.1.55H56.07l-.1-.55.52-.19V239h-.58l-.08-.5.66-.21v-.59a1.66,1.66,0,0,1,1.71-1.77A1.56,1.56,0,0,1,59.31,236.33Z"/><path class="cls-4" d="M61.91,239a2.33,2.33,0,0,0-.32,0,2.39,2.39,0,0,0-.74.18v2.73l.68.19-.1.55h-2l-.1-.55.51-.19V239h-.36l-.1-.55,1.06-.1.33.23a3.19,3.19,0,0,1,1-.23,2,2,0,0,1,.84.2v1l-.54.11Z"/><path class="cls-4" d="M65,242.62H63.15l-.1-.55.52-.19V239H63.2l-.09-.55,1-.1.5.1v3.46l.52.19Zm-.47-5.69a.57.57,0,0,1-.53.59.57.57,0,0,1-.53-.59.57.57,0,0,1,.53-.58A.56.56,0,0,1,64.55,236.93Z"/><path class="cls-4" d="M66.89,240.35c0,1,.28,1.72,1.11,1.72a2.1,2.1,0,0,0,1.18-.42l.27.46a2.06,2.06,0,0,1-1.49.61,2,2,0,0,1-2.19-2.19A2.07,2.07,0,0,1,68,238.32a2.89,2.89,0,0,1,1.35.38v.86l-.54.11-.18-.67a1.71,1.71,0,0,0-.61-.11C67.34,238.89,66.89,239.44,66.89,240.35Z"/><path class="cls-4" d="M71.56,238.32A1.53,1.53,0,0,1,73.23,240v1.87l.46.19-.1.55h-1l-.25-.2a1.64,1.64,0,0,1-1,.3,1.26,1.26,0,0,1-1.38-1.25c0-1.22,1.3-1.5,2.33-1.5v-.32a.69.69,0,0,0-.7-.76,2.28,2.28,0,0,0-.6.1l-.18.68-.54-.11v-.86A2.9,2.9,0,0,1,71.56,238.32ZM71,241.39a.6.6,0,0,0,.56.68.82.82,0,0,0,.65-.37v-1.17C71.45,240.53,71,240.88,71,241.39Z"/><path class="cls-4" d="M39.3,289.94l-.09.64H36.65l-.09-.64.68-.28v-4.45l-.7-.29.1-.64h2.69a1.76,1.76,0,0,1,1.85,2c0,1.45-1,1.93-2.14,1.93h-.33v-.7h.35a1.12,1.12,0,0,0,1-1.23c0-.75-.28-1.36-1-1.36h-.71v4.74Z"/><path class="cls-4" d="M44.31,287a1.34,1.34,0,0,0-.33,0,2.66,2.66,0,0,0-.73.18v2.73l.67.2-.09.55h-2l-.1-.55.51-.2v-2.91h-.37l-.09-.54,1.06-.1.33.23a3.13,3.13,0,0,1,1.05-.23,2.19,2.19,0,0,1,.84.19v1l-.55.11Z"/><path class="cls-4" d="M49.51,288.47a1.92,1.92,0,0,1-2,2.2,2,2,0,0,1-2-2.2,2,2,0,1,1,4.06,0Zm-3,0c0,1,.35,1.65,1,1.65s1-.65,1-1.65-.39-1.61-1-1.61S46.5,287.46,46.5,288.45Z"/><path class="cls-4" d="M54.56,290l-.09.55H52.6l-.1-.55.52-.2v-2.19a.67.67,0,0,0-.65-.72,2.32,2.32,0,0,0-.71.18v2.73l.52.2-.1.55H50.22l-.1-.55.52-.2v-2.91h-.37l-.09-.54,1-.1.33.23a3.24,3.24,0,0,1,1-.23,1.5,1.5,0,0,1,1.07.33,2.59,2.59,0,0,1,1.16-.33c1.06,0,1.63.54,1.63,1.52v2l.52.2-.1.55H55l-.1-.55.52-.2v-2.11a.76.76,0,0,0-.74-.8,1.62,1.62,0,0,0-.73.18,1.88,1.88,0,0,1,.12.69v2Z"/><path class="cls-4" d="M61.06,289.61l.27.46a2.24,2.24,0,0,1-1.57.61,2,2,0,0,1-2.22-2.21,2,2,0,0,1,2.08-2.19,1.59,1.59,0,0,1,1.78,1.45,1.85,1.85,0,0,1-.18.76H58.65c0,.9.45,1.53,1.15,1.53A2.1,2.1,0,0,0,61.06,289.61Zm-.69-1.94a.74.74,0,0,0-.75-.83c-.53,0-.87.44-.94,1.09h1.67A2.46,2.46,0,0,0,60.37,287.67Z"/><path class="cls-4" d="M64,290.68a1.92,1.92,0,0,1-2-2.17A2,2,0,0,1,64,286.28a2.5,2.5,0,0,1,.71.11V284.5H64.3l-.09-.51,1.07-.14.48.14v5.84l.53.2-.09.55H65.09l-.25-.21A1.41,1.41,0,0,1,64,290.68Zm.09-3.76c-.64,0-1,.56-1,1.5s.4,1.6,1,1.6a1,1,0,0,0,.7-.28V287.1A1.51,1.51,0,0,0,64.08,286.92Z"/><path class="cls-4" d="M68.63,290.58H66.76l-.1-.55.52-.2v-2.91h-.37l-.09-.54,1-.1.5.1v3.45l.52.2Zm-.47-5.69a.53.53,0,1,1-.53-.59A.57.57,0,0,1,68.16,284.89Z"/><path class="cls-4" d="M73.45,288.47a1.92,1.92,0,0,1-2,2.2,2,2,0,0,1-2-2.2,2,2,0,1,1,4.07,0Zm-3,0c0,1,.35,1.65,1,1.65s1-.65,1-1.65-.39-1.61-1-1.61S70.43,287.46,70.43,288.45Z"/><path class="cls-4" d="M46.93,300.83l-.1.55H45l-.1-.55.51-.2v-2.19a.66.66,0,0,0-.64-.72,2.32,2.32,0,0,0-.71.18v2.73l.51.2-.09.55H42.59l-.1-.55.51-.2v-2.91h-.36l-.09-.54,1-.1.33.23a3.24,3.24,0,0,1,1-.23,1.5,1.5,0,0,1,1.07.33,2.51,2.51,0,0,1,1.16-.33,1.41,1.41,0,0,1,1.62,1.52v2l.52.2-.09.55H47.34l-.1-.55.51-.2v-2.11a.76.76,0,0,0-.74-.8,1.61,1.61,0,0,0-.72.18,1.88,1.88,0,0,1,.12.69v2Z"/><path class="cls-4" d="M52.36,297.72l-.09-.53,1-.11.41.13v3.42l.52.2-.09.55H53.05l-.25-.21a1.61,1.61,0,0,1-1.07.31,1.47,1.47,0,0,1-1.49-1.65v-2.11h-.33l-.09-.53,1-.11.47.12v2.71c0,.68.41.91.74.91a1,1,0,0,0,.7-.34v-2.76Z"/><path class="cls-4" d="M56.2,297.9v2.73l.52.2-.09.55H54.75l-.09-.55.51-.2v-2.91h-.36l-.09-.54,1-.1.33.23a3.24,3.24,0,0,1,1-.23,1.41,1.41,0,0,1,1.55,1.52v2l.51.2-.09.55H57.22l-.1-.55.51-.2v-2.17a.71.71,0,0,0-.72-.74A2.32,2.32,0,0,0,56.2,297.9Z"/><path class="cls-4" d="M61.76,301.48a1.92,1.92,0,0,1-2-2.17,2,2,0,0,1,2.06-2.23,2.45,2.45,0,0,1,.71.11V295.3h-.44l-.09-.51,1.08-.14.48.14v5.84l.53.2-.1.55H62.86l-.24-.21A1.44,1.44,0,0,1,61.76,301.48Zm.09-3.76c-.63,0-1,.56-1,1.5s.41,1.6,1,1.6a.93.93,0,0,0,.7-.28V297.9A1.48,1.48,0,0,0,61.85,297.72Z"/><path class="cls-4" d="M66.41,301.38H64.53l-.09-.55.52-.2v-2.91h-.38l-.09-.54,1-.1.49.1v3.45l.52.2Zm-.48-5.69a.56.56,0,0,1-.53.58.59.59,0,1,1,.53-.58Z"/><path class="cls-4" d="M68.75,297.08a1.53,1.53,0,0,1,1.68,1.69v1.86l.46.2-.1.55h-1l-.25-.21a1.64,1.64,0,0,1-1.05.31,1.26,1.26,0,0,1-1.38-1.25c0-1.23,1.3-1.51,2.32-1.51v-.31a.7.7,0,0,0-.69-.77,2.68,2.68,0,0,0-.6.1l-.18.69-.55-.11v-.87A2.94,2.94,0,0,1,68.75,297.08Zm-.55,3.07c0,.51.33.67.56.67a.78.78,0,0,0,.64-.36v-1.18C68.65,299.28,68.2,299.63,68.2,300.15Z"/><path class="cls-4" d="M73.35,301.38h-2l-.1-.55.57-.2V295.3h-.43l-.09-.51,1.06-.14.48.14v5.84l.57.2Z"/><path class="cls-4" d="M48.84,343.79h.84l.25-.73.58.09v2l-.57.09-.26-.73h-.84v2.25h1.61l.43-1.35.58.09v1.9H47.13l-.08-.64.67-.28V342l-.68-.29.09-.64h4.19v1.6l-.59.1-.31-1.06H48.84Z"/><path class="cls-4" d="M54.53,343.73l-.09-.53,1.05-.11.41.13v3.42l.52.2-.1.55h-1.1l-.25-.21a1.63,1.63,0,0,1-1.07.31,1.47,1.47,0,0,1-1.49-1.65v-2.11h-.33L52,343.2l1-.11.47.12v2.71c0,.68.41.91.74.91a.92.92,0,0,0,.69-.34v-2.76Z"/><path class="cls-4" d="M59.43,343.77a1.41,1.41,0,0,0-.33,0,2.66,2.66,0,0,0-.73.18v2.73l.67.2-.09.55h-2l-.09-.55.51-.2v-2.91H57l-.09-.54,1.06-.1.33.23a3.13,3.13,0,0,1,1-.23,2.19,2.19,0,0,1,.84.19v1.05l-.55.11Z"/><path class="cls-4" d="M64.63,345.28a1.92,1.92,0,0,1-2,2.2,2,2,0,0,1-2-2.2,2,2,0,1,1,4.06,0Zm-3,0c0,1,.35,1.65,1,1.65s1-.65,1-1.65-.39-1.61-1-1.61S61.62,344.27,61.62,345.26Z"/><path class="cls-4" d="M67,346.84c.53,0,1.16-.66,1.16-1.74s-.35-1.37-.81-1.37a2.35,2.35,0,0,0-.84.18v4.88l.52.2-.1.55H65.1L65,349l.51-.2v-5.06h-.45l-.1-.54,1.1-.1.35.28a2.48,2.48,0,0,1,1-.28c1.16,0,1.86.69,1.86,2.08a2.17,2.17,0,0,1-2.26,2.22h-.17v-.55Z"/><path class="cls-4" d="M71.56,343.09a1.53,1.53,0,0,1,1.67,1.69v1.86l.46.2-.1.55h-1l-.25-.21a1.64,1.64,0,0,1-1,.31,1.26,1.26,0,0,1-1.38-1.25c0-1.23,1.3-1.51,2.33-1.51v-.31a.7.7,0,0,0-.7-.77,2.78,2.78,0,0,0-.6.1l-.18.69-.54-.11v-.87A2.88,2.88,0,0,1,71.56,343.09ZM71,346.16a.59.59,0,0,0,.56.67.81.81,0,0,0,.65-.36v-1.18C71.45,345.29,71,345.64,71,346.16Z"/><path class="cls-4" d="M42.72,397.1l.72.29-.09.63H41l-.09-.63.64-.29L41.16,396h-1.9l-.39,1.08.76.28-.08.64h-2l-.09-.63.71-.29L40,391.72l.88-.15Zm-2.31-4.34-.91,2.55h1.43l-.52-1.53Z"/><path class="cls-4" d="M48.23,397.48l-.1.54H46.26l-.1-.54.52-.2v-2.2a.66.66,0,0,0-.65-.71,2.26,2.26,0,0,0-.7.18v2.73l.51.2-.1.54H43.88l-.09-.54.51-.2v-2.91h-.37l-.09-.55,1-.1.34.24a3.12,3.12,0,0,1,1-.24,1.5,1.5,0,0,1,1.07.33,2.59,2.59,0,0,1,1.17-.33,1.41,1.41,0,0,1,1.62,1.52v2l.52.2-.1.54H48.63l-.09-.54.51-.2v-2.12a.75.75,0,0,0-.74-.79,1.69,1.69,0,0,0-.73.18,1.83,1.83,0,0,1,.12.68v2Z"/><path class="cls-4" d="M54.72,397.05l.28.46a2.24,2.24,0,0,1-1.58.61,2,2,0,0,1-2.22-2.2,2,2,0,0,1,2.08-2.2,1.6,1.6,0,0,1,1.78,1.46,1.89,1.89,0,0,1-.18.76H52.31c0,.9.45,1.53,1.15,1.53A2,2,0,0,0,54.72,397.05ZM54,395.12a.74.74,0,0,0-.75-.83c-.53,0-.87.44-.94,1.09H54A1.18,1.18,0,0,0,54,395.12Zm-1.09-2.35.6-1.64.79.42-1,1.42Z"/><path class="cls-4" d="M58.23,394.41a1.34,1.34,0,0,0-.33,0,2.41,2.41,0,0,0-.73.18v2.73l.68.2-.1.54h-2l-.1-.54.51-.2v-2.91h-.36l-.1-.55,1.06-.1.33.24a3.12,3.12,0,0,1,1-.24,2,2,0,0,1,.84.2v1l-.54.11Z"/><path class="cls-4" d="M61.34,398H59.47l-.1-.54.52-.2v-2.91h-.37l-.09-.55,1-.1.5.1v3.46l.52.2Zm-.47-5.68a.53.53,0,1,1-.53-.59A.57.57,0,0,1,60.87,392.34Z"/><path class="cls-4" d="M63.21,395.76c0,.94.28,1.71,1.11,1.71a2.1,2.1,0,0,0,1.18-.42l.27.46a2.08,2.08,0,0,1-1.49.61,2,2,0,0,1-2.19-2.19,2.07,2.07,0,0,1,2.21-2.21,2.89,2.89,0,0,1,1.35.38V395l-.55.11-.17-.67a1.73,1.73,0,0,0-.62-.11C63.65,394.29,63.21,394.84,63.21,395.76Z"/><path class="cls-4" d="M67.87,393.72a1.53,1.53,0,0,1,1.68,1.69v1.87l.46.2-.1.54h-1l-.25-.2a1.64,1.64,0,0,1-1,.3,1.26,1.26,0,0,1-1.38-1.25c0-1.22,1.3-1.5,2.33-1.5v-.32a.69.69,0,0,0-.7-.76,2.21,2.21,0,0,0-.6.1l-.18.68L66.5,395v-.86A3,3,0,0,1,67.87,393.72Zm-.55,3.07c0,.51.33.68.56.68a.84.84,0,0,0,.65-.36v-1.18C67.77,395.93,67.32,396.28,67.32,396.79Z"/><path class="cls-4" d="M70.41,397.75v-1.07l.55-.11.28.89a2,2,0,0,0,.52.09c.4,0,.75-.16.75-.49s-.44-.54-.81-.73c-.54-.28-1.27-.65-1.27-1.44s.64-1.17,1.61-1.17a2.36,2.36,0,0,1,1.26.38V395l-.56.11-.17-.69a2.1,2.1,0,0,0-.61-.09.54.54,0,0,0-.59.47c0,.35.65.55,1.06.77s1,.59,1,1.28-.64,1.3-1.63,1.3A3.33,3.33,0,0,1,70.41,397.75Z"/><path class="cls-4" d="M92.66,92.41a1.61,1.61,0,0,1-.92-.26,1.91,1.91,0,0,1-.63-.69,3.68,3.68,0,0,1-.34-1,6.45,6.45,0,0,1-.1-1.17A4.41,4.41,0,0,1,91,87.71a2.45,2.45,0,0,1,.74-1,1.67,1.67,0,0,1,1-.36,1.82,1.82,0,0,1,.94.23,1.79,1.79,0,0,1,.6.65,3.1,3.1,0,0,1,.32,1,5.41,5.41,0,0,1,.09,1.16,4.65,4.65,0,0,1-.26,1.61A2.56,2.56,0,0,1,93.73,92,1.59,1.59,0,0,1,92.66,92.41Zm0-.84a.88.88,0,0,0,.84-.55,3.91,3.91,0,0,0,.27-1.65,5.51,5.51,0,0,0-.11-1.14,1.89,1.89,0,0,0-.36-.78.78.78,0,0,0-.62-.29.9.9,0,0,0-.84.55,3.35,3.35,0,0,0-.29,1.54,5.14,5.14,0,0,0,.12,1.15,2.17,2.17,0,0,0,.36.84A.83.83,0,0,0,92.69,91.57Z"/><path class="cls-4" d="M95.78,93.94v-.1a.82.82,0,0,0,.33-.39,1.39,1.39,0,0,0,.13-.61,1.12,1.12,0,0,0-.06-.35,1.07,1.07,0,0,0-.17-.3.26.26,0,0,0-.21-.14v-.26l.56-.52a.94.94,0,0,1,.4.31,1.68,1.68,0,0,1,.22.47,2.1,2.1,0,0,1,.06.48,2.32,2.32,0,0,1-.13.8,2.12,2.12,0,0,1-.35.61,1.27,1.27,0,0,1-.49.36Z"/><path class="cls-4" d="M98.05,92.35l-.13-.48a6.82,6.82,0,0,0,.71-.57,7.38,7.38,0,0,0,.68-.69,6.15,6.15,0,0,0,.59-.78,4.41,4.41,0,0,0,.41-.81,2.31,2.31,0,0,0,.15-.8,1.18,1.18,0,0,0-.25-.82.85.85,0,0,0-.69-.28,1.53,1.53,0,0,0-.7.16,1.77,1.77,0,0,0-.52.39l-.36-.55a2.26,2.26,0,0,1,.39-.34,2.11,2.11,0,0,1,.58-.3,2,2,0,0,1,.76-.13,1.67,1.67,0,0,1,1,.25,1.47,1.47,0,0,1,.56.65,2.47,2.47,0,0,1,.17.92,3,3,0,0,1-.27,1.22,4.54,4.54,0,0,1-.74,1.18,6.29,6.29,0,0,1-1.09,1l2.31,0v.78Z"/><path class="cls-4" d="M99,143.46a1.66,1.66,0,0,1-.93-.26,2,2,0,0,1-.62-.69,3.37,3.37,0,0,1-.34-1,6.45,6.45,0,0,1-.1-1.17,4.2,4.2,0,0,1,.29-1.58,2.45,2.45,0,0,1,.74-1,1.67,1.67,0,0,1,1-.36,1.78,1.78,0,0,1,.93.23,1.81,1.81,0,0,1,.61.65,3.39,3.39,0,0,1,.32,1,7.09,7.09,0,0,1,.09,1.16,4.65,4.65,0,0,1-.26,1.61,2.56,2.56,0,0,1-.71,1.09A1.6,1.6,0,0,1,99,143.46Zm0-.84a.86.86,0,0,0,.83-.55,3.74,3.74,0,0,0,.28-1.65,5.51,5.51,0,0,0-.11-1.14,1.89,1.89,0,0,0-.36-.78.79.79,0,0,0-.63-.29.9.9,0,0,0-.83.55,3.35,3.35,0,0,0-.29,1.54,5.14,5.14,0,0,0,.12,1.15,2.17,2.17,0,0,0,.36.84A.8.8,0,0,0,99,142.62Z"/><path class="cls-4" d="M102.11,145v-.1a.82.82,0,0,0,.33-.39,1.39,1.39,0,0,0,.13-.61,1.12,1.12,0,0,0-.06-.35,1.07,1.07,0,0,0-.17-.3.29.29,0,0,0-.21-.14v-.26l.55-.52a.89.89,0,0,1,.4.31,1.44,1.44,0,0,1,.22.47,1.69,1.69,0,0,1,.07.48,2.32,2.32,0,0,1-.13.8,1.93,1.93,0,0,1-.36.61,1.24,1.24,0,0,1-.48.36Z"/><path class="cls-4" d="M104.91,143.48h-.23a1.43,1.43,0,0,1-.23,0v-.63h.24a3.07,3.07,0,0,0,1.09-.19,1.85,1.85,0,0,0,.75-.53,1.13,1.13,0,0,0,.27-.74,1,1,0,0,0-.27-.8,1.3,1.3,0,0,0-.88-.24,2,2,0,0,0-.47.05,3.06,3.06,0,0,0-.53.15l-.17-.12.2-3h2.84l-.08.79h-2.1l-.14,1.51.44-.09.4,0a1.59,1.59,0,0,1,1.22.44,1.75,1.75,0,0,1,.41,1.24,1.85,1.85,0,0,1-.18.78,2.16,2.16,0,0,1-.53.7,2.46,2.46,0,0,1-.87.5A3.32,3.32,0,0,1,104.91,143.48Z"/><path class="cls-4" d="M103.45,194.51a1.62,1.62,0,0,1-.93-.26,1.8,1.8,0,0,1-.62-.69,3.38,3.38,0,0,1-.35-1,6.45,6.45,0,0,1-.1-1.17,4.41,4.41,0,0,1,.29-1.58,2.45,2.45,0,0,1,.74-1,1.67,1.67,0,0,1,1-.36,1.61,1.61,0,0,1,1.54.88,3.1,3.1,0,0,1,.32,1,5.41,5.41,0,0,1,.09,1.16,4.65,4.65,0,0,1-.26,1.61,2.56,2.56,0,0,1-.71,1.09A1.58,1.58,0,0,1,103.45,194.51Zm0-.84a.88.88,0,0,0,.84-.55,3.91,3.91,0,0,0,.27-1.65,4.9,4.9,0,0,0-.11-1.14,1.89,1.89,0,0,0-.36-.78.78.78,0,0,0-.62-.29.9.9,0,0,0-.84.55,3.35,3.35,0,0,0-.29,1.54,5.14,5.14,0,0,0,.12,1.15,2.17,2.17,0,0,0,.36.84A.83.83,0,0,0,103.47,193.67Z"/><path class="cls-4" d="M106.56,196v-.1a.82.82,0,0,0,.33-.39,1.39,1.39,0,0,0,.13-.61,1.12,1.12,0,0,0-.06-.35,1.07,1.07,0,0,0-.17-.3.26.26,0,0,0-.21-.14v-.26l.56-.52a.94.94,0,0,1,.4.31,1.68,1.68,0,0,1,.22.47,2.1,2.1,0,0,1,.06.48,2.32,2.32,0,0,1-.13.8,2.12,2.12,0,0,1-.35.61,1.27,1.27,0,0,1-.49.36Z"/><path class="cls-4" d="M109.27,194.45l.37-.87.35-.87.33-.87.32-.87c.1-.29.2-.57.31-.86s.2-.56.29-.84h-2.71v-.76H112l.19.27-2,5.68Z"/><path class="cls-4" d="M109.19,245.5v-4.92l-.41.12-.4.09-.1-.55.39-.15.41-.21a2.84,2.84,0,0,0,.36-.22,2.22,2.22,0,0,0,.24-.19l.4.07v6Z"/><path class="cls-4" d="M111.75,247.09V247a.82.82,0,0,0,.33-.39,1.39,1.39,0,0,0,.13-.61,1.12,1.12,0,0,0-.06-.35,1.07,1.07,0,0,0-.17-.3.26.26,0,0,0-.21-.14v-.26l.56-.52a.94.94,0,0,1,.4.31,1.68,1.68,0,0,1,.22.47,2.1,2.1,0,0,1,.06.48,2.32,2.32,0,0,1-.13.8,2.12,2.12,0,0,1-.35.61,1.27,1.27,0,0,1-.49.36Z"/><path class="cls-4" d="M115.93,245.56a1.66,1.66,0,0,1-.93-.26,2,2,0,0,1-.62-.69,3.37,3.37,0,0,1-.34-1,6.37,6.37,0,0,1-.1-1.17,4.2,4.2,0,0,1,.29-1.58,2.45,2.45,0,0,1,.74-1,1.67,1.67,0,0,1,1-.36,1.78,1.78,0,0,1,.93.23,1.81,1.81,0,0,1,.61.65,3.39,3.39,0,0,1,.32,1,7.09,7.09,0,0,1,.09,1.16,4.65,4.65,0,0,1-.26,1.61,2.56,2.56,0,0,1-.71,1.09A1.6,1.6,0,0,1,115.93,245.56Zm0-.84a.85.85,0,0,0,.83-.55,3.74,3.74,0,0,0,.28-1.65,5.51,5.51,0,0,0-.11-1.14,1.89,1.89,0,0,0-.36-.78.79.79,0,0,0-.63-.29.9.9,0,0,0-.83.55,3.35,3.35,0,0,0-.29,1.54,5.14,5.14,0,0,0,.12,1.15,2.17,2.17,0,0,0,.36.84A.8.8,0,0,0,116,244.72Z"/><path class="cls-4" d="M124.56,296.55v-4.92l-.4.12-.41.09-.1-.55.39-.15.41-.21a2.84,2.84,0,0,0,.36-.22,2.22,2.22,0,0,0,.24-.19l.4.07v6Z"/><path class="cls-4" d="M127.12,298.14V298a.82.82,0,0,0,.33-.39,1.39,1.39,0,0,0,.13-.61,1.12,1.12,0,0,0-.06-.35,1.07,1.07,0,0,0-.17-.3.26.26,0,0,0-.21-.14V296l.56-.52a.94.94,0,0,1,.4.31,1.68,1.68,0,0,1,.22.47,2.1,2.1,0,0,1,.06.48,2.32,2.32,0,0,1-.13.8,2.12,2.12,0,0,1-.35.61,1.27,1.27,0,0,1-.49.36Z"/><path class="cls-4" d="M129.83,296.55l.37-.87.35-.87.33-.87.32-.87c.1-.29.21-.57.31-.86s.2-.56.29-.84h-2.71v-.76h3.46l.19.27-1.95,5.68Z"/><path class="cls-4" d="M159.6,347.58V347l.31.05.3,0a2.87,2.87,0,0,0,.92-.14,1.55,1.55,0,0,0,.62-.4.84.84,0,0,0,.22-.58,1.34,1.34,0,0,0-.12-.58.82.82,0,0,0-.4-.38,1.53,1.53,0,0,0-.72-.1l-.36.1-.17-.62.37-.1a2.52,2.52,0,0,0,.33-.14,1.48,1.48,0,0,0,.59-.43.89.89,0,0,0,.22-.57.68.68,0,0,0-.24-.6,1,1,0,0,0-.6-.17,1.47,1.47,0,0,0-.66.13,2.92,2.92,0,0,0-.47.28l-.31-.54a2.11,2.11,0,0,1,.37-.26,3.37,3.37,0,0,1,.54-.24,1.83,1.83,0,0,1,.62-.1,1.92,1.92,0,0,1,.81.16,1.23,1.23,0,0,1,.79,1.22,1.47,1.47,0,0,1-.17.69,1.74,1.74,0,0,1-.45.53,2.16,2.16,0,0,1-.61.34v-.12a1.68,1.68,0,0,1,.84.2,1.32,1.32,0,0,1,.51.54,1.46,1.46,0,0,1,.18.7,1.52,1.52,0,0,1-.3.9,2.09,2.09,0,0,1-.85.68,3.09,3.09,0,0,1-1.31.26,2.86,2.86,0,0,1-.42,0Z"/><path class="cls-4" d="M163.79,349.19v-.1a.82.82,0,0,0,.33-.39,1.39,1.39,0,0,0,.13-.61,1.12,1.12,0,0,0-.06-.35,1.07,1.07,0,0,0-.17-.3.29.29,0,0,0-.21-.14V347l.55-.52a.89.89,0,0,1,.4.31,1.44,1.44,0,0,1,.22.47,1.69,1.69,0,0,1,.07.48,2.32,2.32,0,0,1-.13.8,1.83,1.83,0,0,1-.36.61,1.17,1.17,0,0,1-.48.36Z"/><path class="cls-4" d="M166.59,347.68h-.23a1.6,1.6,0,0,1-.23,0V347h.24a2.86,2.86,0,0,0,1.09-.19,1.85,1.85,0,0,0,.75-.53,1.14,1.14,0,0,0,.28-.74,1,1,0,0,0-.28-.8,1.3,1.3,0,0,0-.88-.24,2,2,0,0,0-.47.05,4.32,4.32,0,0,0-.53.15l-.17-.12.2-3h2.84l-.08.79H167l-.14,1.51.44-.09.4,0a1.57,1.57,0,0,1,1.22.44,1.75,1.75,0,0,1,.41,1.24,1.85,1.85,0,0,1-.18.78,2.16,2.16,0,0,1-.53.7,2.46,2.46,0,0,1-.87.5A3.32,3.32,0,0,1,166.59,347.68Z"/><path class="cls-4" d="M194.3,398.73h-.22a.75.75,0,0,1-.23,0v-.63h.23a2.86,2.86,0,0,0,1.09-.19,1.85,1.85,0,0,0,.75-.53,1.09,1.09,0,0,0,.28-.74,1,1,0,0,0-.28-.8,1.3,1.3,0,0,0-.88-.24,2,2,0,0,0-.47.05l-.52.15-.18-.12.21-2.95h2.84l-.09.79h-2.1l-.14,1.51.44-.09.4,0a1.57,1.57,0,0,1,1.22.44,1.7,1.7,0,0,1,.41,1.24,1.85,1.85,0,0,1-.18.78,2,2,0,0,1-.53.7,2.5,2.5,0,0,1-.86.5A3.38,3.38,0,0,1,194.3,398.73Z"/><path class="cls-4" d="M198,400.24v-.1a.82.82,0,0,0,.33-.39,1.39,1.39,0,0,0,.13-.61,1.12,1.12,0,0,0-.06-.35,1.07,1.07,0,0,0-.17-.3.26.26,0,0,0-.21-.14v-.26l.56-.52a.94.94,0,0,1,.4.31,1.68,1.68,0,0,1,.22.47,2.1,2.1,0,0,1,.06.48,2.32,2.32,0,0,1-.13.8,2,2,0,0,1-.35.61,1.27,1.27,0,0,1-.49.36Z"/><path class="cls-4" d="M200.79,398.65v-4.92l-.41.12-.41.09-.09-.55.38-.15c.14-.07.28-.13.41-.21a4,4,0,0,0,.37-.22l.24-.19.39.07v6Z"/></g></svg>