<?xml version="1.0" encoding="utf-8"?>
<!-- Generator: Adobe Illustrator 25.2.0, SVG Export Plug-In . SVG Version: 6.00 Build 0)  -->
<svg version="1.1" id="Camada_1" xmlns="http://www.w3.org/2000/svg" xmlns:xlink="http://www.w3.org/1999/xlink" x="0px" y="0px"
	 viewBox="0 0 292.8 432.9" style="enable-background:new 0 0 292.8 432.9;" xml:space="preserve">
<style type="text/css">
	.st0{opacity:0;fill:#EFEFEF;}
	.st1{fill:#FFFFFF;}
	.st2{fill:#FF278F;}
	.st3{display:none;}
	.st4{display:inline;}
	.st5{fill:none;}
	.st6{fill:none;stroke:#B9B9DB;stroke-linecap:round;stroke-linejoin:round;}
	.st7{fill:none;stroke:#B9B9DB;stroke-linecap:round;stroke-linejoin:round;stroke-dasharray:0.5056,5.0559;}
	.st8{fill:#A3A3C6;}
	.st9{fill:none;stroke:#B9B9DB;stroke-linecap:round;stroke-linejoin:round;stroke-dasharray:0.5014,5.0142;}
	.st10{fill:#FF36CE;}
	.st11{fill:#6660E2;}
	.st12{fill:#FF2B8C;}
	.st13{fill:#6960E3;}
	.st14{fill:#FFFFFF;stroke:#6960E3;stroke-width:0.4883;stroke-miterlimit:10;}
	.st15{fill:none;stroke:#6960E3;stroke-width:2.2432;stroke-miterlimit:10;}
	.st16{fill:none;stroke:#FFFFFF;stroke-width:2;stroke-linecap:round;stroke-linejoin:round;stroke-miterlimit:10;}
	.st17{fill:#6960E5;}
	.st18{opacity:0.5;fill:#FF2B8C;}
	.st19{fill:none;stroke:#6960E5;stroke-width:1.5;stroke-miterlimit:10;}
	.st20{fill:none;stroke:#6960E5;stroke-miterlimit:10;}
	.st21{fill:none;stroke:#6960E5;stroke-width:1.5;stroke-linecap:round;stroke-miterlimit:10;}
	.st22{opacity:0.5;fill:#FF36CE;}
	.st23{fill:none;stroke:#6960E5;stroke-width:1.6291;stroke-linecap:round;stroke-miterlimit:10;}
	.st24{fill:#6960E5;stroke:#6960E5;stroke-width:1.7621;stroke-miterlimit:10;}
	.st25{fill:#FFFFFF;stroke:#6960E5;stroke-width:1.3628;stroke-miterlimit:10;}
	.st26{opacity:0.26;}
	.st27{fill:#FFA9EA;}
	.st28{fill:none;stroke:#FFFFFF;stroke-width:1.5;stroke-linecap:round;stroke-linejoin:round;stroke-miterlimit:10;}
	.st29{opacity:0.2;fill:#FD2B8A;}
	.st30{opacity:0.5;}
	.st31{fill:#FD2B8A;}
</style>
<rect id="Fundo" class="st0" width="292.8" height="432.9"/>
<path id="Seta" class="st1" d="M267.6,409.7H14.7c-3.1,0-5.7-3-5.7-6.8v-37.3c0-3.8,2.5-6.8,5.7-6.8h253c1.7,0,3.3,0.9,4.4,2.5
	l11.9,17.6c1.6,2.4,1.7,5.8,0.2,8.3l-12.1,19.7C271.1,408.6,269.4,409.7,267.6,409.7z"/>
<g id="Título_direita">
	<g>
		<path class="st2" d="M290.1,31.4H15c-3.1,0-5.7-2.5-5.7-5.7v-4.6c0-7.8,6.3-14.2,14.2-14.2h266.6c1.6,0,2.8,1.3,2.8,2.8v18.8
			C292.9,30.1,291.7,31.4,290.1,31.4z"/>
	</g>
	<g>
		<path class="st1" d="M57.6,23.7l1-0.4v-5.9l-1-0.4l0.1-0.9h3.6c3,0,4.4,1.8,4.4,4.1s-1.4,4.3-4.4,4.3h-3.5L57.6,23.7z M60.3,23.7
			h1c1.8,0,2.6-1.6,2.6-3.4c0-1.8-0.8-3.3-2.6-3.3h-1V23.7z"/>
		<path class="st1" d="M75,20.3c0,2.5-1.3,4.4-4.1,4.4c-2.9,0-4.1-2.2-4.1-4.4c0-2.2,1.5-4.4,4.1-4.4C73.5,15.9,75,17.9,75,20.3z
			 M68.5,20.3c0,2.3,0.8,3.5,2.3,3.5c1.6,0,2.4-1.2,2.4-3.5c0-2.2-0.8-3.3-2.4-3.3S68.5,18,68.5,20.3z"/>
		<path class="st1" d="M79.2,15.9c0.9,0,1.8,0.3,2.6,0.8v1.9l-0.9,0.1l-0.6-1.6c-0.3-0.1-0.8-0.2-1.1-0.2c-0.9,0-1.4,0.4-1.4,1.1
			c0,0.9,1.4,1.3,1.9,1.6c1.3,0.5,2.5,1.3,2.5,2.8c0,1.4-1,2.4-3.2,2.4c-1,0-2-0.3-2.7-0.8V22l0.9-0.1l0.6,1.6
			c0.3,0.1,0.8,0.3,1.1,0.3c1,0,1.8-0.4,1.8-1c0-0.9-1.4-1.4-2.3-1.8c-0.9-0.5-2.1-1-2.1-2.7C76.3,16.7,77.7,15.9,79.2,15.9z"/>
		<path class="st1" d="M85.8,19.7H87l0.4-1l0.9,0.1v2.7l-0.9,0.1l-0.4-1h-1.2v3h2.4l0.6-1.8l0.9,0.1v2.5h-6.4l-0.1-0.9l1-0.4v-5.9
			l-1-0.4l0.1-0.9h6.2v2.1l-0.9,0.1L88.1,17h-2.3V19.7z"/>
		<path class="st1" d="M93.6,15.9c0.9,0,1.8,0.3,2.6,0.8v1.9l-0.9,0.1l-0.6-1.6c-0.3-0.1-0.8-0.2-1.1-0.2c-0.9,0-1.4,0.4-1.4,1.1
			c0,0.9,1.4,1.3,1.9,1.6c1.3,0.5,2.5,1.3,2.5,2.8c0,1.4-1,2.4-3.2,2.4c-1,0-2-0.3-2.7-0.8V22l0.9-0.1l0.6,1.6
			c0.3,0.1,0.8,0.3,1.1,0.3c1,0,1.8-0.4,1.8-1c0-0.9-1.4-1.4-2.3-1.8c-0.9-0.5-2.1-1-2.1-2.7C90.6,16.7,92,15.9,93.6,15.9z"/>
		<path class="st1" d="M100.5,23.7l1-0.4v-5.9l-1-0.4l0.1-0.9h3.6c3,0,4.4,1.8,4.4,4.1s-1.4,4.3-4.4,4.3h-3.5L100.5,23.7z
			 M103.1,23.7h1c1.8,0,2.6-1.6,2.6-3.4c0-1.8-0.8-3.3-2.6-3.3h-1V23.7z"/>
		<path class="st1" d="M111.9,19.7h1.2l0.4-1l0.9,0.1v2.7l-0.9,0.1l-0.4-1h-1.2v3h2.4l0.6-1.8l0.9,0.1v2.5h-6.4l-0.1-0.9l1-0.4v-5.9
			l-1-0.4l0.1-0.9h6.2v2.1l-0.9,0.1l-0.5-1.4h-2.3V19.7z"/>
		<path class="st1" d="M127.2,23.3l1.1,0.4l-0.1,0.9h-3.5l-0.1-0.9l0.9-0.4l-0.5-1.4h-2.8l-0.6,1.4l1.1,0.4l-0.1,0.9h-3l-0.1-0.9
			l1-0.4l2.8-7.2l1.3-0.2L127.2,23.3z M123.8,17.5l-1.3,3.4h2.1l-0.8-2V17.5z M123.2,15.1l1.5-1.9l1,0.9l-2.1,1.3L123.2,15.1z"/>
		<path class="st1" d="M132.4,17l-1,0.4v6.3h2.3l0.7-1.8l0.9,0.1v2.5h-6.4l-0.1-0.9l1-0.4v-5.9l-1-0.4l0.1-0.9h3.4L132.4,17z"/>
		<path class="st1" d="M141.5,23.6l0.6-1.7L143,22v1.9c-0.7,0.5-1.9,0.8-2.8,0.8c-3.1,0-4.4-2.2-4.4-4.4c0-2.2,1.5-4.4,4.4-4.4
			c1.1,0,1.9,0.3,2.8,0.8v1.9l-0.9,0.1l-0.6-1.6c-0.4-0.1-1-0.2-1.4-0.2c-1.7,0-2.6,1.1-2.6,3.3c0,1.6,0.5,3.5,2.6,3.5
			C140.5,23.7,141.1,23.7,141.5,23.6z"/>
		<path class="st1" d="M152.1,20.3c0,2.5-1.3,4.4-4.1,4.4s-4.1-2.2-4.1-4.4c0-2.2,1.5-4.4,4.1-4.4S152.1,17.9,152.1,20.3z
			 M145.7,20.3c0,2.3,0.8,3.5,2.3,3.5c1.6,0,2.4-1.2,2.4-3.5c0-2.2-0.8-3.3-2.4-3.3S145.7,18,145.7,20.3z"/>
		<path class="st1" d="M161.8,20.3c0,2.5-1.3,4.4-4.1,4.4s-4.1-2.2-4.1-4.4c0-2.2,1.5-4.4,4.1-4.4S161.8,17.9,161.8,20.3z
			 M155.4,20.3c0,2.3,0.8,3.5,2.3,3.5c1.6,0,2.4-1.2,2.4-3.5c0-2.2-0.8-3.3-2.4-3.3S155.4,18,155.4,20.3z"/>
		<path class="st1" d="M166.7,17l-1,0.4v6.3h2.3l0.7-1.8l0.9,0.1v2.5h-6.4l-0.1-0.9l1-0.4v-5.9l-1-0.4l0.1-0.9h3.4L166.7,17z"/>
		<path class="st1" d="M177.1,23.7l-0.1,0.9h-3.8l-0.1-0.9l1-0.4v-5.9l-1-0.4l0.1-0.9h4c1.8,0,2.7,1.1,2.7,2.7
			c0,1.9-1.5,2.6-3.2,2.6h-0.5v-0.9h0.5c0.9,0,1.5-0.8,1.5-1.6c0-1-0.4-1.8-1.5-1.8h-1v6.3L177.1,23.7z"/>
		<path class="st1" d="M189.2,20.3c0,2.5-1.3,4.4-4.1,4.4s-4.1-2.2-4.1-4.4c0-2.2,1.5-4.4,4.1-4.4S189.2,17.9,189.2,20.3z
			 M182.7,20.3c0,2.3,0.8,3.5,2.3,3.5c1.6,0,2.4-1.2,2.4-3.5c0-2.2-0.8-3.3-2.4-3.3S182.7,18,182.7,20.3z"/>
		<path class="st1" d="M194,23.7l-0.1,0.9h-3.4l-0.1-0.9l1-0.4v-5.9l-1-0.4l0.1-0.9h4.1c1.8,0,2.8,0.9,2.8,2.4
			c0,1.3-1.3,2.2-2.5,2.2l0.8,0.4l1.2,2.1l1,0.4l-0.1,0.9h-2.6l0.1-0.7l-1.8-3.1V20h0.8c0.9,0,1.5-0.8,1.5-1.5
			c0-0.9-0.5-1.6-1.6-1.6H193v6.3L194,23.7z"/>
		<path class="st1" d="M201.6,23.7l1-0.4v-5.9l-1-0.4l0.1-0.9h4.3c1.2,0,2.2,0.9,2.2,2c0,0.7-0.4,1.3-0.9,1.7c1,0.3,1.7,1.2,1.7,2.3
			c0,1.3-1.1,2.4-2.8,2.4h-4.5L201.6,23.7z M205.9,23.7c0.8,0,1.3-0.8,1.3-1.7s-0.7-1.6-1.6-1.6h-0.9v-0.9h0.5
			c0.7,0,1.2-0.5,1.2-1.2s-0.3-1.3-1.3-1.3h-0.9v6.7H205.9z"/>
		<path class="st1" d="M212.7,19.7h1.2l0.4-1l0.9,0.1v2.7l-0.9,0.1l-0.4-1h-1.2v3h2.4l0.6-1.8l0.9,0.1v2.5h-6.4l-0.1-0.9l1-0.4v-5.9
			l-1-0.4l0.1-0.9h6.2v2.1l-0.9,0.1L215,17h-2.3V19.7z"/>
		<path class="st1" d="M217.4,23.7l1-0.4v-5.9l-1-0.4l0.1-0.9h4.3c1.2,0,2.2,0.9,2.2,2c0,0.7-0.4,1.3-0.9,1.7c1,0.3,1.7,1.2,1.7,2.3
			c0,1.3-1.1,2.4-2.8,2.4h-4.5L217.4,23.7z M221.7,23.7c0.8,0,1.3-0.8,1.3-1.7s-0.7-1.6-1.6-1.6h-0.9v-0.9h0.5
			c0.7,0,1.2-0.5,1.2-1.2S221.9,17,221,17h-0.9v6.7H221.7z"/>
		<path class="st1" d="M229.9,23.7l-0.1,0.9h-3.4l-0.1-0.9l1-0.4v-5.9l-1-0.4l0.1-0.9h3.4l0.1,0.9l-1,0.4v5.9L229.9,23.7z"/>
		<path class="st1" d="M231,23.7l1-0.4v-5.9l-1-0.4l0.1-0.9h3.5c3,0,4.4,1.8,4.4,4.1s-1.4,4.3-4.4,4.3h-3.5L231,23.7z M233.7,23.7h1
			c1.8,0,2.6-1.6,2.6-3.4c0-1.8-0.8-3.3-2.6-3.3h-1V23.7z"/>
		<path class="st1" d="M246.9,23.3l1.1,0.4l-0.1,0.9h-3.5l-0.1-0.9l0.9-0.4l-0.5-1.4h-2.8l-0.6,1.4l1.1,0.4l-0.1,0.9h-3l-0.1-0.9
			l1-0.4l2.8-7.2l1.3-0.2L246.9,23.3z M243.5,17.5l-1.3,3.4h2.1l-0.8-2V17.5z"/>
	</g>
</g>
<g id="Título_esquerda" class="st3">
	<g class="st4">
		<path class="st2" d="M0,32h278.5c3.6,0,6.4-2.9,6.4-6.4v-3.7c0-7.9-6.4-14.3-14.3-14.3H0L0,32z"/>
	</g>
	<g id="Título_1_" class="st4">
		<rect x="44.2" y="16.2" class="st5" width="197.1" height="18.7"/>
		<path class="st1" d="M44.7,24.3l1-0.4V18l-1-0.4l0.1-0.9h3.6c3,0,4.4,1.8,4.4,4.1s-1.4,4.3-4.4,4.3h-3.5L44.7,24.3z M47.3,24.3h1
			c1.8,0,2.6-1.6,2.6-3.4c0-1.8-0.8-3.3-2.6-3.3h-1V24.3z"/>
		<path class="st1" d="M62,21c0,2.5-1.3,4.4-4.1,4.4c-2.9,0-4.1-2.2-4.1-4.4c0-2.2,1.5-4.4,4.1-4.4C60.6,16.6,62,18.5,62,21z
			 M55.6,20.9c0,2.3,0.8,3.5,2.3,3.5c1.6,0,2.4-1.2,2.4-3.5c0-2.2-0.8-3.3-2.4-3.3S55.6,18.6,55.6,20.9z"/>
		<path class="st1" d="M66.3,16.6c0.9,0,1.8,0.3,2.6,0.8v1.9L68,19.3l-0.6-1.6c-0.3-0.1-0.8-0.2-1.1-0.2c-0.9,0-1.4,0.4-1.4,1.1
			c0,0.9,1.4,1.3,1.9,1.6c1.3,0.5,2.5,1.3,2.5,2.8c0,1.4-1,2.4-3.2,2.4c-1,0-2-0.3-2.7-0.8v-1.9l0.9-0.1l0.6,1.6
			c0.3,0.1,0.8,0.3,1.1,0.3c1,0,1.8-0.4,1.8-1c0-0.9-1.4-1.4-2.3-1.8c-0.9-0.5-2.1-1-2.1-2.7C63.4,17.3,64.8,16.6,66.3,16.6z"/>
		<path class="st1" d="M72.8,20.4h1.2l0.4-1l0.9,0.1v2.7l-0.9,0.1l-0.4-1h-1.2v3h2.4l0.6-1.8l0.9,0.1v2.5h-6.4l-0.1-0.9l1-0.4V18
			l-1-0.4l0.1-0.9h6.2v2.1L75.6,19l-0.5-1.4h-2.3V20.4z"/>
		<path class="st1" d="M80.6,16.6c0.9,0,1.8,0.3,2.6,0.8v1.9l-0.9,0.1l-0.6-1.6c-0.3-0.1-0.8-0.2-1.1-0.2c-0.9,0-1.4,0.4-1.4,1.1
			c0,0.9,1.4,1.3,1.9,1.6c1.3,0.5,2.5,1.3,2.5,2.8c0,1.4-1,2.4-3.2,2.4c-1,0-2-0.3-2.7-0.8v-1.9l0.9-0.1l0.6,1.6
			c0.3,0.1,0.8,0.3,1.1,0.3c1,0,1.8-0.4,1.8-1c0-0.9-1.4-1.4-2.3-1.8c-0.9-0.5-2.1-1-2.1-2.7C77.7,17.3,79.1,16.6,80.6,16.6z"/>
		<path class="st1" d="M87.5,24.3l1-0.4V18l-1-0.4l0.1-0.9h3.6c3,0,4.4,1.8,4.4,4.1s-1.4,4.3-4.4,4.3h-3.5L87.5,24.3z M90.2,24.3h1
			c1.8,0,2.6-1.6,2.6-3.4c0-1.8-0.8-3.3-2.6-3.3h-1V24.3z"/>
		<path class="st1" d="M99,20.4h1.2l0.4-1l0.9,0.1v2.7l-0.9,0.1l-0.4-1H99v3h2.4l0.6-1.8l0.9,0.1v2.5h-6.4l-0.1-0.9l1-0.4V18l-1-0.4
			l0.1-0.9h6.2v2.1l-0.9,0.1l-0.5-1.4H99V20.4z"/>
		<path class="st1" d="M114.2,23.9l1.1,0.4l-0.1,0.9h-3.5l-0.1-0.9l0.9-0.4l-0.5-1.4h-2.8l-0.6,1.4l1.1,0.4l-0.1,0.9h-3l-0.1-0.9
			l1-0.4l2.8-7.2l1.3-0.2L114.2,23.9z M110.8,18.1l-1.3,3.4h2.1l-0.8-2V18.1z M110.2,15.7l1.5-1.9l1,0.9l-2.1,1.3L110.2,15.7z"/>
		<path class="st1" d="M119.5,17.6l-1,0.4v6.3h2.3l0.7-1.8l0.9,0.1v2.5h-6.4l-0.1-0.9l1-0.4V18l-1-0.4l0.1-0.9h3.4L119.5,17.6z"/>
		<path class="st1" d="M128.6,24.2l0.6-1.7l0.9,0.1v1.9c-0.7,0.5-1.9,0.8-2.8,0.8c-3.1,0-4.4-2.2-4.4-4.4c0-2.2,1.5-4.4,4.4-4.4
			c1.1,0,1.9,0.3,2.8,0.8v1.9l-0.9,0.1l-0.6-1.6c-0.4-0.1-1-0.2-1.4-0.2c-1.7,0-2.6,1.1-2.6,3.3c0,1.6,0.5,3.5,2.6,3.5
			C127.5,24.3,128.2,24.3,128.6,24.2z"/>
		<path class="st1" d="M139.2,21c0,2.5-1.3,4.4-4.1,4.4s-4.1-2.2-4.1-4.4c0-2.2,1.5-4.4,4.1-4.4S139.2,18.5,139.2,21z M132.7,20.9
			c0,2.3,0.8,3.5,2.3,3.5c1.6,0,2.4-1.2,2.4-3.5c0-2.2-0.8-3.3-2.4-3.3S132.7,18.6,132.7,20.9z"/>
		<path class="st1" d="M148.9,21c0,2.5-1.3,4.4-4.1,4.4s-4.1-2.2-4.1-4.4c0-2.2,1.5-4.4,4.1-4.4S148.9,18.5,148.9,21z M142.4,20.9
			c0,2.3,0.8,3.5,2.3,3.5c1.6,0,2.4-1.2,2.4-3.5c0-2.2-0.8-3.3-2.4-3.3S142.4,18.6,142.4,20.9z"/>
		<path class="st1" d="M153.7,17.6l-1,0.4v6.3h2.3l0.7-1.8l0.9,0.1v2.5h-6.4l-0.1-0.9l1-0.4V18l-1-0.4l0.1-0.9h3.4L153.7,17.6z"/>
		<path class="st1" d="M164.1,24.3l-0.1,0.9h-3.8l-0.1-0.9l1-0.4V18l-1-0.4l0.1-0.9h4c1.8,0,2.7,1.1,2.7,2.7c0,1.9-1.5,2.6-3.2,2.6
			h-0.5v-0.9h0.5c0.9,0,1.5-0.8,1.5-1.6c0-1-0.4-1.8-1.5-1.8h-1v6.3L164.1,24.3z"/>
		<path class="st1" d="M176.3,21c0,2.5-1.3,4.4-4.1,4.4S168,23.2,168,21c0-2.2,1.5-4.4,4.1-4.4S176.3,18.5,176.3,21z M169.8,20.9
			c0,2.3,0.8,3.5,2.3,3.5c1.6,0,2.4-1.2,2.4-3.5c0-2.2-0.8-3.3-2.4-3.3S169.8,18.6,169.8,20.9z"/>
		<path class="st1" d="M181.1,24.3l-0.1,0.9h-3.4l-0.1-0.9l1-0.4V18l-1-0.4l0.1-0.9h4.1c1.8,0,2.8,0.9,2.8,2.4
			c0,1.3-1.3,2.2-2.5,2.2l0.8,0.4l1.2,2.1l1,0.4l-0.1,0.9h-2.6l0.1-0.7l-1.8-3.1v-0.8h0.8c0.9,0,1.5-0.8,1.5-1.5
			c0-0.9-0.5-1.6-1.6-1.6h-1.2v6.3L181.1,24.3z"/>
		<path class="st1" d="M188.7,24.3l1-0.4V18l-1-0.4l0.1-0.9h4.3c1.2,0,2.2,0.9,2.2,2c0,0.7-0.4,1.3-0.9,1.7c1,0.3,1.7,1.2,1.7,2.3
			c0,1.3-1.1,2.4-2.8,2.4h-4.5L188.7,24.3z M193,24.3c0.8,0,1.3-0.8,1.3-1.7s-0.7-1.6-1.6-1.6h-0.9v-0.9h0.5c0.7,0,1.2-0.5,1.2-1.2
			s-0.3-1.3-1.3-1.3h-0.9v6.7H193z"/>
		<path class="st1" d="M199.8,20.4h1.2l0.4-1l0.9,0.1v2.7l-0.9,0.1l-0.4-1h-1.2v3h2.4l0.6-1.8l0.9,0.1v2.5h-6.4l-0.1-0.9l1-0.4V18
			l-1-0.4l0.1-0.9h6.2v2.1l-0.9,0.1l-0.5-1.4h-2.3V20.4z"/>
		<path class="st1" d="M204.5,24.3l1-0.4V18l-1-0.4l0.1-0.9h4.3c1.2,0,2.2,0.9,2.2,2c0,0.7-0.4,1.3-0.9,1.7c1,0.3,1.7,1.2,1.7,2.3
			c0,1.3-1.1,2.4-2.8,2.4h-4.5L204.5,24.3z M208.8,24.3c0.8,0,1.3-0.8,1.3-1.7s-0.7-1.6-1.6-1.6h-0.9v-0.9h0.5
			c0.7,0,1.2-0.5,1.2-1.2s-0.3-1.3-1.3-1.3h-0.9v6.7H208.8z"/>
		<path class="st1" d="M216.9,24.3l-0.1,0.9h-3.4l-0.1-0.9l1-0.4V18l-1-0.4l0.1-0.9h3.4l0.1,0.9l-1,0.4v5.9L216.9,24.3z"/>
		<path class="st1" d="M218.1,24.3l1-0.4V18l-1-0.4l0.1-0.9h3.5c3,0,4.4,1.8,4.4,4.1s-1.4,4.3-4.4,4.3h-3.5L218.1,24.3z M220.7,24.3
			h1c1.8,0,2.6-1.6,2.6-3.4c0-1.8-0.8-3.3-2.6-3.3h-1V24.3z"/>
		<path class="st1" d="M234,23.9l1.1,0.4l-0.1,0.9h-3.5l-0.1-0.9l0.9-0.4l-0.5-1.4h-2.8l-0.6,1.4l1.1,0.4l-0.1,0.9h-3l-0.1-0.9
			l1-0.4l2.8-7.2l1.3-0.2L234,23.9z M230.6,18.1l-1.3,3.4h2.1l-0.8-2V18.1z"/>
	</g>
</g>
<g id="Medida_destilados">
	<g>
		<g>
			<path class="st6" d="M38.1,228c0,0.1,0.1,0.1,0.1,0.2"/>
			<path class="st7" d="M41.1,232.4c23.6,33.1,64.2,51,103.5,51.3"/>
			<path class="st6" d="M147.2,283.8c0.1,0,0.2,0,0.2,0"/>
		</g>
	</g>
	<g>
		<g>
			<path class="st8" d="M75.5,275.4l0-0.5c0.2-0.1,0.4-0.3,0.6-0.4c0.2-0.1,0.4-0.3,0.5-0.4c0.2-0.1,0.4-0.3,0.5-0.4
				s0.3-0.3,0.5-0.4s0.3-0.3,0.5-0.4c0.2-0.1,0.4-0.3,0.5-0.4c0.2-0.1,0.4-0.3,0.6-0.4l0.2,0.1l0.3,0.6c-0.2,0.1-0.3,0.2-0.5,0.4
				c-0.2,0.1-0.3,0.2-0.5,0.4c-0.2,0.1-0.3,0.2-0.4,0.4s-0.3,0.2-0.4,0.3c-0.2,0.1-0.3,0.2-0.5,0.4c-0.2,0.1-0.3,0.2-0.5,0.4
				l-0.6,0.4l3,1.6l-0.3,0.6L75.5,275.4z M77.1,277.6l0.9-1.7l1-1.6l0.7,0.4l-1.9,3.4L77.1,277.6z"/>
			<path class="st8" d="M79.5,278.9l0.3-0.6c0.1,0.1,0.2,0.1,0.3,0.2c0.1,0.1,0.2,0.1,0.3,0.2c0.3,0.2,0.6,0.3,0.9,0.3
				c0.3,0,0.5,0,0.7-0.1c0.2-0.1,0.4-0.2,0.5-0.4c0.1-0.2,0.1-0.4,0.1-0.6c0-0.2-0.1-0.4-0.2-0.5c-0.1-0.2-0.3-0.3-0.6-0.4l-0.4-0.1
				l0.1-0.6c0.1,0,0.3,0.1,0.4,0.1c0.1,0,0.2,0,0.4,0c0.3,0,0.5,0,0.7-0.1c0.2-0.1,0.4-0.2,0.5-0.4c0.1-0.2,0.1-0.5,0.1-0.6
				c-0.1-0.2-0.2-0.3-0.5-0.4c-0.2-0.1-0.5-0.2-0.7-0.2c-0.2,0-0.4,0-0.5,0l0-0.6c0.1,0,0.3-0.1,0.5-0.1c0.2,0,0.4,0,0.6,0
				c0.2,0,0.4,0.1,0.6,0.2c0.3,0.1,0.5,0.3,0.7,0.5c0.2,0.2,0.3,0.4,0.3,0.7c0,0.2,0,0.5-0.1,0.8c-0.1,0.2-0.3,0.4-0.5,0.5
				c-0.2,0.1-0.4,0.2-0.7,0.3s-0.5,0.1-0.7,0l0.1-0.1c0.3,0.1,0.5,0.3,0.7,0.6s0.2,0.5,0.2,0.7c0,0.2,0,0.5-0.2,0.7
				c-0.1,0.3-0.4,0.5-0.7,0.7c-0.3,0.2-0.7,0.2-1.1,0.2c-0.4,0-0.8-0.1-1.3-0.4c-0.1-0.1-0.3-0.1-0.4-0.2
				C79.7,279,79.6,278.9,79.5,278.9z"/>
			<path class="st8" d="M83.6,280.9l1.8-4.1l0.7,0.3l-0.2,0.4c0.1,0,0.3,0,0.4-0.1c0.2,0,0.4,0,0.5,0s0.4,0.1,0.5,0.1
				c0.3,0.1,0.5,0.3,0.6,0.4c0.1,0.2,0.2,0.4,0.1,0.7s-0.1,0.6-0.3,1l-1.1,2.5l-0.8-0.4l1.1-2.5c0.1-0.2,0.2-0.4,0.2-0.6
				c0-0.2,0-0.3-0.1-0.4s-0.2-0.2-0.4-0.3c-0.1-0.1-0.3-0.1-0.5-0.1c-0.2,0-0.4,0-0.6,0.1l-1.4,3.1L83.6,280.9z M88.1,279.2l0.1-0.6
				c0.1,0,0.3-0.1,0.5-0.1c0.2,0,0.4,0,0.6,0c0.2,0,0.4,0.1,0.6,0.2c0.3,0.1,0.5,0.3,0.6,0.4s0.2,0.4,0.2,0.7c0,0.3-0.1,0.6-0.3,1
				l-1.1,2.5l-0.8-0.4l1.1-2.5c0.1-0.2,0.2-0.4,0.2-0.6s0-0.3-0.1-0.4c-0.1-0.1-0.2-0.2-0.4-0.3c-0.1-0.1-0.3-0.1-0.5-0.1
				C88.4,279.2,88.2,279.2,88.1,279.2z"/>
			<path class="st8" d="M90.4,283.9l2.4-6l0.8,0.3l-2.4,6L90.4,283.9z"/>
		</g>
	</g>
</g>
<g id="Medida_cervejas">
	<g>
		<g>
			<path class="st6" d="M40,122.7c0,0,0-0.1,0.1-0.1"/>
			<path class="st9" d="M42.9,118.5c48.4-68.5,163-67.7,210.4,6.2"/>
			<path class="st6" d="M254.7,127c0,0,0,0.1,0.1,0.1"/>
		</g>
	</g>
	<g>
		<path class="st8" d="M193.1,72.1l0.2-0.6c0.1,0.1,0.2,0.1,0.3,0.2s0.2,0.1,0.3,0.1c0.3,0.1,0.6,0.2,0.9,0.2c0.3,0,0.5,0,0.7-0.1
			c0.2-0.1,0.3-0.3,0.4-0.5c0.1-0.2,0.1-0.4,0.1-0.6s-0.1-0.4-0.2-0.5s-0.4-0.3-0.7-0.3l-0.4,0l0.1-0.6c0.1,0,0.3,0,0.4,0
			c0.1,0,0.2,0,0.4,0c0.3,0,0.5-0.1,0.7-0.2c0.2-0.1,0.3-0.3,0.4-0.5c0.1-0.3,0.1-0.5,0-0.6c-0.1-0.2-0.3-0.3-0.5-0.4
			c-0.2-0.1-0.5-0.1-0.7-0.1c-0.2,0-0.4,0-0.5,0.1l-0.1-0.6c0.1,0,0.3-0.1,0.4-0.1s0.4,0,0.6,0c0.2,0,0.4,0.1,0.6,0.1
			c0.3,0.1,0.5,0.3,0.7,0.4s0.3,0.4,0.4,0.6c0.1,0.2,0,0.5-0.1,0.8c-0.1,0.2-0.2,0.4-0.4,0.6c-0.2,0.2-0.4,0.3-0.6,0.3
			s-0.5,0.1-0.7,0.1l0-0.1c0.3,0.1,0.6,0.3,0.7,0.5c0.2,0.2,0.3,0.4,0.3,0.7c0,0.2,0,0.5-0.1,0.7c-0.1,0.3-0.3,0.5-0.6,0.7
			c-0.3,0.2-0.6,0.3-1,0.3c-0.4,0-0.9,0-1.3-0.2c-0.1-0.1-0.3-0.1-0.4-0.2S193.2,72.1,193.1,72.1z"/>
		<path class="st8" d="M197,73.6l0.2-0.6c0.1,0.1,0.2,0.1,0.3,0.2c0.1,0.1,0.2,0.1,0.3,0.1c0.3,0.1,0.6,0.2,0.9,0.2s0.5,0,0.7-0.1
			c0.2-0.1,0.3-0.2,0.4-0.5c0.1-0.2,0.1-0.4,0.1-0.6c0-0.2-0.1-0.4-0.2-0.5s-0.4-0.3-0.6-0.4l-0.4-0.1l0.1-0.6c0.1,0,0.3,0,0.4,0
			c0.1,0,0.2,0,0.4,0c0.3,0,0.5-0.1,0.7-0.2c0.2-0.1,0.3-0.3,0.4-0.5c0.1-0.3,0.1-0.5,0-0.6c-0.1-0.2-0.3-0.3-0.5-0.4
			c-0.2-0.1-0.5-0.1-0.7-0.1c-0.2,0-0.4,0-0.5,0.1l-0.1-0.6c0.1,0,0.3-0.1,0.5-0.1c0.2,0,0.4,0,0.6,0s0.4,0.1,0.6,0.1
			c0.3,0.1,0.5,0.3,0.7,0.5c0.2,0.2,0.3,0.4,0.4,0.7c0.1,0.2,0,0.5-0.1,0.8c-0.1,0.2-0.2,0.4-0.4,0.6c-0.2,0.1-0.4,0.3-0.6,0.3
			s-0.5,0.1-0.7,0.1l0-0.1c0.3,0.1,0.6,0.3,0.7,0.5c0.2,0.2,0.3,0.4,0.3,0.7c0,0.2,0,0.5-0.1,0.7c-0.1,0.3-0.3,0.5-0.6,0.7
			c-0.3,0.2-0.6,0.3-1.1,0.3s-0.9-0.1-1.3-0.3c-0.1-0.1-0.3-0.1-0.4-0.2S197.2,73.6,197,73.6z"/>
		<path class="st8" d="M202.7,76.1c-0.3-0.2-0.6-0.4-0.8-0.6c-0.2-0.3-0.3-0.6-0.3-0.9c0-0.3,0-0.7,0.1-1.1c0.1-0.4,0.2-0.7,0.4-1.1
			c0.3-0.5,0.6-1,0.9-1.3c0.4-0.3,0.7-0.5,1.1-0.6c0.4-0.1,0.8-0.1,1.1,0.1c0.3,0.2,0.6,0.4,0.8,0.6c0.2,0.2,0.3,0.5,0.3,0.8
			c0,0.3,0,0.7-0.1,1c-0.1,0.4-0.2,0.7-0.4,1.1c-0.3,0.6-0.6,1-0.9,1.4c-0.4,0.4-0.7,0.6-1.1,0.7C203.5,76.3,203.1,76.2,202.7,76.1z
			 M203.1,75.3c0.3,0.2,0.7,0.1,1-0.1s0.6-0.7,0.9-1.4c0.2-0.4,0.3-0.7,0.4-1.1c0.1-0.3,0.1-0.6,0-0.9c-0.1-0.2-0.2-0.4-0.5-0.5
			c-0.3-0.2-0.7-0.1-1,0.1c-0.3,0.2-0.6,0.7-0.9,1.3c-0.2,0.4-0.3,0.7-0.4,1.1c-0.1,0.4-0.1,0.7,0,0.9S202.8,75.2,203.1,75.3z"/>
		<path class="st8" d="M205.6,77.3l2-4l0.7,0.4l-0.2,0.4c0.1,0,0.3,0,0.5,0c0.2,0,0.4,0,0.5,0c0.2,0,0.4,0.1,0.5,0.2
			c0.3,0.1,0.5,0.3,0.6,0.5c0.1,0.2,0.1,0.4,0.1,0.7c0,0.3-0.2,0.6-0.4,1l-1.3,2.5l-0.8-0.4l1.2-2.4c0.1-0.2,0.2-0.4,0.2-0.6
			c0-0.2,0-0.3,0-0.4c-0.1-0.1-0.2-0.2-0.4-0.3c-0.1-0.1-0.3-0.1-0.5-0.1s-0.4,0-0.6,0l-1.5,3L205.6,77.3z M210.2,75.9l0.1-0.6
			c0.1,0,0.3-0.1,0.5-0.1c0.2,0,0.4,0,0.6,0c0.2,0,0.4,0.1,0.6,0.2c0.3,0.1,0.5,0.3,0.6,0.5s0.2,0.4,0.1,0.7c0,0.3-0.2,0.6-0.4,1
			l-1.3,2.5l-0.8-0.4l1.2-2.4c0.1-0.2,0.2-0.4,0.2-0.6c0-0.2,0-0.3,0-0.4c-0.1-0.1-0.2-0.2-0.4-0.3c-0.1-0.1-0.3-0.1-0.5-0.1
			C210.6,75.9,210.4,75.9,210.2,75.9z"/>
		<path class="st8" d="M212.1,80.7l3.2-5.7l0.8,0.4l-3.2,5.7L212.1,80.7z"/>
	</g>
	<g>
		<path class="st8" d="M74.6,83.1l-0.3-0.5c0.1,0,0.2-0.1,0.3-0.1c0.1,0,0.2-0.1,0.3-0.1c0.3-0.2,0.5-0.4,0.7-0.6
			c0.2-0.2,0.3-0.4,0.3-0.7c0-0.2,0-0.4-0.1-0.6c-0.1-0.2-0.2-0.3-0.4-0.4c-0.2-0.1-0.3-0.1-0.5-0.1c-0.2,0-0.4,0.1-0.7,0.3
			l-0.3,0.3L73.5,80c0.1-0.1,0.2-0.2,0.3-0.3c0.1-0.1,0.2-0.2,0.2-0.3c0.2-0.2,0.3-0.5,0.3-0.7c0-0.2,0-0.4-0.1-0.6
			c-0.1-0.2-0.3-0.4-0.5-0.4c-0.2,0-0.4,0-0.6,0.2c-0.2,0.1-0.4,0.3-0.5,0.5s-0.2,0.3-0.3,0.5l-0.6-0.3c0-0.1,0.1-0.3,0.2-0.4
			c0.1-0.2,0.2-0.3,0.3-0.5c0.1-0.2,0.3-0.3,0.5-0.4c0.3-0.2,0.5-0.3,0.8-0.3c0.3,0,0.5,0,0.7,0.1s0.4,0.3,0.6,0.5
			C75,77.8,75,78,75,78.2s0,0.5-0.1,0.7c-0.1,0.2-0.2,0.4-0.4,0.6l-0.1-0.1c0.3-0.2,0.6-0.3,0.8-0.3c0.3,0,0.5,0.1,0.7,0.2
			c0.2,0.1,0.4,0.3,0.5,0.5c0.2,0.3,0.2,0.6,0.2,0.9c0,0.3-0.2,0.7-0.4,1s-0.6,0.6-1,0.9c-0.1,0.1-0.3,0.1-0.4,0.2
			S74.7,83,74.6,83.1z"/>
		<path class="st8" d="M78.2,81l-0.3-0.5c0.1,0,0.2-0.1,0.3-0.1c0.1,0,0.2-0.1,0.3-0.1c0.3-0.2,0.6-0.4,0.8-0.6
			c0.2-0.2,0.3-0.4,0.4-0.7c0.1-0.2,0-0.4-0.1-0.6c-0.1-0.2-0.2-0.3-0.4-0.4c-0.2-0.1-0.3-0.2-0.5-0.1c-0.2,0-0.4,0.1-0.7,0.3
			l-0.3,0.3l-0.5-0.5c0.1-0.1,0.2-0.2,0.3-0.3s0.2-0.2,0.2-0.3c0.2-0.2,0.3-0.4,0.3-0.7c0-0.2,0-0.4-0.1-0.6
			c-0.1-0.2-0.3-0.4-0.5-0.4c-0.2,0-0.4,0-0.6,0.1c-0.2,0.1-0.4,0.3-0.5,0.4S76,76.5,76,76.6l-0.5-0.3c0-0.1,0.1-0.3,0.2-0.4
			c0.1-0.2,0.2-0.3,0.4-0.5s0.3-0.3,0.5-0.4c0.3-0.1,0.5-0.2,0.8-0.3c0.3,0,0.5,0,0.7,0.1c0.2,0.1,0.4,0.3,0.6,0.6
			c0.1,0.2,0.2,0.5,0.2,0.7c0,0.2-0.1,0.5-0.1,0.7c-0.1,0.2-0.2,0.4-0.4,0.6l-0.1-0.1c0.3-0.2,0.6-0.2,0.8-0.2
			c0.3,0,0.5,0.1,0.7,0.2c0.2,0.1,0.4,0.3,0.5,0.5c0.2,0.3,0.2,0.6,0.2,0.9s-0.2,0.7-0.4,1c-0.2,0.3-0.6,0.6-1,0.9
			c-0.1,0.1-0.3,0.1-0.4,0.2C78.4,80.9,78.3,80.9,78.2,81z"/>
		<path class="st8" d="M83.7,78.1c-0.3,0.2-0.7,0.2-1,0.2c-0.3,0-0.6-0.1-0.9-0.3c-0.3-0.2-0.5-0.4-0.8-0.7c-0.2-0.3-0.4-0.6-0.6-1
			c-0.3-0.5-0.4-1.1-0.4-1.5s0-0.9,0.2-1.3c0.2-0.4,0.4-0.6,0.8-0.8c0.3-0.2,0.7-0.2,1-0.2c0.3,0,0.6,0.1,0.8,0.3
			c0.3,0.2,0.5,0.4,0.7,0.7c0.2,0.3,0.4,0.6,0.6,1c0.3,0.6,0.4,1.1,0.5,1.6s0,0.9-0.2,1.3C84.3,77.6,84.1,77.9,83.7,78.1z
			 M83.3,77.3c0.3-0.2,0.5-0.5,0.5-0.9s-0.2-1-0.5-1.6c-0.2-0.4-0.4-0.7-0.6-1c-0.2-0.3-0.4-0.4-0.7-0.5c-0.2-0.1-0.5-0.1-0.7,0
			c-0.3,0.2-0.5,0.5-0.5,0.9s0.1,0.9,0.4,1.5c0.2,0.4,0.4,0.7,0.6,1c0.2,0.3,0.5,0.5,0.7,0.6C82.9,77.5,83.1,77.5,83.3,77.3z"/>
		<path class="st8" d="M86.5,76.6l-1.8-4.1l0.7-0.3l0.2,0.4c0.1-0.1,0.1-0.2,0.3-0.4c0.1-0.1,0.2-0.3,0.4-0.4
			c0.1-0.1,0.3-0.2,0.5-0.3c0.3-0.1,0.5-0.2,0.7-0.2s0.4,0.1,0.6,0.3c0.2,0.2,0.4,0.5,0.5,0.9l1.1,2.5l-0.8,0.4l-1.1-2.5
			c-0.1-0.2-0.2-0.4-0.3-0.5c-0.1-0.1-0.2-0.2-0.3-0.2c-0.1,0-0.3,0-0.5,0.1c-0.1,0.1-0.2,0.2-0.4,0.3S86,73,85.9,73.2l1.4,3.1
			L86.5,76.6z M88.3,72.2l-0.4-0.5c0.1-0.1,0.1-0.3,0.3-0.4c0.1-0.1,0.2-0.3,0.4-0.4c0.2-0.1,0.3-0.2,0.5-0.3
			c0.3-0.1,0.5-0.2,0.7-0.2c0.2,0,0.4,0.1,0.6,0.3c0.2,0.2,0.4,0.5,0.5,0.9l1.1,2.6l-0.8,0.4L90.1,72c-0.1-0.2-0.2-0.4-0.3-0.5
			c-0.1-0.1-0.2-0.2-0.3-0.2s-0.3,0-0.5,0.1c-0.1,0.1-0.3,0.2-0.4,0.3S88.4,72,88.3,72.2z"/>
		<path class="st8" d="M93.2,73.7l-2.4-6l0.8-0.3l2.4,6L93.2,73.7z"/>
	</g>
</g>
<g id="Garrafa_cerveja">
	<path class="st10" d="M84,413.7H41.7v-16.5h50.2c2.1,0,3.7,1.7,3.7,3.7v1.2C95.6,408.6,90.4,413.7,84,413.7z"/>
	<g>
		<path class="st11" d="M50.4,382.8c0,1.1-1,1.5-2.1,1.5c-0.9,0-1.7-0.3-1.7-1.1c0-0.5,0.5-0.9,1-1l0.3,0.4
			c-0.3,0.2-0.4,0.4-0.4,0.6c0,0.3,0.3,0.5,0.9,0.5c0.5,0,1-0.3,1-0.7c0-0.3-0.4-0.6-0.8-0.7l-0.9-0.3c-0.3-0.1-0.7-0.3-0.7-0.8
			l0.4-0.7c-0.4-0.3-0.5-0.7-0.5-1.2c0-0.8,0.7-1.6,1.8-1.6c0.3,0,0.6,0,0.8,0.1l1.2-0.1l-0.1,0.7h-0.5l0.4,0.3
			c0.1,0.2,0.1,0.4,0.1,0.7c0,1-0.8,1.5-2,1.5c-0.2,0-0.4,0-0.6-0.1l0,0.1c0,0.1,0.1,0.2,0.3,0.2l0.8,0.3
			C49.8,381.7,50.4,382.1,50.4,382.8z M47.8,379.3c0,0.7,0.3,1,0.8,1c0.5,0,0.8-0.3,0.8-1c0-0.8-0.4-1-0.8-1
			C48.1,378.4,47.8,378.7,47.8,379.3z"/>
		<path class="st11" d="M52.8,377.8c1.2,0,1.9,0.6,1.9,1.7v1.9l0.5,0.2l-0.1,0.5h-1.1l-0.3-0.2c-0.3,0.2-0.6,0.3-1.2,0.3
			c-0.8,0-1.5-0.4-1.5-1.3c0-1.2,1.4-1.5,2.6-1.5v-0.3c0-0.5-0.4-0.8-0.8-0.8c-0.2,0-0.5,0.1-0.7,0.1l-0.2,0.7l-0.6-0.1v-0.9
			C51.8,377.9,52.3,377.8,52.8,377.8z M52.2,380.9c0,0.5,0.4,0.7,0.6,0.7c0.2,0,0.6-0.1,0.7-0.4V380C52.7,380,52.2,380.4,52.2,380.9
			z"/>
		<path class="st11" d="M58.4,378.5c-0.1,0-0.2,0-0.4,0c-0.2,0-0.5,0.1-0.8,0.2v2.7l0.7,0.2l-0.1,0.5h-2.2l-0.1-0.5l0.6-0.2v-2.9
			h-0.4l-0.1-0.5l1.2-0.1l0.4,0.2c0.3-0.1,0.7-0.2,1.2-0.2c0.3,0,0.6,0.1,0.9,0.2v1l-0.6,0.1L58.4,378.5z"/>
		<path class="st11" d="M62.5,378.5c-0.1,0-0.2,0-0.4,0c-0.2,0-0.5,0.1-0.8,0.2v2.7l0.7,0.2l-0.1,0.5h-2.2l-0.1-0.5l0.6-0.2v-2.9
			h-0.4l-0.1-0.5l1.2-0.1l0.4,0.2c0.3-0.1,0.7-0.2,1.2-0.2c0.3,0,0.6,0.1,0.9,0.2v1l-0.6,0.1L62.5,378.5z"/>
		<path class="st11" d="M65.5,377.8c1.2,0,1.9,0.6,1.9,1.7v1.9l0.5,0.2l-0.1,0.5h-1.1l-0.3-0.2c-0.3,0.2-0.6,0.3-1.2,0.3
			c-0.8,0-1.5-0.4-1.5-1.3c0-1.2,1.4-1.5,2.6-1.5v-0.3c0-0.5-0.4-0.8-0.8-0.8c-0.2,0-0.5,0.1-0.7,0.1l-0.2,0.7l-0.6-0.1v-0.9
			C64.5,377.9,65.1,377.8,65.5,377.8z M64.9,380.9c0,0.5,0.4,0.7,0.6,0.7c0.2,0,0.6-0.1,0.7-0.4V380C65.4,380,64.9,380.4,64.9,380.9
			z"/>
		<path class="st11" d="M72,375.8v0.8l-0.6,0.1l-0.2-0.7c-0.1,0-0.3-0.1-0.4-0.1c-0.4,0-0.8,0.2-0.8,1v0.9h1l-0.1,0.5H70v2.9
			l0.8,0.2l-0.1,0.5h-2.3l-0.1-0.5l0.6-0.2v-2.9h-0.6l-0.1-0.5l0.7-0.2v-0.6c0-1,0.7-1.8,1.9-1.8C71.3,375.4,71.6,375.5,72,375.8z"
			/>
		<path class="st11" d="M73.8,377.8c1.2,0,1.9,0.6,1.9,1.7v1.9l0.5,0.2l-0.1,0.5h-1.1l-0.3-0.2c-0.3,0.2-0.6,0.3-1.2,0.3
			c-0.8,0-1.5-0.4-1.5-1.3c0-1.2,1.4-1.5,2.6-1.5v-0.3c0-0.5-0.4-0.8-0.8-0.8c-0.2,0-0.5,0.1-0.7,0.1l-0.2,0.7l-0.6-0.1v-0.9
			C72.8,377.9,73.4,377.8,73.8,377.8z M73.2,380.9c0,0.5,0.4,0.7,0.6,0.7c0.2,0,0.6-0.1,0.7-0.4V380C73.7,380,73.2,380.4,73.2,380.9
			z"/>
		<path class="st11" d="M81.1,382.2c-1.4,0-2.2-0.8-2.2-2.2c0-1.3,0.9-2.2,2.3-2.2c0.2,0,0.5,0,0.8,0.1V376h-0.5l-0.1-0.5l1.2-0.1
			l0.5,0.1v5.8l0.6,0.2l-0.1,0.5h-1.2l-0.3-0.2C81.8,382.1,81.4,382.2,81.1,382.2z M81.2,378.5c-0.7,0-1.1,0.6-1.1,1.5
			c0,0.9,0.5,1.6,1.1,1.6c0.3,0,0.6-0.1,0.8-0.3v-2.6C81.7,378.5,81.4,378.5,81.2,378.5z"/>
		<path class="st11" d="M87.9,381.1l0.3,0.5c-0.6,0.5-1.1,0.6-1.7,0.6c-1.7,0-2.5-0.9-2.5-2.2c0-1.4,1-2.2,2.3-2.2
			c1.1,0,2,0.6,2,1.5c0,0.2-0.1,0.6-0.2,0.8h-2.8c0,0.9,0.5,1.5,1.3,1.5C87,381.6,87.4,381.4,87.9,381.1z M87.1,379.2
			c0-0.5-0.4-0.8-0.8-0.8c-0.6,0-1,0.4-1,1.1h1.8C87.1,379.4,87.1,379.3,87.1,379.2z"/>
		<path class="st11" d="M47.9,390.6c0,0.9,0.3,1.7,1.2,1.7c0.4,0,0.9-0.1,1.3-0.4l0.3,0.5c-0.4,0.4-1.1,0.6-1.6,0.6
			c-1.6,0-2.4-0.9-2.4-2.2c0-1.4,1-2.2,2.4-2.2c0.4,0,1,0.1,1.5,0.4v0.9L50,390l-0.2-0.7c-0.2-0.1-0.5-0.1-0.7-0.1
			C48.4,389.2,47.9,389.7,47.9,390.6z"/>
		<path class="st11" d="M55.2,391.9l0.3,0.5c-0.6,0.5-1.1,0.6-1.7,0.6c-1.7,0-2.5-0.9-2.5-2.2c0-1.4,1-2.2,2.3-2.2
			c1.1,0,2,0.6,2,1.5c0,0.2-0.1,0.6-0.2,0.8h-2.8c0,0.9,0.5,1.5,1.3,1.5C54.3,392.4,54.7,392.2,55.2,391.9z M54.4,390
			c0-0.5-0.4-0.8-0.8-0.8c-0.6,0-1,0.4-1,1.1h1.8C54.4,390.2,54.4,390.1,54.4,390z"/>
		<path class="st11" d="M59.1,389.3c-0.1,0-0.2,0-0.4,0c-0.2,0-0.5,0.1-0.8,0.2v2.7l0.7,0.2l-0.1,0.5h-2.2l-0.1-0.5l0.6-0.2v-2.9
			h-0.4l-0.1-0.5l1.2-0.1l0.4,0.2c0.3-0.1,0.7-0.2,1.2-0.2c0.3,0,0.6,0.1,0.9,0.2v1l-0.6,0.1L59.1,389.3z"/>
		<path class="st11" d="M62.3,393l-1.5-3.6l-0.6-0.2l0.1-0.5h2.1l0.1,0.5l-0.5,0.2l0.8,1.7v0.8l1.1-2.6l-0.5-0.2l0.1-0.5H65l0.1,0.5
			l-0.6,0.2l-1.4,3.5L62.3,393z"/>
		<path class="st11" d="M69.3,391.9l0.3,0.5c-0.6,0.5-1.1,0.6-1.7,0.6c-1.7,0-2.5-0.9-2.5-2.2c0-1.4,1-2.2,2.3-2.2
			c1.1,0,2,0.6,2,1.5c0,0.2-0.1,0.6-0.2,0.8h-2.8c0,0.9,0.5,1.5,1.3,1.5C68.4,392.4,68.9,392.2,69.3,391.9z M68.6,390
			c0-0.5-0.4-0.8-0.8-0.8c-0.6,0-1,0.4-1,1.1h1.8C68.6,390.2,68.6,390.1,68.6,390z"/>
		<path class="st11" d="M72.1,388.7v3.5c0,1.2-0.3,2.4-2.1,3l-0.3-0.5c1.2-0.8,1.3-1.6,1.3-2.6v-2.8h-0.5l-0.1-0.5l1.2-0.1
			L72.1,388.7z M72,387.2c0,0.3-0.3,0.6-0.6,0.6c-0.3,0-0.6-0.3-0.6-0.6c0-0.3,0.3-0.6,0.6-0.6C71.7,386.6,72,386.9,72,387.2z"/>
		<path class="st11" d="M74.8,388.6c1.2,0,1.9,0.6,1.9,1.7v1.9l0.5,0.2l-0.1,0.5H76l-0.3-0.2c-0.3,0.2-0.6,0.3-1.2,0.3
			c-0.8,0-1.5-0.4-1.5-1.3c0-1.2,1.4-1.5,2.6-1.5v-0.3c0-0.5-0.4-0.8-0.8-0.8c-0.2,0-0.5,0.1-0.7,0.1l-0.2,0.7l-0.6-0.1V389
			C73.9,388.7,74.4,388.6,74.8,388.6z M74.2,391.7c0,0.5,0.4,0.7,0.6,0.7c0.2,0,0.6-0.1,0.7-0.4v-1.2
			C74.7,390.8,74.2,391.2,74.2,391.7z"/>
	</g>
	<g>
		<g>
			<path class="st1" d="M47,408.1l-0.1-0.5c0.2-0.2,0.5-0.4,0.8-0.6c0.3-0.2,0.5-0.4,0.7-0.7c0.2-0.2,0.4-0.5,0.6-0.8
				c0.2-0.3,0.3-0.5,0.4-0.8c0.1-0.3,0.2-0.5,0.2-0.8c0-0.4-0.1-0.6-0.3-0.8c-0.2-0.2-0.4-0.3-0.7-0.3c-0.3,0-0.5,0.1-0.8,0.2
				c-0.2,0.1-0.4,0.2-0.6,0.4l-0.4-0.6c0.1-0.1,0.2-0.2,0.4-0.3s0.4-0.2,0.6-0.3c0.2-0.1,0.5-0.1,0.8-0.1c0.4,0,0.8,0.1,1,0.2
				s0.5,0.4,0.6,0.7c0.1,0.3,0.2,0.6,0.2,0.9c0,0.4-0.1,0.8-0.3,1.2s-0.5,0.8-0.8,1.2s-0.7,0.7-1.2,1l2.5,0v0.8H47z"/>
			<path class="st1" d="M54.8,408.1c-0.3,0-0.6-0.1-0.9-0.2c-0.3-0.2-0.5-0.4-0.6-0.7c-0.2-0.3-0.2-0.7-0.2-1.2
				c0-0.5,0.1-0.9,0.3-1.3s0.4-0.7,0.8-0.9c0.3-0.2,0.7-0.3,1.2-0.3c0.3,0,0.5,0,0.7,0.1c0.2,0.1,0.3,0.1,0.4,0.2l-0.3,0.6
				c-0.1-0.1-0.2-0.1-0.3-0.1c-0.1,0-0.3,0-0.5,0c-0.2,0-0.4,0.1-0.6,0.2c-0.2,0.1-0.3,0.3-0.4,0.6s-0.2,0.6-0.2,0.9
				c0,0.5,0.1,0.9,0.3,1.1c0.2,0.2,0.5,0.4,0.8,0.4c0.2,0,0.4,0,0.6-0.1c0.2-0.1,0.3-0.2,0.4-0.2l0.2,0.5c-0.1,0.1-0.1,0.1-0.3,0.2
				c-0.1,0.1-0.2,0.2-0.4,0.3C55.3,408.1,55.1,408.1,54.8,408.1z M56.1,408.1v-0.6l0,0v-3.2l0,0l0-0.9v-1.8H57v6.5H56.1z"/>
			<path class="st1" d="M60,408.1c-0.4,0-0.7-0.1-0.9-0.2s-0.5-0.3-0.6-0.5c-0.2-0.2-0.3-0.5-0.3-0.8c-0.1-0.3-0.1-0.6-0.1-0.9
				c0-0.5,0.1-0.9,0.3-1.2c0.2-0.3,0.4-0.6,0.7-0.7c0.3-0.2,0.7-0.2,1-0.2c0.5,0,0.9,0.1,1.2,0.3c0.3,0.2,0.5,0.5,0.6,0.9
				s0.2,0.8,0.2,1.2c0,0.5-0.1,0.9-0.3,1.2c-0.2,0.3-0.4,0.6-0.7,0.7C60.7,408,60.3,408.1,60,408.1z M60,407.5
				c0.4,0,0.6-0.1,0.8-0.4c0.2-0.3,0.3-0.7,0.3-1.2c0-0.3,0-0.6-0.1-0.8s-0.2-0.5-0.4-0.6c-0.2-0.2-0.4-0.2-0.6-0.2
				c-0.4,0-0.6,0.1-0.8,0.4c-0.2,0.3-0.3,0.7-0.3,1.2c0,0.3,0,0.6,0.1,0.9c0.1,0.3,0.2,0.5,0.3,0.6S59.7,407.5,60,407.5z"/>
			<path class="st1" d="M62.8,407.8l0.1-0.7c0,0,0.1,0.1,0.2,0.1s0.3,0.1,0.5,0.1s0.4,0.1,0.5,0.1c0.3,0,0.5,0,0.6-0.1
				c0.1-0.1,0.2-0.2,0.2-0.4c0-0.1,0-0.2-0.1-0.3s-0.2-0.2-0.3-0.2c-0.1-0.1-0.3-0.2-0.5-0.2c-0.2-0.1-0.5-0.2-0.6-0.4
				c-0.2-0.1-0.3-0.3-0.4-0.5s-0.2-0.4-0.1-0.6c0-0.3,0.1-0.5,0.2-0.7c0.1-0.2,0.3-0.3,0.6-0.4c0.2-0.1,0.5-0.1,0.8-0.1
				c0.3,0,0.5,0,0.7,0.1c0.2,0.1,0.3,0.1,0.4,0.1l-0.1,0.7c0,0-0.1-0.1-0.2-0.1c-0.1,0-0.2-0.1-0.3-0.1c-0.1,0-0.3,0-0.4,0
				c-0.3,0-0.5,0-0.6,0.1c-0.1,0.1-0.2,0.2-0.2,0.3c0,0.2,0.1,0.3,0.2,0.4c0.1,0.1,0.3,0.2,0.5,0.3c0.3,0.1,0.5,0.3,0.7,0.4
				c0.2,0.1,0.4,0.3,0.5,0.4c0.1,0.2,0.2,0.4,0.2,0.6c0,0.4-0.1,0.7-0.4,0.9c-0.3,0.2-0.7,0.3-1.2,0.3c-0.2,0-0.4,0-0.6,0
				c-0.2,0-0.4-0.1-0.5-0.1S62.9,407.9,62.8,407.8z"/>
			<path class="st1" d="M68.6,408.1c-0.6,0-1.1-0.2-1.5-0.6s-0.5-1-0.5-1.7c0-0.4,0.1-0.8,0.2-1.2s0.4-0.6,0.7-0.8
				c0.3-0.2,0.7-0.3,1.1-0.3c0.2,0,0.4,0,0.6,0.1s0.4,0.2,0.5,0.3s0.3,0.3,0.4,0.5s0.1,0.5,0.1,0.7c0,0.2,0,0.3,0,0.5
				c0,0.1,0,0.2,0,0.4h-3.1l0.1-0.6h2.2c0-0.2,0-0.4,0-0.6c0-0.2-0.1-0.3-0.2-0.5c-0.1-0.1-0.3-0.2-0.6-0.2c-0.2,0-0.4,0.1-0.6,0.2
				c-0.2,0.1-0.3,0.3-0.4,0.6c-0.1,0.3-0.1,0.7-0.1,1.1c0,0.3,0.1,0.6,0.2,0.8c0.1,0.2,0.3,0.3,0.5,0.4c0.2,0.1,0.4,0.1,0.7,0.1
				c0.1,0,0.2,0,0.4,0s0.3-0.1,0.4-0.1c0.1,0,0.2-0.1,0.3-0.1l0.2,0.5c-0.1,0.1-0.2,0.2-0.4,0.2c-0.2,0.1-0.4,0.1-0.6,0.1
				C69,408.1,68.8,408.1,68.6,408.1z"/>
			<path class="st1" d="M71.1,407.8l0.1-0.7c0,0,0.1,0.1,0.2,0.1s0.3,0.1,0.5,0.1s0.4,0.1,0.5,0.1c0.3,0,0.5,0,0.6-0.1
				c0.1-0.1,0.2-0.2,0.2-0.4c0-0.1,0-0.2-0.1-0.3s-0.2-0.2-0.3-0.2c-0.1-0.1-0.3-0.2-0.5-0.2c-0.2-0.1-0.5-0.2-0.6-0.4
				c-0.2-0.1-0.3-0.3-0.4-0.5s-0.2-0.4-0.1-0.6c0-0.3,0.1-0.5,0.2-0.7c0.1-0.2,0.3-0.3,0.6-0.4c0.2-0.1,0.5-0.1,0.8-0.1
				c0.3,0,0.5,0,0.7,0.1c0.2,0.1,0.3,0.1,0.4,0.1l-0.1,0.7c0,0-0.1-0.1-0.2-0.1c-0.1,0-0.2-0.1-0.3-0.1c-0.1,0-0.3,0-0.4,0
				c-0.3,0-0.5,0-0.6,0.1c-0.1,0.1-0.2,0.2-0.2,0.3c0,0.2,0.1,0.3,0.2,0.4c0.1,0.1,0.3,0.2,0.5,0.3c0.3,0.1,0.5,0.3,0.7,0.4
				c0.2,0.1,0.4,0.3,0.5,0.4c0.1,0.2,0.2,0.4,0.2,0.6c0,0.4-0.1,0.7-0.4,0.9c-0.3,0.2-0.7,0.3-1.2,0.3c-0.2,0-0.4,0-0.6,0
				c-0.2,0-0.4-0.1-0.5-0.1S71.2,407.9,71.1,407.8z"/>
		</g>
	</g>
	<g>
		<g>
			<path class="st2" d="M40.3,380.2l-3.3-6.9c-0.1-0.1-0.1-0.2-0.1-0.4l-0.1-1l-2.1-29.1l-0.1-1.8h-1.8h-4.8h-1.7l-0.1,1.7
				l-2.3,29.1l-0.1,1.1c0,0.1,0,0.2-0.1,0.4l-3.2,6.9c-0.9,2-1.4,4.2-1.4,6.4v36.8v0.8c0,0.6,0.5,1,1,1h0.8h18.9h0.8
				c0.6,0,1-0.5,1-1v-0.8v-36.8C41.7,384.4,41.2,382.2,40.3,380.2z"/>
		</g>
		<g>
			<ellipse class="st1" cx="30.2" cy="398.6" rx="8.6" ry="11"/>
			<path class="st1" d="M30.2,388.9c4,0,7.3,4.4,7.3,9.7c0,5.4-3.3,9.7-7.3,9.7c-4,0-7.3-4.4-7.3-9.7
				C22.9,393.3,26.2,388.9,30.2,388.9 M30.2,386.3c-5.4,0-9.9,5.5-9.9,12.3s4.4,12.3,9.9,12.3c5.4,0,9.9-5.5,9.9-12.3
				S35.6,386.3,30.2,386.3L30.2,386.3z"/>
		</g>
		<g>
			<g>
				<path class="st12" d="M35.7,392.1c-1.4-2.1-3.3-3.2-5.5-3.2s-4.1,1.2-5.5,3.2h-1.4c1.6-2.8,4.2-4.5,6.9-4.5s5.3,1.7,6.9,4.5
					H35.7z"/>
				<path class="st13" d="M30.2,386.3c-4,0-7.4,2.9-8.9,7.1h4.2c1.1-2,2.8-3.2,4.8-3.2s3.6,1.3,4.8,3.2h4.2
					C37.6,389.2,34.1,386.3,30.2,386.3L30.2,386.3z"/>
			</g>
			<g>
				<path class="st12" d="M30.2,409.7c-2.7,0-5.2-1.7-6.9-4.4h1.4c1.4,2,3.3,3.1,5.4,3.1s4-1.1,5.4-3.1H37
					C35.4,408,32.9,409.7,30.2,409.7z"/>
				<path class="st13" d="M39.1,403.9h-4.2c-1.1,1.9-2.8,3.1-4.7,3.1c-1.9,0-3.6-1.2-4.7-3.1h-4.2c1.6,4.1,5,7,8.9,7
					S37.5,408.1,39.1,403.9L39.1,403.9z"/>
			</g>
		</g>
		<g>
			<path class="st13" d="M33.2,342.6l0,0.4l2.1,29.1l0.1,1c0,0.3,0.1,0.6,0.2,0.9l3.3,6.9c0.8,1.8,1.3,3.8,1.3,5.8v36.8v0.4h-0.4
				H20.9h-0.4v-0.4v-36.8c0-2,0.4-4,1.3-5.8l3.2-6.9c0.1-0.3,0.2-0.6,0.2-0.9l0.1-1.1l2.3-29.1l0-0.4h0.4h4.8H33.2 M34.6,341.1h-1.8
				h-4.8h-1.7l-0.1,1.7l-2.3,29.1l-0.1,1.1c0,0.1,0,0.2-0.1,0.4l-3.2,6.9c-0.9,2-1.4,4.2-1.4,6.4v36.8v0.8c0,0.6,0.5,1,1,1h0.8h18.9
				h0.8c0.6,0,1-0.5,1-1v-0.8v-36.8c0-2.2-0.5-4.4-1.4-6.4l-3.3-6.9c-0.1-0.1-0.1-0.2-0.1-0.4l-0.1-1l-2.1-29.1L34.6,341.1
				L34.6,341.1z"/>
		</g>
		<g>
			<path class="st12" d="M25.9,349.2c0,0-0.1-0.2,0-0.4l0.9-4.8h7.3l0.9,4.7c0.1,0.3,0,0.4,0,0.5H25.9z"/>
			<path class="st13" d="M33.5,344.7l0.7,3.7h-7.6l0.7-3.7H33.5 M34.8,343.2h-8.6l-1,5.3c-0.2,0.7,0.2,1.4,0.7,1.4h9.2
				c0.5,0,0.9-0.7,0.7-1.4L34.8,343.2L34.8,343.2z"/>
		</g>
		<path class="st13" d="M34.8,343.2h-8.9c-0.3,0-0.5-0.2-0.5-0.5v-0.6c0-0.6,0.5-1.1,1.1-1.1h7.7c0.6,0,1.1,0.5,1.1,1.1v0.6
			C35.3,343,35.1,343.2,34.8,343.2z"/>
	</g>
</g>
<g id="Garrafa_vinho">
	<path class="st10" d="M172.4,414.2H130v-16.5h50.2c2.1,0,3.7,1.7,3.7,3.7v1.2C183.9,409,178.8,414.2,172.4,414.2z"/>
	<g>
		<path class="st1" d="M137.3,408.6c-0.3,0-0.5,0-0.8-0.1s-0.5-0.1-0.7-0.3c-0.2-0.1-0.4-0.3-0.5-0.5c-0.1-0.2-0.2-0.4-0.2-0.7
			c0-0.2,0-0.4,0.1-0.6s0.2-0.4,0.5-0.6c0.2-0.2,0.5-0.4,0.8-0.5l0.5,0.4c-0.2,0.1-0.4,0.2-0.5,0.3c-0.2,0.1-0.3,0.3-0.4,0.4
			c-0.1,0.2-0.1,0.3-0.1,0.5c0,0.2,0,0.4,0.1,0.5c0.1,0.1,0.2,0.3,0.4,0.3c0.2,0.1,0.4,0.1,0.7,0.1c0.2,0,0.3,0,0.5-0.1
			s0.3-0.2,0.4-0.3s0.2-0.3,0.2-0.5c0-0.2-0.1-0.3-0.2-0.5c-0.1-0.1-0.2-0.3-0.4-0.4c-0.2-0.1-0.4-0.2-0.6-0.3s-0.4-0.2-0.6-0.3
			s-0.4-0.2-0.6-0.4c-0.2-0.1-0.3-0.3-0.4-0.5c-0.1-0.2-0.2-0.4-0.2-0.7c0-0.3,0.1-0.6,0.2-0.8c0.2-0.2,0.4-0.4,0.7-0.5
			c0.3-0.1,0.6-0.2,0.9-0.2c0.3,0,0.7,0.1,0.9,0.2c0.3,0.1,0.5,0.3,0.6,0.5c0.1,0.2,0.2,0.4,0.2,0.7c0,0.2,0,0.4-0.1,0.6
			c-0.1,0.2-0.2,0.4-0.4,0.6c-0.2,0.2-0.4,0.3-0.7,0.5l-0.5-0.4c0.3-0.1,0.5-0.3,0.7-0.5c0.1-0.2,0.2-0.5,0.2-0.7
			c0-0.2-0.1-0.4-0.2-0.6s-0.4-0.2-0.7-0.2c-0.3,0-0.5,0.1-0.7,0.2c-0.2,0.1-0.3,0.3-0.3,0.6c0,0.2,0.1,0.4,0.2,0.5
			c0.1,0.2,0.2,0.3,0.4,0.4c0.2,0.1,0.4,0.2,0.6,0.4c0.2,0.1,0.4,0.2,0.6,0.3c0.2,0.1,0.4,0.2,0.6,0.4c0.2,0.1,0.3,0.3,0.4,0.5
			c0.1,0.2,0.2,0.4,0.2,0.6c0,0.4-0.1,0.7-0.3,0.9c-0.2,0.2-0.4,0.4-0.7,0.5C138,408.5,137.6,408.6,137.3,408.6z"/>
		<path class="st1" d="M143.4,408.6c-0.3,0-0.6-0.1-0.9-0.2c-0.3-0.2-0.5-0.4-0.6-0.7c-0.2-0.3-0.2-0.7-0.2-1.2
			c0-0.5,0.1-0.9,0.3-1.3c0.2-0.4,0.4-0.7,0.8-0.9c0.3-0.2,0.7-0.3,1.2-0.3c0.3,0,0.5,0,0.7,0.1s0.3,0.1,0.4,0.2l-0.3,0.6
			c-0.1-0.1-0.2-0.1-0.3-0.1c-0.1,0-0.3,0-0.5,0c-0.2,0-0.4,0.1-0.6,0.2c-0.2,0.1-0.3,0.3-0.4,0.6s-0.2,0.6-0.2,0.9
			c0,0.5,0.1,0.9,0.3,1.1s0.5,0.4,0.8,0.4c0.2,0,0.4,0,0.6-0.1c0.2-0.1,0.3-0.2,0.4-0.2l0.2,0.5c-0.1,0.1-0.1,0.1-0.3,0.2
			c-0.1,0.1-0.2,0.2-0.4,0.3S143.7,408.6,143.4,408.6z M144.6,408.5v-0.6l0,0v-3.2l0,0l0-0.9V402h0.9v6.5H144.6z"/>
		<path class="st1" d="M148.5,408.6c-0.4,0-0.7-0.1-0.9-0.2c-0.3-0.1-0.5-0.3-0.6-0.5c-0.2-0.2-0.3-0.5-0.3-0.8
			c-0.1-0.3-0.1-0.6-0.1-0.9c0-0.5,0.1-0.9,0.3-1.2c0.2-0.3,0.4-0.6,0.7-0.7c0.3-0.2,0.7-0.2,1-0.2c0.5,0,0.9,0.1,1.2,0.3
			c0.3,0.2,0.5,0.5,0.6,0.9c0.1,0.4,0.2,0.8,0.2,1.2c0,0.5-0.1,0.9-0.3,1.2c-0.2,0.3-0.4,0.6-0.7,0.7
			C149.3,408.5,148.9,408.6,148.5,408.6z M148.5,407.9c0.4,0,0.6-0.1,0.8-0.4s0.3-0.7,0.3-1.2c0-0.3,0-0.6-0.1-0.8
			c-0.1-0.3-0.2-0.5-0.3-0.6c-0.2-0.2-0.4-0.2-0.6-0.2c-0.4,0-0.6,0.1-0.8,0.4c-0.2,0.3-0.3,0.7-0.3,1.2c0,0.3,0,0.6,0.1,0.9
			c0.1,0.3,0.2,0.5,0.3,0.6C148.1,407.8,148.3,407.9,148.5,407.9z"/>
		<path class="st1" d="M151.4,408.2l0.1-0.7c0,0,0.1,0.1,0.2,0.1s0.3,0.1,0.5,0.1s0.4,0.1,0.5,0.1c0.3,0,0.5,0,0.6-0.1
			c0.1-0.1,0.2-0.2,0.2-0.4c0-0.1,0-0.2-0.1-0.3s-0.2-0.2-0.3-0.2c-0.1-0.1-0.3-0.2-0.5-0.2c-0.2-0.1-0.5-0.2-0.6-0.4
			c-0.2-0.1-0.3-0.3-0.4-0.5s-0.2-0.4-0.1-0.6c0-0.3,0.1-0.5,0.2-0.7c0.1-0.2,0.3-0.3,0.6-0.4c0.2-0.1,0.5-0.1,0.8-0.1
			c0.3,0,0.5,0,0.7,0.1c0.2,0.1,0.3,0.1,0.4,0.1l-0.1,0.7c0,0-0.1-0.1-0.2-0.1c-0.1,0-0.2-0.1-0.3-0.1c-0.1,0-0.3,0-0.4,0
			c-0.3,0-0.5,0-0.6,0.1s-0.2,0.2-0.2,0.3c0,0.2,0.1,0.3,0.2,0.4c0.1,0.1,0.3,0.2,0.5,0.3c0.3,0.1,0.5,0.3,0.7,0.4
			c0.2,0.1,0.4,0.3,0.5,0.4c0.1,0.2,0.2,0.4,0.2,0.6c0,0.4-0.1,0.7-0.4,0.9c-0.3,0.2-0.7,0.3-1.2,0.3c-0.2,0-0.4,0-0.6,0
			c-0.2,0-0.4-0.1-0.5-0.1C151.5,408.4,151.4,408.3,151.4,408.2z"/>
		<path class="st1" d="M157.2,408.6c-0.6,0-1.1-0.2-1.5-0.6s-0.5-1-0.5-1.7c0-0.4,0.1-0.8,0.2-1.2s0.4-0.6,0.7-0.8
			c0.3-0.2,0.7-0.3,1.1-0.3c0.2,0,0.4,0,0.6,0.1s0.4,0.2,0.5,0.3c0.2,0.1,0.3,0.3,0.4,0.5c0.1,0.2,0.1,0.5,0.1,0.7
			c0,0.2,0,0.3,0,0.5c0,0.1,0,0.2,0,0.4h-3.1l0.1-0.6h2.2c0-0.2,0-0.4,0-0.6c0-0.2-0.1-0.3-0.2-0.5c-0.1-0.1-0.3-0.2-0.6-0.2
			c-0.2,0-0.4,0.1-0.6,0.2c-0.2,0.1-0.3,0.3-0.4,0.6c-0.1,0.3-0.1,0.7-0.1,1.1c0,0.3,0.1,0.6,0.2,0.8c0.1,0.2,0.3,0.3,0.5,0.4
			c0.2,0.1,0.4,0.1,0.7,0.1c0.1,0,0.2,0,0.4,0s0.3-0.1,0.4-0.1c0.1,0,0.2-0.1,0.3-0.1l0.2,0.5c-0.1,0.1-0.2,0.2-0.4,0.2
			c-0.2,0.1-0.4,0.1-0.5,0.1C157.6,408.6,157.4,408.6,157.2,408.6z"/>
		<path class="st1" d="M159.7,408.2l0.1-0.7c0,0,0.1,0.1,0.2,0.1s0.3,0.1,0.5,0.1s0.4,0.1,0.5,0.1c0.3,0,0.5,0,0.6-0.1
			c0.1-0.1,0.2-0.2,0.2-0.4c0-0.1,0-0.2-0.1-0.3s-0.2-0.2-0.3-0.2c-0.1-0.1-0.3-0.2-0.5-0.2c-0.2-0.1-0.5-0.2-0.6-0.4
			c-0.2-0.1-0.3-0.3-0.4-0.5s-0.2-0.4-0.1-0.6c0-0.3,0.1-0.5,0.2-0.7c0.1-0.2,0.3-0.3,0.6-0.4c0.2-0.1,0.5-0.1,0.8-0.1
			c0.3,0,0.5,0,0.7,0.1c0.2,0.1,0.3,0.1,0.4,0.1l-0.1,0.7c0,0-0.1-0.1-0.2-0.1c-0.1,0-0.2-0.1-0.3-0.1c-0.1,0-0.3,0-0.4,0
			c-0.3,0-0.5,0-0.6,0.1s-0.2,0.2-0.2,0.3c0,0.2,0.1,0.3,0.2,0.4c0.1,0.1,0.3,0.2,0.5,0.3c0.3,0.1,0.5,0.3,0.7,0.4
			c0.2,0.1,0.4,0.3,0.5,0.4c0.1,0.2,0.2,0.4,0.2,0.6c0,0.4-0.1,0.7-0.4,0.9c-0.3,0.2-0.7,0.3-1.2,0.3c-0.2,0-0.4,0-0.6,0
			c-0.2,0-0.4-0.1-0.5-0.1C159.9,408.4,159.7,408.3,159.7,408.2z"/>
	</g>
	<g>
		<path class="st11" d="M138.8,382.9c0,1.1-1,1.5-2.1,1.5c-0.9,0-1.7-0.3-1.7-1.1c0-0.5,0.5-0.9,1-1l0.3,0.4
			c-0.3,0.2-0.4,0.4-0.4,0.6c0,0.3,0.3,0.5,0.9,0.5c0.5,0,1-0.3,1-0.7c0-0.3-0.4-0.6-0.8-0.7l-0.9-0.3c-0.3-0.1-0.7-0.3-0.7-0.8
			l0.4-0.7c-0.4-0.3-0.5-0.7-0.5-1.2c0-0.8,0.7-1.6,1.8-1.6c0.3,0,0.6,0,0.8,0.1l1.2-0.1l-0.1,0.7h-0.5l0.4,0.3
			c0.1,0.2,0.1,0.4,0.1,0.7c0,1-0.8,1.5-2,1.5c-0.2,0-0.4,0-0.6-0.1l0,0.1c0,0.1,0.1,0.2,0.3,0.2l0.8,0.3
			C138.1,381.8,138.8,382.2,138.8,382.9z M136.1,379.5c0,0.7,0.3,1,0.8,1c0.5,0,0.8-0.3,0.8-1c0-0.8-0.4-1-0.8-1
			C136.5,378.5,136.1,378.8,136.1,379.5z"/>
		<path class="st11" d="M141.1,377.9c1.2,0,1.9,0.6,1.9,1.7v1.9l0.5,0.2l-0.1,0.5h-1.1L142,382c-0.3,0.2-0.6,0.3-1.2,0.3
			c-0.8,0-1.5-0.4-1.5-1.3c0-1.2,1.4-1.5,2.6-1.5v-0.3c0-0.5-0.4-0.8-0.8-0.8c-0.2,0-0.5,0.1-0.7,0.1l-0.2,0.7l-0.6-0.1v-0.9
			C140.1,378,140.7,377.9,141.1,377.9z M140.5,381c0,0.5,0.4,0.7,0.6,0.7c0.2,0,0.6-0.1,0.7-0.4v-1.2
			C141,380.1,140.5,380.5,140.5,381z"/>
		<path class="st11" d="M146.8,378.6c-0.1,0-0.2,0-0.4,0c-0.2,0-0.5,0.1-0.8,0.2v2.7l0.7,0.2l-0.1,0.5H144l-0.1-0.5l0.6-0.2v-2.9
			h-0.4L144,378l1.2-0.1l0.4,0.2c0.3-0.1,0.7-0.2,1.2-0.2c0.3,0,0.6,0.1,0.9,0.2v1l-0.6,0.1L146.8,378.6z"/>
		<path class="st11" d="M150.9,378.6c-0.1,0-0.2,0-0.4,0c-0.2,0-0.5,0.1-0.8,0.2v2.7l0.7,0.2l-0.1,0.5h-2.2l-0.1-0.5l0.6-0.2v-2.9
			h-0.4L148,378l1.2-0.1l0.4,0.2c0.3-0.1,0.7-0.2,1.2-0.2c0.3,0,0.6,0.1,0.9,0.2v1l-0.6,0.1L150.9,378.6z"/>
		<path class="st11" d="M153.9,377.9c1.2,0,1.9,0.6,1.9,1.7v1.9l0.5,0.2l-0.1,0.5H155l-0.3-0.2c-0.3,0.2-0.6,0.3-1.2,0.3
			c-0.8,0-1.5-0.4-1.5-1.3c0-1.2,1.4-1.5,2.6-1.5v-0.3c0-0.5-0.4-0.8-0.8-0.8c-0.2,0-0.5,0.1-0.7,0.1l-0.2,0.7l-0.6-0.1v-0.9
			C152.9,378,153.4,377.9,153.9,377.9z M153.3,381c0,0.5,0.4,0.7,0.6,0.7c0.2,0,0.6-0.1,0.7-0.4v-1.2
			C153.8,380.1,153.3,380.5,153.3,381z"/>
		<path class="st11" d="M160.4,375.9v0.8l-0.6,0.1l-0.2-0.7c-0.1,0-0.3-0.1-0.4-0.1c-0.4,0-0.8,0.2-0.8,1v0.9h1l-0.1,0.5h-0.9v2.9
			l0.8,0.2l-0.1,0.5h-2.3l-0.1-0.5l0.6-0.2v-2.9h-0.6l-0.1-0.5l0.7-0.2v-0.6c0-1,0.7-1.8,1.9-1.8C159.6,375.5,160,375.6,160.4,375.9
			z"/>
		<path class="st11" d="M162.2,377.9c1.2,0,1.9,0.6,1.9,1.7v1.9l0.5,0.2l-0.1,0.5h-1.1L163,382c-0.3,0.2-0.6,0.3-1.2,0.3
			c-0.8,0-1.5-0.4-1.5-1.3c0-1.2,1.4-1.5,2.6-1.5v-0.3c0-0.5-0.4-0.8-0.8-0.8c-0.2,0-0.5,0.1-0.7,0.1l-0.2,0.7l-0.6-0.1v-0.9
			C161.2,378,161.7,377.9,162.2,377.9z M161.6,381c0,0.5,0.4,0.7,0.6,0.7c0.2,0,0.6-0.1,0.7-0.4v-1.2
			C162,380.1,161.6,380.5,161.6,381z"/>
		<path class="st11" d="M169.4,382.3c-1.4,0-2.2-0.8-2.2-2.2c0-1.3,0.9-2.2,2.3-2.2c0.2,0,0.5,0,0.8,0.1v-1.9h-0.5l-0.1-0.5l1.2-0.1
			l0.5,0.1v5.8l0.6,0.2l-0.1,0.5h-1.2l-0.3-0.2C170.2,382.2,169.8,382.3,169.4,382.3z M169.5,378.6c-0.7,0-1.1,0.6-1.1,1.5
			c0,0.9,0.5,1.6,1.1,1.6c0.3,0,0.6-0.1,0.8-0.3v-2.6C170.1,378.6,169.7,378.6,169.5,378.6z"/>
		<path class="st11" d="M176.3,381.3l0.3,0.5c-0.6,0.5-1.1,0.6-1.7,0.6c-1.7,0-2.5-0.9-2.5-2.2c0-1.4,1-2.2,2.3-2.2
			c1.1,0,2,0.6,2,1.5c0,0.2-0.1,0.6-0.2,0.8h-2.8c0,0.9,0.5,1.5,1.3,1.5C175.3,381.7,175.8,381.6,176.3,381.3z M175.5,379.3
			c0-0.5-0.4-0.8-0.8-0.8c-0.6,0-1,0.4-1,1.1h1.8C175.5,379.5,175.5,379.4,175.5,379.3z"/>
		<path class="st11" d="M137,393.1l-1.5-3.6l-0.6-0.2l0.1-0.5h2.1l0.1,0.5l-0.5,0.2l0.8,1.7v0.8l1.1-2.6l-0.5-0.2l0.1-0.5h1.6
			l0.1,0.5l-0.6,0.2l-1.4,3.5L137,393.1z"/>
		<path class="st11" d="M142.5,393h-2.1l-0.1-0.5l0.6-0.2v-2.9h-0.4l-0.1-0.5l1.1-0.1l0.5,0.1v3.5l0.6,0.2L142.5,393z M142,387.3
			c0,0.3-0.3,0.6-0.6,0.6c-0.3,0-0.6-0.3-0.6-0.6c0-0.3,0.3-0.6,0.6-0.6C141.7,386.7,142,387,142,387.3z"/>
		<path class="st11" d="M145,389.5v2.7l0.6,0.2l-0.1,0.5h-2.1l-0.1-0.5l0.6-0.2v-2.9h-0.4l-0.1-0.5l1.2-0.1l0.4,0.2
			c0.3-0.1,0.7-0.2,1.1-0.2c1,0,1.7,0.5,1.7,1.5v2l0.6,0.2l-0.1,0.5h-2.1l-0.1-0.5l0.6-0.2v-2.2c0-0.5-0.4-0.7-0.8-0.7
			C145.5,389.4,145.2,389.5,145,389.5z"/>
		<path class="st11" d="M150.9,393h-2l-0.1-0.5l0.6-0.2v-5.3h-0.5l-0.1-0.5l1.2-0.1l0.5,0.1v2.5c0.3-0.1,0.7-0.2,1-0.2
			c1,0,1.7,0.5,1.7,1.4v2.1l0.6,0.2l-0.1,0.5h-2.1l-0.1-0.5l0.6-0.2V390c0-0.5-0.3-0.6-0.6-0.6c-0.3,0-0.7,0.1-1,0.2v2.7l0.6,0.2
			L150.9,393z"/>
		<path class="st11" d="M158.8,390.9c0,1.4-0.8,2.2-2.2,2.2c-1.4,0-2.2-0.9-2.2-2.2c0-1.3,0.9-2.2,2.2-2.2
			C158,388.7,158.8,389.5,158.8,390.9z M155.5,390.9c0,1,0.4,1.7,1.1,1.7c0.7,0,1.1-0.7,1.1-1.7c0-1-0.4-1.6-1.1-1.6
			C155.9,389.3,155.5,389.9,155.5,390.9z"/>
	</g>
	<g>
		<g>
			<path class="st13" d="M125.5,365.5c-1-0.6-1.5-1.6-1.5-2.7v-20.7c0-0.6-0.5-1-1.1-1h-9.1c-0.6,0-1.1,0.5-1.1,1v20.7
				c0,1.1-0.6,2.1-1.5,2.7c-2.7,1.7-4.5,4.5-4.5,7.8v51c0,0.6,0.5,1,1.1,1h21.1c0.6,0,1.1-0.5,1.1-1v-51
				C130,370.1,128.2,367.2,125.5,365.5z"/>
		</g>
		<rect x="113.6" y="342" class="st10" width="9.1" height="19.4"/>
		<g>
			<path class="st13" d="M122.5,342.6v20.3c0,1.6,0.8,3.1,2.2,3.9c2.4,1.5,3.8,3.9,3.8,6.5v50.5h-20.4v-50.5c0-2.6,1.4-5.1,3.8-6.5
				c1.4-0.9,2.2-2.3,2.2-3.9v-20.3H122.5 M122.9,341.1h-9.1c-0.6,0-1.1,0.5-1.1,1v20.7c0,1.1-0.6,2.1-1.5,2.7
				c-2.7,1.7-4.5,4.5-4.5,7.8v51c0,0.6,0.5,1,1.1,1h21.1c0.6,0,1.1-0.5,1.1-1v-51c0-3.3-1.8-6.1-4.5-7.8c-1-0.6-1.5-1.6-1.5-2.7
				v-20.7C124,341.6,123.5,341.1,122.9,341.1L122.9,341.1z"/>
		</g>
		<path class="st14" d="M126.7,401.5H110c-0.8,0-1.4-0.6-1.4-1.4v-22.7c0-0.8,0.6-1.4,1.4-1.4h16.7c0.8,0,1.4,0.6,1.4,1.4v22.7
			C128.1,400.9,127.5,401.5,126.7,401.5z"/>
		<line class="st15" x1="113" y1="361.4" x2="122.7" y2="361.4"/>
		<line class="st16" x1="111.4" y1="397.3" x2="111.4" y2="414.6"/>
		<rect x="112.8" y="345" class="st10" width="10.7" height="3.3"/>
		<path class="st13" d="M123.1,343.5h-9.5c-0.9,0-1.6,0.7-1.6,1.6v3.1c0,0.9,0.7,1.6,1.6,1.6h0.7c0.4,0,0.7-0.3,0.7-0.7v0
			c0-0.4-0.3-0.7-0.7-0.7h-0.7c-0.1,0-0.1-0.1-0.1-0.1v-3.1c0-0.1,0.1-0.1,0.1-0.1h9.5c0.1,0,0.1,0.1,0.1,0.1v3.1
			c0,0.1-0.1,0.1-0.1,0.1h-4.4c-0.4,0-0.7,0.3-0.7,0.7v0c0,0.4,0.3,0.7,0.7,0.7h4.4c0.9,0,1.6-0.7,1.6-1.6v-3.1
			C124.7,344.2,124,343.5,123.1,343.5z"/>
		<g>
			<g>
				<path class="st1" d="M111.4,420.8c1.8,0,1.8-2.9,0-2.9C109.6,418,109.6,420.8,111.4,420.8L111.4,420.8z"/>
			</g>
		</g>
	</g>
</g>
<g id="Garrafa_destilado">
	<path class="st10" d="M260.9,414.2l-44.7,0.4l0.4-16l52.1-0.9c2.1,0,3.7,1.7,3.7,3.7v1.2C272.5,409,267.3,414.2,260.9,414.2z"/>
	<g>
		<path class="st11" d="M227.6,383.2c0,1.1-1,1.5-2.1,1.5c-0.9,0-1.7-0.3-1.7-1.1c0-0.5,0.5-0.9,1-1l0.3,0.4
			c-0.3,0.2-0.4,0.4-0.4,0.6c0,0.3,0.3,0.5,0.9,0.5c0.5,0,1-0.3,1-0.7c0-0.3-0.4-0.6-0.8-0.7l-0.9-0.3c-0.3-0.1-0.7-0.3-0.7-0.8
			l0.4-0.7c-0.4-0.3-0.5-0.7-0.5-1.2c0-0.8,0.7-1.6,1.8-1.6c0.3,0,0.6,0,0.8,0.1l1.2-0.1l-0.1,0.7h-0.5l0.4,0.3
			c0.1,0.2,0.1,0.4,0.1,0.7c0,1-0.8,1.5-2,1.5c-0.2,0-0.4,0-0.6-0.1l0,0.1c0,0.1,0.1,0.2,0.3,0.2l0.8,0.3
			C227,382.1,227.6,382.5,227.6,383.2z M225,379.7c0,0.7,0.3,1,0.8,1c0.5,0,0.8-0.3,0.8-1c0-0.8-0.4-1-0.8-1
			C225.3,378.8,225,379.1,225,379.7z"/>
		<path class="st11" d="M230,378.2c1.2,0,1.9,0.6,1.9,1.7v1.9l0.5,0.2l-0.1,0.5h-1.1l-0.3-0.2c-0.3,0.2-0.6,0.3-1.2,0.3
			c-0.8,0-1.5-0.4-1.5-1.3c0-1.2,1.4-1.5,2.6-1.5v-0.3c0-0.5-0.4-0.8-0.8-0.8c-0.2,0-0.5,0.1-0.7,0.1l-0.2,0.7l-0.6-0.1v-0.9
			C229,378.3,229.5,378.2,230,378.2z M229.4,381.3c0,0.5,0.4,0.7,0.6,0.7c0.2,0,0.6-0.1,0.7-0.4v-1.2
			C229.9,380.4,229.4,380.7,229.4,381.3z"/>
		<path class="st11" d="M235.6,378.9c-0.1,0-0.2,0-0.4,0c-0.2,0-0.5,0.1-0.8,0.2v2.7l0.7,0.2l-0.1,0.5h-2.2l-0.1-0.5l0.6-0.2v-2.9
			h-0.4l-0.1-0.5l1.2-0.1l0.4,0.2c0.3-0.1,0.7-0.2,1.2-0.2c0.3,0,0.6,0.1,0.9,0.2v1l-0.6,0.1L235.6,378.9z"/>
		<path class="st11" d="M239.7,378.9c-0.1,0-0.2,0-0.4,0c-0.2,0-0.5,0.1-0.8,0.2v2.7l0.7,0.2l-0.1,0.5H237l-0.1-0.5l0.6-0.2v-2.9
			H237l-0.1-0.5l1.2-0.1l0.4,0.2c0.3-0.1,0.7-0.2,1.2-0.2c0.3,0,0.6,0.1,0.9,0.2v1l-0.6,0.1L239.7,378.9z"/>
		<path class="st11" d="M242.7,378.2c1.2,0,1.9,0.6,1.9,1.7v1.9l0.5,0.2l-0.1,0.5h-1.1l-0.3-0.2c-0.3,0.2-0.6,0.3-1.2,0.3
			c-0.8,0-1.5-0.4-1.5-1.3c0-1.2,1.4-1.5,2.6-1.5v-0.3c0-0.5-0.4-0.8-0.8-0.8c-0.2,0-0.5,0.1-0.7,0.1l-0.2,0.7l-0.6-0.1v-0.9
			C241.8,378.3,242.3,378.2,242.7,378.2z M242.1,381.3c0,0.5,0.4,0.7,0.6,0.7c0.2,0,0.6-0.1,0.7-0.4v-1.2
			C242.6,380.4,242.1,380.7,242.1,381.3z"/>
		<path class="st11" d="M249.2,376.2v0.8l-0.6,0.1l-0.2-0.7c-0.1,0-0.3-0.1-0.4-0.1c-0.4,0-0.8,0.2-0.8,1v0.9h1l-0.1,0.5h-0.9v2.9
			l0.8,0.2l-0.1,0.5h-2.3l-0.1-0.5l0.6-0.2v-2.9h-0.6l-0.1-0.5l0.7-0.2v-0.6c0-1,0.7-1.8,1.9-1.8
			C248.5,375.8,248.8,375.9,249.2,376.2z"/>
		<path class="st11" d="M251,378.2c1.2,0,1.9,0.6,1.9,1.7v1.9l0.5,0.2l-0.1,0.5h-1.1l-0.3-0.2c-0.3,0.2-0.6,0.3-1.2,0.3
			c-0.8,0-1.5-0.4-1.5-1.3c0-1.2,1.4-1.5,2.6-1.5v-0.3c0-0.5-0.4-0.8-0.8-0.8c-0.2,0-0.5,0.1-0.7,0.1l-0.2,0.7l-0.6-0.1v-0.9
			C250,378.3,250.6,378.2,251,378.2z M250.4,381.3c0,0.5,0.4,0.7,0.6,0.7c0.2,0,0.6-0.1,0.7-0.4v-1.2
			C250.9,380.4,250.4,380.7,250.4,381.3z"/>
		<path class="st11" d="M258.3,382.6c-1.4,0-2.2-0.8-2.2-2.2c0-1.3,0.9-2.2,2.3-2.2c0.2,0,0.5,0,0.8,0.1v-1.9h-0.5l-0.1-0.5l1.2-0.1
			l0.5,0.1v5.8l0.6,0.2l-0.1,0.5h-1.2l-0.3-0.2C259,382.4,258.6,382.6,258.3,382.6z M258.4,378.8c-0.7,0-1.1,0.6-1.1,1.5
			c0,0.9,0.5,1.6,1.1,1.6c0.3,0,0.6-0.1,0.8-0.3V379C258.9,378.9,258.6,378.8,258.4,378.8z"/>
		<path class="st11" d="M265.1,381.5l0.3,0.5c-0.6,0.5-1.1,0.6-1.7,0.6c-1.7,0-2.5-0.9-2.5-2.2c0-1.4,1-2.2,2.3-2.2
			c1.1,0,2,0.6,2,1.5c0,0.2-0.1,0.6-0.2,0.8h-2.8c0,0.9,0.5,1.5,1.3,1.5C264.2,381.9,264.7,381.8,265.1,381.5z M264.4,379.6
			c0-0.5-0.4-0.8-0.8-0.8c-0.6,0-1,0.4-1,1.1h1.8C264.4,379.8,264.4,379.7,264.4,379.6z"/>
		<path class="st11" d="M226.1,393.4c-1.4,0-2.2-0.8-2.2-2.2c0-1.3,0.9-2.2,2.3-2.2c0.2,0,0.5,0,0.8,0.1v-1.9h-0.5l-0.1-0.5l1.2-0.1
			l0.5,0.1v5.8l0.6,0.2l-0.1,0.5h-1.2l-0.3-0.2C226.8,393.2,226.4,393.4,226.1,393.4z M226.2,389.6c-0.7,0-1.1,0.6-1.1,1.5
			c0,0.9,0.5,1.6,1.1,1.6c0.3,0,0.6-0.1,0.8-0.3v-2.6C226.7,389.7,226.4,389.6,226.2,389.6z"/>
		<path class="st11" d="M232.9,392.3l0.3,0.5c-0.6,0.5-1.1,0.6-1.7,0.6c-1.7,0-2.5-0.9-2.5-2.2c0-1.4,1-2.2,2.3-2.2
			c1.1,0,2,0.6,2,1.5c0,0.2-0.1,0.6-0.2,0.8h-2.8c0,0.9,0.5,1.5,1.3,1.5C232,392.7,232.5,392.6,232.9,392.3z M232.2,390.4
			c0-0.5-0.4-0.8-0.8-0.8c-0.6,0-1,0.4-1,1.1h1.8C232.2,390.6,232.2,390.5,232.2,390.4z"/>
		<path class="st11" d="M234,393v-1.1l0.6-0.1l0.3,0.9c0.1,0.1,0.5,0.1,0.6,0.1c0.4,0,0.8-0.2,0.8-0.5c0-0.3-0.5-0.5-0.9-0.7
			c-0.6-0.3-1.4-0.7-1.4-1.4c0-0.8,0.7-1.2,1.8-1.2c0.5,0,1,0.1,1.4,0.4v0.9l-0.6,0.1l-0.2-0.7c-0.2-0.1-0.5-0.1-0.7-0.1
			c-0.4,0-0.7,0.2-0.7,0.5c0,0.4,0.7,0.6,1.2,0.8c0.6,0.3,1.1,0.6,1.1,1.3c0,0.8-0.7,1.3-1.8,1.3C235.1,393.4,234.5,393.3,234,393z"
			/>
		<path class="st11" d="M240.7,389.1l-0.1,0.5h-1.1v2.6c0,0.3,0.2,0.5,0.4,0.5c0.2,0,0.5-0.2,0.8-0.4l0.4,0.5
			c-0.4,0.4-0.7,0.6-1.3,0.6c-0.9,0-1.4-0.5-1.4-1.2v-2.5h-0.5l-0.1-0.5l0.7-0.2l0.4-1l0.7,0.2v1H240.7z"/>
		<path class="st11" d="M243.6,393.3h-2.1l-0.1-0.5l0.6-0.2v-2.9h-0.4l-0.1-0.5l1.1-0.1l0.5,0.1v3.5l0.6,0.2L243.6,393.3z
			 M243.1,387.6c0,0.3-0.3,0.6-0.6,0.6c-0.3,0-0.6-0.3-0.6-0.6c0-0.3,0.3-0.6,0.6-0.6C242.8,387,243.1,387.3,243.1,387.6z"/>
		<path class="st11" d="M246.7,393.3h-2.2l-0.1-0.5l0.6-0.2v-5.3h-0.5l-0.1-0.5l1.2-0.1l0.5,0.1v5.8l0.6,0.2L246.7,393.3z"/>
		<path class="st11" d="M249.3,389c1.2,0,1.9,0.6,1.9,1.7v1.9l0.5,0.2l-0.1,0.5h-1.1l-0.3-0.2c-0.3,0.2-0.6,0.3-1.2,0.3
			c-0.8,0-1.5-0.4-1.5-1.3c0-1.2,1.4-1.5,2.6-1.5v-0.3c0-0.5-0.4-0.8-0.8-0.8c-0.2,0-0.5,0.1-0.7,0.1l-0.2,0.7l-0.6-0.1v-0.9
			C248.3,389.1,248.8,389,249.3,389z M248.7,392.1c0,0.5,0.4,0.7,0.6,0.7c0.2,0,0.6-0.1,0.7-0.4v-1.2
			C249.2,391.2,248.7,391.5,248.7,392.1z"/>
		<path class="st11" d="M254.3,393.4c-1.4,0-2.2-0.8-2.2-2.2c0-1.3,0.9-2.2,2.3-2.2c0.2,0,0.5,0,0.8,0.1v-1.9h-0.5l-0.1-0.5l1.2-0.1
			l0.5,0.1v5.8l0.6,0.2l-0.1,0.5h-1.2l-0.3-0.2C255,393.2,254.6,393.4,254.3,393.4z M254.4,389.6c-0.7,0-1.1,0.6-1.1,1.5
			c0,0.9,0.5,1.6,1.1,1.6c0.3,0,0.6-0.1,0.8-0.3v-2.6C254.9,389.7,254.6,389.6,254.4,389.6z"/>
		<path class="st11" d="M261.7,391.2c0,1.4-0.8,2.2-2.2,2.2c-1.4,0-2.2-0.9-2.2-2.2c0-1.3,0.9-2.2,2.2-2.2
			C260.8,389,261.7,389.8,261.7,391.2z M258.4,391.2c0,1,0.4,1.7,1.1,1.7c0.7,0,1.1-0.7,1.1-1.7c0-1-0.4-1.6-1.1-1.6
			C258.8,389.6,258.4,390.2,258.4,391.2z"/>
	</g>
	<g>
		<g>
			<path class="st1" d="M223.8,408.5l0-0.6c0.1,0,0.2,0,0.3,0c0.1,0,0.2,0,0.3,0c0.4,0,0.7,0,1-0.1c0.3-0.1,0.5-0.2,0.7-0.4
				c0.2-0.2,0.2-0.4,0.2-0.6c0-0.2,0-0.4-0.1-0.6c-0.1-0.2-0.2-0.3-0.4-0.4c-0.2-0.1-0.5-0.1-0.8-0.1l-0.4,0.1l-0.2-0.6
				c0.1,0,0.3-0.1,0.4-0.1s0.2-0.1,0.4-0.1c0.3-0.1,0.5-0.3,0.6-0.4s0.2-0.4,0.2-0.6c0-0.3-0.1-0.5-0.3-0.6
				c-0.2-0.1-0.4-0.2-0.6-0.2c-0.3,0-0.5,0-0.7,0.1c-0.2,0.1-0.4,0.2-0.5,0.3l-0.3-0.5c0.1-0.1,0.2-0.2,0.4-0.3
				c0.2-0.1,0.4-0.2,0.6-0.2c0.2-0.1,0.4-0.1,0.7-0.1c0.3,0,0.6,0.1,0.9,0.2s0.5,0.3,0.6,0.5s0.2,0.5,0.2,0.8c0,0.3-0.1,0.5-0.2,0.7
				c-0.1,0.2-0.3,0.4-0.5,0.5c-0.2,0.1-0.4,0.3-0.7,0.3v-0.1c0.4,0,0.7,0.1,0.9,0.2s0.4,0.3,0.6,0.5c0.1,0.2,0.2,0.5,0.2,0.7
				c0,0.3-0.1,0.6-0.3,0.9c-0.2,0.3-0.5,0.5-0.9,0.7c-0.4,0.2-0.9,0.3-1.4,0.3c-0.2,0-0.3,0-0.4,0S223.9,408.5,223.8,408.5z"/>
			<path class="st1" d="M228.4,408.5l-0.1-0.5c0.2-0.2,0.5-0.4,0.8-0.6s0.5-0.4,0.7-0.7c0.2-0.2,0.4-0.5,0.6-0.8s0.3-0.5,0.4-0.8
				c0.1-0.3,0.2-0.5,0.2-0.8c0-0.4-0.1-0.6-0.3-0.8c-0.2-0.2-0.4-0.3-0.7-0.3c-0.3,0-0.5,0.1-0.8,0.2s-0.4,0.2-0.6,0.4l-0.4-0.6
				c0.1-0.1,0.2-0.2,0.4-0.3c0.2-0.1,0.4-0.2,0.6-0.3c0.2-0.1,0.5-0.1,0.8-0.1c0.4,0,0.8,0.1,1,0.2s0.5,0.4,0.6,0.7
				c0.1,0.3,0.2,0.6,0.2,0.9c0,0.4-0.1,0.8-0.3,1.2s-0.5,0.8-0.8,1.2s-0.7,0.7-1.2,1l2.5,0v0.8H228.4z"/>
			<path class="st1" d="M236.2,408.6c-0.3,0-0.6-0.1-0.9-0.2c-0.3-0.2-0.5-0.4-0.6-0.7c-0.2-0.3-0.2-0.7-0.2-1.2
				c0-0.5,0.1-0.9,0.3-1.3c0.2-0.4,0.4-0.7,0.8-0.9c0.3-0.2,0.7-0.3,1.2-0.3c0.3,0,0.5,0,0.7,0.1s0.3,0.1,0.4,0.2l-0.3,0.6
				c-0.1-0.1-0.2-0.1-0.3-0.1c-0.1,0-0.3,0-0.5,0c-0.2,0-0.4,0.1-0.6,0.2c-0.2,0.1-0.3,0.3-0.4,0.6s-0.2,0.6-0.2,0.9
				c0,0.5,0.1,0.9,0.3,1.1s0.5,0.4,0.8,0.4c0.2,0,0.4,0,0.6-0.1c0.2-0.1,0.3-0.2,0.4-0.2l0.2,0.5c-0.1,0.1-0.1,0.1-0.3,0.2
				c-0.1,0.1-0.2,0.2-0.4,0.3S236.5,408.6,236.2,408.6z M237.5,408.5v-0.6l0,0v-3.2l0,0l0-0.9V402h0.9v6.5H237.5z"/>
			<path class="st1" d="M241.3,408.6c-0.4,0-0.7-0.1-0.9-0.2c-0.3-0.1-0.5-0.3-0.6-0.5c-0.2-0.2-0.3-0.5-0.3-0.8
				c-0.1-0.3-0.1-0.6-0.1-0.9c0-0.5,0.1-0.9,0.3-1.2c0.2-0.3,0.4-0.6,0.7-0.7c0.3-0.2,0.7-0.2,1-0.2c0.5,0,0.9,0.1,1.2,0.3
				c0.3,0.2,0.5,0.5,0.6,0.9c0.1,0.4,0.2,0.8,0.2,1.2c0,0.5-0.1,0.9-0.3,1.2c-0.2,0.3-0.4,0.6-0.7,0.7
				C242.1,408.5,241.7,408.6,241.3,408.6z M241.4,407.9c0.4,0,0.6-0.1,0.8-0.4s0.3-0.7,0.3-1.2c0-0.3,0-0.6-0.1-0.8
				c-0.1-0.3-0.2-0.5-0.3-0.6c-0.2-0.2-0.4-0.2-0.6-0.2c-0.4,0-0.6,0.1-0.8,0.4c-0.2,0.3-0.3,0.7-0.3,1.2c0,0.3,0,0.6,0.1,0.9
				c0.1,0.3,0.2,0.5,0.3,0.6C240.9,407.8,241.1,407.9,241.4,407.9z"/>
			<path class="st1" d="M244.2,408.2l0.1-0.7c0,0,0.1,0.1,0.2,0.1s0.3,0.1,0.5,0.1s0.4,0.1,0.5,0.1c0.3,0,0.5,0,0.6-0.1
				c0.1-0.1,0.2-0.2,0.2-0.4c0-0.1,0-0.2-0.1-0.3s-0.2-0.2-0.3-0.2c-0.1-0.1-0.3-0.2-0.5-0.2c-0.2-0.1-0.5-0.2-0.6-0.4
				c-0.2-0.1-0.3-0.3-0.4-0.5s-0.2-0.4-0.1-0.6c0-0.3,0.1-0.5,0.2-0.7c0.1-0.2,0.3-0.3,0.6-0.4c0.2-0.1,0.5-0.1,0.8-0.1
				c0.3,0,0.5,0,0.7,0.1c0.2,0.1,0.3,0.1,0.4,0.1l-0.1,0.7c0,0-0.1-0.1-0.2-0.1c-0.1,0-0.2-0.1-0.3-0.1c-0.1,0-0.3,0-0.4,0
				c-0.3,0-0.5,0-0.6,0.1s-0.2,0.2-0.2,0.3c0,0.2,0.1,0.3,0.2,0.4c0.1,0.1,0.3,0.2,0.5,0.3c0.3,0.1,0.5,0.3,0.7,0.4
				c0.2,0.1,0.4,0.3,0.5,0.4c0.1,0.2,0.2,0.4,0.2,0.6c0,0.4-0.1,0.7-0.4,0.9c-0.3,0.2-0.7,0.3-1.2,0.3c-0.2,0-0.4,0-0.6,0
				c-0.2,0-0.4-0.1-0.5-0.1C244.4,408.4,244.3,408.3,244.2,408.2z"/>
			<path class="st1" d="M250,408.6c-0.6,0-1.1-0.2-1.5-0.6s-0.5-1-0.5-1.7c0-0.4,0.1-0.8,0.2-1.2s0.4-0.6,0.7-0.8
				c0.3-0.2,0.7-0.3,1.1-0.3c0.2,0,0.4,0,0.6,0.1s0.4,0.2,0.5,0.3c0.2,0.1,0.3,0.3,0.4,0.5c0.1,0.2,0.1,0.5,0.1,0.7
				c0,0.2,0,0.3,0,0.5c0,0.1,0,0.2,0,0.4h-3.1l0.1-0.6h2.2c0-0.2,0-0.4,0-0.6c0-0.2-0.1-0.3-0.2-0.5c-0.1-0.1-0.3-0.2-0.6-0.2
				c-0.2,0-0.4,0.1-0.6,0.2c-0.2,0.1-0.3,0.3-0.4,0.6c-0.1,0.3-0.1,0.7-0.1,1.1c0,0.3,0.1,0.6,0.2,0.8c0.1,0.2,0.3,0.3,0.5,0.4
				c0.2,0.1,0.4,0.1,0.7,0.1c0.1,0,0.2,0,0.4,0s0.3-0.1,0.4-0.1c0.1,0,0.2-0.1,0.3-0.1l0.2,0.5c-0.1,0.1-0.2,0.2-0.4,0.2
				c-0.2,0.1-0.4,0.1-0.5,0.1C250.4,408.6,250.2,408.6,250,408.6z"/>
			<path class="st1" d="M252.5,408.2l0.1-0.7c0,0,0.1,0.1,0.2,0.1s0.3,0.1,0.5,0.1s0.4,0.1,0.5,0.1c0.3,0,0.5,0,0.6-0.1
				c0.1-0.1,0.2-0.2,0.2-0.4c0-0.1,0-0.2-0.1-0.3s-0.2-0.2-0.3-0.2c-0.1-0.1-0.3-0.2-0.5-0.2c-0.2-0.1-0.5-0.2-0.6-0.4
				c-0.2-0.1-0.3-0.3-0.4-0.5s-0.2-0.4-0.1-0.6c0-0.3,0.1-0.5,0.2-0.7c0.1-0.2,0.3-0.3,0.6-0.4c0.2-0.1,0.5-0.1,0.8-0.1
				c0.3,0,0.5,0,0.7,0.1c0.2,0.1,0.3,0.1,0.4,0.1l-0.1,0.7c0,0-0.1-0.1-0.2-0.1c-0.1,0-0.2-0.1-0.3-0.1c-0.1,0-0.3,0-0.4,0
				c-0.3,0-0.5,0-0.6,0.1s-0.2,0.2-0.2,0.3c0,0.2,0.1,0.3,0.2,0.4c0.1,0.1,0.3,0.2,0.5,0.3c0.3,0.1,0.5,0.3,0.7,0.4
				c0.2,0.1,0.4,0.3,0.5,0.4c0.1,0.2,0.2,0.4,0.2,0.6c0,0.4-0.1,0.7-0.4,0.9c-0.3,0.2-0.7,0.3-1.2,0.3c-0.2,0-0.4,0-0.6,0
				c-0.2,0-0.4-0.1-0.5-0.1C252.7,408.4,252.6,408.3,252.5,408.2z"/>
		</g>
	</g>
	<g>
		<rect x="204.2" y="345.3" class="st1" width="6.6" height="20.3"/>
		<g>
			<path class="st1" d="M216.6,420.5c-0.3,0-0.5-0.2-0.5-0.4l0.9-46.7c0-1-0.4-2-1.1-2.8l-3.7-3.8l0-0.1c0.1-0.1,0.2-0.2,0.2-0.3
				v-0.1c0-0.4-0.3-0.7-0.7-0.7h-0.2l-0.9-1.1h-6.4l-0.9,1.1h-0.2c-0.4,0-0.7,0.3-0.7,0.7v0.1c0,0.1,0.1,0.2,0.2,0.3l0,0.1l-3.7,3.8
				c-0.7,0.8-1.1,1.8-1.1,2.8l0.9,46.7c0,0.2-0.2,0.4-0.5,0.4c-0.4,0-0.8,0.3-0.8,0.7v3.3c0,0.4,0.3,0.7,0.8,0.7h0.6h17.2h0.6
				c0.4,0,0.8-0.3,0.8-0.7v-3.3C217.4,420.8,217.1,420.5,216.6,420.5z"/>
		</g>
		<g>
			<path class="st12" d="M204.4,359.6c-0.5,0-1-0.4-1-1v-13.3c0-0.5,0.4-1,1-1h6.2c0.5,0,1,0.4,1,1v13.3c0,0.5-0.4,1-1,1H204.4z"/>
			<path class="st17" d="M210.6,345.1c0.1,0,0.2,0.1,0.2,0.2v13.3c0,0.1-0.1,0.2-0.2,0.2h-6.2c-0.1,0-0.2-0.1-0.2-0.2v-13.3
				c0-0.1,0.1-0.2,0.2-0.2H210.6 M210.6,343.6h-6.2c-0.9,0-1.7,0.8-1.7,1.7v13.3c0,0.9,0.8,1.7,1.7,1.7h6.2c0.9,0,1.7-0.8,1.7-1.7
				v-13.3C212.3,344.3,211.5,343.6,210.6,343.6L210.6,343.6z"/>
		</g>
		<g>
			<path class="st17" d="M210.6,364.5l0.9,1.1h0.2c0.4,0,0.7,0.3,0.7,0.7v0.1c0,0.1-0.1,0.2-0.2,0.3l0,0.1l3.7,3.8
				c0.7,0.8,1.1,1.8,1.1,2.8l-0.9,46.7c0,0.2,0.2,0.4,0.5,0.4c0.4,0,0.8,0.3,0.8,0.7v3.3c0,0.4-0.3,0.7-0.8,0.7h-0.6h-17.2h-0.6
				c-0.4,0-0.8-0.3-0.8-0.7v-3.3c0-0.4,0.3-0.7,0.8-0.7c0.3,0,0.5-0.2,0.5-0.4l-0.9-46.7c0-1,0.4-2,1.1-2.8l3.7-3.8l0-0.1
				c-0.1-0.1-0.2-0.2-0.2-0.3v-0.1c0-0.4,0.3-0.7,0.7-0.7h0.2l0.9-1.1H210.6 M211.4,363h-0.7h-6.4h-0.7l-0.5,0.6l-0.5,0.6
				c-0.9,0.2-1.6,1.1-1.6,2.1l-3.2,3.2l0,0l0,0c-1,1.1-1.5,2.5-1.4,3.9l0.9,45.9c-0.7,0.4-1.2,1.1-1.2,2v3.3c0,1.2,1,2.2,2.3,2.2
				h0.6h17.2h0.6c1.2,0,2.3-1,2.3-2.2v-3.3c0-0.8-0.5-1.6-1.2-2l0.9-45.9c0-1.4-0.5-2.8-1.4-3.9l0,0l0,0l-3.2-3.2
				c0-1-0.7-1.8-1.6-2.1l-0.5-0.6L211.4,363L211.4,363z"/>
		</g>
		<g>
			<path class="st17" d="M210.6,361.2v0.7h-6.4v-0.7H210.6 M212.1,359.7h-1.5h-6.4h-1.5v1.5v0.7v1.5h1.5h6.4h1.5v-1.5v-0.7V359.7
				L212.1,359.7z"/>
		</g>
		<path class="st18" d="M204.6,416.6c0-0.5,0.1-1,0.4-1.4l-6.4-0.5l0.1,3.4l6.7,0.5l0,0C205,418.1,204.6,417.3,204.6,416.6z"/>
		<path class="st18" d="M210.2,416.5c0-0.5-0.1-1-0.4-1.4l6.4-0.5l-0.1,3.4l-6.7,0.5v0C209.9,418,210.2,417.3,210.2,416.5z"/>
		<g>
			<path class="st12" d="M215.9,374.7c0-0.7-0.5-1.4-1.3-1.5c-2.2-0.3-4.6-0.5-7.2-0.5c-2.6,0-5,0.2-7.2,0.5
				c-0.7,0.1-1.3,0.7-1.3,1.5v2.7c0,0.9,0.8,1.6,1.7,1.5c2.1-0.3,4.4-0.5,6.8-0.5c2.4,0,4.7,0.2,6.7,0.5c0.9,0.1,1.7-0.6,1.7-1.5
				V374.7z"/>
		</g>
		<g>
			<line class="st19" x1="203.4" y1="348.3" x2="211.8" y2="348.3"/>
		</g>
		<path class="st12" d="M211.6,391.4l-3.7,1.6c-0.4,0.1-0.8,0.1-1.1,0l-3.5-1.5c-0.5-0.2-0.8-0.7-0.8-1.3v-7.7
			c0-0.8,0.6-1.4,1.4-1.4h7.2c0.8,0,1.4,0.6,1.4,1.4v7.7C212.5,390.7,212.1,391.2,211.6,391.4z"/>
		<g>
			<circle class="st12" cx="207.5" cy="416.6" r="2.8"/>
		</g>
	</g>
</g>
<g id="Long_neck_cerveja">
	<g>
		<circle class="st20" cx="147.7" cy="137.5" r="2"/>
		<line class="st21" x1="147.7" y1="167.7" x2="147.7" y2="139.9"/>
	</g>
	<g>
		<g>
			<circle class="st1" cx="146.8" cy="75.6" r="29.7"/>
			<g>
				<path class="st1" d="M137.9,108.6L137.9,108.6l0-2.5V77.7c0-1.5,0.3-3.1,0.8-4.5c0.2-0.6,0.5-1.3,0.9-1.9l2.1-3.4
					c0.1-0.2,0.2-0.5,0.2-0.7l1.5-24.7h6.2l1.5,24.8c0,0.3,0.1,0.5,0.2,0.7l2.1,3.2c0.5,0.7,0.8,1.4,1,2.2c0.4,1.4,0.7,2.8,0.7,4.3
					v30.9l-0.1,0.1H137.9z"/>
				<path class="st17" d="M148.8,43.2l1.5,24.1c0,0.4,0.1,0.8,0.4,1.1l2.1,3.2c0.4,0.6,0.7,1.3,1,2c0.4,1.3,0.6,2.7,0.6,4v27.4v1
					v1.7h-15.8v-1.7v-1V77.7c0-1.5,0.2-2.9,0.7-4.3c0.2-0.6,0.5-1.2,0.9-1.8l2.1-3.4c0.2-0.3,0.3-0.7,0.4-1.1l1.5-24H148.8
					 M150.3,41.7h-7.6l-1.6,25.4c0,0.1-0.1,0.3-0.1,0.4l-2.1,3.4c-0.4,0.7-0.8,1.3-1,2.1c-0.5,1.5-0.8,3.1-0.8,4.8v27.4v1v2.4
					c0,0.4,0.2,0.7,0.6,0.8v0h0.2H155c0.4,0,0.8-0.4,0.8-0.8v-2.4v-1V77.7c0-1.5-0.2-3.1-0.7-4.5c-0.3-0.8-0.7-1.6-1.1-2.4l-2.1-3.2
					c-0.1-0.1-0.1-0.2-0.1-0.4L150.3,41.7L150.3,41.7z"/>
			</g>
			<g>
				<path class="st17" d="M151,44.5h-9.2c-0.2,0-0.3-0.2-0.3-0.3V43c0-0.7,0.6-1.2,1.2-1.2h7.4c0.7,0,1.2,0.6,1.2,1.2v1.2
					C151.4,44.4,151.2,44.5,151,44.5z"/>
			</g>
			<path class="st22" d="M151.7,73.3l-2.7-4.8c-0.1-0.1-0.1-0.3-0.1-0.4l-0.9-12.7h-3.3L144,68.3c0,0.1-0.1,0.3-0.1,0.4l-2.6,4.6
				c-0.4,0.6-0.6,1.3-0.8,2c-0.3,1.3-0.5,2.6-0.5,3.9v23.3v0.9v2.1c0,0.3,0.2,0.6,0.4,0.7v0h0.2h12c0.3,0,0.6-0.3,0.6-0.7v-2.1v-0.9
				V79.2c0-1.4-0.2-2.7-0.5-4C152.3,74.5,152,73.9,151.7,73.3z"/>
			<g>
				<rect x="137.8" y="77.6" class="st10" width="17.3" height="23.9"/>
				<path class="st17" d="M154.3,78.4v22.4h-15.8V78.4H154.3 M155.8,76.9h-18.8v25.4h18.8V76.9L155.8,76.9z"/>
			</g>
			<g>
				<path class="st1" d="M146.5,95.6c-2.6,0-4.7-2.8-4.7-6.2c0-3.4,2.1-6.2,4.7-6.2c2.6,0,4.7,2.8,4.7,6.2
					C151.2,92.9,149.1,95.6,146.5,95.6z"/>
				<path class="st17" d="M146.5,84.8c1.7,0,3.2,2.1,3.2,4.6s-1.5,4.6-3.2,4.6c-1.7,0-3.2-2.1-3.2-4.6S144.8,84.8,146.5,84.8
					 M146.5,81.8c-3.4,0-6.2,3.4-6.2,7.7s2.8,7.7,6.2,7.7c3.4,0,6.2-3.4,6.2-7.7S150,81.8,146.5,81.8L146.5,81.8z"/>
			</g>
			<path class="st10" d="M150.6,91.2h-8.2c-0.4,0-0.8-0.4-0.8-0.8v-1.8c0-0.4,0.4-0.8,0.8-0.8h8.2c0.4,0,0.8,0.4,0.8,0.8v1.8
				C151.4,90.8,151,91.2,150.6,91.2z"/>
		</g>
	</g>
	<g>
		<path class="st11" d="M122.5,121.1h-2.2l-0.1-0.5l0.6-0.2V115h-0.5l-0.1-0.5l1.2-0.1l0.5,0.1v5.8l0.6,0.2L122.5,121.1z"/>
		<path class="st11" d="M127.8,119c0,1.4-0.8,2.2-2.2,2.2c-1.4,0-2.3-0.9-2.3-2.2c0-1.3,0.9-2.2,2.3-2.2
			C126.9,116.8,127.8,117.6,127.8,119z M124.5,119c0,1,0.4,1.7,1.1,1.7c0.7,0,1.1-0.7,1.1-1.7c0-1-0.4-1.6-1.1-1.6
			C124.9,117.4,124.5,118,124.5,119z"/>
		<path class="st11" d="M130.2,117.6v2.7l0.6,0.2l-0.1,0.5h-2.1l-0.1-0.5l0.6-0.2v-2.9h-0.4l-0.1-0.5l1.2-0.1l0.4,0.2
			c0.3-0.1,0.7-0.2,1.1-0.2c1,0,1.7,0.5,1.7,1.5v2l0.6,0.2l-0.1,0.5h-2.1l-0.1-0.5l0.6-0.2v-2.2c0-0.5-0.4-0.7-0.8-0.7
			C130.7,117.4,130.4,117.5,130.2,117.6z"/>
		<path class="st11" d="M137.9,121.8c0,1.1-1,1.5-2.1,1.5c-0.9,0-1.7-0.3-1.7-1.1c0-0.5,0.5-0.9,1-1l0.3,0.4
			c-0.3,0.2-0.4,0.4-0.4,0.6c0,0.3,0.3,0.5,0.9,0.5c0.5,0,1-0.3,1-0.7c0-0.3-0.4-0.6-0.8-0.7L135,121c-0.3-0.1-0.7-0.3-0.7-0.8
			l0.4-0.7c-0.4-0.3-0.5-0.7-0.5-1.2c0-0.8,0.7-1.6,1.8-1.6c0.3,0,0.6,0,0.8,0.1l1.2-0.1l-0.1,0.7h-0.5l0.4,0.3
			c0.1,0.2,0.1,0.4,0.1,0.7c0,1-0.8,1.5-2,1.5c-0.2,0-0.4,0-0.6-0.1l0,0.1c0,0.1,0.1,0.2,0.3,0.2l0.8,0.3
			C137.2,120.7,137.9,121.1,137.9,121.8z M135.2,118.3c0,0.7,0.3,1,0.8,1c0.5,0,0.8-0.3,0.8-1c0-0.8-0.4-1-0.8-1
			C135.6,117.4,135.2,117.7,135.2,118.3z"/>
		<path class="st11" d="M142.4,117.6v2.7l0.6,0.2l-0.1,0.5h-2.1l-0.1-0.5l0.6-0.2v-2.9h-0.4l-0.1-0.5l1.2-0.1l0.4,0.2
			c0.3-0.1,0.7-0.2,1.1-0.2c1,0,1.7,0.5,1.7,1.5v2l0.6,0.2l-0.1,0.5h-2.1l-0.1-0.5l0.6-0.2v-2.2c0-0.5-0.4-0.7-0.8-0.7
			C142.9,117.4,142.6,117.5,142.4,117.6z"/>
		<path class="st11" d="M150.2,120.1l0.3,0.5c-0.6,0.5-1.1,0.6-1.7,0.6c-1.7,0-2.5-0.9-2.5-2.2c0-1.4,1-2.2,2.3-2.2
			c1.1,0,2,0.6,2,1.5c0,0.2-0.1,0.6-0.2,0.8h-2.8c0,0.9,0.5,1.5,1.3,1.5C149.3,120.5,149.8,120.4,150.2,120.1z M149.5,118.2
			c0-0.5-0.4-0.8-0.8-0.8c-0.6,0-1,0.4-1,1.1h1.8C149.5,118.4,149.5,118.3,149.5,118.2z"/>
		<path class="st11" d="M152.5,118.8c0,0.9,0.3,1.7,1.2,1.7c0.4,0,0.9-0.1,1.3-0.4l0.3,0.5c-0.4,0.4-1.1,0.6-1.6,0.6
			c-1.6,0-2.4-0.9-2.4-2.2c0-1.4,1-2.2,2.4-2.2c0.4,0,1,0.1,1.5,0.4v0.9l-0.6,0.1l-0.2-0.7c-0.2-0.1-0.5-0.1-0.7-0.1
			C153,117.4,152.5,117.9,152.5,118.8z"/>
		<path class="st11" d="M158.1,121.1H156l-0.1-0.5l0.6-0.2V115h-0.4l-0.1-0.5l1.1-0.1l0.5,0.1v5.8l0.6,0.2L158.1,121.1z
			 M158.6,117.4l0.5,0.2l-1.2,1.1v0.4l1.1,1.5l-0.1,0.5h1.8l0.1-0.5l-0.7-0.2l-1-1.4l-0.5-0.1l1.1-1c0.2-0.2,0.5-0.3,0.9-0.4
			l-0.1-0.5h-1.8L158.6,117.4z"/>
		<path class="st11" d="M165.7,121.2c-1.5,0-2.2-0.8-2.2-2.2c0-1.3,0.9-2.2,2.3-2.2c0.2,0,0.5,0,0.8,0.1V115H166l-0.1-0.5l1.2-0.1
			l0.5,0.1v5.8l0.6,0.2l-0.1,0.5h-1.2l-0.3-0.2C166.4,121,166,121.2,165.7,121.2z M165.8,117.4c-0.7,0-1.1,0.6-1.1,1.5
			c0,0.9,0.5,1.6,1.1,1.6c0.3,0,0.6-0.1,0.8-0.3v-2.6C166.3,117.5,166,117.4,165.8,117.4z"/>
		<path class="st11" d="M172.5,120.1l0.3,0.5c-0.6,0.5-1.1,0.6-1.7,0.6c-1.7,0-2.5-0.9-2.5-2.2c0-1.4,1-2.2,2.3-2.2
			c1.1,0,2,0.6,2,1.5c0,0.2-0.1,0.6-0.2,0.8h-2.8c0,0.9,0.5,1.5,1.3,1.5C171.6,120.5,172.1,120.4,172.5,120.1z M171.8,118.2
			c0-0.5-0.4-0.8-0.8-0.8c-0.6,0-1,0.4-1,1.1h1.8C171.8,118.4,171.8,118.3,171.8,118.2z"/>
		<path class="st11" d="M132.7,129.6c0,0.9,0.3,1.7,1.2,1.7c0.4,0,0.9-0.1,1.3-0.4l0.3,0.5c-0.4,0.4-1.1,0.6-1.6,0.6
			c-1.6,0-2.4-0.9-2.4-2.2c0-1.4,1-2.2,2.4-2.2c0.4,0,1,0.1,1.5,0.4v0.9l-0.6,0.1l-0.2-0.7c-0.2-0.1-0.5-0.1-0.7-0.1
			C133.1,128.2,132.7,128.7,132.7,129.6z"/>
		<path class="st11" d="M139.9,130.9l0.3,0.5c-0.6,0.5-1.1,0.6-1.7,0.6c-1.7,0-2.5-0.9-2.5-2.2c0-1.4,1-2.2,2.3-2.2
			c1.1,0,2,0.6,2,1.5c0,0.2-0.1,0.6-0.2,0.8h-2.8c0,0.9,0.5,1.5,1.3,1.5C139,131.3,139.5,131.2,139.9,130.9z M139.2,129
			c0-0.5-0.4-0.8-0.8-0.8c-0.6,0-1,0.4-1,1.1h1.8C139.2,129.2,139.2,129.1,139.2,129z"/>
		<path class="st11" d="M143.8,128.3c-0.1,0-0.2,0-0.4,0c-0.2,0-0.5,0.1-0.8,0.2v2.7l0.7,0.2l-0.1,0.5h-2.2l-0.1-0.5l0.6-0.2v-2.9
			h-0.4l-0.1-0.5l1.2-0.1l0.4,0.2c0.3-0.1,0.7-0.2,1.2-0.2c0.3,0,0.6,0.1,0.9,0.2v1l-0.6,0.1L143.8,128.3z"/>
		<path class="st11" d="M147,132l-1.5-3.6l-0.6-0.2l0.1-0.5h2.1l0.1,0.5l-0.5,0.2l0.8,1.7v0.8l1.1-2.6l-0.5-0.2l0.1-0.5h1.6l0.1,0.5
			l-0.6,0.2l-1.4,3.5L147,132z"/>
		<path class="st11" d="M154.1,130.9l0.3,0.5c-0.6,0.5-1.1,0.6-1.7,0.6c-1.7,0-2.5-0.9-2.5-2.2c0-1.4,1-2.2,2.3-2.2
			c1.1,0,2,0.6,2,1.5c0,0.2-0.1,0.6-0.2,0.8h-2.8c0,0.9,0.5,1.5,1.3,1.5C153.1,131.3,153.6,131.2,154.1,130.9z M153.3,129
			c0-0.5-0.4-0.8-0.8-0.8c-0.6,0-1,0.4-1,1.1h1.8C153.3,129.2,153.3,129.1,153.3,129z"/>
		<path class="st11" d="M156.8,127.7v3.5c0,1.2-0.3,2.4-2.1,3l-0.3-0.5c1.2-0.8,1.3-1.6,1.3-2.6v-2.8h-0.5l-0.1-0.5l1.2-0.1
			L156.8,127.7z M156.7,126.2c0,0.3-0.3,0.6-0.6,0.6c-0.3,0-0.6-0.3-0.6-0.6c0-0.3,0.3-0.6,0.6-0.6
			C156.5,125.6,156.7,125.9,156.7,126.2z"/>
		<path class="st11" d="M159.6,127.6c1.2,0,1.9,0.6,1.9,1.7v1.9l0.5,0.2l-0.1,0.5h-1.1l-0.3-0.2c-0.3,0.2-0.6,0.3-1.2,0.3
			c-0.8,0-1.5-0.4-1.5-1.3c0-1.2,1.4-1.5,2.6-1.5v-0.3c0-0.5-0.4-0.8-0.8-0.8c-0.2,0-0.5,0.1-0.7,0.1l-0.2,0.7l-0.6-0.1V128
			C158.6,127.7,159.1,127.6,159.6,127.6z M159,130.7c0,0.5,0.4,0.7,0.6,0.7c0.2,0,0.6-0.1,0.7-0.4v-1.2
			C159.5,129.8,159,130.1,159,130.7z"/>
	</g>
</g>
<g id="Latinha_cerveja">
	<g>
		<path class="st19" d="M217.7,121.9l-23.4,0c-3.9,0-7.1,3.2-7.1,7.1v23.9c0,3.9-3.2,7.1-7.1,7.1h-14.2"/>
		<circle class="st20" cx="219.7" cy="121.9" r="2"/>
	</g>
	<g>
		<circle class="st1" cx="255.2" cy="119.4" r="29.7"/>
		<polygon class="st22" points="265.1,109.2 246.3,109.2 247.2,104.7 264,104.7 		"/>
		<rect x="245.3" y="107.8" class="st10" width="20.3" height="27.4"/>
		<path class="st17" d="M263.7,104.3l-0.2-0.4c-0.2-0.2-0.4-0.4-0.7-0.4h-0.4h-5.9h-1.6h-5.9h-0.4c-0.3,0-0.5,0.1-0.7,0.4l-0.2,0.4
			l-2.2,3.3c-0.5,0.7-0.8,1.6-0.8,2.5v24.3c0,0.7,0.2,1.5,0.6,2.1l1.3,2.2l0.2,0.4c0.1,0.2,0.4,0.4,0.7,0.4h16.5
			c0.3,0,0.6-0.2,0.7-0.4l0.2-0.4l1.5-2.6c0.2-0.4,0.3-0.8,0.3-1.3v-24.8c0-0.9-0.3-1.8-0.8-2.5L263.7,104.3z M265.1,134.4
			c0,0.4-0.1,0.9-0.3,1.3l-1.3,2.1h-15.7l-1.3-2.1c-0.2-0.4-0.3-0.8-0.3-1.3v-24.6c0-0.4,0.1-0.8,0.3-1.1l2.4-3.6h5.6h0.3h1.6h3.6
			h2.3l2.4,3.6c0.2,0.3,0.3,0.7,0.3,1.1V134.4z"/>
		<line class="st19" x1="245.3" y1="135.2" x2="265" y2="135.2"/>
		<line class="st23" x1="247.2" y1="104.2" x2="264" y2="104.2"/>
		<ellipse class="st24" cx="255.6" cy="121.5" rx="8.4" ry="9.9"/>
		<ellipse class="st25" cx="255.5" cy="121.6" rx="6.1" ry="7.4"/>
		<path class="st10" d="M262.8,123.8h-14.6c-0.5,0-0.8-0.4-0.8-0.8v-2.7c0-0.5,0.4-0.8,0.8-0.8h14.6c0.5,0,0.8,0.4,0.8,0.8v2.7
			C263.7,123.4,263.3,123.8,262.8,123.8z"/>
		<g>
			<path class="st17" d="M260.7,102.5c-0.4,0.4-0.9,0.8-1.6,1.2h-1c0.2-0.1,0.4-0.2,0.6-0.4C259.4,102.9,260.1,102.6,260.7,102.5
				 M261.6,100.8c-0.9,0-2.3,0.4-3.6,1.2c-1.7,1-2.9,2.3-3.1,3.2h4.7c0.1,0,0.1-0.1,0.2-0.1c2.2-1.2,3.5-2.9,3-3.8
				C262.5,101,262.1,100.8,261.6,100.8L261.6,100.8z"/>
		</g>
	</g>
	<g>
		<path class="st11" d="M236.4,163.4h-2.2l-0.1-0.5l0.6-0.2v-5.3h-0.5l-0.1-0.5l1.2-0.1l0.5,0.1v5.8l0.6,0.2L236.4,163.4z"/>
		<path class="st11" d="M239,159.1c1.2,0,1.9,0.6,1.9,1.7v1.9l0.5,0.2l-0.1,0.5h-1.1l-0.3-0.2c-0.3,0.2-0.6,0.3-1.2,0.3
			c-0.8,0-1.5-0.4-1.5-1.3c0-1.2,1.4-1.5,2.6-1.5v-0.3c0-0.5-0.4-0.8-0.8-0.8c-0.2,0-0.5,0.1-0.7,0.1l-0.2,0.7l-0.6-0.1v-0.9
			C238,159.2,238.6,159.1,239,159.1z M238.4,162.2c0,0.5,0.4,0.7,0.6,0.7c0.2,0,0.6-0.1,0.7-0.4v-1.2
			C238.9,161.3,238.4,161.6,238.4,162.2z"/>
		<path class="st11" d="M244.5,159.2l-0.1,0.5h-1.1v2.6c0,0.3,0.2,0.5,0.4,0.5c0.2,0,0.5-0.2,0.8-0.4l0.4,0.5
			c-0.4,0.4-0.7,0.6-1.3,0.6c-0.9,0-1.4-0.5-1.4-1.2v-2.5h-0.5l-0.1-0.5l0.7-0.2l0.4-1l0.7,0.2v1H244.5z"/>
		<path class="st11" d="M247.4,163.4h-2.1l-0.1-0.5l0.6-0.2v-2.9h-0.4l-0.1-0.5l1.1-0.1l0.5,0.1v3.5l0.6,0.2L247.4,163.4z
			 M246.9,157.7c0,0.3-0.3,0.6-0.6,0.6c-0.3,0-0.6-0.3-0.6-0.6c0-0.3,0.3-0.6,0.6-0.6C246.6,157.1,246.9,157.4,246.9,157.7z"/>
		<path class="st11" d="M249.9,159.9v2.7l0.6,0.2l-0.1,0.5h-2.1l-0.1-0.5l0.6-0.2v-2.9h-0.4l-0.1-0.5l1.2-0.1l0.4,0.2
			c0.3-0.1,0.7-0.2,1.1-0.2c1,0,1.7,0.5,1.7,1.5v2l0.6,0.2l-0.1,0.5H251l-0.1-0.5l0.6-0.2v-2.2c0-0.5-0.4-0.7-0.8-0.7
			C250.4,159.7,250.1,159.8,249.9,159.9z"/>
		<path class="st11" d="M255.8,163.4h-2l-0.1-0.5l0.6-0.2v-5.3h-0.5l-0.1-0.5l1.2-0.1l0.5,0.1v2.5c0.3-0.1,0.7-0.2,1-0.2
			c1,0,1.7,0.5,1.7,1.4v2.1l0.6,0.2l-0.1,0.5h-2.1l-0.1-0.5l0.6-0.2v-2.3c0-0.5-0.3-0.6-0.6-0.6c-0.3,0-0.7,0.1-1,0.2v2.7l0.6,0.2
			L255.8,163.4z"/>
		<path class="st11" d="M261,159.1c1.2,0,1.9,0.6,1.9,1.7v1.9l0.5,0.2l-0.1,0.5h-1.1l-0.3-0.2c-0.3,0.2-0.6,0.3-1.2,0.3
			c-0.8,0-1.5-0.4-1.5-1.3c0-1.2,1.4-1.5,2.6-1.5v-0.3c0-0.5-0.4-0.8-0.8-0.8c-0.2,0-0.5,0.1-0.7,0.1l-0.2,0.7l-0.6-0.1v-0.9
			C260,159.2,260.6,159.1,261,159.1z M260.4,162.2c0,0.5,0.4,0.7,0.6,0.7c0.2,0,0.6-0.1,0.7-0.4v-1.2
			C260.9,161.3,260.4,161.6,260.4,162.2z"/>
		<path class="st11" d="M268.3,163.5c-1.4,0-2.2-0.8-2.2-2.2c0-1.3,0.9-2.2,2.3-2.2c0.2,0,0.5,0,0.8,0.1v-1.9h-0.5l-0.1-0.5l1.2-0.1
			l0.5,0.1v5.8l0.6,0.2l-0.1,0.5h-1.2l-0.3-0.2C269,163.3,268.6,163.5,268.3,163.5z M268.4,159.7c-0.7,0-1.1,0.6-1.1,1.5
			c0,0.9,0.5,1.6,1.1,1.6c0.3,0,0.6-0.1,0.8-0.3v-2.6C268.9,159.8,268.6,159.7,268.4,159.7z"/>
		<path class="st11" d="M275.1,162.4l0.3,0.5c-0.6,0.5-1.1,0.6-1.7,0.6c-1.7,0-2.5-0.9-2.5-2.2c0-1.4,1-2.2,2.3-2.2
			c1.1,0,2,0.6,2,1.5c0,0.2-0.1,0.6-0.2,0.8h-2.8c0,0.9,0.5,1.5,1.3,1.5C274.2,162.8,274.6,162.7,275.1,162.4z M274.3,160.5
			c0-0.5-0.4-0.8-0.8-0.8c-0.6,0-1,0.4-1,1.1h1.8C274.3,160.7,274.3,160.6,274.3,160.5z"/>
		<path class="st11" d="M240.9,171.9c0,0.9,0.3,1.7,1.2,1.7c0.4,0,0.9-0.1,1.3-0.4l0.3,0.5c-0.4,0.4-1.1,0.6-1.6,0.6
			c-1.6,0-2.4-0.9-2.4-2.2c0-1.4,1-2.2,2.4-2.2c0.4,0,1,0.1,1.5,0.4v0.9l-0.6,0.1l-0.2-0.7c-0.2-0.1-0.5-0.1-0.7-0.1
			C241.4,170.5,240.9,171,240.9,171.9z"/>
		<path class="st11" d="M248.2,173.2l0.3,0.5c-0.6,0.5-1.1,0.6-1.7,0.6c-1.7,0-2.5-0.9-2.5-2.2c0-1.4,1-2.2,2.3-2.2
			c1.1,0,2,0.6,2,1.5c0,0.2-0.1,0.6-0.2,0.8h-2.8c0,0.9,0.5,1.5,1.3,1.5C247.3,173.6,247.7,173.5,248.2,173.2z M247.4,171.3
			c0-0.5-0.4-0.8-0.8-0.8c-0.6,0-1,0.4-1,1.1h1.8C247.4,171.5,247.4,171.4,247.4,171.3z"/>
		<path class="st11" d="M252.1,170.6c-0.1,0-0.2,0-0.4,0c-0.2,0-0.5,0.1-0.8,0.2v2.7l0.7,0.2l-0.1,0.5h-2.2l-0.1-0.5l0.6-0.2v-2.9
			h-0.4l-0.1-0.5l1.2-0.1l0.4,0.2c0.3-0.1,0.7-0.2,1.2-0.2c0.3,0,0.6,0.1,0.9,0.2v1l-0.6,0.1L252.1,170.6z"/>
		<path class="st11" d="M255.3,174.3l-1.5-3.6l-0.6-0.2l0.1-0.5h2.1l0.1,0.5l-0.5,0.2l0.8,1.7v0.8l1.1-2.6l-0.5-0.2l0.1-0.5h1.6
			l0.1,0.5l-0.6,0.2l-1.4,3.5L255.3,174.3z"/>
		<path class="st11" d="M262.3,173.2l0.3,0.5c-0.6,0.5-1.1,0.6-1.7,0.6c-1.7,0-2.5-0.9-2.5-2.2c0-1.4,1-2.2,2.3-2.2
			c1.1,0,2,0.6,2,1.5c0,0.2-0.1,0.6-0.2,0.8h-2.8c0,0.9,0.5,1.5,1.3,1.5C261.4,173.6,261.9,173.5,262.3,173.2z M261.6,171.3
			c0-0.5-0.4-0.8-0.8-0.8c-0.6,0-1,0.4-1,1.1h1.8C261.5,171.5,261.6,171.4,261.6,171.3z"/>
		<path class="st11" d="M265,170v3.5c0,1.2-0.3,2.4-2.1,3l-0.3-0.5c1.2-0.8,1.3-1.6,1.3-2.6v-2.8h-0.5l-0.1-0.5l1.2-0.1L265,170z
			 M265,168.5c0,0.3-0.3,0.6-0.6,0.6c-0.3,0-0.6-0.3-0.6-0.6c0-0.3,0.3-0.6,0.6-0.6C264.7,167.9,265,168.2,265,168.5z"/>
		<path class="st11" d="M267.8,169.9c1.2,0,1.9,0.6,1.9,1.7v1.9l0.5,0.2l-0.1,0.5h-1.1l-0.3-0.2c-0.3,0.2-0.6,0.3-1.2,0.3
			c-0.8,0-1.5-0.4-1.5-1.3c0-1.2,1.4-1.5,2.6-1.5v-0.3c0-0.5-0.4-0.8-0.8-0.8c-0.2,0-0.5,0.1-0.7,0.1l-0.2,0.7l-0.6-0.1v-0.9
			C266.8,170,267.4,169.9,267.8,169.9z M267.2,173c0,0.5,0.4,0.7,0.6,0.7c0.2,0,0.6-0.1,0.7-0.4v-1.2
			C267.7,172.1,267.2,172.4,267.2,173z"/>
	</g>
</g>
<g id="Martelinho_destilado">
	<g>
		<path class="st19" d="M76.1,226.8l23.4,0c3.9,0,7.1-3.2,7.1-7.1v-23.9c0-3.9,3.2-7.1,7.1-7.1h14.2"/>
		<circle class="st20" cx="74.1" cy="226.8" r="2"/>
	</g>
	<g>
		<path class="st11" d="M20.7,273.9l-0.1,0.5h-2.1l-0.1-0.5l0.6-0.2v-2.2c0-0.5-0.4-0.7-0.7-0.7c-0.2,0-0.5,0.1-0.8,0.2v2.7l0.6,0.2
			l-0.1,0.5h-2.1l-0.1-0.5l0.6-0.2v-2.9H16l-0.1-0.5l1.1-0.1l0.4,0.2c0.3-0.1,0.7-0.2,1.1-0.2c0.5,0,0.9,0.1,1.2,0.3
			c0.3-0.2,0.8-0.3,1.3-0.3c1.2,0,1.8,0.5,1.8,1.5v2l0.6,0.2l-0.1,0.5h-2.1l-0.1-0.5l0.6-0.2v-2.1c0-0.5-0.4-0.8-0.8-0.8
			c-0.3,0-0.6,0.1-0.8,0.2c0.1,0.2,0.1,0.4,0.1,0.7v2L20.7,273.9z"/>
		<path class="st11" d="M25.8,270.2c1.2,0,1.9,0.6,1.9,1.7v1.9l0.5,0.2l-0.1,0.5h-1.1l-0.3-0.2c-0.3,0.2-0.6,0.3-1.2,0.3
			c-0.8,0-1.5-0.4-1.5-1.3c0-1.2,1.4-1.5,2.6-1.5v-0.3c0-0.5-0.4-0.8-0.8-0.8c-0.2,0-0.5,0.1-0.7,0.1l-0.2,0.7l-0.6-0.1v-0.9
			C24.8,270.3,25.3,270.2,25.8,270.2z M25.2,273.3c0,0.5,0.4,0.7,0.6,0.7c0.2,0,0.6-0.1,0.7-0.4v-1.2
			C25.7,272.4,25.2,272.7,25.2,273.3z"/>
		<path class="st11" d="M31.4,270.9c-0.1,0-0.2,0-0.4,0c-0.2,0-0.5,0.1-0.8,0.2v2.7l0.7,0.2l-0.1,0.5h-2.2l-0.1-0.5l0.6-0.2v-2.9
			h-0.4l-0.1-0.5l1.2-0.1l0.4,0.2c0.3-0.1,0.7-0.2,1.2-0.2c0.3,0,0.6,0.1,0.9,0.2v1l-0.6,0.1L31.4,270.9z"/>
		<path class="st11" d="M35.3,270.3l-0.1,0.5h-1.1v2.6c0,0.3,0.2,0.5,0.4,0.5c0.2,0,0.5-0.2,0.8-0.4l0.4,0.5
			c-0.4,0.4-0.7,0.6-1.3,0.6c-0.9,0-1.4-0.5-1.4-1.2v-2.5h-0.5l-0.1-0.5l0.7-0.2l0.4-1l0.7,0.2v1H35.3z"/>
		<path class="st11" d="M39.9,273.5l0.3,0.5c-0.6,0.5-1.1,0.6-1.7,0.6c-1.7,0-2.5-0.9-2.5-2.2c0-1.4,1-2.2,2.3-2.2
			c1.1,0,2,0.6,2,1.5c0,0.2-0.1,0.6-0.2,0.8h-2.8c0,0.9,0.5,1.5,1.3,1.5C39,273.9,39.5,273.8,39.9,273.5z M39.2,271.6
			c0-0.5-0.4-0.8-0.8-0.8c-0.6,0-1,0.4-1,1.1h1.8C39.2,271.8,39.2,271.7,39.2,271.6z"/>
		<path class="st11" d="M43.3,274.5h-2.2l-0.1-0.5l0.6-0.2v-5.3h-0.5l-0.1-0.5l1.2-0.1l0.5,0.1v5.8l0.6,0.2L43.3,274.5z"/>
		<path class="st11" d="M46.3,274.5h-2.1l-0.1-0.5l0.6-0.2v-2.9h-0.4l-0.1-0.5l1.1-0.1l0.5,0.1v3.5l0.6,0.2L46.3,274.5z M45.7,268.8
			c0,0.3-0.3,0.6-0.6,0.6c-0.3,0-0.6-0.3-0.6-0.6c0-0.3,0.3-0.6,0.6-0.6C45.5,268.2,45.7,268.5,45.7,268.8z"/>
		<path class="st11" d="M48.7,271v2.7l0.6,0.2l-0.1,0.5h-2.1l-0.1-0.5l0.6-0.2v-2.9h-0.4l-0.1-0.5l1.2-0.1l0.4,0.2
			c0.3-0.1,0.7-0.2,1.1-0.2c1,0,1.7,0.5,1.7,1.5v2l0.6,0.2l-0.1,0.5h-2.1l-0.1-0.5l0.6-0.2v-2.2c0-0.5-0.4-0.7-0.8-0.7
			C49.3,270.8,49,270.9,48.7,271z"/>
		<path class="st11" d="M54.7,274.5h-2l-0.1-0.5l0.6-0.2v-5.3h-0.5l-0.1-0.5l1.2-0.1l0.5,0.1v2.5c0.3-0.1,0.7-0.2,1-0.2
			c1,0,1.7,0.5,1.7,1.4v2.1l0.6,0.2l-0.1,0.5h-2.1l-0.1-0.5l0.6-0.2v-2.3c0-0.5-0.3-0.6-0.6-0.6c-0.3,0-0.7,0.1-1,0.2v2.7l0.6,0.2
			L54.7,274.5z"/>
		<path class="st11" d="M62.6,272.4c0,1.4-0.8,2.2-2.2,2.2c-1.4,0-2.3-0.9-2.3-2.2c0-1.3,0.9-2.2,2.3-2.2
			C61.7,270.2,62.6,271,62.6,272.4z M59.3,272.4c0,1,0.4,1.7,1.1,1.7c0.7,0,1.1-0.7,1.1-1.7c0-1-0.4-1.6-1.1-1.6
			S59.3,271.4,59.3,272.4z"/>
		<path class="st11" d="M16.4,285.4c-1.4,0-2.2-0.8-2.2-2.2c0-1.3,0.9-2.2,2.3-2.2c0.2,0,0.5,0,0.8,0.1v-1.9h-0.5l-0.1-0.5l1.2-0.1
			l0.5,0.1v5.8l0.6,0.2l-0.1,0.5h-1.2l-0.3-0.2C17.1,285.2,16.7,285.4,16.4,285.4z M16.5,281.6c-0.7,0-1.1,0.6-1.1,1.5
			c0,0.9,0.5,1.6,1.1,1.6c0.3,0,0.6-0.1,0.8-0.3v-2.6C17,281.7,16.7,281.6,16.5,281.6z"/>
		<path class="st11" d="M23.2,284.3l0.3,0.5c-0.6,0.5-1.1,0.6-1.7,0.6c-1.7,0-2.5-0.9-2.5-2.2c0-1.4,1-2.2,2.3-2.2
			c1.1,0,2,0.6,2,1.5c0,0.2-0.1,0.6-0.2,0.8h-2.8c0,0.9,0.5,1.5,1.3,1.5C22.3,284.7,22.7,284.6,23.2,284.3z M22.4,282.4
			c0-0.5-0.4-0.8-0.8-0.8c-0.6,0-1,0.4-1,1.1h1.8C22.4,282.6,22.4,282.5,22.4,282.4z"/>
		<path class="st11" d="M28.7,285.4c-1.4,0-2.2-0.8-2.2-2.2c0-1.3,0.9-2.2,2.3-2.2c0.2,0,0.5,0,0.8,0.1v-1.9H29l-0.1-0.5l1.2-0.1
			l0.5,0.1v5.8l0.6,0.2l-0.1,0.5h-1.2l-0.3-0.2C29.4,285.2,29,285.4,28.7,285.4z M28.8,281.6c-0.7,0-1.1,0.6-1.1,1.5
			c0,0.9,0.5,1.6,1.1,1.6c0.3,0,0.6-0.1,0.8-0.3v-2.6C29.3,281.7,29,281.6,28.8,281.6z"/>
		<path class="st11" d="M35.5,284.3l0.3,0.5c-0.6,0.5-1.1,0.6-1.7,0.6c-1.7,0-2.5-0.9-2.5-2.2c0-1.4,1-2.2,2.3-2.2
			c1.1,0,2,0.6,2,1.5c0,0.2-0.1,0.6-0.2,0.8h-2.8c0,0.9,0.5,1.5,1.3,1.5C34.6,284.7,35.1,284.6,35.5,284.3z M34.8,282.4
			c0-0.5-0.4-0.8-0.8-0.8c-0.6,0-1,0.4-1,1.1h1.8C34.8,282.6,34.8,282.5,34.8,282.4z"/>
		<path class="st11" d="M36.6,285V284l0.6-0.1l0.3,0.9c0.1,0.1,0.5,0.1,0.6,0.1c0.4,0,0.8-0.2,0.8-0.5c0-0.3-0.5-0.5-0.9-0.7
			c-0.6-0.3-1.4-0.7-1.4-1.4c0-0.8,0.7-1.2,1.8-1.2c0.5,0,1,0.1,1.4,0.4v0.9l-0.6,0.1l-0.2-0.7c-0.2-0.1-0.5-0.1-0.7-0.1
			c-0.4,0-0.7,0.2-0.7,0.5c0,0.4,0.7,0.6,1.2,0.8c0.6,0.3,1.1,0.6,1.1,1.3c0,0.8-0.7,1.3-1.8,1.3C37.7,285.4,37.1,285.3,36.6,285z"
			/>
		<path class="st11" d="M43.3,281.1l-0.1,0.5h-1.1v2.6c0,0.3,0.2,0.5,0.4,0.5c0.2,0,0.5-0.2,0.8-0.4l0.4,0.5
			c-0.4,0.4-0.7,0.6-1.3,0.6c-0.9,0-1.4-0.5-1.4-1.2v-2.5h-0.5l-0.1-0.5l0.7-0.2l0.4-1l0.7,0.2v1H43.3z"/>
		<path class="st11" d="M46.2,285.3h-2.1l-0.1-0.5l0.6-0.2v-2.9h-0.4l-0.1-0.5l1.1-0.1l0.5,0.1v3.5l0.6,0.2L46.2,285.3z M45.7,279.6
			c0,0.3-0.3,0.6-0.6,0.6c-0.3,0-0.6-0.3-0.6-0.6c0-0.3,0.3-0.6,0.6-0.6C45.4,279,45.7,279.3,45.7,279.6z"/>
		<path class="st11" d="M49.3,285.3h-2.2l-0.1-0.5l0.6-0.2v-5.3h-0.5l-0.1-0.5l1.2-0.1l0.5,0.1v5.8l0.6,0.2L49.3,285.3z"/>
		<path class="st11" d="M51.9,281c1.2,0,1.9,0.6,1.9,1.7v1.9l0.5,0.2l-0.1,0.5H53l-0.3-0.2c-0.3,0.2-0.6,0.3-1.2,0.3
			c-0.8,0-1.5-0.4-1.5-1.3c0-1.2,1.4-1.5,2.6-1.5v-0.3c0-0.5-0.4-0.8-0.8-0.8c-0.2,0-0.5,0.1-0.7,0.1l-0.2,0.7l-0.6-0.1v-0.9
			C50.9,281.1,51.4,281,51.9,281z M51.3,284.1c0,0.5,0.4,0.7,0.6,0.7c0.2,0,0.6-0.1,0.7-0.4v-1.2C51.8,283.2,51.3,283.5,51.3,284.1z
			"/>
		<path class="st11" d="M56.9,285.4c-1.4,0-2.2-0.8-2.2-2.2c0-1.3,0.9-2.2,2.3-2.2c0.2,0,0.5,0,0.8,0.1v-1.9h-0.5l-0.1-0.5l1.2-0.1
			l0.5,0.1v5.8l0.6,0.2l-0.1,0.5h-1.2l-0.3-0.2C57.6,285.2,57.2,285.4,56.9,285.4z M57,281.6c-0.7,0-1.1,0.6-1.1,1.5
			c0,0.9,0.5,1.6,1.1,1.6c0.3,0,0.6-0.1,0.8-0.3v-2.6C57.5,281.7,57.2,281.6,57,281.6z"/>
		<path class="st11" d="M64.3,283.2c0,1.4-0.8,2.2-2.2,2.2c-1.4,0-2.3-0.9-2.3-2.2c0-1.3,0.9-2.2,2.3-2.2
			C63.4,281,64.3,281.8,64.3,283.2z M61,283.2c0,1,0.4,1.7,1.1,1.7c0.7,0,1.1-0.7,1.1-1.7c0-1-0.4-1.6-1.1-1.6
			C61.4,281.6,61,282.2,61,283.2z"/>
	</g>
	<g>
		<circle class="st1" cx="39.2" cy="229.1" r="29.7"/>
		<g class="st26">
			<polygon class="st10" points="44.9,245.4 33.6,245.4 30.1,219.1 48.2,219.1 			"/>
		</g>
		<g>
			<path class="st19" d="M32.9,238.6c2.7,0.8,4.2,0.8,6.4,0.8c2.1,0,4.3,0,6.3-0.8"/>
		</g>
		<g>
			<path class="st1" d="M35.4,224.3h-0.2c-0.6,0-1.1,0.5-1,1.1c0.8,5.2,1.2,11,1.4,14.7c0,0.5,0.5,0.9,1,0.9h0.2c0.6,0,1-0.5,1-1
				c-0.2-3.8-0.6-9.6-1.5-14.9C36.3,224.7,35.9,224.3,35.4,224.3z"/>
		</g>
		<g>
			<path class="st17" d="M47.6,219.6l-0.2,0.8c-2.2,8.9-2.6,23.7-2.6,23.9l0,0.6h-0.6h-4.9h-4.9h-0.6l0-0.6c0-0.1-0.4-15-2.6-23.9
				l-0.2-0.8h0.9h7.5h7.5H47.6 M48.3,218.1h-1.5h-7.5h0h-7.5h-1.5c-0.6,0-1.1,0.6-0.9,1.2l0.4,1.5c2.2,8.7,2.6,23.4,2.6,23.6l0,1.2
				c0,0.5,0.4,0.9,1,0.9h1.2h4.9h0h4.9h1.2c0.5,0,1-0.4,1-0.9l0-1.2c0-0.1,0.4-14.8,2.6-23.6l0.4-1.5
				C49.4,218.7,48.9,218.1,48.3,218.1L48.3,218.1z"/>
		</g>
	</g>
</g>
<g id="Copo_de_cerveja">
	<g>
		<path class="st19" d="M76.1,122.2l23.4,0c3.9,0,7.1,3.2,7.1,7.1v23.9c0,3.9,3.2,7.1,7.1,7.1h14.2"/>
		<circle class="st20" cx="74.1" cy="122.2" r="2"/>
	</g>
	<g>
		<circle class="st1" cx="39.2" cy="119.9" r="29.7"/>
		<rect x="32" y="97.6" class="st1" width="14" height="8.6"/>
		<g>
			<path class="st27" d="M30.4,106.3c-0.1,2.4,0.1,4.8,0.4,7.1l2,14.7c0.4,3.1,0.4,6.3-0.1,9.4l-0.7,4.4c-0.1,0.6,0.4,1.1,0.9,1.1
				h12.6c0.6,0,1-0.5,0.9-1.1l-0.7-4.2c-0.5-3.2-0.6-6.5-0.2-9.7l2-14.5c0.3-2.4,0.5-4.8,0.4-7.2H30.4z"/>
		</g>
		<g>
			<path class="st17" d="M45.9,98.2l0.5,5.2c0.3,3.3,0.2,6.6-0.2,9.8l-2,14.5c-0.5,3.4-0.4,6.8,0.2,10.2l0.6,3.6H33.6l0.6-3.7
				c0.5-3.3,0.6-6.6,0.1-9.9l-2-14.7c-0.4-3.2-0.5-6.5-0.2-9.7l0.5-5.3H45.9 M46.5,96.7H32c-0.4,0-0.8,0.3-0.8,0.8l-0.5,5.9
				c-0.3,3.3-0.2,6.7,0.2,10l2,14.7c0.4,3.1,0.4,6.3-0.1,9.4L32,142c-0.1,0.6,0.4,1.1,0.9,1.1h12.6c0.6,0,1-0.5,0.9-1.1l-0.7-4.2
				c-0.5-3.2-0.6-6.5-0.2-9.7l2-14.5c0.5-3.4,0.5-6.8,0.3-10.2l-0.5-5.8C47.3,97,46.9,96.7,46.5,96.7L46.5,96.7z"/>
		</g>
		<path class="st17" d="M31.4,105.1l-0.2,1.4c2.7,0.3,5.6,0.5,8.7,0.5c2.4,0,4.7-0.1,6.8-0.3v-1.5c-2.2,0.2-4.4,0.3-6.8,0.3
			C36.9,105.6,34.1,105.4,31.4,105.1z"/>
		<line class="st28" x1="34.9" y1="102.6" x2="35.2" y2="111.4"/>
		<g>
			<g>
				<path class="st1" d="M35.4,115.6c1.1,0,1.1-1.7,0-1.7C34.3,113.9,34.3,115.6,35.4,115.6L35.4,115.6z"/>
			</g>
		</g>
	</g>
	<g>
		<path class="st11" d="M24.2,160.1c0,0.9,0.3,1.7,1.2,1.7c0.4,0,0.9-0.1,1.3-0.4l0.3,0.5c-0.4,0.4-1.1,0.6-1.6,0.6
			c-1.6,0-2.4-0.9-2.4-2.2c0-1.4,1-2.2,2.4-2.2c0.4,0,1,0.1,1.5,0.4v0.9l-0.6,0.1l-0.2-0.7c-0.2-0.1-0.5-0.1-0.7-0.1
			C24.7,158.6,24.2,159.1,24.2,160.1z"/>
		<path class="st11" d="M32,160.2c0,1.4-0.8,2.2-2.2,2.2c-1.4,0-2.3-0.9-2.3-2.2c0-1.3,0.9-2.2,2.3-2.2C31.2,158,32,158.9,32,160.2z
			 M28.7,160.2c0,1,0.4,1.7,1.1,1.7c0.7,0,1.1-0.7,1.1-1.7c0-1-0.4-1.6-1.1-1.6S28.7,159.2,28.7,160.2z"/>
		<path class="st11" d="M34.7,161.8c0.6,0,1.3-0.7,1.3-1.7c0-1-0.4-1.4-0.9-1.4c-0.3,0-0.6,0.1-0.9,0.2v4.9l0.6,0.2l-0.1,0.5h-2.1
			l-0.1-0.5l0.6-0.2v-5.1h-0.5l-0.1-0.5l1.2-0.1l0.4,0.3c0.3-0.1,0.7-0.3,1.1-0.3c1.3,0,2.1,0.7,2.1,2.1c0,1.3-1.1,2.2-2.5,2.2h-0.2
			v-0.5H34.7z"/>
		<path class="st11" d="M42.4,160.2c0,1.4-0.8,2.2-2.2,2.2c-1.4,0-2.3-0.9-2.3-2.2c0-1.3,0.9-2.2,2.3-2.2
			C41.5,158,42.4,158.9,42.4,160.2z M39.1,160.2c0,1,0.4,1.7,1.1,1.7c0.7,0,1.1-0.7,1.1-1.7c0-1-0.4-1.6-1.1-1.6
			S39.1,159.2,39.1,160.2z"/>
		<path class="st11" d="M47.6,162.4c-1.4,0-2.2-0.8-2.2-2.2c0-1.3,0.9-2.2,2.3-2.2c0.2,0,0.5,0,0.8,0.1v-1.9h-0.5l-0.1-0.5l1.2-0.1
			l0.5,0.1v5.8l0.6,0.2l-0.1,0.5h-1.2l-0.3-0.2C48.3,162.3,47.9,162.4,47.6,162.4z M47.7,158.7c-0.7,0-1.1,0.6-1.1,1.5
			c0,0.9,0.5,1.6,1.1,1.6c0.3,0,0.6-0.1,0.8-0.3v-2.6C48.2,158.8,47.9,158.7,47.7,158.7z"/>
		<path class="st11" d="M54.4,161.4l0.3,0.5c-0.6,0.5-1.1,0.6-1.7,0.6c-1.7,0-2.5-0.9-2.5-2.2c0-1.4,1-2.2,2.3-2.2
			c1.1,0,2,0.6,2,1.5c0,0.2-0.1,0.6-0.2,0.8h-2.8c0,0.9,0.5,1.5,1.3,1.5C53.5,161.8,54,161.7,54.4,161.4z M53.7,159.4
			c0-0.5-0.4-0.8-0.8-0.8c-0.6,0-1,0.4-1,1.1h1.8C53.7,159.6,53.7,159.5,53.7,159.4z"/>
		<path class="st11" d="M24.9,170.9c0,0.9,0.3,1.7,1.2,1.7c0.4,0,0.9-0.1,1.3-0.4l0.3,0.5c-0.4,0.4-1.1,0.6-1.6,0.6
			c-1.6,0-2.4-0.9-2.4-2.2c0-1.4,1-2.2,2.4-2.2c0.4,0,1,0.1,1.5,0.4v0.9l-0.6,0.1l-0.2-0.7c-0.2-0.1-0.5-0.1-0.7-0.1
			C25.4,169.4,24.9,169.9,24.9,170.9z"/>
		<path class="st11" d="M32.2,172.2l0.3,0.5c-0.6,0.5-1.1,0.6-1.7,0.6c-1.7,0-2.5-0.9-2.5-2.2c0-1.4,1-2.2,2.3-2.2
			c1.1,0,2,0.6,2,1.5c0,0.2-0.1,0.6-0.2,0.8h-2.8c0,0.9,0.5,1.5,1.3,1.5C31.3,172.6,31.8,172.5,32.2,172.2z M31.5,170.2
			c0-0.5-0.4-0.8-0.8-0.8c-0.6,0-1,0.4-1,1.1h1.8C31.5,170.4,31.5,170.3,31.5,170.2z"/>
		<path class="st11" d="M36.1,169.5c-0.1,0-0.2,0-0.4,0c-0.2,0-0.5,0.1-0.8,0.2v2.7l0.7,0.2l-0.1,0.5h-2.2l-0.1-0.5l0.6-0.2v-2.9
			h-0.4l-0.1-0.5l1.2-0.1l0.4,0.2c0.3-0.1,0.7-0.2,1.2-0.2c0.3,0,0.6,0.1,0.9,0.2v1l-0.6,0.1L36.1,169.5z"/>
		<path class="st11" d="M39.3,173.2l-1.5-3.6l-0.6-0.2l0.1-0.5h2.1l0.1,0.5l-0.5,0.2l0.8,1.7v0.8l1.1-2.6l-0.5-0.2l0.1-0.5H42
			l0.1,0.5l-0.6,0.2l-1.4,3.5L39.3,173.2z"/>
		<path class="st11" d="M46.4,172.2l0.3,0.5c-0.6,0.5-1.1,0.6-1.7,0.6c-1.7,0-2.5-0.9-2.5-2.2c0-1.4,1-2.2,2.3-2.2
			c1.1,0,2,0.6,2,1.5c0,0.2-0.1,0.6-0.2,0.8h-2.8c0,0.9,0.5,1.5,1.3,1.5C45.4,172.6,45.9,172.5,46.4,172.2z M45.6,170.2
			c0-0.5-0.4-0.8-0.8-0.8c-0.6,0-1,0.4-1,1.1h1.8C45.6,170.4,45.6,170.3,45.6,170.2z"/>
		<path class="st11" d="M49.1,168.9v3.5c0,1.2-0.3,2.4-2.1,3l-0.3-0.5c1.2-0.8,1.3-1.6,1.3-2.6v-2.8h-0.5l-0.1-0.5l1.2-0.1
			L49.1,168.9z M49,167.4c0,0.3-0.3,0.6-0.6,0.6c-0.3,0-0.6-0.3-0.6-0.6c0-0.3,0.3-0.6,0.6-0.6C48.8,166.9,49,167.1,49,167.4z"/>
		<path class="st11" d="M51.9,168.8c1.2,0,1.9,0.6,1.9,1.7v1.9l0.5,0.2l-0.1,0.5H53l-0.3-0.2c-0.3,0.2-0.6,0.3-1.2,0.3
			c-0.8,0-1.5-0.4-1.5-1.3c0-1.2,1.4-1.5,2.6-1.5v-0.3c0-0.5-0.4-0.8-0.8-0.8c-0.2,0-0.5,0.1-0.7,0.1l-0.2,0.7l-0.6-0.1v-0.9
			C50.9,168.9,51.4,168.8,51.9,168.8z M51.3,171.9c0,0.5,0.4,0.7,0.6,0.7c0.2,0,0.6-0.1,0.7-0.4V171C51.8,171,51.3,171.4,51.3,171.9
			z"/>
	</g>
</g>
<g id="Taça_de_vinho">
	<g>
		<path class="st19" d="M217.7,226.8l-23.4,0c-3.9,0-7.1-3.2-7.1-7.1v-23.9c0-3.9-3.2-7.1-7.1-7.1h-14.2"/>
		<circle class="st20" cx="219.7" cy="226.8" r="2"/>
	</g>
	<g>
		<circle class="st1" cx="254.8" cy="228.1" r="29.7"/>
		<g>
			<path class="st10" d="M255.2,229.6c-4.4,0-8.1-3.6-8.1-8.1v-0.1l0,0l0.4-3.2l0.9,0.1h14.5l0.3,3.3l0,0
				C263.2,226,259.6,229.6,255.2,229.6z"/>
			<path class="st17" d="M262.2,219.1l0.3,2.5l0,0v0c0,4-3.3,7.3-7.3,7.3s-7.3-3.3-7.3-7.3v0l0,0l0.3-2.2l0-0.3h0.3H262.2
				 M262.9,217.6h-14.5h-1c-0.3,0-0.6,0.3-0.7,0.6l-0.1,1l-0.3,2.2l0,0.1v0.1c0,4.9,4,8.8,8.8,8.8c4.9,0,8.8-4,8.8-8.8v-0.1l0-0.1
				l-0.4-3.2C263.5,217.8,263.2,217.6,262.9,217.6L262.9,217.6z"/>
		</g>
		<g>
			<path class="st1" d="M250.2,221.2L250.2,221.2c-0.6-0.1-1-0.7-0.9-1.3l0.8-4.5c0.1-0.6,0.7-1,1.3-0.9h0c0.6,0.1,1,0.7,0.9,1.3
				l-0.8,4.5C251.4,220.9,250.8,221.3,250.2,221.2z"/>
		</g>
		<g>
			<path class="st17" d="M263.7,207l1.7,14.7l0,0v0c0,2.8-1.1,5.4-3.1,7.4c-1.4,1.4-3.2,2.3-5.1,2.7L256,232v1.2v0.1v13.9
				c0,1.8,1.4,3.2,3.2,3.2h2.3c0.3,0,0.6,0.3,0.6,0.6c0,0.3-0.3,0.6-0.6,0.6h-12.8c-0.3,0-0.6-0.3-0.6-0.6c0-0.3,0.3-0.6,0.6-0.6
				h2.6c1.8,0,3.2-1.4,3.2-3.2v-13.9v-0.1V232l-1.2-0.2c-2.4-0.4-4.4-1.6-6-3.4c-1.6-1.8-2.5-4.2-2.5-6.7l0,0l1.7-14.3l0-0.3h0.3
				H263.7 M264.5,205.5h-17.6h-1.1c-0.3,0-0.6,0.3-0.7,0.6l-0.1,1.1l-1.7,14.3l0,0.1v0c0,2.8,1,5.6,2.8,7.8c1.8,2.1,4.2,3.5,6.9,3.9
				v0.1v13.9c0,1-0.8,1.7-1.7,1.7h-2.6c-1.2,0-2.1,0.9-2.1,2.1v0c0,1.2,0.9,2.1,2.1,2.1h12.8c1.2,0,2.1-0.9,2.1-2.1v0
				c0-1.2-0.9-2.1-2.1-2.1h-2.3c-1,0-1.7-0.8-1.7-1.7v-13.9v-0.1c2.2-0.5,4.3-1.5,5.9-3.1c2.3-2.2,3.5-5.2,3.5-8.4v-0.1l0-0.1
				l-1.8-15.4C265.1,205.7,264.8,205.5,264.5,205.5L264.5,205.5z"/>
		</g>
	</g>
	<g>
		<path class="st11" d="M242.5,266.6l-0.1,0.5h-1.1v2.6c0,0.3,0.2,0.5,0.4,0.5c0.2,0,0.5-0.2,0.8-0.4l0.4,0.5
			c-0.4,0.4-0.7,0.6-1.3,0.6c-0.9,0-1.4-0.5-1.4-1.2v-2.5h-0.5l-0.1-0.5l0.7-0.2l0.4-1l0.7,0.2v1H242.5z"/>
		<path class="st11" d="M244.9,266.5c1.2,0,1.9,0.6,1.9,1.7v1.9l0.5,0.2l-0.1,0.5h-1.1l-0.3-0.2c-0.3,0.2-0.6,0.3-1.2,0.3
			c-0.8,0-1.5-0.4-1.5-1.3c0-1.2,1.4-1.5,2.6-1.5v-0.3c0-0.5-0.4-0.8-0.8-0.8c-0.2,0-0.5,0.1-0.7,0.1l-0.2,0.7l-0.6-0.1v-0.9
			C244,266.6,244.5,266.5,244.9,266.5z M244.3,269.6c0,0.5,0.4,0.7,0.6,0.7c0.2,0,0.6-0.1,0.7-0.4v-1.2
			C244.8,268.7,244.3,269.1,244.3,269.6z"/>
		<path class="st11" d="M249,268.5c0,0.9,0.3,1.7,1.2,1.7c0.4,0,0.9-0.1,1.3-0.4l0.3,0.5c-0.4,0.4-1,0.6-1.5,0.6v0.3
			c0.3,0,0.7,0.2,0.7,0.7c0,0.7-0.8,1-1.3,1l-0.2-0.5c0.5,0,0.7-0.2,0.7-0.4c0-0.2-0.1-0.3-0.3-0.3h-0.3v-0.7c-1.3-0.1-2-1-2-2.2
			c0-1.4,1-2.2,2.4-2.2c0.4,0,1,0.1,1.5,0.4v0.9l-0.6,0.1l-0.2-0.7c-0.2-0.1-0.5-0.1-0.7-0.1C249.5,267.1,249,267.6,249,268.5z"/>
		<path class="st11" d="M254.1,266.5c1.2,0,1.9,0.6,1.9,1.7v1.9l0.5,0.2l-0.1,0.5h-1.1l-0.3-0.2c-0.3,0.2-0.6,0.3-1.2,0.3
			c-0.8,0-1.5-0.4-1.5-1.3c0-1.2,1.4-1.5,2.6-1.5v-0.3c0-0.5-0.4-0.8-0.8-0.8c-0.2,0-0.5,0.1-0.7,0.1l-0.2,0.7l-0.6-0.1v-0.9
			C253.2,266.6,253.7,266.5,254.1,266.5z M253.5,269.6c0,0.5,0.4,0.7,0.6,0.7c0.2,0,0.6-0.1,0.7-0.4v-1.2
			C254,268.7,253.5,269.1,253.5,269.6z"/>
		<path class="st11" d="M261.4,270.9c-1.5,0-2.2-0.8-2.2-2.2c0-1.3,0.9-2.2,2.3-2.2c0.2,0,0.5,0,0.8,0.1v-1.9h-0.5l-0.1-0.5l1.2-0.1
			l0.5,0.1v5.8l0.6,0.2l-0.1,0.5h-1.2l-0.3-0.2C262.1,270.8,261.7,270.9,261.4,270.9z M261.5,267.2c-0.7,0-1.1,0.6-1.1,1.5
			c0,0.9,0.5,1.6,1.1,1.6c0.3,0,0.6-0.1,0.8-0.3v-2.6C262,267.2,261.7,267.2,261.5,267.2z"/>
		<path class="st11" d="M268.2,269.8l0.3,0.5c-0.6,0.5-1.1,0.6-1.7,0.6c-1.7,0-2.5-0.9-2.5-2.2c0-1.4,1-2.2,2.3-2.2
			c1.1,0,2,0.6,2,1.5c0,0.2-0.1,0.6-0.2,0.8h-2.8c0,0.9,0.5,1.5,1.3,1.5C267.3,270.3,267.8,270.1,268.2,269.8z M267.5,267.9
			c0-0.5-0.4-0.8-0.8-0.8c-0.6,0-1,0.4-1,1.1h1.8C267.5,268.1,267.5,268,267.5,267.9z"/>
		<path class="st11" d="M244.2,281.7l-1.5-3.6l-0.6-0.2l0.1-0.5h2.1l0.1,0.5l-0.5,0.2l0.8,1.7v0.8l1.1-2.6l-0.5-0.2l0.1-0.5h1.6
			l0.1,0.5l-0.6,0.2l-1.4,3.5L244.2,281.7z"/>
		<path class="st11" d="M249.7,281.6h-2.1l-0.1-0.5l0.6-0.2V278h-0.4l-0.1-0.5l1.1-0.1l0.5,0.1v3.5l0.6,0.2L249.7,281.6z
			 M249.2,275.9c0,0.3-0.3,0.6-0.6,0.6c-0.3,0-0.6-0.3-0.6-0.6c0-0.3,0.3-0.6,0.6-0.6C249,275.3,249.2,275.6,249.2,275.9z"/>
		<path class="st11" d="M252.2,278.1v2.7l0.6,0.2l-0.1,0.5h-2.1l-0.1-0.5l0.6-0.2V278h-0.4l-0.1-0.5l1.2-0.1l0.4,0.2
			c0.3-0.1,0.7-0.2,1.1-0.2c1,0,1.7,0.5,1.7,1.5v2l0.6,0.2l-0.1,0.5h-2.1l-0.1-0.5l0.6-0.2v-2.2c0-0.5-0.4-0.7-0.8-0.7
			C252.8,278,252.5,278.1,252.2,278.1z"/>
		<path class="st11" d="M258.2,281.6h-2l-0.1-0.5l0.6-0.2v-5.3h-0.5L256,275l1.2-0.1l0.5,0.1v2.5c0.3-0.1,0.7-0.2,1-0.2
			c1,0,1.7,0.5,1.7,1.4v2.1l0.6,0.2l-0.1,0.5h-2.1l-0.1-0.5l0.6-0.2v-2.3c0-0.5-0.3-0.6-0.6-0.6c-0.3,0-0.7,0.1-1,0.2v2.7l0.6,0.2
			L258.2,281.6z"/>
		<path class="st11" d="M266.1,279.5c0,1.4-0.8,2.2-2.2,2.2c-1.4,0-2.2-0.9-2.2-2.2c0-1.3,0.9-2.2,2.2-2.2
			C265.2,277.3,266.1,278.1,266.1,279.5z M262.8,279.5c0,1,0.4,1.7,1.1,1.7c0.7,0,1.1-0.7,1.1-1.7c0-1-0.4-1.6-1.1-1.6
			S262.8,278.5,262.8,279.5z"/>
	</g>
	<g>
		<path class="st8" d="M243.9,293.3v-4.9c-0.1,0-0.3,0.1-0.4,0.1s-0.3,0.1-0.4,0.1L243,288c0.1,0,0.3-0.1,0.4-0.2
			c0.1-0.1,0.3-0.1,0.4-0.2c0.1-0.1,0.3-0.1,0.4-0.2s0.2-0.1,0.2-0.2l0.4,0.1v6H243.9z"/>
		<path class="st8" d="M248.5,293.3c-0.4,0-0.7-0.1-0.9-0.3c-0.3-0.2-0.5-0.4-0.6-0.7s-0.3-0.6-0.3-1c-0.1-0.4-0.1-0.8-0.1-1.2
			c0-0.6,0.1-1.1,0.3-1.6c0.2-0.4,0.4-0.8,0.8-1c0.3-0.2,0.7-0.4,1.1-0.4c0.4,0,0.7,0.1,1,0.2s0.5,0.4,0.6,0.6
			c0.2,0.3,0.3,0.6,0.3,1s0.1,0.7,0.1,1.2c0,0.6-0.1,1.2-0.3,1.6s-0.4,0.8-0.7,1.1C249.3,293.2,248.9,293.3,248.5,293.3z
			 M248.5,292.5c0.4,0,0.7-0.2,0.9-0.5c0.2-0.4,0.3-0.9,0.3-1.7c0-0.4,0-0.8-0.1-1.1c-0.1-0.3-0.2-0.6-0.4-0.8
			c-0.2-0.2-0.4-0.3-0.6-0.3c-0.4,0-0.7,0.2-0.9,0.5c-0.2,0.4-0.3,0.9-0.3,1.5c0,0.4,0,0.8,0.1,1.1c0.1,0.3,0.2,0.6,0.4,0.8
			C248,292.4,248.3,292.5,248.5,292.5z"/>
		<path class="st8" d="M253.6,293.3c-0.4,0-0.7-0.1-0.9-0.3c-0.3-0.2-0.5-0.4-0.6-0.7s-0.3-0.6-0.3-1c-0.1-0.4-0.1-0.8-0.1-1.2
			c0-0.6,0.1-1.1,0.3-1.6c0.2-0.4,0.4-0.8,0.8-1c0.3-0.2,0.7-0.4,1.1-0.4c0.4,0,0.7,0.1,1,0.2s0.5,0.4,0.6,0.6
			c0.2,0.3,0.3,0.6,0.3,1s0.1,0.7,0.1,1.2c0,0.6-0.1,1.2-0.3,1.6s-0.4,0.8-0.7,1.1C254.4,293.2,254.1,293.3,253.6,293.3z
			 M253.7,292.5c0.4,0,0.7-0.2,0.9-0.5c0.2-0.4,0.3-0.9,0.3-1.7c0-0.4,0-0.8-0.1-1.1c-0.1-0.3-0.2-0.6-0.4-0.8
			c-0.2-0.2-0.4-0.3-0.6-0.3c-0.4,0-0.7,0.2-0.9,0.5c-0.2,0.4-0.3,0.9-0.3,1.5c0,0.4,0,0.8,0.1,1.1c0.1,0.3,0.2,0.6,0.4,0.8
			C253.2,292.4,253.4,292.5,253.7,292.5z"/>
		<path class="st8" d="M256.9,293.3v-4.4h0.8l0,0.5c0.1-0.1,0.2-0.2,0.4-0.2c0.2-0.1,0.3-0.2,0.5-0.2s0.4-0.1,0.5-0.1
			c0.3,0,0.5,0,0.7,0.1c0.2,0.1,0.3,0.3,0.4,0.5c0.1,0.3,0.1,0.6,0.1,1v2.8h-0.9v-2.7c0-0.2,0-0.4-0.1-0.6s-0.1-0.3-0.2-0.3
			s-0.3-0.1-0.5-0.1c-0.1,0-0.3,0-0.5,0.1c-0.2,0.1-0.4,0.2-0.5,0.3v3.4H256.9z M260.3,289.9l-0.2-0.6c0.1-0.1,0.2-0.2,0.4-0.3
			c0.2-0.1,0.3-0.2,0.5-0.2c0.2-0.1,0.4-0.1,0.6-0.1c0.3,0,0.5,0,0.7,0.2c0.2,0.1,0.3,0.3,0.4,0.5c0.1,0.3,0.1,0.6,0.1,1v2.8h-0.9
			v-2.7c0-0.2,0-0.4-0.1-0.6c0-0.2-0.1-0.3-0.2-0.3s-0.3-0.1-0.5-0.1c-0.1,0-0.3,0-0.5,0.1C260.7,289.7,260.5,289.8,260.3,289.9z"/>
		<path class="st8" d="M264.3,293.3v-6.5h0.9v6.5H264.3z"/>
	</g>
</g>
<g id="Long_neck_bebida_ice">
	<g>
		<circle class="st1" cx="146.3" cy="271.9" r="29.7"/>
		<g>
			<path class="st1" d="M156.6,300.5c-0.5-1.8-0.6-3.7-0.6-5.5l0.7-30.8c0-1-0.3-2-0.9-2.8l-3.3-4.6c-0.1-0.2-0.2-0.3-0.2-0.5
				l-0.5-17.9h-9.5l-0.5,17.9c0,0.2-0.1,0.4-0.2,0.5l-3.3,4.6c-0.6,0.8-0.9,1.8-0.9,2.8l0.7,30.8c0,1.9-0.1,3.7-0.6,5.5
				c-0.1,0.3-0.1,0.6-0.1,0.9v0.8c0,2,1.6,3.7,3.7,3.7H153c2,0,3.7-1.6,3.7-3.7v-0.8C156.7,301.1,156.6,300.8,156.6,300.5z
				 M150.1,255.1L150.1,255.1L150.1,255.1L150.1,255.1z"/>
			<g>
				<path class="st17" d="M152.4,240.5h-10.7c-0.2,0-0.4-0.2-0.4-0.4v-1.1c0-0.7,0.6-1.3,1.3-1.3h8.7c0.7,0,1.3,0.6,1.3,1.3v1.1
					C152.8,240.4,152.6,240.5,152.4,240.5z"/>
			</g>
			<g>
				<path class="st29" d="M144.8,296.1c0-0.5,0.1-0.9,0.3-1.3l-5.6-0.4l0.1,3l5.9,0.5l0,0C145.1,297.4,144.8,296.8,144.8,296.1z"/>
				<path class="st29" d="M149.7,296.1c0-0.5-0.1-0.9-0.3-1.3l5.6-0.4l-0.1,3l-5.9,0.5l0,0C149.4,297.4,149.7,296.7,149.7,296.1z"/>
				<g class="st30">
					<circle class="st31" cx="147.3" cy="296.1" r="2.5"/>
				</g>
			</g>
			<g class="st30">
				<rect x="143.3" y="244.3" class="st31" width="7.5" height="12.2"/>
			</g>
			<line class="st19" x1="143.3" y1="244.3" x2="150.8" y2="244.3"/>
			<line class="st19" x1="142.7" y1="256.5" x2="151.5" y2="256.5"/>
			<g>
				<path class="st31" d="M153.1,267.5c0-0.5-0.4-1-0.9-1.1c-1.6-0.2-3.3-0.4-5.1-0.4c-1.8,0-3.6,0.1-5.2,0.4
					c-0.5,0.1-0.9,0.5-0.9,1.1v1.9c0,0.7,0.6,1.1,1.2,1.1c1.5-0.2,3.1-0.3,4.8-0.3c1.7,0,3.3,0.1,4.8,0.3c0.6,0.1,1.2-0.4,1.2-1.1
					V267.5z"/>
			</g>
			<g>
				<path class="st17" d="M150.3,239.9l0.4,16.5c0,0.5,0.2,1,0.5,1.4l3.3,4.6c0.4,0.6,0.6,1.2,0.6,1.9l-0.7,30.8
					c0,2.1,0.2,4.1,0.7,5.9c0,0.2,0.1,0.4,0.1,0.6v0.8c0,1.2-1,2.2-2.2,2.2h-11.9c-1.2,0-2.2-1-2.2-2.2v-0.8c0-0.2,0-0.4,0.1-0.6
					c0.5-1.8,0.7-3.8,0.7-5.9l-0.7-30.8c0-0.7,0.2-1.4,0.6-1.9l3.3-4.6c0.3-0.4,0.4-0.9,0.5-1.4l0.4-16.5H150.3 M151.8,238.4h-9.5
					l-0.5,17.9c0,0.2-0.1,0.4-0.2,0.5l-3.3,4.6c-0.6,0.8-0.9,1.8-0.9,2.8l0.7,30.8c0,1.9-0.1,3.7-0.6,5.5c-0.1,0.3-0.1,0.6-0.1,0.9
					v0.8c0,2,1.6,3.7,3.7,3.7H153c2,0,3.7-1.6,3.7-3.7v-0.8c0-0.3,0-0.6-0.1-0.9c-0.5-1.8-0.6-3.7-0.6-5.5l0.7-30.8
					c0-1-0.3-2-0.9-2.8l-3.3-4.6c-0.1-0.2-0.2-0.3-0.2-0.5L151.8,238.4L151.8,238.4z"/>
			</g>
			<path class="st31" d="M150,279.5l-2.7,1.1c-0.3,0.1-0.5,0.1-0.8,0l-2.5-1.1c-0.4-0.2-0.6-0.5-0.6-0.9v-5.5c0-0.6,0.4-1,1-1h5.2
				c0.6,0,1,0.4,1,1v5.5C150.7,279,150.4,279.3,150,279.5z"/>
		</g>
	</g>
	<g>
		<path class="st11" d="M123.2,316.8h-2.2l-0.1-0.5l0.6-0.2v-5.3h-0.5l-0.1-0.5l1.2-0.1l0.5,0.1v5.8l0.6,0.2L123.2,316.8z"/>
		<path class="st11" d="M128.6,314.7c0,1.4-0.8,2.2-2.2,2.2c-1.4,0-2.3-0.9-2.3-2.2c0-1.3,0.9-2.2,2.3-2.2
			C127.7,312.5,128.6,313.3,128.6,314.7z M125.2,314.7c0,1,0.4,1.7,1.1,1.7c0.7,0,1.1-0.7,1.1-1.7c0-1-0.4-1.6-1.1-1.6
			C125.6,313.1,125.2,313.7,125.2,314.7z"/>
		<path class="st11" d="M130.9,313.3v2.7l0.6,0.2l-0.1,0.5h-2.1l-0.1-0.5l0.6-0.2v-2.9h-0.4l-0.1-0.5l1.2-0.1l0.4,0.2
			c0.3-0.1,0.7-0.2,1.1-0.2c1,0,1.7,0.5,1.7,1.5v2l0.6,0.2l-0.1,0.5h-2.1l-0.1-0.5l0.6-0.2v-2.2c0-0.5-0.4-0.7-0.8-0.7
			C131.5,313.1,131.2,313.2,130.9,313.3z"/>
		<path class="st11" d="M138.6,317.5c0,1.1-1,1.5-2.1,1.5c-0.9,0-1.7-0.3-1.7-1.1c0-0.5,0.5-0.9,1-1l0.3,0.4
			c-0.3,0.2-0.4,0.4-0.4,0.6c0,0.3,0.3,0.5,0.9,0.5c0.5,0,1-0.3,1-0.7c0-0.3-0.4-0.6-0.8-0.7l-0.9-0.3c-0.3-0.1-0.7-0.3-0.7-0.8
			l0.4-0.7c-0.4-0.3-0.5-0.7-0.5-1.2c0-0.8,0.7-1.6,1.8-1.6c0.3,0,0.6,0,0.8,0.1l1.2-0.1l-0.1,0.7h-0.5l0.4,0.3
			c0.1,0.2,0.1,0.4,0.1,0.7c0,1-0.8,1.5-2,1.5c-0.2,0-0.4,0-0.6-0.1l0,0.1c0,0.1,0.1,0.2,0.3,0.2l0.8,0.3
			C138,316.4,138.6,316.8,138.6,317.5z M136,314c0,0.7,0.3,1,0.8,1c0.5,0,0.8-0.3,0.8-1c0-0.8-0.4-1-0.8-1
			C136.3,313.1,136,313.4,136,314z"/>
		<path class="st11" d="M143.1,313.3v2.7l0.6,0.2l-0.1,0.5h-2.1l-0.1-0.5l0.6-0.2v-2.9h-0.4l-0.1-0.5l1.2-0.1l0.4,0.2
			c0.3-0.1,0.7-0.2,1.1-0.2c1,0,1.7,0.5,1.7,1.5v2l0.6,0.2l-0.1,0.5h-2.1l-0.1-0.5l0.6-0.2v-2.2c0-0.5-0.4-0.7-0.8-0.7
			C143.7,313.1,143.4,313.2,143.1,313.3z"/>
		<path class="st11" d="M151,315.8l0.3,0.5c-0.6,0.5-1.1,0.6-1.7,0.6c-1.7,0-2.5-0.9-2.5-2.2c0-1.4,1-2.2,2.3-2.2c1.1,0,2,0.6,2,1.5
			c0,0.2-0.1,0.6-0.2,0.8h-2.8c0,0.9,0.5,1.5,1.3,1.5C150.1,316.2,150.5,316.1,151,315.8z M150.2,313.9c0-0.5-0.4-0.8-0.8-0.8
			c-0.6,0-1,0.4-1,1.1h1.8C150.2,314.1,150.2,314,150.2,313.9z"/>
		<path class="st11" d="M153.3,314.5c0,0.9,0.3,1.7,1.2,1.7c0.4,0,0.9-0.1,1.3-0.4l0.3,0.5c-0.4,0.4-1.1,0.6-1.6,0.6
			c-1.6,0-2.4-0.9-2.4-2.2c0-1.4,1-2.2,2.4-2.2c0.4,0,1,0.1,1.5,0.4v0.9l-0.6,0.1l-0.2-0.7c-0.2-0.1-0.5-0.1-0.7-0.1
			C153.8,313.1,153.3,313.6,153.3,314.5z"/>
		<path class="st11" d="M158.8,316.8h-2.1l-0.1-0.5l0.6-0.2v-5.3h-0.4l-0.1-0.5l1.1-0.1l0.5,0.1v5.8l0.6,0.2L158.8,316.8z
			 M159.3,313.1l0.5,0.2l-1.2,1.1v0.4l1.1,1.5l-0.1,0.5h1.8l0.1-0.5l-0.7-0.2l-1-1.4l-0.5-0.1l1.1-1c0.2-0.2,0.5-0.3,0.9-0.4
			l-0.1-0.5h-1.8L159.3,313.1z"/>
		<path class="st11" d="M166.4,316.9c-1.4,0-2.2-0.8-2.2-2.2c0-1.3,0.9-2.2,2.3-2.2c0.2,0,0.5,0,0.8,0.1v-1.9h-0.5l-0.1-0.5l1.2-0.1
			l0.5,0.1v5.8l0.6,0.2l-0.1,0.5h-1.2l-0.3-0.2C167.2,316.8,166.8,316.9,166.4,316.9z M166.5,313.1c-0.7,0-1.1,0.6-1.1,1.5
			c0,0.9,0.5,1.6,1.1,1.6c0.3,0,0.6-0.1,0.8-0.3v-2.6C167.1,313.2,166.7,313.1,166.5,313.1z"/>
		<path class="st11" d="M173.3,315.8l0.3,0.5c-0.6,0.5-1.1,0.6-1.7,0.6c-1.7,0-2.5-0.9-2.5-2.2c0-1.4,1-2.2,2.3-2.2
			c1.1,0,2,0.6,2,1.5c0,0.2-0.1,0.6-0.2,0.8h-2.8c0,0.9,0.5,1.5,1.3,1.5C172.3,316.2,172.8,316.1,173.3,315.8z M172.5,313.9
			c0-0.5-0.4-0.8-0.8-0.8c-0.6,0-1,0.4-1,1.1h1.8C172.5,314.1,172.5,314,172.5,313.9z"/>
		<path class="st11" d="M128.6,323.3c1.4,0,2,0.7,2,2.1c0,1.4-0.8,2.3-2.3,2.3c-0.7,0-1.4-0.2-1.9-0.5v-5.7H126l-0.1-0.5l1.2-0.1
			l0.5,0.1v5.9c0.2,0.1,0.4,0.1,0.7,0.1c0.6,0,1.1-0.7,1.1-1.7c0-1-0.4-1.4-0.9-1.4c-0.2,0-0.4,0-0.6,0.1v-0.6
			C128.1,323.3,128.5,323.3,128.6,323.3z"/>
		<path class="st11" d="M135.3,326.6l0.3,0.5c-0.6,0.5-1.1,0.6-1.7,0.6c-1.7,0-2.5-0.9-2.5-2.2c0-1.4,1-2.2,2.3-2.2
			c1.1,0,2,0.6,2,1.5c0,0.2-0.1,0.6-0.2,0.8h-2.8c0,0.9,0.5,1.5,1.3,1.5C134.4,327,134.8,326.9,135.3,326.6z M134.5,324.7
			c0-0.5-0.4-0.8-0.8-0.8c-0.6,0-1,0.4-1,1.1h1.8C134.5,324.9,134.5,324.8,134.5,324.7z"/>
		<path class="st11" d="M138.7,323.3c1.4,0,2,0.7,2,2.1c0,1.4-0.8,2.3-2.3,2.3c-0.7,0-1.4-0.2-1.9-0.5v-5.7h-0.5L136,321l1.2-0.1
			l0.5,0.1v5.9c0.2,0.1,0.4,0.1,0.7,0.1c0.6,0,1.1-0.7,1.1-1.7c0-1-0.4-1.4-0.9-1.4c-0.2,0-0.4,0-0.6,0.1v-0.6
			C138.2,323.3,138.5,323.3,138.7,323.3z"/>
		<path class="st11" d="M143.7,327.6h-2.1l-0.1-0.5l0.6-0.2v-2.9h-0.4l-0.1-0.5l1.1-0.1l0.5,0.1v3.5l0.6,0.2L143.7,327.6z
			 M143.1,321.9c0,0.3-0.3,0.6-0.6,0.6c-0.3,0-0.6-0.3-0.6-0.6c0-0.3,0.3-0.6,0.6-0.6C142.9,321.3,143.1,321.6,143.1,321.9z"/>
		<path class="st11" d="M146.7,327.7c-1.4,0-2.2-0.8-2.2-2.2c0-1.3,0.9-2.2,2.3-2.2c0.2,0,0.5,0,0.8,0.1v-1.9H147l-0.1-0.5l1.2-0.1
			l0.5,0.1v5.8l0.6,0.2l-0.1,0.5h-1.2l-0.3-0.2C147.4,327.6,147,327.7,146.7,327.7z M146.8,323.9c-0.7,0-1.1,0.6-1.1,1.5
			c0,0.9,0.5,1.6,1.1,1.6c0.3,0,0.6-0.1,0.8-0.3v-2.6C147.3,324,147,323.9,146.8,323.9z"/>
		<path class="st11" d="M151.4,323.3c1.2,0,1.9,0.6,1.9,1.7v1.9l0.5,0.2l-0.1,0.5h-1.1l-0.3-0.2c-0.3,0.2-0.6,0.3-1.2,0.3
			c-0.8,0-1.5-0.4-1.5-1.3c0-1.2,1.4-1.5,2.6-1.5v-0.3c0-0.5-0.4-0.8-0.8-0.8c-0.2,0-0.5,0.1-0.7,0.1l-0.2,0.7l-0.6-0.1v-0.9
			C150.4,323.4,150.9,323.3,151.4,323.3z M150.8,326.4c0,0.5,0.4,0.7,0.6,0.7c0.2,0,0.6-0.1,0.7-0.4v-1.2
			C151.3,325.5,150.8,325.9,150.8,326.4z"/>
		<path class="st11" d="M158.6,327.6h-2.1l-0.1-0.5l0.6-0.2v-2.9h-0.4l-0.1-0.5l1.1-0.1l0.5,0.1v3.5l0.6,0.2L158.6,327.6z
			 M158.1,321.9c0,0.3-0.3,0.6-0.6,0.6c-0.3,0-0.6-0.3-0.6-0.6c0-0.3,0.3-0.6,0.6-0.6C157.8,321.3,158.1,321.6,158.1,321.9z"/>
		<path class="st11" d="M160.7,325.3c0,0.9,0.3,1.7,1.2,1.7c0.4,0,0.9-0.1,1.3-0.4l0.3,0.5c-0.4,0.4-1.1,0.6-1.6,0.6
			c-1.6,0-2.4-0.9-2.4-2.2c0-1.4,1-2.2,2.4-2.2c0.4,0,1,0.1,1.5,0.4v0.9l-0.6,0.1l-0.2-0.7c-0.2-0.1-0.5-0.1-0.7-0.1
			C161.2,323.9,160.7,324.4,160.7,325.3z"/>
		<path class="st11" d="M168,326.6l0.3,0.5c-0.6,0.5-1.1,0.6-1.7,0.6c-1.7,0-2.5-0.9-2.5-2.2c0-1.4,1-2.2,2.3-2.2c1.1,0,2,0.6,2,1.5
			c0,0.2-0.1,0.6-0.2,0.8h-2.8c0,0.9,0.5,1.5,1.3,1.5C167,327,167.5,326.9,168,326.6z M167.2,324.7c0-0.5-0.4-0.8-0.8-0.8
			c-0.6,0-1,0.4-1,1.1h1.8C167.2,324.9,167.2,324.8,167.2,324.7z"/>
	</g>
	<g>
		<circle class="st20" cx="147.1" cy="232.7" r="2"/>
		<line class="st21" x1="147.1" y1="202.5" x2="147.1" y2="230.2"/>
	</g>
</g>
<g id="_x31__dose">
	<g>
		<circle class="st13" cx="147.4" cy="174" r="29.7"/>
	</g>
	<g>
		<path class="st1" d="M145.6,176.2v-15.1h-3.5l-0.4-2.4l6-1.4h2.3v18.9l3.6,0.7l-0.4,2.3h-10.9l-0.4-2.4L145.6,176.2z"/>
		<path class="st1" d="M141.4,190.1c-1.4,0-2.2-0.8-2.2-2.2c0-1.3,0.9-2.2,2.3-2.2c0.2,0,0.5,0,0.8,0.1V184h-0.5l-0.1-0.5l1.2-0.1
			l0.5,0.1v5.8l0.6,0.2l-0.1,0.5h-1.2l-0.3-0.2C142.2,190,141.8,190.1,141.4,190.1z M141.5,186.4c-0.7,0-1.1,0.6-1.1,1.5
			c0,0.9,0.5,1.6,1.1,1.6c0.3,0,0.6-0.1,0.8-0.3v-2.6C142,186.5,141.7,186.4,141.5,186.4z"/>
		<path class="st1" d="M148.8,187.9c0,1.4-0.8,2.2-2.2,2.2c-1.4,0-2.3-0.9-2.3-2.2c0-1.3,0.9-2.2,2.3-2.2
			C148,185.7,148.8,186.6,148.8,187.9z M145.5,187.9c0,1,0.4,1.7,1.1,1.7c0.7,0,1.1-0.7,1.1-1.7c0-1-0.4-1.6-1.1-1.6
			C145.9,186.3,145.5,186.9,145.5,187.9z"/>
		<path class="st1" d="M149.6,189.8v-1.1l0.6-0.1l0.3,0.9c0.1,0.1,0.5,0.1,0.6,0.1c0.4,0,0.8-0.2,0.8-0.5c0-0.3-0.5-0.5-0.9-0.7
			c-0.6-0.3-1.4-0.7-1.4-1.4c0-0.8,0.7-1.2,1.8-1.2c0.5,0,1,0.1,1.4,0.4v0.9l-0.6,0.1l-0.2-0.7c-0.2-0.1-0.5-0.1-0.7-0.1
			c-0.4,0-0.7,0.2-0.7,0.5c0,0.4,0.7,0.6,1.2,0.8c0.6,0.3,1.1,0.6,1.1,1.3c0,0.8-0.7,1.3-1.8,1.3C150.7,190.1,150.1,190,149.6,189.8
			z"/>
		<path class="st1" d="M157.5,189.1l0.3,0.5c-0.6,0.5-1.1,0.6-1.7,0.6c-1.7,0-2.5-0.9-2.5-2.2c0-1.4,1-2.2,2.3-2.2
			c1.1,0,2,0.6,2,1.5c0,0.2-0.1,0.6-0.2,0.8h-2.8c0,0.9,0.5,1.5,1.3,1.5C156.6,189.5,157.1,189.4,157.5,189.1z M156.8,187.1
			c0-0.5-0.4-0.8-0.8-0.8c-0.6,0-1,0.4-1,1.1h1.8C156.8,187.3,156.8,187.2,156.8,187.1z"/>
	</g>
</g>
<g>
</g>
<g>
</g>
<g>
</g>
<g>
</g>
<g>
</g>
<g>
</g>
</svg>
