<?xml version="1.0" encoding="utf-8"?>
<!-- Generator: Adobe Illustrator 25.2.0, SVG Export Plug-In . SVG Version: 6.00 Build 0)  -->
<svg version="1.1" xmlns="http://www.w3.org/2000/svg" xmlns:xlink="http://www.w3.org/1999/xlink" x="0px" y="0px"
	 viewBox="0 0 553.2 253.4" style="enable-background:new 0 0 553.2 253.4;" xml:space="preserve">
<style type="text/css">
	.st0{display:none;fill:#EFEFEF;}
	.st1{fill:none;stroke:#BCBCBC;stroke-width:0.5;stroke-miterlimit:10;}
	.st2{fill:#FF278F;}
	.st3{fill:none;}
	.st4{fill:#FFFFFF;}
	.st5{fill:#4C4C4C;}
	.st6{display:none;}
	.st7{display:inline;}
	.st8{fill:#FF36CE;}
	.st9{fill:#B9B9DB;}
	.st10{fill:#EA2F89;}
	.st11{fill:#6960E3;}
	.st12{fill:#E89EE1;}
	.st13{fill:#AE4EF2;}
	.st14{fill:#E239CA;}
</style>
<g id="Camada_1">
	<rect id="Fundo" x="-379.5" y="-1020.1" class="st0" width="292.8" height="310.3"/>
</g>
<g id="Guia">
	<g>
		<line class="st1" x1="13.8" y1="212.1" x2="528.2" y2="212.1"/>
	</g>
	<g>
		<path class="st2" d="M549.8,33.4H9.4c-3,0-5.5-2.4-5.5-5.5v-8.1c0-7.5,6.1-13.6,13.6-13.6h532.3c1.9,0,3.4,1.5,3.4,3.4V30
			C553.2,31.9,551.7,33.4,549.8,33.4z"/>
	</g>
	<g id="Título_3_">
		<rect x="25.4" y="14.8" class="st3" width="488.4" height="31"/>
		<path class="st4" d="M35,15.4v2.4L34.2,18l-0.6-1.7h-1.3v6.3l1,0.4l-0.1,0.9h-3.4L29.6,23l1-0.4v-6.3h-1.3L28.7,18l-0.9-0.1v-2.4
			H35z"/>
		<path class="st4" d="M43.1,22.6l1.1,0.4L44,23.8h-3.5L40.4,23l0.9-0.4l-0.5-1.4H38l-0.6,1.4l1.1,0.4l-0.1,0.9h-3L35.3,23l1-0.4
			l2.8-7.2l1.3-0.2L43.1,22.6z M39.7,16.8l-1.3,3.4h2.1l-0.8-2V16.8z"/>
		<path class="st4" d="M47.5,23l-0.1,0.9h-2.8L44.4,23l1-0.4l2.2-2.7l-2.2-3.2l-1-0.4l0.1-0.9h3.6l0.1,0.9l-0.9,0.4l1.1,1.5v0.5
			l1.7-2.1l-0.8-0.4l0.1-0.9h2.8l0.1,0.9l-1.1,0.4l-2.2,2.7l2.2,3.2l1,0.4l-0.1,0.9h-3.6L48.6,23l0.9-0.4l-1.1-1.5v-0.6l-1.7,2.1
			L47.5,23z"/>
		<path class="st4" d="M60.6,22.6l1.1,0.4l-0.1,0.9h-3.5L57.9,23l0.9-0.4l-0.5-1.4h-2.8l-0.6,1.4l1.1,0.4L56,23.8h-3L52.8,23l1-0.4
			l2.8-7.2l1.3-0.2L60.6,22.6z M57.2,16.8l-1.3,3.4H58l-0.8-2V16.8z"/>
		<path class="st4" d="M65.2,23l1-0.4v-5.9l-1-0.4l0.1-0.9h3.5c3,0,4.4,1.8,4.4,4.1s-1.4,4.3-4.4,4.3h-3.5L65.2,23z M67.9,23h1
			c1.8,0,2.6-1.6,2.6-3.4c0-1.8-0.8-3.3-2.6-3.3h-1V23z"/>
		<path class="st4" d="M76.7,19h1.2l0.4-1l0.9,0.1v2.7l-0.9,0.1l-0.4-1h-1.2v3H79l0.6-1.8l0.9,0.1v2.5h-6.4L74,23l1-0.4v-5.9l-1-0.4
			l0.1-0.9h6.2v2.1l-0.9,0.1L79,16.3h-2.3V19z"/>
		<path class="st4" d="M91.6,15.4v2.4L90.8,18l-0.6-1.7h-1.3v6.3l1,0.4l-0.1,0.9h-3.4L86.2,23l1-0.4v-6.3h-1.3L85.3,18l-0.9-0.1
			v-2.4H91.6z"/>
		<path class="st4" d="M96.2,23l-0.1,0.9h-3.4L92.5,23l1-0.4v-5.9l-1-0.4l0.1-0.9h4.1c1.8,0,2.8,0.9,2.8,2.4c0,1.3-1.3,2.2-2.5,2.2
			l0.8,0.4l1.2,2.1l1,0.4l-0.1,0.9h-2.6l0.1-0.7L95.7,20v-0.8h0.8c0.9,0,1.5-0.8,1.5-1.5c0-0.9-0.5-1.6-1.6-1.6h-1.2v6.3L96.2,23z"
			/>
		<path class="st4" d="M108.4,22.6l1.1,0.4l-0.1,0.9h-3.5l-0.1-0.9l0.9-0.4l-0.5-1.4h-2.8l-0.6,1.4l1.1,0.4l-0.1,0.9h-3l-0.1-0.9
			l1-0.4l2.8-7.2l1.3-0.2L108.4,22.6z M105,16.8l-1.3,3.4h2.1l-0.8-2V16.8z"/>
		<path class="st4" d="M110.8,16.7l-1-0.4l0.1-0.9h2.5l3.4,5l0.4,1.2v-5l-1-0.4l0.1-0.9h2.7l0.1,0.9l-1,0.4v7.1l-1,0.2l-4.4-6.6v5.2
			l1,0.4l-0.1,0.9h-2.7l-0.1-0.9l1-0.4V16.7z"/>
		<path class="st4" d="M122,15.2c0.9,0,1.8,0.3,2.6,0.8v1.9l-0.9,0.1l-0.6-1.6c-0.3-0.1-0.8-0.2-1.1-0.2c-0.9,0-1.4,0.4-1.4,1.1
			c0,0.9,1.4,1.3,1.9,1.6c1.3,0.5,2.5,1.3,2.5,2.8c0,1.4-1,2.4-3.2,2.4c-1,0-2-0.3-2.7-0.8v-1.9l0.9-0.1l0.6,1.6
			c0.3,0.1,0.8,0.3,1.1,0.3c1,0,1.8-0.4,1.8-1c0-0.9-1.4-1.4-2.3-1.8c-0.9-0.5-2.1-1-2.1-2.7C119.1,16,120.5,15.2,122,15.2z"/>
		<path class="st4" d="M133.1,15.4v2.4l-0.9,0.1l-0.6-1.7h-1.3v6.3l1,0.4l-0.1,0.9h-3.4l-0.1-0.9l1-0.4v-6.3h-1.3l-0.6,1.7l-0.9-0.1
			v-2.4H133.1z"/>
		<path class="st4" d="M142.6,19.6c0,2.5-1.3,4.4-4.1,4.4c-2.9,0-4.1-2.2-4.1-4.4c0-2.2,1.5-4.4,4.1-4.4
			C141.1,15.2,142.6,17.1,142.6,19.6z M136.1,19.5c0,2.3,0.8,3.5,2.3,3.5c1.6,0,2.4-1.2,2.4-3.5c0-2.2-0.8-3.3-2.4-3.3
			S136.1,17.3,136.1,19.5z"/>
		<path class="st4" d="M147.4,23l-0.1,0.9h-3.4l-0.1-0.9l1-0.4v-5.9l-1-0.4l0.1-0.9h4.1c1.8,0,2.8,0.9,2.8,2.4
			c0,1.3-1.3,2.2-2.5,2.2l0.8,0.4l1.2,2.1l1,0.4l-0.1,0.9h-2.6l0.1-0.7l-1.8-3.1v-0.8h0.8c0.9,0,1.5-0.8,1.5-1.5
			c0-0.9-0.5-1.6-1.6-1.6h-1.2v6.3L147.4,23z"/>
		<path class="st4" d="M152.9,16.7l-1-0.4l0.1-0.9h2.5l3.4,5l0.4,1.2v-5l-1-0.4l0.1-0.9h2.7l0.1,0.9l-1,0.4v7.1l-1,0.2l-4.4-6.6v5.2
			l1,0.4l-0.1,0.9H152l-0.1-0.9l1-0.4V16.7z"/>
		<path class="st4" d="M169.5,19.6c0,2.5-1.3,4.4-4.1,4.4c-2.9,0-4.1-2.2-4.1-4.4c0-2.2,1.5-4.4,4.1-4.4
			C168.1,15.2,169.5,17.1,169.5,19.6z M163.1,19.5c0,2.3,0.8,3.5,2.3,3.5c1.6,0,2.4-1.2,2.4-3.5c0-2.2-0.8-3.3-2.4-3.3
			S163.1,17.3,163.1,19.5z"/>
		<path class="st4" d="M173.8,15.2c0.9,0,1.8,0.3,2.6,0.8v1.9l-0.9,0.1l-0.6-1.6c-0.3-0.1-0.8-0.2-1.1-0.2c-0.9,0-1.4,0.4-1.4,1.1
			c0,0.9,1.4,1.3,1.9,1.6c1.3,0.5,2.5,1.3,2.5,2.8c0,1.4-1,2.4-3.2,2.4c-1,0-2-0.3-2.7-0.8v-1.9l0.9-0.1l0.6,1.6
			c0.3,0.1,0.8,0.3,1.1,0.3c1,0,1.8-0.4,1.8-1c0-0.9-1.4-1.4-2.3-1.8c-0.9-0.5-2.1-1-2.1-2.7C170.8,16,172.2,15.2,173.8,15.2z"/>
		<path class="st4" d="M188.2,22.6l1.1,0.4l-0.1,0.9h-3.5l-0.1-0.9l0.9-0.4l-0.5-1.4h-2.8l-0.6,1.4l1.1,0.4l-0.1,0.9h-3l-0.1-0.9
			l1-0.4l2.8-7.2l1.3-0.2L188.2,22.6z M184.8,16.8l-1.3,3.4h2.1l-0.8-2V16.8z"/>
		<path class="st4" d="M196.8,15.4v2.4l-0.9,0.1l-0.6-1.7H194v6.3l1,0.4l-0.1,0.9h-3.4l-0.1-0.9l1-0.4v-6.3h-1.3l-0.6,1.7l-0.9-0.1
			v-2.4H196.8z"/>
		<path class="st4" d="M201.4,23l-0.1,0.9h-3.4l-0.1-0.9l1-0.4v-5.9l-1-0.4l0.1-0.9h4.1c1.8,0,2.8,0.9,2.8,2.4
			c0,1.3-1.3,2.2-2.5,2.2l0.8,0.4l1.2,2.1l1,0.4l-0.1,0.9h-2.6l0.1-0.7l-1.8-3.1v-0.8h0.8c0.9,0,1.5-0.8,1.5-1.5
			c0-0.9-0.5-1.6-1.6-1.6h-1.2v6.3L201.4,23z"/>
		<path class="st4" d="M210,23l-0.1,0.9h-3.4l-0.1-0.9l1-0.4v-5.9l-1-0.4l0.1-0.9h3.4l0.1,0.9l-1,0.4v5.9L210,23z"/>
		<path class="st4" d="M211.1,23l1-0.4v-5.9l-1-0.4l0.1-0.9h4.3c1.2,0,2.2,0.9,2.2,2c0,0.7-0.4,1.3-0.9,1.7c1,0.3,1.7,1.2,1.7,2.3
			c0,1.3-1.1,2.4-2.8,2.4h-4.5L211.1,23z M215.4,23c0.8,0,1.3-0.8,1.3-1.7c0-0.9-0.7-1.6-1.6-1.6h-0.9v-0.9h0.5
			c0.7,0,1.2-0.5,1.2-1.2s-0.3-1.3-1.3-1.3h-0.9V23H215.4z"/>
		<path class="st4" d="M220.1,20.2v-3.6l-1-0.4l0.1-0.9h3.4l0.1,0.9l-1,0.4v3.6c0,1.9,0.6,2.7,1.9,2.7c1.3,0,2-0.9,2-2.7v-3.7
			l-1-0.4l0.1-0.9h2.7l0.1,0.9l-1,0.4v3.6c0,3.1-1.6,3.8-3.1,3.8C221.8,24,220.1,23.3,220.1,20.2z"/>
		<path class="st4" d="M232.2,23l-0.1,0.9h-3.4l-0.1-0.9l1-0.4v-5.9l-1-0.4l0.1-0.9h3.4l0.1,0.9l-1,0.4v5.9L232.2,23z M229.6,14.4
			l1.5-1.9l1,0.9l-2.1,1.3L229.6,14.4z"/>
		<path class="st4" d="M233.3,23l1-0.4v-5.9l-1-0.4l0.1-0.9h3.5c3,0,4.4,1.8,4.4,4.1s-1.4,4.3-4.4,4.3h-3.5L233.3,23z M236,23h1
			c1.8,0,2.6-1.6,2.6-3.4c0-1.8-0.8-3.3-2.6-3.3h-1V23z"/>
		<path class="st4" d="M250.7,19.6c0,2.5-1.3,4.4-4.1,4.4s-4.1-2.2-4.1-4.4c0-2.2,1.5-4.4,4.1-4.4S250.7,17.1,250.7,19.6z
			 M244.2,19.5c0,2.3,0.8,3.5,2.3,3.5c1.6,0,2.4-1.2,2.4-3.5c0-2.2-0.8-3.3-2.4-3.3S244.2,17.3,244.2,19.5z"/>
		<path class="st4" d="M255,15.2c0.9,0,1.8,0.3,2.6,0.8v1.9l-0.9,0.1l-0.6-1.6c-0.3-0.1-0.8-0.2-1.1-0.2c-0.9,0-1.4,0.4-1.4,1.1
			c0,0.9,1.4,1.3,1.9,1.6c1.3,0.5,2.5,1.3,2.5,2.8c0,1.4-1,2.4-3.2,2.4c-1,0-2-0.3-2.7-0.8v-1.9l0.9-0.1l0.6,1.6
			c0.3,0.1,0.8,0.3,1.1,0.3c1,0,1.8-0.4,1.8-1c0-0.9-1.4-1.4-2.3-1.8c-0.9-0.5-2.1-1-2.1-2.7C252,16,253.4,15.2,255,15.2z"/>
		<path class="st4" d="M269.4,22.6l1.1,0.4l-0.1,0.9h-3.5l-0.1-0.9l0.9-0.4l-0.5-1.4h-2.8l-0.6,1.4l1.1,0.4l-0.1,0.9h-3l-0.1-0.9
			l1-0.4l2.8-7.2l1.3-0.2L269.4,22.6z M266,16.8l-1.3,3.4h2.1l-0.8-2V16.8z"/>
		<path class="st4" d="M279.2,19.6c0,2.5-1.3,4.4-4.1,4.4s-4.1-2.2-4.1-4.4c0-2.2,1.5-4.4,4.1-4.4S279.2,17.1,279.2,19.6z
			 M272.7,19.5c0,2.3,0.8,3.5,2.3,3.5c1.6,0,2.4-1.2,2.4-3.5c0-2.2-0.8-3.3-2.4-3.3S272.7,17.3,272.7,19.5z"/>
		<path class="st4" d="M284.3,20.2v-3.6l-1-0.4l0.1-0.9h3.4l0.1,0.9l-1,0.4v3.6c0,1.9,0.6,2.7,1.9,2.7c1.3,0,2-0.9,2-2.7v-3.7
			l-1-0.4l0.1-0.9h2.7l0.1,0.9l-1,0.4v3.6c0,3.1-1.6,3.8-3.1,3.8C285.9,24,284.3,23.3,284.3,20.2z"/>
		<path class="st4" d="M295.4,15.2c0.9,0,1.8,0.3,2.6,0.8v1.9l-0.9,0.1l-0.6-1.6c-0.3-0.1-0.8-0.2-1.1-0.2c-0.9,0-1.4,0.4-1.4,1.1
			c0,0.9,1.4,1.3,1.9,1.6c1.3,0.5,2.5,1.3,2.5,2.8c0,1.4-1,2.4-3.2,2.4c-1,0-2-0.3-2.7-0.8v-1.9l0.9-0.1l0.6,1.6
			c0.3,0.1,0.8,0.3,1.1,0.3c1,0,1.8-0.4,1.8-1c0-0.9-1.4-1.4-2.3-1.8c-0.9-0.5-2.1-1-2.1-2.7C292.5,16,293.9,15.2,295.4,15.2z"/>
		<path class="st4" d="M307.9,19.6c0,2.5-1.3,4.4-4.1,4.4s-4.1-2.2-4.1-4.4c0-2.2,1.5-4.4,4.1-4.4S307.9,17.1,307.9,19.6z
			 M301.4,19.5c0,2.3,0.8,3.5,2.3,3.5c1.6,0,2.4-1.2,2.4-3.5c0-2.2-0.8-3.3-2.4-3.3S301.4,17.3,301.4,19.5z"/>
		<path class="st4" d="M312,23l1-0.4v-5.9l-1-0.4l0.1-0.9h3.5c3,0,4.4,1.8,4.4,4.1s-1.4,4.3-4.4,4.3h-3.5L312,23z M314.7,23h1
			c1.8,0,2.6-1.6,2.6-3.4c0-1.8-0.8-3.3-2.6-3.3h-1V23z"/>
		<path class="st4" d="M323.5,19h1.2l0.4-1l0.9,0.1v2.7l-0.9,0.1l-0.4-1h-1.2v3h2.4l0.6-1.8l0.9,0.1v2.5H321l-0.1-0.9l1-0.4v-5.9
			l-1-0.4l0.1-0.9h6.2v2.1l-0.9,0.1l-0.5-1.4h-2.3V19z"/>
		<path class="st4" d="M338.7,22.6l1.1,0.4l-0.1,0.9h-3.5L336,23l0.9-0.4l-0.5-1.4h-2.8l-0.6,1.4l1.1,0.4l-0.1,0.9h-3l-0.1-0.9
			l1-0.4l2.8-7.2l1.3-0.2L338.7,22.6z M335.3,16.8l-1.3,3.4h2.1l-0.8-2V16.8z M334.7,14.4l1.5-1.9l1,0.9l-2.1,1.3L334.7,14.4z"/>
		<path class="st4" d="M344,16.3l-1,0.4V23h2.3l0.7-1.8l0.9,0.1v2.5h-6.4l-0.1-0.9l1-0.4v-5.9l-1-0.4l0.1-0.9h3.4L344,16.3z"/>
		<path class="st4" d="M353.1,22.8l0.6-1.7l0.9,0.1v1.9c-0.7,0.5-1.9,0.8-2.8,0.8c-3.1,0-4.4-2.2-4.4-4.4c0-2.2,1.5-4.4,4.4-4.4
			c1.1,0,1.9,0.3,2.8,0.8v1.9l-0.9,0.1l-0.6-1.6c-0.4-0.1-1-0.2-1.4-0.2c-1.7,0-2.6,1.1-2.6,3.3c0,1.6,0.5,3.5,2.6,3.5
			C352,23,352.7,22.9,353.1,22.8z"/>
		<path class="st4" d="M360.8,22.8l0.6-1.7l0.9,0.1v1.9c-0.7,0.5-1.9,0.8-2.8,0.8c-3.1,0-4.4-2.2-4.4-4.4c0-2.2,1.5-4.4,4.4-4.4
			c1.1,0,1.9,0.3,2.8,0.8v1.9l-0.9,0.1l-0.6-1.6c-0.4-0.1-1-0.2-1.4-0.2c-1.7,0-2.6,1.1-2.6,3.3c0,1.6,0.5,3.5,2.6,3.5
			C359.8,23,360.4,22.9,360.8,22.8z"/>
		<path class="st4" d="M371.5,19.6c0,2.5-1.3,4.4-4.1,4.4s-4.1-2.2-4.1-4.4c0-2.2,1.5-4.4,4.1-4.4S371.5,17.1,371.5,19.6z M365,19.5
			c0,2.3,0.8,3.5,2.3,3.5c1.6,0,2.4-1.2,2.4-3.5c0-2.2-0.8-3.3-2.4-3.3S365,17.3,365,19.5z"/>
		<path class="st4" d="M376.3,16.3l-1,0.4V23h2.3l0.7-1.8l0.9,0.1v2.5h-6.4l-0.1-0.9l1-0.4v-5.9l-1-0.4l0.1-0.9h3.4L376.3,16.3z"/>
		<path class="st4" d="M385.3,19h1.2l0.4-1l0.9,0.1v2.7l-0.9,0.1l-0.4-1h-1.2v3h2.4l0.6-1.8l0.9,0.1v2.5h-6.4l-0.1-0.9l1-0.4v-5.9
			l-1-0.4l0.1-0.9h6.2v2.1l-0.9,0.1l-0.5-1.4h-2.3V19z"/>
		<path class="st4" d="M390.9,16.7l-1-0.4l0.1-0.9h2.5l3.4,5l0.4,1.2v-5l-1-0.4l0.1-0.9h2.7l0.1,0.9l-1,0.4v7.1l-1,0.2l-4.4-6.6v5.2
			l1,0.4l-0.1,0.9H390l-0.1-0.9l1-0.4V16.7z"/>
		<path class="st4" d="M406.2,15.4v2.4l-0.9,0.1l-0.6-1.7h-1.3v6.3l1,0.4l-0.1,0.9h-3.4l-0.1-0.9l1-0.4v-6.3h-1.3l-0.6,1.7l-0.9-0.1
			v-2.4H406.2z"/>
		<path class="st4" d="M410.8,23l-0.1,0.9h-3.4l-0.1-0.9l1-0.4v-5.9l-1-0.4l0.1-0.9h4.1c1.8,0,2.8,0.9,2.8,2.4
			c0,1.3-1.3,2.2-2.5,2.2l0.8,0.4l1.2,2.1l1,0.4l-0.1,0.9h-2.6l0.1-0.7l-1.8-3.1v-0.8h0.8c0.9,0,1.5-0.8,1.5-1.5
			c0-0.9-0.5-1.6-1.6-1.6h-1.2v6.3L410.8,23z"/>
		<path class="st4" d="M418.1,19h1.2l0.4-1l0.9,0.1v2.7l-0.9,0.1l-0.4-1h-1.2v3h2.4l0.6-1.8l0.9,0.1v2.5h-6.4l-0.1-0.9l1-0.4v-5.9
			l-1-0.4l0.1-0.9h6.2v2.1l-0.9,0.1l-0.5-1.4h-2.3V19z"/>
		<path class="st4" d="M433.3,22.6l1.1,0.4l-0.1,0.9h-3.5l-0.1-0.9l0.9-0.4l-0.5-1.4h-2.8l-0.6,1.4l1.1,0.4l-0.1,0.9h-3l-0.1-0.9
			l1-0.4l2.8-7.2l1.3-0.2L433.3,22.6z M429.9,16.8l-1.3,3.4h2.1l-0.8-2V16.8z"/>
		<path class="st4" d="M438,15.2c0.9,0,1.8,0.3,2.6,0.8v1.9l-0.9,0.1l-0.6-1.6c-0.3-0.1-0.8-0.2-1.1-0.2c-0.9,0-1.4,0.4-1.4,1.1
			c0,0.9,1.4,1.3,1.9,1.6c1.3,0.5,2.5,1.3,2.5,2.8c0,1.4-1,2.4-3.2,2.4c-1,0-2-0.3-2.7-0.8v-1.9l0.9-0.1l0.6,1.6
			c0.3,0.1,0.8,0.3,1.1,0.3c1,0,1.8-0.4,1.8-1c0-0.9-1.4-1.4-2.3-1.8c-0.9-0.5-2.1-1-2.1-2.7C435.1,16,436.5,15.2,438,15.2z"/>
		<path class="st4" d="M449.4,24l-2.1-5.7l-0.5,4.3l1,0.4l-0.1,0.9h-2.7l-0.1-0.9l1-0.4l0.7-5.9l-1-0.4l0.1-0.9h2.4l1.9,5.2v1.2
			l2.4-6.4h2.5l0.1,0.9l-1,0.4l0.6,5.9l1,0.4l-0.1,0.9H452l-0.1-0.9l1-0.4l-0.5-4.6l-2.1,5.8L449.4,24z"/>
		<path class="st4" d="M457.4,20.2v-3.6l-1-0.4l0.1-0.9h3.4l0.1,0.9l-1,0.4v3.6c0,1.9,0.6,2.7,1.9,2.7c1.3,0,2-0.9,2-2.7v-3.7
			l-1-0.4l0.1-0.9h2.7l0.1,0.9l-1,0.4v3.6c0,3.1-1.6,3.8-3.1,3.8C459.1,24,457.4,23.3,457.4,20.2z"/>
		<path class="st4" d="M469.1,16.3l-1,0.4V23h2.3l0.7-1.8l0.9,0.1v2.5h-6.4l-0.1-0.9l1-0.4v-5.9l-1-0.4l0.1-0.9h3.4L469.1,16.3z"/>
		<path class="st4" d="M480.4,22.6l1,0.4l-0.1,0.9h-3.4l-0.1-0.9l1-0.4v-2.6h-3.5v2.6l1,0.4l-0.1,0.9h-3.4l-0.1-0.9l1-0.4v-5.9
			l-1-0.4l0.1-0.9h3.4l0.1,0.9l-1,0.4V19h3.5v-2.4l-1-0.4l0.1-0.9h3.4l0.1,0.9l-1,0.4V22.6z"/>
		<path class="st4" d="M485,19h1.2l0.4-1l0.9,0.1v2.7l-0.9,0.1l-0.4-1H485v3h2.4l0.6-1.8l0.9,0.1v2.5h-6.4l-0.1-0.9l1-0.4v-5.9
			l-1-0.4l0.1-0.9h6.2v2.1l-0.9,0.1l-0.5-1.4H485V19z"/>
		<path class="st4" d="M493.3,23l-0.1,0.9h-3.4l-0.1-0.9l1-0.4v-5.9l-1-0.4l0.1-0.9h4.1c1.8,0,2.8,0.9,2.8,2.4
			c0,1.3-1.3,2.2-2.5,2.2l0.8,0.4l1.2,2.1l1,0.4l-0.1,0.9h-2.6l0.1-0.7l-1.8-3.1v-0.8h0.8c0.9,0,1.5-0.8,1.5-1.5
			c0-0.9-0.5-1.6-1.6-1.6h-1.2v6.3L493.3,23z"/>
		<path class="st4" d="M500.6,19h1.2l0.4-1l0.9,0.1v2.7l-0.9,0.1l-0.4-1h-1.2v3h2.4l0.6-1.8l0.9,0.1v2.5h-6.4L498,23l1-0.4v-5.9
			l-1-0.4l0.1-0.9h6.2v2.1l-0.9,0.1l-0.5-1.4h-2.3V19z"/>
		<path class="st4" d="M508.4,15.2c0.9,0,1.8,0.3,2.6,0.8v1.9l-0.9,0.1l-0.6-1.6c-0.3-0.1-0.8-0.2-1.1-0.2c-0.9,0-1.4,0.4-1.4,1.1
			c0,0.9,1.4,1.3,1.9,1.6c1.3,0.5,2.5,1.3,2.5,2.8c0,1.4-1,2.4-3.2,2.4c-1,0-2-0.3-2.7-0.8v-1.9l0.9-0.1l0.6,1.6
			c0.3,0.1,0.8,0.3,1.1,0.3c1,0,1.8-0.4,1.8-1c0-0.9-1.4-1.4-2.3-1.8c-0.9-0.5-2.1-1-2.1-2.7C505.5,16,506.9,15.2,508.4,15.2z"/>
	</g>
	<g>
		<path class="st5" d="M265.9,225.8l0.7,0.3l-0.1,0.6h-2.5L264,226l0.7-0.3l-0.4-1.1h-2l-0.4,1.1l0.8,0.3l-0.1,0.6h-2.1l-0.1-0.6
			l0.7-0.3l2-5.4l0.9-0.2L265.9,225.8z M263.5,221.4l-1,2.6h1.5l-0.5-1.5V221.4z M263.1,219.6l1.1-1.4l0.7,0.6l-1.5,1L263.1,219.6z"
			/>
		<path class="st5" d="M270.6,220.4v0.8l-0.6,0.1l-0.2-0.7c-0.1,0-0.3-0.1-0.4-0.1c-0.4,0-0.7,0.2-0.7,1v0.9h1l-0.1,0.5h-0.9v2.9
			l0.8,0.2l-0.1,0.5h-2.2l-0.1-0.5l0.5-0.2V223H267l-0.1-0.5l0.7-0.2v-0.6c0-1,0.7-1.8,1.8-1.8C269.8,220,270.2,220.1,270.6,220.4z"
			/>
		<path class="st5" d="M273.3,223.1c-0.1,0-0.2,0-0.3,0c-0.2,0-0.5,0.1-0.8,0.2v2.7l0.7,0.2l-0.1,0.5h-2.1l-0.1-0.5l0.5-0.2V223
			h-0.4l-0.1-0.5l1.1-0.1l0.3,0.2c0.3-0.1,0.7-0.2,1.1-0.2c0.3,0,0.6,0.1,0.9,0.2v1l-0.6,0.1L273.3,223.1z"/>
		<path class="st5" d="M276.5,226.7h-2l-0.1-0.5l0.5-0.2V223h-0.4l-0.1-0.5l1-0.1l0.5,0.1v3.5l0.5,0.2L276.5,226.7z M276,221
			c0,0.3-0.2,0.6-0.6,0.6c-0.3,0-0.6-0.3-0.6-0.6c0-0.3,0.3-0.6,0.6-0.6C275.8,220.4,276,220.7,276,221z"/>
		<path class="st5" d="M278.5,224.4c0,0.9,0.3,1.7,1.2,1.7c0.4,0,0.8-0.1,1.2-0.4l0.3,0.5c-0.4,0.4-1,0.6-1.6,0.6
			c-1.5,0-2.3-0.9-2.3-2.2c0-1.4,1-2.2,2.3-2.2c0.4,0,0.9,0.1,1.4,0.4v0.9l-0.6,0.1l-0.2-0.7c-0.2-0.1-0.5-0.1-0.6-0.1
			C278.9,222.9,278.5,223.5,278.5,224.4z"/>
		<path class="st5" d="M283.3,222.4c1.1,0,1.8,0.6,1.8,1.7v1.9l0.5,0.2l-0.1,0.5h-1.1l-0.3-0.2c-0.3,0.2-0.6,0.3-1.1,0.3
			c-0.8,0-1.4-0.4-1.4-1.3c0-1.2,1.4-1.5,2.4-1.5v-0.3c0-0.5-0.3-0.8-0.7-0.8c-0.2,0-0.5,0.1-0.6,0.1l-0.2,0.7l-0.6-0.1v-0.9
			C282.4,222.5,282.9,222.4,283.3,222.4z M282.8,225.5c0,0.5,0.3,0.7,0.6,0.7c0.2,0,0.5-0.1,0.7-0.4v-1.2
			C283.2,224.6,282.8,224.9,282.8,225.5z"/>
	</g>
	<g>
		<g>
			<path class="st5" d="M188.4,225.9l-0.1,0.6h-2.7l-0.1-0.6l0.7-0.3v-4.4l-0.7-0.3l0.1-0.6h2.8c1.3,0,1.9,0.8,1.9,2
				c0,1.5-1,1.9-2.2,1.9h-0.3v-0.7h0.4c0.7,0,1.1-0.6,1.1-1.2c0-0.7-0.3-1.4-1-1.4h-0.7v4.7L188.4,225.9z"/>
			<path class="st5" d="M192.6,222.2c1.1,0,1.8,0.6,1.8,1.7v1.9l0.5,0.2l-0.1,0.5h-1.1l-0.3-0.2c-0.3,0.2-0.6,0.3-1.1,0.3
				c-0.8,0-1.4-0.4-1.4-1.3c0-1.2,1.4-1.5,2.4-1.5v-0.3c0-0.5-0.3-0.8-0.7-0.8c-0.2,0-0.5,0.1-0.6,0.1l-0.2,0.7l-0.6-0.1v-0.9
				C191.7,222.3,192.2,222.2,192.6,222.2z M192,225.3c0,0.5,0.3,0.7,0.6,0.7c0.2,0,0.5-0.1,0.7-0.4v-1.2
				C192.5,224.4,192,224.8,192,225.3z"/>
			<path class="st5" d="M196.4,224.2c0,0.9,0.3,1.7,1.2,1.7c0.4,0,0.8-0.1,1.2-0.4l0.3,0.5c-0.4,0.4-1,0.6-1.6,0.6
				c-1.5,0-2.3-0.9-2.3-2.2c0-1.4,1-2.2,2.3-2.2c0.4,0,0.9,0.1,1.4,0.4v0.9l-0.6,0.1l-0.2-0.7c-0.2-0.1-0.5-0.1-0.6-0.1
				C196.9,222.8,196.4,223.3,196.4,224.2z"/>
			<path class="st5" d="M201.7,226.5h-2l-0.1-0.6l0.5-0.2v-2.9h-0.4l-0.1-0.5l1-0.1l0.5,0.1v3.5l0.5,0.2L201.7,226.5z M200.2,221.2
				l0.6-1.6l0.8,0.4l-1.1,1.4L200.2,221.2z"/>
			<path class="st5" d="M206,220.2v0.8l-0.6,0.1l-0.2-0.7c-0.1,0-0.3-0.1-0.4-0.1c-0.4,0-0.7,0.2-0.7,1v0.9h1l-0.1,0.5h-0.9v2.9
				l0.8,0.2l-0.1,0.5h-2.2l-0.1-0.5l0.5-0.2v-2.9h-0.6l-0.1-0.5l0.7-0.2v-0.6c0-1,0.7-1.8,1.8-1.8
				C205.2,219.8,205.6,219.9,206,220.2z"/>
			<path class="st5" d="M208.1,226.5h-2L206,226l0.5-0.2v-2.9h-0.4l-0.1-0.5l1-0.1l0.5,0.1v3.5l0.5,0.2L208.1,226.5z M207.6,220.8
				c0,0.3-0.2,0.6-0.6,0.6c-0.3,0-0.6-0.3-0.6-0.6c0-0.3,0.3-0.6,0.6-0.6C207.3,220.2,207.6,220.5,207.6,220.8z"/>
			<path class="st5" d="M210,224.2c0,0.9,0.3,1.7,1.2,1.7c0.4,0,0.8-0.1,1.2-0.4l0.3,0.5c-0.4,0.4-1,0.6-1.6,0.6
				c-1.5,0-2.3-0.9-2.3-2.2c0-1.4,1-2.2,2.3-2.2c0.4,0,0.9,0.1,1.4,0.4v0.9l-0.6,0.1l-0.2-0.7c-0.2-0.1-0.5-0.1-0.6-0.1
				C210.5,222.8,210,223.3,210,224.2z"/>
			<path class="st5" d="M217.4,224.4c0,1.4-0.7,2.2-2.1,2.2c-1.4,0-2.1-0.9-2.1-2.2c0-1.3,0.8-2.2,2.1-2.2
				C216.6,222.2,217.4,223,217.4,224.4z M214.3,224.4c0,1,0.4,1.7,1,1.7c0.6,0,1-0.7,1-1.7c0-1-0.4-1.6-1-1.6
				S214.3,223.4,214.3,224.4z"/>
			<path class="st5" d="M196.3,234.1c0,1.9-0.9,3.3-2.9,3.3s-2.9-1.6-2.9-3.3c0-1.7,1-3.3,2.9-3.3S196.3,232.3,196.3,234.1z
				 M191.7,234.1c0,1.7,0.6,2.6,1.7,2.6c1.1,0,1.7-0.9,1.7-2.6c0-1.7-0.6-2.5-1.7-2.5S191.7,232.4,191.7,234.1z"/>
			<path class="st5" d="M200.8,236.3l0.3,0.5c-0.5,0.5-1.1,0.6-1.6,0.6c-1.6,0-2.3-0.9-2.3-2.2c0-1.4,1-2.2,2.2-2.2
				c1,0,1.9,0.6,1.9,1.5c0,0.2-0.1,0.6-0.2,0.8h-2.7c0,0.9,0.5,1.5,1.2,1.5C199.9,236.7,200.3,236.6,200.8,236.3z M200.1,234.4
				c0-0.5-0.3-0.8-0.8-0.8c-0.6,0-0.9,0.4-1,1.1h1.7C200.1,234.6,200.1,234.5,200.1,234.4z"/>
			<path class="st5" d="M201.8,237V236l0.6-0.1l0.3,0.9c0.1,0.1,0.4,0.1,0.5,0.1c0.4,0,0.8-0.2,0.8-0.5c0-0.3-0.5-0.5-0.8-0.7
				c-0.6-0.3-1.3-0.7-1.3-1.4c0-0.8,0.7-1.2,1.7-1.2c0.5,0,0.9,0.1,1.3,0.4v0.9l-0.6,0.1l-0.2-0.7c-0.2-0.1-0.4-0.1-0.6-0.1
				c-0.3,0-0.6,0.2-0.6,0.5c0,0.4,0.7,0.6,1.1,0.8c0.6,0.3,1.1,0.6,1.1,1.3c0,0.8-0.7,1.3-1.7,1.3
				C202.9,237.4,202.3,237.3,201.8,237z"/>
			<path class="st5" d="M208.1,233.1l-0.1,0.5h-1v2.6c0,0.3,0.2,0.5,0.4,0.5c0.2,0,0.5-0.2,0.7-0.4l0.4,0.5
				c-0.3,0.4-0.7,0.6-1.2,0.6c-0.9,0-1.3-0.5-1.3-1.2v-2.5h-0.5l-0.1-0.5l0.6-0.2l0.4-1l0.6,0.2v1H208.1z"/>
			<path class="st5" d="M212.5,236.3l0.3,0.5c-0.5,0.5-1.1,0.6-1.6,0.6c-1.6,0-2.3-0.9-2.3-2.2c0-1.4,1-2.2,2.2-2.2
				c1,0,1.9,0.6,1.9,1.5c0,0.2-0.1,0.6-0.2,0.8H210c0,0.9,0.5,1.5,1.2,1.5C211.6,236.7,212,236.6,212.5,236.3z M211.8,234.4
				c0-0.5-0.3-0.8-0.8-0.8c-0.6,0-0.9,0.4-1,1.1h1.7C211.7,234.6,211.8,234.5,211.8,234.4z"/>
		</g>
	</g>
	<g>
		<path class="st5" d="M328,225.9l-0.1,0.6h-2.7l-0.1-0.6l0.7-0.3v-4.4l-0.7-0.3l0.1-0.6h2.8c1.3,0,1.9,0.8,1.9,2
			c0,1.5-1,1.9-2.2,1.9h-0.3v-0.7h0.4c0.7,0,1.1-0.6,1.1-1.2c0-0.7-0.3-1.4-1-1.4h-0.7v4.7L328,225.9z"/>
		<path class="st5" d="M333.3,222.9c-0.1,0-0.2,0-0.3,0c-0.2,0-0.5,0.1-0.8,0.2v2.7l0.7,0.2l-0.1,0.5h-2.1l-0.1-0.5l0.5-0.2v-2.9
			h-0.4l-0.1-0.5l1.1-0.1l0.3,0.2c0.3-0.1,0.7-0.2,1.1-0.2c0.3,0,0.6,0.1,0.9,0.2v1l-0.6,0.1L333.3,222.9z"/>
		<path class="st5" d="M338.7,224.4c0,1.4-0.7,2.2-2.1,2.2c-1.4,0-2.1-0.9-2.1-2.2c0-1.3,0.8-2.2,2.1-2.2
			C337.9,222.2,338.7,223,338.7,224.4z M335.5,224.4c0,1,0.4,1.7,1,1.7c0.6,0,1-0.7,1-1.7c0-1-0.4-1.6-1-1.6
			S335.5,223.4,335.5,224.4z"/>
		<path class="st5" d="M344,226l-0.1,0.5h-1.9l-0.1-0.5l0.5-0.2v-2.2c0-0.5-0.3-0.7-0.7-0.7c-0.2,0-0.5,0.1-0.7,0.2v2.7l0.5,0.2
			l-0.1,0.5h-1.9l-0.1-0.5l0.5-0.2v-2.9h-0.4l-0.1-0.5l1.1-0.1l0.3,0.2c0.3-0.1,0.7-0.2,1.1-0.2c0.5,0,0.9,0.1,1.1,0.3
			c0.3-0.2,0.8-0.3,1.2-0.3c1.1,0,1.7,0.5,1.7,1.5v2l0.5,0.2l-0.1,0.5h-1.9l-0.1-0.5l0.5-0.2v-2.1c0-0.5-0.4-0.8-0.8-0.8
			c-0.3,0-0.6,0.1-0.8,0.2c0.1,0.2,0.1,0.4,0.1,0.7v2L344,226z"/>
		<path class="st5" d="M350.7,225.5l0.3,0.5c-0.5,0.5-1.1,0.6-1.6,0.6c-1.6,0-2.3-0.9-2.3-2.2c0-1.4,1-2.2,2.2-2.2
			c1,0,1.9,0.6,1.9,1.5c0,0.2-0.1,0.6-0.2,0.8h-2.7c0,0.9,0.5,1.5,1.2,1.5C349.9,225.9,350.3,225.8,350.7,225.5z M350,223.6
			c0-0.5-0.3-0.8-0.8-0.8c-0.6,0-0.9,0.4-1,1.1h1.7C350,223.8,350,223.7,350,223.6z"/>
		<path class="st5" d="M353.8,226.6c-1.4,0-2.1-0.8-2.1-2.2c0-1.3,0.9-2.2,2.2-2.2c0.2,0,0.5,0,0.7,0.1v-1.9h-0.5l-0.1-0.5l1.1-0.1
			l0.5,0.1v5.8l0.6,0.2l-0.1,0.5h-1.2l-0.3-0.2C354.5,226.5,354.1,226.6,353.8,226.6z M353.9,222.8c-0.7,0-1,0.6-1,1.5
			c0,0.9,0.4,1.6,1,1.6c0.3,0,0.5-0.1,0.7-0.3V223C354.4,222.9,354.1,222.8,353.9,222.8z"/>
		<path class="st5" d="M358.6,226.5h-2l-0.1-0.5l0.5-0.2v-2.9h-0.4l-0.1-0.5l1-0.1l0.5,0.1v3.5l0.5,0.2L358.6,226.5z M358.1,220.8
			c0,0.3-0.2,0.6-0.6,0.6c-0.3,0-0.6-0.3-0.6-0.6c0-0.3,0.3-0.6,0.6-0.6C357.9,220.2,358.1,220.5,358.1,220.8z"/>
		<path class="st5" d="M363.7,224.4c0,1.4-0.7,2.2-2.1,2.2c-1.4,0-2.1-0.9-2.1-2.2c0-1.3,0.8-2.2,2.1-2.2
			C362.8,222.2,363.7,223,363.7,224.4z M360.5,224.4c0,1,0.4,1.7,1,1.7c0.6,0,1-0.7,1-1.7c0-1-0.4-1.6-1-1.6
			S360.5,223.4,360.5,224.4z"/>
		<path class="st5" d="M332.9,236.8l-0.1,0.5h-1.9l-0.1-0.5l0.5-0.2v-2.2c0-0.5-0.3-0.7-0.7-0.7c-0.2,0-0.5,0.1-0.7,0.2v2.7l0.5,0.2
			l-0.1,0.5h-1.9l-0.1-0.5l0.5-0.2v-2.9h-0.4l-0.1-0.5l1.1-0.1l0.3,0.2c0.3-0.1,0.7-0.2,1.1-0.2c0.5,0,0.9,0.1,1.1,0.3
			c0.3-0.2,0.8-0.3,1.2-0.3c1.1,0,1.7,0.5,1.7,1.5v2l0.5,0.2l-0.1,0.5h-1.9l-0.1-0.5l0.5-0.2v-2.1c0-0.5-0.4-0.8-0.8-0.8
			c-0.3,0-0.6,0.1-0.8,0.2c0.1,0.2,0.1,0.4,0.1,0.7v2L332.9,236.8z"/>
		<path class="st5" d="M338.6,233.6l-0.1-0.5l1.1-0.1l0.4,0.1v3.4l0.5,0.2l-0.1,0.5h-1.2l-0.3-0.2c-0.3,0.2-0.7,0.3-1.1,0.3
			c-1,0-1.5-0.7-1.5-1.6v-2.1H336l-0.1-0.5l1-0.1l0.5,0.1v2.7c0,0.7,0.4,0.9,0.8,0.9c0.2,0,0.6-0.1,0.7-0.3v-2.8H338.6z"/>
		<path class="st5" d="M342.6,233.8v2.7l0.5,0.2l-0.1,0.5h-2l-0.1-0.5l0.5-0.2v-2.9h-0.4l-0.1-0.5l1.1-0.1l0.3,0.2
			c0.3-0.1,0.7-0.2,1.1-0.2c1,0,1.6,0.5,1.6,1.5v2l0.5,0.2l-0.1,0.5h-1.9l-0.1-0.5l0.5-0.2v-2.2c0-0.5-0.4-0.7-0.8-0.7
			C343.1,233.6,342.8,233.7,342.6,233.8z"/>
		<path class="st5" d="M348.4,237.4c-1.4,0-2.1-0.8-2.1-2.2c0-1.3,0.9-2.2,2.1-2.2c0.2,0,0.5,0,0.7,0.1v-1.9h-0.5l-0.1-0.5l1.1-0.1
			l0.5,0.1v5.8l0.6,0.2l-0.1,0.5h-1.2l-0.3-0.2C349.1,237.3,348.7,237.4,348.4,237.4z M348.5,233.6c-0.7,0-1,0.6-1,1.5
			c0,0.9,0.4,1.6,1,1.6c0.3,0,0.5-0.1,0.7-0.3v-2.6C349,233.7,348.7,233.6,348.5,233.6z"/>
		<path class="st5" d="M353.2,237.3h-2l-0.1-0.5l0.5-0.2v-2.9h-0.4l-0.1-0.5l1-0.1l0.5,0.1v3.5l0.5,0.2L353.2,237.3z M352.7,231.6
			c0,0.3-0.2,0.6-0.6,0.6c-0.3,0-0.6-0.3-0.6-0.6c0-0.3,0.3-0.6,0.6-0.6C352.5,231,352.7,231.3,352.7,231.6z"/>
		<path class="st5" d="M355.7,233c1.1,0,1.8,0.6,1.8,1.7v1.9l0.5,0.2l-0.1,0.5h-1.1l-0.3-0.2c-0.3,0.2-0.6,0.3-1.1,0.3
			c-0.8,0-1.4-0.4-1.4-1.3c0-1.2,1.4-1.5,2.4-1.5v-0.3c0-0.5-0.3-0.8-0.7-0.8c-0.2,0-0.5,0.1-0.6,0.1l-0.2,0.7l-0.6-0.1v-0.9
			C354.7,233.1,355.2,233,355.7,233z M355.1,236.1c0,0.5,0.3,0.7,0.6,0.7c0.2,0,0.5-0.1,0.7-0.4v-1.2
			C355.6,235.2,355.1,235.6,355.1,236.1z"/>
		<path class="st5" d="M360.5,237.3h-2l-0.1-0.5l0.6-0.2v-5.3h-0.4l-0.1-0.5l1.1-0.1l0.5,0.1v5.8l0.6,0.2L360.5,237.3z"/>
	</g>
	<g>
		<path class="st5" d="M404,222.9h0.9l0.3-0.7l0.6,0.1v2l-0.6,0.1l-0.3-0.7H404v2.2h1.7l0.5-1.3l0.6,0.1v1.9h-4.5l-0.1-0.6l0.7-0.3
			v-4.4l-0.7-0.3l0.1-0.6h4.4v1.6l-0.6,0.1l-0.3-1.1H404V222.9z"/>
		<path class="st5" d="M409.9,222.8l-0.1-0.5l1.1-0.1l0.4,0.1v3.4l0.5,0.2l-0.1,0.5h-1.2l-0.3-0.2c-0.3,0.2-0.7,0.3-1.1,0.3
			c-1,0-1.5-0.7-1.5-1.6v-2.1h-0.3l-0.1-0.5l1-0.1l0.5,0.1v2.7c0,0.7,0.4,0.9,0.8,0.9c0.2,0,0.6-0.1,0.7-0.3v-2.8H409.9z"/>
		<path class="st5" d="M415,222.9c-0.1,0-0.2,0-0.3,0c-0.2,0-0.5,0.1-0.8,0.2v2.7l0.7,0.2l-0.1,0.5h-2.1l-0.1-0.5l0.5-0.2v-2.9h-0.4
			l-0.1-0.5l1.1-0.1l0.3,0.2c0.3-0.1,0.7-0.2,1.1-0.2c0.3,0,0.6,0.1,0.9,0.2v1l-0.6,0.1L415,222.9z"/>
		<path class="st5" d="M420.5,224.4c0,1.4-0.7,2.2-2.1,2.2c-1.4,0-2.1-0.9-2.1-2.2c0-1.3,0.8-2.2,2.1-2.2
			C419.6,222.2,420.5,223,420.5,224.4z M417.3,224.4c0,1,0.4,1.7,1,1.7c0.6,0,1-0.7,1-1.7c0-1-0.4-1.6-1-1.6
			S417.3,223.4,417.3,224.4z"/>
		<path class="st5" d="M423,226c0.6,0,1.2-0.7,1.2-1.7c0-1-0.4-1.4-0.8-1.4c-0.3,0-0.6,0.1-0.9,0.2v4.9l0.5,0.2l-0.1,0.5H421
			l-0.1-0.5l0.5-0.2v-5.1h-0.5l-0.1-0.5l1.1-0.1l0.4,0.3c0.3-0.1,0.7-0.3,1.1-0.3c1.2,0,1.9,0.7,1.9,2.1c0,1.3-1,2.2-2.4,2.2h-0.2
			V226H423z"/>
		<path class="st5" d="M427.7,222.2c1.1,0,1.8,0.6,1.8,1.7v1.9l0.5,0.2l-0.1,0.5h-1.1l-0.3-0.2c-0.3,0.2-0.6,0.3-1.1,0.3
			c-0.8,0-1.4-0.4-1.4-1.3c0-1.2,1.4-1.5,2.4-1.5v-0.3c0-0.5-0.3-0.8-0.7-0.8c-0.2,0-0.5,0.1-0.6,0.1l-0.2,0.7l-0.6-0.1v-0.9
			C426.7,222.3,427.3,222.2,427.7,222.2z M427.1,225.3c0,0.5,0.3,0.7,0.6,0.7c0.2,0,0.5-0.1,0.7-0.4v-1.2
			C427.6,224.4,427.1,224.8,427.1,225.3z"/>
	</g>
	<g>
		<path class="st5" d="M476.2,225.6l0.7,0.3l-0.1,0.6h-2.5l-0.1-0.6l0.7-0.3l-0.4-1.1h-2l-0.4,1.1l0.8,0.3l-0.1,0.6h-2.1l-0.1-0.6
			l0.7-0.3l2-5.4l0.9-0.2L476.2,225.6z M473.8,221.2l-1,2.6h1.5l-0.5-1.5V221.2z"/>
		<path class="st5" d="M481.9,226l-0.1,0.5h-1.9l-0.1-0.5l0.5-0.2v-2.2c0-0.5-0.3-0.7-0.7-0.7c-0.2,0-0.5,0.1-0.7,0.2v2.7l0.5,0.2
			l-0.1,0.5h-1.9l-0.1-0.5l0.5-0.2v-2.9h-0.4l-0.1-0.5l1.1-0.1l0.3,0.2c0.3-0.1,0.7-0.2,1.1-0.2c0.5,0,0.9,0.1,1.1,0.3
			c0.3-0.2,0.8-0.3,1.2-0.3c1.1,0,1.7,0.5,1.7,1.5v2l0.5,0.2l-0.1,0.5h-1.9l-0.1-0.5l0.5-0.2v-2.1c0-0.5-0.4-0.8-0.8-0.8
			c-0.3,0-0.6,0.1-0.8,0.2c0.1,0.2,0.1,0.4,0.1,0.7v2L481.9,226z"/>
		<path class="st5" d="M488.7,225.5l0.3,0.5c-0.5,0.5-1.1,0.6-1.6,0.6c-1.6,0-2.3-0.9-2.3-2.2c0-1.4,1-2.2,2.2-2.2
			c1,0,1.9,0.6,1.9,1.5c0,0.2-0.1,0.6-0.2,0.8h-2.7c0,0.9,0.5,1.5,1.2,1.5C487.8,225.9,488.3,225.8,488.7,225.5z M488,223.6
			c0-0.5-0.3-0.8-0.8-0.8c-0.6,0-0.9,0.4-1,1.1h1.7C488,223.8,488,223.7,488,223.6z M486.9,221.2l0.6-1.6l0.8,0.4l-1.1,1.4
			L486.9,221.2z"/>
		<path class="st5" d="M492.4,222.9c-0.1,0-0.2,0-0.3,0c-0.2,0-0.5,0.1-0.8,0.2v2.7l0.7,0.2l-0.1,0.5h-2.1l-0.1-0.5l0.5-0.2v-2.9
			h-0.4l-0.1-0.5l1.1-0.1l0.3,0.2c0.3-0.1,0.7-0.2,1.1-0.2c0.3,0,0.6,0.1,0.9,0.2v1l-0.6,0.1L492.4,222.9z"/>
		<path class="st5" d="M495.6,226.5h-2l-0.1-0.5l0.5-0.2v-2.9h-0.4l-0.1-0.5l1-0.1l0.5,0.1v3.5l0.5,0.2L495.6,226.5z M495.1,220.8
			c0,0.3-0.2,0.6-0.6,0.6c-0.3,0-0.6-0.3-0.6-0.6c0-0.3,0.3-0.6,0.6-0.6C494.9,220.2,495.1,220.5,495.1,220.8z"/>
		<path class="st5" d="M497.6,224.2c0,0.9,0.3,1.7,1.2,1.7c0.4,0,0.8-0.1,1.2-0.4l0.3,0.5c-0.4,0.4-1,0.6-1.6,0.6
			c-1.5,0-2.3-0.9-2.3-2.2c0-1.4,1-2.2,2.3-2.2c0.4,0,0.9,0.1,1.4,0.4v0.9l-0.6,0.1l-0.2-0.7c-0.2-0.1-0.5-0.1-0.6-0.1
			C498,222.8,497.6,223.3,497.6,224.2z"/>
		<path class="st5" d="M502.4,222.2c1.1,0,1.8,0.6,1.8,1.7v1.9l0.5,0.2l-0.1,0.5h-1.1l-0.3-0.2c-0.3,0.2-0.6,0.3-1.1,0.3
			c-0.8,0-1.4-0.4-1.4-1.3c0-1.2,1.4-1.5,2.4-1.5v-0.3c0-0.5-0.3-0.8-0.7-0.8c-0.2,0-0.5,0.1-0.6,0.1l-0.2,0.7l-0.6-0.1v-0.9
			C501.5,222.3,502,222.2,502.4,222.2z M501.9,225.3c0,0.5,0.3,0.7,0.6,0.7c0.2,0,0.5-0.1,0.7-0.4v-1.2
			C502.3,224.4,501.9,224.8,501.9,225.3z"/>
		<path class="st5" d="M505.1,226.2v-1.1l0.6-0.1l0.3,0.9c0.1,0.1,0.4,0.1,0.5,0.1c0.4,0,0.8-0.2,0.8-0.5c0-0.3-0.5-0.5-0.8-0.7
			c-0.6-0.3-1.3-0.7-1.3-1.4c0-0.8,0.7-1.2,1.7-1.2c0.5,0,0.9,0.1,1.3,0.4v0.9l-0.6,0.1l-0.2-0.7c-0.2-0.1-0.4-0.1-0.6-0.1
			c-0.3,0-0.6,0.2-0.6,0.5c0,0.4,0.7,0.6,1.1,0.8c0.6,0.3,1.1,0.6,1.1,1.3c0,0.8-0.7,1.3-1.7,1.3
			C506.2,226.6,505.6,226.5,505.1,226.2z"/>
	</g>
	<g>
		<g>
			<path class="st5" d="M117,220c0.7,0,1.3,0.2,1.8,0.6v1.4l-0.6,0.1l-0.4-1.2c-0.2-0.1-0.6-0.1-0.8-0.1c-0.6,0-1,0.3-1,0.8
				c0,0.7,1,1,1.3,1.2c0.9,0.4,1.7,1,1.7,2.1c0,1-0.7,1.8-2.2,1.8c-0.7,0-1.4-0.2-1.9-0.6v-1.5l0.6-0.1l0.4,1.2
				c0.2,0.1,0.6,0.2,0.8,0.2c0.7,0,1.2-0.3,1.2-0.8c0-0.7-1-1.1-1.6-1.4c-0.7-0.3-1.5-0.7-1.5-2C114.9,220.6,115.9,220,117,220z"/>
			<path class="st5" d="M122.3,222.8l-0.1-0.5l1.1-0.1l0.4,0.1v3.4l0.5,0.2l-0.1,0.5H123l-0.3-0.2c-0.3,0.2-0.7,0.3-1.1,0.3
				c-1,0-1.5-0.7-1.5-1.6v-2.1h-0.3l-0.1-0.5l1-0.1l0.5,0.1v2.7c0,0.7,0.4,0.9,0.8,0.9c0.2,0,0.6-0.1,0.7-0.3v-2.8H122.3z"/>
			<path class="st5" d="M126.8,226.6c-1.4,0-2.1-0.8-2.1-2.2c0-1.3,0.9-2.2,2.2-2.2c0.2,0,0.5,0,0.7,0.1v-1.9h-0.5l-0.1-0.5l1.1-0.1
				l0.5,0.1v5.8l0.6,0.2l-0.1,0.5H128l-0.3-0.2C127.5,226.5,127.2,226.6,126.8,226.6z M126.9,222.8c-0.7,0-1,0.6-1,1.5
				c0,0.9,0.4,1.6,1,1.6c0.3,0,0.5-0.1,0.7-0.3V223C127.4,222.9,127.1,222.8,126.9,222.8z"/>
			<path class="st5" d="M133.3,225.5l0.3,0.5c-0.5,0.5-1.1,0.6-1.6,0.6c-1.6,0-2.3-0.9-2.3-2.2c0-1.4,1-2.2,2.2-2.2
				c1,0,1.9,0.6,1.9,1.5c0,0.2-0.1,0.6-0.2,0.8h-2.7c0,0.9,0.5,1.5,1.2,1.5C132.4,225.9,132.8,225.8,133.3,225.5z M132.6,223.6
				c0-0.5-0.3-0.8-0.8-0.8c-0.6,0-0.9,0.4-1,1.1h1.7C132.6,223.8,132.6,223.7,132.6,223.6z"/>
			<path class="st5" d="M134.3,226.2v-1.1l0.6-0.1l0.3,0.9c0.1,0.1,0.4,0.1,0.5,0.1c0.4,0,0.8-0.2,0.8-0.5c0-0.3-0.5-0.5-0.8-0.7
				c-0.6-0.3-1.3-0.7-1.3-1.4c0-0.8,0.7-1.2,1.7-1.2c0.5,0,0.9,0.1,1.3,0.4v0.9l-0.6,0.1l-0.2-0.7c-0.2-0.1-0.4-0.1-0.6-0.1
				c-0.3,0-0.6,0.2-0.6,0.5c0,0.4,0.7,0.6,1.1,0.8c0.6,0.3,1.1,0.6,1.1,1.3c0,0.8-0.7,1.3-1.7,1.3
				C135.4,226.6,134.8,226.5,134.3,226.2z"/>
			<path class="st5" d="M140.6,222.3l-0.1,0.5h-1v2.6c0,0.3,0.2,0.5,0.4,0.5c0.2,0,0.5-0.2,0.7-0.4l0.4,0.5
				c-0.3,0.4-0.7,0.6-1.2,0.6c-0.9,0-1.3-0.5-1.3-1.2v-2.5h-0.5l-0.1-0.5l0.6-0.2l0.4-1l0.6,0.2v1H140.6z"/>
			<path class="st5" d="M145,225.5l0.3,0.5c-0.5,0.5-1.1,0.6-1.6,0.6c-1.6,0-2.3-0.9-2.3-2.2c0-1.4,1-2.2,2.2-2.2
				c1,0,1.9,0.6,1.9,1.5c0,0.2-0.1,0.6-0.2,0.8h-2.7c0,0.9,0.5,1.5,1.2,1.5C144.1,225.9,144.5,225.8,145,225.5z M144.3,223.6
				c0-0.5-0.3-0.8-0.8-0.8c-0.6,0-0.9,0.4-1,1.1h1.7C144.2,223.8,144.3,223.7,144.3,223.6z"/>
			<path class="st5" d="M119.3,236.4l0.7,0.3l-0.1,0.6h-2.5l-0.1-0.6l0.7-0.3l-0.4-1.1h-2l-0.4,1.1l0.8,0.3l-0.1,0.6h-2.1l-0.1-0.6
				l0.7-0.3l2-5.4l0.9-0.2L119.3,236.4z M116.9,232l-1,2.6h1.5l-0.5-1.5V232z"/>
			<path class="st5" d="M120.5,237V236l0.6-0.1l0.3,0.9c0.1,0.1,0.4,0.1,0.5,0.1c0.4,0,0.8-0.2,0.8-0.5c0-0.3-0.5-0.5-0.8-0.7
				c-0.6-0.3-1.3-0.7-1.3-1.4c0-0.8,0.7-1.2,1.7-1.2c0.5,0,0.9,0.1,1.3,0.4v0.9l-0.6,0.1l-0.2-0.7c-0.2-0.1-0.4-0.1-0.6-0.1
				c-0.3,0-0.6,0.2-0.6,0.5c0,0.4,0.7,0.6,1.1,0.8c0.6,0.3,1.1,0.6,1.1,1.3c0,0.8-0.7,1.3-1.7,1.3
				C121.6,237.4,120.9,237.3,120.5,237z"/>
			<path class="st5" d="M126.4,237.3h-2l-0.1-0.5l0.5-0.2v-2.9h-0.4l-0.1-0.5l1-0.1l0.5,0.1v3.5l0.5,0.2L126.4,237.3z M125.9,231.6
				c0,0.3-0.2,0.6-0.6,0.6c-0.3,0-0.6-0.3-0.6-0.6c0-0.3,0.3-0.6,0.6-0.6C125.6,231,125.9,231.3,125.9,231.6z"/>
			<path class="st5" d="M128.8,233c1.1,0,1.8,0.6,1.8,1.7v1.9l0.5,0.2l-0.1,0.5h-1.1l-0.3-0.2c-0.3,0.2-0.6,0.3-1.1,0.3
				c-0.8,0-1.4-0.4-1.4-1.3c0-1.2,1.4-1.5,2.4-1.5v-0.3c0-0.5-0.3-0.8-0.7-0.8c-0.2,0-0.5,0.1-0.6,0.1l-0.2,0.7l-0.6-0.1v-0.9
				C127.9,233.1,128.4,233,128.8,233z M128.2,236.1c0,0.5,0.3,0.7,0.6,0.7c0.2,0,0.5-0.1,0.7-0.4v-1.2
				C128.7,235.2,128.2,235.6,128.2,236.1z M128.5,232l0.6-1.6l0.8,0.4l-1.1,1.4L128.5,232z"/>
			<path class="st5" d="M134,233.1l-0.1,0.5h-1v2.6c0,0.3,0.2,0.5,0.4,0.5c0.2,0,0.5-0.2,0.7-0.4l0.4,0.5c-0.3,0.4-0.7,0.6-1.2,0.6
				c-0.9,0-1.3-0.5-1.3-1.2v-2.5h-0.5l-0.1-0.5l0.6-0.2l0.4-1l0.6,0.2v1H134z"/>
			<path class="st5" d="M136.7,237.3h-2l-0.1-0.5l0.5-0.2v-2.9h-0.4l-0.1-0.5l1-0.1l0.5,0.1v3.5l0.5,0.2L136.7,237.3z M136.2,231.6
				c0,0.3-0.2,0.6-0.6,0.6c-0.3,0-0.6-0.3-0.6-0.6c0-0.3,0.3-0.6,0.6-0.6C136,231,136.2,231.3,136.2,231.6z"/>
			<path class="st5" d="M138.6,235c0,0.9,0.3,1.7,1.2,1.7c0.4,0,0.8-0.1,1.2-0.4l0.3,0.5c-0.4,0.4-1,0.6-1.6,0.6
				c-1.5,0-2.3-0.9-2.3-2.2c0-1.4,1-2.2,2.3-2.2c0.4,0,0.9,0.1,1.4,0.4v0.9l-0.6,0.1l-0.2-0.7c-0.2-0.1-0.5-0.1-0.6-0.1
				C139.1,233.6,138.6,234.1,138.6,235z"/>
			<path class="st5" d="M146.1,235.2c0,1.4-0.7,2.2-2.1,2.2c-1.4,0-2.1-0.9-2.1-2.2c0-1.3,0.8-2.2,2.1-2.2
				C145.3,233,146.1,233.8,146.1,235.2z M142.9,235.2c0,1,0.4,1.7,1,1.7c0.6,0,1-0.7,1-1.7c0-1-0.4-1.6-1-1.6
				S142.9,234.2,142.9,235.2z"/>
		</g>
	</g>
	<g>
		<g>
			<path class="st5" d="M53.7,225.9l-0.1,0.6h-2.7l-0.1-0.6l0.7-0.3v-4.4l-0.7-0.3l0.1-0.6h2.8c1.3,0,1.9,0.8,1.9,2
				c0,1.5-1,1.9-2.2,1.9h-0.3v-0.7h0.4c0.7,0,1.1-0.6,1.1-1.2c0-0.7-0.3-1.4-1-1.4h-0.7v4.7L53.7,225.9z"/>
			<path class="st5" d="M57.9,222.2c1.1,0,1.8,0.6,1.8,1.7v1.9l0.5,0.2l-0.1,0.5H59l-0.3-0.2c-0.3,0.2-0.6,0.3-1.1,0.3
				c-0.8,0-1.4-0.4-1.4-1.3c0-1.2,1.4-1.5,2.4-1.5v-0.3c0-0.5-0.3-0.8-0.7-0.8c-0.2,0-0.5,0.1-0.6,0.1l-0.2,0.7l-0.6-0.1v-0.9
				C57,222.3,57.5,222.2,57.9,222.2z M57.3,225.3c0,0.5,0.3,0.7,0.6,0.7c0.2,0,0.5-0.1,0.7-0.4v-1.2
				C57.8,224.4,57.3,224.8,57.3,225.3z"/>
			<path class="st5" d="M62.6,226.5h-2l-0.1-0.6l0.5-0.2v-2.9h-0.4l-0.1-0.5l1-0.1l0.5,0.1v3.5l0.5,0.2L62.6,226.5z M61.1,221.2
				l0.6-1.6l0.8,0.4l-1.1,1.4L61.1,221.2z"/>
			<path class="st5" d="M63.4,226.2v-1.1L64,225l0.3,0.9c0.1,0.1,0.4,0.1,0.5,0.1c0.4,0,0.8-0.2,0.8-0.5c0-0.3-0.5-0.5-0.8-0.7
				c-0.6-0.3-1.3-0.7-1.3-1.4c0-0.8,0.7-1.2,1.7-1.2c0.5,0,0.9,0.1,1.3,0.4v0.9l-0.6,0.1l-0.2-0.7c-0.2-0.1-0.4-0.1-0.6-0.1
				c-0.3,0-0.6,0.2-0.6,0.5c0,0.4,0.7,0.6,1.1,0.8c0.6,0.3,1.1,0.6,1.1,1.3c0,0.8-0.7,1.3-1.7,1.3C64.5,226.6,63.9,226.5,63.4,226.2
				z"/>
			<path class="st5" d="M70.9,225.5l0.3,0.5c-0.5,0.5-1.1,0.6-1.6,0.6c-1.6,0-2.3-0.9-2.3-2.2c0-1.4,1-2.2,2.2-2.2
				c1,0,1.9,0.6,1.9,1.5c0,0.2-0.1,0.6-0.2,0.8h-2.7c0,0.9,0.5,1.5,1.2,1.5C70,225.9,70.5,225.8,70.9,225.5z M70.2,223.6
				c0-0.5-0.3-0.8-0.8-0.8c-0.6,0-0.9,0.4-1,1.1h1.7C70.2,223.8,70.2,223.7,70.2,223.6z"/>
			<path class="st5" d="M71.9,226.2v-1.1l0.6-0.1l0.3,0.9c0.1,0.1,0.4,0.1,0.5,0.1c0.4,0,0.8-0.2,0.8-0.5c0-0.3-0.5-0.5-0.8-0.7
				c-0.6-0.3-1.3-0.7-1.3-1.4c0-0.8,0.7-1.2,1.7-1.2c0.5,0,0.9,0.1,1.3,0.4v0.9l-0.6,0.1l-0.2-0.7c-0.2-0.1-0.4-0.1-0.6-0.1
				c-0.3,0-0.6,0.2-0.6,0.5c0,0.4,0.7,0.6,1.1,0.8c0.6,0.3,1.1,0.6,1.1,1.3c0,0.8-0.7,1.3-1.7,1.3C73,226.6,72.4,226.5,71.9,226.2z"
				/>
			<path class="st5" d="M38,237.5l-1.5-4.3l-0.4,3.2l0.7,0.3l-0.1,0.6h-1.9l-0.1-0.6l0.7-0.3l0.5-4.4l-0.7-0.3l0.1-0.6h1.7l1.4,3.9
				v0.9l1.7-4.8h1.8l0.1,0.6l-0.7,0.3l0.4,4.4l0.7,0.3l-0.1,0.6h-2.4l-0.1-0.6l0.7-0.3l-0.3-3.5l-1.5,4.4L38,237.5z"/>
			<path class="st5" d="M46.6,236.3l0.3,0.5c-0.5,0.5-1.1,0.6-1.6,0.6c-1.6,0-2.3-0.9-2.3-2.2c0-1.4,1-2.2,2.2-2.2
				c1,0,1.9,0.6,1.9,1.5c0,0.2-0.1,0.6-0.2,0.8h-2.7c0,0.9,0.5,1.5,1.2,1.5C45.7,236.7,46.1,236.6,46.6,236.3z M45.9,234.4
				c0-0.5-0.3-0.8-0.8-0.8c-0.6,0-0.9,0.4-1,1.1h1.7C45.8,234.6,45.9,234.5,45.9,234.4z"/>
			<path class="st5" d="M49.6,237.4c-1.4,0-2.1-0.8-2.1-2.2c0-1.3,0.9-2.2,2.2-2.2c0.2,0,0.5,0,0.7,0.1v-1.9H50l-0.1-0.5l1.1-0.1
				l0.5,0.1v5.8l0.6,0.2l-0.1,0.5h-1.2l-0.3-0.2C50.3,237.3,50,237.4,49.6,237.4z M49.7,233.6c-0.7,0-1,0.6-1,1.5
				c0,0.9,0.4,1.6,1,1.6c0.3,0,0.5-0.1,0.7-0.3v-2.6C50.2,233.7,49.9,233.6,49.7,233.6z"/>
			<path class="st5" d="M54.5,237.3h-2l-0.1-0.5l0.5-0.2v-2.9h-0.4l-0.1-0.5l1-0.1l0.5,0.1v3.5l0.5,0.2L54.5,237.3z M54,231.6
				c0,0.3-0.2,0.6-0.6,0.6c-0.3,0-0.6-0.3-0.6-0.6c0-0.3,0.3-0.6,0.6-0.6C53.7,231,54,231.3,54,231.6z"/>
			<path class="st5" d="M57.8,233.1l-0.1,0.5h-1v2.6c0,0.3,0.2,0.5,0.4,0.5c0.2,0,0.5-0.2,0.7-0.4l0.4,0.5c-0.3,0.4-0.7,0.6-1.2,0.6
				c-0.9,0-1.3-0.5-1.3-1.2v-2.5h-0.5l-0.1-0.5l0.6-0.2l0.4-1l0.6,0.2v1H57.8z"/>
			<path class="st5" d="M62.1,236.3l0.3,0.5c-0.5,0.5-1.1,0.6-1.6,0.6c-1.6,0-2.3-0.9-2.3-2.2c0-1.4,1-2.2,2.2-2.2
				c1,0,1.9,0.6,1.9,1.5c0,0.2-0.1,0.6-0.2,0.8h-2.7c0,0.9,0.5,1.5,1.2,1.5C61.2,236.7,61.7,236.6,62.1,236.3z M61.4,234.4
				c0-0.5-0.3-0.8-0.8-0.8c-0.6,0-0.9,0.4-1,1.1h1.7C61.4,234.6,61.4,234.5,61.4,234.4z"/>
			<path class="st5" d="M65.8,233.7c-0.1,0-0.2,0-0.3,0c-0.2,0-0.5,0.1-0.8,0.2v2.7l0.7,0.2l-0.1,0.5h-2.1l-0.1-0.5l0.5-0.2v-2.9
				h-0.4l-0.1-0.5l1.1-0.1l0.3,0.2c0.3-0.1,0.7-0.2,1.1-0.2c0.3,0,0.6,0.1,0.9,0.2v1l-0.6,0.1L65.8,233.7z"/>
			<path class="st5" d="M69.6,233.7c-0.1,0-0.2,0-0.3,0c-0.2,0-0.5,0.1-0.8,0.2v2.7l0.7,0.2l-0.1,0.5H67l-0.1-0.5l0.5-0.2v-2.9h-0.4
				l-0.1-0.5l1.1-0.1l0.3,0.2c0.3-0.1,0.7-0.2,1.1-0.2c0.3,0,0.6,0.1,0.9,0.2v1l-0.6,0.1L69.6,233.7z"/>
			<path class="st5" d="M71.1,234.2v-0.9c0.5-0.3,1-0.4,1.4-0.4c1.1,0,1.8,0.6,1.8,1.7v1.9l0.5,0.2l-0.1,0.5h-1.1l-0.3-0.2
				c-0.3,0.2-0.6,0.3-1.1,0.3c-0.8,0-1.4-0.4-1.4-1.3c0-1.2,1.4-1.5,2.4-1.5v-0.3c0-0.5-0.3-0.8-0.7-0.8c-0.2,0-0.5,0.1-0.6,0.1
				l-0.2,0.7L71.1,234.2z M73.8,232.2l-1-1.5h-0.6l-1,1.5l0.3,0.2l1-0.9l1,0.9L73.8,232.2z M73.2,236.4v-1.2c-0.8,0-1.3,0.4-1.3,0.9
				s0.3,0.7,0.6,0.7C72.7,236.7,73,236.6,73.2,236.4z"/>
			<path class="st5" d="M76.7,233.8v2.7l0.5,0.2l-0.1,0.5h-2l-0.1-0.5l0.5-0.2v-2.9h-0.4l-0.1-0.5l1.1-0.1l0.3,0.2
				c0.3-0.1,0.7-0.2,1.1-0.2c1,0,1.6,0.5,1.6,1.5v2l0.5,0.2l-0.1,0.5h-1.9l-0.1-0.5l0.5-0.2v-2.2c0-0.5-0.4-0.7-0.8-0.7
				C77.2,233.6,76.9,233.7,76.7,233.8z"/>
			<path class="st5" d="M84.1,236.3l0.3,0.5c-0.5,0.5-1.1,0.6-1.6,0.6c-1.6,0-2.3-0.9-2.3-2.2c0-1.4,1-2.2,2.2-2.2
				c1,0,1.9,0.6,1.9,1.5c0,0.2-0.1,0.6-0.2,0.8h-2.7c0,0.9,0.5,1.5,1.2,1.5C83.2,236.7,83.7,236.6,84.1,236.3z M83.4,234.4
				c0-0.5-0.3-0.8-0.8-0.8c-0.6,0-0.9,0.4-1,1.1h1.7C83.4,234.6,83.4,234.5,83.4,234.4z"/>
			<path class="st5" d="M89.3,235.2c0,1.4-0.7,2.2-2.1,2.2c-1.4,0-2.1-0.9-2.1-2.2c0-1.3,0.8-2.2,2.1-2.2
				C88.5,233,89.3,233.8,89.3,235.2z M86.2,235.2c0,1,0.4,1.7,1,1.7c0.6,0,1-0.7,1-1.7c0-1-0.4-1.6-1-1.6S86.2,234.2,86.2,235.2z"/>
			<path class="st5" d="M90,237V236l0.6-0.1l0.3,0.9c0.1,0.1,0.4,0.1,0.5,0.1c0.4,0,0.8-0.2,0.8-0.5c0-0.3-0.5-0.5-0.8-0.7
				c-0.6-0.3-1.3-0.7-1.3-1.4c0-0.8,0.7-1.2,1.7-1.2c0.5,0,0.9,0.1,1.3,0.4v0.9l-0.6,0.1l-0.2-0.7c-0.2-0.1-0.4-0.1-0.6-0.1
				c-0.3,0-0.6,0.2-0.6,0.5c0,0.4,0.7,0.6,1.1,0.8c0.6,0.3,1.1,0.6,1.1,1.3c0,0.8-0.7,1.3-1.7,1.3C91.1,237.4,90.5,237.3,90,237z"/>
			<path class="st5" d="M46,247.5l0.7-0.3v-4.4l-0.7-0.3l0.1-0.6h2.5c2.1,0,3.1,1.4,3.1,3.1c0,1.7-1,3.2-3.1,3.2H46L46,247.5z
				 M47.8,247.5h0.7c1.2,0,1.8-1.2,1.8-2.6c0-1.4-0.6-2.4-1.8-2.4h-0.7V247.5z"/>
			<path class="st5" d="M56.5,246c0,1.4-0.7,2.2-2.1,2.2c-1.4,0-2.1-0.9-2.1-2.2c0-1.3,0.8-2.2,2.1-2.2
				C55.6,243.8,56.5,244.6,56.5,246z M53.3,246c0,1,0.4,1.7,1,1.7c0.6,0,1-0.7,1-1.7c0-1-0.4-1.6-1-1.6S53.3,245,53.3,246z"/>
			<path class="st5" d="M61.9,242.4l-0.7,0.3v4.7h1.6l0.5-1.3l0.6,0.1v1.9h-4.5l-0.1-0.6l0.7-0.3v-4.4l-0.7-0.3l0.1-0.6h2.4
				L61.9,242.4z"/>
			<path class="st5" d="M67.9,247.1l0.3,0.5c-0.5,0.5-1.1,0.6-1.6,0.6c-1.6,0-2.3-0.9-2.3-2.2c0-1.4,1-2.2,2.2-2.2
				c1,0,1.9,0.6,1.9,1.5c0,0.2-0.1,0.6-0.2,0.8h-2.7c0,0.9,0.5,1.5,1.2,1.5C67.1,247.5,67.5,247.4,67.9,247.1z M67.2,245.2
				c0-0.5-0.3-0.8-0.8-0.8c-0.6,0-0.9,0.4-1,1.1h1.7C67.2,245.4,67.2,245.3,67.2,245.2z"/>
			<path class="st5" d="M68.9,247.8v-1.1l0.6-0.1l0.3,0.9c0.1,0.1,0.4,0.1,0.5,0.1c0.4,0,0.8-0.2,0.8-0.5c0-0.3-0.5-0.5-0.8-0.7
				c-0.6-0.3-1.3-0.7-1.3-1.4c0-0.8,0.7-1.2,1.7-1.2c0.5,0,0.9,0.1,1.3,0.4v0.9l-0.6,0.1l-0.2-0.7c-0.2-0.1-0.4-0.1-0.6-0.1
				c-0.3,0-0.6,0.2-0.6,0.5c0,0.4,0.7,0.6,1.1,0.8c0.6,0.3,1.1,0.6,1.1,1.3c0,0.8-0.7,1.3-1.7,1.3C70,248.2,69.4,248.1,68.9,247.8z"
				/>
			<path class="st5" d="M75.3,243.9l-0.1,0.5h-1v2.6c0,0.3,0.2,0.5,0.4,0.5c0.2,0,0.5-0.2,0.7-0.4l0.4,0.5c-0.3,0.4-0.7,0.6-1.2,0.6
				c-0.9,0-1.3-0.5-1.3-1.2v-2.5h-0.5l-0.1-0.5l0.6-0.2l0.4-1l0.6,0.2v1H75.3z"/>
			<path class="st5" d="M79.6,247.1l0.3,0.5c-0.5,0.5-1.1,0.6-1.6,0.6c-1.6,0-2.3-0.9-2.3-2.2c0-1.4,1-2.2,2.2-2.2
				c1,0,1.9,0.6,1.9,1.5c0,0.2-0.1,0.6-0.2,0.8h-2.7c0,0.9,0.5,1.5,1.2,1.5C78.7,247.5,79.2,247.4,79.6,247.1z M78.9,245.2
				c0-0.5-0.3-0.8-0.8-0.8c-0.6,0-0.9,0.4-1,1.1h1.7C78.9,245.4,78.9,245.3,78.9,245.2z"/>
		</g>
	</g>
	<g>
		<path class="st5" d="M55.1,196.9c-0.4,0-0.7-0.1-0.9-0.3c-0.3-0.2-0.5-0.4-0.6-0.7s-0.3-0.6-0.3-1c-0.1-0.4-0.1-0.8-0.1-1.2
			c0-0.6,0.1-1.1,0.3-1.6c0.2-0.4,0.4-0.8,0.8-1c0.3-0.2,0.7-0.4,1.1-0.4c0.4,0,0.7,0.1,1,0.2s0.5,0.4,0.6,0.7
			c0.2,0.3,0.3,0.6,0.3,1s0.1,0.7,0.1,1.2c0,0.6-0.1,1.2-0.3,1.6s-0.4,0.8-0.7,1.1C55.9,196.8,55.5,196.9,55.1,196.9z M55.1,196.1
			c0.4,0,0.7-0.2,0.9-0.5c0.2-0.4,0.3-0.9,0.3-1.7c0-0.4,0-0.8-0.1-1.1c-0.1-0.3-0.2-0.6-0.4-0.8c-0.2-0.2-0.4-0.3-0.6-0.3
			c-0.4,0-0.7,0.2-0.9,0.5c-0.2,0.4-0.3,0.9-0.3,1.5c0,0.4,0,0.8,0.1,1.1c0.1,0.3,0.2,0.6,0.4,0.8C54.6,195.9,54.8,196.1,55.1,196.1
			z"/>
		<path class="st5" d="M58.3,198.4L58.3,198.4c0.1-0.2,0.2-0.3,0.3-0.5c0.1-0.2,0.1-0.4,0.1-0.6c0-0.1,0-0.2-0.1-0.3
			c0-0.1-0.1-0.2-0.2-0.3c-0.1-0.1-0.1-0.1-0.2-0.1v-0.3l0.6-0.5c0.2,0.1,0.3,0.2,0.4,0.3c0.1,0.1,0.2,0.3,0.2,0.5
			c0,0.2,0.1,0.3,0.1,0.5c0,0.3,0,0.5-0.1,0.8c-0.1,0.2-0.2,0.4-0.4,0.6c-0.2,0.2-0.3,0.3-0.5,0.4L58.3,198.4z"/>
		<path class="st5" d="M60.6,196.8l-0.1-0.5c0.2-0.2,0.5-0.4,0.7-0.6c0.2-0.2,0.5-0.4,0.7-0.7s0.4-0.5,0.6-0.8
			c0.2-0.3,0.3-0.5,0.4-0.8c0.1-0.3,0.2-0.5,0.2-0.8c0-0.4-0.1-0.6-0.3-0.8c-0.2-0.2-0.4-0.3-0.7-0.3c-0.3,0-0.5,0.1-0.7,0.2
			c-0.2,0.1-0.4,0.2-0.5,0.4l-0.4-0.6c0.1-0.1,0.2-0.2,0.4-0.3c0.2-0.1,0.4-0.2,0.6-0.3c0.2-0.1,0.5-0.1,0.8-0.1
			c0.4,0,0.7,0.1,1,0.2c0.3,0.2,0.4,0.4,0.6,0.7s0.2,0.6,0.2,0.9c0,0.4-0.1,0.8-0.3,1.2c-0.2,0.4-0.4,0.8-0.8,1.2
			c-0.3,0.4-0.7,0.7-1.1,1l2.4,0v0.8H60.6z"/>
	</g>
	<g>
		<path class="st5" d="M126.6,190.8c-0.4,0-0.7-0.1-0.9-0.3c-0.3-0.2-0.5-0.4-0.6-0.7s-0.3-0.6-0.3-1c-0.1-0.4-0.1-0.8-0.1-1.2
			c0-0.6,0.1-1.1,0.3-1.6c0.2-0.4,0.4-0.8,0.8-1c0.3-0.2,0.7-0.4,1.1-0.4c0.4,0,0.7,0.1,1,0.2s0.5,0.4,0.6,0.7
			c0.2,0.3,0.3,0.6,0.3,1s0.1,0.7,0.1,1.2c0,0.6-0.1,1.2-0.3,1.6s-0.4,0.8-0.7,1.1C127.4,190.6,127,190.8,126.6,190.8z M126.6,189.9
			c0.4,0,0.7-0.2,0.9-0.5c0.2-0.4,0.3-0.9,0.3-1.7c0-0.4,0-0.8-0.1-1.1c-0.1-0.3-0.2-0.6-0.4-0.8c-0.2-0.2-0.4-0.3-0.6-0.3
			c-0.4,0-0.7,0.2-0.9,0.5c-0.2,0.4-0.3,0.9-0.3,1.5c0,0.4,0,0.8,0.1,1.1c0.1,0.3,0.2,0.6,0.4,0.8
			C126.2,189.8,126.4,189.9,126.6,189.9z"/>
		<path class="st5" d="M129.8,192.3L129.8,192.3c0.1-0.2,0.2-0.3,0.3-0.5c0.1-0.2,0.1-0.4,0.1-0.6c0-0.1,0-0.2-0.1-0.3
			c0-0.1-0.1-0.2-0.2-0.3c-0.1-0.1-0.1-0.1-0.2-0.1v-0.3l0.6-0.5c0.2,0.1,0.3,0.2,0.4,0.3c0.1,0.1,0.2,0.3,0.2,0.5
			c0,0.2,0.1,0.3,0.1,0.5c0,0.3,0,0.5-0.1,0.8c-0.1,0.2-0.2,0.4-0.4,0.6c-0.2,0.2-0.3,0.3-0.5,0.4L129.8,192.3z"/>
		<path class="st5" d="M132.6,190.8c-0.1,0-0.1,0-0.2,0s-0.2,0-0.2,0v-0.6c0,0,0.1,0,0.1,0s0.1,0,0.1,0c0.4,0,0.8-0.1,1.1-0.2
			c0.3-0.1,0.6-0.3,0.8-0.5c0.2-0.2,0.3-0.5,0.3-0.7c0-0.4-0.1-0.6-0.3-0.8c-0.2-0.2-0.5-0.2-0.9-0.2c-0.1,0-0.3,0-0.5,0.1
			c-0.2,0-0.4,0.1-0.5,0.1l-0.2-0.1l0.2-2.9h2.9l-0.1,0.8h-2.1l-0.1,1.5c0.2,0,0.3-0.1,0.5-0.1c0.1,0,0.3,0,0.4,0
			c0.5,0,1,0.1,1.2,0.4s0.4,0.7,0.4,1.2c0,0.3-0.1,0.5-0.2,0.8c-0.1,0.3-0.3,0.5-0.5,0.7c-0.2,0.2-0.5,0.4-0.9,0.5
			C133.5,190.7,133.1,190.8,132.6,190.8z"/>
	</g>
	<g>
		<path class="st5" d="M198.3,183.3c-0.4,0-0.7-0.1-0.9-0.3c-0.3-0.2-0.5-0.4-0.6-0.7s-0.3-0.6-0.3-1c-0.1-0.4-0.1-0.8-0.1-1.2
			c0-0.6,0.1-1.1,0.3-1.6c0.2-0.4,0.4-0.8,0.8-1c0.3-0.2,0.7-0.4,1.1-0.4c0.4,0,0.7,0.1,1,0.2s0.5,0.4,0.6,0.7
			c0.2,0.3,0.3,0.6,0.3,1s0.1,0.7,0.1,1.2c0,0.6-0.1,1.2-0.3,1.6s-0.4,0.8-0.7,1.1C199,183.2,198.7,183.3,198.3,183.3z M198.3,182.5
			c0.4,0,0.7-0.2,0.9-0.5c0.2-0.4,0.3-0.9,0.3-1.7c0-0.4,0-0.8-0.1-1.1c-0.1-0.3-0.2-0.6-0.4-0.8c-0.2-0.2-0.4-0.3-0.6-0.3
			c-0.4,0-0.7,0.2-0.9,0.5c-0.2,0.4-0.3,0.9-0.3,1.5c0,0.4,0,0.8,0.1,1.1c0.1,0.3,0.2,0.6,0.4,0.8
			C197.8,182.3,198,182.4,198.3,182.5z"/>
		<path class="st5" d="M201.4,184.8L201.4,184.8c0.1-0.2,0.2-0.3,0.3-0.5c0.1-0.2,0.1-0.4,0.1-0.6c0-0.1,0-0.2-0.1-0.3
			c0-0.1-0.1-0.2-0.2-0.3c-0.1-0.1-0.1-0.1-0.2-0.1v-0.3l0.6-0.5c0.2,0.1,0.3,0.2,0.4,0.3c0.1,0.1,0.2,0.3,0.2,0.5
			c0,0.2,0.1,0.3,0.1,0.5c0,0.3,0,0.5-0.1,0.8c-0.1,0.2-0.2,0.4-0.4,0.6c-0.2,0.2-0.3,0.3-0.5,0.4L201.4,184.8z"/>
		<path class="st5" d="M204.2,183.2c0.1-0.3,0.3-0.6,0.4-0.9c0.1-0.3,0.2-0.6,0.4-0.9c0.1-0.3,0.2-0.6,0.3-0.9
			c0.1-0.3,0.2-0.6,0.3-0.9c0.1-0.3,0.2-0.6,0.3-0.9s0.2-0.6,0.3-0.8l-2.8,0l0-0.8h3.5l0.2,0.3l-2,5.7H204.2z"/>
	</g>
	<g>
		<path class="st5" d="M268.9,175.1v-4.9c-0.1,0-0.3,0.1-0.4,0.1c-0.1,0-0.3,0.1-0.4,0.1l-0.1-0.6c0.1,0,0.3-0.1,0.4-0.2
			c0.1-0.1,0.3-0.1,0.4-0.2c0.1-0.1,0.3-0.1,0.4-0.2s0.2-0.1,0.2-0.2l0.4,0.1v6H268.9z"/>
		<path class="st5" d="M271.5,176.7L271.5,176.7c0.1-0.2,0.2-0.3,0.3-0.5c0.1-0.2,0.1-0.4,0.1-0.6c0-0.1,0-0.2-0.1-0.3
			c0-0.1-0.1-0.2-0.2-0.3c-0.1-0.1-0.1-0.1-0.2-0.1v-0.3l0.6-0.5c0.2,0.1,0.3,0.2,0.4,0.3c0.1,0.1,0.2,0.3,0.2,0.5
			c0,0.2,0.1,0.3,0.1,0.5c0,0.3,0,0.5-0.1,0.8c-0.1,0.2-0.2,0.4-0.4,0.6c-0.2,0.2-0.3,0.3-0.5,0.4L271.5,176.7z"/>
		<path class="st5" d="M275.8,175.2c-0.4,0-0.7-0.1-0.9-0.3c-0.3-0.2-0.5-0.4-0.6-0.7s-0.3-0.6-0.3-1c-0.1-0.4-0.1-0.8-0.1-1.2
			c0-0.6,0.1-1.1,0.3-1.6c0.2-0.4,0.4-0.8,0.8-1c0.3-0.2,0.7-0.4,1.1-0.4c0.4,0,0.7,0.1,1,0.2s0.5,0.4,0.6,0.7
			c0.2,0.3,0.3,0.6,0.3,1s0.1,0.7,0.1,1.2c0,0.6-0.1,1.2-0.3,1.6s-0.4,0.8-0.7,1.1C276.5,175,276.2,175.2,275.8,175.2z M275.8,174.3
			c0.4,0,0.7-0.2,0.9-0.5c0.2-0.4,0.3-0.9,0.3-1.7c0-0.4,0-0.8-0.1-1.1c-0.1-0.3-0.2-0.6-0.4-0.8c-0.2-0.2-0.4-0.3-0.6-0.3
			c-0.4,0-0.7,0.2-0.9,0.5c-0.2,0.4-0.3,0.9-0.3,1.5c0,0.4,0,0.8,0.1,1.1c0.1,0.3,0.2,0.6,0.4,0.8
			C275.3,174.2,275.5,174.3,275.8,174.3z"/>
	</g>
	<g>
		<path class="st5" d="M341.5,155v-4.9c-0.1,0-0.3,0.1-0.4,0.1c-0.1,0-0.3,0.1-0.4,0.1l-0.1-0.6c0.1,0,0.3-0.1,0.4-0.2
			c0.1-0.1,0.3-0.1,0.4-0.2c0.1-0.1,0.3-0.1,0.4-0.2s0.2-0.1,0.2-0.2l0.4,0.1v6H341.5z"/>
		<path class="st5" d="M344.1,156.6L344.1,156.6c0.1-0.2,0.2-0.3,0.3-0.5c0.1-0.2,0.1-0.4,0.1-0.6c0-0.1,0-0.2-0.1-0.3
			c0-0.1-0.1-0.2-0.2-0.3c-0.1-0.1-0.1-0.1-0.2-0.1v-0.3l0.6-0.5c0.2,0.1,0.3,0.2,0.4,0.3c0.1,0.1,0.2,0.3,0.2,0.5
			c0,0.2,0.1,0.3,0.1,0.5c0,0.3,0,0.5-0.1,0.8c-0.1,0.2-0.2,0.4-0.4,0.6c-0.2,0.2-0.3,0.3-0.5,0.4L344.1,156.6z"/>
		<path class="st5" d="M346.8,155c0.1-0.3,0.3-0.6,0.4-0.9c0.1-0.3,0.2-0.6,0.4-0.9c0.1-0.3,0.2-0.6,0.3-0.9
			c0.1-0.3,0.2-0.6,0.3-0.9c0.1-0.3,0.2-0.6,0.3-0.9s0.2-0.6,0.3-0.8l-2.8,0l0-0.8h3.5l0.2,0.3l-2,5.7H346.8z"/>
	</g>
	<g>
		<path class="st5" d="M413.1,104.5l0-0.6c0.1,0,0.2,0,0.3,0c0.1,0,0.2,0,0.3,0c0.4,0,0.7,0,0.9-0.1s0.5-0.2,0.6-0.4
			c0.2-0.2,0.2-0.4,0.2-0.6c0-0.2,0-0.4-0.1-0.6c-0.1-0.2-0.2-0.3-0.4-0.4c-0.2-0.1-0.4-0.1-0.7-0.1l-0.4,0.1l-0.2-0.6
			c0.1,0,0.3-0.1,0.4-0.1s0.2-0.1,0.3-0.1c0.3-0.1,0.5-0.3,0.6-0.4c0.1-0.2,0.2-0.4,0.2-0.6c0-0.3-0.1-0.5-0.2-0.6
			c-0.2-0.1-0.4-0.2-0.6-0.2c-0.3,0-0.5,0-0.7,0.1c-0.2,0.1-0.3,0.2-0.5,0.3l-0.3-0.5c0.1-0.1,0.2-0.2,0.4-0.3
			c0.2-0.1,0.3-0.2,0.5-0.2s0.4-0.1,0.6-0.1c0.3,0,0.6,0.1,0.8,0.2c0.2,0.1,0.4,0.3,0.6,0.5c0.1,0.2,0.2,0.5,0.2,0.8
			c0,0.3-0.1,0.5-0.2,0.7c-0.1,0.2-0.3,0.4-0.5,0.5s-0.4,0.3-0.6,0.3v-0.1c0.3,0,0.6,0.1,0.9,0.2s0.4,0.3,0.5,0.5
			c0.1,0.2,0.2,0.5,0.2,0.7c0,0.3-0.1,0.6-0.3,0.9c-0.2,0.3-0.5,0.5-0.9,0.7s-0.8,0.3-1.3,0.3c-0.1,0-0.3,0-0.4,0
			C413.3,104.5,413.2,104.5,413.1,104.5z"/>
		<path class="st5" d="M417.3,106.1L417.3,106.1c0.1-0.2,0.2-0.3,0.3-0.5c0.1-0.2,0.1-0.4,0.1-0.6c0-0.1,0-0.2-0.1-0.3
			c0-0.1-0.1-0.2-0.2-0.3c-0.1-0.1-0.1-0.1-0.2-0.1v-0.3l0.6-0.5c0.2,0.1,0.3,0.2,0.4,0.3c0.1,0.1,0.2,0.3,0.2,0.5
			c0,0.2,0.1,0.3,0.1,0.5c0,0.3,0,0.5-0.1,0.8c-0.1,0.2-0.2,0.4-0.4,0.6c-0.2,0.2-0.3,0.3-0.5,0.4L417.3,106.1z"/>
		<path class="st5" d="M420.2,104.6c-0.1,0-0.1,0-0.2,0s-0.2,0-0.2,0v-0.6c0,0,0.1,0,0.1,0s0.1,0,0.1,0c0.4,0,0.8-0.1,1.1-0.2
			c0.3-0.1,0.6-0.3,0.8-0.5c0.2-0.2,0.3-0.5,0.3-0.7c0-0.4-0.1-0.6-0.3-0.8c-0.2-0.2-0.5-0.2-0.9-0.2c-0.1,0-0.3,0-0.5,0.1
			c-0.2,0-0.4,0.1-0.5,0.1l-0.2-0.1l0.2-2.9h2.9l-0.1,0.8h-2.1l-0.1,1.5c0.2,0,0.3-0.1,0.5-0.1c0.1,0,0.3,0,0.4,0
			c0.5,0,1,0.1,1.2,0.4s0.4,0.7,0.4,1.2c0,0.3-0.1,0.5-0.2,0.8c-0.1,0.3-0.3,0.5-0.5,0.7c-0.2,0.2-0.5,0.4-0.9,0.5
			C421.1,104.5,420.7,104.6,420.2,104.6z"/>
	</g>
	<g>
		<path class="st5" d="M483.6,57.8c-0.1,0-0.1,0-0.2,0s-0.2,0-0.2,0v-0.6c0,0,0.1,0,0.1,0s0.1,0,0.1,0c0.4,0,0.8-0.1,1.1-0.2
			c0.3-0.1,0.6-0.3,0.8-0.5c0.2-0.2,0.3-0.5,0.3-0.7c0-0.4-0.1-0.6-0.3-0.8c-0.2-0.2-0.5-0.2-0.9-0.2c-0.1,0-0.3,0-0.5,0.1
			c-0.2,0-0.4,0.1-0.5,0.1l-0.2-0.1l0.2-2.9h2.9l-0.1,0.8H484l-0.1,1.5c0.2,0,0.3-0.1,0.5-0.1c0.1,0,0.3,0,0.4,0
			c0.5,0,1,0.1,1.2,0.4s0.4,0.7,0.4,1.2c0,0.3-0.1,0.5-0.2,0.8c-0.1,0.3-0.3,0.5-0.5,0.7c-0.2,0.2-0.5,0.4-0.9,0.5
			C484.5,57.8,484.1,57.8,483.6,57.8z"/>
		<path class="st5" d="M487.4,59.3L487.4,59.3c0.1-0.2,0.2-0.3,0.3-0.5c0.1-0.2,0.1-0.4,0.1-0.6c0-0.1,0-0.2-0.1-0.3
			c0-0.1-0.1-0.2-0.2-0.3c-0.1-0.1-0.1-0.1-0.2-0.1v-0.3l0.6-0.5c0.2,0.1,0.3,0.2,0.4,0.3c0.1,0.1,0.2,0.3,0.2,0.5
			c0,0.2,0.1,0.3,0.1,0.5c0,0.3,0,0.5-0.1,0.8c-0.1,0.2-0.2,0.4-0.4,0.6c-0.2,0.2-0.3,0.3-0.5,0.4L487.4,59.3z"/>
		<path class="st5" d="M490.2,57.8v-4.9c-0.1,0-0.3,0.1-0.4,0.1c-0.1,0-0.3,0.1-0.4,0.1l-0.1-0.6c0.1,0,0.3-0.1,0.4-0.2
			c0.1-0.1,0.3-0.1,0.4-0.2c0.1-0.1,0.3-0.1,0.4-0.2s0.2-0.1,0.2-0.2l0.4,0.1v6H490.2z"/>
	</g>
	<g id="Título_6_">
		<g>
			<path class="st5" d="M29.4,66v-6.4h0.8v0.5l0.1,0.1v3.4l0,0.2l0,0.7V66H29.4z M30.9,64.1c-0.3,0-0.5,0-0.6-0.1s-0.3-0.1-0.3-0.2
				l0.3-0.6c0.1,0.1,0.2,0.1,0.3,0.2c0.1,0,0.3,0,0.4,0c0.2,0,0.4-0.1,0.6-0.2s0.3-0.3,0.4-0.6c0.1-0.2,0.2-0.6,0.2-0.9
				c0-0.5-0.1-0.9-0.3-1.2c-0.2-0.2-0.4-0.4-0.8-0.4c-0.2,0-0.4,0-0.5,0.1c-0.2,0.1-0.3,0.2-0.4,0.2l-0.1-0.5
				c0.1-0.1,0.1-0.1,0.2-0.2c0.1-0.1,0.2-0.2,0.4-0.3c0.2-0.1,0.4-0.1,0.6-0.1c0.3,0,0.6,0.1,0.8,0.2c0.3,0.2,0.5,0.4,0.6,0.7
				c0.2,0.3,0.2,0.7,0.2,1.2c0,0.5-0.1,0.9-0.3,1.3c-0.2,0.4-0.4,0.7-0.7,0.9C31.7,64,31.4,64.1,30.9,64.1z"/>
			<path class="st5" d="M34,64.1v-4.4h0.7l0.1,0.6l0.1,0.3v3.5H34z M34.8,60.8l-0.1-0.6c0-0.1,0.1-0.2,0.2-0.3
				c0.1-0.1,0.3-0.2,0.4-0.3s0.3-0.1,0.5-0.1c0.1,0,0.2,0,0.2,0c0.1,0,0.1,0,0.2,0v0.9c0,0-0.1,0-0.2-0.1s-0.2,0-0.4,0
				c-0.2,0-0.3,0-0.4,0.1c-0.1,0-0.2,0.1-0.3,0.2C34.9,60.7,34.8,60.7,34.8,60.8z"/>
			<path class="st5" d="M38.6,64.1c-0.6,0-1.1-0.2-1.4-0.6s-0.5-1-0.5-1.7c0-0.4,0.1-0.8,0.2-1.2c0.1-0.3,0.4-0.6,0.6-0.8
				c0.3-0.2,0.6-0.3,1-0.3c0.2,0,0.4,0,0.6,0.1s0.4,0.2,0.5,0.3c0.1,0.1,0.3,0.3,0.3,0.5c0.1,0.2,0.1,0.5,0.1,0.7c0,0.2,0,0.3,0,0.5
				c0,0.1,0,0.2,0,0.4h-2.9l0.1-0.6h2.1c0-0.2,0-0.4,0-0.6s-0.1-0.3-0.2-0.5c-0.1-0.1-0.3-0.2-0.5-0.2c-0.2,0-0.4,0.1-0.5,0.2
				c-0.2,0.1-0.3,0.3-0.4,0.6c-0.1,0.3-0.1,0.7-0.1,1.1c0,0.3,0.1,0.6,0.2,0.8c0.1,0.2,0.3,0.3,0.4,0.4c0.2,0.1,0.4,0.1,0.6,0.1
				c0.1,0,0.2,0,0.4,0c0.1,0,0.3-0.1,0.4-0.1c0.1,0,0.2-0.1,0.3-0.1l0.2,0.5c-0.1,0.1-0.2,0.2-0.4,0.2c-0.2,0.1-0.3,0.1-0.5,0.1
				C39,64.1,38.8,64.1,38.6,64.1z"/>
			<path class="st5" d="M42.2,64.1l-1.7-4.5h0.9l0.8,2.5l0.4,1.5h-0.2l0.4-1.5l0.8-2.5h0.9L43,64.1H42.2z"/>
			<path class="st5" d="M46.3,64.1c-0.3,0-0.5-0.1-0.7-0.2s-0.3-0.3-0.5-0.4c-0.1-0.2-0.2-0.4-0.2-0.7c0-0.3,0.1-0.5,0.2-0.7
				c0.1-0.2,0.3-0.4,0.6-0.5c0.2-0.1,0.3-0.1,0.5-0.2s0.4-0.1,0.6-0.1c0.2,0,0.4,0,0.5,0l0.2,0.2l-0.2,0.3c-0.1,0-0.2,0-0.4,0
				c-0.1,0-0.3,0-0.4,0.1c-0.1,0-0.2,0.1-0.3,0.1c-0.1,0.1-0.2,0.1-0.3,0.2c-0.1,0.1-0.1,0.2-0.1,0.4c0,0.2,0.1,0.4,0.2,0.5
				c0.1,0.1,0.3,0.2,0.5,0.2c0.1,0,0.2,0,0.4-0.1s0.2-0.1,0.3-0.1s0.1-0.1,0.2-0.1l0.2,0.2l-0.1,0.3c-0.1,0.1-0.3,0.2-0.5,0.3
				S46.6,64.1,46.3,64.1z M48.3,64.1h-0.8v-0.7h0v-2.5c0-0.3-0.1-0.4-0.2-0.5s-0.3-0.1-0.6-0.1c-0.2,0-0.3,0-0.5,0s-0.3,0.1-0.5,0.1
				c-0.1,0-0.2,0.1-0.3,0.2L45.2,60c0.1,0,0.2-0.1,0.3-0.2s0.4-0.1,0.6-0.2s0.4-0.1,0.7-0.1c0.3,0,0.6,0,0.8,0.1
				c0.2,0.1,0.4,0.2,0.5,0.4c0.1,0.2,0.2,0.5,0.2,0.9V64.1z"/>
			<path class="st5" d="M49.6,64.1v-6.5h0.9v6.5H49.6z"/>
			<path class="st5" d="M53.4,64.1c-0.6,0-1.1-0.2-1.4-0.6s-0.5-1-0.5-1.7c0-0.4,0.1-0.8,0.2-1.2c0.1-0.3,0.4-0.6,0.6-0.8
				c0.3-0.2,0.6-0.3,1-0.3c0.2,0,0.4,0,0.6,0.1s0.4,0.2,0.5,0.3c0.1,0.1,0.3,0.3,0.3,0.5c0.1,0.2,0.1,0.5,0.1,0.7c0,0.2,0,0.3,0,0.5
				c0,0.1,0,0.2,0,0.4H52l0.1-0.6h2.1c0-0.2,0-0.4,0-0.6s-0.1-0.3-0.2-0.5c-0.1-0.1-0.3-0.2-0.5-0.2c-0.2,0-0.4,0.1-0.5,0.2
				c-0.2,0.1-0.3,0.3-0.4,0.6c-0.1,0.3-0.1,0.7-0.1,1.1c0,0.3,0.1,0.6,0.2,0.8c0.1,0.2,0.3,0.3,0.4,0.4c0.2,0.1,0.4,0.1,0.6,0.1
				c0.1,0,0.2,0,0.4,0c0.1,0,0.3-0.1,0.4-0.1c0.1,0,0.2-0.1,0.3-0.1l0.2,0.5c-0.1,0.1-0.2,0.2-0.4,0.2c-0.2,0.1-0.3,0.1-0.5,0.1
				C53.7,64.1,53.6,64.1,53.4,64.1z M52.4,59.1L52,58.9l1.1-1.4h0.7l1,1.4l-0.5,0.2l-0.9-0.9L52.4,59.1z"/>
			<path class="st5" d="M56,64.1v-4.4h0.8l0,0.5c0.1-0.1,0.2-0.2,0.4-0.2c0.2-0.1,0.3-0.2,0.5-0.2s0.4-0.1,0.5-0.1
				c0.5,0,0.8,0.1,1,0.4s0.3,0.7,0.3,1.4v2.8h-0.9v-2.7c0-0.4,0-0.6-0.1-0.8c-0.1-0.2-0.3-0.2-0.6-0.2c-0.1,0-0.2,0-0.3,0
				c-0.1,0-0.2,0.1-0.4,0.1c-0.1,0.1-0.2,0.1-0.3,0.2v3.4H56z"/>
			<path class="st5" d="M60.4,61.9c0-0.4,0.1-0.8,0.2-1.2c0.2-0.4,0.4-0.6,0.7-0.8c0.3-0.2,0.7-0.3,1.1-0.3c0.3,0,0.5,0,0.7,0.1
				s0.3,0.1,0.4,0.1l-0.1,0.7c-0.1-0.1-0.2-0.1-0.4-0.2c-0.1,0-0.3-0.1-0.5-0.1c-0.2,0-0.4,0-0.5,0.1c-0.2,0.1-0.3,0.3-0.4,0.5
				c-0.1,0.2-0.2,0.5-0.2,0.8c0,0.4,0,0.7,0.1,0.9c0.1,0.3,0.2,0.4,0.4,0.6c0.2,0.1,0.4,0.2,0.6,0.2c0.2,0,0.4,0,0.6-0.1
				c0.2-0.1,0.3-0.1,0.4-0.2l0.2,0.5c-0.1,0.1-0.3,0.2-0.5,0.3s-0.5,0.1-0.7,0.1c-0.4,0-0.7-0.1-1-0.3s-0.5-0.5-0.6-0.8
				S60.4,62.3,60.4,61.9z"/>
			<path class="st5" d="M64.9,58.8c-0.1,0-0.3,0-0.4-0.1s-0.2-0.2-0.2-0.4c0-0.1,0-0.2,0.1-0.3c0.1-0.1,0.1-0.2,0.2-0.2
				s0.2-0.1,0.3-0.1c0.2,0,0.3,0.1,0.4,0.2c0.1,0.1,0.1,0.2,0.1,0.4c0,0.2-0.1,0.3-0.2,0.5C65.2,58.8,65,58.8,64.9,58.8z M64.5,64.1
				v-4.4h0.9v4.4H64.5z"/>
			<path class="st5" d="M67.7,64.1c-0.3,0-0.5-0.1-0.7-0.2s-0.3-0.3-0.5-0.4c-0.1-0.2-0.2-0.4-0.2-0.7c0-0.3,0.1-0.5,0.2-0.7
				c0.1-0.2,0.3-0.4,0.6-0.5c0.2-0.1,0.3-0.1,0.5-0.2s0.4-0.1,0.6-0.1c0.2,0,0.4,0,0.5,0l0.2,0.2l-0.2,0.3c-0.1,0-0.2,0-0.4,0
				c-0.1,0-0.3,0-0.4,0.1c-0.1,0-0.2,0.1-0.3,0.1c-0.1,0.1-0.2,0.1-0.3,0.2c-0.1,0.1-0.1,0.2-0.1,0.4c0,0.2,0.1,0.4,0.2,0.5
				c0.1,0.1,0.3,0.2,0.5,0.2c0.1,0,0.2,0,0.4-0.1s0.2-0.1,0.3-0.1s0.1-0.1,0.2-0.1l0.2,0.2l-0.1,0.3c-0.1,0.1-0.3,0.2-0.5,0.3
				S67.9,64.1,67.7,64.1z M69.7,64.1h-0.8v-0.7h0v-2.5c0-0.3-0.1-0.4-0.2-0.5s-0.3-0.1-0.6-0.1c-0.2,0-0.3,0-0.5,0s-0.3,0.1-0.5,0.1
				c-0.1,0-0.2,0.1-0.3,0.2L66.6,60c0.1,0,0.2-0.1,0.3-0.2s0.4-0.1,0.6-0.2s0.4-0.1,0.7-0.1c0.3,0,0.6,0,0.8,0.1
				c0.2,0.1,0.4,0.2,0.5,0.4c0.1,0.2,0.2,0.5,0.2,0.9V64.1z"/>
			<path class="st5" d="M73.7,65.4c-0.1,0-0.2-0.1-0.3-0.3s-0.3-0.3-0.4-0.5c-0.2-0.2-0.3-0.5-0.4-0.8c-0.1-0.3-0.3-0.7-0.4-1.1
				c-0.1-0.4-0.1-0.9-0.1-1.4c0-0.5,0-0.9,0.1-1.3c0.1-0.4,0.2-0.7,0.3-1.1s0.3-0.6,0.4-0.8s0.3-0.4,0.4-0.6
				c0.1-0.1,0.2-0.2,0.3-0.3l0.6,0.3c-0.1,0.1-0.2,0.2-0.3,0.4s-0.3,0.4-0.5,0.7c-0.2,0.3-0.3,0.7-0.4,1.1c-0.1,0.4-0.2,0.9-0.2,1.5
				c0,0.5,0,0.9,0.1,1.3c0.1,0.4,0.2,0.7,0.3,1c0.1,0.3,0.2,0.5,0.4,0.8c0.1,0.2,0.3,0.4,0.4,0.5c0.1,0.1,0.2,0.2,0.3,0.3L73.7,65.4
				z"/>
			<path class="st5" d="M76.2,61.5c-0.3,0-0.5-0.1-0.7-0.2c-0.2-0.1-0.3-0.3-0.5-0.6c-0.1-0.2-0.2-0.5-0.2-0.8
				c0-0.4,0.1-0.7,0.2-0.9c0.1-0.2,0.3-0.4,0.5-0.6c0.2-0.1,0.5-0.2,0.7-0.2c0.3,0,0.6,0.1,0.8,0.2c0.2,0.1,0.3,0.3,0.4,0.6
				c0.1,0.2,0.1,0.5,0.1,0.8c0,0.4-0.1,0.7-0.2,0.9s-0.3,0.4-0.5,0.6C76.7,61.4,76.5,61.5,76.2,61.5z M76.3,60.9
				c0.2,0,0.4-0.1,0.5-0.3s0.2-0.4,0.2-0.7c0-0.3-0.1-0.6-0.2-0.8s-0.3-0.3-0.5-0.3c-0.2,0-0.4,0.1-0.5,0.3
				c-0.1,0.2-0.2,0.4-0.2,0.8c0,0.3,0.1,0.6,0.2,0.8C75.9,60.8,76.1,60.9,76.3,60.9z M76.7,64.1l2.4-6h0.7l-2.4,6H76.7z M80.2,63.9
				c-0.3,0-0.5-0.1-0.7-0.2c-0.2-0.1-0.3-0.3-0.5-0.6c-0.1-0.2-0.2-0.5-0.2-0.8c0-0.4,0.1-0.7,0.2-0.9c0.1-0.2,0.3-0.4,0.5-0.6
				c0.2-0.1,0.5-0.2,0.7-0.2c0.3,0,0.6,0.1,0.8,0.2s0.3,0.3,0.4,0.6c0.1,0.2,0.1,0.5,0.1,0.8c0,0.4-0.1,0.7-0.2,0.9
				s-0.3,0.4-0.5,0.6C80.7,63.8,80.5,63.9,80.2,63.9z M80.3,63.3c0.2,0,0.4-0.1,0.5-0.3s0.2-0.4,0.2-0.7c0-0.3-0.1-0.6-0.2-0.8
				c-0.1-0.2-0.3-0.3-0.5-0.3c-0.2,0-0.4,0.1-0.5,0.3c-0.1,0.2-0.2,0.4-0.2,0.8c0,0.3,0.1,0.6,0.2,0.8
				C79.9,63.2,80.1,63.3,80.3,63.3z"/>
			<path class="st5" d="M82.9,57.2c0.1,0,0.2,0.1,0.3,0.3c0.1,0.1,0.3,0.3,0.4,0.5c0.2,0.2,0.3,0.5,0.4,0.8s0.3,0.7,0.4,1.1
				c0.1,0.4,0.1,0.9,0.1,1.4c0,0.5,0,0.9-0.1,1.3c-0.1,0.4-0.2,0.7-0.3,1.1c-0.1,0.3-0.3,0.6-0.4,0.8c-0.2,0.2-0.3,0.4-0.4,0.6
				c-0.1,0.1-0.2,0.2-0.3,0.3L82.3,65c0.1-0.1,0.2-0.2,0.3-0.4c0.1-0.2,0.3-0.4,0.5-0.7c0.2-0.3,0.3-0.7,0.4-1.1
				c0.1-0.4,0.2-0.9,0.2-1.5c0-0.5,0-0.9-0.1-1.3c-0.1-0.4-0.2-0.7-0.3-1c-0.1-0.3-0.2-0.5-0.4-0.8c-0.1-0.2-0.3-0.4-0.4-0.5
				c-0.1-0.1-0.2-0.2-0.3-0.3L82.9,57.2z"/>
			<path class="st5" d="M88.3,64.1c-0.3,0-0.6-0.1-0.8-0.2s-0.5-0.4-0.6-0.7c-0.2-0.3-0.2-0.7-0.2-1.2s0.1-0.9,0.3-1.3
				c0.2-0.4,0.4-0.7,0.7-0.9c0.3-0.2,0.7-0.3,1.1-0.3c0.3,0,0.5,0,0.7,0.1c0.2,0.1,0.3,0.1,0.3,0.2l-0.3,0.6
				c-0.1-0.1-0.2-0.1-0.3-0.1c-0.1,0-0.3,0-0.4,0c-0.2,0-0.4,0.1-0.6,0.2c-0.2,0.1-0.3,0.3-0.4,0.6s-0.2,0.6-0.2,0.9
				c0,0.5,0.1,0.9,0.3,1.1c0.2,0.2,0.4,0.4,0.8,0.4c0.2,0,0.4,0,0.5-0.1c0.2-0.1,0.3-0.2,0.4-0.2l0.1,0.5c-0.1,0.1-0.1,0.1-0.2,0.2
				c-0.1,0.1-0.2,0.2-0.4,0.3C88.8,64.1,88.6,64.1,88.3,64.1z M89.5,64.1v-0.6l0,0v-3.2l0,0l0-0.9v-1.8h0.9v6.5H89.5z"/>
			<path class="st5" d="M93.2,64.1c-0.3,0-0.6-0.1-0.9-0.2s-0.4-0.3-0.6-0.5c-0.1-0.2-0.3-0.5-0.3-0.8s-0.1-0.6-0.1-0.9
				c0-0.5,0.1-0.9,0.3-1.2c0.2-0.3,0.4-0.6,0.7-0.7c0.3-0.2,0.6-0.2,1-0.2c0.5,0,0.8,0.1,1.1,0.3c0.3,0.2,0.5,0.5,0.6,0.9
				c0.1,0.4,0.2,0.8,0.2,1.2c0,0.5-0.1,0.9-0.3,1.2c-0.2,0.3-0.4,0.6-0.7,0.7S93.6,64.1,93.2,64.1z M93.2,63.5
				c0.3,0,0.6-0.1,0.8-0.4c0.2-0.3,0.3-0.7,0.3-1.2c0-0.3,0-0.6-0.1-0.8s-0.2-0.5-0.3-0.6c-0.1-0.2-0.3-0.2-0.6-0.2
				c-0.3,0-0.6,0.1-0.8,0.4s-0.3,0.7-0.3,1.2c0,0.3,0,0.6,0.1,0.9s0.2,0.5,0.3,0.6S93,63.5,93.2,63.5z"/>
			<path class="st5" d="M95.9,63.8l0.1-0.7c0,0,0.1,0.1,0.2,0.1c0.1,0,0.3,0.1,0.4,0.1c0.2,0,0.3,0.1,0.5,0.1c0.2,0,0.4,0,0.6-0.1
				c0.1-0.1,0.2-0.2,0.2-0.4c0-0.1,0-0.2-0.1-0.3c-0.1-0.1-0.2-0.2-0.3-0.2s-0.3-0.2-0.5-0.2c-0.2-0.1-0.4-0.2-0.6-0.4
				c-0.2-0.1-0.3-0.3-0.4-0.5s-0.1-0.4-0.1-0.6c0-0.3,0.1-0.5,0.2-0.7c0.1-0.2,0.3-0.3,0.6-0.4s0.5-0.1,0.8-0.1c0.3,0,0.5,0,0.7,0.1
				c0.2,0.1,0.3,0.1,0.4,0.1l-0.1,0.7c0,0-0.1-0.1-0.2-0.1c-0.1,0-0.2-0.1-0.3-0.1s-0.2,0-0.4,0c-0.3,0-0.5,0-0.6,0.1
				c-0.1,0.1-0.2,0.2-0.2,0.3c0,0.2,0.1,0.3,0.2,0.4c0.1,0.1,0.3,0.2,0.5,0.3c0.3,0.1,0.5,0.3,0.7,0.4c0.2,0.1,0.4,0.3,0.5,0.4
				c0.1,0.2,0.2,0.4,0.2,0.6c0,0.4-0.1,0.7-0.4,0.9c-0.3,0.2-0.6,0.3-1.1,0.3c-0.2,0-0.4,0-0.6,0c-0.2,0-0.3-0.1-0.5-0.1
				S95.9,63.8,95.9,63.8z"/>
			<path class="st5" d="M102.3,64.1c-0.2,0-0.4,0-0.5-0.1c-0.2-0.1-0.3-0.2-0.4-0.4c-0.1-0.2-0.1-0.4-0.1-0.7v-2.7h-0.5v-0.5
				c0.2-0.1,0.3-0.1,0.4-0.1c0.1,0,0.2-0.1,0.2-0.2c0-0.1,0-0.1,0.1-0.2s0.1-0.2,0.1-0.3c0-0.1,0.1-0.2,0.1-0.3h0.5v1h1.2v0.7h-1.2
				v2.2c0,0.3,0,0.5,0,0.6c0,0.1,0.1,0.2,0.1,0.3c0.1,0,0.2,0.1,0.3,0.1c0.1,0,0.2,0,0.2,0c0.1,0,0.2,0,0.3-0.1
				c0.1,0,0.1-0.1,0.2-0.1l0.1,0.5c-0.1,0.1-0.2,0.1-0.3,0.2c-0.1,0.1-0.3,0.1-0.4,0.1S102.4,64.1,102.3,64.1z"/>
			<path class="st5" d="M104.2,64.1v-4.4h0.7l0.1,0.6l0.1,0.3v3.5H104.2z M105.1,60.8l-0.1-0.6c0-0.1,0.1-0.2,0.2-0.3
				c0.1-0.1,0.3-0.2,0.4-0.3s0.3-0.1,0.5-0.1c0.1,0,0.2,0,0.2,0c0.1,0,0.1,0,0.2,0v0.9c0,0-0.1,0-0.2-0.1s-0.2,0-0.4,0
				c-0.2,0-0.3,0-0.4,0.1c-0.1,0-0.2,0.1-0.3,0.2C105.2,60.7,105.1,60.7,105.1,60.8z"/>
			<path class="st5" d="M108.2,64.1c-0.3,0-0.5-0.1-0.7-0.2s-0.3-0.3-0.5-0.4s-0.2-0.4-0.2-0.7c0-0.3,0.1-0.5,0.2-0.7
				s0.3-0.4,0.6-0.5c0.2-0.1,0.3-0.1,0.5-0.2c0.2,0,0.4-0.1,0.6-0.1c0.2,0,0.4,0,0.5,0l0.2,0.2l-0.2,0.3c-0.1,0-0.2,0-0.4,0
				c-0.1,0-0.3,0-0.4,0.1s-0.2,0.1-0.3,0.1c-0.1,0.1-0.2,0.1-0.3,0.2c-0.1,0.1-0.1,0.2-0.1,0.4c0,0.2,0.1,0.4,0.2,0.5
				c0.1,0.1,0.3,0.2,0.5,0.2c0.1,0,0.2,0,0.4-0.1c0.1,0,0.2-0.1,0.3-0.1c0.1,0,0.1-0.1,0.2-0.1l0.2,0.2l-0.1,0.3
				c-0.1,0.1-0.3,0.2-0.5,0.3S108.5,64.1,108.2,64.1z M110.2,64.1h-0.8v-0.7h0v-2.5c0-0.3-0.1-0.4-0.2-0.5s-0.3-0.1-0.6-0.1
				c-0.2,0-0.3,0-0.5,0c-0.2,0-0.3,0.1-0.5,0.1c-0.1,0-0.2,0.1-0.3,0.2l-0.2-0.7c0.1,0,0.2-0.1,0.3-0.2c0.2-0.1,0.4-0.1,0.6-0.2
				c0.2-0.1,0.4-0.1,0.7-0.1c0.3,0,0.6,0,0.8,0.1c0.2,0.1,0.4,0.2,0.5,0.4c0.1,0.2,0.2,0.5,0.2,0.9V64.1z"/>
			<path class="st5" d="M111.4,64.1v-4.4h0.8l0,0.5c0.1-0.1,0.2-0.2,0.4-0.2s0.3-0.2,0.5-0.2s0.4-0.1,0.5-0.1c0.5,0,0.8,0.1,1,0.4
				c0.2,0.3,0.3,0.7,0.3,1.4v2.8h-0.9v-2.7c0-0.4,0-0.6-0.1-0.8c-0.1-0.2-0.3-0.2-0.6-0.2c-0.1,0-0.2,0-0.3,0
				c-0.1,0-0.2,0.1-0.4,0.1c-0.1,0.1-0.2,0.1-0.3,0.2v3.4H111.4z"/>
			<path class="st5" d="M115.9,63.8l0.1-0.7c0,0,0.1,0.1,0.2,0.1c0.1,0,0.3,0.1,0.4,0.1c0.2,0,0.3,0.1,0.5,0.1c0.2,0,0.4,0,0.6-0.1
				c0.1-0.1,0.2-0.2,0.2-0.4c0-0.1,0-0.2-0.1-0.3c-0.1-0.1-0.2-0.2-0.3-0.2c-0.1-0.1-0.3-0.2-0.5-0.2c-0.2-0.1-0.4-0.2-0.6-0.4
				c-0.2-0.1-0.3-0.3-0.4-0.5c-0.1-0.2-0.1-0.4-0.1-0.6c0-0.3,0.1-0.5,0.2-0.7c0.1-0.2,0.3-0.3,0.6-0.4c0.2-0.1,0.5-0.1,0.8-0.1
				c0.3,0,0.5,0,0.7,0.1c0.2,0.1,0.3,0.1,0.4,0.1l-0.1,0.7c0,0-0.1-0.1-0.2-0.1c-0.1,0-0.2-0.1-0.3-0.1c-0.1,0-0.2,0-0.4,0
				c-0.3,0-0.5,0-0.6,0.1s-0.2,0.2-0.2,0.3c0,0.2,0.1,0.3,0.2,0.4c0.1,0.1,0.3,0.2,0.5,0.3c0.3,0.1,0.5,0.3,0.7,0.4
				c0.2,0.1,0.4,0.3,0.5,0.4c0.1,0.2,0.2,0.4,0.2,0.6c0,0.4-0.1,0.7-0.4,0.9c-0.3,0.2-0.6,0.3-1.1,0.3c-0.2,0-0.4,0-0.6,0
				c-0.2,0-0.3-0.1-0.5-0.1S116,63.8,115.9,63.8z"/>
			<path class="st5" d="M121,64.1c-0.2,0-0.4,0-0.5-0.1c-0.2-0.1-0.3-0.2-0.4-0.4c-0.1-0.2-0.1-0.4-0.1-0.7v-2.7h-0.5v-0.5
				c0.2-0.1,0.3-0.1,0.4-0.1c0.1,0,0.2-0.1,0.2-0.2c0-0.1,0-0.1,0.1-0.2s0.1-0.2,0.1-0.3c0-0.1,0.1-0.2,0.1-0.3h0.5v1h1.2v0.7h-1.2
				v2.2c0,0.3,0,0.5,0,0.6c0,0.1,0.1,0.2,0.1,0.3c0.1,0,0.2,0.1,0.3,0.1c0.1,0,0.2,0,0.2,0c0.1,0,0.2,0,0.3-0.1
				c0.1,0,0.1-0.1,0.2-0.1l0.1,0.5c-0.1,0.1-0.2,0.1-0.3,0.2c-0.1,0.1-0.3,0.1-0.4,0.1S121.1,64.1,121,64.1z"/>
			<path class="st5" d="M124.6,64.1c-0.3,0-0.6-0.1-0.9-0.2s-0.4-0.3-0.6-0.5c-0.1-0.2-0.3-0.5-0.3-0.8s-0.1-0.6-0.1-0.9
				c0-0.5,0.1-0.9,0.3-1.2c0.2-0.3,0.4-0.6,0.7-0.7c0.3-0.2,0.6-0.2,1-0.2c0.5,0,0.8,0.1,1.1,0.3c0.3,0.2,0.5,0.5,0.6,0.9
				c0.1,0.4,0.2,0.8,0.2,1.2c0,0.5-0.1,0.9-0.3,1.2c-0.2,0.3-0.4,0.6-0.7,0.7S125,64.1,124.6,64.1z M124.6,63.5
				c0.3,0,0.6-0.1,0.8-0.4c0.2-0.3,0.3-0.7,0.3-1.2c0-0.3,0-0.6-0.1-0.8s-0.2-0.5-0.3-0.6c-0.1-0.2-0.3-0.2-0.6-0.2
				c-0.3,0-0.6,0.1-0.8,0.4s-0.3,0.7-0.3,1.2c0,0.3,0,0.6,0.1,0.9s0.2,0.5,0.3,0.6S124.4,63.5,124.6,63.5z"/>
			<path class="st5" d="M127.5,64.1v-4.4h0.7l0.1,0.6l0.1,0.3v3.5H127.5z M128.3,60.8l-0.1-0.6c0-0.1,0.1-0.2,0.2-0.3
				s0.3-0.2,0.4-0.3s0.3-0.1,0.5-0.1c0.1,0,0.2,0,0.2,0s0.1,0,0.2,0v0.9c0,0-0.1,0-0.2-0.1c-0.1,0-0.2,0-0.4,0c-0.2,0-0.3,0-0.4,0.1
				c-0.1,0-0.2,0.1-0.3,0.2C128.4,60.7,128.4,60.7,128.3,60.8z"/>
			<path class="st5" d="M130.6,64.1v-4.4h0.8l0,0.5c0.1-0.1,0.2-0.2,0.4-0.2c0.2-0.1,0.3-0.2,0.5-0.2s0.4-0.1,0.5-0.1
				c0.5,0,0.8,0.1,1,0.4s0.3,0.7,0.3,1.4v2.8h-0.9v-2.7c0-0.4,0-0.6-0.1-0.8c-0.1-0.2-0.3-0.2-0.6-0.2c-0.1,0-0.2,0-0.3,0
				c-0.1,0-0.2,0.1-0.4,0.1c-0.1,0.1-0.2,0.1-0.3,0.2v3.4H130.6z"/>
			<path class="st5" d="M136.9,64.1c-0.3,0-0.6-0.1-0.9-0.2s-0.4-0.3-0.6-0.5c-0.1-0.2-0.3-0.5-0.3-0.8c-0.1-0.3-0.1-0.6-0.1-0.9
				c0-0.5,0.1-0.9,0.3-1.2c0.2-0.3,0.4-0.6,0.7-0.7c0.3-0.2,0.6-0.2,1-0.2c0.5,0,0.8,0.1,1.1,0.3c0.3,0.2,0.5,0.5,0.6,0.9
				s0.2,0.8,0.2,1.2c0,0.5-0.1,0.9-0.3,1.2c-0.2,0.3-0.4,0.6-0.7,0.7S137.3,64.1,136.9,64.1z M137,63.5c0.3,0,0.6-0.1,0.8-0.4
				s0.3-0.7,0.3-1.2c0-0.3,0-0.6-0.1-0.8c-0.1-0.3-0.2-0.5-0.3-0.6c-0.2-0.2-0.3-0.2-0.6-0.2c-0.3,0-0.6,0.1-0.8,0.4
				s-0.3,0.7-0.3,1.2c0,0.3,0,0.6,0.1,0.9s0.2,0.5,0.3,0.6S136.7,63.5,137,63.5z"/>
			<path class="st5" d="M139.6,63.8l0.1-0.7c0,0,0.1,0.1,0.2,0.1c0.1,0,0.3,0.1,0.4,0.1c0.2,0,0.3,0.1,0.5,0.1c0.2,0,0.4,0,0.6-0.1
				c0.1-0.1,0.2-0.2,0.2-0.4c0-0.1,0-0.2-0.1-0.3c-0.1-0.1-0.2-0.2-0.3-0.2c-0.1-0.1-0.3-0.2-0.5-0.2c-0.2-0.1-0.4-0.2-0.6-0.4
				c-0.2-0.1-0.3-0.3-0.4-0.5c-0.1-0.2-0.1-0.4-0.1-0.6c0-0.3,0.1-0.5,0.2-0.7c0.1-0.2,0.3-0.3,0.6-0.4c0.2-0.1,0.5-0.1,0.8-0.1
				c0.3,0,0.5,0,0.7,0.1c0.2,0.1,0.3,0.1,0.4,0.1l-0.1,0.7c0,0-0.1-0.1-0.2-0.1c-0.1,0-0.2-0.1-0.3-0.1c-0.1,0-0.2,0-0.4,0
				c-0.3,0-0.5,0-0.6,0.1s-0.2,0.2-0.2,0.3c0,0.2,0.1,0.3,0.2,0.4c0.1,0.1,0.3,0.2,0.5,0.3c0.3,0.1,0.5,0.3,0.7,0.4
				c0.2,0.1,0.4,0.3,0.5,0.4c0.1,0.2,0.2,0.4,0.2,0.6c0,0.4-0.1,0.7-0.4,0.9c-0.3,0.2-0.6,0.3-1.1,0.3c-0.2,0-0.4,0-0.6,0
				c-0.2,0-0.3-0.1-0.5-0.1S139.7,63.8,139.6,63.8z"/>
			<path class="st5" d="M144.8,66v-6.4h0.8v0.5l0.1,0.1v3.4l0,0.2l0,0.7V66H144.8z M146.4,64.1c-0.3,0-0.5,0-0.6-0.1
				s-0.3-0.1-0.3-0.2l0.3-0.6c0.1,0.1,0.2,0.1,0.3,0.2c0.1,0,0.3,0,0.4,0c0.2,0,0.4-0.1,0.6-0.2s0.3-0.3,0.4-0.6
				c0.1-0.2,0.2-0.6,0.2-0.9c0-0.5-0.1-0.9-0.3-1.2c-0.2-0.2-0.4-0.4-0.8-0.4c-0.2,0-0.4,0-0.5,0.1c-0.2,0.1-0.3,0.2-0.4,0.2
				l-0.1-0.5c0.1-0.1,0.1-0.1,0.2-0.2c0.1-0.1,0.2-0.2,0.4-0.3c0.2-0.1,0.4-0.1,0.6-0.1c0.3,0,0.6,0.1,0.8,0.2s0.5,0.4,0.6,0.7
				c0.2,0.3,0.2,0.7,0.2,1.2c0,0.5-0.1,0.9-0.3,1.3c-0.2,0.4-0.4,0.7-0.7,0.9C147.2,64,146.8,64.1,146.4,64.1z"/>
			<path class="st5" d="M151.1,64.1c-0.3,0-0.6-0.1-0.9-0.2s-0.4-0.3-0.6-0.5c-0.1-0.2-0.3-0.5-0.3-0.8s-0.1-0.6-0.1-0.9
				c0-0.5,0.1-0.9,0.3-1.2c0.2-0.3,0.4-0.6,0.7-0.7c0.3-0.2,0.6-0.2,1-0.2c0.5,0,0.8,0.1,1.1,0.3c0.3,0.2,0.5,0.5,0.6,0.9
				c0.1,0.4,0.2,0.8,0.2,1.2c0,0.5-0.1,0.9-0.3,1.2c-0.2,0.3-0.4,0.6-0.7,0.7S151.4,64.1,151.1,64.1z M151.1,63.5
				c0.3,0,0.6-0.1,0.8-0.4c0.2-0.3,0.3-0.7,0.3-1.2c0-0.3,0-0.6-0.1-0.8s-0.2-0.5-0.3-0.6c-0.1-0.2-0.3-0.2-0.6-0.2
				c-0.3,0-0.6,0.1-0.8,0.4s-0.3,0.7-0.3,1.2c0,0.3,0,0.6,0.1,0.9s0.2,0.5,0.3,0.6S150.9,63.5,151.1,63.5z"/>
			<path class="st5" d="M153.9,64.1v-4.4h0.7l0.1,0.6l0.1,0.3v3.5H153.9z M154.8,60.8l-0.1-0.6c0-0.1,0.1-0.2,0.2-0.3
				s0.3-0.2,0.4-0.3s0.3-0.1,0.5-0.1c0.1,0,0.2,0,0.2,0s0.1,0,0.2,0v0.9c0,0-0.1,0-0.2-0.1c-0.1,0-0.2,0-0.4,0c-0.2,0-0.3,0-0.4,0.1
				c-0.1,0-0.2,0.1-0.3,0.2C154.9,60.7,154.8,60.7,154.8,60.8z"/>
			<path class="st5" d="M159.6,64.1c-0.3,0-0.5,0-0.7-0.1c-0.2-0.1-0.3-0.2-0.4-0.4c-0.1-0.2-0.1-0.4-0.2-0.6s0-0.5,0-0.8v-2.6h0.9
				v2.6c0,0.4,0,0.6,0.1,0.8c0.1,0.2,0.1,0.3,0.2,0.3c0.1,0,0.3,0.1,0.4,0.1c0.1,0,0.2,0,0.3-0.1s0.2-0.1,0.3-0.1
				c0.1,0,0.2-0.1,0.2-0.1v-3.5h0.9v4.5h-0.4c-0.1,0-0.2,0-0.3-0.1c-0.1,0-0.1-0.1-0.1-0.3v-0.3l0,0.2c-0.1,0.1-0.2,0.2-0.4,0.2
				s-0.3,0.1-0.5,0.2C159.9,64.1,159.8,64.1,159.6,64.1z"/>
			<path class="st5" d="M162.8,63.8l0.1-0.7c0,0,0.1,0.1,0.2,0.1c0.1,0,0.3,0.1,0.4,0.1c0.2,0,0.3,0.1,0.5,0.1c0.2,0,0.4,0,0.6-0.1
				c0.1-0.1,0.2-0.2,0.2-0.4c0-0.1,0-0.2-0.1-0.3c-0.1-0.1-0.2-0.2-0.3-0.2c-0.1-0.1-0.3-0.2-0.5-0.2c-0.2-0.1-0.4-0.2-0.6-0.4
				c-0.2-0.1-0.3-0.3-0.4-0.5c-0.1-0.2-0.1-0.4-0.1-0.6c0-0.3,0.1-0.5,0.2-0.7c0.1-0.2,0.3-0.3,0.6-0.4c0.2-0.1,0.5-0.1,0.8-0.1
				c0.3,0,0.5,0,0.7,0.1c0.2,0.1,0.3,0.1,0.4,0.1l-0.1,0.7c0,0-0.1-0.1-0.2-0.1c-0.1,0-0.2-0.1-0.3-0.1c-0.1,0-0.2,0-0.4,0
				c-0.3,0-0.5,0-0.6,0.1s-0.2,0.2-0.2,0.3c0,0.2,0.1,0.3,0.2,0.4c0.1,0.1,0.3,0.2,0.5,0.3c0.3,0.1,0.5,0.3,0.7,0.4
				c0.2,0.1,0.4,0.3,0.5,0.4c0.1,0.2,0.2,0.4,0.2,0.6c0,0.4-0.1,0.7-0.4,0.9c-0.3,0.2-0.6,0.3-1.1,0.3c-0.2,0-0.4,0-0.6,0
				c-0.2,0-0.3-0.1-0.5-0.1S162.8,63.8,162.8,63.8z"/>
			<path class="st5" d="M168.2,64.1c-0.3,0-0.6-0.1-0.9-0.2s-0.4-0.3-0.6-0.5c-0.1-0.2-0.3-0.5-0.3-0.8c-0.1-0.3-0.1-0.6-0.1-0.9
				c0-0.5,0.1-0.9,0.3-1.2c0.2-0.3,0.4-0.6,0.7-0.7c0.3-0.2,0.6-0.2,1-0.2c0.5,0,0.8,0.1,1.1,0.3c0.3,0.2,0.5,0.5,0.6,0.9
				s0.2,0.8,0.2,1.2c0,0.5-0.1,0.9-0.3,1.2c-0.2,0.3-0.4,0.6-0.7,0.7S168.6,64.1,168.2,64.1z M168.2,63.5c0.3,0,0.6-0.1,0.8-0.4
				s0.3-0.7,0.3-1.2c0-0.3,0-0.6-0.1-0.8c-0.1-0.3-0.2-0.5-0.3-0.6c-0.2-0.2-0.3-0.2-0.6-0.2c-0.3,0-0.6,0.1-0.8,0.4
				s-0.3,0.7-0.3,1.2c0,0.3,0,0.6,0.1,0.9s0.2,0.5,0.3,0.6S168,63.5,168.2,63.5z"/>
			<path class="st5" d="M173.9,64.1c-0.3,0-0.6-0.1-0.8-0.2s-0.5-0.4-0.6-0.7c-0.2-0.3-0.2-0.7-0.2-1.2s0.1-0.9,0.3-1.3
				c0.2-0.4,0.4-0.7,0.7-0.9c0.3-0.2,0.7-0.3,1.1-0.3c0.3,0,0.5,0,0.7,0.1c0.2,0.1,0.3,0.1,0.3,0.2l-0.3,0.6
				c-0.1-0.1-0.2-0.1-0.3-0.1c-0.1,0-0.3,0-0.4,0c-0.2,0-0.4,0.1-0.6,0.2s-0.3,0.3-0.4,0.6c-0.1,0.2-0.2,0.6-0.2,0.9
				c0,0.5,0.1,0.9,0.3,1.1c0.2,0.2,0.4,0.4,0.8,0.4c0.2,0,0.4,0,0.5-0.1c0.2-0.1,0.3-0.2,0.4-0.2l0.1,0.5c-0.1,0.1-0.1,0.1-0.2,0.2
				c-0.1,0.1-0.2,0.2-0.4,0.3S174.1,64.1,173.9,64.1z M175.1,64.1v-0.6l0,0v-3.2l0,0l0-0.9v-1.8h0.9v6.5H175.1z"/>
			<path class="st5" d="M178.8,64.1c-0.6,0-1.1-0.2-1.4-0.6s-0.5-1-0.5-1.7c0-0.4,0.1-0.8,0.2-1.2c0.1-0.3,0.4-0.6,0.6-0.8
				c0.3-0.2,0.6-0.3,1-0.3c0.2,0,0.4,0,0.6,0.1s0.4,0.2,0.5,0.3c0.1,0.1,0.3,0.3,0.3,0.5c0.1,0.2,0.1,0.5,0.1,0.7c0,0.2,0,0.3,0,0.5
				c0,0.1,0,0.2,0,0.4h-2.9l0.1-0.6h2.1c0-0.2,0-0.4,0-0.6s-0.1-0.3-0.2-0.5c-0.1-0.1-0.3-0.2-0.5-0.2c-0.2,0-0.4,0.1-0.5,0.2
				c-0.2,0.1-0.3,0.3-0.4,0.6c-0.1,0.3-0.1,0.7-0.1,1.1c0,0.3,0.1,0.6,0.2,0.8c0.1,0.2,0.3,0.3,0.4,0.4c0.2,0.1,0.4,0.1,0.6,0.1
				c0.1,0,0.2,0,0.4,0c0.1,0,0.3-0.1,0.4-0.1c0.1,0,0.2-0.1,0.3-0.1l0.2,0.5c-0.1,0.1-0.2,0.2-0.4,0.2c-0.2,0.1-0.3,0.1-0.5,0.1
				C179.1,64.1,178.9,64.1,178.8,64.1z"/>
			<path class="st5" d="M30.4,73.7c-0.3,0-0.5-0.1-0.7-0.2s-0.3-0.3-0.5-0.4s-0.2-0.4-0.2-0.7c0-0.3,0.1-0.5,0.2-0.7
				c0.1-0.2,0.3-0.4,0.6-0.5c0.2-0.1,0.3-0.1,0.5-0.2c0.2,0,0.4-0.1,0.6-0.1c0.2,0,0.4,0,0.5,0l0.2,0.2l-0.2,0.3c-0.1,0-0.2,0-0.4,0
				c-0.1,0-0.3,0-0.4,0.1c-0.1,0-0.2,0.1-0.3,0.1c-0.1,0.1-0.2,0.1-0.3,0.2S30,72.2,30,72.4c0,0.2,0.1,0.4,0.2,0.5
				c0.1,0.1,0.3,0.2,0.5,0.2c0.1,0,0.2,0,0.4-0.1c0.1,0,0.2-0.1,0.3-0.1c0.1,0,0.1-0.1,0.2-0.1l0.2,0.2l-0.1,0.3
				c-0.1,0.1-0.3,0.2-0.5,0.3C30.9,73.7,30.7,73.7,30.4,73.7z M32.4,73.7h-0.8V73h0v-2.5c0-0.3-0.1-0.4-0.2-0.5s-0.3-0.1-0.6-0.1
				c-0.2,0-0.3,0-0.5,0.1c-0.2,0-0.3,0.1-0.5,0.1c-0.1,0-0.2,0.1-0.3,0.2l-0.2-0.7c0.1,0,0.2-0.1,0.3-0.2c0.2-0.1,0.4-0.1,0.6-0.2
				c0.2-0.1,0.4-0.1,0.7-0.1c0.3,0,0.6,0,0.8,0.1c0.2,0.1,0.4,0.2,0.5,0.4c0.1,0.2,0.2,0.5,0.2,0.9V73.7z M30.6,68.6l-0.4-0.3
				c0.1-0.2,0.3-0.3,0.4-0.5c0.1-0.2,0.3-0.4,0.4-0.6c0.1-0.2,0.3-0.4,0.4-0.6l0.6,0.5c0,0.1-0.1,0.2-0.2,0.3
				c-0.1,0.1-0.2,0.2-0.3,0.4c-0.1,0.1-0.2,0.3-0.4,0.4s-0.2,0.2-0.3,0.3C30.7,68.6,30.7,68.6,30.6,68.6z"/>
			<path class="st5" d="M33.7,73.7v-6.5h0.9v6.5H33.7z"/>
			<path class="st5" d="M35.5,71.5c0-0.4,0.1-0.8,0.2-1.2c0.2-0.4,0.4-0.6,0.7-0.8c0.3-0.2,0.7-0.3,1.1-0.3c0.3,0,0.5,0,0.7,0.1
				c0.2,0.1,0.3,0.1,0.4,0.1l-0.1,0.7c-0.1-0.1-0.2-0.1-0.4-0.2c-0.1,0-0.3-0.1-0.5-0.1c-0.2,0-0.4,0-0.5,0.1
				c-0.2,0.1-0.3,0.3-0.4,0.5s-0.2,0.5-0.2,0.8c0,0.4,0,0.7,0.1,0.9c0.1,0.3,0.2,0.4,0.4,0.6c0.2,0.1,0.4,0.2,0.6,0.2
				c0.2,0,0.4,0,0.6-0.1s0.3-0.1,0.4-0.2l0.2,0.5c-0.1,0.1-0.3,0.2-0.5,0.3c-0.2,0.1-0.5,0.1-0.7,0.1c-0.4,0-0.7-0.1-1-0.3
				c-0.3-0.2-0.5-0.5-0.6-0.8C35.6,72.3,35.5,71.9,35.5,71.5z"/>
			<path class="st5" d="M41.1,73.7c-0.3,0-0.6-0.1-0.9-0.2c-0.2-0.1-0.4-0.3-0.6-0.5c-0.1-0.2-0.3-0.5-0.3-0.8
				c-0.1-0.3-0.1-0.6-0.1-0.9c0-0.5,0.1-0.9,0.3-1.2c0.2-0.3,0.4-0.6,0.7-0.7c0.3-0.2,0.6-0.2,1-0.2c0.5,0,0.8,0.1,1.1,0.3
				c0.3,0.2,0.5,0.5,0.6,0.9s0.2,0.8,0.2,1.2c0,0.5-0.1,0.9-0.3,1.2s-0.4,0.6-0.7,0.7S41.5,73.7,41.1,73.7z M41.2,73.1
				c0.3,0,0.6-0.1,0.8-0.4s0.3-0.7,0.3-1.2c0-0.3,0-0.6-0.1-0.8c-0.1-0.3-0.2-0.5-0.3-0.6c-0.2-0.2-0.3-0.2-0.6-0.2
				c-0.3,0-0.6,0.1-0.8,0.4s-0.3,0.7-0.3,1.2c0,0.3,0,0.6,0.1,0.9c0.1,0.3,0.2,0.5,0.3,0.6C40.7,73,40.9,73.1,41.2,73.1z"/>
			<path class="st5" d="M45.6,73.7c-0.3,0-0.6-0.1-0.9-0.2c-0.2-0.1-0.4-0.3-0.6-0.5c-0.1-0.2-0.3-0.5-0.3-0.8
				c-0.1-0.3-0.1-0.6-0.1-0.9c0-0.5,0.1-0.9,0.3-1.2c0.2-0.3,0.4-0.6,0.7-0.7c0.3-0.2,0.6-0.2,1-0.2c0.5,0,0.8,0.1,1.1,0.3
				c0.3,0.2,0.5,0.5,0.6,0.9s0.2,0.8,0.2,1.2c0,0.5-0.1,0.9-0.3,1.2s-0.4,0.6-0.7,0.7S46,73.7,45.6,73.7z M45.6,73.1
				c0.3,0,0.6-0.1,0.8-0.4s0.3-0.7,0.3-1.2c0-0.3,0-0.6-0.1-0.8c-0.1-0.3-0.2-0.5-0.3-0.6c-0.2-0.2-0.3-0.2-0.6-0.2
				c-0.3,0-0.6,0.1-0.8,0.4s-0.3,0.7-0.3,1.2c0,0.3,0,0.6,0.1,0.9c0.1,0.3,0.2,0.5,0.3,0.6C45.2,73,45.4,73.1,45.6,73.1z"/>
			<path class="st5" d="M48.6,73.7v-6.5h0.9v6.5H48.6z"/>
			<path class="st5" d="M50.7,75.3L50.7,75.3c0.1-0.2,0.2-0.3,0.3-0.5s0.1-0.4,0.1-0.6c0-0.1,0-0.2-0.1-0.3s-0.1-0.2-0.2-0.3
				c-0.1-0.1-0.1-0.1-0.2-0.1v-0.3l0.6-0.5c0.2,0.1,0.3,0.2,0.4,0.3c0.1,0.1,0.2,0.3,0.2,0.5c0,0.2,0.1,0.3,0.1,0.5
				c0,0.3,0,0.5-0.1,0.8s-0.2,0.4-0.4,0.6c-0.1,0.2-0.3,0.3-0.5,0.4L50.7,75.3z"/>
			<path class="st5" d="M54.4,75.6v-6.4h0.8v0.5l0.1,0.1v3.4l0,0.2l0,0.7v1.4H54.4z M55.9,73.7c-0.3,0-0.5,0-0.6-0.1
				c-0.2-0.1-0.3-0.1-0.3-0.2l0.3-0.6c0.1,0.1,0.2,0.1,0.3,0.2c0.1,0,0.3,0,0.4,0c0.2,0,0.4-0.1,0.6-0.2c0.2-0.1,0.3-0.3,0.4-0.6
				c0.1-0.2,0.2-0.6,0.2-0.9c0-0.5-0.1-0.9-0.3-1.2s-0.4-0.4-0.8-0.4c-0.2,0-0.4,0-0.5,0.1s-0.3,0.2-0.4,0.2l-0.1-0.5
				c0.1-0.1,0.1-0.1,0.2-0.2c0.1-0.1,0.2-0.2,0.4-0.3c0.2-0.1,0.4-0.1,0.6-0.1c0.3,0,0.6,0.1,0.8,0.2c0.3,0.2,0.5,0.4,0.6,0.7
				c0.2,0.3,0.2,0.7,0.2,1.2c0,0.5-0.1,0.9-0.3,1.3s-0.4,0.7-0.7,0.9C56.7,73.6,56.4,73.7,55.9,73.7z"/>
			<path class="st5" d="M60.6,73.7c-0.3,0-0.6-0.1-0.9-0.2c-0.2-0.1-0.4-0.3-0.6-0.5s-0.3-0.5-0.3-0.8c-0.1-0.3-0.1-0.6-0.1-0.9
				c0-0.5,0.1-0.9,0.3-1.2c0.2-0.3,0.4-0.6,0.7-0.7c0.3-0.2,0.6-0.2,1-0.2c0.5,0,0.8,0.1,1.1,0.3c0.3,0.2,0.5,0.5,0.6,0.9
				c0.1,0.4,0.2,0.8,0.2,1.2c0,0.5-0.1,0.9-0.3,1.2s-0.4,0.6-0.7,0.7S61,73.7,60.6,73.7z M60.6,73.1c0.3,0,0.6-0.1,0.8-0.4
				c0.2-0.3,0.3-0.7,0.3-1.2c0-0.3,0-0.6-0.1-0.8s-0.2-0.5-0.3-0.6c-0.1-0.2-0.3-0.2-0.6-0.2c-0.3,0-0.6,0.1-0.8,0.4
				s-0.3,0.7-0.3,1.2c0,0.3,0,0.6,0.1,0.9c0.1,0.3,0.2,0.5,0.3,0.6C60.2,73,60.4,73.1,60.6,73.1z"/>
			<path class="st5" d="M63.5,73.7v-4.4h0.7l0.1,0.6l0.1,0.3v3.5H63.5z M64.3,70.4l-0.1-0.6c0-0.1,0.1-0.2,0.2-0.3
				c0.1-0.1,0.3-0.2,0.4-0.3c0.2-0.1,0.3-0.1,0.5-0.1c0.1,0,0.2,0,0.2,0s0.1,0,0.2,0v0.9c0,0-0.1,0-0.2-0.1c-0.1,0-0.2,0-0.4,0
				c-0.2,0-0.3,0-0.4,0.1c-0.1,0-0.2,0.1-0.3,0.2C64.5,70.3,64.4,70.3,64.3,70.4z"/>
			<path class="st5" d="M67.7,73.4l0.1-0.7c0,0,0.1,0.1,0.2,0.1c0.1,0,0.3,0.1,0.4,0.1c0.2,0,0.3,0.1,0.5,0.1c0.2,0,0.4,0,0.6-0.1
				c0.1-0.1,0.2-0.2,0.2-0.4c0-0.1,0-0.2-0.1-0.3c-0.1-0.1-0.2-0.2-0.3-0.2c-0.1-0.1-0.3-0.2-0.5-0.2c-0.2-0.1-0.4-0.2-0.6-0.4
				c-0.2-0.1-0.3-0.3-0.4-0.5c-0.1-0.2-0.1-0.4-0.1-0.6c0-0.3,0.1-0.5,0.2-0.7c0.1-0.2,0.3-0.3,0.6-0.4c0.2-0.1,0.5-0.1,0.8-0.1
				c0.3,0,0.5,0,0.7,0.1c0.2,0.1,0.3,0.1,0.4,0.1l-0.1,0.7c0,0-0.1-0.1-0.2-0.1c-0.1,0-0.2-0.1-0.3-0.1c-0.1,0-0.2,0-0.4,0
				c-0.3,0-0.5,0-0.6,0.1c-0.1,0.1-0.2,0.2-0.2,0.3c0,0.2,0.1,0.3,0.2,0.4c0.1,0.1,0.3,0.2,0.5,0.3c0.3,0.1,0.5,0.3,0.7,0.4
				s0.4,0.3,0.5,0.4c0.1,0.2,0.2,0.4,0.2,0.6c0,0.4-0.1,0.7-0.4,0.9c-0.3,0.2-0.6,0.3-1.1,0.3c-0.2,0-0.4,0-0.6,0s-0.3-0.1-0.5-0.1
				S67.8,73.5,67.7,73.4z"/>
			<path class="st5" d="M73.2,73.7c-0.6,0-1.1-0.2-1.4-0.6c-0.3-0.4-0.5-1-0.5-1.7c0-0.4,0.1-0.8,0.2-1.2c0.1-0.3,0.4-0.6,0.6-0.8
				c0.3-0.2,0.6-0.3,1-0.3c0.2,0,0.4,0,0.6,0.1c0.2,0.1,0.4,0.2,0.5,0.3s0.3,0.3,0.3,0.5s0.1,0.5,0.1,0.7c0,0.2,0,0.3,0,0.5
				c0,0.1,0,0.2,0,0.3h-2.9l0.1-0.6H74c0-0.2,0-0.4,0-0.6c0-0.2-0.1-0.3-0.2-0.5c-0.1-0.1-0.3-0.2-0.5-0.2c-0.2,0-0.4,0.1-0.5,0.2
				c-0.2,0.1-0.3,0.3-0.4,0.6c-0.1,0.3-0.1,0.7-0.1,1.1c0,0.3,0.1,0.6,0.2,0.8c0.1,0.2,0.3,0.3,0.4,0.4C73,73,73.2,73,73.4,73
				c0.1,0,0.2,0,0.4,0c0.1,0,0.3-0.1,0.4-0.1c0.1,0,0.2-0.1,0.3-0.1l0.2,0.5c-0.1,0.1-0.2,0.2-0.4,0.2c-0.2,0.1-0.3,0.1-0.5,0.1
				C73.6,73.7,73.4,73.7,73.2,73.7z"/>
			<path class="st5" d="M75.2,73.7l1.6-2.4l0,0.3l-1.6-2.3h1l0.9,1.4l0.3,0.5H77l0.2-0.5l0.9-1.4h1l-1.6,2.3v-0.3l1.6,2.4h-1
				l-0.9-1.4l-0.3-0.5h0.3L77,72.2l-0.8,1.4H75.2z"/>
			<path class="st5" d="M81.4,73.7c-0.3,0-0.6-0.1-0.9-0.2c-0.2-0.1-0.4-0.3-0.6-0.5s-0.3-0.5-0.3-0.8c-0.1-0.3-0.1-0.6-0.1-0.9
				c0-0.5,0.1-0.9,0.3-1.2c0.2-0.3,0.4-0.6,0.7-0.7c0.3-0.2,0.6-0.2,1-0.2c0.5,0,0.8,0.1,1.1,0.3c0.3,0.2,0.5,0.5,0.6,0.9
				c0.1,0.4,0.2,0.8,0.2,1.2c0,0.5-0.1,0.9-0.3,1.2s-0.4,0.6-0.7,0.7S81.7,73.7,81.4,73.7z M81.4,73.1c0.3,0,0.6-0.1,0.8-0.4
				c0.2-0.3,0.3-0.7,0.3-1.2c0-0.3,0-0.6-0.1-0.8S82.1,70.2,82,70c-0.1-0.2-0.3-0.2-0.6-0.2c-0.3,0-0.6,0.1-0.8,0.4
				s-0.3,0.7-0.3,1.2c0,0.3,0,0.6,0.1,0.9c0.1,0.3,0.2,0.5,0.3,0.6C81,73,81.1,73.1,81.4,73.1z"/>
			<path class="st5" d="M84.1,75.3L84.1,75.3c0.1-0.2,0.2-0.3,0.3-0.5s0.1-0.4,0.1-0.6c0-0.1,0-0.2-0.1-0.3s-0.1-0.2-0.2-0.3
				c-0.1-0.1-0.1-0.1-0.2-0.1v-0.3l0.6-0.5c0.2,0.1,0.3,0.2,0.4,0.3c0.1,0.1,0.2,0.3,0.2,0.5c0,0.2,0.1,0.3,0.1,0.5
				c0,0.3,0,0.5-0.1,0.8s-0.2,0.4-0.4,0.6c-0.1,0.2-0.3,0.3-0.5,0.4L84.1,75.3z"/>
			<path class="st5" d="M87.8,75.6v-6.4h0.8v0.5l0.1,0.1v3.4l0,0.2l0,0.7v1.4H87.8z M89.3,73.7c-0.3,0-0.5,0-0.6-0.1
				c-0.2-0.1-0.3-0.1-0.3-0.2l0.3-0.6c0.1,0.1,0.2,0.1,0.3,0.2c0.1,0,0.3,0,0.4,0c0.2,0,0.4-0.1,0.6-0.2c0.2-0.1,0.3-0.3,0.4-0.6
				c0.1-0.2,0.2-0.6,0.2-0.9c0-0.5-0.1-0.9-0.3-1.2s-0.4-0.4-0.8-0.4c-0.2,0-0.4,0-0.5,0.1s-0.3,0.2-0.4,0.2l-0.1-0.5
				c0.1-0.1,0.1-0.1,0.2-0.2c0.1-0.1,0.2-0.2,0.4-0.3c0.2-0.1,0.4-0.1,0.6-0.1c0.3,0,0.6,0.1,0.8,0.2c0.3,0.2,0.5,0.4,0.6,0.7
				c0.2,0.3,0.2,0.7,0.2,1.2c0,0.5-0.1,0.9-0.3,1.3s-0.4,0.7-0.7,0.9C90.1,73.6,89.7,73.7,89.3,73.7z"/>
			<path class="st5" d="M94,73.7c-0.3,0-0.6-0.1-0.9-0.2c-0.2-0.1-0.4-0.3-0.6-0.5s-0.3-0.5-0.3-0.8c-0.1-0.3-0.1-0.6-0.1-0.9
				c0-0.5,0.1-0.9,0.3-1.2c0.2-0.3,0.4-0.6,0.7-0.7c0.3-0.2,0.6-0.2,1-0.2c0.5,0,0.8,0.1,1.1,0.3c0.3,0.2,0.5,0.5,0.6,0.9
				c0.1,0.4,0.2,0.8,0.2,1.2c0,0.5-0.1,0.9-0.3,1.2s-0.4,0.6-0.7,0.7S94.4,73.7,94,73.7z M94,73.1c0.3,0,0.6-0.1,0.8-0.4
				c0.2-0.3,0.3-0.7,0.3-1.2c0-0.3,0-0.6-0.1-0.8s-0.2-0.5-0.3-0.6c-0.1-0.2-0.3-0.2-0.6-0.2c-0.3,0-0.6,0.1-0.8,0.4
				S93,70.9,93,71.4c0,0.3,0,0.6,0.1,0.9c0.1,0.3,0.2,0.5,0.3,0.6C93.6,73,93.8,73.1,94,73.1z"/>
			<path class="st5" d="M96.9,73.7v-4.4h0.7l0.1,0.6l0.1,0.3v3.5H96.9z M97.7,70.4l-0.1-0.6c0-0.1,0.1-0.2,0.2-0.3
				c0.1-0.1,0.3-0.2,0.4-0.3c0.2-0.1,0.3-0.1,0.5-0.1c0.1,0,0.2,0,0.2,0s0.1,0,0.2,0v0.9c0,0-0.1,0-0.2-0.1c-0.1,0-0.2,0-0.4,0
				c-0.2,0-0.3,0-0.4,0.1c-0.1,0-0.2,0.1-0.3,0.2C97.8,70.3,97.7,70.3,97.7,70.4z"/>
			<path class="st5" d="M101.3,73.7v-4.4h0.7l0.1,0.6l0.1,0.3v3.5H101.3z M102.1,70.4l-0.1-0.6c0-0.1,0.1-0.2,0.2-0.3
				c0.1-0.1,0.3-0.2,0.4-0.3c0.2-0.1,0.3-0.1,0.5-0.1c0.1,0,0.2,0,0.2,0c0.1,0,0.1,0,0.2,0v0.9c0,0-0.1,0-0.2-0.1
				c-0.1,0-0.2,0-0.4,0c-0.2,0-0.3,0-0.4,0.1c-0.1,0-0.2,0.1-0.3,0.2C102.2,70.3,102.2,70.3,102.1,70.4z"/>
			<path class="st5" d="M105.9,73.7c-0.6,0-1.1-0.2-1.4-0.6c-0.3-0.4-0.5-1-0.5-1.7c0-0.4,0.1-0.8,0.2-1.2c0.1-0.3,0.4-0.6,0.6-0.8
				c0.3-0.2,0.6-0.3,1-0.3c0.2,0,0.4,0,0.6,0.1c0.2,0.1,0.4,0.2,0.5,0.3s0.3,0.3,0.3,0.5s0.1,0.5,0.1,0.7c0,0.2,0,0.3,0,0.5
				c0,0.1,0,0.2,0,0.3h-2.9l0.1-0.6h2.1c0-0.2,0-0.4,0-0.6c0-0.2-0.1-0.3-0.2-0.5c-0.1-0.1-0.3-0.2-0.5-0.2c-0.2,0-0.4,0.1-0.5,0.2
				c-0.2,0.1-0.3,0.3-0.4,0.6c-0.1,0.3-0.1,0.7-0.1,1.1c0,0.3,0.1,0.6,0.2,0.8c0.1,0.2,0.3,0.3,0.4,0.4c0.2,0.1,0.4,0.1,0.6,0.1
				c0.1,0,0.2,0,0.4,0c0.1,0,0.3-0.1,0.4-0.1c0.1,0,0.2-0.1,0.3-0.1l0.2,0.5c-0.1,0.1-0.2,0.2-0.4,0.2c-0.2,0.1-0.3,0.1-0.5,0.1
				C106.3,73.7,106.1,73.7,105.9,73.7z"/>
			<path class="st5" d="M110,75.7c-0.6,0-1-0.1-1.3-0.3s-0.5-0.5-0.5-1c0-0.2,0-0.3,0.1-0.4c0.1-0.1,0.2-0.2,0.3-0.3
				c0.1-0.1,0.2-0.2,0.3-0.2l0.6,0.1c-0.1,0.1-0.1,0.1-0.2,0.2c-0.1,0.1-0.1,0.1-0.2,0.2c0,0.1-0.1,0.2-0.1,0.4c0,0.2,0,0.3,0.1,0.5
				s0.2,0.2,0.3,0.3s0.3,0.1,0.6,0.1c0.2,0,0.4,0,0.6-0.1c0.2,0,0.3-0.1,0.4-0.2c0.1-0.1,0.2-0.2,0.2-0.4c0-0.2,0-0.3-0.1-0.4
				c-0.1-0.1-0.2-0.2-0.3-0.2c-0.1-0.1-0.4-0.1-0.6-0.1h-0.4c-0.1,0-0.3,0-0.4,0c-0.1,0-0.2,0-0.3,0c0,0-0.1,0-0.1,0s-0.1,0-0.1,0
				c-0.2-0.1-0.3-0.2-0.4-0.3c-0.1-0.1-0.1-0.3-0.1-0.4c0-0.1,0-0.2,0.1-0.3s0.1-0.2,0.2-0.3c0.1-0.1,0.2-0.2,0.3-0.3l0.5,0.1
				c-0.1,0-0.2,0.1-0.2,0.2s-0.1,0.2-0.1,0.3c0,0.2,0,0.3,0.1,0.3s0.2,0.1,0.4,0.1h0.8c0.3,0,0.6,0,0.8,0.1s0.4,0.2,0.5,0.3
				c0.1,0.1,0.2,0.3,0.2,0.4c0,0.1,0.1,0.3,0.1,0.5c0,0.2-0.1,0.4-0.2,0.6c-0.1,0.2-0.3,0.3-0.5,0.5c-0.2,0.1-0.4,0.2-0.7,0.3
				C110.6,75.6,110.3,75.7,110,75.7z M110,72.1c-0.3,0-0.6-0.1-0.8-0.2c-0.3-0.1-0.5-0.3-0.6-0.5c-0.1-0.2-0.2-0.5-0.2-0.8
				c0-0.3,0.1-0.6,0.2-0.9c0.1-0.2,0.3-0.4,0.6-0.5c0.3-0.1,0.5-0.2,0.9-0.2c0.3,0,0.6,0,0.9,0.1c0.3,0.1,0.5,0.3,0.6,0.5
				c0.2,0.2,0.2,0.5,0.2,0.8c0,0.3-0.1,0.6-0.2,0.8c-0.1,0.2-0.4,0.4-0.6,0.5C110.6,72.1,110.3,72.1,110,72.1z M110,71.5
				c0.3,0,0.5-0.1,0.6-0.2c0.2-0.1,0.2-0.4,0.2-0.7c0-0.3-0.1-0.5-0.2-0.7c-0.1-0.2-0.3-0.2-0.6-0.2c-0.2,0-0.3,0-0.4,0.1
				c-0.1,0-0.2,0.1-0.3,0.3c-0.1,0.1-0.1,0.3-0.1,0.5c0,0.2,0.1,0.5,0.2,0.6C109.5,71.5,109.7,71.5,110,71.5z M111.3,69.9l-0.2-0.4
				c0.1-0.1,0.2-0.2,0.3-0.2s0.3-0.1,0.5-0.1h0.4v0.7H111.3z"/>
			<path class="st5" d="M113.5,68.4c-0.1,0-0.3,0-0.4-0.1c-0.1-0.1-0.2-0.2-0.2-0.4c0-0.1,0-0.2,0.1-0.3c0.1-0.1,0.1-0.2,0.2-0.2
				c0.1-0.1,0.2-0.1,0.3-0.1c0.2,0,0.3,0.1,0.4,0.2c0.1,0.1,0.1,0.2,0.1,0.4c0,0.2-0.1,0.3-0.2,0.5
				C113.8,68.4,113.7,68.4,113.5,68.4z M113.1,73.7v-4.4h0.9v4.4H113.1z"/>
			<path class="st5" d="M116.3,73.7c-0.3,0-0.5-0.1-0.7-0.2s-0.3-0.3-0.5-0.4c-0.1-0.2-0.2-0.4-0.2-0.7c0-0.3,0.1-0.5,0.2-0.7
				c0.1-0.2,0.3-0.4,0.6-0.5c0.2-0.1,0.3-0.1,0.5-0.2c0.2,0,0.4-0.1,0.6-0.1c0.2,0,0.4,0,0.5,0l0.2,0.2l-0.2,0.3c-0.1,0-0.2,0-0.4,0
				c-0.1,0-0.3,0-0.4,0.1c-0.1,0-0.2,0.1-0.3,0.1c-0.1,0.1-0.2,0.1-0.3,0.2c-0.1,0.1-0.1,0.2-0.1,0.4c0,0.2,0.1,0.4,0.2,0.5
				c0.1,0.1,0.3,0.2,0.5,0.2c0.1,0,0.2,0,0.4-0.1c0.1,0,0.2-0.1,0.3-0.1c0.1,0,0.1-0.1,0.2-0.1l0.2,0.2l-0.1,0.3
				c-0.1,0.1-0.3,0.2-0.5,0.3C116.8,73.7,116.6,73.7,116.3,73.7z M118.3,73.7h-0.8V73h0v-2.5c0-0.3-0.1-0.4-0.2-0.5
				s-0.3-0.1-0.6-0.1c-0.2,0-0.3,0-0.5,0.1s-0.3,0.1-0.5,0.1c-0.1,0-0.2,0.1-0.3,0.2l-0.2-0.7c0.1,0,0.2-0.1,0.3-0.2
				s0.4-0.1,0.6-0.2s0.4-0.1,0.7-0.1c0.3,0,0.6,0,0.8,0.1c0.2,0.1,0.4,0.2,0.5,0.4s0.2,0.5,0.2,0.9V73.7z M117.2,68.5
				c-0.1,0-0.2,0-0.3-0.1c-0.1-0.1-0.2-0.1-0.2-0.2c-0.1-0.1-0.1-0.1-0.2-0.2s-0.1-0.1-0.2-0.1c-0.1,0-0.2,0-0.3,0
				c-0.1,0-0.1,0.1-0.2,0.1c0,0.1-0.1,0.1-0.1,0.2l-0.3-0.2c0-0.1,0.1-0.3,0.2-0.4c0.1-0.1,0.2-0.2,0.3-0.3s0.3-0.1,0.4-0.1
				c0.1,0,0.2,0,0.3,0.1s0.2,0.1,0.2,0.2c0.1,0.1,0.1,0.1,0.2,0.2s0.1,0.1,0.2,0.1c0.1,0,0.2,0,0.2,0s0.1-0.1,0.2-0.1
				c0-0.1,0.1-0.1,0.1-0.2l0.4,0.2c0,0.2-0.1,0.3-0.2,0.4c-0.1,0.1-0.2,0.2-0.3,0.3C117.5,68.5,117.4,68.5,117.2,68.5z"/>
			<path class="st5" d="M121.1,73.7c-0.3,0-0.6-0.1-0.9-0.2c-0.2-0.1-0.4-0.3-0.6-0.5s-0.3-0.5-0.3-0.8c-0.1-0.3-0.1-0.6-0.1-0.9
				c0-0.5,0.1-0.9,0.3-1.2c0.2-0.3,0.4-0.6,0.7-0.7c0.3-0.2,0.6-0.2,1-0.2c0.5,0,0.8,0.1,1.1,0.3c0.3,0.2,0.5,0.5,0.6,0.9
				c0.1,0.4,0.2,0.8,0.2,1.2c0,0.5-0.1,0.9-0.3,1.2s-0.4,0.6-0.7,0.7S121.4,73.7,121.1,73.7z M121.1,73.1c0.3,0,0.6-0.1,0.8-0.4
				c0.2-0.3,0.3-0.7,0.3-1.2c0-0.3,0-0.6-0.1-0.8s-0.2-0.5-0.3-0.6c-0.1-0.2-0.3-0.2-0.6-0.2c-0.3,0-0.6,0.1-0.8,0.4
				s-0.3,0.7-0.3,1.2c0,0.3,0,0.6,0.1,0.9c0.1,0.3,0.2,0.5,0.3,0.6C120.7,73,120.9,73.1,121.1,73.1z"/>
			<path class="st5" d="M126.7,73.7c-0.3,0-0.6-0.1-0.8-0.2c-0.3-0.2-0.5-0.4-0.6-0.7c-0.2-0.3-0.2-0.7-0.2-1.2
				c0-0.5,0.1-0.9,0.3-1.3c0.2-0.4,0.4-0.7,0.7-0.9c0.3-0.2,0.7-0.3,1.1-0.3c0.3,0,0.5,0,0.7,0.1c0.2,0.1,0.3,0.1,0.3,0.2l-0.3,0.6
				c-0.1-0.1-0.2-0.1-0.3-0.1c-0.1,0-0.3,0-0.4,0c-0.2,0-0.4,0.1-0.6,0.2c-0.2,0.1-0.3,0.3-0.4,0.6s-0.2,0.6-0.2,0.9
				c0,0.5,0.1,0.9,0.3,1.1s0.4,0.4,0.8,0.4c0.2,0,0.4,0,0.5-0.1c0.2-0.1,0.3-0.2,0.4-0.2l0.1,0.5c-0.1,0.1-0.1,0.1-0.2,0.2
				c-0.1,0.1-0.2,0.2-0.4,0.3C127.2,73.7,127,73.7,126.7,73.7z M127.9,73.7v-0.6l0,0v-3.2l0,0l0-0.9v-1.8h0.9v6.5H127.9z"/>
			<path class="st5" d="M131,73.7c-0.3,0-0.5-0.1-0.7-0.2s-0.3-0.3-0.5-0.4s-0.2-0.4-0.2-0.7c0-0.3,0.1-0.5,0.2-0.7
				c0.1-0.2,0.3-0.4,0.6-0.5c0.2-0.1,0.3-0.1,0.5-0.2c0.2,0,0.4-0.1,0.6-0.1c0.2,0,0.4,0,0.5,0l0.2,0.2l-0.2,0.3c-0.1,0-0.2,0-0.4,0
				c-0.1,0-0.3,0-0.4,0.1c-0.1,0-0.2,0.1-0.3,0.1c-0.1,0.1-0.2,0.1-0.3,0.2s-0.1,0.2-0.1,0.4c0,0.2,0.1,0.4,0.2,0.5
				c0.1,0.1,0.3,0.2,0.5,0.2c0.1,0,0.2,0,0.4-0.1c0.1,0,0.2-0.1,0.3-0.1c0.1,0,0.1-0.1,0.2-0.1l0.2,0.2l-0.1,0.3
				c-0.1,0.1-0.3,0.2-0.5,0.3C131.5,73.7,131.2,73.7,131,73.7z M133,73.7h-0.8V73h0v-2.5c0-0.3-0.1-0.4-0.2-0.5s-0.3-0.1-0.6-0.1
				c-0.2,0-0.3,0-0.5,0.1c-0.2,0-0.3,0.1-0.5,0.1c-0.1,0-0.2,0.1-0.3,0.2l-0.2-0.7c0.1,0,0.2-0.1,0.3-0.2c0.2-0.1,0.4-0.1,0.6-0.2
				c0.2-0.1,0.4-0.1,0.7-0.1c0.3,0,0.6,0,0.8,0.1c0.2,0.1,0.4,0.2,0.5,0.4c0.1,0.2,0.2,0.5,0.2,0.9V73.7z"/>
			<path class="st5" d="M137.7,73.7c-0.5,0-1-0.1-1.4-0.4c-0.4-0.3-0.7-0.6-0.9-1.1c-0.2-0.5-0.3-1-0.3-1.6c0-0.7,0.1-1.2,0.4-1.7
				c0.2-0.4,0.5-0.8,0.9-1c0.4-0.2,0.8-0.3,1.3-0.3c0.5,0,0.9,0.1,1.3,0.4s0.7,0.6,0.9,1.1c0.2,0.5,0.3,1,0.3,1.6
				c0,0.7-0.1,1.2-0.4,1.7c-0.2,0.4-0.5,0.8-0.9,1C138.6,73.6,138.2,73.7,137.7,73.7z M137.7,73c0.5,0,0.9-0.2,1.2-0.6
				s0.4-1,0.4-1.8c0-0.4-0.1-0.8-0.2-1.1c-0.1-0.3-0.3-0.6-0.5-0.8c-0.2-0.2-0.5-0.3-0.9-0.3c-0.3,0-0.6,0.1-0.8,0.2
				c-0.3,0.2-0.5,0.4-0.6,0.8s-0.2,0.8-0.2,1.3c0,0.4,0.1,0.8,0.2,1.1s0.3,0.6,0.5,0.8C137.1,72.9,137.4,73,137.7,73z"/>
			<path class="st5" d="M141.1,73.7l0.6-5.9h1.2l1,3.3l0.3,1.3l0.3-1.3l0.9-3.3h1.2l0.7,5.9h-0.9l-0.3-3.6l-0.1-1.6l-0.4,1.6
				l-1.1,3.7h-0.5l-1.2-3.7l-0.4-1.6l-0.1,1.6l-0.3,3.6H141.1z"/>
			<path class="st5" d="M149.8,73.7c-0.2,0-0.5,0-0.7-0.1c-0.2,0-0.4-0.1-0.6-0.1c-0.2-0.1-0.3-0.1-0.3-0.1l0.2-0.8
				c0.1,0.1,0.2,0.1,0.4,0.2c0.1,0.1,0.3,0.1,0.5,0.1c0.2,0,0.3,0.1,0.5,0.1c0.3,0,0.6-0.1,0.8-0.2s0.3-0.3,0.3-0.6
				c0-0.2,0-0.3-0.1-0.5c-0.1-0.1-0.2-0.2-0.4-0.4c-0.2-0.1-0.4-0.2-0.7-0.4c-0.2-0.1-0.5-0.3-0.7-0.4c-0.2-0.2-0.4-0.4-0.5-0.6
				s-0.2-0.5-0.2-0.8c0-0.3,0.1-0.5,0.2-0.7c0.1-0.2,0.3-0.4,0.4-0.5c0.2-0.1,0.4-0.2,0.6-0.3c0.2-0.1,0.5-0.1,0.7-0.1
				c0.3,0,0.6,0,0.9,0.1c0.2,0.1,0.4,0.1,0.5,0.2l-0.2,0.7c-0.1-0.1-0.3-0.2-0.5-0.2c-0.2-0.1-0.4-0.1-0.7-0.1c-0.2,0-0.4,0-0.5,0.1
				s-0.3,0.1-0.4,0.2s-0.1,0.2-0.1,0.4c0,0.2,0,0.3,0.1,0.5c0.1,0.1,0.2,0.2,0.3,0.3s0.4,0.2,0.6,0.4c0.2,0.1,0.4,0.2,0.6,0.3
				c0.2,0.1,0.4,0.2,0.5,0.4c0.2,0.1,0.3,0.3,0.4,0.5c0.1,0.2,0.1,0.4,0.1,0.6c0,0.4-0.1,0.7-0.2,0.9c-0.2,0.2-0.4,0.4-0.7,0.5
				C150.5,73.7,150.2,73.7,149.8,73.7z"/>
			<path class="st5" d="M152.5,75.3L152.5,75.3c0.1-0.2,0.2-0.3,0.3-0.5s0.1-0.4,0.1-0.6c0-0.1,0-0.2-0.1-0.3s-0.1-0.2-0.2-0.3
				c-0.1-0.1-0.1-0.1-0.2-0.1v-0.3l0.6-0.5c0.2,0.1,0.3,0.2,0.4,0.3c0.1,0.1,0.2,0.3,0.2,0.5c0,0.2,0.1,0.3,0.1,0.5
				c0,0.3,0,0.5-0.1,0.8s-0.2,0.4-0.4,0.6c-0.2,0.2-0.3,0.3-0.5,0.4L152.5,75.3z"/>
			<path class="st5" d="M156.2,73.7l-0.1-0.5c0.2-0.2,0.5-0.4,0.7-0.6c0.2-0.2,0.5-0.4,0.7-0.7c0.2-0.2,0.4-0.5,0.6-0.8
				c0.2-0.3,0.3-0.5,0.4-0.8c0.1-0.3,0.2-0.5,0.2-0.8c0-0.4-0.1-0.6-0.3-0.8c-0.2-0.2-0.4-0.3-0.7-0.3c-0.3,0-0.5,0.1-0.7,0.2
				s-0.4,0.2-0.5,0.4l-0.4-0.6c0.1-0.1,0.2-0.2,0.4-0.3s0.4-0.2,0.6-0.3c0.2-0.1,0.5-0.1,0.8-0.1c0.4,0,0.7,0.1,1,0.2
				c0.3,0.2,0.4,0.4,0.6,0.7c0.1,0.3,0.2,0.6,0.2,0.9c0,0.4-0.1,0.8-0.3,1.2c-0.2,0.4-0.4,0.8-0.8,1.2c-0.3,0.4-0.7,0.7-1.1,1l2.4,0
				v0.8H156.2z"/>
			<path class="st5" d="M162.8,73.7c-0.4,0-0.7-0.1-0.9-0.3c-0.3-0.2-0.5-0.4-0.6-0.7s-0.3-0.6-0.3-1c-0.1-0.4-0.1-0.8-0.1-1.2
				c0-0.6,0.1-1.1,0.3-1.6c0.2-0.4,0.4-0.8,0.8-1c0.3-0.2,0.7-0.4,1.1-0.4c0.4,0,0.7,0.1,1,0.2c0.3,0.2,0.5,0.4,0.6,0.6
				c0.2,0.3,0.3,0.6,0.3,1s0.1,0.7,0.1,1.2c0,0.6-0.1,1.2-0.3,1.6c-0.2,0.5-0.4,0.8-0.7,1.1C163.6,73.6,163.2,73.7,162.8,73.7z
				 M162.9,72.9c0.4,0,0.7-0.2,0.8-0.5c0.2-0.4,0.3-0.9,0.3-1.7c0-0.4,0-0.8-0.1-1.1c-0.1-0.3-0.2-0.6-0.4-0.8s-0.4-0.3-0.6-0.3
				c-0.4,0-0.7,0.2-0.9,0.5s-0.3,0.9-0.3,1.5c0,0.4,0,0.8,0.1,1.1c0.1,0.3,0.2,0.6,0.4,0.8S162.6,72.9,162.9,72.9z"/>
			<path class="st5" d="M166.8,73.7v-4.9c-0.1,0-0.3,0.1-0.4,0.1c-0.1,0-0.3,0.1-0.4,0.1l-0.1-0.6c0.1,0,0.3-0.1,0.4-0.2
				c0.1-0.1,0.3-0.1,0.4-0.2c0.1-0.1,0.3-0.1,0.4-0.2c0.1-0.1,0.2-0.1,0.2-0.2l0.4,0.1v6H166.8z"/>
			<path class="st5" d="M169.4,71.4c0-0.4,0.1-0.8,0.2-1.2c0.1-0.4,0.3-0.7,0.5-1c0.2-0.3,0.4-0.6,0.7-0.8c0.3-0.2,0.5-0.4,0.8-0.6
				c0.3-0.1,0.6-0.3,0.9-0.3l0.2,0.6c-0.3,0.1-0.7,0.2-1,0.5s-0.5,0.4-0.7,0.7s-0.4,0.6-0.5,0.9c-0.1,0.3-0.2,0.6-0.2,0.9
				c0,0.4,0,0.7,0.1,1c0.1,0.3,0.2,0.6,0.3,0.8s0.4,0.3,0.7,0.3c0.2,0,0.4-0.1,0.6-0.2s0.3-0.3,0.3-0.5s0.1-0.4,0.1-0.7
				c0-0.3,0-0.6-0.1-0.7c-0.1-0.2-0.2-0.3-0.3-0.4c-0.1-0.1-0.3-0.1-0.4-0.1c-0.1,0-0.3,0-0.4,0.1c-0.1,0-0.2,0.1-0.2,0.1l-0.2-0.5
				c0,0,0.1-0.1,0.2-0.2c0.1-0.1,0.2-0.1,0.4-0.1c0.1,0,0.3-0.1,0.5-0.1c0.3,0,0.6,0.1,0.8,0.2c0.2,0.2,0.4,0.4,0.5,0.6
				c0.1,0.3,0.2,0.6,0.2,0.9c0,0.3,0,0.6-0.1,0.8s-0.2,0.5-0.4,0.7s-0.4,0.4-0.6,0.5c-0.3,0.1-0.5,0.2-0.9,0.2c-0.4,0-0.7-0.1-1-0.3
				c-0.3-0.2-0.5-0.5-0.7-0.8C169.5,72.2,169.4,71.8,169.4,71.4z"/>
			<path class="st5" d="M175,73.7c-0.2,0-0.3-0.1-0.4-0.2c-0.1-0.1-0.2-0.3-0.2-0.4c0-0.1,0-0.2,0.1-0.4c0.1-0.1,0.1-0.2,0.2-0.3
				s0.2-0.1,0.3-0.1c0.2,0,0.3,0.1,0.4,0.2c0.1,0.1,0.1,0.3,0.1,0.4c0,0.1,0,0.3-0.1,0.4c-0.1,0.1-0.1,0.2-0.2,0.3
				S175.1,73.7,175,73.7z"/>
		</g>
	</g>
	<g id="Título_2_" class="st6">
		<g class="st7">
			<path class="st5" d="M213.1,265.7l0.3-0.8l0.4,0.1v1.8l-0.4,0.1l-0.3-0.8H212v2.5l0.8,0.3l-0.1,0.4h-2.4l-0.1-0.4l0.8-0.3v-5
				l-0.8-0.3l0.1-0.4h4.3v1.4l-0.4,0.1l-0.4-1H212v2.4H213.1z"/>
			<path class="st5" d="M219.1,267.1c0,1.4-0.7,2.2-2.1,2.2c-1.4,0-2.1-0.9-2.1-2.2s0.8-2.2,2.1-2.2S219.1,265.8,219.1,267.1z
				 M215.7,267.1c0,1.1,0.5,1.9,1.2,1.9s1.3-0.8,1.3-1.9c0-1.2-0.5-1.8-1.3-1.8C216.2,265.3,215.7,266,215.7,267.1z"/>
			<path class="st5" d="M221.7,269.3h-1.9l-0.1-0.3l0.6-0.2v-3.4h-0.5l-0.1-0.3l1-0.1l0.3,0.3c0.4-0.2,0.7-0.3,1.2-0.3
				c1,0,1.5,0.5,1.5,1.5v2.3l0.6,0.2l-0.1,0.3h-1.9l-0.1-0.3l0.6-0.2v-2.4c0-0.6-0.4-0.9-0.9-0.9c-0.4,0-0.7,0.1-1,0.2v3.1l0.6,0.2
				L221.7,269.3z"/>
			<path class="st5" d="M227.5,265l-0.1,0.3h-1.1v2.9c0,0.4,0.2,0.7,0.5,0.7c0.3,0,0.5-0.1,0.7-0.3l0.2,0.2
				c-0.3,0.3-0.6,0.5-1.1,0.5c-0.8,0-1.2-0.5-1.2-1.2v-2.8H225l-0.1-0.3l0.6-0.2l0.4-0.9l0.4,0.1v1H227.5z"/>
			<path class="st5" d="M231.8,268.5l0.2,0.3c-0.4,0.4-1,0.5-1.5,0.5c-1.6,0-2.3-0.9-2.3-2.2c0-1.4,0.9-2.2,2.2-2.2
				c1,0,1.8,0.5,1.8,1.4c0,0.2-0.1,0.5-0.2,0.7h-2.9v0c0,1.1,0.5,1.9,1.4,1.9C231,268.9,231.4,268.8,231.8,268.5z M231.2,266.3
				c0-0.7-0.3-1-1-1c-0.8,0-1.1,0.6-1.2,1.4h2.1C231.2,266.6,231.2,266.4,231.2,266.3z"/>
			<path class="st5" d="M233.8,265.4c0,0.3-0.2,0.5-0.5,0.5c-0.3,0-0.5-0.2-0.5-0.5c0-0.3,0.2-0.5,0.5-0.5
				C233.6,264.9,233.8,265.2,233.8,265.4z M233.8,268.9c0,0.3-0.2,0.5-0.5,0.5c-0.3,0-0.5-0.2-0.5-0.5c0-0.3,0.2-0.5,0.5-0.5
				C233.6,268.4,233.8,268.6,233.8,268.9z"/>
			<path class="st5" d="M242.3,268.6l0.8,0.3l-0.1,0.4h-2.4l-0.1-0.4l0.8-0.3l-0.5-1.4h-2.4l-0.5,1.4l0.9,0.3l-0.1,0.4h-2.1
				l-0.1-0.4l0.8-0.3l2.1-5.6l0.8-0.2L242.3,268.6z M240.7,266.7l-0.9-2.6v-0.5l-1.2,3.1H240.7z"/>
			<path class="st5" d="M245.6,269.4c-1.4,0-2.1-0.8-2.1-2.2c0-1.3,0.8-2.2,2.2-2.2c0.3,0,0.6,0.1,0.9,0.2v-2.2H246l-0.1-0.3l1-0.1
				l0.4,0.1v6.1l0.6,0.2l-0.1,0.3h-1.2l-0.1-0.3C246.4,269.1,246,269.4,245.6,269.4z M245.7,265.4c-0.9,0-1.3,0.6-1.3,1.7
				s0.5,1.8,1.2,1.8c0.4,0,0.7-0.1,0.9-0.4v-2.9C246.3,265.5,246,265.4,245.7,265.4z"/>
			<path class="st5" d="M250,264.9c1.1,0,1.7,0.6,1.7,1.7v2.1l0.6,0.2l-0.1,0.3H251l-0.2-0.3c-0.4,0.3-0.6,0.4-1.2,0.4
				c-0.8,0-1.3-0.4-1.3-1.2c0-1.3,1.4-1.5,2.5-1.5v-0.5c0-0.6-0.4-0.9-0.9-0.9c-0.2,0-0.5,0-0.8,0.1l-0.2,0.7l-0.3-0.1v-0.7
				C249.1,265,249.5,264.9,250,264.9z M249.3,268.1c0,0.6,0.4,0.9,0.7,0.9s0.6-0.2,0.8-0.5V267C249.7,267,249.3,267.4,249.3,268.1z"
				/>
			<path class="st5" d="M254.5,268.9c0.7,0,1.4-0.7,1.4-2c0-1.2-0.4-1.6-1-1.6c-0.4,0-0.7,0.1-1.1,0.2v5.3l0.6,0.2l-0.1,0.3h-1.9
				l-0.1-0.3l0.6-0.2v-5.5h-0.5l-0.1-0.3l1.1-0.1l0.4,0.3c0.3-0.1,0.8-0.3,1.1-0.3c1.3,0,1.9,0.7,1.9,2.1c0,1.3-1,2.2-2.4,2.2h-0.4
				v-0.3H254.5z"/>
			<path class="st5" d="M260,265l-0.1,0.3h-1.1v2.9c0,0.4,0.2,0.7,0.5,0.7c0.3,0,0.5-0.1,0.7-0.3l0.2,0.2c-0.3,0.3-0.6,0.5-1.1,0.5
				c-0.8,0-1.2-0.5-1.2-1.2v-2.8h-0.5l-0.1-0.3l0.6-0.2l0.4-0.9l0.4,0.1v1H260z"/>
			<path class="st5" d="M262.2,264.9c1.1,0,1.7,0.6,1.7,1.7v2.1l0.6,0.2l-0.1,0.3h-1.2l-0.2-0.3c-0.4,0.3-0.6,0.4-1.2,0.4
				c-0.8,0-1.3-0.4-1.3-1.2c0-1.3,1.4-1.5,2.5-1.5v-0.5c0-0.6-0.4-0.9-0.9-0.9c-0.2,0-0.5,0-0.8,0.1l-0.2,0.7l-0.3-0.1v-0.7
				C261.3,265,261.7,264.9,262.2,264.9z M261.4,268.1c0,0.6,0.4,0.9,0.7,0.9s0.6-0.2,0.8-0.5V267C261.9,267,261.4,267.4,261.4,268.1
				z"/>
			<path class="st5" d="M267,269.4c-1.4,0-2.1-0.8-2.1-2.2c0-1.3,0.8-2.2,2.2-2.2c0.3,0,0.6,0.1,0.9,0.2v-2.2h-0.5l-0.1-0.3l1-0.1
				l0.4,0.1v6.1l0.6,0.2l-0.1,0.3h-1.2l-0.1-0.3C267.8,269.1,267.4,269.4,267,269.4z M267.1,265.4c-0.9,0-1.3,0.6-1.3,1.7
				s0.5,1.8,1.2,1.8c0.4,0,0.7-0.1,0.9-0.4v-2.9C267.7,265.5,267.4,265.4,267.1,265.4z"/>
			<path class="st5" d="M274,267.1c0,1.4-0.7,2.2-2.1,2.2c-1.4,0-2.1-0.9-2.1-2.2s0.8-2.2,2.1-2.2C273.2,264.9,274,265.8,274,267.1z
				 M270.6,267.1c0,1.1,0.5,1.9,1.2,1.9c0.8,0,1.3-0.8,1.3-1.9c0-1.2-0.5-1.8-1.3-1.8C271.1,265.3,270.6,266,270.6,267.1z"/>
			<path class="st5" d="M279,269.4c-1.4,0-2.1-0.8-2.1-2.2c0-1.3,0.8-2.2,2.2-2.2c0.3,0,0.6,0.1,0.9,0.2v-2.2h-0.5l-0.1-0.3l1-0.1
				l0.4,0.1v6.1l0.6,0.2l-0.1,0.3h-1.2l-0.1-0.3C279.8,269.1,279.5,269.4,279,269.4z M279.1,265.4c-0.9,0-1.3,0.6-1.3,1.7
				s0.5,1.8,1.2,1.8c0.4,0,0.7-0.1,0.9-0.4v-2.9C279.7,265.5,279.4,265.4,279.1,265.4z"/>
			<path class="st5" d="M285.5,268.5l0.2,0.3c-0.4,0.4-1,0.5-1.5,0.5c-1.6,0-2.3-0.9-2.3-2.2c0-1.4,0.9-2.2,2.2-2.2
				c1,0,1.8,0.5,1.8,1.4c0,0.2-0.1,0.5-0.2,0.7h-2.9v0c0,1.1,0.5,1.9,1.4,1.9C284.7,268.9,285.1,268.8,285.5,268.5z M285,266.3
				c0-0.7-0.3-1-1-1c-0.8,0-1.1,0.6-1.2,1.4h2.1C284.9,266.6,285,266.4,285,266.3z"/>
			<path class="st5" d="M291.5,269.3l-0.7,0.2l-1.7-5.8l-0.8-0.3l0.1-0.4h2.4l0.1,0.4l-0.8,0.3l1.2,4.1v0.6l1.6-5.4l0.4-0.2l1.4,5
				v0.6l1.4-4.8l-0.8-0.3l0.1-0.4h1.8l0.1,0.4l-0.8,0.3l-1.7,5.6l-0.6,0.2l-1.3-4.5v-0.7L291.5,269.3z"/>
			<path class="st5" d="M303.5,268.6l0.8,0.3l-0.1,0.4h-2.4l-0.1-0.4l0.8-0.3v-2.4h-3v2.4l0.8,0.3l-0.1,0.4h-2.4l-0.1-0.4l0.8-0.3
				v-5l-0.8-0.3l0.1-0.4h2.4l0.1,0.4l-0.8,0.3v2.2h3v-2.2l-0.8-0.3l0.1-0.4h2.4l0.1,0.4l-0.8,0.3V268.6z"/>
			<path class="st5" d="M311.2,266.1c0,1.9-0.9,3.3-3,3.3c-2.2,0-3-1.6-3-3.3c0-1.7,1-3.3,3-3.3
				C310.2,262.8,311.2,264.2,311.2,266.1z M306.3,266.1c0,1.9,0.6,2.9,1.9,2.9s1.9-1,1.9-2.9c0-1.9-0.6-2.8-1.9-2.8
				C306.9,263.2,306.3,264.1,306.3,266.1z"/>
			<path class="st5" d="M317.3,271.4c-2.2,0-2.7-2.8-2.7-4.7s0.7-4.4,2.7-4.4v0.4c-1.4,0-1.8,1.9-1.8,3.9c0,2,0.5,4.3,1.8,4.3V271.4
				z"/>
			<path class="st5" d="M319,264l-0.3,0.8l-0.4-0.1v-1c0.5-0.2,1-0.3,1.4-0.3c1.2,0,1.7,0.7,1.7,1.5c0,1.9-2.6,2.6-2.9,3.7h2.2
				l0.2-0.6l0.4,0.1v1.3h-3.3v-0.3c0-1.8,2.5-2.4,2.5-4c0-0.6-0.4-1.1-0.8-1.1C319.6,263.8,319.2,263.9,319,264z"/>
			<path class="st5" d="M327.3,266.3c0,1.4-0.5,3-2.2,3s-2.3-1.5-2.3-3c0-1.5,0.6-3,2.3-3C326.7,263.4,327.3,264.9,327.3,266.3z
				 M323.8,266.3c0,1.3,0.4,2.7,1.2,2.7s1.2-1.4,1.2-2.7c0-1.3-0.3-2.6-1.2-2.6S323.8,265,323.8,266.3z"/>
			<path class="st5" d="M329.4,268.7v-4.5h-1l-0.1-0.4l1.6-0.4h0.4v5.3l1,0.2l-0.1,0.4h-2.8l-0.1-0.4L329.4,268.7z"/>
			<path class="st5" d="M335.8,267.8c0,1-0.9,1.5-1.8,1.5s-1.9-0.5-1.9-1.5c0-0.9,0.7-1.3,1.3-1.6c-0.7-0.4-1.1-0.9-1.1-1.6
				c0-0.7,0.6-1.3,1.7-1.3c1.1,0,1.7,0.6,1.7,1.3c0,0.7-0.7,1.1-1.1,1.4C335.1,266.4,335.8,266.8,335.8,267.8z M333,267.9
				c0,0.7,0.4,1,1,1c0.6,0,1-0.4,1-1c0-0.6-0.6-1.1-1.2-1.4C333.3,266.8,333,267.2,333,267.9z M334.8,264.7c0-0.6-0.4-0.9-0.8-0.9
				c-0.4,0-0.8,0.2-0.8,0.9c0,0.5,0.5,0.8,0.9,1.1l0.1,0.1C334.6,265.6,334.8,265.2,334.8,264.7z"/>
			<path class="st5" d="M338.4,266.7c0-2-0.5-3.9-1.8-3.9v-0.4c2,0,2.7,2.5,2.7,4.4s-0.6,4.7-2.7,4.7V271
				C337.9,271,338.4,268.7,338.4,266.7z"/>
			<path class="st5" d="M341.3,268.9c0,0.3-0.2,0.5-0.5,0.5c-0.3,0-0.5-0.2-0.5-0.5c0-0.3,0.2-0.5,0.5-0.5
				C341.1,268.4,341.3,268.6,341.3,268.9z"/>
		</g>
	</g>
	<g>
		<g>
			<g>
				<g>
					<rect x="455.1" y="65" class="st8" width="64.4" height="147.1"/>
				</g>
			</g>
		</g>
		<g>
			<g>
				<rect x="383.5" y="111.1" class="st9" width="64.4" height="100.9"/>
			</g>
		</g>
		<g>
			<g>
				<rect x="311.9" y="163" class="st10" width="64.4" height="49"/>
			</g>
		</g>
		<g>
			<g>
				<g>
					<rect x="240.2" y="183.2" class="st11" width="64.4" height="28.8"/>
				</g>
			</g>
		</g>
		<g>
			<g>
				<rect x="168.6" y="191.9" class="st12" width="64.4" height="20.2"/>
			</g>
		</g>
		<g>
			<g>
				<rect x="97" y="197.6" class="st13" width="64.4" height="14.4"/>
			</g>
		</g>
		<g>
			<g>
				<rect x="25.4" y="206.3" class="st14" width="64.4" height="5.8"/>
			</g>
		</g>
	</g>
	<g>
	</g>
	<g>
	</g>
	<g>
	</g>
	<g>
	</g>
	<g>
	</g>
	<g>
	</g>
</g>
</svg>
