<?xml version="1.0" encoding="utf-8"?>
<!-- Generator: Adobe Illustrator 24.0.2, SVG Export Plug-In . SVG Version: 6.00 Build 0)  -->
<svg version="1.1" id="Camada_1" xmlns="http://www.w3.org/2000/svg" xmlns:xlink="http://www.w3.org/1999/xlink" x="0px" y="0px"
	 viewBox="0 0 538.95 472.51" style="enable-background:new 0 0 538.95 472.51;" xml:space="preserve">
<style type="text/css">
	.st0{fill:#00ADEF;}
	.st1{fill:#FFFFFF;}
</style>
<g>
	<path class="st0" d="M26.84,472.51h485.28c20.71,0,33.59-22.77,23.11-40.84L292.58,13.39c-10.36-17.85-35.86-17.85-46.22,0
		L3.73,431.67C-6.76,449.75,6.12,472.51,26.84,472.51z"/>
	<path class="st1" d="M353.66,280.7c-2.43-8.2-6.25-15.67-11.34-22.2c-7.61-9.76-16.54-14.75-25.04-19.02
		c-3.32-1.67-7.33-3.54-11.95-4.82c-3.32-0.92-6.35-1.37-8.78-1.73l-1.02-0.15c-16.52-2.53-32.17-8.75-45.26-17.99
		c-6.27-4.42-10.56-10.8-11.77-17.5c-0.66-3.68-0.57-8.83,6.15-16.1c2.01-2.18,5.99-4.49,10.21-6.95
		c7.32-4.26,16.42-9.55,23.57-18.81c9.17-11.87,11.69-25.69,12.79-36.61c2.53-0.11,5.08-0.08,7.76,0.38
		c5.08,0.86,12.29,2.12,17.31,0.56c3.78-1.17,6.04-5.62,3.48-9.06c-0.05-0.07-47.14-63.32-47.14-63.32
		c-2.24-3.01-6.73-2.92-8.85,0.17c0,0-43.54,63.32-43.54,63.32c-1.77,2.58-1.1,6.89,2.07,7.9c0.77,0.24,1.6,0.48,2.44,0.67
		c0.84,0.19,1.7,0.33,2.5,0.36c2.31,0.1,4.56-0.65,6.8-1.09c3.82-0.76,7.68-0.75,11.53-0.47c-0.57,3.67-1.44,7.06-2.87,8.92
		c-1.7,2.2-6.15,4.79-10.45,7.29c-6.27,3.65-14.08,8.19-20.73,15.39c-19.16,20.73-20.17,41.75-17.65,55.72
		c3.35,18.52,14.45,35.61,30.45,46.9c18.77,13.24,41.03,22.13,64.41,25.71l1.21,0.18c1.28,0.19,2.73,0.41,3.41,0.6
		c1,0.28,3,1.28,3.74,1.66c1.1,0.56,2.24,1.1,3.35,1.69c4.52,2.39,7.82,6.62,9.15,11.61c1.79,6.73,2.3,14.95-1.89,20.71
		c-3.91,5.36-11.12,6.51-17.04,8.13c-0.5,0.14-1.01,0.26-1.52,0.38c-2,0.49-4.74,1.17-7.65,2.32c-1.97,0.78-4.12,1.53-6.39,2.33
		l-2.75,0.97c-10.38,3.71-23.88,9.2-36.29,18.74c-13.46,10.36-22.87,23.59-27.19,38.25c-3.45,11.69-3.79,24.76-0.97,37.8
		c1.89,8.75,5.12,17.52,9.6,26.05c1.11,2.11,2.18,4.02,3.25,5.79c1.67,2.75,5.29,3.47,7.87,1.58l28.01-20.54
		c2.25-1.65,2.9-4.73,1.56-7.19c-0.21-0.38-0.42-0.77-0.63-1.18c-2.54-4.83-4.33-9.64-5.34-14.3c-1.18-5.47-1.14-10.61,0.12-14.87
		c1.97-6.67,7.17-11.75,11.18-14.84c5.77-4.44,13.16-8.14,23.95-12.01l2.54-0.9c2.56-0.9,5.2-1.83,7.82-2.87
		c0.34-0.11,1.31-0.35,2.01-0.53c0.89-0.22,1.77-0.44,2.62-0.67l7.73-2.11c1.12-0.3,2.24-0.62,3.36-0.98
		c2.99-0.97,5.9-2.25,8.64-3.79c1.8-1.01,3.21-2.02,4.15-2.69l0.29-0.2c4.79-2.68,9.24-6.39,13.59-11.3
		c7.61-8.61,12.84-19.44,15.11-31.33C357.49,303.4,356.91,291.66,353.66,280.7z"/>
</g>
</svg>
