<?xml version="1.0" encoding="utf-8"?>
<!-- Generator: Adobe Illustrator 24.0.1, SVG Export Plug-In . SVG Version: 6.00 Build 0)  -->
<svg version="1.1" id="Layer_1" xmlns="http://www.w3.org/2000/svg" xmlns:xlink="http://www.w3.org/1999/xlink" x="0px" y="0px"
	 viewBox="0 0 30.8 28.1" style="enable-background:new 0 0 30.8 28.1;" xml:space="preserve">
<style type="text/css">
	.st0{fill:#FFFFFF;}
</style>
<g>
	<path class="st0" d="M9.7,17.2c0.1,0,0.1,0,0.1,0c0.3,0,0.6,0,0.9-0.1c0.9-0.1,1.4-0.7,1.6-1.5c0.1-0.5,0-1.1-0.3-1.5
		c-0.3-0.5-0.8-0.6-1.3-0.7c-0.7-0.1-1.4,0-2.1,0.1c-0.1,0-0.1,0-0.1,0.2c0,1.8,0,3.7,0,5.5c0,0,0,0.1,0,0.1c0.4,0,0.8,0,1.2,0
		C9.7,18.5,9.7,17.9,9.7,17.2z M9.7,15.3C9.7,15.3,9.7,15.3,9.7,15.3c0-0.3,0-0.5,0-0.8c0-0.1,0-0.1,0.1-0.1c0.3,0,0.6-0.1,0.9,0
		c0.4,0.1,0.6,0.5,0.5,0.9c-0.1,0.5-0.4,0.8-0.9,0.8c-0.1,0-0.3,0-0.4,0c-0.1,0-0.1,0-0.1-0.1C9.7,15.8,9.7,15.5,9.7,15.3z"/>
	<path class="st0" d="M13.5,19.2c0.3,0,0.6,0,0.8,0.1c0.7,0,1.3,0,1.9-0.2c0.9-0.2,1.5-0.8,1.8-1.6c0.2-0.6,0.2-1.1,0.2-1.7
		c-0.1-0.5-0.2-1-0.5-1.3c-0.5-0.6-1.2-0.9-1.9-0.9c-0.8-0.1-1.5,0-2.3,0.1c-0.1,0-0.1,0.1-0.1,0.2c0,0.9,0,1.8,0,2.7
		c0,0.9,0,1.8,0,2.7C13.3,19.1,13.4,19.2,13.5,19.2z M14.6,14.5c0-0.1,0-0.1,0.1-0.1c0.5-0.1,1-0.1,1.5,0.2c0.4,0.2,0.6,0.6,0.7,1.1
		c0,0.2,0,0.3,0.1,0.5c0,0.3-0.1,0.7-0.2,1c-0.2,0.6-0.7,0.9-1.3,1c-0.3,0-0.5,0-0.8,0c-0.1,0-0.1,0-0.1-0.1
		C14.6,16.9,14.6,15.7,14.6,14.5z"/>
	<path class="st0" d="M22.1,20.2c-4.2,0-8.5,0-12.7,0c0,0,0,0,0,0c0,0.3,0,0.7,0,1c0,0.3,0.2,0.6,0.4,0.7c0.2,0.1,0.4,0.2,0.6,0.2
		c2.5,0,5,0,7.4,0c1.1,0,2.1,0,3.2,0c0.5,0,1-0.3,1-0.8C22.2,21,22.2,20.6,22.1,20.2C22.2,20.2,22.1,20.2,22.1,20.2z"/>
	<path class="st0" d="M9.6,12.4c4.1,0,8.3,0,12.4,0c0,0,0.1,0,0.1,0c0-1,0-2,0-2.9c0,0-0.1,0-0.1,0c-0.4,0-0.7,0-1.1,0
		c-0.3,0-0.7,0-1,0c-1-0.1-1.7-0.9-1.7-1.9c0-0.6,0-1.2,0-1.8c0,0,0-0.1,0-0.1c0,0-0.1,0-0.1,0c-2.5,0-4.9,0-7.4,0
		c-0.1,0-0.3,0-0.4,0c-0.5,0-0.9,0.5-0.9,1c0,1.9,0,3.8,0,5.7C9.4,12.4,9.4,12.4,9.6,12.4z"/>
	<path class="st0" d="M19.2,19.2c0.5,0,1,0,1.4,0c0-0.8,0-1.6,0-2.4c0.8,0,1.5,0,2.3,0c0-0.4,0-0.7,0-1.1c-0.8,0-1.5,0-2.3,0
		c0-0.5,0-0.9,0-1.3c0.8,0,1.6,0,2.4,0c0-0.4,0-0.7,0-1.1c-1.3,0-2.6,0-3.9,0C19.2,15.3,19.2,17.3,19.2,19.2z"/>
	<path class="st0" d="M24.1,0H6.7C3,0,0,3,0,6.7v14.8c0,3.7,3,6.7,6.7,6.7h17.4c3.7,0,6.7-3,6.7-6.7V6.7C30.8,3,27.7,0,24.1,0z
		 M25.1,19.2c0,0.6-0.4,1-1,1c-0.3,0-0.5,0-0.8,0c0,0-0.1,0-0.1,0c0,0.3,0,0.7,0,1c0,0.7-0.4,1.3-1,1.7c-0.3,0.2-0.6,0.3-0.9,0.3
		c-3,0-6.1,0-9.1,0c-0.6,0-1.1,0-1.7,0c-1.1,0-1.9-0.9-1.9-1.9c0-0.3,0-0.6,0-0.8c0,0,0-0.1,0-0.2c-0.2,0-0.4,0-0.6,0
		c-0.2,0-0.3,0-0.5,0c-0.5-0.1-0.8-0.5-0.8-1c0-1.6,0-3.3,0-4.9c0-0.3,0-0.6,0-1c0-0.6,0.4-1,1-1c0.3,0,0.6,0,0.8,0c0,0,0.1,0,0.2,0
		c0-0.1,0-0.1,0-0.2c0-1.9,0-3.8,0-5.7c0-0.9,0.5-1.6,1.4-1.9c0.2-0.1,0.4-0.1,0.6-0.1c2.8,0,5.6,0,8.5,0c0.2,0,0.3,0.1,0.5,0.2
		c1.2,1.2,2.4,2.4,3.6,3.6c0.1,0.1,0.1,0.1,0.1,0.2c0,1.2,0,2.4,0,3.6c0,0,0,0.1,0,0.1c0,0,0.1,0,0.1,0c0.3,0,0.5,0,0.8,0
		c0.6,0,1,0.4,1,1C25.1,15.3,25.1,17.3,25.1,19.2z"/>
</g>
<g>
</g>
<g>
</g>
<g>
</g>
<g>
</g>
<g>
</g>
<g>
</g>
<g>
</g>
<g>
</g>
<g>
</g>
<g>
</g>
<g>
</g>
<g>
</g>
<g>
</g>
<g>
</g>
<g>
</g>
</svg>
