<?xml version="1.0" encoding="utf-8"?>
<!-- Generator: Adobe Illustrator 24.0.1, SVG Export Plug-In . SVG Version: 6.00 Build 0)  -->
<svg version="1.1" id="Layer_1" xmlns="http://www.w3.org/2000/svg" xmlns:xlink="http://www.w3.org/1999/xlink" x="0px" y="0px"
	 viewBox="0 0 58.4 25.3" style="enable-background:new 0 0 58.4 25.3;" xml:space="preserve">
<style type="text/css">
	.st0{fill:#FFFFFF;}
	.st1{fill:none;}
</style>
<polygon class="st0" points="6.8,22.2 10,22.2 3.2,13.8 10,5.4 6.8,5.4 0,13.8 "/>
<g>
	<rect x="14" y="0.5" class="st1" width="45.4" height="24.5"/>
	<path class="st0" d="M15.8,12.7V5.6h-1.2v-1l1.2-0.3V3.6c0-0.6,0.1-1.1,0.3-1.6s0.4-0.7,0.7-1c0.3-0.2,0.6-0.4,1-0.5s0.7-0.2,1-0.2
		c0.2,0,0.5,0,0.7,0.1s0.3,0.1,0.4,0.1v1.3c-0.1,0-0.3-0.1-0.5-0.1s-0.4,0-0.7,0c-0.3,0-0.6,0.1-0.8,0.4c-0.2,0.3-0.3,0.7-0.3,1.2v1
		h2v1.3h-2v7.1H15.8z"/>
	<path class="st0" d="M24.2,12.8c-1.2,0-2.1-0.4-2.7-1.1c-0.6-0.8-1-1.8-1-3.2c0-0.8,0.1-1.5,0.4-2.2c0.3-0.6,0.7-1.1,1.3-1.5
		s1.2-0.6,2-0.6c0.4,0,0.8,0,1.2,0.2s0.7,0.3,1,0.6c0.3,0.3,0.5,0.6,0.7,1c0.2,0.4,0.3,0.9,0.3,1.4c0,0.3,0,0.6,0,0.8
		c0,0.2,0,0.5-0.1,0.7h-5.7l0.1-1.1h4.1c0-0.4,0-0.8-0.1-1.1S25.4,6,25.2,5.8c-0.2-0.2-0.6-0.3-1-0.3c-0.4,0-0.7,0.1-1,0.3
		c-0.3,0.2-0.5,0.6-0.7,1.1c-0.2,0.5-0.2,1.2-0.2,2.1c0,0.6,0.2,1.1,0.4,1.5s0.5,0.6,0.9,0.8c0.4,0.2,0.8,0.2,1.2,0.2
		c0.2,0,0.4,0,0.7-0.1c0.3,0,0.5-0.1,0.8-0.2c0.3-0.1,0.4-0.1,0.6-0.2l0.3,1c-0.2,0.1-0.4,0.3-0.7,0.4c-0.3,0.1-0.7,0.2-1,0.3
		C24.9,12.8,24.5,12.8,24.2,12.8z"/>
	<path class="st0" d="M28.6,8.6c0-0.8,0.1-1.6,0.4-2.2s0.7-1.2,1.3-1.6s1.3-0.6,2.2-0.6c0.5,0,1,0,1.3,0.1c0.4,0.1,0.6,0.2,0.7,0.3
		L34.4,6c-0.2-0.1-0.5-0.3-0.7-0.3S33,5.6,32.6,5.6c-0.4,0-0.7,0.1-1.1,0.3c-0.3,0.2-0.6,0.5-0.9,0.9c-0.2,0.4-0.4,0.9-0.4,1.6
		c0,0.7,0.1,1.3,0.3,1.7c0.2,0.5,0.5,0.8,0.8,1.1c0.4,0.2,0.7,0.4,1.2,0.4c0.4,0,0.8-0.1,1.1-0.2c0.3-0.1,0.6-0.2,0.8-0.3l0.3,1
		c-0.3,0.2-0.6,0.4-1.1,0.6c-0.5,0.1-0.9,0.2-1.5,0.2c-0.8,0-1.4-0.2-2-0.6c-0.5-0.4-1-0.9-1.2-1.5C28.8,10.2,28.6,9.4,28.6,8.6z"/>
	<path class="st0" d="M36.5,12.7V0.5h1.7V4l-0.1,1.5L38,5.3c0.2-0.2,0.4-0.3,0.8-0.5s0.6-0.3,1-0.4c0.4-0.1,0.7-0.2,1.1-0.2
		c0.9,0,1.5,0.2,2,0.8c0.4,0.5,0.6,1.4,0.6,2.6v5.1h-1.7V7.6c0-0.7-0.1-1.2-0.3-1.5c-0.2-0.3-0.6-0.4-1.2-0.4
		c-0.3,0-0.6,0.1-0.9,0.2c-0.4,0.1-0.7,0.3-1,0.5v6.3H36.5z"/>
	<path class="st0" d="M47.7,12.8c-0.5,0-0.9-0.1-1.3-0.3c-0.4-0.2-0.7-0.5-0.9-0.8c-0.2-0.4-0.3-0.8-0.3-1.3c0-0.5,0.1-1,0.4-1.4
		c0.3-0.4,0.7-0.7,1.1-0.9c0.3-0.1,0.7-0.2,1-0.3s0.7-0.1,1.1-0.2s0.7,0,1,0l0.4,0.5l-0.4,0.6c-0.2,0-0.4,0-0.7,0
		c-0.3,0-0.5,0.1-0.8,0.1C48.1,9,47.9,9,47.7,9.1c-0.3,0.1-0.5,0.3-0.6,0.4c-0.2,0.2-0.3,0.4-0.3,0.8c0,0.4,0.1,0.7,0.3,1
		c0.2,0.2,0.6,0.3,1,0.3c0.2,0,0.5,0,0.7-0.1c0.2-0.1,0.4-0.1,0.6-0.2c0.2-0.1,0.3-0.2,0.3-0.2l0.3,0.4L50,12
		c-0.2,0.2-0.5,0.4-0.9,0.6C48.6,12.8,48.2,12.8,47.7,12.8z M51.6,12.7H50v-1.2h-0.1V6.9c0-0.5-0.1-0.8-0.4-1s-0.6-0.2-1.1-0.2
		c-0.3,0-0.6,0-1,0.1c-0.3,0.1-0.6,0.1-0.9,0.2c-0.3,0.1-0.5,0.2-0.6,0.3L45.5,5c0.1-0.1,0.3-0.2,0.7-0.3c0.3-0.1,0.7-0.2,1.1-0.3
		c0.4-0.1,0.9-0.2,1.3-0.2c0.6,0,1.2,0.1,1.6,0.2c0.5,0.1,0.8,0.4,1,0.8s0.4,1,0.4,1.7V12.7z"/>
	<path class="st0" d="M53.9,12.7V4.4h1.5l0.1,1.1l0.1,0.6v6.6H53.9z M55.5,6.6l-0.1-1.1c0.1-0.2,0.2-0.3,0.5-0.5s0.5-0.3,0.8-0.5
		c0.3-0.1,0.7-0.2,1-0.2c0.2,0,0.3,0,0.5,0c0.1,0,0.2,0,0.3,0.1V6c-0.1,0-0.2-0.1-0.3-0.1c-0.2,0-0.4-0.1-0.7-0.1
		c-0.3,0-0.6,0-0.8,0.1c-0.2,0.1-0.5,0.2-0.6,0.3S55.6,6.5,55.5,6.6z"/>
	<path class="st0" d="M15.3,24.7v-8.3h1.5l0,0.9c0.2-0.1,0.5-0.3,0.8-0.4s0.6-0.3,1-0.4c0.4-0.1,0.7-0.2,1.1-0.2
		c0.6,0,1.1,0.1,1.4,0.3s0.6,0.5,0.8,1c0.2,0.5,0.2,1.1,0.2,1.9v5.2h-1.7v-5.1c0-0.5,0-0.8-0.1-1.1c-0.1-0.3-0.2-0.5-0.4-0.6
		s-0.5-0.2-0.9-0.2c-0.3,0-0.6,0.1-0.9,0.2c-0.4,0.1-0.7,0.3-1,0.6v6.3H15.3z M22,18.4l-0.4-1.1c0.2-0.2,0.4-0.3,0.8-0.5
		c0.3-0.2,0.7-0.3,1-0.4s0.8-0.2,1.2-0.2c0.6,0,1.1,0.1,1.4,0.3c0.4,0.2,0.6,0.5,0.8,1s0.3,1.1,0.3,1.9v5.2h-1.7v-5.1
		c0-0.5,0-0.8-0.1-1.1c-0.1-0.3-0.2-0.5-0.4-0.6c-0.2-0.1-0.5-0.2-0.9-0.2c-0.3,0-0.6,0.1-1,0.2C22.6,18,22.3,18.2,22,18.4z"/>
	<path class="st0" d="M32.8,24.8c-1.2,0-2.1-0.4-2.7-1.1c-0.6-0.8-1-1.8-1-3.2c0-0.8,0.1-1.5,0.4-2.2c0.3-0.6,0.7-1.1,1.3-1.5
		s1.2-0.6,2-0.6c0.4,0,0.8,0,1.2,0.2s0.7,0.3,1,0.6c0.3,0.3,0.5,0.6,0.7,1c0.2,0.4,0.3,0.9,0.3,1.4c0,0.3,0,0.6,0,0.8
		c0,0.2,0,0.5-0.1,0.7h-5.7l0.1-1.1h4.1c0-0.4,0-0.8-0.1-1.1S34,18,33.7,17.8c-0.2-0.2-0.6-0.3-1-0.3c-0.4,0-0.7,0.1-1,0.3
		c-0.3,0.2-0.5,0.6-0.7,1.1c-0.2,0.5-0.2,1.2-0.2,2.1c0,0.6,0.2,1.1,0.4,1.5s0.5,0.6,0.9,0.8c0.4,0.2,0.8,0.2,1.2,0.2
		c0.2,0,0.4,0,0.7-0.1c0.3,0,0.5-0.1,0.8-0.2c0.3-0.1,0.4-0.1,0.6-0.2l0.3,1c-0.2,0.1-0.4,0.3-0.7,0.4c-0.3,0.1-0.7,0.2-1,0.3
		C33.5,24.8,33.1,24.8,32.8,24.8z"/>
	<path class="st0" d="M37.9,24.7v-8.3h1.5l0,0.9c0.2-0.1,0.5-0.3,0.8-0.4c0.3-0.2,0.6-0.3,1-0.4s0.7-0.2,1.1-0.2
		c0.9,0,1.5,0.2,1.9,0.7c0.4,0.5,0.6,1.3,0.6,2.6v5.2H43v-5.1c0-0.7-0.1-1.2-0.3-1.5s-0.6-0.4-1.2-0.4c-0.2,0-0.4,0-0.6,0.1
		s-0.5,0.1-0.7,0.2s-0.5,0.2-0.7,0.4v6.3H37.9z"/>
	<path class="st0" d="M49.5,24.8c-0.5,0-1-0.1-1.3-0.3s-0.6-0.4-0.8-0.7c-0.2-0.3-0.3-0.7-0.4-1.1C47,22.3,47,21.8,47,21.3v-4.9h1.7
		v4.9c0,0.7,0.1,1.1,0.2,1.5c0.1,0.3,0.3,0.5,0.5,0.6c0.2,0.1,0.5,0.1,0.8,0.1c0.2,0,0.4,0,0.6-0.1s0.4-0.1,0.6-0.2
		c0.2-0.1,0.4-0.2,0.5-0.3v-6.5h1.7v8.5h-0.8c-0.2,0-0.4,0-0.5-0.1c-0.1-0.1-0.2-0.2-0.2-0.5v-0.6l0,0.3c-0.2,0.2-0.5,0.3-0.8,0.4
		s-0.6,0.2-0.9,0.3C50.1,24.8,49.8,24.8,49.5,24.8z"/>
</g>
<g>
</g>
<g>
</g>
<g>
</g>
<g>
</g>
<g>
</g>
<g>
</g>
<g>
</g>
<g>
</g>
<g>
</g>
<g>
</g>
<g>
</g>
<g>
</g>
<g>
</g>
<g>
</g>
<g>
</g>
</svg>
