<?xml version="1.0" encoding="utf-8"?>
<!-- Generator: Adobe Illustrator 24.0.1, SVG Export Plug-In . SVG Version: 6.00 Build 0)  -->
<svg version="1.1" id="Layer_1" xmlns="http://www.w3.org/2000/svg" xmlns:xlink="http://www.w3.org/1999/xlink" x="0px" y="0px"
	 viewBox="0 0 333 106" style="enable-background:new 0 0 333 106;" xml:space="preserve">
<style type="text/css">
	.st0{fill:#CC4E57;}
	.st1{opacity:0.67;fill:#D9525B;}
</style>
<g id="EstudoConteudo">
	<path class="st0" d="M307,1c8.3,0,15,6.7,15,15V86c0,8.3-6.7,15-15,15H16c-8.3,0-15-6.7-15-15V16C1,7.7,7.7,1,16,1H307 M307,0H16
		C7.2,0,0,7.2,0,16V86c0,8.9,7.2,16,16,16H307c8.9,0,16-7.2,16-16V16C323,7.2,315.8,0,307,0L307,0z"/>
	<path class="st1" d="M316.2,106H26.8C17.5,106,10,98.5,10,89.2V20.8C10,11.5,17.5,4,26.8,4h289.4c9.3,0,16.8,7.5,16.8,16.8v68.4
		C333,98.5,325.5,106,316.2,106z"/>
</g>
<g>
</g>
<g>
</g>
<g>
</g>
<g>
</g>
<g>
</g>
<g>
</g>
<g>
</g>
<g>
</g>
<g>
</g>
<g>
</g>
<g>
</g>
<g>
</g>
<g>
</g>
<g>
</g>
<g>
</g>
</svg>
