<?xml version="1.0" encoding="utf-8"?>
<!-- Generator: Adobe Illustrator 26.1.0, SVG Export Plug-In . SVG Version: 6.00 Build 0)  -->
<svg version="1.1" id="Layer_1" xmlns="http://www.w3.org/2000/svg" xmlns:xlink="http://www.w3.org/1999/xlink" x="0px" y="0px"
	 viewBox="0 0 323 106" style="enable-background:new 0 0 323 106;" xml:space="preserve">
<style type="text/css">
	.st0{fill:#DD6F7C;}
	.st1{fill:#99A843;stroke:#E86060;stroke-miterlimit:10;}
</style>
<g id="EstudoConteudo">
	<path class="st0" d="M26.8,4h279.4c9.3,0,16.8,7.5,16.8,16.8v68.4c0,9.3-7.5,16.8-16.8,16.8H26.8C17.5,106,10,98.5,10,89.2V20.8
		C10,11.5,17.5,4,26.8,4z"/>
	<path class="st1" d="M297,1c8.3,0,15,6.8,15,15V86c0,8.3-6.7,15-15,15H16c-8.3,0-15-6.7-15-15V16C1,7.7,7.7,1,16,1H297 M297,0H16
		C7.2,0,0,7.1,0,15.9C0,16,0,16,0,16V86c0,8.8,7.2,16,16,16c0,0,0,0,0.1,0h281c8.8,0,16-7.2,16-16V16C313,7.2,305.9,0,297,0
		C297,0,297,0,297,0z"/>
</g>
</svg>
