<svg id="Layer_1" data-name="Layer 1" xmlns="http://www.w3.org/2000/svg" viewBox="0 0 323 106"><defs><style>.cls-1{fill:#99a843;}.cls-2{fill:#bccf53;opacity:0.67;}</style></defs><title>mod-2</title><g id="EstudoConteudo"><path class="cls-1" d="M302,1A15.07,15.07,0,0,1,317,16.05V86A15.07,15.07,0,0,1,302,101H21.05A15.07,15.07,0,0,1,6,86V16.05A15.07,15.07,0,0,1,21.05,1H302m0-1H21.05A16,16,0,0,0,5,16.05V86a16,16,0,0,0,16.05,16H302A16,16,0,0,0,318,86V16.05A16,16,0,0,0,302,0Z" transform="translate(-5)"/><rect class="cls-2" x="10" y="4" width="313" height="102" rx="16.82"/></g></svg>