<?xml version="1.0" encoding="utf-8"?>
<!-- Generator: Adobe Illustrator 25.0.0, SVG Export Plug-In . SVG Version: 6.00 Build 0)  -->
<svg version="1.1" id="Camada_1" xmlns="http://www.w3.org/2000/svg" xmlns:xlink="http://www.w3.org/1999/xlink" x="0px" y="0px"
	 viewBox="0 0 140 140" style="enable-background:new 0 0 140 140;" xml:space="preserve">
<style type="text/css">
	.st0{fill:#020203;}
	.st1{fill:#16171B;}
	.st2{fill:#2F2F34;}
	.st3{fill:#4C4A50;}
	.st4{fill:#7E7B81;}
	.st5{fill:#232328;}
	.st6{fill:#3D3C42;}
	.st7{fill:#5C595F;}
	.st8{fill:#6C696F;}
	.st9{fill:#928F94;}
	.st10{fill:#FFFFFF;}
	.st11{fill:#020304;}
	.st12{fill:#525055;}
	.st13{fill:#6A676D;}
	.st14{fill:#524F55;}
	.st15{fill:#040405;}
	.st16{fill:#040406;}
	.st17{fill:#050506;}
</style>
<g>
	<path class="st0" d="M63.67,129.08c-0.8-0.47-1.22-1.15-1.48-2.06c-1.08-3.77-2.56-7.36-5.04-10.45c-1.99-2.49-2.28-2.56-5.23-1.56
		c-4.23,1.43-8.55,2.55-12.83,3.8c-4.44,1.3-8.99-0.62-10.2-6.21c-0.42-1.96-0.38-3.87,0.07-5.8c0.52-2.21,0.36-2.57-1.6-3.72
		c-0.66-0.39-1.37-0.71-1.86-1.32c-0.94-1.15-0.83-2.42-0.29-3.68c0.2-0.47,0.13-0.69-0.27-1.03c-2.76-2.32-2.85-2.94-1.11-6.08
		c0.13-0.23,0.26-0.47,0.38-0.71c1.35-2.75,0.68-3.21-1.26-4.18c-1.1-0.55-2.17-1.13-3.16-1.86c-2.35-1.76-2.93-4.07-1.36-6.54
		c1.52-2.39,3.31-4.6,4.92-6.93c2.08-3.03,3.82-6.25,5.45-9.55c0.39-0.8,0.28-1.37-0.3-1.93c-0.44-0.43-0.88-0.85-1.35-1.25
		c-2.45-2.09-3.24-4.59-1.89-7.48c1.97-4.22,2.93-8.73,4.36-13.11c3.99-12.17,12.2-19.85,24.74-22.8
		c7.24-1.71,14.55-2.95,21.97-3.42c10.11-0.64,19.39,2,27.88,7.47c4.55,2.94,8.94,6.08,12.29,10.45c3.61,4.69,5.63,10.03,6.58,15.81
		c0.77,4.7,1.2,9.42,0.74,14.2c-0.46,4.81-2,9.23-4.55,13.32c-1.55,2.47-3.35,4.76-5.08,7.1c-4.18,5.63-6.52,11.93-6.66,18.95
		c-0.1,5.36,0.92,10.58,2.35,15.72c0.9,3.22,2.14,6.29,4.08,9.04c0.6,0.84,1.06,1.77,1.42,2.74c0.55,1.45,0.04,2.43-1.46,2.89
		c-0.94,0.15-1.88,0.03-2.82,0.07c-1.91,0-3.81,0-5.72,0c-1.84,0-3.68,0-5.52,0c-1.84,0-3.69,0-5.53,0c-1.92,0-3.84,0-5.75,0
		c-1.84,0-3.69,0-5.53,0c-1.92,0-3.83,0-5.75,0c-1.83,0-3.67,0-5.5,0c-1.93,0.08-3.88-0.15-5.81,0.12
		C65.2,129.08,64.43,129.08,63.67,129.08z"/>
	<path class="st1" d="M65.97,129.08c0.86-0.48,1.78-0.17,2.67-0.22c1.03-0.06,2.06-0.01,3.09-0.01c0.07,0.05,0.1,0.1,0.07,0.15
		c-0.03,0.05-0.05,0.07-0.08,0.07C69.81,129.08,67.89,129.08,65.97,129.08z"/>
	<path class="st2" d="M77.26,128.86c1.92,0,3.84,0,5.76,0c0.07,0.05,0.09,0.1,0.07,0.15c-0.03,0.05-0.05,0.07-0.07,0.07
		c-1.92,0-3.84,0-5.76,0c-0.08-0.05-0.1-0.1-0.07-0.15C77.21,128.88,77.23,128.86,77.26,128.86z"/>
	<path class="st3" d="M88.55,128.87c1.92,0,3.84,0,5.76,0c0.07,0.05,0.09,0.1,0.07,0.14c-0.02,0.04-0.05,0.07-0.07,0.07
		c-1.92,0-3.84,0-5.76,0c-0.08-0.05-0.1-0.1-0.07-0.14C88.49,128.89,88.52,128.87,88.55,128.87z"/>
	<path class="st4" d="M105.36,128.89c1.92,0,3.84,0,5.76-0.01c0.07,0.05,0.09,0.09,0.07,0.13c-0.02,0.04-0.05,0.06-0.07,0.06
		c-1.92,0-3.84,0-5.76,0c-0.08-0.05-0.1-0.09-0.07-0.13C105.31,128.91,105.33,128.89,105.36,128.89z"/>
	<path class="st5" d="M77.26,128.86c0,0.07,0,0.15-0.01,0.22c-1.84,0-3.68,0-5.53,0c0-0.08,0-0.15,0-0.23
		C73.57,128.85,75.42,128.85,77.26,128.86z"/>
	<path class="st6" d="M88.55,128.87c0,0.07-0.01,0.14-0.01,0.21c-1.84,0-3.68,0-5.53,0c0-0.07,0-0.14,0.01-0.22
		C84.86,128.86,86.7,128.87,88.55,128.87z"/>
	<path class="st7" d="M94.3,129.08c0-0.07,0-0.14,0.01-0.21c1.84,0,3.69,0.01,5.53,0.01c0.07,0.05,0.09,0.09,0.07,0.13
		c-0.02,0.04-0.05,0.06-0.07,0.06C97.98,129.08,96.14,129.08,94.3,129.08z"/>
	<path class="st8" d="M99.82,129.08c0-0.07,0-0.13,0.01-0.2c1.84,0,3.69,0.01,5.53,0.01c0,0.06-0.01,0.13-0.01,0.19
		C103.51,129.08,101.67,129.08,99.82,129.08z"/>
	<path class="st9" d="M111.11,129.08c0-0.07,0-0.13,0.01-0.2c0.93,0,1.86,0.01,2.79,0.01c0.01,0.07,0,0.13-0.03,0.18
		C112.95,129.08,112.03,129.08,111.11,129.08z"/>
	<path class="st10" d="M110.18,124.99c-3.23,0-6.36-0.01-9.49,0c-11.17,0.05-22.33,0.09-33.5,0.18c-1.04,0.01-1.48-0.25-1.8-1.28
		c-1.3-4.17-3.48-7.88-6.49-11.29c2-0.68,3.88-1.31,5.76-1.97c2.97-1.05,5.84-2.29,8.22-4.43c1.74-1.56,2.9-3.43,3.09-5.83
		c0.12-1.53-0.58-2.58-1.85-2.66c-1.28-0.08-2.05,0.72-2.14,2.27c-0.09,1.5-0.94,2.55-2.01,3.47c-1.47,1.26-3.17,2.16-4.98,2.78
		c-9.12,3.15-18.13,6.61-27.55,8.83c-2.07,0.49-3.72-0.42-4.4-2.42c-0.58-1.68-0.62-3.37-0.19-5.08c0.84-3.31-0.08-6.21-3.31-7.82
		c-0.51-0.25-0.51-0.49-0.24-0.97c1.22-2.12,1.1-2.56-0.88-4.05c-1.49-1.12-1.5-1.13-0.64-2.71c0.55-1.02,0.96-2.09,1.08-3.24
		c0.24-2.37-0.68-4.19-2.7-5.43c-1.27-0.78-2.56-1.52-3.86-2.26c-0.82-0.47-0.85-1-0.29-1.74c1.37-1.8,2.72-3.61,4.01-5.46
		c2.39-3.42,4.43-7.05,6.26-10.81c1.29-2.64,0.75-5.3-1.47-7.23c-2.62-2.27-2.72-2.32-1.2-5.46c1.7-3.51,2.38-7.31,3.53-10.98
		c3.37-10.82,10.29-18,21.53-20.74c7.79-1.89,15.66-3.28,23.67-3.55c9.57-0.32,18.09,2.88,25.85,8.31c3.3,2.31,6.51,4.72,9.03,7.94
		c3.7,4.73,5.39,10.21,6.21,16.05c0.37,2.66,0.49,5.34,0.54,8.02c0.11,6.23-1.75,11.81-5.38,16.85c-2.35,3.26-4.91,6.37-6.81,9.94
		c-3.46,6.51-4.78,13.42-4.07,20.74c0.63,6.47,1.92,12.77,4.67,18.69C108.89,122.77,109.53,123.8,110.18,124.99z"/>
	<path class="st0" d="M116.1,53.85c0.21,5.74-0.93,11.1-4.49,15.76c-0.8,1.04-1.7,2-2.75,2.77c-1.88,1.38-3.39,3.1-4.87,4.87
		c-2.4,2.86-3.73,6.1-3.69,9.88c0.02,2.52-0.62,4.92-1.87,7.13c-0.69,1.22-1.58,2.27-2.78,3.01c-1.51,0.93-3.24,0.06-3.14-1.68
		c0.17-3.02-1.14-5.24-3.35-7.07c-1.3-1.08-2.61-2.14-3.93-3.19c-3.77-3-4.95-7.02-4.62-11.64c0.11-1.61,0.39-3.19,0.9-4.72
		c0.17-0.53,0-0.76-0.33-1.07c-1.18-1.09-2.33-2.23-3.53-3.31c-2.25-2.02-4.96-3-7.93-3.21c-4-0.29-7.95,0.29-11.91,0.78
		c-3.83,0.48-7.61,1.37-11.53,1.07c-5.47-0.41-9.57-4-10.69-9.41c-0.86-4.14-0.2-8.15,0.94-12.12c2.02-6.99,5.47-12.97,12.1-16.58
		c3.21-1.75,6.72-2.69,10.28-3.45c6-1.28,12.04-2.25,18.16-2.62c7.87-0.49,15.14,1.54,21.87,5.63c2.86,1.73,5.59,3.64,8.11,5.83
		c5.08,4.42,7.51,10.19,8.45,16.72C115.8,49.41,115.96,51.63,116.1,53.85z"/>
	<path class="st10" d="M42.79,36.7c2.02-3.68,4.49-6.63,8.44-8.39c0,1.08-0.03,2.01,0.01,2.95c0.1,2.94,2.81,5.5,5.75,5.46
		c1.15-0.02,1.97-0.69,2.07-1.72c0.12-1.2-0.51-1.98-1.79-2.21c-1.57-0.27-2.1-0.89-2.12-2.47c-0.01-0.96,0.03-1.92-0.01-2.88
		c-0.02-0.56,0.18-0.75,0.73-0.92c2.68-0.81,5.43-1.23,8.16-1.79c0.53-0.11,0.88-0.14,1.02,0.6c0.2,1.09,1.03,1.63,2.09,1.52
		c1.07-0.11,1.78-0.79,1.75-1.78c-0.04-1.13,0.46-1.35,1.37-1.35c0.15,0,0.3-0.08,0.45-0.1c0.65-0.07,1.41-0.37,1.91-0.13
		c0.53,0.26,0.13,1.11,0.23,1.69c0.18,0.99,0.87,1.66,1.87,1.68c1.07,0.03,1.71-0.54,2.03-1.52c0.02-0.07,0.02-0.15,0.03-0.23
		c0.09-0.67-0.29-1.77,0.18-1.94c1.05-0.39,2.27-0.26,3.41-0.12c0.54,0.07,0.3,0.55,0.31,0.84c0.02,2.15,0.01,4.3,0.01,6.45
		c0.01,1.77,0.67,2.44,2.41,2.45c1.11,0.01,2.23,0.02,3.34,0c1.27-0.02,2.08-0.79,2.11-1.94c0.02-1.2-0.71-1.94-2.01-2.02
		c-1.91-0.12-1.91-0.12-1.91-2.03c0-0.88,0.03-1.77-0.01-2.65c-0.02-0.5,0.12-0.68,0.64-0.58c3.06,0.58,5.97,1.57,8.75,2.97
		c0.48,0.24,0.41,0.59,0.41,0.95c0.01,1.61-0.01,3.22,0.01,4.84c0.02,1.52,0.8,2.44,2.01,2.44c1.22,0,1.99-0.94,2-2.44
		c0.01-1,0.02-1.99,0.03-2.99c0-0.02,0.05-0.04,0.17-0.15c1.08,0.78,2.18,1.58,3.3,2.36c0.39,0.27,0.38,0.62,0.38,1.01
		c-0.01,1.23,0.01,2.46-0.01,3.68c-0.02,1.57-0.48,2.08-2.04,2.37c-1.36,0.25-2.06,1.18-1.83,2.43c0.2,1.1,1.27,1.75,2.55,1.56
		c3.45-0.53,5.19-2.77,5.32-7c0.62,0.43,0.96,1.01,1.34,1.53c2.46,3.34,3.41,7.22,3.94,11.23c0.27,2.06,0.22,2.06-1.85,2.06
		c-0.54,0-1.08-0.02-1.61,0.04c-1.21,0.13-1.9,0.91-1.86,2.06c0.03,1.08,0.83,1.87,2.02,1.91c1,0.04,2,0.03,2.99,0
		c0.55-0.02,0.78,0.08,0.81,0.73c0.12,3.15,0.14,3.15-3.08,3.15c-1.88,0.01-2.68,0.55-2.74,1.86c-0.05,1.14,0.69,2,1.82,2.09
		c0.61,0.05,1.23,0.06,1.84,0c0.88-0.08,1.16,0.08,0.76,1.03c-1.08,2.56-2.51,4.83-4.87,6.38c-4.03,2.65-8.37,2.49-12.8,1.27
		c-0.17-0.05-0.46-0.18-0.46-0.27c-0.04-1.18-0.32-2.4,0.26-3.51c0.44-0.83,1.27-1,2.18-0.98c1.73,0.03,3.45,0.02,5.18,0
		c1.3-0.01,2.2-0.85,2.18-2c-0.02-1.12-0.85-1.91-2.12-1.93c-1.69-0.03-3.38,0.09-5.06-0.03c-3.79-0.26-6.7,2.49-6.65,6.36
		c-1.43-0.84-2.63-1.87-3.81-2.92c-1.61-1.42-3.12-2.96-4.74-4.37c-1.78-1.55-3.84-2.67-6.15-3.19c-0.94-0.21-0.96-0.7-0.95-1.44
		c0.02-1.39-0.7-2.23-1.88-2.28c-1.21-0.06-2.02,0.69-2.07,2.08c-0.02,0.74-0.29,0.91-0.95,0.9c-6-0.05-11.9,0.95-17.81,1.83
		c-0.49,0.07-1,0.04-1.49,0.1c-0.9,0.11-1.47,0.04-1.41-1.18c0.05-1.03-0.75-1.67-1.77-1.78c-0.99-0.11-1.75,0.41-2.03,1.34
		c-0.17,0.58-0.28,0.66-0.77,0.34c-1.83-1.18-2.7-2.96-3.21-4.98c-0.14-0.56,0.2-0.61,0.65-0.61c1.03-0.01,2.06,0.07,3.07-0.27
		c2.32-0.78,4.03-2.96,4.09-5.3c0.03-1.26-0.67-2.18-1.75-2.3c-1.16-0.12-1.94,0.53-2.19,1.84c-0.34,1.79-2.17,2.76-3.87,2.08
		c-0.39-0.15-0.25-0.44-0.22-0.66c0.31-2.31,0.95-4.55,1.58-6.8c0.15-0.52,0.51-0.37,0.82-0.37c1.8-0.01,3.61,0,5.41-0.01
		c1.32-0.01,2.21-0.82,2.21-1.97c0-1.15-0.89-1.94-2.22-1.95C45.72,36.69,44.37,36.7,42.79,36.7z"/>
	<path class="st10" d="M100.23,75.55c-2.74,3.6-3.92,7.37-3.89,11.56c0.01,1.03-0.31,2.07-0.54,3.47c-2.08-3.91-5.34-6.15-8.38-8.62
		c-2.26-1.84-2.97-4.37-2.91-7.16c0.02-0.95,0.24-1.89,0.32-2.85c0.06-0.73,0.27-0.73,0.81-0.32c2.78,2.05,5.88,3.36,9.3,3.88
		C96.61,75.76,98.28,75.9,100.23,75.55z"/>
	<path class="st0" d="M62.98,37.45c-0.35-3.81,2.59-6.99,6.77-6.7c1.45,0.1,2.91-0.15,4.35,0.19c2.49,0.58,4.2,2.44,4.58,4.98
		c0.13,0.88,0.14,1.76,0.09,2.64c-0.08,1.34-0.91,2.13-2.11,2.08c-1.11-0.05-1.87-0.89-1.91-2.16c-0.02-0.57,0.01-1.15-0.01-1.73
		c-0.05-1.21-0.7-1.89-1.95-1.93c-1.26-0.04-2.53-0.04-3.8,0c-1.29,0.04-1.94,0.7-2.03,2c-0.05,0.65,0.01,1.31-0.04,1.96
		c-0.09,1.19-0.89,1.91-2.03,1.87c-1.04-0.03-1.83-0.82-1.9-1.91C62.96,38.3,62.98,37.87,62.98,37.45z"/>
	<path class="st0" d="M57.68,40.63c0.49,0,0.88-0.01,1.26,0c1.23,0.03,2.12,0.83,2.15,1.92c0.03,1.12-0.89,1.97-2.19,2
		c-0.58,0.01-1.15-0.03-1.73,0.01c-1.23,0.09-1.95,0.84-2.03,2.07c-0.03,0.46-0.01,0.92-0.01,1.38c0.02,1.67,0.7,2.35,2.38,2.39
		c0.61,0.02,1.23-0.01,1.84,0.07c1.07,0.14,1.65,0.86,1.7,1.86c0.05,0.97-0.49,1.67-1.44,1.98c-3.4,1.11-7.42-0.93-8.18-4.38
		c-0.48-2.19-0.64-4.51,0.67-6.57C53.42,41.32,55.37,40.46,57.68,40.63z"/>
	<path class="st0" d="M91.43,48.48c-4.49,0.34-7.07-3.11-6.82-6.38c0.21-2.73,2.63-5.25,5.37-5.37c0.84-0.04,1.69-0.04,2.53-0.01
		c1.13,0.04,1.99,0.91,1.99,1.95c0,1.04-0.88,1.92-2,1.96c-0.65,0.02-1.31-0.03-1.96,0.02c-1.15,0.08-2.01,0.97-1.98,1.99
		c0.03,1.04,0.9,1.85,2.06,1.91c0.65,0.03,1.31-0.02,1.96,0.02c1.05,0.06,1.89,0.93,1.91,1.93c0.02,1-0.79,1.9-1.84,1.98
		C92.16,48.51,91.66,48.48,91.43,48.48z"/>
	<path class="st11" d="M72.87,43c-0.07,0.84,0.1,1.83-0.15,2.82c-0.66,2.61-2.64,4.4-5.3,4.66c-0.8,0.08-1.61,0.06-2.41,0.02
		c-1.16-0.06-1.99-0.89-2.02-1.95c-0.03-1.08,0.71-1.91,1.9-2.04c0.61-0.07,1.23-0.01,1.84-0.04c1.42-0.05,2.09-0.69,2.15-2.12
		c0.04-1.11,0-2.22,0.01-3.33c0.03-1.48,0.85-2.44,2.04-2.4c1.16,0.04,1.93,0.98,1.94,2.39C72.87,41.62,72.87,42.23,72.87,43z"/>
	<path class="st0" d="M102.35,50.82c-0.07,0.91,0.09,1.98-0.2,3.04c-0.71,2.63-2.95,4.44-5.67,4.49c-0.69,0.01-1.38,0.03-2.07-0.01
		c-1.13-0.07-1.95-0.93-1.95-2c0.01-1.06,0.73-1.84,1.86-1.94c0.61-0.06,1.23-0.01,1.84-0.04c1.47-0.07,2.14-0.74,2.19-2.22
		c0.04-1.11-0.01-2.22,0.01-3.33c0.03-1.42,0.82-2.32,1.99-2.31c1.18,0.01,1.97,0.92,1.99,2.33
		C102.35,49.44,102.35,50.05,102.35,50.82z"/>
	<path class="st0" d="M76.78,49.78c0-0.5-0.03-1,0.01-1.49c0.09-1.01,0.91-1.77,1.9-1.79c1.03-0.02,1.93,0.76,2,1.81
		c0.05,0.69-0.01,1.38,0.02,2.07c0.06,1.23,0.82,1.97,2.04,2.01c0.61,0.02,1.23-0.02,1.84,0.01c1.14,0.05,2,0.88,2.05,1.93
		c0.05,1.03-0.79,1.95-1.93,2.02c-1.22,0.07-2.45,0.15-3.65-0.19C78.25,55.35,76.77,53.14,76.78,49.78z"/>
</g>
</svg>
