<?xml version="1.0" encoding="utf-8"?>
<!-- Generator: Adobe Illustrator 25.0.0, SVG Export Plug-In . SVG Version: 6.00 Build 0)  -->
<svg version="1.1" id="Camada_1" xmlns="http://www.w3.org/2000/svg" xmlns:xlink="http://www.w3.org/1999/xlink" x="0px" y="0px"
	 viewBox="0 0 140 140" style="enable-background:new 0 0 140 140;" xml:space="preserve">
<style type="text/css">
	.st0{fill:#020203;}
	.st1{fill:#16171B;}
	.st2{fill:#2F2F34;}
	.st3{fill:#4C4A50;}
	.st4{fill:#7E7B81;}
	.st5{fill:#232328;}
	.st6{fill:#3D3C42;}
	.st7{fill:#5C595F;}
	.st8{fill:#6C696F;}
	.st9{fill:#928F94;}
	.st10{fill:#FFFFFF;}
	.st11{fill:#020304;}
	.st12{fill:#525055;}
	.st13{fill:#6A676D;}
	.st14{fill:#524F55;}
	.st15{fill:#040405;}
	.st16{fill:#040406;}
	.st17{fill:#050506;}
</style>
<g>
	<path class="st0" d="M98.19,11.46c1.84,0.51,3.76,0.61,5.6,1.14c9.39,2.7,16.36,8.35,20.9,17c2.84,5.41,4,11.21,3.58,17.26
		c-0.63,9.04-4.43,16.6-11.2,22.63c-0.78,0.69-1.12,1.35-1.1,2.4c0.07,3.8,0.01,7.61,0.04,11.41c0.01,1.09-0.3,1.96-1.34,2.41
		c-1.06,0.45-1.99,0.16-2.79-0.64c-2.56-2.55-5.12-5.1-7.66-7.67c-0.42-0.43-0.77-0.62-1.46-0.48c-6.66,1.41-13.39,1.44-20.03,0.19
		c-7.84-1.47-14.3-5.56-19.28-11.81c-5.19-6.52-7.69-14.01-7.19-22.32c0.68-11.32,5.91-20.12,15.38-26.35
		c4.28-2.81,9.01-4.42,14.11-4.95c0.15-0.02,0.3-0.03,0.35-0.21c0.23,0,0.46,0,0.68,0c0.13,0.14,0.3,0.11,0.46,0.12
		c0.16-0.01,0.33,0.02,0.46-0.12c3.04,0,6.09,0,9.13,0c0.13,0.14,0.3,0.11,0.46,0.12c0.16-0.01,0.33,0.02,0.46-0.12
		C97.89,11.46,98.04,11.46,98.19,11.46z"/>
	<path class="st0" d="M11.67,64.84c0.75-5.35,3.64-9.22,8.29-11.82c2.29-1.28,4.78-1.86,7.41-1.86c7.61,0.01,15.22,0,22.82,0.01
		c1.37,0,2.31,0.7,2.54,1.82c0.21,1.07-0.38,2.15-1.41,2.59c-0.48,0.2-0.97,0.15-1.46,0.15c-7.23,0-14.45,0-21.68,0
		c-7.21,0-12.16,4.94-12.16,12.14c0,11.22,0,22.44,0,33.67c0,7.21,4.94,12.16,12.14,12.16c4.53,0,9.05,0.02,13.58-0.01
		c1.12-0.01,1.86,0.4,2.62,1.25c1.67,1.85,3.53,3.54,5.44,5.41c0-1.4-0.01-2.7,0-4.01c0.01-1.77,0.88-2.64,2.67-2.64
		c7.91-0.01,15.82,0.03,23.74-0.01c4.8-0.03,8.46-2.1,10.7-6.42c0.89-1.71,1.24-3.56,1.24-5.48c-0.01-5.02-0.01-10.04,0-15.06
		c0-1.28,0.72-2.21,1.81-2.43c1.03-0.21,2.06,0.32,2.54,1.29c0.2,0.39,0.21,0.8,0.21,1.22c0,5.44,0.04,10.88-0.02,16.32
		c-0.09,7.15-6.2,13.94-13.29,14.92c-1.1,0.15-2.19,0.21-3.29,0.21c-6.88,0-13.77,0.02-20.65-0.02c-0.9-0.01-1.14,0.23-1.11,1.11
		c0.07,2.09-0.01,4.18,0.03,6.28c0.02,1.14-0.32,2.02-1.4,2.49c-1.1,0.47-2,0.06-2.78-0.72c-1.92-1.9-3.82-3.82-5.73-5.72
		c-1.13-1.13-2.09-2.69-3.45-3.25c-1.41-0.57-3.21-0.16-4.85-0.17c-3.16-0.01-6.31,0.03-9.47-0.02c-7.07-0.1-13.89-6.01-14.98-12.97
		c-0.04-0.22-0.03-0.45-0.04-0.68c-0.24-0.36,0.07-0.81-0.21-1.17c0-12.48,0-24.95,0-37.43C11.74,65.66,11.43,65.2,11.67,64.84z"/>
	<path class="st12" d="M11.67,64.84c0.05,0.41,0.11,0.82-0.21,1.17c0-0.38,0-0.76,0-1.14C11.53,64.86,11.6,64.85,11.67,64.84z"/>
	<path class="st12" d="M11.46,103.44c0.33,0.34,0.26,0.76,0.21,1.17c-0.07-0.01-0.14-0.02-0.21-0.02
		C11.46,104.2,11.46,103.82,11.46,103.44z"/>
	<path class="st13" d="M87.22,11.65c-0.19,0.02-0.37,0.04-0.44-0.2c0.15,0,0.3,0,0.46,0c0.08,0.05,0.1,0.09,0.07,0.14
		C87.28,11.63,87.25,11.65,87.22,11.65z"/>
	<path class="st14" d="M87.22,11.65c0.01-0.07,0.01-0.13,0.01-0.2c0.15,0,0.3,0,0.46,0C87.59,11.66,87.42,11.69,87.22,11.65z"/>
	<path class="st14" d="M97.29,11.65c-0.2,0.03-0.37,0.01-0.47-0.2c0.15,0,0.3,0,0.46,0c0.07,0.04,0.1,0.08,0.08,0.13
		C97.33,11.63,97.31,11.65,97.29,11.65z"/>
	<path class="st13" d="M97.29,11.65c-0.01-0.07-0.01-0.13-0.01-0.2c0.15,0,0.3,0,0.46,0C97.66,11.69,97.48,11.67,97.29,11.65z"/>
	<path class="st0" d="M50.16,86.78c-7.94,0-15.88-0.01-23.83,0.01c-1.11,0-1.92-0.42-2.37-1.42c-0.38-0.84-0.21-1.64,0.36-2.34
		c0.55-0.67,1.3-0.82,2.14-0.82c5.97,0.02,11.93,0.01,17.9,0.01c9.77,0,19.53,0,29.3,0c0.61,0,1.2-0.02,1.75,0.35
		c0.89,0.6,1.26,1.43,1.02,2.45c-0.24,1.01-0.94,1.64-2,1.74c-0.6,0.06-1.21,0.02-1.82,0.02C65.14,86.78,57.65,86.78,50.16,86.78z"
		/>
	<path class="st0" d="M45.59,99.56c-6.43,0-12.85-0.01-19.28,0.01c-1.11,0-1.92-0.44-2.36-1.44c-0.37-0.84-0.2-1.65,0.39-2.34
		c0.53-0.62,1.23-0.81,2.04-0.8c3.08,0.02,6.16,0.01,9.24,0.01c9.73,0,19.47,0,29.2,0c2.02,0,3.21,1.49,2.52,3.14
		c-0.45,1.07-1.34,1.43-2.48,1.43c-6.24-0.02-12.47-0.01-18.71-0.01C45.97,99.56,45.78,99.56,45.59,99.56z"/>
	<path class="st0" d="M42.73,73.99c-5.51,0-11.02,0.01-16.52-0.01c-1.26,0-2.19-0.75-2.39-1.85c-0.19-1.04,0.35-2.05,1.33-2.52
		c0.4-0.19,0.81-0.19,1.22-0.19c10.9,0,21.8,0,32.71,0c1.57,0,2.57,0.89,2.59,2.25c0.02,1.41-1,2.31-2.64,2.31
		C53.6,74,48.16,73.99,42.73,73.99z"/>
	<path class="st15" d="M74.24,99.55c-1.28,0.01-2.32-1.04-2.3-2.32c0.02-1.23,1.03-2.23,2.26-2.24c1.28-0.01,2.32,1.04,2.3,2.32
		C76.48,98.54,75.47,99.54,74.24,99.55z"/>
	<path class="st10" d="M111.2,77.89c-1.57-1.58-3.2-3.16-4.75-4.8c-1.03-1.09-2.12-1.38-3.58-0.95c-4.75,1.38-9.62,1.1-14.48,1
		c-5.29-0.12-10.15-1.65-14.54-4.56c-7.03-4.66-11.34-11.15-12.65-19.52c-1.28-8.15,0.65-15.52,5.72-22.01
		c4.61-5.9,10.65-9.51,18.09-10.58c5.29-0.76,10.62-0.81,15.88,0.22c11.33,2.22,20.45,11.43,22.32,22.78
		c1.78,10.83-1.5,20-9.93,27.15c-1.29,1.1-2,2.2-1.89,3.96c0.15,2.39,0.03,4.79,0.02,7.18C111.41,77.79,111.35,77.81,111.2,77.89z"
		/>
	<path class="st0" d="M90.61,48.77c0-0.72-0.01-1.44,0-2.17c0.05-2.49,1.06-3.82,3.46-4.56c1.96-0.6,3.26-1.81,3.74-3.86
		c0.67-2.87-1.21-5.56-4.29-6.09c-2.64-0.45-5.35,1.66-5.62,4.39c-0.1,1.04-0.26,2.04-1.3,2.61c-1.53,0.86-3.47-0.32-3.4-2.13
		c0.21-5.48,4.53-9.6,9.97-9.54c5.02,0.06,9.36,4.43,9.35,9.53c-0.01,4.4-2.38,7.82-6.5,9.26c-0.67,0.23-0.85,0.56-0.82,1.22
		c0.05,1.37,0.04,2.74,0.01,4.1c-0.03,1.51-1.04,2.59-2.33,2.57c-1.28-0.02-2.19-1.02-2.26-2.49c0-0.08,0-0.15,0-0.23
		C90.61,50.52,90.61,49.65,90.61,48.77z"/>
	<path class="st16" d="M90.63,60.87c-0.02-1.25,1.03-2.34,2.25-2.36c1.19-0.01,2.34,1.14,2.33,2.33c-0.01,1.19-1.04,2.22-2.24,2.25
		C91.68,63.14,90.65,62.16,90.63,60.87z"/>
</g>
</svg>
