<?xml version="1.0" encoding="utf-8"?>
<!-- Generator: Adobe Illustrator 24.0.1, SVG Export Plug-In . SVG Version: 6.00 Build 0)  -->
<svg version="1.1" id="Layer_1" xmlns="http://www.w3.org/2000/svg" xmlns:xlink="http://www.w3.org/1999/xlink" x="0px" y="0px"
	 viewBox="0 0 445 364" style="enable-background:new 0 0 445 364;" xml:space="preserve">
<style type="text/css">
	.st0{fill:#FFFFFF;}
	.st1{fill:#C64DF6;}
	.st2{fill:#6960E5;}
	.st3{fill:#FF2B8C;}
	.st4{fill:#FF36CE;}
</style>
<g>
	<image style="overflow:visible;opacity:0.75;" width="445" height="364" xlink:href="679763B6.png" >
	</image>
	<g>
		<path class="st0" d="M421.2,74.4v142.3c0,67.8-55,122.8-122.8,122.8H24.2v-316h346.1C398.4,23.5,421.2,46.3,421.2,74.4z"/>
	</g>
</g>
<g>
	<path class="st1" d="M229.6,130.8c0.1-0.1,0.1-0.2,0.2-0.4c1.9-4.6,4.9-9.6,8-13.4c0.2-0.2,0.6-0.4,0.9-0.5
		c3.7-0.5,7.5-0.8,11.3-0.5c1.5,0.1,3,0.2,4.5,0.5c3.9-1.1,7.4-3.2,9.5-4.7c-2.2-0.9-4.6-1.6-7-2.1c-7.4-1.4-14.7-1.1-22.1,0.3
		c-0.3,0.1-0.7,0.3-0.9,0.5c-3.3,3.7-6,7.7-8.3,12.1c-0.7,1.3-1.8,3.6-2.4,4.9c0.9,0.5,2,0.8,2.9,1.3
		C227.4,129.3,228.4,130,229.6,130.8"/>
	<path class="st1" d="M277.8,129.9c-0.4-4.5-2.1-8.3-4.9-11.6c-1.7,1.6-4,3.1-5.9,4.1c1.3,1.4,2.4,3.1,3.1,5.1
		c1.5,4.3,0.4,7.9-3.2,10.6c-3.8,2.7-8.1,3.5-12.6,2.5c-0.8-0.2-1.7-0.3-2.5-0.5c-0.4,1.1-0.7,2.2-1.1,3.2c-1.6,4.4-4.6,7.5-8.9,9.2
		c-3.6,1.4-6.8,0.6-9.5-2.1c-1.4-1.4-2.4-4.1-3.1-5.9c-0.1-0.4-0.4-0.7-0.7-1c-1.2-0.9-2.3-1.8-3.6-2.6c-1.3-0.8-2.6-1.6-4-2.4
		c0,0.3,0,1.6,0.1,1.7c0.1,6.1,2.3,11.3,6.6,15.6c4.3,4.1,9.4,5.5,15.2,3.9c6.1-1.7,10.4-5.5,13.4-11c0.2-0.4,0.5-0.6,1-0.6
		c5.5,0.1,10.5-1.4,14.9-4.9C276.1,139.8,278.2,135.3,277.8,129.9"/>
	<path class="st2" d="M124.6,218.1l6.9,2.5l-0.9,5.5h-22.7l-0.9-5.5l6.2-2.5l-3.5-9.4H91.5l-3.7,9.4l7.3,2.4l-0.8,5.6H74.8l-0.9-5.5
		l6.8-2.5l17.9-46.6l8.5-1.3L124.6,218.1z M100.7,184.8l-6.9,17.8h13.7l-4.9-13.3L100.7,184.8z"/>
	<path class="st2" d="M263.6,188.8c10.1,0,16.1,5.2,16.1,14.7v16.2l4.4,1.7l-0.9,4.8h-9.9l-2.3-1.8c-2.3,1.6-5.5,2.7-10.1,2.7
		c-7,0-13.2-3.7-13.2-10.8c0-10.6,12.4-13,22.2-13v-2.7c0-4.4-3.2-6.6-6.6-6.6c-1.9,0-4.3,0.5-5.8,0.9l-1.7,5.9l-5.2-0.9v-7.5
		C255,189.8,259.7,188.8,263.6,188.8 M258.3,215.4c0,4.4,3.2,5.9,5.4,5.9c2.1,0,4.8-1.2,6.2-3.1v-10.2
		C262.6,207.9,258.3,211,258.3,215.4"/>
	<path class="st2" d="M312.4,194.7c-0.5-0.2-2-0.3-3.1-0.3c-1.6,0-4.8,0.7-7,1.6v23.6l6.5,1.7l-0.9,4.8h-19.3l-0.9-4.8l4.9-1.7
		v-25.2h-3.5l-0.9-4.8l10.1-0.9l3.2,2c2.4-0.9,6.5-2,10.1-2c2.4,0,5.1,0.5,8,1.7v9.1l-5.2,0.9L312.4,194.7z"/>
	<path class="st2" d="M361.3,207.8c0,11.9-6.8,19-19.4,19c-12.6,0-19.5-7.4-19.5-19c0-11.6,7.6-19,19.5-19
		C353.6,188.8,361.3,195.9,361.3,207.8 M332.4,207.6c0,8.6,3.4,14.4,9.4,14.4c5.9,0,9.5-5.7,9.5-14.4c0-8.7-3.7-13.9-9.5-13.9
		C336.1,193.7,332.4,199,332.4,207.6"/>
	<path class="st2" d="M204.5,222c-4.7,0-8.9-4.9-9.4-13.1V202c0-8.5-5.4-13.2-15.5-13.2c-3.9,0-8.6,1.5-11.2,2.9
		c-2.3-2.1-6-2.9-10.2-2.9c-3.3,0-7.2,1.2-9.8,2l-3.2-2l-9.8,0.9l0.9,4.8h3.5v25.2l-4.9,1.7l0.9,4.8h17.8l0.9-4.8l-4.9-1.7V196
		c2-0.7,4.8-1.6,6.8-1.6c3,0,6.2,2.1,6.2,6.2v19l-4.9,1.7l0.9,4.8h17.9l0.9-4.8l-5-1.7v-17.7c0-2.3-0.4-4.1-1.2-5.9
		c1.5-0.7,4.1-1.6,6.9-1.6c3.3,0,7.1,2.3,7.1,6.9v5.6c0,0.3,0,0.5,0,0.8c0,11.5,7,19.1,19.1,19.1h1.6V222H204.5z"/>
	<path class="st2" d="M201,133.5c0.8,2.9,1.1,5.8,0.3,8.6c-0.1,0.3-1.3,1.5-1.5,1.6c-2.3,2.2-4.3,4.7-5.5,7.7
		c-1.2,3.1-1.4,6.3-0.3,9.5c1.2,3.6,3.8,5.6,7.5,6c4.6,0.5,8.7-0.9,12.1-3.9c0.7-0.6,1.4-1.3,2.1-1.9c0.9,0.8,1.8,1.6,2.7,2.4
		c3.9,3.1,8.3,4.3,13.3,3.1c2-0.5,3.6-1.6,4.8-3.3c0.1-0.2,0.8-1.6,0.9-1.6c2.6,0.2,5-0.2,7.5-1c0.1,0,0.1,0,0.2,0
		c-0.4,1.6-1.4,4.5-2.3,5.9c-2.7,4.5-6.7,6.9-11.8,7.5c-5.3,0.7-10.3-0.5-14.9-3.3c-0.3-0.2-0.6-0.2-0.9,0c-4,2.5-8.4,3.6-13.2,3.5
		c-8.1-0.3-14.2-5.6-15.6-13.6c-1.2-7,0.7-13.1,5-18.6C193.9,139.2,197.8,135.8,201,133.5"/>
	<path class="st2" d="M212.5,135.4c-0.3-2.4-0.8-4.2-1.8-6.5c1.3-0.8,3.6-1.8,5-2.3c0.1,0,0.3,0,0.5,0.1c8.1,2.8,15.5,6.8,21.6,13
		c2.3,2.2,4.6,6,6,8.9c0.1,0.2,0.2,0.4,0.3,0.6c0,0.1,0,0.1,0.1,0.2c-1.8,1.3-3.7,2.4-6,2.1c-0.7-0.1-1.1-0.4-1.5-1
		c-2-3.5-5.4-7.3-8.6-9.6c-3.6-2.6-7.6-4.7-11.7-6.3c-0.3-0.1-0.7-0.1-1,0c-0.6,0.2-1.2,0.5-1.8,0.7
		C213.5,135.1,212.5,135.4,212.5,135.4"/>
	<path class="st3" d="M230.3,100.5c-0.8-2.9-1.1-5.8-0.3-8.6c0.1-0.3,0.3-0.5,0.5-0.7c2.3-2.2,5.3-5.7,6.5-8.7
		c1.2-3.1,1.4-6.3,0.3-9.5c-1.2-3.6-3.8-5.6-7.5-6c-4.6-0.5-8.7,0.9-12.1,3.9c-0.7,0.6-1.4,1.3-2.1,1.9c-0.9-0.8-1.8-1.6-2.7-2.4
		c-3.9-3.1-8.3-4.3-13.3-3.1c-2,0.5-3.6,1.6-4.8,3.3c-0.1,0.2-0.4,0.3-0.5,0.3c-2.6-0.2-5,0.2-7.5,1c-0.1,0-0.1,0-0.2,0
		c0.4-1.6,1-3.2,1.8-4.6c2.7-4.5,6.7-6.9,11.8-7.5c5.3-0.7,10.3,0.5,14.9,3.3c0.3,0.2,0.6,0.2,0.9,0c4-2.5,8.4-3.6,13.2-3.5
		c8.1,0.3,14.2,5.6,15.6,13.6c1.2,7-0.7,13.1-5,18.6C237.4,94.8,233.5,98.2,230.3,100.5"/>
	<path class="st3" d="M219.2,98c0.1,1.2,0.3,2.4,0.6,3.6c0.3,1.1,0.7,2.3,1.2,3.5c-1.3,0.5-4,1.9-5.4,2.3c-0.1,0-0.3,0-0.5-0.1
		c-8.1-2.8-15.5-6.8-21.6-13c-2.3-2.2-4.1-4.8-5.5-7.7c-0.1-0.2-0.2-0.4-0.3-0.6c0-0.1,0-0.1-0.1-0.2c1.8-1.3,3.7-2.4,6-2.1
		c0.7,0.1,1.1,0.4,1.5,1c2,3.5,4.9,6.1,8.1,8.4c3.6,2.6,7.6,4.7,11.7,6.3c0.3,0.1,0.7,0.1,1,0C216.6,99.5,218.6,98.3,219.2,98
		C219.2,98,219.3,98,219.2,98"/>
	<path class="st2" d="M223.7,222h-1.5v4.8h1.6c12.1,0,21.6-12.8,21.6-24.4c0-12-10.3-16-16.3-15.8c-3.3,0.1-7.9,0.5-12.9,5.3l-1,1.2
		l-0.2-0.2c0,0-4.2-8-16.1-5.7c-0.3,0.1-0.5,0-0.8,0l3.1,5.6c0.1,0,0.1,0,0.2,0c2.5,0,5.9,1.4,7.7,3.7v39.4l-4.9,1.7l0.9,4.8H223
		l0.9-4.8l-5-1.7v-39.2c1.7-2.4,5.5-4.9,8-4.9c4.4,0,8.2,1.7,8.4,9.5C235.6,210.6,228.8,222,223.7,222"/>
	<path class="st4" d="M232.7,110c-1.2-2.1-2.3-4.4-3.2-6.7c-1.4-3.8-2.3-7.7-1.6-11.8c0.6-3.7,2.3-6.7,5.3-9
		c0.7-0.5,1.1-1.1,1.3-1.9c0.6-2.1,0.7-4.3,0.1-6.5c-1.4,0.3-2.7,0.7-3.9,1.4c-5.2,3-8.3,7.6-9.7,13.4c-1.1,4.6-0.6,9.3,0.7,13.8
		c1.4,4.6,3.4,8.8,5.8,12.7L232.7,110z"/>
	<path class="st4" d="M277.5,101.2c-0.5-3.9-2.2-7.2-5.1-9.7c-4.5-4-9.8-5.7-15.7-5.6c-0.5,0-0.7-0.1-0.9-0.5
		c-1.7-3.3-4.2-6-7.2-8.1c-0.2-0.1-0.3-0.2-0.5-0.3c-0.1,1.4-0.2,2.7-0.4,4c-0.2,1.3-0.6,2.5-0.9,3.8c0,0.2,0.1,0.5,0.2,0.6
		c1.8,1.9,3,4.1,3.7,6.5c0.2,0.7,0.5,1.4,0.7,2.1c0.2,0,0.4-0.1,0.5-0.1c0.5-0.1,1.1-0.2,1.6-0.3c4.6-1.1,8.9-0.4,12.8,2.2
		c3.8,2.5,5,6.2,3.6,10.5c-1,3.2-3,5.7-5.7,7.5c-3.5,2.4-7.5,3.4-11.7,4c-4.6,0.6-9.3,0.4-13.9-0.2c-0.3,0.3-1,1-1.9,2.4
		c-0.6,1.1-1,1.9-1.9,4.3c0.1,0,0.1,0,0.2,0.1c5.8,1,11.6,1.3,17.5,0.8c3.9-0.4,7.7-1.2,11.4-2.8c6.5-2.9,11-7.5,13-14.4
		c0.3-1.1,0.5-2.3,0.7-3.5v-2.7C277.5,101.5,277.5,101.4,277.5,101.2"/>
	<path class="st1" d="M180.6,142.1c-0.2-0.7-0.5-1.4-0.7-2.1c-0.2,0-0.4,0.1-0.5,0.1c-0.5,0.1-1.1,0.2-1.6,0.3
		c-4.6,1.1-8.9,0.4-12.8-2.2c-3.8-2.5-5-6.2-3.6-10.5c0.7-2.1,1.7-3.9,3.2-5.4c-1.9-1.1-4.2-2.6-5.9-4.2c-1.9,2.2-3.3,4.9-4.2,8
		c-0.3,1.1-0.5,2.3-0.7,3.5v2.7c0,0.2,0.1,0.3,0.1,0.5c0.5,3.9,2.2,7.2,5.1,9.7c4.5,4,9.8,5.7,15.7,5.6c0.5,0,0.7,0.1,0.9,0.5
		c1.7,3.3,5.5,6.9,8.5,9c0.2,0.1,0.3,0.2,0.5,0.3c0.1-1.4,0.2-2.7,0.4-4c0.2-1.3,0.6-2.5,0.9-3.8c0-0.2-0.1-0.5-0.2-0.6
		C183.8,147.7,181.3,144.6,180.6,142.1"/>
	<path class="st1" d="M209.5,131.2c-2.3-7.7-6.4-14.4-11.5-20.5c-0.5-0.5-1-0.9-1.7-1c-5.8-1-11.6-1.3-17.5-0.8
		c-3.8,0.4-7.6,1.2-11.1,2.7c2.1,1.5,5.6,3.6,9.6,4.7c0.5-0.1,1.1-0.2,1.6-0.2c4.7-0.6,9.5-0.4,14.2,0.3c0.3,0,0.6,0.2,0.7,0.4
		c3.3,4.2,6.2,8.8,8.1,13.8c1.4,3.8,2.3,7.7,1.6,11.8c-0.6,3.7-3.9,7.3-6.9,9.5c-0.7,0.5-1.1,1.1-1.3,1.9c-0.6,2.1-0.7,4.3-0.1,6.5
		c1.4-0.3,4.2-1.3,5.4-2c5.2-3,8.3-7.6,9.7-13.4C211.4,140.3,210.9,135.7,209.5,131.2"/>
	<path class="st3" d="M201.5,102.8c-0.1,0.1-0.1,0.2-0.2,0.4c-0.8,2-1.9,4.2-3.1,6.4l5.2,5.7c0.7-1.2,1.4-2.4,2.1-3.7
		c0.7-1.3,1.6-4,2.3-5.3c-1.2-0.6-2.4-1-3.6-1.7C203.4,104,202.4,103.4,201.5,102.8"/>
	<path class="st4" d="M203.9,78.3c-4.3-4.1-9.4-5.5-15.2-3.9c-6.1,1.7-10.4,5.5-13.4,11c-0.2,0.4-0.5,0.6-1,0.6
		c-5.5-0.1-10.5,1.4-14.9,4.9c-4.2,3.4-6.4,7.9-5.9,13.4c0.4,5.4,2.8,9.9,6.8,13.6c4,3.7,8.8,5.6,14.1,6.6
		c7.4,1.4,14.7,1.1,22.1-0.3c0,0,0,0,0.1,0c-1-2.5-1.3-3.3-2-4.4c-0.7-1.2-1.3-1.8-1.7-2.2c-0.1,0-0.1,0-0.2,0
		c-3.7,0.5-7.5,0.8-11.3,0.5c-3.9-0.2-7.7-0.9-11.3-2.4c-4.2-1.8-7.3-4.7-8.8-9.1c-1.5-4.3-0.4-7.9,3.2-10.6
		c3.8-2.7,8.1-3.5,12.6-2.5c0.8,0.2,1.7,0.3,2.5,0.5c0.4-1.1,0.7-2.2,1.1-3.2c1.6-4.4,4.6-7.5,8.9-9.2c3.6-1.4,6.8-0.6,9.5,2.1
		c1.4,1.4,2.3,4.3,3,6.1c0.1,0.4,0.4,0.7,0.7,1c1.2,0.9,2.3,1.8,3.6,2.6c1.3,0.8,2.6,1.6,4,2.4c0-0.3,0-1.8,0-1.9
		C210.4,87.8,208.2,82.5,203.9,78.3"/>
	<g>
		<path class="st2" d="M73.1,263.8h-1.8l4.2-11.2h1.7l4.1,11.2h-1.9l-2.8-8.3l-0.3-1.1l-0.3,1.1L73.1,263.8z M73.4,261.1l0.3-1.3
			h5.1l0.3,1.3H73.4z"/>
		<path class="st2" d="M82.6,267.5v-12h1.6v1l0.1,0.2v6.4l0,0.3l0,1.4v2.7H82.6z M85.7,263.9c-0.5,0-0.9-0.1-1.3-0.2
			c-0.3-0.1-0.6-0.2-0.7-0.3l0.6-1.1c0.2,0.1,0.4,0.2,0.6,0.3c0.2,0.1,0.5,0.1,0.9,0.1c0.4,0,0.8-0.1,1.2-0.4s0.6-0.6,0.8-1.1
			c0.2-0.5,0.3-1,0.3-1.7c0-1-0.2-1.7-0.5-2.2c-0.4-0.4-0.9-0.7-1.5-0.7c-0.4,0-0.7,0.1-1,0.2c-0.3,0.1-0.5,0.3-0.7,0.4l-0.3-0.8
			c0.1-0.1,0.3-0.3,0.5-0.4c0.2-0.2,0.5-0.3,0.8-0.5c0.3-0.1,0.7-0.2,1.2-0.2c0.6,0,1.1,0.1,1.6,0.4c0.5,0.3,0.9,0.7,1.2,1.3
			c0.3,0.6,0.5,1.3,0.5,2.2c0,0.9-0.2,1.7-0.5,2.4c-0.3,0.7-0.8,1.2-1.5,1.6C87.3,263.7,86.5,263.9,85.7,263.9z"/>
		<path class="st2" d="M91.7,263.8v-8.3h1.5l0.1,1.1l0.1,0.6v6.6H91.7z M93.3,257.7l-0.1-1.1c0.1-0.2,0.2-0.3,0.5-0.5
			c0.2-0.2,0.5-0.3,0.8-0.5c0.3-0.1,0.7-0.2,1-0.2c0.2,0,0.4,0,0.5,0c0.1,0,0.2,0,0.3,0.1v1.6c-0.1,0-0.2-0.1-0.3-0.1
			c-0.2,0-0.4-0.1-0.7-0.1c-0.3,0-0.6,0-0.8,0.1c-0.2,0.1-0.5,0.2-0.6,0.3S93.4,257.6,93.3,257.7z"/>
		<path class="st2" d="M100.8,263.9c-1.2,0-2.1-0.4-2.8-1.1c-0.6-0.8-1-1.8-1-3.1c0-0.8,0.1-1.5,0.4-2.2c0.3-0.6,0.7-1.1,1.3-1.5
			c0.6-0.4,1.2-0.6,2.1-0.6c0.4,0,0.8,0,1.2,0.2c0.4,0.1,0.7,0.3,1,0.6c0.3,0.3,0.5,0.6,0.7,1s0.3,0.9,0.3,1.4c0,0.3,0,0.6,0,0.8
			c0,0.2,0,0.5-0.1,0.7h-5.8l0.1-1.1h4.1c0-0.4,0-0.8-0.1-1.1c-0.1-0.4-0.2-0.6-0.5-0.9c-0.2-0.2-0.6-0.3-1-0.3
			c-0.4,0-0.7,0.1-1,0.3c-0.3,0.2-0.5,0.6-0.7,1.1c-0.2,0.5-0.2,1.2-0.2,2.1c0,0.6,0.2,1.1,0.4,1.5c0.2,0.4,0.5,0.6,0.9,0.8
			c0.4,0.2,0.8,0.2,1.2,0.2c0.2,0,0.4,0,0.7-0.1s0.5-0.1,0.8-0.2c0.3-0.1,0.5-0.1,0.6-0.2l0.3,1c-0.2,0.1-0.4,0.3-0.7,0.4
			s-0.7,0.2-1,0.3C101.6,263.9,101.2,263.9,100.8,263.9z"/>
		<path class="st2" d="M106,263.8v-8.3h1.5l0,0.9c0.2-0.1,0.5-0.3,0.8-0.4c0.3-0.2,0.6-0.3,1-0.4c0.4-0.1,0.7-0.2,1.1-0.2
			c0.9,0,1.5,0.2,1.9,0.7c0.4,0.5,0.6,1.3,0.6,2.6v5.2h-1.7v-5.1c0-0.7-0.1-1.2-0.3-1.5c-0.2-0.3-0.6-0.4-1.2-0.4
			c-0.2,0-0.4,0-0.6,0.1s-0.5,0.1-0.7,0.2c-0.2,0.1-0.5,0.2-0.7,0.4v6.2H106z"/>
		<path class="st2" d="M118.1,263.9c-0.6,0-1.1-0.1-1.6-0.4c-0.5-0.3-0.9-0.7-1.2-1.3c-0.3-0.6-0.5-1.3-0.5-2.2s0.2-1.7,0.5-2.4
			s0.8-1.2,1.5-1.6c0.6-0.4,1.4-0.6,2.2-0.6c0.5,0,0.9,0.1,1.3,0.2c0.3,0.1,0.6,0.2,0.7,0.3l-0.6,1.1c-0.1-0.1-0.3-0.2-0.6-0.3
			c-0.2,0-0.5-0.1-0.9-0.1c-0.4,0-0.8,0.1-1.1,0.4s-0.6,0.6-0.8,1c-0.2,0.5-0.3,1-0.3,1.7c0,1,0.2,1.7,0.5,2.1s0.8,0.7,1.5,0.7
			c0.4,0,0.7-0.1,1-0.2c0.3-0.1,0.5-0.3,0.7-0.4l0.3,0.8c-0.1,0.1-0.3,0.3-0.5,0.5c-0.2,0.2-0.5,0.3-0.8,0.5
			C119,263.8,118.6,263.9,118.1,263.9z M120.4,263.8v-1.1l-0.1,0v-5.9l0.1,0l-0.1-1.6v-3.4h1.7v12.1H120.4z"/>
		<path class="st2" d="M127.7,263.9c-1.2,0-2.1-0.4-2.8-1.1c-0.6-0.8-1-1.8-1-3.1c0-0.8,0.1-1.5,0.4-2.2c0.3-0.6,0.7-1.1,1.3-1.5
			c0.6-0.4,1.2-0.6,2.1-0.6c0.4,0,0.8,0,1.2,0.2c0.4,0.1,0.7,0.3,1,0.6c0.3,0.3,0.5,0.6,0.7,1s0.3,0.9,0.3,1.4c0,0.3,0,0.6,0,0.8
			c0,0.2,0,0.5-0.1,0.7h-5.8l0.1-1.1h4.1c0-0.4,0-0.8-0.1-1.1c-0.1-0.4-0.2-0.6-0.5-0.9c-0.2-0.2-0.6-0.3-1-0.3
			c-0.4,0-0.7,0.1-1,0.3c-0.3,0.2-0.5,0.6-0.7,1.1c-0.2,0.5-0.2,1.2-0.2,2.1c0,0.6,0.2,1.1,0.4,1.5c0.2,0.4,0.5,0.6,0.9,0.8
			c0.4,0.2,0.8,0.2,1.2,0.2c0.2,0,0.4,0,0.7-0.1s0.5-0.1,0.8-0.2c0.3-0.1,0.5-0.1,0.6-0.2l0.3,1c-0.2,0.1-0.4,0.3-0.7,0.4
			s-0.7,0.2-1,0.3C128.4,263.9,128,263.9,127.7,263.9z"/>
		<path class="st2" d="M132.8,263.8v-8.3h1.5l0,0.9c0.2-0.1,0.5-0.3,0.8-0.4c0.3-0.2,0.6-0.3,1-0.4c0.4-0.1,0.7-0.2,1.1-0.2
			c0.9,0,1.5,0.2,1.9,0.7c0.4,0.5,0.6,1.3,0.6,2.6v5.2H138v-5.1c0-0.7-0.1-1.2-0.3-1.5c-0.2-0.3-0.6-0.4-1.2-0.4
			c-0.2,0-0.4,0-0.6,0.1s-0.5,0.1-0.7,0.2c-0.2,0.1-0.5,0.2-0.7,0.4v6.2H132.8z"/>
		<path class="st2" d="M144.9,263.9c-0.6,0-1.1-0.1-1.6-0.4c-0.5-0.3-0.9-0.7-1.2-1.3c-0.3-0.6-0.5-1.3-0.5-2.2s0.2-1.7,0.5-2.4
			s0.8-1.2,1.5-1.6c0.6-0.4,1.4-0.6,2.2-0.6c0.5,0,0.9,0.1,1.3,0.2c0.3,0.1,0.6,0.2,0.7,0.3l-0.6,1.1c-0.1-0.1-0.3-0.2-0.6-0.3
			c-0.2,0-0.5-0.1-0.9-0.1c-0.4,0-0.8,0.1-1.1,0.4s-0.6,0.6-0.8,1c-0.2,0.5-0.3,1-0.3,1.7c0,1,0.2,1.7,0.5,2.1s0.8,0.7,1.5,0.7
			c0.4,0,0.7-0.1,1-0.2c0.3-0.1,0.5-0.3,0.7-0.4l0.3,0.8c-0.1,0.1-0.3,0.3-0.5,0.5c-0.2,0.2-0.5,0.3-0.8,0.5
			C145.8,263.8,145.4,263.9,144.9,263.9z M147.2,263.8v-1.1l-0.1,0v-5.9l0.1,0l-0.1-1.6v-3.4h1.7v12.1H147.2z"/>
		<path class="st2" d="M154.4,263.9c-0.7,0-1.2-0.1-1.7-0.4s-0.9-0.6-1.1-1s-0.5-0.9-0.6-1.4c-0.1-0.5-0.2-1.1-0.2-1.7
			c0-0.9,0.2-1.6,0.5-2.2c0.3-0.6,0.8-1.1,1.4-1.4c0.6-0.3,1.2-0.5,1.9-0.5c0.9,0,1.6,0.2,2.2,0.6c0.5,0.4,0.9,1,1.2,1.6
			s0.4,1.4,0.3,2.2c0,0.9-0.2,1.6-0.5,2.2s-0.8,1.1-1.4,1.4C155.8,263.8,155.2,263.9,154.4,263.9z M154.5,262.7
			c0.7,0,1.2-0.2,1.5-0.8c0.3-0.5,0.5-1.2,0.5-2.2c0-0.6-0.1-1.1-0.2-1.6c-0.1-0.5-0.4-0.8-0.7-1.1c-0.3-0.3-0.7-0.4-1.1-0.4
			c-0.7,0-1.2,0.2-1.5,0.7c-0.3,0.5-0.5,1.2-0.5,2.1c0,0.6,0.1,1.1,0.2,1.6c0.1,0.5,0.4,0.9,0.6,1.2S154,262.7,154.5,262.7z"/>
		<path class="st2" d="M162.4,263.3l0.2-1.3c0.1,0.1,0.2,0.1,0.5,0.2c0.2,0.1,0.5,0.2,0.8,0.3c0.3,0.1,0.7,0.1,1,0.1
			c0.5,0,0.8-0.1,1.1-0.2c0.2-0.2,0.4-0.4,0.4-0.7c0-0.2-0.1-0.4-0.2-0.6c-0.1-0.2-0.4-0.3-0.6-0.4c-0.3-0.1-0.6-0.3-0.9-0.4
			c-0.4-0.2-0.8-0.4-1.2-0.7c-0.3-0.2-0.6-0.5-0.8-0.8c-0.2-0.3-0.3-0.7-0.3-1.2c0-0.5,0.2-0.9,0.4-1.2c0.3-0.3,0.6-0.6,1.1-0.7
			c0.5-0.2,1-0.2,1.5-0.2c0.5,0,1,0.1,1.4,0.2c0.4,0.1,0.7,0.2,0.8,0.3l-0.3,1.3c-0.1-0.1-0.2-0.1-0.4-0.2c-0.2-0.1-0.4-0.1-0.6-0.2
			c-0.2,0-0.5-0.1-0.7-0.1c-0.5,0-0.9,0.1-1.1,0.2c-0.3,0.1-0.4,0.4-0.4,0.6c0,0.4,0.1,0.6,0.4,0.8s0.6,0.4,0.9,0.5
			c0.5,0.2,1,0.5,1.4,0.7s0.7,0.5,1,0.8c0.2,0.3,0.4,0.7,0.4,1.2c0,0.8-0.3,1.4-0.8,1.8s-1.3,0.6-2.2,0.6c-0.4,0-0.8,0-1.1-0.1
			c-0.4-0.1-0.7-0.1-1-0.2C162.8,263.5,162.6,263.4,162.4,263.3z"/>
		<path class="st2" d="M173.2,263.9c-0.7,0-1.2-0.1-1.7-0.4s-0.9-0.6-1.1-1s-0.5-0.9-0.6-1.4c-0.1-0.5-0.2-1.1-0.2-1.7
			c0-0.9,0.2-1.6,0.5-2.2c0.3-0.6,0.8-1.1,1.4-1.4c0.6-0.3,1.2-0.5,1.9-0.5c0.9,0,1.6,0.2,2.2,0.6c0.5,0.4,0.9,1,1.2,1.6
			s0.4,1.4,0.3,2.2c0,0.9-0.2,1.6-0.5,2.2s-0.8,1.1-1.4,1.4C174.6,263.8,173.9,263.9,173.2,263.9z M173.2,262.7
			c0.7,0,1.2-0.2,1.5-0.8c0.3-0.5,0.5-1.2,0.5-2.2c0-0.6-0.1-1.1-0.2-1.6c-0.1-0.5-0.4-0.8-0.7-1.1c-0.3-0.3-0.7-0.4-1.1-0.4
			c-0.7,0-1.2,0.2-1.5,0.7c-0.3,0.5-0.5,1.2-0.5,2.1c0,0.6,0.1,1.1,0.2,1.6c0.1,0.5,0.4,0.9,0.6,1.2S172.8,262.7,173.2,262.7z"/>
		<path class="st2" d="M179,251.7h1.7v3.4l-0.1,1.5l0.1,0v6l-1.7,0.8V251.7z M182,263.9c-0.3,0-0.6,0-0.9-0.1s-0.6-0.1-0.9-0.2
			c-0.3-0.1-0.5-0.1-0.7-0.2c-0.2-0.1-0.3-0.1-0.4-0.2l1.7-0.9c0.1,0.1,0.3,0.2,0.6,0.2c0.2,0.1,0.5,0.1,0.9,0.1
			c0.4,0,0.8-0.1,1.2-0.4c0.3-0.2,0.6-0.6,0.8-1.1c0.2-0.5,0.3-1,0.3-1.7c0-1-0.2-1.7-0.5-2.2s-0.8-0.7-1.5-0.7
			c-0.4,0-0.7,0.1-1,0.2s-0.5,0.3-0.7,0.4l-0.3-0.8c0.1-0.1,0.3-0.3,0.5-0.4c0.2-0.2,0.5-0.3,0.8-0.5c0.3-0.1,0.7-0.2,1.2-0.2
			c0.6,0,1.1,0.1,1.6,0.4c0.5,0.3,0.9,0.7,1.2,1.3c0.3,0.6,0.5,1.3,0.5,2.2c0,0.9-0.2,1.7-0.5,2.4c-0.4,0.7-0.8,1.2-1.5,1.6
			C183.6,263.7,182.8,263.9,182,263.9z"/>
		<path class="st2" d="M188,263.8v-8.3h1.5l0.1,1.1l0.1,0.6v6.6H188z M189.7,257.7l-0.1-1.1c0.1-0.2,0.2-0.3,0.5-0.5
			c0.2-0.2,0.5-0.3,0.8-0.5c0.3-0.1,0.7-0.2,1-0.2c0.2,0,0.4,0,0.5,0c0.1,0,0.2,0,0.3,0.1v1.6c-0.1,0-0.2-0.1-0.3-0.1
			c-0.2,0-0.4-0.1-0.7-0.1c-0.3,0-0.6,0-0.8,0.1c-0.2,0.1-0.5,0.2-0.6,0.3S189.8,257.6,189.7,257.7z"/>
		<path class="st2" d="M197.2,263.9c-1.2,0-2.1-0.4-2.8-1.1c-0.6-0.8-1-1.8-1-3.1c0-0.8,0.1-1.5,0.4-2.2c0.3-0.6,0.7-1.1,1.3-1.5
			c0.6-0.4,1.2-0.6,2.1-0.6c0.4,0,0.8,0,1.2,0.2c0.4,0.1,0.7,0.3,1,0.6c0.3,0.3,0.5,0.6,0.7,1s0.3,0.9,0.3,1.4c0,0.3,0,0.6,0,0.8
			c0,0.2,0,0.5-0.1,0.7h-5.8l0.1-1.1h4.1c0-0.4,0-0.8-0.1-1.1c-0.1-0.4-0.2-0.6-0.5-0.9c-0.2-0.2-0.6-0.3-1-0.3
			c-0.4,0-0.7,0.1-1,0.3c-0.3,0.2-0.5,0.6-0.7,1.1c-0.2,0.5-0.2,1.2-0.2,2.1c0,0.6,0.2,1.1,0.4,1.5c0.2,0.4,0.5,0.6,0.9,0.8
			c0.4,0.2,0.8,0.2,1.2,0.2c0.2,0,0.4,0,0.7-0.1s0.5-0.1,0.8-0.2c0.3-0.1,0.5-0.1,0.6-0.2l0.3,1c-0.2,0.1-0.4,0.3-0.7,0.4
			s-0.7,0.2-1,0.3C197.9,263.9,197.6,263.9,197.2,263.9z"/>
		<path class="st2" d="M207,263.9c-0.5,0-0.9-0.1-1.3-0.3c-0.4-0.2-0.7-0.5-0.9-0.8c-0.2-0.4-0.3-0.8-0.3-1.3c0-0.5,0.1-1,0.4-1.4
			c0.3-0.4,0.7-0.7,1.2-0.9c0.3-0.1,0.7-0.2,1-0.3c0.4-0.1,0.7-0.1,1.1-0.2c0.4,0,0.7,0,1,0l0.4,0.5l-0.4,0.6c-0.2,0-0.4,0-0.7,0
			s-0.5,0.1-0.8,0.1c-0.3,0.1-0.5,0.1-0.7,0.2c-0.3,0.1-0.5,0.3-0.6,0.4s-0.3,0.4-0.3,0.7c0,0.4,0.1,0.7,0.3,0.9
			c0.2,0.2,0.6,0.3,1,0.3c0.2,0,0.5,0,0.7-0.1s0.4-0.1,0.6-0.2c0.2-0.1,0.3-0.2,0.3-0.2l0.3,0.4l-0.2,0.6c-0.2,0.2-0.5,0.4-0.9,0.6
			S207.5,263.9,207,263.9z M210.9,263.8h-1.6v-1.2h-0.1V258c0-0.5-0.1-0.8-0.4-1c-0.3-0.2-0.6-0.2-1.1-0.2c-0.3,0-0.6,0-1,0.1
			c-0.3,0.1-0.6,0.1-0.9,0.2c-0.3,0.1-0.5,0.2-0.6,0.3l-0.4-1.2c0.1-0.1,0.3-0.2,0.7-0.3s0.7-0.2,1.1-0.3s0.9-0.2,1.3-0.2
			c0.6,0,1.2,0.1,1.6,0.2s0.8,0.4,1,0.8c0.2,0.4,0.4,1,0.4,1.7V263.8z"/>
		<path class="st2" d="M218.7,263.9c-0.6,0-1.1-0.1-1.6-0.4c-0.5-0.3-0.9-0.7-1.2-1.3c-0.3-0.6-0.5-1.3-0.5-2.2s0.2-1.7,0.5-2.4
			s0.8-1.2,1.5-1.6c0.6-0.4,1.4-0.6,2.2-0.6c0.5,0,0.9,0.1,1.3,0.2c0.3,0.1,0.6,0.2,0.7,0.3L221,257c-0.1-0.1-0.3-0.2-0.6-0.3
			c-0.2,0-0.5-0.1-0.9-0.1c-0.4,0-0.8,0.1-1.1,0.4s-0.6,0.6-0.8,1c-0.2,0.5-0.3,1-0.3,1.7c0,1,0.2,1.7,0.5,2.1s0.8,0.7,1.5,0.7
			c0.4,0,0.7-0.1,1-0.2c0.3-0.1,0.5-0.3,0.7-0.4l0.3,0.8c-0.1,0.1-0.3,0.3-0.5,0.5c-0.2,0.2-0.5,0.3-0.8,0.5
			C219.7,263.8,219.2,263.9,218.7,263.9z M221.1,263.8v-1.1l-0.1,0v-5.9l0.1,0l-0.1-1.6v-3.4h1.7v12.1H221.1z"/>
		<path class="st2" d="M228.3,263.9c-1.2,0-2.1-0.4-2.8-1.1c-0.6-0.8-1-1.8-1-3.1c0-0.8,0.1-1.5,0.4-2.2c0.3-0.6,0.7-1.1,1.3-1.5
			c0.6-0.4,1.2-0.6,2.1-0.6c0.4,0,0.8,0,1.2,0.2c0.4,0.1,0.7,0.3,1,0.6c0.3,0.3,0.5,0.6,0.7,1s0.3,0.9,0.3,1.4c0,0.3,0,0.6,0,0.8
			c0,0.2,0,0.5-0.1,0.7h-5.8l0.1-1.1h4.1c0-0.4,0-0.8-0.1-1.1c-0.1-0.4-0.2-0.6-0.5-0.9c-0.2-0.2-0.6-0.3-1-0.3
			c-0.4,0-0.7,0.1-1,0.3c-0.3,0.2-0.5,0.6-0.7,1.1c-0.2,0.5-0.2,1.2-0.2,2.1c0,0.6,0.2,1.1,0.4,1.5c0.2,0.4,0.5,0.6,0.9,0.8
			c0.4,0.2,0.8,0.2,1.2,0.2c0.2,0,0.4,0,0.7-0.1s0.5-0.1,0.8-0.2c0.3-0.1,0.5-0.1,0.6-0.2l0.3,1c-0.2,0.1-0.4,0.3-0.7,0.4
			s-0.7,0.2-1,0.3C229,263.9,228.7,263.9,228.3,263.9z"/>
		<path class="st2" d="M233.4,267.5v-12h1.6v1l0.1,0.2v6.4l0,0.3l0,1.4v2.7H233.4z M236.5,263.9c-0.5,0-0.9-0.1-1.3-0.2
			c-0.3-0.1-0.6-0.2-0.7-0.3l0.6-1.1c0.2,0.1,0.4,0.2,0.6,0.3c0.2,0.1,0.5,0.1,0.9,0.1c0.4,0,0.8-0.1,1.2-0.4s0.6-0.6,0.8-1.1
			c0.2-0.5,0.3-1,0.3-1.7c0-1-0.2-1.7-0.5-2.2c-0.4-0.4-0.9-0.7-1.5-0.7c-0.4,0-0.7,0.1-1,0.2c-0.3,0.1-0.5,0.3-0.7,0.4l-0.3-0.8
			c0.1-0.1,0.3-0.3,0.5-0.4c0.2-0.2,0.5-0.3,0.8-0.5c0.3-0.1,0.7-0.2,1.2-0.2c0.6,0,1.1,0.1,1.6,0.4c0.5,0.3,0.9,0.7,1.2,1.3
			c0.3,0.6,0.5,1.3,0.5,2.2c0,0.9-0.2,1.7-0.5,2.4c-0.3,0.7-0.8,1.2-1.5,1.6C238,263.7,237.3,263.9,236.5,263.9z"/>
		<path class="st2" d="M245.8,263.9c-1.2,0-2.1-0.4-2.8-1.1c-0.6-0.8-1-1.8-1-3.1c0-0.8,0.1-1.5,0.4-2.2c0.3-0.6,0.7-1.1,1.3-1.5
			c0.6-0.4,1.2-0.6,2.1-0.6c0.4,0,0.8,0,1.2,0.2c0.4,0.1,0.7,0.3,1,0.6c0.3,0.3,0.5,0.6,0.7,1s0.3,0.9,0.3,1.4c0,0.3,0,0.6,0,0.8
			c0,0.2,0,0.5-0.1,0.7H243l0.1-1.1h4.1c0-0.4,0-0.8-0.1-1.1c-0.1-0.4-0.2-0.6-0.5-0.9c-0.2-0.2-0.6-0.3-1-0.3c-0.4,0-0.7,0.1-1,0.3
			c-0.3,0.2-0.5,0.6-0.7,1.1c-0.2,0.5-0.2,1.2-0.2,2.1c0,0.6,0.2,1.1,0.4,1.5c0.2,0.4,0.5,0.6,0.9,0.8c0.4,0.2,0.8,0.2,1.2,0.2
			c0.2,0,0.4,0,0.7-0.1s0.5-0.1,0.8-0.2c0.3-0.1,0.5-0.1,0.6-0.2l0.3,1c-0.2,0.1-0.4,0.3-0.7,0.4s-0.7,0.2-1,0.3
			C246.5,263.9,246.1,263.9,245.8,263.9z"/>
		<path class="st2" d="M250.9,263.8v-8.3h1.5l0,0.9c0.2-0.1,0.5-0.3,0.8-0.4c0.3-0.2,0.6-0.3,1-0.4c0.4-0.1,0.7-0.2,1.1-0.2
			c0.9,0,1.5,0.2,1.9,0.7c0.4,0.5,0.6,1.3,0.6,2.6v5.2h-1.7v-5.1c0-0.7-0.1-1.2-0.3-1.5c-0.2-0.3-0.6-0.4-1.2-0.4
			c-0.2,0-0.4,0-0.6,0.1s-0.5,0.1-0.7,0.2c-0.2,0.1-0.5,0.2-0.7,0.4v6.2H250.9z"/>
		<path class="st2" d="M263,263.9c-0.6,0-1.1-0.1-1.6-0.4c-0.5-0.3-0.9-0.7-1.2-1.3c-0.3-0.6-0.5-1.3-0.5-2.2s0.2-1.7,0.5-2.4
			s0.8-1.2,1.5-1.6c0.6-0.4,1.4-0.6,2.2-0.6c0.5,0,0.9,0.1,1.3,0.2c0.3,0.1,0.6,0.2,0.7,0.3l-0.6,1.1c-0.1-0.1-0.3-0.2-0.6-0.3
			c-0.2,0-0.5-0.1-0.9-0.1c-0.4,0-0.8,0.1-1.1,0.4s-0.6,0.6-0.8,1c-0.2,0.5-0.3,1-0.3,1.7c0,1,0.2,1.7,0.5,2.1s0.8,0.7,1.5,0.7
			c0.4,0,0.7-0.1,1-0.2c0.3-0.1,0.5-0.3,0.7-0.4l0.3,0.8c-0.1,0.1-0.3,0.3-0.5,0.5c-0.2,0.2-0.5,0.3-0.8,0.5
			C263.9,263.8,263.5,263.9,263,263.9z M265.3,263.8v-1.1l-0.1,0v-5.9l0.1,0l-0.1-1.6v-3.4h1.7v12.1H265.3z"/>
		<path class="st2" d="M272.6,263.9c-1.2,0-2.1-0.4-2.8-1.1c-0.6-0.8-1-1.8-1-3.1c0-0.8,0.1-1.5,0.4-2.2c0.3-0.6,0.7-1.1,1.3-1.5
			c0.6-0.4,1.2-0.6,2.1-0.6c0.4,0,0.8,0,1.2,0.2c0.4,0.1,0.7,0.3,1,0.6c0.3,0.3,0.5,0.6,0.7,1s0.3,0.9,0.3,1.4c0,0.3,0,0.6,0,0.8
			c0,0.2,0,0.5-0.1,0.7h-5.8l0.1-1.1h4.1c0-0.4,0-0.8-0.1-1.1c-0.1-0.4-0.2-0.6-0.5-0.9c-0.2-0.2-0.6-0.3-1-0.3
			c-0.4,0-0.7,0.1-1,0.3c-0.3,0.2-0.5,0.6-0.7,1.1c-0.2,0.5-0.2,1.2-0.2,2.1c0,0.6,0.2,1.1,0.4,1.5c0.2,0.4,0.5,0.6,0.9,0.8
			c0.4,0.2,0.8,0.2,1.2,0.2c0.2,0,0.4,0,0.7-0.1s0.5-0.1,0.8-0.2c0.3-0.1,0.5-0.1,0.6-0.2l0.3,1c-0.2,0.1-0.4,0.3-0.7,0.4
			s-0.7,0.2-1,0.3C273.3,263.9,272.9,263.9,272.6,263.9z M270.6,254.6l-0.8-0.4l2.1-2.5h1.3l2,2.5l-0.9,0.4l-1.8-1.6L270.6,254.6z"
			/>
		<path class="st2" d="M277.7,263.8v-8.3h1.5l0,0.9c0.2-0.1,0.5-0.3,0.8-0.4c0.3-0.2,0.6-0.3,1-0.4c0.4-0.1,0.7-0.2,1.1-0.2
			c0.9,0,1.5,0.2,1.9,0.7c0.4,0.5,0.6,1.3,0.6,2.6v5.2h-1.7v-5.1c0-0.7-0.1-1.2-0.3-1.5c-0.2-0.3-0.6-0.4-1.2-0.4
			c-0.2,0-0.4,0-0.6,0.1s-0.5,0.1-0.7,0.2c-0.2,0.1-0.5,0.2-0.7,0.4v6.2H277.7z"/>
		<path class="st2" d="M286.4,259.7c0-0.8,0.1-1.6,0.4-2.2s0.7-1.2,1.3-1.6c0.6-0.4,1.3-0.6,2.2-0.6c0.5,0,1,0,1.3,0.1
			c0.4,0.1,0.6,0.2,0.7,0.3l-0.3,1.4c-0.2-0.1-0.5-0.3-0.8-0.3s-0.6-0.1-1.1-0.1c-0.4,0-0.7,0.1-1.1,0.3c-0.3,0.2-0.6,0.5-0.9,0.9
			s-0.4,0.9-0.4,1.6c0,0.7,0.1,1.3,0.3,1.7c0.2,0.5,0.5,0.8,0.8,1.1c0.4,0.2,0.8,0.4,1.2,0.4c0.4,0,0.8-0.1,1.1-0.2
			c0.3-0.1,0.6-0.2,0.8-0.3l0.3,1c-0.3,0.2-0.6,0.4-1.1,0.6c-0.5,0.1-1,0.2-1.5,0.2c-0.8,0-1.5-0.2-2-0.6c-0.5-0.4-1-0.9-1.2-1.5
			C286.6,261.2,286.4,260.5,286.4,259.7z"/>
		<path class="st2" d="M295.2,254c-0.3,0-0.5-0.1-0.8-0.3c-0.2-0.2-0.3-0.4-0.3-0.8c0-0.2,0.1-0.4,0.2-0.6c0.1-0.2,0.3-0.3,0.5-0.4
			s0.4-0.2,0.6-0.2c0.4,0,0.6,0.1,0.8,0.3s0.3,0.4,0.3,0.7c0,0.3-0.1,0.6-0.4,0.8C295.8,253.9,295.5,254,295.2,254z M294.5,263.8
			v-8.3h1.7v8.3H294.5z"/>
		<path class="st2" d="M300.8,263.9c-0.5,0-0.9-0.1-1.3-0.3c-0.4-0.2-0.7-0.5-0.9-0.8c-0.2-0.4-0.3-0.8-0.3-1.3c0-0.5,0.1-1,0.4-1.4
			c0.3-0.4,0.7-0.7,1.2-0.9c0.3-0.1,0.7-0.2,1-0.3c0.4-0.1,0.7-0.1,1.1-0.2c0.4,0,0.7,0,1,0l0.4,0.5l-0.4,0.6c-0.2,0-0.4,0-0.7,0
			s-0.5,0.1-0.8,0.1c-0.3,0.1-0.5,0.1-0.7,0.2c-0.3,0.1-0.5,0.3-0.6,0.4s-0.3,0.4-0.3,0.7c0,0.4,0.1,0.7,0.3,0.9
			c0.2,0.2,0.6,0.3,1,0.3c0.2,0,0.5,0,0.7-0.1s0.4-0.1,0.6-0.2c0.2-0.1,0.3-0.2,0.3-0.2l0.3,0.4l-0.2,0.6c-0.2,0.2-0.5,0.4-0.9,0.6
			S301.2,263.9,300.8,263.9z M304.7,263.8h-1.6v-1.2H303V258c0-0.5-0.1-0.8-0.4-1c-0.3-0.2-0.6-0.2-1.1-0.2c-0.3,0-0.6,0-1,0.1
			c-0.3,0.1-0.6,0.1-0.9,0.2c-0.3,0.1-0.5,0.2-0.6,0.3l-0.4-1.2c0.1-0.1,0.3-0.2,0.7-0.3s0.7-0.2,1.1-0.3s0.9-0.2,1.3-0.2
			c0.6,0,1.2,0.1,1.6,0.2s0.8,0.4,1,0.8c0.2,0.4,0.4,1,0.4,1.7V263.8z"/>
		<path class="st2" d="M312.5,263.9c-0.6,0-1.1-0.1-1.6-0.4c-0.5-0.3-0.9-0.7-1.2-1.3c-0.3-0.6-0.5-1.3-0.5-2.2s0.2-1.7,0.5-2.4
			s0.8-1.2,1.5-1.6c0.6-0.4,1.4-0.6,2.2-0.6c0.5,0,1,0.1,1.4,0.2c0.4,0.1,0.6,0.2,0.7,0.3l-0.8,1.1c-0.2-0.1-0.4-0.2-0.6-0.3
			c-0.2,0-0.5-0.1-0.9-0.1c-0.4,0-0.8,0.1-1.1,0.4s-0.6,0.6-0.8,1c-0.2,0.5-0.3,1-0.3,1.7c0,1,0.2,1.7,0.5,2.1s0.8,0.7,1.5,0.7
			c0.4,0,0.7-0.1,1-0.2c0.3-0.1,0.5-0.3,0.7-0.4l0.3,0.8c-0.1,0.1-0.3,0.3-0.5,0.5s-0.5,0.3-0.8,0.5
			C313.4,263.8,313,263.9,312.5,263.9z M314.7,264.8l0-1.8l0-0.7v-5.6l0.2-0.2l0-0.7l1.5-0.3v12h-1.7V264.8z"/>
		<path class="st2" d="M321.2,263.9c-0.5,0-1-0.1-1.3-0.3c-0.3-0.2-0.6-0.4-0.8-0.7s-0.3-0.7-0.4-1.1c-0.1-0.4-0.1-0.9-0.1-1.5v-4.9
			h1.7v4.8c0,0.7,0.1,1.1,0.2,1.4c0.1,0.3,0.3,0.5,0.5,0.6c0.2,0.1,0.5,0.1,0.8,0.1c0.2,0,0.4,0,0.7-0.1c0.2-0.1,0.4-0.1,0.7-0.2
			c0.2-0.1,0.4-0.2,0.5-0.2v-6.5h1.7v8.4h-0.8c-0.2,0-0.4,0-0.5-0.1c-0.1-0.1-0.2-0.2-0.2-0.5v-0.6l0,0.3c-0.2,0.1-0.5,0.3-0.8,0.4
			c-0.3,0.1-0.6,0.2-0.9,0.3C321.8,263.9,321.5,263.9,321.2,263.9z"/>
		<path class="st2" d="M328.4,254.4l-0.8-0.6c0.3-0.3,0.6-0.6,0.9-1c0.3-0.3,0.6-0.7,0.9-1c0.3-0.4,0.5-0.7,0.8-1.1l1.1,0.9
			c-0.1,0.1-0.2,0.3-0.4,0.5c-0.2,0.2-0.4,0.4-0.6,0.7c-0.2,0.2-0.5,0.5-0.7,0.7c-0.2,0.2-0.5,0.4-0.7,0.6
			C328.7,254.3,328.5,254.4,328.4,254.4z M328,263.8v-8.3h1.7v8.3H328z"/>
		<path class="st2" d="M332.4,263.8v-8.3h1.5l0,0.9c0.2-0.1,0.5-0.3,0.8-0.4c0.3-0.2,0.6-0.3,1-0.4c0.4-0.1,0.7-0.2,1.1-0.2
			c0.6,0,1.1,0.1,1.4,0.3c0.4,0.2,0.6,0.5,0.8,1c0.2,0.5,0.2,1.1,0.2,1.9v5.2h-1.7v-5.1c0-0.5,0-0.8-0.1-1.1
			c-0.1-0.3-0.2-0.5-0.4-0.6c-0.2-0.1-0.5-0.2-0.9-0.2c-0.3,0-0.6,0.1-0.9,0.2c-0.4,0.1-0.7,0.3-1,0.5v6.2H332.4z M339.1,257.6
			l-0.4-1.1c0.2-0.2,0.5-0.3,0.8-0.5c0.3-0.2,0.7-0.3,1.1-0.4c0.4-0.1,0.8-0.2,1.2-0.2c0.6,0,1.1,0.1,1.4,0.3c0.4,0.2,0.6,0.5,0.8,1
			c0.2,0.5,0.3,1.1,0.3,1.9v5.2h-1.7v-5.1c0-0.5,0-0.8-0.1-1.1c-0.1-0.3-0.2-0.5-0.4-0.6s-0.5-0.2-0.9-0.2c-0.3,0-0.6,0.1-1,0.2
			C339.8,257.2,339.4,257.3,339.1,257.6z"/>
		<path class="st2" d="M347.6,254c-0.3,0-0.5-0.1-0.8-0.3c-0.2-0.2-0.3-0.4-0.3-0.8c0-0.2,0.1-0.4,0.2-0.6c0.1-0.2,0.3-0.3,0.5-0.4
			s0.4-0.2,0.6-0.2c0.4,0,0.6,0.1,0.8,0.3s0.3,0.4,0.3,0.7c0,0.3-0.1,0.6-0.4,0.8C348.2,253.9,347.9,254,347.6,254z M346.9,263.8
			v-8.3h1.7v8.3H346.9z"/>
		<path class="st2" d="M350.5,259.7c0-0.8,0.1-1.6,0.4-2.2s0.7-1.2,1.3-1.6c0.6-0.4,1.3-0.6,2.2-0.6c0.5,0,1,0,1.3,0.1
			c0.4,0.1,0.6,0.2,0.7,0.3l-0.3,1.4c-0.2-0.1-0.5-0.3-0.8-0.3s-0.6-0.1-1.1-0.1c-0.4,0-0.7,0.1-1.1,0.3c-0.3,0.2-0.6,0.5-0.9,0.9
			s-0.4,0.9-0.4,1.6c0,0.7,0.1,1.3,0.3,1.7c0.2,0.5,0.5,0.8,0.8,1.1c0.4,0.2,0.8,0.4,1.2,0.4c0.4,0,0.8-0.1,1.1-0.2
			c0.3-0.1,0.6-0.2,0.8-0.3l0.3,1c-0.3,0.2-0.6,0.4-1.1,0.6c-0.5,0.1-1,0.2-1.5,0.2c-0.8,0-1.5-0.2-2-0.6c-0.5-0.4-1-0.9-1.2-1.5
			C350.6,261.2,350.5,260.5,350.5,259.7z"/>
		<path class="st2" d="M360.4,263.9c-0.5,0-0.9-0.1-1.3-0.3c-0.4-0.2-0.7-0.5-0.9-0.8c-0.2-0.4-0.3-0.8-0.3-1.3c0-0.5,0.1-1,0.4-1.4
			c0.3-0.4,0.7-0.7,1.2-0.9c0.3-0.1,0.7-0.2,1-0.3c0.4-0.1,0.7-0.1,1.1-0.2c0.4,0,0.7,0,1,0l0.4,0.5l-0.4,0.6c-0.2,0-0.4,0-0.7,0
			s-0.5,0.1-0.8,0.1c-0.3,0.1-0.5,0.1-0.7,0.2c-0.3,0.1-0.5,0.3-0.6,0.4s-0.3,0.4-0.3,0.7c0,0.4,0.1,0.7,0.3,0.9
			c0.2,0.2,0.6,0.3,1,0.3c0.2,0,0.5,0,0.7-0.1s0.4-0.1,0.6-0.2c0.2-0.1,0.3-0.2,0.3-0.2l0.3,0.4l-0.2,0.6c-0.2,0.2-0.5,0.4-0.9,0.6
			S360.9,263.9,360.4,263.9z M364.3,263.8h-1.6v-1.2h-0.1V258c0-0.5-0.1-0.8-0.4-1c-0.3-0.2-0.6-0.2-1.1-0.2c-0.3,0-0.6,0-1,0.1
			c-0.3,0.1-0.6,0.1-0.9,0.2c-0.3,0.1-0.5,0.2-0.6,0.3l-0.4-1.2c0.1-0.1,0.3-0.2,0.7-0.3s0.7-0.2,1.1-0.3s0.9-0.2,1.3-0.2
			c0.6,0,1.2,0.1,1.6,0.2s0.8,0.4,1,0.8c0.2,0.4,0.4,1,0.4,1.7V263.8z"/>
	</g>
	<g>
		<path class="st2" d="M105.3,280.2c-1.2,0-2.1-0.4-2.8-1.1s-1-1.8-1-3.1c0-0.8,0.1-1.5,0.4-2.2c0.3-0.6,0.7-1.1,1.3-1.5
			c0.6-0.4,1.2-0.6,2.1-0.6c0.4,0,0.8,0,1.2,0.2c0.4,0.1,0.7,0.3,1,0.6s0.5,0.6,0.7,1c0.2,0.4,0.3,0.9,0.3,1.4c0,0.3,0,0.6,0,0.8
			c0,0.2,0,0.5-0.1,0.7h-5.8l0.1-1.1h4.1c0-0.4,0-0.8-0.1-1.1c-0.1-0.4-0.2-0.6-0.5-0.9c-0.2-0.2-0.6-0.3-1-0.3
			c-0.4,0-0.7,0.1-1,0.3c-0.3,0.2-0.5,0.6-0.7,1.1c-0.2,0.5-0.2,1.2-0.2,2.1c0,0.6,0.2,1.1,0.4,1.5s0.5,0.6,0.9,0.8s0.8,0.2,1.2,0.2
			c0.2,0,0.4,0,0.7-0.1c0.3,0,0.5-0.1,0.8-0.2c0.3-0.1,0.5-0.1,0.6-0.2l0.3,1c-0.2,0.1-0.4,0.3-0.7,0.4s-0.7,0.2-1,0.3
			C106,280.2,105.6,280.2,105.3,280.2z"/>
		<path class="st2" d="M110.4,280.1v-8.3h1.5l0,0.9c0.2-0.1,0.5-0.3,0.8-0.4c0.3-0.2,0.6-0.3,1-0.4s0.7-0.2,1.1-0.2
			c0.6,0,1.1,0.1,1.4,0.3c0.4,0.2,0.6,0.5,0.8,1c0.2,0.5,0.2,1.1,0.2,1.9v5.2h-1.7V275c0-0.5,0-0.8-0.1-1.1
			c-0.1-0.3-0.2-0.5-0.4-0.6c-0.2-0.1-0.5-0.2-0.9-0.2c-0.3,0-0.6,0.1-0.9,0.2c-0.4,0.1-0.7,0.3-1,0.5v6.2H110.4z M117.2,273.9
			l-0.4-1.1c0.2-0.2,0.5-0.3,0.8-0.5c0.3-0.2,0.7-0.3,1.1-0.4c0.4-0.1,0.8-0.2,1.2-0.2c0.6,0,1.1,0.1,1.4,0.3c0.4,0.2,0.6,0.5,0.8,1
			c0.2,0.5,0.3,1.1,0.3,1.9v5.2h-1.7V275c0-0.5,0-0.8-0.1-1.1c-0.1-0.3-0.2-0.5-0.4-0.6c-0.2-0.1-0.5-0.2-0.9-0.2
			c-0.3,0-0.6,0.1-1,0.2S117.5,273.7,117.2,273.9z"/>
		<path class="st2" d="M127.5,280.1v-8.3h1.5l0,0.9c0.2-0.1,0.5-0.3,0.8-0.4c0.3-0.2,0.6-0.3,1-0.4s0.7-0.2,1.1-0.2
			c0.6,0,1.1,0.1,1.4,0.3c0.4,0.2,0.6,0.5,0.8,1c0.2,0.5,0.2,1.1,0.2,1.9v5.2h-1.7V275c0-0.5,0-0.8-0.1-1.1
			c-0.1-0.3-0.2-0.5-0.4-0.6c-0.2-0.1-0.5-0.2-0.9-0.2c-0.3,0-0.6,0.1-0.9,0.2c-0.4,0.1-0.7,0.3-1,0.5v6.2H127.5z M134.3,273.9
			l-0.4-1.1c0.2-0.2,0.5-0.3,0.8-0.5c0.3-0.2,0.7-0.3,1.1-0.4c0.4-0.1,0.8-0.2,1.2-0.2c0.6,0,1.1,0.1,1.4,0.3c0.4,0.2,0.6,0.5,0.8,1
			c0.2,0.5,0.3,1.1,0.3,1.9v5.2h-1.7V275c0-0.5,0-0.8-0.1-1.1c-0.1-0.3-0.2-0.5-0.4-0.6c-0.2-0.1-0.5-0.2-0.9-0.2
			c-0.3,0-0.6,0.1-1,0.2S134.6,273.7,134.3,273.9z"/>
		<path class="st2" d="M144.3,280.2c-0.5,0-1-0.1-1.3-0.3c-0.3-0.2-0.6-0.4-0.8-0.7c-0.2-0.3-0.3-0.7-0.4-1.1
			c-0.1-0.4-0.1-0.9-0.1-1.5v-4.9h1.7v4.8c0,0.7,0.1,1.1,0.2,1.4c0.1,0.3,0.3,0.5,0.5,0.6s0.5,0.1,0.8,0.1c0.2,0,0.4,0,0.7-0.1
			c0.2-0.1,0.4-0.1,0.7-0.2c0.2-0.1,0.4-0.2,0.5-0.2v-6.4h1.7v8.4h-0.8c-0.2,0-0.4,0-0.5-0.1c-0.1-0.1-0.2-0.2-0.2-0.5V279l0,0.3
			c-0.2,0.1-0.5,0.3-0.8,0.4c-0.3,0.1-0.6,0.2-0.9,0.3C144.9,280.2,144.6,280.2,144.3,280.2z"/>
		<path class="st2" d="M151.1,280.1V268h1.7v12.1H151.1z"/>
		<path class="st2" d="M155.4,280.1V268h1.7v3.4l-0.1,1.5l-0.1-0.2c0.2-0.2,0.5-0.3,0.8-0.5c0.3-0.2,0.6-0.3,1-0.4
			c0.4-0.1,0.7-0.2,1.1-0.2c0.9,0,1.6,0.2,2,0.7c0.4,0.5,0.6,1.4,0.6,2.6v5.1h-1.7V275c0-0.7-0.1-1.2-0.3-1.5s-0.6-0.4-1.2-0.4
			c-0.3,0-0.6,0.1-0.9,0.2s-0.7,0.3-1,0.5v6.2H155.4z"/>
		<path class="st2" d="M168.1,280.2c-1.2,0-2.1-0.4-2.8-1.1s-1-1.8-1-3.1c0-0.8,0.1-1.5,0.4-2.2c0.3-0.6,0.7-1.1,1.3-1.5
			c0.6-0.4,1.2-0.6,2.1-0.6c0.4,0,0.8,0,1.2,0.2c0.4,0.1,0.7,0.3,1,0.6s0.5,0.6,0.7,1c0.2,0.4,0.3,0.9,0.3,1.4c0,0.3,0,0.6,0,0.8
			c0,0.2,0,0.5-0.1,0.7h-5.8l0.1-1.1h4.1c0-0.4,0-0.8-0.1-1.1c-0.1-0.4-0.2-0.6-0.5-0.9c-0.2-0.2-0.6-0.3-1-0.3
			c-0.4,0-0.7,0.1-1,0.3c-0.3,0.2-0.5,0.6-0.7,1.1c-0.2,0.5-0.2,1.2-0.2,2.1c0,0.6,0.2,1.1,0.4,1.5s0.5,0.6,0.9,0.8s0.8,0.2,1.2,0.2
			c0.2,0,0.4,0,0.7-0.1c0.3,0,0.5-0.1,0.8-0.2c0.3-0.1,0.5-0.1,0.6-0.2l0.3,1c-0.2,0.1-0.4,0.3-0.7,0.4s-0.7,0.2-1,0.3
			C168.8,280.2,168.4,280.2,168.1,280.2z"/>
		<path class="st2" d="M173,280.1v-8.3h1.5l0.1,1.1l0.1,0.6v6.6H173z M174.7,274l-0.1-1.1c0.1-0.2,0.2-0.3,0.5-0.5
			c0.2-0.2,0.5-0.3,0.8-0.5s0.7-0.2,1-0.2c0.2,0,0.4,0,0.5,0c0.1,0,0.2,0,0.3,0.1v1.6c-0.1,0-0.2-0.1-0.3-0.1s-0.4-0.1-0.7-0.1
			c-0.3,0-0.6,0-0.8,0.1c-0.2,0.1-0.5,0.2-0.6,0.3S174.8,273.9,174.7,274z"/>
		<path class="st2" d="M182.2,280.2c-1.2,0-2.1-0.4-2.8-1.1s-1-1.8-1-3.1c0-0.8,0.1-1.5,0.4-2.2c0.3-0.6,0.7-1.1,1.3-1.5
			c0.6-0.4,1.2-0.6,2.1-0.6c0.4,0,0.8,0,1.2,0.2c0.4,0.1,0.7,0.3,1,0.6s0.5,0.6,0.7,1c0.2,0.4,0.3,0.9,0.3,1.4c0,0.3,0,0.6,0,0.8
			c0,0.2,0,0.5-0.1,0.7h-5.8l0.1-1.1h4.1c0-0.4,0-0.8-0.1-1.1c-0.1-0.4-0.2-0.6-0.5-0.9c-0.2-0.2-0.6-0.3-1-0.3
			c-0.4,0-0.7,0.1-1,0.3c-0.3,0.2-0.5,0.6-0.7,1.1c-0.2,0.5-0.2,1.2-0.2,2.1c0,0.6,0.2,1.1,0.4,1.5s0.5,0.6,0.9,0.8s0.8,0.2,1.2,0.2
			c0.2,0,0.4,0,0.7-0.1c0.3,0,0.5-0.1,0.8-0.2c0.3-0.1,0.5-0.1,0.6-0.2l0.3,1c-0.2,0.1-0.4,0.3-0.7,0.4s-0.7,0.2-1,0.3
			C182.9,280.2,182.6,280.2,182.2,280.2z"/>
		<path class="st2" d="M186.9,279.6l0.2-1.3c0.1,0.1,0.2,0.1,0.5,0.2c0.2,0.1,0.5,0.2,0.8,0.3c0.3,0.1,0.7,0.1,1,0.1
			c0.5,0,0.8-0.1,1.1-0.2c0.2-0.2,0.4-0.4,0.4-0.7c0-0.2-0.1-0.4-0.2-0.6c-0.1-0.2-0.4-0.3-0.6-0.4c-0.3-0.1-0.6-0.3-0.9-0.4
			c-0.4-0.2-0.8-0.4-1.2-0.7c-0.3-0.2-0.6-0.5-0.8-0.8c-0.2-0.3-0.3-0.7-0.3-1.2c0-0.5,0.2-0.9,0.4-1.2c0.3-0.3,0.6-0.6,1.1-0.7
			c0.5-0.2,1-0.2,1.5-0.2c0.5,0,1,0.1,1.4,0.2c0.4,0.1,0.7,0.2,0.8,0.3l-0.3,1.3c-0.1-0.1-0.2-0.1-0.4-0.2c-0.2-0.1-0.4-0.1-0.6-0.2
			c-0.2,0-0.5-0.1-0.7-0.1c-0.5,0-0.9,0.1-1.1,0.2c-0.3,0.1-0.4,0.4-0.4,0.6c0,0.4,0.1,0.6,0.4,0.8s0.6,0.4,0.9,0.5
			c0.5,0.2,1,0.5,1.4,0.7c0.4,0.2,0.7,0.5,1,0.8s0.4,0.7,0.4,1.2c0,0.8-0.3,1.4-0.8,1.8c-0.5,0.4-1.3,0.6-2.2,0.6
			c-0.4,0-0.8,0-1.1-0.1c-0.4-0.1-0.7-0.1-1-0.2C187.2,279.8,187,279.7,186.9,279.6z"/>
		<path class="st2" d="M199.2,280.2c-0.5,0-0.9-0.1-1.3-0.3s-0.7-0.5-0.9-0.8c-0.2-0.4-0.3-0.8-0.3-1.3c0-0.5,0.1-1,0.4-1.4
			s0.7-0.7,1.2-0.9c0.3-0.1,0.7-0.2,1-0.3c0.4-0.1,0.7-0.1,1.1-0.2c0.4,0,0.7,0,1,0l0.4,0.5l-0.4,0.6c-0.2,0-0.4,0-0.7,0
			s-0.5,0.1-0.8,0.1c-0.3,0.1-0.5,0.1-0.7,0.2c-0.3,0.1-0.5,0.3-0.6,0.4s-0.3,0.4-0.3,0.7c0,0.4,0.1,0.7,0.3,0.9
			c0.2,0.2,0.6,0.3,1,0.3c0.2,0,0.5,0,0.7-0.1s0.4-0.1,0.6-0.2c0.2-0.1,0.3-0.2,0.3-0.2l0.3,0.4l-0.2,0.6c-0.2,0.2-0.5,0.4-0.9,0.6
			S199.7,280.2,199.2,280.2z M203.1,280.1h-1.6v-1.2h-0.1v-4.6c0-0.5-0.1-0.8-0.4-1c-0.3-0.2-0.6-0.2-1.1-0.2c-0.3,0-0.6,0-1,0.1
			c-0.3,0.1-0.6,0.1-0.9,0.2s-0.5,0.2-0.6,0.3l-0.4-1.2c0.1-0.1,0.3-0.2,0.7-0.3s0.7-0.2,1.1-0.3c0.4-0.1,0.9-0.2,1.3-0.2
			c0.6,0,1.2,0.1,1.6,0.2c0.5,0.1,0.8,0.4,1,0.8c0.2,0.4,0.4,1,0.4,1.7V280.1z"/>
		<path class="st2" d="M204.8,276.1c0-0.8,0.1-1.6,0.4-2.2s0.7-1.2,1.3-1.6s1.3-0.6,2.2-0.6c0.5,0,1,0,1.3,0.1
			c0.4,0.1,0.6,0.2,0.7,0.3l-0.3,1.4c-0.2-0.1-0.5-0.3-0.8-0.3c-0.3-0.1-0.6-0.1-1.1-0.1c-0.4,0-0.7,0.1-1.1,0.3
			c-0.3,0.2-0.6,0.5-0.9,0.9c-0.2,0.4-0.4,0.9-0.4,1.6c0,0.7,0.1,1.3,0.3,1.7c0.2,0.5,0.5,0.8,0.8,1.1c0.4,0.2,0.8,0.4,1.2,0.4
			c0.4,0,0.8-0.1,1.1-0.2c0.3-0.1,0.6-0.2,0.8-0.3l0.3,1c-0.3,0.2-0.6,0.4-1.1,0.6c-0.5,0.1-1,0.2-1.5,0.2c-0.8,0-1.5-0.2-2-0.6
			s-1-0.9-1.2-1.5C204.9,277.6,204.8,276.8,204.8,276.1z"/>
		<path class="st2" d="M215.8,280.2c-0.7,0-1.2-0.1-1.7-0.4s-0.9-0.6-1.1-1s-0.5-0.9-0.6-1.4c-0.1-0.5-0.2-1.1-0.2-1.7
			c0-0.9,0.2-1.6,0.5-2.2c0.3-0.6,0.8-1.1,1.4-1.4s1.2-0.5,1.9-0.5c0.9,0,1.6,0.2,2.2,0.6c0.5,0.4,0.9,1,1.2,1.6s0.4,1.4,0.3,2.2
			c0,0.9-0.2,1.6-0.5,2.2s-0.8,1.1-1.4,1.4C217.2,280.1,216.6,280.2,215.8,280.2z M215.9,279c0.7,0,1.2-0.2,1.5-0.8
			c0.3-0.5,0.5-1.3,0.5-2.2c0-0.6-0.1-1.1-0.2-1.6c-0.1-0.5-0.4-0.8-0.7-1.1c-0.3-0.3-0.7-0.4-1.1-0.4c-0.7,0-1.2,0.2-1.5,0.7
			c-0.3,0.5-0.5,1.2-0.5,2.1c0,0.6,0.1,1.1,0.2,1.6c0.1,0.5,0.4,0.9,0.6,1.2S215.4,279,215.9,279z"/>
		<path class="st2" d="M221.7,280.1V268h1.7v12.1H221.7z"/>
		<path class="st2" d="M226.1,280.1V268h1.7v3.4l-0.1,1.5l-0.1-0.2c0.2-0.2,0.5-0.3,0.8-0.5c0.3-0.2,0.6-0.3,1-0.4
			c0.4-0.1,0.7-0.2,1.1-0.2c0.9,0,1.6,0.2,2,0.7c0.4,0.5,0.6,1.4,0.6,2.6v5.1h-1.7V275c0-0.7-0.1-1.2-0.3-1.5s-0.6-0.4-1.2-0.4
			c-0.3,0-0.6,0.1-0.9,0.2s-0.7,0.3-1,0.5v6.2H226.1z"/>
		<path class="st2" d="M236.3,270.4c-0.3,0-0.5-0.1-0.8-0.3c-0.2-0.2-0.3-0.4-0.3-0.8c0-0.2,0.1-0.4,0.2-0.6
			c0.1-0.2,0.3-0.3,0.5-0.4c0.2-0.1,0.4-0.2,0.6-0.2c0.4,0,0.6,0.1,0.8,0.3c0.2,0.2,0.3,0.4,0.3,0.7c0,0.3-0.1,0.6-0.4,0.8
			C236.9,270.2,236.6,270.4,236.3,270.4z M235.6,280.1v-8.3h1.7v8.3H235.6z"/>
		<path class="st2" d="M242.6,280.2c-0.6,0-1.1-0.1-1.6-0.4s-0.9-0.7-1.2-1.3c-0.3-0.6-0.5-1.3-0.5-2.2c0-0.9,0.2-1.7,0.5-2.4
			s0.8-1.2,1.5-1.6s1.4-0.6,2.2-0.6c0.5,0,0.9,0.1,1.3,0.2c0.3,0.1,0.6,0.2,0.7,0.3l-0.6,1.1c-0.1-0.1-0.3-0.2-0.6-0.3
			c-0.2,0-0.5-0.1-0.9-0.1c-0.4,0-0.8,0.1-1.1,0.3s-0.6,0.6-0.8,1c-0.2,0.5-0.3,1-0.3,1.7c0,1,0.2,1.7,0.5,2.1
			c0.4,0.5,0.8,0.7,1.5,0.7c0.4,0,0.7-0.1,1-0.2c0.3-0.1,0.5-0.3,0.7-0.4l0.3,0.8c-0.1,0.1-0.3,0.3-0.5,0.5
			c-0.2,0.2-0.5,0.3-0.8,0.5C243.5,280.2,243.1,280.2,242.6,280.2z M244.9,280.1V279l-0.1,0v-5.9l0.1,0l-0.1-1.6V268h1.7v12.1H244.9
			z"/>
		<path class="st2" d="M251,280.2c-0.5,0-0.9-0.1-1.3-0.3s-0.7-0.5-0.9-0.8c-0.2-0.4-0.3-0.8-0.3-1.3c0-0.5,0.1-1,0.4-1.4
			s0.7-0.7,1.2-0.9c0.3-0.1,0.7-0.2,1-0.3c0.4-0.1,0.7-0.1,1.1-0.2c0.4,0,0.7,0,1,0l0.4,0.5l-0.4,0.6c-0.2,0-0.4,0-0.7,0
			s-0.5,0.1-0.8,0.1c-0.3,0.1-0.5,0.1-0.7,0.2c-0.3,0.1-0.5,0.3-0.6,0.4s-0.3,0.4-0.3,0.7c0,0.4,0.1,0.7,0.3,0.9
			c0.2,0.2,0.6,0.3,1,0.3c0.2,0,0.5,0,0.7-0.1s0.4-0.1,0.6-0.2c0.2-0.1,0.3-0.2,0.3-0.2l0.3,0.4l-0.2,0.6c-0.2,0.2-0.5,0.4-0.9,0.6
			S251.5,280.2,251,280.2z M254.9,280.1h-1.6v-1.2h-0.1v-4.6c0-0.5-0.1-0.8-0.4-1c-0.3-0.2-0.6-0.2-1.1-0.2c-0.3,0-0.6,0-1,0.1
			c-0.3,0.1-0.6,0.1-0.9,0.2s-0.5,0.2-0.6,0.3l-0.4-1.2c0.1-0.1,0.3-0.2,0.7-0.3s0.7-0.2,1.1-0.3c0.4-0.1,0.9-0.2,1.3-0.2
			c0.6,0,1.2,0.1,1.6,0.2c0.5,0.1,0.8,0.4,1,0.8c0.2,0.4,0.4,1,0.4,1.7V280.1z"/>
		<path class="st2" d="M256.8,279.6l0.2-1.3c0.1,0.1,0.2,0.1,0.5,0.2c0.2,0.1,0.5,0.2,0.8,0.3c0.3,0.1,0.7,0.1,1,0.1
			c0.5,0,0.8-0.1,1.1-0.2c0.2-0.2,0.4-0.4,0.4-0.7c0-0.2-0.1-0.4-0.2-0.6c-0.1-0.2-0.4-0.3-0.6-0.4c-0.3-0.1-0.6-0.3-0.9-0.4
			c-0.4-0.2-0.8-0.4-1.2-0.7c-0.3-0.2-0.6-0.5-0.8-0.8c-0.2-0.3-0.3-0.7-0.3-1.2c0-0.5,0.2-0.9,0.4-1.2c0.3-0.3,0.6-0.6,1.1-0.7
			c0.5-0.2,1-0.2,1.5-0.2c0.5,0,1,0.1,1.4,0.2c0.4,0.1,0.7,0.2,0.8,0.3l-0.3,1.3c-0.1-0.1-0.2-0.1-0.4-0.2c-0.2-0.1-0.4-0.1-0.6-0.2
			c-0.2,0-0.5-0.1-0.7-0.1c-0.5,0-0.9,0.1-1.1,0.2c-0.3,0.1-0.4,0.4-0.4,0.6c0,0.4,0.1,0.6,0.4,0.8s0.6,0.4,0.9,0.5
			c0.5,0.2,1,0.5,1.4,0.7c0.4,0.2,0.7,0.5,1,0.8s0.4,0.7,0.4,1.2c0,0.8-0.3,1.4-0.8,1.8c-0.5,0.4-1.3,0.6-2.2,0.6
			c-0.4,0-0.8,0-1.1-0.1c-0.4-0.1-0.7-0.1-1-0.2C257.2,279.8,257,279.7,256.8,279.6z"/>
		<path class="st2" d="M270.3,280.2c-1.2,0-2.1-0.4-2.8-1.1s-1-1.8-1-3.1c0-0.8,0.1-1.5,0.4-2.2c0.3-0.6,0.7-1.1,1.3-1.5
			c0.6-0.4,1.2-0.6,2.1-0.6c0.4,0,0.8,0,1.2,0.2c0.4,0.1,0.7,0.3,1,0.6s0.5,0.6,0.7,1c0.2,0.4,0.3,0.9,0.3,1.4c0,0.3,0,0.6,0,0.8
			c0,0.2,0,0.5-0.1,0.7h-5.8l0.1-1.1h4.1c0-0.4,0-0.8-0.1-1.1c-0.1-0.4-0.2-0.6-0.5-0.9c-0.2-0.2-0.6-0.3-1-0.3
			c-0.4,0-0.7,0.1-1,0.3c-0.3,0.2-0.5,0.6-0.7,1.1c-0.2,0.5-0.2,1.2-0.2,2.1c0,0.6,0.2,1.1,0.4,1.5s0.5,0.6,0.9,0.8s0.8,0.2,1.2,0.2
			c0.2,0,0.4,0,0.7-0.1c0.3,0,0.5-0.1,0.8-0.2c0.3-0.1,0.5-0.1,0.6-0.2l0.3,1c-0.2,0.1-0.4,0.3-0.7,0.4s-0.7,0.2-1,0.3
			C271.1,280.2,270.7,280.2,270.3,280.2z"/>
		<path class="st2" d="M278,280.1v-8.3h1.5l0.1,1.1l0.1,0.6v6.6H278z M279.6,274l-0.1-1.1c0.1-0.2,0.2-0.3,0.5-0.5
			c0.2-0.2,0.5-0.3,0.8-0.5s0.7-0.2,1-0.2c0.2,0,0.4,0,0.5,0c0.1,0,0.2,0,0.3,0.1v1.6c-0.1,0-0.2-0.1-0.3-0.1s-0.4-0.1-0.7-0.1
			c-0.3,0-0.6,0-0.8,0.1c-0.2,0.1-0.5,0.2-0.6,0.3S279.8,273.9,279.6,274z"/>
		<path class="st2" d="M287.2,280.2c-1.2,0-2.1-0.4-2.8-1.1s-1-1.8-1-3.1c0-0.8,0.1-1.5,0.4-2.2c0.3-0.6,0.7-1.1,1.3-1.5
			c0.6-0.4,1.2-0.6,2.1-0.6c0.4,0,0.8,0,1.2,0.2c0.4,0.1,0.7,0.3,1,0.6s0.5,0.6,0.7,1c0.2,0.4,0.3,0.9,0.3,1.4c0,0.3,0,0.6,0,0.8
			c0,0.2,0,0.5-0.1,0.7h-5.8l0.1-1.1h4.1c0-0.4,0-0.8-0.1-1.1c-0.1-0.4-0.2-0.6-0.5-0.9c-0.2-0.2-0.6-0.3-1-0.3
			c-0.4,0-0.7,0.1-1,0.3c-0.3,0.2-0.5,0.6-0.7,1.1c-0.2,0.5-0.2,1.2-0.2,2.1c0,0.6,0.2,1.1,0.4,1.5s0.5,0.6,0.9,0.8s0.8,0.2,1.2,0.2
			c0.2,0,0.4,0,0.7-0.1c0.3,0,0.5-0.1,0.8-0.2c0.3-0.1,0.5-0.1,0.6-0.2l0.3,1c-0.2,0.1-0.4,0.3-0.7,0.4s-0.7,0.2-1,0.3
			C287.9,280.2,287.5,280.2,287.2,280.2z"/>
		<path class="st2" d="M291.6,276.1c0-0.8,0.1-1.6,0.4-2.2s0.7-1.2,1.3-1.6s1.3-0.6,2.2-0.6c0.5,0,1,0,1.3,0.1
			c0.4,0.1,0.6,0.2,0.7,0.3l-0.3,1.4c-0.2-0.1-0.5-0.3-0.8-0.3c-0.3-0.1-0.6-0.1-1.1-0.1c-0.4,0-0.7,0.1-1.1,0.3
			c-0.3,0.2-0.6,0.5-0.9,0.9c-0.2,0.4-0.4,0.9-0.4,1.6c0,0.7,0.1,1.3,0.3,1.7c0.2,0.5,0.5,0.8,0.8,1.1c0.4,0.2,0.8,0.4,1.2,0.4
			c0.4,0,0.8-0.1,1.1-0.2c0.3-0.1,0.6-0.2,0.8-0.3l0.3,1c-0.3,0.2-0.6,0.4-1.1,0.6c-0.5,0.1-1,0.2-1.5,0.2c-0.8,0-1.5-0.2-2-0.6
			s-1-0.9-1.2-1.5C291.8,277.6,291.6,276.8,291.6,276.1z"/>
		<path class="st2" d="M299.7,280.1V268h1.7v12.1H299.7z"/>
		<path class="st2" d="M306.3,280.2c-0.5,0-1-0.1-1.3-0.3c-0.3-0.2-0.6-0.4-0.8-0.7c-0.2-0.3-0.3-0.7-0.4-1.1
			c-0.1-0.4-0.1-0.9-0.1-1.5v-4.9h1.7v4.8c0,0.7,0.1,1.1,0.2,1.4c0.1,0.3,0.3,0.5,0.5,0.6s0.5,0.1,0.8,0.1c0.2,0,0.4,0,0.7-0.1
			c0.2-0.1,0.4-0.1,0.7-0.2c0.2-0.1,0.4-0.2,0.5-0.2v-6.4h1.7v8.4h-0.8c-0.2,0-0.4,0-0.5-0.1c-0.1-0.1-0.2-0.2-0.2-0.5V279l0,0.3
			c-0.2,0.1-0.5,0.3-0.8,0.4c-0.3,0.1-0.6,0.2-0.9,0.3C306.9,280.2,306.6,280.2,306.3,280.2z"/>
		<path class="st2" d="M312.6,279.6l0.2-1.3c0.1,0.1,0.2,0.1,0.5,0.2c0.2,0.1,0.5,0.2,0.8,0.3c0.3,0.1,0.7,0.1,1,0.1
			c0.5,0,0.8-0.1,1.1-0.2c0.2-0.2,0.4-0.4,0.4-0.7c0-0.2-0.1-0.4-0.2-0.6c-0.1-0.2-0.4-0.3-0.6-0.4c-0.3-0.1-0.6-0.3-0.9-0.4
			c-0.4-0.2-0.8-0.4-1.2-0.7c-0.3-0.2-0.6-0.5-0.8-0.8c-0.2-0.3-0.3-0.7-0.3-1.2c0-0.5,0.2-0.9,0.4-1.2c0.3-0.3,0.6-0.6,1.1-0.7
			c0.5-0.2,1-0.2,1.5-0.2c0.5,0,1,0.1,1.4,0.2c0.4,0.1,0.7,0.2,0.8,0.3l-0.3,1.3c-0.1-0.1-0.2-0.1-0.4-0.2c-0.2-0.1-0.4-0.1-0.6-0.2
			c-0.2,0-0.5-0.1-0.7-0.1c-0.5,0-0.9,0.1-1.1,0.2c-0.3,0.1-0.4,0.4-0.4,0.6c0,0.4,0.1,0.6,0.4,0.8s0.6,0.4,0.9,0.5
			c0.5,0.2,1,0.5,1.4,0.7c0.4,0.2,0.7,0.5,1,0.8s0.4,0.7,0.4,1.2c0,0.8-0.3,1.4-0.8,1.8c-0.5,0.4-1.3,0.6-2.2,0.6
			c-0.4,0-0.8,0-1.1-0.1c-0.4-0.1-0.7-0.1-1-0.2C312.9,279.8,312.7,279.7,312.6,279.6z"/>
		<path class="st2" d="M321.9,280.2c-0.5,0-0.9-0.1-1.3-0.3s-0.7-0.5-0.9-0.8c-0.2-0.4-0.3-0.8-0.3-1.3c0-0.5,0.1-1,0.4-1.4
			s0.7-0.7,1.2-0.9c0.3-0.1,0.7-0.2,1-0.3c0.4-0.1,0.7-0.1,1.1-0.2c0.4,0,0.7,0,1,0l0.4,0.5l-0.4,0.6c-0.2,0-0.4,0-0.7,0
			s-0.5,0.1-0.8,0.1c-0.3,0.1-0.5,0.1-0.7,0.2c-0.3,0.1-0.5,0.3-0.6,0.4s-0.3,0.4-0.3,0.7c0,0.4,0.1,0.7,0.3,0.9
			c0.2,0.2,0.6,0.3,1,0.3c0.2,0,0.5,0,0.7-0.1s0.4-0.1,0.6-0.2c0.2-0.1,0.3-0.2,0.3-0.2l0.3,0.4l-0.2,0.6c-0.2,0.2-0.5,0.4-0.9,0.6
			S322.4,280.2,321.9,280.2z M325.8,280.1h-1.6v-1.2h-0.1v-4.6c0-0.5-0.1-0.8-0.4-1c-0.3-0.2-0.6-0.2-1.1-0.2c-0.3,0-0.6,0-1,0.1
			c-0.3,0.1-0.6,0.1-0.9,0.2s-0.5,0.2-0.6,0.3l-0.4-1.2c0.1-0.1,0.3-0.2,0.7-0.3s0.7-0.2,1.1-0.3c0.4-0.1,0.9-0.2,1.3-0.2
			c0.6,0,1.2,0.1,1.6,0.2c0.5,0.1,0.8,0.4,1,0.8c0.2,0.4,0.4,1,0.4,1.7V280.1z"/>
		<path class="st2" d="M327.7,279.6l0.2-1.3c0.1,0.1,0.2,0.1,0.5,0.2c0.2,0.1,0.5,0.2,0.8,0.3c0.3,0.1,0.7,0.1,1,0.1
			c0.5,0,0.8-0.1,1.1-0.2c0.2-0.2,0.4-0.4,0.4-0.7c0-0.2-0.1-0.4-0.2-0.6c-0.1-0.2-0.4-0.3-0.6-0.4c-0.3-0.1-0.6-0.3-0.9-0.4
			c-0.4-0.2-0.8-0.4-1.2-0.7c-0.3-0.2-0.6-0.5-0.8-0.8c-0.2-0.3-0.3-0.7-0.3-1.2c0-0.5,0.2-0.9,0.4-1.2c0.3-0.3,0.6-0.6,1.1-0.7
			c0.5-0.2,1-0.2,1.5-0.2c0.5,0,1,0.1,1.4,0.2c0.4,0.1,0.7,0.2,0.8,0.3l-0.3,1.3c-0.1-0.1-0.2-0.1-0.4-0.2c-0.2-0.1-0.4-0.1-0.6-0.2
			c-0.2,0-0.5-0.1-0.7-0.1c-0.5,0-0.9,0.1-1.1,0.2c-0.3,0.1-0.4,0.4-0.4,0.6c0,0.4,0.1,0.6,0.4,0.8s0.6,0.4,0.9,0.5
			c0.5,0.2,1,0.5,1.4,0.7c0.4,0.2,0.7,0.5,1,0.8s0.4,0.7,0.4,1.2c0,0.8-0.3,1.4-0.8,1.8c-0.5,0.4-1.3,0.6-2.2,0.6
			c-0.4,0-0.8,0-1.1-0.1c-0.4-0.1-0.7-0.1-1-0.2C328.1,279.8,327.9,279.7,327.7,279.6z"/>
		<path class="st2" d="M336.3,274.5c-0.3,0-0.6-0.1-0.8-0.3c-0.2-0.2-0.3-0.5-0.3-0.8c0-0.2,0.1-0.5,0.2-0.7
			c0.1-0.2,0.3-0.4,0.5-0.5s0.4-0.2,0.6-0.2c0.4,0,0.6,0.1,0.8,0.3s0.3,0.5,0.3,0.8c0,0.2,0,0.5-0.2,0.7c-0.1,0.2-0.3,0.4-0.5,0.5
			C336.7,274.5,336.5,274.5,336.3,274.5z M336.3,280.3c-0.3,0-0.6-0.1-0.8-0.3c-0.2-0.2-0.3-0.5-0.3-0.8c0-0.2,0.1-0.5,0.2-0.7
			c0.1-0.2,0.3-0.4,0.5-0.5s0.4-0.2,0.6-0.2c0.4,0,0.6,0.1,0.8,0.3s0.3,0.5,0.3,0.8c0,0.2,0,0.5-0.2,0.7c-0.1,0.2-0.3,0.4-0.5,0.5
			C336.7,280.2,336.5,280.3,336.3,280.3z"/>
	</g>
	<g>
		<path class="st2" d="M95.2,296.5c-0.7,0-1.2-0.1-1.7-0.4s-0.9-0.6-1.1-1s-0.5-0.9-0.6-1.4c-0.1-0.5-0.2-1.1-0.2-1.7
			c0-0.9,0.2-1.6,0.5-2.2c0.3-0.6,0.8-1.1,1.4-1.4c0.6-0.3,1.2-0.5,1.9-0.5c0.9,0,1.6,0.2,2.2,0.6c0.5,0.4,0.9,1,1.2,1.6
			c0.2,0.7,0.4,1.4,0.3,2.2c0,0.9-0.2,1.6-0.5,2.2s-0.8,1.1-1.4,1.4C96.6,296.4,95.9,296.5,95.2,296.5z M95.3,295.3
			c0.7,0,1.2-0.2,1.5-0.8c0.3-0.5,0.5-1.3,0.5-2.2c0-0.6-0.1-1.1-0.2-1.6c-0.1-0.5-0.4-0.8-0.7-1.1c-0.3-0.3-0.7-0.4-1.1-0.4
			c-0.7,0-1.2,0.2-1.5,0.7c-0.3,0.5-0.5,1.2-0.5,2.1c0,0.6,0.1,1.1,0.2,1.6c0.1,0.5,0.4,0.9,0.6,1.2S94.8,295.3,95.3,295.3z"/>
		<path class="st2" d="M101,300.1v-12h1.6v1l0.1,0.2v6.4l0,0.3l0,1.4v2.7H101z M104,296.5c-0.5,0-0.9-0.1-1.3-0.2s-0.6-0.2-0.7-0.3
			l0.6-1.1c0.2,0.1,0.4,0.2,0.6,0.3c0.2,0.1,0.5,0.1,0.9,0.1c0.4,0,0.8-0.1,1.2-0.4c0.3-0.2,0.6-0.6,0.8-1.1c0.2-0.5,0.3-1,0.3-1.7
			c0-1-0.2-1.7-0.5-2.2c-0.4-0.4-0.9-0.7-1.5-0.7c-0.4,0-0.7,0.1-1,0.2c-0.3,0.1-0.5,0.3-0.7,0.4l-0.3-0.8c0.1-0.1,0.3-0.3,0.5-0.4
			c0.2-0.2,0.5-0.3,0.8-0.5c0.3-0.1,0.7-0.2,1.2-0.2c0.6,0,1.1,0.1,1.6,0.4c0.5,0.3,0.9,0.7,1.2,1.3s0.5,1.3,0.5,2.2
			c0,0.9-0.2,1.7-0.5,2.4c-0.3,0.7-0.8,1.2-1.5,1.6C105.6,296.3,104.9,296.5,104,296.5z"/>
		<path class="st2" d="M113.2,296.5c-0.7,0-1.2-0.1-1.7-0.4s-0.9-0.6-1.1-1s-0.5-0.9-0.6-1.4c-0.1-0.5-0.2-1.1-0.2-1.7
			c0-0.9,0.2-1.6,0.5-2.2c0.3-0.6,0.8-1.1,1.4-1.4c0.6-0.3,1.2-0.5,1.9-0.5c0.9,0,1.6,0.2,2.2,0.6c0.5,0.4,0.9,1,1.2,1.6
			c0.2,0.7,0.4,1.4,0.3,2.2c0,0.9-0.2,1.6-0.5,2.2s-0.8,1.1-1.4,1.4C114.6,296.4,114,296.5,113.2,296.5z M113.3,295.3
			c0.7,0,1.2-0.2,1.5-0.8c0.3-0.5,0.5-1.3,0.5-2.2c0-0.6-0.1-1.1-0.2-1.6c-0.1-0.5-0.4-0.8-0.7-1.1c-0.3-0.3-0.7-0.4-1.1-0.4
			c-0.7,0-1.2,0.2-1.5,0.7c-0.3,0.5-0.5,1.2-0.5,2.1c0,0.6,0.1,1.1,0.2,1.6c0.1,0.5,0.4,0.9,0.6,1.2S112.8,295.3,113.3,295.3z"/>
		<path class="st2" d="M118.9,296.4v-8.3h1.5l0.1,1.1l0.1,0.6v6.6H118.9z M120.5,290.3l-0.1-1.1c0.1-0.2,0.2-0.3,0.5-0.5
			c0.2-0.2,0.5-0.3,0.8-0.5c0.3-0.1,0.7-0.2,1-0.2c0.2,0,0.4,0,0.5,0c0.1,0,0.2,0,0.3,0.1v1.6c-0.1,0-0.2-0.1-0.3-0.1
			s-0.4-0.1-0.7-0.1c-0.3,0-0.6,0-0.8,0.1c-0.2,0.1-0.5,0.2-0.6,0.3S120.7,290.2,120.5,290.3z"/>
		<path class="st2" d="M127.4,296.5c-0.4,0-0.7-0.1-1-0.2s-0.5-0.3-0.7-0.7c-0.2-0.3-0.3-0.8-0.3-1.3v-5h-1.1v-0.9
			c0.4-0.1,0.6-0.2,0.8-0.3c0.2-0.1,0.3-0.2,0.4-0.5c0-0.1,0.1-0.2,0.1-0.4s0.1-0.3,0.2-0.5c0.1-0.2,0.1-0.4,0.2-0.6h1v1.9h2.3v1.3
			h-2.3v4.1c0,0.5,0,0.9,0.1,1.2c0,0.2,0.1,0.4,0.3,0.5s0.3,0.1,0.6,0.1c0.1,0,0.3,0,0.5,0c0.2,0,0.4-0.1,0.5-0.1
			c0.2,0,0.3-0.1,0.4-0.2l0.3,1c-0.1,0.1-0.3,0.2-0.6,0.3c-0.3,0.1-0.5,0.2-0.8,0.3C128,296.5,127.7,296.5,127.4,296.5z"/>
		<path class="st2" d="M133.7,296.5c-0.5,0-1-0.1-1.3-0.3c-0.3-0.2-0.6-0.4-0.8-0.7s-0.3-0.7-0.4-1.1c-0.1-0.4-0.1-0.9-0.1-1.5v-4.9
			h1.7v4.8c0,0.7,0.1,1.1,0.2,1.4c0.1,0.3,0.3,0.5,0.5,0.6c0.2,0.1,0.5,0.1,0.8,0.1c0.2,0,0.4,0,0.7-0.1c0.2-0.1,0.4-0.1,0.7-0.2
			c0.2-0.1,0.4-0.2,0.5-0.2v-6.4h1.7v8.4h-0.8c-0.2,0-0.4,0-0.5-0.1c-0.1-0.1-0.2-0.2-0.2-0.5v-0.6l0,0.3c-0.2,0.1-0.5,0.3-0.8,0.4
			c-0.3,0.1-0.6,0.2-0.9,0.3C134.3,296.5,134,296.5,133.7,296.5z"/>
		<path class="st2" d="M140.4,296.4v-8.3h1.5l0,0.9c0.2-0.1,0.5-0.3,0.8-0.4c0.3-0.2,0.6-0.3,1-0.4c0.4-0.1,0.7-0.2,1.1-0.2
			c0.9,0,1.5,0.2,1.9,0.7c0.4,0.5,0.6,1.3,0.6,2.6v5.2h-1.7v-5.1c0-0.7-0.1-1.2-0.3-1.5s-0.6-0.4-1.2-0.4c-0.2,0-0.4,0-0.6,0.1
			c-0.2,0.1-0.5,0.1-0.7,0.2c-0.2,0.1-0.5,0.2-0.7,0.4v6.2H140.4z"/>
		<path class="st2" d="M150.6,286.7c-0.3,0-0.5-0.1-0.8-0.3c-0.2-0.2-0.3-0.4-0.3-0.8c0-0.2,0.1-0.4,0.2-0.6
			c0.1-0.2,0.3-0.3,0.5-0.4c0.2-0.1,0.4-0.2,0.6-0.2c0.4,0,0.6,0.1,0.8,0.3c0.2,0.2,0.3,0.4,0.3,0.7c0,0.3-0.1,0.6-0.4,0.8
			C151.2,286.6,151,286.7,150.6,286.7z M149.9,296.4v-8.3h1.7v8.3H149.9z"/>
		<path class="st2" d="M156.9,296.5c-0.6,0-1.1-0.1-1.6-0.4s-0.9-0.7-1.2-1.3c-0.3-0.6-0.5-1.3-0.5-2.2c0-0.9,0.2-1.7,0.5-2.4
			c0.3-0.7,0.8-1.2,1.5-1.6s1.4-0.6,2.2-0.6c0.5,0,0.9,0.1,1.3,0.2c0.3,0.1,0.6,0.2,0.7,0.3l-0.6,1.1c-0.1-0.1-0.3-0.2-0.6-0.3
			c-0.2,0-0.5-0.1-0.9-0.1c-0.4,0-0.8,0.1-1.1,0.4s-0.6,0.6-0.8,1c-0.2,0.5-0.3,1-0.3,1.7c0,1,0.2,1.7,0.5,2.1
			c0.4,0.5,0.8,0.7,1.5,0.7c0.4,0,0.7-0.1,1-0.2c0.3-0.1,0.5-0.3,0.7-0.4l0.3,0.8c-0.1,0.1-0.3,0.3-0.5,0.5
			c-0.2,0.2-0.5,0.3-0.8,0.5C157.8,296.5,157.4,296.5,156.9,296.5z M159.2,296.4v-1.1l-0.1,0v-5.9l0.1,0l-0.1-1.6v-3.4h1.7v12.1
			H159.2z"/>
		<path class="st2" d="M165.3,296.5c-0.5,0-0.9-0.1-1.3-0.3s-0.7-0.5-0.9-0.8c-0.2-0.4-0.3-0.8-0.3-1.3c0-0.5,0.1-1,0.4-1.4
			c0.3-0.4,0.7-0.7,1.2-0.9c0.3-0.1,0.7-0.2,1-0.3c0.4-0.1,0.7-0.1,1.1-0.2c0.4,0,0.7,0,1,0l0.4,0.5l-0.4,0.6c-0.2,0-0.4,0-0.7,0
			s-0.5,0.1-0.8,0.1c-0.3,0.1-0.5,0.1-0.7,0.2c-0.3,0.1-0.5,0.3-0.6,0.4s-0.3,0.4-0.3,0.7c0,0.4,0.1,0.7,0.3,0.9
			c0.2,0.2,0.6,0.3,1,0.3c0.2,0,0.5,0,0.7-0.1s0.4-0.1,0.6-0.2c0.2-0.1,0.3-0.2,0.3-0.2l0.3,0.4l-0.2,0.6c-0.2,0.2-0.5,0.4-0.9,0.6
			S165.8,296.5,165.3,296.5z M169.2,296.4h-1.6v-1.2h-0.1v-4.6c0-0.5-0.1-0.8-0.4-1c-0.3-0.2-0.6-0.2-1.1-0.2c-0.3,0-0.6,0-1,0.1
			c-0.3,0.1-0.6,0.1-0.9,0.2s-0.5,0.2-0.6,0.3l-0.4-1.2c0.1-0.1,0.3-0.2,0.7-0.3s0.7-0.2,1.1-0.3c0.4-0.1,0.9-0.2,1.3-0.2
			c0.6,0,1.2,0.1,1.6,0.2c0.5,0.1,0.8,0.4,1,0.8c0.2,0.4,0.4,1,0.4,1.7V296.4z"/>
		<path class="st2" d="M174.3,296.5c-0.6,0-1.1-0.1-1.6-0.4s-0.9-0.7-1.2-1.3c-0.3-0.6-0.5-1.3-0.5-2.2c0-0.9,0.2-1.7,0.5-2.4
			c0.3-0.7,0.8-1.2,1.5-1.6s1.4-0.6,2.2-0.6c0.5,0,0.9,0.1,1.3,0.2c0.3,0.1,0.6,0.2,0.7,0.3l-0.6,1.1c-0.1-0.1-0.3-0.2-0.6-0.3
			c-0.2,0-0.5-0.1-0.9-0.1c-0.4,0-0.8,0.1-1.1,0.4s-0.6,0.6-0.8,1c-0.2,0.5-0.3,1-0.3,1.7c0,1,0.2,1.7,0.5,2.1
			c0.4,0.5,0.8,0.7,1.5,0.7c0.4,0,0.7-0.1,1-0.2c0.3-0.1,0.5-0.3,0.7-0.4l0.3,0.8c-0.1,0.1-0.3,0.3-0.5,0.5
			c-0.2,0.2-0.5,0.3-0.8,0.5C175.3,296.5,174.8,296.5,174.3,296.5z M176.7,296.4v-1.1l-0.1,0v-5.9l0.1,0l-0.1-1.6v-3.4h1.7v12.1
			H176.7z"/>
		<path class="st2" d="M183.9,296.5c-1.2,0-2.1-0.4-2.8-1.1s-1-1.8-1-3.1c0-0.8,0.1-1.5,0.4-2.2c0.3-0.6,0.7-1.1,1.3-1.5
			s1.2-0.6,2.1-0.6c0.4,0,0.8,0,1.2,0.2c0.4,0.1,0.7,0.3,1,0.6c0.3,0.3,0.5,0.6,0.7,1s0.3,0.9,0.3,1.4c0,0.3,0,0.6,0,0.8
			s0,0.5-0.1,0.7h-5.8l0.1-1.1h4.1c0-0.4,0-0.8-0.1-1.1c-0.1-0.4-0.2-0.6-0.5-0.9c-0.2-0.2-0.6-0.3-1-0.3c-0.4,0-0.7,0.1-1,0.3
			c-0.3,0.2-0.5,0.6-0.7,1.1c-0.2,0.5-0.2,1.2-0.2,2.1c0,0.6,0.2,1.1,0.4,1.5s0.5,0.6,0.9,0.8c0.4,0.2,0.8,0.2,1.2,0.2
			c0.2,0,0.4,0,0.7-0.1c0.3,0,0.5-0.1,0.8-0.2c0.3-0.1,0.5-0.1,0.6-0.2l0.3,1c-0.2,0.1-0.4,0.3-0.7,0.4s-0.7,0.2-1,0.3
			C184.6,296.5,184.3,296.5,183.9,296.5z"/>
		<path class="st2" d="M188.6,295.9l0.2-1.3c0.1,0.1,0.2,0.1,0.5,0.2c0.2,0.1,0.5,0.2,0.8,0.3c0.3,0.1,0.7,0.1,1,0.1
			c0.5,0,0.8-0.1,1.1-0.2s0.4-0.4,0.4-0.7c0-0.2-0.1-0.4-0.2-0.6c-0.1-0.2-0.4-0.3-0.6-0.4c-0.3-0.1-0.6-0.3-0.9-0.4
			c-0.4-0.2-0.8-0.4-1.2-0.7c-0.3-0.2-0.6-0.5-0.8-0.8c-0.2-0.3-0.3-0.7-0.3-1.2c0-0.5,0.2-0.9,0.4-1.2c0.3-0.3,0.6-0.6,1.1-0.7
			s1-0.2,1.5-0.2c0.5,0,1,0.1,1.4,0.2c0.4,0.1,0.7,0.2,0.8,0.3l-0.3,1.3c-0.1-0.1-0.2-0.1-0.4-0.2c-0.2-0.1-0.4-0.1-0.6-0.2
			c-0.2,0-0.5-0.1-0.7-0.1c-0.5,0-0.9,0.1-1.1,0.2c-0.3,0.1-0.4,0.4-0.4,0.6c0,0.4,0.1,0.6,0.4,0.8s0.6,0.4,0.9,0.5
			c0.5,0.2,1,0.5,1.4,0.7c0.4,0.2,0.7,0.5,1,0.8s0.4,0.7,0.4,1.2c0,0.8-0.3,1.4-0.8,1.8c-0.5,0.4-1.3,0.6-2.2,0.6
			c-0.4,0-0.8,0-1.1-0.1c-0.4-0.1-0.7-0.1-1-0.2C188.9,296.1,188.7,296,188.6,295.9z"/>
		<path class="st2" d="M201.6,296.5c-0.6,0-1.1-0.1-1.6-0.4s-0.9-0.7-1.2-1.3c-0.3-0.6-0.5-1.3-0.5-2.2c0-0.9,0.2-1.7,0.5-2.4
			c0.3-0.7,0.8-1.2,1.5-1.6s1.4-0.6,2.2-0.6c0.5,0,0.9,0.1,1.3,0.2c0.3,0.1,0.6,0.2,0.7,0.3l-0.6,1.1c-0.1-0.1-0.3-0.2-0.6-0.3
			c-0.2,0-0.5-0.1-0.9-0.1c-0.4,0-0.8,0.1-1.1,0.4s-0.6,0.6-0.8,1c-0.2,0.5-0.3,1-0.3,1.7c0,1,0.2,1.7,0.5,2.1
			c0.4,0.5,0.8,0.7,1.5,0.7c0.4,0,0.7-0.1,1-0.2c0.3-0.1,0.5-0.3,0.7-0.4l0.3,0.8c-0.1,0.1-0.3,0.3-0.5,0.5
			c-0.2,0.2-0.5,0.3-0.8,0.5C202.5,296.5,202.1,296.5,201.6,296.5z M203.9,296.4v-1.1l-0.1,0v-5.9l0.1,0l-0.1-1.6v-3.4h1.7v12.1
			H203.9z"/>
		<path class="st2" d="M211.2,296.5c-1.2,0-2.1-0.4-2.8-1.1s-1-1.8-1-3.1c0-0.8,0.1-1.5,0.4-2.2c0.3-0.6,0.7-1.1,1.3-1.5
			s1.2-0.6,2.1-0.6c0.4,0,0.8,0,1.2,0.2c0.4,0.1,0.7,0.3,1,0.6c0.3,0.3,0.5,0.6,0.7,1s0.3,0.9,0.3,1.4c0,0.3,0,0.6,0,0.8
			s0,0.5-0.1,0.7h-5.8l0.1-1.1h4.1c0-0.4,0-0.8-0.1-1.1c-0.1-0.4-0.2-0.6-0.5-0.9c-0.2-0.2-0.6-0.3-1-0.3c-0.4,0-0.7,0.1-1,0.3
			c-0.3,0.2-0.5,0.6-0.7,1.1c-0.2,0.5-0.2,1.2-0.2,2.1c0,0.6,0.2,1.1,0.4,1.5s0.5,0.6,0.9,0.8c0.4,0.2,0.8,0.2,1.2,0.2
			c0.2,0,0.4,0,0.7-0.1c0.3,0,0.5-0.1,0.8-0.2c0.3-0.1,0.5-0.1,0.6-0.2l0.3,1c-0.2,0.1-0.4,0.3-0.7,0.4s-0.7,0.2-1,0.3
			C211.9,296.5,211.5,296.5,211.2,296.5z"/>
		<path class="st2" d="M218.3,292.4c0-0.8,0.1-1.6,0.4-2.2c0.3-0.7,0.7-1.2,1.3-1.6s1.3-0.6,2.2-0.6c0.5,0,1,0,1.3,0.1
			c0.4,0.1,0.6,0.2,0.7,0.3l-0.3,1.4c-0.2-0.1-0.5-0.3-0.8-0.3s-0.6-0.1-1.1-0.1c-0.4,0-0.7,0.1-1.1,0.3s-0.6,0.5-0.9,0.9
			c-0.2,0.4-0.4,0.9-0.4,1.6c0,0.7,0.1,1.3,0.3,1.7c0.2,0.5,0.5,0.8,0.8,1.1c0.4,0.2,0.8,0.4,1.2,0.4c0.4,0,0.8-0.1,1.1-0.2
			c0.3-0.1,0.6-0.2,0.8-0.3l0.3,1c-0.3,0.2-0.6,0.4-1.1,0.6c-0.5,0.1-1,0.2-1.5,0.2c-0.8,0-1.5-0.2-2-0.6s-1-0.9-1.2-1.5
			C218.5,293.9,218.3,293.2,218.3,292.4z"/>
		<path class="st2" d="M228.6,296.5c-0.5,0-1-0.1-1.3-0.3c-0.3-0.2-0.6-0.4-0.8-0.7s-0.3-0.7-0.4-1.1c-0.1-0.4-0.1-0.9-0.1-1.5v-4.9
			h1.7v4.8c0,0.7,0.1,1.1,0.2,1.4c0.1,0.3,0.3,0.5,0.5,0.6c0.2,0.1,0.5,0.1,0.8,0.1c0.2,0,0.4,0,0.7-0.1c0.2-0.1,0.4-0.1,0.7-0.2
			c0.2-0.1,0.4-0.2,0.5-0.2v-6.4h1.7v8.4H232c-0.2,0-0.4,0-0.5-0.1c-0.1-0.1-0.2-0.2-0.2-0.5v-0.6l0,0.3c-0.2,0.1-0.5,0.3-0.8,0.4
			c-0.3,0.1-0.6,0.2-0.9,0.3C229.2,296.5,228.9,296.5,228.6,296.5z"/>
		<path class="st2" d="M236.2,286.7c-0.3,0-0.5-0.1-0.8-0.3c-0.2-0.2-0.3-0.4-0.3-0.8c0-0.2,0.1-0.4,0.2-0.6
			c0.1-0.2,0.3-0.3,0.5-0.4c0.2-0.1,0.4-0.2,0.6-0.2c0.4,0,0.6,0.1,0.8,0.3c0.2,0.2,0.3,0.4,0.3,0.7c0,0.3-0.1,0.6-0.4,0.8
			C236.8,286.6,236.5,286.7,236.2,286.7z M235.4,296.4v-8.3h1.7v8.3H235.4z"/>
		<path class="st2" d="M242.4,296.5c-0.6,0-1.1-0.1-1.6-0.4s-0.9-0.7-1.2-1.3c-0.3-0.6-0.5-1.3-0.5-2.2c0-0.9,0.2-1.7,0.5-2.4
			c0.3-0.7,0.8-1.2,1.5-1.6s1.4-0.6,2.2-0.6c0.5,0,0.9,0.1,1.3,0.2c0.3,0.1,0.6,0.2,0.7,0.3l-0.6,1.1c-0.1-0.1-0.3-0.2-0.6-0.3
			c-0.2,0-0.5-0.1-0.9-0.1c-0.4,0-0.8,0.1-1.1,0.4s-0.6,0.6-0.8,1c-0.2,0.5-0.3,1-0.3,1.7c0,1,0.2,1.7,0.5,2.1
			c0.4,0.5,0.8,0.7,1.5,0.7c0.4,0,0.7-0.1,1-0.2c0.3-0.1,0.5-0.3,0.7-0.4l0.3,0.8c-0.1,0.1-0.3,0.3-0.5,0.5
			c-0.2,0.2-0.5,0.3-0.8,0.5C243.3,296.5,242.9,296.5,242.4,296.5z M244.7,296.4v-1.1l-0.1,0v-5.9l0.1,0l-0.1-1.6v-3.4h1.7v12.1
			H244.7z"/>
		<path class="st2" d="M250.8,296.5c-0.5,0-0.9-0.1-1.3-0.3s-0.7-0.5-0.9-0.8c-0.2-0.4-0.3-0.8-0.3-1.3c0-0.5,0.1-1,0.4-1.4
			c0.3-0.4,0.7-0.7,1.2-0.9c0.3-0.1,0.7-0.2,1-0.3c0.4-0.1,0.7-0.1,1.1-0.2c0.4,0,0.7,0,1,0l0.4,0.5l-0.4,0.6c-0.2,0-0.4,0-0.7,0
			s-0.5,0.1-0.8,0.1c-0.3,0.1-0.5,0.1-0.7,0.2c-0.3,0.1-0.5,0.3-0.6,0.4s-0.3,0.4-0.3,0.7c0,0.4,0.1,0.7,0.3,0.9
			c0.2,0.2,0.6,0.3,1,0.3c0.2,0,0.5,0,0.7-0.1s0.4-0.1,0.6-0.2c0.2-0.1,0.3-0.2,0.3-0.2l0.3,0.4l-0.2,0.6c-0.2,0.2-0.5,0.4-0.9,0.6
			S251.3,296.5,250.8,296.5z M254.7,296.4h-1.6v-1.2H253v-4.6c0-0.5-0.1-0.8-0.4-1c-0.3-0.2-0.6-0.2-1.1-0.2c-0.3,0-0.6,0-1,0.1
			c-0.3,0.1-0.6,0.1-0.9,0.2s-0.5,0.2-0.6,0.3l-0.4-1.2c0.1-0.1,0.3-0.2,0.7-0.3s0.7-0.2,1.1-0.3c0.4-0.1,0.9-0.2,1.3-0.2
			c0.6,0,1.2,0.1,1.6,0.2c0.5,0.1,0.8,0.4,1,0.8c0.2,0.4,0.4,1,0.4,1.7V296.4z"/>
		<path class="st2" d="M259.9,296.5c-0.6,0-1.1-0.1-1.6-0.4s-0.9-0.7-1.2-1.3c-0.3-0.6-0.5-1.3-0.5-2.2c0-0.9,0.2-1.7,0.5-2.4
			c0.3-0.7,0.8-1.2,1.5-1.6s1.4-0.6,2.2-0.6c0.5,0,0.9,0.1,1.3,0.2c0.3,0.1,0.6,0.2,0.7,0.3l-0.6,1.1c-0.1-0.1-0.3-0.2-0.6-0.3
			c-0.2,0-0.5-0.1-0.9-0.1c-0.4,0-0.8,0.1-1.1,0.4s-0.6,0.6-0.8,1c-0.2,0.5-0.3,1-0.3,1.7c0,1,0.2,1.7,0.5,2.1
			c0.4,0.5,0.8,0.7,1.5,0.7c0.4,0,0.7-0.1,1-0.2c0.3-0.1,0.5-0.3,0.7-0.4l0.3,0.8c-0.1,0.1-0.3,0.3-0.5,0.5
			c-0.2,0.2-0.5,0.3-0.8,0.5C260.8,296.5,260.4,296.5,259.9,296.5z M262.2,296.4v-1.1l-0.1,0v-5.9l0.1,0l-0.1-1.6v-3.4h1.7v12.1
			H262.2z"/>
		<path class="st2" d="M269.4,296.5c-0.7,0-1.2-0.1-1.7-0.4s-0.9-0.6-1.1-1s-0.5-0.9-0.6-1.4c-0.1-0.5-0.2-1.1-0.2-1.7
			c0-0.9,0.2-1.6,0.5-2.2c0.3-0.6,0.8-1.1,1.4-1.4c0.6-0.3,1.2-0.5,1.9-0.5c0.9,0,1.6,0.2,2.2,0.6c0.5,0.4,0.9,1,1.2,1.6
			c0.2,0.7,0.4,1.4,0.3,2.2c0,0.9-0.2,1.6-0.5,2.2s-0.8,1.1-1.4,1.4C270.8,296.4,270.1,296.5,269.4,296.5z M269.4,295.3
			c0.7,0,1.2-0.2,1.5-0.8c0.3-0.5,0.5-1.3,0.5-2.2c0-0.6-0.1-1.1-0.2-1.6c-0.1-0.5-0.4-0.8-0.7-1.1c-0.3-0.3-0.7-0.4-1.1-0.4
			c-0.7,0-1.2,0.2-1.5,0.7c-0.3,0.5-0.5,1.2-0.5,2.1c0,0.6,0.1,1.1,0.2,1.6c0.1,0.5,0.4,0.9,0.6,1.2S269,295.3,269.4,295.3z"/>
		<path class="st2" d="M281.1,296.5c-1.2,0-2.1-0.4-2.8-1.1s-1-1.8-1-3.1c0-0.8,0.1-1.5,0.4-2.2c0.3-0.6,0.7-1.1,1.3-1.5
			s1.2-0.6,2.1-0.6c0.4,0,0.8,0,1.2,0.2c0.4,0.1,0.7,0.3,1,0.6c0.3,0.3,0.5,0.6,0.7,1s0.3,0.9,0.3,1.4c0,0.3,0,0.6,0,0.8
			s0,0.5-0.1,0.7h-5.8l0.1-1.1h4.1c0-0.4,0-0.8-0.1-1.1c-0.1-0.4-0.2-0.6-0.5-0.9c-0.2-0.2-0.6-0.3-1-0.3c-0.4,0-0.7,0.1-1,0.3
			c-0.3,0.2-0.5,0.6-0.7,1.1c-0.2,0.5-0.2,1.2-0.2,2.1c0,0.6,0.2,1.1,0.4,1.5s0.5,0.6,0.9,0.8c0.4,0.2,0.8,0.2,1.2,0.2
			c0.2,0,0.4,0,0.7-0.1c0.3,0,0.5-0.1,0.8-0.2c0.3-0.1,0.5-0.1,0.6-0.2l0.3,1c-0.2,0.1-0.4,0.3-0.7,0.4s-0.7,0.2-1,0.3
			C281.8,296.5,281.4,296.5,281.1,296.5z"/>
		<path class="st2" d="M290.9,296.5c-0.5,0-0.9-0.1-1.3-0.3s-0.7-0.5-0.9-0.8c-0.2-0.4-0.3-0.8-0.3-1.3c0-0.5,0.1-1,0.4-1.4
			c0.3-0.4,0.7-0.7,1.2-0.9c0.3-0.1,0.7-0.2,1-0.3c0.4-0.1,0.7-0.1,1.1-0.2c0.4,0,0.7,0,1,0l0.4,0.5l-0.4,0.6c-0.2,0-0.4,0-0.7,0
			s-0.5,0.1-0.8,0.1c-0.3,0.1-0.5,0.1-0.7,0.2c-0.3,0.1-0.5,0.3-0.6,0.4s-0.3,0.4-0.3,0.7c0,0.4,0.1,0.7,0.3,0.9
			c0.2,0.2,0.6,0.3,1,0.3c0.2,0,0.5,0,0.7-0.1s0.4-0.1,0.6-0.2c0.2-0.1,0.3-0.2,0.3-0.2l0.3,0.4l-0.2,0.6c-0.2,0.2-0.5,0.4-0.9,0.6
			S291.3,296.5,290.9,296.5z M294.8,296.4h-1.6v-1.2h-0.1v-4.6c0-0.5-0.1-0.8-0.4-1c-0.3-0.2-0.6-0.2-1.1-0.2c-0.3,0-0.6,0-1,0.1
			c-0.3,0.1-0.6,0.1-0.9,0.2s-0.5,0.2-0.6,0.3l-0.4-1.2c0.1-0.1,0.3-0.2,0.7-0.3s0.7-0.2,1.1-0.3c0.4-0.1,0.9-0.2,1.3-0.2
			c0.6,0,1.2,0.1,1.6,0.2c0.5,0.1,0.8,0.4,1,0.8c0.2,0.4,0.4,1,0.4,1.7V296.4z"/>
		<path class="st2" d="M299.5,296.5c-0.4,0-0.7-0.1-1-0.2s-0.5-0.3-0.7-0.7c-0.2-0.3-0.3-0.8-0.3-1.3v-5h-1.1v-0.9
			c0.4-0.1,0.6-0.2,0.8-0.3c0.2-0.1,0.3-0.2,0.4-0.5c0-0.1,0.1-0.2,0.1-0.4s0.1-0.3,0.2-0.5c0.1-0.2,0.1-0.4,0.2-0.6h1v1.9h2.3v1.3
			h-2.3v4.1c0,0.5,0,0.9,0.1,1.2c0,0.2,0.1,0.4,0.3,0.5s0.3,0.1,0.6,0.1c0.1,0,0.3,0,0.5,0c0.2,0,0.4-0.1,0.5-0.1
			c0.2,0,0.3-0.1,0.4-0.2l0.3,1c-0.1,0.1-0.3,0.2-0.6,0.3c-0.3,0.1-0.5,0.2-0.8,0.3C300.1,296.5,299.8,296.5,299.5,296.5z"/>
		<path class="st2" d="M306.7,296.5c-1.2,0-2.1-0.4-2.8-1.1s-1-1.8-1-3.1c0-0.8,0.1-1.5,0.4-2.2c0.3-0.6,0.7-1.1,1.3-1.5
			s1.2-0.6,2.1-0.6c0.4,0,0.8,0,1.2,0.2c0.4,0.1,0.7,0.3,1,0.6c0.3,0.3,0.5,0.6,0.7,1s0.3,0.9,0.3,1.4c0,0.3,0,0.6,0,0.8
			s0,0.5-0.1,0.7H304l0.1-1.1h4.1c0-0.4,0-0.8-0.1-1.1c-0.1-0.4-0.2-0.6-0.5-0.9c-0.2-0.2-0.6-0.3-1-0.3c-0.4,0-0.7,0.1-1,0.3
			c-0.3,0.2-0.5,0.6-0.7,1.1c-0.2,0.5-0.2,1.2-0.2,2.1c0,0.6,0.2,1.1,0.4,1.5s0.5,0.6,0.9,0.8c0.4,0.2,0.8,0.2,1.2,0.2
			c0.2,0,0.4,0,0.7-0.1c0.3,0,0.5-0.1,0.8-0.2c0.3-0.1,0.5-0.1,0.6-0.2l0.3,1c-0.2,0.1-0.4,0.3-0.7,0.4s-0.7,0.2-1,0.3
			C307.4,296.5,307,296.5,306.7,296.5z"/>
		<path class="st2" d="M311.8,296.4v-8.3h1.5l0,0.9c0.2-0.1,0.5-0.3,0.8-0.4c0.3-0.2,0.6-0.3,1-0.4c0.4-0.1,0.7-0.2,1.1-0.2
			c0.9,0,1.5,0.2,1.9,0.7c0.4,0.5,0.6,1.3,0.6,2.6v5.2H317v-5.1c0-0.7-0.1-1.2-0.3-1.5s-0.6-0.4-1.2-0.4c-0.2,0-0.4,0-0.6,0.1
			c-0.2,0.1-0.5,0.1-0.7,0.2c-0.2,0.1-0.5,0.2-0.7,0.4v6.2H311.8z"/>
		<path class="st2" d="M320.5,292.4c0-0.8,0.1-1.6,0.4-2.2c0.3-0.7,0.7-1.2,1.3-1.6s1.3-0.6,2.2-0.6c0.5,0,1,0,1.3,0.1
			c0.4,0.1,0.6,0.2,0.7,0.3l-0.3,1.4c-0.2-0.1-0.5-0.3-0.8-0.3s-0.6-0.1-1.1-0.1c-0.4,0-0.7,0.1-1.1,0.3s-0.6,0.5-0.9,0.9
			c-0.2,0.4-0.4,0.9-0.4,1.6c0,0.7,0.1,1.3,0.3,1.7c0.2,0.5,0.5,0.8,0.8,1.1c0.4,0.2,0.8,0.4,1.2,0.4c0.4,0,0.8-0.1,1.1-0.2
			c0.3-0.1,0.6-0.2,0.8-0.3l0.3,1c-0.3,0.2-0.6,0.4-1.1,0.6c-0.5,0.1-1,0.2-1.5,0.2c-0.8,0-1.5-0.2-2-0.6s-1-0.9-1.2-1.5
			C320.7,293.9,320.5,293.2,320.5,292.4z M321.5,299.6l0.1-1.1c0.1,0,0.2,0.1,0.3,0.1c0.1,0,0.2,0,0.3,0c0.3,0,0.5-0.1,0.7-0.2
			c0.2-0.2,0.3-0.4,0.3-0.8c0-0.3,0-0.6-0.1-0.8c0-0.2-0.1-0.4-0.2-0.5l0.7,0l0.3,0c0.1,0.1,0.2,0.3,0.2,0.4
			c0.1,0.2,0.1,0.4,0.1,0.6s0,0.5,0,0.7c0,0.4-0.1,0.8-0.3,1s-0.4,0.5-0.7,0.6c-0.3,0.1-0.5,0.2-0.8,0.2c-0.1,0-0.3,0-0.4,0
			c-0.2,0-0.3,0-0.4-0.1S321.5,299.6,321.5,299.6z"/>
		<path class="st2" d="M330.5,296.5c-0.5,0-0.9-0.1-1.3-0.3s-0.7-0.5-0.9-0.8c-0.2-0.4-0.3-0.8-0.3-1.3c0-0.5,0.1-1,0.4-1.4
			c0.3-0.4,0.7-0.7,1.2-0.9c0.3-0.1,0.7-0.2,1-0.3c0.4-0.1,0.7-0.1,1.1-0.2c0.4,0,0.7,0,1,0l0.4,0.5l-0.4,0.6c-0.2,0-0.4,0-0.7,0
			s-0.5,0.1-0.8,0.1c-0.3,0.1-0.5,0.1-0.7,0.2c-0.3,0.1-0.5,0.3-0.6,0.4s-0.3,0.4-0.3,0.7c0,0.4,0.1,0.7,0.3,0.9
			c0.2,0.2,0.6,0.3,1,0.3c0.2,0,0.5,0,0.7-0.1s0.4-0.1,0.6-0.2c0.2-0.1,0.3-0.2,0.3-0.2l0.3,0.4l-0.2,0.6c-0.2,0.2-0.5,0.4-0.9,0.6
			S331,296.5,330.5,296.5z M334.4,296.4h-1.6v-1.2h-0.1v-4.6c0-0.5-0.1-0.8-0.4-1c-0.3-0.2-0.6-0.2-1.1-0.2c-0.3,0-0.6,0-1,0.1
			c-0.3,0.1-0.6,0.1-0.9,0.2s-0.5,0.2-0.6,0.3l-0.4-1.2c0.1-0.1,0.3-0.2,0.7-0.3s0.7-0.2,1.1-0.3c0.4-0.1,0.9-0.2,1.3-0.2
			c0.6,0,1.2,0.1,1.6,0.2c0.5,0.1,0.8,0.4,1,0.8c0.2,0.4,0.4,1,0.4,1.7V296.4z M332.2,286.8c-0.3,0-0.5-0.1-0.7-0.2
			c-0.2-0.1-0.3-0.2-0.5-0.4c-0.1-0.1-0.3-0.3-0.4-0.4c-0.1-0.1-0.3-0.2-0.4-0.2c-0.2,0-0.4,0-0.5,0.1s-0.2,0.1-0.3,0.2
			c-0.1,0.1-0.1,0.2-0.2,0.3l-0.7-0.3c0.1-0.3,0.2-0.5,0.3-0.7c0.1-0.2,0.3-0.4,0.5-0.6s0.5-0.2,0.8-0.2c0.3,0,0.5,0.1,0.6,0.2
			s0.3,0.2,0.5,0.4s0.3,0.3,0.4,0.4c0.1,0.1,0.3,0.2,0.4,0.2c0.2,0,0.3,0,0.5-0.1c0.1-0.1,0.2-0.1,0.3-0.2c0.1-0.1,0.2-0.2,0.2-0.3
			l0.7,0.4c-0.1,0.3-0.2,0.5-0.3,0.8c-0.2,0.2-0.4,0.4-0.6,0.6C332.8,286.7,332.5,286.8,332.2,286.8z"/>
		<path class="st2" d="M339.9,296.5c-0.7,0-1.2-0.1-1.7-0.4s-0.9-0.6-1.1-1s-0.5-0.9-0.6-1.4c-0.1-0.5-0.2-1.1-0.2-1.7
			c0-0.9,0.2-1.6,0.5-2.2c0.3-0.6,0.8-1.1,1.4-1.4c0.6-0.3,1.2-0.5,1.9-0.5c0.9,0,1.6,0.2,2.2,0.6c0.5,0.4,0.9,1,1.2,1.6
			c0.2,0.7,0.4,1.4,0.3,2.2c0,0.9-0.2,1.6-0.5,2.2s-0.8,1.1-1.4,1.4C341.2,296.4,340.6,296.5,339.9,296.5z M339.9,295.3
			c0.7,0,1.2-0.2,1.5-0.8c0.3-0.5,0.5-1.3,0.5-2.2c0-0.6-0.1-1.1-0.2-1.6c-0.1-0.5-0.4-0.8-0.7-1.1c-0.3-0.3-0.7-0.4-1.1-0.4
			c-0.7,0-1.2,0.2-1.5,0.7c-0.3,0.5-0.5,1.2-0.5,2.1c0,0.6,0.1,1.1,0.2,1.6c0.1,0.5,0.4,0.9,0.6,1.2S339.5,295.3,339.9,295.3z"/>
		<path class="st2" d="M346.3,296.6c-0.3,0-0.6-0.1-0.8-0.3c-0.2-0.2-0.3-0.5-0.3-0.8c0-0.2,0.1-0.5,0.2-0.7
			c0.1-0.2,0.3-0.4,0.5-0.5s0.4-0.2,0.6-0.2c0.4,0,0.6,0.1,0.8,0.3s0.3,0.5,0.3,0.8c0,0.2,0,0.5-0.2,0.7c-0.1,0.2-0.3,0.4-0.5,0.5
			C346.7,296.5,346.5,296.6,346.3,296.6z"/>
	</g>
</g>
<g>
</g>
<g>
</g>
<g>
</g>
<g>
</g>
<g>
</g>
<g>
</g>
<g>
</g>
<g>
</g>
<g>
</g>
<g>
</g>
<g>
</g>
<g>
</g>
<g>
</g>
<g>
</g>
<g>
</g>
</svg>
