<svg id="Layer_1" data-name="Layer 1" xmlns="http://www.w3.org/2000/svg" viewBox="0 0 91.29 91.29"><defs><style>.cls-1,.cls-3{fill:#ff36ce;}.cls-1{opacity:0.44;}.cls-2{fill:#6960e5;}.cls-4{fill:#e4ebfb;}.cls-5{fill:#e2ebfb;}</style></defs><path class="cls-1" d="M52.59,29.22s-8.83-4.09-12.52-.66-7.78,5.93-8,9S31.89,61,31.89,61H59.18s.26-20,.26-20.83-1-6.72-3.29-8.57A15.72,15.72,0,0,0,52.59,29.22Z"/><path class="cls-2" d="M48.85,0c1.33.23,2.66.44,4,.69A37.94,37.94,0,0,1,82.91,30.53c.36,1.88.48,3.82.73,5.73,0,.27.08.65.26.79a3.47,3.47,0,0,1,1.31,3.23c0,.21,0,.41,0,.69.77.07,1.5.08,2.22.19a4.46,4.46,0,0,1,3.85,4.44q0,9.18,0,18.36a4.53,4.53,0,0,1-4.48,4.5c-.5,0-1,0-1.58,0,0,.53,0,1,0,1.41A2.93,2.93,0,0,1,82.41,73a83.89,83.89,0,0,1-8.54-.08A4.2,4.2,0,0,1,70,68.79C70,67.61,70,66.42,70,65.23V41.87A5.34,5.34,0,0,1,71,38.19a4.61,4.61,0,0,1,3.4-1.68c.06-10.67-8.57-25.09-25.16-27.18a28.8,28.8,0,0,0-32.4,27.05s.07.11.12.12c2.91.49,4.34,2.08,4.35,5q0,13.15,0,26.3c0,2.66-1.13,4.35-3.22,5a6.7,6.7,0,0,1-1.84.25c-2.14,0-4.28,0-6.42,0-2.61,0-3.74-1.12-3.76-3.73v-.86H4.93A4.59,4.59,0,0,1,.18,65.18,1.67,1.67,0,0,0,0,64.9V44.57a3.14,3.14,0,0,0,.25-.44A4.61,4.61,0,0,1,4.7,41.06c.43,0,.87,0,1.37,0V39.79a3,3,0,0,1,3.28-3.26h3.82c.39,0,.7,0,.72-.53,0-.77.14-1.53.21-2.3l.09-.37.09-.7.13-.54.05-.35c.08-.22.17-.43.23-.66C19,14.37,34.88,4.05,51.78,7.4,64.16,9.86,72.33,17.49,76.27,29.5a67.63,67.63,0,0,1,1.52,7h2.78a8.53,8.53,0,0,0,0-1.14c-.14-1.17-.26-2.35-.49-3.52A34.25,34.25,0,0,0,62.71,7.5,33.35,33.35,0,0,0,42.23,3.25a31.25,31.25,0,0,0-8.72,2c-1.35.6-2.75,1.11-4.06,1.8A34.7,34.7,0,0,0,12.73,26.19c-.43,1.14-1.21,1.63-2.06,1.33s-1.2-1.16-.78-2.36A34.57,34.57,0,0,1,15,15.45,37.78,37.78,0,0,1,38.81.68L42.61,0Zm30.3,39.6-4.19,0c-1.41,0-1.88.45-1.88,1.84v12c0,4.94,0,9.87,0,14.8,0,.9.31,1.6,1.23,1.64,1.62.09,3.24,0,4.87,0,.74,0,1.48,0,2.22,0s.82-.19.81-.81c0-2.55,0-5.1,0-7.65,0-6.94,0-13.88,0-20.82,0-.88-.26-1.15-1.1-1.06C80.46,39.64,79.8,39.59,79.15,39.6ZM15,39.61H9.16V69.89h7.33c1.28,0,1.7-.42,1.7-1.7V41.31c0-1.24-.48-1.72-1.72-1.73ZM6,65.43V44.19c-.23,0-.37,0-.52,0C3.41,44.1,3,44.47,3,46.54v11c0,2,0,4.09,0,6.14a1.57,1.57,0,0,0,1.74,1.78Zm79.26,0,.53,0c2,0,2.46-.37,2.46-2.4V52.52c0-2.2,0-4.39,0-6.59,0-1-.4-1.62-1.18-1.72a15.36,15.36,0,0,0-1.8,0Z"/><path class="cls-2" d="M41.05,82.17c0-1.71,0-3.29,0-4.86,0-.24-.43-.57-.73-.69A14.87,14.87,0,0,1,31,66.32a16.6,16.6,0,0,1-.52-4.22c0-7,0-13.9,0-20.85a15.19,15.19,0,0,1,30.16-2.81,13.81,13.81,0,0,1,.19,2c0,7.4.07,14.8,0,22.19A15,15,0,0,1,51,76.58a1,1,0,0,0-.82,1.21c.05,1.42,0,2.84,0,4.38h4c.71,0,1.42,0,2.14,0a4.46,4.46,0,0,1,4.49,4.46c0,.92,0,1.84,0,2.76,0,1.38-.5,1.88-1.88,1.88q-11.89,0-23.8,0c-1,0-2,0-3,0a1.48,1.48,0,0,1-1.66-1.64q0-1.47,0-2.94A4.45,4.45,0,0,1,35,82.18C37,82.15,38.94,82.17,41.05,82.17Zm13.67,6h3.06V87c0-1.23-.51-1.73-1.73-1.74-.5,0-1,0-1.51,0-2.79,0-5.58,0-8.37,0q-5.47,0-11,0c-1,0-1.6.42-1.69,1.22a16.82,16.82,0,0,0,0,1.74,4.47,4.47,0,0,0,.46.06Zm0-25.8H33.59c-.37,7.18,7,13.82,14.89,11.72a2.85,2.85,0,0,0,.52-.06,12.05,12.05,0,0,0,8-7.38,8.47,8.47,0,0,0,.7-4.28Zm0-15.28c2.95.42,3.19.24,3.08-2.38,0-.06,0-.14,0-.17-.17-.18-.34-.49-.53-.5-.84,0-1.69,0-2.55,0-1.48,0-3,0-4.44-.06a1.48,1.48,0,0,1-1.56-1.72,1.63,1.63,0,0,1,1.77-1.31c1.42,0,2.84,0,4.27,0h3a10.71,10.71,0,0,0-1.47-5.81,11.48,11.48,0,0,0-8-5.94,4.32,4.32,0,0,0-.68-.19A12.14,12.14,0,0,0,35,35.26,11,11,0,0,0,33.52,41c.36,0,.65,0,.94,0,2.14,0,4.28,0,6.42,0A1.56,1.56,0,0,1,42.6,42.6c0,.9-.65,1.47-1.73,1.48s-2.38,0-3.56,0H33.55V47.2h1c2.08,0,4.16,0,6.24,0,1.16,0,1.82.56,1.81,1.49s-.71,1.53-1.82,1.54c-1.36,0-2.73,0-4.1,0H33.57v3h1c2.11,0,4.22-.05,6.32,0a2,2,0,0,1,1.44.78c.68,1-.18,2.2-1.58,2.22-2.11,0-4.22,0-6.32,0-.32,0-.63,0-.92,0v3H39l15.68,0h3v-3h-3c-1.42,0-2.85,0-4.27,0-1.09,0-1.81-.68-1.77-1.57s.65-1.45,1.76-1.46l4.27-.05h3v-3h-3c-1.4,0-2.79,0-4.18,0-1.17,0-1.89-.62-1.88-1.57s.68-1.45,1.85-1.46ZM47.24,80c-.07-2.83.53-2.34-2.46-2.39-.53,0-.75.2-.74.73,0,1,0,2.07,0,3.11,0,.56.19.81.77.79C47.73,82.14,47.18,82.59,47.24,80Z"/><path class="cls-2" d="M47.84,13.73C54,13.88,60.93,17,66.44,23.2c.79.9.84,1.88.11,2.51a1.72,1.72,0,0,1-2.48-.46A22.69,22.69,0,0,0,53.24,18c-9.86-2.92-18.41-.61-25.57,6.78-.23.23-.43.49-.67.72a1.64,1.64,0,0,1-2.17.19,1.48,1.48,0,0,1-.16-2.21,26.25,26.25,0,0,1,7.09-6C36.13,15,40.7,13.73,47.84,13.73Z"/><path class="cls-2" d="M28.5,28.7a4.51,4.51,0,0,1,.51-.92A20.53,20.53,0,0,1,43.1,20c7.76-.86,14.13,1.84,19.16,7.78.79.94.76,1.87,0,2.49s-1.63.33-2.38-.56a18.27,18.27,0,0,0-28.41,0,2.49,2.49,0,0,1-1.37.81C29.14,30.63,28.48,29.9,28.5,28.7Z"/><path class="cls-3" d="M82.19,61.45c0-6.94,0-13.88,0-20.82,0-.88-.26-1.15-1.1-1.06-.65.07-1.31,0-2,0l-4.19,0c-1.41,0-1.88.45-1.88,1.84v12c0,4.94,0,9.87,0,14.8,0,.9.31,1.6,1.23,1.64,1.62.09,3.24,0,4.87,0,.74,0,1.48,0,2.22,0s.82-.19.81-.81C82.17,66.55,82.19,64,82.19,61.45Z"/><path class="cls-3" d="M16.47,39.58l-1.51,0H9.16V69.89h7.33c1.28,0,1.7-.42,1.7-1.7V41.31C18.19,40.07,17.71,39.59,16.47,39.58Z"/><path class="cls-4" d="M85.26,65.39V44.2a15.36,15.36,0,0,1,1.8,0c.78.1,1.18.71,1.18,1.72,0,2.2,0,4.39,0,6.59V63c0,2-.42,2.45-2.46,2.4Z"/><path class="cls-5" d="M14.28,32.63l.13-.54Z"/><path class="cls-5" d="M14.1,33.7l.09-.37Z"/><path class="cls-2" d="M9.74,33.48A1.56,1.56,0,0,1,8.2,32a1.45,1.45,0,0,1,1.43-1.5,1.49,1.49,0,0,1,1.6,1.44A1.57,1.57,0,0,1,9.74,33.48Z"/><path class="cls-3" d="M48.48,74.14a2.85,2.85,0,0,0,.52-.06,12.05,12.05,0,0,0,8-7.38,8.47,8.47,0,0,0,.7-4.28H33.59C33.22,69.6,40.59,76.24,48.48,74.14Z"/><path class="cls-3" d="M44.78,77.56c-.53,0-.75.2-.74.73,0,1,0,2.07,0,3.11,0,.56.19.81.77.79,2.92,0,2.37.4,2.43-2.24C47.17,77.12,47.77,77.61,44.78,77.56Z"/><path class="cls-3" d="M57.78,87c0-1.23-.51-1.73-1.73-1.74-.5,0-1,0-1.51,0h0c-2.79,0-5.58,0-8.37,0q-5.47,0-11,0c-1,0-1.6.42-1.69,1.22a16.82,16.82,0,0,0,0,1.74,4.47,4.47,0,0,0,.46.06l20.74,0h3.06Z"/></svg>