<?xml version="1.0" encoding="utf-8"?>
<!-- Generator: Adobe Illustrator 25.2.0, SVG Export Plug-In . SVG Version: 6.00 Build 0)  -->
<svg version="1.1" id="Layer_1" xmlns="http://www.w3.org/2000/svg" xmlns:xlink="http://www.w3.org/1999/xlink" x="0px" y="0px"
	 viewBox="0 0 86.2 108.8" style="enable-background:new 0 0 86.2 108.8;" xml:space="preserve">
<style type="text/css">
	.st0{fill:#6960E5;}
	.st1{fill:#FF36CE;}
	.st2{fill:#FFFFFF;}
</style>
<g>
	<path class="st0" d="M73.4,100.7c0,1.7,0,3.3,0,4.9c0,0.8-0.2,1.6-0.9,2c-0.8,0.4-1.5,0.2-2.2-0.3c-1.1-0.8-2.3-1.6-3.4-2.3
		c-0.3-0.2-0.9-0.2-1.1,0c-1.2,0.7-2.3,1.6-3.6,2.3c-0.6,0.3-1.5,0.5-2,0.2c-0.5-0.3-0.9-1.1-1-1.8c-0.1-1.6,0-3.3,0-5
		c-0.5,0-0.9,0-1.3,0c-14.8,0-29.5,0-44.3,0c-6.8,0-11.4-4.5-11.4-11.4c0-25.2,0-50.4,0-75.6c0-6.1,3.8-11,9.6-12.4
		c1-0.2,2.1-0.4,3.2-0.4c22.3,0,44.5,0,66.8,0c1.8,0,2.4,0.6,2.4,2.4c0,31.6,0,63.3,0,94.9c0,1.8-0.6,2.4-2.4,2.4
		C79,100.7,76.3,100.7,73.4,100.7z M80.5,4.5c-0.5,0-0.9,0-1.3,0c-21.4,0-42.7,0-64.1,0c-5.6,0-9.4,3.8-9.4,9.4
		c0,22.3,0,44.6,0,66.9c0,0.3,0,0.7,0,1.3c2.8-2.4,5.8-2.8,9.1-2.8c21.4,0.1,42.8,0,64.2,0c0.5,0,0.9,0,1.4,0
		C80.5,54.3,80.5,29.5,80.5,4.5z M59.1,97.1c0-1.8,0-3.6,0-5.3c-0.4,0-0.8,0-1.2,0c-11.9,0-30.7,0-42.6,0c-1.4,0-2.2-0.7-2.2-1.8
		c0-1.1,0.8-1.8,2.2-1.8c0.3,0,0.5,0,0.8,0c18.7,0,44.3,0,63,0c0.4,0,0.9,0,1.3,0c0-1.8,0-3.6,0-5.3c-0.4,0-0.8,0-1.2,0
		c-22,0-43.9,0-65.9,0c-0.3,0-0.7,0-1,0c-3.7,0.2-6.7,3.3-6.7,7c0,4.1,3.1,7.2,7.3,7.2c12.9,0,25.8,0,38.7,0
		C54.1,97.1,56.6,97.1,59.1,97.1z M69.8,91.9c-2.4,0-4.7,0-7,0c0,3.6,0,7.1,0,10.8c0.8-0.6,1.6-1,2.3-1.5c0.8-0.6,1.6-0.6,2.4,0
		c0.7,0.5,1.5,1,2.3,1.5C69.8,98.9,69.8,95.4,69.8,91.9z M73.4,97c2.5,0,4.8,0,7,0c0-1.8,0-3.5,0-5.2c-2.4,0-4.7,0-7,0
		c0,0.2,0,0.4,0,0.6C73.4,93.9,73.4,95.5,73.4,97z"/>
	<path class="st1" d="M80.5,4.5c0,25,0,49.8,0,74.8c-0.5,0-1,0-1.4,0c-21.4,0-42.8,0-64.2,0c-3.3,0-6.3,0.4-9.1,2.8
		c0-0.6,0-0.9,0-1.3c0-22.3,0-44.6,0-66.9c0-5.5,3.8-9.3,9.4-9.4c21.4,0,42.7,0,64.1,0C79.6,4.5,80,4.5,80.5,4.5z M32.4,40.1
		c1.2,0,2.4,0.1,3.6,0c0.9-0.1,1.3,0.2,1.7,1.1c0.6,1.5,1.2,3,1.8,4.5c0.6,1.4,1.5,1.9,2.6,1.4c1-0.5,1.3-1.4,0.7-2.7
		c-2.8-6.8-5.7-13.7-8.5-20.5c-0.3-0.8-0.8-1.5-1.8-1.5c-1,0-1.5,0.7-1.8,1.5c-1.2,3-2.5,6-3.7,8.9c-1.6,3.9-3.3,7.9-4.9,11.8
		c-0.5,1.2,0,2.4,1.1,2.7c0.9,0.2,1.7-0.2,2.2-1.3c0.7-1.7,1.4-3.4,2.1-5c0.2-0.4,0.7-0.7,1.1-0.7C29.8,40.1,31.1,40.1,32.4,40.1z
		 M60.7,43.7c0.3-0.5,0.5-0.8,0.7-1.1c3.8-5.7,7.6-11.5,11.5-17.2c0.5-0.7,0.8-1.5,0.2-2.1c-0.4-0.5-1.2-0.9-1.9-0.9
		c-4.6-0.1-9.1,0-13.7,0c-1.2,0-2,0.7-2,1.8c0,1.1,0.8,1.8,2,1.8c3.2,0,6.3,0,9.5,0c0.4,0,0.7,0,1.2,0c-0.6,0.9-1,1.6-1.5,2.3
		c-3.6,5.3-7.1,10.7-10.7,16c-1,1.5-0.4,3,1.3,3.1c4.7,0,9.5,0,14.2,0c1.1,0,1.8-0.8,1.8-1.8c0-1.1-0.8-1.8-2.1-1.8
		C67.8,43.7,64.4,43.7,60.7,43.7z M16.4,41.9c0-7.4,0-21.4,0-28.9c0-0.3,0-0.5,0-0.8c0-1.1-0.7-1.9-1.8-1.9c-1,0-1.7,0.7-1.8,1.8
		c0,0.2,0,0.4,0,0.7c0,14.9,0,36.5,0,51.4c0,0.3,0,0.7,0,1c0.2,1,0.8,1.5,1.8,1.5c0.9,0,1.5-0.6,1.7-1.5c0.1-0.4,0-0.7,0-1.1
		C16.4,56.8,16.4,49.4,16.4,41.9z M49.4,36.6c0.8,0,1.6,0,2.4,0c0.1,0,0.1,0,0.2,0c1-0.1,1.7-0.8,1.7-1.8c0-1-0.7-1.7-1.8-1.8
		c-1.8,0-3.6,0-5.3,0c-1.1,0-1.8,0.8-1.8,1.7c0,1,0.7,1.8,1.8,1.8C47.6,36.6,48.5,36.6,49.4,36.6z M12.8,73.1c0,0.3,0,0.5,0,0.8
		c0,1.1,0.7,1.9,1.8,1.9c1,0,1.7-0.7,1.8-1.8c0-0.3,0-0.5,0-0.8c0-1.9-0.6-2.7-1.8-2.7C13.4,70.4,12.8,71.2,12.8,73.1z"/>
	<path class="st1" d="M69.8,91.9c0,3.6,0,7.1,0,10.8c-0.8-0.5-1.6-1-2.3-1.5c-0.8-0.6-1.6-0.6-2.4,0c-0.7,0.5-1.5,1-2.3,1.5
		c0-3.7,0-7.2,0-10.8C65.1,91.9,67.4,91.9,69.8,91.9z"/>
	<path class="st2" d="M32.4,40.1c-1.3,0-2.6-0.1-3.9,0c-0.4,0-1,0.4-1.1,0.7c-0.8,1.6-1.4,3.3-2.1,5c-0.5,1.1-1.3,1.5-2.2,1.3
		c-1.1-0.3-1.6-1.4-1.1-2.7c1.6-3.9,3.3-7.9,4.9-11.8c1.2-3,2.5-5.9,3.7-8.9c0.3-0.8,0.8-1.5,1.8-1.5c1,0,1.5,0.7,1.8,1.5
		c2.8,6.8,5.7,13.7,8.5,20.5c0.6,1.3,0.3,2.2-0.7,2.7c-0.9,0.5-2,0-2.6-1.4c-0.6-1.5-1.3-3-1.8-4.5c-0.3-0.9-0.8-1.1-1.7-1.1
		C34.8,40.2,33.6,40.1,32.4,40.1z M35.7,36.5c-1.1-2.6-2.1-5-3.2-7.8c-1.1,2.8-2.2,5.2-3.2,7.8C31.4,36.5,33.4,36.5,35.7,36.5z"/>
	<path class="st2" d="M60.7,43.7c3.7,0,7.1,0,10.6,0c1.3,0,2.1,0.7,2.1,1.8c0,1-0.7,1.8-1.8,1.8c-4.7,0-9.5,0-14.2,0
		c-1.6,0-2.3-1.6-1.3-3.1c3.5-5.3,7.1-10.7,10.7-16c0.5-0.7,0.9-1.4,1.5-2.3c-0.5,0-0.9,0-1.2,0c-3.2,0-6.3,0-9.5,0
		c-1.2,0-2-0.7-2-1.8c0-1.1,0.8-1.8,2-1.8c4.6,0,9.1,0,13.7,0c0.6,0,1.4,0.4,1.9,0.9c0.6,0.6,0.2,1.4-0.2,2.1
		c-3.8,5.7-7.7,11.5-11.5,17.2C61.2,42.9,61,43.2,60.7,43.7z"/>
	<path class="st0" d="M16.4,46.4c0,8.8,0,17.6,0,26.4c0,0.4,0,0.9,0,1.3c-0.2,1.1-0.8,1.7-1.7,1.7c-1,0-1.6-0.6-1.8-1.8
		c-0.1-0.4,0-0.8,0-1.2c0-17.6,0-41.8,0-59.5c0-0.3,0-0.5,0-0.8c0.1-1.3,0.8-2.2,1.8-2.2c1,0,1.7,0.9,1.8,2.2c0,0.3,0,0.6,0,0.9
		C16.4,22.3,16.4,37.6,16.4,46.4z"/>
	<path class="st2" d="M49.4,36.6c-0.9,0-1.8,0-2.7,0c-1.1,0-1.8-0.8-1.8-1.8c0-1,0.7-1.7,1.8-1.7c1.8,0,3.6,0,5.3,0
		c1.1,0,1.8,0.8,1.8,1.8c0,1-0.7,1.7-1.7,1.8c-0.1,0-0.1,0-0.2,0C51,36.6,50.2,36.6,49.4,36.6z"/>
	<path class="st1" d="M35.7,36.5c-2.2,0-4.2,0-6.5,0c1.1-2.6,2.1-5,3.2-7.8C33.6,31.5,34.6,33.9,35.7,36.5z"/>
</g>
</svg>
