<?xml version="1.0" encoding="utf-8"?>
<!-- Generator: Adobe Illustrator 24.0.1, SVG Export Plug-In . SVG Version: 6.00 Build 0)  -->
<svg version="1.1" id="Layer_1" xmlns="http://www.w3.org/2000/svg" xmlns:xlink="http://www.w3.org/1999/xlink" x="0px" y="0px"
	 viewBox="0 0 31.9 28.3" style="enable-background:new 0 0 31.9 28.3;" xml:space="preserve">
<style type="text/css">
	.st0{fill:#FFFFFF;}
</style>
<g>
	<polygon class="st0" points="15.9,9.5 15.5,11.1 14.5,15.1 17.4,15.1 16.3,11.1 	"/>
	<path class="st0" d="M31.7,8c-0.4-2.4-1.5-4.4-3.4-6c-1.9-1.6-4-2.2-6.5-1.9c-1.7,0.2-3.1,0.9-4.3,2C17,2.5,16.5,3,15.9,3.5
		c-0.1,0-0.1-0.1-0.1-0.1c-0.6-0.5-1.1-1-1.7-1.4c-2-1.6-4.2-2.2-6.7-1.8C5.2,0.5,3.5,1.7,2.2,3.4c-2,2.6-2.6,5.6-2,8.7
		c0.4,2.2,1.5,4.1,3.2,5.6c3.9,3.4,7.9,6.7,11.8,10.1c0.2,0.2,0.4,0.4,0.6,0.4c0.2,0,0.4-0.3,0.6-0.4c3.9-3.3,7.8-6.7,11.8-10
		c0.5-0.5,1-1,1.5-1.5C31.6,13.8,32.2,11,31.7,8z M18.7,19.7L18,17.3h-4.1l-0.6,2.4h-3.1l4.1-12.8h3.3l4.1,12.8H18.7z"/>
</g>
<g>
</g>
<g>
</g>
<g>
</g>
<g>
</g>
<g>
</g>
<g>
</g>
<g>
</g>
<g>
</g>
<g>
</g>
<g>
</g>
<g>
</g>
<g>
</g>
<g>
</g>
<g>
</g>
<g>
</g>
</svg>
