<?xml version="1.0" encoding="utf-8"?>
<!-- Generator: Adobe Illustrator 24.0.1, SVG Export Plug-In . SVG Version: 6.00 Build 0)  -->
<svg version="1.1" id="Layer_1" xmlns="http://www.w3.org/2000/svg" xmlns:xlink="http://www.w3.org/1999/xlink" x="0px" y="0px"
	 viewBox="0 0 73 65" style="enable-background:new 0 0 73 65;" xml:space="preserve">
<style type="text/css">
	.st0{fill:#FFFFFF;}
</style>
<g>
	<path class="st0" d="M43.2,39.2c0-0.1,0.1-0.1,0.1-0.2c0.9-2.2,2.4-4.6,3.8-6.4c0.1-0.1,0.3-0.2,0.4-0.2c1.8-0.3,3.6-0.4,5.4-0.3
		c0.7,0,1.4,0.1,2.1,0.2c1.9-0.5,3.5-1.5,4.6-2.2c-1.1-0.5-2.2-0.8-3.3-1c-3.5-0.7-7-0.5-10.5,0.1c-0.2,0-0.3,0.1-0.4,0.2
		c-1.6,1.8-2.9,3.7-3.9,5.8c-0.3,0.6-0.8,1.7-1.2,2.3c0.4,0.2,1,0.4,1.4,0.6C42.1,38.5,42.6,38.8,43.2,39.2"/>
	<path class="st0" d="M66.1,38.7c-0.2-2.1-1-4-2.3-5.5c-0.8,0.8-1.9,1.5-2.8,2c0.6,0.7,1.1,1.5,1.5,2.5c0.7,2,0.2,3.8-1.5,5
		c-1.8,1.3-3.8,1.7-6,1.2c-0.4-0.1-0.8-0.2-1.2-0.3c-0.2,0.5-0.3,1-0.5,1.5c-0.8,2.1-2.2,3.6-4.2,4.4c-1.7,0.7-3.2,0.3-4.5-1
		c-0.6-0.7-1.1-2-1.5-2.8c-0.1-0.2-0.2-0.4-0.3-0.5c-0.6-0.4-1.1-0.9-1.7-1.3c-0.6-0.4-1.2-0.8-1.9-1.2c0,0.2,0,0.8,0,0.8
		c0,2.9,1.1,5.4,3.2,7.4c2,2,4.5,2.6,7.2,1.9c2.9-0.8,5-2.6,6.4-5.2c0.1-0.2,0.2-0.3,0.5-0.3c2.6,0.1,5-0.7,7.1-2.3
		C65.3,43.4,66.3,41.3,66.1,38.7"/>
	<path class="st0" d="M29.5,40.5c0.4,1.4,0.5,2.7,0.2,4.1c0,0.1-0.6,0.7-0.7,0.8c-1.1,1.1-2,2.2-2.6,3.7c-0.6,1.5-0.6,3-0.2,4.5
		c0.6,1.7,1.8,2.7,3.6,2.9c2.2,0.2,4.1-0.4,5.8-1.9c0.3-0.3,0.7-0.6,1-0.9c0.4,0.4,0.8,0.8,1.3,1.1c1.9,1.5,4,2.1,6.3,1.5
		c1-0.2,1.7-0.8,2.3-1.6c0.1-0.1,0.4-0.8,0.5-0.8c1.2,0.1,2.4-0.1,3.6-0.5c0,0,0.1,0,0.1,0c-0.2,0.8-0.7,2.1-1.1,2.8
		c-1.3,2.1-3.2,3.3-5.6,3.6c-2.5,0.3-4.9-0.3-7.1-1.6c-0.2-0.1-0.3-0.1-0.4,0c-1.9,1.2-4,1.7-6.3,1.7c-3.9-0.1-6.8-2.7-7.5-6.5
		c-0.6-3.3,0.3-6.2,2.4-8.8C26.1,43.2,28,41.5,29.5,40.5"/>
	<path class="st0" d="M35,41.4c-0.1-1.1-0.4-2-0.9-3.1c0.6-0.4,1.7-0.9,2.4-1.1c0.1,0,0.2,0,0.2,0c3.9,1.3,7.4,3.3,10.3,6.2
		c1.1,1.1,2.2,2.9,2.9,4.2c0,0.1,0.1,0.2,0.1,0.3c0,0,0,0.1,0,0.1c-0.9,0.6-1.8,1.1-2.9,1c-0.3,0-0.5-0.2-0.7-0.5
		c-0.9-1.7-2.6-3.5-4.1-4.6c-1.7-1.2-3.6-2.2-5.6-3c-0.1-0.1-0.3,0-0.5,0c-0.3,0.1-0.6,0.2-0.9,0.3C35.4,41.2,35,41.4,35,41.4"/>
	<path class="st0" d="M43.5,24.7c-0.4-1.4-0.5-2.7-0.2-4.1c0-0.1,0.1-0.2,0.2-0.3c1.1-1.1,2.5-2.7,3.1-4.1c0.6-1.5,0.6-3,0.2-4.5
		c-0.6-1.7-1.8-2.7-3.6-2.9c-2.2-0.2-4.1,0.4-5.8,1.9c-0.3,0.3-0.7,0.6-1,0.9c-0.4-0.4-0.8-0.8-1.3-1.1c-1.9-1.5-4-2.1-6.3-1.5
		c-1,0.2-1.7,0.8-2.3,1.6c-0.1,0.1-0.2,0.2-0.3,0.2c-1.2-0.1-2.4,0.1-3.6,0.5c0,0-0.1,0-0.1,0c0.2-0.8,0.5-1.5,0.9-2.2
		c1.3-2.1,3.2-3.3,5.6-3.6C31.7,5,34,5.6,36.2,6.9c0.2,0.1,0.3,0.1,0.4,0c1.9-1.2,4-1.7,6.3-1.7c3.9,0.1,6.8,2.7,7.5,6.5
		C51,15,50.1,18,48,20.6C46.9,22,45,23.6,43.5,24.7"/>
	<path class="st0" d="M38.2,23.5c0,0.6,0.2,1.1,0.3,1.7c0.1,0.5,0.3,1.1,0.6,1.7c-0.6,0.2-1.9,0.9-2.6,1.1c-0.1,0-0.2,0-0.2,0
		c-3.9-1.3-7.4-3.3-10.3-6.2c-1.1-1.1-2-2.3-2.6-3.7c0-0.1-0.1-0.2-0.1-0.3c0,0,0-0.1,0-0.1c0.9-0.6,1.8-1.1,2.9-1
		c0.3,0,0.5,0.2,0.7,0.5c0.9,1.7,2.3,2.9,3.8,4c1.7,1.2,3.6,2.2,5.6,3c0.1,0.1,0.3,0,0.5,0C37,24.2,37.9,23.7,38.2,23.5
		C38.2,23.5,38.2,23.5,38.2,23.5"/>
	<path class="st0" d="M44.6,29.2c-0.6-1-1.1-2.1-1.5-3.2c-0.7-1.8-1.1-3.7-0.8-5.6c0.3-1.7,1.1-3.2,2.5-4.3c0.3-0.2,0.5-0.5,0.6-0.9
		c0.3-1,0.4-2,0-3.1c-0.7,0.1-1.3,0.4-1.8,0.7c-2.5,1.4-4,3.6-4.6,6.4c-0.5,2.2-0.3,4.4,0.3,6.6c0.6,2.2,1.6,4.2,2.8,6.1L44.6,29.2z
		"/>
	<path class="st0" d="M66,25.1c-0.2-1.9-1-3.4-2.4-4.6c-2.1-1.9-4.7-2.7-7.5-2.7c-0.2,0-0.3-0.1-0.4-0.3c-0.8-1.6-2-2.8-3.4-3.9
		c-0.1-0.1-0.2-0.1-0.2-0.1c-0.1,0.6-0.1,1.3-0.2,1.9c-0.1,0.6-0.3,1.2-0.4,1.8c0,0.1,0,0.2,0.1,0.3c0.8,0.9,1.4,1.9,1.8,3.1
		c0.1,0.3,0.2,0.7,0.3,1c0.1,0,0.2,0,0.2,0c0.3-0.1,0.5-0.1,0.8-0.2c2.2-0.5,4.2-0.2,6.1,1.1c1.8,1.2,2.4,3,1.7,5
		c-0.5,1.5-1.4,2.7-2.7,3.6c-1.7,1.1-3.6,1.6-5.6,1.9c-2.2,0.3-4.4,0.2-6.6-0.1c-0.2,0.2-0.5,0.5-0.9,1.1c-0.3,0.5-0.5,0.9-0.9,2
		c0,0,0.1,0,0.1,0c2.8,0.5,5.6,0.6,8.4,0.4c1.9-0.2,3.7-0.6,5.4-1.3c3.1-1.4,5.2-3.6,6.2-6.9c0.2-0.5,0.2-1.1,0.3-1.6v-1.3
		C66,25.2,66,25.1,66,25.1"/>
	<path class="st0" d="M19.8,44.6c-0.1-0.3-0.2-0.7-0.3-1c-0.1,0-0.2,0-0.2,0c-0.3,0.1-0.5,0.1-0.8,0.2c-2.2,0.5-4.2,0.2-6.1-1.1
		c-1.8-1.2-2.4-3-1.7-5c0.3-1,0.8-1.8,1.5-2.6c-0.9-0.5-2-1.2-2.8-2c-0.9,1.1-1.6,2.3-2,3.8c-0.2,0.5-0.2,1.1-0.3,1.6v1.3
		C7,39.9,7,40,7,40.1c0.2,1.9,1,3.4,2.4,4.6c2.1,1.9,4.7,2.7,7.5,2.7c0.2,0,0.3,0.1,0.4,0.3c0.8,1.6,2.6,3.3,4.1,4.3
		c0.1,0.1,0.2,0.1,0.2,0.1c0.1-0.6,0.1-1.3,0.2-1.9c0.1-0.6,0.3-1.2,0.4-1.8c0-0.1,0-0.2-0.1-0.3C21.3,47.2,20.1,45.7,19.8,44.6"/>
	<path class="st0" d="M33.6,39.3c-1.1-3.7-3-6.8-5.5-9.8c-0.2-0.3-0.5-0.4-0.8-0.5c-2.8-0.5-5.6-0.6-8.4-0.4
		c-1.8,0.2-3.6,0.6-5.3,1.3c1,0.7,2.7,1.7,4.6,2.3c0.3,0,0.5-0.1,0.8-0.1c2.3-0.3,4.5-0.2,6.8,0.1c0.1,0,0.3,0.1,0.3,0.2
		c1.6,2,2.9,4.2,3.8,6.6c0.7,1.8,1.1,3.7,0.8,5.6c-0.3,1.7-1.8,3.5-3.3,4.5c-0.3,0.2-0.5,0.5-0.6,0.9c-0.3,1-0.4,2,0,3.1
		c0.7-0.1,2-0.6,2.6-0.9c2.5-1.4,4-3.6,4.6-6.4C34.5,43.7,34.2,41.5,33.6,39.3"/>
	<path class="st0" d="M29.8,25.8c0,0.1-0.1,0.1-0.1,0.2c-0.4,1-0.9,2-1.5,3l2.5,2.7c0.3-0.6,0.7-1.2,1-1.8c0.3-0.6,0.8-1.9,1.1-2.5
		c-0.6-0.3-1.2-0.5-1.7-0.8C30.6,26.4,30.2,26.1,29.8,25.8"/>
	<path class="st0" d="M30.9,14.1c-2-2-4.5-2.6-7.2-1.9c-2.9,0.8-5,2.6-6.4,5.2c-0.1,0.2-0.2,0.3-0.5,0.3c-2.6-0.1-5,0.7-7.1,2.3
		c-2,1.6-3,3.8-2.8,6.4c0.2,2.6,1.4,4.7,3.2,6.5c1.9,1.8,4.2,2.7,6.7,3.1c3.5,0.7,7,0.5,10.5-0.1c0,0,0,0,0,0
		c-0.5-1.2-0.6-1.6-1-2.1c-0.3-0.6-0.6-0.9-0.8-1c0,0-0.1,0-0.1,0c-1.8,0.3-3.6,0.4-5.4,0.3c-1.8-0.1-3.7-0.4-5.4-1.2
		c-2-0.9-3.5-2.2-4.2-4.3c-0.7-2-0.2-3.8,1.5-5c1.8-1.3,3.8-1.7,6-1.2c0.4,0.1,0.8,0.2,1.2,0.3c0.2-0.5,0.3-1,0.5-1.5
		c0.8-2.1,2.2-3.6,4.2-4.4c1.7-0.7,3.2-0.3,4.5,1c0.6,0.7,1.1,2,1.4,2.9c0.1,0.2,0.2,0.4,0.3,0.5c0.6,0.4,1.1,0.9,1.7,1.3
		c0.6,0.4,1.2,0.8,1.9,1.2c0-0.2,0-0.9,0-0.9C34,18.6,33,16.1,30.9,14.1"/>
</g>
</svg>
