<?xml version="1.0" encoding="utf-8"?>
<!-- Generator: Adobe Illustrator 26.0.3, SVG Export Plug-In . SVG Version: 6.00 Build 0)  -->
<svg version="1.1" id="Layer_1" xmlns="http://www.w3.org/2000/svg" xmlns:xlink="http://www.w3.org/1999/xlink" x="0px" y="0px"
	 viewBox="0 0 920 768" style="enable-background:new 0 0 920 768;" xml:space="preserve">
<style type="text/css">
	.st0{fill:#F7B564;}
	.st1{fill:#FFFFFF;stroke:#F8B664;stroke-width:3;stroke-miterlimit:10;}
	.st2{fill:none;}
	.st3{fill:#010000;}
	.st4{font-family:'Barlow-Regular';}
	.st5{font-size:17.6001px;}
	.st6{fill:#FFFFFF;}
	.st7{fill:#EE7A7A;}
	.st8{fill:#FFFFFF;stroke:#EE7B7B;stroke-width:3;stroke-miterlimit:10;}
	.st9{font-size:19.2452px;}
</style>
<path class="st0" d="M737.03,292.4H629.81c-21.21,0-40.81,11.31-51.41,29.68l-53.61,92.86c-10.6,18.37-10.6,41,0,59.36l53.61,92.86
	c10.6,18.37,30.2,29.68,51.41,29.68h107.22c21.21,0,40.81-11.31,51.41-29.68l53.61-92.86c10.6-18.37,10.6-41,0-59.36l-53.61-92.86
	C777.83,303.71,758.23,292.4,737.03,292.4z"/>
<path class="st1" d="M698.75,268.9H547.04c-15.85,0-30.49,8.45-38.41,22.18l-75.86,131.39c-7.92,13.72-7.92,30.63,0,44.35
	l75.86,131.39c7.92,13.72,22.56,22.18,38.41,22.18h151.71c15.85,0,30.49-8.45,38.41-22.18l75.86-131.39
	c7.92-13.72,7.92-30.63,0-44.35l-75.86-131.39C729.24,277.35,714.6,268.9,698.75,268.9z"/>
<path class="st2" d="M689.54,291.81H551.9c-15.16,0-29.14,8.19-36.56,21.41l-69.84,124.45c-7.15,12.74-7.15,28.29,0,41.04
	l69.84,124.45c7.42,13.22,21.4,21.41,36.56,21.41h137.64c15.16,0,29.14-8.19,36.56-21.41l69.84-124.45
	c7.15-12.74,7.15-28.29,0-41.04L726.1,313.21C718.68,299.99,704.7,291.81,689.54,291.81z"/>
<text transform="matrix(1 0 0 1 452.4897 458.5508)"><tspan x="0" y="0" class="st3 st4 st5">Refletem segregação e exclusão, em virtude </tspan><tspan x="3.97" y="22.06" class="st3 st4 st5">da incapacidade. Compreendem o acesso à </tspan><tspan x="16.11" y="44.12" class="st3 st4 st5">escola como possibilidade de “socializa</tspan><tspan x="313.41" y="44.12" class="st3 st4 st5">-</tspan><tspan x="29.45" y="66.18" class="st3 st4 st5">ção” e esquecem que a função social </tspan><tspan x="49.77" y="88.24" class="st3 st4 st5">da escola é garantir acesso aos </tspan><tspan x="49.09" y="110.3" class="st3 st4 st5">conhecimentos sistematizados </tspan><tspan x="103.38" y="132.36" class="st3 st4 st5">pela humanidade</tspan></text>
<g>
	<path class="st0" d="M668.37,417.26h-4.35v-29.97c0-4.13,1.74-6.2,5.22-6.2h3.27c3.48,0,5.22,2.07,5.22,6.2v29.97h-4.35v-13.25
		h-4.99V417.26z M673.37,399.63v-12.04c0-1.41-0.64-2.12-1.91-2.12h-1.18c-1.27,0-1.91,0.71-1.91,2.12v12.04H673.37z"/>
	<path class="st0" d="M599.51,417.29h-4.35V386.5c0-4.24,1.74-6.37,5.22-6.37h3.27c3.48,0,5.22,2.12,5.22,6.37v30.79h-4.35v-13.61
		h-4.99V417.29z M604.5,399.18v-12.37c0-1.45-0.64-2.17-1.91-2.17h-1.18c-1.27,0-1.91,0.73-1.91,2.17v12.37H604.5z"/>
	<path class="st0" d="M559.6,380.71c0-0.67-0.19-1.83,0.27-1.83h4.58c1.81,0,3.2,0.2,4.18,0.62c0.97,0.41,1.71,1.01,2.2,1.78
		c0.49,0.78,0.82,1.72,1,2.82c0.17,1.11,0.26,2.82,0.26,5.13v3.22c0,2.37-0.17,4.09-0.51,5.17c-0.34,1.08-0.96,1.91-1.86,2.49
		c-0.9,0.58-2.08,0.87-3.53,0.87h-0.94c-0.46,0-0.84,0.54-0.84,1.22v13.69h-4.92L559.6,380.71z"/>
	<path class="st6" d="M564.4,384.99v11.82c0.28,0.02,0.51,0.03,0.71,0.03c0.89,0,1.5-0.27,1.85-0.82c0.34-0.55,0.51-1.68,0.51-3.4
		v-3.82c0-1.58-0.2-2.62-0.59-3.1C566.48,385.23,565.65,384.99,564.4,384.99z"/>
	<g>
		<path class="st0" d="M576.73,382.11c0-0.67,0-1.98,0.47-1.98h2.39c3.12,0,5.24,0.17,6.34,0.53c1.11,0.35,2.01,1.25,2.7,2.69
			c0.7,1.44,1.05,3.74,1.05,6.9c0,2.88-0.25,4.82-0.74,5.81c-0.49,0.99-1.46,1.59-2.91,1.78c1.31,0.47,2.19,1.11,2.64,1.9
			c0.45,0.79,0.73,1.52,0.84,2.18c0.11,0.66,0.17,2.49,0.17,5.48v9.77h-4.85v-12.49c-0.24-4.9-0.67-3.61-0.89-4.08
			c0,0-1.51-0.12-2.42-0.12v16.7h-4.94L576.73,382.11z"/>
		<path class="st6" d="M581.51,385.34v9.36c1.22,0,2.08-0.17,2.57-0.51c0.49-0.34,0.74-1.43,0.74-3.29v-2.31
			c0-1.33-0.24-2.21-0.71-2.62C583.64,385.55,582.77,385.34,581.51,385.34z"/>
	</g>
	<path class="st0" d="M607.2,371.76l-3.06,3.78c-0.15,0.18-0.33,0.28-0.52,0.28h-1.31c-0.65,0-1.03-1.07-0.68-1.89l1.64-3.78
		c0.15-0.35,0.41-0.56,0.68-0.56h2.74C607.45,369.6,607.79,371.03,607.2,371.76z"/>
	<path class="st0" d="M625.81,381.65v4.7c0,0.67-1.36,1.26-1.71,1.26h-1.73c-0.35,0-0.64,0.54-0.64,1.22v28.4h-5
		c-0.05,0-0.08-0.07-0.08-0.16v-28.24c0-0.67-0.29-1.22-0.64-1.22h-1.72c-0.35,0-1.76-0.32-1.76-1v-4.85c0-0.67,1.41-1.57,1.76-1.57
		h9.81C624.46,380.2,625.81,380.98,625.81,381.65z"/>
	<path class="st0" d="M636.11,381.76v35.4h-5.01v-35.4c0-0.66,0.28-1.2,0.63-1.2h3.74C635.83,380.56,636.11,381.1,636.11,381.76z"/>
	<path class="st0" d="M653.16,394.83l-0.08-4.62c0-1.8-0.12-2.74-0.27-3.19c-0.15-0.45-1.15-2.18-3.21-2.18
		c-2.38,0-3.16,1.78-3.55,2.15c-0.19,0.18-0.46,0.94-0.44,4.46l0.07,15.29c0,0,0.12,3.56,0.42,4c0.34,0.5,1.73,1.77,3.51,1.83
		c1.52,0.05,2.78-1.32,3.05-1.69c0.32-0.44,0.58-3.43,0.58-3.43l0.02-4.23l4.45,0v0.42c0,3.69-0.19,6.31-0.58,7.85
		c-0.38,1.55-1.24,2.9-2.55,4.06c-1.32,1.16-2.94,1.74-4.87,1.74c-2.01,0-3.66-0.49-4.96-1.48c-1.3-0.98-2.16-2.34-2.59-4.09
		c-0.42-1.74-0.63-4.36-0.63-7.85v-10.42c0-2.57,0.07-4.5,0.2-5.78c0.13-1.28,0.52-2.52,1.16-3.71c0.65-1.19,1.54-2.13,2.69-2.81
		c1.14-0.68,2.46-1.02,3.95-1.02c2.02,0,3.68,0.53,5,1.58c1.31,1.06,2.17,2.37,2.59,3.95c0.41,1.58,0.62,4.03,0.62,7.36v1.72"/>
</g>
<path class="st0" d="M657.03,327.21c-0.24,1.19-0.44,2.38-0.73,3.55c-1.47,6.03-4.51,11.25-9.1,15.64c-0.55,0.53-1.2,0.58-1.67,0.16
	c-0.48-0.44-0.43-1.07,0.16-1.63c4.27-4.13,7.11-9.01,8.5-14.65c0.28-1.14,0.46-2.3,0.62-3.46c0.06-0.42,0.11-0.85-0.35-1.11
	c-0.44-0.25-0.89-0.16-1.31,0.06c-0.45,0.24-0.67,0.62-0.8,1.09c-0.53,1.91-0.89,3.86-1.55,5.73c-1.57,4.44-4.58,7.71-8.96,9.85
	c-1.29,0.63-2.57,0.61-3.78-0.17c-1.21-0.78-1.74-1.91-1.54-3.27c0.23-1.52,0.54-3.03,0.81-4.55c0.04-0.25,0.08-0.5,0.1-0.75
	c0.02-0.31-0.16-0.53-0.45-0.65c-0.32-0.13-0.63-0.06-0.86,0.18c-0.13,0.13-0.23,0.3-0.33,0.45c-1.88,2.78-3.75,5.57-5.65,8.34
	c-0.25,0.36-0.28,0.57,0.08,0.91c2.49,2.32,4.96,4.67,7.41,7.02c0.32,0.31,0.54,0.33,0.92,0.12c1.23-0.69,2.43-1.41,3.59-2.21
	c0.72-0.49,1.31-0.48,1.73,0.03c0.43,0.52,0.27,1.14-0.45,1.64c-1.05,0.74-2.13,1.44-3.28,2.04c-0.37,0.19-0.47,0.33-0.24,0.71
	c0.45,0.78,0.36,1.6-0.28,2.24c-1.57,1.56-3.15,3.11-4.84,4.55c-0.24,0-0.49,0-0.73,0c-0.77-0.56-1.4-1.25-2.09-1.9
	c-3.54-3.34-7.07-6.7-10.6-10.05c-0.83-0.79-0.84-1.25-0.02-2.02c1.29-1.22,2.58-2.43,3.85-3.66c0.78-0.76,1.68-1.01,2.7-0.55
	c0.46,0.21,0.5-0.11,0.63-0.31c1.85-2.72,3.68-5.45,5.53-8.17c0.8-1.18,1.94-1.68,3.19-1.45c1.53,0.29,2.54,1.55,2.34,3.09
	c-0.2,1.52-0.53,3.03-0.8,4.55c-0.03,0.18-0.06,0.36-0.09,0.54c-0.1,0.57,0.04,1.06,0.55,1.4c0.53,0.36,1.08,0.32,1.64,0.05
	c3.83-1.89,6.5-4.75,7.84-8.65c0.62-1.81,1.01-3.68,1.49-5.53c0.55-2.08,2.58-3.32,4.59-2.81c1.22,0.31,1.83,1.17,2.24,2.21
	C657.03,326.29,657.03,326.75,657.03,327.21z"/>
<path class="st0" d="M634.43,303.8c0,0.6,0,1.2,0,1.79c-0.01,0.83-0.38,1.52-1.16,1.85c-1.18,0.49-1.92,1.33-2.44,2.4
	c-0.16,0.33-0.35,0.66-0.58,0.95c-0.58,0.76-0.8,1.58-0.7,2.52c0.11,1.04-0.39,1.81-1.36,2.31c-0.99,0.52-1.98,1.07-2.96,1.61
	c-0.83,0.45-1.69,0.5-2.46-0.04c-0.91-0.63-1.89-0.85-3-0.75c-0.43,0.04-0.88,0.04-1.31,0c-1.07-0.09-2.03,0.1-2.93,0.72
	c-0.82,0.56-1.71,0.53-2.59,0.03c-1-0.56-2.01-1.11-3.02-1.65c-0.84-0.45-1.34-1.14-1.23-2.03c0.13-1.18-0.25-2.15-0.93-3.08
	c-0.18-0.24-0.34-0.51-0.47-0.77c-0.48-0.98-1.17-1.73-2.27-2.18c-0.84-0.34-1.23-1.07-1.23-1.95c0-1.15,0-2.3,0-3.45
	c0-0.91,0.39-1.64,1.27-2c1.06-0.44,1.75-1.17,2.22-2.14c0.18-0.37,0.39-0.74,0.65-1.07c0.61-0.79,0.86-1.65,0.76-2.64
	c-0.11-1.01,0.39-1.76,1.34-2.25c0.99-0.52,1.97-1.07,2.96-1.61c0.8-0.44,1.66-0.55,2.4-0.03c1.05,0.75,2.19,0.88,3.42,0.79
	c0.31-0.02,0.63-0.03,0.95,0c1.12,0.1,2.13-0.1,3.06-0.76c0.74-0.52,1.6-0.48,2.4-0.04c1.07,0.58,2.14,1.17,3.2,1.76
	c0.6,0.33,1.03,0.81,1.1,1.46c0.09,0.89,0.12,1.78,0.1,2.68c-0.01,0.46-0.37,0.74-0.84,0.82c-0.54,0.09-0.95-0.12-1.19-0.59
	c-0.32-0.63-0.21-1.31-0.17-1.97c0.02-0.43-0.13-0.66-0.52-0.86c-0.81-0.41-1.61-0.85-2.39-1.3c-0.32-0.18-0.57-0.26-0.9-0.01
	c-0.99,0.76-2.14,1-3.4,0.89c-0.63-0.05-1.26-0.05-1.89,0c-1.35,0.1-2.61-0.08-3.69-0.92c-0.27-0.21-0.5-0.16-0.78,0
	c-0.85,0.49-1.7,0.97-2.58,1.41c-0.33,0.17-0.45,0.38-0.4,0.71c0.22,1.26-0.22,2.34-0.94,3.37c-0.36,0.51-0.7,1.05-0.98,1.61
	c-0.53,1.06-1.29,1.88-2.46,2.31c-0.39,0.15-0.54,0.39-0.5,0.79c0.04,0.36,0.05,0.74,0,1.1c-0.19,1.35,0.01,2.47,1.62,2.94
	c0.41,0.12,0.64,0.55,0.86,0.91c0.64,1.05,1.25,2.13,1.93,3.15c0.49,0.73,0.57,1.51,0.47,2.32c-0.07,0.59,0.15,0.91,0.71,1.17
	c0.76,0.35,1.48,0.78,2.2,1.2c0.32,0.19,0.59,0.24,0.91,0c1.02-0.78,2.2-0.98,3.48-0.89c0.65,0.05,1.31,0.05,1.96,0
	c1.28-0.1,2.45,0.12,3.48,0.89c0.28,0.21,0.52,0.21,0.84,0.03c0.84-0.49,1.71-0.95,2.58-1.41c0.29-0.15,0.44-0.34,0.38-0.66
	c-0.23-1.33,0.25-2.47,1.03-3.55c0.33-0.45,0.63-0.93,0.87-1.43c0.53-1.09,1.32-1.91,2.5-2.36c0.37-0.14,0.49-0.36,0.48-0.74
	c-0.03-0.92-0.02-1.84,0-2.76c0.01-0.34-0.12-0.52-0.44-0.69c-0.67-0.35-1.42-0.6-1.86-1.27c-0.45-0.68-0.41-1.27,0.15-1.64
	c0.55-0.36,1.05-0.24,1.61,0.4c0.29,0.33,0.7,0.48,1.08,0.66c1.18,0.54,1.76,1.39,1.64,2.65
	C634.4,302.92,634.44,303.36,634.43,303.8C634.43,303.8,634.43,303.8,634.43,303.8z"/>
<path class="st0" d="M625.69,303.78c0,3.47-2.94,6.25-6.6,6.25c-3.65-0.01-6.59-2.81-6.57-6.27c0.02-3.44,2.93-6.2,6.56-6.22
	C622.74,297.52,625.69,300.31,625.69,303.78z"/>
<path class="st0" d="M579.15,327.21c0.24,1.19,0.44,2.38,0.73,3.55c1.47,6.03,4.51,11.25,9.1,15.64c0.55,0.53,1.2,0.58,1.67,0.16
	c0.48-0.44,0.43-1.07-0.16-1.63c-4.27-4.13-7.11-9.01-8.5-14.65c-0.28-1.14-0.46-2.3-0.62-3.46c-0.06-0.42-0.11-0.85,0.35-1.11
	c0.44-0.25,0.89-0.16,1.31,0.06c0.45,0.24,0.67,0.62,0.8,1.09c0.53,1.91,0.89,3.86,1.55,5.73c1.57,4.44,4.58,7.71,8.96,9.85
	c1.29,0.63,2.57,0.61,3.78-0.17c1.21-0.78,1.74-1.91,1.54-3.27c-0.23-1.52-0.54-3.03-0.81-4.55c-0.04-0.25-0.08-0.5-0.1-0.75
	c-0.02-0.31,0.16-0.53,0.45-0.65c0.32-0.13,0.63-0.06,0.86,0.18c0.13,0.13,0.23,0.3,0.33,0.45c1.88,2.78,3.75,5.57,5.65,8.34
	c0.25,0.36,0.28,0.57-0.08,0.91c-2.49,2.32-4.96,4.67-7.41,7.02c-0.32,0.31-0.54,0.33-0.92,0.12c-1.23-0.69-2.43-1.41-3.59-2.21
	c-0.72-0.49-1.31-0.48-1.73,0.03c-0.43,0.52-0.27,1.14,0.45,1.64c1.05,0.74,2.13,1.44,3.28,2.04c0.37,0.19,0.47,0.33,0.24,0.71
	c-0.45,0.78-0.36,1.6,0.28,2.24c1.57,1.56,3.15,3.11,4.84,4.55c0.24,0,0.49,0,0.73,0c0.77-0.56,1.4-1.25,2.09-1.9
	c3.54-3.34,7.07-6.7,10.6-10.05c0.83-0.79,0.84-1.25,0.02-2.02c-1.29-1.22-2.58-2.43-3.85-3.66c-0.78-0.76-1.68-1.01-2.7-0.55
	c-0.46,0.21-0.5-0.11-0.63-0.31c-1.85-2.72-3.68-5.45-5.53-8.17c-0.8-1.18-1.94-1.68-3.19-1.45c-1.53,0.29-2.54,1.55-2.34,3.09
	c0.2,1.52,0.53,3.03,0.8,4.55c0.03,0.18,0.06,0.36,0.09,0.54c0.1,0.57-0.04,1.06-0.55,1.4c-0.53,0.36-1.08,0.32-1.64,0.05
	c-3.83-1.89-6.5-4.75-7.84-8.65c-0.62-1.81-1.01-3.68-1.49-5.53c-0.55-2.08-2.58-3.32-4.59-2.81c-1.22,0.31-1.83,1.17-2.24,2.21
	C579.15,326.29,579.15,326.75,579.15,327.21z"/>
<path class="st0" d="M623.51,303.78c0,2.34-1.96,4.19-4.43,4.18c-2.43-0.01-4.37-1.86-4.37-4.17c0-2.33,1.97-4.21,4.43-4.19
	C621.57,299.63,623.51,301.47,623.51,303.78z"/>
<path class="st0" d="M647.09,319.8c0,0.35,0,0.69,0,1.04c0,0.48-0.22,0.88-0.67,1.07c-0.69,0.29-1.11,0.77-1.41,1.39
	c-0.09,0.19-0.21,0.38-0.34,0.55c-0.34,0.44-0.46,0.91-0.41,1.46c0.06,0.6-0.23,1.05-0.79,1.34c-0.58,0.3-1.15,0.62-1.72,0.93
	c-0.48,0.26-0.98,0.29-1.43-0.02c-0.53-0.37-1.1-0.49-1.74-0.43c-0.25,0.02-0.51,0.02-0.76,0c-0.62-0.05-1.18,0.06-1.7,0.42
	c-0.47,0.33-0.99,0.31-1.5,0.02c-0.58-0.33-1.16-0.64-1.75-0.96c-0.48-0.26-0.77-0.66-0.72-1.17c0.08-0.68-0.14-1.25-0.54-1.79
	c-0.1-0.14-0.2-0.29-0.27-0.45c-0.28-0.57-0.68-1.01-1.32-1.27c-0.49-0.2-0.72-0.62-0.71-1.13c0-0.67,0-1.33,0-2
	c0-0.53,0.23-0.95,0.74-1.16c0.61-0.26,1.01-0.68,1.29-1.24c0.1-0.22,0.23-0.43,0.38-0.62c0.35-0.46,0.5-0.96,0.44-1.53
	c-0.06-0.59,0.23-1.02,0.78-1.31c0.58-0.3,1.14-0.62,1.71-0.94c0.46-0.26,0.96-0.32,1.39-0.01c0.61,0.43,1.27,0.51,1.98,0.46
	c0.18-0.01,0.37-0.02,0.55,0c0.65,0.06,1.23-0.06,1.77-0.44c0.43-0.3,0.92-0.28,1.39-0.02c0.62,0.34,1.24,0.68,1.86,1.02
	c0.35,0.19,0.6,0.47,0.63,0.85c0.05,0.51,0.07,1.03,0.06,1.55c0,0.27-0.22,0.43-0.49,0.48c-0.31,0.05-0.55-0.07-0.69-0.34
	c-0.19-0.37-0.12-0.76-0.1-1.14c0.01-0.25-0.07-0.38-0.3-0.5c-0.47-0.24-0.93-0.49-1.39-0.75c-0.19-0.11-0.33-0.15-0.52-0.01
	c-0.58,0.44-1.24,0.58-1.97,0.52c-0.36-0.03-0.73-0.03-1.1,0c-0.78,0.06-1.51-0.05-2.14-0.53c-0.16-0.12-0.29-0.09-0.45,0
	c-0.49,0.28-0.99,0.56-1.49,0.82c-0.19,0.1-0.26,0.22-0.23,0.41c0.13,0.73-0.13,1.36-0.55,1.95c-0.21,0.3-0.41,0.61-0.57,0.93
	c-0.31,0.61-0.75,1.09-1.43,1.34c-0.23,0.08-0.32,0.23-0.29,0.46c0.02,0.21,0.03,0.43,0,0.64c-0.11,0.78,0.01,1.43,0.94,1.7
	c0.24,0.07,0.37,0.32,0.5,0.53c0.37,0.61,0.72,1.23,1.12,1.83c0.28,0.42,0.33,0.87,0.27,1.34c-0.04,0.34,0.09,0.53,0.41,0.68
	c0.44,0.2,0.86,0.45,1.28,0.7c0.19,0.11,0.34,0.14,0.53,0c0.59-0.45,1.28-0.57,2.02-0.52c0.38,0.03,0.76,0.03,1.14,0
	c0.74-0.06,1.42,0.07,2.02,0.52c0.16,0.12,0.3,0.12,0.49,0.01c0.49-0.29,0.99-0.55,1.49-0.82c0.17-0.09,0.25-0.2,0.22-0.38
	c-0.13-0.77,0.15-1.43,0.6-2.06c0.19-0.26,0.36-0.54,0.5-0.83c0.31-0.63,0.76-1.11,1.45-1.37c0.21-0.08,0.29-0.21,0.28-0.43
	c-0.02-0.53-0.01-1.07,0-1.6c0-0.2-0.07-0.3-0.26-0.4c-0.39-0.2-0.82-0.35-1.08-0.74c-0.26-0.39-0.23-0.74,0.09-0.95
	c0.32-0.21,0.61-0.14,0.93,0.23c0.17,0.19,0.4,0.28,0.63,0.38c0.69,0.31,1.02,0.8,0.95,1.53
	C647.07,319.3,647.09,319.55,647.09,319.8C647.09,319.8,647.09,319.8,647.09,319.8z"/>
<path class="st0" d="M606.21,319.22c0,0.35,0,0.69,0,1.04c0,0.48-0.22,0.88-0.67,1.07c-0.69,0.29-1.11,0.77-1.41,1.39
	c-0.09,0.19-0.21,0.38-0.34,0.55c-0.34,0.44-0.46,0.91-0.41,1.46c0.06,0.6-0.23,1.05-0.79,1.34c-0.58,0.3-1.15,0.62-1.72,0.93
	c-0.48,0.26-0.98,0.29-1.43-0.02c-0.53-0.37-1.1-0.49-1.74-0.43c-0.25,0.02-0.51,0.02-0.76,0c-0.62-0.05-1.18,0.06-1.7,0.42
	c-0.47,0.33-0.99,0.31-1.5,0.02c-0.58-0.33-1.16-0.64-1.75-0.96c-0.48-0.26-0.77-0.66-0.72-1.17c0.08-0.68-0.14-1.25-0.54-1.79
	c-0.1-0.14-0.2-0.29-0.27-0.45c-0.28-0.57-0.68-1.01-1.32-1.27c-0.49-0.2-0.72-0.62-0.71-1.13c0-0.67,0-1.33,0-2
	c0-0.53,0.23-0.95,0.74-1.16c0.61-0.26,1.01-0.68,1.29-1.24c0.1-0.22,0.23-0.43,0.38-0.62c0.35-0.46,0.5-0.96,0.44-1.53
	c-0.06-0.59,0.23-1.02,0.78-1.31c0.58-0.3,1.14-0.62,1.71-0.94c0.46-0.26,0.96-0.32,1.39-0.01c0.61,0.43,1.27,0.51,1.98,0.46
	c0.18-0.01,0.37-0.02,0.55,0c0.65,0.06,1.23-0.06,1.77-0.44c0.43-0.3,0.92-0.28,1.39-0.02c0.62,0.34,1.24,0.68,1.86,1.02
	c0.35,0.19,0.6,0.47,0.63,0.85c0.05,0.51,0.07,1.03,0.06,1.55c0,0.27-0.22,0.43-0.49,0.48c-0.31,0.05-0.55-0.07-0.69-0.34
	c-0.19-0.37-0.12-0.76-0.1-1.14c0.01-0.25-0.07-0.38-0.3-0.5c-0.47-0.24-0.93-0.49-1.39-0.75c-0.19-0.11-0.33-0.15-0.52-0.01
	c-0.58,0.44-1.24,0.58-1.97,0.52c-0.36-0.03-0.73-0.03-1.1,0c-0.78,0.06-1.51-0.05-2.14-0.53c-0.16-0.12-0.29-0.09-0.45,0
	c-0.49,0.28-0.99,0.56-1.49,0.82c-0.19,0.1-0.26,0.22-0.23,0.41c0.13,0.73-0.13,1.36-0.55,1.95c-0.21,0.3-0.41,0.61-0.57,0.93
	c-0.31,0.61-0.75,1.09-1.43,1.34c-0.23,0.08-0.32,0.23-0.29,0.46c0.02,0.21,0.03,0.43,0,0.64c-0.11,0.78,0.01,1.43,0.94,1.7
	c0.24,0.07,0.37,0.32,0.5,0.53c0.37,0.61,0.72,1.23,1.12,1.83c0.28,0.42,0.33,0.87,0.27,1.34c-0.04,0.34,0.09,0.53,0.41,0.68
	c0.44,0.2,0.86,0.45,1.28,0.7c0.19,0.11,0.34,0.14,0.53,0c0.59-0.45,1.28-0.57,2.02-0.52c0.38,0.03,0.76,0.03,1.14,0
	c0.74-0.06,1.42,0.07,2.02,0.52c0.16,0.12,0.3,0.12,0.49,0.01c0.49-0.29,0.99-0.55,1.49-0.82c0.17-0.09,0.25-0.2,0.22-0.38
	c-0.14-0.77,0.15-1.43,0.6-2.06c0.19-0.26,0.36-0.54,0.5-0.83c0.31-0.63,0.76-1.11,1.45-1.37c0.21-0.08,0.29-0.21,0.28-0.43
	c-0.02-0.53-0.01-1.07,0-1.6c0-0.2-0.07-0.3-0.26-0.4c-0.39-0.2-0.82-0.35-1.08-0.74c-0.26-0.39-0.24-0.74,0.09-0.95
	c0.32-0.21,0.61-0.14,0.93,0.23c0.17,0.19,0.4,0.28,0.63,0.38c0.69,0.31,1.02,0.8,0.95,1.53
	C606.19,318.72,606.21,318.97,606.21,319.22C606.21,319.22,606.21,319.22,606.21,319.22z"/>
<path class="st0" d="M642.02,319.79c0,2.01-1.7,3.63-3.83,3.62c-2.12,0-3.82-1.63-3.81-3.64c0.01-1.99,1.7-3.59,3.8-3.61
	C640.3,316.16,642.02,317.78,642.02,319.79z"/>
<path class="st0" d="M601.15,319.21c0,2.01-1.7,3.63-3.83,3.62c-2.12,0-3.82-1.63-3.81-3.64c0.01-1.99,1.7-3.59,3.8-3.6
	C599.43,315.58,601.15,317.2,601.15,319.21z"/>
<path class="st0" d="M640.75,319.79c0,1.36-1.14,2.43-2.57,2.42c-1.41-0.01-2.53-1.08-2.53-2.42c0-1.35,1.14-2.44,2.57-2.43
	C639.63,317.38,640.75,318.45,640.75,319.79z"/>
<path class="st0" d="M599.88,319.21c0,1.36-1.14,2.43-2.57,2.42c-1.41-0.01-2.53-1.08-2.53-2.42c0-1.35,1.14-2.44,2.57-2.43
	C598.76,316.8,599.88,317.87,599.88,319.21z"/>
<path class="st7" d="M380.01,110.32H272.54c-21.26,0-40.9,11.34-51.53,29.75l-53.74,93.07c-10.63,18.41-10.63,41.09,0,59.5
	l53.74,93.07c10.63,18.41,30.27,29.75,51.53,29.75h107.47c21.26,0,40.9-11.34,51.53-29.75l53.74-93.07
	c10.63-18.41,10.63-41.09,0-59.5l-53.74-93.07C420.91,121.66,401.27,110.32,380.01,110.32z"/>
<path class="st8" d="M341.58,86.74H189.5c-15.88,0-30.56,8.47-38.5,22.23l-76.04,131.7c-7.94,13.76-7.94,30.7,0,44.46L151,416.82
	c7.94,13.76,22.62,22.23,38.5,22.23h152.07c15.88,0,30.56-8.47,38.5-22.23l76.04-131.7c7.94-13.76,7.94-30.7,0-44.46l-76.04-131.7
	C372.13,95.22,357.46,86.74,341.58,86.74z"/>
<path class="st2" d="M311.45,123.54H210.46c-14.09,0-26.89,8.2-32.77,21.01l-57.04,124.11c-4.39,9.56-4.39,20.56,0,30.12
	l57.04,124.11c5.88,12.8,18.68,21.01,32.77,21.01h100.98c14.09,0,26.89-8.2,32.77-21.01l57.04-124.11c4.39-9.56,4.39-20.56,0-30.12
	l-57.04-124.11C338.33,131.74,325.53,123.54,311.45,123.54z"/>
<text transform="matrix(1 0 0 1 130.6182 286.355)"><tspan x="0" y="0" class="st3 st4 st9">Consideram concepções atuais </tspan><tspan x="-1.01" y="24.06" class="st3 st4 st9">de educação especial. Preveem </tspan><tspan x="24.34" y="48.11" class="st3 st4 st9">inclusão, acessibilidade e </tspan><tspan x="38.13" y="72.17" class="st3 st4 st9">respeito à diversidade</tspan></text>
<g>
	<path class="st7" d="M215,249.65v-35.99h4.81v35.99H215z"/>
	<path class="st7" d="M195.45,249.65v-35.99h8.37c4.51,0,6.77,2.31,6.77,6.92v23.86c0,3.48-1.92,5.21-5.76,5.21H195.45z
		 M200.27,245.29h3.61c1.27,0,1.9-0.53,1.9-1.6v-23.06c0-1.74-0.72-2.61-2.16-2.61h-3.35V245.29z"/>
	<path class="st7" d="M287,215.53c0-0.64,0-1.88,0.46-1.88h2.38c3.11,0,5.21,0.17,6.31,0.5c1.1,0.33,2,1.18,2.69,2.55
		c0.69,1.37,1.04,3.55,1.04,6.54c0,2.73-0.25,4.57-0.73,5.51c-0.49,0.94-1.45,1.5-2.89,1.69c1.3,0.45,2.18,1.05,2.63,1.8
		c0.45,0.75,0.73,1.44,0.84,2.07c0.11,0.63,0.16,2.36,0.16,5.2v9.26h-4.82v-11.85c-0.24-4.65-0.67-3.42-0.88-3.87
		c0,0-1.51-0.11-2.41-0.11v15.84h-4.92L287,215.53z"/>
	<path class="st6" d="M291.76,218.6v8.88c1.22,0,2.07-0.16,2.56-0.48c0.49-0.32,0.73-1.36,0.73-3.12v-2.2
		c0-1.26-0.24-2.09-0.71-2.49C293.87,218.8,293.01,218.6,291.76,218.6z"/>
	<path class="st7" d="M257.2,228.09l-0.08-4.6c0-1.79-0.12-2.73-0.27-3.17c-0.15-0.44-1.15-2.17-3.19-2.17
		c-2.36,0-3.14,1.77-3.54,2.14c-0.19,0.18-0.45,0.94-0.44,4.44l0.07,15.22c0,0,0.12,3.54,0.41,3.98c0.33,0.5,1.72,1.76,3.5,1.82
		c1.51,0.05,2.77-1.32,3.03-1.68c0.32-0.43,0.57-3.41,0.57-3.41l0.02-4.21l4.43,0v0.42c0,3.67-0.19,6.28-0.57,7.82
		c-0.38,1.54-1.23,2.88-2.54,4.04c-1.31,1.16-2.93,1.73-4.85,1.73c-2,0-3.64-0.49-4.94-1.47c-1.3-0.98-2.15-2.33-2.58-4.07
		c-0.42-1.73-0.63-4.34-0.63-7.81v-10.37c0-2.56,0.06-4.48,0.19-5.75c0.13-1.28,0.52-2.51,1.16-3.69c0.64-1.19,1.53-2.12,2.67-2.8
		c1.14-0.68,2.45-1.02,3.93-1.02c2.01,0,3.67,0.53,4.97,1.58c1.31,1.05,2.16,2.36,2.58,3.93c0.41,1.57,0.61,4.01,0.61,7.32V228"/>
	<path class="st7" d="M241.6,224.91h-4.24c-0.21,0-0.38-0.19-0.38-0.42l-0.08-3.33c-0.12-1.4-0.99-2.32-0.99-2.32
		c-0.2-0.35-0.97-1.09-2.49-1.04c-1.74,0.06-2.18,1.21-2.47,1.65c-0.5,0.76-0.52,1.52-0.65,2.24c-0.12,0.71-0.29,2.22,0.22,3.15
		c0.63,1.15,2.63,1.69,3.92,2.56c3.71,2.5,5.03,4.51,5.91,6.18c0.43,0.81,0.96,2.41,1.15,3.57c0.27,1.69,0.27,3.71-0.27,7.09
		c-0.08,0.51-0.32,1.13-0.52,1.69c-0.46,1.27-0.91,2.34-2.44,3.17c-1.53,0.83-3.14,1.17-5.17,1.17c-2.23,0-3.51-0.21-5.09-1.17
		c-1.58-0.96-1.98-1.99-2.47-3.47c-0.49-1.48-0.47-3.88-0.47-6.61l0.03-1.75h4c0.19,0,0.34,0.17,0.35,0.38l0.18,4.12
		c0.02,0.35,0.03,0.67,0.05,0.94c0.08,1.3,0.77,2.33,1.87,2.7c0.45,0.15,1.19,0.27,1.76,0.25c0.31-0.01,1.3-0.06,1.93-0.38
		c0.81-0.41,1.54-1.08,1.62-2.08c0.04-0.43,0.1-0.99,0.14-1.69c0.14-2.39-0.3-4.56-0.68-5.49c-0.48-1.15-2.07-2.42-4.23-3.78
		c-1.15-0.72-1.83-1.14-2.22-1.37c-0.36-0.22-0.69-0.47-1.01-0.75c-0.2-0.17-0.42-0.36-0.64-0.54c-1.23-0.99-2.2-2.37-2.62-4.01
		c-0.12-0.48-0.2-1-0.2-1.57c0-2.79,0.26-4.65,0.88-5.94c0.63-1.29,1.61-2.65,3.01-3.38c1.4-0.73,2.24-1,4.21-1
		c2.17,0,3.37,0.25,4.89,1.05c1.52,0.8,2.09,1.6,2.59,2.8c0.49,1.21,0.65,2.98,0.65,5.88V224.91z"/>
	<path class="st7" d="M319.44,224.91h-3.65c-0.18,0-0.32-0.19-0.33-0.42l-0.07-3.33c-0.1-1.4-0.85-2.32-0.85-2.32
		c-0.17-0.35-0.83-1.09-2.15-1.04c-1.49,0.06-1.88,1.21-2.13,1.65c-0.43,0.76-0.45,1.52-0.56,2.24c-0.11,0.71-0.25,2.22,0.19,3.15
		c0.54,1.15,2.26,1.69,3.38,2.56c3.2,2.5,4.33,4.51,5.09,6.18c0.37,0.81,0.83,2.41,0.99,3.57c0.23,1.69,0.23,3.71-0.23,7.09
		c-0.07,0.51-0.28,1.13-0.45,1.69c-0.4,1.27-0.78,2.34-2.1,3.17c-1.32,0.83-2.7,1.17-4.46,1.17c-1.92,0-3.02-0.21-4.38-1.17
		c-1.36-0.96-1.7-1.99-2.13-3.47c-0.42-1.48-0.41-3.88-0.41-6.61l0.03-1.75h3.44c0.16,0,0.29,0.17,0.3,0.38l0.16,4.12
		c0.01,0.35,0.03,0.67,0.04,0.94c0.07,1.3,0.66,2.33,1.61,2.7c0.39,0.15,1.02,0.27,1.52,0.25c0.27-0.01,1.12-0.06,1.66-0.38
		c0.7-0.41,1.32-1.08,1.39-2.08c0.03-0.43,0.09-0.99,0.12-1.69c0.12-2.39-0.26-4.56-0.59-5.49c-0.41-1.15-1.78-2.42-3.65-3.78
		c-0.99-0.72-1.57-1.14-1.91-1.37c-0.31-0.22-0.59-0.47-0.87-0.75c-0.17-0.17-0.36-0.36-0.55-0.54c-1.06-0.99-1.9-2.37-2.26-4.01
		c-0.11-0.48-0.17-1-0.17-1.57c0-2.79,0.22-4.65,0.76-5.94c0.54-1.29,1.38-2.65,2.59-3.38c1.21-0.73,1.93-1,3.63-1
		c1.86,0,2.9,0.25,4.21,1.05c1.31,0.8,1.8,1.6,2.23,2.8c0.43,1.21,0.56,2.98,0.56,5.88V224.91z"/>
	<path class="st7" d="M281.83,213.47l0.16,23.29c0,2.7,0.07,5.62-0.09,6.71c-0.16,1.09-0.11,2.01-1.1,3.41
		c-0.8,1.13-1.9,1.73-1.9,1.73s-1.91,0.88-3.64,0.88c-1.91,0-2.81-0.04-4.28-0.75c-1.47-0.7-2.56-1.62-3.29-2.75
		c-0.73-1.13-1.16-2.32-1.29-3.57c-0.13-1.25-0.2-3.89-0.2-7.9v-21.06h4.83l0.11,26.29c0,1.55,0.18,3.25,1.57,3.98
		c0.41,0.22,2.53,0.19,2.98,0.05c0.67-0.22,1.02-0.72,1.17-1.19c0.15-0.48,0.08-1.12,0.08-2.9v-26.22H281.83z"/>
	<path class="st7" d="M339.74,234.89c0,3.59-0.06,6.13-0.19,7.62c-0.13,1.49-0.52,2.86-1.19,4.09c-0.67,1.23-1.57,2.18-2.71,2.85
		c-1.14,0.66-2.46,0.99-3.97,0.99c-1.43,0-2.72-0.31-3.86-0.94c-1.14-0.62-2.06-1.56-2.76-2.81c-0.7-1.25-1.11-2.61-1.24-4.08
		c-0.13-1.47-0.2-4.05-0.2-7.72v-6.11c0-3.59,0.06-6.13,0.19-7.62c0.13-1.49,0.52-2.86,1.19-4.09c0.67-1.24,1.57-2.18,2.71-2.85
		c1.14-0.66,2.46-0.99,3.97-0.99c1.44,0,2.72,0.31,3.86,0.94c1.14,0.63,2.06,1.56,2.76,2.81c0.69,1.25,1.11,2.61,1.24,4.08
		c0.13,1.47,0.2,4.04,0.2,7.72V234.89z M335.56,222.6c-0.33-3.49-0.98-3.58-0.98-3.58c-0.14-0.48-1.82-1.22-3.15-1.22
		c-1.57,0-2.77,0.91-2.97,1.3c-0.19,0.39-0.89,1.64-0.89,3.53v17.36c0.07,1.88,0.36,3.28,0.54,4c0.09,0.35,0.2,0.68,0.41,0.92
		c0.87,1.02,2.68,1.01,3.26,1.02c0.66,0.01,2.43,0.19,3.12-1.73c0.19-0.54,0.71-1.87,0.71-4.04L335.56,222.6z"/>
</g>
<path class="st7" d="M293.08,113.08c0.69,0.4,0.9,1.01,0.9,1.8c-0.01,21.65-0.01,43.3-0.01,64.94c0,1.36-0.42,1.78-1.76,1.79
	c-0.89,0.01-1.79-0.03-2.68,0.01c-0.54,0.03-0.69-0.17-0.64-0.67c0.04-0.42,0.03-0.84,0-1.26c-0.04-0.46,0.07-0.66,0.6-0.64
	c0.63,0.02,1.5,0.3,1.83-0.13c0.32-0.4,0.11-1.23,0.11-1.87c0-20.16,0-40.32,0.02-60.48c0-0.74-0.13-0.98-0.93-0.98
	c-14.66,0.03-29.31,0.02-43.97,0.01c-0.61,0-0.85,0.09-0.82,0.78c0.06,1.77,0.02,1.74-1.72,1.78c-0.63,0.02-0.87-0.11-0.81-0.79
	c0.07-0.86,0.05-1.74,0.01-2.6c-0.04-0.78,0.23-1.34,0.93-1.69C260.44,113.08,276.76,113.08,293.08,113.08z"/>
<path class="st7" d="M235.59,154.91c0-10.76,0-21.52,0-32.28c0-1.62,0.33-1.94,1.97-1.94c11.38,0,22.76,0.01,34.15-0.01
	c0.83,0,1.45,0.25,2.04,0.84c3.93,3.96,7.87,7.9,11.83,11.84c0.55,0.55,0.79,1.14,0.79,1.91c-0.01,17.36-0.01,34.71-0.01,52.07
	c0,1.52-0.4,1.91-1.95,1.91c-15.62,0-31.24,0-46.87,0c-1.6,0-1.95-0.35-1.95-1.97C235.59,176.48,235.59,165.7,235.59,154.91z"/>
<path class="st7" d="M238.13,154.97c0-10.32,0.01-20.63-0.01-30.95c0-0.64,0.13-0.82,0.8-0.82c10.47,0.03,20.93,0.02,31.4,0
	c0.66,0,0.82,0.16,0.81,0.81c-0.04,3.3-0.02,6.6-0.02,9.89c0,1.71,0.32,2.02,2.06,2.02c3.32,0,6.65,0.01,9.97-0.01
	c0.56,0,0.7,0.14,0.7,0.7c-0.02,16.46-0.02,32.93,0,49.39c0,0.56-0.15,0.7-0.7,0.7c-14.78-0.02-29.56-0.02-44.34,0.01
	c-0.71,0-0.66-0.33-0.66-0.8C238.14,175.6,238.13,165.28,238.13,154.97z"/>
<path class="st7" d="M273.65,125.17c2.76,2.75,5.45,5.44,8.22,8.21c-0.37,0-0.7,0-1.03,0c-2.21,0-4.41,0-6.62,0
	c-0.31,0-0.58,0.04-0.58-0.43C273.66,130.37,273.65,127.8,273.65,125.17z"/>
<path class="st6" d="M261.02,138.47c4.81,0,9.62,0.01,14.42-0.01c0.62,0,0.78,0.17,0.77,0.78c-0.04,1.77-0.01,1.77-1.78,1.77
	c-9.29,0-18.59-0.01-27.88,0.01c-0.62,0-0.85-0.09-0.83-0.79c0.06-1.76,0.02-1.76,1.76-1.76C252,138.47,256.51,138.47,261.02,138.47
	z"/>
<path class="st6" d="M260.95,171.44c-4.83,0-9.67-0.01-14.5,0.02c-0.6,0-0.72-0.18-0.71-0.74c0.03-1.82,0.01-1.82,1.86-1.82
	c9.27,0,18.54,0.01,27.81-0.02c0.67,0,0.82,0.18,0.81,0.82c-0.04,1.74-0.01,1.74-1.73,1.74
	C269.97,171.44,265.46,171.44,260.95,171.44z"/>
<path class="st6" d="M260.96,178.71c-4.83,0-9.67-0.01-14.5,0.02c-0.6,0-0.72-0.18-0.71-0.74c0.03-1.82,0.01-1.82,1.86-1.82
	c9.27,0,18.54,0.01,27.81-0.02c0.67,0,0.82,0.18,0.81,0.82c-0.04,1.74-0.01,1.74-1.73,1.74
	C269.98,178.71,265.47,178.71,260.96,178.71z"/>
<path class="st6" d="M260.94,148.63c-4.83,0-9.67-0.01-14.5,0.02c-0.6,0-0.72-0.18-0.71-0.74c0.03-1.82,0.01-1.82,1.86-1.82
	c9.27,0,18.54,0.01,27.81-0.02c0.67,0,0.82,0.18,0.81,0.82c-0.04,1.74-0.01,1.74-1.73,1.74
	C269.96,148.63,265.45,148.63,260.94,148.63z"/>
<path class="st6" d="M260.94,156.19c-4.83,0-9.67-0.01-14.5,0.02c-0.6,0-0.72-0.18-0.71-0.74c0.03-1.82,0.01-1.82,1.86-1.82
	c9.27,0,18.54,0.01,27.81-0.02c0.67,0,0.82,0.18,0.81,0.82c-0.04,1.74-0.01,1.74-1.73,1.74
	C269.96,156.19,265.45,156.19,260.94,156.19z"/>
<path class="st6" d="M260.93,163.82c-4.83,0-9.67-0.01-14.5,0.02c-0.6,0-0.72-0.18-0.71-0.74c0.03-1.82,0.01-1.82,1.86-1.82
	c9.27,0,18.54,0.01,27.81-0.02c0.67,0,0.82,0.18,0.81,0.82c-0.04,1.74-0.01,1.74-1.73,1.74
	C269.95,163.82,265.44,163.82,260.93,163.82z"/>
<path class="st6" d="M250.82,133.38c-1.48,0-2.97-0.02-4.45,0.01c-0.45,0.01-0.69-0.07-0.63-0.59c0.08-0.63-0.26-1.45,0.14-1.85
	c0.37-0.38,1.18-0.1,1.79-0.11c2.52-0.01,5.05,0.01,7.57-0.02c0.5-0.01,0.71,0.1,0.66,0.64c-0.06,0.61,0.18,1.41-0.12,1.79
	c-0.32,0.39-1.15,0.11-1.76,0.12C252.94,133.4,251.88,133.38,250.82,133.38z"/>
</svg>
