<?xml version="1.0" encoding="utf-8"?>
<!-- Generator: Adobe Illustrator 26.0.3, SVG Export Plug-In . SVG Version: 6.00 Build 0)  -->
<svg version="1.1" id="Camada_1" xmlns="http://www.w3.org/2000/svg" xmlns:xlink="http://www.w3.org/1999/xlink" x="0px" y="0px"
	 viewBox="0 0 577.48 398.9" style="enable-background:new 0 0 577.48 398.9;" xml:space="preserve">
<style type="text/css">
	.st0{fill:#F8B664;}
	.st1{fill:#FFFFFF;stroke:#F8B664;stroke-width:3;stroke-miterlimit:10;}
	.st2{fill:none;}
	.st3{fill:#020203;}
	.st4{font-family:'Barlow-Regular';}
	.st5{font-size:13.054px;}
	.st6{fill:#FFFFFF;}
	.st7{fill:#EF7A7A;}
	.st8{fill:#FFFFFF;stroke:#EF7B7B;stroke-width:3;stroke-miterlimit:10;}
	.st9{font-size:14.2742px;}
</style>
<path class="st0" d="M493.69,152.53h-79.53c-15.73,0-30.27,8.39-38.13,22.01l-39.76,68.87c-7.87,13.62-7.87,30.41,0,44.03
	l39.76,68.87c7.87,13.62,22.4,22.01,38.13,22.01h79.53c15.73,0,30.27-8.39,38.13-22.01l39.76-68.87c7.87-13.62,7.87-30.41,0-44.03
	l-39.76-68.87C523.96,160.93,509.42,152.53,493.69,152.53z"/>
<path class="st1" d="M458.69,135.11h-99.3c-15.85,0-30.49,8.45-38.41,22.18l-49.65,85.99c-7.92,13.72-7.92,30.63,0,44.35
	l49.65,85.99c7.92,13.72,22.56,22.18,38.41,22.18h99.3c15.85,0,30.49-8.45,38.41-22.18l49.65-85.99c7.92-13.72,7.92-30.63,0-44.35
	l-49.65-85.99C489.18,143.56,474.54,135.11,458.69,135.11z"/>
<path class="st2" d="M452.13,152.09h-89.41c-15.16,0-29.14,8.19-36.56,21.41l-45.72,81.48c-7.15,12.74-7.15,28.29,0,41.04
	l45.72,81.48c7.42,13.22,21.4,21.41,36.56,21.41h89.41c15.16,0,29.14-8.19,36.56-21.41l45.72-81.48c7.15-12.74,7.15-28.29,0-41.04
	l-45.72-81.48C481.27,160.28,467.29,152.09,452.13,152.09z"/>
<text transform="matrix(1 0 0 1 282.6502 275.77)"><tspan x="0" y="0" class="st3 st4 st5">Refletem segregação e exclusão, em virtude </tspan><tspan x="2.94" y="16.36" class="st3 st4 st5">da incapacidade. Compreendem o acesso à </tspan><tspan x="11.95" y="32.73" class="st3 st4 st5">escola como possibilidade de “socializa</tspan><tspan x="232.46" y="32.73" class="st3 st4 st5">-</tspan><tspan x="21.85" y="49.09" class="st3 st4 st5">ção” e esquecem que a função social </tspan><tspan x="36.92" y="65.45" class="st3 st4 st5">da escola é garantir acesso aos </tspan><tspan x="36.41" y="81.81" class="st3 st4 st5">conhecimentos sistematizados </tspan><tspan x="74.86" y="98.17" class="st3 st4 st5">pela humanidade.</tspan></text>
<g>
	<path class="st0" d="M442.77,245.15h-3.23v-22.23c0-3.06,1.29-4.6,3.87-4.6h2.42c2.58,0,3.87,1.53,3.87,4.6v22.23h-3.23v-9.83h-3.7
		V245.15z M446.48,232.07v-8.93c0-1.05-0.47-1.57-1.41-1.57h-0.88c-0.94,0-1.41,0.52-1.41,1.57v8.93H446.48z"/>
	<path class="st0" d="M391.69,245.17h-3.23v-22.84c0-3.15,1.29-4.72,3.87-4.72h2.42c2.58,0,3.87,1.57,3.87,4.72v22.84h-3.23v-10.1
		h-3.7V245.17z M395.4,231.73v-9.17c0-1.07-0.47-1.61-1.41-1.61h-0.88c-0.94,0-1.41,0.54-1.41,1.61v9.17H395.4z"/>
	<path class="st0" d="M362.09,218.03c0-0.5-0.14-1.36,0.2-1.36h3.39c1.34,0,2.38,0.15,3.1,0.46c0.72,0.31,1.27,0.75,1.63,1.32
		c0.36,0.58,0.61,1.28,0.74,2.09c0.13,0.82,0.19,2.09,0.19,3.81v2.39c0,1.75-0.13,3.03-0.38,3.83s-0.71,1.42-1.38,1.85
		c-0.67,0.43-1.54,0.64-2.62,0.64h-0.7c-0.34,0-0.62,0.4-0.62,0.9v10.16h-3.65L362.09,218.03z"/>
	<path class="st6" d="M365.66,221.21v8.76c0.2,0.01,0.38,0.02,0.53,0.02c0.66,0,1.11-0.2,1.37-0.61c0.25-0.4,0.38-1.24,0.38-2.52
		v-2.83c0-1.18-0.15-1.94-0.44-2.3C367.2,221.39,366.58,221.21,365.66,221.21z"/>
	<g>
		<path class="st0" d="M374.8,219.07c0-0.5,0-1.47,0.35-1.47h1.77c2.32,0,3.88,0.13,4.7,0.39c0.82,0.26,1.49,0.92,2,1.99
			c0.52,1.07,0.78,2.77,0.78,5.11c0,2.14-0.18,3.57-0.55,4.31c-0.37,0.74-1.08,1.18-2.16,1.32c0.97,0.35,1.62,0.82,1.96,1.41
			c0.33,0.59,0.54,1.13,0.62,1.62c0.08,0.49,0.12,1.85,0.12,4.06v7.24h-3.59v-9.27c-0.18-3.64-0.5-2.68-0.66-3.03
			c0,0-1.12-0.09-1.8-0.09v12.38h-3.67L374.8,219.07z"/>
		<path class="st6" d="M378.35,221.47v6.94c0.91,0,1.54-0.13,1.91-0.38c0.36-0.25,0.55-1.06,0.55-2.44v-1.72
			c0-0.99-0.18-1.64-0.53-1.95C379.92,221.63,379.28,221.47,378.35,221.47z"/>
	</g>
	<path class="st0" d="M397.4,211.4l-2.27,2.8c-0.11,0.13-0.24,0.21-0.38,0.21h-0.97c-0.48,0-0.77-0.8-0.51-1.4l1.21-2.8
		c0.11-0.26,0.3-0.41,0.51-0.41h2.03C397.58,209.79,397.84,210.86,397.4,211.4z"/>
	<path class="st0" d="M411.2,218.73v3.48c0,0.5-1.01,0.94-1.27,0.94h-1.28c-0.26,0-0.48,0.4-0.48,0.9v21.06h-3.71
		c-0.03,0-0.06-0.05-0.06-0.12v-20.95c0-0.5-0.21-0.9-0.48-0.9h-1.28c-0.26,0-1.31-0.24-1.31-0.74v-3.59c0-0.5,1.05-1.16,1.31-1.16
		h7.28C410.2,217.66,411.2,218.23,411.2,218.73z"/>
	<path class="st0" d="M418.84,218.82v26.25h-3.71v-26.25c0-0.49,0.21-0.89,0.47-0.89h2.78
		C418.63,217.92,418.84,218.32,418.84,218.82z"/>
	<path class="st0" d="M431.49,228.51l-0.06-3.43c0-1.34-0.09-2.03-0.2-2.36c-0.11-0.33-0.86-1.62-2.38-1.62
		c-1.76,0-2.34,1.32-2.63,1.59c-0.14,0.13-0.34,0.7-0.33,3.31l0.05,11.34c0,0,0.09,2.64,0.31,2.97c0.25,0.37,1.28,1.31,2.6,1.35
		c1.13,0.04,2.06-0.98,2.26-1.26c0.24-0.32,0.43-2.54,0.43-2.54l0.02-3.14l3.3,0v0.31c0,2.74-0.14,4.68-0.43,5.82
		c-0.29,1.15-0.92,2.15-1.89,3.01c-0.98,0.86-2.18,1.29-3.62,1.29c-1.49,0-2.72-0.37-3.68-1.1c-0.97-0.73-1.6-1.74-1.92-3.03
		c-0.31-1.29-0.47-3.23-0.47-5.82v-7.73c0-1.91,0.05-3.34,0.14-4.29c0.1-0.95,0.38-1.87,0.86-2.75c0.48-0.88,1.14-1.58,1.99-2.08
		c0.85-0.51,1.82-0.76,2.93-0.76c1.5,0,2.73,0.39,3.71,1.18c0.97,0.78,1.61,1.76,1.92,2.93c0.3,1.17,0.46,2.99,0.46,5.46v1.27"/>
</g>
<path class="st0" d="M434.35,178.35c-0.18,0.88-0.33,1.77-0.54,2.64c-1.09,4.47-3.34,8.34-6.75,11.6c-0.41,0.39-0.89,0.43-1.24,0.12
	c-0.35-0.32-0.32-0.79,0.11-1.21c3.17-3.07,5.27-6.68,6.3-10.86c0.21-0.85,0.34-1.71,0.46-2.57c0.04-0.31,0.08-0.63-0.26-0.82
	c-0.33-0.18-0.66-0.12-0.97,0.05c-0.33,0.18-0.5,0.46-0.59,0.81c-0.39,1.41-0.66,2.86-1.15,4.25c-1.17,3.29-3.4,5.72-6.65,7.31
	c-0.96,0.47-1.91,0.45-2.8-0.13c-0.9-0.58-1.29-1.41-1.14-2.43c0.17-1.13,0.4-2.25,0.6-3.37c0.03-0.18,0.06-0.37,0.07-0.56
	c0.01-0.23-0.12-0.4-0.33-0.48c-0.24-0.09-0.46-0.04-0.64,0.14c-0.1,0.1-0.17,0.22-0.24,0.34c-1.4,2.06-2.78,4.13-4.19,6.19
	c-0.18,0.27-0.21,0.42,0.06,0.67c1.85,1.72,3.68,3.46,5.5,5.21c0.24,0.23,0.4,0.25,0.68,0.09c0.91-0.51,1.81-1.05,2.66-1.64
	c0.53-0.37,0.97-0.35,1.28,0.02c0.32,0.39,0.2,0.84-0.33,1.22c-0.78,0.55-1.58,1.07-2.43,1.51c-0.27,0.14-0.35,0.24-0.18,0.53
	c0.34,0.58,0.27,1.19-0.21,1.66c-1.16,1.16-2.34,2.31-3.59,3.38c-0.18,0-0.36,0-0.54,0c-0.57-0.42-1.04-0.93-1.55-1.41
	c-2.62-2.48-5.24-4.97-7.86-7.45c-0.62-0.59-0.62-0.93-0.02-1.5c0.95-0.9,1.91-1.8,2.86-2.72c0.58-0.56,1.25-0.75,2-0.41
	c0.34,0.15,0.37-0.09,0.47-0.23c1.37-2.02,2.73-4.04,4.1-6.06c0.59-0.87,1.44-1.25,2.37-1.07c1.14,0.21,1.89,1.15,1.74,2.29
	c-0.15,1.13-0.39,2.25-0.59,3.37c-0.02,0.13-0.04,0.27-0.07,0.4c-0.07,0.42,0.03,0.78,0.41,1.04c0.39,0.27,0.8,0.24,1.22,0.03
	c2.84-1.4,4.82-3.52,5.81-6.41c0.46-1.34,0.75-2.73,1.11-4.1c0.4-1.54,1.91-2.46,3.4-2.08c0.9,0.23,1.36,0.87,1.66,1.64
	C434.35,177.67,434.35,178.01,434.35,178.35z"/>
<path class="st0" d="M417.6,160.99c0,0.44,0,0.89,0,1.33c-0.01,0.62-0.28,1.13-0.86,1.37c-0.88,0.37-1.42,0.98-1.81,1.78
	c-0.12,0.25-0.26,0.49-0.43,0.71c-0.43,0.56-0.59,1.17-0.52,1.87c0.08,0.77-0.29,1.34-1.01,1.72c-0.74,0.39-1.46,0.79-2.2,1.19
	c-0.62,0.34-1.25,0.37-1.83-0.03c-0.68-0.47-1.4-0.63-2.22-0.56c-0.32,0.03-0.65,0.03-0.97,0c-0.8-0.07-1.51,0.07-2.17,0.53
	c-0.61,0.42-1.27,0.39-1.92,0.02c-0.74-0.42-1.49-0.82-2.24-1.22c-0.62-0.33-0.99-0.84-0.92-1.5c0.1-0.87-0.18-1.6-0.69-2.29
	c-0.13-0.18-0.25-0.37-0.35-0.57c-0.36-0.73-0.87-1.29-1.68-1.62c-0.62-0.26-0.91-0.79-0.91-1.45c0-0.85,0-1.71,0-2.56
	c0-0.68,0.29-1.21,0.94-1.49c0.78-0.33,1.3-0.87,1.65-1.59c0.13-0.28,0.29-0.55,0.48-0.8c0.45-0.59,0.64-1.22,0.56-1.96
	c-0.08-0.75,0.29-1.3,0.99-1.67c0.74-0.39,1.46-0.79,2.19-1.2c0.59-0.33,1.23-0.41,1.78-0.02c0.78,0.56,1.62,0.65,2.54,0.59
	c0.23-0.02,0.47-0.02,0.7,0c0.83,0.07,1.58-0.07,2.27-0.56c0.55-0.39,1.18-0.35,1.78-0.03c0.79,0.43,1.58,0.87,2.38,1.3
	c0.44,0.24,0.76,0.6,0.81,1.08c0.07,0.66,0.09,1.32,0.08,1.98c-0.01,0.34-0.28,0.55-0.63,0.61c-0.4,0.07-0.7-0.09-0.88-0.44
	c-0.24-0.47-0.15-0.97-0.13-1.46c0.02-0.32-0.09-0.49-0.38-0.64c-0.6-0.3-1.19-0.63-1.77-0.96c-0.24-0.14-0.42-0.2-0.67-0.01
	c-0.74,0.56-1.59,0.75-2.52,0.66c-0.46-0.04-0.94-0.04-1.4,0c-1,0.08-1.93-0.06-2.73-0.68c-0.2-0.15-0.37-0.12-0.58,0
	c-0.63,0.36-1.26,0.72-1.91,1.05c-0.25,0.13-0.34,0.28-0.29,0.53c0.16,0.93-0.16,1.74-0.7,2.5c-0.27,0.38-0.52,0.78-0.73,1.19
	c-0.4,0.78-0.96,1.39-1.82,1.71c-0.29,0.11-0.4,0.29-0.37,0.59c0.03,0.27,0.04,0.55,0,0.82c-0.14,1,0.01,1.83,1.2,2.18
	c0.3,0.09,0.47,0.41,0.63,0.67c0.47,0.78,0.93,1.58,1.43,2.34c0.36,0.54,0.42,1.12,0.35,1.72c-0.05,0.44,0.11,0.68,0.53,0.87
	c0.56,0.26,1.1,0.58,1.63,0.89c0.24,0.14,0.44,0.18,0.67,0c0.76-0.58,1.63-0.73,2.58-0.66c0.48,0.04,0.97,0.04,1.46,0
	c0.95-0.07,1.82,0.09,2.58,0.66c0.21,0.16,0.39,0.16,0.63,0.02c0.63-0.37,1.27-0.71,1.91-1.04c0.22-0.11,0.32-0.25,0.28-0.49
	c-0.17-0.99,0.19-1.84,0.77-2.63c0.24-0.34,0.47-0.69,0.65-1.06c0.39-0.81,0.98-1.42,1.86-1.75c0.27-0.1,0.37-0.27,0.36-0.55
	c-0.02-0.68-0.02-1.36,0-2.05c0.01-0.25-0.09-0.39-0.33-0.51c-0.5-0.26-1.05-0.45-1.38-0.94c-0.33-0.5-0.3-0.94,0.11-1.22
	c0.41-0.27,0.78-0.18,1.19,0.3c0.21,0.25,0.52,0.36,0.8,0.49c0.88,0.4,1.3,1.03,1.22,1.96C417.58,160.34,417.6,160.67,417.6,160.99
	C417.6,160.99,417.6,160.99,417.6,160.99z"/>
<path class="st0" d="M411.11,160.98c0,2.58-2.18,4.64-4.89,4.63c-2.71,0-4.89-2.08-4.87-4.65c0.01-2.55,2.17-4.6,4.87-4.61
	C408.92,156.33,411.11,158.41,411.11,160.98z"/>
<path class="st0" d="M376.59,178.35c0.18,0.88,0.33,1.77,0.54,2.64c1.09,4.47,3.34,8.34,6.75,11.6c0.41,0.39,0.89,0.43,1.24,0.12
	c0.35-0.32,0.32-0.79-0.11-1.21c-3.17-3.07-5.27-6.68-6.3-10.86c-0.21-0.85-0.34-1.71-0.46-2.57c-0.04-0.31-0.08-0.63,0.26-0.82
	c0.33-0.18,0.66-0.12,0.97,0.05c0.33,0.18,0.5,0.46,0.59,0.81c0.39,1.41,0.66,2.86,1.15,4.25c1.17,3.29,3.4,5.72,6.65,7.31
	c0.96,0.47,1.91,0.45,2.8-0.13c0.9-0.58,1.29-1.41,1.14-2.43c-0.17-1.13-0.4-2.25-0.6-3.37c-0.03-0.18-0.06-0.37-0.07-0.56
	c-0.01-0.23,0.12-0.4,0.33-0.48c0.24-0.09,0.46-0.04,0.64,0.14c0.1,0.1,0.17,0.22,0.24,0.34c1.4,2.06,2.78,4.13,4.19,6.19
	c0.18,0.27,0.21,0.42-0.06,0.67c-1.85,1.72-3.68,3.46-5.5,5.21c-0.24,0.23-0.4,0.25-0.68,0.09c-0.91-0.51-1.81-1.05-2.66-1.64
	c-0.53-0.37-0.97-0.35-1.28,0.02c-0.32,0.39-0.2,0.84,0.33,1.22c0.78,0.55,1.58,1.07,2.43,1.51c0.27,0.14,0.35,0.24,0.18,0.53
	c-0.34,0.58-0.27,1.19,0.21,1.66c1.16,1.16,2.34,2.31,3.59,3.38c0.18,0,0.36,0,0.54,0c0.57-0.42,1.04-0.93,1.55-1.41
	c2.62-2.48,5.24-4.97,7.86-7.45c0.62-0.59,0.62-0.93,0.02-1.5c-0.95-0.9-1.91-1.8-2.86-2.72c-0.58-0.56-1.25-0.75-2-0.41
	c-0.34,0.15-0.37-0.09-0.47-0.23c-1.37-2.02-2.73-4.04-4.1-6.06c-0.59-0.87-1.44-1.25-2.37-1.07c-1.14,0.21-1.89,1.15-1.74,2.29
	c0.15,1.13,0.39,2.25,0.59,3.37c0.02,0.13,0.04,0.27,0.07,0.4c0.07,0.42-0.03,0.78-0.41,1.04c-0.39,0.27-0.8,0.24-1.22,0.03
	c-2.84-1.4-4.82-3.52-5.81-6.41c-0.46-1.34-0.75-2.73-1.11-4.1c-0.4-1.54-1.91-2.46-3.4-2.08c-0.9,0.23-1.36,0.87-1.66,1.64
	C376.59,177.67,376.59,178.01,376.59,178.35z"/>
<path class="st0" d="M409.5,160.98c0,1.73-1.45,3.11-3.29,3.1c-1.8-0.01-3.24-1.38-3.24-3.09c0-1.73,1.46-3.12,3.29-3.11
	C408.06,157.9,409.49,159.27,409.5,160.98z"/>
<path class="st0" d="M426.98,172.86c0,0.26,0,0.51,0,0.77c0,0.36-0.16,0.65-0.5,0.8c-0.51,0.21-0.83,0.57-1.05,1.03
	c-0.07,0.14-0.15,0.28-0.25,0.41c-0.25,0.33-0.34,0.68-0.3,1.08c0.05,0.45-0.17,0.78-0.59,0.99c-0.43,0.22-0.85,0.46-1.27,0.69
	c-0.36,0.2-0.73,0.21-1.06-0.02c-0.39-0.27-0.81-0.37-1.29-0.32c-0.19,0.02-0.38,0.02-0.56,0c-0.46-0.04-0.87,0.04-1.26,0.31
	c-0.35,0.24-0.74,0.23-1.11,0.01c-0.43-0.24-0.86-0.48-1.3-0.71c-0.36-0.19-0.57-0.49-0.53-0.87c0.06-0.51-0.11-0.93-0.4-1.33
	c-0.08-0.1-0.15-0.22-0.2-0.33c-0.21-0.42-0.5-0.75-0.98-0.94c-0.36-0.15-0.53-0.46-0.53-0.84c0-0.49,0-0.99,0-1.48
	c0-0.39,0.17-0.7,0.55-0.86c0.45-0.19,0.75-0.5,0.95-0.92c0.08-0.16,0.17-0.32,0.28-0.46c0.26-0.34,0.37-0.71,0.32-1.14
	c-0.05-0.43,0.17-0.76,0.57-0.97c0.43-0.22,0.85-0.46,1.27-0.69c0.34-0.19,0.71-0.24,1.03-0.01c0.45,0.32,0.94,0.38,1.47,0.34
	c0.13-0.01,0.27-0.01,0.41,0c0.48,0.04,0.91-0.04,1.32-0.33c0.32-0.23,0.69-0.21,1.03-0.02c0.46,0.25,0.92,0.5,1.38,0.76
	c0.26,0.14,0.44,0.35,0.47,0.63c0.04,0.38,0.05,0.77,0.04,1.15c0,0.2-0.16,0.32-0.36,0.35c-0.23,0.04-0.41-0.05-0.51-0.25
	c-0.14-0.27-0.09-0.56-0.07-0.85c0.01-0.19-0.05-0.29-0.22-0.37c-0.35-0.18-0.69-0.36-1.03-0.56c-0.14-0.08-0.25-0.11-0.39-0.01
	c-0.43,0.33-0.92,0.43-1.46,0.38c-0.27-0.02-0.54-0.02-0.81,0c-0.58,0.04-1.12-0.04-1.58-0.4c-0.12-0.09-0.21-0.07-0.33,0
	c-0.36,0.21-0.73,0.42-1.11,0.61c-0.14,0.07-0.2,0.16-0.17,0.31c0.09,0.54-0.09,1.01-0.41,1.45c-0.16,0.22-0.3,0.45-0.42,0.69
	c-0.23,0.45-0.56,0.81-1.06,0.99c-0.17,0.06-0.23,0.17-0.22,0.34c0.02,0.16,0.02,0.32,0,0.47c-0.08,0.58,0.01,1.06,0.7,1.26
	c0.18,0.05,0.27,0.23,0.37,0.39c0.27,0.45,0.54,0.91,0.83,1.36c0.21,0.31,0.24,0.65,0.2,1c-0.03,0.25,0.06,0.39,0.31,0.5
	c0.33,0.15,0.64,0.33,0.95,0.52c0.14,0.08,0.25,0.1,0.39,0c0.44-0.34,0.95-0.42,1.5-0.38c0.28,0.02,0.56,0.02,0.84,0
	c0.55-0.04,1.06,0.05,1.5,0.38c0.12,0.09,0.23,0.09,0.36,0.01c0.36-0.21,0.73-0.41,1.11-0.61c0.13-0.07,0.19-0.15,0.16-0.28
	c-0.1-0.57,0.11-1.06,0.44-1.53c0.14-0.19,0.27-0.4,0.37-0.61c0.23-0.47,0.57-0.82,1.08-1.02c0.16-0.06,0.21-0.15,0.21-0.32
	c-0.01-0.4-0.01-0.79,0-1.19c0-0.15-0.05-0.23-0.19-0.3c-0.29-0.15-0.61-0.26-0.8-0.55c-0.19-0.29-0.17-0.55,0.06-0.71
	c0.23-0.16,0.45-0.1,0.69,0.17c0.12,0.14,0.3,0.21,0.47,0.28c0.51,0.23,0.76,0.6,0.71,1.14
	C426.97,172.48,426.98,172.67,426.98,172.86C426.98,172.86,426.98,172.86,426.98,172.86z"/>
<path class="st0" d="M396.66,172.43c0,0.26,0,0.51,0,0.77c0,0.36-0.16,0.65-0.5,0.8c-0.51,0.21-0.83,0.57-1.05,1.03
	c-0.07,0.14-0.15,0.28-0.25,0.41c-0.25,0.33-0.34,0.68-0.3,1.08c0.05,0.45-0.17,0.78-0.59,0.99c-0.43,0.22-0.85,0.46-1.27,0.69
	c-0.36,0.2-0.73,0.21-1.06-0.02c-0.39-0.27-0.81-0.37-1.29-0.32c-0.19,0.02-0.38,0.02-0.56,0c-0.46-0.04-0.87,0.04-1.26,0.31
	c-0.35,0.24-0.74,0.23-1.11,0.01c-0.43-0.24-0.86-0.48-1.3-0.71c-0.36-0.19-0.57-0.49-0.53-0.87c0.06-0.51-0.11-0.93-0.4-1.33
	c-0.08-0.1-0.15-0.22-0.2-0.33c-0.21-0.42-0.5-0.75-0.98-0.94c-0.36-0.15-0.53-0.46-0.53-0.84c0-0.49,0-0.99,0-1.48
	c0-0.39,0.17-0.7,0.55-0.86c0.45-0.19,0.75-0.5,0.95-0.92c0.08-0.16,0.17-0.32,0.28-0.46c0.26-0.34,0.37-0.71,0.32-1.14
	c-0.05-0.43,0.17-0.76,0.57-0.97c0.43-0.22,0.85-0.46,1.27-0.69c0.34-0.19,0.71-0.24,1.03-0.01c0.45,0.32,0.94,0.38,1.47,0.34
	c0.13-0.01,0.27-0.01,0.41,0c0.48,0.04,0.91-0.04,1.32-0.33c0.32-0.23,0.69-0.21,1.03-0.02c0.46,0.25,0.92,0.5,1.38,0.76
	c0.26,0.14,0.44,0.35,0.47,0.63c0.04,0.38,0.05,0.77,0.04,1.15c0,0.2-0.16,0.32-0.36,0.35c-0.23,0.04-0.41-0.05-0.51-0.25
	c-0.14-0.27-0.09-0.56-0.07-0.85c0.01-0.19-0.05-0.29-0.22-0.37c-0.35-0.18-0.69-0.36-1.03-0.56c-0.14-0.08-0.25-0.11-0.39-0.01
	c-0.43,0.33-0.92,0.43-1.46,0.38c-0.27-0.02-0.54-0.02-0.81,0c-0.58,0.04-1.12-0.04-1.58-0.4c-0.12-0.09-0.21-0.07-0.33,0
	c-0.36,0.21-0.73,0.42-1.11,0.61c-0.14,0.07-0.2,0.16-0.17,0.31c0.09,0.54-0.09,1.01-0.41,1.45c-0.16,0.22-0.3,0.45-0.42,0.69
	c-0.23,0.45-0.56,0.81-1.06,0.99c-0.17,0.06-0.23,0.17-0.22,0.34c0.02,0.16,0.02,0.32,0,0.47c-0.08,0.58,0.01,1.06,0.7,1.26
	c0.18,0.05,0.27,0.23,0.37,0.39c0.27,0.45,0.54,0.91,0.83,1.36c0.21,0.31,0.24,0.65,0.2,1c-0.03,0.25,0.06,0.39,0.31,0.5
	c0.33,0.15,0.64,0.33,0.95,0.52c0.14,0.08,0.25,0.1,0.39,0c0.44-0.34,0.95-0.42,1.5-0.38c0.28,0.02,0.56,0.02,0.84,0
	c0.55-0.04,1.06,0.05,1.5,0.38c0.12,0.09,0.23,0.09,0.36,0.01c0.36-0.21,0.73-0.41,1.11-0.61c0.13-0.07,0.19-0.15,0.16-0.28
	c-0.1-0.57,0.11-1.06,0.44-1.53c0.14-0.19,0.27-0.4,0.37-0.61c0.23-0.47,0.57-0.82,1.08-1.02c0.16-0.06,0.21-0.15,0.21-0.32
	c-0.01-0.4-0.01-0.79,0-1.19c0-0.15-0.05-0.23-0.19-0.3c-0.29-0.15-0.61-0.26-0.8-0.55c-0.19-0.29-0.17-0.55,0.06-0.71
	c0.23-0.16,0.45-0.1,0.69,0.17c0.12,0.14,0.3,0.21,0.47,0.28c0.51,0.23,0.76,0.6,0.71,1.14
	C396.65,172.05,396.66,172.24,396.66,172.43C396.66,172.43,396.66,172.43,396.66,172.43z"/>
<path class="st0" d="M423.22,172.85c0,1.49-1.26,2.69-2.84,2.69c-1.57,0-2.83-1.21-2.83-2.7c0.01-1.48,1.26-2.67,2.82-2.67
	C421.95,170.16,423.22,171.36,423.22,172.85z"/>
<path class="st0" d="M392.91,172.42c0,1.49-1.26,2.69-2.84,2.69c-1.57,0-2.83-1.21-2.83-2.7c0.01-1.48,1.26-2.67,2.82-2.67
	C391.64,169.73,392.91,170.93,392.91,172.42z"/>
<path class="st0" d="M422.29,172.85c0,1.01-0.84,1.8-1.91,1.8c-1.05,0-1.88-0.8-1.88-1.79c0-1,0.85-1.81,1.9-1.8
	C421.45,171.07,422.28,171.86,422.29,172.85z"/>
<path class="st0" d="M391.97,172.42c0,1.01-0.84,1.8-1.91,1.8c-1.05,0-1.88-0.8-1.88-1.79c0-1,0.85-1.81,1.9-1.8
	C391.14,170.63,391.97,171.43,391.97,172.42z"/>
<path class="st7" d="M228.89,17.49h-79.71c-15.77,0-30.34,8.41-38.22,22.07L71.1,108.59c-7.88,13.65-7.88,30.48,0,44.13l39.86,69.03
	c7.88,13.65,22.45,22.07,38.22,22.07h79.71c15.77,0,30.34-8.41,38.22-22.07l39.86-69.03c7.88-13.65,7.88-30.48,0-44.13l-39.86-69.03
	C259.23,25.9,244.66,17.49,228.89,17.49z"/>
<path class="st8" d="M193.76,0H94.22c-15.88,0-30.56,8.47-38.5,22.23l-49.77,86.2c-7.94,13.76-7.94,30.7,0,44.46l49.77,86.2
	c7.94,13.76,22.62,22.23,38.5,22.23h99.53c15.88,0,30.56-8.47,38.5-22.23l49.77-86.2c7.94-13.76,7.94-30.7,0-44.46l-49.77-86.2
	C224.31,8.47,209.64,0,193.76,0z"/>
<path class="st2" d="M172.07,27.29h-62.96c-14.09,0-26.89,8.2-32.77,21.01l-38.02,82.74c-4.39,9.56-4.39,20.56,0,30.12l38.02,82.74
	c5.88,12.8,18.68,21.01,32.77,21.01h62.96c14.09,0,26.89-8.2,32.77-21.01l38.02-82.74c4.39-9.56,4.39-20.56,0-30.12L204.84,48.3
	C198.95,35.5,186.16,27.29,172.07,27.29z"/>
<text transform="matrix(1 0 0 1 43.9173 148.0522)"><tspan x="0" y="0" class="st3 st4 st9">Consideram concepções atuais </tspan><tspan x="-0.75" y="17.84" class="st3 st4 st9">de educação especial. Preveem </tspan><tspan x="18.05" y="35.69" class="st3 st4 st9">inclusão, acessibilidade e </tspan><tspan x="26.3" y="53.53" class="st3 st4 st9">respeito à diversidade.</tspan></text>
<g>
	<path class="st7" d="M106.5,120.83v-26.7h3.57v26.7H106.5z"/>
	<path class="st7" d="M92.01,120.83v-26.7h6.21c3.34,0,5.02,1.71,5.02,5.13v17.7c0,2.58-1.43,3.87-4.27,3.87H92.01z M95.58,117.59
		h2.68c0.94,0,1.41-0.4,1.41-1.19V99.3c0-1.29-0.53-1.93-1.6-1.93h-2.49V117.59z"/>
	<path class="st7" d="M159.9,95.52c0-0.47,0-1.39,0.34-1.39h1.76c2.3,0,3.86,0.12,4.68,0.37c0.82,0.25,1.48,0.88,2,1.89
		c0.51,1.01,0.77,2.63,0.77,4.85c0,2.03-0.18,3.39-0.54,4.09c-0.36,0.7-1.08,1.12-2.15,1.25c0.97,0.33,1.62,0.78,1.95,1.34
		c0.33,0.56,0.54,1.07,0.62,1.54c0.08,0.47,0.12,1.75,0.12,3.85v6.87h-3.58v-8.79c-0.17-3.45-0.5-2.54-0.65-2.87
		c0,0-1.12-0.08-1.79-0.08v11.75h-3.65L159.9,95.52z"/>
	<path class="st6" d="M163.44,97.8v6.58c0.9,0,1.54-0.12,1.9-0.36c0.36-0.24,0.54-1.01,0.54-2.31v-1.63c0-0.94-0.18-1.55-0.53-1.85
		C165,97.94,164.36,97.8,163.44,97.8z"/>
	<path class="st7" d="M137.8,104.84l-0.06-3.41c0-1.33-0.09-2.02-0.2-2.35c-0.11-0.33-0.85-1.61-2.37-1.61
		c-1.75,0-2.33,1.31-2.62,1.59c-0.14,0.13-0.34,0.7-0.33,3.29l0.05,11.29c0,0,0.09,2.63,0.31,2.96c0.25,0.37,1.28,1.3,2.59,1.35
		c1.12,0.04,2.05-0.98,2.25-1.25c0.23-0.32,0.43-2.53,0.43-2.53l0.02-3.12l3.28,0v0.31c0,2.73-0.14,4.66-0.43,5.8
		c-0.28,1.14-0.91,2.14-1.89,3c-0.97,0.86-2.17,1.29-3.6,1.29c-1.48,0-2.7-0.36-3.66-1.09c-0.96-0.73-1.6-1.73-1.91-3.02
		c-0.31-1.28-0.47-3.22-0.47-5.8v-7.69c0-1.9,0.05-3.32,0.14-4.27c0.1-0.95,0.38-1.86,0.86-2.74c0.48-0.88,1.14-1.57,1.98-2.07
		c0.84-0.5,1.82-0.76,2.91-0.76c1.49,0,2.72,0.39,3.69,1.17c0.97,0.78,1.61,1.75,1.91,2.91c0.3,1.16,0.46,2.97,0.46,5.43v1.27"/>
	<path class="st7" d="M126.23,102.48h-3.15c-0.15,0-0.28-0.14-0.28-0.31l-0.06-2.47c-0.09-1.04-0.73-1.72-0.73-1.72
		c-0.15-0.26-0.72-0.81-1.85-0.77c-1.29,0.04-1.62,0.9-1.83,1.22c-0.37,0.56-0.39,1.13-0.48,1.66c-0.09,0.52-0.21,1.65,0.16,2.33
		c0.47,0.85,1.95,1.25,2.91,1.9c2.75,1.85,3.73,3.35,4.38,4.58c0.32,0.6,0.71,1.79,0.85,2.65c0.2,1.26,0.2,2.76-0.2,5.26
		c-0.06,0.38-0.24,0.84-0.39,1.26c-0.34,0.94-0.67,1.73-1.81,2.35c-1.14,0.62-2.33,0.87-3.84,0.87c-1.65,0-2.6-0.16-3.77-0.87
		c-1.17-0.71-1.47-1.48-1.83-2.58c-0.36-1.1-0.35-2.88-0.35-4.9l0.02-1.3h2.97c0.14,0,0.25,0.12,0.26,0.28l0.13,3.05
		c0.01,0.26,0.02,0.49,0.04,0.7c0.06,0.96,0.57,1.73,1.39,2.01c0.33,0.11,0.88,0.2,1.31,0.18c0.23-0.01,0.96-0.04,1.43-0.28
		c0.6-0.3,1.14-0.8,1.2-1.55c0.03-0.32,0.08-0.74,0.1-1.25c0.1-1.77-0.22-3.38-0.5-4.07c-0.35-0.85-1.53-1.8-3.14-2.8
		c-0.85-0.53-1.35-0.84-1.65-1.02c-0.27-0.16-0.51-0.35-0.75-0.55c-0.15-0.13-0.31-0.26-0.48-0.4c-0.91-0.73-1.63-1.76-1.95-2.98
		c-0.09-0.36-0.15-0.74-0.15-1.17c0-2.07,0.19-3.45,0.65-4.41c0.47-0.96,1.19-1.97,2.23-2.51c1.04-0.54,1.66-0.74,3.13-0.74
		c1.61,0,2.5,0.19,3.63,0.78c1.13,0.59,1.55,1.19,1.92,2.08c0.37,0.89,0.48,2.21,0.48,4.36V102.48z"/>
	<path class="st7" d="M183.97,102.48h-2.71c-0.13,0-0.24-0.14-0.24-0.31l-0.05-2.47c-0.08-1.04-0.63-1.72-0.63-1.72
		c-0.13-0.26-0.62-0.81-1.59-0.77c-1.11,0.04-1.39,0.9-1.58,1.22c-0.32,0.56-0.33,1.13-0.41,1.66c-0.08,0.52-0.18,1.65,0.14,2.33
		c0.4,0.85,1.68,1.25,2.5,1.9c2.37,1.85,3.21,3.35,3.78,4.58c0.27,0.6,0.61,1.79,0.73,2.65c0.17,1.26,0.17,2.76-0.17,5.26
		c-0.05,0.38-0.2,0.84-0.33,1.26c-0.29,0.94-0.58,1.73-1.56,2.35c-0.98,0.62-2.01,0.87-3.3,0.87c-1.42,0-2.24-0.16-3.25-0.87
		c-1.01-0.71-1.26-1.48-1.58-2.58c-0.31-1.1-0.3-2.88-0.3-4.9l0.02-1.3h2.55c0.12,0,0.22,0.12,0.22,0.28l0.12,3.05
		c0.01,0.26,0.02,0.49,0.03,0.7c0.05,0.96,0.49,1.73,1.19,2.01c0.29,0.11,0.76,0.2,1.12,0.18c0.2-0.01,0.83-0.04,1.23-0.28
		c0.52-0.3,0.98-0.8,1.03-1.55c0.02-0.32,0.07-0.74,0.09-1.25c0.09-1.77-0.19-3.38-0.43-4.07c-0.3-0.85-1.32-1.8-2.71-2.8
		c-0.73-0.53-1.17-0.84-1.42-1.02c-0.23-0.16-0.44-0.35-0.65-0.55c-0.13-0.13-0.27-0.26-0.41-0.4c-0.78-0.73-1.41-1.76-1.68-2.98
		c-0.08-0.36-0.13-0.74-0.13-1.17c0-2.07,0.16-3.45,0.56-4.41c0.4-0.96,1.03-1.97,1.92-2.51c0.89-0.54,1.43-0.74,2.69-0.74
		c1.38,0,2.15,0.19,3.13,0.78c0.97,0.59,1.34,1.19,1.65,2.08c0.32,0.89,0.41,2.21,0.41,4.36V102.48z"/>
	<path class="st7" d="M156.07,93.99l0.12,17.28c0,2,0.05,4.17-0.07,4.98c-0.12,0.81-0.08,1.49-0.81,2.53
		c-0.59,0.84-1.41,1.29-1.41,1.29s-1.42,0.65-2.7,0.65c-1.42,0-2.08-0.03-3.17-0.55c-1.09-0.52-1.9-1.2-2.44-2.04
		c-0.54-0.84-0.86-1.72-0.96-2.65c-0.1-0.93-0.15-2.88-0.15-5.86V93.99h3.58l0.08,19.5c0,1.15,0.14,2.41,1.16,2.95
		c0.3,0.16,1.88,0.14,2.21,0.04c0.5-0.16,0.76-0.53,0.87-0.88s0.06-0.83,0.06-2.15V93.99H156.07z"/>
	<path class="st7" d="M199.02,109.88c0,2.66-0.05,4.55-0.14,5.65c-0.09,1.11-0.39,2.12-0.88,3.04c-0.49,0.92-1.16,1.62-2.01,2.11
		c-0.84,0.49-1.83,0.74-2.95,0.74c-1.06,0-2.02-0.23-2.87-0.7s-1.53-1.16-2.04-2.09c-0.52-0.93-0.82-1.94-0.92-3.03
		c-0.1-1.09-0.15-3-0.15-5.73v-4.53c0-2.66,0.05-4.55,0.14-5.65c0.09-1.11,0.39-2.12,0.88-3.03c0.5-0.92,1.16-1.62,2.01-2.11
		c0.84-0.49,1.82-0.74,2.95-0.74c1.06,0,2.02,0.23,2.87,0.69c0.85,0.47,1.53,1.16,2.04,2.09c0.52,0.93,0.82,1.94,0.92,3.03
		c0.1,1.09,0.15,3,0.15,5.73V109.88z M195.92,100.76c-0.24-2.59-0.73-2.66-0.73-2.66c-0.1-0.35-1.35-0.91-2.33-0.91
		c-1.16,0-2.06,0.68-2.2,0.96c-0.14,0.29-0.66,1.22-0.66,2.62v12.88c0.05,1.4,0.27,2.43,0.4,2.96c0.06,0.26,0.15,0.51,0.3,0.68
		c0.65,0.76,1.99,0.75,2.42,0.75c0.49,0.01,1.8,0.14,2.31-1.29c0.14-0.4,0.53-1.39,0.53-3L195.92,100.76z"/>
</g>
<path class="st7" d="M164.42,19.53c0.51,0.3,0.67,0.75,0.67,1.33c-0.01,16.06-0.01,32.11-0.01,48.17c0,1.01-0.31,1.32-1.31,1.33
	c-0.66,0-1.33-0.02-1.99,0.01c-0.4,0.02-0.51-0.13-0.47-0.5c0.03-0.31,0.03-0.63,0-0.94c-0.03-0.34,0.06-0.49,0.44-0.48
	c0.47,0.01,1.11,0.22,1.36-0.1c0.24-0.3,0.08-0.91,0.08-1.39c0-14.95,0-29.91,0.01-44.86c0-0.55-0.09-0.73-0.69-0.72
	c-10.87,0.02-21.74,0.02-32.61,0.01c-0.46,0-0.63,0.06-0.61,0.58c0.04,1.31,0.01,1.29-1.28,1.32c-0.47,0.01-0.64-0.09-0.6-0.59
	c0.05-0.64,0.04-1.29,0.01-1.93c-0.03-0.58,0.17-0.99,0.69-1.25C140.21,19.53,152.31,19.53,164.42,19.53z"/>
<path class="st7" d="M121.78,50.56c0-7.98,0-15.96,0-23.94c0-1.2,0.25-1.44,1.46-1.44c8.44,0,16.88,0,25.33-0.01
	c0.62,0,1.08,0.18,1.51,0.62c2.91,2.94,5.84,5.86,8.78,8.78c0.41,0.41,0.59,0.84,0.59,1.42c-0.01,12.87-0.01,25.75-0.01,38.62
	c0,1.13-0.3,1.42-1.45,1.42c-11.59,0-23.17,0-34.76,0c-1.19,0-1.45-0.26-1.45-1.46C121.78,66.56,121.78,58.56,121.78,50.56z"/>
<path class="st7" d="M123.66,50.6c0-7.65,0-15.3-0.01-22.95c0-0.47,0.09-0.61,0.59-0.61c7.76,0.02,15.52,0.02,23.29,0
	c0.49,0,0.61,0.12,0.6,0.6c-0.03,2.45-0.01,4.89-0.01,7.34c0,1.26,0.24,1.5,1.53,1.5c2.46,0,4.93,0.01,7.39-0.01
	c0.41,0,0.52,0.11,0.52,0.52c-0.01,12.21-0.01,24.42,0,36.64c0,0.42-0.11,0.52-0.52,0.52c-10.96-0.01-21.92-0.01-32.89,0
	c-0.53,0-0.49-0.24-0.49-0.6C123.66,65.9,123.66,58.25,123.66,50.6z"/>
<path class="st7" d="M150.01,28.5c2.04,2.04,4.04,4.04,6.1,6.09c-0.27,0-0.52,0-0.76,0c-1.64,0-3.27,0-4.91,0
	c-0.23,0-0.43,0.03-0.43-0.32C150.01,32.36,150.01,30.45,150.01,28.5z"/>
<path class="st6" d="M140.64,38.37c3.57,0,7.13,0.01,10.7-0.01c0.46,0,0.58,0.13,0.57,0.58c-0.03,1.31-0.01,1.31-1.32,1.31
	c-6.89,0-13.79,0-20.68,0.01c-0.46,0-0.63-0.07-0.62-0.59c0.04-1.3,0.01-1.31,1.31-1.31C133.95,38.37,137.29,38.37,140.64,38.37z"/>
<path class="st6" d="M140.58,62.82c-3.59,0-7.17-0.01-10.76,0.01c-0.45,0-0.54-0.13-0.53-0.55c0.02-1.35,0.01-1.35,1.38-1.35
	c6.88,0,13.75,0.01,20.63-0.01c0.5,0,0.61,0.13,0.6,0.61c-0.03,1.29-0.01,1.29-1.28,1.29C147.27,62.82,143.93,62.82,140.58,62.82z"
	/>
<path class="st6" d="M140.59,68.21c-3.59,0-7.17-0.01-10.76,0.01c-0.45,0-0.54-0.13-0.53-0.55c0.02-1.35,0.01-1.35,1.38-1.35
	c6.88,0,13.75,0.01,20.63-0.01c0.5,0,0.61,0.13,0.6,0.61c-0.03,1.29-0.01,1.29-1.28,1.29C147.28,68.21,143.94,68.21,140.59,68.21z"
	/>
<path class="st6" d="M140.58,45.9c-3.59,0-7.17-0.01-10.76,0.01c-0.45,0-0.54-0.13-0.53-0.55c0.02-1.35,0.01-1.35,1.38-1.35
	c6.88,0,13.75,0.01,20.63-0.01c0.5,0,0.61,0.13,0.6,0.61c-0.03,1.29-0.01,1.29-1.28,1.29C147.27,45.9,143.92,45.9,140.58,45.9z"/>
<path class="st6" d="M140.58,51.51c-3.59,0-7.17-0.01-10.76,0.01c-0.45,0-0.54-0.13-0.53-0.55c0.02-1.35,0.01-1.35,1.38-1.35
	c6.88,0,13.75,0.01,20.63-0.01c0.5,0,0.61,0.13,0.6,0.61c-0.03,1.29-0.01,1.29-1.28,1.29C147.27,51.51,143.92,51.51,140.58,51.51z"
	/>
<path class="st6" d="M140.57,57.17c-3.59,0-7.17-0.01-10.76,0.01c-0.45,0-0.54-0.13-0.53-0.55c0.02-1.35,0.01-1.35,1.38-1.35
	c6.88,0,13.75,0.01,20.63-0.01c0.5,0,0.61,0.13,0.6,0.61c-0.03,1.29-0.01,1.29-1.28,1.29C147.26,57.17,143.92,57.17,140.57,57.17z"
	/>
<path class="st6" d="M133.07,34.59c-1.1,0-2.2-0.01-3.3,0.01c-0.34,0.01-0.51-0.05-0.46-0.44c0.06-0.47-0.19-1.07,0.1-1.37
	c0.27-0.28,0.87-0.08,1.33-0.08c1.87-0.01,3.74,0.01,5.61-0.01c0.37,0,0.53,0.08,0.49,0.48c-0.04,0.45,0.14,1.05-0.09,1.33
	c-0.24,0.29-0.86,0.08-1.31,0.09C134.65,34.6,133.86,34.59,133.07,34.59z"/>
</svg>
