<?xml version="1.0" encoding="utf-8"?>
<!-- Generator: Adobe Illustrator 24.0.2, SVG Export Plug-In . SVG Version: 6.00 Build 0)  -->
<svg version="1.1" id="Camada_1" xmlns="http://www.w3.org/2000/svg" xmlns:xlink="http://www.w3.org/1999/xlink" x="0px" y="0px"
	 viewBox="0 0 290 912.13" style="enable-background:new 0 0 290 912.13;" xml:space="preserve">
<style type="text/css">
	.st0{fill:#FFFCCC;}
	.st1{fill:#DBA723;}
	.st2{fill:#444444;}
	.st3{font-family:'Livvic-SemiBold';}
	.st4{font-size:9.5075px;}
	.st5{fill:#FFEE00;}
	.st6{font-family:'Livvic-Bold';}
	.st7{font-size:25.0142px;}
	.st8{fill:#FFFFFF;}
	.st9{font-family:'Livvic-Medium';}
	.st10{font-size:10.8501px;}
</style>
<g>
	<path class="st0" d="M269.61,112.47H61.55c-10.97,0-19.87-8.89-19.87-19.87V80.29c0-10.97,8.89-19.87,19.87-19.87h208.06
		c10.97,0,19.87,8.89,19.87,19.87V92.6C289.48,103.58,280.58,112.47,269.61,112.47z"/>
	<g>
		<polyline class="st1" points="103.3,60.43 103.3,53.33 107.72,60.43 		"/>
	</g>
	<path class="st0" d="M270.13,551.08H62.07c-10.97,0-19.87-8.89-19.87-19.87V518.9c0-10.97,8.89-19.87,19.87-19.87h208.06
		c10.97,0,19.87,8.89,19.87,19.87v12.31C290,542.18,281.11,551.08,270.13,551.08z"/>
	<g>
		<polyline class="st1" points="103.82,499.03 103.82,491.93 108.24,499.03 		"/>
	</g>
	<path class="st0" d="M270.13,613.35H62.07c-10.97,0-19.87-8.89-19.87-19.87v-12.31c0-10.97,8.89-19.87,19.87-19.87h208.06
		c10.97,0,19.87,8.89,19.87,19.87v12.31C290,604.45,281.11,613.35,270.13,613.35z"/>
	<g>
		<polyline class="st1" points="103.82,561.3 103.82,554.2 108.24,561.3 		"/>
	</g>
	<path class="st0" d="M270.13,676.3H62.07c-10.97,0-19.87-8.89-19.87-19.87v-12.31c0-10.97,8.89-19.87,19.87-19.87h208.06
		c10.97,0,19.87,8.89,19.87,19.87v12.31C290,667.4,281.11,676.3,270.13,676.3z"/>
	<g>
		<polyline class="st1" points="103.82,624.25 103.82,617.15 108.24,624.25 		"/>
	</g>
	<path class="st0" d="M262.95,757.52H69.26c-14.94,0-27.05-12.11-27.05-27.05V713.7c0-14.94,12.11-27.05,27.05-27.05h193.69
		c14.94,0,27.05,12.11,27.05,27.05v16.77C290,745.41,277.89,757.52,262.95,757.52z"/>
	<g>
		<polyline class="st1" points="103.82,686.65 103.82,679.55 108.24,686.65 		"/>
	</g>
	<path class="st0" d="M270.13,821.01H62.07c-10.97,0-19.87-8.89-19.87-19.87v-12.31c0-10.97,8.89-19.87,19.87-19.87h208.06
		c10.97,0,19.87,8.89,19.87,19.87v12.31C290,812.11,281.11,821.01,270.13,821.01z"/>
	<g>
		<polyline class="st1" points="103.82,768.96 103.82,761.86 108.24,768.96 		"/>
	</g>
	<path class="st0" d="M259.85,912.13H72.35c-16.65,0-30.15-13.5-30.15-30.15v-18.69c0-16.65,13.5-30.15,30.15-30.15h187.5
		c16.65,0,30.15,13.5,30.15,30.15v18.69C290,898.63,276.5,912.13,259.85,912.13z"/>
	<g>
		<polyline class="st1" points="103.82,833.15 103.82,826.05 108.24,833.15 		"/>
	</g>
	<path class="st0" d="M269.61,175.22H61.55c-10.97,0-19.87-8.89-19.87-19.87v-12.31c0-10.97,8.89-19.87,19.87-19.87h208.06
		c10.97,0,19.87,8.89,19.87,19.87v12.31C289.48,166.33,280.58,175.22,269.61,175.22z"/>
	<g>
		<polyline class="st1" points="103.3,123.17 103.3,116.07 107.72,123.17 		"/>
	</g>
	<path class="st0" d="M269.61,237.62H61.55c-10.97,0-19.87-8.89-19.87-19.87v-12.31c0-10.97,8.89-19.87,19.87-19.87h208.06
		c10.97,0,19.87,8.89,19.87,19.87v12.31C289.48,228.73,280.58,237.62,269.61,237.62z"/>
	<g>
		<polyline class="st1" points="103.3,185.58 103.3,178.48 107.72,185.58 		"/>
	</g>
	<path class="st0" d="M269.61,299.62H61.55c-10.97,0-19.87-8.89-19.87-19.87v-12.31c0-10.97,8.89-19.87,19.87-19.87h208.06
		c10.97,0,19.87,8.89,19.87,19.87v12.31C289.48,290.72,280.58,299.62,269.61,299.62z"/>
	<g>
		<polyline class="st1" points="103.3,247.57 103.3,240.47 107.72,247.57 		"/>
	</g>
	<path class="st0" d="M269.61,363.25H61.55c-10.97,0-19.87-8.89-19.87-19.87v-12.31c0-10.97,8.89-19.87,19.87-19.87h208.06
		c10.97,0,19.87,8.89,19.87,19.87v12.31C289.48,354.36,280.58,363.25,269.61,363.25z"/>
	<g>
		<polyline class="st1" points="103.3,311.2 103.3,304.11 107.72,311.2 		"/>
	</g>
	<path class="st0" d="M269.61,425.79H61.55c-10.97,0-19.87-8.89-19.87-19.87v-12.31c0-10.97,8.89-19.87,19.87-19.87h208.06
		c10.97,0,19.87,8.89,19.87,19.87v12.31C289.48,416.9,280.58,425.79,269.61,425.79z"/>
	<g>
		<polyline class="st1" points="103.3,373.74 103.3,366.65 107.72,373.74 		"/>
	</g>
	<path class="st0" d="M269.61,488.47H61.55c-10.97,0-19.87-8.89-19.87-19.87v-12.31c0-10.97,8.89-19.87,19.87-19.87h208.06
		c10.97,0,19.87,8.89,19.87,19.87v12.31C289.48,479.58,280.58,488.47,269.61,488.47z"/>
	<g>
		<polyline class="st1" points="103.3,436.42 103.3,429.32 107.72,436.42 		"/>
	</g>
	<text transform="matrix(1 0 0 1 110.9342 83.2637)" class="st2 st3 st4">Foco em vários fatores de risco e </text>
	<text transform="matrix(1 0 0 1 110.9342 92.9737)" class="st2 st3 st4">proteção (multicompetente).</text>
	<g>
		<text transform="matrix(1 0 0 1 111.5015 138.1226)" class="st2 st3 st4">Trabalhar com a família, e não </text>
		<text transform="matrix(1 0 0 1 111.5015 147.8326)" class="st2 st3 st4">somente com os jovens ou os pais, </text>
		<text transform="matrix(1 0 0 1 111.5015 157.5526)" class="st2 st3 st4">enfatizando as forças, fatores </text>
		<text transform="matrix(1 0 0 1 111.5015 167.2626)" class="st2 st3 st4">protetores e resilência.</text>
	</g>
	<g>
		<text transform="matrix(1 0 0 1 111.5015 200.0649)" class="st2 st3 st4">Incluir na intervenção técnicas para</text>
		<text transform="matrix(1 0 0 1 111.5015 209.7749)" class="st2 st3 st4">melhorar as relações familiares, a </text>
		<text transform="matrix(1 0 0 1 111.5015 219.4949)" class="st2 st3 st4">comunicação e o monitoramento</text>
		<text transform="matrix(1 0 0 1 111.5015 229.2049)" class="st2 st3 st4">parental.</text>
	</g>
	<text transform="matrix(1 0 0 1 110.9342 269.8735)" class="st2 st3 st4">Visar a mudanças familiares em nível</text>
	<text transform="matrix(1 0 0 1 110.9342 279.5835)" class="st2 st3 st4">cognitivo, afetivo e comportamental.</text>
	<text transform="matrix(1 0 0 1 110.9322 326.1543)" class="st2 st3 st4">Aumentar a duração da intervenção </text>
	<text transform="matrix(1 0 0 1 110.9322 335.8643)" class="st2 st3 st4">para familiares expostos a maiores </text>
	<text transform="matrix(1 0 0 1 110.9322 345.5843)" class="st2 st3 st4">fatores de risco e menores fatores </text>
	<text transform="matrix(1 0 0 1 110.9322 355.2943)" class="st2 st3 st4">de proteção.</text>
	<text transform="matrix(1 0 0 1 111.5015 396.9185)" class="st2 st3 st4">Ser adequada à idade e à fase de</text>
	<text transform="matrix(1 0 0 1 111.5015 406.6285)" class="st2 st3 st4">desenvolvimento do jovem.</text>
	<text transform="matrix(1 0 0 1 111.5015 459.8345)" class="st2 st3 st4">Ser sensível às necessidades </text>
	<text transform="matrix(1 0 0 1 111.5015 469.5445)" class="st2 st3 st4">da família.</text>
	<text transform="matrix(1 0 0 1 111.7423 521.8706)" class="st2 st3 st4">Intervir precocemente em famílias</text>
	<text transform="matrix(1 0 0 1 111.7423 531.5806)" class="st2 st3 st4">disfuncionais.</text>
	<text transform="matrix(1 0 0 1 111.7423 579.1938)" class="st2 st3 st4">Adaptar a intervenção à cultura </text>
	<text transform="matrix(1 0 0 1 111.7423 588.9038)" class="st2 st3 st4">local para melhorar o recrutamento, </text>
	<text transform="matrix(1 0 0 1 111.7423 598.6238)" class="st2 st3 st4">adesão e efetividade.</text>
	<text transform="matrix(1 0 0 1 111.7423 638.6704)" class="st2 st3 st4">Incentivar a participação e incentivar </text>
	<text transform="matrix(1 0 0 1 111.7423 648.3804)" class="st2 st3 st4">a adesão através do oferecimento </text>
	<text transform="matrix(1 0 0 1 111.7423 658.1004)" class="st2 st3 st4">de transporte, lanches, premiações </text>
	<text transform="matrix(1 0 0 1 111.7423 667.8104)" class="st2 st3 st4">e certificações das famílias.</text>
	<text transform="matrix(1 0 0 1 111.7423 700.6196)" class="st2 st3 st4">Os aplicadores contribuem para </text>
	<text transform="matrix(1 0 0 1 111.7423 710.3297)" class="st2 st3 st4">a eficácia da intervenção quando </text>
	<text transform="matrix(1 0 0 1 111.7423 720.0496)" class="st2 st3 st4">são confiantes, verdadeiros, cordi-</text>
	<text transform="matrix(1 0 0 1 111.7423 729.7596)" class="st2 st3 st4">ais, bem-humorados, empáticos e </text>
	<text transform="matrix(1 0 0 1 111.7423 739.4796)" class="st2 st3 st4">capazes de estruturar as sessões </text>
	<text transform="matrix(1 0 0 1 111.7423 749.1896)" class="st2 st3 st4">e serem diretivos.</text>
	<text transform="matrix(1 0 0 1 111.7423 786.731)" class="st2 st3 st4">Ser interativos utilizando jogos e </text>
	<text transform="matrix(1 0 0 1 111.7423 796.441)" class="st2 st3 st4">atividades lúdicas, em vez de </text>
	<text transform="matrix(1 0 0 1 111.7423 806.161)" class="st2 st3 st4">adotarem o modelo de palestra.</text>
	<text transform="matrix(1 0 0 1 111.7423 851.9956)" class="st2 st3 st4">Adotar um modelo colaborativo em </text>
	<text transform="matrix(1 0 0 1 111.7423 861.7056)" class="st2 st3 st4">que as famílias sejam estimuladas </text>
	<text transform="matrix(1 0 0 1 111.7423 871.4256)" class="st2 st3 st4">a encontrar soluções para seus </text>
	<text transform="matrix(1 0 0 1 111.7423 881.1356)" class="st2 st3 st4">própriosproblemas e a refletir sobre </text>
	<text transform="matrix(1 0 0 1 111.7423 890.8556)" class="st2 st3 st4">seus relacionamentos sem que </text>
	<text transform="matrix(1 0 0 1 111.7423 900.5656)" class="st2 st3 st4">recebem respostas prontas.</text>
	<path class="st5" d="M103.82,554.2H61.09c-4.46,0-8.08,3.62-8.08,8.08v18.42h0.03c0,1.92,0.01,3.83,0.01,5.75
		c0,2.53,0.01,5.06,0.01,7.59c0,2.19,0.01,4.37,0.01,6.56c0,1.35-0.21,2.94,0.12,4.35c0.1,0.42,0.24,0.82,0.45,1.19
		c0.34,0.61,0.76,1.19,1.23,1.75c0.86,1,2.34,1.94,3.65,2.57c1.96,0.93,3.84,1.56,6.15,1.61c2.14,0.05,4.28-0.32,6.24-0.97
		c0.47-0.15,0.93-0.32,1.37-0.52c1.68-0.75,2.65-2,3.82-3.21c0.99-1.02,1.68-2.22,1.99-3.49c0.03-0.12,0.04-0.24,0.05-0.36
		c0.08-2.64-0.78-4.87-1.56-7.36c-1.1-3.52-3.15-6.93,0.9-9.4c0.58-0.35,1.21-0.67,1.92-0.83c0.52-0.11,1.06-0.14,1.6-0.14
		c2.58-0.03,6.83,0.42,7.75,3.43c0.1,0.31,0.12,0.64,0.13,0.97c0.07,2.04-0.77,3.7-0.86,5.7c-0.07,1.69,0.42,3.46,1.83,4.75
		c0.23,0.21,0.49,0.41,0.77,0.59c0.72,0.47,1.57,0.81,2.47,0.99c0.87,0.17,1.77,0.2,2.66,0.21c0.93,0.01,1.85-0.05,2.77-0.17
		c0.58-0.08,1.2-0.15,1.73-0.37c0.44-0.18,0.81-0.46,1.15-0.74c1.92-1.57,2.41-3.14,2.41-5.24c0-4.37,0-8.73,0-13.1
		c0-0.72,0-1.44,0-2.16v-7.18L103.82,554.2L103.82,554.2z"/>
	<text transform="matrix(1 0 0 1 63.6812 580.1714)" class="st1 st6 st7">09</text>
	<path class="st5" d="M103.82,617.15H61.09c-4.46,0-8.08,3.62-8.08,8.08v18.42h0.03c0,1.92,0.01,3.83,0.01,5.75
		c0,2.53,0.01,5.06,0.01,7.59c0,2.19,0.01,4.37,0.01,6.56c0,1.35-0.21,2.94,0.12,4.35c0.1,0.42,0.24,0.82,0.45,1.19
		c0.34,0.61,0.76,1.19,1.23,1.75c0.86,1,2.34,1.94,3.65,2.57c1.96,0.93,3.84,1.56,6.15,1.61c2.14,0.05,4.28-0.32,6.24-0.97
		c0.47-0.15,0.93-0.32,1.37-0.52c1.68-0.75,2.65-2,3.82-3.21c0.99-1.02,1.68-2.22,1.99-3.49c0.03-0.12,0.04-0.24,0.05-0.36
		c0.08-2.64-0.78-4.87-1.56-7.36c-1.1-3.52-3.15-6.93,0.9-9.4c0.58-0.35,1.21-0.67,1.92-0.83c0.52-0.11,1.06-0.14,1.6-0.14
		c2.58-0.03,6.83,0.42,7.75,3.43c0.1,0.31,0.12,0.64,0.13,0.97c0.07,2.04-0.77,3.7-0.86,5.7c-0.07,1.69,0.42,3.46,1.83,4.75
		c0.23,0.21,0.49,0.41,0.77,0.59c0.72,0.47,1.57,0.81,2.47,0.99c0.87,0.17,1.77,0.2,2.66,0.21c0.93,0.01,1.85-0.05,2.77-0.17
		c0.58-0.08,1.2-0.15,1.73-0.37c0.44-0.18,0.81-0.46,1.15-0.74c1.92-1.57,2.41-3.14,2.41-5.24c0-4.37,0-8.73,0-13.1
		c0-0.72,0-1.44,0-2.16v-7.18L103.82,617.15L103.82,617.15z"/>
	<text transform="matrix(1 0 0 1 63.6812 643.1206)" class="st1 st6 st7">10</text>
	<path class="st5" d="M103.82,679.54H61.09c-4.46,0-8.08,3.62-8.08,8.08v18.42h0.03c0,1.92,0.01,3.83,0.01,5.75
		c0,2.53,0.01,5.06,0.01,7.59c0,2.19,0.01,4.37,0.01,6.56c0,1.35-0.21,2.94,0.12,4.35c0.1,0.42,0.24,0.82,0.45,1.19
		c0.34,0.61,0.76,1.19,1.23,1.75c0.86,1,2.34,1.94,3.65,2.57c1.96,0.93,3.84,1.56,6.15,1.61c2.14,0.05,4.28-0.32,6.24-0.97
		c0.47-0.15,0.93-0.32,1.37-0.52c1.68-0.75,2.65-2,3.82-3.21c0.99-1.02,1.68-2.22,1.99-3.49c0.03-0.12,0.04-0.24,0.05-0.36
		c0.08-2.64-0.78-4.87-1.56-7.36c-1.1-3.52-3.15-6.93,0.9-9.4c0.58-0.35,1.21-0.67,1.92-0.83c0.52-0.11,1.06-0.14,1.6-0.14
		c2.58-0.03,6.83,0.42,7.75,3.43c0.1,0.31,0.12,0.64,0.13,0.97c0.07,2.04-0.77,3.7-0.86,5.7c-0.07,1.69,0.42,3.46,1.83,4.75
		c0.23,0.21,0.49,0.41,0.77,0.59c0.72,0.47,1.57,0.81,2.47,0.99c0.87,0.17,1.77,0.2,2.66,0.21c0.93,0.01,1.85-0.05,2.77-0.17
		c0.58-0.08,1.2-0.15,1.73-0.37c0.44-0.18,0.81-0.46,1.15-0.74c1.92-1.57,2.41-3.14,2.41-5.24c0-4.37,0-8.73,0-13.1
		c0-0.72,0-1.44,0-2.16v-7.18L103.82,679.54L103.82,679.54z"/>
	<text transform="matrix(1 0 0 1 63.6812 705.5122)" class="st1 st6 st7">11</text>
	<path class="st5" d="M103.82,761.86H61.08c-4.46,0-8.08,3.62-8.08,8.08v18.42h0.03c0,1.92,0.01,3.83,0.01,5.75
		c0,2.53,0.01,5.06,0.01,7.59c0,2.19,0.01,4.37,0.01,6.56c0,1.35-0.21,2.94,0.12,4.35c0.1,0.42,0.24,0.82,0.45,1.19
		c0.34,0.61,0.76,1.19,1.23,1.75c0.86,1,2.34,1.94,3.65,2.57c1.96,0.93,3.84,1.56,6.15,1.61c2.14,0.05,4.28-0.32,6.24-0.97
		c0.47-0.15,0.93-0.32,1.37-0.52c1.68-0.75,2.65-2,3.82-3.21c0.99-1.02,1.68-2.22,1.99-3.49c0.03-0.12,0.04-0.24,0.05-0.36
		c0.08-2.64-0.78-4.87-1.56-7.36c-1.1-3.52-3.15-6.93,0.9-9.4c0.58-0.35,1.21-0.67,1.92-0.83c0.52-0.11,1.06-0.14,1.6-0.14
		c2.58-0.03,6.83,0.42,7.75,3.43c0.1,0.31,0.12,0.64,0.13,0.97c0.07,2.04-0.77,3.7-0.86,5.7c-0.07,1.69,0.42,3.46,1.83,4.75
		c0.23,0.21,0.49,0.41,0.77,0.59c0.72,0.47,1.57,0.81,2.47,0.99c0.87,0.17,1.77,0.2,2.66,0.21c0.93,0.01,1.85-0.05,2.77-0.17
		c0.58-0.08,1.2-0.15,1.73-0.37c0.44-0.18,0.81-0.46,1.15-0.74c1.92-1.57,2.41-3.14,2.41-5.24c0-4.37,0-8.73,0-13.1
		c0-0.72,0-1.44,0-2.16v-7.18v-19.27H103.82z"/>
	<text transform="matrix(1 0 0 1 63.6773 787.8325)" class="st1 st6 st7">12</text>
	<path class="st5" d="M103.8,825.99H61.07c-4.46,0-8.08,3.62-8.08,8.08v18.42h0.03c0,1.92,0.01,3.83,0.01,5.75
		c0,2.53,0.01,5.06,0.01,7.59c0,2.19,0.01,4.37,0.01,6.56c0,1.35-0.21,2.94,0.12,4.35c0.1,0.42,0.24,0.82,0.45,1.19
		c0.34,0.61,0.76,1.19,1.23,1.75c0.86,1,2.34,1.94,3.65,2.57c1.96,0.93,3.84,1.56,6.15,1.61c2.14,0.05,4.28-0.32,6.24-0.97
		c0.47-0.15,0.93-0.32,1.37-0.52c1.68-0.75,2.65-2,3.82-3.21c0.99-1.02,1.68-2.22,1.99-3.49c0.03-0.12,0.04-0.24,0.05-0.36
		c0.08-2.64-0.78-4.87-1.56-7.36c-1.1-3.52-3.15-6.93,0.9-9.4c0.58-0.35,1.21-0.67,1.92-0.83c0.52-0.11,1.06-0.14,1.6-0.14
		c2.58-0.03,6.83,0.42,7.75,3.43c0.1,0.31,0.12,0.64,0.13,0.97c0.07,2.04-0.77,3.7-0.86,5.7c-0.07,1.69,0.42,3.46,1.83,4.75
		c0.23,0.21,0.49,0.41,0.77,0.59c0.72,0.47,1.57,0.81,2.47,0.99c0.87,0.17,1.77,0.2,2.66,0.21c0.93,0.01,1.85-0.05,2.77-0.17
		c0.58-0.08,1.2-0.15,1.73-0.37c0.44-0.18,0.81-0.46,1.15-0.74c1.92-1.57,2.41-3.14,2.41-5.24c0-4.37,0-8.73,0-13.1
		c0-0.72,0-1.44,0-2.16v-7.18v-19.27H103.8z"/>
	<text transform="matrix(1 0 0 1 63.6607 851.9624)" class="st1 st6 st7">13</text>
	<path class="st5" d="M103.75,491.93H61.01c-4.46,0-8.08,3.62-8.08,8.08v18.42h0.03c0,1.92,0.01,3.83,0.01,5.75
		c0,2.53,0.01,5.06,0.01,7.59c0,2.19,0.01,4.37,0.01,6.56c0,1.35-0.21,2.94,0.12,4.35c0.1,0.42,0.24,0.82,0.45,1.19
		c0.34,0.61,0.76,1.19,1.23,1.75c0.86,1,2.34,1.94,3.65,2.57c1.96,0.93,3.84,1.56,6.15,1.61c2.14,0.05,4.28-0.32,6.24-0.97
		c0.47-0.15,0.93-0.32,1.37-0.52c1.68-0.75,2.65-2,3.82-3.21c0.99-1.02,1.68-2.22,1.99-3.49c0.03-0.12,0.04-0.24,0.05-0.36
		c0.08-2.64-0.78-4.87-1.56-7.36c-1.1-3.52-3.15-6.93,0.9-9.4c0.58-0.35,1.21-0.67,1.92-0.83c0.52-0.11,1.06-0.14,1.6-0.14
		c2.58-0.03,6.83,0.42,7.75,3.43c0.1,0.31,0.12,0.64,0.13,0.97c0.07,2.04-0.77,3.7-0.86,5.7c-0.07,1.69,0.42,3.46,1.83,4.75
		c0.23,0.21,0.49,0.41,0.77,0.59c0.72,0.47,1.57,0.81,2.47,0.99c0.87,0.17,1.77,0.2,2.66,0.21c0.93,0.01,1.85-0.05,2.77-0.17
		c0.58-0.08,1.2-0.15,1.73-0.37c0.44-0.18,0.81-0.46,1.15-0.74c1.92-1.57,2.41-3.14,2.41-5.24c0-4.37,0-8.73,0-13.1
		c0-0.72,0-1.44,0-2.16v-7.18v-19.27H103.75z"/>
	<text transform="matrix(1 0 0 1 63.607 517.9038)" class="st1 st6 st7">08</text>
	<path class="st5" d="M103.3,53.33H60.56c-4.46,0-8.08,3.62-8.08,8.08v18.42h0.03c0,1.92,0.01,3.83,0.01,5.75
		c0,2.53,0.01,5.06,0.01,7.59c0,2.19,0.01,4.37,0.01,6.56c0,1.35-0.21,2.94,0.12,4.35c0.1,0.42,0.24,0.82,0.45,1.19
		c0.34,0.61,0.76,1.19,1.23,1.75c0.86,1,2.34,1.94,3.65,2.57c1.96,0.93,3.84,1.56,6.15,1.61c2.14,0.05,4.28-0.32,6.24-0.97
		c0.47-0.15,0.93-0.32,1.37-0.52c1.68-0.75,2.65-2,3.82-3.21c0.99-1.02,1.68-2.22,1.99-3.49c0.03-0.12,0.04-0.24,0.05-0.36
		c0.08-2.64-0.78-4.87-1.56-7.36c-1.1-3.52-3.15-6.93,0.9-9.4c0.58-0.35,1.21-0.67,1.92-0.83c0.52-0.11,1.06-0.14,1.6-0.14
		c2.58-0.03,6.83,0.42,7.75,3.43c0.1,0.31,0.12,0.64,0.13,0.97c0.07,2.04-0.77,3.7-0.86,5.7c-0.07,1.69,0.42,3.46,1.83,4.75
		c0.23,0.21,0.49,0.41,0.77,0.59c0.72,0.47,1.57,0.81,2.47,0.99c0.87,0.17,1.77,0.2,2.66,0.21c0.93,0.01,1.85-0.05,2.77-0.17
		c0.58-0.08,1.2-0.15,1.73-0.37c0.44-0.18,0.81-0.46,1.15-0.74c1.92-1.57,2.41-3.14,2.41-5.24c0-4.37,0-8.73,0-13.1
		c0-0.72,0-1.44,0-2.16V72.6V53.33H103.3z"/>
	<text transform="matrix(1 0 0 1 63.1583 79.3003)" class="st1 st6 st7">01</text>
	<path class="st5" d="M103.3,115.9H60.56c-4.46,0-8.08,3.62-8.08,8.08v18.42h0.03c0,1.92,0.01,3.83,0.01,5.75
		c0,2.53,0.01,5.06,0.01,7.59c0,2.19,0.01,4.37,0.01,6.56c0,1.35-0.21,2.94,0.12,4.35c0.1,0.42,0.24,0.82,0.45,1.19
		c0.34,0.61,0.76,1.19,1.23,1.75c0.86,1,2.34,1.94,3.65,2.57c1.96,0.93,3.84,1.56,6.15,1.61c2.14,0.05,4.28-0.32,6.24-0.97
		c0.47-0.15,0.93-0.32,1.37-0.52c1.68-0.75,2.65-2,3.82-3.21c0.99-1.02,1.68-2.22,1.99-3.49c0.03-0.12,0.04-0.24,0.05-0.36
		c0.08-2.64-0.78-4.87-1.56-7.36c-1.1-3.52-3.15-6.93,0.9-9.4c0.58-0.35,1.21-0.67,1.92-0.83c0.52-0.11,1.06-0.14,1.6-0.14
		c2.58-0.03,6.83,0.42,7.75,3.43c0.1,0.31,0.12,0.64,0.13,0.97c0.07,2.04-0.77,3.7-0.86,5.7c-0.07,1.69,0.42,3.46,1.83,4.75
		c0.23,0.21,0.49,0.41,0.77,0.59c0.72,0.47,1.57,0.81,2.47,0.99c0.87,0.17,1.77,0.2,2.66,0.21c0.93,0.01,1.85-0.05,2.77-0.17
		c0.58-0.08,1.2-0.15,1.73-0.37c0.44-0.18,0.81-0.46,1.15-0.74c1.92-1.57,2.41-3.14,2.41-5.24c0-4.37,0-8.73,0-13.1
		c0-0.72,0-1.44,0-2.16v-7.18V115.9H103.3z"/>
	<text transform="matrix(1 0 0 1 63.1583 141.8735)" class="st1 st6 st7">02</text>
	<path class="st5" d="M103.3,178.19H60.56c-4.46,0-8.08,3.62-8.08,8.08v18.42h0.03c0,1.92,0.01,3.83,0.01,5.75
		c0,2.53,0.01,5.06,0.01,7.59c0,2.19,0.01,4.37,0.01,6.56c0,1.35-0.21,2.94,0.12,4.35c0.1,0.42,0.24,0.82,0.45,1.19
		c0.34,0.61,0.76,1.19,1.23,1.75c0.86,1,2.34,1.94,3.65,2.57c1.96,0.93,3.84,1.56,6.15,1.61c2.14,0.05,4.28-0.32,6.24-0.97
		c0.47-0.15,0.93-0.32,1.37-0.52c1.68-0.75,2.65-2,3.82-3.21c0.99-1.02,1.68-2.22,1.99-3.49c0.03-0.12,0.04-0.24,0.05-0.36
		c0.08-2.64-0.78-4.87-1.56-7.36c-1.1-3.52-3.15-6.93,0.9-9.4c0.58-0.35,1.21-0.67,1.92-0.83c0.52-0.11,1.06-0.14,1.6-0.14
		c2.58-0.03,6.83,0.42,7.75,3.43c0.1,0.31,0.12,0.64,0.13,0.97c0.07,2.04-0.77,3.7-0.86,5.7c-0.07,1.69,0.42,3.46,1.83,4.75
		c0.23,0.21,0.49,0.41,0.77,0.59c0.72,0.47,1.57,0.81,2.47,0.99c0.87,0.17,1.77,0.2,2.66,0.21c0.93,0.01,1.85-0.05,2.77-0.17
		c0.58-0.08,1.2-0.15,1.73-0.37c0.44-0.18,0.81-0.46,1.15-0.74c1.92-1.57,2.41-3.14,2.41-5.24c0-4.37,0-8.73,0-13.1
		c0-0.72,0-1.44,0-2.16v-7.18v-19.27H103.3z"/>
	<text transform="matrix(1 0 0 1 63.1583 204.1577)" class="st1 st6 st7">03</text>
	<path class="st5" d="M103.3,240.5H60.56c-4.46,0-8.08,3.62-8.08,8.08V267h0.03c0,1.92,0.01,3.83,0.01,5.75
		c0,2.53,0.01,5.06,0.01,7.59c0,2.19,0.01,4.37,0.01,6.56c0,1.35-0.21,2.94,0.12,4.35c0.1,0.42,0.24,0.82,0.45,1.19
		c0.34,0.61,0.76,1.19,1.23,1.75c0.86,1,2.34,1.94,3.65,2.57c1.96,0.93,3.84,1.56,6.15,1.61c2.14,0.05,4.28-0.32,6.24-0.97
		c0.47-0.15,0.93-0.32,1.37-0.52c1.68-0.75,2.65-2,3.82-3.21c0.99-1.02,1.68-2.22,1.99-3.49c0.03-0.12,0.04-0.24,0.05-0.36
		c0.08-2.64-0.78-4.87-1.56-7.36c-1.1-3.52-3.15-6.93,0.9-9.4c0.58-0.35,1.21-0.67,1.92-0.83c0.52-0.11,1.06-0.14,1.6-0.14
		c2.58-0.03,6.83,0.42,7.75,3.43c0.1,0.31,0.12,0.64,0.13,0.97c0.07,2.04-0.77,3.7-0.86,5.7c-0.07,1.69,0.42,3.46,1.83,4.75
		c0.23,0.21,0.49,0.41,0.77,0.59c0.72,0.47,1.57,0.81,2.47,0.99c0.87,0.17,1.77,0.2,2.66,0.21c0.93,0.01,1.85-0.05,2.77-0.17
		c0.58-0.08,1.2-0.15,1.73-0.37c0.44-0.18,0.81-0.46,1.15-0.74c1.92-1.57,2.41-3.14,2.41-5.24c0-4.37,0-8.73,0-13.1
		c0-0.72,0-1.44,0-2.16v-7.18V240.5H103.3z"/>
	<text transform="matrix(1 0 0 1 63.1583 266.4731)" class="st1 st6 st7">04</text>
	<path class="st5" d="M103.3,304.1H60.56c-4.46,0-8.08,3.62-8.08,8.08v18.42h0.03c0,1.92,0.01,3.83,0.01,5.75
		c0,2.53,0.01,5.06,0.01,7.59c0,2.19,0.01,4.37,0.01,6.56c0,1.35-0.21,2.94,0.12,4.35c0.1,0.42,0.24,0.82,0.45,1.19
		c0.34,0.61,0.76,1.19,1.23,1.75c0.86,1,2.34,1.94,3.65,2.57c1.96,0.93,3.84,1.56,6.15,1.61c2.14,0.05,4.28-0.32,6.24-0.97
		c0.47-0.15,0.93-0.32,1.37-0.52c1.68-0.75,2.65-2,3.82-3.21c0.99-1.02,1.68-2.22,1.99-3.49c0.03-0.12,0.04-0.24,0.05-0.36
		c0.08-2.64-0.78-4.87-1.56-7.36c-1.1-3.52-3.15-6.93,0.9-9.4c0.58-0.35,1.21-0.67,1.92-0.83c0.52-0.11,1.06-0.14,1.6-0.14
		c2.58-0.03,6.83,0.42,7.75,3.43c0.1,0.31,0.12,0.64,0.13,0.97c0.07,2.04-0.77,3.7-0.86,5.7c-0.07,1.69,0.42,3.46,1.83,4.75
		c0.23,0.21,0.49,0.41,0.77,0.59c0.72,0.47,1.57,0.81,2.47,0.99c0.87,0.17,1.77,0.2,2.66,0.21c0.93,0.01,1.85-0.05,2.77-0.17
		c0.58-0.08,1.2-0.15,1.73-0.37c0.44-0.18,0.81-0.46,1.15-0.74c1.92-1.57,2.41-3.14,2.41-5.24c0-4.37,0-8.73,0-13.1
		c0-0.72,0-1.44,0-2.16v-7.18V304.1H103.3z"/>
	<text transform="matrix(1 0 0 1 63.1583 330.0757)" class="st1 st6 st7">05</text>
	<path class="st5" d="M103.3,366.71H60.56c-4.46,0-8.08,3.62-8.08,8.08v18.42h0.03c0,1.92,0.01,3.83,0.01,5.75
		c0,2.53,0.01,5.06,0.01,7.59c0,2.19,0.01,4.37,0.01,6.56c0,1.35-0.21,2.94,0.12,4.35c0.1,0.42,0.24,0.82,0.45,1.19
		c0.34,0.61,0.76,1.19,1.23,1.75c0.86,1,2.34,1.94,3.65,2.57c1.96,0.93,3.84,1.56,6.15,1.61c2.14,0.05,4.28-0.32,6.24-0.97
		c0.47-0.15,0.93-0.32,1.37-0.52c1.68-0.75,2.65-2,3.82-3.21c0.99-1.02,1.68-2.22,1.99-3.49c0.03-0.12,0.04-0.24,0.05-0.36
		c0.08-2.64-0.78-4.87-1.56-7.36c-1.1-3.52-3.15-6.93,0.9-9.4c0.58-0.35,1.21-0.67,1.92-0.83c0.52-0.11,1.06-0.14,1.6-0.14
		c2.58-0.03,6.83,0.42,7.75,3.43c0.1,0.31,0.12,0.64,0.13,0.97c0.07,2.04-0.77,3.7-0.86,5.7c-0.07,1.69,0.42,3.46,1.83,4.75
		c0.23,0.21,0.49,0.41,0.77,0.59c0.72,0.47,1.57,0.81,2.47,0.99c0.87,0.17,1.77,0.2,2.66,0.21c0.93,0.01,1.85-0.05,2.77-0.17
		c0.58-0.08,1.2-0.15,1.73-0.37c0.44-0.18,0.81-0.46,1.15-0.74c1.92-1.57,2.41-3.14,2.41-5.24c0-4.37,0-8.73,0-13.1
		c0-0.72,0-1.44,0-2.16v-7.18v-19.27H103.3z"/>
	<text transform="matrix(1 0 0 1 63.1583 392.6831)" class="st1 st6 st7">06</text>
	<path class="st5" d="M103.3,429.32H60.56c-4.46,0-8.08,3.62-8.08,8.08v18.42h0.03c0,1.92,0.01,3.83,0.01,5.75
		c0,2.53,0.01,5.06,0.01,7.59c0,2.19,0.01,4.37,0.01,6.56c0,1.35-0.21,2.94,0.12,4.35c0.1,0.42,0.24,0.82,0.45,1.19
		c0.34,0.61,0.76,1.19,1.23,1.75c0.86,1,2.34,1.94,3.65,2.57c1.96,0.93,3.84,1.56,6.15,1.61c2.14,0.05,4.28-0.32,6.24-0.97
		c0.47-0.15,0.93-0.32,1.37-0.52c1.68-0.75,2.65-2,3.82-3.21c0.99-1.02,1.68-2.22,1.99-3.49c0.03-0.12,0.04-0.24,0.05-0.36
		c0.08-2.64-0.78-4.87-1.56-7.36c-1.1-3.52-3.15-6.93,0.9-9.4c0.58-0.35,1.21-0.67,1.92-0.83c0.52-0.11,1.06-0.14,1.6-0.14
		c2.58-0.03,6.83,0.42,7.75,3.43c0.1,0.31,0.12,0.64,0.13,0.97c0.07,2.04-0.77,3.7-0.86,5.7c-0.07,1.69,0.42,3.46,1.83,4.75
		c0.23,0.21,0.49,0.41,0.77,0.59c0.72,0.47,1.57,0.81,2.47,0.99c0.87,0.17,1.77,0.2,2.66,0.21c0.93,0.01,1.85-0.05,2.77-0.17
		c0.58-0.08,1.2-0.15,1.73-0.37c0.44-0.18,0.81-0.46,1.15-0.74c1.92-1.57,2.41-3.14,2.41-5.24c0-4.37,0-8.73,0-13.1
		c0-0.72,0-1.44,0-2.16v-7.18v-19.27H103.3z"/>
	<text transform="matrix(1 0 0 1 63.1583 455.2944)" class="st1 st6 st7">07</text>
	<path class="st1" d="M148.65,23.98c-0.62-1.25-0.43-2.55-0.24-3.8c0.1-0.67,0.2-1.37,0.18-2.05c-0.03-0.93-0.29-1.9-3.06-2.61
		c-2.58-0.66-6.69-0.9-9.98-1.1c-6.14-0.36-12.08-0.32-18.38-0.27c-1.46,0.01-2.97,0.02-4.48,0.03h-0.11
		c-7.04,0.02-32.99,0.05-40.15,0.05H24.77c-4.59,0-9.93,0.06-14.66,0.5c-2.03,0.19-4.34,0.39-6.25,1.06
		c-1.79,0.62-2.23,1.82-2.55,3.36c-0.19,0.89-0.37,1.78-0.56,2.67c-0.35,1.71-0.7,3.5-0.07,5.15c0.17,0.44,0.41,0.87,0.82,1.18
		c0.4,0.3,0.91,0.46,1.42,0.6c3.84,1.07,8.17,1.23,12.17,1.25c16.08,0.05,31.8,0.09,47.36,0.08c7.27-0.01,14.67,0.05,21.82,0.11
		c6.84,0.06,13.87,0.11,20.87,0.11c1.34,0,2.69,0,4.03-0.01c7.45-0.03,14.03-0.07,20.11-0.12c0.44,0,0.87-0.01,1.3-0.01
		c5.23-0.04,9.74-0.08,13.98-1.02c2.54-0.57,4-1.38,4.47-2.48C149.42,25.76,149.08,24.84,148.65,23.98z"/>
	<g>
		<text transform="matrix(1 0 0 1 4.6182 25.4961)" class="st8 st9 st10">de intervenção com famílias</text>
	</g>
	<text transform="matrix(1 0 0 1 0.4342 9.2769)" class="st1 st6 st10">ASPECTOS CENTRAIS PARA O SUCESSO</text>
</g>
</svg>
