<?xml version="1.0" encoding="utf-8"?>
<!-- Generator: Adobe Illustrator 24.0.2, SVG Export Plug-In . SVG Version: 6.00 Build 0)  -->
<svg version="1.1" id="Camada_1" xmlns="http://www.w3.org/2000/svg" xmlns:xlink="http://www.w3.org/1999/xlink" x="0px" y="0px"
	 viewBox="0 0 290 471.52" style="enable-background:new 0 0 290 471.52;" xml:space="preserve">
<style type="text/css">
	.st0{fill:#DBA723;}
	.st1{font-family:'Livvic-Bold';}
	.st2{font-size:13.677px;}
	.st3{fill:#F7F7F6;}
	.st4{font-family:'Livvic-Medium';}
	.st5{opacity:0.2;fill:#1D262D;enable-background:new    ;}
	.st6{fill:#FCFAE8;}
	.st7{fill:#FCCC69;}
	.st8{opacity:0.2;clip-path:url(#SVGID_2_);fill:#CD2C3A;enable-background:new    ;}
	.st9{fill:#FFEE00;}
	.st10{fill:#FFFFFF;}
	.st11{fill:#6E6E6E;}
	.st12{font-family:'Livvic-SemiBold';}
	.st13{font-size:10.9416px;}
</style>
<g>
	<text transform="matrix(1 0 0 1 5.3518 11.6938)" class="st0 st1 st2">CHECKLIST DE</text>
</g>
<path class="st0" d="M146.61,29.3c-0.6-1.57-0.42-3.19-0.24-4.76c0.1-0.84,0.2-1.71,0.18-2.57c-0.03-1.17-0.28-2.38-2.98-3.27
	c-2.52-0.83-6.53-1.13-9.75-1.37c-5.99-0.45-11.8-0.4-17.95-0.34c-1.43,0.01-2.91,0.03-4.37,0.03h-0.1
	c-6.88,0.03-32.23,0.06-39.22,0.06H25.6c-4.49,0-9.7,0.07-14.32,0.62c-1.26,0.15-2.5,0.49-3.74,0.58C6.4,18.37,5.2,18.46,4.4,19.46
	c-0.63,0.79-0.77,1.88-0.89,2.91c-0.37,3.28-0.74,6.56-1.11,9.85c-0.11,0.94-0.19,1.98,0.32,2.75c0.87,1.33,3,1.33,4.35,1.49
	c2.92,0.35,6.2,0.37,9.09,0.38c15.7,0.06,31.06,0.11,46.26,0.1c7.1-0.01,14.33,0.07,21.32,0.14c6.68,0.07,13.55,0.14,20.38,0.14
	c1.31,0,2.63,0,3.94-0.01c7.27-0.03,13.7-0.08,19.65-0.15c0.43-0.01,0.85-0.01,1.27-0.01c5.11-0.05,9.52-0.1,13.65-1.28
	c2.48-0.71,3.91-1.73,4.37-3.11C147.36,31.53,147.03,30.38,146.61,29.3z"/>
<text transform="matrix(1 0 0 1 6.8577 31.7358)" class="st3 st4 st2">habilidades parentais</text>
<g>
	<g>
		<g>
			<g>
				<path class="st0" d="M285.82,465.18c-0.29,0.6-0.63,1.12-1.03,1.54c-3.09,3.2-20.08,3.52-24.57,3.65
					c-50,1.5-100.05,1.52-150.06,0.05c-25.4-0.74-50.79-1.87-76.15-3.38C22.4,466.36,1.19,472.63,0.73,457
					c-0.58-19.83,1.28-40.02,1.74-59.87c0.92-39.92,1.38-79.85,1.36-119.78c-0.02-43.95-0.69-87.81-0.69-131.79
					c-0.03-9.6-0.09-19.19-0.19-28.79C2.86,109.21-0.24,94.81,2.5,87.9c2.5-6.31,9.73-4.35,14.89-4.2
					c8.19,0.24,16.38,0.33,24.57,0.53c16.76,0.42,33.56,0.78,50.28-0.56c25.35-2.03,51.14-0.4,76.67-2.23
					c8.2-0.59,17.2,1.79,25.42,2.47c9.39,0.77,18.8,1.23,28.21,1.36c11.82,0.17,23.66-0.16,35.45-1c6.07-0.43,24.84-5.92,29.45-0.46
					c3.42,4.06-0.77,30.89-0.77,37.07c0,15.91,0,31.82,0,47.73c0,69.24,1.78,137.87,0.8,207.26c-0.3,21.52-0.61,43.04-0.91,64.56
					C286.49,446.06,288.56,459.44,285.82,465.18z"/>
				<path class="st5" d="M261.02,452.62H28.98c-5.59,0-10.12-4.53-10.12-10.12V119.18c0-5.59,4.53-10.12,10.12-10.12h232.04
					c5.59,0,10.12,4.53,10.12,10.12V442.5C271.14,448.09,266.61,452.62,261.02,452.62z"/>
				<path class="st6" d="M257.7,444.66c-12.91,3.73-25.92,2.09-39.36,2.09c-16.16,0-32.33,0-48.49,0c-23.85,0-47.7,0-71.55,0
					c-20.81,0-42.33,1.44-62.91-0.92c-3.48-0.4-7.02-0.81-10.25-2.17s-6.18-3.8-7.31-7.12c-0.56-1.64-0.65-3.4-0.62-5.13
					c0.05-2.8,0.39-5.59,0.73-8.38c0.46-3.7,0.99-7.39,1.37-11.1c0.28-2.79-0.4-5.23-0.45-8c-0.14-7.27,0-14.57,0-21.84
					c0-29.09,0-58.18,0-87.27c0-31.26,0-62.52,0-93.79c0-13.16,0-26.31,0-39.47c0-14.64-1.62-29.6,0.15-44.09
					c0.69-5.63,2.55-12.13,7.88-14.08c1.83-0.67,3.82-0.68,5.77-0.67c19.01,0,38.02,0.01,57.03,0.01
					c43.52,0.01,87.3-0.17,130.89,0.63c10.15,0.18,20.31,0.37,30.46,0.55c6.14,0.11,13.16,0.65,16.86,5.55
					c3.21,4.25,2.53,9.83,2.78,14.82c0.22,4.38,0.58,8.36,0.46,12.74c-0.13,4.68,0,9.38,0,14.06c0,11.98,0,23.95,0,35.93
					c0,30.02,0,60.03,0,90.05c0,21.73-0.58,43.57-0.16,65.19c0.43,22.39-3.99,44.66-2.19,67.05c0.65,8.08,1.58,15.54,0.72,23.55
					c-0.26,2.45-0.6,5.03-2.13,6.96c-1.32,1.67-3.34,2.6-5.32,3.37C260.62,443.75,259.16,444.24,257.7,444.66z"/>
				<path class="st7" d="M0,99.72V85c0-1.69,1.37-3.05,3.05-3.05h14.72c2.72,0,4.08,3.29,2.16,5.21L5.21,101.87
					C3.29,103.8,0,102.44,0,99.72z"/>
				<path class="st7" d="M290,96.98V82.27c0-1.69-1.37-3.05-3.05-3.05h-14.72c-2.72,0-4.08,3.29-2.16,5.21l14.72,14.72
					C286.71,101.06,290,99.7,290,96.98z"/>
				<path class="st7" d="M0,451.21v14.72c0,1.69,1.37,3.05,3.05,3.05h14.72c2.72,0,4.08-3.29,2.16-5.21L5.21,449.05
					C3.29,447.13,0,448.49,0,451.21z"/>
				<path class="st7" d="M290,451.21v14.72c0,1.69-1.37,3.05-3.05,3.05h-14.72c-2.72,0-4.08-3.29-2.16-5.21l14.72-14.72
					C286.71,447.13,290,448.49,290,451.21z"/>
			</g>
			<path class="st7" d="M145,92.66L145,92.66c-9.92,0-17.96,4.59-17.96-5.33v-1.52c0-9.92,8.04-17.96,17.96-17.96l0,0
				c9.92,0,17.96,8.04,17.96,17.96v1.52C162.96,97.25,154.92,92.66,145,92.66z"/>
			<path class="st5" d="M189.11,115.52h-88.23c-1.54,0-2.79-1.25-2.79-2.79v-2.86c0-1.54,1.25-2.79,2.79-2.79h88.23
				c1.54,0,2.79,1.25,2.79,2.79v2.86C191.91,114.27,190.66,115.52,189.11,115.52z"/>
			<g>
				<g>
					<path id="XMLID_1_" class="st7" d="M189.98,112.05h-89.96c-2.47,0-4.48-2-4.48-4.48v-24.3c0-2.47,2-4.48,4.48-4.48h89.96
						c2.47,0,4.48,2,4.48,4.48v24.3C194.46,110.04,192.45,112.05,189.98,112.05z"/>
				</g>
				<g>
					<defs>
						<path id="SVGID_1_" d="M189.98,112.05h-89.96c-2.47,0-4.48-2-4.48-4.48v-24.3c0-2.47,2-4.48,4.48-4.48h89.96
							c2.47,0,4.48,2,4.48,4.48v24.3C194.46,110.04,192.45,112.05,189.98,112.05z"/>
					</defs>
					<clipPath id="SVGID_2_">
						<use xlink:href="#SVGID_1_"  style="overflow:visible;"/>
					</clipPath>
					<rect x="85.66" y="97.06" class="st8" width="121.31" height="19.06"/>
				</g>
			</g>
			<g>
				<g>
					<path class="st9" d="M76.53,201.36H46.17c-1.15,0-2.08-0.93-2.08-2.08v-30.36c0-1.15,0.93-2.08,2.08-2.08h30.36
						c1.15,0,2.08,0.93,2.08,2.08v30.36C78.61,200.43,77.68,201.36,76.53,201.36z"/>
					<path class="st9" d="M80.5,205.02H42.21c-0.98,0-1.77-0.79-1.77-1.77v-38.29c0-0.98,0.79-1.77,1.77-1.77H80.5
						c0.98,0,1.77,0.79,1.77,1.77v38.29C82.27,204.23,81.47,205.02,80.5,205.02z M43.47,203.76h35.76c0.98,0,1.77-0.79,1.77-1.77
						v-35.77c0-0.98-0.79-1.77-1.77-1.77H43.47c-0.98,0-1.77,0.79-1.77,1.77v35.77C41.7,202.96,42.49,203.76,43.47,203.76z"/>
				</g>
				<g>
					<path class="st9" d="M76.53,254.25H46.17c-1.15,0-2.08-0.93-2.08-2.08v-30.36c0-1.15,0.93-2.08,2.08-2.08h30.36
						c1.15,0,2.08,0.93,2.08,2.08v30.36C78.61,253.32,77.68,254.25,76.53,254.25z"/>
					<path class="st9" d="M80.5,257.9H42.21c-0.98,0-1.77-0.79-1.77-1.77v-38.29c0-0.98,0.79-1.77,1.77-1.77H80.5
						c0.98,0,1.77,0.79,1.77,1.77v38.29C82.27,257.11,81.47,257.9,80.5,257.9z M43.47,256.64h35.76c0.98,0,1.77-0.79,1.77-1.77
						V219.1c0-0.98-0.79-1.77-1.77-1.77H43.47c-0.98,0-1.77,0.79-1.77,1.77v35.77C41.7,255.85,42.49,256.64,43.47,256.64z"/>
				</g>
				<g>
					<path class="st9" d="M76.53,307.13H46.17c-1.15,0-2.08-0.93-2.08-2.08v-30.36c0-1.15,0.93-2.08,2.08-2.08h30.36
						c1.15,0,2.08,0.93,2.08,2.08v30.36C78.61,306.2,77.68,307.13,76.53,307.13z"/>
					<path class="st9" d="M80.5,310.78H42.21c-0.98,0-1.77-0.79-1.77-1.77v-38.29c0-0.98,0.79-1.77,1.77-1.77H80.5
						c0.98,0,1.77,0.79,1.77,1.77v38.29C82.27,309.99,81.47,310.78,80.5,310.78z M43.47,309.52h35.76c0.98,0,1.77-0.79,1.77-1.77
						v-35.77c0-0.98-0.79-1.77-1.77-1.77H43.47c-0.98,0-1.77,0.79-1.77,1.77v35.77C41.7,308.73,42.49,309.52,43.47,309.52z"/>
				</g>
				<path class="st0" d="M58.28,196.19l-19.93-19.72c-1.38-1.36-1.39-3.59-0.03-4.97c1.37-1.38,3.59-1.39,4.97-0.03L58,186.04
					l23.34-25.78c1.3-1.44,3.52-1.55,4.96-0.25s1.55,3.52,0.25,4.96L58.28,196.19z"/>
				<path class="st0" d="M58.28,249.47l-19.93-19.72c-1.38-1.36-1.39-3.59-0.03-4.97c1.37-1.38,3.59-1.39,4.97-0.03L58,239.32
					l23.34-25.78c1.3-1.44,3.52-1.55,4.96-0.25s1.55,3.52,0.25,4.96L58.28,249.47z"/>
				<path class="st0" d="M58.28,301.49l-19.93-19.71c-1.38-1.36-1.39-3.59-0.03-4.97c1.37-1.38,3.59-1.39,4.97-0.03L58,291.34
					l23.34-25.78c1.3-1.44,3.52-1.55,4.96-0.25s1.55,3.52,0.25,4.96L58.28,301.49z"/>
				<path class="st0" d="M58.28,354.33l-19.93-19.72c-1.38-1.36-1.39-3.59-0.03-4.97c1.37-1.38,3.59-1.39,4.97-0.03L58,344.18
					l23.34-25.78c1.3-1.44,3.52-1.55,4.96-0.25s1.55,3.52,0.25,4.96L58.28,354.33z"/>
				<g>
					<path class="st9" d="M76.53,360.01H46.17c-1.15,0-2.08-0.93-2.08-2.08v-30.36c0-1.15,0.93-2.08,2.08-2.08h30.36
						c1.15,0,2.08,0.93,2.08,2.08v30.36C78.61,359.08,77.68,360.01,76.53,360.01z"/>
					<path class="st9" d="M80.5,363.67H42.21c-0.98,0-1.77-0.79-1.77-1.77v-38.29c0-0.98,0.79-1.77,1.77-1.77H80.5
						c0.98,0,1.77,0.79,1.77,1.77v38.29C82.27,362.88,81.47,363.67,80.5,363.67z M43.47,362.4h35.76c0.98,0,1.77-0.79,1.77-1.77
						v-35.77c0-0.98-0.79-1.77-1.77-1.77H43.47c-0.98,0-1.77,0.79-1.77,1.77v35.77C41.7,361.61,42.49,362.4,43.47,362.4z"/>
				</g>
				<path class="st0" d="M86.54,323.11l-28.27,31.22l-19.93-19.72c-1.38-1.36-1.39-3.59-0.03-4.97c1.37-1.38,3.59-1.39,4.97-0.03
					L58,344.18l23.34-25.78c1.3-1.44,3.52-1.55,4.96-0.25"/>
			</g>
			<path class="st10" d="M149.13,75.86c0,2.28-1.85,4.13-4.13,4.13s-4.13-1.85-4.13-4.13s1.85-4.13,4.13-4.13
				C147.28,71.72,149.13,73.57,149.13,75.86z"/>
		</g>
	</g>
</g>
<g>
	<text transform="matrix(1 0 0 1 95.5422 180.605)" class="st11 st12 st13">Consegue se comunicar </text>
	<text transform="matrix(1 0 0 1 95.5422 193.735)" class="st11 st12 st13">com clareza e calma.</text>
</g>
<g>
	<text transform="matrix(1 0 0 1 95.5422 231.7095)" class="st11 st12 st13">Incentiva comportamentos </text>
	<text transform="matrix(1 0 0 1 95.5422 244.8395)" class="st11 st12 st13">positivos diariamente.</text>
</g>
<g>
	<text transform="matrix(1 0 0 1 95.5422 282.0605)" class="st11 st12 st13">É capaz de negociar conflitos </text>
	<text transform="matrix(1 0 0 1 95.5422 295.1905)" class="st11 st12 st13">emocionais e trabalhar juntos </text>
	<text transform="matrix(1 0 0 1 95.5422 308.3205)" class="st11 st12 st13">para uma solução.</text>
</g>
<g>
	<text transform="matrix(1 0 0 1 95.5422 343.293)" class="st11 st12 st13">Monitora sua rotina, </text>
	<text transform="matrix(1 0 0 1 95.5422 356.423)" class="st11 st12 st13">atividades.</text>
</g>
<g>
	<text transform="matrix(1 0 0 1 95.5422 391.1523)" class="st11 st12 st13">Estabelece limites</text>
	<text transform="matrix(1 0 0 1 95.5422 404.2823)" class="st11 st12 st13">Cumpre regras.</text>
</g>
<g>
	<path class="st9" d="M76.53,412.32H46.17c-1.15,0-2.08-0.93-2.08-2.08v-30.36c0-1.15,0.93-2.08,2.08-2.08h30.36
		c1.15,0,2.08,0.93,2.08,2.08v30.36C78.61,411.39,77.68,412.32,76.53,412.32z"/>
	<path class="st9" d="M80.5,415.97H42.21c-0.98,0-1.77-0.79-1.77-1.77v-38.29c0-0.98,0.79-1.77,1.77-1.77H80.5
		c0.98,0,1.77,0.79,1.77,1.77v38.29C82.27,415.18,81.47,415.97,80.5,415.97z M43.47,414.71h35.76c0.98,0,1.77-0.79,1.77-1.77v-35.77
		c0-0.98-0.79-1.77-1.77-1.77H43.47c-0.98,0-1.77,0.79-1.77,1.77v35.77C41.7,413.92,42.49,414.71,43.47,414.71z"/>
</g>
<path class="st0" d="M87.74,370.37c0-1.94-1.57-3.5-3.5-3.5c-1,0-1.9,0.42-2.54,1.1c-0.13,0.1-0.25,0.21-0.36,0.33L58,394.07
	l-14.71-14.55c-1.38-1.36-3.6-1.35-4.97,0.03c-1.36,1.38-1.35,3.6,0.03,4.97l19.93,19.71L86.54,373v-0.01
	C87.27,372.35,87.74,371.42,87.74,370.37z"/>
<path class="st7" d="M215.97,134.89c-0.6-0.68-0.41-1.38-0.23-2.06c0.1-0.36,0.19-0.74,0.17-1.11c-0.03-0.51-0.28-1.03-2.95-1.42
	c-2.49-0.36-6.45-0.49-9.63-0.6c-5.92-0.2-11.66-0.17-17.73-0.15c-1.41,0.01-2.87,0.01-4.32,0.01h-0.1
	c-6.79,0.01-31.83,0.03-38.73,0.03H96.46c-4.43,0-9.58,0.03-14.14,0.27c-1.96,0.1-4.19,0.21-6.03,0.57
	c-1.72,0.34-2.15,0.99-2.46,1.82c-0.18,0.48-0.36,0.97-0.54,1.45c-0.34,0.93-0.68,1.9-0.07,2.8c0.16,0.24,0.4,0.47,0.79,0.64
	c0.38,0.16,0.88,0.25,1.37,0.33c3.71,0.58,7.88,0.67,11.74,0.68c15.51,0.03,30.68,0.05,45.69,0.04c7.02,0,14.15,0.03,21.05,0.06
	c6.6,0.03,13.38,0.06,20.13,0.06c1.3,0,2.59,0,3.89,0c7.18-0.01,13.53-0.04,19.4-0.07c0.42,0,0.84,0,1.25-0.01
	c5.04-0.02,9.4-0.04,13.48-0.56c2.45-0.31,3.86-0.75,4.31-1.35C216.71,135.85,216.38,135.35,215.97,134.89z"/>
</svg>
