<?xml version="1.0" encoding="utf-8"?>
<!-- Generator: Adobe Illustrator 24.0.2, SVG Export Plug-In . SVG Version: 6.00 Build 0)  -->
<svg version="1.1" id="Camada_1" xmlns="http://www.w3.org/2000/svg" xmlns:xlink="http://www.w3.org/1999/xlink" x="0px" y="0px"
	 viewBox="0 0 100.65 73.56" style="enable-background:new 0 0 100.65 73.56;" xml:space="preserve">
<style type="text/css">
	.st0{fill:#F9EC6B;}
</style>
<g>
	<g id="XMLID_118_">
		<path id="XMLID_125_" class="st0" d="M34.16,10.67"/>
		<g id="XMLID_122_">
			<ellipse id="XMLID_124_" class="st0" cx="22.7" cy="51.15" rx="22.61" ry="22.4"/>
			<path id="XMLID_123_" class="st0" d="M0.2,52.53c-0.14-1.41-0.25-3.25-0.18-5.39c0.04-1.34,0.21-4.33,1.08-8.09
				c0.47-2.02,0.97-3.56,1.62-5.39c1.66-4.75,2.91-8.13,5.03-12.94c2.04-4.62,3.76-7.51,7.19-13.3c2.55-4.3,4.34-6.95,7.19-7.37
				c0.52-0.08,2.49-0.29,3.59,0.9c1.03,1.1,0.77,2.84,0.54,4.31c-0.39,2.44-1.29,4.01-1.98,5.39l0,0c-1.11,2.95-2.35,6.23-2.87,8.44
				c-1.04,4.39-0.74,9.01-0.54,11.14"/>
		</g>
		<g id="XMLID_119_">
			<ellipse id="XMLID_121_" class="st0" cx="78.04" cy="51.15" rx="22.61" ry="22.4"/>
			<path id="XMLID_120_" class="st0" d="M55.54,52.53c-0.14-1.41-0.25-3.25-0.18-5.39c0.04-1.34,0.21-4.33,1.08-8.09
				c0.47-2.02,0.97-3.56,1.62-5.39c1.66-4.75,2.91-8.13,5.03-12.94c2.04-4.62,3.76-7.51,7.19-13.3c2.55-4.3,4.34-6.95,7.19-7.37
				c0.52-0.08,2.49-0.29,3.59,0.9c1.03,1.1,0.77,2.84,0.54,4.31c-0.39,2.44-1.29,4.01-1.98,5.39l0,0c-1.11,2.95-2.35,6.23-2.87,8.44
				c-1.04,4.39-0.74,9.01-0.54,11.14"/>
		</g>
	</g>
</g>
</svg>
