<?xml version="1.0" encoding="utf-8"?>
<!-- Generator: Adobe Illustrator 25.0.0, SVG Export Plug-In . SVG Version: 6.00 Build 0)  -->
<svg version="1.1" id="Camada_1" xmlns="http://www.w3.org/2000/svg" xmlns:xlink="http://www.w3.org/1999/xlink" x="0px" y="0px"
	 viewBox="0 0 140 140" style="enable-background:new 0 0 140 140;" xml:space="preserve">
<style type="text/css">
	.st0{fill:#020203;}
	.st1{fill:#16171B;}
	.st2{fill:#2F2F34;}
	.st3{fill:#4C4A50;}
	.st4{fill:#7E7B81;}
	.st5{fill:#232328;}
	.st6{fill:#3D3C42;}
	.st7{fill:#5C595F;}
	.st8{fill:#6C696F;}
	.st9{fill:#928F94;}
	.st10{fill:#FFFFFF;}
	.st11{fill:#020304;}
	.st12{fill:#525055;}
	.st13{fill:#6A676D;}
	.st14{fill:#524F55;}
	.st15{fill:#040405;}
	.st16{fill:#040406;}
	.st17{fill:#050506;}
</style>
<g>
	<path class="st0" d="M127.33,39.67c-0.95,7.19-4.58,12.67-10.69,16.5c-3.5,2.19-7.36,3.27-11.5,3.27c-6.45,0-12.9,0-19.35,0
		c-0.54,0-1.09,0.02-1.63-0.05c-0.75-0.1-1.52-0.18-1.82-1.1c-0.28-0.85,0.08-1.48,0.64-2.05c1.38-1.4,2.75-2.81,4.18-4.16
		c0.32-0.3,0.34-0.78,0.07-1.13c-9.93-12.69-3.48-30.6,10.56-35.73c0.95-0.35,1.71-0.54,2.71-0.72l0,0c0.29-0.06,2-0.31,2.22-0.31
		c0.44,0.18,0.88,0.18,1.32,0c0.6,0,1.11,0,1.71,0c0.44,0.19,0.88,0.19,1.33,0c0.01,0,0.02,0,0.03,0c3.05,0.1,5.9,0.91,8.55,2.37
		c5.84,3.23,9.71,8.02,11.43,14.5c0.25,0.95,0.33,1.92,0.33,2.9c0.05,0.37-0.12,0.76,0.11,1.12c0,1.16,0,2.32,0,3.48
		C127.27,38.9,127.51,39.21,127.33,39.67z"/>
	<path class="st0" d="M104.03,14.2c-0.44,0.31-0.87,0.36-1.31,0C103.16,14.2,103.6,14.2,104.03,14.2z"/>
	<path class="st0" d="M107.08,14.2c-0.44,0.36-0.87,0.31-1.31,0C106.21,14.2,106.64,14.2,107.08,14.2z"/>
	<path class="st0" d="M127.33,34.11c0.06,0.03-0.03-1.3,0.04-1.32c0,0.36,0.16,2.07,0.16,2.43
		C127.25,34.88,127.28,34.5,127.33,34.11z"/>
	<path class="st0" d="M26.59,76.85c-1.66-2.99-1.41-5.79,0.26-8.53c1.18-1.93,2.55-3.69,4.25-5.19c2.94-2.58,6.3-4.3,10.17-5.02
		c0.21-0.04,0.41-0.13,0.74-0.23c-1.39-1.48-2.48-3.07-2.85-5.03c-0.6-3.15-0.76-6.35,0.02-9.47c1.29-5.11,6.04-8.6,11.15-8.38
		c5.55,0.23,9.93,3.91,10.85,9.28c0.46,2.72,0.41,5.49-0.08,8.22c-0.34,1.92-1.29,3.59-2.82,5.2c1.06,0,1.93,0,2.81,0
		c1.49,0,2.98-0.07,4.46,0.03c0.96,0.06,1.09-0.28,1.09-1.14c-0.04-5.37-0.02-10.73-0.02-16.1c0-3.14,2.21-5.42,5.24-5.41
		c3.01,0,5.19,2.29,5.2,5.46c0,6.85,0.01,13.7,0,20.56c-0.01,5-3.8,8.77-8.8,8.79c-1.45,0-2.9,0.03-4.35-0.01
		c-0.6-0.02-0.81,0.13-0.79,0.76c0.04,1.74,0.06,3.48,0,5.22c-0.03,0.8,0.16,1.02,0.99,1.01c6.53-0.04,13.05-0.01,19.58-0.03
		c0.94,0,1.65,0.27,2,1.16c0.44,1.13-0.39,2.27-1.66,2.33c-1.74,0.09-1.74,0.09-1.74,1.85c0,13.74,0,27.48,0.01,41.22
		c0,0.9-0.16,1.66-1.07,2.05c-1.24,0.54-2.42-0.34-2.42-1.83c-0.01-5.26,0-10.51,0-15.77c0-1.42,0-1.42-1.42-1.42
		c-4.46,0-8.92,0.02-13.38-0.02c-0.71-0.01-0.89,0.18-0.89,0.89c0.03,4.31,0.02,8.63,0.02,12.94c-0.01,3.05-2.25,5.33-5.22,5.33
		c-2.98,0-5.21-2.28-5.22-5.33c-0.01-4.31-0.02-8.63,0.02-12.94c0.01-0.72-0.19-0.92-0.89-0.88c-1.16,0.06-2.32,0.06-3.48,0
		c-0.73-0.04-0.89,0.2-0.88,0.9c0.03,4.31,0.02,8.63,0.01,12.94c0,2.73-1.92,5-4.47,5.3c-2.77,0.33-5.2-1.33-5.86-4.03
		c-0.1-0.41-0.11-0.86-0.11-1.29c-0.01-4.28-0.03-8.56,0.02-12.83c0.01-0.84-0.22-1-1.01-0.99c-3.99,0.04-7.98,0.05-11.96,0
		c-0.84-0.01-0.99,0.23-0.99,1.02c0.04,5.4,0.01,10.8,0.03,16.21c0,1.01-0.41,1.7-1.39,1.91c-0.92,0.2-1.66-0.2-1.99-1.09
		c-0.14-0.39-0.1-0.85-0.1-1.28c0-13.89-0.02-27.77,0.02-41.66c0-1.02-0.28-1.32-1.24-1.19c-1.04,0.14-1.9-0.18-2.22-1.27
		c-0.35-1.17,0.51-2.19,1.83-2.2C20.8,76.84,23.59,76.85,26.59,76.85z"/>
	<path class="st10" d="M88.59,55.07c1.06-1.03,1.96-1.88,2.84-2.75c1.1-1.09,1.11-1.87,0.02-3c-3.58-3.71-5.37-8.13-5.33-13.21
		c0.07-9.25,7.52-17.17,16.96-18.13c10.33-1.05,19.42,5.67,21.08,15.59c1.74,10.38-6.04,20.26-16.82,21.32
		c-4.41,0.43-8.84,0.09-13.25,0.18C92.35,55.1,90.61,55.07,88.59,55.07z"/>
	<path class="st10" d="M51.06,80.33c8.88,0,17.77,0.02,26.65-0.02c0.9,0,1.12,0.21,1.11,1.11c-0.04,6.85-0.04,13.7,0,20.56
		c0,0.82-0.19,1-1,1c-17.91-0.03-35.82-0.03-53.73,0c-0.81,0-1.01-0.19-1-1c0.04-6.89,0.04-13.78,0-20.67c0-0.82,0.19-1,1-1
		C33.08,80.35,42.07,80.33,51.06,80.33z"/>
	<path class="st10" d="M45.27,76.85c-4.15,0-8.21,0.05-12.27-0.02c-3.17-0.05-4.98-3.15-3.47-5.93c3.47-6.39,8.94-9.59,16.15-9.69
		c7.36-0.1,14.72-0.02,22.08-0.02c1.86,0,2.35-0.49,2.35-2.39c0-6.02-0.01-12.03,0-18.05c0-1.71,1.3-2.67,2.58-1.92
		c0.61,0.36,0.9,0.94,0.9,1.63c0,6.96,0.05,13.92-0.03,20.88c-0.03,2.91-2.35,5.02-5.31,5.07c-2.1,0.03-4.2,0-6.31,0.01
		c-1.85,0.01-2.27,0.45-2.28,2.33c-0.01,2.43-0.03,4.86,0.02,7.29c0.01,0.67-0.15,0.85-0.83,0.84c-3.04-0.04-6.09-0.03-9.13,0
		c-0.52,0-0.75-0.15-0.91-0.65c-1.43-4.49-4.62-6.95-9.25-7.13c-1.3-0.05-2.61-0.04-3.91-0.01c-1.34,0.03-2.1,0.73-2.08,1.84
		c0.02,1.09,0.8,1.74,2.16,1.75c1.45,0.02,2.9-0.02,4.35,0.03C42.44,72.78,44.52,74.44,45.27,76.85z"/>
	<path class="st10" d="M57.9,48.21c0.03,1.3,0.04,2.6-0.34,3.87c-1.1,3.73-4.61,6.06-8.46,5.62c-3.69-0.43-6.63-3.56-6.82-7.42
		c-0.09-1.73-0.18-3.47,0.12-5.2c0.74-4.14,4.1-6.76,8.37-6.53c3.78,0.21,6.93,3.56,7.12,7.59C57.93,46.83,57.9,47.52,57.9,48.21z"
		/>
	<path class="st10" d="M40.51,113.51c0-2.1,0.02-4.2-0.01-6.3c-0.01-0.6,0.13-0.78,0.76-0.79c2.73-0.03,2.73-0.06,2.73,2.61
		c0,3.44,0,6.88,0,10.32c0,0.22,0,0.43,0,0.65c-0.03,1.25-0.72,2.08-1.73,2.09c-1.01,0.01-1.74-0.82-1.75-2.07
		C40.5,117.85,40.51,115.68,40.51,113.51z"/>
	<path class="st10" d="M56.17,113.63c0-2.14,0.02-4.27-0.01-6.41c-0.01-0.59,0.12-0.79,0.76-0.8c2.74-0.03,2.74-0.06,2.74,2.71
		c0,3.4,0,6.8,0,10.21c0,0.22,0,0.43,0,0.65c-0.03,1.25-0.71,2.08-1.72,2.1c-1.01,0.01-1.74-0.82-1.75-2.06
		C56.16,117.9,56.17,115.76,56.17,113.63z"/>
	<path class="st17" d="M106.63,48.97c0.01,0.99-0.69,1.73-1.66,1.77c-1.03,0.04-1.81-0.69-1.82-1.72c-0.01-1.03,0.73-1.78,1.77-1.76
		C105.9,47.27,106.62,47.99,106.63,48.97z"/>
	<path class="st0" d="M103.41,40.86c0-0.59-0.01-1.19,0-1.78c0.04-2.04,0.87-3.14,2.84-3.75c1.61-0.49,2.68-1.48,3.07-3.17
		c0.55-2.35-0.99-4.57-3.53-5c-2.17-0.37-4.39,1.37-4.61,3.6c-0.08,0.85-0.21,1.67-1.06,2.15c-1.26,0.7-2.85-0.26-2.8-1.75
		c0.17-4.5,3.72-7.89,8.18-7.83c4.13,0.05,7.69,3.64,7.68,7.83c-0.01,3.61-1.95,6.42-5.34,7.6c-0.55,0.19-0.69,0.46-0.68,1
		c0.04,1.12,0.03,2.25,0.01,3.37c-0.03,1.24-0.85,2.13-1.92,2.11c-1.05-0.01-1.8-0.84-1.86-2.05c0-0.06,0-0.12,0-0.19
		C103.41,42.3,103.41,41.58,103.41,40.86z"/>
	<path class="st0" d="M127.53,38.54c0,0,0.01,0.16,0,0.21c0,0.01,0,0.09-0.03,0.28c-0.01,0.05-0.03,0.16-0.04,0.22
		c-0.02,0.13-0.13,0.41-0.13,0.41l-0.09-0.91L127.53,38.54z"/>
</g>
</svg>
