<?xml version="1.0" encoding="utf-8"?>
<!-- Generator: Adobe Illustrator 24.0.2, SVG Export Plug-In . SVG Version: 6.00 Build 0)  -->
<svg version="1.1" xmlns="http://www.w3.org/2000/svg" xmlns:xlink="http://www.w3.org/1999/xlink" x="0px" y="0px"
	 viewBox="0 0 206.53 409.1" style="enable-background:new 0 0 206.53 409.1;" xml:space="preserve">
<style type="text/css">
	.st0{fill:#FFFCCC;}
	.st1{fill:#FFFFFF;}
	.st2{fill:#FFEE00;}
	.st3{fill:#DBA723;}
	.st4{font-family:'Livvic-Bold';}
	.st5{font-size:10.3784px;}
	.st6{fill:#1E1E1E;}
	.st7{font-family:'Livvic-SemiBold';}
	.st8{font-size:10.8753px;}
	.st9{font-family:'Livvic-Medium';}
	.st10{font-size:11.5516px;}
</style>
<g id="Camada_1">
	<path class="st0" d="M205.23,67.7V36.95c0-19.69-15.96-35.66-35.66-35.66H58.54v66.64H205C205.13,67.93,205.23,67.83,205.23,67.7z"
		/>
	<path class="st1" d="M205.23,372.79V67.93H57.25v339.87h112.97C189.55,407.81,205.23,392.13,205.23,372.79z"/>
	<path class="st2" d="M0,388.39L0,20.72C0,9.29,11.91,0,26.54,0l33.3,0v409.1h-33.3C11.91,409.1,0,399.81,0,388.39z"/>
	<g>
		<text transform="matrix(1 0 0 1 4.1416 52.0285)" class="st3 st4 st5">Estilo</text>
	</g>
	<g>
		<text transform="matrix(1 0 0 1 31.3745 26.4611)" class="st3 st4 st5">Eixo</text>
	</g>
	<g>
		<text transform="matrix(-1.836970e-16 -1 1 -1.836970e-16 31.9302 140.7414)" class="st3 st4 st5">Autoritário</text>
	</g>
	<g>
		<text transform="matrix(-1.836970e-16 -1 1 -1.836970e-16 31.9302 219.9743)" class="st3 st4 st5">Negligente</text>
	</g>
	<g>
		<text transform="matrix(6.123234e-17 -1 1 6.123234e-17 31.9302 294.7473)" class="st3 st4 st5">Indulgente</text>
	</g>
	<g>
		<text transform="matrix(6.123234e-17 -1 1 6.123234e-17 31.9302 392.4445)" class="st3 st4 st5">Autoritativo</text>
	</g>
	<g>
		<text transform="matrix(1 0 0 1 143.835 36.1984)" class="st6 st7 st8">Exigência</text>
	</g>
	<text transform="matrix(1 0 0 1 153.8525 107.4563)" class="st6 st9 st8">Alta</text>
	<text transform="matrix(1 0 0 1 150.0068 190.3635)" class="st6 st9 st10">Baixa</text>
	<text transform="matrix(1 0 0 1 150.0078 270.9856)" class="st6 st9 st10">Baixa</text>
	<text transform="matrix(1 0 0 1 153.4092 356.5656)" class="st6 st9 st10">Alta</text>
	<g>
		<text transform="matrix(1 0 0 1 71.1538 30.5002)"><tspan x="0" y="0" class="st6 st7 st8">Responsi-</tspan><tspan x="0" y="13.05" class="st6 st7 st8">vidade</tspan></text>
	</g>
	<text transform="matrix(1 0 0 1 81.5103 107.7102)" class="st6 st9 st8">Baixa</text>
	<text transform="matrix(1 0 0 1 80.8657 190.3645)" class="st6 st9 st10">Baixa</text>
	<text transform="matrix(1 0 0 1 84.2671 271.5158)" class="st6 st9 st10">Alta</text>
	<text transform="matrix(1 0 0 1 81.3179 356.5656)" class="st6 st9 st10">Alta</text>
	<g>
		<g>
			<g>
				<rect x="58.54" y="67.28" class="st2" width="146.69" height="1.3"/>
			</g>
			<g>
				<g>
					<path class="st2" d="M169.81,409.1H57.25V0l112.56,0c20.25,0,36.72,16.47,36.72,36.72v335.66
						C206.53,392.63,190.05,409.1,169.81,409.1z M59.84,406.51h109.97c18.82,0,34.12-15.31,34.12-34.12V36.72
						c0-18.82-15.31-34.12-34.12-34.12H59.84V406.51z"/>
				</g>
				<g>
					<rect x="128.75" y="1.3" class="st2" width="1.3" height="406.51"/>
				</g>
				<g>
					<rect x="58.54" y="152.1" class="st2" width="146.69" height="1.3"/>
				</g>
				<g>
					<rect x="58.54" y="228.78" class="st2" width="146.69" height="1.3"/>
				</g>
				<g>
					<rect x="58.54" y="306.21" class="st2" width="146.69" height="1.3"/>
				</g>
			</g>
		</g>
	</g>
	<g>
		<path class="st3" d="M7.24,13c0.1,0,0.2,0.02,0.3,0.06l49.34,49.39c0.32,0.15,0.46,0.54,0.3,0.87c-0.15,0.32-0.54,0.46-0.87,0.3
			L6.98,14.24c-0.32-0.15-0.46-0.54-0.3-0.87C6.79,13.14,7.01,13.01,7.24,13z"/>
	</g>
</g>
<g id="Camada_2">
</g>
</svg>
