<?xml version="1.0" encoding="utf-8"?>
<!-- Generator: Adobe Illustrator 24.0.1, SVG Export Plug-In . SVG Version: 6.00 Build 0)  -->
<svg version="1.1" id="Camada_1" xmlns="http://www.w3.org/2000/svg" xmlns:xlink="http://www.w3.org/1999/xlink" x="0px" y="0px"
	 viewBox="0 0 110 110" style="enable-background:new 0 0 110 110;" xml:space="preserve">
<style type="text/css">
	.st0{fill:#FFF566;}
	.st1{fill:none;}
	.st2{fill:#DBA723;}
</style>
<circle class="st0" cx="55" cy="55" r="55"/>
<g>
	<rect x="0" y="28" class="st1" width="110" height="56"/>
	<path class="st2" d="M45.5,80.4c0,0.3-0.2,0.5-0.5,0.7c-0.3,0.2-0.7,0.3-1.1,0.4s-1,0.2-1.5,0.2c-0.6,0-1.1,0-1.5,0
		c-1.3,0-2.6-0.1-3.9-0.2c-1.3-0.1-2.5-0.2-3.5-0.3v-0.1v-7.4c0-4.9,0.2-9.8,0.5-14.6c0.3-4.8,0.5-9.7,0.5-14.6c0-0.3,0-0.5,0-0.7
		c0-0.2,0-0.4-0.1-0.7c-0.3,0-0.5,0.1-0.7,0.6c-0.2,0.4-0.4,0.9-0.7,1.4c-0.3,0.5-0.5,1-0.8,1.5c-0.3,0.5-0.7,0.7-1.1,0.7
		c-0.3,0-0.9-0.1-1.8-0.3c-1-0.2-2-0.5-3.1-0.8c-1.1-0.3-2.1-0.6-3-0.9c-0.9-0.3-1.3-0.6-1.3-0.8c0-0.6,0.3-1.4,0.8-2.4
		c0.5-1,1-2.1,1.6-3.3c0.6-1.2,1.3-2.5,2.1-3.7c0.8-1.3,1.5-2.4,2.1-3.5c0.7-1.1,1.2-2,1.7-2.7c0.5-0.7,0.8-1.2,0.9-1.3
		c1.2-0.1,2.3-0.1,3.5-0.1c1.1,0,2.3,0,3.5,0c1.3,0,2.6,0,4,0.1c1.3,0.1,2.7,0.1,4,0.2c0.2,2.2,0.3,4.3,0.3,6.4
		c0,2.1,0.1,4.2,0.1,6.3c0,5.8-0.1,11.6-0.4,17.3c-0.3,5.7-0.4,11.4-0.4,17.3c0,0.9,0,1.7,0,2.7S45.4,79.5,45.5,80.4z"/>
	<path class="st2" d="M55.6,34.8c0.2-0.4,0.5-0.7,0.8-1c1.5-1.7,3.2-3.1,5.1-4.2c1.9-1.1,4.1-1.7,6.7-1.8c2.6-0.1,4.9,0.3,6.9,1.2
		c2,0.9,3.8,2.1,5.2,3.7c1.5,1.5,2.7,3.3,3.6,5.4c0.9,2,1.6,4.1,2,6.2c0.3,1.6,0.4,3.2,0.6,4.7c0.1,1.5,0.1,3,0,4.4
		c0.1,2,0,4.1-0.2,6.3c-0.2,2.2-0.6,4.4-1.2,6.5c-0.6,2.2-1.4,4.2-2.4,6.1c-1,1.9-2.2,3.6-3.6,5c-1.4,1.4-3,2.6-4.9,3.3
		c-1.9,0.8-4,1.1-6.4,0.9c-2-0.1-3.8-0.4-5.3-1c-2.6-1-4.6-2.3-6-3.9c-1.4-1.6-2.5-3.5-3.2-5.5c-0.7-2.1-1.1-4.2-1.3-6.5
		c-0.2-2.3-0.3-4.6-0.3-6.8c-0.1-1.9-0.2-3.9-0.2-5.9c-0.1-2,0-4,0.3-6s0.6-3.9,1.2-5.8C53.7,38.3,54.5,36.5,55.6,34.8z M67,68.9
		c0.5,0.2,0.9,0.3,1.4,0.3c0.5,0.1,1,0,1.4-0.2c1-0.3,1.7-0.8,2.1-1.4c0.4-0.7,0.7-1.4,1-2.2c0.4-1.3,0.6-2.5,0.7-3.6
		c0-1.2,0.1-2.4,0.2-3.7c0-1.3,0.1-2.8,0.1-4.4c0-1.6,0-3.2-0.2-4.7c-0.1-1.5-0.4-3-0.7-4.3c-0.3-1.3-0.8-2.4-1.4-3.3
		c-1.1-1.5-2.7-1.9-4.6-1.2c-0.5,0.1-1,0.4-1.5,0.8c-0.5,0.4-0.8,0.8-1.1,1.3c-0.3,0.4-0.5,1.1-0.6,2.1c-0.2,1-0.3,2.2-0.5,3.4
		c-0.3,3.2-0.4,6.1-0.4,8.7s0.4,5.2,1.1,7.9c0.2,0.5,0.3,0.9,0.4,1.4c0.1,0.5,0.3,1,0.5,1.4c0.2,0.5,0.5,0.8,0.8,1.2
		C66,68.6,66.4,68.8,67,68.9z"/>
</g>
<g>
</g>
<g>
</g>
<g>
</g>
<g>
</g>
<g>
</g>
<g>
</g>
<g>
</g>
<g>
</g>
<g>
</g>
<g>
</g>
<g>
</g>
<g>
</g>
<g>
</g>
<g>
</g>
<g>
</g>
</svg>
