<?xml version="1.0" encoding="utf-8"?>
<!-- Generator: Adobe Illustrator 24.0.1, SVG Export Plug-In . SVG Version: 6.00 Build 0)  -->
<svg version="1.1" id="Camada_1" xmlns="http://www.w3.org/2000/svg" xmlns:xlink="http://www.w3.org/1999/xlink" x="0px" y="0px"
	 viewBox="0 0 110 110" style="enable-background:new 0 0 110 110;" xml:space="preserve">
<style type="text/css">
	.st0{fill:#FFF566;}
	.st1{fill:none;}
	.st2{fill:#DBA723;}
</style>
<circle class="st0" cx="55" cy="55" r="55"/>
<g>
	<rect x="0" y="28" class="st1" width="110" height="56"/>
	<path class="st2" d="M72.3,64.5l0.2,1.8c0.3,3-0.1,5.6-1.3,7.7c-1.2,2.1-2.8,3.8-4.9,5c-2.1,1.2-4.5,2.1-7.2,2.5
		c-2.7,0.5-5.5,0.5-8.2,0.2c-2.3-0.4-4.2-1.3-5.7-2.5s-2.8-2.9-3.7-4.8c-1-1.9-1.7-4.1-2.1-6.5c-0.5-2.4-0.7-4.9-0.9-7.6
		c-0.1-2.6-0.1-5.3,0-8c0.1-2.7,0.2-5.3,0.4-7.8c0.1-1.1,0.2-2.1,0.2-3.2c0-1,0.2-2.1,0.5-3.1c0-0.2,0.1-0.4,0.2-0.5
		c0-0.2,0.1-0.3,0.2-0.5c0.7-1.5,1.6-2.9,2.9-4c1.3-1.2,2.8-2.1,4.4-2.9c1.6-0.8,3.4-1.4,5.2-1.8c1.8-0.4,3.7-0.6,5.5-0.6
		c2.4,0,4.5,0.4,6.4,1.4c1.9,1,3.4,2.3,4.6,4c1.2,1.6,1.9,3.5,2.3,5.5c0.4,2,0.3,4.1-0.3,6.1c-1.5,0.3-3.1,0.4-4.8,0.4
		s-3.5,0.1-5.2,0.2h-0.2v-0.1c-0.1-0.9-0.2-1.8-0.5-2.8c-0.3-1-0.7-1.8-1.3-2.5c-0.7-0.8-1.6-1.2-2.8-1.1c-1.1,0.1-2.1,0.5-2.8,1.2
		c-1,0.8-1.6,1.9-1.9,3.2c-0.3,1.3-0.4,2.7-0.4,4.3c0,1.5,0.1,3.1,0.2,4.8c0.1,1.6,0.2,3.1,0.1,4.6v0.1c1.2-0.7,2.5-1.3,3.9-1.7
		c1.4-0.4,2.9-0.6,4.5-0.8c1.6-0.2,3.2-0.1,4.7,0.3c2.2,0.7,3.9,1.8,5.2,3.3c0.8,0.7,1.3,1.7,1.7,2.9C71.9,62.2,72.1,63.3,72.3,64.5
		z M63.4,66.4v-0.2c0-0.5,0-0.8-0.1-1c-0.2-0.6-0.4-1.1-0.8-1.6c-0.4-0.5-0.9-0.7-1.6-0.8c-1-0.2-2,0-3,0.3c-1,0.4-1.9,1-2.6,2
		c-0.7,0.9-0.8,1.8-0.4,2.8c0.4,1,1,1.6,1.7,2.1c0.6,0.3,1.3,0.4,2.2,0.4c0.9,0,1.7-0.2,2.5-0.6c0.6-0.3,1-0.6,1.4-1
		c0.4-0.4,0.7-0.9,0.8-1.5v-0.7V66.4z"/>
</g>
<g>
</g>
<g>
</g>
<g>
</g>
<g>
</g>
<g>
</g>
<g>
</g>
<g>
</g>
<g>
</g>
<g>
</g>
<g>
</g>
<g>
</g>
<g>
</g>
<g>
</g>
<g>
</g>
<g>
</g>
</svg>
