<?xml version="1.0" encoding="utf-8"?>
<!-- Generator: Adobe Illustrator 24.0.1, SVG Export Plug-In . SVG Version: 6.00 Build 0)  -->
<svg version="1.1" id="Camada_1" xmlns="http://www.w3.org/2000/svg" xmlns:xlink="http://www.w3.org/1999/xlink" x="0px" y="0px"
	 viewBox="0 0 37.6 27.5" style="enable-background:new 0 0 37.6 27.5;" xml:space="preserve">
<style type="text/css">
	.st0{fill:#F9EC6B;}
</style>
<g id="XMLID_191_">
	<path id="XMLID_198_" class="st0" d="M24.8,23.5"/>
	<g id="XMLID_195_">
		<ellipse id="XMLID_197_" class="st0" cx="29.1" cy="8.4" rx="8.4" ry="8.4"/>
		<path id="XMLID_196_" class="st0" d="M37.5,7.8c0.1,0.5,0.1,1.2,0.1,2c0,0.5-0.1,1.6-0.4,3c-0.2,0.8-0.4,1.3-0.6,2
			c-0.6,1.8-1.1,3-1.9,4.8c-0.8,1.7-1.4,2.8-2.7,5c-1,1.6-1.6,2.6-2.7,2.8c-0.2,0-0.9,0.1-1.3-0.3c-0.4-0.4-0.3-1.1-0.2-1.6
			c0.1-0.9,0.5-1.5,0.7-2c0,0,0,0,0,0c0.4-1.1,0.9-2.3,1.1-3.2c0.4-1.6,0.3-3.4,0.2-4.2"/>
	</g>
	<g id="XMLID_192_">
		<ellipse id="XMLID_194_" class="st0" cx="8.4" cy="8.4" rx="8.4" ry="8.4"/>
		<path id="XMLID_193_" class="st0" d="M16.8,7.8c0.1,0.5,0.1,1.2,0.1,2c0,0.5-0.1,1.6-0.4,3c-0.2,0.8-0.4,1.3-0.6,2
			c-0.6,1.8-1.1,3-1.9,4.8c-0.8,1.7-1.4,2.8-2.7,5c-1,1.6-1.6,2.6-2.7,2.8c-0.2,0-0.9,0.1-1.3-0.3C6.9,26.7,7,26,7.1,25.5
			c0.1-0.9,0.5-1.5,0.7-2l0,0c0.4-1.1,0.9-2.3,1.1-3.2c0.4-1.6,0.3-3.4,0.2-4.2"/>
	</g>
</g>
<g>
</g>
<g>
</g>
<g>
</g>
<g>
</g>
<g>
</g>
<g>
</g>
<g>
</g>
<g>
</g>
<g>
</g>
<g>
</g>
<g>
</g>
<g>
</g>
<g>
</g>
<g>
</g>
<g>
</g>
</svg>
