<?xml version="1.0" encoding="utf-8"?>
<!-- Generator: Adobe Illustrator 24.0.2, SVG Export Plug-In . SVG Version: 6.00 Build 0)  -->
<svg version="1.1" xmlns="http://www.w3.org/2000/svg" xmlns:xlink="http://www.w3.org/1999/xlink" x="0px" y="0px"
	 viewBox="0 0 1280 90" style="enable-background:new 0 0 1280 90;" xml:space="preserve">
<style type="text/css">
	.st0{fill:#FFEE00;}
	.st1{fill:#FFF566;}
	.st2{fill:#FFF899;}
	.st3{display:none;}
	.st4{display:inline;}
	.st5{fill:#F4F4F4;}
</style>
<g id="Camada_1">
</g>
<g id="Camada_2">
</g>
<g id="Camada_3">
</g>
<g id="Camada_4">
</g>
<g id="Camada_5">
</g>
<g id="Camada_6" class="st3">
</g>
<g id="Camada_7">
</g>
<g id="Camada_8">
	<g>
		<g>
			<g>
				<path id="XMLID_81_" class="st5" d="M369.51,55.71C279.03,73.74,6.72,59.49,6.72,59.49c-4.2-0.79-5.44-2.01-5.76-2.87v22.56
					c0,0-1.31,2.55,5.76,3.87c0,0,276,17.89,362.79-3.79s141.17-38.4,404.9,2.95c0,0,16.06,3.15,40.1,5.2
					c-21.18-2.14-34.03-5.4-34.03-5.4C532.86,35.51,467.09,36.26,369.51,55.71z"/>
				<path id="XMLID_80_" class="st5" d="M796,57.98c-10.48-1.54-16.39-2.89-16.39-2.89c-10.58-1.43-23.04-3.8-36.39-6.73
					c-63.15-13.88-146.4-40.42-146.4-40.42l-5.97-4.89H0.1v2.28v50.29c0,0-0.22,0.42,0,1.01c0.32,0.86,1.56,2.08,5.76,2.87
					c0,0,272.31,14.24,362.79-3.79c97.58-19.45,163.34-20.2,410.97,26.32c0,0,12.84,3.26,34.03,5.4
					c13.15,1.33,29.52,2.23,48.02,1.66c24.09-0.75,373.08-3.99,402.04-12.04c5.39-1.5,10.83-3.16,16.29-5.01V50.87
					C1209.84,67.94,824.91,62.23,796,57.98z"/>
				<path id="XMLID_79_" class="st5" d="M581.28,3.05l15.51,4.89c0,0,83.25,26.55,146.4,40.42c13.36,2.94,25.82,5.3,36.39,6.73
					c0,0,5.91,1.35,16.39,2.89c28.9,4.25,413.84,9.96,484-7.11V3.05H581.28z"/>
			</g>
		</g>
		<g>
			<path id="XMLID_21_" class="st0" d="M368.72,51.22C278.24,69.25,5.95,55.01,5.95,55.01c-4.2-0.79-5.44-2.01-5.76-2.87V74.7
				c0,0-1.31,2.55,5.76,3.87c0,0,186.99,26.66,362.77-3.79c88.09-15.26,141.15-38.4,404.85,2.95c0,0,16.06,3.15,40.09,5.2
				c-21.18-2.14-34.02-5.4-34.02-5.4C532.04,31.02,466.29,31.77,368.72,51.22z"/>
			<path id="XMLID_20_" class="st1" d="M796.02,55c-10.48-1.54-16.39-2.89-16.39-2.89c-10.58-1.43-23.03-3.8-36.39-6.73
				C680.11,31.5,596.86,4.95,596.86,4.95l-5.97-4.89H0.19v2.28v50.29c0,0-0.22,0.42,0,1.01c0.32,0.86,1.56,2.08,5.76,2.87
				c0,0,245.05,31.09,362.77-3.79c30.71-9.1,63.02-10.95,95.01-12.16c40.82-1.54,81.68,1.87,122.18,6.8
				c64.89,7.91,130.8,17.61,194.63,31.79c25.85,5.74,54.48,7.78,81.14,6.95c24.09-0.75,373.07-3.99,402.03-12.04
				c5.39-1.5,10.83-3.16,16.29-5.01V47.89C1209.85,64.96,824.93,59.25,796.02,55z"/>
			<path id="XMLID_19_" class="st2" d="M581.36,0.07l15.51,4.89c0,0,83.24,26.55,146.38,40.42c13.36,2.94,25.81,5.3,36.39,6.73
				c0,0,5.91,1.35,16.39,2.89c28.9,4.25,413.83,9.96,483.98-7.11V0.07H581.36z"/>
		</g>
	</g>
</g>
<g id="Camada_9">
</g>
<g id="Camada_10">
</g>
</svg>
