<?xml version="1.0" encoding="utf-8"?>
<!-- Generator: Adobe Illustrator 24.0.2, SVG Export Plug-In . SVG Version: 6.00 Build 0)  -->
<svg version="1.1" xmlns="http://www.w3.org/2000/svg" xmlns:xlink="http://www.w3.org/1999/xlink" x="0px" y="0px"
	 viewBox="0 0 219.78 225.31" style="enable-background:new 0 0 219.78 225.31;" xml:space="preserve">
<style type="text/css">
	.st0{fill:#DBA723;}
	.st1{fill:#EDE1AE;}
	.st2{fill:#3D3D3D;}
	.st3{font-family:'Livvic-SemiBold';}
	.st4{font-size:8.2224px;}
	.st5{fill:#FFFFFF;}
</style>
<g id="Camada_1">
</g>
<g id="Camada_2">
</g>
<g id="Camada_3">
</g>
<g id="Camada_5">
</g>
<g id="Camada_4">
	<path class="st0" d="M116.67,110.24v-6.67l11.21,9.25l-11.21,10.89v-6.62c-1.67-0.14-3.32-0.35-4.96-0.58
		c-3.95-0.55-7.67-1.07-11.4-0.4c-0.13,0.02-0.53,0.09-0.64,0.2l-1.92-5.89c0.75-0.81,1.52-1.01,2.19-1.13
		c1.38-0.25,2.76-0.35,4.14-0.35c2.67,0,5.32,0.37,7.92,0.73C113.59,109.91,115.14,110.11,116.67,110.24z"/>
	<g>
		<g>
			<g>
				<path class="st1" d="M87.02,46.4c0,14.47-5.33,27.08-19.35,33.02c-9.99,4.24-21.25,4.21-32.07,3.3
					c-4.88-0.41-9.88-1.03-14.19-3.36C3.23,69.51-0.06,35.93,12.26,20.75c2.92-3.6,6.89-6.17,10.95-8.39
					C37.57,4.49,54.03,3,68.24,12.09C79.84,19.52,87.02,32.62,87.02,46.4z"/>
			</g>
		</g>
	</g>
	<g>
		<g>
			<path class="st0" d="M42.2,79.39c-3.64,0-7.2-0.22-10.58-0.5c-4.89-0.41-10.05-1.02-14.59-3.48C9.15,71.14,3.32,62.08,1.03,50.56
				c-2.64-13.3-0.07-27.16,6.54-35.32c3.19-3.94,7.48-6.58,11.26-8.65c15.9-8.71,32.69-8.79,46.07-0.22
				c11.88,7.61,19.26,21.09,19.26,35.18c0,16.68-6.91,28.43-19.98,33.97C57.11,78.51,49.5,79.39,42.2,79.39z M43.02,1.97
				c-7.53,0-15.39,2.14-23.2,6.42c-3.6,1.97-7.68,4.48-10.65,8.14c-6.25,7.7-8.65,20.9-6.12,33.63
				c2.17,10.92,7.63,19.46,14.97,23.45c4.19,2.27,9.11,2.84,13.78,3.24c9.9,0.83,21.4,1.1,31.58-3.22
				C78.85,67.05,82.1,52.55,82.1,41.54c0-13.4-7.02-26.21-18.31-33.45C57.41,4.01,50.37,1.97,43.02,1.97z"/>
		</g>
	</g>
	<g>
		<text transform="matrix(1 0 0 1 21.812 37.4612)"><tspan x="0" y="0" class="st2 st3 st4">Programas</tspan><tspan x="0" y="9.87" class="st2 st3 st4">Interativos</tspan></text>
	</g>
	<g>
		<g>
			<g>
				<path class="st1" d="M88.97,188.5c0,14.47-5.33,27.08-19.35,33.02c-9.99,4.24-21.25,4.21-32.07,3.3
					c-4.88-0.41-9.88-1.03-14.19-3.36c-18.19-9.86-21.48-43.44-9.16-58.62c2.92-3.6,6.89-6.17,10.95-8.39
					c14.35-7.86,30.82-9.35,45.02-0.26C81.79,161.62,88.97,174.71,88.97,188.5z"/>
			</g>
		</g>
	</g>
	<g>
		<g>
			<path class="st0" d="M44.15,221.48c-3.64,0-7.2-0.22-10.58-0.5c-4.89-0.41-10.05-1.02-14.59-3.48
				c-7.88-4.27-13.72-13.33-16.01-24.85c-2.64-13.3-0.07-27.16,6.54-35.32c3.19-3.94,7.48-6.58,11.26-8.65
				c15.9-8.71,32.69-8.79,46.07-0.22c11.88,7.61,19.26,21.09,19.26,35.18c0,16.68-6.91,28.43-19.98,33.97
				C59.06,220.6,51.45,221.48,44.15,221.48z M44.97,144.06c-7.53,0-15.39,2.14-23.2,6.42c-3.6,1.97-7.68,4.48-10.65,8.14
				c-6.25,7.7-8.65,20.9-6.12,33.63c2.17,10.92,7.63,19.46,14.97,23.45c4.19,2.27,9.11,2.84,13.78,3.24
				c9.9,0.83,21.4,1.1,31.58-3.22c15.47-6.57,18.72-21.07,18.72-32.08c0-13.4-7.02-26.21-18.31-33.45
				C59.36,146.11,52.32,144.06,44.97,144.06z"/>
		</g>
	</g>
	<g>
		<text transform="matrix(1 0 0 1 19.7563 172.5862)"><tspan x="0" y="0" class="st2 st3 st4">Programas</tspan><tspan x="0" y="9.87" class="st2 st3 st4">que atingem</tspan><tspan x="0" y="19.73" class="st2 st3 st4">as famílias e a</tspan><tspan x="0" y="29.6" class="st2 st3 st4">comunidade</tspan></text>
	</g>
	<path class="st0" d="M63.08,116.19l-0.56-7.7c-3.87,0.06-7.72,0.43-11.49,0.8c-0.35,0.03-0.7,0.07-1.05,0.1
		c-0.06-0.59-0.11-1.17-0.17-1.76c-0.39-3.97-0.76-7.81-0.79-11.6l-7.7,0.56c0.06,3.87,0.43,7.72,0.8,11.49
		c0.06,0.64,0.12,1.28,0.19,1.91c-3.16,0.15-6.27,0.13-9.38-0.27c-0.21-0.03-0.84-0.11-1.01-0.22l-3.05,6.63
		c1.19,0.91,2.42,1.13,3.48,1.27c2.19,0.28,4.39,0.39,6.57,0.39c1.32,0,2.64-0.05,3.95-0.12c0.11,2.86,0.06,5.68-0.3,8.51
		c-0.03,0.21-0.11,0.84-0.22,1.01l6.63,3.05c0.91-1.19,1.13-2.42,1.27-3.48c0.28-2.19,0.39-4.39,0.39-6.57
		c0-1.05-0.03-2.09-0.07-3.14c0.31-0.03,0.62-0.06,0.92-0.09C55.45,116.59,59.3,116.22,63.08,116.19z"/>
	<g>
		<path class="st0" d="M219.78,112.59c0,14.47-5.33,27.08-19.35,33.02c-9.99,4.24-21.25,4.21-32.07,3.3
			c-4.88-0.41-9.88-1.03-14.19-3.36c-18.19-9.86-21.48-43.44-9.16-58.62c2.92-3.6,6.89-6.17,10.95-8.39
			c14.35-7.86,30.82-9.35,45.02-0.26C212.6,85.71,219.78,98.81,219.78,112.59z"/>
	</g>
	<g>
		<text transform="matrix(1 0 0 1 159.1347 96.0408)"><tspan x="0" y="0" class="st5 st3 st4">Maiores </tspan><tspan x="0" y="9.87" class="st5 st3 st4">chances de </tspan><tspan x="0" y="19.73" class="st5 st3 st4">obter</tspan><tspan x="0" y="29.6" class="st5 st3 st4">resultados </tspan><tspan x="0" y="39.47" class="st5 st3 st4">positivos</tspan></text>
	</g>
</g>
</svg>
