<?xml version="1.0" encoding="utf-8"?>
<!-- Generator: Adobe Illustrator 24.0.2, SVG Export Plug-In . SVG Version: 6.00 Build 0)  -->
<svg version="1.1" id="Camada_1" xmlns="http://www.w3.org/2000/svg" xmlns:xlink="http://www.w3.org/1999/xlink" x="0px" y="0px"
	 viewBox="0 0 240.11 591.51" style="enable-background:new 0 0 240.11 591.51;" xml:space="preserve">
<style type="text/css">
	.st0{fill:#F2E9C6;}
	.st1{fill:#DAA723;}
	.st2{font-family:'Livvic-SemiBold';}
	.st3{font-size:10.5831px;}
	.st4{font-family:'Livvic-Bold';}
	.st5{font-size:13.2288px;}
	.st6{font-size:11.9344px;}
	.st7{fill:#F7F7F6;}
	.st8{font-family:'Livvic-Medium';}
</style>
<g id="Camada_2_1_">
</g>
<g id="Camada_1_1_">
	<path class="st0" d="M143.05,412.94c28.3-8.43,52.57-18.44,80.95-26.8c10.86-3.2,16.31-6.14,16.1-13.6
		c-0.29-10.47-2.72-20.95-3.22-31.57c-0.55-11.85-0.42-23.71-0.02-35.56c0.78-22.9,2.62-45.76,2.62-68.67
		c0-9.2-2.23-7.92-10.61-6.08c-7.33,1.61-14.63,3.41-21.87,5.4c-14.48,3.97-28.76,8.69-42.76,14.12c-9.24,3.59-18.34,9.1-28.45,9.42
		c-8.51,0.27-17.05-2.65-25.16-4.84c-2.95-0.8-5.9-1.6-8.85-2.4c-14.11-3.84-28.22-7.68-42.34-11.51
		c-5.01-1.36-35.8-12.96-38.77-9.73c-1.76,1.91,1.32,13.58,1.54,15.98c0.67,7.43,1.18,14.87,1.53,22.32
		c0.66,14.07,0.74,28.17,0.24,42.25c-0.46,13.02-1.41,26.02-2.86,38.96c-0.84,7.48-7.58,26.08,2.56,29.35
		c34.09,10.97,71.76,22.98,106.29,33.59C133.06,414.5,139.55,413.98,143.05,412.94z"/>
	<path class="st0" d="M135.52,237.12c37.82-8.75,59.86-21.54,97.4-30.47c2.38-0.57,4.7-2.03,4.79-3.11
		c0.46-5.42,0.15-10.86,0.15-16.29c0-23.03-1.38-45.51-2.04-68.48c-0.17-5.75,0.67-11.55-0.13-17.28
		c-2.24-16.17-17.2-14.61-29.89-13.12c-11.27,1.32-22.95,0.85-34.2,0.99c-11.8,0.15-23.61-0.36-35.41-0.2
		c-21.06,0.28-42.13-0.43-63.12-2.12c-13.78-1.11-27.45-2.37-41.29-1.62c-10.39,0.56-14.16,0-13.02,11.83
		c1.1,11.43,1.32,23.03,1.41,34.5c0.17,22.21-1.09,44.43-3.77,66.48c-1.38,11.37,9.24,11.04,17.84,13.41
		c10.4,2.87,20.81,5.69,31.23,8.49c20.7,5.58,41.43,11.08,62.13,16.65C129.61,237.32,133.64,237.56,135.52,237.12z"/>
	<g>
		<path class="st1" d="M126.75,405.87c-1.88,0-3.61-0.17-4.86-0.55c-28.87-8.87-62.65-19.54-106.31-33.59
			c-9.17-2.95-6.37-16.24-4.52-25.03c0.48-2.27,0.89-4.23,1.06-5.72c1.44-12.85,2.4-25.92,2.85-38.86c0.49-14,0.41-28.17-0.24-42.14
			c-0.34-7.39-0.86-14.88-1.53-22.26c-0.05-0.55-0.3-1.81-0.59-3.26c-1.6-8.01-2.1-12.11-0.6-13.73c2.19-2.38,10.39-0.62,33.74,7.27
			c2.96,1,5.29,1.79,6.35,2.08L103.28,244c1.31,0.35,2.64,0.73,3.97,1.11c6.82,1.92,13.87,3.92,20.8,3.69
			c7.22-0.23,14.09-3.28,20.73-6.23c2.38-1.06,4.84-2.15,7.29-3.1c13.99-5.43,28.42-10.19,42.89-14.16
			c7.21-1.98,14.59-3.8,21.93-5.42c0.64-0.14,1.25-0.28,1.82-0.41c4.11-0.94,6.59-1.5,8.39-0.07c1.67,1.34,2.01,3.99,2.01,7.85
			c0,14.58-0.75,29.36-1.48,43.65c-0.42,8.22-0.85,16.71-1.14,25.07c-0.47,13.86-0.47,25.12,0.02,35.45
			c0.23,5.01,0.92,10.1,1.58,15.01c0.73,5.43,1.48,11.04,1.64,16.58c0.25,9.07-7.57,12.12-17.05,14.9
			c-14.4,4.24-27.98,8.99-41.12,13.59c-12.73,4.45-25.89,9.06-39.83,13.21C133.36,405.41,129.86,405.87,126.75,405.87z
			 M134.97,402.17l0.38,1.27L134.97,402.17c13.88-4.14,27.01-8.73,39.71-13.17c13.17-4.61,26.78-9.37,41.25-13.63
			c11.77-3.47,15.31-6.34,15.15-12.29c-0.15-5.4-0.9-10.94-1.62-16.3c-0.67-4.97-1.36-10.12-1.6-15.24
			c-0.49-10.4-0.49-21.73-0.02-35.67c0.28-8.38,0.72-16.88,1.14-25.11c0.73-14.26,1.48-29.01,1.48-43.52c0-2.13-0.11-5.05-1.01-5.78
			c-0.8-0.64-3.04-0.13-6.15,0.58c-0.58,0.13-1.19,0.27-1.84,0.41c-7.3,1.61-14.63,3.42-21.8,5.39
			c-14.39,3.95-28.73,8.68-42.63,14.08c-2.38,0.92-4.82,2-7.17,3.05c-6.88,3.06-13.99,6.21-21.72,6.46
			c-7.33,0.23-14.59-1.81-21.6-3.79c-1.32-0.37-2.64-0.75-3.94-1.1l-51.2-13.93c-1.13-0.31-3.51-1.11-6.51-2.12
			c-7.03-2.38-28.43-9.61-30.98-7.95c-0.74,1.18,0.74,8.6,1.29,11.39c0.32,1.59,0.57,2.85,0.63,3.54
			c0.67,7.42,1.19,14.95,1.53,22.38c0.66,14.04,0.74,28.29,0.24,42.36c-0.46,13.01-1.42,26.15-2.87,39.07
			c-0.18,1.61-0.6,3.63-1.1,5.97c-1.75,8.33-4.16,19.75,2.75,21.97c43.65,14.05,77.42,24.72,106.28,33.58
			C125.46,403.64,131.68,403.15,134.97,402.17z"/>
	</g>
	<g>
		<path class="st1" d="M126.37,231.8c-2,0-4.25-0.25-5.6-0.61c-9.72-2.62-19.45-5.22-29.18-7.82c-10.99-2.94-21.98-5.88-32.96-8.83
			c-8.61-2.32-19.95-5.38-31.24-8.5c-1.51-0.42-3.12-0.76-4.68-1.08c-7.22-1.52-15.4-3.24-14.12-13.76
			c2.66-21.9,3.92-44.21,3.76-66.31c-0.1-12.85-0.37-23.62-1.41-34.39c-0.52-5.43-0.05-8.42,1.61-10.35
			c2.08-2.41,5.58-2.58,10.88-2.84l1.78-0.09c12.91-0.7,25.89,0.36,38.44,1.38l3.02,0.25c20.86,1.68,42.06,2.4,63,2.12
			c5.94-0.08,11.96,0.01,17.79,0.1c5.78,0.09,11.76,0.18,17.62,0.1c2.89-0.04,5.8-0.03,8.74-0.03c8.37,0.01,17.02,0.02,25.33-0.95
			c12.2-1.43,28.91-3.39,31.36,14.26c0.51,3.66,0.37,7.36,0.24,10.94c-0.08,2.14-0.16,4.35-0.1,6.49
			c0.23,7.94,0.55,15.95,0.86,23.69c0.58,14.62,1.19,29.74,1.19,44.83c0,1.55,0.03,3.1,0.05,4.65c0.06,3.84,0.13,7.82-0.21,11.75
			c-0.18,2.16-3.66,3.77-5.8,4.28c-18.42,4.39-33.35,9.79-47.79,15.02c-14.92,5.41-30.36,11-49.63,15.45l-0.3-1.29l0.3,1.29
			C128.54,231.72,127.49,231.8,126.37,231.8z M33.91,79.64c-2.86,0-5.71,0.07-8.55,0.22l-1.79,0.09c-4.62,0.23-7.67,0.38-9.01,1.93
			c-1.11,1.28-1.41,3.86-0.98,8.36c1.04,10.86,1.32,21.69,1.42,34.62c0.17,22.21-1.1,44.63-3.77,66.65
			c-0.94,7.72,3.96,9.15,12.04,10.85c1.6,0.34,3.25,0.68,4.84,1.12c11.28,3.11,22.61,6.17,31.22,8.49
			c10.98,2.96,21.97,5.9,32.95,8.83c9.73,2.6,19.46,5.2,29.18,7.82c1.76,0.47,5.59,0.72,7.26,0.33l0,0
			c19.12-4.42,34.47-9.99,49.32-15.36c14.51-5.25,29.51-10.69,48.07-15.11c2.02-0.48,3.61-1.59,3.8-2.03
			c0.3-3.7,0.24-7.61,0.18-11.38c-0.03-1.56-0.05-3.13-0.05-4.69c0-15.04-0.6-30.13-1.18-44.72c-0.31-7.75-0.63-15.77-0.86-23.72
			c-0.06-2.23,0.02-4.48,0.1-6.66c0.13-3.46,0.26-7.04-0.22-10.48c-1.94-13.97-13.51-13.74-28.43-11.99
			c-8.46,0.99-17.19,0.98-25.64,0.97c-2.92,0-5.82-0.01-8.7,0.03c-5.9,0.08-11.9-0.01-17.7-0.1c-5.81-0.09-11.82-0.18-17.71-0.1
			c-21.03,0.27-42.3-0.44-63.25-2.13l-3.02-0.25C53.77,80.45,43.83,79.64,33.91,79.64z"/>
	</g>
	<g>
		<text transform="matrix(1 0 0 1 31.1673 129.9513)" class="st2 st3">Os responsáveis e os jovens se reúnem </text>
		<text transform="matrix(1 0 0 1 31.1673 142.6513)" class="st2 st3">separadamente, de forma que cada </text>
		<text transform="matrix(1 0 0 1 31.1673 155.3513)" class="st2 st3">grupo tenha um espaço entre iguais </text>
		<text transform="matrix(1 0 0 1 31.1673 168.0513)" class="st2 st3">para se expressar. Os temas são </text>
		<text transform="matrix(1 0 0 1 31.1673 180.7513)" class="st2 st3">tratados com linguagem adequada </text>
		<text transform="matrix(1 0 0 1 31.1673 193.4513)" class="st2 st3">ao público.</text>
	</g>
	<text transform="matrix(1 0 0 1 76.0462 108.7775)" class="st1 st4 st5">1º MOMENTO</text>
	<g>
		<text transform="matrix(1 0 0 1 51.8812 301.7287)" class="st2 st3">Os jovens e os responsáveis</text>
		<text transform="matrix(1 0 0 1 51.8812 314.4287)" class="st2 st3">participam juntos, para o uso </text>
		<text transform="matrix(1 0 0 1 51.8812 327.1287)" class="st2 st3">de habilidades aprendidas na </text>
		<text transform="matrix(1 0 0 1 51.8812 339.8287)" class="st2 st3">hora anterior e diversão em </text>
		<text transform="matrix(1 0 0 1 51.8812 352.5287)" class="st2 st3">família, acompanhados pelos </text>
		<text transform="matrix(1 0 0 1 51.8812 365.2287)" class="st2 st3">facilitadores dos grupos.</text>
	</g>
	<text transform="matrix(1 0 0 1 76.0462 281.5959)" class="st1 st4 st5">2º MOMENTO</text>
	<path class="st0" d="M143.05,590.4c28.3-8.43,52.57-18.44,80.95-26.8c10.86-3.2,16.31-6.14,16.1-13.6
		c-0.29-10.47-2.72-20.95-3.22-31.57c-0.55-11.85-0.42-23.71-0.02-35.56c0.78-22.9,2.62-45.76,2.62-68.67
		c0-9.2-2.23-7.92-10.61-6.08c-7.33,1.61-14.63,3.41-21.87,5.4c-14.48,3.97-28.76,8.69-42.76,14.12c-9.24,3.59-18.34,9.1-28.45,9.42
		c-8.51,0.27-17.05-2.65-25.16-4.84c-2.95-0.8-5.9-1.6-8.85-2.4c-14.11-3.84-28.22-7.68-42.34-11.51
		c-5.01-1.36-35.8-12.96-38.77-9.73c-1.76,1.91,1.32,13.58,1.54,15.98c0.67,7.43,1.18,14.87,1.53,22.32
		c0.66,14.07,0.74,28.17,0.24,42.25c-0.46,13.02-1.41,26.02-2.86,38.96c-0.84,7.48-7.58,26.08,2.56,29.35
		c34.09,10.97,71.76,22.98,106.29,33.59C133.06,591.96,139.55,591.45,143.05,590.4z"/>
	<g>
		<path class="st1" d="M126.75,583.33c-1.88,0-3.61-0.17-4.86-0.55c-28.87-8.87-62.65-19.54-106.31-33.59
			c-9.17-2.95-6.37-16.24-4.52-25.03c0.48-2.27,0.89-4.23,1.06-5.72c1.43-12.85,2.39-25.92,2.85-38.86
			c0.49-14,0.41-28.18-0.24-42.14c-0.34-7.39-0.86-14.88-1.53-22.26c-0.05-0.55-0.3-1.81-0.59-3.26c-1.6-8.01-2.1-12.11-0.6-13.73
			c2.2-2.38,10.39-0.62,33.75,7.28c2.95,1,5.29,1.79,6.34,2.07l44.12,12c2.35,0.64,4.7,1.28,7.06,1.91
			c1.31,0.36,2.64,0.73,3.97,1.11c6.82,1.92,13.87,3.9,20.8,3.69c7.22-0.23,14.09-3.28,20.73-6.24c2.38-1.06,4.84-2.15,7.28-3.1
			c13.98-5.42,28.41-10.19,42.89-14.16c7.23-1.98,14.6-3.8,21.93-5.42c0.64-0.14,1.25-0.28,1.82-0.41c4.11-0.94,6.59-1.5,8.39-0.07
			c1.67,1.33,2.01,3.99,2.01,7.85c0,14.58-0.75,29.36-1.48,43.65c-0.42,8.22-0.85,16.71-1.14,25.07
			c-0.47,13.86-0.47,25.12,0.02,35.45c0.23,5.01,0.92,10.1,1.58,15.01c0.73,5.43,1.48,11.04,1.64,16.58
			c0.25,9.07-7.57,12.12-17.05,14.9c-14.4,4.24-27.98,8.99-41.12,13.59c-12.73,4.45-25.89,9.06-39.83,13.21
			C133.36,582.87,129.86,583.33,126.75,583.33z M134.97,579.63l0.38,1.27L134.97,579.63c13.88-4.14,27.01-8.73,39.71-13.17
			c13.17-4.61,26.78-9.37,41.25-13.63c11.77-3.47,15.31-6.34,15.15-12.29c-0.15-5.4-0.9-10.94-1.62-16.3
			c-0.67-4.97-1.36-10.12-1.6-15.24c-0.49-10.4-0.49-21.73-0.02-35.67c0.28-8.38,0.72-16.88,1.14-25.11
			c0.73-14.26,1.48-29.01,1.48-43.52c0-2.13-0.11-5.05-1.01-5.78c-0.8-0.64-3.04-0.13-6.15,0.58c-0.58,0.13-1.19,0.27-1.84,0.41
			c-7.28,1.6-14.62,3.42-21.8,5.39c-14.39,3.95-28.74,8.69-42.63,14.08c-2.38,0.92-4.81,2-7.17,3.05
			c-6.88,3.06-13.99,6.21-21.72,6.46c-7.34,0.24-14.59-1.81-21.6-3.79c-1.32-0.37-2.64-0.75-3.94-1.1
			c-2.36-0.64-4.71-1.28-7.06-1.92l-44.12-12c-1.13-0.31-3.5-1.11-6.49-2.12c-7.03-2.38-28.44-9.61-30.99-7.96
			c-0.74,1.18,0.74,8.59,1.29,11.39c0.32,1.59,0.57,2.85,0.63,3.54c0.67,7.42,1.19,14.95,1.53,22.38
			c0.66,14.04,0.74,28.29,0.24,42.36c-0.46,13.01-1.42,26.15-2.87,39.07c-0.18,1.61-0.6,3.63-1.1,5.97
			c-1.75,8.33-4.16,19.75,2.75,21.97c43.65,14.05,77.42,24.72,106.28,33.58C125.46,581.1,131.68,580.61,134.97,579.63z"/>
	</g>
	<g>
		<text transform="matrix(1 0 0 1 43.0882 484.8859)" class="st2 st3">De desenvolvimento e prática de </text>
		<text transform="matrix(1 0 0 1 43.0882 497.5859)" class="st2 st3">casa, quando os participantes são</text>
		<text transform="matrix(1 0 0 1 43.0882 510.2859)" class="st2 st3">estimulados a experimentarem as</text>
		<text transform="matrix(1 0 0 1 43.0882 522.9859)" class="st2 st3">técnicas e habilidades aprendidas </text>
		<text transform="matrix(1 0 0 1 43.0882 535.6859)" class="st2 st3">ao longo da semana.</text>
	</g>
	<text transform="matrix(1 0 0 1 80.557 464.7521)" class="st1 st4 st5">3º MOMENTO</text>
	<g>
		<text transform="matrix(1 0 0 1 2.6544 11.1465)" class="st1 st4 st6">DESCRIÇÃO DOS </text>
		<text transform="matrix(1 0 0 1 2.6544 25.4665)" class="st1 st4 st6">MOMENTOS DE UM ENCONTRO</text>
	</g>
	<path class="st1" d="M171.58,44.19c-0.72-1.37-0.5-2.78-0.28-4.15c0.11-0.73,0.23-1.49,0.21-2.24c-0.03-1.02-0.34-2.08-3.55-2.85
		c-3-0.72-7.76-0.99-11.59-1.2c-7.13-0.39-14.03-0.35-21.34-0.3c-1.7,0.01-3.45,0.02-5.2,0.03h-0.12
		c-8.18,0.03-38.32,0.05-46.63,0.05H27.69c-5.34,0-11.53,0.06-17.02,0.54c-1.5,0.13-2.97,0.42-4.45,0.5
		c-1.36,0.07-2.79,0.15-3.74,1.02c-0.75,0.69-0.92,1.64-1.06,2.54C0.98,41,0.54,43.87,0.1,46.73c-0.13,0.82-0.23,1.72,0.38,2.4
		c1.04,1.16,3.57,1.16,5.18,1.3c3.47,0.31,7.37,0.32,10.81,0.33c18.67,0.05,36.93,0.1,55.01,0.09c8.45-0.01,17.04,0.06,25.35,0.12
		c7.94,0.06,16.11,0.12,24.24,0.12c1.56,0,3.12,0,4.68-0.01c8.65-0.03,16.29-0.07,23.36-0.13c0.51,0,1.01-0.01,1.51-0.01
		c6.07-0.05,11.32-0.09,16.23-1.12c2.95-0.62,4.65-1.51,5.2-2.71C172.47,46.14,172.07,45.13,171.58,44.19z"/>
	<text transform="matrix(1 0 0 1 6.379 46.3159)" class="st7 st8 st6">do Programa Famílias Fortes</text>
</g>
</svg>
