<?xml version="1.0" encoding="utf-8"?>
<!-- Generator: Adobe Illustrator 24.0.1, SVG Export Plug-In . SVG Version: 6.00 Build 0)  -->
<svg version="1.1" id="Camada_1" xmlns="http://www.w3.org/2000/svg" xmlns:xlink="http://www.w3.org/1999/xlink" x="0px" y="0px"
	 viewBox="0 0 310 5.5" style="enable-background:new 0 0 310 5.5;" xml:space="preserve">
<style type="text/css">
	.st0{fill:#F9EC6B;}
</style>
<g>
	<g>
		<g id="XMLID_185_">
			<g>
				<path class="st0" d="M308.8,2.2C291.2,2.4,273.7,3,256.2,3c-15.3,0-30.5-0.2-45.8-0.5c-23.9-0.4-47.8-0.9-71.6-1.3
					c-22.7-0.4-45.3-1-68-1.2C50.2-0.1,29.6,0.4,9,0.2c-2.6,0-5.2-0.1-7.8-0.1c-1.6,0-1.6,2.5,0,2.5C22.1,3.1,43,2.4,63.9,2.5
					c22,0.1,44,0.6,66,1c23.9,0.4,47.8,0.9,71.6,1.3c15.8,0.3,31.7,0.6,47.5,0.6c18.7,0,37.3-0.2,56-0.7c1.3,0,2.5-0.1,3.8-0.1
					C310.4,4.6,310.4,2.1,308.8,2.2L308.8,2.2z"/>
			</g>
		</g>
	</g>
</g>
<g>
</g>
<g>
</g>
<g>
</g>
<g>
</g>
<g>
</g>
<g>
</g>
<g>
</g>
<g>
</g>
<g>
</g>
<g>
</g>
<g>
</g>
<g>
</g>
<g>
</g>
<g>
</g>
<g>
</g>
</svg>
