<?xml version="1.0" encoding="utf-8"?>
<!-- Generator: Adobe Illustrator 24.0.2, SVG Export Plug-In . SVG Version: 6.00 Build 0)  -->
<svg version="1.1" id="Camada_1" xmlns="http://www.w3.org/2000/svg" xmlns:xlink="http://www.w3.org/1999/xlink" x="0px" y="0px"
	 viewBox="0 0 540 74.59" style="enable-background:new 0 0 540 74.59;" xml:space="preserve">
<style type="text/css">
	.st0{fill:#F9EC6B;}
</style>
<g id="XMLID_99_">
	<path class="st0" d="M534.08,72.43c-1.1-4.75-0.76-9.56-1.07-14.39c-0.26-4.15-0.9-8.26-1.95-12.29
		c-2.29-8.76-6.53-15.87-13.67-21.49C501.94,12.1,481.55,8.47,462.43,7.35c-36.35-2.12-72.78-1.56-109.15-0.53
		c-31.61,0.89-64.53,2.11-96.64,3.04c-61.53,1.77-124.28-1.41-186.26-1.57C49.62,8.23,28.87,8.19,8.11,8.1
		C6.38,8.09,4.65,8.09,2.92,8.08c-3.89-0.03-3.9-6.08,0-6.05c3.97,0.03,7.93,0.05,11.9,0.07C145.8,2.86,277.81,6.95,408.88,1.34
		c35.15-1.51,77.87-5.59,108.68,15.59c8.52,5.86,14.61,13.06,18.02,22.89c1.56,4.51,2.5,9.2,3.08,13.93
		c0.69,5.64-0.04,11.54,1.25,17.08C540.79,74.61,534.96,76.23,534.08,72.43z"/>
</g>
</svg>
