<?xml version="1.0" encoding="utf-8"?>
<!-- Generator: Adobe Illustrator 24.0.2, SVG Export Plug-In . SVG Version: 6.00 Build 0)  -->
<svg version="1.1" xmlns="http://www.w3.org/2000/svg" xmlns:xlink="http://www.w3.org/1999/xlink" x="0px" y="0px"
	 viewBox="0 0 500 512.58" style="enable-background:new 0 0 500 512.58;" xml:space="preserve">
<style type="text/css">
	.st0{fill:#DBA723;}
	.st1{fill:#EDE1AE;}
	.st2{fill:#3D3D3D;}
	.st3{font-family:'Livvic-SemiBold';}
	.st4{font-size:18.7061px;}
	.st5{fill:#FFFFFF;}
</style>
<g id="Camada_1">
</g>
<g id="Camada_2">
</g>
<g id="Camada_3">
</g>
<g id="Camada_5">
</g>
<g id="Camada_4">
	<path class="st0" d="M265.43,250.8v-15.17l25.51,21.05l-25.51,24.78v-15.06c-3.79-0.31-7.56-0.81-11.28-1.32
		c-8.98-1.25-17.45-2.43-25.94-0.9c-0.3,0.05-1.2,0.22-1.45,0.45l-4.37-13.41c1.7-1.84,3.46-2.29,4.98-2.56
		c3.14-0.57,6.29-0.79,9.42-0.79c6.07,0,12.11,0.84,18.01,1.66C258.41,250.04,261.94,250.5,265.43,250.8z"/>
	<g>
		<g>
			<g>
				<path class="st1" d="M197.98,105.57c0,32.93-12.13,61.6-44.02,75.13c-22.73,9.65-48.34,9.57-72.95,7.5
					c-11.1-0.93-22.48-2.33-32.27-7.64C7.36,158.13-0.13,81.75,27.9,47.2c6.64-8.18,15.68-14.04,24.92-19.09
					c32.65-17.88,70.11-21.28,102.42-0.59C181.64,44.42,197.98,74.21,197.98,105.57z"/>
			</g>
		</g>
	</g>
	<g>
		<g>
			<path class="st0" d="M96.01,180.61c-8.28,0-16.38-0.5-24.06-1.14c-11.13-0.94-22.87-2.32-33.19-7.92
				c-17.94-9.72-31.21-30.33-36.42-56.54c-6.01-30.25-0.17-61.79,14.89-80.36c7.26-8.95,17.02-14.97,25.61-19.67
				C79.01-4.82,117.21-5,147.63,14.48c27.03,17.31,43.82,47.97,43.82,80.03c0,37.94-15.71,64.67-45.45,77.28
				C129.93,178.61,112.61,180.61,96.01,180.61z M97.87,4.49c-17.13,0-35.01,4.87-52.79,14.61c-8.19,4.48-17.47,10.19-24.23,18.52
				C6.63,55.14,1.17,85.16,6.92,114.11c4.94,24.84,17.35,44.28,34.06,53.34c9.53,5.17,20.72,6.47,31.35,7.37
				c22.53,1.89,48.69,2.5,71.84-7.33c35.21-14.94,42.6-47.93,42.6-72.98c0-30.48-15.96-59.63-41.66-76.09
				C130.6,9.13,114.59,4.49,97.87,4.49z"/>
		</g>
	</g>
	<g>
		<text transform="matrix(1 0 0 1 49.6231 85.2246)"><tspan x="0" y="0" class="st2 st3 st4">Programas</tspan><tspan x="0" y="22.45" class="st2 st3 st4">Interativos</tspan></text>
	</g>
	<g>
		<g>
			<g>
				<path class="st1" d="M202.41,428.83c0,32.93-12.13,61.6-44.02,75.13c-22.73,9.65-48.34,9.57-72.95,7.5
					c-11.1-0.93-22.48-2.33-32.27-7.64C11.79,481.39,4.3,405.01,32.33,370.46c6.64-8.18,15.68-14.04,24.92-19.09
					c32.65-17.88,70.11-21.28,102.42-0.59C186.07,367.68,202.41,397.47,202.41,428.83z"/>
			</g>
		</g>
	</g>
	<g>
		<g>
			<path class="st0" d="M100.44,503.88c-8.28,0-16.38-0.5-24.06-1.14c-11.13-0.94-22.87-2.32-33.19-7.92
				c-17.94-9.72-31.21-30.33-36.42-56.54c-6.01-30.25-0.17-61.79,14.89-80.36c7.26-8.95,17.02-14.97,25.61-19.67
				c36.18-19.81,74.37-20,104.8-0.51c27.03,17.31,43.82,47.97,43.82,80.03c0,37.94-15.71,64.67-45.45,77.28
				C134.36,501.87,117.04,503.88,100.44,503.88z M102.3,327.75c-17.13,0-35.01,4.87-52.79,14.61c-8.19,4.48-17.47,10.19-24.23,18.52
				c-14.22,17.53-19.69,47.55-13.93,76.5c4.94,24.84,17.35,44.28,34.06,53.34c9.53,5.17,20.71,6.47,31.35,7.37
				c22.53,1.89,48.69,2.5,71.84-7.33c35.21-14.94,42.6-47.93,42.6-72.98c0-30.48-15.96-59.63-41.66-76.09
				C135.04,332.39,119.02,327.75,102.3,327.75z"/>
		</g>
	</g>
	<g>
		<text transform="matrix(1 0 0 1 44.9464 392.6348)"><tspan x="0" y="0" class="st2 st3 st4">Programas</tspan><tspan x="0" y="22.45" class="st2 st3 st4">que atingem</tspan><tspan x="0" y="44.89" class="st2 st3 st4">as famílias e a</tspan><tspan x="0" y="67.34" class="st2 st3 st4">comunidade</tspan></text>
	</g>
	<path class="st0" d="M143.51,264.34l-1.27-17.51c-8.81,0.14-17.56,0.97-26.15,1.82c-0.8,0.08-1.59,0.15-2.39,0.23
		c-0.13-1.33-0.25-2.67-0.39-4c-0.89-9.03-1.73-17.77-1.8-26.39L94,219.77c0.14,8.81,0.97,17.56,1.82,26.15
		c0.14,1.46,0.28,2.9,0.42,4.35c-7.18,0.35-14.26,0.3-21.33-0.6c-0.47-0.06-1.91-0.24-2.31-0.51l-6.93,15.08
		c2.7,2.07,5.5,2.58,7.91,2.88c4.99,0.64,9.98,0.89,14.95,0.89c3.01,0,6-0.11,8.99-0.27c0.24,6.51,0.13,12.93-0.69,19.36
		c-0.06,0.47-0.24,1.91-0.51,2.31l15.08,6.93c2.07-2.7,2.58-5.5,2.88-7.91c0.64-4.99,0.89-9.98,0.89-14.95
		c0-2.38-0.06-4.76-0.16-7.13c0.7-0.07,1.41-0.13,2.1-0.2C126.16,265.24,134.9,264.4,143.51,264.34z"/>
	<g>
		<path class="st0" d="M500,256.14c0,32.93-12.13,61.6-44.02,75.13c-22.73,9.65-48.34,9.57-72.95,7.5
			c-11.1-0.93-22.48-2.33-32.27-7.64c-41.37-22.43-48.86-98.82-20.83-133.37c6.64-8.18,15.68-14.04,24.92-19.09
			c32.65-17.88,70.11-21.28,102.42-0.59C483.66,194.99,500,224.78,500,256.14z"/>
	</g>
	<g>
		<text transform="matrix(1 0 0 1 362.0333 218.4932)"><tspan x="0" y="0" class="st5 st3 st4">Maiores </tspan><tspan x="0" y="22.45" class="st5 st3 st4">chances de </tspan><tspan x="0" y="44.89" class="st5 st3 st4">obter</tspan><tspan x="0" y="67.34" class="st5 st3 st4">resultados </tspan><tspan x="0" y="89.79" class="st5 st3 st4">positivos</tspan></text>
	</g>
</g>
</svg>
