<?xml version="1.0" encoding="utf-8"?>
<!-- Generator: Adobe Illustrator 24.0.2, SVG Export Plug-In . SVG Version: 6.00 Build 0)  -->
<svg version="1.1" id="Camada_1" xmlns="http://www.w3.org/2000/svg" xmlns:xlink="http://www.w3.org/1999/xlink" x="0px" y="0px"
	 viewBox="0 0 540 7.72" style="enable-background:new 0 0 540 7.72;" xml:space="preserve">
<style type="text/css">
	.st0{fill:#F9EC6B;}
</style>
<g>
	<g>
		<g id="XMLID_108_">
			<path class="st0" d="M538.79,3.77c-30.67,0.43-61.31,1.42-91.99,1.45c-26.66,0.02-53.3-0.37-79.96-0.86
				c-41.73-0.77-83.46-1.53-125.19-2.3c-39.62-0.73-79.25-1.78-118.87-2.03C86.79-0.19,50.8,0.73,14.81,0.39
				C10.28,0.35,5.74,0.26,1.21,0.16c-1.61-0.04-1.61,2.46,0,2.5c36.48,0.88,73.02-0.3,109.51-0.18c38.46,0.13,76.91,1.09,115.36,1.8
				c41.73,0.77,83.46,1.53,125.19,2.3c27.69,0.51,55.36,1.06,83.05,1.13c32.63,0.08,65.25-0.38,97.86-1.28
				c2.21-0.06,4.41-0.13,6.62-0.16C540.4,6.25,540.4,3.75,538.79,3.77L538.79,3.77z"/>
		</g>
	</g>
</g>
</svg>
