<?xml version="1.0" encoding="utf-8"?>
<!-- Generator: Adobe Illustrator 24.0.2, SVG Export Plug-In . SVG Version: 6.00 Build 0)  -->
<svg version="1.1" xmlns="http://www.w3.org/2000/svg" xmlns:xlink="http://www.w3.org/1999/xlink" x="0px" y="0px"
	 viewBox="0 0 194.91 143.99" style="enable-background:new 0 0 194.91 143.99;" xml:space="preserve">
<style type="text/css">
	.st0{fill:#DBA723;}
	.st1{fill:#E5D389;}
	.st2{fill:#FFFFFF;}
	.st3{font-family:'Livvic-SemiBold';}
	.st4{font-size:11.6991px;}
</style>
<g id="Camada_3">
</g>
<g id="Camada_1">
	<path class="st0" d="M16.66,28.03H0L23.12,0l27.23,28.03H33.81c-0.34,4.17-0.89,8.31-1.46,12.39c-1.37,9.86-2.67,19.17-0.99,28.5
		c0.06,0.33,0.24,1.32,0.5,1.6l-14.73,4.8c-2.02-1.87-2.52-3.81-2.81-5.47c-0.62-3.45-0.87-6.91-0.87-10.35
		c0-6.67,0.92-13.3,1.82-19.79C15.82,35.74,16.33,31.86,16.66,28.03z"/>
	<path class="st1" d="M52.44,115.96H69.1l-23.12,28.03l-27.23-28.03H35.3c0.34-4.17,0.89-8.31,1.46-12.39
		c1.37-9.86,2.67-19.17,0.99-28.5c-0.06-0.33-0.24-1.32-0.5-1.6l14.73-4.8c2.02,1.87,2.52,3.81,2.81,5.47
		c0.62,3.45,0.87,6.91,0.87,10.35c0,6.67-0.92,13.3-1.82,19.79C53.28,108.25,52.78,112.13,52.44,115.96z"/>
	<path class="st1" d="M194.49,96.39c-0.47-2.67-0.33-5.44-0.19-8.12c0.08-1.44,0.15-2.92,0.14-4.38c-0.02-1.99-0.22-4.07-2.33-5.58
		c-1.97-1.42-5.1-1.93-7.62-2.34c-4.68-0.77-9.22-0.68-14.02-0.58c-1.12,0.02-2.27,0.05-3.42,0.06l-0.08,0
		c-5.37,0.05-25.18,0.11-30.64,0.11H99.94c-3.51,0-7.58,0.13-11.19,1.06c-1.55,0.4-3.31,0.83-4.77,2.26
		c-1.36,1.33-1.7,3.89-1.95,7.18c-0.14,1.9-0.28,3.81-0.42,5.71c-0.27,3.65-0.54,7.47-0.06,11.01c0.13,0.94,0.32,1.86,0.63,2.53
		c0.3,0.64,0.7,0.99,1.08,1.29c2.93,2.28,6.23,2.64,9.29,2.66c12.27,0.1,24.27,0.19,36.15,0.17c5.55-0.01,11.2,0.12,16.66,0.24
		c5.22,0.12,10.59,0.24,15.93,0.24c1.03,0,2.05,0,3.08-0.01c5.68-0.06,10.71-0.14,15.35-0.26c0.33-0.01,0.66-0.02,0.99-0.02
		c3.99-0.09,7.44-0.17,10.67-2.19c1.94-1.21,3.06-2.94,3.41-5.3C195.08,100.2,194.82,98.23,194.49,96.39z"/>
	<g>
		<text transform="matrix(1 0 0 1 87.5926 89.1133)"><tspan x="0" y="0" class="st2 st3 st4">transtornos</tspan><tspan x="0" y="14.04" class="st2 st3 st4">comportamentais</tspan></text>
	</g>
	<path class="st0" d="M123.54,24.16c-0.24-2.67-0.17-5.44-0.09-8.12c0.04-1.44,0.08-2.92,0.07-4.38c-0.01-1.99-0.11-4.07-1.19-5.58
		c-1.01-1.42-2.61-1.93-3.9-2.34c-2.4-0.77-4.72-0.68-7.18-0.58c-0.57,0.02-1.16,0.05-1.75,0.06l-0.04,0
		c-2.75,0.05-12.89,0.11-15.68,0.11H75.16c-1.79,0-3.88,0.13-5.72,1.06c-0.79,0.4-1.7,0.83-2.44,2.26c-0.7,1.33-0.87,3.89-1,7.18
		c-0.07,1.9-0.14,3.81-0.22,5.71c-0.14,3.65-0.28,7.47-0.03,11.01c0.07,0.94,0.16,1.86,0.32,2.53c0.15,0.64,0.36,0.99,0.55,1.29
		c1.5,2.28,3.19,2.64,4.75,2.66c6.28,0.1,12.42,0.19,18.5,0.17c2.84-0.01,5.73,0.12,8.52,0.24c2.67,0.12,5.42,0.24,8.15,0.24
		c0.53,0,1.05,0,1.57-0.01c2.91-0.06,5.48-0.14,7.86-0.26c0.17-0.01,0.34-0.02,0.51-0.02c2.04-0.09,3.8-0.17,5.46-2.19
		c0.99-1.21,1.56-2.94,1.75-5.3C123.84,27.96,123.71,26,123.54,24.16z"/>
	<g>
		<text transform="matrix(1 0 0 1 71.9148 16.8789)"><tspan x="0" y="0" class="st2 st3 st4">saúde</tspan><tspan x="0" y="14.04" class="st2 st3 st4">familiar</tspan></text>
	</g>
</g>
<g id="Camada_2">
</g>
</svg>
