<?xml version="1.0" encoding="utf-8"?>
<!-- Generator: Adobe Illustrator 24.0.2, SVG Export Plug-In . SVG Version: 6.00 Build 0)  -->
<svg version="1.1" id="Camada_1" xmlns="http://www.w3.org/2000/svg" xmlns:xlink="http://www.w3.org/1999/xlink" x="0px" y="0px"
	 viewBox="0 0 678.85 708.68" style="enable-background:new 0 0 678.85 708.68;" xml:space="preserve">
<style type="text/css">
	.st0{enable-background:new    ;}
	.st1{fill:#020203;}
	.st2{fill:#545454;}
	.st3{fill:#FFFFFF;}
	.st4{fill:#DBA824;}
	.st5{fill:#F8F8F7;}
</style>
<g class="st0">
	<path class="st1" d="M259.43,169.92l5.84-13.69h2.12l5.61,13.69h-2.54l-1.23-3.13h-5.97l-1.27,3.13H259.43z M264.1,164.69h4.3
		l-2.12-5.38L264.1,164.69z"/>
	<path class="st1" d="M276.95,170.09c-0.92,0-1.63-0.25-2.1-0.75c-0.47-0.5-0.71-1.21-0.71-2.14v-11.55h2.35V167
		c0,0.69,0.32,1.04,0.96,1.04c0.32,0,0.61-0.07,0.85-0.23l0.58,1.72c-0.21,0.16-0.48,0.29-0.83,0.39
		C277.7,170.03,277.33,170.09,276.95,170.09z"/>
	<path class="st1" d="M283.69,170.09c-1.17,0-2.08-0.32-2.73-0.96c-0.65-0.64-0.97-1.49-0.95-2.53l0.07-4.45h-1.66v-1.97h1.7l0.02-2
		h2.35l-0.04,2h3.18v1.97h-3.2l-0.06,4.21c-0.01,0.52,0.12,0.94,0.39,1.24c0.27,0.3,0.69,0.45,1.24,0.45c0.3,0,0.57-0.04,0.83-0.12
		c0.26-0.07,0.52-0.22,0.81-0.42l0.69,1.81c-0.3,0.26-0.67,0.45-1.14,0.58C284.76,170.02,284.25,170.09,283.69,170.09z"/>
	<path class="st1" d="M296.28,160.22v9.7h-2.39l0.07-1.69c-0.35,0.59-0.8,1.05-1.36,1.38s-1.2,0.5-1.92,0.5
		c-0.85,0-1.57-0.2-2.16-0.59c-0.59-0.39-1.04-0.94-1.35-1.63c-0.31-0.69-0.47-1.49-0.47-2.39c0-1.08,0.21-2.03,0.64-2.85
		c0.42-0.81,1.01-1.46,1.74-1.91c0.74-0.47,1.57-0.69,2.5-0.69c0.61,0,1.16,0.13,1.64,0.39c0.47,0.27,0.84,0.61,1.1,1.05l0.23-1.26
		H296.28z M291.77,162.1c-0.8,0-1.43,0.3-1.91,0.91c-0.47,0.61-0.71,1.4-0.71,2.37c0,0.84,0.18,1.49,0.54,1.94
		c0.36,0.47,0.86,0.69,1.49,0.69c0.51,0,0.98-0.15,1.4-0.44c0.41-0.3,0.75-0.71,0.99-1.23c0.24-0.52,0.37-1.13,0.37-1.81
		c0-0.76-0.19-1.35-0.58-1.78C292.97,162.32,292.44,162.1,291.77,162.1z"/>
	<path class="st1" d="M314.45,167.52l0.58,1.94c-0.26,0.19-0.57,0.35-0.95,0.45c-0.37,0.11-0.77,0.16-1.18,0.16
		c-1.44,0-2.57-0.64-3.39-1.91l-1.99-3.05c-0.21-0.32-0.42-0.55-0.64-0.67c-0.22-0.13-0.46-0.19-0.71-0.19h-0.1v5.65h-2.45v-13.69
		h4.26c1.74,0,3.05,0.36,3.94,1.08s1.34,1.71,1.34,2.97c0,0.76-0.17,1.41-0.5,1.96c-0.33,0.55-0.79,0.98-1.37,1.3
		c-0.58,0.33-1.23,0.52-1.97,0.61c0.38,0.21,0.74,0.55,1.06,1.04l1.08,1.6c0.28,0.41,0.55,0.69,0.8,0.85s0.57,0.23,0.95,0.23
		C313.68,167.87,314.09,167.75,314.45,167.52z M307.72,158.26h-1.64v4.03h1.52c1.06,0,1.83-0.16,2.34-0.48
		c0.5-0.32,0.75-0.84,0.75-1.55C310.68,158.94,309.69,158.26,307.72,158.26z"/>
	<path class="st1" d="M320.12,170.09c-1.06,0-1.97-0.2-2.73-0.59s-1.35-0.95-1.77-1.69c-0.41-0.73-0.61-1.6-0.61-2.62
		s0.21-1.91,0.64-2.69s1-1.38,1.72-1.82c0.72-0.44,1.55-0.66,2.48-0.66c1.5,0,2.61,0.51,3.33,1.53c0.71,1.02,0.96,2.43,0.74,4.23
		h-6.52c0.05,0.68,0.33,1.23,0.83,1.64c0.5,0.41,1.19,0.61,2.06,0.61c0.41,0,0.83-0.09,1.24-0.27c0.41-0.18,0.78-0.46,1.07-0.83
		l1.37,1.39c-0.44,0.55-0.97,0.98-1.59,1.29C321.76,169.93,321,170.09,320.12,170.09z M319.88,161.8c-0.66,0-1.2,0.21-1.62,0.61
		c-0.42,0.41-0.69,0.96-0.81,1.66h4.44c0.02-0.8-0.15-1.37-0.52-1.74C321,161.98,320.5,161.8,319.88,161.8z"/>
	<path class="st1" d="M329.35,170.09c-1.34,0-2.36-0.25-3.07-0.76c-0.71-0.51-1.12-1.22-1.23-2.13l1.99-0.48
		c0.07,0.49,0.3,0.86,0.67,1.13s0.91,0.39,1.6,0.39c0.57,0,0.99-0.09,1.28-0.27c0.29-0.18,0.44-0.42,0.44-0.73
		c0-0.31-0.16-0.55-0.47-0.71c-0.32-0.17-0.8-0.32-1.46-0.44c-0.73-0.14-1.36-0.32-1.88-0.54c-0.52-0.22-0.92-0.52-1.2-0.89
		c-0.27-0.38-0.41-0.88-0.41-1.49c0-0.59,0.17-1.12,0.5-1.59c0.33-0.47,0.79-0.84,1.37-1.12c0.58-0.27,1.26-0.41,2.02-0.41
		c1.01,0,1.85,0.24,2.5,0.71s1.03,1.09,1.17,1.83l-1.94,0.52c-0.09-0.37-0.28-0.67-0.58-0.88c-0.3-0.21-0.69-0.32-1.2-0.32
		s-0.89,0.1-1.15,0.31c-0.27,0.21-0.39,0.47-0.39,0.77c0,0.3,0.15,0.55,0.45,0.72s0.82,0.34,1.55,0.5c0.68,0.14,1.28,0.32,1.78,0.53
		c0.51,0.21,0.91,0.5,1.2,0.86c0.3,0.37,0.44,0.86,0.44,1.48c0,0.61-0.17,1.13-0.51,1.59c-0.34,0.46-0.81,0.81-1.42,1.06
		C330.81,169.96,330.12,170.09,329.35,170.09z"/>
	<path class="st1" d="M335.04,173.77v-13.59h2.37l-0.07,1.74c0.35-0.61,0.8-1.07,1.35-1.4c0.55-0.33,1.2-0.5,1.93-0.5
		c0.86,0,1.59,0.2,2.18,0.6c0.59,0.4,1.04,0.95,1.35,1.64c0.31,0.69,0.47,1.49,0.47,2.37c0,1.08-0.21,2.03-0.64,2.85
		s-1.01,1.46-1.74,1.92c-0.74,0.46-1.57,0.69-2.51,0.69c-0.49,0-0.93-0.08-1.33-0.25c-0.4-0.17-0.73-0.39-1.01-0.67l0.02,0.75v3.86
		h-2.37V173.77z M339.53,168.02c0.81,0,1.45-0.31,1.93-0.92c0.47-0.61,0.72-1.41,0.72-2.39c0-0.82-0.18-1.46-0.54-1.91
		c-0.36-0.46-0.86-0.69-1.49-0.69c-0.52,0-1,0.15-1.4,0.44c-0.41,0.29-0.74,0.69-0.98,1.21c-0.24,0.52-0.37,1.12-0.37,1.8
		c0,0.76,0.19,1.36,0.58,1.8C338.35,167.8,338.87,168.02,339.53,168.02z"/>
	<path class="st1" d="M351.22,160.02c1.45,0,2.59,0.44,3.42,1.3s1.24,2.04,1.24,3.52c0,1.01-0.21,1.9-0.63,2.69
		c-0.42,0.79-1.01,1.41-1.77,1.87c-0.76,0.46-1.64,0.69-2.64,0.69c-1.45,0-2.59-0.43-3.42-1.29c-0.83-0.86-1.24-2.04-1.24-3.53
		c0-1.01,0.21-1.9,0.63-2.69c0.41-0.79,1.01-1.41,1.75-1.87C349.32,160.25,350.2,160.02,351.22,160.02z M350.92,168.02
		c0.76,0,1.37-0.29,1.83-0.86c0.47-0.58,0.69-1.35,0.69-2.31c0-0.87-0.2-1.55-0.61-2.03c-0.41-0.47-0.96-0.72-1.67-0.72
		c-0.78,0-1.4,0.29-1.87,0.86s-0.69,1.35-0.69,2.29c0,0.87,0.2,1.55,0.61,2.03C349.62,167.78,350.19,168.02,350.92,168.02z"/>
	<path class="st1" d="M357.92,169.92v-9.74h2.35l-0.12,2.45c0.37-0.84,0.88-1.48,1.52-1.93c0.64-0.45,1.37-0.67,2.2-0.67
		c1.09,0,1.92,0.38,2.48,1.13c0.56,0.75,0.84,1.83,0.82,3.23l-0.04,5.54h-2.35l0.04-5.34c0.01-0.76-0.1-1.34-0.35-1.74
		s-0.65-0.61-1.2-0.61c-0.42,0-0.81,0.13-1.18,0.37c-0.36,0.24-0.67,0.66-0.95,1.24c-0.27,0.58-0.48,1.38-0.64,2.37
		c-0.16,1-0.24,2.23-0.25,3.71h-2.33V169.92z"/>
	<path class="st1" d="M372.96,170.09c-1.34,0-2.36-0.25-3.07-0.76c-0.71-0.51-1.12-1.22-1.23-2.13l1.99-0.48
		c0.07,0.49,0.3,0.86,0.67,1.13c0.37,0.27,0.91,0.39,1.6,0.39c0.56,0,0.99-0.09,1.28-0.27c0.29-0.18,0.44-0.42,0.44-0.73
		c0-0.31-0.16-0.55-0.47-0.71c-0.32-0.17-0.8-0.32-1.46-0.44c-0.73-0.14-1.36-0.32-1.88-0.54c-0.52-0.22-0.92-0.52-1.2-0.89
		c-0.27-0.38-0.41-0.88-0.41-1.49c0-0.59,0.17-1.12,0.5-1.59c0.33-0.47,0.79-0.84,1.38-1.12c0.58-0.27,1.26-0.41,2.02-0.41
		c1.01,0,1.85,0.24,2.5,0.71s1.03,1.09,1.17,1.83l-1.94,0.52c-0.09-0.37-0.28-0.67-0.58-0.88c-0.3-0.21-0.69-0.32-1.2-0.32
		c-0.5,0-0.89,0.1-1.15,0.31c-0.27,0.21-0.4,0.47-0.4,0.77c0,0.3,0.15,0.55,0.45,0.72c0.3,0.17,0.82,0.34,1.55,0.5
		c0.68,0.14,1.27,0.32,1.78,0.53c0.51,0.21,0.91,0.5,1.2,0.86c0.3,0.37,0.44,0.86,0.44,1.48c0,0.61-0.17,1.13-0.51,1.59
		c-0.34,0.46-0.81,0.81-1.42,1.06C374.42,169.96,373.73,170.09,372.96,170.09z"/>
	<path class="st1" d="M379.83,158.63c-0.47,0-0.83-0.14-1.1-0.42s-0.41-0.62-0.41-1.02c0-0.4,0.13-0.74,0.41-1.02
		c0.27-0.28,0.64-0.42,1.1-0.42s0.83,0.14,1.1,0.42c0.27,0.28,0.41,0.62,0.41,1.02c0,0.4-0.13,0.74-0.41,1.02
		C380.65,158.49,380.28,158.63,379.83,158.63z M381,160.17v9.74h-2.35v-9.74H381z"/>
	<path class="st1" d="M390.23,160.17h2.35l-3.64,9.74h-3.36l-3.08-9.74h2.54l2.35,7.83L390.23,160.17z"/>
	<path class="st1" d="M394.79,158.63c-0.47,0-0.83-0.14-1.1-0.42c-0.27-0.28-0.41-0.62-0.41-1.02c0-0.4,0.13-0.74,0.41-1.02
		c0.27-0.28,0.64-0.42,1.1-0.42s0.83,0.14,1.1,0.42c0.27,0.28,0.41,0.62,0.41,1.02c0,0.4-0.13,0.74-0.41,1.02
		C395.62,158.49,395.25,158.63,394.79,158.63z M395.96,160.17v9.74h-2.35v-9.74H395.96z"/>
	<path class="st1" d="M407.57,155.65v14.27h-2.39l0.07-1.69c-0.35,0.61-0.8,1.06-1.35,1.39c-0.55,0.32-1.2,0.48-1.93,0.48
		c-0.85,0-1.57-0.2-2.16-0.59c-0.59-0.39-1.04-0.94-1.35-1.63c-0.31-0.69-0.47-1.49-0.47-2.39c0-1.08,0.21-2.03,0.64-2.85
		c0.42-0.81,1.01-1.46,1.74-1.91c0.74-0.46,1.57-0.69,2.5-0.69c0.49,0,0.93,0.08,1.34,0.25c0.41,0.17,0.74,0.4,1.01,0.69l-0.02-0.79
		v-4.53L407.57,155.65L407.57,155.65z M403.06,162.1c-0.8,0-1.43,0.3-1.91,0.91s-0.71,1.4-0.71,2.37c0,0.84,0.18,1.49,0.54,1.94
		c0.36,0.47,0.86,0.69,1.49,0.69c0.52,0,0.98-0.15,1.4-0.44s0.75-0.71,0.99-1.23s0.37-1.13,0.37-1.81c0-0.76-0.19-1.35-0.58-1.78
		C404.27,162.32,403.73,162.1,403.06,162.1z"/>
	<path class="st1" d="M419.18,160.22v9.7h-2.39l0.07-1.69c-0.35,0.59-0.8,1.05-1.36,1.38s-1.2,0.5-1.91,0.5
		c-0.85,0-1.57-0.2-2.16-0.59c-0.59-0.39-1.04-0.94-1.35-1.63c-0.31-0.69-0.47-1.49-0.47-2.39c0-1.08,0.21-2.03,0.64-2.85
		c0.42-0.81,1.01-1.46,1.74-1.91c0.74-0.46,1.57-0.69,2.5-0.69c0.61,0,1.16,0.13,1.64,0.39c0.47,0.27,0.84,0.61,1.1,1.05l0.23-1.26
		H419.18z M414.67,162.1c-0.8,0-1.43,0.3-1.91,0.91c-0.47,0.61-0.71,1.4-0.71,2.37c0,0.84,0.18,1.49,0.54,1.94
		c0.36,0.47,0.86,0.69,1.49,0.69c0.52,0,0.98-0.15,1.4-0.44c0.41-0.3,0.75-0.71,0.99-1.23s0.37-1.13,0.37-1.81
		c0-0.76-0.19-1.35-0.58-1.78C415.87,162.32,415.33,162.1,414.67,162.1z"/>
	<path class="st1" d="M430.78,155.65v14.27h-2.39l0.07-1.69c-0.35,0.61-0.8,1.06-1.35,1.39c-0.55,0.32-1.2,0.48-1.93,0.48
		c-0.85,0-1.57-0.2-2.16-0.59c-0.59-0.39-1.04-0.94-1.35-1.63c-0.31-0.69-0.47-1.49-0.47-2.39c0-1.08,0.21-2.03,0.64-2.85
		c0.42-0.81,1.01-1.46,1.74-1.91c0.74-0.46,1.57-0.69,2.5-0.69c0.49,0,0.93,0.08,1.34,0.25c0.41,0.17,0.74,0.4,1.01,0.69l-0.02-0.79
		v-4.53L430.78,155.65L430.78,155.65z M426.27,162.1c-0.8,0-1.43,0.3-1.91,0.91c-0.47,0.61-0.71,1.4-0.71,2.37
		c0,0.84,0.18,1.49,0.54,1.94c0.36,0.47,0.86,0.69,1.49,0.69c0.52,0,0.98-0.15,1.4-0.44s0.75-0.71,0.99-1.23
		c0.24-0.52,0.37-1.13,0.37-1.81c0-0.76-0.19-1.35-0.58-1.78C427.48,162.32,426.94,162.1,426.27,162.1z"/>
	<path class="st1" d="M437.94,170.09c-1.06,0-1.97-0.2-2.73-0.59s-1.35-0.95-1.77-1.69c-0.41-0.73-0.61-1.6-0.61-2.62
		s0.21-1.91,0.64-2.69c0.42-0.78,1-1.38,1.72-1.82c0.72-0.44,1.55-0.66,2.48-0.66c1.51,0,2.61,0.51,3.33,1.53s0.96,2.43,0.74,4.23
		h-6.52c0.05,0.68,0.33,1.23,0.83,1.64c0.5,0.41,1.19,0.61,2.06,0.61c0.41,0,0.83-0.09,1.24-0.27c0.42-0.18,0.78-0.46,1.07-0.83
		l1.37,1.39c-0.44,0.55-0.97,0.98-1.59,1.29C439.58,169.93,438.83,170.09,437.94,170.09z M437.7,161.8c-0.66,0-1.2,0.21-1.62,0.61
		c-0.42,0.41-0.69,0.96-0.81,1.66h4.44c0.03-0.8-0.15-1.37-0.52-1.74C438.82,161.98,438.32,161.8,437.7,161.8z"/>
</g>
<g class="st0">
	<path class="st1" d="M594.94,417.01l5.84-13.69h2.12l5.61,13.69h-2.54l-1.23-3.13h-5.97l-1.27,3.13H594.94z M599.63,411.79h4.3
		l-2.12-5.38L599.63,411.79z"/>
	<path class="st1" d="M612.47,417.18c-0.92,0-1.63-0.25-2.1-0.75c-0.47-0.5-0.71-1.21-0.71-2.14v-11.55h2.35v11.35
		c0,0.69,0.32,1.04,0.96,1.04c0.32,0,0.61-0.07,0.85-0.23l0.58,1.72c-0.21,0.16-0.48,0.29-0.83,0.39
		C613.22,417.13,612.85,417.18,612.47,417.18z"/>
	<path class="st1" d="M619.22,417.18c-1.17,0-2.08-0.32-2.73-0.96c-0.65-0.64-0.97-1.49-0.95-2.53l0.07-4.45h-1.66v-1.97h1.69
		l0.02-2h2.35l-0.04,2h3.18v1.97h-3.2l-0.06,4.21c-0.01,0.52,0.12,0.94,0.4,1.24c0.27,0.3,0.69,0.45,1.24,0.45
		c0.3,0,0.57-0.04,0.83-0.12c0.26-0.07,0.52-0.21,0.81-0.42l0.69,1.81c-0.3,0.26-0.67,0.45-1.14,0.58
		C620.27,417.12,619.77,417.18,619.22,417.18z"/>
	<path class="st1" d="M631.8,407.32v9.7h-2.39l0.07-1.69c-0.35,0.59-0.8,1.05-1.36,1.38c-0.56,0.33-1.2,0.5-1.91,0.5
		c-0.85,0-1.57-0.19-2.16-0.58c-0.59-0.39-1.04-0.93-1.35-1.63s-0.47-1.49-0.47-2.39c0-1.08,0.21-2.03,0.64-2.85
		c0.42-0.81,1.01-1.46,1.74-1.91s1.57-0.69,2.5-0.69c0.61,0,1.16,0.13,1.64,0.4c0.47,0.27,0.84,0.61,1.1,1.05l0.23-1.26h1.72V407.32
		z M627.3,409.2c-0.8,0-1.43,0.3-1.91,0.91c-0.47,0.61-0.71,1.4-0.71,2.37c0,0.84,0.18,1.49,0.54,1.94
		c0.36,0.47,0.86,0.69,1.49,0.69c0.52,0,0.98-0.15,1.4-0.44c0.41-0.3,0.75-0.71,0.99-1.23c0.24-0.52,0.37-1.13,0.37-1.81
		c0-0.76-0.19-1.35-0.58-1.78C628.49,409.42,627.96,409.2,627.3,409.2z"/>
</g>
<g class="st0">
	<path class="st1" d="M605.35,428.62h-6.36v3.53h6.05v2.16h-6.05v3.68h6.59l-0.17,2.16h-8.87v-13.69h8.81V428.62z"/>
	<path class="st1" d="M608.4,440.15h-2.74l3.61-4.95l-3.42-4.78h2.85l2,2.82l2.03-2.82h2.74l-3.45,4.69l3.59,5.05h-2.88l-2.14-3.1
		L608.4,440.15z"/>
	<path class="st1" d="M617.92,428.87c-0.47,0-0.83-0.14-1.1-0.42c-0.27-0.28-0.41-0.62-0.41-1.02s0.13-0.74,0.41-1.02
		c0.27-0.28,0.64-0.42,1.1-0.42s0.83,0.14,1.1,0.42c0.27,0.28,0.41,0.62,0.41,1.02s-0.13,0.74-0.41,1.02
		C618.75,428.73,618.39,428.87,617.92,428.87z M619.1,430.42v9.74h-2.35v-9.74H619.1z"/>
	<path class="st1" d="M625.11,444.2c-0.57,0-1.18-0.06-1.82-0.17c-0.64-0.11-1.18-0.31-1.61-0.58l0.58-2.04
		c0.42,0.21,0.89,0.39,1.38,0.52c0.5,0.13,1.03,0.19,1.59,0.19c1.15,0,1.95-0.27,2.43-0.81c0.47-0.54,0.74-1.39,0.79-2.54l0.04-0.6
		c-0.36,0.61-0.81,1.06-1.36,1.38c-0.55,0.32-1.18,0.47-1.91,0.47c-0.87,0-1.62-0.18-2.23-0.56c-0.61-0.37-1.07-0.89-1.38-1.56
		c-0.31-0.67-0.47-1.43-0.47-2.29c0-1.04,0.21-1.97,0.63-2.76c0.41-0.81,1-1.43,1.74-1.89c0.74-0.46,1.59-0.69,2.56-0.69
		c0.64,0,1.2,0.13,1.68,0.4c0.47,0.27,0.84,0.61,1.1,1.05l0.23-1.26h1.72v8.02c0,1.91-0.5,3.35-1.5,4.3
		C628.28,443.73,626.89,444.2,625.11,444.2z M626.23,432.35c-0.81,0-1.46,0.29-1.94,0.86c-0.48,0.58-0.72,1.32-0.72,2.24
		c0,0.8,0.18,1.41,0.56,1.85c0.37,0.44,0.88,0.66,1.52,0.66c0.52,0,1-0.15,1.42-0.44c0.42-0.29,0.75-0.69,0.99-1.18
		c0.24-0.5,0.37-1.06,0.37-1.69c0-0.72-0.2-1.28-0.6-1.69S626.9,432.35,626.23,432.35z"/>
	<path class="st1" d="M637.93,440.33c-1.06,0-1.97-0.19-2.73-0.58c-0.76-0.39-1.35-0.95-1.77-1.69c-0.41-0.73-0.61-1.6-0.61-2.62
		c0-1.01,0.21-1.91,0.64-2.69c0.42-0.78,1-1.38,1.72-1.82c0.72-0.44,1.55-0.66,2.48-0.66c1.51,0,2.61,0.51,3.33,1.53
		c0.72,1.02,0.96,2.43,0.74,4.23h-6.52c0.05,0.68,0.33,1.23,0.83,1.64c0.5,0.41,1.19,0.61,2.06,0.61c0.41,0,0.83-0.09,1.24-0.27
		c0.42-0.18,0.78-0.46,1.07-0.83l1.37,1.39c-0.44,0.55-0.97,0.98-1.59,1.29C639.57,440.18,638.82,440.33,637.93,440.33z
		 M641.13,429.11h-2.22l-1.29-1.74l-1.29,1.74h-2.22l2.53-3.22h1.97L641.13,429.11z M637.7,432.04c-0.66,0-1.2,0.21-1.62,0.61
		c-0.42,0.41-0.69,0.96-0.81,1.66h4.44c0.03-0.8-0.15-1.37-0.52-1.74C638.81,432.21,638.32,432.04,637.7,432.04z"/>
	<path class="st1" d="M643.76,440.15v-9.74h2.35l-0.12,2.45c0.37-0.84,0.88-1.48,1.52-1.93s1.38-0.67,2.2-0.67
		c1.09,0,1.92,0.38,2.48,1.13c0.56,0.75,0.84,1.83,0.82,3.23l-0.04,5.54h-2.35l0.04-5.34c0.01-0.76-0.1-1.34-0.35-1.74
		c-0.25-0.41-0.65-0.61-1.2-0.61c-0.42,0-0.81,0.13-1.18,0.37c-0.36,0.24-0.67,0.66-0.95,1.24s-0.48,1.37-0.64,2.37
		c-0.16,1-0.24,2.23-0.25,3.71h-2.33V440.15z"/>
	<path class="st1" d="M659.72,440.33c-1.48,0-2.65-0.43-3.51-1.28c-0.86-0.86-1.29-2.05-1.29-3.58c0-1.03,0.21-1.94,0.64-2.72
		c0.42-0.78,1.01-1.4,1.77-1.83c0.76-0.44,1.63-0.66,2.62-0.66c0.82,0,1.55,0.16,2.16,0.48c0.61,0.32,1.12,0.82,1.5,1.5l-1.68,1.27
		c-0.24-0.41-0.52-0.71-0.84-0.89c-0.32-0.18-0.69-0.27-1.15-0.27c-0.76,0-1.37,0.28-1.86,0.85c-0.48,0.56-0.72,1.31-0.72,2.24
		c0,0.9,0.21,1.59,0.64,2.07c0.43,0.48,1.05,0.72,1.86,0.72c0.42,0,0.82-0.1,1.18-0.29c0.37-0.19,0.67-0.5,0.92-0.91l1.64,1.31
		c-0.44,0.71-0.99,1.21-1.66,1.52S660.55,440.33,659.72,440.33z"/>
	<path class="st1" d="M666.06,428.87c-0.47,0-0.83-0.14-1.1-0.42c-0.27-0.28-0.41-0.62-0.41-1.02s0.13-0.74,0.41-1.02
		c0.27-0.28,0.64-0.42,1.1-0.42s0.83,0.14,1.1,0.42c0.27,0.28,0.41,0.62,0.41,1.02s-0.13,0.74-0.41,1.02
		C666.89,428.73,666.53,428.87,666.06,428.87z M667.24,430.42v9.74h-2.35v-9.74H667.24z"/>
	<path class="st1" d="M678.85,430.45v9.7h-2.39l0.07-1.69c-0.35,0.59-0.8,1.05-1.36,1.38c-0.56,0.33-1.2,0.5-1.91,0.5
		c-0.85,0-1.57-0.19-2.16-0.58c-0.59-0.39-1.04-0.93-1.35-1.63s-0.47-1.49-0.47-2.39c0-1.08,0.21-2.03,0.64-2.85
		c0.42-0.81,1.01-1.46,1.74-1.91s1.57-0.69,2.5-0.69c0.61,0,1.16,0.13,1.64,0.4c0.47,0.27,0.84,0.61,1.1,1.05l0.23-1.26h1.72V430.45
		z M674.33,432.35c-0.8,0-1.43,0.3-1.91,0.91c-0.47,0.61-0.71,1.4-0.71,2.37c0,0.84,0.18,1.49,0.54,1.94
		c0.36,0.47,0.86,0.69,1.49,0.69c0.52,0,0.98-0.15,1.4-0.44c0.41-0.3,0.75-0.71,0.99-1.23c0.24-0.52,0.37-1.13,0.37-1.81
		c0-0.76-0.19-1.35-0.58-1.78C675.53,432.56,675.01,432.35,674.33,432.35z"/>
</g>
<g class="st0">
	<path class="st1" d="M40.35,417.01v-13.69h4.55c1.74,0,3.07,0.32,4,0.95c0.93,0.64,1.4,1.57,1.4,2.79c0,0.66-0.16,1.25-0.48,1.77
		c-0.32,0.52-0.78,0.94-1.37,1.23c0.63,0.24,1.13,0.64,1.5,1.17c0.37,0.53,0.56,1.15,0.56,1.86c0,1.2-0.44,2.14-1.33,2.85
		c-0.89,0.71-2.1,1.06-3.64,1.06H40.35z M44.94,405.37H42.8v3.72h2.1c0.98,0,1.7-0.15,2.18-0.45c0.47-0.3,0.71-0.79,0.71-1.46
		c0-0.61-0.23-1.07-0.69-1.37C46.65,405.52,45.93,405.37,44.94,405.37z M42.8,414.97h2.68c0.78,0,1.4-0.16,1.86-0.47
		c0.46-0.31,0.69-0.8,0.69-1.46c0-1.25-0.86-1.87-2.6-1.87H42.8V414.97z"/>
	<path class="st1" d="M61.5,407.32v9.7h-2.39l0.07-1.69c-0.35,0.59-0.8,1.05-1.36,1.38c-0.56,0.33-1.2,0.5-1.92,0.5
		c-0.85,0-1.57-0.19-2.16-0.58c-0.59-0.39-1.04-0.93-1.35-1.63c-0.31-0.69-0.47-1.49-0.47-2.39c0-1.08,0.21-2.03,0.64-2.85
		c0.42-0.81,1.01-1.46,1.74-1.91c0.74-0.47,1.57-0.69,2.5-0.69c0.61,0,1.16,0.13,1.64,0.4c0.47,0.27,0.84,0.61,1.1,1.05l0.23-1.26
		h1.72V407.32z M56.99,409.21c-0.8,0-1.43,0.3-1.91,0.91c-0.47,0.61-0.71,1.4-0.71,2.37c0,0.84,0.18,1.49,0.54,1.94
		c0.36,0.47,0.86,0.69,1.49,0.69c0.51,0,0.98-0.15,1.4-0.44c0.41-0.3,0.75-0.71,0.99-1.23c0.24-0.52,0.37-1.13,0.37-1.81
		c0-0.76-0.19-1.35-0.58-1.78C58.18,409.42,57.66,409.21,56.99,409.21z"/>
	<path class="st1" d="M65.18,405.73c-0.47,0-0.83-0.14-1.1-0.42c-0.27-0.28-0.41-0.62-0.41-1.02s0.13-0.74,0.41-1.02
		c0.27-0.28,0.64-0.42,1.1-0.42s0.83,0.14,1.1,0.42c0.27,0.28,0.41,0.62,0.41,1.02s-0.13,0.74-0.41,1.02S65.65,405.73,65.18,405.73z
		 M66.36,407.28v9.74h-2.35v-9.74H66.36z"/>
	<path class="st1" d="M70.18,417.01h-2.74l3.61-4.95l-3.42-4.78h2.85l2,2.82l2.03-2.82h2.74l-3.45,4.69l3.59,5.05h-2.88l-2.14-3.1
		L70.18,417.01z"/>
	<path class="st1" d="M87.18,407.32v9.7h-2.39l0.07-1.69c-0.35,0.59-0.8,1.05-1.36,1.38c-0.56,0.33-1.2,0.5-1.92,0.5
		c-0.85,0-1.57-0.19-2.16-0.58c-0.59-0.39-1.04-0.93-1.35-1.63c-0.31-0.69-0.47-1.49-0.47-2.39c0-1.08,0.21-2.03,0.64-2.85
		c0.42-0.81,1.01-1.46,1.74-1.91c0.74-0.47,1.57-0.69,2.5-0.69c0.61,0,1.16,0.13,1.64,0.4c0.47,0.27,0.84,0.61,1.1,1.05l0.23-1.26
		h1.72V407.32z M82.67,409.21c-0.8,0-1.43,0.3-1.91,0.91c-0.47,0.61-0.71,1.4-0.71,2.37c0,0.84,0.18,1.49,0.54,1.94
		c0.36,0.47,0.86,0.69,1.49,0.69c0.51,0,0.98-0.15,1.4-0.44c0.41-0.3,0.75-0.71,0.99-1.23c0.24-0.52,0.37-1.13,0.37-1.81
		c0-0.76-0.19-1.35-0.58-1.78C83.86,409.42,83.34,409.21,82.67,409.21z"/>
</g>
<g class="st0">
	<path class="st1" d="M13.94,428.63H7.58v3.53h6.05v2.16H7.58v3.68h6.59L14,440.15H5.13v-13.68h8.81V428.63z"/>
	<path class="st1" d="M16.99,440.15h-2.74l3.61-4.95l-3.42-4.78h2.85l2,2.82l2.03-2.82h2.74l-3.45,4.69l3.59,5.05h-2.88l-2.14-3.1
		L16.99,440.15z"/>
	<path class="st1" d="M26.51,428.88c-0.47,0-0.83-0.14-1.1-0.42c-0.27-0.28-0.41-0.62-0.41-1.02s0.13-0.74,0.41-1.02
		c0.27-0.28,0.64-0.42,1.1-0.42c0.47,0,0.83,0.14,1.1,0.42c0.27,0.28,0.41,0.62,0.41,1.02s-0.13,0.74-0.41,1.02
		C27.34,428.74,26.98,428.88,26.51,428.88z M27.69,430.42v9.74h-2.35v-9.74H27.69z"/>
	<path class="st1" d="M33.7,444.2c-0.57,0-1.18-0.06-1.82-0.17c-0.65-0.12-1.18-0.31-1.61-0.58l0.58-2.04
		c0.42,0.21,0.89,0.39,1.37,0.52c0.5,0.13,1.03,0.19,1.59,0.19c1.15,0,1.95-0.27,2.43-0.81c0.47-0.54,0.74-1.39,0.79-2.54l0.04-0.6
		c-0.36,0.61-0.81,1.06-1.36,1.38s-1.18,0.47-1.92,0.47c-0.87,0-1.62-0.18-2.23-0.56c-0.61-0.37-1.07-0.89-1.37-1.56
		c-0.31-0.67-0.47-1.43-0.47-2.29c0-1.04,0.21-1.97,0.63-2.76c0.41-0.81,1-1.43,1.74-1.89c0.74-0.46,1.59-0.69,2.56-0.69
		c0.64,0,1.2,0.13,1.68,0.4c0.47,0.27,0.84,0.61,1.1,1.05l0.23-1.26h1.72v8.02c0,1.91-0.5,3.35-1.5,4.3
		C36.87,443.73,35.48,444.2,33.7,444.2z M34.82,432.35c-0.81,0-1.46,0.29-1.94,0.86c-0.48,0.58-0.72,1.32-0.72,2.24
		c0,0.8,0.18,1.41,0.56,1.85c0.37,0.44,0.88,0.66,1.52,0.66c0.52,0,1-0.15,1.42-0.44c0.41-0.29,0.75-0.69,0.99-1.18
		c0.24-0.5,0.37-1.06,0.37-1.69c0-0.72-0.2-1.28-0.6-1.69C36.03,432.55,35.49,432.35,34.82,432.35z"/>
	<path class="st1" d="M46.52,440.33c-1.06,0-1.97-0.19-2.73-0.58c-0.76-0.39-1.35-0.95-1.77-1.69c-0.41-0.73-0.61-1.6-0.61-2.62
		c0-1.01,0.21-1.91,0.64-2.69c0.42-0.78,1-1.38,1.72-1.82c0.72-0.44,1.55-0.66,2.48-0.66c1.5,0,2.61,0.51,3.33,1.53
		c0.71,1.02,0.96,2.43,0.74,4.23H43.8c0.05,0.68,0.33,1.23,0.83,1.64s1.19,0.61,2.06,0.61c0.41,0,0.83-0.09,1.24-0.27
		c0.41-0.18,0.78-0.46,1.07-0.83l1.37,1.39c-0.44,0.55-0.97,0.98-1.59,1.29C48.16,440.18,47.41,440.33,46.52,440.33z M49.72,429.11
		h-2.22l-1.29-1.74l-1.29,1.74H42.7l2.53-3.22h1.97L49.72,429.11z M46.29,432.04c-0.66,0-1.2,0.21-1.62,0.61
		c-0.42,0.41-0.69,0.96-0.81,1.66h4.44c0.02-0.8-0.15-1.37-0.52-1.74C47.4,432.22,46.91,432.04,46.29,432.04z"/>
	<path class="st1" d="M52.35,440.15v-9.74h2.35l-0.12,2.45c0.37-0.84,0.88-1.48,1.52-1.93c0.64-0.45,1.37-0.67,2.2-0.67
		c1.09,0,1.91,0.38,2.48,1.13c0.56,0.75,0.84,1.83,0.82,3.23l-0.04,5.54h-2.35l0.04-5.34c0.01-0.76-0.1-1.34-0.35-1.74
		c-0.25-0.41-0.65-0.61-1.2-0.61c-0.42,0-0.81,0.13-1.18,0.37c-0.36,0.24-0.67,0.66-0.95,1.24s-0.48,1.37-0.64,2.37
		c-0.16,1-0.24,2.23-0.25,3.71h-2.33V440.15z"/>
	<path class="st1" d="M68.31,440.33c-1.48,0-2.65-0.43-3.51-1.28c-0.86-0.86-1.29-2.05-1.29-3.58c0-1.03,0.21-1.94,0.64-2.72
		c0.42-0.78,1.01-1.4,1.77-1.83c0.76-0.44,1.63-0.66,2.62-0.66c0.82,0,1.55,0.16,2.16,0.48c0.61,0.32,1.12,0.82,1.5,1.5l-1.68,1.27
		c-0.24-0.41-0.52-0.71-0.84-0.89c-0.32-0.18-0.69-0.27-1.15-0.27c-0.76,0-1.37,0.28-1.86,0.85c-0.48,0.56-0.72,1.31-0.72,2.24
		c0,0.9,0.21,1.59,0.64,2.07c0.43,0.48,1.05,0.72,1.86,0.72c0.42,0,0.82-0.1,1.18-0.29s0.67-0.5,0.92-0.91l1.64,1.31
		c-0.44,0.71-0.99,1.21-1.66,1.52C69.88,440.18,69.14,440.33,68.31,440.33z"/>
	<path class="st1" d="M74.65,428.88c-0.47,0-0.83-0.14-1.1-0.42c-0.27-0.28-0.41-0.62-0.41-1.02s0.13-0.74,0.41-1.02
		c0.27-0.28,0.64-0.42,1.1-0.42s0.83,0.14,1.1,0.42c0.27,0.28,0.41,0.62,0.41,1.02s-0.13,0.74-0.41,1.02S75.12,428.88,74.65,428.88z
		 M75.83,430.42v9.74h-2.35v-9.74H75.83z"/>
	<path class="st1" d="M87.44,430.45v9.7h-2.39l0.07-1.69c-0.35,0.59-0.8,1.05-1.36,1.38c-0.56,0.33-1.2,0.5-1.92,0.5
		c-0.85,0-1.57-0.19-2.16-0.58c-0.59-0.39-1.04-0.93-1.35-1.63s-0.47-1.49-0.47-2.39c0-1.08,0.21-2.03,0.64-2.85
		c0.42-0.81,1.01-1.46,1.74-1.91c0.74-0.47,1.57-0.69,2.5-0.69c0.61,0,1.16,0.13,1.64,0.4c0.47,0.27,0.84,0.61,1.1,1.05l0.23-1.26
		h1.72V430.45z M82.92,432.35c-0.8,0-1.43,0.3-1.91,0.91c-0.47,0.61-0.71,1.4-0.71,2.37c0,0.84,0.18,1.49,0.54,1.94
		c0.36,0.47,0.86,0.69,1.49,0.69c0.51,0,0.98-0.15,1.4-0.44c0.41-0.3,0.75-0.71,0.99-1.23c0.24-0.52,0.37-1.13,0.37-1.81
		c0-0.76-0.19-1.35-0.58-1.78C84.12,432.56,83.6,432.35,82.92,432.35z"/>
</g>
<g class="st0">
	<path class="st1" d="M254.16,704.82v-13.69h4.55c1.74,0,3.07,0.32,4,0.95s1.4,1.57,1.4,2.79c0,0.66-0.16,1.25-0.48,1.77
		c-0.32,0.52-0.78,0.94-1.37,1.23c0.63,0.24,1.13,0.64,1.5,1.17c0.37,0.53,0.56,1.15,0.56,1.86c0,1.2-0.44,2.14-1.33,2.85
		c-0.89,0.71-2.1,1.06-3.64,1.06H254.16z M258.75,693.17h-2.14v3.72h2.1c0.98,0,1.7-0.15,2.18-0.45c0.47-0.3,0.71-0.79,0.71-1.46
		c0-0.61-0.23-1.07-0.69-1.37C260.47,693.32,259.74,693.17,258.75,693.17z M256.62,702.78h2.68c0.78,0,1.4-0.16,1.86-0.47
		c0.46-0.31,0.69-0.8,0.69-1.46c0-1.25-0.86-1.87-2.6-1.87h-2.62L256.62,702.78L256.62,702.78z"/>
	<path class="st1" d="M275.31,695.13v9.7h-2.39l0.07-1.69c-0.35,0.59-0.8,1.05-1.36,1.38s-1.2,0.5-1.92,0.5
		c-0.85,0-1.57-0.19-2.16-0.58s-1.04-0.93-1.35-1.63c-0.31-0.69-0.47-1.49-0.47-2.39c0-1.08,0.21-2.03,0.64-2.85
		c0.42-0.81,1.01-1.46,1.74-1.91c0.74-0.47,1.57-0.69,2.5-0.69c0.61,0,1.16,0.13,1.64,0.4c0.47,0.27,0.84,0.61,1.1,1.05l0.23-1.26
		h1.72V695.13z M270.8,697.01c-0.8,0-1.43,0.3-1.91,0.91c-0.47,0.61-0.71,1.4-0.71,2.37c0,0.84,0.18,1.49,0.54,1.94
		c0.36,0.47,0.86,0.69,1.49,0.69c0.51,0,0.98-0.15,1.4-0.44c0.41-0.3,0.75-0.71,0.99-1.23c0.24-0.52,0.37-1.13,0.37-1.81
		c0-0.76-0.19-1.35-0.58-1.78C272,697.22,271.48,697.01,270.8,697.01z"/>
	<path class="st1" d="M279,693.54c-0.47,0-0.83-0.14-1.1-0.42c-0.27-0.28-0.41-0.62-0.41-1.02s0.13-0.74,0.41-1.02
		c0.27-0.28,0.64-0.42,1.1-0.42s0.83,0.14,1.1,0.42c0.27,0.28,0.41,0.62,0.41,1.02s-0.13,0.74-0.41,1.02
		C279.83,693.4,279.46,693.54,279,693.54z M280.18,695.08v9.74h-2.35v-9.74H280.18z"/>
	<path class="st1" d="M283.99,704.82h-2.74l3.61-4.95l-3.42-4.78h2.85l2,2.82l2.03-2.82h2.74l-3.45,4.69l3.59,5.05h-2.88l-2.14-3.1
		L283.99,704.82z"/>
	<path class="st1" d="M300.99,695.13v9.7h-2.39l0.07-1.69c-0.35,0.59-0.8,1.05-1.36,1.38s-1.2,0.5-1.92,0.5
		c-0.85,0-1.57-0.19-2.16-0.58s-1.04-0.93-1.35-1.63c-0.31-0.69-0.47-1.49-0.47-2.39c0-1.08,0.21-2.03,0.64-2.85
		c0.42-0.81,1.01-1.46,1.74-1.91c0.74-0.47,1.57-0.69,2.5-0.69c0.61,0,1.16,0.13,1.64,0.4c0.47,0.27,0.84,0.61,1.1,1.05l0.23-1.26
		h1.72V695.13z M296.48,697.01c-0.8,0-1.43,0.3-1.91,0.91c-0.47,0.61-0.71,1.4-0.71,2.37c0,0.84,0.18,1.49,0.54,1.94
		c0.36,0.47,0.86,0.69,1.49,0.69c0.51,0,0.98-0.15,1.4-0.44c0.41-0.3,0.75-0.71,0.99-1.23s0.37-1.13,0.37-1.81
		c0-0.76-0.19-1.35-0.58-1.78C297.68,697.22,297.15,697.01,296.48,697.01z"/>
	<path class="st1" d="M319.16,702.43l0.58,1.94c-0.26,0.19-0.57,0.34-0.95,0.45c-0.37,0.11-0.77,0.16-1.18,0.16
		c-1.44,0-2.57-0.64-3.39-1.91l-1.99-3.05c-0.21-0.32-0.42-0.55-0.64-0.67c-0.22-0.13-0.46-0.19-0.71-0.19h-0.1v5.65h-2.45v-13.69
		h4.26c1.74,0,3.05,0.36,3.94,1.08c0.89,0.72,1.34,1.71,1.34,2.97c0,0.76-0.17,1.41-0.5,1.96c-0.33,0.55-0.79,0.98-1.37,1.3
		s-1.23,0.52-1.97,0.61c0.38,0.21,0.74,0.55,1.06,1.04l1.08,1.6c0.28,0.41,0.55,0.69,0.8,0.85s0.57,0.23,0.95,0.23
		C318.39,702.78,318.79,702.66,319.16,702.43z M312.43,693.17h-1.64v4.03h1.52c1.06,0,1.83-0.16,2.34-0.48
		c0.5-0.32,0.75-0.84,0.75-1.55C315.4,693.85,314.41,693.17,312.43,693.17z"/>
	<path class="st1" d="M324.83,704.99c-1.06,0-1.97-0.19-2.73-0.58c-0.76-0.39-1.35-0.95-1.77-1.69c-0.41-0.73-0.61-1.6-0.61-2.62
		c0-1.01,0.21-1.91,0.64-2.69s1-1.38,1.72-1.82c0.72-0.44,1.55-0.66,2.48-0.66c1.5,0,2.61,0.51,3.33,1.53
		c0.71,1.02,0.96,2.43,0.74,4.23h-6.52c0.05,0.68,0.33,1.23,0.83,1.64c0.5,0.41,1.19,0.61,2.06,0.61c0.41,0,0.83-0.09,1.24-0.27
		c0.41-0.18,0.78-0.46,1.07-0.83l1.37,1.39c-0.44,0.55-0.97,0.98-1.59,1.29C326.47,704.84,325.71,704.99,324.83,704.99z
		 M324.6,696.7c-0.66,0-1.2,0.21-1.62,0.61c-0.42,0.41-0.69,0.96-0.81,1.66h4.44c0.02-0.8-0.15-1.38-0.52-1.74
		C325.71,696.88,325.21,696.7,324.6,696.7z"/>
	<path class="st1" d="M334.06,704.99c-1.34,0-2.36-0.25-3.07-0.76c-0.71-0.51-1.12-1.22-1.23-2.13l1.99-0.48
		c0.07,0.49,0.3,0.86,0.67,1.13c0.37,0.27,0.91,0.39,1.6,0.39c0.57,0,0.99-0.09,1.28-0.27c0.29-0.18,0.44-0.42,0.44-0.73
		s-0.16-0.55-0.47-0.71c-0.32-0.17-0.8-0.32-1.46-0.44c-0.73-0.14-1.36-0.32-1.88-0.54c-0.52-0.22-0.92-0.52-1.2-0.89
		s-0.41-0.88-0.41-1.49c0-0.59,0.17-1.12,0.5-1.59c0.33-0.47,0.79-0.84,1.38-1.12c0.58-0.27,1.26-0.41,2.02-0.41
		c1.01,0,1.85,0.24,2.5,0.72c0.65,0.47,1.03,1.09,1.17,1.83l-1.94,0.52c-0.09-0.37-0.28-0.67-0.58-0.88
		c-0.3-0.21-0.69-0.32-1.2-0.32c-0.5,0-0.89,0.1-1.15,0.31c-0.27,0.21-0.39,0.47-0.39,0.77c0,0.31,0.15,0.55,0.45,0.72
		s0.82,0.34,1.55,0.5c0.68,0.14,1.28,0.32,1.78,0.53c0.51,0.21,0.91,0.5,1.2,0.86c0.3,0.37,0.44,0.86,0.44,1.48
		c0,0.61-0.17,1.14-0.51,1.59c-0.34,0.46-0.81,0.81-1.42,1.06C335.52,704.87,334.84,704.99,334.06,704.99z"/>
	<path class="st1" d="M339.75,708.68v-13.59h2.37l-0.07,1.74c0.35-0.61,0.8-1.07,1.35-1.4s1.2-0.5,1.93-0.5
		c0.86,0,1.59,0.2,2.18,0.6c0.59,0.4,1.04,0.95,1.35,1.64c0.31,0.69,0.47,1.49,0.47,2.37c0,1.08-0.21,2.03-0.64,2.85
		c-0.42,0.82-1.01,1.46-1.74,1.91c-0.74,0.45-1.57,0.69-2.51,0.69c-0.49,0-0.93-0.08-1.33-0.25c-0.4-0.17-0.73-0.39-1.01-0.67
		l0.02,0.75v3.86L339.75,708.68L339.75,708.68z M344.24,702.93c0.81,0,1.45-0.31,1.93-0.92c0.47-0.61,0.72-1.41,0.72-2.39
		c0-0.82-0.18-1.46-0.54-1.91c-0.36-0.46-0.86-0.69-1.49-0.69c-0.52,0-1,0.15-1.4,0.44c-0.41,0.29-0.74,0.69-0.98,1.21
		c-0.24,0.52-0.37,1.12-0.37,1.8c0,0.76,0.19,1.36,0.58,1.8C343.06,702.71,343.59,702.93,344.24,702.93z"/>
	<path class="st1" d="M355.93,694.93c1.45,0,2.59,0.44,3.42,1.3c0.83,0.86,1.24,2.04,1.24,3.52c0,1.01-0.21,1.9-0.63,2.69
		c-0.42,0.79-1.01,1.41-1.77,1.87c-0.76,0.46-1.64,0.69-2.64,0.69c-1.45,0-2.59-0.43-3.42-1.29c-0.83-0.86-1.24-2.04-1.24-3.53
		c0-1.01,0.21-1.9,0.63-2.69c0.41-0.79,1.01-1.41,1.75-1.87C354.03,695.16,354.91,694.93,355.93,694.93z M355.64,702.93
		c0.76,0,1.37-0.29,1.83-0.86c0.47-0.58,0.69-1.35,0.69-2.31c0-0.87-0.2-1.55-0.61-2.03c-0.41-0.48-0.96-0.71-1.67-0.71
		c-0.78,0-1.4,0.29-1.87,0.86s-0.69,1.35-0.69,2.29c0,0.87,0.2,1.55,0.61,2.03C354.34,702.69,354.9,702.93,355.64,702.93z"/>
	<path class="st1" d="M362.63,704.82v-9.74h2.35l-0.12,2.45c0.37-0.84,0.88-1.48,1.52-1.93c0.64-0.45,1.38-0.67,2.2-0.67
		c1.09,0,1.92,0.38,2.48,1.13c0.56,0.75,0.84,1.83,0.82,3.23l-0.04,5.54h-2.35l0.04-5.34c0.01-0.76-0.1-1.34-0.35-1.74
		c-0.25-0.41-0.65-0.61-1.2-0.61c-0.42,0-0.81,0.13-1.18,0.37c-0.36,0.24-0.67,0.66-0.95,1.24s-0.48,1.38-0.64,2.37
		s-0.24,2.23-0.25,3.71h-2.33V704.82z"/>
	<path class="st1" d="M377.67,704.99c-1.34,0-2.36-0.25-3.07-0.76c-0.71-0.51-1.12-1.22-1.23-2.13l1.99-0.48
		c0.07,0.49,0.3,0.86,0.67,1.13c0.37,0.27,0.91,0.39,1.6,0.39c0.56,0,0.99-0.09,1.28-0.27c0.29-0.18,0.44-0.42,0.44-0.73
		s-0.16-0.55-0.47-0.71c-0.32-0.17-0.8-0.32-1.46-0.44c-0.73-0.14-1.36-0.32-1.88-0.54c-0.52-0.22-0.92-0.52-1.2-0.89
		s-0.41-0.88-0.41-1.49c0-0.59,0.17-1.12,0.5-1.59c0.33-0.47,0.79-0.84,1.38-1.12c0.58-0.27,1.26-0.41,2.02-0.41
		c1.01,0,1.85,0.24,2.5,0.72c0.65,0.47,1.03,1.09,1.17,1.83l-1.94,0.52c-0.09-0.37-0.28-0.67-0.58-0.88s-0.69-0.32-1.2-0.32
		c-0.5,0-0.89,0.1-1.15,0.31c-0.27,0.21-0.4,0.47-0.4,0.77c0,0.31,0.15,0.55,0.45,0.72c0.3,0.17,0.82,0.34,1.55,0.5
		c0.68,0.14,1.27,0.32,1.78,0.53s0.91,0.5,1.2,0.86c0.3,0.37,0.44,0.86,0.44,1.48c0,0.61-0.17,1.14-0.51,1.59
		c-0.34,0.46-0.81,0.81-1.42,1.06C379.13,704.87,378.44,704.99,377.67,704.99z"/>
	<path class="st1" d="M384.54,693.54c-0.47,0-0.83-0.14-1.1-0.42c-0.27-0.28-0.41-0.62-0.41-1.02s0.13-0.74,0.41-1.02
		c0.27-0.28,0.64-0.42,1.1-0.42c0.47,0,0.83,0.14,1.1,0.42c0.27,0.28,0.41,0.62,0.41,1.02s-0.13,0.74-0.41,1.02
		C385.36,693.4,385,693.54,384.54,693.54z M385.71,695.08v9.74h-2.35v-9.74H385.71z"/>
	<path class="st1" d="M394.94,695.08h2.35l-3.64,9.74h-3.36l-3.08-9.74h2.54l2.35,7.83L394.94,695.08z"/>
	<path class="st1" d="M399.5,693.54c-0.47,0-0.83-0.14-1.1-0.42c-0.27-0.28-0.41-0.62-0.41-1.02s0.13-0.74,0.41-1.02
		c0.27-0.28,0.64-0.42,1.1-0.42c0.47,0,0.83,0.14,1.1,0.42c0.27,0.28,0.41,0.62,0.41,1.02s-0.13,0.74-0.41,1.02
		C400.33,693.4,399.96,693.54,399.5,693.54z M400.67,695.08v9.74h-2.35v-9.74H400.67z"/>
	<path class="st1" d="M412.28,690.56v14.27h-2.39l0.07-1.69c-0.35,0.61-0.8,1.06-1.35,1.39c-0.55,0.32-1.2,0.48-1.93,0.48
		c-0.85,0-1.57-0.19-2.16-0.58c-0.59-0.39-1.04-0.93-1.35-1.63c-0.31-0.69-0.47-1.49-0.47-2.39c0-1.08,0.21-2.03,0.64-2.85
		c0.42-0.81,1.01-1.46,1.74-1.91c0.74-0.46,1.57-0.69,2.5-0.69c0.49,0,0.93,0.08,1.34,0.25c0.41,0.17,0.74,0.4,1.01,0.69l-0.02-0.79
		v-4.53h2.37V690.56z M407.77,697.01c-0.8,0-1.43,0.3-1.91,0.91c-0.47,0.61-0.71,1.4-0.71,2.37c0,0.84,0.18,1.49,0.54,1.94
		c0.36,0.47,0.86,0.69,1.49,0.69c0.52,0,0.98-0.15,1.4-0.44c0.41-0.3,0.75-0.71,0.99-1.23s0.37-1.13,0.37-1.81
		c0-0.76-0.19-1.35-0.58-1.78C408.97,697.22,408.43,697.01,407.77,697.01z"/>
	<path class="st1" d="M423.88,695.13v9.7h-2.39l0.07-1.69c-0.35,0.59-0.8,1.05-1.36,1.38s-1.2,0.5-1.91,0.5
		c-0.85,0-1.57-0.19-2.16-0.58c-0.59-0.39-1.04-0.93-1.35-1.63c-0.31-0.69-0.47-1.49-0.47-2.39c0-1.08,0.21-2.03,0.64-2.85
		c0.42-0.81,1.01-1.46,1.74-1.91c0.74-0.46,1.57-0.69,2.5-0.69c0.61,0,1.16,0.13,1.64,0.4c0.47,0.27,0.84,0.61,1.1,1.05l0.23-1.26
		h1.72V695.13z M419.38,697.01c-0.8,0-1.43,0.3-1.91,0.91c-0.47,0.61-0.71,1.4-0.71,2.37c0,0.84,0.18,1.49,0.54,1.94
		c0.36,0.47,0.86,0.69,1.49,0.69c0.52,0,0.98-0.15,1.4-0.44c0.41-0.3,0.75-0.71,0.99-1.23c0.24-0.52,0.37-1.13,0.37-1.81
		c0-0.76-0.19-1.35-0.58-1.78C420.57,697.22,420.04,697.01,419.38,697.01z"/>
	<path class="st1" d="M435.49,690.56v14.27h-2.39l0.07-1.69c-0.35,0.61-0.8,1.06-1.35,1.39c-0.55,0.32-1.2,0.48-1.93,0.48
		c-0.85,0-1.57-0.19-2.16-0.58c-0.59-0.39-1.04-0.93-1.35-1.63c-0.31-0.69-0.47-1.49-0.47-2.39c0-1.08,0.21-2.03,0.64-2.85
		c0.42-0.81,1.01-1.46,1.74-1.91c0.74-0.46,1.57-0.69,2.5-0.69c0.49,0,0.93,0.08,1.34,0.25c0.41,0.17,0.74,0.4,1.01,0.69l-0.02-0.79
		v-4.53h2.37V690.56z M430.98,697.01c-0.8,0-1.43,0.3-1.91,0.91c-0.47,0.61-0.71,1.4-0.71,2.37c0,0.84,0.18,1.49,0.54,1.94
		c0.36,0.47,0.86,0.69,1.49,0.69c0.52,0,0.98-0.15,1.4-0.44c0.41-0.3,0.75-0.71,0.99-1.23s0.37-1.13,0.37-1.81
		c0-0.76-0.19-1.35-0.58-1.78C432.18,697.22,431.65,697.01,430.98,697.01z"/>
	<path class="st1" d="M442.65,704.99c-1.06,0-1.97-0.19-2.73-0.58s-1.35-0.95-1.77-1.69s-0.61-1.6-0.61-2.62
		c0-1.01,0.21-1.91,0.64-2.69c0.42-0.78,1-1.38,1.72-1.82c0.72-0.44,1.55-0.66,2.48-0.66c1.51,0,2.61,0.51,3.33,1.53
		c0.72,1.02,0.96,2.43,0.74,4.23h-6.52c0.05,0.68,0.33,1.23,0.83,1.64c0.5,0.41,1.19,0.61,2.06,0.61c0.41,0,0.83-0.09,1.24-0.27
		c0.42-0.18,0.78-0.46,1.07-0.83l1.37,1.39c-0.44,0.55-0.97,0.98-1.59,1.29C444.29,704.84,443.53,704.99,442.65,704.99z
		 M442.41,696.7c-0.66,0-1.2,0.21-1.62,0.61c-0.42,0.41-0.69,0.96-0.81,1.66h4.44c0.03-0.8-0.15-1.38-0.52-1.74
		C443.53,696.88,443.03,696.7,442.41,696.7z"/>
</g>
<g>
	<path class="st2" d="M167.45,293c-2.05,0.4-4.29,0.89-6.55,1.26c-1.79,0.28-3.61,0.4-5.42,0.57c-0.36,0.04-0.72,0.01-1.09-0.02
		c-5.21-0.43-7.6-4.92-4.95-9.4c0.79-1.35,1.72-2.68,2.83-3.76c2.94-2.88,6.05-5.59,9.01-8.45c1.03-1,2.09-0.89,3.45-0.49
		c0.34-1.11,0.62-2.14,0.96-3.16c0.98-3.01,2.82-5.32,5.69-6.77c3.02-1.54,6.04-1.57,9.09-0.13c1.15,0.54,2.23,1.32,3.01,2.34
		c0.45,0.6,0.76,1.38,1.09,2.05c0.47,0.96,0.79,1.94,1.21,2.92c0.45,1.05,0.76,2.16,0.9,3.29c0.04-0.37-0.06-0.73-0.15-1.09
		c-0.28-1.01-0.56-2.03-0.84-3.03c-0.26-0.95-1.05-2.73,0.24-3.29c0.32-0.13,0.66-0.15,1-0.15c3.26-0.07,6.51-0.06,9.69,0.68
		c1.17,0.27,2.37,0.64,3.35,1.32c1.31,0.92,1.6,1.71,0.92,3.13c-1.26,2.59-3.28,4.69-4.95,7.02c-0.96,1.34-1.74,2.75-2.69,4.07
		c-0.94,1.31-1.21,2.88-0.88,4.46c0.61,2.96,1.23,5.93,1.8,8.9c1.37,7.26,2.79,14.53,4.01,21.81c0.54,3.22,0.57,6.51,0.95,9.76
		c0.81,6.89,0.81,13.79,0.66,20.7c-0.15,6.58-1.48,13-3.22,19.32c-0.32,1.15-0.95,2.23-1.53,3.28c-1.04,1.91-2.85,2.67-4.87,2.6
		c-2.07-0.07-3.62-1.2-4.56-3.12c-0.6-1.23-0.92-2.5-0.72-3.87c0.11-0.84,0.23-1.69,0.47-2.5c2.67-8.97,2.97-18.14,2.48-27.38
		c-0.16-3.02-0.43-6.05-0.75-9.06c-0.17-1.6-0.9-2.3-2.2-2.47c-1.65-0.21-2.61,0.38-2.9,2c-0.43,2.5-0.69,5.04-1.13,7.55
		c-1.23,7.07-3.11,13.97-6.17,20.48c-2.58,5.49-5.64,10.72-9.5,15.44c-2.61,3.2-7.56,2.54-9.33-1.21c-1.13-2.4-0.84-4.72,0.64-6.9
		c1.29-1.9,2.58-3.8,3.86-5.71c2.03-3.05,3.36-6.44,4.68-9.82c3.16-8.09,4.63-16.58,5.16-25.2c0.53-8.47,0.18-16.95-1.26-25.35
		C168.76,294.64,168.67,293.64,167.45,293z M166.13,278.2c-0.08,0.81-1.18,1.48-1.72,1.97c-0.83,0.75-1.67,1.45-2.54,2.15
		c-1.69,1.37-3.45,2.67-5.14,4.06c-0.27,0.21-0.55,0.47-0.62,0.81c-0.13,0.55,0.4,1.09,0.95,1.19s1.12-0.1,1.65-0.3
		c0.51-0.19,1.03-0.35,1.54-0.53c0.47-0.17,0.92-0.41,1.41-0.53c0.47-0.11,0.92-0.34,1.39-0.47c0.52-0.15,1.05-0.27,1.55-0.49
		c0.84-0.35,1.69-0.36,2.52-0.66c1-0.35,1.9-0.87,2.94-1.18c2.07-0.6,4.3-0.95,6.08-2.23c-0.16,0.11-0.6,0.01-0.78,0
		c-0.35-0.04-0.69-0.07-1.03-0.1c-1.12-0.13-2.32-0.15-3.36-0.62c-0.66-0.3-1.26-0.69-1.82-1.13c-0.5-0.38-1.03-0.79-1.41-1.29
		c-0.47-0.61-0.89-1.22-1.23-1.91c-0.43-0.87-0.76-1.81-0.96-2.76c0.27,1.28,0.47,2.57,0.56,3.86
		C166.13,278.08,166.13,278.14,166.13,278.2z M176.27,279.57c0.42-0.08,0.83-0.23,1.28-0.32c0.7-0.13,1.4-0.3,2.08-0.53
		c1.04-0.36,2.13-0.84,3.05-1.45c0.24-0.16,0.49-0.34,0.62-0.6c0.28-0.5,0.1-1.12-0.13-1.65c-0.16-0.38-0.36-0.78-0.7-1.02
		c-0.41-0.27-0.96-0.27-1.41-0.1c-0.51,0.18-0.88,0.58-1.38,0.75c-0.55,0.19-1.07,0.43-1.65,0.56c-0.92,0.24-1.86,0.27-2.8,0.4
		c-0.69,0.09-1.39,0.44-1.74,1.07c-0.28,0.5-0.34,1.11-0.26,1.67c0.04,0.23,0.08,0.45,0.21,0.64c0.3,0.45,0.92,0.54,1.48,0.58
		c0.19,0.01,0.38,0.04,0.58,0.04C175.75,279.64,176.01,279.61,176.27,279.57z M187.32,276.4c2.71-1.17,4.99-2.28,7.04-3.78
		c0.34-0.25,0.66-0.81,0.64-1.2c-0.04-0.69-0.7-0.94-1.34-0.95c-2.05-0.04-4.08-0.01-6.23-0.01
		C186.46,272.26,186.51,274.07,187.32,276.4z"/>
	<path class="st2" d="M221.89,334.59c-1.73-0.77-2.82-0.06-3.95,0.3c-3.24,1.03-6.46,2.11-9.68,3.16c-0.45,0.15-0.95,0.35-1.4,0.3
		c-0.43-0.04-1.05-0.3-1.19-0.61c-0.19-0.5-0.25-1.29,0.02-1.67c0.38-0.54,1.07-0.98,1.73-1.2c4.01-1.37,8.05-2.66,12.08-3.99
		c1.03-0.34,2.06-0.72,3.05-1.15c1.07-0.45,1.86-1.23,1.92-2.44c0.13-2.32,1.34-4.15,2.6-5.91c1.48-2.06,3.18-3.98,4.78-5.95
		c0.47-0.56,1-1.06,1.43-1.64c0.96-1.23,0.86-2.22-0.43-3.07c-2.13-1.39-4.31-2.69-6.47-4.05s-4.32-2.69-6.45-4.08
		c-0.7-0.47-1.38-1.01-1.96-1.62c-0.81-0.86-0.92-2.03-0.42-3.03c0.5-0.98,1.58-1.64,2.71-1.41c0.92,0.19,1.86,0.55,2.67,1.05
		c3.31,2.03,6.56,4.15,9.85,6.21c3.6,2.25,7.19,4.5,10.82,6.7c1.17,0.71,2.16,1.56,2.88,2.71c0.81,1.26,2.01,1.74,3.42,1.72
		c1.94-0.02,3.88-0.1,5.81-0.23c4.97-0.3,9.93-0.64,14.9-0.94c0.85-0.06,1.69-0.04,2.54,0.04c1.02,0.08,1.94-0.06,2.67-0.83
		c1.41-1.49,3.44-1.72,5.23-2.41c0.37-0.15,1.18,0.27,1.49,0.66c0.51,0.61,0.35,1.43-0.18,1.99c-0.4,0.42-0.98,0.71-1.54,0.92
		c-0.9,0.33-1.86,0.6-2.8,0.77c-1.18,0.21-2.07,0.7-2.4,1.91c-0.5,1.8-1.88,2.48-3.53,2.66c-1.92,0.21-3.87,0.28-5.8,0.37
		c-2.18,0.11-4.37,0.13-6.55,0.3c-2.18,0.17-4.12,0.75-6.04,2.11c-2.03,1.45-4.57,2.17-6.91,3.16c-0.78,0.33-1.63,0.49-2.44,0.71
		c-2.37,0.64-4.12,1.8-4.72,4.46c-0.27,1.24-1.26,2.32-1.84,3.5c-0.84,1.67-0.58,2.73,1.03,3.69c2.08,1.24,4.22,2.4,6.34,3.57
		c1.73,0.95,3.22,2.17,4.32,3.82c3.72,5.53,7.43,11.06,11.14,16.6c0.41,0.6,0.81,1.22,1.09,1.88c1.07,2.6-0.28,5.68-2.95,6.51
		c-0.75,0.24-1.69,0.11-2.48-0.1c-1.46-0.41-2.44-1.47-3.29-2.71c-3.29-4.8-6.64-9.56-9.97-14.33c-0.42-0.6-0.81-1.21-1.3-1.74
		c-1.21-1.35-2.08-1.11-2.78,0.69c-1.12,2.88-3.02,4.01-5.88,3.59c-6.72-0.96-13.45-1.88-20.18-2.84c-1.07-0.16-2.18-0.3-3.19-0.68
		c-1.86-0.69-2.92-2.14-3.11-4.12c-0.18-1.86,0.71-3.27,2.11-4.4c0.92-0.75,2-0.83,3.11-0.71c2.41,0.25,4.82,0.53,7.23,0.81
		c1.56,0.18,3.12,0.47,4.69,0.54c1.28,0.06,2.15-1.45,1.6-2.62c-0.26-0.54-0.56-1.09-1-1.5
		C222.77,338.56,221.82,336.82,221.89,334.59z M251.55,317.76c-2.59,1.2-5.17,2.39-7.76,3.59c-0.55,0.25-1.11,0.3-1.65,0.5
		c-0.56,0.19-1.13,0.61-1.63,0.92c-1.15,0.75-1.58,2.45-1.3,3.73c0.21,0.92,0.81,1.39,1.77,1.29c-0.11-0.21-0.27-0.41-0.47-0.55
		c-0.25-0.18-0.5-0.21-0.64-0.52c-0.11-0.24-0.13-0.52-0.11-0.78c0.04-0.67,0.23-1.34,0.6-1.89c0.67-0.98,1.82-1.22,2.88-1.56
		c1.28-0.41,2.56-1.05,3.73-1.69c0.44-0.24,0.87-0.49,1.31-0.73c1.75-0.95,3.61-1.69,5.43-2.49c1.04-0.45,2.07-0.98,3.07-1.52
		c0.92-0.51,2.08-0.75,3.1-1.07c0.1-0.04,0.23-0.11,0.19-0.21c-0.7,0.18-1.39,0.35-2.09,0.53c-1.12,0.28-2.26,0.57-3.33,1.02
		c-0.52,0.23-1.03,0.47-1.55,0.71c-0.27,0.13-0.53,0.25-0.81,0.37C252.11,317.5,251.74,317.76,251.55,317.76z"/>
	<path class="st2" d="M305.78,318.01c-4.85-0.1-9.3-1.53-13.29-4.27c-1.63-1.12-3.16-2.2-5.29-1.9c-0.42,0.06-1.18-0.53-1.34-0.98
		c-0.16-0.45,0.04-1.38,0.4-1.62c2.08-1.4,2.65-3.62,3.52-5.76c1.67-4.07,4.04-7.71,7.62-10.43c0.68-0.51,1.36-1.04,2.11-1.43
		c0.96-0.5,2.11-0.85,3.16-0.44c0.89,0.35,2.08,1.64,2.3,2.57c-0.47,0.35-2.86,2.09-3.33,2.45c0.36-0.21,3.12-2.03,3.55-1.89
		c0.37,0.11,0.81,0.79,1.21,1c0.3,0.16,0.96,0.42,0.76,0.86c-0.1,0.23-0.33,0.35-0.55,0.45c0.26,0.04,0.52-0.02,0.75-0.13
		c-0.3,0.11-0.57,0.26-0.81,0.47c0.37,0.04,0.75,0.04,1.12,0.04c-0.69,0.34-1.39,0.68-2.08,1.02c0.76,0.09,1.53,0.02,2.26-0.18
		c-0.61,0.11-1.2,0.33-1.72,0.66c0.67-0.01,1.34-0.15,1.96-0.4c-0.62,0.11-1.22,0.34-1.77,0.67c0.54,0.04,1.09,0.01,1.64-0.04
		c-0.66,0.09-1.3,0.28-1.9,0.57c0.84-0.13,1.66-0.36,2.44-0.69c-0.61,0.02-1.21,0.17-1.75,0.44c0.56,0.08,1.15-0.04,1.64-0.32
		c-0.7,0.07-1.38,0.26-2.01,0.58c0.47,0.09,0.96,0.1,1.43,0.06c-0.38,0.13-0.75,0.28-1.09,0.47c0.54,0.01,1.07,0.01,1.62,0.02
		c-0.7,0.35-1.39,0.7-2.09,1.05c0.92,0.08,1.86,0,2.76-0.26c-0.45,0.08-0.9,0.24-1.3,0.47c0.47-0.01,0.95-0.13,1.39-0.33
		c-0.58-0.01-1.15,0.23-1.55,0.62c0.42-0.02,0.83-0.11,1.21-0.27c-0.55,0.19-1.09,0.47-1.56,0.83c0.6-0.04,1.19-0.17,1.75-0.4
		c-0.58,0.13-1.12,0.37-1.6,0.71c0.69-0.04,1.37-0.19,1.99-0.47c-0.67,0.04-1.32,0.3-1.86,0.72c0.66-0.04,1.31-0.16,1.96-0.34
		c-0.55,0.21-1.07,0.51-1.52,0.92c0.45-0.01,0.92-0.08,1.36-0.19c-0.34,0.17-0.64,0.43-0.87,0.73c0.51-0.02,1.02-0.09,1.52-0.23
		c-0.24,0.27-0.49,0.54-0.72,0.81c0.23-0.02,0.89-0.19,1.07-0.09c0.21,0.13,0.25,0.6,0.27,0.85c0.09,0.76-0.35,1.06-0.85,1.54
		c0.41-0.04,0.81-0.17,1.18-0.37c-0.15,0.5-0.78,0.68-1.09,1.11c0.3-0.13,0.62-0.25,0.95-0.34c-0.17,0.21-0.37,0.41-0.61,0.56
		c0.23-0.01,0.47-0.07,0.67-0.17c-0.18,0.4-0.73,0.47-0.98,0.84c0.4-0.18,0.78-0.37,1.15-0.6c-0.09,0.27-0.26,0.51-0.5,0.67
		c0.18-0.11,0.37-0.23,0.58-0.32c0.47-0.23,0.67,1.46,0.75,1.77c0.43,1.66,0.27,3.38-0.3,5.01c-0.71,1.98-1.99,3.3-4.27,3.3
		C306.74,318.01,306.26,318.01,305.78,318.01z"/>
	<path class="st2" d="M252.74,311.62c-5.19,0.09-9.65-4.56-9.88-10.03c-0.23-5.57,4.38-9.97,9.69-10.08
		c5.42-0.13,10.03,4.29,10.08,9.77C262.71,306.96,258.4,311.61,252.74,311.62z M252.64,307.07c2.11-0.09,3.8-0.3,5.23-1.28
		c0.67-0.45,1.26-1.12,1.63-1.83c0.21-0.42,0.1-1.28-0.21-1.63c-0.3-0.34-1.17-0.52-1.58-0.33c-2,0.9-4.05,1.56-6.25,1.64
		c-0.24,0.01-0.52,0.07-0.68,0.21c-0.33,0.32-0.83,0.71-0.83,1.07c0.01,0.52,0.28,1.24,0.68,1.49
		C251.32,306.82,252.2,306.93,252.64,307.07z"/>
	<path class="st2" d="M266.71,285.75c0.73-0.92,1.45-1.86,2.23-2.77c2.05-2.39,4.1-4.76,6.17-7.11c0.47-0.53,1.03-1.04,1.65-1.36
		c0.33-0.17,1.01-0.07,1.29,0.18c0.28,0.26,0.47,0.89,0.35,1.26c-0.16,0.55-0.52,1.11-0.94,1.5c-2.28,2.16-4.54,4.35-6.93,6.36
		C269.48,284.7,268.65,286.01,266.71,285.75z"/>
	<path class="st2" d="M264.72,280.03c0.04-0.62,0.08-1.24,0.11-1.86c0.13-2.39,0.24-4.78,0.4-7.16c0.04-0.79-0.1-1.74,1.17-2.25
		c0.21,0.32,0.56,0.64,0.67,1.02c0.15,0.58,0.21,1.21,0.13,1.8c-0.18,1.2-0.37,2.39-0.58,3.57c-0.1,0.6-0.1,1.21-0.17,1.82
		c-0.06,0.59-0.26,1.18-0.4,1.77c-0.21,0.89-0.37,1.8-0.53,2.71c-0.13,0.76-0.11,1.48-0.27,2.23c-0.08,0.36-0.41,0.66-0.43,1.01
		c0.09-1.12-0.04-2.23-0.1-3.35C264.7,280.89,264.7,280.46,264.72,280.03z"/>
	<path class="st2" d="M273.71,286.14c0.61-0.15,1.22-0.26,1.82-0.4c2.33-0.53,4.66-1.07,6.99-1.57c0.78-0.17,1.65-0.58,2.48,0.5
		c-0.24,0.3-0.45,0.72-0.79,0.92c-0.51,0.3-1.11,0.53-1.7,0.6c-1.2,0.16-2.4,0.3-3.6,0.42c-0.61,0.07-1.19,0.23-1.8,0.33
		c-0.59,0.1-1.21,0.07-1.8,0.1c-0.92,0.06-1.83,0.13-2.75,0.24c-0.76,0.09-1.45,0.3-2.22,0.35c-0.36,0.02-0.73-0.21-1.09-0.13
		c1.09-0.21,2.14-0.66,3.19-1.01C272.89,286.34,273.3,286.24,273.71,286.14z"/>
	<path class="st3" d="M252.64,307.07c-0.43-0.13-1.3-0.25-1.99-0.67c-0.4-0.24-0.67-0.98-0.68-1.49c-0.01-0.35,0.49-0.76,0.83-1.07
		c0.16-0.15,0.44-0.21,0.68-0.21c2.2-0.08,4.25-0.73,6.25-1.64c0.42-0.19,1.28,0,1.58,0.33c0.32,0.35,0.42,1.21,0.21,1.63
		c-0.36,0.71-0.96,1.38-1.63,1.83C256.44,306.78,254.74,306.98,252.64,307.07z"/>
	<path class="st3" d="M166.75,277.67c-0.47-1.13-0.95-2.28-1.11-3.5c-0.07-0.5-0.08-1.01-0.09-1.52c-0.04-1.31-0.07-2.65,0.15-3.95
		c-0.01,0.08-0.3,0.3-0.36,0.38c-0.11,0.16-0.18,0.34-0.27,0.51c-0.25,0.45-0.51,0.89-0.77,1.35c-0.16,0.28-0.33,0.64-0.18,0.92
		c0.06,0.11-0.24,0.35-0.15,0.44c0.23,0.23,0.86,0.24,1.02,0.52c0.09,0.15,0.16,0.3,0.23,0.47c0.43,1.09,0.7,2.23,0.81,3.39
		c0.02,0.26-0.02,0.59,0.06,0.85c0.06,0.21,0.19,0.42,0.3,0.6c0.25,0.49,0.55,0.92,0.92,1.32c0.02,0.02,0.04,0.04,0.07,0.07
		c0.15,0.15,0.59,0.47,0.54,0.1c-0.02-0.21-0.51-0.7-0.64-0.92C167.06,278.38,166.9,278.03,166.75,277.67z"/>
	<path class="st3" d="M186.04,270.61c-0.13-0.41-0.21-0.83-0.33-1.23c-0.11-0.38-0.34-0.72-0.51-1.09c-0.1-0.24-0.19-0.49-0.15-0.73
		c0,0,0.18,0.13,0.19,0.16c0.04,0.07,0.04,0.18,0.06,0.26c0.07,0.21,0.13,0.4,0.23,0.59c0.11,0.23,0.23,0.47,0.32,0.71
		c0.04,0.08,0.06,0.16,0.09,0.24c0.04,0.11,0.1,0.21,0.18,0.32c0.07,0.08,0.17,0.15,0.25,0.23c0.11,0.1,0.24,0.18,0.37,0.26
		c0.15,0.09,0.37,0.08,0.54,0.11c0.18,0.04,0.36,0.13,0.47,0.3c0.09,0.16,0.09,0.35,0.1,0.53c0.02,0.47-0.04,0.96-0.18,1.43
		c-0.06,0.17-0.13,0.35-0.26,0.47c-0.08,0.08-0.19,0.13-0.3,0.18c-0.06,0.02-0.11,0.06-0.17,0.04c-0.02,0-0.06-0.01-0.08-0.04
		c-0.04-0.02-0.09-0.04-0.13-0.07c-0.01,0-0.02-0.01-0.04-0.02c-0.01-0.01-0.01-0.04-0.01-0.06c-0.02-0.27-0.09-0.53-0.16-0.79
		c-0.07-0.3-0.16-0.59-0.21-0.89S186.13,270.93,186.04,270.61z"/>
	<path class="st3" d="M175.32,282.04c0.01,0,0.01,0,0.02-0.01c0.13-0.04,0.35,0.01,0.5,0c0.36-0.04,0.71-0.13,1.07-0.21
		c0.83-0.15,1.66-0.37,2.44-0.64c0.49-0.17,0.98-0.33,1.46-0.5c1.46-0.49,3.2-1.48,4.31-2.61c2.59-2.66,0.87-6.14,0.81-7.98
		c0.02,0.68,0.9,1.69,1.22,5.26c0.04,0.4,0.5,0.32,0.35,0.7c-0.32,0.81-1.13,2.03-1.72,2.65c-0.47,0.49-1.03,0.98-1.58,1.36
		c-1.21,0.81-2.66,1.19-4.04,1.6c-0.83,0.24-1.67,0.36-2.51,0.55c-0.87,0.19-1.77,0.25-2.67,0.16
		C175.09,282.24,175.17,282.09,175.32,282.04z"/>
	<path class="st3" d="M274.28,314.23c0.64,0.32,1.19,0.76,1.38,1.49c0.09,0.35,0.1,0.72,0.1,1.09c0,0.37,0.01,0.73,0.01,1.11
		c0,0.18,0.01,0.37,0.09,0.54c0.01,0.02,0.47-0.64,0.49-0.73c0.09-0.3,0.09-0.68,0.06-0.98c-0.08-0.75-0.43-1.43-0.81-2.07
		c-0.23-0.37-0.47-0.76-0.83-1.03c-0.47-0.37-1.09-0.53-1.67-0.68c-0.34-0.08-0.89-0.25-1.23-0.07c-0.38,0.21-0.21,0.33,0.1,0.47
		C272.64,313.67,273.54,313.87,274.28,314.23z"/>
</g>
<g>
	<g>
		<path class="st2" d="M460.69,317.66c-3.72-2.09-7.08-4.63-6.75-9.26c0.16-2.2,0.98-4.72,2.37-6.36c3.5-4.14,8.99-3.98,12.87-0.1
			c4.38,4.38,3.1,9.5-4.32,16.01c1.24,0.32,2.23,0.87,3.09,0.71c1.66-0.3,3.45-0.71,4.84-1.6c2.8-1.79,7.4-2.3,6.19-7.44
			c-0.76-3.28-0.44-6.99-3.67-9.33c-1.49-1.09-2.03-2.57-0.77-4.03c1.35-1.55,3.2-1.37,4.65-0.18c1.04,0.86,2.11,2.08,2.44,3.33
			c1.23,4.52,2.22,9.11,3.16,13.7c0.47,2.28-0.64,3.93-2.66,5c-1.8,0.95-3.55,2.03-5.42,2.84c-2.99,1.28-4.04,3.33-4.01,6.62
			c0.15,15.21,0.06,30.41,0.01,45.63c0,1.55-0.06,3.16-0.47,4.64c-0.49,1.81-1.91,2.84-3.82,2.96c-1.94,0.13-3.5-0.73-4.1-2.51
			c-0.58-1.74-0.86-3.65-0.9-5.5c-0.11-4.85-0.02-9.71-0.04-14.58c-0.01-1.23-0.13-2.45-0.98-3.82c-0.23,0.87-0.64,1.73-0.64,2.6
			c-0.07,5.64-0.04,11.29-0.07,16.93c0,1.09,0.06,2.23-0.18,3.28c-0.44,1.99-1.56,3.41-3.79,3.57c-2.28,0.18-3.95-0.85-4.54-3.2
			c-0.38-1.49-0.42-3.1-0.43-4.66c-0.07-10.19-0.08-20.38-0.13-30.58c-0.01-1.54-0.15-3.09-0.28-5.64
			c-1.73,2.32-1.29,4.15-1.45,5.79c-0.19,2.03-0.04,4.1-0.43,6.08c-0.16,0.81-1.37,1.91-2.11,1.94c-0.79,0.01-1.91-0.96-2.32-1.79
			c-0.45-0.9-0.33-2.14-0.33-3.22c0.02-8.32,0.41-16.58,4.04-24.2c-2.3-1.54-4.84-2.51-6.19-4.35c-1.37-1.86-1.57-4.59-3.16-6.93
			c-0.15,1.09-0.49,2.18-0.43,3.27c0.66,12.36,1.29,24.73,2.08,37.07c0.5,7.66,1.29,15.3,1.9,22.96c0.09,1.09,0.1,2.22-0.13,3.27
			c-0.59,2.68-2.75,4.4-5.34,4.46c-2.71,0.06-4.69-1.4-5.35-4.32c-0.47-2.13-0.68-4.33-0.85-6.51c-0.87-10.62-1.67-21.25-2.57-31.88
			c-0.13-1.6,0.28-4.16-1.96-4.18c-2.68-0.01-1.94,2.68-2.08,4.4c-0.95,11.4-1.83,22.81-2.77,34.21c-0.11,1.4-0.24,2.83-0.6,4.18
			c-0.68,2.57-2.6,4.03-5.08,4.1c-2.66,0.07-4.86-1.48-5.44-4.25c-0.34-1.65-0.26-3.43-0.13-5.12c1.02-13.45,2.3-26.87,3.08-40.33
			c0.53-9.22,0.35-18.48,0.54-27.74c0.04-2.32-1.01-3.84-2.91-4.98c-3.22-1.94-6.34-4.06-9.65-5.87c-2.51-1.38-3.82-3.27-3.39-6.08
			c0.88-5.72,1.73-11.46,2.96-17.11c0.49-2.22,1.69-4.41,3.05-6.25c1.57-2.13,4.46-2.23,6.3-0.69c1.67,1.4,1.47,3.27-0.3,5.7
			c-0.98,1.36-1.74,2.93-2.33,4.5c-0.49,1.3-0.61,2.75-0.83,4.14c-1.58,10.52-2.62,8.63,6.48,14.51c3.41,2.2,6.92,3.46,11.05,3.16
			c3.12-0.23,6.28-0.04,9.41-0.07c4.89-0.06,8.49,2.18,10.67,6.42c1.35,2.62,2.14,5.53,3.27,8.26c0.52,1.26,0.94,2.8,1.91,3.56
			c2.07,1.6,4.54,2.59,5.86,5.18c0.34,0.66,2.13,0.57,3.26,0.81C460.32,318.41,460.5,318.04,460.69,317.66z M460.11,311.52
			c0.06,0.52,0.1,1.03,0.16,1.55c1.55,0.64,2.99,0.7,4.84-2.11C462.82,311.22,461.46,311.38,460.11,311.52z"/>
		<path class="st2" d="M417.58,281.2c0.13-5.71,4.57-10.16,10.1-10.14c5.76,0.02,10.36,4.72,10.29,10.5
			c-0.08,6.05-4.89,10.65-10.87,10.39C421.75,291.74,417.44,286.87,417.58,281.2z M426.8,286.47c4.12,2.74,5.26,2.28,6.48-2.15
			C430.88,285.13,428.85,285.8,426.8,286.47z"/>
		<path class="st3" d="M460.11,311.52c1.36-0.15,2.71-0.3,4.99-0.56c-1.86,2.8-3.29,2.74-4.84,2.11
			C460.2,312.57,460.16,312.05,460.11,311.52z"/>
		<path class="st3" d="M426.8,286.47c2.03-0.68,4.07-1.35,6.48-2.15C432.07,288.75,430.92,289.21,426.8,286.47z"/>
	</g>
	<path class="st3" d="M462.53,317.47c0.21-0.01,0.41-0.01,0.61-0.02c0.27-0.01,0.55-0.02,0.83-0.04c0.28-0.01,0.56-0.02,0.85-0.07
		c0.45-0.07,0.88-0.23,1.26-0.47c0.09-0.06,0.17-0.1,0.27-0.13c0.1-0.01,0.21,0.02,0.25,0.13c0.02,0.06,0.01,0.11,0,0.18
		c-0.01,0.1-0.02,0.27,0.04,0.35c0.06,0.07,0.21,0.13,0.27,0.21c0.16,0.13,0.13,0.21,0.32,0.3c0.21,0.11,0.56,0.1,0.81,0.13
		c0.11,0.01,0.06,0.1,0.02,0.16c-0.07,0.1-0.15,0.13-0.24,0.18c-0.25,0.13-0.51,0.23-0.78,0.32c-0.37,0.11-0.75,0.21-1.13,0.3
		c-0.36,0.07-0.72,0.09-1.09,0.17c-0.42,0.08-0.81,0.13-1.22,0.13c-0.4,0-0.79-0.01-1.2-0.04c-0.81-0.06-1.6-0.19-2.35-0.47
		c-0.09-0.04-0.19-0.08-0.27-0.15c-0.13-0.13-0.09-0.36-0.1-0.52c-0.02-0.21-0.02-0.3,0.1-0.47c0.08-0.11,0.18-0.23,0.3-0.26
		c0.08-0.02,0.16,0,0.25,0.01C461.05,317.49,461.79,317.49,462.53,317.47z"/>
</g>
<g>
	<g>
		<path class="st2" d="M318.17,474.37c-1.3,1.69-2.49,3.48-3.95,5.01c-1.89,1.98-3.1,3.97-2.24,6.87c0.68,2.3-0.47,4.07-2.35,5.33
			c-4.95,3.29-9.85,6.64-14.9,9.76c-3.16,1.94-5.08,1.49-7.59-1.36c-1.8-2.03-3.46-4.21-5.21-6.28c-0.15-0.18-0.58-0.13-1.4-0.27
			c-1.6,7.96-3.42,15.95-1.47,24.05c0.71,2.95,2.83,5.72,4.78,8.19c2.68,3.38,5.96,6.29,8.7,9.64c1.47,1.81,2.88,3.99,3.37,6.22
			c2.05,9.24,3.73,18.55,5.53,27.83c0.18,0.94,0.41,1.9,0.43,2.85c0.11,3.84-2.32,6.96-5.94,7.68c-3.56,0.71-6.92-1.29-8.01-5.26
			c-1.15-4.18-1.89-8.45-2.76-12.69c-0.98-4.72-1.84-9.45-2.84-14.15c-0.71-3.37-1.11-3.79-5.18-6.4c0,2.15-0.11,3.99,0.02,5.83
			c0.26,3.37-0.64,6.29-2.69,8.98c-4.98,6.49-9.81,13.1-14.79,19.58c-3.43,4.46-7.19,5.42-10.71,2.96
			c-3.86-2.69-4.22-7.05-0.77-11.8c3.76-5.19,7.6-10.33,11.56-15.39c2.09-2.67,3.08-5.46,2.76-8.89c-0.36-3.99-1.05-8.15-0.3-11.97
			c0.53-2.74,0.18-4.93-0.64-7.27c-0.35-1.01-1.21-1.82-1.64-2.8c-0.54-1.28-1.43-2.76-1.2-3.96c0.52-2.6-0.56-4.29-2.15-6
			c-1.31-1.41-2.57-2.88-3.73-4.41c-2.18-2.88-2.15-4.95,0.21-7.77c1.74-2.09,3.57-4.12,5.46-6.1c1.39-1.46,2-2.91,1.99-5.09
			c-0.02-5.14,2.57-9.2,6.64-12.21c4.78-3.54,9.81-2.92,13.63,1.65c2.67,3.2,5.15,6.56,7.73,9.83c1.18,1.48,2.4,2.93,3.93,4.82
			c4.57-2.84,8.63-6.1,13.25-8.03c5.02-2.11,6.99-7.32,11.35-9.9C317.45,473.77,317.81,474.07,318.17,474.37z"/>
		<path class="st2" d="M219.2,545.58c-0.18,1.46-0.5,2.91-0.51,4.37c-0.06,7.23,0,14.44-0.06,21.67c-0.01,1.6-0.07,3.25-0.49,4.75
			c-0.76,2.66-2.82,4.07-5.33,4.04c-2.37-0.04-4.61-1.67-5.27-4.18c-0.36-1.37-0.37-2.86-0.38-4.29c-0.04-7.86-0.06-15.73,0-23.6
			c0.02-2.82,0.27-5.37-3.67-6.02c-2.57-0.42-2.44-3.18-2.42-5.19c0.09-7.21,0.28-14.43,0.61-21.65c0.1-2.22,0.55-4.47,1.17-6.62
			c1.45-5.09,3.81-6.8,9.07-6.81c5.14-0.02,10.28-0.01,15.41,0.01c5.69,0.02,8.63,2.24,9.68,7.94c0.78,4.24,1.12,8.6,1.35,12.91
			c0.24,4.48,0.13,8.99,0.1,13.48c-0.04,5.21-0.32,5.51-5.76,6.93c-0.11,1.09-0.33,2.31-0.34,3.53c-0.04,8.03-0.01,16.05-0.06,24.08
			c-0.01,1.77-0.02,3.55-0.36,5.27c-0.5,2.5-2.71,4.18-5.17,4.27c-2.47,0.09-4.69-1.45-5.33-4.01c-0.38-1.53-0.4-3.18-0.41-4.78
			c-0.04-7.23,0-14.44-0.04-21.67c-0.01-1.47-0.27-2.94-0.41-4.41C220.14,545.6,219.67,545.6,219.2,545.58z"/>
		<path class="st2" d="M290.53,478.11c-7.13-0.09-12.96-6.22-12.79-13.46c0.17-7.19,6.36-13.14,13.42-12.91
			c6.83,0.23,12.79,6.51,12.6,13.28C303.56,472.38,297.67,478.19,290.53,478.11z M298.35,466.2c-0.81-0.54-1.23-0.98-1.73-1.09
			c-0.23-0.06-0.89,0.61-0.84,0.81c0.13,0.5,0.47,1.18,0.88,1.3C296.99,467.31,297.53,466.72,298.35,466.2z"/>
		<path class="st2" d="M230.91,488.33c0.09,6.25-4.91,11.64-10.9,11.75c-6.19,0.13-11.52-5.29-11.5-11.72
			c0.01-5.87,5.15-11.05,11.01-11.07C226.05,477.26,230.82,481.88,230.91,488.33z"/>
		<path class="st3" d="M299.57,466.23c-1.58,1.02-2.65,2.18-3.3,1.99c-0.79-0.24-1.49-1.56-1.74-2.54c-0.1-0.4,1.21-1.69,1.65-1.6
			C297.16,464.31,297.98,465.15,299.57,466.23z"/>
	</g>
	<path class="st3" d="M223.14,492.35c1.02-0.38,2.11-0.77,3.16-0.54c0.11,0.02,0.24,0.07,0.3,0.17c0.04,0.07,0.04,0.16,0.02,0.25
		c-0.04,0.45-0.11,0.98-0.51,1.18c-0.41,0.21-0.89-0.04-1.35-0.1c-0.72-0.1-1.43,0.28-2.03,0.71c-0.53,0.38-3.38,2.28-3.56,0.53
		C219.03,493.38,222.4,492.62,223.14,492.35z"/>
	<g>
		<path class="st3" d="M259.85,519.12c-0.43,0-0.75-0.11-0.89-0.4c-1.86-3.79-4.18-8.51-7.98-10.96c-0.11-0.07-0.23-0.15-0.34-0.21
			c-0.49-0.3-1-0.61-1.4-1.07c-1.31-1.47-1.11-3.89-0.34-5.63c0.43-0.98,1.03-1.86,1.6-2.73c0.44-0.67,0.9-1.36,1.28-2.07
			c1.96-3.71,4.67-6.98,7.84-9.45c0.16-0.13,0.32-0.24,0.47-0.35c0.47-0.34,0.88-0.64,1.23-1.11c0.72-0.98,1.34-1.75,1.94-2.45
			c1.35-1.58,2.82-3.08,4.4-4.44c1.36-1.18,4.18-3.62,6.28-2.17c1.48,1.02,1.5,3.3,1.39,4.57c-0.09,0.98-0.26,1.98-0.51,2.97
			l-0.24-0.06l0.24,0.06c-0.64,2.54-1.77,5.12-3.41,7.67c-1.23,1.94-2.75,3.87-4.89,6.27c-0.84,0.94-1.64,1.83-2.73,2.59
			c-0.67,0.47-1.35,0.92-2.01,1.35c-0.09,0.06-0.21,0.11-0.34,0.18c-0.26,0.13-0.67,0.32-0.7,0.52c-0.04,0.18,0.21,0.43,0.42,0.64
			c0.13,0.13,0.24,0.24,0.32,0.36c0.75,1.07,1.26,2.3,1.77,3.48l2.07,4.91c0.21,0.52,0.45,1.04,0.69,1.56
			c0.51,1.11,1.04,2.26,1.38,3.43l0.09,0.3l-0.32,0.01c-0.64,0.02-0.94,0.19-1.37,0.44c-0.16,0.09-0.33,0.19-0.53,0.3
			c-0.58,0.28-1.22,0.47-1.86,0.64c-0.21,0.06-0.42,0.11-0.62,0.18c-0.06,0.02-0.16,0.04-0.27,0.09
			C261.48,518.85,260.53,519.12,259.85,519.12z M272.45,476.1c-1.63,0-3.5,1.63-4.51,2.5c-1.55,1.35-3.01,2.82-4.35,4.39
			c-0.59,0.69-1.2,1.47-1.91,2.43c-0.4,0.53-0.85,0.86-1.34,1.21c-0.15,0.11-0.3,0.21-0.45,0.34c-3.12,2.43-5.78,5.64-7.7,9.3
			c-0.38,0.75-0.86,1.45-1.31,2.11c-0.56,0.84-1.15,1.71-1.56,2.65c-0.71,1.6-0.9,3.8,0.26,5.12c0.36,0.41,0.81,0.69,1.29,0.98
			c0.11,0.07,0.23,0.15,0.35,0.21c3.93,2.52,6.28,7.3,8.15,11.16c0.07,0.13,0.49,0.37,2.91-0.45c0.13-0.04,0.23-0.08,0.3-0.09
			c0.21-0.07,0.42-0.13,0.64-0.18c0.61-0.17,1.23-0.35,1.77-0.61c0.19-0.09,0.36-0.19,0.51-0.27c0.38-0.23,0.72-0.42,1.29-0.49
			c-0.33-1.03-0.81-2.07-1.26-3.08c-0.24-0.53-0.49-1.05-0.7-1.57l-2.07-4.91c-0.49-1.17-1-2.37-1.71-3.39
			c-0.07-0.09-0.16-0.19-0.27-0.3c-0.27-0.28-0.62-0.64-0.54-1.06c0.08-0.44,0.57-0.68,0.96-0.87c0.11-0.06,0.21-0.1,0.28-0.15
			c0.67-0.43,1.35-0.87,2-1.34c1.05-0.73,1.82-1.6,2.65-2.52c2.13-2.37,3.63-4.29,4.85-6.19c1.6-2.5,2.73-5.03,3.35-7.52
			c0.24-0.98,0.41-1.94,0.5-2.9c0.1-1.17,0.09-3.25-1.19-4.13C273.27,476.22,272.87,476.1,272.45,476.1z"/>
	</g>
	<path class="st3" d="M270.77,532.78c-4.65-5.1-9.52-10.27-15.07-11.71c0.64-0.62,1.47-0.35,2.2-0.02
		c5.4,2.44,10.39,6.92,14.96,12.15c1.07,1.23,2.15,2.51,3.05,4.07c0.83,1.43,1.49,3.05,2.16,4.68c0.19,0.47,0.52,1.48,0.04,1.8
		c-0.42,0.27-0.69-0.88-0.86-1.3c-0.54-1.35-1.09-2.6-1.8-3.76C274.04,536.4,272.4,534.57,270.77,532.78z"/>
</g>
<g>
	<g>
		<path class="st2" d="M393.72,514.59c-7.51-3.78-10.18-9.51-7.92-15.89c2.16-6.08,6.92-8.94,13.34-7.76
			c0.16,1.65,0.21,3.41,0.51,5.12c0.27,1.57,0.79,3.1,1.22,4.7c0.13,0.47,3.28-0.18,3.57-0.26c0.1-0.02,0.21-0.06,0.3-0.11
			c0.11-0.08,0.19-0.21,0.24-0.35c0.21-0.54,0.16-1.15,0.18-1.73c0.01-0.68,0.13-2.34,0.81-2.73c0.13-0.08,0.28-0.1,0.43-0.13
			c0.42-0.07,0.84-0.11,1.26-0.13c0.24-0.01,0.49,0,0.7,0.1c0.27,0.15,0.44,0.44,0.51,0.73c0.21,0.87,0,1.9-0.04,2.78
			c-0.01,0.19-0.01,0.41,0.09,0.58c0.13,0.23,0.42,0.3,0.67,0.37c0.69,0.18,1.43,0.33,2.15,0.33c0.18,0.01,1.86,0.04,1.88-0.04
			c0.38-2.16,0.85-4.27,1.11-6.42c0.4-3.22,1.03-3.76,4.24-3.27c5.1,0.78,8.68,4.46,9.82,10.12c0.95,4.69-1.15,9.77-5.17,12.35
			c-0.73,0.47-1.54,0.83-2.79,1.49c0.38,8.15,0.64,16.41,1.2,24.65c0.89,12.85,2.01,25.69,2.99,38.54c0.11,1.46,0.16,2.99-0.13,4.4
			c-0.59,2.97-2.67,4.66-5.59,4.82c-2.88,0.16-5.51-1.72-6.29-4.61c-0.27-0.98-0.28-2.05-0.37-3.08
			c-1.05-12.98-2.08-25.98-3.14-38.97c-0.13-1.62-0.25-3.27-0.71-4.81c-0.18-0.6-1.26-1.17-2-1.26c-0.43-0.06-1.24,0.81-1.4,1.38
			c-0.35,1.26-0.43,2.62-0.54,3.95c-0.98,12.1-1.92,24.22-2.9,36.32c-0.16,1.92-0.27,3.86-0.68,5.74c-0.77,3.57-3.38,5.59-6.58,5.34
			c-3.22-0.26-5.44-2.65-5.74-6.27c-0.09-1.03-0.04-2.07,0.04-3.11c1.06-12.98,2.2-25.97,3.2-38.97
			C392.8,530.58,393.21,522.62,393.72,514.59z M412.52,510.11c-2.34-1.35-4.81-2.31-7.3-0.3c0.51,1.72,1.31,2.37,2.94,1.74
			C409.58,511,411.07,510.58,412.52,510.11z M408.66,526.18c-0.76-0.38-1.26-0.87-1.65-0.79c-0.43,0.09-0.73,0.71-1.09,1.11
			c0.5,0.37,0.95,0.89,1.5,1.05C407.62,527.61,408.08,526.84,408.66,526.18z M407.21,520.19c0.43-0.81,0.98-1.43,0.84-1.66
			c-0.27-0.47-0.92-0.72-1.4-1.06c-0.23,0.47-0.67,0.94-0.62,1.37C406.05,519.21,406.62,519.55,407.21,520.19z M416.31,501.88
			c-0.24,0.28-0.57,0.55-0.52,0.67c0.16,0.37,0.45,0.68,0.69,1.02c0.24-0.28,0.72-0.64,0.67-0.83
			C417.05,502.4,416.62,502.17,416.31,501.88z"/>
		<path class="st2" d="M443.68,516.49c-3.09-8.28-2.45-12.93,1.92-16.16c3.52-2.6,8.92-2.66,12.52-0.15
			c4.27,2.99,4.97,7.57,2.44,15.54c1.81,1.71,4.03,3.11,5.21,5.12c1.23,2.08,1.89,4.73,2.05,7.17c0.47,7.07,0.61,14.16,0.75,21.24
			c0.04,1.86-0.79,3.72-2.96,3.78c-3.03,0.08-3.18,2.01-3.31,4.18c-0.32,5.32-0.66,10.63-1.02,15.94c-0.19,2.8-0.34,5.62-0.71,8.41
			c-0.23,1.65-0.76,3.43-2.22,4.39c-0.67,0.44-1.46,0.67-2.25,0.77c-0.83,0.1-2.15,0.3-2.78-0.37c-0.17-0.18-0.3-0.38-0.51-0.52
			c-0.21-0.15-0.49-0.21-0.69-0.07c-0.11,0.07-0.18,0.18-0.26,0.28c-0.62,0.81-1.49,0.68-2.4,0.75c-3.43,0.26-5.45-1.04-6.02-4.4
			c-0.51-3.05-0.69-6.17-0.92-9.26c-0.43-5.45-0.83-10.91-1.15-16.37c-0.13-2.14-0.49-3.73-3.22-3.73c-2,0-2.76-1.65-2.84-3.37
			c-0.38-8.28-0.72-16.57,1.15-24.74C437.37,520.97,439.05,517.6,443.68,516.49z"/>
		<path class="st2" d="M395.68,473.84c0.33-1.83,0.13-3.3-1.54-4.37c-1.52-0.98-1.34-2.49-0.89-3.99c0.98-3.33,3.29-5.53,6.25-7.15
			c7.3-4.01,17.26-1.35,20.92,5.63c1.11,2.11,1.72,4.2-0.69,5.88c-1.67,1.18-1.19,2.88-1.15,4.46c0.09,3.95-1.2,7.3-4.38,9.71
			c-3.71,2.83-7.75,3.59-12.06,1.37C397.41,482.95,395.43,478.94,395.68,473.84z M404.59,460.51c0.7,1.79,1.32,3.37,1.88,4.78
			c3.03,0.51,5.87,0.98,8.71,1.45c0.04-0.21,0.07-0.4,0.1-0.6c-2.31-0.59-4.61-1.18-7.08-1.81c0.55-1.6,0.96-2.77,1.36-3.91
			C407.85,458.75,406.39,458.56,404.59,460.51z M402.25,465.96c-0.04-0.19-0.09-0.38-0.15-0.58c-1.29,0.32-2.59,0.64-3.88,0.96
			c0.04,0.21,0.09,0.4,0.15,0.6C399.67,466.6,400.96,466.29,402.25,465.96z"/>
		<path class="st2" d="M407.04,488.71c1.2,1.73,2.2,2.6,2.43,3.65c0.32,1.49-0.67,2.57-2.25,2.58c-1.54,0.01-2.65-1.04-2.48-2.48
			C404.88,491.43,405.91,490.5,407.04,488.71z"/>
		<path class="st3" d="M412.52,510.11c-1.46,0.47-2.94,0.89-4.37,1.45c-1.63,0.64-2.43-0.01-2.94-1.74
			C407.7,507.81,410.18,508.77,412.52,510.11z"/>
		<path class="st3" d="M408.66,526.18c-0.58,0.67-1.02,1.43-1.23,1.37c-0.55-0.16-1.01-0.68-1.5-1.05c0.36-0.4,0.67-1.01,1.09-1.11
			C407.39,525.29,407.9,525.78,408.66,526.18z"/>
		<path class="st3" d="M407.21,520.19c-0.59-0.64-1.15-0.98-1.19-1.36c-0.04-0.44,0.4-0.92,0.62-1.37c0.49,0.34,1.13,0.6,1.4,1.06
			C408.18,518.77,407.64,519.39,407.21,520.19z"/>
		<path class="st3" d="M416.31,501.88c0.3,0.28,0.73,0.52,0.84,0.86c0.06,0.18-0.43,0.54-0.67,0.83c-0.24-0.34-0.53-0.64-0.69-1.02
			C415.75,502.43,416.09,502.17,416.31,501.88z"/>
		<path class="st3" d="M408.19,464.33c0.55-1.6,0.96-2.77,1.36-3.91c-1.69-1.66-3.16-1.86-4.95,0.09c0.57,1.43,1.07,2.74,1.54,3.93
			c-1.29,0.32-6.61,1.58-7.9,1.91c0.04,0.21,0.09,0.4,0.15,0.6c1.29-0.33,6.8-1.32,8.09-1.64c3.03,0.51,5.87,0.98,8.71,1.45
			c0.04-0.21,0.07-0.4,0.1-0.6C412.97,465.55,410.67,464.96,408.19,464.33z M406.12,464.43c0.06,0.15,0.11,0.28,0.17,0.43
			C406.22,464.7,406.16,464.53,406.12,464.43z"/>
	</g>
	<g>
		<path class="st3" d="M409.6,500.82l-0.18-0.13l-0.13-0.18c0.04-0.04,0.1-0.1,0.19-0.15c0.69-0.33,1.06-0.33,1.58-0.33
			c0.04,0,0.08,0,0.13,0c1.94,0,3.89,0.04,5.8,0.13l-0.02,0.44c-1.91-0.08-3.86-0.13-5.78-0.13c-0.04,0-0.08,0-0.11,0
			c-0.51,0-0.79,0-1.39,0.28C409.65,500.76,409.62,500.79,409.6,500.82z"/>
	</g>
	<g>
		<path class="st3" d="M388.37,514.87c-0.76,0-1.5-0.07-2.25-0.21l0.08-0.44c2.32,0.42,4.8,0.15,6.96-0.76
			c1.26-0.52,2.43-1.26,3.57-1.98c0.94-0.59,1.9-1.19,2.91-1.69c2.43-1.19,5.15-1.73,7.76-2.25c0.76-0.15,1.5-0.3,2.25-0.47
			c0.96-0.21,1.65-0.53,2.13-0.98c0.5-0.47,0.49-0.95,0.47-1.6c0-0.13,0-0.26,0-0.38c0.01-0.85-0.43-1.65-0.81-2.37
			c-0.34-0.61-0.94-0.89-2.01-0.94c-2.92-0.13-5.91,0.6-8.43,2.06l-0.41,0.24c-1.35,0.79-2.88,1.69-4.38,1.15l0.15-0.42
			c1.31,0.47,2.68-0.33,4.01-1.09l0.42-0.24c2.6-1.5,5.69-2.25,8.69-2.11c0.83,0.04,1.84,0.21,2.37,1.18
			c0.4,0.72,0.88,1.62,0.87,2.58c0,0.13,0,0.25,0,0.37c0.01,0.69,0.02,1.34-0.62,1.94c-0.53,0.51-1.29,0.86-2.33,1.09
			c-0.75,0.17-1.5,0.32-2.26,0.47c-2.59,0.52-5.26,1.05-7.64,2.2c-0.98,0.49-1.94,1.09-2.88,1.66c-1.15,0.72-2.35,1.48-3.64,2.01
			C391.79,514.53,390.08,514.87,388.37,514.87z"/>
	</g>
	<g>
		<path class="st3" d="M421.99,514.68c-2.17,0-4.4-0.79-6.15-2.2c-0.72-0.59-1.32-1.31-1.91-2.03c-1.09-1.32-2.14-2.58-3.88-2.95
			l0.09-0.43c1.9,0.4,3.03,1.77,4.13,3.1c0.58,0.69,1.17,1.4,1.86,1.97c1.98,1.6,4.61,2.37,7,2.03l0.06,0.44
			C422.78,514.65,422.38,514.68,421.99,514.68z"/>
	</g>
	<path class="st3" d="M448.06,520.58c-0.44-0.15-0.86-0.33-1.26-0.51c-0.84-0.4-1.64-0.9-2.31-1.56c-0.62-0.6-0.98-1.48-1.63-2.01
		c-0.17-0.13-0.35-0.25-0.5-0.41c-0.13-0.16-0.21-0.35-0.27-0.55c-0.21-0.71,0.06-1.35-0.1-2.03c-0.19-0.85-0.52-1.66-0.73-2.5
		c0.3,1.2,0.84,2.32,1.46,3.37c0.7,1.19,1.26,2.14,2.41,2.95c0.66,0.47,1.34,0.89,2.06,1.23c0.81,0.38,1.43,0.47,2.31,0.5
		c1.06,0.04,2.13,0.06,3.19,0.01c3.41-0.13,6.64-2.03,8.38-4.95c-0.33,0.55,0.21,1.23,0.24,1.77c0.02,0.66-0.54,0.98-1.02,1.36
		c-0.23,0.18-0.45,0.36-0.68,0.54c-0.7,0.56-1.39,1.12-2.09,1.69c-1.03,0.83-2.67,1.15-3.91,1.46c-0.3,0.08-0.61,0.15-0.92,0.19
		C451.18,521.36,449.54,521.09,448.06,520.58z"/>
	<path class="st3" d="M452.83,513.51c0.25,0.26,0.41,0.55,0.42,0.89c0.06,1.99-2.57-0.58-3.28-0.83c-0.36-0.13-0.73-0.17-1.11-0.21
		c-1.17-0.1-2.35,0.21-3.5-0.02c-0.06-0.01-0.11-0.02-0.16-0.07c-0.08-0.07-0.08-0.19-0.08-0.3c0.02-0.51,0-0.76,0.51-0.92
		c0.33-0.11,0.7-0.15,1.05-0.17c0.59-0.04,1.22-0.06,1.81,0.04C449.46,512.05,451.86,512.52,452.83,513.51z"/>
</g>
<g class="st0">
	<path class="st4" d="M30.25,213.24v-13.69h3.14v13.69H30.25z"/>
	<path class="st4" d="M44.85,199.55h3.02v13.69h-2.79l-6.08-8.5v8.5h-3.02v-13.69h2.79l6.08,8.5
		C44.85,208.05,44.85,199.55,44.85,199.55z"/>
	<path class="st4" d="M50.46,213.24v-13.69h4.44c2.7,0,4.74,0.57,6.11,1.72c1.37,1.15,2.06,2.84,2.06,5.09
		c0,1.36-0.31,2.56-0.92,3.59c-0.61,1.03-1.48,1.83-2.59,2.42c-1.11,0.58-2.39,0.88-3.84,0.88L50.46,213.24L50.46,213.24z
		 M53.6,210.45h1.99c1.4,0,2.46-0.34,3.19-1.01c0.72-0.67,1.09-1.67,1.09-2.98c0-1.39-0.38-2.42-1.13-3.1
		c-0.75-0.67-1.91-1.01-3.46-1.01H53.6C53.6,202.35,53.6,210.45,53.6,210.45z"/>
	<path class="st4" d="M74.02,199.55h3.13l0.04,7.41c0,1.3-0.24,2.44-0.73,3.42c-0.49,0.98-1.18,1.73-2.08,2.26s-1.96,0.8-3.18,0.8
		c-2.03,0-3.57-0.5-4.62-1.5c-1.05-1.01-1.57-2.5-1.57-4.49v-7.89h3.14v7.64c0,1.22,0.27,2.1,0.79,2.64
		c0.52,0.54,1.26,0.81,2.22,0.81c0.94,0,1.66-0.31,2.17-0.93c0.51-0.62,0.75-1.6,0.74-2.92L74.02,199.55z"/>
	<path class="st4" d="M79.69,213.24v-13.69h3.14v10.93h5.92l-0.19,2.76L79.69,213.24L79.69,213.24z"/>
	<path class="st4" d="M96.27,205.8h5.84v7.44h-2.48l-0.23-1.27c-0.44,0.52-1,0.9-1.69,1.13c-0.69,0.22-1.41,0.34-2.17,0.34
		c-1.36,0-2.54-0.27-3.54-0.81s-1.77-1.32-2.31-2.32c-0.55-1.01-0.82-2.22-0.82-3.64c0-1.44,0.31-2.71,0.93-3.81
		s1.51-1.96,2.65-2.57c1.15-0.61,2.48-0.92,4.03-0.92c1.3,0,2.4,0.23,3.29,0.69c0.89,0.46,1.64,1.15,2.25,2.07l-2.41,1.75
		c-0.32-0.58-0.76-1-1.33-1.26c-0.57-0.27-1.16-0.39-1.8-0.39c-0.9,0-1.67,0.18-2.31,0.55c-0.64,0.37-1.14,0.88-1.49,1.55
		c-0.35,0.67-0.53,1.43-0.53,2.31c0,1.27,0.33,2.25,1.01,2.95c0.67,0.69,1.59,1.04,2.76,1.04c0.47,0,0.92-0.08,1.39-0.24
		c0.47-0.16,0.86-0.41,1.18-0.74s0.52-0.75,0.59-1.26h-2.79L96.27,205.8L96.27,205.8z"/>
	<path class="st4" d="M113.64,202.27h-6.28v2.72h5.88v2.72h-5.88v2.82h6.48l-0.19,2.72h-9.37v-13.69h9.37L113.64,202.27
		L113.64,202.27z"/>
	<path class="st4" d="M124.3,199.55h3.02v13.69h-2.79l-6.08-8.5v8.5h-3.02v-13.69h2.79l6.08,8.5V199.55z"/>
	<path class="st4" d="M140.46,199.55l-0.41,2.76h-4.15v10.93h-3.16v-10.93h-4.34v-2.76H140.46z"/>
	<path class="st4" d="M150.7,202.27h-6.28v2.72h5.88v2.72h-5.88v2.82h6.48l-0.19,2.72h-9.37v-13.69h9.37L150.7,202.27L150.7,202.27z
		"/>
</g>
<g class="st0">
	<path class="st4" d="M39.12,627.21h3.02v13.69h-2.79l-6.08-8.5v8.5h-3.02v-13.69h2.79l6.08,8.5V627.21z"/>
	<path class="st4" d="M54.1,629.92h-6.28v2.72h5.88v2.72h-5.88v2.82h6.48l-0.19,2.72h-9.37v-13.69h9.37L54.1,629.92L54.1,629.92z"/>
	<path class="st4" d="M62.51,633.46h5.84v7.44h-2.48l-0.23-1.27c-0.44,0.52-1,0.9-1.69,1.13c-0.69,0.22-1.41,0.34-2.17,0.34
		c-1.36,0-2.54-0.27-3.54-0.81c-1-0.54-1.77-1.32-2.31-2.32s-0.82-2.22-0.82-3.64c0-1.44,0.31-2.71,0.93-3.81
		c0.62-1.1,1.51-1.96,2.65-2.57c1.15-0.61,2.48-0.92,4.03-0.92c1.3,0,2.4,0.23,3.29,0.69s1.64,1.15,2.25,2.07l-2.41,1.75
		c-0.32-0.58-0.76-1-1.33-1.26c-0.57-0.27-1.16-0.39-1.8-0.39c-0.9,0-1.67,0.18-2.31,0.55c-0.64,0.37-1.14,0.88-1.49,1.55
		c-0.35,0.67-0.53,1.43-0.53,2.31c0,1.27,0.33,2.25,1.01,2.95c0.67,0.69,1.59,1.04,2.76,1.04c0.47,0,0.92-0.08,1.39-0.24
		c0.47-0.16,0.86-0.41,1.18-0.74c0.33-0.33,0.52-0.75,0.59-1.26h-2.79L62.51,633.46L62.51,633.46z"/>
	<path class="st4" d="M70.51,640.89V627.2h3.14v10.93h5.92l-0.19,2.76L70.51,640.89L70.51,640.89z"/>
	<path class="st4" d="M80.77,640.89V627.2h3.14v13.69H80.77z"/>
	<path class="st4" d="M93.3,633.46h5.84v7.44h-2.48l-0.23-1.27c-0.44,0.52-1,0.9-1.69,1.13c-0.69,0.22-1.41,0.34-2.17,0.34
		c-1.36,0-2.54-0.27-3.54-0.81c-1-0.54-1.77-1.32-2.31-2.32c-0.55-1.01-0.82-2.22-0.82-3.64c0-1.44,0.31-2.71,0.93-3.81
		s1.51-1.96,2.65-2.57c1.15-0.61,2.48-0.92,4.03-0.92c1.3,0,2.4,0.23,3.29,0.69s1.64,1.15,2.25,2.07l-2.41,1.75
		c-0.32-0.58-0.76-1-1.33-1.26c-0.57-0.27-1.16-0.39-1.8-0.39c-0.9,0-1.67,0.18-2.31,0.55c-0.64,0.37-1.14,0.88-1.49,1.55
		s-0.53,1.43-0.53,2.31c0,1.27,0.33,2.25,1.01,2.95c0.67,0.69,1.59,1.04,2.76,1.04c0.47,0,0.92-0.08,1.39-0.24
		c0.47-0.16,0.86-0.41,1.18-0.74c0.33-0.33,0.52-0.75,0.59-1.26H93.3L93.3,633.46L93.3,633.46z"/>
	<path class="st4" d="M110.67,629.92h-6.28v2.72h5.88v2.72h-5.88v2.82h6.48l-0.19,2.72h-9.37v-13.69h9.37L110.67,629.92
		L110.67,629.92z"/>
	<path class="st4" d="M121.33,627.21h3.02v13.69h-2.79l-6.08-8.5v8.5h-3.02v-13.69h2.79l6.08,8.5V627.21z"/>
	<path class="st4" d="M137.49,627.21l-0.41,2.76h-4.15v10.93h-3.16v-10.93h-4.34v-2.76H137.49z"/>
	<path class="st4" d="M147.73,629.92h-6.28v2.72h5.88v2.72h-5.88v2.82h6.48l-0.19,2.72h-9.37v-13.69h9.37V629.92z"/>
</g>
<g class="st0">
	<path class="st4" d="M494.96,213.24l5.94-13.69h2.64l5.71,13.69h-3.2l-1.1-2.79h-5.65l-1.14,2.79H494.96z M500.37,207.82h3.53
		l-1.74-4.41L500.37,207.82z"/>
	<path class="st4" d="M518.94,199.55h3.13l0.04,7.41c0,1.3-0.24,2.44-0.73,3.42c-0.49,0.98-1.18,1.73-2.08,2.26
		c-0.9,0.53-1.96,0.8-3.18,0.8c-2.03,0-3.57-0.5-4.62-1.5c-1.05-1.01-1.57-2.5-1.57-4.49v-7.89h3.14v7.64c0,1.22,0.27,2.1,0.79,2.64
		c0.52,0.54,1.26,0.81,2.22,0.81c0.94,0,1.66-0.31,2.17-0.93c0.5-0.62,0.75-1.6,0.74-2.92L518.94,199.55z"/>
	<path class="st4" d="M535.16,199.55l-0.41,2.76h-4.15v10.93h-3.16v-10.93h-4.34v-2.76H535.16z"/>
	<path class="st4" d="M541.62,213.43c-1.44,0.01-2.68-0.25-3.7-0.79c-1.03-0.54-1.82-1.32-2.37-2.34c-0.55-1.01-0.83-2.24-0.83-3.67
		c0-1.43,0.3-2.69,0.88-3.78c0.58-1.1,1.41-1.96,2.48-2.57s2.34-0.92,3.8-0.92c1.3,0,2.43,0.28,3.42,0.85
		c0.98,0.57,1.74,1.35,2.28,2.36c0.55,1.01,0.82,2.2,0.82,3.56c0,1.46-0.29,2.74-0.86,3.84s-1.38,1.94-2.4,2.54
		C544.09,213.11,542.93,213.42,541.62,213.43z M541.5,210.64c1.09,0,1.98-0.39,2.66-1.18c0.68-0.79,1.02-1.89,1.02-3.29
		c0-1.22-0.31-2.2-0.92-2.92s-1.45-1.09-2.48-1.09c-0.76,0-1.43,0.18-2,0.56c-0.58,0.37-1.03,0.89-1.36,1.55s-0.5,1.43-0.5,2.32
		c0,1.29,0.32,2.28,0.95,2.99C539.51,210.29,540.38,210.64,541.5,210.64z"/>
	<path class="st4" d="M561.78,210.29l0.73,2.43c-0.28,0.22-0.64,0.39-1.09,0.52c-0.44,0.13-0.89,0.19-1.36,0.19
		c-0.84,0-1.57-0.17-2.2-0.51c-0.63-0.34-1.15-0.84-1.56-1.49l-1.64-2.62c-0.19-0.31-0.38-0.52-0.57-0.64
		c-0.18-0.13-0.4-0.19-0.64-0.2v5.29h-3.08v-13.69h4.49c1.89,0,3.3,0.38,4.25,1.14c0.95,0.76,1.42,1.8,1.42,3.14
		c0,1.06-0.33,1.91-0.98,2.58s-1.48,1.11-2.5,1.31c0.42,0.21,0.8,0.55,1.12,1.02l0.66,1.01c0.41,0.61,0.95,0.92,1.62,0.92
		c0.24,0,0.47-0.03,0.69-0.09C561.37,210.53,561.58,210.43,561.78,210.29z M554.69,202.12h-1.23v3.39h1.21
		c0.96,0,1.66-0.14,2.08-0.41c0.42-0.27,0.64-0.71,0.64-1.3c0-0.59-0.24-1.02-0.71-1.28C556.2,202.25,555.54,202.12,554.69,202.12z"
		/>
	<path class="st4" d="M563.14,213.24v-13.69h3.14v13.69H563.14z"/>
	<path class="st4" d="M579.41,199.55l-0.41,2.76h-4.15v10.93h-3.16v-10.93h-4.34v-2.76H579.41z"/>
	<path class="st4" d="M577.17,213.24l5.94-13.69h2.64l5.71,13.69h-3.2l-1.1-2.79h-5.65l-1.14,2.79H577.17z M582.59,207.82h3.53
		l-1.74-4.41L582.59,207.82z"/>
	<path class="st4" d="M601.47,199.55l-0.41,2.76h-4.15v10.93h-3.16v-10.93h-4.34v-2.76H601.47z"/>
	<path class="st4" d="M602.33,213.24v-13.69h3.14v13.69H602.33z"/>
	<path class="st4" d="M616.87,199.55h3.14l-4.88,13.69h-4.45l-4.07-13.69h3.36l3.13,10.97L616.87,199.55z"/>
	<path class="st4" d="M626.61,213.43c-1.44,0.01-2.68-0.25-3.7-0.79c-1.03-0.54-1.82-1.32-2.37-2.34c-0.55-1.01-0.83-2.24-0.83-3.67
		c0-1.43,0.3-2.69,0.88-3.78c0.58-1.1,1.41-1.96,2.48-2.57s2.34-0.92,3.8-0.92c1.3,0,2.43,0.28,3.42,0.85
		c0.98,0.57,1.74,1.35,2.28,2.36c0.55,1.01,0.82,2.2,0.82,3.56c0,1.46-0.29,2.74-0.86,3.84s-1.38,1.94-2.4,2.54
		C629.08,213.11,627.92,213.42,626.61,213.43z M626.49,210.64c1.09,0,1.98-0.39,2.66-1.18c0.68-0.79,1.02-1.89,1.02-3.29
		c0-1.22-0.31-2.2-0.92-2.92s-1.45-1.09-2.48-1.09c-0.76,0-1.43,0.18-2,0.56c-0.58,0.37-1.03,0.89-1.36,1.55s-0.5,1.43-0.5,2.32
		c0,1.29,0.32,2.28,0.95,2.99C624.49,210.29,625.37,210.64,626.49,210.64z"/>
</g>
<g class="st0">
	<path class="st4" d="M494.96,640.89l5.94-13.69h2.64l5.71,13.69h-3.2l-1.1-2.79h-5.65l-1.14,2.79H494.96z M500.38,635.48h3.53
		l-1.74-4.41L500.38,635.48z"/>
	<path class="st4" d="M518.94,627.21h3.13l0.04,7.41c0,1.3-0.24,2.43-0.73,3.42c-0.49,0.98-1.18,1.73-2.08,2.26
		c-0.9,0.53-1.96,0.8-3.18,0.8c-2.03,0-3.57-0.5-4.62-1.5c-1.05-1-1.57-2.5-1.57-4.49v-7.89h3.14v7.64c0,1.22,0.27,2.1,0.79,2.64
		c0.52,0.54,1.26,0.81,2.22,0.81c0.94,0,1.66-0.31,2.17-0.94c0.51-0.62,0.75-1.6,0.74-2.92L518.94,627.21z"/>
	<path class="st4" d="M535.16,627.21l-0.41,2.76h-4.15v10.93h-3.16v-10.93h-4.34v-2.76H535.16z"/>
	<path class="st4" d="M541.62,641.09c-1.44,0.01-2.68-0.25-3.7-0.79c-1.03-0.54-1.82-1.32-2.37-2.34c-0.55-1.01-0.83-2.24-0.83-3.67
		c0-1.43,0.3-2.69,0.88-3.79c0.58-1.1,1.41-1.96,2.48-2.57c1.06-0.61,2.34-0.92,3.8-0.92c1.3,0,2.43,0.28,3.42,0.85
		c0.98,0.57,1.74,1.35,2.28,2.37c0.55,1.01,0.82,2.2,0.82,3.56c0,1.46-0.29,2.74-0.86,3.84s-1.38,1.94-2.4,2.54
		C544.09,640.77,542.93,641.08,541.62,641.09z M541.51,638.29c1.09,0,1.98-0.4,2.66-1.18c0.68-0.79,1.02-1.89,1.02-3.29
		c0-1.22-0.31-2.2-0.92-2.92c-0.61-0.72-1.45-1.09-2.48-1.09c-0.76,0-1.43,0.18-2,0.56c-0.58,0.37-1.03,0.89-1.36,1.55
		s-0.5,1.43-0.5,2.32c0,1.29,0.32,2.28,0.95,2.99C539.51,637.94,540.38,638.29,541.51,638.29z"/>
	<path class="st4" d="M561.78,637.94l0.73,2.43c-0.28,0.22-0.64,0.39-1.09,0.52c-0.44,0.13-0.89,0.19-1.36,0.19
		c-0.84,0-1.57-0.17-2.2-0.51c-0.63-0.34-1.15-0.84-1.56-1.49l-1.64-2.62c-0.19-0.31-0.38-0.52-0.57-0.64
		c-0.18-0.12-0.4-0.19-0.64-0.2v5.29h-3.08v-13.69h4.49c1.89,0,3.3,0.38,4.25,1.14c0.95,0.76,1.42,1.8,1.42,3.14
		c0,1.06-0.33,1.91-0.98,2.59c-0.65,0.67-1.48,1.11-2.5,1.31c0.42,0.21,0.8,0.55,1.12,1.02l0.66,1.01c0.41,0.61,0.95,0.92,1.62,0.92
		c0.24,0,0.47-0.03,0.69-0.09C561.37,638.19,561.58,638.09,561.78,637.94z M554.69,629.77h-1.23v3.39h1.21
		c0.96,0,1.66-0.14,2.08-0.41c0.42-0.27,0.64-0.71,0.64-1.3c0-0.59-0.24-1.02-0.71-1.28C556.2,629.9,555.54,629.77,554.69,629.77z"
		/>
	<path class="st4" d="M563.14,640.89V627.2h3.14v13.69H563.14z"/>
	<path class="st4" d="M579.41,627.21l-0.41,2.76h-4.15v10.93h-3.16v-10.93h-4.34v-2.76H579.41z"/>
	<path class="st4" d="M577.17,640.89l5.94-13.69h2.64l5.71,13.69h-3.2l-1.1-2.79h-5.65l-1.14,2.79H577.17z M582.59,635.48h3.53
		l-1.74-4.41L582.59,635.48z M583.07,625.98l2.35-3.42l3.01,0.75l-2.78,2.66H583.07z"/>
	<path class="st4" d="M603.78,637.94l0.73,2.43c-0.28,0.22-0.64,0.39-1.09,0.52c-0.44,0.13-0.89,0.19-1.36,0.19
		c-0.84,0-1.57-0.17-2.2-0.51c-0.63-0.34-1.15-0.84-1.56-1.49l-1.64-2.62c-0.19-0.31-0.38-0.52-0.57-0.64
		c-0.18-0.12-0.4-0.19-0.64-0.2v5.29h-3.08v-13.69h4.49c1.89,0,3.3,0.38,4.25,1.14c0.95,0.76,1.42,1.8,1.42,3.14
		c0,1.06-0.33,1.91-0.98,2.59c-0.65,0.67-1.48,1.11-2.5,1.31c0.42,0.21,0.8,0.55,1.12,1.02l0.66,1.01c0.41,0.61,0.95,0.92,1.62,0.92
		c0.24,0,0.47-0.03,0.69-0.09C603.36,638.19,603.57,638.09,603.78,637.94z M596.68,629.77h-1.23v3.39h1.21
		c0.96,0,1.66-0.14,2.08-0.41c0.42-0.27,0.64-0.71,0.64-1.3c0-0.59-0.24-1.02-0.71-1.28C598.19,629.9,597.53,629.77,596.68,629.77z"
		/>
	<path class="st4" d="M605.13,640.89V627.2h3.14v13.69H605.13z"/>
	<path class="st4" d="M617.16,641.09c-1.44,0.01-2.68-0.25-3.7-0.79c-1.03-0.54-1.82-1.32-2.37-2.34c-0.55-1.01-0.83-2.24-0.83-3.67
		c0-1.43,0.3-2.69,0.88-3.79c0.58-1.1,1.41-1.96,2.48-2.57c1.06-0.61,2.34-0.92,3.8-0.92c1.3,0,2.43,0.28,3.42,0.85
		c0.98,0.57,1.74,1.35,2.28,2.37c0.55,1.01,0.82,2.2,0.82,3.56c0,1.46-0.29,2.74-0.86,3.84c-0.58,1.09-1.38,1.94-2.4,2.54
		C619.64,640.77,618.47,641.08,617.16,641.09z M617.04,638.29c1.09,0,1.98-0.4,2.66-1.18c0.68-0.79,1.02-1.89,1.02-3.29
		c0-1.22-0.31-2.2-0.92-2.92c-0.61-0.72-1.45-1.09-2.48-1.09c-0.76,0-1.43,0.18-2,0.56c-0.58,0.37-1.03,0.89-1.36,1.55
		s-0.5,1.43-0.5,2.32c0,1.29,0.32,2.28,0.95,2.99C615.05,637.94,615.93,638.29,617.04,638.29z"/>
</g>
<g>
	<g class="st0">
		<path class="st4" d="M18.67,3.64h-7.86v3.4h7.35v3.4h-7.35v3.52h8.09l-0.24,3.4H6.95V0.24h11.71L18.67,3.64L18.67,3.64z"/>
		<path class="st4" d="M26.45,17.57c-2.11,0-3.73-0.45-4.89-1.35c-1.15-0.9-1.82-2.23-1.97-3.98l3.69-0.53
			c0.1,0.84,0.43,1.47,0.99,1.91c0.56,0.44,1.34,0.67,2.34,0.67c0.85,0,1.51-0.15,1.97-0.44s0.69-0.72,0.69-1.26
			c0-0.5-0.24-0.89-0.72-1.18c-0.48-0.29-1.28-0.56-2.39-0.82c-1.19-0.29-2.2-0.64-3.02-1.05c-0.82-0.41-1.44-0.95-1.86-1.6
			c-0.42-0.66-0.63-1.49-0.63-2.51c0-1.06,0.27-2,0.82-2.82c0.55-0.82,1.31-1.46,2.29-1.91C24.74,0.23,25.87,0,27.16,0
			c1.67,0,3.04,0.43,4.1,1.28c1.06,0.85,1.67,2.02,1.83,3.5l-3.44,0.58c-0.13-0.66-0.43-1.17-0.89-1.53
			c-0.47-0.36-1.05-0.54-1.76-0.54c-0.71,0-1.28,0.16-1.71,0.5s-0.65,0.78-0.65,1.34c0,0.52,0.21,0.93,0.63,1.24
			c0.41,0.31,1.18,0.61,2.29,0.88c1.18,0.29,2.19,0.61,3.04,0.98c0.85,0.36,1.51,0.86,1.97,1.48c0.46,0.63,0.69,1.48,0.69,2.56
			c0,1.04-0.28,1.97-0.84,2.77c-0.56,0.81-1.35,1.43-2.37,1.88C28.99,17.34,27.8,17.57,26.45,17.57z"/>
		<path class="st4" d="M48.43,0.24l-0.5,3.44h-5.18v13.66h-3.95V3.69h-5.42V0.24H48.43z"/>
		<path class="st4" d="M49.52,17.35V0.24h3.93v17.11L49.52,17.35L49.52,17.35z"/>
		<path class="st4" d="M56.67,17.35V0.24h3.93v13.66H68l-0.24,3.44C67.75,17.35,56.67,17.35,56.67,17.35z"/>
		<path class="st4" d="M76.77,17.59c-1.8,0.01-3.34-0.31-4.63-0.99c-1.29-0.67-2.28-1.65-2.96-2.91c-0.69-1.27-1.03-2.79-1.03-4.58
			s0.36-3.36,1.09-4.74s1.76-2.45,3.1-3.22c1.33-0.77,2.91-1.15,4.75-1.15c1.63,0,3.05,0.35,4.27,1.06
			c1.22,0.71,2.17,1.69,2.85,2.95c0.68,1.26,1.03,2.74,1.03,4.45c0,1.83-0.36,3.43-1.09,4.8c-0.72,1.37-1.72,2.42-3,3.18
			C79.87,17.19,78.41,17.58,76.77,17.59z M76.63,14.1c1.37,0,2.48-0.5,3.33-1.48c0.85-0.99,1.28-2.36,1.28-4.11
			c0-1.52-0.38-2.74-1.15-3.65c-0.77-0.91-1.8-1.36-3.11-1.36c-0.95,0-1.78,0.24-2.51,0.7c-0.72,0.47-1.29,1.12-1.7,1.94
			c-0.41,0.83-0.61,1.8-0.61,2.91c0,1.6,0.4,2.85,1.19,3.73C74.13,13.66,75.23,14.1,76.63,14.1z"/>
		<path class="st4" d="M93.01,17.57c-2.11,0-3.73-0.45-4.89-1.35c-1.15-0.9-1.82-2.23-1.97-3.98l3.69-0.53
			c0.1,0.84,0.43,1.47,0.99,1.91c0.56,0.44,1.34,0.67,2.34,0.67c0.85,0,1.51-0.15,1.97-0.44c0.46-0.3,0.69-0.72,0.69-1.26
			c0-0.5-0.24-0.89-0.72-1.18c-0.48-0.29-1.28-0.56-2.39-0.82c-1.19-0.29-2.2-0.64-3.02-1.05c-0.82-0.41-1.44-0.95-1.86-1.6
			c-0.42-0.66-0.63-1.49-0.63-2.51c0-1.06,0.27-2,0.82-2.82c0.55-0.82,1.31-1.46,2.29-1.91C91.3,0.23,92.43,0,93.72,0
			c1.67,0,3.04,0.43,4.1,1.28c1.06,0.85,1.67,2.02,1.83,3.5L96.2,5.35c-0.13-0.66-0.43-1.17-0.89-1.53
			c-0.47-0.36-1.05-0.54-1.76-0.54s-1.28,0.16-1.71,0.5s-0.65,0.78-0.65,1.34c0,0.52,0.21,0.93,0.63,1.24
			c0.41,0.31,1.18,0.61,2.29,0.88c1.18,0.29,2.19,0.61,3.04,0.98c0.85,0.36,1.51,0.86,1.97,1.48c0.46,0.63,0.69,1.48,0.69,2.56
			c0,1.04-0.28,1.97-0.84,2.77s-1.35,1.43-2.37,1.88C95.55,17.34,94.37,17.57,93.01,17.57z"/>
	</g>
</g>
<path class="st4" d="M127.71,48.38c-0.53-2.76-0.37-5.62-0.21-8.39c0.09-1.48,0.17-3.02,0.16-4.52c-0.02-2.06-0.25-4.2-2.65-5.77
	c-2.24-1.46-5.78-1.99-8.63-2.42c-5.31-0.79-10.45-0.7-15.89-0.6c-1.26,0.02-2.57,0.04-3.87,0.06h-0.09
	c-6.08,0.06-28.53,0.11-34.71,0.11H20.61c-3.97,0-8.58,0.13-12.67,1.09c-1.12,0.26-2.2,0.86-3.31,1.02
	c-1.01,0.15-2.07,0.3-2.78,2.07c-0.55,1.38-0.69,3.31-0.79,5.12c-0.33,5.78-0.66,11.57-0.98,17.35c-0.09,1.65-0.17,3.48,0.28,4.84
	c0.77,2.34,2.66,2.33,3.86,2.62c2.58,0.62,5.49,0.64,8.05,0.67c13.9,0.1,27.49,0.21,40.95,0.17c6.29-0.01,12.68,0.13,18.87,0.25
	c5.91,0.13,12,0.25,18.04,0.25c1.17,0,2.33,0,3.48-0.01c6.44-0.06,12.12-0.15,17.39-0.27c0.38-0.01,0.76-0.01,1.12-0.02
	c4.52-0.09,8.43-0.18,12.08-2.26c2.2-1.26,3.46-3.05,3.87-5.48C128.38,52.32,128.09,50.28,127.71,48.38z"/>
<g class="st0">
	<path class="st5" d="M17.13,52.67h-2.39V35.56h5.76c2.09,0,3.7,0.44,4.83,1.3c1.13,0.86,1.7,2.14,1.7,3.81
		c0,1.66-0.59,2.96-1.78,3.9s-2.98,1.42-5.37,1.42h-2.75C17.13,45.99,17.13,52.67,17.13,52.67z M20.34,37.56h-3.21v6.41H20
		c1.64,0,2.82-0.27,3.53-0.82c0.72-0.55,1.07-1.37,1.07-2.46c0-1.09-0.35-1.89-1.03-2.39C22.87,37.81,21.8,37.56,20.34,37.56z"/>
	<path class="st5" d="M39.45,40.62v12.05h-2.36l0.1-2.48c-0.45,0.84-1.03,1.49-1.76,1.97c-0.72,0.48-1.55,0.72-2.48,0.72
		c-1.04,0-1.92-0.24-2.64-0.73c-0.72-0.49-1.26-1.16-1.63-2.01s-0.55-1.83-0.55-2.94c0-1.33,0.25-2.51,0.76-3.54
		c0.5-1.03,1.2-1.83,2.1-2.4s1.91-0.86,3.08-0.86c0.77,0,1.46,0.17,2.06,0.52c0.6,0.35,1.05,0.8,1.34,1.36l0.29-1.66
		C37.75,40.62,39.45,40.62,39.45,40.62z M34.15,42.45c-1.11,0-2,0.42-2.66,1.26c-0.67,0.84-1,1.96-1,3.34
		c0,1.19,0.26,2.11,0.77,2.77c0.52,0.66,1.2,0.99,2.07,0.99c0.72,0,1.37-0.21,1.95-0.63c0.58-0.41,1.03-1,1.37-1.74
		c0.34-0.75,0.51-1.6,0.51-2.57c0-1.06-0.27-1.89-0.81-2.51C35.81,42.76,35.08,42.45,34.15,42.45z"/>
	<path class="st5" d="M50.1,42.82c-0.3-0.1-0.67-0.15-1.11-0.15c-0.9,0-1.63,0.34-2.2,1.03c-0.57,0.68-0.99,1.76-1.26,3.23
		c-0.27,1.47-0.4,3.39-0.4,5.75h-2.29v-7.76l-0.02-4.32h2.31l-0.15,3.86c0.4-1.46,0.98-2.5,1.74-3.12c0.76-0.62,1.58-0.93,2.45-0.93
		c0.26,0,0.5,0.01,0.71,0.04c0.21,0.02,0.41,0.07,0.57,0.13L50.1,42.82z"/>
	<path class="st5" d="M57.18,52.89c-1.89,0-3.39-0.54-4.48-1.61c-1.09-1.08-1.64-2.57-1.64-4.46c0-1.26,0.25-2.37,0.76-3.33
		c0.5-0.96,1.2-1.72,2.08-2.26s1.89-0.82,3.02-0.82c1.74,0,3.05,0.6,3.95,1.8c0.9,1.2,1.21,2.93,0.94,5.2H53.4
		c0.05,1.09,0.41,1.94,1.09,2.54s1.63,0.9,2.85,0.9c0.59,0,1.17-0.13,1.72-0.4c0.55-0.27,1.03-0.67,1.43-1.19l1.4,1.35
		c-0.56,0.74-1.23,1.31-2,1.7C59.13,52.69,58.23,52.89,57.18,52.89z M56.95,42.19c-0.98,0-1.77,0.33-2.39,0.99
		c-0.61,0.66-0.98,1.49-1.11,2.48h6.36c0.05-1.22-0.2-2.11-0.73-2.65C58.54,42.46,57.83,42.19,56.95,42.19z"/>
	<path class="st5" d="M64.58,52.67V40.6h2.31l-0.15,3.56c0.45-1.2,1.09-2.14,1.91-2.79c0.82-0.65,1.77-0.98,2.87-0.98
		c1.29,0,2.26,0.44,2.94,1.34c0.67,0.89,1.01,2.17,0.99,3.84l-0.05,7.08h-2.29l0.05-6.87c0.01-2.17-0.72-3.25-2.22-3.25
		c-0.78,0-1.48,0.3-2.08,0.92c-0.6,0.61-1.08,1.66-1.43,3.13c-0.35,1.48-0.54,3.5-0.55,6.08H64.58z"/>
	<path class="st5" d="M83.55,52.89c-1.43,0-2.52-0.38-3.27-1.15c-0.75-0.76-1.12-1.78-1.09-3.05l0.1-6.14h-2.1V40.6h2.12l0.02-2.51
		h2.31L81.6,40.6h4.1v1.95h-4.12L81.5,48.5c0,0.71,0.18,1.27,0.55,1.7c0.37,0.43,0.94,0.64,1.71,0.64c0.37,0,0.72-0.04,1.03-0.13
		c0.32-0.09,0.66-0.27,1.01-0.54l0.7,1.81c-0.35,0.3-0.79,0.53-1.32,0.69C84.68,52.81,84.13,52.89,83.55,52.89z"/>
	<path class="st5" d="M98.51,40.62v12.05h-2.36l0.1-2.48c-0.45,0.84-1.03,1.49-1.76,1.97c-0.72,0.48-1.55,0.72-2.48,0.72
		c-1.04,0-1.92-0.24-2.64-0.73c-0.72-0.49-1.26-1.16-1.63-2.01s-0.55-1.83-0.55-2.94c0-1.33,0.25-2.51,0.76-3.54
		c0.5-1.03,1.2-1.83,2.1-2.4c0.89-0.57,1.91-0.86,3.08-0.86c0.77,0,1.46,0.17,2.06,0.52c0.6,0.35,1.05,0.8,1.34,1.36l0.29-1.66
		C96.81,40.62,98.51,40.62,98.51,40.62z M93.21,42.45c-1.11,0-2,0.42-2.66,1.26c-0.67,0.84-1,1.96-1,3.34
		c0,1.19,0.26,2.11,0.77,2.77c0.52,0.66,1.2,0.99,2.07,0.99c0.72,0,1.37-0.21,1.95-0.63c0.58-0.41,1.03-1,1.37-1.74
		c0.34-0.75,0.51-1.6,0.51-2.57c0-1.06-0.27-1.89-0.81-2.51C94.88,42.76,94.15,42.45,93.21,42.45z"/>
	<path class="st5" d="M103.07,38.26c-0.47,0-0.84-0.15-1.11-0.44c-0.27-0.3-0.41-0.64-0.41-1.05c0-0.41,0.13-0.75,0.41-1.05
		c0.27-0.3,0.64-0.44,1.11-0.44s0.84,0.15,1.11,0.44c0.27,0.3,0.41,0.65,0.41,1.05s-0.14,0.75-0.41,1.05
		C103.9,38.11,103.53,38.26,103.07,38.26z M104.18,40.6v12.07h-2.29V40.6H104.18z"/>
	<path class="st5" d="M111.63,52.89c-1.57,0-2.79-0.31-3.64-0.94c-0.85-0.63-1.34-1.51-1.47-2.65l1.97-0.48
		c0.11,0.74,0.41,1.29,0.92,1.66c0.5,0.37,1.23,0.55,2.22,0.55c0.78,0,1.39-0.15,1.8-0.44c0.41-0.3,0.63-0.69,0.63-1.19
		c0-0.48-0.22-0.84-0.67-1.07c-0.44-0.23-1.12-0.44-2.03-0.61c-0.85-0.16-1.59-0.38-2.2-0.64c-0.62-0.27-1.09-0.63-1.43-1.09
		c-0.34-0.46-0.5-1.06-0.5-1.82c0-0.72,0.2-1.37,0.59-1.93c0.39-0.56,0.93-1.01,1.61-1.34c0.68-0.33,1.46-0.5,2.35-0.5
		c1.19,0,2.17,0.29,2.93,0.86c0.76,0.57,1.22,1.32,1.36,2.25l-1.91,0.51c-0.26-1.18-1.07-1.76-2.43-1.76c-0.71,0-1.26,0.16-1.66,0.5
		c-0.4,0.33-0.6,0.75-0.6,1.26c0,0.45,0.19,0.81,0.58,1.09s1.08,0.52,2.07,0.71c0.85,0.18,1.59,0.39,2.22,0.64
		c0.63,0.25,1.11,0.58,1.46,1.01c0.35,0.43,0.52,1.01,0.54,1.74c0,0.71-0.2,1.34-0.59,1.89c-0.39,0.55-0.95,0.99-1.65,1.3
		C113.38,52.73,112.56,52.89,111.63,52.89z"/>
</g>
<path class="st4" d="M557.23,411.71l-3.02,4.8l5.94,6.23c-3.11,0.04-6.19,0.34-9.23,0.64c-4.74,0.47-163.08,0.9-204.38,0.45
	l-0.13-0.27c-0.13,0.09-0.64,0.16-0.81,0.18c-0.16,0.02-0.72,0.04-1.63,0.06c-0.92-0.02-1.5-0.04-1.65-0.06
	c-0.17-0.02-0.68-0.09-0.81-0.18l-0.13,0.27c-40.72,0.47-199.34,0.01-204.08-0.45c-3.03-0.3-6.12-0.59-9.23-0.64l5.94-6.23
	l-3.02-4.8l-14.28,15.01l14.44,12.84l2.71-5.1l-6.23-6.94c3.05,0.02,6.12,0.32,9.31,0.64c3.3,0.33,200.45,0.66,203.85,0.66
	c1.05,0,2.11-0.04,3.16-0.13c1.05,0.08,2.11,0.13,3.16,0.13c3.41,0,200.85-0.33,204.15-0.66c3.19-0.32,6.27-0.61,9.31-0.64
	l-6.23,6.94l2.71,5.1l14.44-12.84L557.23,411.71z"/>
<path class="st4" d="M330.81,222.57l4.8,3.02l6.23-5.94c0.04,3.11,0.34,6.19,0.64,9.23c0.47,4.74,0.9,301.91,0.45,343.2l-0.27,0.13
	c0.09,0.13,0.16,0.64,0.18,0.81c0.02,0.16,0.04,0.72,0.06,1.63c-0.02,0.92-0.04,1.5-0.06,1.65c-0.02,0.17-0.09,0.68-0.18,0.81
	l0.27,0.13c0.47,40.72,0.01,54.12-0.45,58.86c-0.3,3.03-0.59,6.12-0.64,9.23l-6.23-5.94l-4.8,3.02l15.01,14.28l12.84-14.44
	l-5.1-2.71l-7.19,6.23c0.02-3.05,0.32-6.12,0.64-9.31c0.33-3.3,2.31-55.24,2.31-58.64c0-1.05-0.04-2.11-0.13-3.16
	c0.08-1.05,0.13-2.11,0.13-3.16c0-3.41-1.99-339.67-2.31-342.98c-0.32-3.19-0.61-6.27-0.64-9.31l7.19,6.23l5.1-2.71l-12.84-14.44
	L330.81,222.57z"/>
</svg>
