<?xml version="1.0" encoding="utf-8"?>
<!-- Generator: Adobe Illustrator 24.0.2, SVG Export Plug-In . SVG Version: 6.00 Build 0)  -->
<svg version="1.1" id="Camada_1" xmlns="http://www.w3.org/2000/svg" xmlns:xlink="http://www.w3.org/1999/xlink" x="0px" y="0px"
	 viewBox="0 0 533.2 472.51" style="enable-background:new 0 0 533.2 472.51;" xml:space="preserve">
<style type="text/css">
	.st0{fill:#F4A147;}
	.st1{fill:#FFFFFF;}
</style>
<g>
	<path class="st0" d="M26.55,472.51h480.1c20.49,0,33.24-22.77,22.86-40.84L289.46,13.39c-10.25-17.85-35.48-17.85-45.72,0
		L3.69,431.67C-6.69,449.75,6.06,472.51,26.55,472.51z"/>
	<path class="st1" d="M450.95,399.26c-19.82-14.79-135.89-107.9-150.46-269.87c4.07,0.62,8.51,0.93,11.93-0.29
		c3.74-1.33,5.97-6.37,3.44-10.28c-0.05-0.07-46.6-71.87-46.6-71.87c-2.21-3.41-6.65-3.32-8.75,0.19c0,0-43.04,71.87-43.04,71.87
		c-1.75,2.93-1.09,7.82,2.05,8.97c0.76,0.28,1.58,0.55,2.41,0.76c0.83,0.21,1.68,0.37,2.47,0.41c2.25,0.11,4.44-0.7,6.62-1.21
		C226.98,268.99,97.39,380.38,77.59,396.59c-1.38,1.13-1.58,3.21-0.46,4.61l30.4,37.86c1.07,1.33,2.97,1.57,4.31,0.53
		c91.04-71.02,143.5-191.12,150.48-207.8c0.5-1.19,1.62-1.94,2.87-1.94h0.75c1.31,0,2.48,0.86,2.94,2.13
		c50.41,141.88,133.09,199.1,147.4,208.16c1.24,0.78,2.83,0.59,3.86-0.47l31.28-35.59C452.68,402.64,452.47,400.39,450.95,399.26z"
		/>
</g>
</svg>
