<?xml version="1.0" encoding="utf-8"?>
<!-- Generator: Adobe Illustrator 24.0.2, SVG Export Plug-In . SVG Version: 6.00 Build 0)  -->
<svg version="1.1" id="Camada_1" xmlns="http://www.w3.org/2000/svg" xmlns:xlink="http://www.w3.org/1999/xlink" x="0px" y="0px"
	 viewBox="0 0 496.59 328.88" style="enable-background:new 0 0 496.59 328.88;" xml:space="preserve">
<style type="text/css">
	.st0{enable-background:new    ;}
	.st1{fill:#DBA723;}
	.st2{fill:#141414;}
	.st3{fill:#F7F7F6;}
	.st4{fill:#FFEE00;}
</style>
<g class="st0">
	<path class="st1" d="M22.36,16.12c-0.59,0.97-1.41,1.72-2.46,2.24c-1.04,0.52-2.2,0.78-3.47,0.78c-1.55,0-2.88-0.29-3.98-0.85
		c-1.1-0.57-1.95-1.38-2.54-2.45c-0.59-1.06-0.88-2.34-0.88-3.82c0-1.53,0.32-2.87,0.97-4.02s1.55-2.05,2.7-2.7
		c1.16-0.65,2.49-0.97,4.01-0.97c1.32,0,2.45,0.24,3.36,0.73c0.91,0.49,1.68,1.23,2.3,2.21l-2.54,1.8C19.52,8.45,19.07,8,18.5,7.71
		c-0.57-0.29-1.18-0.43-1.82-0.43c-0.85,0-1.6,0.19-2.23,0.59c-0.64,0.39-1.13,0.94-1.49,1.64c-0.36,0.7-0.54,1.52-0.54,2.43
		c0,1.34,0.35,2.38,1.05,3.13c0.7,0.74,1.69,1.12,2.98,1.12c0.69,0,1.34-0.17,1.96-0.5c0.62-0.33,1.11-0.84,1.49-1.51L22.36,16.12z"
		/>
	<path class="st1" d="M23.46,18.94V4.54h3.3v11.5h6.22l-0.21,2.9L23.46,18.94L23.46,18.94z"/>
	<path class="st1" d="M33.05,18.94l6.25-14.4h2.78l6,14.4h-3.37l-1.16-2.94h-5.94l-1.2,2.94L33.05,18.94L33.05,18.94z M38.75,13.24
		h3.71L40.64,8.6L38.75,13.24z"/>
	<path class="st1" d="M53.51,19.12c-1.77,0-3.14-0.38-4.12-1.13c-0.97-0.76-1.53-1.87-1.66-3.35l3.1-0.45
		c0.08,0.7,0.36,1.24,0.83,1.61c0.47,0.37,1.13,0.56,1.96,0.56c0.72,0,1.27-0.12,1.65-0.37c0.38-0.25,0.58-0.6,0.58-1.06
		c0-0.42-0.21-0.75-0.61-0.99c-0.4-0.24-1.07-0.47-2.01-0.69c-1-0.24-1.85-0.54-2.54-0.88c-0.69-0.35-1.21-0.79-1.56-1.35
		s-0.53-1.26-0.53-2.11c0-0.89,0.23-1.68,0.69-2.37c0.46-0.69,1.1-1.23,1.93-1.61c0.83-0.38,1.78-0.58,2.86-0.58
		c1.4,0,2.55,0.36,3.45,1.07c0.89,0.72,1.4,1.69,1.54,2.94l-2.9,0.49c-0.11-0.56-0.36-0.98-0.75-1.29c-0.39-0.3-0.89-0.46-1.48-0.46
		c-0.59,0-1.07,0.14-1.44,0.42c-0.37,0.28-0.55,0.65-0.55,1.12c0,0.43,0.18,0.78,0.53,1.04c0.35,0.26,0.99,0.51,1.93,0.74
		c0.99,0.24,1.84,0.52,2.55,0.82c0.72,0.3,1.27,0.72,1.65,1.25s0.58,1.24,0.58,2.15c0,0.88-0.24,1.66-0.71,2.33
		c-0.47,0.67-1.14,1.2-2,1.58C55.64,18.93,54.64,19.12,53.51,19.12z"/>
	<path class="st1" d="M65.66,19.12c-1.77,0-3.14-0.38-4.12-1.13c-0.97-0.76-1.53-1.87-1.66-3.35l3.1-0.45
		c0.08,0.7,0.36,1.24,0.83,1.61c0.47,0.37,1.13,0.56,1.96,0.56c0.72,0,1.27-0.12,1.65-0.37c0.38-0.25,0.58-0.6,0.58-1.06
		c0-0.42-0.21-0.75-0.61-0.99c-0.4-0.24-1.07-0.47-2.01-0.69c-1-0.24-1.85-0.54-2.54-0.88c-0.69-0.35-1.21-0.79-1.56-1.35
		c-0.35-0.56-0.53-1.26-0.53-2.11c0-0.89,0.23-1.68,0.69-2.37c0.46-0.69,1.1-1.23,1.93-1.61c0.83-0.38,1.78-0.58,2.86-0.58
		c1.4,0,2.55,0.36,3.45,1.07c0.89,0.72,1.4,1.69,1.54,2.94l-2.9,0.49c-0.11-0.56-0.36-0.98-0.75-1.29c-0.39-0.3-0.89-0.46-1.48-0.46
		c-0.59,0-1.07,0.14-1.44,0.42c-0.37,0.28-0.55,0.65-0.55,1.12c0,0.43,0.18,0.78,0.53,1.04c0.35,0.26,0.99,0.51,1.93,0.74
		c0.99,0.24,1.84,0.52,2.55,0.82c0.72,0.3,1.27,0.72,1.65,1.25c0.38,0.53,0.58,1.24,0.58,2.15c0,0.88-0.24,1.66-0.71,2.33
		c-0.47,0.67-1.14,1.2-2,1.58C67.79,18.93,66.79,19.12,65.66,19.12z"/>
	<path class="st1" d="M73.14,18.94V4.54h3.3v14.4L73.14,18.94L73.14,18.94z"/>
	<path class="st1" d="M88.55,7.4H82.4v3.06h5.72v2.84H82.4v5.64h-3.24V4.54h9.39V7.4z"/>
	<path class="st1" d="M89.95,18.94V4.54h3.3v14.4L89.95,18.94L89.95,18.94z"/>
	<path class="st1" d="M108.66,16.12c-0.59,0.97-1.41,1.72-2.46,2.24s-2.2,0.78-3.47,0.78c-1.55,0-2.88-0.29-3.98-0.85
		c-1.1-0.57-1.95-1.38-2.54-2.45s-0.88-2.34-0.88-3.82c0-1.53,0.32-2.87,0.97-4.02s1.55-2.05,2.7-2.7c1.16-0.65,2.49-0.97,4.01-0.97
		c1.32,0,2.45,0.24,3.36,0.73c0.91,0.49,1.68,1.23,2.3,2.21l-2.54,1.8c-0.32-0.62-0.77-1.07-1.34-1.36
		c-0.57-0.29-1.18-0.43-1.82-0.43c-0.85,0-1.6,0.19-2.23,0.59c-0.64,0.39-1.13,0.94-1.49,1.64c-0.36,0.7-0.54,1.52-0.54,2.43
		c0,1.34,0.35,2.38,1.05,3.13c0.7,0.74,1.69,1.12,2.98,1.12c0.69,0,1.34-0.17,1.96-0.5c0.62-0.33,1.11-0.84,1.49-1.51L108.66,16.12z
		"/>
	<path class="st1" d="M107.93,18.94l6.25-14.4h2.78l6,14.4h-3.37L118.43,16h-5.94l-1.2,2.94H107.93z M113.63,13.24h3.71l-1.82-4.64
		L113.63,13.24z"/>
	<path class="st1" d="M136.2,16.12c-0.59,0.97-1.41,1.72-2.46,2.24c-1.04,0.52-2.2,0.78-3.47,0.78c-1.55,0-2.88-0.29-3.98-0.85
		c-1.1-0.57-1.95-1.38-2.54-2.45s-0.88-2.34-0.88-3.82c0-1.53,0.32-2.87,0.97-4.02s1.55-2.05,2.7-2.7c1.16-0.65,2.49-0.97,4.01-0.97
		c1.32,0,2.45,0.24,3.36,0.73c0.91,0.49,1.68,1.23,2.3,2.21l-2.54,1.8c-0.32-0.62-0.77-1.07-1.34-1.36
		c-0.57-0.29-1.18-0.43-1.82-0.43c-0.85,0-1.6,0.19-2.23,0.59c-0.64,0.39-1.13,0.94-1.49,1.64c-0.36,0.7-0.54,1.52-0.54,2.43
		c0,1.34,0.35,2.38,1.05,3.13c0.7,0.74,1.69,1.12,2.98,1.12c0.69,0,1.34-0.17,1.96-0.5c0.62-0.33,1.11-0.84,1.49-1.51L136.2,16.12z
		 M129.73,23.46c-0.42,0-0.88-0.04-1.39-0.13c-0.51-0.09-0.9-0.2-1.19-0.33l0.63-1.52c0.26,0.09,0.57,0.18,0.93,0.24
		c0.37,0.07,0.7,0.1,1.01,0.1c0.51,0,0.77-0.14,0.77-0.43c0-0.11-0.05-0.19-0.15-0.26c-0.1-0.07-0.3-0.1-0.6-0.1h-1.32l1.2-2.46
		h1.96l-0.45,1.05c1.23,0.24,1.85,0.84,1.85,1.8c0,0.62-0.29,1.12-0.85,1.48C131.57,23.28,130.77,23.46,129.73,23.46z"/>
	<path class="st1" d="M135.47,18.94l6.25-14.4h2.78l6,14.4h-3.37L145.97,16h-5.94l-1.2,2.94H135.47z M144.63,3.37
		c-0.39,0-0.8-0.09-1.21-0.26c-0.42-0.18-0.82-0.36-1.2-0.54c-0.38-0.18-0.72-0.28-1.01-0.28c-0.19,0-0.4,0.08-0.64,0.23
		c-0.24,0.16-0.43,0.38-0.58,0.68l-1.16-1.01c0.19-0.73,0.51-1.28,0.97-1.64c0.46-0.37,1-0.55,1.62-0.55c0.39,0,0.8,0.09,1.21,0.28
		c0.42,0.18,0.82,0.36,1.2,0.54c0.38,0.18,0.72,0.26,1,0.26c0.23,0,0.46-0.08,0.68-0.22c0.22-0.15,0.4-0.38,0.54-0.71l1.16,1.01
		c-0.19,0.73-0.51,1.28-0.97,1.65C145.8,3.18,145.26,3.37,144.63,3.37z M141.16,13.24h3.71l-1.82-4.64L141.16,13.24z"/>
	<path class="st1" d="M157.67,19.14c-1.52,0.01-2.81-0.26-3.89-0.83c-1.08-0.57-1.91-1.39-2.49-2.46s-0.87-2.35-0.87-3.85
		s0.31-2.83,0.92-3.98s1.48-2.06,2.61-2.71s2.46-0.97,3.99-0.97c1.37,0,2.56,0.3,3.59,0.89s1.83,1.42,2.4,2.48
		c0.57,1.06,0.86,2.31,0.86,3.74c0,1.54-0.3,2.89-0.91,4.04c-0.61,1.15-1.45,2.04-2.53,2.68C160.28,18.81,159.05,19.13,157.67,19.14
		z M157.55,16.2c1.15,0,2.08-0.42,2.8-1.25c0.72-0.83,1.07-1.98,1.07-3.45c0-1.28-0.32-2.31-0.97-3.07
		c-0.65-0.76-1.52-1.14-2.62-1.14c-0.8,0-1.5,0.19-2.11,0.59c-0.61,0.39-1.08,0.93-1.43,1.63c-0.35,0.7-0.52,1.51-0.52,2.45
		c0,1.35,0.33,2.4,1,3.14C155.45,15.83,156.37,16.2,157.55,16.2z"/>
</g>
<g class="st0">
	<path class="st2" d="M39.43,232.05h-2.06v-11.52h4.05c1.49,0,2.63,0.3,3.42,0.91s1.18,1.48,1.18,2.63c0,1.16-0.43,2.06-1.28,2.72
		c-0.85,0.65-2.1,0.98-3.73,0.98h-1.59V232.05z M41.34,222.25h-1.92v3.78h1.71c0.97,0,1.68-0.16,2.13-0.47
		c0.44-0.31,0.66-0.8,0.66-1.46s-0.21-1.13-0.63-1.42C42.88,222.4,42.24,222.25,41.34,222.25z"/>
	<path class="st2" d="M56.59,230.04l0.49,1.64c-0.22,0.16-0.48,0.29-0.79,0.38c-0.31,0.09-0.64,0.14-0.99,0.14
		c-1.21,0-2.16-0.53-2.86-1.61l-1.67-2.56c-0.17-0.27-0.35-0.46-0.53-0.57c-0.18-0.11-0.38-0.16-0.6-0.16h-0.08v4.76h-2.06v-11.52
		h3.58c1.46,0,2.56,0.3,3.32,0.91c0.75,0.6,1.13,1.44,1.13,2.5c0,0.64-0.14,1.19-0.42,1.65c-0.28,0.46-0.66,0.83-1.15,1.1
		c-0.49,0.27-1.04,0.44-1.66,0.52c0.32,0.17,0.62,0.46,0.89,0.87l0.91,1.35c0.24,0.35,0.46,0.58,0.67,0.71
		c0.21,0.13,0.48,0.19,0.8,0.19C55.95,230.33,56.29,230.23,56.59,230.04z M50.94,222.25h-1.38v3.39h1.28c0.89,0,1.54-0.13,1.96-0.4
		c0.42-0.27,0.63-0.7,0.63-1.3C53.43,222.81,52.6,222.25,50.94,222.25z"/>
	<path class="st2" d="M57.72,232.05v-11.52h2.11v11.52H57.72z"/>
	<path class="st2" d="M62.13,232.05l0.44-11.52h1.84l4.22,8.87l4.2-8.87h1.84L75,232.05h-2.03l-0.23-7.17l-3.42,7.17h-1.59
		l-3.37-7.12l-0.29,7.12H62.13z"/>
	<path class="st2" d="M76,232.05l4.92-11.52h1.79l4.72,11.52h-2.14l-1.04-2.63h-5.03l-1.07,2.63H76z M79.94,227.65h3.62l-1.79-4.52
		L79.94,227.65z M80.84,219.43l1.93-2.87l2.05,0.52l-2.21,2.35L80.84,219.43L80.84,219.43z"/>
	<path class="st2" d="M97.6,230.04l0.49,1.64c-0.22,0.16-0.48,0.29-0.79,0.38c-0.31,0.09-0.64,0.14-0.99,0.14
		c-1.21,0-2.16-0.53-2.86-1.61l-1.67-2.56c-0.17-0.27-0.35-0.46-0.53-0.57c-0.18-0.11-0.38-0.16-0.6-0.16h-0.08v4.76H88.5v-11.52
		h3.58c1.46,0,2.56,0.3,3.32,0.91c0.75,0.6,1.13,1.44,1.13,2.5c0,0.64-0.14,1.19-0.42,1.65c-0.28,0.46-0.66,0.83-1.15,1.1
		c-0.49,0.27-1.04,0.44-1.66,0.52c0.32,0.17,0.62,0.46,0.89,0.87l0.91,1.35c0.24,0.35,0.46,0.58,0.67,0.71
		c0.21,0.13,0.48,0.19,0.8,0.19C96.96,230.33,97.3,230.23,97.6,230.04z M91.94,222.25h-1.38v3.39h1.28c0.89,0,1.54-0.13,1.96-0.4
		c0.42-0.27,0.63-0.7,0.63-1.3C94.44,222.81,93.61,222.25,91.94,222.25z"/>
	<path class="st2" d="M98.72,232.05v-11.52h2.11v11.52H98.72z"/>
	<path class="st2" d="M101.85,232.05l4.92-11.52h1.79l4.72,11.52h-2.14l-1.04-2.63h-5.03l-1.07,2.63H101.85z M105.79,227.65h3.62
		l-1.79-4.52L105.79,227.65z"/>
</g>
<path class="st1" d="M192.06,59.58c-0.8-4.19-0.55-8.54-0.31-12.74c0.13-2.26,0.26-4.59,0.23-6.88c-0.03-3.13-0.38-6.37-3.96-8.76
	c-3.35-2.22-8.66-3.03-12.93-3.68c-7.95-1.2-15.65-1.06-23.8-0.91c-1.89,0.03-3.85,0.07-5.79,0.09h-0.14
	c-9.11,0.09-42.72,0.17-51.99,0.17H31.64c-5.95,0-12.86,0.2-18.98,1.67c-2.63,0.64-5.62,1.31-8.09,3.55
	c-2.32,2.09-2.88,6.1-3.3,11.26c-0.24,2.98-0.48,5.98-0.72,8.96c-0.46,5.73-0.91,11.73-0.1,17.27c0.22,1.47,0.53,2.93,1.07,3.96
	c0.52,1.01,1.18,1.55,1.84,2.02c4.98,3.58,10.58,4.14,15.76,4.17c20.82,0.16,41.18,0.31,61.33,0.26c9.41-0.02,18.99,0.18,28.26,0.38
	c8.86,0.19,17.96,0.39,27.02,0.39c1.74,0,3.49-0.01,5.21-0.03c9.65-0.09,18.17-0.22,26.05-0.42c0.57-0.02,1.13-0.03,1.68-0.03
	c6.77-0.15,12.61-0.26,18.1-3.43c3.29-1.9,5.18-4.62,5.79-8.31C193.05,65.55,192.61,62.47,192.06,59.58z"/>
<g class="st0">
	<path class="st3" d="M18.81,36.76v14.2h-1.95v-4.05l0.08-2.15c-0.38,0.73-0.87,1.3-1.49,1.71c-0.62,0.41-1.32,0.62-2.12,0.62
		c-0.88,0-1.62-0.21-2.22-0.62c-0.6-0.41-1.06-0.98-1.37-1.69c-0.31-0.72-0.46-1.54-0.46-2.47c0-1.12,0.21-2.12,0.64-2.98
		c0.43-0.86,1.01-1.54,1.77-2.02c0.75-0.48,1.61-0.72,2.59-0.72c0.65,0,1.23,0.15,1.73,0.44c0.51,0.29,0.88,0.67,1.12,1.14l0.24-1.4
		L18.81,36.76L18.81,36.76z M14.35,38.3c-0.93,0-1.68,0.36-2.24,1.06c-0.56,0.71-0.84,1.65-0.84,2.81c0,1,0.22,1.78,0.65,2.33
		c0.43,0.56,1.01,0.83,1.74,0.83c0.61,0,1.16-0.18,1.64-0.53c0.49-0.35,0.87-0.84,1.16-1.47c0.28-0.63,0.43-1.35,0.43-2.16
		c0-0.89-0.23-1.59-0.68-2.11C15.75,38.56,15.14,38.3,14.35,38.3z"/>
	<path class="st3" d="M24.8,47.08c-1.07,0-1.88-0.37-2.45-1.11c-0.56-0.73-0.84-1.75-0.82-3.05l0.06-6.19h1.93l-0.06,5.98
		c0,0.8,0.15,1.42,0.44,1.87c0.29,0.45,0.76,0.67,1.39,0.67c0.64,0,1.2-0.26,1.69-0.77c0.49-0.51,0.89-1.39,1.18-2.63
		c0.29-1.24,0.44-2.95,0.44-5.11h1.87V46.9h-1.95l0.12-2.82c-0.39,1-0.92,1.75-1.59,2.25C26.37,46.83,25.62,47.08,24.8,47.08z"/>
	<path class="st3" d="M42.4,36.76V46.9h-1.99l0.08-2.09c-0.38,0.7-0.87,1.26-1.48,1.66c-0.61,0.4-1.31,0.61-2.09,0.61
		c-0.88,0-1.62-0.21-2.22-0.62c-0.6-0.41-1.06-0.98-1.37-1.69c-0.31-0.72-0.46-1.54-0.46-2.47c0-1.12,0.21-2.12,0.64-2.98
		c0.43-0.86,1.01-1.54,1.77-2.02c0.75-0.48,1.61-0.72,2.59-0.72c0.65,0,1.23,0.15,1.73,0.44c0.51,0.29,0.88,0.67,1.12,1.14l0.24-1.4
		H42.4z M37.93,38.3c-0.93,0-1.68,0.36-2.24,1.06c-0.56,0.71-0.84,1.65-0.84,2.81c0,1,0.22,1.78,0.65,2.33
		c0.44,0.56,1.01,0.84,1.75,0.84c0.61,0,1.16-0.18,1.64-0.53c0.49-0.35,0.87-0.84,1.16-1.47c0.28-0.63,0.43-1.35,0.43-2.16
		c0-0.89-0.23-1.59-0.68-2.11C39.34,38.56,38.72,38.3,37.93,38.3z"/>
	<path class="st3" d="M45.24,46.9V36.74h1.95l-0.12,3c0.38-1.01,0.91-1.79,1.6-2.34c0.69-0.55,1.5-0.82,2.41-0.82
		c1.08,0,1.91,0.37,2.47,1.12c0.57,0.75,0.84,1.83,0.83,3.23l-0.04,5.96h-1.93l0.04-5.78c0.01-1.82-0.61-2.74-1.87-2.74
		c-0.66,0-1.25,0.26-1.75,0.77s-0.91,1.39-1.21,2.63c-0.3,1.24-0.45,2.95-0.46,5.11L45.24,46.9L45.24,46.9z"/>
	<path class="st3" d="M61.19,47.08c-1.2,0-2.12-0.32-2.75-0.96c-0.63-0.64-0.93-1.5-0.92-2.56l0.08-5.17h-1.77v-1.64h1.79l0.02-2.11
		h1.95l-0.04,2.11H63v1.64h-3.47l-0.06,5.01c0,0.59,0.16,1.07,0.46,1.43c0.31,0.36,0.79,0.54,1.44,0.54c0.31,0,0.6-0.04,0.87-0.11
		c0.28-0.08,0.56-0.23,0.85-0.46l0.59,1.52c-0.3,0.26-0.66,0.45-1.11,0.58C62.14,47.02,61.68,47.08,61.19,47.08z"/>
	<path class="st3" d="M69.3,36.58c1.45,0,2.59,0.45,3.43,1.36c0.84,0.91,1.26,2.13,1.26,3.67c0,1.04-0.21,1.98-0.63,2.8
		c-0.42,0.83-1,1.48-1.75,1.96c-0.75,0.48-1.62,0.72-2.62,0.72c-1.49,0-2.64-0.45-3.48-1.36c-0.83-0.91-1.25-2.14-1.25-3.69
		c0-1.04,0.21-1.98,0.62-2.8c0.41-0.83,1-1.47,1.75-1.95C67.38,36.82,68.27,36.58,69.3,36.58z M69,45.34c0.89,0,1.61-0.34,2.16-1.03
		c0.55-0.68,0.82-1.59,0.82-2.71c0-1.05-0.24-1.87-0.72-2.45c-0.48-0.57-1.14-0.86-1.98-0.86c-0.92,0-1.66,0.35-2.21,1.04
		c-0.56,0.69-0.83,1.59-0.83,2.7c0,1.05,0.24,1.87,0.73,2.45C67.46,45.05,68.13,45.34,69,45.34z"/>
	<path class="st3" d="M90.21,36.76V46.9h-1.99l0.08-2.09c-0.38,0.7-0.87,1.26-1.48,1.66c-0.61,0.4-1.31,0.61-2.09,0.61
		c-0.88,0-1.62-0.21-2.22-0.62c-0.6-0.41-1.06-0.98-1.37-1.69c-0.31-0.72-0.46-1.54-0.46-2.47c0-1.12,0.21-2.12,0.64-2.98
		c0.43-0.86,1.01-1.54,1.77-2.02c0.75-0.48,1.61-0.72,2.59-0.72c0.65,0,1.23,0.15,1.73,0.44c0.51,0.29,0.88,0.67,1.12,1.14l0.24-1.4
		H90.21z M85.75,38.3c-0.93,0-1.68,0.36-2.24,1.06c-0.56,0.71-0.84,1.65-0.84,2.81c0,1,0.22,1.78,0.65,2.33
		c0.43,0.56,1.01,0.83,1.74,0.83c0.61,0,1.16-0.18,1.64-0.53c0.49-0.35,0.87-0.84,1.16-1.47c0.28-0.63,0.43-1.35,0.43-2.16
		c0-0.89-0.23-1.59-0.68-2.11C87.15,38.56,86.53,38.3,85.75,38.3z"/>
	<path class="st3" d="M97.65,36.58c1.45,0,2.59,0.45,3.43,1.36c0.84,0.91,1.26,2.13,1.26,3.67c0,1.04-0.21,1.98-0.63,2.8
		c-0.42,0.83-1,1.48-1.75,1.96c-0.75,0.48-1.62,0.72-2.62,0.72c-1.49,0-2.64-0.45-3.48-1.36c-0.83-0.91-1.25-2.14-1.25-3.69
		c0-1.04,0.21-1.98,0.62-2.8c0.41-0.83,1-1.47,1.75-1.95C95.73,36.82,96.62,36.58,97.65,36.58z M97.35,45.34
		c0.89,0,1.61-0.34,2.16-1.03c0.55-0.68,0.82-1.59,0.82-2.71c0-1.05-0.24-1.87-0.72-2.45c-0.48-0.57-1.14-0.86-1.98-0.86
		c-0.92,0-1.66,0.35-2.21,1.04c-0.56,0.69-0.83,1.59-0.83,2.7c0,1.05,0.24,1.87,0.73,2.45C95.81,45.05,96.48,45.34,97.35,45.34z"/>
	<path class="st3" d="M113.12,51.16c-0.58,0-1.19-0.06-1.84-0.18c-0.64-0.12-1.18-0.31-1.61-0.57l0.49-1.71
		c0.46,0.23,0.94,0.4,1.46,0.53c0.51,0.12,1.04,0.18,1.58,0.18c1.24,0,2.13-0.3,2.66-0.91s0.81-1.57,0.85-2.88l0.04-1.1
		c-0.38,0.72-0.87,1.28-1.49,1.68c-0.62,0.4-1.33,0.61-2.14,0.61c-0.89,0-1.64-0.19-2.25-0.59c-0.61-0.39-1.07-0.94-1.38-1.64
		c-0.31-0.7-0.46-1.51-0.46-2.41c0-1.08,0.21-2.05,0.64-2.89c0.43-0.84,1.01-1.51,1.77-1.99c0.75-0.48,1.62-0.72,2.61-0.72
		c0.67,0,1.27,0.15,1.79,0.44c0.51,0.29,0.89,0.67,1.13,1.14l0.24-1.4h1.44v8.57c0,1.93-0.47,3.38-1.43,4.36
		S114.89,51.16,113.12,51.16z M114.14,38.3c-0.94,0-1.71,0.35-2.27,1.05c-0.57,0.7-0.85,1.59-0.85,2.69c0,0.97,0.22,1.73,0.66,2.26
		c0.44,0.53,1.04,0.8,1.79,0.8c0.61,0,1.16-0.18,1.65-0.53c0.49-0.35,0.88-0.83,1.17-1.44c0.29-0.61,0.43-1.3,0.43-2.07
		c0-0.85-0.23-1.52-0.7-2.02C115.55,38.55,114.92,38.3,114.14,38.3z"/>
	<path class="st3" d="M127.6,38.6c-0.26-0.08-0.57-0.12-0.93-0.12c-0.76,0-1.38,0.29-1.86,0.86c-0.48,0.57-0.83,1.48-1.05,2.72
		s-0.33,2.85-0.33,4.84h-1.93v-6.53l-0.02-3.63h1.95l-0.12,3.24c0.34-1.23,0.83-2.11,1.47-2.62c0.64-0.52,1.33-0.78,2.06-0.78
		c0.22,0,0.42,0.01,0.6,0.03s0.34,0.06,0.47,0.11L127.6,38.6z"/>
	<path class="st3" d="M137.94,36.76V46.9h-1.99l0.08-2.09c-0.38,0.7-0.87,1.26-1.48,1.66c-0.61,0.4-1.31,0.61-2.09,0.61
		c-0.88,0-1.62-0.21-2.22-0.62c-0.6-0.41-1.06-0.98-1.37-1.69c-0.31-0.72-0.46-1.54-0.46-2.47c0-1.12,0.21-2.12,0.64-2.98
		c0.43-0.86,1.01-1.54,1.77-2.02c0.75-0.48,1.61-0.72,2.59-0.72c0.65,0,1.23,0.15,1.73,0.44c0.51,0.29,0.88,0.67,1.12,1.14l0.24-1.4
		H137.94z M133.48,38.3c-0.93,0-1.68,0.36-2.24,1.06c-0.56,0.71-0.84,1.65-0.84,2.81c0,1,0.22,1.78,0.65,2.33
		c0.43,0.56,1.01,0.83,1.74,0.83c0.61,0,1.16-0.18,1.64-0.53c0.49-0.35,0.87-0.84,1.16-1.47c0.28-0.63,0.43-1.35,0.43-2.16
		c0-0.89-0.23-1.59-0.68-2.11C134.88,38.56,134.27,38.3,133.48,38.3z"/>
	<path class="st3" d="M143.92,47.08c-1.07,0-1.88-0.37-2.45-1.11c-0.56-0.73-0.84-1.75-0.82-3.05l0.06-6.19h1.93l-0.06,5.98
		c0,0.8,0.15,1.42,0.44,1.87c0.29,0.45,0.76,0.67,1.39,0.67c0.64,0,1.2-0.26,1.69-0.77c0.49-0.51,0.89-1.39,1.18-2.63
		c0.29-1.24,0.44-2.95,0.44-5.11h1.87V46.9h-1.95l0.12-2.82c-0.39,1-0.92,1.75-1.59,2.25C145.49,46.83,144.75,47.08,143.92,47.08z"
		/>
	<path class="st3" d="M166.28,31.89V46.9h-1.99l0.08-2.09c-0.38,0.7-0.87,1.26-1.48,1.66c-0.61,0.4-1.31,0.61-2.09,0.61
		c-0.88,0-1.62-0.21-2.22-0.62c-0.6-0.41-1.06-0.98-1.37-1.69c-0.31-0.72-0.46-1.54-0.46-2.47c0-1.12,0.21-2.12,0.64-2.98
		c0.43-0.86,1.01-1.54,1.77-2.02c0.75-0.48,1.61-0.72,2.59-0.72c0.56,0,1.06,0.11,1.52,0.32c0.46,0.22,0.83,0.51,1.12,0.87
		l-0.04-1.04v-4.85H166.28z M161.83,38.3c-0.93,0-1.68,0.36-2.24,1.06c-0.56,0.71-0.84,1.65-0.84,2.81c0,1,0.22,1.78,0.65,2.33
		c0.43,0.56,1.01,0.83,1.74,0.83c0.61,0,1.16-0.18,1.64-0.53c0.49-0.35,0.87-0.84,1.16-1.47c0.28-0.63,0.43-1.35,0.43-2.16
		c0-0.89-0.23-1.59-0.68-2.11C163.23,38.56,162.61,38.3,161.83,38.3z"/>
	<path class="st3" d="M173.83,47.08c-1.6,0-2.85-0.45-3.77-1.36c-0.92-0.91-1.38-2.15-1.38-3.75c0-1.05,0.21-1.99,0.64-2.8
		c0.43-0.81,1.01-1.45,1.75-1.91c0.74-0.46,1.59-0.69,2.54-0.69c1.46,0,2.57,0.5,3.32,1.51c0.76,1.01,1.02,2.46,0.79,4.37h-7.08
		c0.04,0.92,0.35,1.63,0.92,2.14c0.57,0.51,1.38,0.76,2.4,0.76c0.5,0,0.98-0.11,1.45-0.33c0.46-0.22,0.87-0.56,1.21-1l1.18,1.13
		c-0.48,0.62-1.04,1.1-1.68,1.43C175.47,46.92,174.71,47.08,173.83,47.08z M173.63,38.08c-0.83,0-1.5,0.28-2.01,0.83
		s-0.83,1.25-0.93,2.09h5.35c0.04-1.03-0.17-1.77-0.62-2.23C174.97,38.31,174.37,38.08,173.63,38.08z"/>
</g>
<g class="st0">
	<path class="st3" d="M14.43,71.41c-1.6,0-2.85-0.45-3.77-1.36c-0.92-0.91-1.38-2.15-1.38-3.75c0-1.05,0.21-1.99,0.64-2.8
		c0.43-0.81,1.01-1.45,1.75-1.91c0.74-0.46,1.59-0.69,2.54-0.69c1.46,0,2.57,0.5,3.32,1.51c0.76,1.01,1.02,2.46,0.79,4.37h-7.07
		c0.04,0.92,0.35,1.63,0.92,2.14c0.57,0.51,1.38,0.76,2.4,0.76c0.5,0,0.98-0.11,1.45-0.33c0.46-0.22,0.87-0.56,1.21-1l1.18,1.13
		c-0.47,0.62-1.04,1.1-1.68,1.43C16.08,71.24,15.31,71.41,14.43,71.41z M14.23,62.41c-0.83,0-1.5,0.28-2.01,0.83
		c-0.51,0.56-0.83,1.25-0.93,2.09h5.35c0.04-1.03-0.17-1.77-0.62-2.23C15.57,62.64,14.98,62.41,14.23,62.41z"/>
	<path class="st3" d="M21.29,71.23h-2.23l3.75-5.13l-3.57-5.03h2.35l2.41,3.41l2.46-3.41h2.23L25.08,66l3.73,5.23h-2.37l-2.54-3.61
		L21.29,71.23z"/>
	<path class="st3" d="M30.33,75.29V61.07h1.96l-0.08,2.11c0.38-0.72,0.87-1.27,1.48-1.67c0.61-0.4,1.31-0.6,2.11-0.6
		c0.88,0,1.62,0.21,2.22,0.61s1.06,0.97,1.37,1.68c0.31,0.72,0.46,1.54,0.46,2.47c0,1.13-0.21,2.13-0.64,2.99
		c-0.43,0.86-1.01,1.53-1.77,2.02c-0.75,0.49-1.6,0.73-2.56,0.73c-0.57,0-1.08-0.11-1.54-0.33c-0.46-0.22-0.83-0.52-1.12-0.9
		l0.04,1.05v4.05L30.33,75.29L30.33,75.29z M34.79,69.67c0.93,0,1.68-0.36,2.24-1.07c0.56-0.72,0.84-1.66,0.84-2.82
		c0-0.99-0.22-1.76-0.65-2.31c-0.43-0.56-1.01-0.83-1.74-0.83c-0.61,0-1.16,0.18-1.64,0.53c-0.49,0.35-0.87,0.84-1.16,1.46
		c-0.29,0.62-0.43,1.34-0.43,2.15c0,0.91,0.23,1.61,0.68,2.13C33.39,69.41,34.01,69.67,34.79,69.67z"/>
	<path class="st3" d="M46.86,60.91c1.45,0,2.59,0.45,3.43,1.36c0.84,0.91,1.26,2.13,1.26,3.67c0,1.04-0.21,1.98-0.63,2.8
		c-0.42,0.83-1,1.48-1.75,1.96s-1.62,0.72-2.62,0.72c-1.49,0-2.64-0.45-3.48-1.36c-0.83-0.91-1.25-2.14-1.25-3.69
		c0-1.04,0.21-1.98,0.62-2.8c0.41-0.83,1-1.47,1.75-1.95C44.94,61.15,45.83,60.91,46.86,60.91z M46.55,69.67
		c0.89,0,1.61-0.34,2.16-1.03c0.55-0.68,0.82-1.59,0.82-2.71c0-1.05-0.24-1.87-0.72-2.45c-0.48-0.57-1.14-0.86-1.98-0.86
		c-0.92,0-1.66,0.35-2.21,1.04c-0.56,0.69-0.83,1.59-0.83,2.7c0,1.05,0.24,1.87,0.73,2.45C45.01,69.38,45.69,69.67,46.55,69.67z"/>
	<path class="st3" d="M57.32,71.41c-1.33,0-2.35-0.26-3.06-0.79c-0.72-0.53-1.13-1.27-1.24-2.23l1.66-0.4
		c0.09,0.62,0.35,1.09,0.77,1.4c0.42,0.31,1.04,0.46,1.87,0.46c0.66,0,1.17-0.12,1.52-0.37s0.53-0.58,0.53-1
		c0-0.4-0.18-0.71-0.56-0.9c-0.37-0.19-0.94-0.37-1.71-0.52c-0.72-0.13-1.33-0.31-1.86-0.54c-0.52-0.22-0.92-0.53-1.21-0.91
		c-0.29-0.38-0.43-0.9-0.43-1.53c0-0.61,0.17-1.15,0.5-1.62c0.33-0.47,0.78-0.85,1.36-1.12c0.57-0.28,1.24-0.42,1.98-0.42
		c1,0,1.82,0.24,2.46,0.72c0.64,0.48,1.03,1.11,1.14,1.89l-1.6,0.43c-0.22-0.99-0.9-1.48-2.05-1.48c-0.59,0-1.06,0.14-1.4,0.42
		c-0.34,0.28-0.51,0.63-0.51,1.06c0,0.38,0.16,0.69,0.49,0.92c0.32,0.24,0.91,0.44,1.74,0.6c0.72,0.15,1.34,0.33,1.87,0.54
		c0.53,0.21,0.93,0.49,1.23,0.85c0.29,0.36,0.44,0.85,0.46,1.47c0,0.59-0.17,1.12-0.5,1.59c-0.33,0.46-0.79,0.83-1.39,1.1
		C58.8,71.28,58.1,71.41,57.32,71.41z"/>
	<path class="st3" d="M64.25,59.1c-0.39,0-0.7-0.12-0.93-0.38c-0.23-0.25-0.35-0.55-0.35-0.88c0-0.33,0.11-0.63,0.35-0.88
		c0.23-0.25,0.54-0.37,0.93-0.37c0.39,0,0.7,0.12,0.93,0.37c0.23,0.25,0.35,0.55,0.35,0.88c0,0.33-0.11,0.63-0.35,0.88
		C64.96,58.98,64.65,59.1,64.25,59.1z M65.19,61.07v10.16h-1.93V61.07C63.26,61.07,65.19,61.07,65.19,61.07z"/>
	<path class="st3" d="M72.47,71.41c-1.51,0-2.7-0.45-3.57-1.34s-1.3-2.14-1.3-3.73c0-1.08,0.21-2.03,0.64-2.85
		c0.43-0.82,1.03-1.45,1.79-1.91c0.77-0.45,1.66-0.68,2.68-0.68c1.69,0,2.92,0.67,3.69,2.01l-1.42,1.07
		c-0.5-0.89-1.26-1.34-2.29-1.34c-0.92,0-1.66,0.33-2.23,1c-0.57,0.67-0.85,1.56-0.85,2.67c0,1.08,0.25,1.91,0.76,2.47
		c0.51,0.57,1.24,0.85,2.2,0.85c0.5,0,0.96-0.11,1.39-0.32c0.43-0.22,0.78-0.56,1.06-1.04l1.38,1.1c-0.43,0.7-0.98,1.21-1.65,1.54
		C74.08,71.24,73.32,71.41,72.47,71.41z M71.86,75.75c-0.43,0-0.83-0.04-1.2-0.13c-0.37-0.09-0.69-0.2-0.97-0.33l0.46-1.04
		c0.54,0.24,1.1,0.37,1.68,0.37c0.3,0,0.54-0.06,0.73-0.19c0.19-0.13,0.29-0.31,0.29-0.56c0-0.42-0.35-0.63-1.04-0.63h-0.97
		l1.18-2.37h1.36l-0.63,1.34c0.54,0.09,0.96,0.29,1.26,0.58c0.3,0.29,0.45,0.66,0.45,1.11c0,0.56-0.24,1-0.71,1.35
		C73.27,75.58,72.64,75.75,71.86,75.75z"/>
	<path class="st3" d="M86.66,61.09v10.14h-1.99l0.08-2.09c-0.38,0.7-0.87,1.26-1.48,1.66c-0.61,0.4-1.31,0.61-2.09,0.61
		c-0.88,0-1.62-0.21-2.22-0.62c-0.6-0.41-1.06-0.98-1.37-1.69c-0.31-0.72-0.46-1.54-0.46-2.47c0-1.12,0.21-2.12,0.64-2.98
		s1.01-1.54,1.77-2.02c0.75-0.48,1.61-0.72,2.59-0.72c0.65,0,1.23,0.15,1.73,0.44c0.51,0.29,0.88,0.67,1.12,1.14l0.24-1.4
		L86.66,61.09L86.66,61.09z M84.13,59.71c-0.27,0-0.56-0.06-0.85-0.18s-0.6-0.26-0.9-0.43c-0.3-0.16-0.59-0.3-0.87-0.43
		c-0.28-0.12-0.52-0.18-0.72-0.18c-0.26,0-0.49,0.1-0.71,0.3c-0.22,0.21-0.38,0.48-0.51,0.83L78.76,59
		c0.13-0.64,0.39-1.12,0.76-1.47c0.37-0.35,0.83-0.52,1.37-0.52c0.27,0,0.56,0.06,0.85,0.18c0.3,0.12,0.6,0.26,0.9,0.43
		s0.59,0.3,0.87,0.43c0.28,0.12,0.52,0.18,0.72,0.18c0.58,0,0.99-0.38,1.21-1.13l0.81,0.63c-0.13,0.64-0.39,1.12-0.76,1.47
		C85.13,59.54,84.67,59.71,84.13,59.71z M82.2,62.63c-0.93,0-1.68,0.36-2.24,1.06c-0.56,0.71-0.84,1.65-0.84,2.81
		c0,1,0.22,1.78,0.65,2.33c0.43,0.56,1.01,0.83,1.74,0.83c0.61,0,1.16-0.18,1.64-0.53c0.49-0.35,0.87-0.84,1.16-1.47
		c0.28-0.63,0.43-1.35,0.43-2.16c0-0.89-0.23-1.59-0.68-2.11C83.6,62.89,82.98,62.63,82.2,62.63z"/>
	<path class="st3" d="M94.1,60.91c1.45,0,2.59,0.45,3.43,1.36c0.84,0.91,1.26,2.13,1.26,3.67c0,1.04-0.21,1.98-0.63,2.8
		c-0.42,0.83-1,1.48-1.75,1.96c-0.75,0.48-1.62,0.72-2.62,0.72c-1.49,0-2.64-0.45-3.48-1.36c-0.83-0.91-1.25-2.14-1.25-3.69
		c0-1.04,0.21-1.98,0.62-2.8c0.41-0.83,1-1.47,1.75-1.95C92.18,61.15,93.08,60.91,94.1,60.91z M93.8,69.67
		c0.89,0,1.61-0.34,2.16-1.03c0.55-0.68,0.82-1.59,0.82-2.71c0-1.05-0.24-1.87-0.72-2.45c-0.48-0.57-1.14-0.86-1.98-0.86
		c-0.92,0-1.66,0.35-2.21,1.04c-0.56,0.69-0.83,1.59-0.83,2.7c0,1.05,0.24,1.87,0.73,2.45C92.26,69.38,92.93,69.67,93.8,69.67z"/>
	<path class="st3" d="M115.01,61.09v10.14h-1.99l0.08-2.09c-0.38,0.7-0.87,1.26-1.48,1.66c-0.61,0.4-1.31,0.61-2.09,0.61
		c-0.88,0-1.62-0.21-2.22-0.62c-0.6-0.41-1.06-0.98-1.37-1.69c-0.31-0.72-0.46-1.54-0.46-2.47c0-1.12,0.21-2.12,0.64-2.98
		s1.01-1.54,1.77-2.02c0.75-0.48,1.61-0.72,2.59-0.72c0.65,0,1.23,0.15,1.73,0.44c0.51,0.29,0.88,0.67,1.12,1.14l0.24-1.4
		L115.01,61.09L115.01,61.09z M110.55,62.63c-0.93,0-1.68,0.36-2.24,1.06c-0.56,0.71-0.84,1.65-0.84,2.81c0,1,0.22,1.78,0.65,2.33
		s1.01,0.83,1.74,0.83c0.61,0,1.16-0.18,1.64-0.53c0.49-0.35,0.87-0.84,1.16-1.47c0.28-0.63,0.43-1.35,0.43-2.16
		c0-0.89-0.23-1.59-0.68-2.11C111.95,62.89,111.33,62.63,110.55,62.63z"/>
	<path class="st3" d="M122.45,60.91c1.45,0,2.59,0.45,3.43,1.36c0.84,0.91,1.26,2.13,1.26,3.67c0,1.04-0.21,1.98-0.63,2.8
		c-0.42,0.83-1,1.48-1.75,1.96c-0.75,0.48-1.62,0.72-2.62,0.72c-1.49,0-2.64-0.45-3.48-1.36c-0.83-0.91-1.25-2.14-1.25-3.69
		c0-1.04,0.21-1.98,0.62-2.8c0.41-0.83,1-1.47,1.75-1.95C120.53,61.15,121.42,60.91,122.45,60.91z M122.14,69.67
		c0.89,0,1.61-0.34,2.16-1.03c0.55-0.68,0.82-1.59,0.82-2.71c0-1.05-0.24-1.87-0.72-2.45c-0.48-0.57-1.14-0.86-1.98-0.86
		c-0.92,0-1.66,0.35-2.21,1.04c-0.56,0.69-0.83,1.59-0.83,2.7c0,1.05,0.24,1.87,0.73,2.45C120.6,69.38,121.28,69.67,122.14,69.67z"
		/>
	<path class="st3" d="M140.39,62.94c-0.26-0.08-0.57-0.12-0.93-0.12c-0.76,0-1.38,0.29-1.86,0.86c-0.48,0.57-0.83,1.48-1.05,2.72
		c-0.22,1.24-0.33,2.85-0.33,4.84h-1.93V64.7l-0.02-3.63h1.95l-0.12,3.24c0.34-1.23,0.83-2.11,1.47-2.62
		c0.64-0.52,1.33-0.78,2.06-0.78c0.22,0,0.42,0.01,0.6,0.03s0.34,0.06,0.48,0.11L140.39,62.94z"/>
	<path class="st3" d="M143.19,59.1c-0.39,0-0.7-0.12-0.93-0.38c-0.23-0.25-0.35-0.55-0.35-0.88c0-0.33,0.11-0.63,0.35-0.88
		c0.23-0.25,0.54-0.37,0.93-0.37c0.39,0,0.7,0.12,0.93,0.37c0.23,0.25,0.35,0.55,0.35,0.88c0,0.33-0.11,0.63-0.35,0.88
		C143.9,58.98,143.58,59.1,143.19,59.1z M144.12,61.07v10.16h-1.93V61.07C142.2,61.07,144.12,61.07,144.12,61.07z"/>
	<path class="st3" d="M150.39,71.41c-1.33,0-2.35-0.26-3.06-0.79c-0.72-0.53-1.13-1.27-1.24-2.23l1.66-0.4
		c0.09,0.62,0.35,1.09,0.77,1.4c0.42,0.31,1.04,0.46,1.87,0.46c0.66,0,1.17-0.12,1.52-0.37s0.53-0.58,0.53-1
		c0-0.4-0.18-0.71-0.56-0.9c-0.37-0.19-0.94-0.37-1.71-0.52c-0.72-0.13-1.33-0.31-1.86-0.54c-0.52-0.22-0.92-0.53-1.21-0.91
		c-0.29-0.38-0.43-0.9-0.43-1.53c0-0.61,0.17-1.15,0.5-1.62c0.33-0.47,0.78-0.85,1.36-1.12c0.57-0.28,1.24-0.42,1.98-0.42
		c1,0,1.82,0.24,2.46,0.72c0.64,0.48,1.03,1.11,1.14,1.89l-1.6,0.43c-0.22-0.99-0.9-1.48-2.05-1.48c-0.59,0-1.06,0.14-1.4,0.42
		c-0.34,0.28-0.51,0.63-0.51,1.06c0,0.38,0.16,0.69,0.49,0.92c0.32,0.24,0.91,0.44,1.74,0.6c0.72,0.15,1.34,0.33,1.87,0.54
		c0.53,0.21,0.93,0.49,1.23,0.85c0.29,0.36,0.44,0.85,0.46,1.47c0,0.59-0.17,1.12-0.5,1.59c-0.33,0.46-0.79,0.83-1.39,1.1
		C151.86,71.28,151.18,71.41,150.39,71.41z"/>
	<path class="st3" d="M160.75,71.41c-1.51,0-2.7-0.45-3.57-1.34c-0.86-0.89-1.3-2.14-1.3-3.73c0-1.08,0.21-2.03,0.64-2.85
		c0.43-0.82,1.03-1.45,1.79-1.91c0.77-0.45,1.66-0.68,2.68-0.68c1.69,0,2.92,0.67,3.69,2.01l-1.42,1.07
		c-0.5-0.89-1.26-1.34-2.29-1.34c-0.92,0-1.66,0.33-2.23,1c-0.57,0.67-0.85,1.56-0.85,2.67c0,1.08,0.25,1.91,0.76,2.47
		s1.24,0.85,2.2,0.85c0.5,0,0.96-0.11,1.39-0.32c0.43-0.22,0.78-0.56,1.06-1.04l1.38,1.1c-0.43,0.7-0.98,1.21-1.65,1.54
		C162.37,71.24,161.61,71.41,160.75,71.41z"/>
	<path class="st3" d="M170.46,60.91c1.45,0,2.59,0.45,3.43,1.36c0.84,0.91,1.26,2.13,1.26,3.67c0,1.04-0.21,1.98-0.63,2.8
		c-0.42,0.83-1,1.48-1.75,1.96c-0.75,0.48-1.62,0.72-2.62,0.72c-1.49,0-2.64-0.45-3.48-1.36c-0.83-0.91-1.25-2.14-1.25-3.69
		c0-1.04,0.21-1.98,0.62-2.8c0.41-0.83,1-1.47,1.75-1.95C168.55,61.15,169.44,60.91,170.46,60.91z M170.16,69.67
		c0.89,0,1.61-0.34,2.16-1.03c0.55-0.68,0.82-1.59,0.82-2.71c0-1.05-0.24-1.87-0.72-2.45c-0.48-0.57-1.14-0.86-1.98-0.86
		c-0.92,0-1.66,0.35-2.21,1.04c-0.56,0.69-0.83,1.59-0.83,2.7c0,1.05,0.24,1.87,0.73,2.45C168.62,69.38,169.3,69.67,170.16,69.67z"
		/>
</g>
<path class="st1" d="M150.7,191.13c-0.45-1.09-1.84-1.9-4.23-2.46c-4.01-0.94-8.29-0.97-13.24-1.01c-0.4,0-0.81-0.01-1.23-0.01
	c-5.76-0.06-12-0.1-19.05-0.12c-1.27-0.01-2.55-0.01-3.82-0.01c-6.63,0-13.29,0.06-19.77,0.11c-6.77,0.06-13.79,0.12-20.67,0.11
	c-14.74-0.02-29.63,0.03-44.87,0.08c-3.01,0.01-6.21,0.14-9.22,0.71c-0.93-0.05-1.86-0.02-2.75,0.19c-0.44,0.1-0.87,0.25-1.17,0.5
	c-0.3,0.24-0.46,0.55-0.6,0.86c-1.06,2.32-1.22,4.93-1.24,7.35c-0.05,9.72-0.1,19.22-0.08,28.62c0.01,4.4-0.05,8.86-0.11,13.19
	c-0.06,4.13-0.11,8.38-0.11,12.61c0,0.81,0,1.62,0.01,2.43c0.03,4.5,0.07,8.48,0.12,12.15c0,0.26,0.01,0.52,0.01,0.78
	c0.04,3.16,0.08,5.89,1.01,8.44c0.56,1.53,1.37,2.42,2.46,2.7c0.89,0.23,1.8,0.03,2.65-0.23c1.24-0.37,2.53-0.26,3.77-0.15
	c0.67,0.06,1.36,0.12,2.04,0.11c0.93-0.02,1.88-0.17,2.59-1.85c0.65-1.56,0.9-4.04,1.08-6.03c0.36-3.71,0.32-7.3,0.26-11.1
	c-0.01-0.89-0.02-1.8-0.03-2.7v-0.06c-0.03-4.25-0.05-19.94-0.05-24.26v-28.76c2.9,0.12,5.82,0.16,8.5,0.16h45.16
	c6.78,0,31.37,0.03,38.04,0.05h0.1c1.42,0.01,2.86,0.02,4.24,0.03c5.96,0.04,11.59,0.09,17.41-0.26c3.13-0.19,7.01-0.43,9.46-1.08
	c2.62-0.71,2.87-1.67,2.89-2.59c0.02-0.68-0.08-1.37-0.17-2.04c-0.17-1.25-0.35-2.53,0.23-3.77
	C150.74,192.92,151.06,192.01,150.7,191.13z"/>
<path class="st4" d="M308.13,149.78c-0.45-1.09-1.84-1.9-4.23-2.46c-4.01-0.94-8.29-0.97-13.24-1.01c-0.4,0-0.81-0.01-1.23-0.01
	c-5.76-0.06-12-0.1-19.05-0.12c-1.27-0.01-2.55-0.01-3.82-0.01c-6.63,0-13.29,0.06-19.77,0.11c-6.77,0.06-13.79,0.12-20.67,0.11
	c-14.74-0.02-29.63,0.03-44.87,0.08c-3.01,0.01-6.21,0.14-9.22,0.71c-0.94-0.05-1.86-0.02-2.75,0.19c-0.44,0.1-0.87,0.25-1.17,0.5
	c-0.3,0.24-0.46,0.55-0.6,0.86c-1.06,2.32-1.22,4.93-1.24,7.35c-0.05,9.72-0.09,19.22-0.08,28.62c0.01,4.4-0.05,8.86-0.11,13.19
	c-0.05,4.13-0.11,8.38-0.11,12.61c0,0.81,0,1.62,0.01,2.43c0.03,4.5,0.07,8.47,0.12,12.15c0,0.26,0.01,0.52,0.01,0.78
	c0.04,3.16,0.08,5.89,1.01,8.44c0.56,1.53,1.37,2.42,2.46,2.7c0.89,0.23,1.8,0.03,2.65-0.23c1.24-0.37,2.53-0.26,3.77-0.15
	c0.67,0.06,1.36,0.12,2.04,0.11c0.93-0.02,1.89-0.17,2.59-1.85c0.65-1.56,0.9-4.04,1.08-6.03c0.36-3.71,0.32-7.3,0.26-11.1
	c-0.01-0.89-0.02-1.8-0.03-2.7v-0.06c-0.03-4.25-0.05-19.94-0.05-24.26v-28.77c2.9,0.12,5.82,0.16,8.5,0.16h45.16
	c6.78,0,31.37,0.03,38.04,0.05h0.1c1.42,0.01,2.86,0.02,4.24,0.03c5.96,0.04,11.59,0.09,17.41-0.26c3.13-0.19,7.01-0.43,9.46-1.08
	c2.62-0.71,2.87-1.67,2.89-2.59c0.02-0.68-0.08-1.37-0.17-2.04c-0.17-1.25-0.35-2.53,0.23-3.77
	C308.16,151.58,308.49,150.67,308.13,149.78z"/>
<path class="st4" d="M465.52,109.99c-0.45-1.09-1.84-1.9-4.23-2.46c-4.01-0.94-8.29-0.97-13.24-1.01c-0.4,0-0.81-0.01-1.23-0.01
	c-5.76-0.06-12-0.1-19.05-0.12c-1.27-0.01-2.55-0.01-3.82-0.01c-6.63,0-13.29,0.06-19.77,0.11c-6.77,0.06-13.79,0.12-20.67,0.11
	c-14.74-0.02-29.63,0.03-44.87,0.08c-3.01,0.01-6.21,0.14-9.22,0.71c-0.93-0.05-1.86-0.02-2.75,0.19c-0.44,0.1-0.87,0.25-1.17,0.5
	c-0.3,0.24-0.46,0.55-0.6,0.86c-1.06,2.32-1.22,4.93-1.24,7.35c-0.05,9.72-0.09,19.22-0.08,28.62c0.01,4.4-0.05,8.86-0.11,13.19
	c-0.05,4.13-0.11,8.38-0.11,12.61c0,0.81,0,1.62,0.01,2.43c0.03,4.5,0.07,8.47,0.12,12.15c0,0.26,0.01,0.52,0.01,0.78
	c0.04,3.16,0.08,5.89,1.01,8.44c0.56,1.53,1.37,2.42,2.46,2.7c0.89,0.23,1.8,0.03,2.65-0.23c1.24-0.37,2.53-0.26,3.77-0.15
	c0.67,0.06,1.36,0.12,2.04,0.11c0.93-0.02,1.88-0.17,2.59-1.85c0.65-1.56,0.9-4.04,1.08-6.03c0.36-3.71,0.32-7.3,0.26-11.1
	c-0.01-0.89-0.02-1.8-0.03-2.7v-0.06c-0.03-4.25-0.05-19.94-0.05-24.26v-28.76c2.9,0.12,5.82,0.16,8.5,0.16h45.16
	c6.78,0,31.37,0.03,38.04,0.05h0.1c1.42,0.01,2.86,0.02,4.24,0.03c5.96,0.04,11.59,0.09,17.41-0.26c3.13-0.19,7.01-0.43,9.46-1.08
	c2.62-0.71,2.87-1.67,2.89-2.59c0.02-0.68-0.08-1.37-0.17-2.04c-0.17-1.25-0.35-2.53,0.23-3.77
	C465.56,111.8,465.88,110.88,465.52,109.99z"/>
<g class="st0">
	<path class="st2" d="M197.19,191.71c-1.35,0-2.41-0.3-3.16-0.91s-1.19-1.5-1.3-2.66l1.98-0.29c0.19,1.38,1.05,2.08,2.58,2.08
		c0.66,0,1.17-0.13,1.54-0.4c0.37-0.26,0.55-0.64,0.55-1.11c0-0.43-0.18-0.76-0.55-0.98c-0.37-0.22-0.96-0.43-1.77-0.63
		c-0.76-0.18-1.4-0.4-1.95-0.66c-0.54-0.25-0.96-0.6-1.24-1.03c-0.29-0.43-0.43-1-0.43-1.72c0-0.68,0.18-1.28,0.53-1.82
		c0.35-0.53,0.84-0.94,1.45-1.25c0.62-0.3,1.33-0.45,2.14-0.45c1.07,0,1.95,0.28,2.63,0.84s1.08,1.33,1.2,2.32l-1.85,0.31
		c-0.23-1.12-0.92-1.69-2.08-1.69c-0.56,0-1.02,0.15-1.37,0.44s-0.53,0.67-0.53,1.15c0,0.47,0.17,0.84,0.52,1.1
		c0.35,0.25,0.93,0.48,1.77,0.67c0.74,0.17,1.39,0.38,1.93,0.61c0.54,0.23,0.96,0.56,1.26,0.97c0.3,0.41,0.45,0.97,0.45,1.69
		c0,0.67-0.18,1.26-0.55,1.78c-0.36,0.51-0.86,0.92-1.51,1.21C198.8,191.56,198.04,191.71,197.19,191.71z"/>
	<path class="st2" d="M210.52,181.86h-5.35v2.97h5.1v1.82h-5.1v3.1h5.55l-0.15,1.82h-7.46v-11.52h7.41V181.86z"/>
	<path class="st2" d="M221.88,189.32c-0.45,0.77-1.08,1.35-1.88,1.77c-0.8,0.41-1.7,0.62-2.69,0.62c-1.18,0-2.19-0.23-3.03-0.68
		c-0.84-0.45-1.49-1.11-1.94-1.95s-0.67-1.86-0.67-3.04c0-1.22,0.25-2.29,0.74-3.21c0.5-0.92,1.19-1.64,2.08-2.16
		c0.89-0.52,1.92-0.78,3.08-0.78c0.99,0,1.85,0.19,2.55,0.57c0.71,0.38,1.3,0.95,1.78,1.72l-1.62,1.17
		c-0.29-0.54-0.67-0.93-1.15-1.18c-0.48-0.25-1-0.37-1.58-0.37c-0.73,0-1.38,0.18-1.95,0.53c-0.56,0.36-1,0.85-1.32,1.48
		c-0.32,0.63-0.48,1.37-0.48,2.2c0,1.2,0.31,2.14,0.93,2.81c0.62,0.67,1.49,1,2.6,1c0.62,0,1.18-0.14,1.71-0.42
		c0.52-0.28,0.94-0.71,1.26-1.28L221.88,189.32z"/>
	<path class="st2" d="M230.6,180.05h2.09l0.02,6.13c0.01,1.14-0.18,2.13-0.56,2.96c-0.38,0.83-0.94,1.46-1.67,1.91
		c-0.73,0.44-1.61,0.66-2.63,0.66c-1.65,0-2.88-0.42-3.71-1.24c-0.83-0.83-1.24-2.09-1.24-3.79v-6.63h2.11v6.47
		c0,1.16,0.24,2,0.71,2.52c0.47,0.52,1.17,0.78,2.1,0.78c0.94,0,1.65-0.3,2.12-0.91s0.7-1.55,0.69-2.82L230.6,180.05z"/>
	<path class="st2" d="M242.61,180.05h2.03v11.52h-1.85l-5.73-8.03v8.03h-2.03v-11.52h1.85l5.73,8.03V180.05z"/>
	<path class="st2" d="M247.01,191.56v-11.52h3.42c2.24,0,3.93,0.48,5.08,1.44c1.14,0.96,1.72,2.39,1.72,4.26
		c0,1.17-0.25,2.19-0.76,3.06c-0.51,0.87-1.23,1.55-2.16,2.03c-0.93,0.48-2.02,0.72-3.28,0.72L247.01,191.56L247.01,191.56z
		 M249.11,189.7h1.84c1.35,0,2.38-0.33,3.08-0.98c0.7-0.65,1.05-1.61,1.05-2.88c0-1.32-0.36-2.3-1.08-2.95
		c-0.72-0.65-1.82-0.97-3.3-0.97h-1.59L249.11,189.7L249.11,189.7z"/>
	<path class="st2" d="M257.47,191.56l4.92-11.52h1.79l4.72,11.52h-2.14l-1.04-2.63h-5.03l-1.07,2.63H257.47z M261.41,187.17h3.62
		l-1.79-4.52L261.41,187.17z M262.32,178.94l1.93-2.87l2.05,0.52l-2.21,2.35L262.32,178.94L262.32,178.94z"/>
	<path class="st2" d="M279.08,189.55l0.49,1.64c-0.22,0.16-0.48,0.29-0.79,0.38c-0.31,0.09-0.64,0.14-0.99,0.14
		c-1.21,0-2.16-0.53-2.86-1.61l-1.67-2.56c-0.17-0.27-0.35-0.46-0.53-0.57c-0.18-0.11-0.38-0.16-0.6-0.16h-0.08v4.76h-2.06v-11.52
		h3.58c1.46,0,2.56,0.3,3.32,0.91s1.13,1.44,1.13,2.5c0,0.64-0.14,1.19-0.42,1.65c-0.28,0.46-0.66,0.83-1.15,1.1
		c-0.49,0.27-1.04,0.44-1.66,0.52c0.32,0.17,0.62,0.46,0.89,0.87l0.91,1.35c0.24,0.35,0.46,0.58,0.67,0.71
		c0.21,0.13,0.48,0.19,0.8,0.19C278.43,189.84,278.77,189.75,279.08,189.55z M273.41,181.77h-1.38v3.39h1.28
		c0.89,0,1.54-0.13,1.96-0.4c0.42-0.27,0.63-0.7,0.63-1.3C275.91,182.33,275.08,181.77,273.41,181.77z"/>
	<path class="st2" d="M280.2,191.56v-11.52h2.11v11.52H280.2z"/>
	<path class="st2" d="M283.32,191.56l4.92-11.52h1.79l4.72,11.52h-2.14l-1.04-2.63h-5.03l-1.07,2.63H283.32z M287.27,187.17h3.62
		l-1.79-4.52L287.27,187.17z"/>
</g>
<g class="st0">
	<path d="M242.03,299.2l0.77,2.55c-0.3,0.23-0.68,0.41-1.14,0.55c-0.46,0.13-0.94,0.21-1.43,0.21c-0.88,0-1.65-0.18-2.31-0.54
		c-0.66-0.36-1.21-0.88-1.64-1.57l-1.72-2.76c-0.21-0.32-0.4-0.55-0.6-0.68c-0.19-0.13-0.42-0.2-0.68-0.21v5.55h-3.24v-14.4h4.72
		c1.99,0,3.48,0.4,4.47,1.2c0.99,0.8,1.49,1.9,1.49,3.3c0,1.11-0.34,2.01-1.03,2.72c-0.68,0.7-1.56,1.16-2.62,1.38
		c0.45,0.22,0.84,0.58,1.18,1.07l0.69,1.05c0.43,0.65,1,0.97,1.71,0.97c0.26,0,0.5-0.03,0.73-0.09
		C241.59,299.45,241.81,299.35,242.03,299.2z M234.57,290.6h-1.3v3.57h1.28c1.01,0,1.74-0.15,2.19-0.44
		c0.45-0.29,0.67-0.74,0.67-1.37c0-0.62-0.25-1.07-0.75-1.35C236.16,290.74,235.46,290.6,234.57,290.6z"/>
	<path d="M243.45,302.3v-14.4h3.3v14.4H243.45z"/>
	<path d="M254.14,302.49c-1.77,0-3.14-0.38-4.12-1.13c-0.97-0.76-1.53-1.87-1.66-3.35l3.1-0.45c0.08,0.7,0.36,1.24,0.83,1.61
		c0.48,0.37,1.13,0.56,1.96,0.56c0.72,0,1.27-0.12,1.65-0.38c0.38-0.25,0.58-0.6,0.58-1.06c0-0.42-0.21-0.75-0.61-0.99
		c-0.4-0.24-1.07-0.48-2.01-0.69c-1-0.24-1.85-0.54-2.54-0.88s-1.21-0.79-1.56-1.35c-0.35-0.56-0.53-1.26-0.53-2.11
		c0-0.89,0.23-1.68,0.69-2.37c0.46-0.69,1.1-1.23,1.93-1.61c0.83-0.38,1.78-0.58,2.86-0.58c1.4,0,2.55,0.36,3.45,1.07
		c0.89,0.72,1.4,1.69,1.54,2.94l-2.9,0.49c-0.11-0.56-0.36-0.98-0.75-1.29c-0.39-0.31-0.89-0.45-1.48-0.45
		c-0.59,0-1.07,0.14-1.44,0.42c-0.37,0.28-0.55,0.65-0.55,1.12c0,0.43,0.18,0.78,0.53,1.04c0.35,0.26,0.99,0.51,1.93,0.74
		c0.99,0.24,1.84,0.52,2.55,0.82c0.72,0.3,1.27,0.72,1.65,1.25c0.38,0.53,0.58,1.24,0.58,2.15c0,0.88-0.24,1.66-0.71,2.33
		c-0.48,0.67-1.14,1.2-2,1.58C256.27,302.3,255.27,302.49,254.14,302.49z"/>
	<path d="M274.21,299.49c-0.59,0.97-1.41,1.72-2.45,2.24c-1.04,0.52-2.2,0.78-3.47,0.78c-1.55,0-2.88-0.29-3.98-0.85
		c-1.1-0.57-1.95-1.38-2.54-2.45c-0.59-1.06-0.88-2.34-0.88-3.82c0-1.53,0.32-2.87,0.97-4.02c0.65-1.15,1.55-2.05,2.71-2.7
		c1.16-0.65,2.49-0.97,4.01-0.97c1.32,0,2.45,0.24,3.36,0.73c0.91,0.49,1.68,1.23,2.3,2.21l-2.54,1.8
		c-0.32-0.62-0.77-1.07-1.34-1.36c-0.57-0.29-1.18-0.43-1.82-0.43c-0.85,0-1.6,0.19-2.23,0.59c-0.64,0.39-1.13,0.94-1.49,1.64
		c-0.36,0.7-0.54,1.51-0.54,2.43c0,1.34,0.35,2.38,1.05,3.13c0.7,0.74,1.69,1.12,2.98,1.12c0.69,0,1.34-0.17,1.96-0.5
		c0.62-0.33,1.11-0.84,1.49-1.51L274.21,299.49z"/>
	<path d="M281.66,302.51c-1.51,0.01-2.81-0.26-3.89-0.83c-1.08-0.57-1.91-1.39-2.49-2.45c-0.58-1.07-0.87-2.35-0.87-3.85
		s0.31-2.83,0.92-3.98c0.62-1.16,1.48-2.06,2.61-2.7c1.12-0.65,2.46-0.97,3.99-0.97c1.37,0,2.56,0.3,3.59,0.89s1.83,1.43,2.4,2.48
		c0.57,1.06,0.86,2.31,0.86,3.74c0,1.54-0.3,2.89-0.91,4.04c-0.61,1.15-1.45,2.04-2.53,2.68
		C284.26,302.17,283.03,302.49,281.66,302.51z M281.53,299.57c1.15,0,2.08-0.42,2.8-1.25c0.72-0.83,1.07-1.98,1.07-3.46
		c0-1.28-0.32-2.31-0.97-3.07s-1.52-1.14-2.62-1.14c-0.8,0-1.5,0.19-2.11,0.59c-0.61,0.39-1.08,0.93-1.43,1.63
		c-0.35,0.7-0.52,1.51-0.52,2.45c0,1.35,0.33,2.4,1,3.14C279.44,299.19,280.35,299.57,281.53,299.57z"/>
</g>
<g class="st0">
	<path class="st2" d="M357.41,138.7l-0.26,1.85h-3.57v9.67h-2.11v-9.67h-3.7v-1.85H357.41z"/>
	<path class="st2" d="M365.77,140.51h-5.35v2.97h5.1v1.82h-5.1v3.1h5.55l-0.15,1.82h-7.46V138.7h7.41L365.77,140.51L365.77,140.51z"
		/>
	<path class="st2" d="M376.63,148.2l0.49,1.64c-0.22,0.16-0.48,0.29-0.79,0.38s-0.64,0.14-0.99,0.14c-1.21,0-2.16-0.53-2.86-1.61
		l-1.67-2.56c-0.17-0.27-0.35-0.46-0.53-0.57c-0.18-0.11-0.38-0.16-0.6-0.16h-0.08v4.76h-2.06V138.7h3.58c1.46,0,2.56,0.3,3.32,0.91
		c0.75,0.6,1.13,1.44,1.13,2.5c0,0.64-0.14,1.19-0.42,1.65c-0.28,0.46-0.66,0.83-1.15,1.1c-0.49,0.27-1.04,0.44-1.66,0.52
		c0.32,0.17,0.62,0.46,0.89,0.87l0.91,1.34c0.24,0.35,0.46,0.58,0.67,0.71s0.48,0.19,0.8,0.19
		C375.99,148.5,376.33,148.4,376.63,148.2z M370.97,140.42h-1.38v3.39h1.28c0.89,0,1.54-0.13,1.96-0.4c0.42-0.27,0.63-0.7,0.63-1.3
		C373.46,140.98,372.63,140.42,370.97,140.42z"/>
	<path class="st2" d="M387.22,147.98c-0.45,0.77-1.08,1.35-1.88,1.77c-0.8,0.41-1.7,0.62-2.69,0.62c-1.18,0-2.19-0.23-3.03-0.68
		c-0.84-0.45-1.49-1.11-1.94-1.95c-0.45-0.85-0.67-1.86-0.67-3.04c0-1.22,0.25-2.29,0.74-3.21s1.19-1.64,2.08-2.16
		c0.89-0.52,1.92-0.78,3.08-0.78c0.99,0,1.85,0.19,2.55,0.57c0.71,0.38,1.3,0.95,1.78,1.72l-1.62,1.17
		c-0.29-0.54-0.67-0.93-1.15-1.18c-0.48-0.25-1-0.37-1.58-0.37c-0.73,0-1.39,0.18-1.95,0.53s-1,0.85-1.32,1.48
		c-0.32,0.63-0.48,1.37-0.48,2.2c0,1.2,0.31,2.14,0.93,2.81c0.62,0.67,1.49,1,2.6,1c0.62,0,1.18-0.14,1.71-0.42s0.94-0.71,1.26-1.28
		L387.22,147.98z"/>
	<path class="st2" d="M388.29,150.22V138.7h2.11v11.52H388.29z"/>
	<path class="st2" d="M391.42,150.22l4.92-11.52h1.79l4.72,11.52h-2.14l-1.04-2.63h-5.03l-1.07,2.63H391.42z M395.36,145.82h3.62
		l-1.79-4.52L395.36,145.82z M396.27,137.6l1.93-2.87l2.05,0.52l-2.21,2.35H396.27z"/>
	<path class="st2" d="M413.03,148.2l0.49,1.64c-0.22,0.16-0.48,0.29-0.79,0.38s-0.64,0.14-0.99,0.14c-1.21,0-2.16-0.53-2.86-1.61
		l-1.67-2.56c-0.17-0.27-0.35-0.46-0.53-0.57c-0.18-0.11-0.38-0.16-0.6-0.16h-0.08v4.76h-2.06V138.7h3.58c1.46,0,2.56,0.3,3.32,0.91
		c0.75,0.6,1.13,1.44,1.13,2.5c0,0.64-0.14,1.19-0.42,1.65c-0.28,0.46-0.66,0.83-1.15,1.1s-1.04,0.44-1.66,0.52
		c0.32,0.17,0.62,0.46,0.89,0.87l0.91,1.34c0.24,0.35,0.46,0.58,0.67,0.71c0.21,0.13,0.48,0.19,0.8,0.19
		C412.38,148.5,412.72,148.4,413.03,148.2z M407.37,140.42h-1.38v3.39h1.28c0.89,0,1.54-0.13,1.96-0.4c0.42-0.27,0.63-0.7,0.63-1.3
		C409.87,140.98,409.03,140.42,407.37,140.42z"/>
	<path class="st2" d="M414.15,150.22V138.7h2.11v11.52H414.15z"/>
	<path class="st2" d="M417.28,150.22l4.92-11.52h1.79l4.72,11.52h-2.14l-1.04-2.63h-5.03l-1.07,2.63H417.28z M421.22,145.82h3.62
		l-1.79-4.52L421.22,145.82z"/>
</g>
<path class="st1" d="M496.54,314.7c-0.19-0.65-0.74-1.14-1.28-1.51c-0.73-0.49-1.53-0.87-2.32-1.26c-3.75-1.79-7.43-3.75-11.22-5.45
	c-2.17-0.97-4.12-2.43-6.31-3.43c-0.97-0.44-2-0.86-3.06-0.75c-0.21,0.02-0.42,0.07-0.58,0.19c-0.15,0.11-0.24,0.29-0.31,0.46
	c-0.33,0.74-0.39,1.66-0.54,2.46c-0.21,1.11-0.15,2.3-0.15,3.43c-0.01,1.42-0.01,2.84,0.01,4.25c-11.89-0.59-25.14-0.69-37.44-0.7
	c-50.78-0.03-100.42-0.05-149.56-0.04c-22.97,0-46.33-0.03-68.92-0.07c-21.6-0.03-43.81-0.07-65.9-0.07c-4.25,0-8.5,0-12.73,0
	c-23.52,0.02-44.29,0.04-63.52,0.08c-1.39,0-2.75,0.01-4.1,0.01c-16.51,0.03-30.77,0.05-44.13,0.61
	c-8.02,0.33-12.64,0.83-14.12,1.48c-1.2,0.53-0.12,1.08,1.22,1.6c1.95,0.75,1.35,1.52,0.77,2.27c-0.31,0.4-0.64,0.82-0.57,1.22
	c0.1,0.56,0.91,1.13,9.65,1.57c8.16,0.39,21.11,0.54,31.52,0.65c19.38,0.22,38.15,0.19,58.03,0.16c4.62-0.01,9.39-0.01,14.13-0.02
	h0.33c22.23-0.02,104.2-0.03,126.8-0.03h150.56c14.51,0,31.35-0.03,46.29-0.3c6.43-0.11,13.72-0.23,19.73-0.63
	c0.84-0.05,1.56-0.12,2.23-0.19c0.06,1.66,0.12,3.33,0.12,4.99c0,0.31-0.04,0.71-0.06,1.11c-0.03,0.6,0,1.21,0.29,1.59
	c0.24,0.32,0.66,0.46,1.07,0.46s0.79-0.13,1.17-0.26c1.79-0.6,3.55-1.28,5.27-2.03c0.45-0.19,0.89-0.39,1.3-0.64
	c0.52-0.31,0.99-0.7,1.51-1.01c0.48-0.29,0.99-0.5,1.5-0.73c2.63-1.2,5.12-2.76,7.57-4.27c1.69-1.04,3.26-2.38,4.85-3.57
	C496.22,315.93,496.76,315.44,496.54,314.7z"/>
<path class="st4" d="M131.05,168.99l17.97-18.86c1.36-1.43,3.77-0.46,3.77,1.51v18.86c0,1.2-0.98,2.19-2.19,2.19h-17.97
	C130.71,172.68,129.72,170.38,131.05,168.99z"/>
<path class="st4" d="M288.93,128.18l17.97-18.86c1.36-1.43,3.77-0.46,3.77,1.51v18.86c0,1.2-0.98,2.19-2.19,2.19h-17.97
	C288.59,131.87,287.6,129.58,288.93,128.18z"/>
</svg>
