<?xml version="1.0" encoding="utf-8"?>
<!-- Generator: Adobe Illustrator 24.0.2, SVG Export Plug-In . SVG Version: 6.00 Build 0)  -->
<svg version="1.1" xmlns="http://www.w3.org/2000/svg" xmlns:xlink="http://www.w3.org/1999/xlink" x="0px" y="0px"
	 viewBox="0 0 3840 90" style="enable-background:new 0 0 3840 90;" xml:space="preserve">
<style type="text/css">
	.st0{fill:#FFEE00;}
	.st1{fill:#FFF566;}
	.st2{fill:#FFF899;}
	.st3{display:none;}
	.st4{display:inline;}
	.st5{fill:#F4F4F4;}
</style>
<g id="Camada_1">
</g>
<g id="Camada_2">
</g>
<g id="Camada_3">
</g>
<g id="Camada_4">
</g>
<g id="Camada_5">
</g>
<g id="Camada_6" class="st3">
</g>
<g id="Camada_7">
</g>
<g id="Camada_8">
</g>
<g id="Camada_9">
</g>
<g id="Camada_10">
	<g>
		<g>
			<g>
				<path id="XMLID_87_" class="st5" d="M1108.3,55.68C836.83,73.73,19.88,59.47,19.88,59.47C7.28,58.68,3.56,57.46,2.61,56.6v22.58
					c0,0-3.93,2.55,17.27,3.88c0,0,828.02,17.9,1088.42-3.79s423.52-38.43,1214.75,2.95c0,0,48.18,3.15,120.29,5.21
					c-63.56-2.14-102.08-5.4-102.08-5.4C1598.36,35.47,1401.05,36.22,1108.3,55.68z"/>
				<path id="XMLID_86_" class="st5" d="M2390.44,57.96c-31.43-1.54-49.17-2.89-49.17-2.89c-31.74-1.43-69.12-3.8-109.19-6.74
					c-189.45-13.89-439.22-40.46-439.22-40.46l-17.91-4.89H2.61v2.28v50.33c0,0-0.65,0.42,0,1.01c0.95,0.86,4.67,2.08,17.27,2.87
					c0,0,816.95,14.25,1088.42-3.79c292.75-19.46,490.05-20.21,1232.96,26.34c0,0,38.53,3.26,102.08,5.4
					c39.46,1.33,88.56,2.23,144.08,1.66c72.27-0.75,1119.28-4,1206.19-12.05c16.18-1.5,32.48-3.17,46.27-5.01V50.84
					C3632,67.93,2477.16,62.21,2390.44,57.96z"/>
				<path id="XMLID_85_" class="st5" d="M1746.32,2.98l46.53,4.89c0,0,249.77,26.57,439.22,40.46c40.07,2.94,77.45,5.31,109.19,6.74
					c0,0,17.74,1.35,49.17,2.89c86.72,4.25,1241.56,9.97,1449.44-7.11V2.98H1746.32z"/>
			</g>
		</g>
		<g>
			<path id="XMLID_45_" class="st0" d="M1105.91,51.19C834.48,69.23,17.56,54.98,17.56,54.98c-12.6-0.79-16.32-2.01-17.27-2.87
				v22.58c0,0-3.93,2.55,17.27,3.88c0,0,561,26.68,1088.36-3.79c264.29-15.27,423.47-38.43,1214.6,2.95c0,0,48.18,3.15,120.28,5.21
				c-63.55-2.14-102.07-5.4-102.07-5.4C1595.91,30.98,1398.63,31.73,1105.91,51.19z"/>
			<path id="XMLID_44_" class="st1" d="M2387.89,54.97c-31.43-1.54-49.17-2.89-49.17-2.89c-31.74-1.43-69.11-3.8-109.17-6.74
				c-189.42-13.89-439.16-40.46-439.16-40.46L1772.47,0H0.29v2.28v50.33c0,0-0.65,0.42,0,1.01c0.95,0.86,4.67,2.08,17.27,2.87
				c0,0,735.18,31.11,1088.36-3.79c92.14-9.11,189.06-10.96,285.05-12.17c122.45-1.54,245.04,1.87,366.54,6.81
				c194.68,7.92,392.42,17.62,583.91,31.81c77.56,5.75,163.46,7.78,243.44,6.95c72.26-0.75,1119.26-4,1206.15-12.05
				c16.17-1.5,32.48-3.17,48.87-5.01V47.86C3629.42,64.94,2474.6,59.22,2387.89,54.97z"/>
			<path id="XMLID_43_" class="st2" d="M1743.86,0l46.53,4.89c0,0,249.74,26.57,439.16,40.46c40.07,2.94,77.44,5.31,109.17,6.74
				c0,0,17.74,1.35,49.17,2.89c86.71,4.25,1241.53,9.97,1451.99-7.11V0H1743.86z"/>
		</g>
	</g>
</g>
</svg>
