<?xml version="1.0" encoding="utf-8"?>
<!-- Generator: Adobe Illustrator 24.0.1, SVG Export Plug-In . SVG Version: 6.00 Build 0)  -->
<svg version="1.1" id="Camada_1" xmlns="http://www.w3.org/2000/svg" xmlns:xlink="http://www.w3.org/1999/xlink" x="0px" y="0px"
	 viewBox="0 0 110 110" style="enable-background:new 0 0 110 110;" xml:space="preserve">
<style type="text/css">
	.st0{fill:#FFF566;}
	.st1{fill:none;}
	.st2{fill:#DBA723;}
</style>
<circle class="st0" cx="55" cy="55" r="55"/>
<g>
	<rect x="0" y="28" class="st1" width="110" height="56"/>
	<path class="st2" d="M65,80.4c0,0.3-0.2,0.5-0.5,0.7c-0.3,0.2-0.7,0.3-1.1,0.4s-1,0.2-1.5,0.2c-0.6,0-1.1,0-1.5,0
		c-1.3,0-2.6-0.1-3.9-0.2c-1.3-0.1-2.5-0.2-3.5-0.3v-0.1v-7.4c0-4.9,0.2-9.8,0.5-14.6c0.3-4.8,0.5-9.7,0.5-14.6c0-0.3,0-0.5,0-0.7
		c0-0.2,0-0.4-0.1-0.7c-0.3,0-0.5,0.1-0.7,0.6c-0.2,0.4-0.4,0.9-0.7,1.4c-0.3,0.5-0.5,1-0.8,1.5c-0.3,0.5-0.7,0.7-1.1,0.7
		c-0.3,0-0.9-0.1-1.8-0.3c-1-0.2-2-0.5-3.1-0.8c-1.1-0.3-2.1-0.6-3-0.9c-0.9-0.3-1.3-0.6-1.3-0.8c0-0.6,0.3-1.4,0.8-2.4
		c0.5-1,1-2.1,1.6-3.3c0.6-1.2,1.3-2.5,2.1-3.7c0.8-1.3,1.5-2.4,2.1-3.5c0.7-1.1,1.2-2,1.7-2.7c0.5-0.7,0.8-1.2,0.9-1.3
		c1.2-0.1,2.3-0.1,3.5-0.1c1.1,0,2.3,0,3.5,0c1.3,0,2.6,0,4,0.1c1.3,0.1,2.7,0.1,4,0.2c0.2,2.2,0.3,4.3,0.3,6.4
		c0,2.1,0.1,4.2,0.1,6.3c0,5.8-0.1,11.6-0.4,17.3c-0.3,5.7-0.4,11.4-0.4,17.3c0,0.9,0,1.7,0,2.7S64.9,79.5,65,80.4z"/>
</g>
<g>
</g>
<g>
</g>
<g>
</g>
<g>
</g>
<g>
</g>
<g>
</g>
<g>
</g>
<g>
</g>
<g>
</g>
<g>
</g>
<g>
</g>
<g>
</g>
<g>
</g>
<g>
</g>
<g>
</g>
</svg>
