<?xml version="1.0" encoding="utf-8"?>
<!-- Generator: Adobe Illustrator 24.0.1, SVG Export Plug-In . SVG Version: 6.00 Build 0)  -->
<svg version="1.1" id="Camada_1" xmlns="http://www.w3.org/2000/svg" xmlns:xlink="http://www.w3.org/1999/xlink" x="0px" y="0px"
	 viewBox="0 0 110 110" style="enable-background:new 0 0 110 110;" xml:space="preserve">
<style type="text/css">
	.st0{fill:#FFF566;}
	.st1{fill:none;}
	.st2{fill:#DBA723;}
</style>
<circle class="st0" cx="55" cy="55" r="55"/>
<g>
	<rect x="0" y="28" class="st1" width="110" height="56"/>
	<path class="st2" d="M70.7,81.5l-28.9,0.4h-3.4c-0.1-0.1-0.1-0.1-0.1-0.2c0.2-1.7,0.2-3.4,0.2-5.1c0-1.7,0-3.3,0.1-4.9
		c0.1-1.6,0.3-3.1,0.6-4.6c0.3-1.5,0.9-2.9,1.7-4.2c1.2-1.4,2.5-2.5,3.8-3.5c1.3-1,2.7-1.9,4.1-2.8c1.4-0.9,2.8-1.7,4.2-2.5
		c1.4-0.8,2.7-1.7,4.1-2.8c1-0.7,1.7-1.6,2.2-2.7c0.4-1.2,0.6-2.3,0.5-3.5c-0.1-1.2-0.5-2.2-1.2-3.1c-0.7-0.9-1.6-1.4-2.8-1.6
		c-1.2,0-2.2,0.3-2.9,0.9c-0.7,0.6-1.3,1.4-1.7,2.3c-0.4,0.9-0.6,1.9-0.8,3c-0.1,1.1-0.2,2.1-0.3,3v0.2h-0.1c-2.3,0.3-4.3,0.4-6,0.5
		c-1.7,0.1-3.5,0.1-5.2-0.2h-0.1v-0.2c-0.6-3.5-0.6-6.8,0-9.8c0.6-3.1,1.9-5.6,3.8-7.7c1-1.3,2.5-2.3,4.3-3c1.9-0.7,3.9-1.2,6-1.4
		c2.1-0.2,4.2-0.2,6.3,0c2.1,0.2,3.8,0.6,5.1,1.2c2.3,1.2,4,2.9,5.2,5.2c1.2,2.3,2,4.8,2.2,7.5c0,1.1,0.1,2.2,0.2,3.5
		c0,1.2,0,2.4,0,3.4c-0.2,1.9-0.6,3.5-1.4,4.8c-0.8,1.3-1.7,2.4-2.9,3.4c-1.1,1-2.4,1.8-3.8,2.5c-1.4,0.7-2.8,1.4-4.2,2.1
		c-1.4,0.7-2.7,1.5-4,2.2c-1.3,0.8-2.4,1.7-3.3,2.8c-0.1,0.3-0.2,0.6-0.4,1.1c-0.2,0.5-0.3,0.9-0.5,1.4c-0.1,0.5-0.2,0.9-0.2,1.3
		c0,0.4,0.1,0.6,0.3,0.7c3.4,0.1,6.5,0.1,9.5,0c2.9-0.1,6-0.2,9.3-0.2c0.4,1,0.6,2.2,0.6,3.5s0,2.6-0.1,3.8c0,0.6,0,1.1,0,1.7
		c0,0.6,0,1.1,0.2,1.7C71,81.4,70.9,81.5,70.7,81.5z"/>
</g>
<g>
</g>
<g>
</g>
<g>
</g>
<g>
</g>
<g>
</g>
<g>
</g>
<g>
</g>
<g>
</g>
<g>
</g>
<g>
</g>
<g>
</g>
<g>
</g>
<g>
</g>
<g>
</g>
<g>
</g>
</svg>
