<?xml version="1.0" encoding="utf-8"?>
<!-- Generator: Adobe Illustrator 24.0.1, SVG Export Plug-In . SVG Version: 6.00 Build 0)  -->
<svg version="1.1" id="Camada_1" xmlns="http://www.w3.org/2000/svg" xmlns:xlink="http://www.w3.org/1999/xlink" x="0px" y="0px"
	 viewBox="0 0 110 110" style="enable-background:new 0 0 110 110;" xml:space="preserve">
<style type="text/css">
	.st0{fill:#FFF566;}
	.st1{fill:none;}
	.st2{fill:#DBA723;}
</style>
<circle class="st0" cx="55" cy="55" r="55"/>
<g>
	<rect x="0" y="28" class="st1" width="110" height="56"/>
	<path class="st2" d="M41.6,78.4c-0.7-0.7-1.3-1.5-1.7-2.5C39.5,75,39.2,74,39.1,73c-0.2-1.2-0.3-2.4-0.3-3.6c0-1.2-0.1-2.6-0.3-4.2
		c0,0,0-0.1,0.1-0.1h0.1c1.5,0.1,3.1,0,4.7-0.3c1.6-0.3,3.3-0.4,5.2-0.3h0.1l0.1,0.1c0.3,0.9,0.9,1.8,1.7,2.6
		c0.8,0.8,1.7,1.4,2.7,1.8c1,0.4,2,0.5,3.1,0.3c1-0.2,1.9-0.8,2.7-1.8c0.6-1,0.8-2.2,0.6-3.5c-0.2-1.3-0.8-2.3-1.9-3.2
		c-1.1-0.8-2.5-1.2-4.1-1.3c-1.6,0-3,0.1-4.3,0.3c-0.3-0.7-0.5-1.4-0.5-2.4c-0.1-0.9-0.1-1.8,0-2.8c0-1,0.1-1.9,0.2-2.9
		c0.1-0.9,0.1-1.8,0-2.5v-0.1c0.9-0.3,1.9-0.4,3.2-0.4c1.2,0,2.4,0,3.6-0.2c1.1-0.2,2.1-0.5,2.8-1.1s1.1-1.7,1-3.3
		c-0.1-1.7-0.6-2.9-1.6-3.4c-1-0.6-2.1-0.7-3.4-0.5c-1.3,0.2-2.5,0.7-3.6,1.6c-1.2,0.8-2,1.8-2.4,2.9c-0.4,0.1-1.1,0.1-2.2,0.1
		s-2.2,0-3.3,0s-2.2,0-3,0c-0.9,0-1.4,0-1.5,0v-0.2c0-1-0.1-2.2-0.2-3.5c-0.1-1.3,0-2.5,0.5-3.6c0.6-2,1.7-3.7,3.2-5.1
		c1.5-1.4,3.3-2.4,5.3-3.2c2-0.8,4.1-1.2,6.4-1.3c2.3-0.1,4.4,0,6.5,0.5c2.1,0.5,4,1.2,5.7,2.2c1.7,1,3,2.3,3.8,3.8
		c0.5,0.8,0.8,1.7,1,2.6c0.1,0.9,0.2,1.9,0.1,2.9c0.1,4.3,0.1,8.5,0.1,12.7c0,4.2-0.1,8.3-0.3,12.4c-0.1,1.5-0.2,3-0.2,4.5
		c-0.1,1.5-0.4,3-1.1,4.3c-0.7,1.7-1.7,3.1-2.9,4.3s-2.8,2.1-4.7,2.7c-1.9,0.6-3.9,0.8-6.2,0.9c-2.2,0-4.3-0.1-6.2-0.3
		c-0.7-0.1-1.4-0.3-2.1-0.5c-0.7-0.2-1.4-0.4-2.1-0.6c-1.1-0.3-1.9-0.7-2.5-1.1C42.1,78.8,41.7,78.5,41.6,78.4z"/>
</g>
<g>
</g>
<g>
</g>
<g>
</g>
<g>
</g>
<g>
</g>
<g>
</g>
<g>
</g>
<g>
</g>
<g>
</g>
<g>
</g>
<g>
</g>
<g>
</g>
<g>
</g>
<g>
</g>
<g>
</g>
</svg>
