<?xml version="1.0" encoding="utf-8"?>
<!-- Generator: Adobe Illustrator 24.0.1, SVG Export Plug-In . SVG Version: 6.00 Build 0)  -->
<svg version="1.1" id="Camada_1" xmlns="http://www.w3.org/2000/svg" xmlns:xlink="http://www.w3.org/1999/xlink" x="0px" y="0px"
	 viewBox="0 0 110 110" style="enable-background:new 0 0 110 110;" xml:space="preserve">
<style type="text/css">
	.st0{fill:#FFF566;}
	.st1{fill:none;}
	.st2{fill:#DBA723;}
</style>
<circle class="st0" cx="55" cy="55" r="55"/>
<g>
	<rect x="0" y="28" class="st1" width="110" height="56"/>
	<path class="st2" d="M66.4,56.8l0.5-0.1c0.7-0.1,1.4-0.1,2.4,0s1.7,0.2,2.3,0.2l-0.5,11c-0.8,0.3-1.6,0.3-2.4,0.2
		c-0.8-0.1-1.5-0.1-2.2,0c0,0,0,0.2-0.1,0.8c-0.1,0.6-0.1,1.3-0.2,2.3s-0.2,2-0.2,3c-0.1,1.1-0.2,2.1-0.2,3.2
		c-0.1,1-0.1,1.9-0.2,2.7c-0.1,0.8-0.1,1.2-0.2,1.4C65.1,81.8,64,82,62.3,82c-1.7,0-4.4,0-7.9,0c-0.1-0.1-0.1-0.4,0-1.1
		c0-0.7,0.1-1.6,0.2-2.6c0.1-1,0.1-2.2,0.2-3.4c0.1-1.2,0.2-2.4,0.2-3.4c0.1-1.1,0.1-2,0.2-2.7c0-0.8,0.1-1.2,0.1-1.3
		c-0.2,0-0.7-0.1-1.6-0.2c-0.9,0-1.9-0.1-3.1-0.1c-1.2,0-2.5,0-3.8,0c-1.3,0-2.6,0-3.7,0c-1.1,0-2.1,0-2.9,0c-0.8,0-1.2-0.1-1.2-0.2
		c-0.1-0.4-0.3-1.5-0.5-3.5c-0.3-2-0.3-4.5-0.2-7.5c0.5-0.7,1.1-1.7,1.8-3.1c0.7-1.3,1.7-3.1,2.9-5.3c1.2-2.2,2.8-4.9,4.7-8
		c1.9-3.1,4.3-6.8,7.1-11.1c0,0,0-0.1,0.1-0.1c0.2,0,0.9,0,2,0c1.1,0,2.4,0,3.7-0.1c1.3,0,2.6-0.1,3.8-0.1c1.2,0,2,0,2.4,0H67
		c0,0.1,0,0.7-0.1,2.1c-0.1,1.3-0.1,3-0.2,5c-0.1,2-0.1,4.2-0.2,6.5s-0.1,4.6-0.2,6.6c0,2.1,0,3.9,0,5.4
		C66.4,55.5,66.4,56.4,66.4,56.8z M57.3,56.9l0.2-16.3c-0.1-0.3-0.3-0.1-0.8,0.6c-0.5,0.7-1.1,1.6-1.8,2.8c-0.7,1.2-1.5,2.5-2.4,3.9
		c-0.9,1.4-1.7,2.8-2.4,4.1c-0.8,1.3-1.4,2.4-1.9,3.3c-0.5,0.9-0.8,1.4-0.9,1.5c1.8,0.1,3.3,0.1,4.5,0.1c1.2,0,2.3,0,3.4,0
		C56.2,57,57,57,57.3,56.9z"/>
</g>
<g>
</g>
<g>
</g>
<g>
</g>
<g>
</g>
<g>
</g>
<g>
</g>
<g>
</g>
<g>
</g>
<g>
</g>
<g>
</g>
<g>
</g>
<g>
</g>
<g>
</g>
<g>
</g>
<g>
</g>
</svg>
