<?xml version="1.0" encoding="utf-8"?>
<!-- Generator: Adobe Illustrator 24.0.1, SVG Export Plug-In . SVG Version: 6.00 Build 0)  -->
<svg version="1.1" id="Camada_1" xmlns="http://www.w3.org/2000/svg" xmlns:xlink="http://www.w3.org/1999/xlink" x="0px" y="0px"
	 viewBox="0 0 110 110" style="enable-background:new 0 0 110 110;" xml:space="preserve">
<style type="text/css">
	.st0{fill:#FFF566;}
	.st1{fill:none;}
	.st2{fill:#DBA723;}
</style>
<circle class="st0" cx="55" cy="55" r="55"/>
<g>
	<rect x="0" y="28" class="st1" width="110" height="56"/>
	<path class="st2" d="M71.6,42.3v0.5v1.4c0,0.4,0,0.8-0.1,1.2c-0.1,0.4-0.1,0.8-0.2,1.1c-0.4,1.8-1,3.4-1.9,4.9
		c-0.8,1.4-2.1,2.8-3.7,4.1v0.1c1.9,1.4,3.3,3,4.2,5c0.9,2,1.4,4,1.5,6.2s-0.3,4.2-1,6.3c-0.7,2.1-1.8,3.8-3.2,5.4
		c-0.9,1-2,1.8-3.3,2.5c-1.4,0.7-2.9,1.1-4.5,1.4c-1.6,0.3-3.3,0.4-5.1,0.4c-1.7-0.1-3.4-0.3-5.1-0.7c-1.6-0.4-3.1-1-4.4-1.7
		c-1.3-0.8-2.4-1.7-3.2-2.8c-1.2-1.5-2.1-3.3-2.7-5.2c-0.6-2-0.8-4-0.8-6c0.1-2.1,0.5-4.1,1.3-6c0.8-2,1.9-3.7,3.5-5.2
		c-1.3-1.4-2.3-3-3-4.8c-0.7-1.8-1.1-3.7-1.1-5.7c-0.1-2,0.2-3.9,0.7-5.9c0.5-1.9,1.3-3.7,2.4-5.2c1.1-1.6,2.4-2.9,4-3.8
		c1.6-1,3.4-1.5,5.5-1.6c1.8,0,3.3-0.1,4.7-0.1c1.4,0,2.6,0.1,3.7,0.2c1.1,0.1,2.1,0.3,2.9,0.5c0.9,0.3,1.7,0.6,2.6,1.1
		c0.4,0.3,0.7,0.5,1,0.7c0.3,0.2,0.6,0.4,0.9,0.7c0.3,0.3,0.6,0.6,0.9,1.1c0.4,0.4,0.8,1,1.2,1.7c0.2,0.3,0.4,0.7,0.6,1.3
		c0.3,0.6,0.4,1.1,0.5,1.6c0.2,0.8,0.4,1.5,0.5,2c0.1,0.5,0.2,1.2,0.3,1.9c0,0.3,0.1,0.5,0.1,0.7c0,0.2,0,0.4,0,0.7V42.3z
		 M59.3,65.6c0,0,0-0.1,0-0.2c0-0.1,0-0.2,0-0.3s0-0.2,0-0.4s0-0.3-0.1-0.4c-0.1-0.4-0.3-0.8-0.5-1.3c-0.2-0.4-0.5-0.8-0.8-1
		c-0.6-0.5-1.3-0.9-2.1-1.1c-0.8-0.3-1.7-0.3-2.5-0.1c-0.7,0.3-1.3,0.7-1.8,1.4c-0.5,0.7-0.8,1.4-1,2.2c-0.1,0.8-0.1,1.5,0.2,2.2
		c0.3,0.7,0.8,1.2,1.7,1.6c0.7,0.3,1.4,0.4,2.2,0.4c0.8,0,1.5,0,2.2-0.2c0.5-0.2,0.9-0.3,1.1-0.5c0.3-0.2,0.4-0.4,0.6-0.6
		c0.1-0.3,0.3-0.5,0.4-0.8c0.1-0.2,0.2-0.3,0.2-0.5C59.2,65.8,59.2,65.7,59.3,65.6z M51.3,43.2C51.2,43.2,51.2,43.3,51.3,43.2
		l-0.1,0.2c-0.1,0.5,0,1.1,0.1,1.6c0.1,0.6,0.3,1.1,0.6,1.6c0.3,0.5,0.7,0.9,1.1,1.3c0.5,0.3,1.1,0.5,1.8,0.6
		c1.2,0.1,2.2-0.3,2.8-1.1c0.7-0.9,1-1.8,0.9-2.8c-0.1-1-0.5-1.8-1.3-2.6c-0.8-0.7-2-0.9-3.6-0.5c-0.1,0.1-0.2,0.1-0.3,0.1
		c-0.1,0-0.2,0.1-0.3,0.2c-0.3,0.1-0.4,0.2-0.5,0.3c-0.1,0.1-0.2,0.2-0.4,0.3c-0.1,0.1-0.3,0.2-0.5,0.4C51.5,43,51.3,43.1,51.3,43.2
		z"/>
</g>
<g>
</g>
<g>
</g>
<g>
</g>
<g>
</g>
<g>
</g>
<g>
</g>
<g>
</g>
<g>
</g>
<g>
</g>
<g>
</g>
<g>
</g>
<g>
</g>
<g>
</g>
<g>
</g>
<g>
</g>
</svg>
