<?xml version="1.0" encoding="utf-8"?>
<!-- Generator: Adobe Illustrator 24.0.1, SVG Export Plug-In . SVG Version: 6.00 Build 0)  -->
<svg version="1.1" id="Camada_1" xmlns="http://www.w3.org/2000/svg" xmlns:xlink="http://www.w3.org/1999/xlink" x="0px" y="0px"
	 viewBox="0 0 15.9 11.6" style="enable-background:new 0 0 15.9 11.6;" xml:space="preserve">
<style type="text/css">
	.st0{fill:#DBA723;}
</style>
<path class="st0" d="M10,0L8.7,2l2.5,2.6c-1.3,0-2.6,0.1-3.8,0.3C5.3,5.1,3.3,5.2,1.4,5C1.3,5,1.1,5,1,4.9L0,7.1
	c0.4,0.3,0.8,0.4,1.2,0.4c0.7,0.1,1.5,0.1,2.2,0.1c1.4,0,2.8-0.1,4.2-0.3c1.3-0.1,2.6-0.3,3.9-0.3L8.8,9.4l1.1,2.1l6-5.3L10,0z"/>
<g>
</g>
<g>
</g>
<g>
</g>
<g>
</g>
<g>
</g>
<g>
</g>
<g>
</g>
<g>
</g>
<g>
</g>
<g>
</g>
<g>
</g>
<g>
</g>
<g>
</g>
<g>
</g>
<g>
</g>
</svg>
