<?xml version="1.0" encoding="utf-8"?>
<!-- Generator: Adobe Illustrator 24.0.1, SVG Export Plug-In . SVG Version: 6.00 Build 0)  -->
<svg version="1.1" id="Camada_1" xmlns="http://www.w3.org/2000/svg" xmlns:xlink="http://www.w3.org/1999/xlink" x="0px" y="0px"
	 viewBox="0 0 50 47.3" style="enable-background:new 0 0 50 47.3;" xml:space="preserve">
<style type="text/css">
	.st0{fill:#FFFCCC;}
	.st1{fill:#DBA723;}
	.st2{fill:#0192B4;}
</style>
<g id="BG">
	<ellipse class="st0" cx="24.6" cy="24.3" rx="22.5" ry="21.5"/>
</g>
<path id="ARROW" class="st1" d="M21,12.4l2.5,3.9l-4.8,5.1c2.5,0,5.1,0.3,7.5,0.5c4.1,0.4,8,0.8,11.9,0.3c0.1,0,0.6-0.1,0.7-0.1
	l2,4.3c-0.8,0.6-1.6,0.7-2.3,0.8c-1.4,0.2-2.9,0.3-4.3,0.3c-2.8,0-5.5-0.3-8.2-0.5c-2.6-0.3-5.1-0.5-7.6-0.5l5.1,4.5l-2.2,4.2
	L9.4,24.7L21,12.4z"/>
<path id="BORDER" class="st2" d="M38.6,3.8c-7.9-5.1-17.9-5.1-27.3,0.1C9.2,5,6.5,6.7,4.6,9.1c-4,4.9-5.5,13.1-4,21
	c1.4,6.9,4.9,12.3,9.7,14.9c2.8,1.5,5.8,1.9,8.7,2.1c2.3,0.2,4.3,0.3,6.1,0.3c5,0,9.2-0.7,12.9-2.3C45.8,41.7,50,34.7,50,24.7
	C50,16.3,45.6,8.3,38.6,3.8z M36.4,41.5c-5.5,2.3-11.7,2.2-17.1,1.7c-2.5-0.2-5.1-0.5-7.2-1.7c-3.8-2-6.6-6.5-7.7-12.2
	C3,22.5,4.3,15.5,7.6,11.5c1.5-1.9,3.7-3.2,5.6-4.2c4.2-2.3,8.3-3.4,12.4-3.4c3.9,0,7.6,1.1,10.9,3.2c6,3.8,9.7,10.6,9.7,17.7
	C46.1,30.5,44.5,38.1,36.4,41.5z"/>
<g>
</g>
<g>
</g>
<g>
</g>
<g>
</g>
<g>
</g>
<g>
</g>
<g>
</g>
<g>
</g>
<g>
</g>
<g>
</g>
<g>
</g>
<g>
</g>
<g>
</g>
<g>
</g>
<g>
</g>
</svg>
