<?xml version="1.0" encoding="utf-8"?>
<!-- Generator: Adobe Illustrator 24.0.2, SVG Export Plug-In . SVG Version: 6.00 Build 0)  -->
<svg version="1.1" id="Camada_1" xmlns="http://www.w3.org/2000/svg" xmlns:xlink="http://www.w3.org/1999/xlink" x="0px" y="0px"
	 viewBox="0 0 540 9.56" style="enable-background:new 0 0 540 9.56;" xml:space="preserve">
<style type="text/css">
	.st0{fill:#73C8E2;}
</style>
<g>
	<g id="XMLID_27_">
		<path class="st0" d="M537.9,3.76c-30.57,0.42-61.11,1.42-91.68,1.44c-26.58,0.02-53.13-0.36-79.7-0.85
			c-41.59-0.76-83.18-1.53-124.77-2.29c-39.49-0.73-78.98-1.78-118.48-2.02C87.4-0.19,51.53,0.73,15.66,0.39
			C11.14,0.35,6.62,0.26,2.1,0.16c-2.8-0.07-2.8,4.29,0,4.35c36.36,0.88,72.77-0.3,109.14-0.18c38.33,0.12,76.65,1.09,114.97,1.79
			c41.59,0.76,83.18,1.53,124.77,2.29c27.59,0.51,55.18,1.06,82.77,1.13c32.52,0.08,65.03-0.38,97.54-1.28
			c2.2-0.06,4.4-0.13,6.59-0.16C540.7,8.07,540.7,3.72,537.9,3.76L537.9,3.76z"/>
	</g>
</g>
</svg>
