<?xml version="1.0" encoding="utf-8"?>
<!-- Generator: Adobe Illustrator 24.0.2, SVG Export Plug-In . SVG Version: 6.00 Build 0)  -->
<svg version="1.1" id="Camada_1" xmlns="http://www.w3.org/2000/svg" xmlns:xlink="http://www.w3.org/1999/xlink" x="0px" y="0px"
	 viewBox="0 0 360 69.95" style="enable-background:new 0 0 360 69.95;" xml:space="preserve">
<style type="text/css">
	.st0{fill:#CDECF5;}
</style>
<path class="st0" d="M346.59,0.21V0.13h-0.32c-0.11-0.02-0.22-0.06-0.33-0.08c-0.59-0.12-4.65-0.03-5.29,0.08H61.97
	c-0.08,0-0.15-0.01-0.23-0.01H9.61C4.3,0.12,0,4.43,0,9.74v50.6c0,5.31,4.3,9.61,9.61,9.61h52.12c0.1,0,0.2-0.01,0.29-0.01
	c6.73,0.02,17.51,0.04,18.01-0.07h250.65l-0.03-0.02c0.54,0.11,3.58-0.3,3.95-0.37c5.06-0.99,8.87-5.31,8.87-10.62
	c0-5.31-3.81-9.74-8.87-10.73c-0.37-0.07-1.21-0.14-2.06-0.1c-0.73,0.04-1.45,0.17-1.49,0.18c-4.64,0.93-10.01,2.01-12.79,2.57
	c-0.56,0.11-1.29,0.24-2.02,0.28c-0.85,0.04-1.69-0.02-2.06-0.1c-5.06-0.99-8.87-5.41-8.87-10.73s3.81-9.74,8.87-10.73
	c0.37-0.07,1.21-0.14,2.06-0.1c0.73,0.04,1.45,0.17,2.07,0.3c8.25,1.67,16.75,3.39,21.16,4.28c0.89,0.18,2.04,0.39,3.2,0.45
	c1.35,0.07,2.68-0.04,3.27-0.15C353.96,32.7,360,25.64,360,17.17C360,8.92,354.28,2.03,346.59,0.21z"/>
</svg>
