<?xml version="1.0" encoding="utf-8"?>
<!-- Generator: Adobe Illustrator 24.0.1, SVG Export Plug-In . SVG Version: 6.00 Build 0)  -->
<svg version="1.1" id="Layer_1" xmlns="http://www.w3.org/2000/svg" xmlns:xlink="http://www.w3.org/1999/xlink" x="0px" y="0px"
	 viewBox="0 0 829.5 857.8" style="enable-background:new 0 0 829.5 857.8;" xml:space="preserve">
<style type="text/css">
	.st0{fill:#BCCF53;}
	.st1{fill:#FFFFFF;}
	.st2{clip-path:url(#SVGID_2_);}
	.st3{fill:#FFFFFF;stroke:#90C790;stroke-miterlimit:10;}
	.st4{fill:#CD4D57;}
</style>
<g>
	<g>
		<path class="st0" d="M605,142.8l52.6-12.9c85.9-21.2,156.1,69.8,113.8,147.6l-25.9,47.5c-21.2,39-14.8,87.2,16,119.2l37.5,39.1
			c61.3,63.8,17.6,170.1-70.9,172.3l-54.1,1.3c-44.4,1.1-82.9,30.8-95.3,73.4l-15.1,52c-24.6,85-138.5,100.3-184.7,24.7l-28.2-46.2
			c-23.1-37.9-68.1-56.4-111.2-45.8L186.8,728C100.9,749.2,30.7,658.2,73,580.5l25.9-47.5c21.2-39,14.8-87.2-16-119.2l-37.5-39.1
			c-61.3-63.8-17.6-170.1,70.9-172.3l54.1-1.3c44.4-1.1,82.9-30.8,95.3-73.4l15.1-52c24.6-85,138.5-100.3,184.7-24.7L493.8,97
			C516.9,134.9,561.9,153.4,605,142.8z"/>
		<path class="st1" d="M465.2,857.8c-35.9,0-68.8-18.3-88-49.7l-28.2-46.2c-22.8-37.3-66.6-55.3-109.1-44.9L187.3,730
			c-40.5,10-81.6-4.4-107.1-37.4c-25.5-33.1-28.9-76.4-9-113.1L97.2,532c20.9-38.4,14.6-85.4-15.7-116.9L44,376
			c-28.9-30.1-37-72.8-21.1-111.4s51.7-63.2,93.4-64.3l54.1-1.3c43.7-1.1,81.2-30,93.4-72l15.1-52c11.6-40.1,44.6-68.5,85.9-74
			c41.4-5.5,80.6,13.1,102.4,48.8l28.2,46.2c22.8,37.3,66.6,55.3,109.1,44.9l52.6-12.9c40.5-10,81.6,4.4,107.1,37.4
			c25.5,33.1,28.9,76.4,9,113.1l-25.9,47.5c-20.9,38.4-14.6,85.4,15.7,116.9l37.5,39.1c28.9,30.1,37,72.8,21.1,111.4
			c-15.9,38.6-51.7,63.2-93.4,64.3l-54.1,1.3c-43.7,1.1-81.2,30-93.4,72l-15.1,52c-11.6,40.1-44.5,68.5-85.9,74
			C474.7,857.5,469.9,857.8,465.2,857.8z M264,710.1c35.6,0,69.2,18.3,88.4,49.7l28.2,46.2c20.9,34.3,58.6,52.2,98.4,46.9
			c39.8-5.3,71.4-32.6,82.6-71.2l15.1-52c12.7-43.7,51.7-73.8,97.1-74.9l54.1-1.3c40.1-1,74.6-24.7,89.8-61.8
			c15.3-37.1,7.5-78.2-20.3-107.1L760,445.5c-31.5-32.8-38-81.6-16.3-121.6l25.9-47.5c19.2-35.3,15.9-76.9-8.6-108.7
			c-24.5-31.8-64-45.6-102.9-36l-52.6,12.9l-0.5-1.9l0.5,1.9c-44.1,10.9-89.7-7.9-113.4-46.7l-28.2-46.2
			c-20.9-34.3-58.6-52.2-98.4-46.9c-39.8,5.3-71.4,32.6-82.6,71.2l-15.1,52C255,171.7,216,201.8,170.6,203l-54.1,1.3
			c-40.1,1-74.6,24.7-89.8,61.8c-15.3,37.1-7.5,78.2,20.3,107.1l37.5,39.1c31.5,32.8,38,81.6,16.3,121.6l-25.9,47.5
			c-19.2,35.3-15.9,76.9,8.6,108.7c24.5,31.8,64,45.6,102.9,36l52.6-12.9C247.3,711.1,255.7,710.1,264,710.1z"/>
	</g>
	<g>
		<defs>
			<path id="SVGID_1_" d="M605,142.8l52.6-12.9c85.9-21.2,156.1,69.8,113.8,147.6l-25.9,47.5c-21.2,39-14.8,87.2,16,119.2l37.5,39.1
				c61.3,63.8,17.6,170.1-70.9,172.3l-54.1,1.3c-44.4,1.1-82.9,30.8-95.3,73.4l-15.1,52c-24.6,85-138.5,100.3-184.7,24.7l-28.2-46.2
				c-23.1-37.9-68.1-56.4-111.2-45.8L186.8,728C100.9,749.2,30.7,658.2,73,580.5l25.9-47.5c21.2-39,14.8-87.2-16-119.2l-37.5-39.1
				c-61.3-63.8-17.6-170.1,70.9-172.3l54.1-1.3c44.4-1.1,82.9-30.8,95.3-73.4l15.1-52c24.6-85,138.5-100.3,184.7-24.7L493.8,97
				C516.9,134.9,561.9,153.4,605,142.8z"/>
		</defs>
		<clipPath id="SVGID_2_">
			<use xlink:href="#SVGID_1_"  style="overflow:visible;"/>
		</clipPath>
		<g class="st2">
			<g>
				<g>
					<path class="st1" d="M644.1,414.9h-1.5l-0.2-0.1c-0.2,0-0.4,0-0.6,0c-0.2,0-0.4,0-0.6,0l-0.2,0.1h-6.6l-0.4-0.3
						c-0.3-0.2-0.9-0.3-1.5-0.3c-0.4,0-0.7-0.1-1.1-0.1c-13.5-2.4-24.6-9.2-32.8-20.4c-5-6.7-8.1-14.4-9.2-22.7
						c-1.9-13.9,1.4-26.7,9.8-38.1c4.2-5.6,9.5-10.3,15.8-13.8c3.9-2.2,8.6-1,10.8,2.8c2.2,3.7,0.9,8.3-3,10.5
						c-6.3,3.7-11,8.4-14.2,14.3c-3.8,7.1-5.1,14.8-3.8,22.8c2.3,14.5,13.6,26.2,28.1,29c14.5,2.9,29-3.3,36.9-15.8l0.2-0.4
						c0.5-0.8,1.1-1.8,2-2.6c2.8-2.6,6.9-2.7,10-0.4c3,2.3,3.9,6.3,2.1,9.6c-2.1,4-5,7.7-8.7,11.3c-7.2,6.9-15.8,11.5-25.8,13.5
						c-1.3,0.3-2.6,0.5-3.9,0.6c-0.6,0.1-1.2,0.2-1.7,0.3L644.1,414.9z M643.6,411.5h0.3c0.5-0.1,1.1-0.2,1.6-0.2
						c1.3-0.2,2.5-0.4,3.7-0.6c9.3-1.9,17.4-6.2,24.1-12.6c3.5-3.4,6.1-6.8,8.1-10.5c1-1.8,0.5-4-1.2-5.2c-1.7-1.3-4-1.2-5.5,0.2
						c-0.5,0.5-1,1.1-1.4,1.9l-0.3,0.4c-8.7,13.7-24.6,20.5-40.5,17.3c-15.9-3.1-28.3-16-30.9-31.9c-1.4-8.9,0-17.3,4.2-25
						c3.5-6.5,8.6-11.6,15.5-15.7c2.2-1.3,2.9-3.8,1.7-5.8c-1.3-2.2-3.8-2.8-6.1-1.5c-5.9,3.3-10.9,7.6-14.7,12.9
						c-7.9,10.6-10.9,22.6-9.1,35.6c1.1,7.8,4,14.9,8.6,21.1c7.7,10.4,18,16.8,30.6,19c0.3,0,0.5,0.1,0.8,0.1
						c0.8,0.1,1.7,0.2,2.6,0.6h0.2c0.4-0.1,0.7-0.1,0.9-0.1l0,0l0.6,0c0.2,0,0.5,0,0.9,0.1h2.1c0.5-0.2,1-0.2,1.3-0.1
						c0.1,0,0.1,0,0.2,0l0.2,0l0.2,0c0,0,0.1,0,0.1,0C642.5,411.3,643,411.3,643.6,411.5z"/>
				</g>
			</g>
			<g>
				<g>
					<path class="st1" d="M641.9,414.9h-5.1l2.4-2.8c0.8-1,1.9-0.9,2.4-0.9c0,0,0.1,0,0.1,0l0.7-0.1l0.5,0.4c0.8,0.6,1,1.5,0.6,2.4
						C643.2,414.5,642.6,414.9,641.9,414.9z M640.6,412.1c0,0.1-0.1,0.1-0.1,0.2c-0.4,0.7-0.2,1.6,0.4,2l0.4-0.5l-0.7-0.6V412.1z"/>
				</g>
			</g>
			<g>
				<g>
					<path class="st1" d="M646.7,414.9h-6.5l0-1.7c0-0.1,0-0.3,0-0.4l0.1-1.9l1.8,0.3l0.1,0c0.4,0,1.6-0.1,2.4,0.9L646.7,414.9z"/>
				</g>
			</g>
			<g>
				<g>
					<path class="st1" d="M636.6,414.9H634l0.4-2.1c0.2-1,1-1.8,2.4-1.6l0.2,0l0.3,0.1c0.7,0.3,0.9,0.8,1,1.1l0.2,0.7l-0.4,0.7
						C637.9,414.5,637.3,414.9,636.6,414.9z M636.3,414.7C636.4,414.7,636.4,414.7,636.3,414.7c0.6,0,1.3-0.5,1.4-1.2l-1.2-0.2
						L636.3,414.7z M636.3,413.2l-1.2,0.4c0.1,0.4,0.4,0.8,0.8,0.9l0.6-1.3L636.3,413.2z M636.1,411.5c-0.4,0.1-0.7,0.4-0.9,0.7
						l0.9,0.5V411.5z"/>
				</g>
			</g>
			<g>
				<g>
					<path class="st1" d="M637.1,414.9h-2.2l0-1.8l-0.2-1.9l2.8,0l0.3,0.2c0.7,0.3,0.9,0.8,1,1.1l0.2,0.7l-0.4,0.7
						C638.4,414.5,637.8,414.9,637.1,414.9z M636.6,413.3l-1,0.3c0.1,0.4,0.4,0.8,0.8,0.9l0.2-0.4L636.6,413.3z M636.6,411.5
						c-0.4,0.1-0.7,0.4-0.9,0.7l0.9,0.5V411.5z"/>
				</g>
			</g>
			<g>
				<g>
					<path class="st1" d="M640.3,414.9h-4.9l0-1.8l-0.2-1.6l1.6-0.3c1.3-0.3,2.1,0.5,2.5,1.2L640.3,414.9z M637.2,413.4l-1.1,0.5
						c0.3,0.6,1,0.9,1.4,0.8L637.2,413.4z"/>
				</g>
			</g>
			<g>
				<g>
					<path class="st1" d="M700.1,400.7c-0.2,0-0.5,0-0.7,0c-2.1-0.2-4.1-1.3-5.5-3l-6.5-8.1c-4.4-5.5-8.9-11.1-13.3-16.6
						c0,0,0-0.1-0.1-0.1c0,0-0.1,0-0.3,0c0,0,0,0,0,0c-3.6,0-7.2,0-10.7,0c-7.2,0-14.7,0-22.1,0.1c-2.5,0-4.7-0.8-6.3-2.4
						c-1.6-1.6-2.4-3.8-2.4-6.3c0.1-6.1,0.1-12.3,0.1-18.3c0-2.5,0-5,0-7.6l0-6.4c0-6.6,0-13.2,0-19.8c0-1,0.1-2.1,0.6-3.3
						c-4.1-1.9-7.1-5-8.7-9.3c-1.9-4.8-1.6-10.1,0.9-14.6c2.4-4.5,6.7-7.6,11.7-8.5c9.5-1.8,18.2,4,20.2,13.6
						c1.6,7.5-2.6,15.6-9.6,18.7c0.5,1.1,0.6,2.2,0.6,3.3c0,0.7,0,1.4,0,2c0,1.2,0,2.5,0,3.7c10,0,19.8,0,29.1,0
						c4.3,0,7.4,2.5,8.2,6.4c0.4,2.2-0.1,4.5-1.6,6.2c-1.5,1.8-3.7,2.9-6,2.9c-2.9,0-5.9,0-8.7,0c-1.2,0-2.5,0-3.7,0l-4.4,0
						c-4.2,0-8.6,0-12.9,0c0,8,0,16,0,23.8c6.2,0,12.4,0,18.6,0c3.6,0,7.1,0,10.7,0c0,0,0,0,0,0c2.8,0,5.2,1.1,6.9,3.3
						c2,2.4,3.9,4.9,5.9,7.3c3.7,4.5,7.3,9.1,10.9,13.6c0.6-0.6,1.3-1.2,1.9-1.7c3.2-2.6,7.9-2.3,10.6,0.7c2.8,3,2.8,7.6,0,10.5
						c-2.8,2.8-5.7,5.5-8.5,7.9C703.5,400.1,701.8,400.7,700.1,400.7z M673.7,369.4c0.8,0,2,0.1,3,1.4c4.4,5.5,8.9,11.1,13.3,16.6
						l6.5,8.1c0.8,1,1.9,1.6,3.1,1.7c1.1,0.1,2.1-0.2,2.9-0.9c2.8-2.3,5.6-4.9,8.3-7.7c1.5-1.5,1.5-4,0-5.7
						c-1.5-1.6-4.1-1.8-5.9-0.4c-0.8,0.6-1.4,1.1-1.9,1.7c-0.5,0.5-1.2,1.2-2.3,1.2c-1.2,0-2-1-2.3-1.4c-3.7-4.7-7.5-9.3-11.2-14
						c-2-2.4-3.9-4.9-5.9-7.3c-1.1-1.4-2.5-2-4.2-2c-3.6,0-7.1,0-10.7,0c-6.4,0-12.7,0-19.1,0c-0.7,0-1.5-0.1-2.2-0.7
						c-0.7-0.7-0.7-1.8-0.7-2.2c0-8.1,0-16.5,0-24.8c0-0.5,0-1.5,0.7-2.2c0.7-0.7,1.5-0.7,2.2-0.7c4.5,0,9,0,13.4,0l4.4,0
						c1.3,0,2.5,0,3.7,0c2.8,0,5.8,0,8.7,0c1.3,0,2.6-0.6,3.4-1.6c0.8-1,1.1-2.2,0.9-3.4c-0.5-2.3-2.2-3.6-4.8-3.6
						c-9.5,0-19.6,0-29.7,0c-0.5,0-1.5,0-2.2-0.8c-0.7-0.7-0.7-1.6-0.7-2.2c0.1-1.4,0-2.8,0-4.2c0-0.7,0-1.4,0-2.1
						c0-0.9-0.1-1.6-0.4-2.1c-0.2-0.3-0.9-1.3-0.6-2.5c0.3-1.1,1.3-1.5,2-1.8c5.7-2.3,9.3-9.1,8-15c-1.7-7.8-8.5-12.4-16.2-10.9
						c-4,0.8-7.4,3.2-9.3,6.8c-2,3.6-2.2,7.8-0.7,11.6c1.4,3.7,4,6.3,7.7,7.7c0.4,0.1,1.3,0.5,1.7,1.6c0.3,1-0.2,1.9-0.4,2.2
						c-0.3,0.5-0.5,1.2-0.5,2.4c0,6.6,0,13.2,0,19.8l0,6.4c0,2.5,0,5,0,7.5c0,6,0,12.2-0.1,18.4c0,1.5,0.5,2.8,1.4,3.8
						c0.9,0.9,2.3,1.4,3.8,1.4c7.4-0.1,14.9-0.1,22.2-0.1C666.6,369.4,670.2,369.5,673.7,369.4C673.7,369.4,673.7,369.4,673.7,369.4
						z"/>
				</g>
			</g>
		</g>
		<g class="st2">
			<g>
				<g>
					<path class="st1" d="M392.8,776h-1.5l-0.2-0.1c-0.2,0-0.4,0-0.6,0c-0.2,0-0.4,0-0.6,0l-0.2,0.1H383l-0.4-0.3
						c-0.4-0.2-0.9-0.3-1.5-0.3c-0.4,0-0.7-0.1-1.1-0.1c-13.7-2.4-25-9.4-33.3-20.7c-5-6.8-8.2-14.6-9.4-23.1
						c-2-14.1,1.4-27.2,9.9-38.7c4.2-5.7,9.6-10.4,16.1-14c4-2.2,8.7-1,10.9,2.8c1.1,1.8,1.3,3.9,0.8,5.9c-0.6,2-1.9,3.7-3.8,4.8
						c-6.4,3.8-11.2,8.5-14.4,14.6c-3.9,7.2-5.2,15-3.8,23.2c2.4,14.7,13.9,26.6,28.6,29.5c14.7,2.9,29.5-3.4,37.6-16.1l0.2-0.4
						c0.5-0.9,1.1-1.8,2-2.6c2.9-2.6,7-2.8,10.1-0.4c3,2.3,3.9,6.4,2.2,9.7c-2.2,4.1-5.1,7.9-8.9,11.5c-7.3,7-16.1,11.6-26.2,13.8
						c-1.3,0.3-2.7,0.5-3.9,0.7c-0.6,0.1-1.2,0.2-1.7,0.3L392.8,776z M392.2,772.5h0.3c0.6-0.1,1.1-0.2,1.7-0.2
						c1.3-0.2,2.5-0.4,3.7-0.6c9.5-2,17.7-6.3,24.5-12.9c3.5-3.4,6.2-6.9,8.2-10.7c1-1.8,0.5-4.1-1.2-5.4c-1.7-1.3-4-1.2-5.7,0.3
						c-0.5,0.5-1,1.2-1.4,1.9l-0.3,0.4c-8.9,13.9-25,20.8-41.2,17.6c-16.2-3.2-28.8-16.2-31.4-32.4c-1.4-9,0-17.6,4.2-25.4
						c3.6-6.6,8.7-11.8,15.7-15.9c1.1-0.6,1.9-1.6,2.2-2.7c0.3-1.1,0.1-2.2-0.4-3.2c-1.3-2.2-3.9-2.9-6.3-1.6
						c-6,3.4-11.1,7.7-15,13.1c-8,10.8-11.1,23-9.3,36.2c1.1,7.9,4,15.1,8.7,21.5c7.8,10.6,18.3,17.1,31.1,19.3
						c0.3,0,0.6,0.1,0.8,0.1c0.8,0.1,1.7,0.2,2.6,0.6h0.2c0.4-0.1,0.8-0.1,0.9-0.1l0,0l0.6,0c0.2,0,0.5,0,0.9,0.1h2.1
						c0.6-0.2,1.1-0.2,1.4-0.1c0.1,0,0.1,0,0.2,0l0.2,0l0.2,0c0,0,0.1,0,0.1,0C391.2,772.4,391.7,772.3,392.2,772.5z"/>
				</g>
			</g>
			<g>
				<g>
					<path class="st1" d="M390.5,776h-5.1l2.4-2.8c0.8-1,1.9-0.9,2.4-0.9c0,0,0.1,0,0.1,0c0,0,0,0,0,0l0.7-0.1l0.5,0.4
						c0.8,0.6,1,1.5,0.6,2.4C391.8,775.6,391.2,776,390.5,776z M389.2,773.2c0,0.1-0.1,0.1-0.1,0.2c-0.4,0.8-0.1,1.6,0.4,2l0.4-0.5
						l-0.7-0.6V773.2z"/>
				</g>
			</g>
			<g>
				<g>
					<path class="st1" d="M395.3,776h-6.6l0-1.7c0-0.1,0-0.3,0-0.4l0.1-1.9l1.8,0.3l0.1,0c0.4,0,1.6-0.1,2.4,0.9L395.3,776z"/>
				</g>
			</g>
			<g>
				<g>
					<path class="st1" d="M385.1,776h-2.6l0.4-2.1c0.2-1,1-1.8,2.4-1.6l0.2,0l0.3,0.1c0.7,0.3,0.9,0.8,1,1.1l0.2,0.7l-0.4,0.7
						C386.4,775.6,385.8,776,385.1,776z M384.9,775.7c0.6,0,1.3-0.4,1.4-1.1l-1.2-0.2L384.9,775.7z M384.8,774.3l-1.2,0.4
						c0.1,0.4,0.4,0.8,0.8,0.9l0.6-1.3L384.8,774.3z M384.6,772.6c-0.4,0.1-0.7,0.4-0.9,0.7l0.9,0.5V772.6z"/>
				</g>
			</g>
			<g>
				<g>
					<path class="st1" d="M385.7,776h-2.2l-0.1-1.8l-0.1-1.9l2.8,0l0.3,0.2c0.7,0.3,0.9,0.8,1,1.1l0.2,0.7l-0.4,0.7
						C387,775.6,386.4,776,385.7,776z M385.1,774.4l-1,0.3c0.1,0.4,0.4,0.8,0.8,0.9l0.2-0.4V774.4z M385.1,772.6
						c-0.4,0.1-0.7,0.4-0.9,0.7l0.9,0.5V772.6z"/>
				</g>
			</g>
			<g>
				<g>
					<path class="st1" d="M388.9,776H384l-0.1-1.8l-0.2-1.6l1.6-0.3c1.3-0.3,2.1,0.5,2.5,1.2L388.9,776z M385.7,774.5l-1.1,0.5
						c0.3,0.6,1,0.9,1.4,0.8L385.7,774.5z"/>
				</g>
			</g>
			<g>
				<g>
					<path class="st1" d="M449.7,761.5c-0.2,0-0.5,0-0.8,0c-2.1-0.2-4.2-1.3-5.5-3l-6.6-8.2c-4.5-5.6-9.1-11.3-13.6-16.9
						c0,0-0.1-0.1-0.1-0.1c0,0-0.1,0-0.3,0c0,0,0,0,0,0c-3.6,0-7.3,0-10.9,0c-7.4,0-15,0-22.5,0.1c0,0-0.1,0-0.1,0
						c-2.5,0-4.7-0.9-6.3-2.5c-1.6-1.6-2.5-3.9-2.4-6.4c0.1-6.2,0.1-12.5,0.1-18.6c0-2.6,0-5.1,0-7.7l0-6.5c0-6.7,0-13.4,0-20.1
						c0-1,0.1-2.2,0.6-3.4c-4.2-1.9-7.2-5.1-8.9-9.4c-1.9-4.8-1.6-10.2,0.9-14.8c2.5-4.5,6.8-7.7,11.9-8.6
						c9.6-1.9,18.5,4.1,20.6,13.8c1.6,7.6-2.7,15.9-9.8,19c0.5,1.1,0.6,2.3,0.6,3.4c0,0.7,0,1.4,0,2.1c0,1.2,0,2.5,0,3.8
						c10,0,20.1,0,29.6,0c4.3,0,7.5,2.5,8.3,6.5c0.4,2.2-0.1,4.5-1.6,6.3c-1.5,1.8-3.7,2.9-6.1,2.9c-2.9,0-5.9,0-8.8,0
						c-1.3,0-2.5,0-3.8,0l-4.6,0c-4.3,0-8.7,0-13,0c0,8.1,0,16.2,0,24.3c6.3,0,12.7,0,19,0c3.6,0,7.2,0,10.8,0c0,0,0,0,0,0
						c2.9,0,5.2,1.1,7,3.3c2,2.5,4.1,5.1,6.1,7.6c3.7,4.6,7.3,9.1,11,13.7c0.6-0.6,1.3-1.2,2-1.7c3.3-2.6,8-2.3,10.8,0.7
						c2.9,3.1,2.9,7.7,0,10.6c-2.9,2.9-5.8,5.6-8.7,8C453.1,760.9,451.5,761.5,449.7,761.5z M422.9,729.8c0.8,0,2.1,0.1,3.1,1.4
						c4.5,5.6,9,11.3,13.6,16.9l6.6,8.2c0.8,1,1.9,1.6,3.2,1.7c1.1,0.1,2.1-0.2,3-0.9c2.8-2.4,5.7-5,8.4-7.8c1.6-1.6,1.5-4.1,0-5.8
						c-1.6-1.7-4.2-1.8-6-0.4c-0.8,0.6-1.4,1.2-2,1.8c-0.5,0.5-1.2,1.3-2.3,1.2c-1.2,0-2-1-2.3-1.4c-3.7-4.7-7.5-9.4-11.3-14
						c-2-2.5-4.1-5.1-6.1-7.6c-1.1-1.4-2.5-2-4.3-2c0,0,0,0,0,0c-3.6,0-7.2,0-10.8,0c-6.5,0-13,0-19.5,0c-0.7,0-1.5-0.1-2.2-0.7
						c-0.7-0.7-0.7-1.5-0.7-2.2c0-8.3,0-16.8,0-25.2c0-0.5,0-1.5,0.7-2.2c0.7-0.7,1.5-0.7,2.2-0.7c4.5,0,9.1,0,13.5,0l4.6,0
						c1.3,0,2.5,0,3.8,0c2.9,0,5.9,0,8.8,0c1.4,0,2.6-0.6,3.5-1.7c0.8-1,1.1-2.3,0.9-3.5c-0.5-2.4-2.2-3.7-4.9-3.7
						c-9.7,0-20,0-30.2,0c-0.5,0-1.5,0-2.2-0.8c-0.7-0.7-0.7-1.6-0.7-2.2c0.1-1.4,0-2.9,0-4.3c0-0.7,0-1.4,0-2.1
						c0-0.9-0.1-1.7-0.4-2.1c-0.2-0.3-0.9-1.3-0.6-2.5c0.3-1.1,1.3-1.5,2.1-1.8c5.8-2.4,9.5-9.2,8.2-15.3c-1.7-8-8.7-12.6-16.5-11.1
						c-4.1,0.8-7.5,3.3-9.5,6.9c-2,3.6-2.3,8-0.7,11.8c1.5,3.7,4.1,6.4,7.8,7.9c0.4,0.1,1.3,0.5,1.7,1.6c0.3,1-0.2,1.9-0.4,2.2
						c-0.4,0.6-0.5,1.3-0.5,2.4c0,6.7,0,13.4,0,20.1l0,6.5c0,2.6,0,5.1,0,7.7c0,6.1,0,12.4-0.1,18.7c0,1.6,0.5,2.9,1.4,3.9
						c0.9,0.9,2.3,1.5,3.8,1.5c0,0,0.1,0,0.1,0c7.5-0.1,15.1-0.1,22.5-0.1C415.6,729.8,419.2,729.8,422.9,729.8
						C422.9,729.8,422.9,729.8,422.9,729.8z"/>
				</g>
			</g>
		</g>
		<g class="st2">
			<g>
				<path class="st1" d="M791.3,636.4c-0.4,0-0.7,0-1.1,0c-4.5-0.3-8.5-2-11.6-5.2c-2.5-2.5-4.1-5.4-4.9-8.7l-15.3,11.2
					c-3,2.2-5.1,1.9-7.3-1.1c-1.5-2-3-4.1-4.4-6.1c-3.8-5.2-7.7-10.6-11.6-15.9c-0.9-1.2-1.2-2.7-0.9-4.1c0.3-1.2,1.3-2.2,2.5-2.8
					c1.3-0.5,2.5-0.2,3.3,0c2.5,0.7,4.9,0.4,7.2-0.8c2.3-1.2,4-3.5,4.6-6.3c0.6-2.9,0-5.7-1.7-7.8c-3.4-4.2-9.3-4.9-13.5-1.6
					c-2.1,1.6-3.3,3.9-3.5,6.6c0,0.2,0,0.4,0,0.6c0,0.2,0,0.4,0,0.6c-0.2,2-1.3,3.4-3.2,3.9c-1.8,0.5-3.4-0.1-4.6-1.7
					c-1.3-1.8-2.6-3.6-3.9-5.3l-4.2-5.8c-2.7-3.7-5.4-7.5-8.2-11.2c-2.1-2.8-1.7-5,1.1-7.1c3.9-2.9,7.9-5.7,11.8-8.6l3.6-2.6
					c-3.8-2.3-6.4-5.6-7.8-9.7c-1.3-3.8-1.3-7.7,0-11.6c2.5-7.4,9.7-12.4,17.6-12.1c4.6,0.1,8.7,1.8,12,5.1c2.5,2.4,4.2,5.4,5,8.9
					l6-4.4c3.1-2.3,6.3-4.6,9.4-6.9c2.9-2.1,5.1-1.8,7.2,1.1c3.1,4.3,6.3,8.6,9.4,12.9l1.8,2.5c5.6-8.2,13.3-10.7,22.6-7.2
					c6.9,2.6,11.4,10.1,10.8,17.7c-0.7,8.2-5.1,13.3-14,16.1c2.3,3.1,4.6,6.3,6.8,9.4l4.4,6c2.2,3,1.9,5.2-1.2,7.4L800.5,603
					c8.3,5.6,10.8,13.4,7.2,22.7C805.2,632.1,798.5,636.4,791.3,636.4z M776.4,616.3l0.3,3c0.4,3.8,1.8,6.9,4.4,9.5
					c2.5,2.5,5.7,3.9,9.4,4.2c6.2,0.4,12-3.1,14-8.5c3.3-8.5,0.7-15-7.9-19.8l-2.2-1.2l1.9-1.6c0.1-0.1,0.2-0.2,0.3-0.2l17.2-12.6
					c1.5-1.1,1.5-1.1,0.4-2.6l-4.4-6c-2.5-3.5-5-6.9-7.6-10.4c0,0-0.1-0.1-0.1-0.1c-0.3-0.3-0.8-0.9-0.9-1.9l-0.1-1.4l1.4-0.3
					c8.9-2.2,13.1-6.4,13.7-13.7c0.5-6.1-3.2-12.2-8.6-14.2c-8.5-3.2-15-0.6-19.8,7.9l-1.3,2.4l-4.9-6.7c-3.1-4.3-6.3-8.6-9.4-12.9
					c-1-1.3-1-1.4-2.4-0.4c-3.1,2.3-6.3,4.6-9.4,6.9l-10.7,7.8l-0.3-3c-0.4-3.9-1.8-7-4.4-9.6c-2.7-2.6-5.9-4-9.7-4.1
					c-6.4-0.2-12.3,3.8-14.2,9.8c-1.1,3.2-1.1,6.4,0,9.4c1.4,4.1,4.2,7.1,8.5,9l2.7,1.2l-8.3,6c-3.9,2.9-7.9,5.7-11.8,8.6
					c-1.3,1-1.3,1-0.4,2.3c2.7,3.7,5.4,7.5,8.2,11.2l4.2,5.8c1.3,1.8,2.6,3.6,3.9,5.4c0.4,0.5,0.6,0.5,0.9,0.4
					c0.4-0.1,0.6-0.3,0.6-0.8c0-0.2,0-0.3,0-0.5c0-0.2,0-0.5,0-0.7c0.3-3.7,1.9-6.8,4.8-9c5.7-4.5,13.8-3.6,18.4,2.2
					c2.3,2.9,3.2,6.8,2.4,10.7c-0.8,3.8-3.2,7-6.5,8.7c-3.1,1.6-6.4,1.9-9.7,1c-0.5-0.1-0.9-0.2-1.1-0.1c-0.3,0.1-0.4,0.3-0.5,0.5
					c-0.1,0.3,0,0.7,0.3,1.1c3.9,5.3,7.8,10.7,11.6,15.9c1.5,2,3,4.1,4.4,6.1c0.8,1,1,1.1,1.1,1.1c0,0,0.3,0,1.4-0.8L776.4,616.3z"
					/>
			</g>
		</g>
		<g class="st2">
			<g>
				<path class="st1" d="M750.2,341.6c-7.3,0-14.1-5.2-16.4-12.5c-2.4-7.8-0.2-14.3,7-20.1c-3.5-2.2-6.9-4.3-10.4-6.5l-5.8-3.6
					c-3.2-2-3.7-4.1-1.7-7.3l10-16c-9.8-2.1-15-8.4-15.1-18.4c-0.1-7.3,4.9-14,12.2-16.5c4.3-1.4,8.6-1.3,12.7,0.5
					c3.2,1.4,5.8,3.4,7.8,6.3l10-16c2-3.2,4.1-3.6,7.2-1.7c2.1,1.3,4.3,2.7,6.4,4c5.4,3.4,11.1,7,16.7,10.4c1.3,0.8,2.2,2.1,2.3,3.5
					c0.1,1.3-0.3,2.6-1.3,3.5c-1,1-2.2,1.1-3.1,1.2c-2.6,0.3-4.7,1.4-6.4,3.4c-1.7,2-2.4,4.7-2,7.6c0.5,2.9,2.1,5.3,4.5,6.6
					c4.7,2.7,10.5,1.1,13.1-3.5c1.3-2.3,1.6-4.8,0.8-7.5c-0.1-0.2-0.1-0.4-0.2-0.5c-0.1-0.2-0.1-0.4-0.2-0.6c-0.6-1.9,0-3.6,1.5-4.8
					c1.5-1.1,3.3-1.1,4.9-0.1c1.8,1.1,3.6,2.3,5.4,3.4l5.4,3.4c4.2,2.6,8.4,5.2,12.5,7.9c3,1.9,3.5,4,1.6,7c-2.5,4-5,8-7.5,12
					l-2.6,4.2c4.4,0.7,8,2.8,10.9,6.1c2.6,3,4,6.6,4.3,10.8c0.5,7.8-4.4,15.1-11.9,17.8c-4.4,1.6-8.7,1.5-13-0.2
					c-3.2-1.3-5.9-3.5-7.9-6.4l-4.2,6.7c-2,3.1-3.9,6.3-5.9,9.4c-1.9,3.1-4,3.6-7.1,1.7c-4.6-2.9-9.1-5.7-13.7-8.6l-2.4-1.5
					c-2.1,9.7-8.4,14.9-18.3,15.1C750.4,341.6,750.3,341.6,750.2,341.6z M736,243.1c-1.6,0-3.1,0.3-4.7,0.8c-5.9,2-10,7.4-9.9,13.1
					c0.1,9.2,4.9,14.2,14.7,15.5l2.5,0.3l-1.1,2.2c-0.1,0.2-0.1,0.2-0.1,0.3L726,293.4c-1,1.6-1,1.6,0.6,2.5l5.8,3.6
					c3.8,2.4,7.6,4.8,11.4,7.1c0,0,0.1,0.1,0.2,0.1c0.4,0.2,1.1,0.6,1.5,1.4l0.6,1.3l-1.2,0.8c-7.4,5.4-9.8,10.8-7.6,17.8
					c1.8,5.7,7.4,10,13.1,10c0.1,0,0.1,0,0.2,0c9.1-0.2,14.1-5,15.4-14.7l0.3-2.7l6.9,4.3c4.6,2.9,9.1,5.7,13.7,8.6
					c1.4,0.9,1.4,0.9,2.3-0.6c2-3.1,3.9-6.3,5.9-9.4l7.3-11.7l1.4,2.7c1.8,3.5,4.3,5.9,7.7,7.3c3.4,1.4,7,1.5,10.5,0.2
					c6-2.2,10-8.1,9.6-14.4c-0.2-3.4-1.4-6.3-3.5-8.7c-2.8-3.3-6.5-5-11.3-5.2l-3-0.1l5.7-9.1c2.5-4,5-8,7.5-12
					c0.9-1.4,0.8-1.4-0.5-2.2c-4.2-2.6-8.4-5.2-12.5-7.8l-5.4-3.4c-1.8-1.1-3.6-2.3-5.4-3.4c-0.5-0.3-0.7-0.2-1,0
					c-0.3,0.2-0.4,0.4-0.3,1c0.1,0.2,0.1,0.3,0.2,0.5c0.1,0.2,0.2,0.4,0.2,0.7c1.1,3.6,0.7,7-1.1,10.2c-3.6,6.3-11.5,8.4-17.8,4.8
					c-3.3-1.8-5.5-5.1-6.2-9.1c-0.7-3.9,0.4-7.7,2.8-10.4c2.3-2.6,5.2-4.2,8.6-4.6c0.5-0.1,0.9-0.1,1-0.3c0.2-0.2,0.3-0.4,0.3-0.6
					c0-0.3-0.3-0.7-0.7-0.9c-5.6-3.4-11.2-7-16.7-10.4c-2.1-1.3-4.3-2.7-6.4-4c-1.1-0.7-1.4-0.6-1.4-0.6c0,0-0.3,0.1-1,1.2l-13.2,21
					l-1.4-2.7c-1.8-3.4-4.2-5.8-7.6-7.2C739.7,243.5,737.9,243.1,736,243.1z"/>
			</g>
		</g>
		<g class="st2">
			<g>
				<path class="st1" d="M270.7,672.1c-2.1,0-4.1-0.3-6.2-0.9c-9.2-2.9-14-9.4-14.8-20.5c-4.5,2-9.1,3.9-13.6,5.9l-7.5,3.3
					c-3.9,1.7-6.1,0.8-7.8-3.1l-9.1-21c-8.5,8.3-18.2,9.2-28,2.7c-7-4.7-10.2-14-7.7-22.6c1.5-5.1,4.5-9.1,8.9-11.9
					c3.6-2.3,7.4-3.4,11.7-3.3l-2.3-5.2c-2.3-5.3-4.5-10.5-6.8-15.8c-1.7-3.9-0.8-6.1,3-7.7c2.7-1.2,5.5-2.4,8.2-3.5
					c7-3,14.3-6.1,21.3-9.3c1.6-0.7,3.3-0.7,4.7,0.1c1.3,0.7,2.1,1.9,2.4,3.4c0.3,1.5-0.4,2.8-0.8,3.6c-1.5,2.8-1.8,5.7-1,8.8
					c0.8,3.1,3.1,5.7,6.2,7.2c3.2,1.5,6.8,1.5,9.7,0.1c5.9-2.9,8.4-9.7,5.5-15.6c-1.4-2.9-3.7-4.9-7-5.9c-0.2-0.1-0.4-0.1-0.7-0.2
					c-0.2-0.1-0.4-0.1-0.7-0.2c-2.1-0.7-3.4-2.3-3.4-4.4c-0.1-2,1-3.7,3-4.5c2.3-1,4.6-2,6.9-3l7-3c5.4-2.3,10.7-4.6,16.1-7
					c3.6-1.6,5.9-0.7,7.5,3c2.2,5.1,4.4,10.2,6.6,15.3l2.5,5.8c3.7-3.9,8.1-6.2,13.4-6.8c4.6-0.5,9.1,0.5,13.2,3
					c7.8,4.7,11.6,14.2,9.3,23.2c-1.4,5.2-4.3,9.4-8.8,12.3c-3.6,2.3-7.5,3.5-11.8,3.4l3.9,9.1c1.7,4,3.5,8,5.2,12.1
					c1.6,3.7,0.7,6-3,7.6c-5.7,2.5-11.4,4.9-17,7.4l-4.1,1.8c8.2,8.5,9.2,18.2,2.7,27.9C283.8,668.9,277.3,672.1,270.7,672.1z
					 M251.2,646.5c0.1,0,0.3,0,0.5,0l1.4,0.2l0,1.4c0.2,11,4.1,17.1,12.5,19.7c7.1,2.2,15.1-0.4,19-6.3c6.1-9.1,4.7-17.4-4-25.3
					l-2-1.8l8.9-3.9c5.7-2.5,11.4-4.9,17-7.4c2-0.9,2.1-1.1,1.2-3.1c-1.7-4-3.5-8-5.2-12.1l-6.3-14.5l3,0.4
					c4.7,0.6,8.8-0.3,12.4-2.7c3.7-2.4,6.2-5.9,7.4-10.3c1.9-7.5-1.2-15.5-7.7-19.4c-3.5-2.1-7.2-3-11.1-2.6
					c-5.2,0.6-9.4,3.1-12.8,7.6l-1.8,2.4l-4.8-11.2c-2.2-5.1-4.4-10.2-6.6-15.3c-0.8-1.9-1-2-2.9-1.2c-5.4,2.3-10.7,4.6-16.1,7l-7,3
					c-2.3,1-4.6,2-6.9,3c-0.8,0.3-0.9,0.7-0.9,1.2c0,0.6,0.2,1,1,1.2c0.2,0.1,0.4,0.1,0.6,0.2c0.3,0.1,0.5,0.1,0.8,0.2
					c4.2,1.3,7.2,3.9,9,7.7c3.7,7.6,0.5,16.5-7.1,20.2c-3.9,1.9-8.5,1.9-12.7-0.1c-4.1-1.9-7.1-5.4-8.1-9.5c-1-3.9-0.6-7.7,1.3-11.3
					c0.3-0.6,0.5-1,0.5-1.4c-0.1-0.4-0.3-0.7-0.6-0.9c-0.4-0.2-1-0.2-1.6,0c-7.1,3.1-14.4,6.3-21.4,9.3c-2.7,1.2-5.5,2.4-8.2,3.5
					c-2.1,0.9-2.1,1-1.2,3.2c2.3,5.3,4.5,10.5,6.8,15.8l4.6,10.6l-3-0.4c-4.6-0.6-8.6,0.3-12.3,2.6c-3.7,2.3-6.1,5.7-7.4,9.9
					c-2.1,7.2,0.5,14.9,6.3,18.8c9.2,6.1,17.5,4.8,25.4-4l1.6-1.8l1.2,2.2c0.1,0.2,0.1,0.2,0.2,0.3l10,23.2c0.9,2.2,1.1,2.2,3.3,1.3
					l7.5-3.3c4.8-2.1,9.7-4.2,14.5-6.3c0.1,0,0.1-0.1,0.2-0.1C249.8,646.8,250.4,646.5,251.2,646.5z"/>
			</g>
		</g>
		<g class="st2">
			<g>
				<path class="st1" d="M456.2,389.2c-1.8,0-3.1-1.1-4.1-3.4c-2.2-4.9-4.4-9.9-6.6-14.8l-1.7-3.8c-3.2,3.5-7.2,5.5-11.8,6.1
					c-4.2,0.5-8.2-0.4-12-2.6c-7.1-4.1-10.6-12.7-8.6-20.8c1.2-4.7,3.8-8.5,7.8-11.2c3.1-2.1,6.6-3.2,10.4-3.2l-3.2-7.2
					c-1.7-3.8-3.4-7.5-5.1-11.3c-1.5-3.4-0.7-5.6,2.7-7.1c5-2.2,9.9-4.5,14.9-6.7l3.6-1.6c-7.4-7.6-8.3-16.1-2.6-25
					c4.2-6.5,12.9-9.6,20.6-7.2c8.3,2.5,12.6,8.2,13.5,18.1c3.9-1.7,7.8-3.5,11.7-5.2l6.8-3c3.6-1.6,5.6-0.8,7.3,2.8l8.2,18.4
					c7.6-7.4,16.2-8.3,25.1-2.5c6.4,4.2,9.4,12.5,7.2,20.3c-1.3,4.6-3.9,8.3-7.9,10.8c-3.1,2-6.5,3.1-10.2,3.1l8.2,18.4
					c1.6,3.5,0.8,5.6-2.7,7.2c-2.4,1.1-4.9,2.2-7.3,3.3c-6.2,2.8-12.6,5.6-18.9,8.5c-1.5,0.7-3,0.7-4.3,0c-1.2-0.6-2-1.8-2.3-3.1
					c-0.3-1.4,0.3-2.6,0.7-3.3c1.3-2.5,1.5-5,0.8-7.7c-0.7-2.7-2.8-5-5.6-6.3c-2.9-1.3-6-1.3-8.5,0c-5.2,2.6-7.2,8.6-4.7,13.8
					c1.3,2.5,3.3,4.3,6.2,5.1c0.2,0.1,0.4,0.1,0.6,0.2c0.2,0.1,0.4,0.1,0.6,0.2c2,0.6,3.2,2.1,3.3,4.1c0.1,1.9-0.9,3.5-2.7,4.3
					c-2.1,0.9-4.2,1.9-6.2,2.8l-6.3,2.8c-4.7,2.1-9.4,4.2-14.1,6.3C458,388.9,457,389.2,456.2,389.2z M444.6,360.5l4.1,9.1
					c2.2,4.9,4.4,9.9,6.6,14.8c0.7,1.6,0.8,1.7,2.4,0.9c4.7-2.1,9.4-4.2,14.1-6.3l6.3-2.8c2.1-0.9,4.2-1.9,6.3-2.8
					c0.6-0.3,0.7-0.6,0.7-0.9c0-0.4-0.2-0.7-0.8-0.9c-0.2-0.1-0.3-0.1-0.5-0.1c-0.2-0.1-0.5-0.1-0.7-0.2c-3.8-1.2-6.6-3.5-8.3-6.9
					c-3.4-6.9-0.7-14.9,6.2-18.4c3.5-1.8,7.7-1.8,11.5-0.1c3.8,1.7,6.5,4.8,7.5,8.5c1,3.6,0.6,7-1.1,10.2c-0.3,0.5-0.4,0.9-0.4,1.1
					c0.1,0.3,0.2,0.5,0.5,0.7c0.3,0.2,0.8,0.2,1.3-0.1c6.3-2.9,12.7-5.8,19-8.5c2.4-1.1,4.9-2.2,7.3-3.3c1.8-0.8,1.8-0.8,0.9-2.6
					l-10.6-23.8l3,0.4c4.1,0.5,7.6-0.3,10.9-2.4c3.2-2.1,5.4-5.1,6.4-8.8c1.8-6.4-0.6-13.2-5.8-16.5c-8.2-5.3-15.5-4.1-22.4,3.8
					l-1.6,1.9l-1.2-2.2c-0.1-0.2-0.1-0.2-0.2-0.3l-9.2-20.6c-0.8-1.8-0.9-1.9-2.7-1l-6.8,3c-4.3,1.9-8.5,3.8-12.8,5.7
					c-0.1,0-0.1,0.1-0.2,0.1c-0.4,0.2-1.1,0.6-2,0.5l-1.4-0.2l-0.1-1.4c-0.3-9.7-3.8-15-11.2-17.3c-6.2-1.9-13.4,0.6-16.7,5.8
					c-5.3,8.1-4,15.4,3.9,22.3l2,1.8l-8.4,3.8c-5,2.2-9.9,4.5-14.9,6.7c-1.7,0.7-1.7,0.8-0.9,2.5c1.7,3.8,3.4,7.5,5.1,11.3l5.6,12.6
					l-3-0.4c-4.1-0.5-7.7,0.3-11,2.5c-3.3,2.2-5.4,5.3-6.4,9.2c-1.6,6.6,1.3,13.6,7,17c3.1,1.8,6.4,2.5,9.8,2.1
					c4.6-0.6,8.3-2.8,11.3-6.9L444.6,360.5z"/>
			</g>
		</g>
		<g class="st2">
			<g>
				<path class="st3" d="M56.3,185.3"/>
			</g>
		</g>
		<g class="st2">
			<g>
				<path class="st1" d="M432,181.6c-1-5.8-1.1-11.6-0.3-17.2c2.4-15.9,11.6-27.4,18.9-34.2c0.7-0.7,1.4-1.3,2.1-1.8l2.8,3.3
					c-0.6,0.5-1.2,1.1-1.9,1.7c-6.8,6.3-15.4,17-17.6,31.7c-0.8,5.2-0.7,10.5,0.2,15.8L432,181.6z"/>
			</g>
		</g>
		<g class="st2">
			<g>
				<path class="st1" d="M676.7,242.8c-2.1-7.3-3.2-14.7-3.2-22.2c-0.2-21.1,7.6-37.9,14.2-48.3c0.6-1,1.2-1.9,1.9-2.8l3.6,2.5
					c-0.6,0.9-1.2,1.8-1.8,2.7c-6.3,9.9-13.8,25.9-13.6,45.9c0.1,7.1,1.1,14.1,3.1,21L676.7,242.8z"/>
			</g>
		</g>
		<g class="st2">
			<g>
				<path class="st1" d="M454.3,652.5l-4.1-1.4c2.5-7.1,5.9-13.9,10.1-20c12-17.4,28.1-26.6,39.4-31.3c1.1-0.4,2.1-0.8,3.2-1.2
					l1.5,4.1c-1,0.4-2,0.8-3,1.2c-10.8,4.4-26.1,13.2-37.5,29.7C459.9,639.4,456.7,645.8,454.3,652.5z"/>
			</g>
		</g>
		<g class="st2">
			<g>
				<path class="st1" d="M401.3,836.4c-1.6,0-3.1,0-4.6-0.1c-21.1-1.2-37.3-10.1-47.2-17.4c-0.9-0.7-1.8-1.3-2.7-2.1l2.7-3.4
					c0.9,0.7,1.7,1.3,2.6,2c9.4,6.9,24.9,15.5,44.9,16.6c7,0.4,14.2-0.2,21.2-1.7l0.9,4.2C413.2,835.8,407.2,836.4,401.3,836.4z"/>
			</g>
		</g>
		<g class="st2">
			<g>
				<path class="st1" d="M131.9,642.8c-0.4-1-0.8-2-1.2-3c-4.7-10.7-13.8-25.8-30.6-36.8c-5.9-3.9-12.4-6.9-19.2-9.2l1.3-4.1
					c7.2,2.3,14,5.6,20.2,9.7c17.7,11.6,27.3,27.4,32.2,38.7c0.5,1,0.9,2.1,1.3,3.1L131.9,642.8z"/>
			</g>
		</g>
		<g class="st2">
			<g>
				<path class="st1" d="M120.5,756.6l-4.2-1c1.8-7.3,4.5-14.4,8.2-20.9c10.2-18.5,25.4-29.2,36.2-34.9c1-0.5,2-1,3-1.5l1.9,3.9
					c-1,0.5-1.9,1-2.9,1.5c-10.4,5.5-24.8,15.7-34.5,33.2C124.8,743,122.2,749.7,120.5,756.6z"/>
			</g>
		</g>
		<g class="st2">
			<g>
				<path class="st1" d="M132.3,461.1c-5.1-5.5-9.5-11.7-12.9-18.3c-9.8-18.7-10.4-37.2-9.2-49.5c0.1-1.1,0.2-2.3,0.4-3.4l4.3,0.6
					c-0.1,1.1-0.3,2.1-0.4,3.2c-1.1,11.7-0.5,29.3,8.7,47.1c3.3,6.3,7.4,12.1,12.3,17.4L132.3,461.1z"/>
			</g>
		</g>
		<g class="st2">
			<g>
				<path class="st1" d="M672.2,630.9c-3.2-4.3-5.5-9-7.1-14c-4.3-14-1.1-27,2.4-35.5c0.4-0.9,0.7-1.6,1-2.3l3.1,1.4
					c-0.3,0.6-0.6,1.4-1,2.2c-3.3,8-6.3,20.2-2.3,33.2c1.4,4.6,3.6,8.9,6.6,12.9L672.2,630.9z"/>
			</g>
		</g>
		<g class="st2">
			<g>
				<path class="st1" d="M371.3,410.5l-3.5-0.2c0.2-5-0.3-9.8-1.6-14.4c-3.7-13.1-12.7-21.8-19.6-26.8c-0.7-0.5-1.4-1-2-1.4l1.9-2.9
					c0.6,0.4,1.3,0.9,2.1,1.4c7.4,5.3,17,14.6,20.9,28.6C370.9,400,371.5,405.2,371.3,410.5z"/>
			</g>
		</g>
		<g class="st2">
			<g>
				<path class="st1" d="M531.5,465.7l-2.5-2.4c5.5-5.5,9.7-11.7,12.7-18.5c8.4-19.2,4.7-38.9,0.1-52.1c-0.4-1.2-0.9-2.4-1.4-3.7
					l3.2-1.3c0.5,1.3,1,2.5,1.4,3.8c4.8,13.7,8.6,34.4-0.2,54.6C541.8,453.3,537.2,459.9,531.5,465.7z"/>
			</g>
		</g>
		<g class="st2">
			<g>
				<path class="st1" d="M551,717.7c-1.2,0-2.4-0.1-3.6-0.2c-12.9-0.9-30.4-5-40.5-19.1c-3.6-5-5.9-10.9-7-17.5l3.4-0.6
					c1,6.1,3.2,11.5,6.4,16.1c9.3,13,25.7,16.8,37.9,17.7c1.1,0.1,2.3,0.1,3.4,0.2L551,717.7z"/>
			</g>
		</g>
		<g class="st2">
			<g>
				<path class="st1" d="M27,401.1c0-1.2,0-2.3,0-3.4c0.1-12.4,2.9-29.2,15.6-38.5c4.5-3.3,9.9-5.4,16.1-6.2l0.4,3.4
					c-5.6,0.7-10.5,2.6-14.6,5.5c-11.6,8.4-14.1,24.1-14.2,35.7c0,1.1,0,2.2,0,3.3L27,401.1z"/>
			</g>
		</g>
		<g class="st2">
			<g>
				<path class="st1" d="M182.1,325.6c-6.6-4.4-12.1-9.7-16.4-15.9c-12.1-17.5-11.9-37.9-9.6-52c0.2-1.3,0.5-2.6,0.7-3.9l3.4,0.7
					c-0.3,1.2-0.5,2.5-0.7,3.8c-2.2,13.4-2.4,32.9,9,49.4c4,5.8,9.2,10.9,15.5,15L182.1,325.6z"/>
			</g>
		</g>
		<g class="st2">
			<g>
				<path class="st1" d="M299.7,112.8c-6.8,0-13.9-1.4-20.3-5.2c-5.2-3-9.6-7.4-13.2-13l2.9-1.9c3.3,5.1,7.3,9.1,12,11.8
					c13.4,7.9,29.7,4.5,41,0.2c1-0.4,2.1-0.8,3.2-1.3l1.3,3.2c-1.1,0.5-2.2,0.9-3.3,1.3C316.7,110.5,308.3,112.8,299.7,112.8z"/>
			</g>
		</g>
		<g class="st2">
			<g>
				<path class="st1" d="M384.8,281.1l-3.2-1.4c0.7-1.4,1.3-2.9,2-4.2c7.6-15.2,21.3-34.4,43.7-40c7.9-2,16.4-2.1,25.1-0.4l-0.7,3.4
					c-8.2-1.7-16.1-1.5-23.5,0.3c-21.1,5.3-34.2,23.7-41.4,38.2C386.1,278.3,385.4,279.7,384.8,281.1z"/>
			</g>
		</g>
		<g class="st2">
			<g>
				<g>
					<path class="st1" d="M184.2,491.5c-2.5,0-4.9-0.5-7.5-1.6c-2.2-1-4.3-2.3-6.1-3.9c-1.5-1.3-2.7-2.8-3.7-4.4
						c-1.7-2.6-2.8-5.5-3.3-8.6c-0.1-0.7-0.1-1.5-0.1-2.1c-0.1-32.1-0.1-64.7,0-96.8c0-2.2,0.5-4.5,1.5-7.1c0.9-2.1,2-4,3.5-5.7
						c1.5-1.7,3.2-3.2,5-4.4c2.4-1.6,5.1-2.6,7.9-3.1c0.7-0.1,1.3-0.1,2-0.2l0.9,0c0,0,0.1,0,0.1,0l0.1,0l96.2,0c0.1,0,0.1,0,0.2,0
						h0.4c2.2,0,4.5,0.5,7,1.5c1.9,0.8,3.7,1.9,5.3,3.2c2.1,1.8,3.9,3.8,5.3,6.2c1.3,2.3,2.1,4.5,2.5,6.8c0.2,0.9,0.2,1.8,0.2,2.6
						v0.4c0,0.1,0,0.1,0,0.2l0,0.1l0,96.1c0,0,0,0.1,0,0.1v0.4c0.1,2.3-0.4,4.6-1.6,7.3c-0.8,1.9-2,3.7-3.4,5.4
						c-1.8,2.1-3.9,3.9-6.4,5.2c-2,1.1-4.1,1.9-6.4,2.3c-0.7,0.1-1.4,0.2-2,0.2l-0.3,0c-0.2,0-0.5,0-0.7,0h-96.3
						C184.3,491.5,184.2,491.5,184.2,491.5z M183.8,356l-0.4,0c-0.6,0-1.1,0-1.6,0.1c-2.5,0.5-4.8,1.4-6.9,2.8
						c-1.7,1.1-3.2,2.4-4.5,3.9c-1.3,1.5-2.3,3.2-3.1,5c-0.9,2.3-1.4,4.2-1.3,6.1c-0.1,32.1-0.1,64.7,0,96.8c0,0.6,0,1.2,0.1,1.7
						c0.4,2.7,1.4,5.2,2.9,7.5c0.9,1.4,2,2.7,3.3,3.9c1.6,1.4,3.4,2.6,5.4,3.5c2.3,1,4.4,1.5,6.6,1.4h96.3c0.2,0,0.4,0,0.6,0l0.4,0
						c0.6,0,1.1,0,1.6-0.1c2-0.4,3.8-1.1,5.6-2c2.2-1.2,4.1-2.7,5.6-4.6c1.3-1.5,2.3-3.1,3-4.8c1-2.3,1.5-4.3,1.4-6.2l0-0.5l0,0
						c0-0.1,0-0.3,0-0.5v-95.1c-0.1-0.3,0-0.5,0-0.6l0-0.1l0,0v-0.4c0-0.7,0-1.4-0.1-2.1c-0.3-2-1.1-3.9-2.2-5.9
						c-1.2-2.1-2.8-3.9-4.7-5.5c-1.4-1.2-3-2.1-4.7-2.8c-2.1-0.9-4-1.3-5.9-1.3l-0.5,0c-0.1,0-0.3,0-0.6,0h-95.2
						c-0.2,0.1-0.4,0-0.6,0l-0.1,0H183.8z"/>
				</g>
			</g>
			<g>
				<g>
					<path class="st1" d="M251.3,484.3c-0.1,0-0.1,0-0.2,0c-0.1,0-0.3,0-0.4,0c-0.4,0-0.8,0-1.3-0.1c-1.3-0.3-2.3-1.3-2.6-2.7
						c-0.2-0.7-0.2-1.4-0.1-1.9c0.1-1.5,0.2-3.1,0.5-5.1c0.2-1.8,0.4-3.5,0.6-5.3l0.7-6c0.2-2,0.5-4,0.7-6c0.1-0.6,0.1-1.2,0.2-1.8
						l0-0.5c-0.5,0.8-1,1.6-1.5,2.4c-4.5,7.6-8.6,14.9-12.3,22c-0.1,0.2-0.2,0.4-0.3,0.5c-0.6,1-1.5,1.6-2.6,1.7
						c-0.6,0-1.4,0.1-2.2,0c-0.7-0.1-1.3-0.4-1.7-0.9c-1.1-1.1-1.8-2.3-2-3.7c-0.1-0.7,0-1.4,0.2-2c1.7-3.7,3.3-7.4,5-11.1
						c2-4.5,4.1-9.2,6.2-13.7c0.4-0.8,0.7-1.6,0.8-2.4c0,0,0-0.1,0-0.1c0,0,0,0,0,0c-0.3,0.2-0.7,0.4-1,0.6l-0.7,0.4
						c0,0-0.1,0.1-0.1,0.1l-0.1,0.1l-4.5,4.6c-2.5,2.5-4.9,5.1-7.4,7.6c-1.3,1.4-3,3-4.7,4.6c-0.5,0.5-1.1,1-1.6,1.5l-0.8,0.7
						c-1.4,1.2-2.7,1.2-4.1,0c-0.5-0.4-1-0.9-1.4-1.4c-1.1-1.4-1.4-3-0.6-4.7c0.1-0.3,0.3-0.5,0.4-0.7c2.6-3.1,5.1-6.4,7.5-9.5
						l0.2-0.2c4-5.2,7.2-9.6,10.3-14.2c1.9-2.8,3.4-5.6,4.6-8.3c0.6-1.3,0.9-2.5,1-3.6c0-0.4,0-0.7-0.1-1c-0.1-0.7-0.5-1.1-1.2-1.4
						c-0.5-0.2-1-0.3-1.6-0.3c-0.4,0-0.8,0-1.2,0l-0.5,0l0,0c-1.9-0.1-3.5,0.1-5.5,0.4c-2.2,0.3-4.6,0.2-7.2-0.3
						c-1.6-0.3-2.9-1.2-3.8-1.9c-0.4-0.3-0.8-0.7-1.1-1.1c-0.3-0.4-0.5-0.9-0.6-1.3c-0.3-1.6,0.4-2.7,1.9-3.1
						c0.7-0.2,1.4-0.3,1.9-0.3l0.3,0c0.9-0.1,1.8-0.1,2.7-0.2c0.5,0,0.9-0.1,1.2-0.3c0.8-0.5,1.6-0.7,2.4-0.9
						c0.2-0.1,0.4-0.1,0.7-0.2c3.2-1,5.8-2,8.1-3c0.7-0.3,1.5-0.7,2.2-1.2c0.5-0.3,1-0.6,1.5-0.8c4.8-2.4,9.1-4.3,13.4-5.8
						c1.4-0.5,2.9-0.9,4.5-1c0.2,0,0.5-0.1,0.9-0.2c1.7-0.5,3.4-0.5,5-0.4c0.3,0,0.7,0,1,0.1c1.2,0.2,2.4,0.7,3.4,1.7
						c0.5,0.4,0.9,0.9,1.5,1.6c2.8,3.2,6.3,5.7,10.3,7.5c0.5,0.2,0.9,0.5,1.3,1c1.1,1.5,1.9,3.3,2.3,5.3c0.4,2.1,0.3,4.4-0.2,6.8
						c-0.1,0.4-0.2,0.7-0.4,1c-0.1,0.2-0.2,0.3-0.2,0.5c-1.1,4.2-2.7,8.3-4.1,11.7l-0.3,0.7c-0.5,1.3-1,2.6-1.4,3.9
						c-0.1,0.4-0.3,0.8-0.4,1.1c-0.1,0.2-0.2,0.4-0.3,0.7c-0.4,1.2-0.7,2.5-0.8,4.2c-0.2,2.8,0,5.6,0.2,8.5c0,0.2,0,0.4,0,0.6
						c0,3.8,0,7.3-0.1,10.6c0,1.9-0.1,3.7-0.4,5.5c-0.1,0.4-0.2,0.9-0.3,1.3c-0.2,0.8-0.7,1.5-1.4,1.9c-1,0.6-2.2,0.8-3.5,0.6
						c-0.6-0.1-1.5-0.5-2.1-1.6c-0.5-0.9-0.9-1.8-1-2.8c-0.3-2.1-0.6-4.4-0.9-7.2l-0.2-1.7c-0.1-1.4-0.3-2.7-0.4-4.1l-0.1-0.9
						c-0.2-1.7-0.3-3.5-0.4-5.3c0-0.5-0.2-1-0.7-1.4c-0.1,0.2-0.2,0.4-0.3,0.7c-0.4,0.9-0.6,1.9-0.8,3c-0.8,4.1-1.4,8.2-2.1,12.3
						l-0.1,0.6c-0.5,3.1-1,6.3-1.5,9.4c-0.1,0.9-0.4,2-0.8,3.1c-0.3,0.8-0.7,1.4-1.1,1.8C252.9,483.9,252.2,484.3,251.3,484.3z
						 M250,451c0.2,0,0.4,0,0.6,0.1c0.6,0.2,1.2,0.6,1.4,1.8c0.1,0.7,0.1,1.4,0,2l-0.1,0.9c-0.1,0.6-0.1,1.2-0.2,1.8
						c-0.2,2-0.5,4-0.7,6.1l-0.7,6c-0.2,1.7-0.4,3.5-0.6,5.2c-0.2,1.9-0.4,3.5-0.4,4.9c0,0.5,0,0.8,0.1,1.1c0.1,0.5,0.3,0.7,0.7,0.7
						c0.3,0.1,0.8,0,1.2,0.1c0.1,0,0.2,0,0.5-0.3c0.2-0.3,0.4-0.6,0.6-1.1c0.4-0.8,0.5-1.8,0.6-2.5c0.5-3.1,1-6.3,1.5-9.4l0.1-0.6
						c0.6-4.1,1.3-8.2,2.1-12.4c0.2-1.2,0.5-2.3,0.9-3.5c0.2-0.5,0.5-1.1,0.9-1.6c0.9-1,2.1-1.1,3.1-0.4c1.3,0.9,2,2.1,2,3.5
						c0.1,1.7,0.2,3.5,0.4,5.2l0.1,0.9c0.1,1.4,0.3,2.7,0.4,4.1l0.2,1.7c0.3,2.7,0.6,5,0.9,7c0.1,0.6,0.3,1.2,0.7,1.8
						c0.2,0.3,0.4,0.4,0.4,0.4c0.6,0.1,1.1,0,1.6-0.2c0.2-0.1,0.2-0.2,0.3-0.3c0.1-0.4,0.2-0.8,0.2-1.2c0.3-1.6,0.3-3.4,0.4-5.1
						c0.1-3.3,0.1-6.8,0.1-10.6c0-0.2,0-0.3,0-0.4c-0.2-3-0.4-5.9-0.2-8.9c0.1-1.9,0.4-3.4,0.9-4.8c0.1-0.3,0.2-0.6,0.4-0.9
						c0.1-0.3,0.2-0.5,0.3-0.7c0.4-1.4,1-2.8,1.5-4.1l0.3-0.7c1.4-3.4,2.9-7.4,4-11.5c0.1-0.3,0.2-0.6,0.3-0.9
						c0.1-0.2,0.2-0.4,0.2-0.6c0.4-2,0.5-3.9,0.1-5.7c-0.3-1.7-0.9-3.1-1.8-4.2c-0.1-0.1-0.1-0.1-0.2-0.2c-4.4-1.9-8.1-4.6-11.2-8.2
						c-0.5-0.6-0.9-1-1.3-1.4c-0.6-0.6-1.2-0.9-1.9-1c-0.3,0-0.6-0.1-0.9-0.1c-1.4-0.1-2.8-0.1-4.1,0.3c-0.4,0.1-1,0.3-1.6,0.3
						c-1.3,0-2.6,0.4-3.8,0.8c-4.1,1.4-8.4,3.3-13,5.7c-0.5,0.2-1,0.5-1.4,0.8c-0.8,0.4-1.6,0.9-2.4,1.2c-2.4,1.1-5.1,2.1-8.4,3.2
						c-0.2,0.1-0.5,0.1-0.7,0.2c-0.6,0.2-1.2,0.4-1.7,0.6c-0.7,0.4-1.4,0.6-2.3,0.7c-0.9,0.1-1.8,0.1-2.7,0.2l-0.3,0
						c-0.5,0-0.9,0.1-1.3,0.2c0,0-0.1,0-0.1,0c0,0,0,0.1,0,0.2c0,0.1,0.1,0.2,0.2,0.3c0.1,0.2,0.3,0.4,0.5,0.5
						c1,0.8,1.8,1.2,2.7,1.4c2.4,0.5,4.4,0.6,6.3,0.3c2-0.3,3.9-0.6,5.9-0.5l0.4,0c0.4,0,0.9,0,1.3,0c0.9,0,1.7,0.2,2.5,0.5
						c1.5,0.6,2.4,1.7,2.7,3.2c0.1,0.6,0.2,1.2,0.1,1.7c-0.1,1.4-0.5,2.8-1.2,4.4c-1.2,2.9-2.8,5.8-4.8,8.8
						c-3.1,4.6-6.4,9.1-10.4,14.3l-0.2,0.2c-2.4,3.2-4.9,6.5-7.6,9.6l0,0.1c-0.3,0.8-0.3,1.4,0.3,2.1c0.3,0.4,0.6,0.7,1,1
						c0.2,0.2,0.3,0.2,0.4,0.3c0,0,0.1-0.1,0.4-0.3l0.7-0.6c0.5-0.5,1.1-0.9,1.6-1.4c1.7-1.5,3.2-3.1,4.6-4.5c2.5-2.5,5-5.1,7.4-7.6
						l4.5-4.7c0.2-0.2,0.4-0.4,0.7-0.6l0.7-0.4c0.4-0.2,0.7-0.4,1.1-0.6c0.2-0.1,0.4-0.2,0.7-0.3c0.8-0.3,1.5-0.2,2.1,0.2
						c0.6,0.4,1,1,1.1,1.8c0,0.4,0,0.7,0,1c-0.1,1.2-0.6,2.2-1,3.2c-2.1,4.6-4.1,9.2-6.1,13.7c-1.6,3.7-3.3,7.4-5,11.2
						c-0.1,0.2-0.1,0.3-0.1,0.5c0.2,0.9,0.6,1.6,1.3,2.3c0,0,0.1,0.1,0.3,0.1c0.5,0.1,1.1,0,1.6,0c0.2,0,0.4-0.1,0.5-0.4
						c0.1-0.1,0.1-0.2,0.2-0.4c3.8-7.3,7.8-14.5,12.4-22.2c0.8-1.4,1.7-2.8,2.7-4.1C248.8,451.3,249.4,451,250,451z"/>
				</g>
			</g>
			<g>
				<g>
					<path class="st1" d="M207,450.8c-0.3,0-0.6,0-0.9-0.1c-1.2-0.4-2.5-1-3.6-1.9c-2.3-1.8-4.1-4.1-5.5-7.5
						c-0.2-0.4-0.2-0.8-0.2-1.2c0-0.4-0.1-0.8-0.3-1.4c-1.4-4.4-2.5-8.7-3.3-12.8c-0.3-1.4-0.5-3.1-0.6-4.8c0-0.1,0-0.2-0.1-0.3
						l0-0.1c-0.5-1.8-1.3-3.7-2.6-5.9c-1-1.7-2.1-3.5-3.6-5.6c-2.3-3.4-5-7.2-7.3-11.1c-0.7-1.2-1.5-2.5-2-4c-0.4-1-0.3-2.1,0.2-3
						c0.9-1.6,2.7-2.4,4.6-2.1c0.8,0.1,1.5,0.6,2,1.4c0.2,0.3,0.4,0.5,0.7,0.8l0.2,0.2c1.7,1.9,3.4,3.8,5,5.7l2.8,3.3
						c1.4,1.6,2.7,3.2,4,4.8c0.5,0.5,1,0.9,1.8,1.2c0.1,0,0.1,0,0.2,0.1c0-0.3-0.1-0.6-0.1-0.9l-0.1-0.4c-0.1-1-0.5-2.1-0.9-3
						c-1.6-4.2-3.5-8.2-5.3-11.9c-0.9-1.8-1.8-3.6-2.6-5.4l-1.4-2.8c-0.6-1.1-0.9-2.2-1-3.3c-0.1-0.5,0-1,0.1-1.5
						c0.2-1.1,1-1.9,2-2.1c0,0,0.1,0,0.2-0.1c0.7-0.6,1.7-0.8,2.7-0.6c0.9,0.2,1.7,0.7,2.1,1.6c0.1,0.2,0.3,0.5,0.4,0.7l0.6,1.2
						c2.9,5.8,5.9,11.8,9.1,17.6c0.6,1.1,1.2,2.3,1.9,3.4c0.2,0.3,0.5,0.6,0.8,0.9c0-1.2-0.1-2.4-0.1-3.6l0-0.6
						c-0.1-2-0.2-4.1-0.4-6.1c-0.2-2.3-0.3-4.5-0.5-6.8c-0.1-2-0.3-4-0.5-6c0-0.4-0.1-0.9-0.1-1.3c-0.1-1.3-0.2-2.5-0.4-3.7
						c-0.4-2.6,1.4-4.6,3.2-5.3c1.2-0.5,2.4-0.4,3.5,0.3c1.6,1,2.6,2.4,2.9,4c0.5,2.4,0.9,4.8,1.3,7.2l0,0.1
						c0.4,2.7,0.9,5.5,1.3,8.2l1.7,10.7c0.1,0.7,0.2,1.3,0.3,2c0.1,0.5,0.3,0.8,0.7,1.1c0.1-0.1,0.1-0.2,0.2-0.3
						c0.4-0.7,0.6-1.3,0.7-1.9c0.3-2,0.7-4.1,1.1-6l0.2-1.2c0.3-1.5,0.6-3,0.9-4.5c0.7-3.3,1.4-6.7,2-10.1l0-0.3
						c0.2-0.9,0.3-1.7,0.3-2.5c0-0.3,0.1-0.6,0.1-1c0.4-1.6,1.6-2.6,3.3-2.8c0.5-0.1,1.1-0.1,1.6,0c1,0.1,1.9,0.6,2.6,1.4
						c0.8,1,1.2,2.2,1.1,3.5c0,1-0.1,2.1-0.2,3.1l-0.2,2.9c-0.1,1-0.1,2.1-0.2,3.1c-0.2,2.6-0.3,5.3-0.5,7.9
						c-0.1,1.5-0.2,3.1-0.2,4.6c-0.1,2.6-0.2,5.8-0.1,8.9c0,0.4,0,0.8,0.1,1.3l0,0.2c0.1,0.8-0.3,1.4-1.1,1.7l-1,0.4
						c-1.9,0.7-3.8,1.5-5.8,2l0,0c0,0,0,0,0,0l0,0l0,0c-0.4,0.1-1,0.2-1.8,0.4l-1.7,0.3v0c-0.9,0-2.2,0.1-3.3,0.3l-0.6,0.1
						c-1,0.1-1.8,0.3-2.5,0.6c-1.5,0.7-2.4,1.7-2.8,3.2c-0.3,0.8-0.5,1.5-0.6,2.2c-0.1,0.8-0.1,1.3,0.2,1.9c0.5,0.9,1.1,1.8,2,2.6
						c0.5,0.4,1,0.8,1.6,1.3c0.3,0.3,0.7,0.5,1,0.8c1.2,0.9,2.6,1.4,4.7,1.6c2.2,0.2,4.5,0.2,7.2,0c0.9-0.1,1.8-0.2,2.8-0.4l1.6-0.3
						l0.1,1.5c0,0.6-0.2,1-0.3,1.1c-0.5,1.1-1,2.1-1.6,3.1l0,0.1c-0.1,0.3-0.3,0.6-0.7,0.9c-0.3,0.2-0.5,0.6-0.8,1l-0.1,0.1
						c-3.3,5-7.1,10.2-11.5,15.9c-0.5,0.6-1,0.9-1.8,0.9l-1.3,0c-1.4,0-2.9,0-4.3,0.1c-1,0.1-1.9,0.2-2.6,0.4
						C207.5,450.8,207.3,450.8,207,450.8z M199.4,440.4c1.2,2.9,2.7,4.9,4.7,6.4c0.9,0.7,1.8,1.1,2.7,1.4c0.1,0,0.2,0,0.2,0
						c1-0.3,2-0.5,3.2-0.5c1.5-0.1,3.1-0.1,4.5-0.1l1.1,0c4.3-5.6,8-10.8,11.3-15.7l0.1-0.1c0.3-0.5,0.7-1,1.2-1.4
						c0,0,0-0.1,0.1-0.1l0.1-0.2c0.2-0.5,0.5-0.9,0.7-1.4c-0.3,0-0.5,0.1-0.8,0.1c-2.9,0.3-5.4,0.3-7.7,0c-1.8-0.2-4-0.6-6-2.2
						c-0.3-0.2-0.6-0.5-1-0.7c-0.6-0.4-1.2-0.9-1.8-1.4c-1.1-1-2-2.1-2.6-3.4c-0.5-1-0.7-2.1-0.4-3.4c0.1-0.9,0.4-1.7,0.7-2.5
						c0.7-2.2,2.1-3.8,4.2-4.8c0.9-0.4,2-0.7,3.3-0.9l0.6-0.1c1-0.1,2.1-0.2,3.1-0.3c1.4-0.3,3-0.6,3.4-0.7l0,0
						c1.9-0.5,3.6-1.1,5.5-1.9l0.4-0.2c0-0.3,0-0.6,0-1c-0.1-3.2,0-6.4,0.1-9.1c0.1-1.6,0.1-3.1,0.2-4.7c0.2-2.6,0.3-5.3,0.5-7.9
						c0.1-1,0.1-2.1,0.2-3.1l0.2-2.9c0.1-1,0.1-2,0.2-3c0-0.7-0.1-1.3-0.5-1.8c-0.3-0.4-0.6-0.5-0.8-0.5c-0.4,0-0.7,0-1.1,0
						c-0.8,0.1-1,0.5-1.1,0.8c0,0.2-0.1,0.3-0.1,0.4c0,1-0.2,2-0.4,2.9l0,0.3c-0.6,3.4-1.3,6.8-2,10.2c-0.3,1.5-0.6,3-0.9,4.5
						l-0.2,1.2c-0.4,1.9-0.8,3.9-1.1,5.9c-0.1,0.9-0.5,1.8-1,2.7c-0.3,0.5-0.6,0.9-1,1.2c-0.9,0.7-1.9,0.7-2.7,0.2
						c-1.1-0.7-1.8-1.7-2-2.9c-0.1-0.7-0.2-1.4-0.4-2.1l-1.7-10.7c-0.4-2.7-0.9-5.5-1.3-8.2l0-0.1c-0.4-2.3-0.8-4.8-1.3-7.1
						c-0.2-1-0.8-1.7-1.8-2.3c-0.4-0.2-0.7-0.2-1.1-0.1c-0.9,0.3-1.7,1.3-1.5,2.5c0.2,1.3,0.3,2.6,0.4,3.9c0,0.4,0.1,0.9,0.1,1.3
						c0.2,2,0.3,4,0.5,6c0.2,2.3,0.3,4.6,0.5,6.8c0.1,2,0.3,4.1,0.4,6.2l0,0.6c0.1,1.4,0.2,2.9,0.1,4.3c0,0.4,0,0.7-0.2,1.2
						c-0.3,0.9-1,1.4-2,1.3c-0.5,0-1-0.2-1.4-0.6c-0.9-0.6-1.5-1.3-2-2c-0.7-1.2-1.4-2.4-2-3.5c-3.2-5.8-6.2-11.9-9.1-17.7l-0.6-1.2
						c-0.1-0.2-0.2-0.4-0.3-0.6c-0.1-0.2-0.2-0.3-0.4-0.3c-0.2,0-0.4,0-0.5,0.1c-0.4,0.3-0.7,0.5-1.1,0.6c-0.1,0-0.1,0.1-0.1,0.2
						c0,0.2-0.1,0.4,0,0.6c0.1,0.8,0.3,1.6,0.8,2.4l1.4,2.8c0.9,1.8,1.8,3.6,2.7,5.5c1.8,3.8,3.7,7.9,5.4,12.1
						c0.4,1.1,0.9,2.3,1.1,3.6l0,0.3c0.1,0.6,0.2,1.2,0.1,1.9c-0.1,1.1-0.8,1.8-1.9,2c-0.6,0.1-1.2,0-1.9-0.3
						c-1.1-0.5-2.1-1.1-2.8-2c-1.3-1.6-2.7-3.2-4-4.8l-2.8-3.3c-1.6-1.9-3.2-3.8-4.9-5.7l-0.2-0.2c-0.3-0.4-0.7-0.8-1.1-1.3
						c0-0.1-0.1-0.1-0.1-0.1c-0.9-0.1-1.6,0.1-2,0.8c-0.2,0.3-0.2,0.5-0.1,0.8c0.5,1.3,1.2,2.5,1.9,3.6c2.3,3.8,4.9,7.6,7.2,10.9
						c1.5,2.2,2.7,4,3.7,5.8c1.4,2.4,2.2,4.4,2.8,6.4l0,0.1c0.1,0.3,0.2,0.6,0.2,1c0.1,1.6,0.3,3.1,0.5,4.4c0.7,4,1.8,8.2,3.2,12.5
						C199.3,438.6,199.5,439.4,199.4,440.4C199.4,440.4,199.4,440.4,199.4,440.4z M230.9,406.1C230.9,406.1,230.9,406.1,230.9,406.1
						L230.9,406.1z"/>
				</g>
			</g>
			<g>
				<g>
					<path class="st1" d="M202.1,455c-0.4,0.1-0.8-0.1-1.2-0.2c-2.5-1.1-4.6-2.8-6.1-5.1c-1.2-1.8-2.4-3.7-3.3-5.7
						c-0.2-0.4-0.2-0.8-0.2-1.2c0.1-0.5,0.3-0.7,0.7-0.7c0.2,0,0.5,0,0.7,0.1c0.2,0,0.4,0.2,0.5,0.4c0.4,1.3,1,2.4,1.6,3.6
						c1.4,3,3.8,4.9,6.6,6.5c0.2,0.1,0.5,0.3,0.8,0.3c0.4,0.1,0.5,0.4,0.6,0.7c0,0.1,0,0.2,0,0.3c0,0.3,0.1,0.3,0.3,0.3
						c0.1,0,0.3,0,0.3,0.1c0,0.1-0.1,0.3-0.2,0.4c-0.1,0.1-0.3,0.1-0.4,0.2C202.7,455,202.5,455,202.1,455z"/>
				</g>
			</g>
			<g>
				<g>
					<path class="st1" d="M196,459.6c-0.4,0.1-0.8-0.1-1.2-0.2c-2.5-1.1-4.6-2.8-6.1-5.1c-1.2-1.8-2.4-3.7-3.3-5.7
						c-0.2-0.4-0.2-0.8-0.2-1.2c0.1-0.5,0.3-0.7,0.7-0.7c0.2,0,0.5,0,0.7,0.1c0.2,0,0.4,0.2,0.5,0.4c0.4,1.3,1,2.4,1.6,3.6
						c1.4,3,3.8,4.9,6.6,6.5c0.2,0.1,0.5,0.3,0.8,0.3c0.4,0.1,0.5,0.4,0.6,0.7c0,0.1,0,0.2,0,0.3c0,0.3,0.1,0.3,0.3,0.3
						c0.1,0,0.3,0,0.3,0.1c0,0.1-0.1,0.3-0.2,0.4c-0.1,0.1-0.3,0.1-0.4,0.2C196.6,459.6,196.4,459.6,196,459.6z"/>
				</g>
			</g>
			<g>
				<g>
					<path class="st1" d="M283.2,427c0.1,0.2,0.4,0,0.4,0.2c0,0.2-0.1,0.3-0.3,0.4c-0.4,0.2-0.8,0.2-1.3,0.1
						c-0.2-0.1-0.3-0.2-0.4-0.5c-0.1-0.4-0.1-0.8,0-1.2c0.5-2.2,0.7-4.5,0.5-6.7c-0.1-2.2-0.8-4.2-1.8-6.1c-0.2-0.4-0.2-0.8-0.2-1.2
						c0.1-0.4,0.2-0.6,0.7-0.6c0.3,0,0.5,0,0.8,0c0.4,0,0.6,0.1,0.8,0.5c0.6,1.4,1,2.8,1.4,4.3c0.7,3.1,0.6,6.2,0.1,9.2
						C283.8,425.9,283.6,426.5,283.2,427z"/>
				</g>
			</g>
			<g>
				<g>
					<path class="st1" d="M290.5,425.7c0.1,0.2,0.4,0,0.4,0.2c0,0.2-0.1,0.3-0.3,0.4c-0.4,0.2-0.8,0.2-1.3,0.1
						c-0.2-0.1-0.3-0.2-0.4-0.5c-0.1-0.4-0.1-0.8,0-1.2c0.5-2.2,0.7-4.5,0.5-6.7c-0.1-2.2-0.8-4.2-1.8-6.1c-0.2-0.4-0.2-0.8-0.2-1.2
						c0.1-0.4,0.2-0.6,0.7-0.6c0.3,0,0.5,0,0.8,0c0.4,0,0.6,0.1,0.8,0.5c0.6,1.4,1,2.8,1.4,4.3c0.7,3.1,0.6,6.2,0.1,9.2
						C291,424.7,290.8,425.2,290.5,425.7z"/>
				</g>
			</g>
		</g>
		<g class="st2">
			<g>
				<g>
					<path class="st1" d="M379.9,107.8c-2.5,0-4.9-0.5-7.5-1.6c-2.2-1-4.3-2.3-6.1-3.9c-1.5-1.3-2.7-2.8-3.7-4.4
						c-1.7-2.6-2.8-5.5-3.3-8.6c-0.1-0.7-0.1-1.5-0.1-2.1c-0.1-32.1-0.1-64.7,0-96.8c0-2.2,0.5-4.5,1.5-7.1c0.9-2.1,2-4,3.5-5.7
						c1.5-1.7,3.2-3.2,5-4.4c2.4-1.6,5.1-2.6,7.9-3.1c0.7-0.1,1.3-0.1,2-0.2l0.9,0c0,0,0.1,0,0.1,0l0.1,0l96.2,0c0.1,0,0.1,0,0.2,0
						h0.4c2.2,0,4.5,0.5,7,1.5c1.9,0.8,3.7,1.9,5.3,3.2c2.1,1.8,3.9,3.8,5.3,6.2c1.3,2.3,2.1,4.5,2.5,6.8c0.2,0.9,0.2,1.8,0.2,2.6
						v0.4c0,0.1,0,0.1,0,0.2l0,0.1l0,96.1c0,0,0,0.1,0,0.1v0.4c0.1,2.3-0.4,4.6-1.6,7.3c-0.8,1.9-2,3.7-3.4,5.4
						c-1.8,2.1-3.9,3.8-6.4,5.2c-2,1.1-4.1,1.9-6.4,2.3c-0.7,0.1-1.4,0.2-2,0.2l-0.3,0c-0.2,0-0.5,0-0.7,0H380
						C380,107.8,379.9,107.8,379.9,107.8z M379.5-27.6l-0.4,0c-0.6,0-1.1,0-1.6,0.1c-2.5,0.5-4.8,1.4-6.9,2.8
						c-1.7,1.1-3.2,2.4-4.5,3.9c-1.3,1.5-2.3,3.2-3.1,5c-0.9,2.3-1.4,4.2-1.3,6.1c-0.1,32.1-0.1,64.7,0,96.8c0,0.6,0,1.2,0.1,1.7
						c0.4,2.7,1.4,5.2,2.9,7.5c0.9,1.4,2,2.7,3.3,3.9c1.6,1.4,3.4,2.6,5.4,3.5c2.3,1,4.4,1.4,6.6,1.4h96.3c0.2,0,0.4,0,0.6,0l0.4,0
						c0.6,0,1.1,0,1.6-0.1c2-0.4,3.8-1.1,5.6-2c2.2-1.2,4.1-2.7,5.6-4.6c1.3-1.5,2.3-3.1,3-4.8c1-2.3,1.5-4.3,1.4-6.2l0-0.5l0,0
						c0-0.1,0-0.3,0-0.6V-8.8c-0.1-0.3,0-0.5,0-0.6l0-0.1l0-0.5c0-0.7,0-1.4-0.1-2.1c-0.3-2-1.1-3.9-2.2-5.9
						c-1.2-2.1-2.8-3.9-4.7-5.5c-1.4-1.2-3-2.1-4.7-2.8c-2.1-0.9-4-1.3-5.9-1.3l-0.5,0c-0.1,0-0.3,0-0.6,0h-95.2
						c-0.2,0.1-0.4,0-0.6,0l-0.1,0H379.5z"/>
				</g>
			</g>
			<g>
				<g>
					<path class="st1" d="M447,100.7c-0.1,0-0.1,0-0.2,0c-0.1,0-0.3,0-0.4,0c-0.4,0-0.8,0-1.3-0.1c-1.3-0.3-2.3-1.3-2.6-2.7
						c-0.2-0.7-0.2-1.4-0.1-1.9c0.1-1.5,0.2-3,0.5-5.1c0.2-1.8,0.4-3.5,0.6-5.3l0.7-6c0.2-2,0.5-4,0.7-6c0.1-0.6,0.1-1.2,0.2-1.8
						l0-0.5c-0.5,0.8-1,1.6-1.5,2.4c-4.5,7.7-8.6,14.9-12.3,22.1c-0.1,0.2-0.2,0.4-0.3,0.5c-0.6,1-1.5,1.6-2.6,1.7
						c-0.7,0.1-1.4,0.1-2.2,0c-0.7-0.1-1.3-0.4-1.7-0.9c-1.1-1.1-1.8-2.3-2-3.7c-0.1-0.7,0-1.4,0.2-2c1.7-3.7,3.3-7.4,5-11.1
						c2-4.5,4.1-9.2,6.2-13.8c0.4-0.8,0.7-1.6,0.8-2.4c0,0,0-0.1,0-0.1c0,0,0,0,0,0c-0.3,0.2-0.7,0.4-1,0.6l-0.7,0.4
						c0,0-0.1,0.1-0.1,0.1l-0.1,0.1l-4.4,4.5c-2.5,2.6-5,5.1-7.5,7.7c-1.3,1.3-2.9,3-4.7,4.6c-0.5,0.5-1.1,1-1.6,1.4l-0.8,0.7
						c-1.4,1.1-2.6,1.2-4,0c-0.5-0.4-1-0.9-1.4-1.4c-1.1-1.4-1.4-3-0.6-4.7c0.1-0.3,0.3-0.5,0.4-0.7c2.6-3.1,5.1-6.4,7.5-9.5
						l0.1-0.2c3.9-5.2,7.2-9.6,10.3-14.2c1.9-2.8,3.4-5.6,4.6-8.3c0.6-1.3,0.9-2.5,1-3.6c0-0.4,0-0.7-0.1-1
						c-0.1-0.7-0.5-1.1-1.2-1.4c-0.5-0.2-1-0.3-1.6-0.3c-0.4,0-0.9,0-1.2,0l-0.5,0l0,0c-1.9-0.1-3.6,0.2-5.5,0.4
						c-2.2,0.3-4.6,0.2-7.3-0.3c-1.6-0.3-2.9-1.2-3.8-1.9c-0.4-0.3-0.8-0.7-1.1-1.1c-0.3-0.4-0.5-0.9-0.6-1.3
						c-0.3-1.6,0.4-2.7,1.9-3.1c0.5-0.2,1.1-0.3,1.9-0.3l0.2,0c0.9-0.1,1.9-0.1,2.8-0.2c0.5,0,0.9-0.1,1.2-0.3
						c0.8-0.5,1.6-0.7,2.4-0.9c0.2-0.1,0.4-0.1,0.7-0.2c3.2-1,5.7-2,8.1-3c0.7-0.3,1.5-0.7,2.2-1.2c0.5-0.3,1-0.5,1.5-0.8
						c4.8-2.4,9.1-4.3,13.4-5.8c1.4-0.5,2.9-0.9,4.5-1c0.3,0,0.6-0.1,0.9-0.2c1.7-0.5,3.4-0.5,5-0.4c0.4,0,0.7,0,1,0.1
						c1.2,0.2,2.3,0.7,3.4,1.7c0.5,0.4,0.9,0.9,1.5,1.6c2.8,3.2,6.3,5.7,10.3,7.5c0.5,0.2,0.9,0.5,1.3,1c1.1,1.5,1.9,3.3,2.3,5.3
						c0.4,2.1,0.3,4.4-0.2,6.8c-0.1,0.4-0.2,0.7-0.4,1c-0.1,0.2-0.2,0.3-0.2,0.5c-1.1,4.2-2.7,8.3-4.1,11.7l-0.3,0.7
						c-0.5,1.3-1,2.6-1.4,3.9c-0.1,0.4-0.3,0.7-0.4,1.1c-0.1,0.2-0.2,0.4-0.3,0.7c-0.4,1.2-0.7,2.5-0.8,4.2c-0.2,2.8,0,5.6,0.2,8.5
						c0,0.2,0,0.4,0,0.6c0,3.8,0,7.3-0.1,10.6c0,1.9-0.1,3.7-0.4,5.5c-0.1,0.4-0.2,0.9-0.3,1.3c-0.2,0.8-0.7,1.5-1.4,1.9
						c-1,0.6-2.2,0.8-3.5,0.6c-0.6-0.1-1.5-0.5-2.1-1.6c-0.5-0.9-0.9-1.8-1-2.8c-0.3-2.1-0.6-4.4-0.9-7.2l-0.2-1.7
						c-0.1-1.4-0.3-2.8-0.4-4.2l-0.1-0.9c-0.2-1.7-0.3-3.5-0.4-5.3c0-0.5-0.2-1-0.7-1.4c-0.1,0.2-0.2,0.4-0.3,0.7
						c-0.4,0.9-0.6,1.9-0.8,3c-0.8,4.1-1.4,8.3-2.1,12.3l-0.1,0.5c-0.5,3.1-1,6.3-1.5,9.4c-0.1,0.9-0.4,2-0.8,3.1
						c-0.3,0.8-0.7,1.4-1.1,1.8C448.6,100.3,447.8,100.7,447,100.7z M445.7,67.4c0.2,0,0.4,0,0.6,0.1c0.6,0.2,1.2,0.6,1.4,1.8
						c0.1,0.7,0.1,1.4,0,2l-0.1,0.8c-0.1,0.6-0.1,1.3-0.2,1.9c-0.2,2-0.5,4-0.7,6.1l-0.7,6c-0.2,1.7-0.4,3.5-0.6,5.2
						c-0.2,2-0.4,3.5-0.4,4.9c0,0.5,0,0.8,0.1,1.1c0.1,0.5,0.3,0.7,0.7,0.7c0.2,0,0.4,0,0.7,0c0.2,0,0.4,0,0.6,0
						c0.1,0,0.2,0,0.5-0.3c0.2-0.3,0.4-0.6,0.6-1.1c0.3-0.8,0.5-1.7,0.6-2.5c0.5-3.1,1-6.3,1.5-9.4l0.1-0.5
						c0.6-4.1,1.3-8.3,2.1-12.4c0.2-1.2,0.5-2.3,0.9-3.5c0.2-0.5,0.5-1.1,0.9-1.6c0.9-1,2.1-1.1,3.1-0.4c1.3,0.9,2,2.1,2,3.5
						c0.1,1.7,0.2,3.5,0.4,5.2l0.1,0.9c0.1,1.4,0.3,2.8,0.4,4.1l0.2,1.7c0.3,2.7,0.6,5,0.9,7c0.1,0.6,0.3,1.2,0.7,1.8
						c0.2,0.3,0.4,0.4,0.4,0.4c0.6,0.1,1.1,0,1.6-0.2c0.2-0.1,0.2-0.2,0.3-0.3c0.1-0.4,0.2-0.8,0.2-1.2c0.3-1.7,0.3-3.4,0.4-5.1
						c0.1-3.3,0.1-6.7,0.1-10.6c0-0.1,0-0.3,0-0.5c-0.2-3-0.4-5.9-0.2-8.9c0.1-1.9,0.4-3.4,0.9-4.8c0.1-0.3,0.2-0.6,0.4-0.9
						c0.1-0.3,0.2-0.5,0.3-0.7c0.4-1.4,1-2.8,1.5-4.1l0.3-0.7c1.4-3.4,2.9-7.4,4-11.5c0.1-0.3,0.2-0.6,0.3-0.9
						c0.1-0.2,0.2-0.4,0.2-0.6c0.4-2,0.5-3.9,0.1-5.8c-0.3-1.7-0.9-3.1-1.8-4.2c-0.1-0.1-0.1-0.1-0.2-0.2c-4.4-1.9-8.1-4.6-11.2-8.2
						c-0.5-0.6-0.9-1-1.3-1.4c-0.6-0.6-1.2-0.9-1.9-1c-0.3,0-0.6-0.1-0.9-0.1c-1.4-0.1-2.8-0.1-4.1,0.3c-0.4,0.1-1,0.3-1.6,0.3
						c-1.3,0-2.6,0.4-3.8,0.8c-4.1,1.4-8.4,3.3-13,5.7c-0.5,0.2-1,0.5-1.4,0.8c-0.8,0.4-1.6,0.9-2.4,1.2c-2.4,1.1-5.1,2.1-8.4,3.2
						c-0.2,0.1-0.5,0.1-0.7,0.2c-0.6,0.2-1.3,0.4-1.7,0.7c-0.7,0.4-1.4,0.6-2.3,0.7c-0.9,0.1-1.9,0.1-2.8,0.2l-0.2,0
						c-0.5,0-0.9,0.1-1.3,0.2c0,0-0.1,0-0.1,0c0,0,0,0.1,0,0.2c0,0.1,0.1,0.2,0.2,0.3c0.1,0.2,0.3,0.4,0.5,0.5
						c1,0.8,1.8,1.2,2.7,1.4c2.4,0.5,4.4,0.6,6.3,0.3c2-0.3,3.8-0.6,5.9-0.5l0.4,0c0.4,0,0.9,0,1.3,0c0.9,0,1.7,0.2,2.5,0.5
						c1.5,0.6,2.4,1.7,2.7,3.3c0.1,0.6,0.2,1.2,0.1,1.7c-0.1,1.4-0.5,2.8-1.2,4.4c-1.2,2.9-2.8,5.8-4.8,8.8
						c-3.1,4.7-6.4,9.1-10.4,14.3l-0.1,0.2c-2.4,3.2-4.9,6.5-7.6,9.6c0,0,0,0,0,0.1c-0.3,0.8-0.3,1.4,0.3,2.1c0.3,0.4,0.6,0.7,1,1
						c0.2,0.2,0.3,0.2,0.4,0.3c0,0,0.1-0.1,0.4-0.3l0.7-0.6c0.5-0.5,1.1-0.9,1.6-1.4c1.7-1.6,3.3-3.2,4.6-4.5c2.5-2.6,5-5.1,7.5-7.7
						l4.5-4.6c0.2-0.2,0.4-0.4,0.7-0.6l0.7-0.4c0.3-0.2,0.7-0.4,1-0.6c0.2-0.1,0.4-0.2,0.7-0.3c0.8-0.3,1.5-0.2,2.1,0.2
						c0.6,0.4,1,1,1.1,1.8c0,0.4,0,0.7,0,1c-0.1,1.2-0.6,2.2-1,3.2c-2.1,4.6-4.1,9.2-6.1,13.7c-1.6,3.7-3.3,7.4-5,11.1
						c-0.1,0.2-0.1,0.3-0.1,0.5c0.2,0.8,0.6,1.6,1.3,2.3c0,0,0.1,0.1,0.3,0.1c0.5,0.1,1,0.1,1.6,0c0.2,0,0.3,0,0.5-0.4
						c0.1-0.1,0.1-0.2,0.2-0.3c3.8-7.3,7.8-14.6,12.4-22.2c0.8-1.4,1.8-2.8,2.7-4.1C444.4,67.7,445.1,67.4,445.7,67.4z"/>
				</g>
			</g>
			<g>
				<g>
					<path class="st1" d="M402.7,67.2c-0.3,0-0.6,0-0.9-0.1c-1.2-0.4-2.5-1-3.6-1.9c-2.3-1.8-4.1-4.1-5.5-7.5
						c-0.2-0.4-0.2-0.8-0.2-1.2c0-0.4-0.1-0.8-0.3-1.4c-1.4-4.4-2.5-8.7-3.3-12.8c-0.3-1.4-0.5-3.1-0.6-4.8c0-0.1,0-0.2-0.1-0.3
						l0-0.1c-0.5-1.8-1.3-3.7-2.6-5.9c-1-1.7-2.1-3.5-3.6-5.6c-2.3-3.4-5-7.2-7.3-11.1c-0.7-1.2-1.5-2.5-2-4c-0.4-1-0.3-2.1,0.2-3
						c0.9-1.6,2.7-2.4,4.6-2.1c0.8,0.1,1.5,0.6,2,1.4c0.2,0.3,0.4,0.5,0.7,0.8l0.2,0.2c1.7,1.9,3.4,3.8,5,5.7l2.6,3
						c1.4,1.7,2.9,3.4,4.3,5.1c0.5,0.5,1,0.9,1.8,1.2c0.1,0,0.1,0.1,0.2,0.1c0-0.3-0.1-0.6-0.1-0.9l-0.1-0.4c-0.1-1-0.5-2.1-0.9-3
						c-1.6-4.2-3.5-8.2-5.3-11.9c-0.9-1.8-1.8-3.7-2.7-5.5L384-1.4c-0.6-1.1-0.9-2.2-1-3.3c-0.1-0.5,0-1,0.1-1.5
						c0.2-1.1,1-1.9,2-2.1c0,0,0.1,0,0.2-0.1c0.7-0.6,1.7-0.8,2.7-0.6c0.9,0.2,1.7,0.7,2.1,1.6c0.1,0.2,0.3,0.5,0.4,0.7l0.6,1.2
						c2.9,5.8,6,11.8,9.1,17.6c0.6,1.1,1.2,2.2,1.9,3.4c0.2,0.3,0.5,0.6,0.8,0.9c0-1.2-0.1-2.4-0.1-3.6l0-0.5
						c-0.1-2-0.2-4.1-0.4-6.1c-0.2-2.3-0.3-4.5-0.5-6.8c-0.1-2-0.3-4-0.5-6c0-0.4-0.1-0.9-0.1-1.3c-0.1-1.3-0.2-2.5-0.4-3.7
						c-0.4-2.6,1.4-4.6,3.2-5.3c1.2-0.5,2.4-0.4,3.5,0.3c1.6,1,2.6,2.4,2.9,4c0.5,2.4,0.9,4.9,1.3,7.2l0,0.1
						c0.4,2.8,0.9,5.5,1.3,8.3l1.7,10.6c0.1,0.7,0.2,1.4,0.3,2.1c0.1,0.5,0.3,0.8,0.7,1.1c0.1-0.1,0.1-0.2,0.2-0.3
						c0.4-0.7,0.6-1.3,0.7-1.9c0.3-2,0.7-4.1,1.1-6l0.2-1.2c0.3-1.5,0.6-3,0.9-4.6c0.7-3.3,1.4-6.7,2-10.1l0-0.2
						c0.2-0.9,0.3-1.7,0.3-2.5c0-0.3,0.1-0.6,0.1-1c0.4-1.6,1.6-2.6,3.3-2.8c0.5-0.1,1.1-0.1,1.6,0c1,0.1,1.9,0.6,2.6,1.4
						c0.8,1,1.2,2.2,1.1,3.5c0,1-0.1,2.1-0.2,3.1l-0.2,2.9c-0.1,1.1-0.2,2.1-0.2,3.2c-0.2,2.6-0.3,5.3-0.5,7.9
						c-0.1,1.5-0.2,3.1-0.2,4.6c-0.1,2.6-0.2,5.8-0.1,9c0,0.4,0,0.9,0.1,1.3l0,0.2c0.1,0.8-0.3,1.4-1.1,1.7l-1.1,0.4
						c-1.9,0.7-3.8,1.5-5.8,2l0,0c0,0,0,0,0,0l0,0l0,0c-0.4,0.1-1,0.2-1.8,0.4l-1.7,0.3v0c-0.9,0-2.2,0.1-3.3,0.3l-0.6,0.1
						c-1,0.1-1.8,0.3-2.5,0.6c-1.5,0.7-2.4,1.7-2.8,3.2c-0.3,0.8-0.5,1.5-0.6,2.2c-0.1,0.8-0.1,1.3,0.2,1.9c0.5,0.9,1.1,1.8,2,2.6
						c0.5,0.4,1,0.8,1.6,1.3c0.3,0.3,0.7,0.5,1,0.8c1.2,0.9,2.6,1.4,4.7,1.6c2.2,0.2,4.5,0.2,7.2,0c0.9-0.1,1.8-0.2,2.8-0.4l1.7-0.3
						l0.1,1.5c0,0.6-0.2,1-0.3,1.1c-0.5,1-0.9,1.9-1.4,2.8l-0.2,0.4c-0.1,0.3-0.3,0.6-0.7,0.9c-0.3,0.2-0.5,0.6-0.8,1l-0.1,0.1
						c-3.3,5-7.1,10.2-11.5,15.9c-0.5,0.6-1,0.9-1.8,0.9c0,0,0,0,0,0l-1.3,0c-1.4,0-2.9,0-4.3,0.1c-1,0.1-1.9,0.2-2.6,0.4
						C403.2,67.1,402.9,67.2,402.7,67.2z M395.1,56.8c1.2,2.9,2.7,4.9,4.7,6.4c0.9,0.7,1.8,1.1,2.7,1.4c0.1,0,0.2,0,0.2,0
						c1-0.3,2-0.5,3.2-0.5c1.5-0.1,3-0.1,4.5-0.1l1.1,0c4.3-5.6,8-10.8,11.3-15.7l0.1-0.1c0.3-0.5,0.7-1,1.2-1.5c0,0,0-0.1,0.1-0.1
						l0.2-0.5c0.2-0.4,0.4-0.7,0.5-1.1c-0.3,0-0.5,0.1-0.8,0.1c-2.9,0.3-5.4,0.3-7.7,0c-1.8-0.2-4-0.6-6-2.2c-0.3-0.2-0.6-0.5-1-0.7
						c-0.6-0.4-1.2-0.9-1.8-1.4c-1.1-1-2-2.1-2.6-3.4c-0.5-1-0.7-2.1-0.4-3.4c0.1-0.9,0.4-1.8,0.7-2.6c0.7-2.2,2.1-3.8,4.2-4.8
						c1-0.5,2-0.7,3.3-0.9l0.6-0.1c1-0.1,2.1-0.2,3.1-0.3c1.4-0.3,3-0.6,3.4-0.7l0,0c1.9-0.5,3.6-1.1,5.5-1.9l0.4-0.2
						c0-0.3,0-0.6,0-1c-0.1-3.3,0-6.4,0.1-9.1c0.1-1.6,0.1-3.1,0.2-4.7c0.2-2.6,0.3-5.3,0.5-7.9c0.1-1.1,0.1-2.1,0.2-3.2l0.2-2.9
						c0.1-1,0.1-2,0.2-3c0-0.7-0.1-1.3-0.5-1.8c-0.3-0.4-0.6-0.5-0.8-0.5c-0.4,0-0.7,0-1.1,0c-0.8,0.1-1,0.5-1.1,0.8
						c0,0.2-0.1,0.3-0.1,0.4c0,1-0.2,2-0.4,2.9l0,0.2c-0.6,3.4-1.3,6.8-2,10.1c-0.3,1.5-0.6,3-0.9,4.6l-0.2,1.2
						c-0.4,1.9-0.8,3.9-1.1,5.9c-0.1,0.9-0.5,1.8-1,2.7c-0.3,0.5-0.6,0.9-1,1.2c-0.8,0.7-1.9,0.7-2.7,0.2c-1.1-0.7-1.8-1.7-2-2.9
						c-0.1-0.7-0.3-1.4-0.4-2.2l-1.7-10.6c-0.4-2.8-0.9-5.5-1.3-8.3l0-0.1c-0.4-2.3-0.8-4.8-1.3-7.1c-0.2-1-0.8-1.7-1.8-2.3
						c-0.4-0.2-0.7-0.2-1.1-0.1c-0.9,0.3-1.7,1.3-1.6,2.5c0.2,1.3,0.3,2.6,0.4,3.9c0,0.4,0.1,0.9,0.1,1.3c0.2,2,0.3,4,0.5,6
						c0.2,2.3,0.3,4.6,0.5,6.8c0.1,2,0.3,4.1,0.4,6.2l0,0.5c0.1,1.4,0.2,2.9,0.1,4.3c0,0.3,0,0.7-0.2,1.2c-0.3,0.9-1,1.4-2,1.3
						c-0.5,0-1-0.2-1.4-0.6c-0.9-0.6-1.5-1.3-2-2c-0.7-1.2-1.4-2.4-2-3.5c-3.2-5.8-6.2-11.9-9.1-17.7L388-5.5
						c-0.1-0.2-0.2-0.4-0.3-0.6c-0.1-0.2-0.2-0.3-0.4-0.3c-0.2,0-0.4,0-0.5,0.1c-0.4,0.3-0.7,0.5-1.1,0.6c-0.1,0-0.1,0.1-0.1,0.2
						c0,0.2-0.1,0.4,0,0.6c0.1,0.8,0.3,1.6,0.8,2.4l1.3,2.8c0.9,1.8,1.8,3.7,2.7,5.5c1.8,3.8,3.7,7.9,5.4,12.1
						c0.4,1.1,0.9,2.3,1.1,3.6l0,0.3c0.1,0.6,0.2,1.2,0.1,1.9c-0.1,1.1-0.8,1.8-1.9,2c-0.6,0.1-1.2,0-1.9-0.3
						c-1.1-0.5-2.1-1.1-2.8-2c-1.4-1.7-2.9-3.4-4.3-5.1l-2.6-3c-1.6-1.9-3.2-3.8-4.9-5.7l-0.2-0.2c-0.3-0.4-0.7-0.8-1-1.3
						c0-0.1-0.1-0.1-0.1-0.1c-0.9-0.1-1.5,0.1-1.9,0.8c-0.2,0.3-0.2,0.5-0.1,0.8c0.5,1.3,1.2,2.5,1.9,3.6c2.3,3.8,4.9,7.6,7.2,10.9
						c1.5,2.2,2.7,4,3.7,5.8c1.4,2.4,2.2,4.4,2.8,6.4l0,0.1c0.1,0.3,0.2,0.6,0.2,1c0.1,1.6,0.3,3.1,0.5,4.4c0.7,4,1.8,8.2,3.2,12.5
						C395,55,395.2,55.8,395.1,56.8C395.1,56.8,395.1,56.8,395.1,56.8z"/>
				</g>
			</g>
			<g>
				<g>
					<path class="st1" d="M397.8,71.4c-0.4,0.1-0.8-0.1-1.2-0.2c-2.5-1.1-4.6-2.8-6.1-5.1c-1.2-1.8-2.4-3.7-3.3-5.7
						c-0.2-0.4-0.2-0.8-0.2-1.2c0.1-0.5,0.3-0.7,0.7-0.7c0.2,0,0.5,0,0.7,0.1c0.2,0,0.4,0.2,0.5,0.4c0.4,1.3,1,2.4,1.6,3.6
						c1.4,3,3.8,4.9,6.6,6.5c0.2,0.1,0.5,0.3,0.8,0.3c0.4,0.1,0.5,0.4,0.6,0.7c0,0.1,0,0.2,0,0.3c0,0.3,0.1,0.3,0.3,0.3
						c0.1,0,0.3,0,0.3,0.1c0,0.1-0.1,0.3-0.2,0.4c-0.1,0.1-0.3,0.1-0.4,0.2C398.4,71.4,398.2,71.4,397.8,71.4z"/>
				</g>
			</g>
			<g>
				<g>
					<path class="st1" d="M391.7,76c-0.4,0.1-0.8-0.1-1.2-0.2c-2.5-1.1-4.6-2.8-6.1-5.1c-1.2-1.8-2.4-3.7-3.3-5.7
						c-0.2-0.4-0.2-0.8-0.2-1.2c0.1-0.5,0.3-0.7,0.7-0.7c0.2,0,0.5,0,0.7,0.1c0.2,0,0.4,0.2,0.5,0.4c0.4,1.3,1,2.4,1.6,3.6
						c1.4,3,3.8,4.9,6.6,6.5c0.2,0.1,0.5,0.3,0.8,0.3c0.4,0.1,0.5,0.4,0.6,0.7c0,0.1,0,0.2,0,0.3c0,0.3,0.1,0.3,0.3,0.3
						c0.1,0,0.3,0,0.3,0.1c0,0.1-0.1,0.3-0.2,0.4c-0.1,0.1-0.3,0.1-0.4,0.2C392.3,76,392,76,391.7,76z"/>
				</g>
			</g>
			<g>
				<g>
					<path class="st1" d="M478.9,43.3c0.1,0.2,0.4,0,0.4,0.2c0,0.2-0.1,0.3-0.3,0.4c-0.4,0.2-0.8,0.2-1.3,0.1
						c-0.2-0.1-0.3-0.2-0.4-0.5c-0.1-0.4-0.1-0.8,0-1.2c0.5-2.2,0.7-4.5,0.5-6.7c-0.1-2.2-0.8-4.2-1.8-6.1c-0.2-0.4-0.2-0.8-0.2-1.2
						c0.1-0.4,0.2-0.6,0.7-0.6c0.3,0,0.5,0,0.8,0c0.4,0,0.6,0.1,0.8,0.5c0.6,1.4,1,2.8,1.4,4.3c0.7,3.1,0.6,6.2,0.1,9.2
						C479.5,42.3,479.3,42.9,478.9,43.3z"/>
				</g>
			</g>
			<g>
				<g>
					<path class="st1" d="M486.1,42.1c0.1,0.2,0.4,0,0.4,0.2c0,0.2-0.1,0.3-0.3,0.4c-0.4,0.2-0.8,0.2-1.3,0.1
						c-0.2-0.1-0.3-0.2-0.4-0.5c-0.1-0.4-0.1-0.8,0-1.2c0.5-2.2,0.7-4.5,0.5-6.7c-0.1-2.2-0.8-4.2-1.8-6.1c-0.2-0.4-0.2-0.8-0.2-1.2
						c0.1-0.4,0.2-0.6,0.7-0.6c0.3,0,0.5,0,0.8,0c0.4,0,0.6,0.1,0.8,0.5c0.6,1.4,1,2.8,1.4,4.3c0.7,3.1,0.6,6.2,0.1,9.2
						C486.7,41,486.5,41.6,486.1,42.1z"/>
				</g>
			</g>
		</g>
		<g class="st2">
			<g>
				<g>
					<path class="st1" d="M652.8,524.3c-0.2,0-0.4,0-0.6-0.1c-0.8-0.2-1.5-0.7-2-1.6c-0.2-0.4-0.4-0.8-0.6-1.2
						c-0.1-0.3-0.2-0.6-0.4-0.8c-0.3-0.5-0.5-1-0.7-1.5c-0.1-0.2-0.2-0.5-0.3-0.7c-0.5-1.2-1-2.1-1.5-2.9c-1.3-2.2-2.4-4.1-3.9-5.9
						c-1.9-2.5-3.7-4.6-5.7-6.4l-0.1-0.2c-0.5-0.6-1.1-1.1-1.7-1.6c-0.4-0.4-0.9-0.7-1.4-1.1c-0.9-0.8-1.4-1.7-1.4-2.7
						c0-0.9,0.4-1.8,1.2-2.6c0.2-0.2,0.5-0.5,0.5-0.6c0.4-0.6,2.2-2.5,3.2-3.3l6.3-6.6c0.1-0.1,1.9-1.9,2.7-2.8
						c1.1-1.3,2.3-2.5,3.7-3.8c1.7-1.6,3.3-3.3,4.9-5.1l1.1-1.2c2.4-2.6,4.9-3.2,8.3-3.4l5.9,0c1.6,0,3.1,0,4.6,0
						c2.6,0,5.2-0.1,7.9,0.2l1.5,0.2v24.8l-0.2,0.4c-0.6,1.2-1.5,2.1-2.2,2.8c-1.1,1.1-2.2,2.2-3.3,3.3l-0.3,0.3
						c-0.9,0.9-1.8,1.8-2.5,2.5c-1.2,1.2-2.3,2.3-3.5,3.5l-0.3,0.3c-0.8,0.7-1.5,1.5-2.5,2.5c-1,1-2,2-3,3l-0.7,0.7
						c-0.7,0.7-1.4,1.4-2.1,2.1c-1.2,1.2-2.7,2.7-4.2,4.2l-0.1,0.1c-0.5,0.5-1,1-1.5,1.5c-0.9,0.9-1.9,1.9-3,2.8
						C654.6,523.7,653.8,524.3,652.8,524.3z M639.7,500.7c2.1,2,4.1,4.2,6,6.8c1.6,1.9,2.9,4.1,4.2,6.3c0.5,1,1,1.9,1.6,3.2
						c0.1,0.3,0.3,0.6,0.4,0.9c0.1,0.4,0.3,0.7,0.5,1c0.3,0.5,0.4,0.9,0.6,1.3c0.1,0.1,0.1,0.3,0.2,0.4c0,0,0,0,0,0
						c0.9-0.7,1.7-1.5,2.6-2.4c0.5-0.5,1-1,1.6-1.5c1.5-1.5,3-3,4.2-4.2c0.7-0.8,1.5-1.5,2.2-2.2l0.7-0.7c1-1,2-2,3-3
						c1-1,1.8-1.8,2.6-2.5l0.2-0.2c1.2-1.2,2.3-2.3,3.5-3.5c0.7-0.8,1.6-1.7,2.6-2.6l0.3-0.3c1.1-1.1,2.2-2.2,3.3-3.3
						c0.5-0.5,1-1,1.4-1.6v-20.8c-1.9-0.1-3.9-0.1-5.9-0.1c-1.5,0-3.1,0.1-4.7,0l-5.8,0c-2.7,0.1-4.2,0.5-5.8,2.2l-1.1,1.2
						c-1.6,1.8-3.3,3.6-5.1,5.3c-1.3,1.2-2.4,2.3-3.4,3.5c-0.9,1.1-2.8,2.9-2.9,3l-6.5,6.7c-1,0.9-2.4,2.4-2.6,2.7
						c-0.3,0.4-1,1.1-1,1.1c-0.1,0-0.1,0.1-0.1,0.1c0,0.1,0.1,0.1,0.2,0.2c0.4,0.3,0.8,0.6,1.2,1C638.3,499.3,639,499.9,639.7,500.7
						z"/>
				</g>
			</g>
			<g>
				<g>
					<path class="st1" d="M538.5,616.5c-0.8,0-1.7-0.1-2.4-0.8c-0.7-0.7-0.8-1.7-0.8-2.5c0.1-6,0.1-12.5,0-20.5
						c0-1.4,0.5-2.6,1.5-3.6c0.9-0.9,1.9-2,2.9-3c0.6-0.6,1.2-1.2,1.7-1.8c0.6-0.8,1.4-1.5,2-2.1c0.2-0.2,0.4-0.4,0.6-0.6
						c3.8-3.7,7.5-7.7,11.1-11.5c3.8-4,7.7-8.2,11.7-12.1c0.3-0.3,0.6-0.5,0.9-0.8c0.4-0.4,0.8-0.7,1.2-1.1c2.4-2.5,5.2-2.8,7.9-0.7
						c1,0.6,1.9,1.2,3,1.8c0.5,0.3,1,0.6,1.5,0.9c0.6,0.4,1.2,0.7,1.8,1.1c0.4,0.2,0.7,0.4,1.1,0.6c0.5,0.3,1.1,0.6,1.6,1
						c0.4,0.2,0.7,0.5,1.1,0.7c3.1,1.8,6.2,3.8,9.3,5.7l3.2,2c1.4,0.9,2.9,2.3,1.5,4.6l-0.1,0.2l-0.1,0.2c-0.7,0.7-1.3,1.4-1.9,2.2
						c-0.9,1.1-1.9,2.3-3.1,3.3l-0.3,0.3c-0.2,0.2-0.4,0.4-0.6,0.6c-0.3,0.3-0.6,0.6-0.8,0.9c-0.1,0.2-0.2,0.3-0.3,0.4
						c-0.2,0.3-0.5,0.6-0.8,0.9c-2.1,1.9-4.1,4.1-6,6.1c-2,2.1-4,4.3-6.1,6.3c-0.9,0.8-1.7,1.7-2.5,2.5c-1.6,1.6-3.2,3.2-5,5
						c-2.7,2.8-4.6,4.7-6.8,6.9c-0.2,0.2-0.3,0.4-0.5,0.5c-0.3,0.3-0.9,0.9-1.2,1.1c-0.4,0.3-1.5,1.4-2,1.9l-0.2,0.2
						c-0.1,0.1-0.2,0.2-0.3,0.2l-0.5,0.5c-1.2,1.2-2.7,2.1-4.3,2.4l-0.2,0.1l-0.2,0c-6.9-0.1-12.7-0.1-18.1,0
						C538.6,616.5,538.5,616.5,538.5,616.5z M543.8,586.6c-0.5,0.6-1.1,1.2-1.7,1.8c-1,1.1-2,2.1-3,3.1c-0.4,0.4-0.5,0.6-0.5,1.1
						c0.1,8,0.1,14.5,0,20.4c5.3-0.1,11-0.1,17.8,0c0.9-0.2,1.8-0.8,2.5-1.5l0.7-0.8c0,0,0,0,0.1-0.1c0.2-0.2,0.4-0.4,0.6-0.5
						c0.8-0.7,1.5-1.5,2-1.9c0.2-0.2,0.7-0.6,0.9-0.8c0.2-0.2,0.4-0.4,0.6-0.6c2.2-2.2,4.1-4.1,6.8-6.9c1.8-1.8,3.4-3.4,5-5
						c0.8-0.8,1.7-1.7,2.6-2.6c2.1-1.9,4.1-4,6-6.1c2-2.1,4-4.3,6.2-6.3c0.1-0.1,0.2-0.3,0.4-0.5c0.2-0.2,0.4-0.5,0.5-0.7
						c0.3-0.3,0.6-0.6,0.9-1c0.3-0.2,0.5-0.5,0.7-0.7l0.4-0.4c1-0.9,1.9-1.9,2.8-3c0.5-0.6,1.1-1.3,1.6-1.9c0,0-0.1,0-0.1-0.1
						l-0.3-0.2l-3-1.8c-3-1.9-6.1-3.8-9.2-5.6c-0.4-0.3-0.8-0.5-1.2-0.8c-0.5-0.3-0.9-0.6-1.4-0.9c-0.4-0.2-0.7-0.4-1.1-0.6
						c-0.6-0.4-1.3-0.7-1.9-1.2c-0.5-0.3-1-0.6-1.5-0.9c-1.1-0.6-2.1-1.3-3.2-2l-0.1-0.1c-1.3-1-2.2-1-3.3,0.3
						c-0.4,0.5-0.9,0.9-1.4,1.3c-0.3,0.2-0.5,0.5-0.8,0.7c-4,3.9-7.9,8-11.6,12c-3.6,3.8-7.3,7.8-11.2,11.6
						c-0.2,0.2-0.4,0.4-0.7,0.6c-0.7,0.7-1.4,1.3-1.8,2L543.8,586.6L543.8,586.6z"/>
				</g>
			</g>
			<g>
				<g>
					<path class="st1" d="M585.3,614.6c-1.9-1.2-4.3-2-5.5-4.1c-0.9-1.6-0.6-3.1,0.7-4.3c1.3-1.3,2.7-1.5,4.4-0.7
						c0.4,0.2,0.8,0.4,1.1,0.5c1.1,0.6,2.2,1.2,3.4,1.7c3,0.9,6,1.1,9.1,0.1c1.3-0.3,2.5-0.9,3.5-1.9c1.2-1,2.2-2.3,3-3.7
						c1-1.3,1.5-2.9,2.4-4.2c1.2-2,2.1-4.2,3.2-6.2c2-3.1,3.7-6.3,5.8-9.3c2.9-4,6.2-7.6,9.7-11c0.3-0.3,0.7-0.7,1-1
						c3.7-3.6,7.1-7.3,9.5-11.9c0.9-1.9,1.6-3.9,2.3-5.9c3.2-12.3,1.7-23.9-6.2-34.1c-4.7-6-10.7-10.3-17.9-12.9c-1-0.4-2-0.3-3-0.6
						c-3.5-1.3-7.1-1.1-10.6-0.9c-5.3,0.2-10.5,1.4-15.3,3.9c-0.9,0.4-1.7,1-2.5,1.5c-4.7,2.8-8.4,6.7-11.4,11.2
						c-0.9,1.2-1.6,2.4-2.2,3.7c-0.3,0.5-0.5,1.1-0.8,1.6c-1.2,2.8-1.9,5.7-2.7,8.7c-0.6,2.5-1.6,3-4,2c-0.3-0.1,0.1,0-0.2-0.1
						c-4.8-2.3-5.4-3.7-3.8-8.7c0.9-2.6,1.9-5.2,3.2-7.6c1.3-2.5,2.5-5.1,4.3-7.3c1.1-1.1,1.8-2.4,2.9-3.5c1-0.7,1.8-1.6,2.6-2.5
						c1-1.1,2.3-1.9,3.4-2.9c1.2-0.9,2.6-1.7,3.8-2.6c1.5-0.9,3.1-1.7,4.6-2.6c7.7-3.7,15.9-4.9,24.4-4.1c0.8,0.2,1.5,0.3,2.3,0.3
						c1.5,0.2,3,0.5,4.5,0.9c8,2,14.9,6.2,21,11.7c0.3,0.3,0.7,0.7,1,1c1.2,1.2,2.4,2.4,3.4,3.8c0.6,0.7,1.1,1.5,1.7,2.3
						c1.5,2.4,3.2,4.7,3.8,7.5c0.7,1.9,1.4,3.9,2.2,5.8c0,0,0,0,0,0c1.1,2.7,1.8,5.6,2.1,8.6c0.5,6.6,0.5,13.1-1.8,19.5
						c-0.5,1.4-1,2.8-1.6,4.3c-2.6,5.9-6.4,10.9-11,15.4c-4.8,4.6-9.4,9.3-13.2,14.8c-1.7,2.3-3.3,4.6-4.4,7.2
						c-1.4,2.6-2.3,5.4-3.8,8c-0.4,0.6-0.9,1.3-1.3,1.9c-1,1.6-2.5,2.8-3.8,4.2c-1.1,1-2.4,1.7-3.6,2.6c-1.3,0.9-2.9,1.2-4.4,1.7
						C595.1,617.4,590.1,617.5,585.3,614.6z"/>
				</g>
			</g>
			<g>
				<g>
					<path class="st1" d="M573.8,532c-1.1-1-0.8-2-0.2-3.2c4.4-8.9,11.6-14.3,21.1-16.8c6-1.6,11.9-1.1,17.7,0.9
						c0.5,0.2,0.9,0.2,1.4,0.4c2.6,0.8,2.5,0.8,6.4,3.2c1,0.8,1.9,1.5,2.9,2.3l0.3,0.3c0.6,0.3,2.8,2.6,4.1,4.1c0.1,0.1-0.1-0.1,0,0
						l0,0l1.9,2.4c0,0,0.4,0.5,0.4,0.6c1.7,2.9,3.2,5.4,3.4,8.9c1.6,9.1,0.9,17.9-4.1,26c-0.9,2.3-2.2,3.3-3.8,2.8c0,0-0.1,0-0.1,0
						c-2.7-0.8-3.8-4.1-2.3-6.5c0.1-0.1,0.2-0.2,0.2-0.4c1.8-3.4,3-7,3.7-10.7c0.5-2.8-0.2-5.5-0.9-8.2c-0.3-1.7-1-3.3-1.7-4.8
						c-0.4-0.8-0.7-1.6-1.2-2.3c-1.3-2.2-3.2-4-5-5.7c-2.1-1.9-4.5-3.2-7.1-4.3c-0.1-0.1-0.3-0.1-0.4-0.2
						c-7.8-2.7-15.2-1.8-22.2,2.8c-2.7,1.9-4.9,4.2-6.7,7c-0.4,0.6-0.7,1.2-1.1,1.8c-1.7,2.7-2.9,2.9-5.6,1.2
						C574.5,533,574.1,532.5,573.8,532z"/>
				</g>
			</g>
		</g>
		<g class="st2">
			<g>
				<g>
					<path class="st1" d="M235.4,297.4c-2.6,0-5.1-0.6-7.8-1.7c-2.3-1-4.5-2.4-6.4-4.1c-1.5-1.4-2.8-2.9-3.9-4.6
						c-1.8-2.8-3-5.8-3.4-8.9c-0.1-0.8-0.1-1.5-0.1-2.2c-0.1-32.9-0.1-66.2,0-99.1c0-2.3,0.5-4.7,1.6-7.4c0.9-2.2,2.1-4.2,3.6-6
						c1.5-1.8,3.3-3.4,5.2-4.6c2.5-1.6,5.3-2.7,8.2-3.3c0.7-0.1,1.4-0.2,2.1-0.2l0.9,0c0,0,0,0,0,0l0.1,0l98.7,0c0,0,0.1,0,0.1,0
						h0.4c2.3,0,4.7,0.5,7.3,1.6c2,0.9,3.9,2,5.5,3.3c2.2,1.8,4.1,4,5.5,6.5c1.4,2.4,2.2,4.7,2.7,7.1c0.2,1,0.2,1.9,0.2,2.7v0.4
						c0,0,0,0.1,0,0.1l0,0.1l0,98.6c0,0,0,0,0,0v0.4c0.1,2.4-0.5,4.8-1.7,7.6c-0.9,2-2.1,3.9-3.6,5.7c-1.9,2.2-4.1,4-6.6,5.4
						c-2.1,1.1-4.3,1.9-6.6,2.4c-0.7,0.1-1.5,0.2-2.1,0.2l-0.3,0c-0.3,0-0.5,0-0.8,0h-98.6C235.5,297.4,235.5,297.4,235.4,297.4z
						 M235,158.8l-0.4,0c-0.6,0-1.1,0-1.5,0.1c-2.5,0.5-4.8,1.4-6.9,2.8c-1.7,1.1-3.2,2.4-4.5,4c-1.3,1.5-2.3,3.2-3.1,5.1
						c-0.9,2.3-1.4,4.2-1.3,6.1c-0.1,32.9-0.1,66.3,0,99.1c0,0.6,0,1.2,0.1,1.7c0.4,2.7,1.4,5.2,2.9,7.6c0.9,1.4,2,2.7,3.3,3.9
						c1.6,1.5,3.4,2.6,5.4,3.5c2.3,1,4.5,1.5,6.6,1.4h98.6c0.2,0,0.4,0,0.6,0l0.4,0c0.5,0,1.1,0,1.6-0.1c2-0.4,3.9-1.1,5.6-2
						c2.2-1.2,4.1-2.7,5.6-4.6c1.3-1.5,2.3-3.1,3-4.8c1-2.3,1.5-4.3,1.4-6.2l0-0.6c0-0.1,0-0.4,0-0.6v-97.3c-0.1-0.3,0-0.5,0-0.7
						l0-0.1v-0.4c0-0.7,0-1.4-0.1-2.1c-0.4-2-1.1-3.9-2.2-6c-1.2-2.1-2.8-3.9-4.7-5.5c-1.4-1.2-3-2.1-4.7-2.8
						c-2.1-0.9-4-1.3-5.9-1.3c0,0,0,0-0.1,0l-0.5,0c-0.2,0-0.4,0-0.7,0h-97.3c-0.3,0.1-0.5,0-0.6,0l-0.1,0H235z"/>
				</g>
			</g>
			<g>
				<g>
					<path class="st1" d="M262.2,168.1c-0.4-0.2-0.9-0.1-1.1-0.5c-1,0-2.1,0-3.1,0c-0.1,0.2-0.3,0.2-0.5,0.3c-3.2,1-5.3,3.9-5.3,7.1
						c0.1,3.5,2.8,6.7,6.2,7.1c3.8,0.5,7.2-1.8,8.1-5.4C267.4,173.2,265.6,169.5,262.2,168.1z M259.5,177.2c-1.3,0-2.4-1.1-2.4-2.4
						c0-1.3,1.1-2.4,2.4-2.3c1.3,0,2.3,1.1,2.3,2.4C261.8,176.1,260.8,177.2,259.5,177.2z"/>
				</g>
			</g>
			<g>
				<g>
					<path class="st1" d="M286.5,169.3c-1-0.8-2.1-1.2-3.3-1.7c-1,0-1.9,0-2.9,0c-0.2,0.4-0.6,0.3-1,0.4c-3.2,1.2-5.1,4.2-4.8,7.6
						c0.3,3,2.8,5.7,5.8,6.3c3.2,0.6,6.5-1.1,7.9-4.1C289.7,174.9,289,171.4,286.5,169.3z M281.7,177.2c-1.2-0.1-2.3-1.2-2.3-2.4
						c0-1.2,1.2-2.4,2.4-2.3c1.2,0,2.3,1.1,2.3,2.4C284.2,176.1,283,177.3,281.7,177.2z"/>
				</g>
			</g>
			<g>
				<g>
					<path class="st1" d="M321,249.1c-2.1-0.1-2.5,5.8-2.7,7.1c-0.1,0.7-0.2,1.5-0.3,2.3c-1.1,6.1-4,11.1-8.8,14.9
						c-0.8,0.7-1.2,1.5-1.2,2.6c0,2.2,0,4.5,0,6.7c0,1.2-0.5,1.7-1.7,1.7c-7.6,0-15.1,0-22.7,0c-1.1,0-1.6-0.5-1.6-1.6
						c0-1.7,0-3.4,0-5.2c0-1.2-0.4-2.1-1.3-2.8c-0.4-0.3-0.9-0.7-1.3-1.1c-4.9-4.8-7.7-10.5-8.3-17.3c-0.3-3.9-0.8-7.9-1.1-11.8
						c-0.4-4-0.8-8-1-12c-0.2-2.9,2.7-5.3,5.5-4.8c0.8,0.1,1.1,0.4,1.1,1.3c0,6.2,0,12.5,0,18.7c0,0.5,0,1,0.1,1.6
						c0.2,1.2,1.2,1.9,2.4,1.9c1.5,0,2.4-1.1,2.4-3c0-11.5,0-22.9,0-34.4c0-2.3,0-4.6,0-7c0-1.3,0.8-2.3,2.1-2.6
						c2-0.5,3.5,0.8,3.5,3c0,9.7,0,19.3,0,29c0,0.5,0,1,0.1,1.5c0.4,1.5,1.8,2.2,3.3,1.6c1.2-0.5,1.6-1.4,1.6-2.6
						c0-4.4,0-8.9,0-13.3c0-0.6,0-1.1,0.2-1.7c0.3-1.2,1.3-2,2.5-2.1c1.1-0.1,2.3,0.6,2.8,1.7c0.2,0.6,0.3,1.2,0.3,1.8
						c0,4.6,0,9.2,0,13.8c0,1.5,0.9,2.5,2.2,2.7c1.5,0.2,2.8-1,2.8-2.7c0-4,0-8.1,0-12.1c0-1.3,0.9-2.4,2-2.7
						c1.3-0.3,2.7,0.2,3.3,1.3c0.4,0.6,0.3,1.3,0.3,2c0,3.8,0,7.5,0,11.3c0,1.7,0.9,2.8,2.2,2.9c1.5,0.1,2.7-1,2.8-2.7
						c0.1-2.4,0.1-4.8,0.2-7.2c0-1.8,1.2-2.9,2.8-2.9c1.7,0,2.7,1.2,2.8,2.9c0,1.7-0.4,4.9-0.3,6.6c0.3,8.4,3.6,6,3.6,6
						s0.8-0.2,1.6-4.7c0,0,0.5-7.6-0.3-10.3c-1.1-4.1-5.4-6.4-9.4-5.2c-1,0.3-1.3,0.1-1.8-0.9c-1.7-3.8-6.2-5.4-10-3.7
						c-0.8,0.4-1.3,0.5-1.9-0.4c-1.2-1.5-2.8-2.3-4.7-2.5c-1.3-0.1-2.6,0-3.9,0.4c0-2.3-0.1-4.5,0-6.7c0.2-3.7-0.8-6.7-4.2-8.5
						c3.4-3.8,2.3-8.6-0.6-10.9c-3.1-2.4-7.7-1.9-10.2,1.2c-2.2,2.8-2.5,7.7,2.1,10.8c-1.9,1.7-2.6,3.9-2.6,6.4c0,4.7,0,9.5,0,14.2
						c0,0.9-0.2,1.1-1.1,1c-1-0.1-1.9,0-2.9,0.2c-4.9,1.1-8,5.3-7.5,10.3c0.4,4.9,0.8,9.8,1.3,14.7c0.3,3.5,0.5,7.1,1,10.6
						c1.1,7.3,4.4,13.6,9.9,18.7c0.5,0.5,0.8,0.9,0.7,1.7c-0.1,1.2,0,2.4,0,3.6c0.1,4,2.7,6.5,6.7,6.5c7.7,0,15.4,0,23.1,0
						c3.2,0,5.8-2.5,6-5.7c0.1-1.9,0.1-3.8,0-5.6c0-0.8,0.2-1.3,0.8-1.9c3-2.6,5.3-5.8,6.9-9.4c1.4-3.1,2.3-6.4,2.6-9.9
						C323.2,255.4,324.6,249.2,321,249.1z M281.8,192.7c1.3,0,2.4,1.1,2.4,2.3c0,1.3-1.1,2.4-2.3,2.4c-1.3,0-2.5-1.1-2.5-2.4
						C279.4,193.8,280.5,192.7,281.8,192.7z"/>
				</g>
			</g>
			<g>
				<g>
					<path class="st1" d="M259.4,210.7c-3.9,0.1-7.2,3.4-7.2,7.3c0,3.9,3.3,7.3,7.3,7.3c3.9,0,7.2-3.3,7.3-7.2
						C266.8,214,263.4,210.6,259.4,210.7z M259.5,220.3c-1.4,0-2.3-1-2.3-2.3c0-1.3,1-2.3,2.3-2.3c1.4,0,2.3,1,2.3,2.3
						C261.8,219.3,260.8,220.3,259.5,220.3z"/>
				</g>
			</g>
			<g>
				<g>
					<path class="st1" d="M237.9,189.1c-4,0-7.2,3.2-7.3,7.2c0,3.9,3.3,7.3,7.2,7.3c4,0,7.3-3.3,7.3-7.3
						C245.2,192.4,241.9,189.2,237.9,189.1z M237.9,198.8c-1.3,0-2.3-1.1-2.4-2.4c0-1.3,1-2.4,2.3-2.4c1.3,0,2.3,1,2.4,2.3
						C240.3,197.7,239.2,198.8,237.9,198.8z"/>
				</g>
			</g>
			<g>
				<g>
					<path class="st1" d="M259.5,189.2c-4,0-7.3,3.2-7.3,7.2c0,4,3.3,7.3,7.3,7.3c3.9,0,7.2-3.3,7.2-7.3
						C266.7,192.4,263.5,189.1,259.5,189.2z M259.5,198.8c-1.3,0-2.3-1.1-2.3-2.4c0-1.3,1-2.4,2.4-2.3c1.3,0,2.3,1,2.3,2.4
						C261.8,197.7,260.8,198.8,259.5,198.8z"/>
				</g>
			</g>
		</g>
		<g class="st2">
			<g>
				<path class="st1" d="M322.6,245.6c0,1.1-0.9,2-1.9,1.9c-1.1,0-1.9-0.9-1.9-2c0-1.1,0.9-1.9,1.9-1.9
					C321.7,243.7,322.6,244.5,322.6,245.6z"/>
			</g>
		</g>
		<g class="st2">
			<g>
				<path class="st1" d="M569.1,241.7l-9.9,0c-0.3,0-0.5-0.1-0.7-0.1c-0.5-0.1-2.8-0.4-4-0.6c-16-2.6-29.4-10.2-40-22.8
					c-7.5-8.9-12.3-19.8-14-31.4c-2.5-17.2,1.3-33,11.3-46.9c9.7-13.5,22.9-22.2,39.1-25.6c34.3-7.3,68.4,14.6,76.1,48.7
					c0.6,2.9,1.3,8.5,1.3,8.7l0.2,2l0,9c-0.1,0.6-0.1,1.3-0.2,2c0,0.7-0.1,1.3-0.2,2c-1.7,11.8-6.5,22.6-14.4,32
					c-5.8,7-13,12.6-21.4,16.8c-6,3-12.4,4.9-18.9,5.8c-0.8,0.1-1.5,0.1-2.3,0.2c-0.8,0-1.5,0-2.2,0.2L569.1,241.7z M560.4,238.3
					h8.4c0.8-0.1,1.7-0.2,2.4-0.2c0.7,0,1.3,0,1.9-0.1c6.1-0.8,12.1-2.7,17.9-5.5c7.9-3.9,14.7-9.2,20.2-15.9
					c7.4-8.9,12-19.1,13.6-30.3c0.1-0.5,0.1-1.1,0.1-1.7c0-0.8,0.1-1.5,0.2-2.3v-8.5l-0.2-1.6c0-0.1-0.7-5.7-1.3-8.4
					c-7.3-32.3-39.6-53-72-46.1c-15.4,3.3-27.8,11.4-37,24.2c-9.4,13.2-13,28.1-10.7,44.4c1.6,11,6.1,21.2,13.2,29.6
					c10,11.9,22.7,19.2,37.9,21.6c1.3,0.2,4,0.6,4,0.6l0.2,0c0,0,0.2,0.1,0.3,0.1H560.4z"/>
			</g>
		</g>
		<g class="st2">
			<g>
				<path class="st1" d="M549.1,220.9c-0.1,0-0.2,0-0.3,0c-3.5-0.2-6.4-2.4-7.4-5.8c-0.5-1.7-0.4-3.5,0.3-5.3c1-2.5,2-5.1,3-7.6
					c2.2-5.6,4.4-11.4,6.7-17c0.9-2.1,0.8-4.4,0.8-6.7c0-0.6,0-1.2,0-1.8c0,0-0.1,0-0.1,0c-2.3-0.2-4.7-0.5-7-0.7
					c-1.2-0.1-2.5-0.2-3.7-0.3c-2.5-0.2-5-0.4-7.5-0.7c-4.1-0.5-7.4-4.5-6.9-8.6c0.5-4.5,4.1-7.7,8.4-7.4c4.5,0.3,9,0.8,13.4,1.2
					l3.2,0.3c8.4,0.8,16,0.8,23.2,0.1c5.8-0.5,12-1.1,18.3-1.6c2.2-0.2,4.3,0.5,5.9,1.9c1.6,1.4,2.6,3.4,2.8,5.7
					c0.3,4.2-3.1,8-7.5,8.4c-5.5,0.5-10.8,1-16.8,1.5c-0.6,0.1-0.8,0.1-0.9,0.2c0,0.1-0.1,0.4-0.2,1.2c-0.4,3.9,0.9,7.5,2.5,11.4
					c2.6,6.3,5.1,12.8,7.5,19.1l0.6,1.5c1.6,4.2-0.2,8.6-4.2,10.4c-2,0.9-4.2,0.9-6.2,0.1c-2-0.8-3.6-2.4-4.4-4.4
					c-2.1-5-4.2-10.1-6.3-15.2l-1.7-4.1l-1.1,2.7c-2.3,5.5-4.5,11-6.8,16.5C555.1,218.9,552.2,220.9,549.1,220.9z M534.6,162.3
					c-2.3,0-4.1,1.8-4.4,4.3c-0.2,2.2,1.6,4.5,3.9,4.7c2.5,0.3,5,0.5,7.4,0.7c1.2,0.1,2.5,0.2,3.7,0.3c2.4,0.2,4.7,0.4,7.1,0.7
					c1.9,0.2,3.3,1.6,3.2,3.4c0,0.6,0,1.2,0,1.8c0.1,2.6,0.1,5.3-1,8.1c-2.3,5.6-4.5,11.4-6.7,17c-1,2.6-2,5.1-3,7.6
					c-0.4,1.1-0.5,2.1-0.2,3.1c0.6,1.9,2.2,3.2,4.3,3.3c1.8,0.1,3.6-1.1,4.3-2.9c2.3-5.5,4.5-11,6.8-16.5l3.5-8.6l1.8,1.6
					c0.7,0.6,0.9,1.2,1,1.6c0,0.1,0,0.1,0.1,0.2l2.7,6.6c2.1,5.1,4.2,10.1,6.3,15.1c0.5,1.2,1.4,2.1,2.5,2.5
					c1.1,0.4,2.4,0.4,3.5-0.1c2.3-1,3.3-3.5,2.3-6l-0.6-1.5c-2.4-6.2-4.9-12.7-7.5-19c-1.7-4.2-3.2-8.3-2.7-13.1
					c0.3-2.7,1-4.2,4.3-4.5c5.9-0.5,11.3-1,16.8-1.5c2.5-0.2,4.5-2.3,4.3-4.7c-0.1-1.3-0.7-2.5-1.6-3.3c-0.9-0.8-2.1-1.1-3.3-1
					c-6.3,0.5-12.4,1-18.2,1.6c-7.5,0.7-15.3,0.7-23.9-0.1l-3.2-0.3c-4.4-0.4-8.9-0.8-13.3-1.2C534.8,162.4,534.7,162.3,534.6,162.3
					z"/>
			</g>
		</g>
		<g class="st2">
			<g>
				<path class="st1" d="M564.3,160.3c-3.8,0-7.4-1.5-10.1-4.2c-2.7-2.7-4.2-6.3-4.2-10.1c0-3.8,1.5-7.4,4.2-10.1
					c2.7-2.7,6.2-4.1,10.1-4.1c0,0,0,0,0.1,0l0,0c3.9,0,7.5,1.5,10.1,4.2c2.7,2.7,4.1,6.3,4.1,10.1
					C578.5,154,572.3,160.2,564.3,160.3C564.4,160.3,564.3,160.3,564.3,160.3z M564.3,135.2c-2.9,0-5.6,1.1-7.6,3.1
					c-2,2-3.2,4.8-3.2,7.7c0,2.9,1.1,5.6,3.2,7.7c2,2,4.7,3.1,7.6,3.1c0,0,0,0,0,0c6,0,10.7-4.7,10.8-10.7c0-2.9-1.1-5.6-3.1-7.7
					C570,136.3,567.3,135.2,564.3,135.2C564.4,135.2,564.3,135.2,564.3,135.2z"/>
			</g>
		</g>
		<g class="st2">
			<g>
				<g>
					<path class="st1" d="M533.7,903.6c-15.9,0-30.9-6.2-42.2-17.5c-11.5-11.4-17.8-26.5-17.8-42.6c0-33.1,26.9-60.2,60.1-60.3
						c0.1,0,0.1,0,0.2,0c16,0,31,6.2,42.4,17.6c11.4,11.4,17.7,26.5,17.7,42.5c0.1,33.1-26.9,60.2-60.2,60.3
						C533.8,903.6,533.7,903.6,533.7,903.6z M533.9,786.7c0,0-0.1,0-0.1,0c-31.3,0.1-56.7,25.6-56.7,56.8c0,15.1,6,29.4,16.8,40.2
						c10.7,10.7,24.8,16.5,39.8,16.5c0.1,0,0.1,0,0.2,0c31.3-0.1,56.8-25.6,56.7-56.8c0-15.1-6-29.4-16.7-40.1
						C563.1,792.6,548.9,786.7,533.9,786.7z"/>
				</g>
			</g>
			<g>
				<g>
					<path class="st1" d="M518.6,887c-0.1,0-0.2,0-0.3,0c-3.5-0.2-6.4-2.4-7.4-5.8c-0.5-1.7-0.4-3.5,0.3-5.3c1-2.5,2-5.1,3-7.6
						c2.2-5.6,4.4-11.4,6.7-17c0.9-2.1,0.8-4.4,0.8-6.7c0-0.6,0-1.2,0-1.8c0,0-0.1,0-0.1,0c-2.3-0.2-4.7-0.5-7-0.7
						c-1.2-0.1-2.5-0.2-3.7-0.3c-2.5-0.2-5-0.4-7.5-0.7c-4.1-0.5-7.4-4.5-6.9-8.6c0.5-4.5,4.1-7.7,8.4-7.4c4.5,0.3,9,0.8,13.4,1.2
						l3.1,0.3c8.4,0.8,16,0.8,23.2,0.1c5.8-0.5,12-1.1,18.3-1.6c2.2-0.2,4.3,0.5,5.9,1.9c1.6,1.4,2.6,3.4,2.8,5.7
						c0.3,4.2-3.1,8-7.5,8.4c-5.5,0.5-10.8,1-16.8,1.5c-0.6,0.1-0.8,0.1-0.9,0.2c0,0.1-0.1,0.4-0.2,1.2c-0.4,3.9,0.9,7.5,2.5,11.4
						c2.6,6.3,5.1,12.8,7.5,19.1l0.6,1.4c1.6,4.2-0.2,8.6-4.2,10.4c-2,0.9-4.2,0.9-6.2,0.1c-2-0.8-3.6-2.4-4.4-4.4
						c-2.1-5.1-4.2-10.1-6.3-15.2l-1.7-4.1l-1.1,2.7c-2.3,5.5-4.5,11-6.8,16.5C524.7,885,521.7,887,518.6,887z M504.1,828.5
						c-2.3,0-4.1,1.8-4.4,4.3c-0.2,2.2,1.6,4.5,3.9,4.7c2.5,0.3,5,0.5,7.4,0.7c1.2,0.1,2.5,0.2,3.7,0.3c2.4,0.2,4.7,0.4,7.1,0.7
						c1.9,0.2,3.3,1.6,3.2,3.4c0,0.6,0,1.2,0,1.8c0.1,2.6,0.1,5.3-1,8.1c-2.3,5.6-4.5,11.4-6.7,17c-1,2.6-2,5.1-3,7.6
						c-0.4,1.1-0.5,2.1-0.2,3.1c0.6,1.9,2.2,3.2,4.3,3.3c1.8,0.1,3.6-1.1,4.3-2.9c2.3-5.5,4.5-11,6.8-16.5l3.5-8.6l1.8,1.6
						c0.7,0.6,0.9,1.2,1,1.6c0,0.1,0,0.1,0.1,0.2l2.7,6.6c2.1,5.1,4.2,10.1,6.3,15.2c0.5,1.2,1.4,2.1,2.5,2.5
						c1.1,0.4,2.4,0.4,3.5-0.1c2.3-1,3.3-3.5,2.3-6l-0.6-1.4c-2.4-6.2-4.9-12.7-7.5-19c-1.7-4.2-3.2-8.3-2.7-13.1
						c0.3-2.7,1-4.2,4.3-4.5c5.9-0.5,11.3-1,16.8-1.5c2.5-0.2,4.5-2.3,4.3-4.7c-0.1-1.3-0.7-2.5-1.6-3.3c-0.9-0.8-2.1-1.1-3.3-1
						c-6.3,0.5-12.4,1-18.2,1.6c-7.5,0.7-15.3,0.7-23.9-0.1l-3.1-0.3c-4.4-0.4-8.9-0.8-13.4-1.2
						C504.3,828.5,504.2,828.5,504.1,828.5z"/>
				</g>
			</g>
			<g>
				<g>
					<path class="st1" d="M533.8,826.4c-3.8,0-7.4-1.5-10.1-4.2c-2.7-2.7-4.2-6.3-4.2-10.1c0-3.8,1.5-7.4,4.2-10.1
						c2.7-2.7,6.2-4.1,10-4.1c0,0,0,0,0.1,0c3.9,0,7.5,1.5,10.1,4.2c2.7,2.7,4.1,6.3,4.1,10.1C548,820.1,541.8,826.4,533.8,826.4
						C533.9,826.4,533.8,826.4,533.8,826.4z M533.8,801.3c-2.9,0-5.6,1.1-7.6,3.1c-2,2-3.2,4.8-3.2,7.7c0,2.9,1.1,5.6,3.2,7.7
						c2,2,4.7,3.1,7.6,3.1c0,0,0,0,0,0c6,0,10.7-4.7,10.8-10.7c0-2.9-1.1-5.6-3.1-7.7C539.5,802.5,536.8,801.3,533.8,801.3
						L533.8,801.3C533.9,801.3,533.8,801.3,533.8,801.3z"/>
				</g>
			</g>
		</g>
		<g class="st2">
			<g>
				<g>
					<path class="st1" d="M392.5,571.3c0.7,0,1.2,0,1.7,0c12.7,0,25.4,0,38.2,0c0.5,0,1.1-0.1,1.6,0.2c1,0.5,1.5,1.2,1.4,2.3
						c-0.1,1.1-0.7,1.9-1.8,2c-0.6,0.1-1.2,0.1-1.8,0.1c-13.5,0-27.1,0-40.6,0c-0.5,0-1,0-1.5,0c-2.2,0.1-3.3-1.6-2.5-3.7
						c1.6-4.1,3.5-8.2,4.6-12.5c2.8-11,0.9-21.1-5.7-30.1c-5.3-7.3-9.3-15.2-10.9-24.3c-3.2-18.9,5.3-37.3,21.6-45.9
						c12.9-6.8,26.5-8.5,40.5-4.6c14.4,4,23.6,14.2,29.1,28.4c2.1,5.4,3.2,11.1,3.8,16.9c0.2,1.7,0,3.3-1,4.7
						c-0.4,0.6-0.2,0.9,0.1,1.3c2.5,3.8,5,7.7,7.6,11.6c2.7,4.1,1.3,9.1-3.2,10.9c-2.2,0.9-2.2,0.9-1.4,3.2c0.1,0.4,0.2,0.8,0.4,1.2
						c1.1,1.7,0.1,3.5-1.8,4c1.3,1.6,1.4,2.8-0.2,4.1c-1.5,1.2-2.1,2.4-1.1,4.4c1.1,2.2,1.1,4.8,0.6,7.2c-1,4.6-4.4,7.6-8.9,7.7
						c-2.5,0.1-5-0.4-7.5-0.8c-3.1-0.5-6.6,1.8-7.2,5c-0.5,2.8-0.9,5.6-1.4,8.4c-0.1,0.4-0.1,0.8-0.3,1.2c-0.4,1.2-1.4,1.8-2.5,1.5
						c-1.1-0.2-1.9-1.3-1.7-2.5c0.5-3.2,0.9-6.4,1.6-9.6c1.4-6.1,7-9.6,12.9-8.5c2.1,0.4,4.3,0.9,6.6,0.5c2.9-0.6,4.5-2.7,4.2-5.8
						c-0.2-1.9-0.7-3.8-1.7-5.5c-1-1.7-0.9-2.4,0.6-3.8c1.2-1.2,1.2-1.2-0.2-2c-1.1-0.6-1.9-1.4-1.7-2.9c0.2-1.4,1.3-1.7,2.4-2
						c2.5-0.6,2.5-0.7,1.6-3.2c-0.1-0.4-0.3-0.8-0.4-1.2c-0.5-1.5,0-2.6,1.3-3.2c1.4-0.6,2.9-1.2,4.3-1.9c1.6-0.8,2-2,1-3.5
						c-3-4.7-6-9.3-9.1-13.9c-1.1-1.8-1-2.8,0.7-3.9c0.6-0.4,0.9-0.9,0.8-1.7c-1-11.9-4.7-22.6-12.7-31.3
						c-6.2-6.8-13.9-10.5-22.8-11.7c-11.5-1.6-22.5,0.2-32.6,6.1c-10.6,6.1-16.8,15.7-18.5,28.4c-1.4,10.7,1.5,20.4,6.9,29.3
						c1.8,2.9,4,5.5,5.6,8.5c6.6,11.5,7.3,23.4,2.6,35.8C393.9,567.7,393.3,569.4,392.5,571.3z"/>
				</g>
			</g>
			<g>
				<g>
					<path class="st1" d="M452.9,484.2c-0.8,2.6-2.2,4.6-4.2,6.2c-1.3,1-2.7,0.9-3.5-0.2c-0.8-1.2-0.6-2.4,0.8-3.5
						c1.7-1.3,2.6-3,2.9-5.1c0.2-1.3-0.1-2.4-0.9-3.4c-0.1,0.1-0.2,0.1-0.2,0.1c-0.4,1.6-1.3,2.5-2.4,2.3c-1.3-0.2-2-1.2-2-2.9
						c0-3.1-1.7-5.4-4.4-5.9c-0.5-0.1-0.8-0.1-1.2,0.5c-1.2,1.7-3.3,1.5-3.9-0.6c-1.2-4.1-6.6-4.8-8.7-1c-0.7,1.3-2,1.5-3,0.8
						c-1-0.7-1.4-1.9-0.7-3.1c0.6-1.1,0.1-1.3-0.7-1.4c-3.3-0.6-6.1,2.1-5.6,5.2c0.1,0.6,0.2,1.2-0.1,1.8c-0.5,0.9-1.2,1.4-2.2,1.3
						c-1.1-0.1-1.7-0.8-1.9-1.9c-0.2-1.1-0.4-2.2-0.1-3.4c0.3-0.9-0.1-1.2-1-1.3c-4.3-0.5-8.8,3.5-9,8.1c0,0.3,0,0.7,0,1
						c-0.2,1.3-1.2,2.2-2.3,2.2c-1.1-0.1-2.1-1-2.1-2.3c0-0.9,0.1-1.9,0.2-2.8c-1.4,0.5-2.3,1.9-2.1,3.4c0.2,2.6,0.2,2.7-2.1,3.6
						c-1.5,0.6-2.3,2.2-1.9,3.8c0.4,1.7,2,2.8,3.7,2.5c0.5-0.1,0.9-0.3,1.4-0.4c1.2-0.3,2.2,0.3,2.6,1.5c0.4,1.1,0,2.3-1.1,2.8
						c-2.1,1-4.2,1.1-6.3,0.1c-0.8-0.3-1.2-0.2-1.7,0.5c-2,2.7-2.6,5.7-1.8,8.9c0.8-0.7,1.5-1.5,2.4-2.2c1.2-1,2.5-1,3.3,0.1
						c0.8,1.1,0.7,2.3-0.5,3.4c-2,1.8-2.7,4.1-2,6.8c0.7,2.5,2.2,4.3,4.7,5c0.7,0.2,0.9,0.1,1-0.7c0.1-0.8,0.3-1.7,0.6-2.4
						c0.5-1.3,1.7-1.9,2.8-1.5c1.1,0.4,1.7,1.6,1.3,2.9c-0.3,1.3-0.6,2.5-0.3,3.9c1,4.4,6.4,6.5,9.8,3.6c0.2-0.1,0.3-0.3,0.5-0.5
						c1.2-1.1,2.4-1.1,3.3-0.1c0.9,1,0.7,2.4-0.4,3.5c-4.9,5-13.1,3.6-16.6-3c-0.3-0.5-0.4-1-1.2-1.1c-5.6-0.5-9.5-4.3-10.3-10.2
						c-0.1-0.5-0.3-1-0.6-1.4c-4-5.5-3.7-13,0.6-18.3c0.6-0.7,0.7-1.2,0.4-2.1c-1.1-3.2,0.1-6.8,2.8-8.9c0.5-0.4,0.8-0.8,0.9-1.5
						c0.7-4.4,3.7-7.1,7.9-7.1c0.6,0,0.9-0.3,1.3-0.7c3.5-4.1,7.9-5.8,13.1-4.5c0.7,0.2,1.1,0.1,1.7-0.4c3.4-2.6,7.2-2.7,10.7-0.2
						c0.4,0.3,0.7,0.3,1.2,0.2c3.8-1.3,7.1-0.6,9.9,2.4c0.4,0.4,0.8,0.5,1.3,0.5c3.8-0.2,6.8,1.5,9,4.8c0.3,0.5,0.7,0.8,1.3,0.9
						c2.5,0.6,4.2,2.3,5.2,4.7c0.2,0.6,0.5,1,1,1.4c5.7,3.7,6.8,11.7,2.3,16.9c-0.5,0.6-0.7,1.1-0.7,1.9c0,2-1,3.5-2.5,4.6
						c-2.5,1.8-5.3,2.5-8.2,3c-0.1,0-0.3,0-0.4,0c-3.2,0.4-3.2,0.4-4.1,3.8c-0.6,2.3-2,4-3.9,5.2c-1.9,1.3-3.9,2-6.1,2.6
						c-3.2,0.8-4.9,2.9-5.3,6.3c-0.3,2.7-0.7,5.3-1.1,8c-0.2,1.4-1.2,2.3-2.3,2.2c-1.3-0.1-2.2-1.1-2-2.7c0.4-3.3,0.7-6.7,1.4-9.9
						c1-4.5,3.9-7.2,8.1-8.4c1.9-0.5,3.7-1.1,5.3-2.3c1-0.8,1.6-1.7,1.7-3c0.3-3.3,2.7-5.7,5.8-6.1c2.4-0.3,4.8-0.6,7.1-1.6
						c1.9-0.9,2-1,1.7-3.1c-0.2-1.2,0.2-2,1.2-2.7C454.9,491.5,455.4,487.1,452.9,484.2z"/>
				</g>
			</g>
		</g>
		<g class="st2">
			<g>
				<g>
					<path class="st1" d="M32.5,304.5c0.7,0,1.2,0,1.7,0c12.7,0,25.4,0,38.2,0c0.5,0,1.1-0.1,1.6,0.2c1,0.5,1.5,1.2,1.4,2.3
						c-0.1,1.1-0.7,1.9-1.8,2c-0.6,0.1-1.2,0.1-1.8,0.1c-13.5,0-27.1,0-40.6,0c-0.5,0-1,0-1.5,0c-2.2,0.1-3.3-1.6-2.5-3.7
						c1.6-4.1,3.5-8.2,4.6-12.5c2.8-11,0.9-21.1-5.7-30.1c-5.3-7.3-9.3-15.2-10.9-24.3c-3.2-18.9,5.3-37.3,21.6-45.9
						c12.9-6.8,26.5-8.5,40.5-4.6c14.4,4,23.6,14.2,29.1,28.4c2.1,5.4,3.2,11.1,3.8,16.9c0.2,1.7,0,3.3-1,4.7
						c-0.4,0.6-0.2,0.9,0.1,1.3c2.5,3.8,5,7.7,7.6,11.6c2.7,4.1,1.3,9.1-3.2,10.9c-2.2,0.9-2.2,0.9-1.4,3.2c0.1,0.4,0.2,0.8,0.4,1.2
						c1.1,1.7,0.1,3.5-1.8,4c1.3,1.6,1.4,2.8-0.2,4.1c-1.5,1.2-2.1,2.4-1.1,4.4c1.1,2.2,1.1,4.8,0.6,7.2c-1,4.6-4.4,7.6-8.9,7.7
						c-2.5,0.1-5-0.4-7.5-0.8c-3.1-0.5-6.6,1.8-7.2,5c-0.5,2.8-0.9,5.6-1.4,8.4c-0.1,0.4-0.1,0.8-0.3,1.2c-0.4,1.2-1.4,1.8-2.5,1.5
						c-1.1-0.2-1.9-1.3-1.7-2.5c0.5-3.2,0.9-6.4,1.6-9.6c1.4-6.1,7-9.6,12.9-8.5c2.1,0.4,4.3,0.9,6.6,0.5c2.9-0.6,4.5-2.7,4.2-5.8
						c-0.2-1.9-0.7-3.8-1.7-5.5c-1-1.7-0.9-2.4,0.6-3.8c1.2-1.2,1.2-1.2-0.2-2c-1.1-0.6-1.9-1.4-1.7-2.9c0.2-1.4,1.3-1.7,2.4-2
						c2.5-0.6,2.5-0.7,1.6-3.2c-0.1-0.4-0.3-0.8-0.4-1.2c-0.5-1.5,0-2.6,1.3-3.2c1.4-0.6,2.9-1.2,4.3-1.9c1.6-0.8,2-2,1-3.5
						c-3-4.7-6-9.3-9.1-13.9c-1.1-1.8-1-2.8,0.7-3.9c0.6-0.4,0.9-0.9,0.8-1.7c-1-11.9-4.7-22.6-12.7-31.3
						c-6.2-6.8-13.9-10.5-22.8-11.7c-11.5-1.6-22.5,0.2-32.6,6.1c-10.6,6.1-16.8,15.7-18.5,28.4c-1.4,10.7,1.5,20.4,6.9,29.3
						c1.8,2.9,4,5.5,5.6,8.5c6.6,11.5,7.3,23.4,2.6,35.8C33.9,301,33.3,302.6,32.5,304.5z"/>
				</g>
			</g>
			<g>
				<g>
					<path class="st1" d="M92.9,217.4c-0.8,2.6-2.2,4.6-4.2,6.2c-1.3,1-2.7,0.9-3.5-0.2c-0.8-1.2-0.6-2.4,0.8-3.5
						c1.7-1.3,2.6-3,2.9-5.1c0.2-1.3-0.1-2.4-0.9-3.4c-0.1,0.1-0.2,0.1-0.2,0.1c-0.4,1.6-1.3,2.5-2.4,2.3c-1.3-0.2-2-1.2-2-2.9
						c0-3.1-1.7-5.4-4.4-5.9c-0.5-0.1-0.8-0.1-1.2,0.5c-1.2,1.7-3.3,1.5-3.9-0.6c-1.2-4.1-6.6-4.8-8.7-1c-0.7,1.3-2,1.5-3,0.8
						c-1-0.7-1.4-1.9-0.7-3.1c0.6-1.1,0.1-1.3-0.7-1.4c-3.3-0.6-6.1,2.1-5.6,5.2c0.1,0.6,0.2,1.2-0.1,1.8c-0.5,0.9-1.2,1.4-2.2,1.3
						c-1.1-0.1-1.7-0.8-1.9-1.9c-0.2-1.1-0.4-2.2-0.1-3.4c0.3-0.9-0.1-1.2-1-1.3c-4.3-0.5-8.8,3.5-9,8.1c0,0.3,0,0.7,0,1
						c-0.2,1.3-1.2,2.2-2.3,2.2c-1.1-0.1-2.1-1-2.1-2.3c0-0.9,0.1-1.9,0.2-2.8c-1.4,0.5-2.3,1.9-2.1,3.4c0.2,2.6,0.2,2.7-2.1,3.6
						c-1.5,0.6-2.3,2.2-1.9,3.8c0.4,1.7,2,2.8,3.7,2.5c0.5-0.1,0.9-0.3,1.4-0.4c1.2-0.3,2.2,0.3,2.6,1.5c0.4,1.1,0,2.3-1.1,2.8
						c-2.1,1-4.2,1.1-6.3,0.1c-0.8-0.3-1.2-0.2-1.7,0.5c-2,2.7-2.6,5.7-1.8,8.9c0.8-0.7,1.5-1.5,2.4-2.2c1.2-1,2.5-1,3.3,0.1
						c0.8,1.1,0.7,2.3-0.5,3.4c-2,1.8-2.7,4.1-2,6.8c0.7,2.5,2.2,4.3,4.7,5c0.7,0.2,0.9,0.1,1-0.7c0.1-0.8,0.3-1.7,0.6-2.4
						c0.5-1.3,1.7-1.9,2.8-1.5c1.1,0.4,1.7,1.6,1.3,2.9c-0.3,1.3-0.6,2.5-0.3,3.9c1,4.4,6.4,6.5,9.8,3.6c0.2-0.1,0.3-0.3,0.5-0.5
						c1.2-1.1,2.4-1.1,3.3-0.1c0.9,1,0.7,2.4-0.4,3.5c-4.9,5-13.1,3.6-16.6-3c-0.3-0.5-0.4-1-1.2-1.1c-5.6-0.5-9.5-4.3-10.3-10.2
						c-0.1-0.5-0.3-1-0.6-1.4c-4-5.5-3.7-13,0.6-18.3c0.6-0.7,0.7-1.2,0.4-2.1c-1.1-3.2,0.1-6.8,2.8-8.9c0.5-0.4,0.8-0.8,0.9-1.5
						c0.7-4.4,3.7-7.1,7.9-7.1c0.6,0,0.9-0.3,1.3-0.7c3.5-4.1,7.9-5.8,13.1-4.5c0.7,0.2,1.1,0.1,1.7-0.4c3.4-2.6,7.2-2.7,10.7-0.2
						c0.4,0.3,0.7,0.3,1.2,0.2c3.8-1.3,7.1-0.6,9.9,2.4c0.4,0.4,0.8,0.5,1.3,0.5c3.8-0.2,6.8,1.5,9,4.8c0.3,0.5,0.7,0.8,1.3,0.9
						c2.5,0.6,4.2,2.3,5.2,4.7c0.2,0.6,0.5,1,1,1.4c5.7,3.7,6.8,11.7,2.3,16.9c-0.5,0.6-0.7,1.1-0.7,1.9c0,2-1,3.5-2.5,4.6
						c-2.5,1.8-5.3,2.5-8.2,3c-0.1,0-0.3,0-0.4,0c-3.2,0.4-3.2,0.4-4.1,3.8c-0.6,2.3-2,4-3.9,5.2c-1.9,1.3-3.9,2-6.1,2.6
						c-3.2,0.8-4.9,2.9-5.3,6.3c-0.3,2.7-0.7,5.3-1.1,8c-0.2,1.4-1.2,2.3-2.3,2.2c-1.3-0.1-2.2-1.1-2-2.7c0.4-3.3,0.7-6.7,1.4-9.9
						c1-4.5,3.9-7.2,8.1-8.4c1.9-0.5,3.7-1.1,5.3-2.3c1-0.8,1.6-1.7,1.7-3c0.3-3.3,2.7-5.7,5.8-6.1c2.4-0.3,4.8-0.6,7.1-1.6
						c1.9-0.9,2-1,1.7-3.1c-0.2-1.2,0.2-2,1.2-2.7C94.9,224.8,95.4,220.4,92.9,217.4z"/>
				</g>
			</g>
		</g>
		<g class="st2">
			<g>
				<path class="st1" d="M533.7,903.6c-15.9,0-30.9-6.2-42.2-17.5c-11.5-11.4-17.8-26.5-17.8-42.6c0-33.1,26.9-60.2,60.1-60.3
					c0.1,0,0.1,0,0.2,0c16,0,31,6.2,42.4,17.6c11.4,11.4,17.7,26.5,17.7,42.5c0.1,33.1-26.9,60.2-60.2,60.3
					C533.8,903.6,533.7,903.6,533.7,903.6z M533.9,786.7c0,0-0.1,0-0.1,0c-31.3,0.1-56.7,25.6-56.7,56.8c0,15.1,6,29.4,16.8,40.2
					c10.7,10.7,24.8,16.5,39.8,16.5c0.1,0,0.1,0,0.2,0c31.3-0.1,56.8-25.6,56.7-56.8c0-15.1-6-29.4-16.7-40.1
					C563.1,792.6,548.9,786.7,533.9,786.7z"/>
			</g>
		</g>
		<g class="st2">
			<g>
				<path class="st1" d="M518.6,887c-0.1,0-0.2,0-0.3,0c-3.5-0.2-6.4-2.4-7.4-5.8c-0.5-1.7-0.4-3.5,0.3-5.3c1-2.5,2-5.1,3-7.6
					c2.2-5.6,4.4-11.4,6.7-17c0.9-2.1,0.8-4.4,0.8-6.7c0-0.6,0-1.2,0-1.8c0,0-0.1,0-0.1,0c-2.3-0.2-4.7-0.5-7-0.7
					c-1.2-0.1-2.5-0.2-3.7-0.3c-2.5-0.2-5-0.4-7.5-0.7c-4.1-0.5-7.4-4.5-6.9-8.6c0.5-4.5,4.1-7.7,8.4-7.4c4.5,0.3,9,0.8,13.4,1.2
					l3.1,0.3c8.4,0.8,16,0.8,23.2,0.1c5.8-0.5,12-1.1,18.3-1.6c2.2-0.2,4.3,0.5,5.9,1.9c1.6,1.4,2.6,3.4,2.8,5.7
					c0.3,4.2-3.1,8-7.5,8.4c-5.5,0.5-10.8,1-16.8,1.5c-0.6,0.1-0.8,0.1-0.9,0.2c0,0.1-0.1,0.4-0.2,1.2c-0.4,3.9,0.9,7.5,2.5,11.4
					c2.6,6.3,5.1,12.8,7.5,19.1l0.6,1.4c1.6,4.2-0.2,8.6-4.2,10.4c-2,0.9-4.2,0.9-6.2,0.1c-2-0.8-3.6-2.4-4.4-4.4
					c-2.1-5.1-4.2-10.1-6.3-15.2l-1.7-4.1l-1.1,2.7c-2.3,5.5-4.5,11-6.8,16.5C524.7,885,521.7,887,518.6,887z M504.1,828.5
					c-2.3,0-4.1,1.8-4.4,4.3c-0.2,2.2,1.6,4.5,3.9,4.7c2.5,0.3,5,0.5,7.4,0.7c1.2,0.1,2.5,0.2,3.7,0.3c2.4,0.2,4.7,0.4,7.1,0.7
					c1.9,0.2,3.3,1.6,3.2,3.4c0,0.6,0,1.2,0,1.8c0.1,2.6,0.1,5.3-1,8.1c-2.3,5.6-4.5,11.4-6.7,17c-1,2.6-2,5.1-3,7.6
					c-0.4,1.1-0.5,2.1-0.2,3.1c0.6,1.9,2.2,3.2,4.3,3.3c1.8,0.1,3.6-1.1,4.3-2.9c2.3-5.5,4.5-11,6.8-16.5l3.5-8.6l1.8,1.6
					c0.7,0.6,0.9,1.2,1,1.6c0,0.1,0,0.1,0.1,0.2l2.7,6.6c2.1,5.1,4.2,10.1,6.3,15.2c0.5,1.2,1.4,2.1,2.5,2.5
					c1.1,0.4,2.4,0.4,3.5-0.1c2.3-1,3.3-3.5,2.3-6l-0.6-1.4c-2.4-6.2-4.9-12.7-7.5-19c-1.7-4.2-3.2-8.3-2.7-13.1
					c0.3-2.7,1-4.2,4.3-4.5c5.9-0.5,11.3-1,16.8-1.5c2.5-0.2,4.5-2.3,4.3-4.7c-0.1-1.3-0.7-2.5-1.6-3.3c-0.9-0.8-2.1-1.1-3.3-1
					c-6.3,0.5-12.4,1-18.2,1.6c-7.5,0.7-15.3,0.7-23.9-0.1l-3.1-0.3c-4.4-0.4-8.9-0.8-13.4-1.2C504.3,828.5,504.2,828.5,504.1,828.5
					z"/>
			</g>
		</g>
		<g class="st2">
			<g>
				<path class="st1" d="M533.8,826.4c-3.8,0-7.4-1.5-10.1-4.2c-2.7-2.7-4.2-6.3-4.2-10.1c0-3.8,1.5-7.4,4.2-10.1
					c2.7-2.7,6.2-4.1,10-4.1c0,0,0,0,0.1,0c3.9,0,7.5,1.5,10.1,4.2c2.7,2.7,4.1,6.3,4.1,10.1C548,820.1,541.8,826.4,533.8,826.4
					C533.9,826.4,533.8,826.4,533.8,826.4z M533.8,801.3c-2.9,0-5.6,1.1-7.6,3.1c-2,2-3.2,4.8-3.2,7.7c0,2.9,1.1,5.6,3.2,7.7
					c2,2,4.7,3.1,7.6,3.1c0,0,0,0,0,0c6,0,10.7-4.7,10.8-10.7c0-2.9-1.1-5.6-3.1-7.7C539.5,802.5,536.8,801.3,533.8,801.3
					L533.8,801.3C533.9,801.3,533.8,801.3,533.8,801.3z"/>
			</g>
		</g>
	</g>
	<g>
		<path class="st4" d="M484.5,849.2c-30.3,0-59-13.8-78.5-38.7l-32.4-41.4c-26.2-33.5-70.6-46.1-110.5-31.2l-49.2,18.3
			c-37.9,14.1-78.9,4.9-107.1-24.1c-28.2-29-36.3-70.2-21.2-107.7l19.7-48.7c15.9-39.5,4.6-84.2-28.2-111.3L36.6,431
			C5.5,405.2-7.1,365.1,3.9,326.2c11-38.9,42.7-66.5,82.7-72.2l52-7.3c42.1-5.9,75.2-38.1,82.3-80.1l8.7-51.8
			c6.7-39.8,35.2-70.8,74.4-80.7c39.2-9.9,78.9,3.7,103.8,35.5l32.4,41.4c26.2,33.5,70.6,46.1,110.5,31.2l0.6,1.5l-0.6-1.5
			l49.2-18.3c37.9-14.1,78.9-4.9,107.1,24.1c28.2,29,36.3,70.2,21.2,107.7l-19.7,48.7c-15.9,39.5-4.6,84.2,28.2,111.3l40.5,33.5
			c31.1,25.7,43.7,65.9,32.7,104.8c-11,38.9-42.7,66.5-82.7,72.2l-52,7.3c-42.1,5.9-75.2,38.1-82.3,80.1l-8.7,51.8
			c-6.7,39.8-35.2,70.8-74.4,80.7C501.3,848.1,492.8,849.2,484.5,849.2z M297.2,728.4c30.2,0,59.5,13.7,79,38.7l32.4,41.4
			c24.1,30.8,62.6,44,100.4,34.4c37.9-9.6,65.5-39.5,72-78l8.7-51.8c7.3-43.4,41.5-76.6,85.1-82.8l52-7.3
			c38.7-5.5,69.3-32.2,80-69.8c10.6-37.6-1.5-76.4-31.6-101.3l-40.5-33.5c-33.9-28-45.6-74.3-29.2-115l19.7-48.7
			c14.6-36.2,6.8-76.2-20.5-104.2c-27.3-28-66.9-36.9-103.6-23.3l-49.2,18.3c-41.2,15.4-87.1,2.4-114.2-32.3l-32.4-41.4
			c-24.1-30.8-62.6-44-100.4-34.4c-37.9,9.6-65.5,39.5-72,78l-8.7,51.8c-7.3,43.4-41.5,76.6-85.1,82.8l-52,7.3
			c-38.7,5.5-69.3,32.2-80,69.8c-10.6,37.6,1.5,76.4,31.6,101.3l40.5,33.5c33.9,28,45.6,74.3,29.2,115l-19.7,48.7
			c-14.6,36.2-6.8,76.2,20.5,104.2s66.9,36.9,103.6,23.3l49.2-18.3C273.5,730.5,285.4,728.4,297.2,728.4z"/>
	</g>
</g>
<g>
</g>
<g>
</g>
<g>
</g>
<g>
</g>
<g>
</g>
<g>
</g>
<g>
</g>
<g>
</g>
<g>
</g>
<g>
</g>
<g>
</g>
<g>
</g>
<g>
</g>
<g>
</g>
<g>
</g>
</svg>
