<?xml version="1.0" encoding="utf-8"?>
<!-- Generator: Adobe Illustrator 24.0.1, SVG Export Plug-In . SVG Version: 6.00 Build 0)  -->
<svg version="1.1" id="Layer_1" xmlns="http://www.w3.org/2000/svg" xmlns:xlink="http://www.w3.org/1999/xlink" x="0px" y="0px"
	 viewBox="0 0 581.9 174" style="enable-background:new 0 0 581.9 174;" xml:space="preserve">
<style type="text/css">
	.st0{fill:#BFC96D;}
	.st1{fill:#CC4E57;}
	.st2{fill:none;}
	.st3{fill:#94A50C;}
	.st4{fill:#F2669B;}
	.st5{fill:#D9525B;}
	.st6{fill:#B3444B;}
	.st7{fill:#916B9C;}
	.st8{fill:#E6E7E8;}
	.st9{fill:#BCBEC0;}
	.st10{fill:#414042;}
</style>
<g>
	<g>
		<path class="st0" d="M163.8,73.3c0,0,0.1,0.2,0.1,0.6c0.3,1.8,0.7,7.5-6.8,12.6c-2.3,1.6-5.3,3.1-9.4,4.4l-6.5,2l-22.6,4.7
			c-5.3,1.1-8.8,6.1-7.7,11.2c1.1,5.1,6.2,8.2,11.6,7.1l23.5-4.9c2.6-0.5,5.2-1,7.7-1.6l3.3-0.7c2.7-0.6,4.9-2.1,6.3-4.2
			C168.9,98.5,171.7,86.9,163.8,73.3z"/>
		<path class="st1" d="M155.9,59.7c-5.4,3.1-12.4,1.3-15.6-4.2c-3.1-5.4-1.3-12.4,4.2-15.6c5.4-3.1,12.4-1.3,15.6,4.2
			C163.2,49.6,161.3,56.5,155.9,59.7z"/>
		<path class="st0" d="M143.8,135.3c-5.4-3.1-7.3-10.1-4.2-15.6s10.1-7.3,15.6-4.2c5.4,3.1,7.3,10.1,4.2,15.6
			C156.2,136.6,149.2,138.4,143.8,135.3z"/>
		<path class="st2" d="M135.2,149.4c-0.2,0.2-0.4,0.4-0.6,0.5C134.9,149.7,135.1,149.5,135.2,149.4z"/>
		<path class="st2" d="M134,150.3c0.2-0.1,0.4-0.3,0.5-0.4C134.4,150.1,134.2,150.2,134,150.3z"/>
		<path class="st3" d="M137.9,139.6l-4.2-16l0,0l-2.5-9.5c0,0,0-0.1-0.1-0.2l-0.4-1.6c-1-4.1-2.6-14,3.3-17.8c0,0-10.1,2-13.1,2.7
			c-1.3,0.3-2.4,0.5-3.4,0.8c0,0-0.2,0.1-0.2,0.1c-5,1.3-7.8,7-6.4,12.2l10.2,39c0.1,0.5,0.3,1,0.5,1.4c6.4,2.7,10.5,1,12.4-0.3
			c0.2-0.1,0.4-0.3,0.5-0.4c0,0,0,0,0,0c0.2-0.2,0.4-0.3,0.6-0.5c0-0.1,0.1-0.1,0.1-0.1c0,0,0,0,0,0
			C137.7,146.9,138.8,143.2,137.9,139.6z"/>
		<path class="st4" d="M134.5,149.9C134.6,149.9,134.6,149.9,134.5,149.9C134.6,149.9,134.6,149.9,134.5,149.9z"/>
		<path class="st5" d="M135.2,149.4c-0.1,0.1-0.3,0.3-0.6,0.5c0,0,0,0,0,0c-0.2,0.1-0.3,0.3-0.5,0.4c-0.1,0.1-0.3,0.2-0.4,0.3
			c-2,1.2-6,2.5-12,0c-2.6-1.1-5.6-3-9-5.9l-20.2-22.6c-3.6-4.1-9.7-4.6-13.5-1.1c-3.8,3.4-4,9.5-0.4,13.6l7.8,8.7c0,0,0,0,0,0
			c0,0,9.2,12.3,15.8,18.2C108.5,167.4,125,167,135.2,149.4C135.2,149.3,135.2,149.4,135.2,149.4z"/>
		<path class="st4" d="M135.2,149.4C135.2,149.4,135.2,149.3,135.2,149.4C135.2,149.3,135.2,149.3,135.2,149.4
			C135.2,149.3,135.2,149.3,135.2,149.4z"/>
		<path class="st1" d="M72.2,162.6c0-6.3,5.1-11.4,11.4-11.4c6.3,0,11.4,5.1,11.4,11.4c0,6.3-5.1,11.4-11.4,11.4
			C77.3,174,72.2,168.9,72.2,162.6z"/>
		<path class="st2" d="M53.1,160.9c0,0,0.1,0.1,0.1,0.1C53.2,161,53.2,161,53.1,160.9z"/>
		<path class="st6" d="M94,123.9c-0.9-1-1.7-2.1-2.6-2.7c0,0-0.1,0-0.1-0.1c-4.2-3.6-9.9-3.3-13.8,0.6l-29.4,29.1
			c0.6,5.7,3,8.7,5,10.2c0,0,0.1,0.1,0.1,0.1c0.1,0.1,0.2,0.1,0.3,0.2c3.6,2.3,8.7,1.8,12.1-1.5L77.4,148l0,0l7-6.9c0,0,0,0,0.1-0.1
			l1.2-1.2c3.1-2.9,10.9-9.2,17.1-6.1C102.8,133.7,96,126.1,94,123.9z"/>
		<path class="st7" d="M53.5,161.2c-0.1-0.1-0.2-0.1-0.3-0.2C53.3,161.1,53.4,161.2,53.5,161.2z"/>
		<path class="st3" d="M49.5,137.4l8.5-25.9c1.7-5.2-0.9-10.7-5.8-12.3c-4.9-1.6-10.3,1.3-12,6.4l-4.9,14.9
			c-1.9,4.8-5.1,13.2-6.4,19.1c-0.2,0.9-0.3,1.9-0.2,3c0,0.5,0.1,0.9,0.1,1.4c1.2,8.3,10,18.3,27.3,18.3c0,0-1.2-0.2-2.6-1.2
			c-0.1-0.1-0.2-0.1-0.3-0.2c0,0-0.1-0.1-0.1-0.1c-2-1.5-4.4-4.5-5-10.2c-0.3-2.9-0.1-6.5,0.8-11L49.5,137.4z"/>
		<path class="st0" d="M12.8,114.4c5.4-3.1,12.4-1.3,15.6,4.2c3.1,5.4,1.3,12.4-4.2,15.6c-5.4,3.1-12.4,1.3-15.6-4.2
			C5.5,124.5,7.3,117.5,12.8,114.4z"/>
		<path class="st0" d="M51,98.4l-40.3-11c-8.1,6-5.9,12.6-5.9,12.6c0,0,0,0,0-0.1c0.9,3.3,3.6,6.2,7.2,7.2l16,4.4l0,0l9.5,2.6
			c0,0,0.1,0,0.2,0l1.6,0.4c4,1.2,13.4,4.8,13.8,11.7c0,0,3.2-9.8,4.2-12.6c0.4-1.3,0.9-2.5,1.1-3.5c0,0,0,0,0,0
			C59.3,104.8,56.2,99.9,51,98.4z"/>
		<path class="st6" d="M57.7,65.3c-1.1-5.1-6.2-8.2-11.6-7.1l-11.5,2.4c0,0,0,0,0,0c0,0-15.3,1.8-23.7,4.5
			C2.5,67.8-5.4,82.2,4.8,99.9c0,0,0,0,0,0.1c0,0-2.2-6.5,5.9-12.6c2.2-1.7,5.3-3.3,9.4-4.7l29.8-6.2C55.3,75.4,58.7,70.4,57.7,65.3
			z"/>
		<path class="st5" d="M24.9,38.7c-5.4-3.1-12.4-1.3-15.6,4.2C6.2,48.4,8,55.3,13.5,58.5c5.4,3.1,12.4,1.3,15.6-4.2
			C32.2,48.9,30.3,41.9,24.9,38.7z"/>
		<path class="st5" d="M33.4,24.9c0.1-0.1,0.1-0.2,0.2-0.3c-2.6,2.3-3.7,6.1-2.8,9.8l4.2,16l0,0l2.5,9.5c0,0,0,0.1,0.1,0.2l0.4,1.6
			c1,4.1,2.6,14-3.3,17.8c0,0,10.1-2.1,13-2.7c1.6-0.3,2.7-0.4,3.6-0.8c0,0,0.1,0,0.1,0c5.2-2,7.8-7,6.4-12.2L47.3,23.7
			C37.9,19.6,33.4,24.9,33.4,24.9z"/>
		<path class="st3" d="M90.2,39.5l-8.6-9.6c-2.3-3-9.6-12.3-15-17.3c-6.5-5.9-22.8-5.5-33.1,11.9c-0.1,0.1-0.1,0.2-0.2,0.3
			c0,0,4.6-5.2,13.9-1.2c2.7,1.2,5.8,3.2,9.3,6.3l0.1,0.1L76.2,52c3.6,4.1,9.7,4.6,13.5,1.1C93.6,49.7,93.8,43.6,90.2,39.5z"/>
		<ellipse transform="matrix(0.7071 -0.7071 0.7071 0.7071 16.8435 63.4456)" class="st0" cx="85" cy="11.4" rx="11.4" ry="11.4"/>
		<path class="st0" d="M116.6,14.1c-3.6-3.7-9.7-3.5-13.6,0.3L91.3,26l0,0l-7,6.9c0,0,0,0-0.1,0.1l-1.2,1.2
			c-3.1,2.9-10.9,9.2-17.1,6.1c0,0,6.9,7.7,8.8,9.9c0.8,1,1.6,1.9,2.5,2.6c0,0,0.3,0.2,0.3,0.2c3.8,3.2,9.8,3.1,13.6-0.7l29-28.6
			c0.2-0.2,0.4-0.4,0.6-0.6c-0.5-4.1-1.8-6.7-3.3-8.4C117.1,14.5,116.9,14.3,116.6,14.1z"/>
		<path class="st6" d="M112.7,11.7c0,0,2.4,0.5,4.6,3c1.5,1.7,2.9,4.4,3.3,8.4c0.3,2.9,0.2,6.6-0.8,11.2l-9.2,28.1
			c-1.7,5.2,0.9,10.7,5.8,12.3c4.9,1.6,10.3-1.3,12-6.4l4-12.1c1.4-3.2,6-14.5,7.5-21.9C141.7,25.8,133.2,11.7,112.7,11.7z"/>
		<path class="st8" d="M69.3,41.2c3,0,7-0.6,15-8.3L82.6,31c0,0-6.2,11.1-18.4,7.4c0.2,0.1,1,1.2,1.6,1.8
			C66.2,40.7,68.3,41.2,69.3,41.2z"/>
		<path class="st8" d="M37.2,77.1c1.5-2.6,2.9-6.4,0.3-17.1l-2.4,0.5c0,0,6.5,10.9-2.8,19.7c0.2-0.1,1.5-0.3,2.3-0.5
			C35.2,79.5,36.7,78,37.2,77.1z"/>
		<path class="st8" d="M52.2,123c-1.5-2.6-4.1-5.7-14.7-8.8l-0.8,2.4c0,0,12.7-0.2,15.6,12.3c0-0.2,0.5-1.5,0.7-2.2
			C53.3,125.9,52.6,123.8,52.2,123z"/>
		<path class="st8" d="M99.4,132.9c-3,0-7,0.6-15,8.3l1.7,1.9c0,0,6.2-11.1,18.4-7.4c-0.2-0.1-1-1.2-1.6-1.8
			C102.5,133.4,100.4,132.9,99.4,132.9z"/>
		<path class="st8" d="M131.4,96.9c-1.5,2.6-2.9,6.4-0.3,17.1l2.5-0.5c0,0-6.5-10.9,2.8-19.7c-0.2,0.1-1.5,0.3-2.3,0.5
			C133.4,94.5,131.9,96.1,131.4,96.9z"/>
		<path class="st8" d="M116.5,51.1c1.5,2.6,4.1,5.7,14.7,8.9l0.8-2.4c0,0-12.7,0.2-15.6-12.3c0,0.2-0.5,1.5-0.7,2.2
			C115.4,48.1,116,50.2,116.5,51.1z"/>
		<g>
			<path class="st8" d="M47.7,26.1L47.7,26.1c0.1,0,0.1,0,0.2,0l-0.6-2.3c-9.3-4.1-13.8,1-13.7,0.9c-2.6,2.3-3.7,6.1-2.8,9.8
				l0.1,0.5C30.6,31.9,31.8,29,34,27C33.9,27.1,38.4,22,47.7,26.1z"/>
		</g>
		<g>
			<path class="st8" d="M49.9,149.2L49.9,149.2c0-0.1-0.1-0.1-0.1-0.1l-1.7,1.7c1.1,10.1,7.8,11.4,7.7,11.4c3.3,1,7.2,0.2,9.9-2.5
				l0.4-0.4c-2.6,1.8-5.7,2.2-8.5,1.4C57.7,160.7,51,159.3,49.9,149.2z"/>
		</g>
		<g>
			<path class="st8" d="M121,148.1L121,148.1c-0.1,0-0.1,0-0.2,0l0.6,2.3c9.3,4.1,13.8-1,13.7-0.9c2.6-2.3,3.7-6.1,2.8-9.8l-0.1-0.5
				c0.3,3.1-0.9,6.1-3.1,8.1C134.8,147.1,130.4,152.2,121,148.1z"/>
		</g>
		<g>
			<path class="st8" d="M154.9,85.7L154.9,85.7c0,0-0.1,0.1-0.1,0.1l2.3,0.6c8.6-5.7,6.8-12.4,6.8-12.3c-0.8-3.4-3.7-6.5-7.9-7.4
				l-0.5-0.1c2.8,1.3,4.8,3.8,5.4,6.7C161,73.3,163.1,79.7,154.9,85.7z"/>
		</g>
		<g>
			<path class="st8" d="M118.9,24.8L118.9,24.8c0,0.1,0.1,0.1,0.1,0.1l1.7-1.7c-0.9-9.7-7.4-11.4-7.3-11.4c-3.3-1-7.4-0.7-10.2,2.4
				l-0.4,0.4c2.6-1.8,5.7-2.2,8.5-1.4C111.1,13.4,117.7,14.7,118.9,24.8z"/>
		</g>
		<g>
			<path class="st8" d="M24.7,38.9c-0.9-0.5-1.8-0.9-2.8-1.1c0.6,0.2,1.2,0.5,1.7,0.8c5.4,3.1,7.3,10.1,4.2,15.6
				c-2.6,4.6-7.9,6.6-12.8,5.3c5.1,1.9,11-0.1,13.9-5C32,49,30.2,42.1,24.7,38.9z"/>
		</g>
		<g>
			<path class="st8" d="M12.8,114.2c-0.9,0.5-1.7,1.1-2.4,1.8c0.5-0.4,1-0.8,1.5-1.1c5.4-3.1,12.4-1.3,15.6,4.2
				c2.6,4.6,1.7,10.2-1.8,13.7c4.2-3.5,5.5-9.6,2.6-14.5C25.2,113,18.2,111.1,12.8,114.2z"/>
		</g>
		<g>
			<path class="st9" d="M72.3,162.6c0,1,0.2,2,0.4,3c-0.1-0.6-0.2-1.2-0.2-1.9c0-6.3,5.1-11.4,11.4-11.4c5.3,0,9.7,3.6,11,8.4
				c-0.9-5.4-5.6-9.5-11.2-9.5C77.4,151.3,72.3,156.4,72.3,162.6z"/>
		</g>
		<g>
			<path class="st8" d="M143.8,135.3c0.9,0.5,1.8,0.9,2.8,1.1c-0.6-0.2-1.2-0.5-1.7-0.8c-5.4-3.1-7.3-10.1-4.2-15.6
				c2.6-4.6,7.9-6.6,12.8-5.3c-5.1-1.9-11,0.1-13.9,5C136.5,125.2,138.3,132.2,143.8,135.3z"/>
		</g>
		<g>
			<path class="st8" d="M155.8,59.6c0.9-0.5,1.7-1.1,2.4-1.8c-0.5,0.4-1,0.8-1.5,1.1c-5.4,3.1-12.4,1.3-15.6-4.2
				c-2.6-4.6-1.7-10.2,1.8-13.7c-4.2,3.5-5.5,9.6-2.6,14.5C143.4,60.9,150.3,62.8,155.8,59.6z"/>
		</g>
		<g>
			<path class="st8" d="M96.3,11.7c0-1-0.1-2-0.3-3c0.1,0.6,0.1,1.2,0.1,1.9c-0.2,6.3-5.5,11.2-11.8,11c-5.3-0.2-9.5-3.9-10.7-8.8
				c0.7,5.4,5.3,9.7,10.9,9.9C90.9,22.9,96.1,18,96.3,11.7z"/>
		</g>
		<path class="st5" d="M164,73.9c-0.9-3.3-3.7-6-7.3-7l-16-4.4l0,0l-9.5-2.6c0,0-0.1,0-0.2,0l-1.6-0.4c-4-1.2-13.4-4.8-13.8-11.7
			c0,0-3.2,9.7-4.1,12.5c-0.4,1.3-0.9,2.3-1.1,3.7c0,0,0,0.1,0,0.1c-0.9,4.8,2.2,10.1,7.4,11.6l39.5,10.9
			C164.7,81.4,164.3,75.7,164,73.9z"/>
	</g>
	<g>
		<path class="st10" d="M221.1,38c-0.1,0.1-0.3,0.2-0.5,0.2h-12.2c-0.2,0-0.3,0.1-0.3,0.3v10.7c0,0.2,0.1,0.3,0.3,0.3h7.3
			c0.2,0,0.3,0.1,0.5,0.2c0.1,0.1,0.2,0.3,0.2,0.5v4.4c0,0.2-0.1,0.3-0.2,0.5c-0.1,0.1-0.3,0.2-0.5,0.2h-7.3c-0.2,0-0.3,0.1-0.3,0.3
			v10.8c0,0.2,0.1,0.3,0.3,0.3h12.2c0.2,0,0.3,0.1,0.5,0.2c0.1,0.1,0.2,0.3,0.2,0.5v4.3c0,0.2-0.1,0.4-0.2,0.5
			c-0.1,0.1-0.3,0.2-0.5,0.2h-18.4c-0.2,0-0.4-0.1-0.5-0.2c-0.1-0.1-0.2-0.3-0.2-0.5V33.2c0-0.2,0.1-0.3,0.2-0.5
			c0.1-0.1,0.3-0.2,0.5-0.2h18.4c0.2,0,0.3,0.1,0.5,0.2c0.1,0.1,0.2,0.3,0.2,0.5v4.3C221.3,37.7,221.3,37.9,221.1,38z"/>
		<path class="st10" d="M238.7,32.7c0.1-0.1,0.3-0.2,0.5-0.2h5.2c0.2,0,0.3,0.1,0.5,0.2c0.1,0.1,0.2,0.3,0.2,0.5v38.3
			c0,0.2-0.1,0.4-0.2,0.5c-0.1,0.1-0.3,0.2-0.5,0.2h-5.2c-0.2,0-0.3-0.1-0.5-0.2c-0.1-0.1-0.2-0.3-0.2-0.5v-0.7c0-0.1,0-0.2-0.1-0.2
			c-0.1,0-0.2,0-0.2,0.1c-1.4,1.3-3.1,2-5.1,2c-2.5,0-4.5-0.8-5.9-2.5c-1.4-1.7-2.1-3.9-2.1-6.7V52c0-2.9,0.7-5.1,2.1-6.7
			c1.4-1.6,3.4-2.4,5.9-2.4c0.9,0,1.8,0.2,2.7,0.5c0.9,0.3,1.7,0.8,2.4,1.6c0.1,0.1,0.2,0.1,0.2,0.1c0.1,0,0.1-0.1,0.1-0.2V33.2
			C238.5,33,238.6,32.9,238.7,32.7z M237.4,66.1c0.6-0.6,1-1.4,1.1-2.4V51.7c-0.2-1-0.5-1.8-1.1-2.4c-0.6-0.6-1.4-0.9-2.3-0.9
			c-1.1,0-1.9,0.4-2.6,1.1c-0.6,0.7-1,1.7-1,2.9V63c0,1.2,0.3,2.2,1,2.9c0.6,0.7,1.5,1.1,2.6,1.1C236,67,236.8,66.7,237.4,66.1z"/>
		<path class="st10" d="M263.6,43.4c0.1-0.1,0.3-0.2,0.5-0.2h5.2c0.2,0,0.3,0.1,0.5,0.2c0.1,0.1,0.2,0.3,0.2,0.5v27.6
			c0,0.2-0.1,0.4-0.2,0.5c-0.1,0.1-0.3,0.2-0.5,0.2h-5.2c-0.2,0-0.3-0.1-0.5-0.2c-0.1-0.1-0.2-0.3-0.2-0.5v-1.2c0-0.1,0-0.2-0.1-0.2
			c-0.1,0-0.2,0-0.2,0.1c-1.1,1.6-2.9,2.4-5.3,2.4c-2.3,0-4.2-0.7-5.6-2.1c-1.4-1.4-2.1-3.5-2.1-6.4V43.9c0-0.2,0.1-0.3,0.2-0.5
			c0.1-0.1,0.3-0.2,0.5-0.2h5.2c0.2,0,0.3,0.1,0.5,0.2c0.1,0.1,0.2,0.3,0.2,0.5v18.8c0,2.8,1.1,4.3,3.3,4.3c1.1,0,1.9-0.4,2.6-1.2
			c0.6-0.8,0.9-1.9,0.9-3.3V43.9C263.4,43.7,263.4,43.6,263.6,43.4z"/>
		<path class="st10" d="M277.3,70.2c-1.8-1.7-2.7-3.9-2.7-6.7V52c0-2.8,0.9-5,2.7-6.7c1.8-1.7,4.2-2.5,7.3-2.5
			c3.1,0,5.6,0.8,7.4,2.5s2.7,3.7,2.7,6.3v0.8c0,0.2-0.1,0.4-0.2,0.5c-0.1,0.1-0.3,0.2-0.5,0.2l-5.2,0.2c-0.5,0-0.7-0.2-0.7-0.7V52
			c0-0.9-0.3-1.8-1-2.5c-0.7-0.7-1.5-1-2.5-1s-1.9,0.4-2.5,1.1c-0.6,0.8-1,1.7-1,2.9V63c0,1.2,0.3,2.1,1,2.9
			c0.6,0.8,1.5,1.1,2.5,1.1s1.9-0.3,2.5-1c0.7-0.7,1-1.5,1-2.5v-0.6c0-0.2,0.1-0.3,0.2-0.5c0.1-0.1,0.3-0.2,0.5-0.2l5.2,0.1
			c0.2,0,0.3,0.1,0.5,0.2c0.1,0.1,0.2,0.3,0.2,0.5v1c0,2.6-0.9,4.7-2.7,6.3c-1.8,1.6-4.3,2.4-7.4,2.4
			C281.6,72.7,279.1,71.8,277.3,70.2z"/>
		<path class="st10" d="M316.1,45.4c1.9,1.7,2.8,4,2.8,6.9v19.3c0,0.2-0.1,0.4-0.2,0.5c-0.1,0.1-0.3,0.2-0.5,0.2H313
			c-0.2,0-0.4-0.1-0.5-0.2c-0.1-0.1-0.2-0.3-0.2-0.5v-1.1c0-0.1,0-0.2-0.1-0.2c-0.1,0-0.2,0-0.2,0.1c-1.3,1.5-3.3,2.3-5.8,2.3
			c-2.2,0-4.1-0.6-5.7-1.8c-1.6-1.2-2.5-3.5-2.5-6.7c0-3.4,1-5.8,3-7.3c2-1.4,4.7-2.2,8.1-2.2h2.9c0.2,0,0.3-0.1,0.3-0.3v-1.5
			c0-1.4-0.3-2.4-1-3.3c-0.7-0.8-1.5-1.2-2.6-1.2c-0.8,0-1.5,0.3-2,0.8c-0.5,0.5-0.9,1.2-1,2.1c0,0.5-0.3,0.7-0.7,0.7h-5.5
			c-0.5,0-0.7-0.2-0.6-0.7c0.2-2.6,1.2-4.6,3-6.2c1.8-1.5,4.1-2.3,6.9-2.3C311.9,42.8,314.3,43.7,316.1,45.4z M311,66.1
			c0.9-0.7,1.3-1.7,1.3-3v-3.2c0-0.2-0.1-0.3-0.3-0.3h-2.9c-1.3,0-2.3,0.4-3.1,1c-0.8,0.7-1.2,1.7-1.2,3c0,1.2,0.3,2.1,0.9,2.6
			c0.6,0.6,1.4,0.9,2.3,0.9C309.2,67.2,310.2,66.9,311,66.1z"/>
		<path class="st10" d="M343.1,52.8c-0.1,0.1-0.3,0.2-0.5,0.2l-5.2,0.2c-0.5,0-0.7-0.2-0.7-0.7V52c0-0.9-0.3-1.8-1-2.5
			c-0.7-0.7-1.5-1-2.5-1s-1.9,0.4-2.5,1.1c-0.6,0.8-1,1.7-1,2.9V63c0,1.2,0.3,2.1,1,2.9c0.6,0.8,1.5,1.1,2.5,1.1s1.9-0.3,2.5-1
			c0.7-0.7,1-1.5,1-2.5v-0.6c0-0.2,0.1-0.3,0.2-0.5c0.1-0.1,0.3-0.2,0.5-0.2l5.2,0.1c0.2,0,0.3,0.1,0.5,0.2c0.1,0.1,0.2,0.3,0.2,0.5
			v1c0,2.2-0.7,4.1-2,5.6c-1.3,1.5-3.2,2.5-5.5,2.9c-0.2,0.1-0.3,0.2-0.1,0.3c1.4,1.5,2.1,3.2,2.1,5c0,1.8-0.5,3-1.4,3.8
			c-0.9,0.7-2.1,1.1-3.4,1.1c-0.8,0-1.5-0.1-2.4-0.3c-0.3-0.1-0.5-0.4-0.5-0.8l0.3-2c0.1-0.5,0.3-0.6,0.8-0.5c0.5,0.1,1,0,1.4-0.3
			c0.4-0.3,0.7-0.7,0.8-1.3c0-0.1,0.1-0.3,0.1-0.5c0-1.3-0.8-2.8-2.4-4.3l-0.3-0.2c-2.4-0.4-4.2-1.4-5.6-3c-1.3-1.6-2-3.6-2-6V52
			c0-2.8,0.9-5,2.7-6.7c1.8-1.7,4.2-2.5,7.3-2.5c3.1,0,5.6,0.8,7.4,2.5s2.7,3.7,2.7,6.3v0.8C343.3,52.5,343.2,52.7,343.1,52.8z"/>
		<path class="st10" d="M364.6,45.4c1.9,1.7,2.8,4,2.8,6.9v19.3c0,0.2-0.1,0.4-0.2,0.5c-0.1,0.1-0.3,0.2-0.5,0.2h-5.2
			c-0.2,0-0.4-0.1-0.5-0.2c-0.1-0.1-0.2-0.3-0.2-0.5v-1.1c0-0.1,0-0.2-0.1-0.2c-0.1,0-0.2,0-0.2,0.1c-1.3,1.5-3.3,2.3-5.8,2.3
			c-2.2,0-4.1-0.6-5.7-1.8c-1.6-1.2-2.5-3.5-2.5-6.7c0-3.4,1-5.8,3-7.3c2-1.4,4.7-2.2,8.1-2.2h2.9c0.2,0,0.3-0.1,0.3-0.3v-1.5
			c0-1.4-0.3-2.4-1-3.3c-0.7-0.8-1.5-1.2-2.6-1.2c-0.8,0-1.5,0.3-2,0.8c-0.5,0.5-0.9,1.2-1,2.1c0,0.5-0.3,0.7-0.7,0.7h-5.5
			c-0.5,0-0.7-0.2-0.6-0.7c0.2-2.6,1.2-4.6,3-6.2c1.8-1.5,4.1-2.3,6.9-2.3C360.4,42.8,362.8,43.7,364.6,45.4z M359.4,38.3
			c-0.5-0.2-1-0.4-1.6-0.8c-0.3-0.2-0.5-0.3-0.9-0.5c-0.3-0.2-0.6-0.3-0.8-0.4c-0.2-0.1-0.5-0.1-0.8-0.1c-0.9,0-1.6,0.4-2.2,1.3
			c-0.3,0.4-0.6,0.5-1,0.2l-1.8-1.3c-0.3-0.2-0.4-0.5-0.3-0.9c0.5-1.2,1.2-2.1,2-2.7c0.8-0.6,1.7-0.9,2.7-0.9c0.6,0,1.2,0.1,1.7,0.3
			c0.5,0.2,1.1,0.5,1.8,1c0.2,0.1,0.4,0.2,0.7,0.4c0.3,0.2,0.6,0.4,0.9,0.5c0.3,0.1,0.6,0.2,0.9,0.2c0.9,0,1.6-0.4,2.2-1.2
			c0.2-0.5,0.5-0.5,0.9-0.3l1.8,1.2c0.2,0.1,0.3,0.3,0.3,0.6c0,0.2-0.1,0.5-0.2,0.7c-0.6,1.1-1.4,1.8-2.3,2.3
			c-0.9,0.5-1.7,0.7-2.6,0.7C360.4,38.5,359.9,38.4,359.4,38.3z M359.5,66.1c0.9-0.7,1.3-1.7,1.3-3v-3.2c0-0.2-0.1-0.3-0.3-0.3h-2.9
			c-1.3,0-2.3,0.4-3.1,1c-0.8,0.7-1.2,1.7-1.2,3c0,1.2,0.3,2.1,0.9,2.6c0.6,0.6,1.4,0.9,2.3,0.9C357.7,67.2,358.7,66.9,359.5,66.1z"
			/>
		<path class="st10" d="M374.3,70.2c-1.8-1.7-2.7-3.9-2.7-6.7V52c0-2.8,0.9-5,2.7-6.7c1.8-1.7,4.3-2.5,7.4-2.5
			c3.1,0,5.6,0.8,7.4,2.5c1.8,1.7,2.7,3.9,2.7,6.7v11.4c0,2.8-0.9,5.1-2.7,6.7c-1.8,1.7-4.3,2.5-7.5,2.5
			C378.6,72.7,376.1,71.8,374.3,70.2z M384.3,65.8c0.7-0.7,1-1.7,1-2.9V52.5c0-1.2-0.3-2.1-1-2.9c-0.7-0.8-1.5-1.1-2.6-1.1
			c-1.1,0-1.9,0.4-2.6,1.1c-0.6,0.7-1,1.7-1,2.9v10.4c0,1.2,0.3,2.2,1,2.9c0.6,0.7,1.5,1.1,2.6,1.1
			C382.8,66.9,383.6,66.6,384.3,65.8z"/>
		<path class="st10" d="M427.9,38c-0.1,0.1-0.3,0.2-0.5,0.2h-12.2c-0.2,0-0.3,0.1-0.3,0.3v10.7c0,0.2,0.1,0.3,0.3,0.3h7.3
			c0.2,0,0.3,0.1,0.5,0.2c0.1,0.1,0.2,0.3,0.2,0.5v4.4c0,0.2-0.1,0.3-0.2,0.5c-0.1,0.1-0.3,0.2-0.5,0.2h-7.3c-0.2,0-0.3,0.1-0.3,0.3
			v10.8c0,0.2,0.1,0.3,0.3,0.3h12.2c0.2,0,0.3,0.1,0.5,0.2c0.1,0.1,0.2,0.3,0.2,0.5v4.3c0,0.2-0.1,0.4-0.2,0.5
			c-0.1,0.1-0.3,0.2-0.5,0.2H409c-0.2,0-0.3-0.1-0.5-0.2c-0.1-0.1-0.2-0.3-0.2-0.5V33.2c0-0.2,0.1-0.3,0.2-0.5
			c0.1-0.1,0.3-0.2,0.5-0.2h18.4c0.2,0,0.3,0.1,0.5,0.2c0.1,0.1,0.2,0.3,0.2,0.5v4.3C428.1,37.7,428.1,37.9,427.9,38z"/>
		<path class="st10" d="M434.1,70.4c-1.8-1.4-2.7-3.4-2.7-5.8v-0.4c0-0.2,0.1-0.3,0.2-0.5c0.1-0.1,0.3-0.2,0.5-0.2h4.9
			c0.2,0,0.3,0.1,0.5,0.2c0.1,0.1,0.2,0.3,0.2,0.5v0.3c0,0.9,0.3,1.7,1,2.3c0.7,0.6,1.6,0.9,2.6,0.9c1,0,1.8-0.3,2.3-0.9
			c0.6-0.6,0.8-1.3,0.8-2.2c0-0.8-0.2-1.4-0.7-1.9c-0.5-0.5-1-0.9-1.6-1.2c-0.6-0.3-1.6-0.7-3.1-1.3c-2.2-0.8-3.9-1.9-5.3-3.2
			c-1.4-1.3-2.1-3.2-2.1-5.7c0-2.6,0.8-4.7,2.5-6.2c1.7-1.5,4-2.2,6.8-2.2c2.9,0,5.3,0.8,7,2.4c1.7,1.6,2.6,3.7,2.6,6.3
			c0,0.2-0.1,0.4-0.2,0.5c-0.1,0.1-0.3,0.2-0.5,0.2h-4.8c-0.2,0-0.4-0.1-0.5-0.2c-0.1-0.1-0.2-0.3-0.2-0.5v-0.3
			c0-0.9-0.3-1.7-0.9-2.3c-0.6-0.6-1.4-0.9-2.4-0.9c-1,0-1.8,0.3-2.4,0.9c-0.6,0.6-0.9,1.4-0.9,2.2c0,0.7,0.2,1.3,0.7,1.8
			c0.5,0.5,1,0.9,1.5,1.2c0.6,0.3,1.5,0.7,2.8,1.3c1.6,0.6,2.9,1.3,4,1.9c1.1,0.6,2,1.5,2.8,2.7c0.8,1.2,1.2,2.6,1.2,4.3
			c0,2.5-0.9,4.5-2.7,6c-1.8,1.5-4.2,2.2-7.2,2.2C438.2,72.5,435.8,71.8,434.1,70.4z"/>
		<path class="st10" d="M473,45.2c1.4,1.6,2.1,3.9,2.1,6.7v11.4c0,2.9-0.7,5.2-2.1,6.8c-1.4,1.6-3.4,2.4-5.9,2.4
			c-0.9,0-1.8-0.2-2.7-0.5c-0.9-0.3-1.7-0.8-2.4-1.6c-0.1-0.1-0.2-0.1-0.2-0.1c-0.1,0-0.1,0.1-0.1,0.2v11.4c0,0.2-0.1,0.3-0.2,0.5
			c-0.1,0.1-0.3,0.2-0.5,0.2h-5.2c-0.2,0-0.3-0.1-0.5-0.2c-0.1-0.1-0.2-0.3-0.2-0.5V43.9c0-0.2,0.1-0.3,0.2-0.5
			c0.1-0.1,0.3-0.2,0.5-0.2h5.2c0.2,0,0.3,0.1,0.5,0.2c0.1,0.1,0.2,0.3,0.2,0.5v0.7c0,0.1,0,0.2,0.1,0.2c0.1,0,0.2,0,0.3-0.2
			c1.3-1.2,3-1.8,5-1.8C469.6,42.8,471.6,43.6,473,45.2z M467.6,49.5c-0.6-0.8-1.5-1.1-2.6-1.1c-1,0-1.8,0.4-2.5,1.1
			c-0.6,0.8-0.9,1.7-0.9,2.9V63c0,1.2,0.3,2.2,0.9,2.9c0.6,0.7,1.4,1.1,2.5,1.1c1.1,0,1.9-0.4,2.6-1.1c0.6-0.7,1-1.7,1-2.9V52.5
			C468.6,51.3,468.3,50.3,467.6,49.5z"/>
		<path class="st10" d="M499.3,59.9c-0.1,0.1-0.3,0.2-0.5,0.2h-12.5c-0.2,0-0.3,0.1-0.3,0.3V63c0,1.2,0.3,2.1,1,2.9
			c0.6,0.8,1.5,1.1,2.5,1.1c0.9,0,1.6-0.3,2.2-0.8c0.6-0.5,1-1.3,1.2-2.1c0.1-0.4,0.4-0.6,0.7-0.6l5,0.2c0.2,0,0.3,0.1,0.5,0.2
			c0.1,0.1,0.2,0.3,0.1,0.5c-0.3,2.6-1.2,4.7-2.9,6.1c-1.7,1.4-4,2.1-7,2.1c-3.1,0-5.5-0.8-7.3-2.5c-1.8-1.6-2.7-3.9-2.7-6.7V52
			c0-2.8,0.9-5,2.7-6.7c1.8-1.7,4.2-2.5,7.3-2.5c3.1,0,5.5,0.8,7.3,2.5c1.8,1.7,2.7,3.9,2.7,6.7v7.5
			C499.5,59.6,499.4,59.8,499.3,59.9z M487,49.6c-0.6,0.8-1,1.7-1,2.9V55c0,0.2,0.1,0.3,0.3,0.3h6.4c0.2,0,0.3-0.1,0.3-0.3v-2.6
			c0-1.2-0.3-2.2-1-2.9s-1.5-1.1-2.5-1.1C488.4,48.5,487.6,48.8,487,49.6z"/>
		<path class="st10" d="M506.2,70.2c-1.8-1.7-2.7-3.9-2.7-6.7V52c0-2.8,0.9-5,2.7-6.7c1.8-1.7,4.2-2.5,7.3-2.5
			c3.1,0,5.6,0.8,7.4,2.5s2.7,3.7,2.7,6.3v0.8c0,0.2-0.1,0.4-0.2,0.5c-0.1,0.1-0.3,0.2-0.5,0.2l-5.2,0.2c-0.5,0-0.7-0.2-0.7-0.7V52
			c0-0.9-0.3-1.8-1-2.5c-0.7-0.7-1.5-1-2.5-1c-1,0-1.9,0.4-2.5,1.1c-0.6,0.8-1,1.7-1,2.9V63c0,1.2,0.3,2.1,1,2.9
			c0.6,0.8,1.5,1.1,2.5,1.1c1,0,1.9-0.3,2.5-1c0.7-0.7,1-1.5,1-2.5v-0.6c0-0.2,0.1-0.3,0.2-0.5c0.1-0.1,0.3-0.2,0.5-0.2l5.2,0.1
			c0.2,0,0.3,0.1,0.5,0.2c0.1,0.1,0.2,0.3,0.2,0.5v1c0,2.6-0.9,4.7-2.7,6.3c-1.8,1.6-4.3,2.4-7.4,2.4
			C510.5,72.7,508,71.8,506.2,70.2z"/>
		<path class="st10" d="M528.5,38.1c-0.8-0.8-1.1-1.7-1.1-2.9c0-1.2,0.4-2.1,1.1-2.9c0.8-0.8,1.7-1.1,2.9-1.1c1.2,0,2.1,0.4,2.9,1.1
			c0.7,0.8,1.1,1.7,1.1,2.9c0,1.2-0.4,2.1-1.1,2.9c-0.8,0.8-1.7,1.1-2.8,1.1C530.2,39.3,529.2,38.9,528.5,38.1z M528.4,72
			c-0.1-0.1-0.2-0.3-0.2-0.5V43.9c0-0.2,0.1-0.3,0.2-0.5c0.1-0.1,0.3-0.2,0.5-0.2h5.2c0.2,0,0.3,0.1,0.5,0.2
			c0.1,0.1,0.2,0.3,0.2,0.5v27.6c0,0.2-0.1,0.4-0.2,0.5c-0.1,0.1-0.3,0.2-0.5,0.2h-5.2C528.6,72.2,528.5,72.1,528.4,72z"/>
		<path class="st10" d="M557.2,45.4c1.9,1.7,2.8,4,2.8,6.9v19.3c0,0.2-0.1,0.4-0.2,0.5c-0.1,0.1-0.3,0.2-0.5,0.2h-5.2
			c-0.2,0-0.3-0.1-0.5-0.2c-0.1-0.1-0.2-0.3-0.2-0.5v-1.1c0-0.1,0-0.2-0.1-0.2c-0.1,0-0.2,0-0.2,0.1c-1.3,1.5-3.3,2.3-5.8,2.3
			c-2.2,0-4.1-0.6-5.7-1.8c-1.6-1.2-2.5-3.5-2.5-6.7c0-3.4,1-5.8,3-7.3c2-1.4,4.7-2.2,8.1-2.2h2.9c0.2,0,0.3-0.1,0.3-0.3v-1.5
			c0-1.4-0.3-2.4-1-3.3c-0.7-0.8-1.5-1.2-2.5-1.2c-0.8,0-1.5,0.3-2,0.8c-0.5,0.5-0.8,1.2-1,2.1c0,0.5-0.3,0.7-0.7,0.7h-5.5
			c-0.5,0-0.7-0.2-0.6-0.7c0.2-2.6,1.2-4.6,3-6.2c1.8-1.5,4.1-2.3,6.9-2.3C553,42.8,555.4,43.7,557.2,45.4z M552.1,66.1
			c0.9-0.7,1.3-1.7,1.3-3v-3.2c0-0.2-0.1-0.3-0.3-0.3h-2.9c-1.3,0-2.3,0.4-3.1,1c-0.8,0.7-1.2,1.7-1.2,3c0,1.2,0.3,2.1,0.9,2.6
			c0.6,0.6,1.4,0.9,2.3,0.9C550.3,67.2,551.3,66.9,552.1,66.1z"/>
		<path class="st10" d="M564.7,72c-0.1-0.1-0.2-0.3-0.2-0.5V33.2c0-0.2,0.1-0.3,0.2-0.5c0.1-0.1,0.3-0.2,0.5-0.2h5.2
			c0.2,0,0.3,0.1,0.5,0.2c0.1,0.1,0.2,0.3,0.2,0.5v38.3c0,0.2-0.1,0.4-0.2,0.5c-0.1,0.1-0.3,0.2-0.5,0.2h-5.2
			C565,72.2,564.8,72.1,564.7,72z"/>
		<path class="st10" d="M208.5,92.1c0.7,1,1.1,2.3,1.1,4.1v11.2c0,0.1,0,0.2-0.1,0.3c-0.1,0.1-0.2,0.1-0.3,0.1h-3
			c-0.1,0-0.2,0-0.3-0.1c-0.1-0.1-0.1-0.2-0.1-0.3V96.5c0-0.8-0.2-1.4-0.5-1.8c-0.3-0.4-0.8-0.7-1.4-0.7c-0.6,0-1.1,0.2-1.5,0.7
			c-0.4,0.5-0.5,1.1-0.5,1.9v10.8c0,0.1,0,0.2-0.1,0.3c-0.1,0.1-0.2,0.1-0.3,0.1h-3c-0.1,0-0.2,0-0.3-0.1c-0.1-0.1-0.1-0.2-0.1-0.3
			v-16c0-0.1,0-0.2,0.1-0.3c0.1-0.1,0.2-0.1,0.3-0.1h3c0.1,0,0.2,0,0.3,0.1c0.1,0.1,0.1,0.2,0.1,0.3V92c0,0.1,0,0.1,0.1,0.1
			c0.1,0,0.1,0,0.2-0.1c0.7-0.9,1.8-1.3,3.1-1.3C206.7,90.7,207.8,91.2,208.5,92.1z"/>
		<path class="st10" d="M213.8,106.6c-1-1-1.6-2.3-1.6-3.9v-6.6c0-1.6,0.5-2.9,1.6-3.9c1.1-1,2.5-1.5,4.3-1.5c1.8,0,3.3,0.5,4.3,1.5
			c1.1,1,1.6,2.3,1.6,3.9v6.6c0,1.6-0.5,3-1.6,3.9c-1,1-2.5,1.4-4.3,1.4C216.3,108,214.9,107.6,213.8,106.6z M219.6,104.1
			c0.4-0.4,0.6-1,0.6-1.7v-6.1c0-0.7-0.2-1.2-0.6-1.7c-0.4-0.4-0.9-0.7-1.5-0.7s-1.1,0.2-1.5,0.6c-0.4,0.4-0.6,1-0.6,1.7v6.1
			c0,0.7,0.2,1.3,0.6,1.7c0.4,0.4,0.9,0.6,1.5,0.6S219.2,104.5,219.6,104.1z"/>
		<path class="st10" d="M234.6,106.6c-1-1-1.6-2.3-1.6-3.9V96c0-1.6,0.5-2.9,1.6-3.9c1-1,2.5-1.5,4.3-1.5c1.8,0,3.2,0.5,4.3,1.4
			c1.1,1,1.6,2.2,1.6,3.6v0.5c0,0.1,0,0.2-0.1,0.3c-0.1,0.1-0.2,0.1-0.3,0.1l-3,0.1c-0.3,0-0.4-0.1-0.4-0.4V96c0-0.5-0.2-1-0.6-1.4
			c-0.4-0.4-0.9-0.6-1.5-0.6s-1.1,0.2-1.4,0.7c-0.4,0.4-0.6,1-0.6,1.7v6.1c0,0.7,0.2,1.2,0.6,1.7c0.4,0.4,0.9,0.7,1.4,0.7
			s1.1-0.2,1.5-0.6c0.4-0.4,0.6-0.9,0.6-1.5v-0.3c0-0.1,0-0.2,0.1-0.3c0.1-0.1,0.2-0.1,0.3-0.1l3,0c0.1,0,0.2,0,0.3,0.1
			c0.1,0.1,0.1,0.2,0.1,0.3v0.6c0,1.5-0.5,2.7-1.6,3.7c-1.1,0.9-2.5,1.4-4.3,1.4C237.1,108,235.7,107.6,234.6,106.6z"/>
		<path class="st10" d="M248.5,106.6c-1-1-1.6-2.3-1.6-3.9v-6.6c0-1.6,0.5-2.9,1.6-3.9c1.1-1,2.5-1.5,4.3-1.5c1.8,0,3.3,0.5,4.3,1.5
			c1.1,1,1.6,2.3,1.6,3.9v6.6c0,1.6-0.5,3-1.6,3.9c-1,1-2.5,1.4-4.3,1.4C251,108,249.5,107.6,248.5,106.6z M254.3,104.1
			c0.4-0.4,0.6-1,0.6-1.7v-6.1c0-0.7-0.2-1.2-0.6-1.7c-0.4-0.4-0.9-0.7-1.5-0.7s-1.1,0.2-1.5,0.6c-0.4,0.4-0.6,1-0.6,1.7v6.1
			c0,0.7,0.2,1.3,0.6,1.7c0.4,0.4,0.9,0.6,1.5,0.6S253.9,104.5,254.3,104.1z"/>
		<path class="st10" d="M271.9,92.1c0.7,1,1.1,2.3,1.1,4.1v11.2c0,0.1,0,0.2-0.1,0.3c-0.1,0.1-0.2,0.1-0.3,0.1h-3
			c-0.1,0-0.2,0-0.3-0.1c-0.1-0.1-0.1-0.2-0.1-0.3V96.5c0-0.8-0.2-1.4-0.5-1.8c-0.3-0.4-0.8-0.7-1.4-0.7c-0.6,0-1.1,0.2-1.5,0.7
			c-0.4,0.5-0.5,1.1-0.5,1.9v10.8c0,0.1,0,0.2-0.1,0.3c-0.1,0.1-0.2,0.1-0.3,0.1h-3c-0.1,0-0.2,0-0.3-0.1c-0.1-0.1-0.1-0.2-0.1-0.3
			v-16c0-0.1,0-0.2,0.1-0.3c0.1-0.1,0.2-0.1,0.3-0.1h3c0.1,0,0.2,0,0.3,0.1c0.1,0.1,0.1,0.2,0.1,0.3V92c0,0.1,0,0.1,0.1,0.1
			c0.1,0,0.1,0,0.2-0.1c0.7-0.9,1.8-1.3,3.1-1.3C270.1,90.7,271.1,91.2,271.9,92.1z"/>
		<path class="st10" d="M282.8,93.5c-0.1,0.1-0.2,0.1-0.3,0.1h-2c-0.1,0-0.2,0.1-0.2,0.2v8.6c0,0.8,0.1,1.3,0.4,1.6
			c0.3,0.3,0.7,0.4,1.3,0.4h0.2c0.1,0,0.2,0,0.3,0.1c0.1,0.1,0.1,0.2,0.1,0.3v2.5c0,0.1,0,0.2-0.1,0.3c-0.1,0.1-0.2,0.1-0.3,0.1
			h-1.1c-1.5,0-2.6-0.3-3.4-0.8c-0.8-0.5-1.1-1.6-1.1-3.1v-10c0-0.1-0.1-0.2-0.2-0.2h-1.2c-0.1,0-0.2,0-0.3-0.1
			c-0.1-0.1-0.1-0.2-0.1-0.3v-1.9c0-0.1,0-0.2,0.1-0.3c0.1-0.1,0.2-0.1,0.3-0.1h1.2c0.1,0,0.2-0.1,0.2-0.2v-3.6c0-0.1,0-0.2,0.1-0.3
			c0.1-0.1,0.2-0.1,0.3-0.1h2.9c0.1,0,0.2,0,0.3,0.1c0.1,0.1,0.1,0.2,0.1,0.3v3.6c0,0.1,0.1,0.2,0.2,0.2h2c0.1,0,0.2,0,0.3,0.1
			c0.1,0.1,0.1,0.2,0.1,0.3v1.9C282.9,93.4,282.9,93.5,282.8,93.5z"/>
		<path class="st10" d="M296.4,100.7c-0.1,0.1-0.2,0.1-0.3,0.1h-7.3c-0.1,0-0.2,0.1-0.2,0.2v1.5c0,0.7,0.2,1.2,0.6,1.7
			c0.4,0.4,0.9,0.7,1.4,0.7c0.5,0,0.9-0.2,1.3-0.5c0.4-0.3,0.6-0.7,0.7-1.2c0.1-0.2,0.2-0.3,0.4-0.3l2.9,0.1c0.1,0,0.2,0,0.3,0.1
			c0.1,0.1,0.1,0.2,0.1,0.3c-0.2,1.5-0.7,2.7-1.7,3.5c-1,0.8-2.3,1.2-4,1.2c-1.8,0-3.2-0.5-4.3-1.4c-1-1-1.6-2.3-1.6-3.9V96
			c0-1.6,0.5-2.9,1.6-3.9c1-1,2.5-1.5,4.3-1.5c1.8,0,3.2,0.5,4.3,1.5c1,1,1.6,2.3,1.6,3.9v4.3C296.5,100.5,296.5,100.6,296.4,100.7z
			 M289.3,94.6c-0.4,0.4-0.6,1-0.6,1.7v1.5c0,0.1,0.1,0.2,0.2,0.2h3.7c0.1,0,0.2-0.1,0.2-0.2v-1.5c0-0.7-0.2-1.3-0.6-1.7
			c-0.4-0.4-0.9-0.6-1.5-0.6C290.1,94,289.6,94.2,289.3,94.6z"/>
		<path class="st10" d="M298.3,107.7c-0.1-0.1,0-0.2,0-0.3l3.8-7.9c0-0.1,0-0.1,0-0.2l-3.8-7.8c0-0.1-0.1-0.2-0.1-0.2
			c0-0.2,0.1-0.3,0.4-0.3h3.3c0.2,0,0.4,0.1,0.5,0.3l2,4.5c0.1,0.1,0.1,0.1,0.2,0l2.1-4.5c0.1-0.2,0.2-0.3,0.5-0.3h3.3
			c0.2,0,0.3,0,0.3,0.1c0.1,0.1,0,0.2,0,0.3l-3.8,7.8c0,0.1,0,0.1,0,0.2l3.8,7.9c0,0.1,0.1,0.2,0.1,0.2c0,0.2-0.1,0.3-0.4,0.3h-3.3
			c-0.2,0-0.4-0.1-0.5-0.3l-2.1-4.6c-0.1-0.1-0.1-0.1-0.2,0l-2,4.5c-0.1,0.2-0.2,0.3-0.5,0.3h-3.3
			C298.5,107.8,298.4,107.7,298.3,107.7z"/>
		<path class="st10" d="M319.8,93.5c-0.1,0.1-0.2,0.1-0.3,0.1h-2c-0.1,0-0.2,0.1-0.2,0.2v8.6c0,0.8,0.1,1.3,0.4,1.6
			c0.3,0.3,0.7,0.4,1.3,0.4h0.2c0.1,0,0.2,0,0.3,0.1c0.1,0.1,0.1,0.2,0.1,0.3v2.5c0,0.1,0,0.2-0.1,0.3c-0.1,0.1-0.2,0.1-0.3,0.1
			h-1.1c-1.5,0-2.6-0.3-3.4-0.8c-0.8-0.5-1.1-1.6-1.1-3.1v-10c0-0.1-0.1-0.2-0.2-0.2h-1.2c-0.1,0-0.2,0-0.3-0.1
			c-0.1-0.1-0.1-0.2-0.1-0.3v-1.9c0-0.1,0-0.2,0.1-0.3c0.1-0.1,0.2-0.1,0.3-0.1h1.2c0.1,0,0.2-0.1,0.2-0.2v-3.6c0-0.1,0-0.2,0.1-0.3
			c0.1-0.1,0.2-0.1,0.3-0.1h2.9c0.1,0,0.2,0,0.3,0.1c0.1,0.1,0.1,0.2,0.1,0.3v3.6c0,0.1,0.1,0.2,0.2,0.2h2c0.1,0,0.2,0,0.3,0.1
			c0.1,0.1,0.1,0.2,0.1,0.3v1.9C319.9,93.4,319.9,93.5,319.8,93.5z"/>
		<path class="st10" d="M323.5,106.6c-1-1-1.6-2.3-1.6-3.9v-6.6c0-1.6,0.5-2.9,1.6-3.9c1.1-1,2.5-1.5,4.3-1.5c1.8,0,3.3,0.5,4.3,1.5
			c1.1,1,1.6,2.3,1.6,3.9v6.6c0,1.6-0.5,3-1.6,3.9c-1,1-2.5,1.4-4.3,1.4C325.9,108,324.5,107.6,323.5,106.6z M329.3,104.1
			c0.4-0.4,0.6-1,0.6-1.7v-6.1c0-0.7-0.2-1.2-0.6-1.7c-0.4-0.4-0.9-0.7-1.5-0.7s-1.1,0.2-1.5,0.6c-0.4,0.4-0.6,1-0.6,1.7v6.1
			c0,0.7,0.2,1.3,0.6,1.7c0.4,0.4,0.9,0.6,1.5,0.6S328.9,104.5,329.3,104.1z"/>
		<path class="st10" d="M350.6,84.9c0.1-0.1,0.2-0.1,0.3-0.1h3c0.1,0,0.2,0,0.3,0.1c0.1,0.1,0.1,0.2,0.1,0.3v22.2
			c0,0.1,0,0.2-0.1,0.3c-0.1,0.1-0.2,0.1-0.3,0.1h-3c-0.1,0-0.2,0-0.3-0.1c-0.1-0.1-0.1-0.2-0.1-0.3V107c0-0.1,0-0.1-0.1-0.1
			c0,0-0.1,0-0.1,0c-0.8,0.8-1.8,1.2-3,1.2c-1.5,0-2.6-0.5-3.4-1.4c-0.8-1-1.2-2.3-1.2-3.9V96c0-1.7,0.4-3,1.2-3.9
			c0.8-0.9,2-1.4,3.4-1.4c0.5,0,1,0.1,1.5,0.3c0.5,0.2,1,0.5,1.4,0.9c0,0,0.1,0.1,0.1,0c0,0,0.1-0.1,0.1-0.1v-6.6
			C350.5,85,350.5,84.9,350.6,84.9z M349.8,104.2c0.4-0.3,0.6-0.8,0.7-1.4v-7c-0.1-0.6-0.3-1-0.7-1.4c-0.4-0.3-0.8-0.5-1.3-0.5
			c-0.6,0-1.1,0.2-1.5,0.6s-0.6,1-0.6,1.7v6.1c0,0.7,0.2,1.3,0.6,1.7c0.4,0.4,0.9,0.6,1.5,0.6C349.1,104.8,349.5,104.6,349.8,104.2z
			"/>
		<path class="st10" d="M367.3,92.2c1.1,1,1.6,2.3,1.6,4v11.2c0,0.1,0,0.2-0.1,0.3c-0.1,0.1-0.2,0.1-0.3,0.1h-3
			c-0.1,0-0.2,0-0.3-0.1c-0.1-0.1-0.1-0.2-0.1-0.3v-0.6c0-0.1,0-0.1-0.1-0.1c0,0-0.1,0-0.1,0.1c-0.8,0.9-1.9,1.3-3.4,1.3
			c-1.3,0-2.4-0.4-3.3-1.1c-1-0.7-1.4-2-1.4-3.9c0-2,0.6-3.4,1.7-4.2c1.2-0.8,2.7-1.3,4.7-1.3h1.7c0.1,0,0.2-0.1,0.2-0.2v-0.9
			c0-0.8-0.2-1.4-0.6-1.9c-0.4-0.5-0.9-0.7-1.5-0.7c-0.5,0-0.8,0.1-1.2,0.4c-0.3,0.3-0.5,0.7-0.6,1.2c0,0.3-0.2,0.4-0.4,0.4h-3.2
			c-0.3,0-0.4-0.1-0.4-0.4c0.1-1.5,0.7-2.7,1.8-3.6c1.1-0.9,2.4-1.3,4-1.3C364.8,90.7,366.2,91.2,367.3,92.2z M364.3,104.3
			c0.5-0.4,0.8-1,0.8-1.7v-1.9c0-0.1-0.1-0.2-0.2-0.2h-1.7c-0.7,0-1.3,0.2-1.8,0.6c-0.5,0.4-0.7,1-0.7,1.8c0,0.7,0.2,1.2,0.5,1.5
			c0.4,0.3,0.8,0.5,1.3,0.5C363.2,104.9,363.8,104.7,364.3,104.3z"/>
		<path class="st10" d="M389.5,100.7c-0.1,0.1-0.2,0.1-0.3,0.1h-7.3c-0.1,0-0.2,0.1-0.2,0.2v1.5c0,0.7,0.2,1.2,0.6,1.7
			c0.4,0.4,0.9,0.7,1.4,0.7c0.5,0,0.9-0.2,1.3-0.5c0.4-0.3,0.6-0.7,0.7-1.2c0.1-0.2,0.2-0.3,0.4-0.3l2.9,0.1c0.1,0,0.2,0,0.3,0.1
			c0.1,0.1,0.1,0.2,0.1,0.3c-0.2,1.5-0.7,2.7-1.7,3.5c-1,0.8-2.3,1.2-4,1.2c-1.8,0-3.2-0.5-4.3-1.4c-1-1-1.6-2.3-1.6-3.9V96
			c0-1.6,0.5-2.9,1.6-3.9c1-1,2.5-1.5,4.3-1.5c1.8,0,3.2,0.5,4.3,1.5c1,1,1.6,2.3,1.6,3.9v4.3C389.6,100.5,389.6,100.6,389.5,100.7z
			 M382.3,94.6c-0.4,0.4-0.6,1-0.6,1.7v1.5c0,0.1,0.1,0.2,0.2,0.2h3.7c0.1,0,0.2-0.1,0.2-0.2v-1.5c0-0.7-0.2-1.3-0.6-1.7
			c-0.4-0.4-0.9-0.6-1.5-0.6C383.2,94,382.7,94.2,382.3,94.6z"/>
		<path class="st10" d="M399.9,84.9c0.1-0.1,0.2-0.1,0.3-0.1h3c0.1,0,0.2,0,0.3,0.1c0.1,0.1,0.1,0.2,0.1,0.3v22.2
			c0,0.1,0,0.2-0.1,0.3c-0.1,0.1-0.2,0.1-0.3,0.1h-3c-0.1,0-0.2,0-0.3-0.1c-0.1-0.1-0.1-0.2-0.1-0.3V107c0-0.1,0-0.1-0.1-0.1
			c0,0-0.1,0-0.1,0c-0.8,0.8-1.8,1.2-3,1.2c-1.5,0-2.6-0.5-3.4-1.4c-0.8-1-1.2-2.3-1.2-3.9V96c0-1.7,0.4-3,1.2-3.9
			c0.8-0.9,2-1.4,3.4-1.4c0.5,0,1,0.1,1.5,0.3c0.5,0.2,1,0.5,1.4,0.9c0,0,0.1,0.1,0.1,0c0,0,0.1-0.1,0.1-0.1v-6.6
			C399.8,85,399.8,84.9,399.9,84.9z M399.1,104.2c0.4-0.3,0.6-0.8,0.7-1.4v-7c-0.1-0.6-0.3-1-0.7-1.4c-0.4-0.3-0.8-0.5-1.3-0.5
			c-0.6,0-1.1,0.2-1.5,0.6s-0.6,1-0.6,1.7v6.1c0,0.7,0.2,1.3,0.6,1.7c0.4,0.4,0.9,0.6,1.5,0.6C398.3,104.8,398.8,104.6,399.1,104.2z
			"/>
		<path class="st10" d="M414.3,91.1c0.1-0.1,0.2-0.1,0.3-0.1h3c0.1,0,0.2,0,0.3,0.1c0.1,0.1,0.1,0.2,0.1,0.3v16c0,0.1,0,0.2-0.1,0.3
			c-0.1,0.1-0.2,0.1-0.3,0.1h-3c-0.1,0-0.2,0-0.3-0.1c-0.1-0.1-0.1-0.2-0.1-0.3v-0.7c0-0.1,0-0.1-0.1-0.1c0,0-0.1,0-0.1,0.1
			c-0.6,0.9-1.7,1.4-3.1,1.4c-1.3,0-2.4-0.4-3.2-1.2s-1.2-2-1.2-3.7V91.4c0-0.1,0-0.2,0.1-0.3c0.1-0.1,0.2-0.1,0.3-0.1h3
			c0.1,0,0.2,0,0.3,0.1c0.1,0.1,0.1,0.2,0.1,0.3v10.9c0,1.6,0.6,2.5,1.9,2.5c0.6,0,1.1-0.2,1.5-0.7c0.3-0.5,0.5-1.1,0.5-1.9V91.4
			C414.2,91.2,414.3,91.2,414.3,91.1z"/>
		<path class="st10" d="M422.3,106.6c-1-1-1.6-2.3-1.6-3.9V96c0-1.6,0.5-2.9,1.6-3.9c1-1,2.5-1.5,4.3-1.5s3.2,0.5,4.3,1.4
			c1.1,1,1.6,2.2,1.6,3.6v0.5c0,0.1,0,0.2-0.1,0.3c-0.1,0.1-0.2,0.1-0.3,0.1l-3,0.1c-0.3,0-0.4-0.1-0.4-0.4V96c0-0.5-0.2-1-0.6-1.4
			c-0.4-0.4-0.9-0.6-1.5-0.6s-1.1,0.2-1.4,0.7c-0.4,0.4-0.6,1-0.6,1.7v6.1c0,0.7,0.2,1.2,0.6,1.7c0.4,0.4,0.9,0.7,1.4,0.7
			s1.1-0.2,1.5-0.6c0.4-0.4,0.6-0.9,0.6-1.5v-0.3c0-0.1,0-0.2,0.1-0.3c0.1-0.1,0.2-0.1,0.3-0.1l3,0c0.1,0,0.2,0,0.3,0.1
			c0.1,0.1,0.1,0.2,0.1,0.3v0.6c0,1.5-0.5,2.7-1.6,3.7c-1.1,0.9-2.5,1.4-4.3,1.4S423.4,107.6,422.3,106.6z"/>
		<path class="st10" d="M444.8,92.2c1.1,1,1.6,2.3,1.6,4v11.2c0,0.1,0,0.2-0.1,0.3c-0.1,0.1-0.2,0.1-0.3,0.1h-3
			c-0.1,0-0.2,0-0.3-0.1c-0.1-0.1-0.1-0.2-0.1-0.3v-0.6c0-0.1,0-0.1-0.1-0.1c0,0-0.1,0-0.1,0.1c-0.8,0.9-1.9,1.3-3.4,1.3
			c-1.3,0-2.4-0.4-3.3-1.1s-1.4-2-1.4-3.9c0-2,0.6-3.4,1.7-4.2c1.2-0.8,2.7-1.3,4.7-1.3h1.7c0.1,0,0.2-0.1,0.2-0.2v-0.9
			c0-0.8-0.2-1.4-0.6-1.9c-0.4-0.5-0.9-0.7-1.5-0.7c-0.5,0-0.8,0.1-1.2,0.4c-0.3,0.3-0.5,0.7-0.6,1.2c0,0.3-0.2,0.4-0.4,0.4h-3.2
			c-0.3,0-0.4-0.1-0.4-0.4c0.1-1.5,0.7-2.7,1.8-3.6c1.1-0.9,2.4-1.3,4-1.3C442.4,90.7,443.8,91.2,444.8,92.2z M441.9,104.3
			c0.5-0.4,0.8-1,0.8-1.7v-1.9c0-0.1-0.1-0.2-0.2-0.2h-1.7c-0.7,0-1.3,0.2-1.8,0.6c-0.5,0.4-0.7,1-0.7,1.8c0,0.7,0.2,1.2,0.5,1.5
			c0.4,0.3,0.8,0.5,1.3,0.5C440.8,104.9,441.4,104.7,441.9,104.3z"/>
		<path class="st10" d="M460.5,96.5c-0.1,0.1-0.2,0.1-0.3,0.1l-3,0.1c-0.3,0-0.4-0.1-0.4-0.4V96c0-0.5-0.2-1-0.6-1.4
			c-0.4-0.4-0.9-0.6-1.5-0.6s-1.1,0.2-1.4,0.7c-0.4,0.4-0.6,1-0.6,1.7v6.1c0,0.7,0.2,1.2,0.6,1.7c0.4,0.4,0.9,0.7,1.4,0.7
			s1.1-0.2,1.5-0.6c0.4-0.4,0.6-0.9,0.6-1.5v-0.3c0-0.1,0-0.2,0.1-0.3c0.1-0.1,0.2-0.1,0.3-0.1l3,0c0.1,0,0.2,0,0.3,0.1
			c0.1,0.1,0.1,0.2,0.1,0.3v0.6c0,1.3-0.4,2.4-1.2,3.3c-0.8,0.9-1.8,1.4-3.2,1.7c-0.1,0-0.2,0.1-0.1,0.2c0.8,0.9,1.2,1.9,1.2,2.9
			c0,1-0.3,1.8-0.8,2.2c-0.5,0.4-1.2,0.6-2,0.6c-0.4,0-0.9-0.1-1.4-0.2c-0.2-0.1-0.3-0.2-0.3-0.5l0.2-1.2c0-0.3,0.2-0.4,0.5-0.3
			c0.3,0,0.6,0,0.8-0.2s0.4-0.4,0.5-0.8c0-0.1,0-0.2,0-0.3c0-0.8-0.5-1.6-1.4-2.5l-0.2-0.1c-1.4-0.2-2.5-0.8-3.2-1.7
			c-0.8-0.9-1.2-2.1-1.2-3.5V96c0-1.6,0.5-2.9,1.6-3.9c1-1,2.5-1.5,4.3-1.5s3.2,0.5,4.3,1.4c1.1,1,1.6,2.2,1.6,3.6v0.5
			C460.6,96.3,460.6,96.4,460.5,96.5z"/>
		<path class="st10" d="M473,92.2c1.1,1,1.6,2.3,1.6,4v11.2c0,0.1,0,0.2-0.1,0.3c-0.1,0.1-0.2,0.1-0.3,0.1h-3c-0.1,0-0.2,0-0.3-0.1
			c-0.1-0.1-0.1-0.2-0.1-0.3v-0.6c0-0.1,0-0.1-0.1-0.1c0,0-0.1,0-0.1,0.1c-0.8,0.9-1.9,1.3-3.4,1.3c-1.3,0-2.4-0.4-3.3-1.1
			s-1.4-2-1.4-3.9c0-2,0.6-3.4,1.7-4.2c1.2-0.8,2.7-1.3,4.7-1.3h1.7c0.1,0,0.2-0.1,0.2-0.2v-0.9c0-0.8-0.2-1.4-0.6-1.9
			c-0.4-0.5-0.9-0.7-1.5-0.7c-0.5,0-0.8,0.1-1.2,0.4c-0.3,0.3-0.5,0.7-0.6,1.2c0,0.3-0.2,0.4-0.4,0.4h-3.2c-0.3,0-0.4-0.1-0.4-0.4
			c0.1-1.5,0.7-2.7,1.8-3.6c1.1-0.9,2.4-1.3,4-1.3C470.5,90.7,471.9,91.2,473,92.2z M470,88.1c-0.3-0.1-0.6-0.3-1-0.5
			c-0.2-0.1-0.3-0.2-0.5-0.3c-0.2-0.1-0.3-0.2-0.5-0.2s-0.3-0.1-0.5-0.1c-0.5,0-0.9,0.3-1.3,0.8c-0.2,0.2-0.3,0.3-0.6,0.1l-1.1-0.8
			c-0.2-0.1-0.3-0.3-0.2-0.5c0.3-0.7,0.7-1.2,1.2-1.6c0.5-0.3,1-0.5,1.6-0.5c0.4,0,0.7,0.1,1,0.2c0.3,0.1,0.7,0.3,1.1,0.6
			c0.1,0,0.2,0.1,0.4,0.2c0.2,0.1,0.3,0.2,0.5,0.3s0.3,0.1,0.5,0.1c0.5,0,0.9-0.2,1.3-0.7c0.1-0.3,0.3-0.3,0.5-0.2l1.1,0.7
			c0.1,0.1,0.2,0.2,0.2,0.3c0,0.1,0,0.3-0.1,0.4c-0.4,0.6-0.8,1.1-1.3,1.3c-0.5,0.3-1,0.4-1.5,0.4C470.5,88.2,470.3,88.2,470,88.1z
			 M470.1,104.3c0.5-0.4,0.8-1,0.8-1.7v-1.9c0-0.1-0.1-0.2-0.2-0.2h-1.7c-0.7,0-1.3,0.2-1.8,0.6c-0.5,0.4-0.7,1-0.7,1.8
			c0,0.7,0.2,1.2,0.5,1.5c0.4,0.3,0.8,0.5,1.3,0.5C469,104.9,469.6,104.7,470.1,104.3z"/>
		<path class="st10" d="M478.6,106.6c-1-1-1.6-2.3-1.6-3.9v-6.6c0-1.6,0.5-2.9,1.6-3.9c1.1-1,2.5-1.5,4.3-1.5c1.8,0,3.3,0.5,4.3,1.5
			c1.1,1,1.6,2.3,1.6,3.9v6.6c0,1.6-0.5,3-1.6,3.9s-2.5,1.4-4.3,1.4C481.1,108,479.7,107.6,478.6,106.6z M484.4,104.1
			c0.4-0.4,0.6-1,0.6-1.7v-6.1c0-0.7-0.2-1.2-0.6-1.7c-0.4-0.4-0.9-0.7-1.5-0.7c-0.6,0-1.1,0.2-1.5,0.6s-0.6,1-0.6,1.7v6.1
			c0,0.7,0.2,1.3,0.6,1.7s0.9,0.6,1.5,0.6C483.5,104.7,484,104.5,484.4,104.1z"/>
		<path class="st10" d="M508.5,92.1c0.8,0.9,1.2,2.2,1.2,3.9v6.7c0,1.6-0.4,2.9-1.2,3.9c-0.8,1-2,1.4-3.4,1.4c-1.2,0-2.2-0.4-3-1.2
			c0,0-0.1-0.1-0.1,0c0,0-0.1,0.1-0.1,0.1v0.4c0,0.1,0,0.2-0.1,0.3c-0.1,0.1-0.2,0.1-0.3,0.1h-3c-0.1,0-0.2,0-0.3-0.1
			c-0.1-0.1-0.1-0.2-0.1-0.3V85.1c0-0.1,0-0.2,0.1-0.3c0.1-0.1,0.2-0.1,0.3-0.1h3c0.1,0,0.2,0,0.3,0.1c0.1,0.1,0.1,0.2,0.1,0.3v6.6
			c0,0.1,0,0.1,0.1,0.1c0.1,0,0.1,0,0.2-0.1c0.4-0.4,0.9-0.6,1.4-0.8c0.5-0.2,1-0.3,1.5-0.3C506.5,90.7,507.7,91.2,508.5,92.1z
			 M505.4,94.6c-0.4-0.4-0.9-0.6-1.5-0.6c-0.5,0-1,0.2-1.3,0.5c-0.4,0.3-0.6,0.8-0.7,1.4v7c0.1,0.6,0.3,1,0.7,1.4
			c0.4,0.3,0.8,0.5,1.3,0.5c0.6,0,1.1-0.2,1.5-0.6c0.4-0.4,0.6-1,0.6-1.7v-6.1C506,95.6,505.8,95.1,505.4,94.6z"/>
		<path class="st10" d="M522.4,92.2c1.1,1,1.6,2.3,1.6,4v11.2c0,0.1,0,0.2-0.1,0.3c-0.1,0.1-0.2,0.1-0.3,0.1h-3
			c-0.1,0-0.2,0-0.3-0.1c-0.1-0.1-0.1-0.2-0.1-0.3v-0.6c0-0.1,0-0.1-0.1-0.1c0,0-0.1,0-0.1,0.1c-0.8,0.9-1.9,1.3-3.4,1.3
			c-1.3,0-2.4-0.4-3.3-1.1s-1.4-2-1.4-3.9c0-2,0.6-3.4,1.7-4.2c1.2-0.8,2.7-1.3,4.7-1.3h1.7c0.1,0,0.2-0.1,0.2-0.2v-0.9
			c0-0.8-0.2-1.4-0.6-1.9c-0.4-0.5-0.9-0.7-1.5-0.7c-0.5,0-0.8,0.1-1.2,0.4c-0.3,0.3-0.5,0.7-0.6,1.2c0,0.3-0.2,0.4-0.4,0.4h-3.2
			c-0.3,0-0.4-0.1-0.4-0.4c0.1-1.5,0.7-2.7,1.8-3.6c1.1-0.9,2.4-1.3,4-1.3C520,90.7,521.4,91.2,522.4,92.2z M519.5,104.3
			c0.5-0.4,0.8-1,0.8-1.7v-1.9c0-0.1-0.1-0.2-0.2-0.2h-1.7c-0.7,0-1.3,0.2-1.8,0.6c-0.5,0.4-0.7,1-0.7,1.8c0,0.7,0.2,1.2,0.5,1.5
			c0.4,0.3,0.8,0.5,1.3,0.5C518.4,104.9,519,104.7,519.5,104.3z M516.3,88.7c-0.1-0.1-0.1-0.2,0-0.3l1.9-3.4
			c0.1-0.2,0.3-0.3,0.5-0.3h2.4c0.2,0,0.3,0,0.3,0.1s0,0.2-0.1,0.3l-2.4,3.4c-0.1,0.2-0.3,0.2-0.5,0.2h-1.9
			C516.5,88.9,516.4,88.8,516.3,88.7z"/>
		<path class="st10" d="M527.8,106.7c-1-0.8-1.5-2-1.5-3.4v-0.2c0-0.1,0-0.2,0.1-0.3c0.1-0.1,0.2-0.1,0.3-0.1h2.8
			c0.1,0,0.2,0,0.3,0.1c0.1,0.1,0.1,0.2,0.1,0.3v0.2c0,0.5,0.2,1,0.6,1.3c0.4,0.4,0.9,0.5,1.5,0.5c0.6,0,1-0.2,1.3-0.5
			s0.5-0.7,0.5-1.3c0-0.4-0.1-0.8-0.4-1.1c-0.3-0.3-0.6-0.5-0.9-0.7c-0.3-0.2-0.9-0.4-1.8-0.8c-1.3-0.5-2.3-1.1-3.1-1.8
			s-1.2-1.9-1.2-3.3c0-1.5,0.5-2.7,1.5-3.6c1-0.9,2.3-1.3,4-1.3c1.7,0,3.1,0.5,4.1,1.4c1,0.9,1.5,2.1,1.5,3.7c0,0.1,0,0.2-0.1,0.3
			c-0.1,0.1-0.2,0.1-0.3,0.1h-2.8c-0.1,0-0.2,0-0.3-0.1c-0.1-0.1-0.1-0.2-0.1-0.3v-0.2c0-0.5-0.2-1-0.5-1.3
			c-0.4-0.4-0.8-0.5-1.4-0.5c-0.6,0-1,0.2-1.4,0.5c-0.3,0.4-0.5,0.8-0.5,1.3c0,0.4,0.1,0.8,0.4,1.1c0.3,0.3,0.6,0.5,0.9,0.7
			s0.9,0.4,1.6,0.7c0.9,0.4,1.7,0.7,2.3,1.1c0.6,0.4,1.2,0.9,1.6,1.5c0.5,0.7,0.7,1.5,0.7,2.5c0,1.5-0.5,2.6-1.5,3.5
			s-2.4,1.3-4.2,1.3C530.2,108,528.8,107.6,527.8,106.7z"/>
		<path class="st10" d="M540.2,88c-0.4-0.4-0.7-1-0.7-1.7c0-0.7,0.2-1.2,0.7-1.7c0.4-0.4,1-0.7,1.7-0.7c0.7,0,1.2,0.2,1.7,0.7
			c0.4,0.4,0.6,1,0.6,1.7c0,0.7-0.2,1.2-0.7,1.7c-0.4,0.4-1,0.7-1.6,0.7C541.2,88.7,540.6,88.4,540.2,88z M540.1,107.7
			c-0.1-0.1-0.1-0.2-0.1-0.3v-16c0-0.1,0-0.2,0.1-0.3c0.1-0.1,0.2-0.1,0.3-0.1h3c0.1,0,0.2,0,0.3,0.1c0.1,0.1,0.1,0.2,0.1,0.3v16
			c0,0.1,0,0.2-0.1,0.3c-0.1,0.1-0.2,0.1-0.3,0.1h-3C540.3,107.8,540.2,107.7,540.1,107.7z"/>
		<path class="st10" d="M548.2,106.6c-1-1-1.6-2.3-1.6-3.9V96c0-1.6,0.5-2.9,1.6-3.9c1-1,2.5-1.5,4.3-1.5s3.2,0.5,4.3,1.4
			c1.1,1,1.6,2.2,1.6,3.6v0.5c0,0.1,0,0.2-0.1,0.3c-0.1,0.1-0.2,0.1-0.3,0.1l-3,0.1c-0.3,0-0.4-0.1-0.4-0.4V96c0-0.5-0.2-1-0.6-1.4
			c-0.4-0.4-0.9-0.6-1.5-0.6s-1.1,0.2-1.4,0.7c-0.4,0.4-0.6,1-0.6,1.7v6.1c0,0.7,0.2,1.2,0.6,1.7c0.4,0.4,0.9,0.7,1.4,0.7
			s1.1-0.2,1.5-0.6c0.4-0.4,0.6-0.9,0.6-1.5v-0.3c0-0.1,0-0.2,0.1-0.3c0.1-0.1,0.2-0.1,0.3-0.1l3,0c0.1,0,0.2,0,0.3,0.1
			c0.1,0.1,0.1,0.2,0.1,0.3v0.6c0,1.5-0.5,2.7-1.6,3.7c-1.1,0.9-2.5,1.4-4.3,1.4S549.3,107.6,548.2,106.6z"/>
		<path class="st10" d="M570.8,92.2c1.1,1,1.6,2.3,1.6,4v11.2c0,0.1,0,0.2-0.1,0.3c-0.1,0.1-0.2,0.1-0.3,0.1h-3
			c-0.1,0-0.2,0-0.3-0.1c-0.1-0.1-0.1-0.2-0.1-0.3v-0.6c0-0.1,0-0.1-0.1-0.1c0,0-0.1,0-0.1,0.1c-0.8,0.9-1.9,1.3-3.4,1.3
			c-1.3,0-2.4-0.4-3.3-1.1s-1.4-2-1.4-3.9c0-2,0.6-3.4,1.7-4.2c1.2-0.8,2.7-1.3,4.7-1.3h1.7c0.1,0,0.2-0.1,0.2-0.2v-0.9
			c0-0.8-0.2-1.4-0.6-1.9c-0.4-0.5-0.9-0.7-1.5-0.7c-0.5,0-0.8,0.1-1.2,0.4c-0.3,0.3-0.5,0.7-0.6,1.2c0,0.3-0.2,0.4-0.4,0.4h-3.2
			c-0.3,0-0.4-0.1-0.4-0.4c0.1-1.5,0.7-2.7,1.8-3.6c1.1-0.9,2.4-1.3,4-1.3C568.3,90.7,569.7,91.2,570.8,92.2z M567.8,104.3
			c0.5-0.4,0.8-1,0.8-1.7v-1.9c0-0.1-0.1-0.2-0.2-0.2h-1.7c-0.7,0-1.3,0.2-1.8,0.6c-0.5,0.4-0.7,1-0.7,1.8c0,0.7,0.2,1.2,0.5,1.5
			c0.4,0.3,0.8,0.5,1.3,0.5C566.7,104.9,567.3,104.7,567.8,104.3z"/>
		<path class="st10" d="M576.1,96.2c-0.4-0.4-0.7-1-0.7-1.7c0-0.7,0.2-1.2,0.7-1.7c0.4-0.4,1-0.7,1.7-0.7s1.2,0.2,1.7,0.7
			c0.4,0.4,0.6,1,0.6,1.7c0,0.7-0.2,1.2-0.7,1.7s-1,0.7-1.6,0.7C577.1,96.8,576.6,96.6,576.1,96.2z M576.1,107.1
			c-0.4-0.4-0.7-1-0.7-1.7c0-0.7,0.2-1.2,0.7-1.7c0.4-0.4,1-0.7,1.7-0.7s1.2,0.2,1.7,0.7c0.4,0.4,0.6,1,0.6,1.7
			c0,0.7-0.2,1.2-0.7,1.7c-0.4,0.4-1,0.7-1.6,0.7C577.1,107.7,576.6,107.5,576.1,107.1z"/>
		<path class="st10" d="M257.7,144.7l-0.2-3c0-0.1,0-0.1-0.1-0.1h-4.3c0,0-0.1,0-0.1,0c0,0,0,0,0,0.1l-1,3c0,0.1-0.1,0.2-0.3,0.2
			h-1.2c-0.1,0-0.1,0-0.2-0.1s0-0.1,0-0.2l5.6-16.6c0-0.1,0.1-0.2,0.3-0.2h1.4c0.1,0,0.2,0.1,0.2,0.2l1.6,16.6
			c0,0.2-0.1,0.3-0.2,0.3h-1.2C257.8,144.9,257.7,144.8,257.7,144.7z M253.5,140.1h3.7c0,0,0.1,0,0.1-0.1l-0.7-9.6c0,0,0-0.1,0-0.1
			c0,0,0,0-0.1,0.1L253.5,140.1C253.4,140.1,253.5,140.1,253.5,140.1z"/>
		<path class="st10" d="M261.8,144.3c-0.6-0.5-0.9-1.1-0.9-2c0-0.2,0-0.4,0-0.5l0-0.2c0-0.1,0-0.1,0.1-0.2s0.1-0.1,0.2-0.1h1.1
			c0.1,0,0.2,0.1,0.2,0.2l0,0.1c-0.1,0.5,0.1,1,0.4,1.3c0.3,0.4,0.8,0.5,1.4,0.5c0.6,0,1.1-0.2,1.5-0.6c0.4-0.4,0.6-0.9,0.6-1.6
			c0-0.4-0.1-0.7-0.3-0.9c-0.2-0.3-0.4-0.4-0.7-0.6c-0.2-0.1-0.6-0.3-1.2-0.6c-0.5-0.2-1-0.5-1.3-0.7c-0.4-0.2-0.7-0.5-0.9-0.9
			c-0.3-0.4-0.4-0.9-0.4-1.5c0-0.2,0-0.4,0-0.5c0.1-1,0.5-1.9,1.2-2.5c0.7-0.6,1.6-0.9,2.6-0.9c1,0,1.7,0.3,2.3,0.8
			c0.5,0.5,0.8,1.2,0.8,2.1c0,0.2,0,0.4,0,0.5v0.1c0,0.2-0.1,0.2-0.3,0.2h-1.1c-0.2,0-0.2-0.1-0.2-0.2v-0.1c0-0.1,0-0.2,0-0.3
			c0-0.5-0.2-0.9-0.5-1.2c-0.3-0.3-0.7-0.5-1.2-0.5c-0.6,0-1,0.2-1.4,0.5c-0.4,0.4-0.6,0.8-0.7,1.4c0,0.4,0,0.7,0.2,1
			c0.2,0.3,0.4,0.5,0.7,0.7c0.3,0.2,0.7,0.4,1.2,0.6c0.6,0.3,1,0.5,1.4,0.7s0.7,0.6,0.9,1c0.3,0.4,0.4,0.9,0.4,1.5
			c0,1.2-0.4,2.1-1.1,2.8c-0.7,0.7-1.7,1.1-2.9,1.1C263.2,145,262.4,144.8,261.8,144.3z"/>
		<path class="st10" d="M277.8,133.2c0.5,0.6,0.8,1.3,0.8,2.3c0,0.1,0,0.3,0,0.6l-0.7,5.3c-0.1,1.1-0.5,2-1.2,2.7
			c-0.7,0.7-1.5,1-2.5,1c-0.4,0-0.8-0.1-1.2-0.3c-0.4-0.2-0.7-0.4-0.9-0.8c0,0-0.1,0-0.1,0c0,0,0,0,0,0.1l-0.7,5.3
			c0,0.2-0.1,0.2-0.3,0.2h-1.2c-0.1,0-0.1,0-0.2-0.1c0,0-0.1-0.1,0-0.2l2.1-16.6c0-0.1,0-0.1,0.1-0.2s0.1-0.1,0.2-0.1h1.2
			c0.2,0,0.2,0.1,0.2,0.2l0,0.6c0,0,0,0.1,0,0.1c0,0,0.1,0,0.1,0c0.3-0.3,0.7-0.6,1.1-0.8c0.4-0.2,0.9-0.3,1.3-0.3
			C276.6,132.4,277.3,132.6,277.8,133.2z M276.9,135.8c0-0.6-0.2-1.1-0.5-1.4c-0.3-0.4-0.8-0.5-1.3-0.5c-0.6,0-1.1,0.2-1.5,0.6
			c-0.4,0.4-0.7,1-0.8,1.7l-0.6,5c0,0.1,0,0.2,0,0.4c0,0.6,0.2,1.1,0.5,1.4c0.3,0.4,0.7,0.5,1.3,0.5c0.6,0,1.1-0.2,1.6-0.6
			c0.4-0.4,0.7-1,0.8-1.7l0.6-5C276.9,136.1,276.9,136,276.9,135.8z"/>
		<path class="st10" d="M287.7,139.4h-5.4c0,0-0.1,0-0.1,0c0,0,0,0,0,0.1l-0.2,1.8c0,0.1,0,0.2,0,0.4c0,0.6,0.2,1,0.5,1.4
			c0.3,0.4,0.7,0.5,1.3,0.5c0.5,0,1-0.2,1.3-0.5c0.4-0.3,0.7-0.7,0.9-1.2c0.1-0.1,0.2-0.2,0.3-0.2l1.2,0c0.1,0,0.1,0,0.2,0.1
			s0,0.1,0,0.2c-0.2,1-0.7,1.7-1.4,2.3s-1.6,0.8-2.6,0.8c-1,0-1.8-0.3-2.4-0.9s-0.9-1.3-0.9-2.3c0-0.3,0-0.5,0-0.6l0.6-5.3
			c0.1-1.1,0.6-2,1.3-2.7c0.8-0.7,1.7-1,2.8-1c1,0,1.8,0.3,2.4,0.9c0.6,0.6,0.9,1.3,0.9,2.3c0,0.1,0,0.3,0,0.6l-0.4,3.1
			C287.9,139.3,287.8,139.4,287.7,139.4z M283.3,134.5c-0.4,0.4-0.7,1-0.8,1.7l-0.2,1.6c0,0.1,0,0.1,0.1,0.1h3.9
			c0.1,0,0.1,0,0.1-0.1l0.2-1.6c0-0.1,0-0.2,0-0.4c0-0.6-0.2-1.1-0.5-1.4c-0.3-0.4-0.8-0.5-1.3-0.5
			C284.3,133.9,283.7,134.1,283.3,134.5z"/>
		<path class="st10" d="M290.7,144.3c-0.6-0.6-0.9-1.3-0.9-2.3c0-0.3,0-0.5,0-0.6l0.6-5.3c0.1-1.1,0.6-2,1.3-2.7
			c0.8-0.7,1.7-1,2.8-1c1,0,1.8,0.3,2.4,0.9s0.9,1.3,0.9,2.1c0,0.2,0,0.3,0,0.4l0,0.2c0,0.1,0,0.1-0.1,0.2s-0.1,0.1-0.2,0.1l-1.2,0
			c-0.1,0-0.2-0.1-0.2-0.2l0-0.2c0-0.1,0-0.2,0-0.3c0-0.5-0.2-0.9-0.5-1.2c-0.3-0.3-0.8-0.5-1.3-0.5c-0.6,0-1.1,0.2-1.5,0.6
			s-0.7,1-0.8,1.7l-0.6,5c0,0.1,0,0.2,0,0.4c0,0.6,0.2,1.1,0.5,1.4c0.3,0.4,0.7,0.5,1.3,0.5c0.6,0,1.1-0.2,1.5-0.6
			c0.4-0.4,0.7-0.9,0.8-1.4v-0.2c0-0.2,0.1-0.2,0.3-0.2l1.2,0c0.1,0,0.1,0,0.2,0.1c0,0,0.1,0.1,0,0.2l0,0.3c-0.1,1-0.6,1.8-1.3,2.4
			c-0.8,0.6-1.7,1-2.8,1C292.1,145.1,291.3,144.8,290.7,144.3z"/>
		<path class="st10" d="M304.7,133.8c0,0-0.1,0.1-0.2,0.1h-1.8c0,0-0.1,0-0.1,0.1l-0.9,7.5c0,0.3,0,0.5,0,0.6c0,0.5,0.1,0.9,0.3,1.1
			c0.2,0.2,0.6,0.3,1,0.3h0.2c0.1,0,0.1,0,0.2,0.1s0.1,0.1,0,0.2l-0.1,1.1c0,0.2-0.1,0.2-0.3,0.2h-0.6c-0.8,0-1.5-0.2-1.9-0.5
			c-0.4-0.3-0.6-0.9-0.6-1.8c0-0.1,0-0.4,0-0.7l1-8c0,0,0,0,0-0.1s0,0-0.1,0h-0.9c-0.2,0-0.2-0.1-0.2-0.2l0.1-0.8
			c0-0.1,0-0.1,0.1-0.2s0.1-0.1,0.2-0.1h0.9c0,0,0.1,0,0.1,0c0,0,0,0,0-0.1l0.3-2.7c0-0.1,0-0.1,0.1-0.2c0,0,0.1-0.1,0.2-0.1h1.2
			c0.1,0,0.2,0.1,0.2,0.2l-0.3,2.7c0,0.1,0,0.1,0.1,0.1h1.8c0.2,0,0.2,0.1,0.2,0.2l-0.1,0.8C304.8,133.7,304.7,133.7,304.7,133.8z"
			/>
		<path class="st10" d="M306.5,144.3c-0.6-0.6-0.9-1.3-0.9-2.3c0-0.3,0-0.5,0-0.6l0.6-5.3c0.1-1.1,0.6-2,1.3-2.7
			c0.8-0.7,1.7-1.1,2.9-1.1c1,0,1.8,0.3,2.4,0.9c0.6,0.6,0.9,1.3,0.9,2.3c0,0.3,0,0.5,0,0.6l-0.7,5.3c-0.1,1.1-0.6,2-1.3,2.7
			c-0.8,0.7-1.7,1-2.9,1C307.9,145.1,307.1,144.8,306.5,144.3z M310.7,142.9c0.4-0.4,0.7-1,0.8-1.7l0.6-5c0-0.1,0-0.2,0-0.4
			c0-0.6-0.2-1.1-0.5-1.4c-0.3-0.4-0.8-0.5-1.3-0.5c-0.6,0-1.1,0.2-1.6,0.6s-0.7,1-0.8,1.7l-0.6,5c0,0.1,0,0.2,0,0.4
			c0,0.6,0.2,1.1,0.5,1.4c0.3,0.4,0.8,0.5,1.3,0.5C309.7,143.6,310.3,143.4,310.7,142.9z"/>
		<path class="st10" d="M316.1,144.3c-0.6-0.5-0.9-1.1-0.9-2c0-0.2,0-0.4,0-0.5l0-0.2c0-0.1,0-0.1,0.1-0.2s0.1-0.1,0.2-0.1h1.1
			c0.1,0,0.2,0.1,0.2,0.2l0,0.1c-0.1,0.5,0.1,1,0.4,1.3c0.3,0.4,0.8,0.5,1.4,0.5c0.6,0,1.1-0.2,1.5-0.6c0.4-0.4,0.6-0.9,0.6-1.6
			c0-0.4-0.1-0.7-0.3-0.9c-0.2-0.3-0.4-0.4-0.7-0.6c-0.2-0.1-0.6-0.3-1.2-0.6c-0.5-0.2-1-0.5-1.3-0.7c-0.4-0.2-0.7-0.5-0.9-0.9
			c-0.3-0.4-0.4-0.9-0.4-1.5c0-0.2,0-0.4,0-0.5c0.1-1,0.5-1.9,1.2-2.5c0.7-0.6,1.6-0.9,2.6-0.9c1,0,1.7,0.3,2.3,0.8
			c0.5,0.5,0.8,1.2,0.8,2.1c0,0.2,0,0.4,0,0.5v0.1c0,0.2-0.1,0.2-0.3,0.2h-1.1c-0.2,0-0.2-0.1-0.2-0.2v-0.1c0-0.1,0-0.2,0-0.3
			c0-0.5-0.2-0.9-0.5-1.2c-0.3-0.3-0.7-0.5-1.2-0.5c-0.6,0-1,0.2-1.4,0.5c-0.4,0.4-0.6,0.8-0.7,1.4c0,0.4,0,0.7,0.2,1
			c0.2,0.3,0.4,0.5,0.7,0.7c0.3,0.2,0.7,0.4,1.2,0.6c0.6,0.3,1,0.5,1.4,0.7s0.7,0.6,0.9,1c0.3,0.4,0.4,0.9,0.4,1.5
			c0,1.2-0.4,2.1-1.1,2.8c-0.7,0.7-1.7,1.1-2.9,1.1C317.4,145,316.6,144.8,316.1,144.3z"/>
		<path class="st10" d="M334.5,133.8c0,0-0.1,0.1-0.2,0.1h-1.8c0,0-0.1,0-0.1,0.1l-0.9,7.5c0,0.3,0,0.5,0,0.6c0,0.5,0.1,0.9,0.3,1.1
			c0.2,0.2,0.6,0.3,1,0.3h0.2c0.1,0,0.1,0,0.2,0.1s0.1,0.1,0,0.2l-0.1,1.1c0,0.2-0.1,0.2-0.3,0.2h-0.6c-0.8,0-1.5-0.2-1.9-0.5
			c-0.4-0.3-0.6-0.9-0.6-1.8c0-0.1,0-0.4,0-0.7l1-8c0,0,0,0,0-0.1s0,0-0.1,0h-0.9c-0.2,0-0.2-0.1-0.2-0.2l0.1-0.8
			c0-0.1,0-0.1,0.1-0.2s0.1-0.1,0.2-0.1h0.9c0,0,0.1,0,0.1,0c0,0,0,0,0-0.1l0.3-2.7c0-0.1,0-0.1,0.1-0.2c0,0,0.1-0.1,0.2-0.1h1.2
			c0.1,0,0.2,0.1,0.2,0.2l-0.3,2.7c0,0.1,0,0.1,0.1,0.1h1.8c0.2,0,0.2,0.1,0.2,0.2l-0.1,0.8C334.5,133.7,334.5,133.7,334.5,133.8z"
			/>
		<path class="st10" d="M342.9,139.4h-5.4c0,0-0.1,0-0.1,0c0,0,0,0,0,0.1l-0.2,1.8c0,0.1,0,0.2,0,0.4c0,0.6,0.2,1,0.5,1.4
			c0.3,0.4,0.7,0.5,1.3,0.5c0.5,0,1-0.2,1.3-0.5c0.4-0.3,0.7-0.7,0.9-1.2c0.1-0.1,0.2-0.2,0.3-0.2l1.2,0c0.1,0,0.1,0,0.2,0.1
			s0,0.1,0,0.2c-0.2,1-0.7,1.7-1.4,2.3s-1.6,0.8-2.6,0.8c-1,0-1.8-0.3-2.4-0.9s-0.9-1.3-0.9-2.3c0-0.3,0-0.5,0-0.6l0.6-5.3
			c0.1-1.1,0.6-2,1.3-2.7c0.8-0.7,1.7-1,2.8-1c1,0,1.8,0.3,2.4,0.9c0.6,0.6,0.9,1.3,0.9,2.3c0,0.1,0,0.3,0,0.6l-0.4,3.1
			C343.1,139.3,343,139.4,342.9,139.4z M338.5,134.5c-0.4,0.4-0.7,1-0.8,1.7l-0.2,1.6c0,0.1,0,0.1,0.1,0.1h3.9c0.1,0,0.1,0,0.1-0.1
			l0.2-1.6c0-0.1,0-0.2,0-0.4c0-0.6-0.2-1.1-0.5-1.4c-0.3-0.4-0.8-0.5-1.3-0.5C339.4,133.9,338.9,134.1,338.5,134.5z"/>
		<path class="st10" d="M345.9,144.3c-0.6-0.6-0.9-1.3-0.9-2.3c0-0.3,0-0.5,0-0.6l0.6-5.3c0.1-1.1,0.6-2,1.3-2.7
			c0.8-0.7,1.7-1.1,2.9-1.1c1,0,1.8,0.3,2.4,0.9c0.6,0.6,0.9,1.3,0.9,2.3c0,0.3,0,0.5,0,0.6l-0.7,5.3c-0.1,1.1-0.6,2-1.3,2.7
			c-0.8,0.7-1.7,1-2.9,1C347.3,145.1,346.5,144.8,345.9,144.3z M350.1,142.9c0.4-0.4,0.7-1,0.8-1.7l0.6-5c0-0.1,0-0.2,0-0.4
			c0-0.6-0.2-1.1-0.5-1.4c-0.3-0.4-0.8-0.5-1.3-0.5c-0.6,0-1.1,0.2-1.6,0.6s-0.7,1-0.8,1.7l-0.6,5c0,0.1,0,0.2,0,0.4
			c0,0.6,0.2,1.1,0.5,1.4c0.3,0.4,0.8,0.5,1.3,0.5C349.1,143.6,349.7,143.4,350.1,142.9z M349.1,130.9c0-0.1,0-0.1,0-0.2l1.8-2.7
			c0.1-0.1,0.2-0.2,0.3-0.2h1c0.1,0,0.2,0,0.2,0.1c0,0.1,0,0.1-0.1,0.2l-2,2.7c-0.1,0.1-0.2,0.2-0.3,0.2h-0.8
			C349.2,130.9,349.1,130.9,349.1,130.9z"/>
		<path class="st10" d="M361.3,132.7c0.1,0.1,0.1,0.2,0.1,0.3l-0.4,1.3c0,0.1-0.1,0.2-0.3,0.1c-0.2-0.1-0.4-0.1-0.7-0.1
			c-0.1,0-0.3,0-0.3,0c-0.6,0-1.1,0.3-1.5,0.9c-0.4,0.6-0.7,1.3-0.8,2.1l-0.9,7.3c0,0.2-0.1,0.2-0.3,0.2h-1.2c-0.1,0-0.1,0-0.2-0.1
			s-0.1-0.1,0-0.2l1.5-11.9c0-0.1,0-0.1,0.1-0.2s0.1-0.1,0.2-0.1h1.2c0.1,0,0.2,0.1,0.2,0.2l-0.2,1.5c0,0,0,0.1,0,0.1s0,0,0.1,0
			c0.6-1.2,1.5-1.9,2.5-1.9C360.7,132.4,361,132.5,361.3,132.7z"/>
		<path class="st10" d="M361.9,144.7l1.4-11.9c0-0.1,0-0.1,0.1-0.2s0.1-0.1,0.2-0.1h1.2c0.2,0,0.2,0.1,0.2,0.2l-1.4,11.9
			c0,0.2-0.1,0.2-0.3,0.2h-1.2C361.9,144.9,361.9,144.8,361.9,144.7z M363.6,129.9c-0.2-0.3-0.3-0.6-0.3-1c0.1-0.4,0.2-0.7,0.5-1
			c0.3-0.3,0.6-0.4,1-0.4c0.3,0,0.6,0.1,0.8,0.3c0.2,0.2,0.3,0.5,0.3,0.8c0,0.5-0.1,0.8-0.4,1.1c-0.3,0.3-0.6,0.5-1.1,0.5
			C364.1,130.3,363.8,130.2,363.6,129.9z"/>
		<path class="st10" d="M367.6,144.3c-0.6-0.6-0.9-1.3-0.9-2.3c0-0.3,0-0.5,0-0.6l0.6-5.3c0.1-1.1,0.6-2,1.3-2.7
			c0.8-0.7,1.7-1,2.8-1c1,0,1.8,0.3,2.4,0.9s0.9,1.3,0.9,2.1c0,0.2,0,0.3,0,0.4l0,0.2c0,0.1,0,0.1-0.1,0.2s-0.1,0.1-0.2,0.1l-1.2,0
			c-0.1,0-0.2-0.1-0.2-0.2l0-0.2c0-0.1,0-0.2,0-0.3c0-0.5-0.2-0.9-0.5-1.2c-0.3-0.3-0.8-0.5-1.3-0.5c-0.6,0-1.1,0.2-1.5,0.6
			s-0.7,1-0.8,1.7l-0.6,5c0,0.1,0,0.2,0,0.4c0,0.6,0.2,1.1,0.5,1.4c0.3,0.4,0.7,0.5,1.3,0.5c0.6,0,1.1-0.2,1.5-0.6
			c0.4-0.4,0.7-0.9,0.8-1.4v-0.2c0-0.2,0.1-0.2,0.3-0.2l1.2,0c0.1,0,0.1,0,0.2,0.1c0,0,0.1,0.1,0,0.2l0,0.3c-0.1,1-0.6,1.8-1.3,2.4
			c-0.8,0.6-1.7,1-2.8,1C369,145.1,368.2,144.8,367.6,144.3z"/>
		<path class="st10" d="M377.1,144.3c-0.6-0.6-0.9-1.3-0.9-2.3c0-0.3,0-0.5,0-0.6l0.6-5.3c0.1-1.1,0.6-2,1.3-2.7
			c0.8-0.7,1.7-1.1,2.9-1.1c1,0,1.8,0.3,2.4,0.9c0.6,0.6,0.9,1.3,0.9,2.3c0,0.3,0,0.5,0,0.6l-0.7,5.3c-0.1,1.1-0.6,2-1.3,2.7
			c-0.8,0.7-1.7,1-2.9,1C378.5,145.1,377.7,144.8,377.1,144.3z M381.3,142.9c0.4-0.4,0.7-1,0.8-1.7l0.6-5c0-0.1,0-0.2,0-0.4
			c0-0.6-0.2-1.1-0.5-1.4c-0.3-0.4-0.8-0.5-1.3-0.5c-0.6,0-1.1,0.2-1.6,0.6s-0.7,1-0.8,1.7l-0.6,5c0,0.1,0,0.2,0,0.4
			c0,0.6,0.2,1.1,0.5,1.4c0.3,0.4,0.8,0.5,1.3,0.5C380.3,143.6,380.9,143.4,381.3,142.9z"/>
		<path class="st10" d="M386.7,144.3c-0.6-0.5-0.9-1.1-0.9-2c0-0.2,0-0.4,0-0.5l0-0.2c0-0.1,0-0.1,0.1-0.2s0.1-0.1,0.2-0.1h1.1
			c0.1,0,0.2,0.1,0.2,0.2l0,0.1c-0.1,0.5,0.1,1,0.4,1.3c0.3,0.4,0.8,0.5,1.4,0.5c0.6,0,1.1-0.2,1.5-0.6c0.4-0.4,0.6-0.9,0.6-1.6
			c0-0.4-0.1-0.7-0.3-0.9c-0.2-0.3-0.4-0.4-0.7-0.6c-0.2-0.1-0.6-0.3-1.2-0.6c-0.5-0.2-1-0.5-1.3-0.7c-0.4-0.2-0.7-0.5-0.9-0.9
			c-0.3-0.4-0.4-0.9-0.4-1.5c0-0.2,0-0.4,0-0.5c0.1-1,0.5-1.9,1.2-2.5c0.7-0.6,1.6-0.9,2.6-0.9c1,0,1.7,0.3,2.3,0.8
			c0.5,0.5,0.8,1.2,0.8,2.1c0,0.2,0,0.4,0,0.5v0.1c0,0.2-0.1,0.2-0.3,0.2h-1.1c-0.2,0-0.2-0.1-0.2-0.2v-0.1c0-0.1,0-0.2,0-0.3
			c0-0.5-0.2-0.9-0.5-1.2c-0.3-0.3-0.7-0.5-1.2-0.5c-0.6,0-1,0.2-1.4,0.5c-0.4,0.4-0.6,0.8-0.7,1.4c0,0.4,0,0.7,0.2,1
			c0.2,0.3,0.4,0.5,0.7,0.7c0.3,0.2,0.7,0.4,1.2,0.6c0.6,0.3,1,0.5,1.4,0.7s0.7,0.6,0.9,1c0.3,0.4,0.4,0.9,0.4,1.5
			c0,1.2-0.4,2.1-1.1,2.8c-0.7,0.7-1.7,1.1-2.9,1.1C388,145,387.2,144.8,386.7,144.3z"/>
		<path class="st10" d="M407.1,139.4h-5.4c0,0-0.1,0-0.1,0c0,0,0,0,0,0.1l-0.2,1.8c0,0.1,0,0.2,0,0.4c0,0.6,0.2,1,0.5,1.4
			c0.3,0.4,0.7,0.5,1.3,0.5c0.5,0,1-0.2,1.3-0.5c0.4-0.3,0.7-0.7,0.9-1.2c0.1-0.1,0.2-0.2,0.3-0.2l1.2,0c0.1,0,0.1,0,0.2,0.1
			c0,0,0,0.1,0,0.2c-0.2,1-0.7,1.7-1.4,2.3c-0.7,0.6-1.6,0.8-2.6,0.8c-1,0-1.8-0.3-2.4-0.9s-0.9-1.3-0.9-2.3c0-0.3,0-0.5,0-0.6
			l0.6-5.3c0.1-1.1,0.6-2,1.3-2.7c0.8-0.7,1.7-1,2.8-1c1,0,1.8,0.3,2.4,0.9c0.6,0.6,0.9,1.3,0.9,2.3c0,0.1,0,0.3,0,0.6l-0.4,3.1
			C407.4,139.3,407.3,139.4,407.1,139.4z M402.8,134.5c-0.4,0.4-0.7,1-0.8,1.7l-0.2,1.6c0,0.1,0,0.1,0.1,0.1h3.9
			c0.1,0,0.1,0,0.1-0.1l0.2-1.6c0-0.1,0-0.2,0-0.4c0-0.6-0.2-1.1-0.5-1.4c-0.3-0.4-0.8-0.5-1.3-0.5
			C403.7,133.9,403.2,134.1,402.8,134.5z"/>
		<path class="st10" d="M423.8,127.8h1.2c0.1,0,0.1,0,0.2,0.1s0.1,0.1,0,0.2l-2.1,16.6c0,0.1,0,0.1-0.1,0.2s-0.1,0.1-0.2,0.1h-1.2
			c-0.1,0-0.2-0.1-0.2-0.2l1.6-13.1c0,0,0-0.1,0-0.1s-0.1,0-0.1,0l-3.1,5.3c0,0.1-0.1,0.2-0.2,0.2c-0.1,0-0.2-0.1-0.2-0.2l-1.8-5.3
			c0,0,0,0-0.1,0s0,0-0.1,0.1l-1.6,13.1c0,0.1,0,0.1-0.1,0.2s-0.1,0.1-0.2,0.1h-1.2c-0.2,0-0.2-0.1-0.2-0.2l2-16.6
			c0-0.2,0.1-0.2,0.3-0.2h1.2c0.1,0,0.2,0.1,0.2,0.2l2,5.6c0,0,0,0,0,0c0,0,0.1,0,0.1,0l3.4-5.6
			C423.5,127.9,423.6,127.8,423.8,127.8z"/>
		<path class="st10" d="M433.8,139.4h-5.4c0,0-0.1,0-0.1,0c0,0,0,0,0,0.1l-0.2,1.8c0,0.1,0,0.2,0,0.4c0,0.6,0.2,1,0.5,1.4
			c0.3,0.4,0.7,0.5,1.3,0.5c0.5,0,1-0.2,1.3-0.5c0.4-0.3,0.7-0.7,0.9-1.2c0.1-0.1,0.2-0.2,0.3-0.2l1.2,0c0.1,0,0.1,0,0.2,0.1
			c0,0,0,0.1,0,0.2c-0.2,1-0.7,1.7-1.4,2.3c-0.7,0.6-1.6,0.8-2.6,0.8c-1,0-1.8-0.3-2.4-0.9c-0.6-0.6-0.9-1.3-0.9-2.3
			c0-0.3,0-0.5,0-0.6l0.6-5.3c0.1-1.1,0.6-2,1.3-2.7c0.8-0.7,1.7-1,2.8-1c1,0,1.8,0.3,2.4,0.9c0.6,0.6,0.9,1.3,0.9,2.3
			c0,0.1,0,0.3,0,0.6l-0.4,3.1C434.1,139.3,434,139.4,433.8,139.4z M429.5,134.5c-0.4,0.4-0.7,1-0.8,1.7l-0.2,1.6
			c0,0.1,0,0.1,0.1,0.1h3.9c0.1,0,0.1,0,0.1-0.1l0.2-1.6c0-0.1,0-0.2,0-0.4c0-0.6-0.2-1.1-0.5-1.4c-0.3-0.4-0.8-0.5-1.3-0.5
			C430.4,133.9,429.9,134.1,429.5,134.5z"/>
		<path class="st10" d="M441.3,133.8c0,0-0.1,0.1-0.2,0.1h-1.8c0,0-0.1,0-0.1,0.1l-0.9,7.5c0,0.3,0,0.5,0,0.6c0,0.5,0.1,0.9,0.3,1.1
			s0.6,0.3,1,0.3h0.2c0.1,0,0.1,0,0.2,0.1c0,0,0.1,0.1,0,0.2l-0.1,1.1c0,0.2-0.1,0.2-0.3,0.2h-0.6c-0.8,0-1.5-0.2-1.9-0.5
			s-0.6-0.9-0.6-1.8c0-0.1,0-0.4,0-0.7l1-8c0,0,0,0,0-0.1c0,0,0,0-0.1,0h-0.9c-0.2,0-0.2-0.1-0.2-0.2l0.1-0.8c0-0.1,0-0.1,0.1-0.2
			s0.1-0.1,0.2-0.1h0.9c0,0,0.1,0,0.1,0c0,0,0,0,0-0.1l0.3-2.7c0-0.1,0-0.1,0.1-0.2c0,0,0.1-0.1,0.2-0.1h1.2c0.1,0,0.2,0.1,0.2,0.2
			l-0.3,2.7c0,0.1,0,0.1,0.1,0.1h1.8c0.2,0,0.2,0.1,0.2,0.2l-0.1,0.8C441.4,133.7,441.4,133.7,441.3,133.8z"/>
		<path class="st10" d="M443.1,144.3c-0.6-0.6-0.9-1.3-0.9-2.3c0-0.3,0-0.5,0-0.6l0.6-5.3c0.1-1.1,0.6-2,1.3-2.7s1.7-1.1,2.9-1.1
			c1,0,1.8,0.3,2.4,0.9c0.6,0.6,0.9,1.3,0.9,2.3c0,0.3,0,0.5,0,0.6l-0.7,5.3c-0.1,1.1-0.6,2-1.3,2.7c-0.8,0.7-1.7,1-2.9,1
			C444.5,145.1,443.7,144.8,443.1,144.3z M447.3,142.9c0.4-0.4,0.7-1,0.8-1.7l0.6-5c0-0.1,0-0.2,0-0.4c0-0.6-0.2-1.1-0.5-1.4
			c-0.3-0.4-0.8-0.5-1.3-0.5c-0.6,0-1.1,0.2-1.6,0.6s-0.7,1-0.8,1.7l-0.6,5c0,0.1,0,0.2,0,0.4c0,0.6,0.2,1.1,0.5,1.4
			c0.3,0.4,0.8,0.5,1.3,0.5C446.4,143.6,446.9,143.4,447.3,142.9z"/>
		<path class="st10" d="M459.5,127.9c0,0,0.1-0.1,0.2-0.1h1.2c0.2,0,0.2,0.1,0.2,0.2l-2,16.6c0,0.2-0.1,0.2-0.3,0.2h-1.2
			c-0.1,0-0.1,0-0.2-0.1c0,0-0.1-0.1,0-0.2l0.1-0.5c0,0,0-0.1,0-0.1c0,0-0.1,0-0.1,0c-0.3,0.3-0.7,0.6-1.1,0.8
			c-0.4,0.2-0.8,0.3-1.3,0.3c-0.9,0-1.6-0.3-2.1-0.8c-0.5-0.6-0.8-1.3-0.8-2.2c0-0.1,0-0.4,0-0.7l0.6-5.3c0.1-1.1,0.6-2,1.2-2.7
			c0.7-0.7,1.5-1,2.5-1c0.4,0,0.8,0.1,1.2,0.3s0.7,0.4,0.9,0.8c0,0,0,0,0.1,0c0,0,0,0,0-0.1l0.7-5.3
			C459.5,128,459.5,127.9,459.5,127.9z M457.1,142.9c0.4-0.4,0.7-1,0.7-1.7l0.6-5.1c0-0.1,0-0.2,0-0.4c0-0.6-0.2-1.1-0.5-1.4
			c-0.3-0.4-0.7-0.5-1.3-0.5c-0.6,0-1.1,0.2-1.6,0.6c-0.4,0.4-0.7,1-0.8,1.7l-0.6,5.1c0,0.1,0,0.2,0,0.4c0,0.6,0.2,1.1,0.5,1.4
			c0.3,0.4,0.8,0.5,1.3,0.5C456.2,143.6,456.7,143.4,457.1,142.9z"/>
		<path class="st10" d="M463,144.3c-0.6-0.6-0.9-1.3-0.9-2.3c0-0.3,0-0.5,0-0.6l0.6-5.3c0.1-1.1,0.6-2,1.3-2.7s1.7-1.1,2.9-1.1
			c1,0,1.8,0.3,2.4,0.9c0.6,0.6,0.9,1.3,0.9,2.3c0,0.3,0,0.5,0,0.6l-0.7,5.3c-0.1,1.1-0.6,2-1.3,2.7c-0.8,0.7-1.7,1-2.9,1
			C464.4,145.1,463.6,144.8,463,144.3z M467.2,142.9c0.4-0.4,0.7-1,0.8-1.7l0.6-5c0-0.1,0-0.2,0-0.4c0-0.6-0.2-1.1-0.5-1.4
			c-0.3-0.4-0.8-0.5-1.3-0.5c-0.6,0-1.1,0.2-1.6,0.6s-0.7,1-0.8,1.7l-0.6,5c0,0.1,0,0.2,0,0.4c0,0.6,0.2,1.1,0.5,1.4
			c0.3,0.4,0.8,0.5,1.3,0.5C466.2,143.6,466.7,143.4,467.2,142.9z"/>
		<path class="st10" d="M471.7,144.8c0,0-0.1-0.1,0-0.2l2.1-16.6c0-0.1,0-0.1,0.1-0.2s0.1-0.1,0.2-0.1h1.2c0.1,0,0.2,0.1,0.2,0.2
			l-2.1,16.6c0,0.2-0.1,0.2-0.3,0.2h-1.2C471.8,144.9,471.7,144.9,471.7,144.8z"/>
		<path class="st10" d="M477.1,144.3c-0.6-0.6-0.9-1.3-0.9-2.3c0-0.3,0-0.5,0-0.6l0.6-5.3c0.1-1.1,0.6-2,1.3-2.7s1.7-1.1,2.9-1.1
			c1,0,1.8,0.3,2.4,0.9c0.6,0.6,0.9,1.3,0.9,2.3c0,0.3,0,0.5,0,0.6l-0.7,5.3c-0.1,1.1-0.6,2-1.3,2.7c-0.8,0.7-1.7,1-2.9,1
			C478.5,145.1,477.7,144.8,477.1,144.3z M481.3,142.9c0.4-0.4,0.7-1,0.8-1.7l0.6-5c0-0.1,0-0.2,0-0.4c0-0.6-0.2-1.1-0.5-1.4
			c-0.3-0.4-0.8-0.5-1.3-0.5c-0.6,0-1.1,0.2-1.6,0.6s-0.7,1-0.8,1.7l-0.6,5c0,0.1,0,0.2,0,0.4c0,0.6,0.2,1.1,0.5,1.4
			c0.3,0.4,0.8,0.5,1.3,0.5C480.3,143.6,480.8,143.4,481.3,142.9z M480.3,130.9c0-0.1,0-0.1,0-0.2l1.8-2.7c0.1-0.1,0.2-0.2,0.3-0.2
			h1c0.1,0,0.2,0,0.2,0.1c0,0.1,0,0.1-0.1,0.2l-2,2.7c-0.1,0.1-0.2,0.2-0.3,0.2h-0.8C480.4,130.9,480.3,130.9,480.3,130.9z"/>
		<path class="st10" d="M493.1,132.5h1.2c0.1,0,0.2,0.1,0.2,0.2l-1.5,11.9c-0.2,1.7-0.8,3.1-1.6,4c-0.9,0.9-2.3,1.3-4.1,1.2
			c-0.2,0-0.2-0.1-0.2-0.3l0.1-1.1c0-0.2,0.1-0.2,0.3-0.2c1.3,0,2.2-0.3,2.8-0.9c0.6-0.6,1-1.6,1.1-2.9l0.1-0.7c0,0,0-0.1,0-0.1
			c0,0-0.1,0-0.1,0c-0.3,0.4-0.7,0.7-1.1,0.9c-0.4,0.2-0.9,0.3-1.4,0.3c-0.9,0-1.6-0.3-2.1-0.8s-0.7-1.3-0.7-2.2c0-0.2,0-0.4,0-0.7
			l0.6-5.2c0.1-1.1,0.5-2,1.2-2.7c0.7-0.7,1.5-1,2.5-1c0.5,0,0.9,0.1,1.3,0.3c0.4,0.2,0.7,0.5,0.9,0.9c0,0.1,0.1,0.1,0.1,0l0.1-0.8
			C492.9,132.6,493,132.5,493.1,132.5z M491.1,142.8c0.4-0.4,0.7-1,0.8-1.7l0.6-4.9c0-0.1,0-0.2,0-0.4c0-0.6-0.2-1.1-0.5-1.4
			c-0.3-0.4-0.7-0.5-1.3-0.5c-0.6,0-1.1,0.2-1.6,0.6s-0.7,1-0.8,1.7l-0.6,4.9c0,0.1,0,0.2,0,0.4c0,0.6,0.2,1,0.5,1.4
			c0.3,0.4,0.8,0.5,1.3,0.5C490.1,143.5,490.6,143.3,491.1,142.8z"/>
		<path class="st10" d="M496.1,144.7l1.4-11.9c0-0.1,0-0.1,0.1-0.2s0.1-0.1,0.2-0.1h1.2c0.2,0,0.2,0.1,0.2,0.2l-1.4,11.9
			c0,0.2-0.1,0.2-0.3,0.2h-1.2C496.1,144.9,496,144.8,496.1,144.7z M497.8,129.9c-0.2-0.3-0.3-0.6-0.3-1c0.1-0.4,0.2-0.7,0.5-1
			c0.3-0.3,0.6-0.4,1-0.4c0.3,0,0.6,0.1,0.8,0.3c0.2,0.2,0.3,0.5,0.3,0.8c0,0.5-0.1,0.8-0.4,1.1c-0.3,0.3-0.6,0.5-1.1,0.5
			C498.3,130.3,498,130.2,497.8,129.9z"/>
		<path class="st10" d="M501.8,144.3c-0.6-0.6-0.9-1.3-0.9-2.3c0-0.3,0-0.5,0-0.6l0.6-5.3c0.1-1.1,0.6-2,1.3-2.7
			c0.8-0.7,1.7-1,2.8-1c1,0,1.8,0.3,2.4,0.9s0.9,1.3,0.9,2.1c0,0.2,0,0.3,0,0.4l0,0.2c0,0.1,0,0.1-0.1,0.2s-0.1,0.1-0.2,0.1l-1.2,0
			c-0.1,0-0.2-0.1-0.2-0.2l0-0.2c0-0.1,0-0.2,0-0.3c0-0.5-0.2-0.9-0.5-1.2s-0.8-0.5-1.3-0.5c-0.6,0-1.1,0.2-1.5,0.6
			c-0.4,0.4-0.7,1-0.8,1.7l-0.6,5c0,0.1,0,0.2,0,0.4c0,0.6,0.2,1.1,0.5,1.4c0.3,0.4,0.7,0.5,1.3,0.5c0.6,0,1.1-0.2,1.5-0.6
			c0.4-0.4,0.7-0.9,0.8-1.4v-0.2c0-0.2,0.1-0.2,0.3-0.2l1.2,0c0.1,0,0.1,0,0.2,0.1c0,0,0.1,0.1,0,0.2l0,0.3c-0.1,1-0.6,1.8-1.3,2.4
			s-1.7,1-2.8,1C503.1,145.1,502.3,144.8,501.8,144.3z"/>
		<path class="st10" d="M511.3,144.3c-0.6-0.6-0.9-1.3-0.9-2.3c0-0.3,0-0.5,0-0.6l0.6-5.3c0.1-1.1,0.6-2,1.3-2.7s1.7-1.1,2.9-1.1
			c1,0,1.8,0.3,2.4,0.9c0.6,0.6,0.9,1.3,0.9,2.3c0,0.3,0,0.5,0,0.6l-0.7,5.3c-0.1,1.1-0.6,2-1.3,2.7c-0.8,0.7-1.7,1-2.9,1
			C512.7,145.1,511.9,144.8,511.3,144.3z M515.5,142.9c0.4-0.4,0.7-1,0.8-1.7l0.6-5c0-0.1,0-0.2,0-0.4c0-0.6-0.2-1.1-0.5-1.4
			c-0.3-0.4-0.8-0.5-1.3-0.5c-0.6,0-1.1,0.2-1.6,0.6s-0.7,1-0.8,1.7l-0.6,5c0,0.1,0,0.2,0,0.4c0,0.6,0.2,1.1,0.5,1.4
			c0.3,0.4,0.8,0.5,1.3,0.5C514.5,143.6,515,143.4,515.5,142.9z"/>
		<path class="st10" d="M520.8,144.3c-0.6-0.5-0.9-1.1-0.9-2c0-0.2,0-0.4,0-0.5l0-0.2c0-0.1,0-0.1,0.1-0.2s0.1-0.1,0.2-0.1h1.1
			c0.1,0,0.2,0.1,0.2,0.2l0,0.1c-0.1,0.5,0.1,1,0.4,1.3c0.3,0.4,0.8,0.5,1.4,0.5c0.6,0,1.1-0.2,1.5-0.6c0.4-0.4,0.6-0.9,0.6-1.6
			c0-0.4-0.1-0.7-0.3-0.9s-0.4-0.4-0.7-0.6c-0.2-0.1-0.6-0.3-1.2-0.6c-0.5-0.2-1-0.5-1.3-0.7c-0.3-0.2-0.7-0.5-0.9-0.9
			c-0.3-0.4-0.4-0.9-0.4-1.5c0-0.2,0-0.4,0-0.5c0.1-1,0.5-1.9,1.2-2.5s1.6-0.9,2.6-0.9c1,0,1.7,0.3,2.3,0.8s0.8,1.2,0.8,2.1
			c0,0.2,0,0.4,0,0.5v0.1c0,0.2-0.1,0.2-0.3,0.2h-1.1c-0.2,0-0.2-0.1-0.2-0.2v-0.1c0-0.1,0-0.2,0-0.3c0-0.5-0.2-0.9-0.5-1.2
			c-0.3-0.3-0.7-0.5-1.2-0.5c-0.6,0-1,0.2-1.4,0.5s-0.6,0.8-0.7,1.4c0,0.4,0,0.7,0.2,1c0.2,0.3,0.4,0.5,0.7,0.7
			c0.3,0.2,0.7,0.4,1.2,0.6c0.6,0.3,1,0.5,1.4,0.7s0.7,0.6,0.9,1c0.3,0.4,0.4,0.9,0.4,1.5c0,1.2-0.4,2.1-1.1,2.8
			c-0.7,0.7-1.7,1.1-2.9,1.1C522.2,145,521.4,144.8,520.8,144.3z"/>
	</g>
</g>
<g>
</g>
<g>
</g>
<g>
</g>
<g>
</g>
<g>
</g>
<g>
</g>
<g>
</g>
<g>
</g>
<g>
</g>
<g>
</g>
<g>
</g>
<g>
</g>
<g>
</g>
<g>
</g>
<g>
</g>
</svg>
