<?xml version="1.0" encoding="utf-8"?>
<!-- Generator: Adobe Illustrator 24.0.1, SVG Export Plug-In . SVG Version: 6.00 Build 0)  -->
<svg version="1.1" xmlns="http://www.w3.org/2000/svg" xmlns:xlink="http://www.w3.org/1999/xlink" x="0px" y="0px"
	 viewBox="0 0 500 512.6" style="enable-background:new 0 0 500 512.6;" xml:space="preserve">
<style type="text/css">
	.st0{display:none;}
	.st1{display:inline;}
	.st2{fill:#EDE1AE;}
	.st3{fill:#DBA723;}
	.st4{enable-background:new    ;}
	.st5{fill:#3D3D3D;}
	.st6{display:inline;fill:#DBA723;}
	.st7{fill:#FFFFFF;}
</style>
<g id="Camada_2" class="st0">
	<g class="st1">
		<g>
			<g>
				<g>
					<path class="st2" d="M203.7,430c0,32.9-12.1,61.6-44,75.1c-22.7,9.6-48.3,9.6-72.9,7.5c-11.1-0.9-22.5-2.3-32.3-7.6
						c-41.4-22.4-48.9-98.8-20.8-133.4c6.6-8.2,15.7-14,24.9-19.1c32.7-17.9,70.1-21.3,102.4-0.6C187.4,368.9,203.7,398.7,203.7,430
						z"/>
				</g>
			</g>
		</g>
		<g>
			<g>
				<path class="st3" d="M101.8,505.1c-8.3,0-16.4-0.5-24.1-1.1c-11.1-0.9-22.9-2.3-33.2-7.9c-17.9-9.7-31.2-30.3-36.4-56.5
					c-6-30.3-0.2-61.8,14.9-80.4c7.3-9,17-15,25.6-19.7c36.2-19.8,74.4-20,104.8-0.5c27,17.3,43.8,48,43.8,80
					c0,37.9-15.7,64.7-45.4,77.3C135.7,503.1,118.4,505.1,101.8,505.1z M103.6,328.9c-17.1,0-35,4.9-52.8,14.6
					c-8.2,4.5-17.5,10.2-24.2,18.5c-14.2,17.5-19.7,47.5-13.9,76.5c4.9,24.8,17.4,44.3,34.1,53.3c9.5,5.2,20.7,6.5,31.4,7.4
					c22.5,1.9,48.7,2.5,71.8-7.3c35.2-14.9,42.6-47.9,42.6-73c0-30.5-16-59.6-41.7-76.1C136.4,333.6,120.4,328.9,103.6,328.9z"/>
			</g>
		</g>
		<g>
			<g class="st4">
				<path class="st5" d="M50,393.8h-2.4v-13.3h4.7c1.7,0,3,0.3,3.9,1c0.9,0.7,1.4,1.7,1.4,3c0,1.3-0.5,2.4-1.5,3.1
					c-1,0.8-2.4,1.1-4.3,1.1H50V393.8z M52.2,382.5H50v4.4h2c1.1,0,1.9-0.2,2.5-0.5c0.5-0.4,0.8-0.9,0.8-1.7s-0.2-1.3-0.7-1.6
					C54,382.7,53.3,382.5,52.2,382.5z"/>
				<path class="st5" d="M65.2,386.6c-0.3-0.1-0.6-0.1-1-0.1c-0.7,0-1.2,0.2-1.6,0.7c-0.4,0.5-0.7,1.3-0.9,2.4
					c-0.2,1.1-0.3,2.5-0.3,4.3h-2.3v-6.1l0-3.3h2.3l-0.1,2.6c0.3-1,0.8-1.7,1.4-2.2c0.6-0.4,1.2-0.6,1.9-0.6c0.2,0,0.4,0,0.6,0
					c0.2,0,0.3,0.1,0.5,0.1L65.2,386.6z"/>
				<path class="st5" d="M70.8,384.2c1.4,0,2.5,0.4,3.3,1.3c0.8,0.8,1.2,2,1.2,3.4c0,1-0.2,1.8-0.6,2.6c-0.4,0.8-1,1.4-1.7,1.8
					c-0.7,0.4-1.6,0.7-2.6,0.7c-1.4,0-2.5-0.4-3.3-1.3c-0.8-0.8-1.2-2-1.2-3.4c0-1,0.2-1.8,0.6-2.6c0.4-0.8,1-1.4,1.7-1.8
					C69,384.5,69.8,384.2,70.8,384.2z M70.5,392c0.7,0,1.3-0.3,1.8-0.8c0.4-0.6,0.7-1.3,0.7-2.2c0-0.8-0.2-1.5-0.6-2
					c-0.4-0.5-0.9-0.7-1.6-0.7c-0.8,0-1.4,0.3-1.8,0.8c-0.4,0.6-0.7,1.3-0.7,2.2c0,0.8,0.2,1.5,0.6,2C69.3,391.8,69.8,392,70.5,392z
					"/>
				<path class="st5" d="M80.7,397.8c-0.5,0-1.1-0.1-1.8-0.2s-1.2-0.3-1.6-0.6l0.6-2c0.4,0.2,0.9,0.4,1.3,0.5c0.5,0.1,1,0.2,1.5,0.2
					c1.1,0,1.9-0.3,2.4-0.8c0.5-0.5,0.7-1.3,0.8-2.5l0-0.6c-0.3,0.6-0.8,1-1.3,1.3c-0.5,0.3-1.2,0.5-1.9,0.5c-0.8,0-1.6-0.2-2.2-0.5
					c-0.6-0.4-1-0.9-1.3-1.5s-0.4-1.4-0.4-2.2c0-1,0.2-1.9,0.6-2.7c0.4-0.8,1-1.4,1.7-1.8c0.7-0.4,1.5-0.7,2.5-0.7
					c0.6,0,1.2,0.1,1.6,0.4c0.5,0.3,0.8,0.6,1.1,1l0.2-1.2h1.7v7.8c0,1.9-0.5,3.2-1.5,4.2C83.8,397.3,82.4,397.8,80.7,397.8z
					 M81.8,386.3c-0.8,0-1.4,0.3-1.9,0.8c-0.5,0.6-0.7,1.3-0.7,2.2c0,0.8,0.2,1.4,0.5,1.8c0.4,0.4,0.9,0.6,1.5,0.6
					c0.5,0,1-0.1,1.4-0.4c0.4-0.3,0.7-0.7,1-1.2s0.4-1,0.4-1.6c0-0.7-0.2-1.2-0.6-1.6C83,386.5,82.5,386.3,81.8,386.3z"/>
				<path class="st5" d="M94.7,386.6c-0.3-0.1-0.6-0.1-1-0.1c-0.7,0-1.2,0.2-1.6,0.7c-0.4,0.5-0.7,1.3-0.9,2.4
					c-0.2,1.1-0.3,2.5-0.3,4.3h-2.3v-6.1l0-3.3h2.3l-0.1,2.6c0.3-1,0.8-1.7,1.4-2.2c0.6-0.4,1.2-0.6,1.9-0.6c0.2,0,0.4,0,0.6,0
					c0.2,0,0.3,0.1,0.5,0.1L94.7,386.6z"/>
				<path class="st5" d="M104.7,384.4v9.4h-2.3l0.1-1.6c-0.3,0.6-0.8,1-1.3,1.3s-1.2,0.5-1.9,0.5c-0.8,0-1.5-0.2-2.1-0.6
					c-0.6-0.4-1-0.9-1.3-1.6c-0.3-0.7-0.4-1.4-0.4-2.3c0-1,0.2-2,0.6-2.8s1-1.4,1.7-1.9c0.7-0.4,1.5-0.7,2.4-0.7
					c0.6,0,1.1,0.1,1.6,0.4c0.5,0.3,0.8,0.6,1.1,1l0.2-1.2H104.7z M100.3,386.3c-0.8,0-1.4,0.3-1.9,0.9c-0.5,0.6-0.7,1.4-0.7,2.3
					c0,0.8,0.2,1.4,0.5,1.9c0.3,0.4,0.8,0.7,1.4,0.7c0.5,0,1-0.1,1.4-0.4c0.4-0.3,0.7-0.7,1-1.2c0.2-0.5,0.4-1.1,0.4-1.8
					c0-0.7-0.2-1.3-0.6-1.7C101.5,386.5,101,386.3,100.3,386.3z"/>
				<path class="st5" d="M107.1,393.8v-9.4h2.3l-0.1,2.3c0.4-0.9,0.9-1.5,1.5-1.9s1.3-0.6,2-0.6c0.7,0,1.3,0.2,1.8,0.6
					c0.5,0.4,0.9,1,1.1,1.8c0.4-0.8,0.9-1.4,1.6-1.7c0.7-0.4,1.3-0.6,2-0.6c1,0,1.8,0.4,2.4,1.1s0.8,1.8,0.8,3.1l0,5.4h-2.3l0-5.3
					c0-0.7-0.1-1.2-0.4-1.6c-0.2-0.4-0.6-0.6-1.2-0.6c-0.4,0-0.7,0.1-1,0.3c-0.3,0.2-0.6,0.6-0.9,1.2s-0.5,1.3-0.6,2.3
					c-0.1,1-0.2,2.2-0.2,3.6h-2.3v-5.3c0-0.7-0.1-1.2-0.4-1.6c-0.2-0.4-0.6-0.6-1.1-0.6c-0.4,0-0.7,0.1-1,0.3
					c-0.3,0.2-0.6,0.6-0.9,1.2c-0.3,0.6-0.5,1.3-0.6,2.3c-0.2,1-0.2,2.2-0.3,3.6H107.1z"/>
				<path class="st5" d="M133.6,384.4v9.4h-2.3l0.1-1.6c-0.3,0.6-0.8,1-1.3,1.3s-1.2,0.5-1.9,0.5c-0.8,0-1.5-0.2-2.1-0.6
					c-0.6-0.4-1-0.9-1.3-1.6c-0.3-0.7-0.4-1.4-0.4-2.3c0-1,0.2-2,0.6-2.8s1-1.4,1.7-1.9c0.7-0.4,1.5-0.7,2.4-0.7
					c0.6,0,1.1,0.1,1.6,0.4c0.5,0.3,0.8,0.6,1.1,1l0.2-1.2H133.6z M129.3,386.3c-0.8,0-1.4,0.3-1.9,0.9c-0.5,0.6-0.7,1.4-0.7,2.3
					c0,0.8,0.2,1.4,0.5,1.9c0.3,0.4,0.8,0.7,1.4,0.7c0.5,0,1-0.1,1.4-0.4c0.4-0.3,0.7-0.7,1-1.2c0.2-0.5,0.4-1.1,0.4-1.8
					c0-0.7-0.2-1.3-0.6-1.7C130.4,386.5,129.9,386.3,129.3,386.3z"/>
				<path class="st5" d="M139.4,394c-1.3,0-2.3-0.2-3-0.7c-0.7-0.5-1.1-1.2-1.2-2.1l1.9-0.5c0.1,0.5,0.3,0.8,0.7,1.1
					c0.4,0.3,0.9,0.4,1.6,0.4c0.5,0,1-0.1,1.2-0.3c0.3-0.2,0.4-0.4,0.4-0.7c0-0.3-0.2-0.5-0.5-0.7s-0.8-0.3-1.4-0.4
					c-0.7-0.1-1.3-0.3-1.8-0.5c-0.5-0.2-0.9-0.5-1.2-0.9c-0.3-0.4-0.4-0.9-0.4-1.4c0-0.6,0.2-1.1,0.5-1.5c0.3-0.5,0.8-0.8,1.3-1.1
					c0.6-0.3,1.2-0.4,2-0.4c1,0,1.8,0.2,2.4,0.7c0.6,0.5,1,1.1,1.1,1.8l-1.9,0.5c-0.1-0.4-0.3-0.6-0.6-0.9c-0.3-0.2-0.7-0.3-1.2-0.3
					s-0.9,0.1-1.1,0.3c-0.3,0.2-0.4,0.4-0.4,0.7c0,0.3,0.1,0.5,0.4,0.7c0.3,0.2,0.8,0.3,1.5,0.5c0.7,0.1,1.2,0.3,1.7,0.5
					c0.5,0.2,0.9,0.5,1.2,0.8c0.3,0.4,0.4,0.8,0.4,1.4c0,0.6-0.2,1.1-0.5,1.5c-0.3,0.4-0.8,0.8-1.4,1
					C140.8,393.9,140.1,394,139.4,394z"/>
			</g>
			<g class="st4">
				<path class="st5" d="M56.3,406.9V420H54v-3.7l0.1-1.7c-0.3,0.6-0.8,1-1.3,1.4s-1.2,0.5-1.9,0.5c-0.8,0-1.5-0.2-2.1-0.6
					c-0.6-0.4-1-0.9-1.3-1.6c-0.3-0.7-0.4-1.4-0.4-2.3c0-1,0.2-2,0.6-2.8s1-1.4,1.7-1.9c0.7-0.4,1.5-0.7,2.4-0.7
					c0.6,0,1.1,0.1,1.6,0.4c0.5,0.3,0.8,0.6,1,1l0.2-1.2H56.3z M51.9,408.7c-0.8,0-1.4,0.3-1.9,0.9c-0.5,0.6-0.7,1.4-0.7,2.3
					c0,0.8,0.2,1.4,0.5,1.9c0.3,0.4,0.8,0.7,1.4,0.7c0.5,0,1-0.1,1.4-0.4c0.4-0.3,0.7-0.7,1-1.2c0.2-0.5,0.4-1.1,0.4-1.8
					c0-0.7-0.2-1.3-0.6-1.7C53.1,408.9,52.6,408.7,51.9,408.7z"/>
				<path class="st5" d="M61.8,416.4c-1,0-1.8-0.4-2.4-1.1c-0.5-0.7-0.8-1.7-0.8-3l0-5.6h2.3l0,5.4c0,0.6,0.1,1.2,0.3,1.5
					s0.6,0.6,1.1,0.6c0.4,0,0.8-0.1,1.1-0.4c0.3-0.2,0.6-0.6,0.9-1.2c0.2-0.6,0.4-1.3,0.6-2.3c0.1-1,0.2-2.2,0.2-3.6h2.2v9.4h-2.3
					l0.1-2.2c-0.4,0.8-0.9,1.3-1.4,1.7S62.5,416.4,61.8,416.4z"/>
				<path class="st5" d="M74.3,416.4c-1,0-1.9-0.2-2.6-0.6c-0.7-0.4-1.3-0.9-1.7-1.6c-0.4-0.7-0.6-1.6-0.6-2.5s0.2-1.9,0.6-2.6
					s1-1.3,1.7-1.8c0.7-0.4,1.5-0.6,2.4-0.6c1.5,0,2.5,0.5,3.2,1.5c0.7,1,0.9,2.4,0.7,4.1h-6.3c0,0.7,0.3,1.2,0.8,1.6
					c0.5,0.4,1.2,0.6,2,0.6c0.4,0,0.8-0.1,1.2-0.3c0.4-0.2,0.8-0.4,1-0.8l1.3,1.3c-0.4,0.5-0.9,1-1.5,1.3
					C75.9,416.3,75.2,416.4,74.3,416.4z M74.1,408.4c-0.6,0-1.2,0.2-1.6,0.6s-0.7,0.9-0.8,1.6H76c0-0.8-0.1-1.3-0.5-1.7
					C75.2,408.6,74.7,408.4,74.1,408.4z"/>
				<path class="st5" d="M93.3,406.9v9.4H91l0.1-1.6c-0.3,0.6-0.8,1-1.3,1.3s-1.2,0.5-1.9,0.5c-0.8,0-1.5-0.2-2.1-0.6
					c-0.6-0.4-1-0.9-1.3-1.6c-0.3-0.7-0.4-1.4-0.4-2.3c0-1,0.2-2,0.6-2.8s1-1.4,1.7-1.9c0.7-0.4,1.5-0.7,2.4-0.7
					c0.6,0,1.1,0.1,1.6,0.4c0.5,0.3,0.8,0.6,1.1,1l0.2-1.2H93.3z M89,408.7c-0.8,0-1.4,0.3-1.9,0.9c-0.5,0.6-0.7,1.4-0.7,2.3
					c0,0.8,0.2,1.4,0.5,1.9c0.3,0.4,0.8,0.7,1.4,0.7c0.5,0,1-0.1,1.4-0.4c0.4-0.3,0.7-0.7,1-1.2c0.2-0.5,0.4-1.1,0.4-1.8
					c0-0.7-0.2-1.3-0.6-1.7C90.1,408.9,89.6,408.7,89,408.7z"/>
				<path class="st5" d="M99.8,416.4c-1.1,0-2-0.3-2.6-0.9c-0.6-0.6-0.9-1.4-0.9-2.5l0.1-4.3h-1.6v-1.9h1.6l0-1.9h2.3l0,1.9h3.1v1.9
					h-3.1l-0.1,4.1c0,0.5,0.1,0.9,0.4,1.2c0.3,0.3,0.7,0.4,1.2,0.4c0.3,0,0.6,0,0.8-0.1s0.5-0.2,0.8-0.4l0.7,1.8
					c-0.3,0.3-0.7,0.4-1.1,0.6C100.8,416.4,100.3,416.4,99.8,416.4z"/>
				<path class="st5" d="M104.5,405.3c-0.4,0-0.8-0.1-1.1-0.4c-0.3-0.3-0.4-0.6-0.4-1s0.1-0.7,0.4-1c0.3-0.3,0.6-0.4,1.1-0.4
					c0.4,0,0.8,0.1,1.1,0.4c0.3,0.3,0.4,0.6,0.4,1s-0.1,0.7-0.4,1C105.3,405.2,104.9,405.3,104.5,405.3z M105.6,406.8v9.4h-2.3v-9.4
					H105.6z"/>
				<path class="st5" d="M108.1,416.3v-9.4h2.3l-0.1,2.4c0.4-0.8,0.9-1.4,1.5-1.9c0.6-0.4,1.3-0.7,2.1-0.7c1.1,0,1.9,0.4,2.4,1.1
					s0.8,1.8,0.8,3.1l0,5.4h-2.3l0-5.2c0-0.7-0.1-1.3-0.3-1.7c-0.2-0.4-0.6-0.6-1.2-0.6c-0.4,0-0.8,0.1-1.1,0.4
					c-0.3,0.2-0.7,0.6-0.9,1.2s-0.5,1.3-0.6,2.3c-0.1,1-0.2,2.2-0.2,3.6H108.1z"/>
				<path class="st5" d="M122.8,420.2c-0.5,0-1.1-0.1-1.8-0.2s-1.2-0.3-1.6-0.6l0.6-2c0.4,0.2,0.9,0.4,1.3,0.5
					c0.5,0.1,1,0.2,1.5,0.2c1.1,0,1.9-0.3,2.4-0.8c0.5-0.5,0.7-1.3,0.8-2.5l0-0.6c-0.3,0.6-0.8,1-1.3,1.3c-0.5,0.3-1.2,0.5-1.9,0.5
					c-0.8,0-1.6-0.2-2.2-0.5c-0.6-0.4-1-0.9-1.3-1.5s-0.4-1.4-0.4-2.2c0-1,0.2-1.9,0.6-2.7c0.4-0.8,1-1.4,1.7-1.8
					c0.7-0.4,1.5-0.7,2.5-0.7c0.6,0,1.2,0.1,1.6,0.4c0.5,0.3,0.8,0.6,1.1,1l0.2-1.2h1.7v7.8c0,1.9-0.5,3.2-1.5,4.2
					C125.8,419.7,124.5,420.2,122.8,420.2z M123.8,408.7c-0.8,0-1.4,0.3-1.9,0.8c-0.5,0.6-0.7,1.3-0.7,2.2c0,0.8,0.2,1.4,0.5,1.8
					c0.4,0.4,0.9,0.6,1.5,0.6c0.5,0,1-0.1,1.4-0.4c0.4-0.3,0.7-0.7,1-1.2s0.4-1,0.4-1.6c0-0.7-0.2-1.2-0.6-1.6
					C125,408.9,124.5,408.7,123.8,408.7z"/>
				<path class="st5" d="M135.2,416.4c-1,0-1.9-0.2-2.6-0.6c-0.7-0.4-1.3-0.9-1.7-1.6c-0.4-0.7-0.6-1.6-0.6-2.5s0.2-1.9,0.6-2.6
					s1-1.3,1.7-1.8c0.7-0.4,1.5-0.6,2.4-0.6c1.5,0,2.5,0.5,3.2,1.5c0.7,1,0.9,2.4,0.7,4.1h-6.3c0,0.7,0.3,1.2,0.8,1.6
					c0.5,0.4,1.2,0.6,2,0.6c0.4,0,0.8-0.1,1.2-0.3c0.4-0.2,0.8-0.4,1-0.8l1.3,1.3c-0.4,0.5-0.9,1-1.5,1.3
					C136.8,416.3,136.1,416.4,135.2,416.4z M135,408.4c-0.6,0-1.2,0.2-1.6,0.6s-0.7,0.9-0.8,1.6h4.3c0-0.8-0.1-1.3-0.5-1.7
					C136,408.6,135.6,408.4,135,408.4z"/>
				<path class="st5" d="M140.8,416.3v-9.4h2.3l-0.1,2.3c0.4-0.9,0.9-1.5,1.5-1.9s1.3-0.6,2-0.6c0.7,0,1.3,0.2,1.8,0.6
					c0.5,0.4,0.9,1,1.1,1.8c0.4-0.8,0.9-1.4,1.6-1.7c0.7-0.4,1.3-0.6,2-0.6c1,0,1.8,0.4,2.4,1.1s0.8,1.8,0.8,3.1l0,5.4h-2.3l0-5.3
					c0-0.7-0.1-1.2-0.4-1.6c-0.2-0.4-0.6-0.6-1.2-0.6c-0.4,0-0.7,0.1-1,0.3c-0.3,0.2-0.6,0.6-0.9,1.2s-0.5,1.3-0.6,2.3
					c-0.1,1-0.2,2.2-0.2,3.6h-2.3V411c0-0.7-0.1-1.2-0.4-1.6c-0.2-0.4-0.6-0.6-1.1-0.6c-0.4,0-0.7,0.1-1,0.3
					c-0.3,0.2-0.6,0.6-0.9,1.2c-0.3,0.6-0.5,1.3-0.6,2.3c-0.2,1-0.2,2.2-0.3,3.6H140.8z"/>
			</g>
			<g class="st4">
				<path class="st5" d="M56.3,429.3v9.4H54l0.1-1.6c-0.3,0.6-0.8,1-1.3,1.3s-1.2,0.5-1.9,0.5c-0.8,0-1.5-0.2-2.1-0.6
					c-0.6-0.4-1-0.9-1.3-1.6c-0.3-0.7-0.4-1.4-0.4-2.3c0-1,0.2-2,0.6-2.8s1-1.4,1.7-1.9c0.7-0.4,1.5-0.7,2.4-0.7
					c0.6,0,1.1,0.1,1.6,0.4c0.5,0.3,0.8,0.6,1.1,1l0.2-1.2H56.3z M51.9,431.1c-0.8,0-1.4,0.3-1.9,0.9c-0.5,0.6-0.7,1.4-0.7,2.3
					c0,0.8,0.2,1.4,0.5,1.9c0.3,0.4,0.8,0.7,1.4,0.7c0.5,0,1-0.1,1.4-0.4c0.4-0.3,0.7-0.7,1-1.2c0.2-0.5,0.4-1.1,0.4-1.8
					c0-0.7-0.2-1.3-0.6-1.7C53.1,431.4,52.6,431.1,51.9,431.1z"/>
				<path class="st5" d="M62.1,438.9c-1.3,0-2.3-0.2-3-0.7c-0.7-0.5-1.1-1.2-1.2-2.1l1.9-0.5c0.1,0.5,0.3,0.8,0.7,1.1
					c0.4,0.3,0.9,0.4,1.6,0.4c0.5,0,1-0.1,1.2-0.3c0.3-0.2,0.4-0.4,0.4-0.7c0-0.3-0.2-0.5-0.5-0.7s-0.8-0.3-1.4-0.4
					c-0.7-0.1-1.3-0.3-1.8-0.5c-0.5-0.2-0.9-0.5-1.2-0.9c-0.3-0.4-0.4-0.9-0.4-1.4c0-0.6,0.2-1.1,0.5-1.5c0.3-0.5,0.8-0.8,1.3-1.1
					c0.6-0.3,1.2-0.4,2-0.4c1,0,1.8,0.2,2.4,0.7c0.6,0.5,1,1.1,1.1,1.8l-1.9,0.5c-0.1-0.4-0.3-0.6-0.6-0.9c-0.3-0.2-0.7-0.3-1.2-0.3
					s-0.9,0.1-1.1,0.3c-0.3,0.2-0.4,0.4-0.4,0.7c0,0.3,0.1,0.5,0.4,0.7c0.3,0.2,0.8,0.3,1.5,0.5c0.7,0.1,1.2,0.3,1.7,0.5
					c0.5,0.2,0.9,0.5,1.2,0.8c0.3,0.4,0.4,0.8,0.4,1.4c0,0.6-0.2,1.1-0.5,1.5c-0.3,0.4-0.8,0.8-1.4,1
					C63.5,438.8,62.8,438.9,62.1,438.9z"/>
				<path class="st5" d="M72.6,438.7v-7.5h-1.8v-1.9h1.8v-0.5c0-0.8,0.2-1.6,0.5-2.2c0.3-0.6,0.8-1.1,1.4-1.4c0.6-0.3,1.3-0.5,2-0.5
					c0.9,0,1.7,0.2,2.2,0.7c0.6,0.5,0.9,1.1,1,2l-1.9,0.2c0-0.3-0.2-0.6-0.4-0.8c-0.2-0.2-0.5-0.3-0.9-0.3c-0.5,0-0.9,0.2-1.2,0.5
					c-0.3,0.3-0.4,0.8-0.4,1.4v0.7h2.8v1.9h-2.8v7.5H72.6z"/>
				<path class="st5" d="M87.3,429.3v9.4H85l0.1-1.6c-0.3,0.6-0.8,1-1.3,1.3s-1.2,0.5-1.9,0.5c-0.8,0-1.5-0.2-2.1-0.6
					c-0.6-0.4-1-0.9-1.3-1.6c-0.3-0.7-0.4-1.4-0.4-2.3c0-1,0.2-2,0.6-2.8s1-1.4,1.7-1.9c0.7-0.4,1.5-0.7,2.4-0.7
					c0.6,0,1.1,0.1,1.6,0.4c0.5,0.3,0.8,0.6,1.1,1l0.2-1.2H87.3z M82.9,431.1c-0.8,0-1.4,0.3-1.9,0.9c-0.5,0.6-0.7,1.4-0.7,2.3
					c0,0.8,0.2,1.4,0.5,1.9c0.3,0.4,0.8,0.7,1.4,0.7c0.5,0,1-0.1,1.4-0.4c0.4-0.3,0.7-0.7,1-1.2c0.2-0.5,0.4-1.1,0.4-1.8
					c0-0.7-0.2-1.3-0.6-1.7C84.1,431.4,83.6,431.1,82.9,431.1z"/>
				<path class="st5" d="M89.8,438.7v-9.4H92l-0.1,2.3c0.4-0.9,0.9-1.5,1.5-1.9s1.3-0.6,2-0.6c0.7,0,1.3,0.2,1.8,0.6
					c0.5,0.4,0.9,1,1.1,1.8c0.4-0.8,0.9-1.4,1.6-1.7c0.7-0.4,1.3-0.6,2-0.6c1,0,1.8,0.4,2.4,1.1s0.8,1.8,0.8,3.1l0,5.4h-2.3l0-5.3
					c0-0.7-0.1-1.2-0.4-1.6c-0.2-0.4-0.6-0.6-1.2-0.6c-0.4,0-0.7,0.1-1,0.3c-0.3,0.2-0.6,0.6-0.9,1.2s-0.5,1.3-0.6,2.3
					c-0.1,1-0.2,2.2-0.2,3.6h-2.3v-5.3c0-0.7-0.1-1.2-0.4-1.6c-0.2-0.4-0.6-0.6-1.1-0.6c-0.4,0-0.7,0.1-1,0.3
					c-0.3,0.2-0.6,0.6-0.9,1.2c-0.3,0.6-0.5,1.3-0.6,2.3c-0.2,1-0.2,2.2-0.3,3.6H89.8z"/>
				<path class="st5" d="M109.7,429.3v9.4h-2.3v-9.4H109.7z M107.5,428l2.2-3.3l2.4,0.6l-2.5,2.7H107.5z"/>
				<path class="st5" d="M114.9,438.9c-0.9,0-1.6-0.2-2-0.7c-0.5-0.5-0.7-1.2-0.7-2.1v-11.2h2.3v11c0,0.7,0.3,1,0.9,1
					c0.3,0,0.6-0.1,0.8-0.2l0.6,1.7c-0.2,0.1-0.5,0.3-0.8,0.4C115.6,438.8,115.3,438.9,114.9,438.9z"/>
				<path class="st5" d="M118.8,427.8c-0.4,0-0.8-0.1-1.1-0.4c-0.3-0.3-0.4-0.6-0.4-1s0.1-0.7,0.4-1c0.3-0.3,0.6-0.4,1.1-0.4
					c0.4,0,0.8,0.1,1.1,0.4c0.3,0.3,0.4,0.6,0.4,1s-0.1,0.7-0.4,1C119.6,427.6,119.2,427.8,118.8,427.8z M119.9,429.3v9.4h-2.3v-9.4
					H119.9z"/>
				<path class="st5" d="M131.2,429.3v9.4h-2.3l0.1-1.6c-0.3,0.6-0.8,1-1.3,1.3s-1.2,0.5-1.9,0.5c-0.8,0-1.5-0.2-2.1-0.6
					c-0.6-0.4-1-0.9-1.3-1.6c-0.3-0.7-0.4-1.4-0.4-2.3c0-1,0.2-2,0.6-2.8s1-1.4,1.7-1.9c0.7-0.4,1.5-0.7,2.4-0.7
					c0.6,0,1.1,0.1,1.6,0.4c0.5,0.3,0.8,0.6,1.1,1l0.2-1.2H131.2z M126.8,431.1c-0.8,0-1.4,0.3-1.9,0.9c-0.5,0.6-0.7,1.4-0.7,2.3
					c0,0.8,0.2,1.4,0.5,1.9c0.3,0.4,0.8,0.7,1.4,0.7c0.5,0,1-0.1,1.4-0.4c0.4-0.3,0.7-0.7,1-1.2c0.2-0.5,0.4-1.1,0.4-1.8
					c0-0.7-0.2-1.3-0.6-1.7C128,431.4,127.4,431.1,126.8,431.1z"/>
				<path class="st5" d="M136.9,438.9c-1.3,0-2.3-0.2-3-0.7c-0.7-0.5-1.1-1.2-1.2-2.1l1.9-0.5c0.1,0.5,0.3,0.8,0.7,1.1
					c0.4,0.3,0.9,0.4,1.6,0.4c0.5,0,1-0.1,1.2-0.3c0.3-0.2,0.4-0.4,0.4-0.7c0-0.3-0.2-0.5-0.5-0.7s-0.8-0.3-1.4-0.4
					c-0.7-0.1-1.3-0.3-1.8-0.5c-0.5-0.2-0.9-0.5-1.2-0.9c-0.3-0.4-0.4-0.9-0.4-1.4c0-0.6,0.2-1.1,0.5-1.5c0.3-0.5,0.8-0.8,1.3-1.1
					c0.6-0.3,1.2-0.4,2-0.4c1,0,1.8,0.2,2.4,0.7c0.6,0.5,1,1.1,1.1,1.8l-1.9,0.5c-0.1-0.4-0.3-0.6-0.6-0.9c-0.3-0.2-0.7-0.3-1.2-0.3
					s-0.9,0.1-1.1,0.3c-0.3,0.2-0.4,0.4-0.4,0.7c0,0.3,0.1,0.5,0.4,0.7c0.3,0.2,0.8,0.3,1.5,0.5c0.7,0.1,1.2,0.3,1.7,0.5
					c0.5,0.2,0.9,0.5,1.2,0.8c0.3,0.4,0.4,0.8,0.4,1.4c0,0.6-0.2,1.1-0.5,1.5c-0.3,0.4-0.8,0.8-1.4,1
					C138.3,438.8,137.7,438.9,136.9,438.9z"/>
				<path class="st5" d="M151.5,438.9c-1,0-1.9-0.2-2.6-0.6c-0.7-0.4-1.3-0.9-1.7-1.6c-0.4-0.7-0.6-1.6-0.6-2.5s0.2-1.9,0.6-2.6
					s1-1.3,1.7-1.8c0.7-0.4,1.5-0.6,2.4-0.6c1.5,0,2.5,0.5,3.2,1.5c0.7,1,0.9,2.4,0.7,4.1h-6.3c0,0.7,0.3,1.2,0.8,1.6
					c0.5,0.4,1.2,0.6,2,0.6c0.4,0,0.8-0.1,1.2-0.3c0.4-0.2,0.8-0.4,1-0.8l1.3,1.3c-0.4,0.5-0.9,1-1.5,1.3
					C153.1,438.7,152.3,438.9,151.5,438.9z M151.3,430.8c-0.6,0-1.2,0.2-1.6,0.6s-0.7,0.9-0.8,1.6h4.3c0-0.8-0.1-1.3-0.5-1.7
					C152.3,431,151.9,430.8,151.3,430.8z"/>
				<path class="st5" d="M170.5,429.3v9.4h-2.3l0.1-1.6c-0.3,0.6-0.8,1-1.3,1.3s-1.2,0.5-1.9,0.5c-0.8,0-1.5-0.2-2.1-0.6
					c-0.6-0.4-1-0.9-1.3-1.6c-0.3-0.7-0.4-1.4-0.4-2.3c0-1,0.2-2,0.6-2.8s1-1.4,1.7-1.9c0.7-0.4,1.5-0.7,2.4-0.7
					c0.6,0,1.1,0.1,1.6,0.4c0.5,0.3,0.8,0.6,1.1,1l0.2-1.2H170.5z M166.1,431.1c-0.8,0-1.4,0.3-1.9,0.9c-0.5,0.6-0.7,1.4-0.7,2.3
					c0,0.8,0.2,1.4,0.5,1.9c0.3,0.4,0.8,0.7,1.4,0.7c0.5,0,1-0.1,1.4-0.4c0.4-0.3,0.7-0.7,1-1.2c0.2-0.5,0.4-1.1,0.4-1.8
					c0-0.7-0.2-1.3-0.6-1.7C167.3,431.4,166.8,431.1,166.1,431.1z"/>
			</g>
			<g class="st4">
				<path class="st5" d="M51.7,461.3c-1.4,0-2.6-0.4-3.4-1.2c-0.8-0.8-1.3-2-1.3-3.5c0-1,0.2-1.9,0.6-2.6c0.4-0.8,1-1.4,1.7-1.8
					s1.6-0.6,2.5-0.6c0.8,0,1.5,0.2,2.1,0.5c0.6,0.3,1.1,0.8,1.5,1.5l-1.6,1.2c-0.2-0.4-0.5-0.7-0.8-0.9s-0.7-0.3-1.1-0.3
					c-0.7,0-1.3,0.3-1.8,0.8c-0.5,0.5-0.7,1.3-0.7,2.2c0,0.9,0.2,1.5,0.6,2s1,0.7,1.8,0.7c0.4,0,0.8-0.1,1.2-0.3
					c0.4-0.2,0.7-0.5,0.9-0.9l1.6,1.3c-0.4,0.7-1,1.2-1.6,1.5S52.5,461.3,51.7,461.3z"/>
				<path class="st5" d="M60.8,451.6c1.4,0,2.5,0.4,3.3,1.3c0.8,0.8,1.2,2,1.2,3.4c0,1-0.2,1.8-0.6,2.6c-0.4,0.8-1,1.4-1.7,1.8
					c-0.7,0.4-1.6,0.7-2.6,0.7c-1.4,0-2.5-0.4-3.3-1.3c-0.8-0.8-1.2-2-1.2-3.4c0-1,0.2-1.8,0.6-2.6c0.4-0.8,1-1.4,1.7-1.8
					C58.9,451.8,59.8,451.6,60.8,451.6z M60.5,459.3c0.7,0,1.3-0.3,1.8-0.8c0.4-0.6,0.7-1.3,0.7-2.2c0-0.8-0.2-1.5-0.6-2
					c-0.4-0.5-0.9-0.7-1.6-0.7c-0.8,0-1.4,0.3-1.8,0.8c-0.4,0.6-0.7,1.3-0.7,2.2c0,0.8,0.2,1.5,0.6,2
					C59.2,459.1,59.8,459.3,60.5,459.3z"/>
				<path class="st5" d="M67.3,461.2v-9.4h2.3l-0.1,2.3c0.4-0.9,0.9-1.5,1.5-1.9s1.3-0.6,2-0.6c0.7,0,1.3,0.2,1.8,0.6
					c0.5,0.4,0.9,1,1.1,1.8c0.4-0.8,0.9-1.4,1.6-1.7c0.7-0.4,1.3-0.6,2-0.6c1,0,1.8,0.4,2.4,1.1s0.8,1.8,0.8,3.1l0,5.4h-2.3l0-5.3
					c0-0.7-0.1-1.2-0.4-1.6c-0.2-0.4-0.6-0.6-1.2-0.6c-0.4,0-0.7,0.1-1,0.3c-0.3,0.2-0.6,0.6-0.9,1.2s-0.5,1.3-0.6,2.3
					c-0.1,1-0.2,2.2-0.2,3.6h-2.3v-5.3c0-0.7-0.1-1.2-0.4-1.6c-0.2-0.4-0.6-0.6-1.1-0.6c-0.4,0-0.7,0.1-1,0.3
					c-0.3,0.2-0.6,0.6-0.9,1.2c-0.3,0.6-0.5,1.3-0.6,2.3c-0.2,1-0.2,2.2-0.3,3.6H67.3z"/>
				<path class="st5" d="M88,461.3c-1,0-1.8-0.4-2.4-1.1c-0.5-0.7-0.8-1.7-0.8-3l0-5.6h2.3l0,5.4c0,0.6,0.1,1.2,0.3,1.5
					s0.6,0.6,1.1,0.6c0.4,0,0.8-0.1,1.1-0.4c0.3-0.2,0.6-0.6,0.9-1.2c0.2-0.6,0.4-1.3,0.6-2.3c0.1-1,0.2-2.2,0.2-3.6h2.2v9.4h-2.3
					l0.1-2.2c-0.4,0.8-0.9,1.3-1.4,1.7S88.7,461.3,88,461.3z"/>
				<path class="st5" d="M96,461.2v-9.4h2.3l-0.1,2.4c0.4-0.8,0.9-1.4,1.5-1.9c0.6-0.4,1.3-0.7,2.1-0.7c1.1,0,1.9,0.4,2.4,1.1
					s0.8,1.8,0.8,3.1l0,5.4h-2.3l0-5.2c0-0.7-0.1-1.3-0.3-1.7c-0.2-0.4-0.6-0.6-1.2-0.6c-0.4,0-0.8,0.1-1.1,0.4
					c-0.3,0.2-0.7,0.6-0.9,1.2s-0.5,1.3-0.6,2.3c-0.1,1-0.2,2.2-0.2,3.6H96z"/>
				<path class="st5" d="M108.5,450.2c-0.4,0-0.8-0.1-1.1-0.4c-0.3-0.3-0.4-0.6-0.4-1s0.1-0.7,0.4-1c0.3-0.3,0.6-0.4,1.1-0.4
					c0.4,0,0.8,0.1,1.1,0.4c0.3,0.3,0.4,0.6,0.4,1s-0.1,0.7-0.4,1C109.3,450.1,108.9,450.2,108.5,450.2z M109.6,451.7v9.4h-2.3v-9.4
					H109.6z"/>
				<path class="st5" d="M120.9,447.3v13.8h-2.3l0.1-1.6c-0.3,0.6-0.8,1-1.3,1.3c-0.5,0.3-1.2,0.5-1.9,0.5c-0.8,0-1.5-0.2-2.1-0.6
					c-0.6-0.4-1-0.9-1.3-1.6c-0.3-0.7-0.4-1.4-0.4-2.3c0-1,0.2-2,0.6-2.8s1-1.4,1.7-1.9c0.7-0.4,1.5-0.7,2.4-0.7
					c0.5,0,0.9,0.1,1.3,0.2c0.4,0.2,0.7,0.4,1,0.7l0-0.8v-4.4H120.9z M116.5,453.6c-0.8,0-1.4,0.3-1.9,0.9c-0.5,0.6-0.7,1.4-0.7,2.3
					c0,0.8,0.2,1.4,0.5,1.9c0.3,0.4,0.8,0.7,1.4,0.7c0.5,0,1-0.1,1.4-0.4c0.4-0.3,0.7-0.7,1-1.2c0.2-0.5,0.4-1.1,0.4-1.8
					c0-0.7-0.2-1.3-0.6-1.7C117.6,453.8,117.1,453.6,116.5,453.6z"/>
				<path class="st5" d="M132.1,451.8v9.4h-2.3l0.1-1.6c-0.3,0.6-0.8,1-1.3,1.3s-1.2,0.5-1.9,0.5c-0.8,0-1.5-0.2-2.1-0.6
					c-0.6-0.4-1-0.9-1.3-1.6c-0.3-0.7-0.4-1.4-0.4-2.3c0-1,0.2-2,0.6-2.8s1-1.4,1.7-1.9c0.7-0.4,1.5-0.7,2.4-0.7
					c0.6,0,1.1,0.1,1.6,0.4c0.5,0.3,0.8,0.6,1.1,1l0.2-1.2H132.1z M127.7,453.6c-0.8,0-1.4,0.3-1.9,0.9c-0.5,0.6-0.7,1.4-0.7,2.3
					c0,0.8,0.2,1.4,0.5,1.9c0.3,0.4,0.8,0.7,1.4,0.7c0.5,0,1-0.1,1.4-0.4c0.4-0.3,0.7-0.7,1-1.2c0.2-0.5,0.4-1.1,0.4-1.8
					c0-0.7-0.2-1.3-0.6-1.7C128.9,453.8,128.4,453.6,127.7,453.6z"/>
				<path class="st5" d="M143.4,447.3v13.8h-2.3l0.1-1.6c-0.3,0.6-0.8,1-1.3,1.3c-0.5,0.3-1.2,0.5-1.9,0.5c-0.8,0-1.5-0.2-2.1-0.6
					c-0.6-0.4-1-0.9-1.3-1.6c-0.3-0.7-0.4-1.4-0.4-2.3c0-1,0.2-2,0.6-2.8s1-1.4,1.7-1.9c0.7-0.4,1.5-0.7,2.4-0.7
					c0.5,0,0.9,0.1,1.3,0.2c0.4,0.2,0.7,0.4,1,0.7l0-0.8v-4.4H143.4z M139,453.6c-0.8,0-1.4,0.3-1.9,0.9c-0.5,0.6-0.7,1.4-0.7,2.3
					c0,0.8,0.2,1.4,0.5,1.9c0.3,0.4,0.8,0.7,1.4,0.7c0.5,0,1-0.1,1.4-0.4c0.4-0.3,0.7-0.7,1-1.2c0.2-0.5,0.4-1.1,0.4-1.8
					c0-0.7-0.2-1.3-0.6-1.7C140.2,453.8,139.7,453.6,139,453.6z"/>
				<path class="st5" d="M150.3,461.3c-1,0-1.9-0.2-2.6-0.6c-0.7-0.4-1.3-0.9-1.7-1.6c-0.4-0.7-0.6-1.6-0.6-2.5s0.2-1.9,0.6-2.6
					s1-1.3,1.7-1.8c0.7-0.4,1.5-0.6,2.4-0.6c1.5,0,2.5,0.5,3.2,1.5c0.7,1,0.9,2.4,0.7,4.1h-6.3c0,0.7,0.3,1.2,0.8,1.6
					c0.5,0.4,1.2,0.6,2,0.6c0.4,0,0.8-0.1,1.2-0.3c0.4-0.2,0.8-0.4,1-0.8l1.3,1.3c-0.4,0.5-0.9,1-1.5,1.3
					C151.9,461.2,151.2,461.3,150.3,461.3z M150.1,453.3c-0.6,0-1.2,0.2-1.6,0.6s-0.7,0.9-0.8,1.6h4.3c0-0.8-0.1-1.3-0.5-1.7
					C151.2,453.5,150.7,453.3,150.1,453.3z"/>
			</g>
		</g>
	</g>
</g>
<g id="Camada_3_1_">
	<path class="st3" d="M144.8,265.5l-1.3-17.5c-8.8,0.1-17.6,1-26.1,1.8c-0.8,0.1-1.6,0.1-2.4,0.2c-0.1-1.3-0.3-2.7-0.4-4
		c-0.9-9-1.7-17.8-1.8-26.4L95.3,221c0.1,8.8,1,17.6,1.8,26.1c0.1,1.5,0.3,2.9,0.4,4.4c-7.2,0.4-14.3,0.3-21.3-0.6
		c-0.5-0.1-1.9-0.2-2.3-0.5L67,265.4c2.7,2.1,5.5,2.6,7.9,2.9c5,0.6,10,0.9,14.9,0.9c3,0,6-0.1,9-0.3c0.2,6.5,0.1,12.9-0.7,19.4
		c-0.1,0.5-0.2,1.9-0.5,2.3l15.1,6.9c2.1-2.7,2.6-5.5,2.9-7.9c0.6-5,0.9-10,0.9-15c0-2.4-0.1-4.8-0.2-7.1c0.7-0.1,1.4-0.1,2.1-0.2
		C127.5,266.4,136.2,265.6,144.8,265.5z"/>
</g>
<g id="Camada_4_1_" class="st0">
	<g class="st1">
		<g>
			<g>
				<g>
					<path class="st2" d="M199.3,106.8c0,32.9-12.1,61.6-44,75.1c-22.7,9.6-48.3,9.6-72.9,7.5c-11.1-0.9-22.5-2.3-32.3-7.6
						C8.7,159.3,1.2,82.9,29.2,48.4c6.6-8.2,15.7-14,24.9-19.1C86.8,11.4,124.3,8,156.6,28.7C183,45.6,199.3,75.4,199.3,106.8z"/>
				</g>
			</g>
		</g>
		<g>
			<g>
				<path class="st3" d="M97.3,181.8c-8.3,0-16.4-0.5-24.1-1.1c-11.1-0.9-22.9-2.3-33.2-7.9C22.2,163,8.9,142.4,3.7,116.2
					c-6-30.3-0.2-61.8,14.9-80.4c7.3-9,17-15,25.6-19.7c36.2-19.8,74.4-20,104.8-0.5c27,17.3,43.8,48,43.8,80
					c0,37.9-15.7,64.7-45.4,77.3C131.3,179.8,113.9,181.8,97.3,181.8z M99.2,5.7c-17.1,0-35,4.9-52.8,14.6
					c-8.2,4.5-17.5,10.2-24.2,18.5C8,56.3,2.5,86.4,8.3,115.3c4.9,24.8,17.3,44.3,34.1,53.3c9.5,5.2,20.7,6.5,31.4,7.4
					c22.5,1.9,48.7,2.5,71.8-7.3c35.2-14.9,42.6-47.9,42.6-73c0-30.5-16-59.6-41.7-76.1C131.9,10.3,115.9,5.7,99.2,5.7z"/>
			</g>
		</g>
		<g>
			<g class="st4">
				<path class="st5" d="M54.7,86.4h-2.4V73.1H57c1.7,0,3,0.3,3.9,1c0.9,0.7,1.4,1.7,1.4,3c0,1.3-0.5,2.4-1.5,3.1
					c-1,0.8-2.4,1.1-4.3,1.1h-1.8V86.4z M56.9,75.1h-2.2v4.4h2c1.1,0,1.9-0.2,2.5-0.5c0.5-0.4,0.8-0.9,0.8-1.7s-0.2-1.3-0.7-1.6
					C58.7,75.3,57.9,75.1,56.9,75.1z"/>
				<path class="st5" d="M69.9,79.2c-0.3-0.1-0.6-0.1-1-0.1c-0.7,0-1.2,0.2-1.6,0.7c-0.4,0.5-0.7,1.3-0.9,2.4
					c-0.2,1.1-0.3,2.5-0.3,4.3h-2.3v-6.1l0-3.3h2.3L66,79.6c0.3-1,0.8-1.7,1.4-2.2c0.6-0.4,1.2-0.6,1.9-0.6c0.2,0,0.4,0,0.6,0
					c0.2,0,0.3,0.1,0.5,0.1L69.9,79.2z"/>
				<path class="st5" d="M75.5,76.8c1.4,0,2.5,0.4,3.3,1.3c0.8,0.8,1.2,2,1.2,3.4c0,1-0.2,1.8-0.6,2.6c-0.4,0.8-1,1.4-1.7,1.8
					c-0.7,0.4-1.6,0.7-2.6,0.7c-1.4,0-2.5-0.4-3.3-1.3c-0.8-0.8-1.2-2-1.2-3.4c0-1,0.2-1.8,0.6-2.6c0.4-0.8,1-1.4,1.7-1.8
					C73.6,77,74.5,76.8,75.5,76.8z M75.2,84.6c0.7,0,1.3-0.3,1.8-0.8c0.4-0.6,0.7-1.3,0.7-2.2c0-0.8-0.2-1.5-0.6-2
					c-0.4-0.5-0.9-0.7-1.6-0.7c-0.8,0-1.4,0.3-1.8,0.8C73.2,80.2,73,81,73,81.9c0,0.8,0.2,1.5,0.6,2C73.9,84.4,74.5,84.6,75.2,84.6z
					"/>
				<path class="st5" d="M85.4,90.3c-0.5,0-1.1-0.1-1.8-0.2s-1.2-0.3-1.6-0.6l0.6-2c0.4,0.2,0.9,0.4,1.3,0.5c0.5,0.1,1,0.2,1.5,0.2
					c1.1,0,1.9-0.3,2.4-0.8c0.5-0.5,0.7-1.3,0.8-2.5l0-0.6c-0.3,0.6-0.8,1-1.3,1.3c-0.5,0.3-1.2,0.5-1.9,0.5c-0.8,0-1.6-0.2-2.2-0.5
					c-0.6-0.4-1-0.9-1.3-1.5s-0.4-1.4-0.4-2.2c0-1,0.2-1.9,0.6-2.7c0.4-0.8,1-1.4,1.7-1.8c0.7-0.4,1.5-0.7,2.5-0.7
					c0.6,0,1.2,0.1,1.6,0.4c0.5,0.3,0.8,0.6,1.1,1l0.2-1.2h1.7v7.8c0,1.9-0.5,3.2-1.5,4.2C88.5,89.9,87.1,90.3,85.4,90.3z
					 M86.5,78.8c-0.8,0-1.4,0.3-1.9,0.8c-0.5,0.6-0.7,1.3-0.7,2.2c0,0.8,0.2,1.4,0.5,1.8c0.4,0.4,0.9,0.6,1.5,0.6
					c0.5,0,1-0.1,1.4-0.4c0.4-0.3,0.7-0.7,1-1.2s0.4-1,0.4-1.6c0-0.7-0.2-1.2-0.6-1.6C87.6,79,87.1,78.8,86.5,78.8z"/>
				<path class="st5" d="M99.4,79.2c-0.3-0.1-0.6-0.1-1-0.1c-0.7,0-1.2,0.2-1.6,0.7c-0.4,0.5-0.7,1.3-0.9,2.4
					c-0.2,1.1-0.3,2.5-0.3,4.3h-2.3v-6.1l0-3.3h2.3l-0.1,2.6c0.3-1,0.8-1.7,1.4-2.2c0.6-0.4,1.2-0.6,1.9-0.6c0.2,0,0.4,0,0.6,0
					c0.2,0,0.3,0.1,0.5,0.1L99.4,79.2z"/>
				<path class="st5" d="M109.4,77v9.4H107l0.1-1.6c-0.3,0.6-0.8,1-1.3,1.3s-1.2,0.5-1.9,0.5c-0.8,0-1.5-0.2-2.1-0.6
					c-0.6-0.4-1-0.9-1.3-1.6c-0.3-0.7-0.4-1.4-0.4-2.3c0-1,0.2-2,0.6-2.8s1-1.4,1.7-1.9c0.7-0.4,1.5-0.7,2.4-0.7
					c0.6,0,1.1,0.1,1.6,0.4c0.5,0.3,0.8,0.6,1.1,1l0.2-1.2H109.4z M105,78.8c-0.8,0-1.4,0.3-1.9,0.9c-0.5,0.6-0.7,1.4-0.7,2.3
					c0,0.8,0.2,1.4,0.5,1.9c0.3,0.4,0.8,0.7,1.4,0.7c0.5,0,1-0.1,1.4-0.4c0.4-0.3,0.7-0.7,1-1.2c0.2-0.5,0.4-1.1,0.4-1.8
					c0-0.7-0.2-1.3-0.6-1.7C106.1,79.1,105.6,78.8,105,78.8z"/>
				<path class="st5" d="M111.8,86.4V77h2.3l-0.1,2.3c0.4-0.9,0.9-1.5,1.5-1.9s1.3-0.6,2-0.6c0.7,0,1.3,0.2,1.8,0.6
					c0.5,0.4,0.9,1,1.1,1.8c0.4-0.8,0.9-1.4,1.6-1.7c0.7-0.4,1.3-0.6,2-0.6c1,0,1.8,0.4,2.4,1.1s0.8,1.8,0.8,3.1l0,5.4h-2.3l0-5.3
					c0-0.7-0.1-1.2-0.4-1.6c-0.2-0.4-0.6-0.6-1.2-0.6c-0.4,0-0.7,0.1-1,0.3c-0.3,0.2-0.6,0.6-0.9,1.2s-0.5,1.3-0.6,2.3
					c-0.1,1-0.2,2.2-0.2,3.6h-2.3v-5.3c0-0.7-0.1-1.2-0.4-1.6c-0.2-0.4-0.6-0.6-1.1-0.6c-0.4,0-0.7,0.1-1,0.3
					c-0.3,0.2-0.6,0.6-0.9,1.2c-0.3,0.6-0.5,1.3-0.6,2.3c-0.2,1-0.2,2.2-0.3,3.6H111.8z"/>
				<path class="st5" d="M138.3,77v9.4H136l0.1-1.6c-0.3,0.6-0.8,1-1.3,1.3s-1.2,0.5-1.9,0.5c-0.8,0-1.5-0.2-2.1-0.6
					c-0.6-0.4-1-0.9-1.3-1.6c-0.3-0.7-0.4-1.4-0.4-2.3c0-1,0.2-2,0.6-2.8s1-1.4,1.7-1.9c0.7-0.4,1.5-0.7,2.4-0.7
					c0.6,0,1.1,0.1,1.6,0.4c0.5,0.3,0.8,0.6,1.1,1l0.2-1.2H138.3z M133.9,78.8c-0.8,0-1.4,0.3-1.9,0.9c-0.5,0.6-0.7,1.4-0.7,2.3
					c0,0.8,0.2,1.4,0.5,1.9c0.3,0.4,0.8,0.7,1.4,0.7c0.5,0,1-0.1,1.4-0.4c0.4-0.3,0.7-0.7,1-1.2c0.2-0.5,0.4-1.1,0.4-1.8
					c0-0.7-0.2-1.3-0.6-1.7C135.1,79.1,134.6,78.8,133.9,78.8z"/>
				<path class="st5" d="M144.1,86.6c-1.3,0-2.3-0.2-3-0.7c-0.7-0.5-1.1-1.2-1.2-2.1l1.9-0.5c0.1,0.5,0.3,0.8,0.7,1.1
					c0.4,0.3,0.9,0.4,1.6,0.4c0.5,0,1-0.1,1.2-0.3c0.3-0.2,0.4-0.4,0.4-0.7c0-0.3-0.2-0.5-0.5-0.7s-0.8-0.3-1.4-0.4
					c-0.7-0.1-1.3-0.3-1.8-0.5c-0.5-0.2-0.9-0.5-1.2-0.9c-0.3-0.4-0.4-0.9-0.4-1.4c0-0.6,0.2-1.1,0.5-1.5c0.3-0.5,0.8-0.8,1.3-1.1
					c0.6-0.3,1.2-0.4,2-0.4c1,0,1.8,0.2,2.4,0.7c0.6,0.5,1,1.1,1.1,1.8l-1.9,0.5c-0.1-0.4-0.3-0.6-0.6-0.9c-0.3-0.2-0.7-0.3-1.2-0.3
					s-0.9,0.1-1.1,0.3c-0.3,0.2-0.4,0.4-0.4,0.7c0,0.3,0.1,0.5,0.4,0.7c0.3,0.2,0.8,0.3,1.5,0.5c0.7,0.1,1.2,0.3,1.7,0.5
					c0.5,0.2,0.9,0.5,1.2,0.8c0.3,0.4,0.4,0.8,0.4,1.4c0,0.6-0.2,1.1-0.5,1.5c-0.3,0.4-0.8,0.8-1.4,1
					C145.5,86.5,144.8,86.6,144.1,86.6z"/>
			</g>
			<g class="st4">
				<path class="st5" d="M52.3,108.9V95.6h2.4v13.3H52.3z"/>
				<path class="st5" d="M57.3,108.9v-9.4h2.3l-0.1,2.4c0.4-0.8,0.9-1.4,1.5-1.9c0.6-0.4,1.3-0.7,2.1-0.7c1.1,0,1.9,0.4,2.4,1.1
					s0.8,1.8,0.8,3.1l0,5.4H64l0-5.2c0-0.7-0.1-1.3-0.3-1.7c-0.2-0.4-0.6-0.6-1.2-0.6c-0.4,0-0.8,0.1-1.1,0.4
					c-0.3,0.2-0.7,0.6-0.9,1.2s-0.5,1.3-0.6,2.3c-0.1,1-0.2,2.2-0.2,3.6H57.3z"/>
				<path class="st5" d="M72.6,109c-1.1,0-2-0.3-2.6-0.9c-0.6-0.6-0.9-1.4-0.9-2.5l0.1-4.3h-1.6v-1.9h1.6l0-1.9h2.3l0,1.9h3.1v1.9
					h-3.1l-0.1,4.1c0,0.5,0.1,0.9,0.4,1.2c0.3,0.3,0.7,0.4,1.2,0.4c0.3,0,0.6,0,0.8-0.1s0.5-0.2,0.8-0.4l0.7,1.8
					c-0.3,0.3-0.7,0.4-1.1,0.6C73.6,109,73.2,109,72.6,109z"/>
				<path class="st5" d="M80.5,109c-1,0-1.9-0.2-2.6-0.6c-0.7-0.4-1.3-0.9-1.7-1.6c-0.4-0.7-0.6-1.6-0.6-2.5s0.2-1.9,0.6-2.6
					s1-1.3,1.7-1.8c0.7-0.4,1.5-0.6,2.4-0.6c1.5,0,2.5,0.5,3.2,1.5c0.7,1,0.9,2.4,0.7,4.1h-6.3c0,0.7,0.3,1.2,0.8,1.6
					c0.5,0.4,1.2,0.6,2,0.6c0.4,0,0.8-0.1,1.2-0.3c0.4-0.2,0.8-0.4,1-0.8l1.3,1.3c-0.4,0.5-0.9,1-1.5,1.3
					C82.1,108.9,81.4,109,80.5,109z M80.3,101c-0.6,0-1.2,0.2-1.6,0.6s-0.7,0.9-0.8,1.6h4.3c0-0.8-0.1-1.3-0.5-1.7
					C81.4,101.2,80.9,101,80.3,101z"/>
				<path class="st5" d="M92.2,101.6c-0.3-0.1-0.6-0.1-1-0.1c-0.7,0-1.2,0.2-1.6,0.7c-0.4,0.5-0.7,1.3-0.9,2.4
					c-0.2,1.1-0.3,2.5-0.3,4.3h-2.3v-6.1l0-3.3h2.3l-0.1,2.6c0.3-1,0.8-1.7,1.4-2.2c0.6-0.4,1.2-0.6,1.9-0.6c0.2,0,0.4,0,0.6,0
					c0.2,0,0.3,0.1,0.5,0.1L92.2,101.6z"/>
				<path class="st5" d="M102.2,99.5v9.4h-2.3l0.1-1.6c-0.3,0.6-0.8,1-1.3,1.3s-1.2,0.5-1.9,0.5c-0.8,0-1.5-0.2-2.1-0.6
					c-0.6-0.4-1-0.9-1.3-1.6c-0.3-0.7-0.4-1.4-0.4-2.3c0-1,0.2-2,0.6-2.8s1-1.4,1.7-1.9c0.7-0.4,1.5-0.7,2.4-0.7
					c0.6,0,1.1,0.1,1.6,0.4c0.5,0.3,0.8,0.6,1.1,1l0.2-1.2H102.2z M97.8,101.3c-0.8,0-1.4,0.3-1.9,0.9c-0.5,0.6-0.7,1.4-0.7,2.3
					c0,0.8,0.2,1.4,0.5,1.9c0.3,0.4,0.8,0.7,1.4,0.7c0.5,0,1-0.1,1.4-0.4c0.4-0.3,0.7-0.7,1-1.2c0.2-0.5,0.4-1.1,0.4-1.8
					c0-0.7-0.2-1.3-0.6-1.7C99,101.5,98.5,101.3,97.8,101.3z"/>
				<path class="st5" d="M108.6,109c-1.1,0-2-0.3-2.6-0.9c-0.6-0.6-0.9-1.4-0.9-2.5l0.1-4.3h-1.6v-1.9h1.6l0-1.9h2.3l0,1.9h3.1v1.9
					h-3.1l-0.1,4.1c0,0.5,0.1,0.9,0.4,1.2c0.3,0.3,0.7,0.4,1.2,0.4c0.3,0,0.6,0,0.8-0.1s0.5-0.2,0.8-0.4l0.7,1.8
					c-0.3,0.3-0.7,0.4-1.1,0.6C109.7,109,109.2,109,108.6,109z"/>
				<path class="st5" d="M113.3,97.9c-0.4,0-0.8-0.1-1.1-0.4c-0.3-0.3-0.4-0.6-0.4-1s0.1-0.7,0.4-1c0.3-0.3,0.6-0.4,1.1-0.4
					c0.4,0,0.8,0.1,1.1,0.4c0.3,0.3,0.4,0.6,0.4,1s-0.1,0.7-0.4,1C114.1,97.8,113.8,97.9,113.3,97.9z M114.5,99.4v9.4h-2.3v-9.4
					H114.5z"/>
				<path class="st5" d="M123.4,99.4h2.3l-3.5,9.4h-3.3l-3-9.4h2.5l2.3,7.6L123.4,99.4z"/>
				<path class="st5" d="M130.9,99.3c1.4,0,2.5,0.4,3.3,1.3c0.8,0.8,1.2,2,1.2,3.4c0,1-0.2,1.8-0.6,2.6c-0.4,0.8-1,1.4-1.7,1.8
					c-0.7,0.4-1.6,0.7-2.6,0.7c-1.4,0-2.5-0.4-3.3-1.3c-0.8-0.8-1.2-2-1.2-3.4c0-1,0.2-1.8,0.6-2.6c0.4-0.8,1-1.4,1.7-1.8
					C129,99.5,129.9,99.3,130.9,99.3z M130.6,107c0.7,0,1.3-0.3,1.8-0.8c0.4-0.6,0.7-1.3,0.7-2.2c0-0.8-0.2-1.5-0.6-2
					c-0.4-0.5-0.9-0.7-1.6-0.7c-0.8,0-1.4,0.3-1.8,0.8c-0.4,0.6-0.7,1.3-0.7,2.2c0,0.8,0.2,1.5,0.6,2
					C129.3,106.8,129.9,107,130.6,107z"/>
				<path class="st5" d="M140.7,109c-1.3,0-2.3-0.2-3-0.7c-0.7-0.5-1.1-1.2-1.2-2.1l1.9-0.5c0.1,0.5,0.3,0.8,0.7,1.1
					c0.4,0.3,0.9,0.4,1.6,0.4c0.5,0,1-0.1,1.2-0.3c0.3-0.2,0.4-0.4,0.4-0.7c0-0.3-0.2-0.5-0.5-0.7s-0.8-0.3-1.4-0.4
					c-0.7-0.1-1.3-0.3-1.8-0.5c-0.5-0.2-0.9-0.5-1.2-0.9c-0.3-0.4-0.4-0.9-0.4-1.4c0-0.6,0.2-1.1,0.5-1.5c0.3-0.5,0.8-0.8,1.3-1.1
					c0.6-0.3,1.2-0.4,2-0.4c1,0,1.8,0.2,2.4,0.7c0.6,0.5,1,1.1,1.1,1.8l-1.9,0.5c-0.1-0.4-0.3-0.6-0.6-0.9c-0.3-0.2-0.7-0.3-1.2-0.3
					s-0.9,0.1-1.1,0.3c-0.3,0.2-0.4,0.4-0.4,0.7c0,0.3,0.1,0.5,0.4,0.7c0.3,0.2,0.8,0.3,1.5,0.5c0.7,0.1,1.2,0.3,1.7,0.5
					c0.5,0.2,0.9,0.5,1.2,0.8c0.3,0.4,0.4,0.8,0.4,1.4c0,0.6-0.2,1.1-0.5,1.5c-0.3,0.4-0.8,0.8-1.4,1
					C142.1,108.9,141.4,109,140.7,109z"/>
			</g>
		</g>
	</g>
</g>
<g id="Camada_5_1_" class="st0">
	<path class="st6" d="M266.8,252v-15.2l25.5,21l-25.5,24.8v-15.1c-3.8-0.3-7.6-0.8-11.3-1.3c-9-1.3-17.4-2.4-25.9-0.9
		c-0.3,0-1.2,0.2-1.4,0.5l-4.4-13.4c1.7-1.8,3.5-2.3,5-2.6c3.1-0.6,6.3-0.8,9.4-0.8c6.1,0,12.1,0.8,18,1.7
		C259.7,251.2,263.3,251.7,266.8,252z"/>
</g>
<g id="Camada_6" class="st0">
	<g class="st1">
		<g>
			<path class="st3" d="M501.3,257.3c0,32.9-12.1,61.6-44,75.1c-22.7,9.6-48.3,9.6-72.9,7.5c-11.1-0.9-22.5-2.3-32.3-7.6
				c-41.4-22.4-48.9-98.8-20.8-133.4c6.6-8.2,15.7-14,24.9-19.1c32.6-17.9,70.1-21.3,102.4-0.6C485,196.2,501.3,226,501.3,257.3z"/>
		</g>
		<g>
			<g class="st4">
				<path class="st7" d="M364.7,219.7l0.5-13.3h2.1l4.9,10.2l4.8-10.2h2.1l0.4,13.3h-2.3l-0.3-8.3l-3.9,8.3h-1.8l-3.9-8.2l-0.3,8.2
					H364.7z"/>
				<path class="st7" d="M390.9,210.3v9.4h-2.3l0.1-1.6c-0.3,0.6-0.8,1-1.3,1.3c-0.5,0.3-1.2,0.5-1.9,0.5c-0.8,0-1.5-0.2-2.1-0.6
					c-0.6-0.4-1-0.9-1.3-1.6c-0.3-0.7-0.4-1.4-0.4-2.3c0-1,0.2-2,0.6-2.8c0.4-0.8,1-1.4,1.7-1.9c0.7-0.4,1.5-0.7,2.4-0.7
					c0.6,0,1.1,0.1,1.6,0.4c0.5,0.3,0.8,0.6,1.1,1l0.2-1.2H390.9z M386.5,212.1c-0.8,0-1.4,0.3-1.9,0.9c-0.5,0.6-0.7,1.4-0.7,2.3
					c0,0.8,0.2,1.4,0.5,1.9c0.3,0.4,0.8,0.7,1.4,0.7c0.5,0,1-0.1,1.4-0.4c0.4-0.3,0.7-0.7,1-1.2c0.2-0.5,0.4-1.1,0.4-1.8
					c0-0.7-0.2-1.3-0.6-1.7C387.7,212.3,387.2,212.1,386.5,212.1z"/>
				<path class="st7" d="M394.5,208.7c-0.4,0-0.8-0.1-1.1-0.4s-0.4-0.6-0.4-1s0.1-0.7,0.4-1c0.3-0.3,0.6-0.4,1.1-0.4
					s0.8,0.1,1.1,0.4c0.3,0.3,0.4,0.6,0.4,1s-0.1,0.7-0.4,1C395.3,208.6,394.9,208.7,394.5,208.7z M395.6,210.2v9.4h-2.3v-9.4H395.6
					z"/>
				<path class="st7" d="M402.5,210.1c1.4,0,2.5,0.4,3.3,1.3s1.2,2,1.2,3.4c0,1-0.2,1.8-0.6,2.6c-0.4,0.8-1,1.4-1.7,1.8
					c-0.7,0.4-1.6,0.7-2.6,0.7c-1.4,0-2.5-0.4-3.3-1.3c-0.8-0.8-1.2-2-1.2-3.4c0-1,0.2-1.8,0.6-2.6c0.4-0.8,1-1.4,1.7-1.8
					C400.6,210.3,401.5,210.1,402.5,210.1z M402.2,217.9c0.7,0,1.3-0.3,1.8-0.8c0.4-0.6,0.7-1.3,0.7-2.2c0-0.8-0.2-1.5-0.6-2
					c-0.4-0.5-0.9-0.7-1.6-0.7c-0.8,0-1.4,0.3-1.8,0.8c-0.4,0.6-0.7,1.3-0.7,2.2c0,0.8,0.2,1.5,0.6,2
					C400.9,217.6,401.5,217.9,402.2,217.9z"/>
				<path class="st7" d="M415,212.4c-0.3-0.1-0.6-0.1-1-0.1c-0.7,0-1.2,0.2-1.6,0.7c-0.4,0.5-0.7,1.3-0.9,2.4
					c-0.2,1.1-0.3,2.5-0.3,4.3H409v-6.1l0-3.3h2.3l-0.1,2.6c0.3-1,0.8-1.7,1.4-2.2c0.6-0.4,1.2-0.6,1.9-0.6c0.2,0,0.4,0,0.6,0
					s0.3,0.1,0.5,0.1L415,212.4z"/>
				<path class="st7" d="M420.7,219.9c-1,0-1.9-0.2-2.6-0.6c-0.7-0.4-1.3-0.9-1.7-1.6c-0.4-0.7-0.6-1.6-0.6-2.5s0.2-1.9,0.6-2.6
					c0.4-0.8,1-1.3,1.7-1.8c0.7-0.4,1.5-0.6,2.4-0.6c1.5,0,2.5,0.5,3.2,1.5c0.7,1,0.9,2.4,0.7,4.1H418c0,0.7,0.3,1.2,0.8,1.6
					c0.5,0.4,1.2,0.6,2,0.6c0.4,0,0.8-0.1,1.2-0.3c0.4-0.2,0.8-0.4,1-0.8l1.3,1.3c-0.4,0.5-0.9,1-1.5,1.3
					C422.3,219.7,421.5,219.9,420.7,219.9z M420.5,211.8c-0.6,0-1.2,0.2-1.6,0.6c-0.4,0.4-0.7,0.9-0.8,1.6h4.3
					c0-0.8-0.1-1.3-0.5-1.7C421.5,212,421.1,211.8,420.5,211.8z"/>
				<path class="st7" d="M429.6,219.9c-1.3,0-2.3-0.2-3-0.7c-0.7-0.5-1.1-1.2-1.2-2.1l1.9-0.5c0.1,0.5,0.3,0.8,0.7,1.1
					c0.4,0.3,0.9,0.4,1.6,0.4c0.5,0,1-0.1,1.2-0.3c0.3-0.2,0.4-0.4,0.4-0.7c0-0.3-0.2-0.5-0.5-0.7s-0.8-0.3-1.4-0.4
					c-0.7-0.1-1.3-0.3-1.8-0.5s-0.9-0.5-1.2-0.9c-0.3-0.4-0.4-0.9-0.4-1.4c0-0.6,0.2-1.1,0.5-1.5c0.3-0.5,0.8-0.8,1.3-1.1
					c0.6-0.3,1.2-0.4,2-0.4c1,0,1.8,0.2,2.4,0.7c0.6,0.5,1,1.1,1.1,1.8l-1.9,0.5c-0.1-0.4-0.3-0.6-0.6-0.9c-0.3-0.2-0.7-0.3-1.2-0.3
					s-0.9,0.1-1.1,0.3c-0.3,0.2-0.4,0.4-0.4,0.7c0,0.3,0.1,0.5,0.4,0.7c0.3,0.2,0.8,0.3,1.5,0.5c0.7,0.1,1.2,0.3,1.7,0.5
					c0.5,0.2,0.9,0.5,1.2,0.8s0.4,0.8,0.4,1.4c0,0.6-0.2,1.1-0.5,1.5c-0.3,0.4-0.8,0.8-1.4,1S430.4,219.9,429.6,219.9z"/>
			</g>
			<g class="st4">
				<path class="st7" d="M368.8,242.3c-1.4,0-2.6-0.4-3.4-1.2c-0.8-0.8-1.3-2-1.3-3.5c0-1,0.2-1.9,0.6-2.6c0.4-0.8,1-1.4,1.7-1.8
					c0.7-0.4,1.6-0.6,2.5-0.6c0.8,0,1.5,0.2,2.1,0.5c0.6,0.3,1.1,0.8,1.5,1.5l-1.6,1.2c-0.2-0.4-0.5-0.7-0.8-0.9s-0.7-0.3-1.1-0.3
					c-0.7,0-1.3,0.3-1.8,0.8c-0.5,0.5-0.7,1.3-0.7,2.2c0,0.9,0.2,1.5,0.6,2s1,0.7,1.8,0.7c0.4,0,0.8-0.1,1.2-0.3
					c0.4-0.2,0.7-0.5,0.9-0.9l1.6,1.3c-0.4,0.7-1,1.2-1.6,1.5S369.6,242.3,368.8,242.3z"/>
				<path class="st7" d="M373.8,242.1v-13.8h2.3l0,4.4L376,235c0.4-0.8,0.9-1.4,1.5-1.9s1.3-0.7,2.1-0.7c1.1,0,1.9,0.4,2.4,1.1
					c0.5,0.7,0.8,1.8,0.8,3.1l0,5.4h-2.3l0-5.2c0-0.7-0.1-1.3-0.3-1.7c-0.2-0.4-0.6-0.6-1.2-0.6c-0.4,0-0.8,0.1-1.1,0.4
					c-0.3,0.2-0.7,0.6-0.9,1.2s-0.5,1.3-0.6,2.3c-0.2,1-0.2,2.2-0.2,3.6H373.8z"/>
				<path class="st7" d="M393.9,232.7v9.4h-2.3l0.1-1.6c-0.3,0.6-0.8,1-1.3,1.3c-0.5,0.3-1.2,0.5-1.9,0.5c-0.8,0-1.5-0.2-2.1-0.6
					c-0.6-0.4-1-0.9-1.3-1.6c-0.3-0.7-0.4-1.4-0.4-2.3c0-1,0.2-2,0.6-2.8c0.4-0.8,1-1.4,1.7-1.9s1.5-0.7,2.4-0.7
					c0.6,0,1.1,0.1,1.6,0.4c0.5,0.3,0.8,0.6,1.1,1l0.2-1.2H393.9z M389.5,234.6c-0.8,0-1.4,0.3-1.9,0.9c-0.5,0.6-0.7,1.4-0.7,2.3
					c0,0.8,0.2,1.4,0.5,1.9c0.3,0.4,0.8,0.7,1.4,0.7c0.5,0,1-0.1,1.4-0.4c0.4-0.3,0.7-0.7,1-1.2c0.2-0.5,0.4-1.1,0.4-1.8
					c0-0.7-0.2-1.3-0.6-1.7S390.2,234.6,389.5,234.6z"/>
				<path class="st7" d="M396.3,242.1v-9.4h2.3l-0.1,2.4c0.4-0.8,0.9-1.4,1.5-1.9c0.6-0.4,1.3-0.7,2.1-0.7c1.1,0,1.9,0.4,2.4,1.1
					c0.5,0.7,0.8,1.8,0.8,3.1l0,5.4H403l0-5.2c0-0.7-0.1-1.3-0.3-1.7c-0.2-0.4-0.6-0.6-1.2-0.6c-0.4,0-0.8,0.1-1.1,0.4
					c-0.3,0.2-0.7,0.6-0.9,1.2s-0.5,1.3-0.6,2.3c-0.1,1-0.2,2.2-0.2,3.6H396.3z"/>
				<path class="st7" d="M411.8,242.3c-1.4,0-2.6-0.4-3.4-1.2c-0.8-0.8-1.3-2-1.3-3.5c0-1,0.2-1.9,0.6-2.6c0.4-0.8,1-1.4,1.7-1.8
					c0.7-0.4,1.6-0.6,2.5-0.6c0.8,0,1.5,0.2,2.1,0.5c0.6,0.3,1.1,0.8,1.5,1.5l-1.6,1.2c-0.2-0.4-0.5-0.7-0.8-0.9s-0.7-0.3-1.1-0.3
					c-0.7,0-1.3,0.3-1.8,0.8s-0.7,1.3-0.7,2.2c0,0.9,0.2,1.5,0.6,2s1,0.7,1.8,0.7c0.4,0,0.8-0.1,1.2-0.3c0.4-0.2,0.7-0.5,0.9-0.9
					l1.6,1.3c-0.4,0.7-1,1.2-1.6,1.5S412.6,242.3,411.8,242.3z"/>
				<path class="st7" d="M421,242.3c-1,0-1.9-0.2-2.6-0.6c-0.7-0.4-1.3-0.9-1.7-1.6c-0.4-0.7-0.6-1.6-0.6-2.5s0.2-1.9,0.6-2.6
					c0.4-0.8,1-1.3,1.7-1.8c0.7-0.4,1.5-0.6,2.4-0.6c1.5,0,2.5,0.5,3.2,1.5c0.7,1,0.9,2.4,0.7,4.1h-6.3c0,0.7,0.3,1.2,0.8,1.6
					c0.5,0.4,1.2,0.6,2,0.6c0.4,0,0.8-0.1,1.2-0.3c0.4-0.2,0.8-0.4,1-0.8l1.3,1.3c-0.4,0.5-0.9,1-1.5,1.3
					C422.6,242.2,421.8,242.3,421,242.3z M420.8,234.3c-0.6,0-1.2,0.2-1.6,0.6c-0.4,0.4-0.7,0.9-0.8,1.6h4.3c0-0.8-0.1-1.3-0.5-1.7
					C421.8,234.4,421.4,234.3,420.8,234.3z"/>
				<path class="st7" d="M429.9,242.3c-1.3,0-2.3-0.2-3-0.7c-0.7-0.5-1.1-1.2-1.2-2.1l1.9-0.5c0.1,0.5,0.3,0.8,0.7,1.1
					c0.4,0.3,0.9,0.4,1.6,0.4c0.5,0,1-0.1,1.2-0.3c0.3-0.2,0.4-0.4,0.4-0.7c0-0.3-0.2-0.5-0.5-0.7s-0.8-0.3-1.4-0.4
					c-0.7-0.1-1.3-0.3-1.8-0.5s-0.9-0.5-1.2-0.9c-0.3-0.4-0.4-0.9-0.4-1.4c0-0.6,0.2-1.1,0.5-1.5c0.3-0.5,0.8-0.8,1.3-1.1
					c0.6-0.3,1.2-0.4,2-0.4c1,0,1.8,0.2,2.4,0.7c0.6,0.5,1,1.1,1.1,1.8l-1.9,0.5c-0.1-0.4-0.3-0.6-0.6-0.9c-0.3-0.2-0.7-0.3-1.2-0.3
					s-0.9,0.1-1.1,0.3c-0.3,0.2-0.4,0.4-0.4,0.7c0,0.3,0.1,0.5,0.4,0.7c0.3,0.2,0.8,0.3,1.5,0.5c0.7,0.1,1.2,0.3,1.7,0.5
					c0.5,0.2,0.9,0.5,1.2,0.8s0.4,0.8,0.4,1.4c0,0.6-0.2,1.1-0.5,1.5c-0.3,0.4-0.8,0.8-1.4,1S430.7,242.3,429.9,242.3z"/>
				<path class="st7" d="M448.8,228.3v13.8h-2.3l0.1-1.6c-0.3,0.6-0.8,1-1.3,1.3c-0.5,0.3-1.2,0.5-1.9,0.5c-0.8,0-1.5-0.2-2.1-0.6
					c-0.6-0.4-1-0.9-1.3-1.6c-0.3-0.7-0.4-1.4-0.4-2.3c0-1,0.2-2,0.6-2.8c0.4-0.8,1-1.4,1.7-1.9c0.7-0.4,1.5-0.7,2.4-0.7
					c0.5,0,0.9,0.1,1.3,0.2c0.4,0.2,0.7,0.4,1,0.7l0-0.8v-4.4H448.8z M444.5,234.6c-0.8,0-1.4,0.3-1.9,0.9c-0.5,0.6-0.7,1.4-0.7,2.3
					c0,0.8,0.2,1.4,0.5,1.9c0.3,0.4,0.8,0.7,1.4,0.7c0.5,0,1-0.1,1.4-0.4c0.4-0.3,0.7-0.7,1-1.2c0.2-0.5,0.4-1.1,0.4-1.8
					c0-0.7-0.2-1.3-0.6-1.7C445.6,234.8,445.1,234.6,444.5,234.6z"/>
				<path class="st7" d="M455.8,242.3c-1,0-1.9-0.2-2.6-0.6c-0.7-0.4-1.3-0.9-1.7-1.6s-0.6-1.6-0.6-2.5s0.2-1.9,0.6-2.6
					c0.4-0.8,1-1.3,1.7-1.8c0.7-0.4,1.5-0.6,2.4-0.6c1.5,0,2.5,0.5,3.2,1.5c0.7,1,0.9,2.4,0.7,4.1h-6.3c0,0.7,0.3,1.2,0.8,1.6
					s1.2,0.6,2,0.6c0.4,0,0.8-0.1,1.2-0.3s0.8-0.4,1-0.8l1.3,1.3c-0.4,0.5-0.9,1-1.5,1.3C457.4,242.2,456.6,242.3,455.8,242.3z
					 M455.6,234.3c-0.6,0-1.2,0.2-1.6,0.6c-0.4,0.4-0.7,0.9-0.8,1.6h4.3c0-0.8-0.1-1.3-0.5-1.7C456.6,234.4,456.1,234.3,455.6,234.3
					z"/>
			</g>
			<g class="st4">
				<path class="st7" d="M369,255c1.4,0,2.5,0.4,3.3,1.3s1.2,2,1.2,3.4c0,1-0.2,1.8-0.6,2.6c-0.4,0.8-1,1.4-1.7,1.8
					c-0.7,0.4-1.6,0.7-2.6,0.7c-1.4,0-2.5-0.4-3.3-1.3c-0.8-0.8-1.2-2-1.2-3.4c0-1,0.2-1.8,0.6-2.6c0.4-0.8,1-1.4,1.7-1.8
					C367.2,255.2,368,255,369,255z M368.7,262.7c0.7,0,1.3-0.3,1.8-0.8c0.4-0.6,0.7-1.3,0.7-2.2c0-0.8-0.2-1.5-0.6-2
					c-0.4-0.5-0.9-0.7-1.6-0.7c-0.8,0-1.4,0.3-1.8,0.8c-0.4,0.6-0.7,1.3-0.7,2.2c0,0.8,0.2,1.5,0.6,2
					C367.5,262.5,368,262.7,368.7,262.7z"/>
				<path class="st7" d="M375.5,264.6v-13.8h2.3v4.4l-0.1,1.7c0.3-0.6,0.8-1.1,1.3-1.4c0.5-0.3,1.2-0.5,1.9-0.5
					c0.8,0,1.5,0.2,2.1,0.6c0.6,0.4,1,0.9,1.3,1.6c0.3,0.7,0.4,1.4,0.4,2.3c0,1-0.2,2-0.6,2.8c-0.4,0.8-1,1.4-1.7,1.9
					c-0.7,0.4-1.5,0.7-2.4,0.7c-0.6,0-1.1-0.1-1.6-0.4c-0.5-0.3-0.8-0.6-1-1l-0.2,1.2H375.5z M379.9,262.7c0.8,0,1.4-0.3,1.9-0.9
					c0.5-0.6,0.7-1.4,0.7-2.3c0-0.8-0.2-1.4-0.5-1.9c-0.3-0.4-0.8-0.7-1.4-0.7c-0.5,0-1,0.1-1.4,0.4c-0.4,0.3-0.7,0.7-1,1.2
					c-0.2,0.5-0.4,1.1-0.4,1.7c0,0.7,0.2,1.3,0.6,1.7S379.3,262.7,379.9,262.7z"/>
				<path class="st7" d="M390.7,264.7c-1.1,0-2-0.3-2.6-0.9c-0.6-0.6-0.9-1.4-0.9-2.5l0.1-4.3h-1.6v-1.9h1.6l0-1.9h2.3l0,1.9h3.1
					v1.9h-3.1l-0.1,4.1c0,0.5,0.1,0.9,0.4,1.2c0.3,0.3,0.7,0.4,1.2,0.4c0.3,0,0.6,0,0.8-0.1c0.2-0.1,0.5-0.2,0.8-0.4l0.7,1.8
					c-0.3,0.3-0.7,0.4-1.1,0.6C391.7,264.7,391.2,264.7,390.7,264.7z"/>
				<path class="st7" d="M398.6,264.7c-1,0-1.9-0.2-2.6-0.6c-0.7-0.4-1.3-0.9-1.7-1.6s-0.6-1.6-0.6-2.5s0.2-1.9,0.6-2.6
					c0.4-0.8,1-1.3,1.7-1.8c0.7-0.4,1.5-0.6,2.4-0.6c1.5,0,2.5,0.5,3.2,1.5c0.7,1,0.9,2.4,0.7,4.1H396c0,0.7,0.3,1.2,0.8,1.6
					s1.2,0.6,2,0.6c0.4,0,0.8-0.1,1.2-0.3s0.8-0.4,1-0.8l1.3,1.3c-0.4,0.5-0.9,1-1.5,1.3C400.2,264.6,399.5,264.7,398.6,264.7z
					 M398.4,256.7c-0.6,0-1.2,0.2-1.6,0.6c-0.4,0.4-0.7,0.9-0.8,1.6h4.3c0-0.8-0.1-1.3-0.5-1.7C399.4,256.9,399,256.7,398.4,256.7z"
					/>
				<path class="st7" d="M410.3,257.3c-0.3-0.1-0.6-0.1-1-0.1c-0.7,0-1.2,0.2-1.6,0.7c-0.4,0.5-0.7,1.3-0.9,2.4
					c-0.2,1.1-0.3,2.5-0.3,4.3h-2.3v-6.1l0-3.3h2.3l-0.1,2.6c0.3-1,0.8-1.7,1.4-2.2c0.6-0.4,1.2-0.6,1.9-0.6c0.2,0,0.4,0,0.6,0
					s0.3,0.1,0.5,0.1L410.3,257.3z"/>
			</g>
			<g class="st4">
				<path class="st7" d="M370.6,279.8c-0.3-0.1-0.6-0.1-1-0.1c-0.7,0-1.2,0.2-1.6,0.7c-0.4,0.5-0.7,1.3-0.9,2.4
					c-0.2,1.1-0.3,2.5-0.3,4.3h-2.3v-6.1l0-3.3h2.3l-0.1,2.6c0.3-1,0.8-1.7,1.4-2.2s1.2-0.6,1.9-0.6c0.2,0,0.4,0,0.6,0
					c0.2,0,0.3,0.1,0.5,0.1L370.6,279.8z"/>
				<path class="st7" d="M376.3,287.2c-1,0-1.9-0.2-2.6-0.6c-0.7-0.4-1.3-0.9-1.7-1.6s-0.6-1.6-0.6-2.5s0.2-1.9,0.6-2.6
					c0.4-0.8,1-1.3,1.7-1.8c0.7-0.4,1.5-0.6,2.4-0.6c1.5,0,2.5,0.5,3.2,1.5c0.7,1,0.9,2.4,0.7,4.1h-6.3c0,0.7,0.3,1.2,0.8,1.6
					s1.2,0.6,2,0.6c0.4,0,0.8-0.1,1.2-0.3s0.8-0.4,1-0.8l1.3,1.3c-0.4,0.5-0.9,1-1.5,1.3C377.9,287,377.2,287.2,376.3,287.2z
					 M376.1,279.2c-0.6,0-1.2,0.2-1.6,0.6c-0.4,0.4-0.7,0.9-0.8,1.6h4.3c0-0.8-0.1-1.3-0.5-1.7C377.1,279.3,376.7,279.2,376.1,279.2
					z"/>
				<path class="st7" d="M385.3,287.2c-1.3,0-2.3-0.2-3-0.7c-0.7-0.5-1.1-1.2-1.2-2.1l1.9-0.5c0.1,0.5,0.3,0.8,0.7,1.1
					c0.4,0.3,0.9,0.4,1.6,0.4c0.5,0,1-0.1,1.2-0.3c0.3-0.2,0.4-0.4,0.4-0.7c0-0.3-0.2-0.5-0.5-0.7s-0.8-0.3-1.4-0.4
					c-0.7-0.1-1.3-0.3-1.8-0.5s-0.9-0.5-1.2-0.9c-0.3-0.4-0.4-0.9-0.4-1.4c0-0.6,0.2-1.1,0.5-1.5c0.3-0.5,0.8-0.8,1.3-1.1
					c0.6-0.3,1.2-0.4,2-0.4c1,0,1.8,0.2,2.4,0.7c0.6,0.5,1,1.1,1.1,1.8l-1.9,0.5c-0.1-0.4-0.3-0.6-0.6-0.9c-0.3-0.2-0.7-0.3-1.2-0.3
					s-0.9,0.1-1.1,0.3c-0.3,0.2-0.4,0.4-0.4,0.7c0,0.3,0.1,0.5,0.4,0.7c0.3,0.2,0.8,0.3,1.5,0.5c0.7,0.1,1.2,0.3,1.7,0.5
					c0.5,0.2,0.9,0.5,1.2,0.8s0.4,0.8,0.4,1.4c0,0.6-0.2,1.1-0.5,1.5c-0.3,0.4-0.8,0.8-1.4,1S386,287.2,385.3,287.2z"/>
				<path class="st7" d="M393.8,287.2c-1,0-1.8-0.4-2.4-1.1c-0.5-0.7-0.8-1.7-0.8-3l0-5.6h2.3l0,5.4c0,0.6,0.1,1.2,0.3,1.5
					c0.2,0.4,0.6,0.6,1.1,0.6c0.4,0,0.8-0.1,1.1-0.4c0.3-0.2,0.6-0.6,0.9-1.2c0.3-0.6,0.4-1.3,0.6-2.3c0.1-1,0.2-2.2,0.2-3.6h2.2
					v9.4h-2.3l0.1-2.2c-0.4,0.8-0.9,1.3-1.4,1.7C395.2,287,394.5,287.2,393.8,287.2z"/>
				<path class="st7" d="M404.6,287.2c-0.9,0-1.6-0.2-2-0.7c-0.5-0.5-0.7-1.2-0.7-2.1v-11.2h2.3v11c0,0.7,0.3,1,0.9,1
					c0.3,0,0.6-0.1,0.8-0.2l0.6,1.7c-0.2,0.1-0.5,0.3-0.8,0.4C405.3,287.1,404.9,287.2,404.6,287.2z"/>
				<path class="st7" d="M411.1,287.2c-1.1,0-2-0.3-2.6-0.9c-0.6-0.6-0.9-1.4-0.9-2.5l0.1-4.3H406v-1.9h1.6l0-1.9h2.3l0,1.9h3.1v1.9
					h-3.1l-0.1,4.1c0,0.5,0.1,0.9,0.4,1.2s0.7,0.4,1.2,0.4c0.3,0,0.6,0,0.8-0.1c0.3-0.1,0.5-0.2,0.8-0.4l0.7,1.8
					c-0.3,0.3-0.7,0.4-1.1,0.6C412.1,287.1,411.6,287.2,411.1,287.2z"/>
				<path class="st7" d="M423.3,277.6v9.4H421l0.1-1.6c-0.3,0.6-0.8,1-1.3,1.3c-0.5,0.3-1.2,0.5-1.9,0.5c-0.8,0-1.5-0.2-2.1-0.6
					c-0.6-0.4-1-0.9-1.3-1.6c-0.3-0.7-0.4-1.4-0.4-2.3c0-1,0.2-2,0.6-2.8c0.4-0.8,1-1.4,1.7-1.9s1.5-0.7,2.4-0.7
					c0.6,0,1.1,0.1,1.6,0.4c0.5,0.3,0.8,0.6,1.1,1l0.2-1.2H423.3z M418.9,279.5c-0.8,0-1.4,0.3-1.9,0.9c-0.5,0.6-0.7,1.4-0.7,2.3
					c0,0.8,0.2,1.4,0.5,1.9c0.3,0.4,0.8,0.7,1.4,0.7c0.5,0,1-0.1,1.4-0.4c0.4-0.3,0.7-0.7,1-1.2c0.2-0.5,0.4-1.1,0.4-1.8
					c0-0.7-0.2-1.3-0.6-1.7S419.6,279.5,418.9,279.5z"/>
				<path class="st7" d="M434.6,273.2V287h-2.3l0.1-1.6c-0.3,0.6-0.8,1-1.3,1.3c-0.5,0.3-1.2,0.5-1.9,0.5c-0.8,0-1.5-0.2-2.1-0.6
					c-0.6-0.4-1-0.9-1.3-1.6c-0.3-0.7-0.4-1.4-0.4-2.3c0-1,0.2-2,0.6-2.8c0.4-0.8,1-1.4,1.7-1.9s1.5-0.7,2.4-0.7
					c0.5,0,0.9,0.1,1.3,0.2c0.4,0.2,0.7,0.4,1,0.7l0-0.8v-4.4H434.6z M430.2,279.5c-0.8,0-1.4,0.3-1.9,0.9c-0.5,0.6-0.7,1.4-0.7,2.3
					c0,0.8,0.2,1.4,0.5,1.9c0.3,0.4,0.8,0.7,1.4,0.7c0.5,0,1-0.1,1.4-0.4c0.4-0.3,0.7-0.7,1-1.2c0.2-0.5,0.4-1.1,0.4-1.8
					c0-0.7-0.2-1.3-0.6-1.7S430.9,279.5,430.2,279.5z"/>
				<path class="st7" d="M441.4,277.4c1.4,0,2.5,0.4,3.3,1.3c0.8,0.8,1.2,2,1.2,3.4c0,1-0.2,1.8-0.6,2.6c-0.4,0.8-1,1.4-1.7,1.8
					c-0.7,0.4-1.6,0.7-2.6,0.7c-1.4,0-2.5-0.4-3.3-1.3c-0.8-0.8-1.2-2-1.2-3.4c0-1,0.2-1.8,0.6-2.6c0.4-0.8,1-1.4,1.7-1.8
					C439.6,277.7,440.5,277.4,441.4,277.4z M441.2,285.2c0.7,0,1.3-0.3,1.8-0.8c0.4-0.6,0.7-1.3,0.7-2.2c0-0.8-0.2-1.5-0.6-2
					c-0.4-0.5-0.9-0.7-1.6-0.7c-0.8,0-1.4,0.3-1.8,0.8c-0.4,0.6-0.7,1.3-0.7,2.2c0,0.8,0.2,1.5,0.6,2
					C439.9,285,440.5,285.2,441.2,285.2z"/>
				<path class="st7" d="M451.3,287.2c-1.3,0-2.3-0.2-3-0.7c-0.7-0.5-1.1-1.2-1.2-2.1l1.9-0.5c0.1,0.5,0.3,0.8,0.7,1.1
					c0.4,0.3,0.9,0.4,1.6,0.4c0.5,0,1-0.1,1.2-0.3c0.3-0.2,0.4-0.4,0.4-0.7c0-0.3-0.2-0.5-0.5-0.7s-0.8-0.3-1.4-0.4
					c-0.7-0.1-1.3-0.3-1.8-0.5s-0.9-0.5-1.2-0.9c-0.3-0.4-0.4-0.9-0.4-1.4c0-0.6,0.2-1.1,0.5-1.5c0.3-0.5,0.8-0.8,1.3-1.1
					c0.6-0.3,1.2-0.4,2-0.4c1,0,1.8,0.2,2.4,0.7c0.6,0.5,1,1.1,1.1,1.8l-1.9,0.5c-0.1-0.4-0.3-0.6-0.6-0.9c-0.3-0.2-0.7-0.3-1.2-0.3
					s-0.9,0.1-1.1,0.3c-0.3,0.2-0.4,0.4-0.4,0.7c0,0.3,0.1,0.5,0.4,0.7c0.3,0.2,0.8,0.3,1.5,0.5c0.7,0.1,1.2,0.3,1.7,0.5
					c0.5,0.2,0.9,0.5,1.2,0.8s0.4,0.8,0.4,1.4c0,0.6-0.2,1.1-0.5,1.5c-0.3,0.4-0.8,0.8-1.4,1S452,287.2,451.3,287.2z"/>
			</g>
			<g class="st4">
				<path class="st7" d="M364.6,313.2V300h2.3l-0.1,1.7c0.3-0.6,0.8-1,1.3-1.4c0.5-0.3,1.2-0.5,1.9-0.5c0.8,0,1.5,0.2,2.1,0.6
					c0.6,0.4,1,0.9,1.3,1.6c0.3,0.7,0.4,1.4,0.4,2.3c0,1-0.2,2-0.6,2.8c-0.4,0.8-1,1.4-1.7,1.9c-0.7,0.4-1.5,0.7-2.4,0.7
					c-0.5,0-0.9-0.1-1.3-0.2c-0.4-0.2-0.7-0.4-1-0.7l0,0.7v3.7H364.6z M368.9,307.6c0.8,0,1.4-0.3,1.9-0.9c0.5-0.6,0.7-1.4,0.7-2.3
					c0-0.8-0.2-1.4-0.5-1.9c-0.3-0.4-0.8-0.7-1.4-0.7c-0.5,0-1,0.1-1.4,0.4c-0.4,0.3-0.7,0.7-1,1.2s-0.4,1.1-0.4,1.7
					c0,0.7,0.2,1.3,0.6,1.7S368.3,307.6,368.9,307.6z"/>
				<path class="st7" d="M380.3,299.9c1.4,0,2.5,0.4,3.3,1.3s1.2,2,1.2,3.4c0,1-0.2,1.8-0.6,2.6c-0.4,0.8-1,1.4-1.7,1.8
					c-0.7,0.4-1.6,0.7-2.6,0.7c-1.4,0-2.5-0.4-3.3-1.3c-0.8-0.8-1.2-2-1.2-3.4c0-1,0.2-1.8,0.6-2.6c0.4-0.8,1-1.4,1.7-1.8
					C378.4,300.1,379.3,299.9,380.3,299.9z M380,307.6c0.7,0,1.3-0.3,1.8-0.8c0.4-0.6,0.7-1.3,0.7-2.2c0-0.8-0.2-1.5-0.6-2
					c-0.4-0.5-0.9-0.7-1.6-0.7c-0.8,0-1.4,0.3-1.8,0.8c-0.4,0.6-0.7,1.3-0.7,2.2c0,0.8,0.2,1.5,0.6,2
					C378.7,307.4,379.3,307.6,380,307.6z"/>
				<path class="st7" d="M390.1,309.6c-1.3,0-2.3-0.2-3-0.7c-0.7-0.5-1.1-1.2-1.2-2.1l1.9-0.5c0.1,0.5,0.3,0.8,0.7,1.1
					s0.9,0.4,1.6,0.4c0.5,0,1-0.1,1.2-0.3c0.3-0.2,0.4-0.4,0.4-0.7c0-0.3-0.2-0.5-0.5-0.7s-0.8-0.3-1.4-0.4
					c-0.7-0.1-1.3-0.3-1.8-0.5c-0.5-0.2-0.9-0.5-1.2-0.9c-0.3-0.4-0.4-0.9-0.4-1.4c0-0.6,0.2-1.1,0.5-1.5c0.3-0.5,0.8-0.8,1.3-1.1
					c0.6-0.3,1.2-0.4,2-0.4c1,0,1.8,0.2,2.4,0.7c0.6,0.5,1,1.1,1.1,1.8l-1.9,0.5c-0.1-0.4-0.3-0.6-0.6-0.9c-0.3-0.2-0.7-0.3-1.2-0.3
					s-0.9,0.1-1.1,0.3s-0.4,0.4-0.4,0.7c0,0.3,0.1,0.5,0.4,0.7c0.3,0.2,0.8,0.3,1.5,0.5c0.7,0.1,1.2,0.3,1.7,0.5
					c0.5,0.2,0.9,0.5,1.2,0.8c0.3,0.4,0.4,0.8,0.4,1.4c0,0.6-0.2,1.1-0.5,1.5c-0.3,0.4-0.8,0.8-1.4,1
					C391.5,309.5,390.8,309.6,390.1,309.6z"/>
				<path class="st7" d="M396.8,298.5c-0.4,0-0.8-0.1-1.1-0.4c-0.3-0.3-0.4-0.6-0.4-1s0.1-0.7,0.4-1c0.3-0.3,0.6-0.4,1.1-0.4
					c0.4,0,0.8,0.1,1.1,0.4c0.3,0.3,0.4,0.6,0.4,1s-0.1,0.7-0.4,1S397.2,298.5,396.8,298.5z M397.9,300v9.4h-2.3V300H397.9z"/>
				<path class="st7" d="M404.3,309.6c-1.1,0-2-0.3-2.6-0.9c-0.6-0.6-0.9-1.4-0.9-2.5l0.1-4.3h-1.6V300h1.6l0-1.9h2.3l0,1.9h3.1v1.9
					h-3.1l-0.1,4.1c0,0.5,0.1,0.9,0.4,1.2s0.7,0.4,1.2,0.4c0.3,0,0.6,0,0.8-0.1c0.3-0.1,0.5-0.2,0.8-0.4l0.7,1.8
					c-0.3,0.3-0.7,0.4-1.1,0.6C405.4,309.6,404.9,309.6,404.3,309.6z"/>
				<path class="st7" d="M409,298.5c-0.4,0-0.8-0.1-1.1-0.4c-0.3-0.3-0.4-0.6-0.4-1s0.1-0.7,0.4-1c0.3-0.3,0.6-0.4,1.1-0.4
					c0.4,0,0.8,0.1,1.1,0.4c0.3,0.3,0.4,0.6,0.4,1s-0.1,0.7-0.4,1S409.5,298.5,409,298.5z M410.2,300v9.4h-2.3V300H410.2z"/>
				<path class="st7" d="M419.1,300h2.3l-3.5,9.4h-3.3l-3-9.4h2.5l2.3,7.6L419.1,300z"/>
				<path class="st7" d="M426.6,299.9c1.4,0,2.5,0.4,3.3,1.3s1.2,2,1.2,3.4c0,1-0.2,1.8-0.6,2.6c-0.4,0.8-1,1.4-1.7,1.8
					c-0.7,0.4-1.6,0.7-2.6,0.7c-1.4,0-2.5-0.4-3.3-1.3c-0.8-0.8-1.2-2-1.2-3.4c0-1,0.2-1.8,0.6-2.6c0.4-0.8,1-1.4,1.7-1.8
					C424.7,300.1,425.6,299.9,426.6,299.9z M426.3,307.6c0.7,0,1.3-0.3,1.8-0.8c0.4-0.6,0.7-1.3,0.7-2.2c0-0.8-0.2-1.5-0.6-2
					c-0.4-0.5-0.9-0.7-1.6-0.7c-0.8,0-1.4,0.3-1.8,0.8c-0.4,0.6-0.7,1.3-0.7,2.2c0,0.8,0.2,1.5,0.6,2
					C425,307.4,425.6,307.6,426.3,307.6z"/>
				<path class="st7" d="M436.4,309.6c-1.3,0-2.3-0.2-3-0.7c-0.7-0.5-1.1-1.2-1.2-2.1l1.9-0.5c0.1,0.5,0.3,0.8,0.7,1.1
					s0.9,0.4,1.6,0.4c0.5,0,1-0.1,1.2-0.3c0.3-0.2,0.4-0.4,0.4-0.7c0-0.3-0.2-0.5-0.5-0.7s-0.8-0.3-1.4-0.4
					c-0.7-0.1-1.3-0.3-1.8-0.5c-0.5-0.2-0.9-0.5-1.2-0.9c-0.3-0.4-0.4-0.9-0.4-1.4c0-0.6,0.2-1.1,0.5-1.5c0.3-0.5,0.8-0.8,1.3-1.1
					c0.6-0.3,1.2-0.4,2-0.4c1,0,1.8,0.2,2.4,0.7c0.6,0.5,1,1.1,1.1,1.8l-1.9,0.5c-0.1-0.4-0.3-0.6-0.6-0.9c-0.3-0.2-0.7-0.3-1.2-0.3
					s-0.9,0.1-1.1,0.3s-0.4,0.4-0.4,0.7c0,0.3,0.1,0.5,0.4,0.7c0.3,0.2,0.8,0.3,1.5,0.5c0.7,0.1,1.2,0.3,1.7,0.5
					c0.5,0.2,0.9,0.5,1.2,0.8c0.3,0.4,0.4,0.8,0.4,1.4c0,0.6-0.2,1.1-0.5,1.5c-0.3,0.4-0.8,0.8-1.4,1
					C437.8,309.5,437.1,309.6,436.4,309.6z"/>
			</g>
		</g>
	</g>
</g>
<g id="Camada_7" class="st0">
</g>
</svg>
