<?xml version="1.0" encoding="utf-8"?>
<!-- Generator: Adobe Illustrator 24.0.1, SVG Export Plug-In . SVG Version: 6.00 Build 0)  -->
<svg version="1.1" id="Camada_1" xmlns="http://www.w3.org/2000/svg" xmlns:xlink="http://www.w3.org/1999/xlink" x="0px" y="0px"
	 viewBox="0 0 476.4 92.6" style="enable-background:new 0 0 476.4 92.6;" xml:space="preserve">
<style type="text/css">
	.st0{fill:#F8CDCF;}
	.st1{fill:#BC000D;}
	.st2{fill:#FFFFFF;}
	.st3{fill:none;}
	.st4{fill:#BC1616;}
</style>
<g>
	<g>
		<path class="st0" d="M62.2,0.2h388.6c0.8-0.1,6.2-0.3,7-0.1c0.1,0,0.3,0.1,0.4,0.1h0.4v0.1c10.2,2.4,17.7,11.5,17.7,22.4
			c0,11.2-8,20.6-18.6,22.6c-0.8,0.2-2.5,0.3-4.3,0.2c-1.5-0.1-3.1-0.4-4.2-0.6c-5.8-1.2-17.1-3.4-28-5.7c-0.8-0.2-1.8-0.3-2.7-0.4
			c-1.1-0.1-2.2,0-2.7,0.1c-6.7,1.3-11.7,7.2-11.7,14.2s5,12.9,11.7,14.2c0.5,0.1,1.6,0.2,2.7,0.1c1,0,1.9-0.2,2.7-0.4
			c3.7-0.7,10.8-2.2,16.9-3.4c0,0,1-0.2,2-0.2c1.1-0.1,2.2,0,2.7,0.1c6.7,1.3,11.7,7.2,11.7,14.2c0,7-5,12.8-11.7,14.1
			c-0.5,0.1-4.5,0.6-5.2,0.5l0,0H105.9c-1,0.2-30.9,0.1-30.9,0.1s-13-0.3-13-13.3v-9"/>
	</g>
	<path class="st0" d="M81.7,92.6h-69C5.7,92.6,0,86.9,0,79.8v-67c0-7,5.7-12.7,12.7-12.7h69c7,0,12.7,5.7,12.7,12.7v67
		C94.4,86.9,88.7,92.6,81.7,92.6z"/>
</g>
<g>
	<path class="st1" d="M56.2,78.3c-10.9,0-21.7,0-32.6,0c-1,0-1.9-0.3-2.5-1.2c-0.7-1-0.7-2-0.1-3c2.4-4.2,4.8-8.4,7.2-12.6
		c4.5-7.9,9.1-15.8,13.6-23.7c3.9-6.8,7.8-13.5,11.6-20.3c1.2-2.1,3.9-2.2,5.2,0c8.3,14.4,16.7,28.8,25,43.1
		c2.6,4.4,5.2,8.9,7.7,13.3c1.2,2.1,0,4.3-2.5,4.3C78,78.3,67.1,78.3,56.2,78.3C56.2,78.3,56.2,78.3,56.2,78.3z M55,49.8
		c0-0.1-0.1-0.2-0.1-0.4c-0.8-3.1-1.6-6.3-2.3-9.4c-0.1-0.6-0.5-0.8-1-0.6c-3.3,0.8-6.5,1.7-9.8,2.5c-0.5,0.1-0.7,0.5-0.6,0.9
		c0.1,0.3,0.3,0.5,0.6,0.7c0.5,0.4,0.6,0.7,0.3,1.2c-2.8,4.6-5.6,9.1-8.3,13.7c-3.2,5.3-6.4,10.6-9.7,15.9c-0.5,0.8-0.2,1.4,0.8,1.4
		c4.2,0,8.5,0,12.7,0c0.5,0,0.9-0.2,1.1-0.6c4.6-8,9.3-16,13.9-24c0.3-0.5,0.6-0.8,1.3-0.5C54.5,50.8,55,50.4,55,49.8z M81.1,75.7
		c2.1,0,4.2,0,6.2,0c0.4,0,0.8-0.1,1-0.4c0.4-0.4,0.1-0.8-0.2-1.2c-5.9-9.8-11.9-19.6-17.8-29.4c-0.5-0.8-0.4-0.9,0.3-1.5
		c0.2-0.2,0.5-0.6,0.4-0.9c-0.1-0.3-0.4-0.6-0.7-0.7c-0.7-0.2-1.4-0.4-2.1-0.6c-2.5-0.6-4.9-1.3-7.4-1.9c-0.7-0.2-1,0-1.1,0.5
		c-0.8,3.2-1.6,6.5-2.4,9.7c-0.2,0.8,0.4,1.3,1.1,1.1c0.6-0.2,0.9,0,1.2,0.5c1.4,2.4,2.8,4.8,4.2,7.2c3.2,5.6,6.5,11.1,9.7,16.7
		c0.3,0.5,0.7,0.7,1.3,0.7C76.9,75.7,79,75.7,81.1,75.7z M56.1,27.7c-0.9-0.9-2.1-1.5-3.5-1.2c-2.7,0.6-4.1,3.6-2.9,6.2
		c1.3,2.9,3.6,4.8,6.2,6.3c0.1,0.1,0.4,0.1,0.6,0c2.1-1.2,4-2.7,5.3-4.7c0.8-1.2,1.3-2.4,1.3-3.9c-0.1-2.6-2.5-4.5-4.9-3.8
		C57.5,26.8,56.8,27.3,56.1,27.7z"/>
	<path class="st2" d="M55,49.8c0,0.7-0.6,1.1-1.1,0.8c-0.6-0.2-1,0-1.3,0.5c-4.6,8-9.3,16-13.9,24c-0.3,0.5-0.6,0.6-1.1,0.6
		c-4.2,0-8.5,0-12.7,0c-1,0-1.3-0.6-0.8-1.4c3.2-5.3,6.4-10.6,9.7-15.9c2.8-4.6,5.5-9.1,8.3-13.7c0.3-0.5,0.2-0.9-0.3-1.2
		c-0.2-0.2-0.5-0.4-0.6-0.7c-0.1-0.4,0.1-0.8,0.6-0.9c3.3-0.8,6.5-1.7,9.8-2.5c0.5-0.1,0.9,0,1,0.6c0.7,3.2,1.5,6.3,2.3,9.4
		C55,49.5,55,49.7,55,49.8z M40.9,64.2c-0.9-0.5-1.7-1.1-2.7-1.6c0.8,0,1.6,0,2.4,0c-0.3-0.8-0.6-1.4-1-2.2c0.9,0.6,1.7,1.1,2.6,1.6
		c0.3-0.5,0.5-0.9,0.8-1.4c-1.6-0.9-3.1-1.8-4.6-2.6c-0.9,1-0.9,1.1-0.3,2.1c0.2,0.4,0.4,0.8,0.7,1.3c-0.5,0-1,0-1.4,0
		c-1.1,0-1.3,0.1-1.7,1.3c1.4,0.9,2.9,1.8,4.3,2.7C40.3,65.1,40.6,64.7,40.9,64.2z M46.1,50.9c0,0-0.1-0.2-0.1-0.4
		c-0.4-1-1.8-1.5-2.5-0.7c-0.7,0.8-1.3,1.8-1.9,2.7c1.6,1,3.1,1.9,4.6,2.8c0.3-0.5,0.5-0.9,0.7-1.4c-0.6-0.4-1.1-0.7-1.7-1.1
		c0.9-0.8,1.6-0.1,2.4,0.1c0.3-0.4,0.5-0.9,0.9-1.5C47.7,51.3,46.9,51.1,46.1,50.9z M45.2,56.8c-0.1-0.3-0.2-0.7-0.4-1
		c-0.7-1-1.7-1.7-3-1.7c-0.4,0-1,0.2-1.2,0.5c-1.3,1.5-1.6,2.7,0.3,4c0.3,0.2,0.5,0.3,0.8,0.5C43.4,59.7,45,58.6,45.2,56.8z
		 M38,68.9c-0.7-0.7-0.7-0.8,0.1-1.8c1,0.2,1.3,0,1.6-1.2c-1.8-0.5-3.5-0.9-5.3-1.4c-0.3,0.6-0.7,1.2-1,1.8c1.3,1.3,2.5,2.7,3.8,4
		C37.5,69.8,37.8,69.4,38,68.9z"/>
	<path class="st2" d="M81.1,75.7c-2.1,0-4.2,0-6.2,0c-0.6,0-1-0.2-1.3-0.7c-3.2-5.6-6.5-11.2-9.7-16.7c-1.4-2.4-2.8-4.8-4.2-7.2
		c-0.3-0.5-0.6-0.7-1.2-0.5c-0.8,0.3-1.3-0.3-1.1-1.1c0.8-3.2,1.6-6.5,2.4-9.7c0.1-0.6,0.5-0.7,1.1-0.5c2.5,0.6,4.9,1.3,7.4,1.9
		c0.7,0.2,1.4,0.3,2.1,0.6c0.3,0.1,0.7,0.4,0.7,0.7c0.1,0.3-0.2,0.7-0.4,0.9c-0.7,0.6-0.7,0.7-0.3,1.5c5.9,9.8,11.9,19.6,17.8,29.4
		c0.2,0.4,0.5,0.8,0.2,1.2c-0.2,0.2-0.7,0.4-1,0.4C85.2,75.8,83.2,75.7,81.1,75.7z M70.3,55.7c-0.3,0.7-0.7,1.3-1,2
		c0.8,0,1.5,0,2.4,0c-0.9,0.6-1.7,1-2.5,1.5c0.3,0.4,0.5,0.8,0.8,1.2c1.5-0.9,2.9-1.8,4.2-2.6c-0.3-0.9-0.8-1.5-1.8-1.3
		c-0.4,0.1-0.8,0-1.3,0c0.3-0.5,0.5-0.9,0.7-1.3c0.5-0.9,0.5-1.2-0.3-2c-1.4,0.8-2.8,1.6-4.3,2.5c0.3,0.5,0.5,0.8,0.8,1.2
		C68.8,56.6,69.5,56.2,70.3,55.7z M75.5,67.8c0.3-0.1,0.5-0.2,0.8-0.4c0.4,0.5,0.7,1,1,1.5c0.3-0.2,0.5-0.3,0.8-0.5
		c-0.3-0.6-0.6-1.1-1-1.7c0.3-0.1,0.6-0.3,0.9-0.4c0.2,0.4,0.4,0.7,0.6,1c0.5,0.9,0.5,0.9,1.4,0.2c-0.6-1-1.2-2-1.9-3.1
		c-1.5,0.9-3,1.7-4.4,2.5c0.7,1.1,1.3,2.2,1.9,3.3c0.4-0.2,0.6-0.4,1-0.6C76.3,69.1,75.9,68.5,75.5,67.8z M77,70
		c-0.3,0.4-1.1,0.3-0.8,1c0.3,0.7,0.6,1.3,1.1,1.9c0.5,0.6,1.1,0.7,1.8,0.4c0.7-0.3,1-0.9,0.9-1.7c0-0.4-0.2-0.7-0.2-1.1
		c0-0.2,0.2-0.3,0.3-0.5c0.1,0.1,0.4,0.1,0.4,0.3c0.2,0.5,0.4,1,0.7,1.5c0.3-0.2,0.6-0.4,1-0.6c-0.4-0.7-0.7-1.4-1.1-1.9
		c-0.5-0.7-1.2-0.9-1.8-0.6c-0.7,0.3-1.1,1-1,1.8c0,0.3,0.2,0.6,0.2,0.9c0,0.2-0.1,0.4-0.2,0.6c-0.2-0.1-0.5-0.2-0.6-0.4
		C77.4,71.1,77.3,70.6,77,70z M75.9,60.6c-0.4,0.2-0.7,0.4-1,0.6c0.2,0.4,0.4,0.8,0.6,1.2c-1.1,0.7-2.2,1.4-3.3,2
		c0.3,0.5,0.5,0.9,0.7,1.4c1.2-0.7,2.3-1.3,3.4-2c0.2,0.4,0.5,0.7,0.7,1c0.3-0.1,0.6-0.2,1-0.4C77.3,63.1,76.7,61.9,75.9,60.6z
		 M65.7,51.1c1.1-0.7,2.2-1.3,3.3-1.9c-0.3-0.5-0.5-0.9-0.8-1.4c-1.5,0.9-2.9,1.8-4.4,2.7c0.4,0.7,0.8,1.3,1.2,1.8
		c0.5,0.7,0.7,0.8,1.5,0.2C66.3,52.1,66,51.7,65.7,51.1z M74.9,58.8c-1.5,0.9-3,1.8-4.4,2.7c0.3,0.5,0.5,0.9,0.8,1.4
		c1.5-0.9,2.9-1.8,4.4-2.7C75.4,59.7,75.2,59.3,74.9,58.8z M65.8,53.7c0.3,0.4,0.6,0.8,0.9,1.2c1.5-0.9,2.9-1.7,4.3-2.5
		c-0.3-0.5-0.5-0.9-0.8-1.4C68.7,51.9,67.3,52.8,65.8,53.7z"/>
	<path class="st2" d="M56.1,27.7c0.8-0.4,1.4-0.9,2.1-1.1c2.4-0.7,4.8,1.2,4.9,3.8c0.1,1.5-0.5,2.7-1.3,3.9
		c-1.3,2.1-3.2,3.5-5.3,4.7c-0.1,0.1-0.4,0.1-0.6,0c-2.7-1.5-4.9-3.4-6.2-6.3c-1.2-2.6,0.2-5.6,2.9-6.2C54,26.2,55.2,26.7,56.1,27.7
		z"/>
	<path class="st1" d="M40.9,64.2c-0.3,0.5-0.6,0.8-0.9,1.3c-1.5-0.9-2.9-1.8-4.3-2.7c0.4-1.2,0.5-1.3,1.7-1.3c0.4,0,0.9,0,1.4,0
		c-0.3-0.5-0.5-0.9-0.7-1.3c-0.5-1-0.5-1.1,0.3-2.1c1.5,0.9,3,1.7,4.6,2.6c-0.3,0.5-0.6,0.9-0.8,1.4c-0.9-0.5-1.7-1.1-2.6-1.6
		c0.3,0.8,0.6,1.4,1,2.2c-0.8,0-1.6,0-2.4,0C39.2,63.2,40,63.7,40.9,64.2z"/>
	<path class="st1" d="M46.1,50.9c0.8,0.2,1.6,0.4,2.4,0.6c-0.3,0.6-0.6,1-0.9,1.5c-0.8-0.2-1.5-0.8-2.4-0.1c0.6,0.4,1.1,0.7,1.7,1.1
		c-0.2,0.4-0.5,0.9-0.7,1.4c-1.5-0.9-3-1.8-4.6-2.8c0.7-0.9,1.2-1.9,1.9-2.7c0.7-0.8,2.1-0.3,2.5,0.7C46.1,50.7,46.1,50.9,46.1,50.9
		z M43.3,51.6c0.4,0.3,0.8,0.5,1.2,0.8c0.4-0.7,0.4-1.1,0-1.4C43.8,50.6,43.7,51.2,43.3,51.6z"/>
	<path class="st1" d="M45.2,56.8c-0.1,1.8-1.8,2.9-3.5,2.2c-0.3-0.1-0.6-0.3-0.8-0.5c-1.9-1.3-1.6-2.5-0.3-4
		c0.3-0.3,0.8-0.5,1.2-0.5c1.3,0,2.3,0.7,3,1.7C45,56,45.1,56.4,45.2,56.8z M41.4,55.4c-0.2,0.1-0.4,0.2-0.5,0.4
		c-0.1,0.2-0.1,0.6,0,0.7c0.7,0.5,1.4,0.9,2.1,1.3c0.1,0.1,0.5-0.1,0.6-0.2c0.1-0.2,0.2-0.5,0.1-0.7C43.2,56.1,42.4,55.7,41.4,55.4z
		"/>
	<path class="st1" d="M38,68.9c-0.3,0.5-0.5,0.9-0.9,1.4c-1.3-1.4-2.5-2.7-3.8-4c0.3-0.6,0.7-1.2,1-1.8c1.8,0.5,3.6,0.9,5.3,1.4
		c-0.3,1.2-0.6,1.4-1.6,1.2C37.4,68.1,37.4,68.2,38,68.9z M36.5,67.7c0.2-0.5,0.4-0.7,0.6-1c-0.7-0.3-1.4-0.5-2.1-0.8
		c0,0,0,0.1-0.1,0.1C35.4,66.6,35.9,67.1,36.5,67.7z"/>
	<path class="st1" d="M70.3,55.7c-0.8,0.5-1.6,0.9-2.4,1.4c-0.2-0.4-0.5-0.8-0.8-1.2c1.5-0.9,2.9-1.7,4.3-2.5c0.7,0.8,0.8,1.1,0.3,2
		c-0.2,0.4-0.4,0.7-0.7,1.3c0.5,0,0.9,0.1,1.3,0c1-0.2,1.5,0.4,1.8,1.3c-1.4,0.9-2.8,1.7-4.2,2.6c-0.3-0.4-0.5-0.8-0.8-1.2
		c0.8-0.5,1.6-1,2.5-1.5c-0.9,0-1.6,0-2.4,0C69.7,57,70,56.4,70.3,55.7z"/>
	<path class="st1" d="M75.5,67.8c0.4,0.7,0.7,1.3,1.1,1.9c-0.3,0.2-0.6,0.4-1,0.6c-0.6-1.1-1.2-2.1-1.9-3.3c1.5-0.8,2.9-1.7,4.4-2.5
		c0.6,1,1.2,2.1,1.9,3.1c-0.9,0.6-0.9,0.6-1.4-0.2c-0.2-0.3-0.4-0.6-0.6-1c-0.3,0.1-0.5,0.2-0.9,0.4c0.3,0.6,0.6,1.1,1,1.7
		c-0.3,0.2-0.5,0.3-0.8,0.5c-0.4-0.5-0.7-1-1-1.5C76.1,67.6,75.9,67.7,75.5,67.8z"/>
	<path class="st1" d="M77,70c0.3,0.6,0.4,1.1,0.7,1.6c0.1,0.2,0.4,0.2,0.6,0.4c0.1-0.2,0.2-0.4,0.2-0.6c0-0.3-0.1-0.6-0.2-0.9
		c-0.1-0.8,0.3-1.5,1-1.8c0.6-0.3,1.3-0.1,1.8,0.6c0.4,0.6,0.7,1.3,1.1,1.9c-0.4,0.2-0.7,0.4-1,0.6c-0.2-0.5-0.4-1-0.7-1.5
		c-0.1-0.1-0.3-0.2-0.4-0.3c-0.1,0.2-0.3,0.3-0.3,0.5c0,0.4,0.1,0.7,0.2,1.1c0.1,0.7-0.3,1.3-0.9,1.7c-0.7,0.3-1.3,0.2-1.8-0.4
		c-0.4-0.6-0.8-1.3-1.1-1.9C76,70.3,76.8,70.4,77,70z"/>
	<path class="st1" d="M75.9,60.6c0.7,1.3,1.4,2.5,2.1,3.8c-0.3,0.1-0.6,0.3-1,0.4c-0.2-0.3-0.4-0.6-0.7-1c-1.1,0.7-2.2,1.3-3.4,2
		c-0.3-0.5-0.5-0.9-0.7-1.4c1.1-0.7,2.2-1.4,3.3-2c-0.2-0.4-0.4-0.7-0.6-1.2C75.3,61,75.6,60.8,75.9,60.6z"/>
	<path class="st1" d="M65.7,51.1c0.3,0.5,0.5,1,0.8,1.4c-0.8,0.6-1,0.5-1.5-0.2c-0.4-0.6-0.8-1.2-1.2-1.8c1.5-0.9,2.9-1.7,4.4-2.7
		c0.3,0.5,0.5,0.9,0.8,1.4C67.9,49.9,66.9,50.5,65.7,51.1z"/>
	<path class="st1" d="M74.9,58.8c0.3,0.5,0.5,0.9,0.7,1.4c-1.5,0.9-2.9,1.7-4.4,2.7c-0.3-0.4-0.5-0.9-0.8-1.4
		C71.9,60.6,73.4,59.7,74.9,58.8z"/>
	<path class="st1" d="M65.8,53.7c1.5-0.9,2.9-1.8,4.4-2.7c0.3,0.5,0.5,0.9,0.8,1.4c-1.4,0.8-2.8,1.7-4.3,2.5
		C66.4,54.5,66.1,54.1,65.8,53.7z"/>
	<path class="st2" d="M43.3,51.6c0.4-0.4,0.5-1,1.2-0.6c0.5,0.3,0.5,0.6,0,1.4C44.2,52.2,43.8,51.9,43.3,51.6z"/>
	<path class="st2" d="M41.4,55.4c1,0.3,1.8,0.7,2.3,1.5c0.1,0.2,0.1,0.5-0.1,0.7c-0.1,0.1-0.5,0.3-0.6,0.2c-0.7-0.4-1.4-0.9-2.1-1.3
		c-0.1-0.1-0.1-0.5,0-0.7C41,55.6,41.2,55.5,41.4,55.4z"/>
	<path class="st2" d="M36.5,67.7c-0.6-0.6-1.1-1.1-1.6-1.7c0,0,0-0.1,0.1-0.1c0.7,0.2,1.3,0.5,2.1,0.8C36.9,67,36.7,67.3,36.5,67.7z
		"/>
</g>
<g>
	<rect x="116.4" y="34.7" class="st3" width="299.2" height="24.7"/>
	<path class="st4" d="M130.9,41.2L130.9,41.2c0,0.2,0,0.3,0,0.4c0,0.1,0,0.3,0,0.4c-0.1,1-0.4,1.8-0.9,2.6c-0.5,0.8-1.1,1.5-1.9,2
		c-0.8,0.6-1.6,1-2.5,1.2c-0.9,0.3-1.9,0.3-2.8,0.1c0,0.3,0,0.6,0,0.8c0,0.3,0,0.7,0,1.2s0,1.2,0,2.1c0,0.9,0,2,0.1,3.5v0
		c0,0,0,0,0,0c0,0,0,0,0,0c-0.3,0.1-0.6,0.1-1.1,0.2c-0.4,0-0.9,0-1.4,0.1c-0.5,0-0.9,0-1.4,0c-0.5,0-0.9,0-1.2-0.1
		c-0.1-1.5-0.1-3-0.1-4.8s0-3.5,0-5.3c0-1.8,0-3.6,0-5.4c0-1.8,0-3.6-0.1-5.2c0.8-0.2,1.7-0.4,2.7-0.5c1-0.1,1.9-0.1,2.9,0
		c1,0.1,1.9,0.3,2.8,0.5c0.9,0.3,1.7,0.7,2.4,1.2c0.7,0.5,1.3,1.2,1.8,2C130.6,39.1,130.8,40.1,130.9,41.2z M125.6,40
		c-0.5-0.4-1.1-0.7-1.7-0.8c-0.7-0.1-1.3-0.1-1.9,0.1c0,0-0.1,0-0.1,0c0,0.4,0,0.7,0,1.1c0,0.4,0,0.8,0,1.2c0,0.4,0,0.8,0.1,1.2
		c0,0.4,0.1,0.7,0.2,1h0.1c0.3,0,0.7,0,1,0c0.4,0,0.7,0,1.1-0.1c0.3,0,0.7-0.1,1-0.2c0.3-0.1,0.6-0.3,0.9-0.5
		c0.2-0.2,0.3-0.5,0.3-0.8c0.1-0.3,0.1-0.6,0-0.8c-0.1-0.3-0.1-0.5-0.3-0.8C126.1,40.3,125.9,40.1,125.6,40z"/>
	<path class="st4" d="M140.7,45.4l2.3,10.5v0c-0.6,0.1-1.3,0.2-2,0.1c-0.7,0-1.4-0.1-2-0.3h0c-0.1-0.3-0.2-0.7-0.3-1.1
		c-0.1-0.4-0.2-0.9-0.3-1.3s-0.2-0.9-0.3-1.3s-0.3-0.8-0.4-1.1c-0.3,0-0.5-0.1-0.6-0.1c-0.1,0-0.3,0-0.4,0s-0.2,0-0.4,0
		c-0.1,0-0.3,0-0.5,0c-0.1,0.3-0.3,0.7-0.3,1.1c-0.1,0.4-0.2,0.9-0.3,1.4c-0.1,0.5-0.2,0.9-0.3,1.4c-0.1,0.4-0.2,0.8-0.4,1.2
		c0,0,0,0,0,0s0,0,0,0c-0.2,0-0.6,0-1.2,0c-0.6,0-1.6,0-3,0c0,0,0,0-0.1,0c0-0.1,0.1-0.5,0.2-1.2c0.1-0.6,0.2-1.5,0.4-2.5
		c0.2-1,0.4-2.2,0.6-3.5c0.3-1.3,0.5-2.7,0.9-4.2c0.3-1.5,0.7-3.1,1.1-4.7c0.4-1.6,0.8-3.2,1.3-4.8c0.1,0,0.3,0,0.5,0
		c0.2,0,0.4,0,0.6,0c0.3,0,0.6,0,1,0c0.4,0,0.9,0,1.6-0.1c0.1,0.3,0.2,0.7,0.3,1.2c0.1,0.5,0.3,1.1,0.4,1.8c0.1,0.7,0.3,1.4,0.5,2.1
		c0.2,0.8,0.3,1.5,0.5,2.2c0.2,0.7,0.3,1.3,0.4,1.9C140.5,44.6,140.6,45.1,140.7,45.4z M137.7,47.4c-0.2-1.7-0.4-3.1-0.5-4
		s-0.3-1.6-0.4-1.9c-0.1-0.3-0.2-0.4-0.3-0.2c-0.1,0.2-0.2,0.6-0.3,1.2c-0.1,0.6-0.2,1.3-0.3,2.2c-0.1,0.9-0.2,1.8-0.4,2.8
		c0.3,0,0.7,0,1.1,0C136.9,47.4,137.3,47.4,137.7,47.4z"/>
	<path class="st4" d="M148.8,34.9h0.7V35c0,1.7,0,3.5-0.1,5.2c-0.1,1.7-0.1,3.5-0.1,5.2c0,1.7,0,3.5,0,5.2c0,1.7,0.1,3.5,0.2,5.2
		c-0.2,0.2-0.5,0.3-1,0.3c-0.5,0-1.1,0-1.6,0c-0.6,0-1.2,0-1.7-0.1c-0.5,0-0.9,0-1.1,0c0.1-1.8,0.2-3.6,0.2-5.4
		c0-1.8-0.1-3.6-0.1-5.4c-0.1-1.8-0.1-3.6-0.1-5.3c0-1.7,0.1-3.5,0.3-5.1v-0.1c0.1,0,0.3,0,0.6,0c0.3,0,0.5,0,0.6,0
		c0.4,0,0.8,0,1.2,0.1S147.9,34.9,148.8,34.9z"/>
	<path class="st4" d="M164.6,41.8L164.6,41.8c-0.7,0.1-1.5,0.2-2.3,0.2c-0.8,0-1.5-0.1-2.3-0.3c0.1-0.5,0-1-0.3-1.4
		c-0.3-0.4-0.8-0.6-1.2-0.7c-0.5-0.1-0.9,0-1.4,0.1c-0.4,0.2-0.7,0.6-0.8,1.1c0,0.1-0.1,0.3,0,0.4c0,0.1,0,0.3,0,0.4
		c0.2,0.5,0.4,0.8,0.8,1c0.4,0.2,0.8,0.3,1.2,0.3c1.1,0.1,2,0.5,3,1c0.9,0.6,1.7,1.3,2.2,2.1c0.4,0.5,0.6,1,0.8,1.5s0.3,1.1,0.3,1.6
		c0,0.6,0,1.1-0.1,1.7c-0.1,0.6-0.3,1.1-0.5,1.6c-0.2,0.6-0.6,1.2-1,1.6c-0.4,0.4-0.9,0.8-1.4,1.1c-0.5,0.3-1.1,0.5-1.6,0.6
		s-1.2,0.2-1.8,0.2c-0.9,0-1.8-0.2-2.6-0.5s-1.6-0.7-2.3-1.2c-0.7-0.5-1.2-1.2-1.6-1.9c-0.4-0.8-0.6-1.6-0.5-2.6v-0.1v-0.1
		c0.7-0.1,1.5-0.1,2.3-0.1s1.6,0.1,2.3,0c0,0.6,0.3,1.1,0.8,1.4c0.5,0.3,1,0.5,1.5,0.5s1-0.2,1.4-0.5c0.4-0.3,0.5-0.9,0.4-1.6
		c-0.1-0.5-0.2-0.9-0.5-1.2c-0.3-0.3-0.7-0.5-1.1-0.7c-0.4-0.2-0.9-0.3-1.3-0.4c-0.5-0.1-0.9-0.2-1.4-0.3c-0.4-0.1-0.8-0.2-1.1-0.4
		c-0.3-0.2-0.7-0.4-0.9-0.6c-0.9-0.9-1.5-1.8-1.8-2.9c-0.3-1.1-0.3-2.1,0-3.1c0.2-1,0.7-1.9,1.4-2.7c0.7-0.8,1.5-1.4,2.4-1.8
		c0.5-0.2,1-0.3,1.6-0.4c0.6-0.1,1.2-0.1,1.8-0.1c0.6,0,1.2,0.1,1.7,0.3c0.6,0.1,1.1,0.3,1.6,0.5c1,0.5,1.7,1.2,2.2,2.2
		S164.9,40.3,164.6,41.8z"/>
	<path class="st4" d="M184.3,38.2c0.1,0.3,0.2,0.6,0.3,0.9c0.1,0.3,0.1,0.6,0.2,0.9c0,0.5,0.1,1,0.1,1.5c0,0.5,0,1,0,1.5
		c-0.1,1.1-0.1,2.1-0.1,3.1c0,1,0,2-0.1,3.1l-0.1,1c0,0.7-0.2,1.4-0.3,2.1c-0.2,0.7-0.5,1.4-0.8,1.9c-0.3,0.5-0.8,0.9-1.3,1.2
		c-0.6,0.3-1.1,0.5-1.8,0.7c-0.6,0.2-1.1,0.3-1.7,0.3c-0.6,0-1.1,0-1.7,0c-0.4,0-0.8-0.1-1.2-0.2c-0.4-0.1-0.8-0.2-1.1-0.3
		c-0.4-0.2-0.7-0.4-0.9-0.6c-0.3-0.3-0.5-0.6-0.7-1c-0.3-0.5-0.5-1-0.6-1.6c-0.1-0.6-0.1-1.1-0.2-1.7c-0.1-1.6-0.1-3.1-0.2-4.7
		c-0.1-1.6-0.1-3.1,0-4.7c0-0.9,0.1-1.8,0.3-2.7s0.6-1.7,1.2-2.4c0.2-0.2,0.4-0.4,0.7-0.5c0.7-0.3,1.4-0.6,2.1-0.7
		c0.8-0.1,1.5-0.2,2.3-0.2c0.8,0,1.5,0.2,2.3,0.4c0.7,0.2,1.4,0.6,2,1C183.7,36.9,184.1,37.5,184.3,38.2z M181.1,45.5l-0.1-2
		c0,0,0-0.2,0-0.6c0-0.4-0.1-0.8-0.1-1.1c0-0.6-0.2-1.1-0.5-1.5c-0.3-0.5-0.6-0.8-1.1-1c-0.4-0.2-0.8-0.2-1.2-0.1
		c-0.4,0.1-0.8,0.3-1.1,0.5c-0.7,0.5-1.2,1.2-1.4,2.1c-0.2,0.8-0.3,1.6-0.3,2.4c0,0.8,0,1.7,0,2.5c0.1,0.7,0.2,1.4,0.2,2.1
		c0,0.7,0.2,1.4,0.4,2.1c0.2,0.4,0.5,0.7,0.9,0.9c0.4,0.2,0.8,0.3,1.2,0.4c0.4,0,0.9,0,1.3-0.2c0.4-0.2,0.8-0.4,1.1-0.7
		c0.2-0.2,0.3-0.4,0.4-0.6c0.1-0.1,0.1-0.3,0.1-0.5c0-0.2,0-0.4,0-0.6c0-0.3,0-0.6,0-1c0-0.4,0-0.8,0-1.1c0-0.3,0-0.5,0-0.5V45.5z"
		/>
	<path class="st4" d="M199.8,35.9c0.1,2.6,0.2,5.1,0.1,7.8s-0.2,5.2-0.5,7.8c-0.2,1.3-0.7,2.4-1.5,3.4s-2,1.5-3.4,1.6
		c-0.8,0.1-1.7,0-2.6-0.1c-0.9-0.2-1.7-0.4-2.4-0.8c-0.7-0.4-1.3-0.9-1.8-1.6c-0.5-0.6-0.8-1.4-0.8-2.4c0-2.6,0-5.3,0.1-8
		c0.1-2.7,0.1-5.3,0-8l0,0h0c0.3,0,0.6,0,1,0c0.4,0,0.7,0,1.1,0s0.8,0,1.1,0c0.4,0,0.7,0.1,1,0.2v0c-0.2,4.8-0.1,9.8,0.3,14.7
		c0.1,0.5,0.4,0.8,0.8,1.1c0.4,0.2,0.8,0.3,1.2,0.3c0.4,0,0.8-0.2,1.1-0.4s0.6-0.6,0.7-1.1c0.1-2.4,0.2-4.8,0.2-7.3
		c0-2.5,0-4.9,0.1-7.2c0.3,0,0.6-0.1,1-0.1c0.4,0,0.8-0.1,1.2-0.1c0.4,0,0.8,0,1.2,0C199.2,35.7,199.6,35.8,199.8,35.9z"/>
	<path class="st4" d="M222.4,55.9L222.4,55.9c-0.7,0-1.5,0-2.3,0.1s-1.7,0-2.6,0h0c-0.2-0.5-0.5-1-0.8-1.7c-0.3-0.6-0.6-1.3-1-2
		c-0.4-0.7-0.8-1.4-1.2-2.1s-0.8-1.3-1.3-1.8l-0.1-0.1c-0.1,0.5-0.1,1-0.1,1.7c0,0.7,0,1.4,0,2.1c0,0.7,0.1,1.4,0.1,2
		c0,0.6,0.1,1.2,0.1,1.5c-0.3,0.1-0.8,0.2-1.3,0.3c-0.6,0-1.1,0.1-1.6,0.1c-0.5,0-1,0-1.5,0c-0.4,0-0.7,0-0.8,0c0,0,0.1-0.3,0.1-0.8
		c0-0.5,0-1.3,0-2.2c0-0.9,0-1.9,0-3.1s0-2.4,0-3.6c0-1.3,0-2.5-0.1-3.7c0-1.2-0.1-2.4-0.1-3.4c0-1,0-1.9-0.1-2.6
		c0-0.7-0.1-1.2-0.1-1.5c1.1-0.2,2.3-0.3,3.7-0.4c1.3-0.1,2.7-0.1,4.2,0c1.2,0.1,2.2,0.4,3.2,1c0.9,0.6,1.7,1.4,2.2,2.3
		c0.5,0.9,0.8,1.9,0.8,3c0,1.1-0.3,2.2-0.9,3.2c-0.4,0.7-0.9,1.3-1.5,1.8c-0.6,0.5-1.4,0.8-2.4,0.8H217h0v0c0.4,0.7,0.9,1.5,1.4,2.2
		c0.5,0.7,1,1.5,1.5,2.2c0.5,0.7,0.9,1.5,1.4,2.3C221.7,54.3,222.1,55.1,222.4,55.9z M212.2,39.2c0,0.3,0,0.6,0,0.9c0,0.3,0,0.7,0,1
		c0,0.3,0,0.7,0,1c0,0.3,0,0.6,0.1,0.8h0c0.5,0,1,0.1,1.5,0.1c0.5,0,1.1,0,1.5-0.1c0.4-0.1,0.7-0.3,0.9-0.6c0.2-0.3,0.3-0.6,0.4-1
		c0-0.4,0-0.7-0.1-1.1c-0.1-0.4-0.3-0.7-0.6-0.9c-0.4-0.4-1-0.6-1.7-0.6C213.6,38.8,212.9,38.9,212.2,39.2z"/>
	<path class="st4" d="M236.3,51.9L236.3,51.9c0,0.7,0,1.4,0,2.1c0,0.7-0.1,1.3-0.3,1.9c-2,0-4.1,0-6.2,0.1c-2.1,0.1-4.1,0-6.1-0.1
		c0-1.7,0-3.5-0.1-5.2c0-1.7-0.1-3.4-0.1-5.1c0-1.7,0-3.4,0-5.1c0-1.7,0.1-3.4,0.2-5.1c0.8,0,1.6-0.1,2.5-0.1c0.9,0,1.8-0.1,2.7-0.1
		c0.9,0,1.8,0,2.7-0.1c0.9,0,1.6,0,2.3,0c0.7,0,1.2,0,1.6,0c0.4,0,0.6,0,0.6,0.1c0.1,0.7,0.1,1.4,0.1,2.1c-0.1,0.7-0.1,1.4-0.1,2.1
		v0c-0.6,0.1-1.3,0.2-1.9,0.3c-0.7,0-1.3,0-2,0c-0.7,0-1.3,0-2,0s-1.3,0-2,0.1h-0.1l0,0c0,0.6,0,1.2-0.1,1.8c-0.1,0.6,0,1.2,0.1,1.7
		l0,0c0.6,0,1.2,0.1,1.8,0.1c0.6,0,1.2,0,1.9,0v0c0.1,0.7,0.1,1.4,0.1,2c0,0.7-0.1,1.4,0,2.1c-0.3,0.1-0.6,0.1-1,0.1
		c-0.4,0-0.7,0-1.1,0c-0.4,0-0.7,0-0.9,0c-0.3,0-0.5,0.1-0.6,0.2c-0.1,0.6-0.1,1.2-0.1,2s0.1,1.3,0.1,1.8l0,0c1.3,0,2.6,0,3.9,0.1
		C233.6,51.9,234.9,51.9,236.3,51.9z"/>
	<path class="st4" d="M250.7,41.8L250.7,41.8c-0.7,0.1-1.5,0.2-2.3,0.2c-0.8,0-1.5-0.1-2.3-0.3c0.1-0.5,0-1-0.3-1.4
		s-0.8-0.6-1.2-0.7c-0.5-0.1-0.9,0-1.4,0.1c-0.4,0.2-0.7,0.6-0.8,1.1c0,0.1-0.1,0.3,0,0.4c0,0.1,0,0.3,0,0.4c0.2,0.5,0.4,0.8,0.8,1
		c0.4,0.2,0.8,0.3,1.2,0.3c1.1,0.1,2,0.5,3,1c0.9,0.6,1.7,1.3,2.2,2.1c0.4,0.5,0.6,1,0.8,1.5c0.2,0.5,0.3,1.1,0.3,1.6
		c0,0.6,0,1.1-0.1,1.7c-0.1,0.6-0.3,1.1-0.5,1.6c-0.2,0.6-0.6,1.2-1,1.6c-0.4,0.4-0.9,0.8-1.4,1.1c-0.5,0.3-1.1,0.5-1.6,0.6
		s-1.2,0.2-1.8,0.2c-0.9,0-1.8-0.2-2.6-0.5s-1.6-0.7-2.3-1.2c-0.7-0.5-1.2-1.2-1.6-1.9c-0.4-0.8-0.6-1.6-0.5-2.6v-0.1v-0.1
		c0.7-0.1,1.5-0.1,2.3-0.1s1.6,0.1,2.3,0c0,0.6,0.3,1.1,0.8,1.4c0.5,0.3,1,0.5,1.5,0.5c0.5,0,1-0.2,1.4-0.5c0.4-0.3,0.5-0.9,0.4-1.6
		c-0.1-0.5-0.2-0.9-0.5-1.2c-0.3-0.3-0.7-0.5-1.1-0.7c-0.4-0.2-0.9-0.3-1.3-0.4c-0.5-0.1-0.9-0.2-1.3-0.3c-0.4-0.1-0.8-0.2-1.1-0.4
		c-0.3-0.2-0.7-0.4-0.9-0.6c-0.9-0.9-1.5-1.8-1.8-2.9c-0.3-1.1-0.3-2.1,0-3.1c0.2-1,0.7-1.9,1.4-2.7c0.7-0.8,1.5-1.4,2.4-1.8
		c0.5-0.2,1-0.3,1.6-0.4c0.6-0.1,1.2-0.1,1.8-0.1c0.6,0,1.2,0.1,1.7,0.3c0.6,0.1,1.1,0.3,1.6,0.5c1,0.5,1.7,1.2,2.2,2.2
		C250.9,39,251,40.3,250.7,41.8z"/>
	<path class="st4" d="M265.9,41.2L265.9,41.2c0,0.2,0,0.3,0,0.4c0,0.1,0,0.3,0,0.4c-0.1,1-0.4,1.8-0.9,2.6s-1.1,1.5-1.9,2
		c-0.8,0.6-1.6,1-2.5,1.2c-0.9,0.3-1.9,0.3-2.8,0.1c0,0.3,0,0.6,0,0.8c0,0.3,0,0.7,0,1.2s0,1.2,0,2.1c0,0.9,0,2,0.1,3.5v0
		c0,0,0,0,0,0c0,0,0,0,0,0c-0.3,0.1-0.6,0.1-1.1,0.2c-0.4,0-0.9,0-1.3,0.1c-0.5,0-0.9,0-1.4,0c-0.5,0-0.9,0-1.2-0.1
		c-0.1-1.5-0.1-3-0.1-4.8s0-3.5,0-5.3c0-1.8,0-3.6,0-5.4c0-1.8,0-3.6-0.1-5.2c0.8-0.2,1.7-0.4,2.7-0.5c1-0.1,1.9-0.1,2.9,0
		c1,0.1,1.9,0.3,2.8,0.5c0.9,0.3,1.7,0.7,2.4,1.2s1.3,1.2,1.8,2C265.6,39.1,265.9,40.1,265.9,41.2z M260.7,40
		c-0.5-0.4-1.1-0.7-1.7-0.8c-0.7-0.1-1.3-0.1-1.9,0.1c0,0-0.1,0-0.1,0c0,0.4,0,0.7,0,1.1c0,0.4,0,0.8,0,1.2c0,0.4,0,0.8,0.1,1.2
		c0,0.4,0.1,0.7,0.2,1h0.1c0.3,0,0.7,0,1,0c0.4,0,0.7,0,1.1-0.1c0.3,0,0.7-0.1,1-0.2c0.3-0.1,0.6-0.3,0.9-0.5
		c0.2-0.2,0.3-0.5,0.3-0.8c0.1-0.3,0.1-0.6,0-0.8c0-0.3-0.1-0.5-0.3-0.8C261.1,40.3,260.9,40.1,260.7,40z"/>
	<path class="st4" d="M279.4,38.2c0.1,0.3,0.2,0.6,0.3,0.9c0.1,0.3,0.1,0.6,0.2,0.9c0,0.5,0.1,1,0.1,1.5c0,0.5,0,1,0,1.5
		c-0.1,1.1-0.1,2.1-0.1,3.1c0,1,0,2-0.1,3.1l-0.1,1c0,0.7-0.2,1.4-0.3,2.1c-0.2,0.7-0.5,1.4-0.8,1.9c-0.3,0.5-0.8,0.9-1.3,1.2
		c-0.5,0.3-1.1,0.5-1.8,0.7c-0.6,0.2-1.1,0.3-1.7,0.3c-0.6,0-1.1,0-1.7,0c-0.4,0-0.8-0.1-1.2-0.2c-0.4-0.1-0.8-0.2-1.1-0.3
		c-0.3-0.2-0.7-0.4-0.9-0.6c-0.3-0.3-0.5-0.6-0.7-1c-0.3-0.5-0.5-1-0.6-1.6c-0.1-0.6-0.1-1.1-0.2-1.7c-0.1-1.6-0.1-3.1-0.2-4.7
		c-0.1-1.6-0.1-3.1,0-4.7c0-0.9,0.1-1.8,0.3-2.7s0.6-1.7,1.2-2.4c0.2-0.2,0.4-0.4,0.7-0.5c0.7-0.3,1.4-0.6,2.1-0.7s1.5-0.2,2.3-0.2
		c0.8,0,1.5,0.2,2.3,0.4c0.7,0.2,1.4,0.6,2,1C278.8,36.9,279.2,37.5,279.4,38.2z M276.2,45.5l-0.1-2c0,0,0-0.2,0-0.6
		c0-0.4-0.1-0.8-0.1-1.1c0-0.6-0.2-1.1-0.5-1.5c-0.3-0.5-0.6-0.8-1.1-1c-0.4-0.2-0.8-0.2-1.2-0.1c-0.4,0.1-0.8,0.3-1.1,0.5
		c-0.7,0.5-1.2,1.2-1.4,2.1c-0.2,0.8-0.3,1.6-0.3,2.4c0,0.8,0,1.7,0,2.5c0.1,0.7,0.2,1.4,0.2,2.1s0.2,1.4,0.4,2.1
		c0.2,0.4,0.5,0.7,0.9,0.9c0.4,0.2,0.8,0.3,1.2,0.4c0.4,0,0.9,0,1.3-0.2c0.4-0.2,0.8-0.4,1.1-0.7c0.2-0.2,0.3-0.4,0.4-0.6
		c0.1-0.1,0.1-0.3,0.1-0.5c0-0.2,0-0.4,0-0.6c0-0.3,0-0.6,0-1c0-0.4,0-0.8,0-1.1c0-0.3,0-0.5,0-0.5V45.5z"/>
	<path class="st4" d="M293.5,56.1c-0.4,0-0.9,0-1.4-0.1c-0.5,0-1-0.1-1.4-0.1c-0.7-1.5-1.3-2.9-2-4.3c-0.7-1.4-1.2-2.7-1.7-4
		l-0.3-0.9c-0.1-0.2-0.2-0.4-0.2-0.6c-0.1-0.2-0.1-0.3-0.2-0.3c0,0,0,0.2-0.1,0.7c0,0.5-0.1,1.1-0.1,1.8c0,0.7,0,1.6,0,2.5
		c0,0.9,0,1.8,0,2.6c0,0.5,0,0.9,0,1.3c0,0.4,0,0.8,0,1.2c-0.2,0.1-0.4,0.1-0.7,0.1c-0.2,0-0.4,0-0.7,0c-0.5,0-1,0-1.5-0.1
		c-0.5-0.1-1-0.1-1.4-0.1v-2.1c0-1.9,0-3.7,0-5.4s0-3.5,0-5.4c0-1.4,0-2.7,0.1-4.1c0-1.3,0.1-2.7,0.2-3.9c0.2,0,0.4-0.1,0.6-0.1
		c0.2,0,0.5,0,0.7,0c0.1,0,0.3,0,0.6,0c0.3,0,0.6,0,0.8,0.1c0.3,0,0.5,0.1,0.7,0.1s0.3,0.1,0.3,0.1c0.1,0.4,0.3,0.7,0.4,0.9
		c0.1,0.2,0.2,0.5,0.3,0.7c0.1,0.2,0.2,0.5,0.4,0.7c0.1,0.3,0.3,0.6,0.5,1c0,0.1,0.1,0.3,0.3,0.6c0.1,0.3,0.3,0.6,0.5,1
		c0.2,0.4,0.4,0.8,0.6,1.2c0.2,0.4,0.4,0.8,0.6,1.1c0.2,0.3,0.3,0.6,0.4,0.8s0.2,0.3,0.2,0.3c0.1,0,0.1-0.2,0.2-0.6
		c0-0.4,0.1-0.7,0.1-1.1c0-0.8,0-1.5,0-2.2c0-0.7,0-1.4,0-2.1c0-0.4,0-0.8,0-1.3c0-0.4,0-0.9,0-1.4c0.7-0.1,1.4-0.2,2.2-0.2
		c0.7,0,1.4,0.1,2,0.2v9.7c0,0.8,0,1.7,0,2.5c0,0.9,0,1.7,0,2.6c0,0.6,0,1.1,0,1.7c0,0.5,0,1.1,0,1.6c0,0.4,0,0.8,0,1.2
		c0,0.4,0,0.8,0,1.2V56c0,0-0.1,0-0.3,0.1S293.9,56.1,293.5,56.1z"/>
	<path class="st4" d="M309.6,41.8L309.6,41.8c-0.7,0.1-1.5,0.2-2.3,0.2c-0.8,0-1.5-0.1-2.3-0.3c0.1-0.5,0-1-0.3-1.4
		s-0.8-0.6-1.2-0.7c-0.5-0.1-0.9,0-1.4,0.1c-0.4,0.2-0.7,0.6-0.8,1.1c0,0.1-0.1,0.3,0,0.4c0,0.1,0,0.3,0,0.4c0.2,0.5,0.4,0.8,0.8,1
		c0.4,0.2,0.8,0.3,1.2,0.3c1.1,0.1,2,0.5,3,1c0.9,0.6,1.7,1.3,2.2,2.1c0.4,0.5,0.6,1,0.8,1.5c0.2,0.5,0.3,1.1,0.3,1.6
		c0,0.6,0,1.1-0.1,1.7c-0.1,0.6-0.3,1.1-0.5,1.6c-0.2,0.6-0.6,1.2-1,1.6c-0.4,0.4-0.9,0.8-1.4,1.1c-0.5,0.3-1.1,0.5-1.6,0.6
		s-1.2,0.2-1.8,0.2c-0.9,0-1.8-0.2-2.6-0.5s-1.6-0.7-2.3-1.2c-0.7-0.5-1.2-1.2-1.6-1.9c-0.4-0.8-0.6-1.6-0.5-2.6v-0.1v-0.1
		c0.7-0.1,1.5-0.1,2.3-0.1s1.6,0.1,2.3,0c0,0.6,0.3,1.1,0.8,1.4c0.5,0.3,1,0.5,1.5,0.5c0.5,0,1-0.2,1.4-0.5c0.4-0.3,0.5-0.9,0.4-1.6
		c-0.1-0.5-0.2-0.9-0.5-1.2c-0.3-0.3-0.7-0.5-1.1-0.7c-0.4-0.2-0.9-0.3-1.3-0.4c-0.5-0.1-0.9-0.2-1.3-0.3c-0.4-0.1-0.8-0.2-1.1-0.4
		c-0.3-0.2-0.7-0.4-0.9-0.6c-0.9-0.9-1.5-1.8-1.8-2.9s-0.3-2.1,0-3.1c0.2-1,0.7-1.9,1.4-2.7c0.7-0.8,1.5-1.4,2.4-1.8
		c0.5-0.2,1-0.3,1.6-0.4c0.6-0.1,1.2-0.1,1.8-0.1c0.6,0,1.2,0.1,1.7,0.3c0.6,0.1,1.1,0.3,1.6,0.5c1,0.5,1.7,1.2,2.2,2.2
		C309.8,39,309.9,40.3,309.6,41.8z"/>
	<path class="st4" d="M320.9,45.4l2.3,10.5v0c-0.6,0.1-1.3,0.2-2,0.1c-0.7,0-1.4-0.1-2-0.3h0c-0.1-0.3-0.2-0.7-0.3-1.1
		c-0.1-0.4-0.2-0.9-0.3-1.3c-0.1-0.5-0.2-0.9-0.3-1.3s-0.3-0.8-0.4-1.1c-0.3,0-0.5-0.1-0.6-0.1c-0.1,0-0.3,0-0.4,0
		c-0.1,0-0.2,0-0.4,0s-0.3,0-0.5,0c-0.1,0.3-0.3,0.7-0.3,1.1c-0.1,0.4-0.2,0.9-0.3,1.4s-0.2,0.9-0.3,1.4c-0.1,0.4-0.2,0.8-0.4,1.2
		c0,0,0,0,0,0c0,0,0,0,0,0c-0.2,0-0.6,0-1.2,0c-0.6,0-1.6,0-3,0c0,0,0,0-0.1,0c0-0.1,0.1-0.5,0.2-1.2c0.1-0.6,0.3-1.5,0.4-2.5
		c0.2-1,0.4-2.2,0.6-3.5c0.3-1.3,0.5-2.7,0.9-4.2s0.7-3.1,1.1-4.7s0.8-3.2,1.3-4.8c0.1,0,0.3,0,0.5,0c0.2,0,0.4,0,0.6,0
		c0.3,0,0.6,0,1,0c0.4,0,0.9,0,1.6-0.1c0.1,0.3,0.2,0.7,0.3,1.2c0.1,0.5,0.3,1.1,0.4,1.8c0.2,0.7,0.3,1.4,0.5,2.1
		c0.2,0.8,0.3,1.5,0.5,2.2c0.2,0.7,0.3,1.3,0.4,1.9C320.7,44.6,320.8,45.1,320.9,45.4z M319,28.5l2.1,2.1l0,0
		c-0.1,0.1-0.4,0.3-0.7,0.6s-0.6,0.5-0.9,0.8c-0.3,0.3-0.6,0.6-0.9,0.8c-0.3,0.3-0.5,0.5-0.5,0.6c-0.3,0-0.7,0.1-1.1,0.1
		s-0.8,0-1.2,0c-0.4,0-0.7,0-1-0.1c-0.3,0-0.5-0.1-0.7-0.1c0.3-0.3,0.7-0.7,1.2-1.2c0.4-0.5,0.9-0.9,1.3-1.4s0.9-0.9,1.3-1.3
		C318.2,29.1,318.6,28.7,319,28.5z M317.8,47.4c-0.2-1.7-0.4-3.1-0.5-4c-0.1-1-0.3-1.6-0.4-1.9c-0.1-0.3-0.2-0.4-0.3-0.2
		c-0.1,0.2-0.2,0.6-0.3,1.2c-0.1,0.6-0.2,1.3-0.3,2.2c-0.1,0.9-0.2,1.8-0.4,2.8c0.3,0,0.7,0,1.1,0C317.1,47.4,317.4,47.4,317.8,47.4
		z"/>
	<path class="st4" d="M335.6,35.5c-0.3,1.8-0.7,3.5-1.1,5.2c-0.4,1.7-0.8,3.4-1.2,5.1c-0.4,1.7-0.9,3.4-1.3,5.1
		c-0.4,1.7-0.9,3.4-1.4,5.1c-0.2,0-0.4,0-0.8,0.1s-0.7,0.1-1.1,0.1c-0.4,0-0.9,0-1.3,0c-0.5,0-0.8-0.1-1.2-0.2
		c-0.9-3.2-1.6-6.6-2.2-10c-0.6-3.4-1-6.8-1.3-10.3v0c0.1-0.1,0.4-0.2,0.8-0.3c0.4-0.1,0.8-0.1,1.3-0.1c0.5,0,0.9,0,1.3,0
		c0.4,0,0.7,0.1,0.9,0.1c0.1,0.4,0.1,1,0.2,1.9c0,0.9,0.1,2,0.1,3.2c0.1,1.3,0.2,2.6,0.4,4.2c0.2,1.5,0.5,3.1,0.9,4.7
		c0.4-1.6,0.7-3.1,0.9-4.5c0.2-1.4,0.5-2.6,0.6-3.7c0.2-1.1,0.3-2.2,0.5-3.1c0.2-1,0.3-1.9,0.6-2.7c0,0,0-0.1,0.1-0.1
		c0.3,0.1,0.7,0.1,1,0.1c0.4,0,0.7,0,1.1,0s0.7,0,1.1,0C334.9,35.4,335.3,35.4,335.6,35.5z"/>
	<path class="st4" d="M349.4,51.9L349.4,51.9c0,0.7,0,1.4,0,2.1c0,0.7-0.1,1.3-0.3,1.9c-2,0-4.1,0-6.2,0.1c-2.1,0.1-4.1,0-6.1-0.1
		c0-1.7,0-3.5-0.1-5.2c0-1.7-0.1-3.4-0.1-5.1c0-1.7,0-3.4,0-5.1c0-1.7,0.1-3.4,0.2-5.1c0.8,0,1.6-0.1,2.5-0.1c0.9,0,1.8-0.1,2.7-0.1
		c0.9,0,1.8,0,2.7-0.1c0.9,0,1.6,0,2.3,0c0.7,0,1.2,0,1.6,0c0.4,0,0.6,0,0.6,0.1c0.1,0.7,0.1,1.4,0.1,2.1c-0.1,0.7-0.1,1.4-0.1,2.1
		v0c-0.6,0.1-1.3,0.2-1.9,0.3c-0.7,0-1.3,0-2,0c-0.7,0-1.3,0-2,0s-1.3,0-2,0.1h-0.1l0,0c0,0.6,0,1.2-0.1,1.8c-0.1,0.6,0,1.2,0.1,1.7
		l0,0c0.6,0,1.2,0.1,1.8,0.1c0.6,0,1.2,0,1.9,0v0c0.1,0.7,0.1,1.4,0.1,2c0,0.7-0.1,1.4,0,2.1c-0.3,0.1-0.6,0.1-1,0.1
		c-0.4,0-0.7,0-1.1,0s-0.7,0-0.9,0c-0.3,0-0.5,0.1-0.6,0.2c-0.1,0.6-0.1,1.2-0.1,2c0,0.7,0.1,1.3,0.1,1.8l0,0c1.3,0,2.6,0,3.9,0.1
		C346.7,51.9,348,51.9,349.4,51.9z"/>
	<path class="st4" d="M355.9,34.9h0.7V35c0,1.7,0,3.5-0.1,5.2c-0.1,1.7-0.1,3.5-0.1,5.2c0,1.7,0,3.5,0,5.2c0,1.7,0.1,3.5,0.2,5.2
		c-0.2,0.2-0.5,0.3-1,0.3c-0.5,0-1.1,0-1.7,0c-0.6,0-1.2,0-1.7-0.1c-0.5,0-0.9,0-1.1,0c0.1-1.8,0.2-3.6,0.2-5.4s-0.1-3.6-0.1-5.4
		c-0.1-1.8-0.1-3.6-0.1-5.3c0-1.7,0.1-3.5,0.3-5.1v-0.1c0.1,0,0.3,0,0.6,0c0.3,0,0.5,0,0.6,0c0.4,0,0.8,0,1.2,0.1
		S355,34.9,355.9,34.9z"/>
	<path class="st4" d="M371.6,41.8L371.6,41.8c-0.7,0.1-1.5,0.2-2.3,0.2c-0.8,0-1.5-0.1-2.3-0.3c0.1-0.5,0-1-0.3-1.4
		s-0.8-0.6-1.2-0.7c-0.5-0.1-0.9,0-1.4,0.1c-0.4,0.2-0.7,0.6-0.8,1.1c0,0.1-0.1,0.3,0,0.4c0,0.1,0,0.3,0,0.4c0.2,0.5,0.4,0.8,0.8,1
		c0.4,0.2,0.8,0.3,1.2,0.3c1.1,0.1,2,0.5,3,1c0.9,0.6,1.7,1.3,2.2,2.1c0.4,0.5,0.6,1,0.8,1.5c0.2,0.5,0.3,1.1,0.3,1.6
		c0,0.6,0,1.1-0.1,1.7c-0.1,0.6-0.3,1.1-0.5,1.6c-0.2,0.6-0.6,1.2-1,1.6c-0.4,0.4-0.9,0.8-1.4,1.1c-0.5,0.3-1.1,0.5-1.6,0.6
		s-1.2,0.2-1.8,0.2c-0.9,0-1.8-0.2-2.6-0.5s-1.6-0.7-2.3-1.2c-0.7-0.5-1.2-1.2-1.6-1.9c-0.4-0.8-0.6-1.6-0.5-2.6v-0.1v-0.1
		c0.7-0.1,1.5-0.1,2.3-0.1s1.6,0.1,2.3,0c0,0.6,0.3,1.1,0.8,1.4c0.5,0.3,1,0.5,1.5,0.5c0.5,0,1-0.2,1.4-0.5c0.4-0.3,0.5-0.9,0.4-1.6
		c-0.1-0.5-0.2-0.9-0.5-1.2c-0.3-0.3-0.7-0.5-1.1-0.7c-0.4-0.2-0.9-0.3-1.3-0.4c-0.5-0.1-0.9-0.2-1.3-0.3c-0.4-0.1-0.8-0.2-1.1-0.4
		c-0.3-0.2-0.7-0.4-0.9-0.6c-0.9-0.9-1.5-1.8-1.8-2.9s-0.3-2.1,0-3.1c0.2-1,0.7-1.9,1.4-2.7c0.7-0.8,1.5-1.4,2.4-1.8
		c0.5-0.2,1-0.3,1.6-0.4c0.6-0.1,1.2-0.1,1.8-0.1c0.6,0,1.2,0.1,1.7,0.3c0.6,0.1,1.1,0.3,1.6,0.5c1,0.5,1.7,1.2,2.2,2.2
		C371.8,39,371.9,40.3,371.6,41.8z"/>
</g>
<g>
</g>
<g>
</g>
<g>
</g>
<g>
</g>
<g>
</g>
<g>
</g>
<g>
</g>
<g>
</g>
<g>
</g>
<g>
</g>
<g>
</g>
<g>
</g>
<g>
</g>
<g>
</g>
<g>
</g>
</svg>
