<?xml version="1.0" encoding="utf-8"?>
<!-- Generator: Adobe Illustrator 24.0.1, SVG Export Plug-In . SVG Version: 6.00 Build 0)  -->
<svg version="1.1" id="Camada_1" xmlns="http://www.w3.org/2000/svg" xmlns:xlink="http://www.w3.org/1999/xlink" x="0px" y="0px"
	 viewBox="0 0 284.7 419.9" style="enable-background:new 0 0 284.7 419.9;" xml:space="preserve">
<style type="text/css">
	.st0{fill:#EFEFEF;fill-opacity:0;}
	.st1{fill:#FFFFFF;}
	.st2{fill:#FF278F;}
	.st3{display:none;}
	.st4{display:inline;}
	.st5{fill:none;}
	.st6{fill:none;stroke:#B9B9DB;stroke-linecap:round;stroke-linejoin:round;}
	.st7{fill:none;stroke:#B9B9DB;stroke-linecap:round;stroke-linejoin:round;stroke-dasharray:0.5056,5.0559;}
	.st8{fill:#A3A3C6;}
	.st9{fill:none;stroke:#B9B9DB;stroke-linecap:round;stroke-linejoin:round;stroke-dasharray:0.5014,5.0142;}
	.st10{fill:#FF36CE;}
	.st11{fill:#6660E2;}
	.st12{fill:#FF2B8C;}
	.st13{fill:#6960E3;}
	.st14{fill:#FFFFFF;stroke:#6960E3;stroke-width:0.4883;stroke-miterlimit:10;}
	.st15{fill:none;stroke:#6960E3;stroke-width:2.2432;stroke-miterlimit:10;}
	.st16{fill:none;stroke:#FFFFFF;stroke-width:2;stroke-linecap:round;stroke-linejoin:round;stroke-miterlimit:10;}
	.st17{fill:#6960E5;}
	.st18{opacity:0.5;fill:#FF2B8C;enable-background:new    ;}
	.st19{fill:none;stroke:#6960E5;stroke-width:1.5;stroke-miterlimit:10;}
	.st20{fill:none;stroke:#6960E5;stroke-miterlimit:10;}
	.st21{fill:none;stroke:#6960E5;stroke-width:1.5;stroke-linecap:round;stroke-miterlimit:10;}
	.st22{opacity:0.5;fill:#FF36CE;enable-background:new    ;}
	.st23{fill:none;stroke:#6960E5;stroke-width:1.6291;stroke-linecap:round;stroke-miterlimit:10;}
	.st24{fill:#6960E5;stroke:#6960E5;stroke-width:1.7621;stroke-miterlimit:10;}
	.st25{fill:#FFFFFF;stroke:#6960E5;stroke-width:1.3628;stroke-miterlimit:10;}
	.st26{opacity:0.26;}
	.st27{fill:#FFA9EA;}
	.st28{fill:none;stroke:#FFFFFF;stroke-width:1.5;stroke-linecap:round;stroke-linejoin:round;stroke-miterlimit:10;}
	.st29{opacity:0.2;fill:#FD2B8A;enable-background:new    ;}
	.st30{opacity:0.5;}
	.st31{fill:#FD2B8A;}
</style>
<rect id="Fundo" x="-8.1" y="-6.9" class="st0" width="292.8" height="432.9"/>
<path id="Seta" class="st1" d="M259.5,402.8H6.6c-3.1,0-5.7-3-5.7-6.8v-37.3c0-3.8,2.5-6.8,5.7-6.8h253c1.7,0,3.3,0.9,4.4,2.5
	l11.9,17.6c1.6,2.4,1.7,5.8,0.2,8.3L264,400C263,401.7,261.3,402.8,259.5,402.8z"/>
<g id="Título_direita">
	<g>
		<path class="st2" d="M282,24.5H6.9c-3.1,0-5.7-2.5-5.7-5.7v-4.6C1.2,6.4,7.5,0,15.4,0H282c1.6,0,2.8,1.3,2.8,2.8v18.8
			C284.8,23.2,283.6,24.5,282,24.5z"/>
	</g>
	<g>
		<path class="st1" d="M49.5,16.8l1-0.4v-5.9l-1-0.4l0.1-0.9h3.6c3,0,4.4,1.8,4.4,4.1s-1.4,4.3-4.4,4.3h-3.5L49.5,16.8z M52.2,16.8
			h1c1.8,0,2.6-1.6,2.6-3.4s-0.8-3.3-2.6-3.3h-1V16.8z"/>
		<path class="st1" d="M66.9,13.4c0,2.5-1.3,4.4-4.1,4.4c-2.9,0-4.1-2.2-4.1-4.4S60.2,9,62.8,9C65.4,9,66.9,11,66.9,13.4z
			 M60.4,13.4c0,2.3,0.8,3.5,2.3,3.5c1.6,0,2.4-1.2,2.4-3.5c0-2.2-0.8-3.3-2.4-3.3C61.1,10.1,60.4,11.1,60.4,13.4z"/>
		<path class="st1" d="M71.1,9c0.9,0,1.8,0.3,2.6,0.8v1.9l-0.9,0.1l-0.6-1.6c-0.3-0.1-0.8-0.2-1.1-0.2c-0.9,0-1.4,0.4-1.4,1.1
			c0,0.9,1.4,1.3,1.9,1.6c1.3,0.5,2.5,1.3,2.5,2.8c0,1.4-1,2.4-3.2,2.4c-1,0-2-0.3-2.7-0.8v-2l0.9-0.1l0.6,1.6
			c0.3,0.1,0.8,0.3,1.1,0.3c1,0,1.8-0.4,1.8-1c0-0.9-1.4-1.4-2.3-1.8c-0.9-0.5-2.1-1-2.1-2.7C68.2,9.8,69.6,9,71.1,9z"/>
		<path class="st1" d="M77.7,12.8h1.2l0.4-1l0.9,0.1v2.7l-0.9,0.1l-0.4-1h-1.2v3h2.4l0.6-1.8l0.9,0.1v2.5h-6.4l-0.1-0.9l1-0.4v-5.9
			l-1-0.4L75.2,9h6.2v2.1l-0.9,0.1L80,10.1h-2.3C77.7,10.1,77.7,12.8,77.7,12.8z"/>
		<path class="st1" d="M85.5,9c0.9,0,1.8,0.3,2.6,0.8v1.9l-0.9,0.1l-0.6-1.6c-0.3-0.1-0.8-0.2-1.1-0.2c-0.9,0-1.4,0.4-1.4,1.1
			c0,0.9,1.4,1.3,1.9,1.6c1.3,0.5,2.5,1.3,2.5,2.8c0,1.4-1,2.4-3.2,2.4c-1,0-2-0.3-2.7-0.8v-2l0.9-0.1l0.6,1.6
			c0.3,0.1,0.8,0.3,1.1,0.3c1,0,1.8-0.4,1.8-1c0-0.9-1.4-1.4-2.3-1.8c-0.9-0.5-2.1-1-2.1-2.7C82.5,9.8,83.9,9,85.5,9z"/>
		<path class="st1" d="M92.4,16.8l1-0.4v-5.9l-1-0.4l0.1-0.9h3.6c3,0,4.4,1.8,4.4,4.1s-1.4,4.3-4.4,4.3h-3.5L92.4,16.8z M95,16.8h1
			c1.8,0,2.6-1.6,2.6-3.4s-0.8-3.3-2.6-3.3h-1V16.8z"/>
		<path class="st1" d="M103.8,12.8h1.2l0.4-1l0.9,0.1v2.7l-0.9,0.1l-0.4-1h-1.2v3h2.4l0.6-1.8l0.9,0.1v2.5h-6.4l-0.1-0.9l1-0.4v-5.9
			l-1-0.4l0.1-0.9h6.2v2.1l-0.9,0.1l-0.5-1.4h-2.3C103.8,9.8,103.8,12.8,103.8,12.8z"/>
		<path class="st1" d="M119.1,16.4l1.1,0.4l-0.1,0.9h-3.5l-0.1-0.9l0.9-0.4l-0.5-1.4h-2.8l-0.6,1.4l1.1,0.4l-0.1,0.9h-3l-0.1-0.9
			l1-0.4l2.8-7.2l1.3-0.2L119.1,16.4z M115.7,10.6l-1.3,3.4h2.1l-0.8-2C115.7,12,115.7,10.6,115.7,10.6z M115.1,8.2l1.5-1.9l1,0.9
			l-2.1,1.3L115.1,8.2z"/>
		<path class="st1" d="M124.3,10.1l-1,0.4v6.3h2.3l0.7-1.8l0.9,0.1v2.5h-6.4l-0.1-0.9l1-0.4v-5.9l-1-0.4l0.1-0.9h3.4L124.3,10.1z"/>
		<path class="st1" d="M133.4,16.7L134,15l0.9,0.1V17c-0.7,0.5-1.9,0.8-2.8,0.8c-3.1,0-4.4-2.2-4.4-4.4s1.5-4.4,4.4-4.4
			c1.1,0,1.9,0.3,2.8,0.8v1.9l-0.9,0.1l-0.6-1.6c-0.4-0.1-1-0.2-1.4-0.2c-1.7,0-2.6,1.1-2.6,3.3c0,1.6,0.5,3.5,2.6,3.5
			C132.4,16.8,133,16.8,133.4,16.7z"/>
		<path class="st1" d="M144,13.4c0,2.5-1.3,4.4-4.1,4.4s-4.1-2.2-4.1-4.4s1.5-4.4,4.1-4.4S144,11,144,13.4z M137.6,13.4
			c0,2.3,0.8,3.5,2.3,3.5c1.6,0,2.4-1.2,2.4-3.5c0-2.2-0.8-3.3-2.4-3.3S137.6,11.1,137.6,13.4z"/>
		<path class="st1" d="M153.7,13.4c0,2.5-1.3,4.4-4.1,4.4s-4.1-2.2-4.1-4.4S147,9,149.6,9S153.7,11,153.7,13.4z M147.3,13.4
			c0,2.3,0.8,3.5,2.3,3.5c1.6,0,2.4-1.2,2.4-3.5c0-2.2-0.8-3.3-2.4-3.3S147.3,11.1,147.3,13.4z"/>
		<path class="st1" d="M158.6,10.1l-1,0.4v6.3h2.3l0.7-1.8l0.9,0.1v2.5h-6.4l-0.1-0.9l1-0.4v-5.9l-1-0.4l0.1-0.9h3.4L158.6,10.1z"/>
		<path class="st1" d="M169,16.8l-0.1,0.9h-3.8l-0.1-0.9l1-0.4v-5.9l-1-0.4l0.1-0.9h4c1.8,0,2.7,1.1,2.7,2.7c0,1.9-1.5,2.6-3.2,2.6
			h-0.5v-0.9h0.5c0.9,0,1.5-0.8,1.5-1.6c0-1-0.4-1.8-1.5-1.8h-1v6.3L169,16.8z"/>
		<path class="st1" d="M181.1,13.4c0,2.5-1.3,4.4-4.1,4.4s-4.1-2.2-4.1-4.4S174.4,9,177,9S181.1,11,181.1,13.4z M174.6,13.4
			c0,2.3,0.8,3.5,2.3,3.5c1.6,0,2.4-1.2,2.4-3.5c0-2.2-0.8-3.3-2.4-3.3S174.6,11.1,174.6,13.4z"/>
		<path class="st1" d="M185.9,16.8l-0.1,0.9h-3.4l-0.1-0.9l1-0.4v-5.9l-1-0.4l0.1-0.9h4.1c1.8,0,2.8,0.9,2.8,2.4
			c0,1.3-1.3,2.2-2.5,2.2l0.8,0.4l1.2,2.1l1,0.4l-0.1,0.9h-2.6l0.1-0.7l-1.8-3.1v-0.7h0.8c0.9,0,1.5-0.8,1.5-1.5
			c0-0.9-0.5-1.6-1.6-1.6h-1.2v6.3L185.9,16.8z"/>
		<path class="st1" d="M193.5,16.8l1-0.4v-5.9l-1-0.4l0.1-0.9h4.3c1.2,0,2.2,0.9,2.2,2c0,0.7-0.4,1.3-0.9,1.7c1,0.3,1.7,1.2,1.7,2.3
			c0,1.3-1.1,2.4-2.8,2.4h-4.5L193.5,16.8z M197.8,16.8c0.8,0,1.3-0.8,1.3-1.7c0-0.9-0.7-1.6-1.6-1.6h-0.9v-0.9h0.5
			c0.7,0,1.2-0.5,1.2-1.2s-0.3-1.3-1.3-1.3h-0.9v6.7H197.8z"/>
		<path class="st1" d="M204.6,12.8h1.2l0.4-1l0.9,0.1v2.7l-0.9,0.1l-0.4-1h-1.2v3h2.4l0.6-1.8l0.9,0.1v2.5h-6.4l-0.1-0.9l1-0.4v-5.9
			l-1-0.4l0.1-0.9h6.2v2.1l-0.9,0.1l-0.5-1.1h-2.3V12.8z"/>
		<path class="st1" d="M209.3,16.8l1-0.4v-5.9l-1-0.4l0.1-0.9h4.3c1.2,0,2.2,0.9,2.2,2c0,0.7-0.4,1.3-0.9,1.7c1,0.3,1.7,1.2,1.7,2.3
			c0,1.3-1.1,2.4-2.8,2.4h-4.5L209.3,16.8z M213.6,16.8c0.8,0,1.3-0.8,1.3-1.7c0-0.9-0.7-1.6-1.6-1.6h-0.9v-0.9h0.5
			c0.7,0,1.2-0.5,1.2-1.2s-0.3-1.3-1.2-1.3H212v6.7H213.6z"/>
		<path class="st1" d="M221.8,16.8l-0.1,0.9h-3.4l-0.1-0.9l1-0.4v-5.9l-1-0.4l0.1-0.9h3.4l0.1,0.9l-1,0.4v5.9L221.8,16.8z"/>
		<path class="st1" d="M222.9,16.8l1-0.4v-5.9l-1-0.4l0.1-0.9h3.5c3,0,4.4,1.8,4.4,4.1s-1.4,4.3-4.4,4.3H223L222.9,16.8z
			 M225.6,16.8h1c1.8,0,2.6-1.6,2.6-3.4s-0.8-3.3-2.6-3.3h-1V16.8z"/>
		<path class="st1" d="M238.8,16.4l1.1,0.4l-0.1,0.9h-3.5l-0.1-0.9l0.9-0.4l-0.5-1.4h-2.8l-0.6,1.4l1.1,0.4l-0.1,0.9h-3l-0.1-0.9
			l1-0.4l2.8-7.2l1.3-0.2L238.8,16.4z M235.4,10.6l-1.3,3.4h2.1l-0.8-2V10.6z"/>
	</g>
</g>
<g id="Título_esquerda" class="st3">
	<g class="st4">
		<path class="st2" d="M-8.1,25.1h278.5c3.6,0,6.4-2.9,6.4-6.4V15c0-7.9-6.4-14.3-14.3-14.3H-8.1V25.1z"/>
	</g>
	<g id="Título_1_" class="st4">
		<rect x="36.1" y="9.3" class="st5" width="197.1" height="18.7"/>
		<path class="st1" d="M36.6,17.4l1-0.4v-5.9l-1-0.4l0.1-0.9h3.6c3,0,4.4,1.8,4.4,4.1s-1.4,4.3-4.4,4.3h-3.5L36.6,17.4z M39.2,17.4
			h1c1.8,0,2.6-1.6,2.6-3.4s-0.8-3.3-2.6-3.3h-1V17.4z"/>
		<path class="st1" d="M53.9,14.1c0,2.5-1.3,4.4-4.1,4.4c-2.9,0-4.1-2.2-4.1-4.4s1.5-4.4,4.1-4.4C52.5,9.7,53.9,11.6,53.9,14.1z
			 M47.5,14c0,2.3,0.8,3.5,2.3,3.5c1.6,0,2.4-1.2,2.4-3.5c0-2.2-0.8-3.3-2.4-3.3S47.5,11.7,47.5,14z"/>
		<path class="st1" d="M58.2,9.7c0.9,0,1.8,0.3,2.6,0.8v1.9h-0.9l-0.6-1.6c-0.3-0.1-0.8-0.2-1.1-0.2c-0.9,0-1.4,0.4-1.4,1.1
			c0,0.9,1.4,1.3,1.9,1.6c1.3,0.5,2.5,1.3,2.5,2.8c0,1.4-1,2.4-3.2,2.4c-1,0-2-0.3-2.7-0.8v-1.9l0.9-0.1l0.6,1.6
			c0.3,0.1,0.8,0.3,1.1,0.3c1,0,1.8-0.4,1.8-1c0-0.9-1.4-1.4-2.3-1.8c-0.9-0.5-2.1-1-2.1-2.7C55.3,10.4,56.7,9.7,58.2,9.7z"/>
		<path class="st1" d="M64.7,13.5h1.2l0.4-1l0.9,0.1v2.7l-0.9,0.1l-0.4-1h-1.2v3h2.4l0.6-1.8l0.9,0.1v2.5h-6.4l-0.1-0.9l1-0.4v-5.8
			l-1-0.4l0.1-0.9h6.2v2.1l-0.9,0.2L67,10.7h-2.3C64.7,10.7,64.7,13.5,64.7,13.5z"/>
		<path class="st1" d="M72.5,9.7c0.9,0,1.8,0.3,2.6,0.8v1.9l-0.9,0.1l-0.6-1.6c-0.3-0.1-0.8-0.2-1.1-0.2c-0.9,0-1.4,0.4-1.4,1.1
			c0,0.9,1.4,1.3,1.9,1.6c1.3,0.5,2.5,1.3,2.5,2.8c0,1.4-1,2.4-3.2,2.4c-1,0-2-0.3-2.7-0.8v-1.9l0.9-0.1l0.6,1.6
			c0.3,0.1,0.8,0.3,1.1,0.3c1,0,1.8-0.4,1.8-1c0-0.9-1.4-1.4-2.3-1.8c-0.9-0.5-2.1-1-2.1-2.7C69.6,10.4,71,9.7,72.5,9.7z"/>
		<path class="st1" d="M79.4,17.4l1-0.4v-5.9l-1-0.4l0.1-0.9h3.6c3,0,4.4,1.8,4.4,4.1s-1.4,4.3-4.4,4.3h-3.5L79.4,17.4z M82.1,17.4
			h1c1.8,0,2.6-1.6,2.6-3.4s-0.8-3.3-2.6-3.3h-1V17.4z"/>
		<path class="st1" d="M90.9,13.5h1.2l0.4-1l0.9,0.1v2.7l-0.9,0.1l-0.4-1h-1.2v3h2.4l0.6-1.8l0.9,0.1v2.5h-6.4l-0.1-0.9l1-0.4v-5.8
			l-1-0.4l0.1-0.9h6.2v2.1L93.7,12l-0.5-1.4h-2.3V13.5z"/>
		<path class="st1" d="M106.1,17l1.1,0.4l-0.1,0.9h-3.5l-0.1-0.9l0.9-0.4l-0.5-1.4h-2.8l-0.6,1.4l1.1,0.4l-0.1,0.9h-3l-0.1-0.9
			l1-0.4l2.8-7.2l1.3-0.2L106.1,17z M102.7,11.2l-1.3,3.4h2.1l-0.8-2C102.7,12.6,102.7,11.2,102.7,11.2z M102.1,8.8l1.5-1.9l1,0.9
			l-2.1,1.3L102.1,8.8z"/>
		<path class="st1" d="M111.4,10.7l-1,0.4v6.3h2.3l0.7-1.8l0.9,0.1v2.5h-6.4l-0.1-0.9l1-0.4v-5.8l-1-0.4l0.1-0.9h3.4L111.4,10.7z"/>
		<path class="st1" d="M120.5,17.3l0.6-1.7l0.9,0.1v1.9c-0.7,0.5-1.9,0.8-2.8,0.8c-3.1,0-4.4-2.2-4.4-4.4c0-2.2,1.5-4.4,4.4-4.4
			c1.1,0,1.9,0.3,2.8,0.8v1.9l-0.9,0.1l-0.6-1.6c-0.4-0.1-1-0.2-1.4-0.2c-1.7,0-2.6,1.1-2.6,3.3c0,1.6,0.5,3.5,2.6,3.5
			C119.4,17.4,120.1,17.4,120.5,17.3z"/>
		<path class="st1" d="M131.1,14.1c0,2.5-1.3,4.4-4.1,4.4s-4.1-2.2-4.1-4.4s1.5-4.4,4.1-4.4S131.1,11.6,131.1,14.1z M124.6,14
			c0,2.3,0.8,3.5,2.3,3.5c1.6,0,2.4-1.2,2.4-3.5c0-2.2-0.8-3.3-2.4-3.3S124.6,11.7,124.6,14z"/>
		<path class="st1" d="M140.8,14.1c0,2.5-1.3,4.4-4.1,4.4s-4.1-2.2-4.1-4.4s1.5-4.4,4.1-4.4S140.8,11.6,140.8,14.1z M134.3,14
			c0,2.3,0.8,3.5,2.3,3.5c1.6,0,2.4-1.2,2.4-3.5c0-2.2-0.8-3.3-2.4-3.3S134.3,11.7,134.3,14z"/>
		<path class="st1" d="M145.6,10.7l-1,0.4v6.3h2.3l0.7-1.8l0.9,0.1v2.5h-6.4l-0.1-0.9l1-0.4v-5.8l-1-0.4l0.1-0.9h3.4L145.6,10.7z"/>
		<path class="st1" d="M156,17.4l-0.1,0.9h-3.8l-0.1-0.9l1-0.4v-5.9l-1-0.4l0.1-0.9h4c1.8,0,2.7,1.1,2.7,2.7c0,1.9-1.5,2.6-3.2,2.6
			h-0.5v-0.9h0.5c0.9,0,1.5-0.8,1.5-1.6c0-1-0.4-1.8-1.5-1.8h-1v6.3L156,17.4z"/>
		<path class="st1" d="M168.2,14.1c0,2.5-1.3,4.4-4.1,4.4s-4.2-2.2-4.2-4.4s1.5-4.4,4.1-4.4S168.2,11.6,168.2,14.1z M161.7,14
			c0,2.3,0.8,3.5,2.3,3.5c1.6,0,2.4-1.2,2.4-3.5c0-2.2-0.8-3.3-2.4-3.3S161.7,11.7,161.7,14z"/>
		<path class="st1" d="M173,17.4l-0.1,0.9h-3.4l-0.1-0.9l1-0.4v-5.9l-1-0.4l0.1-0.9h4.1c1.8,0,2.8,0.9,2.8,2.4
			c0,1.3-1.3,2.2-2.5,2.2l0.8,0.4l1.2,2.1l1,0.4l-0.1,0.9h-2.6l0.1-0.7l-1.8-3.1v-0.8h0.8c0.9,0,1.5-0.8,1.5-1.5
			c0-0.9-0.5-1.6-1.6-1.6H172v6.3L173,17.4z"/>
		<path class="st1" d="M180.6,17.4l1-0.4v-5.9l-1-0.4l0.1-0.9h4.3c1.2,0,2.2,0.9,2.2,2c0,0.7-0.4,1.3-0.9,1.7c1,0.3,1.7,1.2,1.7,2.3
			c0,1.3-1.1,2.4-2.8,2.4h-4.5L180.6,17.4z M184.9,17.4c0.8,0,1.3-0.8,1.3-1.7c0-0.9-0.7-1.6-1.6-1.6h-0.9v-0.9h0.5
			c0.7,0,1.2-0.5,1.2-1.2s-0.3-1.3-1.3-1.3h-0.9v6.7H184.9z"/>
		<path class="st1" d="M191.7,13.5h1.2l0.4-1l0.9,0.1v2.7l-0.9,0.1l-0.4-1h-1.2v3h2.4l0.6-1.8l0.9,0.1v2.5h-6.4l-0.1-0.9l1-0.4v-5.8
			l-1-0.4l0.1-0.9h6.2v2.1l-0.9,0.1l-0.5-1.4h-2.3V13.5z"/>
		<path class="st1" d="M196.4,17.4l1-0.4v-5.9l-1-0.4l0.1-0.9h4.3c1.2,0,2.2,0.9,2.2,2c0,0.7-0.4,1.3-0.9,1.7c1,0.3,1.7,1.2,1.7,2.3
			c0,1.3-1.1,2.4-2.8,2.4h-4.5L196.4,17.4z M200.7,17.4c0.8,0,1.3-0.8,1.3-1.7c0-0.9-0.7-1.6-1.6-1.6h-0.9v-0.9h0.5
			c0.7,0,1.2-0.5,1.2-1.2s-0.3-1.3-1.3-1.3H199v6.7H200.7z"/>
		<path class="st1" d="M208.8,17.4l-0.1,0.9h-3.4l-0.1-0.9l1-0.4v-5.9l-1-0.4l0.1-0.9h3.4l0.1,0.9l-1,0.4V17L208.8,17.4z"/>
		<path class="st1" d="M210,17.4l1-0.4v-5.9l-1-0.4l0.1-0.9h3.5c3,0,4.4,1.8,4.4,4.1s-1.4,4.3-4.4,4.3h-3.5L210,17.4z M212.6,17.4h1
			c1.8,0,2.6-1.6,2.6-3.4s-0.8-3.3-2.6-3.3h-1V17.4z"/>
		<path class="st1" d="M225.9,17l1.1,0.4l-0.1,0.9h-3.5l-0.1-0.9l0.9-0.4l-0.5-1.4h-2.8l-0.6,1.4l1.1,0.4l-0.1,0.9h-3l-0.1-0.9
			l1-0.4l2.8-7.2l1.3-0.2L225.9,17z M222.5,11.2l-1.3,3.4h2.1l-0.8-2V11.2z"/>
	</g>
</g>
<g id="Medida_destilados">
	<g>
		<g>
			<path class="st6" d="M30,221.1c0,0.1,0.1,0.1,0.1,0.2"/>
			<path class="st7" d="M33,225.5c23.6,33.1,64.2,51,103.5,51.3"/>
			<path class="st6" d="M139.1,276.9c0.1,0,0.2,0,0.2,0"/>
		</g>
	</g>
	<g>
		<g>
			<path class="st8" d="M67.4,268.5V268c0.2-0.1,0.4-0.3,0.6-0.4s0.4-0.3,0.5-0.4c0.2-0.1,0.4-0.3,0.5-0.4s0.3-0.3,0.5-0.4
				s0.3-0.3,0.5-0.4s0.4-0.3,0.5-0.4c0.2-0.1,0.4-0.3,0.6-0.4l0.2,0.1l0.3,0.6c-0.2,0.1-0.3,0.2-0.5,0.4c-0.2,0.1-0.3,0.2-0.5,0.4
				c-0.2,0.1-0.3,0.2-0.4,0.4s-0.3,0.2-0.4,0.3c-0.2,0.1-0.3,0.2-0.5,0.4c-0.2,0.1-0.3,0.2-0.5,0.4l-0.6,0.4l3,1.6l-0.3,0.6
				L67.4,268.5z M69,270.7l0.9-1.7l1-1.6l0.7,0.4l-1.9,3.4L69,270.7z"/>
			<path class="st8" d="M71.4,272l0.3-0.6c0.1,0.1,0.2,0.1,0.3,0.2c0.1,0.1,0.2,0.1,0.3,0.2c0.3,0.2,0.6,0.3,0.9,0.3s0.5,0,0.7-0.1
				s0.4-0.2,0.5-0.4c0.1-0.2,0.1-0.4,0.1-0.6s-0.1-0.4-0.2-0.5c-0.1-0.2-0.3-0.3-0.6-0.4l-0.4-0.1l0.1-0.6c0.1,0,0.3,0.1,0.4,0.1
				s0.2,0,0.4,0c0.3,0,0.5,0,0.7-0.1s0.4-0.2,0.5-0.4c0.1-0.2,0.1-0.5,0.1-0.6c-0.1-0.2-0.2-0.3-0.5-0.4c-0.2-0.1-0.5-0.2-0.7-0.2
				s-0.4,0-0.5,0v-0.6c0.1,0,0.3-0.1,0.5-0.1s0.4,0,0.6,0s0.4,0.1,0.6,0.2c0.3,0.1,0.5,0.3,0.7,0.5s0.3,0.4,0.3,0.7
				c0,0.2,0,0.5-0.1,0.8c-0.1,0.2-0.3,0.4-0.5,0.5s-0.4,0.2-0.7,0.3s-0.5,0.1-0.7,0l0.1-0.1c0.3,0.1,0.5,0.3,0.7,0.6
				s0.2,0.5,0.2,0.7s0,0.5-0.2,0.7c-0.1,0.3-0.4,0.5-0.7,0.7c-0.3,0.2-0.7,0.2-1.1,0.2s-0.8-0.1-1.3-0.4c-0.1-0.1-0.3-0.1-0.4-0.2
				C71.6,272.1,71.5,272,71.4,272z"/>
			<path class="st8" d="M75.5,274l1.8-4.1l0.7,0.3l-0.2,0.4c0.1,0,0.3,0,0.4-0.1c0.2,0,0.4,0,0.5,0s0.4,0.1,0.5,0.1
				c0.3,0.1,0.5,0.3,0.6,0.4c0.1,0.2,0.2,0.4,0.1,0.7s-0.1,0.6-0.3,1l-1.1,2.5l-0.8-0.4l1.1-2.5c0.1-0.2,0.2-0.4,0.2-0.6
				s0-0.3-0.1-0.4s-0.2-0.2-0.4-0.3c-0.1-0.1-0.3-0.1-0.5-0.1s-0.4,0-0.6,0.1l-1.4,3.1L75.5,274z M80,272.3l0.1-0.6
				c0.1,0,0.3-0.1,0.5-0.1s0.4,0,0.6,0s0.4,0.1,0.6,0.2c0.3,0.1,0.5,0.3,0.6,0.4s0.2,0.4,0.2,0.7c0,0.3-0.1,0.6-0.3,1l-1.1,2.5
				l-0.8-0.4l1.1-2.5c0.1-0.2,0.2-0.4,0.2-0.6s0-0.3-0.1-0.4s-0.2-0.2-0.4-0.3c-0.1-0.1-0.3-0.1-0.5-0.1
				C80.3,272.3,80.1,272.3,80,272.3z"/>
			<path class="st8" d="M82.3,277l2.4-6l0.8,0.3l-2.4,6L82.3,277z"/>
		</g>
	</g>
</g>
<g id="Medida_cervejas">
	<g>
		<g>
			<path class="st6" d="M31.9,115.8C31.9,115.8,31.9,115.7,31.9,115.8"/>
			<path class="st9" d="M34.8,111.6c48.4-68.5,163-67.7,210.4,6.2"/>
			<path class="st6" d="M246.6,120.1c0,0,0,0.1,0.1,0.1"/>
		</g>
	</g>
	<g>
		<path class="st8" d="M185,65.2l0.2-0.6c0.1,0.1,0.2,0.1,0.3,0.2s0.2,0.1,0.3,0.1c0.3,0.1,0.6,0.2,0.9,0.2c0.3,0,0.5,0,0.7-0.1
			s0.3-0.3,0.4-0.5c0.1-0.2,0.1-0.4,0.1-0.6s-0.1-0.4-0.2-0.5s-0.4-0.3-0.7-0.3h-0.4l0.1-0.6c0.1,0,0.3,0,0.4,0c0.1,0,0.2,0,0.4,0
			c0.3,0,0.5-0.1,0.7-0.2s0.3-0.3,0.4-0.5c0.1-0.3,0.1-0.5,0-0.6c-0.1-0.2-0.3-0.3-0.5-0.4s-0.5-0.1-0.7-0.1s-0.4,0-0.5,0.1
			l-0.1-0.6c0.1,0,0.3-0.1,0.4-0.1s0.4,0,0.6,0c0.2,0,0.4,0.1,0.6,0.1c0.3,0.1,0.5,0.3,0.7,0.4s0.3,0.4,0.4,0.6
			c0.1,0.2,0,0.5-0.1,0.8c-0.1,0.2-0.2,0.4-0.4,0.6s-0.4,0.3-0.6,0.3s-0.5,0.1-0.7,0.1v-0.1c0.3,0.1,0.6,0.3,0.7,0.5
			c0.2,0.2,0.3,0.4,0.3,0.7c0,0.2,0,0.5-0.1,0.7c-0.1,0.3-0.3,0.5-0.6,0.7s-0.6,0.3-1,0.3s-0.9,0-1.3-0.2c-0.1-0.1-0.3-0.1-0.4-0.2
			S185.1,65.2,185,65.2z"/>
		<path class="st8" d="M188.9,66.7l0.2-0.6c0.1,0.1,0.2,0.1,0.3,0.2s0.2,0.1,0.3,0.1c0.3,0.1,0.6,0.2,0.9,0.2s0.5,0,0.7-0.1
			s0.3-0.2,0.4-0.5c0.1-0.2,0.1-0.4,0.1-0.6s-0.1-0.4-0.2-0.5s-0.4-0.3-0.6-0.4l-0.4-0.1l0.1-0.6c0.1,0,0.3,0,0.4,0
			c0.1,0,0.2,0,0.4,0c0.3,0,0.5-0.1,0.7-0.2s0.3-0.3,0.4-0.5c0.1-0.3,0.1-0.5,0-0.6c-0.1-0.2-0.3-0.3-0.5-0.4s-0.5-0.1-0.7-0.1
			s-0.4,0-0.5,0.1l-0.1-0.6c0.1,0,0.3-0.1,0.5-0.1s0.4,0,0.6,0s0.4,0.1,0.6,0.1c0.3,0.1,0.5,0.3,0.7,0.5s0.3,0.4,0.4,0.7
			c0.1,0.2,0,0.5-0.1,0.8c-0.1,0.2-0.2,0.4-0.4,0.6c-0.2,0.1-0.4,0.3-0.6,0.3s-0.5,0.1-0.7,0.1v-0.1c0.3,0.1,0.6,0.3,0.7,0.5
			c0.2,0.2,0.3,0.4,0.3,0.7c0,0.2,0,0.5-0.1,0.7c-0.1,0.3-0.3,0.5-0.6,0.7s-0.6,0.3-1.1,0.3s-0.9-0.1-1.3-0.3
			c-0.1-0.1-0.3-0.1-0.4-0.2S189.1,66.7,188.9,66.7z"/>
		<path class="st8" d="M194.6,69.2c-0.3-0.2-0.6-0.4-0.8-0.6c-0.2-0.3-0.3-0.6-0.3-0.9s0-0.7,0.1-1.1s0.2-0.7,0.4-1.1
			c0.3-0.5,0.6-1,0.9-1.3c0.4-0.3,0.7-0.5,1.1-0.6c0.4-0.1,0.8-0.1,1.1,0.1s0.6,0.4,0.8,0.6s0.3,0.5,0.3,0.8s0,0.7-0.1,1
			c-0.1,0.4-0.2,0.7-0.4,1.1c-0.3,0.6-0.6,1-0.9,1.4c-0.4,0.4-0.7,0.6-1.1,0.7C195.4,69.4,195,69.3,194.6,69.2z M195,68.4
			c0.3,0.2,0.7,0.1,1-0.1s0.6-0.7,0.9-1.4c0.2-0.4,0.3-0.7,0.4-1.1c0.1-0.3,0.1-0.6,0-0.9c-0.1-0.2-0.2-0.4-0.5-0.5
			c-0.3-0.2-0.7-0.1-1,0.1s-0.6,0.7-0.9,1.3c-0.2,0.4-0.3,0.7-0.4,1.1c-0.1,0.4-0.1,0.7,0,0.9S194.7,68.3,195,68.4z"/>
		<path class="st8" d="M197.5,70.4l2-4l0.7,0.4l-0.2,0.4c0.1,0,0.3,0,0.5,0s0.4,0,0.5,0c0.2,0,0.4,0.1,0.5,0.2
			c0.3,0.1,0.5,0.3,0.6,0.5s0.1,0.4,0.1,0.7c0,0.3-0.2,0.6-0.4,1l-1.3,2.5l-0.8-0.4l1.2-2.4c0.1-0.2,0.2-0.4,0.2-0.6s0-0.3,0-0.4
			c-0.1-0.1-0.2-0.2-0.4-0.3c-0.1-0.1-0.3-0.1-0.5-0.1s-0.4,0-0.6,0l-1.5,3L197.5,70.4z M202.1,69l0.1-0.6c0.1,0,0.3-0.1,0.5-0.1
			s0.4,0,0.6,0c0.2,0,0.4,0.1,0.6,0.2c0.3,0.1,0.5,0.3,0.6,0.5s0.2,0.4,0.1,0.7c0,0.3-0.2,0.6-0.4,1l-1.3,2.5l-0.8-0.4l1.2-2.4
			c0.1-0.2,0.2-0.4,0.2-0.6s0-0.3,0-0.4c-0.1-0.1-0.2-0.2-0.4-0.3c-0.1-0.1-0.3-0.1-0.5-0.1C202.5,69,202.3,69,202.1,69z"/>
		<path class="st8" d="M204,73.8l3.2-5.7l0.8,0.4l-3.2,5.7L204,73.8z"/>
	</g>
	<g>
		<path class="st8" d="M66.5,76.2l-0.3-0.5c0.1,0,0.2-0.1,0.3-0.1c0.1,0,0.2-0.1,0.3-0.1c0.3-0.2,0.5-0.4,0.7-0.6s0.3-0.4,0.3-0.7
			c0-0.2,0-0.4-0.1-0.6s-0.2-0.3-0.4-0.4c-0.2-0.1-0.3-0.1-0.5-0.1s-0.4,0.1-0.7,0.3l-0.3,0.3l-0.4-0.6c0.1-0.1,0.2-0.2,0.3-0.3
			c0.1-0.1,0.2-0.2,0.2-0.3c0.2-0.2,0.3-0.5,0.3-0.7s0-0.4-0.1-0.6s-0.3-0.4-0.5-0.4s-0.4,0-0.6,0.2c-0.2,0.1-0.4,0.3-0.5,0.5
			s-0.2,0.3-0.3,0.5l-0.6-0.3c0-0.1,0.1-0.3,0.2-0.4c0.1-0.2,0.2-0.3,0.3-0.5c0.1-0.2,0.3-0.3,0.5-0.4c0.3-0.2,0.5-0.3,0.8-0.3
			s0.5,0,0.7,0.1s0.4,0.3,0.6,0.5c0.2,0.2,0.2,0.4,0.2,0.6s0,0.5-0.1,0.7s-0.2,0.4-0.4,0.6l-0.1-0.1c0.3-0.2,0.6-0.3,0.8-0.3
			c0.3,0,0.5,0.1,0.7,0.2s0.4,0.3,0.5,0.5c0.2,0.3,0.2,0.6,0.2,0.9s-0.2,0.7-0.4,1s-0.6,0.6-1,0.9c-0.1,0.1-0.3,0.1-0.4,0.2
			S66.6,76.1,66.5,76.2z"/>
		<path class="st8" d="M70.1,74.1l-0.3-0.5c0.1,0,0.2-0.1,0.3-0.1c0.1,0,0.2-0.1,0.3-0.1c0.3-0.2,0.6-0.4,0.8-0.6
			c0.2-0.2,0.3-0.4,0.4-0.7c0.1-0.2,0-0.4-0.1-0.6s-0.2-0.3-0.4-0.4c-0.2-0.1-0.3-0.2-0.5-0.1c-0.2,0-0.4,0.1-0.7,0.3l-0.3,0.3
			l-0.5-0.5c0.1-0.1,0.2-0.2,0.3-0.3s0.2-0.2,0.2-0.3c0.2-0.2,0.3-0.4,0.3-0.7c0-0.2,0-0.4-0.1-0.6s-0.3-0.4-0.5-0.4s-0.4,0-0.6,0.1
			s-0.4,0.3-0.5,0.4s-0.3,0.3-0.3,0.4l-0.5-0.3c0-0.1,0.1-0.3,0.2-0.4c0.1-0.2,0.2-0.3,0.4-0.5s0.3-0.3,0.5-0.4
			c0.3-0.1,0.5-0.2,0.8-0.3c0.3,0,0.5,0,0.7,0.1s0.4,0.3,0.6,0.6c0.1,0.2,0.2,0.5,0.2,0.7s-0.1,0.5-0.1,0.7
			c-0.1,0.2-0.2,0.4-0.4,0.6l-0.1-0.1c0.3-0.2,0.6-0.2,0.8-0.2c0.3,0,0.5,0.1,0.7,0.2s0.4,0.3,0.5,0.5c0.2,0.3,0.2,0.6,0.2,0.9
			s-0.2,0.7-0.4,1c-0.2,0.3-0.6,0.6-1,0.9c-0.1,0.1-0.3,0.1-0.4,0.2C70.3,74,70.2,74,70.1,74.1z"/>
		<path class="st8" d="M75.6,71.2c-0.3,0.2-0.7,0.2-1,0.2s-0.6-0.1-0.9-0.3c-0.3-0.2-0.5-0.4-0.8-0.7c-0.2-0.3-0.4-0.6-0.6-1
			c-0.3-0.5-0.4-1.1-0.4-1.5s0-0.9,0.2-1.3s0.4-0.6,0.8-0.8c0.3-0.2,0.7-0.2,1-0.2s0.6,0.1,0.8,0.3c0.3,0.2,0.5,0.4,0.7,0.7
			c0.2,0.3,0.4,0.6,0.6,1c0.3,0.6,0.4,1.1,0.5,1.6s0,0.9-0.2,1.3C76.2,70.7,76,71,75.6,71.2z M75.2,70.4c0.3-0.2,0.5-0.5,0.5-0.9
			s-0.2-1-0.5-1.6c-0.2-0.4-0.4-0.7-0.6-1s-0.4-0.4-0.7-0.5c-0.2-0.1-0.5-0.1-0.7,0c-0.3,0.2-0.5,0.5-0.5,0.9s0.1,0.9,0.4,1.5
			c0.2,0.4,0.4,0.7,0.6,1s0.5,0.5,0.7,0.6C74.8,70.6,75,70.6,75.2,70.4z"/>
		<path class="st8" d="M78.4,69.7l-1.8-4.1l0.7-0.3l0.2,0.4c0.1-0.1,0.1-0.2,0.3-0.4c0.1-0.1,0.2-0.3,0.4-0.4
			c0.1-0.1,0.3-0.2,0.5-0.3c0.3-0.1,0.5-0.2,0.7-0.2s0.4,0.1,0.6,0.3c0.2,0.2,0.4,0.5,0.5,0.9l1.1,2.5l-0.8,0.4L79.7,66
			c-0.1-0.2-0.2-0.4-0.3-0.5c-0.1-0.1-0.2-0.2-0.3-0.2c-0.1,0-0.3,0-0.5,0.1c-0.1,0.1-0.2,0.2-0.4,0.3s-0.3,0.4-0.4,0.6l1.4,3.1
			L78.4,69.7z M80.2,65.3l-0.4-0.5c0.1-0.1,0.1-0.3,0.3-0.4c0.1-0.1,0.2-0.3,0.4-0.4c0.2-0.1,0.3-0.2,0.5-0.3
			c0.3-0.1,0.5-0.2,0.7-0.2s0.4,0.1,0.6,0.3c0.2,0.2,0.4,0.5,0.5,0.9l1.1,2.6l-0.8,0.4L82,65.1c-0.1-0.2-0.2-0.4-0.3-0.5
			c-0.1-0.1-0.2-0.2-0.3-0.2s-0.3,0-0.5,0.1c-0.1,0.1-0.3,0.2-0.4,0.3S80.3,65.1,80.2,65.3z"/>
		<path class="st8" d="M85.1,66.8l-2.4-6l0.8-0.3l2.4,6L85.1,66.8z"/>
	</g>
</g>
<g id="Garrafa_cerveja">
	<path class="st10" d="M75.9,406.8H33.6v-16.5h50.2c2.1,0,3.7,1.7,3.7,3.7v1.2C87.5,401.7,82.3,406.8,75.9,406.8z"/>
	<g>
		<path class="st11" d="M42.3,375.9c0,1.1-1,1.5-2.1,1.5c-0.9,0-1.7-0.3-1.7-1.1c0-0.5,0.5-0.9,1-1l0.3,0.4
			c-0.3,0.2-0.4,0.4-0.4,0.6c0,0.3,0.3,0.5,0.9,0.5c0.5,0,1-0.3,1-0.7c0-0.3-0.4-0.6-0.8-0.7l-0.9-0.3c-0.3-0.1-0.7-0.3-0.7-0.8
			l0.4-0.7c-0.4-0.3-0.5-0.7-0.5-1.2c0-0.8,0.7-1.6,1.8-1.6c0.3,0,0.6,0,0.8,0.1l1.2-0.1l-0.1,0.7H42l0.4,0.3
			c0.1,0.2,0.1,0.4,0.1,0.7c0,1-0.8,1.5-2,1.5c-0.2,0-0.4,0-0.6-0.1v0.1c0,0.1,0.1,0.2,0.3,0.2l0.8,0.3
			C41.7,374.8,42.3,375.2,42.3,375.9z M39.7,372.4c0,0.7,0.3,1,0.8,1s0.8-0.3,0.8-1c0-0.8-0.4-1-0.8-1
			C40,371.5,39.7,371.8,39.7,372.4z"/>
		<path class="st11" d="M44.7,370.9c1.2,0,1.9,0.6,1.9,1.7v1.9l0.5,0.2l-0.1,0.5h-1.1l-0.3-0.2c-0.3,0.2-0.6,0.3-1.2,0.3
			c-0.8,0-1.5-0.4-1.5-1.3c0-1.2,1.4-1.5,2.6-1.5v-0.3c0-0.5-0.4-0.8-0.8-0.8c-0.2,0-0.5,0.1-0.7,0.1l-0.2,0.7l-0.6-0.1v-0.9
			C43.7,371,44.2,370.9,44.7,370.9z M44.1,374c0,0.5,0.4,0.7,0.6,0.7c0.2,0,0.6-0.1,0.7-0.4v-1.2C44.6,373.1,44.1,373.5,44.1,374z"
			/>
		<path class="st11" d="M50.3,371.6c-0.1,0-0.2,0-0.4,0s-0.5,0.1-0.8,0.2v2.7l0.7,0.2l-0.1,0.5h-2.2l-0.1-0.5l0.6-0.2v-2.9h-0.4
			l-0.1-0.5l1.2-0.1l0.4,0.2c0.3-0.1,0.7-0.2,1.2-0.2c0.3,0,0.6,0.1,0.9,0.2v1l-0.6,0.1L50.3,371.6z"/>
		<path class="st11" d="M54.4,371.6c-0.1,0-0.2,0-0.4,0s-0.5,0.1-0.8,0.2v2.7l0.7,0.2l-0.1,0.5h-2.2l-0.1-0.5l0.6-0.2v-2.9h-0.4
			l-0.1-0.5l1.2-0.1l0.4,0.2c0.3-0.1,0.7-0.2,1.2-0.2c0.3,0,0.6,0.1,0.9,0.2v1l-0.6,0.1L54.4,371.6z"/>
		<path class="st11" d="M57.4,370.9c1.2,0,1.9,0.6,1.9,1.7v1.9l0.5,0.2l-0.1,0.5h-1.1l-0.3-0.2c-0.3,0.2-0.6,0.3-1.2,0.3
			c-0.8,0-1.5-0.4-1.5-1.3c0-1.2,1.4-1.5,2.6-1.5v-0.3c0-0.5-0.4-0.8-0.8-0.8c-0.2,0-0.5,0.1-0.7,0.1l-0.2,0.7l-0.6-0.1v-0.9
			C56.4,371,57,370.9,57.4,370.9z M56.8,374c0,0.5,0.4,0.7,0.6,0.7s0.6-0.1,0.7-0.4v-1.2C57.3,373.1,56.8,373.5,56.8,374z"/>
		<path class="st11" d="M63.9,368.9v0.8l-0.6,0.1l-0.2-0.7c-0.1,0-0.3-0.1-0.4-0.1c-0.4,0-0.8,0.2-0.8,1v0.9h1l-0.1,0.5h-0.9v2.9
			l0.8,0.2l-0.1,0.5h-2.3l-0.1-0.5l0.6-0.2v-2.9h-0.6l-0.1-0.5l0.7-0.2v-0.6c0-1,0.7-1.8,1.9-1.8C63.2,368.5,63.5,368.6,63.9,368.9z
			"/>
		<path class="st11" d="M65.7,370.9c1.2,0,1.9,0.6,1.9,1.7v1.9l0.5,0.2l-0.1,0.5h-1.1l-0.3-0.2c-0.3,0.2-0.6,0.3-1.2,0.3
			c-0.8,0-1.5-0.4-1.5-1.3c0-1.2,1.4-1.5,2.6-1.5v-0.3c0-0.5-0.4-0.8-0.8-0.8c-0.2,0-0.5,0.1-0.7,0.1l-0.2,0.7l-0.6-0.1v-0.9
			C64.7,371,65.3,370.9,65.7,370.9z M65.1,374c0,0.5,0.4,0.7,0.6,0.7s0.6-0.1,0.7-0.4v-1.2C65.6,373.1,65.1,373.5,65.1,374z"/>
		<path class="st11" d="M73,375.3c-1.4,0-2.2-0.8-2.2-2.2c0-1.3,0.9-2.2,2.3-2.2c0.2,0,0.5,0,0.8,0.1v-1.9h-0.5l-0.1-0.5l1.2-0.1
			l0.5,0.1v5.8l0.6,0.2l-0.1,0.5h-1.2l-0.3-0.2C73.7,375.2,73.3,375.3,73,375.3z M73.1,371.6c-0.7,0-1.1,0.6-1.1,1.5
			s0.5,1.6,1.1,1.6c0.3,0,0.6-0.1,0.8-0.3v-2.6C73.6,371.6,73.3,371.6,73.1,371.6z"/>
		<path class="st11" d="M79.8,374.2l0.3,0.5c-0.6,0.5-1.1,0.6-1.7,0.6c-1.7,0-2.5-0.9-2.5-2.2c0-1.4,1-2.2,2.3-2.2
			c1.1,0,2,0.6,2,1.5c0,0.2-0.1,0.6-0.2,0.8h-2.8c0,0.9,0.5,1.5,1.3,1.5C78.9,374.7,79.3,374.5,79.8,374.2z M79,372.3
			c0-0.5-0.4-0.8-0.8-0.8c-0.6,0-1,0.4-1,1.1H79C79,372.5,79,372.4,79,372.3z"/>
		<path class="st11" d="M39.8,383.7c0,0.9,0.3,1.7,1.2,1.7c0.4,0,0.9-0.1,1.3-0.4l0.3,0.5c-0.4,0.4-1.1,0.6-1.6,0.6
			c-1.6,0-2.4-0.9-2.4-2.2c0-1.4,1-2.2,2.4-2.2c0.4,0,1,0.1,1.5,0.4v0.9l-0.6,0.1l-0.2-0.7c-0.2-0.1-0.5-0.1-0.7-0.1
			C40.3,382.3,39.8,382.8,39.8,383.7z"/>
		<path class="st11" d="M47.1,385l0.3,0.5c-0.6,0.5-1.1,0.6-1.7,0.6c-1.7,0-2.5-0.9-2.5-2.2c0-1.4,1-2.2,2.3-2.2c1.1,0,2,0.6,2,1.5
			c0,0.2-0.1,0.6-0.2,0.8h-2.8c0,0.9,0.5,1.5,1.3,1.5C46.2,385.5,46.6,385.3,47.1,385z M46.3,383.1c0-0.5-0.4-0.8-0.8-0.8
			c-0.6,0-1,0.4-1,1.1h1.8C46.3,383.3,46.3,383.2,46.3,383.1z"/>
		<path class="st11" d="M51,382.4c-0.1,0-0.2,0-0.4,0s-0.5,0.1-0.8,0.2v2.7l0.7,0.2l-0.1,0.5h-2.2l-0.1-0.5l0.6-0.2v-2.9h-0.4
			l-0.1-0.5l1.2-0.1l0.4,0.2c0.3-0.1,0.7-0.2,1.2-0.2c0.3,0,0.6,0.1,0.9,0.2v1l-0.6,0.1L51,382.4z"/>
		<path class="st11" d="M54.2,386.1l-1.5-3.6l-0.6-0.2l0.1-0.5h2.1l0.1,0.5l-0.5,0.2l0.8,1.7v0.8l1.1-2.6l-0.5-0.2l0.1-0.5h1.5
			l0.1,0.5l-0.6,0.2l-1.4,3.5L54.2,386.1z"/>
		<path class="st11" d="M61.2,385l0.3,0.5c-0.6,0.5-1.1,0.6-1.7,0.6c-1.7,0-2.5-0.9-2.5-2.2c0-1.4,1-2.2,2.3-2.2c1.1,0,2,0.6,2,1.5
			c0,0.2-0.1,0.6-0.2,0.8h-2.8c0,0.9,0.5,1.5,1.3,1.5C60.3,385.5,60.8,385.3,61.2,385z M60.5,383.1c0-0.5-0.4-0.8-0.8-0.8
			c-0.6,0-1,0.4-1,1.1h1.8C60.5,383.3,60.5,383.2,60.5,383.1z"/>
		<path class="st11" d="M64,381.8v3.5c0,1.2-0.3,2.4-2.1,3l-0.3-0.5c1.2-0.8,1.3-1.6,1.3-2.6v-2.8h-0.5l-0.1-0.5l1.2-0.1H64z
			 M63.9,380.3c0,0.3-0.3,0.6-0.6,0.6c-0.3,0-0.6-0.3-0.6-0.6c0-0.3,0.3-0.6,0.6-0.6S63.9,380,63.9,380.3z"/>
		<path class="st11" d="M66.7,381.7c1.2,0,1.9,0.6,1.9,1.7v1.9l0.5,0.2L69,386h-1.1l-0.3-0.2c-0.3,0.2-0.6,0.3-1.2,0.3
			c-0.8,0-1.5-0.4-1.5-1.3c0-1.2,1.4-1.5,2.6-1.5V383c0-0.5-0.4-0.8-0.8-0.8c-0.2,0-0.5,0.1-0.7,0.1l-0.2,0.7l-0.6-0.1v-0.8
			C65.8,381.8,66.3,381.7,66.7,381.7z M66.1,384.8c0,0.5,0.4,0.7,0.6,0.7s0.6-0.1,0.7-0.4v-1.2C66.6,383.9,66.1,384.3,66.1,384.8z"
			/>
	</g>
	<g>
		<g>
			<path class="st1" d="M38.9,401.2l-0.1-0.5c0.2-0.2,0.5-0.4,0.8-0.6s0.5-0.4,0.7-0.7c0.2-0.2,0.4-0.5,0.6-0.8
				c0.2-0.3,0.3-0.5,0.4-0.8c0.1-0.3,0.2-0.5,0.2-0.8c0-0.4-0.1-0.6-0.3-0.8c-0.2-0.2-0.4-0.3-0.7-0.3s-0.5,0.1-0.8,0.2
				c-0.2,0.1-0.4,0.2-0.6,0.4l-0.4-0.6c0.1-0.1,0.2-0.2,0.4-0.3s0.4-0.2,0.6-0.3c0.2-0.1,0.5-0.1,0.8-0.1c0.4,0,0.8,0.1,1,0.2
				s0.5,0.4,0.6,0.7c0.1,0.3,0.2,0.6,0.2,0.9c0,0.4-0.1,0.8-0.3,1.2s-0.5,0.8-0.8,1.2s-0.7,0.7-1.2,1h2.5v0.8L38.9,401.2L38.9,401.2
				z"/>
			<path class="st1" d="M46.7,401.2c-0.3,0-0.6-0.1-0.9-0.2c-0.3-0.2-0.5-0.4-0.6-0.7c-0.2-0.3-0.2-0.7-0.2-1.2s0.1-0.9,0.3-1.3
				s0.4-0.7,0.8-0.9c0.3-0.2,0.7-0.3,1.2-0.3c0.3,0,0.5,0,0.7,0.1s0.3,0.1,0.4,0.2l-0.3,0.6c-0.1-0.1-0.2-0.1-0.3-0.1s-0.3,0-0.5,0
				s-0.4,0.1-0.6,0.2c-0.2,0.1-0.3,0.3-0.4,0.6s-0.2,0.6-0.2,0.9c0,0.5,0.1,0.9,0.3,1.1s0.5,0.4,0.8,0.4c0.2,0,0.4,0,0.6-0.1
				c0.2-0.1,0.3-0.2,0.4-0.2l0.2,0.5c-0.1,0.1-0.1,0.1-0.3,0.2c-0.1,0.1-0.2,0.2-0.4,0.3C47.2,401.2,47,401.2,46.7,401.2z M48,401.2
				v-0.6l0,0v-3.2l0,0v-0.9v-1.8h0.9v6.5H48z"/>
			<path class="st1" d="M51.9,401.2c-0.4,0-0.7-0.1-0.9-0.2s-0.5-0.3-0.6-0.5c-0.2-0.2-0.3-0.5-0.3-0.8c-0.1-0.3-0.1-0.6-0.1-0.9
				c0-0.5,0.1-0.9,0.3-1.2c0.2-0.3,0.4-0.6,0.7-0.7c0.3-0.2,0.7-0.2,1-0.2c0.5,0,0.9,0.1,1.2,0.3c0.3,0.2,0.5,0.5,0.6,0.9
				s0.2,0.8,0.2,1.2c0,0.5-0.1,0.9-0.3,1.2c-0.2,0.3-0.4,0.6-0.7,0.7C52.6,401.1,52.2,401.2,51.9,401.2z M51.9,400.6
				c0.4,0,0.6-0.1,0.8-0.4s0.3-0.7,0.3-1.2c0-0.3,0-0.6-0.1-0.8s-0.2-0.5-0.4-0.6c-0.2-0.2-0.4-0.2-0.6-0.2c-0.4,0-0.6,0.1-0.8,0.4
				s-0.3,0.7-0.3,1.2c0,0.3,0,0.6,0.1,0.9s0.2,0.5,0.3,0.6S51.6,400.6,51.9,400.6z"/>
			<path class="st1" d="M54.7,400.9l0.1-0.7c0,0,0.1,0.1,0.2,0.1s0.3,0.1,0.5,0.1s0.4,0.1,0.5,0.1c0.3,0,0.5,0,0.6-0.1
				s0.2-0.2,0.2-0.4c0-0.1,0-0.2-0.1-0.3s-0.2-0.2-0.3-0.2c-0.1-0.1-0.3-0.2-0.5-0.2c-0.2-0.1-0.5-0.2-0.6-0.4
				c-0.2-0.1-0.3-0.3-0.4-0.5s-0.2-0.4-0.1-0.6c0-0.3,0.1-0.5,0.2-0.7c0.1-0.2,0.3-0.3,0.6-0.4c0.2-0.1,0.5-0.1,0.8-0.1
				c0.3,0,0.5,0,0.7,0.1s0.3,0.1,0.4,0.1l-0.1,0.7c0,0-0.1-0.1-0.2-0.1s-0.2-0.1-0.3-0.1c-0.1,0-0.3,0-0.4,0c-0.3,0-0.5,0-0.6,0.1
				s-0.2,0.2-0.2,0.3c0,0.2,0.1,0.3,0.2,0.4c0.1,0.1,0.3,0.2,0.5,0.3c0.3,0.1,0.5,0.3,0.7,0.4s0.4,0.3,0.5,0.4
				c0.1,0.2,0.2,0.4,0.2,0.6c0,0.4-0.1,0.7-0.4,0.9c-0.3,0.2-0.7,0.3-1.2,0.3c-0.2,0-0.4,0-0.6,0c-0.2,0-0.4-0.1-0.5-0.1
				S54.8,401,54.7,400.9z"/>
			<path class="st1" d="M60.5,401.2c-0.6,0-1.1-0.2-1.5-0.6s-0.5-1-0.5-1.7c0-0.4,0.1-0.8,0.2-1.2s0.4-0.6,0.7-0.8
				c0.3-0.2,0.7-0.3,1.1-0.3c0.2,0,0.4,0,0.6,0.1s0.4,0.2,0.5,0.3s0.3,0.3,0.4,0.5s0.1,0.5,0.1,0.7s0,0.3,0,0.5c0,0.1,0,0.2,0,0.4
				H59l0.1-0.6h2.2c0-0.2,0-0.4,0-0.6s-0.1-0.3-0.2-0.5c-0.1-0.1-0.3-0.2-0.6-0.2c-0.2,0-0.4,0.1-0.6,0.2s-0.3,0.3-0.4,0.6
				c-0.1,0.3-0.1,0.7-0.1,1.1c0,0.3,0.1,0.6,0.2,0.8c0.1,0.2,0.3,0.3,0.5,0.4s0.4,0.1,0.7,0.1c0.1,0,0.2,0,0.4,0s0.3-0.1,0.4-0.1
				s0.2-0.1,0.3-0.1l0.2,0.5c-0.1,0.1-0.2,0.2-0.4,0.2c-0.2,0.1-0.4,0.1-0.6,0.1C60.9,401.2,60.7,401.2,60.5,401.2z"/>
			<path class="st1" d="M63,400.9l0.1-0.7c0,0,0.1,0.1,0.2,0.1s0.3,0.1,0.5,0.1s0.4,0.1,0.5,0.1c0.3,0,0.5,0,0.6-0.1
				s0.2-0.2,0.2-0.4c0-0.1,0-0.2-0.1-0.3s-0.2-0.2-0.3-0.2c-0.1-0.1-0.3-0.2-0.5-0.2c-0.2-0.1-0.5-0.2-0.6-0.4
				c-0.2-0.1-0.3-0.3-0.4-0.5s-0.2-0.4-0.1-0.6c0-0.3,0.1-0.5,0.2-0.7s0.3-0.3,0.6-0.4c0.2-0.1,0.5-0.1,0.8-0.1s0.5,0,0.7,0.1
				s0.3,0.1,0.4,0.1l-0.1,0.7c0,0-0.1-0.1-0.2-0.1s-0.2-0.1-0.3-0.1c-0.1,0-0.3,0-0.4,0c-0.3,0-0.5,0-0.6,0.1s-0.2,0.2-0.2,0.3
				c0,0.2,0.1,0.3,0.2,0.4s0.3,0.2,0.5,0.3c0.3,0.1,0.5,0.3,0.7,0.4s0.4,0.3,0.5,0.4c0.1,0.2,0.2,0.4,0.2,0.6c0,0.4-0.1,0.7-0.4,0.9
				c-0.3,0.2-0.7,0.3-1.2,0.3c-0.2,0-0.4,0-0.6,0c-0.2,0-0.4-0.1-0.5-0.1S63.1,401,63,400.9z"/>
		</g>
	</g>
	<g>
		<g>
			<path class="st2" d="M32.2,373.3l-3.3-6.9c-0.1-0.1-0.1-0.2-0.1-0.4l-0.1-1l-2.1-29.1l-0.1-1.8h-1.8h-4.8h-1.7l-0.1,1.7
				l-2.3,29.1l-0.1,1.1c0,0.1,0,0.2-0.1,0.4l-3.2,6.9c-0.9,2-1.4,4.2-1.4,6.4v36.8v0.8c0,0.6,0.5,1,1,1h0.8h18.9h0.8
				c0.6,0,1-0.5,1-1v-0.8v-36.8C33.6,377.5,33.1,375.3,32.2,373.3z"/>
		</g>
		<g>
			<ellipse class="st1" cx="22.1" cy="391.7" rx="8.6" ry="11"/>
			<path class="st1" d="M22.1,382c4,0,7.3,4.4,7.3,9.7c0,5.4-3.3,9.7-7.3,9.7s-7.3-4.4-7.3-9.7C14.8,386.4,18.1,382,22.1,382
				 M22.1,379.4c-5.4,0-9.9,5.5-9.9,12.3s4.4,12.3,9.9,12.3c5.4,0,9.9-5.5,9.9-12.3S27.5,379.4,22.1,379.4L22.1,379.4z"/>
		</g>
		<g>
			<g>
				<path class="st12" d="M27.6,385.2c-1.4-2.1-3.3-3.2-5.5-3.2s-4.1,1.2-5.5,3.2h-1.4c1.6-2.8,4.2-4.5,6.9-4.5s5.3,1.7,6.9,4.5
					H27.6z"/>
				<path class="st13" d="M22.1,379.4c-4,0-7.4,2.9-8.9,7.1h4.2c1.1-2,2.8-3.2,4.8-3.2s3.6,1.3,4.8,3.2h4.2
					C29.5,382.3,26,379.4,22.1,379.4L22.1,379.4z"/>
			</g>
			<g>
				<path class="st12" d="M22.1,402.8c-2.7,0-5.2-1.7-6.9-4.4h1.4c1.4,2,3.3,3.1,5.4,3.1s4-1.1,5.4-3.1h1.5
					C27.3,401.1,24.8,402.8,22.1,402.8z"/>
				<path class="st13" d="M31,397h-4.2c-1.1,1.9-2.8,3.1-4.7,3.1c-1.9,0-3.6-1.2-4.7-3.1h-4.2c1.6,4.1,5,7,8.9,7S29.4,401.2,31,397
					L31,397z"/>
			</g>
		</g>
		<g>
			<path class="st13" d="M25.1,335.7v0.4l2.1,29.1l0.1,1c0,0.3,0.1,0.6,0.2,0.9l3.3,6.9c0.8,1.8,1.3,3.8,1.3,5.8v36.8v0.4h-0.4H12.8
				h-0.4v-0.4v-36.8c0-2,0.4-4,1.3-5.8l3.2-6.9c0.1-0.3,0.2-0.6,0.2-0.9l0.1-1.1l2.3-29.1v-0.4h0.4h4.8h0.4 M26.5,334.2h-1.8h-4.8
				h-1.7l-0.1,1.7L15.8,365l-0.1,1.1c0,0.1,0,0.2-0.1,0.4l-3.2,6.9c-0.9,2-1.4,4.2-1.4,6.4v36.8v0.8c0,0.6,0.5,1,1,1h0.8h18.9h0.8
				c0.6,0,1-0.5,1-1v-0.8v-36.8c0-2.2-0.5-4.4-1.4-6.4l-3.3-6.9c-0.1-0.1-0.1-0.2-0.1-0.4l-0.1-1L26.5,336V334.2L26.5,334.2z"/>
		</g>
		<g>
			<path class="st12" d="M17.8,342.3c0,0-0.1-0.2,0-0.4l0.9-4.8H26l0.9,4.7c0.1,0.3,0,0.4,0,0.5L17.8,342.3L17.8,342.3z"/>
			<path class="st13" d="M25.4,337.8l0.7,3.7h-7.6l0.7-3.7H25.4 M26.7,336.3h-8.6l-1,5.3c-0.2,0.7,0.2,1.4,0.7,1.4H27
				c0.5,0,0.9-0.7,0.7-1.4L26.7,336.3L26.7,336.3z"/>
		</g>
		<path class="st13" d="M26.7,336.3h-8.9c-0.3,0-0.5-0.2-0.5-0.5v-0.6c0-0.6,0.5-1.1,1.1-1.1h7.7c0.6,0,1.1,0.5,1.1,1.1v0.6
			C27.2,336.1,27,336.3,26.7,336.3z"/>
	</g>
</g>
<g id="Garrafa_vinho">
	<path class="st10" d="M164.3,407.3h-42.4v-16.5h50.2c2.1,0,3.7,1.7,3.7,3.7v1.2C175.8,402.1,170.7,407.3,164.3,407.3z"/>
	<g>
		<path class="st1" d="M129.2,401.7c-0.3,0-0.5,0-0.8-0.1s-0.5-0.1-0.7-0.3c-0.2-0.1-0.4-0.3-0.5-0.5s-0.2-0.4-0.2-0.7
			c0-0.2,0-0.4,0.1-0.6s0.2-0.4,0.5-0.6c0.2-0.2,0.5-0.4,0.8-0.5l0.5,0.4c-0.2,0.1-0.4,0.2-0.5,0.3c-0.2,0.1-0.3,0.3-0.4,0.4
			c-0.1,0.2-0.1,0.3-0.1,0.5s0,0.4,0.1,0.5s0.2,0.3,0.4,0.3c0.2,0.1,0.4,0.1,0.7,0.1c0.2,0,0.3,0,0.5-0.1s0.3-0.2,0.4-0.3
			s0.2-0.3,0.2-0.5s-0.1-0.3-0.2-0.5c-0.1-0.1-0.2-0.3-0.4-0.4s-0.4-0.2-0.6-0.3s-0.4-0.2-0.6-0.3s-0.4-0.2-0.6-0.4
			c-0.2-0.1-0.3-0.3-0.4-0.5c-0.1-0.2-0.2-0.4-0.2-0.7c0-0.3,0.1-0.6,0.2-0.8c0.2-0.2,0.4-0.4,0.7-0.5s0.6-0.2,0.9-0.2
			c0.3,0,0.7,0.1,0.9,0.2c0.3,0.1,0.5,0.3,0.6,0.5s0.2,0.4,0.2,0.7c0,0.2,0,0.4-0.1,0.6s-0.2,0.4-0.4,0.6s-0.4,0.3-0.7,0.5l-0.5-0.4
			c0.3-0.1,0.5-0.3,0.7-0.5c0.1-0.2,0.2-0.5,0.2-0.7s-0.1-0.4-0.2-0.6s-0.4-0.2-0.7-0.2s-0.5,0.1-0.7,0.2s-0.3,0.3-0.3,0.6
			c0,0.2,0.1,0.4,0.2,0.5c0.1,0.2,0.2,0.3,0.4,0.4s0.4,0.2,0.6,0.4c0.2,0.1,0.4,0.2,0.6,0.3c0.2,0.1,0.4,0.2,0.6,0.4
			c0.2,0.1,0.3,0.3,0.4,0.5c0.1,0.2,0.2,0.4,0.2,0.6c0,0.4-0.1,0.7-0.3,0.9c-0.2,0.2-0.4,0.4-0.7,0.5
			C129.9,401.6,129.5,401.7,129.2,401.7z"/>
		<path class="st1" d="M135.3,401.7c-0.3,0-0.6-0.1-0.9-0.2c-0.3-0.2-0.5-0.4-0.6-0.7c-0.2-0.3-0.2-0.7-0.2-1.2s0.1-0.9,0.3-1.3
			s0.4-0.7,0.8-0.9c0.3-0.2,0.7-0.3,1.2-0.3c0.3,0,0.5,0,0.7,0.1s0.3,0.1,0.4,0.2l-0.3,0.6c-0.1-0.1-0.2-0.1-0.3-0.1s-0.3,0-0.5,0
			s-0.4,0.1-0.6,0.2c-0.2,0.1-0.3,0.3-0.4,0.6s-0.2,0.6-0.2,0.9c0,0.5,0.1,0.9,0.3,1.1s0.5,0.4,0.8,0.4c0.2,0,0.4,0,0.6-0.1
			c0.2-0.1,0.3-0.2,0.4-0.2l0.2,0.5c-0.1,0.1-0.1,0.1-0.3,0.2c-0.1,0.1-0.2,0.2-0.4,0.3S135.6,401.7,135.3,401.7z M136.5,401.6V401
			l0,0v-3.2l0,0v-0.9v-1.8h0.9v6.5H136.5z"/>
		<path class="st1" d="M140.4,401.7c-0.4,0-0.7-0.1-0.9-0.2c-0.3-0.1-0.5-0.3-0.6-0.5c-0.2-0.2-0.3-0.5-0.3-0.8
			c-0.1-0.3-0.1-0.6-0.1-0.9c0-0.5,0.1-0.9,0.3-1.2c0.2-0.3,0.4-0.6,0.7-0.7c0.3-0.2,0.7-0.2,1-0.2c0.5,0,0.9,0.1,1.2,0.3
			c0.3,0.2,0.5,0.5,0.6,0.9s0.2,0.8,0.2,1.2c0,0.5-0.1,0.9-0.3,1.2c-0.2,0.3-0.4,0.6-0.7,0.7C141.2,401.6,140.8,401.7,140.4,401.7z
			 M140.4,401c0.4,0,0.6-0.1,0.8-0.4s0.3-0.7,0.3-1.2c0-0.3,0-0.6-0.1-0.8c-0.1-0.3-0.2-0.5-0.3-0.6c-0.2-0.2-0.4-0.2-0.6-0.2
			c-0.4,0-0.6,0.1-0.8,0.4s-0.3,0.7-0.3,1.2c0,0.3,0,0.6,0.1,0.9s0.2,0.5,0.3,0.6C140,400.9,140.2,401,140.4,401z"/>
		<path class="st1" d="M143.3,401.3l0.1-0.7c0,0,0.1,0.1,0.2,0.1s0.3,0.1,0.5,0.1s0.4,0.1,0.5,0.1c0.3,0,0.5,0,0.6-0.1
			s0.2-0.2,0.2-0.4c0-0.1,0-0.2-0.1-0.3s-0.2-0.2-0.3-0.2c-0.1-0.1-0.3-0.2-0.5-0.2c-0.2-0.1-0.5-0.2-0.6-0.4
			c-0.2-0.1-0.3-0.3-0.4-0.5s-0.2-0.4-0.1-0.6c0-0.3,0.1-0.5,0.2-0.7c0.1-0.2,0.3-0.3,0.6-0.4c0.2-0.1,0.5-0.1,0.8-0.1
			s0.5,0,0.7,0.1s0.3,0.1,0.4,0.1l-0.1,0.7c0,0-0.1-0.1-0.2-0.1c-0.1,0-0.2-0.1-0.3-0.1s-0.3,0-0.4,0c-0.3,0-0.5,0-0.6,0.1
			s-0.2,0.2-0.2,0.3c0,0.2,0.1,0.3,0.2,0.4c0.1,0.1,0.3,0.2,0.5,0.3c0.3,0.1,0.5,0.3,0.7,0.4s0.4,0.3,0.5,0.4
			c0.1,0.2,0.2,0.4,0.2,0.6c0,0.4-0.1,0.7-0.4,0.9c-0.3,0.2-0.7,0.3-1.2,0.3c-0.2,0-0.4,0-0.6,0c-0.2,0-0.4-0.1-0.5-0.1
			C143.4,401.5,143.3,401.4,143.3,401.3z"/>
		<path class="st1" d="M149.1,401.7c-0.6,0-1.1-0.2-1.5-0.6s-0.5-1-0.5-1.7c0-0.4,0.1-0.8,0.2-1.2s0.4-0.6,0.7-0.8
			c0.3-0.2,0.7-0.3,1.1-0.3c0.2,0,0.4,0,0.6,0.1s0.4,0.2,0.5,0.3c0.2,0.1,0.3,0.3,0.4,0.5c0.1,0.2,0.1,0.5,0.1,0.7s0,0.3,0,0.5
			c0,0.1,0,0.2,0,0.4h-3.1l0.1-0.6h2.2c0-0.2,0-0.4,0-0.6s-0.1-0.3-0.2-0.5c-0.1-0.1-0.3-0.2-0.6-0.2c-0.2,0-0.4,0.1-0.6,0.2
			c-0.2,0.1-0.3,0.3-0.4,0.6c-0.1,0.3-0.1,0.7-0.1,1.1c0,0.3,0.1,0.6,0.2,0.8c0.1,0.2,0.3,0.3,0.5,0.4s0.4,0.1,0.7,0.1
			c0.1,0,0.2,0,0.4,0s0.3-0.1,0.4-0.1c0.1,0,0.2-0.1,0.3-0.1l0.2,0.5c-0.1,0.1-0.2,0.2-0.4,0.2c-0.2,0.1-0.4,0.1-0.5,0.1
			C149.5,401.7,149.3,401.7,149.1,401.7z"/>
		<path class="st1" d="M151.6,401.3l0.1-0.7c0,0,0.1,0.1,0.2,0.1s0.3,0.1,0.5,0.1s0.4,0.1,0.5,0.1c0.3,0,0.5,0,0.6-0.1
			s0.2-0.2,0.2-0.4c0-0.1,0-0.2-0.1-0.3s-0.2-0.2-0.3-0.2c-0.1-0.1-0.3-0.2-0.5-0.2c-0.2-0.1-0.5-0.2-0.6-0.4
			c-0.2-0.1-0.3-0.3-0.4-0.5s-0.2-0.4-0.1-0.6c0-0.3,0.1-0.5,0.2-0.7c0.1-0.2,0.3-0.3,0.6-0.4c0.2-0.1,0.5-0.1,0.8-0.1
			s0.5,0,0.7,0.1s0.3,0.1,0.4,0.1l-0.1,0.7c0,0-0.1-0.1-0.2-0.1c-0.1,0-0.2-0.1-0.3-0.1s-0.3,0-0.4,0c-0.3,0-0.5,0-0.6,0.1
			s-0.2,0.2-0.2,0.3c0,0.2,0.1,0.3,0.2,0.4c0.1,0.1,0.3,0.2,0.5,0.3c0.3,0.1,0.5,0.3,0.7,0.4s0.4,0.3,0.5,0.4
			c0.1,0.2,0.2,0.4,0.2,0.6c0,0.4-0.1,0.7-0.4,0.9c-0.3,0.2-0.7,0.3-1.2,0.3c-0.2,0-0.4,0-0.6,0c-0.2,0-0.4-0.1-0.5-0.1
			C151.8,401.5,151.6,401.4,151.6,401.3z"/>
	</g>
	<g>
		<path class="st11" d="M130.7,376c0,1.1-1,1.5-2.1,1.5c-0.9,0-1.7-0.3-1.7-1.1c0-0.5,0.5-0.9,1-1l0.3,0.4c-0.3,0.2-0.4,0.4-0.4,0.6
			c0,0.3,0.3,0.5,0.9,0.5c0.5,0,1-0.3,1-0.7c0-0.3-0.4-0.6-0.8-0.7l-0.9-0.3c-0.3-0.1-0.7-0.3-0.7-0.8l0.4-0.7
			c-0.4-0.3-0.5-0.7-0.5-1.2c0-0.8,0.7-1.6,1.8-1.6c0.3,0,0.6,0,0.8,0.1l1.2-0.1l-0.1,0.7h-0.5l0.4,0.3c0.1,0.2,0.1,0.4,0.1,0.7
			c0,1-0.8,1.5-2,1.5c-0.2,0-0.4,0-0.6-0.1v0.1c0,0.1,0.1,0.2,0.3,0.2l0.8,0.3C130,374.9,130.7,375.3,130.7,376z M128,372.6
			c0,0.7,0.3,1,0.8,1s0.8-0.3,0.8-1c0-0.8-0.4-1-0.8-1S128,371.9,128,372.6z"/>
		<path class="st11" d="M133,371c1.2,0,1.9,0.6,1.9,1.7v1.9l0.5,0.2l-0.1,0.5h-1.1l-0.3-0.2c-0.3,0.2-0.6,0.3-1.2,0.3
			c-0.8,0-1.5-0.4-1.5-1.3c0-1.2,1.4-1.5,2.6-1.5v-0.3c0-0.5-0.4-0.8-0.8-0.8c-0.2,0-0.5,0.1-0.7,0.1l-0.2,0.7l-0.6-0.1v-0.9
			C132,371.1,132.6,371,133,371z M132.4,374.1c0,0.5,0.4,0.7,0.6,0.7c0.2,0,0.6-0.1,0.7-0.4v-1.2
			C132.9,373.2,132.4,373.6,132.4,374.1z"/>
		<path class="st11" d="M138.7,371.7c-0.1,0-0.2,0-0.4,0s-0.5,0.1-0.8,0.2v2.7l0.7,0.2l-0.1,0.5h-2.2l-0.1-0.5l0.6-0.2v-2.9H136
			l-0.1-0.6l1.2-0.1l0.4,0.2c0.3-0.1,0.7-0.2,1.2-0.2c0.3,0,0.6,0.1,0.9,0.2v1l-0.6,0.1L138.7,371.7z"/>
		<path class="st11" d="M142.8,371.7c-0.1,0-0.2,0-0.4,0s-0.5,0.1-0.8,0.2v2.7l0.7,0.2l-0.1,0.5H140l-0.1-0.5l0.6-0.2v-2.9h-0.4
			l-0.2-0.6l1.2-0.1l0.4,0.2c0.3-0.1,0.7-0.2,1.2-0.2c0.3,0,0.6,0.1,0.9,0.2v1l-0.6,0.1L142.8,371.7z"/>
		<path class="st11" d="M145.8,371c1.2,0,1.9,0.6,1.9,1.7v1.9l0.5,0.2l-0.1,0.5h-1.2l-0.3-0.2c-0.3,0.2-0.6,0.3-1.2,0.3
			c-0.8,0-1.5-0.4-1.5-1.3c0-1.2,1.4-1.5,2.6-1.5v-0.3c0-0.5-0.4-0.8-0.8-0.8c-0.2,0-0.5,0.1-0.7,0.1l-0.2,0.7l-0.6-0.1v-0.9
			C144.8,371.1,145.3,371,145.8,371z M145.2,374.1c0,0.5,0.4,0.7,0.6,0.7c0.2,0,0.6-0.1,0.7-0.4v-1.2
			C145.7,373.2,145.2,373.6,145.2,374.1z"/>
		<path class="st11" d="M152.3,369v0.8l-0.6,0.1l-0.2-0.7c-0.1,0-0.3-0.1-0.4-0.1c-0.4,0-0.8,0.2-0.8,1v0.9h1l-0.1,0.5h-0.9v2.9
			l0.8,0.2l-0.1,0.5h-2.3l-0.1-0.5l0.6-0.2v-2.9h-0.6l-0.1-0.5l0.7-0.2v-0.6c0-1,0.7-1.8,1.9-1.8C151.5,368.6,151.9,368.7,152.3,369
			z"/>
		<path class="st11" d="M154.1,371c1.2,0,1.9,0.6,1.9,1.7v1.9l0.5,0.2l-0.1,0.5h-1.1l-0.4-0.2c-0.3,0.2-0.6,0.3-1.2,0.3
			c-0.8,0-1.5-0.4-1.5-1.3c0-1.2,1.4-1.5,2.6-1.5v-0.3c0-0.5-0.4-0.8-0.8-0.8c-0.2,0-0.5,0.1-0.7,0.1l-0.2,0.7l-0.6-0.1v-0.9
			C153.1,371.1,153.6,371,154.1,371z M153.5,374.1c0,0.5,0.4,0.7,0.6,0.7c0.2,0,0.6-0.1,0.7-0.4v-1.2
			C153.9,373.2,153.5,373.6,153.5,374.1z"/>
		<path class="st11" d="M161.3,375.4c-1.4,0-2.2-0.8-2.2-2.2c0-1.3,0.9-2.2,2.3-2.2c0.2,0,0.5,0,0.8,0.1v-1.9h-0.5l-0.1-0.5l1.2-0.1
			l0.5,0.1v5.8l0.6,0.2l-0.1,0.5h-1.2l-0.3-0.2C162.1,375.3,161.7,375.4,161.3,375.4z M161.4,371.7c-0.7,0-1.1,0.6-1.1,1.5
			s0.5,1.6,1.1,1.6c0.3,0,0.6-0.1,0.8-0.3v-2.6C162,371.7,161.6,371.7,161.4,371.7z"/>
		<path class="st11" d="M168.2,374.4l0.3,0.5c-0.6,0.5-1.1,0.6-1.7,0.6c-1.7,0-2.5-0.9-2.5-2.2c0-1.4,1-2.2,2.3-2.2
			c1.1,0,2,0.6,2,1.5c0,0.2-0.1,0.6-0.2,0.8h-2.8c0,0.9,0.5,1.5,1.3,1.5C167.2,374.8,167.7,374.7,168.2,374.4z M167.4,372.4
			c0-0.5-0.4-0.8-0.8-0.8c-0.6,0-1,0.4-1,1.1h1.8C167.4,372.6,167.4,372.5,167.4,372.4z"/>
		<path class="st11" d="M128.9,386.2l-1.5-3.6l-0.6-0.2l0.1-0.5h2.1l0.1,0.5l-0.5,0.2l0.8,1.7v0.8l1.1-2.6l-0.5-0.2l0.1-0.5h1.6
			l0.1,0.5l-0.6,0.2l-1.4,3.5L128.9,386.2z"/>
		<path class="st11" d="M134.4,386.1h-2.1l-0.1-0.5l0.6-0.2v-2.9h-0.4l-0.1-0.5l1.1-0.1l0.5,0.1v3.5l0.6,0.2L134.4,386.1z
			 M133.9,380.4c0,0.3-0.3,0.6-0.6,0.6s-0.6-0.3-0.6-0.6c0-0.3,0.3-0.6,0.6-0.6C133.6,379.8,133.9,380.1,133.9,380.4z"/>
		<path class="st11" d="M136.9,382.6v2.7l0.6,0.2l-0.1,0.5h-2.1l-0.1-0.5l0.6-0.2v-2.9h-0.4l-0.1-0.5l1.2-0.1l0.4,0.2
			c0.3-0.1,0.7-0.2,1.1-0.2c1,0,1.7,0.5,1.7,1.5v2l0.6,0.2l-0.1,0.5h-2.1l-0.1-0.5l0.6-0.2v-2.2c0-0.5-0.4-0.7-0.8-0.7
			C137.4,382.5,137.1,382.6,136.9,382.6z"/>
		<path class="st11" d="M142.8,386.1h-2l-0.1-0.5l0.6-0.2v-5.3h-0.5l-0.1-0.5l1.2-0.1l0.5,0.1v2.5c0.3-0.1,0.7-0.2,1-0.2
			c1,0,1.7,0.5,1.7,1.4v2.1l0.6,0.2l-0.1,0.5h-2.1l-0.1-0.5l0.6-0.2v-2.3c0-0.5-0.3-0.6-0.6-0.6s-0.7,0.1-1,0.2v2.7l0.6,0.2
			L142.8,386.1z"/>
		<path class="st11" d="M150.7,384c0,1.4-0.8,2.2-2.2,2.2s-2.2-0.9-2.2-2.2c0-1.3,0.9-2.2,2.2-2.2
			C149.9,381.8,150.7,382.6,150.7,384z M147.4,384c0,1,0.4,1.7,1.1,1.7c0.7,0,1.1-0.7,1.1-1.7s-0.4-1.6-1.1-1.6S147.4,383,147.4,384
			z"/>
	</g>
	<g>
		<g>
			<path class="st13" d="M117.4,358.6c-1-0.6-1.5-1.6-1.5-2.7v-20.7c0-0.6-0.5-1-1.1-1h-9.1c-0.6,0-1.1,0.5-1.1,1v20.7
				c0,1.1-0.6,2.1-1.5,2.7c-2.7,1.7-4.5,4.5-4.5,7.8v51c0,0.6,0.5,1,1.1,1h21.1c0.6,0,1.1-0.5,1.1-1v-51
				C121.9,363.2,120.1,360.3,117.4,358.6z"/>
		</g>
		<rect x="105.5" y="335.1" class="st10" width="9.1" height="19.4"/>
		<g>
			<path class="st13" d="M114.4,335.7V356c0,1.6,0.8,3.1,2.2,3.9c2.4,1.5,3.8,3.9,3.8,6.5v50.5H100v-50.5c0-2.6,1.4-5.1,3.8-6.5
				c1.4-0.9,2.2-2.3,2.2-3.9v-20.3H114.4 M114.8,334.2h-9.1c-0.6,0-1.1,0.5-1.1,1v20.7c0,1.1-0.6,2.1-1.5,2.7
				c-2.7,1.7-4.5,4.5-4.5,7.8v51c0,0.6,0.5,1,1.1,1h21.1c0.6,0,1.1-0.5,1.1-1v-51c0-3.3-1.8-6.1-4.5-7.8c-1-0.6-1.5-1.6-1.5-2.7
				v-20.7C115.9,334.7,115.4,334.2,114.8,334.2L114.8,334.2z"/>
		</g>
		<path class="st14" d="M118.6,394.6h-16.7c-0.8,0-1.4-0.6-1.4-1.4v-22.7c0-0.8,0.6-1.4,1.4-1.4h16.7c0.8,0,1.4,0.6,1.4,1.4v22.7
			C120,394,119.4,394.6,118.6,394.6z"/>
		<line class="st15" x1="104.9" y1="354.5" x2="114.6" y2="354.5"/>
		<line class="st16" x1="103.3" y1="390.4" x2="103.3" y2="407.7"/>
		<rect x="104.7" y="338.1" class="st10" width="10.7" height="3.3"/>
		<path class="st13" d="M115,336.6h-9.5c-0.9,0-1.6,0.7-1.6,1.6v3.1c0,0.9,0.7,1.6,1.6,1.6h0.7c0.4,0,0.7-0.3,0.7-0.7l0,0
			c0-0.4-0.3-0.7-0.7-0.7h-0.7c-0.1,0-0.1-0.1-0.1-0.1v-3.1c0-0.1,0.1-0.1,0.1-0.1h9.5c0.1,0,0.1,0.1,0.1,0.1v3.1
			c0,0.1-0.1,0.1-0.1,0.1h-4.4c-0.4,0-0.7,0.3-0.7,0.7l0,0c0,0.4,0.3,0.7,0.7,0.7h4.4c0.9,0,1.6-0.7,1.6-1.6v-3.1
			C116.6,337.3,115.9,336.6,115,336.6z"/>
		<g>
			<g>
				<path class="st1" d="M103.3,413.9c1.8,0,1.8-2.9,0-2.9C101.5,411.1,101.5,413.9,103.3,413.9L103.3,413.9z"/>
			</g>
		</g>
	</g>
</g>
<g id="Garrafa_destilado">
	<path class="st10" d="M252.8,407.3l-44.7,0.4l0.4-16l52.1-0.9c2.1,0,3.7,1.7,3.7,3.7v1.2C264.4,402.1,259.2,407.3,252.8,407.3z"/>
	<g>
		<path class="st11" d="M219.5,376.3c0,1.1-1,1.5-2.1,1.5c-0.9,0-1.7-0.3-1.7-1.1c0-0.5,0.5-0.9,1-1l0.3,0.4
			c-0.3,0.2-0.4,0.4-0.4,0.6c0,0.3,0.3,0.5,0.9,0.5c0.5,0,1-0.3,1-0.7c0-0.3-0.4-0.6-0.8-0.7l-0.9-0.3c-0.3-0.1-0.7-0.3-0.7-0.8
			l0.4-0.7c-0.4-0.3-0.5-0.7-0.5-1.2c0-0.8,0.7-1.6,1.8-1.6c0.3,0,0.6,0,0.8,0.1l1.2-0.1l-0.1,0.7h-0.5l0.4,0.3
			c0.1,0.2,0.1,0.4,0.1,0.7c0,1-0.8,1.5-2,1.5c-0.2,0-0.4,0-0.6-0.1v0.1c0,0.1,0.1,0.2,0.3,0.2l0.8,0.3
			C218.9,375.2,219.5,375.6,219.5,376.3z M216.9,372.8c0,0.7,0.3,1,0.8,1s0.8-0.3,0.8-1c0-0.8-0.4-1-0.8-1
			C217.2,371.9,216.9,372.2,216.9,372.8z"/>
		<path class="st11" d="M221.9,371.3c1.2,0,1.9,0.6,1.9,1.7v1.9l0.5,0.2l-0.1,0.5h-1.1l-0.3-0.2c-0.3,0.2-0.6,0.3-1.2,0.3
			c-0.8,0-1.5-0.4-1.5-1.3c0-1.2,1.4-1.5,2.6-1.5v-0.3c0-0.5-0.4-0.8-0.8-0.8c-0.2,0-0.5,0.1-0.7,0.1l-0.2,0.7l-0.6-0.1v-0.9
			C220.9,371.4,221.4,371.3,221.9,371.3z M221.3,374.4c0,0.5,0.4,0.7,0.6,0.7c0.2,0,0.6-0.1,0.7-0.4v-1.2
			C221.8,373.5,221.3,373.8,221.3,374.4z"/>
		<path class="st11" d="M227.5,372c-0.1,0-0.2,0-0.4,0s-0.5,0.1-0.8,0.2v2.7l0.7,0.2l-0.1,0.5h-2.2l-0.1-0.5l0.6-0.2V372h-0.4
			l-0.1-0.5l1.2-0.1l0.4,0.2c0.3-0.1,0.7-0.2,1.2-0.2c0.3,0,0.6,0.1,0.9,0.2v1l-0.6,0.1L227.5,372z"/>
		<path class="st11" d="M231.6,372c-0.1,0-0.2,0-0.4,0s-0.5,0.1-0.8,0.2v2.7l0.7,0.2l-0.1,0.5h-2.1l-0.1-0.5l0.6-0.2V372h-0.5
			l-0.1-0.5l1.2-0.1l0.4,0.2c0.3-0.1,0.7-0.2,1.2-0.2c0.3,0,0.6,0.1,0.9,0.2v1l-0.6,0.1L231.6,372z"/>
		<path class="st11" d="M234.6,371.3c1.2,0,1.9,0.6,1.9,1.7v1.9l0.5,0.2l-0.1,0.5h-1.1l-0.3-0.2c-0.3,0.2-0.6,0.3-1.2,0.3
			c-0.8,0-1.5-0.4-1.5-1.3c0-1.2,1.4-1.5,2.6-1.5v-0.3c0-0.5-0.4-0.8-0.8-0.8c-0.2,0-0.5,0.1-0.7,0.1l-0.2,0.7l-0.6-0.1v-0.9
			C233.7,371.4,234.2,371.3,234.6,371.3z M234,374.4c0,0.5,0.4,0.7,0.6,0.7c0.2,0,0.6-0.1,0.7-0.4v-1.2
			C234.5,373.5,234,373.8,234,374.4z"/>
		<path class="st11" d="M241.1,369.3v0.8l-0.6,0.1l-0.2-0.7c-0.1,0-0.3-0.1-0.4-0.1c-0.4,0-0.8,0.2-0.8,1v0.9h1l-0.1,0.5h-0.9v2.9
			l0.8,0.2l-0.1,0.5h-2.3l-0.1-0.5l0.6-0.2v-2.9h-0.6l-0.1-0.5l0.7-0.2v-0.6c0-1,0.7-1.8,1.9-1.8C240.4,368.9,240.7,369,241.1,369.3
			z"/>
		<path class="st11" d="M242.9,371.3c1.2,0,1.9,0.6,1.9,1.7v1.9l0.5,0.2l-0.1,0.5h-1.1l-0.3-0.2c-0.3,0.2-0.6,0.3-1.2,0.3
			c-0.8,0-1.5-0.4-1.5-1.3c0-1.2,1.4-1.5,2.6-1.5v-0.3c0-0.5-0.4-0.8-0.8-0.8c-0.2,0-0.5,0.1-0.7,0.1l-0.2,0.7l-0.6-0.1v-0.9
			C241.9,371.4,242.5,371.3,242.9,371.3z M242.3,374.4c0,0.5,0.4,0.7,0.6,0.7c0.2,0,0.6-0.1,0.7-0.4v-1.2
			C242.8,373.5,242.3,373.8,242.3,374.4z"/>
		<path class="st11" d="M250.2,375.7c-1.4,0-2.2-0.8-2.2-2.2c0-1.3,0.9-2.2,2.3-2.2c0.2,0,0.5,0,0.8,0.1v-1.9h-0.5l-0.1-0.5l1.2-0.1
			l0.5,0.1v5.8l0.6,0.2l-0.1,0.5h-1.2l-0.3-0.2C250.9,375.5,250.5,375.7,250.2,375.7z M250.3,371.9c-0.7,0-1.1,0.6-1.1,1.5
			s0.5,1.6,1.1,1.6c0.3,0,0.6-0.1,0.8-0.3v-2.6C250.8,372,250.5,371.9,250.3,371.9z"/>
		<path class="st11" d="M257,374.6l0.3,0.5c-0.6,0.5-1.1,0.6-1.7,0.6c-1.7,0-2.5-0.9-2.5-2.2c0-1.4,1-2.2,2.3-2.2c1.1,0,2,0.6,2,1.5
			c0,0.2-0.1,0.6-0.2,0.8h-2.8c0,0.9,0.5,1.5,1.3,1.5C256.1,375,256.6,374.9,257,374.6z M256.3,372.7c0-0.5-0.4-0.8-0.8-0.8
			c-0.6,0-1,0.4-1,1.1h1.8C256.3,372.9,256.3,372.8,256.3,372.7z"/>
		<path class="st11" d="M218,386.5c-1.4,0-2.2-0.8-2.2-2.2c0-1.3,0.9-2.2,2.3-2.2c0.2,0,0.5,0,0.8,0.1v-1.9h-0.5l-0.1-0.5l1.2-0.1
			l0.5,0.1v5.8l0.6,0.2l-0.1,0.5h-1.2l-0.3-0.2C218.7,386.3,218.3,386.5,218,386.5z M218.1,382.7c-0.7,0-1.1,0.6-1.1,1.5
			s0.5,1.6,1.1,1.6c0.3,0,0.6-0.1,0.8-0.3v-2.6C218.6,382.8,218.3,382.7,218.1,382.7z"/>
		<path class="st11" d="M224.8,385.4l0.3,0.5c-0.6,0.5-1.1,0.6-1.7,0.6c-1.7,0-2.5-0.9-2.5-2.2c0-1.4,1-2.2,2.3-2.2
			c1.1,0,2,0.6,2,1.5c0,0.2-0.1,0.6-0.2,0.8h-2.8c0,0.9,0.5,1.5,1.3,1.5C223.9,385.8,224.4,385.7,224.8,385.4z M224.1,383.5
			c0-0.5-0.4-0.8-0.8-0.8c-0.6,0-1,0.4-1,1.1h1.8C224.1,383.7,224.1,383.6,224.1,383.5z"/>
		<path class="st11" d="M225.9,386.1V385l0.6-0.1l0.3,0.9c0.1,0.1,0.5,0.1,0.6,0.1c0.4,0,0.8-0.2,0.8-0.5s-0.5-0.5-0.9-0.7
			c-0.6-0.3-1.4-0.7-1.4-1.4c0-0.8,0.7-1.2,1.8-1.2c0.5,0,1,0.1,1.4,0.4v0.9l-0.6,0.1l-0.2-0.7c-0.2-0.1-0.5-0.1-0.7-0.1
			c-0.4,0-0.7,0.2-0.7,0.5c0,0.4,0.7,0.6,1.2,0.8c0.6,0.3,1.1,0.6,1.1,1.3c0,0.8-0.7,1.3-1.8,1.3C227,386.5,226.4,386.4,225.9,386.1
			z"/>
		<path class="st11" d="M232.6,382.2l-0.1,0.5h-1.1v2.6c0,0.3,0.2,0.5,0.4,0.5s0.5-0.2,0.8-0.4l0.4,0.5c-0.4,0.4-0.7,0.6-1.3,0.6
			c-0.9,0-1.4-0.5-1.4-1.2v-2.5h-0.5l-0.1-0.5l0.7-0.2l0.4-1l0.7,0.2v1h1.1V382.2z"/>
		<path class="st11" d="M235.5,386.4h-2.1l-0.1-0.5l0.6-0.2v-2.9h-0.4l-0.1-0.5l1.1-0.1l0.5,0.1v3.5l0.6,0.2L235.5,386.4z
			 M235,380.7c0,0.3-0.3,0.6-0.6,0.6s-0.6-0.3-0.6-0.6c0-0.3,0.3-0.6,0.6-0.6S235,380.4,235,380.7z"/>
		<path class="st11" d="M238.6,386.4h-2.2l-0.1-0.5l0.6-0.2v-5.3h-0.5l-0.1-0.5l1.2-0.1l0.5,0.1v5.8l0.6,0.2V386.4z"/>
		<path class="st11" d="M241.2,382.1c1.2,0,1.9,0.6,1.9,1.7v1.9l0.5,0.2l-0.1,0.5h-1.1l-0.3-0.2c-0.3,0.2-0.6,0.3-1.2,0.3
			c-0.8,0-1.5-0.4-1.5-1.3c0-1.2,1.4-1.5,2.6-1.5v-0.3c0-0.5-0.4-0.8-0.8-0.8c-0.2,0-0.5,0.1-0.7,0.1l-0.2,0.7l-0.6-0.1v-0.9
			C240.2,382.2,240.7,382.1,241.2,382.1z M240.6,385.2c0,0.5,0.4,0.7,0.6,0.7c0.2,0,0.6-0.1,0.7-0.4v-1.2
			C241.1,384.3,240.6,384.6,240.6,385.2z"/>
		<path class="st11" d="M246.2,386.5c-1.4,0-2.2-0.8-2.2-2.2c0-1.3,0.9-2.2,2.3-2.2c0.2,0,0.5,0,0.8,0.1v-1.9h-0.5l-0.1-0.5l1.2-0.1
			l0.5,0.1v5.8l0.6,0.2l-0.1,0.5h-1.2l-0.3-0.2C246.9,386.3,246.5,386.5,246.2,386.5z M246.3,382.7c-0.7,0-1.1,0.6-1.1,1.5
			s0.5,1.6,1.1,1.6c0.3,0,0.6-0.1,0.8-0.3v-2.6C246.8,382.8,246.5,382.7,246.3,382.7z"/>
		<path class="st11" d="M253.6,384.3c0,1.4-0.8,2.2-2.2,2.2c-1.4,0-2.2-0.9-2.2-2.2c0-1.3,0.9-2.2,2.2-2.2
			C252.7,382.1,253.6,382.9,253.6,384.3z M250.3,384.3c0,1,0.4,1.7,1.1,1.7s1.1-0.7,1.1-1.7s-0.4-1.6-1.1-1.6
			S250.3,383.3,250.3,384.3z"/>
	</g>
	<g>
		<g>
			<path class="st1" d="M215.7,401.6V401c0.1,0,0.2,0,0.3,0s0.2,0,0.3,0c0.4,0,0.7,0,1-0.1s0.5-0.2,0.7-0.4c0.2-0.2,0.2-0.4,0.2-0.6
				s0-0.4-0.1-0.6s-0.2-0.3-0.4-0.4s-0.5-0.1-0.8-0.1l-0.4,0.1l-0.2-0.6c0.1,0,0.3-0.1,0.4-0.1s0.2-0.1,0.4-0.1
				c0.3-0.1,0.5-0.3,0.6-0.4s0.2-0.4,0.2-0.6c0-0.3-0.1-0.5-0.3-0.6s-0.4-0.2-0.6-0.2c-0.3,0-0.5,0-0.7,0.1s-0.4,0.2-0.5,0.3
				l-0.3-0.5c0.1-0.1,0.2-0.2,0.4-0.3c0.2-0.1,0.4-0.2,0.6-0.2c0.2-0.1,0.4-0.1,0.7-0.1s0.6,0.1,0.9,0.2s0.5,0.3,0.6,0.5
				s0.2,0.5,0.2,0.8s-0.1,0.5-0.2,0.7c-0.1,0.2-0.3,0.4-0.5,0.5s-0.4,0.3-0.7,0.3v-0.1c0.4,0,0.7,0.1,0.9,0.2s0.4,0.3,0.6,0.5
				c0.1,0.2,0.2,0.5,0.2,0.7c0,0.3-0.1,0.6-0.3,0.9s-0.5,0.5-0.9,0.7s-0.9,0.3-1.4,0.3c-0.2,0-0.3,0-0.4,0S215.8,401.6,215.7,401.6z
				"/>
			<path class="st1" d="M220.3,401.6l-0.1-0.5c0.2-0.2,0.5-0.4,0.8-0.6s0.5-0.4,0.7-0.7c0.2-0.2,0.4-0.5,0.6-0.8s0.3-0.5,0.4-0.8
				c0.1-0.3,0.2-0.5,0.2-0.8c0-0.4-0.1-0.6-0.3-0.8c-0.2-0.2-0.4-0.3-0.7-0.3s-0.5,0.1-0.8,0.2s-0.4,0.2-0.6,0.4l-0.4-0.6
				c0.1-0.1,0.2-0.2,0.4-0.3c0.2-0.1,0.4-0.2,0.6-0.3c0.2-0.1,0.5-0.1,0.8-0.1c0.4,0,0.8,0.1,1,0.2s0.5,0.4,0.6,0.7
				c0.1,0.3,0.2,0.6,0.2,0.9c0,0.4-0.1,0.8-0.3,1.2s-0.5,0.8-0.8,1.2s-0.7,0.7-1.2,1h2.5v0.8L220.3,401.6L220.3,401.6z"/>
			<path class="st1" d="M228.1,401.7c-0.3,0-0.6-0.1-0.9-0.2c-0.3-0.2-0.5-0.4-0.6-0.7c-0.2-0.3-0.2-0.7-0.2-1.2s0.1-0.9,0.3-1.3
				s0.4-0.7,0.8-0.9c0.3-0.2,0.7-0.3,1.2-0.3c0.3,0,0.5,0,0.7,0.1s0.3,0.1,0.4,0.2l-0.3,0.6c-0.1-0.1-0.2-0.1-0.3-0.1s-0.3,0-0.5,0
				s-0.4,0.1-0.6,0.2c-0.2,0.1-0.3,0.3-0.4,0.6s-0.2,0.6-0.2,0.9c0,0.5,0.1,0.9,0.3,1.1s0.5,0.4,0.8,0.4c0.2,0,0.4,0,0.6-0.1
				c0.2-0.1,0.3-0.2,0.4-0.2l0.2,0.5c-0.1,0.1-0.1,0.1-0.3,0.2c-0.1,0.1-0.2,0.2-0.4,0.3S228.4,401.7,228.1,401.7z M229.4,401.6V401
				l0,0v-3.2l0,0v-0.9v-1.8h0.9v6.5H229.4z"/>
			<path class="st1" d="M233.2,401.7c-0.4,0-0.7-0.1-0.9-0.2c-0.3-0.1-0.5-0.3-0.6-0.5c-0.2-0.2-0.3-0.5-0.3-0.8
				c-0.1-0.3-0.1-0.6-0.1-0.9c0-0.5,0.1-0.9,0.3-1.2c0.2-0.3,0.4-0.6,0.7-0.7c0.3-0.2,0.7-0.2,1-0.2c0.5,0,0.9,0.1,1.2,0.3
				c0.3,0.2,0.5,0.5,0.6,0.9s0.2,0.8,0.2,1.2c0,0.5-0.1,0.9-0.3,1.2c-0.2,0.3-0.4,0.6-0.7,0.7C234,401.6,233.6,401.7,233.2,401.7z
				 M233.3,401c0.4,0,0.6-0.1,0.8-0.4s0.3-0.7,0.3-1.2c0-0.3,0-0.6-0.1-0.8c-0.1-0.3-0.2-0.5-0.3-0.6c-0.2-0.2-0.4-0.2-0.6-0.2
				c-0.4,0-0.6,0.1-0.8,0.4s-0.3,0.7-0.3,1.2c0,0.3,0,0.6,0.1,0.9s0.2,0.5,0.3,0.6C232.8,400.9,233,401,233.3,401z"/>
			<path class="st1" d="M236.1,401.3l0.1-0.7c0,0,0.1,0.1,0.2,0.1s0.3,0.1,0.5,0.1s0.4,0.1,0.5,0.1c0.3,0,0.5,0,0.6-0.1
				s0.2-0.2,0.2-0.4c0-0.1,0-0.2-0.1-0.3s-0.2-0.2-0.3-0.2c-0.1-0.1-0.3-0.2-0.5-0.2c-0.2-0.1-0.5-0.2-0.6-0.4
				c-0.2-0.1-0.3-0.3-0.4-0.5s-0.2-0.4-0.1-0.6c0-0.3,0.1-0.5,0.2-0.7c0.1-0.2,0.3-0.3,0.6-0.4c0.2-0.1,0.5-0.1,0.8-0.1
				s0.5,0,0.7,0.1s0.3,0.1,0.4,0.1l-0.1,0.7c0,0-0.1-0.1-0.2-0.1c-0.1,0-0.2-0.1-0.3-0.1s-0.3,0-0.4,0c-0.3,0-0.5,0-0.6,0.1
				s-0.2,0.2-0.2,0.3c0,0.2,0.1,0.3,0.2,0.4c0.1,0.1,0.3,0.2,0.5,0.3c0.3,0.1,0.5,0.3,0.7,0.4s0.4,0.3,0.5,0.4
				c0.1,0.2,0.2,0.4,0.2,0.6c0,0.4-0.1,0.7-0.4,0.9c-0.3,0.2-0.7,0.3-1.2,0.3c-0.2,0-0.4,0-0.6,0c-0.2,0-0.4-0.1-0.5-0.1
				C236.3,401.5,236.2,401.4,236.1,401.3z"/>
			<path class="st1" d="M241.9,401.7c-0.6,0-1.1-0.2-1.5-0.6s-0.5-1-0.5-1.7c0-0.4,0.1-0.8,0.2-1.2s0.4-0.6,0.7-0.8
				c0.3-0.2,0.7-0.3,1.1-0.3c0.2,0,0.4,0,0.6,0.1s0.4,0.2,0.5,0.3c0.2,0.1,0.3,0.3,0.4,0.5c0.1,0.2,0.1,0.5,0.1,0.7s0,0.3,0,0.5
				c0,0.1,0,0.2,0,0.4h-3.1l0.1-0.6h2.2c0-0.2,0-0.4,0-0.6s-0.1-0.3-0.2-0.5c-0.1-0.1-0.3-0.2-0.6-0.2c-0.2,0-0.4,0.1-0.6,0.2
				c-0.2,0.1-0.3,0.3-0.4,0.6c-0.1,0.3-0.1,0.7-0.1,1.1c0,0.3,0.1,0.6,0.2,0.8c0.1,0.2,0.3,0.3,0.5,0.4s0.4,0.1,0.7,0.1
				c0.1,0,0.2,0,0.4,0s0.3-0.1,0.4-0.1c0.1,0,0.2-0.1,0.3-0.1l0.2,0.5c-0.1,0.1-0.2,0.2-0.4,0.2c-0.2,0.1-0.4,0.1-0.5,0.1
				C242.3,401.7,242.1,401.7,241.9,401.7z"/>
			<path class="st1" d="M244.4,401.3l0.1-0.7c0,0,0.1,0.1,0.2,0.1s0.3,0.1,0.5,0.1s0.4,0.1,0.5,0.1c0.3,0,0.5,0,0.6-0.1
				s0.2-0.2,0.2-0.4c0-0.1,0-0.2-0.1-0.3s-0.2-0.2-0.3-0.2c-0.1-0.1-0.3-0.2-0.5-0.2c-0.2-0.1-0.5-0.2-0.6-0.4
				c-0.2-0.1-0.3-0.3-0.4-0.5s-0.2-0.4-0.1-0.6c0-0.3,0.1-0.5,0.2-0.7c0.1-0.2,0.3-0.3,0.6-0.4c0.2-0.1,0.5-0.1,0.8-0.1
				s0.5,0,0.7,0.1s0.3,0.1,0.4,0.1l-0.1,0.7c0,0-0.1-0.1-0.2-0.1c-0.1,0-0.2-0.1-0.3-0.1s-0.3,0-0.4,0c-0.3,0-0.5,0-0.6,0.1
				s-0.2,0.2-0.2,0.3c0,0.2,0.1,0.3,0.2,0.4c0.1,0.1,0.3,0.2,0.5,0.3c0.3,0.1,0.5,0.3,0.7,0.4s0.4,0.3,0.5,0.4
				c0.1,0.2,0.2,0.4,0.2,0.6c0,0.4-0.1,0.7-0.4,0.9c-0.3,0.2-0.7,0.3-1.2,0.3c-0.2,0-0.4,0-0.6,0c-0.2,0-0.4-0.1-0.5-0.1
				C244.6,401.5,244.5,401.4,244.4,401.3z"/>
		</g>
	</g>
	<g>
		<rect x="196.1" y="338.4" class="st1" width="6.6" height="20.3"/>
		<g>
			<path class="st1" d="M208.5,413.6c-0.3,0-0.5-0.2-0.5-0.4l0.9-46.7c0-1-0.4-2-1.1-2.8l-3.7-3.8v-0.1c0.1-0.1,0.2-0.2,0.2-0.3
				v-0.1c0-0.4-0.3-0.7-0.7-0.7h-0.2l-0.9-1.1h-6.4l-0.9,1.1H195c-0.4,0-0.7,0.3-0.7,0.7v0.1c0,0.1,0.1,0.2,0.2,0.3v0.1l-3.7,3.8
				c-0.7,0.8-1.1,1.8-1.1,2.8l0.9,46.7c0,0.2-0.2,0.4-0.5,0.4c-0.4,0-0.8,0.3-0.8,0.7v3.3c0,0.4,0.3,0.7,0.8,0.7h0.6h17.2h0.6
				c0.4,0,0.8-0.3,0.8-0.7v-3.3C209.3,413.9,209,413.6,208.5,413.6z"/>
		</g>
		<g>
			<path class="st12" d="M196.3,352.7c-0.5,0-1-0.4-1-1v-13.3c0-0.5,0.4-1,1-1h6.2c0.5,0,1,0.4,1,1v13.3c0,0.5-0.4,1-1,1H196.3z"/>
			<path class="st17" d="M202.5,338.2c0.1,0,0.2,0.1,0.2,0.2v13.3c0,0.1-0.1,0.2-0.2,0.2h-6.2c-0.1,0-0.2-0.1-0.2-0.2v-13.3
				c0-0.1,0.1-0.2,0.2-0.2H202.5 M202.5,336.7h-6.2c-0.9,0-1.7,0.8-1.7,1.7v13.3c0,0.9,0.8,1.7,1.7,1.7h6.2c0.9,0,1.7-0.8,1.7-1.7
				v-13.3C204.2,337.4,203.4,336.7,202.5,336.7L202.5,336.7z"/>
		</g>
		<g>
			<path class="st17" d="M202.5,357.6l0.9,1.1h0.2c0.4,0,0.7,0.3,0.7,0.7v0.1c0,0.1-0.1,0.2-0.2,0.3v0.1l3.7,3.8
				c0.7,0.8,1.1,1.8,1.1,2.8l-0.9,46.7c0,0.2,0.2,0.4,0.5,0.4c0.4,0,0.8,0.3,0.8,0.7v3.3c0,0.4-0.3,0.7-0.8,0.7h-0.6h-17.2h-0.6
				c-0.4,0-0.8-0.3-0.8-0.7v-3.3c0-0.4,0.3-0.7,0.8-0.7c0.3,0,0.5-0.2,0.5-0.4l-0.9-46.7c0-1,0.4-2,1.1-2.8l3.7-3.8v-0.1
				c-0.1-0.1-0.2-0.2-0.2-0.3v-0.1c0-0.4,0.3-0.7,0.7-0.7h0.2l0.9-1.1H202.5 M203.3,356.1h-0.7h-6.4h-0.7l-0.5,0.6l-0.5,0.6
				c-0.9,0.2-1.6,1.1-1.6,2.1l-3.2,3.2l0,0l0,0c-1,1.1-1.5,2.5-1.4,3.9l0.9,45.9c-0.7,0.4-1.2,1.1-1.2,2v3.3c0,1.2,1,2.2,2.3,2.2
				h0.6h17.2h0.6c1.2,0,2.3-1,2.3-2.2v-3.3c0-0.8-0.5-1.6-1.2-2l0.9-45.9c0-1.4-0.5-2.8-1.4-3.9l0,0l0,0l-3.2-3.2
				c0-1-0.7-1.8-1.6-2.1l-0.5-0.6L203.3,356.1L203.3,356.1z"/>
		</g>
		<g>
			<path class="st17" d="M202.5,354.3v0.7h-6.4v-0.7H202.5 M204,352.8h-1.5h-6.4h-1.5v1.5v0.7v1.5h1.5h6.4h1.5V355v-0.7V352.8
				L204,352.8z"/>
		</g>
		<path class="st18" d="M196.5,409.7c0-0.5,0.1-1,0.4-1.4l-6.4-0.5l0.1,3.4l6.7,0.5l0,0C196.9,411.2,196.5,410.4,196.5,409.7z"/>
		<path class="st18" d="M202.1,409.6c0-0.5-0.1-1-0.4-1.4l6.4-0.5l-0.1,3.4l-6.7,0.5l0,0C201.8,411.1,202.1,410.4,202.1,409.6z"/>
		<g>
			<path class="st12" d="M207.8,367.8c0-0.7-0.5-1.4-1.3-1.5c-2.2-0.3-4.6-0.5-7.2-0.5c-2.6,0-5,0.2-7.2,0.5
				c-0.7,0.1-1.3,0.7-1.3,1.5v2.7c0,0.9,0.8,1.6,1.7,1.5c2.1-0.3,4.4-0.5,6.8-0.5c2.4,0,4.7,0.2,6.7,0.5c0.9,0.1,1.7-0.6,1.7-1.5
				v-2.7H207.8z"/>
		</g>
		<g>
			<line class="st19" x1="195.3" y1="341.4" x2="203.7" y2="341.4"/>
		</g>
		<path class="st12" d="M203.5,384.5l-3.7,1.6c-0.4,0.1-0.8,0.1-1.1,0l-3.5-1.5c-0.5-0.2-0.8-0.7-0.8-1.3v-7.7
			c0-0.8,0.6-1.4,1.4-1.4h7.2c0.8,0,1.4,0.6,1.4,1.4v7.7C204.4,383.8,204,384.3,203.5,384.5z"/>
		<g>
			<circle class="st12" cx="199.4" cy="409.7" r="2.8"/>
		</g>
	</g>
</g>
<g id="Long_neck_cerveja">
	<g>
		<circle class="st20" cx="139.6" cy="130.6" r="2"/>
		<line class="st21" x1="139.6" y1="160.8" x2="139.6" y2="133"/>
	</g>
	<g>
		<g>
			<circle class="st1" cx="138.7" cy="68.7" r="29.7"/>
			<g>
				<path class="st1" d="M129.8,101.7L129.8,101.7v-2.5V70.8c0-1.5,0.3-3.1,0.8-4.5c0.2-0.6,0.5-1.3,0.9-1.9l2.1-3.4
					c0.1-0.2,0.2-0.5,0.2-0.7l1.5-24.7h6.2l1.5,24.8c0,0.3,0.1,0.5,0.2,0.7l2.1,3.2c0.5,0.7,0.8,1.4,1,2.2c0.4,1.4,0.7,2.8,0.7,4.3
					v30.9l-0.1,0.1L129.8,101.7L129.8,101.7z"/>
				<path class="st17" d="M140.7,36.3l1.5,24.1c0,0.4,0.1,0.8,0.4,1.1l2.1,3.2c0.4,0.6,0.7,1.3,1,2c0.4,1.3,0.6,2.7,0.6,4v27.4v1
					v1.7h-15.8v-1.7v-1V70.8c0-1.5,0.2-2.9,0.7-4.3c0.2-0.6,0.5-1.2,0.9-1.8l2.1-3.4c0.2-0.3,0.3-0.7,0.4-1.1l1.5-24h4.6
					 M142.2,34.8h-7.6L133,60.2c0,0.1-0.1,0.3-0.1,0.4l-2.1,3.4c-0.4,0.7-0.8,1.3-1,2.1c-0.5,1.5-0.8,3.1-0.8,4.8v27.4v1v2.4
					c0,0.4,0.2,0.7,0.6,0.8l0,0h0.2h17.1c0.4,0,0.8-0.4,0.8-0.8v-2.4v-1V70.8c0-1.5-0.2-3.1-0.7-4.5c-0.3-0.8-0.7-1.6-1.1-2.4
					l-2.1-3.2c-0.1-0.1-0.1-0.2-0.1-0.4L142.2,34.8L142.2,34.8z"/>
			</g>
			<g>
				<path class="st17" d="M142.9,37.6h-9.2c-0.2,0-0.3-0.2-0.3-0.3v-1.2c0-0.7,0.6-1.2,1.2-1.2h7.4c0.7,0,1.2,0.6,1.2,1.2v1.2
					C143.3,37.5,143.1,37.6,142.9,37.6z"/>
			</g>
			<path class="st22" d="M143.6,66.4l-2.7-4.8c-0.1-0.1-0.1-0.3-0.1-0.4l-0.9-12.7h-3.3l-0.7,12.9c0,0.1-0.1,0.3-0.1,0.4l-2.6,4.6
				c-0.4,0.6-0.6,1.3-0.8,2c-0.3,1.3-0.5,2.6-0.5,3.9v23.3v0.9v2.1c0,0.3,0.2,0.6,0.4,0.7l0,0h0.2h12c0.3,0,0.6-0.3,0.6-0.7v-2.1
				v-0.9V72.3c0-1.4-0.2-2.7-0.5-4C144.2,67.6,143.9,67,143.6,66.4z"/>
			<g>
				<rect x="129.7" y="70.7" class="st10" width="17.3" height="23.9"/>
				<path class="st17" d="M146.2,71.5v22.4h-15.8V71.5H146.2 M147.7,70h-18.8v25.4h18.8V70L147.7,70z"/>
			</g>
			<g>
				<path class="st1" d="M138.4,88.7c-2.6,0-4.7-2.8-4.7-6.2c0-3.4,2.1-6.2,4.7-6.2c2.6,0,4.7,2.8,4.7,6.2
					C143.1,86,141,88.7,138.4,88.7z"/>
				<path class="st17" d="M138.4,77.9c1.7,0,3.2,2.1,3.2,4.6s-1.5,4.6-3.2,4.6s-3.2-2.1-3.2-4.6S136.7,77.9,138.4,77.9 M138.4,74.9
					c-3.4,0-6.2,3.4-6.2,7.7s2.8,7.7,6.2,7.7s6.2-3.4,6.2-7.7S141.9,74.9,138.4,74.9L138.4,74.9z"/>
			</g>
			<path class="st10" d="M142.5,84.3h-8.2c-0.4,0-0.8-0.4-0.8-0.8v-1.8c0-0.4,0.4-0.8,0.8-0.8h8.2c0.4,0,0.8,0.4,0.8,0.8v1.8
				C143.3,83.9,142.9,84.3,142.5,84.3z"/>
		</g>
	</g>
	<g>
		<path class="st11" d="M114.4,114.2h-2.2l-0.1-0.5l0.6-0.2v-5.4h-0.5l-0.1-0.5l1.2-0.1l0.5,0.1v5.8l0.6,0.2V114.2z"/>
		<path class="st11" d="M119.7,112.1c0,1.4-0.8,2.2-2.2,2.2c-1.4,0-2.3-0.9-2.3-2.2c0-1.3,0.9-2.2,2.3-2.2
			C118.8,109.9,119.7,110.7,119.7,112.1z M116.4,112.1c0,1,0.4,1.7,1.1,1.7s1.1-0.7,1.1-1.7s-0.4-1.6-1.1-1.6
			S116.4,111.1,116.4,112.1z"/>
		<path class="st11" d="M122.1,110.7v2.7l0.6,0.2l-0.1,0.5h-2.1l-0.1-0.5l0.6-0.2v-2.9h-0.4l-0.1-0.5l1.2-0.1l0.4,0.2
			c0.3-0.1,0.7-0.2,1.1-0.2c1,0,1.7,0.5,1.7,1.5v2l0.6,0.2l-0.1,0.5h-2.1l-0.1-0.5l0.6-0.2v-2.2c0-0.5-0.4-0.7-0.8-0.7
			C122.6,110.5,122.3,110.6,122.1,110.7z"/>
		<path class="st11" d="M129.8,114.9c0,1.1-1,1.5-2.1,1.5c-0.9,0-1.7-0.3-1.7-1.1c0-0.5,0.5-0.9,1-1l0.3,0.4
			c-0.3,0.2-0.4,0.4-0.4,0.6c0,0.3,0.3,0.5,0.9,0.5c0.5,0,1-0.3,1-0.7c0-0.3-0.4-0.6-0.8-0.7l-1.1-0.3c-0.3-0.1-0.7-0.3-0.7-0.8
			l0.4-0.7c-0.4-0.3-0.5-0.7-0.5-1.2c0-0.8,0.7-1.6,1.8-1.6c0.3,0,0.6,0,0.8,0.1l1.2-0.1l-0.1,0.7h-0.5l0.4,0.3
			c0.1,0.2,0.1,0.4,0.1,0.7c0,1-0.8,1.5-2,1.5c-0.2,0-0.4,0-0.6-0.1v0.1c0,0.1,0.1,0.2,0.3,0.2l0.8,0.3
			C129.1,113.8,129.8,114.2,129.8,114.9z M127.1,111.4c0,0.7,0.3,1,0.8,1s0.8-0.3,0.8-1c0-0.8-0.4-1-0.8-1
			C127.5,110.5,127.1,110.8,127.1,111.4z"/>
		<path class="st11" d="M134.3,110.7v2.7l0.6,0.2l-0.1,0.5h-2.1l-0.1-0.5l0.6-0.2v-2.9h-0.4l-0.1-0.5l1.2-0.1l0.4,0.2
			c0.3-0.1,0.7-0.2,1.1-0.2c1,0,1.7,0.5,1.7,1.5v2l0.6,0.2l-0.1,0.5h-2.1l-0.1-0.5l0.6-0.2v-2.2c0-0.5-0.4-0.7-0.8-0.7
			C134.8,110.5,134.5,110.6,134.3,110.7z"/>
		<path class="st11" d="M142.1,113.2l0.3,0.5c-0.6,0.5-1.1,0.6-1.7,0.6c-1.7,0-2.5-0.9-2.5-2.2c0-1.4,1-2.2,2.3-2.2
			c1.1,0,2,0.6,2,1.5c0,0.2-0.1,0.6-0.2,0.8h-2.8c0,0.9,0.5,1.5,1.3,1.5C141.2,113.6,141.7,113.5,142.1,113.2z M141.4,111.3
			c0-0.5-0.4-0.8-0.8-0.8c-0.6,0-1,0.4-1,1.1h1.8C141.4,111.5,141.4,111.4,141.4,111.3z"/>
		<path class="st11" d="M144.4,111.9c0,0.9,0.3,1.7,1.2,1.7c0.4,0,0.9-0.1,1.3-0.4l0.3,0.5c-0.4,0.4-1.1,0.6-1.6,0.6
			c-1.6,0-2.4-0.9-2.4-2.2c0-1.4,1-2.2,2.4-2.2c0.4,0,1,0.1,1.5,0.4v0.9l-0.6,0.1l-0.2-0.7c-0.2-0.1-0.5-0.1-0.7-0.1
			C144.9,110.5,144.4,111,144.4,111.9z"/>
		<path class="st11" d="M150,114.2h-2.1l-0.1-0.5l0.6-0.2v-5.4H148l-0.1-0.5l1.1-0.1l0.5,0.1v5.8l0.6,0.2L150,114.2z M150.5,110.5
			l0.5,0.2l-1.2,1.1v0.4l1.1,1.5l-0.1,0.5h1.8l0.1-0.5l-0.7-0.2l-1-1.4l-0.5-0.1l1.1-1c0.2-0.2,0.5-0.3,0.9-0.4l-0.1-0.5h-1.8
			L150.5,110.5z"/>
		<path class="st11" d="M157.6,114.3c-1.5,0-2.2-0.8-2.2-2.2c0-1.3,0.9-2.2,2.3-2.2c0.2,0,0.5,0,0.8,0.1v-1.9h-0.6l-0.1-0.5l1.2-0.1
			l0.5,0.1v5.8l0.6,0.2l-0.1,0.5h-1.2l-0.3-0.2C158.3,114.1,157.9,114.3,157.6,114.3z M157.7,110.5c-0.7,0-1.1,0.6-1.1,1.5
			s0.5,1.6,1.1,1.6c0.3,0,0.6-0.1,0.8-0.3v-2.6C158.2,110.6,157.9,110.5,157.7,110.5z"/>
		<path class="st11" d="M164.4,113.2l0.3,0.5c-0.6,0.5-1.1,0.6-1.7,0.6c-1.7,0-2.5-0.9-2.5-2.2c0-1.4,1-2.2,2.3-2.2
			c1.1,0,2,0.6,2,1.5c0,0.2-0.1,0.6-0.2,0.8h-2.8c0,0.9,0.5,1.5,1.3,1.5C163.5,113.6,164,113.5,164.4,113.2z M163.7,111.3
			c0-0.5-0.4-0.8-0.8-0.8c-0.6,0-1,0.4-1,1.1h1.8C163.7,111.5,163.7,111.4,163.7,111.3z"/>
		<path class="st11" d="M124.6,122.7c0,0.9,0.3,1.7,1.2,1.7c0.4,0,0.9-0.1,1.3-0.4l0.3,0.5c-0.4,0.4-1.1,0.6-1.6,0.6
			c-1.6,0-2.4-0.9-2.4-2.2c0-1.4,1-2.2,2.4-2.2c0.4,0,1,0.1,1.5,0.4v0.9l-0.6,0.1l-0.2-0.7c-0.2-0.1-0.5-0.1-0.7-0.1
			C125,121.3,124.6,121.8,124.6,122.7z"/>
		<path class="st11" d="M131.8,124l0.3,0.5c-0.6,0.5-1.1,0.6-1.7,0.6c-1.7,0-2.5-0.9-2.5-2.2c0-1.4,1-2.2,2.3-2.2c1.1,0,2,0.6,2,1.5
			c0,0.2-0.1,0.6-0.2,0.8h-2.8c0,0.9,0.5,1.5,1.3,1.5C130.9,124.4,131.4,124.3,131.8,124z M131.1,122.1c0-0.5-0.4-0.8-0.8-0.8
			c-0.6,0-1,0.4-1,1.1h1.8C131.1,122.3,131.1,122.2,131.1,122.1z"/>
		<path class="st11" d="M135.7,121.4c-0.1,0-0.2,0-0.4,0s-0.5,0.1-0.8,0.2v2.7l0.7,0.2l-0.1,0.5h-2.2l-0.1-0.5l0.6-0.2v-2.9H133
			l-0.1-0.5l1.2-0.1l0.4,0.2c0.3-0.1,0.7-0.2,1.2-0.2c0.3,0,0.6,0.1,0.9,0.2v1l-0.6,0.1L135.7,121.4z"/>
		<path class="st11" d="M138.9,125.1l-1.5-3.6l-0.6-0.2l0.1-0.5h2.1l0.1,0.5l-0.5,0.2l0.8,1.7v0.8l1.1-2.6l-0.5-0.2l0.1-0.5h1.6
			l0.1,0.5l-0.6,0.2l-1.4,3.5L138.9,125.1z"/>
		<path class="st11" d="M146,124l0.3,0.5c-0.6,0.5-1.1,0.6-1.7,0.6c-1.7,0-2.5-0.9-2.5-2.2c0-1.4,1-2.2,2.3-2.2c1.1,0,2,0.6,2,1.5
			c0,0.2-0.1,0.6-0.2,0.8h-2.8c0,0.9,0.5,1.5,1.3,1.5C145,124.4,145.5,124.3,146,124z M145.2,122.1c0-0.5-0.4-0.8-0.8-0.8
			c-0.6,0-1,0.4-1,1.1h1.8C145.2,122.3,145.2,122.2,145.2,122.1z"/>
		<path class="st11" d="M148.7,120.8v3.5c0,1.2-0.3,2.4-2.1,3l-0.3-0.5c1.2-0.8,1.3-1.6,1.3-2.6v-2.8h-0.5l-0.1-0.5l1.2-0.1
			L148.7,120.8z M148.6,119.3c0,0.3-0.3,0.6-0.6,0.6s-0.6-0.3-0.6-0.6c0-0.3,0.3-0.6,0.6-0.6C148.4,118.7,148.6,119,148.6,119.3z"/>
		<path class="st11" d="M151.5,120.7c1.2,0,1.9,0.6,1.9,1.7v1.9l0.5,0.2l-0.1,0.5h-1.1l-0.3-0.2c-0.3,0.2-0.6,0.3-1.2,0.3
			c-0.8,0-1.5-0.4-1.5-1.3c0-1.2,1.4-1.5,2.6-1.5V122c0-0.5-0.4-0.8-0.8-0.8c-0.2,0-0.5,0.1-0.7,0.1l-0.2,0.7l-0.6-0.1v-0.8
			C150.5,120.8,151,120.7,151.5,120.7z M150.9,123.8c0,0.5,0.4,0.7,0.6,0.7c0.2,0,0.6-0.1,0.7-0.4v-1.2
			C151.4,122.9,150.9,123.2,150.9,123.8z"/>
	</g>
</g>
<g id="Latinha_cerveja">
	<g>
		<path class="st19" d="M209.6,115h-23.4c-3.9,0-7.1,3.2-7.1,7.1V146c0,3.9-3.2,7.1-7.1,7.1h-14.2"/>
		<circle class="st20" cx="211.6" cy="115" r="2"/>
	</g>
	<g>
		<circle class="st1" cx="247.1" cy="112.5" r="29.7"/>
		<polygon class="st22" points="257,102.3 238.2,102.3 239.1,97.8 255.9,97.8 		"/>
		<rect x="237.2" y="100.9" class="st10" width="20.3" height="27.4"/>
		<path class="st17" d="M255.6,97.4l-0.2-0.4c-0.2-0.2-0.4-0.4-0.7-0.4h-0.4h-5.9h-1.6h-5.9h-0.4c-0.3,0-0.5,0.1-0.7,0.4l-0.2,0.4
			l-2.2,3.3c-0.5,0.7-0.8,1.6-0.8,2.5v24.3c0,0.7,0.2,1.5,0.6,2.1l1.3,2.2l0.2,0.4c0.1,0.2,0.4,0.4,0.7,0.4h16.5
			c0.3,0,0.6-0.2,0.7-0.4l0.2-0.4l1.5-2.6c0.2-0.4,0.3-0.8,0.3-1.3v-24.8c0-0.9-0.3-1.8-0.8-2.5L255.6,97.4z M257,127.5
			c0,0.4-0.1,0.9-0.3,1.3l-1.3,2.1h-15.7l-1.3-2.1c-0.2-0.4-0.3-0.8-0.3-1.3v-24.6c0-0.4,0.1-0.8,0.3-1.1l2.4-3.6h5.6h0.3h1.6h3.6
			h2.3l2.4,3.6c0.2,0.3,0.3,0.7,0.3,1.1v24.6H257z"/>
		<line class="st19" x1="237.2" y1="128.3" x2="256.9" y2="128.3"/>
		<line class="st23" x1="239.1" y1="97.3" x2="255.9" y2="97.3"/>
		<ellipse class="st24" cx="247.5" cy="114.6" rx="8.4" ry="9.9"/>
		<ellipse class="st25" cx="247.4" cy="114.7" rx="6.1" ry="7.4"/>
		<path class="st10" d="M254.7,116.9h-14.6c-0.5,0-0.8-0.4-0.8-0.8v-2.7c0-0.5,0.4-0.8,0.8-0.8h14.6c0.5,0,0.8,0.4,0.8,0.8v2.7
			C255.6,116.5,255.2,116.9,254.7,116.9z"/>
		<g>
			<path class="st17" d="M252.6,95.6c-0.4,0.4-0.9,0.8-1.6,1.2h-1c0.2-0.1,0.4-0.2,0.6-0.4C251.3,96,252,95.7,252.6,95.6
				 M253.5,93.9c-0.9,0-2.3,0.4-3.6,1.2c-1.7,1-2.9,2.3-3.1,3.2h4.7c0.1,0,0.1-0.1,0.2-0.1c2.2-1.2,3.5-2.9,3-3.8
				C254.4,94.1,254,93.9,253.5,93.9L253.5,93.9z"/>
		</g>
	</g>
	<g>
		<path class="st11" d="M228.3,156.5h-2.2L226,156l0.6-0.2v-5.3h-0.5L226,150l1.2-0.1l0.5,0.1v5.8l0.6,0.2V156.5z"/>
		<path class="st11" d="M230.9,152.2c1.2,0,1.9,0.6,1.9,1.7v1.9l0.5,0.2l-0.1,0.5h-1.1l-0.3-0.2c-0.3,0.2-0.6,0.3-1.2,0.3
			c-0.8,0-1.5-0.4-1.5-1.3c0-1.2,1.4-1.5,2.6-1.5v-0.3c0-0.5-0.4-0.8-0.8-0.8c-0.2,0-0.5,0.1-0.7,0.1l-0.2,0.7l-0.6-0.1v-0.9
			C229.9,152.3,230.5,152.2,230.9,152.2z M230.3,155.3c0,0.5,0.4,0.7,0.6,0.7c0.2,0,0.6-0.1,0.7-0.4v-1.2
			C230.8,154.4,230.3,154.7,230.3,155.3z"/>
		<path class="st11" d="M236.4,152.3l-0.1,0.5h-1.1v2.6c0,0.3,0.2,0.5,0.4,0.5s0.5-0.2,0.8-0.4l0.4,0.5c-0.4,0.4-0.7,0.6-1.3,0.6
			c-0.9,0-1.4-0.5-1.4-1.2v-2.5h-0.5l-0.1-0.5l0.7-0.2l0.4-1l0.7,0.2v1h1.1V152.3z"/>
		<path class="st11" d="M239.3,156.5h-2.1l-0.1-0.5l0.6-0.2v-2.9h-0.4l-0.1-0.5l1.1-0.1l0.5,0.1v3.5l0.6,0.2L239.3,156.5z
			 M238.8,150.8c0,0.3-0.3,0.6-0.6,0.6s-0.6-0.3-0.6-0.6s0.3-0.6,0.6-0.6C238.5,150.2,238.8,150.5,238.8,150.8z"/>
		<path class="st11" d="M241.8,153v2.7l0.6,0.2l-0.1,0.5h-2.1l-0.1-0.5l0.6-0.2v-2.9h-0.4l-0.1-0.5l1.2-0.1l0.4,0.2
			c0.3-0.1,0.7-0.2,1.1-0.2c1,0,1.7,0.5,1.7,1.5v2l0.6,0.2l-0.1,0.5h-2.2l-0.1-0.5l0.6-0.2v-2.2c0-0.5-0.4-0.7-0.8-0.7
			C242.3,152.8,242,152.9,241.8,153z"/>
		<path class="st11" d="M247.7,156.5h-2l-0.1-0.5l0.6-0.2v-5.3h-0.5l-0.1-0.5l1.2-0.1l0.5,0.1v2.5c0.3-0.1,0.7-0.2,1-0.2
			c1,0,1.7,0.5,1.7,1.4v2.1l0.6,0.2l-0.1,0.5h-2.1l-0.1-0.5l0.6-0.2v-2.3c0-0.5-0.3-0.6-0.6-0.6c-0.3,0-0.7,0.1-1,0.2v2.7l0.6,0.2
			L247.7,156.5z"/>
		<path class="st11" d="M252.9,152.2c1.2,0,1.9,0.6,1.9,1.7v1.9l0.5,0.2l-0.1,0.5h-1.1l-0.3-0.2c-0.3,0.2-0.6,0.3-1.2,0.3
			c-0.8,0-1.5-0.4-1.5-1.3c0-1.2,1.4-1.5,2.6-1.5v-0.3c0-0.5-0.4-0.8-0.8-0.8c-0.2,0-0.5,0.1-0.7,0.1l-0.2,0.7l-0.6-0.1v-0.9
			C251.9,152.3,252.5,152.2,252.9,152.2z M252.3,155.3c0,0.5,0.4,0.7,0.6,0.7s0.6-0.1,0.7-0.4v-1.2
			C252.8,154.4,252.3,154.7,252.3,155.3z"/>
		<path class="st11" d="M260.2,156.6c-1.4,0-2.2-0.8-2.2-2.2c0-1.3,0.9-2.2,2.3-2.2c0.2,0,0.5,0,0.8,0.1v-1.9h-0.5l-0.1-0.5l1.2-0.1
			l0.5,0.1v5.8l0.6,0.2l-0.1,0.5h-1.2l-0.3-0.2C260.9,156.4,260.5,156.6,260.2,156.6z M260.3,152.8c-0.7,0-1.1,0.6-1.1,1.5
			s0.5,1.6,1.1,1.6c0.3,0,0.6-0.1,0.8-0.3V153C260.8,152.9,260.5,152.8,260.3,152.8z"/>
		<path class="st11" d="M267,155.5l0.3,0.5c-0.6,0.5-1.1,0.6-1.7,0.6c-1.7,0-2.5-0.9-2.5-2.2c0-1.4,1-2.2,2.3-2.2c1.1,0,2,0.6,2,1.5
			c0,0.2-0.1,0.6-0.2,0.8h-2.8c0,0.9,0.5,1.5,1.3,1.5C266.1,155.9,266.5,155.8,267,155.5z M266.2,153.6c0-0.5-0.4-0.8-0.8-0.8
			c-0.6,0-1,0.4-1,1.1h1.8C266.2,153.8,266.2,153.7,266.2,153.6z"/>
		<path class="st11" d="M232.8,165c0,0.9,0.3,1.7,1.2,1.7c0.4,0,0.9-0.1,1.3-0.4l0.3,0.5c-0.4,0.4-1.1,0.6-1.6,0.6
			c-1.6,0-2.4-0.9-2.4-2.2c0-1.4,1-2.2,2.4-2.2c0.4,0,1,0.1,1.5,0.4v0.9l-0.6,0.1l-0.2-0.7c-0.2-0.1-0.5-0.1-0.7-0.1
			C233.3,163.6,232.8,164.1,232.8,165z"/>
		<path class="st11" d="M240.1,166.3l0.3,0.5c-0.6,0.5-1.1,0.6-1.7,0.6c-1.7,0-2.5-0.9-2.5-2.2c0-1.4,1-2.2,2.3-2.2
			c1.1,0,2,0.6,2,1.5c0,0.2-0.1,0.6-0.2,0.8h-2.8c0,0.9,0.5,1.5,1.3,1.5C239.2,166.7,239.6,166.6,240.1,166.3z M239.3,164.4
			c0-0.5-0.4-0.8-0.8-0.8c-0.6,0-1,0.4-1,1.1h1.8C239.3,164.6,239.3,164.5,239.3,164.4z"/>
		<path class="st11" d="M244,163.7c-0.1,0-0.2,0-0.4,0s-0.5,0.1-0.8,0.2v2.7l0.7,0.2l-0.1,0.5h-2.2l-0.1-0.5l0.6-0.2v-2.9h-0.4
			l-0.1-0.5l1.2-0.1l0.4,0.2c0.3-0.1,0.7-0.2,1.2-0.2c0.3,0,0.6,0.1,0.9,0.2v1l-0.6,0.1L244,163.7z"/>
		<path class="st11" d="M247.2,167.4l-1.5-3.6l-0.6-0.2l0.1-0.5h2.1l0.1,0.5l-0.5,0.2l0.8,1.7v0.8l1.1-2.6l-0.5-0.2l0.1-0.5h1.6
			l0.1,0.5l-0.6,0.2l-1.4,3.5L247.2,167.4z"/>
		<path class="st11" d="M254.2,166.3l0.3,0.5c-0.6,0.5-1.1,0.6-1.7,0.6c-1.7,0-2.5-0.9-2.5-2.2c0-1.4,1-2.2,2.3-2.2
			c1.1,0,2,0.6,2,1.5c0,0.2-0.1,0.6-0.2,0.8h-2.8c0,0.9,0.5,1.5,1.3,1.5C253.3,166.7,253.8,166.6,254.2,166.3z M253.5,164.4
			c0-0.5-0.4-0.8-0.8-0.8c-0.6,0-1,0.4-1,1.1h1.8C253.4,164.6,253.5,164.5,253.5,164.4z"/>
		<path class="st11" d="M256.9,163.1v3.5c0,1.2-0.3,2.4-2.1,3l-0.3-0.5c1.2-0.8,1.3-1.6,1.3-2.6v-2.8h-0.5l-0.1-0.5l1.2-0.1
			L256.9,163.1z M256.9,161.6c0,0.3-0.3,0.6-0.6,0.6c-0.3,0-0.6-0.3-0.6-0.6s0.3-0.6,0.6-0.6C256.6,161,256.9,161.3,256.9,161.6z"/>
		<path class="st11" d="M259.7,163c1.2,0,1.9,0.6,1.9,1.7v1.9l0.5,0.2l-0.1,0.5h-1.1l-0.3-0.2c-0.3,0.2-0.6,0.3-1.2,0.3
			c-0.8,0-1.5-0.4-1.5-1.3c0-1.2,1.4-1.5,2.6-1.5v-0.3c0-0.5-0.4-0.8-0.8-0.8c-0.2,0-0.5,0.1-0.7,0.1l-0.2,0.7l-0.6-0.1v-0.9
			C258.7,163.1,259.3,163,259.7,163z M259.1,166.1c0,0.5,0.4,0.7,0.6,0.7s0.6-0.1,0.7-0.4v-1.2C259.6,165.2,259.1,165.5,259.1,166.1
			z"/>
	</g>
</g>
<g id="Martelinho_destilado">
	<g>
		<path class="st19" d="M68,219.9h23.4c3.9,0,7.1-3.2,7.1-7.1v-23.9c0-3.9,3.2-7.1,7.1-7.1h14.2"/>
		<circle class="st20" cx="66" cy="219.9" r="2"/>
	</g>
	<g>
		<path class="st11" d="M12.6,267l-0.1,0.5h-2.1l-0.1-0.5l0.6-0.2v-2.2c0-0.5-0.4-0.7-0.7-0.7c-0.2,0-0.5,0.1-0.8,0.2v2.7L10,267
			l-0.1,0.5H7.8L7.7,267l0.6-0.2v-2.9H7.9l-0.1-0.5l1.1-0.1l0.4,0.2c0.3-0.1,0.7-0.2,1.1-0.2c0.5,0,0.9,0.1,1.2,0.3
			c0.3-0.2,0.8-0.3,1.3-0.3c1.2,0,1.8,0.5,1.8,1.5v2l0.6,0.2l-0.1,0.5h-2.1L13,267l0.6-0.2v-2.1c0-0.5-0.4-0.8-0.8-0.8
			c-0.3,0-0.6,0.1-0.8,0.2c0.1,0.2,0.1,0.4,0.1,0.7v2L12.6,267z"/>
		<path class="st11" d="M17.7,263.3c1.2,0,1.9,0.6,1.9,1.7v1.9l0.5,0.2l-0.1,0.5h-1.1l-0.3-0.2c-0.3,0.2-0.6,0.3-1.2,0.3
			c-0.8,0-1.5-0.4-1.5-1.3c0-1.2,1.4-1.5,2.6-1.5v-0.3c0-0.5-0.4-0.8-0.8-0.8c-0.2,0-0.5,0.1-0.7,0.1l-0.2,0.7l-0.6-0.1v-0.9
			C16.7,263.4,17.2,263.3,17.7,263.3z M17.1,266.4c0,0.5,0.4,0.7,0.6,0.7s0.6-0.1,0.7-0.4v-1.2C17.6,265.5,17.1,265.8,17.1,266.4z"
			/>
		<path class="st11" d="M23.3,264c-0.1,0-0.2,0-0.4,0c-0.2,0-0.5,0.1-0.8,0.2v2.7l0.7,0.2l-0.1,0.5h-2.2l-0.1-0.5l0.6-0.2V264h-0.4
			l-0.1-0.5l1.2-0.1l0.4,0.2c0.3-0.1,0.7-0.2,1.2-0.2c0.3,0,0.6,0.1,0.9,0.2v1l-0.6,0.1L23.3,264z"/>
		<path class="st11" d="M27.2,263.4l-0.1,0.5H26v2.6c0,0.3,0.2,0.5,0.4,0.5s0.5-0.2,0.8-0.4l0.4,0.5c-0.4,0.4-0.7,0.6-1.3,0.6
			c-0.9,0-1.4-0.5-1.4-1.2V264h-0.5l-0.1-0.5l0.7-0.2l0.4-1l0.7,0.2v1h1.1V263.4z"/>
		<path class="st11" d="M31.8,266.6l0.3,0.5c-0.6,0.5-1.1,0.6-1.7,0.6c-1.7,0-2.5-0.9-2.5-2.2c0-1.4,1-2.2,2.3-2.2
			c1.1,0,2,0.6,2,1.5c0,0.2-0.1,0.6-0.2,0.8h-2.8c0,0.9,0.5,1.5,1.3,1.5C30.9,267,31.4,266.9,31.8,266.6z M31.1,264.7
			c0-0.5-0.4-0.8-0.8-0.8c-0.6,0-1,0.4-1,1.1h1.8C31.1,264.9,31.1,264.8,31.1,264.7z"/>
		<path class="st11" d="M35.2,267.6H33l-0.1-0.5l0.6-0.2v-5.3H33l-0.1-0.5l1.2-0.1l0.5,0.1v5.8l0.6,0.2V267.6z"/>
		<path class="st11" d="M38.2,267.6h-2.1l-0.1-0.5l0.6-0.2V264h-0.4l-0.1-0.5l1.1-0.1l0.5,0.1v3.5l0.6,0.2L38.2,267.6z M37.6,261.9
			c0,0.3-0.3,0.6-0.6,0.6s-0.6-0.3-0.6-0.6c0-0.3,0.3-0.6,0.6-0.6C37.4,261.3,37.6,261.6,37.6,261.9z"/>
		<path class="st11" d="M40.6,264.1v2.7l0.6,0.2l-0.1,0.5H39l-0.1-0.5l0.6-0.2v-2.9h-0.4l-0.1-0.5l1.2-0.1l0.4,0.2
			c0.3-0.1,0.7-0.2,1.1-0.2c1,0,1.7,0.5,1.7,1.5v2L44,267l-0.1,0.5h-2.1l-0.1-0.5l0.6-0.2v-2.2c0-0.5-0.4-0.7-0.8-0.7
			C41.2,263.9,40.9,264,40.6,264.1z"/>
		<path class="st11" d="M46.6,267.6h-2l-0.1-0.5l0.6-0.2v-5.3h-0.5l-0.1-0.5l1.2-0.1l0.5,0.1v2.5c0.3-0.1,0.7-0.2,1-0.2
			c1,0,1.7,0.5,1.7,1.4v2.1l0.6,0.2l-0.1,0.5h-2.1l-0.1-0.5l0.6-0.2v-2.3c0-0.5-0.3-0.6-0.6-0.6s-0.7,0.1-1,0.2v2.7l0.6,0.2
			L46.6,267.6z"/>
		<path class="st11" d="M54.5,265.5c0,1.4-0.8,2.2-2.2,2.2s-2.3-0.9-2.3-2.2c0-1.3,0.9-2.2,2.3-2.2
			C53.6,263.3,54.5,264.1,54.5,265.5z M51.2,265.5c0,1,0.4,1.7,1.1,1.7c0.7,0,1.1-0.7,1.1-1.7s-0.4-1.6-1.1-1.6
			S51.2,264.5,51.2,265.5z"/>
		<path class="st11" d="M8.3,278.5c-1.4,0-2.2-0.8-2.2-2.2c0-1.3,0.9-2.2,2.3-2.2c0.2,0,0.5,0,0.8,0.1v-1.9H8.7l-0.1-0.5l1.2-0.1
			l0.5,0.1v5.8l0.6,0.2l-0.1,0.5H9.6l-0.3-0.2C9,278.3,8.6,278.5,8.3,278.5z M8.4,274.7c-0.7,0-1.1,0.6-1.1,1.5s0.5,1.6,1.1,1.6
			c0.3,0,0.6-0.1,0.8-0.3v-2.6C8.9,274.8,8.6,274.7,8.4,274.7z"/>
		<path class="st11" d="M15.1,277.4l0.3,0.5c-0.6,0.5-1.1,0.6-1.7,0.6c-1.7,0-2.5-0.9-2.5-2.2c0-1.4,1-2.2,2.3-2.2
			c1.1,0,2,0.6,2,1.5c0,0.2-0.1,0.6-0.2,0.8h-2.8c0,0.9,0.5,1.5,1.3,1.5C14.2,277.8,14.6,277.7,15.1,277.4z M14.3,275.5
			c0-0.5-0.4-0.8-0.8-0.8c-0.6,0-1,0.4-1,1.1h1.8C14.3,275.7,14.3,275.6,14.3,275.5z"/>
		<path class="st11" d="M20.6,278.5c-1.4,0-2.2-0.8-2.2-2.2c0-1.3,0.9-2.2,2.3-2.2c0.2,0,0.5,0,0.8,0.1v-1.9h-0.6l-0.1-0.5l1.2-0.1
			l0.5,0.1v5.8l0.6,0.2l-0.1,0.5h-1.2l-0.3-0.2C21.3,278.3,20.9,278.5,20.6,278.5z M20.7,274.7c-0.7,0-1.1,0.6-1.1,1.5
			s0.5,1.6,1.1,1.6c0.3,0,0.6-0.1,0.8-0.3v-2.6C21.2,274.8,20.9,274.7,20.7,274.7z"/>
		<path class="st11" d="M27.4,277.4l0.3,0.5c-0.6,0.5-1.1,0.6-1.7,0.6c-1.7,0-2.5-0.9-2.5-2.2c0-1.4,1-2.2,2.3-2.2
			c1.1,0,2,0.6,2,1.5c0,0.2-0.1,0.6-0.2,0.8h-2.8c0,0.9,0.5,1.5,1.3,1.5C26.5,277.8,27,277.7,27.4,277.4z M26.7,275.5
			c0-0.5-0.4-0.8-0.8-0.8c-0.6,0-1,0.4-1,1.1h1.8C26.7,275.7,26.7,275.6,26.7,275.5z"/>
		<path class="st11" d="M28.5,278.1v-1l0.6-0.1l0.3,0.9c0.1,0.1,0.5,0.1,0.6,0.1c0.4,0,0.8-0.2,0.8-0.5s-0.5-0.5-0.9-0.7
			c-0.6-0.3-1.4-0.7-1.4-1.4c0-0.8,0.7-1.2,1.8-1.2c0.5,0,1,0.1,1.4,0.4v0.9l-0.6,0.1l-0.2-0.7c-0.2-0.1-0.5-0.1-0.7-0.1
			c-0.4,0-0.7,0.2-0.7,0.5c0,0.4,0.7,0.6,1.2,0.8c0.6,0.3,1.1,0.6,1.1,1.3c0,0.8-0.7,1.3-1.8,1.3C29.6,278.5,29,278.4,28.5,278.1z"
			/>
		<path class="st11" d="M35.2,274.2l-0.1,0.5H34v2.6c0,0.3,0.2,0.5,0.4,0.5s0.5-0.2,0.8-0.4l0.4,0.5c-0.4,0.4-0.7,0.6-1.3,0.6
			c-0.9,0-1.4-0.5-1.4-1.2v-2.5h-0.5l-0.1-0.5l0.7-0.2l0.4-1l0.7,0.2v1h1.1V274.2z"/>
		<path class="st11" d="M38.1,278.4H36l-0.1-0.5l0.6-0.2v-2.9h-0.4l-0.1-0.5l1.1-0.1l0.5,0.1v3.5l0.6,0.2L38.1,278.4z M37.6,272.7
			c0,0.3-0.3,0.6-0.6,0.6s-0.6-0.3-0.6-0.6c0-0.3,0.3-0.6,0.6-0.6S37.6,272.4,37.6,272.7z"/>
		<path class="st11" d="M41.2,278.4H39l-0.1-0.5l0.6-0.2v-5.3H39l-0.1-0.5l1.2-0.1l0.5,0.1v5.8l0.6,0.2V278.4z"/>
		<path class="st11" d="M43.8,274.1c1.2,0,1.9,0.6,1.9,1.7v1.9l0.5,0.2l-0.1,0.5h-1.2l-0.3-0.2c-0.3,0.2-0.6,0.3-1.2,0.3
			c-0.8,0-1.5-0.4-1.5-1.3c0-1.2,1.4-1.5,2.6-1.5v-0.3c0-0.5-0.4-0.8-0.8-0.8c-0.2,0-0.5,0.1-0.7,0.1l-0.2,0.7l-0.6-0.1v-0.9
			C42.8,274.2,43.3,274.1,43.8,274.1z M43.2,277.2c0,0.5,0.4,0.7,0.6,0.7c0.2,0,0.6-0.1,0.7-0.4v-1.2
			C43.7,276.3,43.2,276.6,43.2,277.2z"/>
		<path class="st11" d="M48.8,278.5c-1.4,0-2.2-0.8-2.2-2.2c0-1.3,0.9-2.2,2.3-2.2c0.2,0,0.5,0,0.8,0.1v-1.9h-0.5l-0.1-0.5l1.2-0.1
			l0.5,0.1v5.8l0.6,0.2l-0.1,0.5h-1.2l-0.3-0.2C49.5,278.3,49.1,278.5,48.8,278.5z M48.9,274.7c-0.7,0-1.1,0.6-1.1,1.5
			s0.5,1.6,1.1,1.6c0.3,0,0.6-0.1,0.8-0.3v-2.6C49.4,274.8,49.1,274.7,48.9,274.7z"/>
		<path class="st11" d="M56.2,276.3c0,1.4-0.8,2.2-2.2,2.2s-2.3-0.9-2.3-2.2c0-1.3,0.9-2.2,2.3-2.2
			C55.3,274.1,56.2,274.9,56.2,276.3z M52.9,276.3c0,1,0.4,1.7,1.1,1.7c0.7,0,1.1-0.7,1.1-1.7s-0.4-1.6-1.1-1.6
			S52.9,275.3,52.9,276.3z"/>
	</g>
	<g>
		<circle class="st1" cx="31.1" cy="222.2" r="29.7"/>
		<g class="st26">
			<polygon class="st10" points="36.8,238.5 25.5,238.5 22,212.2 40.1,212.2 			"/>
		</g>
		<g>
			<path class="st19" d="M24.8,231.7c2.7,0.8,4.2,0.8,6.4,0.8c2.1,0,4.3,0,6.3-0.8"/>
		</g>
		<g>
			<path class="st1" d="M27.3,217.4h-0.2c-0.6,0-1.1,0.5-1,1.1c0.8,5.2,1.2,11,1.4,14.7c0,0.5,0.5,0.9,1,0.9h0.2c0.6,0,1-0.5,1-1
				c-0.2-3.8-0.6-9.6-1.5-14.9C28.2,217.8,27.8,217.4,27.3,217.4z"/>
		</g>
		<g>
			<path class="st17" d="M39.5,212.7l-0.2,0.8c-2.2,8.9-2.6,23.7-2.6,23.9v0.6h-0.6h-4.9h-4.9h-0.6v-0.6c0-0.1-0.4-15-2.6-23.9
				l-0.2-0.8h0.9h7.5h7.5H39.5 M40.2,211.2h-1.5h-7.5l0,0h-7.5h-1.5c-0.6,0-1.1,0.6-0.9,1.2l0.4,1.5c2.2,8.7,2.6,23.4,2.6,23.6v1.2
				c0,0.5,0.4,0.9,1,0.9h1.2h4.9l0,0h4.9h1.2c0.5,0,1-0.4,1-0.9v-1.2c0-0.1,0.4-14.8,2.6-23.6l0.4-1.5
				C41.3,211.8,40.8,211.2,40.2,211.2L40.2,211.2z"/>
		</g>
	</g>
</g>
<g id="Copo_de_cerveja">
	<g>
		<path class="st19" d="M68,115.3h23.4c3.9,0,7.1,3.2,7.1,7.1v23.9c0,3.9,3.2,7.1,7.1,7.1h14.2"/>
		<circle class="st20" cx="66" cy="115.3" r="2"/>
	</g>
	<g>
		<circle class="st1" cx="31.1" cy="113" r="29.7"/>
		<rect x="23.9" y="90.7" class="st1" width="14" height="8.6"/>
		<g>
			<path class="st27" d="M22.3,99.4c-0.1,2.4,0.1,4.8,0.4,7.1l2,14.7c0.4,3.1,0.4,6.3-0.1,9.4l-0.7,4.4c-0.1,0.6,0.4,1.1,0.9,1.1
				h12.6c0.6,0,1-0.5,0.9-1.1l-0.7-4.2c-0.5-3.2-0.6-6.5-0.2-9.7l2-14.5c0.3-2.4,0.5-4.8,0.4-7.2H22.3z"/>
		</g>
		<g>
			<path class="st17" d="M37.8,91.3l0.5,5.2c0.3,3.3,0.2,6.6-0.2,9.8l-2,14.5c-0.5,3.4-0.4,6.8,0.2,10.2l0.6,3.6H25.5l0.6-3.7
				c0.5-3.3,0.6-6.6,0.1-9.9l-2-14.7c-0.4-3.2-0.5-6.5-0.2-9.7l0.5-5.3L37.8,91.3 M38.4,89.8H23.9c-0.4,0-0.8,0.3-0.8,0.8l-0.5,5.9
				c-0.3,3.3-0.2,6.7,0.2,10l2,14.7c0.4,3.1,0.4,6.3-0.1,9.4l-0.8,4.5c-0.1,0.6,0.4,1.1,0.9,1.1h12.6c0.6,0,1-0.5,0.9-1.1l-0.7-4.2
				c-0.5-3.2-0.6-6.5-0.2-9.7l2-14.5c0.5-3.4,0.5-6.8,0.3-10.2l-0.5-5.8C39.2,90.1,38.8,89.8,38.4,89.8L38.4,89.8z"/>
		</g>
		<path class="st17" d="M23.3,98.2l-0.2,1.4c2.7,0.3,5.6,0.5,8.7,0.5c2.4,0,4.7-0.1,6.8-0.3v-1.5c-2.2,0.2-4.4,0.3-6.8,0.3
			C28.8,98.7,26,98.5,23.3,98.2z"/>
		<line class="st28" x1="26.8" y1="95.7" x2="27.1" y2="104.5"/>
		<g>
			<g>
				<path class="st1" d="M27.3,108.7c1.1,0,1.1-1.7,0-1.7C26.2,107,26.2,108.7,27.3,108.7L27.3,108.7z"/>
			</g>
		</g>
	</g>
	<g>
		<path class="st11" d="M16.1,153.2c0,0.9,0.3,1.7,1.2,1.7c0.4,0,0.9-0.1,1.3-0.4l0.3,0.5c-0.4,0.4-1.1,0.6-1.6,0.6
			c-1.6,0-2.4-0.9-2.4-2.2c0-1.4,1-2.2,2.4-2.2c0.4,0,1,0.1,1.5,0.4v0.9l-0.6,0.1l-0.2-0.7c-0.2-0.1-0.5-0.1-0.7-0.1
			C16.6,151.7,16.1,152.2,16.1,153.2z"/>
		<path class="st11" d="M23.9,153.3c0,1.4-0.8,2.2-2.2,2.2c-1.4,0-2.3-0.9-2.3-2.2s0.9-2.2,2.3-2.2C23.1,151.1,23.9,152,23.9,153.3z
			 M20.6,153.3c0,1,0.4,1.7,1.1,1.7s1.1-0.7,1.1-1.7s-0.4-1.6-1.1-1.6S20.6,152.3,20.6,153.3z"/>
		<path class="st11" d="M26.6,154.9c0.6,0,1.3-0.7,1.3-1.7s-0.4-1.4-0.9-1.4c-0.3,0-0.6,0.1-0.9,0.2v4.9l0.6,0.2l-0.1,0.5h-2.1
			l-0.1-0.5l0.6-0.2v-5.1h-0.5l-0.1-0.5l1.2-0.1l0.4,0.3c0.3-0.1,0.7-0.3,1.1-0.3c1.3,0,2.1,0.7,2.1,2.1c0,1.3-1.1,2.2-2.5,2.2h-0.2
			V155L26.6,154.9L26.6,154.9z"/>
		<path class="st11" d="M34.3,153.3c0,1.4-0.8,2.2-2.2,2.2c-1.4,0-2.3-0.9-2.3-2.2s0.9-2.2,2.3-2.2C33.4,151.1,34.3,152,34.3,153.3z
			 M31,153.3c0,1,0.4,1.7,1.1,1.7c0.7,0,1.1-0.7,1.1-1.7s-0.4-1.6-1.1-1.6C31.4,151.7,31,152.3,31,153.3z"/>
		<path class="st11" d="M39.5,155.5c-1.4,0-2.2-0.8-2.2-2.2c0-1.3,0.9-2.2,2.3-2.2c0.2,0,0.5,0,0.8,0.1v-1.9h-0.5l-0.1-0.5l1.2-0.1
			l0.5,0.1v5.8l0.6,0.2l-0.1,0.5h-1.2l-0.3-0.2C40.2,155.4,39.8,155.5,39.5,155.5z M39.6,151.8c-0.7,0-1.1,0.6-1.1,1.5
			s0.5,1.6,1.1,1.6c0.3,0,0.6-0.1,0.8-0.3V152C40.1,151.9,39.8,151.8,39.6,151.8z"/>
		<path class="st11" d="M46.3,154.5l0.3,0.5c-0.6,0.5-1.1,0.6-1.7,0.6c-1.7,0-2.5-0.9-2.5-2.2c0-1.4,1-2.2,2.3-2.2
			c1.1,0,2,0.6,2,1.5c0,0.2-0.1,0.6-0.2,0.8h-2.8c0,0.9,0.5,1.5,1.3,1.5C45.4,154.9,45.9,154.8,46.3,154.5z M45.6,152.5
			c0-0.5-0.4-0.8-0.8-0.8c-0.6,0-1,0.4-1,1.1h1.8C45.6,152.7,45.6,152.6,45.6,152.5z"/>
		<path class="st11" d="M16.8,164c0,0.9,0.3,1.7,1.2,1.7c0.4,0,0.9-0.1,1.3-0.4l0.3,0.5c-0.4,0.4-1.1,0.6-1.6,0.6
			c-1.6,0-2.4-0.9-2.4-2.2c0-1.4,1-2.2,2.4-2.2c0.4,0,1,0.1,1.5,0.4v0.9l-0.6,0.1l-0.2-0.7c-0.2-0.1-0.5-0.1-0.7-0.1
			C17.3,162.5,16.8,163,16.8,164z"/>
		<path class="st11" d="M24.1,165.3l0.3,0.5c-0.6,0.5-1.1,0.6-1.7,0.6c-1.7,0-2.5-0.9-2.5-2.2c0-1.4,1-2.2,2.3-2.2
			c1.1,0,2,0.6,2,1.5c0,0.2-0.1,0.6-0.2,0.8h-2.8c0,0.9,0.5,1.5,1.3,1.5C23.2,165.7,23.7,165.6,24.1,165.3z M23.4,163.3
			c0-0.5-0.4-0.8-0.8-0.8c-0.6,0-1,0.4-1,1.1h1.8C23.4,163.5,23.4,163.4,23.4,163.3z"/>
		<path class="st11" d="M28,162.6c-0.1,0-0.2,0-0.4,0s-0.5,0.1-0.8,0.2v2.7l0.7,0.2l-0.1,0.5h-2.2l-0.1-0.5l0.6-0.2v-2.9h-0.4
			l-0.1-0.5l1.2-0.1l0.4,0.2c0.3-0.1,0.7-0.2,1.2-0.2c0.3,0,0.6,0.1,0.9,0.2v1l-0.6,0.1L28,162.6z"/>
		<path class="st11" d="M31.2,166.3l-1.5-3.6l-0.6-0.2l0.1-0.5h2.1l0.1,0.5l-0.5,0.2l0.8,1.7v0.8l1.1-2.6l-0.5-0.2l0.1-0.5h1.5
			l0.1,0.5l-0.6,0.2l-1.4,3.5L31.2,166.3z"/>
		<path class="st11" d="M38.3,165.3l0.3,0.5c-0.6,0.5-1.1,0.6-1.7,0.6c-1.7,0-2.5-0.9-2.5-2.2c0-1.4,1-2.2,2.3-2.2
			c1.1,0,2,0.6,2,1.5c0,0.2-0.1,0.6-0.2,0.8h-2.8c0,0.9,0.5,1.5,1.3,1.5C37.3,165.7,37.8,165.6,38.3,165.3z M37.5,163.3
			c0-0.5-0.4-0.8-0.8-0.8c-0.6,0-1,0.4-1,1.1h1.8C37.5,163.5,37.5,163.4,37.5,163.3z"/>
		<path class="st11" d="M41,162v3.5c0,1.2-0.3,2.4-2.1,3l-0.3-0.5c1.2-0.8,1.3-1.6,1.3-2.6v-2.8h-0.5l-0.1-0.5l1.2-0.1L41,162z
			 M40.9,160.5c0,0.3-0.3,0.6-0.6,0.6s-0.6-0.3-0.6-0.6s0.3-0.6,0.6-0.6C40.7,160,40.9,160.2,40.9,160.5z"/>
		<path class="st11" d="M43.8,161.9c1.2,0,1.9,0.6,1.9,1.7v1.9l0.5,0.2l-0.1,0.5h-1.2l-0.3-0.2c-0.3,0.2-0.6,0.3-1.2,0.3
			c-0.8,0-1.5-0.4-1.5-1.3c0-1.2,1.4-1.5,2.6-1.5v-0.3c0-0.5-0.4-0.8-0.8-0.8c-0.2,0-0.5,0.1-0.7,0.1l-0.2,0.7l-0.6-0.1v-0.9
			C42.8,162,43.3,161.9,43.8,161.9z M43.2,165c0,0.5,0.4,0.7,0.6,0.7c0.2,0,0.6-0.1,0.7-0.4v-1.2C43.7,164.1,43.2,164.5,43.2,165z"
			/>
	</g>
</g>
<g id="Taça_de_vinho">
	<g>
		<path class="st19" d="M209.6,219.9h-23.4c-3.9,0-7.1-3.2-7.1-7.1v-23.9c0-3.9-3.2-7.1-7.1-7.1h-14.2"/>
		<circle class="st20" cx="211.6" cy="219.9" r="2"/>
	</g>
	<g>
		<circle class="st1" cx="246.7" cy="221.2" r="29.7"/>
		<g>
			<path class="st10" d="M247.1,222.7c-4.4,0-8.1-3.6-8.1-8.1v-0.1l0,0l0.4-3.2l0.9,0.1h14.5l0.3,3.3l0,0
				C255.1,219.1,251.5,222.7,247.1,222.7z"/>
			<path class="st17" d="M254.1,212.2l0.3,2.5l0,0l0,0c0,4-3.3,7.3-7.3,7.3s-7.3-3.3-7.3-7.3l0,0l0,0l0.3-2.2v-0.3h0.3H254.1
				 M254.8,210.7h-14.5h-1c-0.3,0-0.6,0.3-0.7,0.6l-0.1,1l-0.3,2.2v0.1v0.1c0,4.9,4,8.8,8.8,8.8c4.9,0,8.8-4,8.8-8.8v-0.1v-0.1
				l-0.4-3.2C255.4,210.9,255.1,210.7,254.8,210.7L254.8,210.7z"/>
		</g>
		<g>
			<path class="st1" d="M242.1,214.3L242.1,214.3c-0.6-0.1-1-0.7-0.9-1.3l0.8-4.5c0.1-0.6,0.7-1,1.3-0.9l0,0c0.6,0.1,1,0.7,0.9,1.3
				l-0.8,4.5C243.3,214,242.7,214.4,242.1,214.3z"/>
		</g>
		<g>
			<path class="st17" d="M255.6,200.1l1.7,14.7l0,0l0,0c0,2.8-1.1,5.4-3.1,7.4c-1.4,1.4-3.2,2.3-5.1,2.7l-1.2,0.2v1.2v0.1v13.9
				c0,1.8,1.4,3.2,3.2,3.2h2.3c0.3,0,0.6,0.3,0.6,0.6s-0.3,0.6-0.6,0.6h-12.8c-0.3,0-0.6-0.3-0.6-0.6s0.3-0.6,0.6-0.6h2.6
				c1.8,0,3.2-1.4,3.2-3.2v-13.9v-0.1v-1.2l-1.2-0.2c-2.4-0.4-4.4-1.6-6-3.4c-1.6-1.8-2.5-4.2-2.5-6.7l0,0l1.7-14.3v-0.3h0.3h16.9
				 M256.4,198.6h-17.6h-1.1c-0.3,0-0.6,0.3-0.7,0.6l-0.1,1.1l-1.7,14.3v0.1l0,0c0,2.8,1,5.6,2.8,7.8c1.8,2.1,4.2,3.5,6.9,3.9v0.1
				v13.9c0,1-0.8,1.7-1.7,1.7h-2.6c-1.2,0-2.1,0.9-2.1,2.1l0,0c0,1.2,0.9,2.1,2.1,2.1h12.8c1.2,0,2.1-0.9,2.1-2.1l0,0
				c0-1.2-0.9-2.1-2.1-2.1h-2.3c-1,0-1.7-0.8-1.7-1.7v-13.9v-0.1c2.2-0.5,4.3-1.5,5.9-3.1c2.3-2.2,3.5-5.2,3.5-8.4v-0.1v-0.1
				l-1.8-15.4C257,198.8,256.7,198.6,256.4,198.6L256.4,198.6z"/>
		</g>
	</g>
	<g>
		<path class="st11" d="M234.4,259.7l-0.1,0.5h-1.1v2.6c0,0.3,0.2,0.5,0.4,0.5s0.5-0.2,0.8-0.4l0.4,0.5c-0.4,0.4-0.7,0.6-1.3,0.6
			c-0.9,0-1.4-0.5-1.4-1.2v-2.5h-0.5l-0.1-0.5l0.7-0.2l0.4-1l0.7,0.2v1h1.1V259.7z"/>
		<path class="st11" d="M236.8,259.6c1.2,0,1.9,0.6,1.9,1.7v1.9l0.5,0.2l-0.1,0.5H238l-0.3-0.2c-0.3,0.2-0.6,0.3-1.2,0.3
			c-0.8,0-1.5-0.4-1.5-1.3c0-1.2,1.4-1.5,2.6-1.5v-0.3c0-0.5-0.4-0.8-0.8-0.8c-0.2,0-0.5,0.1-0.7,0.1l-0.2,0.7l-0.6-0.1v-0.9
			C235.9,259.7,236.4,259.6,236.8,259.6z M236.2,262.7c0,0.5,0.4,0.7,0.6,0.7c0.2,0,0.6-0.1,0.7-0.4v-1.2
			C236.7,261.8,236.2,262.2,236.2,262.7z"/>
		<path class="st11" d="M240.9,261.6c0,0.9,0.3,1.7,1.2,1.7c0.4,0,0.9-0.1,1.3-0.4l0.3,0.5c-0.4,0.4-1,0.6-1.5,0.6v0.3
			c0.3,0,0.7,0.2,0.7,0.7c0,0.7-0.8,1-1.3,1l-0.2-0.5c0.5,0,0.7-0.2,0.7-0.4c0-0.2-0.1-0.3-0.3-0.3h-0.3v-0.7c-1.3-0.1-2-1-2-2.2
			c0-1.4,1-2.2,2.4-2.2c0.4,0,1,0.1,1.5,0.4v0.9l-0.6,0.1l-0.2-0.7c-0.2-0.1-0.5-0.1-0.7-0.1C241.4,260.2,240.9,260.7,240.9,261.6z"
			/>
		<path class="st11" d="M246,259.6c1.2,0,1.9,0.6,1.9,1.7v1.9l0.5,0.2l-0.1,0.5h-1.1l-0.3-0.2c-0.3,0.2-0.6,0.3-1.2,0.3
			c-0.8,0-1.5-0.4-1.5-1.3c0-1.2,1.4-1.5,2.6-1.5v-0.3c0-0.5-0.4-0.8-0.8-0.8c-0.2,0-0.5,0.1-0.7,0.1l-0.2,0.7l-0.6-0.1v-0.9
			C245.1,259.7,245.6,259.6,246,259.6z M245.4,262.7c0,0.5,0.4,0.7,0.6,0.7c0.2,0,0.6-0.1,0.7-0.4v-1.2
			C245.9,261.8,245.4,262.2,245.4,262.7z"/>
		<path class="st11" d="M253.3,264c-1.5,0-2.2-0.8-2.2-2.2c0-1.3,0.9-2.2,2.3-2.2c0.2,0,0.5,0,0.8,0.1v-1.9h-0.5l-0.1-0.5l1.2-0.1
			l0.5,0.1v5.8l0.6,0.2l-0.1,0.5h-1.2l-0.3-0.2C254,263.9,253.6,264,253.3,264z M253.4,260.3c-0.7,0-1.1,0.6-1.1,1.5
			s0.5,1.6,1.1,1.6c0.3,0,0.6-0.1,0.8-0.3v-2.6C253.9,260.3,253.6,260.3,253.4,260.3z"/>
		<path class="st11" d="M260.1,262.9l0.3,0.5c-0.6,0.5-1.1,0.6-1.7,0.6c-1.7,0-2.5-0.9-2.5-2.2c0-1.4,1-2.2,2.3-2.2
			c1.1,0,2,0.6,2,1.5c0,0.2-0.1,0.6-0.2,0.8h-2.8c0,0.9,0.5,1.5,1.3,1.5C259.2,263.4,259.7,263.2,260.1,262.9z M259.4,261
			c0-0.5-0.4-0.8-0.8-0.8c-0.6,0-1,0.4-1,1.1h1.8C259.4,261.2,259.4,261.1,259.4,261z"/>
		<path class="st11" d="M236.1,274.8l-1.5-3.6L234,271l0.1-0.5h2.1l0.1,0.5l-0.5,0.2l0.8,1.7v0.8l1.1-2.6l-0.5-0.2l0.1-0.5h1.6
			l0.1,0.5l-0.6,0.2l-1.4,3.5L236.1,274.8z"/>
		<path class="st11" d="M241.6,274.7h-2.1l-0.1-0.5l0.6-0.2v-2.9h-0.4l-0.1-0.5l1.1-0.1l0.5,0.1v3.5l0.6,0.2L241.6,274.7z
			 M241.1,269c0,0.3-0.3,0.6-0.6,0.6s-0.6-0.3-0.6-0.6c0-0.3,0.3-0.6,0.6-0.6C240.9,268.4,241.1,268.7,241.1,269z"/>
		<path class="st11" d="M244.1,271.2v2.7l0.6,0.2l-0.1,0.5h-2.1l-0.1-0.5l0.6-0.2v-2.8h-0.4l-0.1-0.5l1.2-0.1l0.4,0.2
			c0.3-0.1,0.7-0.2,1.1-0.2c1,0,1.7,0.5,1.7,1.5v2l0.6,0.2l-0.1,0.5h-2.1l-0.1-0.5l0.6-0.2v-2.2c0-0.5-0.4-0.7-0.8-0.7
			C244.7,271.1,244.4,271.2,244.1,271.2z"/>
		<path class="st11" d="M250.1,274.7h-2l-0.1-0.5l0.6-0.2v-5.3h-0.5l-0.2-0.6l1.2-0.1l0.5,0.1v2.5c0.3-0.1,0.7-0.2,1-0.2
			c1,0,1.7,0.5,1.7,1.4v2.1l0.6,0.2l-0.1,0.5h-2.1l-0.1-0.5l0.6-0.2v-2.3c0-0.5-0.3-0.6-0.6-0.6c-0.3,0-0.7,0.1-1,0.2v2.7l0.6,0.2
			L250.1,274.7z"/>
		<path class="st11" d="M258,272.6c0,1.4-0.8,2.2-2.2,2.2c-1.4,0-2.2-0.9-2.2-2.2c0-1.3,0.9-2.2,2.2-2.2
			C257.1,270.4,258,271.2,258,272.6z M254.7,272.6c0,1,0.4,1.7,1.1,1.7c0.7,0,1.1-0.7,1.1-1.7s-0.4-1.6-1.1-1.6
			C255.1,271,254.7,271.6,254.7,272.6z"/>
	</g>
	<g>
		<path class="st8" d="M235.8,286.4v-4.9c-0.1,0-0.3,0.1-0.4,0.1s-0.3,0.1-0.4,0.1l-0.1-0.6c0.1,0,0.3-0.1,0.4-0.2
			c0.1-0.1,0.3-0.1,0.4-0.2c0.1-0.1,0.3-0.1,0.4-0.2s0.2-0.1,0.2-0.2l0.4,0.1v6L235.8,286.4L235.8,286.4z"/>
		<path class="st8" d="M240.4,286.4c-0.4,0-0.7-0.1-0.9-0.3c-0.3-0.2-0.5-0.4-0.6-0.7s-0.3-0.6-0.3-1c-0.1-0.4-0.1-0.8-0.1-1.2
			c0-0.6,0.1-1.1,0.3-1.6c0.2-0.4,0.4-0.8,0.8-1c0.3-0.2,0.7-0.4,1.1-0.4c0.4,0,0.7,0.1,1,0.2s0.5,0.4,0.6,0.6
			c0.2,0.3,0.3,0.6,0.3,1s0.1,0.7,0.1,1.2c0,0.6-0.1,1.2-0.3,1.6s-0.4,0.8-0.7,1.1C241.2,286.3,240.8,286.4,240.4,286.4z
			 M240.4,285.6c0.4,0,0.7-0.2,0.9-0.5c0.2-0.4,0.3-0.9,0.3-1.7c0-0.4,0-0.8-0.1-1.1c-0.1-0.3-0.2-0.6-0.4-0.8
			c-0.2-0.2-0.4-0.3-0.6-0.3c-0.4,0-0.7,0.2-0.9,0.5c-0.2,0.4-0.3,0.9-0.3,1.5c0,0.4,0,0.8,0.1,1.1c0.1,0.3,0.2,0.6,0.4,0.8
			C239.9,285.5,240.2,285.6,240.4,285.6z"/>
		<path class="st8" d="M245.5,286.4c-0.4,0-0.7-0.1-0.9-0.3c-0.3-0.2-0.5-0.4-0.6-0.7s-0.3-0.6-0.3-1c-0.1-0.4-0.1-0.8-0.1-1.2
			c0-0.6,0.1-1.1,0.3-1.6c0.2-0.4,0.4-0.8,0.8-1c0.3-0.2,0.7-0.4,1.1-0.4c0.4,0,0.7,0.1,1,0.2s0.5,0.4,0.6,0.6
			c0.2,0.3,0.3,0.6,0.3,1s0.1,0.7,0.1,1.2c0,0.6-0.1,1.2-0.3,1.6s-0.4,0.8-0.7,1.1C246.3,286.3,246,286.4,245.5,286.4z M245.6,285.6
			c0.4,0,0.7-0.2,0.9-0.5c0.2-0.4,0.3-0.9,0.3-1.7c0-0.4,0-0.8-0.1-1.1c-0.1-0.3-0.2-0.6-0.4-0.8c-0.2-0.2-0.4-0.3-0.6-0.3
			c-0.4,0-0.7,0.2-0.9,0.5c-0.2,0.4-0.3,0.9-0.3,1.5c0,0.4,0,0.8,0.1,1.1c0.1,0.3,0.2,0.6,0.4,0.8
			C245.1,285.5,245.3,285.6,245.6,285.6z"/>
		<path class="st8" d="M248.8,286.4V282h0.8v0.5c0.1-0.1,0.2-0.2,0.4-0.2c0.2-0.1,0.3-0.2,0.5-0.2s0.4-0.1,0.5-0.1
			c0.3,0,0.5,0,0.7,0.1s0.3,0.3,0.4,0.5c0.1,0.3,0.1,0.6,0.1,1v2.8h-0.9v-2.7c0-0.2,0-0.4-0.1-0.6s-0.1-0.3-0.2-0.3
			s-0.3-0.1-0.5-0.1c-0.1,0-0.3,0-0.5,0.1s-0.4,0.2-0.5,0.3v3.4L248.8,286.4L248.8,286.4z M252.2,283l-0.2-0.6
			c0.1-0.1,0.2-0.2,0.4-0.3c0.2-0.1,0.3-0.2,0.5-0.2c0.2-0.1,0.4-0.1,0.6-0.1c0.3,0,0.5,0,0.7,0.2c0.2,0.1,0.3,0.3,0.4,0.5
			c0.1,0.3,0.1,0.6,0.1,1v2.8h-0.9v-2.7c0-0.2,0-0.4-0.1-0.6c0-0.2-0.1-0.3-0.2-0.3s-0.3-0.1-0.5-0.1c-0.1,0-0.3,0-0.5,0.1
			C252.6,282.8,252.4,282.9,252.2,283z"/>
		<path class="st8" d="M256.2,286.4v-6.5h0.9v6.5H256.2z"/>
	</g>
</g>
<g id="Long_neck_bebida_ice">
	<g>
		<circle class="st1" cx="138.2" cy="265" r="29.7"/>
		<g>
			<path class="st1" d="M148.5,293.6c-0.5-1.8-0.6-3.7-0.6-5.5l0.7-30.8c0-1-0.3-2-0.9-2.8l-3.3-4.6c-0.1-0.2-0.2-0.3-0.2-0.5
				l-0.5-17.9h-9.5l-0.5,17.9c0,0.2-0.1,0.4-0.2,0.5l-3.3,4.6c-0.6,0.8-0.9,1.8-0.9,2.8l0.7,30.8c0,1.9-0.1,3.7-0.6,5.5
				c-0.1,0.3-0.1,0.6-0.1,0.9v0.8c0,2,1.6,3.7,3.7,3.7h11.9c2,0,3.7-1.6,3.7-3.7v-0.8C148.6,294.2,148.5,293.9,148.5,293.6z
				 M142,248.2L142,248.2L142,248.2L142,248.2z"/>
			<g>
				<path class="st17" d="M144.3,233.6h-10.7c-0.2,0-0.4-0.2-0.4-0.4v-1.1c0-0.7,0.6-1.3,1.3-1.3h8.7c0.7,0,1.3,0.6,1.3,1.3v1.1
					C144.7,233.5,144.5,233.6,144.3,233.6z"/>
			</g>
			<g>
				<path class="st29" d="M136.7,289.2c0-0.5,0.1-0.9,0.3-1.3l-5.6-0.4l0.1,3l5.9,0.5l0,0C137,290.5,136.7,289.9,136.7,289.2z"/>
				<path class="st29" d="M141.6,289.2c0-0.5-0.1-0.9-0.3-1.3l5.6-0.4l-0.1,3l-5.9,0.5l0,0C141.3,290.5,141.6,289.8,141.6,289.2z"/>
				<g class="st30">
					<circle class="st31" cx="139.2" cy="289.2" r="2.5"/>
				</g>
			</g>
			<g class="st30">
				<rect x="135.2" y="237.4" class="st31" width="7.5" height="12.2"/>
			</g>
			<line class="st19" x1="135.2" y1="237.4" x2="142.7" y2="237.4"/>
			<line class="st19" x1="134.6" y1="249.6" x2="143.4" y2="249.6"/>
			<g>
				<path class="st31" d="M145,260.6c0-0.5-0.4-1-0.9-1.1c-1.6-0.2-3.3-0.4-5.1-0.4s-3.6,0.1-5.2,0.4c-0.5,0.1-0.9,0.5-0.9,1.1v1.9
					c0,0.7,0.6,1.1,1.2,1.1c1.5-0.2,3.1-0.3,4.8-0.3s3.3,0.1,4.8,0.3c0.6,0.1,1.2-0.4,1.2-1.1L145,260.6L145,260.6z"/>
			</g>
			<g>
				<path class="st17" d="M142.2,233l0.4,16.5c0,0.5,0.2,1,0.5,1.4l3.3,4.6c0.4,0.6,0.6,1.2,0.6,1.9l-0.7,30.8
					c0,2.1,0.2,4.1,0.7,5.9c0,0.2,0.1,0.4,0.1,0.6v0.8c0,1.2-1,2.2-2.2,2.2H133c-1.2,0-2.2-1-2.2-2.2v-0.8c0-0.2,0-0.4,0.1-0.6
					c0.5-1.8,0.7-3.8,0.7-5.9l-0.7-30.8c0-0.7,0.2-1.4,0.6-1.9l3.3-4.6c0.3-0.4,0.4-0.9,0.5-1.4l0.4-16.5H142.2 M143.7,231.5h-9.5
					l-0.5,17.9c0,0.2-0.1,0.4-0.2,0.5l-3.3,4.6c-0.6,0.8-0.9,1.8-0.9,2.8l0.7,30.8c0,1.9-0.1,3.7-0.6,5.5c-0.1,0.3-0.1,0.6-0.1,0.9
					v0.8c0,2,1.6,3.7,3.7,3.7h11.9c2,0,3.7-1.6,3.7-3.7v-0.8c0-0.3,0-0.6-0.1-0.9c-0.5-1.8-0.6-3.7-0.6-5.5l0.7-30.8
					c0-1-0.3-2-0.9-2.8l-3.3-4.6c-0.1-0.2-0.2-0.3-0.2-0.5L143.7,231.5L143.7,231.5z"/>
			</g>
			<path class="st31" d="M141.9,272.6l-2.7,1.1c-0.3,0.1-0.5,0.1-0.8,0l-2.5-1.1c-0.4-0.2-0.6-0.5-0.6-0.9v-5.5c0-0.6,0.4-1,1-1h5.2
				c0.6,0,1,0.4,1,1v5.5C142.6,272.1,142.3,272.4,141.9,272.6z"/>
		</g>
	</g>
	<g>
		<path class="st11" d="M115.1,309.9h-2.2l-0.1-0.5l0.6-0.2v-5.3h-0.5l-0.1-0.5l1.2-0.1l0.5,0.1v5.8l0.6,0.2V309.9z"/>
		<path class="st11" d="M120.5,307.8c0,1.4-0.8,2.2-2.2,2.2c-1.4,0-2.3-0.9-2.3-2.2c0-1.3,0.9-2.2,2.3-2.2
			C119.6,305.6,120.5,306.4,120.5,307.8z M117.1,307.8c0,1,0.4,1.7,1.1,1.7s1.1-0.7,1.1-1.7s-0.4-1.6-1.1-1.6
			S117.1,306.8,117.1,307.8z"/>
		<path class="st11" d="M122.8,306.4v2.7l0.6,0.2l-0.1,0.5h-2.1l-0.1-0.5l0.6-0.2v-2.9h-0.4l-0.1-0.5l1.2-0.1l0.4,0.2
			c0.3-0.1,0.7-0.2,1.1-0.2c1,0,1.7,0.5,1.7,1.5v2l0.6,0.2l-0.1,0.5H124l-0.1-0.5l0.6-0.2v-2.2c0-0.5-0.4-0.7-0.8-0.7
			C123.4,306.2,123.1,306.3,122.8,306.4z"/>
		<path class="st11" d="M130.5,310.6c0,1.1-1,1.5-2.1,1.5c-0.9,0-1.7-0.3-1.7-1.1c0-0.5,0.5-0.9,1-1l0.3,0.4
			c-0.3,0.2-0.4,0.4-0.4,0.6c0,0.3,0.3,0.5,0.9,0.5c0.5,0,1-0.3,1-0.7c0-0.3-0.4-0.6-0.8-0.7l-0.9-0.3c-0.3-0.1-0.7-0.3-0.7-0.8
			l0.4-0.7c-0.4-0.3-0.5-0.7-0.5-1.2c0-0.8,0.7-1.6,1.8-1.6c0.3,0,0.6,0,0.8,0.1l1.2-0.1l-0.1,0.7h-0.5l0.4,0.3
			c0.1,0.2,0.1,0.4,0.1,0.7c0,1-0.8,1.5-2,1.5c-0.2,0-0.4,0-0.6-0.1v0.1c0,0.1,0.1,0.2,0.3,0.2l0.8,0.3
			C129.9,309.5,130.5,309.9,130.5,310.6z M127.9,307.1c0,0.7,0.3,1,0.8,1s0.8-0.3,0.8-1c0-0.8-0.4-1-0.8-1
			C128.2,306.2,127.9,306.5,127.9,307.1z"/>
		<path class="st11" d="M135,306.4v2.7l0.6,0.2l-0.1,0.5h-2.1l-0.1-0.5l0.6-0.2v-2.9h-0.4l-0.1-0.5l1.2-0.1l0.4,0.2
			c0.3-0.1,0.7-0.2,1.1-0.2c1,0,1.7,0.5,1.7,1.5v2l0.6,0.2l-0.1,0.5h-2.1l-0.1-0.5l0.6-0.2v-2.2c0-0.5-0.4-0.7-0.8-0.7
			C135.6,306.2,135.3,306.3,135,306.4z"/>
		<path class="st11" d="M142.9,308.9l0.3,0.5c-0.6,0.5-1.1,0.6-1.7,0.6c-1.7,0-2.5-0.9-2.5-2.2c0-1.4,1-2.2,2.3-2.2
			c1.1,0,2,0.6,2,1.5c0,0.2-0.1,0.6-0.2,0.8h-2.8c0,0.9,0.5,1.5,1.3,1.5C142,309.3,142.4,309.2,142.9,308.9z M142.1,307
			c0-0.5-0.4-0.8-0.8-0.8c-0.6,0-1,0.4-1,1.1h1.8C142.1,307.2,142.1,307.1,142.1,307z"/>
		<path class="st11" d="M145.2,307.6c0,0.9,0.3,1.7,1.2,1.7c0.4,0,0.9-0.1,1.3-0.4l0.3,0.5c-0.4,0.4-1.1,0.6-1.6,0.6
			c-1.6,0-2.4-0.9-2.4-2.2c0-1.4,1-2.2,2.4-2.2c0.4,0,1,0.1,1.5,0.4v0.9l-0.6,0.1l-0.2-0.7c-0.2-0.1-0.5-0.1-0.7-0.1
			C145.7,306.2,145.2,306.7,145.2,307.6z"/>
		<path class="st11" d="M150.7,309.9h-2.1l-0.1-0.5l0.6-0.2v-5.3h-0.4l-0.1-0.5l1.1-0.1l0.5,0.1v5.8l0.6,0.2L150.7,309.9z
			 M151.2,306.2l0.5,0.2l-1.2,1.1v0.4l1.1,1.5l-0.1,0.5h1.8l0.1-0.5l-0.7-0.2l-1-1.4l-0.5-0.1l1.1-1c0.2-0.2,0.5-0.3,0.9-0.4
			l-0.1-0.5h-1.8L151.2,306.2z"/>
		<path class="st11" d="M158.3,310c-1.4,0-2.2-0.8-2.2-2.2c0-1.3,0.9-2.2,2.3-2.2c0.2,0,0.5,0,0.8,0.1v-1.9h-0.5l-0.1-0.5l1.2-0.1
			l0.5,0.1v5.8l0.6,0.2l-0.1,0.5h-1.2l-0.3-0.2C159.1,309.9,158.7,310,158.3,310z M158.4,306.2c-0.7,0-1.1,0.6-1.1,1.5
			s0.5,1.6,1.1,1.6c0.3,0,0.6-0.1,0.8-0.3v-2.6C159,306.3,158.6,306.2,158.4,306.2z"/>
		<path class="st11" d="M165.2,308.9l0.3,0.5c-0.6,0.5-1.1,0.6-1.7,0.6c-1.7,0-2.5-0.9-2.5-2.2c0-1.4,1-2.2,2.3-2.2
			c1.1,0,2,0.6,2,1.5c0,0.2-0.1,0.6-0.2,0.8h-2.8c0,0.9,0.5,1.5,1.3,1.5C164.2,309.3,164.7,309.2,165.2,308.9z M164.4,307
			c0-0.5-0.4-0.8-0.8-0.8c-0.6,0-1,0.4-1,1.1h1.8C164.4,307.2,164.4,307.1,164.4,307z"/>
		<path class="st11" d="M120.5,316.4c1.4,0,2,0.7,2,2.1s-0.8,2.3-2.3,2.3c-0.7,0-1.4-0.2-1.9-0.5v-5.7h-0.4l-0.1-0.5l1.2-0.1
			l0.5,0.1v5.9c0.2,0.1,0.4,0.1,0.7,0.1c0.6,0,1.1-0.7,1.1-1.7s-0.4-1.4-0.9-1.4c-0.2,0-0.4,0-0.6,0.1v-0.6
			C120,316.4,120.4,316.4,120.5,316.4z"/>
		<path class="st11" d="M127.2,319.7l0.3,0.5c-0.6,0.5-1.1,0.6-1.7,0.6c-1.7,0-2.5-0.9-2.5-2.2c0-1.4,1-2.2,2.3-2.2
			c1.1,0,2,0.6,2,1.5c0,0.2-0.1,0.6-0.2,0.8h-2.8c0,0.9,0.5,1.5,1.3,1.5C126.3,320.1,126.7,320,127.2,319.7z M126.4,317.8
			c0-0.5-0.4-0.8-0.8-0.8c-0.6,0-1,0.4-1,1.1h1.8C126.4,318,126.4,317.9,126.4,317.8z"/>
		<path class="st11" d="M130.6,316.4c1.4,0,2,0.7,2,2.1s-0.8,2.3-2.3,2.3c-0.7,0-1.4-0.2-1.9-0.5v-5.7h-0.5v-0.5l1.2-0.1l0.5,0.1
			v5.9c0.2,0.1,0.4,0.1,0.7,0.1c0.6,0,1.1-0.7,1.1-1.7s-0.4-1.4-0.9-1.4c-0.2,0-0.4,0-0.6,0.1v-0.6
			C130.1,316.4,130.4,316.4,130.6,316.4z"/>
		<path class="st11" d="M135.6,320.7h-2.1l-0.1-0.5l0.6-0.2v-2.9h-0.4l-0.1-0.5l1.1-0.1l0.5,0.1v3.5l0.6,0.2L135.6,320.7z M135,315
			c0,0.3-0.3,0.6-0.6,0.6s-0.6-0.3-0.6-0.6c0-0.3,0.3-0.6,0.6-0.6C134.8,314.4,135,314.7,135,315z"/>
		<path class="st11" d="M138.6,320.8c-1.4,0-2.2-0.8-2.2-2.2c0-1.3,0.9-2.2,2.3-2.2c0.2,0,0.5,0,0.8,0.1v-1.9h-0.6l-0.1-0.5l1.2-0.1
			l0.5,0.1v5.8l0.6,0.2l-0.1,0.5h-1.2l-0.3-0.2C139.3,320.7,138.9,320.8,138.6,320.8z M138.7,317c-0.7,0-1.1,0.6-1.1,1.5
			s0.5,1.6,1.1,1.6c0.3,0,0.6-0.1,0.8-0.3v-2.6C139.2,317.1,138.9,317,138.7,317z"/>
		<path class="st11" d="M143.3,316.4c1.2,0,1.9,0.6,1.9,1.7v1.9l0.5,0.2l-0.1,0.5h-1.1l-0.3-0.2c-0.3,0.2-0.6,0.3-1.2,0.3
			c-0.8,0-1.5-0.4-1.5-1.3c0-1.2,1.4-1.5,2.6-1.5v-0.3c0-0.5-0.4-0.8-0.8-0.8c-0.2,0-0.5,0.1-0.7,0.1l-0.2,0.7l-0.6-0.1v-0.9
			C142.3,316.5,142.8,316.4,143.3,316.4z M142.7,319.5c0,0.5,0.4,0.7,0.6,0.7c0.2,0,0.6-0.1,0.7-0.4v-1.2
			C143.2,318.6,142.7,319,142.7,319.5z"/>
		<path class="st11" d="M150.5,320.7h-2.1l-0.1-0.5l0.6-0.2v-2.9h-0.4l-0.1-0.5l1.1-0.1l0.5,0.1v3.5l0.6,0.2L150.5,320.7z M150,315
			c0,0.3-0.3,0.6-0.6,0.6s-0.6-0.3-0.6-0.6c0-0.3,0.3-0.6,0.6-0.6S150,314.7,150,315z"/>
		<path class="st11" d="M152.6,318.4c0,0.9,0.3,1.7,1.2,1.7c0.4,0,0.9-0.1,1.3-0.4l0.3,0.5c-0.4,0.4-1.1,0.6-1.6,0.6
			c-1.6,0-2.4-0.9-2.4-2.2c0-1.4,1-2.2,2.4-2.2c0.4,0,1,0.1,1.5,0.4v0.9l-0.6,0.1l-0.2-0.7c-0.2-0.1-0.5-0.1-0.7-0.1
			C153.1,317,152.6,317.5,152.6,318.4z"/>
		<path class="st11" d="M159.9,319.7l0.3,0.5c-0.6,0.5-1.1,0.6-1.7,0.6c-1.7,0-2.5-0.9-2.5-2.2c0-1.4,1-2.2,2.3-2.2
			c1.1,0,2,0.6,2,1.5c0,0.2-0.1,0.6-0.2,0.8h-2.8c0,0.9,0.5,1.5,1.3,1.5C158.9,320.1,159.4,320,159.9,319.7z M159.1,317.8
			c0-0.5-0.4-0.8-0.8-0.8c-0.6,0-1,0.4-1,1.1h1.8C159.1,318,159.1,317.9,159.1,317.8z"/>
	</g>
	<g>
		<circle class="st20" cx="139" cy="225.8" r="2"/>
		<line class="st21" x1="139" y1="195.6" x2="139" y2="223.3"/>
	</g>
</g>
<g id="_x31__dose">
	<g>
		<circle class="st13" cx="139.3" cy="167.1" r="29.7"/>
	</g>
	<g>
		<path class="st1" d="M137.5,169.3v-15.1H134l-0.4-2.4l6-1.4h2.3v18.9l3.6,0.7l-0.4,2.3h-10.9l-0.4-2.4L137.5,169.3z"/>
		<path class="st1" d="M133.3,183.2c-1.4,0-2.2-0.8-2.2-2.2c0-1.3,0.9-2.2,2.3-2.2c0.2,0,0.5,0,0.8,0.1v-1.8h-0.5l-0.1-0.5l1.2-0.1
			l0.5,0.1v5.8l0.6,0.2l-0.1,0.5h-1.2l-0.3-0.2C134.1,183.1,133.7,183.2,133.3,183.2z M133.4,179.5c-0.7,0-1.1,0.6-1.1,1.5
			s0.5,1.6,1.1,1.6c0.3,0,0.6-0.1,0.8-0.3v-2.6C133.9,179.6,133.6,179.5,133.4,179.5z"/>
		<path class="st1" d="M140.7,181c0,1.4-0.8,2.2-2.2,2.2s-2.3-0.9-2.3-2.2s0.9-2.2,2.3-2.2C139.9,178.8,140.7,179.7,140.7,181z
			 M137.4,181c0,1,0.4,1.7,1.1,1.7c0.7,0,1.1-0.7,1.1-1.7s-0.4-1.6-1.1-1.6C137.8,179.4,137.4,180,137.4,181z"/>
		<path class="st1" d="M141.5,182.9v-1.1l0.6-0.1l0.3,0.9c0.1,0.1,0.5,0.1,0.6,0.1c0.4,0,0.8-0.2,0.8-0.5s-0.5-0.5-0.9-0.7
			c-0.6-0.3-1.4-0.7-1.4-1.4c0-0.8,0.7-1.2,1.8-1.2c0.5,0,1,0.1,1.4,0.4v0.9l-0.6,0.1l-0.2-0.7c-0.2-0.1-0.5-0.1-0.7-0.1
			c-0.4,0-0.7,0.2-0.7,0.5c0,0.4,0.7,0.6,1.2,0.8c0.6,0.3,1.1,0.6,1.1,1.3c0,0.8-0.7,1.3-1.8,1.3C142.6,183.2,142,183.1,141.5,182.9
			z"/>
		<path class="st1" d="M149.4,182.2l0.3,0.5c-0.6,0.5-1.1,0.6-1.7,0.6c-1.7,0-2.5-0.9-2.5-2.2c0-1.4,1-2.2,2.3-2.2
			c1.1,0,2,0.6,2,1.5c0,0.2-0.1,0.6-0.2,0.8h-2.8c0,0.9,0.5,1.5,1.3,1.5C148.5,182.6,149,182.5,149.4,182.2z M148.7,180.2
			c0-0.5-0.4-0.8-0.8-0.8c-0.6,0-1,0.4-1,1.1h1.8C148.7,180.4,148.7,180.3,148.7,180.2z"/>
	</g>
</g>
</svg>
