<svg id="Camada_1" data-name="Camada 1" xmlns="http://www.w3.org/2000/svg" viewBox="0 0 292.93 310.32"><defs><style>.cls-1{fill:#efefef;opacity:0;}.cls-2{fill:#ff278f;}.cls-3{fill:#fff;}.cls-4,.cls-5{fill:none;stroke:#bcbcbc;stroke-width:0.47px;}.cls-4{stroke-linecap:round;stroke-linejoin:round;}.cls-5{stroke-miterlimit:10;}.cls-6{fill:#4c4c4c;}.cls-7{fill:#e239ca;}.cls-8{fill:#6660e2;}.cls-9{fill:#ae4ef2;}</style></defs><title>info13</title><rect id="Fundo" class="cls-1" width="292.82" height="310.32"/><g id="Título"><path class="cls-2" d="M290.09,49.68H20.7A11.34,11.34,0,0,1,9.36,38.34V27A19.84,19.84,0,0,1,29.2,7.2H290.09A2.84,2.84,0,0,1,292.93,10V46.85A2.84,2.84,0,0,1,290.09,49.68Z"/><g id="Título-2" data-name="Título"><path class="cls-3" d="M31.58,23.83l.62-1.67.85.12v1.94a5.4,5.4,0,0,1-2.84.78,4.11,4.11,0,0,1-4.39-4.4,4.22,4.22,0,0,1,4.39-4.4,5.41,5.41,0,0,1,2.84.77v1.87l-.87.13-.55-1.57a6,6,0,0,0-1.42-.19c-1.67,0-2.6,1.07-2.6,3.33,0,1.63.54,3.46,2.6,3.46A6.18,6.18,0,0,0,31.58,23.83Z"/><path class="cls-3" d="M42.23,20.6c0,2.47-1.26,4.4-4.13,4.4S34,22.81,34,20.6a4.17,4.17,0,0,1,4.14-4.4C40.78,16.2,42.23,18.13,42.23,20.6Zm-6.47-.06c0,2.27.78,3.46,2.34,3.46s2.35-1.25,2.35-3.46-.81-3.33-2.35-3.33S35.76,18.28,35.76,20.54Z"/><path class="cls-3" d="M44.25,17.65l-1-.39.12-.86h2.49l3.37,5,.44,1.25v-5l-1-.39.12-.86h2.68l.11.86-1,.39V24.8l-1,.2-4.41-6.58v5.16l1,.37L46,24.8H43.38L43.25,24l1-.39Z"/><path class="cls-3" d="M55.43,16.2A5.06,5.06,0,0,1,58,17v1.87l-.87.13-.56-1.61a4.68,4.68,0,0,0-1.14-.15c-.88,0-1.42.39-1.42,1.07,0,.87,1.43,1.34,1.89,1.57,1.26.52,2.46,1.32,2.46,2.75s-1,2.4-3.17,2.4a4.74,4.74,0,0,1-2.65-.78V22.28l.85-.12L54,23.73a3.23,3.23,0,0,0,1.11.27c1,0,1.75-.38,1.75-1,0-.95-1.43-1.42-2.26-1.83s-2.1-1-2.1-2.67C52.5,17,53.89,16.2,55.43,16.2Z"/><path class="cls-3" d="M60.25,21.21V17.65l-1-.39.12-.86H62.8l.12.86-1,.39v3.64c0,1.91.6,2.71,1.86,2.71s2-.9,2-2.69V17.65l-1-.39.15-.86h2.68l.12.86-1,.39v3.56c0,3.11-1.58,3.79-3.12,3.79S60.25,24.34,60.25,21.21Z"/><path class="cls-3" d="M72.83,25l-2.1-5.74-.54,4.3,1,.39L71,24.8H68.38L68.24,24l1-.39.7-5.91-1-.39.14-.86H71.5l1.94,5.25v1.19l2.38-6.44h2.47l.14.86-1,.39L78,23.58,79,24l-.12.85H75.48L75.36,24l1-.37L75.86,19,73.73,24.8Z"/><path class="cls-3" d="M88.45,20.6c0,2.47-1.26,4.4-4.13,4.4s-4.13-2.19-4.13-4.4a4.16,4.16,0,0,1,4.13-4.4C87,16.2,88.45,18.13,88.45,20.6ZM82,20.54c0,2.27.78,3.46,2.33,3.46s2.36-1.25,2.36-3.46-.82-3.33-2.36-3.33S82,18.28,82,20.54Z"/><path class="cls-3" d="M92.61,24l1-.37V17.65l-1-.39.12-.86h3.55c3,0,4.36,1.82,4.36,4.14a4,4,0,0,1-4.4,4.26h-3.5Zm2.65,0h1c1.76,0,2.57-1.62,2.57-3.43s-.81-3.26-2.57-3.26h-1Z"/><path class="cls-3" d="M104.08,20h1.23l.36-1,.87.12V21.8l-.86.12-.37-1h-1.23v3h2.36l.64-1.8.85.12V24.8h-6.37l-.12-.85,1-.37V17.65l-1-.39.13-.86h6.17v2.14l-.86.13-.47-1.41h-2.31Z"/><path class="cls-3" d="M114.43,20h1.24l.36-1,.86.12V21.8l-.85.12-.37-1h-1.24v3h2.37l.63-1.8.85.12V24.8h-6.37L111.8,24l1-.37V17.65l-1-.39.13-.86h6.18v2.14l-.86.13-.47-1.41h-2.32Z"/><path class="cls-3" d="M122.23,16.2a5,5,0,0,1,2.57.77v1.87l-.86.13-.57-1.61a4.68,4.68,0,0,0-1.14-.15c-.87,0-1.41.39-1.41,1.07,0,.87,1.43,1.34,1.88,1.57,1.26.52,2.46,1.32,2.46,2.75s-1,2.4-3.17,2.4a4.74,4.74,0,0,1-2.65-.78V22.28l.85-.12.62,1.57a3.17,3.17,0,0,0,1.1.27c1,0,1.75-.38,1.75-1,0-.95-1.43-1.42-2.25-1.83s-2.1-1-2.1-2.67C119.31,17,120.7,16.2,122.23,16.2Z"/><path class="cls-3" d="M133.35,16.4v2.45l-.85.13-.63-1.72h-1.29v6.32l1,.37-.12.85H128l-.12-.85,1-.37V17.26h-1.27L127,19l-.85-.13V16.4Z"/><path class="cls-3" d="M138.25,24l-.14.85H134.7l-.14-.85,1-.37V17.65l-1-.39.14-.86h3.41l.14.86-1,.39v5.93Z"/><path class="cls-3" d="M143.92,25l-2.1-5.74-.54,4.3,1,.39-.12.85h-2.66l-.15-.85,1-.39.7-5.91-1-.39.13-.86h2.41l1.95,5.25v1.19l2.37-6.44h2.47l.15.86-1,.39.58,5.93,1,.37-.12.85h-3.39l-.12-.85,1-.37L147,19l-2.13,5.84Z"/><path class="cls-3" d="M151.92,21.21V17.65l-1-.39.12-.86h3.43l.12.86-1,.39v3.64c0,1.91.6,2.71,1.86,2.71s2-.9,2-2.69V17.65l-1-.39.14-.86h2.69l.12.86-1,.39v3.56c0,3.11-1.57,3.79-3.12,3.79S151.92,24.34,151.92,21.21Z"/><path class="cls-3" d="M163.66,17.26l-1,.39V24H165l.66-1.8.85.12V24.8h-6.37L160,24l1-.39V17.65l-1-.39.12-.86h3.43Z"/><path class="cls-3" d="M174.56,23.56l1.06.39-.13.85H172l-.14-.85.95-.39-.54-1.43h-2.81l-.57,1.43,1.13.38-.12.86h-3l-.13-.85,1-.39,2.76-7.16,1.31-.2Zm-3.39-5.78-1.35,3.41h2.1l-.75-2Z"/><path class="cls-3" d="M177,17.65l-1-.39.12-.86h2.49l3.37,5,.43,1.25v-5l-1-.39.12-.86h2.67l.12.86-1,.39V24.8l-1,.2-4.41-6.58v5.16l1,.37-.13.85h-2.65L176,24l1-.39Z"/><path class="cls-3" d="M192.33,16.4v2.45l-.85.13-.63-1.72h-1.29v6.32l1,.37-.12.85H187L186.9,24l1-.37V17.26h-1.27L186,19l-.85-.13V16.4Z"/><path class="cls-3" d="M195.9,20h1.24l.36-1,.86.12V21.8l-.85.12-.37-1H195.9v3h2.36l.64-1.8.85.12V24.8h-6.37l-.12-.85,1-.37V17.65l-1-.39.13-.86h6.18v2.14l-.87.13-.46-1.41H195.9Z"/><path class="cls-3" d="M203.7,16.2a5,5,0,0,1,2.57.77v1.87l-.87.13-.56-1.61a4.68,4.68,0,0,0-1.14-.15c-.88,0-1.42.39-1.42,1.07,0,.87,1.43,1.34,1.89,1.57,1.26.52,2.46,1.32,2.46,2.75s-1,2.4-3.17,2.4a4.74,4.74,0,0,1-2.65-.78V22.28l.85-.12.61,1.57a3.23,3.23,0,0,0,1.11.27c1,0,1.75-.38,1.75-1,0-.95-1.43-1.42-2.26-1.83s-2.1-1-2.1-2.67C200.77,17,202.16,16.2,203.7,16.2Z"/><path class="cls-3" d="M211.45,17.65l-1-.39.12-.86h2.49l3.37,5,.43,1.25v-5l-1-.39.12-.86h2.67l.12.86-1,.39V24.8l-1,.2-4.41-6.58v5.16l1,.37-.13.85h-2.65l-.13-.85,1-.39Z"/><path class="cls-3" d="M228.09,20.6c0,2.47-1.26,4.4-4.12,4.4s-4.14-2.19-4.14-4.4A4.16,4.16,0,0,1,224,16.2C226.64,16.2,228.09,18.13,228.09,20.6Zm-6.46-.06c0,2.27.78,3.46,2.34,3.46s2.35-1.25,2.35-3.46-.82-3.33-2.35-3.33S221.63,18.28,221.63,20.54Z"/><path class="cls-3" d="M232.25,24l1-.37V17.65l-1-.39.13-.86h4.33a2.1,2.1,0,0,1,2.18,2A2,2,0,0,1,238,20.1a2.42,2.42,0,0,1,1.69,2.29,2.51,2.51,0,0,1-2.78,2.41h-4.5Zm4.3,0a1.53,1.53,0,0,0,1.32-1.68,1.58,1.58,0,0,0-1.58-1.62h-.89v-.94h.51a1.23,1.23,0,1,0-.1-2.45h-.91V24Z"/><path class="cls-3" d="M244.36,24l-.14.85h-3.38l-.13-.85,1-.37V17.65l-1-.39.14-.86H245c1.8,0,2.77.93,2.77,2.41a2.47,2.47,0,0,1-2.5,2.24l.79.4,1.2,2.13,1.05.37-.13.85h-2.63l.12-.66-1.78-3.09v-.76h.77a1.5,1.5,0,0,0,1.5-1.48,1.46,1.46,0,0,0-1.6-1.55h-1.17v6.3Z"/><path class="cls-3" d="M256.52,23.56l1.06.39-.13.85H254l-.13-.85,1-.39-.54-1.43h-2.81l-.57,1.43,1.13.38-.12.86h-3l-.13-.85,1-.39,2.76-7.16,1.3-.2Zm-3.39-5.78-1.35,3.41h2.1l-.75-2Z"/><path class="cls-3" d="M261.2,16.2a5,5,0,0,1,2.57.77v1.87l-.86.13-.57-1.61a4.68,4.68,0,0,0-1.14-.15c-.87,0-1.41.39-1.41,1.07,0,.87,1.43,1.34,1.88,1.57,1.26.52,2.46,1.32,2.46,2.75s-1,2.4-3.17,2.4a4.76,4.76,0,0,1-2.65-.78V22.28l.85-.12.62,1.57a3.17,3.17,0,0,0,1.1.27c1,0,1.75-.38,1.75-1,0-.95-1.43-1.42-2.25-1.83s-2.1-1-2.1-2.67C258.28,17,259.67,16.2,261.2,16.2Z"/><path class="cls-3" d="M269.07,24l-.14.85h-3.41l-.14-.85,1-.37V17.65l-1-.39.14-.86h3.41l.14.86-1,.39v5.93Z"/><path class="cls-3" d="M273.9,17.26l-1,.39V24h2.31l.66-1.8.85.12V24.8h-6.36l-.12-.85,1-.39V17.65l-1-.39.12-.86h3.43Z"/><path class="cls-3" d="M112.31,35.91c0-2.48,1.15-5.92,3.93-5.92v1c-1.65,0-2.37,2.54-2.37,4.9s.7,5.3,2.37,5.3v1C113.26,42.11,112.31,38.37,112.31,35.91Z"/><path class="cls-3" d="M120.59,31.66l-1,.39v6.3h2.31l.66-1.8.85.12V39.2H117l-.12-.85,1-.39V32.05l-1-.39.12-.86h3.43Z"/><path class="cls-3" d="M126.6,34.4h1.24l.36-1,.86.12V36.2l-.85.12-.37-1H126.6v3H129l.64-1.8.85.12V39.2h-6.37l-.12-.85,1-.37V32.05l-1-.39.13-.86h6.18v2.14l-.87.13-.46-1.41H126.6Z"/><path class="cls-3" d="M132.17,32.05l-1-.39.12-.86h2.5l3.37,5,.43,1.25v-5l-1-.39.12-.86h2.68l.12.86-1,.39V39.2l-1,.2-4.42-6.58V38l1,.37-.13.85h-2.65l-.14-.85,1-.39Z"/><path class="cls-3" d="M147.8,38l1.06.39-.13.85h-3.49l-.14-.85,1-.39-.54-1.43H142.7L142.13,38l1.13.38-.12.86h-3l-.13-.85,1-.39,2.76-7.16,1.3-.2Zm-3.39-5.78-1.35,3.41h2.1l-.75-2Z"/><path class="cls-3" d="M149.39,38.35l1-.37V32.05l-1-.39.12-.86h3.55c3,0,4.36,1.82,4.36,4.14A4,4,0,0,1,153,39.2h-3.5Zm2.65,0h1c1.76,0,2.58-1.62,2.58-3.43s-.82-3.26-2.58-3.26h-1Z"/><path class="cls-3" d="M163,32.4l-.36,1.19-.8-.16V31.84a5.1,5.1,0,0,1,2.11-.5,2.1,2.1,0,0,1,2.35,2.09c0,2.4-3,3.25-3.43,4.49h2.22l.27-.83.81.15v2h-4.56v-.64c0-2.14,3.11-3.09,3.11-5.26,0-.79-.38-1.07-.81-1.07A2.37,2.37,0,0,0,163,32.4Z"/><path class="cls-3" d="M173.94,35.33c0,1.87-.63,4-2.94,4s-3-2-3-4,.83-4,3-4S173.94,33.45,173.94,35.33Zm-4.26,0c0,1.51.41,3.15,1.32,3.15s1.27-1.63,1.27-3.15S172,32.23,171,32.23,169.68,33.77,169.68,35.28Z"/><path class="cls-3" d="M176.66,38.13V32.8h-1.22l-.16-.84,2.13-.48h.81v6.65l1.27.24-.15.83h-3.85l-.15-.84Z"/><path class="cls-3" d="M182.1,32.4l-.36,1.19-.8-.16V31.84a5,5,0,0,1,2.11-.5,2.1,2.1,0,0,1,2.35,2.09c0,2.4-3,3.25-3.43,4.49h2.22l.27-.83.81.15v2h-4.56v-.64c0-2.14,3.1-3.09,3.1-5.26,0-.79-.37-1.07-.8-1.07A2.37,2.37,0,0,0,182.1,32.4Z"/><path class="cls-3" d="M188.89,35.85c0-2.36-.72-4.9-2.37-4.9V30c2.78,0,3.93,3.44,3.93,5.92s-.95,6.2-3.93,6.2v-1C188.2,41.15,188.89,38.22,188.89,35.85Z"/></g></g><g id="Gráfico"><line class="cls-4" x1="41.63" y1="263.17" x2="284.4" y2="263.17"/><line class="cls-5" x1="41.63" y1="263.17" x2="41.63" y2="258.18"/><line class="cls-4" x1="163.01" y1="263.17" x2="163.01" y2="258.18"/><line class="cls-4" x1="284.4" y1="263.17" x2="284.4" y2="258.18"/><path class="cls-6" d="M29.81,264.53c0,1.4-.47,3-2.2,3s-2.26-1.54-2.26-3,.63-3,2.26-3S29.81,263.13,29.81,264.53Zm-3.2,0c0,1.14.31,2.37,1,2.37s.95-1.22.95-2.37-.23-2.28-.95-2.28S26.61,263.36,26.61,264.49Z"/><path class="cls-6" d="M31.92,267a2.78,2.78,0,0,1-1.28,2.1l-.32-.33a1.83,1.83,0,0,0,.71-1.3H30.9a.71.71,0,0,1-.21-.47.62.62,0,0,1,1.23,0Z"/><path class="cls-6" d="M37.24,264.53c0,1.4-.47,3-2.21,3s-2.25-1.54-2.25-3,.62-3,2.25-3S37.24,263.13,37.24,264.53Zm-3.2,0c0,1.14.31,2.37,1,2.37s.95-1.22.95-2.37-.23-2.28-.95-2.28S34,263.36,34,264.49Z"/><path class="cls-6" d="M30.71,244.56c0,1.41-.47,3-2.2,3s-2.26-1.54-2.26-3,.63-3,2.26-3S30.71,243.16,30.71,244.56Zm-3.2,0c0,1.14.31,2.37,1,2.37s.95-1.22.95-2.37-.23-2.28-.95-2.28S27.51,243.39,27.51,244.52Z"/><path class="cls-6" d="M32.82,247a2.78,2.78,0,0,1-1.28,2.1l-.32-.33a1.83,1.83,0,0,0,.71-1.3H31.8a.69.69,0,0,1-.21-.47.62.62,0,0,1,1.23,0Z"/><path class="cls-6" d="M35.44,243.71a1.75,1.75,0,0,1,1.79,1.84,1.93,1.93,0,0,1-2.11,2,2.74,2.74,0,0,1-1.77-.66l.36-.55a2.37,2.37,0,0,0,1.36.54c.52,0,1-.43,1-1.31s-.29-1.21-.9-1.21a1.57,1.57,0,0,0-.87.27l-.48-.2.36-2.8h2.1l.2-.62.6.12v1.47H34.75l-.17,1.3A2,2,0,0,1,35.44,243.71Z"/><path class="cls-6" d="M28,226.7v-4h-.92l-.12-.63,1.6-.36h.61v5l.95.18-.11.62H27.15l-.11-.63Z"/><path class="cls-6" d="M31.92,227a2.78,2.78,0,0,1-1.28,2.1l-.32-.33a1.83,1.83,0,0,0,.71-1.3H30.9a.69.69,0,0,1-.21-.47.62.62,0,0,1,1.23,0Z"/><path class="cls-6" d="M37.24,224.59c0,1.41-.47,3-2.21,3s-2.25-1.54-2.25-3,.62-3,2.25-3S37.24,223.19,37.24,224.59Zm-3.2,0c0,1.13.31,2.36,1,2.36s.95-1.22.95-2.36-.23-2.29-.95-2.29S34,223.42,34,224.56Z"/><path class="cls-6" d="M28.93,206.73v-4H28l-.12-.63,1.6-.36h.61v5l.95.18-.11.62H28.05l-.11-.63Z"/><path class="cls-6" d="M32.82,207.06a2.78,2.78,0,0,1-1.28,2.1l-.32-.32a1.87,1.87,0,0,0,.71-1.31H31.8a.69.69,0,0,1-.21-.47.62.62,0,0,1,1.23,0Z"/><path class="cls-6" d="M35.44,203.77a1.75,1.75,0,0,1,1.79,1.84,1.93,1.93,0,0,1-2.11,2,2.68,2.68,0,0,1-1.77-.66l.36-.55a2.37,2.37,0,0,0,1.36.54c.52,0,1-.43,1-1.31,0-.73-.29-1.21-.9-1.21a1.57,1.57,0,0,0-.87.27l-.49-.19.36-2.8h2.11l.2-.62.6.11v1.47H34.75l-.17,1.3A2,2,0,0,1,35.44,203.77Z"/><path class="cls-6" d="M27.28,182.46l-.27.89-.6-.12V182a3.85,3.85,0,0,1,1.58-.37,1.58,1.58,0,0,1,1.77,1.57c0,1.8-2.28,2.44-2.58,3.37h1.67l.2-.62.61.11v1.47H26.24v-.48c0-1.61,2.33-2.32,2.33-4,0-.59-.28-.8-.61-.8A1.79,1.79,0,0,0,27.28,182.46Z"/><path class="cls-6" d="M31.92,187.09a2.76,2.76,0,0,1-1.28,2.1l-.32-.32a1.87,1.87,0,0,0,.71-1.31H30.9a.67.67,0,0,1-.21-.47.62.62,0,0,1,1.23,0Z"/><path class="cls-6" d="M37.24,184.65c0,1.41-.47,3-2.21,3s-2.25-1.54-2.25-3,.62-3,2.25-3S37.24,183.25,37.24,184.65Zm-3.2,0c0,1.13.31,2.37,1,2.37s.95-1.23.95-2.37-.23-2.29-.95-2.29S34,183.48,34,184.62Z"/><path class="cls-6" d="M28.18,162.49l-.27.89-.6-.12v-1.19a3.7,3.7,0,0,1,1.58-.37,1.58,1.58,0,0,1,1.77,1.56c0,1.8-2.28,2.44-2.58,3.37h1.67L30,166l.61.12v1.46H27.14v-.47c0-1.62,2.33-2.33,2.33-4,0-.59-.28-.8-.61-.8A1.79,1.79,0,0,0,28.18,162.49Z"/><path class="cls-6" d="M32.82,167.12a2.76,2.76,0,0,1-1.28,2.1l-.32-.32a1.87,1.87,0,0,0,.71-1.31H31.8a.67.67,0,0,1-.21-.47.62.62,0,0,1,1.23,0Z"/><path class="cls-6" d="M35.44,163.83a1.75,1.75,0,0,1,1.79,1.85,1.92,1.92,0,0,1-2.11,2,2.73,2.73,0,0,1-1.77-.65l.36-.55a2.44,2.44,0,0,0,1.36.54c.52,0,1-.44,1-1.32,0-.73-.29-1.2-.9-1.2a1.5,1.5,0,0,0-.87.27l-.48-.2.36-2.8h2.1l.2-.62.6.11v1.47H34.75L34.58,164A1.85,1.85,0,0,1,35.44,163.83Z"/><path class="cls-6" d="M29.86,145.82a1.91,1.91,0,0,1-2.09,1.89,2.57,2.57,0,0,1-1.7-.65l.37-.55a2.27,2.27,0,0,0,1.28.54,1.11,1.11,0,0,0,1-1.2c0-.66-.42-1-1.16-1l-.42.08-.3-.42,1.78-2-.74.28h-.8l-.21.63-.6-.12v-1.47h3.21l.22.48-1.55,1.78A1.73,1.73,0,0,1,29.86,145.82Z"/><path class="cls-6" d="M31.92,147.16a2.76,2.76,0,0,1-1.28,2.09l-.32-.32a1.85,1.85,0,0,0,.71-1.31H30.9a.67.67,0,0,1-.21-.46.62.62,0,1,1,1.23,0Z"/><path class="cls-6" d="M37.24,144.72c0,1.4-.47,3-2.21,3s-2.25-1.54-2.25-3,.62-3,2.25-3S37.24,143.31,37.24,144.72Zm-3.2,0c0,1.13.31,2.37,1,2.37s.95-1.23.95-2.37-.23-2.29-.95-2.29S34,143.55,34,144.68Z"/><path class="cls-6" d="M30.76,125.85a1.91,1.91,0,0,1-2.09,1.89,2.57,2.57,0,0,1-1.7-.65l.37-.55a2.27,2.27,0,0,0,1.28.54,1.12,1.12,0,0,0,1-1.2c0-.66-.42-1-1.16-1L28,125l-.3-.42,1.78-2-.74.28H28l-.21.63-.6-.12v-1.47h3.21l.22.48L29,124.13A1.71,1.71,0,0,1,30.76,125.85Z"/><path class="cls-6" d="M32.82,127.19a2.76,2.76,0,0,1-1.28,2.09l-.32-.32a1.83,1.83,0,0,0,.71-1.3H31.8a.71.71,0,0,1-.21-.47.62.62,0,1,1,1.23,0Z"/><path class="cls-6" d="M35.44,123.89a1.75,1.75,0,0,1,1.79,1.85,1.92,1.92,0,0,1-2.11,2,2.73,2.73,0,0,1-1.77-.65l.36-.55a2.44,2.44,0,0,0,1.36.54c.52,0,1-.43,1-1.32,0-.72-.29-1.2-.9-1.2a1.57,1.57,0,0,0-.87.27l-.48-.2.36-2.8h2.1l.2-.62.6.12v1.46H34.75l-.17,1.31A1.85,1.85,0,0,1,35.44,123.89Z"/><path class="cls-6" d="M25.62,105.72l2.88-3.93.57.15v3.57h.83l-.16.65h-.67v.73l.95.18-.12.62H27l-.11-.63,1-.17v-.73h-2Zm2.68-2.49-1.67,2.28h1.28v-1.08Z"/><path class="cls-6" d="M31.92,107.22a2.8,2.8,0,0,1-1.28,2.1l-.32-.33a1.83,1.83,0,0,0,.71-1.3H30.9a.71.71,0,0,1-.21-.47.62.62,0,0,1,1.23,0Z"/><path class="cls-6" d="M37.24,104.78c0,1.4-.47,3-2.21,3s-2.25-1.54-2.25-3,.62-3,2.25-3S37.24,103.37,37.24,104.78Zm-3.2,0c0,1.14.31,2.37,1,2.37s.95-1.22.95-2.37-.23-2.28-.95-2.28S34,103.61,34,104.74Z"/><path class="cls-6" d="M26.52,85.75l2.88-3.93L30,82v3.57h.83l-.16.66H30v.72l1,.18-.12.62H27.94l-.11-.63,1-.17V86.2h-2Zm2.68-2.49-1.67,2.28h1.28V84.46Z"/><path class="cls-6" d="M32.82,87.25a2.8,2.8,0,0,1-1.28,2.1L31.22,89a1.83,1.83,0,0,0,.71-1.3H31.8a.71.71,0,0,1-.21-.47.62.62,0,0,1,1.23,0Z"/><path class="cls-6" d="M35.44,84a1.75,1.75,0,0,1,1.79,1.85,1.93,1.93,0,0,1-2.11,2,2.74,2.74,0,0,1-1.77-.66l.36-.55a2.37,2.37,0,0,0,1.36.54c.52,0,1-.43,1-1.31s-.29-1.21-.9-1.21a1.57,1.57,0,0,0-.87.27l-.48-.2.36-2.8h2.1l.2-.62.6.12v1.47H34.75l-.17,1.3A2,2,0,0,1,35.44,84Z"/><path class="cls-6" d="M28,64a1.75,1.75,0,0,1,1.78,1.85,1.93,1.93,0,0,1-2.1,2,2.76,2.76,0,0,1-1.78-.66l.36-.55a2.42,2.42,0,0,0,1.36.54c.52,0,1-.43,1-1.31s-.29-1.21-.9-1.21a1.57,1.57,0,0,0-.86.27l-.49-.2.36-2.8h2.11l.2-.62.6.12v1.47H27.33l-.17,1.3A2,2,0,0,1,28,64Z"/><path class="cls-6" d="M31.92,67.28a2.78,2.78,0,0,1-1.28,2.1l-.32-.33a1.83,1.83,0,0,0,.71-1.3H30.9a.71.71,0,0,1-.21-.47.62.62,0,0,1,1.23,0Z"/><path class="cls-6" d="M37.24,64.84c0,1.4-.47,3-2.21,3s-2.25-1.54-2.25-3,.62-3,2.25-3S37.24,63.44,37.24,64.84Zm-3.2,0c0,1.14.31,2.37,1,2.37S36,66,36,64.8s-.23-2.28-.95-2.28S34,63.67,34,64.8Z"/><line class="cls-4" x1="41.63" y1="263.17" x2="41.63" y2="63.48"/><line class="cls-4" x1="41.63" y1="263.17" x2="284.4" y2="263.17"/><line class="cls-4" x1="41.63" y1="243.2" x2="284.4" y2="243.2"/><line class="cls-4" x1="41.63" y1="223.23" x2="284.4" y2="223.23"/><line class="cls-4" x1="41.63" y1="203.26" x2="284.4" y2="203.26"/><line class="cls-4" x1="41.63" y1="183.29" x2="284.4" y2="183.29"/><line class="cls-4" x1="41.63" y1="163.33" x2="284.4" y2="163.33"/><line class="cls-4" x1="41.63" y1="143.36" x2="284.4" y2="143.36"/><line class="cls-4" x1="41.63" y1="123.39" x2="284.4" y2="123.39"/><line class="cls-4" x1="41.63" y1="103.42" x2="284.4" y2="103.42"/><line class="cls-4" x1="41.63" y1="83.45" x2="284.4" y2="83.45"/><line class="cls-4" x1="41.63" y1="63.48" x2="284.4" y2="63.48"/><rect class="cls-7" x="40.64" y="288.9" width="18.72" height="15.17"/><rect class="cls-7" x="57.01" y="79.46" width="25.9" height="183.71"/><rect class="cls-7" x="178.39" y="175.31" width="25.9" height="87.86"/><rect class="cls-8" x="120.37" y="288.66" width="18.72" height="15.17"/><rect class="cls-8" x="89.37" y="127.38" width="25.9" height="135.79"/><rect class="cls-8" x="210.76" y="219.24" width="25.9" height="43.93"/><rect class="cls-9" x="200.64" y="288.91" width="18.72" height="15.17"/><rect class="cls-9" x="121.74" y="103.42" width="25.9" height="159.75"/><rect class="cls-9" x="243.13" y="199.27" width="25.9" height="63.9"/><path class="cls-6" d="M225.58,299.82a1.39,1.39,0,0,1-.73-.16.86.86,0,0,1-.39-.48,2.31,2.31,0,0,1-.11-.8v-2.12h-.49v-.77a3.16,3.16,0,0,0,.46-.18.59.59,0,0,0,.27-.27c0-.06.06-.13.09-.22l.1-.27c0-.09.07-.18.1-.26h.83v1h1.09v1h-1.09v1.58a2.87,2.87,0,0,0,0,.61q0,.19.15.24a.58.58,0,0,0,.29.05.82.82,0,0,0,.21,0l.23-.07a.61.61,0,0,0,.18-.08l.15.8a.92.92,0,0,1-.31.21,2,2,0,0,1-.49.17A2.32,2.32,0,0,1,225.58,299.82Z"/><path class="cls-6" d="M229.48,299.82a2.33,2.33,0,0,1-1-.19,1.67,1.67,0,0,1-.65-.52,2.12,2.12,0,0,1-.35-.76,3.84,3.84,0,0,1-.11-.91,2.59,2.59,0,0,1,.29-1.2,1.89,1.89,0,0,1,.77-.74,2.4,2.4,0,0,1,1.12-.25,2.09,2.09,0,0,1,1.24.33,1.72,1.72,0,0,1,.66.86,3,3,0,0,1,.19,1.18,2.49,2.49,0,0,1-.28,1.21,1.83,1.83,0,0,1-.77.74A2.37,2.37,0,0,1,229.48,299.82Zm0-1a.56.56,0,0,0,.56-.31,2.14,2.14,0,0,0,.16-.95,3.37,3.37,0,0,0-.06-.66,1.08,1.08,0,0,0-.22-.47.51.51,0,0,0-.41-.18.59.59,0,0,0-.58.31,2.22,2.22,0,0,0-.16.93,2.81,2.81,0,0,0,.07.67,1.07,1.07,0,0,0,.22.48A.52.52,0,0,0,229.51,298.82Z"/><path class="cls-6" d="M233.77,299.82a1.37,1.37,0,0,1-.72-.16.86.86,0,0,1-.39-.48,2.29,2.29,0,0,1-.12-.8v-2.12h-.48v-.77a3.16,3.16,0,0,0,.46-.18.53.53,0,0,0,.26-.27,1.65,1.65,0,0,0,.09-.22l.11-.27c0-.09.07-.18.1-.26h.83v1H235v1h-1.09v1.58a3,3,0,0,0,0,.61.32.32,0,0,0,.15.24.6.6,0,0,0,.29.05.86.86,0,0,0,.22,0l.23-.07a.54.54,0,0,0,.17-.08l.16.8a1,1,0,0,1-.31.21,2.09,2.09,0,0,1-.5.17A2.27,2.27,0,0,1,233.77,299.82Z"/><path class="cls-6" d="M237,299.82a1.37,1.37,0,0,1-.72-.18,1.22,1.22,0,0,1-.48-.5,1.61,1.61,0,0,1-.17-.74,1.19,1.19,0,0,1,.2-.68,1.32,1.32,0,0,1,.56-.45,2.21,2.21,0,0,1,.55-.17,4.11,4.11,0,0,1,.6-.08l.56,0,.2.26-.2.44-.27,0-.27,0-.2.06a.82.82,0,0,0-.22.16.45.45,0,0,0-.1.34.59.59,0,0,0,.16.46.57.57,0,0,0,.37.14.78.78,0,0,0,.22,0l.19-.07a.31.31,0,0,0,.12-.09l.22.3-.15.34a1.83,1.83,0,0,1-.46.3A1.53,1.53,0,0,1,237,299.82Zm2.46-.06h-1.29v-.66h-.07v-2.36q0-.3-.15-.39a.88.88,0,0,0-.44-.09,2.89,2.89,0,0,0-.5,0,2.71,2.71,0,0,0-.51.11,2.15,2.15,0,0,0-.43.16l-.28-.85a1.92,1.92,0,0,1,.45-.21,4.33,4.33,0,0,1,.66-.2,3.65,3.65,0,0,1,.74-.08,2.79,2.79,0,0,1,1.06.17,1,1,0,0,1,.58.53,2.23,2.23,0,0,1,.18,1Z"/><path class="cls-6" d="M240.52,299.76v-6.5h1.37v6.5Z"/><path class="cls-6" d="M145.21,299.52V293h1.37v1.68l-.07,1,0-.12a1.6,1.6,0,0,1,.34-.26,2.28,2.28,0,0,1,.47-.23,1.71,1.71,0,0,1,.55-.09,1.14,1.14,0,0,1,1,.41,2.13,2.13,0,0,1,.33,1.32v2.79h-1.38V297a1.18,1.18,0,0,0-.13-.68.44.44,0,0,0-.41-.16,1.16,1.16,0,0,0-.32.06.94.94,0,0,0-.35.22v3.1Z"/><path class="cls-6" d="M152,299.58a2.27,2.27,0,0,1-1-.19,1.6,1.6,0,0,1-.65-.52,2.14,2.14,0,0,1-.36-.76,3.39,3.39,0,0,1-.1-.91,2.37,2.37,0,0,1,.29-1.2,1.87,1.87,0,0,1,.76-.74,2.4,2.4,0,0,1,1.12-.25,2.07,2.07,0,0,1,1.24.33,1.79,1.79,0,0,1,.67.86,3.48,3.48,0,0,1,.19,1.18,2.49,2.49,0,0,1-.29,1.21,1.81,1.81,0,0,1-.76.74A2.4,2.4,0,0,1,152,299.58Zm0-1a.57.57,0,0,0,.56-.31,2.29,2.29,0,0,0,.16-.95,3.34,3.34,0,0,0-.07-.66,1,1,0,0,0-.21-.47A.53.53,0,0,0,152,296a.58.58,0,0,0-.57.31,2.07,2.07,0,0,0-.16.93,3.48,3.48,0,0,0,.06.67,1.19,1.19,0,0,0,.22.48A.55.55,0,0,0,152,298.58Z"/><path class="cls-6" d="M154.92,299.52v-4.46h1.24l0,.48a2.81,2.81,0,0,1,.36-.24,2.06,2.06,0,0,1,.48-.21,1.65,1.65,0,0,1,.54-.09,1.27,1.27,0,0,1,.7.15,1,1,0,0,1,.43.54,3.06,3.06,0,0,1,.14,1v2.82h-1.36V297a2.17,2.17,0,0,0,0-.51.45.45,0,0,0-.16-.26.49.49,0,0,0-.31-.07,1,1,0,0,0-.35.07.93.93,0,0,0-.33.21v3.1Zm3.86-3.06-.22-.89a1.54,1.54,0,0,1,.31-.23,2.43,2.43,0,0,1,.51-.24,1.87,1.87,0,0,1,.64-.1,1.61,1.61,0,0,1,.73.15,1,1,0,0,1,.46.53,2.63,2.63,0,0,1,.17,1v2.81H160V297a2.17,2.17,0,0,0,0-.51.39.39,0,0,0-.17-.25.48.48,0,0,0-.31-.07.86.86,0,0,0-.41.1A2,2,0,0,0,158.78,296.46Z"/><path class="cls-6" d="M164.27,299.58a2,2,0,0,1-1.56-.61,2.92,2.92,0,0,1-.28-2.86,1.88,1.88,0,0,1,.72-.81,2.13,2.13,0,0,1,1.13-.29,2.84,2.84,0,0,1,.66.08,1.55,1.55,0,0,1,.56.28,1.49,1.49,0,0,1,.4.56,2.26,2.26,0,0,1,.15.89c0,.16,0,.31,0,.45s0,.27,0,.36h-3.13l.08-.72h1.82a1.86,1.86,0,0,0,0-.54.69.69,0,0,0-.17-.33.53.53,0,0,0-.34-.1.62.62,0,0,0-.4.13.87.87,0,0,0-.24.48,3.36,3.36,0,0,0-.08.93,1.41,1.41,0,0,0,.13.63.84.84,0,0,0,.36.34,1.41,1.41,0,0,0,.57.11,3.07,3.07,0,0,0,.42,0,2.59,2.59,0,0,0,.42-.09,1.58,1.58,0,0,0,.29-.1l.21.76a1.38,1.38,0,0,1-.39.23,2.12,2.12,0,0,1-.57.18A3.14,3.14,0,0,1,164.27,299.58Z"/><path class="cls-6" d="M166.91,299.52v-4.46h1.24l0,.52a2.14,2.14,0,0,1,.83-.49,1.71,1.71,0,0,1,.55-.09,1.15,1.15,0,0,1,1,.37,2.07,2.07,0,0,1,.32,1.34v2.81h-1.36V297a1.3,1.3,0,0,0-.12-.67.42.42,0,0,0-.42-.17l-.22,0-.24.09a1.16,1.16,0,0,0-.21.16v3.1Z"/><path class="cls-6" d="M171.65,299.22l.14-1a.93.93,0,0,0,.25.15,2.35,2.35,0,0,0,.45.17,1.91,1.91,0,0,0,.54.08,1.07,1.07,0,0,0,.47-.08.26.26,0,0,0,.14-.24.3.3,0,0,0-.1-.21,1.39,1.39,0,0,0-.28-.16l-.38-.15a3,3,0,0,1-.74-.39,1.23,1.23,0,0,1-.38-.48,1.48,1.48,0,0,1-.12-.61,1.12,1.12,0,0,1,.24-.72,1.51,1.51,0,0,1,.63-.43,2.75,2.75,0,0,1,.88-.14,3.49,3.49,0,0,1,.86.09,1.69,1.69,0,0,1,.49.18l-.12,1a1.09,1.09,0,0,0-.24-.16A3,3,0,0,0,174,296a1.51,1.51,0,0,0-.41-.06,1.17,1.17,0,0,0-.5.08.24.24,0,0,0-.14.23.28.28,0,0,0,.15.26,4.29,4.29,0,0,0,.49.22,4,4,0,0,1,.8.38,1.34,1.34,0,0,1,.44.45,1.11,1.11,0,0,1,.14.6,1.23,1.23,0,0,1-.48,1.05,2.14,2.14,0,0,1-1.29.36,4.68,4.68,0,0,1-.67-.05,3.63,3.63,0,0,1-.55-.15A1.28,1.28,0,0,1,171.65,299.22Z"/><path class="cls-6" d="M65.69,299.47V295h1.25l0,.48a4.37,4.37,0,0,1,.36-.25,2.3,2.3,0,0,1,.48-.2,1.6,1.6,0,0,1,.53-.09,1.31,1.31,0,0,1,.71.15.92.92,0,0,1,.42.53,2.91,2.91,0,0,1,.14,1v2.82H68.25v-2.55a1.71,1.71,0,0,0,0-.5.38.38,0,0,0-.16-.26.54.54,0,0,0-.31-.08,1,1,0,0,0-.34.08.92.92,0,0,0-.34.21v3.1Zm3.87-3.07-.23-.88a1.87,1.87,0,0,1,.31-.24,2.18,2.18,0,0,1,.51-.23,2,2,0,0,1,.65-.1,1.67,1.67,0,0,1,.73.15,1,1,0,0,1,.46.53,2.65,2.65,0,0,1,.16,1v2.81H70.78v-2.55a2.27,2.27,0,0,0,0-.51.46.46,0,0,0-.17-.26.57.57,0,0,0-.31-.07.84.84,0,0,0-.41.11A1.45,1.45,0,0,0,69.56,296.4Z"/><path class="cls-6" d="M74.52,299.53a1.55,1.55,0,0,1-.74-.14,1,1,0,0,1-.43-.39,1.83,1.83,0,0,1-.2-.61,5.78,5.78,0,0,1-.05-.75V295h1.36v2.66a1.69,1.69,0,0,0,.06.51.5.5,0,0,0,.19.25.71.71,0,0,0,.31.06,1,1,0,0,0,.25,0,1,1,0,0,0,.21-.08l.14-.1V295H77v4.52H76a.32.32,0,0,1-.19,0s-.07-.09-.07-.19V299l0,.07a1.59,1.59,0,0,1-.36.23,2.41,2.41,0,0,1-.45.16A2.47,2.47,0,0,1,74.52,299.53Z"/><path class="cls-6" d="M78,299.47V293h1.37v6.5Z"/><path class="cls-6" d="M80.44,299.47V293h1.37v1.67l-.08,1,0-.12a2.13,2.13,0,0,1,.34-.26,2.92,2.92,0,0,1,.47-.22,1.65,1.65,0,0,1,.54-.09,1.15,1.15,0,0,1,1,.4,2.27,2.27,0,0,1,.32,1.33v2.79H83v-2.55a1.18,1.18,0,0,0-.14-.68.47.47,0,0,0-.4-.16.93.93,0,0,0-.32.07.77.77,0,0,0-.35.22v3.1Z"/><path class="cls-6" d="M87.29,299.53a2,2,0,0,1-1.56-.61,2.5,2.5,0,0,1-.54-1.7,2.71,2.71,0,0,1,.25-1.16,2,2,0,0,1,.72-.81A2.1,2.1,0,0,1,87.3,295,2.32,2.32,0,0,1,88,295a1.41,1.41,0,0,1,.56.28,1.39,1.39,0,0,1,.4.56,2.23,2.23,0,0,1,.16.88c0,.16,0,.32,0,.46a3,3,0,0,1,0,.36H85.9l.07-.72H87.8a2.18,2.18,0,0,0,0-.54.58.58,0,0,0-.17-.33.49.49,0,0,0-.33-.11.61.61,0,0,0-.4.14.9.9,0,0,0-.25.48,3.89,3.89,0,0,0-.07.93,1.22,1.22,0,0,0,.13.62.72.72,0,0,0,.36.35,1.36,1.36,0,0,0,.56.11l.43,0a3.62,3.62,0,0,0,.41-.09,1.12,1.12,0,0,0,.3-.11l.21.77a1.54,1.54,0,0,1-.39.23,2.24,2.24,0,0,1-.57.18A3.14,3.14,0,0,1,87.29,299.53Z"/><path class="cls-6" d="M89.89,299.47V295h1.2l.06.79.11.12v3.55Zm1.29-2.63-.06-1a1.22,1.22,0,0,1,.26-.44,1.19,1.19,0,0,1,.43-.3,1.26,1.26,0,0,1,.55-.11h.18a.33.33,0,0,1,.13,0v1.43a.79.79,0,0,0-.16-.08,1.15,1.15,0,0,0-.3,0,1.29,1.29,0,0,0-.51.09,1.36,1.36,0,0,0-.33.22A1.63,1.63,0,0,0,91.18,296.84Z"/><path class="cls-6" d="M95.23,299.53a2,2,0,0,1-1.56-.61,2.5,2.5,0,0,1-.54-1.7,2.71,2.71,0,0,1,.25-1.16,2,2,0,0,1,.72-.81,2.1,2.1,0,0,1,1.14-.29,2.32,2.32,0,0,1,.65.08,1.41,1.41,0,0,1,.56.28,1.51,1.51,0,0,1,.41.56,2.24,2.24,0,0,1,.15.88c0,.16,0,.32,0,.46a3,3,0,0,1,0,.36H93.84l.07-.72h1.83a2.18,2.18,0,0,0,0-.54.58.58,0,0,0-.17-.33.49.49,0,0,0-.33-.11.61.61,0,0,0-.4.14.9.9,0,0,0-.25.48,3.89,3.89,0,0,0-.07.93,1.33,1.33,0,0,0,.13.62.72.72,0,0,0,.36.35,1.36,1.36,0,0,0,.56.11l.43,0a3.62,3.62,0,0,0,.41-.09,1.12,1.12,0,0,0,.3-.11l.21.77a1.38,1.38,0,0,1-.39.23,2.12,2.12,0,0,1-.57.18A3.14,3.14,0,0,1,95.23,299.53Z"/><path class="cls-6" d="M97.64,299.17l.14-1a.93.93,0,0,0,.25.15,3.28,3.28,0,0,0,.45.17,2,2,0,0,0,.54.07.94.94,0,0,0,.47-.07.26.26,0,0,0,.14-.25.26.26,0,0,0-.1-.2,1,1,0,0,0-.28-.16l-.38-.16a2.6,2.6,0,0,1-.73-.38,1.24,1.24,0,0,1-.5-1.09,1.13,1.13,0,0,1,.23-.72,1.48,1.48,0,0,1,.64-.43,2.41,2.41,0,0,1,.87-.14,3.52,3.52,0,0,1,.87.09,1.73,1.73,0,0,1,.48.18l-.12,1-.23-.15A1.78,1.78,0,0,0,100,296a1.45,1.45,0,0,0-.41-.06,1.2,1.2,0,0,0-.5.08.24.24,0,0,0-.14.22.29.29,0,0,0,.15.27c.11,0,.27.13.49.21a4.6,4.6,0,0,1,.8.39,1.29,1.29,0,0,1,.45.45,1.21,1.21,0,0,1,.13.6,1.23,1.23,0,0,1-.48,1.05,2.12,2.12,0,0,1-1.29.36,3.52,3.52,0,0,1-.66-.06,2.59,2.59,0,0,1-.55-.14A1.57,1.57,0,0,1,97.64,299.17Z"/><path class="cls-6" d="M197.38,271.35v2.73l.57.2-.1.55h-2.08l-.09-.55.56-.2v-2.91h-.4l-.1-.55,1.15-.1.37.24a3.9,3.9,0,0,1,1.13-.24c1,0,1.71.54,1.71,1.52v2l.56.2-.11.55H198.5l-.11-.55.57-.2v-2.17a.76.76,0,0,0-.8-.74A2.75,2.75,0,0,0,197.38,271.35Z"/><path class="cls-6" d="M205.65,272.72a2,2,0,0,1-2.24,2.2,2,2,0,0,1-2.25-2.2,2.08,2.08,0,0,1,2.25-2.2A2.06,2.06,0,0,1,205.65,272.72Zm-3.33,0c0,1,.38,1.66,1.09,1.66s1.09-.66,1.09-1.66-.43-1.6-1.09-1.6S202.32,271.7,202.32,272.69Z"/><path class="cls-6" d="M211,271.17l-.1-.53,1.16-.12.45.14v3.42l.58.2-.11.55h-1.23l-.27-.21a2,2,0,0,1-1.19.3,1.52,1.52,0,0,1-1.63-1.64v-2.11h-.37l-.1-.53,1.08-.12.52.13v2.71a.82.82,0,0,0,.82.91,1.11,1.11,0,0,0,.76-.34v-2.76Zm-.77-1.6.66-1.64.87.42-1.13,1.43Z"/><path class="cls-6" d="M215.65,274.83h-2.16l-.11-.55.62-.2v-5.33h-.47l-.1-.51,1.17-.14.53.14v5.84l.62.2Z"/><path class="cls-6" d="M219,270.62l-.11.55h-1.08v2.6a.47.47,0,0,0,.39.5,1.2,1.2,0,0,0,.76-.43l.39.47a1.72,1.72,0,0,1-1.3.61,1.22,1.22,0,0,1-1.37-1.22v-2.53h-.52l-.09-.49.68-.21.39-1,.67.16v.95Z"/><path class="cls-6" d="M221.66,274.83h-2.07l-.11-.55.58-.2v-2.91h-.42l-.1-.55,1.1-.1.55.1v3.46l.58.2Zm-.52-5.69a.59.59,0,1,1-.59-.59A.59.59,0,0,1,221.14,269.14Z"/><path class="cls-6" d="M227.17,274.28l-.11.55H225l-.11-.55.57-.2v-2.2a.69.69,0,0,0-.71-.71,2.82,2.82,0,0,0-.79.18v2.73l.57.2-.11.55h-2l-.11-.55.57-.2v-2.91h-.41l-.1-.55,1.13-.1.37.24a3.91,3.91,0,0,1,1.12-.24,1.7,1.7,0,0,1,1.18.34,3,3,0,0,1,1.29-.34c1.17,0,1.79.54,1.79,1.52v2l.58.2-.11.55h-2l-.11-.55.57-.2V272a.79.79,0,0,0-.82-.79,1.93,1.93,0,0,0-.8.18,1.65,1.65,0,0,1,.13.68v2.05Z"/><path class="cls-6" d="M234.76,272.72a2,2,0,0,1-2.24,2.2,2,2,0,0,1-2.25-2.2,2.08,2.08,0,0,1,2.25-2.2A2.06,2.06,0,0,1,234.76,272.72Zm-3.33,0c0,1,.39,1.66,1.09,1.66s1.1-.66,1.1-1.66-.43-1.6-1.1-1.6S231.43,271.7,231.43,272.69Z"/><path class="cls-6" d="M239.14,270.52a1.62,1.62,0,0,1,1.85,1.69v1.87l.5.2-.1.55h-1.15l-.27-.21a2,2,0,0,1-1.16.3c-.81,0-1.52-.43-1.52-1.25,0-1.22,1.43-1.5,2.57-1.5v-.32a.73.73,0,0,0-.77-.76,2.77,2.77,0,0,0-.67.1l-.19.68-.61-.11v-.86A3.54,3.54,0,0,1,239.14,270.52Zm-.62,3.07a.62.62,0,0,0,.63.68,1,1,0,0,0,.71-.36v-1.18C239,272.73,238.52,273.08,238.52,273.59Z"/><path class="cls-6" d="M243.42,271.35v2.73l.58.2-.1.55h-2.08l-.1-.55.57-.2v-2.91h-.41l-.1-.55,1.15-.1.37.24a3.9,3.9,0,0,1,1.13-.24c1,0,1.71.54,1.71,1.52v2l.57.2-.11.55h-2l-.11-.55.56-.2v-2.17a.76.76,0,0,0-.8-.74A2.83,2.83,0,0,0,243.42,271.35Z"/><path class="cls-6" d="M251.69,272.72a2,2,0,0,1-2.24,2.2,2,2,0,0,1-2.25-2.2,2.08,2.08,0,0,1,2.25-2.2A2.06,2.06,0,0,1,251.69,272.72Zm-3.33,0c0,1,.39,1.66,1.09,1.66s1.1-.66,1.1-1.66-.43-1.6-1.1-1.6S248.36,271.7,248.36,272.69Z"/><path class="cls-6" d="M89.66,271.35v2.73l.58.2-.1.55H88.06l-.1-.55.57-.2v-2.91h-.41l-.09-.55,1.15-.1.37.24a3.76,3.76,0,0,1,1.12-.24c1,0,1.71.54,1.71,1.52v2l.57.2-.11.55h-2l-.11-.55.57-.2v-2.17a.76.76,0,0,0-.8-.74A2.82,2.82,0,0,0,89.66,271.35Z"/><path class="cls-6" d="M95.21,270.52a1.62,1.62,0,0,1,1.85,1.69v1.87l.51.2-.11.55H96.32l-.27-.21a2,2,0,0,1-1.17.3c-.81,0-1.52-.43-1.52-1.25,0-1.22,1.43-1.5,2.57-1.5v-.32a.73.73,0,0,0-.77-.76,2.69,2.69,0,0,0-.66.1l-.2.68-.6-.11v-.86A3.47,3.47,0,0,1,95.21,270.52Zm-.61,3.07a.62.62,0,0,0,.62.68.94.94,0,0,0,.71-.36v-1.18C95.09,272.73,94.6,273.08,94.6,273.59Z"/><path class="cls-6" d="M101.86,274.92l-1.55-3.55-.58-.2.1-.55h2.11l.11.55-.51.2.77,1.73v.82l1.12-2.56-.54-.19.1-.55h1.59l.11.55-.6.2-1.4,3.46Z"/><path class="cls-6" d="M107.18,274.83h-2.07l-.11-.55.58-.2v-2.91h-.42l-.1-.55,1.1-.1.55.1v3.46l.58.2Zm-.52-5.69a.59.59,0,0,1-1.17,0,.59.59,0,1,1,1.17,0Z"/><path class="cls-6" d="M110,274.92a2,2,0,0,1-2.23-2.17,2.15,2.15,0,0,1,2.28-2.23,3,3,0,0,1,.78.12v-1.89h-.48l-.1-.51,1.18-.14.54.14v5.84l.58.2-.11.55h-1.22l-.27-.21A1.7,1.7,0,0,1,110,274.92Zm.1-3.75c-.7,0-1.1.56-1.1,1.49s.45,1.61,1.06,1.61a1.1,1.1,0,0,0,.77-.28v-2.64A1.64,1.64,0,0,0,110.11,271.17Z"/><path class="cls-6" d="M114.55,270.52a1.62,1.62,0,0,1,1.85,1.69v1.87l.51.2-.11.55h-1.14l-.27-.21a2,2,0,0,1-1.16.3c-.82,0-1.53-.43-1.53-1.25,0-1.22,1.43-1.5,2.57-1.5v-.32a.73.73,0,0,0-.77-.76,2.69,2.69,0,0,0-.66.1l-.2.68-.6-.11v-.86A3.47,3.47,0,0,1,114.55,270.52Zm-.61,3.07a.62.62,0,0,0,.62.68.94.94,0,0,0,.71-.36v-1.18C114.43,272.73,113.94,273.08,113.94,273.59Z"/><path class="cls-6" d="M14.6,186.89c0-.56-.66-1.21-1.74-1.21s-1.37.36-1.37.84a2.31,2.31,0,0,0,.18.88h4.88l.2-.54.55.1v1.94l-.55.1-.2-.53H11.49v.46l-.55.11-.1-1.14.28-.37a2.85,2.85,0,0,1-.28-1.08,1.82,1.82,0,0,1,2.08-1.94,2.22,2.22,0,0,1,2.23,2.36v.18H14.6Z"/><path class="cls-6" d="M13,179.59a2,2,0,0,1,2.2,2.12,2,2,0,0,1-2.2,2.12,2.12,2.12,0,1,1,0-4.24Zm0,3.15c1,0,1.66-.37,1.66-1s-.66-1-1.66-1-1.6.41-1.6,1S12,182.74,13,182.74Z"/><path class="cls-6" d="M11.53,176.24a1.51,1.51,0,0,0,0,.34,2.62,2.62,0,0,0,.18.77H14.4l.2-.71.55.11v2.1l-.55.11-.2-.54H11.49v.38l-.55.1-.1-1.1.24-.35a3.32,3.32,0,0,1-.24-1.1,2.35,2.35,0,0,1,.2-.87h1.05l.1.57Z"/><path class="cls-6" d="M12.88,173.89c.94,0,1.71-.3,1.71-1.16a2.23,2.23,0,0,0-.41-1.23l.45-.29a2.25,2.25,0,0,1,.62,1.56,2,2,0,0,1-2.2,2.28,2.12,2.12,0,0,1-2.21-2.3,3.11,3.11,0,0,1,.38-1.41h.87l.1.57-.67.18a2.15,2.15,0,0,0-.11.64C11.41,173.42,12,173.89,12.88,173.89Z"/><path class="cls-6" d="M14.18,167l.45-.29a2.39,2.39,0,0,1,.62,1.65A2,2,0,0,1,13,170.69a2.08,2.08,0,0,1-2.2-2.18c0-1,.58-1.85,1.46-1.85a1.85,1.85,0,0,1,.76.18v2.68c.9,0,1.53-.47,1.53-1.2A2.26,2.26,0,0,0,14.18,167Zm-1.94.72a.76.76,0,0,0-.83.78c0,.55.44.91,1.09,1v-1.75Z"/><path class="cls-6" d="M11.67,164.46H14.4l.2-.55.55.09v2l-.55.09-.2-.53H11.49v.38l-.55.09-.1-1.09.24-.34a3.5,3.5,0,0,1-.24-1.07,1.44,1.44,0,0,1,1.53-1.61h2l.2-.54.55.11v1.93l-.55.1-.2-.53H12.23a.74.74,0,0,0-.74.76A2.58,2.58,0,0,0,11.67,164.46Z"/><path class="cls-6" d="M10.94,158.21l.55.1v1h2.6a.46.46,0,0,0,.5-.37,1.12,1.12,0,0,0-.43-.72l.47-.36a1.58,1.58,0,0,1,.61,1.22A1.18,1.18,0,0,1,14,160.4H11.49v.49L11,161l-.21-.64L9.84,160l.15-.64h.95Z"/><path class="cls-6" d="M10.84,155.87a1.57,1.57,0,0,1,1.7-1.75H14.4l.2-.48.55.11v1.08l-.21.25a1.78,1.78,0,0,1,.31,1.1A1.29,1.29,0,0,1,14,157.61c-1.22,0-1.5-1.35-1.5-2.42h-.31a.71.71,0,0,0-.77.72,2.87,2.87,0,0,0,.1.63l.68.19-.1.57h-.87A3.13,3.13,0,0,1,10.84,155.87Zm3.07.58a.6.6,0,0,0,.68-.59.88.88,0,0,0-.36-.67H13.05C13.05,156,13.4,156.45,13.91,156.45Z"/><path class="cls-6" d="M15.87,149.7c1.07,0,1.53,1,1.53,2,0,.83-.31,1.64-1.1,1.64a1.25,1.25,0,0,1-1-.9l.4-.3a.72.72,0,0,0,.58.37c.28,0,.51-.32.51-.81s-.27-.91-.66-.91-.61.4-.73.75l-.29.87a.85.85,0,0,1-.77.67l-.72-.41a1.37,1.37,0,0,1-1.18.52,1.63,1.63,0,0,1-1.57-1.73,3,3,0,0,1,.1-.75l-.11-1.17.66.12v.5l.25-.38a1.63,1.63,0,0,1,.67-.13c1,0,1.55.8,1.55,1.87a2.27,2.27,0,0,1-.07.59l.07,0c.1,0,.17-.1.22-.25l.27-.75C14.77,150.3,15.11,149.7,15.87,149.7Zm-3.49,2.49c.67,0,1-.31,1-.72s-.31-.78-1-.78-1,.4-1,.78S11.73,152.19,12.38,152.19Z"/><path class="cls-6" d="M14.18,145.45l.45-.29a2.39,2.39,0,0,1,.62,1.64A2,2,0,0,1,13,149.12a2.08,2.08,0,0,1-2.2-2.17c0-1,.58-1.86,1.46-1.86a1.85,1.85,0,0,1,.76.19V148c.9,0,1.53-.47,1.53-1.2A2.24,2.24,0,0,0,14.18,145.45Zm-1.94.71a.76.76,0,0,0-.83.79c0,.55.44.91,1.09,1v-1.74Z"/><path class="cls-6" d="M11.67,142.89H14.4l.2-.54.55.09v2l-.55.1-.2-.54H11.49v.38l-.55.1-.1-1.09.24-.35a3.43,3.43,0,0,1-.24-1.06,1.44,1.44,0,0,1,1.53-1.62h2l.2-.53.55.1v1.94l-.55.1-.2-.53H12.23a.73.73,0,0,0-.74.75A2.5,2.5,0,0,0,11.67,142.89Z"/><path class="cls-6" d="M14.87,139.15H13.81l-.12-.57.89-.29a2.18,2.18,0,0,0,.09-.54c0-.42-.15-.78-.49-.78s-.54.46-.73.84c-.27.56-.65,1.33-1.44,1.33s-1.17-.67-1.17-1.69a2.54,2.54,0,0,1,.38-1.31h.87l.1.58-.69.18a2.74,2.74,0,0,0-.09.64c0,.34.2.62.47.62s.56-.68.77-1.11c.3-.58.59-1.06,1.28-1.06s1.31.66,1.31,1.69A3.53,3.53,0,0,1,14.87,139.15Z"/><path class="cls-6" d="M60.13,74.29l-.21-.43.29-.65.27-.64c.09-.21.17-.42.26-.62s.16-.42.25-.62.16-.42.25-.62l.27-.64.29-.65h.28l.58.35c-.1.2-.19.38-.27.56s-.17.36-.24.54-.15.35-.22.52-.15.35-.23.52-.16.35-.24.54-.17.36-.27.56l-.31.57h3.4v.71Zm2.42,1.17V73.53l.09-1.92h.78v3.85Z"/><path class="cls-6" d="M65.18,77.05V77a.89.89,0,0,0,.34-.39,1.39,1.39,0,0,0,.13-.61,1.06,1.06,0,0,0-.06-.34,1.14,1.14,0,0,0-.17-.31.32.32,0,0,0-.22-.14V74.9l.57-.52a.84.84,0,0,1,.4.32,1.33,1.33,0,0,1,.23.46,2.14,2.14,0,0,1,.07.49,2.3,2.3,0,0,1-.14.79,2,2,0,0,1-.36.62,1.35,1.35,0,0,1-.49.35Z"/><path class="cls-6" d="M67.46,73.22A4,4,0,0,1,67.64,72a4.47,4.47,0,0,1,.5-1,4,4,0,0,1,.72-.81,3.83,3.83,0,0,1,.84-.58,3.37,3.37,0,0,1,.85-.31l.23.59a2.87,2.87,0,0,0-1,.45,3.21,3.21,0,0,0-.75.72,3.41,3.41,0,0,0-.49.87,2.79,2.79,0,0,0-.18.93,4.58,4.58,0,0,0,.07,1,1.62,1.62,0,0,0,.33.75.85.85,0,0,0,.68.29.89.89,0,0,0,.57-.19,1.15,1.15,0,0,0,.34-.51,1.76,1.76,0,0,0,.11-.66,2.06,2.06,0,0,0-.11-.74.8.8,0,0,0-.3-.38.83.83,0,0,0-.4-.11,1.12,1.12,0,0,0-.38.06,1.17,1.17,0,0,0-.25.12l-.22-.55a.63.63,0,0,1,.21-.15,1.51,1.51,0,0,1,.36-.13,1.73,1.73,0,0,1,.47-.06,1.37,1.37,0,0,1,.82.24,1.55,1.55,0,0,1,.51.64,2.05,2.05,0,0,1,.18.87,2.56,2.56,0,0,1-.13.82,2,2,0,0,1-.37.7,1.67,1.67,0,0,1-.62.49,2.08,2.08,0,0,1-.89.18,1.71,1.71,0,0,1-1-.31,2.06,2.06,0,0,1-.66-.85A2.7,2.7,0,0,1,67.46,73.22Z"/><path class="cls-6" d="M73.6,72.89a1.16,1.16,0,0,1-.72-.22,1.53,1.53,0,0,1-.45-.6,2.12,2.12,0,0,1-.15-.81,1.81,1.81,0,0,1,.2-.9A1.51,1.51,0,0,1,73,69.8a1.39,1.39,0,0,1,.71-.2,1.22,1.22,0,0,1,.76.2,1.33,1.33,0,0,1,.43.6,2.37,2.37,0,0,1,.14.83,1.81,1.81,0,0,1-.21.9,1.43,1.43,0,0,1-.53.56A1.58,1.58,0,0,1,73.6,72.89Zm.06-.61a.53.53,0,0,0,.47-.27,1.47,1.47,0,0,0,.16-.75,1.55,1.55,0,0,0-.16-.77.51.51,0,0,0-.46-.29.51.51,0,0,0-.47.28,1.35,1.35,0,0,0-.17.75,1.54,1.54,0,0,0,.16.75A.52.52,0,0,0,73.66,72.28Zm.45,3.18,2.36-6h.74l-2.36,6Zm3.52-.17a1.17,1.17,0,0,1-.73-.22,1.48,1.48,0,0,1-.45-.59,2.21,2.21,0,0,1-.15-.82,1.75,1.75,0,0,1,.2-.89A1.46,1.46,0,0,1,77,72.2a1.39,1.39,0,0,1,.71-.2,1.16,1.16,0,0,1,.76.21,1.25,1.25,0,0,1,.43.59,2.45,2.45,0,0,1,.14.83,1.81,1.81,0,0,1-.21.9,1.43,1.43,0,0,1-.53.56A1.57,1.57,0,0,1,77.63,75.29Zm.05-.61a.51.51,0,0,0,.47-.27,1.47,1.47,0,0,0,.16-.75,1.55,1.55,0,0,0-.16-.77.5.5,0,0,0-.46-.29.52.52,0,0,0-.47.28,1.35,1.35,0,0,0-.17.75,1.54,1.54,0,0,0,.16.75A.53.53,0,0,0,77.68,74.68Z"/><path class="cls-6" d="M93.3,123.68v-.63l.32,0,.3,0a3,3,0,0,0,.94-.14,1.52,1.52,0,0,0,.63-.4.85.85,0,0,0,.23-.58,1.21,1.21,0,0,0-.13-.58.82.82,0,0,0-.4-.38,1.52,1.52,0,0,0-.74-.09l-.36.09-.17-.62.37-.1.34-.14a1.69,1.69,0,0,0,.6-.42.93.93,0,0,0,.22-.58.65.65,0,0,0-.24-.59,1,1,0,0,0-.61-.18,1.56,1.56,0,0,0-.68.13,2.92,2.92,0,0,0-.47.28l-.32-.54a2.24,2.24,0,0,1,.38-.26,3.37,3.37,0,0,1,.54-.24,2.14,2.14,0,0,1,1.46.06,1.3,1.3,0,0,1,.59.46,1.26,1.26,0,0,1,.22.76,1.37,1.37,0,0,1-.18.69,1.65,1.65,0,0,1-.46.53,2.08,2.08,0,0,1-.62.34v-.11a1.64,1.64,0,0,1,.86.19,1.35,1.35,0,0,1,.52.54,1.47,1.47,0,0,1,.18.71,1.51,1.51,0,0,1-.3.89,2.16,2.16,0,0,1-.87.68,3.2,3.2,0,0,1-1.34.26,3,3,0,0,1-.42,0Z"/><path class="cls-6" d="M97.57,125.29v-.1a.82.82,0,0,0,.33-.39,1.4,1.4,0,0,0,.14-.61,1,1,0,0,0-.07-.35.87.87,0,0,0-.17-.3.3.3,0,0,0-.21-.14v-.26l.57-.52a.94.94,0,0,1,.4.31,1.44,1.44,0,0,1,.22.47,1.73,1.73,0,0,1,.08.49,2.3,2.3,0,0,1-.14.79,2,2,0,0,1-.36.62,1.38,1.38,0,0,1-.5.35Z"/><path class="cls-6" d="M99.9,122.53l-.21-.43.29-.65.27-.64c.09-.21.17-.42.26-.62s.16-.42.25-.62.16-.42.25-.62l.27-.64.29-.65h.28l.58.35c-.1.19-.19.38-.27.56s-.17.36-.24.54-.15.35-.22.52-.15.35-.23.52l-.24.53c-.08.19-.17.37-.27.56l-.31.58h3.4v.71Zm2.42,1.17v-1.94l.09-1.92h.78v3.86Z"/><path class="cls-6" d="M106,121.13a1.23,1.23,0,0,1-.72-.22,1.44,1.44,0,0,1-.45-.6,2.12,2.12,0,0,1-.15-.81,1.81,1.81,0,0,1,.2-.9,1.51,1.51,0,0,1,.53-.56,1.39,1.39,0,0,1,.71-.2,1.22,1.22,0,0,1,.76.2,1.33,1.33,0,0,1,.43.6,2.37,2.37,0,0,1,.14.83,1.81,1.81,0,0,1-.21.9,1.43,1.43,0,0,1-.53.56A1.61,1.61,0,0,1,106,121.13Zm.06-.61a.53.53,0,0,0,.47-.27,1.47,1.47,0,0,0,.16-.75,1.55,1.55,0,0,0-.16-.77.51.51,0,0,0-.46-.29.53.53,0,0,0-.48.28,1.44,1.44,0,0,0-.16.75,1.54,1.54,0,0,0,.16.75A.52.52,0,0,0,106.06,120.52Zm.45,3.18,2.36-6h.74l-2.36,6Zm3.52-.17a1.17,1.17,0,0,1-.73-.22,1.39,1.39,0,0,1-.45-.59,2.21,2.21,0,0,1-.15-.82,1.75,1.75,0,0,1,.2-.89,1.46,1.46,0,0,1,.53-.57,1.39,1.39,0,0,1,.71-.2,1.16,1.16,0,0,1,.76.21,1.25,1.25,0,0,1,.43.59,2.45,2.45,0,0,1,.14.83,1.81,1.81,0,0,1-.21.9,1.34,1.34,0,0,1-.53.55A1.46,1.46,0,0,1,110,123.53Zm0-.61a.51.51,0,0,0,.47-.27,1.47,1.47,0,0,0,.16-.75,1.55,1.55,0,0,0-.16-.77.5.5,0,0,0-.46-.29.52.52,0,0,0-.47.28,1.35,1.35,0,0,0-.17.75,1.54,1.54,0,0,0,.16.75A.52.52,0,0,0,110.08,122.92Z"/><path class="cls-6" d="M128.73,98.47l-.21-.43c.11-.22.2-.44.3-.66l.27-.63.25-.63c.09-.2.17-.41.25-.62l.26-.62c.08-.21.17-.42.26-.63l.29-.66h.29l.57.36-.27.56-.24.53c-.07.18-.15.35-.22.53s-.15.34-.22.52l-.24.53-.27.56-.32.58h3.4v.71Zm2.43,1.16V97.7l.08-1.92H132v3.85Z"/><path class="cls-6" d="M134.84,97.06a1.16,1.16,0,0,1-.72-.22,1.28,1.28,0,0,1-.45-.59,2,2,0,0,1-.16-.81,1.76,1.76,0,0,1,.21-.9,1.39,1.39,0,0,1,.53-.57,1.57,1.57,0,0,1,.7-.2,1.16,1.16,0,0,1,.76.21,1.18,1.18,0,0,1,.43.59,2.25,2.25,0,0,1,.14.84,1.86,1.86,0,0,1-.2.89,1.51,1.51,0,0,1-.53.56A1.39,1.39,0,0,1,134.84,97.06Zm0-.6a.52.52,0,0,0,.48-.28,1.43,1.43,0,0,0,.16-.74,1.55,1.55,0,0,0-.16-.77.49.49,0,0,0-.46-.29.53.53,0,0,0-.48.27,1.5,1.5,0,0,0-.17.76,1.54,1.54,0,0,0,.17.75A.5.5,0,0,0,134.89,96.46Zm.46,3.17,2.36-6h.73l-2.35,6Zm3.51-.17a1.1,1.1,0,0,1-.72-.21,1.37,1.37,0,0,1-.45-.6,2,2,0,0,1-.16-.81,1.81,1.81,0,0,1,.21-.9,1.43,1.43,0,0,1,.53-.56,1.47,1.47,0,0,1,.71-.21,1.19,1.19,0,0,1,.75.21,1.28,1.28,0,0,1,.43.59,2.23,2.23,0,0,1,.14.83,1.87,1.87,0,0,1-.2.9,1.43,1.43,0,0,1-.53.56A1.39,1.39,0,0,1,138.86,99.46Zm0-.6a.52.52,0,0,0,.48-.28,1.43,1.43,0,0,0,.16-.74,1.55,1.55,0,0,0-.16-.77.49.49,0,0,0-.46-.29.53.53,0,0,0-.48.27,1.44,1.44,0,0,0-.17.75,1.55,1.55,0,0,0,.17.76A.51.51,0,0,0,138.91,98.86Z"/><path class="cls-6" d="M182.34,171.87l-.13-.47c.23-.16.47-.36.72-.57s.47-.45.7-.7a5.42,5.42,0,0,0,.59-.77,3.92,3.92,0,0,0,.42-.81,2.31,2.31,0,0,0,.15-.8,1.18,1.18,0,0,0-.25-.82.89.89,0,0,0-.7-.29,1.55,1.55,0,0,0-.71.17,1.88,1.88,0,0,0-.54.39l-.36-.56a3.64,3.64,0,0,1,.39-.34,2.51,2.51,0,0,1,.59-.3,2.37,2.37,0,0,1,.78-.12,1.82,1.82,0,0,1,1,.24,1.56,1.56,0,0,1,.56.66,2.13,2.13,0,0,1,.19.92,3,3,0,0,1-.28,1.22,4.88,4.88,0,0,1-.75,1.18,6.88,6.88,0,0,1-1.12,1l2.36,0v.78Z"/><path class="cls-6" d="M187,173.46v-.09a.93.93,0,0,0,.33-.39,1.4,1.4,0,0,0,.14-.61,1.15,1.15,0,0,0-.07-.35,1,1,0,0,0-.17-.31.37.37,0,0,0-.21-.14v-.26l.56-.51a.85.85,0,0,1,.41.31,1.35,1.35,0,0,1,.22.47,1.69,1.69,0,0,1,.07.48,2.22,2.22,0,0,1-.13.79,2.08,2.08,0,0,1-.37.62,1.27,1.27,0,0,1-.49.36Z"/><path class="cls-6" d="M189.29,171.87l-.13-.47a8.44,8.44,0,0,0,.71-.57,7.71,7.71,0,0,0,.7-.7,6.36,6.36,0,0,0,.6-.77,3.92,3.92,0,0,0,.42-.81,2.31,2.31,0,0,0,.15-.8,1.18,1.18,0,0,0-.25-.82.89.89,0,0,0-.7-.29,1.59,1.59,0,0,0-.72.17,1.82,1.82,0,0,0-.53.39l-.36-.56a2.87,2.87,0,0,1,.39-.34,2.29,2.29,0,0,1,1.36-.42,1.86,1.86,0,0,1,1,.24,1.56,1.56,0,0,1,.56.66,2.29,2.29,0,0,1,.18.92,3,3,0,0,1-.27,1.22,4.92,4.92,0,0,1-.76,1.18,6.43,6.43,0,0,1-1.11,1l2.36,0v.78Z"/><path class="cls-6" d="M195,169.3a1.16,1.16,0,0,1-.72-.22,1.5,1.5,0,0,1-.45-.59,2.16,2.16,0,0,1-.15-.81,1.87,1.87,0,0,1,.2-.9,1.49,1.49,0,0,1,.54-.57,1.53,1.53,0,0,1,.7-.2,1.16,1.16,0,0,1,.76.21,1.25,1.25,0,0,1,.43.59,2.45,2.45,0,0,1,.14.83,1.76,1.76,0,0,1-.21.9,1.42,1.42,0,0,1-1.24.76Zm.06-.6a.52.52,0,0,0,.47-.28,1.42,1.42,0,0,0,.17-.74,1.54,1.54,0,0,0-.17-.77.48.48,0,0,0-.46-.29.53.53,0,0,0-.47.27,1.49,1.49,0,0,0-.17.75,1.56,1.56,0,0,0,.16.76A.52.52,0,0,0,195,168.7Zm.45,3.17,2.36-6h.74l-2.36,6Zm3.52-.17a1.11,1.11,0,0,1-.73-.21,1.53,1.53,0,0,1-.45-.6,2.16,2.16,0,0,1-.15-.81,1.9,1.9,0,0,1,.2-.9,1.53,1.53,0,0,1,.54-.56,1.43,1.43,0,0,1,.7-.21,1.22,1.22,0,0,1,.76.21,1.35,1.35,0,0,1,.43.59,2.45,2.45,0,0,1,.14.83,1.87,1.87,0,0,1-.2.9,1.46,1.46,0,0,1-.54.56A1.32,1.32,0,0,1,199,171.7Zm.05-.6a.51.51,0,0,0,.47-.28,1.42,1.42,0,0,0,.17-.74,1.66,1.66,0,0,0-.16-.77.5.5,0,0,0-.46-.29.53.53,0,0,0-.48.27,1.44,1.44,0,0,0-.17.75,1.58,1.58,0,0,0,.17.76A.5.5,0,0,0,199.05,171.1Z"/><path class="cls-6" d="M216.82,215.55v-4.91l-.41.11-.42.1-.09-.55a2.93,2.93,0,0,0,.39-.16l.42-.2.37-.22a2.22,2.22,0,0,0,.24-.19l.4.07v6Z"/><path class="cls-6" d="M219.43,217.14v-.09a.93.93,0,0,0,.33-.39,1.4,1.4,0,0,0,.14-.61.91.91,0,0,0-.07-.35,1.29,1.29,0,0,0-.16-.31.36.36,0,0,0-.22-.14V215l.57-.51a.82.82,0,0,1,.4.31,1.37,1.37,0,0,1,.23.47,2.14,2.14,0,0,1,.07.48,2.22,2.22,0,0,1-.14.79,1.88,1.88,0,0,1-.36.62,1.27,1.27,0,0,1-.49.36Z"/><path class="cls-6" d="M222.26,215.55v-4.91l-.42.11-.41.1-.1-.55a2.93,2.93,0,0,0,.39-.16l.42-.2.37-.22.25-.19.4.07v6Z"/><path class="cls-6" d="M225.91,213a1.16,1.16,0,0,1-.72-.22,1.43,1.43,0,0,1-.45-.59,2.16,2.16,0,0,1-.15-.81,1.87,1.87,0,0,1,.2-.9,1.54,1.54,0,0,1,.53-.57,1.61,1.61,0,0,1,.71-.2,1.16,1.16,0,0,1,.76.21,1.25,1.25,0,0,1,.43.59,2.45,2.45,0,0,1,.14.83,1.76,1.76,0,0,1-.21.9,1.42,1.42,0,0,1-1.24.76Zm.06-.6a.52.52,0,0,0,.47-.28,1.42,1.42,0,0,0,.17-.74,1.54,1.54,0,0,0-.17-.77.49.49,0,0,0-.46-.29.53.53,0,0,0-.47.27,1.49,1.49,0,0,0-.17.75,1.56,1.56,0,0,0,.16.76A.52.52,0,0,0,226,212.38Zm.45,3.17,2.36-6h.74l-2.36,6Zm3.52-.17a1.11,1.11,0,0,1-.73-.21,1.53,1.53,0,0,1-.45-.6,2.16,2.16,0,0,1-.15-.81,1.93,1.93,0,0,1,.2-.9,1.46,1.46,0,0,1,1.24-.77,1.22,1.22,0,0,1,.76.21,1.35,1.35,0,0,1,.43.59,2.45,2.45,0,0,1,.14.83,1.76,1.76,0,0,1-.21.9,1.37,1.37,0,0,1-.53.56A1.35,1.35,0,0,1,229.94,215.38Zm.05-.6a.51.51,0,0,0,.47-.28,1.43,1.43,0,0,0,.16-.74,1.55,1.55,0,0,0-.16-.77.48.48,0,0,0-.45-.29.53.53,0,0,0-.48.27,1.44,1.44,0,0,0-.17.75,1.45,1.45,0,0,0,.17.76A.5.5,0,0,0,230,214.78Z"/><path class="cls-6" d="M248.44,195.09v-4.91l-.42.11-.42.1-.09-.55a2.93,2.93,0,0,0,.39-.16l.42-.2.37-.22a2.22,2.22,0,0,0,.24-.19l.4.07v6Z"/><path class="cls-6" d="M251,196.68v-.09a.93.93,0,0,0,.33-.39,1.27,1.27,0,0,0,.14-.61.91.91,0,0,0-.07-.35,1.29,1.29,0,0,0-.16-.31.36.36,0,0,0-.22-.14v-.26l.57-.51a.82.82,0,0,1,.4.31,1.37,1.37,0,0,1,.23.47,2.14,2.14,0,0,1,.07.48,2.22,2.22,0,0,1-.14.79,1.88,1.88,0,0,1-.36.62,1.27,1.27,0,0,1-.49.36Z"/><path class="cls-6" d="M253.32,192.85a3.87,3.87,0,0,1,.18-1.2,3.94,3.94,0,0,1,.5-1,4.37,4.37,0,0,1,.72-.82,4.45,4.45,0,0,1,.83-.58,3.54,3.54,0,0,1,.86-.3l.23.58a3.08,3.08,0,0,0-.95.45,3.67,3.67,0,0,0-.75.72,3.47,3.47,0,0,0-.49.88,2.7,2.7,0,0,0-.19.92,4.65,4.65,0,0,0,.08,1,1.62,1.62,0,0,0,.33.75,1,1,0,0,0,1.25.09,1.12,1.12,0,0,0,.34-.5,2.08,2.08,0,0,0,.11-.66,2.12,2.12,0,0,0-.11-.75.77.77,0,0,0-.3-.37.83.83,0,0,0-.4-.11,1.12,1.12,0,0,0-.38.06,1.17,1.17,0,0,0-.25.12l-.22-.55a.63.63,0,0,1,.21-.15,2.08,2.08,0,0,1,.36-.14,2.19,2.19,0,0,1,.47-.05,1.39,1.39,0,0,1,.82.24,1.58,1.58,0,0,1,.51.63,2.13,2.13,0,0,1,.18.88,2.45,2.45,0,0,1-.13.81,2,2,0,0,1-.37.71,1.73,1.73,0,0,1-.63.49,2,2,0,0,1-.88.18,1.71,1.71,0,0,1-1-.32,2,2,0,0,1-.66-.84A2.72,2.72,0,0,1,253.32,192.85Z"/><path class="cls-6" d="M259.46,192.52a1.16,1.16,0,0,1-.72-.22,1.28,1.28,0,0,1-.45-.59,2.16,2.16,0,0,1-.15-.81,1.76,1.76,0,0,1,.2-.9,1.46,1.46,0,0,1,.53-.57,1.61,1.61,0,0,1,.71-.2,1.11,1.11,0,0,1,.75.21,1.2,1.2,0,0,1,.44.59,2.47,2.47,0,0,1,.14.84,1.75,1.75,0,0,1-.21.89,1.37,1.37,0,0,1-.53.56A1.39,1.39,0,0,1,259.46,192.52Zm.06-.6a.52.52,0,0,0,.47-.28,1.43,1.43,0,0,0,.16-.74,1.55,1.55,0,0,0-.16-.77.49.49,0,0,0-.46-.29.53.53,0,0,0-.48.27,1.51,1.51,0,0,0-.16.76,1.54,1.54,0,0,0,.16.75A.52.52,0,0,0,259.52,191.92Zm.45,3.17,2.36-6h.74l-2.36,6Zm3.52-.17a1.11,1.11,0,0,1-.73-.21,1.37,1.37,0,0,1-.45-.6,2.16,2.16,0,0,1-.15-.81,1.81,1.81,0,0,1,.2-.9,1.46,1.46,0,0,1,1.24-.77,1.22,1.22,0,0,1,.76.21,1.35,1.35,0,0,1,.43.59,2.45,2.45,0,0,1,.13.83,1.76,1.76,0,0,1-.2.9,1.37,1.37,0,0,1-.53.56A1.35,1.35,0,0,1,263.49,194.92Zm.05-.6A.52.52,0,0,0,264,194a1.43,1.43,0,0,0,.16-.74,1.55,1.55,0,0,0-.16-.77.48.48,0,0,0-.46-.29.53.53,0,0,0-.47.27,1.35,1.35,0,0,0-.17.75,1.56,1.56,0,0,0,.16.76A.52.52,0,0,0,263.54,194.32Z"/></g></svg>