<?xml version="1.0" encoding="utf-8"?>
<!-- Generator: Adobe Illustrator 25.2.0, SVG Export Plug-In . SVG Version: 6.00 Build 0)  -->
<svg version="1.1" id="Camada_1" xmlns="http://www.w3.org/2000/svg" xmlns:xlink="http://www.w3.org/1999/xlink" x="0px" y="0px"
	 viewBox="0 0 677.2 290.8" style="enable-background:new 0 0 677.2 290.8;" xml:space="preserve">
<style type="text/css">
	.st0{display:none;fill:#EFEFEF;}
	.st1{fill:#FF278F;}
	.st2{fill:none;}
	.st3{fill:#FFFFFF;}
	.st4{fill:none;stroke:#BCBCBC;stroke-width:0.5;stroke-miterlimit:10;}
	.st5{fill:none;stroke:#BCBCBC;stroke-width:0.5;stroke-linecap:round;stroke-linejoin:round;stroke-miterlimit:10;}
	.st6{fill:#4C4C4C;}
	.st7{font-family:'Marta-Bold';}
	.st8{font-size:9px;}
	.st9{fill:#AE4EF2;}
</style>
<rect id="Fundo" class="st0" width="677.2" height="290.8"/>
<g id="Título_1_">
	<g>
		<path class="st1" d="M673.7,30.7H23.6c-3.1,0-5.7-2.5-5.7-5.7v-4.6c0-7.8,6.3-14.2,14.2-14.2h641.6c1.9,0,3.5,1.6,3.5,3.5v17.5
			C677.2,29.1,675.6,30.7,673.7,30.7z"/>
	</g>
	<g id="Título">
		<rect x="32.6" y="14.8" class="st2" width="634" height="18.7"/>
		<path class="st3" d="M105.8,23l1-0.4v-5.9l-1-0.4l0.1-0.9h4.3c1.2,0,2.2,0.9,2.2,2c0,0.7-0.4,1.3-0.9,1.7c1,0.3,1.7,1.2,1.7,2.3
			c0,1.3-1.1,2.4-2.8,2.4H106L105.8,23z M110.2,23c0.8,0,1.3-0.8,1.3-1.7s-0.7-1.6-1.6-1.6H109v-0.9h0.5c0.7,0,1.2-0.5,1.2-1.2
			s-0.3-1.3-1.3-1.3h-0.9V23H110.2z"/>
		<path class="st3" d="M114.9,20.2v-3.6l-1-0.4l0.1-0.9h3.4l0.1,0.9l-1,0.4v3.6c0,1.9,0.6,2.7,1.9,2.7c1.3,0,2-0.9,2-2.7v-3.7
			l-1-0.4l0.1-0.9h2.7l0.1,0.9l-1,0.4v3.6c0,3.1-1.6,3.8-3.1,3.8C116.5,24,114.9,23.3,114.9,20.2z"/>
		<path class="st3" d="M126,15.2c0.9,0,1.8,0.3,2.6,0.8v1.9l-0.9,0.1l-0.6-1.6c-0.3-0.1-0.8-0.2-1.1-0.2c-0.9,0-1.4,0.4-1.4,1.1
			c0,0.9,1.4,1.3,1.9,1.6c1.3,0.5,2.5,1.3,2.5,2.8c0,1.4-1,2.4-3.2,2.4c-1,0-2-0.3-2.7-0.8v-1.9l0.9-0.1l0.6,1.6
			c0.3,0.1,0.8,0.3,1.1,0.3c1,0,1.8-0.4,1.8-1c0-0.9-1.4-1.4-2.3-1.8c-0.9-0.5-2.1-1-2.1-2.7C123.1,16,124.5,15.2,126,15.2z"/>
		<path class="st3" d="M135.6,22.8l0.6-1.7l0.9,0.1v1.9c-0.7,0.5-1.9,0.8-2.8,0.8c-3.1,0-4.4-2.2-4.4-4.4c0-2.2,1.5-4.4,4.4-4.4
			c1.1,0,1.9,0.3,2.8,0.8v1.9l-0.9,0.1l-0.6-1.6c-0.4-0.1-1-0.2-1.4-0.2c-1.7,0-2.6,1.1-2.6,3.3c0,1.6,0.5,3.5,2.6,3.5
			C134.6,23,135.2,22.9,135.6,22.8z"/>
		<path class="st3" d="M145.2,22.6l1.1,0.4l-0.1,0.9h-3.5l-0.1-0.9l0.9-0.4l-0.5-1.4h-2.8l-0.6,1.4l1.1,0.4l-0.1,0.9h-3l-0.1-0.9
			l1-0.4l2.8-7.2l1.3-0.2L145.2,22.6z M141.9,16.8l-1.3,3.4h2.1l-0.8-2V16.8z"/>
		<path class="st3" d="M153.9,23l-0.1,0.9H150l-0.1-0.9l1-0.4v-5.9l-1-0.4l0.1-0.9h4c1.8,0,2.7,1.1,2.7,2.7c0,1.9-1.5,2.6-3.2,2.6
			H153v-0.9h0.5c0.9,0,1.5-0.8,1.5-1.6c0-1-0.4-1.8-1.5-1.8h-1v6.3L153.9,23z"/>
		<path class="st3" d="M166,19.6c0,2.5-1.3,4.4-4.1,4.4c-2.9,0-4.1-2.2-4.1-4.4c0-2.2,1.5-4.4,4.1-4.4C164.5,15.2,166,17.1,166,19.6
			z M159.5,19.5c0,2.3,0.8,3.5,2.3,3.5c1.6,0,2.4-1.2,2.4-3.5c0-2.2-0.8-3.3-2.4-3.3S159.5,17.3,159.5,19.5z"/>
		<path class="st3" d="M170.8,23l-0.1,0.9h-3.4l-0.1-0.9l1-0.4v-5.9l-1-0.4l0.1-0.9h4.1c1.8,0,2.8,0.9,2.8,2.4
			c0,1.3-1.3,2.2-2.5,2.2l0.8,0.4l1.2,2.1l1,0.4l-0.1,0.9H172l0.1-0.7l-1.8-3.1v-0.8h0.8c0.9,0,1.5-0.8,1.5-1.5
			c0-0.9-0.5-1.6-1.6-1.6h-1.2v6.3L170.8,23z"/>
		<path class="st3" d="M181.5,15.2c0.9,0,1.8,0.3,2.6,0.8v1.9l-0.9,0.1l-0.6-1.6c-0.3-0.1-0.8-0.2-1.1-0.2c-0.9,0-1.4,0.4-1.4,1.1
			c0,0.9,1.4,1.3,1.9,1.6c1.3,0.5,2.5,1.3,2.5,2.8c0,1.4-1,2.4-3.2,2.4c-1,0-2-0.3-2.7-0.8v-1.9l0.9-0.1l0.6,1.6
			c0.3,0.1,0.8,0.3,1.1,0.3c1,0,1.8-0.4,1.8-1c0-0.9-1.4-1.4-2.3-1.8c-0.9-0.5-2.1-1-2.1-2.7C178.6,16,180,15.2,181.5,15.2z"/>
		<path class="st3" d="M188.1,19h1.2l0.4-1l0.9,0.1v2.7l-0.9,0.1l-0.4-1h-1.2v3h2.4l0.6-1.8l0.9,0.1v2.5h-6.4l-0.1-0.9l1-0.4v-5.9
			l-1-0.4l0.1-0.9h6.2v2.1l-0.9,0.1l-0.5-1.4h-2.3V19z"/>
		<path class="st3" d="M196.4,23l-0.1,0.9h-3.4l-0.1-0.9l1-0.4v-5.9l-1-0.4l0.1-0.9h4.1c1.8,0,2.8,0.9,2.8,2.4
			c0,1.3-1.3,2.2-2.5,2.2l0.8,0.4l1.2,2.1l1,0.4l-0.1,0.9h-2.6l0.1-0.7l-1.8-3.1v-0.8h0.8c0.9,0,1.5-0.8,1.5-1.5
			c0-0.9-0.5-1.6-1.6-1.6h-1.2v6.3L196.4,23z"/>
		<path class="st3" d="M204.2,24l-2.8-7.4l-1.1-0.4l0.1-0.9h3.5l0.1,0.9l-0.9,0.4l1.6,4v1.4l2.1-5.4l-0.9-0.4l0.1-0.9h2.7l0.1,0.9
			l-1.1,0.4l-2.6,7.1L204.2,24z"/>
		<path class="st3" d="M213.3,23l-0.1,0.9h-3.4l-0.1-0.9l1-0.4v-5.9l-1-0.4l0.1-0.9h3.4l0.1,0.9l-1,0.4v5.9L213.3,23z"/>
		<path class="st3" d="M220.1,22.8l0.6-1.7l0.9,0.1v1.9c-0.6,0.4-1.6,0.7-2.6,0.8v0.3c0.4,0,1,0.3,1,0.9c0,1-1,1.3-1.8,1.3l-0.2-0.7
			c0.6,0,1-0.2,1-0.6c0-0.2-0.1-0.4-0.3-0.4h-0.4V24c-2.8-0.2-3.9-2.3-3.9-4.4c0-2.2,1.5-4.4,4.4-4.4c1.1,0,1.9,0.3,2.8,0.8v1.9
			l-0.9,0.1l-0.6-1.6c-0.4-0.1-1-0.2-1.4-0.2c-1.7,0-2.6,1.1-2.6,3.3c0,1.6,0.5,3.5,2.6,3.5C219.1,23,219.7,22.9,220.1,22.8z"/>
		<path class="st3" d="M230.8,19.6c0,2.5-1.3,4.4-4.1,4.4c-2.9,0-4.1-2.2-4.1-4.4c0-2.2,1.5-4.4,4.1-4.4
			C229.3,15.2,230.8,17.1,230.8,19.6z M224.3,19.5c0,2.3,0.8,3.5,2.3,3.5c1.6,0,2.4-1.2,2.4-3.5c0-2.2-0.8-3.3-2.4-3.3
			S224.3,17.3,224.3,19.5z"/>
		<path class="st3" d="M235,15.2c0.9,0,1.8,0.3,2.6,0.8v1.9l-0.9,0.1l-0.6-1.6c-0.3-0.1-0.8-0.2-1.1-0.2c-0.9,0-1.4,0.4-1.4,1.1
			c0,0.9,1.4,1.3,1.9,1.6c1.3,0.5,2.5,1.3,2.5,2.8c0,1.4-1,2.4-3.2,2.4c-1,0-2-0.3-2.7-0.8v-1.9l0.9-0.1l0.6,1.6
			c0.3,0.1,0.8,0.3,1.1,0.3c1,0,1.8-0.4,1.8-1c0-0.9-1.4-1.4-2.3-1.8c-0.9-0.5-2.1-1-2.1-2.7C232.1,16,233.5,15.2,235,15.2z"/>
		<path class="st3" d="M241.9,23l1-0.4v-5.9l-1-0.4l0.1-0.9h3.6c3,0,4.4,1.8,4.4,4.1s-1.4,4.3-4.4,4.3H242L241.9,23z M244.6,23h1
			c1.8,0,2.6-1.6,2.6-3.4c0-1.8-0.8-3.3-2.6-3.3h-1V23z"/>
		<path class="st3" d="M253.4,19h1.2l0.4-1l0.9,0.1v2.7l-0.9,0.1l-0.4-1h-1.2v3h2.4l0.6-1.8l0.9,0.1v2.5h-6.4l-0.1-0.9l1-0.4v-5.9
			l-1-0.4l0.1-0.9h6.2v2.1l-0.9,0.1l-0.5-1.4h-2.3V19z"/>
		<path class="st3" d="M263.8,19h1.2l0.4-1l0.9,0.1v2.7l-0.9,0.1l-0.4-1h-1.2v3h2.4l0.6-1.8l0.9,0.1v2.5h-6.4l-0.1-0.9l1-0.4v-5.9
			l-1-0.4l0.1-0.9h6.2v2.1l-0.9,0.1l-0.5-1.4h-2.3V19z"/>
		<path class="st3" d="M273,24l-2.1-5.7l-0.5,4.3l1,0.4l-0.1,0.9h-2.7l-0.1-0.9l1-0.4l0.7-5.9l-1-0.4l0.1-0.9h2.4l1.9,5.2v1.2
			l2.4-6.4h2.5l0.1,0.9l-1,0.4l0.6,5.9l1,0.4l-0.1,0.9h-3.4l-0.1-0.9l1-0.4L276,18l-2.1,5.8L273,24z"/>
		<path class="st3" d="M282.7,19h1.2l0.4-1l0.9,0.1v2.7l-0.9,0.1l-0.4-1h-1.2v3h2.4l0.6-1.8l0.9,0.1v2.5h-6.4L280,23l1-0.4v-5.9
			l-1-0.4l0.1-0.9h6.2v2.1l-0.9,0.1l-0.5-1.4h-2.3V19z"/>
		<path class="st3" d="M291,23l-0.1,0.9h-3.4l-0.1-0.9l1-0.4v-5.9l-1-0.4l0.1-0.9h4.1c1.8,0,2.8,0.9,2.8,2.4c0,1.3-1.3,2.2-2.5,2.2
			l0.8,0.4l1.2,2.1l1,0.4l-0.1,0.9h-2.6l0.1-0.7l-1.8-3.1v-0.8h0.8c0.9,0,1.5-0.8,1.5-1.5c0-0.9-0.5-1.6-1.6-1.6h-1.2v6.3L291,23z"
			/>
		<path class="st3" d="M300.1,23c0.3,0,0.8,0,1.2-0.1v-2l-1-0.4l0.1-0.9h3.4l0.1,0.9l-1,0.4v2.3c-0.7,0.5-1.9,0.8-2.8,0.8
			c-3.1,0-4.5-2.2-4.5-4.4c0-2.4,1.8-4.4,4.5-4.4c1.1,0,2,0.3,2.8,0.8v1.9l-0.9,0.1l-0.6-1.6c-0.4-0.1-1-0.2-1.4-0.2
			c-1.9,0-2.7,1.6-2.7,3.3C297.4,21.2,298.1,23,300.1,23z"/>
		<path class="st3" d="M309.7,16.3h-2.3V19h1.2l0.4-1l0.9,0.1v2.7l-0.9,0.1l-0.4-1h-1.2v3h2.4l0.6-1.8l0.9,0.1v2.5h-6.4l-0.1-0.9
			l1-0.4v-5.9l-1-0.4l0.1-0.9h6.2v2.1l-0.9,0.1L309.7,16.3z M310.1,14.7l-1.4-2h-0.8l-1.4,2l0.4,0.3l1.4-1.2l1.4,1.2L310.1,14.7z"/>
		<path class="st3" d="M313,16.7l-1-0.4l0.1-0.9h2.5l3.4,5l0.4,1.2v-5l-1-0.4l0.1-0.9h2.7l0.1,0.9l-1,0.4v7.1l-1,0.2l-4.4-6.6v5.2
			l1,0.4l-0.1,0.9h-2.7L312,23l1-0.4V16.7z"/>
		<path class="st3" d="M326.8,22.8l0.6-1.7l0.9,0.1v1.9c-0.7,0.5-1.9,0.8-2.8,0.8c-3.1,0-4.4-2.2-4.4-4.4c0-2.2,1.5-4.4,4.4-4.4
			c1.1,0,1.9,0.3,2.8,0.8v1.9l-0.9,0.1l-0.6-1.6c-0.4-0.1-1-0.2-1.4-0.2c-1.7,0-2.6,1.1-2.6,3.3c0,1.6,0.5,3.5,2.6,3.5
			C325.7,23,326.4,22.9,326.8,22.8z"/>
		<path class="st3" d="M332.8,23l-0.1,0.9h-3.4l-0.1-0.9l1-0.4v-5.9l-1-0.4l0.1-0.9h3.4l0.1,0.9l-1,0.4v5.9L332.8,23z"/>
		<path class="st3" d="M341.5,22.6l1.1,0.4l-0.1,0.9H339l-0.1-0.9l0.9-0.4l-0.5-1.4h-2.8l-0.6,1.4l1.1,0.4l-0.1,0.9h-3l-0.1-0.9
			l1-0.4l2.8-7.2l1.3-0.2L341.5,22.6z M338.1,16.8l-1.3,3.4h2.1l-0.8-2V16.8z"/>
		<path class="st3" d="M353.7,22.6l1.1,0.4l-0.1,0.9h-3.5L351,23l0.9-0.4l-0.5-1.4h-2.8l-0.6,1.4l1.1,0.4l-0.1,0.9h-3l-0.1-0.9
			l1-0.4l2.8-7.2l1.3-0.2L353.7,22.6z M350.3,16.8l-1.3,3.4h2.1l-0.8-2V16.8z"/>
		<path class="st3" d="M359.3,23l-0.1,0.9h-3.8l-0.1-0.9l1-0.4v-5.9l-1-0.4l0.1-0.9h4c1.8,0,2.7,1.1,2.7,2.7c0,1.9-1.5,2.6-3.2,2.6
			h-0.5v-0.9h0.5c0.9,0,1.5-0.8,1.5-1.6c0-1-0.4-1.8-1.5-1.8h-1v6.3L359.3,23z"/>
		<path class="st3" d="M371.4,19.6c0,2.5-1.3,4.4-4.1,4.4s-4.1-2.2-4.1-4.4c0-2.2,1.5-4.4,4.1-4.4S371.4,17.1,371.4,19.6z
			 M364.9,19.5c0,2.3,0.8,3.5,2.3,3.5c1.6,0,2.4-1.2,2.4-3.5c0-2.2-0.8-3.3-2.4-3.3S364.9,17.3,364.9,19.5z M366.6,14.4l1.5-1.9
			l1,0.9l-2.1,1.3L366.6,14.4z"/>
		<path class="st3" d="M375.7,15.2c0.9,0,1.8,0.3,2.6,0.8v1.9l-0.9,0.1l-0.6-1.6c-0.3-0.1-0.8-0.2-1.1-0.2c-0.9,0-1.4,0.4-1.4,1.1
			c0,0.9,1.4,1.3,1.9,1.6c1.3,0.5,2.5,1.3,2.5,2.8c0,1.4-1,2.4-3.2,2.4c-1,0-2-0.3-2.7-0.8v-1.9l0.9-0.1l0.6,1.6
			c0.3,0.1,0.8,0.3,1.1,0.3c1,0,1.8-0.4,1.8-1c0-0.9-1.4-1.4-2.3-1.8c-0.9-0.5-2.1-1-2.1-2.7C372.7,16,374.1,15.2,375.7,15.2z"/>
		<path class="st3" d="M391.1,19.6c0,2.5-1.3,4.4-4.1,4.4s-4.1-2.2-4.1-4.4c0-2.2,1.5-4.4,4.1-4.4S391.1,17.1,391.1,19.6z
			 M384.6,19.5c0,2.3,0.8,3.5,2.3,3.5c1.6,0,2.4-1.2,2.4-3.5c0-2.2-0.8-3.3-2.4-3.3S384.6,17.3,384.6,19.5z"/>
		<path class="st3" d="M396.2,20.2v-3.6l-1-0.4l0.1-0.9h3.4l0.1,0.9l-1,0.4v3.6c0,1.9,0.6,2.7,1.9,2.7c1.3,0,2-0.9,2-2.7v-3.7
			l-1-0.4l0.1-0.9h2.7l0.1,0.9l-1,0.4v3.6c0,3.1-1.6,3.8-3.1,3.8C397.9,24,396.2,23.3,396.2,20.2z"/>
		<path class="st3" d="M407.4,15.2c0.9,0,1.8,0.3,2.6,0.8v1.9l-0.9,0.1l-0.6-1.6c-0.3-0.1-0.8-0.2-1.1-0.2c-0.9,0-1.4,0.4-1.4,1.1
			c0,0.9,1.4,1.3,1.9,1.6c1.3,0.5,2.5,1.3,2.5,2.8c0,1.4-1,2.4-3.2,2.4c-1,0-2-0.3-2.7-0.8v-1.9l0.9-0.1l0.6,1.6
			c0.3,0.1,0.8,0.3,1.1,0.3c1,0,1.8-0.4,1.8-1c0-0.9-1.4-1.4-2.3-1.8c-0.9-0.5-2.1-1-2.1-2.7C404.4,16,405.8,15.2,407.4,15.2z"/>
		<path class="st3" d="M419.8,19.6c0,2.5-1.3,4.4-4.1,4.4s-4.1-2.2-4.1-4.4c0-2.2,1.5-4.4,4.1-4.4S419.8,17.1,419.8,19.6z
			 M413.3,19.5c0,2.3,0.8,3.5,2.3,3.5c1.6,0,2.4-1.2,2.4-3.5c0-2.2-0.8-3.3-2.4-3.3S413.3,17.3,413.3,19.5z"/>
		<path class="st3" d="M423.9,23l1-0.4v-5.9l-1-0.4l0.1-0.9h3.5c3,0,4.4,1.8,4.4,4.1s-1.4,4.3-4.4,4.3h-3.5L423.9,23z M426.6,23h1
			c1.8,0,2.6-1.6,2.6-3.4c0-1.8-0.8-3.3-2.6-3.3h-1V23z"/>
		<path class="st3" d="M435.4,19h1.2l0.4-1l0.9,0.1v2.7l-0.9,0.1l-0.4-1h-1.2v3h2.4l0.6-1.8l0.9,0.1v2.5h-6.4l-0.1-0.9l1-0.4v-5.9
			l-1-0.4l0.1-0.9h6.2v2.1l-0.9,0.1l-0.5-1.4h-2.3V19z"/>
		<path class="st3" d="M448.8,22.8l0.6-1.7l0.9,0.1v1.9c-0.7,0.5-1.9,0.8-2.8,0.8c-3.1,0-4.4-2.2-4.4-4.4c0-2.2,1.5-4.4,4.4-4.4
			c1.1,0,1.9,0.3,2.8,0.8v1.9l-0.9,0.1l-0.6-1.6c-0.4-0.1-1-0.2-1.4-0.2c-1.7,0-2.6,1.1-2.6,3.3c0,1.6,0.5,3.5,2.6,3.5
			C447.8,23,448.4,22.9,448.8,22.8z"/>
		<path class="st3" d="M459.5,19.6c0,2.5-1.3,4.4-4.1,4.4s-4.1-2.2-4.1-4.4c0-2.2,1.5-4.4,4.1-4.4S459.5,17.1,459.5,19.6z M453,19.5
			c0,2.3,0.8,3.5,2.3,3.5c1.6,0,2.4-1.2,2.4-3.5c0-2.2-0.8-3.3-2.4-3.3S453,17.3,453,19.5z"/>
		<path class="st3" d="M466.3,22.8l0.6-1.7l0.9,0.1v1.9c-0.7,0.5-1.9,0.8-2.8,0.8c-3.1,0-4.4-2.2-4.4-4.4c0-2.2,1.5-4.4,4.4-4.4
			c1.1,0,1.9,0.3,2.8,0.8v1.9l-0.9,0.1l-0.6-1.6c-0.4-0.1-1-0.2-1.4-0.2c-1.7,0-2.6,1.1-2.6,3.3c0,1.6,0.5,3.5,2.6,3.5
			C465.3,23,465.9,22.9,466.3,22.8z"/>
		<path class="st3" d="M476,22.6L477,23l-0.1,0.9h-3.5l-0.1-0.9l0.9-0.4l-0.5-1.4h-2.8l-0.6,1.4l1.1,0.4l-0.1,0.9h-3l-0.1-0.9l1-0.4
			l2.8-7.2l1.3-0.2L476,22.6z M472.6,16.8l-1.3,3.4h2.1l-0.8-2V16.8z"/>
		<path class="st3" d="M481.5,23l-0.1,0.9H478l-0.1-0.9l1-0.4v-5.9l-1-0.4l0.1-0.9h3.4l0.1,0.9l-1,0.4v5.9L481.5,23z M479,14.4
			l1.5-1.9l1,0.9l-2.1,1.3L479,14.4z"/>
		<path class="st3" d="M483.5,16.7l-1-0.4l0.1-0.9h2.5l3.4,5l0.4,1.2v-5l-1-0.4l0.1-0.9h2.7l0.1,0.9l-1,0.4v7.1l-1,0.2l-4.4-6.6v5.2
			l1,0.4l-0.1,0.9h-2.7l-0.1-0.9l1-0.4V16.7z"/>
		<path class="st3" d="M499.2,22.6l1.1,0.4l-0.1,0.9h-3.5l-0.1-0.9l0.9-0.4l-0.5-1.4h-2.8l-0.6,1.4l1.1,0.4l-0.1,0.9h-3l-0.1-0.9
			l1-0.4l2.8-7.2l1.3-0.2L499.2,22.6z M495.8,16.8l-1.3,3.4h2.1l-0.8-2V16.8z"/>
		<path class="st3" d="M504,20.5c0-2.5,1.2-5.9,3.9-5.9v1c-1.7,0-2.4,2.5-2.4,4.9s0.7,5.3,2.4,5.3v1C505,26.7,504,23,504,20.5z"/>
		<path class="st3" d="M509.6,20.2v-3.6l-1-0.4l0.1-0.9h3.4l0.1,0.9l-1,0.4v3.6c0,1.9,0.6,2.7,1.9,2.7c1.3,0,2-0.9,2-2.7v-3.7
			l-1-0.4l0.1-0.9h2.7l0.1,0.9l-1,0.4v3.6c0,3.1-1.6,3.8-3.1,3.8C511.3,24,509.6,23.3,509.6,20.2z M512.6,14.4l1.5-1.9l1,0.9
			l-2.1,1.3L512.6,14.4z"/>
		<path class="st3" d="M521.3,16.3l-1,0.4V23h2.3l0.7-1.8l0.9,0.1v2.5h-6.4l-0.1-0.9l1-0.4v-5.9l-1-0.4l0.1-0.9h3.4L521.3,16.3z"/>
		<path class="st3" d="M531.7,15.4v2.4l-0.9,0.1l-0.6-1.7h-1.3v6.3l1,0.4l-0.1,0.9h-3.4l-0.1-0.9l1-0.4v-6.3H526l-0.6,1.7l-0.9-0.1
			v-2.4H531.7z"/>
		<path class="st3" d="M536.6,23l-0.1,0.9H533l-0.1-0.9l1-0.4v-5.9l-1-0.4l0.1-0.9h3.4l0.1,0.9l-1,0.4v5.9L536.6,23z"/>
		<path class="st3" d="M542.2,24l-2.1-5.7l-0.5,4.3l1,0.4l-0.1,0.9h-2.7l-0.1-0.9l1-0.4l0.7-5.9l-1-0.4l0.1-0.9h2.4l1.9,5.2v1.2
			l2.4-6.4h2.5l0.1,0.9l-1,0.4l0.6,5.9l1,0.4l-0.1,0.9h-3.4l-0.1-0.9l1-0.4l-0.5-4.6l-2.1,5.8L542.2,24z"/>
		<path class="st3" d="M557.9,19.6c0,2.5-1.3,4.4-4.1,4.4s-4.1-2.2-4.1-4.4c0-2.2,1.5-4.4,4.1-4.4S557.9,17.1,557.9,19.6z
			 M551.4,19.5c0,2.3,0.8,3.5,2.3,3.5c1.6,0,2.4-1.2,2.4-3.5c0-2.2-0.8-3.3-2.4-3.3S551.4,17.3,551.4,19.5z"/>
		<path class="st3" d="M569.6,22.6l1.1,0.4l-0.1,0.9H567l-0.1-0.9l0.9-0.4l-0.5-1.4h-2.8l-0.6,1.4l1.1,0.4l-0.1,0.9h-3l-0.1-0.9
			l1-0.4l2.8-7.2l1.3-0.2L569.6,22.6z M566.2,16.8l-1.3,3.4h2.1l-0.8-2V16.8z"/>
		<path class="st3" d="M572,16.7l-1-0.4l0.1-0.9h2.5l3.4,5l0.4,1.2v-5l-1-0.4l0.1-0.9h2.7l0.1,0.9l-1,0.4v7.1l-1,0.2l-4.4-6.6v5.2
			l1,0.4l-0.1,0.9h-2.7L571,23l1-0.4V16.7z"/>
		<path class="st3" d="M588.7,19.6c0,2.5-1.3,4.4-4.1,4.4s-4.1-2.2-4.1-4.4c0-2.2,1.5-4.4,4.1-4.4S588.7,17.1,588.7,19.6z
			 M582.2,19.5c0,2.3,0.8,3.5,2.3,3.5c1.6,0,2.4-1.2,2.4-3.5c0-2.2-0.8-3.3-2.4-3.3S582.2,17.3,582.2,19.5z"/>
		<path class="st3" d="M592,20.5c0-2.4-0.7-4.9-2.4-4.9v-1c2.8,0,3.9,3.4,3.9,5.9c0,2.5-0.9,6.2-3.9,6.2v-1
			C591.3,25.8,592,22.8,592,20.5z"/>
	</g>
</g>
<g id="Gráfico">
	<g>
		<g>
			<line class="st4" x1="27.9" y1="224.7" x2="668.7" y2="224.7"/>
			<g>
				<g>
					<line class="st5" x1="27.9" y1="224.7" x2="27.9" y2="220.2"/>
					<line class="st5" x1="50" y1="224.7" x2="50" y2="220.2"/>
					<line class="st5" x1="72.1" y1="224.7" x2="72.1" y2="220.2"/>
					<line class="st5" x1="94.2" y1="224.7" x2="94.2" y2="220.2"/>
					<line class="st5" x1="116.3" y1="224.7" x2="116.3" y2="220.2"/>
					<line class="st5" x1="138.4" y1="224.7" x2="138.4" y2="220.2"/>
					<line class="st5" x1="160.5" y1="224.7" x2="160.5" y2="220.2"/>
					<line class="st5" x1="182.6" y1="224.7" x2="182.6" y2="220.2"/>
					<line class="st5" x1="204.7" y1="224.7" x2="204.7" y2="220.2"/>
					<line class="st5" x1="226.8" y1="224.7" x2="226.8" y2="220.2"/>
					<line class="st5" x1="248.9" y1="224.7" x2="248.9" y2="220.2"/>
					<line class="st5" x1="271" y1="224.7" x2="271" y2="220.2"/>
					<line class="st5" x1="293.1" y1="224.7" x2="293.1" y2="220.2"/>
					<line class="st5" x1="315.2" y1="224.7" x2="315.2" y2="220.2"/>
					<line class="st5" x1="337.3" y1="224.7" x2="337.3" y2="220.2"/>
					<line class="st5" x1="359.4" y1="224.7" x2="359.4" y2="220.2"/>
					<line class="st5" x1="381.5" y1="224.7" x2="381.5" y2="220.2"/>
					<line class="st5" x1="403.5" y1="224.7" x2="403.5" y2="220.2"/>
					<line class="st5" x1="425.6" y1="224.7" x2="425.6" y2="220.2"/>
					<line class="st5" x1="447.7" y1="224.7" x2="447.7" y2="220.2"/>
					<line class="st5" x1="469.8" y1="224.7" x2="469.8" y2="220.2"/>
					<line class="st5" x1="491.9" y1="224.7" x2="491.9" y2="220.2"/>
					<line class="st5" x1="514" y1="224.7" x2="514" y2="220.2"/>
					<line class="st5" x1="536.1" y1="224.7" x2="536.1" y2="220.2"/>
					<line class="st5" x1="558.2" y1="224.7" x2="558.2" y2="220.2"/>
					<line class="st5" x1="580.3" y1="224.7" x2="580.3" y2="220.2"/>
					<line class="st5" x1="602.4" y1="224.7" x2="602.4" y2="220.2"/>
					<line class="st5" x1="624.5" y1="224.7" x2="624.5" y2="220.2"/>
					<line class="st5" x1="646.6" y1="224.7" x2="646.6" y2="220.2"/>
					<line class="st5" x1="668.7" y1="224.7" x2="668.7" y2="220.2"/>
				</g>
				<g>
				</g>
			</g>
		</g>
		<g>
			<g>
				<text transform="matrix(0.9444 0 0 1 5.2151 230.9688)" class="st6 st7 st8">0,0</text>
				<text transform="matrix(0.9444 0 0 1 6.0652 213.0284)" class="st6 st7 st8">0,5</text>
				<text transform="matrix(0.9444 0 0 1 6.9407 195.0889)" class="st6 st7 st8">1,0</text>
				<text transform="matrix(0.9444 0 0 1 7.7908 177.1494)" class="st6 st7 st8">1,5</text>
				<text transform="matrix(0.9444 0 0 1 5.9973 159.209)" class="st6 st7 st8">2,0</text>
				<text transform="matrix(0.9444 0 0 1 6.8469 141.2696)" class="st6 st7 st8">2,5</text>
				<text transform="matrix(0.9444 0 0 1 5.9124 123.3291)" class="st6 st7 st8">3,0</text>
				<text transform="matrix(0.9444 0 0 1 6.762 105.3887)" class="st6 st7 st8">3,5</text>
				<text transform="matrix(0.9444 0 0 1 5.9124 87.4492)" class="st6 st7 st8">4,0</text>
				<text transform="matrix(0.9444 0 0 1 6.762 69.5098)" class="st6 st7 st8">4,5</text>
				<text transform="matrix(0.9444 0 0 1 6.0652 51.5694)" class="st6 st7 st8">5,0</text>
			</g>
			<line class="st5" x1="27.9" y1="224.7" x2="27.9" y2="45.3"/>
			<g>
				<g>
					<line class="st5" x1="27.9" y1="224.7" x2="668.7" y2="224.7"/>
					<line class="st5" x1="27.9" y1="206.7" x2="668.7" y2="206.7"/>
					<line class="st5" x1="27.9" y1="188.8" x2="668.7" y2="188.8"/>
					<line class="st5" x1="27.9" y1="170.8" x2="668.7" y2="170.8"/>
					<line class="st5" x1="27.9" y1="152.9" x2="668.7" y2="152.9"/>
					<line class="st5" x1="27.9" y1="135" x2="668.7" y2="135"/>
					<line class="st5" x1="27.9" y1="117" x2="668.7" y2="117"/>
					<line class="st5" x1="27.9" y1="99.1" x2="668.7" y2="99.1"/>
					<line class="st5" x1="27.9" y1="81.1" x2="668.7" y2="81.1"/>
					<line class="st5" x1="27.9" y1="63.2" x2="668.7" y2="63.2"/>
					<line class="st5" x1="27.9" y1="45.3" x2="668.7" y2="45.3"/>
				</g>
				<g>
				</g>
			</g>
		</g>
		<g>
			<g>
				<g>
					<rect x="54" y="74" class="st9" width="14.1" height="150.7"/>
					<rect x="76.1" y="145.7" class="st9" width="14.1" height="78.9"/>
					<rect x="98.2" y="145.7" class="st9" width="14.1" height="78.9"/>
					<rect x="120.3" y="152.9" class="st9" width="14.1" height="71.8"/>
					<rect x="142.4" y="156.5" class="st9" width="14.1" height="68.2"/>
					<rect x="164.5" y="167.3" class="st9" width="14.1" height="57.4"/>
					<rect x="186.6" y="174.4" class="st9" width="14.1" height="50.2"/>
					<rect x="208.7" y="174.4" class="st9" width="14.1" height="50.2"/>
					<rect x="230.8" y="178" class="st9" width="14.1" height="46.6"/>
					<rect x="252.9" y="181.6" class="st9" width="14.1" height="43.1"/>
					<rect x="274.9" y="185.2" class="st9" width="14.1" height="39.5"/>
					<rect x="297" y="188.8" class="st9" width="14.1" height="35.9"/>
					<rect x="319.1" y="192.4" class="st9" width="14.1" height="32.3"/>
					<rect x="341.2" y="192.4" class="st9" width="14.1" height="32.3"/>
					<rect x="363.3" y="199.5" class="st9" width="14.1" height="25.1"/>
					<rect x="385.4" y="199.5" class="st9" width="14.1" height="25.1"/>
					<rect x="407.5" y="203.1" class="st9" width="14.1" height="21.5"/>
					<rect x="429.6" y="206.7" class="st9" width="14.1" height="17.9"/>
					<rect x="451.7" y="213.9" class="st9" width="14.1" height="10.8"/>
					<rect x="473.8" y="213.9" class="st9" width="14.1" height="10.8"/>
				</g>
			</g>
		</g>
		<g>
			<g>
			</g>
		</g>
		<g>
			<text transform="matrix(0.5417 -0.7736 0.8192 0.5736 648.965 252.5133)" class="st6 st7 st8">Suécia</text>
			<text transform="matrix(0.5417 -0.7736 0.8192 0.5736 622.5928 258.1752)"><tspan x="0" y="0" class="st6 st7 st8">P</tspan><tspan x="5.5" y="0" class="st6 st7 st8">ortugal</tspan></text>
			<text transform="matrix(0.5417 -0.7736 0.8192 0.5736 602.5792 256.1947)"><tspan x="0" y="0" class="st6 st7 st8">P</tspan><tspan x="5.5" y="0" class="st6 st7 st8">olônia</tspan></text>
			<text transform="matrix(0.5417 -0.7736 0.8192 0.5736 579.5481 257.3256)" class="st6 st7 st8">Islândia</text>
			<text transform="matrix(0.5417 -0.7736 0.8192 0.5736 557.349 257.7121)" class="st6 st7 st8">Hungria</text>
			<text transform="matrix(0.5417 -0.7736 0.8192 0.5736 532.1346 260.9657)"><tspan x="0" y="0" class="st6 st7 st8">F</tspan><tspan x="5" y="0" class="st6 st7 st8">inlândia</tspan></text>
			<text transform="matrix(0.5417 -0.7736 0.8192 0.5736 514.5538 254.9632)" class="st6 st7 st8">Bélgica</text>
			<text transform="matrix(0.5417 -0.7736 0.8192 0.5736 486.4697 263.4823)" class="st6 st7 st8">Argentina</text>
			<text transform="matrix(0.5417 -0.7736 0.8192 0.5736 463.9129 264.518)" class="st6 st7 st8">Alemanha</text>
			<text transform="matrix(0.5417 -0.7736 0.8192 0.5736 447.9363 255.3324)" class="st6 st7 st8">Áustria</text>
			<text transform="matrix(0.5417 -0.7736 0.8192 0.5736 422.3231 260.9374)" class="st6 st7 st8">Austrália</text>
			<text transform="matrix(0.5417 -0.7736 0.8192 0.5736 408.5239 248.8133)" class="st6 st7 st8">Itália</text>
			<text transform="matrix(0.5417 -0.7736 0.8192 0.5736 364.4708 279.9238)"><tspan x="0" y="0" class="st6 st7 st8">Estados </tspan><tspan x="34.2" y="0" class="st6 st7 st8">U</tspan><tspan x="40.8" y="0" class="st6 st7 st8">nidos</tspan></text>
			<text transform="matrix(0.5417 -0.7736 0.8192 0.5736 346.8773 273.8481)" class="st6 st7 st8">Países Baixos</text>
			<text transform="matrix(0.5417 -0.7736 0.8192 0.5736 335.4367 258.5259)" class="st6 st7 st8">Noruega</text>
			<text transform="matrix(0.5417 -0.7736 0.8192 0.5736 317.3162 252.573)"><tspan x="0" y="0" class="st6 st7 st8">F</tspan><tspan x="5" y="0" class="st6 st7 st8">rança</tspan></text>
			<text transform="matrix(0.5417 -0.7736 0.8192 0.5736 282.9225 270.3095)"><tspan x="0" y="0" class="st6 st7 st8">R</tspan><tspan x="6" y="0" class="st6 st7 st8">eino </tspan><tspan x="27.1" y="0" class="st6 st7 st8">U</tspan><tspan x="33.6" y="0" class="st6 st7 st8">nido</tspan></text>
			<text transform="matrix(0.5417 -0.7736 0.8192 0.5736 273.237 252.4128)" class="st6 st7 st8">Grécia</text>
			<text transform="matrix(0.5417 -0.7736 0.8192 0.5736 249.2111 255.7183)" class="st6 st7 st8">Escócia</text>
			<text transform="matrix(0.5417 -0.7736 0.8192 0.5736 227.6919 254.3788)"><tspan x="0" y="0" class="st6 st7 st8">M</tspan><tspan x="8.5" y="0" class="st6 st7 st8">éxico</tspan></text>
			<text transform="matrix(0.5417 -0.7736 0.8192 0.5736 189.4535 277.5402)" class="st6 st7 st8">Nova Zelândia</text>
			<text transform="matrix(0.5417 -0.7736 0.8192 0.5736 187.4895 248.9224)" class="st6 st7 st8">Suíça</text>
			<text transform="matrix(0.5417 -0.7736 0.8192 0.5736 161.9026 254.0103)" class="st6 st7 st8">Canadá</text>
			<text transform="matrix(0.5417 -0.7736 0.8192 0.5736 131.8291 265.5843)" class="st6 st7 st8">Dinamarca</text>
			<text transform="matrix(0.5417 -0.7736 0.8192 0.5736 115.2005 257.4155)" class="st6 st7 st8">Espanha</text>
			<text transform="matrix(0.5417 -0.7736 0.8192 0.5736 95.0871 254.6089)" class="st6 st7 st8">Irlanda</text>
			<text transform="matrix(0.5417 -0.7736 0.8192 0.5736 67.7733 261.8058)" class="st6 st7 st8">Colômbia</text>
			<text transform="matrix(0.5417 -0.7736 0.8192 0.5736 54.2581 249.8581)" class="st6 st7 st8">Brasil</text>
		</g>
	</g>
	<path class="st3" d="M643.6,76.2H548c-6.4,0-11.6-5.2-11.6-11.6V53.2c0-2.4,1.9-4.3,4.3-4.3h102.8c2.4,0,4.3,1.9,4.3,4.3v18.7
		C647.9,74.3,646,76.2,643.6,76.2z"/>
	<g>
		<rect x="50.4" y="63.8" class="st2" width="21.4" height="10.3"/>
		<path class="st6" d="M55.7,69.2l-0.2-0.4c0.1-0.2,0.2-0.4,0.3-0.7s0.2-0.4,0.3-0.6c0.1-0.2,0.2-0.4,0.3-0.6
			c0.1-0.2,0.2-0.4,0.2-0.6s0.2-0.4,0.3-0.6s0.2-0.4,0.3-0.6c0.1-0.2,0.2-0.4,0.3-0.7h0.3l0.6,0.4c-0.1,0.2-0.2,0.4-0.3,0.6
			c-0.1,0.2-0.2,0.4-0.2,0.5c-0.1,0.2-0.1,0.4-0.2,0.5c-0.1,0.2-0.1,0.3-0.2,0.5c-0.1,0.2-0.2,0.4-0.2,0.5c-0.1,0.2-0.2,0.4-0.3,0.6
			l-0.3,0.6h3.4v0.7H55.7z M58.1,70.3v-1.9l0.1-1.9H59v3.9H58.1z"/>
		<path class="st6" d="M60.7,71.9L60.7,71.9c0.1-0.2,0.2-0.3,0.3-0.5s0.1-0.4,0.1-0.6c0-0.1,0-0.2-0.1-0.3S61,70.3,61,70.2
			c-0.1-0.1-0.1-0.1-0.2-0.1v-0.3l0.6-0.5c0.2,0.1,0.3,0.2,0.4,0.3c0.1,0.1,0.2,0.3,0.2,0.5c0,0.2,0.1,0.3,0.1,0.5
			c0,0.3,0,0.5-0.1,0.8s-0.2,0.4-0.4,0.6c-0.1,0.2-0.3,0.3-0.5,0.4L60.7,71.9z"/>
		<path class="st6" d="M63,70.3l-0.1-0.5c0.2-0.2,0.5-0.4,0.7-0.6s0.5-0.4,0.7-0.7c0.2-0.2,0.4-0.5,0.6-0.8s0.3-0.5,0.4-0.8
			c0.1-0.3,0.2-0.5,0.2-0.8c0-0.4-0.1-0.6-0.3-0.8s-0.4-0.3-0.7-0.3c-0.3,0-0.5,0.1-0.7,0.2c-0.2,0.1-0.4,0.2-0.5,0.4l-0.4-0.6
			c0.1-0.1,0.2-0.2,0.4-0.3s0.4-0.2,0.6-0.3c0.2-0.1,0.5-0.1,0.8-0.1c0.4,0,0.7,0.1,1,0.2c0.3,0.2,0.4,0.4,0.6,0.7
			c0.1,0.3,0.2,0.6,0.2,0.9c0,0.4-0.1,0.8-0.3,1.2s-0.4,0.8-0.8,1.2c-0.3,0.4-0.7,0.7-1.1,1l2.4,0v0.8H63z"/>
	</g>
	<g>
		<rect x="72.2" y="135.7" class="st2" width="21.4" height="10.3"/>
		<path class="st6" d="M77.7,142.2l-0.1-0.5c0.2-0.2,0.5-0.4,0.7-0.6s0.5-0.4,0.7-0.7c0.2-0.2,0.4-0.5,0.6-0.8s0.3-0.5,0.4-0.8
			c0.1-0.3,0.2-0.5,0.2-0.8c0-0.4-0.1-0.6-0.3-0.8s-0.4-0.3-0.7-0.3c-0.3,0-0.5,0.1-0.7,0.2c-0.2,0.1-0.4,0.2-0.5,0.4l-0.4-0.6
			c0.1-0.1,0.2-0.2,0.4-0.3s0.4-0.2,0.6-0.3c0.2-0.1,0.5-0.1,0.8-0.1c0.4,0,0.7,0.1,1,0.2c0.3,0.2,0.4,0.4,0.6,0.7
			c0.1,0.3,0.2,0.6,0.2,0.9c0,0.4-0.1,0.8-0.3,1.2s-0.4,0.8-0.8,1.2c-0.3,0.4-0.7,0.7-1.1,1l2.4,0v0.8H77.7z"/>
		<path class="st6" d="M82.4,143.8L82.4,143.8c0.1-0.2,0.2-0.3,0.3-0.5s0.1-0.4,0.1-0.6c0-0.1,0-0.2-0.1-0.3s-0.1-0.2-0.2-0.3
			c-0.1-0.1-0.1-0.1-0.2-0.1v-0.3l0.6-0.5c0.2,0.1,0.3,0.2,0.4,0.3c0.1,0.1,0.2,0.3,0.2,0.5c0,0.2,0.1,0.3,0.1,0.5
			c0,0.3,0,0.5-0.1,0.8s-0.2,0.4-0.4,0.6c-0.1,0.2-0.3,0.3-0.5,0.4L82.4,143.8z"/>
		<path class="st6" d="M84.7,142.2l-0.1-0.5c0.2-0.2,0.5-0.4,0.7-0.6s0.5-0.4,0.7-0.7c0.2-0.2,0.4-0.5,0.6-0.8s0.3-0.5,0.4-0.8
			c0.1-0.3,0.2-0.5,0.2-0.8c0-0.4-0.1-0.6-0.3-0.8s-0.4-0.3-0.7-0.3c-0.3,0-0.5,0.1-0.7,0.2c-0.2,0.1-0.4,0.2-0.5,0.4l-0.4-0.6
			c0.1-0.1,0.2-0.2,0.4-0.3s0.4-0.2,0.6-0.3c0.2-0.1,0.5-0.1,0.8-0.1c0.4,0,0.7,0.1,1,0.2c0.3,0.2,0.4,0.4,0.6,0.7
			c0.1,0.3,0.2,0.6,0.2,0.9c0,0.4-0.1,0.8-0.3,1.2s-0.4,0.8-0.8,1.2c-0.3,0.4-0.7,0.7-1.1,1l2.4,0v0.8H84.7z"/>
	</g>
	<g>
		<rect x="94.6" y="135.7" class="st2" width="21.4" height="10.3"/>
		<path class="st6" d="M100.1,142.2l-0.1-0.5c0.2-0.2,0.5-0.4,0.7-0.6s0.5-0.4,0.7-0.7c0.2-0.2,0.4-0.5,0.6-0.8s0.3-0.5,0.4-0.8
			c0.1-0.3,0.2-0.5,0.2-0.8c0-0.4-0.1-0.6-0.3-0.8s-0.4-0.3-0.7-0.3c-0.3,0-0.5,0.1-0.7,0.2c-0.2,0.1-0.4,0.2-0.5,0.4l-0.4-0.6
			c0.1-0.1,0.2-0.2,0.4-0.3s0.4-0.2,0.6-0.3c0.2-0.1,0.5-0.1,0.8-0.1c0.4,0,0.7,0.1,1,0.2c0.3,0.2,0.4,0.4,0.6,0.7
			c0.1,0.3,0.2,0.6,0.2,0.9c0,0.4-0.1,0.8-0.3,1.2s-0.4,0.8-0.8,1.2c-0.3,0.4-0.7,0.7-1.1,1l2.4,0v0.8H100.1z"/>
		<path class="st6" d="M104.7,143.8L104.7,143.8c0.1-0.2,0.2-0.3,0.3-0.5s0.1-0.4,0.1-0.6c0-0.1,0-0.2-0.1-0.3s-0.1-0.2-0.2-0.3
			c-0.1-0.1-0.1-0.1-0.2-0.1v-0.3l0.6-0.5c0.2,0.1,0.3,0.2,0.4,0.3c0.1,0.1,0.2,0.3,0.2,0.5c0,0.2,0.1,0.3,0.1,0.5
			c0,0.3,0,0.5-0.1,0.8s-0.2,0.4-0.4,0.6c-0.1,0.2-0.3,0.3-0.5,0.4L104.7,143.8z"/>
		<path class="st6" d="M107,142.2l-0.1-0.5c0.2-0.2,0.5-0.4,0.7-0.6s0.5-0.4,0.7-0.7c0.2-0.2,0.4-0.5,0.6-0.8s0.3-0.5,0.4-0.8
			c0.1-0.3,0.2-0.5,0.2-0.8c0-0.4-0.1-0.6-0.3-0.8s-0.4-0.3-0.7-0.3c-0.3,0-0.5,0.1-0.7,0.2c-0.2,0.1-0.4,0.2-0.5,0.4l-0.4-0.6
			c0.1-0.1,0.2-0.2,0.4-0.3s0.4-0.2,0.6-0.3c0.2-0.1,0.5-0.1,0.8-0.1c0.4,0,0.7,0.1,1,0.2c0.3,0.2,0.4,0.4,0.6,0.7
			c0.1,0.3,0.2,0.6,0.2,0.9c0,0.4-0.1,0.8-0.3,1.2s-0.4,0.8-0.8,1.2c-0.3,0.4-0.7,0.7-1.1,1l2.4,0v0.8H107z"/>
	</g>
	<g>
		<rect x="116.7" y="142.4" class="st2" width="21.4" height="10.3"/>
		<path class="st6" d="M121.9,148.9l-0.1-0.5c0.2-0.2,0.5-0.4,0.7-0.6s0.5-0.4,0.7-0.7c0.2-0.2,0.4-0.5,0.6-0.8s0.3-0.5,0.4-0.8
			c0.1-0.3,0.2-0.5,0.2-0.8c0-0.4-0.1-0.6-0.3-0.8s-0.4-0.3-0.7-0.3c-0.3,0-0.5,0.1-0.7,0.2c-0.2,0.1-0.4,0.2-0.5,0.4l-0.4-0.6
			c0.1-0.1,0.2-0.2,0.4-0.3s0.4-0.2,0.6-0.3c0.2-0.1,0.5-0.1,0.8-0.1c0.4,0,0.7,0.1,1,0.2c0.3,0.2,0.4,0.4,0.6,0.7
			c0.1,0.3,0.2,0.6,0.2,0.9c0,0.4-0.1,0.8-0.3,1.2s-0.4,0.8-0.8,1.2c-0.3,0.4-0.7,0.7-1.1,1l2.4,0v0.8H121.9z"/>
		<path class="st6" d="M126.5,150.5L126.5,150.5c0.1-0.2,0.2-0.3,0.3-0.5s0.1-0.4,0.1-0.6c0-0.1,0-0.2-0.1-0.3s-0.1-0.2-0.2-0.3
			c-0.1-0.1-0.1-0.1-0.2-0.1v-0.3l0.6-0.5c0.2,0.1,0.3,0.2,0.4,0.3c0.1,0.1,0.2,0.3,0.2,0.5c0,0.2,0.1,0.3,0.1,0.5
			c0,0.3,0,0.5-0.1,0.8s-0.2,0.4-0.4,0.6c-0.1,0.2-0.3,0.3-0.5,0.4L126.5,150.5z"/>
		<path class="st6" d="M130.8,149c-0.4,0-0.7-0.1-0.9-0.3c-0.3-0.2-0.5-0.4-0.6-0.7s-0.3-0.6-0.3-1c-0.1-0.4-0.1-0.8-0.1-1.2
			c0-0.6,0.1-1.1,0.3-1.6c0.2-0.4,0.4-0.8,0.8-1s0.7-0.4,1.1-0.4c0.4,0,0.7,0.1,1,0.2c0.3,0.2,0.5,0.4,0.6,0.6s0.3,0.6,0.3,1
			s0.1,0.7,0.1,1.2c0,0.6-0.1,1.2-0.3,1.6s-0.4,0.8-0.7,1.1C131.6,148.8,131.2,149,130.8,149z M130.8,148.1c0.4,0,0.7-0.2,0.8-0.5
			c0.2-0.4,0.3-0.9,0.3-1.7c0-0.4,0-0.8-0.1-1.1c-0.1-0.3-0.2-0.6-0.4-0.8c-0.2-0.2-0.4-0.3-0.6-0.3c-0.4,0-0.7,0.2-0.9,0.5
			c-0.2,0.4-0.3,0.9-0.3,1.5c0,0.4,0,0.8,0.1,1.1c0.1,0.3,0.2,0.6,0.4,0.8S130.6,148.1,130.8,148.1z"/>
	</g>
	<g>
		<rect x="138.5" y="146" class="st2" width="21.4" height="10.3"/>
		<path class="st6" d="M145.1,152.5v-4.9c-0.1,0-0.3,0.1-0.4,0.1s-0.3,0.1-0.4,0.1l-0.1-0.6c0.1,0,0.3-0.1,0.4-0.2
			c0.1-0.1,0.3-0.1,0.4-0.2c0.1-0.1,0.3-0.1,0.4-0.2c0.1-0.1,0.2-0.1,0.2-0.2l0.4,0.1v6H145.1z"/>
		<path class="st6" d="M147.7,154.1L147.7,154.1c0.1-0.2,0.2-0.3,0.3-0.5s0.1-0.4,0.1-0.6c0-0.1,0-0.2-0.1-0.3s-0.1-0.2-0.2-0.3
			c-0.1-0.1-0.1-0.1-0.2-0.1v-0.3l0.6-0.5c0.2,0.1,0.3,0.2,0.4,0.3c0.1,0.1,0.2,0.3,0.2,0.5c0,0.2,0.1,0.3,0.1,0.5
			c0,0.3,0,0.5-0.1,0.8s-0.2,0.4-0.4,0.6c-0.1,0.2-0.3,0.3-0.5,0.4L147.7,154.1z"/>
		<path class="st6" d="M150,148.6c0-0.4,0.1-0.8,0.2-1.1s0.4-0.6,0.7-0.8c0.3-0.2,0.7-0.3,1.1-0.3c0.4,0,0.8,0.1,1.1,0.3
			c0.3,0.2,0.5,0.5,0.6,0.8s0.2,0.7,0.2,1.1c0,0.5-0.1,0.9-0.2,1.3s-0.3,0.8-0.5,1.1s-0.5,0.6-0.7,0.9c-0.3,0.3-0.6,0.5-0.9,0.6
			c-0.3,0.2-0.6,0.3-0.9,0.3l-0.3-0.6c0.4-0.1,0.7-0.3,1-0.5s0.6-0.5,0.8-0.8s0.4-0.6,0.5-1c0.1-0.3,0.2-0.6,0.2-0.9
			c0-0.4,0-0.7-0.1-1s-0.2-0.5-0.3-0.7s-0.4-0.3-0.7-0.3c-0.2,0-0.4,0.1-0.5,0.2c-0.2,0.1-0.3,0.3-0.4,0.4s-0.1,0.4-0.1,0.6
			c0,0.5,0.1,0.8,0.2,1.1c0.2,0.2,0.4,0.4,0.6,0.4c0.2,0,0.3,0,0.4-0.1c0.1,0,0.2-0.1,0.2-0.1l0.2,0.5c-0.1,0.1-0.2,0.1-0.3,0.2
			c-0.2,0.1-0.4,0.1-0.7,0.1c-0.3,0-0.6-0.1-0.8-0.3s-0.4-0.4-0.5-0.7C150.1,149.2,150,148.9,150,148.6z"/>
	</g>
	<g>
		<rect x="160.6" y="156.9" class="st2" width="21.4" height="10.3"/>
		<path class="st6" d="M167.2,163.4v-4.9c-0.1,0-0.3,0.1-0.4,0.1s-0.3,0.1-0.4,0.1l-0.1-0.6c0.1,0,0.3-0.1,0.4-0.2
			c0.1-0.1,0.3-0.1,0.4-0.2c0.1-0.1,0.3-0.1,0.4-0.2c0.1-0.1,0.2-0.1,0.2-0.2l0.4,0.1v6H167.2z"/>
		<path class="st6" d="M169.8,165L169.8,165c0.1-0.2,0.2-0.3,0.3-0.5s0.1-0.4,0.1-0.6c0-0.1,0-0.2-0.1-0.3s-0.1-0.2-0.2-0.3
			c-0.1-0.1-0.1-0.1-0.2-0.1v-0.3l0.6-0.5c0.2,0.1,0.3,0.2,0.4,0.3c0.1,0.1,0.2,0.3,0.2,0.5c0,0.2,0.1,0.3,0.1,0.5
			c0,0.3,0,0.5-0.1,0.8s-0.2,0.4-0.4,0.6c-0.1,0.2-0.3,0.3-0.5,0.4L169.8,165z"/>
		<path class="st6" d="M172.1,161.1c0-0.4,0.1-0.8,0.2-1.2c0.1-0.4,0.3-0.7,0.5-1c0.2-0.3,0.4-0.6,0.7-0.8s0.5-0.4,0.8-0.6
			c0.3-0.1,0.6-0.3,0.9-0.3l0.2,0.6c-0.3,0.1-0.7,0.2-1,0.5c-0.3,0.2-0.5,0.4-0.7,0.7s-0.4,0.6-0.5,0.9c-0.1,0.3-0.2,0.6-0.2,0.9
			c0,0.4,0,0.7,0.1,1c0.1,0.3,0.2,0.6,0.3,0.8c0.2,0.2,0.4,0.3,0.7,0.3c0.2,0,0.4-0.1,0.6-0.2c0.2-0.1,0.3-0.3,0.3-0.5
			s0.1-0.4,0.1-0.7c0-0.3,0-0.6-0.1-0.7c-0.1-0.2-0.2-0.3-0.3-0.4c-0.1-0.1-0.3-0.1-0.4-0.1c-0.1,0-0.3,0-0.4,0.1s-0.2,0.1-0.2,0.1
			l-0.2-0.5c0,0,0.1-0.1,0.2-0.1c0.1-0.1,0.2-0.1,0.4-0.1c0.1,0,0.3-0.1,0.5-0.1c0.3,0,0.6,0.1,0.8,0.2c0.2,0.2,0.4,0.4,0.5,0.6
			c0.1,0.3,0.2,0.6,0.2,0.9c0,0.3,0,0.6-0.1,0.8c-0.1,0.3-0.2,0.5-0.4,0.7c-0.2,0.2-0.4,0.4-0.6,0.5c-0.3,0.1-0.5,0.2-0.9,0.2
			c-0.4,0-0.7-0.1-1-0.3c-0.3-0.2-0.5-0.5-0.7-0.8C172.2,161.9,172.1,161.6,172.1,161.1z"/>
	</g>
	<g>
		<rect x="182.5" y="164.1" class="st2" width="21.4" height="10.3"/>
		<path class="st6" d="M189.2,170.6v-4.9c-0.1,0-0.3,0.1-0.4,0.1s-0.3,0.1-0.4,0.1l-0.1-0.6c0.1,0,0.3-0.1,0.4-0.2
			c0.1-0.1,0.3-0.1,0.4-0.2c0.1-0.1,0.3-0.1,0.4-0.2c0.1-0.1,0.2-0.1,0.2-0.2l0.4,0.1v6H189.2z"/>
		<path class="st6" d="M191.8,172.2L191.8,172.2c0.1-0.2,0.2-0.3,0.3-0.5s0.1-0.4,0.1-0.6c0-0.1,0-0.2-0.1-0.3s-0.1-0.2-0.2-0.3
			c-0.1-0.1-0.1-0.1-0.2-0.1V170l0.6-0.5c0.2,0.1,0.3,0.2,0.4,0.3c0.1,0.1,0.2,0.3,0.2,0.5c0,0.2,0.1,0.3,0.1,0.5
			c0,0.3,0,0.5-0.1,0.8s-0.2,0.4-0.4,0.6c-0.1,0.2-0.3,0.3-0.5,0.4L191.8,172.2z"/>
		<path class="st6" d="M194.1,169.4l-0.2-0.4c0.1-0.2,0.2-0.4,0.3-0.7s0.2-0.4,0.3-0.6c0.1-0.2,0.2-0.4,0.3-0.6
			c0.1-0.2,0.2-0.4,0.2-0.6s0.2-0.4,0.3-0.6s0.2-0.4,0.3-0.6c0.1-0.2,0.2-0.4,0.3-0.7h0.3l0.6,0.4c-0.1,0.2-0.2,0.4-0.3,0.6
			c-0.1,0.2-0.2,0.4-0.2,0.5c-0.1,0.2-0.1,0.4-0.2,0.5c-0.1,0.2-0.1,0.3-0.2,0.5c-0.1,0.2-0.2,0.4-0.2,0.5c-0.1,0.2-0.2,0.4-0.3,0.6
			l-0.3,0.6h3.4v0.7H194.1z M196.5,170.6v-1.9l0.1-1.9h0.8v3.9H196.5z"/>
	</g>
	<g>
		<rect x="204.7" y="164.1" class="st2" width="21.4" height="10.3"/>
		<path class="st6" d="M211.4,170.6v-4.9c-0.1,0-0.3,0.1-0.4,0.1s-0.3,0.1-0.4,0.1l-0.1-0.6c0.1,0,0.3-0.1,0.4-0.2
			c0.1-0.1,0.3-0.1,0.4-0.2c0.1-0.1,0.3-0.1,0.4-0.2c0.1-0.1,0.2-0.1,0.2-0.2l0.4,0.1v6H211.4z"/>
		<path class="st6" d="M214,172.2L214,172.2c0.1-0.2,0.2-0.3,0.3-0.5s0.1-0.4,0.1-0.6c0-0.1,0-0.2-0.1-0.3s-0.1-0.2-0.2-0.3
			c-0.1-0.1-0.1-0.1-0.2-0.1V170l0.6-0.5c0.2,0.1,0.3,0.2,0.4,0.3c0.1,0.1,0.2,0.3,0.2,0.5c0,0.2,0.1,0.3,0.1,0.5
			c0,0.3,0,0.5-0.1,0.8s-0.2,0.4-0.4,0.6c-0.1,0.2-0.3,0.3-0.5,0.4L214,172.2z"/>
		<path class="st6" d="M216.3,169.4l-0.2-0.4c0.1-0.2,0.2-0.4,0.3-0.7s0.2-0.4,0.3-0.6c0.1-0.2,0.2-0.4,0.3-0.6
			c0.1-0.2,0.2-0.4,0.2-0.6s0.2-0.4,0.3-0.6s0.2-0.4,0.3-0.6c0.1-0.2,0.2-0.4,0.3-0.7h0.3l0.6,0.4c-0.1,0.2-0.2,0.4-0.3,0.6
			c-0.1,0.2-0.2,0.4-0.2,0.5c-0.1,0.2-0.1,0.4-0.2,0.5c-0.1,0.2-0.1,0.3-0.2,0.5c-0.1,0.2-0.2,0.4-0.2,0.5c-0.1,0.2-0.2,0.4-0.3,0.6
			l-0.3,0.6h3.4v0.7H216.3z M218.7,170.6v-1.9l0.1-1.9h0.8v3.9H218.7z"/>
	</g>
	<g>
		<rect x="227.1" y="167.7" class="st2" width="21.4" height="10.3"/>
		<path class="st6" d="M234.1,174.2v-4.9c-0.1,0-0.3,0.1-0.4,0.1s-0.3,0.1-0.4,0.1l-0.1-0.6c0.1,0,0.3-0.1,0.4-0.2
			c0.1-0.1,0.3-0.1,0.4-0.2c0.1-0.1,0.3-0.1,0.4-0.2c0.1-0.1,0.2-0.1,0.2-0.2l0.4,0.1v6H234.1z"/>
		<path class="st6" d="M236.7,175.8L236.7,175.8c0.1-0.2,0.2-0.3,0.3-0.5s0.1-0.4,0.1-0.6c0-0.1,0-0.2-0.1-0.3s-0.1-0.2-0.2-0.3
			c-0.1-0.1-0.1-0.1-0.2-0.1v-0.3l0.6-0.5c0.2,0.1,0.3,0.2,0.4,0.3c0.1,0.1,0.2,0.3,0.2,0.5c0,0.2,0.1,0.3,0.1,0.5
			c0,0.3,0,0.5-0.1,0.8s-0.2,0.4-0.4,0.6c-0.1,0.2-0.3,0.3-0.5,0.4L236.7,175.8z"/>
		<path class="st6" d="M239,174.2l0-0.6c0.1,0,0.2,0,0.3,0c0.1,0,0.2,0,0.3,0c0.4,0,0.7,0,0.9-0.1c0.3-0.1,0.5-0.2,0.6-0.4
			c0.2-0.2,0.2-0.4,0.2-0.6c0-0.2,0-0.4-0.1-0.6c-0.1-0.2-0.2-0.3-0.4-0.4c-0.2-0.1-0.4-0.1-0.7-0.1l-0.4,0.1l-0.2-0.6
			c0.1,0,0.3-0.1,0.4-0.1c0.1,0,0.2-0.1,0.3-0.1c0.3-0.1,0.5-0.3,0.6-0.4s0.2-0.4,0.2-0.6c0-0.3-0.1-0.5-0.2-0.6
			c-0.2-0.1-0.4-0.2-0.6-0.2c-0.3,0-0.5,0-0.7,0.1c-0.2,0.1-0.3,0.2-0.5,0.3l-0.3-0.5c0.1-0.1,0.2-0.2,0.4-0.3
			c0.2-0.1,0.3-0.2,0.5-0.2c0.2-0.1,0.4-0.1,0.6-0.1c0.3,0,0.6,0.1,0.8,0.2c0.2,0.1,0.4,0.3,0.6,0.5c0.1,0.2,0.2,0.5,0.2,0.8
			c0,0.3-0.1,0.5-0.2,0.7c-0.1,0.2-0.3,0.4-0.5,0.5s-0.4,0.3-0.6,0.3V171c0.3,0,0.6,0.1,0.9,0.2c0.2,0.1,0.4,0.3,0.5,0.5
			c0.1,0.2,0.2,0.5,0.2,0.7c0,0.3-0.1,0.6-0.3,0.9s-0.5,0.5-0.9,0.7c-0.4,0.2-0.8,0.3-1.3,0.3c-0.1,0-0.3,0-0.4,0
			S239.1,174.2,239,174.2z"/>
	</g>
	<g>
		<rect x="249.1" y="171.2" class="st2" width="21.4" height="10.3"/>
		<path class="st6" d="M256,177.7v-4.9c-0.1,0-0.3,0.1-0.4,0.1s-0.3,0.1-0.4,0.1l-0.1-0.6c0.1,0,0.3-0.1,0.4-0.2
			c0.1-0.1,0.3-0.1,0.4-0.2c0.1-0.1,0.3-0.1,0.4-0.2c0.1-0.1,0.2-0.1,0.2-0.2l0.4,0.1v6H256z"/>
		<path class="st6" d="M258.6,179.3L258.6,179.3c0.1-0.2,0.2-0.3,0.3-0.5s0.1-0.4,0.1-0.6c0-0.1,0-0.2-0.1-0.3s-0.1-0.2-0.2-0.3
			c-0.1-0.1-0.1-0.1-0.2-0.1v-0.3l0.6-0.5c0.2,0.1,0.3,0.2,0.4,0.3c0.1,0.1,0.2,0.3,0.2,0.5c0,0.2,0.1,0.3,0.1,0.5
			c0,0.3,0,0.5-0.1,0.8s-0.2,0.4-0.4,0.6c-0.1,0.2-0.3,0.3-0.5,0.4L258.6,179.3z"/>
		<path class="st6" d="M260.9,177.7l-0.1-0.5c0.2-0.2,0.5-0.4,0.7-0.6s0.5-0.4,0.7-0.7c0.2-0.2,0.4-0.5,0.6-0.8s0.3-0.5,0.4-0.8
			c0.1-0.3,0.2-0.5,0.2-0.8c0-0.4-0.1-0.6-0.3-0.8s-0.4-0.3-0.7-0.3c-0.3,0-0.5,0.1-0.7,0.2c-0.2,0.1-0.4,0.2-0.5,0.4l-0.4-0.6
			c0.1-0.1,0.2-0.2,0.4-0.3s0.4-0.2,0.6-0.3c0.2-0.1,0.5-0.1,0.8-0.1c0.4,0,0.7,0.1,1,0.2c0.3,0.2,0.4,0.4,0.6,0.7
			c0.1,0.3,0.2,0.6,0.2,0.9c0,0.4-0.1,0.8-0.3,1.2s-0.4,0.8-0.8,1.2c-0.3,0.4-0.7,0.7-1.1,1l2.4,0v0.8H260.9z"/>
	</g>
	<g>
		<rect x="271.2" y="175.1" class="st2" width="21.4" height="10.3"/>
		<path class="st6" d="M278.8,181.6v-4.9c-0.1,0-0.3,0.1-0.4,0.1s-0.3,0.1-0.4,0.1l-0.1-0.6c0.1,0,0.3-0.1,0.4-0.2
			c0.1-0.1,0.3-0.1,0.4-0.2c0.1-0.1,0.3-0.1,0.4-0.2c0.1-0.1,0.2-0.1,0.2-0.2l0.4,0.1v6H278.8z"/>
		<path class="st6" d="M281.4,183.2L281.4,183.2c0.1-0.2,0.2-0.3,0.3-0.5s0.1-0.4,0.1-0.6c0-0.1,0-0.2-0.1-0.3s-0.1-0.2-0.2-0.3
			c-0.1-0.1-0.1-0.1-0.2-0.1v-0.3l0.6-0.5c0.2,0.1,0.3,0.2,0.4,0.3c0.1,0.1,0.2,0.3,0.2,0.5c0,0.2,0.1,0.3,0.1,0.5
			c0,0.3,0,0.5-0.1,0.8s-0.2,0.4-0.4,0.6c-0.1,0.2-0.3,0.3-0.5,0.4L281.4,183.2z"/>
		<path class="st6" d="M284.3,181.6v-4.9c-0.1,0-0.3,0.1-0.4,0.1s-0.3,0.1-0.4,0.1l-0.1-0.6c0.1,0,0.3-0.1,0.4-0.2
			c0.1-0.1,0.3-0.1,0.4-0.2c0.1-0.1,0.3-0.1,0.4-0.2c0.1-0.1,0.2-0.1,0.2-0.2l0.4,0.1v6H284.3z"/>
	</g>
	<g>
		<rect x="293.3" y="178.2" class="st2" width="21.4" height="10.3"/>
		<path class="st6" d="M299.9,184.7v-4.9c-0.1,0-0.3,0.1-0.4,0.1s-0.3,0.1-0.4,0.1l-0.1-0.6c0.1,0,0.3-0.1,0.4-0.2
			c0.1-0.1,0.3-0.1,0.4-0.2c0.1-0.1,0.3-0.1,0.4-0.2c0.1-0.1,0.2-0.1,0.2-0.2l0.4,0.1v6H299.9z"/>
		<path class="st6" d="M302.5,186.3L302.5,186.3c0.1-0.2,0.2-0.3,0.3-0.5s0.1-0.4,0.1-0.6c0-0.1,0-0.2-0.1-0.3s-0.1-0.2-0.2-0.3
			c-0.1-0.1-0.1-0.1-0.2-0.1v-0.3l0.6-0.5c0.2,0.1,0.3,0.2,0.4,0.3c0.1,0.1,0.2,0.3,0.2,0.5c0,0.2,0.1,0.3,0.1,0.5
			c0,0.3,0,0.5-0.1,0.8s-0.2,0.4-0.4,0.6c-0.1,0.2-0.3,0.3-0.5,0.4L302.5,186.3z"/>
		<path class="st6" d="M306.8,184.8c-0.4,0-0.7-0.1-0.9-0.3c-0.3-0.2-0.5-0.4-0.6-0.7s-0.3-0.6-0.3-1c-0.1-0.4-0.1-0.8-0.1-1.2
			c0-0.6,0.1-1.1,0.3-1.6c0.2-0.4,0.4-0.8,0.8-1s0.7-0.4,1.1-0.4c0.4,0,0.7,0.1,1,0.2c0.3,0.2,0.5,0.4,0.6,0.6s0.3,0.6,0.3,1
			s0.1,0.7,0.1,1.2c0,0.6-0.1,1.2-0.3,1.6s-0.4,0.8-0.7,1.1C307.6,184.7,307.2,184.8,306.8,184.8z M306.8,184c0.4,0,0.7-0.2,0.8-0.5
			c0.2-0.4,0.3-0.9,0.3-1.7c0-0.4,0-0.8-0.1-1.1c-0.1-0.3-0.2-0.6-0.4-0.8c-0.2-0.2-0.4-0.3-0.6-0.3c-0.4,0-0.7,0.2-0.9,0.5
			c-0.2,0.4-0.3,0.9-0.3,1.5c0,0.4,0,0.8,0.1,1.1c0.1,0.3,0.2,0.6,0.4,0.8S306.6,184,306.8,184z"/>
	</g>
	<g>
		<rect x="315.4" y="182.2" class="st2" width="21.4" height="10.3"/>
		<path class="st6" d="M322.3,188.8c-0.4,0-0.7-0.1-0.9-0.3c-0.3-0.2-0.5-0.4-0.6-0.7s-0.3-0.6-0.3-1c-0.1-0.4-0.1-0.8-0.1-1.2
			c0-0.6,0.1-1.1,0.3-1.6c0.2-0.4,0.4-0.8,0.8-1s0.7-0.4,1.1-0.4c0.4,0,0.7,0.1,1,0.2c0.3,0.2,0.5,0.4,0.6,0.6s0.3,0.6,0.3,1
			s0.1,0.7,0.1,1.2c0,0.6-0.1,1.2-0.3,1.6s-0.4,0.8-0.7,1.1C323.1,188.6,322.7,188.8,322.3,188.8z M322.3,187.9
			c0.4,0,0.7-0.2,0.8-0.5c0.2-0.4,0.3-0.9,0.3-1.7c0-0.4,0-0.8-0.1-1.1c-0.1-0.3-0.2-0.6-0.4-0.8c-0.2-0.2-0.4-0.3-0.6-0.3
			c-0.4,0-0.7,0.2-0.9,0.5c-0.2,0.4-0.3,0.9-0.3,1.5c0,0.4,0,0.8,0.1,1.1c0.1,0.3,0.2,0.6,0.4,0.8S322.1,187.9,322.3,187.9z"/>
		<path class="st6" d="M325.5,190.3L325.5,190.3c0.1-0.2,0.2-0.3,0.3-0.5s0.1-0.4,0.1-0.6c0-0.1,0-0.2-0.1-0.3s-0.1-0.2-0.2-0.3
			c-0.1-0.1-0.1-0.1-0.2-0.1v-0.3l0.6-0.5c0.2,0.1,0.3,0.2,0.4,0.3c0.1,0.1,0.2,0.3,0.2,0.5c0,0.2,0.1,0.3,0.1,0.5
			c0,0.3,0,0.5-0.1,0.8s-0.2,0.4-0.4,0.6c-0.1,0.2-0.3,0.3-0.5,0.4L325.5,190.3z"/>
		<path class="st6" d="M327.8,184.8c0-0.4,0.1-0.8,0.2-1.1s0.4-0.6,0.7-0.8c0.3-0.2,0.7-0.3,1.1-0.3c0.4,0,0.8,0.1,1.1,0.3
			c0.3,0.2,0.5,0.5,0.6,0.8s0.2,0.7,0.2,1.1c0,0.5-0.1,0.9-0.2,1.3s-0.3,0.8-0.5,1.1s-0.5,0.6-0.7,0.9c-0.3,0.3-0.6,0.5-0.9,0.6
			c-0.3,0.2-0.6,0.3-0.9,0.3l-0.3-0.6c0.4-0.1,0.7-0.3,1-0.5s0.6-0.5,0.8-0.8s0.4-0.6,0.5-1c0.1-0.3,0.2-0.6,0.2-0.9
			c0-0.4,0-0.7-0.1-1s-0.2-0.5-0.3-0.7s-0.4-0.3-0.7-0.3c-0.2,0-0.4,0.1-0.5,0.2c-0.2,0.1-0.3,0.3-0.4,0.4s-0.1,0.4-0.1,0.6
			c0,0.5,0.1,0.8,0.2,1.1c0.2,0.2,0.4,0.4,0.6,0.4c0.2,0,0.3,0,0.4-0.1c0.1,0,0.2-0.1,0.2-0.1l0.2,0.5c-0.1,0.1-0.2,0.1-0.3,0.2
			c-0.2,0.1-0.4,0.1-0.7,0.1c-0.3,0-0.6-0.1-0.8-0.3s-0.4-0.4-0.5-0.7C327.9,185.4,327.8,185.1,327.8,184.8z"/>
	</g>
	<g>
		<rect x="337.3" y="182.2" class="st2" width="21.4" height="10.3"/>
		<path class="st6" d="M344.3,188.8c-0.4,0-0.7-0.1-0.9-0.3c-0.3-0.2-0.5-0.4-0.6-0.7s-0.3-0.6-0.3-1c-0.1-0.4-0.1-0.8-0.1-1.2
			c0-0.6,0.1-1.1,0.3-1.6c0.2-0.4,0.4-0.8,0.8-1c0.3-0.2,0.7-0.4,1.1-0.4c0.4,0,0.7,0.1,1,0.2c0.3,0.2,0.5,0.4,0.6,0.6
			c0.2,0.3,0.3,0.6,0.3,1s0.1,0.7,0.1,1.2c0,0.6-0.1,1.2-0.3,1.6s-0.4,0.8-0.7,1.1C345,188.6,344.7,188.8,344.3,188.8z M344.3,187.9
			c0.4,0,0.7-0.2,0.8-0.5c0.2-0.4,0.3-0.9,0.3-1.7c0-0.4,0-0.8-0.1-1.1c-0.1-0.3-0.2-0.6-0.4-0.8c-0.2-0.2-0.4-0.3-0.6-0.3
			c-0.4,0-0.7,0.2-0.9,0.5c-0.2,0.4-0.3,0.9-0.3,1.5c0,0.4,0,0.8,0.1,1.1c0.1,0.3,0.2,0.6,0.4,0.8S344,187.9,344.3,187.9z"/>
		<path class="st6" d="M347.4,190.3L347.4,190.3c0.1-0.2,0.2-0.3,0.3-0.5s0.1-0.4,0.1-0.6c0-0.1,0-0.2-0.1-0.3s-0.1-0.2-0.2-0.3
			c-0.1-0.1-0.1-0.1-0.2-0.1v-0.3l0.6-0.5c0.2,0.1,0.3,0.2,0.4,0.3c0.1,0.1,0.2,0.3,0.2,0.5s0.1,0.3,0.1,0.5c0,0.3,0,0.5-0.1,0.8
			s-0.2,0.4-0.4,0.6c-0.2,0.2-0.3,0.3-0.5,0.4L347.4,190.3z"/>
		<path class="st6" d="M349.8,184.8c0-0.4,0.1-0.8,0.2-1.1s0.4-0.6,0.7-0.8s0.7-0.3,1.1-0.3c0.4,0,0.8,0.1,1.1,0.3
			c0.3,0.2,0.5,0.5,0.6,0.8s0.2,0.7,0.2,1.1c0,0.5-0.1,0.9-0.2,1.3c-0.1,0.4-0.3,0.8-0.5,1.1s-0.5,0.6-0.7,0.9
			c-0.3,0.3-0.6,0.5-0.9,0.6c-0.3,0.2-0.6,0.3-0.9,0.3l-0.3-0.6c0.4-0.1,0.7-0.3,1-0.5c0.3-0.2,0.6-0.5,0.8-0.8
			c0.2-0.3,0.4-0.6,0.5-1c0.1-0.3,0.2-0.6,0.2-0.9c0-0.4,0-0.7-0.1-1s-0.2-0.5-0.3-0.7s-0.4-0.3-0.7-0.3c-0.2,0-0.4,0.1-0.5,0.2
			c-0.2,0.1-0.3,0.3-0.4,0.4s-0.1,0.4-0.1,0.6c0,0.5,0.1,0.8,0.2,1.1c0.2,0.2,0.4,0.4,0.6,0.4c0.2,0,0.3,0,0.4-0.1
			c0.1,0,0.2-0.1,0.2-0.1l0.2,0.5c-0.1,0.1-0.2,0.1-0.3,0.2c-0.2,0.1-0.4,0.1-0.7,0.1c-0.3,0-0.6-0.1-0.8-0.3
			c-0.2-0.2-0.4-0.4-0.5-0.7S349.8,185.1,349.8,184.8z"/>
	</g>
	<g>
		<rect x="359.4" y="189.3" class="st2" width="21.4" height="10.3"/>
		<path class="st6" d="M366.9,195.8c-0.4,0-0.7-0.1-0.9-0.3c-0.3-0.2-0.5-0.4-0.6-0.7s-0.3-0.6-0.3-1c-0.1-0.4-0.1-0.8-0.1-1.2
			c0-0.6,0.1-1.1,0.3-1.6c0.2-0.4,0.4-0.8,0.8-1c0.3-0.2,0.7-0.4,1.1-0.4c0.4,0,0.7,0.1,1,0.2c0.3,0.2,0.5,0.4,0.6,0.6
			c0.2,0.3,0.3,0.6,0.3,1s0.1,0.7,0.1,1.2c0,0.6-0.1,1.2-0.3,1.6s-0.4,0.8-0.7,1.1C367.6,195.7,367.3,195.8,366.9,195.8z M366.9,195
			c0.4,0,0.7-0.2,0.8-0.5c0.2-0.4,0.3-0.9,0.3-1.7c0-0.4,0-0.8-0.1-1.1c-0.1-0.3-0.2-0.6-0.4-0.8c-0.2-0.2-0.4-0.3-0.6-0.3
			c-0.4,0-0.7,0.2-0.9,0.5c-0.2,0.4-0.3,0.9-0.3,1.5c0,0.4,0,0.8,0.1,1.1c0.1,0.3,0.2,0.6,0.4,0.8S366.6,195,366.9,195z"/>
		<path class="st6" d="M370,197.4L370,197.4c0.1-0.2,0.2-0.3,0.3-0.5s0.1-0.4,0.1-0.6c0-0.1,0-0.2-0.1-0.3s-0.1-0.2-0.2-0.3
			c-0.1-0.1-0.1-0.1-0.2-0.1v-0.3l0.6-0.5c0.2,0.1,0.3,0.2,0.4,0.3c0.1,0.1,0.2,0.3,0.2,0.5s0.1,0.3,0.1,0.5c0,0.3,0,0.5-0.1,0.8
			s-0.2,0.4-0.4,0.6c-0.2,0.2-0.3,0.3-0.5,0.4L370,197.4z"/>
		<path class="st6" d="M372.8,195.8c0.1-0.3,0.3-0.6,0.4-0.9c0.1-0.3,0.2-0.6,0.4-0.9c0.1-0.3,0.2-0.6,0.3-0.9s0.2-0.6,0.3-0.9
			c0.1-0.3,0.2-0.6,0.3-0.9s0.2-0.6,0.3-0.8l-2.8,0l0-0.8h3.5l0.2,0.3l-2,5.7H372.8z"/>
	</g>
	<g>
		<rect x="381.7" y="189.3" class="st2" width="21.4" height="10.3"/>
		<path class="st6" d="M389.2,195.8c-0.4,0-0.7-0.1-0.9-0.3c-0.3-0.2-0.5-0.4-0.6-0.7s-0.3-0.6-0.3-1c-0.1-0.4-0.1-0.8-0.1-1.2
			c0-0.6,0.1-1.1,0.3-1.6c0.2-0.4,0.4-0.8,0.8-1c0.3-0.2,0.7-0.4,1.1-0.4c0.4,0,0.7,0.1,1,0.2s0.5,0.4,0.6,0.6
			c0.2,0.3,0.3,0.6,0.3,1s0.1,0.7,0.1,1.2c0,0.6-0.1,1.2-0.3,1.6s-0.4,0.8-0.7,1.1C390,195.7,389.6,195.8,389.2,195.8z M389.2,195
			c0.4,0,0.7-0.2,0.8-0.5c0.2-0.4,0.3-0.9,0.3-1.7c0-0.4,0-0.8-0.1-1.1c-0.1-0.3-0.2-0.6-0.4-0.8c-0.2-0.2-0.4-0.3-0.6-0.3
			c-0.4,0-0.7,0.2-0.9,0.5c-0.2,0.4-0.3,0.9-0.3,1.5c0,0.4,0,0.8,0.1,1.1c0.1,0.3,0.2,0.6,0.4,0.8S388.9,195,389.2,195z"/>
		<path class="st6" d="M392.4,197.4L392.4,197.4c0.1-0.2,0.2-0.3,0.3-0.5s0.1-0.4,0.1-0.6c0-0.1,0-0.2-0.1-0.3s-0.1-0.2-0.2-0.3
			c-0.1-0.1-0.1-0.1-0.2-0.1v-0.3l0.6-0.5c0.2,0.1,0.3,0.2,0.4,0.3c0.1,0.1,0.2,0.3,0.2,0.5c0,0.2,0.1,0.3,0.1,0.5
			c0,0.3,0,0.5-0.1,0.8s-0.2,0.4-0.4,0.6c-0.1,0.2-0.3,0.3-0.5,0.4L392.4,197.4z"/>
		<path class="st6" d="M395.1,195.8c0.1-0.3,0.3-0.6,0.4-0.9c0.1-0.3,0.2-0.6,0.4-0.9c0.1-0.3,0.2-0.6,0.3-0.9
			c0.1-0.3,0.2-0.6,0.3-0.9c0.1-0.3,0.2-0.6,0.3-0.9c0.1-0.3,0.2-0.6,0.3-0.8l-2.8,0l0-0.8h3.5l0.2,0.3l-2,5.7H395.1z"/>
	</g>
	<g>
		<rect x="403.9" y="193" class="st2" width="21.4" height="10.3"/>
		<path class="st6" d="M410.9,199.6c-0.4,0-0.7-0.1-0.9-0.3c-0.3-0.2-0.5-0.4-0.6-0.7s-0.3-0.6-0.3-1c-0.1-0.4-0.1-0.8-0.1-1.2
			c0-0.6,0.1-1.1,0.3-1.6c0.2-0.4,0.4-0.8,0.8-1c0.3-0.2,0.7-0.4,1.1-0.4c0.4,0,0.7,0.1,1,0.2c0.3,0.2,0.5,0.4,0.6,0.6
			c0.2,0.3,0.3,0.6,0.3,1s0.1,0.7,0.1,1.2c0,0.6-0.1,1.2-0.3,1.6s-0.4,0.8-0.7,1.1C411.7,199.4,411.3,199.6,410.9,199.6z
			 M410.9,198.7c0.4,0,0.7-0.2,0.8-0.5c0.2-0.4,0.3-0.9,0.3-1.7c0-0.4,0-0.8-0.1-1.1c-0.1-0.3-0.2-0.6-0.4-0.8
			c-0.2-0.2-0.4-0.3-0.6-0.3c-0.4,0-0.7,0.2-0.9,0.5c-0.2,0.4-0.3,0.9-0.3,1.5c0,0.4,0,0.8,0.1,1.1c0.1,0.3,0.2,0.6,0.4,0.8
			S410.7,198.7,410.9,198.7z"/>
		<path class="st6" d="M414.1,201.1L414.1,201.1c0.1-0.2,0.2-0.3,0.3-0.5s0.1-0.4,0.1-0.6c0-0.1,0-0.2-0.1-0.3s-0.1-0.2-0.2-0.3
			c-0.1-0.1-0.1-0.1-0.2-0.1v-0.3l0.6-0.5c0.2,0.1,0.3,0.2,0.4,0.3c0.1,0.1,0.2,0.3,0.2,0.5s0.1,0.3,0.1,0.5c0,0.3,0,0.5-0.1,0.8
			s-0.2,0.4-0.4,0.6c-0.2,0.2-0.3,0.3-0.5,0.4L414.1,201.1z"/>
		<path class="st6" d="M416.4,197.3c0-0.4,0.1-0.8,0.2-1.2c0.1-0.4,0.3-0.7,0.5-1c0.2-0.3,0.4-0.6,0.7-0.8c0.3-0.2,0.5-0.4,0.8-0.6
			c0.3-0.1,0.6-0.3,0.9-0.3l0.2,0.6c-0.3,0.1-0.7,0.2-1,0.5c-0.3,0.2-0.5,0.4-0.7,0.7s-0.4,0.6-0.5,0.9c-0.1,0.3-0.2,0.6-0.2,0.9
			c0,0.4,0,0.7,0.1,1c0.1,0.3,0.2,0.6,0.3,0.8c0.2,0.2,0.4,0.3,0.7,0.3c0.2,0,0.4-0.1,0.6-0.2s0.3-0.3,0.3-0.5s0.1-0.4,0.1-0.7
			c0-0.3,0-0.6-0.1-0.7c-0.1-0.2-0.2-0.3-0.3-0.4c-0.1-0.1-0.3-0.1-0.4-0.1c-0.1,0-0.3,0-0.4,0.1c-0.1,0-0.2,0.1-0.2,0.1l-0.2-0.5
			c0,0,0.1-0.1,0.2-0.1c0.1-0.1,0.2-0.1,0.4-0.1c0.1,0,0.3-0.1,0.5-0.1c0.3,0,0.6,0.1,0.8,0.2c0.2,0.2,0.4,0.4,0.5,0.6
			c0.1,0.3,0.2,0.6,0.2,0.9c0,0.3,0,0.6-0.1,0.8s-0.2,0.5-0.4,0.7s-0.4,0.4-0.6,0.5c-0.3,0.1-0.5,0.2-0.9,0.2c-0.4,0-0.7-0.1-1-0.3
			s-0.5-0.5-0.7-0.8C416.4,198.1,416.4,197.7,416.4,197.3z"/>
	</g>
	<g>
		<rect x="425.9" y="196.5" class="st2" width="21.4" height="10.3"/>
		<path class="st6" d="M433.2,203c-0.4,0-0.7-0.1-0.9-0.3c-0.3-0.2-0.5-0.4-0.6-0.7s-0.3-0.6-0.3-1c-0.1-0.4-0.1-0.8-0.1-1.2
			c0-0.6,0.1-1.1,0.3-1.6c0.2-0.4,0.4-0.8,0.8-1c0.3-0.2,0.7-0.4,1.1-0.4c0.4,0,0.7,0.1,1,0.2c0.3,0.2,0.5,0.4,0.6,0.6
			c0.2,0.3,0.3,0.6,0.3,1s0.1,0.7,0.1,1.2c0,0.6-0.1,1.2-0.3,1.6s-0.4,0.8-0.7,1.1C433.9,202.9,433.6,203,433.2,203z M433.2,202.2
			c0.4,0,0.7-0.2,0.8-0.5c0.2-0.4,0.3-0.9,0.3-1.7c0-0.4,0-0.8-0.1-1.1c-0.1-0.3-0.2-0.6-0.4-0.8c-0.2-0.2-0.4-0.3-0.6-0.3
			c-0.4,0-0.7,0.2-0.9,0.5c-0.2,0.4-0.3,0.9-0.3,1.5c0,0.4,0,0.8,0.1,1.1c0.1,0.3,0.2,0.6,0.4,0.8S432.9,202.2,433.2,202.2z"/>
		<path class="st6" d="M436.3,204.6L436.3,204.6c0.1-0.2,0.2-0.3,0.3-0.5s0.1-0.4,0.1-0.6c0-0.1,0-0.2-0.1-0.3s-0.1-0.2-0.2-0.3
			c-0.1-0.1-0.1-0.1-0.2-0.1v-0.3l0.6-0.5c0.2,0.1,0.3,0.2,0.4,0.3c0.1,0.1,0.2,0.3,0.2,0.5s0.1,0.3,0.1,0.5c0,0.3,0,0.5-0.1,0.8
			s-0.2,0.4-0.4,0.6c-0.2,0.2-0.3,0.3-0.5,0.4L436.3,204.6z"/>
		<path class="st6" d="M439.2,203.1c-0.1,0-0.1,0-0.2,0c-0.1,0-0.2,0-0.2,0v-0.6c0,0,0.1,0,0.1,0c0,0,0.1,0,0.1,0
			c0.4,0,0.8-0.1,1.1-0.2s0.6-0.3,0.8-0.5c0.2-0.2,0.3-0.5,0.3-0.7c0-0.4-0.1-0.6-0.3-0.8c-0.2-0.2-0.5-0.2-0.9-0.2
			c-0.1,0-0.3,0-0.5,0.1c-0.2,0-0.3,0.1-0.5,0.1l-0.2-0.1l0.2-2.9h2.9l-0.1,0.8h-2.1l-0.1,1.5c0.2,0,0.3-0.1,0.5-0.1
			c0.1,0,0.3,0,0.4,0c0.5,0,1,0.1,1.2,0.4c0.3,0.3,0.4,0.7,0.4,1.2c0,0.3-0.1,0.5-0.2,0.8s-0.3,0.5-0.5,0.7
			c-0.2,0.2-0.5,0.4-0.9,0.5C440,203,439.6,203.1,439.2,203.1z"/>
	</g>
	<g>
		<rect x="448.1" y="203.3" class="st2" width="21.4" height="10.3"/>
		<path class="st6" d="M455.5,209.9c-0.4,0-0.7-0.1-0.9-0.3c-0.3-0.2-0.5-0.4-0.6-0.7s-0.3-0.6-0.3-1c-0.1-0.4-0.1-0.8-0.1-1.2
			c0-0.6,0.1-1.1,0.3-1.6c0.2-0.4,0.4-0.8,0.8-1c0.3-0.2,0.7-0.4,1.1-0.4c0.4,0,0.7,0.1,1,0.2s0.5,0.4,0.6,0.6
			c0.2,0.3,0.3,0.6,0.3,1s0.1,0.7,0.1,1.2c0,0.6-0.1,1.2-0.3,1.6s-0.4,0.8-0.7,1.1C456.3,209.7,455.9,209.9,455.5,209.9z M455.5,209
			c0.4,0,0.7-0.2,0.8-0.5c0.2-0.4,0.3-0.9,0.3-1.7c0-0.4,0-0.8-0.1-1.1c-0.1-0.3-0.2-0.6-0.4-0.8c-0.2-0.2-0.4-0.3-0.6-0.3
			c-0.4,0-0.7,0.2-0.9,0.5c-0.2,0.4-0.3,0.9-0.3,1.5c0,0.4,0,0.8,0.1,1.1c0.1,0.3,0.2,0.6,0.4,0.8S455.3,209,455.5,209z"/>
		<path class="st6" d="M458.7,211.4L458.7,211.4c0.1-0.2,0.2-0.3,0.3-0.5s0.1-0.4,0.1-0.6c0-0.1,0-0.2-0.1-0.3s-0.1-0.2-0.2-0.3
			c-0.1-0.1-0.1-0.1-0.2-0.1v-0.3l0.6-0.5c0.2,0.1,0.3,0.2,0.4,0.3c0.1,0.1,0.2,0.3,0.2,0.5c0,0.2,0.1,0.3,0.1,0.5
			c0,0.3,0,0.5-0.1,0.8s-0.2,0.4-0.4,0.6c-0.1,0.2-0.3,0.3-0.5,0.4L458.7,211.4z"/>
		<path class="st6" d="M460.9,209.8l0-0.6c0.1,0,0.2,0,0.3,0c0.1,0,0.2,0,0.3,0c0.4,0,0.7,0,0.9-0.1c0.3-0.1,0.5-0.2,0.6-0.4
			c0.2-0.2,0.2-0.4,0.2-0.6c0-0.2,0-0.4-0.1-0.6c-0.1-0.2-0.2-0.3-0.4-0.4c-0.2-0.1-0.4-0.1-0.7-0.1l-0.4,0.1l-0.2-0.6
			c0.1,0,0.3-0.1,0.4-0.1s0.2-0.1,0.3-0.1c0.3-0.1,0.5-0.3,0.6-0.4c0.1-0.2,0.2-0.4,0.2-0.6c0-0.3-0.1-0.5-0.2-0.6
			c-0.2-0.1-0.4-0.2-0.6-0.2c-0.3,0-0.5,0-0.7,0.1c-0.2,0.1-0.3,0.2-0.5,0.3l-0.3-0.5c0.1-0.1,0.2-0.2,0.4-0.3
			c0.2-0.1,0.3-0.2,0.5-0.2c0.2-0.1,0.4-0.1,0.6-0.1c0.3,0,0.6,0.1,0.8,0.2c0.2,0.1,0.4,0.3,0.6,0.5s0.2,0.5,0.2,0.8
			c0,0.3-0.1,0.5-0.2,0.7c-0.1,0.2-0.3,0.4-0.5,0.5s-0.4,0.3-0.6,0.3v-0.1c0.3,0,0.6,0.1,0.9,0.2s0.4,0.3,0.5,0.5
			c0.1,0.2,0.2,0.5,0.2,0.7c0,0.3-0.1,0.6-0.3,0.9c-0.2,0.3-0.5,0.5-0.9,0.7c-0.4,0.2-0.8,0.3-1.3,0.3c-0.1,0-0.3,0-0.4,0
			S461,209.8,460.9,209.8z"/>
	</g>
	<g>
		<rect x="470.1" y="203.3" class="st2" width="21.4" height="10.3"/>
		<path class="st6" d="M477.5,209.9c-0.4,0-0.7-0.1-0.9-0.3c-0.3-0.2-0.5-0.4-0.6-0.7s-0.3-0.6-0.3-1c-0.1-0.4-0.1-0.8-0.1-1.2
			c0-0.6,0.1-1.1,0.3-1.6c0.2-0.4,0.4-0.8,0.8-1c0.3-0.2,0.7-0.4,1.1-0.4c0.4,0,0.7,0.1,1,0.2s0.5,0.4,0.6,0.6
			c0.2,0.3,0.3,0.6,0.3,1s0.1,0.7,0.1,1.2c0,0.6-0.1,1.2-0.3,1.6s-0.4,0.8-0.7,1.1C478.2,209.7,477.9,209.9,477.5,209.9z M477.5,209
			c0.4,0,0.7-0.2,0.8-0.5c0.2-0.4,0.3-0.9,0.3-1.7c0-0.4,0-0.8-0.1-1.1c-0.1-0.3-0.2-0.6-0.4-0.8c-0.2-0.2-0.4-0.3-0.6-0.3
			c-0.4,0-0.7,0.2-0.9,0.5c-0.2,0.4-0.3,0.9-0.3,1.5c0,0.4,0,0.8,0.1,1.1c0.1,0.3,0.2,0.6,0.4,0.8S477.2,209,477.5,209z"/>
		<path class="st6" d="M480.6,211.4L480.6,211.4c0.1-0.2,0.2-0.3,0.3-0.5s0.1-0.4,0.1-0.6c0-0.1,0-0.2-0.1-0.3s-0.1-0.2-0.2-0.3
			c-0.1-0.1-0.1-0.1-0.2-0.1v-0.3l0.6-0.5c0.2,0.1,0.3,0.2,0.4,0.3c0.1,0.1,0.2,0.3,0.2,0.5c0,0.2,0.1,0.3,0.1,0.5
			c0,0.3,0,0.5-0.1,0.8s-0.2,0.4-0.4,0.6c-0.1,0.2-0.3,0.3-0.5,0.4L480.6,211.4z"/>
		<path class="st6" d="M482.9,209.8l0-0.6c0.1,0,0.2,0,0.3,0c0.1,0,0.2,0,0.3,0c0.4,0,0.7,0,0.9-0.1c0.3-0.1,0.5-0.2,0.6-0.4
			c0.2-0.2,0.2-0.4,0.2-0.6c0-0.2,0-0.4-0.1-0.6c-0.1-0.2-0.2-0.3-0.4-0.4c-0.2-0.1-0.4-0.1-0.7-0.1l-0.4,0.1l-0.2-0.6
			c0.1,0,0.3-0.1,0.4-0.1s0.2-0.1,0.3-0.1c0.3-0.1,0.5-0.3,0.6-0.4c0.1-0.2,0.2-0.4,0.2-0.6c0-0.3-0.1-0.5-0.2-0.6
			c-0.2-0.1-0.4-0.2-0.6-0.2c-0.3,0-0.5,0-0.7,0.1c-0.2,0.1-0.3,0.2-0.5,0.3l-0.3-0.5c0.1-0.1,0.2-0.2,0.4-0.3
			c0.2-0.1,0.3-0.2,0.5-0.2c0.2-0.1,0.4-0.1,0.6-0.1c0.3,0,0.6,0.1,0.8,0.2c0.2,0.1,0.4,0.3,0.6,0.5s0.2,0.5,0.2,0.8
			c0,0.3-0.1,0.5-0.2,0.7c-0.1,0.2-0.3,0.4-0.5,0.5s-0.4,0.3-0.6,0.3v-0.1c0.3,0,0.6,0.1,0.9,0.2s0.4,0.3,0.5,0.5
			c0.1,0.2,0.2,0.5,0.2,0.7c0,0.3-0.1,0.6-0.3,0.9c-0.2,0.3-0.5,0.5-0.9,0.7c-0.4,0.2-0.8,0.3-1.3,0.3c-0.1,0-0.3,0-0.4,0
			S483,209.8,482.9,209.8z"/>
	</g>
	<g>
		<rect x="492.1" y="214.1" class="st2" width="21.4" height="10.3"/>
		<path class="st6" d="M499.1,220.7c-0.4,0-0.7-0.1-0.9-0.3c-0.3-0.2-0.5-0.4-0.6-0.7c-0.2-0.3-0.3-0.6-0.3-1
			c-0.1-0.4-0.1-0.8-0.1-1.2c0-0.6,0.1-1.1,0.3-1.6c0.2-0.4,0.4-0.8,0.8-1s0.7-0.4,1.1-0.4c0.4,0,0.7,0.1,0.9,0.2s0.5,0.4,0.6,0.6
			s0.3,0.6,0.3,1c0.1,0.4,0.1,0.7,0.1,1.2c0,0.6-0.1,1.2-0.3,1.6s-0.4,0.8-0.7,1.1C499.9,220.5,499.5,220.7,499.1,220.7z
			 M499.1,219.8c0.4,0,0.7-0.2,0.8-0.5c0.2-0.4,0.3-0.9,0.3-1.7c0-0.4,0-0.8-0.1-1.1c-0.1-0.3-0.2-0.6-0.4-0.8
			c-0.2-0.2-0.4-0.3-0.6-0.3c-0.4,0-0.7,0.2-0.9,0.5c-0.2,0.4-0.3,0.9-0.3,1.5c0,0.4,0,0.8,0.1,1.1c0.1,0.3,0.2,0.6,0.4,0.8
			S498.8,219.8,499.1,219.8z"/>
		<path class="st6" d="M502.3,222.2L502.3,222.2c0.1-0.2,0.2-0.3,0.3-0.5c0.1-0.2,0.1-0.4,0.1-0.6c0-0.1,0-0.2-0.1-0.3
			s-0.1-0.2-0.2-0.3c-0.1-0.1-0.1-0.1-0.2-0.1V220l0.6-0.5c0.2,0.1,0.3,0.2,0.4,0.3c0.1,0.1,0.2,0.3,0.2,0.5s0.1,0.3,0.1,0.5
			c0,0.3,0,0.5-0.1,0.8s-0.2,0.4-0.4,0.6c-0.1,0.2-0.3,0.3-0.5,0.4L502.3,222.2z"/>
		<path class="st6" d="M506.5,220.7c-0.4,0-0.7-0.1-0.9-0.3c-0.3-0.2-0.5-0.4-0.6-0.7c-0.2-0.3-0.3-0.6-0.3-1
			c-0.1-0.4-0.1-0.8-0.1-1.2c0-0.6,0.1-1.1,0.3-1.6c0.2-0.4,0.4-0.8,0.8-1s0.7-0.4,1.1-0.4c0.4,0,0.7,0.1,1,0.2
			c0.3,0.2,0.5,0.4,0.6,0.6s0.3,0.6,0.3,1c0.1,0.4,0.1,0.7,0.1,1.2c0,0.6-0.1,1.2-0.3,1.6s-0.4,0.8-0.7,1.1
			C507.3,220.5,506.9,220.7,506.5,220.7z M506.5,219.8c0.4,0,0.7-0.2,0.8-0.5c0.2-0.4,0.3-0.9,0.3-1.7c0-0.4,0-0.8-0.1-1.1
			c-0.1-0.3-0.2-0.6-0.4-0.8c-0.2-0.2-0.4-0.3-0.6-0.3c-0.4,0-0.7,0.2-0.9,0.5c-0.2,0.4-0.3,0.9-0.3,1.5c0,0.4,0,0.8,0.1,1.1
			c0.1,0.3,0.2,0.6,0.4,0.8S506.3,219.8,506.5,219.8z"/>
	</g>
	<g>
		<rect x="514.3" y="214.1" class="st2" width="21.4" height="10.3"/>
		<path class="st6" d="M521.3,220.7c-0.4,0-0.7-0.1-0.9-0.3c-0.3-0.2-0.5-0.4-0.6-0.7s-0.3-0.6-0.3-1c-0.1-0.4-0.1-0.8-0.1-1.2
			c0-0.6,0.1-1.1,0.3-1.6c0.2-0.4,0.4-0.8,0.8-1c0.3-0.2,0.7-0.4,1.1-0.4c0.4,0,0.7,0.1,1,0.2s0.5,0.4,0.6,0.6
			c0.2,0.3,0.3,0.6,0.3,1s0.1,0.7,0.1,1.2c0,0.6-0.1,1.2-0.3,1.6s-0.4,0.8-0.7,1.1C522.1,220.5,521.7,220.7,521.3,220.7z
			 M521.3,219.8c0.4,0,0.7-0.2,0.8-0.5c0.2-0.4,0.3-0.9,0.3-1.7c0-0.4,0-0.8-0.1-1.1c-0.1-0.3-0.2-0.6-0.4-0.8
			c-0.2-0.2-0.4-0.3-0.6-0.3c-0.4,0-0.7,0.2-0.9,0.5c-0.2,0.4-0.3,0.9-0.3,1.5c0,0.4,0,0.8,0.1,1.1c0.1,0.3,0.2,0.6,0.4,0.8
			S521,219.8,521.3,219.8z"/>
		<path class="st6" d="M524.5,222.2L524.5,222.2c0.1-0.2,0.2-0.3,0.3-0.5s0.1-0.4,0.1-0.6c0-0.1,0-0.2-0.1-0.3s-0.1-0.2-0.2-0.3
			c-0.1-0.1-0.1-0.1-0.2-0.1V220l0.6-0.5c0.2,0.1,0.3,0.2,0.4,0.3c0.1,0.1,0.2,0.3,0.2,0.5c0,0.2,0.1,0.3,0.1,0.5
			c0,0.3,0,0.5-0.1,0.8s-0.2,0.4-0.4,0.6c-0.1,0.2-0.3,0.3-0.5,0.4L524.5,222.2z"/>
		<path class="st6" d="M528.7,220.7c-0.4,0-0.7-0.1-0.9-0.3c-0.3-0.2-0.5-0.4-0.6-0.7s-0.3-0.6-0.3-1c-0.1-0.4-0.1-0.8-0.1-1.2
			c0-0.6,0.1-1.1,0.3-1.6c0.2-0.4,0.4-0.8,0.8-1c0.3-0.2,0.7-0.4,1.1-0.4c0.4,0,0.7,0.1,1,0.2s0.5,0.4,0.6,0.6
			c0.2,0.3,0.3,0.6,0.3,1s0.1,0.7,0.1,1.2c0,0.6-0.1,1.2-0.3,1.6s-0.4,0.8-0.7,1.1C529.5,220.5,529.1,220.7,528.7,220.7z
			 M528.7,219.8c0.4,0,0.7-0.2,0.8-0.5c0.2-0.4,0.3-0.9,0.3-1.7c0-0.4,0-0.8-0.1-1.1c-0.1-0.3-0.2-0.6-0.4-0.8
			c-0.2-0.2-0.4-0.3-0.6-0.3c-0.4,0-0.7,0.2-0.9,0.5c-0.2,0.4-0.3,0.9-0.3,1.5c0,0.4,0,0.8,0.1,1.1c0.1,0.3,0.2,0.6,0.4,0.8
			S528.5,219.8,528.7,219.8z"/>
	</g>
	<g>
		<rect x="536.4" y="214.1" class="st2" width="21.4" height="10.3"/>
		<path class="st6" d="M543.4,220.7c-0.4,0-0.7-0.1-0.9-0.3c-0.3-0.2-0.5-0.4-0.6-0.7s-0.3-0.6-0.3-1c-0.1-0.4-0.1-0.8-0.1-1.2
			c0-0.6,0.1-1.1,0.3-1.6c0.2-0.4,0.4-0.8,0.8-1c0.3-0.2,0.7-0.4,1.1-0.4c0.4,0,0.7,0.1,1,0.2s0.5,0.4,0.6,0.6
			c0.2,0.3,0.3,0.6,0.3,1s0.1,0.7,0.1,1.2c0,0.6-0.1,1.2-0.3,1.6s-0.4,0.8-0.7,1.1C544.1,220.5,543.8,220.7,543.4,220.7z
			 M543.4,219.8c0.4,0,0.7-0.2,0.8-0.5c0.2-0.4,0.3-0.9,0.3-1.7c0-0.4,0-0.8-0.1-1.1c-0.1-0.3-0.2-0.6-0.4-0.8
			c-0.2-0.2-0.4-0.3-0.6-0.3c-0.4,0-0.7,0.2-0.9,0.5c-0.2,0.4-0.3,0.9-0.3,1.5c0,0.4,0,0.8,0.1,1.1c0.1,0.3,0.2,0.6,0.4,0.8
			S543.1,219.8,543.4,219.8z"/>
		<path class="st6" d="M546.5,222.2L546.5,222.2c0.1-0.2,0.2-0.3,0.3-0.5s0.1-0.4,0.1-0.6c0-0.1,0-0.2-0.1-0.3s-0.1-0.2-0.2-0.3
			c-0.1-0.1-0.1-0.1-0.2-0.1V220l0.6-0.5c0.2,0.1,0.3,0.2,0.4,0.3c0.1,0.1,0.2,0.3,0.2,0.5c0,0.2,0.1,0.3,0.1,0.5
			c0,0.3,0,0.5-0.1,0.8s-0.2,0.4-0.4,0.6c-0.1,0.2-0.3,0.3-0.5,0.4L546.5,222.2z"/>
		<path class="st6" d="M550.8,220.7c-0.4,0-0.7-0.1-0.9-0.3c-0.3-0.2-0.5-0.4-0.6-0.7s-0.3-0.6-0.3-1c-0.1-0.4-0.1-0.8-0.1-1.2
			c0-0.6,0.1-1.1,0.3-1.6c0.2-0.4,0.4-0.8,0.8-1c0.3-0.2,0.7-0.4,1.1-0.4c0.4,0,0.7,0.1,1,0.2s0.5,0.4,0.6,0.6
			c0.2,0.3,0.3,0.6,0.3,1s0.1,0.7,0.1,1.2c0,0.6-0.1,1.2-0.3,1.6s-0.4,0.8-0.7,1.1C551.6,220.5,551.2,220.7,550.8,220.7z
			 M550.8,219.8c0.4,0,0.7-0.2,0.8-0.5c0.2-0.4,0.3-0.9,0.3-1.7c0-0.4,0-0.8-0.1-1.1c-0.1-0.3-0.2-0.6-0.4-0.8
			c-0.2-0.2-0.4-0.3-0.6-0.3c-0.4,0-0.7,0.2-0.9,0.5c-0.2,0.4-0.3,0.9-0.3,1.5c0,0.4,0,0.8,0.1,1.1c0.1,0.3,0.2,0.6,0.4,0.8
			S550.6,219.8,550.8,219.8z"/>
	</g>
	<g>
		<rect x="558.5" y="214.1" class="st2" width="21.4" height="10.3"/>
		<path class="st6" d="M565.4,220.7c-0.4,0-0.7-0.1-0.9-0.3c-0.3-0.2-0.5-0.4-0.6-0.7s-0.3-0.6-0.3-1c-0.1-0.4-0.1-0.8-0.1-1.2
			c0-0.6,0.1-1.1,0.3-1.6c0.2-0.4,0.4-0.8,0.8-1c0.3-0.2,0.7-0.4,1.1-0.4c0.4,0,0.7,0.1,1,0.2s0.5,0.4,0.6,0.6
			c0.2,0.3,0.3,0.6,0.3,1s0.1,0.7,0.1,1.2c0,0.6-0.1,1.2-0.3,1.6s-0.4,0.8-0.7,1.1C566.2,220.5,565.9,220.7,565.4,220.7z
			 M565.5,219.8c0.4,0,0.7-0.2,0.8-0.5c0.2-0.4,0.3-0.9,0.3-1.7c0-0.4,0-0.8-0.1-1.1c-0.1-0.3-0.2-0.6-0.4-0.8
			c-0.2-0.2-0.4-0.3-0.6-0.3c-0.4,0-0.7,0.2-0.9,0.5c-0.2,0.4-0.3,0.9-0.3,1.5c0,0.4,0,0.8,0.1,1.1c0.1,0.3,0.2,0.6,0.4,0.8
			S565.2,219.8,565.5,219.8z"/>
		<path class="st6" d="M568.6,222.2L568.6,222.2c0.1-0.2,0.2-0.3,0.3-0.5s0.1-0.4,0.1-0.6c0-0.1,0-0.2-0.1-0.3s-0.1-0.2-0.2-0.3
			c-0.1-0.1-0.1-0.1-0.2-0.1V220l0.6-0.5c0.2,0.1,0.3,0.2,0.4,0.3c0.1,0.1,0.2,0.3,0.2,0.5c0,0.2,0.1,0.3,0.1,0.5
			c0,0.3,0,0.5-0.1,0.8s-0.2,0.4-0.4,0.6c-0.1,0.2-0.3,0.3-0.5,0.4L568.6,222.2z"/>
		<path class="st6" d="M572.9,220.7c-0.4,0-0.7-0.1-0.9-0.3c-0.3-0.2-0.5-0.4-0.6-0.7s-0.3-0.6-0.3-1c-0.1-0.4-0.1-0.8-0.1-1.2
			c0-0.6,0.1-1.1,0.3-1.6c0.2-0.4,0.4-0.8,0.8-1c0.3-0.2,0.7-0.4,1.1-0.4c0.4,0,0.7,0.1,1,0.2s0.5,0.4,0.6,0.6
			c0.2,0.3,0.3,0.6,0.3,1s0.1,0.7,0.1,1.2c0,0.6-0.1,1.2-0.3,1.6s-0.4,0.8-0.7,1.1C573.6,220.5,573.3,220.7,572.9,220.7z
			 M572.9,219.8c0.4,0,0.7-0.2,0.8-0.5c0.2-0.4,0.3-0.9,0.3-1.7c0-0.4,0-0.8-0.1-1.1c-0.1-0.3-0.2-0.6-0.4-0.8
			c-0.2-0.2-0.4-0.3-0.6-0.3c-0.4,0-0.7,0.2-0.9,0.5c-0.2,0.4-0.3,0.9-0.3,1.5c0,0.4,0,0.8,0.1,1.1c0.1,0.3,0.2,0.6,0.4,0.8
			S572.6,219.8,572.9,219.8z"/>
	</g>
	<g>
		<rect x="580.6" y="214.1" class="st2" width="21.4" height="10.3"/>
		<path class="st6" d="M587.5,220.7c-0.4,0-0.7-0.1-0.9-0.3c-0.3-0.2-0.5-0.4-0.6-0.7s-0.3-0.6-0.3-1c-0.1-0.4-0.1-0.8-0.1-1.2
			c0-0.6,0.1-1.1,0.3-1.6c0.2-0.4,0.4-0.8,0.8-1c0.3-0.2,0.7-0.4,1.1-0.4c0.4,0,0.7,0.1,1,0.2s0.5,0.4,0.6,0.6
			c0.2,0.3,0.3,0.6,0.3,1s0.1,0.7,0.1,1.2c0,0.6-0.1,1.2-0.3,1.6s-0.4,0.8-0.7,1.1C588.3,220.5,587.9,220.7,587.5,220.7z
			 M587.5,219.8c0.4,0,0.7-0.2,0.8-0.5c0.2-0.4,0.3-0.9,0.3-1.7c0-0.4,0-0.8-0.1-1.1c-0.1-0.3-0.2-0.6-0.4-0.8
			c-0.2-0.2-0.4-0.3-0.6-0.3c-0.4,0-0.7,0.2-0.9,0.5c-0.2,0.4-0.3,0.9-0.3,1.5c0,0.4,0,0.8,0.1,1.1c0.1,0.3,0.2,0.6,0.4,0.8
			S587.3,219.8,587.5,219.8z"/>
		<path class="st6" d="M590.7,222.2L590.7,222.2c0.1-0.2,0.2-0.3,0.3-0.5s0.1-0.4,0.1-0.6c0-0.1,0-0.2-0.1-0.3s-0.1-0.2-0.2-0.3
			c-0.1-0.1-0.1-0.1-0.2-0.1V220l0.6-0.5c0.2,0.1,0.3,0.2,0.4,0.3c0.1,0.1,0.2,0.3,0.2,0.5c0,0.2,0.1,0.3,0.1,0.5
			c0,0.3,0,0.5-0.1,0.8s-0.2,0.4-0.4,0.6c-0.1,0.2-0.3,0.3-0.5,0.4L590.7,222.2z"/>
		<path class="st6" d="M595,220.7c-0.4,0-0.7-0.1-0.9-0.3c-0.3-0.2-0.5-0.4-0.6-0.7s-0.3-0.6-0.3-1c-0.1-0.4-0.1-0.8-0.1-1.2
			c0-0.6,0.1-1.1,0.3-1.6c0.2-0.4,0.4-0.8,0.8-1c0.3-0.2,0.7-0.4,1.1-0.4c0.4,0,0.7,0.1,1,0.2s0.5,0.4,0.6,0.6
			c0.2,0.3,0.3,0.6,0.3,1s0.1,0.7,0.1,1.2c0,0.6-0.1,1.2-0.3,1.6s-0.4,0.8-0.7,1.1C595.7,220.5,595.4,220.7,595,220.7z M595,219.8
			c0.4,0,0.7-0.2,0.8-0.5c0.2-0.4,0.3-0.9,0.3-1.7c0-0.4,0-0.8-0.1-1.1c-0.1-0.3-0.2-0.6-0.4-0.8c-0.2-0.2-0.4-0.3-0.6-0.3
			c-0.4,0-0.7,0.2-0.9,0.5c-0.2,0.4-0.3,0.9-0.3,1.5c0,0.4,0,0.8,0.1,1.1c0.1,0.3,0.2,0.6,0.4,0.8S594.7,219.8,595,219.8z"/>
	</g>
	<g>
		<rect x="602.8" y="214.1" class="st2" width="21.4" height="10.3"/>
		<path class="st6" d="M609.7,220.7c-0.4,0-0.7-0.1-0.9-0.3c-0.3-0.2-0.5-0.4-0.6-0.7s-0.3-0.6-0.3-1c-0.1-0.4-0.1-0.8-0.1-1.2
			c0-0.6,0.1-1.1,0.3-1.6c0.2-0.4,0.4-0.8,0.8-1c0.3-0.2,0.7-0.4,1.1-0.4c0.4,0,0.7,0.1,1,0.2c0.3,0.2,0.5,0.4,0.6,0.6
			c0.2,0.3,0.3,0.6,0.3,1s0.1,0.7,0.1,1.2c0,0.6-0.1,1.2-0.3,1.6s-0.4,0.8-0.7,1.1C610.5,220.5,610.1,220.7,609.7,220.7z
			 M609.7,219.8c0.4,0,0.7-0.2,0.8-0.5c0.2-0.4,0.3-0.9,0.3-1.7c0-0.4,0-0.8-0.1-1.1c-0.1-0.3-0.2-0.6-0.4-0.8
			c-0.2-0.2-0.4-0.3-0.6-0.3c-0.4,0-0.7,0.2-0.9,0.5c-0.2,0.4-0.3,0.9-0.3,1.5c0,0.4,0,0.8,0.1,1.1c0.1,0.3,0.2,0.6,0.4,0.8
			S609.5,219.8,609.7,219.8z"/>
		<path class="st6" d="M612.9,222.2L612.9,222.2c0.1-0.2,0.2-0.3,0.3-0.5s0.1-0.4,0.1-0.6c0-0.1,0-0.2-0.1-0.3s-0.1-0.2-0.2-0.3
			c-0.1-0.1-0.1-0.1-0.2-0.1V220l0.6-0.5c0.2,0.1,0.3,0.2,0.4,0.3c0.1,0.1,0.2,0.3,0.2,0.5s0.1,0.3,0.1,0.5c0,0.3,0,0.5-0.1,0.8
			s-0.2,0.4-0.4,0.6c-0.2,0.2-0.3,0.3-0.5,0.4L612.9,222.2z"/>
		<path class="st6" d="M617.2,220.7c-0.4,0-0.7-0.1-0.9-0.3c-0.3-0.2-0.5-0.4-0.6-0.7s-0.3-0.6-0.3-1c-0.1-0.4-0.1-0.8-0.1-1.2
			c0-0.6,0.1-1.1,0.3-1.6c0.2-0.4,0.4-0.8,0.8-1c0.3-0.2,0.7-0.4,1.1-0.4c0.4,0,0.7,0.1,1,0.2c0.3,0.2,0.5,0.4,0.6,0.6
			c0.2,0.3,0.3,0.6,0.3,1s0.1,0.7,0.1,1.2c0,0.6-0.1,1.2-0.3,1.6s-0.4,0.8-0.7,1.1C617.9,220.5,617.6,220.7,617.2,220.7z
			 M617.2,219.8c0.4,0,0.7-0.2,0.8-0.5c0.2-0.4,0.3-0.9,0.3-1.7c0-0.4,0-0.8-0.1-1.1c-0.1-0.3-0.2-0.6-0.4-0.8
			c-0.2-0.2-0.4-0.3-0.6-0.3c-0.4,0-0.7,0.2-0.9,0.5c-0.2,0.4-0.3,0.9-0.3,1.5c0,0.4,0,0.8,0.1,1.1c0.1,0.3,0.2,0.6,0.4,0.8
			S616.9,219.8,617.2,219.8z"/>
	</g>
	<g>
		<rect x="624.7" y="214.1" class="st2" width="21.4" height="10.3"/>
		<path class="st6" d="M631.7,220.7c-0.4,0-0.7-0.1-0.9-0.3c-0.3-0.2-0.5-0.4-0.6-0.7s-0.3-0.6-0.3-1c-0.1-0.4-0.1-0.8-0.1-1.2
			c0-0.6,0.1-1.1,0.3-1.6c0.2-0.4,0.4-0.8,0.8-1c0.3-0.2,0.7-0.4,1.1-0.4c0.4,0,0.7,0.1,1,0.2c0.3,0.2,0.5,0.4,0.6,0.6
			c0.2,0.3,0.3,0.6,0.3,1s0.1,0.7,0.1,1.2c0,0.6-0.1,1.2-0.3,1.6s-0.4,0.8-0.7,1.1C632.5,220.5,632.1,220.7,631.7,220.7z
			 M631.7,219.8c0.4,0,0.7-0.2,0.8-0.5c0.2-0.4,0.3-0.9,0.3-1.7c0-0.4,0-0.8-0.1-1.1c-0.1-0.3-0.2-0.6-0.4-0.8
			c-0.2-0.2-0.4-0.3-0.6-0.3c-0.4,0-0.7,0.2-0.9,0.5c-0.2,0.4-0.3,0.9-0.3,1.5c0,0.4,0,0.8,0.1,1.1c0.1,0.3,0.2,0.6,0.4,0.8
			S631.4,219.8,631.7,219.8z"/>
		<path class="st6" d="M634.9,222.2L634.9,222.2c0.1-0.2,0.2-0.3,0.3-0.5s0.1-0.4,0.1-0.6c0-0.1,0-0.2-0.1-0.3s-0.1-0.2-0.2-0.3
			c-0.1-0.1-0.1-0.1-0.2-0.1V220l0.6-0.5c0.2,0.1,0.3,0.2,0.4,0.3c0.1,0.1,0.2,0.3,0.2,0.5s0.1,0.3,0.1,0.5c0,0.3,0,0.5-0.1,0.8
			s-0.2,0.4-0.4,0.6c-0.2,0.2-0.3,0.3-0.5,0.4L634.9,222.2z"/>
		<path class="st6" d="M639.1,220.7c-0.4,0-0.7-0.1-0.9-0.3c-0.3-0.2-0.5-0.4-0.6-0.7s-0.3-0.6-0.3-1c-0.1-0.4-0.1-0.8-0.1-1.2
			c0-0.6,0.1-1.1,0.3-1.6c0.2-0.4,0.4-0.8,0.8-1c0.3-0.2,0.7-0.4,1.1-0.4c0.4,0,0.7,0.1,1,0.2c0.3,0.2,0.5,0.4,0.6,0.6
			c0.2,0.3,0.3,0.6,0.3,1s0.1,0.7,0.1,1.2c0,0.6-0.1,1.2-0.3,1.6s-0.4,0.8-0.7,1.1C639.9,220.5,639.5,220.7,639.1,220.7z
			 M639.1,219.8c0.4,0,0.7-0.2,0.8-0.5c0.2-0.4,0.3-0.9,0.3-1.7c0-0.4,0-0.8-0.1-1.1c-0.1-0.3-0.2-0.6-0.4-0.8
			c-0.2-0.2-0.4-0.3-0.6-0.3c-0.4,0-0.7,0.2-0.9,0.5c-0.2,0.4-0.3,0.9-0.3,1.5c0,0.4,0,0.8,0.1,1.1c0.1,0.3,0.2,0.6,0.4,0.8
			S638.9,219.8,639.1,219.8z"/>
	</g>
	<g>
		<rect x="646.8" y="214.1" class="st2" width="21.4" height="10.3"/>
		<path class="st6" d="M653.8,220.7c-0.4,0-0.7-0.1-0.9-0.3c-0.3-0.2-0.5-0.4-0.6-0.7s-0.3-0.6-0.3-1c-0.1-0.4-0.1-0.8-0.1-1.2
			c0-0.6,0.1-1.1,0.3-1.6c0.2-0.4,0.4-0.8,0.8-1c0.3-0.2,0.7-0.4,1.1-0.4c0.4,0,0.7,0.1,1,0.2c0.3,0.2,0.5,0.4,0.6,0.6
			c0.2,0.3,0.3,0.6,0.3,1s0.1,0.7,0.1,1.2c0,0.6-0.1,1.2-0.3,1.6s-0.4,0.8-0.7,1.1C654.5,220.5,654.2,220.7,653.8,220.7z
			 M653.8,219.8c0.4,0,0.7-0.2,0.8-0.5c0.2-0.4,0.3-0.9,0.3-1.7c0-0.4,0-0.8-0.1-1.1c-0.1-0.3-0.2-0.6-0.4-0.8
			c-0.2-0.2-0.4-0.3-0.6-0.3c-0.4,0-0.7,0.2-0.9,0.5c-0.2,0.4-0.3,0.9-0.3,1.5c0,0.4,0,0.8,0.1,1.1c0.1,0.3,0.2,0.6,0.4,0.8
			S653.5,219.8,653.8,219.8z"/>
		<path class="st6" d="M656.9,222.2L656.9,222.2c0.1-0.2,0.2-0.3,0.3-0.5s0.1-0.4,0.1-0.6c0-0.1,0-0.2-0.1-0.3s-0.1-0.2-0.2-0.3
			c-0.1-0.1-0.1-0.1-0.2-0.1V220l0.6-0.5c0.2,0.1,0.3,0.2,0.4,0.3c0.1,0.1,0.2,0.3,0.2,0.5s0.1,0.3,0.1,0.5c0,0.3,0,0.5-0.1,0.8
			s-0.2,0.4-0.4,0.6c-0.2,0.2-0.3,0.3-0.5,0.4L656.9,222.2z"/>
		<path class="st6" d="M661.2,220.7c-0.4,0-0.7-0.1-0.9-0.3c-0.3-0.2-0.5-0.4-0.6-0.7s-0.3-0.6-0.3-1c-0.1-0.4-0.1-0.8-0.1-1.2
			c0-0.6,0.1-1.1,0.3-1.6c0.2-0.4,0.4-0.8,0.8-1c0.3-0.2,0.7-0.4,1.1-0.4c0.4,0,0.7,0.1,1,0.2c0.3,0.2,0.5,0.4,0.6,0.6
			c0.2,0.3,0.3,0.6,0.3,1s0.1,0.7,0.1,1.2c0,0.6-0.1,1.2-0.3,1.6s-0.4,0.8-0.7,1.1C662,220.5,661.6,220.7,661.2,220.7z M661.2,219.8
			c0.4,0,0.7-0.2,0.8-0.5c0.2-0.4,0.3-0.9,0.3-1.7c0-0.4,0-0.8-0.1-1.1c-0.1-0.3-0.2-0.6-0.4-0.8c-0.2-0.2-0.4-0.3-0.6-0.3
			c-0.4,0-0.7,0.2-0.9,0.5c-0.2,0.4-0.3,0.9-0.3,1.5c0,0.4,0,0.8,0.1,1.1c0.1,0.3,0.2,0.6,0.4,0.8S661,219.8,661.2,219.8z"/>
	</g>
	<g>
		<g>
			<path class="st6" d="M549.2,58.6l-0.4-0.4c0,0,0,0,0.1-0.1c0.1-0.1,0.2-0.2,0.3-0.3c0.1-0.1,0.2-0.2,0.4-0.4
				c0.1-0.1,0.2-0.2,0.3-0.3S550,57,550,57l0.6,0.5c-0.1,0.1-0.2,0.2-0.3,0.3c-0.1,0.1-0.2,0.2-0.4,0.3s-0.3,0.2-0.4,0.3
				C549.4,58.5,549.3,58.6,549.2,58.6z M548.9,65.1v-5.9h0.9v5.9H548.9z"/>
			<path class="st6" d="M551.2,65.1v-4.4h0.8l0,0.5c0.1-0.1,0.2-0.2,0.4-0.2c0.2-0.1,0.3-0.2,0.5-0.2s0.4-0.1,0.5-0.1
				c0.5,0,0.8,0.1,1,0.4c0.2,0.3,0.3,0.7,0.3,1.4v2.8h-0.9v-2.7c0-0.4,0-0.6-0.1-0.8s-0.3-0.2-0.6-0.2c-0.1,0-0.2,0-0.3,0
				c-0.1,0-0.2,0.1-0.4,0.1c-0.1,0.1-0.2,0.1-0.3,0.2v3.4H551.2z"/>
			<path class="st6" d="M557.4,65.2c-0.3,0-0.6-0.1-0.8-0.2c-0.3-0.2-0.5-0.4-0.6-0.7c-0.2-0.3-0.2-0.7-0.2-1.2
				c0-0.5,0.1-0.9,0.3-1.3c0.2-0.4,0.4-0.7,0.7-0.9c0.3-0.2,0.7-0.3,1.1-0.3c0.3,0,0.5,0,0.7,0.1c0.2,0.1,0.3,0.1,0.3,0.2l-0.3,0.6
				c-0.1-0.1-0.2-0.1-0.3-0.1c-0.1,0-0.3,0-0.4,0c-0.2,0-0.4,0.1-0.6,0.2c-0.2,0.1-0.3,0.3-0.4,0.6s-0.2,0.6-0.2,0.9
				c0,0.5,0.1,0.9,0.3,1.1c0.2,0.2,0.4,0.4,0.8,0.4c0.2,0,0.4,0,0.5-0.1c0.2-0.1,0.3-0.2,0.4-0.2l0.1,0.5c-0.1,0.1-0.1,0.1-0.2,0.2
				c-0.1,0.1-0.2,0.2-0.4,0.3S557.6,65.2,557.4,65.2z M558.6,65.1v-0.6l0,0v-3.2l0,0l0-0.9v-1.8h0.9v6.5H558.6z"/>
			<path class="st6" d="M561.1,59.9c-0.1,0-0.3,0-0.4-0.1s-0.2-0.2-0.2-0.4c0-0.1,0-0.2,0.1-0.3s0.1-0.2,0.2-0.2
				c0.1-0.1,0.2-0.1,0.3-0.1c0.2,0,0.3,0.1,0.4,0.2c0.1,0.1,0.1,0.2,0.1,0.4c0,0.2-0.1,0.3-0.2,0.5
				C561.4,59.8,561.2,59.9,561.1,59.9z M560.7,65.1v-4.4h0.9v4.4H560.7z"/>
			<path class="st6" d="M562.5,62.9c0-0.4,0.1-0.8,0.2-1.2c0.2-0.4,0.4-0.6,0.7-0.8c0.3-0.2,0.7-0.3,1.1-0.3c0.3,0,0.5,0,0.7,0.1
				s0.3,0.1,0.4,0.1l-0.1,0.7c-0.1-0.1-0.2-0.1-0.4-0.2s-0.3-0.1-0.5-0.1c-0.2,0-0.4,0-0.5,0.1c-0.2,0.1-0.3,0.3-0.4,0.5
				s-0.2,0.5-0.2,0.8c0,0.4,0,0.7,0.1,0.9c0.1,0.3,0.2,0.4,0.4,0.6c0.2,0.1,0.4,0.2,0.6,0.2c0.2,0,0.4,0,0.6-0.1
				c0.2-0.1,0.3-0.1,0.4-0.2l0.2,0.5c-0.1,0.1-0.3,0.2-0.5,0.3c-0.2,0.1-0.5,0.1-0.7,0.1c-0.4,0-0.7-0.1-1-0.3s-0.5-0.5-0.6-0.8
				C562.6,63.7,562.5,63.3,562.5,62.9z"/>
			<path class="st6" d="M568.2,65.2c-0.6,0-1.1-0.2-1.4-0.6s-0.5-1-0.5-1.7c0-0.4,0.1-0.8,0.2-1.2c0.1-0.3,0.4-0.6,0.6-0.8
				c0.3-0.2,0.6-0.3,1-0.3c0.2,0,0.4,0,0.6,0.1s0.4,0.2,0.5,0.3s0.3,0.3,0.3,0.5c0.1,0.2,0.1,0.5,0.1,0.7c0,0.2,0,0.3,0,0.5
				c0,0.1,0,0.2,0,0.4h-2.9l0.1-0.6h2.1c0-0.2,0-0.4,0-0.6c0-0.2-0.1-0.3-0.2-0.5c-0.1-0.1-0.3-0.2-0.5-0.2c-0.2,0-0.4,0.1-0.5,0.2
				c-0.2,0.1-0.3,0.3-0.4,0.6c-0.1,0.3-0.1,0.7-0.1,1.1c0,0.3,0.1,0.6,0.2,0.8c0.1,0.2,0.3,0.3,0.4,0.4c0.2,0.1,0.4,0.1,0.6,0.1
				c0.1,0,0.2,0,0.4,0s0.3-0.1,0.4-0.1s0.2-0.1,0.3-0.1l0.2,0.5c-0.1,0.1-0.2,0.2-0.4,0.2c-0.2,0.1-0.3,0.1-0.5,0.1
				C568.5,65.1,568.3,65.2,568.2,65.2z"/>
			<path class="st6" d="M572.1,65.1v-4.4h0.8l0,0.5c0.1-0.1,0.2-0.2,0.4-0.2c0.2-0.1,0.3-0.2,0.5-0.2s0.4-0.1,0.5-0.1
				c0.3,0,0.5,0,0.7,0.1c0.2,0.1,0.3,0.3,0.4,0.5c0.1,0.3,0.1,0.6,0.1,1v2.8h-0.9v-2.7c0-0.2,0-0.4-0.1-0.6s-0.1-0.3-0.2-0.3
				s-0.3-0.1-0.5-0.1c-0.1,0-0.3,0-0.5,0.1c-0.2,0.1-0.4,0.2-0.5,0.3v3.4H572.1z M575.6,61.7l-0.2-0.6c0.1-0.1,0.2-0.2,0.4-0.3
				c0.2-0.1,0.3-0.2,0.5-0.2c0.2-0.1,0.4-0.1,0.6-0.1c0.3,0,0.5,0,0.7,0.2c0.2,0.1,0.3,0.3,0.4,0.5c0.1,0.3,0.1,0.6,0.1,1v2.8h-0.9
				v-2.7c0-0.2,0-0.4-0.1-0.6c0-0.2-0.1-0.3-0.2-0.3s-0.3-0.1-0.5-0.1c-0.1,0-0.3,0-0.5,0.1C575.9,61.5,575.7,61.6,575.6,61.7z"/>
			<path class="st6" d="M581.1,65.2c-0.6,0-1.1-0.2-1.4-0.6s-0.5-1-0.5-1.7c0-0.4,0.1-0.8,0.2-1.2c0.1-0.3,0.4-0.6,0.6-0.8
				c0.3-0.2,0.6-0.3,1-0.3c0.2,0,0.4,0,0.6,0.1s0.4,0.2,0.5,0.3s0.3,0.3,0.3,0.5c0.1,0.2,0.1,0.5,0.1,0.7c0,0.2,0,0.3,0,0.5
				c0,0.1,0,0.2,0,0.4h-2.9l0.1-0.6h2.1c0-0.2,0-0.4,0-0.6c0-0.2-0.1-0.3-0.2-0.5c-0.1-0.1-0.3-0.2-0.5-0.2c-0.2,0-0.4,0.1-0.5,0.2
				c-0.2,0.1-0.3,0.3-0.4,0.6c-0.1,0.3-0.1,0.7-0.1,1.1c0,0.3,0.1,0.6,0.2,0.8c0.1,0.2,0.3,0.3,0.4,0.4c0.2,0.1,0.4,0.1,0.6,0.1
				c0.1,0,0.2,0,0.4,0s0.3-0.1,0.4-0.1s0.2-0.1,0.3-0.1l0.2,0.5c-0.1,0.1-0.2,0.2-0.4,0.2c-0.2,0.1-0.3,0.1-0.5,0.1
				C581.4,65.1,581.2,65.2,581.1,65.2z M580.8,60.1l-0.4-0.3c0.1-0.2,0.3-0.3,0.4-0.5s0.3-0.4,0.4-0.6c0.1-0.2,0.3-0.4,0.4-0.6
				l0.6,0.5c0,0.1-0.1,0.2-0.2,0.3c-0.1,0.1-0.2,0.2-0.3,0.4c-0.1,0.1-0.2,0.3-0.4,0.4c-0.1,0.1-0.2,0.2-0.3,0.3
				S580.9,60,580.8,60.1z"/>
			<path class="st6" d="M585,65.2c-0.3,0-0.6-0.1-0.8-0.2c-0.3-0.2-0.5-0.4-0.6-0.7c-0.2-0.3-0.2-0.7-0.2-1.2c0-0.5,0.1-0.9,0.3-1.3
				c0.2-0.4,0.4-0.7,0.7-0.9c0.3-0.2,0.7-0.3,1.1-0.3c0.3,0,0.5,0,0.7,0.1c0.2,0.1,0.3,0.1,0.3,0.2l-0.3,0.6
				c-0.1-0.1-0.2-0.1-0.3-0.1c-0.1,0-0.3,0-0.4,0c-0.2,0-0.4,0.1-0.6,0.2c-0.2,0.1-0.3,0.3-0.4,0.6s-0.2,0.6-0.2,0.9
				c0,0.5,0.1,0.9,0.3,1.1c0.2,0.2,0.4,0.4,0.8,0.4c0.2,0,0.4,0,0.5-0.1c0.2-0.1,0.3-0.2,0.4-0.2l0.1,0.5c-0.1,0.1-0.1,0.1-0.2,0.2
				c-0.1,0.1-0.2,0.2-0.4,0.3S585.3,65.2,585,65.2z M586.2,65.1v-0.6l0,0v-3.2l0,0l0-0.9v-1.8h0.9v6.5H586.2z"/>
			<path class="st6" d="M588.7,59.9c-0.1,0-0.3,0-0.4-0.1s-0.2-0.2-0.2-0.4c0-0.1,0-0.2,0.1-0.3s0.1-0.2,0.2-0.2
				c0.1-0.1,0.2-0.1,0.3-0.1c0.2,0,0.3,0.1,0.4,0.2c0.1,0.1,0.1,0.2,0.1,0.4c0,0.2-0.1,0.3-0.2,0.5C589,59.8,588.9,59.9,588.7,59.9z
				 M588.3,65.1v-4.4h0.9v4.4H588.3z"/>
			<path class="st6" d="M592.1,65.2c-0.3,0-0.6-0.1-0.9-0.2s-0.4-0.3-0.6-0.5c-0.1-0.2-0.3-0.5-0.3-0.8c-0.1-0.3-0.1-0.6-0.1-0.9
				c0-0.5,0.1-0.9,0.3-1.2c0.2-0.3,0.4-0.6,0.7-0.7c0.3-0.2,0.6-0.2,1-0.2c0.5,0,0.8,0.1,1.1,0.3c0.3,0.2,0.5,0.5,0.6,0.9
				s0.2,0.8,0.2,1.2c0,0.5-0.1,0.9-0.3,1.2c-0.2,0.3-0.4,0.6-0.7,0.7S592.5,65.2,592.1,65.2z M592.1,64.5c0.3,0,0.6-0.1,0.8-0.4
				c0.2-0.3,0.3-0.7,0.3-1.2c0-0.3,0-0.6-0.1-0.8s-0.2-0.5-0.3-0.6c-0.2-0.2-0.3-0.2-0.6-0.2c-0.3,0-0.6,0.1-0.8,0.4
				s-0.3,0.7-0.3,1.2c0,0.3,0,0.6,0.1,0.9s0.2,0.5,0.3,0.6C591.7,64.4,591.9,64.5,592.1,64.5z"/>
			<path class="st6" d="M597.9,67.1c-0.6,0-1-0.1-1.3-0.3c-0.3-0.2-0.5-0.5-0.5-1c0-0.2,0-0.3,0.1-0.4c0.1-0.1,0.2-0.2,0.3-0.3
				c0.1-0.1,0.2-0.2,0.3-0.2l0.6,0.1c-0.1,0.1-0.1,0.1-0.2,0.2c-0.1,0.1-0.1,0.1-0.2,0.2c0,0.1-0.1,0.2-0.1,0.4c0,0.2,0,0.3,0.1,0.4
				c0.1,0.1,0.2,0.2,0.3,0.3c0.1,0.1,0.3,0.1,0.6,0.1c0.2,0,0.4,0,0.6-0.1s0.3-0.1,0.4-0.2c0.1-0.1,0.2-0.2,0.2-0.4
				c0-0.2,0-0.3-0.1-0.4c-0.1-0.1-0.2-0.2-0.3-0.2c-0.1-0.1-0.4-0.1-0.6-0.1h-0.4c-0.1,0-0.3,0-0.4,0c-0.1,0-0.2,0-0.3,0
				c0,0-0.1,0-0.1,0c0,0-0.1,0-0.1,0c-0.2-0.1-0.3-0.2-0.4-0.3c-0.1-0.1-0.1-0.3-0.1-0.4c0-0.1,0-0.2,0.1-0.3
				c0.1-0.1,0.1-0.2,0.2-0.3s0.2-0.2,0.3-0.3l0.5,0.1c-0.1,0-0.2,0.1-0.2,0.2c-0.1,0.1-0.1,0.2-0.1,0.3c0,0.2,0,0.3,0.1,0.3
				c0.1,0.1,0.2,0.1,0.4,0.1h0.8c0.3,0,0.6,0,0.8,0.1c0.2,0.1,0.4,0.2,0.5,0.3c0.1,0.1,0.2,0.3,0.2,0.4c0,0.1,0.1,0.3,0.1,0.5
				c0,0.2-0.1,0.4-0.2,0.6c-0.1,0.2-0.3,0.3-0.5,0.5s-0.4,0.2-0.7,0.3C598.5,67.1,598.2,67.1,597.9,67.1z M597.9,63.6
				c-0.3,0-0.6-0.1-0.8-0.2c-0.3-0.1-0.5-0.3-0.6-0.5c-0.1-0.2-0.2-0.5-0.2-0.8c0-0.3,0.1-0.6,0.2-0.9c0.1-0.2,0.3-0.4,0.6-0.5
				c0.3-0.1,0.5-0.2,0.9-0.2c0.3,0,0.6,0,0.9,0.1c0.3,0.1,0.5,0.3,0.6,0.5c0.2,0.2,0.2,0.5,0.2,0.8c0,0.3-0.1,0.6-0.2,0.8
				c-0.1,0.2-0.4,0.4-0.6,0.5C598.5,63.5,598.2,63.6,597.9,63.6z M597.9,63c0.3,0,0.5-0.1,0.6-0.2c0.2-0.1,0.2-0.4,0.2-0.7
				c0-0.3-0.1-0.5-0.2-0.7c-0.1-0.2-0.3-0.2-0.6-0.2c-0.2,0-0.3,0-0.4,0.1c-0.1,0-0.2,0.1-0.3,0.3s-0.1,0.3-0.1,0.5
				c0,0.2,0.1,0.5,0.2,0.6C597.4,62.9,597.6,63,597.9,63z M599.1,61.3l-0.2-0.4c0.1-0.1,0.2-0.2,0.3-0.2c0.2-0.1,0.3-0.1,0.5-0.1
				h0.4v0.7H599.1z"/>
			<path class="st6" d="M601,65.1v-6.5h0.9v6.5H601z"/>
			<path class="st6" d="M604.8,65.2c-0.3,0-0.6-0.1-0.9-0.2s-0.4-0.3-0.6-0.5c-0.1-0.2-0.3-0.5-0.3-0.8c-0.1-0.3-0.1-0.6-0.1-0.9
				c0-0.5,0.1-0.9,0.3-1.2c0.2-0.3,0.4-0.6,0.7-0.7c0.3-0.2,0.6-0.2,1-0.2c0.5,0,0.8,0.1,1.1,0.3c0.3,0.2,0.5,0.5,0.6,0.9
				s0.2,0.8,0.2,1.2c0,0.5-0.1,0.9-0.3,1.2c-0.2,0.3-0.4,0.6-0.7,0.7S605.1,65.2,604.8,65.2z M604.8,64.5c0.3,0,0.6-0.1,0.8-0.4
				c0.2-0.3,0.3-0.7,0.3-1.2c0-0.3,0-0.6-0.1-0.8s-0.2-0.5-0.3-0.6c-0.2-0.2-0.3-0.2-0.6-0.2c-0.3,0-0.6,0.1-0.8,0.4
				s-0.3,0.7-0.3,1.2c0,0.3,0,0.6,0.1,0.9s0.2,0.5,0.3,0.6C604.4,64.4,604.6,64.5,604.8,64.5z"/>
			<path class="st6" d="M607.7,58.6h0.9v1.8l0,0.8l0,0v3.2l-0.9,0.4V58.6z M609.2,65.2c-0.2,0-0.3,0-0.5,0c-0.2,0-0.3-0.1-0.5-0.1
				s-0.3-0.1-0.4-0.1c-0.1,0-0.2-0.1-0.2-0.1l0.9-0.5c0.1,0.1,0.2,0.1,0.3,0.1c0.1,0,0.3,0,0.5,0c0.2,0,0.4-0.1,0.6-0.2
				c0.2-0.1,0.3-0.3,0.4-0.6c0.1-0.3,0.2-0.6,0.2-0.9c0-0.5-0.1-0.9-0.3-1.2s-0.4-0.4-0.8-0.4c-0.2,0-0.4,0-0.5,0.1
				c-0.2,0.1-0.3,0.2-0.4,0.2l-0.1-0.5c0.1-0.1,0.1-0.1,0.2-0.2s0.2-0.2,0.4-0.3s0.4-0.1,0.6-0.1c0.3,0,0.6,0.1,0.8,0.2
				c0.3,0.2,0.5,0.4,0.6,0.7s0.2,0.7,0.2,1.2c0,0.5-0.1,0.9-0.3,1.3c-0.2,0.4-0.4,0.7-0.7,0.9C610,65.1,609.7,65.2,609.2,65.2z"/>
			<path class="st6" d="M613.3,65.2c-0.3,0-0.5-0.1-0.7-0.2c-0.2-0.1-0.3-0.3-0.5-0.4s-0.2-0.4-0.2-0.7c0-0.3,0.1-0.5,0.2-0.7
				c0.1-0.2,0.3-0.4,0.6-0.5c0.2-0.1,0.3-0.1,0.5-0.2c0.2,0,0.4-0.1,0.6-0.1c0.2,0,0.4,0,0.5,0l0.2,0.2l-0.2,0.3c-0.1,0-0.2,0-0.4,0
				s-0.3,0-0.4,0.1s-0.2,0.1-0.3,0.1c-0.1,0.1-0.2,0.1-0.3,0.2s-0.1,0.2-0.1,0.4c0,0.2,0.1,0.4,0.2,0.5c0.1,0.1,0.3,0.2,0.5,0.2
				c0.1,0,0.2,0,0.4-0.1c0.1,0,0.2-0.1,0.3-0.1c0.1,0,0.1-0.1,0.2-0.1l0.2,0.2l-0.1,0.3c-0.1,0.1-0.3,0.2-0.5,0.3
				S613.5,65.2,613.3,65.2z M615.3,65.1h-0.8v-0.7h0V62c0-0.3-0.1-0.4-0.2-0.5c-0.1-0.1-0.3-0.1-0.6-0.1c-0.2,0-0.3,0-0.5,0.1
				s-0.3,0.1-0.5,0.1s-0.2,0.1-0.3,0.1l-0.2-0.7c0.1,0,0.2-0.1,0.3-0.2c0.2-0.1,0.4-0.1,0.6-0.2c0.2-0.1,0.4-0.1,0.7-0.1
				c0.3,0,0.6,0,0.8,0.1c0.2,0.1,0.4,0.2,0.5,0.4c0.1,0.2,0.2,0.5,0.2,0.9V65.1z"/>
			<path class="st6" d="M616.6,65.1v-6.5h0.9v6.5H616.6z"/>
			<path class="st6" d="M620.4,65.1v-3.8h-0.6v-0.5l0.6-0.2v-0.4c0-0.3,0-0.6,0.1-0.8c0.1-0.2,0.2-0.4,0.4-0.5
				c0.2-0.1,0.3-0.2,0.5-0.3c0.2-0.1,0.4-0.1,0.5-0.1c0.1,0,0.2,0,0.3,0s0.2,0,0.2,0.1v0.7c-0.1,0-0.2,0-0.2-0.1s-0.2,0-0.4,0
				c-0.2,0-0.3,0.1-0.4,0.2s-0.2,0.4-0.2,0.6v0.6h1v0.7h-1v3.8H620.4z"/>
			<path class="st6" d="M624.6,65.2c-0.3,0-0.6-0.1-0.9-0.2s-0.4-0.3-0.6-0.5c-0.1-0.2-0.3-0.5-0.3-0.8c-0.1-0.3-0.1-0.6-0.1-0.9
				c0-0.5,0.1-0.9,0.3-1.2c0.2-0.3,0.4-0.6,0.7-0.7c0.3-0.2,0.6-0.2,1-0.2c0.5,0,0.8,0.1,1.1,0.3c0.3,0.2,0.5,0.5,0.6,0.9
				s0.2,0.8,0.2,1.2c0,0.5-0.1,0.9-0.3,1.2c-0.2,0.3-0.4,0.6-0.7,0.7S625,65.2,624.6,65.2z M624.7,64.5c0.3,0,0.6-0.1,0.8-0.4
				c0.2-0.3,0.3-0.7,0.3-1.2c0-0.3,0-0.6-0.1-0.8s-0.2-0.5-0.3-0.6c-0.2-0.2-0.3-0.2-0.6-0.2c-0.3,0-0.6,0.1-0.8,0.4
				s-0.3,0.7-0.3,1.2c0,0.3,0,0.6,0.1,0.9s0.2,0.5,0.3,0.6C624.2,64.4,624.4,64.5,624.7,64.5z"/>
			<path class="st6" d="M628,59.9c-0.1,0-0.3,0-0.4-0.1s-0.2-0.2-0.2-0.4c0-0.1,0-0.2,0.1-0.3s0.1-0.2,0.2-0.2
				c0.1-0.1,0.2-0.1,0.3-0.1c0.2,0,0.3,0.1,0.4,0.2c0.1,0.1,0.1,0.2,0.1,0.4c0,0.2-0.1,0.3-0.2,0.5C628.3,59.8,628.2,59.9,628,59.9z
				 M627.6,65.1v-4.4h0.9v4.4H627.6z"/>
			<path class="st6" d="M631.9,65.1v-4.9c-0.1,0-0.3,0.1-0.4,0.1s-0.3,0.1-0.4,0.1l-0.1-0.6c0.1,0,0.3-0.1,0.4-0.2
				c0.1-0.1,0.3-0.1,0.4-0.2c0.1-0.1,0.3-0.1,0.4-0.2s0.2-0.1,0.2-0.2l0.4,0.1v6H631.9z"/>
			<path class="st6" d="M635.5,62.5c-0.3,0-0.5-0.1-0.7-0.2c-0.2-0.1-0.3-0.3-0.5-0.6c-0.1-0.2-0.2-0.5-0.2-0.8
				c0-0.4,0.1-0.7,0.2-0.9c0.1-0.2,0.3-0.4,0.5-0.6c0.2-0.1,0.5-0.2,0.7-0.2c0.3,0,0.6,0.1,0.8,0.2c0.2,0.1,0.3,0.3,0.4,0.6
				s0.1,0.5,0.1,0.8c0,0.4-0.1,0.7-0.2,0.9c-0.1,0.2-0.3,0.4-0.5,0.6C636,62.5,635.8,62.5,635.5,62.5z M635.6,61.9
				c0.2,0,0.4-0.1,0.5-0.3c0.1-0.2,0.2-0.4,0.2-0.7c0-0.3-0.1-0.6-0.2-0.8s-0.3-0.3-0.5-0.3c-0.2,0-0.4,0.1-0.5,0.3
				c-0.1,0.2-0.2,0.4-0.2,0.8c0,0.3,0.1,0.6,0.2,0.8C635.2,61.8,635.4,61.9,635.6,61.9z M636,65.1l2.4-6h0.7l-2.4,6H636z
				 M639.6,64.9c-0.3,0-0.5-0.1-0.7-0.2c-0.2-0.1-0.3-0.3-0.5-0.6c-0.1-0.2-0.2-0.5-0.2-0.8c0-0.4,0.1-0.7,0.2-0.9
				c0.1-0.2,0.3-0.4,0.5-0.6c0.2-0.1,0.5-0.2,0.7-0.2c0.3,0,0.6,0.1,0.8,0.2s0.3,0.3,0.4,0.6c0.1,0.2,0.1,0.5,0.1,0.8
				c0,0.4-0.1,0.7-0.2,0.9c-0.1,0.2-0.3,0.4-0.5,0.6C640,64.9,639.8,64.9,639.6,64.9z M639.6,64.3c0.2,0,0.4-0.1,0.5-0.3
				c0.1-0.2,0.2-0.4,0.2-0.7c0-0.3-0.1-0.6-0.2-0.8s-0.3-0.3-0.5-0.3c-0.2,0-0.4,0.1-0.5,0.3c-0.1,0.2-0.2,0.4-0.2,0.8
				c0,0.3,0.1,0.6,0.2,0.8C639.3,64.2,639.4,64.3,639.6,64.3z"/>
		</g>
	</g>
</g>
<g>
</g>
<g>
</g>
<g>
</g>
<g>
</g>
<g>
</g>
<g>
</g>
</svg>
