<svg id="Camada_1" data-name="Camada 1" xmlns="http://www.w3.org/2000/svg" xmlns:xlink="http://www.w3.org/1999/xlink" viewBox="0 0 252.38 259.79"><defs><style>.cls-1,.cls-13,.cls-5,.cls-9{fill:none;}.cls-2{clip-path:url(#clip-path);}.cls-3{fill:#efefef;}.cls-4{fill:#4c4c4c;}.cls-5{stroke:#fff;}.cls-13,.cls-5,.cls-9{stroke-miterlimit:10;stroke-width:1.5px;}.cls-6{fill:#6660e2;}.cls-7{fill:#6960e5;}.cls-8{fill:#ff36ce;}.cls-9{stroke:#ff36ce;}.cls-10{fill:#f2c0ed;}.cls-11{fill:#e89ee1;}.cls-12{fill:#a045ef;}.cls-13{stroke:#6960e5;}.cls-14{fill:#ae4ef2;}.cls-15{fill:#fff;}</style><clipPath id="clip-path" transform="translate(-20.46 -29.56)"><rect class="cls-1" width="292.82" height="322.59"/></clipPath></defs><title>info14</title><g class="cls-2"><path class="cls-3" d="M261.89,287.85H32.17A10.21,10.21,0,0,1,22,277.65V138.91a10.21,10.21,0,0,1,10.21-10.2H261.89a10.2,10.2,0,0,1,10.2,10.2V277.65a10.2,10.2,0,0,1-10.2,10.2" transform="translate(-20.46 -29.56)"/></g><path class="cls-4" d="M108.72,149.9a2.84,2.84,0,0,1,.24-1.19,2,2,0,0,1,.72-.84,2.23,2.23,0,0,1,1.2-.31,2.84,2.84,0,0,1,.71.08,1.28,1.28,0,0,1,.4.15l-.14.72a1.41,1.41,0,0,0-.41-.17,2.26,2.26,0,0,0-.57-.06,1.22,1.22,0,0,0-1.05.61,1.87,1.87,0,0,0-.2.85,2,2,0,0,0,.14.93,1.3,1.3,0,0,0,.45.57,1.1,1.1,0,0,0,.64.19,2,2,0,0,0,.61-.08,2.12,2.12,0,0,0,.43-.17l.17.53a1.29,1.29,0,0,1-.57.31,2.56,2.56,0,0,1-.79.12,1.86,1.86,0,0,1-1.08-.3,1.82,1.82,0,0,1-.67-.8A2.8,2.8,0,0,1,108.72,149.9Z" transform="translate(-20.46 -29.56)"/><path class="cls-4" d="M114.66,152.14a2.12,2.12,0,0,1-.92-.19,1.69,1.69,0,0,1-.62-.53,2.11,2.11,0,0,1-.34-.76,3.39,3.39,0,0,1-.1-.91,2.47,2.47,0,0,1,.28-1.2,1.88,1.88,0,0,1,.74-.74,2.19,2.19,0,0,1,1-.25,1.93,1.93,0,0,1,1.17.33,1.86,1.86,0,0,1,.63.87,3.28,3.28,0,0,1,.18,1.18,2.42,2.42,0,0,1-.28,1.2,1.82,1.82,0,0,1-.73.75A2.26,2.26,0,0,1,114.66,152.14Zm0-.65a.93.93,0,0,0,.83-.42,2.15,2.15,0,0,0,.28-1.17,3.11,3.11,0,0,0-.11-.84,1.58,1.58,0,0,0-.35-.61.92.92,0,0,0-.61-.23.88.88,0,0,0-.82.39,2,2,0,0,0-.28,1.16,3.24,3.24,0,0,0,.11.85,1.38,1.38,0,0,0,.35.62A.86.86,0,0,0,114.68,151.49Z" transform="translate(-20.46 -29.56)"/><path class="cls-4" d="M117.78,152.07v-4.44h.83v.47a2.79,2.79,0,0,1,.41-.24,4.33,4.33,0,0,1,.54-.21,2.35,2.35,0,0,1,.58-.1,1.22,1.22,0,0,1,1,.37,2.32,2.32,0,0,1,.31,1.37v2.78h-.93v-2.73a1.59,1.59,0,0,0-.15-.8c-.1-.16-.32-.24-.65-.22a1.39,1.39,0,0,0-.32.05,2.72,2.72,0,0,0-.37.13,2,2,0,0,0-.37.22v3.35Z" transform="translate(-20.46 -29.56)"/><path class="cls-4" d="M122.56,151.81l.13-.68a1.16,1.16,0,0,0,.25.12,3.1,3.1,0,0,0,.45.13,2,2,0,0,0,.55.07,1.08,1.08,0,0,0,.59-.13.44.44,0,0,0,.2-.38.41.41,0,0,0-.12-.3,1.08,1.08,0,0,0-.33-.24l-.48-.23a4.29,4.29,0,0,1-.64-.36,1.42,1.42,0,0,1-.43-.45,1.21,1.21,0,0,1-.15-.62,1.1,1.1,0,0,1,.23-.66,1.45,1.45,0,0,1,.59-.39,2.66,2.66,0,0,1,.82-.13,2.73,2.73,0,0,1,.74.09,2.44,2.44,0,0,1,.42.14l-.14.7a.86.86,0,0,0-.22-.12,1.62,1.62,0,0,0-.35-.09,1.75,1.75,0,0,0-.4,0,1.22,1.22,0,0,0-.61.12.38.38,0,0,0-.22.33.5.5,0,0,0,.2.44,3.72,3.72,0,0,0,.5.28c.27.13.52.27.74.39a1.83,1.83,0,0,1,.53.45,1,1,0,0,1,.19.62,1.09,1.09,0,0,1-.43.94,1.85,1.85,0,0,1-1.17.33,3.83,3.83,0,0,1-.6,0,3.19,3.19,0,0,1-.51-.12A1.26,1.26,0,0,1,122.56,151.81Z" transform="translate(-20.46 -29.56)"/><path class="cls-4" d="M127.92,152.14a1.52,1.52,0,0,1-.7-.14.91.91,0,0,1-.41-.39,1.57,1.57,0,0,1-.19-.6,4.8,4.8,0,0,1-.05-.78v-2.61h.92v2.6a2.46,2.46,0,0,0,.08.77.44.44,0,0,0,.26.32,1.1,1.1,0,0,0,.45.08,1.48,1.48,0,0,0,.35,0l.35-.12a1.22,1.22,0,0,0,.26-.14v-3.46h.92v4.52h-.42a.64.64,0,0,1-.3-.06c-.07,0-.1-.12-.1-.27v-.14a2.73,2.73,0,0,1-.42.23,2.78,2.78,0,0,1-.51.17A1.77,1.77,0,0,1,127.92,152.14Z" transform="translate(-20.46 -29.56)"/><path class="cls-4" d="M131.54,152.07v-4.44h.82v.47a3.45,3.45,0,0,1,.41-.24,3.66,3.66,0,0,1,.53-.21,2.35,2.35,0,0,1,.58-.1,1.47,1.47,0,0,1,.77.15.93.93,0,0,1,.42.55,3.22,3.22,0,0,1,.14,1v2.78h-.92v-2.73a2.38,2.38,0,0,0-.06-.59.54.54,0,0,0-.23-.34.89.89,0,0,0-.5-.08,1.52,1.52,0,0,0-.5.1,1.71,1.71,0,0,0-.55.29v3.35Zm3.63-3.34-.19-.59a2.09,2.09,0,0,1,.41-.26,3.76,3.76,0,0,1,.57-.23,2.59,2.59,0,0,1,.62-.1,1.61,1.61,0,0,1,.78.16.9.9,0,0,1,.44.54,2.9,2.9,0,0,1,.14,1v2.79H137v-2.73a2.38,2.38,0,0,0-.06-.59.53.53,0,0,0-.22-.34.89.89,0,0,0-.5-.08,1.62,1.62,0,0,0-.53.11A2,2,0,0,0,135.17,148.73Z" transform="translate(-20.46 -29.56)"/><path class="cls-4" d="M141,152.14A2.14,2.14,0,0,1,140,152a1.65,1.65,0,0,1-.61-.53,2.12,2.12,0,0,1-.35-.76,3.85,3.85,0,0,1-.1-.91,2.59,2.59,0,0,1,.28-1.2,2,2,0,0,1,.74-.74,2.26,2.26,0,0,1,1-.25,1.88,1.88,0,0,1,1.16.33,1.86,1.86,0,0,1,.63.87,3.52,3.52,0,0,1,.19,1.18,2.53,2.53,0,0,1-.28,1.2,1.84,1.84,0,0,1-.74.75A2.19,2.19,0,0,1,141,152.14Zm0-.65a.94.94,0,0,0,.83-.42,2.16,2.16,0,0,0,.27-1.17,2.76,2.76,0,0,0-.11-.84,1.36,1.36,0,0,0-.35-.61,1,1,0,0,0-1.43.16,2.09,2.09,0,0,0-.27,1.16,2.87,2.87,0,0,0,.11.85,1.3,1.3,0,0,0,.35.62A.83.83,0,0,0,141,151.49Z" transform="translate(-20.46 -29.56)"/><path class="cls-4" d="M147,152.14a1.77,1.77,0,0,1-.87-.23,1.8,1.8,0,0,1-.65-.71,2.6,2.6,0,0,1-.24-1.19,2.74,2.74,0,0,1,.28-1.28,2.24,2.24,0,0,1,.78-.86,2.28,2.28,0,0,1,1.18-.31,2,2,0,0,1,.69.1,1.19,1.19,0,0,1,.36.17l-.33.58a.73.73,0,0,0-.32-.14,2.17,2.17,0,0,0-.47,0,1,1,0,0,0-.61.19,1.2,1.2,0,0,0-.44.56,2.26,2.26,0,0,0-.17.92,1.83,1.83,0,0,0,.27,1.15,1,1,0,0,0,.8.36,1.28,1.28,0,0,0,.56-.12,1.82,1.82,0,0,0,.38-.22l.15.46-.26.24a1.38,1.38,0,0,1-.42.26A1.8,1.8,0,0,1,147,152.14Zm1.25-.07v-.59l-.05,0v-3.15l0,0,0-.88v-1.83h.92v6.5Z" transform="translate(-20.46 -29.56)"/><path class="cls-4" d="M152.12,152.14a1.83,1.83,0,0,1-1.48-.61,2.49,2.49,0,0,1-.52-1.69,2.86,2.86,0,0,1,.23-1.16,1.86,1.86,0,0,1,.68-.81,2,2,0,0,1,1.1-.31,1.91,1.91,0,0,1,.64.1,1.53,1.53,0,0,1,.52.31,1.55,1.55,0,0,1,.36.53,2.17,2.17,0,0,1,.15.75c0,.17,0,.32,0,.45a1.83,1.83,0,0,1,0,.35h-3.11l.08-.58h2.2a2,2,0,0,0,0-.61.83.83,0,0,0-.25-.46.8.8,0,0,0-.56-.18,1,1,0,0,0-.56.17,1.1,1.1,0,0,0-.39.59,3.28,3.28,0,0,0-.11,1.13,1.69,1.69,0,0,0,.2.79,1,1,0,0,0,.48.42,1.67,1.67,0,0,0,.65.12l.37,0a3,3,0,0,0,.43-.09,1.18,1.18,0,0,0,.31-.12l.18.53a1.42,1.42,0,0,1-.41.21,3.2,3.2,0,0,1-1.12.2Z" transform="translate(-20.46 -29.56)"/><path class="cls-4" d="M156,149.9a2.84,2.84,0,0,1,.24-1.19,2,2,0,0,1,.72-.84,2.23,2.23,0,0,1,1.2-.31,2.84,2.84,0,0,1,.71.08,1.28,1.28,0,0,1,.4.15l-.14.72a1.41,1.41,0,0,0-.41-.17,2.26,2.26,0,0,0-.57-.06,1.22,1.22,0,0,0-.58.15,1.29,1.29,0,0,0-.47.46,1.87,1.87,0,0,0-.2.85,2.17,2.17,0,0,0,.14.93,1.3,1.3,0,0,0,.45.57,1.1,1.1,0,0,0,.64.19,2,2,0,0,0,.61-.08,2.12,2.12,0,0,0,.43-.17l.17.53a1.29,1.29,0,0,1-.57.31,2.56,2.56,0,0,1-.79.12,1.86,1.86,0,0,1-1.08-.3,1.82,1.82,0,0,1-.67-.8A2.8,2.8,0,0,1,156,149.9Z" transform="translate(-20.46 -29.56)"/><path class="cls-4" d="M161.89,152.14A2.12,2.12,0,0,1,161,152a1.69,1.69,0,0,1-.62-.53,2.11,2.11,0,0,1-.34-.76,3.39,3.39,0,0,1-.1-.91,2.59,2.59,0,0,1,.28-1.2,1.88,1.88,0,0,1,.74-.74,2.22,2.22,0,0,1,1-.25,1.91,1.91,0,0,1,1.17.33,1.86,1.86,0,0,1,.63.87,3.52,3.52,0,0,1,.19,1.18,2.53,2.53,0,0,1-.29,1.2,1.82,1.82,0,0,1-.73.75A2.26,2.26,0,0,1,161.89,152.14Zm0-.65a.92.92,0,0,0,.82-.42,2.07,2.07,0,0,0,.28-1.17,3.11,3.11,0,0,0-.11-.84,1.46,1.46,0,0,0-.35-.61.9.9,0,0,0-.61-.23.88.88,0,0,0-.82.39,2,2,0,0,0-.28,1.16,3.24,3.24,0,0,0,.11.85,1.38,1.38,0,0,0,.35.62A.87.87,0,0,0,161.92,151.49Z" transform="translate(-20.46 -29.56)"/><path class="cls-4" d="M164.57,149.9a2.84,2.84,0,0,1,.24-1.19,2,2,0,0,1,.72-.84,2.23,2.23,0,0,1,1.2-.31,2.9,2.9,0,0,1,.71.08,1.4,1.4,0,0,1,.4.15l-.14.72a1.53,1.53,0,0,0-.41-.17,2.37,2.37,0,0,0-.57-.06,1.22,1.22,0,0,0-1.05.61,2,2,0,0,0-.21.85,2.16,2.16,0,0,0,.15.93,1.3,1.3,0,0,0,.45.57,1.1,1.1,0,0,0,.64.19,2,2,0,0,0,.61-.08,2.12,2.12,0,0,0,.43-.17l.17.53a1.33,1.33,0,0,1-.58.31,2.52,2.52,0,0,1-.79.12,1.85,1.85,0,0,1-1.07-.3,1.76,1.76,0,0,1-.67-.8A2.64,2.64,0,0,1,164.57,149.9Z" transform="translate(-20.46 -29.56)"/><path class="cls-4" d="M169.89,152.14a1.51,1.51,0,0,1-.71-.16,1.15,1.15,0,0,1-.48-.45,1.25,1.25,0,0,1-.18-.68,1.12,1.12,0,0,1,.23-.73,1.57,1.57,0,0,1,.62-.47,4,4,0,0,1,.55-.16q.3-.06.6-.09l.56,0,.19.25-.19.32-.38,0-.43.07a1.52,1.52,0,0,0-.36.12,1.16,1.16,0,0,0-.34.24.55.55,0,0,0-.13.4.65.65,0,0,0,.18.5.79.79,0,0,0,.56.18,1.31,1.31,0,0,0,.38-.06,1.75,1.75,0,0,0,.33-.13.78.78,0,0,0,.19-.12l.18.19-.13.35a2.28,2.28,0,0,1-.51.3A1.9,1.9,0,0,1,169.89,152.14Zm2.11-.07h-.87v-.66h0V149a.54.54,0,0,0-.21-.51,1,1,0,0,0-.58-.13,3.15,3.15,0,0,0-.52.05c-.18,0-.35.08-.5.12a1.88,1.88,0,0,0-.34.15l-.22-.66a2.86,2.86,0,0,1,.36-.16l.61-.18a3.25,3.25,0,0,1,.69-.08,2.77,2.77,0,0,1,.87.12,1,1,0,0,1,.56.43,1.64,1.64,0,0,1,.2.91Z" transform="translate(-20.46 -29.56)"/><path class="cls-4" d="M173.57,147.05l-.42-.35.46-.52.45-.56a6.75,6.75,0,0,0,.41-.57l.6.5a2.23,2.23,0,0,1-.2.28l-.33.37c-.12.13-.25.25-.38.37a3.12,3.12,0,0,1-.35.31A1.09,1.09,0,0,1,173.57,147.05Zm-.23,5v-4.44h.92v4.44Z" transform="translate(-20.46 -29.56)"/><path class="cls-4" d="M175.67,152.07v-4.44h.83v.47a3.67,3.67,0,0,1,.42-.24,3.38,3.38,0,0,1,.54-.21,2.28,2.28,0,0,1,.57-.1,1.21,1.21,0,0,1,1,.37,2.25,2.25,0,0,1,.31,1.37v2.78h-.92v-2.73a1.59,1.59,0,0,0-.15-.8c-.1-.16-.32-.24-.65-.22a1.47,1.47,0,0,0-.33.05,3.3,3.3,0,0,0-.37.13,2.32,2.32,0,0,0-.36.22v3.35Z" transform="translate(-20.46 -29.56)"/><path class="cls-4" d="M181.7,152.14A1.51,1.51,0,0,1,181,152a1.18,1.18,0,0,1-.49-.45,1.34,1.34,0,0,1-.17-.68,1.12,1.12,0,0,1,.23-.73,1.61,1.61,0,0,1,.61-.47,4.58,4.58,0,0,1,.56-.16q.3-.06.6-.09l.56,0,.19.25-.19.32-.38,0-.43.07a1.52,1.52,0,0,0-.36.12,1,1,0,0,0-.34.24.55.55,0,0,0-.13.4.65.65,0,0,0,.18.5.79.79,0,0,0,.56.18,1.31,1.31,0,0,0,.38-.06,1.75,1.75,0,0,0,.33-.13.78.78,0,0,0,.19-.12l.18.19-.13.35a2.28,2.28,0,0,1-.51.3A1.9,1.9,0,0,1,181.7,152.14Zm2.11-.07h-.87v-.66h-.05V149a.54.54,0,0,0-.21-.51,1.08,1.08,0,0,0-.59-.13,3,3,0,0,0-.51.05c-.18,0-.35.08-.5.12a1.61,1.61,0,0,0-.34.15l-.22-.66a2.3,2.3,0,0,1,.36-.16l.61-.18a3.25,3.25,0,0,1,.69-.08,2.81,2.81,0,0,1,.87.12,1,1,0,0,1,.56.43,1.64,1.64,0,0,1,.2.91Z" transform="translate(-20.46 -29.56)"/><path class="cls-4" d="M107.48,161.67v-4.44h.83v.47a3.67,3.67,0,0,1,.42-.24,3.38,3.38,0,0,1,.54-.21,2.28,2.28,0,0,1,.57-.1,1.21,1.21,0,0,1,1,.37,2.25,2.25,0,0,1,.31,1.37v2.78h-.92v-2.73a1.59,1.59,0,0,0-.15-.8c-.1-.16-.32-.24-.65-.22a2.21,2.21,0,0,0-.33.05,3.3,3.3,0,0,0-.37.13,1.65,1.65,0,0,0-.36.22v3.35Z" transform="translate(-20.46 -29.56)"/><path class="cls-4" d="M114.2,161.74a2.14,2.14,0,0,1-.93-.19,1.65,1.65,0,0,1-.61-.53,2.12,2.12,0,0,1-.35-.76,3.85,3.85,0,0,1-.1-.91,2.48,2.48,0,0,1,.29-1.2,1.86,1.86,0,0,1,.73-.74,2.26,2.26,0,0,1,1-.25,1.88,1.88,0,0,1,1.16.33,1.86,1.86,0,0,1,.63.87,3.52,3.52,0,0,1,.19,1.18,2.53,2.53,0,0,1-.28,1.2,1.88,1.88,0,0,1-.73.75A2.26,2.26,0,0,1,114.2,161.74Zm0-.65a.94.94,0,0,0,.83-.42,2.16,2.16,0,0,0,.27-1.17,2.76,2.76,0,0,0-.11-.84,1.36,1.36,0,0,0-.35-.61.9.9,0,0,0-.61-.23.93.93,0,0,0-.82.39,2.09,2.09,0,0,0-.27,1.16,2.87,2.87,0,0,0,.11.85,1.3,1.3,0,0,0,.35.62A.83.83,0,0,0,114.22,161.09Z" transform="translate(-20.46 -29.56)"/><path class="cls-4" d="M120,161.74a1.6,1.6,0,0,1-.71-.14.89.89,0,0,1-.4-.39,1.57,1.57,0,0,1-.19-.6,4.8,4.8,0,0,1,0-.78v-2.61h.92v2.6a2.46,2.46,0,0,0,.08.77.45.45,0,0,0,.25.32,1.19,1.19,0,0,0,.46.08,1.55,1.55,0,0,0,.35-.05l.35-.12a1.52,1.52,0,0,0,.26-.14v-3.46h.92v4.52h-.43a.6.6,0,0,1-.29-.06c-.07,0-.11-.12-.11-.27v-.31l0,.17a2.73,2.73,0,0,1-.42.23,2.78,2.78,0,0,1-.51.17A1.77,1.77,0,0,1,120,161.74Zm.25-5.09-.42-.35c.14-.16.3-.33.45-.52s.31-.37.46-.56a6.75,6.75,0,0,0,.41-.57l.6.5a2.23,2.23,0,0,1-.2.28l-.33.37-.38.37a4.35,4.35,0,0,1-.35.31A1.39,1.39,0,0,1,120.26,156.65Z" transform="translate(-20.46 -29.56)"/><path class="cls-4" d="M123.66,161.67v-6.5h.92v6.5Z" transform="translate(-20.46 -29.56)"/><path class="cls-4" d="M127.23,161.74a1.35,1.35,0,0,1-.55-.1.78.78,0,0,1-.38-.36,1.54,1.54,0,0,1-.13-.72V157.9h-.58v-.5a3.59,3.59,0,0,0,.45-.14.38.38,0,0,0,.23-.25c0-.06,0-.13.07-.21l.09-.27c0-.1.07-.21.11-.33h.55v1h1.25v.68h-1.25v2.17a3.21,3.21,0,0,0,0,.63.33.33,0,0,0,.14.26.8.8,0,0,0,.31,0l.26,0a1.27,1.27,0,0,0,.28-.06l.21-.09.15.53a1.82,1.82,0,0,1-.32.18,2.15,2.15,0,0,1-.45.14A2,2,0,0,1,127.23,161.74Z" transform="translate(-20.46 -29.56)"/><path class="cls-4" d="M129.81,156.44a.59.59,0,0,1-.4-.15.49.49,0,0,1-.18-.4.58.58,0,0,1,.1-.32.78.78,0,0,1,.25-.23.62.62,0,0,1,.32-.09.58.58,0,0,1,.43.16.61.61,0,0,1,.14.4.59.59,0,0,1-.2.45A.65.65,0,0,1,129.81,156.44Zm-.4,5.23v-4.44h.92v4.44Z" transform="translate(-20.46 -29.56)"/><path class="cls-4" d="M131.73,161.67v-4.44h.83v.47a3.45,3.45,0,0,1,.41-.24,3.66,3.66,0,0,1,.53-.21,2.35,2.35,0,0,1,.58-.1,1.47,1.47,0,0,1,.77.15.93.93,0,0,1,.42.55,3.22,3.22,0,0,1,.14,1v2.78h-.92v-2.73a2.38,2.38,0,0,0-.06-.59.56.56,0,0,0-.23-.34,1,1,0,0,0-.5-.08,1.47,1.47,0,0,0-.5.1,1.87,1.87,0,0,0-.56.29v3.35Zm3.64-3.34-.2-.59a2.57,2.57,0,0,1,.42-.26,3.76,3.76,0,0,1,.57-.23,2.59,2.59,0,0,1,.62-.1,1.61,1.61,0,0,1,.78.16.9.9,0,0,1,.44.54,2.9,2.9,0,0,1,.14,1v2.79h-.92v-2.73a2.38,2.38,0,0,0-.06-.59.55.55,0,0,0-.22-.34,1,1,0,0,0-.5-.08,1.62,1.62,0,0,0-.53.11A2,2,0,0,0,135.37,158.33Z" transform="translate(-20.46 -29.56)"/><path class="cls-4" d="M141.15,161.74a2.12,2.12,0,0,1-.92-.19,1.77,1.77,0,0,1-.62-.53,2.29,2.29,0,0,1-.34-.76,3.85,3.85,0,0,1-.1-.91,2.59,2.59,0,0,1,.28-1.2,2,2,0,0,1,.74-.74,2.25,2.25,0,0,1,1-.25,1.89,1.89,0,0,1,1.17.33,1.86,1.86,0,0,1,.63.87,3.52,3.52,0,0,1,.19,1.18,2.53,2.53,0,0,1-.28,1.2,1.84,1.84,0,0,1-.74.75A2.2,2.2,0,0,1,141.15,161.74Zm0-.65a.92.92,0,0,0,.82-.42,2.07,2.07,0,0,0,.28-1.17,2.76,2.76,0,0,0-.11-.84,1.36,1.36,0,0,0-.35-.61.9.9,0,0,0-.61-.23.91.91,0,0,0-.82.39,2.09,2.09,0,0,0-.28,1.16,2.86,2.86,0,0,0,.12.85,1.37,1.37,0,0,0,.34.62A.87.87,0,0,0,141.18,161.09Z" transform="translate(-20.46 -29.56)"/><path class="cls-4" d="M146.78,161.74a1.46,1.46,0,0,1-.71-.16,1.12,1.12,0,0,1-.49-.45,1.25,1.25,0,0,1-.18-.68,1.18,1.18,0,0,1,.23-.73,1.57,1.57,0,0,1,.62-.47,4,4,0,0,1,.55-.16l.6-.09.56,0,.19.25-.19.32-.38,0-.42.07a1.46,1.46,0,0,0-.37.12,1,1,0,0,0-.33.24.52.52,0,0,0-.14.4.65.65,0,0,0,.18.5.79.79,0,0,0,.56.18,1.31,1.31,0,0,0,.38-.06,1.75,1.75,0,0,0,.33-.13.78.78,0,0,0,.19-.12l.18.19-.13.35a2,2,0,0,1-.51.3A1.89,1.89,0,0,1,146.78,161.74Zm2.1-.07H148V161h0v-2.46a.54.54,0,0,0-.21-.51,1,1,0,0,0-.58-.13,3.15,3.15,0,0,0-.52.05,4.4,4.4,0,0,0-.49.12,1.73,1.73,0,0,0-.35.15l-.21-.66a2.07,2.07,0,0,1,.35-.16l.61-.18a3.32,3.32,0,0,1,.69-.08,2.77,2.77,0,0,1,.87.12,1,1,0,0,1,.57.43,1.74,1.74,0,0,1,.19.91Z" transform="translate(-20.46 -29.56)"/><path class="cls-4" d="M150.19,161.67v-4.44H151v.47a3.67,3.67,0,0,1,.42-.24,3.38,3.38,0,0,1,.54-.21,2.28,2.28,0,0,1,.57-.1,1.2,1.2,0,0,1,1,.37,2.25,2.25,0,0,1,.31,1.37v2.78H153v-2.73a1.59,1.59,0,0,0-.15-.8c-.1-.16-.32-.24-.65-.22a2.42,2.42,0,0,0-.33.05,3.3,3.3,0,0,0-.37.13,2.32,2.32,0,0,0-.36.22v3.35Z" transform="translate(-20.46 -29.56)"/><path class="cls-4" d="M156.91,161.74a2.17,2.17,0,0,1-.93-.19,1.65,1.65,0,0,1-.61-.53,2.31,2.31,0,0,1-.35-.76,3.85,3.85,0,0,1-.1-.91,2.59,2.59,0,0,1,.29-1.2,1.86,1.86,0,0,1,.73-.74,2.26,2.26,0,0,1,1.05-.25,1.77,1.77,0,0,1,1.8,1.2,3.52,3.52,0,0,1,.18,1.18,2.53,2.53,0,0,1-.28,1.2,1.88,1.88,0,0,1-.73.75A2.26,2.26,0,0,1,156.91,161.74Zm0-.65a.93.93,0,0,0,.83-.42,2.15,2.15,0,0,0,.28-1.17,2.75,2.75,0,0,0-.12-.84,1.36,1.36,0,0,0-.35-.61.9.9,0,0,0-.61-.23.93.93,0,0,0-.82.39,2.09,2.09,0,0,0-.27,1.16,2.87,2.87,0,0,0,.11.85,1.3,1.3,0,0,0,.35.62A.85.85,0,0,0,156.93,161.09Z" transform="translate(-20.46 -29.56)"/><path class="cls-4" d="M163,163a2.18,2.18,0,0,1-.31-.26,4.29,4.29,0,0,1-.46-.52,5,5,0,0,1-.47-.81,5.34,5.34,0,0,1-.37-1.11,6.22,6.22,0,0,1-.15-1.43,5.23,5.23,0,0,1,.51-2.31,5.21,5.21,0,0,1,.47-.82,3.53,3.53,0,0,1,.46-.56,1.5,1.5,0,0,1,.32-.27l.61.32a2.88,2.88,0,0,0-.34.35,4.24,4.24,0,0,0-.49.72,5.44,5.44,0,0,0-.66,2.58,5.55,5.55,0,0,0,.1,1.26,5.14,5.14,0,0,0,.29,1,4.35,4.35,0,0,0,.4.75,3.36,3.36,0,0,0,.4.51l.3.29Z" transform="translate(-20.46 -29.56)"/><path class="cls-4" d="M164.59,161.67l-.14-.47a7.16,7.16,0,0,0,.76-.57,8.16,8.16,0,0,0,.74-.7,5.05,5.05,0,0,0,.63-.77,4.1,4.1,0,0,0,.45-.81,2.33,2.33,0,0,0,.16-.8,1.14,1.14,0,0,0-.27-.82,1,1,0,0,0-.74-.28,1.76,1.76,0,0,0-.76.16,1.85,1.85,0,0,0-.56.39l-.39-.55a2.67,2.67,0,0,1,.42-.35,3.09,3.09,0,0,1,.63-.3,2.55,2.55,0,0,1,.81-.12,1.93,1.93,0,0,1,1,.25,1.5,1.5,0,0,1,.6.65,2.13,2.13,0,0,1,.19.92,2.76,2.76,0,0,1-.29,1.22,4.83,4.83,0,0,1-.8,1.18,6.85,6.85,0,0,1-1.17,1l2.49,0v.78Z" transform="translate(-20.46 -29.56)"/><path class="cls-4" d="M171.59,161.74a1.86,1.86,0,0,1-1-.26,1.93,1.93,0,0,1-.67-.69,3.4,3.4,0,0,1-.37-1,5.69,5.69,0,0,1-.11-1.18,4,4,0,0,1,.31-1.57,2.47,2.47,0,0,1,.8-1,1.89,1.89,0,0,1,1.14-.36,2,2,0,0,1,1,.23,1.84,1.84,0,0,1,.65.65,3.13,3.13,0,0,1,.35,1,6.11,6.11,0,0,1,.1,1.16,4.41,4.41,0,0,1-.28,1.61,2.56,2.56,0,0,1-.77,1.09A1.8,1.8,0,0,1,171.59,161.74Zm0-.84a1,1,0,0,0,.9-.55,3.59,3.59,0,0,0,.3-1.66,4.33,4.33,0,0,0-.13-1.13,1.78,1.78,0,0,0-.38-.78.89.89,0,0,0-.68-.29,1,1,0,0,0-.9.54,3.27,3.27,0,0,0-.31,1.55,4.6,4.6,0,0,0,.13,1.15,2.19,2.19,0,0,0,.39.84A.89.89,0,0,0,171.62,160.9Z" transform="translate(-20.46 -29.56)"/><path class="cls-4" d="M175.77,161.67v-4.91l-.44.11-.44.1-.1-.55.42-.15.44-.21.39-.22.26-.19.42.07v5.95Z" transform="translate(-20.46 -29.56)"/><path class="cls-4" d="M178.56,161.67l-.14-.47a7.16,7.16,0,0,0,.76-.57,8.16,8.16,0,0,0,.74-.7,5.05,5.05,0,0,0,.63-.77,4.1,4.1,0,0,0,.45-.81,2.33,2.33,0,0,0,.16-.8,1.14,1.14,0,0,0-.27-.82.94.94,0,0,0-.74-.28,1.79,1.79,0,0,0-.76.16,1.85,1.85,0,0,0-.56.39l-.39-.55a3.23,3.23,0,0,1,.42-.35,3.37,3.37,0,0,1,.63-.3,2.55,2.55,0,0,1,.81-.12,1.91,1.91,0,0,1,1,.25,1.45,1.45,0,0,1,.6.65,2.13,2.13,0,0,1,.19.92,2.76,2.76,0,0,1-.29,1.22,4.83,4.83,0,0,1-.8,1.18,6.49,6.49,0,0,1-1.17,1l2.49,0v.78Z" transform="translate(-20.46 -29.56)"/><path class="cls-4" d="M183.79,154.79a2.18,2.18,0,0,1,.31.26,4.29,4.29,0,0,1,.46.52,5,5,0,0,1,.47.81,5.76,5.76,0,0,1,.38,1.11,6.86,6.86,0,0,1,.14,1.43,5.07,5.07,0,0,1-.14,1.26,5.61,5.61,0,0,1-.37,1,4.79,4.79,0,0,1-.46.82,5.12,5.12,0,0,1-.46.56,1.49,1.49,0,0,1-.33.27l-.61-.31a3.22,3.22,0,0,0,.34-.36,4,4,0,0,0,.5-.72,4.94,4.94,0,0,0,.44-1.1,5.38,5.38,0,0,0,.21-1.48,6.23,6.23,0,0,0-.09-1.26,5.35,5.35,0,0,0-.3-1,4.36,4.36,0,0,0-.39-.75,4,4,0,0,0-.41-.51,2.31,2.31,0,0,0-.3-.28Z" transform="translate(-20.46 -29.56)"/><path class="cls-4" d="M98.58,196.54a2.84,2.84,0,0,1,.24-1.19,2,2,0,0,1,.72-.84,2.23,2.23,0,0,1,1.2-.31,2.9,2.9,0,0,1,.71.08,1.4,1.4,0,0,1,.4.15l-.15.72a1.34,1.34,0,0,0-.4-.17,2.37,2.37,0,0,0-.57-.06,1.19,1.19,0,0,0-.58.15,1.15,1.15,0,0,0-.47.46,1.75,1.75,0,0,0-.21.85,2.16,2.16,0,0,0,.15.93,1.24,1.24,0,0,0,.45.57,1.09,1.09,0,0,0,.63.19,2.07,2.07,0,0,0,.62-.08,1.79,1.79,0,0,0,.42-.17l.18.53a1.39,1.39,0,0,1-.58.31,2.52,2.52,0,0,1-.79.12,1.85,1.85,0,0,1-1.07-.3,1.81,1.81,0,0,1-.67-.8A2.64,2.64,0,0,1,98.58,196.54Z" transform="translate(-20.46 -29.56)"/><path class="cls-4" d="M104.52,198.78a2.14,2.14,0,0,1-.93-.19,1.65,1.65,0,0,1-.61-.53,2.12,2.12,0,0,1-.35-.76,3.85,3.85,0,0,1-.1-.91,2.59,2.59,0,0,1,.28-1.2,1.88,1.88,0,0,1,.74-.74,2.26,2.26,0,0,1,1-.25,1.88,1.88,0,0,1,1.16.33,1.86,1.86,0,0,1,.63.87,3.52,3.52,0,0,1,.19,1.18,2.53,2.53,0,0,1-.28,1.2,1.84,1.84,0,0,1-.74.75A2.19,2.19,0,0,1,104.52,198.78Zm0-.65a.94.94,0,0,0,.83-.42,2.16,2.16,0,0,0,.27-1.17,2.76,2.76,0,0,0-.11-.84,1.36,1.36,0,0,0-.35-.61.85.85,0,0,0-.61-.23.9.9,0,0,0-.82.39,2.09,2.09,0,0,0-.27,1.16,2.87,2.87,0,0,0,.11.85,1.35,1.35,0,0,0,.35.62A.83.83,0,0,0,104.54,198.13Z" transform="translate(-20.46 -29.56)"/><path class="cls-4" d="M107.64,198.71v-4.44h.83v.47a3.67,3.67,0,0,1,.42-.24,3.38,3.38,0,0,1,.54-.21,2.28,2.28,0,0,1,.57-.1,1.21,1.21,0,0,1,1,.37,2.25,2.25,0,0,1,.31,1.37v2.78h-.92V196a1.59,1.59,0,0,0-.15-.8c-.1-.16-.32-.24-.65-.22a2.21,2.21,0,0,0-.33,0,3.3,3.3,0,0,0-.37.13,1.65,1.65,0,0,0-.36.22v3.35Z" transform="translate(-20.46 -29.56)"/><path class="cls-4" d="M112.42,198.45l.12-.68a1.47,1.47,0,0,0,.25.12,3.27,3.27,0,0,0,.46.13,2,2,0,0,0,.55.07,1,1,0,0,0,.58-.13.42.42,0,0,0,.2-.38.41.41,0,0,0-.12-.3,1.08,1.08,0,0,0-.33-.24l-.48-.23a4.16,4.16,0,0,1-.63-.36,1.23,1.23,0,0,1-.43-.45,1.21,1.21,0,0,1-.15-.62,1,1,0,0,1,.23-.66,1.39,1.39,0,0,1,.59-.39,2.35,2.35,0,0,1,.82-.13,2.65,2.65,0,0,1,.73.09,2.16,2.16,0,0,1,.42.14l-.13.7a1,1,0,0,0-.23-.12,1.53,1.53,0,0,0-.34-.09,1.81,1.81,0,0,0-.4,0,1.26,1.26,0,0,0-.62.12.4.4,0,0,0-.22.33.51.51,0,0,0,.21.44,3.55,3.55,0,0,0,.49.28,8.32,8.32,0,0,1,.74.39,1.71,1.71,0,0,1,.53.45,1,1,0,0,1,.2.62,1.12,1.12,0,0,1-.43.94,1.9,1.9,0,0,1-1.18.33,3.81,3.81,0,0,1-.59-.05,2.75,2.75,0,0,1-.51-.12A1.26,1.26,0,0,1,112.42,198.45Z" transform="translate(-20.46 -29.56)"/><path class="cls-4" d="M117.78,198.78a1.57,1.57,0,0,1-.71-.14,1,1,0,0,1-.41-.39,2,2,0,0,1-.19-.6,6.26,6.26,0,0,1,0-.78v-2.61h.92v2.6a2.39,2.39,0,0,0,.09.77.45.45,0,0,0,.25.32,1.19,1.19,0,0,0,.46.08,1.63,1.63,0,0,0,.35-.05l.35-.12.26-.14v-3.46H120v4.52h-.43a.6.6,0,0,1-.29-.06c-.07,0-.11-.12-.11-.27v-.31l0,.17a2.73,2.73,0,0,1-.42.23,3.05,3.05,0,0,1-.51.17A1.82,1.82,0,0,1,117.78,198.78Z" transform="translate(-20.46 -29.56)"/><path class="cls-4" d="M121.39,198.71v-4.44h.83v.47a4.5,4.5,0,0,1,.41-.24,4.33,4.33,0,0,1,.54-.21,2.28,2.28,0,0,1,.57-.1,1.51,1.51,0,0,1,.78.15,1,1,0,0,1,.42.55,3.22,3.22,0,0,1,.14,1v2.78h-.92V196a2.32,2.32,0,0,0-.07-.59.5.5,0,0,0-.23-.34.85.85,0,0,0-.49-.08,1.47,1.47,0,0,0-.5.1,1.76,1.76,0,0,0-.56.29v3.35Zm3.64-3.34-.2-.59a2.2,2.2,0,0,1,.42-.26,3.13,3.13,0,0,1,.56-.23,2.76,2.76,0,0,1,.63-.1,1.61,1.61,0,0,1,.78.16.94.94,0,0,1,.44.54,3.15,3.15,0,0,1,.14,1v2.79h-.92V196a2.38,2.38,0,0,0-.06-.59.54.54,0,0,0-.23-.34.85.85,0,0,0-.49-.08,1.57,1.57,0,0,0-.53.11A2,2,0,0,0,125,195.37Z" transform="translate(-20.46 -29.56)"/><path class="cls-4" d="M130.81,198.78a2.12,2.12,0,0,1-.92-.19,1.69,1.69,0,0,1-.62-.53,2.11,2.11,0,0,1-.34-.76,3.39,3.39,0,0,1-.1-.91,2.47,2.47,0,0,1,.28-1.2,1.82,1.82,0,0,1,.74-.74,2.22,2.22,0,0,1,1-.25,1.89,1.89,0,0,1,1.17.33,1.86,1.86,0,0,1,.63.87,3.52,3.52,0,0,1,.19,1.18,2.53,2.53,0,0,1-.29,1.2,1.82,1.82,0,0,1-.73.75A2.26,2.26,0,0,1,130.81,198.78Zm0-.65a.92.92,0,0,0,.83-.42,2.07,2.07,0,0,0,.28-1.17,3.11,3.11,0,0,0-.11-.84,1.46,1.46,0,0,0-.35-.61.85.85,0,0,0-.61-.23.88.88,0,0,0-.82.39,2,2,0,0,0-.28,1.16,3.24,3.24,0,0,0,.11.85,1.44,1.44,0,0,0,.35.62A.86.86,0,0,0,130.83,198.13Z" transform="translate(-20.46 -29.56)"/><path class="cls-4" d="M135.65,198.71v-3.77H135v-.51l.66-.17v-.39a2.21,2.21,0,0,1,.14-.83,1.35,1.35,0,0,1,.4-.53,1.55,1.55,0,0,1,.52-.28,1.85,1.85,0,0,1,.56-.08,2.22,2.22,0,0,1,.37,0l.23,0v.71a2,2,0,0,0-.26-.06l-.4,0a.57.57,0,0,0-.46.21,1,1,0,0,0-.17.64v.55h1.08v.68h-1.08v3.77Z" transform="translate(-20.46 -29.56)"/><path class="cls-4" d="M138.49,198.71v-4.44h.79l.06.56.07.34v3.54Zm.88-3.27-.06-.61a.85.85,0,0,1,.25-.27,1.84,1.84,0,0,1,.46-.26,1.4,1.4,0,0,1,.53-.11l.26,0a.28.28,0,0,1,.16,0v.86l-.18-.06a1.66,1.66,0,0,0-.84,0,1.54,1.54,0,0,0-.34.17A1.83,1.83,0,0,0,139.37,195.44Z" transform="translate(-20.46 -29.56)"/><path class="cls-4" d="M143.42,198.78a1.83,1.83,0,0,1-1.48-.61,2.57,2.57,0,0,1-.52-1.69,2.86,2.86,0,0,1,.23-1.16,1.93,1.93,0,0,1,.68-.81,2,2,0,0,1,1.11-.31,1.89,1.89,0,0,1,.63.1,1.49,1.49,0,0,1,.89.84,2.13,2.13,0,0,1,.14.75v.45a1.78,1.78,0,0,1,0,.35H142l.08-.58h2.2a2.41,2.41,0,0,0,0-.61A.8.8,0,0,0,144,195a.77.77,0,0,0-.56-.18,1,1,0,0,0-.56.17,1.14,1.14,0,0,0-.38.59,3.5,3.5,0,0,0-.12,1.13,1.69,1.69,0,0,0,.21.79,1,1,0,0,0,.47.42,1.71,1.71,0,0,0,.65.12l.37,0a3,3,0,0,0,.43-.09,1.43,1.43,0,0,0,.31-.12l.18.53a1.35,1.35,0,0,1-.4.21,4,4,0,0,1-.55.15A3.9,3.9,0,0,1,143.42,198.78Z" transform="translate(-20.46 -29.56)"/><path class="cls-4" d="M147.63,198.78a1.77,1.77,0,0,1-.87-.23,1.67,1.67,0,0,1-.65-.71,2.59,2.59,0,0,1-.25-1.19,2.87,2.87,0,0,1,.28-1.28,2.24,2.24,0,0,1,.78-.86,2.28,2.28,0,0,1,1.18-.31,2.41,2.41,0,0,1,.74.1,1.33,1.33,0,0,1,.4.17l-.41.58a.73.73,0,0,0-.32-.14,2.23,2.23,0,0,0-.47,0,1,1,0,0,0-.62.19,1.27,1.27,0,0,0-.44.56,2.26,2.26,0,0,0-.16.92,1.83,1.83,0,0,0,.27,1.15,1,1,0,0,0,.79.36,1.32,1.32,0,0,0,.57-.12,1.82,1.82,0,0,0,.38-.22l.15.46-.26.24a1.58,1.58,0,0,1-.43.26A1.75,1.75,0,0,1,147.63,198.78Zm1.2.48,0-1,0-.36v-3l.09-.1,0-.39.81-.15v6.43h-.92Z" transform="translate(-20.46 -29.56)"/><path class="cls-4" d="M152.33,198.78a1.6,1.6,0,0,1-.71-.14,1,1,0,0,1-.41-.39,2,2,0,0,1-.19-.6,6.26,6.26,0,0,1-.05-.78v-2.61h.92v2.6a2.39,2.39,0,0,0,.09.77.45.45,0,0,0,.25.32,1.19,1.19,0,0,0,.46.08A1.55,1.55,0,0,0,153,198l.35-.12.26-.14v-3.46h.92v4.52h-.43a.6.6,0,0,1-.29-.06c-.07,0-.11-.12-.11-.27v-.31l0,.17a2.73,2.73,0,0,1-.42.23,3.05,3.05,0,0,1-.51.17A1.82,1.82,0,0,1,152.33,198.78Z" transform="translate(-20.46 -29.56)"/><path class="cls-4" d="M157.65,198.78a1.82,1.82,0,0,1-1.48-.61,2.51,2.51,0,0,1-.52-1.69,2.7,2.7,0,0,1,.23-1.16,1.86,1.86,0,0,1,.68-.81,2,2,0,0,1,1.1-.31,1.81,1.81,0,0,1,.63.1,1.48,1.48,0,0,1,.53.31,1.55,1.55,0,0,1,.36.53,2.13,2.13,0,0,1,.15.75c0,.17,0,.32,0,.45a1.83,1.83,0,0,1,0,.35h-3.11l.08-.58h2.2a2,2,0,0,0,0-.61.79.79,0,0,0-.24-.46.8.8,0,0,0-.56-.18,1,1,0,0,0-.57.17,1.14,1.14,0,0,0-.38.59,3.28,3.28,0,0,0-.11,1.13,1.69,1.69,0,0,0,.2.79,1,1,0,0,0,.48.42,1.67,1.67,0,0,0,.65.12l.37,0a2.59,2.59,0,0,0,.42-.09,1.56,1.56,0,0,0,.32-.12l.17.53a1.24,1.24,0,0,1-.4.21,4,4,0,0,1-.55.15A3.77,3.77,0,0,1,157.65,198.78Z" transform="translate(-20.46 -29.56)"/><path class="cls-4" d="M160.41,198.71v-4.44h.82v.47a4.5,4.5,0,0,1,.41-.24,4.33,4.33,0,0,1,.54-.21,2.43,2.43,0,0,1,.58-.1,1.21,1.21,0,0,1,1,.37,2.25,2.25,0,0,1,.31,1.37v2.78h-.93V196a1.59,1.59,0,0,0-.15-.8c-.1-.16-.31-.24-.65-.22a2.3,2.3,0,0,0-.32,0,3.3,3.3,0,0,0-.37.13,1.65,1.65,0,0,0-.36.22v3.35Z" transform="translate(-20.46 -29.56)"/><path class="cls-4" d="M166.69,198.78a1.54,1.54,0,0,1-.55-.1.78.78,0,0,1-.38-.36,1.57,1.57,0,0,1-.13-.72v-2.66h-.58v-.5a4.55,4.55,0,0,0,.46-.14.37.37,0,0,0,.22-.25c0-.06.05-.13.08-.21s.05-.17.08-.27.07-.21.11-.33h.55v1h1.25v.68h-1.25v2.17a3.21,3.21,0,0,0,0,.63.33.33,0,0,0,.14.26.85.85,0,0,0,.32.05l.25,0a2,2,0,0,0,.28-.06l.21-.09.15.53a1.82,1.82,0,0,1-.32.18,2.53,2.53,0,0,1-.44.14A2.05,2.05,0,0,1,166.69,198.78Z" transform="translate(-20.46 -29.56)"/><path class="cls-4" d="M170.54,198.78a1.83,1.83,0,0,1-1.48-.61,2.57,2.57,0,0,1-.52-1.69,2.86,2.86,0,0,1,.23-1.16,1.93,1.93,0,0,1,.68-.81,2,2,0,0,1,1.11-.31,1.89,1.89,0,0,1,.63.1,1.49,1.49,0,0,1,.89.84,2.13,2.13,0,0,1,.14.75v.45a1.78,1.78,0,0,1,0,.35h-3.1l.08-.58h2.2a2.41,2.41,0,0,0,0-.61.8.8,0,0,0-.25-.46.77.77,0,0,0-.56-.18,1,1,0,0,0-.56.17,1.14,1.14,0,0,0-.38.59,3.5,3.5,0,0,0-.12,1.13,1.69,1.69,0,0,0,.21.79,1,1,0,0,0,.47.42,1.71,1.71,0,0,0,.65.12l.37,0a3,3,0,0,0,.43-.09,1.43,1.43,0,0,0,.31-.12l.18.53a1.35,1.35,0,0,1-.4.21,4,4,0,0,1-.55.15A3.9,3.9,0,0,1,170.54,198.78Z" transform="translate(-20.46 -29.56)"/><path class="cls-4" d="M176.45,198.78a1.82,1.82,0,0,1-1.48-.61,2.51,2.51,0,0,1-.52-1.69,2.7,2.7,0,0,1,.23-1.16,1.86,1.86,0,0,1,.68-.81,2,2,0,0,1,1.1-.31,1.81,1.81,0,0,1,.63.1,1.48,1.48,0,0,1,.53.31,1.55,1.55,0,0,1,.36.53,2.13,2.13,0,0,1,.15.75c0,.17,0,.32,0,.45a1.83,1.83,0,0,1,0,.35H175l.08-.58h2.2a2,2,0,0,0,0-.61A.79.79,0,0,0,177,195a.8.8,0,0,0-.56-.18,1,1,0,0,0-.57.17,1.14,1.14,0,0,0-.38.59,3.28,3.28,0,0,0-.11,1.13,1.69,1.69,0,0,0,.2.79,1,1,0,0,0,.48.42,1.67,1.67,0,0,0,.65.12l.37,0a2.59,2.59,0,0,0,.42-.09,1.56,1.56,0,0,0,.32-.12l.17.53a1.24,1.24,0,0,1-.4.21,4,4,0,0,1-.55.15A3.77,3.77,0,0,1,176.45,198.78Z" transform="translate(-20.46 -29.56)"/><path class="cls-4" d="M179.21,198.71v-4.44H180v.47a4.5,4.5,0,0,1,.41-.24,4.33,4.33,0,0,1,.54-.21,2.43,2.43,0,0,1,.58-.1,1.21,1.21,0,0,1,1,.37,2.25,2.25,0,0,1,.31,1.37v2.78H182V196a1.59,1.59,0,0,0-.15-.8c-.1-.16-.31-.24-.65-.22a2.3,2.3,0,0,0-.32,0,3.3,3.3,0,0,0-.37.13,1.65,1.65,0,0,0-.36.22v3.35Z" transform="translate(-20.46 -29.56)"/><path class="cls-4" d="M185.49,198.78a1.54,1.54,0,0,1-.55-.1.78.78,0,0,1-.38-.36,1.57,1.57,0,0,1-.13-.72v-2.66h-.58v-.5a4.55,4.55,0,0,0,.46-.14.37.37,0,0,0,.22-.25c0-.06.05-.13.08-.21s0-.17.08-.27.07-.21.11-.33h.55v1h1.25v.68h-1.25v2.17a3.21,3.21,0,0,0,0,.63.33.33,0,0,0,.14.26.85.85,0,0,0,.32.05l.25,0a2.3,2.3,0,0,0,.28-.06l.21-.09.15.53a1.82,1.82,0,0,1-.32.18,2.53,2.53,0,0,1-.44.14A2.05,2.05,0,0,1,185.49,198.78Z" transform="translate(-20.46 -29.56)"/><path class="cls-4" d="M187.56,198.71v-4.44h.78l.07.56.07.34v3.54Zm.87-3.27-.06-.61a.91.91,0,0,1,.26-.27,1.77,1.77,0,0,1,.45-.26,1.4,1.4,0,0,1,.53-.11l.27,0a.34.34,0,0,1,.16,0v.86l-.18-.06a1.36,1.36,0,0,0-.4,0,1.23,1.23,0,0,0-.44.07,1.43,1.43,0,0,0-.35.17A1.83,1.83,0,0,0,188.43,195.44Z" transform="translate(-20.46 -29.56)"/><path class="cls-4" d="M192.49,198.78a1.83,1.83,0,0,1-1.48-.61,2.57,2.57,0,0,1-.52-1.69,2.86,2.86,0,0,1,.23-1.16,1.93,1.93,0,0,1,.68-.81,2,2,0,0,1,1.11-.31,1.85,1.85,0,0,1,.63.1,1.57,1.57,0,0,1,.53.31,1.55,1.55,0,0,1,.36.53,1.93,1.93,0,0,1,.14.75v.45a1.25,1.25,0,0,1,0,.35H191l.08-.58h2.2a2.41,2.41,0,0,0,0-.61A.8.8,0,0,0,193,195a.77.77,0,0,0-.56-.18,1,1,0,0,0-.56.17,1.14,1.14,0,0,0-.38.59,3.28,3.28,0,0,0-.11,1.13,1.58,1.58,0,0,0,.2.79,1,1,0,0,0,.47.42,1.71,1.71,0,0,0,.65.12l.38,0a2.84,2.84,0,0,0,.42-.09,1.82,1.82,0,0,0,.32-.12l.17.53a1.35,1.35,0,0,1-.4.21,4,4,0,0,1-.55.15A3.9,3.9,0,0,1,192.49,198.78Z" transform="translate(-20.46 -29.56)"/><path class="cls-4" d="M111.7,208.38a1.57,1.57,0,0,1-.71-.14,1,1,0,0,1-.41-.39,2,2,0,0,1-.19-.6,6.26,6.26,0,0,1,0-.78v-2.61h.92v2.6a2.39,2.39,0,0,0,.09.77.45.45,0,0,0,.25.32,1.19,1.19,0,0,0,.46.08,1.63,1.63,0,0,0,.35,0l.35-.12a2,2,0,0,0,.26-.14v-3.46h.92v4.52h-.43a.6.6,0,0,1-.29-.06c-.07,0-.11-.12-.11-.27v-.31l0,.17a2.73,2.73,0,0,1-.42.23,3.05,3.05,0,0,1-.51.17A1.82,1.82,0,0,1,111.7,208.38Z" transform="translate(-20.46 -29.56)"/><path class="cls-4" d="M115,208.05l.13-.68a1.16,1.16,0,0,0,.25.12,3.1,3.1,0,0,0,.45.13,2,2,0,0,0,.55.07,1.08,1.08,0,0,0,.59-.13.44.44,0,0,0,.2-.38.41.41,0,0,0-.12-.3,1.08,1.08,0,0,0-.33-.24l-.48-.23a4.29,4.29,0,0,1-.64-.36,1.42,1.42,0,0,1-.43-.45,1.21,1.21,0,0,1-.15-.62,1.12,1.12,0,0,1,.23-.66,1.45,1.45,0,0,1,.59-.39,2.39,2.39,0,0,1,.82-.13,2.73,2.73,0,0,1,.74.09,2,2,0,0,1,.41.14l-.13.7a.86.86,0,0,0-.22-.12,1.62,1.62,0,0,0-.35-.09,1.75,1.75,0,0,0-.4,0,1.22,1.22,0,0,0-.61.12.38.38,0,0,0-.22.33.49.49,0,0,0,.2.44,3.72,3.72,0,0,0,.5.28c.27.13.52.27.74.4a1.66,1.66,0,0,1,.53.44,1,1,0,0,1,.19.62,1.09,1.09,0,0,1-.43.94,1.85,1.85,0,0,1-1.17.33,3.83,3.83,0,0,1-.6,0,3.19,3.19,0,0,1-.51-.12A1.26,1.26,0,0,1,115,208.05Z" transform="translate(-20.46 -29.56)"/><path class="cls-4" d="M120.4,208.38a1.6,1.6,0,0,1-.71-.14.94.94,0,0,1-.4-.39,1.57,1.57,0,0,1-.19-.6,4.8,4.8,0,0,1,0-.78v-2.61H120v2.6a2.46,2.46,0,0,0,.08.77.45.45,0,0,0,.25.32,1.19,1.19,0,0,0,.46.08,1.55,1.55,0,0,0,.35,0l.35-.12a1.52,1.52,0,0,0,.26-.14v-3.46h.92v4.52h-.43a.62.62,0,0,1-.29-.06c-.07,0-.11-.12-.11-.27v-.31l0,.17a2.73,2.73,0,0,1-.42.23,2.78,2.78,0,0,1-.51.17A1.77,1.77,0,0,1,120.4,208.38Z" transform="translate(-20.46 -29.56)"/><path class="cls-4" d="M125.07,208.38a1.49,1.49,0,0,1-.71-.16,1.12,1.12,0,0,1-.49-.45,1.25,1.25,0,0,1-.17-.68,1.12,1.12,0,0,1,.23-.73,1.54,1.54,0,0,1,.61-.47,4.12,4.12,0,0,1,.56-.16l.6-.09.56,0,.19.25-.19.32-.38,0-.43.07a1.52,1.52,0,0,0-.36.12,1,1,0,0,0-.34.24.55.55,0,0,0-.13.4.65.65,0,0,0,.18.5.78.78,0,0,0,.55.18,1.32,1.32,0,0,0,.39-.06,2.52,2.52,0,0,0,.33-.13,1.07,1.07,0,0,0,.19-.12l.18.19-.13.35a1.71,1.71,0,0,1-.51.3A1.94,1.94,0,0,1,125.07,208.38Zm2.11-.07h-.87v-.66h0v-2.46a.54.54,0,0,0-.21-.51,1.08,1.08,0,0,0-.59-.13,3.15,3.15,0,0,0-.52,0,5,5,0,0,0-.49.12,1.61,1.61,0,0,0-.34.15l-.22-.66a2.3,2.3,0,0,1,.36-.16c.17-.06.37-.12.61-.18a3.25,3.25,0,0,1,.69-.08,2.86,2.86,0,0,1,.87.12,1,1,0,0,1,.56.43,1.73,1.73,0,0,1,.2.91Zm-1.9-5-.43-.35c.15-.16.31-.33.46-.51l.46-.57c.15-.19.29-.38.41-.56l.6.49a2.23,2.23,0,0,1-.2.28l-.33.37-.38.37a4.35,4.35,0,0,1-.35.31A1.39,1.39,0,0,1,125.28,203.29Z" transform="translate(-20.46 -29.56)"/><path class="cls-4" d="M128.41,208.31v-4.44h.78l.06.56.08.34v3.54Zm.87-3.27-.06-.61a1,1,0,0,1,.25-.27,1.84,1.84,0,0,1,.46-.26,1.39,1.39,0,0,1,.53-.1h.26a.35.35,0,0,1,.17,0v.87a.5.5,0,0,0-.19-.07,1.24,1.24,0,0,0-.39,0,1.33,1.33,0,0,0-.45.07,1.54,1.54,0,0,0-.34.17A1.83,1.83,0,0,0,129.28,205Z" transform="translate(-20.46 -29.56)"/><path class="cls-4" d="M132.15,203.08a.59.59,0,0,1-.4-.15.49.49,0,0,1-.18-.4.51.51,0,0,1,.1-.32.69.69,0,0,1,.25-.23.61.61,0,0,1,.31-.09.53.53,0,0,1,.58.56.59.59,0,0,1-.2.45A.67.67,0,0,1,132.15,203.08Zm-.41,5.23v-4.44h.92v4.44Z" transform="translate(-20.46 -29.56)"/><path class="cls-4" d="M135.74,208.38a2.2,2.2,0,0,1-.93-.19,1.74,1.74,0,0,1-.61-.53,2.11,2.11,0,0,1-.34-.76,3.84,3.84,0,0,1-.11-.91,2.59,2.59,0,0,1,.29-1.2,1.92,1.92,0,0,1,.73-.74,2.26,2.26,0,0,1,1-.25,1.88,1.88,0,0,1,1.16.33,1.79,1.79,0,0,1,.64.88,3.19,3.19,0,0,1,.18,1.17,2.53,2.53,0,0,1-.28,1.2,1.82,1.82,0,0,1-.73.75A2.14,2.14,0,0,1,135.74,208.38Zm0-.65a.93.93,0,0,0,.83-.42,2.15,2.15,0,0,0,.28-1.17,2.75,2.75,0,0,0-.12-.84,1.36,1.36,0,0,0-.35-.61.88.88,0,0,0-.61-.23.93.93,0,0,0-.82.39,2.09,2.09,0,0,0-.27,1.16,3.24,3.24,0,0,0,.11.85,1.38,1.38,0,0,0,.35.62A.86.86,0,0,0,135.76,207.73Z" transform="translate(-20.46 -29.56)"/><path class="cls-4" d="M138.59,208.05l.13-.68a1.16,1.16,0,0,0,.25.12,3.52,3.52,0,0,0,.45.13,2.08,2.08,0,0,0,.55.07,1.05,1.05,0,0,0,.59-.13.44.44,0,0,0,.2-.38.41.41,0,0,0-.12-.3,1.08,1.08,0,0,0-.33-.24l-.48-.23a4.29,4.29,0,0,1-.64-.36,1.42,1.42,0,0,1-.43-.45,1.21,1.21,0,0,1-.15-.62,1.12,1.12,0,0,1,.23-.66,1.45,1.45,0,0,1,.59-.39,2.39,2.39,0,0,1,.82-.13,2.73,2.73,0,0,1,.74.09,2.44,2.44,0,0,1,.42.14l-.14.7a.86.86,0,0,0-.22-.12,1.62,1.62,0,0,0-.35-.09,1.75,1.75,0,0,0-.4,0,1.24,1.24,0,0,0-.61.12.4.4,0,0,0-.22.33.52.52,0,0,0,.2.44,3.72,3.72,0,0,0,.5.28c.27.13.52.27.74.4a1.66,1.66,0,0,1,.53.44,1,1,0,0,1,.19.62,1.09,1.09,0,0,1-.43.94,1.85,1.85,0,0,1-1.17.33,4,4,0,0,1-.6,0,3.19,3.19,0,0,1-.51-.12A1.26,1.26,0,0,1,138.59,208.05Z" transform="translate(-20.46 -29.56)"/><path class="cls-4" d="M145.59,208.38a1.71,1.71,0,0,1-.87-.23,1.67,1.67,0,0,1-.65-.71,2.59,2.59,0,0,1-.25-1.19,2.87,2.87,0,0,1,.28-1.28,2.18,2.18,0,0,1,.79-.86,2.22,2.22,0,0,1,1.17-.31,2.19,2.19,0,0,1,.69.1,1.19,1.19,0,0,1,.36.17l-.33.58a.79.79,0,0,0-.32-.14,2.07,2.07,0,0,0-.46,0,1,1,0,0,0-.62.19,1.27,1.27,0,0,0-.44.56,2.44,2.44,0,0,0-.17.92,1.89,1.89,0,0,0,.28,1.15,1,1,0,0,0,.79.36,1.25,1.25,0,0,0,.56-.12,1.59,1.59,0,0,0,.38-.22l.16.46-.26.24a1.58,1.58,0,0,1-.43.26A1.75,1.75,0,0,1,145.59,208.38Zm1.24-.07v-.59l-.05,0v-3.15l0,0,0-.88v-1.83h.92v6.5Z" transform="translate(-20.46 -29.56)"/><path class="cls-4" d="M150.74,208.38a1.83,1.83,0,0,1-1.48-.61,2.55,2.55,0,0,1-.52-1.69,2.86,2.86,0,0,1,.23-1.16,1.93,1.93,0,0,1,.68-.81,2,2,0,0,1,1.11-.31,1.89,1.89,0,0,1,.63.1,1.57,1.57,0,0,1,.53.31,1.55,1.55,0,0,1,.36.53,2,2,0,0,1,.14.75v.45a1.78,1.78,0,0,1,0,.35h-3.1l.08-.58h2.2a2.41,2.41,0,0,0,0-.61.83.83,0,0,0-.25-.46.77.77,0,0,0-.56-.18,1,1,0,0,0-.56.17,1.14,1.14,0,0,0-.38.59,3.5,3.5,0,0,0-.12,1.13,1.69,1.69,0,0,0,.21.79,1,1,0,0,0,.47.42,1.71,1.71,0,0,0,.65.12l.37,0a3,3,0,0,0,.43-.09,1.05,1.05,0,0,0,.31-.12l.18.53a1.35,1.35,0,0,1-.4.21,4,4,0,0,1-.55.15A3.9,3.9,0,0,1,150.74,208.38Z" transform="translate(-20.46 -29.56)"/><path class="cls-4" d="M154.58,206.14a3,3,0,0,1,.23-1.19,1.92,1.92,0,0,1,.73-.84,2.18,2.18,0,0,1,1.2-.31,3,3,0,0,1,.71.08,1.53,1.53,0,0,1,.4.15l-.15.73a1.13,1.13,0,0,0-.4-.18,2.37,2.37,0,0,0-.57-.06,1.19,1.19,0,0,0-.58.15,1.15,1.15,0,0,0-.47.46,1.75,1.75,0,0,0-.21.85,2.16,2.16,0,0,0,.15.93,1.22,1.22,0,0,0,.44.57,1.15,1.15,0,0,0,.64.2,2.06,2.06,0,0,0,.62-.09,2,2,0,0,0,.42-.17l.18.53a1.39,1.39,0,0,1-.58.31,2.56,2.56,0,0,1-.79.12,1.9,1.9,0,0,1-1.08-.3,2,2,0,0,1-.67-.8A2.79,2.79,0,0,1,154.58,206.14Z" transform="translate(-20.46 -29.56)"/><path class="cls-4" d="M160.51,208.38a2.12,2.12,0,0,1-.92-.19,1.77,1.77,0,0,1-.62-.53,2.29,2.29,0,0,1-.34-.76,3.85,3.85,0,0,1-.1-.91,2.59,2.59,0,0,1,.28-1.2,2,2,0,0,1,.74-.74,2.25,2.25,0,0,1,1-.25,1.89,1.89,0,0,1,1.17.33,1.84,1.84,0,0,1,.63.88,3.42,3.42,0,0,1,.19,1.17,2.53,2.53,0,0,1-.28,1.2,1.84,1.84,0,0,1-.74.75A2.09,2.09,0,0,1,160.51,208.38Zm0-.65a.92.92,0,0,0,.82-.42,2.07,2.07,0,0,0,.28-1.17,3.11,3.11,0,0,0-.11-.84,1.36,1.36,0,0,0-.35-.61.9.9,0,0,0-.61-.23.91.91,0,0,0-.82.39,2.09,2.09,0,0,0-.28,1.16,2.86,2.86,0,0,0,.12.85,1.37,1.37,0,0,0,.34.62A.87.87,0,0,0,160.54,207.73Z" transform="translate(-20.46 -29.56)"/><path class="cls-4" d="M163.19,206.14a2.84,2.84,0,0,1,.24-1.19,2,2,0,0,1,.72-.84,2.23,2.23,0,0,1,1.2-.31,2.84,2.84,0,0,1,.71.08,1.28,1.28,0,0,1,.4.15l-.14.73a1.22,1.22,0,0,0-.4-.18,2.4,2.4,0,0,0-.58-.06,1.22,1.22,0,0,0-.58.15,1.29,1.29,0,0,0-.47.46,1.87,1.87,0,0,0-.2.85,2.34,2.34,0,0,0,.14.93,1.3,1.3,0,0,0,.45.57,1.1,1.1,0,0,0,.64.2,2,2,0,0,0,.61-.09,2.12,2.12,0,0,0,.43-.17l.18.53a1.39,1.39,0,0,1-.58.31,2.56,2.56,0,0,1-.79.12,1.86,1.86,0,0,1-1.08-.3,1.88,1.88,0,0,1-.67-.8A2.8,2.8,0,0,1,163.19,206.14Z" transform="translate(-20.46 -29.56)"/><path class="cls-4" d="M168.52,208.38a1.46,1.46,0,0,1-.71-.16,1.12,1.12,0,0,1-.49-.45,1.25,1.25,0,0,1-.18-.68,1.18,1.18,0,0,1,.23-.73,1.65,1.65,0,0,1,.62-.47,4.12,4.12,0,0,1,.56-.16l.6-.09.55,0,.19.25-.19.32-.37,0-.43.07a1.52,1.52,0,0,0-.36.12,1,1,0,0,0-.34.24.56.56,0,0,0-.14.4.62.62,0,0,0,.19.5.76.76,0,0,0,.55.18,1.26,1.26,0,0,0,.38-.06,2.2,2.2,0,0,0,.34-.13l.18-.12.19.19-.14.35a1.53,1.53,0,0,1-.5.3A1.94,1.94,0,0,1,168.52,208.38Zm2.11-.07h-.88v-.66h-.05v-2.46a.56.56,0,0,0-.2-.51,1.1,1.1,0,0,0-.59-.13,3.15,3.15,0,0,0-.52,0,5,5,0,0,0-.49.12,1.73,1.73,0,0,0-.35.15l-.21-.66a2.55,2.55,0,0,1,.35-.16l.61-.18a3.42,3.42,0,0,1,.7-.08,2.75,2.75,0,0,1,.86.12,1,1,0,0,1,.57.43,1.73,1.73,0,0,1,.2.91Z" transform="translate(-20.46 -29.56)"/><path class="cls-4" d="M172.19,203.29l-.42-.35.46-.51.46-.57c.14-.19.28-.38.4-.56l.6.49a1.51,1.51,0,0,1-.2.28c-.1.12-.2.24-.33.37l-.37.37-.35.31A1.37,1.37,0,0,1,172.19,203.29Zm-.22,5v-4.44h.92v4.44Z" transform="translate(-20.46 -29.56)"/><path class="cls-4" d="M174.29,208.31v-4.44h.83v.47a3.45,3.45,0,0,1,.41-.24,4.33,4.33,0,0,1,.54-.21,2,2,0,0,1,.58-.09,1.18,1.18,0,0,1,1,.36,2.34,2.34,0,0,1,.31,1.37v2.78h-.93v-2.73a1.59,1.59,0,0,0-.15-.8c-.1-.16-.32-.24-.65-.22a2.3,2.3,0,0,0-.32.05,2.72,2.72,0,0,0-.37.13,2,2,0,0,0-.37.22v3.35Z" transform="translate(-20.46 -29.56)"/><path class="cls-4" d="M180.33,208.38a1.46,1.46,0,0,1-.71-.16,1.12,1.12,0,0,1-.49-.45,1.25,1.25,0,0,1-.18-.68,1.18,1.18,0,0,1,.23-.73,1.57,1.57,0,0,1,.62-.47,4,4,0,0,1,.55-.16l.6-.09.56,0,.19.25-.19.32-.37,0-.43.07a1.26,1.26,0,0,0-.36.12,1,1,0,0,0-.34.24.56.56,0,0,0-.14.4.62.62,0,0,0,.19.5.74.74,0,0,0,.55.18,1.26,1.26,0,0,0,.38-.06,1.75,1.75,0,0,0,.33-.13.78.78,0,0,0,.19-.12l.18.19-.13.35a1.59,1.59,0,0,1-.51.3A1.89,1.89,0,0,1,180.33,208.38Zm2.1-.07h-.87v-.66h-.05v-2.46a.54.54,0,0,0-.21-.51,1,1,0,0,0-.58-.13,3.15,3.15,0,0,0-.52,0,5,5,0,0,0-.49.12,1.73,1.73,0,0,0-.35.15l-.21-.66a2.55,2.55,0,0,1,.35-.16l.61-.18a3.42,3.42,0,0,1,.7-.08,2.75,2.75,0,0,1,.86.12,1,1,0,0,1,.57.43,1.74,1.74,0,0,1,.19.91Z" transform="translate(-20.46 -29.56)"/><path class="cls-4" d="M108.64,219.22a2.18,2.18,0,0,1-.31-.26,3.64,3.64,0,0,1-.46-.52,5,5,0,0,1-.47-.81,5.32,5.32,0,0,1-.38-1.11,6.19,6.19,0,0,1-.14-1.43,5.07,5.07,0,0,1,.14-1.26,5.61,5.61,0,0,1,.37-1.05,5.21,5.21,0,0,1,.46-.82,5.12,5.12,0,0,1,.46-.56,1.49,1.49,0,0,1,.33-.27l.61.32a2.27,2.27,0,0,0-.34.35,4.56,4.56,0,0,0-.94,1.82,5.44,5.44,0,0,0-.21,1.48,5.58,5.58,0,0,0,.09,1.26,5.13,5.13,0,0,0,.3,1,4.36,4.36,0,0,0,.39.75,3.36,3.36,0,0,0,.41.51,2.53,2.53,0,0,0,.3.29Z" transform="translate(-20.46 -29.56)"/><path class="cls-4" d="M110.21,217.91l-.14-.47a7.16,7.16,0,0,0,.76-.57,9.74,9.74,0,0,0,.74-.7,6.61,6.61,0,0,0,.63-.77,4,4,0,0,0,.44-.81,2.11,2.11,0,0,0,.16-.8,1.19,1.19,0,0,0-.26-.82,1,1,0,0,0-.74-.28,1.83,1.83,0,0,0-1.32.55l-.39-.55a2.28,2.28,0,0,1,.42-.35,3.26,3.26,0,0,1,.62-.3,2.62,2.62,0,0,1,.82-.12,1.93,1.93,0,0,1,1,.25,1.5,1.5,0,0,1,.6.65,2.13,2.13,0,0,1,.19.92,2.9,2.9,0,0,1-.29,1.22,4.83,4.83,0,0,1-.8,1.18,6.56,6.56,0,0,1-1.18,1l2.5,0v.78Z" transform="translate(-20.46 -29.56)"/><path class="cls-4" d="M114.6,217.91l1.66-2.38v.26l-1.68-2.33h1l.93,1.42.27.46h-.3l.23-.47.94-1.41h1l-1.69,2.33v-.3l1.72,2.42h-1.06l-1-1.44-.33-.52h.35l-.27.53-.87,1.43Z" transform="translate(-20.46 -29.56)"/><path class="cls-4" d="M119.15,219.33l2.22-7.66h.81L120,219.33Z" transform="translate(-20.46 -29.56)"/><path class="cls-4" d="M122.88,217.65,123,217a1.16,1.16,0,0,0,.25.12,3.27,3.27,0,0,0,.46.13,2,2,0,0,0,.55.07,1,1,0,0,0,.58-.13.44.44,0,0,0,.2-.38.41.41,0,0,0-.12-.3,1.08,1.08,0,0,0-.33-.24l-.48-.23a3.73,3.73,0,0,1-.63-.36,1.23,1.23,0,0,1-.43-.45,1,1,0,0,1-.15-.62,1,1,0,0,1,.23-.66,1.39,1.39,0,0,1,.59-.39,2.35,2.35,0,0,1,.82-.13,2.65,2.65,0,0,1,.73.09,2.44,2.44,0,0,1,.42.14l-.14.7a.72.72,0,0,0-.22-.12,1.53,1.53,0,0,0-.34-.09,1.87,1.87,0,0,0-.4,0,1.26,1.26,0,0,0-.62.12.4.4,0,0,0-.22.33.51.51,0,0,0,.21.44,3.55,3.55,0,0,0,.49.28c.27.13.52.26.74.39a1.83,1.83,0,0,1,.53.45,1,1,0,0,1,.19.62,1.11,1.11,0,0,1-.42.94,1.9,1.9,0,0,1-1.18.33,3.81,3.81,0,0,1-.59,0,3.08,3.08,0,0,1-.52-.12A1.7,1.7,0,0,1,122.88,217.65Z" transform="translate(-20.46 -29.56)"/><path class="cls-4" d="M128.7,218a1.83,1.83,0,0,1-1.48-.61,2.49,2.49,0,0,1-.52-1.69,2.86,2.86,0,0,1,.23-1.16,1.86,1.86,0,0,1,.68-.81,2,2,0,0,1,1.11-.31,1.89,1.89,0,0,1,.63.1,1.53,1.53,0,0,1,.52.31,1.55,1.55,0,0,1,.36.53,2.13,2.13,0,0,1,.15.75v.45a3.09,3.09,0,0,1,0,.35h-3.1l.07-.58h2.21a2.41,2.41,0,0,0,0-.61.8.8,0,0,0-.25-.46.79.79,0,0,0-.56-.18,1,1,0,0,0-.56.17,1.1,1.1,0,0,0-.39.59,3.55,3.55,0,0,0-.11,1.13,1.82,1.82,0,0,0,.2.79,1,1,0,0,0,.48.42,1.67,1.67,0,0,0,.65.12l.37,0a3,3,0,0,0,.43-.09,1.18,1.18,0,0,0,.31-.12l.18.53a1.49,1.49,0,0,1-.4.21,4.14,4.14,0,0,1-.56.15A3.66,3.66,0,0,1,128.7,218Z" transform="translate(-20.46 -29.56)"/><path class="cls-4" d="M131.46,217.91v-4.44h.83v.47a4.5,4.5,0,0,1,.41-.24,4.18,4.18,0,0,1,.53-.21,2.43,2.43,0,0,1,.58-.1,1.45,1.45,0,0,1,.77.15.94.94,0,0,1,.43.55,3.25,3.25,0,0,1,.13,1v2.78h-.92v-2.73a2.38,2.38,0,0,0-.06-.59.54.54,0,0,0-.23-.34.87.87,0,0,0-.49-.08,1.57,1.57,0,0,0-.51.1,1.82,1.82,0,0,0-.55.29v3.35Zm3.64-3.34-.2-.59a2.09,2.09,0,0,1,.41-.26,3,3,0,0,1,.57-.23,2.76,2.76,0,0,1,.63-.1,1.6,1.6,0,0,1,.77.16,1,1,0,0,1,.45.54,3.15,3.15,0,0,1,.14,1v2.79h-.93v-2.73a2.38,2.38,0,0,0-.06-.59.49.49,0,0,0-.22-.34.89.89,0,0,0-.5-.08,1.67,1.67,0,0,0-.53.11A2.1,2.1,0,0,0,135.1,214.57Z" transform="translate(-20.46 -29.56)"/><path class="cls-4" d="M140.19,218a1.46,1.46,0,0,1-.71-.16,1.12,1.12,0,0,1-.49-.45,1.25,1.25,0,0,1-.18-.68A1.18,1.18,0,0,1,139,216a1.57,1.57,0,0,1,.62-.47,4,4,0,0,1,.55-.16c.21,0,.4-.07.6-.09l.56,0,.19.25-.19.32-.37,0-.43.07a1.52,1.52,0,0,0-.36.12,1,1,0,0,0-.34.24.56.56,0,0,0-.14.4.62.62,0,0,0,.19.5.76.76,0,0,0,.55.18,1.26,1.26,0,0,0,.38-.06,2.2,2.2,0,0,0,.34-.13l.18-.12.18.19-.13.35a1.73,1.73,0,0,1-.5.3A2,2,0,0,1,140.19,218Zm2.1-.07h-.87v-.66h0v-2.46a.56.56,0,0,0-.2-.51,1.1,1.1,0,0,0-.59-.13,3.15,3.15,0,0,0-.52,0,3.19,3.19,0,0,0-.49.12,1.73,1.73,0,0,0-.35.15l-.21-.66a2.55,2.55,0,0,1,.35-.16l.61-.18a3.42,3.42,0,0,1,.7-.08,2.75,2.75,0,0,1,.86.12,1,1,0,0,1,.57.43,1.74,1.74,0,0,1,.19.91Z" transform="translate(-20.46 -29.56)"/><path class="cls-4" d="M143.6,217.91v-4.44h.83v.47a2.79,2.79,0,0,1,.41-.24,4.33,4.33,0,0,1,.54-.21,2.27,2.27,0,0,1,.58-.1,1.22,1.22,0,0,1,1,.37,2.32,2.32,0,0,1,.31,1.37v2.78h-.93v-2.73a1.59,1.59,0,0,0-.15-.8c-.1-.16-.32-.24-.65-.22a2.3,2.3,0,0,0-.32.05,2.72,2.72,0,0,0-.37.13,2,2,0,0,0-.37.22v3.35Z" transform="translate(-20.46 -29.56)"/><path class="cls-4" d="M149.63,218a1.46,1.46,0,0,1-.71-.16,1.12,1.12,0,0,1-.49-.45,1.25,1.25,0,0,1-.18-.68,1.18,1.18,0,0,1,.23-.73,1.57,1.57,0,0,1,.62-.47,4.12,4.12,0,0,1,.56-.16,5.58,5.58,0,0,1,.59-.09l.56,0,.19.25-.19.32-.37,0-.43.07a1.52,1.52,0,0,0-.36.12,1,1,0,0,0-.34.24.56.56,0,0,0-.14.4.62.62,0,0,0,.19.5.76.76,0,0,0,.55.18,1.26,1.26,0,0,0,.38-.06,2.2,2.2,0,0,0,.34-.13l.18-.12.19.19-.14.35a1.67,1.67,0,0,1-.51.3A1.89,1.89,0,0,1,149.63,218Zm2.1-.07h-.87v-.66h-.05v-2.46a.54.54,0,0,0-.21-.51,1,1,0,0,0-.58-.13,3.15,3.15,0,0,0-.52,0,3.19,3.19,0,0,0-.49.12,1.73,1.73,0,0,0-.35.15l-.21-.66a2.55,2.55,0,0,1,.35-.16l.61-.18a3.42,3.42,0,0,1,.7-.08,2.75,2.75,0,0,1,.86.12,1,1,0,0,1,.57.43,1.74,1.74,0,0,1,.19.91Z" transform="translate(-20.46 -29.56)"/><path class="cls-4" d="M156.15,218a2.12,2.12,0,0,1-.92-.19,1.69,1.69,0,0,1-.62-.53,2.11,2.11,0,0,1-.34-.76,3.39,3.39,0,0,1-.1-.91,2.47,2.47,0,0,1,.28-1.2,1.82,1.82,0,0,1,.74-.74,2.22,2.22,0,0,1,1-.25,1.91,1.91,0,0,1,1.17.33,1.86,1.86,0,0,1,.63.87,3.28,3.28,0,0,1,.18,1.18,2.42,2.42,0,0,1-.28,1.2,1.82,1.82,0,0,1-.73.75A2.26,2.26,0,0,1,156.15,218Zm0-.65a.92.92,0,0,0,.83-.42,2.07,2.07,0,0,0,.28-1.17,3.11,3.11,0,0,0-.11-.84,1.46,1.46,0,0,0-.35-.61.85.85,0,0,0-.61-.23.88.88,0,0,0-.82.39,2,2,0,0,0-.28,1.16,3.24,3.24,0,0,0,.11.85,1.38,1.38,0,0,0,.35.62A.86.86,0,0,0,156.17,217.33Z" transform="translate(-20.46 -29.56)"/><path class="cls-4" d="M160.52,218a1.55,1.55,0,0,1-.7-.14.91.91,0,0,1-.41-.39,1.76,1.76,0,0,1-.19-.6,6.26,6.26,0,0,1-.05-.78v-2.61h.92v2.6a2.8,2.8,0,0,0,.08.77.46.46,0,0,0,.26.32,1.13,1.13,0,0,0,.45.08,1.48,1.48,0,0,0,.35,0l.35-.12a1.22,1.22,0,0,0,.26-.14v-3.46h.92V218h-.42a.6.6,0,0,1-.29-.06c-.08,0-.11-.12-.11-.27v-.31l0,.17a3.45,3.45,0,0,1-.43.23,3,3,0,0,1-.5.17A1.89,1.89,0,0,1,160.52,218Z" transform="translate(-20.46 -29.56)"/><path class="cls-4" d="M165.58,217.91v-4.44h.83v.47a4.5,4.5,0,0,1,.41-.24,3.66,3.66,0,0,1,.53-.21,2.43,2.43,0,0,1,.58-.1,1.45,1.45,0,0,1,.77.15.94.94,0,0,1,.43.55,3.25,3.25,0,0,1,.13,1v2.78h-.92v-2.73a2.38,2.38,0,0,0-.06-.59.54.54,0,0,0-.23-.34.89.89,0,0,0-.5-.08,1.57,1.57,0,0,0-.5.1,1.82,1.82,0,0,0-.55.29v3.35Zm3.63-3.34L169,214a2.09,2.09,0,0,1,.41-.26,3,3,0,0,1,.57-.23,2.76,2.76,0,0,1,.63-.1,1.6,1.6,0,0,1,.77.16.9.9,0,0,1,.44.54,2.88,2.88,0,0,1,.15,1v2.79h-.93v-2.73a2.38,2.38,0,0,0-.06-.59.49.49,0,0,0-.22-.34.89.89,0,0,0-.5-.08,1.67,1.67,0,0,0-.53.11A2.35,2.35,0,0,0,169.21,214.57Z" transform="translate(-20.46 -29.56)"/><path class="cls-4" d="M174.31,218a1.51,1.51,0,0,1-.71-.16,1.15,1.15,0,0,1-.48-.45,1.25,1.25,0,0,1-.18-.68,1.12,1.12,0,0,1,.23-.73,1.57,1.57,0,0,1,.62-.47,4,4,0,0,1,.55-.16q.3-.06.6-.09l.56,0,.19.25-.19.32-.38,0-.43.07a1.52,1.52,0,0,0-.36.12,1,1,0,0,0-.34.24.55.55,0,0,0-.13.4.65.65,0,0,0,.18.5.79.79,0,0,0,.56.18,1.31,1.31,0,0,0,.38-.06,1.75,1.75,0,0,0,.33-.13.78.78,0,0,0,.19-.12l.18.19-.13.35a2,2,0,0,1-.51.3A1.9,1.9,0,0,1,174.31,218Zm2.11-.07h-.87v-.66h-.05v-2.46a.54.54,0,0,0-.21-.51,1,1,0,0,0-.58-.13,3.15,3.15,0,0,0-.52,0,3.33,3.33,0,0,0-.5.12,1.61,1.61,0,0,0-.34.15l-.22-.66a2.86,2.86,0,0,1,.36-.16l.61-.18a3.25,3.25,0,0,1,.69-.08,2.77,2.77,0,0,1,.87.12,1,1,0,0,1,.56.43,1.64,1.64,0,0,1,.2.91Z" transform="translate(-20.46 -29.56)"/><path class="cls-4" d="M178.17,212.68a.63.63,0,0,1-.41-.15.56.56,0,0,1-.07-.72.69.69,0,0,1,.25-.23.61.61,0,0,1,.31-.09.53.53,0,0,1,.58.56.59.59,0,0,1-.2.45A.67.67,0,0,1,178.17,212.68Zm-.41,5.23v-4.44h.92v4.44Z" transform="translate(-20.46 -29.56)"/><path class="cls-4" d="M179.82,217.65,180,217a1.16,1.16,0,0,0,.25.12,2.77,2.77,0,0,0,.45.13,2,2,0,0,0,.55.07,1.08,1.08,0,0,0,.59-.13.44.44,0,0,0,.2-.38.41.41,0,0,0-.12-.3,1.08,1.08,0,0,0-.33-.24l-.48-.23a4.29,4.29,0,0,1-.64-.36,1.32,1.32,0,0,1-.43-.45,1.21,1.21,0,0,1-.15-.62,1,1,0,0,1,.23-.66,1.45,1.45,0,0,1,.59-.39,2.39,2.39,0,0,1,.82-.13,2.73,2.73,0,0,1,.74.09,2,2,0,0,1,.41.14l-.13.7a.86.86,0,0,0-.22-.12,1.62,1.62,0,0,0-.35-.09,1.75,1.75,0,0,0-.4,0,1.28,1.28,0,0,0-.62.12.39.39,0,0,0-.21.33.5.5,0,0,0,.2.44,4.27,4.27,0,0,0,.49.28q.42.19.75.39a1.66,1.66,0,0,1,.52.45,1,1,0,0,1,.2.62,1.09,1.09,0,0,1-.43.94,1.89,1.89,0,0,1-1.17.33,3.83,3.83,0,0,1-.6,0,3.19,3.19,0,0,1-.51-.12A1.26,1.26,0,0,1,179.82,217.65Z" transform="translate(-20.46 -29.56)"/><path class="cls-4" d="M184.17,211a2.18,2.18,0,0,1,.31.26,4.29,4.29,0,0,1,.46.52,5,5,0,0,1,.47.81,5.76,5.76,0,0,1,.38,1.11,6.86,6.86,0,0,1,.14,1.43,5.07,5.07,0,0,1-.14,1.26,5.61,5.61,0,0,1-.37,1.05,4.79,4.79,0,0,1-.46.82,5.12,5.12,0,0,1-.46.56,1.49,1.49,0,0,1-.33.27l-.61-.31a3.22,3.22,0,0,0,.34-.36,4,4,0,0,0,.5-.72,4.94,4.94,0,0,0,.44-1.1,5.38,5.38,0,0,0,.21-1.48,6.23,6.23,0,0,0-.09-1.26,5.13,5.13,0,0,0-.3-1,4.36,4.36,0,0,0-.39-.75,3.36,3.36,0,0,0-.41-.51,1.76,1.76,0,0,0-.3-.28Z" transform="translate(-20.46 -29.56)"/><path class="cls-4" d="M113.11,253.45a1.77,1.77,0,0,1-.87-.23,1.67,1.67,0,0,1-.65-.71,2.59,2.59,0,0,1-.25-1.19,2.9,2.9,0,0,1,.28-1.28,2.18,2.18,0,0,1,.79-.86,2.22,2.22,0,0,1,1.17-.31,2.31,2.31,0,0,1,.7.1,1.23,1.23,0,0,1,.35.17l-.33.59a.69.69,0,0,0-.31-.15,2.23,2.23,0,0,0-.47,0,1,1,0,0,0-.62.19,1.33,1.33,0,0,0-.44.56,2.26,2.26,0,0,0-.16.92,1.81,1.81,0,0,0,.27,1.15,1,1,0,0,0,.79.36,1.4,1.4,0,0,0,.56-.11,2,2,0,0,0,.38-.23l.16.46c-.07.06-.15.15-.26.24a1.68,1.68,0,0,1-.42.26A1.84,1.84,0,0,1,113.11,253.45Zm1.24-.06v-.6l0,0v-3.15l0,0,0-.88v-1.83h.92v6.51Z" transform="translate(-20.46 -29.56)"/><path class="cls-4" d="M118.26,253.45a1.83,1.83,0,0,1-1.48-.61,2.55,2.55,0,0,1-.52-1.69,2.89,2.89,0,0,1,.23-1.16,1.93,1.93,0,0,1,.68-.81,2,2,0,0,1,1.11-.31,1.89,1.89,0,0,1,.63.1,1.57,1.57,0,0,1,.53.31,1.55,1.55,0,0,1,.36.53,2,2,0,0,1,.14.75V251a1.78,1.78,0,0,1,0,.35h-3.1l.08-.58h2.2a2.41,2.41,0,0,0,0-.61.83.83,0,0,0-.25-.46.77.77,0,0,0-.56-.18,1,1,0,0,0-.56.17,1.14,1.14,0,0,0-.38.59,3.28,3.28,0,0,0-.11,1.13,1.58,1.58,0,0,0,.2.79,1,1,0,0,0,.47.42,1.71,1.71,0,0,0,.65.12l.38,0,.42-.09a1,1,0,0,0,.32-.12l.17.53a1.35,1.35,0,0,1-.4.21,3,3,0,0,1-.55.15A3.9,3.9,0,0,1,118.26,253.45Z" transform="translate(-20.46 -29.56)"/><path class="cls-4" d="M121,255.36v-6.43h.84v.54l.08.1v5.79Zm1.65-1.91a1.94,1.94,0,0,1-.69-.1,2.08,2.08,0,0,1-.36-.17l.32-.59a.84.84,0,0,0,.33.15,2,2,0,0,0,.46,0,1,1,0,0,0,.62-.2,1.29,1.29,0,0,0,.44-.57,2.42,2.42,0,0,0,.17-.91,1.89,1.89,0,0,0-.28-1.16,1,1,0,0,0-.8-.36,1.38,1.38,0,0,0-.55.11,3.1,3.1,0,0,0-.39.23l-.14-.45a2,2,0,0,1,.25-.24,1.58,1.58,0,0,1,.43-.26,1.87,1.87,0,0,1,1.53.12,1.7,1.7,0,0,1,.65.7,2.63,2.63,0,0,1,.24,1.19,2.87,2.87,0,0,1-.27,1.28,2.08,2.08,0,0,1-2,1.18Z" transform="translate(-20.46 -29.56)"/><path class="cls-4" d="M127.62,253.45a1.83,1.83,0,0,1-1.48-.61,2.55,2.55,0,0,1-.52-1.69,2.89,2.89,0,0,1,.23-1.16,1.93,1.93,0,0,1,.68-.81,2,2,0,0,1,1.11-.31,1.89,1.89,0,0,1,.63.1,1.57,1.57,0,0,1,.53.31,1.55,1.55,0,0,1,.36.53,2,2,0,0,1,.14.75V251a1.78,1.78,0,0,1,0,.35h-3.1l.08-.58h2.2a2.41,2.41,0,0,0,0-.61.83.83,0,0,0-.25-.46.77.77,0,0,0-.56-.18,1,1,0,0,0-.56.17,1.14,1.14,0,0,0-.38.59,3.28,3.28,0,0,0-.11,1.13,1.58,1.58,0,0,0,.2.79,1,1,0,0,0,.47.42,1.71,1.71,0,0,0,.65.12l.38,0,.42-.09a1,1,0,0,0,.32-.12l.17.53a1.35,1.35,0,0,1-.4.21,3,3,0,0,1-.55.15A3.9,3.9,0,0,1,127.62,253.45Z" transform="translate(-20.46 -29.56)"/><path class="cls-4" d="M130.38,253.39v-4.45h.83v.47a4.11,4.11,0,0,1,.41-.24,4.33,4.33,0,0,1,.54-.21,2,2,0,0,1,.58-.09,1.19,1.19,0,0,1,1,.37,2.3,2.3,0,0,1,.31,1.37v2.78h-.93v-2.74a1.59,1.59,0,0,0-.15-.8c-.1-.16-.32-.23-.65-.22a2.3,2.3,0,0,0-.32.05,2.79,2.79,0,0,0-.37.14,2,2,0,0,0-.37.21v3.36Z" transform="translate(-20.46 -29.56)"/><path class="cls-4" d="M136.88,253.45a1.71,1.71,0,0,1-.87-.23,1.67,1.67,0,0,1-.65-.71,2.47,2.47,0,0,1-.25-1.19,2.9,2.9,0,0,1,.28-1.28,2.24,2.24,0,0,1,.78-.86,2.28,2.28,0,0,1,1.18-.31,2.19,2.19,0,0,1,.69.1,1.19,1.19,0,0,1,.36.17l-.33.59a.68.68,0,0,0-.32-.15,2.17,2.17,0,0,0-.47,0,1,1,0,0,0-.61.19,1.33,1.33,0,0,0-.44.56,2.44,2.44,0,0,0-.17.92,1.87,1.87,0,0,0,.28,1.15.93.93,0,0,0,.79.36,1.4,1.4,0,0,0,.56-.11,2.35,2.35,0,0,0,.38-.23l.15.46-.25.24a1.58,1.58,0,0,1-.43.26A1.75,1.75,0,0,1,136.88,253.45Zm1.24-.06v-.6l-.05,0v-3.15l0,0,0-.88v-1.83H139v6.51Z" transform="translate(-20.46 -29.56)"/><path class="cls-4" d="M142,253.45a1.83,1.83,0,0,1-1.48-.61,2.55,2.55,0,0,1-.52-1.69,2.89,2.89,0,0,1,.23-1.16,1.93,1.93,0,0,1,.68-.81,2,2,0,0,1,1.11-.31,1.89,1.89,0,0,1,.63.1,1.49,1.49,0,0,1,.89.84,2.44,2.44,0,0,1,.14.75V251a1.78,1.78,0,0,1,0,.35h-3.1l.08-.58h2.2a2.41,2.41,0,0,0,0-.61.83.83,0,0,0-.25-.46.77.77,0,0,0-.56-.18,1,1,0,0,0-.56.17,1.09,1.09,0,0,0-.38.59,3.24,3.24,0,0,0-.12,1.13,1.69,1.69,0,0,0,.21.79,1,1,0,0,0,.47.42,1.67,1.67,0,0,0,.65.12l.37,0a3,3,0,0,0,.43-.09.83.83,0,0,0,.31-.12l.18.53a1.35,1.35,0,0,1-.4.21,3,3,0,0,1-.55.15A3.9,3.9,0,0,1,142,253.45Zm-1-5-.44-.24,1.12-1.37h.73l1.08,1.37-.48.24-1-.86Z" transform="translate(-20.46 -29.56)"/><path class="cls-4" d="M144.79,253.39v-4.45h.83v.47l.42-.24a3.38,3.38,0,0,1,.54-.21,1.9,1.9,0,0,1,.58-.09,1.16,1.16,0,0,1,1,.37,2.22,2.22,0,0,1,.32,1.37v2.78h-.93v-2.74a1.59,1.59,0,0,0-.15-.8c-.1-.16-.32-.23-.65-.22a2.09,2.09,0,0,0-.32.05,2.92,2.92,0,0,0-.38.14,2.24,2.24,0,0,0-.36.21v3.36Z" transform="translate(-20.46 -29.56)"/><path class="cls-4" d="M149.47,251.21a2.84,2.84,0,0,1,.24-1.19,2,2,0,0,1,.72-.84,2.23,2.23,0,0,1,1.2-.31,2.84,2.84,0,0,1,.71.08,1.28,1.28,0,0,1,.4.15l-.14.73a1.22,1.22,0,0,0-.4-.18,2.4,2.4,0,0,0-.58-.06,1.22,1.22,0,0,0-.58.15,1.16,1.16,0,0,0-.46.47,1.68,1.68,0,0,0-.21.84,2.34,2.34,0,0,0,.14.93,1.3,1.3,0,0,0,.45.57,1.1,1.1,0,0,0,.64.2,2,2,0,0,0,.61-.09,1.66,1.66,0,0,0,.43-.17l.18.54a1.5,1.5,0,0,1-.58.3,2.56,2.56,0,0,1-.79.12,1.88,1.88,0,0,1-1.08-.3,1.82,1.82,0,0,1-.67-.8A2.8,2.8,0,0,1,149.47,251.21Z" transform="translate(-20.46 -29.56)"/><path class="cls-4" d="M154.18,248.15a.59.59,0,0,1-.4-.15.49.49,0,0,1-.18-.4.58.58,0,0,1,.1-.32.92.92,0,0,1,.25-.23.61.61,0,0,1,.32-.08.54.54,0,0,1,.43.16.56.56,0,0,1,.14.39.59.59,0,0,1-.2.45A.65.65,0,0,1,154.18,248.15Zm-.4,5.24v-4.45h.92v4.45Z" transform="translate(-20.46 -29.56)"/><path class="cls-4" d="M157.16,253.45a1.49,1.49,0,0,1-.71-.16,1.12,1.12,0,0,1-.49-.45,1.25,1.25,0,0,1-.18-.68,1.18,1.18,0,0,1,.23-.73,1.53,1.53,0,0,1,.62-.46,3.06,3.06,0,0,1,.56-.17q.3-.06.6-.09a5.34,5.34,0,0,1,.55,0l.2.24-.2.32-.37,0a3,3,0,0,0-.43.06,1.52,1.52,0,0,0-.36.12,1,1,0,0,0-.34.24.56.56,0,0,0-.14.4.66.66,0,0,0,.19.51.8.8,0,0,0,.55.17,1.21,1.21,0,0,0,.38-.06,2.2,2.2,0,0,0,.34-.13.46.46,0,0,0,.18-.12l.19.2-.13.34a1.71,1.71,0,0,1-.51.3A1.94,1.94,0,0,1,157.16,253.45Zm2.11-.06h-.87v-.67h-.06v-2.45a.58.58,0,0,0-.2-.52,1.1,1.1,0,0,0-.59-.13,3.15,3.15,0,0,0-.52,0,4.93,4.93,0,0,0-.49.13,1.22,1.22,0,0,0-.34.15l-.22-.67a1.85,1.85,0,0,1,.35-.15,5.15,5.15,0,0,1,.62-.19,3.25,3.25,0,0,1,.69-.08,2.75,2.75,0,0,1,.86.12,1,1,0,0,1,.57.43,1.73,1.73,0,0,1,.2.91Z" transform="translate(-20.46 -29.56)"/><path class="cls-4" d="M163.72,253.45a1.83,1.83,0,0,1-1.48-.61,2.49,2.49,0,0,1-.52-1.69A2.89,2.89,0,0,1,162,250a1.86,1.86,0,0,1,.68-.81,2,2,0,0,1,1.11-.31,1.89,1.89,0,0,1,.63.1,1.53,1.53,0,0,1,.52.31,1.55,1.55,0,0,1,.36.53,2.17,2.17,0,0,1,.15.75V251a3.09,3.09,0,0,1,0,.35h-3.11l.08-.58h2.21a2.41,2.41,0,0,0,0-.61.83.83,0,0,0-.25-.46.79.79,0,0,0-.56-.18,1,1,0,0,0-.56.17,1.1,1.1,0,0,0-.39.59,3.55,3.55,0,0,0-.11,1.13,1.69,1.69,0,0,0,.2.79,1,1,0,0,0,.48.42,1.67,1.67,0,0,0,.65.12l.37,0a3,3,0,0,0,.43-.09.91.91,0,0,0,.31-.12l.18.53a1.42,1.42,0,0,1-.41.21,2.75,2.75,0,0,1-.55.15A3.66,3.66,0,0,1,163.72,253.45Z" transform="translate(-20.46 -29.56)"/><path class="cls-4" d="M166.48,253.39v-4.45h.83v.47l.41-.24a4.33,4.33,0,0,1,.54-.21,2,2,0,0,1,.58-.09,1.18,1.18,0,0,1,1,.37,2.23,2.23,0,0,1,.31,1.37v2.78h-.93v-2.74a1.61,1.61,0,0,0-.14-.8c-.11-.16-.32-.23-.65-.22a2.21,2.21,0,0,0-.33.05,3.44,3.44,0,0,0-.37.14,1.62,1.62,0,0,0-.36.21v3.36Z" transform="translate(-20.46 -29.56)"/><path class="cls-4" d="M172.77,253.45a1.4,1.4,0,0,1-.56-.1.74.74,0,0,1-.37-.35,1.57,1.57,0,0,1-.14-.73v-2.66h-.57v-.5l.45-.14a.41.41,0,0,0,.23-.25l.07-.21c0-.08.05-.17.09-.27s.06-.21.1-.33h.55v1h1.25v.68h-1.25v2.18a4.49,4.49,0,0,0,0,.63.35.35,0,0,0,.14.25.89.89,0,0,0,.32.05l.26,0,.28-.07.2-.08.15.52a1.52,1.52,0,0,1-.32.18,1.89,1.89,0,0,1-.44.14A2,2,0,0,1,172.77,253.45Z" transform="translate(-20.46 -29.56)"/><path class="cls-4" d="M174.83,253.39v-4.45h.78l.07.57.07.33v3.55Zm.87-3.28,0-.6a.77.77,0,0,1,.25-.28,2.42,2.42,0,0,1,.45-.26,1.47,1.47,0,0,1,.54-.1h.26a.46.46,0,0,1,.16,0v.87a.52.52,0,0,0-.18-.07,1.28,1.28,0,0,0-.4,0,1.5,1.5,0,0,0-.44.07,2.28,2.28,0,0,0-.35.17A1.83,1.83,0,0,0,175.7,250.11Z" transform="translate(-20.46 -29.56)"/><path class="cls-4" d="M179.76,253.45a1.83,1.83,0,0,1-1.48-.61,2.49,2.49,0,0,1-.52-1.69A2.89,2.89,0,0,1,178,250a1.86,1.86,0,0,1,.68-.81,2,2,0,0,1,1.11-.31,1.89,1.89,0,0,1,.63.1,1.53,1.53,0,0,1,.52.31,1.55,1.55,0,0,1,.36.53,2.17,2.17,0,0,1,.15.75V251a3.09,3.09,0,0,1,0,.35h-3.11l.09-.58h2.2a2.41,2.41,0,0,0,0-.61.83.83,0,0,0-.25-.46.79.79,0,0,0-.56-.18,1,1,0,0,0-.56.17,1.1,1.1,0,0,0-.39.59,3.55,3.55,0,0,0-.11,1.13,1.58,1.58,0,0,0,.21.79,1,1,0,0,0,.47.42,1.67,1.67,0,0,0,.65.12l.37,0a3,3,0,0,0,.43-.09.91.91,0,0,0,.31-.12l.18.53a1.42,1.42,0,0,1-.41.21,2.75,2.75,0,0,1-.55.15A3.66,3.66,0,0,1,179.76,253.45Z" transform="translate(-20.46 -29.56)"/><path class="cls-4" d="M111.7,263.05a1.45,1.45,0,0,1-.71-.14,1,1,0,0,1-.41-.39,1.92,1.92,0,0,1-.19-.6,6.26,6.26,0,0,1,0-.78v-2.61h.92v2.6a2.51,2.51,0,0,0,.09.78.5.5,0,0,0,.25.32,1.44,1.44,0,0,0,.46.07,1.63,1.63,0,0,0,.35-.05,2.06,2.06,0,0,0,.35-.12A2,2,0,0,0,113,262v-3.46h.92v4.52h-.43a.76.76,0,0,1-.29-.05c-.07,0-.11-.13-.11-.28v-.31l0,.18a2.73,2.73,0,0,1-.42.22,3.05,3.05,0,0,1-.51.17A1.82,1.82,0,0,1,111.7,263.05Z" transform="translate(-20.46 -29.56)"/><path class="cls-4" d="M115,262.72l.13-.68a1.16,1.16,0,0,0,.25.12,3,3,0,0,0,.45.14,2.51,2.51,0,0,0,.55.06,1,1,0,0,0,.59-.13.45.45,0,0,0,.08-.68,1.57,1.57,0,0,0-.33-.24l-.48-.23a5.41,5.41,0,0,1-.64-.35,1.57,1.57,0,0,1-.43-.46,1.21,1.21,0,0,1-.15-.62,1.12,1.12,0,0,1,.23-.66,1.45,1.45,0,0,1,.59-.39,2.66,2.66,0,0,1,.82-.13,2.73,2.73,0,0,1,.74.09,1.82,1.82,0,0,1,.41.15l-.13.69a.86.86,0,0,0-.22-.12,2.53,2.53,0,0,0-.35-.09,2.58,2.58,0,0,0-.4,0,1.22,1.22,0,0,0-.61.12.38.38,0,0,0-.22.33.49.49,0,0,0,.2.44,3.72,3.72,0,0,0,.5.28c.27.14.52.27.74.4a1.8,1.8,0,0,1,.53.44,1,1,0,0,1,.19.62,1.12,1.12,0,0,1-.43,1,1.91,1.91,0,0,1-1.17.32,3.83,3.83,0,0,1-.6-.05,3.19,3.19,0,0,1-.51-.12A1,1,0,0,1,115,262.72Z" transform="translate(-20.46 -29.56)"/><path class="cls-4" d="M120.4,263.05a1.47,1.47,0,0,1-.71-.14.94.94,0,0,1-.4-.39,1.51,1.51,0,0,1-.19-.6,4.8,4.8,0,0,1,0-.78v-2.61H120v2.6a2.57,2.57,0,0,0,.08.78.5.5,0,0,0,.25.32,1.44,1.44,0,0,0,.46.07,1.55,1.55,0,0,0,.35-.05,2.06,2.06,0,0,0,.35-.12,1.52,1.52,0,0,0,.26-.14v-3.46h.92v4.52h-.43a.79.79,0,0,1-.29-.05c-.07,0-.11-.13-.11-.28v-.31l0,.18a2.73,2.73,0,0,1-.42.22,2.78,2.78,0,0,1-.51.17A1.77,1.77,0,0,1,120.4,263.05Z" transform="translate(-20.46 -29.56)"/><path class="cls-4" d="M125.07,263.05a1.49,1.49,0,0,1-.71-.16,1.12,1.12,0,0,1-.49-.45,1.25,1.25,0,0,1-.17-.68,1.12,1.12,0,0,1,.23-.73,1.43,1.43,0,0,1,.61-.46,3.06,3.06,0,0,1,.56-.17l.6-.09.56,0,.19.24-.19.32-.38,0a3.18,3.18,0,0,0-.43.06,1.52,1.52,0,0,0-.36.12,1,1,0,0,0-.34.24.55.55,0,0,0-.13.4.69.69,0,0,0,.18.51.82.82,0,0,0,.55.17,1.32,1.32,0,0,0,.39-.06,1.62,1.62,0,0,0,.33-.13.52.52,0,0,0,.19-.12l.18.2-.13.34a1.71,1.71,0,0,1-.51.3A1.94,1.94,0,0,1,125.07,263.05Zm2.11-.06h-.87v-.67h0v-2.45a.56.56,0,0,0-.21-.52,1.08,1.08,0,0,0-.59-.13,3.15,3.15,0,0,0-.52,0,4.93,4.93,0,0,0-.49.13,1.61,1.61,0,0,0-.34.15l-.22-.67a1.74,1.74,0,0,1,.36-.15,4.46,4.46,0,0,1,.61-.19,3.25,3.25,0,0,1,.69-.08,2.86,2.86,0,0,1,.87.12,1,1,0,0,1,.56.43,1.73,1.73,0,0,1,.2.91Zm-1.9-5-.43-.35c.15-.16.31-.33.46-.51s.31-.37.46-.57.29-.38.41-.56l.6.49a2.23,2.23,0,0,1-.2.28l-.33.37-.38.37a3,3,0,0,1-.35.31A1.39,1.39,0,0,1,125.28,258Z" transform="translate(-20.46 -29.56)"/><path class="cls-4" d="M128.41,263v-4.45h.78l.06.57.08.33V263Zm.87-3.28-.06-.6a.88.88,0,0,1,.25-.28,2.22,2.22,0,0,1,.46-.26,1.39,1.39,0,0,1,.53-.1h.26a.53.53,0,0,1,.17,0v.87a.77.77,0,0,0-.19-.07,1.24,1.24,0,0,0-.39,0,1.63,1.63,0,0,0-.45.07,2.15,2.15,0,0,0-.34.17A1.83,1.83,0,0,0,129.28,259.71Z" transform="translate(-20.46 -29.56)"/><path class="cls-4" d="M132.15,257.75a.59.59,0,0,1-.4-.15.49.49,0,0,1-.18-.4.51.51,0,0,1,.1-.32.79.79,0,0,1,.25-.23.6.6,0,0,1,.31-.08.53.53,0,0,1,.58.55.59.59,0,0,1-.2.45A.67.67,0,0,1,132.15,257.75Zm-.41,5.24v-4.45h.92V263Z" transform="translate(-20.46 -29.56)"/><path class="cls-4" d="M135.74,263.05a2.06,2.06,0,0,1-.93-.19,1.64,1.64,0,0,1-.61-.53,2.11,2.11,0,0,1-.34-.76,3.76,3.76,0,0,1-.11-.9,2.6,2.6,0,0,1,.29-1.21,1.92,1.92,0,0,1,.73-.74,2.26,2.26,0,0,1,1-.25,1.88,1.88,0,0,1,1.16.33,1.84,1.84,0,0,1,.64.88,3.19,3.19,0,0,1,.18,1.17,2.6,2.6,0,0,1-.28,1.21,1.86,1.86,0,0,1-.73.74A2.14,2.14,0,0,1,135.74,263.05Zm0-.65a.91.91,0,0,0,.83-.42,2.15,2.15,0,0,0,.28-1.17,2.8,2.8,0,0,0-.12-.84,1.28,1.28,0,0,0-.35-.6.84.84,0,0,0-.61-.24.93.93,0,0,0-.82.4,2.06,2.06,0,0,0-.27,1.15,3.24,3.24,0,0,0,.11.85,1.38,1.38,0,0,0,.35.62A.86.86,0,0,0,135.76,262.4Z" transform="translate(-20.46 -29.56)"/><path class="cls-4" d="M138.59,262.72l.13-.68a1.16,1.16,0,0,0,.25.12,3.45,3.45,0,0,0,.45.14,2.57,2.57,0,0,0,.55.06,1,1,0,0,0,.59-.13.45.45,0,0,0,.08-.68,1.57,1.57,0,0,0-.33-.24l-.48-.23a5.41,5.41,0,0,1-.64-.35,1.57,1.57,0,0,1-.43-.46,1.21,1.21,0,0,1-.15-.62,1.12,1.12,0,0,1,.23-.66,1.45,1.45,0,0,1,.59-.39,2.66,2.66,0,0,1,.82-.13,2.73,2.73,0,0,1,.74.09,2.23,2.23,0,0,1,.42.15l-.14.69a.86.86,0,0,0-.22-.12,2.53,2.53,0,0,0-.35-.09,2.58,2.58,0,0,0-.4,0,1.24,1.24,0,0,0-.61.12.4.4,0,0,0-.22.33.52.52,0,0,0,.2.44,3.72,3.72,0,0,0,.5.28c.27.14.52.27.74.4a1.8,1.8,0,0,1,.53.44,1,1,0,0,1,.19.62,1.12,1.12,0,0,1-.43,1,1.91,1.91,0,0,1-1.17.32,4,4,0,0,1-.6-.05,3.19,3.19,0,0,1-.51-.12A1,1,0,0,1,138.59,262.72Z" transform="translate(-20.46 -29.56)"/><path class="cls-4" d="M145.59,263.05a1.71,1.71,0,0,1-.87-.23,1.67,1.67,0,0,1-.65-.71,2.59,2.59,0,0,1-.25-1.19,2.9,2.9,0,0,1,.28-1.28,2.18,2.18,0,0,1,.79-.86,2.22,2.22,0,0,1,1.17-.31,2.19,2.19,0,0,1,.69.1,1.19,1.19,0,0,1,.36.17l-.33.59a.68.68,0,0,0-.32-.15,2.92,2.92,0,0,0-.46,0,1.11,1.11,0,0,0-.62.19,1.33,1.33,0,0,0-.44.56,2.48,2.48,0,0,0-.17.92,1.87,1.87,0,0,0,.28,1.15,1,1,0,0,0,.79.36,1.4,1.4,0,0,0,.56-.11,2,2,0,0,0,.38-.23l.16.46a3.33,3.33,0,0,1-.26.24,1.58,1.58,0,0,1-.43.26A1.75,1.75,0,0,1,145.59,263.05Zm1.24-.06v-.6l-.05,0v-3.15l0,0,0-.88v-1.83h.92V263Z" transform="translate(-20.46 -29.56)"/><path class="cls-4" d="M150.74,263.05a1.83,1.83,0,0,1-1.48-.61,2.55,2.55,0,0,1-.52-1.69,2.89,2.89,0,0,1,.23-1.16,1.93,1.93,0,0,1,.68-.81,2,2,0,0,1,1.11-.31,1.89,1.89,0,0,1,.63.1,1.57,1.57,0,0,1,.53.31,1.55,1.55,0,0,1,.36.53,2,2,0,0,1,.14.75v.45a1.78,1.78,0,0,1,0,.35h-3.1l.08-.58h2.2a2.44,2.44,0,0,0,0-.61.83.83,0,0,0-.25-.46.77.77,0,0,0-.56-.18,1,1,0,0,0-.56.17,1.19,1.19,0,0,0-.38.59,3.54,3.54,0,0,0-.12,1.13,1.69,1.69,0,0,0,.21.79,1,1,0,0,0,.47.42,1.71,1.71,0,0,0,.65.12l.37,0a3,3,0,0,0,.43-.09.83.83,0,0,0,.31-.12l.18.53a1.35,1.35,0,0,1-.4.21,3,3,0,0,1-.55.15A3.9,3.9,0,0,1,150.74,263.05Z" transform="translate(-20.46 -29.56)"/><path class="cls-4" d="M154.58,260.81a3,3,0,0,1,.23-1.19,1.92,1.92,0,0,1,.73-.84,2.18,2.18,0,0,1,1.2-.31,3,3,0,0,1,.71.08,1.53,1.53,0,0,1,.4.15l-.15.73a1.13,1.13,0,0,0-.4-.18,2.37,2.37,0,0,0-.57-.06,1.19,1.19,0,0,0-.58.15,1.12,1.12,0,0,0-.47.47,1.68,1.68,0,0,0-.21.84,2.16,2.16,0,0,0,.15.93,1.22,1.22,0,0,0,.44.57,1.15,1.15,0,0,0,.64.2,2.06,2.06,0,0,0,.62-.09,1.57,1.57,0,0,0,.42-.17l.18.54a1.5,1.5,0,0,1-.58.3,2.56,2.56,0,0,1-.79.12,1.82,1.82,0,0,1-1.75-1.1A2.76,2.76,0,0,1,154.58,260.81Z" transform="translate(-20.46 -29.56)"/><path class="cls-4" d="M160.51,263.05a2,2,0,0,1-.92-.19,1.67,1.67,0,0,1-.62-.53,2.29,2.29,0,0,1-.34-.76,3.76,3.76,0,0,1-.1-.9,2.6,2.6,0,0,1,.28-1.21,2,2,0,0,1,.74-.74,2.25,2.25,0,0,1,1-.25,1.74,1.74,0,0,1,1.8,1.21,3.42,3.42,0,0,1,.19,1.17,2.6,2.6,0,0,1-.28,1.21,1.88,1.88,0,0,1-.74.74A2.09,2.09,0,0,1,160.51,263.05Zm0-.65a.9.9,0,0,0,.82-.42,2.07,2.07,0,0,0,.28-1.17,3.16,3.16,0,0,0-.11-.84,1.28,1.28,0,0,0-.35-.6.86.86,0,0,0-.61-.24.92.92,0,0,0-.82.4,2.05,2.05,0,0,0-.28,1.15,2.86,2.86,0,0,0,.12.85,1.37,1.37,0,0,0,.34.62A.87.87,0,0,0,160.54,262.4Z" transform="translate(-20.46 -29.56)"/><path class="cls-4" d="M163.19,260.81a2.84,2.84,0,0,1,.24-1.19,2,2,0,0,1,.72-.84,2.23,2.23,0,0,1,1.2-.31,2.84,2.84,0,0,1,.71.08,1.28,1.28,0,0,1,.4.15l-.14.73a1.22,1.22,0,0,0-.4-.18,2.4,2.4,0,0,0-.58-.06,1.22,1.22,0,0,0-.58.15,1.24,1.24,0,0,0-.47.47,1.79,1.79,0,0,0-.2.84,2.34,2.34,0,0,0,.14.93,1.3,1.3,0,0,0,.45.57,1.1,1.1,0,0,0,.64.2,2,2,0,0,0,.61-.09,1.66,1.66,0,0,0,.43-.17l.18.54a1.5,1.5,0,0,1-.58.3,2.56,2.56,0,0,1-.79.12,1.86,1.86,0,0,1-1.08-.3,1.82,1.82,0,0,1-.67-.8A2.76,2.76,0,0,1,163.19,260.81Z" transform="translate(-20.46 -29.56)"/><path class="cls-4" d="M168.52,263.05a1.46,1.46,0,0,1-.71-.16,1.12,1.12,0,0,1-.49-.45,1.25,1.25,0,0,1-.18-.68,1.18,1.18,0,0,1,.23-.73,1.53,1.53,0,0,1,.62-.46,3.06,3.06,0,0,1,.56-.17l.6-.09.55,0,.19.24-.19.32-.37,0a3,3,0,0,0-.43.06,1.52,1.52,0,0,0-.36.12,1,1,0,0,0-.34.24.56.56,0,0,0-.14.4.66.66,0,0,0,.19.51.8.8,0,0,0,.55.17,1.26,1.26,0,0,0,.38-.06,1.51,1.51,0,0,0,.34-.13.46.46,0,0,0,.18-.12l.19.2-.14.34a1.53,1.53,0,0,1-.5.3A1.94,1.94,0,0,1,168.52,263.05Zm2.11-.06h-.88v-.67h-.05v-2.45a.58.58,0,0,0-.2-.52,1.1,1.1,0,0,0-.59-.13,3.15,3.15,0,0,0-.52,0,4.93,4.93,0,0,0-.49.13,1.73,1.73,0,0,0-.35.15l-.21-.67a1.85,1.85,0,0,1,.35-.15,5.56,5.56,0,0,1,.61-.19,3.42,3.42,0,0,1,.7-.08,2.75,2.75,0,0,1,.86.12,1,1,0,0,1,.57.43,1.73,1.73,0,0,1,.2.91Z" transform="translate(-20.46 -29.56)"/><path class="cls-4" d="M172.19,258l-.42-.35.46-.51c.15-.19.31-.37.46-.57s.28-.38.4-.56l.6.49a1.51,1.51,0,0,1-.2.28c-.1.12-.2.24-.33.37l-.37.37a4.12,4.12,0,0,1-.35.31A1.37,1.37,0,0,1,172.19,258Zm-.22,5v-4.45h.92V263Z" transform="translate(-20.46 -29.56)"/><path class="cls-4" d="M174.29,263v-4.45h.83V259l.41-.24a4.33,4.33,0,0,1,.54-.21,2,2,0,0,1,.58-.09,1.18,1.18,0,0,1,1,.37,2.3,2.3,0,0,1,.31,1.37V263h-.93v-2.74a1.59,1.59,0,0,0-.15-.8c-.1-.16-.32-.23-.65-.22a2.3,2.3,0,0,0-.32,0,2.79,2.79,0,0,0-.37.14,2,2,0,0,0-.37.21V263Z" transform="translate(-20.46 -29.56)"/><path class="cls-4" d="M180.33,263.05a1.46,1.46,0,0,1-.71-.16,1.12,1.12,0,0,1-.49-.45,1.25,1.25,0,0,1-.18-.68,1.18,1.18,0,0,1,.23-.73,1.47,1.47,0,0,1,.62-.46,3,3,0,0,1,.55-.17l.6-.09.56,0,.19.24-.19.32-.37,0a3,3,0,0,0-.43.06,1.26,1.26,0,0,0-.36.12,1,1,0,0,0-.34.24.56.56,0,0,0-.14.4.66.66,0,0,0,.19.51.79.79,0,0,0,.55.17,1.69,1.69,0,0,0,.71-.19.44.44,0,0,0,.19-.12l.18.2-.13.34a1.59,1.59,0,0,1-.51.3A1.89,1.89,0,0,1,180.33,263.05Zm2.1-.06h-.87v-.67h-.05v-2.45a.56.56,0,0,0-.21-.52,1,1,0,0,0-.58-.13,3.15,3.15,0,0,0-.52,0,4.93,4.93,0,0,0-.49.13,1.73,1.73,0,0,0-.35.15l-.21-.67a1.85,1.85,0,0,1,.35-.15,5,5,0,0,1,.61-.19,3.42,3.42,0,0,1,.7-.08,2.75,2.75,0,0,1,.86.12,1,1,0,0,1,.57.43,1.74,1.74,0,0,1,.19.91Z" transform="translate(-20.46 -29.56)"/><path class="cls-4" d="M125.71,273.89a1.94,1.94,0,0,1-.31-.25,4.49,4.49,0,0,1-.46-.53,5.29,5.29,0,0,1-.47-.8,5.16,5.16,0,0,1-.37-1.11,6.28,6.28,0,0,1-.15-1.43,5.61,5.61,0,0,1,.14-1.27,6.17,6.17,0,0,1,.37-1.05,4.9,4.9,0,0,1,.47-.82,4,4,0,0,1,.45-.55,1.61,1.61,0,0,1,.33-.28l.61.32a2.88,2.88,0,0,0-.34.35,4.24,4.24,0,0,0-.49.72,4.5,4.5,0,0,0-.45,1.1,5.44,5.44,0,0,0-.21,1.48,6.17,6.17,0,0,0,.09,1.26,5.66,5.66,0,0,0,.3,1,3.76,3.76,0,0,0,.4.75,3.36,3.36,0,0,0,.4.51,3.64,3.64,0,0,0,.3.29Z" transform="translate(-20.46 -29.56)"/><path class="cls-4" d="M128.8,272.65a1.83,1.83,0,0,1-1.48-.61,2.49,2.49,0,0,1-.52-1.69,2.89,2.89,0,0,1,.23-1.16,1.86,1.86,0,0,1,.68-.81,2,2,0,0,1,1.11-.31,1.89,1.89,0,0,1,.63.1,1.53,1.53,0,0,1,.52.31,1.55,1.55,0,0,1,.36.53,2.17,2.17,0,0,1,.15.75v.45a3.09,3.09,0,0,1,0,.35h-3.1l.08-.58h2.2a2.41,2.41,0,0,0,0-.61.83.83,0,0,0-.25-.46.79.79,0,0,0-.56-.18,1,1,0,0,0-.56.17,1.14,1.14,0,0,0-.39.59,3.55,3.55,0,0,0-.11,1.13,1.69,1.69,0,0,0,.21.79,1,1,0,0,0,.47.42,1.67,1.67,0,0,0,.65.12l.37,0a3,3,0,0,0,.43-.09.91.91,0,0,0,.31-.12l.18.53a1.49,1.49,0,0,1-.4.21,3.17,3.17,0,0,1-.55.15A3.9,3.9,0,0,1,128.8,272.65Z" transform="translate(-20.46 -29.56)"/><path class="cls-4" d="M131.29,272.32l.13-.68a1.16,1.16,0,0,0,.25.12,4.12,4.12,0,0,0,.45.14,2.51,2.51,0,0,0,.55.06.94.94,0,0,0,.58-.13.43.43,0,0,0,.21-.38.41.41,0,0,0-.13-.3,1.13,1.13,0,0,0-.33-.24l-.47-.23a5.41,5.41,0,0,1-.64-.35,1.44,1.44,0,0,1-.43-.46,1.21,1.21,0,0,1-.15-.62,1.06,1.06,0,0,1,.23-.66,1.45,1.45,0,0,1,.59-.39,2.66,2.66,0,0,1,.82-.13,2.73,2.73,0,0,1,.74.09,1.82,1.82,0,0,1,.41.15L134,269a.86.86,0,0,0-.22-.12,2.53,2.53,0,0,0-.35-.09,2.58,2.58,0,0,0-.4,0,1.28,1.28,0,0,0-.62.12.37.37,0,0,0-.21.33.47.47,0,0,0,.2.44,4.27,4.27,0,0,0,.49.28c.28.14.53.27.75.4a1.76,1.76,0,0,1,.52.44,1,1,0,0,1,.2.62,1.15,1.15,0,0,1-.43.95,2,2,0,0,1-1.17.32,3.83,3.83,0,0,1-.6,0,3.19,3.19,0,0,1-.51-.12A1,1,0,0,1,131.29,272.32Z" transform="translate(-20.46 -29.56)"/><path class="cls-4" d="M135,270.41a2.84,2.84,0,0,1,.24-1.19,2,2,0,0,1,.72-.84,2.23,2.23,0,0,1,1.2-.31,2.84,2.84,0,0,1,.71.08,1.28,1.28,0,0,1,.4.15l-.14.73a1.19,1.19,0,0,0-.41-.18,2.26,2.26,0,0,0-.57-.06,1.22,1.22,0,0,0-.58.15,1.24,1.24,0,0,0-.47.47,1.79,1.79,0,0,0-.2.84,2.17,2.17,0,0,0,.14.93,1.3,1.3,0,0,0,.45.57,1.1,1.1,0,0,0,.64.2,2,2,0,0,0,.61-.09,1.66,1.66,0,0,0,.43-.17l.18.54a1.5,1.5,0,0,1-.58.3,2.56,2.56,0,0,1-.79.12,1.86,1.86,0,0,1-1.08-.3,1.82,1.82,0,0,1-.67-.8A2.76,2.76,0,0,1,135,270.41Z" transform="translate(-20.46 -29.56)"/><path class="cls-4" d="M140.36,272.65a1.49,1.49,0,0,1-.71-.16,1.12,1.12,0,0,1-.49-.45,1.25,1.25,0,0,1-.18-.68,1.18,1.18,0,0,1,.23-.73,1.53,1.53,0,0,1,.62-.46,3.06,3.06,0,0,1,.56-.17q.3-.06.6-.09a5.34,5.34,0,0,1,.55,0l.2.24-.2.32-.37,0a3,3,0,0,0-.43.06,1.52,1.52,0,0,0-.36.12,1,1,0,0,0-.34.24.56.56,0,0,0-.14.4.69.69,0,0,0,.19.51.8.8,0,0,0,.55.17,1.21,1.21,0,0,0,.38-.06,2.2,2.2,0,0,0,.34-.13.46.46,0,0,0,.18-.12l.19.2-.13.34a1.71,1.71,0,0,1-.51.3A1.94,1.94,0,0,1,140.36,272.65Zm2.11-.06h-.87v-.67h-.06v-2.45a.58.58,0,0,0-.2-.52,1.1,1.1,0,0,0-.59-.13,3.15,3.15,0,0,0-.52.05,4.93,4.93,0,0,0-.49.13,1.61,1.61,0,0,0-.34.15l-.22-.67a1.85,1.85,0,0,1,.35-.15,5.15,5.15,0,0,1,.62-.19,3.25,3.25,0,0,1,.69-.08,2.86,2.86,0,0,1,.87.12,1,1,0,0,1,.56.43,1.73,1.73,0,0,1,.2.91Z" transform="translate(-20.46 -29.56)"/><path class="cls-4" d="M143.81,272.59v-6.51h.92v6.51Z" transform="translate(-20.46 -29.56)"/><path class="cls-4" d="M147.2,272.65a1.49,1.49,0,0,1-.71-.16A1.12,1.12,0,0,1,146,272a1.25,1.25,0,0,1-.18-.68,1.18,1.18,0,0,1,.23-.73,1.53,1.53,0,0,1,.62-.46,3.06,3.06,0,0,1,.56-.17q.3-.06.6-.09a5.34,5.34,0,0,1,.55,0l.2.24-.2.32-.37,0a3,3,0,0,0-.43.06,1.52,1.52,0,0,0-.36.12,1,1,0,0,0-.34.24.56.56,0,0,0-.14.4.66.66,0,0,0,.19.51.8.8,0,0,0,.55.17,1.21,1.21,0,0,0,.38-.06,2.2,2.2,0,0,0,.34-.13.46.46,0,0,0,.18-.12l.19.2-.13.34a1.71,1.71,0,0,1-.51.3A1.94,1.94,0,0,1,147.2,272.65Zm2.11-.06h-.87v-.67h-.06v-2.45a.58.58,0,0,0-.2-.52,1.1,1.1,0,0,0-.59-.13,3.15,3.15,0,0,0-.52.05,4.93,4.93,0,0,0-.49.13,1.73,1.73,0,0,0-.35.15l-.21-.67a1.85,1.85,0,0,1,.35-.15,5.15,5.15,0,0,1,.62-.19,3.25,3.25,0,0,1,.69-.08,2.75,2.75,0,0,1,.86.12,1,1,0,0,1,.57.43,1.73,1.73,0,0,1,.2.91Z" transform="translate(-20.46 -29.56)"/><path class="cls-4" d="M153.57,272.65a4.23,4.23,0,0,1-.73-.06,3.81,3.81,0,0,1-.6-.14,1.91,1.91,0,0,1-.35-.14l.19-.77a2,2,0,0,0,.38.17,2.63,2.63,0,0,0,.5.14,2.6,2.6,0,0,0,.56.06,1.57,1.57,0,0,0,.83-.19.66.66,0,0,0,.29-.6.82.82,0,0,0-.14-.47,1.81,1.81,0,0,0-.43-.36l-.72-.37a4.25,4.25,0,0,1-.7-.43,2.28,2.28,0,0,1-.57-.59,1.4,1.4,0,0,1,.41-2,2,2,0,0,1,.64-.26,3,3,0,0,1,.73-.08,3.29,3.29,0,0,1,.9.1,2.23,2.23,0,0,1,.51.21l-.18.74a3.59,3.59,0,0,0-.48-.23,2.42,2.42,0,0,0-.75-.1,1.8,1.8,0,0,0-.54.08.92.92,0,0,0-.4.23.55.55,0,0,0-.15.4.92.92,0,0,0,.11.46,1.14,1.14,0,0,0,.37.35c.17.11.4.23.67.38l.6.33a2.9,2.9,0,0,1,.52.38,1.75,1.75,0,0,1,.38.49,1.28,1.28,0,0,1,.15.63,1.46,1.46,0,0,1-1,1.44A2.8,2.8,0,0,1,153.57,272.65Z" transform="translate(-20.46 -29.56)"/><path class="cls-4" d="M156.59,272.59v-5.95h.88l.48,0h.52a2.77,2.77,0,0,1,2.14.75,3,3,0,0,1,.7,2.11,3.86,3.86,0,0,1-.36,1.74,2.5,2.5,0,0,1-1,1.11,3,3,0,0,1-1.55.36l-.71,0-.7,0h-.38Zm.95-.72a2.58,2.58,0,0,0,.46.06l.51,0a1.81,1.81,0,0,0,.94-.26,1.52,1.52,0,0,0,.64-.76,3.26,3.26,0,0,0,.24-1.35,3.45,3.45,0,0,0-.23-1.37,1.41,1.41,0,0,0-.68-.72,2.56,2.56,0,0,0-1.13-.22h-.43l-.32,0Z" transform="translate(-20.46 -29.56)"/><path class="cls-4" d="M163.85,272.65a4.23,4.23,0,0,1-.73-.06,3.81,3.81,0,0,1-.6-.14,1.91,1.91,0,0,1-.35-.14l.19-.77a2,2,0,0,0,.38.17,2.44,2.44,0,0,0,.5.14,2.57,2.57,0,0,0,.55.06,1.58,1.58,0,0,0,.84-.19.66.66,0,0,0,.29-.6.75.75,0,0,0-.15-.47,1.48,1.48,0,0,0-.43-.36c-.19-.11-.42-.23-.71-.37a4.8,4.8,0,0,1-.71-.43,2.41,2.41,0,0,1-.56-.59,1.4,1.4,0,0,1,.41-2,2,2,0,0,1,.64-.26,3,3,0,0,1,.73-.08,3.29,3.29,0,0,1,.9.1,2.23,2.23,0,0,1,.51.21l-.18.74a3.59,3.59,0,0,0-.48-.23,2.42,2.42,0,0,0-.75-.1,1.8,1.8,0,0,0-.54.08.92.92,0,0,0-.4.23.55.55,0,0,0-.15.4.83.83,0,0,0,.11.46,1.14,1.14,0,0,0,.37.35c.17.11.39.23.67.38s.4.21.59.33a2.66,2.66,0,0,1,.53.38,1.75,1.75,0,0,1,.38.49,1.28,1.28,0,0,1,.15.63,1.46,1.46,0,0,1-1,1.44A2.8,2.8,0,0,1,163.85,272.65Z" transform="translate(-20.46 -29.56)"/><path class="cls-4" d="M167.1,265.7a2.18,2.18,0,0,1,.31.26,4.57,4.57,0,0,1,.93,1.33,5.77,5.77,0,0,1,.37,1.11,6.22,6.22,0,0,1,.15,1.43,5.06,5.06,0,0,1-.15,1.26,5,5,0,0,1-.36,1.05,5.56,5.56,0,0,1-.47.82,4.18,4.18,0,0,1-.46.56,1.79,1.79,0,0,1-.32.27l-.62-.31c.07-.06.19-.18.35-.35a4.58,4.58,0,0,0,.49-.73,5.35,5.35,0,0,0,.45-1.09,6.44,6.44,0,0,0,.21-1.49,5.41,5.41,0,0,0-.1-1.25,4.94,4.94,0,0,0-.29-1,5.17,5.17,0,0,0-.4-.75,4.11,4.11,0,0,0-.4-.52,3.09,3.09,0,0,0-.31-.28Z" transform="translate(-20.46 -29.56)"/><g class="cls-2"><line class="cls-5" x1="1.5" y1="148.78" x2="252.04" y2="148.78"/><line class="cls-5" x1="1.5" y1="203.67" x2="252.04" y2="203.67"/></g><path class="cls-6" d="M35.89,118H33.17L33,117.3l.74-.26v-7.1h-.66l-.14-.68,1.6-.18.71.18v3.35a4.15,4.15,0,0,1,1.36-.31c1.35,0,2.25.6,2.25,1.91V117l.76.26-.15.74H36.76l-.15-.74.77-.26v-3a.77.77,0,0,0-.83-.86,3.88,3.88,0,0,0-1.27.24V117l.76.26Z" transform="translate(-20.46 -29.56)"/><path class="cls-6" d="M46.48,115.23a2.69,2.69,0,0,1-3,2.93,2.72,2.72,0,0,1-3-2.93,2.78,2.78,0,0,1,3-2.93A2.75,2.75,0,0,1,46.48,115.23Zm-4.44,0c0,1.32.51,2.21,1.45,2.21s1.46-.88,1.46-2.21-.57-2.13-1.46-2.13S42,113.87,42,115.19Z" transform="translate(-20.46 -29.56)"/><path class="cls-6" d="M53.91,117.3l-.14.74H51l-.14-.74.76-.26v-2.93a.91.91,0,0,0-1-.94,3.56,3.56,0,0,0-1,.24V117l.75.26-.14.74H47.52l-.14-.74.75-.26v-3.87h-.54l-.13-.74,1.5-.13.49.31a5.32,5.32,0,0,1,1.5-.31,2.27,2.27,0,0,1,1.57.45,4,4,0,0,1,1.72-.45c1.56,0,2.39.72,2.39,2V117l.76.26-.14.74H54.51l-.14-.74.76-.26v-2.82a1.05,1.05,0,0,0-1.1-1,2.55,2.55,0,0,0-1.06.24,2.17,2.17,0,0,1,.18.91V117Z" transform="translate(-20.46 -29.56)"/><path class="cls-6" d="M63.48,116.74l.41.61a3.46,3.46,0,0,1-2.32.82c-2.28,0-3.27-1.17-3.27-2.94a2.86,2.86,0,0,1,3.07-2.93c1.44,0,2.61.77,2.61,2a2.35,2.35,0,0,1-.26,1H59.94c0,1.2.66,2,1.69,2A3.23,3.23,0,0,0,63.48,116.74Zm-1-2.58a1,1,0,0,0-1.1-1.1A1.44,1.44,0,0,0,60,114.51h2.46A2.16,2.16,0,0,0,62.47,114.16Z" transform="translate(-20.46 -29.56)"/><path class="cls-6" d="M67.09,113.41V117l.77.26-.13.74H65l-.13-.74.75-.26v-3.87H65l-.13-.74,1.54-.13.49.31a5.18,5.18,0,0,1,1.5-.31c1.39,0,2.27.72,2.27,2V117l.76.26-.14.74H68.59l-.14-.74.75-.26v-2.89a1,1,0,0,0-1.06-1A3.55,3.55,0,0,0,67.09,113.41Z" transform="translate(-20.46 -29.56)"/><path class="cls-6" d="M72.37,117.66v-1.41l.81-.16.41,1.19a3.14,3.14,0,0,0,.76.12c.59,0,1.11-.2,1.11-.65s-.65-.72-1.19-1c-.79-.37-1.87-.87-1.87-1.92s.93-1.56,2.37-1.56a3.61,3.61,0,0,1,1.85.51V114l-.82.14-.25-.92a4,4,0,0,0-.9-.12c-.48,0-.87.26-.87.62s1,.75,1.56,1c.82.4,1.5.78,1.5,1.71s-.94,1.74-2.39,1.74A5.22,5.22,0,0,1,72.37,117.66Z" transform="translate(-20.46 -29.56)"/><path class="cls-6" d="M44,153.3l-.36,1.18-.81-.15v-1.6a5.24,5.24,0,0,1,2.11-.49,2.09,2.09,0,0,1,2.35,2.09c0,2.4-3,3.25-3.43,4.48h2.22l.28-.82.8.15v2H42.61v-.64c0-2.15,3.11-3.09,3.11-5.26,0-.8-.37-1.07-.8-1.07A2.34,2.34,0,0,0,44,153.3Z" transform="translate(-20.46 -29.56)"/><path class="cls-6" d="M50.43,159.47a3.7,3.7,0,0,1-1.71,2.8l-.42-.43a2.56,2.56,0,0,0,1-1.74h-.18a1,1,0,0,1-.28-.63.82.82,0,0,1,1.64,0Z" transform="translate(-20.46 -29.56)"/><path class="cls-6" d="M55.46,155.78A2.83,2.83,0,0,1,57,158.11a2.38,2.38,0,0,1-2.61,2.11c-1.27,0-2.62-.72-2.62-2.06a2.61,2.61,0,0,1,1.49-2,2.58,2.58,0,0,1-1.27-2c0-1,.93-1.89,2.4-1.89s2.32.84,2.32,1.74A2.37,2.37,0,0,1,55.46,155.78Zm-1.34.86a1.84,1.84,0,0,0-.84,1.52,1.11,1.11,0,0,0,1.12,1.17,1.09,1.09,0,0,0,1.12-1.17C55.52,157.45,54.68,157,54.12,156.64Zm1.2-2.58a.86.86,0,0,0-.92-.93.88.88,0,0,0-.92,1c0,.49.62.9,1.13,1.17A1.55,1.55,0,0,0,55.32,154.06Z" transform="translate(-20.46 -29.56)"/><path class="cls-6" d="M62.28,153.9c0,1.27-.41,2.43-2,2.43s-2-1.1-2-2.43.55-2.4,2-2.4S62.28,152.6,62.28,153.9Zm-2,6.4h-1l6.41-8.8h1Zm-.71-6.44c0,.95.16,1.67.7,1.67s.66-.71.66-1.67-.11-1.56-.66-1.56S59.58,152.92,59.58,153.86Zm8.29,4c0,1.28-.41,2.44-2,2.44s-2-1.1-2-2.44.55-2.39,2-2.39S67.87,156.57,67.87,157.86Zm-2.7,0c0,.95.16,1.67.7,1.67s.66-.71.66-1.67-.11-1.56-.66-1.56S65.17,156.89,65.17,157.83Z" transform="translate(-20.46 -29.56)"/><path class="cls-6" d="M45.53,205l-.36,1.18-.8-.15v-1.6a5.16,5.16,0,0,1,2.11-.49,2.09,2.09,0,0,1,2.35,2.09c0,2.4-3,3.25-3.43,4.48h2.22l.27-.82.81.15v2H44.14v-.64c0-2.15,3.1-3.09,3.1-5.26,0-.8-.37-1.07-.8-1.07A2.37,2.37,0,0,0,45.53,205Z" transform="translate(-20.46 -29.56)"/><path class="cls-6" d="M49.86,209.2,53.7,204l.77.2v4.75h1.1l-.21.88h-.89v1l1.26.24-.16.83H51.76l-.15-.84,1.31-.23v-1H50.29Zm3.58-3.32-2.22,3h1.7v-1.44Z" transform="translate(-20.46 -29.56)"/><path class="cls-6" d="M60.77,205.62c0,1.27-.41,2.43-2,2.43s-2-1.1-2-2.43.55-2.4,2-2.4S60.77,204.32,60.77,205.62Zm-2,6.4h-1l6.42-8.8h1Zm-.71-6.44c0,.95.16,1.67.7,1.67s.65-.71.65-1.67-.1-1.56-.65-1.56S58.07,204.64,58.07,205.58Zm8.29,4c0,1.27-.41,2.43-2,2.43s-2-1.1-2-2.43.56-2.4,2-2.4S66.36,208.29,66.36,209.59Zm-2.7,0c0,.95.15,1.67.69,1.67s.66-.71.66-1.67-.1-1.56-.66-1.56S63.66,208.61,63.66,209.55Z" transform="translate(-20.46 -29.56)"/><path class="cls-6" d="M42.88,260.92l3.84-5.24.76.2v4.75h1.11l-.22.88h-.89v1l1.26.24-.15.83H44.77l-.14-.84,1.31-.23v-1H43.31Zm3.57-3.32-2.22,3h1.71v-1.44Z" transform="translate(-20.46 -29.56)"/><path class="cls-6" d="M56,259.66c0,1.87-.62,4-2.94,4s-3-2.06-3-4,.82-4,3-4S56,257.79,56,259.66Zm-4.25-.05c0,1.51.4,3.16,1.31,3.16s1.28-1.63,1.28-3.16-.32-3-1.28-3S51.75,258.1,51.75,259.61Z" transform="translate(-20.46 -29.56)"/><path class="cls-6" d="M61.32,257.34c0,1.27-.41,2.43-2,2.43s-2-1.1-2-2.43.55-2.4,2-2.4S61.32,256,61.32,257.34Zm-2,6.4h-1l6.41-8.8h1Zm-.71-6.44c0,.95.16,1.67.7,1.67s.66-.71.66-1.67-.11-1.56-.66-1.56S58.62,256.36,58.62,257.3Zm8.29,4c0,1.28-.41,2.44-2,2.44s-2-1.1-2-2.44.55-2.39,2-2.39S66.91,260,66.91,261.3Zm-2.7,0c0,1,.16,1.67.7,1.67s.66-.71.66-1.67-.11-1.56-.66-1.56S64.21,260.33,64.21,261.27Z" transform="translate(-20.46 -29.56)"/><g class="cls-2"><path class="cls-7" d="M79.31,128.71a8.83,8.83,0,0,1,8.83,8.83V279a8.83,8.83,0,0,1-8.83,8.83H30.8A8.83,8.83,0,0,1,22,279V137.54a8.83,8.83,0,0,1,8.84-8.83H79.31m0-1.5H30.8a10.35,10.35,0,0,0-10.34,10.33V279A10.35,10.35,0,0,0,30.8,289.35H79.31A10.34,10.34,0,0,0,89.64,279V137.54a10.34,10.34,0,0,0-10.33-10.33" transform="translate(-20.46 -29.56)"/></g><path class="cls-8" d="M233.26,156.22c0,1.88-.62,4-2.93,4s-3-2.05-3-4,.82-4,3-4S233.26,154.35,233.26,156.22Zm-4.25,0c0,1.51.4,3.15,1.32,3.15s1.27-1.63,1.27-3.15-.32-3.05-1.27-3.05S229,154.67,229,156.18Z" transform="translate(-20.46 -29.56)"/><path class="cls-8" d="M236.31,159.47a3.69,3.69,0,0,1-1.7,2.8l-.42-.43a2.55,2.55,0,0,0,.95-1.74H235a1,1,0,0,1-.28-.63.82.82,0,0,1,1.63,0Z" transform="translate(-20.46 -29.56)"/><path class="cls-8" d="M239.41,155.41a2.38,2.38,0,0,1,1.09-.31,2.33,2.33,0,0,1,2.23,2.41,2.64,2.64,0,0,1-2.6,2.71c-1.69,0-2.64-1.27-2.64-3a5.37,5.37,0,0,1,4.1-5l.43.79A5.21,5.21,0,0,0,239.41,155.41Zm-.41,1.83c0,1.08.31,2.09,1.13,2.09s1.09-1,1.09-1.85-.44-1.5-.88-1.5a1.39,1.39,0,0,0-.77.24l-.29-.48A4.6,4.6,0,0,0,239,157.24Z" transform="translate(-20.46 -29.56)"/><path class="cls-8" d="M247.84,153.9c0,1.27-.4,2.43-2,2.43s-2-1.1-2-2.43.55-2.4,2-2.4S247.84,152.6,247.84,153.9Zm-2,6.4h-1l6.42-8.8h1Zm-.7-6.44c0,.95.15,1.67.69,1.67s.66-.71.66-1.67-.11-1.56-.66-1.56S245.15,152.93,245.15,153.86Zm8.28,4c0,1.27-.4,2.43-2,2.43s-2-1.1-2-2.43.55-2.4,2-2.4S253.43,156.57,253.43,157.87Zm-2.69,0c0,.95.15,1.67.69,1.67s.66-.71.66-1.67-.11-1.56-.66-1.56S250.74,156.9,250.74,157.83Z" transform="translate(-20.46 -29.56)"/><path class="cls-8" d="M228.61,209.2l3.84-5.24.77.21v4.75h1.1l-.22.87h-.88v1l1.26.24-.16.83h-3.81l-.15-.84,1.31-.23v-1H229Zm3.57-3.32-2.21,3h1.7v-1.44Z" transform="translate(-20.46 -29.56)"/><path class="cls-8" d="M237.5,207.13a2.38,2.38,0,0,1,1.09-.31,2.33,2.33,0,0,1,2.23,2.41,2.65,2.65,0,0,1-2.6,2.71c-1.69,0-2.64-1.27-2.64-3a5.38,5.38,0,0,1,4.1-5l.44.79A5.19,5.19,0,0,0,237.5,207.13Zm-.41,1.83c0,1.08.32,2.09,1.13,2.09s1.09-1,1.09-1.85-.44-1.49-.87-1.49a1.39,1.39,0,0,0-.78.23l-.29-.47A4.76,4.76,0,0,0,237.09,209Z" transform="translate(-20.46 -29.56)"/><path class="cls-8" d="M245.94,205.62c0,1.27-.41,2.43-2,2.43s-2-1.1-2-2.43.56-2.4,2-2.4S245.94,204.32,245.94,205.62Zm-2,6.4h-1l6.42-8.8h1Zm-.71-6.44c0,.95.15,1.67.69,1.67s.66-.71.66-1.67-.1-1.56-.66-1.56S243.24,204.65,243.24,205.58Zm8.29,4c0,1.27-.41,2.43-2,2.43s-2-1.1-2-2.43.56-2.4,2-2.4S251.53,208.29,251.53,209.59Zm-2.7,0c0,.95.15,1.67.69,1.67s.66-.71.66-1.67-.11-1.56-.66-1.56S248.83,208.62,248.83,209.55Z" transform="translate(-20.46 -29.56)"/><path class="cls-8" d="M231.63,258.52A2.33,2.33,0,0,1,234,261a2.57,2.57,0,0,1-2.81,2.68,3.62,3.62,0,0,1-2.36-.88l.48-.73a3.25,3.25,0,0,0,1.81.72c.7,0,1.32-.57,1.32-1.75,0-1-.38-1.61-1.2-1.61a2.12,2.12,0,0,0-1.15.36l-.65-.26.48-3.73h2.81L233,255l.8.16v1.95h-3.09l-.23,1.74A2.6,2.6,0,0,1,231.63,258.52Z" transform="translate(-20.46 -29.56)"/><path class="cls-8" d="M235,260.92l3.84-5.24.77.21v4.75h1.1l-.21.87h-.89v1l1.26.24-.16.83h-3.81l-.15-.84,1.31-.23v-1h-2.62Zm3.58-3.32-2.22,3H238V259.2Z" transform="translate(-20.46 -29.56)"/><path class="cls-8" d="M245.89,257.34c0,1.27-.41,2.43-2,2.43s-2-1.1-2-2.43.55-2.4,2-2.4S245.89,256,245.89,257.34Zm-2,6.4h-1l6.42-8.8h1Zm-.71-6.44c0,.95.16,1.67.7,1.67s.65-.71.65-1.67-.1-1.56-.65-1.56S243.19,256.37,243.19,257.3Zm8.29,4c0,1.27-.41,2.43-2,2.43s-2-1.1-2-2.43.55-2.4,2-2.4S251.48,260,251.48,261.31Zm-2.7,0c0,1,.15,1.67.69,1.67s.66-.71.66-1.67-.1-1.56-.66-1.56S248.78,260.34,248.78,261.27Z" transform="translate(-20.46 -29.56)"/><path class="cls-8" d="M220.11,117.32l-.14.73h-2.75l-.14-.73.75-.27v-2.92a.92.92,0,0,0-1-.95,3.56,3.56,0,0,0-1,.24v3.63l.76.27-.15.73h-2.73l-.14-.73.75-.27v-3.87h-.54l-.13-.73,1.5-.13.49.31a5.32,5.32,0,0,1,1.5-.31,2.33,2.33,0,0,1,1.57.44,4.19,4.19,0,0,1,1.72-.44c1.55,0,2.38.72,2.38,2v2.71l.77.27-.14.73h-2.74l-.14-.73.75-.27v-2.81a1.05,1.05,0,0,0-1.09-1.06,2.6,2.6,0,0,0-1.07.24,2.21,2.21,0,0,1,.18.91v2.72Z" transform="translate(-20.46 -29.56)"/><path class="cls-8" d="M228.12,113.18l-.13-.71,1.54-.15.6.18v4.55l.77.27-.14.73h-1.63l-.37-.28a2.57,2.57,0,0,1-1.58.41A2,2,0,0,1,225,116v-2.81h-.49l-.13-.71,1.43-.15.7.17v3.61a1.08,1.08,0,0,0,1.09,1.21,1.44,1.44,0,0,0,1-.46v-3.67Z" transform="translate(-20.46 -29.56)"/><path class="cls-8" d="M234.58,118.05h-2.87l-.15-.73.83-.27V110h-.62l-.14-.68,1.56-.18.71.18v7.78l.83.27Z" transform="translate(-20.46 -29.56)"/><path class="cls-8" d="M238.32,118.05h-2.73l-.14-.73.74-.27V110h-.65l-.15-.68,1.61-.18.71.18v3.36a3.86,3.86,0,0,1,1.35-.31c1.36,0,2.26.6,2.26,1.9v2.83l.75.27-.14.73h-2.75l-.14-.73.76-.27v-3a.77.77,0,0,0-.82-.87,3.88,3.88,0,0,0-1.27.24v3.62l.75.27Z" transform="translate(-20.46 -29.56)"/><path class="cls-8" d="M248.1,116.76l.4.61a3.46,3.46,0,0,1-2.31.81c-2.28,0-3.28-1.16-3.28-2.94a2.86,2.86,0,0,1,3.07-2.92c1.44,0,2.62.77,2.62,1.94a2.26,2.26,0,0,1-.27,1h-3.77c0,1.2.66,2,1.69,2A3.33,3.33,0,0,0,248.1,116.76Zm-1-2.58a1,1,0,0,0-1.11-1.11,1.45,1.45,0,0,0-1.39,1.45h2.46A1.42,1.42,0,0,0,247.09,114.18Z" transform="translate(-20.46 -29.56)"/><path class="cls-8" d="M253.27,113.23a2.72,2.72,0,0,0-.48,0,4,4,0,0,0-1.08.24v3.63l1,.27-.14.73h-3l-.15-.73.76-.27v-3.87h-.54l-.15-.73,1.56-.13.5.31a5.05,5.05,0,0,1,1.54-.31,3.4,3.4,0,0,1,1.24.26V114l-.81.15Z" transform="translate(-20.46 -29.56)"/><path class="cls-8" d="M260.13,116.76l.41.61a3.48,3.48,0,0,1-2.32.81c-2.27,0-3.27-1.16-3.27-2.94a2.86,2.86,0,0,1,3.07-2.92c1.44,0,2.62.77,2.62,1.94a2.26,2.26,0,0,1-.27,1h-3.78c0,1.2.66,2,1.69,2A3.28,3.28,0,0,0,260.13,116.76Zm-1-2.58a1,1,0,0,0-1.1-1.11c-.78,0-1.28.59-1.39,1.45h2.46A2.14,2.14,0,0,0,259.12,114.18Z" transform="translate(-20.46 -29.56)"/><path class="cls-8" d="M261.54,117.68v-1.42l.8-.15.41,1.19a3.11,3.11,0,0,0,.77.11c.58,0,1.1-.2,1.1-.64s-.65-.72-1.19-1c-.79-.38-1.87-.88-1.87-1.92s.94-1.56,2.38-1.56a3.64,3.64,0,0,1,1.84.5V114l-.81.15-.25-.93a4,4,0,0,0-.9-.12c-.48,0-.88.27-.88.63s1,.74,1.56,1c.83.39,1.5.78,1.5,1.7s-.94,1.74-2.39,1.74A5.32,5.32,0,0,1,261.54,117.68Z" transform="translate(-20.46 -29.56)"/><g class="cls-2"><rect class="cls-9" x="186.67" y="99.15" width="64.96" height="159.14" rx="10.2"/><path class="cls-7" d="M257.88,51.84a18.25,18.25,0,0,0-33.34-10.26c-.06,0-.11.11-.18.27l0,0a17.87,17.87,0,0,0-2,4c-4.33,7.91-8.91,10.48-8.91,13.76a7.73,7.73,0,0,0,2.35,4.91,11.09,11.09,0,0,0-.67,3.54,8.4,8.4,0,0,0,8.4,8.4c.94,0,2.14,0,3.44-.06,2.54,2,6.68,3.23,11.37,3.23,7.72,0,14-3.45,14-7.71,0-1.79-1.12-3.43-3-4.74a18.25,18.25,0,0,0,8.52-15.43" transform="translate(-20.46 -29.56)"/><path class="cls-7" d="M221.75,51.84A18.25,18.25,0,0,1,255.1,41.58q.08,0,.18.27l0,0a17.87,17.87,0,0,1,2,4c4.33,7.91,8.91,10.48,8.91,13.76a7.73,7.73,0,0,1-2.35,4.91,11.09,11.09,0,0,1,.67,3.54,8.4,8.4,0,0,1-8.4,8.4c-.94,0-2.14,0-3.44-.06-2.54,2-6.68,3.23-11.37,3.23-7.73,0-14-3.45-14-7.71,0-1.79,1.12-3.43,3-4.74a18.24,18.24,0,0,1-8.53-15.43" transform="translate(-20.46 -29.56)"/><path class="cls-8" d="M207.18,99.79v-6a9.72,9.72,0,0,1,6.9-9.31l12-3.51c4.2-1.92,6.16-4.29,6.16-7.47V68.79h14.29v4.75c0,3.18,2,5.55,6.16,7.47l12,3.51a9.69,9.69,0,0,1,6.9,9.22v6.05Z" transform="translate(-20.46 -29.56)"/><path class="cls-7" d="M245.81,69.54v4c0,4.16,3,6.53,6.65,8.17l12.08,3.53a9,9,0,0,1,6.36,8.5V99h-63v-5.3a9,9,0,0,1,6.36-8.5l12.08-3.53c3.62-1.64,6.65-4,6.65-8.17v-4h12.79m1.5-1.5H231.52v5.5c0,2.87-1.75,5-5.68,6.76l-12,3.5a10.44,10.44,0,0,0-7.44,9.93v6.81h66V93.73A10.44,10.44,0,0,0,265,83.8l-12-3.5c-3.93-1.8-5.68-3.89-5.68-6.76V68Z" transform="translate(-20.46 -29.56)"/><path class="cls-10" d="M239.41,72.19c-8.63,0-16-11.09-16-20.18a16,16,0,0,1,32.05,0c0,9.09-7.39,20.18-16,20.18" transform="translate(-20.46 -29.56)"/><path class="cls-7" d="M239.41,36.88A15.14,15.14,0,0,1,254.55,52c0,8.36-6.78,19.28-15.14,19.28S224.28,60.37,224.28,52a15.14,15.14,0,0,1,15.13-15.13m0-1.79A16.94,16.94,0,0,0,222.49,52c0,9.55,7.55,21.08,16.92,21.08S256.34,61.56,256.34,52a16.94,16.94,0,0,0-16.93-16.92" transform="translate(-20.46 -29.56)"/><path class="cls-7" d="M224.36,45.1s15.17,5.64,29.22,0c0,0-.85-7.33-14-8.18,0,0-10.54-.63-15.18,8.18" transform="translate(-20.46 -29.56)"/><path class="cls-11" d="M239.18,91.1a19.77,19.77,0,0,1-9.07-2.19A18.23,18.23,0,0,1,223,82.77a.74.74,0,0,1,0-.68.71.71,0,0,1,.51-.43A18.59,18.59,0,0,0,230,78.58l.19-.15c1.46-1.19,2.61-2.12,2.12-7.13a.75.75,0,0,1,1.17-.69,11.25,11.25,0,0,0,12,0,.72.72,0,0,1,.38-.1.78.78,0,0,1,.37.09.73.73,0,0,1,.38.65c0,1.56.46,6,2.38,7.5a13.75,13.75,0,0,0,5.4,2.67.75.75,0,0,1,.53,1.08A15,15,0,0,1,248,89a19.44,19.44,0,0,1-8.83,2.1" transform="translate(-20.46 -29.56)"/><path class="cls-7" d="M245.81,71.23s0,6,2.66,8.08a14.23,14.23,0,0,0,5.74,2.81,14.44,14.44,0,0,1-6.54,6.21,18.62,18.62,0,0,1-8.49,2,19.07,19.07,0,0,1-8.72-2.1,17.64,17.64,0,0,1-6.78-5.86,19.31,19.31,0,0,0,6.78-3.23c1.61-1.32,3.13-2.31,2.57-7.93a12,12,0,0,0,12.78,0m0-1.5a1.51,1.51,0,0,0-.77.21,10.49,10.49,0,0,1-11.15,0,1.57,1.57,0,0,0-.85-.26,1.51,1.51,0,0,0-.77.21,1.48,1.48,0,0,0-.73,1.43c.45,4.61-.51,5.39-1.84,6.48l-.19.15a17.87,17.87,0,0,1-6.18,2.93,1.51,1.51,0,0,0-1,2.22,19.06,19.06,0,0,0,7.39,6.43,20.54,20.54,0,0,0,9.41,2.27,20.19,20.19,0,0,0,9.18-2.19,15.71,15.71,0,0,0,7.17-6.83,1.49,1.49,0,0,0-1.05-2.18,13,13,0,0,1-5.07-2.51c-1.69-1.36-2.09-5.56-2.1-6.92a1.49,1.49,0,0,0-1.5-1.49" transform="translate(-20.46 -29.56)"/><path class="cls-7" d="M70.28,36.39a18.37,18.37,0,0,0-28.59,0c-5.24,6.32-1.41,16.41-1.41,16.41H71.69s3.83-10.09-1.41-16.41" transform="translate(-20.46 -29.56)"/><path class="cls-12" d="M89.15,88.3c0-3.35-2.86-6.23-6.68-7.12l-12.71-3c-3.82-1.37-7-3.36-7-6.84V68.05H49.3v3.34c0,3.48-3.18,5.47-7,6.84l-12.71,3c-3.83.89-6.66,3.77-6.69,7.12v4.43H89.15V88.3Z" transform="translate(-20.46 -29.56)"/><path class="cls-13" d="M89.15,88.3c0-3.35-2.86-6.23-6.68-7.12l-12.71-3c-3.82-1.37-7-3.36-7-6.84V68.05H49.3v3.34c0,3.48-3.18,5.47-7,6.84l-12.71,3c-3.83.89-6.66,3.77-6.69,7.12v4.43H89.15V88.3Z" transform="translate(-20.46 -29.56)"/><path class="cls-14" d="M43.71,57.68c.21,2.59-.87,4.79-2.42,4.91S37.65,59.54,37.44,57a3.2,3.2,0,0,1,3.09-3.73c1.54-.13,3,1.87,3.18,4.46" transform="translate(-20.46 -29.56)"/><path class="cls-13" d="M43.71,57.68c.21,2.59-.87,4.79-2.42,4.91S37.65,59.54,37.44,57a3.2,3.2,0,0,1,3.09-3.73C42.07,53.09,43.5,55.09,43.71,57.68Z" transform="translate(-20.46 -29.56)"/><path class="cls-14" d="M68.46,57.68c-.21,2.59.87,4.79,2.41,4.91s3.65-3.05,3.86-5.64a3.2,3.2,0,0,0-3.09-3.73c-1.55-.13-3,1.87-3.18,4.46" transform="translate(-20.46 -29.56)"/><path class="cls-13" d="M68.46,57.68c-.21,2.59.87,4.79,2.41,4.91s3.65-3.05,3.86-5.64a3.2,3.2,0,0,0-3.09-3.73C70.09,53.09,68.67,55.09,68.46,57.68Z" transform="translate(-20.46 -29.56)"/><path class="cls-14" d="M56,35.11c-12.29,0-13.89,9-13.89,16.93,0,11.22,6.17,18.09,13.89,18.44,7.72-.35,13.89-7.22,13.89-18.44,0-7.9-.59-16.93-13.89-16.93" transform="translate(-20.46 -29.56)"/><path class="cls-13" d="M56,35.11c-12.29,0-13.89,9-13.89,16.93,0,11.22,6.17,18.09,13.89,18.44,7.72-.35,13.89-7.22,13.89-18.44C69.92,44.14,69.33,35.11,56,35.11Z" transform="translate(-20.46 -29.56)"/><path class="cls-15" d="M22.16,98.79V89.92c0-4,3-7.41,7.25-8.47l12.71-3.17.32-.14.73-.3.26.75a13.45,13.45,0,0,0,12.93,8.78,13.52,13.52,0,0,0,12.86-8.58l.23-.64,13.2,3.3c4.24,1.06,7.22,4.51,7.25,8.39v9Z" transform="translate(-20.46 -29.56)"/><path class="cls-7" d="M42.72,78.84a14.66,14.66,0,0,0,27.2.2l12.55,3.14c3.82.95,6.65,4,6.68,7.67V98H22.91V89.85c0-3.62,2.86-6.72,6.69-7.67L42.31,79l.41-.16m.91-2-1.48.6-.11,0-.19.08L29.23,80.72c-4.57,1.15-7.78,4.89-7.82,9.12v9.7H90.65v-9.7c0-4.23-3.25-8-7.82-9.12L70.29,77.59,69,77.26l-.46,1.27a12.75,12.75,0,0,1-12.15,8.09,12.71,12.71,0,0,1-12.22-8.27Z" transform="translate(-20.46 -29.56)"/><path class="cls-7" d="M64.2,63.87a50.2,50.2,0,0,1-5-3.07,2.39,2.39,0,0,0-1.39-.44H54.11a2.45,2.45,0,0,0-1.38.43,47.09,47.09,0,0,1-5,3.08c-.42.21,3.33.94,5,.3.55-.2,2.69-1.05,3.21-1.34.52.29,2.65,1.14,3.2,1.34,1.69.64,5.43-.09,5-.3" transform="translate(-20.46 -29.56)"/><path class="cls-7" d="M69.33,55.54l-.67,2.22a3.32,3.32,0,0,1-1.29,1.79l-.08.05-1.54,1L62.35,63A1.29,1.29,0,0,0,61.81,64v1.41a3.53,3.53,0,0,1-2,3.23l-1.37.64a.9.9,0,0,1-1.26-.85V66.93h.16a.49.49,0,0,0,.48-.5.5.5,0,0,0-.48-.5H54.64a.5.5,0,0,0-.48.5.49.49,0,0,0,.48.5h.16v1.53a.9.9,0,0,1-1.26.85l-1.37-.64a3.55,3.55,0,0,1-2-3.23V64A1.27,1.27,0,0,0,49.62,63l-3.4-2.33-1.54-1-.08-.05a3.32,3.32,0,0,1-1.29-1.79l-.67-2.22-1,.23,1.28,6a6.45,6.45,0,0,0,1.36,2.79l4.83,5.74a3.93,3.93,0,0,0,1,.82l4.26,2.61a3.17,3.17,0,0,0,1.62.47,3.13,3.13,0,0,0,1.61-.47l4.26-2.61a3.93,3.93,0,0,0,1-.82l4.83-5.74A6.45,6.45,0,0,0,69,61.78l1.28-6Z" transform="translate(-20.46 -29.56)"/></g></svg>