<?xml version="1.0" encoding="utf-8"?>
<!-- Generator: Adobe Illustrator 24.0.1, SVG Export Plug-In . SVG Version: 6.00 Build 0)  -->
<svg version="1.1" id="Camada_1" xmlns="http://www.w3.org/2000/svg" xmlns:xlink="http://www.w3.org/1999/xlink" x="0px" y="0px"
	 viewBox="0 0 302.7 243.5" style="enable-background:new 0 0 302.7 243.5;" xml:space="preserve">
<style type="text/css">
	.st0{fill:#4AB4D8;}
	.st1{fill:#E30613;}
</style>
<g>
	<g>
		<path class="st0" d="M10.1,16.6C10,16.7,9.9,16.8,9.9,17c-0.1,0.2-0.1,0.3-0.1,0.3c-0.1,0.1-0.1,0.7-0.2,1.8
			c-0.1,1.1-0.1,2.4-0.1,4c0,1.5-0.1,3.1-0.1,4.8c0,1.7,0.1,3.1,0.2,4.3c0.1,1,0.4,2,0.8,2.9c0.4,1,1.2,1.6,2.2,1.9
			c0.8,0.1,1.5,0,2.2-0.3c0.7-0.3,1.2-0.8,1.5-1.5c0.4-0.8,0.5-1.6,0.5-2.5c-0.1-0.9,0-1.8,0.2-2.6c0.5,0.1,1,0.1,1.6,0.1
			c0.6,0,1.2-0.1,1.9-0.1c0.6,0,1.2,0,1.9,0.1c0.6,0,1.2,0.1,1.6,0.3c0.6,1.8,0.7,3.6,0.5,5.4c-0.3,1.8-0.9,3.4-1.8,4.8
			c-0.9,1.4-2.2,2.6-3.7,3.5c-1.5,0.9-3.2,1.4-5.1,1.4c-1.3,0.2-2.5,0.2-3.9,0c-1.3-0.2-2.6-0.5-3.7-1C5,43.9,4,43.2,3.3,42.2
			c-0.8-1-1.2-2.2-1.4-3.6c-0.1-1.3-0.1-2.6-0.2-3.9c0-1.4-0.1-2.9-0.1-4.6c0-1.7,0-3.6,0-5.7c0-2.1,0-4.6,0.1-7.4
			c-0.1-0.6,0-1.2,0.1-1.8c0.1-0.6,0.3-1.2,0.5-1.7c0.3-0.9,0.7-1.7,1.2-2.5c0.5-0.8,1-1.4,1.7-2C5.5,8.6,6,8.4,6.4,8.2
			C6.9,8,7.3,7.8,7.8,7.7C9.4,7.1,11,6.9,12.6,7c1.6,0.1,3,0.5,4.4,1.1c1.4,0.6,2.6,1.4,3.7,2.4c1.1,1,2,2.2,2.7,3.5
			c0.7,1.3,1.1,2.7,1.2,4.3c0.1,1.5-0.1,3.1-0.6,4.7c-1.3,0.3-2.5,0.4-3.8,0.3c-1.2-0.1-2.5-0.3-3.8-0.5c-0.1-0.7-0.2-1.4-0.2-2.2
			c0-0.8-0.1-1.6-0.3-2.3c-0.2-0.7-0.5-1.3-1-1.7c-0.5-0.5-1.2-0.7-2.2-0.6c-0.5,0.1-0.9,0.2-1.4,0.3C10.7,16.2,10.3,16.4,10.1,16.6
			z"/>
		<path class="st0" d="M49.9,10c0.2,4.5,0.3,8.9,0.2,13.5c-0.1,4.5-0.3,9-0.8,13.5c-0.3,2.3-1.1,4.2-2.6,5.8s-3.4,2.5-5.9,2.8
			c-1.5,0.1-3,0.1-4.5-0.2c-1.6-0.3-3-0.7-4.3-1.4c-1.3-0.7-2.3-1.6-3.2-2.7c-0.9-1.1-1.3-2.5-1.4-4.1c0-4.6,0.1-9.2,0.2-13.9
			c0.1-4.7,0.1-9.3,0.1-13.9l-0.1-0.1h0.1c0.5,0,1.1,0,1.7-0.1c0.6,0,1.3-0.1,2-0.1c0.7,0,1.3,0,1.9,0.1c0.6,0.1,1.2,0.1,1.7,0.3
			v0.1c-0.4,8.4-0.2,16.9,0.5,25.6c0.2,0.8,0.7,1.4,1.3,1.8c0.6,0.4,1.3,0.6,2,0.5c0.7,0,1.3-0.3,1.9-0.7c0.6-0.5,1-1.1,1.1-1.9
			c0.2-4.2,0.3-8.4,0.3-12.7c0-4.3,0.1-8.5,0.2-12.5c0.5,0,1-0.1,1.7-0.2c0.7-0.1,1.4-0.1,2.2-0.2c0.7,0,1.4,0,2.1,0.1
			C48.9,9.6,49.5,9.8,49.9,10z"/>
		<path class="st0" d="M78.7,44.7L78.7,44.7c-1.2,0-2.5,0-4,0.1c-1.5,0.1-3,0.1-4.6,0H70c-0.3-0.8-0.8-1.8-1.3-2.9
			c-0.5-1.1-1.1-2.3-1.7-3.5c-0.6-1.2-1.3-2.4-2-3.6c-0.7-1.2-1.5-2.2-2.2-3.1l-0.1-0.2c-0.1,0.8-0.2,1.8-0.2,2.9
			c0,1.2,0,2.4,0.1,3.6c0.1,1.2,0.1,2.4,0.2,3.5s0.1,2,0.2,2.7c-0.6,0.2-1.4,0.4-2.3,0.5c-1,0.1-1.9,0.1-2.8,0.1c-0.9,0-1.8,0-2.5,0
			c-0.7,0-1.2,0-1.4,0c0.1,0,0.1-0.5,0.2-1.4c0-1,0.1-2.2,0.1-3.8c0-1.6,0-3.4,0-5.4c0-2,0-4.1,0-6.3c0-2.2-0.1-4.3-0.1-6.5
			c-0.1-2.1-0.1-4.1-0.1-5.9c0-1.8-0.1-3.3-0.1-4.6c-0.1-1.3-0.1-2.1-0.2-2.6c1.9-0.3,4.1-0.5,6.4-0.8c2.3-0.2,4.8-0.2,7.3,0.1
			c2.1,0.1,3.9,0.7,5.5,1.8c1.6,1.1,2.9,2.4,3.8,4c0.9,1.6,1.4,3.4,1.4,5.3c0.1,1.9-0.5,3.8-1.5,5.6c-0.7,1.3-1.5,2.3-2.6,3.1
			c-1.1,0.8-2.5,1.3-4.1,1.4h-0.2h-0.1V29c0.7,1.3,1.5,2.6,2.4,3.8c0.9,1.3,1.7,2.5,2.6,3.8s1.6,2.6,2.4,3.9
			C77.5,41.9,78.2,43.3,78.7,44.7z M61.1,15.7c0,0.5,0.1,1,0.1,1.5c0,0.6,0,1.2,0,1.7c0,0.6,0,1.2,0,1.7c0,0.6,0.1,1,0.1,1.4h0.1
			c0.8,0.1,1.7,0.1,2.6,0.2c0.9,0,1.8,0,2.7-0.2c0.7-0.1,1.2-0.5,1.5-1c0.4-0.5,0.6-1.1,0.7-1.8c0.1-0.6,0-1.3-0.2-1.9
			c-0.2-0.6-0.6-1.2-1-1.5c-0.8-0.7-1.7-1-2.9-1C63.5,15,62.3,15.3,61.1,15.7z"/>
		<path class="st0" d="M102.9,20.2L102.9,20.2c-1.3,0.2-2.6,0.3-4,0.4c-1.4,0.1-2.7-0.1-3.9-0.4c0.2-0.9,0-1.7-0.6-2.3
			c-0.6-0.6-1.3-1-2.1-1.2c-0.8-0.2-1.6-0.1-2.4,0.3c-0.8,0.3-1.2,1-1.4,2c-0.1,0.2-0.1,0.5-0.1,0.7c0,0.2,0,0.5,0.1,0.7
			c0.3,0.8,0.7,1.4,1.4,1.7c0.6,0.3,1.3,0.5,2,0.6c1.8,0.2,3.6,0.8,5.1,1.8c1.6,1,2.9,2.2,3.9,3.7c0.6,0.8,1.1,1.7,1.4,2.6
			c0.3,0.9,0.5,1.9,0.5,2.8c0.1,1,0,2-0.2,2.9c-0.2,1-0.5,1.9-0.9,2.8c-0.4,1.1-1,2-1.7,2.8c-0.7,0.8-1.5,1.4-2.4,1.9
			c-0.9,0.5-1.8,0.8-2.9,1.1s-2.1,0.3-3.2,0.3c-1.5,0-3.1-0.3-4.6-0.8c-1.5-0.5-2.9-1.2-4-2.1c-1.2-0.9-2.1-2-2.8-3.3
			s-1-2.8-0.9-4.5v-0.2v-0.2c1.2-0.2,2.6-0.2,4-0.1c1.5,0.1,2.8,0.1,4,0.1c0.1,1.1,0.5,1.9,1.3,2.5c0.8,0.6,1.7,0.8,2.6,0.8
			s1.7-0.3,2.4-0.9c0.7-0.6,0.9-1.5,0.7-2.7c-0.1-0.8-0.4-1.5-0.9-2c-0.5-0.5-1.1-0.9-1.9-1.2c-0.7-0.3-1.5-0.5-2.3-0.7
			c-0.8-0.2-1.6-0.3-2.3-0.4c-0.7-0.1-1.3-0.4-1.9-0.7c-0.6-0.3-1.1-0.7-1.6-1.1c-1.6-1.5-2.6-3.2-3.1-5.1c-0.5-1.8-0.5-3.6-0.1-5.4
			c0.4-1.7,1.2-3.3,2.4-4.7c1.2-1.4,2.6-2.5,4.2-3.2c0.8-0.3,1.8-0.6,2.8-0.7c1-0.1,2-0.2,3.1-0.1c1,0.1,2,0.2,3,0.4
			c1,0.2,1.9,0.6,2.7,0.9c1.7,0.9,3,2.2,3.9,3.9C103.2,15.4,103.4,17.6,102.9,20.2z"/>
		<path class="st0" d="M126.9,14c0.2,0.5,0.4,1.1,0.5,1.6c0.1,0.5,0.2,1.1,0.3,1.6c0.1,0.9,0.1,1.7,0.1,2.6c0,0.9,0,1.7,0,2.6
			c-0.1,1.8-0.1,3.6-0.1,5.4c0,1.7,0,3.5-0.2,5.3l-0.2,1.7c-0.1,1.2-0.3,2.4-0.6,3.7c-0.3,1.2-0.8,2.4-1.4,3.4
			c-0.6,0.8-1.4,1.5-2.3,2s-2,0.9-3,1.2c-1,0.3-2,0.5-2.9,0.5c-1,0.1-2,0.1-3,0c-0.7-0.1-1.4-0.2-2.1-0.3s-1.3-0.3-1.9-0.6
			c-0.6-0.3-1.2-0.6-1.6-1.1c-0.5-0.4-0.9-1-1.2-1.7c-0.5-0.9-0.8-1.8-1-2.8c-0.2-1-0.3-2-0.3-3c-0.1-2.7-0.2-5.4-0.3-8.2
			c-0.1-2.7-0.1-5.5,0.1-8.2c0-1.6,0.2-3.1,0.6-4.7c0.4-1.6,1.1-3,2.2-4.2c0.3-0.3,0.7-0.7,1.2-0.9c1.1-0.6,2.4-1,3.7-1.2
			c1.3-0.3,2.7-0.4,4-0.3c1.3,0.1,2.6,0.3,3.9,0.7c1.3,0.4,2.4,1,3.4,1.7C125.7,11.8,126.4,12.8,126.9,14z M121.3,26.7l-0.1-3.5
			c0,0,0-0.4-0.1-1.1c-0.1-0.7-0.1-1.3-0.1-1.9c-0.1-1-0.3-1.9-0.8-2.7c-0.5-0.8-1.1-1.4-1.9-1.8c-0.7-0.3-1.4-0.3-2.1-0.2
			c-0.7,0.2-1.4,0.5-1.9,0.9c-1.2,0.9-2,2.1-2.5,3.6c-0.3,1.3-0.4,2.7-0.5,4.2c-0.1,1.5,0,2.9,0,4.4c0.2,1.2,0.3,2.5,0.4,3.7
			c0.1,1.3,0.3,2.5,0.6,3.6c0.3,0.7,0.9,1.2,1.5,1.6c0.7,0.4,1.4,0.6,2.1,0.7c0.8,0.1,1.5-0.1,2.3-0.3s1.4-0.7,1.9-1.3
			c0.3-0.4,0.5-0.8,0.7-1c0.1-0.3,0.2-0.5,0.3-0.9c0-0.3,0-0.7,0-1.1s0-1,0.1-1.7c0-0.7,0.1-1.3,0.1-1.8c0-0.5,0-0.8,0-0.9V26.7z"/>
		<path class="st0" d="M164.9,19.3L164.9,19.3c0,0.3,0,0.5,0,0.8c0,0.2,0,0.4-0.1,0.7c-0.2,1.7-0.8,3.2-1.6,4.6
			c-0.9,1.4-2,2.6-3.3,3.5c-1.3,1-2.8,1.7-4.4,2.1c-1.6,0.4-3.2,0.5-4.9,0.2c0,0.5,0.1,1,0.1,1.4c0,0.5,0,1.1,0,2s0,2.1,0,3.6
			c0,1.5,0.1,3.5,0.1,6v0.1c0,0-0.1,0-0.1,0c0,0,0,0-0.1,0c-0.5,0.1-1.1,0.2-1.9,0.3c-0.7,0.1-1.5,0.1-2.3,0.1c-0.8,0-1.6,0-2.4,0
			c-0.8,0-1.5-0.1-2.1-0.2c-0.1-2.5-0.2-5.3-0.2-8.3c0-3,0-6,0-9.2c0-3.1,0-6.3,0-9.4c0-3.2-0.1-6.2-0.2-9.1c1.4-0.4,3-0.7,4.7-0.8
			c1.7-0.2,3.4-0.2,5.1-0.1c1.7,0.1,3.3,0.4,4.9,0.9c1.6,0.5,3,1.2,4.2,2.1c1.2,0.9,2.3,2.1,3.1,3.5
			C164.4,15.6,164.8,17.3,164.9,19.3z M155.8,17.1c-0.9-0.7-1.9-1.1-3-1.3c-1.1-0.2-2.3-0.1-3.4,0.1c-0.1,0-0.1,0-0.2,0.1
			c0,0.6,0,1.3,0,2c0,0.7,0,1.4,0,2.1c0,0.7,0.1,1.4,0.1,2c0.1,0.6,0.2,1.2,0.3,1.7h0.2c0.6,0,1.1-0.1,1.8-0.1
			c0.6,0,1.2-0.1,1.9-0.1c0.6-0.1,1.2-0.2,1.8-0.4c0.6-0.2,1.1-0.5,1.5-0.9c0.3-0.4,0.5-0.8,0.6-1.3c0.1-0.5,0.1-1,0.1-1.5
			c-0.1-0.5-0.3-0.9-0.5-1.4S156.3,17.4,155.8,17.1z"/>
		<path class="st0" d="M182,26.6l3.9,18.3v0.1c-1,0.2-2.2,0.3-3.4,0.2c-1.3-0.1-2.4-0.2-3.5-0.4h-0.1c-0.2-0.6-0.4-1.2-0.6-2
			c-0.2-0.8-0.4-1.5-0.6-2.3c-0.2-0.8-0.4-1.6-0.6-2.3c-0.2-0.7-0.4-1.4-0.7-1.9c-0.5-0.1-0.8-0.1-1-0.1c-0.2,0-0.5,0-0.7,0
			s-0.4,0-0.6,0c-0.2,0-0.5,0-0.9,0c-0.2,0.6-0.4,1.2-0.6,2c-0.2,0.7-0.3,1.5-0.5,2.3c-0.2,0.8-0.3,1.6-0.5,2.4
			c-0.2,0.8-0.4,1.4-0.7,2c0,0-0.1,0-0.1,0c0,0,0,0-0.1,0c-0.3,0.1-1,0.1-2.1,0c-1.1-0.1-2.9-0.1-5.2-0.1c0,0-0.1,0-0.1-0.1
			c0.1-0.2,0.2-0.9,0.4-2s0.4-2.6,0.7-4.3s0.7-3.8,1.1-6.1c0.4-2.3,0.9-4.8,1.5-7.4c0.6-2.6,1.2-5.3,1.9-8.1
			c0.7-2.8,1.5-5.6,2.3-8.4c0.2,0,0.5-0.1,0.8-0.1c0.3,0,0.6,0,1.1,0c0.5,0,1,0,1.7,0c0.7,0,1.6-0.1,2.8-0.2
			c0.1,0.5,0.3,1.1,0.5,2.1c0.2,0.9,0.5,2,0.7,3.1c0.3,1.2,0.5,2.4,0.8,3.7c0.3,1.3,0.6,2.6,0.9,3.8c0.3,1.2,0.5,2.3,0.8,3.3
			C181.7,25.2,181.9,26,182,26.6z M176.7,30c-0.3-3-0.7-5.3-0.9-7c-0.3-1.7-0.5-2.8-0.7-3.4c-0.2-0.6-0.4-0.7-0.6-0.4
			c-0.2,0.3-0.4,1-0.5,2c-0.2,1-0.3,2.3-0.5,3.8c-0.2,1.5-0.4,3.2-0.7,5c0.6,0,1.2,0,1.9,0C175.4,30,176,30,176.7,30z"/>
		<path class="st0" d="M212.7,44.7L212.7,44.7c-1.2,0-2.5,0-4,0.1c-1.5,0.1-3,0.1-4.6,0H204c-0.3-0.8-0.8-1.8-1.3-2.9
			c-0.5-1.1-1.1-2.3-1.7-3.5c-0.6-1.2-1.3-2.4-2-3.6c-0.7-1.2-1.5-2.2-2.2-3.1l-0.1-0.2c-0.1,0.8-0.2,1.8-0.2,2.9
			c0,1.2,0,2.4,0.1,3.6c0.1,1.2,0.1,2.4,0.2,3.5s0.1,2,0.2,2.7c-0.6,0.2-1.4,0.4-2.3,0.5c-1,0.1-1.9,0.1-2.8,0.1c-0.9,0-1.8,0-2.5,0
			c-0.7,0-1.2,0-1.4,0c0.1,0,0.1-0.5,0.2-1.4c0-1,0.1-2.2,0.1-3.8c0-1.6,0-3.4,0-5.4c0-2,0-4.1,0-6.3c0-2.2-0.1-4.3-0.1-6.5
			c-0.1-2.1-0.1-4.1-0.1-5.9c0-1.8-0.1-3.3-0.1-4.6c-0.1-1.3-0.1-2.1-0.2-2.6c1.9-0.3,4.1-0.5,6.4-0.8c2.3-0.2,4.8-0.2,7.3,0.1
			c2.1,0.1,3.9,0.7,5.5,1.8c1.6,1.1,2.9,2.4,3.8,4c0.9,1.6,1.4,3.4,1.4,5.3c0.1,1.9-0.5,3.8-1.5,5.6c-0.7,1.3-1.5,2.3-2.6,3.1
			c-1.1,0.8-2.5,1.3-4.1,1.4h-0.2h-0.1V29c0.7,1.3,1.5,2.6,2.4,3.8c0.9,1.3,1.7,2.5,2.6,3.8s1.6,2.6,2.4,3.9
			C211.5,41.9,212.2,43.3,212.7,44.7z M195.1,15.7c0,0.5,0.1,1,0.1,1.5c0,0.6,0,1.2,0,1.7c0,0.6,0,1.2,0,1.7c0,0.6,0.1,1,0.1,1.4
			h0.1c0.8,0.1,1.7,0.1,2.6,0.2c0.9,0,1.8,0,2.7-0.2c0.7-0.1,1.2-0.5,1.5-1c0.4-0.5,0.6-1.1,0.7-1.8c0.1-0.6,0-1.3-0.2-1.9
			c-0.2-0.6-0.6-1.2-1-1.5c-0.8-0.7-1.7-1-2.9-1C197.5,15,196.3,15.3,195.1,15.7z"/>
		<path class="st0" d="M231.7,26.6l3.9,18.3v0.1c-1,0.2-2.2,0.3-3.4,0.2c-1.3-0.1-2.4-0.2-3.5-0.4h-0.1c-0.2-0.6-0.4-1.2-0.6-2
			c-0.2-0.8-0.4-1.5-0.6-2.3c-0.2-0.8-0.4-1.6-0.6-2.3c-0.2-0.7-0.4-1.4-0.7-1.9c-0.5-0.1-0.8-0.1-1-0.1c-0.2,0-0.5,0-0.7,0
			s-0.4,0-0.6,0c-0.2,0-0.5,0-0.9,0c-0.2,0.6-0.4,1.2-0.6,2c-0.2,0.7-0.3,1.5-0.5,2.3c-0.2,0.8-0.3,1.6-0.5,2.4
			c-0.2,0.8-0.4,1.4-0.7,2c0,0-0.1,0-0.1,0c0,0,0,0-0.1,0c-0.3,0.1-1,0.1-2.1,0c-1.1-0.1-2.9-0.1-5.2-0.1c0,0-0.1,0-0.1-0.1
			c0.1-0.2,0.2-0.9,0.4-2s0.4-2.6,0.7-4.3s0.7-3.8,1.1-6.1c0.4-2.3,0.9-4.8,1.5-7.4c0.6-2.6,1.2-5.3,1.9-8.1
			c0.7-2.8,1.5-5.6,2.3-8.4c0.2,0,0.5-0.1,0.8-0.1c0.3,0,0.6,0,1.1,0c0.5,0,1,0,1.7,0c0.7,0,1.6-0.1,2.8-0.2
			c0.1,0.5,0.3,1.1,0.5,2.1c0.2,0.9,0.5,2,0.7,3.1c0.3,1.2,0.5,2.4,0.8,3.7c0.3,1.3,0.6,2.6,0.9,3.8c0.3,1.2,0.5,2.3,0.8,3.3
			C231.3,25.2,231.5,26,231.7,26.6z M226.4,30c-0.3-3-0.7-5.3-0.9-7c-0.3-1.7-0.5-2.8-0.7-3.4c-0.2-0.6-0.4-0.7-0.6-0.4
			c-0.2,0.3-0.4,1-0.5,2c-0.2,1-0.3,2.3-0.5,3.8c-0.2,1.5-0.4,3.2-0.7,5c0.6,0,1.2,0,1.9,0C225,30,225.7,30,226.4,30z"/>
		<path class="st0" d="M18.4,93.9c-1.1,0.2-2.2,0.3-3.4,0.4c-1.2,0.1-2.3,0.2-3.3,0.4h-0.1c-0.2,2.2-0.3,4.4-0.3,6.5
			c0,2.2-0.1,4.3-0.1,6.2c-0.7,0.1-1.5,0.1-2.5,0.2c-1,0-1.9,0.1-2.8,0.1s-1.8,0-2.5-0.1c-0.7,0-1.1-0.1-1.3-0.2l-0.1-0.1
			c0-2.1,0-4,0-5.9s0-3.6,0-5.3c0-1.7,0-3.4,0-5.1s0-3.5,0-5.4c0-1.9,0-4,0-6.2c0-2.2,0-4.7,0-7.4V72c0.6-0.1,1.4-0.2,2.6-0.3
			c1.1-0.1,2.4-0.2,3.8-0.3s2.9-0.2,4.5-0.2c1.6-0.1,3.1-0.1,4.7-0.1c1.5,0,3,0.1,4.3,0.2c1.4,0.1,2.5,0.3,3.5,0.6c0,0.5,0,1,0,1.7
			c0,0.7,0,1.4,0,2.2c0,0.7,0,1.5,0,2.1s0,1.2-0.1,1.7c-0.9,0.1-2,0.1-3.2,0.2C21.2,79.9,20,80,18.8,80c-1.2,0.1-2.5,0.1-3.7,0.2
			c-1.2,0.1-2.4,0.2-3.5,0.3c-0.4,0.9-0.5,1.8-0.5,2.6c0.1,0.8,0.3,1.5,0.6,2.1c0,0,0.1,0.1,0.1,0.1c0.5,0.1,1,0.1,1.6,0.1
			c0.6,0,1.2,0,1.8,0c0.6,0,1.2,0,1.7-0.1c0.6,0,1-0.1,1.4-0.1c0.1,0.2,0.2,0.7,0.2,1.4c0,0.7,0,1.5,0,2.3c0,0.9-0.1,1.7-0.1,2.6
			c0,0.9,0,1.6,0.1,2.2C18.6,93.8,18.5,93.9,18.4,93.9z"/>
		<path class="st0" d="M41.3,89.2l3.9,18.3v0.1c-1,0.2-2.2,0.3-3.4,0.2c-1.3-0.1-2.4-0.2-3.5-0.4h-0.1c-0.2-0.6-0.4-1.2-0.6-2
			c-0.2-0.8-0.4-1.5-0.6-2.3c-0.2-0.8-0.4-1.6-0.6-2.3c-0.2-0.7-0.4-1.4-0.7-1.9c-0.5-0.1-0.8-0.1-1-0.1c-0.2,0-0.5,0-0.7,0
			c-0.2,0-0.4,0-0.6,0c-0.2,0-0.5,0-0.9,0c-0.2,0.6-0.4,1.2-0.6,2c-0.2,0.7-0.3,1.5-0.5,2.3c-0.2,0.8-0.3,1.6-0.5,2.4
			c-0.2,0.8-0.4,1.4-0.7,2c0,0-0.1,0-0.1,0c0,0,0,0-0.1,0c-0.3,0.1-1,0.1-2.1,0c-1.1-0.1-2.9-0.1-5.2-0.1c0,0-0.1,0-0.1-0.1
			c0.1-0.2,0.2-0.9,0.4-2c0.2-1.1,0.4-2.6,0.7-4.3c0.3-1.8,0.7-3.8,1.1-6.1c0.4-2.3,0.9-4.8,1.5-7.4c0.6-2.6,1.2-5.3,1.9-8.1
			c0.7-2.8,1.5-5.6,2.3-8.4c0.2,0,0.5-0.1,0.8-0.1c0.3,0,0.6,0,1.1,0c0.5,0,1,0,1.7,0c0.7,0,1.6-0.1,2.8-0.2
			c0.1,0.5,0.3,1.1,0.5,2.1c0.2,0.9,0.5,2,0.7,3.1c0.3,1.2,0.5,2.4,0.8,3.7c0.3,1.3,0.6,2.6,0.9,3.8c0.3,1.2,0.5,2.3,0.8,3.3
			C41,87.8,41.2,88.6,41.3,89.2z M36,92.6c-0.3-3-0.7-5.3-0.9-7c-0.3-1.7-0.5-2.8-0.7-3.4c-0.2-0.6-0.4-0.7-0.6-0.4
			c-0.2,0.3-0.4,1-0.5,2c-0.2,1-0.3,2.3-0.5,3.8c-0.2,1.5-0.4,3.2-0.7,5c0.6,0,1.2,0,1.9,0C34.7,92.6,35.4,92.6,36,92.6z"/>
		<path class="st0" d="M54.7,79.2c-0.1,0.1-0.1,0.2-0.2,0.3c-0.1,0.2-0.1,0.3-0.1,0.3c-0.1,0.1-0.1,0.7-0.2,1.8
			c-0.1,1.1-0.1,2.4-0.1,4c0,1.5-0.1,3.1-0.1,4.8s0.1,3.1,0.2,4.3c0.1,1,0.4,2,0.8,2.9c0.4,1,1.2,1.6,2.2,1.9c0.8,0.1,1.5,0,2.2-0.3
			c0.7-0.3,1.2-0.8,1.5-1.5c0.4-0.8,0.5-1.6,0.5-2.5c-0.1-0.9,0-1.8,0.2-2.6c0.5,0.1,1,0.1,1.6,0.1c0.6,0,1.2-0.1,1.9-0.1
			c0.6,0,1.2,0,1.9,0.1c0.6,0,1.2,0.1,1.6,0.3c0.6,1.8,0.7,3.6,0.5,5.4c-0.3,1.8-0.9,3.4-1.8,4.8c-0.9,1.4-2.2,2.6-3.7,3.5
			c-1.5,0.9-3.2,1.4-5.1,1.4c-1.3,0.2-2.5,0.2-3.9,0c-1.3-0.2-2.6-0.5-3.7-1c-1.1-0.5-2.1-1.3-2.9-2.3c-0.8-1-1.2-2.2-1.4-3.6
			c-0.1-1.3-0.1-2.6-0.2-3.9c0-1.4-0.1-2.9-0.1-4.6c0-1.7,0-3.6,0-5.7c0-2.1,0-4.6,0.1-7.4c-0.1-0.6,0-1.2,0.1-1.8
			c0.1-0.6,0.3-1.2,0.5-1.7c0.3-0.9,0.7-1.7,1.2-2.5c0.5-0.8,1-1.4,1.7-2c0.4-0.3,0.8-0.5,1.3-0.7c0.5-0.2,0.9-0.4,1.4-0.5
			c1.6-0.5,3.2-0.7,4.7-0.6c1.6,0.1,3,0.5,4.4,1.1c1.4,0.6,2.6,1.4,3.7,2.4c1.1,1,2,2.2,2.7,3.5c0.7,1.3,1.1,2.7,1.2,4.2
			c0.1,1.5-0.1,3.1-0.6,4.7c-1.3,0.3-2.5,0.4-3.8,0.3c-1.2-0.1-2.5-0.3-3.8-0.5c-0.1-0.7-0.2-1.4-0.2-2.2c0-0.8-0.1-1.6-0.3-2.3
			c-0.2-0.7-0.5-1.3-1-1.7c-0.5-0.5-1.2-0.7-2.2-0.6c-0.5,0.1-0.9,0.2-1.4,0.3C55.4,78.7,55,78.9,54.7,79.2z"/>
		<path class="st0" d="M80.4,70.8h1.3V71c0,3,0,6-0.1,9s-0.2,6.1-0.2,9.1c-0.1,3-0.1,6.1,0,9.1c0,3,0.1,6,0.3,9
			c-0.3,0.3-0.9,0.4-1.7,0.5c-0.9,0.1-1.8,0.1-2.9,0c-1,0-2-0.1-2.9-0.1c-0.9-0.1-1.6,0-1.9,0.1c0.2-3.1,0.3-6.3,0.3-9.4
			c0-3.2-0.1-6.3-0.2-9.4c-0.1-3.1-0.1-6.2-0.2-9.2c0-3,0.1-6,0.4-8.9v-0.1c0.2,0,0.5,0,1,0c0.5,0.1,0.9,0.1,1.1,0.1
			c0.6,0,1.3,0.1,2.2,0.1C77.6,70.8,78.8,70.8,80.4,70.8z"/>
		<path class="st0" d="M107.5,102.7c0.1,1.3,0.1,2.2,0.1,2.8c0,0.6,0,1.1-0.1,1.4c-0.1,0.3-0.2,0.5-0.4,0.5c-0.2,0-0.5,0-0.9,0
			c-0.4,0-0.9,0-1.5,0s-1.6,0.1-3.1,0.1c-1.4,0-3.4,0.1-5.9,0.1s-5.9,0-10.1-0.1v-0.9c0.1-2.6,0.2-5,0.3-7.1
			c0.1-2.1,0.1-4.1,0.1-5.9c0-1.8,0-3.6,0-5.3c0-1.7,0-3.4-0.1-5.2c0-1.8-0.1-3.7-0.1-5.7c0-2-0.1-4.2-0.1-6.6
			c0.3-0.1,0.9-0.3,1.6-0.3c0.7-0.1,1.5-0.1,2.3-0.1c0.8,0,1.7,0.1,2.5,0.2c0.8,0.1,1.4,0.3,1.9,0.5c-0.1,2.3-0.1,4.6-0.1,7
			c0,2.4,0,4.8,0.1,7.2c0,2.4,0.1,4.8,0.1,7.2c0,2.4,0,4.7,0,6.9v0.1c0.2-0.1,0.7-0.1,1.4-0.1s1.5,0,2.4,0.1c0.9,0,1.9,0.1,2.9,0.1
			c1,0.1,2,0.1,2.9,0.1c0.9,0,1.7,0.1,2.5,0.1s1.2,0,1.5,0c0,0.4,0,0.8-0.1,1.1c0,0.3-0.1,0.7-0.1,1.1
			C107.4,102.1,107.4,102.4,107.5,102.7z"/>
		<path class="st0" d="M118,70.8h1.3V71c0,3,0,6-0.1,9s-0.2,6.1-0.2,9.1c-0.1,3-0.1,6.1,0,9.1c0,3,0.1,6,0.3,9
			c-0.3,0.3-0.9,0.4-1.7,0.5c-0.9,0.1-1.8,0.1-2.9,0c-1,0-2-0.1-2.9-0.1c-0.9-0.1-1.6,0-1.9,0.1c0.2-3.1,0.3-6.3,0.3-9.4
			c0-3.2-0.1-6.3-0.2-9.4c-0.1-3.1-0.1-6.2-0.2-9.2c0-3,0.1-6,0.4-8.9v-0.1c0.2,0,0.5,0,1,0c0.5,0.1,0.9,0.1,1.1,0.1
			c0.6,0,1.3,0.1,2.2,0.1C115.2,70.8,116.4,70.8,118,70.8z"/>
		<path class="st0" d="M143.8,71.2c0.1,1.1,0.1,2.5,0.1,4c0,1.5-0.1,2.9-0.3,4.1c-0.7-0.1-1.5-0.2-2.5-0.2c-1,0-2.3,0.1-3.9,0.2
			h-0.1H137c0,0,0,0.1,0,0.1c0,0,0,0,0,0.1c0,0.2-0.1,0.4-0.1,0.8c0,0.4,0,0.9,0,1.7s0,1.8,0,3.1c0,1.3,0,2.9,0.1,4.9
			c0,2,0.1,4.4,0.1,7.2c0,2.8,0.1,6.1,0.2,9.9v0.1v0.1c-0.6,0.1-1.3,0.2-2.1,0.2c-0.7,0-1.5,0-2.2,0c-0.7,0-1.5,0-2.2,0
			c-0.7,0-1.4,0.1-2,0.2c0-0.1,0-0.8,0-1.9c0-1.1,0.1-2.8,0.1-5c0-2.2,0-5-0.1-8.5c-0.1-3.4-0.2-7.6-0.4-12.5l-0.1-0.1
			c-0.4-0.2-0.9-0.3-1.6-0.4c-0.6-0.1-1.3-0.1-1.9-0.1c-0.6,0-1.2,0-1.7,0s-0.9,0-1.1-0.1c-0.1-0.1-0.1-0.5-0.2-1
			c-0.1-0.6-0.1-1.2-0.1-2s0-1.6,0-2.5s0-1.8,0.1-2.6c0,0,0-0.1,0-0.1c0,0,0,0,0-0.1c3.5,0,7.2-0.1,11-0.1
			C136.5,70.7,140.2,70.8,143.8,71.2z"/>
		<path class="st0" d="M160.9,89.2l3.9,18.3v0.1c-1,0.2-2.2,0.3-3.4,0.2c-1.3-0.1-2.4-0.2-3.5-0.4h-0.1c-0.2-0.6-0.4-1.2-0.6-2
			c-0.2-0.8-0.4-1.5-0.6-2.3c-0.2-0.8-0.4-1.6-0.6-2.3c-0.2-0.7-0.4-1.4-0.7-1.9c-0.5-0.1-0.8-0.1-1-0.1c-0.2,0-0.5,0-0.7,0
			s-0.4,0-0.6,0c-0.2,0-0.5,0-0.9,0c-0.2,0.6-0.4,1.2-0.6,2c-0.2,0.7-0.3,1.5-0.5,2.3c-0.2,0.8-0.3,1.6-0.5,2.4
			c-0.2,0.8-0.4,1.4-0.7,2c0,0-0.1,0-0.1,0c0,0,0,0-0.1,0c-0.3,0.1-1,0.1-2.1,0c-1.1-0.1-2.9-0.1-5.2-0.1c0,0-0.1,0-0.1-0.1
			c0.1-0.2,0.2-0.9,0.4-2s0.4-2.6,0.7-4.3s0.7-3.8,1.1-6.1c0.4-2.3,0.9-4.8,1.5-7.4c0.6-2.6,1.2-5.3,1.9-8.1
			c0.7-2.8,1.5-5.6,2.3-8.4c0.2,0,0.5-0.1,0.8-0.1c0.3,0,0.6,0,1.1,0c0.5,0,1,0,1.7,0c0.7,0,1.6-0.1,2.8-0.2
			c0.1,0.5,0.3,1.1,0.5,2.1c0.2,0.9,0.5,2,0.7,3.1c0.3,1.2,0.5,2.4,0.8,3.7c0.3,1.3,0.6,2.6,0.9,3.8c0.3,1.2,0.5,2.3,0.8,3.3
			C160.5,87.8,160.7,88.6,160.9,89.2z M155.5,92.6c-0.3-3-0.7-5.3-0.9-7c-0.3-1.7-0.5-2.8-0.7-3.4c-0.2-0.6-0.4-0.7-0.6-0.4
			c-0.2,0.3-0.4,1-0.5,2c-0.2,1-0.3,2.3-0.5,3.8c-0.2,1.5-0.4,3.2-0.7,5c0.6,0,1.2,0,1.9,0C154.2,92.6,154.9,92.6,155.5,92.6z"/>
		<path class="st0" d="M185.1,75.3c0.8,1.2,1.4,2.4,1.9,3.7c0.5,1.3,0.9,2.6,1.2,4c0.2,0.6,0.3,1.1,0.3,1.6c0.1,0.5,0.1,1.1,0.1,1.6
			c-0.1,1.6-0.1,3.3-0.2,4.9c-0.1,1.7-0.2,3.3-0.5,4.9c0,0,0,0.1,0,0.1s0,0,0,0.1c-0.7,2.1-1.6,4-2.8,5.8c-1.2,1.8-2.5,3.6-3.8,5.2
			c-2.3,0.1-4.6,0.1-6.9,0.1c-2.3,0-4.6,0-6.8,0l-0.1,0.1c-0.4-2.7-0.6-5.6-0.7-8.5c-0.1-2.9-0.2-5.9-0.2-8.9s0-6.1,0.1-9.2
			c0.1-3.1,0-6.1,0-9.2c0,0,0.1-0.1,0.1-0.1c0,0,0-0.1,0.1-0.1c1-0.2,2-0.4,3.1-0.5c1.1-0.1,2.1-0.1,3.2-0.1c1.1,0,2.1,0,3.2,0.1
			c1.1,0,2.1,0,3.1,0c1.1,0.3,2.2,0.8,3.2,1.6C183.7,73.4,184.5,74.3,185.1,75.3z M180.3,94.2c0.6-0.9,1-1.9,1.3-3
			c0.3-1.1,0.3-2.3,0-3.5c-0.1-0.5-0.2-1.1-0.4-1.6c-0.1-0.6-0.3-1.1-0.6-1.6c-0.3-0.5-0.6-1-1-1.4c-0.4-0.4-0.9-0.7-1.5-0.9
			c-0.6-0.1-1.2-0.1-1.9-0.1s-1.4,0-2,0.2h-0.1h-0.1v0.2c0.1,0.9,0.1,1.9,0.1,3c0,1.1,0,2.2-0.1,3.4c0,1.2-0.1,2.3-0.1,3.5
			s0,2.4,0.1,3.6c0.4,0.3,0.9,0.5,1.6,0.5c0.7,0,1.3-0.1,2-0.2c0.2,0,0.3,0,0.5-0.1c0.1-0.1,0.3-0.2,0.5-0.2
			c0.3-0.2,0.7-0.5,0.9-0.8C179.9,94.8,180.1,94.5,180.3,94.2z"/>
		<path class="st0" d="M212.5,76.6c0.2,0.5,0.4,1.1,0.5,1.6c0.1,0.5,0.2,1.1,0.3,1.6c0.1,0.9,0.1,1.7,0.1,2.6s0,1.7,0,2.6
			c-0.1,1.8-0.1,3.6-0.1,5.4c0,1.7,0,3.5-0.2,5.3l-0.2,1.7c-0.1,1.2-0.3,2.4-0.6,3.7c-0.3,1.2-0.8,2.4-1.4,3.4
			c-0.6,0.8-1.4,1.5-2.3,2s-2,0.9-3,1.2c-1,0.3-2,0.5-2.9,0.5c-1,0.1-2,0.1-3,0c-0.7-0.1-1.4-0.2-2.1-0.3s-1.3-0.3-1.9-0.6
			c-0.6-0.3-1.2-0.6-1.6-1.1c-0.5-0.4-0.9-1-1.2-1.7c-0.5-0.9-0.8-1.8-1-2.8c-0.2-1-0.3-2-0.3-3c-0.1-2.7-0.2-5.4-0.3-8.2
			c-0.1-2.7-0.1-5.5,0.1-8.2c0-1.6,0.2-3.1,0.6-4.7c0.4-1.6,1.1-3,2.2-4.2c0.3-0.3,0.7-0.7,1.2-0.9c1.1-0.6,2.4-1,3.7-1.2
			c1.3-0.3,2.7-0.4,4-0.3s2.6,0.3,3.9,0.7c1.3,0.4,2.4,1,3.4,1.7C211.4,74.3,212.1,75.4,212.5,76.6z M207,89.3l-0.1-3.5
			c0,0,0-0.4-0.1-1.1c-0.1-0.7-0.1-1.3-0.1-1.9c-0.1-1-0.3-1.9-0.8-2.7c-0.5-0.8-1.1-1.4-1.9-1.8c-0.7-0.3-1.4-0.3-2.1-0.2
			c-0.7,0.2-1.4,0.5-1.9,0.9c-1.2,0.9-2,2.1-2.5,3.6c-0.3,1.3-0.4,2.7-0.5,4.2c-0.1,1.5,0,2.9,0,4.4c0.2,1.2,0.3,2.5,0.4,3.7
			c0.1,1.3,0.3,2.5,0.6,3.6c0.3,0.7,0.9,1.2,1.5,1.6c0.7,0.4,1.4,0.6,2.1,0.7c0.8,0.1,1.5-0.1,2.3-0.3s1.4-0.7,1.9-1.3
			c0.3-0.4,0.5-0.8,0.7-1c0.1-0.3,0.2-0.5,0.3-0.9c0-0.3,0-0.7,0-1.1s0-1,0.1-1.7c0-0.7,0.1-1.3,0.1-1.8c0-0.5,0-0.8,0-0.9V89.3z"/>
		<path class="st0" d="M241.8,107.3L241.8,107.3c-1.2,0-2.5,0-4,0.1c-1.5,0.1-3,0.1-4.6,0h-0.1c-0.3-0.8-0.8-1.8-1.3-2.9
			c-0.5-1.1-1.1-2.3-1.7-3.5c-0.6-1.2-1.3-2.4-2-3.6c-0.7-1.2-1.5-2.2-2.2-3.1l-0.1-0.2c-0.1,0.8-0.2,1.8-0.2,2.9
			c0,1.2,0,2.4,0.1,3.6c0.1,1.2,0.1,2.4,0.2,3.5s0.1,2,0.2,2.7c-0.6,0.2-1.4,0.4-2.3,0.5c-1,0.1-1.9,0.1-2.8,0.1c-0.9,0-1.8,0-2.5,0
			c-0.7,0-1.2,0-1.4,0c0.1,0,0.1-0.5,0.2-1.4c0-1,0.1-2.2,0.1-3.8c0-1.6,0-3.4,0-5.4c0-2,0-4.1,0-6.3c0-2.2-0.1-4.3-0.1-6.5
			c-0.1-2.1-0.1-4.1-0.1-5.9c0-1.8-0.1-3.3-0.1-4.6c-0.1-1.3-0.1-2.1-0.2-2.6c1.9-0.3,4.1-0.5,6.4-0.8c2.3-0.2,4.8-0.2,7.3,0.1
			c2.1,0.1,3.9,0.7,5.5,1.8c1.6,1.1,2.9,2.4,3.8,4c0.9,1.6,1.4,3.4,1.4,5.3c0.1,1.9-0.5,3.8-1.5,5.6c-0.7,1.3-1.5,2.3-2.6,3.1
			c-1.1,0.8-2.5,1.3-4.1,1.4h-0.2h-0.1v0.1c0.7,1.3,1.5,2.6,2.4,3.8c0.9,1.3,1.7,2.5,2.6,3.8s1.6,2.6,2.4,3.9
			C240.7,104.5,241.3,105.9,241.8,107.3z M224.3,78.3c0,0.5,0.1,1,0.1,1.5c0,0.6,0,1.2,0,1.7c0,0.6,0,1.2,0,1.7c0,0.6,0.1,1,0.1,1.4
			h0.1c0.8,0.1,1.7,0.1,2.6,0.2c0.9,0,1.8,0,2.7-0.2c0.7-0.1,1.2-0.5,1.5-1s0.6-1.1,0.7-1.8c0.1-0.6,0-1.3-0.2-1.9
			c-0.2-0.6-0.6-1.2-1-1.5c-0.8-0.7-1.7-1-2.9-1C226.7,77.6,225.5,77.8,224.3,78.3z"/>
		<path class="st0" d="M266.1,100.4v0.1c0.1,1.1,0.1,2.3,0.1,3.5c0,1.2-0.2,2.3-0.5,3.4c-3.5,0-7.2,0-10.8,0.1
			c-3.7,0.1-7.2,0-10.6-0.2c0-3,0-6-0.1-9c-0.1-3-0.1-5.9-0.2-8.9c0-3,0-5.9,0-8.9c0-3,0.1-5.9,0.3-8.9c1.4-0.1,2.8-0.1,4.4-0.2
			c1.6-0.1,3.2-0.1,4.8-0.1c1.6,0,3.1-0.1,4.6-0.1c1.5,0,2.8-0.1,4-0.1c1.1,0,2.1,0,2.8,0.1c0.7,0,1,0.1,1,0.1
			c0.2,1.2,0.2,2.5,0.1,3.7c-0.1,1.3-0.1,2.5-0.1,3.7v0.1c-1.1,0.2-2.2,0.4-3.4,0.4c-1.1,0.1-2.3,0.1-3.4,0.1c-1.1,0-2.3,0-3.4,0
			c-1.1,0-2.3,0.1-3.4,0.2h-0.2l-0.1,0.1c0,1,0,2-0.1,3.1c-0.1,1.1-0.1,2.1,0.2,3l0.1,0.1c1,0.1,2.1,0.1,3.2,0.1s2.2,0,3.2,0.1v0.1
			c0.2,1.2,0.2,2.4,0.2,3.5c-0.1,1.2-0.1,2.4-0.1,3.7c-0.5,0.1-1.1,0.2-1.8,0.2s-1.3,0-1.9,0s-1.2,0-1.6,0.1c-0.5,0-0.8,0.1-1,0.3
			c-0.2,1-0.2,2.1-0.2,3.4c0.1,1.3,0.1,2.3,0.2,3.1l0.1,0.1c2.3,0,4.6,0.1,6.8,0.2C261.4,100.4,263.7,100.4,266.1,100.4z"/>
		<path class="st0" d="M291.2,82.8L291.2,82.8c-1.3,0.2-2.6,0.3-4,0.4c-1.4,0.1-2.7-0.1-3.9-0.4c0.2-0.9,0-1.7-0.6-2.3
			c-0.6-0.6-1.3-1-2.1-1.2c-0.8-0.2-1.6-0.1-2.4,0.3s-1.2,1-1.4,2c-0.1,0.2-0.1,0.5-0.1,0.7c0,0.2,0,0.5,0.1,0.7
			c0.3,0.8,0.7,1.4,1.4,1.7s1.3,0.5,2,0.6c1.8,0.2,3.6,0.8,5.1,1.8c1.6,1,2.9,2.2,3.9,3.7c0.6,0.8,1.1,1.7,1.4,2.6
			c0.3,0.9,0.5,1.9,0.5,2.8c0.1,1,0,2-0.2,2.9c-0.2,1-0.5,1.9-0.9,2.8c-0.4,1.1-1,2-1.7,2.8c-0.7,0.8-1.5,1.4-2.4,1.9
			c-0.9,0.5-1.8,0.8-2.9,1.1s-2.1,0.3-3.2,0.3c-1.5,0-3.1-0.3-4.6-0.8c-1.5-0.5-2.9-1.2-4-2.1c-1.2-0.9-2.1-2-2.8-3.3
			s-1-2.8-0.9-4.5v-0.2v-0.2c1.2-0.2,2.6-0.2,4-0.1c1.5,0.1,2.8,0.1,4,0.1c0.1,1.1,0.5,1.9,1.3,2.5c0.8,0.6,1.7,0.8,2.6,0.8
			s1.7-0.3,2.4-0.9c0.7-0.6,0.9-1.5,0.7-2.7c-0.1-0.8-0.4-1.5-0.9-2c-0.5-0.5-1.1-0.9-1.9-1.2c-0.7-0.3-1.5-0.5-2.3-0.7
			c-0.8-0.2-1.6-0.3-2.3-0.4c-0.7-0.1-1.3-0.4-1.9-0.7c-0.6-0.3-1.1-0.7-1.6-1.1c-1.6-1.5-2.6-3.2-3.1-5.1c-0.5-1.8-0.5-3.6-0.1-5.4
			c0.4-1.7,1.2-3.3,2.4-4.7c1.2-1.4,2.6-2.5,4.2-3.2c0.8-0.3,1.8-0.6,2.8-0.7c1-0.1,2-0.2,3.1-0.1c1,0.1,2,0.2,3,0.4
			c1,0.2,1.9,0.6,2.7,0.9c1.7,0.9,3,2.2,3.9,3.9C291.4,78,291.7,80.1,291.2,82.8z"/>
		<path class="st1" d="M20.5,137.9c0.8,1.2,1.4,2.4,1.9,3.7c0.5,1.3,0.9,2.6,1.2,4c0.2,0.6,0.3,1.1,0.3,1.6c0.1,0.5,0.1,1.1,0.1,1.6
			c-0.1,1.6-0.1,3.3-0.2,4.9c-0.1,1.7-0.2,3.3-0.5,4.9c0,0,0,0.1,0,0.1c0,0,0,0,0,0.1c-0.7,2.1-1.6,4-2.8,5.8s-2.5,3.6-3.8,5.2
			c-2.3,0.1-4.6,0.1-6.9,0.1c-2.3,0-4.6,0-6.8,0L2.9,170c-0.4-2.7-0.6-5.6-0.7-8.5c-0.1-2.9-0.2-5.9-0.2-8.9s0-6.1,0.1-9.2
			c0.1-3.1,0-6.1,0-9.2c0,0,0.1-0.1,0.1-0.1c0,0,0-0.1,0.1-0.1c1-0.2,2-0.4,3.1-0.5c1.1-0.1,2.1-0.1,3.2-0.1c1.1,0,2.1,0,3.2,0.1
			c1.1,0,2.1,0,3.1,0c1.1,0.3,2.2,0.8,3.2,1.6C19,135.9,19.9,136.9,20.5,137.9z M15.7,156.8c0.6-0.9,1-1.9,1.3-3
			c0.3-1.1,0.3-2.3,0-3.5c-0.1-0.5-0.2-1.1-0.4-1.6c-0.1-0.6-0.3-1.1-0.6-1.6c-0.3-0.5-0.6-1-1-1.4c-0.4-0.4-0.9-0.7-1.5-0.9
			c-0.6-0.1-1.2-0.1-1.9-0.1c-0.7,0-1.4,0-2,0.2H9.5H9.5v0.2c0.1,0.9,0.1,1.9,0.1,3c0,1.1,0,2.2-0.1,3.4c0,1.2-0.1,2.3-0.1,3.5
			s0,2.4,0.1,3.6c0.4,0.3,0.9,0.5,1.6,0.5c0.7,0,1.3-0.1,2-0.2c0.2,0,0.3,0,0.5-0.1c0.1-0.1,0.3-0.2,0.5-0.2
			c0.3-0.2,0.7-0.5,0.9-0.8C15.3,157.4,15.5,157.1,15.7,156.8z"/>
		<path class="st1" d="M47.9,139.2c0.2,0.5,0.4,1.1,0.5,1.6c0.1,0.5,0.2,1.1,0.3,1.6c0.1,0.9,0.1,1.7,0.1,2.6s0,1.7,0,2.6
			c-0.1,1.8-0.1,3.6-0.1,5.4c0,1.7,0,3.5-0.2,5.3l-0.2,1.7c-0.1,1.2-0.3,2.4-0.6,3.7c-0.3,1.2-0.8,2.4-1.4,3.4
			c-0.6,0.8-1.4,1.5-2.3,2s-2,0.9-3,1.2c-1,0.3-2,0.5-2.9,0.5c-1,0.1-2,0.1-3,0c-0.7-0.1-1.4-0.2-2.1-0.3c-0.7-0.1-1.3-0.3-1.9-0.6
			c-0.6-0.3-1.2-0.6-1.6-1.1c-0.5-0.4-0.9-1-1.2-1.7c-0.5-0.9-0.8-1.8-1-2.8c-0.2-1-0.3-2-0.3-3c-0.1-2.7-0.2-5.4-0.3-8.2
			c-0.1-2.7-0.1-5.5,0.1-8.2c0-1.6,0.2-3.1,0.6-4.7c0.4-1.6,1.1-3,2.2-4.2c0.3-0.3,0.7-0.7,1.2-0.9c1.1-0.6,2.4-1,3.7-1.2
			c1.3-0.3,2.7-0.4,4-0.3s2.6,0.3,3.9,0.7c1.3,0.4,2.4,1,3.4,1.7C46.8,136.9,47.5,138,47.9,139.2z M42.3,151.9l-0.1-3.5
			c0,0,0-0.4-0.1-1.1c-0.1-0.7-0.1-1.3-0.1-1.9c-0.1-1-0.3-1.9-0.8-2.7c-0.5-0.8-1.1-1.4-1.9-1.8c-0.7-0.3-1.4-0.3-2.1-0.2
			c-0.7,0.2-1.4,0.5-1.9,0.9c-1.2,0.9-2,2.1-2.5,3.6c-0.3,1.3-0.4,2.7-0.5,4.2c-0.1,1.5,0,2.9,0,4.4c0.2,1.2,0.3,2.5,0.4,3.7
			c0.1,1.3,0.3,2.5,0.6,3.6c0.3,0.7,0.9,1.2,1.5,1.6c0.7,0.4,1.4,0.6,2.1,0.7c0.8,0.1,1.5-0.1,2.3-0.3s1.4-0.7,1.9-1.3
			c0.3-0.4,0.5-0.8,0.7-1c0.1-0.3,0.2-0.5,0.3-0.9c0-0.3,0-0.7,0-1.1s0-1,0.1-1.7c0-0.7,0.1-1.3,0.1-1.8c0-0.5,0-0.8,0-0.9V151.9z"
			/>
		<path class="st1" d="M79.2,156.4c-1.1,0.2-2.2,0.3-3.4,0.4c-1.2,0.1-2.3,0.2-3.3,0.4h-0.1c-0.2,2.2-0.3,4.4-0.3,6.5
			c0,2.2-0.1,4.3-0.1,6.2c-0.7,0.1-1.5,0.1-2.5,0.2c-1,0-1.9,0.1-2.8,0.1s-1.8,0-2.5-0.1c-0.7,0-1.1-0.1-1.3-0.2l-0.1-0.1
			c0-2.1,0-4,0-5.9s0-3.6,0-5.3c0-1.7,0-3.4,0-5.1s0-3.5,0-5.4s0-4,0-6.2c0-2.2,0-4.7,0-7.4v-0.1c0.6-0.1,1.4-0.2,2.6-0.3
			s2.4-0.2,3.8-0.3c1.4-0.1,2.9-0.2,4.5-0.2c1.6-0.1,3.1-0.1,4.7-0.1c1.5,0,3,0.1,4.3,0.2c1.4,0.1,2.5,0.3,3.5,0.6c0,0.5,0,1,0,1.7
			s0,1.4,0,2.2c0,0.7,0,1.5,0,2.1s0,1.2-0.1,1.7c-0.9,0.1-2,0.1-3.2,0.2c-1.2,0.1-2.4,0.1-3.6,0.2c-1.2,0.1-2.5,0.1-3.7,0.2
			c-1.2,0.1-2.4,0.2-3.5,0.3c-0.4,0.9-0.5,1.8-0.5,2.6c0.1,0.8,0.3,1.5,0.6,2.1c0,0,0.1,0.1,0.1,0.1c0.5,0.1,1,0.1,1.6,0.1
			c0.6,0,1.2,0,1.8,0c0.6,0,1.2,0,1.7-0.1c0.6,0,1-0.1,1.4-0.1c0.1,0.2,0.2,0.7,0.2,1.4c0,0.7,0,1.5,0,2.3c0,0.9-0.1,1.7-0.1,2.6
			c0,0.9,0,1.6,0.1,2.2C79.3,156.4,79.3,156.4,79.2,156.4z"/>
		<path class="st1" d="M102.1,151.7L106,170v0.1c-1,0.2-2.2,0.3-3.4,0.2c-1.3-0.1-2.4-0.2-3.5-0.4H99c-0.2-0.6-0.4-1.2-0.6-2
			c-0.2-0.8-0.4-1.5-0.6-2.3c-0.2-0.8-0.4-1.6-0.6-2.3c-0.2-0.7-0.4-1.4-0.7-1.9c-0.5-0.1-0.8-0.1-1-0.1c-0.2,0-0.5,0-0.7,0
			s-0.4,0-0.6,0c-0.2,0-0.5,0-0.9,0c-0.2,0.6-0.4,1.2-0.6,2c-0.2,0.7-0.3,1.5-0.5,2.3c-0.2,0.8-0.3,1.6-0.5,2.4
			c-0.2,0.8-0.4,1.4-0.7,2c0,0-0.1,0-0.1,0c0,0,0,0-0.1,0c-0.3,0.1-1,0.1-2.1,0c-1.1-0.1-2.9-0.1-5.2-0.1c0,0-0.1,0-0.1-0.1
			c0.1-0.2,0.2-0.9,0.4-2s0.4-2.6,0.7-4.3s0.7-3.8,1.1-6.1c0.4-2.3,0.9-4.8,1.5-7.4c0.6-2.6,1.2-5.3,1.9-8.1
			c0.7-2.8,1.5-5.6,2.3-8.4c0.2,0,0.5-0.1,0.8-0.1c0.3,0,0.6,0,1.1,0c0.5,0,1,0,1.7,0c0.7,0,1.6-0.1,2.8-0.2
			c0.1,0.5,0.3,1.1,0.5,2.1c0.2,0.9,0.5,2,0.7,3.1c0.3,1.2,0.5,2.4,0.8,3.7c0.3,1.3,0.6,2.6,0.9,3.8c0.3,1.2,0.5,2.3,0.8,3.3
			C101.8,150.3,102,151.1,102.1,151.7z M96.8,155.1c-0.3-3-0.7-5.3-0.9-7c-0.3-1.7-0.5-2.8-0.7-3.4c-0.2-0.6-0.4-0.7-0.6-0.4
			c-0.2,0.3-0.4,1-0.5,2c-0.2,1-0.3,2.3-0.5,3.8c-0.2,1.5-0.4,3.2-0.7,5c0.6,0,1.2,0,1.9,0C95.5,155.1,96.1,155.1,96.8,155.1z"/>
		<path class="st1" d="M129.8,153.5l-0.2,16.6c-0.5-0.1-1.1-0.1-1.7-0.1s-1.3,0-1.9,0s-1.2,0-1.8,0c-0.6,0-1.1,0-1.5,0
			c-0.1-1.5-0.1-3.1-0.1-4.8c0-1.7,0-3.5-0.1-5.3c0-1.8-0.1-3.6-0.2-5.3c-0.1-1.7-0.2-3.3-0.4-4.8c-0.2,0.4-0.5,1-0.8,1.8
			s-0.6,1.7-0.9,2.5c-0.3,0.9-0.6,1.6-0.9,2.3s-0.5,1-0.6,1c-0.2,0-0.4-0.2-0.6-0.5c-0.2-0.4-0.5-0.8-0.7-1.4
			c-0.2-0.6-0.5-1.1-0.7-1.8c-0.2-0.6-0.5-1.2-0.6-1.7c-0.2-0.5-0.4-1.1-0.6-1.8c-0.3,3.3-0.4,6.6-0.3,9.9s0.2,6.6,0.4,9.9
			c-1.1,0.2-2.3,0.2-3.6,0.2c-1.3,0-2.5-0.1-3.7-0.1c-0.1,0-0.1-0.1-0.2-0.2c0-0.1-0.1-0.5-0.1-1c0-0.5-0.1-1.3-0.1-2.4
			c0-1.1,0-2.5,0-4.2s0-3.9,0-6.5c0-2.6,0-5.6,0.1-9.2s0-7.7,0.1-12.4c0.5-0.1,1-0.2,1.6-0.3c0.6,0,1.2,0,1.8,0s1.3,0,1.9,0.1
			c0.6,0,1.2,0,1.8,0h0.1c0.3,0.3,0.6,0.9,0.9,1.6c0.3,0.7,0.6,1.5,0.9,2.3c0.3,0.8,0.5,1.6,0.8,2.3c0.3,0.7,0.5,1.3,0.8,1.7
			c0.1,0.1,0.2,0.2,0.3,0.2c0.1,0,0.3-0.3,0.5-1c0.2-0.7,0.5-1.5,0.7-2.4s0.6-1.8,0.9-2.7c0.3-0.9,0.7-1.6,1-2c0.2,0,0.7,0,1.3,0
			c0.6,0,1.3-0.1,2.1-0.1c0.7,0,1.5-0.1,2.3-0.1s1.5,0,2,0c-0.1,3.3-0.1,6.6,0,9.9C130,146.8,130,150.1,129.8,153.5z"/>
		<path class="st1" d="M142.3,133.4h1.3v0.2c0,3,0,6-0.1,9s-0.2,6.1-0.2,9.1c-0.1,3-0.1,6.1,0,9.1c0,3,0.1,6,0.3,9
			c-0.3,0.3-0.9,0.4-1.7,0.5c-0.9,0.1-1.8,0.1-2.9,0c-1,0-2-0.1-2.9-0.1c-0.9-0.1-1.6,0-1.9,0.1c0.2-3.1,0.3-6.3,0.3-9.4
			c0-3.2-0.1-6.3-0.2-9.4c-0.1-3.1-0.1-6.2-0.2-9.2c0-3,0.1-6,0.4-8.9v-0.1c0.2,0,0.5,0,1,0c0.5,0.1,0.9,0.1,1.1,0.1
			c0.6,0,1.3,0.1,2.2,0.1C139.5,133.4,140.7,133.4,142.3,133.4z M143.8,122.2l3.6,3.7l-0.1,0.1c-0.2,0.2-0.6,0.6-1.1,1
			c-0.5,0.5-1.1,0.9-1.6,1.4c-0.6,0.5-1.1,1-1.6,1.4c-0.5,0.5-0.8,0.8-0.9,1.1c-0.6,0.1-1.2,0.1-1.9,0.1c-0.7,0-1.4,0-2.1,0
			c-0.7,0-1.3-0.1-1.8-0.1c-0.5-0.1-0.9-0.1-1.2-0.2c0.6-0.6,1.3-1.2,2-2c0.7-0.8,1.5-1.6,2.3-2.4c0.8-0.8,1.6-1.6,2.3-2.3
			C142.4,123.3,143.1,122.7,143.8,122.2z"/>
		<path class="st1" d="M169.3,165.3c0.1,1.3,0.1,2.2,0.1,2.8c0,0.6,0,1.1-0.1,1.4c-0.1,0.3-0.2,0.5-0.4,0.5c-0.2,0-0.5,0-0.9,0
			c-0.4,0-0.9,0-1.5,0s-1.6,0.1-3.1,0.1c-1.4,0-3.4,0.1-5.9,0.1s-5.9,0-10.1-0.1v-0.9c0.1-2.6,0.2-5,0.3-7.1
			c0.1-2.1,0.1-4.1,0.1-5.9c0-1.8,0-3.6,0-5.3c0-1.7,0-3.4-0.1-5.2c0-1.8-0.1-3.7-0.1-5.7c0-2-0.1-4.2-0.1-6.6
			c0.3-0.1,0.9-0.3,1.6-0.3c0.7-0.1,1.5-0.1,2.3-0.1c0.8,0,1.7,0.1,2.5,0.2c0.8,0.1,1.4,0.3,1.9,0.5c-0.1,2.3-0.1,4.6-0.1,7
			c0,2.4,0,4.8,0.1,7.2c0,2.4,0.1,4.8,0.1,7.2c0,2.4,0,4.7,0,6.9v0.1c0.2-0.1,0.7-0.1,1.4-0.1s1.5,0,2.4,0.1c0.9,0,1.9,0.1,2.9,0.1
			c1,0.1,2,0.1,2.9,0.1c0.9,0,1.7,0.1,2.5,0.1s1.2,0,1.5,0c0,0.4,0,0.8-0.1,1.1c0,0.3-0.1,0.7-0.1,1.1
			C169.3,164.7,169.3,165,169.3,165.3z"/>
		<path class="st1" d="M179.8,133.4h1.3v0.2c0,3,0,6-0.1,9s-0.2,6.1-0.2,9.1c-0.1,3-0.1,6.1,0,9.1c0,3,0.1,6,0.3,9
			c-0.3,0.3-0.9,0.4-1.7,0.5c-0.9,0.1-1.8,0.1-2.9,0c-1,0-2-0.1-2.9-0.1c-0.9-0.1-1.6,0-1.9,0.1c0.2-3.1,0.3-6.3,0.3-9.4
			c0-3.2-0.1-6.3-0.2-9.4c-0.1-3.1-0.1-6.2-0.2-9.2c0-3,0.1-6,0.4-8.9v-0.1c0.2,0,0.5,0,1,0c0.5,0.1,0.9,0.1,1.1,0.1
			c0.6,0,1.3,0.1,2.2,0.1C177.1,133.4,178.3,133.4,179.8,133.4z"/>
		<path class="st1" d="M201.9,151.7l3.9,18.3v0.1c-1,0.2-2.2,0.3-3.4,0.2c-1.3-0.1-2.4-0.2-3.5-0.4h-0.1c-0.2-0.6-0.4-1.2-0.6-2
			c-0.2-0.8-0.4-1.5-0.6-2.3c-0.2-0.8-0.4-1.6-0.6-2.3c-0.2-0.7-0.4-1.4-0.7-1.9c-0.5-0.1-0.8-0.1-1-0.1c-0.2,0-0.5,0-0.7,0
			s-0.4,0-0.6,0c-0.2,0-0.5,0-0.9,0c-0.2,0.6-0.4,1.2-0.6,2c-0.2,0.7-0.3,1.5-0.5,2.3c-0.2,0.8-0.3,1.6-0.5,2.4
			c-0.2,0.8-0.4,1.4-0.7,2c0,0-0.1,0-0.1,0c0,0,0,0-0.1,0c-0.3,0.1-1,0.1-2.1,0c-1.1-0.1-2.9-0.1-5.2-0.1c0,0-0.1,0-0.1-0.1
			c0.1-0.2,0.2-0.9,0.4-2s0.4-2.6,0.7-4.3s0.7-3.8,1.1-6.1c0.4-2.3,0.9-4.8,1.5-7.4c0.6-2.6,1.2-5.3,1.9-8.1
			c0.7-2.8,1.5-5.6,2.3-8.4c0.2,0,0.5-0.1,0.8-0.1c0.3,0,0.6,0,1.1,0c0.5,0,1,0,1.7,0c0.7,0,1.6-0.1,2.8-0.2
			c0.1,0.5,0.3,1.1,0.5,2.1c0.2,0.9,0.5,2,0.7,3.1c0.3,1.2,0.5,2.4,0.8,3.7c0.3,1.3,0.6,2.6,0.9,3.8c0.3,1.2,0.5,2.3,0.8,3.3
			C201.6,150.3,201.8,151.1,201.9,151.7z M196.6,155.1c-0.3-3-0.7-5.3-0.9-7c-0.3-1.7-0.5-2.8-0.7-3.4c-0.2-0.6-0.4-0.7-0.6-0.4
			c-0.2,0.3-0.4,1-0.5,2c-0.2,1-0.3,2.3-0.5,3.8c-0.2,1.5-0.4,3.2-0.7,5c0.6,0,1.2,0,1.9,0C195.3,155.1,196,155.1,196.6,155.1z"/>
		<path class="st1" d="M229.4,145.3L229.4,145.3c-1.3,0.2-2.6,0.3-4,0.4c-1.4,0.1-2.7-0.1-3.9-0.4c0.2-0.9,0-1.7-0.6-2.3
			c-0.6-0.6-1.3-1-2.1-1.2c-0.8-0.2-1.6-0.1-2.4,0.3s-1.2,1-1.4,2c-0.1,0.2-0.1,0.5-0.1,0.7c0,0.2,0,0.5,0.1,0.7
			c0.3,0.8,0.7,1.4,1.4,1.7s1.3,0.5,2,0.6c1.8,0.2,3.6,0.8,5.1,1.8c1.6,1,2.9,2.2,3.9,3.7c0.6,0.8,1.1,1.7,1.4,2.6
			c0.3,0.9,0.5,1.9,0.5,2.8c0.1,1,0,2-0.2,2.9c-0.2,1-0.5,1.9-0.9,2.8c-0.4,1.1-1,2-1.7,2.8c-0.7,0.8-1.5,1.4-2.4,1.9
			c-0.9,0.5-1.8,0.8-2.9,1.1s-2.1,0.3-3.2,0.3c-1.5,0-3.1-0.3-4.6-0.8c-1.5-0.5-2.9-1.2-4-2.1c-1.2-0.9-2.1-2-2.8-3.3
			s-1-2.8-0.9-4.5v-0.2v-0.2c1.2-0.2,2.6-0.2,4-0.1c1.5,0.1,2.8,0.1,4,0.1c0.1,1.1,0.5,1.9,1.3,2.5c0.8,0.6,1.7,0.8,2.6,0.8
			s1.7-0.3,2.4-0.9c0.7-0.6,0.9-1.5,0.7-2.7c-0.1-0.8-0.4-1.5-0.9-2c-0.5-0.5-1.1-0.9-1.9-1.2c-0.7-0.3-1.5-0.5-2.3-0.7
			c-0.8-0.2-1.6-0.3-2.3-0.4c-0.7-0.1-1.3-0.4-1.9-0.7c-0.6-0.3-1.1-0.7-1.6-1.1c-1.6-1.5-2.6-3.2-3.1-5.1c-0.5-1.8-0.5-3.6-0.1-5.4
			c0.4-1.7,1.2-3.3,2.4-4.7c1.2-1.4,2.6-2.5,4.2-3.2c0.8-0.3,1.8-0.6,2.8-0.7c1-0.1,2-0.2,3.1-0.1c1,0.1,2,0.2,3,0.4
			c1,0.2,1.9,0.6,2.7,0.9c1.7,0.9,3,2.2,3.9,3.9C229.7,140.6,229.9,142.7,229.4,145.3z"/>
		<path class="st1" d="M18.4,219c-1.1,0.2-2.2,0.3-3.4,0.4c-1.2,0.1-2.3,0.2-3.3,0.4h-0.1c-0.2,2.2-0.3,4.4-0.3,6.5
			c0,2.2-0.1,4.3-0.1,6.2c-0.7,0.1-1.5,0.1-2.5,0.2c-1,0-1.9,0.1-2.8,0.1s-1.8,0-2.5-0.1c-0.7,0-1.1-0.1-1.3-0.2l-0.1-0.1
			c0-2.1,0-4,0-5.9s0-3.6,0-5.3c0-1.7,0-3.4,0-5.1s0-3.5,0-5.4c0-1.9,0-4,0-6.2c0-2.2,0-4.7,0-7.4v-0.1c0.6-0.1,1.4-0.2,2.6-0.3
			c1.1-0.1,2.4-0.2,3.8-0.3s2.9-0.2,4.5-0.2c1.6-0.1,3.1-0.1,4.7-0.1c1.5,0,3,0.1,4.3,0.2c1.4,0.1,2.5,0.3,3.5,0.6c0,0.5,0,1,0,1.7
			c0,0.7,0,1.4,0,2.2c0,0.7,0,1.5,0,2.1s0,1.2-0.1,1.7c-0.9,0.1-2,0.1-3.2,0.2c-1.2,0.1-2.4,0.1-3.6,0.2c-1.2,0.1-2.5,0.1-3.7,0.2
			c-1.2,0.1-2.4,0.2-3.5,0.3c-0.4,0.9-0.5,1.8-0.5,2.6c0.1,0.8,0.3,1.5,0.6,2.1c0,0,0.1,0.1,0.1,0.1c0.5,0.1,1,0.1,1.6,0.1
			c0.6,0,1.2,0,1.8,0c0.6,0,1.2,0,1.7-0.1c0.6,0,1-0.1,1.4-0.1c0.1,0.2,0.2,0.7,0.2,1.4c0,0.7,0,1.5,0,2.3c0,0.9-0.1,1.7-0.1,2.6
			c0,0.9,0,1.6,0.1,2.2C18.6,219,18.5,219,18.4,219z"/>
		<path class="st1" d="M48.5,201.7c0.2,0.5,0.4,1.1,0.5,1.6s0.2,1.1,0.3,1.6c0.1,0.9,0.1,1.7,0.1,2.6s0,1.7,0,2.6
			c-0.1,1.8-0.1,3.6-0.1,5.4s0,3.5-0.2,5.3l-0.2,1.7c-0.1,1.2-0.3,2.4-0.6,3.7c-0.3,1.2-0.8,2.4-1.4,3.4c-0.6,0.8-1.4,1.5-2.3,2
			c-1,0.5-2,0.9-3,1.2c-1,0.3-2,0.5-2.9,0.5c-1,0.1-2,0.1-3,0c-0.7-0.1-1.4-0.2-2.1-0.3c-0.7-0.1-1.3-0.3-1.9-0.6
			c-0.6-0.3-1.2-0.6-1.6-1.1c-0.5-0.4-0.9-1-1.2-1.7c-0.5-0.9-0.8-1.8-1-2.8c-0.2-1-0.3-2-0.3-3c-0.1-2.7-0.2-5.4-0.3-8.2
			c-0.1-2.7-0.1-5.5,0.1-8.2c0-1.6,0.2-3.1,0.6-4.7c0.4-1.6,1.1-3,2.2-4.2c0.3-0.3,0.7-0.7,1.2-0.9c1.1-0.6,2.4-1,3.7-1.2
			c1.3-0.3,2.7-0.4,4-0.3s2.6,0.3,3.9,0.7c1.3,0.4,2.4,1,3.4,1.7C47.4,199.5,48.1,200.5,48.5,201.7z M43,214.5l-0.1-3.5
			c0,0,0-0.4-0.1-1.1s-0.1-1.3-0.1-1.9c-0.1-1-0.3-1.9-0.8-2.7c-0.5-0.8-1.1-1.4-1.9-1.8c-0.7-0.3-1.4-0.3-2.1-0.2
			c-0.7,0.2-1.4,0.5-1.9,0.9c-1.2,0.9-2,2.1-2.5,3.6c-0.3,1.3-0.4,2.7-0.5,4.2c-0.1,1.5,0,2.9,0,4.4c0.2,1.2,0.3,2.5,0.4,3.7
			c0.1,1.3,0.3,2.5,0.6,3.6c0.3,0.7,0.9,1.2,1.5,1.6c0.7,0.4,1.4,0.6,2.1,0.7c0.8,0.1,1.5-0.1,2.3-0.3c0.8-0.3,1.4-0.7,1.9-1.3
			c0.3-0.4,0.5-0.8,0.7-1s0.2-0.5,0.3-0.9c0-0.3,0-0.7,0-1.1s0-1,0.1-1.7c0-0.7,0.1-1.3,0.1-1.8s0-0.8,0-0.9V214.5z"/>
		<path class="st1" d="M77.8,232.5L77.8,232.5c-1.2,0-2.5,0-4,0.1c-1.5,0.1-3,0.1-4.6,0h-0.1c-0.3-0.8-0.8-1.8-1.3-2.9
			c-0.5-1.1-1.1-2.3-1.7-3.5c-0.6-1.2-1.3-2.4-2-3.6c-0.7-1.2-1.5-2.2-2.2-3.1l-0.1-0.2c-0.1,0.8-0.2,1.8-0.2,2.9
			c0,1.2,0,2.4,0.1,3.6c0.1,1.2,0.1,2.4,0.2,3.5s0.1,2,0.2,2.7c-0.6,0.2-1.4,0.4-2.3,0.5c-1,0.1-1.9,0.1-2.8,0.1c-0.9,0-1.8,0-2.5,0
			c-0.7,0-1.2,0-1.4,0c0.1,0,0.1-0.5,0.2-1.4c0-1,0.1-2.2,0.1-3.8c0-1.6,0-3.4,0-5.4c0-2,0-4.1,0-6.3c0-2.2-0.1-4.3-0.1-6.5
			c-0.1-2.1-0.1-4.1-0.1-5.9c0-1.8-0.1-3.3-0.1-4.6c-0.1-1.3-0.1-2.1-0.2-2.6c1.9-0.3,4.1-0.5,6.4-0.8c2.3-0.2,4.8-0.2,7.3,0.1
			c2.1,0.1,3.9,0.7,5.5,1.8c1.6,1.1,2.9,2.4,3.8,4c0.9,1.6,1.4,3.4,1.4,5.3c0.1,1.9-0.5,3.8-1.5,5.6c-0.7,1.3-1.5,2.3-2.6,3.1
			c-1.1,0.8-2.5,1.3-4.1,1.4h-0.2h-0.1v0.1c0.7,1.3,1.5,2.6,2.4,3.8c0.9,1.3,1.7,2.5,2.6,3.8s1.6,2.6,2.4,3.9
			C76.7,229.6,77.3,231,77.8,232.5z M60.3,203.5c0,0.5,0.1,1,0.1,1.5c0,0.6,0,1.2,0,1.7c0,0.6,0,1.2,0,1.7c0,0.6,0.1,1,0.1,1.4h0.1
			c0.8,0.1,1.7,0.1,2.6,0.2c0.9,0,1.8,0,2.7-0.2c0.7-0.1,1.2-0.5,1.5-1s0.6-1.1,0.7-1.8c0.1-0.6,0-1.3-0.2-1.9
			c-0.2-0.6-0.6-1.2-1-1.5c-0.8-0.7-1.7-1-2.9-1C62.7,202.7,61.5,203,60.3,203.5z"/>
		<path class="st1" d="M100.5,196.4c0.1,1.1,0.1,2.5,0.1,4c0,1.5-0.1,2.9-0.3,4.1c-0.7-0.1-1.5-0.2-2.5-0.2c-1,0-2.3,0.1-3.9,0.2
			h-0.1h-0.1c0,0,0,0.1,0,0.1c0,0,0,0,0,0.1c0,0.2-0.1,0.4-0.1,0.8c0,0.4,0,0.9,0,1.7s0,1.8,0,3.1c0,1.3,0,2.9,0.1,4.9
			c0,2,0.1,4.4,0.1,7.2c0,2.8,0.1,6.1,0.2,9.9v0.1v0.1c-0.6,0.1-1.3,0.2-2.1,0.2c-0.7,0-1.5,0-2.2,0c-0.7,0-1.5,0-2.2,0
			c-0.7,0-1.4,0.1-2,0.2c0-0.1,0-0.8,0-1.9c0-1.1,0.1-2.8,0.1-5c0-2.2,0-5-0.1-8.5c-0.1-3.4-0.2-7.6-0.4-12.5l-0.1-0.1
			c-0.4-0.2-0.9-0.3-1.6-0.4c-0.6-0.1-1.3-0.1-1.9-0.1c-0.6,0-1.2,0-1.7,0s-0.9,0-1.1-0.1c-0.1-0.1-0.1-0.5-0.2-1
			c-0.1-0.6-0.1-1.2-0.1-2s0-1.6,0-2.5s0-1.8,0.1-2.6c0,0,0-0.1,0-0.1c0,0,0,0,0-0.1c3.5,0,7.2-0.1,11-0.1
			C93.2,195.8,96.9,196,100.5,196.4z"/>
		<path class="st1" d="M125.2,225.5v0.1c0.1,1.1,0.1,2.3,0.1,3.5c0,1.2-0.2,2.3-0.5,3.4c-3.5,0-7.2,0-10.8,0.1
			c-3.7,0.1-7.2,0-10.6-0.2c0-3,0-6-0.1-9c-0.1-3-0.1-5.9-0.2-8.9c0-3,0-5.9,0-8.9c0-3,0.1-5.9,0.3-8.9c1.4-0.1,2.8-0.1,4.4-0.2
			c1.6-0.1,3.2-0.1,4.8-0.1c1.6,0,3.1-0.1,4.6-0.1c1.5,0,2.8-0.1,4-0.1c1.1,0,2.1,0,2.8,0.1c0.7,0,1,0.1,1,0.1
			c0.2,1.2,0.2,2.5,0.1,3.7c-0.1,1.3-0.1,2.5-0.1,3.7v0.1c-1.1,0.2-2.2,0.4-3.4,0.4c-1.1,0.1-2.3,0.1-3.4,0.1c-1.1,0-2.3,0-3.4,0
			c-1.1,0-2.3,0.1-3.4,0.2h-0.2l-0.1,0.1c0,1,0,2-0.1,3.1c-0.1,1.1-0.1,2.1,0.2,3l0.1,0.1c1,0.1,2.1,0.1,3.2,0.1s2.2,0,3.2,0.1v0.1
			c0.2,1.2,0.2,2.4,0.2,3.5c-0.1,1.2-0.1,2.4-0.1,3.7c-0.5,0.1-1.1,0.2-1.8,0.2s-1.3,0-1.9,0s-1.2,0-1.6,0.1c-0.5,0-0.8,0.1-1,0.3
			c-0.2,1-0.2,2.1-0.2,3.4c0.1,1.3,0.1,2.3,0.2,3.1l0.1,0.1c2.3,0,4.6,0.1,6.8,0.2C120.5,225.6,122.8,225.6,125.2,225.5z"/>
		<path class="st1" d="M150.3,207.9L150.3,207.9c-1.3,0.2-2.6,0.3-4,0.4c-1.4,0.1-2.7-0.1-3.9-0.4c0.2-0.9,0-1.7-0.6-2.3
			c-0.6-0.6-1.3-1-2.1-1.2c-0.8-0.2-1.6-0.1-2.4,0.3s-1.2,1-1.4,2c-0.1,0.2-0.1,0.5-0.1,0.7c0,0.2,0,0.5,0.1,0.7
			c0.3,0.8,0.7,1.4,1.4,1.7s1.3,0.5,2,0.6c1.8,0.2,3.6,0.8,5.1,1.8c1.6,1,2.9,2.2,3.9,3.7c0.6,0.8,1.1,1.7,1.4,2.6
			c0.3,0.9,0.5,1.9,0.5,2.8c0.1,1,0,2-0.2,2.9c-0.2,1-0.5,1.9-0.9,2.8c-0.4,1.1-1,2-1.7,2.8c-0.7,0.8-1.5,1.4-2.4,1.9
			c-0.9,0.5-1.8,0.8-2.9,1.1s-2.1,0.3-3.2,0.3c-1.5,0-3.1-0.3-4.6-0.8c-1.5-0.5-2.9-1.2-4-2.1c-1.2-0.9-2.1-2-2.8-3.3
			s-1-2.8-0.9-4.5V222v-0.2c1.2-0.2,2.6-0.2,4-0.1c1.5,0.1,2.8,0.1,4,0.1c0.1,1.1,0.5,1.9,1.3,2.5c0.8,0.6,1.7,0.8,2.6,0.8
			s1.7-0.3,2.4-0.9c0.7-0.6,0.9-1.5,0.7-2.7c-0.1-0.8-0.4-1.5-0.9-2c-0.5-0.5-1.1-0.9-1.9-1.2c-0.7-0.3-1.5-0.5-2.3-0.7
			c-0.8-0.2-1.6-0.3-2.3-0.4c-0.7-0.1-1.3-0.4-1.9-0.7c-0.6-0.3-1.1-0.7-1.6-1.1c-1.6-1.5-2.6-3.2-3.1-5.1c-0.5-1.8-0.5-3.6-0.1-5.4
			c0.4-1.7,1.2-3.3,2.4-4.7c1.2-1.4,2.6-2.5,4.2-3.2c0.8-0.3,1.8-0.6,2.8-0.7c1-0.1,2-0.2,3.1-0.1c1,0.1,2,0.2,3,0.4
			c1,0.2,1.9,0.6,2.7,0.9c1.7,0.9,3,2.2,3.9,3.9C150.6,203.1,150.8,205.3,150.3,207.9z"/>
	</g>
</g>
<g>
</g>
<g>
</g>
<g>
</g>
<g>
</g>
<g>
</g>
<g>
</g>
<g>
</g>
<g>
</g>
<g>
</g>
<g>
</g>
<g>
</g>
<g>
</g>
<g>
</g>
<g>
</g>
<g>
</g>
</svg>
