<?xml version="1.0" encoding="utf-8"?>
<!-- Generator: Adobe Illustrator 24.0.2, SVG Export Plug-In . SVG Version: 6.00 Build 0)  -->
<svg version="1.1" id="Camada_1" xmlns="http://www.w3.org/2000/svg" xmlns:xlink="http://www.w3.org/1999/xlink" x="0px" y="0px"
	 viewBox="0 0 290 6.37" style="enable-background:new 0 0 290 6.37;" xml:space="preserve">
<style type="text/css">
	.st0{fill:#73C8E2;}
</style>
<g>
	<g id="XMLID_27_">
		<path class="st0" d="M288.87,2.54c-16.42,0.23-32.82,0.76-49.24,0.78c-14.27,0.01-28.53-0.2-42.8-0.46
			c-22.34-0.41-44.67-0.82-67.01-1.23C108.62,1.23,87.41,0.67,66.2,0.54C46.94,0.42,27.67,0.91,8.41,0.73
			C5.98,0.71,3.56,0.66,1.13,0.6c-1.51-0.04-1.5,2.3,0,2.34c19.53,0.47,39.08-0.16,58.61-0.1c20.58,0.07,41.17,0.58,61.75,0.96
			c22.34,0.41,44.67,0.82,67.01,1.23c14.82,0.27,29.63,0.57,44.45,0.61c17.46,0.04,34.93-0.21,52.38-0.69
			c1.18-0.03,2.36-0.07,3.54-0.08C290.37,4.86,290.38,2.52,288.87,2.54L288.87,2.54z"/>
	</g>
</g>
</svg>
