<?xml version="1.0" encoding="utf-8"?>
<!-- Generator: Adobe Illustrator 24.0.1, SVG Export Plug-In . SVG Version: 6.00 Build 0)  -->
<svg version="1.1" id="Layer_1" xmlns="http://www.w3.org/2000/svg" xmlns:xlink="http://www.w3.org/1999/xlink" x="0px" y="0px"
	 viewBox="0 0 129.7 300" style="enable-background:new 0 0 129.7 300;" xml:space="preserve">
<style type="text/css">
	.st0{fill:#728785;}
	.st1{fill:#FFC39F;}
	.st2{fill:#51495B;}
	.st3{fill:#845245;}
	.st4{fill:#9B6451;}
	.st5{fill:#879B9A;}
	.st6{fill:#224C62;}
	.st7{fill:#E8DFE1;}
	.st8{fill:#D9CED1;}
	.st9{fill:#EBAA80;}
	.st10{fill:#FFFFFF;}
	.st11{fill:#C5524C;}
	.st12{fill:#A04340;}
	.st13{fill:#893434;}
</style>
<g>
	<polygon class="st0" points="51,241 69.8,241 66.9,205.3 54.1,204.5 	"/>
	<polygon class="st1" points="52.4,267.1 52.4,295.5 47.5,295.5 41.2,267.1 	"/>
	<polygon class="st1" points="47.5,295.5 47.5,298.1 57.2,298.1 52.4,295.5 	"/>
	<path class="st2" d="M47.5,300h12.9c0,0,0.9-0.3,0.4-1c-0.4-0.7-3.7-1-3.7-1L52,298c-0.9,0-1.7-0.4-2.3-1.1c-0.4-0.5-1.1-1-2.1-1.5
		C46.9,298,47.5,300,47.5,300z"/>
	<polygon class="st1" points="77,267.1 77,295.5 72.2,295.5 65.8,267.1 	"/>
	<path class="st3" d="M75.7,132.4c8.5,35.5,2.6,161.2,2.6,161.2h-9.2c0,0-6.8-34.5-7.5-43.9c-0.7-9.3,1.7-16.9,1.2-22.8
		c-0.5-5.8-14.9-51.3-14.2-69.3c0.7-18,7.1-27.9,7.1-27.9S74.5,127.4,75.7,132.4z"/>
	<polygon class="st1" points="72.2,295.5 72.2,298.1 81.8,298.1 77,295.5 	"/>
	<path class="st2" d="M72.2,300h12.9c0,0,0.9-0.3,0.4-1c-0.4-0.7-3.7-1-3.7-1l-5.1-0.1c-0.9,0-1.7-0.4-2.3-1.1
		c-0.4-0.5-1.1-1-2.1-1.5C71.5,298,72.2,300,72.2,300z"/>
	<path class="st4" d="M29.2,156.9c-1.6,17.9,10.6,64.1,10.8,69.9c0.3,5.8-2.5,13.3-2.2,22.7c0.3,9.4,7,44.1,7,44.1h8.8l9-160.3
		l-25-3.9C37.7,129.3,30.8,138.9,29.2,156.9z"/>
	<path class="st5" d="M81.8,71c0,0,19.6,39.8,20.2,44.3c0.6,4.5-2.8,13.8-13.6,0C77.7,101.4,75.4,85,75.4,85l-1.2-9.7l2.5-12.1
		C76.6,63.1,80.1,68,81.8,71z"/>
	<path class="st6" d="M75.3,29.6c0,0,5.2,15.8,1.5,21c-3.8,5.2-13.4,3.7-15.6,0.7c-2.1-3-2.1-9.2-2.1-9.2S66.3,27.7,75.3,29.6z"/>
	<path class="st1" d="M75.2,22.1c1.5,12.2-3.4,24.8-11.1,25.7c-7.7,0.9-15.4-10.1-16.9-22.3C45.8,13.2,51,4.5,58.8,3.6
		C66.5,2.6,73.7,9.9,75.2,22.1z"/>
	<path class="st7" d="M65.7,57.3c0,0,10.7,2.6,12,7.8c1.3,5.2-0.8,6,0.3,10.6c1.1,4.5,3.6,11,1.8,16.6c-1.7,5.6-5.4,5.6-6.1,14.7
		c-0.7,9.1,5.2,36.1,5.2,36.1s-1.3,5-18.6,4.5c-17.3-0.4-29.6-6-29.6-6s5.8-13.4,8.2-25.7S34.3,75.1,35.4,65
		c1.2-11.3,21.1-10.2,21.1-10.2L65.7,57.3z"/>
	<path class="st8" d="M80.2,91.2c0,0-2.4,4.4-16.3,4.2c-13.9-0.2-21.8-12.3-21.8-12.3l1,37.4c0,0,6.6-8.1,17.3-8.9
		c10.7-0.8,13.8,3.6,13.8,3.6s-0.5-9.3,0.8-13C76.2,98.3,79.6,95.8,80.2,91.2z"/>
	<path class="st1" d="M66.5,45.3c0,0-0.8,6.5-0.6,9.4c0.1,1,3.4,3.8,3.4,3.8s2.5,14.4-6,9.5c-8.5-4.8-12.4-13.1-12.4-13.1
		s1.4-0.9,2.1-1.7c1.3-1.5,1.5-11.1,1.5-11.1L66.5,45.3z"/>
	<path class="st1" d="M7.4,60.4c0,0-5.7-3.4-6.4-5.9c-0.7-2.5-1.9-8.2,0-8.6c1.9-0.4,3.2,5.1,4.2,6c1,0.9,8.3,5.8,7.7,9.9
		C12.3,65.9,7.4,60.4,7.4,60.4z"/>
	<path class="st5" d="M40.9,57.6c0,0-4.3,1.2-9.2,7.4c-4.9,6.2-15.6,34.6-15.6,34.6l1.7,15.5c0,0,4.3,1.5,9.9-7.3
		C33.3,99,39,83.9,39,83.9L40.9,57.6z"/>
	<path class="st8" d="M37.1,86.9l3.6-11.7c0,0,4.5,22.3,3.9,39.1c-0.5,16.8-5.9,30-5.9,30l-7.9-2.8c0,0,7.2-16.7,8-27.4
		C39.6,103.6,37.1,86.9,37.1,86.9z"/>
	<path class="st5" d="M13.4,59.8c0,0,8.8,40.2,9.6,46.6c0.8,6.3-6.6,15.3-11.9,1.7C5.7,94.4,6.5,61,6.5,61L13.4,59.8z"/>
	<path class="st9" d="M54.4,43.3c0,0,3.1,3.3,6.3,4.1c3.2,0.8,5.5-0.1,5.5-0.1L66,50.2c0,0-2.5,2-5.9,2.5c-3.5,0.5-6.5-1.2-6.5-1.2
		L54.4,43.3z"/>
	<path class="st6" d="M58.6,17.5c0,0-2,9.8-1,14.6c1,4.8,2.3,17.7-1.5,21.1c-3.8,3.4-9.5-2.4-13.9-2.4c-4.4,0-8.5,2.3-12.3-0.9
		c-3.8-3.2-3.6-9.7-0.5-12.3c3-2.6,7.7-3.1,9.8-6.6c2.1-3.5-1.7-15,3.1-21.9C47,2.3,52.8,1.4,57.1,1.4c3.8-2.6,11.4-1.5,13.4,2
		c2,3.6,7.8,7.9,7.7,14.1c-0.1,6.2-1.7,5.9-5.1,4.3c-3.3-1.6-7.5,0.6-10.1,0.4C60.3,22,58.8,20.8,58.6,17.5z"/>
	<path class="st5" d="M101.4,119.8l13.1-33.4l-7.1-3.3l-15.5,26.2C91.9,109.2,97.2,117.4,101.4,119.8z"/>
	<g>
		<path class="st10" d="M103.2,45.3l0.5-1.1l19.4,7.3l5.3-6.6l0.9,0.5l-3.8,9.8c0,0-13.3,0.8-13.7,1.1
			C111.1,56.7,103.2,45.3,103.2,45.3z"/>
		<polygon class="st11" points="121,52.8 110.9,82 93.2,76 102,45.5 		"/>
		<polygon class="st12" points="121,52.8 124.8,52.8 114.7,81.4 110.9,82 		"/>
		<polygon class="st13" points="124.8,52.8 129.7,45.5 117.9,77.5 114.7,81.4 		"/>
		<polygon class="st13" points="102,45.5 121,52.8 124.8,52.8 129.7,45.5 129.3,45.2 124.3,52.4 121,52.3 102.4,45 		"/>
	</g>
	<path class="st1" d="M113.6,86c0,0,3.6-7.1,3.3-8.8c-0.2-1.7,0.6-7,0-8.9c-0.6-2-3.2-1.5-3.9,2.1c-0.7,3.5-2.7,9.5-2.9,10.7
		c-0.2,1.2-1.3,2.7-1.3,2.7L113.6,86z"/>
	<path class="st5" d="M50.9,54.3c0,0,2.9,8.7,2.7,26.1c-0.1,14.8-5,123.9-6.4,156.1c-0.2,5-4.4,9-9.4,9h-11c-2.4,0-4.3-2-4.3-4.3
		c0.2-16.4,1.2-74.6,3.7-93.4c2.9-22,6.8-42,8-57.8c1.2-15.8,1.4-29.2,1.4-29.2S39.7,56.4,50.9,54.3z"/>
	<path class="st5" d="M67.8,57.1c0,0,6.9,17,6.9,27.1c0,10-1.8,22-0.6,74.8c0.8,35.1-0.3,61.8-1.2,75.7c-0.4,5.8,4.3,10.8,10.1,10.8
		h0c1.4,0,2.5-1.1,2.4-2.5c-0.2-13-1.4-72.9-2.5-95.3c-1.2-25.1-2.6-49.5-2.6-49.5l4.1-15.2l-2.5-11.6c0,0-2.7-5.9-5.4-8.8
		C74.1,59.8,67.8,57.1,67.8,57.1z"/>
	<polygon class="st0" points="19.8,90 23.8,103.6 21.1,87 	"/>
	<polygon class="st0" points="33.5,97.3 41.4,83.1 30.1,121.3 	"/>
	<path class="st0" d="M80.7,102.2c0,0,0.3-3.5,0.8-7.7c0.5-4.2,0.6-8.3-0.4-13.1c-1-4.8-2.9-9.7-2.9-9.7s3.9,6.6,5.5,16.3
		c1.6,9.7,2.6,24.3,2.6,24.3S82,105.5,80.7,102.2z"/>
	<path class="st10" d="M3.2,47.8c0,0-1.4-3.7-1.2-4.5c0.2-0.8,1.9-1.9,2.4-1.2c0.5,0.7,2.6,9.1,2.1,9.8c-0.5,0.6-1.8,0-1.8,0
		L3.2,47.8z"/>
</g>
<g>
</g>
<g>
</g>
<g>
</g>
<g>
</g>
<g>
</g>
<g>
</g>
<g>
</g>
<g>
</g>
<g>
</g>
<g>
</g>
<g>
</g>
<g>
</g>
<g>
</g>
<g>
</g>
<g>
</g>
</svg>
