<?xml version="1.0" encoding="utf-8"?>
<!-- Generator: Adobe Illustrator 24.0.1, SVG Export Plug-In . SVG Version: 6.00 Build 0)  -->
<svg version="1.1" id="Layer_1" xmlns="http://www.w3.org/2000/svg" xmlns:xlink="http://www.w3.org/1999/xlink" x="0px" y="0px"
	 viewBox="0 0 446.7 287.7" style="enable-background:new 0 0 446.7 287.7;" xml:space="preserve">
<style type="text/css">
	.st0{fill:#031F3A;}
	.st1{fill:#FFBDC6;}
	.st2{fill:#FF733D;}
	.st3{fill:#D5562C;}
	.st4{fill:none;}
	.st5{fill:#F0F0F0;}
	.st6{fill:#FFFFFF;}
	.st7{fill:#C9CACA;}
	.st8{fill:#3F51AE;}
	.st9{fill:#FFA6A9;}
	.st10{fill:#F3A0A4;}
	.st11{fill:#314288;}
	.st12{fill:#DCDCDC;}
	.st13{fill:#DCDDDD;}
	.st14{fill:#FF8841;}
	.st15{fill:#435FAB;}
	.st16{fill:#FFE46D;}
	.st17{fill:#FDD44E;}
</style>
<path class="st0" d="M191.6,81.1c-7.5-9.8-12.2-22.2-12.5-34.6c-0.1-3.8,0.1-7.6,0.4-11.4c0.4-4.8,1.5-9.6,3.5-14
	c1.6-3.6,3.6-6.9,7.4-8.3c0.2-0.1,2.3-0.5,2.2,0.1c0.5-2.2,2.1-3.9,3.7-5.4c8.7-8.2,21.6-9,32.6-6c4.1,1.1,8.1,2.8,11.8,5
	c4.6,2.8,8.9,6.2,12.2,10.4c0.2,0.2,0.3,0.4,0.5,0.6c4.9,6.4,8.5,12.6,10.4,20.5c1.5,6.6,2.3,13.3,4.6,19.7c1.8,5.1,4.6,10,5.3,15.4
	c1.2,9.4-6.3,15.3-14.6,17.7c-9.2,2.7-18.1,3.2-27.6,4.5c-10.5,1.5-21,3.8-31.4,5.9c-2.8,0.6-5.6,1.2-8.4,0.9
	c-2.8-0.3-5.7-1.6-7.2-4c-2.2-3.4-1-7.9-0.5-11.9c1.3-10-2-19.9-3.8-29.9"/>
<g>
	<path class="st1" d="M249.9,104.5c-0.1-0.8-0.2-1.5-0.3-2.3c-1.4-10.3-1.2-19.7-0.2-30.1c0-0.5,0.1-1.1,0.1-1.6
		c0-0.6-0.1-1.1-0.3-1.7c-1.7-4.4-8.3-4.2-11.9-3.2c-3.9,1.1-7.9,3.1-11.2,5.6c-3.2,2.4-7.3,5.7-9.8,9.6c-3.5,5.3-2.7,9.2-1.9,15.3
		c0.4,2.7,0.3,5.5-0.1,8.2c-1.1,6.7-7.9,9-14.1,8.9c-1.2,4.2-4.6,8.8-4.3,13.1c0.3,4.1,2.3,7.9,4.9,11c4.1,4.8,9.9,8,15.9,9.9
		c6,1.9,12.4,2.5,18.7,2.8c1.5,0.1,3.1,0.1,4.5-0.3c1.6-0.5,2.9-1.6,4.3-2.6c4.2-3.2,8.6-6.1,13.1-8.6c2-1.1,4.2-2.3,5.7-4
		c2-2.3,2.7-5.4,3-8.3c0.2-2.7,0.1-5.7-2.2-7.5c-1.5-1.2-3.3-1.8-5.1-2.4C252.8,114.3,250.8,110.5,249.9,104.5z"/>
</g>
<path class="st1" d="M132.8,211.2c-2.9,3.5-5.8,7.2-9.8,9.3c-5.5,2.9-12.6,2.5-17.7-1.1c-2.4-1.7-5.6-1.5-6.1-4.5
	c-0.8-5.3,5.4-14.5,8.4-18.6c6.9-9.3,13.2-19.1,19.5-29c0.3-0.5,0.6-1,1.2-1.2c0.8-0.4,1.7,0,2.5,0.4c4.8,2.2,9.6,4.4,13.7,7.8
	c2.6,2.1,4.9,4.7,6.4,7.7c2.1,4.1,1.5,5.2-1.3,8.5C143.9,197.4,138.3,204.3,132.8,211.2z"/>
<g>
	<path class="st2" d="M325.7,182.1c-0.5-2.1-1.4-4.3-2.2-6.4c-1.5-3.8-3.2-7.5-4.5-11.4c-2.7-7.6-5.2-15.4-8.2-22.9
		c-2.9-7.5-10.2-12.5-17.5-15.1c-12.1-4.3-24.5-7.4-36.5-11.7c0.1,7.1-3.3,14.2-8.8,18.8c-1.2,1-2.5,1.9-3.9,2.6
		c-7.7,4-17.7,3.3-24.8-1.8c-7.1-5.1-10.6-15.2-9.1-23.8c-2.8,0.4-25.1,2.2-27.6,2.3c-5.9,0.3-12,0.6-17.4,3.2
		c-8.4,4-15.4,13.6-20.8,20.9c-7,9.8-14.9,19.1-20.9,29.6c-0.2,0.3-0.3,0.6-0.3,0.9c0,0.4,0.2,0.7,0.3,1.1c4,7.5,9.4,11.6,17.2,15
		c6.4,2.7,10.7,4.5,17.6,5.5c2.2-3.8,5.1-7.4,7-11.2c2.3,17.3,0.2,34.7-1.7,52.1h122c0.2-13.8,0.1-27.7-0.3-41.5
		c0.3,0.8,0.8,2.1,1.2,2.9c0.4,1,0.9,2,1.4,3c0.6,1.2,1.5,4,3,4.3c1.2,0.2,2.4-1.2,3.2-1.9c3.4-2.7,6.7-5.9,10.5-8
		c3.4-2,7.2-3.2,11-3.9c1.8-0.3,3.7-0.5,5.5-0.5C322.7,184.1,326.3,184.5,325.7,182.1z"/>
	<path class="st3" d="M165.7,178.5C165.7,178.5,165.6,178.5,165.7,178.5c-0.4-0.1-0.6-0.3-0.5-0.6c1.2-6.4,2.5-13.7,3.5-21
		c0.8-5.7,1.2-11.6,1.2-19c0-4.2-0.1-7.9-2.2-10.7c-0.2-0.2-0.1-0.6,0.1-0.7c0.2-0.2,0.6-0.1,0.7,0.1c2.5,3.3,2.4,8,2.4,11.3
		c-0.1,7.5-0.5,13.4-1.3,19.1c-1,7.3-2.3,14.6-3.5,21C166.2,178.4,165.9,178.5,165.7,178.5z"/>
	<path class="st3" d="M285.2,189.1c-0.3,0-0.5-0.2-0.5-0.5c-1.8-18.7-0.9-30,3-39c0.1-0.3,0.4-0.4,0.7-0.3c0.3,0.1,0.4,0.4,0.3,0.7
		c-3.9,8.8-4.7,20-3,38.5C285.8,188.8,285.6,189.1,285.2,189.1C285.3,189.1,285.2,189.1,285.2,189.1z"/>
	<path class="st3" d="M291.5,142.6c-0.1,0-0.2,0-0.3-0.1c-0.2-0.2-0.3-0.5-0.2-0.7c1.5-2.3,3.2-4.5,5-6.5c1.3-1.4,3-3,5.1-3
		c0.3,0,0.5,0.2,0.5,0.5c0,0.3-0.2,0.5-0.5,0.5c0,0,0,0-0.1,0c-1.7,0-3.1,1.3-4.3,2.6c-1.8,2-3.4,4.1-4.9,6.3
		C291.8,142.5,291.6,142.6,291.5,142.6z"/>
</g>
<g>
	<path class="st4" d="M290.8,198.4c-1.6-0.3-2.5-3.1-3-4.3c-0.5-1-0.9-2-1.4-3c-0.3-0.8-0.8-2.1-1.2-2.9c0.2,5.3,0.3,10.6,0.3,16
		c0.8-0.1,1.6-0.2,2.4-0.3c2.6-0.3,5.2-0.4,7.8-0.3c-0.7-2-1.7-4.2-2.6-6.4C292.5,197.9,291.7,198.6,290.8,198.4z"/>
	<path class="st1" d="M329.8,213.2c-2.4-9.7-4.9-19.4-7.3-29.1c-0.5,0-1,0-1.4,0c-1.9,0-3.7,0.2-5.5,0.5c-3.9,0.7-7.7,1.9-11,3.9
		c-3.8,2.2-7.1,5.3-10.5,8c-0.2,0.2-0.5,0.5-0.8,0.7c0.9,2.2,1.9,4.3,2.6,6.4c-2.6-0.1-5.2,0.1-7.8,0.3c-0.8,0.1-1.6,0.2-2.4,0.3
		c-2.3,0.3-4.5,0.6-6.8,1.1c-15.3,2.8-30.9,5.3-46,8.6c-7,1.6-14.2,2.2-21.4,1.9c-3.4-0.1-6.6-0.6-9.9-0.2c-3.7,0.4-7.5,1-11.1,1.9
		c-5.3,1.4-10.4,3.6-15.8,4.3c-3.3,0.4-7.5,0.9-8.5,4.1c-0.7,2.1,0.7,4.5,2.6,5.6c1.9,1.2,4.2,1.4,6.4,1.6c8.9,0.8,17.8,1,26.8,1.3
		c3.1,0.1,6.2,0.2,9.2-0.4c2.5-0.5,5-1.5,7.5-2c4.2-1,8.6-0.7,13-0.8c13.7-0.7,27.7,0.3,41.4,1.1c4.3,0.3,8.6,0.5,12.8,0.8
		c7.6,0.5,15.1-0.1,22.6,0.4c8.5,0.6,18.2,1.4,22.2-8.2C332.2,221.4,330.8,217.1,329.8,213.2z"/>
</g>
<g>
	<path class="st5" d="M305.2,258.2c-7.6-5-15.5-9.9-24.4-12c-5.1-1.2-10.3-8.3-15.5-8.6c-10.8-0.5-21.7-1-32.5,0
		c-4.6,0.4-8.1,8.5-12.3,9.9c-4.4,1.5-10,1-14.6,0.9c0.7,2.3,1.6,4.6,2.6,6.8c0.5,1-0.1,2.2,0.9,2.6c0.5,0.2,2.3,0.1,2.9,0.1
		c8.5-0.1,17-0.2,25.5-0.1c14.3,0.1,28.6,0.2,42.9,0.3C288.8,258.1,297,258.2,305.2,258.2z"/>
	<path class="st6" d="M118.6,256.4c7.5-6.7,15.7-16.3,22.9-21.8c1.2-0.9,2.4-1.9,3.9-2.3c1.2-0.3,2.4-0.3,3.6-0.3
		c13.2,0.4,26.5,0.9,39.7,1.3c6,0,10.5,1,16.6,1.8c1,0.1,2.4,0.5,2.9,0.4c0.5-0.1,1.2-0.7,1.7-1c6.2-3.7,13-4.8,20.2-5
		c10.3-0.3,20,0.1,30.2,2c7.4,1.4,15.2,0.4,22,4c7.4,4,16.6,15.6,24.4,20.4c-13.6-0.1-27.1-1.4-40.5-4.1c-5.3-1-10.6-2.2-16-2.9
		c-5.3-0.6-10.6-0.2-15.8,0.8c-7.8,1.5-15.2,4.1-22.6,7.3c-0.7,0.3-1.5,0.6-2.2,0.7c-1,0.1-1.5,0-2.4-0.1
		c-11.3-1.1-23.1-0.4-34.4-0.5C154.7,257.2,136.6,256.9,118.6,256.4z"/>
	<path class="st7" d="M209.5,258.3c-0.3,0-0.5-0.2-0.5-0.5c-0.4-4.6-0.9-12.6-1.3-18.5l-0.2-3.3c0-0.3,0.2-0.5,0.5-0.6
		c0.3,0,0.5,0.2,0.6,0.5l0.2,3.3c0.4,5.9,0.9,13.9,1.3,18.4C210,258,209.8,258.3,209.5,258.3C209.5,258.3,209.5,258.3,209.5,258.3z"
		/>
</g>
<path class="st1" d="M135.9,204.6c5.1,3.5,9.9,7.8,15.8,9.4c2.7,0.7,5.6,0.9,8.1,2.2c2.6,1.4,4.5,4.1,5.2,7c0.8,2.9,0.5,6-0.3,8.9
	c-0.5,1.8-1.3,3.6-2.8,4.9c-2.2,1.9-5.3,2-8.2,2c-7.4,0-14.1-2.3-21.3-4.2c-6.9-1.8-13.8-3.2-20.5-5.5c-7-2.4-14-6.4-13.5-14.9
	c0.2-3,1.1-5.9,2.6-8.5c0.7-1.1,3.3-4.7,4.1-5.7c1.5-1.7,1.7-0.2,3.9-0.8c4.4-1.1,8.6-0.3,13,0.1
	C127.1,199.9,131.7,201.7,135.9,204.6z"/>
<path class="st8" d="M189.5,242.8c0,0.3-0.4,0.4-0.6,0.2c-1.2-1.7-3.7-5.1-3.8-5.5c-2.5-8-5-16-7.5-24c-2.6-8.2-5.1-16.4-7.7-24.5
	c-1-3-2.2-6-3.1-9.1c-0.4-1.3-0.9-2.5-1.3-3.8c-0.2-0.8-0.6-2.3,0.2-2.9c0.7-0.6,2.2-0.8,2.9,0c0.6,0.6,1,1.6,1.3,2.4
	c0.8,1.7,1.3,3.6,1.9,5.4c1,3,1.9,5.9,2.8,8.9c2.7,8.5,5.3,17,8,25.5c2.2,7,4.2,14,6.6,21C189.5,237,189.6,240,189.5,242.8z"/>
<path class="st1" d="M157.6,223c-0.5-3.8-1.7-7,1.3-10.1c1.3-1.3,1.6-2.4,1.8-4.3c0.5-3.3,3.6-3.4,6.3-3.2c3.2,0.1,6.7-0.7,9.6,1
	c3,1.6,5.8,4.6,8.2,7.1c2.1,2.3,2,5.7-0.8,7.2c1.1,1.3,1.2,3.8,0.4,5.3c-0.8,1.4-2,2.3-3.6,2.3c0.5,1.4,1.1,2.1,0.7,4.8
	c-0.1,0.5-2.3,3.1-3,2.6c1.6,1,1.5,3.6,0.2,5c-1.3,1.4-3.3,1.9-5.2,2c-2.6,0.2-5.2-0.2-7.7-0.8c-2-0.5-4-1.2-5.5-2.5
	c-1.5-1.3-2.6-3.4-2.3-5.4c0.3-1.8-0.8-3.4-1.3-5C156.2,226.7,157.9,225.2,157.6,223z"/>
<path class="st9" d="M181.7,233.2C181.7,233.2,181.7,233.2,181.7,233.2c-0.3,0-0.5-0.3-0.5-0.6c0.1-1.4-0.2-2.7-0.8-4
	c-0.1-0.2-0.1-0.4,0-0.5c0.1-0.2,0.3-0.3,0.4-0.2c0,0,0,0,0,0c0.7,0,1.5-0.3,2-0.8c0.2-0.2,0.4-0.3,0.5-0.4c0.2-0.1,0.3-0.2,0.3-0.3
	c0.1-0.3,0.4-0.4,0.7-0.3c0.3,0.1,0.4,0.4,0.3,0.7c-0.2,0.4-0.5,0.6-0.7,0.7c-0.1,0.1-0.2,0.1-0.3,0.2c-0.5,0.5-1.2,0.9-2,1.1
	c0.5,1.2,0.7,2.5,0.6,3.8C182.2,233,182,233.2,181.7,233.2z"/>
<path class="st9" d="M159.4,238.9c-0.1,0-0.3,0-0.4-0.1c-1.4-1.4-1.9-2.9-1.5-5.1c0.1-0.8-0.1-1.6-0.5-2.4c-0.1-0.3-0.3-0.7-0.4-1
	c-0.5-1.6-0.8-3.2-0.3-4.8c0.1-0.2,0.2-0.5,0.3-0.7c0.1-0.2,0.2-0.3,0.2-0.5c0.4-1,0.1-2.2-0.2-3.4c-0.1-0.5-0.2-0.9-0.3-1.4
	c-0.2-1.3-0.2-2.7,0.2-4c0.1-0.3,0.4-0.4,0.6-0.3c0.3,0.1,0.4,0.4,0.3,0.6c-0.3,1.1-0.4,2.4-0.2,3.5c0.1,0.4,0.2,0.9,0.3,1.3
	c0.3,1.3,0.7,2.7,0.2,4c-0.1,0.2-0.2,0.4-0.3,0.6c-0.1,0.2-0.2,0.4-0.3,0.6c-0.5,1.3-0.1,2.7,0.3,4.1c0.1,0.3,0.2,0.6,0.3,0.9
	c0.3,0.9,0.7,1.8,0.5,2.9c-0.3,1.8,0,3,1.2,4.1c0.2,0.2,0.2,0.5,0,0.7C159.6,238.8,159.5,238.9,159.4,238.9z"/>
<path class="st9" d="M183.6,220.8c-0.1,0-0.2,0-0.3-0.1c-5.5-3.9-11-5.9-15.9-5.6c-0.3,0-0.5-0.2-0.5-0.5c0-0.3,0.2-0.5,0.5-0.5
	c5.2-0.2,10.8,1.7,16.6,5.8c0.2,0.2,0.3,0.5,0.1,0.7C183.9,220.7,183.7,220.8,183.6,220.8z"/>
<path class="st9" d="M180.7,228.8C180.6,228.8,180.6,228.8,180.7,228.8c-2.6-0.2-5.1-0.9-7.4-1.6c-2.6-0.7-5.4-1.5-8.1-1.6
	c-0.3,0-0.5-0.3-0.5-0.5c0-0.3,0.3-0.5,0.5-0.5c2.9,0.1,5.7,0.9,8.4,1.6c2.3,0.6,4.8,1.3,7.2,1.5c0.3,0,0.5,0.3,0.5,0.6
	C181.2,228.6,180.9,228.8,180.7,228.8z"/>
<path class="st9" d="M178.2,236.3L178.2,236.3c-4,0-8.6,0-12.8-1.5c-0.3-0.1-0.4-0.4-0.3-0.7c0.1-0.3,0.4-0.4,0.7-0.3
	c4,1.4,8.3,1.4,12.4,1.4c0.3,0,0.5,0.2,0.5,0.5C178.8,236.1,178.5,236.3,178.2,236.3z"/>
<path class="st1" d="M185,210.2c2.3,0.7,4.5,2,5.1,4.4c0.4,1.3,0.2,2.8-0.4,4l-2.5,5.5c-0.6,1.3-1.7,2.3-3,2.6
	c-4.1,1-3.7-5.2-3.2-7.7c0.5-2.1,1.1-4.1,1.3-6.2c0.1-0.7,0.2-1.2-0.2-1.8c0,0.1-1.5-1.4-0.8-1.4C182.6,209.7,183.8,209.9,185,210.2
	z"/>
<path class="st9" d="M184.1,227.3c-0.5,0-1-0.1-1.5-0.3c-3.4-1.5-2.5-5.7-2-7.8l1.1-4.7c0.2-0.8,0.4-1.5,0.3-2.3
	c-0.1-0.8-0.4-1.4-0.9-1.7c-0.2-0.2-0.3-0.5-0.2-0.7c0.2-0.2,0.5-0.3,0.7-0.2c0.8,0.5,1.3,1.4,1.4,2.5c0.1,0.9-0.1,1.8-0.3,2.6
	l-1.1,4.7c-0.6,2.8-0.9,5.6,1.4,6.6c2.4,1,4.1-1.5,4.7-2.7c0.5-1,0.9-2.2,1.3-3.4c0.2-0.6,0.4-1.2,0.6-1.8c0.1-0.3,0.4-0.4,0.7-0.3
	c0.3,0.1,0.4,0.4,0.3,0.7c-0.2,0.6-0.4,1.2-0.6,1.8c-0.4,1.2-0.8,2.5-1.4,3.6C187.4,226,185.8,227.3,184.1,227.3z"/>
<g>
	<path class="st10" d="M248,67.3c0-0.1,0-0.1,0-0.2c-0.1-0.4-0.1-0.8-0.4-1.1c-0.3-0.3-0.6-0.4-1-0.5c-0.6-0.1-1.2-0.1-1.9-0.1
		C246,65.8,247.2,66.3,248,67.3z"/>
	<path class="st10" d="M221,112.2c6.3-0.5,11.1-3.2,15.1-8.2c4-5,6.9-11,8.6-17.1c1.8-6.3,4.2-13.1,3.3-19.7c-0.8-0.9-2-1.5-3.3-1.8
		c-3.1,0.1-6.1,1.8-8.9,3.4c-5.6,3.4-11.1,6.8-15.7,11.4c-2.8,2.7-4.8,5.7-6.5,8.9c0,2.2,0.3,4.4,0.7,7.2c0.4,2.7,0.3,5.5-0.1,8.2
		c-0.4,2.4-1.5,4.2-3.1,5.6C213.7,112.2,217.6,112.5,221,112.2z"/>
	<path class="st10" d="M248,67.3c-0.8-0.9-2-1.5-3.3-1.8c-2.5-0.6-5.6-0.3-7.6,0.3c-3.9,1.1-7.9,3.1-11.2,5.6
		c-3.2,2.4-7.3,5.7-9.8,9.6c-1.9,3-2.5,5.5-2.6,8.1c0,2.2,0.3,4.4,0.7,7.2c0.4,2.7,0.3,5.5-0.1,8.2c-0.4,2.4-1.5,4.2-3.1,5.6
		c2.6,2.1,6.4,2.4,9.8,2.1c6.3-0.5,11.1-3.2,15.1-8.2c4-5,6.9-11,8.6-17.1C246.6,80.7,248.9,73.9,248,67.3z"/>
</g>
<g>
	<g>
		<path class="st1" d="M247.5,34.1c1.8,3.9,2.8,8.1,3.2,12.9c0.4,5,0.1,10-0.5,14.9c-0.5,4.8-1.5,9.6-3.1,14.2
			C243,87.7,237,97.4,225.2,102c-2.3,0.9-4.8,1.6-7.3,1.4c-3.7-0.3-7-2.4-10-4.4c-2.7-1.9-5.4-3.8-7.8-6
			c-10.1-9.5-12.9-23.5-14.9-37.2c-1.3-9-4.9-18.9,1.1-26.5c5.2-6.7,13.7-10.1,22-11.9c4.9-1.1,9.9-1.8,14.8-1.2
			c7.2,0.8,13.9,4.4,18.7,9.8C244.2,28.5,246.1,31.2,247.5,34.1z"/>
		<path class="st1" d="M248.6,50.5c0,0,6.3-0.8,5.8,6.1c0,0-0.7,6.9-1.7,9.3c0,0-1.6,5.4-4.3,4.2L248.6,50.5z"/>
		<g>
			<g>
				<path class="st0" d="M212.9,79c-1-0.2-1.9-0.5-2.8-1.1c-0.8-0.6-1.4-1.5-1.5-2.5c-0.1-1.5,1-2.8,1.7-4.2c0.7-1.2,1-2.6,1.1-3.9
					c0.1-0.1,0.3-0.1,0.4,0.1c0.1,0.2,0.1,0.4,0.1,0.5c-0.1,1.4-0.4,2.8-1,4c-0.5,1-1.2,2.1-1.1,3.3c0.1,0.7,0.6,1.4,1.2,1.8
					c0.6,0.4,1.3,0.7,2,1c0.3,0.1,0.7,0.3,0.7,0.6C213.7,79,213.3,79.1,212.9,79z"/>
				<g>
					<g>
						<g>
							<path class="st0" d="M217,55.3c0.4,0.7,1.5,0.2,2.1,0.1c1.5-0.5,3.1-1.2,4.7-1.7c1.7-0.4,3.5-0.1,5.2-0.2
								c1.6-0.1,1.4-1.2,0.2-1.8c-3.5-1.9-8.3-0.8-11.2,1.7C217.4,53.8,216.6,54.5,217,55.3z"/>
						</g>
						<g>
							<path class="st0" d="M201.5,58.7c0,0.8-1.1,0.8-1.7,0.9c-1.5,0.2-3,0.1-4.5,0.3c-1.5,0.3-2.9,1.3-4.4,1.8
								c-1.4,0.5-1.6-0.5-0.9-1.6c2.1-3.1,6.5-4,9.9-2.8C200.6,57.6,201.5,57.8,201.5,58.7z"/>
						</g>
					</g>
					<path class="st0" d="M226.8,62.5c0,0.3-0.1,0.6-0.2,0.9c-0.6,1.3-2.2,1.6-3.2,0.7c-1.4-1.4-0.4-3.4,1.4-3.5
						C226,60.5,226.8,61.4,226.8,62.5z"/>
					<path class="st0" d="M199.9,68.1c0,0.4-0.1,0.8-0.2,1.1c-0.6,1.2-2.3,1.4-3.3,0.4c-1.4-1.4-0.4-3.4,1.4-3.5
						C199,66.1,199.8,67,199.9,68.1z"/>
				</g>
			</g>
			<g>
				<path class="st0" d="M221.5,86.2c-1.9,1.2-5.6,2.2-7.7,0.8c-0.2-0.1-0.3-0.2-0.4-0.4c-0.4-1.1,1-0.8,1.6-0.7
					c1.7,0.3,3.3,0,4.7-0.8c0.8-0.5,1.6-1.1,2.2-1.8c0.5-0.7,0.9-1.6,1.6-2.2c0.7-0.6,1,0.1,0.9,0.7c-0.1,0.6-0.3,1.2-0.6,1.7
					C223.4,84.5,222.6,85.5,221.5,86.2z"/>
			</g>
		</g>
	</g>
	<path class="st0" d="M183,49.4c-0.2-2.8-0.4-5.6-0.7-8.5c-0.5-5.5-0.1-12.4,3.8-16.7c2.3-2.6,5.1-4.8,8.2-6.4
		c0.6-0.3,1.3-0.6,1.8-1.1c0.5-0.5,0.8-1,1.1-1.6c3-4.8,8.5-7.5,13.7-9.8c1.9-0.8,3.8-1.7,5.9-2c2.8-0.5,5.7-0.1,8.6,0.4
		c5.2,0.9,10.2,2.1,15,4.3c4.2,2,5.6,6.2,7.1,10.3c1.7,4.5,2.8,9.2,3.6,13.9c0.8,4.4,0.6,8.6,0.7,13c0.2,4.1-1.6,7.2-3.8,10.6
		c-0.2,0.3-0.3,0.5-0.6,0.7c-0.3,0.2-0.6,0.2-0.9,0c-0.2-0.1-0.2-0.4-0.3-0.6c-0.7-2.4-1.4-5.1-2.7-7.4c-1.1-2-3-3.2-4.9-4.3
		c-2.2-1.3-4.9-2.2-7.4-2.2c-4.9,0.1-9.9,0.1-14.7-0.6c-5.9-0.8-10.7-2.3-16-5c-0.8-0.4-5.8-4.3-7-5.7c-3.8,6.3-1.6,14.3-5.3,20.8
		c-0.7,1.2-1.5,2.2-2.3,3.2c-0.7,0.9-1.5,1.8-2.5,2.1C183.1,54.5,183.2,52,183,49.4z"/>
</g>
<path class="st9" d="M137.3,206.4c-0.1,0-0.3,0-0.4-0.1c-1.8-1.7-4.2-2.9-7.2-3.7c-2.7-0.6-5.5-0.8-8.3-0.9c-0.3,0-0.5-0.3-0.5-0.5
	c0-0.3,0.3-0.5,0.5-0.5c2.8,0.2,5.7,0.3,8.5,1c3.2,0.8,5.8,2.1,7.7,3.9c0.2,0.2,0.2,0.5,0,0.7C137.5,206.4,137.4,206.4,137.3,206.4z
	"/>
<path class="st9" d="M306.9,205c0,0-0.1,0-0.1,0c-3.6-0.8-7.3-1.1-10.9-0.9c-0.3,0-0.5-0.2-0.5-0.5c0-0.3,0.2-0.5,0.5-0.5
	c3.8-0.2,7.5,0.1,11.2,0.9c0.3,0.1,0.5,0.3,0.4,0.6C307.4,204.8,307.1,205,306.9,205z"/>
<g>
	<path class="st8" d="M54.6,121.2c0,2.7-1.1,5-1.9,7.5c-2.6,8.5,2.1,19.1,5.2,26.8c0.3,0.6,0.5,1.3,1.1,1.7c0.7,0.4,1.6,0.3,2.4,0.1
		c3.5-0.8,7-2,10.3-3.4c6.8-2.9,13.4-6.4,19.5-10.5c5.8-3.9,11.7-6.9,16.4-12.3c0.5-0.6,1-1.2,1.2-1.9c0.7-2.4-1.8-5.4-3.2-7.2
		c-1.4-1.9-3.2-3.6-4.8-5.4c-4.1-4.6-9.3-7.7-15.5-7.9c-2.6-0.1-5.1,0.1-7.4-1.2c-3.3-1.7-5.5-4.9-7.4-7.9
		C67.2,94.3,60.4,90,54.1,93c-7.2,3.4-5.5,13.2-2.3,19.1c1.4,2.7,2.7,5.6,2.8,8.7C54.6,120.9,54.6,121.1,54.6,121.2z"/>
	<path class="st11" d="M74.5,102.9c-0.7-3.1-2.9-7-6.4-6.4c-3.2,0.5-6.1,2.5-8.9,4c-3.8,2.1-7.2,4.7-10.2,7.9
		c-0.2,0.2-0.4,0.4-0.4,0.7c0,0.3,0.1,0.6,0.3,0.8c1.1,1.9,2.3,5.9,4.9,5.9c2.4,0,4.8-3.1,6.6-4.4c2.6-1.9,5.5-3.4,8.4-4.8
		C70.3,105.9,75.1,105.2,74.5,102.9z"/>
	<g>
		<path class="st11" d="M59,260.3c0.2-1.2,0.2-2.5,0.1-3.7c-0.2-2.7-1.8-4.3-4.3-4.7c-1.9-0.3-3.7-0.1-5.6-0.4c-2-0.4-4-0.8-6.1-1.1
			c-4-0.5-8.1-0.6-12.1-0.4c-3,0.2-6.1,1.1-9.1,1.1c-6.2,0-12.5,1.2-18.5,2.7c-1.2,0.3-2.5,0.8-3,1.9C0,256.3,0,256.9,0,257.5
			c0,3.4-0.4,6.4,2.4,8.7c2.1,1.7,4.8,2.5,7.4,3c11.9,2.3,24.1,2.6,36.1,1c3-0.4,6-1,8.6-2.5C57.3,266,58.6,263.2,59,260.3z"/>
		<path class="st8" d="M9.2,247c-2.3,0.7-4.6,1.7-6.4,3.3c-1.8,1.6-2.9,4.1-2.4,6.5c0.8,4.1,5.6,5.8,9.7,6.6
			c11.9,2.3,24.1,2.6,36.1,1c3-0.4,6-1,8.6-2.5c2.6-1.6,4.4-3.7,4.2-6.7c-0.4-7.4-12.3-10.2-18.5-10.7C30,243.7,19.3,243.7,9.2,247z
			"/>
	</g>
	<path class="st12" d="M62.3,151.2c-1.5,1.2-3.9,3.9-3.7,6c0.1,0.5,0.3,1.1,0.7,1.4c0.3,0.2,0.6,0.2,0.9,0.2c1.7,0.1,3.4-0.2,5-0.6
		c12.4-2.9,24.2-8.6,34.2-16.5c2.2-1.7,4.3-3.6,6.2-5.7c1.5-1.7,4-4.4,3.9-6.9c-0.3-4-7.8-0.9-9.8-0.1c-2.8,1.1-5.5,2.4-8.2,3.7
		c-5.3,2.5-10.4,5.4-15.3,8.5C71.4,144.2,66.7,147.6,62.3,151.2z"/>
	<path class="st11" d="M30.7,255.1c-1.5,0-2.9-1-3.3-2.5L0.5,162.9c-0.4-1.2,0-2.5,0.8-3.4l48-51.1c1.3-1.4,3.5-1.5,4.9-0.2
		c1.4,1.3,1.5,3.5,0.2,4.9L7.6,162.8L34,250.6c0.5,1.8-0.5,3.8-2.3,4.3C31.3,255,31,255.1,30.7,255.1z"/>
</g>
<polygon class="st2" points="93.6,255.8 183.9,282.5 172,287.7 83,258.6 "/>
<g>
	<g>
		<path class="st13" d="M327.7,269.8l9.2,2.1C333.8,271.3,330.7,270.6,327.7,269.8z"/>
		<g>
			<path class="st14" d="M379.8,286.1l55.7-28.9c0,0,5.8-5.9-1.4-10.1l-59.8,30.4L379.8,286.1z"/>
			<polygon class="st2" points="324.5,265.4 383.8,239.2 434.1,247.1 376.8,277.4 			"/>
			<path class="st6" d="M324.5,265.4c8.2,2.1,16.8,3.8,25.1,5.3c8.7,1.6,17.3,3.1,26,4.7c1.6,0.3,3,0.6,4.4,1.5
				c1.3,0.9,1.8,2.3,2,3.8c0.2,1.8,0.4,3.6-1.2,4.9c-0.9,0.7-2.1,0.6-3.2,0.5c-3.3-0.3-6.6-0.7-9.8-1.2c-13.4-2.2-26.5-5.1-39.6-8.6
				c-0.9-0.2-1.9-0.5-2.8-0.8c-0.4-0.1-1.8-0.6-2.5-0.8c1.7-0.8,2-2.6,2.3-4.3C325.6,269,325.4,265.6,324.5,265.4z"/>
		</g>
		<g>
			<path class="st15" d="M379.2,274l55.7-28.9c0,0,5.8-5.9-1.4-10.1l-59.8,30.4L379.2,274z"/>
			<polygon class="st8" points="323.8,253.3 383.2,227.1 433.5,235 376.2,265.2 			"/>
			<path class="st6" d="M323.8,253.2c8.2,2.1,16.8,3.8,25.1,5.3c8.7,1.6,17.3,3.1,26,4.7c1.6,0.3,3,0.6,4.4,1.5
				c1.3,0.9,1.8,2.3,2,3.8c0.2,1.8,0.4,3.6-1.2,4.9c-0.9,0.7-2.1,0.6-3.2,0.5c-3.3-0.3-6.6-0.7-9.8-1.2c-13.4-2.2-26.5-5.1-39.6-8.6
				c-0.9-0.2-1.9-0.5-2.8-0.8c-0.4-0.1-1.8-0.6-2.5-0.8c1.7-0.8,2-2.6,2.3-4.3C325,256.8,324.8,253.5,323.8,253.2z"/>
		</g>
		<g>
			<path class="st16" d="M388.8,259.9l55.7-28.9c0,0,5.8-5.9-1.4-10.1l-59.8,30.4L388.8,259.9z"/>
			<polygon class="st17" points="333.4,239.2 392.8,213 443.1,220.9 385.8,251.1 			"/>
			<path class="st6" d="M333.4,239.2c8.2,2.1,16.8,3.8,25.1,5.3c8.7,1.6,17.3,3.1,26,4.7c1.6,0.3,3,0.6,4.4,1.5
				c1.3,0.9,1.8,2.3,2,3.8c0.2,1.8,0.4,3.6-1.2,4.9c-0.9,0.7-2.1,0.6-3.2,0.5c-3.3-0.3-6.6-0.7-9.8-1.2c-13.4-2.2-26.5-5.1-39.6-8.6
				c-0.9-0.2-1.9-0.5-2.8-0.8c-0.4-0.1-1.8-0.6-2.5-0.8c1.7-0.8,2-2.6,2.3-4.3C334.6,242.7,334.4,239.4,333.4,239.2z"/>
		</g>
	</g>
	<polygon class="st2" points="374.4,251.1 377.9,251.8 378.5,260.7 376.8,258.7 375,260.1 	"/>
</g>
<polygon class="st17" points="329.5,260.5 329.5,269 331.2,267.3 333.1,269.9 333.1,261.5 "/>
<g>
</g>
<g>
</g>
<g>
</g>
<g>
</g>
<g>
</g>
<g>
</g>
<g>
</g>
<g>
</g>
<g>
</g>
<g>
</g>
<g>
</g>
<g>
</g>
<g>
</g>
<g>
</g>
<g>
</g>
</svg>
