<?xml version="1.0" encoding="utf-8"?>
<!-- Generator: Adobe Illustrator 24.0.1, SVG Export Plug-In . SVG Version: 6.00 Build 0)  -->
<svg version="1.1" id="Layer_1" xmlns="http://www.w3.org/2000/svg" xmlns:xlink="http://www.w3.org/1999/xlink" x="0px" y="0px"
	 viewBox="0 0 61.8 48.4" style="enable-background:new 0 0 61.8 48.4;" xml:space="preserve">
<style type="text/css">
	.st0{fill:none;stroke:#A9434A;stroke-miterlimit:10;}
</style>
<path class="st0" d="M34.2,47.9v-9.5c7-0.5,12.9-4.7,15.8-10.8h-9c-3.8,0-6.8-3.1-6.8-6.8V7.3c0-3.8,3.1-6.8,6.8-6.8h13.5
	c3.8,0,6.8,3.1,6.8,6.8v13.5C61.3,35.7,49.1,47.9,34.2,47.9z"/>
<path class="st0" d="M0.5,47.9v-9.5c7-0.5,12.9-4.7,15.8-10.8h-9c-3.8,0-6.8-3.1-6.8-6.8V7.3c0-3.8,3.1-6.8,6.8-6.8h13.5
	c3.8,0,6.8,3.1,6.8,6.8v13.5C27.6,35.7,15.4,47.9,0.5,47.9z"/>
<g>
</g>
<g>
</g>
<g>
</g>
<g>
</g>
<g>
</g>
<g>
</g>
<g>
</g>
<g>
</g>
<g>
</g>
<g>
</g>
<g>
</g>
</svg>
