<?xml version="1.0" encoding="utf-8"?>
<!-- Generator: Adobe Illustrator 24.0.1, SVG Export Plug-In . SVG Version: 6.00 Build 0)  -->
<svg version="1.1" id="Layer_1" xmlns="http://www.w3.org/2000/svg" xmlns:xlink="http://www.w3.org/1999/xlink" x="0px" y="0px"
	 viewBox="0 0 88.7 98.1" style="enable-background:new 0 0 88.7 98.1;" xml:space="preserve">
<style type="text/css">
	.st0{fill:#FFFFFF;stroke:#FFFFFF;stroke-width:3;stroke-miterlimit:10;}
	.st1{fill:#CB4F4C;}
</style>
<path class="st0" d="M68.4,20.2l6-0.7c9.7-1.1,16.2,9.8,10.4,17.8l-3.5,4.9c-2.9,4-2.8,9.4,0.1,13.3l3.6,4.8
	c5.8,7.9-0.4,18.9-10.2,17.9l-6-0.6c-4.9-0.5-9.5,2.2-11.5,6.7L55,89.8c-3.9,9-16.6,9.1-20.6,0.1l-2.5-5.5c-2-4.5-6.7-7.1-11.6-6.6
	l-6,0.7C4.6,79.8-1.8,68.8,3.9,60.8L7.4,56c2.9-4,2.8-9.4-0.1-13.3l-3.6-4.8C-2.1,30,4.2,18.9,13.9,19.9l6,0.6
	c4.9,0.5,9.5-2.2,11.5-6.7l2.4-5.5c3.9-9,16.6-9.1,20.6-0.1l2.5,5.5C58.9,18.1,63.5,20.8,68.4,20.2z"/>
<g>
	<g>
		<path class="st1" d="M56.6,41.4v15.4c0,1.8-0.5,3.5-1.4,4.9s-2.3,2.5-4,3.3s-3.7,1.1-6,1.1c-2.2,0-4.2-0.4-5.9-1.1
			c-1.7-0.8-3-1.8-4-3.2c-1-1.4-1.4-3-1.4-4.8v-1.4c0-0.2,0.1-0.3,0.2-0.4c0.1-0.1,0.3-0.2,0.4-0.2h6c0.2,0,0.3,0.1,0.4,0.2
			c0.1,0.1,0.2,0.3,0.2,0.4V56c0,1.1,0.4,2.1,1.1,2.8c0.8,0.7,1.7,1.1,2.9,1.1c1.3,0,2.3-0.4,3.1-1.2c0.8-0.8,1.2-1.7,1.2-2.9v-4.7
			c0-0.1,0-0.2-0.1-0.2c-0.1,0-0.1,0-0.2,0.1c-1.4,1.2-3.2,1.8-5.5,1.8c-2,0-3.9-0.5-5.5-1.4c-1.6-0.9-2.9-2.3-3.8-4.1
			c-0.9-1.6-1.3-3.6-1.3-5.9c0-2,0.3-3.8,1-5.3c0.9-2,2.2-3.6,4.1-4.7c1.9-1.2,4.1-1.7,6.7-1.7c2.6,0,4.8,0.6,6.8,1.8
			c1.9,1.2,3.3,2.9,4.2,5C56.3,37.8,56.6,39.5,56.6,41.4z M48.6,44.6c0.5-0.9,0.8-2,0.8-3.4c0-1.1-0.2-2.2-0.7-3.1
			c-0.7-1.5-2-2.2-3.9-2.2c-1.8,0-3.1,0.7-3.9,2.2c-0.5,1-0.8,2-0.8,3.2c0,1.3,0.3,2.4,0.9,3.4c0.9,1.4,2.1,2,3.7,2
			C46.6,46.7,47.8,46,48.6,44.6z"/>
	</g>
</g>
<g>
</g>
<g>
</g>
<g>
</g>
<g>
</g>
<g>
</g>
<g>
</g>
<g>
</g>
<g>
</g>
<g>
</g>
<g>
</g>
<g>
</g>
<g>
</g>
<g>
</g>
<g>
</g>
<g>
</g>
</svg>
