<?xml version="1.0" encoding="utf-8"?>
<!-- Generator: Adobe Illustrator 24.0.1, SVG Export Plug-In . SVG Version: 6.00 Build 0)  -->
<svg version="1.1" id="Layer_1" xmlns="http://www.w3.org/2000/svg" xmlns:xlink="http://www.w3.org/1999/xlink" x="0px" y="0px"
	 viewBox="0 0 88.7 98.1" style="enable-background:new 0 0 88.7 98.1;" xml:space="preserve">
<style type="text/css">
	.st0{fill:#FFFFFF;stroke:#FFFFFF;stroke-miterlimit:10;}
	.st1{fill:#FFFFFF;stroke:#CB4F4C;stroke-miterlimit:10;}
</style>
<path class="st0" d="M68.4,20.2l6-0.7c9.7-1.1,16.2,9.8,10.4,17.8l-3.5,4.9c-2.9,4-2.8,9.4,0.1,13.3l3.6,4.8
	c5.8,7.9-0.4,18.9-10.2,17.9l-6-0.6c-4.9-0.5-9.5,2.2-11.5,6.7L55,89.8c-3.9,9-16.6,9.1-20.6,0.1l-2.5-5.5c-2-4.5-6.7-7.1-11.6-6.6
	l-6,0.7C4.6,79.8-1.8,68.8,3.9,60.8L7.4,56c2.9-4,2.8-9.4-0.1-13.3l-3.6-4.8C-2.1,30,4.2,18.9,13.9,19.9l6,0.6
	c4.9,0.5,9.5-2.2,11.5-6.7l2.4-5.5c3.9-9,16.6-9.1,20.6-0.1l2.5,5.5C58.9,18.1,63.5,20.8,68.4,20.2z"/>
<path class="st1" d="M61.5,48.2h4L45.2,30l-8.8,7.8c-0.5,0.4-1.2,0.4-1.7-0.1c-0.2-0.2-0.3-0.5-0.3-0.8v-3.7h-3.7v9.1
	c0,0.4-0.2,0.7-0.4,0.9l-5.5,4.9h4c0.6,0,1.2,0.5,1.2,1.2v20h30.3V49.4C60.3,48.7,60.8,48.2,61.5,48.2L61.5,48.2z M68.5,50.5h-5.8
	v20c0,0.6-0.5,1.2-1.2,1.2H28.8c-0.6,0-1.2-0.5-1.2-1.2v-20h-5.8c-0.3,0-0.6-0.2-0.9-0.4c-0.4-0.5-0.4-1.2,0.1-1.7l7.4-6.6v-9.8
	c0-0.6,0.5-1.2,1.2-1.2h6.1c0.6,0,1.2,0.5,1.2,1.2v2.3l7.7-6.8c0.4-0.4,1.1-0.4,1.6,0l23.2,20.9c0.3,0.2,0.4,0.5,0.4,0.9
	C69.6,50,69.1,50.5,68.5,50.5L68.5,50.5z"/>
<g>
</g>
<g>
</g>
<g>
</g>
<g>
</g>
<g>
</g>
<g>
</g>
<g>
</g>
<g>
</g>
<g>
</g>
<g>
</g>
<g>
</g>
<g>
</g>
<g>
</g>
<g>
</g>
<g>
</g>
</svg>
