<?xml version="1.0" encoding="utf-8"?>
<!-- Generator: Adobe Illustrator 24.0.2, SVG Export Plug-In . SVG Version: 6.00 Build 0)  -->
<svg version="1.1" id="Camada_1" xmlns="http://www.w3.org/2000/svg" xmlns:xlink="http://www.w3.org/1999/xlink" x="0px" y="0px"
	 viewBox="0 0 450 6.84" style="enable-background:new 0 0 450 6.84;" xml:space="preserve">
<style type="text/css">
	.st0{fill:#F9EC6B;}
</style>
<g>
	<g>
		<g id="XMLID_108_">
			<path class="st0" d="M448.8,3.14c-25.53,0.35-51.05,1.18-76.59,1.21c-22.2,0.02-44.38-0.3-66.58-0.71
				c-34.74-0.64-69.49-1.28-104.23-1.92c-32.99-0.61-65.98-1.48-98.97-1.69C72.47-0.16,42.5,0.61,12.54,0.33
				c-3.78-0.04-7.55-0.1-11.33-0.2c-1.61-0.04-1.61,2.46,0,2.5C31.58,3.36,62,2.38,92.38,2.48c32.02,0.1,64.03,0.91,96.05,1.5
				c34.74,0.64,69.49,1.28,104.23,1.92c23.05,0.42,46.09,0.88,69.15,0.94c27.16,0.07,54.33-0.32,81.48-1.07
				c1.84-0.05,3.67-0.11,5.51-0.13C450.41,5.62,450.41,3.12,448.8,3.14L448.8,3.14z"/>
		</g>
	</g>
</g>
</svg>
