<?xml version="1.0" encoding="utf-8"?>
<!-- Generator: Adobe Illustrator 24.0.2, SVG Export Plug-In . SVG Version: 6.00 Build 0)  -->
<svg version="1.1" id="Camada_1" xmlns="http://www.w3.org/2000/svg" xmlns:xlink="http://www.w3.org/1999/xlink" x="0px" y="0px"
	 viewBox="0 0 290 56.35" style="enable-background:new 0 0 290 56.35;" xml:space="preserve">
<style type="text/css">
	.st0{fill:#FFECD9;}
</style>
<path class="st0" d="M279.2,0.17V0.11h-0.26c-0.09-0.02-0.17-0.05-0.26-0.06c-0.48-0.09-3.75-0.02-4.26,0.06H49.92
	c-0.06,0-0.12-0.01-0.19-0.01H7.74C3.47,0.1,0,3.57,0,7.84V48.6c0,4.28,3.47,7.74,7.74,7.74h41.99c0.08,0,0.16-0.01,0.24-0.01
	c5.42,0.02,14.1,0.03,14.51-0.05h201.91l-0.03-0.01c0.44,0.09,2.88-0.24,3.18-0.3c4.07-0.8,7.15-4.28,7.15-8.56
	c0-4.28-3.07-7.84-7.15-8.64c-0.3-0.06-0.98-0.11-1.66-0.08c-0.59,0.03-1.17,0.13-1.2,0.14c-3.74,0.75-8.06,1.62-10.31,2.07
	c-0.45,0.09-1.04,0.2-1.62,0.22c-0.69,0.03-1.36-0.02-1.66-0.08c-4.07-0.8-7.15-4.36-7.15-8.64c0-4.28,3.07-7.85,7.15-8.64
	c0.3-0.06,0.97-0.11,1.66-0.08c0.58,0.03,1.17,0.13,1.67,0.24c6.64,1.35,13.49,2.73,17.05,3.45c0.72,0.14,1.65,0.31,2.57,0.36
	c1.09,0.06,2.16-0.03,2.63-0.12c6.45-1.27,11.32-6.96,11.32-13.78C290,7.19,285.39,1.64,279.2,0.17z"/>
</svg>
