<?xml version="1.0" encoding="utf-8"?>
<!-- Generator: Adobe Illustrator 24.0.2, SVG Export Plug-In . SVG Version: 6.00 Build 0)  -->
<svg version="1.1" xmlns="http://www.w3.org/2000/svg" xmlns:xlink="http://www.w3.org/1999/xlink" x="0px" y="0px"
	 viewBox="0 0 767 90" style="enable-background:new 0 0 767 90;" xml:space="preserve">
<style type="text/css">
	.st0{fill:#FFEE00;}
	.st1{fill:#FFF566;}
	.st2{fill:#FFF899;}
	.st3{display:none;}
	.st4{display:inline;}
	.st5{fill:#F4F4F4;}
</style>
<g id="Camada_1">
</g>
<g id="Camada_2">
</g>
<g id="Camada_3">
</g>
<g id="Camada_4">
</g>
<g id="Camada_5">
</g>
<g id="Camada_6" class="st3">
</g>
<g id="Camada_7">
	<g>
		<g>
			<g>
				<path id="XMLID_78_" class="st5" d="M176.22,56.24C85.49,73.97,6.64,59.96,6.64,59.96c-4.21-0.77-5.46-1.97-5.77-2.82v22.19
					c0,0-1.31,2.51,5.77,3.81c0,0,82.54,17.59,169.58-3.73s141.55-37.77,406,2.9c0,0,16.1,3.1,40.2,5.12
					c-21.24-2.11-34.12-5.31-34.12-5.31C340.01,36.37,274.06,37.11,176.22,56.24z"/>
				<path id="XMLID_77_" class="st5" d="M604.74,58.47c-10.51-1.51-16.43-2.84-16.43-2.84c-10.61-1.41-23.1-3.74-36.49-6.62
					c-63.32-13.65-146.8-39.76-146.8-39.76l-5.99-4.8H0.87v2.24v49.46c0,0-0.22,0.41,0,0.99c0.32,0.85,1.56,2.05,5.77,2.82
					c0,0,78.85,14.01,169.58-3.73c97.84-19.12,163.79-19.86,412.08,25.89c0,0,12.88,3.2,34.12,5.31c13.19,1.31,29.6,2.19,48.15,1.63
					c24.15-0.73,51.94-3.93,80.99-11.84c5.41-1.47,10.86-3.11,15.44-4.93V51.48C697.55,68.27,633.72,62.65,604.74,58.47z"/>
				<path id="XMLID_76_" class="st5" d="M388.59,4.45l15.55,4.8c0,0,83.48,26.11,146.8,39.76c13.39,2.89,25.89,5.22,36.49,6.62
					c0,0,5.93,1.33,16.44,2.84c28.98,4.18,92.81,9.8,163.16-6.99V4.45H388.59z"/>
			</g>
		</g>
		<g>
			<path id="XMLID_18_" class="st0" d="M175.42,51.82C84.7,69.56,5.87,55.55,5.87,55.55c-4.21-0.77-5.45-1.97-5.77-2.82v22.19
				c0,0-1.31,2.51,5.77,3.81c0,0,82.53,17.59,169.55-3.73s141.53-37.77,405.94,2.9c0,0,16.1,3.1,40.2,5.12
				c-21.24-2.11-34.11-5.31-34.11-5.31C339.19,31.96,273.25,32.7,175.42,51.82z"/>
			<path id="XMLID_17_" class="st1" d="M603.89,54.06c-10.5-1.51-16.43-2.84-16.43-2.84c-10.61-1.41-23.1-3.74-36.49-6.62
				C487.66,30.95,404.19,4.84,404.19,4.84l-5.99-4.8H0.1v2.24v49.46c0,0-0.22,0.41,0,0.99c0.32,0.85,1.56,2.05,5.77,2.82
				c0,0,78.84,14.01,169.55-3.73c97.83-19.12,163.77-19.86,412.03,25.89c0,0,12.87,3.2,34.11,5.31c13.19,1.31,29.59,2.19,48.15,1.63
				c24.15-0.73,51.94-3.93,80.98-11.84c5.41-1.47,10.86-3.11,16.33-4.93V47.07C696.69,63.86,632.87,58.24,603.89,54.06z"/>
			<path id="XMLID_16_" class="st2" d="M388.64,0.04l15.55,4.8c0,0,83.47,26.11,146.78,39.76c13.39,2.89,25.88,5.22,36.49,6.62
				c0,0,5.93,1.33,16.43,2.84c28.98,4.18,92.8,9.8,163.14-6.99V0.04H388.64z"/>
		</g>
	</g>
</g>
<g id="Camada_8">
</g>
<g id="Camada_9">
</g>
<g id="Camada_10">
</g>
</svg>
