<?xml version="1.0" encoding="utf-8"?>
<!-- Generator: Adobe Illustrator 24.0.1, SVG Export Plug-In . SVG Version: 6.00 Build 0)  -->
<svg version="1.1" id="Camada_1" xmlns="http://www.w3.org/2000/svg" xmlns:xlink="http://www.w3.org/1999/xlink" x="0px" y="0px"
	 viewBox="0 0 476.4 92.6" style="enable-background:new 0 0 476.4 92.6;" xml:space="preserve">
<style type="text/css">
	.st0{fill:#FFECD9;}
	.st1{fill:none;}
	.st2{fill:#EF7A06;}
	.st3{fill:#F4A147;}
	.st4{fill:#FFFFFF;}
</style>
<g>
	<g>
		<path class="st0" d="M62.2,0.2h388.6c0.8-0.1,6.2-0.3,7-0.1c0.1,0,0.3,0.1,0.4,0.1h0.4v0.1c10.2,2.4,17.7,11.5,17.7,22.4
			c0,11.2-8,20.6-18.6,22.6c-0.8,0.2-2.5,0.3-4.3,0.2c-1.5-0.1-3.1-0.4-4.2-0.6c-5.8-1.2-17.1-3.4-28-5.7c-0.8-0.2-1.8-0.3-2.7-0.4
			c-1.1-0.1-2.2,0-2.7,0.1c-6.7,1.3-11.7,7.2-11.7,14.2s5,12.9,11.7,14.2c0.5,0.1,1.6,0.2,2.7,0.1c1,0,1.9-0.2,2.7-0.4
			c3.7-0.7,10.8-2.2,16.9-3.4c0,0,1-0.2,2-0.2c1.1-0.1,2.2,0,2.7,0.1c6.7,1.3,11.7,7.2,11.7,14.2c0,7-5,12.8-11.7,14.1
			c-0.5,0.1-4.5,0.6-5.2,0.5l0,0H105.9c-1,0.2-30.9,0.1-30.9,0.1s-13-0.3-13-13.3v-9"/>
	</g>
	<path class="st0" d="M81.7,92.6h-69C5.7,92.6,0,86.9,0,79.8v-67c0-7,5.7-12.7,12.7-12.7h69c7,0,12.7,5.7,12.7,12.7v67
		C94.4,86.9,88.7,92.6,81.7,92.6z"/>
</g>
<g>
	<rect x="117.2" y="32.7" class="st1" width="358.8" height="27.1"/>
	<path class="st2" d="M127.8,46.1c-0.6,0.1-1.3,0.2-1.9,0.2c-0.7,0.1-1.3,0.1-1.9,0.2h0c-0.1,1.3-0.2,2.5-0.2,3.8
		c0,1.3,0,2.4-0.1,3.6c-0.4,0-0.9,0.1-1.4,0.1c-0.6,0-1.1,0-1.6,0s-1,0-1.4,0c-0.4,0-0.7-0.1-0.7-0.1l0,0c0-1.2,0-2.3,0-3.4
		s0-2.1,0-3c0-1,0-2,0-3c0-1,0-2,0-3.1c0-1.1,0-2.3,0-3.6c0-1.3,0-2.7,0-4.2v0c0.3-0.1,0.8-0.1,1.5-0.2s1.4-0.1,2.2-0.2
		c0.8-0.1,1.7-0.1,2.6-0.1c0.9,0,1.8,0,2.7,0c0.9,0,1.7,0.1,2.5,0.1c0.8,0.1,1.4,0.2,2,0.3c0,0.3,0,0.6,0,1c0,0.4,0,0.8,0,1.2
		c0,0.4,0,0.8,0,1.2c0,0.4,0,0.7,0,1c-0.5,0-1.1,0.1-1.8,0.1s-1.4,0.1-2.1,0.1c-0.7,0-1.4,0.1-2.1,0.1c-0.7,0-1.4,0.1-2,0.1
		c-0.2,0.5-0.3,1-0.3,1.5s0.1,0.9,0.3,1.2c0,0,0,0,0.1,0c0.3,0,0.6,0.1,0.9,0.1c0.3,0,0.7,0,1,0c0.3,0,0.7,0,1,0
		c0.3,0,0.6,0,0.8-0.1c0.1,0.1,0.1,0.4,0.1,0.8c0,0.4,0,0.8,0,1.3c0,0.5,0,1,0,1.5C127.9,45.3,127.9,45.7,127.8,46.1
		C127.9,46.1,127.9,46.1,127.8,46.1z"/>
	<path class="st2" d="M141,43.4l2.3,10.5v0c-0.6,0.1-1.3,0.2-2,0.1c-0.7,0-1.4-0.1-2-0.3h0c-0.1-0.3-0.2-0.7-0.3-1.1
		c-0.1-0.4-0.2-0.9-0.3-1.3s-0.2-0.9-0.3-1.3s-0.3-0.8-0.4-1.1c-0.3,0-0.5-0.1-0.6-0.1c-0.1,0-0.3,0-0.4,0s-0.2,0-0.4,0
		c-0.1,0-0.3,0-0.5,0c-0.1,0.3-0.3,0.7-0.3,1.1c-0.1,0.4-0.2,0.9-0.3,1.4c-0.1,0.5-0.2,0.9-0.3,1.4c-0.1,0.4-0.2,0.8-0.4,1.2
		c0,0,0,0,0,0s0,0,0,0c-0.2,0-0.6,0-1.2,0c-0.6,0-1.6,0-3,0c0,0,0,0-0.1,0c0-0.1,0.1-0.5,0.2-1.2c0.1-0.6,0.2-1.5,0.4-2.5
		c0.2-1,0.4-2.2,0.6-3.5c0.3-1.3,0.5-2.7,0.9-4.2c0.3-1.5,0.7-3.1,1.1-4.7c0.4-1.6,0.8-3.2,1.3-4.8c0.1,0,0.3,0,0.5,0
		c0.2,0,0.4,0,0.6,0c0.3,0,0.6,0,1,0c0.4,0,0.9,0,1.6-0.1c0.1,0.3,0.2,0.7,0.3,1.2c0.1,0.5,0.3,1.1,0.4,1.8c0.1,0.7,0.3,1.4,0.5,2.1
		c0.2,0.8,0.3,1.5,0.5,2.2c0.2,0.7,0.3,1.3,0.4,1.9C140.8,42.6,141,43.1,141,43.4z M138,45.4c-0.2-1.7-0.4-3.1-0.5-4
		s-0.3-1.6-0.4-1.9c-0.1-0.3-0.2-0.4-0.3-0.2c-0.1,0.2-0.2,0.6-0.3,1.2c-0.1,0.6-0.2,1.3-0.3,2.2c-0.1,0.9-0.2,1.8-0.4,2.9
		c0.3,0,0.7,0,1.1,0C137.2,45.4,137.6,45.4,138,45.4z"/>
	<path class="st2" d="M157,44.4l-0.1,9.6c-0.3,0-0.6-0.1-1-0.1s-0.7,0-1.1,0c-0.4,0-0.7,0-1,0c-0.3,0-0.6,0-0.9,0
		c0-0.9-0.1-1.8-0.1-2.8c0-1,0-2,0-3.1c0-1,0-2.1-0.1-3.1c-0.1-1-0.1-1.9-0.2-2.8c-0.1,0.2-0.3,0.6-0.5,1c-0.2,0.5-0.4,1-0.5,1.5
		c-0.2,0.5-0.4,0.9-0.5,1.3c-0.2,0.4-0.3,0.6-0.4,0.6c-0.1,0-0.2-0.1-0.3-0.3c-0.1-0.2-0.3-0.5-0.4-0.8s-0.3-0.7-0.4-1
		c-0.1-0.4-0.3-0.7-0.4-1c-0.1-0.3-0.2-0.6-0.4-1c-0.2,1.9-0.2,3.8-0.2,5.7c0,1.9,0.1,3.8,0.3,5.7c-0.6,0.1-1.3,0.1-2.1,0.1
		c-0.8,0-1.5,0-2.1,0c0,0-0.1,0-0.1-0.1c0-0.1,0-0.3-0.1-0.6c0-0.3,0-0.8,0-1.4c0-0.6,0-1.4,0-2.4s0-2.2,0-3.7c0-1.5,0-3.2,0-5.3
		c0-2,0-4.4,0-7.1c0.3-0.1,0.6-0.1,0.9-0.1c0.3,0,0.7,0,1,0c0.4,0,0.7,0,1.1,0c0.4,0,0.7,0,1,0h0c0.2,0.2,0.4,0.5,0.5,0.9
		c0.2,0.4,0.3,0.8,0.5,1.3c0.2,0.5,0.3,0.9,0.5,1.3c0.2,0.4,0.3,0.8,0.5,1c0.1,0.1,0.1,0.1,0.2,0.1c0.1,0,0.2-0.2,0.3-0.6
		c0.1-0.4,0.3-0.9,0.4-1.4c0.1-0.5,0.3-1.1,0.5-1.6c0.2-0.5,0.4-0.9,0.6-1.1c0.1,0,0.4,0,0.8,0c0.4,0,0.8,0,1.2-0.1
		c0.4,0,0.9,0,1.3,0c0.5,0,0.8,0,1.2,0c-0.1,1.9-0.1,3.8,0,5.7C157.1,40.6,157.1,42.5,157,44.4z"/>
	<path class="st2" d="M164.2,32.9h0.7V33c0,1.7,0,3.5-0.1,5.2c-0.1,1.7-0.1,3.5-0.1,5.2c0,1.8,0,3.5,0,5.2c0,1.7,0.1,3.5,0.2,5.2
		c-0.2,0.2-0.5,0.3-1,0.3c-0.5,0-1.1,0-1.6,0c-0.6,0-1.2,0-1.7-0.1c-0.5,0-0.9,0-1.1,0c0.1-1.8,0.2-3.6,0.2-5.4
		c0-1.8-0.1-3.6-0.1-5.4c-0.1-1.8-0.1-3.6-0.1-5.3c0-1.7,0.1-3.5,0.3-5.1v-0.1c0.1,0,0.3,0,0.6,0c0.3,0,0.5,0,0.6,0
		c0.4,0,0.8,0,1.2,0.1S163.3,32.9,164.2,32.9z M165,26.4l2.1,2.1l0,0c-0.1,0.1-0.4,0.3-0.7,0.6c-0.3,0.3-0.6,0.5-0.9,0.8
		c-0.3,0.3-0.6,0.6-0.9,0.8c-0.3,0.3-0.5,0.5-0.5,0.6c-0.3,0-0.7,0.1-1.1,0.1c-0.4,0-0.8,0-1.2,0c-0.4,0-0.7,0-1.1-0.1
		c-0.3,0-0.5-0.1-0.7-0.1c0.3-0.3,0.7-0.7,1.2-1.2c0.4-0.5,0.9-0.9,1.3-1.4c0.4-0.5,0.9-0.9,1.3-1.3C164.2,27.1,164.6,26.7,165,26.4
		z"/>
	<path class="st2" d="M179.7,51.2c0,0.7,0.1,1.3,0.1,1.6s0,0.6-0.1,0.8c0,0.2-0.1,0.3-0.3,0.3s-0.3,0-0.5,0c-0.2,0-0.5,0-0.9,0
		c-0.4,0-0.9,0-1.8,0.1c-0.8,0-2,0-3.4,0s-3.4,0-5.8-0.1v-0.5c0.1-1.5,0.1-2.9,0.1-4.1c0-1.2,0.1-2.3,0.1-3.4c0-1.1,0-2.1,0-3
		s0-2,0-3c0-1,0-2.1-0.1-3.3c0-1.1,0-2.4-0.1-3.8c0.2-0.1,0.5-0.1,0.9-0.2c0.4,0,0.9-0.1,1.4-0.1s0.9,0,1.4,0.1s0.8,0.1,1.1,0.3
		c0,1.3-0.1,2.6,0,4c0,1.4,0,2.7,0,4.1c0,1.4,0,2.8,0,4.1c0,1.4,0,2.7,0,4v0c0.1,0,0.4-0.1,0.8,0c0.4,0,0.8,0,1.4,0
		c0.5,0,1.1,0,1.7,0.1c0.6,0,1.1,0.1,1.7,0.1c0.5,0,1,0,1.4,0c0.4,0,0.7,0,0.9,0c0,0.2,0,0.4,0,0.7c0,0.2,0,0.4,0,0.6
		S179.7,51.1,179.7,51.2z"/>
	<path class="st2" d="M185.8,32.9h0.7V33c0,1.7,0,3.5-0.1,5.2c-0.1,1.7-0.1,3.5-0.1,5.2c0,1.8,0,3.5,0,5.2c0,1.7,0.1,3.5,0.2,5.2
		c-0.2,0.2-0.5,0.3-1,0.3c-0.5,0-1.1,0-1.6,0c-0.6,0-1.2,0-1.7-0.1c-0.5,0-0.9,0-1.1,0c0.1-1.8,0.2-3.6,0.2-5.4
		c0-1.8-0.1-3.6-0.1-5.4c-0.1-1.8-0.1-3.6-0.1-5.3c0-1.7,0.1-3.5,0.3-5.1v-0.1c0.1,0,0.3,0,0.6,0c0.3,0,0.5,0,0.6,0
		c0.4,0,0.8,0,1.2,0.1S184.9,32.9,185.8,32.9z"/>
	<path class="st2" d="M198.5,43.4l2.3,10.5v0c-0.6,0.1-1.3,0.2-2,0.1c-0.7,0-1.4-0.1-2-0.3h0c-0.1-0.3-0.2-0.7-0.3-1.1
		c-0.1-0.4-0.2-0.9-0.3-1.3s-0.2-0.9-0.3-1.3s-0.3-0.8-0.4-1.1c-0.3,0-0.5-0.1-0.6-0.1c-0.1,0-0.3,0-0.4,0s-0.2,0-0.4,0
		c-0.1,0-0.3,0-0.5,0c-0.1,0.3-0.3,0.7-0.3,1.1c-0.1,0.4-0.2,0.9-0.3,1.4c-0.1,0.5-0.2,0.9-0.3,1.4c-0.1,0.4-0.2,0.8-0.4,1.2
		c0,0,0,0,0,0s0,0,0,0c-0.2,0-0.6,0-1.2,0c-0.6,0-1.6,0-3,0c0,0,0,0-0.1,0c0-0.1,0.1-0.5,0.2-1.2c0.1-0.6,0.2-1.5,0.4-2.5
		c0.2-1,0.4-2.2,0.6-3.5c0.3-1.3,0.5-2.7,0.9-4.2c0.3-1.5,0.7-3.1,1.1-4.7c0.4-1.6,0.8-3.2,1.3-4.8c0.1,0,0.3,0,0.5,0
		c0.2,0,0.4,0,0.6,0c0.3,0,0.6,0,1,0c0.4,0,0.9,0,1.6-0.1c0.1,0.3,0.2,0.7,0.3,1.2c0.1,0.5,0.3,1.1,0.4,1.8c0.1,0.7,0.3,1.4,0.5,2.1
		c0.2,0.8,0.3,1.5,0.5,2.2c0.2,0.7,0.3,1.3,0.4,1.9C198.3,42.6,198.4,43.1,198.5,43.4z M195.4,45.4c-0.2-1.7-0.4-3.1-0.5-4
		s-0.3-1.6-0.4-1.9c-0.1-0.3-0.2-0.4-0.3-0.2c-0.1,0.2-0.2,0.6-0.3,1.2c-0.1,0.6-0.2,1.3-0.3,2.2c-0.1,0.9-0.2,1.8-0.4,2.9
		c0.3,0,0.7,0,1.1,0C194.7,45.4,195,45.4,195.4,45.4z"/>
</g>
<g>
	<path class="st3" d="M23.7,76.8h63.5c2.7,0,4.4-3,3-5.4L58.5,16.1c-1.4-2.4-4.7-2.4-6.1,0L20.6,71.4C19.3,73.8,21,76.8,23.7,76.8z"
		/>
	<path class="st4" d="M79.8,67.2c-2.6-2-18-14.3-19.9-35.7c0.5,0.1,1.1,0.1,1.6,0c0.5-0.2,0.8-0.8,0.5-1.4c0,0-6.2-9.5-6.2-9.5
		c-0.3-0.5-0.9-0.4-1.2,0c0,0-5.7,9.5-5.7,9.5c-0.2,0.4-0.1,1,0.3,1.2c0.1,0,0.2,0.1,0.3,0.1c0.1,0,0.2,0,0.3,0.1
		c0.3,0,0.6-0.1,0.9-0.2C50.2,49.9,33,64.7,30.4,66.8c-0.2,0.1-0.2,0.4-0.1,0.6l4,5c0.1,0.2,0.4,0.2,0.6,0.1
		C47,63.1,54,47.2,54.9,45c0.1-0.2,0.2-0.3,0.4-0.3h0.1c0.2,0,0.3,0.1,0.4,0.3c6.7,18.8,17.6,26.4,19.5,27.6
		c0.2,0.1,0.4,0.1,0.5-0.1l4.1-4.7C80.1,67.6,80,67.3,79.8,67.2z"/>
</g>
<g>
</g>
<g>
</g>
<g>
</g>
<g>
</g>
<g>
</g>
<g>
</g>
<g>
</g>
<g>
</g>
<g>
</g>
<g>
</g>
<g>
</g>
<g>
</g>
<g>
</g>
<g>
</g>
<g>
</g>
</svg>
