<?xml version="1.0" encoding="utf-8"?>
<!-- Generator: Adobe Illustrator 24.0.1, SVG Export Plug-In . SVG Version: 6.00 Build 0)  -->
<svg version="1.1" id="Layer_1" xmlns="http://www.w3.org/2000/svg" xmlns:xlink="http://www.w3.org/1999/xlink" x="0px" y="0px"
	 viewBox="0 0 1991.8 405.9" style="enable-background:new 0 0 1991.8 405.9;" xml:space="preserve">
<style type="text/css">
	.st0{opacity:0.15;}
	.st1{clip-path:url(#SVGID_2_);}
	.st2{fill:url(#SVGID_3_);}
	.st3{fill:url(#SVGID_4_);stroke:#FFFFFF;stroke-width:4.5447;stroke-miterlimit:10;}
	.st4{fill:url(#SVGID_5_);stroke:#FFFFFF;stroke-width:4.5447;stroke-miterlimit:10;}
	.st5{fill:url(#SVGID_6_);stroke:#FFFFFF;stroke-width:4.5447;stroke-miterlimit:10;}
	.st6{fill:url(#SVGID_7_);stroke:#FFFFFF;stroke-width:4.5447;stroke-miterlimit:10;}
</style>
<g class="st0">
	<defs>
		<rect id="SVGID_1_" x="-1.3" y="0.2" class="st0" width="1992.9" height="406.1"/>
	</defs>
	<clipPath id="SVGID_2_">
		<use xlink:href="#SVGID_1_"  style="overflow:visible;"/>
	</clipPath>
	<g class="st1">
		
			<linearGradient id="SVGID_3_" gradientUnits="userSpaceOnUse" x1="-2941.9458" y1="2473.751" x2="-627.7504" y2="1424.0378" gradientTransform="matrix(-1 0 0 -1 -138.0631 2297.0186)">
			<stop  offset="0" style="stop-color:#BCCF53"/>
			<stop  offset="1" style="stop-color:#D9525B"/>
		</linearGradient>
		<rect x="-0.7" y="-170.7" class="st2" width="2362.5" height="1460.7"/>
		
			<linearGradient id="SVGID_4_" gradientUnits="userSpaceOnUse" x1="-2740.3926" y1="2993.55" x2="-407.5154" y2="1935.3628" gradientTransform="matrix(-1 0 0 -1 -138.0631 2297.0186)">
			<stop  offset="0" style="stop-color:#4F1E21"/>
			<stop  offset="1" style="stop-color:#D9525B"/>
		</linearGradient>
		<path class="st3" d="M61.5,1084.3c74.5-1.2,181.6-35.5,312.1-168C634.6,651.2,501.3,93,929.7,11.9
			c212.4-40.2,309.7-113.4,352.8-182.6H-0.7V1077C16.3,1081.5,37.1,1084.6,61.5,1084.3z"/>
		
			<linearGradient id="SVGID_5_" gradientUnits="userSpaceOnUse" x1="-2660.4736" y1="3117.4451" x2="-351.8171" y2="2070.2441" gradientTransform="matrix(-1 0 0 -1 -138.0631 2297.0186)">
			<stop  offset="0" style="stop-color:#768234"/>
			<stop  offset="0.9995" style="stop-color:#BCCF53"/>
		</linearGradient>
		<path class="st4" d="M89.7,741.2c51.7-0.2,108.6-12.5,161.9-49.4c235.8-163.4,50.8-622.7,454-464.6
			c570,223.4,932.4-218.1,1002.8-397.8H-0.7v900.8C25.8,736.5,56.7,741.3,89.7,741.2z"/>
		
			<linearGradient id="SVGID_6_" gradientUnits="userSpaceOnUse" x1="-2664.7842" y1="3123.2671" x2="-351.1536" y2="2073.8101" gradientTransform="matrix(-1 0 0 -1 -138.0631 2297.0186)">
			<stop  offset="0" style="stop-color:#4F1E21"/>
			<stop  offset="1" style="stop-color:#B3444B"/>
		</linearGradient>
		<path class="st5" d="M89.7,741.2c51.7-0.2,108.6-12.5,161.9-49.4C477.7,535,319.5,105.3,659.7,211
			c53.4-100.6,130.8-172.7,270-199.1c209.9-30.9,466-49.1,549.4-182.6H-0.7v900.8C25.8,736.5,56.7,741.3,89.7,741.2z"/>
		
			<linearGradient id="SVGID_7_" gradientUnits="userSpaceOnUse" x1="-2580.7117" y1="3293.0613" x2="-284.5641" y2="2251.5344" gradientTransform="matrix(-1 0 0 -1 -138.0631 2297.0186)">
			<stop  offset="0" style="stop-color:#BCCF53"/>
			<stop  offset="1" style="stop-color:#B0C14D"/>
		</linearGradient>
		<path class="st6" d="M-0.7,245.6C62,226.3,172.4,175.3,348.6,42.8c271.5-204.1,720.3-70.3,875.6-213.6H-0.7V245.6z"/>
	</g>
</g>
<g>
</g>
<g>
</g>
<g>
</g>
<g>
</g>
<g>
</g>
<g>
</g>
<g>
</g>
<g>
</g>
<g>
</g>
<g>
</g>
<g>
</g>
<g>
</g>
<g>
</g>
<g>
</g>
<g>
</g>
</svg>
