<?xml version="1.0" encoding="utf-8"?>
<!-- Generator: Adobe Illustrator 24.0.1, SVG Export Plug-In . SVG Version: 6.00 Build 0)  -->
<svg version="1.1" id="Layer_1" xmlns="http://www.w3.org/2000/svg" xmlns:xlink="http://www.w3.org/1999/xlink" x="0px" y="0px"
	 viewBox="0 0 287.4 182.7" style="enable-background:new 0 0 287.4 182.7;" xml:space="preserve">
<style type="text/css">
	.st0{fill:#C64DF6;}
	.st1{fill:#6960E5;}
	.st2{fill:#FF2B8C;}
	.st3{fill:#FF36CE;}
</style>
<path class="st0" d="M155.7,71.2l0.2-0.4c2.1-4.8,4.8-9.3,8-13.4c0.2-0.3,0.5-0.4,0.9-0.5c3.7-0.6,7.5-0.7,11.3-0.5
	c1.5,0.1,3,0.2,4.4,0.5c3.4-1,6.6-2.6,9.5-4.7c-2.3-0.9-4.6-1.6-7-2.1c-7.3-1.3-14.8-1.2-22.1,0.3c-0.3,0.1-0.7,0.2-0.9,0.5
	c-3.2,3.7-6,7.7-8.3,12.1c-0.7,1.3-1.8,3.5-2.4,4.9c0.9,0.5,2,0.8,2.9,1.3C153.5,69.7,154.6,70.4,155.7,71.2"/>
<path class="st0" d="M203.9,70.2c-0.3-4.3-2-8.4-4.9-11.6c-1.8,1.6-3.8,3-5.9,4.1c1.4,1.5,2.4,3.2,3.1,5.1c1.5,4.3,0.4,7.9-3.2,10.6
	c-3.6,2.7-8.2,3.6-12.6,2.6l-2.5-0.5c-0.4,1.1-0.7,2.2-1.1,3.2c-1.4,4.2-4.7,7.6-8.9,9.2c-3.3,1.4-7.2,0.6-9.5-2.1
	c-1.4-1.4-2.4-4.1-3.1-5.9c-0.1-0.4-0.4-0.7-0.7-1c-1.2-0.9-2.3-1.8-3.6-2.6s-2.6-1.6-4-2.4c0,0.3,0.1,1.6,0.1,1.8
	c0,5.9,2.4,11.5,6.6,15.6c3.9,4.1,9.8,5.6,15.2,4c6.1-1.7,10.4-5.5,13.4-11c0.2-0.4,0.6-0.6,1-0.6c5.4,0.2,10.7-1.5,14.9-4.9
	C202.2,80.5,204.4,75.4,203.9,70.2"/>
<path class="st1" d="M50.7,158.4l6.9,2.5l-0.8,5.5H34l-0.9-5.5l6.2-2.5l-3.5-9.4H17.6l-3.8,9.4l7.3,2.4l-0.8,5.6H0.9L0,160.9
	l6.8-2.5l18-46.6l8.5-1.3L50.7,158.4z M26.8,125.1L19.9,143h13.7l-4.9-13.3L26.8,125.1z"/>
<path class="st1" d="M189.7,129.2c10.1,0,16.1,5.2,16.1,14.7V160l4.4,1.7l-0.9,4.8h-9.9l-2.3-1.8c-2.3,1.6-5.5,2.7-10.1,2.7
	c-7,0-13.2-3.8-13.2-10.9c0-10.6,12.4-13,22.2-13v-2.8c0.2-3.5-2.5-6.4-5.9-6.6c-0.2,0-0.5,0-0.7,0c-1.9,0.1-3.9,0.4-5.8,0.9
	l-1.7,5.9l-5.2-0.9v-7.5C180.6,130.4,185.1,129.3,189.7,129.2 M184.4,155.8c0,4.4,3.2,5.9,5.4,5.9c2.4-0.1,4.7-1.2,6.2-3.1v-10.2
	C188.7,148.3,184.4,151.3,184.4,155.8"/>
<path class="st1" d="M238.5,135.1c-1-0.2-2.1-0.3-3.1-0.3c-2.4,0.2-4.8,0.7-7,1.6V160l6.5,1.7l-0.9,4.8h-19.4l-0.9-4.8l4.9-1.7
	v-25.2H215l-0.9-4.8l10.1-0.9l3.2,2c3.2-1.2,6.6-1.9,10.1-2c2.8,0.1,5.5,0.7,8,1.7v9l-5.2,0.9L238.5,135.1z"/>
<path class="st1" d="M287.4,148.2c0,11.9-6.8,19-19.4,19c-12.6,0-19.5-7.4-19.5-19s7.7-19,19.5-19S287.4,136.3,287.4,148.2
	 M258.5,148c0,8.6,3.4,14.4,9.4,14.4c5.9,0,9.5-5.7,9.5-14.4s-3.8-13.9-9.5-13.9S258.5,139.4,258.5,148"/>
<path class="st1" d="M130.5,162.4c-4.7,0-8.9-4.9-9.4-13.1v-6.9c0-8.5-5.4-13.2-15.5-13.2c-3.9,0.1-7.7,1.1-11.2,2.9
	c-2.3-2.1-6-2.9-10.2-2.9c-3.3,0.2-6.6,0.9-9.8,2l-3.2-2l-9.8,0.9l0.9,4.8h3.5V160l-4.9,1.7l0.9,4.8h17.8l0.9-4.8l-4.9-1.7v-23.7
	c2.2-0.8,4.5-1.4,6.8-1.6c3.3-0.1,6.1,2.5,6.2,5.8c0,0.1,0,0.2,0,0.3v19l-4.9,1.7l0.9,4.8h17.9l0.9-4.8l-5-1.7v-17.7
	c0-2-0.4-4.1-1.2-5.9c2.2-1,4.6-1.5,7-1.6c3.8-0.1,7,2.8,7.1,6.6c0,0.1,0,0.2,0,0.3v5.6c0,0.3,0,0.5,0,0.8c0,11.6,7,19.1,19.1,19.1
	h1.6v-4.8H130.5z"/>
<path class="st1" d="M127.1,73.9c0.9,2.8,1,5.8,0.3,8.6c-0.5,0.6-1,1.2-1.6,1.7c-2.4,2.1-4.2,4.8-5.5,7.7c-1.2,3-1.3,6.4-0.3,9.5
	c1,3.4,4,5.8,7.5,6c4.4,0.5,8.9-0.9,12.1-3.9c0.7-0.6,1.4-1.3,2.1-1.9c0.9,0.8,1.8,1.6,2.7,2.4c3.7,3.1,8.6,4.3,13.3,3.1
	c2-0.5,3.7-1.7,4.8-3.3c0.1-0.2,0.8-1.6,0.9-1.6c2.5,0.2,5.1-0.2,7.5-1c0.1,0,0.2,0,0.2,0c-0.5,2.1-1.3,4-2.3,5.9
	c-2.5,4.3-6.9,7.1-11.8,7.5c-5.2,0.7-10.5-0.5-14.9-3.3c-0.3-0.2-0.6-0.2-0.9,0c-3.9,2.5-8.5,3.7-13.2,3.5
	c-7.8,0-14.5-5.8-15.6-13.6c-1.2-7,0.7-13.1,5-18.6C120.4,79.3,123.6,76.3,127.1,73.9"/>
<path class="st1" d="M138.6,75.8c-0.3-2.3-0.9-4.5-1.8-6.5c1.6-0.9,3.3-1.7,5-2.3c0.2,0,0.3,0,0.5,0.1c8.1,2.8,15.5,6.8,21.6,13
	c2.4,2.6,4.5,5.6,6,8.9c0.1,0.2,0.2,0.4,0.3,0.6s0,0.1,0.1,0.2c-1.8,1.3-3.7,2.4-6,2.1c-0.6,0-1.2-0.4-1.5-1
	c-2.2-3.8-5.1-7.1-8.6-9.7c-3.6-2.6-7.6-4.7-11.7-6.3c-0.3-0.1-0.7-0.1-1,0c-0.6,0.2-1.2,0.5-1.8,0.7L138.6,75.8"/>
<path class="st2" d="M156.4,40.9c-0.9-2.8-1-5.8-0.3-8.6c0.1-0.3,0.3-0.5,0.5-0.7c2.3-2.2,5.3-5.7,6.5-8.7c1.2-3,1.3-6.4,0.3-9.5
	c-1-3.4-4-5.8-7.5-6c-4.4-0.5-8.9,0.9-12.1,3.9c-0.7,0.6-1.4,1.3-2.1,1.9c-0.9-0.8-1.8-1.6-2.7-2.4c-3.7-3.1-8.6-4.3-13.3-3.1
	c-2,0.5-3.7,1.7-4.8,3.4c-0.1,0.2-0.3,0.3-0.5,0.3c-2.5-0.2-5.1,0.2-7.5,1c-0.1,0-0.2,0-0.2,0c0.4-1.6,1-3.2,1.8-4.6
	c2.5-4.3,6.9-7.1,11.8-7.6c5.2-0.7,10.5,0.5,14.9,3.3c0.3,0.2,0.6,0.2,0.9,0c4-2.5,8.6-3.7,13.2-3.5c7.8,0.1,14.5,5.8,15.6,13.6
	c1.2,7-0.7,13.1-5,18.5C163.1,35.4,159.9,38.4,156.4,40.9"/>
<path class="st2" d="M145.3,38.4c0.1,1.2,0.3,2.4,0.6,3.5c0.3,1.2,0.7,2.3,1.2,3.5c-1.3,0.5-4,1.9-5.4,2.3c-0.2,0-0.3,0-0.5-0.1
	c-8.1-2.8-15.5-6.8-21.6-13c-2.3-2.2-4.1-4.8-5.5-7.7c-0.1-0.2-0.2-0.4-0.3-0.6s0-0.1-0.1-0.2c1.8-1.3,3.7-2.4,6-2.1
	c0.6,0.1,1.2,0.4,1.5,1c2,3.4,4.8,6.2,8.1,8.4c3.6,2.6,7.6,4.8,11.7,6.4c0.3,0.1,0.7,0.1,1,0C142.7,39.8,144.6,38.6,145.3,38.4
	C145.3,38.4,145.3,38.4,145.3,38.4"/>
<path class="st1" d="M149.8,162.3h-1.5v4.8h1.6c12.1,0,21.6-12.8,21.6-24.4c0-12-10.3-16-16.3-15.8c-4.8-0.1-9.5,1.8-12.9,5.3
	l-1,1.2l-0.2-0.2c0,0-4.2-8-16.1-5.7c-0.3,0-0.5,0-0.8,0l3.1,5.6h0.2c3,0.1,5.8,1.4,7.7,3.8v39.4l-4.9,1.7l0.9,4.8h17.8l0.9-4.8
	l-5-1.7V137c1.7-2.4,5.5-4.9,8-4.9c4.4,0,8.2,1.7,8.4,9.5C161.6,151,154.8,162.4,149.8,162.3"/>
<path class="st3" d="M158.8,50.3c-1.2-2.1-2.3-4.4-3.2-6.7c-1.6-3.7-2.1-7.8-1.6-11.8c0.5-3.6,2.4-6.8,5.3-9
	c0.7-0.5,1.1-1.1,1.3-1.9c0.7-2.1,0.7-4.4,0.1-6.5c-1.4,0.3-2.7,0.8-3.9,1.5c-5,2.9-8.5,7.8-9.7,13.4c-1,4.6-0.8,9.3,0.7,13.8
	c1.4,4.5,3.3,8.8,5.8,12.7L158.8,50.3z"/>
<path class="st3" d="M203.5,41.6c-0.4-3.8-2.2-7.3-5.1-9.7c-4.3-3.8-9.9-5.8-15.7-5.6c-0.4,0.1-0.8-0.2-0.9-0.5
	c-1.7-3.2-4.2-6-7.2-8.1c-0.2-0.1-0.3-0.2-0.5-0.3c-0.1,1.4-0.2,2.7-0.4,4s-0.6,2.5-0.9,3.8c0,0.2,0,0.4,0.2,0.6
	c1.7,1.9,3,4.1,3.7,6.5c0.2,0.7,0.5,1.4,0.7,2.1l0.5-0.1l1.6-0.3c4.4-1.1,9-0.3,12.8,2.2c3.8,2.5,5,6.2,3.6,10.5
	c-1,3.1-3,5.7-5.7,7.5c-3.5,2.3-7.5,3.6-11.7,4c-4.6,0.5-9.3,0.5-13.9-0.2c-0.7,0.7-1.4,1.5-1.9,2.4c-0.8,1.4-1.4,2.8-1.9,4.3
	c0.1,0,0.1,0,0.2,0.1c5.8,1.1,11.7,1.3,17.5,0.8c3.9-0.3,7.8-1.3,11.4-2.8c6.5-2.9,11-7.5,13-14.4c0.3-1.1,0.5-2.3,0.7-3.5V42
	C203.6,41.9,203.6,41.7,203.5,41.6"/>
<path class="st0" d="M106.7,82.5c-0.2-0.7-0.5-1.4-0.7-2.1l-0.5,0.1l-1.6,0.3c-4.4,1.1-9,0.3-12.8-2.2c-3.8-2.5-5-6.2-3.6-10.5
	c0.6-2,1.7-3.8,3.2-5.4c-2.1-1.2-4.1-2.6-5.9-4.2c-1.9,2.3-3.4,5.1-4.2,8c-0.3,1.1-0.5,2.3-0.7,3.4v2.7c0,0.2,0.1,0.3,0.1,0.5
	c0.4,3.8,2.2,7.3,5.1,9.8c4.3,3.8,9.9,5.8,15.7,5.6c0.4-0.1,0.8,0.2,0.9,0.5c1.7,3.3,5.4,6.9,8.5,9l0.5,0.3c0.1-1.4,0.2-2.7,0.4-4
	s0.6-2.5,0.8-3.8c0-0.2,0-0.4-0.2-0.6C109.9,88,107.4,84.9,106.7,82.5"/>
<path class="st0" d="M135.6,71.5c-2.4-7.5-6.3-14.5-11.5-20.5c-0.4-0.5-1-0.9-1.7-1c-5.8-1.1-11.7-1.3-17.5-0.8
	c-3.8,0.3-7.6,1.2-11.1,2.7c2.9,2.1,6.1,3.7,9.6,4.8c0.5-0.1,1.1-0.2,1.6-0.2c4.7-0.5,9.5-0.4,14.2,0.3c0.3,0.1,0.5,0.2,0.7,0.4
	c3.4,4.2,6.1,8.8,8.1,13.8c1.6,3.7,2.1,7.8,1.6,11.8c-0.6,3.7-3.9,7.3-6.9,9.5c-0.7,0.5-1.1,1.1-1.4,1.9c-0.7,2.1-0.7,4.4-0.1,6.5
	c1.9-0.4,3.7-1.1,5.4-2c5-2.9,8.6-7.8,9.7-13.4C137.3,80.7,137.1,76,135.6,71.5"/>
<path class="st2" d="M127.6,43.1c-0.1,0.1-0.1,0.2-0.2,0.4c-0.8,2-1.9,4.2-3,6.4l5.2,5.7c0.7-1.2,1.4-2.4,2.1-3.7s1.6-4,2.3-5.3
	c-1.2-0.6-2.4-1-3.6-1.7C129.5,44.4,128.6,43.8,127.6,43.1"/>
<path class="st3" d="M129.9,18.6c-3.9-4.1-9.8-5.6-15.2-4c-6.1,1.7-10.4,5.5-13.4,11c-0.2,0.4-0.6,0.6-1,0.6
	C95,26,89.7,27.7,85.5,31.1c-4.2,3.1-6.4,8.2-5.9,13.4c0.4,5.2,2.9,10.1,6.8,13.6c4,3.7,8.8,5.6,14.1,6.6c7.3,1.3,14.8,1.2,22.1-0.3
	l0,0c-0.5-1.5-1.2-3-2-4.4c-0.5-0.8-1-1.5-1.7-2.2l-0.2,0c-3.7,0.6-7.5,0.7-11.3,0.5c-3.8-0.1-7.6-0.9-11.2-2.4
	c-4.1-1.6-7.4-4.9-8.8-9.1c-1.5-4.3-0.4-7.9,3.2-10.6c3.6-2.7,8.2-3.6,12.6-2.5l2.5,0.5c0.4-1.1,0.7-2.2,1.1-3.2
	c1.4-4.2,4.7-7.6,8.9-9.2c3.3-1.5,7.2-0.6,9.6,2.1c1.4,1.4,2.3,4.3,3,6c0.1,0.4,0.4,0.7,0.7,1c1.2,0.9,2.3,1.8,3.6,2.6
	s2.6,1.6,4,2.5c0-0.3,0-1.8,0-1.9C136.6,28.4,134.2,22.7,129.9,18.6"/>
</svg>
