<svg xmlns="http://www.w3.org/2000/svg" viewBox="0 0 628.34 188.51"><defs><style>.cls-1{isolation:isolate;}.cls-2{fill:#bfc96d;}.cls-3{fill:#cc4e57;}.cls-4{fill:none;}.cls-5{fill:#94a50c;}.cls-6{fill:#f2669b;}.cls-7{fill:#d9525b;}.cls-8{fill:#b3444b;}.cls-9{fill:#916b9c;}.cls-10,.cls-12{fill:#e6e7e8;}.cls-10,.cls-11,.cls-13{mix-blend-mode:multiply;}.cls-13{fill:#bcbec0;}.cls-14{fill:#414042;}</style></defs><title>brand</title><g class="cls-1"><g id="Layer_1" data-name="Layer 1"><g id="MarcaCurso"><path class="cls-2" d="M177.44,79.43a4.7,4.7,0,0,1,.16.62c.37,1.94.75,8.08-7.4,13.62a40.94,40.94,0,0,1-10.13,4.77L153,100.57l-24.43,5.1c-5.78,1.2-9.54,6.62-8.39,12.09s6.75,8.93,12.52,7.73l25.51-5.32c2.76-.5,5.65-1.09,8.29-1.74l3.58-.74a10.94,10.94,0,0,0,6.85-4.54C182.9,106.72,185.92,94.12,177.44,79.43Z"/><path class="cls-3" d="M168.81,64.63a12.34,12.34,0,1,1,4.52-16.85A12.33,12.33,0,0,1,168.81,64.63Z"/><path class="cls-2" d="M155.72,146.55A12.34,12.34,0,1,1,172.58,142,12.33,12.33,0,0,1,155.72,146.55Z"/><path class="cls-4" d="M146.39,161.8a8.24,8.24,0,0,1-.62.56A6,6,0,0,0,146.39,161.8Z"/><path class="cls-4" d="M145.15,162.81c.22-.15.42-.29.58-.42C145.55,162.54,145.35,162.67,145.15,162.81Z"/><path class="cls-5" d="M149.35,151.19l-4.54-17.37h0l-2.69-10.31-.06-.19-.46-1.78c-1-4.44-2.79-15.18,3.52-19.32,0,0-11,2.2-14.15,2.9-1.43.31-2.62.58-3.73.91l-.23.08c-5.41,1.42-8.4,7.54-6.91,13.25l11.09,42.24a8.07,8.07,0,0,0,.52,1.49c6.92,2.93,11.38,1.09,13.44-.28.2-.14.4-.27.58-.42l0,0a8.24,8.24,0,0,0,.62-.56l.08-.08v0A10.92,10.92,0,0,0,149.35,151.19Z"/><path class="cls-6" d="M145.73,162.39l0,0Z"/><path class="cls-7" d="M146.39,161.8a6,6,0,0,1-.62.56l0,0c-.16.13-.36.27-.58.42l-.45.28c-2.22,1.32-6.53,2.74-13,0a37.56,37.56,0,0,1-9.74-6.36l-21.9-24.51A10.14,10.14,0,1,0,85,145.71l8.45,9.46v0s10,13.34,17.06,19.74,24.9,6,36-13.18Z"/><path class="cls-6" d="M146.39,161.8l.07-.05v0Z"/><path class="cls-3" d="M78.24,176.17a12.34,12.34,0,1,1,12.34,12.34A12.33,12.33,0,0,1,78.24,176.17Z"/><path class="cls-4" d="M57.53,174.3l.16.12Z"/><path class="cls-8" d="M101.82,134.17a21.85,21.85,0,0,0-2.78-3l-.1-.07a10.8,10.8,0,0,0-15,.6L52.13,163.22c.62,6.22,3.21,9.45,5.4,11.08l.16.12.28.19A10.55,10.55,0,0,0,71,173L83.8,160.35h0l7.58-7.49.14-.14,1.3-1.29c3.32-3.13,11.75-10,18.5-6.61C111.33,144.83,104,136.58,101.82,134.17Z"/><path class="cls-9" d="M58,174.61l-.28-.19Z"/><path class="cls-5" d="M53.6,148.82l9.22-28a10.42,10.42,0,0,0-6.28-13.31,10.41,10.41,0,0,0-12.95,7l-5.32,16.15c-2.08,5.17-5.57,14.33-6.93,20.71a12.5,12.5,0,0,0-.24,3.21,9.42,9.42,0,0,0,.14,1.51c1.31,9,10.84,19.85,29.54,19.85a8.64,8.64,0,0,1-2.81-1.3l-.28-.19-.16-.12c-2.19-1.63-4.78-4.86-5.4-11.08A40,40,0,0,1,53,151.36Z"/><path class="cls-2" d="M13.84,123.88a12.34,12.34,0,1,1-4.52,16.85A12.32,12.32,0,0,1,13.84,123.88Z"/><path class="cls-2" d="M55.19,106.63,11.59,94.7c-8.77,6.51-6.35,13.61-6.35,13.61l0-.06A11.32,11.32,0,0,0,13,116l17.31,4.75h0l10.27,2.82.2,0,1.77.49c4.37,1.31,14.54,5.18,15,12.72,0,0,3.52-10.58,4.5-13.68a27.56,27.56,0,0,0,1.14-3.74s0,0,0,0A11,11,0,0,0,55.19,106.63Z"/><path class="cls-8" d="M62.47,70.75A10.41,10.41,0,0,0,49.94,63l-12.5,2.6v0s-16.54,2-25.63,4.91S-5.82,89.08,5.21,108.25l0,.06s-2.42-7.1,6.35-13.61a38.47,38.47,0,0,1,10.18-5.12l32.3-6.74A10.41,10.41,0,0,0,62.47,70.75Z"/><path class="cls-7" d="M26.93,42a12.34,12.34,0,1,0,4.51,16.86A12.35,12.35,0,0,0,26.93,42Z"/><path class="cls-7" d="M36.14,27c0-.1.11-.18.16-.28a10.77,10.77,0,0,0-3,10.65l4.54,17.37h0L40.53,65l.06.19L41.05,67c1.05,4.44,2.79,15.18-3.52,19.33,0,0,10.89-2.28,14.06-3a29.63,29.63,0,0,0,3.92-.89l.1,0c5.63-2.2,8.43-7.55,6.94-13.26L51.19,25.69C41.1,21.27,36.14,27,36.14,27Z"/><path class="cls-5" d="M97.68,42.8,88.41,32.43C85.92,29.17,78,19.05,72.14,13.73c-7.07-6.36-24.75-6-35.84,12.94,0,.1-.11.18-.16.28s5-5.68,15-1.26a39.22,39.22,0,0,1,10.1,6.8l.16.15L82.58,56.29c3.94,4.4,10.5,5,14.67,1.22S101.61,47.2,97.68,42.8Z"/><circle class="cls-2" cx="92.08" cy="12.34" r="12.34" transform="translate(18.24 68.72) rotate(-45)"/><path class="cls-2" d="M126.34,15.23a10.42,10.42,0,0,0-14.72.31L98.85,28.16h0l-7.57,7.49-.14.14-1.31,1.3c-3.32,3.12-11.75,10-18.5,6.61,0,0,7.43,8.31,9.57,10.76a28.32,28.32,0,0,0,2.7,2.83,4.15,4.15,0,0,0,.32.27,11,11,0,0,0,14.77-.77l31.37-31a7.79,7.79,0,0,0,.63-.7A16.23,16.23,0,0,0,127.09,16Z"/><path class="cls-8" d="M122.07,12.72a9.92,9.92,0,0,1,5,3.26,16.23,16.23,0,0,1,3.59,9.12,39,39,0,0,1-.83,12.17l-10,30.43c-1.85,5.61,1,11.57,6.27,13.31a10.41,10.41,0,0,0,13-7L143.36,61c1.47-3.51,6.46-15.74,8.15-23.68C153.5,28,144.23,12.72,122.07,12.72Z"/><path class="cls-10" d="M75,44.6c3.24,0,7.6-.7,16.25-9l-1.8-2s-6.7,12-20,8c.17.16,1.09,1.29,1.7,1.9A8.4,8.4,0,0,0,75,44.6Z"/><path class="cls-10" d="M40.26,83.53c1.63-2.79,3.19-6.92.36-18.54L38,65.53s7,11.79-3,21.31c.22-.06,1.66-.3,2.49-.52A8.31,8.31,0,0,0,40.26,83.53Z"/><path class="cls-10" d="M56.5,133.19c-1.61-2.81-4.4-6.23-15.88-9.59l-.86,2.58s13.73-.2,16.94,13.27c0-.22.57-1.59.8-2.42A8.41,8.41,0,0,0,56.5,133.19Z"/><path class="cls-10" d="M107.68,144c-3.23,0-7.59.7-16.24,9l1.8,2s6.69-12,20-8c-.17-.16-1.1-1.29-1.7-1.9A8.45,8.45,0,0,0,107.68,144Z"/><path class="cls-10" d="M142.31,105c-1.63,2.79-3.19,6.92-.36,18.54l2.65-.54s-7-11.79,3-21.31c-.22.07-1.66.31-2.49.52A8.31,8.31,0,0,0,142.31,105Z"/><path class="cls-10" d="M126.21,55.31c1.6,2.81,4.4,6.22,15.88,9.58l.85-2.57s-13.72.2-16.94-13.27c0,.22-.56,1.59-.79,2.42A8.41,8.41,0,0,0,126.21,55.31Z"/><g class="cls-11"><path class="cls-12" d="M51.67,28.26h.17l-.65-2.51c-10.09-4.42-14.94,1.07-14.89,1a10.77,10.77,0,0,0-3,10.65l.16.59a10.65,10.65,0,0,1,3.32-8.73C36.72,29.33,41.57,23.84,51.67,28.26Z"/></g><g class="cls-11"><path class="cls-12" d="M54.07,161.61h0l-.1-.14-1.84,1.82c1.22,10.95,8.4,12.4,8.29,12.4A10.75,10.75,0,0,0,71.15,173l.43-.42A10.63,10.63,0,0,1,62.36,174C62.47,174,55.28,172.56,54.07,161.61Z"/></g><g class="cls-11"><path class="cls-12" d="M131.11,160.42h-.18l.65,2.51c10.1,4.42,14.95-1.08,14.89-1a10.75,10.75,0,0,0,3-10.65l-.16-.59a10.63,10.63,0,0,1-3.32,8.73C146.05,159.34,141.2,164.84,131.11,160.42Z"/></g><g class="cls-11"><path class="cls-12" d="M167.83,92.83h0c0,.06,0,.11-.07.16l2.5.69c9.3-6.14,7.35-13.4,7.4-13.3a11,11,0,0,0-8.54-8l-.58-.16a10.68,10.68,0,0,1,5.9,7.24C174.37,79.35,176.71,86.3,167.83,92.83Z"/></g><g class="cls-11"><path class="cls-12" d="M128.75,26.87h0l.1.14,1.84-1.82c-1-10.46-8-12.32-7.93-12.32-3.58-1.12-8-.78-11.08,2.65l-.43.43a10.61,10.61,0,0,1,9.21-1.49C120.35,14.47,127.53,15.92,128.75,26.87Z"/></g><path class="cls-10" d="M26.77,42.15a12.29,12.29,0,0,0-3-1.23,12.32,12.32,0,0,1-7.46,23.46A12.33,12.33,0,0,0,26.77,42.15Z"/><path class="cls-10" d="M13.84,123.74a12.44,12.44,0,0,0-2.58,2,13.44,13.44,0,0,1,1.67-1.17,12.33,12.33,0,0,1,14.92,19.37,12.33,12.33,0,0,0-14-20.2Z"/><path class="cls-13" d="M78.33,176.17a12.3,12.3,0,0,0,.44,3.24,12.33,12.33,0,0,1,24-5.27,12.33,12.33,0,0,0-24.49,2Z"/><path class="cls-10" d="M155.72,146.55a12.29,12.29,0,0,0,3,1.23,11.44,11.44,0,0,1-1.85-.86,12.33,12.33,0,0,1,9.31-22.6,12.33,12.33,0,0,0-10.49,22.23Z"/><g class="cls-11"><path class="cls-12" d="M168.75,64.57a12.18,12.18,0,0,0,2.58-2,13.44,13.44,0,0,1-1.67,1.17,12.33,12.33,0,0,1-14.92-19.37,12.33,12.33,0,0,0,14,20.2Z"/></g><path class="cls-10" d="M104.35,12.69A12.46,12.46,0,0,0,104,9.44a11.48,11.48,0,0,1,.11,2A12.33,12.33,0,0,1,79.8,13.91a12.33,12.33,0,0,0,24.55-1.22Z"/><path class="cls-7" d="M177.6,80.05a11.26,11.26,0,0,0-8-7.58l-17.31-4.75h0l-10.27-2.82-.2,0-1.77-.49c-4.36-1.31-14.53-5.18-15-12.72,0,0-3.49,10.49-4.47,13.59a25.23,25.23,0,0,0-1.2,4s0,.06,0,.11a11.13,11.13,0,0,0,8,12.55L170.2,93.67C178.35,88.13,178,82,177.6,80.05Z"/><path class="cls-14" d="M239.51,41.15a.71.71,0,0,1-.53.22H225.72c-.2,0-.3.1-.3.31v11.6a.27.27,0,0,0,.3.3h7.86a.71.71,0,0,1,.52.22.69.69,0,0,1,.22.52v4.73a.69.69,0,0,1-.22.52.7.7,0,0,1-.52.21h-7.86a.27.27,0,0,0-.3.31V71.76a.27.27,0,0,0,.3.3H239a.71.71,0,0,1,.53.22.7.7,0,0,1,.21.52v4.66a.72.72,0,0,1-.74.74H219a.72.72,0,0,1-.73-.74V36a.72.72,0,0,1,.73-.74H239a.72.72,0,0,1,.74.74v4.66A.7.7,0,0,1,239.51,41.15Z"/><path class="cls-14" d="M258.54,35.44a.7.7,0,0,1,.52-.21h5.65a.72.72,0,0,1,.73.74V77.46a.72.72,0,0,1-.73.74h-5.65a.7.7,0,0,1-.52-.21.71.71,0,0,1-.22-.53v-.73a.25.25,0,0,0-.12-.25.21.21,0,0,0-.25.06,7.56,7.56,0,0,1-5.52,2.15A7.91,7.91,0,0,1,246,76a10.9,10.9,0,0,1-2.27-7.24V56.29a10.78,10.78,0,0,1,2.3-7.31,8,8,0,0,1,6.36-2.64,8.77,8.77,0,0,1,2.88.52A6.9,6.9,0,0,1,258,48.55a.21.21,0,0,0,.25.06.24.24,0,0,0,.12-.24V36A.71.71,0,0,1,258.54,35.44ZM257.09,71.6a4.28,4.28,0,0,0,1.23-2.55V56a4.3,4.3,0,0,0-1.23-2.55,3.39,3.39,0,0,0-2.45-1,3.46,3.46,0,0,0-2.76,1.2,4.6,4.6,0,0,0-1,3.16V68.19a4.63,4.63,0,0,0,1,3.17,3.49,3.49,0,0,0,2.76,1.19A3.35,3.35,0,0,0,257.09,71.6Z"/><path class="cls-14" d="M285.49,47.05a.67.67,0,0,1,.52-.22h5.65a.73.73,0,0,1,.73.74V77.46a.72.72,0,0,1-.73.74H286a.7.7,0,0,1-.52-.21.71.71,0,0,1-.22-.53V76.11a.24.24,0,0,0-.12-.24c-.08,0-.17,0-.25.12-1.18,1.76-3.09,2.64-5.71,2.64a8.3,8.3,0,0,1-6-2.24c-1.54-1.49-2.31-3.8-2.31-6.91V47.57a.71.71,0,0,1,.22-.52.69.69,0,0,1,.52-.22h5.65a.69.69,0,0,1,.52.22.71.71,0,0,1,.22.52V68c0,3.07,1.18,4.6,3.56,4.6a3.25,3.25,0,0,0,2.76-1.32,5.91,5.91,0,0,0,1-3.59V47.57A.67.67,0,0,1,285.49,47.05Z"/><path class="cls-14" d="M300.4,76a9.47,9.47,0,0,1-2.91-7.3V56.29a9.44,9.44,0,0,1,2.91-7.22,11.19,11.19,0,0,1,8-2.73,11.42,11.42,0,0,1,8,2.67,8.73,8.73,0,0,1,2.95,6.78v.86a.71.71,0,0,1-.22.53.7.7,0,0,1-.52.21l-5.65.25a.65.65,0,0,1-.73-.74v-.61a3.72,3.72,0,0,0-1.08-2.67,3.57,3.57,0,0,0-2.73-1.14,3.39,3.39,0,0,0-2.7,1.23,4.64,4.64,0,0,0-1,3.13V68.19a4.67,4.67,0,0,0,1,3.14,3.41,3.41,0,0,0,2.7,1.22,3.56,3.56,0,0,0,2.73-1.13,3.83,3.83,0,0,0,1.08-2.73v-.62a.72.72,0,0,1,.21-.52.73.73,0,0,1,.52-.21l5.65.06a.73.73,0,0,1,.74.73v1.11a8.69,8.69,0,0,1-2.95,6.84,11.59,11.59,0,0,1-8,2.61A11.26,11.26,0,0,1,300.4,76Z"/><path class="cls-14" d="M342.42,49.16a9.71,9.71,0,0,1,3,7.43V77.46a.72.72,0,0,1-.74.74h-5.64a.72.72,0,0,1-.74-.74V76.3a.26.26,0,0,0-.12-.25c-.09,0-.17,0-.25.13a7.79,7.79,0,0,1-6.26,2.51,10,10,0,0,1-6.17-2q-2.67-2-2.67-7.28,0-5.52,3.22-7.86t8.75-2.33H338c.21,0,.31-.1.31-.3v-1.6a5.31,5.31,0,0,0-1.11-3.53,3.44,3.44,0,0,0-2.76-1.32,3,3,0,0,0-2.15.83,3.65,3.65,0,0,0-1,2.24.72.72,0,0,1-.8.74H324.5a.6.6,0,0,1-.68-.74,9.28,9.28,0,0,1,3.29-6.69,11.13,11.13,0,0,1,7.45-2.52A11,11,0,0,1,342.42,49.16ZM336.9,71.63a4,4,0,0,0,1.41-3.25v-3.5a.28.28,0,0,0-.31-.31h-3.19a4.92,4.92,0,0,0-3.38,1.14A4.14,4.14,0,0,0,330.14,69a3.81,3.81,0,0,0,1,2.86,3.47,3.47,0,0,0,2.51,1A5,5,0,0,0,336.9,71.63Z"/><path class="cls-14" d="M371.61,57.18a.72.72,0,0,1-.52.21l-5.65.25a.65.65,0,0,1-.73-.74v-.61a3.72,3.72,0,0,0-1.08-2.67,3.6,3.6,0,0,0-2.73-1.14,3.36,3.36,0,0,0-2.7,1.23,4.65,4.65,0,0,0-1.05,3.13V68.19a4.67,4.67,0,0,0,1.05,3.14,3.38,3.38,0,0,0,2.7,1.22,3.59,3.59,0,0,0,2.73-1.13,3.83,3.83,0,0,0,1.08-2.73v-.62a.72.72,0,0,1,.73-.73l5.65.06a.72.72,0,0,1,.52.21.74.74,0,0,1,.22.52v1.11a8.93,8.93,0,0,1-2.15,6.08,10,10,0,0,1-6,3.13q-.36.12-.12.36a8,8,0,0,1,2.27,5.47q0,2.88-1.5,4.08a5.79,5.79,0,0,1-3.72,1.2,9.91,9.91,0,0,1-2.57-.37.73.73,0,0,1-.5-.86l.31-2.15a.61.61,0,0,1,.86-.55,2,2,0,0,0,1.5-.34,2.41,2.41,0,0,0,.89-1.44,1.84,1.84,0,0,0,.07-.55c0-1.44-.88-3-2.64-4.67l-.31-.18a9.84,9.84,0,0,1-6.05-3.26,9.73,9.73,0,0,1-2.18-6.5V56.29A9.45,9.45,0,0,1,353,49.07a11.16,11.16,0,0,1,7.95-2.73,11.44,11.44,0,0,1,8,2.67,8.77,8.77,0,0,1,2.95,6.78v.86A.75.75,0,0,1,371.61,57.18Z"/><path class="cls-14" d="M395,49.16a9.75,9.75,0,0,1,3,7.43V77.46a.75.75,0,0,1-.22.53.72.72,0,0,1-.52.21h-5.65a.72.72,0,0,1-.52-.21.74.74,0,0,1-.21-.53V76.3a.26.26,0,0,0-.13-.25c-.08,0-.16,0-.24.13a7.81,7.81,0,0,1-6.26,2.51,10,10,0,0,1-6.17-2q-2.67-2-2.67-7.28,0-5.52,3.22-7.86c2.15-1.55,5.06-2.33,8.75-2.33h3.19a.27.27,0,0,0,.31-.3v-1.6a5.31,5.31,0,0,0-1.11-3.53A3.46,3.46,0,0,0,387,52.48a3,3,0,0,0-2.15.83,3.65,3.65,0,0,0-1,2.24.72.72,0,0,1-.8.74h-6c-.49,0-.71-.25-.67-.74a9.27,9.27,0,0,1,3.28-6.69,11.15,11.15,0,0,1,7.46-2.52A11,11,0,0,1,395,49.16Zm-5.65-7.7a11.69,11.69,0,0,1-1.78-.89c-.29-.16-.59-.35-.92-.55a5.31,5.31,0,0,0-.86-.46,2.27,2.27,0,0,0-.86-.16,2.7,2.7,0,0,0-2.33,1.42.7.7,0,0,1-1.05.24l-2-1.41a.74.74,0,0,1-.31-1,7,7,0,0,1,2.18-2.92,4.9,4.9,0,0,1,2.92-1,4.55,4.55,0,0,1,1.84.37,14.77,14.77,0,0,1,2,1,7.12,7.12,0,0,1,.74.46,4.76,4.76,0,0,0,.95.52,2.44,2.44,0,0,0,1,.19A2.65,2.65,0,0,0,393.13,36c.24-.49.57-.6,1-.31l2,1.35a.65.65,0,0,1,.31.61,1.63,1.63,0,0,1-.24.8A6.59,6.59,0,0,1,393.65,41a6,6,0,0,1-2.79.77A4.42,4.42,0,0,1,389.32,41.46Zm.12,30.17a4,4,0,0,0,1.42-3.25v-3.5a.28.28,0,0,0-.31-.31h-3.19A4.92,4.92,0,0,0,384,65.71,4.14,4.14,0,0,0,382.69,69a3.84,3.84,0,0,0,1,2.86,3.51,3.51,0,0,0,2.52,1A4.94,4.94,0,0,0,389.44,71.63Z"/><path class="cls-14" d="M405.44,76a9.44,9.44,0,0,1-2.92-7.3V56.35a9.44,9.44,0,0,1,3-7.28,11.27,11.27,0,0,1,8-2.73,11.39,11.39,0,0,1,8,2.73,9.46,9.46,0,0,1,2.94,7.28V68.69a9.47,9.47,0,0,1-2.91,7.3q-2.92,2.7-8.07,2.7T405.44,76Zm10.8-4.7a4.52,4.52,0,0,0,1.07-3.16V56.84a4.56,4.56,0,0,0-1.07-3.13,3.54,3.54,0,0,0-2.79-1.23,3.5,3.5,0,0,0-2.77,1.2,4.65,4.65,0,0,0-1,3.16V68.13a4.65,4.65,0,0,0,1,3.16,3.5,3.5,0,0,0,2.77,1.2A3.58,3.58,0,0,0,416.24,71.29Z"/><path class="cls-14" d="M463.51,41.15a.7.7,0,0,1-.52.22H449.73a.27.27,0,0,0-.31.31v11.6c0,.2.1.3.31.3h7.85a.71.71,0,0,1,.52.22.69.69,0,0,1,.22.52v4.73a.69.69,0,0,1-.22.52.7.7,0,0,1-.52.21h-7.85a.28.28,0,0,0-.31.31V71.76c0,.2.1.3.31.3H463a.73.73,0,0,1,.73.74v4.66a.72.72,0,0,1-.73.74H443a.72.72,0,0,1-.73-.74V36a.72.72,0,0,1,.73-.74h20a.72.72,0,0,1,.73.74v4.66A.7.7,0,0,1,463.51,41.15Z"/><path class="cls-14" d="M470.17,76.24a7.71,7.71,0,0,1-2.89-6.33v-.43a.73.73,0,0,1,.74-.73h5.28a.72.72,0,0,1,.52.21.74.74,0,0,1,.22.52v.31a3.12,3.12,0,0,0,1.13,2.46,4.15,4.15,0,0,0,2.79,1,3.41,3.41,0,0,0,2.52-.92A3.19,3.19,0,0,0,481.4,70a2.81,2.81,0,0,0-.8-2,5.9,5.9,0,0,0-1.71-1.26c-.62-.29-1.72-.76-3.32-1.41a17.63,17.63,0,0,1-5.74-3.44q-2.24-2.09-2.24-6.2a8.53,8.53,0,0,1,2.73-6.72,12.51,12.51,0,0,1,15,.12,8.82,8.82,0,0,1,2.79,6.85.72.72,0,0,1-.73.73H482.2a.73.73,0,0,1-.74-.73v-.37a3.28,3.28,0,0,0-1-2.46,3.53,3.53,0,0,0-2.55-1,3.37,3.37,0,0,0-2.55,1,3.46,3.46,0,0,0-1,2.43,2.78,2.78,0,0,0,.74,2,5.75,5.75,0,0,0,1.66,1.26c.61.31,1.63.77,3.07,1.38a34.06,34.06,0,0,1,4.32,2.06A9.72,9.72,0,0,1,487.26,65a7.87,7.87,0,0,1,1.32,4.64,8,8,0,0,1-2.88,6.51,14,14,0,0,1-15.53.06Z"/><path class="cls-14" d="M512.34,49a10.9,10.9,0,0,1,2.27,7.28v12.4q0,4.73-2.27,7.36A8,8,0,0,1,506,78.69a8.53,8.53,0,0,1-2.89-.52,7.06,7.06,0,0,1-2.64-1.69.2.2,0,0,0-.24-.06.24.24,0,0,0-.13.25v12.4a.73.73,0,0,1-.21.52.72.72,0,0,1-.52.21h-5.65a.73.73,0,0,1-.74-.73V47.57a.75.75,0,0,1,.74-.74h5.65a.69.69,0,0,1,.52.22.7.7,0,0,1,.21.52v.73c0,.13.05.2.16.22s.21-.05.33-.22a7.77,7.77,0,0,1,5.41-2A7.91,7.91,0,0,1,512.34,49Zm-5.83,4.64a3.45,3.45,0,0,0-2.76-1.23,3.27,3.27,0,0,0-2.67,1.23,4.83,4.83,0,0,0-1,3.19V68.19a4.72,4.72,0,0,0,1,3.17,3.33,3.33,0,0,0,2.67,1.19,3.51,3.51,0,0,0,2.76-1.19,4.67,4.67,0,0,0,1-3.17V56.84A4.78,4.78,0,0,0,506.51,53.65Z"/><path class="cls-14" d="M540.79,64.91a.71.71,0,0,1-.52.22H526.71c-.21,0-.31.1-.31.3v2.76a4.72,4.72,0,0,0,1,3.14,3.41,3.41,0,0,0,2.7,1.22,3.54,3.54,0,0,0,2.43-.89,4.2,4.2,0,0,0,1.32-2.3.77.77,0,0,1,.8-.61l5.46.24a.69.69,0,0,1,.52.22.64.64,0,0,1,.15.58,9.47,9.47,0,0,1-3.13,6.6c-1.8,1.53-4.31,2.3-7.55,2.3A11.34,11.34,0,0,1,522.19,76a9.37,9.37,0,0,1-2.91-7.27V56.29a9.44,9.44,0,0,1,2.91-7.22,12.94,12.94,0,0,1,15.9,0A9.41,9.41,0,0,1,541,56.29v8.1A.69.69,0,0,1,540.79,64.91Zm-13.35-11.2a4.69,4.69,0,0,0-1,3.13V59.6a.27.27,0,0,0,.31.31h6.93a.27.27,0,0,0,.31-.31V56.84a4.65,4.65,0,0,0-1-3.16,3.5,3.5,0,0,0-2.77-1.2A3.39,3.39,0,0,0,527.44,53.71Z"/><path class="cls-14" d="M548.34,76a9.47,9.47,0,0,1-2.91-7.3V56.29a9.44,9.44,0,0,1,2.91-7.22,11.19,11.19,0,0,1,7.95-2.73,11.42,11.42,0,0,1,8,2.67,8.73,8.73,0,0,1,3,6.78v.86a.72.72,0,0,1-.74.74l-5.64.25a.66.66,0,0,1-.74-.74v-.61A3.76,3.76,0,0,0,559,53.62a3.61,3.61,0,0,0-2.74-1.14,3.39,3.39,0,0,0-2.7,1.23,4.69,4.69,0,0,0-1,3.13V68.19a4.72,4.72,0,0,0,1,3.14,3.41,3.41,0,0,0,2.7,1.22A3.6,3.6,0,0,0,559,71.42a3.86,3.86,0,0,0,1.07-2.73v-.62a.69.69,0,0,1,.22-.52.7.7,0,0,1,.52-.21l5.64.06a.72.72,0,0,1,.74.73v1.11a8.69,8.69,0,0,1-3,6.84,11.59,11.59,0,0,1-8,2.61A11.26,11.26,0,0,1,548.34,76Z"/><path class="cls-14" d="M572.44,41.31a4.36,4.36,0,0,1,3.13-7.49,4.14,4.14,0,0,1,3.1,1.23,4.64,4.64,0,0,1,0,6.26,4.15,4.15,0,0,1-3.07,1.22A4.23,4.23,0,0,1,572.44,41.31ZM572.29,78a.71.71,0,0,1-.22-.53V47.57a.75.75,0,0,1,.74-.74h5.65a.73.73,0,0,1,.73.74V77.46a.72.72,0,0,1-.73.74h-5.65A.7.7,0,0,1,572.29,78Z"/><path class="cls-14" d="M603.56,49.16a9.71,9.71,0,0,1,3,7.43V77.46a.72.72,0,0,1-.74.74h-5.64a.72.72,0,0,1-.74-.74V76.3a.26.26,0,0,0-.12-.25c-.09,0-.17,0-.25.13a7.79,7.79,0,0,1-6.26,2.51,10,10,0,0,1-6.17-2q-2.67-2-2.67-7.28,0-5.52,3.22-7.86T596,59.23h3.19c.21,0,.31-.1.31-.3v-1.6a5.31,5.31,0,0,0-1.11-3.53,3.44,3.44,0,0,0-2.76-1.32,3,3,0,0,0-2.15.83,3.65,3.65,0,0,0-1,2.24.72.72,0,0,1-.8.74h-6a.6.6,0,0,1-.68-.74,9.28,9.28,0,0,1,3.29-6.69,11.13,11.13,0,0,1,7.45-2.52A11,11,0,0,1,603.56,49.16ZM598,71.63a4,4,0,0,0,1.41-3.25v-3.5a.28.28,0,0,0-.31-.31H596a4.92,4.92,0,0,0-3.38,1.14A4.14,4.14,0,0,0,591.28,69a3.81,3.81,0,0,0,1,2.86,3.47,3.47,0,0,0,2.51,1A5,5,0,0,0,598,71.63Z"/><path class="cls-14" d="M611.63,78a.74.74,0,0,1-.21-.53V36a.72.72,0,0,1,.74-.74h5.64a.72.72,0,0,1,.74.74V77.46a.72.72,0,0,1-.74.74h-5.64A.74.74,0,0,1,611.63,78Z"/><path class="cls-14" d="M225.86,99.79a7.07,7.07,0,0,1,1.2,4.4v12.12a.42.42,0,0,1-.13.31.41.41,0,0,1-.3.12h-3.28a.41.41,0,0,1-.3-.12.42.42,0,0,1-.13-.31v-11.8a3.23,3.23,0,0,0-.53-2,1.8,1.8,0,0,0-1.53-.72,1.91,1.91,0,0,0-1.61.75,3.35,3.35,0,0,0-.57,2.07v11.69a.41.41,0,0,1-.43.43H215a.42.42,0,0,1-.3-.12.45.45,0,0,1-.12-.31V99a.41.41,0,0,1,.42-.42h3.28a.45.45,0,0,1,.31.12.42.42,0,0,1,.12.3v.72a.1.1,0,0,0,.09.12c.06,0,.13,0,.2-.12a4.73,4.73,0,0,1,6.89.12Z"/><path class="cls-14" d="M231.6,115.46a5.5,5.5,0,0,1-1.69-4.24v-7.17a5.48,5.48,0,0,1,1.71-4.22,7.59,7.59,0,0,1,9.3,0,5.48,5.48,0,0,1,1.71,4.22v7.17a5.5,5.5,0,0,1-1.69,4.24,7.73,7.73,0,0,1-9.34,0Zm6.28-2.73a2.66,2.66,0,0,0,.62-1.84v-6.55a2.68,2.68,0,0,0-.62-1.82,2.06,2.06,0,0,0-1.63-.72,2,2,0,0,0-1.6.7,2.72,2.72,0,0,0-.61,1.84v6.55a2.7,2.7,0,0,0,.61,1.84,2,2,0,0,0,1.6.7A2.11,2.11,0,0,0,237.88,112.73Z"/><path class="cls-14" d="M254.13,115.46a5.5,5.5,0,0,1-1.69-4.24V104a5.46,5.46,0,0,1,1.69-4.18,6.48,6.48,0,0,1,4.62-1.59,6.66,6.66,0,0,1,4.63,1.55,5.1,5.1,0,0,1,1.71,3.94v.5a.41.41,0,0,1-.12.3.42.42,0,0,1-.31.13l-3.28.14a.37.37,0,0,1-.42-.43V104a2.14,2.14,0,0,0-.63-1.54,2.08,2.08,0,0,0-1.58-.67,1.94,1.94,0,0,0-1.57.72,2.67,2.67,0,0,0-.61,1.82v6.59a2.69,2.69,0,0,0,.61,1.82,2,2,0,0,0,1.57.71,2.07,2.07,0,0,0,1.58-.66,2.21,2.21,0,0,0,.63-1.58v-.36a.41.41,0,0,1,.12-.3.38.38,0,0,1,.3-.13l3.28,0a.45.45,0,0,1,.31.12.44.44,0,0,1,.12.3v.65a5,5,0,0,1-1.71,4,6.74,6.74,0,0,1-4.63,1.52A6.56,6.56,0,0,1,254.13,115.46Z"/><path class="cls-14" d="M269.17,115.46a5.5,5.5,0,0,1-1.69-4.24v-7.17a5.48,5.48,0,0,1,1.71-4.22,7.59,7.59,0,0,1,9.3,0,5.48,5.48,0,0,1,1.71,4.22v7.17a5.5,5.5,0,0,1-1.69,4.24,7.73,7.73,0,0,1-9.34,0Zm6.27-2.73a2.62,2.62,0,0,0,.63-1.84v-6.55a2.63,2.63,0,0,0-.63-1.82,2.18,2.18,0,0,0-3.22,0,2.67,2.67,0,0,0-.61,1.84v6.55a2.65,2.65,0,0,0,.61,1.84,2,2,0,0,0,1.6.7A2.07,2.07,0,0,0,275.44,112.73Z"/><path class="cls-14" d="M294.48,99.79a7.13,7.13,0,0,1,1.19,4.4v12.12a.41.41,0,0,1-.43.43H292a.41.41,0,0,1-.43-.43v-11.8a3.23,3.23,0,0,0-.54-2,1.78,1.78,0,0,0-1.53-.72,1.89,1.89,0,0,0-1.6.75,3.35,3.35,0,0,0-.57,2.07v11.69a.46.46,0,0,1-.13.31.41.41,0,0,1-.3.12h-3.28a.41.41,0,0,1-.3-.12.42.42,0,0,1-.13-.31V99a.39.39,0,0,1,.13-.3.41.41,0,0,1,.3-.12h3.28a.41.41,0,0,1,.3.12.43.43,0,0,1,.13.3v.72a.1.1,0,0,0,.09.12c.05,0,.12,0,.19-.12a4.74,4.74,0,0,1,6.9.12Z"/><path class="cls-14" d="M306.31,101.32a.38.38,0,0,1-.3.13H303.8a.16.16,0,0,0-.18.18V111a2.51,2.51,0,0,0,.46,1.72,1.74,1.74,0,0,0,1.39.45h.25a.41.41,0,0,1,.43.43v2.74a.41.41,0,0,1-.43.43h-1.21a6.24,6.24,0,0,1-3.65-.89c-.82-.59-1.23-1.71-1.23-3.35V101.63a.16.16,0,0,0-.18-.18H298.2a.38.38,0,0,1-.3-.13.41.41,0,0,1-.12-.3V99a.42.42,0,0,1,.12-.3.41.41,0,0,1,.3-.12h1.25a.16.16,0,0,0,.18-.18V94.43a.41.41,0,0,1,.43-.43h3.13a.41.41,0,0,1,.43.43v3.92a.16.16,0,0,0,.18.18H306a.41.41,0,0,1,.3.12.43.43,0,0,1,.13.3V101A.42.42,0,0,1,306.31,101.32Z"/><path class="cls-14" d="M321.07,109a.39.39,0,0,1-.3.13h-7.88a.16.16,0,0,0-.18.18v1.6a2.69,2.69,0,0,0,.61,1.82,2,2,0,0,0,1.56.71,2,2,0,0,0,1.41-.52,2.42,2.42,0,0,0,.77-1.33.44.44,0,0,1,.46-.36l3.17.14a.46.46,0,0,1,.31.13.38.38,0,0,1,.09.34,5.56,5.56,0,0,1-1.82,3.83,7.72,7.72,0,0,1-9-.22,5.43,5.43,0,0,1-1.69-4.22V104a5.46,5.46,0,0,1,1.69-4.18,7.49,7.49,0,0,1,9.23,0,5.46,5.46,0,0,1,1.69,4.18v4.71A.41.41,0,0,1,321.07,109Zm-7.75-6.5a2.67,2.67,0,0,0-.61,1.82v1.6a.16.16,0,0,0,.18.18h4c.11,0,.17-.06.17-.18v-1.6a2.72,2.72,0,0,0-.6-1.84,2.05,2.05,0,0,0-1.61-.7A1.93,1.93,0,0,0,313.32,102.52Z"/><path class="cls-14" d="M323.1,116.62c-.06-.09-.05-.21,0-.38l4.13-8.52a.26.26,0,0,0,0-.21L323.12,99a.46.46,0,0,1-.07-.21c0-.19.13-.28.39-.28H327a.49.49,0,0,1,.5.32l2.21,4.84c.07.15.14.15.22,0l2.24-4.84a.5.5,0,0,1,.5-.32h3.56a.4.4,0,0,1,.34.12.37.37,0,0,1,0,.37l-4.14,8.49a.38.38,0,0,0,0,.21l4.14,8.52a.75.75,0,0,1,.07.22c0,.19-.13.28-.4.28h-3.56a.51.51,0,0,1-.5-.32l-2.24-5c-.08-.15-.15-.14-.22,0l-2.21,4.92a.5.5,0,0,1-.5.32h-3.56A.4.4,0,0,1,323.1,116.62Z"/><path class="cls-14" d="M346.41,101.32a.38.38,0,0,1-.3.13H343.9a.16.16,0,0,0-.18.18V111a2.46,2.46,0,0,0,.46,1.72,1.74,1.74,0,0,0,1.39.45h.25a.41.41,0,0,1,.43.43v2.74a.41.41,0,0,1-.43.43h-1.21a6.22,6.22,0,0,1-3.65-.89c-.82-.59-1.23-1.71-1.23-3.35V101.63a.16.16,0,0,0-.18-.18H338.3a.38.38,0,0,1-.3-.13.42.42,0,0,1-.13-.3V99a.43.43,0,0,1,.13-.3.41.41,0,0,1,.3-.12h1.25a.16.16,0,0,0,.18-.18V94.43a.45.45,0,0,1,.12-.31.43.43,0,0,1,.31-.12h3.13a.41.41,0,0,1,.3.12.42.42,0,0,1,.13.31v3.92a.16.16,0,0,0,.18.18h2.21a.41.41,0,0,1,.3.12.43.43,0,0,1,.13.3V101A.42.42,0,0,1,346.41,101.32Z"/><path class="cls-14" d="M350.37,115.46a5.51,5.51,0,0,1-1.7-4.24v-7.17a5.45,5.45,0,0,1,1.72-4.22A6.52,6.52,0,0,1,355,98.24a6.59,6.59,0,0,1,4.67,1.59,5.48,5.48,0,0,1,1.71,4.22v7.17a5.54,5.54,0,0,1-1.69,4.24A6.68,6.68,0,0,1,355,117,6.61,6.61,0,0,1,350.37,115.46Zm6.27-2.73a2.61,2.61,0,0,0,.62-1.84v-6.55a2.63,2.63,0,0,0-.62-1.82,2.05,2.05,0,0,0-1.62-.72,2,2,0,0,0-1.6.7,2.67,2.67,0,0,0-.61,1.84v6.55a2.65,2.65,0,0,0,.61,1.84,2,2,0,0,0,1.6.7A2.1,2.1,0,0,0,356.64,112.73Z"/><path class="cls-14" d="M379.77,91.91a.45.45,0,0,1,.31-.12h3.27a.41.41,0,0,1,.43.43v24.09a.41.41,0,0,1-.43.43h-3.27a.41.41,0,0,1-.43-.43v-.42a.17.17,0,0,0-.07-.15.13.13,0,0,0-.15,0,4.4,4.4,0,0,1-3.2,1.25,4.59,4.59,0,0,1-3.71-1.57,6.34,6.34,0,0,1-1.32-4.21V104a6.27,6.27,0,0,1,1.34-4.24,4.64,4.64,0,0,1,3.69-1.53,5,5,0,0,1,1.67.3,4.17,4.17,0,0,1,1.53,1,.13.13,0,0,0,.15,0,.15.15,0,0,0,.07-.14v-7.2A.45.45,0,0,1,379.77,91.91Zm-.84,21a2.56,2.56,0,0,0,.72-1.48v-7.59a2.56,2.56,0,0,0-.72-1.48,2,2,0,0,0-1.42-.56,2,2,0,0,0-1.6.7,2.67,2.67,0,0,0-.61,1.84v6.59a2.69,2.69,0,0,0,.61,1.84,2,2,0,0,0,1.6.69A2,2,0,0,0,378.93,112.91Z"/><path class="cls-14" d="M397.83,99.88a5.64,5.64,0,0,1,1.74,4.31v12.12a.41.41,0,0,1-.43.43h-3.27a.41.41,0,0,1-.43-.43v-.67a.17.17,0,0,0-.07-.15c-.05,0-.1,0-.15.07a4.49,4.49,0,0,1-3.63,1.47,5.81,5.81,0,0,1-3.58-1.16c-1-.77-1.55-2.18-1.55-4.23s.62-3.66,1.87-4.56a8.51,8.51,0,0,1,5.08-1.35h1.85a.16.16,0,0,0,.18-.18v-.93a3.14,3.14,0,0,0-.64-2.05,2,2,0,0,0-1.61-.77,1.75,1.75,0,0,0-1.25.49,2.11,2.11,0,0,0-.6,1.3.41.41,0,0,1-.46.42h-3.46q-.44,0-.39-.42a5.37,5.37,0,0,1,1.9-3.89,6.52,6.52,0,0,1,4.33-1.46A6.43,6.43,0,0,1,397.83,99.88Zm-3.21,13.05a2.35,2.35,0,0,0,.82-1.89v-2a.16.16,0,0,0-.18-.18h-1.85a2.83,2.83,0,0,0-2,.66,2.39,2.39,0,0,0-.75,1.9,2.21,2.21,0,0,0,.57,1.66,2,2,0,0,0,1.46.55A2.9,2.9,0,0,0,394.62,112.93Z"/><path class="cls-14" d="M421.87,109a.39.39,0,0,1-.3.13h-7.88a.16.16,0,0,0-.18.18v1.6a2.69,2.69,0,0,0,.61,1.82,2,2,0,0,0,1.56.71,2,2,0,0,0,1.41-.52,2.42,2.42,0,0,0,.77-1.33.44.44,0,0,1,.46-.36l3.17.14a.46.46,0,0,1,.31.13.38.38,0,0,1,.09.34,5.56,5.56,0,0,1-1.82,3.83,7.72,7.72,0,0,1-9-.22,5.43,5.43,0,0,1-1.69-4.22V104a5.46,5.46,0,0,1,1.69-4.18,7.49,7.49,0,0,1,9.23,0A5.46,5.46,0,0,1,422,104v4.71A.41.41,0,0,1,421.87,109Zm-7.75-6.5a2.67,2.67,0,0,0-.61,1.82v1.6a.16.16,0,0,0,.18.18h4c.11,0,.17-.06.17-.18v-1.6a2.72,2.72,0,0,0-.6-1.84,2.05,2.05,0,0,0-1.61-.7A1.93,1.93,0,0,0,414.12,102.52Z"/><path class="cls-14" d="M433.13,91.91a.44.44,0,0,1,.3-.12h3.28a.41.41,0,0,1,.43.43v24.09a.41.41,0,0,1-.43.43h-3.28a.44.44,0,0,1-.3-.12.45.45,0,0,1-.12-.31v-.42a.17.17,0,0,0-.07-.15.13.13,0,0,0-.15,0,4.4,4.4,0,0,1-3.2,1.25,4.59,4.59,0,0,1-3.71-1.57,6.34,6.34,0,0,1-1.32-4.21V104a6.27,6.27,0,0,1,1.34-4.24,4.64,4.64,0,0,1,3.69-1.53,5,5,0,0,1,1.67.3,4.17,4.17,0,0,1,1.53,1,.13.13,0,0,0,.15,0,.15.15,0,0,0,.07-.14v-7.2A.45.45,0,0,1,433.13,91.91Zm-.84,21a2.56,2.56,0,0,0,.72-1.48v-7.59a2.56,2.56,0,0,0-.72-1.48,2,2,0,0,0-1.42-.56,2.05,2.05,0,0,0-1.61.7,2.72,2.72,0,0,0-.6,1.84v6.59a2.73,2.73,0,0,0,.6,1.84,2,2,0,0,0,1.61.69A2,2,0,0,0,432.29,112.91Z"/><path class="cls-14" d="M448.78,98.65a.41.41,0,0,1,.3-.12h3.28a.45.45,0,0,1,.31.12.42.42,0,0,1,.12.3v17.36a.41.41,0,0,1-.43.43h-3.28a.41.41,0,0,1-.3-.12.46.46,0,0,1-.13-.31v-.78c0-.07,0-.12-.07-.14s-.09,0-.14.07a3.7,3.7,0,0,1-3.31,1.53,4.8,4.8,0,0,1-3.51-1.3,5.35,5.35,0,0,1-1.34-4V99a.42.42,0,0,1,.12-.3.45.45,0,0,1,.31-.12H444a.41.41,0,0,1,.42.42v11.84q0,2.67,2.07,2.67a1.86,1.86,0,0,0,1.6-.77,3.4,3.4,0,0,0,.57-2.08V99A.43.43,0,0,1,448.78,98.65Z"/><path class="cls-14" d="M457.44,115.46a5.5,5.5,0,0,1-1.69-4.24V104a5.46,5.46,0,0,1,1.69-4.18,6.48,6.48,0,0,1,4.62-1.59,6.66,6.66,0,0,1,4.63,1.55,5.1,5.1,0,0,1,1.71,3.94v.5a.41.41,0,0,1-.12.3.42.42,0,0,1-.31.13l-3.28.14a.37.37,0,0,1-.42-.43V104a2.14,2.14,0,0,0-.63-1.54,2.08,2.08,0,0,0-1.58-.67,1.94,1.94,0,0,0-1.57.72,2.67,2.67,0,0,0-.61,1.82v6.59a2.69,2.69,0,0,0,.61,1.82,2,2,0,0,0,1.57.71,2.07,2.07,0,0,0,1.58-.66,2.21,2.21,0,0,0,.63-1.58v-.36a.41.41,0,0,1,.12-.3.38.38,0,0,1,.3-.13l3.28,0a.45.45,0,0,1,.31.12.44.44,0,0,1,.12.3v.65a5,5,0,0,1-1.71,4,6.74,6.74,0,0,1-4.63,1.52A6.56,6.56,0,0,1,457.44,115.46Z"/><path class="cls-14" d="M481.84,99.88a5.65,5.65,0,0,1,1.75,4.31v12.12a.46.46,0,0,1-.13.31.41.41,0,0,1-.3.12h-3.28a.41.41,0,0,1-.3-.12.42.42,0,0,1-.13-.31v-.67a.15.15,0,0,0-.07-.15c-.05,0-.1,0-.14.07A4.53,4.53,0,0,1,475.6,117a5.83,5.83,0,0,1-3.58-1.16c-1-.77-1.55-2.18-1.55-4.23s.62-3.66,1.87-4.56a8.53,8.53,0,0,1,5.08-1.35h1.85a.16.16,0,0,0,.18-.18v-.93a3.09,3.09,0,0,0-.64-2.05,2,2,0,0,0-1.6-.77,1.74,1.74,0,0,0-1.25.49,2.07,2.07,0,0,0-.61,1.3.41.41,0,0,1-.46.42h-3.46c-.28,0-.42-.14-.39-.42A5.38,5.38,0,0,1,473,99.7a7.16,7.16,0,0,1,8.89.18Zm-3.21,13.05a2.32,2.32,0,0,0,.82-1.89v-2a.16.16,0,0,0-.18-.18h-1.85a2.85,2.85,0,0,0-2,.66,2.39,2.39,0,0,0-.75,1.9,2.21,2.21,0,0,0,.57,1.66,2,2,0,0,0,1.46.55A2.9,2.9,0,0,0,478.63,112.93Z"/><path class="cls-14" d="M498.79,104.53a.42.42,0,0,1-.31.13l-3.28.14a.37.37,0,0,1-.42-.43V104a2.14,2.14,0,0,0-.63-1.54,2.08,2.08,0,0,0-1.58-.67,2,2,0,0,0-1.57.72,2.67,2.67,0,0,0-.61,1.82v6.59a2.69,2.69,0,0,0,.61,1.82,2,2,0,0,0,1.57.71,2.07,2.07,0,0,0,1.58-.66,2.21,2.21,0,0,0,.63-1.58v-.36a.41.41,0,0,1,.12-.3.39.39,0,0,1,.3-.13l3.28,0a.45.45,0,0,1,.31.12.44.44,0,0,1,.12.3v.65a5.11,5.11,0,0,1-1.25,3.52,5.69,5.69,0,0,1-3.45,1.82c-.15.05-.17.12-.07.22a4.67,4.67,0,0,1,1.31,3.17,2.86,2.86,0,0,1-.87,2.37,3.37,3.37,0,0,1-2.16.69,5.75,5.75,0,0,1-1.49-.21.42.42,0,0,1-.29-.5l.18-1.25a.36.36,0,0,1,.5-.32,1.14,1.14,0,0,0,.87-.19,1.43,1.43,0,0,0,.52-.84,1.19,1.19,0,0,0,0-.32,4,4,0,0,0-1.54-2.71l-.18-.11a5.72,5.72,0,0,1-3.51-1.89,5.63,5.63,0,0,1-1.26-3.77V104A5.46,5.46,0,0,1,488,99.83a6.48,6.48,0,0,1,4.62-1.59,6.66,6.66,0,0,1,4.63,1.55,5.1,5.1,0,0,1,1.71,3.94v.5A.41.41,0,0,1,498.79,104.53Z"/><path class="cls-14" d="M512.35,99.88a5.65,5.65,0,0,1,1.75,4.31v12.12a.46.46,0,0,1-.13.31.41.41,0,0,1-.3.12h-3.28a.41.41,0,0,1-.3-.12.42.42,0,0,1-.13-.31v-.67a.15.15,0,0,0-.07-.15c-.05,0-.09,0-.14.07a4.51,4.51,0,0,1-3.64,1.47,5.83,5.83,0,0,1-3.58-1.16c-1-.77-1.55-2.18-1.55-4.23s.62-3.66,1.87-4.56a8.53,8.53,0,0,1,5.08-1.35h1.85a.16.16,0,0,0,.18-.18v-.93a3.09,3.09,0,0,0-.64-2.05,2,2,0,0,0-1.6-.77,1.74,1.74,0,0,0-1.25.49,2.12,2.12,0,0,0-.61,1.3.41.41,0,0,1-.46.42h-3.46a.34.34,0,0,1-.39-.42,5.38,5.38,0,0,1,1.91-3.89,7.16,7.16,0,0,1,8.89.18Zm-3.28-4.47a7.09,7.09,0,0,1-1-.52c-.17-.09-.35-.2-.54-.32a3.17,3.17,0,0,0-.5-.27,1.28,1.28,0,0,0-.5-.09,1.6,1.6,0,0,0-1.35.82.41.41,0,0,1-.61.15l-1.14-.82a.44.44,0,0,1-.18-.57,4.11,4.11,0,0,1,1.27-1.7,2.8,2.8,0,0,1,1.69-.55,2.72,2.72,0,0,1,1.07.21,9.37,9.37,0,0,1,1.14.61,4.19,4.19,0,0,1,.43.27,3,3,0,0,0,.55.3,1.55,1.55,0,0,0,.56.11,1.52,1.52,0,0,0,1.35-.79q.21-.42.57-.18l1.14.79a.38.38,0,0,1,.18.36,1,1,0,0,1-.14.46,3.84,3.84,0,0,1-1.45,1.44,3.43,3.43,0,0,1-1.62.45A2.69,2.69,0,0,1,509.07,95.41Zm.07,17.52A2.32,2.32,0,0,0,510,111v-2a.16.16,0,0,0-.18-.18h-1.85a2.85,2.85,0,0,0-2,.66,2.39,2.39,0,0,0-.75,1.9,2.21,2.21,0,0,0,.57,1.66,2,2,0,0,0,1.46.55A2.88,2.88,0,0,0,509.14,112.93Z"/><path class="cls-14" d="M518.43,115.46a5.51,5.51,0,0,1-1.7-4.24v-7.17a5.48,5.48,0,0,1,1.71-4.22,7.61,7.61,0,0,1,9.31,0,5.48,5.48,0,0,1,1.71,4.22v7.17a5.54,5.54,0,0,1-1.69,4.24,6.68,6.68,0,0,1-4.69,1.57A6.59,6.59,0,0,1,518.43,115.46Zm6.27-2.73a2.61,2.61,0,0,0,.62-1.84v-6.55a2.63,2.63,0,0,0-.62-1.82,2.19,2.19,0,0,0-3.23,0,2.72,2.72,0,0,0-.6,1.84v6.55a2.7,2.7,0,0,0,.6,1.84,2.05,2.05,0,0,0,1.61.7A2.1,2.1,0,0,0,524.7,112.73Z"/><path class="cls-14" d="M550.79,99.77a6.27,6.27,0,0,1,1.34,4.24v7.24a6.34,6.34,0,0,1-1.32,4.21A4.61,4.61,0,0,1,547.1,117a4.44,4.44,0,0,1-3.21-1.25.11.11,0,0,0-.14,0,.15.15,0,0,0-.07.15v.42a.41.41,0,0,1-.43.43H540a.41.41,0,0,1-.3-.12.45.45,0,0,1-.12-.31V92.22a.45.45,0,0,1,.12-.31.41.41,0,0,1,.3-.12h3.28a.41.41,0,0,1,.43.43v7.2a.1.1,0,0,0,.09.12c.06,0,.12,0,.2-.12a4.22,4.22,0,0,1,1.51-.89,5,5,0,0,1,1.62-.29A4.64,4.64,0,0,1,550.79,99.77Zm-3.37,2.73a2,2,0,0,0-1.6-.7,2,2,0,0,0-1.43.56,2.55,2.55,0,0,0-.71,1.48v7.59a2.55,2.55,0,0,0,.71,1.48,2,2,0,0,0,1.43.55,2,2,0,0,0,1.6-.69,2.69,2.69,0,0,0,.61-1.84v-6.59A2.67,2.67,0,0,0,547.42,102.5Z"/><path class="cls-14" d="M565.89,99.88a5.64,5.64,0,0,1,1.74,4.31v12.12a.45.45,0,0,1-.12.31.42.42,0,0,1-.3.12h-3.28a.41.41,0,0,1-.43-.43v-.67a.17.17,0,0,0-.07-.15s-.1,0-.15.07a4.49,4.49,0,0,1-3.63,1.47,5.81,5.81,0,0,1-3.58-1.16c-1-.77-1.55-2.18-1.55-4.23s.62-3.66,1.87-4.56a8.53,8.53,0,0,1,5.08-1.35h1.85a.16.16,0,0,0,.18-.18v-.93a3.14,3.14,0,0,0-.64-2.05,2,2,0,0,0-1.61-.77,1.71,1.71,0,0,0-1.24.49,2.07,2.07,0,0,0-.61,1.3.41.41,0,0,1-.46.42h-3.46q-.43,0-.39-.42A5.4,5.4,0,0,1,557,99.7a6.52,6.52,0,0,1,4.33-1.46A6.43,6.43,0,0,1,565.89,99.88Zm-3.21,13.05a2.35,2.35,0,0,0,.82-1.89v-2a.16.16,0,0,0-.18-.18h-1.85a2.85,2.85,0,0,0-2,.66,2.39,2.39,0,0,0-.75,1.9,2.21,2.21,0,0,0,.57,1.66,2,2,0,0,0,1.46.55A2.9,2.9,0,0,0,562.68,112.93ZM559.22,96.1c-.07-.09-.06-.21,0-.35l2.1-3.68a.53.53,0,0,1,.53-.28h2.57c.19,0,.31,0,.36.16a.41.41,0,0,1-.07.37L562.11,96a.59.59,0,0,1-.5.24h-2A.4.4,0,0,1,559.22,96.1Z"/><path class="cls-14" d="M571.66,115.6a4.46,4.46,0,0,1-1.67-3.67v-.25a.41.41,0,0,1,.12-.3.38.38,0,0,1,.3-.13h3.07a.38.38,0,0,1,.3.13.42.42,0,0,1,.13.3v.18a1.8,1.8,0,0,0,.66,1.42,2.39,2.39,0,0,0,1.62.57,2,2,0,0,0,1.46-.53,1.83,1.83,0,0,0,.53-1.36,1.64,1.64,0,0,0-.46-1.19,3.42,3.42,0,0,0-1-.73c-.35-.17-1-.44-1.92-.82a10,10,0,0,1-3.33-2,4.66,4.66,0,0,1-1.31-3.6,4.94,4.94,0,0,1,1.59-3.9,6.24,6.24,0,0,1,4.3-1.41,6.31,6.31,0,0,1,4.4,1.48,5.13,5.13,0,0,1,1.62,4,.38.38,0,0,1-.13.3.41.41,0,0,1-.3.12h-3a.45.45,0,0,1-.31-.12.41.41,0,0,1-.12-.3v-.22a1.9,1.9,0,0,0-.59-1.42,2,2,0,0,0-1.48-.57,1.94,1.94,0,0,0-1.48.58,2,2,0,0,0-.55,1.41,1.6,1.6,0,0,0,.43,1.14,3.06,3.06,0,0,0,1,.73c.36.18,1,.45,1.78.8a21.61,21.61,0,0,1,2.52,1.2,5.65,5.65,0,0,1,1.78,1.68,4.54,4.54,0,0,1,.76,2.69,4.61,4.61,0,0,1-1.67,3.77,6.87,6.87,0,0,1-4.53,1.39A7,7,0,0,1,571.66,115.6Z"/><path class="cls-14" d="M585.1,95.32a2.57,2.57,0,0,1,3.62-3.64,2.51,2.51,0,0,1,.69,1.82,2.49,2.49,0,0,1-.71,1.82,2.44,2.44,0,0,1-1.78.71A2.47,2.47,0,0,1,585.1,95.32Zm-.09,21.3a.45.45,0,0,1-.12-.31V99a.42.42,0,0,1,.12-.3.41.41,0,0,1,.3-.12h3.28a.41.41,0,0,1,.3.12.39.39,0,0,1,.13.3v17.36a.42.42,0,0,1-.13.31.41.41,0,0,1-.3.12h-3.28A.41.41,0,0,1,585,116.62Z"/><path class="cls-14" d="M593.81,115.46a5.5,5.5,0,0,1-1.69-4.24V104a5.46,5.46,0,0,1,1.69-4.18,6.48,6.48,0,0,1,4.62-1.59,6.64,6.64,0,0,1,4.63,1.55,5.1,5.1,0,0,1,1.71,3.94v.5a.41.41,0,0,1-.12.3.38.38,0,0,1-.3.13l-3.28.14a.38.38,0,0,1-.43-.43V104a2.17,2.17,0,0,0-.62-1.54,2.11,2.11,0,0,0-1.59-.67,2,2,0,0,0-1.57.72,2.72,2.72,0,0,0-.6,1.82v6.59a2.73,2.73,0,0,0,.6,1.82,2,2,0,0,0,1.57.71,2.1,2.1,0,0,0,1.59-.66,2.25,2.25,0,0,0,.62-1.58v-.36a.41.41,0,0,1,.12-.3.42.42,0,0,1,.31-.13l3.28,0a.41.41,0,0,1,.3.12.44.44,0,0,1,.12.3v.65a5,5,0,0,1-1.71,4,6.73,6.73,0,0,1-4.63,1.52A6.56,6.56,0,0,1,593.81,115.46Z"/><path class="cls-14" d="M618.21,99.88a5.62,5.62,0,0,1,1.75,4.31v12.12a.42.42,0,0,1-.13.31.41.41,0,0,1-.3.12h-3.28a.41.41,0,0,1-.3-.12.46.46,0,0,1-.13-.31v-.67a.15.15,0,0,0-.07-.15s-.09,0-.14.07A4.5,4.5,0,0,1,612,117a5.86,5.86,0,0,1-3.58-1.16c-1-.77-1.55-2.18-1.55-4.23s.63-3.66,1.87-4.56a8.53,8.53,0,0,1,5.08-1.35h1.86c.11,0,.17-.06.17-.18v-.93a3.09,3.09,0,0,0-.64-2.05,2,2,0,0,0-1.6-.77,1.74,1.74,0,0,0-1.25.49,2.18,2.18,0,0,0-.61,1.3.41.41,0,0,1-.46.42H607.8a.34.34,0,0,1-.39-.42,5.41,5.41,0,0,1,1.91-3.89,6.48,6.48,0,0,1,4.33-1.46A6.39,6.39,0,0,1,618.21,99.88ZM615,112.93a2.32,2.32,0,0,0,.82-1.89v-2c0-.12-.06-.18-.17-.18h-1.86a2.85,2.85,0,0,0-2,.66,2.39,2.39,0,0,0-.75,1.9,2.21,2.21,0,0,0,.57,1.66,2,2,0,0,0,1.46.55A2.86,2.86,0,0,0,615,112.93Z"/><path class="cls-14" d="M624,104.16a2.53,2.53,0,0,1,1.82-4.35,2.41,2.41,0,0,1,1.8.71,2.52,2.52,0,0,1,.7,1.82,2.46,2.46,0,0,1-.72,1.82,2.43,2.43,0,0,1-1.78.71A2.49,2.49,0,0,1,624,104.16Zm0,11.8a2.53,2.53,0,0,1,1.82-4.35,2.41,2.41,0,0,1,1.8.71,2.52,2.52,0,0,1,.7,1.82,2.46,2.46,0,0,1-.72,1.82,2.43,2.43,0,0,1-1.78.71A2.49,2.49,0,0,1,624,116Z"/><path class="cls-14" d="M279.13,156.72l-.24-3.28a.1.1,0,0,0-.11-.11h-4.66a.16.16,0,0,0-.09,0,.12.12,0,0,0,0,.08l-1.06,3.28a.3.3,0,0,1-.31.24h-1.3a.23.23,0,0,1-.19-.08.25.25,0,0,1,0-.21l6.06-18a.28.28,0,0,1,.3-.24h1.56a.21.21,0,0,1,.23.24l1.7,18c0,.19-.09.29-.27.29h-1.32C279.21,157,279.13,156.88,279.13,156.72Zm-4.53-4.92h4c.05,0,.08,0,.08-.11L278,141.3c0-.06,0-.08,0-.08s0,0-.07.08l-3.34,10.39C274.52,151.76,274.55,151.8,274.6,151.8Z"/><path class="cls-14" d="M283.57,156.3a2.69,2.69,0,0,1-.93-2.15,3.07,3.07,0,0,1,0-.5l0-.18a.24.24,0,0,1,.08-.19.29.29,0,0,1,.21-.08h1.22c.15,0,.23.09.23.27l0,.16a1.69,1.69,0,0,0,.42,1.42,1.94,1.94,0,0,0,1.51.59A2.26,2.26,0,0,0,288,155a2.31,2.31,0,0,0,.66-1.68,1.57,1.57,0,0,0-.32-1,2.5,2.5,0,0,0-.71-.64c-.27-.15-.7-.36-1.3-.64a9.64,9.64,0,0,1-1.42-.75,3.34,3.34,0,0,1-1-1,2.89,2.89,0,0,1-.41-1.59,4.4,4.4,0,0,1,0-.58,4,4,0,0,1,1.35-2.67,4.19,4.19,0,0,1,2.86-1,3.4,3.4,0,0,1,2.47.85,3,3,0,0,1,.89,2.27,3.88,3.88,0,0,1,0,.56v.08a.28.28,0,0,1-.29.26h-1.19c-.18,0-.25-.09-.21-.26V147a1.27,1.27,0,0,0,0-.32,1.68,1.68,0,0,0-.51-1.26,1.86,1.86,0,0,0-1.35-.49,2.11,2.11,0,0,0-1.52.6,2.51,2.51,0,0,0-.75,1.47,1.51,1.51,0,0,0,.2,1.07,2.39,2.39,0,0,0,.72.73,10.13,10.13,0,0,0,1.3.66,11.9,11.9,0,0,1,1.51.8,3.62,3.62,0,0,1,1,1,2.79,2.79,0,0,1,.43,1.6,3.91,3.91,0,0,1-1.21,3,4.43,4.43,0,0,1-3.15,1.14A3.82,3.82,0,0,1,283.57,156.3Z"/><path class="cls-14" d="M300.91,144.27a3.49,3.49,0,0,1,.84,2.45c0,.14,0,.37-.05.69l-.72,5.71a4.74,4.74,0,0,1-1.32,2.95,3.77,3.77,0,0,1-2.75,1.1,3.08,3.08,0,0,1-1.31-.28,2.3,2.3,0,0,1-1-.86s-.07,0-.09,0,0,0,0,.08l-.72,5.74a.28.28,0,0,1-.29.26h-1.32a.22.22,0,0,1-.18-.08.19.19,0,0,1,0-.18l2.22-18a.22.22,0,0,1,.08-.19.25.25,0,0,1,.18-.08h1.33q.25,0,.21.27l-.06.6s0,.06,0,.07a.11.11,0,0,0,.11,0,3.32,3.32,0,0,1,1.21-.83,3.66,3.66,0,0,1,1.41-.28A2.91,2.91,0,0,1,300.91,144.27Zm-1,2.85a2.22,2.22,0,0,0-.53-1.54,1.84,1.84,0,0,0-1.43-.58,2.2,2.2,0,0,0-1.64.7,3,3,0,0,0-.82,1.84l-.66,5.45a2.64,2.64,0,0,0,0,.45,2.23,2.23,0,0,0,.5,1.52,1.76,1.76,0,0,0,1.38.57,2.31,2.31,0,0,0,1.69-.7,3,3,0,0,0,.85-1.84l.66-5.45A2.42,2.42,0,0,0,299.9,147.12Z"/><path class="cls-14" d="M311.59,151h-5.85a.16.16,0,0,0-.09,0s0,0,0,.08l-.24,1.93a3.87,3.87,0,0,0,0,.42,2.13,2.13,0,0,0,.53,1.51,1.75,1.75,0,0,0,1.37.58,2.23,2.23,0,0,0,1.46-.52,2.88,2.88,0,0,0,.92-1.33.39.39,0,0,1,.32-.24l1.27.05a.21.21,0,0,1,.17.08.2.2,0,0,1,0,.21,4.36,4.36,0,0,1-1.52,2.48,4.44,4.44,0,0,1-2.85.91,3.55,3.55,0,0,1-2.58-.92,3.33,3.33,0,0,1-.94-2.49,5,5,0,0,1,0-.64l.69-5.71a4.51,4.51,0,0,1,1.45-2.93,4.4,4.4,0,0,1,3.07-1.12,3.6,3.6,0,0,1,2.62.93,3.3,3.3,0,0,1,.95,2.48c0,.14,0,.36-.05.64l-.4,3.31A.28.28,0,0,1,311.59,151Zm-4.71-5.28a3,3,0,0,0-.82,1.84l-.24,1.77a.1.1,0,0,0,.11.11h4.21c.07,0,.1,0,.1-.11l.24-1.77a2.42,2.42,0,0,0,0-.42,2.22,2.22,0,0,0-.53-1.54,1.84,1.84,0,0,0-1.43-.58A2.25,2.25,0,0,0,306.88,145.7Z"/><path class="cls-14" d="M314.91,156.25a3.37,3.37,0,0,1-.94-2.49,5,5,0,0,1,0-.64l.69-5.71a4.51,4.51,0,0,1,1.45-2.93,4.4,4.4,0,0,1,3.07-1.12,3.69,3.69,0,0,1,2.65.93,3,3,0,0,1,1,2.3,2.64,2.64,0,0,1,0,.45l-.05.26a.29.29,0,0,1-.08.19.27.27,0,0,1-.19.08l-1.32.05q-.24,0-.24-.27l0-.18a1.19,1.19,0,0,0,0-.29,1.82,1.82,0,0,0-.54-1.34A2,2,0,0,0,319,145a2.25,2.25,0,0,0-1.67.7,3,3,0,0,0-.82,1.84l-.69,5.45c0,.11,0,.25,0,.42a2.17,2.17,0,0,0,.53,1.54,1.75,1.75,0,0,0,1.37.58,2.42,2.42,0,0,0,1.67-.65,2.52,2.52,0,0,0,.85-1.52v-.18a.28.28,0,0,1,.29-.27l1.32,0a.19.19,0,0,1,.17.08.17.17,0,0,1,0,.18l0,.29a4,4,0,0,1-1.46,2.64,4.64,4.64,0,0,1-3.07,1A3.55,3.55,0,0,1,314.91,156.25Z"/><path class="cls-14" d="M330,144.89a.25.25,0,0,1-.21.08h-1.93a.16.16,0,0,0-.13.11l-1,8.1a5.32,5.32,0,0,0,0,.66,1.2,1.2,0,0,0,1.45,1.45h.27a.23.23,0,0,1,.17.08.22.22,0,0,1,0,.19l-.13,1.13a.29.29,0,0,1-.3.27h-.63a3.39,3.39,0,0,1-2.05-.52,2.23,2.23,0,0,1-.7-1.92c0-.14,0-.4,0-.79l1.06-8.65s0,0,0-.07a.1.1,0,0,0-.08,0h-1c-.17,0-.24-.08-.21-.26l.11-.87a.26.26,0,0,1,.08-.19.29.29,0,0,1,.21-.08h1a.16.16,0,0,0,.09,0,.07.07,0,0,0,0-.07l.37-3a.27.27,0,0,1,.29-.26h1.27c.16,0,.24.09.24.26l-.37,3c0,.07,0,.1.08.1h2q.25,0,.21.27l-.11.87A.22.22,0,0,1,330,144.89Z"/><path class="cls-14" d="M332,156.25a3.33,3.33,0,0,1-.94-2.49,5.47,5.47,0,0,1,0-.64l.69-5.69a4.54,4.54,0,0,1,1.46-2.93,4.39,4.39,0,0,1,3.09-1.14,3.55,3.55,0,0,1,2.62.94,3.34,3.34,0,0,1,.95,2.5c0,.28,0,.49,0,.63l-.72,5.69a4.38,4.38,0,0,1-4.55,4A3.56,3.56,0,0,1,332,156.25Zm4.52-1.43a3,3,0,0,0,.83-1.83l.66-5.45a2.42,2.42,0,0,0,0-.42,2.17,2.17,0,0,0-.53-1.54,1.79,1.79,0,0,0-1.4-.58,2.29,2.29,0,0,0-1.68.7,3,3,0,0,0-.83,1.84l-.69,5.45a2.42,2.42,0,0,0,0,.42,2.13,2.13,0,0,0,.53,1.52,1.82,1.82,0,0,0,1.4.57A2.39,2.39,0,0,0,336.53,154.82Z"/><path class="cls-14" d="M342.34,156.3a2.69,2.69,0,0,1-.93-2.15,3.07,3.07,0,0,1,0-.5l0-.18a.27.27,0,0,1,.08-.19.33.33,0,0,1,.22-.08H343q.24,0,.24.27l0,.16a1.67,1.67,0,0,0,.43,1.42,1.92,1.92,0,0,0,1.51.59,2.22,2.22,0,0,0,1.66-.68,2.31,2.31,0,0,0,.66-1.68,1.56,1.56,0,0,0-.31-1,2.41,2.41,0,0,0-.72-.64c-.26-.15-.69-.36-1.29-.64a9.64,9.64,0,0,1-1.42-.75,3.23,3.23,0,0,1-1-1,2.89,2.89,0,0,1-.41-1.59,4.4,4.4,0,0,1,0-.58,4,4,0,0,1,1.35-2.67,4.19,4.19,0,0,1,2.86-1,3.42,3.42,0,0,1,2.47.85,3,3,0,0,1,.89,2.27,3.88,3.88,0,0,1,0,.56v.08c0,.17-.13.26-.29.26H348.4c-.18,0-.25-.09-.22-.26V147a1.27,1.27,0,0,0,0-.32,1.71,1.71,0,0,0-.5-1.26,1.9,1.9,0,0,0-1.35-.49,2.1,2.1,0,0,0-1.52.6,2.47,2.47,0,0,0-.76,1.47,1.62,1.62,0,0,0,.2,1.07,2.54,2.54,0,0,0,.73.73,10.13,10.13,0,0,0,1.3.66,11.69,11.69,0,0,1,1.5.8,3.62,3.62,0,0,1,1,1,2.79,2.79,0,0,1,.44,1.6,3.92,3.92,0,0,1-1.22,3,4.42,4.42,0,0,1-3.15,1.14A3.81,3.81,0,0,1,342.34,156.3Z"/><path class="cls-14" d="M362.26,144.89a.25.25,0,0,1-.21.08h-1.93c-.06,0-.1,0-.13.11l-1,8.1a6,6,0,0,0-.06.66,1.5,1.5,0,0,0,.36,1.16,1.54,1.54,0,0,0,1.1.29h.26a.25.25,0,0,1,.18.08.26.26,0,0,1,0,.19l-.14,1.13a.28.28,0,0,1-.29.27h-.63a3.37,3.37,0,0,1-2.05-.52,2.23,2.23,0,0,1-.7-1.92c0-.14,0-.4.05-.79l1.06-8.65a.08.08,0,0,0,0-.07.12.12,0,0,0-.08,0h-1c-.17,0-.25-.08-.21-.26l.11-.87a.22.22,0,0,1,.08-.19.29.29,0,0,1,.21-.08h1a.16.16,0,0,0,.09,0,.07.07,0,0,0,0-.07l.37-3a.27.27,0,0,1,.29-.26h1.27c.16,0,.24.09.24.26l-.37,3c0,.07,0,.1.08.1h2c.18,0,.25.09.22.27l-.11.87A.25.25,0,0,1,362.26,144.89Z"/><path class="cls-14" d="M371.36,151h-5.85l-.09,0a.09.09,0,0,0,0,.08l-.24,1.93a3.87,3.87,0,0,0,0,.42,2.13,2.13,0,0,0,.53,1.51,1.75,1.75,0,0,0,1.37.58,2.21,2.21,0,0,0,1.46-.52,2.88,2.88,0,0,0,.92-1.33.39.39,0,0,1,.32-.24l1.27.05a.21.21,0,0,1,.17.08.2.2,0,0,1,0,.21,4.36,4.36,0,0,1-1.52,2.48,4.44,4.44,0,0,1-2.85.91,3.55,3.55,0,0,1-2.58-.92,3.37,3.37,0,0,1-.94-2.49,5,5,0,0,1,0-.64l.69-5.71a4.51,4.51,0,0,1,1.45-2.93,4.4,4.4,0,0,1,3.07-1.12,3.58,3.58,0,0,1,2.62.93,3.26,3.26,0,0,1,1,2.48,4.61,4.61,0,0,1-.05.64l-.4,3.31A.28.28,0,0,1,371.36,151Zm-4.71-5.28a3,3,0,0,0-.82,1.84l-.24,1.77a.1.1,0,0,0,.11.11h4.21c.07,0,.1,0,.1-.11l.24-1.77a2.42,2.42,0,0,0,0-.42,2.22,2.22,0,0,0-.53-1.54,1.83,1.83,0,0,0-1.43-.58A2.25,2.25,0,0,0,366.65,145.7Z"/><path class="cls-14" d="M374.68,156.25a3.37,3.37,0,0,1-.94-2.49,5,5,0,0,1,0-.64l.69-5.69a4.58,4.58,0,0,1,1.45-2.93,4.43,4.43,0,0,1,3.1-1.14,3.56,3.56,0,0,1,2.62.94,3.38,3.38,0,0,1,.95,2.5c0,.28,0,.49,0,.63l-.72,5.69a4.38,4.38,0,0,1-4.55,4A3.6,3.6,0,0,1,374.68,156.25Zm4.53-1.43A3,3,0,0,0,380,153l.66-5.45a2.42,2.42,0,0,0,0-.42,2.22,2.22,0,0,0-.53-1.54,1.79,1.79,0,0,0-1.4-.58,2.29,2.29,0,0,0-1.68.7,3,3,0,0,0-.83,1.84L375.6,153a2.42,2.42,0,0,0,0,.42,2.13,2.13,0,0,0,.53,1.52,1.82,1.82,0,0,0,1.4.57A2.39,2.39,0,0,0,379.21,154.82Zm-1.1-13.09c0-.06,0-.13.05-.22l2-2.89a.4.4,0,0,1,.32-.18h1.06c.1,0,.17,0,.18.09a.27.27,0,0,1-.08.23l-2.14,2.88a.52.52,0,0,1-.34.18h-.82A.21.21,0,0,1,378.11,141.73Z"/><path class="cls-14" d="M391.34,143.73a.27.27,0,0,1,.08.34l-.48,1.38a.22.22,0,0,1-.31.16,1.53,1.53,0,0,0-.74-.16,1.44,1.44,0,0,0-.35,0,2.15,2.15,0,0,0-1.61,1,4.58,4.58,0,0,0-.88,2.29l-1,7.93a.28.28,0,0,1-.29.27h-1.32a.21.21,0,0,1-.17-.08.18.18,0,0,1,0-.19l1.59-12.85a.22.22,0,0,1,.08-.19.29.29,0,0,1,.21-.08h1.29q.24,0,.24.27l-.21,1.58c0,.06,0,.08,0,.08s.05,0,.07-.05a3.05,3.05,0,0,1,2.7-2A2.08,2.08,0,0,1,391.34,143.73Z"/><path class="cls-14" d="M392,156.69l1.56-12.85a.32.32,0,0,1,.1-.19.29.29,0,0,1,.19-.08h1.32q.27,0,.21.27l-1.56,12.85a.28.28,0,0,1-.29.27h-1.32Q391.92,157,392,156.69Zm1.82-16a1.39,1.39,0,0,1-.29-1.06,1.8,1.8,0,0,1,.56-1.07,1.56,1.56,0,0,1,1.08-.41,1.18,1.18,0,0,1,1.24,1.25,1.72,1.72,0,0,1-.46,1.23,1.54,1.54,0,0,1-1.15.49A1.18,1.18,0,0,1,393.8,140.71Z"/><path class="cls-14" d="M398.15,156.25a3.37,3.37,0,0,1-.94-2.49,5,5,0,0,1,0-.64l.69-5.71a4.51,4.51,0,0,1,1.45-2.93,4.42,4.42,0,0,1,3.07-1.12,3.69,3.69,0,0,1,2.65.93,3,3,0,0,1,1,2.3,2.64,2.64,0,0,1,0,.45l-.05.26a.29.29,0,0,1-.08.19.27.27,0,0,1-.19.08l-1.32.05q-.24,0-.24-.27l0-.18a1.12,1.12,0,0,0,0-.29,1.83,1.83,0,0,0-.55-1.34,2,2,0,0,0-1.44-.54,2.25,2.25,0,0,0-1.67.7,3.11,3.11,0,0,0-.82,1.84l-.68,5.45a2.42,2.42,0,0,0,0,.42,2.22,2.22,0,0,0,.53,1.54,1.75,1.75,0,0,0,1.37.58,2.4,2.4,0,0,0,1.67-.65,2.52,2.52,0,0,0,.85-1.52v-.18a.28.28,0,0,1,.29-.27l1.32,0a.19.19,0,0,1,.17.08.17.17,0,0,1,0,.18l0,.29a4,4,0,0,1-1.46,2.64,4.64,4.64,0,0,1-3.07,1A3.55,3.55,0,0,1,398.15,156.25Z"/><path class="cls-14" d="M408.47,156.25a3.37,3.37,0,0,1-.94-2.49,5,5,0,0,1,0-.64l.69-5.69a4.53,4.53,0,0,1,1.45-2.93,4.41,4.41,0,0,1,3.1-1.14,3.56,3.56,0,0,1,2.62.94,3.38,3.38,0,0,1,.95,2.5,4.85,4.85,0,0,1,0,.63l-.71,5.69a4.38,4.38,0,0,1-4.55,4A3.6,3.6,0,0,1,408.47,156.25Zm4.53-1.43a3,3,0,0,0,.83-1.83l.66-5.45a2.42,2.42,0,0,0,0-.42,2.22,2.22,0,0,0-.53-1.54,1.79,1.79,0,0,0-1.4-.58,2.26,2.26,0,0,0-1.68.7,3,3,0,0,0-.84,1.84l-.68,5.45a2.42,2.42,0,0,0,0,.42,2.13,2.13,0,0,0,.53,1.52,1.82,1.82,0,0,0,1.4.57A2.39,2.39,0,0,0,413,154.82Z"/><path class="cls-14" d="M418.81,156.3a2.69,2.69,0,0,1-.93-2.15,3.07,3.07,0,0,1,0-.5l0-.18a.27.27,0,0,1,.08-.19.3.3,0,0,1,.21-.08h1.22q.24,0,.24.27l0,.16a1.67,1.67,0,0,0,.43,1.42,1.91,1.91,0,0,0,1.5.59,2.25,2.25,0,0,0,1.67-.68,2.31,2.31,0,0,0,.66-1.68,1.51,1.51,0,0,0-.32-1,2.5,2.5,0,0,0-.71-.64c-.26-.15-.7-.36-1.3-.64a10,10,0,0,1-1.41-.75,3.23,3.23,0,0,1-1-1,2.89,2.89,0,0,1-.41-1.59,4.4,4.4,0,0,1,0-.58,4,4,0,0,1,1.35-2.67,4.17,4.17,0,0,1,2.85-1,3.43,3.43,0,0,1,2.48.85,3,3,0,0,1,.88,2.27c0,.25,0,.43,0,.56v.08a.29.29,0,0,1-.29.26h-1.2c-.17,0-.24-.09-.21-.26V147a1.27,1.27,0,0,0,0-.32,1.71,1.71,0,0,0-.5-1.26,1.9,1.9,0,0,0-1.35-.49,2.1,2.1,0,0,0-1.52.6,2.47,2.47,0,0,0-.76,1.47,1.62,1.62,0,0,0,.2,1.07,2.54,2.54,0,0,0,.73.73,10.59,10.59,0,0,0,1.29.66,11.9,11.9,0,0,1,1.51.8,3.62,3.62,0,0,1,1,1,2.79,2.79,0,0,1,.44,1.6,3.92,3.92,0,0,1-1.22,3,4.42,4.42,0,0,1-3.15,1.14A3.79,3.79,0,0,1,418.81,156.3Z"/><path class="cls-14" d="M441,151h-5.85a.12.12,0,0,0-.09,0s0,0,0,.08l-.24,1.93a2.12,2.12,0,0,0,0,.42,2.17,2.17,0,0,0,.53,1.51,1.78,1.78,0,0,0,1.38.58,2.19,2.19,0,0,0,1.45-.52,2.83,2.83,0,0,0,.93-1.33c.09-.16.19-.24.32-.24l1.27.05a.21.21,0,0,1,.17.08.2.2,0,0,1,0,.21,4.26,4.26,0,0,1-1.52,2.48,4.42,4.42,0,0,1-2.84.91,3.52,3.52,0,0,1-2.58-.92,3.33,3.33,0,0,1-.94-2.49c0-.28,0-.5,0-.64l.69-5.71a4.52,4.52,0,0,1,1.46-2.93,4.4,4.4,0,0,1,3.07-1.12,3.6,3.6,0,0,1,2.62.93,3.3,3.3,0,0,1,1,2.48c0,.14,0,.36-.05.64l-.4,3.31C441.23,150.89,441.14,151,441,151Zm-4.71-5.28a3,3,0,0,0-.82,1.84l-.24,1.77a.1.1,0,0,0,.11.11h4.2a.1.1,0,0,0,.11-.11l.24-1.77c0-.11,0-.25,0-.42a2.17,2.17,0,0,0-.53-1.54,1.83,1.83,0,0,0-1.43-.58A2.23,2.23,0,0,0,436.27,145.7Z"/><path class="cls-14" d="M459,138.44h1.33a.24.24,0,0,1,.2.08.22.22,0,0,1,0,.18l-2.23,18a.22.22,0,0,1-.08.19.29.29,0,0,1-.21.08h-1.3c-.15,0-.23-.09-.23-.27l1.74-14.18s0-.08,0-.08a.12.12,0,0,0-.09.06l-3.39,5.71a.28.28,0,0,1-.26.19c-.16,0-.25-.07-.27-.19l-2-5.69s0,0-.07,0,0,0-.07.08l-1.72,14.15a.32.32,0,0,1-.1.19.27.27,0,0,1-.19.08h-1.32q-.27,0-.21-.27l2.2-18a.28.28,0,0,1,.29-.26h1.35c.15,0,.24.06.26.18l2.2,6.11s0,.06.05.06a.09.09,0,0,0,.08-.06l3.65-6.11A.37.37,0,0,1,459,138.44Z"/><path class="cls-14" d="M469.92,151h-5.84a.17.17,0,0,0-.1,0,.09.09,0,0,0,0,.08l-.23,1.93a2.12,2.12,0,0,0,0,.42,2.17,2.17,0,0,0,.53,1.51,1.76,1.76,0,0,0,1.38.58A2.21,2.21,0,0,0,467,155a3,3,0,0,0,.93-1.33.36.36,0,0,1,.31-.24l1.27.05a.25.25,0,0,1,.18.08.22.22,0,0,1,0,.21,4.31,4.31,0,0,1-1.52,2.48,4.44,4.44,0,0,1-2.85.91,3.55,3.55,0,0,1-2.58-.92,3.37,3.37,0,0,1-.94-2.49,5,5,0,0,1,0-.64l.69-5.71a4.51,4.51,0,0,1,1.45-2.93,4.42,4.42,0,0,1,3.07-1.12,3.58,3.58,0,0,1,2.62.93,3.27,3.27,0,0,1,1,2.48,5,5,0,0,1-.06.64l-.39,3.31A.29.29,0,0,1,469.92,151Zm-4.71-5.28a3.11,3.11,0,0,0-.82,1.84l-.23,1.77c0,.07,0,.11.1.11h4.21a.1.1,0,0,0,.11-.11l.23-1.77a2.42,2.42,0,0,0,0-.42,2.22,2.22,0,0,0-.53-1.54,1.83,1.83,0,0,0-1.43-.58A2.25,2.25,0,0,0,465.21,145.7Z"/><path class="cls-14" d="M478,144.89a.25.25,0,0,1-.21.08h-1.93c-.06,0-.1,0-.13.11l-1,8.1a6,6,0,0,0-.06.66,1.5,1.5,0,0,0,.36,1.16,1.54,1.54,0,0,0,1.1.29h.26a.25.25,0,0,1,.18.08.21.21,0,0,1,0,.19l-.13,1.13a.28.28,0,0,1-.29.27h-.63a3.37,3.37,0,0,1-2-.52,2.23,2.23,0,0,1-.7-1.92c0-.14,0-.4.05-.79l1.06-8.65a.08.08,0,0,0,0-.07.12.12,0,0,0-.08,0h-1c-.18,0-.25-.08-.21-.26l.11-.87a.22.22,0,0,1,.08-.19.29.29,0,0,1,.21-.08h1a.16.16,0,0,0,.09,0,.08.08,0,0,0,0-.07l.37-3a.22.22,0,0,1,.08-.18.25.25,0,0,1,.21-.08h1.27c.16,0,.24.09.24.26l-.37,3c0,.07,0,.1.08.1H478c.18,0,.25.09.22.27l-.11.87A.25.25,0,0,1,478,144.89Z"/><path class="cls-14" d="M480,156.25a3.37,3.37,0,0,1-.94-2.49,5,5,0,0,1,0-.64l.69-5.69a4.53,4.53,0,0,1,1.45-2.93,4.41,4.41,0,0,1,3.1-1.14,3.56,3.56,0,0,1,2.62.94,3.38,3.38,0,0,1,.95,2.5,4.85,4.85,0,0,1,0,.63l-.71,5.69a4.4,4.4,0,0,1-4.55,4A3.6,3.6,0,0,1,480,156.25Zm4.53-1.43a3,3,0,0,0,.83-1.83l.66-5.45a2.42,2.42,0,0,0,0-.42,2.22,2.22,0,0,0-.53-1.54,1.79,1.79,0,0,0-1.4-.58,2.26,2.26,0,0,0-1.68.7,3,3,0,0,0-.84,1.84l-.68,5.45a2.42,2.42,0,0,0,0,.42,2.09,2.09,0,0,0,.53,1.52,1.82,1.82,0,0,0,1.4.57A2.39,2.39,0,0,0,484.52,154.82Z"/><path class="cls-14" d="M497.76,138.52a.25.25,0,0,1,.21-.08h1.3c.17,0,.25.09.21.26l-2.2,18a.28.28,0,0,1-.29.27H495.7a.25.25,0,0,1-.2-.08.18.18,0,0,1,0-.19l.08-.58a.12.12,0,0,0,0-.08.07.07,0,0,0-.09,0,3.61,3.61,0,0,1-2.6,1.11,3,3,0,0,1-2.31-.91,3.44,3.44,0,0,1-.84-2.42,6.37,6.37,0,0,1,.06-.72l.68-5.71a4.87,4.87,0,0,1,1.35-2.95,3.74,3.74,0,0,1,2.76-1.1,3.1,3.1,0,0,1,1.32.28,2.36,2.36,0,0,1,1,.86.05.05,0,0,0,.08,0,.08.08,0,0,0,.06-.08l.71-5.74A.25.25,0,0,1,497.76,138.52Zm-2.66,16.31a3.06,3.06,0,0,0,.81-1.81l.69-5.48c0-.11,0-.25,0-.42a2.25,2.25,0,0,0-.51-1.54,1.74,1.74,0,0,0-1.37-.58,2.33,2.33,0,0,0-1.69.7,3,3,0,0,0-.85,1.84l-.68,5.48a1.92,1.92,0,0,0,0,.39A2.18,2.18,0,0,0,492,155a1.85,1.85,0,0,0,1.42.58A2.19,2.19,0,0,0,495.1,154.83Z"/><path class="cls-14" d="M501.48,156.25a3.33,3.33,0,0,1-.94-2.49c0-.28,0-.5,0-.64l.69-5.69a4.54,4.54,0,0,1,1.46-2.93,4.4,4.4,0,0,1,3.09-1.14,3.53,3.53,0,0,1,2.62.94,3.35,3.35,0,0,1,1,2.5,4.85,4.85,0,0,1,0,.63l-.71,5.69a4.4,4.4,0,0,1-4.56,4A3.56,3.56,0,0,1,501.48,156.25Zm4.52-1.43a3,3,0,0,0,.84-1.83l.66-5.45c0-.11,0-.25,0-.42a2.21,2.21,0,0,0-.52-1.54,1.81,1.81,0,0,0-1.41-.58,2.29,2.29,0,0,0-1.68.7,3,3,0,0,0-.83,1.84l-.69,5.45a2.42,2.42,0,0,0,0,.42,2.13,2.13,0,0,0,.53,1.52,1.84,1.84,0,0,0,1.41.57A2.35,2.35,0,0,0,506,154.82Z"/><path class="cls-14" d="M510.92,156.88a.24.24,0,0,1,0-.19l2.23-18a.22.22,0,0,1,.08-.18.25.25,0,0,1,.21-.08h1.29c.16,0,.24.09.24.26l-2.22,18a.28.28,0,0,1-.29.27h-1.3A.26.26,0,0,1,510.92,156.88Z"/><path class="cls-14" d="M516.77,156.25a3.33,3.33,0,0,1-.94-2.49,5,5,0,0,1,0-.64l.69-5.69A4.53,4.53,0,0,1,518,144.5a4.41,4.41,0,0,1,3.1-1.14,3.56,3.56,0,0,1,2.62.94,3.38,3.38,0,0,1,.95,2.5,4.85,4.85,0,0,1,0,.63l-.71,5.69a4.4,4.4,0,0,1-4.55,4A3.6,3.6,0,0,1,516.77,156.25Zm4.53-1.43a3,3,0,0,0,.83-1.83l.66-5.45a2.42,2.42,0,0,0,0-.42,2.22,2.22,0,0,0-.53-1.54,1.8,1.8,0,0,0-1.4-.58,2.26,2.26,0,0,0-1.68.7,3,3,0,0,0-.84,1.84l-.69,5.45c0,.11,0,.25,0,.42a2.09,2.09,0,0,0,.53,1.52,1.82,1.82,0,0,0,1.4.57A2.39,2.39,0,0,0,521.3,154.82Zm-1.1-13.09c0-.06,0-.13,0-.22l2-2.89a.38.38,0,0,1,.32-.18h1.05c.11,0,.17,0,.19.09a.27.27,0,0,1-.08.23l-2.14,2.88a.54.54,0,0,1-.35.18h-.82A.18.18,0,0,1,520.2,141.73Z"/><path class="cls-14" d="M534.12,143.57h1.29q.24,0,.24.27l-1.59,12.85a7.17,7.17,0,0,1-1.78,4.3,5.61,5.61,0,0,1-4.44,1.34.22.22,0,0,1-.21-.29l.13-1.14a.29.29,0,0,1,.3-.26,3.81,3.81,0,0,0,3-1,5.48,5.48,0,0,0,1.21-3.13l.11-.8a.09.09,0,0,0,0-.08.07.07,0,0,0-.09,0,3.51,3.51,0,0,1-1.25,1,3.35,3.35,0,0,1-1.48.35,2.87,2.87,0,0,1-2.25-.89,3.41,3.41,0,0,1-.79-2.37c0-.17,0-.44,0-.79l.66-5.58a5,5,0,0,1,1.31-2.95,3.58,3.58,0,0,1,2.69-1.1,3.07,3.07,0,0,1,1.43.33,2.29,2.29,0,0,1,1,1c0,.11.09.1.13,0l.1-.82A.29.29,0,0,1,534.12,143.57Zm-2.23,11.13a3,3,0,0,0,.82-1.81l.66-5.35a2.42,2.42,0,0,0,0-.42,2.25,2.25,0,0,0-.51-1.54,1.74,1.74,0,0,0-1.37-.58,2.29,2.29,0,0,0-1.68.7,3,3,0,0,0-.83,1.84l-.66,5.35a2,2,0,0,0,0,.42,2.17,2.17,0,0,0,.53,1.51,1.82,1.82,0,0,0,1.4.58A2.24,2.24,0,0,0,531.89,154.7Z"/><path class="cls-14" d="M537.32,156.69l1.56-12.85a.39.39,0,0,1,.1-.19.29.29,0,0,1,.19-.08h1.32q.27,0,.21.27l-1.56,12.85a.28.28,0,0,1-.29.27h-1.32Q537.26,157,537.32,156.69Zm1.82-16a1.44,1.44,0,0,1-.29-1.06,1.8,1.8,0,0,1,.56-1.07,1.56,1.56,0,0,1,1.08-.41,1.2,1.2,0,0,1,1.25,1.25,1.73,1.73,0,0,1-.47,1.23,1.54,1.54,0,0,1-1.15.49A1.18,1.18,0,0,1,539.14,140.71Z"/><path class="cls-14" d="M543.5,156.25a3.33,3.33,0,0,1-.94-2.49,5.47,5.47,0,0,1,0-.64l.69-5.71a4.52,4.52,0,0,1,1.46-2.93,4.38,4.38,0,0,1,3.07-1.12,3.67,3.67,0,0,1,2.64.93,3,3,0,0,1,1,2.3,2.64,2.64,0,0,1,0,.45l0,.26a.29.29,0,0,1-.08.19.25.25,0,0,1-.18.08l-1.33.05q-.24,0-.24-.27l0-.18a1.12,1.12,0,0,0,0-.29,1.82,1.82,0,0,0-.54-1.34,2,2,0,0,0-1.45-.54,2.23,2.23,0,0,0-1.66.7,3,3,0,0,0-.82,1.84l-.69,5.45a2.42,2.42,0,0,0,0,.42,2.22,2.22,0,0,0,.53,1.54,1.76,1.76,0,0,0,1.38.58,2.4,2.4,0,0,0,1.66-.65,2.52,2.52,0,0,0,.85-1.52v-.18c0-.18.13-.27.29-.27l1.33,0a.2.2,0,0,1,.17.08.22.22,0,0,1,0,.18l0,.29a4,4,0,0,1-1.46,2.64,4.61,4.61,0,0,1-3.06,1A3.52,3.52,0,0,1,543.5,156.25Z"/><path class="cls-14" d="M553.81,156.25a3.37,3.37,0,0,1-.93-2.49,5.47,5.47,0,0,1,0-.64l.69-5.69a4.54,4.54,0,0,1,1.46-2.93,4.39,4.39,0,0,1,3.09-1.14,3.55,3.55,0,0,1,2.62.94,3.34,3.34,0,0,1,1,2.5c0,.28,0,.49,0,.63l-.72,5.69a4.38,4.38,0,0,1-4.55,4A3.6,3.6,0,0,1,553.81,156.25Zm4.53-1.43a3,3,0,0,0,.83-1.83l.66-5.45a2.42,2.42,0,0,0,0-.42,2.22,2.22,0,0,0-.53-1.54,1.79,1.79,0,0,0-1.4-.58,2.29,2.29,0,0,0-1.68.7,3,3,0,0,0-.83,1.84l-.69,5.45a2.42,2.42,0,0,0,0,.42,2.13,2.13,0,0,0,.53,1.52,1.82,1.82,0,0,0,1.4.57A2.39,2.39,0,0,0,558.34,154.82Z"/><path class="cls-14" d="M564.15,156.3a2.69,2.69,0,0,1-.93-2.15,3.07,3.07,0,0,1,0-.5l0-.18a.27.27,0,0,1,.08-.19.33.33,0,0,1,.22-.08h1.21q.24,0,.24.27l0,.16a1.67,1.67,0,0,0,.43,1.42,1.92,1.92,0,0,0,1.51.59,2.22,2.22,0,0,0,1.66-.68,2.31,2.31,0,0,0,.66-1.68,1.56,1.56,0,0,0-.31-1,2.54,2.54,0,0,0-.72-.64c-.26-.15-.69-.36-1.29-.64a9.64,9.64,0,0,1-1.42-.75,3.23,3.23,0,0,1-1-1,2.89,2.89,0,0,1-.41-1.59,4.4,4.4,0,0,1,0-.58,4,4,0,0,1,1.35-2.67,4.18,4.18,0,0,1,2.85-1,3.43,3.43,0,0,1,2.48.85,3,3,0,0,1,.89,2.27,3.88,3.88,0,0,1,0,.56v.08c0,.17-.13.26-.29.26h-1.19c-.18,0-.25-.09-.21-.26V147a2.33,2.33,0,0,0,0-.32,1.71,1.71,0,0,0-.5-1.26,1.9,1.9,0,0,0-1.35-.49,2.1,2.1,0,0,0-1.52.6,2.47,2.47,0,0,0-.76,1.47,1.62,1.62,0,0,0,.2,1.07,2.54,2.54,0,0,0,.73.73,10.13,10.13,0,0,0,1.3.66,11.69,11.69,0,0,1,1.5.8,3.62,3.62,0,0,1,1,1,2.79,2.79,0,0,1,.44,1.6,3.92,3.92,0,0,1-1.22,3,4.42,4.42,0,0,1-3.15,1.14A3.79,3.79,0,0,1,564.15,156.3Z"/></g></g></g></svg>