<?xml version="1.0" encoding="utf-8"?>
<!-- Generator: Adobe Illustrator 24.0.1, SVG Export Plug-In . SVG Version: 6.00 Build 0)  -->
<svg version="1.1" id="Layer_1" xmlns="http://www.w3.org/2000/svg" xmlns:xlink="http://www.w3.org/1999/xlink" x="0px" y="0px"
	 viewBox="0 0 323 146" style="enable-background:new 0 0 323 146;" xml:space="preserve">
<style type="text/css">
	.st0{fill:#CC4E57;}
	.st1{fill:#FFFFFF;}
</style>
<g id="BotaoM1_00000176040154206515431670000002581948674471080880_">
	<g>
		<path class="st0" d="M244.7,71.5c7-0.2,13.1-4.9,15.1-11.6l0.5-1.8c-3.5,3.7-8.5,5.8-13.8,5.2l-8.5-0.9
			c-6.3-0.6-12.1,2.4-15.2,7.9c-2.2,3.8-2.6,8.1-1.4,12.1c2.1-5.9,7.5-10.5,14.8-10.7L244.7,71.5z"/>
	</g>
	<g>
		<path class="st0" d="M228,144.1c-2.2-1.4-4.1-3.3-5.5-5.7c-3.4-5.8-3.1-12.7,0.8-18.2l5-7c1.7-2.3,2.6-5,2.9-7.7
			c-0.1-0.1-0.2-0.3-0.4-0.4l-5.9-6.2c-4.2-4.4-5.3-10-4-15c-1.8-4.6-1.5-9.7,1-14.2c3.3-5.8,9.5-9,16.1-8.4l8.5,0.9
			c5.8,0.6,11.3-2.1,14.5-6.8l1.1-3.9c0.8-2.6,2.1-4.8,3.7-6.6c2.7-6.1,8.4-10,15.1-10c6.7-0.1,12.6,3.7,15.3,9.8l3.5,7.8
			c2.8,6.1,9.1,9.8,15.8,9.1l6.3-1.5c0.3-0.1,0.6-0.1,0.9-0.2V16c0-8.9-7.2-16-16-16H15.9c-8.9,0-16,7.2-16,16v113.9
			c0,8.9,7.2,16,16,16h212.9C228.5,145.3,228.2,144.7,228,144.1z"/>
	</g>
	<g>
		<path class="st0" d="M233.4,124.1c3.1-5.6,2.5-12.4-1.3-17.4c-0.4,2.5-1.4,5-3,7.2l-5,7c-3.7,5.1-4,11.6-0.8,17.1
			c1.1,1.9,2.6,3.5,4.3,4.8c-0.8-3.5-0.3-7.4,1.6-11L233.4,124.1z"/>
	</g>
	<g>
		<path class="st0" d="M291.5,47.7L296,55c3.3,5.4,9.4,8.3,15.5,7.6c-5.4-0.9-10.2-4.4-12.5-9.6l-3.5-7.8c-2.6-5.7-8.1-9.2-14.4-9.2
			c-5.4,0-10.2,2.7-13,7.1C275.2,37.9,286.2,39,291.5,47.7z"/>
	</g>
	<g>
		<path class="st1" d="M82.8,61.8h4.1c0.1,0,0.2,0,0.3,0.1c0.1,0.1,0.1,0.2,0.1,0.3v23.5c0,0.1,0,0.2-0.1,0.3
			c-0.1,0.1-0.2,0.1-0.3,0.1h-4.1c-0.1,0-0.2,0-0.3-0.1c-0.1-0.1-0.1-0.2-0.1-0.3V70.4c0-0.1,0-0.1-0.1-0.1s-0.1,0-0.1,0.1l-3.7,5.8
			c-0.1,0.2-0.3,0.3-0.5,0.3h-2c-0.2,0-0.4-0.1-0.5-0.3l-3.7-5.8c0-0.1-0.1-0.1-0.1-0.1c0,0-0.1,0.1-0.1,0.2v15.3
			c0,0.1,0,0.2-0.1,0.3c-0.1,0.1-0.2,0.1-0.3,0.1h-4.1c-0.1,0-0.2,0-0.3-0.1c-0.1-0.1-0.1-0.2-0.1-0.3V62.2c0-0.1,0-0.2,0.1-0.3
			c0.1-0.1,0.2-0.1,0.3-0.1h4.1c0.2,0,0.4,0.1,0.5,0.3l5.2,8.1c0.1,0.1,0.1,0.1,0.2,0l5.2-8.1C82.5,61.9,82.6,61.8,82.8,61.8z"/>
		<path class="st1" d="M95.4,85.4c-1.4-0.7-2.4-1.8-3.2-3.1s-1.1-2.9-1.1-4.6v-7.4c0-1.7,0.4-3.2,1.1-4.6s1.8-2.3,3.2-3.1
			s3-1.1,4.8-1.1c1.8,0,3.4,0.4,4.8,1.1s2.4,1.8,3.2,3.1c0.8,1.3,1.1,2.8,1.1,4.6v7.4c0,1.7-0.4,3.3-1.1,4.6
			c-0.8,1.3-1.8,2.4-3.2,3.1s-3,1.1-4.8,1.1C98.4,86.5,96.8,86.1,95.4,85.4z M103.3,81.1c0.8-0.8,1.2-1.9,1.2-3.2v-7.6
			c0-1.3-0.4-2.4-1.2-3.2c-0.8-0.8-1.8-1.2-3.1-1.2c-1.3,0-2.3,0.4-3.1,1.2c-0.8,0.8-1.2,1.9-1.2,3.2v7.6c0,1.3,0.4,2.4,1.2,3.2
			c0.8,0.8,1.8,1.2,3.1,1.2C101.5,82.3,102.5,81.9,103.3,81.1z M98,59.5c0-0.1,0-0.2,0-0.3l1.8-3.5c0.1-0.2,0.3-0.3,0.5-0.3h3.5
			c0.2,0,0.3,0.1,0.3,0.2c0.1,0.1,0,0.2-0.1,0.4l-2.5,3.5c-0.1,0.2-0.3,0.3-0.5,0.3h-2.9C98.1,59.7,98,59.6,98,59.5z"/>
		<path class="st1" d="M113.3,86c-0.1-0.1-0.1-0.2-0.1-0.3V62.2c0-0.1,0-0.2,0.1-0.3c0.1-0.1,0.2-0.1,0.3-0.1h8.7
			c1.7,0,3.3,0.3,4.6,0.9c1.3,0.6,2.3,1.5,3,2.6c0.7,1.1,1.1,2.4,1.1,3.9v9.6c0,1.5-0.4,2.7-1.1,3.9c-0.7,1.1-1.7,2-3,2.6
			c-1.3,0.6-2.8,0.9-4.6,0.9h-8.7C113.4,86.1,113.3,86.1,113.3,86z M118.2,81.9h4.2c1.1,0,1.9-0.4,2.6-1.1c0.7-0.7,1-1.7,1-2.9v-8
			c0-1.2-0.3-2.2-1-2.9c-0.7-0.7-1.5-1.1-2.7-1.1h-4.2c-0.1,0-0.2,0.1-0.2,0.2v15.6C118,81.9,118.1,81.9,118.2,81.9z"/>
		<path class="st1" d="M138.7,85.4c-1.4-0.7-2.4-1.7-3.2-2.9c-0.8-1.3-1.1-2.7-1.1-4.4V62.2c0-0.1,0-0.2,0.1-0.3
			c0.1-0.1,0.2-0.1,0.3-0.1h4.1c0.1,0,0.2,0,0.3,0.1c0.1,0.1,0.1,0.2,0.1,0.3v15.9c0,1.2,0.4,2.2,1.1,3c0.8,0.8,1.7,1.1,3,1.1
			c1.2,0,2.2-0.4,3-1.1c0.8-0.8,1.1-1.7,1.1-3V62.2c0-0.1,0-0.2,0.1-0.3c0.1-0.1,0.2-0.1,0.3-0.1h4.1c0.1,0,0.2,0,0.3,0.1
			c0.1,0.1,0.1,0.2,0.1,0.3v15.8c0,1.6-0.4,3.1-1.1,4.4c-0.8,1.3-1.8,2.2-3.2,2.9c-1.4,0.7-2.9,1-4.7,1
			C141.6,86.4,140.1,86.1,138.7,85.4z"/>
		<path class="st1" d="M156.6,86c-0.1-0.1-0.1-0.2-0.1-0.3V62.2c0-0.1,0-0.2,0.1-0.3c0.1-0.1,0.2-0.1,0.3-0.1h4.1
			c0.1,0,0.2,0,0.3,0.1c0.1,0.1,0.1,0.2,0.1,0.3v19.5c0,0.1,0.1,0.2,0.2,0.2h11.4c0.1,0,0.2,0,0.3,0.1s0.1,0.2,0.1,0.3v3.4
			c0,0.1,0,0.2-0.1,0.3c-0.1,0.1-0.2,0.1-0.3,0.1h-16C156.8,86.1,156.7,86.1,156.6,86z"/>
		<path class="st1" d="M179.9,85.4c-1.4-0.7-2.4-1.8-3.2-3.1c-0.8-1.3-1.1-2.9-1.1-4.6v-7.4c0-1.7,0.4-3.2,1.1-4.6
			c0.8-1.3,1.8-2.3,3.2-3.1s3-1.1,4.8-1.1c1.8,0,3.4,0.4,4.8,1.1s2.4,1.8,3.2,3.1c0.8,1.3,1.1,2.8,1.1,4.6v7.4
			c0,1.7-0.4,3.3-1.1,4.6c-0.8,1.3-1.8,2.4-3.2,3.1s-3,1.1-4.8,1.1C182.9,86.5,181.3,86.1,179.9,85.4z M187.8,81.1
			c0.8-0.8,1.2-1.9,1.2-3.2v-7.6c0-1.3-0.4-2.4-1.2-3.2c-0.8-0.8-1.8-1.2-3.1-1.2c-1.3,0-2.3,0.4-3.1,1.2c-0.8,0.8-1.2,1.9-1.2,3.2
			v7.6c0,1.3,0.4,2.4,1.2,3.2c0.8,0.8,1.8,1.2,3.1,1.2C186,82.3,187,81.9,187.8,81.1z"/>
	</g>
	<g>
		<path class="st0" d="M286.9,79.1h8c0.2,0,0.4,0.1,0.6,0.2c0.2,0.2,0.2,0.3,0.2,0.6v44.9c0,0.2-0.1,0.4-0.2,0.6
			c-0.2,0.2-0.3,0.2-0.6,0.2h-7.8c-0.2,0-0.4-0.1-0.6-0.2c-0.2-0.2-0.2-0.3-0.2-0.6V88.3c0-0.1,0-0.2-0.1-0.3
			c-0.1-0.1-0.2-0.1-0.3-0.1l-6.6,1.8l-0.3,0.1c-0.4,0-0.6-0.2-0.6-0.7l-0.2-5.7c0-0.4,0.2-0.8,0.6-0.9l7-3.3
			C286.1,79.1,286.4,79.1,286.9,79.1z"/>
	</g>
</g>
<g>
</g>
<g>
</g>
<g>
</g>
<g>
</g>
<g>
</g>
<g>
</g>
<g>
</g>
<g>
</g>
<g>
</g>
<g>
</g>
<g>
</g>
<g>
</g>
<g>
</g>
<g>
</g>
<g>
</g>
</svg>
