<svg id="Layer_1" data-name="Layer 1" xmlns="http://www.w3.org/2000/svg" viewBox="0 0 593 146"><defs><style>.cls-1{fill:#cc4e57;}</style></defs><title>m1</title><g id="BotaoM1"><path class="cls-1" d="M514.89,71.53A16.12,16.12,0,0,0,530,59.89l.52-1.78a16.6,16.6,0,0,1-13.85,5.23l-8.54-.86c-6.25-.63-22.07,2.38-25.16,7.85a15.43,15.43,0,0,0-1.43,12.11c2.11-5.85,17.48-10.52,24.79-10.7Z"/><path class="cls-1" d="M498.18,144.16c-2.22-1.39-14.13-3.32-15.54-5.72a16.45,16.45,0,0,1,.83-18.15l15-7a15.69,15.69,0,0,0,2.89-7.69c-.12-.13-.23-.27-.36-.4l-15.94-6.19a15.85,15.85,0,0,1-4-15,16.37,16.37,0,0,1,1.05-14.22c3.29-5.82,19.48-9,26.13-8.36l8.54.86a15.54,15.54,0,0,0,14.48-6.76l1.14-3.93a16.09,16.09,0,0,1,3.71-6.58,16.64,16.64,0,0,1,30.43-.22L570,52.67A15.57,15.57,0,0,0,585.8,61.8l6.27-1.55c.31-.07.62-.14.93-.19v-44A16,16,0,0,0,577,0H276.05A16,16,0,0,0,260,16.05V130A16,16,0,0,0,276.05,146H498.9A17.11,17.11,0,0,1,498.18,144.16Z"/><rect class="cls-1" width="276" height="146"/><path class="cls-1" d="M503.55,124.13a16.14,16.14,0,0,0-1.3-17.42,16.68,16.68,0,0,1-2.95,7.2l-15,7a15.44,15.44,0,0,0-.78,17.06c1.13,1.92,12.6,3.51,14.29,4.75a15.88,15.88,0,0,1,1.65-11Z"/><path class="cls-1" d="M561.64,47.73l4.47,7.32a16.12,16.12,0,0,0,15.54,7.61,16.55,16.55,0,0,1-12.52-9.58l-3.53-7.82a15.63,15.63,0,0,0-27.36-2.1A16.15,16.15,0,0,1,561.64,47.73Z"/><path class="cls-1" d="M549.46,80h8a.74.74,0,0,1,.56.24.73.73,0,0,1,.23.56v44.87a.73.73,0,0,1-.23.56.74.74,0,0,1-.56.24h-7.77a.82.82,0,0,1-.8-.8V89.26a.38.38,0,0,0-.13-.27.22.22,0,0,0-.26-.07L542,90.72l-.27.06c-.4,0-.6-.24-.6-.73l-.2-5.7a.93.93,0,0,1,.6-.93l7-3.26A2,2,0,0,1,549.46,80Z"/></g></svg>