<?xml version="1.0" encoding="utf-8"?>
<!-- Generator: Adobe Illustrator 24.0.1, SVG Export Plug-In . SVG Version: 6.00 Build 0)  -->
<svg version="1.1" xmlns="http://www.w3.org/2000/svg" xmlns:xlink="http://www.w3.org/1999/xlink" x="0px" y="0px"
	 viewBox="0 0 323 146" style="enable-background:new 0 0 323 146;" xml:space="preserve">
<style type="text/css">
	.st0{fill:#B0C14D;}
	.st1{fill:#FFFFFF;}
</style>
<g id="Layer_3">
	<g id="BotaoM1_00000077283695563017279830000016908361949696868775_">
		<g>
			<path class="st0" d="M244.7,71.5c7-0.2,13.1-4.9,15.1-11.6l0.5-1.8c-3.5,3.7-8.5,5.8-13.8,5.2l-8.5-0.9
				c-6.3-0.6-12.1,2.4-15.2,7.9c-2.2,3.8-2.6,8.1-1.4,12.1c2.1-5.9,7.5-10.5,14.8-10.7L244.7,71.5z"/>
		</g>
		<g>
			<path class="st0" d="M228,144.1c-2.2-1.4-4.1-3.3-5.5-5.7c-3.4-5.8-3.1-12.7,0.8-18.2l5-7c1.7-2.3,2.6-5,2.9-7.7
				c-0.1-0.1-0.2-0.3-0.4-0.4l-5.9-6.2c-4.2-4.4-5.3-10-4-15c-1.8-4.6-1.5-9.7,1-14.2c3.3-5.8,9.5-9,16.1-8.4l8.5,0.9
				c5.8,0.6,11.3-2.1,14.5-6.8l1.1-3.9c0.8-2.6,2.1-4.8,3.7-6.6c2.7-6.1,8.4-10,15.1-10c6.7-0.1,12.6,3.7,15.3,9.8l3.5,7.8
				c2.8,6.1,9.1,9.8,15.8,9.1l6.3-1.5c0.3-0.1,0.6-0.1,0.9-0.2V16c0-8.9-7.2-16-16-16H15.9c-8.9,0-16,7.2-16,16v113.9
				c0,8.9,7.2,16,16,16h212.9C228.5,145.3,228.2,144.7,228,144.1z"/>
		</g>
		<g>
			<path class="st0" d="M233.4,124.1c3.1-5.6,2.5-12.4-1.3-17.4c-0.4,2.5-1.4,5-3,7.2l-5,7c-3.7,5.1-4,11.6-0.8,17.1
				c1.1,1.9,2.6,3.5,4.3,4.8c-0.8-3.5-0.3-7.4,1.6-11L233.4,124.1z"/>
		</g>
		<g>
			<path class="st0" d="M291.5,47.7L296,55c3.3,5.4,9.4,8.3,15.5,7.6c-5.4-0.9-10.2-4.4-12.5-9.6l-3.5-7.8
				c-2.6-5.7-8.1-9.2-14.4-9.2c-5.4,0-10.2,2.7-13,7.1C275.2,37.9,286.2,39,291.5,47.7z"/>
		</g>
		<g>
			<path class="st0" d="M283.8,118.2c0,0.1,0.1,0.1,0.3,0.1h18c0.2,0,0.4,0.1,0.6,0.2c0.2,0.2,0.2,0.3,0.2,0.6v6.4
				c0,0.2-0.1,0.4-0.2,0.6c-0.2,0.2-0.3,0.2-0.6,0.2h-29.9c-0.2,0-0.4-0.1-0.6-0.2c-0.2-0.2-0.2-0.3-0.2-0.6v-6.1
				c0-0.4,0.1-0.7,0.4-1c2.2-2.1,4.4-4.4,6.6-6.9c2.3-2.5,3.7-4.1,4.2-4.7c1.2-1.5,2.5-2.9,3.8-4.2c4-4.5,6-7.8,6-10
				c0-1.5-0.6-2.8-1.7-3.8c-1.1-1-2.5-1.5-4.3-1.5c-1.8,0-3.2,0.5-4.3,1.5c-1.1,1-1.7,2.3-1.7,3.9v1.7c0,0.2-0.1,0.4-0.2,0.6
				c-0.2,0.2-0.3,0.2-0.6,0.2h-7.8c-0.2,0-0.4-0.1-0.6-0.2c-0.2-0.2-0.2-0.3-0.2-0.6v-3.1c0.1-2.4,0.9-4.5,2.3-6.3
				c1.4-1.8,3.2-3.2,5.5-4.2c2.3-1,4.8-1.5,7.7-1.5c3.1,0,5.9,0.6,8.2,1.8s4.1,2.8,5.4,4.7s1.9,4.2,1.9,6.6c0,1.9-0.5,3.8-1.4,5.7
				s-2.3,4-4.2,6.3c-1.4,1.7-2.9,3.4-4.4,5.1c-1.6,1.7-4,4.1-7.1,7.3l-1,1C283.7,118,283.7,118.1,283.8,118.2z"/>
		</g>
	</g>
</g>
<g id="Layer_2">
	<g>
		<path class="st1" d="M84,61.9h4.1c0.1,0,0.2,0,0.3,0.1c0.1,0.1,0.1,0.2,0.1,0.3v23.5c0,0.1,0,0.2-0.1,0.3
			c-0.1,0.1-0.2,0.1-0.3,0.1H84c-0.1,0-0.2,0-0.3-0.1c-0.1-0.1-0.1-0.2-0.1-0.3V70.4c0-0.1,0-0.1-0.1-0.1s-0.1,0-0.1,0.1l-3.7,5.8
			c-0.1,0.2-0.3,0.3-0.5,0.3h-2c-0.2,0-0.4-0.1-0.5-0.3L73,70.4c0-0.1-0.1-0.1-0.1-0.1c0,0-0.1,0.1-0.1,0.2v15.3
			c0,0.1,0,0.2-0.1,0.3c-0.1,0.1-0.2,0.1-0.3,0.1h-4.1c-0.1,0-0.2,0-0.3-0.1c-0.1-0.1-0.1-0.2-0.1-0.3V62.3c0-0.1,0-0.2,0.1-0.3
			c0.1-0.1,0.2-0.1,0.3-0.1h4.1c0.2,0,0.4,0.1,0.5,0.3l5.2,8.1c0.1,0.1,0.1,0.1,0.2,0l5.2-8.1C83.7,62,83.8,61.9,84,61.9z"/>
		<path class="st1" d="M96.6,85.5c-1.4-0.7-2.4-1.8-3.2-3.1s-1.1-2.9-1.1-4.6v-7.4c0-1.7,0.4-3.2,1.1-4.6s1.8-2.3,3.2-3.1
			s3-1.1,4.8-1.1c1.8,0,3.4,0.4,4.8,1.1s2.4,1.8,3.2,3.1c0.8,1.3,1.1,2.8,1.1,4.6v7.4c0,1.7-0.4,3.3-1.1,4.6
			c-0.8,1.3-1.8,2.4-3.2,3.1s-3,1.1-4.8,1.1C99.6,86.6,98,86.2,96.6,85.5z M104.5,81.1c0.8-0.8,1.2-1.9,1.2-3.2v-7.6
			c0-1.3-0.4-2.4-1.2-3.2c-0.8-0.8-1.8-1.2-3.1-1.2c-1.3,0-2.3,0.4-3.1,1.2c-0.8,0.8-1.2,1.9-1.2,3.2v7.6c0,1.3,0.4,2.4,1.2,3.2
			c0.8,0.8,1.8,1.2,3.1,1.2C102.7,82.4,103.7,82,104.5,81.1z M99.2,59.6c0-0.1,0-0.2,0-0.3l1.8-3.5c0.1-0.2,0.3-0.3,0.5-0.3h3.5
			c0.2,0,0.3,0.1,0.3,0.2c0.1,0.1,0,0.2-0.1,0.4l-2.5,3.5c-0.1,0.2-0.3,0.3-0.5,0.3h-2.9C99.3,59.7,99.2,59.7,99.2,59.6z"/>
		<path class="st1" d="M114.4,86.1c-0.1-0.1-0.1-0.2-0.1-0.3V62.3c0-0.1,0-0.2,0.1-0.3c0.1-0.1,0.2-0.1,0.3-0.1h8.7
			c1.7,0,3.3,0.3,4.6,0.9c1.3,0.6,2.3,1.5,3,2.6c0.7,1.1,1.1,2.4,1.1,3.9v9.6c0,1.5-0.4,2.7-1.1,3.9c-0.7,1.1-1.7,2-3,2.6
			c-1.3,0.6-2.8,0.9-4.6,0.9h-8.7C114.6,86.2,114.5,86.1,114.4,86.1z M119.4,82h4.2c1.1,0,1.9-0.4,2.6-1.1c0.7-0.7,1-1.7,1-2.9v-8
			c0-1.2-0.3-2.2-1-2.9c-0.7-0.7-1.5-1.1-2.7-1.1h-4.2c-0.1,0-0.2,0.1-0.2,0.2v15.6C119.2,81.9,119.3,82,119.4,82z"/>
		<path class="st1" d="M139.9,85.4c-1.4-0.7-2.4-1.7-3.2-2.9c-0.8-1.3-1.1-2.7-1.1-4.4V62.3c0-0.1,0-0.2,0.1-0.3
			c0.1-0.1,0.2-0.1,0.3-0.1h4.1c0.1,0,0.2,0,0.3,0.1c0.1,0.1,0.1,0.2,0.1,0.3v15.9c0,1.2,0.4,2.2,1.1,3c0.8,0.8,1.7,1.1,3,1.1
			c1.2,0,2.2-0.4,3-1.1c0.8-0.8,1.1-1.7,1.1-3V62.3c0-0.1,0-0.2,0.1-0.3c0.1-0.1,0.2-0.1,0.3-0.1h4.1c0.1,0,0.2,0,0.3,0.1
			c0.1,0.1,0.1,0.2,0.1,0.3v15.8c0,1.6-0.4,3.1-1.1,4.4c-0.8,1.3-1.8,2.2-3.2,2.9c-1.4,0.7-2.9,1-4.7,1
			C142.8,86.5,141.3,86.1,139.9,85.4z"/>
		<path class="st1" d="M157.8,86.1c-0.1-0.1-0.1-0.2-0.1-0.3V62.3c0-0.1,0-0.2,0.1-0.3c0.1-0.1,0.2-0.1,0.3-0.1h4.1
			c0.1,0,0.2,0,0.3,0.1c0.1,0.1,0.1,0.2,0.1,0.3v19.5c0,0.1,0.1,0.2,0.2,0.2h11.4c0.1,0,0.2,0,0.3,0.1s0.1,0.2,0.1,0.3v3.4
			c0,0.1,0,0.2-0.1,0.3c-0.1,0.1-0.2,0.1-0.3,0.1h-16C157.9,86.2,157.8,86.1,157.8,86.1z"/>
		<path class="st1" d="M181.1,85.5c-1.4-0.7-2.4-1.8-3.2-3.1c-0.8-1.3-1.1-2.9-1.1-4.6v-7.4c0-1.7,0.4-3.2,1.1-4.6
			c0.8-1.3,1.8-2.3,3.2-3.1s3-1.1,4.8-1.1c1.8,0,3.4,0.4,4.8,1.1s2.4,1.8,3.2,3.1s1.1,2.8,1.1,4.6v7.4c0,1.7-0.4,3.3-1.1,4.6
			c-0.8,1.3-1.8,2.4-3.2,3.1s-3,1.1-4.8,1.1C184.1,86.6,182.5,86.2,181.1,85.5z M189,81.1c0.8-0.8,1.2-1.9,1.2-3.2v-7.6
			c0-1.3-0.4-2.4-1.2-3.2s-1.8-1.2-3.1-1.2c-1.3,0-2.3,0.4-3.1,1.2c-0.8,0.8-1.2,1.9-1.2,3.2v7.6c0,1.3,0.4,2.4,1.2,3.2
			c0.8,0.8,1.8,1.2,3.1,1.2S188.2,82,189,81.1z"/>
	</g>
	<g>
	</g>
	<g>
	</g>
	<g>
	</g>
	<g>
	</g>
	<g>
	</g>
	<g>
	</g>
	<g>
	</g>
	<g>
	</g>
	<g>
	</g>
	<g>
	</g>
	<g>
	</g>
	<g>
	</g>
	<g>
	</g>
	<g>
	</g>
	<g>
	</g>
</g>
</svg>
