<svg id="Layer_1" data-name="Layer 1" xmlns="http://www.w3.org/2000/svg" viewBox="0 0 593 146"><defs><style>.cls-1{fill:#b0c14d;}</style></defs><title>m2</title><g id="BotaoM1"><rect class="cls-1" width="292" height="146"/><g id="BotaoM1-2" data-name="BotaoM1"><path class="cls-1" d="M514.89,71.53A16.12,16.12,0,0,0,530,59.89l.52-1.78a16.6,16.6,0,0,1-13.85,5.23l-8.54-.86a15.67,15.67,0,0,0-16.59,20,16,16,0,0,1,14.79-10.7Z"/><path class="cls-1" d="M498.18,144.16a16.69,16.69,0,0,1-5.54-5.72,16.45,16.45,0,0,1,.83-18.15l5-7a15.69,15.69,0,0,0,2.89-7.69c-.12-.13-.23-.27-.36-.4l-5.94-6.19a15.85,15.85,0,0,1-4-15,16.66,16.66,0,0,1,17.18-22.58l8.54.86a15.54,15.54,0,0,0,14.48-6.76l1.14-3.93a16.09,16.09,0,0,1,3.71-6.58,16.64,16.64,0,0,1,30.43-.22L570,52.67A15.57,15.57,0,0,0,585.8,61.8l6.27-1.55c.31-.07.62-.14.93-.19v-44A16,16,0,0,0,577,0H286.05A16,16,0,0,0,270,16.05V130A16,16,0,0,0,286.05,146H498.9A17.11,17.11,0,0,1,498.18,144.16Z"/><path class="cls-1" d="M503.55,124.13a16.14,16.14,0,0,0-1.3-17.42,16.68,16.68,0,0,1-2.95,7.2l-5,7a15.44,15.44,0,0,0-.78,17.06,15.83,15.83,0,0,0,4.29,4.75,15.88,15.88,0,0,1,1.65-11Z"/><path class="cls-1" d="M561.64,47.73l4.47,7.32a16.12,16.12,0,0,0,15.54,7.61,16.55,16.55,0,0,1-12.52-9.58l-3.53-7.82a15.63,15.63,0,0,0-27.36-2.1A16.15,16.15,0,0,1,561.64,47.73Z"/><path class="cls-1" d="M553.9,118.26a.28.28,0,0,0,.27.13h18a.76.76,0,0,1,.56.24.77.77,0,0,1,.23.56v6.44a.77.77,0,0,1-.23.56.76.76,0,0,1-.56.24H542.29a.78.78,0,0,1-.57-.24.77.77,0,0,1-.23-.56v-6.11a1.33,1.33,0,0,1,.4-1q3.25-3.19,6.64-6.94c2.25-2.5,3.67-4.06,4.24-4.68q1.86-2.19,3.79-4.18,6-6.7,6-10A4.92,4.92,0,0,0,560.94,89a7,7,0,0,0-8.63,0,5,5,0,0,0-1.66,4v1.66a.77.77,0,0,1-.23.56.75.75,0,0,1-.57.23H542a.79.79,0,0,1-.79-.79V91.45a11.41,11.41,0,0,1,2.25-6.34A13.12,13.12,0,0,1,549,80.89a19.37,19.37,0,0,1,7.66-1.46,18,18,0,0,1,8.2,1.76,13.35,13.35,0,0,1,5.38,4.75,12.15,12.15,0,0,1,1.89,6.64,13.3,13.3,0,0,1-1.39,5.7,31.63,31.63,0,0,1-4.19,6.31c-1.37,1.72-2.85,3.43-4.44,5.11s-4,4.12-7.11,7.3l-1,1A.21.21,0,0,0,553.9,118.26Z"/></g></g></svg>