<svg id="Layer_1" data-name="Layer 1" xmlns="http://www.w3.org/2000/svg" viewBox="0 0 1048 412"><defs><style>.cls-1{fill:#cc4e57;}</style></defs><title>m3</title><g id="BotaoM1"><rect class="cls-1" width="292" height="146"/><g id="BotaoM1-2" data-name="BotaoM1"><path class="cls-1" d="M969.89,337.53A16.12,16.12,0,0,0,985,325.89l.52-1.78a16.6,16.6,0,0,1-13.85,5.23l-8.54-.86a15.67,15.67,0,0,0-16.59,20,16,16,0,0,1,14.79-10.7Z"/><path class="cls-1" d="M953.18,410.16a16.69,16.69,0,0,1-5.54-5.72,16.45,16.45,0,0,1,.83-18.15l5-7a15.69,15.69,0,0,0,2.89-7.69c-.12-.13-.23-.27-.36-.4l-5.94-6.19a15.85,15.85,0,0,1-4-15,16.66,16.66,0,0,1,17.18-22.58l8.54.86a15.54,15.54,0,0,0,14.48-6.76l1.14-3.93a16.09,16.09,0,0,1,3.71-6.58,16.64,16.64,0,0,1,30.43-.22l3.53,7.82a15.57,15.57,0,0,0,15.76,9.13l6.27-1.55c.31-.07.62-.14.93-.19v-44A16,16,0,0,0,1032,266H741.05a16,16,0,0,0-16,16.05V396a16,16,0,0,0,16,16.05H953.9A17.11,17.11,0,0,1,953.18,410.16Z"/><path class="cls-1" d="M958.55,390.13a16.14,16.14,0,0,0-1.3-17.42,16.68,16.68,0,0,1-3,7.2l-5,7a15.44,15.44,0,0,0-.78,17.06,15.83,15.83,0,0,0,4.29,4.75,15.88,15.88,0,0,1,1.65-11Z"/><path class="cls-1" d="M1016.64,313.73l4.47,7.32a16.12,16.12,0,0,0,15.54,7.61,16.55,16.55,0,0,1-12.52-9.58l-3.53-7.82a15.63,15.63,0,0,0-27.36-2.1A16.15,16.15,0,0,1,1016.64,313.73Z"/><path class="cls-1" d="M1026.49,377.29a18.18,18.18,0,0,1-1.19,6.64,13.21,13.21,0,0,1-5.35,6.64,16.15,16.15,0,0,1-8.86,2.39,15.66,15.66,0,0,1-8.86-2.53,14,14,0,0,1-5.47-6.83A18.67,18.67,0,0,1,995.7,378a.7.7,0,0,1,.79-.79h7.83a.7.7,0,0,1,.8.79,12.53,12.53,0,0,0,.73,3.26,5.29,5.29,0,0,0,2,2.68,5.36,5.36,0,0,0,3.22,1,5.11,5.11,0,0,0,5.11-3.26,10.82,10.82,0,0,0,.93-4.64,11.45,11.45,0,0,0-1-5.11,5.27,5.27,0,0,0-5.11-3.12,3.18,3.18,0,0,0-1.53.43,20.57,20.57,0,0,0-1.92,1.23.92.92,0,0,1-.53.2.64.64,0,0,1-.6-.4l-3.92-5.51a.93.93,0,0,1,.14-1.13l10.55-9.23a.26.26,0,0,0,.1-.26c0-.09-.1-.13-.23-.13h-15.6a.82.82,0,0,1-.8-.8v-6.44a.82.82,0,0,1,.8-.8h27.68a.74.74,0,0,1,.56.24.73.73,0,0,1,.23.56v7.3a1.39,1.39,0,0,1-.46,1l-8.7,8a.31.31,0,0,0-.1.27c0,.09.13.13.3.13a10.82,10.82,0,0,1,8.23,6.84A17.39,17.39,0,0,1,1026.49,377.29Z"/><path class="cls-1" d="M808,327.87H812a.41.41,0,0,1,.3.12.4.4,0,0,1,.12.29v23.49a.4.4,0,0,1-.12.29.41.41,0,0,1-.3.12H808a.41.41,0,0,1-.3-.12.4.4,0,0,1-.12-.29V336.45c0-.1,0-.14-.07-.14s-.09,0-.14.1l-3.68,5.77a.57.57,0,0,1-.49.28h-2a.55.55,0,0,1-.48-.28L797,336.41c-.05-.07-.1-.1-.14-.09s-.07.07-.07.16v15.29a.4.4,0,0,1-.12.29.42.42,0,0,1-.3.12h-4.06a.41.41,0,0,1-.3-.12.4.4,0,0,1-.12-.29V328.28A.4.4,0,0,1,792,328a.41.41,0,0,1,.3-.12h4.06a.56.56,0,0,1,.49.27l5.21,8.1q.11.21.21,0l5.24-8.1A.56.56,0,0,1,808,327.87Z"/><path class="cls-1" d="M820.57,351.45a7.88,7.88,0,0,1-3.21-3.11,9,9,0,0,1-1.15-4.6v-7.43a8.84,8.84,0,0,1,1.15-4.55,7.88,7.88,0,0,1,3.21-3.08,11.09,11.09,0,0,1,9.59,0,7.88,7.88,0,0,1,3.21,3.08,8.84,8.84,0,0,1,1.15,4.55v7.43a9.1,9.1,0,0,1-1.15,4.62,7.76,7.76,0,0,1-3.21,3.11,10.13,10.13,0,0,1-4.81,1.1A9.84,9.84,0,0,1,820.57,351.45Zm7.87-4.3a4.43,4.43,0,0,0,1.18-3.23v-7.65a4.59,4.59,0,0,0-1.16-3.25,4.51,4.51,0,0,0-6.19,0,4.59,4.59,0,0,0-1.16,3.25v7.65a4.5,4.5,0,0,0,1.16,3.23,4.07,4.07,0,0,0,3.08,1.21A4.12,4.12,0,0,0,828.44,347.15Zm-5.31-21.58a.37.37,0,0,1,0-.35l1.84-3.5a.52.52,0,0,1,.52-.32H829a.36.36,0,0,1,.33.16.33.33,0,0,1-.05.36l-2.47,3.51a.53.53,0,0,1-.48.28h-2.92C823.28,325.71,823.17,325.67,823.13,325.57Z"/><path class="cls-1" d="M838.39,352.06a.4.4,0,0,1-.12-.29V328.28a.4.4,0,0,1,.12-.29.41.41,0,0,1,.3-.12h8.68a10.56,10.56,0,0,1,4.57.92,7.08,7.08,0,0,1,3,2.58,7,7,0,0,1,1.08,3.86v9.59a6.91,6.91,0,0,1-1.08,3.85,7,7,0,0,1-3,2.59,10.56,10.56,0,0,1-4.57.92h-8.68A.41.41,0,0,1,838.39,352.06Zm5-4.08h4.21a3.36,3.36,0,0,0,2.59-1.08,4.19,4.19,0,0,0,1-2.88v-8a4.08,4.08,0,0,0-1-2.88,3.42,3.42,0,0,0-2.66-1.08h-4.17a.15.15,0,0,0-.17.17v15.57A.15.15,0,0,0,843.34,348Z"/><path class="cls-1" d="M863.86,351.42a7.61,7.61,0,0,1-3.16-2.94,8.26,8.26,0,0,1-1.13-4.36V328.28a.41.41,0,0,1,.41-.41h4.07a.38.38,0,0,1,.29.12.37.37,0,0,1,.13.29v15.88a3.88,3.88,0,0,0,4.1,4.1,3.88,3.88,0,0,0,4.1-4.1V328.28a.41.41,0,0,1,.41-.41h4.07a.41.41,0,0,1,.41.41v15.84a8.26,8.26,0,0,1-1.13,4.36,7.61,7.61,0,0,1-3.16,2.94,11.16,11.16,0,0,1-9.41,0Z"/><path class="cls-1" d="M881.71,352.06a.4.4,0,0,1-.12-.29V328.28a.4.4,0,0,1,.12-.29.42.42,0,0,1,.3-.12h4.07a.41.41,0,0,1,.41.41v19.53c0,.11.06.17.18.17H898a.4.4,0,0,1,.29.12.41.41,0,0,1,.12.3v3.37a.41.41,0,0,1-.41.41H882A.42.42,0,0,1,881.71,352.06Z"/><path class="cls-1" d="M905.06,351.45a7.88,7.88,0,0,1-3.21-3.11,9,9,0,0,1-1.15-4.6v-7.43a8.84,8.84,0,0,1,1.15-4.55,7.88,7.88,0,0,1,3.21-3.08,11.09,11.09,0,0,1,9.59,0,7.88,7.88,0,0,1,3.21,3.08,8.84,8.84,0,0,1,1.15,4.55v7.43a9.1,9.1,0,0,1-1.15,4.62,7.76,7.76,0,0,1-3.21,3.11,10.13,10.13,0,0,1-4.81,1.1A9.84,9.84,0,0,1,905.06,351.45Zm7.87-4.3a4.43,4.43,0,0,0,1.18-3.23v-7.65A4.59,4.59,0,0,0,913,333a4.1,4.1,0,0,0-3.11-1.23,4,4,0,0,0-3.08,1.23,4.59,4.59,0,0,0-1.16,3.25v7.65a4.5,4.5,0,0,0,1.16,3.23,4.07,4.07,0,0,0,3.08,1.21A4.12,4.12,0,0,0,912.93,347.15Z"/></g><g id="BotaoM1-3" data-name="BotaoM1"><path class="cls-1" d="M969.89,337.53A16.12,16.12,0,0,0,985,325.89l.52-1.78a16.6,16.6,0,0,1-13.85,5.23l-8.54-.86a15.67,15.67,0,0,0-16.59,20,16,16,0,0,1,14.79-10.7Z"/><path class="cls-1" d="M953.18,410.16a16.69,16.69,0,0,1-5.54-5.72,16.45,16.45,0,0,1,.83-18.15l5-7a15.69,15.69,0,0,0,2.89-7.69c-.12-.13-.23-.27-.36-.4l-5.94-6.19a15.85,15.85,0,0,1-4-15,16.66,16.66,0,0,1,17.18-22.58l8.54.86a15.54,15.54,0,0,0,14.48-6.76l1.14-3.93a16.09,16.09,0,0,1,3.71-6.58,16.64,16.64,0,0,1,30.43-.22l3.53,7.82a15.57,15.57,0,0,0,15.76,9.13l6.27-1.55c.31-.07.62-.14.93-.19v-44A16,16,0,0,0,1032,266H741.05a16,16,0,0,0-16,16.05V396a16,16,0,0,0,16,16.05H953.9A17.11,17.11,0,0,1,953.18,410.16Z"/><path class="cls-1" d="M958.55,390.13a16.14,16.14,0,0,0-1.3-17.42,16.68,16.68,0,0,1-3,7.2l-5,7a15.44,15.44,0,0,0-.78,17.06,15.83,15.83,0,0,0,4.29,4.75,15.88,15.88,0,0,1,1.65-11Z"/><path class="cls-1" d="M1016.64,313.73l4.47,7.32a16.12,16.12,0,0,0,15.54,7.61,16.55,16.55,0,0,1-12.52-9.58l-3.53-7.82a15.63,15.63,0,0,0-27.36-2.1A16.15,16.15,0,0,1,1016.64,313.73Z"/><path class="cls-1" d="M1026.49,377.29a18.18,18.18,0,0,1-1.19,6.64,13.21,13.21,0,0,1-5.35,6.64,16.15,16.15,0,0,1-8.86,2.39,15.66,15.66,0,0,1-8.86-2.53,14,14,0,0,1-5.47-6.83A18.67,18.67,0,0,1,995.7,378a.7.7,0,0,1,.79-.79h7.83a.7.7,0,0,1,.8.79,12.53,12.53,0,0,0,.73,3.26,5.29,5.29,0,0,0,2,2.68,5.36,5.36,0,0,0,3.22,1,5.11,5.11,0,0,0,5.11-3.26,10.82,10.82,0,0,0,.93-4.64,11.45,11.45,0,0,0-1-5.11,5.27,5.27,0,0,0-5.11-3.12,3.18,3.18,0,0,0-1.53.43,20.57,20.57,0,0,0-1.92,1.23.92.92,0,0,1-.53.2.64.64,0,0,1-.6-.4l-3.92-5.51a.93.93,0,0,1,.14-1.13l10.55-9.23a.26.26,0,0,0,.1-.26c0-.09-.1-.13-.23-.13h-15.6a.82.82,0,0,1-.8-.8v-6.44a.82.82,0,0,1,.8-.8h27.68a.74.74,0,0,1,.56.24.73.73,0,0,1,.23.56v7.3a1.39,1.39,0,0,1-.46,1l-8.7,8a.31.31,0,0,0-.1.27c0,.09.13.13.3.13a10.82,10.82,0,0,1,8.23,6.84A17.39,17.39,0,0,1,1026.49,377.29Z"/><path class="cls-1" d="M808,327.87H812a.41.41,0,0,1,.3.12.4.4,0,0,1,.12.29v23.49a.4.4,0,0,1-.12.29.41.41,0,0,1-.3.12H808a.41.41,0,0,1-.3-.12.4.4,0,0,1-.12-.29V336.45c0-.1,0-.14-.07-.14s-.09,0-.14.1l-3.68,5.77a.57.57,0,0,1-.49.28h-2a.55.55,0,0,1-.48-.28L797,336.41c-.05-.07-.1-.1-.14-.09s-.07.07-.07.16v15.29a.4.4,0,0,1-.12.29.42.42,0,0,1-.3.12h-4.06a.41.41,0,0,1-.3-.12.4.4,0,0,1-.12-.29V328.28A.4.4,0,0,1,792,328a.41.41,0,0,1,.3-.12h4.06a.56.56,0,0,1,.49.27l5.21,8.1q.11.21.21,0l5.24-8.1A.56.56,0,0,1,808,327.87Z"/><path class="cls-1" d="M820.57,351.45a7.88,7.88,0,0,1-3.21-3.11,9,9,0,0,1-1.15-4.6v-7.43a8.84,8.84,0,0,1,1.15-4.55,7.88,7.88,0,0,1,3.21-3.08,11.09,11.09,0,0,1,9.59,0,7.88,7.88,0,0,1,3.21,3.08,8.84,8.84,0,0,1,1.15,4.55v7.43a9.1,9.1,0,0,1-1.15,4.62,7.76,7.76,0,0,1-3.21,3.11,10.13,10.13,0,0,1-4.81,1.1A9.84,9.84,0,0,1,820.57,351.45Zm7.87-4.3a4.43,4.43,0,0,0,1.18-3.23v-7.65a4.59,4.59,0,0,0-1.16-3.25,4.51,4.51,0,0,0-6.19,0,4.59,4.59,0,0,0-1.16,3.25v7.65a4.5,4.5,0,0,0,1.16,3.23,4.07,4.07,0,0,0,3.08,1.21A4.12,4.12,0,0,0,828.44,347.15Zm-5.31-21.58a.37.37,0,0,1,0-.35l1.84-3.5a.52.52,0,0,1,.52-.32H829a.36.36,0,0,1,.33.16.33.33,0,0,1-.05.36l-2.47,3.51a.53.53,0,0,1-.48.28h-2.92C823.28,325.71,823.17,325.67,823.13,325.57Z"/><path class="cls-1" d="M838.39,352.06a.4.4,0,0,1-.12-.29V328.28a.4.4,0,0,1,.12-.29.41.41,0,0,1,.3-.12h8.68a10.56,10.56,0,0,1,4.57.92,7.08,7.08,0,0,1,3,2.58,7,7,0,0,1,1.08,3.86v9.59a6.91,6.91,0,0,1-1.08,3.85,7,7,0,0,1-3,2.59,10.56,10.56,0,0,1-4.57.92h-8.68A.41.41,0,0,1,838.39,352.06Zm5-4.08h4.21a3.36,3.36,0,0,0,2.59-1.08,4.19,4.19,0,0,0,1-2.88v-8a4.08,4.08,0,0,0-1-2.88,3.42,3.42,0,0,0-2.66-1.08h-4.17a.15.15,0,0,0-.17.17v15.57A.15.15,0,0,0,843.34,348Z"/><path class="cls-1" d="M863.86,351.42a7.61,7.61,0,0,1-3.16-2.94,8.26,8.26,0,0,1-1.13-4.36V328.28a.41.41,0,0,1,.41-.41h4.07a.38.38,0,0,1,.29.12.37.37,0,0,1,.13.29v15.88a3.88,3.88,0,0,0,4.1,4.1,3.88,3.88,0,0,0,4.1-4.1V328.28a.41.41,0,0,1,.41-.41h4.07a.41.41,0,0,1,.41.41v15.84a8.26,8.26,0,0,1-1.13,4.36,7.61,7.61,0,0,1-3.16,2.94,11.16,11.16,0,0,1-9.41,0Z"/><path class="cls-1" d="M881.71,352.06a.4.4,0,0,1-.12-.29V328.28a.4.4,0,0,1,.12-.29.42.42,0,0,1,.3-.12h4.07a.41.41,0,0,1,.41.41v19.53c0,.11.06.17.18.17H898a.4.4,0,0,1,.29.12.41.41,0,0,1,.12.3v3.37a.41.41,0,0,1-.41.41H882A.42.42,0,0,1,881.71,352.06Z"/><path class="cls-1" d="M905.06,351.45a7.88,7.88,0,0,1-3.21-3.11,9,9,0,0,1-1.15-4.6v-7.43a8.84,8.84,0,0,1,1.15-4.55,7.88,7.88,0,0,1,3.21-3.08,11.09,11.09,0,0,1,9.59,0,7.88,7.88,0,0,1,3.21,3.08,8.84,8.84,0,0,1,1.15,4.55v7.43a9.1,9.1,0,0,1-1.15,4.62,7.76,7.76,0,0,1-3.21,3.11,10.13,10.13,0,0,1-4.81,1.1A9.84,9.84,0,0,1,905.06,351.45Zm7.87-4.3a4.43,4.43,0,0,0,1.18-3.23v-7.65A4.59,4.59,0,0,0,913,333a4.1,4.1,0,0,0-3.11-1.23,4,4,0,0,0-3.08,1.23,4.59,4.59,0,0,0-1.16,3.25v7.65a4.5,4.5,0,0,0,1.16,3.23,4.07,4.07,0,0,0,3.08,1.21A4.12,4.12,0,0,0,912.93,347.15Z"/></g><g id="BotaoM1-4" data-name="BotaoM1"><path class="cls-1" d="M514.89,71.53A16.12,16.12,0,0,0,530,59.89l.52-1.78a16.6,16.6,0,0,1-13.85,5.23l-8.54-.86a15.67,15.67,0,0,0-16.59,20,16,16,0,0,1,14.79-10.7Z"/><path class="cls-1" d="M498.18,144.16a16.69,16.69,0,0,1-5.54-5.72,16.45,16.45,0,0,1,.83-18.15l5-7a15.69,15.69,0,0,0,2.89-7.69c-.12-.13-.23-.27-.36-.4l-5.94-6.19a15.85,15.85,0,0,1-4-15,16.66,16.66,0,0,1,17.18-22.58l8.54.86a15.54,15.54,0,0,0,14.48-6.76l1.14-3.93a16.09,16.09,0,0,1,3.71-6.58,16.64,16.64,0,0,1,30.43-.22L570,52.67A15.57,15.57,0,0,0,585.8,61.8l6.27-1.55c.31-.07.62-.14.93-.19v-44A16,16,0,0,0,577,0H286.05A16,16,0,0,0,270,16.05V130A16,16,0,0,0,286.05,146H498.9A17.11,17.11,0,0,1,498.18,144.16Z"/><path class="cls-1" d="M503.55,124.13a16.14,16.14,0,0,0-1.3-17.42,16.68,16.68,0,0,1-2.95,7.2l-5,7a15.44,15.44,0,0,0-.78,17.06,15.83,15.83,0,0,0,4.29,4.75,15.88,15.88,0,0,1,1.65-11Z"/><path class="cls-1" d="M561.64,47.73l4.47,7.32a16.12,16.12,0,0,0,15.54,7.61,16.55,16.55,0,0,1-12.52-9.58l-3.53-7.82a15.63,15.63,0,0,0-27.36-2.1A16.15,16.15,0,0,1,561.64,47.73Z"/><path class="cls-1" d="M571.49,111.29a18.18,18.18,0,0,1-1.19,6.64,13.21,13.21,0,0,1-5.35,6.64,16.15,16.15,0,0,1-8.86,2.39,15.66,15.66,0,0,1-8.86-2.53,14,14,0,0,1-5.47-6.83,19,19,0,0,1-1.07-5.58.7.7,0,0,1,.8-.79h7.83a.7.7,0,0,1,.8.79,12.53,12.53,0,0,0,.73,3.26,5.29,5.29,0,0,0,2,2.68,5.36,5.36,0,0,0,3.22,1,5.11,5.11,0,0,0,5.11-3.26,10.82,10.82,0,0,0,.93-4.64,11.45,11.45,0,0,0-1-5.11A5.27,5.27,0,0,0,556,102.8a3.18,3.18,0,0,0-1.53.43,20.57,20.57,0,0,0-1.92,1.23.92.92,0,0,1-.53.2.64.64,0,0,1-.6-.4l-3.92-5.51a.93.93,0,0,1,.14-1.13l10.55-9.23a.26.26,0,0,0,.1-.26c0-.09-.1-.13-.23-.13h-15.6a.82.82,0,0,1-.8-.8V80.76a.82.82,0,0,1,.8-.8H570.1a.74.74,0,0,1,.56.24.73.73,0,0,1,.23.56v7.3a1.39,1.39,0,0,1-.46,1l-8.7,8a.28.28,0,0,0-.09.27c0,.09.12.13.29.13a10.82,10.82,0,0,1,8.23,6.84A17.39,17.39,0,0,1,571.49,111.29Z"/><path class="cls-1" d="M353,61.87H357a.41.41,0,0,1,.3.12.4.4,0,0,1,.12.29V85.77a.4.4,0,0,1-.12.29.41.41,0,0,1-.3.12H353a.41.41,0,0,1-.3-.12.4.4,0,0,1-.12-.29V70.45c0-.1,0-.14-.07-.14s-.09,0-.14.1l-3.68,5.77a.57.57,0,0,1-.49.28h-2.05a.55.55,0,0,1-.48-.28L342,70.41c-.05-.07-.1-.1-.14-.09s-.07.07-.07.16V85.77a.4.4,0,0,1-.12.29.42.42,0,0,1-.3.12h-4.06a.41.41,0,0,1-.3-.12.4.4,0,0,1-.12-.29V62.28A.4.4,0,0,1,337,62a.41.41,0,0,1,.3-.12h4.06a.56.56,0,0,1,.49.27l5.21,8.1q.1.21.21,0l5.24-8.1A.56.56,0,0,1,353,61.87Z"/><path class="cls-1" d="M365.57,85.45a7.88,7.88,0,0,1-3.21-3.11,9,9,0,0,1-1.15-4.6V70.31a8.84,8.84,0,0,1,1.15-4.55,7.88,7.88,0,0,1,3.21-3.08,11.09,11.09,0,0,1,9.59,0,7.88,7.88,0,0,1,3.21,3.08,8.84,8.84,0,0,1,1.15,4.55v7.43a9.1,9.1,0,0,1-1.15,4.62,7.76,7.76,0,0,1-3.21,3.11,10.13,10.13,0,0,1-4.81,1.1A9.84,9.84,0,0,1,365.57,85.45Zm7.87-4.3a4.43,4.43,0,0,0,1.18-3.23V70.27A4.59,4.59,0,0,0,373.46,67a4.51,4.51,0,0,0-6.19,0,4.59,4.59,0,0,0-1.16,3.25v7.65a4.5,4.5,0,0,0,1.16,3.23,4.07,4.07,0,0,0,3.08,1.21A4.12,4.12,0,0,0,373.44,81.15Zm-5.31-21.58a.37.37,0,0,1,0-.35l1.84-3.5a.52.52,0,0,1,.52-.32H374a.36.36,0,0,1,.33.16.33.33,0,0,1-.05.36l-2.47,3.51a.53.53,0,0,1-.48.28h-2.92C368.28,59.71,368.17,59.67,368.13,59.57Z"/><path class="cls-1" d="M383.39,86.06a.4.4,0,0,1-.12-.29V62.28a.4.4,0,0,1,.12-.29.41.41,0,0,1,.3-.12h8.68a10.56,10.56,0,0,1,4.57.92,7.08,7.08,0,0,1,3,2.58,7,7,0,0,1,1.08,3.86v9.59A6.91,6.91,0,0,1,400,82.67a7,7,0,0,1-3,2.59,10.56,10.56,0,0,1-4.57.92h-8.68A.41.41,0,0,1,383.39,86.06ZM388.34,82h4.21a3.36,3.36,0,0,0,2.59-1.08,4.19,4.19,0,0,0,1-2.88V70a4.08,4.08,0,0,0-1-2.88,3.42,3.42,0,0,0-2.66-1.08h-4.17a.15.15,0,0,0-.17.17V81.81A.15.15,0,0,0,388.34,82Z"/><path class="cls-1" d="M408.86,85.42a7.61,7.61,0,0,1-3.16-2.94,8.26,8.26,0,0,1-1.13-4.36V62.28a.41.41,0,0,1,.41-.41h4.07a.38.38,0,0,1,.29.12.37.37,0,0,1,.13.29V78.16a3.88,3.88,0,0,0,4.1,4.1,3.88,3.88,0,0,0,4.1-4.1V62.28a.41.41,0,0,1,.41-.41h4.07a.41.41,0,0,1,.41.41V78.12a8.26,8.26,0,0,1-1.13,4.36,7.61,7.61,0,0,1-3.16,2.94,11.16,11.16,0,0,1-9.41,0Z"/><path class="cls-1" d="M426.72,86.06a.37.37,0,0,1-.13-.29V62.28a.37.37,0,0,1,.13-.29.38.38,0,0,1,.29-.12h4.07a.41.41,0,0,1,.41.41V81.81c0,.11.06.17.18.17H443a.4.4,0,0,1,.29.12.41.41,0,0,1,.12.3v3.37a.41.41,0,0,1-.41.41H427A.38.38,0,0,1,426.72,86.06Z"/><path class="cls-1" d="M450.06,85.45a7.88,7.88,0,0,1-3.21-3.11,9,9,0,0,1-1.15-4.6V70.31a8.84,8.84,0,0,1,1.15-4.55,7.88,7.88,0,0,1,3.21-3.08,11.09,11.09,0,0,1,9.59,0,7.88,7.88,0,0,1,3.21,3.08A8.84,8.84,0,0,1,464,70.31v7.43a9.1,9.1,0,0,1-1.15,4.62,7.76,7.76,0,0,1-3.21,3.11,10.13,10.13,0,0,1-4.81,1.1A9.84,9.84,0,0,1,450.06,85.45Zm7.87-4.3a4.43,4.43,0,0,0,1.18-3.23V70.27A4.59,4.59,0,0,0,458,67a4.1,4.1,0,0,0-3.11-1.23A4,4,0,0,0,451.76,67a4.59,4.59,0,0,0-1.16,3.25v7.65a4.5,4.5,0,0,0,1.16,3.23,4.07,4.07,0,0,0,3.08,1.21A4.12,4.12,0,0,0,457.93,81.15Z"/></g></g></svg>