<?xml version="1.0" encoding="utf-8"?>
<!-- Generator: Adobe Illustrator 24.0.2, SVG Export Plug-In . SVG Version: 6.00 Build 0)  -->
<svg version="1.1" id="Camada_1" xmlns="http://www.w3.org/2000/svg" xmlns:xlink="http://www.w3.org/1999/xlink" x="0px" y="0px"
	 viewBox="0 0 768.51 2188.3" style="enable-background:new 0 0 768.51 2188.3;" xml:space="preserve">
<style type="text/css">
	.st0{fill:#FFFCCC;}
	.st1{fill:#DBA723;}
	.st2{fill:#444444;}
	.st3{font-family:'Livvic-SemiBold';}
	.st4{font-size:22.8097px;}
	.st5{fill:#FFEE00;}
	.st6{font-family:'Livvic-Bold';}
	.st7{font-size:60.012px;}
	.st8{fill:#FFFFFF;}
	.st9{font-family:'Livvic-Medium';}
	.st10{font-size:26.0306px;}
</style>
<g>
	<path class="st0" d="M747.39,269.84H192.64c-10.97,0-19.87-8.89-19.87-19.87v-85.14c0-10.97,8.89-19.87,19.87-19.87h554.75
		c10.97,0,19.87,8.89,19.87,19.87v85.14C767.26,260.95,758.36,269.84,747.39,269.84z"/>
	<g>
		<polyline class="st1" points="320.59,144.97 320.59,127.94 331.2,144.97 		"/>
	</g>
	<path class="st0" d="M748.65,1322.11H193.89c-10.97,0-19.87-8.9-19.87-19.87v-85.14c0-10.97,8.89-19.87,19.87-19.87h554.75
		c10.97,0,19.87,8.89,19.87,19.87v85.14C768.51,1313.21,759.62,1322.11,748.65,1322.11z"/>
	<g>
		<polyline class="st1" points="321.85,1197.24 321.85,1180.21 332.46,1197.24 		"/>
	</g>
	<path class="st0" d="M748.65,1471.49H193.89c-10.97,0-19.87-8.89-19.87-19.87v-85.14c0-10.97,8.89-19.87,19.87-19.87h554.75
		c10.97,0,19.87,8.89,19.87,19.87v85.14C768.51,1462.6,759.62,1471.49,748.65,1471.49z"/>
	<g>
		<polyline class="st1" points="321.85,1346.62 321.85,1329.59 332.46,1346.62 		"/>
	</g>
	<path class="st0" d="M748.65,1622.52H193.89c-10.97,0-19.87-8.89-19.87-19.87v-85.14c0-10.97,8.89-19.87,19.87-19.87h554.75
		c10.97,0,19.87,8.9,19.87,19.87v85.14C768.51,1613.62,759.62,1622.52,748.65,1622.52z"/>
	<g>
		<polyline class="st1" points="321.85,1497.65 321.85,1480.62 332.46,1497.65 		"/>
	</g>
	<path class="st0" d="M741.46,1817.39H201.08c-14.94,0-27.05-12.11-27.05-27.05v-115.93c0-14.94,12.11-27.05,27.05-27.05h540.38
		c14.94,0,27.05,12.11,27.05,27.05v115.93C768.51,1805.28,756.4,1817.39,741.46,1817.39z"/>
	<g>
		<polyline class="st1" points="321.85,1647.36 321.85,1630.33 332.46,1647.36 		"/>
	</g>
	<path class="st0" d="M748.65,1969.7H193.89c-10.97,0-19.87-8.89-19.87-19.87v-85.14c0-10.97,8.89-19.87,19.87-19.87h554.75
		c10.97,0,19.87,8.89,19.87,19.87v85.14C768.51,1960.8,759.62,1969.7,748.65,1969.7z"/>
	<g>
		<polyline class="st1" points="321.85,1844.83 321.85,1827.8 332.46,1844.83 		"/>
	</g>
	<path class="st0" d="M738.37,2188.3h-534.2c-16.65,0-30.15-13.5-30.15-30.15v-129.19c0-16.65,13.5-30.15,30.15-30.15h534.19
		c16.65,0,30.15,13.5,30.15,30.15v129.19C768.51,2174.8,755.02,2188.3,738.37,2188.3z"/>
	<g>
		<polyline class="st1" points="321.85,1998.82 321.85,1981.79 332.46,1998.82 		"/>
	</g>
	<path class="st0" d="M747.39,420.38H192.64c-10.97,0-19.87-8.89-19.87-19.87v-85.14c0-10.97,8.89-19.87,19.87-19.87h554.75
		c10.97,0,19.87,8.89,19.87,19.87v85.14C767.26,411.48,758.36,420.38,747.39,420.38z"/>
	<g>
		<polyline class="st1" points="320.59,295.51 320.59,278.48 331.2,295.51 		"/>
	</g>
	<path class="st0" d="M747.39,570.09H192.64c-10.97,0-19.87-8.89-19.87-19.87v-85.14c0-10.97,8.89-19.87,19.87-19.87h554.75
		c10.97,0,19.87,8.89,19.87,19.87v85.14C767.26,561.19,758.36,570.09,747.39,570.09z"/>
	<g>
		<polyline class="st1" points="320.59,445.22 320.59,428.19 331.2,445.22 		"/>
	</g>
	<path class="st0" d="M747.39,718.81H192.64c-10.97,0-19.87-8.89-19.87-19.87V613.8c0-10.97,8.89-19.87,19.87-19.87h554.75
		c10.97,0,19.87,8.89,19.87,19.87v85.14C767.26,709.92,758.36,718.81,747.39,718.81z"/>
	<g>
		<polyline class="st1" points="320.59,593.94 320.59,576.92 331.2,593.94 		"/>
	</g>
	<path class="st0" d="M747.39,871.49H192.64c-10.97,0-19.87-8.89-19.87-19.87v-85.14c0-10.97,8.89-19.87,19.87-19.87h554.75
		c10.97,0,19.87,8.89,19.87,19.87v85.14C767.26,862.59,758.36,871.49,747.39,871.49z"/>
	<g>
		<polyline class="st1" points="320.59,746.62 320.59,729.59 331.2,746.62 		"/>
	</g>
	<path class="st0" d="M747.39,1021.53H192.64c-10.97,0-19.87-8.89-19.87-19.87v-85.14c0-10.97,8.89-19.87,19.87-19.87h554.75
		c10.97,0,19.87,8.89,19.87,19.87v85.14C767.26,1012.63,758.36,1021.53,747.39,1021.53z"/>
	<g>
		<polyline class="st1" points="320.59,896.66 320.59,879.63 331.2,896.66 		"/>
	</g>
	<path class="st0" d="M747.39,1171.9H192.64c-10.97,0-19.87-8.9-19.87-19.87v-85.14c0-10.97,8.89-19.87,19.87-19.87h554.75
		c10.97,0,19.87,8.89,19.87,19.87v85.14C767.26,1163,758.36,1171.9,747.39,1171.9z"/>
	<g>
		<polyline class="st1" points="320.59,1047.03 320.59,1030 331.2,1047.03 		"/>
	</g>
	<text transform="matrix(1 0 0 1 338.9136 199.7588)" class="st2 st3 st4">Foco em vários fatores de risco e </text>
	<text transform="matrix(1 0 0 1 338.9136 223.0688)" class="st2 st3 st4">proteção (multicompetente).</text>
	<g>
		<text transform="matrix(1 0 0 1 340.2739 331.3729)" class="st2 st3 st4">Trabalhar com a família, e não </text>
		<text transform="matrix(1 0 0 1 340.2739 354.683)" class="st2 st3 st4">somente com os jovens ou os pais, </text>
		<text transform="matrix(1 0 0 1 340.2739 377.983)" class="st2 st3 st4">enfatizando as forças, fatores </text>
		<text transform="matrix(1 0 0 1 340.2739 401.293)" class="st2 st3 st4">protetores e resilência.</text>
	</g>
	<g>
		<text transform="matrix(1 0 0 1 340.2739 479.9795)" class="st2 st3 st4">Incluir na intervenção técnicas para</text>
		<text transform="matrix(1 0 0 1 340.2739 503.2895)" class="st2 st3 st4">melhorar as relações familiares, a </text>
		<text transform="matrix(1 0 0 1 340.2739 526.5895)" class="st2 st3 st4">comunicação e o monitoramento</text>
		<text transform="matrix(1 0 0 1 340.2739 549.8995)" class="st2 st3 st4">parental.</text>
	</g>
	<text transform="matrix(1 0 0 1 338.9136 647.459)" class="st2 st3 st4">Visar a mudanças familiares em nível</text>
	<text transform="matrix(1 0 0 1 338.9136 670.769)" class="st2 st3 st4">cognitivo, afetivo e comportamental.</text>
	<text transform="matrix(1 0 0 1 338.9077 782.4834)" class="st2 st3 st4">Aumentar a duração da intervenção </text>
	<text transform="matrix(1 0 0 1 338.9077 805.7934)" class="st2 st3 st4">para familiares expostos a maiores </text>
	<text transform="matrix(1 0 0 1 338.9077 829.0934)" class="st2 st3 st4">fatores de risco e menores fatores </text>
	<text transform="matrix(1 0 0 1 338.9077 852.4034)" class="st2 st3 st4">de proteção.</text>
	<text transform="matrix(1 0 0 1 340.2739 952.2549)" class="st2 st3 st4">Ser adequada à idade e à fase de</text>
	<text transform="matrix(1 0 0 1 340.2739 975.5649)" class="st2 st3 st4">desenvolvimento do jovem.</text>
	<text transform="matrix(1 0 0 1 340.2739 1103.1982)" class="st2 st3 st4">Ser sensível às necessidades </text>
	<text transform="matrix(1 0 0 1 340.2739 1126.5082)" class="st2 st3 st4">da família.</text>
	<text transform="matrix(1 0 0 1 340.8511 1252.0303)" class="st2 st3 st4">Intervir precocemente em famílias</text>
	<text transform="matrix(1 0 0 1 340.8511 1275.3402)" class="st2 st3 st4">disfuncionais.</text>
	<text transform="matrix(1 0 0 1 340.8511 1389.5547)" class="st2 st3 st4">Adaptar a intervenção à cultura </text>
	<text transform="matrix(1 0 0 1 340.8511 1412.8646)" class="st2 st3 st4">local para melhorar o recrutamento, </text>
	<text transform="matrix(1 0 0 1 340.8511 1436.1647)" class="st2 st3 st4">adesão e efetividade.</text>
	<text transform="matrix(1 0 0 1 340.8511 1532.2461)" class="st2 st3 st4">Incentivar a participação e incentivar </text>
	<text transform="matrix(1 0 0 1 340.8511 1555.556)" class="st2 st3 st4">a adesão através do oferecimento </text>
	<text transform="matrix(1 0 0 1 340.8511 1578.8561)" class="st2 st3 st4">de transporte, lanches, premiações </text>
	<text transform="matrix(1 0 0 1 340.8511 1602.166)" class="st2 st3 st4">e certificações das famílias.</text>
	<text transform="matrix(1 0 0 1 340.8511 1680.8711)" class="st2 st3 st4">Os aplicadores contribuem para </text>
	<text transform="matrix(1 0 0 1 340.8511 1704.1812)" class="st2 st3 st4">a eficácia da intervenção quando </text>
	<text transform="matrix(1 0 0 1 340.8511 1727.4811)" class="st2 st3 st4">são confiantes, verdadeiros, cordi-</text>
	<text transform="matrix(1 0 0 1 340.8511 1750.7911)" class="st2 st3 st4">ais, bem-humorados, empáticos e </text>
	<text transform="matrix(1 0 0 1 340.8511 1774.1011)" class="st2 st3 st4">capazes de estruturar as sessões </text>
	<text transform="matrix(1 0 0 1 340.8511 1797.4011)" class="st2 st3 st4">e serem diretivos.</text>
	<text transform="matrix(1 0 0 1 340.8511 1887.4619)" class="st2 st3 st4">Ser interativos utilizando jogos e </text>
	<text transform="matrix(1 0 0 1 340.8511 1910.772)" class="st2 st3 st4">atividades lúdicas, em vez de </text>
	<text transform="matrix(1 0 0 1 340.8511 1934.0719)" class="st2 st3 st4">adotarem o modelo de palestra.</text>
	<text transform="matrix(1 0 0 1 340.8511 2044.04)" class="st2 st3 st4">Adotar um modelo colaborativo em </text>
	<text transform="matrix(1 0 0 1 340.8511 2067.3501)" class="st2 st3 st4">que as famílias sejam estimuladas </text>
	<text transform="matrix(1 0 0 1 340.8511 2090.6499)" class="st2 st3 st4">a encontrar soluções para seus </text>
	<text transform="matrix(1 0 0 1 340.8511 2113.96)" class="st2 st3 st4">próprios problemas e a refletir sobre </text>
	<text transform="matrix(1 0 0 1 340.8511 2137.27)" class="st2 st3 st4">seus relacionamentos sem que </text>
	<text transform="matrix(1 0 0 1 340.8511 2160.5701)" class="st2 st3 st4">recebem respostas prontas.</text>
	<path class="st5" d="M321.85,1329.59H219.33c-10.71,0-19.39,8.68-19.39,19.39v44.2h0.07c0.01,4.6,0.02,9.2,0.02,13.8
		c0.01,6.07,0.02,12.15,0.03,18.22c0.01,5.24,0.02,10.49,0.03,15.73c0.01,3.24-0.5,7.06,0.29,10.43c0.23,1,0.58,1.96,1.08,2.86
		c0.82,1.46,1.81,2.87,2.96,4.19c2.07,2.4,5.61,4.66,8.77,6.16c4.69,2.23,9.22,3.73,14.76,3.86c5.13,0.11,10.26-0.78,14.97-2.33
		c1.13-0.37,2.23-0.78,3.29-1.25c4.04-1.81,6.36-4.81,9.17-7.71c2.37-2.45,4.03-5.34,4.77-8.36c0.07-0.28,0.11-0.58,0.11-0.87
		c0.18-6.33-1.88-11.68-3.74-17.66c-2.63-8.45-7.56-16.62,2.15-22.56c1.39-0.85,2.9-1.62,4.6-1.99c1.24-0.27,2.54-0.33,3.83-0.34
		c6.2-0.06,16.37,1.02,18.6,8.23c0.23,0.75,0.29,1.55,0.31,2.33c0.17,4.89-1.86,8.88-2.05,13.68c-0.17,4.06,1.02,8.31,4.39,11.39
		c0.56,0.51,1.18,0.99,1.84,1.42c1.72,1.12,3.76,1.94,5.93,2.37c2.08,0.42,4.26,0.48,6.38,0.5c2.22,0.02,4.44-0.11,6.64-0.41
		c1.4-0.19,2.87-0.36,4.14-0.89c1.06-0.44,1.93-1.1,2.76-1.77c4.6-3.77,5.79-7.54,5.79-12.57c0-10.48,0-20.96,0-31.43
		c0-1.73,0-3.46,0-5.19v-17.23v-46.2H321.85z"/>
	<text transform="matrix(1 0 0 1 225.5474 1391.9014)" class="st1 st6 st7">09</text>
	<path class="st5" d="M321.85,1480.62H219.33c-10.71,0-19.39,8.68-19.39,19.39v44.2h0.07c0.01,4.6,0.02,9.2,0.02,13.8
		c0.01,6.07,0.02,12.15,0.03,18.22c0.01,5.24,0.02,10.49,0.03,15.73c0.01,3.24-0.5,7.06,0.29,10.43c0.23,1,0.58,1.96,1.08,2.86
		c0.82,1.46,1.81,2.87,2.96,4.19c2.07,2.4,5.61,4.66,8.77,6.16c4.69,2.22,9.22,3.73,14.76,3.86c5.13,0.11,10.26-0.78,14.97-2.33
		c1.13-0.37,2.23-0.78,3.29-1.25c4.04-1.81,6.36-4.81,9.17-7.71c2.37-2.45,4.03-5.34,4.77-8.36c0.07-0.28,0.11-0.58,0.11-0.87
		c0.18-6.33-1.88-11.68-3.74-17.66c-2.63-8.45-7.56-16.62,2.15-22.56c1.39-0.85,2.9-1.62,4.6-1.99c1.24-0.27,2.54-0.33,3.83-0.34
		c6.2-0.06,16.37,1.02,18.6,8.23c0.23,0.75,0.29,1.55,0.31,2.33c0.17,4.89-1.86,8.88-2.05,13.68c-0.17,4.06,1.02,8.31,4.39,11.39
		c0.56,0.51,1.18,0.99,1.84,1.42c1.72,1.12,3.76,1.94,5.93,2.37c2.08,0.42,4.26,0.48,6.38,0.5c2.22,0.02,4.44-0.11,6.64-0.41
		c1.4-0.19,2.87-0.36,4.14-0.89c1.06-0.44,1.93-1.1,2.76-1.77c4.6-3.77,5.79-7.54,5.79-12.57c0-10.48,0-20.96,0-31.43
		c0-1.73,0-3.46,0-5.19v-17.23v-46.2H321.85z"/>
	<text transform="matrix(1 0 0 1 225.5474 1542.9229)" class="st1 st6 st7">10</text>
	<path class="st5" d="M321.85,1630.3H219.33c-10.71,0-19.39,8.68-19.39,19.39v44.2h0.07c0.01,4.6,0.02,9.2,0.02,13.8
		c0.01,6.07,0.02,12.15,0.03,18.22c0.01,5.24,0.02,10.49,0.03,15.73c0.01,3.24-0.5,7.06,0.29,10.43c0.23,1,0.58,1.96,1.08,2.86
		c0.82,1.46,1.81,2.87,2.96,4.19c2.07,2.4,5.61,4.66,8.77,6.16c4.69,2.22,9.22,3.73,14.76,3.86c5.13,0.11,10.26-0.78,14.97-2.33
		c1.13-0.37,2.23-0.78,3.29-1.25c4.04-1.81,6.36-4.81,9.17-7.71c2.37-2.45,4.03-5.34,4.77-8.36c0.07-0.28,0.11-0.58,0.11-0.87
		c0.18-6.33-1.88-11.68-3.74-17.66c-2.63-8.45-7.56-16.62,2.15-22.56c1.39-0.85,2.9-1.62,4.6-1.99c1.24-0.27,2.54-0.33,3.83-0.34
		c6.2-0.06,16.37,1.02,18.6,8.23c0.23,0.75,0.29,1.55,0.31,2.33c0.17,4.89-1.86,8.88-2.05,13.68c-0.17,4.06,1.02,8.31,4.39,11.39
		c0.56,0.51,1.18,0.99,1.84,1.42c1.72,1.12,3.76,1.94,5.93,2.37c2.08,0.42,4.26,0.48,6.38,0.5c2.22,0.02,4.44-0.11,6.64-0.41
		c1.4-0.19,2.87-0.36,4.14-0.89c1.06-0.44,1.93-1.1,2.76-1.77c4.6-3.77,5.79-7.54,5.79-12.57c0-10.48,0-20.96,0-31.43
		c0-1.73,0-3.46,0-5.19v-17.23v-46.2H321.85z"/>
	<text transform="matrix(1 0 0 1 225.5474 1692.6074)" class="st1 st6 st7">11</text>
	<path class="st5" d="M321.83,1827.8H219.32c-10.71,0-19.39,8.68-19.39,19.39v44.2H200c0.01,4.6,0.02,9.2,0.02,13.8
		c0.01,6.07,0.02,12.15,0.03,18.22c0.01,5.24,0.02,10.49,0.03,15.73c0.01,3.24-0.5,7.06,0.29,10.43c0.23,1,0.58,1.96,1.08,2.86
		c0.82,1.46,1.81,2.87,2.96,4.19c2.07,2.4,5.61,4.66,8.77,6.16c4.69,2.22,9.22,3.73,14.76,3.86c5.13,0.11,10.26-0.78,14.97-2.33
		c1.13-0.37,2.23-0.78,3.29-1.25c4.04-1.81,6.36-4.81,9.17-7.71c2.37-2.45,4.03-5.34,4.77-8.36c0.07-0.28,0.11-0.58,0.11-0.87
		c0.18-6.33-1.88-11.68-3.74-17.66c-2.63-8.45-7.56-16.62,2.15-22.56c1.39-0.85,2.9-1.62,4.6-1.99c1.24-0.27,2.54-0.33,3.83-0.34
		c6.2-0.06,16.37,1.02,18.6,8.23c0.23,0.75,0.29,1.55,0.31,2.33c0.17,4.89-1.86,8.88-2.05,13.68c-0.17,4.06,1.02,8.31,4.39,11.39
		c0.56,0.51,1.18,0.99,1.84,1.42c1.72,1.12,3.76,1.94,5.93,2.37c2.08,0.42,4.26,0.48,6.38,0.5c2.22,0.02,4.44-0.11,6.64-0.41
		c1.4-0.19,2.87-0.36,4.14-0.89c1.06-0.44,1.93-1.1,2.76-1.77c4.6-3.77,5.79-7.54,5.79-12.57c0-10.48,0-20.96,0-31.43
		c0-1.73,0-3.46,0-5.19V1874L321.83,1827.8L321.83,1827.8z"/>
	<text transform="matrix(1 0 0 1 225.5386 1890.1045)" class="st1 st6 st7">12</text>
	<path class="st5" d="M321.8,1981.66H219.28c-10.71,0-19.39,8.68-19.39,19.39v44.2h0.07c0.01,4.6,0.02,9.2,0.02,13.8
		c0.01,6.07,0.02,12.15,0.03,18.22c0.01,5.24,0.02,10.49,0.03,15.73c0.01,3.24-0.5,7.06,0.29,10.43c0.23,1,0.58,1.96,1.08,2.86
		c0.82,1.46,1.81,2.87,2.96,4.19c2.07,2.4,5.61,4.66,8.77,6.16c4.69,2.23,9.22,3.73,14.76,3.86c5.13,0.11,10.26-0.78,14.97-2.33
		c1.13-0.37,2.23-0.78,3.29-1.25c4.04-1.81,6.36-4.81,9.17-7.71c2.37-2.46,4.03-5.34,4.77-8.36c0.07-0.28,0.11-0.58,0.11-0.87
		c0.18-6.33-1.88-11.68-3.74-17.66c-2.63-8.45-7.56-16.62,2.15-22.56c1.39-0.85,2.9-1.62,4.6-1.99c1.24-0.27,2.54-0.33,3.83-0.34
		c6.2-0.06,16.37,1.02,18.6,8.23c0.23,0.75,0.29,1.55,0.31,2.33c0.17,4.89-1.86,8.88-2.05,13.68c-0.17,4.06,1.02,8.31,4.39,11.39
		c0.56,0.51,1.18,0.99,1.84,1.42c1.72,1.12,3.76,1.94,5.93,2.37c2.08,0.42,4.26,0.48,6.38,0.5c2.22,0.02,4.44-0.11,6.64-0.41
		c1.4-0.19,2.87-0.36,4.14-0.89c1.06-0.44,1.93-1.1,2.76-1.77c4.6-3.77,5.79-7.54,5.79-12.57c0-10.48,0-20.96,0-31.43
		c0-1.73,0-3.46,0-5.19v-17.23v-46.2H321.8z"/>
	<text transform="matrix(1 0 0 1 225.4976 2043.959)" class="st1 st6 st7">13</text>
	<path class="st5" d="M321.67,1180.21H219.15c-10.71,0-19.39,8.68-19.39,19.39v44.2h0.07c0.01,4.6,0.02,9.2,0.02,13.8
		c0.01,6.07,0.02,12.15,0.03,18.22c0.01,5.24,0.02,10.49,0.03,15.73c0.01,3.24-0.5,7.06,0.29,10.43c0.23,1,0.58,1.96,1.08,2.86
		c0.82,1.46,1.81,2.87,2.96,4.19c2.07,2.4,5.61,4.66,8.77,6.16c4.69,2.23,9.22,3.73,14.76,3.86c5.13,0.11,10.26-0.78,14.97-2.33
		c1.13-0.37,2.23-0.78,3.29-1.25c4.04-1.81,6.36-4.81,9.17-7.71c2.37-2.45,4.03-5.34,4.77-8.36c0.07-0.28,0.11-0.58,0.11-0.87
		c0.18-6.33-1.88-11.68-3.74-17.66c-2.63-8.45-7.56-16.62,2.15-22.56c1.39-0.85,2.9-1.62,4.6-1.99c1.24-0.27,2.54-0.33,3.83-0.34
		c6.2-0.06,16.37,1.02,18.6,8.23c0.23,0.75,0.29,1.55,0.31,2.33c0.17,4.89-1.86,8.88-2.05,13.68c-0.17,4.06,1.02,8.31,4.39,11.39
		c0.56,0.51,1.18,0.99,1.84,1.42c1.72,1.12,3.76,1.94,5.93,2.37c2.08,0.42,4.26,0.48,6.38,0.5c2.22,0.02,4.44-0.11,6.64-0.41
		c1.4-0.19,2.87-0.36,4.14-0.89c1.06-0.44,1.93-1.1,2.76-1.77c4.6-3.77,5.79-7.54,5.79-12.57c0-10.48,0-20.96,0-31.43
		c0-1.73,0-3.46,0-5.19v-17.23v-46.2H321.67z"/>
	<text transform="matrix(1 0 0 1 225.3696 1242.5127)" class="st1 st6 st7">08</text>
	<path class="st5" d="M320.59,127.94H218.07c-10.71,0-19.39,8.68-19.39,19.39v44.2h0.07c0.01,4.6,0.02,9.2,0.02,13.8
		c0.01,6.07,0.02,12.15,0.03,18.22c0.01,5.24,0.02,10.49,0.03,15.73c0.01,3.24-0.5,7.06,0.29,10.43c0.23,1,0.58,1.96,1.08,2.86
		c0.82,1.46,1.81,2.87,2.96,4.19c2.07,2.4,5.61,4.66,8.77,6.16c4.69,2.23,9.22,3.73,14.76,3.86c5.13,0.11,10.26-0.78,14.97-2.33
		c1.13-0.37,2.23-0.78,3.29-1.25c4.04-1.81,6.36-4.81,9.17-7.71c2.37-2.45,4.03-5.34,4.77-8.36c0.07-0.28,0.11-0.58,0.11-0.87
		c0.18-6.33-1.88-11.68-3.74-17.66c-2.63-8.45-7.56-16.62,2.15-22.56c1.39-0.85,2.9-1.62,4.6-1.99c1.24-0.27,2.54-0.33,3.83-0.34
		c6.2-0.06,16.37,1.02,18.6,8.23c0.23,0.75,0.29,1.55,0.31,2.33c0.17,4.89-1.86,8.88-2.05,13.68c-0.17,4.06,1.02,8.31,4.39,11.39
		c0.56,0.51,1.18,0.99,1.84,1.42c1.72,1.12,3.76,1.94,5.93,2.37c2.08,0.42,4.26,0.48,6.38,0.5c2.22,0.02,4.44-0.11,6.64-0.41
		c1.4-0.19,2.87-0.36,4.14-0.89c1.06-0.44,1.93-1.1,2.76-1.77c4.6-3.77,5.79-7.54,5.79-12.57c0-10.48,0-20.96,0-31.43
		c0-1.73,0-3.46,0-5.19v-17.23v-46.2H320.59z"/>
	<text transform="matrix(1 0 0 1 224.2935 190.251)" class="st1 st6 st7">01</text>
	<path class="st5" d="M320.59,278.07H218.07c-10.71,0-19.39,8.68-19.39,19.39v44.2h0.07c0.01,4.6,0.02,9.2,0.02,13.8
		c0.01,6.07,0.02,12.15,0.03,18.22c0.01,5.24,0.02,10.49,0.03,15.73c0.01,3.24-0.5,7.06,0.29,10.43c0.23,1,0.58,1.96,1.08,2.86
		c0.82,1.46,1.81,2.87,2.96,4.19c2.07,2.4,5.61,4.66,8.77,6.16c4.69,2.23,9.22,3.73,14.76,3.86c5.13,0.11,10.26-0.78,14.97-2.33
		c1.13-0.37,2.23-0.78,3.29-1.25c4.04-1.81,6.36-4.81,9.17-7.71c2.37-2.45,4.03-5.34,4.77-8.36c0.07-0.28,0.11-0.58,0.11-0.87
		c0.18-6.33-1.88-11.68-3.74-17.66c-2.63-8.45-7.56-16.62,2.15-22.56c1.39-0.85,2.9-1.62,4.6-1.99c1.24-0.27,2.54-0.33,3.83-0.34
		c6.2-0.06,16.37,1.02,18.6,8.23c0.23,0.75,0.29,1.55,0.31,2.33c0.17,4.89-1.86,8.88-2.05,13.68c-0.17,4.06,1.02,8.31,4.39,11.39
		c0.56,0.51,1.18,0.99,1.84,1.42c1.72,1.12,3.76,1.94,5.93,2.37c2.08,0.42,4.26,0.48,6.38,0.5c2.22,0.02,4.44-0.11,6.64-0.41
		c1.4-0.19,2.87-0.36,4.14-0.89c1.06-0.44,1.93-1.1,2.76-1.77c4.6-3.77,5.79-7.54,5.79-12.57c0-10.48,0-20.96,0-31.43
		c0-1.73,0-3.46,0-5.19v-17.23v-46.2H320.59z"/>
	<text transform="matrix(1 0 0 1 224.2935 340.3721)" class="st1 st6 st7">02</text>
	<path class="st5" d="M320.59,427.49H218.07c-10.71,0-19.39,8.68-19.39,19.39v44.2h0.07c0.01,4.6,0.02,9.2,0.02,13.8
		c0.01,6.07,0.02,12.15,0.03,18.22c0.01,5.24,0.02,10.49,0.03,15.73c0.01,3.24-0.5,7.06,0.29,10.43c0.23,1,0.58,1.96,1.08,2.86
		c0.82,1.46,1.81,2.87,2.96,4.19c2.07,2.4,5.61,4.66,8.77,6.16c4.69,2.23,9.22,3.73,14.76,3.86c5.13,0.11,10.26-0.78,14.97-2.33
		c1.13-0.37,2.23-0.78,3.29-1.25c4.04-1.81,6.36-4.81,9.17-7.71c2.37-2.45,4.03-5.34,4.77-8.36c0.07-0.28,0.11-0.58,0.11-0.87
		c0.18-6.33-1.88-11.68-3.74-17.66c-2.63-8.45-7.56-16.62,2.15-22.56c1.39-0.85,2.9-1.62,4.6-1.99c1.24-0.27,2.54-0.33,3.83-0.34
		c6.2-0.06,16.37,1.02,18.6,8.23c0.23,0.75,0.29,1.55,0.31,2.33c0.17,4.89-1.86,8.88-2.05,13.68c-0.17,4.06,1.02,8.31,4.39,11.39
		c0.56,0.51,1.18,0.99,1.84,1.42c1.72,1.12,3.76,1.94,5.93,2.37c2.08,0.42,4.26,0.48,6.38,0.5c2.22,0.02,4.44-0.11,6.64-0.41
		c1.4-0.19,2.87-0.36,4.14-0.89c1.06-0.44,1.93-1.1,2.76-1.77c4.6-3.77,5.79-7.54,5.79-12.57c0-10.48,0-20.96,0-31.43
		c0-1.73,0-3.46,0-5.19v-17.23v-46.2H320.59z"/>
	<text transform="matrix(1 0 0 1 224.2935 489.7988)" class="st1 st6 st7">03</text>
	<path class="st5" d="M320.59,577H218.07c-10.71,0-19.39,8.68-19.39,19.39v44.2h0.07c0.01,4.6,0.02,9.2,0.02,13.8
		c0.01,6.07,0.02,12.15,0.03,18.22c0.01,5.24,0.02,10.49,0.03,15.73c0.01,3.24-0.5,7.06,0.29,10.43c0.23,1,0.58,1.96,1.08,2.86
		c0.82,1.46,1.81,2.87,2.96,4.19c2.07,2.4,5.61,4.66,8.77,6.16c4.69,2.22,9.22,3.73,14.76,3.86c5.13,0.11,10.26-0.78,14.97-2.33
		c1.13-0.37,2.23-0.78,3.29-1.25c4.04-1.81,6.36-4.81,9.17-7.71c2.37-2.45,4.03-5.34,4.77-8.36c0.07-0.28,0.11-0.58,0.11-0.87
		c0.18-6.33-1.88-11.68-3.74-17.66c-2.63-8.45-7.56-16.62,2.15-22.56c1.39-0.85,2.9-1.62,4.6-1.99c1.24-0.27,2.54-0.33,3.83-0.34
		c6.2-0.06,16.37,1.02,18.6,8.23c0.23,0.75,0.29,1.55,0.31,2.33c0.17,4.89-1.86,8.88-2.05,13.68c-0.17,4.06,1.02,8.31,4.39,11.39
		c0.56,0.51,1.18,0.99,1.84,1.42c1.72,1.12,3.76,1.94,5.93,2.37c2.08,0.42,4.26,0.48,6.38,0.5c2.22,0.02,4.44-0.11,6.64-0.41
		c1.4-0.19,2.87-0.36,4.14-0.89c1.06-0.44,1.93-1.1,2.76-1.77c4.6-3.77,5.79-7.54,5.79-12.57c0-10.48,0-20.96,0-31.43
		c0-1.73,0-3.46,0-5.19V623.2V577H320.59z"/>
	<text transform="matrix(1 0 0 1 224.2935 639.3008)" class="st1 st6 st7">04</text>
	<path class="st5" d="M320.59,729.58H218.07c-10.71,0-19.39,8.68-19.39,19.39v44.2h0.07c0.01,4.6,0.02,9.2,0.02,13.8
		c0.01,6.07,0.02,12.15,0.03,18.22c0.01,5.24,0.02,10.49,0.03,15.73c0.01,3.24-0.5,7.06,0.29,10.43c0.23,1,0.58,1.96,1.08,2.86
		c0.82,1.46,1.81,2.87,2.96,4.19c2.07,2.4,5.61,4.66,8.77,6.16c4.69,2.23,9.22,3.73,14.76,3.86c5.13,0.11,10.26-0.78,14.97-2.33
		c1.13-0.37,2.23-0.78,3.29-1.25c4.04-1.81,6.36-4.81,9.17-7.71c2.37-2.45,4.03-5.34,4.77-8.36c0.07-0.28,0.11-0.58,0.11-0.87
		c0.18-6.33-1.88-11.68-3.74-17.66c-2.63-8.45-7.56-16.62,2.15-22.56c1.39-0.85,2.9-1.62,4.6-1.99c1.24-0.27,2.54-0.33,3.83-0.34
		c6.2-0.06,16.37,1.02,18.6,8.23c0.23,0.75,0.29,1.55,0.31,2.33c0.17,4.89-1.86,8.88-2.05,13.68c-0.17,4.06,1.02,8.31,4.39,11.39
		c0.56,0.51,1.18,0.99,1.84,1.42c1.72,1.12,3.76,1.94,5.93,2.37c2.08,0.42,4.26,0.48,6.38,0.5c2.22,0.02,4.44-0.11,6.64-0.41
		c1.4-0.19,2.87-0.36,4.14-0.89c1.06-0.44,1.93-1.1,2.76-1.77c4.6-3.77,5.79-7.54,5.79-12.57c0-10.48,0-20.96,0-31.43
		c0-1.73,0-3.46,0-5.19v-17.23v-46.2H320.59z"/>
	<text transform="matrix(1 0 0 1 224.2935 791.8906)" class="st1 st6 st7">05</text>
	<path class="st5" d="M320.59,879.79H218.07c-10.71,0-19.39,8.68-19.39,19.39v44.2h0.07c0.01,4.6,0.02,9.2,0.02,13.8
		c0.01,6.07,0.02,12.15,0.03,18.22c0.01,5.24,0.02,10.49,0.03,15.73c0.01,3.24-0.5,7.06,0.29,10.43c0.23,1,0.58,1.96,1.08,2.86
		c0.82,1.46,1.81,2.87,2.96,4.19c2.07,2.4,5.61,4.66,8.77,6.16c4.69,2.23,9.22,3.73,14.76,3.86c5.13,0.11,10.26-0.78,14.97-2.33
		c1.13-0.37,2.23-0.78,3.29-1.25c4.04-1.81,6.36-4.81,9.17-7.71c2.37-2.45,4.03-5.34,4.77-8.36c0.07-0.28,0.11-0.58,0.11-0.87
		c0.18-6.33-1.88-11.68-3.74-17.66c-2.63-8.45-7.56-16.62,2.15-22.56c1.39-0.85,2.9-1.62,4.6-1.99c1.24-0.27,2.54-0.33,3.83-0.34
		c6.2-0.06,16.37,1.02,18.6,8.23c0.23,0.75,0.29,1.55,0.31,2.33c0.17,4.89-1.86,8.88-2.05,13.68c-0.17,4.06,1.02,8.31,4.39,11.39
		c0.56,0.51,1.18,0.99,1.84,1.42c1.72,1.12,3.76,1.94,5.93,2.37c2.08,0.42,4.26,0.48,6.38,0.5c2.22,0.02,4.44-0.11,6.64-0.41
		c1.4-0.19,2.87-0.36,4.14-0.89c1.06-0.44,1.93-1.1,2.76-1.77c4.6-3.77,5.79-7.54,5.79-12.57c0-10.48,0-20.96,0-31.43
		c0-1.73,0-3.46,0-5.19v-17.23v-46.2H320.59z"/>
	<text transform="matrix(1 0 0 1 224.2935 942.0938)" class="st1 st6 st7">06</text>
	<path class="st5" d="M320.59,1030H218.07c-10.71,0-19.39,8.68-19.39,19.39v44.2h0.07c0.01,4.6,0.02,9.2,0.02,13.8
		c0.01,6.07,0.02,12.15,0.03,18.22c0.01,5.24,0.02,10.49,0.03,15.73c0.01,3.24-0.5,7.06,0.29,10.43c0.23,1,0.58,1.96,1.08,2.86
		c0.82,1.46,1.81,2.87,2.96,4.19c2.07,2.4,5.61,4.66,8.77,6.16c4.69,2.23,9.22,3.73,14.76,3.86c5.13,0.11,10.26-0.78,14.97-2.33
		c1.13-0.37,2.23-0.78,3.29-1.25c4.04-1.81,6.36-4.81,9.17-7.71c2.37-2.45,4.03-5.34,4.77-8.36c0.07-0.28,0.11-0.58,0.11-0.87
		c0.18-6.33-1.88-11.68-3.74-17.66c-2.63-8.45-7.56-16.62,2.15-22.56c1.39-0.85,2.9-1.62,4.6-1.99c1.24-0.27,2.54-0.33,3.83-0.34
		c6.2-0.06,16.37,1.02,18.6,8.23c0.23,0.75,0.29,1.55,0.31,2.33c0.17,4.89-1.86,8.88-2.05,13.68c-0.17,4.06,1.02,8.31,4.39,11.39
		c0.56,0.51,1.18,0.99,1.84,1.42c1.72,1.12,3.76,1.94,5.93,2.37c2.08,0.42,4.26,0.48,6.38,0.5c2.22,0.02,4.44-0.11,6.64-0.41
		c1.4-0.19,2.87-0.36,4.14-0.89c1.06-0.44,1.93-1.1,2.76-1.77c4.6-3.77,5.79-7.54,5.79-12.57c0-10.48,0-20.96,0-31.43
		c0-1.73,0-3.46,0-5.19v-17.23V1030H320.59z"/>
	<text transform="matrix(1 0 0 1 224.2935 1092.3057)" class="st1 st6 st7">07</text>
	<path class="st1" d="M356.63,57.53c-1.48-3-1.02-6.11-0.58-9.12c0.24-1.61,0.48-3.28,0.43-4.92c-0.07-2.24-0.7-4.56-7.33-6.26
		c-6.2-1.59-16.04-2.17-23.94-2.63c-14.72-0.86-28.99-0.76-44.08-0.65c-3.51,0.03-7.14,0.05-10.74,0.06h-0.25
		c-16.89,0.06-79.16,0.12-96.32,0.12H59.42c-11.02,0-23.82,0.14-35.16,1.19c-4.88,0.45-10.42,0.94-14.99,2.53
		c-4.29,1.5-5.35,4.36-6.11,8.05c-0.44,2.14-0.89,4.27-1.33,6.41c-0.85,4.1-1.69,8.39-0.17,12.35c0.4,1.05,0.99,2.09,1.97,2.83
		c0.95,0.72,2.19,1.11,3.41,1.45c9.21,2.56,19.59,2.96,29.19,2.99c38.57,0.12,76.29,0.22,113.62,0.19
		c17.45-0.01,35.19,0.13,52.35,0.27c16.41,0.14,33.28,0.27,50.06,0.27c3.23,0,6.45-0.01,9.67-0.02c17.87-0.06,33.65-0.16,48.26-0.3
		c1.05-0.01,2.09-0.02,3.11-0.03c12.54-0.1,23.37-0.19,33.53-2.45c6.1-1.36,9.61-3.3,10.73-5.95
		C358.47,61.8,357.65,59.6,356.63,57.53z"/>
	<g>
		<text transform="matrix(1 0 0 1 11.0807 61.1688)" class="st8 st9 st10">de intervenção com famílias</text>
	</g>
	<text transform="matrix(1 0 0 1 1.0421 22.256)" class="st1 st6 st10">ASPECTOS CENTRAIS PARA O SUCESSO</text>
</g>
</svg>
