<?xml version="1.0" encoding="utf-8"?>
<!-- Generator: Adobe Illustrator 24.0.1, SVG Export Plug-In . SVG Version: 6.00 Build 0)  -->
<svg version="1.1" id="Camada_1" xmlns="http://www.w3.org/2000/svg" xmlns:xlink="http://www.w3.org/1999/xlink" x="0px" y="0px"
	 viewBox="0 0 476.4 92.6" style="enable-background:new 0 0 476.4 92.6;" xml:space="preserve">
<style type="text/css">
	.st0{fill:#CDECF5;}
	.st1{fill:none;}
	.st2{fill:#0092B4;}
	.st3{fill:#00ADEF;}
	.st4{fill:#FFFFFF;}
</style>
<path class="st0" d="M458.7,0.3V0.2h-0.4c-0.1,0-0.3-0.1-0.4-0.1c-0.8-0.2-6.2,0-7,0.1H82c-0.1,0-0.2,0-0.3,0h-69
	C5.7,0.2,0,5.9,0,12.9v67c0,7,5.7,12.7,12.7,12.7h69c0.1,0,0.3,0,0.4,0c8.9,0,23.2,0,23.8-0.1h331.7l0,0c0.7,0.1,4.7-0.4,5.2-0.5
	c6.7-1.3,11.7-7,11.7-14.1c0-7-5-12.9-11.7-14.2c-0.5-0.1-1.6-0.2-2.7-0.1c-1,0-1.9,0.2-2,0.2c-6.1,1.2-13.2,2.7-16.9,3.4
	c-0.7,0.1-1.7,0.3-2.7,0.4c-1.1,0.1-2.2,0-2.7-0.1c-6.7-1.3-11.7-7.2-11.7-14.2s5-12.9,11.7-14.2c0.5-0.1,1.6-0.2,2.7-0.1
	c1,0,1.9,0.2,2.7,0.4c10.9,2.2,22.2,4.5,28,5.7c1.2,0.2,2.7,0.5,4.2,0.6c1.8,0.1,3.5,0,4.3-0.2c10.6-2.1,18.6-11.4,18.6-22.6
	C476.4,11.8,468.8,2.7,458.7,0.3z"/>
<g>
	<rect x="117.4" y="38.8" class="st1" width="256.2" height="27.1"/>
	<path class="st2" d="M128,52.2c-0.6,0.1-1.3,0.2-1.9,0.2c-0.7,0.1-1.3,0.1-1.9,0.2h0c-0.1,1.3-0.2,2.5-0.2,3.8c0,1.3,0,2.4-0.1,3.6
		c-0.4,0-0.9,0.1-1.4,0.1c-0.6,0-1.1,0-1.6,0s-1,0-1.4,0c-0.4,0-0.7,0-0.7-0.1l0,0c0-1.2,0-2.3,0-3.4c0-1,0-2.1,0-3c0-1,0-2,0-3
		c0-1,0-2,0-3.1c0-1.1,0-2.3,0-3.6s0-2.7,0-4.2v0c0.3-0.1,0.8-0.1,1.5-0.2c0.6-0.1,1.4-0.1,2.2-0.2c0.8-0.1,1.7-0.1,2.6-0.1
		c0.9,0,1.8,0,2.7,0c0.9,0,1.7,0.1,2.5,0.1c0.8,0.1,1.4,0.2,2,0.3c0,0.3,0,0.6,0,1c0,0.4,0,0.8,0,1.2c0,0.4,0,0.8,0,1.2s0,0.7,0,1
		c-0.5,0-1.1,0.1-1.8,0.1s-1.4,0.1-2.1,0.1c-0.7,0-1.4,0.1-2.1,0.1c-0.7,0-1.4,0.1-2,0.2c-0.2,0.5-0.3,1-0.3,1.5
		c0,0.5,0.1,0.9,0.3,1.2c0,0,0,0,0.1,0c0.3,0,0.6,0.1,0.9,0.1c0.3,0,0.7,0,1,0c0.3,0,0.7,0,1,0s0.6,0,0.8-0.1
		c0.1,0.1,0.1,0.4,0.1,0.8s0,0.8,0,1.3c0,0.5,0,1,0,1.5C128,51.3,128,51.8,128,52.2C128.1,52.2,128.1,52.2,128,52.2z"/>
	<path class="st2" d="M138.2,38.9h0.7V39c0,1.7,0,3.5-0.1,5.2c-0.1,1.7-0.1,3.5-0.1,5.2c0,1.8,0,3.5,0,5.2c0,1.7,0.1,3.5,0.2,5.2
		c-0.2,0.2-0.5,0.3-1,0.3s-1.1,0-1.6,0c-0.6,0-1.2,0-1.7-0.1c-0.5,0-0.9,0-1.1,0c0.1-1.8,0.2-3.6,0.2-5.4c0-1.8-0.1-3.6-0.1-5.4
		c-0.1-1.8-0.1-3.6-0.1-5.3s0.1-3.5,0.3-5.1v-0.1c0.1,0,0.3,0,0.6,0c0.3,0,0.5,0,0.6,0c0.4,0,0.8,0,1.2,0.1
		C136.6,38.9,137.3,38.9,138.2,38.9z"/>
	<path class="st2" d="M153.7,57.3c0,0.7,0.1,1.3,0.1,1.6c0,0.4,0,0.6-0.1,0.8s-0.1,0.3-0.3,0.3c-0.1,0-0.3,0-0.5,0
		c-0.2,0-0.5,0-0.9,0c-0.4,0-0.9,0-1.8,0.1c-0.8,0-2,0-3.4,0s-3.4,0-5.8-0.1v-0.5c0.1-1.5,0.1-2.9,0.1-4.1c0-1.2,0.1-2.3,0.1-3.4
		c0-1.1,0-2.1,0-3c0-1,0-2,0-3c0-1,0-2.1-0.1-3.3c0-1.1,0-2.4-0.1-3.8c0.2-0.1,0.5-0.1,0.9-0.2s0.9-0.1,1.4-0.1s0.9,0,1.4,0.1
		c0.5,0.1,0.8,0.2,1.1,0.3c0,1.3-0.1,2.6,0,4s0,2.7,0,4.1c0,1.4,0,2.8,0,4.1c0,1.4,0,2.7,0,4v0c0.1,0,0.4-0.1,0.8,0s0.8,0,1.4,0
		c0.5,0,1.1,0,1.7,0.1c0.6,0,1.1,0.1,1.7,0.1c0.5,0,1,0,1.4,0c0.4,0,0.7,0,0.9,0c0,0.2,0,0.4,0,0.7c0,0.2,0,0.4,0,0.6
		S153.7,57.1,153.7,57.3z"/>
	<path class="st2" d="M167.1,38.8l0.8,21c-0.3,0.1-0.7,0.1-1.1,0.1c-0.4,0-0.8,0-1.1,0s-0.7,0-1.1,0c-0.4,0-0.6,0-0.9,0h0
		c-0.1-0.7-0.2-1.3-0.2-2.1c0-0.7-0.1-1.4-0.1-2.1c0-0.7,0-1.4,0-2.1c0-0.7-0.1-1.4-0.1-2l0,0c-0.6-0.1-1.2-0.1-1.7-0.1
		c-0.6,0-1.2,0.1-1.7,0.2c-0.1,0.7-0.1,1.4-0.1,2.1c0,0.7,0,1.4,0,2c0,0.7,0,1.3,0,2c0,0.7-0.1,1.3-0.2,1.9c-0.2,0.1-0.6,0.2-1,0.2
		c-0.4,0-0.8,0-1.2-0.1c-0.4,0-0.8-0.1-1.1-0.1c-0.4,0-0.6,0-0.8,0.1c0-0.6-0.1-1.3-0.1-2.3c0-1-0.1-2.1-0.1-3.3
		c0-1.2-0.1-2.5-0.1-3.9c0-1.4-0.1-2.7-0.1-4.1c0-1.4,0-2.7,0-4c0-1.3,0-2.4,0-3.4v0h0h0.1c0.3,0.1,0.6,0.1,0.9,0.1
		c0.3,0,0.7,0,1-0.1c0.3,0,0.7,0,1,0c0.3,0,0.6,0,0.9,0.1c0.2,1.4,0.3,2.7,0.3,4c0,1.3,0.1,2.6,0.4,3.9h0c0.5,0.1,1,0.2,1.6,0.1
		s1.1-0.1,1.6-0.1h0c0.1-1.4,0.2-2.7,0.2-3.9c0-1.2,0-2.5-0.1-4c0.2-0.1,0.5-0.1,0.9-0.2c0.3-0.1,0.7-0.1,1.1-0.1s0.8,0,1.1,0
		C166.5,38.8,166.8,38.8,167.1,38.8z"/>
	<path class="st2" d="M181.9,42.3c0.1,0.3,0.2,0.6,0.3,0.9c0.1,0.3,0.1,0.6,0.2,0.9c0,0.5,0.1,1,0.1,1.5c0,0.5,0,1,0,1.5
		c-0.1,1.1-0.1,2.1-0.1,3.1s0,2-0.1,3.1l-0.1,1c0,0.7-0.2,1.4-0.3,2.1c-0.2,0.7-0.5,1.4-0.8,1.9c-0.3,0.5-0.8,0.9-1.3,1.2
		c-0.6,0.3-1.1,0.5-1.8,0.7c-0.6,0.2-1.1,0.3-1.7,0.3c-0.6,0-1.1,0-1.7,0c-0.4,0-0.8-0.1-1.2-0.2s-0.8-0.2-1.1-0.3
		c-0.4-0.2-0.7-0.4-0.9-0.6c-0.3-0.3-0.5-0.6-0.7-1c-0.3-0.5-0.5-1-0.6-1.6c-0.1-0.6-0.1-1.1-0.2-1.7c-0.1-1.6-0.1-3.1-0.2-4.7
		c-0.1-1.6-0.1-3.1,0-4.7c0-0.9,0.1-1.8,0.3-2.7s0.6-1.7,1.2-2.4c0.2-0.2,0.4-0.4,0.7-0.5c0.7-0.3,1.4-0.6,2.1-0.7
		c0.8-0.2,1.5-0.2,2.3-0.2c0.8,0,1.5,0.2,2.3,0.4c0.7,0.2,1.4,0.6,2,1C181.3,40.9,181.7,41.6,181.9,42.3z M178.7,49.6l-0.1-2
		c0,0,0-0.2,0-0.6c0-0.4-0.1-0.8-0.1-1.1c0-0.6-0.2-1.1-0.5-1.5c-0.3-0.5-0.6-0.8-1.1-1c-0.4-0.2-0.8-0.2-1.2-0.1
		c-0.4,0.1-0.8,0.3-1.1,0.5c-0.7,0.5-1.2,1.2-1.4,2.1c-0.2,0.8-0.3,1.6-0.3,2.4c0,0.8,0,1.7,0,2.5c0.1,0.7,0.2,1.4,0.2,2.1
		c0,0.7,0.2,1.4,0.4,2.1c0.2,0.4,0.5,0.7,0.9,0.9c0.4,0.2,0.8,0.3,1.2,0.4c0.4,0,0.9,0,1.3-0.2c0.4-0.1,0.8-0.4,1.1-0.7
		c0.2-0.2,0.3-0.4,0.4-0.6c0.1-0.2,0.1-0.3,0.1-0.5c0-0.2,0-0.4,0-0.6c0-0.3,0-0.6,0-1c0-0.4,0-0.8,0-1s0-0.5,0-0.5V49.6z"/>
	<path class="st2" d="M197.2,45.8L197.2,45.8c-0.7,0.1-1.5,0.2-2.3,0.2s-1.5-0.1-2.3-0.3c0.1-0.5,0-1-0.3-1.4
		c-0.3-0.4-0.8-0.6-1.2-0.7c-0.5-0.1-0.9,0-1.4,0.1c-0.4,0.2-0.7,0.6-0.8,1.1c0,0.1-0.1,0.3,0,0.4c0,0.1,0,0.3,0,0.4
		c0.2,0.5,0.4,0.8,0.8,1c0.4,0.2,0.8,0.3,1.2,0.3c1.1,0.1,2,0.5,3,1c0.9,0.6,1.7,1.3,2.2,2.1c0.4,0.5,0.6,1,0.8,1.5
		c0.2,0.5,0.3,1.1,0.3,1.6s0,1.1-0.1,1.7c-0.1,0.6-0.3,1.1-0.5,1.6c-0.2,0.6-0.6,1.1-1,1.6c-0.4,0.4-0.9,0.8-1.4,1.1
		c-0.5,0.3-1.1,0.5-1.6,0.6s-1.2,0.2-1.8,0.2c-0.9,0-1.8-0.2-2.6-0.5c-0.9-0.3-1.6-0.7-2.3-1.2c-0.7-0.5-1.2-1.2-1.6-1.9
		c-0.4-0.8-0.6-1.6-0.5-2.6v-0.1v-0.1c0.7-0.1,1.5-0.1,2.3-0.1s1.6,0.1,2.3,0c0,0.6,0.3,1.1,0.8,1.4c0.5,0.3,1,0.5,1.5,0.5
		c0.5,0,1-0.2,1.4-0.5c0.4-0.3,0.5-0.9,0.4-1.6c-0.1-0.5-0.2-0.9-0.5-1.2s-0.7-0.5-1.1-0.7c-0.4-0.2-0.9-0.3-1.3-0.4
		s-0.9-0.2-1.4-0.3c-0.4-0.1-0.8-0.2-1.1-0.4c-0.3-0.2-0.7-0.4-0.9-0.6c-0.9-0.9-1.5-1.8-1.8-2.9c-0.3-1.1-0.3-2.1,0-3.1
		c0.2-1,0.7-1.9,1.4-2.7c0.7-0.8,1.5-1.4,2.4-1.8c0.5-0.2,1-0.3,1.6-0.4c0.6-0.1,1.2-0.1,1.8-0.1c0.6,0,1.2,0.1,1.7,0.3
		c0.6,0.1,1.1,0.3,1.6,0.5c1,0.5,1.7,1.2,2.2,2.2C197.4,43.1,197.5,44.3,197.2,45.8z"/>
</g>
<g>
	<path class="st3" d="M23.7,79.8h66.1c2.8,0,4.6-3.1,3.1-5.6l-33.1-57c-1.4-2.4-4.9-2.4-6.3,0l-33.1,57
		C19.1,76.7,20.8,79.8,23.7,79.8z"/>
	<path class="st4" d="M68.2,53.7c-0.3-1.1-0.9-2.1-1.5-3c-1-1.3-2.3-2-3.4-2.6c-0.5-0.2-1-0.5-1.6-0.7c-0.5-0.1-0.9-0.2-1.2-0.2
		l-0.1,0c-2.3-0.3-4.4-1.2-6.2-2.5c-0.9-0.6-1.4-1.5-1.6-2.4c-0.1-0.5-0.1-1.2,0.8-2.2c0.3-0.3,0.8-0.6,1.4-0.9
		c1-0.6,2.2-1.3,3.2-2.6c1.2-1.6,1.6-3.5,1.7-5c0.3,0,0.7,0,1.1,0.1c0.7,0.1,1.7,0.3,2.4,0.1c0.5-0.2,0.8-0.8,0.5-1.2
		c0,0-6.4-8.6-6.4-8.6c-0.3-0.4-0.9-0.4-1.2,0c0,0-5.9,8.6-5.9,8.6c-0.2,0.4-0.2,0.9,0.3,1.1c0.1,0,0.2,0.1,0.3,0.1
		c0.1,0,0.2,0,0.3,0c0.3,0,0.6-0.1,0.9-0.1c0.5-0.1,1-0.1,1.6-0.1c-0.1,0.5-0.2,1-0.4,1.2c-0.2,0.3-0.8,0.7-1.4,1
		c-0.9,0.5-1.9,1.1-2.8,2.1c-2.6,2.8-2.7,5.7-2.4,7.6c0.5,2.5,2,4.9,4.1,6.4c2.6,1.8,5.6,3,8.8,3.5l0.2,0c0.2,0,0.4,0.1,0.5,0.1
		c0.1,0,0.4,0.2,0.5,0.2c0.2,0.1,0.3,0.2,0.5,0.2c0.6,0.3,1.1,0.9,1.2,1.6c0.2,0.9,0.3,2-0.3,2.8c-0.5,0.7-1.5,0.9-2.3,1.1
		c-0.1,0-0.1,0-0.2,0.1c-0.3,0.1-0.6,0.2-1,0.3c-0.3,0.1-0.6,0.2-0.9,0.3l-0.4,0.1c-1.4,0.5-3.3,1.3-4.9,2.6
		C50.3,64.2,49,66,48.5,68c-0.5,1.6-0.5,3.4-0.1,5.1c0.3,1.2,0.7,2.4,1.3,3.5c0.2,0.3,0.3,0.5,0.4,0.8c0.2,0.4,0.7,0.5,1.1,0.2
		l3.8-2.8c0.3-0.2,0.4-0.6,0.2-1c0-0.1-0.1-0.1-0.1-0.2c-0.3-0.7-0.6-1.3-0.7-1.9c-0.2-0.7-0.2-1.4,0-2c0.3-0.9,1-1.6,1.5-2
		c0.8-0.6,1.8-1.1,3.3-1.6l0.3-0.1c0.3-0.1,0.7-0.2,1.1-0.4c0,0,0.2,0,0.3-0.1c0.1,0,0.2-0.1,0.4-0.1l1.1-0.3c0.2,0,0.3-0.1,0.5-0.1
		c0.4-0.1,0.8-0.3,1.2-0.5c0.2-0.1,0.4-0.3,0.6-0.4l0,0c0.7-0.4,1.3-0.9,1.9-1.5c1-1.2,1.7-2.6,2.1-4.3
		C68.7,56.8,68.6,55.2,68.2,53.7z"/>
</g>
<g>
</g>
<g>
</g>
<g>
</g>
<g>
</g>
<g>
</g>
<g>
</g>
<g>
</g>
<g>
</g>
<g>
</g>
<g>
</g>
<g>
</g>
<g>
</g>
<g>
</g>
<g>
</g>
<g>
</g>
</svg>
