<?xml version="1.0" encoding="utf-8"?>
<!-- Generator: Adobe Illustrator 24.0.2, SVG Export Plug-In . SVG Version: 6.00 Build 0)  -->
<svg version="1.1" id="Camada_1" xmlns="http://www.w3.org/2000/svg" xmlns:xlink="http://www.w3.org/1999/xlink" x="0px" y="0px"
	 viewBox="0 0 450 87.43" style="enable-background:new 0 0 450 87.43;" xml:space="preserve">
<style type="text/css">
	.st0{fill:#FFECD9;}
</style>
<path class="st0" d="M433.24,0.26v-0.1h-0.4c-0.14-0.03-0.27-0.07-0.41-0.1c-0.74-0.14-5.82-0.03-6.61,0.1H77.46
	c-0.1,0-0.19-0.01-0.29-0.01H12.02C5.38,0.15,0,5.53,0,12.17v63.25c0,6.64,5.38,12.02,12.02,12.02h65.15c0.12,0,0.24-0.01,0.37-0.02
	c8.41,0.03,21.88,0.04,22.52-0.08h313.31l-0.04-0.02c0.68,0.13,4.47-0.38,4.94-0.47c6.32-1.24,11.09-6.64,11.09-13.28
	c0-6.64-4.77-12.17-11.09-13.41c-0.47-0.09-1.51-0.17-2.58-0.12c-0.91,0.05-1.82,0.21-1.86,0.22c-5.8,1.17-12.51,2.51-15.99,3.21
	c-0.7,0.14-1.61,0.3-2.52,0.35c-1.07,0.05-2.11-0.03-2.58-0.12c-6.32-1.24-11.09-6.77-11.09-13.41c0-6.64,4.77-12.17,11.09-13.41
	c0.46-0.09,1.51-0.17,2.58-0.12c0.91,0.05,1.82,0.21,2.59,0.37c10.31,2.09,20.93,4.23,26.45,5.35c1.11,0.22,2.55,0.48,3.99,0.56
	c1.69,0.09,3.35-0.05,4.09-0.19C442.45,40.88,450,32.05,450,21.46C450,11.15,442.84,2.54,433.24,0.26z"/>
</svg>
