<?xml version="1.0" encoding="utf-8"?>
<!-- Generator: Adobe Illustrator 24.0.1, SVG Export Plug-In . SVG Version: 6.00 Build 0)  -->
<svg version="1.1" id="Layer_1" xmlns="http://www.w3.org/2000/svg" xmlns:xlink="http://www.w3.org/1999/xlink" x="0px" y="0px"
	 viewBox="0 0 2948.1 2723.1" style="enable-background:new 0 0 2948.1 2723.1;" xml:space="preserve">
<style type="text/css">
	.st0{opacity:5.000000e-02;}
	.st1{fill:#C64DF6;}
	.st2{fill:#6960E5;}
	.st3{fill:#FF2B8C;}
	.st4{fill:#FF36CE;}
</style>
<g class="st0">
	<path class="st1" d="M1070.5,1161.8c-0.4,3.3-0.8,6.1-1,9c-8.6,113-39,243.7-77.2,350.1c-2.4,6.7-9.1,13.7-15.5,17
		c-77.7,38.6-158.1,70.6-242.1,92.8c-33.3,8.8-66.7,16.2-100.4,21.6c-78,52.2-138.8,124-173.8,171.2c55.2,4.7,111.2,2.3,167.6-5.1
		c170.5-22.4,328.8-81.5,478.7-164.3c6.6-3.6,12.9-10.5,15.9-17.3c44.8-103.4,74.9-211.2,93.3-322.2c5.7-34.1,13.1-90.1,17.6-124.1
		c-22.4-3.9-49.9-2.9-71.7-6.7C1129.3,1177.8,1102.7,1171.2,1070.5,1161.8"/>
	<path class="st1" d="M29,1528.7c39.9,94.7,104.9,166.5,189.9,217.6c25.7-46.9,65.4-95.3,99.2-132.4c-39-21.5-73.9-50.9-103.8-89.7
		c-63.1-82-66.3-169.1-5.7-252.9c62.9-87,150-134.2,256.5-146.2c19.5-2.2,39-4.5,59.1-6.8c0-26.8-0.8-51.9,0.1-76.9
		c4-106.6,45.2-196.3,127.9-264.1c68-55.8,143.2-62.9,222.2-23c39.4,19.9,82,72.1,110.5,105.7c5.9,7,14.2,13.4,22.7,16.4
		c31.8,11.5,63.8,22.6,96.4,31.6c33.3,9.2,67.4,15.7,105,24.3c-2.5-7.6-12.8-35-13.7-37.7c-45.7-132-130.6-230.4-256.3-291.1
		c-122.8-59.3-244.2-52.6-358.4,23.2c-120.2,79.7-186.9,195.3-213.3,335.4c-2.1,11.1-6,15.9-16.9,19.3
		c-121.2,37.4-219.3,106.9-288.3,214C-5.7,1300.4-19.9,1412.9,29,1528.7"/>
	<path class="st2" d="M1673.7,897c-37.4-58-64.9-117.5-68.9-185.6c-0.4-6.2,18.8-41.3,21.8-47c34.6-65.1,59.6-133.2,63.2-207.6
		c3.7-76.9-15.9-147.5-61.3-209.9c-51.7-71-122.9-94.6-206.9-76.8c-103.8,22.1-182.4,80.9-236.3,172.3c-11,18.6-21.6,37.5-32.8,57
		c-25.7-11-50-23-75.4-32.1c-107.9-38.5-212.7-34-311.6,27.6c-40,24.9-66.3,61.4-79.4,107.1c-1.2,4.2-5.2,41.1-9,42.1
		c-57,14.8-108.4,40.7-155.3,75.9c-1,0.8-2.6,0.8-5.3,1.4c-3.6-38.6-1.4-107.5,6.9-144.7c25.9-116.3,96.2-197.4,202.2-247.8
		c111.5-52.9,228.2-62.4,348-34.3c9,2.1,13.9,0.1,19.6-6.6c70.2-83.1,157.4-140,261.9-170.8c178.6-52.6,349.4,18.8,437.7,182.6
		c76.9,142.8,79.7,289.6,24.9,439.7C1787.8,721.8,1727.3,824.5,1673.7,897"/>
	<path class="st2" d="M1410.1,938.4c23.5,49,48.1,85,86.8,129c-22.8,26.4-66.3,65.5-93,85.9c-2.7,2-7.4,2.1-11.1,2
		c-196.6-3.4-386.4-37.5-563.7-126.4c-65.2-32.7-144-96.9-194.6-149.9c-3.3-3.5-6.6-7.1-9.8-10.7c-0.9-1-1.6-2.3-3.1-4.4
		c29.9-41.2,63-78.1,116.7-88.4c15.6-3,27.8,0.3,40.5,11.7c68.2,61.4,169.6,120.7,256.1,148c97.7,30.8,198.1,47.4,300.3,53.8
		c7.2,0.4,15.8-3.1,21.9-7.4c12.1-8.7,22.9-19.2,34.3-28.9C1392,952.1,1410.6,938.2,1410.1,938.4"/>
	<path class="st3" d="M1274.2,1825.7c37.4,58,64.9,117.5,68.9,185.6c0.4,6.2-2.7,13.1-5.7,18.8c-34.6,65.1-75.6,161.8-79.2,236.2
		c-3.7,76.9,15.9,147.5,61.3,209.9c51.7,71,122.9,94.6,206.9,76.8c103.8-22.1,182.4-80.9,236.3-172.3c11-18.6,21.6-37.5,32.8-57
		c25.7,11,50,23,75.4,32.1c107.9,38.5,212.7,34,311.6-27.6c40-24.9,66.2-61.4,79.4-107.1c1.2-4.2,5.4-9.8,9.2-10.8
		c57-14.8,108.4-40.7,155.3-75.9c1-0.8,2.6-0.8,5.3-1.4c3.6,38.6,1.2,76.3-7.1,113.5c-25.9,116.3-96.2,197.4-202.2,247.8
		c-111.5,52.9-228.2,62.4-348,34.3c-9-2.1-13.9-0.1-19.6,6.6c-70.2,83.1-157.4,140-261.9,170.8c-178.6,52.6-349.4-18.8-437.7-182.6
		c-76.9-142.8-79.7-289.6-24.9-439.7C1160.3,2001.3,1220.7,1898.2,1274.2,1825.7"/>
	<path class="st3" d="M1532.6,1799.8c-10.2-24.6-24-49.3-39.1-73c-14.5-22.8-31.6-44.6-50.3-67.2c25.2-19.7,74.4-69.4,101.1-89.8
		c2.7-2,7.4-2.1,11.1-2c196.6,3.4,386.4,37.5,563.7,126.4c65.2,32.7,124.3,74.5,174.9,127.5c3.3,3.5,6.6,7.1,9.8,10.7
		c0.9,1,1.6,2.3,3.1,4.4c-29.9,41.2-63,78.1-116.7,88.4c-15.6,3-27.9-0.3-40.5-11.7c-68.2-61.4-149.9-98.4-236.4-125.6
		c-97.7-30.8-198.1-47.4-300.3-53.8c-7.2-0.4-15.8,3.1-21.9,7.4c-12.1,8.7-45.8,48.1-57.2,57.8
		C1533.2,1799.9,1532.1,1800,1532.6,1799.8"/>
	<path class="st4" d="M1153.4,1636.7c42.2,37.6,81.9,78.2,117.8,122.8c58.3,72.3,104.7,151,119,244.6c12.9,84-2.2,162.9-51.4,233.2
		c-11.3,16.2-16.4,31.5-15.8,50.4c1.5,51.4,14.6,98.9,44.6,142.5c28.5-15.6,52.8-35.3,73.7-58.7c92.3-103.5,126.4-226.2,115.6-362.1
		c-8.6-109.3-52.6-206.2-114.6-295.1c-62.5-89.6-136.3-166.7-218.5-234.8L1153.4,1636.7z"/>
	<path class="st4" d="M242.5,2149.3c37.9,81.6,98.9,140.1,181,175.5c125.8,54.2,253.5,53.7,381.9,8.9c10.2-3.6,16.1-2.1,23.7,5.3
		c61.5,59,133.6,99.9,215.3,123.8c4.3,1.3,8.9,2,12.9,2.9c-7.2-30.5-15.7-59.3-20.4-88.7c-4.8-29.4-5.5-59.5-8.8-89.2
		c-0.5-4.2-4.5-9.6-8.4-11.7c-52.2-28-94.1-67.1-127.8-115.5c-9.5-13.7-19.9-26.8-29.7-39.9c-4.7,2.4-7.8,3.8-10.7,5.5
		c-10.9,6.3-21.8,12.5-32.5,19.1c-91.8,55.9-189.8,72.2-293.7,43c-100.3-28.2-153.5-99.7-153.9-203.7
		c-0.3-76.2,23.5-144.5,69.7-204.7c59.4-77.6,138.9-128.9,225.9-170c97.1-45.8,199.2-75.6,304.5-95.2c4.9-10,15-28.6,23.5-65.6
		c6.4-27.9,7.4-47.8,11.3-106.4c-1.7,0.1-3.3,0.1-5.1,0.3c-133.9,19.2-263.1,54.7-386.8,109.5c-82.7,36.6-159.9,82-227.2,142.9
		c-120.2,108.7-184.6,242.4-178.9,406.3c0.9,26.8,6.1,53.5,9.4,80.3l19.1,57.8C238.7,2142.9,241,2145.9,242.5,2149.3"/>
	<path class="st1" d="M2056.1,562.6c9.5,13.7,19.9,26.8,29.7,39.9c4.7-2.4,7.8-3.8,10.7-5.5c10.9-6.3,21.8-12.5,32.5-19.1
		c91.8-55.9,189.8-72.2,293.7-43c100.3,28.2,153.5,99.7,153.9,203.7c0.2,50-10.2,96.5-30.2,139.6c49.6,9.8,110.7,25.2,159.1,47.9
		c24.9-62.3,36.8-130.4,34.2-204.6c-0.9-26.8-6.1-53.5-9.3-80.3l-19.1-57.8c-1.9-3.2-4.2-6.3-5.8-9.7
		c-37.9-81.6-98.9-140.1-181-175.5c-125.8-54.2-253.5-53.7-381.9-8.9c-10.2,3.6-16.1,2.1-23.7-5.3c-61.5-59-168.2-111-250-134.8
		c-4.3-1.3-8.9-2-12.9-2.9c7.2,30.5,15.7,59.3,20.4,88.7c4.8,29.4,5.5,59.5,8.8,89.2c0.5,4.2,4.6,9.6,8.4,11.7
		C1945.9,464.1,2022.5,514.2,2056.1,562.6"/>
	<path class="st1" d="M1505.7,1008.7c105.1,150.7,242.3,266.5,397.7,362.3c13.9,8.6,27.1,11.6,43.4,9.2
		c133.9-19.2,263.1-54.7,386.8-109.5c80.9-35.8,156.6-80.2,222.9-139.2c-56.2-17.1-148.3-38.9-242.7-34.3
		c-10.8,5.6-21.8,11-32.9,16.3c-99.1,46.8-203.4,76.9-310.9,96.4c-5.9,1.1-13.7-0.3-18.6-3.6c-102.8-68.2-197-146.3-274.7-242.8
		c-58.3-72.4-104.7-151-119-244.6c-12.9-84,31.8-185.6,81-255.9c11.3-16.2,16.4-31.5,15.8-50.4c-1.5-51.4-14.6-98.9-44.6-142.5
		c-28.5,15.6-82.4,58-103.3,81.4c-92.3,103.5-126.4,226.2-115.6,362.1C1399.7,822.9,1443.7,919.8,1505.7,1008.7"/>
	<path class="st3" d="M1883.6,1569.5c0.4-3.3,0.8-6.1,1-9c3.8-50.1,10.7-105.4,20.6-160.6l-154-86.4c-7.3,31.4-13.7,63.1-19,95.1
		c-5.7,34.1-7.1,98.4-11.6,132.4c30.9,5.4,60.4,5.3,90.3,10.5C1835,1555.7,1860.6,1561.4,1883.6,1569.5"/>
	<path class="st4" d="M2009.3,2119.4c122.8,59.3,244.2,52.6,358.4-23.2c120.2-79.7,186.9-195.3,213.3-335.4
		c2.1-11.1,6-15.9,16.9-19.3c121.2-37.4,219.3-106.9,288.3-214c67.6-105,81.8-217.5,33-333.3c-48.2-114.4-133.1-195.5-245.5-246.9
		c-113-51.7-232.3-58.6-353.6-42.6c-170.5,22.4-328.8,81.5-478.7,164.3c-0.4,0.2-0.7,0.5-1.1,0.8c40.1,47.2,53,62.9,75.2,81.9
		c24.1,20.6,41.4,30.2,52.2,35.8c1.2-0.9,2.4-1.7,3.7-2.3c77.7-38.6,158.1-70.6,242.1-92.8c86-22.7,173.1-36.6,262.4-28.3
		c104.2,9.8,192.9,50,258.1,134.7c63.1,82,66.3,169.1,5.7,252.9c-62.9,87-150,134.2-256.5,146.2c-19.5,2.2-39,4.5-59.1,6.8
		c0,26.8,0.8,51.9-0.1,76.9c-4,106.6-45.2,196.3-127.9,264.1c-68,55.8-143.2,62.9-222.2,23c-39.4-19.9-81.1-76.4-109.6-110
		c-5.9-7-14.2-13.4-22.7-16.4c-31.8-11.5-63.8-22.6-96.4-31.6c-33.3-9.2-67.4-15.7-105-24.3c2.5,7.6,11.8,39.3,12.7,42
		C1798.7,1960.3,1883.7,2058.8,2009.3,2119.4"/>
</g>
<g>
</g>
<g>
</g>
<g>
</g>
<g>
</g>
<g>
</g>
<g>
</g>
<g>
</g>
<g>
</g>
<g>
</g>
<g>
</g>
<g>
</g>
<g>
</g>
<g>
</g>
<g>
</g>
<g>
</g>
</svg>
