<?xml version="1.0" encoding="utf-8"?>
<!-- Generator: Adobe Illustrator 24.0.1, SVG Export Plug-In . SVG Version: 6.00 Build 0)  -->
<svg version="1.1" id="Layer_1" xmlns="http://www.w3.org/2000/svg" xmlns:xlink="http://www.w3.org/1999/xlink" x="0px" y="0px"
	 viewBox="0 0 1105.3 987.7" style="enable-background:new 0 0 1105.3 987.7;" xml:space="preserve">
<style type="text/css">
	.st0{fill:#C64DF6;}
	.st1{fill:#6960E5;}
	.st2{fill:#FF2B8C;}
	.st3{fill:#FF36CE;}
</style>
<path class="st0" d="M599,273.6c0.2-0.5,0.5-0.9,0.6-1.4c7.3-17.6,19-36.8,30.7-51.7c0.7-0.9,2.2-1.7,3.4-1.9
	c14.4-2.1,28.9-2.9,43.5-2c5.8,0.4,11.5,0.9,17.1,1.8c15.2-4.2,28.6-12.4,36.7-18.1c-8.5-3.6-17.6-6.2-27-8
	c-28.3-5.4-56.7-4.3-84.9,1c-1.2,0.2-2.6,1-3.4,1.9c-12.6,14.1-23,29.7-31.8,46.4c-2.7,5.1-6.8,13.7-9.3,18.9
	c3.4,1.8,7.8,3.1,11.1,4.8C590.4,268,594.3,270.4,599,273.6z"/>
<path class="st0" d="M784.2,270c-1.4-17.2-8-32-18.8-44.7c-6.6,6.1-15.4,11.7-22.8,15.9c5.1,5.5,9.1,12,11.8,19.8
	c5.7,16.4,1.7,30.4-12.4,40.6c-14.6,10.6-31,13.5-48.6,9.8c-3.2-0.7-6.4-1.3-9.8-2c-1.4,4.3-2.6,8.3-4.1,12.3
	c-6.2,16.8-17.5,28.9-34.3,35.4c-13.8,5.3-26.1,2.5-36.6-8c-5.2-5.2-9.3-15.8-12-22.7c-0.6-1.4-1.6-2.9-2.7-3.8
	c-4.5-3.5-9-7-13.7-10.1c-4.8-3.2-9.9-6.1-15.4-9.4c0,1.3,0.2,6.3,0.2,6.7c0.3,23.4,8.7,43.6,25.5,59.9
	c16.4,15.9,36.1,21.2,58.3,15.2c23.3-6.4,40.1-21.3,51.6-42.2c0.9-1.7,1.8-2.2,3.7-2.2c21.3,0.4,40.6-5.5,57.2-18.9
	C777.7,308.2,785.9,291,784.2,270z"/>
<path class="st1" d="M195.1,609.3l26.4,9.6l-3.3,21.3h-87.3l-3.3-21.3l23.7-9.6l-13.5-36H67.5l-14.4,36l28.2,9.3l-3,21.6h-75
	L0,618.9l26.1-9.6l69-179.2l32.7-5.1L195.1,609.3z M103,481.3l-26.5,68.6H129l-18.9-51L103,481.3z"/>
<path class="st1" d="M729.5,496.8c38.7,0,61.8,20.1,61.8,56.4v62.1l16.8,6.6l-3.6,18.3h-38.1l-9-6.9c-9,6.3-21.3,10.2-38.7,10.2
	c-27,0-50.7-14.4-50.7-41.7c0-40.8,47.7-50.1,85.5-50.1v-10.5c0-17.1-12.3-25.5-25.5-25.5c-7.2,0-16.5,1.8-22.2,3.3l-6.6,22.8
	l-20.1-3.6v-28.8C696.5,500.7,714.5,496.8,729.5,496.8z M709.1,599.1c0,17.1,12.3,22.5,20.7,22.5c8.1,0,18.6-4.5,23.7-12v-39.3
	C725.6,570.3,709.1,582,709.1,599.1z"/>
<path class="st1" d="M917.4,519.6c-2.1-0.6-7.8-1.2-12-1.2c-6,0-18.3,2.7-27,6v90.9l24.9,6.6l-3.6,18.3h-74.4l-3.6-18.3l18.9-6.6
	v-96.9h-13.5l-3.6-18.3l39-3.3l12.3,7.8c9.3-3.3,24.9-7.8,38.7-7.8c9.3,0,19.5,2.1,30.9,6.6v34.8l-20.1,3.6L917.4,519.6z"/>
<path class="st1" d="M1105.3,570c0,45.9-26.1,73.2-74.7,73.2c-48.3,0-75-28.5-75-73.2s29.4-73.2,75-73.2
	C1075.9,496.8,1105.3,524.1,1105.3,570z M994.2,569.1c0,33,12.9,55.2,36.3,55.2c22.8,0,36.6-21.9,36.6-55.2
	c0-33.6-14.4-53.4-36.6-53.4C1008.3,515.7,994.2,536.1,994.2,569.1z"/>
<path class="st1" d="M502.1,624.4c-18.1,0-34.1-18.8-36.3-50.2v-26.7c0-32.7-20.7-50.7-59.7-50.7c-15,0-33,5.7-42.9,11.1
	c-8.7-8.1-23.1-11.1-39.3-11.1c-12.6,0-27.6,4.5-37.5,7.8l-12.3-7.8l-37.5,3.3l3.3,18.3h13.5v96.9l-18.9,6.6l3.6,18.3h68.4l3.6-18.3
	l-18.9-6.6v-90.9c7.8-2.7,18.3-6,26.1-6c11.7,0,23.7,8.1,23.7,23.7v73.2l-18.9,6.6l3.6,18.3h68.7l3.6-18.3l-19.2-6.6v-68.1
	c0-9-1.5-15.6-4.5-22.8c5.7-2.7,15.6-6,26.7-6c12.6,0,27.3,8.7,27.3,26.4v21.4c0,1-0.1,2-0.1,3c0,44.4,26.9,73.5,73.4,73.5h6.3
	v-18.3H502.1z"/>
<path class="st1" d="M488.9,284.1c2.9,11.2,4.1,22.1,1.2,33.2c-0.3,1-5.2,5.6-6,6.3c-8.9,8.6-16.5,18.1-21,29.8
	c-4.6,12.1-5.2,24.3-1.3,36.7c4.5,14,14.6,21.5,28.9,23.1c17.7,2,33.3-3.3,46.7-15c2.7-2.4,5.4-4.8,8.2-7.4
	c3.5,3.1,6.8,6.3,10.3,9.1c15.2,11.8,32.1,16.6,51.1,12c7.7-1.9,13.8-6.3,18.3-12.9c0.4-0.6,3-6.3,3.7-6.2
	c9.9,0.6,19.4-0.8,28.7-3.9c0.2-0.1,0.5,0,0.9,0c-1.5,6.3-5.4,17.2-8.7,22.7c-10.3,17.2-25.7,26.4-45.3,28.8
	c-20.5,2.6-39.6-2.1-57.3-12.8c-1.3-0.8-2.2-0.8-3.5,0c-15.6,9.5-32.4,14-50.7,13.4c-31.2-1-54.7-21.4-60.1-52.1
	c-4.7-26.8,2.5-50.3,19.2-71.4C461.5,306,476.6,292.8,488.9,284.1z"/>
<path class="st1" d="M533.1,291.3c-1.2-9-3.2-16.1-7-25.1c5-3,14-6.9,19.3-8.8c0.5-0.2,1.3,0.1,1.9,0.3
	c31.2,10.9,59.6,26.3,83.2,49.8c8.7,8.6,17.8,23,23.1,34.1c0.3,0.7,0.7,1.5,1,2.2c0.1,0.2,0.1,0.4,0.3,0.9c-6.9,5-14.1,9.1-23.2,7.9
	c-2.6-0.3-4.4-1.5-5.8-4c-7.6-13.4-20.7-28.2-33-37.1c-14-10-29.1-18-45-24.4c-1.1-0.5-2.7-0.3-3.9,0c-2.4,0.7-4.7,1.8-7,2.8
	C536.7,290.1,533,291.3,533.1,291.3z"/>
<path class="st2" d="M601.5,157.1c-2.9-11.2-4.1-22.1-1.2-33.2c0.3-1,1.1-1.9,1.9-2.7c8.9-8.6,20.6-21.8,25.1-33.5
	c4.6-12.1,5.2-24.3,1.3-36.7C624,37,613.9,29.5,599.5,28c-17.7-2-33.3,3.3-46.7,15c-2.7,2.4-5.4,4.8-8.2,7.4
	c-3.5-3.1-6.8-6.3-10.3-9.1c-15.2-11.8-32.1-16.6-51.1-12c-7.7,1.9-13.8,6.3-18.3,12.9c-0.4,0.6-1.4,1.3-2,1.2
	c-9.9-0.6-19.4,0.8-28.7,3.9c-0.2,0.1-0.5,0-0.9,0c1.5-6.3,3.8-12.2,7.1-17.7C450.6,12.4,466,3.1,485.6,0.7
	c20.5-2.6,39.6,2.1,57.3,12.8c1.3,0.8,2.2,0.8,3.5,0C561.9,4,578.8-0.5,597,0.1c31.2,1,54.7,21.4,60.1,52.1
	c4.7,26.8-2.5,50.3-19.2,71.4C628.9,135.1,613.8,148.4,601.5,157.1z"/>
<path class="st2" d="M558.9,147.6c0.3,4.5,1.2,9.1,2.4,13.7c1.1,4.4,2.7,8.8,4.5,13.4c-5,1.8-15.5,7.1-20.8,9
	c-0.5,0.2-1.3-0.1-1.9-0.3c-31.2-10.9-59.6-26.3-83.2-49.8c-8.7-8.6-15.9-18.4-21.2-29.5c-0.3-0.7-0.7-1.5-1-2.2
	c-0.1-0.2-0.1-0.4-0.3-0.9c6.9-5,14.1-9.1,23.2-7.9c2.6,0.3,4.4,1.5,5.8,4c7.6,13.4,18.7,23.6,31.1,32.5c14,10,29.1,18,45,24.4
	c1.1,0.5,2.7,0.3,3.9,0c2.4-0.7,9.8-5.3,12.2-6.2C558.8,147.6,559,147.6,558.9,147.6z"/>
<path class="st1" d="M576.2,624.3h-5.7v18.3h6.3c46.5,0,83.1-49.4,83.1-93.8c0-46.2-39.4-61.6-62.8-60.6
	c-12.6,0.5-30.3,1.8-49.7,20.2l-3.7,4.5l-0.6-0.8c0,0-16.3-30.8-61.8-21.9c-1,0.2-2-0.1-3.1,0l11.9,21.5c0.2,0,0.4,0,0.6,0
	c9.8,0,22.8,5.2,29.5,14.4v151.5l-18.9,6.6l3.6,18.3h68.4l3.6-18.3l-19.2-6.6V526.8c6.6-9.4,21-19,30.9-19
	c16.8,0,31.7,6.7,32.3,36.7C621.9,580.6,595.7,624.3,576.2,624.3z"/>
<path class="st3" d="M610.8,193.6c-4.8-8.2-8.9-16.8-12.3-25.8c-5.5-14.6-8.7-29.6-6.1-45.2c2.4-14.1,8.9-25.8,20.5-34.4
	c2.7-2,4.3-4.2,5.2-7.2c2.5-8.3,2.9-16.5,0.4-25.1c-5.4,1-10.3,2.8-14.8,5.5c-20.1,11.6-32,29.4-37.5,51.6
	c-4.4,17.9-2.5,35.6,2.7,53c5.2,17.6,12.9,33.7,22.5,48.9L610.8,193.6z"/>
<path class="st3" d="M782.9,159.9c-1.8-15-8.4-27.5-19.6-37.5c-17.2-15.3-37.6-21.9-60.4-21.5c-1.8,0-2.7-0.5-3.5-2.1
	c-6.7-12.6-16-23-27.8-31.1c-0.6-0.4-1.3-0.8-1.9-1.1c-0.5,5.2-0.6,10.3-1.4,15.2c-0.8,4.9-2.3,9.8-3.3,14.7
	c-0.1,0.7,0.2,1.8,0.7,2.3c6.8,7.2,11.5,15.6,14.3,25.1c0.8,2.7,1.8,5.3,2.6,7.9c0.9-0.1,1.4-0.2,2-0.3c2.1-0.4,4.1-0.8,6.2-1.3
	c17.6-4.1,34-1.5,49.1,8.6c14.5,9.8,19.2,24,13.8,40.6c-4,12.2-11.4,21.8-21.9,29c-13.5,9.2-28.9,13.2-44.9,15.2
	c-17.9,2.2-35.7,1.6-53.5-0.9c-1.3,1.3-3.9,3.8-7.2,9.2c-2.5,4.1-3.7,7.2-7.4,16.4c0.3,0.1,0.5,0.2,0.8,0.2
	c22.3,4,44.8,5.1,67.4,2.9c15.1-1.5,29.8-4.7,43.7-10.8c24.9-11,42.2-28.9,49.9-55.3c1.3-4.3,1.8-8.9,2.7-13.3c0-3.4,0-6.8,0-10.2
	C783.1,161.1,782.9,160.5,782.9,159.9z"/>
<path class="st0" d="M410.4,317.2c-0.8-2.7-1.8-5.3-2.6-7.9c-0.9,0.1-1.4,0.2-2,0.3c-2.1,0.4-4.1,0.8-6.2,1.3
	c-17.6,4.1-34,1.5-49.1-8.6c-14.5-9.8-19.2-24-13.8-40.6c2.6-8,6.7-14.8,12.2-20.7c-7.4-4.2-16.3-9.8-22.8-16
	c-7.2,8.6-12.7,18.8-16.2,30.8c-1.3,4.3-1.8,8.9-2.7,13.3c0,3.4,0,6.8,0,10.2c0.1,0.6,0.3,1.2,0.4,1.8c1.8,15,8.4,27.5,19.6,37.5
	c17.2,15.3,37.6,21.9,60.4,21.5c1.8,0,2.7,0.5,3.5,2.1c6.7,12.6,21,26.5,32.7,34.6c0.6,0.4,1.3,0.8,1.9,1.1
	c0.5-5.2,0.6-10.3,1.4-15.2c0.8-4.9,2.3-9.8,3.3-14.7c0.1-0.7-0.2-1.8-0.7-2.3C422.8,338.7,413.2,326.7,410.4,317.2z"/>
<path class="st0" d="M521.6,275.1c-8.8-29.5-24.6-55.2-44.3-78.7c-1.8-2.1-3.7-3.3-6.4-3.8c-22.3-4-44.8-5.1-67.4-2.9
	c-14.8,1.4-29.2,4.5-42.8,10.4c8,5.7,21.6,14,36.9,18.2c2-0.3,4.1-0.6,6.1-0.9c18.2-2.2,36.5-1.6,54.6,1c1,0.1,2.2,0.8,2.8,1.6
	c12.8,16.3,23.7,33.7,31,53.1c5.5,14.6,8.7,29.6,6.1,45.2c-2.4,14.1-14.8,27.9-26.4,36.5c-2.7,2-4.3,4.2-5.2,7.2
	c-2.5,8.3-2.9,16.5-0.4,25.1c5.4-1,16.2-4.9,20.7-7.5c20.1-11.6,32-29.4,37.5-51.6C528.7,310.3,526.8,292.5,521.6,275.1z"/>
<path class="st2" d="M490.9,165.9c-0.2,0.5-0.5,0.9-0.6,1.4c-3.2,7.8-7.3,16.2-11.7,24.5l20,21.9c2.8-4.6,5.5-9.3,8-14.1
	c2.7-5.1,6.3-15.3,8.8-20.5c-4.6-2.5-9.3-4-13.8-6.4C497.9,170.6,494.1,168.4,490.9,165.9z"/>
<path class="st3" d="M499.8,71.6c-16.4-15.9-36.1-21.2-58.3-15.2c-23.3,6.4-40.1,21.3-51.6,42.2c-0.9,1.7-1.8,2.2-3.7,2.2
	c-21.3-0.4-40.6,5.5-57.2,18.9c-16.3,13.2-24.5,30.3-22.8,51.4c1.7,20.8,10.9,38.2,26.1,52.3c15.3,14.2,33.9,21.6,54.1,25.4
	c28.3,5.4,56.7,4.3,84.9-1c0.1,0,0.1,0,0.2-0.1c-3.9-9.6-5.1-12.8-7.7-17c-2.7-4.6-5-7-6.4-8.4c-0.2,0.1-0.5,0.1-0.7,0.2
	c-14.4,2.1-28.9,2.9-43.5,2c-14.9-0.9-29.5-3.3-43.3-9.3c-16.1-7-28.1-18.1-34-35c-5.7-16.4-1.7-30.4,12.4-40.6
	c14.6-10.6,31-13.5,48.6-9.8c3.2,0.7,6.4,1.3,9.8,2c1.4-4.3,2.6-8.3,4.1-12.3c6.2-16.8,17.5-28.9,34.3-35.4
	c13.8-5.3,26.1-2.5,36.6,8c5.2,5.2,8.9,16.4,11.7,23.3c0.6,1.4,1.6,2.9,2.7,3.8c4.5,3.5,9,7,13.7,10.1c4.8,3.2,9.9,6.1,15.4,9.4
	c0-1.3,0.2-6.9,0.2-7.4C525,108.1,516.6,87.9,499.8,71.6z"/>
<g>
	<g>
		<path class="st1" d="M56.3,773l-4,12.1h-5.2l13.1-38.6h6l13.2,38.6h-5.3L69.9,773H56.3z M68.9,769.1L65.1,758
			c-0.9-2.5-1.4-4.8-2-7H63c-0.6,2.3-1.2,4.6-1.9,7l-3.8,11.2H68.9z"/>
		<path class="st1" d="M84.7,766.5c0-3.6-0.1-6.4-0.2-9.1H89l0.2,4.8h0.1c2.1-3.4,5.3-5.4,9.9-5.4c6.7,0,11.7,5.7,11.7,14.1
			c0,10-6.1,14.9-12.6,14.9c-3.7,0-6.9-1.6-8.5-4.4h-0.1v15.1h-5V766.5z M89.7,773.9c0,0.7,0.1,1.4,0.2,2.1c0.9,3.5,4,5.9,7.6,5.9
			c5.3,0,8.4-4.4,8.4-10.7c0-5.6-2.9-10.3-8.3-10.3c-3.4,0-6.6,2.5-7.6,6.2c-0.2,0.6-0.3,1.4-0.3,2.1V773.9z"/>
		<path class="st1" d="M117.3,766.1c0-3.3-0.1-6.1-0.2-8.7h4.4l0.2,5.4h0.2c1.3-3.7,4.3-6.1,7.7-6.1c0.6,0,1,0.1,1.4,0.2v4.8
			c-0.5-0.1-1-0.2-1.7-0.2c-3.6,0-6.1,2.7-6.8,6.5c-0.1,0.7-0.2,1.5-0.2,2.3v14.8h-5V766.1z"/>
		<path class="st1" d="M138.3,772.2c0.1,6.8,4.5,9.6,9.5,9.6c3.6,0,5.8-0.6,7.7-1.4l0.9,3.6c-1.8,0.8-4.8,1.7-9.2,1.7
			c-8.5,0-13.6-5.6-13.6-14s4.9-15,13-15c9.1,0,11.5,8,11.5,13.1c0,1-0.1,1.8-0.2,2.3H138.3z M153.1,768.6c0.1-3.2-1.3-8.2-7-8.2
			c-5.1,0-7.3,4.7-7.7,8.2H153.1z"/>
		<path class="st1" d="M164.2,765c0-2.9-0.1-5.2-0.2-7.5h4.5l0.3,4.6h0.1c1.4-2.6,4.6-5.2,9.2-5.2c3.8,0,9.8,2.3,9.8,11.8v16.6h-5
			v-16c0-4.5-1.7-8.2-6.4-8.2c-3.3,0-5.9,2.3-6.8,5.2c-0.2,0.6-0.3,1.5-0.3,2.3v16.7h-5V765z"/>
		<path class="st1" d="M219.9,744.5V778c0,2.5,0.1,5.3,0.2,7.2h-4.5l-0.2-4.8h-0.1c-1.5,3.1-4.9,5.4-9.5,5.4
			c-6.7,0-11.9-5.7-11.9-14.1c-0.1-9.2,5.7-14.9,12.4-14.9c4.2,0,7.1,2,8.4,4.2h0.1v-16.6H219.9z M214.9,768.7
			c0-0.6-0.1-1.5-0.2-2.1c-0.7-3.2-3.5-5.8-7.3-5.8c-5.2,0-8.3,4.6-8.3,10.7c0,5.6,2.8,10.3,8.2,10.3c3.4,0,6.5-2.2,7.4-6
			c0.2-0.7,0.2-1.4,0.2-2.2V768.7z"/>
		<path class="st1" d="M231.1,772.2c0.1,6.8,4.5,9.6,9.5,9.6c3.6,0,5.8-0.6,7.7-1.4l0.9,3.6c-1.8,0.8-4.8,1.7-9.2,1.7
			c-8.5,0-13.6-5.6-13.6-14s4.9-15,13-15c9.1,0,11.5,8,11.5,13.1c0,1-0.1,1.8-0.2,2.3H231.1z M245.9,768.6c0.1-3.2-1.3-8.2-7-8.2
			c-5.1,0-7.3,4.7-7.7,8.2H245.9z"/>
		<path class="st1" d="M257,765c0-2.9-0.1-5.2-0.2-7.5h4.5l0.3,4.6h0.1c1.4-2.6,4.6-5.2,9.2-5.2c3.8,0,9.8,2.3,9.8,11.8v16.6h-5v-16
			c0-4.5-1.7-8.2-6.4-8.2c-3.3,0-5.9,2.3-6.8,5.2c-0.2,0.6-0.3,1.5-0.3,2.3v16.7h-5V765z"/>
		<path class="st1" d="M312.7,744.5V778c0,2.5,0.1,5.3,0.2,7.2h-4.5l-0.2-4.8h-0.1c-1.5,3.1-4.9,5.4-9.5,5.4
			c-6.7,0-11.9-5.7-11.9-14.1c-0.1-9.2,5.7-14.9,12.4-14.9c4.2,0,7.1,2,8.4,4.2h0.1v-16.6H312.7z M307.7,768.7
			c0-0.6-0.1-1.5-0.2-2.1c-0.7-3.2-3.5-5.8-7.3-5.8c-5.2,0-8.3,4.6-8.3,10.7c0,5.6,2.8,10.3,8.2,10.3c3.4,0,6.5-2.2,7.4-6
			c0.2-0.7,0.2-1.4,0.2-2.2V768.7z"/>
		<path class="st1" d="M346.2,771.1c0,10.3-7.1,14.7-13.8,14.7c-7.5,0-13.3-5.5-13.3-14.3c0-9.3,6.1-14.7,13.8-14.7
			C340.8,756.8,346.2,762.6,346.2,771.1z M324.2,771.4c0,6.1,3.5,10.7,8.4,10.7c4.8,0,8.4-4.5,8.4-10.8c0-4.7-2.3-10.7-8.3-10.7
			S324.2,766.1,324.2,771.4z"/>
		<path class="st1" d="M364,780c1.5,1,4.1,2,6.6,2c3.7,0,5.4-1.8,5.4-4.1c0-2.4-1.4-3.7-5.2-5.1c-5-1.8-7.3-4.5-7.3-7.8
			c0-4.5,3.6-8.1,9.6-8.1c2.8,0,5.3,0.8,6.8,1.7l-1.3,3.7c-1.1-0.7-3.1-1.6-5.7-1.6c-3,0-4.6,1.7-4.6,3.8c0,2.3,1.7,3.3,5.3,4.7
			c4.8,1.8,7.3,4.2,7.3,8.4c0,4.9-3.8,8.3-10.4,8.3c-3,0-5.8-0.7-7.8-1.9L364,780z"/>
		<path class="st1" d="M412.5,771.1c0,10.3-7.1,14.7-13.8,14.7c-7.5,0-13.3-5.5-13.3-14.3c0-9.3,6.1-14.7,13.8-14.7
			C407.1,756.8,412.5,762.6,412.5,771.1z M390.5,771.4c0,6.1,3.5,10.7,8.4,10.7c4.8,0,8.4-4.5,8.4-10.8c0-4.7-2.3-10.7-8.3-10.7
			S390.5,766.1,390.5,771.4z"/>
		<path class="st1" d="M418.6,785.2c0.1-1.9,0.2-4.7,0.2-7.2v-33.5h5v17.4h0.1c1.8-3.1,5-5.1,9.5-5.1c6.9,0,11.7,5.7,11.7,14.2
			c0,9.9-6.2,14.8-12.4,14.8c-4,0-7.2-1.5-9.3-5.2h-0.2l-0.2,4.6H418.6z M423.8,774.1c0,0.6,0.1,1.3,0.2,1.8c1,3.5,3.9,5.9,7.6,5.9
			c5.3,0,8.4-4.3,8.4-10.7c0-5.6-2.9-10.3-8.3-10.3c-3.4,0-6.6,2.3-7.7,6.2c-0.1,0.6-0.3,1.3-0.3,2.1V774.1z"/>
		<path class="st1" d="M451.4,766.1c0-3.3-0.1-6.1-0.2-8.7h4.4l0.2,5.4h0.2c1.3-3.7,4.3-6.1,7.7-6.1c0.6,0,1,0.1,1.4,0.2v4.8
			c-0.5-0.1-1-0.2-1.7-0.2c-3.6,0-6.1,2.7-6.8,6.5c-0.1,0.7-0.2,1.5-0.2,2.3v14.8h-5V766.1z"/>
		<path class="st1" d="M472.4,772.2c0.1,6.8,4.5,9.6,9.5,9.6c3.6,0,5.8-0.6,7.7-1.4l0.9,3.6c-1.8,0.8-4.8,1.7-9.2,1.7
			c-8.5,0-13.6-5.6-13.6-14s4.9-15,13-15c9.1,0,11.5,8,11.5,13.1c0,1-0.1,1.8-0.2,2.3H472.4z M487.2,768.6c0.1-3.2-1.3-8.2-7-8.2
			c-5.1,0-7.3,4.7-7.7,8.2H487.2z"/>
		<path class="st1" d="M525.8,785.2l-0.4-3.5h-0.2c-1.5,2.2-4.5,4.1-8.5,4.1c-5.6,0-8.5-4-8.5-8c0-6.7,6-10.4,16.7-10.3V767
			c0-2.3-0.6-6.4-6.3-6.4c-2.6,0-5.3,0.8-7.2,2.1l-1.1-3.3c2.3-1.5,5.6-2.5,9.1-2.5c8.5,0,10.5,5.8,10.5,11.3v10.4
			c0,2.4,0.1,4.8,0.5,6.6H525.8z M525.1,771c-5.5-0.1-11.7,0.9-11.7,6.2c0,3.3,2.2,4.8,4.8,4.8c3.6,0,5.9-2.3,6.7-4.6
			c0.2-0.5,0.3-1.1,0.3-1.6V771z"/>
		<path class="st1" d="M574.1,744.5V778c0,2.5,0.1,5.3,0.2,7.2h-4.5l-0.2-4.8h-0.1c-1.5,3.1-4.9,5.4-9.5,5.4
			c-6.7,0-11.9-5.7-11.9-14.1c-0.1-9.2,5.7-14.9,12.4-14.9c4.2,0,7.1,2,8.4,4.2h0.1v-16.6H574.1z M569.1,768.7
			c0-0.6-0.1-1.5-0.2-2.1c-0.7-3.2-3.5-5.8-7.3-5.8c-5.2,0-8.3,4.6-8.3,10.7c0,5.6,2.8,10.3,8.2,10.3c3.4,0,6.5-2.2,7.4-6
			c0.2-0.7,0.2-1.4,0.2-2.2V768.7z"/>
		<path class="st1" d="M585.3,772.2c0.1,6.8,4.5,9.6,9.5,9.6c3.6,0,5.8-0.6,7.7-1.4l0.9,3.6c-1.8,0.8-4.8,1.7-9.2,1.7
			c-8.5,0-13.6-5.6-13.6-14s4.9-15,13-15c9.1,0,11.5,8,11.5,13.1c0,1-0.1,1.8-0.2,2.3H585.3z M600.1,768.6c0.1-3.2-1.3-8.2-7-8.2
			c-5.1,0-7.3,4.7-7.7,8.2H600.1z"/>
		<path class="st1" d="M611.2,766.5c0-3.6-0.1-6.4-0.2-9.1h4.5l0.2,4.8h0.1c2.1-3.4,5.3-5.4,9.9-5.4c6.7,0,11.7,5.7,11.7,14.1
			c0,10-6.1,14.9-12.6,14.9c-3.7,0-6.9-1.6-8.5-4.4h-0.1v15.1h-5V766.5z M616.2,773.9c0,0.7,0.1,1.4,0.2,2.1c0.9,3.5,4,5.9,7.6,5.9
			c5.3,0,8.4-4.4,8.4-10.7c0-5.6-2.9-10.3-8.3-10.3c-3.4,0-6.6,2.5-7.6,6.2c-0.2,0.6-0.3,1.4-0.3,2.1V773.9z"/>
		<path class="st1" d="M646.6,772.2c0.1,6.8,4.5,9.6,9.5,9.6c3.6,0,5.8-0.6,7.7-1.4l0.9,3.6c-1.8,0.8-4.8,1.7-9.2,1.7
			c-8.5,0-13.6-5.6-13.6-14s4.9-15,13-15c9.1,0,11.5,8,11.5,13.1c0,1-0.1,1.8-0.2,2.3H646.6z M661.4,768.6c0.1-3.2-1.3-8.2-7-8.2
			c-5.1,0-7.3,4.7-7.7,8.2H661.4z"/>
		<path class="st1" d="M672.5,765c0-2.9-0.1-5.2-0.2-7.5h4.5l0.3,4.6h0.1c1.4-2.6,4.6-5.2,9.2-5.2c3.8,0,9.8,2.3,9.8,11.8v16.6h-5
			v-16c0-4.5-1.7-8.2-6.4-8.2c-3.3,0-5.9,2.3-6.8,5.2c-0.2,0.6-0.3,1.5-0.3,2.3v16.7h-5V765z"/>
		<path class="st1" d="M728.3,744.5V778c0,2.5,0.1,5.3,0.2,7.2H724l-0.2-4.8h-0.1c-1.5,3.1-4.9,5.4-9.5,5.4
			c-6.7,0-11.9-5.7-11.9-14.1c-0.1-9.2,5.7-14.9,12.4-14.9c4.2,0,7.1,2,8.4,4.2h0.1v-16.6H728.3z M723.2,768.7
			c0-0.6-0.1-1.5-0.2-2.1c-0.7-3.2-3.5-5.8-7.3-5.8c-5.2,0-8.3,4.6-8.3,10.7c0,5.6,2.8,10.3,8.2,10.3c3.4,0,6.5-2.2,7.4-6
			c0.2-0.7,0.2-1.4,0.2-2.2V768.7z"/>
		<path class="st1" d="M739.4,772.2c0.1,6.8,4.5,9.6,9.5,9.6c3.6,0,5.8-0.6,7.7-1.4l0.9,3.6c-1.8,0.8-4.8,1.7-9.2,1.7
			c-8.5,0-13.6-5.6-13.6-14s4.9-15,13-15c9.1,0,11.5,8,11.5,13.1c0,1-0.1,1.8-0.2,2.3H739.4z M754.2,768.6c0.1-3.2-1.3-8.2-7-8.2
			c-5.1,0-7.3,4.7-7.7,8.2H754.2z M749.2,745.5l5.5,8.2h-3.8l-3.3-5.4h-0.1l-3.3,5.4h-3.8l5.4-8.2H749.2z"/>
		<path class="st1" d="M765.3,765c0-2.9-0.1-5.2-0.2-7.5h4.5l0.3,4.6h0.1c1.4-2.6,4.6-5.2,9.2-5.2c3.8,0,9.8,2.3,9.8,11.8v16.6h-5
			v-16c0-4.5-1.7-8.2-6.4-8.2c-3.3,0-5.9,2.3-6.8,5.2c-0.2,0.6-0.3,1.5-0.3,2.3v16.7h-5V765z"/>
		<path class="st1" d="M816.9,784.2c-1.3,0.7-4.2,1.6-8,1.6c-8.4,0-13.8-5.7-13.8-14.2c0-8.5,5.8-14.7,14.9-14.7c3,0,5.6,0.7,7,1.4
			l-1.1,3.9c-1.2-0.7-3.1-1.3-5.8-1.3c-6.4,0-9.8,4.7-9.8,10.5c0,6.4,4.1,10.4,9.6,10.4c2.9,0,4.8-0.7,6.2-1.4L816.9,784.2z"/>
		<path class="st1" d="M828.4,749.7c0.1,1.7-1.2,3.1-3.2,3.1c-1.8,0-3-1.4-3-3.1c0-1.8,1.3-3.2,3.2-3.2
			C827.2,746.5,828.4,747.9,828.4,749.7z M822.8,785.2v-27.7h5v27.7H822.8z"/>
		<path class="st1" d="M851.5,785.2l-0.4-3.5H851c-1.5,2.2-4.5,4.1-8.5,4.1c-5.6,0-8.5-4-8.5-8c0-6.7,6-10.4,16.7-10.3V767
			c0-2.3-0.6-6.4-6.3-6.4c-2.6,0-5.3,0.8-7.2,2.1l-1.1-3.3c2.3-1.5,5.6-2.5,9.1-2.5c8.5,0,10.5,5.8,10.5,11.3v10.4
			c0,2.4,0.1,4.8,0.5,6.6H851.5z M850.8,771c-5.5-0.1-11.7,0.9-11.7,6.2c0,3.3,2.2,4.8,4.8,4.8c3.6,0,5.9-2.3,6.7-4.6
			c0.2-0.5,0.3-1.1,0.3-1.6V771z"/>
		<path class="st1" d="M894.8,780.9h-0.1c-1.5,2.8-4.6,4.9-9.1,4.9c-6.5,0-11.7-5.6-11.7-14c0-10.4,6.7-15,12.5-15
			c4.3,0,7.2,2.1,8.5,4.8h0.1l0.2-4.2h4.8c-0.1,2.3-0.2,4.8-0.2,7.6v31.5h-5V780.9z M894.8,768.7c0-0.7-0.1-1.5-0.2-2.1
			c-0.7-3.1-3.4-5.7-7.2-5.7c-5.2,0-8.4,4.4-8.4,10.7c0,5.5,2.6,10.3,8.2,10.3c3.3,0,6.1-2,7.2-5.5c0.2-0.7,0.4-1.7,0.4-2.4V768.7z"
			/>
		<path class="st1" d="M931.4,777.6c0,2.9,0.1,5.4,0.2,7.6h-4.5l-0.3-4.5h-0.1c-1.3,2.2-4.2,5.2-9.2,5.2c-4.4,0-9.6-2.4-9.6-12.1
			v-16.2h5v15.4c0,5.3,1.6,8.8,6.2,8.8c3.4,0,5.7-2.3,6.6-4.6c0.3-0.7,0.5-1.7,0.5-2.6v-17h5V777.6z"/>
		<path class="st1" d="M950,745.5l-7,8.2h-3.6l5-8.2H950z M939.8,785.2v-27.7h5v27.7H939.8z"/>
		<path class="st1" d="M953.2,765c0-2.9-0.1-5.2-0.2-7.5h4.4l0.2,4.5h0.2c1.5-2.6,4.1-5.1,8.7-5.1c3.8,0,6.6,2.3,7.8,5.6h0.1
			c0.9-1.5,1.9-2.8,3.1-3.6c1.7-1.3,3.5-1.9,6.1-1.9c3.7,0,9.1,2.4,9.1,12v16.3h-4.9v-15.7c0-5.3-1.9-8.5-6-8.5
			c-2.9,0-5.1,2.1-6,4.6c-0.2,0.7-0.4,1.6-0.4,2.5v17.1h-4.9v-16.6c0-4.4-1.9-7.6-5.8-7.6c-3.2,0-5.4,2.5-6.2,5
			c-0.3,0.7-0.4,1.6-0.4,2.5v16.7h-4.9V765z"/>
		<path class="st1" d="M1006.6,749.7c0.1,1.7-1.2,3.1-3.2,3.1c-1.8,0-3-1.4-3-3.1c0-1.8,1.3-3.2,3.2-3.2
			C1005.4,746.5,1006.6,747.9,1006.6,749.7z M1000.9,785.2v-27.7h5v27.7H1000.9z"/>
		<path class="st1" d="M1034.1,784.2c-1.3,0.7-4.2,1.6-8,1.6c-8.4,0-13.8-5.7-13.8-14.2c0-8.5,5.8-14.7,14.9-14.7c3,0,5.6,0.7,7,1.4
			l-1.1,3.9c-1.2-0.7-3.1-1.3-5.8-1.3c-6.4,0-9.8,4.7-9.8,10.5c0,6.4,4.1,10.4,9.6,10.4c2.9,0,4.8-0.7,6.2-1.4L1034.1,784.2z"/>
		<path class="st1" d="M1055.4,785.2l-0.4-3.5h-0.2c-1.5,2.2-4.5,4.1-8.5,4.1c-5.6,0-8.5-4-8.5-8c0-6.7,6-10.4,16.7-10.3V767
			c0-2.3-0.6-6.4-6.3-6.4c-2.6,0-5.3,0.8-7.2,2.1l-1.1-3.3c2.3-1.5,5.6-2.5,9.1-2.5c8.5,0,10.5,5.8,10.5,11.3v10.4
			c0,2.4,0.1,4.8,0.5,6.6H1055.4z M1054.6,771c-5.5-0.1-11.7,0.9-11.7,6.2c0,3.3,2.2,4.8,4.8,4.8c3.6,0,5.9-2.3,6.7-4.6
			c0.2-0.5,0.3-1.1,0.3-1.6V771z"/>
		<path class="st1" d="M165.2,835c0.1,6.8,4.5,9.6,9.5,9.6c3.6,0,5.8-0.6,7.7-1.4l0.9,3.6c-1.8,0.8-4.8,1.7-9.2,1.7
			c-8.5,0-13.6-5.6-13.6-14s4.9-15,13-15c9.1,0,11.5,8,11.5,13.1c0,1-0.1,1.8-0.2,2.3H165.2z M180,831.4c0.1-3.2-1.3-8.2-7-8.2
			c-5.1,0-7.3,4.7-7.7,8.2H180z"/>
		<path class="st1" d="M191.1,827.7c0-2.9-0.1-5.2-0.2-7.5h4.4l0.2,4.5h0.2c1.5-2.6,4.1-5.1,8.7-5.1c3.8,0,6.6,2.3,7.8,5.6h0.1
			c0.9-1.5,1.9-2.8,3.1-3.6c1.7-1.3,3.5-1.9,6.1-1.9c3.7,0,9.1,2.4,9.1,12v16.3h-4.9v-15.7c0-5.3-1.9-8.5-6-8.5
			c-2.9,0-5.1,2.1-6,4.6c-0.2,0.7-0.4,1.6-0.4,2.5v17.1h-4.9v-16.6c0-4.4-1.9-7.6-5.8-7.6c-3.2,0-5.4,2.5-6.2,5
			c-0.3,0.7-0.4,1.6-0.4,2.5v16.7h-4.9V827.7z"/>
		<path class="st1" d="M251,827.7c0-2.9-0.1-5.2-0.2-7.5h4.4l0.2,4.5h0.2c1.5-2.6,4.1-5.1,8.7-5.1c3.8,0,6.6,2.3,7.8,5.6h0.1
			c0.9-1.5,1.9-2.8,3.1-3.6c1.7-1.3,3.5-1.9,6.1-1.9c3.7,0,9.1,2.4,9.1,12v16.3h-4.9v-15.7c0-5.3-1.9-8.5-6-8.5
			c-2.9,0-5.1,2.1-6,4.6c-0.2,0.7-0.4,1.6-0.4,2.5v17.1h-4.9v-16.6c0-4.4-1.9-7.6-5.8-7.6c-3.2,0-5.4,2.5-6.2,5
			c-0.3,0.7-0.4,1.6-0.4,2.5v16.7H251V827.7z"/>
		<path class="st1" d="M322,840.4c0,2.9,0.1,5.4,0.2,7.6h-4.5l-0.3-4.5h-0.1c-1.3,2.2-4.2,5.2-9.2,5.2c-4.4,0-9.6-2.4-9.6-12.1
			v-16.2h5v15.4c0,5.3,1.6,8.8,6.2,8.8c3.4,0,5.7-2.3,6.6-4.6c0.3-0.7,0.5-1.7,0.5-2.6v-17h5V840.4z"/>
		<path class="st1" d="M330.4,807.2h5v40.7h-5V807.2z"/>
		<path class="st1" d="M343.9,807.2h5v17.3h0.1c0.8-1.4,2.1-2.7,3.6-3.6c1.5-0.9,3.3-1.4,5.2-1.4c3.7,0,9.7,2.3,9.7,11.9v16.5h-5
			V832c0-4.5-1.7-8.3-6.4-8.3c-3.3,0-5.8,2.3-6.8,5c-0.3,0.7-0.3,1.4-0.3,2.4v16.7h-5V807.2z"/>
		<path class="st1" d="M378.5,835c0.1,6.8,4.5,9.6,9.5,9.6c3.6,0,5.8-0.6,7.7-1.4l0.9,3.6c-1.8,0.8-4.8,1.7-9.2,1.7
			c-8.5,0-13.6-5.6-13.6-14s4.9-15,13-15c9.1,0,11.5,8,11.5,13.1c0,1-0.1,1.8-0.2,2.3H378.5z M393.3,831.4c0.1-3.2-1.3-8.2-7-8.2
			c-5.1,0-7.3,4.7-7.7,8.2H393.3z"/>
		<path class="st1" d="M404.4,828.8c0-3.3-0.1-6.1-0.2-8.7h4.4l0.2,5.4h0.2c1.3-3.7,4.3-6.1,7.7-6.1c0.6,0,1,0.1,1.4,0.2v4.8
			c-0.5-0.1-1-0.2-1.7-0.2c-3.6,0-6.1,2.7-6.8,6.5c-0.1,0.7-0.2,1.5-0.2,2.3v14.8h-5V828.8z"/>
		<path class="st1" d="M425.3,835c0.1,6.8,4.5,9.6,9.5,9.6c3.6,0,5.8-0.6,7.7-1.4l0.9,3.6c-1.8,0.8-4.8,1.7-9.2,1.7
			c-8.5,0-13.6-5.6-13.6-14s4.9-15,13-15c9.1,0,11.5,8,11.5,13.1c0,1-0.1,1.8-0.2,2.3H425.3z M440.1,831.4c0.1-3.2-1.3-8.2-7-8.2
			c-5.1,0-7.3,4.7-7.7,8.2H440.1z"/>
		<path class="st1" d="M450.5,842.8c1.5,1,4.1,2,6.6,2c3.7,0,5.4-1.8,5.4-4.1c0-2.4-1.4-3.7-5.2-5.1c-5-1.8-7.3-4.5-7.3-7.8
			c0-4.5,3.6-8.1,9.6-8.1c2.8,0,5.3,0.8,6.8,1.7l-1.3,3.7c-1.1-0.7-3.1-1.6-5.7-1.6c-3,0-4.6,1.7-4.6,3.8c0,2.3,1.7,3.3,5.3,4.7
			c4.8,1.8,7.3,4.2,7.3,8.4c0,4.9-3.8,8.3-10.4,8.3c-3,0-5.8-0.7-7.8-1.9L450.5,842.8z"/>
		<path class="st1" d="M501.4,847.9l-0.4-3.5h-0.2c-1.5,2.2-4.5,4.1-8.5,4.1c-5.6,0-8.5-4-8.5-8c0-6.7,6-10.4,16.7-10.3v-0.6
			c0-2.3-0.6-6.4-6.3-6.4c-2.6,0-5.3,0.8-7.2,2.1l-1.1-3.3c2.3-1.5,5.6-2.5,9.1-2.5c8.5,0,10.5,5.8,10.5,11.3v10.4
			c0,2.4,0.1,4.8,0.5,6.6H501.4z M500.7,833.8c-5.5-0.1-11.7,0.9-11.7,6.2c0,3.3,2.2,4.8,4.8,4.8c3.6,0,5.9-2.3,6.7-4.6
			c0.2-0.5,0.3-1.1,0.3-1.6V833.8z"/>
		<path class="st1" d="M533.4,846.9c-1.3,0.7-4.2,1.6-8,1.6c-8.4,0-13.8-5.7-13.8-14.2c0-8.5,5.8-14.7,14.9-14.7c3,0,5.6,0.7,7,1.4
			l-1.1,3.9c-1.2-0.7-3.1-1.3-5.8-1.3c-6.4,0-9.8,4.7-9.8,10.5c0,6.4,4.1,10.4,9.6,10.4c2.9,0,4.8-0.7,6.2-1.4L533.4,846.9z"/>
		<path class="st1" d="M564.1,833.8c0,10.3-7.1,14.7-13.8,14.7c-7.5,0-13.3-5.5-13.3-14.3c0-9.3,6.1-14.7,13.8-14.7
			C558.7,819.6,564.1,825.4,564.1,833.8z M542.1,834.1c0,6.1,3.5,10.7,8.4,10.7c4.8,0,8.4-4.5,8.4-10.8c0-4.7-2.3-10.7-8.3-10.7
			C544.7,823.3,542.1,828.8,542.1,834.1z"/>
		<path class="st1" d="M570.5,807.2h5v40.7h-5V807.2z"/>
		<path class="st1" d="M584,807.2h5v17.3h0.1c0.8-1.4,2.1-2.7,3.6-3.6c1.5-0.9,3.3-1.4,5.2-1.4c3.7,0,9.7,2.3,9.7,11.9v16.5h-5V832
			c0-4.5-1.7-8.3-6.4-8.3c-3.3,0-5.8,2.3-6.8,5c-0.3,0.7-0.3,1.4-0.3,2.4v16.7h-5V807.2z"/>
		<path class="st1" d="M621.4,812.4c0.1,1.7-1.2,3.1-3.2,3.1c-1.8,0-3-1.4-3-3.1c0-1.8,1.3-3.2,3.2-3.2
			C620.2,809.3,621.4,810.6,621.4,812.4z M615.8,847.9v-27.7h5v27.7H615.8z"/>
		<path class="st1" d="M653.1,807.2v33.5c0,2.5,0.1,5.3,0.2,7.2h-4.5l-0.2-4.8h-0.1c-1.5,3.1-4.9,5.4-9.5,5.4
			c-6.7,0-11.9-5.7-11.9-14.1c-0.1-9.2,5.7-14.9,12.4-14.9c4.2,0,7.1,2,8.4,4.2h0.1v-16.6H653.1z M648.1,831.5
			c0-0.6-0.1-1.5-0.2-2.1c-0.7-3.2-3.5-5.8-7.3-5.8c-5.2,0-8.3,4.6-8.3,10.7c0,5.6,2.8,10.3,8.2,10.3c3.4,0,6.5-2.2,7.4-6
			c0.2-0.7,0.2-1.4,0.2-2.2V831.5z"/>
		<path class="st1" d="M676.8,847.9l-0.4-3.5h-0.2c-1.5,2.2-4.5,4.1-8.5,4.1c-5.6,0-8.5-4-8.5-8c0-6.7,6-10.4,16.7-10.3v-0.6
			c0-2.3-0.6-6.4-6.3-6.4c-2.6,0-5.3,0.8-7.2,2.1l-1.1-3.3c2.3-1.5,5.6-2.5,9.1-2.5c8.5,0,10.5,5.8,10.5,11.3v10.4
			c0,2.4,0.1,4.8,0.5,6.6H676.8z M676.1,833.8c-5.5-0.1-11.7,0.9-11.7,6.2c0,3.3,2.2,4.8,4.8,4.8c3.6,0,5.9-2.3,6.7-4.6
			c0.2-0.5,0.3-1.1,0.3-1.6V833.8z"/>
		<path class="st1" d="M688.4,842.8c1.5,1,4.1,2,6.6,2c3.7,0,5.4-1.8,5.4-4.1c0-2.4-1.4-3.7-5.2-5.1c-5-1.8-7.3-4.5-7.3-7.8
			c0-4.5,3.6-8.1,9.6-8.1c2.8,0,5.3,0.8,6.8,1.7l-1.3,3.7c-1.1-0.7-3.1-1.6-5.7-1.6c-3,0-4.6,1.7-4.6,3.8c0,2.3,1.7,3.3,5.3,4.7
			c4.8,1.8,7.3,4.2,7.3,8.4c0,4.9-3.8,8.3-10.4,8.3c-3,0-5.8-0.7-7.8-1.9L688.4,842.8z"/>
		<path class="st1" d="M726.7,835c0.1,6.8,4.5,9.6,9.5,9.6c3.6,0,5.8-0.6,7.7-1.4l0.9,3.6c-1.8,0.8-4.8,1.7-9.2,1.7
			c-8.5,0-13.6-5.6-13.6-14s4.9-15,13-15c9.1,0,11.5,8,11.5,13.1c0,1-0.1,1.8-0.2,2.3H726.7z M741.5,831.4c0.1-3.2-1.3-8.2-7-8.2
			c-5.1,0-7.3,4.7-7.7,8.2H741.5z"/>
		<path class="st1" d="M764.8,828.8c0-3.3-0.1-6.1-0.2-8.7h4.4l0.2,5.4h0.2c1.3-3.7,4.3-6.1,7.7-6.1c0.6,0,1,0.1,1.4,0.2v4.8
			c-0.5-0.1-1-0.2-1.7-0.2c-3.6,0-6.1,2.7-6.8,6.5c-0.1,0.7-0.2,1.5-0.2,2.3v14.8h-5V828.8z"/>
		<path class="st1" d="M785.7,835c0.1,6.8,4.5,9.6,9.5,9.6c3.6,0,5.8-0.6,7.7-1.4l0.9,3.6c-1.8,0.8-4.8,1.7-9.2,1.7
			c-8.5,0-13.6-5.6-13.6-14s4.9-15,13-15c9.1,0,11.5,8,11.5,13.1c0,1-0.1,1.8-0.2,2.3H785.7z M800.5,831.4c0.1-3.2-1.3-8.2-7-8.2
			c-5.1,0-7.3,4.7-7.7,8.2H800.5z"/>
		<path class="st1" d="M831.4,846.9c-1.3,0.7-4.2,1.6-8,1.6c-8.4,0-13.8-5.7-13.8-14.2c0-8.5,5.8-14.7,14.9-14.7c3,0,5.6,0.7,7,1.4
			l-1.1,3.9c-1.2-0.7-3.1-1.3-5.8-1.3c-6.4,0-9.8,4.7-9.8,10.5c0,6.4,4.1,10.4,9.6,10.4c2.9,0,4.8-0.7,6.2-1.4L831.4,846.9z"/>
		<path class="st1" d="M837.3,807.2h5v40.7h-5V807.2z"/>
		<path class="st1" d="M874,840.4c0,2.9,0.1,5.4,0.2,7.6h-4.5l-0.3-4.5h-0.1c-1.3,2.2-4.2,5.2-9.2,5.2c-4.4,0-9.6-2.4-9.6-12.1
			v-16.2h5v15.4c0,5.3,1.6,8.8,6.2,8.8c3.4,0,5.7-2.3,6.6-4.6c0.3-0.7,0.5-1.7,0.5-2.6v-17h5V840.4z"/>
		<path class="st1" d="M881.7,842.8c1.5,1,4.1,2,6.6,2c3.7,0,5.4-1.8,5.4-4.1c0-2.4-1.4-3.7-5.2-5.1c-5-1.8-7.3-4.5-7.3-7.8
			c0-4.5,3.6-8.1,9.6-8.1c2.8,0,5.3,0.8,6.8,1.7l-1.3,3.7c-1.1-0.7-3.1-1.6-5.7-1.6c-3,0-4.6,1.7-4.6,3.8c0,2.3,1.7,3.3,5.3,4.7
			c4.8,1.8,7.3,4.2,7.3,8.4c0,4.9-3.8,8.3-10.4,8.3c-3,0-5.8-0.7-7.8-1.9L881.7,842.8z"/>
		<path class="st1" d="M920.4,847.9l-0.4-3.5h-0.2c-1.5,2.2-4.5,4.1-8.5,4.1c-5.6,0-8.5-4-8.5-8c0-6.7,6-10.4,16.7-10.3v-0.6
			c0-2.3-0.6-6.4-6.3-6.4c-2.6,0-5.3,0.8-7.2,2.1l-1.1-3.3c2.3-1.5,5.6-2.5,9.1-2.5c8.5,0,10.5,5.8,10.5,11.3v10.4
			c0,2.4,0.1,4.8,0.5,6.6H920.4z M919.7,833.8c-5.5-0.1-11.7,0.9-11.7,6.2c0,3.3,2.2,4.8,4.8,4.8c3.6,0,5.9-2.3,6.7-4.6
			c0.2-0.5,0.3-1.1,0.3-1.6V833.8z"/>
		<path class="st1" d="M932,842.8c1.5,1,4.1,2,6.6,2c3.7,0,5.4-1.8,5.4-4.1c0-2.4-1.4-3.7-5.2-5.1c-5-1.8-7.3-4.5-7.3-7.8
			c0-4.5,3.6-8.1,9.6-8.1c2.8,0,5.3,0.8,6.8,1.7l-1.3,3.7c-1.1-0.7-3.1-1.6-5.7-1.6c-3,0-4.6,1.7-4.6,3.8c0,2.3,1.7,3.3,5.3,4.7
			c4.8,1.8,7.3,4.2,7.3,8.4c0,4.9-3.8,8.3-10.4,8.3c-3,0-5.8-0.7-7.8-1.9L932,842.8z"/>
		<path class="st1" d="M954.2,824.8c0-2.1,1.4-3.6,3.4-3.6c2,0,3.3,1.5,3.4,3.6c0,2-1.3,3.6-3.4,3.6
			C955.5,828.3,954.2,826.8,954.2,824.8z M954.2,845c0-2.1,1.4-3.6,3.4-3.6c2,0,3.3,1.5,3.4,3.6c0,2-1.3,3.6-3.4,3.6
			C955.5,848.6,954.2,847,954.2,845z"/>
		<path class="st1" d="M145.3,896.6c0,10.3-7.1,14.7-13.8,14.7c-7.5,0-13.3-5.5-13.3-14.3c0-9.3,6.1-14.7,13.8-14.7
			C139.9,882.3,145.3,888.1,145.3,896.6z M123.3,896.9c0,6.1,3.5,10.7,8.4,10.7c4.8,0,8.4-4.5,8.4-10.8c0-4.7-2.3-10.7-8.3-10.7
			S123.3,891.6,123.3,896.9z"/>
		<path class="st1" d="M151.6,892c0-3.6-0.1-6.4-0.2-9.1h4.5l0.2,4.8h0.1c2.1-3.4,5.3-5.4,9.9-5.4c6.7,0,11.7,5.7,11.7,14.1
			c0,10-6.1,14.9-12.6,14.9c-3.7,0-6.9-1.6-8.5-4.4h-0.1V922h-5V892z M156.6,899.4c0,0.7,0.1,1.4,0.2,2.1c0.9,3.5,4,5.9,7.6,5.9
			c5.3,0,8.4-4.4,8.4-10.7c0-5.6-2.9-10.3-8.3-10.3c-3.4,0-6.6,2.5-7.6,6.2c-0.2,0.6-0.3,1.4-0.3,2.1V899.4z"/>
		<path class="st1" d="M209.3,896.6c0,10.3-7.1,14.7-13.8,14.7c-7.5,0-13.3-5.5-13.3-14.3c0-9.3,6.1-14.7,13.8-14.7
			C203.9,882.3,209.3,888.1,209.3,896.6z M187.3,896.9c0,6.1,3.5,10.7,8.4,10.7c4.8,0,8.4-4.5,8.4-10.8c0-4.7-2.3-10.7-8.3-10.7
			S187.3,891.6,187.3,896.9z"/>
		<path class="st1" d="M215.7,891.6c0-3.3-0.1-6.1-0.2-8.7h4.4l0.2,5.4h0.2c1.3-3.7,4.3-6.1,7.7-6.1c0.6,0,1,0.1,1.4,0.2v4.8
			c-0.5-0.1-1-0.2-1.7-0.2c-3.6,0-6.1,2.7-6.8,6.5c-0.1,0.7-0.2,1.5-0.2,2.3v14.8h-5V891.6z"/>
		<path class="st1" d="M241.8,875v8h7.2v3.8h-7.2v15c0,3.4,1,5.4,3.8,5.4c1.3,0,2.3-0.2,2.9-0.3l0.2,3.8c-1,0.4-2.5,0.7-4.5,0.7
			c-2.3,0-4.2-0.7-5.4-2.1c-1.4-1.5-1.9-4-1.9-7.2v-15.1h-4.3v-3.8h4.3v-6.6L241.8,875z"/>
		<path class="st1" d="M277.9,903.1c0,2.9,0.1,5.4,0.2,7.6h-4.5l-0.3-4.5h-0.1c-1.3,2.2-4.2,5.2-9.2,5.2c-4.4,0-9.6-2.4-9.6-12.1
			v-16.2h5v15.4c0,5.3,1.6,8.8,6.2,8.8c3.4,0,5.7-2.3,6.6-4.6c0.3-0.7,0.5-1.7,0.5-2.6v-17h5V903.1z"/>
		<path class="st1" d="M286.3,890.4c0-2.9-0.1-5.2-0.2-7.5h4.5l0.3,4.6h0.1c1.4-2.6,4.6-5.2,9.2-5.2c3.8,0,9.8,2.3,9.8,11.8v16.6h-5
			v-16c0-4.5-1.7-8.2-6.4-8.2c-3.3,0-5.9,2.3-6.8,5.2c-0.2,0.6-0.3,1.5-0.3,2.3v16.7h-5V890.4z"/>
		<path class="st1" d="M323.7,875.1c0.1,1.7-1.2,3.1-3.2,3.1c-1.8,0-3-1.4-3-3.1c0-1.8,1.3-3.2,3.2-3.2
			C322.5,872,323.7,873.4,323.7,875.1z M318.1,910.7v-27.7h5v27.7H318.1z"/>
		<path class="st1" d="M355.4,870v33.5c0,2.5,0.1,5.3,0.2,7.2h-4.5l-0.2-4.8h-0.1c-1.5,3.1-4.9,5.4-9.5,5.4
			c-6.7,0-11.9-5.7-11.9-14.1c-0.1-9.2,5.7-14.9,12.4-14.9c4.2,0,7.1,2,8.4,4.2h0.1V870H355.4z M350.4,894.2c0-0.6-0.1-1.5-0.2-2.1
			c-0.7-3.2-3.5-5.8-7.3-5.8c-5.2,0-8.3,4.6-8.3,10.7c0,5.6,2.8,10.3,8.2,10.3c3.4,0,6.5-2.2,7.4-6c0.2-0.7,0.2-1.4,0.2-2.2V894.2z"
			/>
		<path class="st1" d="M379.2,910.7l-0.4-3.5h-0.2c-1.5,2.2-4.5,4.1-8.5,4.1c-5.6,0-8.5-4-8.5-8c0-6.7,6-10.4,16.7-10.3v-0.6
			c0-2.3-0.6-6.4-6.3-6.4c-2.6,0-5.3,0.8-7.2,2.1l-1.1-3.3c2.3-1.5,5.6-2.5,9.1-2.5c8.5,0,10.5,5.8,10.5,11.3V904
			c0,2.4,0.1,4.8,0.5,6.6H379.2z M378.4,896.5c-5.5-0.1-11.7,0.9-11.7,6.2c0,3.3,2.2,4.8,4.8,4.8c3.6,0,5.9-2.3,6.7-4.6
			c0.2-0.5,0.3-1.1,0.3-1.6V896.5z"/>
		<path class="st1" d="M415.4,870v33.5c0,2.5,0.1,5.3,0.2,7.2h-4.5l-0.2-4.8h-0.1c-1.5,3.1-4.9,5.4-9.5,5.4
			c-6.7,0-11.9-5.7-11.9-14.1c-0.1-9.2,5.7-14.9,12.4-14.9c4.2,0,7.1,2,8.4,4.2h0.1V870H415.4z M410.3,894.2c0-0.6-0.1-1.5-0.2-2.1
			c-0.7-3.2-3.5-5.8-7.3-5.8c-5.2,0-8.3,4.6-8.3,10.7c0,5.6,2.8,10.3,8.2,10.3c3.4,0,6.5-2.2,7.4-6c0.2-0.7,0.2-1.4,0.2-2.2V894.2z"
			/>
		<path class="st1" d="M426.5,897.7c0.1,6.8,4.5,9.6,9.5,9.6c3.6,0,5.8-0.6,7.7-1.4l0.9,3.6c-1.8,0.8-4.8,1.7-9.2,1.7
			c-8.5,0-13.6-5.6-13.6-14s4.9-15,13-15c9.1,0,11.5,8,11.5,13.1c0,1-0.1,1.8-0.2,2.3H426.5z M441.3,894.1c0.1-3.2-1.3-8.2-7-8.2
			c-5.1,0-7.3,4.7-7.7,8.2H441.3z"/>
		<path class="st1" d="M451.7,905.5c1.5,1,4.1,2,6.6,2c3.7,0,5.4-1.8,5.4-4.1c0-2.4-1.4-3.7-5.2-5.1c-5-1.8-7.3-4.5-7.3-7.8
			c0-4.5,3.6-8.1,9.6-8.1c2.8,0,5.3,0.8,6.8,1.7l-1.3,3.7c-1.1-0.7-3.1-1.6-5.7-1.6c-3,0-4.6,1.7-4.6,3.8c0,2.3,1.7,3.3,5.3,4.7
			c4.8,1.8,7.3,4.2,7.3,8.4c0,4.9-3.8,8.3-10.4,8.3c-3,0-5.8-0.7-7.8-1.9L451.7,905.5z"/>
		<path class="st1" d="M511.2,870v33.5c0,2.5,0.1,5.3,0.2,7.2h-4.5l-0.2-4.8h-0.1c-1.5,3.1-4.9,5.4-9.5,5.4
			c-6.7,0-11.9-5.7-11.9-14.1c-0.1-9.2,5.7-14.9,12.4-14.9c4.2,0,7.1,2,8.4,4.2h0.1V870H511.2z M506.2,894.2c0-0.6-0.1-1.5-0.2-2.1
			c-0.7-3.2-3.5-5.8-7.3-5.8c-5.2,0-8.3,4.6-8.3,10.7c0,5.6,2.8,10.3,8.2,10.3c3.4,0,6.5-2.2,7.4-6c0.2-0.7,0.2-1.4,0.2-2.2V894.2z"
			/>
		<path class="st1" d="M522.4,897.7c0.1,6.8,4.5,9.6,9.5,9.6c3.6,0,5.8-0.6,7.7-1.4l0.9,3.6c-1.8,0.8-4.8,1.7-9.2,1.7
			c-8.5,0-13.6-5.6-13.6-14s4.9-15,13-15c9.1,0,11.5,8,11.5,13.1c0,1-0.1,1.8-0.2,2.3H522.4z M537.2,894.1c0.1-3.2-1.3-8.2-7-8.2
			c-5.1,0-7.3,4.7-7.7,8.2H537.2z"/>
		<path class="st1" d="M580.2,909.6c-1.3,0.7-4.2,1.6-8,1.6c-8.4,0-13.8-5.7-13.8-14.2c0-8.5,5.8-14.7,14.9-14.7c3,0,5.6,0.7,7,1.4
			l-1.1,3.9c-1.2-0.7-3.1-1.3-5.8-1.3c-6.4,0-9.8,4.7-9.8,10.5c0,6.4,4.1,10.4,9.6,10.4c2.9,0,4.8-0.7,6.2-1.4L580.2,909.6z"/>
		<path class="st1" d="M609.3,903.1c0,2.9,0.1,5.4,0.2,7.6h-4.5l-0.3-4.5h-0.1c-1.3,2.2-4.2,5.2-9.2,5.2c-4.4,0-9.6-2.4-9.6-12.1
			v-16.2h5v15.4c0,5.3,1.6,8.8,6.2,8.8c3.4,0,5.7-2.3,6.6-4.6c0.3-0.7,0.5-1.7,0.5-2.6v-17h5V903.1z"/>
		<path class="st1" d="M623.3,875.1c0.1,1.7-1.2,3.1-3.2,3.1c-1.8,0-3-1.4-3-3.1c0-1.8,1.3-3.2,3.2-3.2
			C622.1,872,623.3,873.4,623.3,875.1z M617.7,910.7v-27.7h5v27.7H617.7z"/>
		<path class="st1" d="M655,870v33.5c0,2.5,0.1,5.3,0.2,7.2h-4.5l-0.2-4.8h-0.1c-1.5,3.1-4.9,5.4-9.5,5.4c-6.7,0-11.9-5.7-11.9-14.1
			c-0.1-9.2,5.7-14.9,12.4-14.9c4.2,0,7.1,2,8.4,4.2h0.1V870H655z M650,894.2c0-0.6-0.1-1.5-0.2-2.1c-0.7-3.2-3.5-5.8-7.3-5.8
			c-5.2,0-8.3,4.6-8.3,10.7c0,5.6,2.8,10.3,8.2,10.3c3.4,0,6.5-2.2,7.4-6c0.2-0.7,0.2-1.4,0.2-2.2V894.2z"/>
		<path class="st1" d="M678.7,910.7l-0.4-3.5h-0.2c-1.5,2.2-4.5,4.1-8.5,4.1c-5.6,0-8.5-4-8.5-8c0-6.7,6-10.4,16.7-10.3v-0.6
			c0-2.3-0.6-6.4-6.3-6.4c-2.6,0-5.3,0.8-7.2,2.1l-1.1-3.3c2.3-1.5,5.6-2.5,9.1-2.5c8.5,0,10.5,5.8,10.5,11.3V904
			c0,2.4,0.1,4.8,0.5,6.6H678.7z M678,896.5c-5.5-0.1-11.7,0.9-11.7,6.2c0,3.3,2.2,4.8,4.8,4.8c3.6,0,5.9-2.3,6.7-4.6
			c0.2-0.5,0.3-1.1,0.3-1.6V896.5z"/>
		<path class="st1" d="M714.9,870v33.5c0,2.5,0.1,5.3,0.2,7.2h-4.5l-0.2-4.8h-0.1c-1.5,3.1-4.9,5.4-9.5,5.4
			c-6.7,0-11.9-5.7-11.9-14.1c-0.1-9.2,5.7-14.9,12.4-14.9c4.2,0,7.1,2,8.4,4.2h0.1V870H714.9z M709.9,894.2c0-0.6-0.1-1.5-0.2-2.1
			c-0.7-3.2-3.5-5.8-7.3-5.8c-5.2,0-8.3,4.6-8.3,10.7c0,5.6,2.8,10.3,8.2,10.3c3.4,0,6.5-2.2,7.4-6c0.2-0.7,0.2-1.4,0.2-2.2V894.2z"
			/>
		<path class="st1" d="M748.4,896.6c0,10.3-7.1,14.7-13.8,14.7c-7.5,0-13.3-5.5-13.3-14.3c0-9.3,6.1-14.7,13.8-14.7
			C743,882.3,748.4,888.1,748.4,896.6z M726.4,896.9c0,6.1,3.5,10.7,8.4,10.7c4.8,0,8.4-4.5,8.4-10.8c0-4.7-2.3-10.7-8.3-10.7
			C729,886.1,726.4,891.6,726.4,896.9z"/>
		<path class="st1" d="M769.7,897.7c0.1,6.8,4.5,9.6,9.5,9.6c3.6,0,5.8-0.6,7.7-1.4l0.9,3.6c-1.8,0.8-4.8,1.7-9.2,1.7
			c-8.5,0-13.6-5.6-13.6-14s4.9-15,13-15c9.1,0,11.5,8,11.5,13.1c0,1-0.1,1.8-0.2,2.3H769.7z M784.5,894.1c0.1-3.2-1.3-8.2-7-8.2
			c-5.1,0-7.3,4.7-7.7,8.2H784.5z"/>
		<path class="st1" d="M823.1,910.7l-0.4-3.5h-0.2c-1.5,2.2-4.5,4.1-8.5,4.1c-5.6,0-8.5-4-8.5-8c0-6.7,6-10.4,16.7-10.3v-0.6
			c0-2.3-0.6-6.4-6.3-6.4c-2.6,0-5.3,0.8-7.2,2.1l-1.1-3.3c2.3-1.5,5.6-2.5,9.1-2.5c8.5,0,10.5,5.8,10.5,11.3V904
			c0,2.4,0.1,4.8,0.5,6.6H823.1z M822.3,896.5c-5.5-0.1-11.7,0.9-11.7,6.2c0,3.3,2.2,4.8,4.8,4.8c3.6,0,5.9-2.3,6.7-4.6
			c0.2-0.5,0.3-1.1,0.3-1.6V896.5z"/>
		<path class="st1" d="M841.2,875v8h7.2v3.8h-7.2v15c0,3.4,1,5.4,3.8,5.4c1.3,0,2.3-0.2,2.9-0.3l0.2,3.8c-1,0.4-2.5,0.7-4.5,0.7
			c-2.3,0-4.2-0.7-5.4-2.1c-1.4-1.5-1.9-4-1.9-7.2v-15.1H832v-3.8h4.3v-6.6L841.2,875z"/>
		<path class="st1" d="M856.5,897.7c0.1,6.8,4.5,9.6,9.5,9.6c3.6,0,5.8-0.6,7.7-1.4l0.9,3.6c-1.8,0.8-4.8,1.7-9.2,1.7
			c-8.5,0-13.6-5.6-13.6-14s4.9-15,13-15c9.1,0,11.5,8,11.5,13.1c0,1-0.1,1.8-0.2,2.3H856.5z M871.3,894.1c0.1-3.2-1.3-8.2-7-8.2
			c-5.1,0-7.3,4.7-7.7,8.2H871.3z"/>
		<path class="st1" d="M882.4,890.4c0-2.9-0.1-5.2-0.2-7.5h4.5l0.3,4.6h0.1c1.4-2.6,4.6-5.2,9.2-5.2c3.8,0,9.8,2.3,9.8,11.8v16.6h-5
			v-16c0-4.5-1.7-8.2-6.4-8.2c-3.3,0-5.9,2.3-6.8,5.2c-0.2,0.6-0.3,1.5-0.3,2.3v16.7h-5V890.4z"/>
		<path class="st1" d="M934,909.6c-1.2,0.6-3.8,1.5-7.2,1.6l-1.5,2.3c2.1,0.3,4,1.8,4,4c0,3.4-2.8,4.6-6,4.6c-1.4,0-2.9-0.4-3.9-1
			l0.9-2.5c0.9,0.6,2.1,0.9,3.1,0.9c1.3,0,2.5-0.5,2.5-1.8c-0.1-1.5-1.8-2.2-4.5-2.4l2.4-4.2c-7.1-0.9-11.6-6.3-11.6-14
			c0-8.5,5.8-14.7,14.9-14.7c3,0,5.6,0.7,7,1.4l-1.1,3.9c-1.2-0.7-3.1-1.3-5.8-1.3c-6.4,0-9.8,4.7-9.8,10.5c0,6.4,4.1,10.4,9.6,10.4
			c2.9,0,4.8-0.7,6.2-1.4L934,909.6z"/>
		<path class="st1" d="M955.3,910.7l-0.4-3.5h-0.2c-1.5,2.2-4.5,4.1-8.5,4.1c-5.6,0-8.5-4-8.5-8c0-6.7,6-10.4,16.7-10.3v-0.6
			c0-2.3-0.6-6.4-6.3-6.4c-2.6,0-5.3,0.8-7.2,2.1l-1.1-3.3c2.3-1.5,5.6-2.5,9.1-2.5c8.5,0,10.5,5.8,10.5,11.3V904
			c0,2.4,0.1,4.8,0.5,6.6H955.3z M942.3,878.2c-0.1-3.7,1.4-6,3.9-6c1.3,0,2.2,0.5,3.6,1.3c0.9,0.5,1.7,1,2.4,1
			c0.9,0,1.4-0.5,1.6-2.5h2.6c0.1,3.8-1.2,5.8-3.9,5.8c-1.2,0-2.3-0.5-3.5-1.1c-1.1-0.7-1.8-1-2.5-1c-0.9,0-1.4,1-1.5,2.6H942.3z
			 M954.5,896.5c-5.5-0.1-11.7,0.9-11.7,6.2c0,3.3,2.2,4.8,4.8,4.8c3.6,0,5.9-2.3,6.7-4.6c0.2-0.5,0.3-1.1,0.3-1.6V896.5z"/>
		<path class="st1" d="M992.6,896.6c0,10.3-7.1,14.7-13.8,14.7c-7.5,0-13.3-5.5-13.3-14.3c0-9.3,6.1-14.7,13.8-14.7
			C987.2,882.3,992.6,888.1,992.6,896.6z M970.6,896.9c0,6.1,3.5,10.7,8.4,10.7c4.8,0,8.4-4.5,8.4-10.8c0-4.7-2.3-10.7-8.3-10.7
			C973.2,886.1,970.6,891.6,970.6,896.9z"/>
		<path class="st1" d="M996.4,907.7c0-2.1,1.4-3.6,3.4-3.6c2,0,3.4,1.5,3.4,3.6c0,2.1-1.3,3.6-3.4,3.6
			C997.8,911.3,996.4,909.8,996.4,907.7z"/>
	</g>
</g>
<g>
</g>
<g>
</g>
<g>
</g>
<g>
</g>
<g>
</g>
<g>
</g>
<g>
</g>
<g>
</g>
<g>
</g>
<g>
</g>
<g>
</g>
<g>
</g>
<g>
</g>
<g>
</g>
<g>
</g>
</svg>
