<?xml version="1.0" encoding="utf-8"?>
<!-- Generator: Adobe Illustrator 24.0.2, SVG Export Plug-In . SVG Version: 6.00 Build 0)  -->
<svg version="1.1" id="Camada_1" xmlns="http://www.w3.org/2000/svg" xmlns:xlink="http://www.w3.org/1999/xlink" x="0px" y="0px"
	 viewBox="0 0 600 541.84" style="enable-background:new 0 0 600 541.84;" xml:space="preserve">
<style type="text/css">
	.st0{fill:#DBA723;}
	.st1{font-family:'Livvic-Bold';}
	.st2{font-size:20.5261px;}
	.st3{fill:#F7F7F6;}
	.st4{font-family:'Livvic-Medium';}
	.st5{opacity:0.2;fill:#1D262D;enable-background:new    ;}
	.st6{fill:#FCFAE8;}
	.st7{fill:#FCCC69;}
	.st8{opacity:0.2;clip-path:url(#SVGID_2_);fill:#CD2C3A;enable-background:new    ;}
	.st9{fill:#FFEE00;}
	.st10{fill:#FFFFFF;}
	.st11{fill:#6E6E6E;}
	.st12{font-family:'Livvic-SemiBold';}
	.st13{font-size:16.4208px;}
</style>
<g>
	<text transform="matrix(1 0 0 1 4.5609 17.5498)" class="st0 st1 st2">CHECKLIST DE</text>
</g>
<path class="st0" d="M216.56,43.98c-0.91-2.35-0.63-4.79-0.36-7.14c0.15-1.26,0.29-2.57,0.26-3.85c-0.04-1.75-0.42-3.58-4.48-4.91
	c-3.79-1.25-9.8-1.7-14.63-2.06c-9-0.68-17.71-0.6-26.94-0.51c-2.14,0.02-4.36,0.04-6.56,0.05h-0.16
	c-10.32,0.05-48.37,0.09-58.86,0.09H34.95c-6.74,0-14.56,0.11-21.48,0.93c-1.89,0.22-3.75,0.73-5.62,0.86
	c-1.71,0.12-3.52,0.26-4.72,1.76c-0.95,1.18-1.16,2.82-1.34,4.37c-0.56,4.93-1.11,9.85-1.67,14.78c-0.16,1.41-0.29,2.96,0.48,4.13
	c1.31,2,4.5,1.99,6.53,2.24c4.38,0.53,9.3,0.55,13.65,0.57c23.57,0.09,46.61,0.17,69.43,0.15c10.66-0.01,21.5,0.1,31.99,0.21
	c10.03,0.11,20.34,0.21,30.59,0.21c1.97,0,3.94,0,5.91-0.01c10.92-0.05,20.56-0.12,29.49-0.23c0.64-0.01,1.28-0.01,1.9-0.02
	c7.66-0.08,14.28-0.15,20.49-1.92c3.72-1.06,5.87-2.59,6.56-4.66C217.68,47.32,217.18,45.59,216.56,43.98z"/>
<text transform="matrix(1 0 0 1 6.8197 47.6299)" class="st3 st4 st2">habilidades parentais</text>
<g>
	<g>
		<g>
			<g>
				<path class="st0" d="M590.49,112.89c0.91,0.43,1.69,0.95,2.31,1.55c4.8,4.64,5.28,30.13,5.48,36.88
					c2.25,75.04,2.28,150.15,0.08,225.2c-1.12,38.12-2.8,76.22-5.07,114.29c-1.04,17.42,8.37,49.26-15.09,49.95
					c-29.76,0.87-60.07-1.92-89.85-2.61c-59.91-1.39-119.84-2.07-179.76-2.04c-65.96,0.03-131.78,1.04-197.79,1.04
					c-14.4,0.04-28.81,0.14-43.21,0.29c-11.35,0.12-32.96,4.77-43.33,0.66c-9.48-3.76-6.53-14.61-6.3-22.35
					c0.36-12.29,0.49-24.58,0.8-36.87c0.64-25.15,1.16-50.36-0.84-75.46c-3.04-38.04-0.6-76.75-3.34-115.07
					c-0.88-12.31,2.69-25.82,3.71-38.14c1.16-14.09,1.84-28.21,2.04-42.34c0.25-17.75-0.24-35.5-1.5-53.21
					c-0.65-9.11-8.88-37.28-0.69-44.19c6.09-5.13,46.36,1.15,55.64,1.15c23.88,0,47.75,0,71.63,0c103.92,0,206.92-2.67,311.05-1.21
					c32.3,0.45,64.59,0.91,96.89,1.36C561.79,111.88,581.88,108.78,590.49,112.89z"/>
				<path class="st5" d="M571.64,145.04v358.38c0,5.59-4.53,10.12-10.12,10.12H66.16c-5.59,0-10.12-4.53-10.12-10.12V145.04
					c0-5.59,4.53-10.12,10.12-10.12h495.36C567.11,134.92,571.64,139.45,571.64,145.04z"/>
				<path class="st6" d="M559.7,155.09c5.6,19.37,3.14,38.9,3.14,59.07c0,24.26,0,48.52,0,72.77c0,35.79,0,71.58,0,107.38
					c0,31.23,2.16,63.52-1.38,94.41c-0.6,5.23-1.22,10.54-3.25,15.39s-5.7,9.28-10.68,10.97c-2.46,0.84-5.11,0.97-7.71,0.93
					c-11.97-0.2-23.86-1.72-35.87-2.16c-12.71-0.46-25.43-0.32-38.15-0.32c-43.66,0-87.31,0-130.97,0c-46.92,0-93.83,0-140.75,0
					c-19.74,0-39.49,0-59.23,0c-21.98,0-44.43,2.44-66.17-0.23c-8.45-1.04-18.21-3.83-21.13-11.83c-1-2.74-1.01-5.73-1.01-8.65
					c0.01-28.53,0.01-57.06,0.02-85.59c0.01-65.32-0.25-131.02,0.94-196.44c0.28-15.24,0.55-30.47,0.83-45.71
					c0.17-9.21,0.98-19.75,8.33-25.31c6.38-4.81,14.75-3.79,22.23-4.17c6.57-0.33,12.54-0.87,19.11-0.7c7.02,0.19,14.07,0,21.1,0
					c17.97,0,35.95,0,53.92,0c45.05,0,90.1,0,135.15,0c32.61,0,65.39,0.86,97.83,0.24c33.6-0.65,67.03,5.98,100.63,3.28
					c12.12-0.97,23.33-2.37,35.35-1.08c3.67,0.39,7.55,0.91,10.44,3.2c2.5,1.98,3.9,5.01,5.06,7.98
					C558.33,150.72,559.07,152.9,559.7,155.09z"/>
				<path class="st7" d="M42.01,541.84H19.93c-2.53,0-4.58-2.05-4.58-4.58v-22.09c0-4.08,4.93-6.12,7.82-3.24l22.09,22.08
					C48.14,536.91,46.09,541.84,42.01,541.84z"/>
				<path class="st7" d="M37.91,106.62H15.82c-2.53,0-4.58,2.05-4.58,4.58v22.09c0,4.08,4.93,6.12,7.82,3.24l22.09-22.08
					C44.03,111.55,41.99,106.62,37.91,106.62z"/>
				<path class="st7" d="M569.52,541.84h22.09c2.53,0,4.58-2.05,4.58-4.58v-22.09c0-4.08-4.93-6.12-7.82-3.24l-22.09,22.08
					C563.4,536.91,565.44,541.84,569.52,541.84z"/>
				<path class="st7" d="M569.52,106.62h22.09c2.53,0,4.58,2.05,4.58,4.58v22.09c0,4.08-4.93,6.12-7.82,3.24l-22.09-22.08
					C563.4,111.55,565.44,106.62,569.52,106.62z"/>
			</g>
			<g>
				<path class="st7" d="M313.84,111.5L313.84,111.5c-14.89,0-26.95,6.88-26.95-8v-2.29c0-14.89,12.07-26.95,26.95-26.95l0,0
					c14.89,0,26.95,12.07,26.95,26.95v2.29C340.79,118.38,328.73,111.5,313.84,111.5z"/>
				<path class="st5" d="M381.44,145.81h-135.2c-1.54,0-2.79-1.25-2.79-2.79v-7.08c0-1.54,1.25-2.79,2.79-2.79h135.2
					c1.54,0,2.79,1.25,2.79,2.79v7.08C384.23,144.56,382.98,145.81,381.44,145.81z"/>
				<g>
					<g>
						<path id="XMLID_1_" class="st7" d="M383.59,140.59h-139.5c-2.47,0-4.48-2-4.48-4.48V95.16c0-2.47,2-4.48,4.48-4.48h139.5
							c2.47,0,4.48,2,4.48,4.48v40.95C388.06,138.59,386.06,140.59,383.59,140.59z"/>
					</g>
					<g>
						<defs>
							<path id="SVGID_1_" d="M383.59,140.59h-139.5c-2.47,0-4.48-2-4.48-4.48V95.16c0-2.47,2-4.48,4.48-4.48h139.5
								c2.47,0,4.48,2,4.48,4.48v40.95C388.06,138.59,386.06,140.59,383.59,140.59z"/>
						</defs>
						<clipPath id="SVGID_2_">
							<use xlink:href="#SVGID_1_"  style="overflow:visible;"/>
						</clipPath>
						<rect x="224.78" y="118.11" class="st8" width="182.05" height="28.61"/>
					</g>
				</g>
			</g>
			<g>
				<g>
					<path class="st9" d="M130.6,242.94H97.55c-1.15,0-2.08-0.93-2.08-2.08v-33.05c0-1.15,0.93-2.08,2.08-2.08h33.05
						c1.15,0,2.08,0.93,2.08,2.08v33.05C132.68,242.01,131.75,242.94,130.6,242.94z"/>
					<path class="st9" d="M134.71,246.88H93.44c-1.05,0-1.91-0.85-1.91-1.91V203.7c0-1.05,0.85-1.91,1.91-1.91h41.28
						c1.05,0,1.91,0.85,1.91,1.91v41.28C136.62,246.02,135.77,246.88,134.71,246.88z M94.8,245.52h38.55c1.05,0,1.91-0.85,1.91-1.91
						v-38.55c0-1.05-0.85-1.91-1.91-1.91H94.8c-1.05,0-1.91,0.85-1.91,1.91v38.55C92.89,244.66,93.75,245.52,94.8,245.52z"/>
				</g>
				<g>
					<path class="st9" d="M130.6,298.03H97.55c-1.15,0-2.08-0.93-2.08-2.08V262.9c0-1.15,0.93-2.08,2.08-2.08h33.05
						c1.15,0,2.08,0.93,2.08,2.08v33.05C132.68,297.1,131.75,298.03,130.6,298.03z"/>
					<path class="st9" d="M134.71,301.97H93.44c-1.05,0-1.91-0.85-1.91-1.91v-41.28c0-1.05,0.85-1.91,1.91-1.91h41.28
						c1.05,0,1.91,0.85,1.91,1.91v41.28C136.62,301.12,135.77,301.97,134.71,301.97z M94.8,300.61h38.55c1.05,0,1.91-0.85,1.91-1.91
						v-38.55c0-1.05-0.85-1.91-1.91-1.91H94.8c-1.05,0-1.91,0.85-1.91,1.91v38.55C92.89,299.76,93.75,300.61,94.8,300.61z"/>
				</g>
				<g>
					<path class="st9" d="M130.6,354.12H97.55c-1.15,0-2.08-0.93-2.08-2.08v-33.05c0-1.15,0.93-2.08,2.08-2.08h33.05
						c1.15,0,2.08,0.93,2.08,2.08v33.05C132.68,353.19,131.75,354.12,130.6,354.12z"/>
					<path class="st9" d="M134.71,358.06H93.44c-1.05,0-1.91-0.85-1.91-1.91v-41.28c0-1.05,0.85-1.91,1.91-1.91h41.28
						c1.05,0,1.91,0.85,1.91,1.91v41.28C136.62,357.21,135.77,358.06,134.71,358.06z M94.8,356.7h38.55c1.05,0,1.91-0.85,1.91-1.91
						v-38.55c0-1.05-0.85-1.91-1.91-1.91H94.8c-1.05,0-1.91,0.85-1.91,1.91v38.55C92.89,355.85,93.75,356.7,94.8,356.7z"/>
				</g>
				<path class="st0" d="M110.76,237.36l-21.48-21.25c-1.49-1.47-1.5-3.87-0.03-5.35c1.47-1.49,3.87-1.5,5.35-0.03l15.85,15.69
					l25.16-27.79c1.4-1.55,3.8-1.67,5.35-0.26c1.55,1.4,1.67,3.8,0.26,5.35L110.76,237.36z"/>
				<path class="st0" d="M110.76,292.88l-21.48-21.25c-1.49-1.47-1.5-3.87-0.03-5.35c1.47-1.49,3.87-1.5,5.35-0.03l15.85,15.69
					l25.16-27.79c1.4-1.55,3.8-1.67,5.35-0.26c1.55,1.4,1.67,3.8,0.26,5.35L110.76,292.88z"/>
				<path class="st0" d="M110.76,348.04l-21.48-21.25c-1.49-1.47-1.5-3.87-0.03-5.35c1.47-1.49,3.87-1.5,5.35-0.03l15.85,15.69
					l25.16-27.79c1.4-1.55,3.8-1.67,5.35-0.27c1.55,1.4,1.67,3.8,0.26,5.35L110.76,348.04z"/>
				<path class="st0" d="M110.76,404.05L89.28,382.8c-1.49-1.47-1.5-3.87-0.03-5.35c1.47-1.49,3.87-1.5,5.35-0.03l15.85,15.69
					l25.16-27.79c1.4-1.55,3.8-1.67,5.35-0.26c1.55,1.4,1.67,3.8,0.26,5.35L110.76,404.05z"/>
				<g>
					<path class="st9" d="M130.6,410.17H97.55c-1.15,0-2.08-0.93-2.08-2.08v-33.05c0-1.15,0.93-2.08,2.08-2.08h33.05
						c1.15,0,2.08,0.93,2.08,2.08v33.05C132.68,409.24,131.75,410.17,130.6,410.17z"/>
					<path class="st9" d="M134.71,414.11H93.44c-1.05,0-1.91-0.85-1.91-1.91v-41.28c0-1.05,0.85-1.91,1.91-1.91h41.28
						c1.05,0,1.91,0.85,1.91,1.91v41.28C136.62,413.26,135.77,414.11,134.71,414.11z M94.8,412.75h38.55c1.05,0,1.91-0.85,1.91-1.91
						v-38.55c0-1.05-0.85-1.91-1.91-1.91H94.8c-1.05,0-1.91,0.85-1.91,1.91v38.55C92.89,411.89,93.75,412.75,94.8,412.75z"/>
				</g>
				<path class="st0" d="M141.23,370.39l-30.47,33.66L89.28,382.8c-1.49-1.47-1.5-3.87-0.03-5.35c1.47-1.49,3.87-1.5,5.35-0.03
					l15.85,15.69l25.16-27.79c1.4-1.55,3.8-1.67,5.35-0.26"/>
			</g>
			<path class="st10" d="M6.2,318.03c3.43,0,6.2,2.78,6.2,6.2c0,3.43-2.78,6.2-6.2,6.2c-3.43,0-6.2-2.78-6.2-6.2
				S2.78,318.03,6.2,318.03z"/>
		</g>
	</g>
</g>
<g>
	<text transform="matrix(1 0 0 1 153.1693 228.2607)" class="st11 st12 st13">Consegue se comunicar com clareza e calma.</text>
</g>
<g>
	<text transform="matrix(1 0 0 1 153.1693 272.8945)" class="st11 st12 st13">Incentiva comportamentos positivos </text>
	<text transform="matrix(1 0 0 1 153.1693 292.5945)" class="st11 st12 st13">diariamente.</text>
</g>
<g>
	<text transform="matrix(1 0 0 1 153.1693 330.4341)" class="st11 st12 st13">É capaz de negociar conflitos emocionais e </text>
	<text transform="matrix(1 0 0 1 153.1693 350.1441)" class="st11 st12 st13">trabalhar juntos para uma solução.</text>
</g>
<g>
	<text transform="matrix(1 0 0 1 153.1693 395.1948)" class="st11 st12 st13">Monitora sua rotina, atividades.</text>
</g>
<g>
	<text transform="matrix(1 0 0 1 153.1693 450.6577)" class="st11 st12 st13">Estabelece limites. Cumpre regras.</text>
</g>
<g>
	<path class="st9" d="M129.95,469.26H96.9c-1.15,0-2.08-0.93-2.08-2.08v-33.05c0-1.15,0.93-2.08,2.08-2.08h33.05
		c1.15,0,2.08,0.93,2.08,2.08v33.05C132.03,468.33,131.1,469.26,129.95,469.26z"/>
	<path class="st9" d="M134.07,473.2H92.79c-1.05,0-1.91-0.85-1.91-1.91v-41.28c0-1.05,0.85-1.91,1.91-1.91h41.28
		c1.05,0,1.91,0.85,1.91,1.91v41.28C135.97,472.35,135.12,473.2,134.07,473.2z M94.15,471.84h38.55c1.05,0,1.91-0.85,1.91-1.91
		v-38.55c0-1.05-0.85-1.91-1.91-1.91H94.15c-1.05,0-1.91,0.85-1.91,1.91v38.55C92.25,470.98,93.1,471.84,94.15,471.84z"/>
</g>
<path class="st0" d="M141.87,424.04c0-2.09-1.69-3.78-3.78-3.78c-1.08,0-2.05,0.46-2.73,1.18c-0.14,0.11-0.27,0.22-0.39,0.36
	l-25.16,27.79L93.96,433.9c-1.48-1.47-3.88-1.46-5.35,0.03s-1.46,3.88,0.03,5.35l21.48,21.25l30.47-33.66v-0.01
	C141.37,426.17,141.87,425.17,141.87,424.04z"/>
<path class="st7" d="M411.98,168.79c-0.89-1.02-0.62-2.07-0.35-3.1c0.14-0.55,0.29-1.11,0.26-1.67c-0.04-0.76-0.42-1.55-4.42-2.13
	c-3.74-0.54-9.68-0.74-14.45-0.89c-8.89-0.29-17.49-0.26-26.6-0.22c-2.12,0.01-4.31,0.02-6.48,0.02h-0.15
	c-10.19,0.02-47.77,0.04-58.13,0.04h-69.03c-6.65,0-14.37,0.05-21.22,0.41c-2.95,0.15-6.29,0.32-9.05,0.86
	c-2.59,0.51-3.23,1.48-3.69,2.74c-0.27,0.73-0.54,1.45-0.8,2.18c-0.51,1.39-1.02,2.85-0.1,4.2c0.24,0.36,0.6,0.71,1.19,0.96
	c0.57,0.24,1.32,0.38,2.06,0.49c5.56,0.87,11.82,1.01,17.62,1.02c23.28,0.04,46.04,0.07,68.57,0.06c10.53,0,21.24,0.04,31.59,0.09
	c9.9,0.05,20.08,0.09,30.21,0.09c1.95,0,3.89,0,5.83-0.01c10.78-0.02,20.31-0.05,29.12-0.1c0.63,0,1.26-0.01,1.88-0.01
	c7.57-0.03,14.11-0.06,20.23-0.83c3.68-0.46,5.8-1.12,6.48-2.02C413.09,170.24,412.59,169.49,411.98,168.79z"/>
</svg>
