<?xml version="1.0" encoding="utf-8"?>
<!-- Generator: Adobe Illustrator 26.1.0, SVG Export Plug-In . SVG Version: 6.00 Build 0)  -->
<svg version="1.1" id="Vrstva_1" xmlns="http://www.w3.org/2000/svg" xmlns:xlink="http://www.w3.org/1999/xlink" x="0px" y="0px"
	 viewBox="0 0 920 550" style="enable-background:new 0 0 920 550;" xml:space="preserve">
<style type="text/css">
	.st0{fill:#EDD88E;}
	.st1{opacity:0.95;}
	.st2{fill:#FF8096;}
	.st3{fill:#7FD1BA;}
	.st4{fill:#FFFFFF;}
	.st5{fill:none;}
	.st6{font-family:'Barlow-ExtraBold';}
	.st7{font-size:28.8034px;}
	.st8{font-family:'Barlow-Regular';}
	.st9{font-size:25.2908px;}
	.st10{font-family:'Barlow-Bold';}
	.st11{font-size:15.4555px;}
</style>
<g>
	<ellipse class="st0" cx="591.02" cy="386.67" rx="160.7" ry="160.7"/>
</g>
<g class="st1">
	<ellipse class="st2" cx="332.74" cy="386.7" rx="160.7" ry="160.7"/>
</g>
<g>
	<circle class="st3" cx="461.87" cy="162.69" r="160.7"/>
</g>
<g>
	<path class="st4" d="M603.22,373.95H585.8c-0.58,0-1.05-0.47-1.05-1.05s0.47-1.05,1.05-1.05h17.42c0.58,0,1.05,0.47,1.05,1.05
		C604.27,373.48,603.8,373.95,603.22,373.95z"/>
</g>
<g>
	<path class="st4" d="M469.74,124.76h-17.42c-0.58,0-1.05-0.47-1.05-1.05s0.47-1.05,1.05-1.05h17.42c0.58,0,1.05,0.47,1.05,1.05
		C470.8,124.29,470.33,124.76,469.74,124.76z"/>
</g>
<g>
	<path class="st4" d="M335.82,373.85H318.4c-0.58,0-1.05-0.47-1.05-1.05s0.47-1.05,1.05-1.05h17.42c0.58,0,1.05,0.47,1.05,1.05
		S336.4,373.85,335.82,373.85z"/>
</g>
<g>
	<path class="st4" d="M525.78,302.13c0.09,0.61,0.62,1.05,1.22,1.05c0.06,0,0.12,0,0.18-0.01c0.67-0.1,1.14-0.72,1.04-1.4
		c-0.24-1.64-0.54-3.29-0.9-4.91c-0.15-0.66-0.8-1.08-1.47-0.94c-0.66,0.15-1.08,0.8-0.94,1.47
		C525.26,298.95,525.55,300.55,525.78,302.13z"/>
	<path class="st4" d="M422.36,367.13c-1.32-0.9-2.63-1.86-3.89-2.85c-0.53-0.42-1.31-0.33-1.73,0.2s-0.33,1.31,0.2,1.73
		c1.3,1.03,2.66,2.02,4.03,2.95c0.21,0.14,0.45,0.21,0.69,0.21c0.39,0,0.78-0.19,1.02-0.54
		C423.07,368.28,422.92,367.52,422.36,367.13z"/>
	<path class="st4" d="M413.05,260.85c-1.22,1.12-2.42,2.3-3.56,3.5c-0.47,0.49-0.45,1.27,0.05,1.74c0.24,0.23,0.54,0.34,0.85,0.34
		c0.33,0,0.65-0.13,0.9-0.39c1.1-1.16,2.25-2.3,3.43-3.38c0.5-0.46,0.54-1.24,0.08-1.74C414.33,260.43,413.55,260.39,413.05,260.85z
		"/>
	<path class="st4" d="M435.1,373.9c-1.49-0.59-2.97-1.25-4.41-1.94c-0.61-0.3-1.35-0.04-1.65,0.57c-0.3,0.61-0.04,1.35,0.57,1.65
		c1.49,0.72,3.03,1.4,4.58,2.02c0.15,0.06,0.3,0.09,0.46,0.09c0.49,0,0.95-0.29,1.14-0.78C436.05,374.86,435.74,374.15,435.1,373.9z
		"/>
	<path class="st4" d="M449.01,377.74c-1.57-0.26-3.16-0.57-4.72-0.94c-0.66-0.16-1.33,0.25-1.48,0.92
		c-0.16,0.66,0.25,1.33,0.91,1.48c1.62,0.38,3.27,0.71,4.9,0.98c0.07,0.01,0.13,0.02,0.2,0.02c0.59,0,1.12-0.43,1.21-1.03
		C450.14,378.48,449.68,377.85,449.01,377.74z"/>
	<path class="st4" d="M408.17,354.18c-0.43-0.53-1.21-0.6-1.73-0.17c-0.53,0.43-0.6,1.21-0.17,1.73c1.05,1.28,2.16,2.54,3.3,3.74
		c0.24,0.26,0.57,0.38,0.89,0.38c0.3,0,0.61-0.11,0.85-0.34c0.49-0.47,0.51-1.25,0.05-1.74
		C410.25,356.63,409.18,355.42,408.17,354.18z"/>
	<path class="st4" d="M438.77,245.94c-1.58,0.5-3.16,1.07-4.7,1.69c-0.63,0.25-0.94,0.97-0.69,1.6c0.19,0.48,0.66,0.77,1.14,0.77
		c0.15,0,0.31-0.03,0.46-0.09c1.48-0.59,3.01-1.14,4.53-1.63c0.65-0.21,1.01-0.9,0.8-1.55
		C440.11,246.09,439.41,245.74,438.77,245.94z"/>
	<path class="st4" d="M425.1,252c-1.43,0.83-2.86,1.73-4.22,2.66c-0.56,0.38-0.71,1.15-0.32,1.71c0.24,0.35,0.63,0.54,1.02,0.54
		c0.24,0,0.48-0.07,0.69-0.21c1.32-0.9,2.69-1.76,4.07-2.56c0.59-0.34,0.79-1.1,0.45-1.68C426.44,251.86,425.68,251.66,425.1,252z"
		/>
	<path class="st4" d="M453.43,242.98c-1.65,0.15-3.32,0.36-4.95,0.63c-0.67,0.11-1.13,0.74-1.02,1.42c0.1,0.6,0.62,1.03,1.21,1.03
		c0.07,0,0.13-0.01,0.2-0.02c1.58-0.26,3.18-0.46,4.78-0.61c0.68-0.06,1.18-0.66,1.12-1.34
		C454.7,243.42,454.09,242.92,453.43,242.98z"/>
	<path class="st4" d="M392.07,305.83c0.04,0,0.09,0.01,0.13,0.01c0.62,0,1.16-0.47,1.22-1.1c0.17-1.6,0.4-3.2,0.68-4.77
		c0.12-0.67-0.32-1.31-0.99-1.43c-0.67-0.12-1.31,0.32-1.43,0.99c-0.29,1.62-0.53,3.29-0.71,4.94
		C390.9,305.15,391.39,305.76,392.07,305.83z"/>
	<path class="st4" d="M394.94,291.42c0.13,0.04,0.26,0.06,0.39,0.06c0.51,0,0.99-0.32,1.17-0.84c0.51-1.51,1.08-3.03,1.7-4.51
		c0.26-0.63-0.03-1.35-0.66-1.61c-0.63-0.26-1.35,0.03-1.61,0.66c-0.64,1.53-1.24,3.11-1.76,4.68
		C393.95,290.5,394.29,291.2,394.94,291.42z"/>
	<path class="st4" d="M395.17,328.63c-0.17-0.66-0.84-1.05-1.5-0.88c-0.66,0.17-1.05,0.84-0.88,1.5c0.42,1.61,0.89,3.22,1.43,4.79
		c0.17,0.51,0.65,0.84,1.17,0.84c0.13,0,0.26-0.02,0.39-0.06c0.64-0.22,0.99-0.92,0.77-1.56
		C396.03,331.73,395.57,330.18,395.17,328.63z"/>
	<path class="st4" d="M400.28,342.12c-0.31-0.61-1.05-0.84-1.66-0.54c-0.61,0.31-0.85,1.05-0.54,1.66c0.75,1.48,1.57,2.94,2.42,4.36
		c0.23,0.38,0.64,0.6,1.06,0.6c0.22,0,0.44-0.06,0.64-0.18c0.58-0.35,0.77-1.11,0.42-1.69C401.79,344.96,401,343.54,400.28,342.12z"
		/>
	<path class="st4" d="M404.89,271.79c-0.56-0.39-1.33-0.26-1.72,0.3c-0.96,1.36-1.87,2.77-2.73,4.19c-0.35,0.58-0.16,1.34,0.42,1.69
		c0.2,0.12,0.42,0.18,0.63,0.18c0.42,0,0.83-0.21,1.06-0.6c0.82-1.37,1.71-2.73,2.63-4.04
		C405.57,272.95,405.44,272.18,404.89,271.79z"/>
	<path class="st4" d="M393.44,319.16c-0.17-1.59-0.29-3.2-0.35-4.8c-0.02-0.68-0.61-1.23-1.28-1.19c-0.68,0.02-1.21,0.6-1.19,1.28
		c0.06,1.66,0.18,3.33,0.36,4.98c0.07,0.63,0.6,1.1,1.22,1.1c0.04,0,0.09,0,0.13-0.01C393.02,320.44,393.51,319.84,393.44,319.16z"
		/>
	<path class="st4" d="M514.78,269.91c-0.41-0.54-1.19-0.65-1.73-0.23c-0.54,0.41-0.64,1.19-0.23,1.73c0.97,1.27,1.91,2.59,2.78,3.93
		c0.24,0.36,0.63,0.56,1.03,0.56c0.23,0,0.47-0.06,0.68-0.2c0.57-0.37,0.73-1.14,0.35-1.71
		C516.75,272.6,515.78,271.23,514.78,269.91z"/>
	<path class="st4" d="M514.62,352.02c-0.54-0.41-1.32-0.31-1.73,0.23c-0.97,1.27-1.99,2.52-3.05,3.73c-0.45,0.51-0.4,1.29,0.11,1.74
		c0.23,0.21,0.52,0.31,0.81,0.31c0.34,0,0.68-0.14,0.92-0.42c1.1-1.25,2.17-2.55,3.17-3.86
		C515.27,353.21,515.16,352.43,514.62,352.02z"/>
	<path class="st4" d="M521.98,339.3c-0.62-0.29-1.35-0.02-1.64,0.6c-0.67,1.45-1.41,2.9-2.18,4.3c-0.33,0.6-0.12,1.34,0.48,1.67
		c0.19,0.11,0.39,0.15,0.6,0.15c0.43,0,0.85-0.23,1.08-0.63c0.8-1.45,1.57-2.95,2.26-4.46C522.86,340.31,522.6,339.58,521.98,339.3z
		"/>
	<path class="st4" d="M463.42,378.5c-1.2,0.06-2.41,0.1-3.61,0.1c-0.4,0-0.81,0-1.21-0.01c-0.68,0.02-1.24,0.53-1.25,1.21
		s0.53,1.24,1.21,1.25c0.42,0.01,0.84,0.01,1.25,0.01c1.24,0,2.5-0.03,3.74-0.1c0.68-0.04,1.2-0.62,1.16-1.3
		C464.68,378.99,464.09,378.49,463.42,378.5z"/>
	<path class="st4" d="M524.46,287.3c-0.59-1.55-1.24-3.1-1.94-4.6c-0.29-0.62-1.02-0.88-1.64-0.6c-0.62,0.29-0.88,1.02-0.6,1.64
		c0.67,1.45,1.3,2.94,1.87,4.43c0.19,0.49,0.66,0.79,1.15,0.79c0.15,0,0.29-0.03,0.44-0.08C524.38,288.64,524.7,287.93,524.46,287.3
		z"/>
	<path class="st4" d="M528.95,311.73c0-0.68-0.55-1.23-1.23-1.23s-1.23,0.55-1.23,1.23v0.15c0,1.61-0.06,3.23-0.17,4.81
		c-0.05,0.68,0.46,1.27,1.14,1.32c0.03,0,0.06,0,0.09,0c0.64,0,1.18-0.49,1.23-1.14c0.12-1.64,0.18-3.32,0.18-5.01L528.95,311.73z"
		/>
	<path class="st4" d="M526.41,325.28c-0.66-0.14-1.32,0.28-1.47,0.94c-0.34,1.56-0.75,3.13-1.2,4.66c-0.19,0.65,0.18,1.34,0.83,1.53
		c0.12,0.03,0.23,0.05,0.35,0.05c0.53,0,1.02-0.35,1.18-0.88c0.47-1.59,0.89-3.22,1.24-4.84
		C527.5,326.09,527.08,325.43,526.41,325.28z"/>
	<path class="st4" d="M504.47,259.07c-0.52-0.44-1.3-0.38-1.74,0.14c-0.44,0.52-0.38,1.3,0.14,1.74c1.22,1.04,2.42,2.13,3.56,3.24
		c0.24,0.23,0.55,0.35,0.86,0.35c0.32,0,0.64-0.12,0.88-0.37c0.48-0.49,0.47-1.27-0.02-1.74
		C506.98,261.28,505.74,260.15,504.47,259.07z"/>
	<path class="st4" d="M502.97,362.73c-1.22,1.04-2.49,2.04-3.78,2.99c-0.55,0.4-0.67,1.17-0.27,1.72c0.24,0.33,0.62,0.5,0.99,0.5
		c0.25,0,0.51-0.08,0.73-0.24c1.34-0.98,2.65-2.02,3.92-3.1c0.52-0.44,0.58-1.22,0.14-1.74
		C504.27,362.35,503.49,362.29,502.97,362.73z"/>
	<path class="st4" d="M482.93,246.67c-1.56-0.55-3.16-1.06-4.76-1.5c-0.66-0.18-1.33,0.21-1.51,0.86c-0.18,0.66,0.2,1.33,0.86,1.51
		c1.54,0.42,3.09,0.91,4.59,1.45c0.14,0.05,0.28,0.07,0.41,0.07c0.51,0,0.98-0.32,1.16-0.82
		C483.91,247.6,483.57,246.9,482.93,246.67z"/>
	<path class="st4" d="M468.38,243.23c-1.64-0.2-3.31-0.35-4.97-0.44c-0.71-0.04-1.26,0.49-1.29,1.17c-0.04,0.68,0.49,1.26,1.17,1.29
		c1.6,0.08,3.22,0.22,4.8,0.42c0.05,0.01,0.1,0.01,0.15,0.01c0.61,0,1.14-0.46,1.22-1.08C469.53,243.93,469.05,243.31,468.38,243.23
		z"/>
	<path class="st4" d="M477.65,376.18c-1.54,0.43-3.11,0.8-4.68,1.12c-0.67,0.13-1.1,0.78-0.97,1.45c0.12,0.59,0.63,0.99,1.21,0.99
		c0.08,0,0.16-0.01,0.24-0.02c1.63-0.33,3.26-0.72,4.86-1.16c0.66-0.18,1.04-0.86,0.86-1.52C478.99,376.38,478.31,376,477.65,376.18
		z"/>
	<path class="st4" d="M491.04,370.84c-1.41,0.75-2.86,1.46-4.33,2.1c-0.62,0.28-0.9,1-0.63,1.62c0.2,0.46,0.65,0.73,1.13,0.73
		c0.17,0,0.34-0.03,0.5-0.11c1.52-0.67,3.03-1.41,4.49-2.18c0.6-0.32,0.83-1.07,0.51-1.67
		C492.39,370.74,491.65,370.52,491.04,370.84z"/>
	<path class="st4" d="M496.41,253.18c-1.41-0.88-2.86-1.72-4.33-2.5c-0.6-0.32-1.35-0.09-1.67,0.51c-0.32,0.6-0.09,1.35,0.51,1.66
		c1.42,0.75,2.82,1.56,4.18,2.41c0.2,0.13,0.43,0.19,0.65,0.19c0.41,0,0.81-0.2,1.04-0.58C497.16,254.3,496.98,253.54,496.41,253.18
		z"/>
</g>
<rect x="397.64" y="80.3" class="st5" width="126.45" height="27.4"/>
<text transform="matrix(1 0 0 1 414.2574 100.4645)" class="st4 st6 st7">Família </text>
<rect x="531.29" y="333.09" class="st5" width="126.45" height="27.4"/>
<text transform="matrix(1 0 0 1 557.2682 353.2516)" class="st4 st6 st7">Pares</text>
<rect x="264.59" y="331.12" class="st5" width="126.45" height="27.4"/>
<text transform="matrix(1 0 0 1 284.8932 351.2829)" class="st4 st6 st7">Escola</text>
<rect x="370.52" y="152.83" class="st5" width="182.11" height="68.49"/>
<text transform="matrix(1 0 0 1 403.9391 170.5324)" class="st4 st8 st9">Habilidade </text>
<text transform="matrix(1 0 0 1 376.5191 200.8824)" class="st4 st8 st9">acima da média</text>
<rect x="235.23" y="398.85" class="st5" width="183.76" height="84.3"/>
<text transform="matrix(1 0 0 1 252.1588 416.5583)" class="st4 st8 st9">Envolvimento </text>
<text transform="matrix(1 0 0 1 258.2688 446.9083)" class="st4 st8 st9">com a tarefa</text>
<rect x="527.6" y="401.26" class="st5" width="133.82" height="93.78"/>
<text transform="matrix(1 0 0 1 528.9498 418.9635)" class="st4 st8 st9">Criatividade</text>
<rect x="395.43" y="288.68" class="st5" width="130.12" height="93.78"/>
<text transform="matrix(1 0 0 1 404.2926 299.5006)" class="st4 st10 st11">Comportamento</text>
<text transform="matrix(1 0 0 1 450.4226 318.0506)" class="st4 st10 st11"> de </text>
<text transform="matrix(1 0 0 1 412.7326 336.5906)" class="st4 st10 st11">superdotação</text>
</svg>
