<?xml version="1.0" encoding="utf-8"?>
<!-- Generator: Adobe Illustrator 24.0.1, SVG Export Plug-In . SVG Version: 6.00 Build 0)  -->
<svg version="1.1" id="Camada_1" xmlns="http://www.w3.org/2000/svg" xmlns:xlink="http://www.w3.org/1999/xlink" x="0px" y="0px"
	 viewBox="0 0 110 110" style="enable-background:new 0 0 110 110;" xml:space="preserve">
<style type="text/css">
	.st0{fill:#FFF566;}
	.st1{fill:none;}
	.st2{fill:#DBA723;}
</style>
<circle class="st0" cx="55" cy="55" r="55"/>
<g>
	<rect x="0" y="28" class="st1" width="110" height="56"/>
	<path class="st2" d="M39.2,65.3L49.9,65V65c0,0.1,0,0.1,0,0.2c0,0.1,0,0.1,0,0.2c0.2,1.9,0.8,3.1,1.7,3.8c0.9,0.7,1.9,0.9,3.1,0.6
		c1.8-0.3,3.1-1.2,3.9-2.5s1.3-2.9,1.3-4.5c0-1.6-0.4-3.2-1.2-4.6c-0.8-1.5-1.9-2.4-3.5-2.9c-1.3-0.2-2.7-0.3-4.1-0.3
		c-1.4,0-2.9,0.1-4.4,0.2c-1.5,0.1-2.9,0.1-4.3,0.2c-1.4,0.1-2.6,0-3.6-0.1c-0.1,0-0.2,0-0.2-0.1c0-2.5,0-4.9,0-7c0-2.2,0-4.3,0-6.3
		c0-2.1-0.1-4.1-0.1-6.2c0-2.1,0-4.3,0-6.7h0.1c0.2,0,1,0,2.6-0.1c1.6,0,3.5-0.1,5.8-0.2c2.3,0,4.8-0.1,7.4-0.2
		c2.7,0,5.2-0.1,7.5-0.1c2.3,0,4.3,0,6,0s2.7,0,3,0.1c0,0.1,0.1,0.4,0.1,0.9c0,0.6,0,1.2,0,2.1c0,0.8,0,1.7-0.1,2.7
		C71,35,71,35.9,71,36.7c0,0.8-0.1,1.8-0.1,3c-0.4,0.1-1.1,0.1-2.2,0.2c-1.1,0.1-2.4,0.1-3.8,0.1c-1.4,0-3,0.1-4.6,0.1
		c-1.6,0.1-3.1,0.1-4.5,0.1c-1.4,0-2.6,0-3.7,0c-1,0-1.7,0-2,0H50v0.2v0.1c0,0.1,0,0.1,0,0.1c0,0,0,0.1,0,0.1
		c0.1,0.4,0.2,0.9,0.2,1.4c0,0.5,0.1,0.9,0.3,1.2l0.1,0.1l0.1,0.1h0.1c2.8-0.6,5.5-0.6,8-0.2c3,0.5,5.5,1.6,7.4,3.5
		c1.9,1.9,3.3,4.2,4.3,6.9c1,2.7,1.5,5.6,1.6,8.7c0.1,3.1,0,6.2-0.4,9.2c-0.5,2.3-1.7,4.3-3.5,6c-1.8,1.6-4,2.9-6.4,3.7
		c-2.5,0.8-5.1,1.2-7.8,1.2c-2.7,0-5.2-0.5-7.5-1.4c-2.3-0.9-4.1-2.3-5.6-4.1c-1.5-1.8-2.2-4.2-2.1-7c0-1.3,0.2-2.8,0.5-4.4V65.3z"
		/>
</g>
<g>
</g>
<g>
</g>
<g>
</g>
<g>
</g>
<g>
</g>
<g>
</g>
<g>
</g>
<g>
</g>
<g>
</g>
<g>
</g>
<g>
</g>
<g>
</g>
<g>
</g>
<g>
</g>
<g>
</g>
</svg>
