<?xml version="1.0" encoding="utf-8"?>
<!-- Generator: Adobe Illustrator 24.0.1, SVG Export Plug-In . SVG Version: 6.00 Build 0)  -->
<svg version="1.1" id="Camada_1" xmlns="http://www.w3.org/2000/svg" xmlns:xlink="http://www.w3.org/1999/xlink" x="0px" y="0px"
	 viewBox="0 0 17.2 16.2" style="enable-background:new 0 0 17.2 16.2;" xml:space="preserve">
<style type="text/css">
	.st0{fill:#0192B4;}
</style>
<path class="st0" d="M13.2,1.3c-2.7-1.7-6.1-1.7-9.4,0c-0.7,0.4-1.6,1-2.3,1.8c-1.4,1.7-1.9,4.5-1.4,7.2c0.5,2.4,1.7,4.2,3.3,5.1
	c1,0.5,2,0.6,3,0.7c0.8,0.1,1.5,0.1,2.1,0.1c1.7,0,3.2-0.3,4.4-0.8c2.7-1.1,4.1-3.6,4.1-7C17.2,5.6,15.6,2.9,13.2,1.3z M12.5,14.2
	c-1.9,0.8-4,0.7-5.9,0.6c-0.9-0.1-1.7-0.2-2.5-0.6C2.9,13.5,1.9,12,1.5,10C1,7.7,1.5,5.3,2.6,3.9c0.5-0.6,1.3-1.1,1.9-1.5
	c1.4-0.8,2.9-1.2,4.2-1.2c1.3,0,2.6,0.4,3.8,1.1c2,1.3,3.3,3.6,3.3,6.1C15.8,10.5,15.2,13.1,12.5,14.2z"/>
<g>
</g>
<g>
</g>
<g>
</g>
<g>
</g>
<g>
</g>
<g>
</g>
<g>
</g>
<g>
</g>
<g>
</g>
<g>
</g>
<g>
</g>
<g>
</g>
<g>
</g>
<g>
</g>
<g>
</g>
</svg>
