<?xml version="1.0" encoding="utf-8"?>
<!-- Generator: Adobe Illustrator 24.0.2, SVG Export Plug-In . SVG Version: 6.00 Build 0)  -->
<svg version="1.1" id="Camada_1" xmlns="http://www.w3.org/2000/svg" xmlns:xlink="http://www.w3.org/1999/xlink" x="0px" y="0px"
	 viewBox="0 0 450 7.96" style="enable-background:new 0 0 450 7.96;" xml:space="preserve">
<style type="text/css">
	.st0{fill:#73C8E2;}
</style>
<g>
	<g id="XMLID_27_">
		<path class="st0" d="M448.25,3.13c-25.47,0.35-50.92,1.18-76.4,1.2c-22.15,0.02-44.27-0.3-66.41-0.71
			c-34.66-0.64-69.32-1.27-103.97-1.91c-32.91-0.6-65.82-1.48-98.73-1.68c-29.89-0.18-59.79,0.58-89.67,0.3
			c-3.77-0.04-7.54-0.1-11.3-0.2c-2.34-0.06-2.34,3.57,0,3.63c30.3,0.73,60.64-0.25,90.95-0.15c31.94,0.1,63.88,0.91,95.81,1.49
			c34.66,0.64,69.32,1.27,103.97,1.91c22.99,0.42,45.98,0.88,68.98,0.94c27.1,0.07,54.19-0.32,81.28-1.06
			c1.83-0.05,3.66-0.1,5.49-0.13C450.58,6.73,450.59,3.1,448.25,3.13L448.25,3.13z"/>
	</g>
</g>
</svg>
