<?xml version="1.0" encoding="utf-8"?>
<!-- Generator: Adobe Illustrator 24.0.2, SVG Export Plug-In . SVG Version: 6.00 Build 0)  -->
<svg version="1.1" id="Camada_1" xmlns="http://www.w3.org/2000/svg" xmlns:xlink="http://www.w3.org/1999/xlink" x="0px" y="0px"
	 viewBox="0 0 526.01 388.57" style="enable-background:new 0 0 526.01 388.57;" xml:space="preserve">
<style type="text/css">
	.st0{fill:#DBA723;}
	.st1{fill:#E5D389;}
	.st2{enable-background:new    ;}
	.st3{fill:#FFFFFF;}
</style>
<g id="Camada_3">
</g>
<g id="Camada_1_1_">
	<path class="st0" d="M44.96,75.64H0L62.4,0l73.47,75.64H91.23c-0.92,11.25-2.39,22.42-3.93,33.44
		c-3.69,26.61-7.19,51.75-2.67,76.92c0.16,0.88,0.64,3.57,1.34,4.31l-39.75,12.95c-5.46-5.05-6.79-10.27-7.59-14.77
		c-1.68-9.32-2.34-18.64-2.34-27.93c0-18.01,2.49-35.9,4.92-53.4C42.69,96.45,44.07,85.98,44.96,75.64z"/>
	<path class="st1" d="M141.53,312.93h44.96l-62.4,75.64l-73.47-75.64h44.64c0.92-11.25,2.39-22.42,3.93-33.44
		c3.69-26.61,7.19-51.75,2.67-76.92c-0.16-0.88-0.64-3.57-1.34-4.31l39.75-12.95c5.46,5.05,6.79,10.27,7.59,14.77
		c1.68,9.32,2.34,18.64,2.34,27.93c0,18.01-2.49,35.9-4.92,53.4C143.79,292.12,142.42,302.59,141.53,312.93z"/>
	<path class="st1" d="M524.87,260.13c-1.27-7.21-0.88-14.69-0.5-21.92c0.2-3.88,0.41-7.89,0.37-11.83
		c-0.06-5.38-0.6-10.98-6.29-15.06c-5.32-3.82-13.77-5.21-20.56-6.32c-12.64-2.08-24.89-1.83-37.85-1.57
		c-3.01,0.06-6.13,0.12-9.22,0.15h-0.22c-14.5,0.14-67.96,0.29-82.7,0.29h-98.2c-9.46,0-20.45,0.34-30.19,2.87
		c-4.19,1.09-8.95,2.25-12.87,6.09c-3.68,3.6-4.59,10.49-5.25,19.37c-0.38,5.14-0.76,10.28-1.14,15.41
		c-0.73,9.86-1.45,20.17-0.15,29.7c0.35,2.53,0.85,5.03,1.69,6.82c0.82,1.73,1.88,2.67,2.93,3.48c7.91,6.16,16.82,7.11,25.06,7.18
		c33.12,0.28,65.5,0.53,97.55,0.45c14.98-0.03,30.22,0.32,44.95,0.66c14.09,0.33,28.57,0.66,42.98,0.66c2.77,0,5.54-0.01,8.3-0.04
		c15.34-0.15,28.89-0.38,41.43-0.71c0.9-0.02,1.79-0.04,2.67-0.06c10.77-0.25,20.07-0.46,28.79-5.9c5.23-3.27,8.25-7.94,9.21-14.3
		C526.45,270.4,525.75,265.09,524.87,260.13z"/>
	<g>
		<g class="st2">
			<path class="st3" d="M245.19,240.77c-1.92,0-3.4-0.53-4.47-1.58c-1.06-1.05-1.58-2.43-1.56-4.14l0.13-7.29h-2.72v-3.22h2.78
				l0.03-3.28h3.85l-0.06,3.28h5.21v3.22h-5.24l-0.09,6.88c-0.02,0.86,0.19,1.54,0.65,2.04c0.45,0.5,1.13,0.74,2.04,0.74
				c0.48,0,0.94-0.06,1.36-0.19c0.42-0.13,0.86-0.36,1.33-0.69l1.14,2.97c-0.48,0.42-1.1,0.74-1.86,0.95
				C246.93,240.67,246.1,240.77,245.19,240.77z"/>
			<path class="st3" d="M261.45,228.27c-0.42-0.15-0.96-0.22-1.61-0.22c-1.14,0-2.05,0.42-2.75,1.25c-0.69,0.83-1.21,2.16-1.53,3.98
				c-0.33,1.82-0.49,4.23-0.49,7.21h-3.82v-10.29l-0.03-5.65h3.85l-0.19,4.45c0.55-1.71,1.31-2.92,2.29-3.63
				c0.98-0.71,2.03-1.07,3.14-1.07c0.34,0,0.65,0.02,0.95,0.06c0.29,0.04,0.57,0.11,0.82,0.19L261.45,228.27z"/>
			<path class="st3" d="M278.28,224.61v15.88h-3.92l0.13-2.78c-0.57,0.97-1.31,1.72-2.23,2.26c-0.92,0.54-1.96,0.8-3.14,0.8
				c-1.39,0-2.57-0.32-3.54-0.96c-0.97-0.64-1.7-1.53-2.21-2.67c-0.51-1.14-0.76-2.44-0.76-3.92c0-1.77,0.35-3.32,1.04-4.66
				c0.69-1.34,1.65-2.38,2.86-3.14c1.21-0.76,2.57-1.14,4.09-1.14c1.01,0,1.9,0.22,2.68,0.65c0.78,0.43,1.38,1,1.8,1.72l0.38-2.05
				H278.28z M270.89,227.7c-1.31,0-2.35,0.5-3.13,1.48c-0.78,0.99-1.17,2.28-1.17,3.88c0,1.37,0.29,2.43,0.88,3.19
				c0.59,0.76,1.4,1.14,2.43,1.14c0.84,0,1.61-0.24,2.29-0.73c0.68-0.48,1.23-1.16,1.63-2.02s0.6-1.85,0.6-2.97
				c0-1.24-0.32-2.21-0.95-2.92C272.85,228.05,271.99,227.7,270.89,227.7z"/>
			<path class="st3" d="M282.38,240.49v-15.94h3.85l-0.19,4.01c0.61-1.37,1.44-2.42,2.49-3.16c1.05-0.74,2.25-1.1,3.6-1.1
				c1.79,0,3.14,0.62,4.06,1.85c0.92,1.23,1.36,2.99,1.34,5.29l-0.06,9.06h-3.85l0.06-8.75c0.02-1.24-0.17-2.19-0.58-2.86
				s-1.07-1-1.97-1c-0.7,0-1.34,0.2-1.93,0.6c-0.59,0.4-1.1,1.08-1.55,2.04c-0.44,0.96-0.79,2.25-1.04,3.88
				c-0.25,1.63-0.39,3.66-0.41,6.08H282.38z"/>
			<path class="st3" d="M307.01,240.77c-2.19,0-3.86-0.42-5.02-1.25c-1.16-0.83-1.83-1.99-2.02-3.49l3.25-0.79
				c0.13,0.8,0.5,1.42,1.11,1.85s1.48,0.65,2.62,0.65c0.93,0,1.63-0.15,2.1-0.44s0.71-0.7,0.71-1.2s-0.26-0.89-0.77-1.17
				c-0.52-0.27-1.31-0.52-2.38-0.73c-1.2-0.23-2.23-0.53-3.08-0.88c-0.85-0.36-1.51-0.85-1.96-1.47c-0.45-0.62-0.68-1.44-0.68-2.45
				c0-0.97,0.27-1.84,0.82-2.6c0.55-0.77,1.3-1.38,2.26-1.83c0.96-0.45,2.06-0.68,3.3-0.68c1.66,0,3.03,0.39,4.09,1.17
				c1.06,0.78,1.7,1.78,1.91,3l-3.19,0.85c-0.15-0.61-0.46-1.09-0.95-1.44c-0.48-0.35-1.14-0.52-1.96-0.52
				c-0.82,0-1.45,0.17-1.88,0.5c-0.43,0.34-0.65,0.76-0.65,1.26c0,0.51,0.25,0.9,0.74,1.18c0.49,0.28,1.34,0.55,2.54,0.8
				c1.12,0.23,2.09,0.52,2.92,0.87c0.83,0.35,1.49,0.82,1.97,1.42c0.48,0.6,0.73,1.41,0.73,2.42c0,0.99-0.28,1.86-0.84,2.6
				c-0.56,0.75-1.33,1.33-2.32,1.74C309.4,240.57,308.27,240.77,307.01,240.77z"/>
			<path class="st3" d="M322.76,240.77c-1.92,0-3.4-0.53-4.47-1.58c-1.06-1.05-1.58-2.43-1.56-4.14l0.13-7.29h-2.72v-3.22h2.78
				l0.03-3.28h3.85l-0.06,3.28h5.21v3.22h-5.24l-0.09,6.88c-0.02,0.86,0.19,1.54,0.65,2.04c0.45,0.5,1.13,0.74,2.04,0.74
				c0.48,0,0.94-0.06,1.36-0.19s0.86-0.36,1.33-0.69l1.14,2.97c-0.48,0.42-1.11,0.74-1.86,0.95
				C324.5,240.67,323.67,240.77,322.76,240.77z"/>
			<path class="st3" d="M335.96,224.29c2.38,0,4.25,0.71,5.6,2.13s2.04,3.34,2.04,5.76c0,1.64-0.34,3.11-1.03,4.4
				c-0.68,1.29-1.65,2.32-2.89,3.06c-1.24,0.75-2.68,1.12-4.33,1.12c-2.38,0-4.25-0.71-5.6-2.12c-1.36-1.41-2.04-3.34-2.04-5.78
				c0-1.64,0.34-3.11,1.03-4.4c0.68-1.29,1.64-2.32,2.87-3.06S334.3,224.29,335.96,224.29z M335.49,237.39c1.24,0,2.24-0.47,3-1.42
				s1.14-2.21,1.14-3.79c0-1.43-0.33-2.54-1-3.31s-1.57-1.17-2.73-1.17c-1.28,0-2.3,0.47-3.06,1.42s-1.14,2.2-1.14,3.76
				c0,1.43,0.33,2.54,0.99,3.33C333.36,237,334.29,237.39,335.49,237.39z"/>
			<path class="st3" d="M357.18,228.27c-0.42-0.15-0.96-0.22-1.61-0.22c-1.14,0-2.05,0.42-2.75,1.25c-0.69,0.83-1.21,2.16-1.53,3.98
				s-0.49,4.23-0.49,7.21h-3.82v-10.29l-0.03-5.65h3.85l-0.19,4.45c0.55-1.71,1.31-2.92,2.29-3.63c0.98-0.71,2.03-1.07,3.14-1.07
				c0.34,0,0.65,0.02,0.95,0.06c0.29,0.04,0.57,0.11,0.82,0.19L357.18,228.27z"/>
			<path class="st3" d="M359.83,240.49v-15.94h3.85l-0.19,4.01c0.61-1.37,1.44-2.42,2.49-3.16c1.05-0.74,2.25-1.1,3.6-1.1
				c1.79,0,3.14,0.62,4.06,1.85c0.92,1.23,1.36,2.99,1.34,5.29l-0.06,9.06h-3.85l0.06-8.75c0.02-1.24-0.17-2.19-0.58-2.86
				s-1.07-1-1.97-1c-0.7,0-1.34,0.2-1.93,0.6c-0.59,0.4-1.1,1.08-1.55,2.04c-0.44,0.96-0.79,2.25-1.04,3.88
				c-0.25,1.63-0.39,3.66-0.41,6.08H359.83z"/>
			<path class="st3" d="M386.35,224.29c2.38,0,4.25,0.71,5.6,2.13c1.36,1.42,2.04,3.34,2.04,5.76c0,1.64-0.34,3.11-1.03,4.4
				c-0.68,1.29-1.65,2.32-2.89,3.06c-1.24,0.75-2.68,1.12-4.33,1.12c-2.38,0-4.25-0.71-5.6-2.12s-2.04-3.34-2.04-5.78
				c0-1.64,0.34-3.11,1.03-4.4c0.68-1.29,1.64-2.32,2.87-3.06C383.24,224.66,384.69,224.29,386.35,224.29z M385.88,237.39
				c1.24,0,2.24-0.47,3-1.42s1.14-2.21,1.14-3.79c0-1.43-0.33-2.54-0.99-3.31s-1.57-1.17-2.73-1.17c-1.28,0-2.3,0.47-3.06,1.42
				s-1.14,2.2-1.14,3.76c0,1.43,0.33,2.54,1,3.33C383.74,237,384.67,237.39,385.88,237.39z"/>
			<path class="st3" d="M402.92,240.77c-2.19,0-3.86-0.42-5.02-1.25c-1.16-0.83-1.83-1.99-2.02-3.49l3.25-0.79
				c0.13,0.8,0.49,1.42,1.11,1.85c0.61,0.43,1.48,0.65,2.62,0.65c0.93,0,1.63-0.15,2.1-0.44s0.71-0.7,0.71-1.2s-0.26-0.89-0.77-1.17
				s-1.31-0.52-2.38-0.73c-1.2-0.23-2.23-0.53-3.08-0.88c-0.85-0.36-1.5-0.85-1.96-1.47c-0.45-0.62-0.68-1.44-0.68-2.45
				c0-0.97,0.27-1.84,0.82-2.6c0.55-0.77,1.3-1.38,2.26-1.83c0.96-0.45,2.06-0.68,3.3-0.68c1.66,0,3.03,0.39,4.09,1.17
				c1.06,0.78,1.7,1.78,1.91,3l-3.19,0.85c-0.15-0.61-0.46-1.09-0.95-1.44c-0.48-0.35-1.14-0.52-1.96-0.52
				c-0.82,0-1.45,0.17-1.88,0.5c-0.43,0.34-0.65,0.76-0.65,1.26c0,0.51,0.25,0.9,0.74,1.18c0.49,0.28,1.34,0.55,2.54,0.8
				c1.12,0.23,2.09,0.52,2.92,0.87c0.83,0.35,1.49,0.82,1.97,1.42s0.73,1.41,0.73,2.42c0,0.99-0.28,1.86-0.84,2.6
				c-0.56,0.75-1.33,1.33-2.32,1.74C405.31,240.57,404.19,240.77,402.92,240.77z"/>
		</g>
		<g class="st2">
			<path class="st3" d="M245.54,278.66c-2.42,0-4.34-0.7-5.75-2.1c-1.41-1.4-2.12-3.35-2.12-5.86c0-1.68,0.35-3.17,1.04-4.45
				c0.69-1.28,1.66-2.28,2.9-3c1.24-0.71,2.67-1.07,4.29-1.07c1.35,0,2.53,0.26,3.54,0.79c1.01,0.53,1.83,1.35,2.46,2.46l-2.75,2.08
				c-0.4-0.67-0.86-1.16-1.37-1.45c-0.52-0.29-1.14-0.44-1.88-0.44c-1.24,0-2.26,0.46-3.05,1.39c-0.79,0.93-1.18,2.15-1.18,3.66
				c0,1.47,0.35,2.6,1.06,3.39c0.71,0.79,1.72,1.18,3.05,1.18c0.69,0,1.34-0.16,1.94-0.47c0.6-0.32,1.1-0.81,1.5-1.48l2.68,2.15
				c-0.72,1.16-1.62,1.98-2.71,2.48C248.11,278.41,246.89,278.66,245.54,278.66z"/>
			<path class="st3" d="M260.85,262.18c2.38,0,4.25,0.71,5.6,2.13c1.36,1.42,2.04,3.34,2.04,5.76c0,1.64-0.34,3.11-1.03,4.4
				c-0.68,1.29-1.65,2.32-2.89,3.06c-1.24,0.75-2.68,1.12-4.33,1.12c-2.38,0-4.25-0.71-5.6-2.12c-1.36-1.41-2.04-3.34-2.04-5.78
				c0-1.64,0.34-3.11,1.03-4.4c0.68-1.29,1.64-2.32,2.87-3.06C257.74,262.55,259.19,262.18,260.85,262.18z M260.38,275.28
				c1.24,0,2.24-0.47,3-1.42c0.76-0.95,1.14-2.21,1.14-3.79c0-1.43-0.33-2.54-0.99-3.31s-1.57-1.17-2.73-1.17
				c-1.28,0-2.3,0.47-3.06,1.42s-1.14,2.2-1.14,3.76c0,1.43,0.33,2.54,0.99,3.33C258.25,274.89,259.18,275.28,260.38,275.28z"/>
			<path class="st3" d="M271.84,278.38v-15.94h3.85l-0.19,3.92c0.65-1.45,1.5-2.51,2.54-3.17c1.04-0.66,2.16-0.99,3.36-0.99
				c1.16,0,2.18,0.32,3.06,0.95c0.88,0.63,1.51,1.62,1.89,2.97c0.67-1.33,1.56-2.31,2.67-2.95c1.11-0.64,2.25-0.96,3.43-0.96
				c1.77,0,3.11,0.62,4.03,1.85s1.36,2.99,1.34,5.29l-0.06,9.06h-3.85l0.06-8.93c0-1.16-0.21-2.06-0.63-2.7
				c-0.42-0.64-1.07-0.96-1.96-0.96c-0.61,0-1.2,0.2-1.75,0.58s-1.05,1.06-1.48,2c-0.43,0.95-0.77,2.24-1.03,3.87
				c-0.25,1.63-0.39,3.68-0.41,6.14h-3.82v-8.93c0-1.16-0.2-2.06-0.6-2.7c-0.4-0.64-1.04-0.96-1.93-0.96c-0.61,0-1.2,0.2-1.75,0.58
				s-1.05,1.06-1.48,2c-0.43,0.95-0.78,2.24-1.04,3.87c-0.26,1.63-0.41,3.68-0.43,6.14H271.84z"/>
			<path class="st3" d="M301.71,284.69v-22.26h3.88l-0.13,2.84c0.57-0.99,1.31-1.75,2.21-2.29c0.9-0.54,1.96-0.8,3.16-0.8
				c1.41,0,2.6,0.33,3.57,0.98c0.97,0.65,1.71,1.55,2.21,2.68s0.76,2.43,0.76,3.88c0,1.77-0.35,3.33-1.04,4.67
				c-0.69,1.35-1.65,2.39-2.86,3.14c-1.21,0.75-2.58,1.12-4.12,1.12c-0.8,0-1.53-0.14-2.18-0.41s-1.2-0.64-1.64-1.11l0.03,1.23v6.31
				H301.71z M309.06,275.28c1.33,0,2.38-0.51,3.16-1.52c0.78-1.01,1.17-2.32,1.17-3.92c0-1.35-0.29-2.39-0.88-3.14
				c-0.59-0.75-1.4-1.12-2.43-1.12c-0.86,0-1.63,0.24-2.31,0.71s-1.21,1.14-1.61,1.99c-0.4,0.85-0.6,1.84-0.6,2.95
				c0,1.24,0.32,2.23,0.95,2.95C307.14,274.92,307.99,275.28,309.06,275.28z"/>
			<path class="st3" d="M328.19,262.18c2.38,0,4.25,0.71,5.6,2.13c1.36,1.42,2.04,3.34,2.04,5.76c0,1.64-0.34,3.11-1.03,4.4
				c-0.68,1.29-1.65,2.32-2.89,3.06c-1.24,0.75-2.68,1.12-4.33,1.12c-2.38,0-4.25-0.71-5.6-2.12s-2.04-3.34-2.04-5.78
				c0-1.64,0.34-3.11,1.03-4.4c0.68-1.29,1.64-2.32,2.87-3.06C325.08,262.55,326.53,262.18,328.19,262.18z M327.72,275.28
				c1.24,0,2.24-0.47,3-1.42s1.14-2.21,1.14-3.79c0-1.43-0.33-2.54-0.99-3.31s-1.57-1.17-2.73-1.17c-1.28,0-2.3,0.47-3.06,1.42
				s-1.14,2.2-1.14,3.76c0,1.43,0.33,2.54,1,3.33C325.59,274.89,326.52,275.28,327.72,275.28z"/>
			<path class="st3" d="M349.41,266.16c-0.42-0.15-0.96-0.22-1.61-0.22c-1.14,0-2.05,0.42-2.75,1.25c-0.7,0.83-1.21,2.16-1.53,3.98
				c-0.33,1.82-0.49,4.23-0.49,7.21h-3.82v-10.29l-0.03-5.65h3.85l-0.19,4.45c0.55-1.71,1.31-2.92,2.29-3.63
				c0.98-0.71,2.03-1.07,3.14-1.07c0.34,0,0.65,0.02,0.95,0.06s0.57,0.11,0.82,0.19L349.41,266.16z"/>
			<path class="st3" d="M360.08,278.66c-1.92,0-3.41-0.53-4.47-1.58c-1.06-1.05-1.58-2.43-1.56-4.14l0.13-7.29h-2.71v-3.22h2.78
				l0.03-3.28h3.85l-0.06,3.28h5.21v3.22h-5.24l-0.09,6.88c-0.02,0.86,0.19,1.54,0.65,2.04c0.45,0.5,1.13,0.74,2.04,0.74
				c0.48,0,0.94-0.06,1.36-0.19c0.42-0.13,0.86-0.36,1.33-0.69l1.14,2.97c-0.48,0.42-1.1,0.74-1.86,0.95
				C361.82,278.56,360.99,278.66,360.08,278.66z"/>
			<path class="st3" d="M380.7,262.5v15.88h-3.92l0.13-2.78c-0.57,0.97-1.31,1.72-2.23,2.26c-0.92,0.54-1.96,0.8-3.14,0.8
				c-1.39,0-2.57-0.32-3.54-0.96c-0.97-0.64-1.71-1.53-2.21-2.67c-0.51-1.14-0.76-2.44-0.76-3.92c0-1.77,0.35-3.32,1.04-4.66
				c0.69-1.34,1.65-2.38,2.86-3.14c1.21-0.76,2.57-1.14,4.09-1.14c1.01,0,1.91,0.22,2.68,0.65s1.38,1,1.8,1.72l0.38-2.05H380.7z
				 M373.31,265.59c-1.3,0-2.35,0.5-3.13,1.48c-0.78,0.99-1.17,2.28-1.17,3.88c0,1.37,0.29,2.43,0.88,3.19
				c0.59,0.76,1.4,1.14,2.43,1.14c0.84,0,1.6-0.24,2.29-0.73c0.68-0.48,1.23-1.16,1.63-2.02c0.4-0.86,0.6-1.85,0.6-2.97
				c0-1.24-0.32-2.21-0.95-2.92C375.27,265.94,374.4,265.59,373.31,265.59z"/>
			<path class="st3" d="M384.8,278.38v-15.94h3.85l-0.19,3.92c0.65-1.45,1.5-2.51,2.54-3.17c1.04-0.66,2.16-0.99,3.36-0.99
				c1.16,0,2.18,0.32,3.06,0.95c0.88,0.63,1.51,1.62,1.89,2.97c0.67-1.33,1.56-2.31,2.67-2.95c1.11-0.64,2.25-0.96,3.43-0.96
				c1.77,0,3.11,0.62,4.03,1.85s1.36,2.99,1.34,5.29l-0.06,9.06h-3.85l0.06-8.93c0-1.16-0.21-2.06-0.63-2.7
				c-0.42-0.64-1.07-0.96-1.96-0.96c-0.61,0-1.2,0.2-1.75,0.58s-1.05,1.06-1.48,2c-0.43,0.95-0.77,2.24-1.03,3.87
				c-0.25,1.63-0.39,3.68-0.41,6.14h-3.82v-8.93c0-1.16-0.2-2.06-0.6-2.7c-0.4-0.64-1.04-0.96-1.93-0.96c-0.61,0-1.2,0.2-1.75,0.58
				s-1.05,1.06-1.48,2c-0.43,0.95-0.78,2.24-1.04,3.87c-0.26,1.63-0.41,3.68-0.43,6.14H384.8z"/>
			<path class="st3" d="M422.28,278.66c-1.73,0-3.21-0.32-4.47-0.96c-1.25-0.64-2.21-1.56-2.89-2.76c-0.67-1.2-1.01-2.63-1.01-4.29
				c0-1.66,0.35-3.13,1.04-4.4c0.69-1.27,1.64-2.27,2.83-2.98c1.19-0.71,2.54-1.07,4.06-1.07c2.46,0,4.28,0.84,5.45,2.51
				c1.17,1.67,1.57,3.98,1.22,6.93h-10.67c0.08,1.12,0.54,2.01,1.36,2.68c0.82,0.67,1.95,1.01,3.38,1.01c0.67,0,1.35-0.15,2.04-0.44
				c0.68-0.29,1.27-0.75,1.75-1.36l2.24,2.27c-0.72,0.91-1.58,1.61-2.6,2.12C424.97,278.41,423.73,278.66,422.28,278.66z
				 M421.9,265.08c-1.07,0-1.96,0.34-2.65,1.01c-0.69,0.67-1.14,1.58-1.33,2.71h7.26c0.04-1.3-0.24-2.25-0.85-2.84
				C423.72,265.38,422.91,265.08,421.9,265.08z"/>
			<path class="st3" d="M431.81,278.38v-15.94h3.85l-0.19,4.01c0.61-1.37,1.44-2.42,2.49-3.16c1.05-0.74,2.25-1.1,3.6-1.1
				c1.79,0,3.14,0.62,4.06,1.85c0.92,1.23,1.36,2.99,1.34,5.29l-0.06,9.06h-3.85l0.06-8.75c0.02-1.24-0.17-2.19-0.58-2.86
				c-0.41-0.66-1.07-1-1.97-1c-0.69,0-1.34,0.2-1.93,0.6c-0.59,0.4-1.11,1.08-1.55,2.04c-0.44,0.96-0.79,2.25-1.04,3.88
				c-0.25,1.63-0.39,3.66-0.41,6.08H431.81z"/>
			<path class="st3" d="M457.61,278.66c-1.92,0-3.4-0.53-4.47-1.58c-1.06-1.05-1.58-2.43-1.56-4.14l0.13-7.29h-2.72v-3.22h2.78
				l0.03-3.28h3.85l-0.06,3.28h5.21v3.22h-5.24l-0.09,6.88c-0.02,0.86,0.19,1.54,0.65,2.04c0.45,0.5,1.13,0.74,2.04,0.74
				c0.48,0,0.94-0.06,1.36-0.19s0.86-0.36,1.33-0.69l1.14,2.97c-0.48,0.42-1.11,0.74-1.86,0.95
				C459.34,278.56,458.51,278.66,457.61,278.66z"/>
			<path class="st3" d="M478.22,262.5v15.88h-3.92l0.13-2.78c-0.57,0.97-1.31,1.72-2.23,2.26c-0.92,0.54-1.96,0.8-3.14,0.8
				c-1.39,0-2.57-0.32-3.54-0.96c-0.97-0.64-1.71-1.53-2.21-2.67c-0.51-1.14-0.76-2.44-0.76-3.92c0-1.77,0.35-3.32,1.04-4.66
				c0.69-1.34,1.65-2.38,2.86-3.14c1.21-0.76,2.57-1.14,4.09-1.14c1.01,0,1.91,0.22,2.68,0.65s1.38,1,1.8,1.72l0.38-2.05H478.22z
				 M470.83,265.59c-1.3,0-2.35,0.5-3.13,1.48c-0.78,0.99-1.17,2.28-1.17,3.88c0,1.37,0.29,2.43,0.88,3.19
				c0.59,0.76,1.4,1.14,2.43,1.14c0.84,0,1.6-0.24,2.29-0.73c0.68-0.48,1.23-1.16,1.63-2.02c0.4-0.86,0.6-1.85,0.6-2.97
				c0-1.24-0.32-2.21-0.95-2.92C472.79,265.94,471.93,265.59,470.83,265.59z"/>
			<path class="st3" d="M484.25,259.91c-0.76,0-1.36-0.23-1.8-0.69c-0.44-0.46-0.66-1.02-0.66-1.67c0-0.65,0.22-1.21,0.66-1.67
				c0.44-0.46,1.04-0.69,1.8-0.69s1.36,0.23,1.8,0.69s0.66,1.02,0.66,1.67c0,0.65-0.22,1.21-0.66,1.67S485.01,259.91,484.25,259.91z
				 M486.18,262.43v15.94h-3.85v-15.94H486.18z"/>
			<path class="st3" d="M495.87,278.66c-2.19,0-3.86-0.42-5.02-1.25c-1.16-0.83-1.83-1.99-2.02-3.49l3.25-0.79
				c0.13,0.8,0.49,1.42,1.11,1.85c0.61,0.43,1.48,0.65,2.62,0.65c0.93,0,1.63-0.15,2.1-0.44s0.71-0.7,0.71-1.2s-0.26-0.89-0.77-1.17
				s-1.31-0.52-2.38-0.73c-1.2-0.23-2.23-0.53-3.08-0.88c-0.85-0.36-1.5-0.85-1.96-1.47c-0.45-0.62-0.68-1.44-0.68-2.45
				c0-0.97,0.27-1.84,0.82-2.6c0.55-0.77,1.3-1.38,2.26-1.83c0.96-0.45,2.06-0.68,3.3-0.68c1.66,0,3.03,0.39,4.09,1.17
				c1.06,0.78,1.7,1.78,1.91,3l-3.19,0.85c-0.15-0.61-0.46-1.09-0.95-1.44c-0.48-0.35-1.14-0.52-1.96-0.52
				c-0.82,0-1.45,0.17-1.88,0.5c-0.43,0.34-0.65,0.76-0.65,1.26c0,0.51,0.25,0.9,0.74,1.18c0.49,0.28,1.34,0.55,2.54,0.8
				c1.12,0.23,2.09,0.52,2.92,0.87c0.83,0.35,1.49,0.82,1.97,1.42s0.73,1.41,0.73,2.42c0,0.99-0.28,1.86-0.84,2.6
				c-0.56,0.75-1.33,1.33-2.32,1.74C498.26,278.46,497.13,278.66,495.87,278.66z"/>
		</g>
	</g>
	<path class="st0" d="M333.39,65.19c-0.65-7.21-0.45-14.69-0.26-21.92c0.1-3.88,0.21-7.89,0.19-11.83
		c-0.03-5.38-0.31-10.98-3.22-15.06c-2.72-3.82-7.05-5.21-10.52-6.32c-6.47-2.08-12.73-1.83-19.37-1.57
		c-1.54,0.06-3.13,0.12-4.72,0.15h-0.11c-7.42,0.14-34.77,0.29-42.32,0.29h-50.25c-4.84,0-10.46,0.34-15.45,2.87
		c-2.14,1.09-4.58,2.25-6.59,6.09c-1.88,3.6-2.35,10.49-2.69,19.37c-0.2,5.14-0.39,10.28-0.59,15.41
		c-0.37,9.86-0.74,20.17-0.08,29.7c0.18,2.53,0.44,5.03,0.87,6.82c0.42,1.73,0.96,2.67,1.5,3.48c4.05,6.16,8.61,7.11,12.83,7.18
		c16.95,0.28,33.51,0.53,49.92,0.45c7.67-0.03,15.46,0.32,23,0.66c7.21,0.33,14.62,0.66,21.99,0.66c1.42,0,2.83-0.01,4.25-0.04
		c7.85-0.15,14.78-0.38,21.2-0.71c0.46-0.02,0.92-0.04,1.37-0.06c5.51-0.25,10.27-0.46,14.73-5.9c2.68-3.27,4.22-7.94,4.71-14.3
		C334.2,75.46,333.84,70.16,333.39,65.19z"/>
	<g>
		<g class="st2">
			<path class="st3" d="M201.72,45.83c-2.19,0-3.86-0.42-5.02-1.25c-1.16-0.83-1.83-1.99-2.02-3.49l3.25-0.79
				c0.13,0.8,0.49,1.42,1.11,1.85c0.61,0.43,1.48,0.65,2.62,0.65c0.93,0,1.63-0.15,2.1-0.44s0.71-0.7,0.71-1.2s-0.26-0.89-0.77-1.17
				c-0.52-0.27-1.31-0.52-2.38-0.73c-1.2-0.23-2.23-0.53-3.08-0.88c-0.85-0.36-1.51-0.85-1.96-1.47c-0.45-0.62-0.68-1.44-0.68-2.45
				c0-0.97,0.27-1.84,0.82-2.6c0.55-0.77,1.3-1.38,2.26-1.83c0.96-0.45,2.06-0.68,3.3-0.68c1.66,0,3.03,0.39,4.09,1.17
				c1.06,0.78,1.7,1.78,1.91,3l-3.19,0.85c-0.15-0.61-0.46-1.09-0.95-1.44c-0.48-0.35-1.14-0.52-1.96-0.52s-1.45,0.17-1.88,0.5
				c-0.43,0.34-0.65,0.76-0.65,1.26c0,0.51,0.25,0.9,0.74,1.18c0.49,0.28,1.34,0.55,2.54,0.8c1.12,0.23,2.09,0.52,2.92,0.87
				c0.83,0.35,1.49,0.82,1.97,1.42c0.48,0.6,0.73,1.41,0.73,2.42c0,0.99-0.28,1.86-0.84,2.6c-0.56,0.75-1.33,1.33-2.32,1.74
				C204.1,45.63,202.98,45.83,201.72,45.83z"/>
			<path class="st3" d="M225.93,29.67v15.88h-3.92l0.13-2.78c-0.57,0.97-1.31,1.72-2.23,2.26c-0.92,0.54-1.96,0.8-3.14,0.8
				c-1.39,0-2.57-0.32-3.54-0.96c-0.97-0.64-1.71-1.53-2.21-2.67c-0.51-1.14-0.76-2.44-0.76-3.92c0-1.77,0.35-3.32,1.04-4.66
				c0.69-1.34,1.65-2.38,2.86-3.14s2.57-1.14,4.09-1.14c1.01,0,1.9,0.22,2.68,0.65c0.78,0.43,1.38,1,1.8,1.72l0.38-2.05H225.93z
				 M218.54,32.76c-1.31,0-2.35,0.5-3.13,1.48c-0.78,0.99-1.17,2.28-1.17,3.88c0,1.37,0.29,2.43,0.88,3.19
				c0.59,0.76,1.4,1.14,2.43,1.14c0.84,0,1.6-0.24,2.29-0.73c0.68-0.48,1.23-1.16,1.63-2.02c0.4-0.86,0.6-1.85,0.6-2.97
				c0-1.24-0.32-2.21-0.95-2.92S219.64,32.76,218.54,32.76z"/>
			<path class="st3" d="M235.12,45.83c-1.77,0-3.1-0.6-3.99-1.8c-0.9-1.2-1.33-2.86-1.31-4.99l0.06-9.44h3.85l-0.06,9.09
				c-0.02,1.09,0.17,1.96,0.57,2.59c0.4,0.63,1.03,0.95,1.89,0.95c0.67,0,1.3-0.2,1.88-0.6c0.58-0.4,1.08-1.08,1.5-2.04
				c0.42-0.96,0.75-2.25,0.99-3.88c0.24-1.63,0.36-3.67,0.36-6.11h3.73v15.94h-3.88l0.22-3.63c-0.63,1.28-1.45,2.26-2.45,2.92
				C237.48,45.5,236.36,45.83,235.12,45.83z M235.56,27.46l3.76-5.59l3.98,1.01L239,27.46H235.56z"/>
			<path class="st3" d="M263.6,22.19v23.36h-3.92l0.13-2.78c-0.57,0.99-1.31,1.75-2.21,2.27c-0.91,0.53-1.96,0.79-3.16,0.79
				c-1.39,0-2.57-0.32-3.54-0.96c-0.97-0.64-1.71-1.53-2.21-2.67c-0.51-1.14-0.76-2.44-0.76-3.92c0-1.77,0.35-3.32,1.04-4.66
				c0.69-1.34,1.65-2.38,2.86-3.14s2.57-1.14,4.09-1.14c0.8,0,1.53,0.14,2.19,0.41s1.22,0.65,1.66,1.14l-0.03-1.29v-7.42H263.6z
				 M256.21,32.76c-1.31,0-2.35,0.5-3.13,1.48c-0.78,0.99-1.17,2.28-1.17,3.88c0,1.37,0.29,2.43,0.88,3.19
				c0.59,0.76,1.4,1.14,2.43,1.14c0.84,0,1.6-0.24,2.29-0.73c0.68-0.48,1.23-1.16,1.63-2.02c0.4-0.86,0.6-1.85,0.6-2.97
				c0-1.24-0.32-2.21-0.95-2.92S257.3,32.76,256.21,32.76z"/>
			<path class="st3" d="M275.31,45.83c-1.73,0-3.21-0.32-4.47-0.96c-1.25-0.64-2.21-1.56-2.89-2.76c-0.67-1.2-1.01-2.63-1.01-4.29
				c0-1.66,0.35-3.13,1.04-4.4c0.69-1.27,1.64-2.27,2.83-2.98c1.19-0.71,2.54-1.07,4.06-1.07c2.46,0,4.28,0.84,5.45,2.51
				c1.17,1.67,1.57,3.98,1.22,6.93h-10.67c0.08,1.12,0.54,2.01,1.36,2.68c0.82,0.67,1.95,1.01,3.38,1.01c0.67,0,1.35-0.15,2.04-0.44
				c0.68-0.29,1.27-0.75,1.75-1.36l2.24,2.27c-0.72,0.91-1.58,1.61-2.6,2.12C278,45.58,276.76,45.83,275.31,45.83z M274.93,32.26
				c-1.07,0-1.96,0.34-2.65,1.01c-0.69,0.67-1.14,1.58-1.33,2.71h7.26c0.04-1.3-0.24-2.25-0.85-2.84
				C276.75,32.55,275.94,32.26,274.93,32.26z"/>
		</g>
		<g class="st2">
			<path class="st3" d="M196.92,83.44V70.72h-3.03V67.5h3.03v-0.85c0-1.41,0.29-2.63,0.87-3.65c0.58-1.02,1.37-1.82,2.37-2.38
				c1-0.57,2.15-0.85,3.46-0.85c1.56,0,2.8,0.38,3.74,1.15s1.5,1.92,1.69,3.46l-3.28,0.38c-0.06-0.55-0.29-0.97-0.69-1.28
				c-0.4-0.3-0.92-0.46-1.55-0.46c-0.86,0-1.54,0.28-2.04,0.85c-0.5,0.57-0.74,1.38-0.74,2.43v1.2h4.74v3.22h-4.67v12.72H196.92z"/>
			<path class="st3" d="M221.76,67.56v15.88h-3.92l0.13-2.78c-0.57,0.97-1.31,1.72-2.23,2.26c-0.92,0.54-1.96,0.8-3.14,0.8
				c-1.39,0-2.57-0.32-3.54-0.96c-0.97-0.64-1.71-1.53-2.21-2.67c-0.51-1.14-0.76-2.44-0.76-3.92c0-1.77,0.35-3.32,1.04-4.66
				c0.69-1.34,1.65-2.38,2.86-3.14s2.57-1.14,4.09-1.14c1.01,0,1.9,0.22,2.68,0.65c0.78,0.43,1.38,1,1.8,1.72l0.38-2.05H221.76z
				 M214.38,70.65c-1.31,0-2.35,0.5-3.13,1.48c-0.78,0.99-1.17,2.28-1.17,3.88c0,1.37,0.29,2.43,0.88,3.19
				c0.59,0.76,1.4,1.14,2.43,1.14c0.84,0,1.6-0.24,2.29-0.73c0.68-0.48,1.23-1.16,1.63-2.02c0.4-0.86,0.6-1.85,0.6-2.97
				c0-1.24-0.32-2.21-0.95-2.92S215.47,70.65,214.38,70.65z"/>
			<path class="st3" d="M225.87,83.44V67.5h3.85l-0.19,3.92c0.65-1.45,1.5-2.51,2.54-3.17c1.04-0.66,2.16-0.99,3.36-0.99
				c1.16,0,2.18,0.32,3.06,0.95c0.88,0.63,1.52,1.62,1.89,2.97c0.67-1.33,1.56-2.31,2.67-2.95c1.1-0.64,2.25-0.96,3.43-0.96
				c1.77,0,3.11,0.62,4.03,1.85c0.92,1.23,1.36,2.99,1.34,5.29l-0.06,9.06h-3.85l0.06-8.93c0-1.16-0.21-2.06-0.63-2.7
				c-0.42-0.64-1.07-0.96-1.96-0.96c-0.61,0-1.19,0.2-1.75,0.58s-1.05,1.06-1.48,2c-0.43,0.95-0.77,2.24-1.03,3.87
				s-0.39,3.68-0.41,6.14h-3.82v-8.93c0-1.16-0.2-2.06-0.6-2.7c-0.4-0.64-1.04-0.96-1.93-0.96c-0.61,0-1.19,0.2-1.75,0.58
				s-1.05,1.06-1.48,2c-0.43,0.95-0.78,2.24-1.04,3.87c-0.26,1.63-0.41,3.68-0.43,6.14H225.87z"/>
			<path class="st3" d="M257.66,64.97c-0.76,0-1.36-0.23-1.8-0.69c-0.44-0.46-0.66-1.02-0.66-1.67c0-0.65,0.22-1.21,0.66-1.67
				c0.44-0.46,1.04-0.69,1.8-0.69s1.36,0.23,1.8,0.69c0.44,0.46,0.66,1.02,0.66,1.67c0,0.65-0.22,1.21-0.66,1.67
				C259.02,64.74,258.42,64.97,257.66,64.97z M259.59,67.5v15.94h-3.85V67.5H259.59z"/>
			<path class="st3" d="M268.3,83.72c-1.52,0-2.66-0.41-3.44-1.23c-0.78-0.82-1.17-1.99-1.17-3.5V60.08h3.85v18.6
				c0,1.14,0.53,1.71,1.58,1.71c0.53,0,0.99-0.13,1.39-0.38l0.95,2.81c-0.34,0.25-0.79,0.47-1.36,0.65S268.93,83.72,268.3,83.72z"/>
			<path class="st3" d="M274.83,64.97c-0.76,0-1.36-0.23-1.8-0.69c-0.44-0.46-0.66-1.02-0.66-1.67c0-0.65,0.22-1.21,0.66-1.67
				c0.44-0.46,1.04-0.69,1.8-0.69s1.36,0.23,1.8,0.69s0.66,1.02,0.66,1.67c0,0.65-0.22,1.21-0.66,1.67S275.59,64.97,274.83,64.97z
				 M276.76,67.5v15.94h-3.85V67.5H276.76z"/>
			<path class="st3" d="M295.77,67.56v15.88h-3.92l0.13-2.78c-0.57,0.97-1.31,1.72-2.23,2.26c-0.92,0.54-1.96,0.8-3.14,0.8
				c-1.39,0-2.57-0.32-3.54-0.96c-0.97-0.64-1.71-1.53-2.21-2.67s-0.76-2.44-0.76-3.92c0-1.77,0.35-3.32,1.04-4.66
				c0.69-1.34,1.65-2.38,2.86-3.14c1.21-0.76,2.57-1.14,4.09-1.14c1.01,0,1.9,0.22,2.68,0.65c0.78,0.43,1.38,1,1.8,1.72l0.38-2.05
				H295.77z M288.38,70.65c-1.31,0-2.35,0.5-3.13,1.48c-0.78,0.99-1.17,2.28-1.17,3.88c0,1.37,0.29,2.43,0.88,3.19
				c0.59,0.76,1.4,1.14,2.43,1.14c0.84,0,1.61-0.24,2.29-0.73c0.68-0.48,1.23-1.16,1.63-2.02s0.6-1.85,0.6-2.97
				c0-1.24-0.32-2.21-0.95-2.92C290.34,71.01,289.47,70.65,288.38,70.65z"/>
			<path class="st3" d="M310.1,71.22c-0.42-0.15-0.96-0.22-1.61-0.22c-1.14,0-2.05,0.42-2.75,1.25c-0.69,0.83-1.21,2.16-1.53,3.98
				s-0.49,4.23-0.49,7.21h-3.82V73.15l-0.03-5.65h3.85l-0.19,4.45c0.55-1.71,1.31-2.92,2.29-3.63c0.98-0.71,2.03-1.07,3.14-1.07
				c0.34,0,0.65,0.02,0.95,0.06c0.29,0.04,0.57,0.11,0.82,0.19L310.1,71.22z"/>
		</g>
	</g>
</g>
<g id="Camada_2_1_">
</g>
</svg>
