<?xml version="1.0" encoding="utf-8"?>
<!-- Generator: Adobe Illustrator 24.0.1, SVG Export Plug-In . SVG Version: 6.00 Build 0)  -->
<svg version="1.1" id="Camada_1" xmlns="http://www.w3.org/2000/svg" xmlns:xlink="http://www.w3.org/1999/xlink" x="0px" y="0px"
	 viewBox="0 0 11.6 15.8" style="enable-background:new 0 0 11.6 15.8;" xml:space="preserve">
<style type="text/css">
	.st0{fill:#DBA723;}
</style>
<path class="st0" d="M0,9.9l2-1.3l2.6,2.5c0-1.3,0.1-2.6,0.3-3.8c0.2-2.1,0.4-4.1,0.1-6C5,1.2,5,1,4.9,1l2.2-1
	c0.3,0.4,0.4,0.8,0.4,1.2c0.1,0.7,0.1,1.5,0.1,2.2c0,1.4-0.1,2.8-0.3,4.2c0,1.1-0.1,2.4-0.2,3.7l2.3-2.6l2.2,1.1l-5.4,6L0,9.9z"/>
</svg>
