<?xml version="1.0" encoding="utf-8"?>
<!-- Generator: Adobe Illustrator 24.0.1, SVG Export Plug-In . SVG Version: 6.00 Build 0)  -->
<svg version="1.1" id="Layer_1" xmlns="http://www.w3.org/2000/svg" xmlns:xlink="http://www.w3.org/1999/xlink" x="0px" y="0px"
	 viewBox="0 0 88.7 98.1" style="enable-background:new 0 0 88.7 98.1;" xml:space="preserve">
<style type="text/css">
	.st0{fill:none;stroke:#FFFFFF;stroke-width:3;stroke-miterlimit:10;}
	.st1{fill:#FFFFFF;}
</style>
<path class="st0" d="M68.4,20.2l6-0.7c9.7-1.1,16.2,9.8,10.4,17.8l-3.5,4.9c-2.9,4-2.8,9.4,0.1,13.3l3.6,4.8
	c5.8,7.9-0.4,18.9-10.2,17.9l-6-0.6c-4.9-0.5-9.5,2.2-11.5,6.7L55,89.8c-3.9,9-16.6,9.1-20.6,0.1l-2.5-5.5c-2-4.5-6.7-7.1-11.6-6.6
	l-6,0.7C4.6,79.8-1.8,68.8,3.9,60.8L7.4,56c2.9-4,2.8-9.4-0.1-13.3l-3.6-4.8C-2.1,30,4.2,18.9,13.9,19.9l6,0.6
	c4.9,0.5,9.5-2.2,11.5-6.7l2.4-5.5c3.9-9,16.6-9.1,20.6-0.1l2.5,5.5C58.9,18.1,63.5,20.8,68.4,20.2z"/>
<g>
	<g>
		<path class="st1" d="M44.6,29.9h6.2c0.2,0,0.3,0.1,0.4,0.2c0.1,0.1,0.2,0.3,0.2,0.4v34.5c0,0.2-0.1,0.3-0.2,0.4
			c-0.1,0.1-0.3,0.2-0.4,0.2h-6c-0.2,0-0.3-0.1-0.4-0.2c-0.1-0.1-0.2-0.3-0.2-0.4v-28c0-0.1,0-0.1-0.1-0.2c-0.1-0.1-0.1-0.1-0.2-0.1
			l-5.1,1.4l-0.2,0.1c-0.3,0-0.5-0.2-0.5-0.6L38,33.3c0-0.3,0.2-0.6,0.5-0.7l5.4-2.5C44,30,44.3,29.9,44.6,29.9z"/>
	</g>
</g>
<g>
</g>
<g>
</g>
<g>
</g>
<g>
</g>
<g>
</g>
<g>
</g>
<g>
</g>
<g>
</g>
<g>
</g>
<g>
</g>
<g>
</g>
<g>
</g>
<g>
</g>
<g>
</g>
<g>
</g>
</svg>
