<?xml version="1.0" encoding="utf-8"?>
<!-- Generator: Adobe Illustrator 24.0.1, SVG Export Plug-In . SVG Version: 6.00 Build 0)  -->
<svg version="1.1" id="Layer_1" xmlns="http://www.w3.org/2000/svg" xmlns:xlink="http://www.w3.org/1999/xlink" x="0px" y="0px"
	 viewBox="0 0 88.7 98.1" style="enable-background:new 0 0 88.7 98.1;" xml:space="preserve">
<style type="text/css">
	.st0{fill:#FFFFFF;stroke:#FFFFFF;stroke-width:3;stroke-miterlimit:10;}
	.st1{fill:#FFFFFF;stroke:#CB4F4C;stroke-miterlimit:10;}
</style>
<path class="st0" d="M68.4,20.2l6-0.7c9.7-1.1,16.2,9.8,10.4,17.8l-3.5,4.9c-2.9,4-2.8,9.4,0.1,13.3l3.6,4.8
	c5.8,7.9-0.4,18.9-10.2,17.9l-6-0.6c-4.9-0.5-9.5,2.2-11.5,6.7L55,89.8c-3.9,9-16.6,9.1-20.6,0.1l-2.5-5.5c-2-4.5-6.7-7.1-11.6-6.6
	l-6,0.7C4.6,79.8-1.8,68.8,3.9,60.8L7.4,56c2.9-4,2.8-9.4-0.1-13.3l-3.6-4.8C-2.1,30,4.2,18.9,13.9,19.9l6,0.6
	c4.9,0.5,9.5-2.2,11.5-6.7l2.4-5.5c3.9-9,16.6-9.1,20.6-0.1l2.5,5.5C58.9,18.1,63.5,20.8,68.4,20.2z"/>
<path class="st1" d="M62.4,33.9l-4.6-4.6c-1.2-1.2-2.7-1.9-4.4-2.1v0H35.9c-1.3,0-2.5,0.5-3.4,1.4c-0.9,0.9-1.4,2.1-1.4,3.4v7.2
	c0,0.4,0.2,0.8,0.5,1.1c0.3,0.3,0.7,0.5,1.1,0.5s0.8-0.2,1.1-0.5c0.3-0.3,0.5-0.7,0.5-1.1v-7.2c0-0.4,0.2-0.8,0.5-1.1
	c0.3-0.3,0.7-0.5,1.1-0.5h15.9v4.8c0,1.3,0.5,2.5,1.4,3.4c0.9,0.9,2.1,1.4,3.4,1.4h4.8v27.1c0,0.4-0.2,0.8-0.5,1.1
	c-0.3,0.3-0.7,0.5-1.1,0.5H35.9c-0.4,0-0.8-0.2-1.1-0.5c-0.3-0.3-0.5-0.7-0.5-1.1v-2.4h19.1c1.3,0,2.5-0.5,3.4-1.4
	c0.9-0.9,1.4-2.1,1.4-3.4V48.6c0-1.3-0.5-2.5-1.4-3.4c-0.9-0.9-2.1-1.4-3.4-1.4H26.4c-1.3,0-2.5,0.5-3.4,1.4
	c-0.9,0.9-1.4,2.1-1.4,3.4v11.1c0,1.3,0.5,2.5,1.4,3.4c0.9,0.9,2.1,1.4,3.4,1.4h4.8v2.4c0,1.3,0.5,2.5,1.4,3.4
	c0.9,0.9,2.1,1.4,3.4,1.4h23.9c1.3,0,2.5-0.5,3.4-1.4c0.9-0.9,1.4-2.1,1.4-3.4V39.1C64.6,37.1,63.8,35.2,62.4,33.9L62.4,33.9z
	 M56.6,36.7c-0.4,0-0.8-0.2-1.1-0.5c-0.3-0.3-0.5-0.7-0.5-1.1v-4c0.2,0.1,0.4,0.3,0.6,0.5l4.6,4.6c0.2,0.2,0.3,0.3,0.4,0.5
	L56.6,36.7z M45.3,50.9c0-0.1,0-0.1,0.1-0.2c0,0,0.1-0.1,0.1-0.1h4.4c0.1,0,0.2,0.1,0.2,0.2v1c0,0.1,0,0.1-0.1,0.2
	c0,0-0.1,0.1-0.2,0.1h-2.8v1.3h2.7c0.1,0,0.2,0.1,0.2,0.2v1c0,0.1,0,0.1-0.1,0.2c0,0-0.1,0.1-0.2,0.1h-2.7v2.1c0,0.1,0,0.1-0.1,0.2
	c0,0-0.1,0.1-0.2,0.1h-1.4c-0.1,0-0.2-0.1-0.2-0.2L45.3,50.9z M37.4,50.9L37.4,50.9c0-0.1,0-0.1,0.1-0.2c0,0,0.1-0.1,0.2-0.1h2.5
	c0.8,0,1.6,0.2,2.2,0.7c0.5,0.5,0.8,1.2,0.8,1.9V54v0.7c-0.1,1.7-1.1,2.6-2.9,2.6h-2.6c-0.1,0-0.2-0.1-0.2-0.2L37.4,50.9z
	 M31.9,55.1l0,2.1c0,0.1,0,0.1-0.1,0.2c0,0-0.1,0.1-0.2,0.1h-1.4c-0.1,0-0.2-0.1-0.2-0.2v-6.2c0-0.1,0-0.1,0.1-0.2
	c0,0,0.1-0.1,0.2-0.1H33c0.7,0,1.4,0.2,1.9,0.6c0.5,0.4,0.7,1,0.7,1.7c0,0.6-0.2,1.2-0.7,1.6c-0.6,0.4-1.3,0.6-1.9,0.5L31.9,55.1z"
	/>
<g>
</g>
<g>
</g>
<g>
</g>
<g>
</g>
<g>
</g>
<g>
</g>
<g>
</g>
<g>
</g>
<g>
</g>
<g>
</g>
<g>
</g>
<g>
</g>
<g>
</g>
<g>
</g>
<g>
</g>
</svg>
