<?xml version="1.0" encoding="utf-8"?>
<!-- Generator: Adobe Illustrator 24.0.1, SVG Export Plug-In . SVG Version: 6.00 Build 0)  -->
<svg version="1.1" id="Layer_1" xmlns="http://www.w3.org/2000/svg" xmlns:xlink="http://www.w3.org/1999/xlink" x="0px" y="0px"
	 viewBox="0 0 88.7 98.1" style="enable-background:new 0 0 88.7 98.1;" xml:space="preserve">
<style type="text/css">
	.st0{fill:#FFFFFF;stroke:#FFFFFF;stroke-width:3;stroke-miterlimit:10;}
	.st1{fill:#CB4F4C;}
</style>
<path class="st0" d="M68.4,20.2l6-0.7c9.7-1.1,16.2,9.8,10.4,17.8l-3.5,4.9c-2.9,4-2.8,9.4,0.1,13.3l3.6,4.8
	c5.8,7.9-0.4,18.9-10.2,17.9l-6-0.6c-4.9-0.5-9.5,2.2-11.5,6.7L55,89.8c-3.9,9-16.6,9.1-20.6,0.1l-2.5-5.5c-2-4.5-6.7-7.1-11.6-6.6
	l-6,0.7C4.6,79.8-1.8,68.8,3.9,60.8L7.4,56c2.9-4,2.8-9.4-0.1-13.3l-3.6-4.8C-2.1,30,4.2,18.9,13.9,19.9l6,0.6
	c4.9,0.5,9.5-2.2,11.5-6.7l2.4-5.5c3.9-9,16.6-9.1,20.6-0.1l2.5,5.5C58.9,18.1,63.5,20.8,68.4,20.2z"/>
<g>
	<g>
		<path class="st1" d="M42.8,59.4c0,0.1,0.1,0.1,0.2,0.1h13.8c0.2,0,0.3,0.1,0.4,0.2c0.1,0.1,0.2,0.3,0.2,0.4v5
			c0,0.2-0.1,0.3-0.2,0.4c-0.1,0.1-0.3,0.2-0.4,0.2h-23c-0.2,0-0.3-0.1-0.4-0.2c-0.1-0.1-0.2-0.3-0.2-0.4v-4.7
			c0-0.3,0.1-0.6,0.3-0.8c1.7-1.6,3.4-3.4,5.1-5.3s2.8-3.1,3.3-3.6c1-1.1,1.9-2.2,2.9-3.2c3.1-3.4,4.6-6,4.6-7.7
			c0-1.2-0.4-2.2-1.3-2.9c-0.9-0.8-2-1.1-3.3-1.1c-1.4,0-2.5,0.4-3.3,1.1c-0.9,0.8-1.3,1.8-1.3,3v1.3c0,0.2-0.1,0.3-0.2,0.4
			c-0.1,0.1-0.3,0.2-0.4,0.2h-6c-0.2,0-0.3-0.1-0.4-0.2c-0.1-0.1-0.2-0.3-0.2-0.4v-2.4c0.1-1.8,0.7-3.5,1.7-4.9
			c1.1-1.4,2.5-2.5,4.2-3.2c1.8-0.7,3.7-1.1,5.9-1.1c2.4,0,4.5,0.5,6.3,1.4c1.8,0.9,3.2,2.1,4.1,3.7c1,1.5,1.5,3.2,1.5,5.1
			c0,1.4-0.4,2.9-1.1,4.4c-0.7,1.5-1.8,3.1-3.2,4.9c-1.1,1.3-2.2,2.6-3.4,3.9s-3,3.2-5.5,5.6l-0.8,0.8
			C42.8,59.3,42.7,59.3,42.8,59.4z"/>
	</g>
</g>
<g>
</g>
<g>
</g>
<g>
</g>
<g>
</g>
<g>
</g>
<g>
</g>
<g>
</g>
<g>
</g>
<g>
</g>
<g>
</g>
<g>
</g>
<g>
</g>
<g>
</g>
<g>
</g>
<g>
</g>
</svg>
