<?xml version="1.0" encoding="utf-8"?>
<!-- Generator: Adobe Illustrator 24.0.1, SVG Export Plug-In . SVG Version: 6.00 Build 0)  -->
<svg version="1.1" id="Layer_1" xmlns="http://www.w3.org/2000/svg" xmlns:xlink="http://www.w3.org/1999/xlink" x="0px" y="0px"
	 viewBox="0 0 33.1 29.6" style="enable-background:new 0 0 33.1 29.6;" xml:space="preserve">
<style type="text/css">
	.st0{fill:#FFFFFF;}
	.st1{opacity:0.51;fill:none;stroke:#FFFFFF;stroke-miterlimit:10;}
</style>
<g>
	<g>
		<path class="st0" d="M12.7,19.3l-0.6-1.1c0.2-0.5,0.4-1,0.6-1.5c0.2-0.5,0.4-0.9,0.6-1.4c0.2-0.5,0.4-0.9,0.6-1.4s0.4-0.9,0.5-1.3
			s0.4-0.9,0.6-1.4s0.4-0.9,0.6-1.4c0.2-0.5,0.4-1,0.6-1.5H17l1.7,1c-0.2,0.4-0.4,0.8-0.6,1.1c-0.2,0.4-0.3,0.7-0.5,1
			c-0.2,0.3-0.3,0.7-0.5,1c-0.2,0.3-0.3,0.7-0.5,1c-0.2,0.3-0.3,0.7-0.5,1c-0.2,0.4-0.4,0.7-0.6,1.1l-0.8,1.5h7.5v2H12.7z M18,21.9
			v-4.7l0.3-3.8h2.2v8.5H18z"/>
	</g>
	<path class="st1" d="M16.6,4.1c0.5-0.5,1.1-0.9,1.6-1.4c1.3-1.1,2.7-1.8,4.3-2c2.4-0.3,4.6,0.3,6.5,1.9c1.9,1.6,3,3.6,3.4,6
		c0.5,3-0.1,5.8-1.9,8.3C30,17.5,29.5,18,29,18.5c-3.9,3.4-7.8,6.7-11.8,10C17,28.7,16.8,29,16.6,29c-0.2,0-0.4-0.3-0.6-0.4
		C12,25.1,8,21.8,4.1,18.4c-1.7-1.5-2.8-3.4-3.2-5.6c-0.6-3.2,0-6.1,2-8.7c1.3-1.7,3-2.8,5.2-3.2c2.5-0.5,4.8,0.2,6.7,1.8
		C15.3,3,15.9,3.5,16.4,4C16.5,4,16.5,4,16.6,4.1z"/>
</g>
<g>
</g>
<g>
</g>
<g>
</g>
<g>
</g>
<g>
</g>
<g>
</g>
<g>
</g>
<g>
</g>
<g>
</g>
<g>
</g>
<g>
</g>
<g>
</g>
<g>
</g>
<g>
</g>
<g>
</g>
</svg>
