<?xml version="1.0" encoding="utf-8"?>
<!-- Generator: Adobe Illustrator 24.0.2, SVG Export Plug-In . SVG Version: 6.00 Build 0)  -->
<svg version="1.1" id="Camada_1" xmlns="http://www.w3.org/2000/svg" xmlns:xlink="http://www.w3.org/1999/xlink" x="0px" y="0px"
	 viewBox="0 0 290 132.55" style="enable-background:new 0 0 290 132.55;" xml:space="preserve">
<style type="text/css">
	.st0{fill:#FFF8D9;}
	.st1{fill:#DBA723;}
	.st2{fill:#F9E8A5;}
	.st3{font-family:'Livvic-Black';}
	.st4{font-size:5.5298px;}
	.st5{fill:#545454;}
	.st6{font-family:'Livvic-SemiBold';}
</style>
<g>
	<path class="st0" d="M198.88,66.93c0.23,3.75,0.27,7.51,0.15,11.24c-0.21,6.61-0.93,13.38-3.88,19.31
		c-6.43,12.97-20.03,17.47-32.56,22.3c-4.24,1.64-8.39,3.51-12.7,4.98c-3.93,1.34-8.2,2.06-12.27,3.02
		c-8.84,2.08-17.84,3.44-26.89,4.07c-11.65,0.81-22.83-0.36-34.41-1.16c-4.93-0.34-9.86-0.68-14.79-1.02
		c-4.47-0.31-8.94-0.62-13.38-1.23c-3.47-0.48-6.79-1.9-10.1-3.07c-7.13-2.51-13.97-5.92-19.66-10.95
		C5.06,102.64-1.82,83.96,1.05,66.38c1.94-11.85,6.03-23.45,12.47-33.61c4.01-6.33,6.98-10.89,13.68-14.23
		c7.86-3.92,15.91-7.48,24.19-10.41C65.88,3.01,81.18-0.12,96.6,0.48c15.04,0.58,29.55,3.78,44.48,6.23
		c15.51,2.54,40.98,10.58,48.96,25.33C195.66,42.45,198.16,55.26,198.88,66.93z"/>
	<path class="st1" d="M102.45,132.55c-6.78,0-13.44-0.5-20.38-1.02c-1.92-0.14-3.84-0.29-5.77-0.42l-14.79-1.02
		c-4.43-0.31-8.97-0.62-13.41-1.23c-2.81-0.39-5.53-1.39-8.17-2.36c-0.67-0.25-1.34-0.49-2.01-0.73c-8.19-2.89-14.67-6.5-19.8-11.03
		C4.64,102.82-2.22,83.82,0.64,66.31C2.66,53.97,6.99,42.3,13.17,32.55c3.87-6.11,6.93-10.93,13.84-14.38
		c8.63-4.31,16.56-7.72,24.23-10.43C67.21,2.1,82.47-0.48,96.61,0.07c11.55,0.45,23.02,2.48,34.11,4.44
		c3.41,0.6,6.93,1.23,10.42,1.8c17.94,2.94,41.61,11.39,49.26,25.54c6.28,11.6,8.3,25.46,8.9,35.05c0.22,3.61,0.28,7.41,0.15,11.28
		c-0.2,6.12-0.81,13.22-3.92,19.48c-6.1,12.3-18.45,17.02-30.4,21.59c-0.79,0.3-1.59,0.61-2.38,0.91c-1.57,0.61-3.15,1.25-4.68,1.88
		c-2.61,1.07-5.31,2.18-8.03,3.11c-2.81,0.96-5.83,1.61-8.75,2.24c-1.2,0.26-2.39,0.51-3.57,0.79c-8.83,2.08-17.9,3.45-26.96,4.08
		C107.96,132.47,105.2,132.55,102.45,132.55z M92.86,0.83c-12.98,0-26.86,2.58-41.34,7.7c-7.64,2.7-15.54,6.1-24.14,10.39
		C20.67,22.26,17.67,27,13.87,33C7.75,42.65,3.46,54.21,1.46,66.45c-2.81,17.23,3.93,35.94,17.19,47.66
		c5.05,4.46,11.44,8.02,19.53,10.87c0.67,0.24,1.35,0.49,2.02,0.73c2.6,0.96,5.28,1.94,8,2.32c4.41,0.61,8.94,0.92,13.31,1.22
		l14.84,1.03c1.94,0.13,3.86,0.28,5.78,0.42c9.72,0.73,18.91,1.42,28.58,0.74c9.02-0.63,18.04-2,26.83-4.06
		c1.18-0.28,2.38-0.54,3.58-0.79c2.89-0.62,5.88-1.26,8.65-2.21c2.7-0.92,5.39-2.03,7.99-3.09c1.53-0.63,3.12-1.28,4.7-1.89
		c0.79-0.31,1.58-0.61,2.38-0.91c11.8-4.51,24-9.18,29.96-21.19c3.03-6.12,3.64-13.11,3.83-19.14c0.12-3.84,0.07-7.61-0.15-11.2
		c-0.59-9.5-2.6-23.24-8.8-34.71C181.64,17.39,155.3,9.47,141,7.13c-3.5-0.57-7.02-1.2-10.43-1.8c-11.06-1.96-22.5-3.98-34-4.43
		C95.35,0.85,94.11,0.83,92.86,0.83z"/>
</g>
<g>
	<path class="st0" d="M289.37,66.93c0.23,3.75,0.27,7.51,0.15,11.24c-0.21,6.61-0.93,13.38-3.88,19.31
		c-5.89,11.85-20.05,18.78-32.14,22.3c-12.14,3.53-24.3,7.06-36.76,9.16c-23.52,3.97-46.02,0.6-69.38-1.35
		c-6.96-0.58-13.98-1.17-20.66-3.18c-24.28-7.28-39.16-33.54-35.16-58.03c1.51-9.26,4.22-15.25,8.83-23.12
		c4.46-7.62,7.26-16.39,13.88-22.56c4.65-4.34,10.7-6.86,16.68-9.06c23.59-8.71,49.2-11.53,74.2-9.5
		c22.42,1.82,50.32,6.47,68.16,21.29c2.91,2.42,5.42,5.29,7.23,8.63C286.15,42.45,288.64,55.26,289.37,66.93z"/>
	<path class="st1" d="M193.11,131.21c-11.28,0-22.49-1.06-34.08-2.15c-3.82-0.36-7.78-0.73-11.7-1.06c-6.88-0.57-14-1.17-20.75-3.19
		c-11.7-3.51-21.8-11.59-28.42-22.75c-6.51-10.96-9-23.65-7.03-35.74c1.54-9.42,4.31-15.45,8.88-23.26c1.35-2.3,2.57-4.76,3.74-7.13
		c2.73-5.49,5.55-11.18,10.21-15.53c4.82-4.49,11.21-7.08,16.82-9.15C153.4,2.9,179.12-0.4,205.16,1.72
		c31.81,2.59,54.18,9.58,68.39,21.38c3.13,2.6,5.6,5.55,7.33,8.75c6.28,11.6,8.3,25.47,8.9,35.05c0.22,3.62,0.28,7.41,0.15,11.28
		c-0.2,6.12-0.81,13.22-3.92,19.48c-6.62,13.32-23.14,19.82-32.39,22.51c-11.95,3.47-24.31,7.06-36.81,9.17
		C208.78,130.7,200.93,131.21,193.11,131.21z M189.84,1.92c-20.63,0-40.69,3.43-58.77,10.1c-5.53,2.04-11.83,4.59-16.54,8.98
		c-4.56,4.25-7.34,9.86-10.03,15.29c-1.18,2.39-2.41,4.86-3.77,7.18c-4.52,7.73-7.26,13.68-8.78,22.98
		c-4.04,24.76,11.6,50.59,34.87,57.56c6.67,2,13.74,2.59,20.58,3.16c3.93,0.33,7.88,0.7,11.71,1.06
		c19.57,1.84,38.05,3.59,57.57,0.29c12.45-2.1,24.79-5.68,36.72-9.15c9.12-2.65,25.4-9.05,31.88-22.08
		c3.03-6.12,3.64-13.11,3.83-19.14c0.12-3.84,0.07-7.61-0.15-11.2c-0.59-9.5-2.6-23.24-8.8-34.71c-1.68-3.11-4.08-5.98-7.13-8.51
		C258.96,12.04,236.74,5.11,205.1,2.54C199.99,2.13,194.9,1.92,189.84,1.92z"/>
</g>
<g>
	<path class="st2" d="M190.03,32.05C182.5,18.13,159.4,10.19,143.78,7.2c-4.32,1.38-8.61,2.86-12.85,4.43
		c-5.98,2.21-12.03,4.73-16.68,9.06c-6.62,6.17-9.42,14.95-13.88,22.56c-4.61,7.87-7.32,13.86-8.83,23.12
		c-4,24.49,10.88,50.75,35.16,58.03c5.12,1.54,10.44,2.24,15.78,2.75c6.69-2.13,13.28-4.73,20.12-7.37
		c12.53-4.84,26.13-9.33,32.56-22.3c2.94-5.94,3.66-12.7,3.88-19.31c0.12-3.73,0.08-7.49-0.15-11.24
		C198.16,55.26,195.66,42.45,190.03,32.05z"/>
	<path class="st1" d="M142.52,127.58l-0.08-0.01c-4.81-0.46-10.45-1.14-15.86-2.76c-11.7-3.51-21.8-11.59-28.42-22.75
		c-6.51-10.96-9-23.65-7.03-35.74c1.54-9.42,4.31-15.45,8.88-23.26c1.35-2.3,2.57-4.76,3.74-7.13c2.73-5.49,5.55-11.18,10.21-15.53
		c4.82-4.49,11.21-7.08,16.82-9.15c4.33-1.6,8.66-3.09,12.87-4.44l0.1-0.03l0.1,0.02c17.79,3.4,39.35,11.77,46.54,25.06
		c6.28,11.6,8.3,25.46,8.9,35.05c0.22,3.61,0.28,7.41,0.15,11.28c-0.2,6.12-0.81,13.22-3.92,19.48c-6.1,12.3-18.45,17.02-30.4,21.59
		c-0.79,0.3-1.59,0.61-2.38,0.91l-2.11,0.82c-6.18,2.39-12.02,4.65-18.03,6.57L142.52,127.58z M143.81,7.63
		c-4.17,1.33-8.45,2.81-12.74,4.39c-5.53,2.04-11.83,4.59-16.54,8.98c-4.56,4.25-7.34,9.86-10.03,15.29
		c-1.18,2.39-2.41,4.86-3.77,7.18c-4.52,7.73-7.26,13.68-8.78,22.98c-4.04,24.76,11.6,50.59,34.87,57.56
		c5.31,1.59,10.87,2.27,15.62,2.73c5.96-1.9,11.76-4.15,17.9-6.52l2.11-0.82c0.79-0.31,1.58-0.61,2.38-0.91
		c11.8-4.51,24-9.18,29.96-21.19c3.03-6.12,3.64-13.11,3.83-19.14c0.12-3.84,0.07-7.61-0.15-11.2c-0.59-9.5-2.6-23.24-8.8-34.71l0,0
		C182.63,19.24,161.39,11.01,143.81,7.63z"/>
</g>
<g>
	<text transform="matrix(1 0 0 1 65.5277 15.6277)" class="st1 st3 st4">Temas </text>
	<text transform="matrix(1 0 0 1 48.1877 22.2677)" class="st1 st3 st4">Pais ou Responsáveis</text>
</g>
<g>
	<text transform="matrix(1 0 0 1 137.8383 20.866)" class="st1 st3 st4">Temas </text>
	<text transform="matrix(1 0 0 1 135.9883 27.506)" class="st1 st3 st4">Famílias</text>
</g>
<text transform="matrix(1 0 0 1 21.9833 42.4324)" class="st5 st6 st4">1. Amor e Limites.</text>
<text transform="matrix(1 0 0 1 21.9833 49.0724)" class="st5 st6 st4">2. Fazendo as regras de casa.</text>
<text transform="matrix(1 0 0 1 21.9833 55.7024)" class="st5 st6 st4">3. Incentivando o bom</text>
<text transform="matrix(1 0 0 1 21.9833 62.3424)" class="st5 st6 st4">comportamento.</text>
<text transform="matrix(1 0 0 1 21.9833 68.9724)" class="st5 st6 st4">4. Usando consequências.</text>
<text transform="matrix(1 0 0 1 21.9833 75.6124)" class="st5 st6 st4">5. Construindo pontes.</text>
<text transform="matrix(1 0 0 1 21.9833 82.2424)" class="st5 st6 st4">6. Protegendo contra o</text>
<text transform="matrix(1 0 0 1 21.9833 88.8824)" class="st5 st6 st4">abuso de susbtâncias.</text>
<text transform="matrix(1 0 0 1 21.9833 95.5224)" class="st5 st6 st4">7. Obtendo ajuda para</text>
<text transform="matrix(1 0 0 1 21.9833 102.1524)" class="st5 st6 st4">necessidades especiais da</text>
<text transform="matrix(1 0 0 1 21.9833 108.7924)" class="st5 st6 st4">família.</text>
<g>
	<text transform="matrix(1 0 0 1 187.2196 15.6277)" class="st1 st3 st4">Temas Filhos</text>
</g>
<g>
	<text transform="matrix(1 0 0 1 201.7538 42.4324)" class="st5 st6 st4">1. Tendo metas e sonhos.</text>
	<text transform="matrix(1 0 0 1 201.7538 49.0724)" class="st5 st6 st4">2. Admirando os pais.</text>
	<text transform="matrix(1 0 0 1 201.7538 55.7024)" class="st5 st6 st4">3. Lidando com o estresse.</text>
	<text transform="matrix(1 0 0 1 201.7538 62.3424)" class="st5 st6 st4">4. Seguindo regras.</text>
	<text transform="matrix(1 0 0 1 201.7538 68.9724)" class="st5 st6 st4">5. Lidando com a pressão dos</text>
	<text transform="matrix(1 0 0 1 201.7538 75.6124)" class="st5 st6 st4">pares.</text>
	<text transform="matrix(1 0 0 1 201.7538 82.2424)" class="st5 st6 st4">6. Pressão dos amigos e bons</text>
	<text transform="matrix(1 0 0 1 201.7538 88.8824)" class="st5 st6 st4">amigos.</text>
	<text transform="matrix(1 0 0 1 201.7538 95.5224)" class="st5 st6 st4">7. Ajudando os outros.</text>
</g>
<g>
	<text transform="matrix(1 0 0 1 119.0897 35.7967)" class="st5 st6 st4">1. Apoiando metas e </text>
	<text transform="matrix(1 0 0 1 119.0897 42.4367)" class="st5 st6 st4">sonhos.</text>
	<text transform="matrix(1 0 0 1 119.0897 49.0667)" class="st5 st6 st4">2. Admirando os membros </text>
	<text transform="matrix(1 0 0 1 119.0897 55.7067)" class="st5 st6 st4">da família.</text>
	<text transform="matrix(1 0 0 1 119.0897 62.3367)" class="st5 st6 st4">3. Usando os momentos </text>
	<text transform="matrix(1 0 0 1 119.0897 68.9767)" class="st5 st6 st4">de família.</text>
	<text transform="matrix(1 0 0 1 119.0897 75.6067)" class="st5 st6 st4">4. Compreendendo os </text>
	<text transform="matrix(1 0 0 1 119.0897 82.2467)" class="st5 st6 st4">valores familiares.</text>
	<text transform="matrix(1 0 0 1 119.0897 88.8867)" class="st5 st6 st4">5. Fortalecendo a </text>
	<text transform="matrix(1 0 0 1 119.0897 95.5167)" class="st5 st6 st4">comunicação familiar.</text>
	<text transform="matrix(1 0 0 1 119.0897 102.1567)" class="st5 st6 st4">6. Família e pressão </text>
	<text transform="matrix(1 0 0 1 119.0897 108.7867)" class="st5 st6 st4">dos amigos.</text>
	<text transform="matrix(1 0 0 1 119.0897 115.4267)" class="st5 st6 st4">7. Juntando tudo.</text>
</g>
</svg>
