<?xml version="1.0" encoding="utf-8"?>
<!-- Generator: Adobe Illustrator 26.2.1, SVG Export Plug-In . SVG Version: 6.00 Build 0)  -->
<svg version="1.1" id="Layer_1" xmlns="http://www.w3.org/2000/svg" xmlns:xlink="http://www.w3.org/1999/xlink" x="0px" y="0px"
	 viewBox="0 0 253 294" style="enable-background:new 0 0 253 294;" xml:space="preserve">
<style type="text/css">
	.st0{fill:#F9E1E4;}
	.st1{fill:#D9525B;}
	.st2{fill:#BCCF53;}
	.st3{fill:#99A843;}
	.st4{fill:#212121;}
	.st5{opacity:0.3;}
	.st6{font-family:'Barlow-ExtraBold';}
	.st7{font-size:45.7084px;}
</style>
<g id="XMLID_00000111181311958407609390000000124677260798123419_">
	<g id="XMLID_00000116196865604244412020000014975720395984425107_">
		<path class="st0" d="M216.15,294.4H36.36c-20.13,0-36.45-16.32-36.45-36.45V78.16c0-20.13,16.32-36.45,36.45-36.45h179.79
			c20.13,0,36.45,16.32,36.45,36.45v179.79C252.6,278.08,236.28,294.4,216.15,294.4z"/>
	</g>
	<g id="XMLID_00000157287919350319678340000016948374110015658675_">
		<path class="st1" d="M215.52,41.71H36.99c-20.48,0-37.08,16.6-37.08,37.08v38.74H252.6V78.79C252.6,58.31,236,41.71,215.52,41.71z
			"/>
	</g>
	<g id="XMLID_00000169526949524824510040000017745880012707720338_">
		<g id="XMLID_00000080890160179959797660000010872650275184637078_">
			<path class="st2" d="M57.54,77.36c0,10.62-8.61,19.23-19.23,19.23c-10.62,0-19.22-8.61-19.22-19.23
				c0-10.62,8.61-19.23,19.22-19.23C48.93,58.14,57.54,66.75,57.54,77.36z"/>
		</g>
		<g id="XMLID_00000130611422221851859810000005731998658144820405_">
			<path class="st3" d="M51.45,77.36c0,7.25-5.88,13.13-13.13,13.13c-7.25,0-13.13-5.88-13.13-13.13c0-7.25,5.88-13.13,13.13-13.13
				C45.57,64.23,51.45,70.11,51.45,77.36z"/>
		</g>
	</g>
	<g id="XMLID_00000040573093887635356710000018064744389044238729_">
		<g id="XMLID_00000158716463683592609580000011341525397484653481_">
			<path class="st2" d="M174.03,77.36c0,10.62-8.61,19.23-19.23,19.23c-10.62,0-19.23-8.61-19.23-19.23
				c0-10.62,8.61-19.23,19.23-19.23C165.42,58.14,174.03,66.75,174.03,77.36z"/>
		</g>
		<g id="XMLID_00000103982740673103870600000006288220645470650273_">
			<path class="st3" d="M167.94,77.36c0,7.25-5.88,13.13-13.13,13.13c-7.25,0-13.13-5.88-13.13-13.13c0-7.25,5.88-13.13,13.13-13.13
				C162.06,64.23,167.94,70.11,167.94,77.36z"/>
		</g>
	</g>
	<g id="XMLID_00000124873929762526612680000005001294135678311090_">
		<g id="XMLID_00000028310566164603469220000000122840116702585782_">
			<path class="st4" d="M154.2,82L154.2,82c-5.68,0-10.28-4.6-10.28-10.28V36.87c0-18.18,13.26-34.45,31.35-36.22
				c20.76-2.03,38.31,14.31,38.31,34.66v6.4h-20.56v-5.56c0-7.47-5.36-14.28-12.79-15.04c-8.54-0.87-15.77,5.84-15.77,14.2v36.41
				C164.48,77.4,159.88,82,154.2,82z"/>
		</g>
	</g>
	<g id="XMLID_00000046307517437578899960000006819796515359571346_">
		<g id="XMLID_00000003080628353508188740000014460450710157243287_">
			<path class="st4" d="M37.71,82L37.71,82c-5.68,0-10.28-4.6-10.28-10.28V36.87c0-18.18,13.26-34.45,31.35-36.22
				C79.54-1.38,97.1,14.96,97.1,35.31v6.4H76.54v-5.56c0-7.47-5.36-14.28-12.78-15.04c-8.54-0.87-15.77,5.84-15.77,14.2v36.41
				C47.99,77.4,43.39,82,37.71,82z"/>
		</g>
	</g>
	<g id="XMLID_00000126310197579112650610000008975785107461532823_" class="st5">
		<path id="XMLID_00000129916652033725732800000017537552565154576821_" class="st4" d="M215.52,41.71h-18.41
			c20.48,0,37.08,16.6,37.08,37.08v178.53c0,20.48-16.6,37.08-37.08,37.08h18.41c20.48,0,37.08-16.6,37.08-37.08V78.79
			C252.6,58.31,236,41.71,215.52,41.71z"/>
	</g>
</g>
<text transform="matrix(1 0 0 1 17.8107 208.8176)" class="st6 st7">23/05/22</text>
</svg>
