<?xml version="1.0" encoding="utf-8"?>
<!-- Generator: Adobe Illustrator 24.0.2, SVG Export Plug-In . SVG Version: 6.00 Build 0)  -->
<svg version="1.1" id="Camada_1" xmlns="http://www.w3.org/2000/svg" xmlns:xlink="http://www.w3.org/1999/xlink" x="0px" y="0px"
	 viewBox="0 0 290 489.74" style="enable-background:new 0 0 290 489.74;" xml:space="preserve">
<style type="text/css">
	.st0{fill:#DBA723;}
	.st1{enable-background:new    ;}
	.st2{fill:#FFFFFF;}
	.st3{display:none;}
</style>
<g id="refs">
</g>
<g id="Camada_4">
	<path class="st0" d="M289.38,50.34c-1.21-6.38-0.84-13-0.47-19.4c0.19-3.43,0.39-6.98,0.35-10.47c-0.06-4.76-0.57-9.72-5.98-13.33
		c-5.06-3.38-13.08-4.61-19.52-5.6c-12.01-1.84-23.63-1.62-35.94-1.39c-2.86,0.05-5.82,0.11-8.75,0.14h-0.21
		c-13.77,0.13-64.54,0.26-78.54,0.26c-31.39,0-62.05,0.61-93.28,1.32C1.71,2.89,10.54,24.1,6.42,39.68
		c-2.9,10.96-15.47,25.4,5.29,34.46c9.69,4.23,23.98,4.77,37.11,4.92c32.68,0.38,65.48,0.31,98.16,0.42
		c32.29,0.11,63.41,1.67,95.77-1c10.82-0.89,21.81-2.14,30.91-5.06C290.5,68.01,291.03,59.06,289.38,50.34z"/>
	<g>
		<g class="st1">
			<path class="st2" d="M45.79,51.6l11.64-27.27h4.23L72.83,51.6h-5.07l-2.46-6.22H53.39l-2.54,6.22H45.79z M55.12,41.19h8.57
				l-4.23-10.72L55.12,41.19z"/>
			<path class="st2" d="M81.09,51.95c-2.15,0-3.77-0.73-4.86-2.19c-1.09-1.46-1.62-3.48-1.59-6.07l0.08-11.49h4.69l-0.08,11.06
				c-0.03,1.33,0.21,2.38,0.69,3.15c0.49,0.77,1.25,1.15,2.3,1.15c0.82,0,1.58-0.24,2.29-0.73c0.7-0.49,1.31-1.31,1.82-2.48
				s0.92-2.74,1.21-4.72c0.29-1.98,0.44-4.46,0.44-7.43h4.53v19.4h-4.72l0.27-4.42c-0.77,1.56-1.76,2.75-2.98,3.55
				C83.96,51.55,82.6,51.95,81.09,51.95z"/>
			<path class="st2" d="M105.82,51.95c-2.33,0-4.14-0.64-5.44-1.92c-1.29-1.28-1.93-2.96-1.9-5.03l0.15-8.87h-3.3v-3.92h3.38
				l0.04-3.99h4.69l-0.08,3.99h6.34v3.92h-6.38l-0.12,8.37c-0.03,1.05,0.24,1.88,0.79,2.48c0.55,0.6,1.38,0.9,2.48,0.9
				c0.59,0,1.14-0.08,1.65-0.23c0.51-0.15,1.05-0.44,1.61-0.84l1.38,3.61c-0.59,0.51-1.34,0.9-2.27,1.15
				C107.94,51.82,106.92,51.95,105.82,51.95z"/>
			<path class="st2" d="M121.88,31.9c2.89,0,5.17,0.86,6.82,2.59c1.65,1.73,2.48,4.07,2.48,7.01c0,2-0.42,3.78-1.25,5.36
				c-0.83,1.57-2,2.82-3.51,3.73c-1.51,0.91-3.27,1.36-5.26,1.36c-2.89,0-5.17-0.86-6.82-2.57s-2.48-4.06-2.48-7.03
				c0-2,0.42-3.78,1.25-5.36c0.83-1.57,2-2.82,3.5-3.73C118.1,32.35,119.86,31.9,121.88,31.9z M121.3,47.84
				c1.51,0,2.73-0.58,3.65-1.73c0.92-1.15,1.38-2.69,1.38-4.61c0-1.74-0.4-3.09-1.21-4.03s-1.91-1.42-3.32-1.42
				c-1.56,0-2.8,0.58-3.73,1.73c-0.92,1.15-1.38,2.68-1.38,4.57c0,1.74,0.4,3.09,1.21,4.05C118.71,47.36,119.84,47.84,121.3,47.84z"
				/>
			<path class="st2" d="M147.69,36.74c-0.51-0.18-1.17-0.27-1.96-0.27c-1.38,0-2.5,0.51-3.34,1.52c-0.85,1.01-1.47,2.63-1.86,4.84
				s-0.6,5.14-0.6,8.78h-4.65V39.08l-0.04-6.88h4.69l-0.23,5.42c0.67-2.07,1.59-3.55,2.78-4.42c1.19-0.87,2.46-1.31,3.82-1.31
				c0.41,0,0.79,0.03,1.15,0.08c0.36,0.05,0.69,0.13,1,0.23L147.69,36.74z"/>
			<path class="st2" d="M153.26,29.13c-0.92,0-1.65-0.28-2.19-0.84c-0.54-0.56-0.81-1.24-0.81-2.04s0.27-1.47,0.81-2.04
				c0.54-0.56,1.27-0.84,2.19-0.84s1.65,0.28,2.19,0.84c0.54,0.56,0.81,1.24,0.81,2.04s-0.27,1.47-0.81,2.04
				S154.18,29.13,153.26,29.13z M155.6,32.21v19.4h-4.69v-19.4H155.6z"/>
			<path class="st2" d="M168.82,51.95c-2.33,0-4.14-0.64-5.43-1.92c-1.29-1.28-1.93-2.96-1.9-5.03l0.15-8.87h-3.3v-3.92h3.38
				l0.04-3.99h4.69l-0.08,3.99h6.34v3.92h-6.38l-0.12,8.37c-0.03,1.05,0.24,1.88,0.79,2.48s1.38,0.9,2.48,0.9
				c0.59,0,1.14-0.08,1.65-0.23c0.51-0.15,1.05-0.44,1.61-0.84l1.38,3.61c-0.59,0.51-1.34,0.9-2.27,1.15
				C170.93,51.82,169.92,51.95,168.82,51.95z"/>
			<path class="st2" d="M193.9,32.28V51.6h-4.76l0.15-3.38c-0.69,1.18-1.59,2.09-2.71,2.75c-1.11,0.65-2.39,0.98-3.82,0.98
				c-1.69,0-3.12-0.39-4.3-1.17c-1.18-0.78-2.07-1.86-2.69-3.25s-0.92-2.97-0.92-4.76c0-2.15,0.42-4.04,1.27-5.67
				c0.84-1.63,2-2.9,3.48-3.82s3.13-1.38,4.97-1.38c1.23,0,2.32,0.26,3.26,0.79c0.95,0.53,1.68,1.22,2.19,2.09l0.46-2.5H193.9z
				 M184.91,36.05c-1.59,0-2.86,0.6-3.8,1.8c-0.95,1.2-1.42,2.78-1.42,4.72c0,1.67,0.36,2.96,1.08,3.88
				c0.72,0.92,1.7,1.38,2.96,1.38c1.02,0,1.95-0.29,2.78-0.88s1.49-1.41,1.98-2.46c0.49-1.05,0.73-2.25,0.73-3.61
				c0-1.51-0.38-2.69-1.15-3.55C187.29,36.48,186.24,36.05,184.91,36.05z M183.3,29.59l4.57-6.8l4.84,1.23l-5.22,5.57H183.3z"/>
			<path class="st2" d="M211.34,36.74c-0.51-0.18-1.17-0.27-1.96-0.27c-1.38,0-2.5,0.51-3.34,1.52s-1.47,2.63-1.86,4.84
				c-0.4,2.21-0.59,5.14-0.59,8.78h-4.65V39.08l-0.04-6.88h4.69l-0.23,5.42c0.67-2.07,1.59-3.55,2.78-4.42
				c1.19-0.87,2.46-1.31,3.82-1.31c0.41,0,0.79,0.03,1.15,0.08c0.36,0.05,0.69,0.13,1,0.23L211.34,36.74z"/>
			<path class="st2" d="M216.91,29.13c-0.92,0-1.65-0.28-2.19-0.84c-0.54-0.56-0.81-1.24-0.81-2.04s0.27-1.47,0.81-2.04
				c0.54-0.56,1.27-0.84,2.19-0.84s1.65,0.28,2.19,0.84c0.54,0.56,0.81,1.24,0.81,2.04s-0.27,1.47-0.81,2.04
				C218.56,28.85,217.83,29.13,216.91,29.13z M219.25,32.21v19.4h-4.69v-19.4H219.25z"/>
			<path class="st2" d="M233.34,31.9c2.89,0,5.17,0.86,6.82,2.59s2.48,4.07,2.48,7.01c0,2-0.42,3.78-1.25,5.36
				c-0.83,1.57-2,2.82-3.51,3.73c-1.51,0.91-3.27,1.36-5.26,1.36c-2.89,0-5.17-0.86-6.82-2.57c-1.65-1.72-2.48-4.06-2.48-7.03
				c0-2,0.42-3.78,1.25-5.36c0.83-1.57,2-2.82,3.5-3.73C229.56,32.35,231.32,31.9,233.34,31.9z M232.77,47.84
				c1.51,0,2.73-0.58,3.65-1.73c0.92-1.15,1.38-2.69,1.38-4.61c0-1.74-0.4-3.09-1.21-4.03s-1.91-1.42-3.32-1.42
				c-1.56,0-2.8,0.58-3.73,1.73c-0.92,1.15-1.38,2.68-1.38,4.57c0,1.74,0.4,3.09,1.21,4.05C230.18,47.36,231.31,47.84,232.77,47.84z
				"/>
		</g>
	</g>
	<path class="st0" d="M289.38,186.91c-1.21-6.38-0.84-13-0.47-19.4c0.19-3.43,0.39-6.98,0.35-10.47c-0.06-4.76-0.57-9.72-5.98-13.33
		c-5.06-3.38-13.08-4.61-19.52-5.6c-12.01-1.84-23.63-1.62-35.94-1.39c-2.86,0.05-5.82,0.11-8.75,0.14h-0.21
		c-13.77,0.13-64.54,0.26-78.54,0.26c-31.39,0-62.05,0.61-93.28,1.32c-45.32,1.02-36.49,22.23-40.61,37.82
		c-2.9,10.96-15.47,25.4,5.29,34.46c9.69,4.23,23.98,4.77,37.11,4.92c32.68,0.38,65.48,0.31,98.16,0.42
		c32.29,0.11,63.41,1.67,95.77-1c10.82-0.89,21.81-2.14,30.91-5.06C290.5,204.57,291.03,195.63,289.38,186.91z"/>
	<g>
		<g class="st1">
			<path class="st2" d="M67.39,160.9h4.8v27.27h-4.38l-13.56-19.01v19.01h-4.8V160.9h4.38l13.56,19.01V160.9z"/>
			<path class="st2" d="M86.75,188.52c-2.1,0-3.91-0.39-5.44-1.17c-1.52-0.78-2.7-1.9-3.51-3.36c-0.82-1.46-1.23-3.2-1.23-5.22
				s0.42-3.81,1.27-5.36c0.85-1.55,1.99-2.76,3.44-3.63c1.45-0.87,3.09-1.31,4.94-1.31c3,0,5.2,1.02,6.63,3.05
				c1.42,2.04,1.91,4.85,1.48,8.43H81.33c0.1,1.36,0.65,2.45,1.65,3.26c1,0.82,2.37,1.23,4.11,1.23c0.82,0,1.65-0.18,2.48-0.54
				c0.83-0.36,1.54-0.91,2.13-1.65l2.73,2.77c-0.87,1.1-1.93,1.96-3.17,2.57C90.02,188.21,88.52,188.52,86.75,188.52z M86.29,172
				c-1.31,0-2.38,0.41-3.23,1.23c-0.84,0.82-1.38,1.92-1.61,3.3h8.83c0.05-1.59-0.29-2.74-1.04-3.46S87.52,172,86.29,172z"/>
			<path class="st2" d="M105.34,196.24c-1.13,0-2.34-0.12-3.63-0.35c-1.29-0.23-2.36-0.62-3.21-1.15l1.15-4.07
				c0.84,0.43,1.76,0.78,2.75,1.04c0.99,0.25,2.04,0.38,3.17,0.38c2.28,0,3.89-0.54,4.84-1.61c0.95-1.08,1.47-2.77,1.57-5.07
				l0.08-1.19c-0.72,1.2-1.62,2.12-2.71,2.75c-1.09,0.63-2.36,0.94-3.82,0.94c-1.74,0-3.22-0.37-4.44-1.11
				c-1.22-0.74-2.13-1.78-2.75-3.11c-0.61-1.33-0.92-2.85-0.92-4.57c0-2.07,0.42-3.91,1.25-5.51c0.83-1.6,1.98-2.86,3.46-3.76
				c1.47-0.91,3.17-1.36,5.09-1.36c1.28,0,2.39,0.26,3.34,0.79c0.95,0.53,1.68,1.22,2.19,2.09l0.46-2.5h3.42v15.98
				c0,3.82-1,6.67-3,8.57C111.64,195.29,108.88,196.24,105.34,196.24z M107.57,172.61c-1.61,0-2.9,0.58-3.86,1.73
				c-0.96,1.15-1.44,2.64-1.44,4.46c0,1.59,0.37,2.82,1.11,3.69c0.74,0.87,1.75,1.31,3.03,1.31c1.05,0,1.99-0.29,2.82-0.86
				s1.49-1.36,1.98-2.36c0.49-1,0.73-2.13,0.73-3.38c0-1.43-0.4-2.55-1.19-3.36C109.96,173.02,108.9,172.61,107.57,172.61z"/>
			<path class="st2" d="M127.23,188.52c-1.84,0-3.24-0.5-4.19-1.5c-0.95-1-1.42-2.42-1.42-4.26v-23.01h4.69v22.62
				c0,1.38,0.64,2.07,1.92,2.07c0.64,0,1.2-0.15,1.69-0.46l1.15,3.42c-0.41,0.31-0.96,0.57-1.65,0.79
				C128.73,188.41,128,188.52,127.23,188.52z"/>
			<path class="st2" d="M135.19,165.7c-0.92,0-1.65-0.28-2.19-0.84s-0.81-1.24-0.81-2.04s0.27-1.47,0.81-2.04
				c0.54-0.56,1.27-0.84,2.19-0.84s1.65,0.28,2.19,0.84c0.54,0.56,0.81,1.24,0.81,2.04s-0.27,1.47-0.81,2.04
				C136.84,165.42,136.11,165.7,135.19,165.7z M137.53,168.77v19.4h-4.69v-19.4H137.53z"/>
			<path class="st2" d="M149.51,196.24c-1.13,0-2.34-0.12-3.63-0.35c-1.29-0.23-2.36-0.62-3.21-1.15l1.15-4.07
				c0.84,0.43,1.76,0.78,2.75,1.04c0.99,0.25,2.04,0.38,3.17,0.38c2.28,0,3.89-0.54,4.84-1.61s1.47-2.77,1.58-5.07l0.08-1.19
				c-0.72,1.2-1.62,2.12-2.71,2.75c-1.09,0.63-2.36,0.94-3.82,0.94c-1.74,0-3.22-0.37-4.44-1.11c-1.22-0.74-2.13-1.78-2.75-3.11
				c-0.61-1.33-0.92-2.85-0.92-4.57c0-2.07,0.42-3.91,1.25-5.51c0.83-1.6,1.98-2.86,3.46-3.76c1.47-0.91,3.17-1.36,5.09-1.36
				c1.28,0,2.39,0.26,3.34,0.79c0.95,0.53,1.68,1.22,2.19,2.09l0.46-2.5h3.42v15.98c0,3.82-1,6.67-3,8.57
				C155.81,195.29,153.05,196.24,149.51,196.24z M151.74,172.61c-1.61,0-2.9,0.58-3.86,1.73c-0.96,1.15-1.44,2.64-1.44,4.46
				c0,1.59,0.37,2.82,1.11,3.69c0.74,0.87,1.75,1.31,3.04,1.31c1.05,0,1.99-0.29,2.82-0.86s1.49-1.36,1.98-2.36
				c0.49-1,0.73-2.13,0.73-3.38c0-1.43-0.4-2.55-1.19-3.36C154.13,173.02,153.07,172.61,151.74,172.61z"/>
			<path class="st2" d="M175.05,188.52c-2.1,0-3.91-0.39-5.44-1.17c-1.52-0.78-2.7-1.9-3.51-3.36c-0.82-1.46-1.23-3.2-1.23-5.22
				s0.42-3.81,1.27-5.36c0.84-1.55,1.99-2.76,3.44-3.63c1.45-0.87,3.09-1.31,4.94-1.31c3,0,5.21,1.02,6.63,3.05
				c1.42,2.04,1.91,4.85,1.48,8.43h-12.98c0.1,1.36,0.65,2.45,1.65,3.26c1,0.82,2.37,1.23,4.11,1.23c0.82,0,1.64-0.18,2.48-0.54
				c0.83-0.36,1.54-0.91,2.13-1.65l2.73,2.77c-0.87,1.1-1.93,1.96-3.17,2.57S176.82,188.52,175.05,188.52z M174.59,172
				c-1.31,0-2.38,0.41-3.23,1.23s-1.38,1.92-1.61,3.3h8.83c0.05-1.59-0.29-2.74-1.04-3.46C176.81,172.36,175.82,172,174.59,172z"/>
			<path class="st2" d="M186.65,188.17v-19.4h4.69l-0.23,4.88c0.74-1.67,1.75-2.95,3.04-3.84c1.28-0.9,2.74-1.34,4.38-1.34
				c2.18,0,3.82,0.75,4.94,2.25c1.11,1.5,1.66,3.64,1.63,6.43l-0.08,11.02h-4.69l0.08-10.64c0.02-1.51-0.21-2.67-0.71-3.48
				c-0.5-0.81-1.3-1.21-2.4-1.21c-0.85,0-1.63,0.24-2.34,0.73c-0.72,0.49-1.34,1.31-1.88,2.48c-0.54,1.17-0.96,2.74-1.27,4.72
				c-0.31,1.98-0.47,4.45-0.5,7.39H186.65z"/>
			<path class="st2" d="M218.04,188.52c-2.33,0-4.14-0.64-5.44-1.92c-1.29-1.28-1.93-2.96-1.9-5.03l0.15-8.87h-3.3v-3.92h3.38
				l0.04-3.99h4.69l-0.08,3.99h6.34v3.92h-6.38l-0.12,8.37c-0.03,1.05,0.24,1.88,0.79,2.48c0.55,0.6,1.38,0.9,2.48,0.9
				c0.59,0,1.14-0.08,1.65-0.23c0.51-0.15,1.05-0.44,1.61-0.84l1.38,3.61c-0.59,0.51-1.34,0.9-2.27,1.15
				C220.15,188.39,219.14,188.52,218.04,188.52z"/>
			<path class="st2" d="M234.24,188.52c-2.1,0-3.91-0.39-5.43-1.17c-1.52-0.78-2.7-1.9-3.51-3.36c-0.82-1.46-1.23-3.2-1.23-5.22
				s0.42-3.81,1.27-5.36c0.85-1.55,1.99-2.76,3.44-3.63c1.45-0.87,3.09-1.31,4.94-1.31c3,0,5.2,1.02,6.63,3.05
				c1.42,2.04,1.91,4.85,1.48,8.43h-12.98c0.1,1.36,0.65,2.45,1.65,3.26c1,0.82,2.37,1.23,4.11,1.23c0.82,0,1.65-0.18,2.48-0.54
				c0.83-0.36,1.54-0.91,2.13-1.65l2.73,2.77c-0.87,1.1-1.93,1.96-3.17,2.57C237.52,188.21,236.01,188.52,234.24,188.52z
				 M233.78,172c-1.31,0-2.38,0.41-3.23,1.23c-0.84,0.82-1.38,1.92-1.61,3.3h8.83c0.05-1.59-0.29-2.74-1.04-3.46
				C236,172.36,235.01,172,233.78,172z"/>
		</g>
	</g>
	<path class="st0" d="M289.38,323.48c-1.21-6.38-0.84-13-0.47-19.4c0.19-3.43,0.39-6.98,0.35-10.47c-0.06-4.76-0.57-9.72-5.98-13.33
		c-5.06-3.38-13.08-4.61-19.52-5.6c-12.01-1.84-23.63-1.62-35.94-1.39c-2.86,0.05-5.82,0.11-8.75,0.14h-0.21
		c-13.77,0.13-64.54,0.26-78.54,0.26c-31.39,0-62.05,0.61-93.28,1.32c-45.32,1.02-36.49,22.23-40.61,37.82
		c-2.9,10.96-15.47,25.4,5.29,34.46c9.69,4.23,23.98,4.77,37.11,4.92c32.68,0.38,65.48,0.31,98.16,0.42
		c32.29,0.11,63.41,1.67,95.77-1c10.82-0.89,21.81-2.14,30.91-5.06C290.5,341.14,291.03,332.19,289.38,323.48z"/>
	<g>
		<g class="st1">
			<path class="st2" d="M49.46,324.74v-27.27h4.99v27.27H49.46z"/>
			<path class="st2" d="M59.75,324.74v-19.4h4.69l-0.23,4.88c0.74-1.67,1.75-2.95,3.03-3.84c1.28-0.9,2.74-1.34,4.38-1.34
				c2.18,0,3.82,0.75,4.94,2.25c1.11,1.5,1.66,3.64,1.63,6.43l-0.08,11.02h-4.69l0.08-10.64c0.02-1.51-0.21-2.67-0.71-3.48
				c-0.5-0.81-1.3-1.21-2.4-1.21c-0.85,0-1.63,0.24-2.34,0.73c-0.72,0.49-1.34,1.31-1.88,2.48s-0.96,2.74-1.27,4.72
				s-0.47,4.45-0.5,7.39H59.75z"/>
			<path class="st2" d="M101.04,296.31v28.42h-4.76l0.15-3.38c-0.69,1.2-1.59,2.13-2.69,2.77s-2.38,0.96-3.84,0.96
				c-1.69,0-3.12-0.39-4.3-1.17c-1.18-0.78-2.07-1.86-2.69-3.25c-0.61-1.38-0.92-2.97-0.92-4.76c0-2.15,0.42-4.04,1.27-5.67
				c0.85-1.63,2-2.9,3.48-3.82c1.47-0.92,3.13-1.38,4.97-1.38c0.97,0,1.86,0.17,2.67,0.5c0.81,0.33,1.48,0.79,2.02,1.38l-0.04-1.58
				v-9.03H101.04z M92.05,309.18c-1.59,0-2.86,0.6-3.8,1.8c-0.95,1.2-1.42,2.78-1.42,4.72c0,1.67,0.36,2.96,1.08,3.88
				c0.72,0.92,1.7,1.38,2.96,1.38c1.02,0,1.95-0.29,2.78-0.88c0.83-0.59,1.49-1.41,1.98-2.46c0.49-1.05,0.73-2.25,0.73-3.61
				c0-1.51-0.38-2.69-1.15-3.55C94.43,309.61,93.38,309.18,92.05,309.18z"/>
			<path class="st2" d="M112.22,325.08c-2.15,0-3.77-0.73-4.86-2.19c-1.09-1.46-1.62-3.48-1.59-6.07l0.08-11.49h4.69l-0.08,11.06
				c-0.03,1.33,0.21,2.38,0.69,3.15c0.49,0.77,1.25,1.15,2.3,1.15c0.82,0,1.58-0.24,2.29-0.73c0.7-0.49,1.31-1.31,1.82-2.48
				s0.92-2.74,1.21-4.72c0.29-1.98,0.44-4.46,0.44-7.43h4.53v19.4h-4.72l0.27-4.42c-0.77,1.56-1.76,2.75-2.98,3.55
				C115.09,324.68,113.73,325.08,112.22,325.08z"/>
			<path class="st2" d="M134.34,325.08c-1.84,0-3.24-0.5-4.19-1.5c-0.95-1-1.42-2.42-1.42-4.26v-23.01h4.69v22.62
				c0,1.38,0.64,2.07,1.92,2.07c0.64,0,1.2-0.15,1.69-0.46l1.15,3.42c-0.41,0.31-0.96,0.57-1.65,0.79
				C135.84,324.97,135.11,325.08,134.34,325.08z"/>
			<path class="st2" d="M146.75,332.8c-1.13,0-2.34-0.12-3.63-0.35c-1.29-0.23-2.36-0.62-3.21-1.15l1.15-4.07
				c0.84,0.43,1.76,0.78,2.75,1.04c0.99,0.25,2.04,0.38,3.17,0.38c2.28,0,3.89-0.54,4.84-1.61s1.47-2.77,1.58-5.07l0.08-1.19
				c-0.72,1.2-1.62,2.12-2.71,2.75c-1.09,0.63-2.36,0.94-3.82,0.94c-1.74,0-3.22-0.37-4.44-1.11c-1.22-0.74-2.13-1.78-2.75-3.11
				c-0.61-1.33-0.92-2.85-0.92-4.57c0-2.07,0.42-3.91,1.25-5.51c0.83-1.6,1.98-2.86,3.46-3.76c1.47-0.91,3.17-1.36,5.09-1.36
				c1.28,0,2.39,0.26,3.34,0.79c0.95,0.53,1.68,1.22,2.19,2.09l0.46-2.5h3.42v15.98c0,3.82-1,6.67-3,8.57
				C153.05,331.86,150.28,332.8,146.75,332.8z M148.98,309.18c-1.61,0-2.9,0.58-3.86,1.73c-0.96,1.15-1.44,2.64-1.44,4.46
				c0,1.59,0.37,2.82,1.11,3.69c0.74,0.87,1.75,1.31,3.04,1.31c1.05,0,1.99-0.29,2.82-0.86s1.49-1.36,1.98-2.36
				c0.49-1,0.73-2.13,0.73-3.38c0-1.43-0.4-2.55-1.19-3.36C151.37,309.59,150.31,309.18,148.98,309.18z"/>
			<path class="st2" d="M172.29,325.08c-2.1,0-3.91-0.39-5.43-1.17c-1.52-0.78-2.7-1.9-3.51-3.36c-0.82-1.46-1.23-3.2-1.23-5.22
				s0.42-3.81,1.27-5.36c0.85-1.55,1.99-2.76,3.44-3.63c1.45-0.87,3.09-1.31,4.94-1.31c3,0,5.2,1.02,6.63,3.05
				c1.42,2.04,1.91,4.85,1.48,8.43h-12.98c0.1,1.36,0.65,2.45,1.65,3.26c1,0.82,2.37,1.23,4.11,1.23c0.82,0,1.65-0.18,2.48-0.54
				c0.83-0.36,1.54-0.91,2.13-1.65l2.73,2.77c-0.87,1.1-1.93,1.96-3.17,2.57C175.56,324.78,174.06,325.08,172.29,325.08z
				 M171.83,308.57c-1.31,0-2.38,0.41-3.23,1.23c-0.84,0.82-1.38,1.92-1.61,3.3h8.83c0.05-1.59-0.29-2.74-1.04-3.46
				C174.04,308.93,173.06,308.57,171.83,308.57z"/>
			<path class="st2" d="M183.89,324.74v-19.4h4.69l-0.23,4.88c0.74-1.67,1.75-2.95,3.04-3.84c1.28-0.9,2.74-1.34,4.38-1.34
				c2.18,0,3.82,0.75,4.94,2.25c1.11,1.5,1.66,3.64,1.63,6.43l-0.08,11.02h-4.69l0.08-10.64c0.02-1.51-0.21-2.67-0.71-3.48
				c-0.5-0.81-1.3-1.21-2.4-1.21c-0.85,0-1.63,0.24-2.34,0.73c-0.72,0.49-1.34,1.31-1.88,2.48c-0.54,1.17-0.96,2.74-1.27,4.72
				c-0.31,1.98-0.47,4.45-0.5,7.39H183.89z"/>
			<path class="st2" d="M215.27,325.08c-2.33,0-4.14-0.64-5.44-1.92c-1.29-1.28-1.93-2.96-1.9-5.03l0.15-8.87h-3.3v-3.92h3.38
				l0.04-3.99h4.69l-0.08,3.99h6.34v3.92h-6.38l-0.12,8.37c-0.03,1.05,0.24,1.88,0.79,2.48c0.55,0.6,1.38,0.9,2.48,0.9
				c0.59,0,1.14-0.08,1.65-0.23c0.51-0.15,1.05-0.44,1.61-0.84l1.38,3.61c-0.59,0.51-1.34,0.9-2.27,1.15
				C217.38,324.95,216.37,325.08,215.27,325.08z"/>
			<path class="st2" d="M231.48,325.08c-2.1,0-3.91-0.39-5.44-1.17c-1.52-0.78-2.7-1.9-3.51-3.36c-0.82-1.46-1.23-3.2-1.23-5.22
				s0.42-3.81,1.27-5.36c0.84-1.55,1.99-2.76,3.44-3.63c1.45-0.87,3.09-1.31,4.94-1.31c3,0,5.21,1.02,6.63,3.05
				c1.42,2.04,1.91,4.85,1.48,8.43h-12.98c0.1,1.36,0.65,2.45,1.65,3.26c1,0.82,2.37,1.23,4.11,1.23c0.82,0,1.64-0.18,2.48-0.54
				c0.83-0.36,1.54-0.91,2.13-1.65l2.73,2.77c-0.87,1.1-1.93,1.96-3.17,2.57S233.25,325.08,231.48,325.08z M231.02,308.57
				c-1.31,0-2.38,0.41-3.23,1.23s-1.38,1.92-1.61,3.3h8.83c0.05-1.59-0.29-2.74-1.04-3.46
				C233.23,308.93,232.25,308.57,231.02,308.57z"/>
		</g>
	</g>
	<path class="st0" d="M289.38,460.04c-1.21-6.38-0.84-13-0.47-19.4c0.19-3.43,0.39-6.98,0.35-10.47c-0.06-4.76-0.57-9.72-5.98-13.33
		c-5.06-3.38-13.08-4.61-19.52-5.6c-12.01-1.84-23.63-1.62-35.94-1.39c-2.86,0.05-5.82,0.11-8.75,0.14h-0.21
		c-13.77,0.13-64.54,0.26-78.54,0.26c-31.39,0-62.05,0.61-93.28,1.32c-45.32,1.02-36.49,22.23-40.61,37.82
		c-2.9,10.96-15.47,25.4,5.29,34.46c9.69,4.23,23.98,4.77,37.11,4.92c32.68,0.38,65.48,0.31,98.16,0.42
		c32.29,0.11,63.41,1.67,95.77-1c10.82-0.89,21.81-2.14,30.91-5.06C290.5,477.71,291.03,468.76,289.38,460.04z"/>
	<g>
		<g class="st1">
			<path class="st2" d="M36.07,461.3l11.64-27.27h4.23l11.18,27.27h-5.07l-2.46-6.22H43.68l-2.54,6.22H36.07z M45.4,450.89h8.57
				l-4.23-10.72L45.4,450.89z"/>
			<path class="st2" d="M71.37,461.65c-2.15,0-3.77-0.73-4.86-2.19c-1.09-1.46-1.62-3.48-1.59-6.07l0.08-11.49h4.69l-0.08,11.06
				c-0.03,1.33,0.21,2.38,0.69,3.15c0.49,0.77,1.25,1.15,2.3,1.15c0.82,0,1.58-0.24,2.29-0.73c0.7-0.49,1.31-1.31,1.82-2.48
				s0.92-2.74,1.21-4.72c0.29-1.98,0.44-4.46,0.44-7.43h4.53v19.4h-4.72l0.27-4.42c-0.77,1.56-1.76,2.75-2.98,3.55
				C74.24,461.25,72.88,461.65,71.37,461.65z"/>
			<path class="st2" d="M96.1,461.65c-2.33,0-4.14-0.64-5.44-1.92c-1.29-1.28-1.93-2.96-1.9-5.03l0.15-8.87h-3.3v-3.92H89l0.04-3.99
				h4.69l-0.08,3.99h6.34v3.92h-6.38l-0.12,8.37c-0.03,1.05,0.24,1.88,0.79,2.48c0.55,0.6,1.38,0.9,2.48,0.9
				c0.59,0,1.14-0.08,1.65-0.23c0.51-0.15,1.05-0.44,1.61-0.84l1.38,3.61c-0.59,0.51-1.34,0.9-2.27,1.15
				C98.22,461.52,97.21,461.65,96.1,461.65z"/>
			<path class="st2" d="M112.16,441.6c2.89,0,5.17,0.86,6.82,2.59c1.65,1.73,2.48,4.07,2.48,7.01c0,2-0.42,3.78-1.25,5.36
				c-0.83,1.57-2,2.82-3.51,3.73c-1.51,0.91-3.27,1.36-5.26,1.36c-2.89,0-5.17-0.86-6.82-2.57s-2.48-4.06-2.48-7.03
				c0-2,0.42-3.78,1.25-5.36c0.83-1.57,2-2.82,3.5-3.73C108.38,442.05,110.14,441.6,112.16,441.6z M111.58,457.54
				c1.51,0,2.73-0.58,3.65-1.73c0.92-1.15,1.38-2.69,1.38-4.61c0-1.74-0.4-3.09-1.21-4.03s-1.91-1.42-3.32-1.42
				c-1.56,0-2.8,0.58-3.73,1.73c-0.92,1.15-1.38,2.68-1.38,4.57c0,1.74,0.4,3.09,1.21,4.05
				C108.99,457.06,110.12,457.54,111.58,457.54z"/>
			<path class="st2" d="M137.97,446.44c-0.51-0.18-1.17-0.27-1.96-0.27c-1.38,0-2.5,0.51-3.34,1.52c-0.85,1.01-1.47,2.63-1.86,4.84
				s-0.6,5.14-0.6,8.78h-4.65v-12.52l-0.04-6.88h4.69l-0.23,5.42c0.67-2.07,1.59-3.55,2.78-4.42c1.19-0.87,2.46-1.31,3.82-1.31
				c0.41,0,0.79,0.03,1.15,0.08c0.36,0.05,0.69,0.13,1,0.23L137.97,446.44z"/>
			<path class="st2" d="M143.54,438.83c-0.92,0-1.65-0.28-2.19-0.84s-0.81-1.24-0.81-2.04s0.27-1.47,0.81-2.04
				c0.54-0.56,1.27-0.84,2.19-0.84s1.65,0.28,2.19,0.84c0.54,0.56,0.81,1.24,0.81,2.04s-0.27,1.47-0.81,2.04
				C145.19,438.55,144.46,438.83,143.54,438.83z M145.88,441.91v19.4h-4.69v-19.4H145.88z"/>
			<path class="st2" d="M159.1,461.65c-2.33,0-4.14-0.64-5.44-1.92c-1.29-1.28-1.93-2.96-1.9-5.03l0.15-8.87h-3.3v-3.92h3.38
				l0.04-3.99h4.69l-0.08,3.99h6.34v3.92h-6.38l-0.12,8.37c-0.03,1.05,0.24,1.88,0.79,2.48c0.55,0.6,1.38,0.9,2.48,0.9
				c0.59,0,1.14-0.08,1.65-0.23c0.51-0.15,1.05-0.44,1.61-0.84l1.38,3.61c-0.59,0.51-1.34,0.9-2.27,1.15
				C161.21,461.52,160.2,461.65,159.1,461.65z"/>
			<path class="st2" d="M184.18,441.98v19.32h-4.76l0.15-3.38c-0.69,1.18-1.59,2.09-2.71,2.75c-1.11,0.65-2.39,0.98-3.82,0.98
				c-1.69,0-3.13-0.39-4.3-1.17c-1.18-0.78-2.07-1.86-2.69-3.25c-0.61-1.38-0.92-2.97-0.92-4.76c0-2.15,0.42-4.04,1.27-5.67
				c0.85-1.63,2-2.9,3.48-3.82c1.47-0.92,3.13-1.38,4.97-1.38c1.23,0,2.32,0.26,3.27,0.79c0.95,0.53,1.68,1.22,2.19,2.09l0.46-2.5
				H184.18z M175.19,445.75c-1.59,0-2.86,0.6-3.8,1.8c-0.95,1.2-1.42,2.78-1.42,4.72c0,1.67,0.36,2.96,1.08,3.88
				c0.72,0.92,1.7,1.38,2.96,1.38c1.02,0,1.95-0.29,2.79-0.88c0.83-0.59,1.49-1.41,1.98-2.46s0.73-2.25,0.73-3.61
				c0-1.51-0.38-2.69-1.15-3.55C177.57,446.18,176.52,445.75,175.19,445.75z"/>
			<path class="st2" d="M197.39,461.65c-2.33,0-4.14-0.64-5.44-1.92c-1.29-1.28-1.93-2.96-1.9-5.03l0.15-8.87h-3.3v-3.92h3.38
				l0.04-3.99h4.69l-0.08,3.99h6.34v3.92h-6.38l-0.12,8.37c-0.03,1.05,0.24,1.88,0.79,2.48c0.55,0.6,1.38,0.9,2.48,0.9
				c0.59,0,1.14-0.08,1.65-0.23c0.51-0.15,1.05-0.44,1.61-0.84l1.38,3.61c-0.59,0.51-1.34,0.9-2.27,1.15
				C199.5,461.52,198.49,461.65,197.39,461.65z"/>
			<path class="st2" d="M207.07,438.83c-0.92,0-1.65-0.28-2.19-0.84c-0.54-0.56-0.81-1.24-0.81-2.04s0.27-1.47,0.81-2.04
				c0.54-0.56,1.27-0.84,2.19-0.84s1.65,0.28,2.19,0.84c0.54,0.56,0.81,1.24,0.81,2.04s-0.27,1.47-0.81,2.04
				S207.99,438.83,207.07,438.83z M209.41,441.91v19.4h-4.69v-19.4H209.41z"/>
			<path class="st2" d="M227.81,441.91h4.69l-7.26,19.4h-6.68l-6.15-19.4h5.07l4.69,15.59L227.81,441.91z"/>
			<path class="st2" d="M243.06,441.6c2.89,0,5.17,0.86,6.82,2.59s2.48,4.07,2.48,7.01c0,2-0.42,3.78-1.25,5.36
				c-0.83,1.57-2,2.82-3.51,3.73c-1.51,0.91-3.27,1.36-5.26,1.36c-2.89,0-5.17-0.86-6.82-2.57c-1.65-1.72-2.48-4.06-2.48-7.03
				c0-2,0.42-3.78,1.25-5.36c0.83-1.57,2-2.82,3.5-3.73C239.28,442.05,241.04,441.6,243.06,441.6z M242.48,457.54
				c1.51,0,2.73-0.58,3.65-1.73c0.92-1.15,1.38-2.69,1.38-4.61c0-1.74-0.4-3.09-1.21-4.03s-1.91-1.42-3.32-1.42
				c-1.56,0-2.8,0.58-3.73,1.73c-0.92,1.15-1.38,2.68-1.38,4.57c0,1.74,0.4,3.09,1.21,4.05
				C239.89,457.06,241.02,457.54,242.48,457.54z"/>
		</g>
	</g>
</g>
<g id="Camada_2_1_">
</g>
<g id="guias" class="st3">
</g>
</svg>
