<?xml version="1.0" encoding="utf-8"?>
<!-- Generator: Adobe Illustrator 24.0.2, SVG Export Plug-In . SVG Version: 6.00 Build 0)  -->
<svg version="1.1" id="Camada_1" xmlns="http://www.w3.org/2000/svg" xmlns:xlink="http://www.w3.org/1999/xlink" x="0px" y="0px"
	 viewBox="0 0 920 59.67" style="enable-background:new 0 0 920 59.67;" xml:space="preserve">
<style type="text/css">
	.st0{fill:#DBA723;}
	.st1{enable-background:new    ;}
	.st2{fill:#FFFFFF;}
	.st3{display:none;}
</style>
<g id="refs">
</g>
<g id="Camada_4">
	<path class="st0" d="M212.47,37.87c-0.89-4.68-0.61-9.55-0.35-14.25c0.14-2.52,0.29-5.13,0.26-7.69c-0.04-3.5-0.42-7.13-4.39-9.79
		c-3.71-2.48-9.6-3.39-14.33-4.11c-8.82-1.35-17.35-1.19-26.39-1.02c-2.1,0.04-4.27,0.08-6.43,0.1h-0.15
		c-10.11,0.1-47.39,0.19-57.67,0.19c-23.05,0-45.56,0.45-68.49,0.97C1.25,3.03,7.74,18.6,4.71,30.04
		c-2.13,8.05-11.36,18.65,3.88,25.3c7.11,3.11,17.61,3.5,27.25,3.61c23.99,0.28,48.07,0.23,72.07,0.31
		c23.71,0.08,46.56,1.22,70.32-0.74c7.94-0.66,16.01-1.57,22.7-3.72C213.3,50.84,213.69,44.27,212.47,37.87z"/>
	<g>
		<g class="st1">
			<path class="st2" d="M33.62,38.79l8.55-20.02h3.1l8.21,20.02h-3.72l-1.8-4.57H39.2l-1.86,4.57H33.62z M40.47,31.15h6.29
				l-3.1-7.87L40.47,31.15z"/>
			<path class="st2" d="M59.54,39.05c-1.58,0-2.77-0.54-3.57-1.61c-0.8-1.07-1.19-2.56-1.17-4.46l0.06-8.43h3.44l-0.06,8.12
				c-0.02,0.98,0.15,1.75,0.51,2.31c0.36,0.56,0.92,0.85,1.69,0.85c0.6,0,1.16-0.18,1.68-0.54s0.96-0.96,1.34-1.82
				c0.38-0.86,0.67-2.01,0.89-3.47c0.22-1.46,0.32-3.28,0.32-5.46H68v14.24h-3.47l0.2-3.24c-0.56,1.15-1.29,2.02-2.19,2.61
				C61.65,38.75,60.65,39.05,59.54,39.05z"/>
			<path class="st2" d="M77.7,39.05c-1.71,0-3.04-0.47-3.99-1.41c-0.95-0.94-1.42-2.17-1.4-3.69l0.11-6.51H70v-2.88h2.48l0.03-2.93
				h3.44l-0.06,2.93h4.65v2.88h-4.68l-0.08,6.15c-0.02,0.77,0.17,1.38,0.58,1.82c0.4,0.44,1.01,0.66,1.82,0.66
				c0.43,0,0.84-0.06,1.21-0.17c0.38-0.11,0.77-0.32,1.18-0.62l1.02,2.65c-0.43,0.38-0.99,0.66-1.66,0.85
				C79.25,38.95,78.51,39.05,77.7,39.05z"/>
			<path class="st2" d="M89.49,24.32c2.12,0,3.79,0.63,5.01,1.9c1.21,1.27,1.82,2.99,1.82,5.15c0,1.47-0.31,2.78-0.92,3.93
				s-1.47,2.07-2.58,2.74s-2.4,1-3.86,1c-2.13,0-3.79-0.63-5.01-1.89c-1.21-1.26-1.82-2.98-1.82-5.16c0-1.47,0.31-2.78,0.92-3.93
				c0.61-1.16,1.47-2.07,2.57-2.74C86.71,24.66,88,24.32,89.49,24.32z M89.07,36.03c1.11,0,2-0.42,2.68-1.27
				c0.68-0.85,1.02-1.97,1.02-3.38c0-1.28-0.3-2.27-0.89-2.96c-0.59-0.7-1.41-1.04-2.44-1.04c-1.15,0-2.06,0.42-2.74,1.27
				c-0.68,0.85-1.02,1.96-1.02,3.35c0,1.28,0.3,2.27,0.89,2.98S87.99,36.03,89.07,36.03z"/>
			<path class="st2" d="M108.44,27.88c-0.38-0.13-0.86-0.2-1.44-0.2c-1.02,0-1.83,0.37-2.45,1.11c-0.62,0.74-1.08,1.93-1.37,3.55
				c-0.29,1.63-0.44,3.77-0.44,6.44h-3.41V29.6l-0.03-5.05h3.44l-0.17,3.98c0.49-1.52,1.17-2.6,2.04-3.24
				c0.87-0.64,1.81-0.96,2.81-0.96c0.3,0,0.58,0.02,0.85,0.06s0.51,0.09,0.73,0.17L108.44,27.88z"/>
			<path class="st2" d="M112.53,22.29c-0.68,0-1.21-0.21-1.61-0.62c-0.39-0.41-0.59-0.91-0.59-1.49s0.2-1.08,0.59-1.5
				c0.4-0.41,0.93-0.62,1.61-0.62c0.68,0,1.21,0.21,1.61,0.62c0.39,0.41,0.59,0.91,0.59,1.5s-0.2,1.08-0.59,1.49
				C113.74,22.09,113.21,22.29,112.53,22.29z M114.25,24.55v14.24h-3.44V24.55H114.25z"/>
			<path class="st2" d="M123.95,39.05c-1.71,0-3.04-0.47-3.99-1.41c-0.95-0.94-1.42-2.17-1.4-3.69l0.11-6.51h-2.43v-2.88h2.48
				l0.03-2.93h3.44l-0.06,2.93h4.65v2.88h-4.68l-0.08,6.15c-0.02,0.77,0.17,1.38,0.58,1.82c0.4,0.44,1.01,0.66,1.82,0.66
				c0.43,0,0.84-0.06,1.21-0.17c0.38-0.11,0.77-0.32,1.18-0.62l1.02,2.65c-0.43,0.38-0.99,0.66-1.66,0.85
				C125.5,38.95,124.76,39.05,123.95,39.05z"/>
			<path class="st2" d="M142.37,24.61v14.19h-3.5l0.11-2.48c-0.51,0.86-1.17,1.54-1.99,2.02c-0.82,0.48-1.75,0.72-2.81,0.72
				c-1.24,0-2.29-0.29-3.16-0.86c-0.86-0.57-1.52-1.37-1.97-2.38c-0.45-1.02-0.68-2.18-0.68-3.5c0-1.58,0.31-2.97,0.93-4.16
				c0.62-1.19,1.47-2.13,2.55-2.81s2.3-1.02,3.65-1.02c0.9,0,1.7,0.19,2.4,0.58c0.7,0.39,1.23,0.9,1.61,1.54l0.34-1.83H142.37z
				 M135.77,27.37c-1.17,0-2.1,0.44-2.79,1.33c-0.7,0.88-1.04,2.04-1.04,3.47c0,1.22,0.26,2.17,0.79,2.85
				c0.53,0.68,1.25,1.02,2.17,1.02c0.75,0,1.43-0.22,2.04-0.65c0.61-0.43,1.09-1.03,1.45-1.81c0.36-0.77,0.54-1.65,0.54-2.65
				c0-1.11-0.28-1.98-0.85-2.61C137.52,27.69,136.75,27.37,135.77,27.37z M134.58,22.63l3.36-4.99l3.55,0.9l-3.84,4.09H134.58z"/>
			<path class="st2" d="M155.17,27.88c-0.38-0.13-0.86-0.2-1.44-0.2c-1.02,0-1.83,0.37-2.45,1.11c-0.62,0.74-1.08,1.93-1.37,3.55
				c-0.29,1.63-0.44,3.77-0.44,6.44h-3.41V29.6l-0.03-5.05h3.44l-0.17,3.98c0.49-1.52,1.17-2.6,2.04-3.24
				c0.87-0.64,1.81-0.96,2.81-0.96c0.3,0,0.58,0.02,0.85,0.06s0.51,0.09,0.73,0.17L155.17,27.88z"/>
			<path class="st2" d="M159.26,22.29c-0.68,0-1.21-0.21-1.61-0.62c-0.39-0.41-0.59-0.91-0.59-1.49s0.2-1.08,0.59-1.5
				c0.4-0.41,0.93-0.62,1.61-0.62c0.68,0,1.21,0.21,1.61,0.62c0.39,0.41,0.59,0.91,0.59,1.5s-0.2,1.08-0.59,1.49
				C160.47,22.09,159.94,22.29,159.26,22.29z M160.98,24.55v14.24h-3.44V24.55H160.98z"/>
			<path class="st2" d="M171.33,24.32c2.12,0,3.79,0.63,5.01,1.9c1.21,1.27,1.82,2.99,1.82,5.15c0,1.47-0.31,2.78-0.92,3.93
				s-1.47,2.07-2.58,2.74s-2.4,1-3.86,1c-2.13,0-3.79-0.63-5.01-1.89c-1.21-1.26-1.82-2.98-1.82-5.16c0-1.47,0.31-2.78,0.92-3.93
				c0.61-1.16,1.47-2.07,2.57-2.74C168.55,24.66,169.85,24.32,171.33,24.32z M170.91,36.03c1.11,0,2-0.42,2.68-1.27
				c0.68-0.85,1.02-1.97,1.02-3.38c0-1.28-0.3-2.27-0.89-2.96c-0.59-0.7-1.41-1.04-2.44-1.04c-1.15,0-2.06,0.42-2.74,1.27
				c-0.68,0.85-1.02,1.96-1.02,3.35c0,1.28,0.3,2.27,0.89,2.98S169.84,36.03,170.91,36.03z"/>
		</g>
	</g>
	<path class="st0" d="M448.11,36.96c-0.89-4.68-0.61-9.55-0.35-14.25c0.14-2.52,0.29-5.13,0.26-7.69c-0.04-3.5-0.42-7.13-4.39-9.79
		c-3.71-2.48-9.6-3.39-14.33-4.11c-8.82-1.35-17.35-1.19-26.39-1.02c-2.1,0.04-4.27,0.08-6.43,0.1h-0.15
		c-10.11,0.09-47.39,0.19-57.67,0.19c-23.05,0-45.56,0.45-68.49,0.97c-33.27,0.75-26.79,16.32-29.81,27.77
		c-2.13,8.05-11.36,18.65,3.88,25.3c7.11,3.11,17.61,3.5,27.25,3.61c23.99,0.28,48.07,0.23,72.07,0.31
		c23.71,0.08,46.56,1.22,70.32-0.74c7.94-0.66,16.01-1.57,22.7-3.72C448.94,49.93,449.33,43.36,448.11,36.96z"/>
	<g>
		<g class="st1">
			<path class="st2" d="M285.12,17.87h3.53v20.02h-3.21l-9.96-13.96v13.96h-3.53V17.87h3.21l9.96,13.96V17.87z"/>
			<path class="st2" d="M299.34,38.14c-1.54,0-2.87-0.29-3.99-0.86c-1.12-0.57-1.98-1.4-2.58-2.47c-0.6-1.07-0.9-2.35-0.9-3.83
				c0-1.49,0.31-2.8,0.93-3.93c0.62-1.14,1.46-2.03,2.52-2.67c1.06-0.64,2.27-0.96,3.62-0.96c2.2,0,3.82,0.75,4.87,2.24
				c1.04,1.49,1.41,3.56,1.08,6.19h-9.53c0.08,1,0.48,1.8,1.21,2.4s1.74,0.9,3.02,0.9c0.6,0,1.21-0.13,1.82-0.4
				c0.61-0.26,1.13-0.67,1.57-1.21l2,2.03c-0.64,0.81-1.42,1.44-2.33,1.89C301.74,37.92,300.63,38.14,299.34,38.14z M299,26.02
				c-0.96,0-1.75,0.3-2.37,0.9s-1.02,1.41-1.18,2.43h6.49c0.04-1.17-0.22-2.01-0.76-2.54C300.63,26.28,299.9,26.02,299,26.02z"/>
			<path class="st2" d="M312.99,43.81c-0.83,0-1.72-0.08-2.67-0.25c-0.95-0.17-1.73-0.45-2.36-0.85l0.85-2.99
				c0.62,0.32,1.29,0.57,2.02,0.76c0.72,0.19,1.5,0.28,2.33,0.28c1.67,0,2.86-0.4,3.55-1.18c0.7-0.79,1.08-2.03,1.16-3.72l0.06-0.88
				c-0.53,0.88-1.19,1.56-1.99,2.02c-0.8,0.46-1.73,0.69-2.81,0.69c-1.28,0-2.36-0.27-3.26-0.82c-0.89-0.54-1.57-1.31-2.02-2.28
				s-0.68-2.1-0.68-3.35c0-1.52,0.31-2.87,0.92-4.05c0.61-1.17,1.46-2.1,2.54-2.76c1.08-0.67,2.33-1,3.74-1
				c0.94,0,1.76,0.19,2.45,0.58c0.7,0.39,1.23,0.9,1.61,1.54l0.34-1.83h2.51v11.73c0,2.8-0.73,4.9-2.2,6.29
				C317.61,43.12,315.58,43.81,312.99,43.81z M314.62,26.47c-1.18,0-2.13,0.42-2.83,1.27c-0.71,0.85-1.06,1.94-1.06,3.27
				c0,1.17,0.27,2.07,0.82,2.71c0.54,0.64,1.29,0.96,2.23,0.96c0.77,0,1.46-0.21,2.07-0.63s1.09-1,1.45-1.73
				c0.36-0.73,0.54-1.56,0.54-2.48c0-1.05-0.29-1.88-0.87-2.47C316.38,26.76,315.6,26.47,314.62,26.47z"/>
			<path class="st2" d="M329.06,38.14c-1.35,0-2.38-0.37-3.07-1.1c-0.7-0.73-1.04-1.78-1.04-3.13V17.02h3.44v16.61
				c0,1.02,0.47,1.52,1.41,1.52c0.47,0,0.88-0.11,1.24-0.34l0.85,2.51c-0.3,0.23-0.71,0.42-1.21,0.58
				C330.16,38.06,329.63,38.14,329.06,38.14z"/>
			<path class="st2" d="M334.9,21.39c-0.68,0-1.21-0.21-1.61-0.62c-0.39-0.41-0.59-0.91-0.59-1.49s0.2-1.08,0.59-1.5
				c0.4-0.41,0.93-0.62,1.61-0.62c0.68,0,1.21,0.21,1.61,0.62c0.39,0.41,0.59,0.91,0.59,1.5s-0.2,1.08-0.59,1.49
				C336.11,21.18,335.58,21.39,334.9,21.39z M336.62,23.65v14.24h-3.44V23.65H336.62z"/>
			<path class="st2" d="M345.42,43.81c-0.83,0-1.72-0.08-2.67-0.25c-0.95-0.17-1.73-0.45-2.35-0.85l0.85-2.99
				c0.62,0.32,1.29,0.57,2.02,0.76c0.72,0.19,1.5,0.28,2.33,0.28c1.67,0,2.86-0.4,3.55-1.18c0.7-0.79,1.08-2.03,1.16-3.72l0.06-0.88
				c-0.53,0.88-1.19,1.56-1.99,2.02c-0.8,0.46-1.73,0.69-2.81,0.69c-1.28,0-2.37-0.27-3.26-0.82c-0.89-0.54-1.57-1.31-2.02-2.28
				s-0.68-2.1-0.68-3.35c0-1.52,0.31-2.87,0.92-4.05c0.61-1.17,1.46-2.1,2.54-2.76c1.08-0.67,2.33-1,3.74-1
				c0.94,0,1.76,0.19,2.45,0.58c0.7,0.39,1.23,0.9,1.61,1.54l0.34-1.83h2.51v11.73c0,2.8-0.73,4.9-2.2,6.29
				C350.04,43.12,348.01,43.81,345.42,43.81z M347.05,26.47c-1.18,0-2.13,0.42-2.83,1.27c-0.71,0.85-1.06,1.94-1.06,3.27
				c0,1.17,0.27,2.07,0.82,2.71c0.54,0.64,1.29,0.96,2.23,0.96c0.77,0,1.46-0.21,2.07-0.63c0.61-0.42,1.09-1,1.45-1.73
				c0.36-0.73,0.54-1.56,0.54-2.48c0-1.05-0.29-1.88-0.88-2.47C348.81,26.76,348.03,26.47,347.05,26.47z"/>
			<path class="st2" d="M364.17,38.14c-1.54,0-2.87-0.29-3.99-0.86c-1.12-0.57-1.98-1.4-2.58-2.47c-0.6-1.07-0.9-2.35-0.9-3.83
				c0-1.49,0.31-2.8,0.93-3.93c0.62-1.14,1.46-2.03,2.52-2.67c1.06-0.64,2.27-0.96,3.62-0.96c2.2,0,3.82,0.75,4.87,2.24
				c1.04,1.49,1.41,3.56,1.08,6.19h-9.53c0.08,1,0.48,1.8,1.21,2.4s1.74,0.9,3.02,0.9c0.6,0,1.21-0.13,1.82-0.4
				c0.61-0.26,1.13-0.67,1.57-1.21l2,2.03c-0.64,0.81-1.42,1.44-2.33,1.89C366.58,37.92,365.47,38.14,364.17,38.14z M363.83,26.02
				c-0.96,0-1.75,0.3-2.37,0.9s-1.02,1.41-1.18,2.43h6.49c0.04-1.17-0.22-2.01-0.76-2.54C365.46,26.28,364.74,26.02,363.83,26.02z"
				/>
			<path class="st2" d="M372.69,37.89V23.65h3.44l-0.17,3.58c0.54-1.22,1.29-2.16,2.23-2.82s2.01-0.99,3.22-0.99
				c1.6,0,2.81,0.55,3.62,1.65c0.82,1.1,1.22,2.67,1.2,4.72l-0.06,8.09h-3.44l0.06-7.81c0.02-1.11-0.16-1.96-0.52-2.55
				c-0.37-0.59-0.95-0.89-1.76-0.89c-0.62,0-1.19,0.18-1.72,0.54s-0.99,0.96-1.38,1.82c-0.4,0.86-0.71,2.01-0.93,3.47
				c-0.23,1.46-0.35,3.27-0.37,5.43H372.69z"/>
			<path class="st2" d="M395.73,38.14c-1.71,0-3.04-0.47-3.99-1.41c-0.95-0.94-1.42-2.17-1.4-3.69l0.11-6.51h-2.43v-2.88h2.48
				l0.03-2.93h3.44l-0.06,2.93h4.65v2.88h-4.68l-0.08,6.15c-0.02,0.77,0.17,1.38,0.58,1.82c0.4,0.44,1.01,0.66,1.82,0.66
				c0.43,0,0.84-0.06,1.21-0.17c0.38-0.11,0.77-0.32,1.18-0.62l1.01,2.65c-0.43,0.38-0.99,0.66-1.66,0.85
				C397.28,38.05,396.54,38.14,395.73,38.14z"/>
			<path class="st2" d="M407.63,38.14c-1.54,0-2.87-0.29-3.99-0.86c-1.12-0.57-1.98-1.4-2.58-2.47c-0.6-1.07-0.9-2.35-0.9-3.83
				c0-1.49,0.31-2.8,0.93-3.93c0.62-1.14,1.46-2.03,2.52-2.67c1.06-0.64,2.27-0.96,3.62-0.96c2.2,0,3.82,0.75,4.87,2.24
				c1.04,1.49,1.41,3.56,1.08,6.19h-9.53c0.08,1,0.48,1.8,1.21,2.4s1.74,0.9,3.02,0.9c0.6,0,1.21-0.13,1.82-0.4
				c0.61-0.26,1.13-0.67,1.57-1.21l2,2.03c-0.64,0.81-1.42,1.44-2.33,1.89C410.04,37.92,408.93,38.14,407.63,38.14z M407.29,26.02
				c-0.96,0-1.75,0.3-2.37,0.9s-1.02,1.41-1.18,2.43h6.49c0.04-1.17-0.22-2.01-0.76-2.54C408.92,26.28,408.2,26.02,407.29,26.02z"/>
		</g>
	</g>
	<path class="st0" d="M683.83,37.87c-0.89-4.68-0.61-9.55-0.35-14.25c0.14-2.52,0.29-5.13,0.26-7.69c-0.04-3.5-0.42-7.13-4.39-9.79
		c-3.71-2.48-9.6-3.39-14.33-4.11c-8.82-1.35-17.35-1.19-26.39-1.02c-2.1,0.04-4.27,0.08-6.43,0.1h-0.15
		C621.94,1.2,584.66,1.3,574.38,1.3c-23.05,0-45.56,0.45-68.49,0.97c-33.27,0.75-26.79,16.32-29.81,27.77
		c-2.13,8.05-11.36,18.65,3.88,25.3c7.11,3.11,17.61,3.5,27.25,3.61c23.99,0.28,48.07,0.23,72.07,0.31
		c23.71,0.08,46.56,1.22,70.32-0.74c7.94-0.66,16.01-1.57,22.7-3.72C684.66,50.84,685.04,44.27,683.83,37.87z"/>
	<g>
		<g class="st1">
			<path class="st2" d="M507.67,38.79V18.77h3.67v20.02H507.67z"/>
			<path class="st2" d="M515.23,38.79V24.55h3.44l-0.17,3.58c0.55-1.22,1.29-2.16,2.23-2.82c0.94-0.66,2.01-0.99,3.21-0.99
				c1.6,0,2.81,0.55,3.62,1.65c0.82,1.1,1.22,2.67,1.2,4.72l-0.06,8.09h-3.44l0.06-7.81c0.02-1.11-0.16-1.96-0.52-2.55
				c-0.37-0.59-0.96-0.89-1.76-0.89c-0.62,0-1.19,0.18-1.72,0.54s-0.99,0.96-1.38,1.82c-0.39,0.86-0.71,2.01-0.93,3.47
				c-0.23,1.46-0.35,3.27-0.37,5.43H515.23z"/>
			<path class="st2" d="M545.55,17.92v20.87h-3.5l0.11-2.48c-0.51,0.88-1.17,1.56-1.97,2.03c-0.81,0.47-1.75,0.71-2.82,0.71
				c-1.24,0-2.29-0.29-3.16-0.86c-0.86-0.57-1.52-1.37-1.97-2.38c-0.45-1.02-0.68-2.18-0.68-3.5c0-1.58,0.31-2.97,0.93-4.16
				c0.62-1.19,1.47-2.13,2.55-2.81s2.3-1.02,3.65-1.02c0.71,0,1.37,0.12,1.96,0.37c0.59,0.25,1.09,0.58,1.48,1.02l-0.03-1.16v-6.63
				H545.55z M538.95,27.37c-1.17,0-2.1,0.44-2.79,1.33c-0.7,0.88-1.04,2.04-1.04,3.47c0,1.22,0.26,2.17,0.79,2.85
				s1.25,1.02,2.17,1.02c0.75,0,1.43-0.22,2.04-0.65c0.61-0.43,1.09-1.03,1.45-1.81c0.36-0.77,0.54-1.65,0.54-2.65
				c0-1.11-0.28-1.98-0.85-2.61C540.7,27.69,539.92,27.37,538.95,27.37z"/>
			<path class="st2" d="M553.75,39.05c-1.58,0-2.77-0.54-3.57-1.61c-0.8-1.07-1.19-2.56-1.17-4.46l0.06-8.43h3.44l-0.06,8.12
				c-0.02,0.98,0.15,1.75,0.51,2.31c0.36,0.56,0.92,0.85,1.69,0.85c0.6,0,1.16-0.18,1.68-0.54c0.52-0.36,0.96-0.96,1.34-1.82
				c0.38-0.86,0.67-2.01,0.89-3.47c0.22-1.46,0.32-3.28,0.32-5.46h3.33v14.24h-3.47l0.2-3.24c-0.56,1.15-1.29,2.02-2.19,2.61
				C555.86,38.75,554.86,39.05,553.75,39.05z"/>
			<path class="st2" d="M570,39.05c-1.35,0-2.38-0.37-3.07-1.1c-0.7-0.73-1.04-1.78-1.04-3.13V17.92h3.44v16.61
				c0,1.02,0.47,1.52,1.41,1.52c0.47,0,0.88-0.11,1.24-0.34l0.85,2.51c-0.3,0.23-0.71,0.42-1.21,0.58
				C571.1,38.97,570.56,39.05,570,39.05z"/>
			<path class="st2" d="M579.11,44.71c-0.83,0-1.72-0.08-2.67-0.25c-0.95-0.17-1.73-0.45-2.35-0.85l0.85-2.99
				c0.62,0.32,1.29,0.57,2.02,0.76c0.72,0.19,1.5,0.28,2.33,0.28c1.67,0,2.86-0.4,3.55-1.18c0.7-0.79,1.08-2.03,1.16-3.72l0.06-0.88
				c-0.53,0.88-1.19,1.56-1.99,2.02c-0.8,0.46-1.73,0.69-2.81,0.69c-1.28,0-2.37-0.27-3.26-0.82c-0.89-0.54-1.57-1.31-2.02-2.28
				s-0.68-2.1-0.68-3.36c0-1.52,0.31-2.87,0.92-4.05c0.61-1.17,1.46-2.1,2.54-2.76c1.08-0.67,2.33-1,3.74-1
				c0.94,0,1.76,0.19,2.45,0.58c0.7,0.39,1.23,0.9,1.61,1.54l0.34-1.83h2.51v11.73c0,2.8-0.73,4.9-2.2,6.29
				C583.73,44.02,581.7,44.71,579.11,44.71z M580.74,27.37c-1.18,0-2.13,0.42-2.83,1.27c-0.71,0.85-1.06,1.94-1.06,3.27
				c0,1.17,0.27,2.07,0.82,2.71c0.54,0.64,1.29,0.96,2.23,0.96c0.77,0,1.46-0.21,2.07-0.63c0.61-0.42,1.09-1,1.45-1.73
				c0.36-0.73,0.54-1.56,0.54-2.48c0-1.05-0.29-1.88-0.88-2.47C582.5,27.67,581.72,27.37,580.74,27.37z"/>
			<path class="st2" d="M597.86,39.05c-1.54,0-2.87-0.29-3.99-0.86c-1.12-0.57-1.98-1.4-2.58-2.47c-0.6-1.07-0.9-2.35-0.9-3.83
				c0-1.48,0.31-2.8,0.93-3.93c0.62-1.14,1.46-2.03,2.52-2.67c1.06-0.64,2.27-0.96,3.62-0.96c2.2,0,3.82,0.75,4.87,2.24
				c1.04,1.49,1.41,3.56,1.08,6.19h-9.53c0.08,1,0.48,1.8,1.21,2.4s1.74,0.9,3.02,0.9c0.6,0,1.21-0.13,1.82-0.4
				c0.61-0.26,1.13-0.67,1.57-1.21l2,2.03c-0.64,0.81-1.42,1.44-2.33,1.89C600.26,38.82,599.16,39.05,597.86,39.05z M597.52,26.92
				c-0.96,0-1.75,0.3-2.37,0.9s-1.02,1.41-1.18,2.43h6.49c0.04-1.17-0.22-2.01-0.76-2.54C599.15,27.18,598.42,26.92,597.52,26.92z"
				/>
			<path class="st2" d="M606.38,38.79V24.55h3.44l-0.17,3.58c0.54-1.22,1.29-2.16,2.23-2.82s2.01-0.99,3.22-0.99
				c1.6,0,2.81,0.55,3.62,1.65c0.82,1.1,1.22,2.67,1.2,4.72l-0.06,8.09h-3.44l0.06-7.81c0.02-1.11-0.16-1.96-0.52-2.55
				c-0.37-0.59-0.95-0.89-1.76-0.89c-0.62,0-1.19,0.18-1.72,0.54s-0.99,0.96-1.38,1.82c-0.4,0.86-0.71,2.01-0.93,3.47
				c-0.23,1.46-0.35,3.27-0.37,5.43H606.38z"/>
			<path class="st2" d="M629.42,39.05c-1.71,0-3.04-0.47-3.99-1.41c-0.95-0.94-1.42-2.17-1.4-3.69l0.11-6.51h-2.43v-2.88h2.48
				l0.03-2.93h3.44l-0.06,2.93h4.65v2.88h-4.68l-0.08,6.15c-0.02,0.77,0.17,1.38,0.58,1.82c0.4,0.44,1.01,0.66,1.82,0.66
				c0.43,0,0.84-0.06,1.21-0.17c0.38-0.11,0.77-0.32,1.18-0.62l1.01,2.65c-0.43,0.38-0.99,0.66-1.66,0.85
				C630.97,38.95,630.23,39.05,629.42,39.05z"/>
			<path class="st2" d="M641.32,39.05c-1.54,0-2.87-0.29-3.99-0.86c-1.12-0.57-1.98-1.4-2.58-2.47c-0.6-1.07-0.9-2.35-0.9-3.83
				c0-1.48,0.31-2.8,0.93-3.93c0.62-1.14,1.46-2.03,2.52-2.67c1.06-0.64,2.27-0.96,3.62-0.96c2.2,0,3.82,0.75,4.87,2.24
				c1.04,1.49,1.41,3.56,1.08,6.19h-9.53c0.08,1,0.48,1.8,1.21,2.4s1.74,0.9,3.02,0.9c0.6,0,1.21-0.13,1.82-0.4
				c0.61-0.26,1.13-0.67,1.57-1.21l2,2.03c-0.64,0.81-1.42,1.44-2.33,1.89C643.72,38.82,642.62,39.05,641.32,39.05z M640.98,26.92
				c-0.96,0-1.75,0.3-2.37,0.9s-1.02,1.41-1.18,2.43h6.49c0.04-1.17-0.22-2.01-0.76-2.54C642.61,27.18,641.88,26.92,640.98,26.92z"
				/>
		</g>
	</g>
	<path class="st0" d="M919.54,37.87c-0.89-4.68-0.61-9.55-0.35-14.25c0.14-2.52,0.29-5.13,0.26-7.69c-0.04-3.5-0.42-7.13-4.39-9.79
		c-3.71-2.48-9.6-3.39-14.33-4.11c-8.82-1.35-17.35-1.19-26.39-1.02c-2.1,0.04-4.27,0.08-6.43,0.1h-0.15
		C857.65,1.2,820.37,1.3,810.09,1.3c-23.05,0-45.56,0.45-68.49,0.97c-33.27,0.75-26.79,16.32-29.81,27.77
		c-2.13,8.05-11.36,18.65,3.88,25.3c7.11,3.11,17.61,3.5,27.25,3.61c23.99,0.28,48.07,0.23,72.07,0.31
		c23.71,0.08,46.56,1.22,70.32-0.74c7.94-0.66,16.01-1.57,22.7-3.72C920.37,50.84,920.76,44.27,919.54,37.87z"/>
	<g>
		<g class="st1">
			<path class="st2" d="M733.55,38.79l8.55-20.02h3.1l8.21,20.02h-3.72l-1.8-4.57h-8.74l-1.86,4.57H733.55z M740.41,31.15h6.29
				l-3.1-7.87L740.41,31.15z"/>
			<path class="st2" d="M759.47,39.05c-1.58,0-2.77-0.54-3.57-1.61c-0.8-1.07-1.19-2.56-1.17-4.46l0.06-8.43h3.44l-0.06,8.12
				c-0.02,0.98,0.15,1.75,0.51,2.31c0.36,0.56,0.92,0.85,1.69,0.85c0.6,0,1.16-0.18,1.68-0.54c0.52-0.36,0.96-0.96,1.34-1.82
				c0.38-0.86,0.67-2.01,0.89-3.47c0.22-1.46,0.32-3.28,0.32-5.46h3.33v14.24h-3.47l0.2-3.24c-0.56,1.15-1.29,2.02-2.19,2.61
				C761.58,38.75,760.58,39.05,759.47,39.05z"/>
			<path class="st2" d="M777.63,39.05c-1.71,0-3.04-0.47-3.99-1.41c-0.95-0.94-1.42-2.17-1.4-3.69l0.11-6.51h-2.43v-2.88h2.48
				l0.03-2.93h3.44l-0.06,2.93h4.65v2.88h-4.68l-0.08,6.15c-0.02,0.77,0.17,1.38,0.58,1.82c0.4,0.44,1.01,0.66,1.82,0.66
				c0.43,0,0.84-0.06,1.21-0.17c0.38-0.11,0.77-0.32,1.18-0.62l1.01,2.65c-0.43,0.38-0.99,0.66-1.66,0.85
				C779.18,38.95,778.44,39.05,777.63,39.05z"/>
			<path class="st2" d="M789.42,24.32c2.12,0,3.79,0.63,5.01,1.9c1.21,1.27,1.82,2.99,1.82,5.15c0,1.47-0.31,2.78-0.92,3.93
				c-0.61,1.16-1.47,2.07-2.58,2.74s-2.4,1-3.86,1c-2.13,0-3.79-0.63-5.01-1.89s-1.82-2.98-1.82-5.16c0-1.47,0.31-2.78,0.92-3.93
				c0.61-1.16,1.47-2.07,2.57-2.74C786.64,24.66,787.94,24.32,789.42,24.32z M789,36.03c1.11,0,2-0.42,2.68-1.27
				c0.68-0.85,1.02-1.97,1.02-3.38c0-1.28-0.3-2.27-0.89-2.96c-0.59-0.7-1.41-1.04-2.44-1.04c-1.15,0-2.06,0.42-2.74,1.27
				c-0.68,0.85-1.02,1.96-1.02,3.35c0,1.28,0.3,2.27,0.89,2.98C787.09,35.68,787.93,36.03,789,36.03z"/>
			<path class="st2" d="M808.37,27.88c-0.38-0.13-0.86-0.2-1.44-0.2c-1.01,0-1.83,0.37-2.45,1.11c-0.62,0.74-1.08,1.93-1.37,3.55
				c-0.29,1.63-0.44,3.77-0.44,6.44h-3.41V29.6l-0.03-5.05h3.44l-0.17,3.98c0.49-1.52,1.17-2.6,2.04-3.24
				c0.87-0.64,1.81-0.96,2.81-0.96c0.3,0,0.58,0.02,0.85,0.06c0.26,0.04,0.51,0.09,0.73,0.17L808.37,27.88z"/>
			<path class="st2" d="M812.46,22.29c-0.68,0-1.21-0.21-1.61-0.62c-0.39-0.41-0.59-0.91-0.59-1.49s0.2-1.08,0.59-1.5
				c0.4-0.41,0.93-0.62,1.61-0.62c0.68,0,1.21,0.21,1.61,0.62c0.39,0.41,0.59,0.91,0.59,1.5s-0.2,1.08-0.59,1.49
				C813.67,22.09,813.14,22.29,812.46,22.29z M814.18,24.55v14.24h-3.44V24.55H814.18z"/>
			<path class="st2" d="M823.88,39.05c-1.71,0-3.04-0.47-3.99-1.41s-1.42-2.17-1.4-3.69l0.11-6.51h-2.42v-2.88h2.48l0.03-2.93h3.44
				l-0.06,2.93h4.65v2.88h-4.68l-0.08,6.15c-0.02,0.77,0.17,1.38,0.58,1.82c0.4,0.44,1.01,0.66,1.82,0.66
				c0.43,0,0.84-0.06,1.21-0.17c0.38-0.11,0.77-0.32,1.18-0.62l1.02,2.65c-0.43,0.38-0.99,0.66-1.66,0.85S824.69,39.05,823.88,39.05
				z"/>
			<path class="st2" d="M842.3,24.61v14.19h-3.5l0.11-2.48c-0.51,0.86-1.17,1.54-1.99,2.02c-0.82,0.48-1.75,0.72-2.81,0.72
				c-1.24,0-2.29-0.29-3.16-0.86c-0.86-0.57-1.52-1.37-1.97-2.38c-0.45-1.02-0.68-2.18-0.68-3.5c0-1.58,0.31-2.97,0.93-4.16
				c0.62-1.19,1.47-2.13,2.55-2.81s2.3-1.02,3.65-1.02c0.9,0,1.7,0.19,2.4,0.58c0.7,0.39,1.23,0.9,1.61,1.54l0.34-1.83H842.3z
				 M835.7,27.37c-1.17,0-2.1,0.44-2.79,1.33c-0.7,0.88-1.04,2.04-1.04,3.47c0,1.22,0.26,2.17,0.79,2.85s1.25,1.02,2.17,1.02
				c0.75,0,1.43-0.22,2.04-0.65c0.61-0.43,1.09-1.03,1.45-1.81c0.36-0.77,0.54-1.65,0.54-2.65c0-1.11-0.28-1.98-0.85-2.61
				C837.45,27.69,836.68,27.37,835.7,27.37z"/>
			<path class="st2" d="M852,39.05c-1.71,0-3.04-0.47-3.99-1.41c-0.95-0.94-1.42-2.17-1.4-3.69l0.11-6.51h-2.43v-2.88h2.48
				l0.03-2.93h3.44l-0.06,2.93h4.65v2.88h-4.68l-0.08,6.15c-0.02,0.77,0.17,1.38,0.58,1.82c0.4,0.44,1.01,0.66,1.82,0.66
				c0.43,0,0.84-0.06,1.21-0.17c0.38-0.11,0.77-0.32,1.18-0.62l1.01,2.65c-0.43,0.38-0.99,0.66-1.66,0.85
				C853.55,38.95,852.81,39.05,852,39.05z"/>
			<path class="st2" d="M859.11,22.29c-0.68,0-1.21-0.21-1.61-0.62c-0.39-0.41-0.59-0.91-0.59-1.49s0.2-1.08,0.59-1.5
				c0.4-0.41,0.93-0.62,1.61-0.62c0.68,0,1.21,0.21,1.61,0.62c0.39,0.41,0.59,0.91,0.59,1.5s-0.2,1.08-0.59,1.49
				C860.32,22.09,859.79,22.29,859.11,22.29z M860.83,24.55v14.24h-3.44V24.55H860.83z"/>
			<path class="st2" d="M874.34,24.55h3.44l-5.33,14.24h-4.91l-4.51-14.24h3.72L870.19,36L874.34,24.55z"/>
			<path class="st2" d="M885.53,24.32c2.12,0,3.79,0.63,5.01,1.9c1.21,1.27,1.82,2.99,1.82,5.15c0,1.47-0.31,2.78-0.92,3.93
				c-0.61,1.16-1.47,2.07-2.58,2.74s-2.4,1-3.86,1c-2.13,0-3.79-0.63-5.01-1.89s-1.82-2.98-1.82-5.16c0-1.47,0.31-2.78,0.92-3.93
				c0.61-1.16,1.47-2.07,2.57-2.74C882.76,24.66,884.05,24.32,885.53,24.32z M885.11,36.03c1.11,0,2-0.42,2.68-1.27
				c0.68-0.85,1.02-1.97,1.02-3.38c0-1.28-0.3-2.27-0.89-2.96c-0.59-0.7-1.41-1.04-2.44-1.04c-1.15,0-2.06,0.42-2.74,1.27
				c-0.68,0.85-1.02,1.96-1.02,3.35c0,1.28,0.3,2.27,0.89,2.98C883.21,35.68,884.04,36.03,885.11,36.03z"/>
		</g>
	</g>
</g>
<g id="Camada_2_1_">
</g>
<g id="guias" class="st3">
</g>
</svg>
