<?xml version="1.0" encoding="utf-8"?>
<!-- Generator: Adobe Illustrator 24.0.2, SVG Export Plug-In . SVG Version: 6.00 Build 0)  -->
<svg version="1.1" id="Camada_1" xmlns="http://www.w3.org/2000/svg" xmlns:xlink="http://www.w3.org/1999/xlink" x="0px" y="0px"
	 viewBox="0 0 540 101.35" style="enable-background:new 0 0 540 101.35;" xml:space="preserve">
<style type="text/css">
	.st0{fill:#f9ec6b;}
	.st1{fill-rule:evenodd;clip-rule:evenodd;fill:#FFF7B2;}
	.st2{fill-rule:evenodd;clip-rule:evenodd;fill:#2798C0;}
	.st3{fill-rule:evenodd;clip-rule:evenodd;fill:#FFFFFF;}
	.st4{fill:#2798C0;}
</style>
<g>
	<g id="XMLID_101_">
		<path class="st0" d="M4.61,99.66c0.86-3.69,0.59-7.44,0.83-11.2c0.2-3.23,0.7-6.43,1.52-9.56c1.78-6.82,5.08-12.35,10.64-16.72
			c12.02-9.46,27.89-12.29,42.77-13.16c28.28-1.65,56.63-1.21,84.94-0.41c13.93,0.39,27.85,0.88,41.77,1.26
			c12.77,0.35,24.7-1.49,37.35-1.58c3.03-0.02,3.04-4.73,0-4.71c-40.78,0.28-81.55,2.51-122.4,0.75
			c-27.36-1.17-60.59-4.35-84.57,12.13C10.83,61.03,6.09,66.64,3.44,74.29c-1.22,3.51-1.95,7.16-2.4,10.84
			c-0.53,4.39,0.03,8.98-0.97,13.29C-0.62,101.36,3.92,102.62,4.61,99.66z"/>
	</g>
	<g id="XMLID_100_">
		<path class="st0" d="M539.93,98.41c-0.98-4.2-0.43-8.67-0.93-12.95c-0.44-3.8-1.18-7.56-2.43-11.18
			c-2.6-7.52-7.22-13.06-13.71-17.59c-22.1-15.44-50.13-19.9-76.56-19.46c-27.19,0.46-54.37,1.39-81.53,2.78
			c-13.93,0.72-27.85,1.55-41.76,2.52c-3.57,0.25-16.47-0.95-18.97,0.98c-1.21,0.93-4.37,4.75-0.03,4.78
			c38.06,0.25,76.25-2.49,114.39-4.55c21.94-1.18,44.56-2.99,66.11,2.42c26.96,6.77,50.88,22.42,50.89,53.5
			C536.08,102.61,540.62,101.37,539.93,98.41z"/>
	</g>
	<g>
		<g>
			<path class="st1" d="M270.75,8.45c-3.45,0.18-6.99,0.5-10.44,0.76c-2.63,0.2-7.86,0.24-9.95,1.14c-1.27,0.55-2.3,1.42-2.28,3.24
				c0.01,1.59,0.3,3.55,0.46,5.17c0.8,8.29,1.15,23.95,0.19,32.09c-0.18,1.55-0.87,3.27,0.03,4.54c0.78,1.1,2.24,1.48,4,1.63
				c1.92,0.16,8.71,0.06,11.13,0.06c5.18,0,11.53-0.11,16.65,0.07c4.63,0.16,6.14-0.45,5.75-5.06c-0.67-7.99-1.46-18.72-0.65-26.5
				c0.17-1.65,0.3-6.73,0.47-8.32c0.09-0.89-0.49,0.69-0.87-0.03c-0.98-1.87-3.83,2.17-5.11,0.85c-0.24-0.24-2.87-0.03-3.37-0.38
				c-0.56-0.39-0.79-8.53-1.46-8.88C273.97,8.13,272.43,8.36,270.75,8.45z"/>
			<path class="st2" d="M241.47,8.43v3.08c0.14,0.39,0.51,4.7,0.6,5.52c0.89,7.86,0.95,21.45,0.58,29.34
				c-0.18,3.76-0.62,7.66-0.71,11.37c-0.1,4.13,1.04,6.72,4.73,7.39c3.79,0.68,34.42-0.34,36.14,0.35h4.17
				c0.89-0.37,2.17,0.04,4.11-1.17c1.78-1.11,1.79-2.89,2.05-3.39v-2.18c-0.32-0.78-0.8-8.87-0.89-10.38
				c-0.43-7.7-0.8-14.08-0.39-21.85c0.09-1.68,0.27-3.45,0.47-5.1c0.1-0.84,0.19-1.64,0.33-2.44c0.07-0.43,0.14-0.81,0.21-1.24
				c0.06-0.39,0.09-0.78,0.26-1.12v-1.08l-0.08-0.18c-0.94-2.42-0.66-1.83-2.28-3.81c-0.45-0.55-1.6-1.74-2.06-2.13
				c-0.36-0.31-0.74-0.67-1.13-0.97l-2.29-1.91c-1-0.85-2.44-2.15-3.4-2.89c-1.61-1.24-3.06-2.51-5.16-3.23
				c-0.44-0.15-1.32-0.27-1.65-0.39h-1.78c-1.46,0.63-25.48,1.48-27.91,2.27c-1.33,0.43-2.22,1.26-2.8,2.28
				C241.64,6.22,241.82,7.69,241.47,8.43L241.47,8.43z M271.54,3.02c2.05-0.1,4.11,0.14,5.74,0.98c0.81,0.42,1.44,0.82,2.13,1.3
				c0.62,0.43,6.41,5.06,6.7,5.35c1.57,1.61,2.66,2.27,3.85,4.56c0.46,0.88,0.66,1.71,0.55,2.79c-0.2,1.95-0.56,3.94-0.77,5.95
				c-0.99,9.51-0.03,22.63,0.79,32.4c0.47,5.65-1.37,6.39-7.03,6.19c-6.25-0.22-14.01-0.08-20.35-0.08c-2.95,0-11.26,0.13-13.6-0.07
				c-2.15-0.18-3.93-0.65-4.89-1.99c-1.1-1.55-0.26-3.66-0.04-5.55c1.17-9.96,0.75-29.1-0.23-39.24c-0.19-1.98-0.54-4.37-0.56-6.32
				c-0.02-2.23,1.24-3.29,2.79-3.96c2.55-1.1,8.95-1.15,12.16-1.4C262.99,3.63,267.33,3.24,271.54,3.02z"/>
			<path class="st2" d="M275.17,4.41c-0.02,0.98-0.39,2.74-0.5,3.86c-0.13,1.36-0.27,2.7-0.42,4.03c-0.27,2.43-0.81,5.82,1.44,6.99
				c3.09,1.6,9.7-1.52,12.81-3.31l0.36-0.24c-2.65,0.31-9.47,1.57-11.47-0.36C275.42,13.48,275.56,7.7,275.17,4.41z"/>
			<path class="st3" d="M249.29,34.8c0,0-12.77,7.05-10.05,20.95c2.72,13.9,14.69,15.55,23.7,12.52
				c9.01-3.04,14.79-10.64,14.72-18.9C277.58,41.1,263.73,26.99,249.29,34.8z"/>
			<path class="st2" d="M236.43,72.67l-1.1-0.85l0.38,0.36l-13.48,11.83l-0.27-0.45l2.64,2.87l-0.53-0.34l12.5-13.22l0.18-0.15
				L236.43,72.67L236.43,72.67z M242.69,43.6l-0.43,0.95c-2.51,3.5-1.18,11.25,1.07,14.86c2.45,3.93,6.7,6.66,11.29,7.28
				c10.67,1.45,19.33-7.47,18.9-18l-0.04-0.47c-0.43-9.79-11.97-15.78-14.35-15.82c7.14,0.18,11.16,2.09,15.42,7.41
				c3.68,5.86,4.17,13.13,1.34,19.45c-5.6,12.54-20.68,16.23-31.8,8.14l0.12,0.13l-4.5,4.25l-0.14-0.14
				c-0.45,1.64,1.06,1.61-3.32,7.47c-1.57,2.09-3.43,4.26-5.29,6.1c-3.86,3.82-10.03,8.93-12.74,0.59
				c-1.5-4.61,6.09-10.02,9.29-12.58c1.95-1.56,4.64-3.51,6.95-4.44c2.93-1.17,0.87,1.02,3.39-1.85c0.98-1.11,2.19-1.8,3.01-2.67
				l-2.99-5.17c-0.86-2.15-1.34-4.46-1.41-6.78c-0.29-8.75,5.16-16.68,13.39-19.3c2.34-0.75,11.59-1.1,13.12,1.31
				C252.68,33.48,245.73,37.99,242.69,43.6z"/>
			<path class="st2" d="M252.45,17.29c0,0,15.53-1.32,17.64-1.11c2.11,0.21,2.54,1.59-4.77,1.91
				C258.01,18.4,244.7,19.52,252.45,17.29z"/>
			<path class="st2" d="M252.21,24.12c0,0,13.03-0.35,20.02-0.35c6.99,0,15.73,0.7,6.67,1.39c-9.06,0.7-17.64,0.87-22.25,0.87
				C252.05,26.04,249.22,26.41,252.21,24.12z"/>
		</g>
		<path class="st4" d="M244.64,51.84c-0.35-1.63-0.02-3.39,0.66-4.95c0.67-1.58,1.77-2.96,3.04-4.09l0.99-0.81l1.07-0.69
			c0.18-0.11,0.36-0.23,0.54-0.33l0.57-0.27c0.38-0.18,0.76-0.36,1.14-0.53c0.78-0.3,1.58-0.54,2.37-0.77
			c0.82-0.15,1.63-0.31,2.45-0.39c-0.72,0.42-1.45,0.77-2.18,1.13l-1.05,0.59c-0.35,0.2-0.71,0.36-1.05,0.57
			c-0.33,0.22-0.66,0.43-1,0.63l-0.5,0.3c-0.16,0.11-0.32,0.23-0.47,0.34l-0.95,0.68L249.39,44c-1.15,1.02-2.18,2.16-3,3.47
			C245.59,48.78,244.95,50.22,244.64,51.84z"/>
	</g>
</g>
</svg>
