<?xml version="1.0" encoding="utf-8"?>
<!-- Generator: Adobe Illustrator 24.0.2, SVG Export Plug-In . SVG Version: 6.00 Build 0)  -->
<svg version="1.1" id="Camada_1" xmlns="http://www.w3.org/2000/svg" xmlns:xlink="http://www.w3.org/1999/xlink" x="0px" y="0px"
	 viewBox="0 0 540 58.32" style="enable-background:new 0 0 540 58.32;" xml:space="preserve">
<style type="text/css">
	.st0{fill:#f9ec6b;}
</style>
<g>
	<path class="st0" d="M535.39,1.68c-1.01,4.33-0.56,8.8-0.99,13.19c-0.94,9.5-1.8,15.59-9.39,22.06c-4.81,4.1-9.8,8.31-15.85,10.17
		c-3.06,0.94-6.28,1.24-9.47,1.51c-56.6,4.82-113.24,3.88-170.06,3.93c-37.45,0.03-75.13,2.2-112.7,2.28
		c-17.97,0.04-36.22-1.78-54.13-1.3c-8.42,0.22-16.77-1.31-25.08-1.32c-8.97-0.01-17.95,0.71-26.96,0.54
		c-17.81-0.33-35.57-1.81-53.29-3.47C40,47.62,17.46,47.24,9.03,28.49C7.3,24.65,6.28,20.4,5.75,16.23
		C5.14,11.4,5.72,6.44,4.61,1.68c-0.69-2.95-5.23-1.7-4.54,1.25c1,4.31,0.44,8.9,0.97,13.29c0.47,3.91,1.27,7.79,2.63,11.5
		c2.83,7.73,7.9,13.31,14.74,17.79c15.5,10.14,34.97,11.68,52.99,11.87c65.26,0.68,130.71,1.28,195.9,0.71
		c40.4-0.35,80.8-0.56,121.2-0.69c22.1-0.07,44.2-0.23,66.29-0.06c18.62,0.14,36.17,1.42,53.8-4.86
		c15.73-5.6,27.54-17.16,30.1-34.27c0.75-5.03,0.09-10.35,1.24-15.28C540.62-0.01,536.08-1.27,535.39,1.68z"/>
</g>
</svg>
