<?xml version="1.0" encoding="utf-8"?>
<!-- Generator: Adobe Illustrator 24.0.2, SVG Export Plug-In . SVG Version: 6.00 Build 0)  -->
<svg version="1.1" xmlns="http://www.w3.org/2000/svg" xmlns:xlink="http://www.w3.org/1999/xlink" x="0px" y="0px"
	 viewBox="0 0 684.9 657.15" style="enable-background:new 0 0 684.9 657.15;" xml:space="preserve">
<style type="text/css">
	.st0{fill:#DBA723;}
	.st1{font-family:'Livvic-Bold';}
	.st2{font-size:20.5391px;}
	.st3{fill:#F7F7F6;}
	.st4{font-family:'Livvic-Medium';}
	.st5{fill:#FFF8BB;}
	.st6{fill:#FFFFFF;}
	.st7{font-family:'Livvic-SemiBold';}
	.st8{font-size:16.4313px;}
	.st9{fill:#4C4C4C;}
</style>
<g id="Camada_2">
</g>
<g id="Camada_1">
	<text transform="matrix(1 0 0 1 8.4157 17.561)" class="st0 st1 st2">OBJETIVOS DOS ENCONTROS PROMOVIDOS PELO</text>
	<path class="st0" d="M259,43.55c-1.08-2.32-0.75-4.73-0.42-7.06c0.17-1.25,0.35-2.54,0.31-3.81c-0.05-1.73-0.51-3.53-5.34-4.85
		c-4.51-1.23-11.67-1.68-17.43-2.04c-10.72-0.67-21.1-0.59-32.09-0.5c-2.55,0.02-5.19,0.04-7.82,0.05l-0.19,0
		c-12.29,0.05-57.62,0.09-70.11,0.09H42.66c-8.02,0-17.34,0.11-25.59,0.92c-3.55,0.35-7.58,0.73-10.91,1.96
		c-3.12,1.16-3.89,3.38-4.45,6.24c-0.32,1.65-0.65,3.31-0.97,4.96c-0.62,3.17-1.23,6.49-0.13,9.56c0.29,0.82,0.72,1.62,1.44,2.19
		c0.69,0.56,1.59,0.86,2.48,1.12c6.71,1.98,14.26,2.29,21.25,2.31c28.08,0.09,55.53,0.17,82.71,0.14c12.7-0.01,25.62,0.1,38.11,0.21
		c11.94,0.1,24.23,0.21,36.44,0.21c2.35,0,4.7,0,7.04-0.01c13.01-0.05,24.5-0.12,35.13-0.23c0.77-0.01,1.52-0.01,2.26-0.02
		c9.13-0.08,17.01-0.15,24.41-1.9c4.44-1.05,6.99-2.56,7.81-4.6C260.34,46.86,259.75,45.15,259,43.55z"/>
	<text transform="matrix(1 0 0 1 8.4147 45.8823)" class="st3 st4 st2">Programa Famílias Fortes</text>
	<path class="st0" d="M292.21,218.1c-0.38-2.73-0.26-5.56-0.15-8.3c0.06-1.47,0.12-2.99,0.11-4.48c-0.02-2.04-0.18-4.16-1.89-5.7
		c-1.6-1.45-4.13-1.97-6.16-2.39c-3.79-0.79-7.46-0.69-11.35-0.59c-0.9,0.02-1.84,0.05-2.76,0.06l-0.07,0
		c-4.35,0.05-20.38,0.11-24.8,0.11c-9.91,0-19.59,0.26-29.45,0.57c-14.31,0.44-11.52,9.51-12.82,16.18
		c-0.91,4.69-4.88,10.86,1.67,14.74c3.06,1.81,7.57,2.04,11.72,2.11c10.32,0.16,20.67,0.13,30.99,0.18
		c10.2,0.05,20.02,0.71,30.24-0.43c3.42-0.38,6.89-0.91,9.76-2.17C292.56,225.66,292.73,221.83,292.21,218.1z"/>
	<path class="st5" d="M684.23,245.81c-1.3-19.85-0.9-40.46-0.51-60.38c0.21-10.68,0.42-21.72,0.38-32.57
		c-0.06-14.82-0.61-30.23-6.43-41.49c-5.44-10.53-14.08-14.35-21.01-17.42c-12.92-5.72-25.44-5.04-38.69-4.31
		c-3.08,0.17-6.26,0.34-9.42,0.42l-0.22,0.01c-14.82,0.39-69.46,0.8-84.53,0.8c-33.79,0-66.79,1.91-100.4,4.11
		c-48.78,3.19-39.27,69.18-43.7,117.68c-3.12,34.11-16.65,79.02,5.69,107.23c10.43,13.17,25.81,14.85,39.94,15.32
		c35.17,1.18,70.47,0.98,105.65,1.31c34.76,0.33,68.25,5.19,103.08-3.13c11.64-2.78,23.47-6.65,33.27-15.76
		C685.44,300.78,686.01,272.93,684.23,245.81z"/>
	<g>
		<text transform="matrix(1 0 0 1 219.1825 218.6421)" class="st6 st7 st8">JOVEM</text>
	</g>
	<path class="st0" d="M296.34,557.48c-0.42-2.73-0.29-5.56-0.16-8.3c0.07-1.47,0.14-2.99,0.12-4.48c-0.02-2.04-0.2-4.16-2.06-5.7
		c-1.74-1.45-4.5-1.97-6.72-2.39c-4.13-0.79-8.14-0.69-12.38-0.59c-0.98,0.02-2,0.05-3.01,0.06l-0.07,0
		c-4.74,0.05-22.22,0.11-27.05,0.11c-10.81,0-21.37,0.26-32.12,0.57c-15.61,0.44-12.56,9.51-13.98,16.18
		c-1,4.69-5.33,10.86,1.82,14.74c3.34,1.81,8.26,2.04,12.78,2.11c11.25,0.16,22.55,0.13,33.8,0.18c11.12,0.05,21.83,0.71,32.98-0.43
		c3.73-0.38,7.51-0.91,10.64-2.17C296.73,565.04,296.91,561.21,296.34,557.48z"/>
	<g>
		<text transform="matrix(1 0 0 1 215.0428 558.019)" class="st6 st7 st8">FAMÍLIA</text>
	</g>
	<path class="st0" d="M334.37,405.36c-0.66-2.73-0.46-5.56-0.26-8.3c0.11-1.47,0.22-2.99,0.19-4.48c-0.03-2.04-0.31-4.16-3.28-5.7
		c-2.78-1.45-7.18-1.97-10.72-2.39c-6.59-0.79-12.98-0.69-19.74-0.59c-1.57,0.02-3.19,0.05-4.81,0.06l-0.11,0
		c-7.56,0.05-35.44,0.11-43.12,0.11c-17.24,0-34.07,0.26-51.22,0.57c-24.88,0.44-20.03,9.51-22.3,16.18
		c-1.59,4.69-8.49,10.86,2.9,14.74c5.32,1.81,13.17,2.04,20.38,2.11c17.94,0.16,35.95,0.13,53.9,0.18
		c17.73,0.05,34.82,0.71,52.58-0.43c5.94-0.38,11.97-0.91,16.97-2.17C334.99,412.91,335.28,409.08,334.37,405.36z"/>
	<g>
		<text transform="matrix(1 0 0 1 196.078 406.7163)" class="st6 st7 st8">RESPONSÁVEIS</text>
	</g>
	<text transform="matrix(1 0 0 1 405.536 127.4175)"><tspan x="0" y="0" class="st9 st7 st8">-  Desenvolver habilidades sociais, </tspan><tspan x="0" y="19.72" class="st9 st7 st8">    emocionais e cognitivas.</tspan><tspan x="0" y="59.15" class="st9 st7 st8">-  Gerenciamento do estresse.</tspan><tspan x="0" y="98.59" class="st9 st7 st8">-  Resolução de conflitos.</tspan><tspan x="0" y="138.02" class="st9 st7 st8">-  Habilidades de comunicação.</tspan><tspan x="0" y="177.46" class="st9 st7 st8">-  Lidar com a pressão dos pares.</tspan></text>
	<path class="st5" d="M684.23,426.88c-1.3-9.93-0.9-20.23-0.51-30.19c0.21-5.34,0.42-10.86,0.38-16.29
		c-0.06-7.41-0.61-15.12-6.43-20.75c-5.44-5.26-14.08-7.17-21.01-8.71c-12.92-2.86-25.44-2.52-38.69-2.16
		c-3.08,0.08-6.26,0.17-9.42,0.21l-0.22,0c-14.82,0.2-69.46,0.4-84.53,0.4c-33.79,0-66.79,0.96-100.4,2.06
		c-48.78,1.59-39.27,34.59-43.7,58.84c-3.12,17.05-16.65,39.51,5.69,53.62c10.43,6.58,25.81,7.42,39.94,7.66
		c35.17,0.59,70.47,0.49,105.65,0.66c34.76,0.17,68.25,2.6,103.08-1.56c11.64-1.39,23.47-3.32,33.27-7.88
		C685.44,454.37,686.01,440.44,684.23,426.88z"/>
	<g>
		<text transform="matrix(1 0 0 1 411.7616 376.4399)"><tspan x="0" y="0" class="st9 st7 st8">-  Melhorar as habilidades </tspan><tspan x="0" y="19.72" class="st9 st7 st8">    parentais.</tspan><tspan x="0" y="59.15" class="st9 st7 st8">-  Promover estilos parentais </tspan><tspan x="0" y="78.87" class="st9 st7 st8">   eficazes.</tspan></text>
	</g>
	<path class="st5" d="M684.23,592.61c-1.3-13.86-0.9-28.25-0.51-42.16c0.21-7.46,0.42-15.17,0.38-22.75
		c-0.06-10.35-0.61-21.11-6.43-28.97c-5.44-7.35-14.08-10.02-21.01-12.16c-12.92-3.99-25.44-3.52-38.69-3.01
		c-3.08,0.12-6.26,0.24-9.42,0.3l-0.22,0c-14.82,0.27-69.46,0.56-84.53,0.56c-33.79,0-66.79,1.34-100.4,2.87
		c-48.78,2.23-39.27,48.31-43.7,82.17c-3.12,23.82-16.65,55.18,5.69,74.88c10.43,9.19,25.81,10.37,39.94,10.7
		c35.17,0.82,70.47,0.68,105.65,0.92c34.76,0.23,68.25,3.62,103.08-2.18c11.64-1.94,23.47-4.64,33.27-11
		C685.44,631,686.01,611.55,684.23,592.61z"/>
	<text transform="matrix(1 0 0 1 399.3085 525.6353)"><tspan x="0" y="0" class="st9 st7 st8">-  Fortalecer os laços familiares.</tspan><tspan x="0" y="39.44" class="st9 st7 st8">-  Promover a comunicação positiva.</tspan><tspan x="0" y="78.87" class="st9 st7 st8">-  Melhorar a capacidade de </tspan><tspan x="0" y="98.59" class="st9 st7 st8">    resolver problemas em família.</tspan></text>
</g>
<g id="Camada_3">
</g>
</svg>
