<?xml version="1.0" encoding="utf-8"?>
<!-- Generator: Adobe Illustrator 24.0.1, SVG Export Plug-In . SVG Version: 6.00 Build 0)  -->
<svg version="1.1" id="Layer_1" xmlns="http://www.w3.org/2000/svg" xmlns:xlink="http://www.w3.org/1999/xlink" x="0px" y="0px"
	 viewBox="0 0 102 102" style="enable-background:new 0 0 102 102;" xml:space="preserve">
<style type="text/css">
	.st0{fill:url(#SVGID_1_);}
	.st1{fill:#FFFFFF;}
</style>
<linearGradient id="SVGID_1_" gradientUnits="userSpaceOnUse" x1="0" y1="51" x2="102" y2="51">
	<stop  offset="0" style="stop-color:#FF36CD"/>
	<stop  offset="1" style="stop-color:#C54DF5"/>
</linearGradient>
<circle class="st0" cx="51" cy="51" r="51"/>
<g>
	<path class="st1" d="M41,32.4h-5.8c-0.4,0-0.8-0.3-0.8-0.8v-6.5c0-0.4,0.3-0.8,0.8-0.8H41c0.4,0,0.8,0.3,0.8,0.8v6.5
		C41.8,32.1,41.4,32.4,41,32.4z M36,30.9h4.2v-4.9H36V30.9z"/>
	<path class="st1" d="M53.9,32.4h-5.8c-0.4,0-0.8-0.3-0.8-0.8v-6.5c0-0.4,0.3-0.8,0.8-0.8h5.8c0.4,0,0.8,0.3,0.8,0.8v6.5
		C54.7,32.1,54.3,32.4,53.9,32.4z M48.9,30.9h4.2v-4.9h-4.2V30.9z"/>
	<path class="st1" d="M66.8,32.4H61c-0.4,0-0.8-0.3-0.8-0.8v-6.5c0-0.4,0.3-0.8,0.8-0.8h5.8c0.4,0,0.8,0.3,0.8,0.8v6.5
		C67.6,32.1,67.2,32.4,66.8,32.4z M61.8,30.9H66v-4.9h-4.2V30.9z"/>
	<path class="st1" d="M73.8,77.6H28.2c-1.5,0-2.6-1.2-2.6-2.6V30.9c0-1.5,1.2-2.6,2.6-2.6h7c0.4,0,0.8,0.3,0.8,0.8v1.8h4.2V29
		c0-0.4,0.3-0.8,0.8-0.8h7.1c0.4,0,0.8,0.3,0.8,0.8v1.8h4.2V29c0-0.4,0.3-0.8,0.8-0.8H61c0.4,0,0.8,0.3,0.8,0.8v1.8H66V29
		c0-0.4,0.3-0.8,0.8-0.8h7c1.5,0,2.6,1.2,2.6,2.6V75C76.4,76.5,75.2,77.6,73.8,77.6z M28.2,29.8c-0.6,0-1.1,0.5-1.1,1.1V75
		c0,0.6,0.5,1.1,1.1,1.1h45.6c0.6,0,1.1-0.5,1.1-1.1V30.9c0-0.6-0.5-1.1-1.1-1.1h-6.2v1.8c0,0.4-0.3,0.8-0.8,0.8H61
		c-0.4,0-0.8-0.3-0.8-0.8v-1.8h-5.6v1.8c0,0.4-0.3,0.8-0.8,0.8h-5.8c-0.4,0-0.8-0.3-0.8-0.8v-1.8h-5.6v1.8c0,0.4-0.3,0.8-0.8,0.8
		h-5.8c-0.4,0-0.8-0.3-0.8-0.8v-1.8H28.2z"/>
	<path class="st1" d="M64,73.8H30.2c-0.4,0-0.8-0.3-0.8-0.8V40.4c0-0.4,0.3-0.8,0.8-0.8h41.6c0.4,0,0.8,0.3,0.8,0.8v24.8
		c0,0.2-0.1,0.4-0.2,0.5l-7.8,7.8C64.4,73.7,64.2,73.8,64,73.8z M31,72.2h32.8l7.3-7.3V41.1H31V72.2z"/>
	<path class="st1" d="M64,73.8c-0.1,0-0.2,0-0.3-0.1c-0.3-0.1-0.5-0.4-0.5-0.7v-7.8c0-0.4,0.3-0.8,0.8-0.8h7.8
		c0.3,0,0.6,0.2,0.7,0.5c0.1,0.3,0.1,0.6-0.2,0.8l-7.8,7.8C64.4,73.7,64.2,73.8,64,73.8z M64.8,66v5.1L70,66H64.8z"/>
	<path class="st1" d="M75.6,36.6H53.9c-0.4,0-0.8-0.3-0.8-0.8c0-0.4,0.3-0.8,0.8-0.8h21.7c0.4,0,0.8,0.3,0.8,0.8
		C76.4,36.3,76.1,36.6,75.6,36.6z"/>
	<path class="st1" d="M40.4,36.6h-2.3c-0.4,0-0.8-0.3-0.8-0.8c0-0.4,0.3-0.8,0.8-0.8h2.3c0.4,0,0.8,0.3,0.8,0.8
		C41.2,36.3,40.8,36.6,40.4,36.6z"/>
	<path class="st1" d="M47.9,36.6h-3.7c-0.4,0-0.8-0.3-0.8-0.8c0-0.4,0.3-0.8,0.8-0.8h3.7c0.4,0,0.8,0.3,0.8,0.8
		C48.6,36.3,48.3,36.6,47.9,36.6z"/>
	<path class="st1" d="M53.9,36.6h-2.3c-0.4,0-0.8-0.3-0.8-0.8c0-0.4,0.3-0.8,0.8-0.8h2.3c0.4,0,0.8,0.3,0.8,0.8
		C54.7,36.3,54.3,36.6,53.9,36.6z"/>
	<path class="st1" d="M38.1,36.6H26.4c-0.4,0-0.8-0.3-0.8-0.8c0-0.4,0.3-0.8,0.8-0.8h11.7c0.4,0,0.8,0.3,0.8,0.8
		C38.9,36.3,38.5,36.6,38.1,36.6z"/>
	<path class="st1" d="M38.9,50.5h-5.5c-0.4,0-0.8-0.3-0.8-0.8v-5.5c0-0.4,0.3-0.8,0.8-0.8h5.5c0.4,0,0.8,0.3,0.8,0.8v5.5
		C39.7,50.2,39.3,50.5,38.9,50.5z M34.2,48.9h3.9V45h-3.9V48.9z"/>
	<path class="st1" d="M48.8,50.5h-5.5c-0.4,0-0.8-0.3-0.8-0.8v-5.5c0-0.4,0.3-0.8,0.8-0.8h5.5c0.4,0,0.8,0.3,0.8,0.8v5.5
		C49.6,50.2,49.2,50.5,48.8,50.5z M44.1,48.9H48V45h-3.9V48.9z"/>
	<path class="st1" d="M58.7,50.5h-5.5c-0.4,0-0.8-0.3-0.8-0.8v-5.5c0-0.4,0.3-0.8,0.8-0.8h5.5c0.4,0,0.8,0.3,0.8,0.8v5.5
		C59.5,50.2,59.1,50.5,58.7,50.5z M54,48.9h3.9V45H54V48.9z"/>
	<path class="st1" d="M68.6,50.5h-5.5c-0.4,0-0.8-0.3-0.8-0.8v-5.5c0-0.4,0.3-0.8,0.8-0.8h5.5c0.4,0,0.8,0.3,0.8,0.8v5.5
		C69.4,50.2,69,50.5,68.6,50.5z M63.9,48.9h3.9V45h-3.9V48.9z"/>
	<path class="st1" d="M38.9,60.2h-5.5c-0.4,0-0.8-0.3-0.8-0.8v-5.5c0-0.4,0.3-0.8,0.8-0.8h5.5c0.4,0,0.8,0.3,0.8,0.8v5.5
		C39.7,59.9,39.3,60.2,38.9,60.2z M34.2,58.7h3.9v-3.9h-3.9V58.7z"/>
	<path class="st1" d="M48.8,60.2h-5.5c-0.4,0-0.8-0.3-0.8-0.8v-5.5c0-0.4,0.3-0.8,0.8-0.8h5.5c0.4,0,0.8,0.3,0.8,0.8v5.5
		C49.6,59.9,49.2,60.2,48.8,60.2z M44.1,58.7H48v-3.9h-3.9V58.7z"/>
	<path class="st1" d="M58.7,60.2h-5.5c-0.4,0-0.8-0.3-0.8-0.8v-5.5c0-0.4,0.3-0.8,0.8-0.8h5.5c0.4,0,0.8,0.3,0.8,0.8v5.5
		C59.5,59.9,59.1,60.2,58.7,60.2z M54,58.7h3.9v-3.9H54V58.7z"/>
	<path class="st1" d="M68.6,60.2h-5.5c-0.4,0-0.8-0.3-0.8-0.8v-5.5c0-0.4,0.3-0.8,0.8-0.8h5.5c0.4,0,0.8,0.3,0.8,0.8v5.5
		C69.4,59.9,69,60.2,68.6,60.2z M63.9,58.7h3.9v-3.9h-3.9V58.7z"/>
	<path class="st1" d="M38.9,69.9h-5.5c-0.4,0-0.8-0.3-0.8-0.8v-5.5c0-0.4,0.3-0.8,0.8-0.8h5.5c0.4,0,0.8,0.3,0.8,0.8v5.5
		C39.7,69.6,39.3,69.9,38.9,69.9z M34.2,68.4h3.9v-3.9h-3.9V68.4z"/>
	<path class="st1" d="M48.8,69.9h-5.5c-0.4,0-0.8-0.3-0.8-0.8v-5.5c0-0.4,0.3-0.8,0.8-0.8h5.5c0.4,0,0.8,0.3,0.8,0.8v5.5
		C49.6,69.6,49.2,69.9,48.8,69.9z M44.1,68.4H48v-3.9h-3.9V68.4z"/>
	<path class="st1" d="M58.7,69.9h-5.5c-0.4,0-0.8-0.3-0.8-0.8v-5.5c0-0.4,0.3-0.8,0.8-0.8h5.5c0.4,0,0.8,0.3,0.8,0.8v5.5
		C59.5,69.6,59.1,69.9,58.7,69.9z M54,68.4h3.9v-3.9H54V68.4z"/>
</g>
</svg>
