<?xml version="1.0" encoding="utf-8"?>
<!-- Generator: Adobe Illustrator 24.0.1, SVG Export Plug-In . SVG Version: 6.00 Build 0)  -->
<svg version="1.1" id="Layer_1" xmlns="http://www.w3.org/2000/svg" xmlns:xlink="http://www.w3.org/1999/xlink" x="0px" y="0px"
	 viewBox="0 0 102 102" style="enable-background:new 0 0 102 102;" xml:space="preserve">
<style type="text/css">
	.st0{fill:url(#SVGID_1_);}
	.st1{fill:#FFFFFF;}
</style>
<linearGradient id="SVGID_1_" gradientUnits="userSpaceOnUse" x1="0" y1="51" x2="102" y2="51">
	<stop  offset="0" style="stop-color:#FF2B8B"/>
	<stop  offset="1" style="stop-color:#FF36CD"/>
</linearGradient>
<circle class="st0" cx="51" cy="51" r="51"/>
<g>
	<path class="st1" d="M76.3,44.8H67c-3.1,0-5.6,2.5-5.6,5.6v19c0,3.1,2.5,5.6,5.6,5.6h9.3c3.1,0,5.6-2.5,5.6-5.6v-19
		C81.9,47.3,79.3,44.8,76.3,44.8z M67,46.9h9.3c1.9,0,3.5,1.6,3.5,3.5v17.9H63.5V50.4C63.5,48.5,65.1,46.9,67,46.9z M76.3,72.9H67
		c-1.5,0-2.8-1-3.3-2.4h15.9C79.1,71.9,77.8,72.9,76.3,72.9z"/>
	<path class="st1" d="M69.5,49.3h4.2c0.6,0,1.1-0.5,1.1-1.1c0-0.6-0.5-1.1-1.1-1.1h-4.2c-0.6,0-1.1,0.5-1.1,1.1
		C68.5,48.8,69,49.3,69.5,49.3z"/>
	<path class="st1" d="M72.3,70.5H71c-0.6,0-1.1,0.5-1.1,1.1c0,0.6,0.5,1.1,1.1,1.1h1.3c0.6,0,1.1-0.5,1.1-1.1
		C73.3,71,72.9,70.5,72.3,70.5z"/>
	<path class="st1" d="M60.4,57.6c0-0.6-0.5-1.1-1.1-1.1H22.3V31.2c0-1.2,0.9-2.1,2.1-2.1h46.6c1.2,0,2.1,0.9,2.1,2.1v11.2
		c0,0.6,0.5,1.1,1.1,1.1c0.6,0,1.1-0.5,1.1-1.1V31.2c0-2.3-1.9-4.2-4.2-4.2H24.4c-2.3,0-4.2,1.9-4.2,4.2v27.9c0,2.3,1.9,4.2,4.2,4.2
		H42v4.3h-4.3c-0.6,0-1.1,0.5-1.1,1.1c0,0.6,0.5,1.1,1.1,1.1H43h9.3h5.4c0.6,0,1.1-0.5,1.1-1.1c0-0.6-0.5-1.1-1.1-1.1h-4.3v-4.3h6
		c0.6,0,1.1-0.5,1.1-1.1s-0.5-1.1-1.1-1.1h-35c-1.2,0-2.1-0.9-2.1-2.1v-0.4h37.1C60,58.7,60.4,58.2,60.4,57.6z M51.2,67.6h-7.1v-4.3
		h7.1V67.6z"/>
	<path class="st1" d="M47.1,58.8c-0.6,0-1.1,0.5-1.1,1.1c0,0.6,0.5,1.1,1.1,1.1h1c0.6,0,1.1-0.5,1.1-1.1c0-0.6-0.5-1.1-1.1-1.1H47.1
		z"/>
</g>
</svg>
