<?xml version="1.0" encoding="utf-8"?>
<!-- Generator: Adobe Illustrator 24.0.1, SVG Export Plug-In . SVG Version: 6.00 Build 0)  -->
<svg version="1.1" id="Layer_1" xmlns="http://www.w3.org/2000/svg" xmlns:xlink="http://www.w3.org/1999/xlink" x="0px" y="0px"
	 viewBox="0 0 61.7 48.2" style="enable-background:new 0 0 61.7 48.2;" xml:space="preserve">
<style type="text/css">
	.st0{fill:none;stroke:#A9434A;stroke-miterlimit:10;}
</style>
<path class="st0" d="M54.5,47.7H41.1c-3.8,0-6.8-3.1-6.8-6.8V27.4c0-14.9,12-26.9,26.9-26.9V10c-7,0.5-12.9,4.7-15.8,10.8h9
	c3.8,0,6.8,3.1,6.8,6.8v13.5C61.3,44.7,58.3,47.7,54.5,47.7z"/>
<path class="st0" d="M20.8,47.7H7.3c-3.8,0-6.8-3.1-6.8-6.8V27.4c0-14.9,12-26.9,26.9-26.9V10c-7,0.5-12.9,4.7-15.8,10.8h9
	c3.8,0,6.8,3.1,6.8,6.8v13.5C27.6,44.7,24.5,47.7,20.8,47.7z"/>
<g>
</g>
<g>
</g>
<g>
</g>
<g>
</g>
<g>
</g>
<g>
</g>
<g>
</g>
<g>
</g>
<g>
</g>
<g>
</g>
<g>
</g>
</svg>
