<?xml version="1.0" encoding="utf-8"?>
<!-- Generator: Adobe Illustrator 24.0.1, SVG Export Plug-In . SVG Version: 6.00 Build 0)  -->
<svg version="1.1" id="Layer_1" xmlns="http://www.w3.org/2000/svg" xmlns:xlink="http://www.w3.org/1999/xlink" x="0px" y="0px"
	 viewBox="0 0 88.7 98.1" style="enable-background:new 0 0 88.7 98.1;" xml:space="preserve">
<style type="text/css">
	.st0{fill:#FFFFFF;stroke:#FFFFFF;stroke-width:3;stroke-miterlimit:10;}
	.st1{fill-rule:evenodd;clip-rule:evenodd;fill:#CB4F4C;}
</style>
<path class="st0" d="M68.4,20.2l6-0.7c9.7-1.1,16.2,9.8,10.4,17.8l-3.5,4.9c-2.9,4-2.8,9.4,0.1,13.3l3.6,4.8
	c5.8,7.9-0.4,18.9-10.2,17.9l-6-0.6c-4.9-0.5-9.5,2.2-11.5,6.7L55,89.8c-3.9,9-16.6,9.1-20.6,0.1l-2.5-5.5c-2-4.5-6.7-7.1-11.6-6.6
	l-6,0.7C4.6,79.8-1.8,68.8,3.9,60.8L7.4,56c2.9-4,2.8-9.4-0.1-13.3l-3.6-4.8C-2.1,30,4.2,18.9,13.9,19.9l6,0.6
	c4.9,0.5,9.5-2.2,11.5-6.7l2.4-5.5c3.9-9,16.6-9.1,20.6-0.1l2.5,5.5C58.9,18.1,63.5,20.8,68.4,20.2z"/>
<path class="st1" d="M59.9,57.1c0,0.4-0.3,0.6-0.6,0.6l-20.9,0c-0.4,0-0.6-0.3-0.6-0.6c0-0.4,0.3-0.6,0.6-0.6h20.9
	C59.6,56.4,59.9,56.7,59.9,57.1L59.9,57.1z M59.9,51.1c0,0.4-0.3,0.6-0.6,0.6H38.4c-0.4,0-0.6-0.3-0.6-0.6c0-0.4,0.3-0.6,0.6-0.6
	h20.9C59.6,50.4,59.9,50.7,59.9,51.1L59.9,51.1z M59.9,45.1c0,0.4-0.3,0.6-0.6,0.6H38.4c-0.4,0-0.6-0.3-0.6-0.6
	c0-0.4,0.3-0.6,0.6-0.6h20.9C59.6,44.5,59.9,44.8,59.9,45.1L59.9,45.1z M39,37.2v-5.5h19.6v5.5L39,37.2L39,37.2z M59.3,30.4H38.4
	c-0.4,0-0.6,0.3-0.6,0.6v6.8c0,0.4,0.3,0.6,0.6,0.6h20.9c0.4,0,0.6-0.3,0.6-0.6l0-6.8C59.9,30.7,59.6,30.4,59.3,30.4L59.3,30.4z
	 M64.4,70.6H32.6c-1.5,0-2.8-1.3-2.8-2.8h0v0c0-1.5,1.3-2.8,2.8-2.8h31.8L64.4,70.6z M32,25.4v38.4c-0.8,0.1-1.6,0.5-2.2,1.1V28.1
	C29.8,26.8,30.7,25.6,32,25.4L32,25.4z M33.3,25.3v38.4h31.1V25.3H33.3z M65.7,64.4V24.6c0-0.4-0.3-0.6-0.6-0.6H32.6
	c-2.3,0-4.1,1.8-4.1,4.1v39.7c0,0,0,0,0,0c0,2.3,1.8,4.1,4.1,4.1H65c0.4,0,0.6-0.3,0.6-0.6L65.7,64.4C65.7,64.4,65.7,64.4,65.7,64.4
	L65.7,64.4z"/>
<g>
</g>
<g>
</g>
<g>
</g>
<g>
</g>
<g>
</g>
<g>
</g>
<g>
</g>
<g>
</g>
<g>
</g>
<g>
</g>
<g>
</g>
<g>
</g>
<g>
</g>
<g>
</g>
<g>
</g>
</svg>
