<?xml version="1.0" encoding="utf-8"?>
<!-- Generator: Adobe Illustrator 24.0.1, SVG Export Plug-In . SVG Version: 6.00 Build 0)  -->
<svg version="1.1" id="Layer_1" xmlns="http://www.w3.org/2000/svg" xmlns:xlink="http://www.w3.org/1999/xlink" x="0px" y="0px"
	 viewBox="0 0 40.4 38.6" style="enable-background:new 0 0 40.4 38.6;" xml:space="preserve">
<style type="text/css">
	.st0{fill:#FFFFFF;stroke:#FFFFFF;stroke-width:0.75;stroke-miterlimit:10;}
</style>
<path class="st0" d="M37.8,14.7H25.5c-0.3,0-0.5-0.2-0.5-0.5V2.4c0-1.7-0.9-3.2-2.4-4c-1.5-0.8-3.3-0.8-4.8,0
	c-1.5,0.8-2.4,2.4-2.4,4v11.8c0,0.1-0.1,0.3-0.1,0.3c-0.1,0.1-0.2,0.1-0.4,0.1H2.5c-1.7,0-3.3,0.9-4.2,2.3c-0.9,1.4-0.9,3.2,0,4.6
	c0.9,1.4,2.5,2.3,4.2,2.3h12.3c0.1,0,0.3,0.1,0.4,0.1c0.1,0.1,0.1,0.2,0.1,0.3v11.8c0,1.7,0.9,3.2,2.4,4c1.5,0.8,3.3,0.8,4.8,0
	c1.5-0.8,2.4-2.4,2.4-4V24.4c0-0.3,0.2-0.5,0.5-0.5h12.3c1.7,0,3.3-0.9,4.2-2.3c0.9-1.4,0.9-3.2,0-4.6
	C41.2,15.6,39.6,14.7,37.8,14.7z"/>
<g>
</g>
<g>
</g>
<g>
</g>
<g>
</g>
<g>
</g>
<g>
</g>
<g>
</g>
<g>
</g>
<g>
</g>
<g>
</g>
<g>
</g>
</svg>
