<?xml version="1.0" encoding="utf-8"?>
<!-- Generator: Adobe Illustrator 24.0.1, SVG Export Plug-In . SVG Version: 6.00 Build 0)  -->
<svg version="1.1" id="Layer_1" xmlns="http://www.w3.org/2000/svg" xmlns:xlink="http://www.w3.org/1999/xlink" x="0px" y="0px"
	 viewBox="0 0 50 50" style="enable-background:new 0 0 50 50;" xml:space="preserve">
<style type="text/css">
	.st0{fill:#00629b;}
</style>
<g>
	<g>
		<g>
			<path class="st0" d="M37.5,30.8c0-0.5-0.4-0.8-0.9-0.8h-5.4c-0.5,0-0.9,0.4-0.9,0.8s0.4,0.8,0.9,0.8h5.4
				C37.1,31.7,37.5,31.3,37.5,30.8z"/>
			<path class="st0" d="M33.9,9.2V5c0-0.5-0.4-0.8-0.9-0.8c-0.5,0-0.9,0.4-0.9,0.8v4.2c0,2.3,2,4.2,4.5,4.2h8v15.8
				c0,0.5,0.4,0.8,0.9,0.8c0.5,0,0.9-0.4,0.9-0.8V12.5c0-0.5-0.4-0.8-0.9-0.8h-8.9C35.1,11.7,33.9,10.5,33.9,9.2z"/>
			<path class="st0" d="M36.6,20h-7.1c-0.5,0-0.9,0.4-0.9,0.8c0,0.5,0.4,0.8,0.9,0.8h7.1c0.5,0,0.9-0.4,0.9-0.8
				C37.5,20.4,37.1,20,36.6,20z"/>
			<path class="st0" d="M26.8,20.8c0-0.5-0.4-0.8-0.9-0.8h-5.4c-0.5,0-0.9,0.4-0.9,0.8s0.4,0.8,0.9,0.8h5.4
				C26.4,21.7,26.8,21.3,26.8,20.8z"/>
			<path class="st0" d="M20.5,25c-0.5,0-0.9,0.4-0.9,0.8c0,0.5,0.4,0.8,0.9,0.8h1.8c0.5,0,0.9-0.4,0.9-0.8c0-0.5-0.4-0.8-0.9-0.8
				H20.5L20.5,25z"/>
			<path class="st0" d="M20.5,16.7h8.9c0.5,0,0.9-0.4,0.9-0.8c0-0.5-0.4-0.8-0.9-0.8h-8.9c-0.5,0-0.9,0.4-0.9,0.8
				C19.6,16.3,20,16.7,20.5,16.7z"/>
			<path class="st0" d="M25.9,26.7h8.9c0.5,0,0.9-0.4,0.9-0.8S35.3,25,34.8,25h-8.9c-0.5,0-0.9,0.4-0.9,0.8S25.4,26.7,25.9,26.7z"/>
			<path class="st0" d="M31.2,35c-0.5,0-0.9,0.4-0.9,0.8c0,0.5,0.4,0.8,0.9,0.8H33c0.5,0,0.9-0.4,0.9-0.8c0-0.5-0.4-0.8-0.9-0.8
				H31.2z"/>
			<path class="st0" d="M27.7,30h-7.1c-0.5,0-0.9,0.4-0.9,0.8s0.4,0.8,0.9,0.8h7.1c0.5,0,0.9-0.4,0.9-0.8S28.2,30,27.7,30z"/>
			<path class="st0" d="M27.7,35h-7.1c-0.5,0-0.9,0.4-0.9,0.8c0,0.5,0.4,0.8,0.9,0.8h7.1c0.5,0,0.9-0.4,0.9-0.8
				C28.6,35.4,28.2,35,27.7,35z"/>
			<path class="st0" d="M48.9,34.3l-1.8-1.7c-1.4-1.3-3.5-1.3-4.8,0L30.6,43.6c-0.2,0.2-0.3,0.4-0.3,0.6v5c0,0.5,0.4,0.8,0.9,0.8
				h5.4c0.2,0,0.5-0.1,0.6-0.2l11.7-10.9C50.4,37.5,50.4,35.7,48.9,34.3z M41.2,36.1l1.4,1.3l-7.8,7.2l-1.4-1.3L41.2,36.1z
				 M32.1,48.3v-3.8l4.1,3.8H32.1z M37.5,47.2l-1.4-1.3l7.8-7.2l1.4,1.3L37.5,47.2z M47.7,37.7l-1.2,1.1l-4.1-3.8l1.2-1.1
				c0.7-0.7,1.6-0.7,2.3,0l1.8,1.7C48.4,36.2,48.4,37,47.7,37.7z"/>
			<path class="st0" d="M27.7,48.3H4.5c-1.5,0-2.7-1.1-2.7-2.5V4.2c0-1.4,1.2-2.5,2.7-2.5h28.2l8.7,8.1c0.3,0.3,0.9,0.3,1.3,0
				c0.3-0.3,0.3-0.9,0-1.2l-8.9-8.3C33.5,0.1,33.3,0,33,0H4.5C2,0,0,1.9,0,4.2v41.7C0,48.1,2,50,4.5,50h23.2c0.5,0,0.9-0.4,0.9-0.8
				C28.6,48.7,28.2,48.3,27.7,48.3z"/>
			<path class="st0" d="M27.7,40h-7.1c-0.5,0-0.9,0.4-0.9,0.8c0,0.5,0.4,0.8,0.9,0.8h7.1c0.5,0,0.9-0.4,0.9-0.8
				C28.6,40.4,28.2,40,27.7,40z"/>
			<path class="st0" d="M16.1,15.8c0-0.5-0.4-0.8-0.9-0.8H9.8c-0.5,0-0.9,0.4-0.9,0.8v5c0,0.5,0.4,0.8,0.9,0.8h5.4
				c0.5,0,0.9-0.4,0.9-0.8V15.8z M14.3,20h-3.6v-3.3h3.6V20z"/>
			<path class="st0" d="M9.8,41.7h5.4c0.5,0,0.9-0.4,0.9-0.8v-5c0-0.5-0.4-0.8-0.9-0.8H9.8c-0.5,0-0.9,0.4-0.9,0.8v5
				C8.9,41.3,9.3,41.7,9.8,41.7z M10.7,36.7h3.6V40h-3.6C10.7,40,10.7,36.7,10.7,36.7z"/>
			<path class="st0" d="M11,31.4c0.2,0.2,0.4,0.2,0.6,0.2c0,0,0.1,0,0.1,0c0.3,0,0.5-0.2,0.7-0.4l3.6-5c0.3-0.4,0.2-0.9-0.2-1.2
				c-0.4-0.3-1-0.2-1.2,0.2l-3,4.2l-1-0.9c-0.3-0.3-0.9-0.3-1.3,0c-0.3,0.3-0.3,0.9,0,1.2L11,31.4z"/>
		</g>
	</g>
</g>
</svg>
