<svg id="Layer_1" data-name="Layer 1" xmlns="http://www.w3.org/2000/svg" viewBox="0 0 73.02 74.05"><defs><style>.cls-1{fill:#ff36ce;}.cls-2{fill:#6960e5;}</style></defs><path class="cls-1" d="M70.18,19.33c-2-.41-2.83-1.69-2.78-3.73.07-3.27,0-6.54,0-9.91H47.56c0,.32-.06.62-.06.91,0,15,0,30.09,0,45.13A16.37,16.37,0,0,0,61.09,68.16a47.69,47.69,0,0,0,6.21.39V62.39c-1.15-.08-2.26-.13-3.35-.25a11.31,11.31,0,0,1-10.15-11c-.09-4-.06-7.92,0-11.89,0-2.4,1.27-3.59,3.72-3.61,3.22,0,6.43,0,9.92,0,0-1.9,0-3.73,0-5.56,0-2.29.55-2.92,2.77-3.47C70.19,24.2,70.18,21.77,70.18,19.33Z"/><path class="cls-1" d="M2.92,38.5c2.13.43,2.69,1,2.72,3.25.06,3.78-.09,7.57.16,11.33A16.31,16.31,0,0,0,22.09,68.45c1.1,0,2.2,0,3.39,0v-6a37.23,37.23,0,0,1-4.81-.55,11.45,11.45,0,0,1-8.78-11.07c-.09-3.78-.05-7.56,0-11.33,0-2.6,1.31-3.8,4-3.81,3.15,0,6.31,0,9.6,0V5.7H5.65v2q0,9.85,0,19.7c0,2.45-.47,3-2.79,3.68Z"/><path class="cls-2" d="M24.46,73.46l-2.89,0a21.43,21.43,0,0,1-20-15.67C.33,53.39.56,38.34.7,29.35l0-1c0-.35,0-.66,0-1q0-11.61,0-23.22C.68,1.49,1.59.6,4.27.6H26.75c3,0,3.8.81,3.8,3.9V36.26c0,3.83-.57,4.4-4.41,4.4H16.86v.59c0,1,0,2,0,3,0,2.2,0,4.27,0,6.36a6.46,6.46,0,0,0,6.36,6.61c.54,0,1.08,0,1.63,0h1.63c.34,0,.68,0,1,0,2,.07,3,1,3,3,.05,3.5,0,6.93,0,10.2,0,2-1,2.91-3,2.94C26.49,73.45,25.47,73.46,24.46,73.46ZM5.06,12.39V25.2c0,1.46,0,4.48,0,8,0,7.75,0,17.38.15,19.89A16.85,16.85,0,0,0,22.08,69h4V61.91l-.53,0c-.52-.06-1.05-.1-1.56-.14a19.9,19.9,0,0,1-3.17-.4,10.86,10.86,0,0,1-8.33-10.51c-.09-3.83-.05-7.64,0-11.32,0-2.25,1-3.21,3.37-3.22H26V5.11h-21Z"/><path class="cls-2" d="M14.92,1.18H26.75c2.67,0,3.21.55,3.21,3.3q0,12.14,0,24.27v7.5c0,3.49-.32,3.81-3.82,3.81H16.27v1.18c0,1,0,2,0,3,0,2.2,0,4.28,0,6.38a7.11,7.11,0,0,0,6.91,7.18c.48,0,1,.05,1.66.05h1.63l1,0c1.73.06,2.44.76,2.46,2.41,0,3.48,0,6.91,0,10.19,0,1.62-.76,2.33-2.46,2.35-1,0-2,0-3,0s-1.91,0-2.86,0A20.85,20.85,0,0,1,2.11,57.61c-1.19-4.3-.94-19.89-.82-28.27l0-.94v-.14c0-.26,0-.55,0-.89,0-8.9,0-16.28,0-23.22,0-2.35.63-3,3-3H14.92M23.3,69.64h3.36V61.38l-1.06-.11c-.53-.06-1.06-.1-1.58-.14A20.61,20.61,0,0,1,21,60.75a10.28,10.28,0,0,1-7.88-10C13,47,13,43.17,13.06,39.5c0-1.94.75-2.63,2.79-2.64H26.62V4.52H4.47V25.21c0,1.44,0,4.48,0,8,0,7.77,0,17.43.15,20A17.42,17.42,0,0,0,22.07,69.63H23.3M14.92,0H4.27C1.26,0,.09,1.14.08,4.14q0,11.63,0,23.23a10,10,0,0,0,.05,1C0,37.09-.3,53.3,1,57.92A22,22,0,0,0,21.56,74c1,0,1.93,0,2.89,0s2,0,3.06,0c2.32,0,3.59-1.24,3.62-3.52.05-3.4,0-6.81,0-10.22,0-2.28-1.26-3.49-3.59-3.57-.35,0-.7,0-1.06,0H24.85c-.53,0-1.06,0-1.58,0a5.92,5.92,0,0,1-5.81-6c-.07-3,0-6.06,0-9.37h8.69c4.14,0,5-.86,5-5q0-15.88,0-31.77C31.14,1.08,30.09,0,26.76,0ZM23.3,68.46H22.09A16.31,16.31,0,0,1,5.8,53.08c-.25-3.66-.1-23.36-.15-27.88,0-5.84,0-11.67,0-17.51v-2H25.44v30h-9.6c-2.65,0-3.94,1.21-4,3.81,0,3.77-.08,7.55,0,11.33a11.45,11.45,0,0,0,8.78,11.07,37.23,37.23,0,0,0,4.81.55v6Z"/><path class="cls-2" d="M67.13,73.46h-3a21.49,21.49,0,0,1-21.6-21.56c0-11.9,0-24,0-35.71v-12c0-2.65.9-3.54,3.59-3.54H68.77c2.69,0,3.61.89,3.63,3.52,0,1.61,0,5.67,0,10.12,0,6.1,0,13,0,15.23,0,.2,0,.4,0,.58,0,1.7,0,3.34,0,5V36.6c0,3.3-.76,4.06-4,4.06H58.75v3.56c0,2.13,0,4.18,0,6.22,0,4.06,2.6,6.67,6.69,6.83.37,0,.73,0,1.1,0h1.73c.42,0,.83,0,1.25,0,1.82.09,2.77,1,2.82,2.63.1,3.72.1,7.39,0,10.92-.06,2.07-1.58,2.54-2.84,2.57Q68.32,73.46,67.13,73.46ZM47,6c0,.22,0,.44,0,.65V19.12q0,16.3,0,32.62A16.92,16.92,0,0,0,61,68.74a25,25,0,0,0,4.27.33l2,.06.62,0V61.84l-1.65-.11c-.76,0-1.49-.09-2.23-.17a10.78,10.78,0,0,1-9.62-10.39c-.09-3.89-.06-7.86,0-11.69V39.3c0-2.08,1-3,3.14-3H68V33.94c0-1.27,0-2.51,0-3.74a6.71,6.71,0,0,1,0-.76c.06-2.56,0-13.39,0-19.87V5.1H47Z"/><path class="cls-2" d="M57.35,1.18H68.77c2.39,0,3,.6,3,2.93,0,1.61,0,5.73,0,10.09,0,6.11,0,13,0,15.27,0,.18,0,.35,0,.52v.12c0,1.65,0,3.33,0,4.95V36.6c0,3-.49,3.47-3.43,3.47H58.16v4.15c0,2.15,0,4.18,0,6.23,0,4.4,2.83,7.24,7.26,7.41.37,0,.74,0,1.12,0h1.73c.41,0,.81,0,1.22,0,2,.1,2.23,1.22,2.26,2.06.1,3.7.1,7.36,0,10.88,0,.49-.06,2-2.26,2l-2.35,0h-3a20.91,20.91,0,0,1-21-21c0-11.9,0-24,0-35.69q0-6,0-12c0-2.32.64-2.95,3-2.95H57.35M68.48,69.79v-8.5l-1.1-.08-1.09-.07c-.77,0-1.49-.09-2.21-.17A10.19,10.19,0,0,1,55,51.15c-.09-3.87-.06-7.83,0-11.65v-.2c0-1.74.73-2.42,2.55-2.44H68.6V35.67c0-.58,0-1.16,0-1.74,0-1.26,0-2.49,0-3.73v-.13a4.14,4.14,0,0,1,0-.62c.06-2.56,0-13.4,0-19.87V4.51H46.45l-.07,1.1,0,.29c0,.24,0,.47,0,.7V19.13c0,10.68,0,21.74,0,32.61A17.52,17.52,0,0,0,60.87,69.33a26.88,26.88,0,0,0,4.37.33c.65,0,1.33,0,2,.06l1.25.07M57.35,0H46.11c-3,0-4.18,1.15-4.19,4.13,0,15.91,0,31.83,0,47.74A22.08,22.08,0,0,0,64.13,74l3,0,2.38,0c2,0,3.35-1.13,3.41-3.14.11-3.65.11-7.31,0-11-.06-2-1.31-3.1-3.38-3.2-.43,0-.85,0-1.28,0H66.55c-.36,0-.72,0-1.08,0-3.77-.14-6.08-2.5-6.12-6.24,0-3,0-5.95,0-9.19h9c3.6,0,4.6-1,4.61-4.65,0-2.16,0-4.33,0-6.5,0-.2,0-.42,0-.64C73,25.62,73,8,73,4.11c0-3-1.2-4.1-4.22-4.1ZM67.3,68.54a46,46,0,0,1-6.21-.38A16.37,16.37,0,0,1,47.52,51.73c-.05-15,0-30.08,0-45.13,0-.29,0-.59.06-.91H67.42c0,3.37,0,20.47,0,23.74a6.32,6.32,0,0,0,0,.76c0,1.8,0,3.61,0,5.48H57.5c-2.45,0-3.7,1.21-3.72,3.61,0,4-.07,7.93,0,11.89A11.31,11.31,0,0,0,64,62.14c1.09.12,2.2.17,3.35.25v6.15Z"/></svg>