<?xml version="1.0" encoding="utf-8"?>
<!-- Generator: Adobe Illustrator 24.0.1, SVG Export Plug-In . SVG Version: 6.00 Build 0)  -->
<svg version="1.1" id="Layer_1" xmlns="http://www.w3.org/2000/svg" xmlns:xlink="http://www.w3.org/1999/xlink" x="0px" y="0px"
	 viewBox="0 0 738.9 461.8" style="enable-background:new 0 0 738.9 461.8;" xml:space="preserve">
<style type="text/css">
	.st0{fill:#FFFFFF;stroke:#FFFFFF;stroke-width:4;stroke-miterlimit:10;}
	.st1{clip-path:url(#SVGID_2_);fill:none;stroke:#6661E3;stroke-width:4.2604;}
	.st2{clip-path:url(#SVGID_2_);fill:#6661E3;}
	.st3{fill:#FF2B8B;}
	.st4{clip-path:url(#SVGID_4_);fill:url(#SVGID_5_);}
	.st5{opacity:0.1;clip-path:url(#SVGID_4_);}
	.st6{fill:#C54DF5;}
	.st7{fill:#6960E4;}
	.st8{fill:#FF36CD;}
</style>
<path class="st0" d="M714.4,454H27.8c-10.3,0-18.6-8.3-18.6-18.6V26.6C9.2,16.3,17.6,8,27.8,8h686.5c10.3,0,18.6,8.3,18.6,18.6
	v408.8C732.9,445.7,724.6,454,714.4,454z"/>
<g>
	<defs>
		<rect id="SVGID_1_" x="34.9" y="24" width="375.3" height="430.2"/>
	</defs>
	<clipPath id="SVGID_2_">
		<use xlink:href="#SVGID_1_"  style="overflow:visible;"/>
	</clipPath>
	<path class="st1" d="M381.6,34.5H85.3C58.6,34.5,37,56.1,37,82.8v371.4"/>
	<path class="st2" d="M402.6,40c-1.9,1.5-4.5,2.9-6.7,3.9c-0.1,0.1-0.4,0.1-0.5,0c-1.7-0.7-3.4-1.5-5-2.5c-0.6-0.4-1.2-0.8-1.8-1.3
		c-3.1-2.4-4-5.6-4-5.6c-0.2-0.9-0.3-1.9-0.1-3c0.4-2.2,1.7-3.5,3.9-3.8c2.3-0.3,4.3,0.4,6.1,2c0.3,0.3,0.6,0.6,1,0.8
		c0.4-0.4,0.8-0.8,1.2-1.1c1.8-1.5,3.8-2.1,6.1-1.8c1.9,0.3,3.1,1.4,3.6,3.2c0.2,0.8,0.1,2.1,0,3c0,0.1,0,0.2,0,0.3
		C406.1,36.7,402.6,40,402.6,40 M409.7,29.7c-0.8-2.8-2.7-4.7-5.6-5.4c-3-0.8-5.8-0.1-8.5,1.5c-0.2,0.1-0.3,0.1-0.6,0
		c-2.4-1.4-4.9-1.9-7.6-1.5c-2.7,0.5-4.7,1.9-5.8,4.3c-0.9,2-1.1,4.1-0.7,6.2c0.3,2.6,2.3,5,2.3,5c0.7,0.9,1.6,1.8,2.5,2.6
		c2.8,2.4,6.1,4.1,9.6,5.2c0.2,0.1,0.4,0.1,0.5,0c2.3-0.8,4.5-1.9,6.5-3.2c0.4-0.2,0.8-0.6,1.3-0.9c0.3-0.2,0.6-0.4,0.9-0.7
		c2.3-1.9,3.8-4.2,3.8-4.2c0.1-0.2,0.4-0.7,0.4-0.8C410.3,35.4,410.6,32.6,409.7,29.7"/>
</g>
<g>
	<path class="st3" d="M149.4,275v16.2l-5.6,0.9l-4.2-11.4h-8.5v41.8l6.7,2.5l-0.8,5.6h-22.7l-0.8-5.6l6.7-2.5v-41.8h-8.4l-4.2,11.4
		l-5.6-0.9V275H149.4z"/>
	<path class="st3" d="M179.7,298.3l-0.9-4.7l10.2-1l4,1.2v30.1l5.1,1.7l-1,4.8h-10.8l-2.4-1.8c-3,2.1-6.6,2.7-10.5,2.7
		c-9.1,0-14.4-5.9-14.4-14.5v-18.5h-3.2l-0.9-4.7l9.5-1l4.6,1.1v23.8c0,5.9,4,8,7.2,8c2.1,0,5.1-1.1,6.7-3v-24.2H179.7z"/>
	<path class="st3" d="M225.8,293.5l-1,4.8h-9.5v22.9c0,2.7,2,4.4,3.4,4.4c2,0,4.6-1.5,6.7-3.8l3.4,4.2c-3.1,3.2-6.4,5.3-11.4,5.3
		c-7.9,0-12.1-4.7-12.1-10.7v-22.3h-4.5l-0.8-4.4l5.9-1.8l3.4-8.4l5.9,1.3v8.4H225.8z"/>
	<path class="st3" d="M271.6,312c0,12.1-6.9,19.3-19.7,19.3c-12.8,0-19.8-7.5-19.8-19.3c0-11.8,7.8-19.3,19.8-19.3
		C263.8,292.6,271.6,299.8,271.6,312z M242.3,311.7c0,8.7,3.4,14.6,9.6,14.6c6,0,9.7-5.8,9.7-14.6c0-8.9-3.8-14.1-9.7-14.1
		C246,297.6,242.3,303,242.3,311.7z"/>
	<path class="st3" d="M302.8,298.6c-0.6-0.2-2.1-0.3-3.2-0.3c-1.6,0-4.8,0.7-7.1,1.6v24l6.6,1.7l-1,4.8h-19.6l-1-4.8l5-1.7v-25.6
		H279l-1-4.8l10.3-0.9l3.2,2.1c2.5-0.9,6.6-2.1,10.2-2.1c2.5,0,5.1,0.6,8.2,1.7v9.2l-5.3,1L302.8,298.6z"/>
	<path class="st3" d="M333.1,330.5h-18.2l-1-4.8l5.1-1.7v-25.6h-3.6l-0.9-4.8l9.7-0.9l4.8,0.9v30.4l5.1,1.7L333.1,330.5z
		 M328.5,280.4c0,2.8-2.3,5.1-5.1,5.1c-2.8,0-5.1-2.4-5.1-5.1c0-2.9,2.4-5.1,5.1-5.1C326.2,275.3,328.5,277.6,328.5,280.4z"/>
	<path class="st3" d="M355.9,292.6c10.2,0,16.3,5.3,16.3,14.9v16.4l4.4,1.7l-1,4.8h-10.1l-2.4-1.8c-2.4,1.7-5.6,2.7-10.2,2.7
		c-7.1,0-13.4-3.8-13.4-11c0-10.8,12.6-13.2,22.6-13.2v-2.8c0-4.5-3.2-6.7-6.7-6.7c-1.9,0-4.4,0.5-5.9,0.9l-1.7,6l-5.3-1v-7.6
		C347.2,293.7,351.9,292.6,355.9,292.6z M350.5,319.6c0,4.5,3.2,5.9,5.5,5.9c2.1,0,4.9-1.2,6.3-3.2V312
		C354.9,312,350.5,315.1,350.5,319.6z"/>
	<path class="st3" d="M400.6,330.5h-19l-1-4.8l5.5-1.7V277H382l-0.9-4.5l10.3-1.2l4.7,1.2v51.4l5.5,1.7L400.6,330.5z"/>
	<path class="st3" d="M121.2,409.1c-12.8,0-19.6-7.4-19.6-19.1c0-11.7,8.2-19.6,20-19.6c2.1,0,4.8,0.4,6.9,1v-16.6h-4.3l-0.9-4.5
		l10.5-1.2l4.7,1.2v51.4l5.1,1.7l-1,4.8h-10.8l-2.4-1.8C127.8,407.9,124.3,409.1,121.2,409.1z M122.1,376.1c-6.2,0-9.7,4.9-9.7,13.2
		c0,8.3,4,14.1,9.3,14.1c2.4,0,5.1-0.7,6.8-2.5v-23.2C126.9,376.7,124.1,376.1,122.1,376.1z"/>
	<path class="st3" d="M181.5,399.7l2.7,4c-5.1,4.1-10.1,5.4-15.3,5.4c-15.1,0-21.6-7.7-21.6-19.4c0-12.1,9-19.3,20.3-19.3
		c9.5,0,17.3,5.1,17.3,12.8c0,2.1-0.8,5-1.7,6.7h-25c0.2,7.9,4.4,13.5,11.2,13.5C173.3,403.3,177.4,402.4,181.5,399.7z M174.8,382.7
		c0-4.7-3.2-7.3-7.3-7.3c-5.1,0-8.5,3.9-9.2,9.6h16.2C174.7,384.2,174.8,383.4,174.8,382.7z"/>
	<path class="st3" d="M236.5,402.6l-1,5.6h-22.5l-1-5.6l6.7-2.5V361l-6.7-2.6l1-5.6h22.5l1,5.6l-6.7,2.6v39.1L236.5,402.6z"/>
	<path class="st3" d="M259,377.7v24l5.1,1.7l-0.9,4.8h-18.3l-0.9-4.8l5-1.7v-25.6h-3.6l-0.9-4.8l10.1-0.9l3.2,2.1
		c2.6-0.9,6.6-2.1,9.9-2.1c9.2,0,15.1,4.8,15.1,13.4v17.9l5,1.7l-1,4.8h-18.1l-1-4.8l5-1.7v-19.1c0-4.1-3.6-6.5-7.1-6.5
		C263.8,376.1,261.1,377,259,377.7z"/>
	<path class="st3" d="M293.9,405.8v-9.3l5.3-1l2.7,7.8c1.3,0.5,4,0.8,5.1,0.8c3.9,0,7.3-1.3,7.3-4.3c0-2.5-4.3-4.8-7.8-6.4
		c-5.2-2.5-12.4-5.8-12.4-12.7c0-6.7,6.2-10.3,15.7-10.3c4.4,0,8.8,1.3,12.2,3.3v7.6l-5.4,1l-1.7-6.1c-1.9-0.5-4-0.8-5.9-0.8
		c-3.2,0-5.8,1.7-5.8,4.1c0,3.1,6.3,4.9,10.3,6.8c5.5,2.6,9.9,5.1,9.9,11.3c0,7-6.2,11.5-15.8,11.5C304.1,409,298.4,408,293.9,405.8
		z"/>
	<path class="st3" d="M340.5,388.3c0,8.3,2.8,15.1,10.9,15.1c3.5,0,7.9-1.3,11.4-3.6l2.7,4c-3.9,3.6-9.3,5.4-14.5,5.4
		c-14.3,0-21.3-7.7-21.3-19.3c0-12.2,9-19.4,21.5-19.4c3.8,0,8.6,1,13.2,3.3v7.6l-5.3,1l-1.7-5.9c-1.7-0.6-4.5-1-6-1
		C344.9,375.4,340.5,380.2,340.5,388.3z"/>
	<path class="st3" d="M395.3,376.4c-0.6-0.2-2.1-0.3-3.2-0.3c-1.6,0-4.8,0.7-7.1,1.6v24l6.6,1.7l-1,4.8H371l-1-4.8l5-1.7v-25.6h-3.6
		l-1-4.8l10.3-0.9l3.2,2.1c2.5-0.9,6.6-2.1,10.2-2.1c2.5,0,5.1,0.6,8.2,1.7v9.2l-5.3,1L395.3,376.4z"/>
	<path class="st3" d="M425.5,408.2h-18.2l-1-4.8l5.1-1.7v-25.6h-3.6l-0.9-4.8l9.7-0.9l4.8,0.9v30.4l5.1,1.7L425.5,408.2z
		 M420.9,358.2c0,2.8-2.3,5.1-5.1,5.1c-2.8,0-5.1-2.4-5.1-5.1c0-2.9,2.4-5.1,5.1-5.1C418.6,353,420.9,355.3,420.9,358.2z"/>
	<path class="st3" d="M443.7,388.3c0,8.3,2.8,15.1,10.9,15.1c3.5,0,7.9-1.3,11.4-3.6l2.7,4c-3.6,3.3-8.5,5.1-13.3,5.4v2.2
		c2.6,0.2,6.5,1.7,6.5,5.9c0,6.4-6.9,8.6-11.6,8.6l-1.6-4.4c4.1,0,6.5-1.6,6.5-3.7c0-1.3-0.8-2.5-2.3-2.5h-2.4v-6.3
		c-11.8-1.2-17.6-8.5-17.6-19.1c0-12.2,9-19.4,21.5-19.4c3.8,0,8.6,1,13.2,3.3v7.6l-5.3,1l-1.7-5.9c-1.7-0.6-4.5-1-6-1
		C448,375.4,443.7,380.2,443.7,388.3z"/>
	<path class="st3" d="M489.1,370.4c10.2,0,16.3,5.3,16.3,14.9v16.4l4.4,1.7l-1,4.8h-10.1l-2.4-1.8c-2.4,1.7-5.6,2.7-10.2,2.7
		c-7.1,0-13.4-3.8-13.4-11c0-10.8,12.6-13.2,22.6-13.2v-2.8c0-4.5-3.2-6.7-6.7-6.7c-1.9,0-4.4,0.5-5.9,0.9l-1.7,6l-5.3-1v-7.6
		C480.4,371.4,485.1,370.4,489.1,370.4z M485.8,359.7l-6.6,4.1l-2.5-1.7l7.4-9.1h2.7l7.9,3.2l6.9-3.3l2.4,1.7l-7.4,9.1h-2.9
		L485.8,359.7z M483.7,397.4c0,4.5,3.2,5.9,5.5,5.9c2.1,0,4.9-1.2,6.3-3.2v-10.4C488,389.8,483.7,392.9,483.7,397.4z"/>
	<path class="st3" d="M553.3,389.7c0,12.1-6.9,19.3-19.7,19.3c-12.8,0-19.8-7.5-19.8-19.3s7.8-19.3,19.8-19.3
		C545.6,370.4,553.3,377.6,553.3,389.7z M524,389.5c0,8.7,3.4,14.6,9.6,14.6c6,0,9.7-5.8,9.7-14.6c0-8.9-3.8-14.1-9.7-14.1
		S524,380.8,524,389.5z"/>
</g>
<g>
	<defs>
		<path id="SVGID_3_" d="M714.4,454H27.8c-10.3,0-18.6-8.3-18.6-18.6V26.6C9.2,16.3,17.6,8,27.8,8h686.5c10.3,0,18.6,8.3,18.6,18.6
			v408.8C732.9,445.7,724.6,454,714.4,454z"/>
	</defs>
	<clipPath id="SVGID_4_">
		<use xlink:href="#SVGID_3_"  style="overflow:visible;"/>
	</clipPath>
	<linearGradient id="SVGID_5_" gradientUnits="userSpaceOnUse" x1="691.4957" y1="234.5" x2="732.4957" y2="234.5">
		<stop  offset="0" style="stop-color:#FF36CD"/>
		<stop  offset="1" style="stop-color:#C54DF5"/>
	</linearGradient>
	<rect x="691.5" y="-3" class="st4" width="41" height="475"/>
	<g class="st5">
		<path class="st6" d="M269.8,477.1c0.5-1,0.9-1.8,1.2-2.7c14.2-34.1,37-71.5,59.8-100.6c1.4-1.8,4.2-3.3,6.6-3.7
			c28-4,56.2-5.7,84.5-4c11.2,0.7,22.3,1.8,33.3,3.6c29.5-8.2,55.7-24.2,71.4-35.3c-16.6-7.1-34.2-12.1-52.4-15.6
			c-55.1-10.5-110.2-8.4-165.1,1.9c-2.4,0.5-5.1,1.9-6.7,3.7c-24.5,27.5-44.8,57.8-61.9,90.3c-5.2,10-13.3,26.6-18.2,36.7
			c6.5,3.5,15.2,6,21.5,9.4C253.3,466.1,260.8,470.9,269.8,477.1"/>
		<path class="st6" d="M630.1,470c-2.7-33.4-15.5-62.3-36.6-86.8c-12.8,11.9-30,22.8-44.3,30.9c9.9,10.7,17.7,23.3,23,38.4
			c11.1,31.9,3.2,59.2-24.1,78.9c-28.4,20.5-60.2,26.2-94.4,19c-6.3-1.3-12.5-2.6-19-3.9c-2.7,8.3-5.1,16.2-7.9,23.8
			c-12.1,32.6-34.1,56.2-66.7,68.7c-26.8,10.3-50.8,4.8-71.2-15.6c-10.2-10.2-18-30.7-23.4-44.1c-1.1-2.8-3-5.6-5.3-7.4
			c-8.7-6.8-17.5-13.5-26.6-19.7c-9.4-6.3-19.3-11.8-30-18.3c0,2.6,0.4,12.2,0.4,13.1c0.6,45.6,16.9,84.8,49.6,116.4
			c32,30.9,70.3,41.3,113.4,29.5c45.4-12.4,77.9-41.4,100.4-82.1c1.8-3.2,3.5-4.3,7.2-4.2c41.4,0.8,78.9-10.7,111.2-36.8
			C617.5,544.3,633.4,510.9,630.1,470"/>
		<path class="st7" d="M55.8,497.4c5.6,21.8,8.1,43,2.4,64.5c-0.5,1.9-10,10.9-11.6,12.3c-17.4,16.6-32.1,35.2-40.9,57.9
			c-9,23.5-10.2,47.3-2.5,71.3c8.7,27.3,28.4,41.9,56.3,45c34.4,3.8,64.8-6.4,90.9-29.2c5.3-4.6,10.5-9.4,16-14.3
			c6.8,6,13.1,12.2,20.1,17.6c29.5,23,62.4,32.3,99.4,23.3c15-3.6,26.8-12.2,35.5-25c0.8-1.2,5.8-12.2,7.1-12.1
			c19.2,1.2,37.7-1.5,55.9-7.6c0.4-0.1,0.9,0,1.8,0.1c-2.8,12.3-10.6,33.5-17,44.1c-19.9,33.4-50,51.3-88,56.1
			c-40,5-77.1-4-111.3-25c-2.6-1.6-4.3-1.5-6.8,0.1c-30.2,18.6-63.1,27.3-98.6,26.1C3.7,800.6-41.9,761-52.5,701.2
			c-9.2-52.1,4.9-97.9,37.3-138.8C2.6,540,31.8,514.3,55.8,497.4"/>
		<path class="st7" d="M141.8,511.5c-2.3-17.6-6.2-31.3-13.7-48.8c9.8-5.9,27.2-13.5,37.6-17.1c1-0.4,2.5,0.1,3.6,0.5
			c60.6,21.2,115.9,51.2,161.7,96.9c16.9,16.8,34.7,44.8,44.9,66.4c0.7,1.4,1.3,2.9,1.9,4.3c0.2,0.4,0.3,0.9,0.5,1.7
			c-13.5,9.7-27.5,17.8-45.2,15.5c-5.2-0.7-8.6-2.9-11.4-7.8c-14.9-26-40.2-54.8-64.2-72.1c-27.1-19.5-56.5-35-87.5-47.4
			c-2.2-0.9-5.2-0.7-7.5,0c-4.6,1.4-9.1,3.6-13.6,5.4C148.7,509.1,141.6,511.5,141.8,511.5"/>
		<path class="st3" d="M274.7,250.5c-5.6-21.8-8.1-43-2.4-64.5c0.5-1.9,2.2-3.8,3.7-5.2c17.4-16.6,40-42.4,48.7-65.1
			c9-23.5,10.2-47.3,2.5-71.3C318.5,17,298.9,2.4,271-0.6c-34.4-3.8-64.8,6.4-90.9,29.2c-5.3,4.6-10.5,9.4-16,14.3
			c-6.8-6-13.1-12.2-20.1-17.6C114.6,2.2,81.7-7.1,44.7,1.9c-15,3.6-26.8,12.2-35.5,25c-0.8,1.2-2.7,2.5-4,2.4
			c-19.2-1.2-37.7,1.5-55.9,7.6c-0.4,0.1-0.9,0-1.8-0.1c2.8-12.3,7.4-23.8,13.8-34.4c19.9-33.4,50-51.3,88-56.1
			c40-5,77.1,4,111.3,25c2.6,1.6,4.3,1.5,6.8-0.1c30.2-18.6,63.1-27.3,98.6-26.1c60.7,2,106.3,41.6,116.9,101.4
			c9.2,52.1-4.9,97.9-37.3,138.8C328,207.8,298.7,233.5,274.7,250.5"/>
		<path class="st3" d="M192,232.1c0.6,8.7,2.4,17.7,4.6,26.6c2.2,8.6,5.2,17.1,8.7,26c-9.8,3.5-30.1,13.9-40.5,17.5
			c-1,0.4-2.5-0.1-3.6-0.5c-60.6-21.2-115.9-51.2-161.7-96.9C-17.4,188-31.4,169-41.6,147.4c-0.7-1.4-1.3-2.9-1.9-4.3
			c-0.2-0.4-0.3-0.9-0.5-1.7c13.5-9.7,27.5-17.8,45.2-15.5c5.2,0.7,8.6,2.9,11.4,7.8c14.9,26,36.4,45.8,60.4,63.1
			c27.1,19.5,56.5,35,87.5,47.4c2.2,0.9,5.2,0.7,7.5,0c4.6-1.4,19.1-10.2,23.6-12.1C191.8,232,192.2,232.1,192,232.1"/>
		<path class="st8" d="M292.8,321.5c-9.2-16-17.4-32.6-23.9-50.1c-10.7-28.4-17-57.5-11.8-88c4.6-27.4,17.4-50.3,39.8-67
			c5.2-3.9,8.3-8.1,10.1-14c4.8-16.1,5.6-32.1,0.8-48.7c-10.4,1.9-20,5.5-28.9,10.6c-39.2,22.6-62.3,57.2-72.9,100.3
			c-8.5,34.8-4.8,69.3,5.3,103.2c10.2,34.1,25.2,65.6,43.7,95.1L292.8,321.5z"/>
		<path class="st8" d="M627.5,255.9c-3.4-29.2-16.3-53.5-38.1-72.9c-33.4-29.7-73.1-42.6-117.4-41.8c-3.5,0.1-5.2-1-6.8-4.1
			c-13-24.6-31.1-44.6-54-60.4c-1.2-0.8-2.5-1.5-3.7-2.2c-0.9,10.2-1.2,20-2.8,29.6c-1.5,9.6-4.4,19-6.4,28.5
			c-0.3,1.4,0.4,3.4,1.4,4.5c13.3,14,22.3,30.4,27.8,48.9c1.5,5.2,3.4,10.3,5.1,15.4c1.7-0.3,2.8-0.4,3.9-0.6c4-0.8,8-1.7,12-2.6
			c34.2-7.9,66.2-2.9,95.4,16.7c28.2,19,37.3,46.6,26.8,78.9c-7.7,23.6-22.1,42.4-42.5,56.3c-26.3,18-56.2,25.7-87.4,29.5
			c-34.8,4.3-69.5,3-104.1-1.7c-2.5,2.6-7.6,7.3-14,17.9c-4.8,8-7.2,14.1-14.4,31.8c0.5,0.1,1,0.3,1.6,0.4
			c43.4,7.7,87.1,10,131.1,5.7c29.4-2.9,57.9-9,85-21c48.4-21.4,82-56.2,97-107.6c2.5-8.4,3.6-17.2,5.3-25.8v-19.9
			C628,258.3,627.6,257.1,627.5,255.9"/>
		<path class="st6" d="M-96.9,561.8c-1.5-5.2-3.4-10.3-5.1-15.4c-1.7,0.3-2.8,0.4-3.9,0.6c-4,0.8-8,1.7-12,2.6
			c-34.2,7.9-66.2,2.9-95.4-16.8c-28.2-19-37.3-46.6-26.8-78.9c5-15.5,13-28.8,23.7-40.2c-14.4-8.1-31.7-19.1-44.4-31.1
			c-14.1,16.8-24.8,36.6-31.6,59.9c-2.5,8.4-3.6,17.2-5.3,25.8v19.9c0.3,1.2,0.7,2.4,0.8,3.6c3.4,29.2,16.3,53.5,38.1,72.9
			c33.4,29.7,73.1,42.6,117.4,41.8c3.5-0.1,5.2,1,6.8,4.1c13,24.6,40.8,51.6,63.7,67.4c1.2,0.8,2.5,1.5,3.7,2.2
			c0.9-10.2,1.2-20,2.8-29.6c1.5-9.6,4.4-19,6.4-28.5c0.3-1.4-0.4-3.4-1.4-4.5C-72.8,603.6-91.4,580.3-96.9,561.8"/>
		<path class="st6" d="M119.3,480c-17.1-57.4-47.8-107.4-86.1-153c-3.4-4.1-7.2-6.4-12.5-7.3c-43.4-7.7-87.1-10-131.1-5.7
			c-28.7,2.8-56.7,8.8-83.3,20.3c15.6,11.1,42,27.2,71.7,35.5c3.9-0.6,7.9-1.2,11.9-1.7c35.5-4.4,70.9-3,106.2,2
			c1.9,0.3,4.2,1.5,5.4,3c24.9,31.7,46.1,65.5,60.3,103.3c10.7,28.4,17,57.5,11.8,88c-4.6,27.4-28.9,54.3-51.3,71
			c-5.2,3.9-8.3,8.1-10.1,14c-4.8,16.1-5.6,32.1-0.8,48.7c10.4-1.9,31.5-9.5,40.3-14.6c39.2-22.6,62.3-57.2,72.9-100.3
			C133.1,548.4,129.4,513.9,119.3,480"/>
		<path class="st3" d="M59.7,267.5c-0.5,1-0.9,1.8-1.2,2.7c-6.3,15.1-14.1,31.5-22.8,47.6l38.9,42.5c5.5-9,10.7-18.1,15.6-27.5
			c5.2-10,12.3-29.8,17.1-39.8c-9-4.8-18.2-7.8-26.9-12.5C73.3,276.8,65.9,272.4,59.7,267.5"/>
		<path class="st8" d="M77,84.3C45,53.3,6.7,43-36.4,54.8c-45.4,12.4-77.9,41.4-100.4,82.1c-1.8,3.2-3.5,4.3-7.2,4.2
			c-41.4-0.8-78.9,10.7-111.2,36.8c-31.7,25.6-47.6,59-44.3,99.9c3.2,40.4,21.2,74.2,50.8,101.6c29.7,27.6,66,41.9,105.2,49.4
			c55.1,10.5,110.2,8.4,165.1-1.9c0.1,0,0.3-0.1,0.4-0.1C14.4,408,12,401.9,7,393.7c-5.3-8.9-9.7-13.6-12.5-16.4
			c-0.5,0.1-0.9,0.3-1.4,0.3c-28,4-56.2,5.7-84.5,4c-29-1.8-57.4-6.4-84.2-18.1c-31.3-13.7-54.7-35.2-66.2-68.1
			c-11.1-31.9-3.2-59.2,24.1-78.9c28.4-20.5,60.2-26.2,94.4-19c6.3,1.3,12.5,2.6,19,3.9c2.7-8.3,5.1-16.2,7.9-23.8
			c12.1-32.6,34.1-56.2,66.7-68.7c26.8-10.3,50.8-4.8,71.2,15.6c10.2,10.2,17.3,32,22.7,45.3c1.1,2.8,3,5.6,5.3,7.4
			c8.7,6.8,17.5,13.5,26.6,19.7c9.4,6.3,19.3,11.8,30,18.3c0-2.6,0.4-13.4,0.4-14.3C126,155.1,109.7,115.9,77,84.3"/>
	</g>
</g>
<g>
</g>
<g>
</g>
<g>
</g>
<g>
</g>
<g>
</g>
<g>
</g>
<g>
</g>
<g>
</g>
<g>
</g>
<g>
</g>
<g>
</g>
<g>
</g>
<g>
</g>
<g>
</g>
<g>
</g>
</svg>
