<?xml version="1.0" encoding="utf-8"?>
<!-- Generator: Adobe Illustrator 24.0.2, SVG Export Plug-In . SVG Version: 6.00 Build 0)  -->
<svg version="1.1" xmlns="http://www.w3.org/2000/svg" xmlns:xlink="http://www.w3.org/1999/xlink" x="0px" y="0px"
	 viewBox="0 0 410 90" style="enable-background:new 0 0 410 90;" xml:space="preserve">
<style type="text/css">
	.st0{display:none;}
	.st1{display:inline;}
	.st2{fill:#FFEE00;}
	.st3{fill:#FFF566;}
	.st4{fill:#FFF899;}
	.st5{fill:#F4F4F4;}
</style>
<g id="Camada_1">
</g>
<g id="Camada_2">
</g>
<g id="Camada_3">
</g>
<g id="Camada_4">
</g>
<g id="Camada_5">
</g>
<g id="Camada_6" class="st0">
	<g class="st1">
		<path id="XMLID_9_" class="st2" d="M220.04,46.51C63.58,67.11-72.38,50.84-72.38,50.84c-7.26-0.9-9.41-2.29-9.95-3.27v25.77
			c0,0-2.27,2.92,9.95,4.43c0,0,142.34,20.43,292.42-4.33s199.19-43.86,655.2,3.36c0,0,27.77,3.6,69.33,5.94
			c-36.63-2.45-58.83-6.16-58.83-6.16C457.57,23.45,388.77,24.31,220.04,46.51z"/>
		<path id="XMLID_8_" class="st3" d="M914.08,49.11c-18.12-1.76-28.34-3.3-28.34-3.3c-18.29-1.63-39.83-4.34-62.93-7.69
			C713.62,22.28,614.58,1.26,614.58,1.26l-10.32-5.58H-82.33v2.6v48.14c0,0-0.37,0.48,0,1.15c0.55,0.98,2.69,2.38,9.95,3.27
			c0,0,135.96,16.27,292.42-4.33c168.72-22.21,237.53-23.07,665.7,30.06c0,0,22.2,3.72,58.83,6.16c22.74,1.52,51.04,2.55,83.04,1.89
			c41.65-0.85,89.57-4.56,139.66-13.75c9.32-1.71,18.72-3.61,28.17-5.72V40.99C1074.13,60.49,964.06,53.97,914.08,49.11z"/>
		<path id="XMLID_7_" class="st4" d="M587.76-4.32l26.82,5.58c0,0,99.04,21.02,208.23,36.87c23.1,3.35,44.64,6.06,62.93,7.69
			c0,0,10.23,1.54,28.34,3.3c49.98,4.85,160.05,11.38,281.36-8.12V-4.32H587.76z"/>
	</g>
	<g class="st1">
		<path id="XMLID_12_" class="st2" d="M221.07-92.94C64.61-72.35-71.35-88.61-71.35-88.61c-7.26-0.9-9.41-2.29-9.95-3.27v25.77
			c0,0-2.27,2.92,9.95,4.43c0,0,142.34,20.43,292.42-4.33s199.19-43.86,655.2,3.36c0,0,27.77,3.6,69.33,5.94
			c-36.63-2.45-58.83-6.16-58.83-6.16C458.6-116,389.8-115.15,221.07-92.94z"/>
		<path id="XMLID_11_" class="st3" d="M915.11-90.34c-18.12-1.76-28.34-3.3-28.34-3.3c-18.29-1.63-39.83-4.34-62.93-7.69
			c-109.19-15.85-208.23-36.87-208.23-36.87l-10.32-5.58H-81.3v2.6v48.14c0,0-0.37,0.48,0,1.15c0.55,0.98,2.69,2.38,9.95,3.27
			c0,0,135.96,16.27,292.42-4.33C389.8-115.15,458.6-116,886.77-62.87c0,0,22.2,3.72,58.83,6.16c22.74,1.52,51.04,2.55,83.04,1.89
			c41.65-0.85,89.57-4.56,139.66-13.75c9.32-1.71,18.72-3.61,28.17-5.72v-24.17C1075.16-78.96,965.09-85.49,915.11-90.34z"/>
		<path id="XMLID_10_" class="st4" d="M588.79-143.77l26.82,5.58c0,0,99.04,21.02,208.23,36.87c23.1,3.35,44.64,6.06,62.93,7.69
			c0,0,10.23,1.54,28.34,3.3c49.98,4.85,160.05,11.38,281.36-8.12v-45.31H588.79z"/>
	</g>
	<g class="st1">
		<path id="XMLID_6_" class="st2" d="M404.15-1429.11c-70.4,20.59-504.08,4.33-504.08,4.33c-0.37-0.1-0.7-0.21-1.02-0.32
			c-1.69-0.61-3.46,0.65-3.46,2.45v20.36c0,0-1.02,2.92,4.48,4.43c0,0,436.55,20.43,504.08-4.33
			c67.53-24.75,422.34-43.86,627.52,3.36c0,0,12.49,3.59,31.19,5.94c-16.48-2.45-26.47-6.16-26.47-6.16
			C843.74-1452.17,480.06-1451.31,404.15-1429.11z"/>
		<path id="XMLID_5_" class="st3" d="M1049.14-1426.51c-8.15-1.76-12.75-3.3-12.75-3.3c-8.23-1.63-17.92-4.34-28.31-7.69
			c-49.13-15.85-93.69-36.87-93.69-36.87l-4.64-5.58H-101.81c-1.44,0-2.6,1.16-2.6,2.6l0,0v48.14c0,0-0.17,0.48,0,1.15
			c0.25,0.98,1.21,2.38,4.48,3.27c0,0,433.68,16.27,504.08-4.33c75.92-22.21,439.59-23.07,632.24,30.06c0,0,9.99,3.72,26.47,6.16
			c10.23,1.52,22.96,2.55,37.36,1.89c18.74-0.85,40.3-4.56,62.84-13.75c4.19-1.71,8.42-3.61,12.67-5.72v-24.17
			C1121.15-1415.13,1071.63-1421.66,1049.14-1426.51z"/>
		<path id="XMLID_4_" class="st4" d="M902.31-1479.94l12.07,5.58c0,0,44.56,21.02,93.69,36.87c10.39,3.35,20.08,6.06,28.31,7.69
			c0,0,4.6,1.54,12.75,3.3c22.49,4.85,72.01,11.38,126.6-8.12v-45.31H902.31z"/>
	</g>
</g>
<g id="Camada_7">
	<g>
		<g>
			<g>
				<path id="XMLID_33_" class="st5" d="M94.22,56.27C45.73,74.01,3.59,60,3.59,60c-2.25-0.77-2.92-1.97-3.09-2.82v22.19
					c0,0-0.7,2.51,3.09,3.81c0,0,44.12,17.59,90.63-3.73s75.65-37.77,216.99,2.9c0,0,8.61,3.1,21.49,5.12
					c-11.35-2.11-18.23-5.31-18.23-5.31C181.76,36.41,146.51,37.15,94.22,56.27z"/>
				<path id="XMLID_32_" class="st5" d="M322.8,58.51c-5.61-1.51-8.78-2.84-8.78-2.84c-5.67-1.41-12.35-3.74-19.5-6.62
					C260.67,35.4,216.05,9.29,216.05,9.29l-3.2-4.8H0.05v2.24v49.46c0,0-0.12,0.41,0,0.99c0.17,0.85,0.83,2.05,3.09,2.82
					c0,0,42.14,14.01,90.63-3.73c52.29-19.12,87.54-19.86,220.24,25.89c0,0,6.88,3.2,18.23,5.31c7.05,1.31,15.82,2.19,25.74,1.63
					c12.91-0.73,27.76-3.93,43.29-11.84c2.89-1.47,5.8-3.11,8.73-4.93V51.52C372.4,68.31,338.29,62.69,322.8,58.51z"/>
				<path id="XMLID_31_" class="st5" d="M208.19,4.49l8.31,4.8c0,0,44.62,26.11,78.46,39.76c7.16,2.89,13.83,5.22,19.5,6.62
					c0,0,3.17,1.33,8.78,2.84c15.49,4.18,49.61,9.8,86.75-6.99V4.49H208.19z"/>
			</g>
		</g>
		<g>
			<path id="XMLID_128_" class="st2" d="M93.79,51.86C45.31,69.59,3.17,55.59,3.17,55.59c-2.25-0.77-2.92-1.97-3.08-2.82v22.19
				c0,0-0.7,2.51,3.08,3.81c0,0,44.11,17.59,90.62-3.73s75.64-37.77,216.96,2.9c0,0,8.61,3.1,21.49,5.12
				c-11.35-2.11-18.23-5.31-18.23-5.31C181.32,32,146.08,32.74,93.79,51.86z"/>
			<path id="XMLID_127_" class="st3" d="M322.79,54.1c-5.61-1.51-8.78-2.84-8.78-2.84c-5.67-1.41-12.34-3.74-19.5-6.62
				c-33.84-13.65-78.45-39.76-78.45-39.76l-3.2-4.8H0.09v2.24v49.46c0,0-0.12,0.41,0,0.99c0.17,0.85,0.83,2.05,3.08,2.82
				c0,0,42.13,14.01,90.62-3.73C146.08,32.74,181.32,32,314.01,77.75c0,0,6.88,3.2,18.23,5.31c7.05,1.31,15.82,2.19,25.73,1.63
				c12.91-0.73,27.76-3.93,43.28-11.84c2.89-1.47,5.8-3.11,8.73-4.93V47.11C372.39,63.89,338.28,58.28,322.79,54.1z"/>
			<path id="XMLID_126_" class="st4" d="M207.75,0.08l8.31,4.8c0,0,44.61,26.11,78.45,39.76c7.16,2.89,13.83,5.22,19.5,6.62
				c0,0,3.17,1.33,8.78,2.84c15.49,4.18,49.6,9.8,87.19-6.99V0.08H207.75z"/>
		</g>
	</g>
</g>
<g id="Camada_8">
</g>
<g id="Camada_9">
</g>
<g id="Camada_10">
</g>
</svg>
