<?xml version="1.0" encoding="utf-8"?>
<!-- Generator: Adobe Illustrator 24.0.2, SVG Export Plug-In . SVG Version: 6.00 Build 0)  -->
<svg version="1.1" xmlns="http://www.w3.org/2000/svg" xmlns:xlink="http://www.w3.org/1999/xlink" x="0px" y="0px"
	 viewBox="0 0 1920 90" style="enable-background:new 0 0 1920 90;" xml:space="preserve">
<style type="text/css">
	.st0{fill:#FFEE00;}
	.st1{fill:#FFF566;}
	.st2{fill:#FFF899;}
	.st3{display:none;}
	.st4{display:inline;}
	.st5{fill:#F4F4F4;}
</style>
<g id="Camada_1">
</g>
<g id="Camada_2">
</g>
<g id="Camada_3">
</g>
<g id="Camada_4">
</g>
<g id="Camada_5">
</g>
<g id="Camada_6" class="st3">
</g>
<g id="Camada_7">
</g>
<g id="Camada_8">
</g>
<g id="Camada_9">
	<g>
		<g>
			<g>
				<path id="XMLID_84_" class="st5" d="M554.27,55.68C418.54,73.72,10.08,59.47,10.08,59.47c-6.3-0.79-8.16-2.01-8.63-2.87v22.58
					c0,0-1.97,2.55,8.63,3.88c0,0,413.99,17.9,544.19-3.79s211.75-38.44,607.35,2.95c0,0,24.09,3.15,60.14,5.21
					c-31.78-2.14-51.04-5.4-51.04-5.4C799.29,35.46,700.64,36.21,554.27,55.68z"/>
				<path id="XMLID_83_" class="st5" d="M1194.01,57.95c-15.72-1.54-24.59-2.89-24.59-2.89c-15.87-1.43-34.56-3.8-54.59-6.74
					c-94.72-13.89-219.6-40.46-219.6-40.46l-8.95-4.89H0.14v2.28v50.34c0,0-0.32,0.42,0,1.01c0.47,0.86,2.34,2.08,8.63,2.87
					c0,0,408.46,14.26,544.19-3.79c146.37-19.46,245.02-20.22,616.45,26.35c0,0,19.26,3.26,51.04,5.4
					c19.73,1.33,44.28,2.23,72.04,1.66c36.13-0.75,559.62-4,603.07-12.05c8.09-1.5,16.24-3.17,24.44-5.01V50.84
					C1814.76,67.92,1237.36,62.21,1194.01,57.95z"/>
				<path id="XMLID_82_" class="st5" d="M873.27,2.97l23.26,4.89c0,0,124.88,26.57,219.6,40.46c20.04,2.94,38.72,5.31,54.59,6.74
					c0,0,8.87,1.35,24.59,2.89c43.36,4.25,620.76,9.97,724.69-7.12V2.97H873.27z"/>
			</g>
		</g>
		<g>
			<path id="XMLID_27_" class="st0" d="M553.08,51.18C417.37,69.23,8.92,54.98,8.92,54.98c-6.3-0.79-8.16-2.01-8.63-2.87v22.58
				c0,0-1.97,2.55,8.63,3.88c0,0,280.49,26.68,544.16-3.79c132.14-15.27,211.73-38.44,607.27,2.95c0,0,24.09,3.15,60.14,5.21
				c-31.77-2.14-51.03-5.4-51.03-5.4C798.06,30.97,699.43,31.72,553.08,51.18z"/>
			<path id="XMLID_26_" class="st1" d="M1194.04,54.97c-15.71-1.54-24.58-2.89-24.58-2.89c-15.87-1.43-34.55-3.8-54.58-6.74
				C1020.16,31.45,895.3,4.88,895.3,4.88l-8.95-4.89H0.29v2.28V52.6c0,0-0.32,0.42,0,1.01c0.47,0.86,2.34,2.08,8.63,2.87
				c0,0,367.57,31.12,544.16-3.79c46.07-9.11,94.52-10.96,142.52-12.17c61.22-1.54,122.51,1.87,183.26,6.81
				c97.34,7.92,196.2,17.62,291.94,31.81c38.78,5.75,81.72,7.78,121.72,6.95c36.13-0.75,559.61-4,603.05-12.05
				c8.09-1.5,16.24-3.17,24.43-5.01V47.85C1814.77,64.94,1237.39,59.22,1194.04,54.97z"/>
			<path id="XMLID_25_" class="st2" d="M872.03-0.01l23.26,4.89c0,0,124.87,26.57,219.57,40.46c20.03,2.94,38.72,5.31,54.58,6.74
				c0,0,8.87,1.35,24.58,2.89c43.35,4.25,620.74,9.97,725.96-7.12V-0.01H872.03z"/>
		</g>
	</g>
</g>
<g id="Camada_10">
</g>
</svg>
