<svg id="Layer_1" data-name="Layer 1" xmlns="http://www.w3.org/2000/svg" viewBox="0 0 95.54 108.75"><defs><style>.cls-1{fill:#e197f9;}.cls-2{fill:#ff36ce;opacity:0.44;}.cls-3{fill:#ffa9ea;}.cls-4{fill:none;stroke-width:3.08px;}.cls-4,.cls-5{stroke:#6960e5;stroke-miterlimit:10;}.cls-5{fill:#ff2b8c;stroke-width:3.77px;}.cls-6{fill:#fff;}.cls-7{fill:#6960e5;}</style></defs><path class="cls-1" d="M28.36,77.6,24.9,81.26c-1.47-1.3-1.69-4.86-.15-6.58,1.87-2.09,3.89-4.05,5.84-6.07.3-.32.58-.67.87-1l2.9,2.2c-.89.85-1.76,1.67-2.62,2.51s-1.92,2-2.92,2.9A1.75,1.75,0,0,0,28.36,77.6Z"/><path class="cls-2" d="M3.65,91.51s0,.09,0,0Z"/><path class="cls-2" d="M3.65,91.51h0v0h0Z"/><path class="cls-3" d="M55,61.13a9.9,9.9,0,0,0-.86-.74,5.69,5.69,0,0,0-7.32.92q-8,8-16,16c-1,1-1.37,1-2.51.33L24.9,81.26c-1.47-1.3-1.69-4.86-.15-6.58,1.4-1.56,2.87-3.05,4.34-4.54h.11l0-.13c.45-.46.91-.92,1.36-1.39.3-.32.58-.67.87-1L30.1,66.12l7.19-31.94L22.81,41.5s-4.83,1.83-8,13.65S9,71.59,9,71.59l1.47-.1c-.23.79-.46,1.58-.7,2.38,1,.73,1.12,1.12.72,2.28-1.18,3.33-2.42,6.64-3.51,10a10.32,10.32,0,0,1-3.26,5.34L14.92,103c1.19-1.16,2.35-2.34,3.58-3.46A2,2,0,0,1,19.73,99a21.19,21.19,0,0,0,15.93-7.31A21.11,21.11,0,0,0,41,79.86a3.36,3.36,0,0,1,.88-1.81c3.37-3.45,6.75-6.91,10.23-10.24A8.23,8.23,0,0,0,55,61.13Z"/><path class="cls-4" d="M37.29,34.18,22.81,41.5s-4.83,1.83-8,13.65-4.27,16.44-4.27,16.44"/><path class="cls-5" d="M92.34,54.83,77.61,28.32c-4-7.15-8-14.31-12-21.41a9.87,9.87,0,0,0-16.2-1.45,28.37,28.37,0,0,0-2.6,4.23Q40.43,20.94,34.14,32.21c-4.25,7.6-8.61,15.14-12.67,22.85A10.11,10.11,0,0,0,30.6,69.88c8.78,0,17.55,0,26.32,0,9,0,18,0,27,0a9.06,9.06,0,0,0,7.77-4.16A9.86,9.86,0,0,0,92.34,54.83Z"/><path class="cls-6" d="M79.7,53.58q-7.59-13.51-15.15-27C63,23.74,61.38,21,59.87,18.13c-.83-1.56-2.7-2.73-4.52-1.9A4.15,4.15,0,0,0,53.29,18c-2.78,4.78-5.45,9.64-8.16,14.47-3.94,7-7.91,14.07-11.79,21.14a5.36,5.36,0,0,0-.69,2.91c.2,2.13,1.74,3.25,4.07,3.26H74.26c.35,0,.71,0,1.06-.06A10.35,10.35,0,0,0,78,59.54C80.34,58.75,81.06,56,79.7,53.58Zm-23.19.23a2.06,2.06,0,0,1-2-1.9,2.09,2.09,0,0,1,2-2.09,2,2,0,0,1,2,1.93A1.93,1.93,0,0,1,56.51,53.81Zm2-10.27c0,1.44-.79,2.34-2,2.34a2.1,2.1,0,0,1-2-2.32c0-5.78,0-11.56,0-17.35a2.1,2.1,0,0,1,2-2.33c1.24,0,2,.9,2,2.43,0,2.85,0,5.71,0,8.56S58.48,40.65,58.47,43.54Z"/><path class="cls-3" d="M37.37,68.3c0-.39,10.65-15.87,17.5-10s4.77,10.4-.12,15S35.05,77,35.05,77Z"/><path class="cls-1" d="M14.92,103c1.19-1.16,2.35-2.34,3.58-3.46A2,2,0,0,1,19.73,99a21.19,21.19,0,0,0,15.93-7.31A21.11,21.11,0,0,0,41,79.86a3.36,3.36,0,0,1,.88-1.81c3.37-3.45,6.75-6.91,10.23-10.24A8.23,8.23,0,0,0,55,61.13a5.59,5.59,0,0,1,.33,7.9c-1.24,1.38-2.59,2.65-3.9,4-2.53,2.53-5,5.07-7.59,7.57a3.19,3.19,0,0,0-1,2.09,46.56,46.56,0,0,1-.94,6.9A15.3,15.3,0,0,1,27.21,100.9c-1.53,0-3.07,0-4.6-.06a2.26,2.26,0,0,0-1.85.78c-1.16,1.22-2.37,2.41-3.51,3.57Z"/><path class="cls-7" d="M58.82,61.47a8.36,8.36,0,0,0-8.15-4.86,8.5,8.5,0,0,0-5.94,2.71c-2.06,2.06-4.13,4.09-6.2,6.13,0,0-5.33,6-5.7,6.14a.73.73,0,0,1-.28-.06l-.81.79c-1,1-1.92,2-2.92,2.9a1.75,1.75,0,0,0-.46,2.38c1.14.67,1.55.62,2.51-.33q8-8,16-16a5.69,5.69,0,0,1,7.32-.92,9.9,9.9,0,0,1,.86.74,5.59,5.59,0,0,1,.33,7.9c-1.24,1.38-2.59,2.65-3.9,4-2.53,2.53-5,5.07-7.59,7.57a3.19,3.19,0,0,0-1,2.09,46.56,46.56,0,0,1-.94,6.9A15.3,15.3,0,0,1,27.21,100.9c-1.53,0-3.07,0-4.6-.06a2.26,2.26,0,0,0-1.85.78c-1.16,1.22-2.37,2.41-3.51,3.57L14.92,103,3.67,91.49a10.32,10.32,0,0,0,3.26-5.34C8,82.79,11.16,74,12.34,70.71c0-.11.07-.22.1-.32s.09-.21.14-.33c.32-.88.62-1.77.93-2.65h0c-.16-.25.91-4.82,1.66-7.92a11.26,11.26,0,0,0-3.62,4.86c-.6,1.55-1.08,3.13-1.66,4.68a1.9,1.9,0,0,0-.09.29c-.06.12-.11.26-.17.41-1,3-4.09,11.35-5,14.37A12.4,12.4,0,0,1,.72,90.39c-1,.81-.92,1.6,0,2.52l15.18,15.18a1.48,1.48,0,0,0,2.47,0c1.3-1.28,2.56-2.6,3.88-3.85a1.92,1.92,0,0,1,1.14-.48c1.28,0,2.56,0,3.83,0a18.16,18.16,0,0,0,17.4-13.09,66.91,66.91,0,0,0,1.14-7.26,2.39,2.39,0,0,1,.58-1.22c1.89-1.95,3.84-3.84,5.73-5.79,1.8-1.61,3.92-3.84,3.92-3.84.51-.55,1.05-1.08,1.54-1.64A8.49,8.49,0,0,0,58.82,61.47Zm-55.17,30c0,.09,0,0,0,0Z"/><path class="cls-7" d="M59.77,27.21c-.14,1.51-.26,2.95-.39,4.39l-.45,5c-.16,1.74-.31,3.48-.47,5.22-.1,1.12-.2,2.24-.29,3.37A1.88,1.88,0,0,1,56,47.05a1.91,1.91,0,0,1-1.59-1.82c-.24-2.63-.46-5.26-.7-7.9-.29-3.21-.57-6.43-.87-9.64a3.39,3.39,0,0,1,1.31-3.19,3.33,3.33,0,0,1,3.76-.33A3.39,3.39,0,0,1,59.77,27.21Z"/><path class="cls-7" d="M56.28,55.05a2.64,2.64,0,0,1-2.64-2.65,2.66,2.66,0,1,1,5.31.06A2.63,2.63,0,0,1,56.28,55.05Z"/></svg>