<?xml version="1.0" encoding="utf-8"?>
<!-- Generator: Adobe Illustrator 24.0.1, SVG Export Plug-In . SVG Version: 6.00 Build 0)  -->
<svg version="1.1" id="Layer_1" xmlns="http://www.w3.org/2000/svg" xmlns:xlink="http://www.w3.org/1999/xlink" x="0px" y="0px"
	 viewBox="0 0 73 65" style="enable-background:new 0 0 73 65;" xml:space="preserve">
<style type="text/css">
	.st0{opacity:0.51;fill:#FFFFFF;enable-background:new    ;}
	.st1{fill:#FFFFFF;}
</style>
<g>
	<path class="st0" d="M36.5,64.8c-0.9,0-1.5-0.6-2-1.1c-0.1-0.1-0.2-0.2-0.3-0.3l-5.7-4.8C21.8,52.9,15,47.1,8.3,41.4
		C4.4,38,1.8,33.6,0.8,28.3C-0.6,20.8,0.9,14,5.4,8.1C8.6,4,12.7,1.4,17.6,0.5c5.8-1.1,11.1,0.3,15.8,4.2c0.9,0.7,1.7,1.4,2.5,2.1
		l0.5,0.5L39,5.1c3.1-2.6,6.5-4.2,10.2-4.7C54.9-0.4,60,1.1,64.4,4.9c4.2,3.5,6.9,8.2,7.8,13.9c1.2,7.1-0.3,13.6-4.4,19.2
		c-0.9,1.2-2.1,2.5-3.4,3.6C57.2,47.8,49.9,54,42.7,60.2l-4.1,3.5C38.1,64.2,37.4,64.8,36.5,64.8L36.5,64.8z M21.2,3
		c-1,0-2.1,0.1-3.1,0.3c-4.2,0.8-7.7,3-10.5,6.5c-4,5.2-5.4,11.2-4,18c0.9,4.7,3.1,8.6,6.6,11.5c6.7,5.8,13.4,11.5,20.2,17.2
		l5.7,4.8c0.1,0.1,0.3,0.2,0.4,0.4c0,0,0,0,0.1,0.1l0.1-0.1c0.1-0.1,0.2-0.2,0.4-0.3l3.9-3.3c7.3-6.2,14.5-12.4,21.8-18.6
		c1.2-1,2.2-2.1,3-3.1c3.7-5,5-10.7,3.9-17.1c-0.9-5-3.2-9.1-6.9-12.2c-3.8-3.2-8.2-4.5-13-3.8c-3.2,0.4-6,1.8-8.7,4.1l-3.5,3
		c-0.5,0.4-1.2,0.5-1.8,0.1l0.8-1.1l-0.9,1c-0.1-0.1-0.2-0.1-0.3-0.2l-1.2-1c-0.8-0.7-1.6-1.4-2.4-2.1C28.5,4.3,25,3,21.2,3z"/>
</g>
<g>
	<path class="st1" d="M30.4,43.5c1.7,0,3.2-0.3,4.5-1c1.4-0.7,2.4-1.6,3.2-2.8c0.8-1.2,1.2-2.4,1.2-3.8c0-1.7-0.4-2.9-1.3-3.6
		c-0.9-0.7-2.1-1.1-3.7-1.1c-0.8,0-1.7,0.1-2.6,0.3c-0.9,0.2-1.7,0.5-2.4,0.7l-1.4-1l1.8-13.8h12l0.4-0.7h2.7l-0.9,5.1H33.7
		l-1.4,7.1c1.9-1,3.9-1.4,5.8-1.4c2.6,0,4.6,0.6,5.9,1.9c1.3,1.3,2,3.1,2,5.4c0,2.2-0.7,4.2-2,6c-1.3,1.8-3.1,3.1-5.4,4.1
		c-2.3,1-4.9,1.4-7.8,1.4c-0.9,0-1.8-0.1-2.6-0.3v-2.7C29,43.4,29.7,43.5,30.4,43.5z"/>
</g>
</svg>
