<?xml version="1.0" encoding="utf-8"?>
<!-- Generator: Adobe Illustrator 25.2.0, SVG Export Plug-In . SVG Version: 6.00 Build 0)  -->
<svg version="1.1" id="Layer_1" xmlns="http://www.w3.org/2000/svg" xmlns:xlink="http://www.w3.org/1999/xlink" x="0px" y="0px"
	 viewBox="0 0 73 65" style="enable-background:new 0 0 73 65;" xml:space="preserve">
<style type="text/css">
	.st0{opacity:0.51;}
	.st1{fill:#FFFFFF;}
	.st2{opacity:0.51;fill:#FFFFFF;}
</style>
<g>
	<g class="st0">
		<g>
			<path class="st1" d="M55.8,64.8H17.2c-8.8,0-15.9-7.1-15.9-15.9V16.1c0-8.8,7.1-15.9,15.9-15.9h38.6c8.8,0,15.9,7.1,15.9,15.9
				v32.7C71.7,57.7,64.6,64.8,55.8,64.8z M17.2,2.4C9.7,2.4,3.5,8.6,3.5,16.1v32.7c0,7.5,6.1,13.7,13.7,13.7h38.6
				c7.5,0,13.7-6.1,13.7-13.7V16.1c0-7.5-6.1-13.7-13.7-13.7H17.2z"/>
		</g>
		<g>
			<path class="st2" d="M55.8,64.8H17.2c-8.8,0-15.9-7.1-15.9-15.9V16.1c0-8.8,7.1-15.9,15.9-15.9h38.6c8.8,0,15.9,7.1,15.9,15.9
				v32.7C71.7,57.7,64.6,64.8,55.8,64.8z M17.2,2.4C9.7,2.4,3.5,8.6,3.5,16.1v32.7c0,7.5,6.1,13.7,13.7,13.7h38.6
				c7.5,0,13.7-6.1,13.7-13.7V16.1c0-7.5-6.1-13.7-13.7-13.7H17.2z"/>
		</g>
	</g>
	<g>
		<g>
			<path class="st1" d="M53.7,46.2c0,0.8,0,1.5,0,2.2c-0.1,1.6-0.8,2.9-2.2,3.7c-0.6,0.4-1.3,0.6-2.1,0.6c-6.7,0-13.5,0-20.2,0
				c-1.3,0-2.5,0-3.8,0c-2.3,0-4.2-1.9-4.2-4.3c0-0.6,0-1.3,0-1.9c0-0.1,0-0.2,0-0.3c-0.5,0-1,0-1.4,0c-0.3,0-0.7,0-1,0
				c-1.1-0.2-1.9-1.1-1.9-2.2c0-3.6,0-7.2,0-10.8c0-0.7,0-1.4,0-2.1c0-1.2,0.9-2.1,2.1-2.2c0.6,0,1.2,0,1.9,0c0.1,0,0.2,0,0.4,0
				c0-0.1,0-0.2,0-0.3c0-4.2,0-8.4,0-12.6c0-2,1.2-3.6,3.1-4.2c0.4-0.1,0.9-0.2,1.4-0.2c6.3,0,12.5,0,18.8,0c0.4,0,0.7,0.1,1,0.4
				c2.7,2.7,5.4,5.4,8.1,8.1c0.1,0.1,0.2,0.3,0.2,0.5c0,2.7,0,5.4,0,8c0,0.1,0,0.2,0,0.3c0.1,0,0.2,0,0.3,0c0.6,0,1.2,0,1.8,0
				c1.4,0,2.3,0.9,2.3,2.3c0,4.3,0,8.5,0,12.8c0,1.4-0.9,2.3-2.3,2.3c-0.6,0-1.2,0-1.7,0C53.9,46.2,53.8,46.2,53.7,46.2z M51.5,22.3
				c-0.1,0-0.2,0-0.3,0c-0.8,0-1.7,0-2.5,0c-0.7,0-1.5,0-2.2-0.1c-2.1-0.3-3.7-2.1-3.7-4.2c0-1.4,0-2.7,0-4.1c0-0.1,0-0.2,0-0.3
				c-0.1,0-0.2,0-0.2,0c-5.5,0-11,0-16.4,0c-0.3,0-0.6,0-0.9,0c-1.2,0.1-2,1-2,2.3c0,4.2,0,8.4,0,12.6c0,0.3,0,0.3,0.3,0.3
				c9.2,0,18.4,0,27.5,0c0.1,0,0.2,0,0.3,0C51.5,26.6,51.5,24.5,51.5,22.3z M23.4,46.2c0,0,0,0.1,0,0.1c0,0.7,0,1.5,0,2.2
				c0,0.7,0.4,1.2,0.9,1.6c0.4,0.3,0.9,0.4,1.4,0.4c5.5,0,11,0,16.5,0c2.4,0,4.8,0,7.1,0c1.2,0,2.1-0.8,2.2-1.9c0.1-0.8,0-1.6,0-2.4
				c0,0,0,0,0,0C42.1,46.2,32.7,46.2,23.4,46.2z M32,37.5c0,2,0,4,0,6c0,0.2,0.1,0.3,0.3,0.3c0.6,0,1.2,0.1,1.9,0.1
				c1.4,0.1,2.9,0,4.3-0.4c1.9-0.5,3.3-1.7,4-3.6c0.4-1.3,0.5-2.5,0.4-3.9c-0.1-1.1-0.5-2.1-1.2-3c-1.1-1.3-2.6-1.9-4.3-2.1
				c-1.7-0.2-3.3-0.1-5,0.1c-0.3,0-0.3,0.1-0.3,0.4C32,33.5,32,35.5,32,37.5z M21.2,44c0.9,0,1.8,0,2.7,0c0-1.5,0-3.1,0-4.6
				c0.1,0,0.2,0,0.3,0c0.7,0,1.4,0,2.1-0.1c1.9-0.3,3.1-1.5,3.5-3.3c0.2-1.2,0.1-2.4-0.6-3.4c-0.7-1-1.8-1.4-3-1.6
				c-1.6-0.2-3.1-0.1-4.7,0.1c-0.2,0-0.3,0.1-0.3,0.3c0,4,0,8.1,0,12.1C21.2,43.8,21.2,43.9,21.2,44z M53.7,31c-2.9,0-5.8,0-8.6,0
				c0,4.3,0,8.7,0,13c1.1,0,2.1,0,3.2,0c0-1.7,0-3.5,0-5.2c1.7,0,3.4,0,5.1,0c0-0.8,0-1.6,0-2.4c-1.7,0-3.4,0-5.1,0c0-1,0-2,0-3
				c1.8,0,3.6,0,5.4,0C53.7,32.6,53.7,31.8,53.7,31z"/>
			<path class="st1" d="M39.9,37.3c0,0.7-0.1,1.5-0.4,2.2c-0.5,1.3-1.5,2-2.8,2.2c-0.6,0.1-1.1,0-1.7,0.1c-0.2,0-0.2-0.1-0.2-0.3
				c0-2.6,0-5.3,0-7.9c0-0.1,0-0.3,0.2-0.3c1.1-0.1,2.2-0.1,3.3,0.4c0.9,0.5,1.4,1.4,1.6,2.4C39.9,36.5,39.9,36.9,39.9,37.3z"/>
			<path class="st1" d="M23.9,35.2c0-0.6,0-1.1,0-1.7c0-0.1,0-0.2,0.2-0.2c0.7-0.1,1.3-0.1,1.9,0.1c0.8,0.3,1.3,1.1,1.2,2
				c-0.2,1.1-0.9,1.7-2.1,1.8c-0.3,0-0.6,0-1,0c-0.2,0-0.2-0.1-0.2-0.2C23.9,36.3,23.9,35.8,23.9,35.2
				C23.9,35.2,23.9,35.2,23.9,35.2z"/>
		</g>
	</g>
</g>
</svg>
