<?xml version="1.0" encoding="utf-8"?>
<!-- Generator: Adobe Illustrator 24.0.1, SVG Export Plug-In . SVG Version: 6.00 Build 0)  -->
<svg version="1.1" id="Layer_1" xmlns="http://www.w3.org/2000/svg" xmlns:xlink="http://www.w3.org/1999/xlink" x="0px" y="0px"
	 viewBox="0 0 58.4 25.3" style="enable-background:new 0 0 58.4 25.3;" xml:space="preserve">
<style type="text/css">
	.st0{fill:#FFFFFF;}
	.st1{fill:none;}
</style>
<polygon class="st0" points="51.2,5.4 48,5.4 54.8,13.8 48,22.2 51.2,22.2 58,13.8 "/>
<g>
	<rect x="-2" y="0.5" class="st1" width="42.4" height="24.5"/>
	<path class="st0" d="M9.9,12.8c-0.5,0-0.9-0.1-1.3-0.3c-0.4-0.2-0.7-0.5-0.9-0.8c-0.2-0.4-0.3-0.8-0.3-1.3c0-0.5,0.1-1,0.4-1.4
		C8.1,8.7,8.5,8.4,9,8.2C9.3,8.1,9.6,8,10,7.9s0.7-0.1,1.1-0.2s0.7,0,1,0l0.4,0.5l-0.4,0.6c-0.2,0-0.4,0-0.7,0
		c-0.3,0-0.5,0.1-0.8,0.1C10.4,9,10.2,9,10,9.1C9.7,9.2,9.5,9.4,9.4,9.6C9.2,9.7,9.1,10,9.1,10.3c0,0.4,0.1,0.7,0.3,1
		c0.2,0.2,0.6,0.3,1,0.3c0.2,0,0.5,0,0.7-0.1c0.2-0.1,0.4-0.1,0.6-0.2c0.2-0.1,0.3-0.2,0.3-0.2l0.3,0.4L12.2,12
		c-0.2,0.2-0.5,0.4-0.9,0.6C10.9,12.8,10.4,12.8,9.9,12.8z M13.8,12.7h-1.6v-1.2h-0.1V6.9c0-0.5-0.1-0.8-0.4-1s-0.6-0.2-1.1-0.2
		c-0.3,0-0.6,0-1,0.1C9.4,5.8,9.1,5.9,8.8,6C8.5,6.1,8.3,6.2,8.2,6.3L7.8,5C7.9,5,8.1,4.9,8.4,4.7c0.3-0.1,0.7-0.2,1.1-0.3
		c0.4-0.1,0.9-0.2,1.3-0.2c0.6,0,1.2,0.1,1.6,0.2c0.5,0.1,0.8,0.4,1,0.8s0.4,1,0.4,1.7V12.7z"/>
	<path class="st0" d="M16.3,0.6H18V4l-0.1,1.5l0.1,0v6l-1.7,0.8V0.6z M19.2,12.9c-0.3,0-0.6,0-0.9-0.1c-0.3,0-0.6-0.1-0.9-0.2
		c-0.3-0.1-0.5-0.1-0.7-0.2c-0.2-0.1-0.3-0.1-0.4-0.2l1.7-0.9c0.1,0.1,0.3,0.2,0.6,0.2c0.2,0.1,0.5,0.1,0.9,0.1
		c0.4,0,0.8-0.1,1.1-0.4s0.6-0.6,0.8-1.1c0.2-0.5,0.3-1,0.3-1.7c0-1-0.2-1.7-0.5-2.2c-0.4-0.5-0.8-0.7-1.5-0.7c-0.4,0-0.7,0.1-1,0.2
		S18.1,6.1,18,6.2l-0.3-0.9c0.1-0.1,0.3-0.3,0.5-0.4s0.5-0.3,0.8-0.5s0.7-0.2,1.2-0.2c0.6,0,1.1,0.1,1.6,0.4C22.3,5,22.7,5.4,23,6
		c0.3,0.6,0.5,1.3,0.5,2.2c0,0.9-0.2,1.7-0.5,2.4s-0.8,1.2-1.5,1.6S20.1,12.9,19.2,12.9z"/>
	<path class="st0" d="M25.2,12.7V4.4h1.5l0.1,1.1l0.1,0.6v6.6H25.2z M26.8,6.6l-0.1-1.1c0.1-0.2,0.2-0.3,0.5-0.5s0.5-0.3,0.8-0.5
		c0.3-0.1,0.7-0.2,1-0.2c0.2,0,0.3,0,0.5,0c0.1,0,0.2,0,0.3,0.1V6c-0.1,0-0.2-0.1-0.3-0.1c-0.2,0-0.4-0.1-0.7-0.1
		c-0.3,0-0.6,0-0.8,0.1c-0.2,0.1-0.5,0.2-0.6,0.3S27,6.5,26.8,6.6z"/>
	<path class="st0" d="M32.2,2.9c-0.3,0-0.5-0.1-0.8-0.3c-0.2-0.2-0.3-0.4-0.3-0.8c0-0.2,0.1-0.4,0.2-0.6c0.1-0.2,0.3-0.3,0.5-0.4
		c0.2-0.1,0.4-0.2,0.6-0.2c0.4,0,0.6,0.1,0.8,0.3c0.2,0.2,0.3,0.4,0.3,0.7c0,0.3-0.1,0.6-0.4,0.9C32.8,2.8,32.5,2.9,32.2,2.9z
		 M31.4,12.7V4.4h1.7v8.3H31.4z"/>
	<path class="st0" d="M35.6,12.7V4.4H37l0.1,1.1l0.1,0.6v6.6H35.6z M37.2,6.6l-0.1-1.1c0.1-0.2,0.2-0.3,0.5-0.5s0.5-0.3,0.8-0.5
		c0.3-0.1,0.7-0.2,1-0.2c0.2,0,0.3,0,0.5,0c0.1,0,0.2,0,0.3,0.1V6c-0.1,0-0.2-0.1-0.3-0.1c-0.2,0-0.4-0.1-0.7-0.1
		c-0.3,0-0.6,0-0.8,0.1C38,6,37.8,6.1,37.6,6.2S37.3,6.5,37.2,6.6z"/>
	<path class="st0" d="M0.7,24.7v-8.3h1.5l0,0.9C2.5,17.1,2.7,17,3,16.8s0.6-0.3,1-0.4c0.4-0.1,0.7-0.2,1.1-0.2
		c0.6,0,1.1,0.1,1.4,0.3s0.6,0.5,0.8,1c0.2,0.5,0.2,1.1,0.2,1.9v5.2H5.9v-5.1c0-0.5,0-0.8-0.1-1.1c-0.1-0.3-0.2-0.5-0.4-0.6
		s-0.5-0.2-0.9-0.2c-0.3,0-0.6,0.1-0.9,0.2c-0.4,0.1-0.7,0.3-1,0.6v6.3H0.7z M7.5,18.4l-0.4-1.1c0.2-0.2,0.4-0.3,0.8-0.5
		c0.3-0.2,0.7-0.3,1-0.4s0.8-0.2,1.2-0.2c0.6,0,1.1,0.1,1.4,0.3c0.4,0.2,0.6,0.5,0.8,1s0.3,1.1,0.3,1.9v5.2h-1.7v-5.1
		c0-0.5,0-0.8-0.1-1.1c-0.1-0.3-0.2-0.5-0.4-0.6c-0.2-0.1-0.5-0.2-0.9-0.2c-0.3,0-0.6,0.1-1,0.2C8.1,18,7.8,18.2,7.5,18.4z"/>
	<path class="st0" d="M18.2,24.8c-1.2,0-2.1-0.4-2.7-1.1c-0.6-0.8-1-1.8-1-3.2c0-0.8,0.1-1.5,0.4-2.2c0.3-0.6,0.7-1.1,1.3-1.5
		s1.2-0.6,2-0.6c0.4,0,0.8,0,1.2,0.2s0.7,0.3,1,0.6c0.3,0.3,0.5,0.6,0.7,1c0.2,0.4,0.3,0.9,0.3,1.4c0,0.3,0,0.6,0,0.8
		c0,0.2,0,0.5-0.1,0.7h-5.7l0.1-1.1h4.1c0-0.4,0-0.8-0.1-1.1s-0.2-0.6-0.5-0.9c-0.2-0.2-0.6-0.3-1-0.3c-0.4,0-0.7,0.1-1,0.3
		c-0.3,0.2-0.5,0.6-0.7,1.1c-0.2,0.5-0.2,1.2-0.2,2.1c0,0.6,0.2,1.1,0.4,1.5s0.5,0.6,0.9,0.8c0.4,0.2,0.8,0.2,1.2,0.2
		c0.2,0,0.4,0,0.7-0.1c0.3,0,0.5-0.1,0.8-0.2c0.3-0.1,0.4-0.1,0.6-0.2l0.3,1c-0.2,0.1-0.4,0.3-0.7,0.4c-0.3,0.1-0.7,0.2-1,0.3
		C18.9,24.8,18.6,24.8,18.2,24.8z"/>
	<path class="st0" d="M23.3,24.7v-8.3h1.5l0,0.9c0.2-0.1,0.5-0.3,0.8-0.4c0.3-0.2,0.6-0.3,1-0.4s0.7-0.2,1.1-0.2
		c0.9,0,1.5,0.2,1.9,0.7c0.4,0.5,0.6,1.3,0.6,2.6v5.2h-1.7v-5.1c0-0.7-0.1-1.2-0.3-1.5s-0.6-0.4-1.2-0.4c-0.2,0-0.4,0-0.6,0.1
		s-0.5,0.1-0.7,0.2s-0.5,0.2-0.7,0.4v6.3H23.3z"/>
	<path class="st0" d="M35,24.8c-0.5,0-1-0.1-1.3-0.3s-0.6-0.4-0.8-0.7c-0.2-0.3-0.3-0.7-0.4-1.1c-0.1-0.4-0.1-0.9-0.1-1.5v-4.9h1.7
		v4.9c0,0.7,0.1,1.1,0.2,1.5c0.1,0.3,0.3,0.5,0.5,0.6c0.2,0.1,0.5,0.1,0.8,0.1c0.2,0,0.4,0,0.6-0.1s0.4-0.1,0.6-0.2
		c0.2-0.1,0.4-0.2,0.5-0.3v-6.5h1.7v8.5h-0.8c-0.2,0-0.4,0-0.5-0.1c-0.1-0.1-0.2-0.2-0.2-0.5v-0.6l0,0.3c-0.2,0.2-0.5,0.3-0.8,0.4
		s-0.6,0.2-0.9,0.3C35.6,24.8,35.3,24.8,35,24.8z"/>
</g>
<g>
</g>
<g>
</g>
<g>
</g>
<g>
</g>
<g>
</g>
<g>
</g>
<g>
</g>
<g>
</g>
<g>
</g>
<g>
</g>
<g>
</g>
<g>
</g>
<g>
</g>
<g>
</g>
<g>
</g>
</svg>
