<?xml version="1.0" encoding="utf-8"?>
<!-- Generator: Adobe Illustrator 25.2.0, SVG Export Plug-In . SVG Version: 6.00 Build 0)  -->
<svg version="1.1" id="Layer_1" xmlns="http://www.w3.org/2000/svg" xmlns:xlink="http://www.w3.org/1999/xlink" x="0px" y="0px"
	 viewBox="0 0 73 65" style="enable-background:new 0 0 73 65;" xml:space="preserve">
<style type="text/css">
	.st0{fill:#FFFFFF;}
</style>
<g>
	<path class="st0" d="M44.4,40.3c0-0.1,0.1-0.1,0.1-0.2c1.1-2.6,2.8-5.4,4.5-7.6c0.1-0.1,0.3-0.3,0.5-0.3c2.1-0.3,4.2-0.4,6.4-0.3
		c0.8,0.1,1.7,0.1,2.5,0.3c2.2-0.6,4.2-1.8,5.4-2.7c-1.3-0.5-2.6-0.9-3.9-1.2c-4.2-0.8-8.3-0.6-12.4,0.1c-0.2,0-0.4,0.1-0.5,0.3
		c-1.8,2.1-3.4,4.4-4.7,6.8c-0.4,0.8-1,2-1.4,2.8c0.5,0.3,1.1,0.5,1.6,0.7C43.1,39.4,43.7,39.8,44.4,40.3"/>
	<path class="st0" d="M71.5,39.7c-0.2-2.5-1.2-4.7-2.8-6.5c-1,0.9-2.3,1.7-3.3,2.3c0.7,0.8,1.3,1.8,1.7,2.9c0.8,2.4,0.2,4.5-1.8,5.9
		c-2.1,1.5-4.5,2-7.1,1.4c-0.5-0.1-0.9-0.2-1.4-0.3c-0.2,0.6-0.4,1.2-0.6,1.8c-0.9,2.5-2.6,4.2-5,5.2c-2,0.8-3.8,0.4-5.4-1.2
		c-0.8-0.8-1.4-2.3-1.8-3.3c-0.1-0.2-0.2-0.4-0.4-0.6c-0.7-0.5-1.3-1-2-1.5c-0.7-0.5-1.5-0.9-2.3-1.4c0,0.2,0,0.9,0,1
		c0,3.4,1.3,6.4,3.7,8.8c2.4,2.3,5.3,3.1,8.5,2.2c3.4-0.9,5.9-3.1,7.6-6.2c0.1-0.2,0.3-0.3,0.5-0.3c3.1,0.1,5.9-0.8,8.4-2.8
		C70.6,45.3,71.8,42.8,71.5,39.7"/>
	<path class="st0" d="M28.3,41.8c0.4,1.6,0.6,3.2,0.2,4.9c0,0.1-0.8,0.8-0.9,0.9c-1.3,1.3-2.4,2.6-3.1,4.4c-0.7,1.8-0.8,3.6-0.2,5.4
		c0.7,2.1,2.1,3.2,4.2,3.4c2.6,0.3,4.9-0.5,6.8-2.2c0.4-0.4,0.8-0.7,1.2-1.1c0.5,0.5,1,0.9,1.5,1.3c2.2,1.7,4.7,2.4,7.5,1.8
		c1.1-0.3,2-0.9,2.7-1.9c0.1-0.1,0.4-0.9,0.5-0.9c1.4,0.1,2.8-0.1,4.2-0.6c0,0,0.1,0,0.1,0c-0.2,0.9-0.8,2.5-1.3,3.3
		c-1.5,2.5-3.8,3.9-6.6,4.2c-3,0.4-5.8-0.3-8.4-1.9c-0.2-0.1-0.3-0.1-0.5,0c-2.3,1.4-4.8,2.1-7.4,2c-4.6-0.1-8-3.1-8.8-7.6
		c-0.7-3.9,0.4-7.4,2.8-10.5C24.2,45,26.5,43.1,28.3,41.8"/>
	<path class="st0" d="M34.7,42.9c-0.2-1.3-0.5-2.4-1-3.7c0.7-0.4,2.1-1,2.8-1.3c0.1,0,0.2,0,0.3,0c4.6,1.6,8.7,3.9,12.2,7.3
		c1.3,1.3,2.6,3.4,3.4,5c0.1,0.1,0.1,0.2,0.1,0.3c0,0,0,0.1,0,0.1c-1,0.7-2.1,1.3-3.4,1.2c-0.4-0.1-0.6-0.2-0.9-0.6
		c-1.1-2-3-4.1-4.8-5.4c-2-1.5-4.3-2.6-6.6-3.6c-0.2-0.1-0.4-0.1-0.6,0c-0.3,0.1-0.7,0.3-1,0.4C35.3,42.7,34.7,42.9,34.7,42.9"/>
	<path class="st0" d="M44.7,23.2c-0.4-1.6-0.6-3.2-0.2-4.9c0-0.1,0.2-0.3,0.3-0.4c1.3-1.3,3-3.2,3.7-4.9c0.7-1.8,0.8-3.6,0.2-5.4
		c-0.7-2.1-2.1-3.2-4.2-3.4c-2.6-0.3-4.9,0.5-6.8,2.2c-0.4,0.4-0.8,0.7-1.2,1.1c-0.5-0.5-1-0.9-1.5-1.3c-2.2-1.7-4.7-2.4-7.5-1.8
		c-1.1,0.3-2,0.9-2.7,1.9c-0.1,0.1-0.2,0.2-0.3,0.2c-1.4-0.1-2.8,0.1-4.2,0.6c0,0-0.1,0-0.1,0c0.2-0.9,0.6-1.8,1-2.6
		c1.5-2.5,3.8-3.9,6.6-4.2c3-0.4,5.8,0.3,8.4,1.9c0.2,0.1,0.3,0.1,0.5,0c2.3-1.4,4.8-2.1,7.4-2c4.6,0.1,8,3.1,8.8,7.6
		c0.7,3.9-0.4,7.4-2.8,10.5C48.8,20,46.6,21.9,44.7,23.2"/>
	<path class="st0" d="M38.5,21.8c0,0.7,0.2,1.3,0.3,2c0.2,0.6,0.4,1.3,0.7,2c-0.7,0.3-2.3,1-3.1,1.3c-0.1,0-0.2,0-0.3,0
		c-4.6-1.6-8.7-3.9-12.2-7.3c-1.3-1.3-2.3-2.7-3.1-4.3c-0.1-0.1-0.1-0.2-0.1-0.3c0,0,0-0.1,0-0.1c1-0.7,2.1-1.3,3.4-1.2
		c0.4,0.1,0.6,0.2,0.9,0.6c1.1,2,2.7,3.5,4.5,4.8c2,1.5,4.3,2.6,6.6,3.6c0.2,0.1,0.4,0.1,0.6,0C37,22.6,38.1,22,38.5,21.8
		C38.5,21.8,38.5,21.8,38.5,21.8"/>
	<path class="st0" d="M46.1,28.6c-0.7-1.2-1.3-2.5-1.8-3.8c-0.8-2.1-1.3-4.3-0.9-6.6c0.3-2.1,1.3-3.8,3-5c0.4-0.3,0.6-0.6,0.8-1.1
		c0.4-1.2,0.4-2.4,0.1-3.7c-0.8,0.1-1.5,0.4-2.2,0.8c-3,1.7-4.7,4.3-5.5,7.6c-0.6,2.6-0.4,5.2,0.4,7.8c0.8,2.6,1.9,4.9,3.3,7.2
		L46.1,28.6z"/>
	<path class="st0" d="M71.3,23.6c-0.3-2.2-1.2-4-2.9-5.5c-2.5-2.2-5.5-3.2-8.8-3.2c-0.3,0-0.4-0.1-0.5-0.3c-1-1.9-2.3-3.4-4.1-4.5
		c-0.1-0.1-0.2-0.1-0.3-0.2c-0.1,0.8-0.1,1.5-0.2,2.2c-0.1,0.7-0.3,1.4-0.5,2.1c0,0.1,0,0.3,0.1,0.3c1,1.1,1.7,2.3,2.1,3.7
		c0.1,0.4,0.3,0.8,0.4,1.2c0.1,0,0.2,0,0.3,0c0.3-0.1,0.6-0.1,0.9-0.2c2.6-0.6,5-0.2,7.2,1.3c2.1,1.4,2.8,3.5,2,5.9
		c-0.6,1.8-1.7,3.2-3.2,4.2c-2,1.4-4.2,1.9-6.6,2.2c-2.6,0.3-5.2,0.2-7.8-0.1c-0.2,0.2-0.6,0.6-1.1,1.3c-0.4,0.6-0.5,1.1-1.1,2.4
		c0,0,0.1,0,0.1,0c3.3,0.6,6.6,0.8,9.9,0.4c2.2-0.2,4.4-0.7,6.4-1.6c3.6-1.6,6.2-4.2,7.3-8.1c0.2-0.6,0.3-1.3,0.4-1.9v-1.5
		C71.3,23.8,71.3,23.7,71.3,23.6"/>
	<path class="st0" d="M16.8,46.7c-0.1-0.4-0.3-0.8-0.4-1.2c-0.1,0-0.2,0-0.3,0c-0.3,0.1-0.6,0.1-0.9,0.2c-2.6,0.6-5,0.2-7.2-1.3
		C5.9,43,5.2,41,6,38.5c0.4-1.2,1-2.2,1.8-3c-1.1-0.6-2.4-1.4-3.3-2.3c-1.1,1.3-1.9,2.8-2.4,4.5c-0.2,0.6-0.3,1.3-0.4,1.9v1.5
		c0,0.1,0.1,0.2,0.1,0.3c0.3,2.2,1.2,4,2.9,5.5c2.5,2.2,5.5,3.2,8.8,3.2c0.3,0,0.4,0.1,0.5,0.3c1,1.8,3.1,3.9,4.8,5.1
		c0.1,0.1,0.2,0.1,0.3,0.2c0.1-0.8,0.1-1.5,0.2-2.2c0.1-0.7,0.3-1.4,0.5-2.1c0-0.1,0-0.3-0.1-0.3C18.6,49.8,17.2,48,16.8,46.7"/>
	<path class="st0" d="M33,40.5c-1.3-4.3-3.6-8.1-6.5-11.5c-0.3-0.3-0.5-0.5-0.9-0.6c-3.3-0.6-6.6-0.8-9.9-0.4
		c-2.2,0.2-4.3,0.7-6.3,1.5c1.2,0.8,3.2,2.1,5.4,2.7c0.3,0,0.6-0.1,0.9-0.1c2.7-0.3,5.3-0.2,8,0.1c0.1,0,0.3,0.1,0.4,0.2
		c1.9,2.4,3.5,4.9,4.5,7.8c0.8,2.1,1.3,4.3,0.9,6.6c-0.3,2.1-2.2,4.1-3.9,5.3c-0.4,0.3-0.6,0.6-0.8,1.1c-0.4,1.2-0.4,2.4-0.1,3.7
		c0.8-0.1,2.4-0.7,3-1.1c3-1.7,4.7-4.3,5.5-7.6C34.1,45.6,33.8,43,33,40.5"/>
	<path class="st0" d="M28.5,24.5c0,0.1-0.1,0.1-0.1,0.2c-0.5,1.1-1.1,2.4-1.7,3.6l2.9,3.2c0.4-0.7,0.8-1.4,1.2-2.1
		c0.4-0.8,0.9-2.2,1.3-3c-0.7-0.4-1.4-0.6-2-0.9C29.6,25.2,29,24.9,28.5,24.5"/>
	<path class="st0" d="M29.9,10.7c-2.4-2.3-5.3-3.1-8.5-2.2c-3.4,0.9-5.9,3.1-7.6,6.2c-0.1,0.2-0.3,0.3-0.5,0.3
		c-3.1-0.1-5.9,0.8-8.4,2.8c-2.4,1.9-3.6,4.4-3.3,7.5c0.2,3,1.6,5.6,3.8,7.7c2.2,2.1,5,3.2,7.9,3.7c4.2,0.8,8.3,0.6,12.4-0.1
		c0,0,0,0,0,0c-0.6-1.4-0.8-1.9-1.1-2.5c-0.4-0.7-0.7-1-0.9-1.2c0,0-0.1,0-0.1,0c-2.1,0.3-4.2,0.4-6.4,0.3c-2.2-0.1-4.3-0.5-6.3-1.4
		c-2.4-1-4.1-2.7-5-5.1c-0.8-2.4-0.2-4.5,1.8-5.9c2.1-1.5,4.5-2,7.1-1.4c0.5,0.1,0.9,0.2,1.4,0.3c0.2-0.6,0.4-1.2,0.6-1.8
		c0.9-2.5,2.6-4.2,5-5.2c2-0.8,3.8-0.4,5.4,1.2c0.8,0.8,1.3,2.4,1.7,3.4c0.1,0.2,0.2,0.4,0.4,0.6c0.7,0.5,1.3,1,2,1.5
		c0.7,0.5,1.5,0.9,2.3,1.4c0-0.2,0-1,0-1.1C33.5,16,32.3,13.1,29.9,10.7"/>
</g>
</svg>
