<?xml version="1.0" encoding="utf-8"?>
<!-- Generator: Adobe Illustrator 24.0.1, SVG Export Plug-In . SVG Version: 6.00 Build 0)  -->
<svg version="1.1" id="Layer_1" xmlns="http://www.w3.org/2000/svg" xmlns:xlink="http://www.w3.org/1999/xlink" x="0px" y="0px"
	 viewBox="0 0 90.3 90.3" style="enable-background:new 0 0 90.3 90.3;" xml:space="preserve">
<style type="text/css">
	.st0{fill:#6960E5;}
	.st1{fill:#6960E5;stroke:#6960E5;stroke-width:1.7573;stroke-miterlimit:10;}
	.st2{fill:#FF36CE;}
	.st3{fill:#E1EBFB;}
	.st4{fill:#FFFFFF;stroke:#FFFFFF;stroke-width:1.5975;stroke-miterlimit:10;}
</style>
<g>
	<path class="st0" d="M25.3,5.4c-4.1,1.5-7.7,3.8-10.9,6.7c-4.2,3.9-7.3,8.5-9.3,13.8c-0.2,0.5-0.7,1.1-1.2,1.3
		c-0.4,0.2-1.1,0-1.4-0.4c-0.3-0.3-0.4-1.1-0.3-1.5c1-3.1,2.5-6,4.3-8.7C12,8.5,19.6,3.3,29.1,1c1.7-0.4,3.4-0.6,5.1-0.8
		c0.2,0,0.4-0.1,0.6-0.2c2,0,4.1,0,6.1,0c1.4,0.2,2.7,0.5,4.1,0.7c14.7,2.7,27,15.1,29.6,29.8c1.9,11-0.4,21-7.1,30
		c-0.1,0.1-0.1,0.2-0.2,0.3c0.2,0.2,0.3,0.4,0.5,0.6c1.2,1.2,2.5,2.4,3.7,3.7c0.7,0.7,1.4,1.3,2.5,1.5c1,0.2,1.9,0.8,2.7,1.5
		c4,3.9,8,7.9,11.9,11.9c2.4,2.5,2.4,6.2,0.1,8.6c-2.4,2.4-6.1,2.3-8.6-0.1c-4-3.9-7.9-7.9-11.8-11.8c-1-1-1.6-2.1-1.8-3.5
		c0-0.3-0.2-0.6-0.4-0.8c-1.7-1.7-3.4-3.4-5-5c-1.8,1.1-3.5,2.3-5.3,3.3c-4.9,2.7-10.1,4.3-15.7,4.5C23.7,75.6,11.7,68.7,4,54.5
		c-2.7-5.1-3.9-10.6-4-16.4c0-1.3,0.5-2,1.5-2c1,0,1.5,0.7,1.5,2C3.3,52.4,12.2,65,25.4,70c0.1,0.1,0.3,0.1,0.4,0.1
		c3,1.2,6.1,1.7,9.3,2c4.9,0.4,9.7-0.3,14.4-2c0.2,0,0.3-0.1,0.5-0.1c5.5-2.1,10.2-5.4,13.9-9.9c7-8.4,9.6-18,7.7-28.7
		C70,22.2,65.2,14.9,57.7,9.5C55.1,7.6,52.2,6,49.1,5c-0.8-0.3-1.5-0.5-2.3-0.8c-4.8-1.4-9.6-1.7-14.5-0.8
		C29.9,3.9,27.6,4.7,25.3,5.4z M83.1,87c1.2,0.7,3-0.1,3.6-1.1c0.8-1.3,0.7-2.7-0.4-3.8c-4-4-8-8.1-12.1-12.1
		c-0.8-0.7-1.7-1.1-2.8-0.7c-1.2,0.2-1.8,0.9-2.2,2c-0.4,1.2-0.1,2.2,0.8,3c4,4,8,8,12,12C82.4,86.6,82.8,86.7,83.1,87z M65.2,63.4
		c-0.6,0.5-1.3,1.2-1.9,1.7c1.3,1.3,2.5,2.5,3.6,3.6c0.6-0.5,1.3-1.1,1.9-1.7C67.7,65.9,66.4,64.6,65.2,63.4z"/>
	<path class="st1" d="M11.7,47.2c-0.5-2.1-1.1-4.1-1.4-6.2c-0.6-3.9-0.2-7.8,1-11.6c0-0.1,0-0.2,0.1-0.3c0.1-0.3,0.2-0.5,0.3-0.8
		c1.3-3.5,3.2-6.7,5.7-9.4c6.4-6.7,14.2-9.6,23.4-8.6c7.3,0.8,13.3,4.2,18.1,9.9c1.9,2.3,3.3,4.9,4.5,7.6c0.1,0.3,0.2,0.6,0.3,1
		c1,2.8,1.4,5.7,1.5,8.7c0,3.3-0.6,6.6-1.7,9.7c0,0,0,0.1,0,0.1c-0.1,0.2-0.1,0.3-0.2,0.5c-0.4,0.9-0.8,1.8-1.3,2.7
		c-5.5,10.5-17.2,16.3-28.8,14.3c-8-1.4-14.3-5.5-18.7-12.3C13.4,50.9,12.6,49,11.7,47.2z M45.6,14.1c-0.6-0.2-1.2-0.5-1.9-0.7
		c-3.3-0.8-6.6-1-10-0.5c-6.1,1-11.3,3.9-15.3,8.7c-5,6.1-6.8,13.1-5.4,20.8c1.3,7.1,5.2,12.5,11.3,16.4c3.8,2.4,8.1,3.6,12.6,3.7
		c2.9,0.1,5.6-0.3,8.3-1.3c0.2,0,0.4-0.1,0.6-0.1c4.6-1.7,8.4-4.4,11.3-8.3c4.3-5.7,5.9-12.2,4.8-19.3c-0.8-5.3-3.2-9.8-7-13.5
		c-1.9-2-4.2-3.5-6.6-4.7C47.6,14.8,46.6,14.5,45.6,14.1z"/>
	<path class="st2" d="M62.2,33.5c-0.8-5.3-3.2-9.8-7-13.5c-1.9-2-4.2-3.5-6.6-4.7c-0.9-0.5-2-0.7-2.9-1.1c-0.6-0.2-1.2-0.5-1.9-0.7
		c-3.3-0.8-6.6-1-10-0.5c-6.1,1-11.3,3.9-15.3,8.7c-5,6.1-6.8,13.1-5.4,20.8c1.3,7.1,5.2,12.5,11.3,16.4c3.8,2.4,8.1,3.6,12.6,3.7
		c2.9,0.1,5.6-0.3,8.3-1.3c0.2,0,0.4-0.1,0.6-0.1c4.6-1.7,8.4-4.4,11.3-8.3C61.7,47,63.3,40.6,62.2,33.5z"/>
	<path class="st3" d="M67.2,48.6c0,0,0,0.1,0,0.1c0,0,0,0-0.1,0C67.2,48.7,67.2,48.6,67.2,48.6z"/>
	<path class="st4" d="M18.3,39.9c0.3-5.2,2-9.9,5.6-13.9c0.4-0.4,0.8-0.9,1.2-1.3c0.7-0.7,1.5-0.7,2.1-0.1c0.5,0.6,0.5,1.3-0.2,2
		c-3.1,3.1-5.1,6.8-5.8,11.2c-0.1,0.8-0.2,1.7-0.2,2.6c0,1.2-0.5,1.7-1.4,1.7c-0.8,0-1.3-0.6-1.3-1.7C18.3,40.2,18.3,40.1,18.3,39.9
		z"/>
</g>
<g>
</g>
<g>
</g>
<g>
</g>
<g>
</g>
<g>
</g>
<g>
</g>
<g>
</g>
<g>
</g>
<g>
</g>
<g>
</g>
<g>
</g>
<g>
</g>
<g>
</g>
<g>
</g>
<g>
</g>
</svg>
