<?xml version="1.0" encoding="utf-8"?>
<!-- Generator: Adobe Illustrator 24.0.2, SVG Export Plug-In . SVG Version: 6.00 Build 0)  -->
<svg version="1.1" xmlns="http://www.w3.org/2000/svg" xmlns:xlink="http://www.w3.org/1999/xlink" x="0px" y="0px"
	 viewBox="0 0 290 745.21" style="enable-background:new 0 0 290 745.21;" xml:space="preserve">
<style type="text/css">
	.st0{display:none;}
	.st1{display:inline;fill:#FFFFFF;}
	.st2{display:inline;fill:#FFFCCC;}
	.st3{display:inline;}
	.st4{fill:#FFEE00;}
	.st5{fill:#1E1E1E;}
	.st6{font-family:'Livvic-Medium';}
	.st7{font-size:8px;}
	.st8{letter-spacing:2;}
	.st9{letter-spacing:6;}
	.st10{letter-spacing:7;}
	.st11{letter-spacing:-1;}
	.st12{letter-spacing:11;}
	.st13{display:inline;fill:#1E1E1E;}
	.st14{font-family:'Livvic-Bold';}
	.st15{fill:#FFFFFF;}
	.st16{fill:#FFFCCC;}
	.st17{fill:#DBA723;}
	.st18{font-size:6.2887px;}
</style>
<g id="Camada_1" class="st0">
	<path class="st1" d="M474.58,381.17H161.66c-14.91,0-27-12.09-27-27v-80.26h366.91v80.26
		C501.57,369.09,489.49,381.17,474.58,381.17z"/>
	<rect x="134.66" y="-57.65" class="st2" width="366.91" height="118.46"/>
	<rect x="134.66" y="60.81" class="st1" width="366.91" height="109.76"/>
	<rect x="134.66" y="170.57" class="st2" width="366.91" height="103.34"/>
	<g class="st3">
		<path class="st4" d="M502.07-57.65H134.16V-90.4c0-12.64,10.24-22.88,22.88-22.88h322.15c12.64,0,22.88,10.24,22.88,22.88V-57.65z
			"/>
		<path class="st4" d="M502.57-57.15H133.66V-90.4c0-12.91,10.5-23.38,23.44-23.38h322.03c12.95,0,23.44,10.47,23.44,23.38V-57.15z
			 M157.1-112.78c-12.39,0-22.44,10.02-22.44,22.38v32.25h366.91V-90.4c0-12.36-10.05-22.38-22.44-22.38H157.1z"/>
	</g>
	<text transform="matrix(1 0 0 1 150.6354 -91.4705)" class="st3"><tspan x="0" y="0" class="st17 st14 st7">PROCESSOS</tspan><tspan x="-1.03" y="9.6" class="st17 st14 st7">PROTETIVOS</tspan><tspan x="0.33" y="19.2" class="st17 st14 st7">FAMILIARES</tspan></text>
	<text transform="matrix(1 0 0 1 208.1651 -84.4901)" class="st14 st7" style="display:inline;fill:#DBA723;">DEFINIÇÃO</text>
	<text transform="matrix(1 0 0 1 259.4522 -91.4705)" class="st3"><tspan x="0" y="0" class="st17 st14 st7">FATORES PROTETIVOS</tspan><tspan x="12.07" y="9.6" class="st17 st14 st7">E PROMOTORES</tspan><tspan x="17.89" y="19.2" class="st17 st14 st7">ENVOLVIDOS</tspan></text>
	<text transform="matrix(1 0 0 1 356.5981 -91.4705)" class="st3"><tspan x="0" y="0" class="st17 st14 st7">PRESENÇA NO</tspan><tspan x="-0.22" y="9.6" class="st17 st14 st7">PROCESSO DA</tspan><tspan x="11.87" y="19.2" class="st17 st14 st7">FAMÍLIA</tspan></text>
	<text transform="matrix(1 0 0 1 432.1864 -91.4706)" class="st3"><tspan x="0" y="0" class="st17 st14 st7">AUSÊNCIA NO</tspan><tspan x="-0.71" y="9.6" class="st17 st14 st7">PROCESSO DA</tspan><tspan x="11.38" y="19.2" class="st17 st14 st7">FAMÍLIA</tspan></text>
	<text transform="matrix(1 0 0 1 145 -22.8675)" class="st13 st14 st7">EMOÇÃO</text>
	<text transform="matrix(1 0 0 1 212.9286 -25.2751)" class="st3"><tspan x="0" y="0" class="st5 st6 st7">Clima </tspan><tspan x="0" y="9.6" class="st5 st6 st7">emocional </tspan><tspan x="0" y="19.2" class="st5 st6 st7">familiar que </tspan><tspan x="0" y="28.8" class="st5 st6 st7">regula as </tspan><tspan x="0" y="38.4" class="st5 st6 st7">emoções e</tspan><tspan x="0" y="48" class="st5 st6 st7">conexões</tspan><tspan x="0" y="57.6" class="st5 st6 st7">mútuas.</tspan><tspan x="29.72" y="57.6" class="st5 st6 st7 st8">	</tspan></text>
	<text transform="matrix(1 0 0 1 207.3286 85.8354)" class="st3"><tspan x="0" y="0" class="st5 st6 st7">Clima familiar </tspan><tspan x="0" y="9.6" class="st5 st6 st7">de controle </tspan><tspan x="0" y="19.2" class="st5 st6 st7">da autoridade, </tspan><tspan x="0" y="28.8" class="st5 st6 st7">poder, limites,</tspan><tspan x="0" y="38.4" class="st5 st6 st7">papeis, regras </tspan><tspan x="0" y="48" class="st5 st6 st7">e comporta-</tspan><tspan x="0" y="57.6" class="st5 st6 st7">mento.</tspan><tspan x="25.72" y="57.6" class="st5 st6 st7 st9">	</tspan></text>
	<text transform="matrix(1 0 0 1 208.6889 185.2854)" class="st3"><tspan x="0" y="0" class="st5 st6 st7">A visão e </tspan><tspan x="0" y="9.6" class="st5 st6 st7">identidade </tspan><tspan x="0" y="19.2" class="st5 st6 st7">do mundo </tspan><tspan x="0" y="28.8" class="st5 st6 st7">familiar; </tspan><tspan x="0" y="38.4" class="st5 st6 st7">compreensão </tspan><tspan x="0" y="48" class="st5 st6 st7">das </tspan><tspan x="0" y="57.6" class="st5 st6 st7">percepções e </tspan><tspan x="0" y="67.2" class="st5 st6 st7">situações da </tspan><tspan x="0" y="76.8" class="st5 st6 st7">família.</tspan></text>
	<text transform="matrix(1 0 0 1 208.329 296.5354)" class="st3"><tspan x="0" y="0" class="st5 st6 st7">Processos </tspan><tspan x="0" y="9.6" class="st5 st6 st7">para atender </tspan><tspan x="0" y="19.2" class="st5 st6 st7">às necessida-</tspan><tspan x="0" y="28.8" class="st5 st6 st7">des básicas </tspan><tspan x="0" y="38.4" class="st5 st6 st7">das famílias e </tspan><tspan x="0" y="48" class="st5 st6 st7">proteger os </tspan><tspan x="0" y="57.6" class="st5 st6 st7">membros </tspan><tspan x="0" y="67.2" class="st5 st6 st7">vulneráveis.</tspan><tspan x="43.27" y="67.2" class="st5 st6 st7 st9">	</tspan></text>
	<text transform="matrix(1 0 0 1 274.1512 -22.8673)" class="st3"><tspan x="0" y="0" class="st5 st6 st7">Suporte familiar,</tspan><tspan x="0" y="9.6" class="st5 st6 st7">encorajamento,</tspan><tspan x="0" y="19.2" class="st5 st6 st7">compromisso e </tspan><tspan x="0" y="28.8" class="st5 st6 st7">cooperação;</tspan><tspan x="0" y="38.4" class="st5 st6 st7">treinamento </tspan><tspan x="0" y="48" class="st5 st6 st7">de emoção.</tspan><tspan x="42.08" y="48" class="st5 st6 st7 st10">	</tspan></text>
	<text transform="matrix(1 0 0 1 264.972 83.6755)" class="st3"><tspan x="0" y="0" class="st5 st6 st7">O respeito mútuo </tspan><tspan x="0" y="9.6" class="st5 st6 st7">entre os membros da </tspan><tspan x="0" y="19.2" class="st5 st6 st7">família; uma </tspan><tspan x="0" y="28.8" class="st5 st6 st7">estrutura de autori-</tspan><tspan x="0" y="38.4" class="st5 st6 st7">dade clara e regras </tspan><tspan x="0" y="48" class="st5 st6 st7">familiares; resolução </tspan><tspan x="0" y="57.6" class="st5 st6 st7">eficaz de problemas </tspan><tspan x="0" y="67.2" class="st5 st6 st7">e tomada de decisão.</tspan><tspan x="77.62" y="67.2" class="st5 st6 st7 st9">	</tspan></text>
	<text transform="matrix(1 0 0 1 269.831 194.4172)" class="st3"><tspan x="0" y="0" class="st5 st6 st7">O significado da </tspan><tspan x="0" y="9.6" class="st5 st6 st7">família no esquema </tspan><tspan x="0" y="19.2" class="st5 st6 st7">mais amplo da vida </tspan><tspan x="0" y="28.8" class="st5 st6 st7">e em situações </tspan><tspan x="0" y="38.4" class="st5 st6 st7">específicas; </tspan><tspan x="0" y="48" class="st5 st6 st7">perspectivas </tspan><tspan x="0" y="57.6" class="st5 st6 st7">positivas.</tspan><tspan x="33.93" y="57.6" class="st5 st6 st7 st11">	</tspan></text>
	<text transform="matrix(1 0 0 1 264.9721 296.5354)" class="st3"><tspan x="0" y="0" class="st5 st6 st7">Os padrões e as </tspan><tspan x="0" y="9.6" class="st5 st6 st7">responsabilidades de </tspan><tspan x="0" y="19.2" class="st5 st6 st7">interação familiar são </tspan><tspan x="0" y="28.8" class="st5 st6 st7">organizados de forma</tspan><tspan x="0" y="38.4" class="st5 st6 st7">que as necessidades </tspan><tspan x="0" y="48" class="st5 st6 st7">básicas sejam </tspan><tspan x="0" y="57.6" class="st5 st6 st7">atendidas.</tspan><tspan x="38.1" y="57.6" class="st5 st6 st7 st12">	</tspan></text>
	<text transform="matrix(1 0 0 1 350.0771 -38.9474)" class="st3"><tspan x="0" y="0" class="st5 st6 st7">Equilíbrio entre</tspan><tspan x="0" y="9.6" class="st5 st6 st7">conexão e separa-</tspan><tspan x="0" y="19.2" class="st5 st6 st7">ção; comunicação </tspan><tspan x="0" y="28.8" class="st5 st6 st7">eficaz; habilidades </tspan><tspan x="0" y="38.4" class="st5 st6 st7">de resolução de </tspan><tspan x="0" y="48" class="st5 st6 st7">conflitos; ambiente </tspan><tspan x="0" y="57.6" class="st5 st6 st7">seguro para expres-</tspan><tspan x="0" y="67.2" class="st5 st6 st7">sividade emocional; </tspan><tspan x="0" y="76.8" class="st5 st6 st7">regulação das </tspan><tspan x="0" y="86.4" class="st5 st6 st7">emoções; apoio.</tspan></text>
	<text transform="matrix(1 0 0 1 350.2171 89.187)" class="st3"><tspan x="0" y="0" class="st5 st6 st7">Controle executivo </tspan><tspan x="0" y="9.6" class="st5 st6 st7">do adulto sobre o </tspan><tspan x="0" y="19.2" class="st5 st6 st7">comportamento da</tspan><tspan x="0" y="28.8" class="st5 st6 st7">criança; manejo do </tspan><tspan x="0" y="38.4" class="st5 st6 st7">tempo e rotinas </tspan><tspan x="0" y="48" class="st5 st6 st7">familiares; papéis </tspan><tspan x="0" y="57.6" class="st5 st6 st7">e limites claros.</tspan></text>
	<text transform="matrix(1 0 0 1 354.2173 199.8169)" class="st3"><tspan x="0" y="0" class="st5 st6 st7">Clara identidade </tspan><tspan x="0" y="9.6" class="st5 st6 st7">étnica ou cultural; </tspan><tspan x="0" y="19.2" class="st5 st6 st7">expectativas de </tspan><tspan x="0" y="28.8" class="st5 st6 st7">gênero integradas; </tspan><tspan x="0" y="38.4" class="st5 st6 st7">alta coerência e </tspan><tspan x="0" y="48" class="st5 st6 st7">robustez.</tspan></text>
	<text transform="matrix(1 0 0 1 350.0774 307.7283)" class="st3"><tspan x="0" y="0" class="st5 st6 st7">Alimentação, abrigo, </tspan><tspan x="0" y="9.6" class="st5 st6 st7">vestuário, educação </tspan><tspan x="0" y="19.2" class="st5 st6 st7">e saúde adequados; </tspan><tspan x="0" y="28.8" class="st5 st6 st7">apoio econômico </tspan><tspan x="0" y="38.4" class="st5 st6 st7">suficiente.</tspan></text>
	<text transform="matrix(1 0 0 1 432.0786 -38.9475)" class="st3"><tspan x="0" y="0" class="st5 st6 st7">Falta de coesão; </tspan><tspan x="0" y="9.6" class="st5 st6 st7">comunicação </tspan><tspan x="0" y="19.2" class="st5 st6 st7">ineficaz; </tspan><tspan x="0" y="28.8" class="st5 st6 st7">hostilidade; </tspan><tspan x="0" y="38.4" class="st5 st6 st7">ambiente familiar </tspan><tspan x="0" y="48" class="st5 st6 st7">inseguro para</tspan><tspan x="0" y="57.6" class="st5 st6 st7">a expressão das </tspan><tspan x="0" y="67.2" class="st5 st6 st7">emoções; </tspan><tspan x="0" y="76.8" class="st5 st6 st7">desregulação </tspan><tspan x="0" y="86.4" class="st5 st6 st7">das emoções.</tspan></text>
	<text transform="matrix(1 0 0 1 430.2782 81.8755)" class="st3"><tspan x="0" y="0" class="st5 st6 st7">Permissivo em </tspan><tspan x="0" y="9.6" class="st5 st6 st7">relação ao </tspan><tspan x="0" y="19.2" class="st5 st6 st7">comportamento </tspan><tspan x="0" y="28.8" class="st5 st6 st7">do jovem; baixo </tspan><tspan x="0" y="38.4" class="st5 st6 st7">ritmo no tempo e</tspan><tspan x="0" y="48" class="st5 st6 st7"> rotinas da família; </tspan><tspan x="0" y="57.6" class="st5 st6 st7">papéis e limites </tspan><tspan x="0" y="67.2" class="st5 st6 st7">obscuros.</tspan></text>
	<text transform="matrix(1 0 0 1 432.0787 199.8172)" class="st3"><tspan x="0" y="0" class="st5 st6 st7">Identidade étnica </tspan><tspan x="0" y="9.6" class="st5 st6 st7">ou cultural difusa; </tspan><tspan x="0" y="19.2" class="st5 st6 st7">expectativas de </tspan><tspan x="0" y="28.8" class="st5 st6 st7">gênero pouco </tspan><tspan x="0" y="38.4" class="st5 st6 st7">claras; coerência </tspan><tspan x="0" y="48" class="st5 st6 st7">limitada.</tspan></text>
	<text transform="matrix(1 0 0 1 432.0788 302.6876)" class="st3"><tspan x="0" y="0" class="st5 st6 st7">Alimentação, </tspan><tspan x="0" y="9.6" class="st5 st6 st7">abrigo, vestuário, e</tspan><tspan x="0" y="19.2" class="st5 st6 st7">ducação e saúde </tspan><tspan x="0" y="28.8" class="st5 st6 st7">inadequados; </tspan><tspan x="0" y="38.4" class="st5 st6 st7">apoio econômico </tspan><tspan x="0" y="48" class="st5 st6 st7">insuficiente.</tspan></text>
	<text transform="matrix(1 0 0 1 141.5588 96.3654)" class="st13 st14 st7">CONTROLE</text>
	<text transform="matrix(1 0 0 1 141.5588 201.9653)" class="st13 st14 st7">SIGNIFICADO</text>
	<text transform="matrix(1 0 0 1 141.5589 302.688)" class="st13 st14 st7">MANUTENÇÃO</text>
	<g class="st3">
		<g>
			<path class="st4" d="M474.27,383.08h-312.3c-15.63,0-28.3-12.67-28.3-28.3V-58.65h368.91v413.42
				C502.57,370.41,489.9,383.08,474.27,383.08z M500.57-56.65H135.66v411.42c0,14.53,11.78,26.3,26.3,26.3h312.3
				c14.53,0,26.3-11.78,26.3-26.3V-56.65z"/>
		</g>
		<g>
			<rect x="134.66" y="59.81" class="st4" width="366.91" height="2"/>
		</g>
		<g>
			<rect x="134.66" y="169.57" class="st4" width="366.91" height="2"/>
		</g>
		<g>
			<rect x="134.66" y="272.91" class="st4" width="366.91" height="2"/>
		</g>
		<g>
			<rect x="203.33" y="-57.65" class="st4" width="2" height="439.73"/>
		</g>
		<g>
			<rect x="259.8" y="-57.65" class="st4" width="2" height="439.73"/>
		</g>
		<g>
			<rect x="344.5" y="-57.65" class="st4" width="2" height="439.73"/>
		</g>
		<g>
			<rect x="424.92" y="-57.65" class="st4" width="2" height="439.73"/>
		</g>
	</g>
</g>
<g id="Camada_2">
	<path class="st4" d="M290,44.52H0V18.38C0,8.23,8.25,0,18.43,0h253.14C281.75,0,290,8.23,290,18.38V44.52z M18.43,0.79
		c-9.74,0-17.64,7.88-17.64,17.59v25.35h288.42V18.38c0-9.72-7.9-17.59-17.64-17.59H18.43z"/>
	<path class="st15" d="M266.62,744.37H22.75c-12.13,0-21.96-9.83-21.96-21.96V293.76h288.43v428.02
		C289.21,734.25,279.1,744.37,266.62,744.37z"/>
	<rect x="0.79" y="30.37" class="st16" width="288.43" height="81.79"/>
	<rect x="0.79" y="112.16" class="st15" width="288.43" height="113.33"/>
	<rect x="0.79" y="225.49" class="st16" width="288.43" height="68.27"/>
	<path class="st4" d="M271.62,0.39H18.38c-9.93,0-17.99,8.05-17.99,17.99v11.61h289.21V18.38C289.61,8.45,281.55,0.39,271.62,0.39z"
		/>
	<text transform="matrix(1 0 0 1 23.6507 18.5201)" class="st17 st14 st18">MODELO</text>
	<text transform="matrix(1 0 0 1 105.9818 18.5206)" class="st17 st14 st18">PRESSUPOSTOS</text>
	<text transform="matrix(1 0 0 1 201.0784 18.7682)" class="st17 st14 st18">IMPLICAÇÕES PARA O PFF</text>
	<text transform="matrix(1 0 0 1 4.7825 42.8985)"><tspan x="0" y="0" class="st5 st14 st18">MODELO DA </tspan><tspan x="0" y="7.55" class="st5 st14 st18">ECOLOGIA SOCIAL </tspan><tspan x="0" y="15.09" class="st5 st14 st18">DO ABUSO DE </tspan><tspan x="0" y="22.64" class="st5 st14 st18">SUBSTÂNCIA NA </tspan><tspan x="0" y="30.19" class="st5 st14 st18">ADOLESCÊNCIA</tspan></text>
	<text transform="matrix(1 0 0 1 76.4461 43.7159)"><tspan x="0" y="0" class="st5 st6 st18">São fatores protetivos para</tspan><tspan x="0" y="7.55" class="st5 st6 st18">o uso de drogas: autocontrole, </tspan><tspan x="0" y="15.09" class="st5 st6 st18">autoeficácia acadêmica, vínculo </tspan><tspan x="0" y="22.64" class="st5 st6 st18">familiar, supervisão familiar, </tspan><tspan x="0" y="30.19" class="st5 st6 st18">normas familiares e dos pares, </tspan><tspan x="0" y="37.73" class="st5 st6 st18">comunidades com rede de suporte </tspan><tspan x="0" y="45.28" class="st5 st6 st18">e normas desfavoráveis ao uso </tspan><tspan x="0" y="52.83" class="st5 st6 st18">de drogas.</tspan></text>
	<text transform="matrix(1 0 0 1 5.6697 125.6222)"><tspan x="0" y="0" class="st5 st14 st18">MODELO DA </tspan><tspan x="0" y="7.55" class="st5 st14 st18">RESILIÊNCIA</tspan></text>
	<text transform="matrix(1 0 0 1 5.4232 238.7711)"><tspan x="0" y="0" class="st5 st14 st18">TEORIA DOS </tspan><tspan x="0" y="7.55" class="st5 st14 st18">SISTEMAS </tspan><tspan x="0" y="15.09" class="st5 st14 st18">FAMILIARES</tspan></text>
	<text transform="matrix(1 0 0 1 4.637 308.5152)"><tspan x="0" y="0" class="st5 st14 st18">TEORIA COGNITIVA </tspan><tspan x="0" y="7.55" class="st5 st14 st18">SOCIAL</tspan></text>
	<text transform="matrix(1 0 0 1 197.6624 43.0831)"><tspan x="0" y="0" class="st5 st6 st18">O PFF adota procedimentos </tspan><tspan x="0" y="7.55" class="st5 st6 st18">que estimulam o autocontrole </tspan><tspan x="0" y="15.09" class="st5 st6 st18">e autoeficácia; discutem a </tspan><tspan x="0" y="22.64" class="st5 st6 st18">qualidade das amizades, </tspan><tspan x="0" y="30.19" class="st5 st6 st18">encorajam o estilo parental </tspan><tspan x="0" y="37.73" class="st5 st6 st18">autoritativo (amor e limites) </tspan><tspan x="0" y="45.28" class="st5 st6 st18">e coesão familiar; favorecem </tspan><tspan x="0" y="52.83" class="st5 st6 st18">a busca de recursos </tspan><tspan x="0" y="60.37" class="st5 st6 st18">comunitários.</tspan></text>
	<text transform="matrix(1 0 0 1 76.8299 125.923)"><tspan x="0" y="0" class="st5 st6 st18">A resiliência é entendida como a </tspan><tspan x="0" y="7.55" class="st5 st6 st18">capacidade do indivíduo ou família </tspan><tspan x="0" y="15.09" class="st5 st6 st18">de enfrentar situações adversas e </tspan><tspan x="0" y="22.64" class="st5 st6 st18">superá-las, de forma interativa com </tspan><tspan x="0" y="30.19" class="st5 st6 st18">seu meio social. Entende-se que os </tspan><tspan x="0" y="37.73" class="st5 st6 st18">adolescentes que enfrentam </tspan><tspan x="0" y="45.28" class="st5 st6 st18">obstáculos sociais, educacionais, </tspan><tspan x="0" y="52.83" class="st5 st6 st18">econômicos e familiares necessitam </tspan><tspan x="0" y="60.37" class="st5 st6 st18">de apoio externo que os auxiliem a </tspan><tspan x="0" y="67.92" class="st5 st6 st18">reconhecer e a utilizar ferramentas </tspan><tspan x="0" y="75.46" class="st5 st6 st18">de superação, oferecendo </tspan><tspan x="0" y="83.01" class="st5 st6 st18">oportunidades de desenvolvimento </tspan><tspan x="0" y="90.56" class="st5 st6 st18">mais saudável.</tspan></text>
	<text transform="matrix(1 0 0 1 197.3665 125.923)"><tspan x="0" y="0" class="st5 st6 st18">São encorajados fatores </tspan><tspan x="0" y="7.55" class="st5 st6 st18">protetivos do adolescente </tspan><tspan x="0" y="15.09" class="st5 st6 st18">(manejo das emoções e </tspan><tspan x="0" y="22.64" class="st5 st6 st18">sonhos de futuro), dos pais </tspan><tspan x="0" y="30.19" class="st5 st6 st18">(empatia e supervisão do </tspan><tspan x="0" y="37.73" class="st5 st6 st18">comportamento dos filhos), </tspan><tspan x="0" y="45.28" class="st5 st6 st18">da família (resolução </tspan><tspan x="0" y="52.83" class="st5 st6 st18">colaborativa de problemas </tspan><tspan x="0" y="60.37" class="st5 st6 st18">e lazer em conjunto) e da </tspan><tspan x="0" y="67.92" class="st5 st6 st18">comunidade (incremento </tspan><tspan x="0" y="75.46" class="st5 st6 st18">da rede de apoio).</tspan></text>
	<text transform="matrix(1 0 0 1 76.8299 237.5289)"><tspan x="0" y="0" class="st5 st6 st18">A família deve ser discutida como </tspan><tspan x="0" y="7.55" class="st5 st6 st18">um sistema funcional, em vez de </tspan><tspan x="0" y="15.09" class="st5 st6 st18">um agrupamento de indivíduos. </tspan><tspan x="0" y="22.64" class="st5 st6 st18">O comportamento do individuo só </tspan><tspan x="0" y="30.19" class="st5 st6 st18">pode ser compreendido na relação </tspan><tspan x="0" y="37.73" class="st5 st6 st18">com os demais membros da família </tspan><tspan x="0" y="45.28" class="st5 st6 st18">e outros contextos sociais.</tspan></text>
	<text transform="matrix(1 0 0 1 197.3665 237.5289)"><tspan x="0" y="0" class="st5 st6 st18">O formado do PFF prevê a </tspan><tspan x="0" y="7.55" class="st5 st6 st18">realização de encontros </tspan><tspan x="0" y="15.09" class="st5 st6 st18">familiares, antecedidos por </tspan><tspan x="0" y="22.64" class="st5 st6 st18">encontros simultâneos e </tspan><tspan x="0" y="30.19" class="st5 st6 st18">separados para pais e filhos.</tspan></text>
	<text transform="matrix(1 0 0 1 197.3665 308.4771)"><tspan x="0" y="0" class="st5 st6 st18">A metodologia do PFF </tspan><tspan x="0" y="7.55" class="st5 st6 st18">compreende jogos, </tspan><tspan x="0" y="15.09" class="st5 st6 st18">observação de vídeos, </tspan><tspan x="0" y="22.64" class="st5 st6 st18">discussões e práticas em </tspan><tspan x="0" y="30.19" class="st5 st6 st18">casa, que visam favorecer </tspan><tspan x="0" y="37.73" class="st5 st6 st18">a agência pessoal e </tspan><tspan x="0" y="45.28" class="st5 st6 st18">autoeficácia de pais, jovens </tspan><tspan x="0" y="52.83" class="st5 st6 st18">e famílias no engajamento </tspan><tspan x="0" y="60.37" class="st5 st6 st18">de interações positivas.</tspan></text>
	<text transform="matrix(1 0 0 1 76.8309 309.2623)"><tspan x="0" y="0" class="st5 st6 st18">Os indivíduos aprendem a observar </tspan><tspan x="0" y="7.55" class="st5 st6 st18">modelos. A confiança na própria </tspan><tspan x="0" y="15.09" class="st5 st6 st18">capacidade, ou autoeficácia, é um </tspan><tspan x="0" y="22.64" class="st5 st6 st18">importante preditor do </tspan><tspan x="0" y="30.19" class="st5 st6 st18">comportamento. Os indivíduos são </tspan><tspan x="0" y="37.73" class="st5 st6 st18">agentes ativos na interação com o </tspan><tspan x="0" y="45.28" class="st5 st6 st18">seu mundo e podem produzir </tspan><tspan x="0" y="52.83" class="st5 st6 st18">transformação por meio das </tspan><tspan x="0" y="60.37" class="st5 st6 st18">suas escolas.</tspan></text>
	<rect x="0.79" y="381.04" class="st16" width="288.43" height="132.81"/>
	<rect x="0.79" y="513.85" class="st15" width="288.43" height="71.68"/>
	<rect x="0.79" y="585.53" class="st16" width="288.43" height="44.84"/>
	<text transform="matrix(1 0 0 1 74.8748 393.7164)"><tspan x="0" y="0" class="st5 st6 st18">A busca de proximidade e proteção</tspan><tspan x="0" y="7.55" class="st5 st6 st18"> é necessidade básica humana. </tspan><tspan x="0" y="15.09" class="st5 st6 st18">Cuidadores sensíveis que </tspan><tspan x="0" y="22.64" class="st5 st6 st18">percebem, interpretam e reagem </tspan><tspan x="0" y="30.19" class="st5 st6 st18">responsivamente às necessidades </tspan><tspan x="0" y="37.73" class="st5 st6 st18">da criança, favorecem o </tspan><tspan x="0" y="45.28" class="st5 st6 st18">desenvolvimento da segurança </tspan><tspan x="0" y="52.83" class="st5 st6 st18">(apego seguro). Falhas no cuidado </tspan><tspan x="0" y="60.37" class="st5 st6 st18">parental, como negligência, </tspan><tspan x="0" y="67.92" class="st5 st6 st18">inconsistência, superexigência e </tspan><tspan x="0" y="75.46" class="st5 st6 st18">maus-tratos favorecem um senso </tspan><tspan x="0" y="83.01" class="st5 st6 st18">de insegurança (apego inseguro). </tspan><tspan x="0" y="90.56" class="st5 st6 st18">O apego inseguro é fator de risco </tspan><tspan x="0" y="98.1" class="st5 st6 st18">para a saúde mental e a qualidade </tspan><tspan x="0" y="105.65" class="st5 st6 st18">das relações estabelecidas ao longo </tspan><tspan x="0" y="113.2" class="st5 st6 st18">da vida.</tspan></text>
	<text transform="matrix(1 0 0 1 197.3665 393.6168)"><tspan x="0" y="0" class="st5 st6 st18">Os procedimentos do PFF </tspan><tspan x="0" y="7.55" class="st5 st6 st18">foram desenhados para </tspan><tspan x="0" y="15.09" class="st5 st6 st18">desenvolver a sensibilidade </tspan><tspan x="0" y="22.64" class="st5 st6 st18">parental, de modo a criar </tspan><tspan x="0" y="30.19" class="st5 st6 st18">condições para que os filhos </tspan><tspan x="0" y="37.73" class="st5 st6 st18">possam perceber os pais </tspan><tspan x="0" y="45.28" class="st5 st6 st18">como fontes de confiança, </tspan><tspan x="0" y="52.83" class="st5 st6 st18">apoio e proteção.</tspan></text>
	<text transform="matrix(1 0 0 1 4.8846 524.9323)"><tspan x="0" y="0" class="st5 st14 st18">TEORIA </tspan><tspan x="0" y="7.55" class="st5 st14 st18">BIOECOLÓGICA</tspan></text>
	<text transform="matrix(1 0 0 1 75.2596 524.4586)"><tspan x="0" y="0" class="st5 st6 st18">O desenvolvimento do indivíduo </tspan><tspan x="0" y="7.55" class="st5 st6 st18">resulta da interação entre </tspan><tspan x="0" y="15.09" class="st5 st6 st18">características constitucionais da </tspan><tspan x="0" y="22.64" class="st5 st6 st18">pessoa e do ambiente. Neste, </tspan><tspan x="0" y="30.19" class="st5 st6 st18">tem-se as influências proximais </tspan><tspan x="0" y="37.73" class="st5 st6 st18">(relação familiar, pares e escola) </tspan><tspan x="0" y="45.28" class="st5 st6 st18">e distais (cultura, mídia, políticas </tspan><tspan x="0" y="52.83" class="st5 st6 st18">públicas) ao longo do tempo.</tspan></text>
	<text transform="matrix(1 0 0 1 197.3675 525.4078)"><tspan x="0" y="0" class="st5 st6 st18">É estimulada a identificação</tspan><tspan x="0" y="7.55" class="st5 st6 st18"> e utilização de recursos </tspan><tspan x="0" y="15.09" class="st5 st6 st18">existentes no contexto social</tspan><tspan x="0" y="22.64" class="st5 st6 st18"> e comunitário no qual as </tspan><tspan x="0" y="30.19" class="st5 st6 st18">famílias vivem, para além </tspan><tspan x="0" y="37.73" class="st5 st6 st18">dos recursos individuais </tspan><tspan x="0" y="45.28" class="st5 st6 st18">(dos pais e dos filhos) e dos </tspan><tspan x="0" y="52.83" class="st5 st6 st18">pares (amigos).</tspan></text>
	<text transform="matrix(1 0 0 1 6.2098 595.3746)"><tspan x="0" y="0" class="st5 st14 st18">MODELO DA </tspan><tspan x="0" y="7.55" class="st5 st14 st18">VULNERABILIDADE </tspan><tspan x="0" y="15.09" class="st5 st14 st18">BIOPSICOSSOCIAL</tspan></text>
	<text transform="matrix(1 0 0 1 75.66 595.3737)"><tspan x="0" y="0" class="st5 st6 st18">As habilidades e recursos da família </tspan><tspan x="0" y="7.55" class="st5 st6 st18">são capazes de diminuir os </tspan><tspan x="0" y="15.09" class="st5 st6 st18">estressores familiares.</tspan></text>
	<text transform="matrix(1 0 0 1 197.3675 594.5875)"><tspan x="0" y="0" class="st5 st6 st18">Os procedimentos do PFF </tspan><tspan x="0" y="7.55" class="st5 st6 st18">devem fomentar habilidades </tspan><tspan x="0" y="15.09" class="st5 st6 st18">de resolução de conflitos, </tspan><tspan x="0" y="22.64" class="st5 st6 st18">comunicação e </tspan><tspan x="0" y="30.19" class="st5 st6 st18">enfrentamento do estresse.</tspan></text>
	<text transform="matrix(1 0 0 1 5.0228 393.7164)"><tspan x="0" y="0" class="st5 st14 st18">TEORIA </tspan><tspan x="0" y="7.55" class="st5 st14 st18">DO APEGO</tspan></text>
	<text transform="matrix(1 0 0 1 6.5946 641.8551)"><tspan x="0" y="0" class="st5 st14 st18">MODELO DO </tspan><tspan x="0" y="7.55" class="st5 st14 st18">PROCESSO </tspan><tspan x="0" y="15.09" class="st5 st14 st18">FAMILIAR</tspan></text>
	<text transform="matrix(1 0 0 1 75.2596 641.9088)"><tspan x="0" y="0" class="st5 st6 st18">Relaciona o estresse econômico </tspan><tspan x="0" y="7.55" class="st5 st6 st18">familiar ao mau ajustamento do </tspan><tspan x="0" y="15.09" class="st5 st6 st18">adolescente. Pais que vivenciam </tspan><tspan x="0" y="22.64" class="st5 st6 st18">estresse econômico podem </tspan><tspan x="0" y="30.19" class="st5 st6 st18">sentir-se pressionados, deprimidos </tspan><tspan x="0" y="37.73" class="st5 st6 st18">e desvalorizados. O estresse </tspan><tspan x="0" y="45.28" class="st5 st6 st18">econômico parental leva à </tspan><tspan x="0" y="52.83" class="st5 st6 st18">desorganização familiar, com </tspan><tspan x="0" y="60.37" class="st5 st6 st18">aumento do desajuste conjugal </tspan><tspan x="0" y="67.92" class="st5 st6 st18">e dificuldades no exercício hábil </tspan><tspan x="0" y="75.46" class="st5 st6 st18">da parentalidade, o que afeta </tspan><tspan x="0" y="83.01" class="st5 st6 st18">negativamente o ajuste do </tspan><tspan x="0" y="90.56" class="st5 st6 st18">adolescente.</tspan></text>
	<text transform="matrix(1 0 0 1 197.3675 641.2975)"><tspan x="0" y="0" class="st5 st6 st18">Os pais são estimulados a </tspan><tspan x="0" y="7.55" class="st5 st6 st18">buscas estratégias </tspan><tspan x="0" y="15.09" class="st5 st6 st18">emancipatórias,</tspan><tspan x="0" y="22.64" class="st5 st6 st18">capazes de afetar seu bem - </tspan><tspan x="0" y="30.19" class="st5 st6 st18">estar financeiro, como </tspan><tspan x="0" y="37.73" class="st5 st6 st18">aprimoramentosna formação </tspan><tspan x="0" y="45.28" class="st5 st6 st18">profissional e aumento</tspan><tspan x="0" y="52.83" class="st5 st6 st18">nos níveis de escolaridade. </tspan><tspan x="0" y="60.37" class="st5 st6 st18">Recursos da comunidade que </tspan><tspan x="0" y="67.92" class="st5 st6 st18">viabilizam essasestratégias </tspan><tspan x="0" y="75.46" class="st5 st6 st18">são identificados. </tspan></text>
	<g>
		<rect x="0.79" y="111.68" class="st4" width="288.43" height="0.94"/>
	</g>
	<g>
		<rect x="1.57" y="513.38" class="st4" width="288.43" height="0.94"/>
	</g>
	<g>
		<rect x="1.57" y="380.57" class="st4" width="288.43" height="0.94"/>
	</g>
	<g>
		<rect x="1.57" y="585.06" class="st4" width="288.43" height="0.94"/>
	</g>
	<g>
		<rect x="1.57" y="629.89" class="st4" width="288.43" height="0.94"/>
	</g>
	<g>
		<rect x="0.79" y="225.02" class="st4" width="288.43" height="0.94"/>
	</g>
	<g>
		<rect x="0.79" y="293.28" class="st4" width="288.43" height="0.94"/>
	</g>
	<g>
		<rect x="66.66" y="31.6" class="st4" width="0.94" height="711.98"/>
	</g>
	<g>
		<rect x="187.99" y="31.6" class="st4" width="0.94" height="711.98"/>
	</g>
	<g>
		<path class="st4" d="M267.75,745.21H22.25C9.96,745.21,0,734.89,0,722.16V29.97h290v692.18
			C290,734.89,280.04,745.21,267.75,745.21z M288.43,31.6H1.57v690.55c0,11.83,9.26,21.43,20.68,21.43h245.5
			c11.42,0,20.68-9.59,20.68-21.43V31.6z"/>
	</g>
</g>
<g id="Camada_3">
</g>
</svg>
