<?xml version="1.0" encoding="utf-8"?>
<!-- Generator: Adobe Illustrator 25.0.0, SVG Export Plug-In . SVG Version: 6.00 Build 0)  -->
<svg version="1.1" id="Camada_1" xmlns="http://www.w3.org/2000/svg" xmlns:xlink="http://www.w3.org/1999/xlink" x="0px" y="0px"
	 viewBox="0 0 290 190" style="enable-background:new 0 0 290 190;" xml:space="preserve">
<style type="text/css">
	.st0{opacity:0.5;}
	.st1{fill:#ACCFEF;}
	.st2{fill:#0DB0AF;}
	.st3{fill:#37B7B6;}
	.st4{fill:#2C3074;}
	.st5{fill:#FDE2D0;}
	.st6{fill:#F18B7B;}
	.st7{opacity:0.1;}
	.st8{fill:#1B1D3C;}
	.st9{fill:#EB5C5C;}
	.st10{fill:#D84948;}
	.st11{opacity:0.2;}
	.st12{fill:#FFFFFF;}
	.st13{opacity:0.3;}
</style>
<g>
	<g class="st0">
		<g>
			<g>
				<path class="st1" d="M-740.37,219.35c-31.9,82.87-121.87,128.18-210.67,128.42c-32.62,0.09-68.4-4.74-100.47-20.07
					c-88.89-42.48-125.41-107.54-101.22-175.17c24.19-67.62,105.07-98.75,116.78-143.5c11.71-44.75,31.7-139.58,134.35-145
					C-740.88-144.44-701.47,118.27-740.37,219.35z"/>
			</g>
		</g>
	</g>
	<g>
		<g>
			<path class="st2" d="M-727.01,143.66c0,81.54-62.17,150.04-138.18,179.54c-27.93,10.84-60.18,18.5-92.72,15.94
				c-90.19-7.09-142.94-50.8-144.52-116.73s57.47-119.28,52.75-161.5s-18.87-130.08,67.31-168.58
				C-847.43-167.93-727.01,44.21-727.01,143.66z"/>
		</g>
	</g>
	<g>
		<g>
			<g>
				<path class="st3" d="M-1006.24,383.92c0,0,25.97-30.72,15.02-61.79c-9.58-27.18-15.66-36.3-14.38-58.45
					c1.04-18-3.88-36.02-17.78-52.55c-10.45-12.43-13.12-30-10.47-46c3.73-22.56-16.24-61.83-45.79-25.52
					c-18.32,22.51-15.39,54.08-6.99,78.96c5.35,15.86,9.47,55.77,3.69,75.95c-8.7,30.4-4.82,57.39,9.93,84.73
					S-1006.24,383.92-1006.24,383.92z"/>
			</g>
		</g>
		<g>
			<g>
				<path class="st4" d="M-1035.86,392.2l-0.67-0.13c0.1-0.48,9.41-48.44,0.36-78.93c-4.5-15.14-5.63-31.53-6.73-47.39
					c-0.68-9.79-1.32-19.03-2.73-27.21c-1.31-7.61-5.18-18.85-8.93-29.71c-3.57-10.37-6.95-20.17-8.14-26.75
					c-4.38-24.16,10.82-56.34,10.97-56.66l0.62,0.3c-0.15,0.32-15.25,32.3-10.91,56.24c1.18,6.53,4.55,16.3,8.11,26.65
					c3.75,10.89,7.63,22.15,8.95,29.82c1.42,8.22,2.06,17.48,2.74,27.28c1.1,15.81,2.23,32.16,6.7,47.24
					C-1026.42,343.59-1035.76,391.72-1035.86,392.2z"/>
			</g>
		</g>
		<g>
			<g>
				<path class="st4" d="M-1061.09,188.64l-0.25-0.64c16.22-6.47,26.67-19.74,26.77-19.88l0.54,0.42
					C-1034.13,168.68-1044.69,182.1-1061.09,188.64z"/>
			</g>
		</g>
		<g>
			<g>
				<path class="st4" d="M-1063,173.37c-16.19-7.61-24.93-20.16-25.02-20.29l0.57-0.39c0.09,0.12,8.73,12.52,24.75,20.05
					L-1063,173.37z"/>
			</g>
		</g>
		<g>
			<g>
				<path class="st4" d="M-1050.88,219.94c-19.43-4.03-40.11-17.17-40.32-17.3l0.37-0.58c0.21,0.13,20.78,13.21,40.08,17.21
					L-1050.88,219.94z"/>
			</g>
		</g>
		<g>
			<g>
				<path class="st4" d="M-1045.17,238.8l-0.27-0.63c16.15-6.78,25.61-22.02,25.71-22.17l0.58,0.36
					C-1019.23,216.51-1028.82,231.94-1045.17,238.8z"/>
			</g>
		</g>
		<g>
			<g>
				<path class="st4" d="M-1042.49,268.3c-18.4-4.99-38.37-16.76-38.57-16.88l0.35-0.59c0.2,0.12,20.09,11.84,38.4,16.81
					L-1042.49,268.3z"/>
			</g>
		</g>
		<g>
			<g>
				<path class="st4" d="M-1039.12,298.96l-0.06-0.68c21.95-2.05,34.21-15.89,34.33-16.03l0.52,0.45
					C-1004.46,282.84-1016.9,296.89-1039.12,298.96z"/>
			</g>
		</g>
		<g>
			<g>
				<path class="st4" d="M-1032.55,332.27c-28.68-7.7-53.22-24.95-53.46-25.12l0.4-0.56c0.24,0.17,24.69,17.35,53.24,25.02
					L-1032.55,332.27z"/>
			</g>
		</g>
	</g>
	<g>
		<g>
			<g>
				<path class="st1" d="M-890.81,363.64c0,0-10.84-29.04,5.19-48.73c14.02-17.22,20.8-22.25,25.64-38.65
					c3.93-13.33,12.19-25.11,26.57-33.48c10.81-6.29,17.32-18.34,19.57-30.63c3.17-17.33,27.88-40.61,39.85-6.59
					c7.43,21.1-2.92,43.23-15.48,59.09c-8.01,10.11-21.39,37.98-22.45,54.13c-1.6,24.31-11.44,42.88-29.26,58.87
					C-858.99,393.62-890.81,363.64-890.81,363.64z"/>
			</g>
		</g>
		<g>
			<g>
				<path class="st4" d="M-870.96,377.43l-0.52-0.08c0.06-0.37,5.81-37.71,20.38-57.57c7.17-9.77,12.25-21.33,17.16-32.51
					c3.05-6.93,5.92-13.48,9.09-19.07c2.96-5.22,8.7-12.37,14.26-19.29c5.28-6.58,10.26-12.79,12.82-17.21
					c9.38-16.23,6.75-43.36,6.73-43.63l0.53-0.05c0.03,0.27,2.67,27.57-6.79,43.95c-2.58,4.46-7.58,10.69-12.87,17.28
					c-5.54,6.9-11.27,14.04-14.21,19.22c-3.16,5.57-6.03,12.1-9.07,19.02c-4.92,11.21-10.01,22.8-17.22,32.61
					C-865.17,339.85-870.9,377.06-870.96,377.43z"/>
			</g>
		</g>
		<g>
			<g>
				<path class="st4" d="M-800.19,236.29c-10.19-9.02-14.35-21.49-14.4-21.62l0.5-0.16c0.04,0.12,4.16,12.47,14.24,21.39
					L-800.19,236.29z"/>
			</g>
		</g>
		<g>
			<g>
				<path class="st4" d="M-794.83,225.71l-0.05-0.53c13.59-1.29,23.07-8.03,23.17-8.1l0.31,0.43
					C-771.49,217.58-781.1,224.41-794.83,225.71z"/>
			</g>
		</g>
		<g>
			<g>
				<path class="st4" d="M-806.22,256.94c-3.19,0-6.42-0.17-9.52-0.61l0.07-0.52c15.04,2.12,33.37-2,33.55-2.04l0.12,0.52
					C-782.15,254.31-793.83,256.94-806.22,256.94z"/>
			</g>
		</g>
		<g>
			<g>
				<path class="st4" d="M-824.8,268.52c-10.07-9.23-13-22.92-13.03-23.05l0.52-0.11c0.03,0.14,2.93,13.66,12.87,22.77
					L-824.8,268.52z"/>
			</g>
		</g>
		<g>
			<g>
				<path class="st4" d="M-827.74,289.47c-2.25,0-4.49-0.07-6.68-0.25l0.04-0.53c14.58,1.17,32.05-2.16,32.23-2.19l0.1,0.52
					C-802.19,287.05-814.92,289.47-827.74,289.47z"/>
			</g>
		</g>
		<g>
			<g>
				<path class="st4" d="M-844.84,310.58c-15.57-7.29-20.94-20.72-21-20.85l0.49-0.19c0.05,0.13,5.36,13.37,20.73,20.57
					L-844.84,310.58z"/>
			</g>
		</g>
		<g>
			<g>
				<path class="st4" d="M-849.25,333.39c-2.97,0-6-0.11-9.04-0.36l0.04-0.53c22.7,1.87,44.91-4.22,45.13-4.28l0.14,0.51
					C-813.16,328.78-829.93,333.39-849.25,333.39z"/>
			</g>
		</g>
	</g>
	<g>
		<g>
			<g>
				<path class="st5" d="M-943.4,380.88c0,0-23.25-29.64-3.86-54.71c19.39-25.06,7.39-48.21,28.6-59.51
					c21.22-11.29,38.23,10.57,33.47,37.37c-4.76,26.8,18.66,44.29,12.33,58.47C-879.21,376.69-943.4,380.88-943.4,380.88z"/>
			</g>
		</g>
		<g>
			<g>
				<path class="st4" d="M-914.49,373.48c-1.7-39.25,7.21-87.1,7.3-87.58l0.77,0.15c-0.09,0.48-8.98,48.24-7.29,87.4L-914.49,373.48
					z"/>
			</g>
		</g>
		<g>
			<g>
				<path class="st4" d="M-911.52,315.35c-3.32-3.95-7.18-11.42-7.21-11.5l0.7-0.36c0.04,0.07,3.86,7.47,7.12,11.35L-911.52,315.35z
					"/>
			</g>
		</g>
		<g>
			<g>
				<path class="st4" d="M-912.14,326.03l-0.31-0.72c6.57-2.78,11.05-9.14,11.1-9.2l0.64,0.45
					C-900.89,316.82-905.35,323.16-912.14,326.03z"/>
			</g>
		</g>
		<g>
			<g>
				<path class="st4" d="M-914.23,345.11c-4.65-1.65-10.94-9.94-11.21-10.3l0.63-0.47c0.06,0.08,6.41,8.46,10.84,10.03
					L-914.23,345.11z"/>
			</g>
		</g>
	</g>
	<g>
		<g>
			<path class="st2" d="M-1038.87,382.19c-12.76-1.34-29.87-0.55-40.6,4.7c-10.73,5.25,16.82,20.73,40.6,18.37
				c23.78-2.36,44.77-8.59,63.91-8.59c19.14,0,32.16,1.17,56.81,3c24.65,1.84,75.91,3.49,85.48-8.84
				c9.57-12.33-13.92-21.78-23.88-22.94c-5.54-0.64-25.71-1.73-44.85,1.16c-19.14,2.89-40.6,6.4-57.71,5.96
				c-17.11-0.45-43.93,2.73-58.65,5.73C-1032.49,383.74-1038.87,382.19-1038.87,382.19z"/>
		</g>
	</g>
	<g class="st0">
		<g>
			<g>
				<path class="st1" d="M-1093.62,36.01c2.23-7.61,15.35-40.98,6.73-66.33c-8.61-25.35-18.19-39.96-39.53-34.25
					c-21.34,5.71-26.3,36.78-1.59,80.26C-1113.27,41.63-1097.16,48.08-1093.62,36.01z"/>
			</g>
		</g>
	</g>
	<g>
		<g>
			<path class="st2" d="M-1101.07,31.09c2.23-7.61,15.35-40.98,6.73-66.33c-8.61-25.35-18.19-39.96-39.53-34.25
				c-21.34,5.71-26.3,36.78-1.59,80.26C-1120.71,36.7-1104.61,43.16-1101.07,31.09z"/>
		</g>
	</g>
	<g>
		<g>
			<g>
				<g>
					<path class="st6" d="M-769.75,3.52c0,0,6.43-4.45,7.87-4.79c0,0,0.96-0.28,0.87,0.73c-0.1,1.18-7.7,5.75-7.7,5.75L-769.75,3.52
						z"/>
				</g>
			</g>
			<g>
				<g>
					<path class="st6" d="M-768.44,5.3c0,0,6.69-4.05,8.15-4.3c0,0,0.97-0.22,0.82,0.78c-0.18,1.17-8.04,5.27-8.04,5.27L-768.44,5.3
						z"/>
				</g>
			</g>
			<g>
				<g>
					<path class="st6" d="M-767.92,7.98c0,0,6.69-4.05,8.15-4.3c0,0,0.97-0.22,0.82,0.78c-0.18,1.17-8.04,5.27-8.04,5.27
						L-767.92,7.98z"/>
				</g>
			</g>
			<g>
				<g>
					<path class="st6" d="M-766.37,9.99c0,0,5.53-3.35,6.74-3.56c0,0,0.81-0.19,0.68,0.64c-0.14,0.97-6.65,4.36-6.65,4.36
						L-766.37,9.99z"/>
				</g>
			</g>
		</g>
		<g>
			<g>
				<path class="st6" d="M-957.8,38.97c0,0,13.13-17.31,28.3-25.27c0,0,3.21-2.45,9.4-2.79c6.19-0.34,6.25,0.37,6.25,0.37
					s15.56,1.77,30.91,10.62c0,0,5.31,10.04,2.36,26.38c-2.95,16.34,16.27,112.78,16.27,112.78s-45.53,4.07-74.01-5.25
					c0,0,5.68-23.49,0.51-61.48c0,0-3.6-20.27-8.71-29.33C-946.51,65.01-959.84,50.52-957.8,38.97z"/>
			</g>
		</g>
		<g>
			<g>
				<path class="st6" d="M-915.44,26.39c0.88-9.8,19.98-9.24,30.3-6.52c10.32,2.72,38.55,11.23,46.07,13.88
					c7.52,2.64,13.1,15,10.07,20.09c-3.03,5.08-49.38-1.87-62.77-7.19C-905.17,41.32-916.89,42.44-915.44,26.39z"/>
			</g>
		</g>
		<g>
			<g>
				<path class="st1" d="M-817.88,56.42c-1,0.17-1.99,0.34-2.98,0.49c-20.3,3.12-38.04,1.64-51.47-1.92h-0.01
					c-2.73-0.72-5.28-1.54-7.64-2.41c-0.01,0-0.02-0.01-0.02-0.01c-7.6-2.82-13.18-6.31-16.25-9.78
					c-8.94-10.07-2.81-15.47-2.81-15.47c4.76-5.56-3.09-10.75,12.05-10.35c15.13,0.4,55.81,16.22,55.81,16.22
					c6.32,5.15,9.83,12.38,11.64,17.41c0.5,1.38,0.86,2.6,1.13,3.55C-818.04,55.56-817.88,56.42-817.88,56.42z"/>
			</g>
		</g>
		<g class="st7">
			<g>
				<path class="st8" d="M-814.29,49.46l-4.13,4.68l-2.43,2.76c-24.45,3.76-45.18,0.84-59.14-4.34l-0.58-4.28
					c0,0,35.36,6.87,61.03,2.31C-817.74,50.28-815.98,49.9-814.29,49.46z"/>
			</g>
		</g>
		<g>
			<g>
				<g>
					<path class="st6" d="M-857.74,262.37c-1.2,30.88-30.06,89.06-36.52,101.71c-0.36,0.72-0.66,1.28-0.87,1.69
						c0,0-0.01,0.01-0.02,0.03c-0.01,0.02-0.02,0.02-0.02,0.05c-0.09,0.17-0.17,0.31-0.22,0.42c-0.1,0.19-0.15,0.28-0.15,0.28
						c-6.5,2.36-9.25-3.15-9.25-3.15c0.02-0.64,0.06-1.5,0.15-2.55c0.97-12.68,6.46-53.62,10.28-71.06
						c4.13-18.9,13.78-28.74,13.78-28.74s5.12-3.94,11.61-3.35C-862.47,258.3-857.74,262.37-857.74,262.37z"/>
				</g>
			</g>
			<g>
				<g>
					<path class="st6" d="M-881.27,388.11c-8.56,0.49-24.6-11.91-24.9-15.26c-0.13-1.46,0.12-3.44,0.43-5.21
						c0.41-2.3,0.94-4.24,0.94-4.24c0.72-0.31,1.42-0.51,2.06-0.63c5.04-0.95,7.59,3,7.59,3s-0.01,0.01-0.02,0.03
						c-0.01,0.02-0.02,0.02-0.02,0.05c-0.03,0.08-0.07,0.22-0.08,0.45v0.01c-0.02,0.72,0.32,2.27,2.47,5.06
						c2.35,3.05,9.92,9.72,12.42,13.03c0.24,0.31,0.43,0.6,0.57,0.85C-878.21,388.11-881.27,388.11-881.27,388.11z"/>
				</g>
			</g>
			<g>
				<g>
					<path class="st4" d="M-881.27,388.11c-8.56,0.49-24.6-11.91-24.9-15.26c-0.13-1.46,0.12-3.44,0.43-5.21
						c0,0,4.49,9.46,19.67,16.26c1.31,0.59,5.3,2.54,5.71,0.5c0.24,0.31,0.43,0.6,0.57,0.85
						C-878.21,388.11-881.27,388.11-881.27,388.11z"/>
				</g>
			</g>
			<g>
				<g>
					<path class="st4" d="M-894.26,364.08c-0.36,0.72-0.66,1.28-0.87,1.69c0,0-0.01,0.01-0.02,0.03c-0.01,0.02-0.02,0.02-0.02,0.05
						c-0.03,0.08-0.07,0.22-0.08,0.45v0.01c-0.05-0.02-0.09-0.03-0.14-0.04c-3.62-1.06-5.93-2.41-7.34-3.5
						c-1.41-1.09-1.91-1.92-1.91-1.92L-894.26,364.08z"/>
				</g>
			</g>
			<g>
				<g>
					<path class="st6" d="M-974.27,263.42l-41.2,110.22c0,0,3.67,4.46,9.19,2.1s55.9-70.07,56.82-105.63
						C-949.46,270.11-958.78,256.72-974.27,263.42z"/>
				</g>
			</g>
			<g>
				<g>
					<path class="st6" d="M-1007.05,381.18c-0.98,3.87-3.24,8.94-8.42,12.15c-9.32,5.77-19.03-2.23-14.05-5.2
						c0.61-0.37,1.3-0.87,2.02-1.46c5.08-4.18,12.03-13.02,12.03-13.02c6.3-1.44,9.18,2.1,9.18,2.1S-1006.26,378.07-1007.05,381.18z
						"/>
				</g>
			</g>
			<g>
				<g>
					<path class="st4" d="M-1007.05,381.18c-0.98,3.87-3.24,8.94-8.42,12.15c-9.32,5.77-19.03-2.23-14.05-5.2
						c0.61-0.37,1.3-0.87,2.02-1.46c-0.07,1.06,0.26,2.32,1.66,3.42C-1022.89,392.38-1012.64,391.58-1007.05,381.18z"/>
				</g>
			</g>
			<g>
				<g>
					<path class="st4" d="M-1003.64,373.44c0,0-6.51,0.26-11.29-1.24l1.58-4.26L-1003.64,373.44z"/>
				</g>
			</g>
			<g>
				<g>
					<path class="st6" d="M-913.38,173.93c0,0,5.25,52.75,30.97,89.49c0,0,9.97,7.09,24.67-1.05c0,0,5.77-60.62-6.56-101.3
						c0,0-11.55-14.17-27.56-11.02C-907.87,153.19-913.12,166.84-913.38,173.93z"/>
				</g>
			</g>
			<g>
				<g>
					<path class="st9" d="M-850.13,261.54c0.18,16.73-20.83,75.46-28.44,96.16c-1.68,4.57-2.7,7.28-2.7,7.28
						c-8.19,2.03-15.89-0.33-21.43-3.09c-5.22-2.61-8.52-5.57-8.52-5.57l19.88-92.9c0.64-1.69,2-3.3,4.18-4.82
						c0.76-0.53,1.61-1.05,2.56-1.55c3.11-1.65,7.3-3.19,12.68-4.61C-860.1,249.34-850.13,261.54-850.13,261.54z"/>
				</g>
			</g>
			<g>
				<g>
					<path class="st9" d="M-850.13,261.54c-10.95,9.1-24.52,7.45-33.03,4.99c-0.8-0.23-1.56-0.46-2.26-0.7
						c-3.65-1.23-5.92-2.42-5.92-2.42c-3.75-7.09-7.55-15.28-11.15-23.99c-2.83-6.86-5.53-14.05-7.97-21.28
						c-8.78-26.04-14.12-52.69-9.82-66.96c7.02-23.26,51.25-18.3,51.25-18.3C-865.35,150.37-850.13,261.54-850.13,261.54z"/>
				</g>
			</g>
			<g class="st0">
				<g>
					<g>
						<path class="st10" d="M-857.74,268.86c-0.11,0-0.21-0.04-0.29-0.13c-4.8-5.26-4.16-9.81-4.13-10
							c0.03-0.21,0.24-0.36,0.45-0.33c0.21,0.03,0.36,0.23,0.33,0.45c-0.01,0.04-0.59,4.38,3.94,9.35c0.15,0.16,0.13,0.41-0.03,0.56
							C-857.55,268.83-857.65,268.86-857.74,268.86z"/>
					</g>
				</g>
			</g>
			<g class="st11">
				<g>
					<path class="st8" d="M-878.57,357.7c-1.68,4.57-2.7,7.28-2.7,7.28c-8.19,2.03-15.89-0.33-21.43-3.09
						c-5.22-2.61-8.52-5.57-8.52-5.57l19.88-92.9c-3.75-7.09-7.55-15.28-11.15-23.99c-2.83-6.86-5.53-14.05-7.97-21.28l8.36-11.94
						l17.49,50.85l2.19,6.37c0,0-0.28,1.12-0.75,3.12c-2.16,9.33-8.16,37.84-6.87,61.18C-889.03,345.56-882.94,353.94-878.57,357.7z
						"/>
				</g>
			</g>
			<g>
				<g>
					<path class="st4" d="M-893.71,258.79c0,0,3.52-4.3,10.31-5.28c10.89-1.57,19.97-4.96,30.76-10.18l-0.59-3.83l-46.09-25.1
						l-6.69,18.96L-893.71,258.79z"/>
				</g>
			</g>
			<g>
				<g>
					<path class="st6" d="M-895.93,188.62c0,0-34.25,66.92-53.54,81.49c0,0-15.55,7.09-24.8-6.69c0,0,2.1-32.54,35.95-107.6
						c0,0,16.66-7.35,33.26,6.82C-888.45,176.81-895.93,188.62-895.93,188.62z"/>
				</g>
			</g>
			<g>
				<g>
					<path class="st9" d="M-912.85,188.62c-6.49,50.94-48.55,143.87-63.14,174.97c-3.11,6.63-4.97,10.45-4.97,10.45
						c-29.13,3.94-37.62-9.05-37.62-9.05s10.06-18.11,30.93-75.98c9.7-26.9,19.14-62.76,26.48-93.42
						c8.43-35.3,14.07-63.72,14.07-63.72C-899.86,127.46-912.85,188.62-912.85,188.62z"/>
				</g>
			</g>
			<g class="st0">
				<g>
					<g>
						<path class="st10" d="M-968.23,275.1c-0.12,0-0.23-0.05-0.31-0.15c-0.14-0.17-0.11-0.42,0.06-0.55
							c7.59-6.07,6.18-12.13,6.16-12.19c-0.05-0.21,0.08-0.42,0.29-0.48c0.21-0.06,0.42,0.07,0.48,0.29c0.07,0.27,1.54,6.62-6.43,13
							C-968.06,275.07-968.14,275.1-968.23,275.1z"/>
					</g>
				</g>
			</g>
			<g class="st11">
				<g>
					<path class="st8" d="M-975.99,363.59c-3.11,6.63-4.97,10.45-4.97,10.45c-29.13,3.94-37.62-9.05-37.62-9.05
						s10.06-18.11,30.93-75.98c9.7-26.9,19.14-62.76,26.48-93.42l11.71,14.69c0,0-55.24,123.56-49.21,140.93
						C-994.85,362.19-983.68,363.85-975.99,363.59z"/>
				</g>
			</g>
			<g>
				<g>
					<path class="st4" d="M-975.34,250.15c0,0,6.52,7.5,31.97,7.5c3.67,0,6.67,2.68,10.68,2.88l3.39-9.57L-975.34,250.15z"/>
				</g>
			</g>
		</g>
		<g>
			<g>
				<path class="st4" d="M-911.96-11.12c0,0,7.69-0.41,8.91-6.36c1.22-5.94-2.1-7.69-1.4-11.71c0.7-4.02,2.8-9.61-2.1-12.76
					c-4.89-3.15-4.25-5.77-7.02-11.01c-2.77-5.24-6.61-8.91-12.38-8.04c-5.77,0.87-7.86,1.75-11.19-2.45
					c-3.32-4.19-7.62-7.44-13.85-2.57c-7.26,5.68-9.56,2.36-14.11,2.59c-4.54,0.23-7.93,3.88-9.56,8.07
					c-1.63,4.19-4.49,5.4-8.97,6.76c-3.66,1.11-6.44,6.61-3.76,11.15c2.68,4.54-0.2,7.86-1.37,11.52c-1.17,3.66,0.47,8.21,3.96,9.6
					c3.5,1.4,2.8,6.82,4.31,10.63c1.51,3.82,7.11,4.6,10.6,4.03c3.5-0.57,5.01,1.76,7.69,5.84c2.68,4.08,5.83,6.76,9.67,5.13
					c3.85-1.63,8.97-4.31,12.35-1.86c3.38,2.45,13.05,0.93,14.56-1.17C-924.08,4.19-911.96-11.12-911.96-11.12z"/>
			</g>
		</g>
		<g>
			<g>
				<polygon class="st6" points="-913.56,14.58 -929.5,13.7 -927.91,-0.71 -914.82,0.03 -914.58,2.89 -914.32,5.83 				"/>
			</g>
		</g>
		<g>
			<g>
				<path class="st4" d="M-914.41,4.8c-6.66,1.34-11.14-3.62-11.14-3.62c1.35,1,3.55,1.83,3.55,1.83c4.09,1.62,7.42-0.13,7.42-0.13
					L-914.41,4.8z"/>
			</g>
		</g>
		<g>
			<g>
				<path class="st6" d="M-913.28-17.28c5.02,7.29,5.8,15.46,0.16,19.34c-5.64,3.88-13.28,0.43-18.29-6.87
					c-5.02-7.29-5.52-15.66,0.12-19.54C-925.65-28.23-918.3-24.57-913.28-17.28z"/>
			</g>
		</g>
		<g>
			<g>
				<path class="st4" d="M-924.17-27c0,0-2.85,20.27-7.79,21.32c-4.94,1.05-8.75-10.27-5.77-15.42
					C-934.77-26.26-924.17-27-924.17-27z"/>
			</g>
		</g>
		<g>
			<g>
				<path class="st6" d="M-956.46,38.98c6.69-7.21,17.71,8.16,24.21,16.62c6.5,8.46,28.06,26.73,32.39,33.43
					c4.33,6.69,2.05,13.38-3.46,15.55c-5.51,2.17-40.52-19.68-47.86-32.08C-958.52,60.09-967.43,50.79-956.46,38.98z"/>
			</g>
		</g>
		<g>
			<g>
				<path class="st1" d="M-839.91,237.83c0,0-16.35,6.11-42.98,10.42l-4.21-9.42l-7.15-15.97l-3.34,14.99l-2.83,12.74
					c-22.3,2.39-49.4,2.95-78.96-1.35c0,0,18.75-50.39,26.38-109.83c7.62-59.44,3.53-64.39,3.53-64.39l-2.1-7.73l-7.72-28.35
					c0,0,13.55-17.11,29.81-25.23l19.85,22.79l-4.2-25.21c0,0,10.31,1.47,26.84,5.68c0,0,6.67,9.7,7.09,38.82
					c0,0,16.27,80.08,27.69,116.69c9.12,29.23,11.53,53.44,12.12,62.02C-839.95,236.66-839.91,237.83-839.91,237.83z"/>
			</g>
		</g>
		<g>
			<g>
				<path class="st4" d="M-917.26-2.16c-3.48,0-4.98-2.12-5.05-2.24c-0.09-0.13-0.06-0.32,0.08-0.41c0.13-0.09,0.32-0.06,0.41,0.08
					c0.09,0.13,2.26,3.16,7.67,1.45c0.16-0.05,0.32,0.04,0.37,0.19c0.05,0.16-0.04,0.32-0.19,0.37
					C-915.23-2.32-916.32-2.16-917.26-2.16z"/>
			</g>
		</g>
		<g>
			<g>
				<path class="st4" d="M-926.83-56.82c-0.02,0-0.04,0-0.07-0.01c-8.78-1.99-10.15-12.74-10.17-12.85
					c-0.02-0.16,0.1-0.31,0.26-0.33c0.16-0.02,0.31,0.1,0.33,0.26c0.01,0.1,1.34,10.45,9.71,12.34c0.16,0.04,0.26,0.19,0.22,0.35
					C-926.57-56.92-926.69-56.82-926.83-56.82z"/>
			</g>
		</g>
		<g>
			<g>
				<path class="st4" d="M-992.51-28.04c-0.13,0-0.24-0.08-0.28-0.21c-0.05-0.16,0.04-0.32,0.19-0.37c5.21-1.63,6.27-8.21,6.28-8.28
					c0.02-0.16,0.18-0.27,0.34-0.25c0.16,0.02,0.27,0.18,0.25,0.34c-0.04,0.29-1.13,7.01-6.69,8.75
					C-992.45-28.04-992.48-28.04-992.51-28.04z"/>
			</g>
		</g>
		<g>
			<g>
				<path class="st4" d="M-963.9,9.21c-0.01,0-0.01,0-0.02,0c-0.16-0.01-0.29-0.15-0.28-0.31c0.45-8.05-4.16-12.03-4.92-12.12
					c-0.16-0.02-0.28-0.16-0.26-0.33c0.02-0.16,0.16-0.28,0.33-0.26c1.21,0.13,5.9,4.55,5.44,12.74
					C-963.62,9.09-963.75,9.21-963.9,9.21z"/>
			</g>
		</g>
		<g>
			<g>
				<path class="st12" d="M-902.39,57.63c-12.17-5.81-21.79-20.67-21.79-20.67l0.49-8.27l-7.44,1.81
					c-3.9-5.27-3.81-13.72-3.81-13.72l5.36-3.09l19.92,22.79l3.59,10.32L-902.39,57.63z"/>
			</g>
		</g>
		<g>
			<g>
				<path class="st2" d="M-900.13,49.41c-0.03,0-0.06,0-0.09-0.01c-0.21-0.05-0.34-0.26-0.3-0.47c2.28-9.92,1.27-19.83,1.09-21.36
					l-7.71-4.01c-0.13-0.07-0.21-0.21-0.21-0.36c0-0.15,0.09-0.28,0.23-0.35l5.57-2.63c-1.72-4.21-6.26-7.52-6.3-7.55
					c-0.18-0.13-0.22-0.37-0.09-0.55c0.13-0.18,0.37-0.22,0.55-0.09c0.2,0.15,5.02,3.67,6.71,8.25c0.07,0.19-0.02,0.41-0.2,0.49
					l-5.19,2.45l7.19,3.74c0.11,0.06,0.19,0.17,0.21,0.3c0.01,0.11,1.42,10.97-1.08,21.84C-899.79,49.29-899.95,49.41-900.13,49.41z
					"/>
			</g>
		</g>
		<g>
			<g>
				<path class="st4" d="M-932.56-5.32c-0.15,0-0.28-0.11-0.29-0.27c-0.02-0.16,0.1-0.31,0.27-0.32c0.23-0.02,5.68-0.63,7.44-6.9
					c1.8-6.42,0.5-12.78,0.49-12.85c-0.03-0.16,0.07-0.32,0.23-0.35c0.16-0.03,0.32,0.07,0.35,0.23c0.01,0.06,1.34,6.57-0.5,13.13
					c-1.87,6.68-7.89,7.33-7.95,7.33C-932.54-5.32-932.55-5.32-932.56-5.32z"/>
			</g>
		</g>
		<g>
			<g>
				<ellipse class="st6" cx="-931.96" cy="-3.34" rx="2.6" ry="2.34"/>
			</g>
		</g>
		<g>
			<g>
				<path class="st4" d="M-932.17-1.81c-0.45,0-0.85-0.17-1.14-0.49c-0.29-0.32-0.43-0.75-0.39-1.2c0.04-0.44,0.25-0.86,0.59-1.17
					c0.12-0.11,0.31-0.1,0.42,0.02c0.11,0.12,0.1,0.31-0.02,0.42c-0.23,0.21-0.38,0.49-0.4,0.79c-0.03,0.28,0.06,0.55,0.24,0.74
					c0.18,0.2,0.45,0.3,0.72,0.3c0.3,0,0.59-0.12,0.82-0.34c0.12-0.11,0.31-0.1,0.42,0.02c0.11,0.12,0.1,0.31-0.02,0.42
					c-0.34,0.31-0.77,0.49-1.22,0.49C-932.16-1.81-932.16-1.81-932.17-1.81z"/>
			</g>
		</g>
		<g>
			<g>
				<path class="st4" d="M-882.89,248.6c-0.18,0-0.33-0.13-0.35-0.31c-0.02-0.19,0.12-0.36,0.31-0.39
					c0.26-0.03,26.31-3.02,42.88-10.4c0.18-0.08,0.38,0,0.46,0.18c0.08,0.18,0,0.38-0.18,0.46c-16.67,7.42-42.82,10.42-43.08,10.45
					C-882.86,248.6-882.88,248.6-882.89,248.6z"/>
			</g>
		</g>
		<g>
			<g>
				<path class="st4" d="M-934.02,253c-12.78,0-28.4-0.8-45.41-3.41c-0.19-0.03-0.32-0.21-0.29-0.4c0.03-0.19,0.21-0.32,0.4-0.29
					c43.91,6.74,78.51,1.41,78.85,1.35c0.19-0.03,0.37,0.1,0.4,0.29c0.03,0.19-0.1,0.37-0.29,0.4
					C-900.58,250.98-913.73,253-934.02,253z"/>
			</g>
		</g>
		<g>
			<g>
				<path class="st2" d="M-894.25,225.42c-0.02,0-0.03,0-0.05,0c-0.22-0.03-0.37-0.23-0.34-0.44c0.1-0.78,10.01-78.92-4.8-154.73
					c-0.41-2.08-2.34-9.56-3.32-12.49c-0.07-0.21,0.04-0.43,0.25-0.5c0.21-0.07,0.43,0.04,0.5,0.25c0.98,2.95,2.94,10.5,3.34,12.59
					c14.84,75.94,4.91,154.2,4.81,154.98C-893.88,225.28-894.05,225.42-894.25,225.42z"/>
			</g>
		</g>
		<g class="st7">
			<g>
				<path class="st8" d="M-938.31,226.68c9.32,6.43,29.25,9.6,40.72,11.19l-2.83,12.74c-22.3,2.39-49.4,2.95-78.96-1.35
					c0,0,18.75-50.39,26.38-109.83c7.62-59.44,3.53-64.39,3.53-64.39l-2.1-7.73c14.77-27.68,25.59-14.72,30.71-6.02
					c6.18,10.49-7.2,84.57-12.35,115.28C-938.36,207.26-938.31,226.68-938.31,226.68z"/>
			</g>
		</g>
		<g>
			<g>
				<path class="st4" d="M-946.76,79.8l42.69,36.31c0,0,17.56-5.65,21.92-9.56c6.76-6.07,11.14-8.57,11.14-8.57l-2.14-11.36
					L-946.76,79.8z"/>
			</g>
		</g>
		<g class="st7">
			<g>
				<path class="st8" d="M-839.91,237.83c0,0-16.35,6.11-42.98,10.42l-4.21-9.42c20.01,1.01,38.9-2.53,47-4.34
					C-839.95,236.66-839.91,237.83-839.91,237.83z"/>
			</g>
		</g>
		<g>
			<g>
				<path class="st4" d="M-915.14-6.98c-0.13,0-0.25-0.09-0.29-0.23c-0.04-0.16,0.06-0.32,0.22-0.36c0.77-0.18,1.13-0.75,1.28-1.06
					c-1.74-1.06-2.76-3.06-2.8-3.15c-0.07-0.15-0.01-0.32,0.13-0.4c0.15-0.07,0.32-0.01,0.4,0.13c0.01,0.02,1.07,2.1,2.78,3.02
					c0.12,0.07,0.18,0.2,0.14,0.34c-0.01,0.05-0.38,1.35-1.79,1.69C-915.09-6.98-915.12-6.98-915.14-6.98z"/>
			</g>
		</g>
		<g>
			<g>
				<path class="st4" d="M-915.95-15.37c-0.08,0-0.15-0.03-0.21-0.09c-0.11-0.12-0.11-0.3,0-0.42c0.07-0.06,1.66-1.6,4.26-2.31
					c0.16-0.04,0.32,0.05,0.36,0.21c0.04,0.16-0.05,0.32-0.21,0.36c-2.46,0.66-3.99,2.14-4,2.16
					C-915.81-15.4-915.88-15.37-915.95-15.37z"/>
			</g>
		</g>
		<g>
			<g>
				<g>
					<path class="st5" d="M-766.85-12.96l19.92,67.37c2.97,10.06,1.59,20.36-3.05,28.9c-4.65,8.54-12.54,15.3-22.6,18.28
						c-8.25,2.44-16.66,1.95-24.14-0.88c-8.85-3.33-16.37-9.93-20.7-18.79c-0.93-1.89-1.72-3.89-2.33-5.98l-19.92-67.37
						L-766.85-12.96z"/>
				</g>
			</g>
			<g>
				<g>
					<path class="st9" d="M-786.84-80.58l19.99,67.62l-72.82,21.53l-19.99-67.62c-2.26-7.63-2-15.41,0.28-22.45
						c0.72-2.24,1.66-4.4,2.77-6.46c4.64-8.54,12.54-15.3,22.59-18.27c0.36-0.11,0.72-0.21,1.08-0.3
						C-813.16-111.77-792.68-100.33-786.84-80.58z"/>
				</g>
			</g>
			<g>
				<g>
					
						<ellipse transform="matrix(0.959 -0.2835 0.2835 0.959 -32.3299 -227.8063)" class="st9" cx="-803.27" cy="-2.2" rx="37.97" ry="5.7"/>
				</g>
			</g>
			<g class="st11">
				<g>
					<path class="st8" d="M-786.84-80.58l39.91,135c2.97,10.06,1.59,20.36-3.05,28.9c-4.65,8.54-12.54,15.3-22.6,18.28
						c-8.25,2.44-16.66,1.95-24.14-0.88c23.55-4.75,32.77-21.33,33.79-31.69c1.84-18.6-1.9-31.2-15.63-73.97
						c-0.44-1.37-0.89-2.75-1.35-4.15c-0.45-1.38-0.9-2.77-1.37-4.18c-4.67-14.14-10.05-29.46-16.12-45.56
						c-9.64-25.58-22.78-39.86-35.55-47.69C-813.16-111.77-792.68-100.33-786.84-80.58z"/>
				</g>
			</g>
			<g>
				<g>
					<path class="st10" d="M-771.91,101.77c-0.17,0-0.33-0.11-0.38-0.29c-0.06-0.21,0.06-0.43,0.27-0.48
						c9.24-2.57,18.72-11.09,23.07-20.72c0.87-1.93,1.57-4.06,2.1-6.35c1.5-6.58,1.23-13.67-0.79-20.49l-39.58-133.91
						c-0.06-0.21,0.06-0.43,0.27-0.49c0.21-0.06,0.43,0.06,0.49,0.27l39.58,133.91c2.05,6.95,2.33,14.17,0.8,20.89
						c-0.53,2.34-1.26,4.53-2.15,6.5c-4.43,9.83-14.13,18.52-23.57,21.15C-771.83,101.77-771.87,101.77-771.91,101.77z"/>
				</g>
			</g>
			<g class="st13">
				<g>
					<path class="st12" d="M-796.09,59.97c-1.2,5.08-5.03,11.44-10.4,16.34c-2.48,2.26-6.51,1.2-7.47-2.02
						c-0.01-0.02-0.01-0.04-0.02-0.06l-39.91-135c-1.75-5.94-1.99-11.96-0.93-17.66c0.51-2.74,3.51-4.28,6-3.02
						c4.16,2.1,8.46,5.86,12.22,12.33c5.89,10.13,15.84,37.18,24.42,64.01c0.54,1.69,1.08,3.39,1.61,5.07
						c0.54,1.7,1.06,3.4,1.58,5.09C-800.96,31.2-794.92,55-796.09,59.97z"/>
				</g>
			</g>
			<g>
				<g>
					<path class="st10" d="M-819.26,77.91c-0.17,0-0.33-0.11-0.38-0.28l-10.61-35.76c-0.06-0.21,0.06-0.43,0.27-0.49
						c0.21-0.06,0.43,0.06,0.49,0.27l10.61,35.76c0.06,0.21-0.06,0.43-0.27,0.49C-819.18,77.91-819.22,77.91-819.26,77.91z"/>
				</g>
			</g>
			<g>
				<g>
					<path class="st10" d="M-834.87,10.31c-2.77,0-4.09-0.46-4.71-0.96c-0.36-0.29-0.46-0.57-0.48-0.7l-18.72-63.34
						c-0.06-0.21,0.06-0.43,0.27-0.49c0.21-0.06,0.43,0.06,0.49,0.27l18.73,63.36c0.01,0.03,0.01,0.06,0.02,0.08l0,0
						c0.01,0,0.73,2,11.6,0.32c0.21-0.03,0.42,0.11,0.45,0.33c0.03,0.21-0.11,0.42-0.33,0.45
						C-830.73,10.12-833.1,10.31-834.87,10.31z"/>
				</g>
			</g>
			<g>
				<g>
					<path class="st10" d="M-792.96,0.92c-0.17,0-0.33-0.11-0.38-0.28c-0.06-0.21,0.05-0.43,0.26-0.49c0.12-0.04,12.09-3.68,21.28-9
						c0.19-0.11,0.43-0.04,0.54,0.14c0.11,0.19,0.04,0.43-0.14,0.54c-9.27,5.36-21.33,9.03-21.45,9.07
						C-792.89,0.92-792.92,0.92-792.96,0.92z"/>
				</g>
			</g>
		</g>
		<g>
			<g>
				<path class="st2" d="M-879.99,52.96c-0.21,0-0.38-0.16-0.39-0.37l-0.58-12.22c-0.01-0.22,0.16-0.4,0.37-0.41
					c0.22-0.01,0.4,0.16,0.41,0.37l0.58,12.22c0.01,0.22-0.16,0.4-0.37,0.41C-879.98,52.96-879.99,52.96-879.99,52.96z"/>
			</g>
		</g>
		<g>
			<g>
				<path class="st4" d="M-872.33,54.98L-872.33,54.98c-2.74-0.72-5.29-1.54-7.64-2.41l-0.02-7.48L-872.33,54.98z"/>
			</g>
		</g>
		<g>
			<g>
				<path class="st12" d="M-903.16,148.14c0,0,4.07,25.52-13.62,26.81c-16.23,1.18-15.78-26.04-15.78-26.04
					c4.35,0.38,9.22,0.59,14.52,0.46C-912.58,149.23-907.6,148.76-903.16,148.14z"/>
			</g>
		</g>
		<g>
			<g>
				<path class="st2" d="M-902.39,58.03c-0.07,0-0.13-0.02-0.19-0.05c-12.22-6.89-21.8-21.14-21.89-21.28
					c-0.05-0.07-0.07-0.16-0.07-0.24l0.46-7.77c0.01-0.22,0.2-0.38,0.42-0.37c0.22,0.01,0.38,0.2,0.37,0.42l-0.45,7.64
					c0.91,1.33,10.05,14.45,21.55,20.93c0.19,0.11,0.26,0.35,0.15,0.54C-902.12,57.95-902.25,58.03-902.39,58.03z"/>
			</g>
		</g>
		<g>
			<g>
				<path class="st2" d="M-923.08,146.34c-6.24,0-11.11-0.31-11.2-0.32c-0.22-0.01-0.38-0.2-0.37-0.42c0.01-0.22,0.2-0.38,0.42-0.37
					c0.18,0.01,18.07,1.15,29.3-0.98c0.22-0.04,0.42,0.1,0.46,0.31c0.04,0.21-0.1,0.42-0.31,0.46
					C-910.25,146.07-917.26,146.34-923.08,146.34z"/>
			</g>
		</g>
		<g>
			<g>
				<path class="st2" d="M-919.48,172.24c-3.11,0-5.8-1.06-8.02-3.16c-7.33-6.93-7.15-22.65-7.14-23.32c0-0.22,0.18-0.39,0.39-0.39
					c0,0,0,0,0.01,0c0.22,0,0.39,0.18,0.39,0.4c0,0.16-0.18,16.05,6.9,22.74c2.3,2.17,5.15,3.15,8.46,2.91
					c4.05-0.3,7.26-1.85,9.54-4.61c5.05-6.14,3.89-16.3,3.88-16.4c-0.03-0.22,0.13-0.41,0.34-0.44c0.22-0.03,0.41,0.13,0.44,0.34
					c0.05,0.43,1.22,10.6-4.05,17c-2.42,2.94-5.81,4.58-10.09,4.89C-918.8,172.23-919.14,172.24-919.48,172.24z"/>
			</g>
		</g>
		<g>
			<g>
				<g>
					<path class="st6" d="M-830.43,44.05c0,0-11.22,14.66-19.1,26.87c-7.87,12.2-39.56,29.67-54.33,30.46c0,0-10.78-4.28,4.77-17.07
						c15.55-12.79,44.68-28.54,51.37-33.85c6.69-5.31,10.83-10.94,10.83-10.94S-831.26,36.67-830.43,44.05z"/>
				</g>
			</g>
			<g>
				<g>
					<path class="st4" d="M-840.77,44.05c0,0,3.95,1.82,5.47,6.5l-1.58,1.6L-840.77,44.05z"/>
				</g>
			</g>
			<g>
				<g>
					<path class="st1" d="M-899.06,94.69c-0.13,7.58-2.18,13.42-2.18,13.42c-37.4-13.58-58.46-37.59-61.21-50.78
						c-2.63-12.59,2.63-17.91,3.11-18.36v-0.01c0.02-0.02,0.04-0.03,0.04-0.03c6.89-2.46,13.38,0.49,26.31,8.36
						c12.94,7.87,31.75,34.05,31.75,34.05C-899.5,85.87-898.99,90.55-899.06,94.69z"/>
				</g>
			</g>
			<g>
				<g>
					<path class="st1" d="M-833.93,59.3c-29.13,30.11-67.32,48.81-67.32,48.81c-1.04-4.36-1.53-8.29-1.68-11.71
						c-0.45-9.52,1.68-15.06,1.68-15.06c9.6-10.43,57.67-39.96,57.67-39.96c4.24,3.54,6.68,8.17,8.03,11.84
						C-834.26,56.7-833.93,59.3-833.93,59.3z"/>
				</g>
			</g>
			<g class="st7">
				<g>
					<path class="st8" d="M-833.93,59.3c-29.13,30.11-67.32,48.81-67.32,48.81c-37.4-13.58-58.46-37.59-61.21-50.78
						c-2.63-12.59,2.63-17.91,3.11-18.36c2.48,6.31,5.64,16.01,13.64,25.64c9.02,10.87,40.28,30.29,42.78,31.79
						c0.1,0.06,0.16,0.09,0.16,0.09s1.35-0.64,3.71-1.81c11.52-5.71,46.94-24.06,63.52-41.46C-834.26,56.7-833.93,59.3-833.93,59.3z
						"/>
				</g>
			</g>
			<g>
				<g>
					<path class="st2" d="M-899.91,80.19c-0.09,0-0.18-0.03-0.26-0.09l-34.35-29.27c-0.17-0.14-0.19-0.39-0.04-0.55
						c0.14-0.17,0.39-0.19,0.55-0.04l34.1,29.07c3.56-2.7,43.27-32.69,55.56-37.9c0.2-0.08,0.43,0.01,0.52,0.21
						c0.09,0.2-0.01,0.43-0.21,0.52c-12.71,5.39-55.21,37.67-55.64,37.99C-899.74,80.16-899.83,80.19-899.91,80.19z"/>
				</g>
			</g>
			<g>
				<g>
					<path class="st2" d="M-923.92,59.5c-0.15,0-0.29-0.08-0.36-0.23l-3.97-8.59c-0.09-0.2,0-0.43,0.19-0.52
						c0.2-0.09,0.43,0,0.52,0.19l3.97,8.59c0.09,0.2,0.01,0.43-0.19,0.52C-923.81,59.49-923.86,59.5-923.92,59.5z"/>
				</g>
			</g>
			<g>
				<g>
					<path class="st6" d="M-818.92,29.48c-0.21-0.81-0.88-0.33-0.88-0.33c-0.67,0.43-2.5,2.8-3.7,4.4
						c-0.12-0.03-0.24-0.06-0.37-0.08c-0.03-0.03-0.05-0.05-0.08-0.08c1.58-2,4.65-6.01,4.43-6.86c-0.25-0.98-1.06-0.39-1.06-0.39
						c-0.96,0.62-3.91,4.55-5.2,6.3c-0.35-0.08-0.42-0.37-0.42-0.37s5.63-6.85,5.34-7.99c-0.25-0.98-1.06-0.39-1.06-0.39
						c-1.24,0.8-5.81,7.15-5.81,7.15c-0.21,0.02-0.36-0.03-0.48-0.11c1.5-2.17,4.05-6.02,3.79-6.82c-0.31-0.96-1.08-0.33-1.08-0.33
						c-1.16,0.85-5.11,7.08-5.35,7.45l-0.02-0.01c0,0-0.44,0.78-1.14,1.17c0,0,0-0.01-0.01-0.01c-0.41-1.66,0.75-3.6,0.29-5.31
						c-0.3-1.13-1.05-0.65-1.05-0.65l-4.34,13.99c1.24,3.81,6.54,4.04,6.54,4.04c1.59-1.89,5.65-5.49,7.92-8.91
						c0.07-0.11,0.13-0.21,0.18-0.31C-821.15,33.34-818.74,30.17-818.92,29.48z"/>
				</g>
			</g>
		</g>
		<g>
			<g>
				<g>
					<path class="st6" d="M-762.64-0.7c0,0-1.19,0.89-1.34,1.39c-0.15,0.5,0.16,0.79,0.48,0.8c0.32,0,1.19-0.61,1.59-0.93
						L-762.64-0.7z"/>
				</g>
			</g>
			<g>
				<g>
					<path class="st6" d="M-761.67,1.91c0,0-1.19,0.89-1.34,1.39c-0.15,0.5,0.16,0.79,0.48,0.8c0.32,0,1.19-0.61,1.59-0.93
						L-761.67,1.91z"/>
				</g>
			</g>
			<g>
				<g>
					<path class="st6" d="M-760.94,4.45c0,0-1.19,0.89-1.34,1.39c-0.15,0.5,0.16,0.79,0.48,0.8c0.32,0,1.19-0.61,1.59-0.93
						L-760.94,4.45z"/>
				</g>
			</g>
			<g>
				<g>
					<path class="st6" d="M-760.13,6.69c0,0-1.01,0.75-1.13,1.17c-0.12,0.42,0.13,0.67,0.4,0.67c0.27,0,1-0.51,1.34-0.79
						L-760.13,6.69z"/>
				</g>
			</g>
		</g>
	</g>
</g>
<g class="st0">
	<g>
		<g>
			<path class="st1" d="M214.56,123.45c-10.83,28.14-41.38,43.53-71.54,43.61c-11.08,0.03-23.23-1.61-34.12-6.81
				c-30.19-14.43-42.58-36.52-34.37-59.48c8.21-22.96,35.68-33.53,39.66-48.73c3.98-15.2,10.77-47.4,45.62-49.24
				C214.38-0.09,227.77,89.12,214.56,123.45z"/>
		</g>
	</g>
</g>
<g>
	<g>
		<path class="st2" d="M219.09,97.75c0,27.69-21.11,50.95-46.92,60.97c-9.48,3.68-20.43,6.28-31.49,5.41
			c-30.63-2.41-48.54-17.25-49.07-39.64c-0.53-22.39,19.52-40.51,17.91-54.84s-6.41-44.17,22.86-57.24
			C178.2-8.06,219.09,63.97,219.09,97.75z"/>
	</g>
</g>
<g>
	<g>
		<g>
			<path class="st3" d="M124.27,179.33c0,0,8.82-10.43,5.1-20.98c-3.25-9.23-5.32-12.33-4.88-19.85c0.35-6.11-1.32-12.23-6.04-17.84
				c-3.55-4.22-4.46-10.19-3.56-15.62c1.27-7.66-5.52-20.99-15.55-8.67c-6.22,7.64-5.23,18.37-2.37,26.81
				c1.82,5.39,3.22,18.94,1.25,25.79c-2.95,10.32-1.64,19.49,3.37,28.77S124.27,179.33,124.27,179.33z"/>
		</g>
	</g>
	<g>
		<g>
			<path class="st4" d="M114.22,182.14l-0.23-0.05c0.03-0.16,3.19-16.45,0.12-26.8c-1.53-5.14-1.91-10.71-2.29-16.09
				c-0.23-3.32-0.45-6.46-0.93-9.24c-0.45-2.59-1.76-6.4-3.03-10.09c-1.21-3.52-2.36-6.85-2.76-9.08
				c-1.49-8.2,3.67-19.13,3.73-19.24l0.21,0.1c-0.05,0.11-5.18,10.97-3.71,19.1c0.4,2.22,1.55,5.54,2.76,9.05
				c1.27,3.7,2.59,7.52,3.04,10.12c0.48,2.79,0.7,5.93,0.93,9.26c0.37,5.37,0.76,10.92,2.28,16.04
				C117.42,165.64,114.25,181.98,114.22,182.14z"/>
		</g>
	</g>
	<g>
		<g>
			<path class="st4" d="M105.65,113.02l-0.09-0.22c5.51-2.2,9.06-6.7,9.09-6.75l0.18,0.14C114.8,106.24,111.22,110.8,105.65,113.02z
				"/>
		</g>
	</g>
	<g>
		<g>
			<path class="st4" d="M105,107.83c-5.5-2.59-8.47-6.85-8.5-6.89l0.19-0.13c0.03,0.04,2.96,4.25,8.4,6.81L105,107.83z"/>
		</g>
	</g>
	<g>
		<g>
			<path class="st4" d="M109.12,123.65c-6.6-1.37-13.62-5.83-13.69-5.87l0.13-0.2c0.07,0.04,7.06,4.48,13.61,5.84L109.12,123.65z"/>
		</g>
	</g>
	<g>
		<g>
			<path class="st4" d="M111.06,130.05l-0.09-0.21c5.48-2.3,8.7-7.48,8.73-7.53l0.2,0.12C119.86,122.48,116.61,127.72,111.06,130.05
				z"/>
		</g>
	</g>
	<g>
		<g>
			<path class="st4" d="M111.96,140.07c-6.25-1.7-13.03-5.69-13.1-5.73l0.12-0.2c0.07,0.04,6.82,4.02,13.04,5.71L111.96,140.07z"/>
		</g>
	</g>
	<g>
		<g>
			<path class="st4" d="M113.11,150.48l-0.02-0.23c7.45-0.7,11.62-5.4,11.66-5.44l0.18,0.15
				C124.88,145.01,120.65,149.78,113.11,150.48z"/>
		</g>
	</g>
	<g>
		<g>
			<path class="st4" d="M115.34,161.79c-9.74-2.61-18.07-8.47-18.15-8.53l0.13-0.19c0.08,0.06,8.38,5.89,18.08,8.49L115.34,161.79z"
				/>
		</g>
	</g>
</g>
<g>
	<g>
		<g>
			<path class="st1" d="M163.47,172.44c0,0-3.68-9.86,1.76-16.55c4.76-5.85,7.06-7.56,8.71-13.13c1.34-4.53,4.14-8.53,9.02-11.37
				c3.67-2.14,5.88-6.23,6.65-10.4c1.08-5.89,9.47-13.79,13.53-2.24c2.52,7.16-0.99,14.68-5.26,20.07
				c-2.72,3.43-7.26,12.9-7.62,18.38c-0.54,8.26-3.89,14.56-9.94,19.99C174.27,182.63,163.47,172.44,163.47,172.44z"/>
		</g>
	</g>
	<g>
		<g>
			<path class="st4" d="M170.21,177.13l-0.18-0.03c0.02-0.13,1.97-12.81,6.92-19.55c2.43-3.32,4.16-7.24,5.83-11.04
				c1.03-2.35,2.01-4.58,3.09-6.48c1-1.77,2.95-4.2,4.84-6.55c1.79-2.23,3.49-4.34,4.35-5.85c3.19-5.51,2.29-14.72,2.28-14.82
				l0.18-0.02c0.01,0.09,0.91,9.36-2.31,14.92c-0.88,1.52-2.57,3.63-4.37,5.87c-1.88,2.34-3.83,4.77-4.82,6.53
				c-1.07,1.89-2.05,4.11-3.08,6.46c-1.67,3.81-3.4,7.74-5.85,11.08C172.18,164.37,170.23,177,170.21,177.13z"/>
		</g>
	</g>
	<g>
		<g>
			<path class="st4" d="M194.24,129.2c-3.46-3.06-4.87-7.3-4.89-7.34l0.17-0.06c0.01,0.04,1.41,4.23,4.84,7.26L194.24,129.2z"/>
		</g>
	</g>
	<g>
		<g>
			<path class="st4" d="M196.06,125.61l-0.02-0.18c4.61-0.44,7.84-2.73,7.87-2.75l0.1,0.15
				C203.99,122.85,200.73,125.16,196.06,125.61z"/>
		</g>
	</g>
	<g>
		<g>
			<path class="st4" d="M192.19,136.21c-1.08,0-2.18-0.06-3.23-0.21l0.03-0.18c5.11,0.72,11.33-0.68,11.39-0.69l0.04,0.17
				C200.37,135.32,196.4,136.21,192.19,136.21z"/>
		</g>
	</g>
	<g>
		<g>
			<path class="st4" d="M185.89,140.14c-3.42-3.13-4.42-7.78-4.43-7.83l0.18-0.04c0.01,0.05,1,4.64,4.37,7.73L185.89,140.14z"/>
		</g>
	</g>
	<g>
		<g>
			<path class="st4" d="M184.89,147.26c-0.76,0-1.53-0.03-2.27-0.08l0.01-0.18c4.95,0.4,10.88-0.73,10.94-0.74l0.03,0.18
				C193.56,146.44,189.24,147.26,184.89,147.26z"/>
		</g>
	</g>
	<g>
		<g>
			<path class="st4" d="M179.08,154.43c-5.29-2.48-7.11-7.04-7.13-7.08l0.17-0.07c0.02,0.05,1.82,4.54,7.04,6.98L179.08,154.43z"/>
		</g>
	</g>
	<g>
		<g>
			<path class="st4" d="M177.58,162.17c-1.01,0-2.04-0.04-3.07-0.12l0.01-0.18c7.71,0.64,15.25-1.43,15.32-1.45l0.05,0.17
				C189.84,160.61,184.14,162.17,177.58,162.17z"/>
		</g>
	</g>
</g>
<g>
	<g>
		<g>
			<path class="st5" d="M145.61,178.3c0,0-7.89-10.07-1.31-18.58s2.51-16.37,9.71-20.21c7.2-3.84,12.98,3.59,11.36,12.69
				c-1.62,9.1,6.34,15.04,4.19,19.85C167.41,176.87,145.61,178.3,145.61,178.3z"/>
		</g>
	</g>
	<g>
		<g>
			<path class="st4" d="M155.43,175.78c-0.58-13.33,2.45-29.58,2.48-29.74l0.26,0.05c-0.03,0.16-3.05,16.38-2.47,29.68
				L155.43,175.78z"/>
		</g>
	</g>
	<g>
		<g>
			<path class="st4" d="M156.44,156.05c-1.13-1.34-2.44-3.88-2.45-3.9l0.24-0.12c0.01,0.03,1.31,2.54,2.42,3.86L156.44,156.05z"/>
		</g>
	</g>
	<g>
		<g>
			<path class="st4" d="M156.23,159.67l-0.1-0.25c2.23-0.94,3.75-3.1,3.77-3.12l0.22,0.15C160.05,156.55,158.53,158.7,156.23,159.67
				z"/>
		</g>
	</g>
	<g>
		<g>
			<path class="st4" d="M155.52,166.15c-1.58-0.56-3.72-3.38-3.81-3.5l0.21-0.16c0.02,0.03,2.18,2.87,3.68,3.41L155.52,166.15z"/>
		</g>
	</g>
</g>
<g>
	<g>
		<path class="st2" d="M113.19,178.74c-4.33-0.45-10.14-0.19-13.79,1.6c-3.64,1.78,5.71,7.04,13.79,6.24
			c8.08-0.8,15.2-2.92,21.7-2.92s10.92,0.4,19.29,1.02c8.37,0.62,25.78,1.19,29.03-3c3.25-4.19-4.73-7.4-8.11-7.79
			c-1.88-0.22-8.73-0.59-15.23,0.39c-6.5,0.98-13.79,2.17-19.6,2.02c-5.81-0.15-14.92,0.93-19.92,1.95
			C115.36,179.27,113.19,178.74,113.19,178.74z"/>
	</g>
</g>
<g class="st0">
	<g>
		<g>
			<path class="st1" d="M94.6,61.19c0.76-2.58,5.21-13.92,2.29-22.53c-2.93-8.61-6.18-13.57-13.42-11.63
				c-7.25,1.94-8.93,12.49-0.54,27.26C87.93,63.1,93.4,65.29,94.6,61.19z"/>
		</g>
	</g>
</g>
<g>
	<g>
		<path class="st2" d="M92.07,59.52c0.76-2.58,5.21-13.92,2.29-22.53c-2.93-8.61-6.18-13.57-13.42-11.63
			C73.69,27.3,72,37.85,80.4,52.62C85.4,61.42,90.87,63.62,92.07,59.52z"/>
	</g>
</g>
<g>
	<g>
		<g>
			<g>
				<path class="st6" d="M204.58,50.16c0,0,2.18-1.51,2.67-1.63c0,0,0.33-0.1,0.3,0.25c-0.04,0.4-2.62,1.95-2.62,1.95L204.58,50.16z
					"/>
			</g>
		</g>
		<g>
			<g>
				<path class="st6" d="M205.02,50.76c0,0,2.27-1.38,2.77-1.46c0,0,0.33-0.08,0.28,0.26c-0.06,0.4-2.73,1.79-2.73,1.79
					L205.02,50.76z"/>
			</g>
		</g>
		<g>
			<g>
				<path class="st6" d="M205.2,51.67c0,0,2.27-1.38,2.77-1.46c0,0,0.33-0.08,0.28,0.26c-0.06,0.4-2.73,1.79-2.73,1.79L205.2,51.67z
					"/>
			</g>
		</g>
		<g>
			<g>
				<path class="st6" d="M205.73,52.35c0,0,1.88-1.14,2.29-1.21c0,0,0.27-0.06,0.23,0.22c-0.05,0.33-2.26,1.48-2.26,1.48
					L205.73,52.35z"/>
			</g>
		</g>
	</g>
	<g>
		<g>
			<path class="st6" d="M140.72,62.19c0,0,4.46-5.88,9.61-8.58c0,0,1.09-0.83,3.19-0.95c2.1-0.12,2.12,0.13,2.12,0.13
				s5.28,0.6,10.5,3.61c0,0,1.8,3.41,0.8,8.96s5.53,38.3,5.53,38.3s-15.46,1.38-25.13-1.78c0,0,1.93-7.98,0.17-20.88
				c0,0-1.22-6.88-2.96-9.96C144.56,71.04,140.03,66.12,140.72,62.19z"/>
		</g>
	</g>
	<g>
		<g>
			<path class="st6" d="M155.11,57.92c0.3-3.33,6.78-3.14,10.29-2.21c3.5,0.92,13.09,3.81,15.65,4.71c2.55,0.9,4.45,5.09,3.42,6.82
				c-1.03,1.73-16.77-0.64-21.32-2.44C158.59,62.99,154.62,63.37,155.11,57.92z"/>
		</g>
	</g>
	<g>
		<g>
			<path class="st1" d="M188.24,68.12c-0.34,0.06-0.68,0.11-1.01,0.17c-6.89,1.06-12.92,0.56-17.48-0.65h0
				c-0.93-0.25-1.79-0.52-2.59-0.82c0,0-0.01,0-0.01,0c-2.58-0.96-4.48-2.14-5.52-3.32c-3.04-3.42-0.95-5.25-0.95-5.25
				c1.61-1.89-1.05-3.65,4.09-3.51c5.14,0.14,18.95,5.51,18.95,5.51c2.15,1.75,3.34,4.21,3.95,5.91c0.17,0.47,0.29,0.88,0.38,1.21
				C188.18,67.83,188.24,68.12,188.24,68.12z"/>
		</g>
	</g>
	<g class="st7">
		<g>
			<path class="st8" d="M189.45,65.76l-1.4,1.59l-0.83,0.94c-8.3,1.28-15.34,0.29-20.08-1.47l-0.2-1.45c0,0,12.01,2.33,20.72,0.79
				C188.28,66.04,188.88,65.91,189.45,65.76z"/>
		</g>
	</g>
	<g>
		<g>
			<g>
				<path class="st6" d="M174.7,138.06c-0.41,10.49-10.21,30.24-12.4,34.54c-0.12,0.24-0.22,0.44-0.3,0.57c0,0,0,0-0.01,0.01
					c0,0.01-0.01,0.01-0.01,0.02c-0.03,0.06-0.06,0.1-0.07,0.14c-0.03,0.06-0.05,0.1-0.05,0.1c-2.21,0.8-3.14-1.07-3.14-1.07
					c0.01-0.22,0.02-0.51,0.05-0.87c0.33-4.31,2.19-18.21,3.49-24.13c1.4-6.42,4.68-9.76,4.68-9.76s1.74-1.34,3.94-1.14
					C173.1,136.67,174.7,138.06,174.7,138.06z"/>
			</g>
		</g>
		<g>
			<g>
				<path class="st6" d="M166.71,180.75c-2.91,0.17-8.35-4.05-8.45-5.18c-0.05-0.49,0.04-1.17,0.15-1.77
					c0.14-0.78,0.32-1.44,0.32-1.44c0.25-0.1,0.48-0.17,0.7-0.21c1.71-0.32,2.58,1.02,2.58,1.02s0,0-0.01,0.01
					c0,0.01-0.01,0.01-0.01,0.02c-0.01,0.03-0.02,0.07-0.03,0.15v0c-0.01,0.25,0.11,0.77,0.84,1.72c0.8,1.03,3.37,3.3,4.22,4.42
					c0.08,0.11,0.15,0.2,0.19,0.29C167.75,180.75,166.71,180.75,166.71,180.75z"/>
			</g>
		</g>
		<g>
			<g>
				<path class="st4" d="M166.71,180.75c-2.91,0.17-8.35-4.05-8.45-5.18c-0.05-0.49,0.04-1.17,0.15-1.77c0,0,1.52,3.21,6.68,5.52
					c0.44,0.2,1.8,0.86,1.94,0.17c0.08,0.11,0.15,0.2,0.19,0.29C167.75,180.75,166.71,180.75,166.71,180.75z"/>
			</g>
		</g>
		<g>
			<g>
				<path class="st4" d="M162.3,172.59c-0.12,0.24-0.22,0.44-0.3,0.57c0,0,0,0-0.01,0.01c0,0.01-0.01,0.01-0.01,0.02
					c-0.01,0.03-0.02,0.07-0.03,0.15v0c-0.02-0.01-0.03-0.01-0.05-0.01c-1.23-0.36-2.01-0.82-2.49-1.19
					c-0.48-0.37-0.65-0.65-0.65-0.65L162.3,172.59z"/>
			</g>
		</g>
		<g>
			<g>
				<path class="st6" d="M135.13,138.41l-13.99,37.43c0,0,1.25,1.52,3.12,0.71s18.98-23.79,19.29-35.87
					C143.55,140.68,140.39,136.14,135.13,138.41z"/>
			</g>
		</g>
		<g>
			<g>
				<path class="st6" d="M124,178.4c-0.33,1.32-1.1,3.04-2.86,4.13c-3.17,1.96-6.46-0.76-4.77-1.77c0.21-0.13,0.44-0.29,0.68-0.49
					c1.72-1.42,4.09-4.42,4.09-4.42c2.14-0.49,3.12,0.71,3.12,0.71S124.27,177.35,124,178.4z"/>
			</g>
		</g>
		<g>
			<g>
				<path class="st4" d="M124,178.4c-0.33,1.32-1.1,3.04-2.86,4.13c-3.17,1.96-6.46-0.76-4.77-1.77c0.21-0.13,0.44-0.29,0.68-0.49
					c-0.02,0.36,0.09,0.79,0.56,1.16C118.62,182.2,122.1,181.93,124,178.4z"/>
			</g>
		</g>
		<g>
			<g>
				<path class="st4" d="M125.16,175.77c0,0-2.21,0.09-3.83-0.42l0.54-1.45L125.16,175.77z"/>
			</g>
		</g>
		<g>
			<g>
				<path class="st6" d="M155.81,108.02c0,0,1.78,17.91,10.52,30.39c0,0,3.39,2.41,8.38-0.36c0,0,1.96-20.59-2.23-34.4
					c0,0-3.92-4.81-9.36-3.74C157.68,100.98,155.9,105.62,155.81,108.02z"/>
			</g>
		</g>
		<g>
			<g>
				<path class="st9" d="M177.29,137.77c0.06,5.68-7.07,25.63-9.66,32.65c-0.57,1.55-0.92,2.47-0.92,2.47
					c-2.78,0.69-5.4-0.11-7.28-1.05c-1.77-0.88-2.89-1.89-2.89-1.89l6.75-31.55c0.22-0.57,0.68-1.12,1.42-1.64
					c0.26-0.18,0.55-0.36,0.87-0.53c1.06-0.56,2.48-1.08,4.31-1.56C173.9,133.63,177.29,137.77,177.29,137.77z"/>
			</g>
		</g>
		<g>
			<g>
				<path class="st9" d="M177.29,137.77c-3.72,3.09-8.33,2.53-11.22,1.7c-0.27-0.08-0.53-0.16-0.77-0.24
					c-1.24-0.42-2.01-0.82-2.01-0.82c-1.27-2.41-2.56-5.19-3.79-8.15c-0.96-2.33-1.88-4.77-2.71-7.23
					c-2.98-8.84-4.79-17.89-3.33-22.74c2.38-7.9,17.4-6.21,17.4-6.21C172.12,100.02,177.29,137.77,177.29,137.77z"/>
			</g>
		</g>
		<g class="st0">
			<g>
				<g>
					<path class="st10" d="M174.7,140.26c-0.04,0-0.07-0.01-0.1-0.04c-1.63-1.79-1.41-3.33-1.4-3.4c0.01-0.07,0.08-0.12,0.15-0.11
						c0.07,0.01,0.12,0.08,0.11,0.15c0,0.01-0.2,1.49,1.34,3.18c0.05,0.05,0.05,0.14-0.01,0.19
						C174.76,140.25,174.73,140.26,174.7,140.26z"/>
				</g>
			</g>
		</g>
		<g class="st11">
			<g>
				<path class="st8" d="M167.63,170.43c-0.57,1.55-0.92,2.47-0.92,2.47c-2.78,0.69-5.4-0.11-7.28-1.05
					c-1.77-0.88-2.89-1.89-2.89-1.89l6.75-31.55c-1.27-2.41-2.56-5.19-3.79-8.15c-0.96-2.33-1.88-4.77-2.71-7.23l2.84-4.06
					l5.94,17.27l0.74,2.16c0,0-0.1,0.38-0.25,1.06c-0.73,3.17-2.77,12.85-2.33,20.78C164.08,166.3,166.14,169.15,167.63,170.43z"/>
			</g>
		</g>
		<g>
			<g>
				<path class="st4" d="M162.49,136.84c0,0,1.19-1.46,3.5-1.79c3.7-0.53,6.78-1.68,10.44-3.46l-0.2-1.3l-15.65-8.52l-2.27,6.44
					L162.49,136.84z"/>
			</g>
		</g>
		<g>
			<g>
				<path class="st6" d="M161.73,113.01c0,0-11.63,22.73-18.18,27.67c0,0-5.28,2.41-8.42-2.27c0,0,0.71-11.05,12.21-36.54
					c0,0,5.66-2.5,11.3,2.32C164.27,109,161.73,113.01,161.73,113.01z"/>
			</g>
		</g>
		<g>
			<g>
				<path class="st9" d="M155.99,113.01c-2.2,17.3-16.49,48.86-21.44,59.41c-1.06,2.25-1.69,3.55-1.69,3.55
					c-9.89,1.34-12.77-3.07-12.77-3.07s3.42-6.15,10.5-25.8c3.29-9.14,6.5-21.31,8.99-31.72c2.86-11.99,4.78-21.64,4.78-21.64
					C160.4,92.24,155.99,113.01,155.99,113.01z"/>
			</g>
		</g>
		<g class="st0">
			<g>
				<g>
					<path class="st10" d="M137.18,142.38c-0.04,0-0.08-0.02-0.1-0.05c-0.05-0.06-0.04-0.14,0.02-0.19c2.58-2.06,2.1-4.12,2.09-4.14
						c-0.02-0.07,0.03-0.14,0.1-0.16c0.07-0.02,0.14,0.03,0.16,0.1c0.02,0.09,0.52,2.25-2.18,4.41
						C137.24,142.37,137.21,142.38,137.18,142.38z"/>
				</g>
			</g>
		</g>
		<g class="st11">
			<g>
				<path class="st8" d="M134.55,172.43c-1.06,2.25-1.69,3.55-1.69,3.55c-9.89,1.34-12.77-3.07-12.77-3.07s3.42-6.15,10.5-25.8
					c3.29-9.14,6.5-21.31,8.99-31.72l3.98,4.99c0,0-18.76,41.96-16.71,47.86C128.14,171.95,131.93,172.51,134.55,172.43z"/>
			</g>
		</g>
		<g>
			<g>
				<path class="st4" d="M134.77,133.9c0,0,2.21,2.55,10.86,2.55c1.25,0,2.26,0.91,3.63,0.98l1.15-3.25L134.77,133.9z"/>
			</g>
		</g>
	</g>
	<g>
		<g>
			<path class="st4" d="M156.29,45.18c0,0,2.61-0.14,3.03-2.16c0.42-2.02-0.71-2.61-0.47-3.98c0.24-1.37,0.95-3.26-0.71-4.33
				c-1.66-1.07-1.44-1.96-2.38-3.74c-0.94-1.78-2.25-3.03-4.2-2.73c-1.96,0.3-2.67,0.59-3.8-0.83c-1.13-1.42-2.59-2.53-4.7-0.87
				c-2.47,1.93-3.25,0.8-4.79,0.88c-1.54,0.08-2.69,1.32-3.25,2.74c-0.55,1.42-1.53,1.83-3.05,2.29c-1.24,0.38-2.19,2.24-1.28,3.79
				c0.91,1.54-0.07,2.67-0.46,3.91c-0.4,1.24,0.16,2.79,1.35,3.26c1.19,0.47,0.95,2.31,1.46,3.61c0.51,1.3,2.41,1.56,3.6,1.37
				c1.19-0.19,1.7,0.6,2.61,1.98c0.91,1.38,1.98,2.29,3.28,1.74c1.31-0.55,3.05-1.46,4.19-0.63c1.15,0.83,4.43,0.32,4.95-0.4
				C152.17,50.39,156.29,45.18,156.29,45.18z"/>
		</g>
	</g>
	<g>
		<g>
			<polygon class="st6" points="155.74,53.91 150.33,53.61 150.87,48.72 155.32,48.97 155.4,49.94 155.49,50.94 			"/>
		</g>
	</g>
	<g>
		<g>
			<path class="st4" d="M155.46,50.59c-2.26,0.45-3.78-1.23-3.78-1.23c0.46,0.34,1.21,0.62,1.21,0.62c1.39,0.55,2.52-0.04,2.52-0.04
				L155.46,50.59z"/>
		</g>
	</g>
	<g>
		<g>
			<path class="st6" d="M155.84,43.09c1.7,2.48,1.97,5.25,0.05,6.57c-1.92,1.32-4.51,0.14-6.21-2.33c-1.7-2.48-1.87-5.32,0.04-6.63
				C151.64,39.38,154.14,40.62,155.84,43.09z"/>
		</g>
	</g>
	<g>
		<g>
			<path class="st4" d="M152.14,39.79c0,0-0.97,6.88-2.65,7.24c-1.68,0.36-2.97-3.49-1.96-5.24
				C148.54,40.04,152.14,39.79,152.14,39.79z"/>
		</g>
	</g>
	<g>
		<g>
			<path class="st6" d="M141.18,62.2c2.27-2.45,6.02,2.77,8.22,5.65s9.53,9.08,11,11.35c1.47,2.27,0.7,4.55-1.18,5.28
				s-13.76-6.68-16.25-10.89C140.48,69.37,137.45,66.21,141.18,62.2z"/>
		</g>
	</g>
	<g>
		<g>
			<path class="st1" d="M180.76,129.72c0,0-5.55,2.07-14.59,3.54l-1.43-3.2l-2.43-5.42l-1.13,5.09l-0.96,4.33
				c-7.57,0.81-16.78,1-26.81-0.46c0,0,6.37-17.11,8.96-37.3s1.2-21.87,1.2-21.87l-0.71-2.63l-2.62-9.63c0,0,4.6-5.81,10.12-8.57
				l6.74,7.74l-1.43-8.56c0,0,3.5,0.5,9.11,1.93c0,0,2.26,3.29,2.41,13.18c0,0,5.53,27.19,9.4,39.62c3.1,9.92,3.91,18.15,4.12,21.06
				C180.74,129.33,180.76,129.72,180.76,129.72z"/>
		</g>
	</g>
	<g>
		<g>
			<path class="st4" d="M154.49,48.23c-1.18,0-1.69-0.72-1.72-0.76c-0.03-0.05-0.02-0.11,0.03-0.14c0.05-0.03,0.11-0.02,0.14,0.03
				c0.03,0.04,0.77,1.07,2.61,0.49c0.05-0.02,0.11,0.01,0.13,0.07c0.02,0.05-0.01,0.11-0.07,0.13
				C155.18,48.17,154.81,48.23,154.49,48.23z"/>
		</g>
	</g>
	<g>
		<g>
			<path class="st4" d="M151.24,29.66c-0.01,0-0.01,0-0.02,0c-2.98-0.68-3.45-4.33-3.45-4.36c-0.01-0.05,0.03-0.1,0.09-0.11
				c0.06-0.01,0.1,0.03,0.11,0.09c0,0.04,0.45,3.55,3.3,4.19c0.05,0.01,0.09,0.07,0.08,0.12C151.33,29.63,151.29,29.66,151.24,29.66
				z"/>
		</g>
	</g>
	<g>
		<g>
			<path class="st4" d="M128.94,39.44c-0.04,0-0.08-0.03-0.1-0.07c-0.02-0.05,0.01-0.11,0.07-0.13c1.77-0.55,2.13-2.79,2.13-2.81
				c0.01-0.05,0.06-0.09,0.11-0.08c0.05,0.01,0.09,0.06,0.08,0.11c-0.01,0.1-0.38,2.38-2.27,2.97
				C128.96,39.44,128.95,39.44,128.94,39.44z"/>
		</g>
	</g>
	<g>
		<g>
			<path class="st4" d="M138.65,52.09C138.65,52.09,138.65,52.09,138.65,52.09c-0.06,0-0.1-0.05-0.1-0.11
				c0.15-2.73-1.41-4.09-1.67-4.11c-0.06-0.01-0.09-0.06-0.09-0.11c0.01-0.06,0.05-0.1,0.11-0.09c0.41,0.04,2,1.54,1.85,4.33
				C138.75,52.05,138.7,52.09,138.65,52.09z"/>
		</g>
	</g>
	<g>
		<g>
			<path class="st12" d="M159.54,68.53c-4.13-1.97-7.4-7.02-7.4-7.02l0.17-2.81l-2.53,0.62c-1.32-1.79-1.3-4.66-1.3-4.66l1.82-1.05
				l6.77,7.74l1.22,3.5L159.54,68.53z"/>
		</g>
	</g>
	<g>
		<g>
			<path class="st2" d="M160.31,65.74c-0.01,0-0.02,0-0.03,0c-0.07-0.02-0.12-0.09-0.1-0.16c0.77-3.37,0.43-6.73,0.37-7.25
				l-2.62-1.36c-0.05-0.02-0.07-0.07-0.07-0.12c0-0.05,0.03-0.1,0.08-0.12l1.89-0.89c-0.59-1.43-2.12-2.55-2.14-2.57
				c-0.06-0.04-0.07-0.13-0.03-0.19c0.04-0.06,0.13-0.07,0.19-0.03c0.07,0.05,1.7,1.25,2.28,2.8c0.02,0.07-0.01,0.14-0.07,0.17
				l-1.76,0.83l2.44,1.27c0.04,0.02,0.07,0.06,0.07,0.1c0,0.04,0.48,3.72-0.37,7.42C160.42,65.7,160.37,65.74,160.31,65.74z"/>
		</g>
	</g>
	<g>
		<g>
			<path class="st4" d="M149.29,47.15c-0.05,0-0.09-0.04-0.1-0.09c-0.01-0.06,0.04-0.1,0.09-0.11c0.08-0.01,1.93-0.21,2.53-2.34
				c0.61-2.18,0.17-4.34,0.17-4.36c-0.01-0.05,0.02-0.11,0.08-0.12c0.06-0.01,0.11,0.02,0.12,0.08c0,0.02,0.45,2.23-0.17,4.46
				C151.37,46.93,149.32,47.15,149.29,47.15C149.3,47.15,149.3,47.15,149.29,47.15z"/>
		</g>
	</g>
	<g>
		<g>
			<ellipse class="st6" cx="149.5" cy="47.83" rx="0.88" ry="0.79"/>
		</g>
	</g>
	<g>
		<g>
			<path class="st4" d="M149.43,48.35c-0.15,0-0.29-0.06-0.39-0.17c-0.1-0.11-0.15-0.25-0.13-0.41c0.01-0.15,0.09-0.29,0.2-0.4
				c0.04-0.04,0.1-0.03,0.14,0.01c0.04,0.04,0.03,0.1-0.01,0.14c-0.08,0.07-0.13,0.17-0.14,0.27c-0.01,0.1,0.02,0.19,0.08,0.25
				c0.06,0.07,0.15,0.1,0.24,0.1c0.1,0,0.2-0.04,0.28-0.11c0.04-0.04,0.1-0.03,0.14,0.01c0.04,0.04,0.03,0.1-0.01,0.14
				C149.73,48.29,149.58,48.35,149.43,48.35C149.43,48.35,149.43,48.35,149.43,48.35z"/>
		</g>
	</g>
	<g>
		<g>
			<path class="st4" d="M166.16,133.38c-0.06,0-0.11-0.04-0.12-0.11c-0.01-0.07,0.04-0.12,0.1-0.13c0.09-0.01,8.93-1.03,14.56-3.53
				c0.06-0.03,0.13,0,0.16,0.06c0.03,0.06,0,0.13-0.06,0.16c-5.66,2.52-14.54,3.54-14.63,3.55
				C166.17,133.38,166.16,133.38,166.16,133.38z"/>
		</g>
	</g>
	<g>
		<g>
			<path class="st4" d="M148.8,134.87c-4.34,0-9.64-0.27-15.42-1.16c-0.06-0.01-0.11-0.07-0.1-0.14c0.01-0.07,0.07-0.11,0.14-0.1
				c14.91,2.29,26.66,0.48,26.78,0.46c0.06-0.01,0.13,0.03,0.14,0.1c0.01,0.06-0.03,0.13-0.1,0.14
				C160.15,134.19,155.69,134.87,148.8,134.87z"/>
		</g>
	</g>
	<g>
		<g>
			<path class="st2" d="M162.3,125.51c-0.01,0-0.01,0-0.02,0c-0.07-0.01-0.12-0.08-0.12-0.15c0.03-0.27,3.4-26.8-1.63-52.54
				c-0.14-0.71-0.8-3.25-1.13-4.24c-0.02-0.07,0.01-0.15,0.08-0.17c0.07-0.02,0.15,0.01,0.17,0.08c0.33,1,1,3.56,1.14,4.28
				c5.04,25.79,1.67,52.36,1.63,52.63C162.43,125.46,162.37,125.51,162.3,125.51z"/>
		</g>
	</g>
	<g class="st7">
		<g>
			<path class="st8" d="M147.34,125.93c3.17,2.18,9.93,3.26,13.83,3.8l-0.96,4.33c-7.57,0.81-16.78,1-26.81-0.46
				c0,0,6.37-17.11,8.96-37.3s1.2-21.87,1.2-21.87l-0.71-2.63c5.02-9.4,8.69-5,10.43-2.04c2.1,3.56-2.44,28.72-4.19,39.15
				C147.32,119.34,147.34,125.93,147.34,125.93z"/>
		</g>
	</g>
	<g>
		<g>
			<path class="st4" d="M144.47,76.06l14.5,12.33c0,0,5.96-1.92,7.44-3.25c2.29-2.06,3.78-2.91,3.78-2.91l-0.73-3.86L144.47,76.06z"
				/>
		</g>
	</g>
	<g class="st7">
		<g>
			<path class="st8" d="M180.76,129.72c0,0-5.55,2.07-14.59,3.54l-1.43-3.2c6.8,0.34,13.21-0.86,15.96-1.47
				C180.74,129.33,180.76,129.72,180.76,129.72z"/>
		</g>
	</g>
	<g>
		<g>
			<path class="st4" d="M155.21,46.59c-0.05,0-0.09-0.03-0.1-0.08c-0.01-0.05,0.02-0.11,0.07-0.12c0.26-0.06,0.38-0.25,0.43-0.36
				c-0.59-0.36-0.94-1.04-0.95-1.07c-0.02-0.05,0-0.11,0.04-0.13c0.05-0.03,0.11,0,0.13,0.04c0,0.01,0.36,0.71,0.94,1.03
				c0.04,0.02,0.06,0.07,0.05,0.11c-0.01,0.02-0.13,0.46-0.61,0.57C155.23,46.59,155.22,46.59,155.21,46.59z"/>
		</g>
	</g>
	<g>
		<g>
			<path class="st4" d="M154.93,43.74c-0.03,0-0.05-0.01-0.07-0.03c-0.04-0.04-0.04-0.1,0-0.14c0.02-0.02,0.56-0.54,1.45-0.78
				c0.05-0.01,0.11,0.02,0.12,0.07c0.01,0.05-0.02,0.11-0.07,0.12c-0.83,0.22-1.35,0.73-1.36,0.73
				C154.98,43.73,154.96,43.74,154.93,43.74z"/>
		</g>
	</g>
	<g>
		<g>
			<g>
				<path class="st5" d="M205.56,44.56l6.76,22.88c1.01,3.42,0.54,6.91-1.04,9.81c-1.58,2.9-4.26,5.2-7.67,6.21
					c-2.8,0.83-5.66,0.66-8.2-0.3c-3.01-1.13-5.56-3.37-7.03-6.38c-0.32-0.64-0.58-1.32-0.79-2.03l-6.76-22.88L205.56,44.56z"/>
			</g>
		</g>
		<g>
			<g>
				<path class="st9" d="M198.78,21.6l6.79,22.96l-24.73,7.31l-6.79-22.96c-0.77-2.59-0.68-5.23,0.1-7.62
					c0.25-0.76,0.56-1.49,0.94-2.19c1.58-2.9,4.26-5.2,7.67-6.21c0.12-0.04,0.24-0.07,0.37-0.1
					C189.84,11.01,196.79,14.89,198.78,21.6z"/>
			</g>
		</g>
		<g>
			<g>
				
					<ellipse transform="matrix(0.959 -0.2835 0.2835 0.959 -5.7424 56.7471)" class="st9" cx="193.2" cy="48.21" rx="12.89" ry="1.94"/>
			</g>
		</g>
		<g class="st11">
			<g>
				<path class="st8" d="M198.78,21.6l13.55,45.84c1.01,3.42,0.54,6.91-1.04,9.81c-1.58,2.9-4.26,5.2-7.67,6.21
					c-2.8,0.83-5.66,0.66-8.2-0.3c8-1.61,11.13-7.24,11.48-10.76c0.62-6.32-0.64-10.59-5.31-25.12c-0.15-0.47-0.3-0.94-0.46-1.41
					c-0.15-0.47-0.31-0.94-0.46-1.42c-1.59-4.8-3.41-10-5.47-15.47c-3.27-8.69-7.73-13.54-12.07-16.19
					C189.84,11.01,196.79,14.89,198.78,21.6z"/>
			</g>
		</g>
		<g>
			<g>
				<path class="st10" d="M203.85,83.52c-0.06,0-0.11-0.04-0.13-0.1c-0.02-0.07,0.02-0.14,0.09-0.16c3.14-0.87,6.36-3.77,7.83-7.03
					c0.3-0.65,0.53-1.38,0.71-2.16c0.51-2.24,0.42-4.64-0.27-6.96l-13.44-45.47c-0.02-0.07,0.02-0.15,0.09-0.17
					c0.07-0.02,0.15,0.02,0.17,0.09l13.44,45.47c0.7,2.36,0.79,4.81,0.27,7.09c-0.18,0.8-0.43,1.54-0.73,2.21
					c-1.5,3.34-4.8,6.29-8,7.18C203.87,83.52,203.86,83.52,203.85,83.52z"/>
			</g>
		</g>
		<g class="st13">
			<g>
				<path class="st12" d="M195.64,69.32c-0.41,1.73-1.71,3.89-3.53,5.55c-0.84,0.77-2.21,0.41-2.54-0.68c0-0.01,0-0.01-0.01-0.02
					l-13.55-45.84c-0.6-2.02-0.68-4.06-0.32-6c0.17-0.93,1.19-1.45,2.04-1.03c1.41,0.71,2.87,1.99,4.15,4.19
					c2,3.44,5.38,12.63,8.29,21.74c0.18,0.57,0.37,1.15,0.55,1.72c0.18,0.58,0.36,1.16,0.54,1.73
					C193.98,59.56,196.03,67.64,195.64,69.32z"/>
			</g>
		</g>
		<g>
			<g>
				<path class="st10" d="M187.77,75.42c-0.06,0-0.11-0.04-0.13-0.1l-3.6-12.14c-0.02-0.07,0.02-0.15,0.09-0.17
					c0.07-0.02,0.15,0.02,0.17,0.09l3.6,12.14c0.02,0.07-0.02,0.15-0.09,0.17C187.79,75.42,187.78,75.42,187.77,75.42z"/>
			</g>
		</g>
		<g>
			<g>
				<path class="st10" d="M182.47,52.46c-0.94,0-1.39-0.16-1.6-0.32c-0.12-0.1-0.16-0.19-0.16-0.24l-6.36-21.51
					c-0.02-0.07,0.02-0.15,0.09-0.17c0.07-0.02,0.15,0.02,0.17,0.09l6.36,21.52c0,0.01,0,0.02,0.01,0.03l0,0
					c0,0,0.25,0.68,3.94,0.11c0.07-0.01,0.14,0.04,0.15,0.11c0.01,0.07-0.04,0.14-0.11,0.15C183.87,52.4,183.07,52.46,182.47,52.46z
					"/>
			</g>
		</g>
		<g>
			<g>
				<path class="st10" d="M196.7,49.27c-0.06,0-0.11-0.04-0.13-0.1c-0.02-0.07,0.02-0.15,0.09-0.17c0.04-0.01,4.11-1.25,7.23-3.06
					c0.06-0.04,0.15-0.02,0.18,0.05c0.04,0.06,0.02,0.15-0.05,0.18c-3.15,1.82-7.24,3.07-7.28,3.08
					C196.72,49.27,196.71,49.27,196.7,49.27z"/>
			</g>
		</g>
	</g>
	<g>
		<g>
			<path class="st2" d="M167.14,66.94c-0.07,0-0.13-0.06-0.13-0.13l-0.2-4.15c0-0.07,0.05-0.14,0.13-0.14
				c0.07,0,0.14,0.05,0.14,0.13l0.2,4.15C167.28,66.88,167.22,66.94,167.14,66.94C167.15,66.94,167.15,66.94,167.14,66.94z"/>
		</g>
	</g>
	<g>
		<g>
			<path class="st4" d="M169.75,67.63L169.75,67.63c-0.93-0.25-1.8-0.52-2.6-0.82l-0.01-2.54L169.75,67.63z"/>
		</g>
	</g>
	<g>
		<g>
			<path class="st12" d="M159.28,99.27c0,0,1.38,8.67-4.62,9.1c-5.51,0.4-5.36-8.84-5.36-8.84c1.48,0.13,3.13,0.2,4.93,0.16
				C156.08,99.64,157.77,99.48,159.28,99.27z"/>
		</g>
	</g>
	<g>
		<g>
			<path class="st2" d="M159.54,68.67c-0.02,0-0.04-0.01-0.07-0.02c-4.15-2.34-7.4-7.18-7.43-7.23c-0.02-0.02-0.02-0.05-0.02-0.08
				l0.16-2.64c0-0.07,0.07-0.13,0.14-0.13c0.07,0,0.13,0.07,0.13,0.14l-0.15,2.59c0.31,0.45,3.41,4.91,7.32,7.11
				c0.06,0.04,0.09,0.12,0.05,0.18C159.63,68.64,159.59,68.67,159.54,68.67z"/>
		</g>
	</g>
	<g>
		<g>
			<path class="st2" d="M152.51,98.65c-2.12,0-3.77-0.11-3.8-0.11c-0.07,0-0.13-0.07-0.12-0.14c0-0.07,0.07-0.13,0.14-0.12
				c0.06,0,6.14,0.39,9.95-0.33c0.07-0.01,0.14,0.03,0.16,0.11c0.01,0.07-0.03,0.14-0.11,0.16
				C156.87,98.56,154.49,98.65,152.51,98.65z"/>
		</g>
	</g>
	<g>
		<g>
			<path class="st2" d="M153.73,107.45c-1.06,0-1.97-0.36-2.72-1.07c-2.49-2.35-2.43-7.69-2.43-7.92c0-0.07,0.06-0.13,0.13-0.13
				c0,0,0,0,0,0c0.07,0,0.13,0.06,0.13,0.14c0,0.05-0.06,5.45,2.34,7.72c0.78,0.74,1.75,1.07,2.87,0.99
				c1.38-0.1,2.47-0.63,3.24-1.56c1.72-2.08,1.32-5.54,1.32-5.57c-0.01-0.07,0.04-0.14,0.12-0.15c0.07-0.01,0.14,0.04,0.15,0.12
				c0.02,0.15,0.41,3.6-1.38,5.77c-0.82,1-1.97,1.56-3.43,1.66C153.97,107.45,153.85,107.45,153.73,107.45z"/>
		</g>
	</g>
	<g>
		<g>
			<g>
				<path class="st6" d="M183.98,63.92c0,0-3.81,4.98-6.49,9.12c-2.67,4.14-13.43,10.08-18.45,10.34c0,0-3.66-1.45,1.62-5.8
					s15.17-9.69,17.44-11.5c2.27-1.8,3.68-3.72,3.68-3.72S183.69,61.41,183.98,63.92z"/>
			</g>
		</g>
		<g>
			<g>
				<path class="st4" d="M180.46,63.92c0,0,1.34,0.62,1.86,2.21l-0.54,0.54L180.46,63.92z"/>
			</g>
		</g>
		<g>
			<g>
				<path class="st1" d="M160.67,81.12c-0.04,2.57-0.74,4.56-0.74,4.56c-12.7-4.61-19.85-12.77-20.79-17.24
					c-0.89-4.27,0.89-6.08,1.06-6.23v0c0.01-0.01,0.01-0.01,0.01-0.01c2.34-0.84,4.55,0.17,8.93,2.84
					c4.39,2.67,10.78,11.56,10.78,11.56C160.52,78.12,160.69,79.71,160.67,81.12z"/>
			</g>
		</g>
		<g>
			<g>
				<path class="st1" d="M182.79,69.1c-9.89,10.23-22.86,16.58-22.86,16.58c-0.35-1.48-0.52-2.82-0.57-3.98
					c-0.15-3.23,0.57-5.11,0.57-5.11c3.26-3.54,19.58-13.57,19.58-13.57c1.44,1.2,2.27,2.78,2.73,4.02
					C182.68,68.21,182.79,69.1,182.79,69.1z"/>
			</g>
		</g>
		<g class="st7">
			<g>
				<path class="st8" d="M182.79,69.1c-9.89,10.23-22.86,16.58-22.86,16.58c-12.7-4.61-19.85-12.77-20.79-17.24
					c-0.89-4.27,0.89-6.08,1.06-6.23c0.84,2.14,1.91,5.44,4.63,8.71c3.06,3.69,13.68,10.29,14.53,10.8
					c0.03,0.02,0.05,0.03,0.05,0.03s0.46-0.22,1.26-0.61c3.91-1.94,15.94-8.17,21.57-14.08C182.68,68.21,182.79,69.1,182.79,69.1z"
					/>
			</g>
		</g>
		<g>
			<g>
				<path class="st2" d="M160.38,76.19c-0.03,0-0.06-0.01-0.09-0.03l-11.66-9.94c-0.06-0.05-0.06-0.13-0.02-0.19
					c0.05-0.06,0.13-0.06,0.19-0.01l11.58,9.87c1.21-0.92,14.69-11.1,18.87-12.87c0.07-0.03,0.15,0,0.18,0.07
					c0.03,0.07,0,0.15-0.07,0.18c-4.32,1.83-18.75,12.79-18.89,12.9C160.44,76.18,160.41,76.19,160.38,76.19z"/>
			</g>
		</g>
		<g>
			<g>
				<path class="st2" d="M152.23,69.17c-0.05,0-0.1-0.03-0.12-0.08l-1.35-2.92c-0.03-0.07,0-0.15,0.07-0.18
					c0.07-0.03,0.15,0,0.18,0.07l1.35,2.92c0.03,0.07,0,0.15-0.07,0.18C152.27,69.16,152.25,69.17,152.23,69.17z"/>
			</g>
		</g>
		<g>
			<g>
				<path class="st6" d="M187.88,58.97c-0.07-0.28-0.3-0.11-0.3-0.11c-0.23,0.15-0.85,0.95-1.26,1.5c-0.04-0.01-0.08-0.02-0.13-0.03
					c-0.01-0.01-0.02-0.02-0.03-0.03c0.54-0.68,1.58-2.04,1.5-2.33c-0.09-0.33-0.36-0.13-0.36-0.13c-0.33,0.21-1.33,1.55-1.77,2.14
					c-0.12-0.03-0.14-0.13-0.14-0.13s1.91-2.33,1.81-2.71c-0.09-0.33-0.36-0.13-0.36-0.13c-0.42,0.27-1.97,2.43-1.97,2.43
					c-0.07,0.01-0.12-0.01-0.16-0.04c0.51-0.74,1.38-2.04,1.29-2.32c-0.11-0.33-0.37-0.11-0.37-0.11c-0.39,0.29-1.74,2.41-1.82,2.53
					l-0.01,0c0,0-0.15,0.26-0.39,0.4c0,0,0,0,0,0c-0.14-0.56,0.25-1.22,0.1-1.8c-0.1-0.38-0.36-0.22-0.36-0.22l-1.47,4.75
					c0.42,1.29,2.22,1.37,2.22,1.37c0.54-0.64,1.92-1.86,2.69-3.02c0.02-0.04,0.04-0.07,0.06-0.11
					C187.13,60.28,187.94,59.21,187.88,58.97z"/>
			</g>
		</g>
	</g>
	<g>
		<g>
			<g>
				<path class="st6" d="M206.99,48.72c0,0-0.41,0.3-0.46,0.47c-0.05,0.17,0.05,0.27,0.16,0.27c0.11,0,0.4-0.21,0.54-0.32
					L206.99,48.72z"/>
			</g>
		</g>
		<g>
			<g>
				<path class="st6" d="M207.33,49.61c0,0-0.41,0.3-0.46,0.47c-0.05,0.17,0.05,0.27,0.16,0.27c0.11,0,0.4-0.21,0.54-0.32
					L207.33,49.61z"/>
			</g>
		</g>
		<g>
			<g>
				<path class="st6" d="M207.57,50.47c0,0-0.41,0.3-0.46,0.47c-0.05,0.17,0.05,0.27,0.16,0.27c0.11,0,0.4-0.21,0.54-0.32
					L207.57,50.47z"/>
			</g>
		</g>
		<g>
			<g>
				<path class="st6" d="M207.85,51.23c0,0-0.34,0.25-0.38,0.4c-0.04,0.14,0.05,0.23,0.14,0.23c0.09,0,0.34-0.17,0.45-0.27
					L207.85,51.23z"/>
			</g>
		</g>
	</g>
</g>
</svg>
