<?xml version="1.0" encoding="utf-8"?>
<!-- Generator: Adobe Illustrator 25.0.0, SVG Export Plug-In . SVG Version: 6.00 Build 0)  -->
<svg version="1.1" id="Camada_1" xmlns="http://www.w3.org/2000/svg" xmlns:xlink="http://www.w3.org/1999/xlink" x="0px" y="0px"
	 viewBox="0 0 920 550" style="enable-background:new 0 0 920 550;" xml:space="preserve">
<style type="text/css">
	.st0{fill:#FFFFFF;}
	.st1{fill:#DBE5F6;}
	.st2{fill:#BACEEC;}
	.st3{fill:#8EB0DD;}
	.st4{fill:#7B93CB;}
	.st5{fill:#F49E8A;}
	.st6{fill:#181732;}
	.st7{fill:#23234F;}
	.st8{fill:#406BB2;}
	.st9{fill:#5878BA;}
	.st10{fill:#2A2D6A;}
	.st11{fill:#EC6764;}
	.st12{fill:#0E0F20;}
	.st13{fill:#EB7F6E;}
	.st14{fill:#5677BA;}
	.st15{fill:#A9C4E7;}
	.st16{fill:#384798;}
	.st17{fill:#4553A0;}
	.st18{fill:#E94746;}
	.st19{fill:#DE2C32;}
	.st20{fill:#E57C6B;}
</style>
<rect class="st0" width="920" height="550"/>
<g>
	<g>
		<path class="st1" d="M777.81,519.07c-23.3,3-707.12-8.9-707.12-8.9C9.21,478.96,0.78,382.52,31.49,337.4
			c36.12-53.06,66.53-46.78,63.8-148.61C90.57,12.27,230.6,103.88,293.77,61.37C493.26-72.87,536.19,93.99,690.75,63.5
			c229.68-45.31,82.41,120.22,189.43,236.25C954.51,380.33,845.13,510.4,777.81,519.07z"/>
	</g>
	<g>
		<ellipse class="st2" cx="444.41" cy="511.91" rx="409.51" ry="31.18"/>
	</g>
	<g>
		<g>
			<path class="st2" d="M137.55,245.55c8.45,1.75,16.07,7.85,16.94,21.13c0.82,12.57-6.05,25.01-2.65,37.46
				c3.49,12.78,13.44,17.15,9.8,32.96c-1.29,5.63-3.38,11.12-3.27,17.03c0.22,12.39,8.87,19.95,13.1,29.66
				c5.46,12.54,3.44,29.81-3.83,40.12c-13.81,19.59-37.24,12.55-54.66,10.7c-10.12-1.08-19.26-8.32-21.79-23.01
				c-2.94-17.05,4.76-25.27,9.57-38.76c4.68-13.13-1.08-28.58-1.22-43.25c-0.16-16.39,9.32-25.39,11.06-40.45
				c1.26-10.89-3.13-22.11,1.24-32.4c2.31-5.45,6.59-8.81,11.01-10.27C127.21,245.01,132.53,244.51,137.55,245.55z"/>
		</g>
		<g>
			<rect x="131.55" y="324.03" class="st3" width="2.02" height="154.69"/>
		</g>
		<g>
			
				<rect x="123.06" y="354.4" transform="matrix(0.9095 -0.4156 0.4156 0.9095 -144.5648 85.477)" class="st3" width="2.02" height="40.84"/>
		</g>
		<g>
			
				<rect x="126.28" y="407.2" transform="matrix(0.5712 -0.8208 0.8208 0.5712 -274.6384 290.7001)" class="st3" width="29.27" height="2.02"/>
		</g>
		<g>
			<path class="st3" d="M136.06,505.06h-7.94c-9.01,0-16.31-7.3-16.31-16.31v-15.72h40.56v15.72
				C152.38,497.76,145.07,505.06,136.06,505.06z"/>
		</g>
	</g>
	<g>
		<g>
			<circle class="st3" cx="742.91" cy="119.8" r="34.43"/>
		</g>
		<g>
			<circle class="st0" cx="743.16" cy="119.55" r="27.39"/>
		</g>
		<g>
			
				<ellipse transform="matrix(0.7071 -0.7071 0.7071 0.7071 133.3365 560.4553)" class="st4" cx="743.2" cy="119.28" rx="3.07" ry="3.07"/>
		</g>
		<g>
			<g>
				<path class="st4" d="M743.2,119.89h0.61c0.34,0,0.61-0.27,0.61-0.61c0-0.34-0.27-0.61-0.61-0.61h-0.01l-0.03-18.9l0.76,1.1
					c0.19,0.28,0.57,0.34,0.85,0.16c0.28-0.19,0.35-0.57,0.15-0.85l-1.87-2.72c-0.15-0.22-0.43-0.32-0.68-0.24
					c-0.25,0.08-0.43,0.31-0.43,0.58l0.03,21.46C742.59,119.61,742.86,119.89,743.2,119.89z"/>
			</g>
			<g>
				<path class="st4" d="M741.1,100.96c0.18,0,0.35-0.08,0.47-0.22l2.07-2.54c0.21-0.26,0.17-0.64-0.09-0.86
					c-0.26-0.21-0.64-0.17-0.86,0.09l-2.07,2.54c-0.21,0.26-0.17,0.64,0.09,0.86C740.82,100.92,740.96,100.96,741.1,100.96z"/>
			</g>
		</g>
		<g>
			<g>
				<path class="st4" d="M754.22,121.86c0.16,0,0.32-0.06,0.44-0.19l1.81-1.87c0.17-0.18,0.22-0.44,0.12-0.66
					c-0.09-0.22-0.32-0.37-0.56-0.37h0l-14.28,0.03c-0.34,0-0.61,0.27-0.61,0.61v0.61c0,0.34,0.27,0.61,0.61,0.61
					c0.34,0,0.61-0.27,0.61-0.61v-0.01l12.23-0.03l-0.81,0.84c-0.23,0.24-0.23,0.63,0.01,0.86
					C753.92,121.8,754.07,121.86,754.22,121.86z"/>
			</g>
			<g>
				<path class="st4" d="M756.03,119.98c0.14,0,0.27-0.05,0.39-0.14c0.26-0.21,0.3-0.6,0.09-0.86l-1.69-2.07
					c-0.22-0.26-0.6-0.3-0.86-0.09c-0.26,0.21-0.3,0.6-0.09,0.86l1.69,2.07C755.68,119.91,755.86,119.98,756.03,119.98z"/>
			</g>
		</g>
	</g>
	<g>
		<g>
			<g>
				<g>
					<path class="st5" d="M555.82,483.08c0,0,3.7,32.7,0.69,36.71c-1.72,2.29-40.43,11.55-42.2,6.48
						c-1.77-5.07,27.21-16.01,28.2-25.89c0.99-9.89-1.27-18.8-1.27-18.8L555.82,483.08z"/>
				</g>
				<g>
					<path class="st6" d="M557.65,506.87c-18.79,12.71-25.93,10.11-28.56,7.16c-7.72,5.06-15.7,9.5-14.75,12.24
						c1.77,5.07,40.48-4.19,42.2-6.48C557.64,518.32,557.84,513.01,557.65,506.87z"/>
				</g>
			</g>
			<g>
				<g>
					<path class="st5" d="M525.42,467.22c0,0,3.7,32.7,0.69,36.71c-1.72,2.29-40.43,11.55-42.2,6.48
						c-1.77-5.07,27.21-16.01,28.2-25.89c0.99-9.89-1.27-18.8-1.27-18.8L525.42,467.22z"/>
				</g>
				<g>
					<path class="st6" d="M527.25,491.02c-18.79,12.71-25.93,10.11-28.56,7.16c-7.72,5.06-15.7,9.5-14.75,12.24
						c1.77,5.07,40.48-4.19,42.2-6.48C527.24,502.47,527.44,497.16,527.25,491.02z"/>
				</g>
			</g>
			<g>
				<path class="st7" d="M652.19,428.47l10.08,72.4c0.37,2.66,1.99,4.57,3.86,4.57l0,0c3.06,0,5.48-3.72,5.29-8.12l-2.97-68.85
					H652.19L652.19,428.47z"/>
			</g>
			<g>
				<path class="st7" d="M708.37,428.47l10.08,72.4c0.37,2.66,1.99,4.57,3.86,4.57h0c3.06,0,5.48-3.72,5.29-8.12l-2.97-68.85H708.37
					L708.37,428.47z"/>
			</g>
			<g>
				<path class="st8" d="M602.39,225.98v218.18h128.79c19.46,0,48-18.37,51.29-43.34l23.82-138.07c2.53-19.22-8.83-36.77-23.8-36.77
					H602.39z"/>
			</g>
			<g>
				<path class="st9" d="M487.85,284.17l53.11,139.22l149.79,20.77l-32.72-218.18h-51.55c-10.13,0-19.21,8.13-22.82,20.46
					l-7.26,24.72c-2.3,7.83-8.07,13.01-14.51,13.01H487.85z"/>
			</g>
			<g>
				<path class="st9" d="M530.66,359.77h129.32c0.46,0,0.83,1.24,0.83,2.75v35.62c0,1.52-0.37,2.75-0.83,2.75H530.66
					c-0.46,0-0.83-1.23-0.83-2.75v-35.62C529.83,361.01,530.2,359.77,530.66,359.77L530.66,359.77z"/>
			</g>
			<g>
				<path class="st4" d="M480.81,284.17c12.16-4.01,25.18,2.85,29.09,15.34l24.68,78.83c3.41,10.91,13.29,18.3,24.43,18.3h16.43
					h46.5c11.45,0,21.51-7.8,24.66-19.11l21.52-77.26c3.51-12.63,16.31-19.92,28.6-16.31c12.27,3.6,19.38,16.77,15.86,29.38
					l-25.12,90.24c-6.69,24.02-28.06,40.58-52.37,40.58h-59.64H546.3c-23.66,0-44.61-15.69-51.85-38.83l-28.57-91.26
					C461.96,301.58,468.65,288.2,480.81,284.17z"/>
			</g>
			<g>
				<path class="st9" d="M724.08,284.07c8.39,0,15.91-5.17,18.9-13.01l9.45-24.72c4.3-11.26,14.55-19.01,26.35-20.26
					c17.68,1.99,30.5,18.55,27.41,36.57l-23.71,138.17c-4.29,24.97-25.95,43.24-51.29,43.24H628.78l55.57-159.98H724.08
					L724.08,284.07z"/>
			</g>
			<g>
				<path class="st4" d="M583.73,444.16h51.34c24.31,0,45.68-16.56,52.37-40.58l25.12-90.24c3.52-12.61-3.59-25.78-15.86-29.38
					c-12.28-3.61-25.09,3.68-28.6,16.31l-15.89,57.04l-5.63,20.22c-3.15,11.31-13.22,19.11-24.66,19.11h-14.55
					c-11.4,0-21.63,6.61-22.45,17.97L583.73,444.16z"/>
			</g>
			<g>
				<path class="st5" d="M576.01,211.47c0,0-48.09,30.99-57.14,30.15c-2.87-0.27-34.78-14.78-34.78-14.78l-5.03,9.63
					c0,0,2.29,0.32,4.37,2.44c7.25,7.37,24.4,24.77,42.37,23.3c12.21-1,52.65-17.96,52.65-17.96L576.01,211.47z"/>
			</g>
			<g>
				<path class="st10" d="M589.93,308c0,0-87.38,22.27-99.08,48.12s17.22,123.38,17.22,123.38h27.18l3.15-97.69l81.35-23.19
					l16.07-55.35L589.93,308z"/>
			</g>
			<g>
				<path class="st10" d="M652.46,304.07c0,0,8.47,69.95-23.69,78.19c-21.92,5.62-73.67,0.32-76.36,9.13
					c-1.72,5.63,8.96,103.32,8.96,103.32h-30.22c0,0-33.16-109.8-20.23-126.25c13.83-17.59,47.7-26.68,72.1-37.04
					c7.37-3.13,21.41-6.68,27.26-9.93C638.93,305.56,652.46,304.07,652.46,304.07z"/>
			</g>
			<g>
				<path class="st11" d="M575.34,210.57c-6.53,3.08-18.71,12.53-18.71,12.53l17.47,27.71c0,0-2.63,14.18,11.85,20.21l3.29,37.33
					c0,0,31.94,23.3,66.5,5.59c0,0-3.54-67.5-2.53-67.34l17.37,4.65c0,0,7.71-37.42-19.27-45.7
					C635.7,200.75,608.08,195.14,575.34,210.57z"/>
			</g>
			<g>
				<path class="st12" d="M574.13,251.25c0.22-0.02,0.4-0.19,0.41-0.42c0-0.08,0.48-8.12,6.24-14.33c0.17-0.18,0.16-0.46-0.02-0.63
					c-0.18-0.17-0.46-0.16-0.63,0.02c-5.99,6.46-6.46,14.55-6.48,14.89c-0.01,0.24,0.18,0.45,0.42,0.46
					C574.09,251.25,574.11,251.25,574.13,251.25z"/>
			</g>
			<g>
				<path class="st12" d="M526.46,479.58c-0.93-3.86-22.8-94.82-15.84-111.26c2.94-6.95,10.16-13.54,20.88-19.05
					c8.99-4.62,20.14-8.28,30.6-10.03l0.12,0.69c-10.39,1.74-21.47,5.38-30.39,9.96c-10.57,5.44-17.68,11.9-20.56,18.7
					c-2.83,6.69-0.99,27.97,5.33,61.52c4.78,25.39,10.49,49.07,10.55,49.31L526.46,479.58z"/>
			</g>
			<g>
				<g>
					<path class="st12" d="M607.14,115.48c-7.09-0.53-15.01,2.93-17.3,9.66c-0.77,2.26-0.9,4.8-2.26,6.75
						c-2.76,3.96-9.29,3.83-11.84,7.93c-2.61,4.19,0.64,9.83-0.84,14.53c-0.98,3.1-3.82,5.21-5.44,8.02
						c-2.49,4.29-1.83,9.91,0.72,14.17c2.55,4.26,6.71,7.32,11.11,9.62c2.06,1.08,4.42,2.25,5.1,4.48c0.24,0.77,0.24,1.59,0.38,2.38
						c0.8,4.47,5.82,7.04,10.36,7.05c4.54,0.01,8.86-1.79,13.29-2.79c15.55-3.49,32.6,2.94,47.42-2.93c1.64-0.65,3.41-1.66,3.8-3.38
						c0.57-2.49-1.99-4.53-2.69-6.98c-1.27-4.44,3.55-7.99,5.77-12.03c2.24-4.08,1.64-9.53-1.43-13.02
						c-2.07-2.36-5.14-3.89-6.57-6.69c-1.39-2.73-0.91-5.98-1.2-9.03c-0.56-5.91-4.25-11.26-9.15-14.63
						c-5.63-3.87-12.09-4.43-18.48-6.17C620.78,120.47,614.66,116.04,607.14,115.48z"/>
				</g>
				<g>
					<path class="st5" d="M615.62,122.69c12.94,0.01,24.01,9.89,25.52,22.74c0.5,4.23-0.06,8.3-1.43,12
						c-2.97,9.18-5.44,16.59-8.75,22.08c-3.35,5.56-4.63,12.13-3.3,18.49l0.53,2.54c0.5,2.41-0.75,4.84-3.01,5.84
						c-6.96,3.07-11.83,2.35-14.68,1.22c-1.82-0.72-3.06-2.43-3.18-4.39l-0.8-12.38l0,0c-16.31-0.89-16.07-30.9-16.64-39.73l0.03,0
						c-0.03-0.33-0.07-0.66-0.09-0.99C588.88,135.34,600.57,122.68,615.62,122.69z"/>
				</g>
				<g>
					<path class="st12" d="M595.85,162.65c-0.2-1.23,0.63-2.38,1.86-2.58c1.23-0.2,2.38,0.63,2.58,1.86
						c0.2,1.23-0.63,2.38-1.86,2.58C597.2,164.71,596.05,163.88,595.85,162.65z"/>
				</g>
				<g>
					<path class="st12" d="M617.19,163.67c-0.2-1.23,0.63-2.38,1.86-2.58c1.23-0.2,2.38,0.63,2.58,1.86
						c0.2,1.23-0.63,2.38-1.86,2.58C618.54,165.73,617.39,164.89,617.19,163.67z"/>
				</g>
				<g>
					<path class="st12" d="M622.28,157.81c0.26-0.06,0.49-0.23,0.62-0.49c0.23-0.46,0.04-1.02-0.42-1.25
						c-0.14-0.07-3.46-1.67-7.48-0.53c-0.5,0.14-0.79,0.66-0.65,1.15c0.14,0.5,0.7,0.78,1.15,0.65c3.36-0.95,6.12,0.39,6.14,0.4
						C621.85,157.84,622.08,157.86,622.28,157.81z"/>
				</g>
				<g>
					<path class="st12" d="M601.26,157.1c0.25-0.09,0.47-0.28,0.57-0.55c0.18-0.48-0.06-1.02-0.54-1.21
						c-0.14-0.05-3.57-1.32-7.5,0.24c-0.48,0.19-0.72,0.73-0.53,1.21c0.19,0.48,0.75,0.71,1.21,0.53c3.25-1.29,6.12-0.24,6.15-0.23
						C600.84,157.17,601.06,157.17,601.26,157.1z"/>
				</g>
				<g>
					<path class="st13" d="M606.72,172.23c0.6,0.18,1.34,0.26,2.26,0.15c0.18-0.02,0.31-0.18,0.29-0.37
						c-0.02-0.18-0.19-0.31-0.37-0.29c-3.18,0.36-3.86-1.67-3.98-2.21c2.37-3.41,1.81-7.83,1.79-8.02
						c-0.02-0.18-0.19-0.31-0.37-0.28c-0.18,0.02-0.31,0.19-0.28,0.37c0.01,0.04,0.55,4.45-1.75,7.66
						c-0.05,0.07-0.07,0.15-0.06,0.24C604.25,169.52,604.56,171.57,606.72,172.23z"/>
				</g>
				<g>
					<path class="st12" d="M626.19,154.86c-2.52-4.31-4.26-9.02-6.25-13.61c-0.28-0.65-0.58-1.31-1.06-1.83
						c-0.73-0.79-1.79-1.15-2.81-1.49c-2.31-0.77-5.09-1.45-6.96,0.09c-2.08,1.71-1.66,5.02-2.93,7.39
						c-2.08,3.86-8.04,4.34-9.93,8.3c-1.5,3.15,0.19,7.47-2.14,10.06c-0.95,1.06-2.4,1.57-3.37,2.62c-3.16,3.41,0.5,9.85-2.66,13.25
						c-2.39-4.73-4.52-9.59-6.38-14.55c-0.47-1.26-0.93-2.56-0.88-3.91c0.1-2.57,1.98-4.65,3.36-6.82
						c2.53-3.97,3.52-8.68,5.01-13.14c1.76-5.28,4.29-10.3,7.46-14.87c0.53-0.77,1.1-1.54,1.89-2.05c0.95-0.61,2.11-0.77,3.24-0.91
						c5.55-0.68,11.16-1.25,16.74-0.79c5.58,0.46,11.17,2,15.75,5.21c1.79,1.25,3.41,2.75,4.7,4.51c1.44,1.96,2.43,4.21,3.41,6.44
						c1.2,2.72,2.41,5.5,2.66,8.46c0.2,2.44-0.26,4.88-0.75,7.28c-0.45,2.18-0.95,4.39-2.07,6.31
						C636.92,169.9,629.45,160.46,626.19,154.86z"/>
				</g>
				<g>
					<path class="st5" d="M632.33,165.14c0.36-0.86,1.05-1.54,1.89-1.94c1.73-0.83,4.81-1.81,7.1,0.2c3.36,2.96-2.45,11.74-9,7.98
						C632.31,171.38,630.4,169.7,632.33,165.14z"/>
				</g>
				<g>
					<path class="st0" d="M610.03,180.16c0.11,1.61-0.87,2.98-2.17,3.06c-1.31,0.09-2.45-1.15-2.56-2.75s0.87-2.98,2.17-3.06
						C608.78,177.32,609.92,178.55,610.03,180.16z"/>
				</g>
			</g>
			<g>
				<g>
					<path class="st5" d="M491.39,230.22c0,0-12.39-10.28-15.64-9.23c-3.26,1.06-12.4,5.44-14.01,5.79
						c-1.62,0.35-10.32,0.24-11.65,1.14c-1.34,0.9,9.36,2.92,9.36,2.92s-9.37-0.44-9.94,1.2c-0.57,1.64,9.44,2.98,9.44,2.98
						s-9.49-0.74-9.52,0.85c-0.04,1.6,9.17,2.45,9.17,2.45s-7.37-0.48-7.37,0.79c-0.01,1.27,12.08,3.96,16.29,1.43
						c9.94-5.97,19.85-3.58,19.85-3.58L491.39,230.22L491.39,230.22z"/>
				</g>
				<g>
					<path class="st5" d="M483.44,224.29c0,0-8.87-5.71-12.05-5.74c-3.18-0.03-9.65-0.87-9.61,0.49c0.03,1.37,8.99,3.13,9.38,4.11
						c0.39,0.98,4.44,0.95,4.44,0.95l7.64,0.77L483.44,224.29z"/>
				</g>
			</g>
			<g>
				<g>
					<path class="st5" d="M608.3,246.62c0,0-0.64-16.09-3.59-17.8c-2.96-1.71-12.34-5.58-13.67-6.54c-1.34-0.97-7.08-7.51-8.64-7.9
						c-1.57-0.39,4.09,8.91,4.09,8.91s-5.94-7.26-7.54-6.59c-1.6,0.67,4.1,9.01,4.1,9.01s-5.79-7.55-7-6.51
						c-1.22,1.04,4.31,8.45,4.31,8.45s-4.58-5.8-5.52-4.95c-0.95,0.85,5.13,11.63,9.83,13.07c11.09,3.4,15.94,12.37,15.94,12.37
						L608.3,246.62L608.3,246.62z"/>
				</g>
				<g>
					<path class="st5" d="M607.39,236.74c0,0-1.68-10.41-3.79-12.8c-2.11-2.38-5.8-7.76-6.79-6.82c-1,0.94,3.69,8.77,3.22,9.72
						c-0.47,0.94,2.26,3.93,2.26,3.93l4.54,6.2L607.39,236.74z"/>
				</g>
			</g>
			<g>
				<path class="st5" d="M597.23,243.71c0,0,19.88,63.9,33.74,64.73c11.08,0.66,11.69-7.73,8.57-21.08
					c-3.11-13.35-31.96-49.16-31.96-49.16L597.23,243.71z"/>
			</g>
			<g>
				<path class="st5" d="M669.47,250.92c0,0-16.88,58.16-35.42,57.9c-12.78-0.18-10.14-15.44-7.88-20.64
					c2.26-5.21,21.18-43.19,21.18-43.19L669.47,250.92z"/>
			</g>
		</g>
	</g>
	<g>
		<g>
			<g>
				<path class="st4" d="M403.84,414.18H210.05v5.58h99.42c10.02,0,18.14,8.12,18.14,18.14l0,0c0,10.02-8.12,18.14-18.14,18.14
					h-99.42v5.23h193.79c13.01,0,23.55-10.54,23.55-23.55l0,0C427.38,424.72,416.84,414.18,403.84,414.18L403.84,414.18z"/>
			</g>
			<g>
				<path class="st14" d="M336.45,437.73L336.45,437.73c0-13-10.54-23.55-23.55-23.55H210.05v5.58h99.42
					c10.02,0,18.14,8.12,18.14,18.14l0,0c0,10.02-8.12,18.14-18.14,18.14h-99.42v5.23H312.9
					C325.91,461.27,336.45,450.73,336.45,437.73L336.45,437.73z"/>
			</g>
			<g>
				<path class="st0" d="M309.47,419.78h-99.42v0.12c9.03,1.04,16.05,8.71,16.05,18.02l0,0c0,9.31-7.01,16.98-16.05,18.02v0.12
					h99.42c10.02,0,18.14-8.12,18.14-18.14l0,0C327.61,427.9,319.49,419.78,309.47,419.78L309.47,419.78z"/>
			</g>
			<g>
				<path class="st15" d="M327.64,437.84c0-10.08-8.12-18.26-18.14-18.26h-99.44v0.13c4.67,0.54,8.8,2.87,11.7,6.28
					c19.89-1.58,79.21-3.43,85.46,30.1h2.28C319.51,456.1,327.64,447.92,327.64,437.84L327.64,437.84z"/>
			</g>
		</g>
		<g>
			<g>
				<path class="st16" d="M203.04,359.1h179.65v6.53h-92.17c-9.29,0-16.82,9.5-16.82,21.22l0,0c0,11.72,7.53,21.23,16.82,21.23
					h92.17v6.12H203.04c-12.06,0-21.83-12.34-21.83-27.55l0,0C181.21,371.44,190.98,359.1,203.04,359.1L203.04,359.1z"/>
			</g>
			<g>
				<path class="st17" d="M265.51,386.65L265.51,386.65c0-15.22,9.77-27.55,21.83-27.55h95.35v6.53h-92.17
					c-9.29,0-16.82,9.5-16.82,21.22l0,0c0,11.72,7.53,21.23,16.82,21.23h92.17v6.12h-95.35
					C275.28,414.2,265.51,401.87,265.51,386.65L265.51,386.65z"/>
			</g>
			<g>
				<path class="st15" d="M290.52,365.66h92.17v0.14c-8.37,1.22-14.87,10.19-14.87,21.08l0,0c0,10.89,6.5,19.87,14.87,21.08v0.14
					h-92.17c-9.29,0-16.82-9.5-16.82-21.23l0,0C273.7,375.16,281.23,365.66,290.52,365.66L290.52,365.66z"/>
			</g>
		</g>
		<g>
			<g>
				<path class="st18" d="M200.57,461.27h251.9V468H323.23c-13.02,0-23.58,9.79-23.58,21.87l0,0c0,12.08,10.56,21.87,23.58,21.87
					h129.24v6.31h-251.9c-16.91,0-30.61-12.71-30.61-28.39l0,0C169.96,473.98,183.66,461.27,200.57,461.27L200.57,461.27z"/>
			</g>
			<g>
				<path class="st19" d="M288.16,489.66L288.16,489.66c0-15.68,13.7-28.39,30.61-28.39h133.7V468H323.23
					c-13.02,0-23.58,9.79-23.58,21.87l0,0c0,12.08,10.56,21.87,23.58,21.87h129.24v6.31h-133.7
					C301.87,518.05,288.16,505.34,288.16,489.66L288.16,489.66z"/>
			</g>
			<g>
				<path class="st0" d="M323.23,468.03h129.24v0.15c-11.74,1.25-20.86,10.49-20.86,21.72l0,0c0,11.23,9.12,20.47,20.86,21.72v0.15
					H323.23c-13.02,0-23.58-9.79-23.58-21.87l0,0C299.65,477.82,310.21,468.03,323.23,468.03L323.23,468.03z"/>
			</g>
			<g>
				<path class="st15" d="M299.65,489.78c0-12.14,10.56-21.99,23.58-21.99h129.24v0.15c-6.07,0.65-11.43,3.45-15.2,7.57
					c-25.85-1.91-102.95-4.13-111.07,36.26h-2.96C310.21,511.77,299.65,501.92,299.65,489.78L299.65,489.78z"/>
			</g>
		</g>
	</g>
	<g>
		<g>
			<g>
				<g>
					<path class="st7" d="M324.26,396.38c0,0,17.96,15.53,15.21,17.1c-2.75,1.57-33.38,0-33.38,0l1.46-17.1H324.26z"/>
				</g>
				<g>
					<g>
						<path class="st5" d="M316.72,267.99c0,0,5.54,31.84,17.62,51.38l-6.43,5.58c0,0-23.8-31.14-26.97-50.17
							C300.94,274.78,311.6,270.11,316.72,267.99z"/>
					</g>
					<g>
						<path class="st5" d="M332.51,318.41c0,0,7.06,2.93,9.38,4.56c2.32,1.63,5.77,1.48,5.33,3.06c-0.43,1.58-5.77,0.47-5.77,0.47
							s2.69,5.09,3.76,6.53c1.07,1.44,2.31,4.49,1.32,5.36c-0.99,0.86-5.62-6.41-5.62-6.41s3.3,6.5,2.55,7.49
							c-0.75,0.99-6.16-6.67-6.16-6.67s3.86,6.76,3.7,7.56c-0.16,0.79-1.18,0.62-3.13-1.44c-1.95-2.06-3.4-4.67-3.4-4.67
							s2.36,4.96,2.43,5.65c0.07,0.69-0.33,1.7-2.89-1.66c-2.56-3.36-6.91-11.53-7.43-16.49L332.51,318.41z"/>
					</g>
				</g>
				<g>
					<path class="st4" d="M241.75,332.99c0,0,37.32,11.6,76.9-2.01l-7.11-43.18c0,0,7.92-2.93,11.96-6.3
						c4.59-3.84,5.86-6.66,5.86-6.66s-14.87-24.38-21.65-29.23c-11.49-8.22-27.47-11.32-47.83-2.98
						c-20.03,8.21-22.26,15.2-23.57,39.24c-0.06,1.09-0.03,2.2,0.09,3.28L241.75,332.99z"/>
				</g>
				<g>
					<path class="st7" d="M297.61,195.15c-0.65-4.58-1.33-9.26-3.43-13.38c-8.03-15.77-34.8-15.15-45.3-2.87
						c-4.53,5.3-7.82,12.61-8.67,19.54c-1.02,8.3,2.76,17.47,10.25,21.17c5.28,2.61,11.6,2.26,17.26,0.63
						c5.66-1.63,10.9-4.45,16.34-6.72c2.6-1.08,5.28-2.06,7.54-3.73c1.68-1.24,4.98-2.92,5.99-4.75
						C299.05,202.42,298,197.91,297.61,195.15z"/>
				</g>
				<g>
					<path class="st20" d="M297.11,195.62c0,0,1.38-2.82,2.87-1.94c3.81,2.23,0.81,6.15-1.39,7.22L297.11,195.62z"/>
				</g>
				<g>
					<path class="st5" d="M297.34,197.47c-1.3-15.12-13.72-26.4-27.73-25.2c-14.02,1.2-24.33,14.44-23.03,29.56
						c1.3,15.12,13.72,26.4,27.73,25.2C288.32,225.83,298.64,212.59,297.34,197.47z"/>
				</g>
				<g>
					<path class="st5" d="M267.03,228.98c2.87,2.32,2.63,12.02,2.63,12.02c0.56,4.72,17.43,2.16,16.94-2.14
						c-1.49-3.36-3.84-9.94-0.79-11.31c2.54-1.14,4.34-2.3,6.79-4.11c14.6-10.78,3.74-31.44,3.74-31.44s-53.62,7.53-45.16,23.29
						C253.54,219.67,264.02,226.54,267.03,228.98z"/>
				</g>
				<g>
					<path class="st6" d="M268.81,206.37c-0.19-1.45-1.52-2.46-2.96-2.27c-1.45,0.19-2.46,1.52-2.27,2.96
						c0.19,1.45,1.52,2.46,2.96,2.27C267.99,209.14,269,207.81,268.81,206.37z"/>
				</g>
				<g>
					<path class="st6" d="M293.13,199.49c-0.19-1.45-1.52-2.46-2.96-2.27c-1.45,0.19-2.46,1.52-2.27,2.96
						c0.19,1.45,1.52,2.46,2.96,2.27C292.31,202.26,293.32,200.93,293.13,199.49z"/>
				</g>
				<g>
					<path class="st20" d="M281.67,210.46c-0.33,0.03-0.62-0.22-0.65-0.55c-0.03-0.33,0.22-0.62,0.55-0.65
						c0.69-0.06,1.15-0.49,1.36-0.87c0.16-0.3,0.2-0.61,0.09-0.82c-0.18-0.3-1.6-1.01-3.03-1.5c-0.31-0.11-0.48-0.45-0.37-0.76
						c0.11-0.31,0.45-0.48,0.76-0.37c0.95,0.33,3.23,1.2,3.69,2.07c0.3,0.56,0.27,1.29-0.09,1.95
						C283.53,209.81,282.64,210.38,281.67,210.46z"/>
				</g>
				<g>
					<path class="st7" d="M260.85,203.57c-0.26,0.02-0.52-0.07-0.72-0.26c-0.35-0.35-0.35-0.92,0.01-1.27
						c2.38-2.35,6.07-2.91,6.23-2.93c0.5-0.07,0.95,0.27,1.02,0.76c0.07,0.49-0.27,0.95-0.76,1.02l0,0c-0.03,0-3.27,0.5-5.22,2.43
						C261.25,203.47,261.05,203.56,260.85,203.57z"/>
				</g>
				<g>
					<path class="st7" d="M292.95,195.36c-0.14,0.01-0.27-0.01-0.41-0.06c-2.56-1.02-5.73-0.21-5.76-0.21
						c-0.48,0.13-0.97-0.16-1.1-0.64c-0.13-0.48,0.16-0.97,0.64-1.1c0.15-0.04,3.77-0.97,6.88,0.27c0.46,0.18,0.69,0.71,0.5,1.17
						C293.58,195.12,293.28,195.33,292.95,195.36z"/>
				</g>
				<g>
					<path class="st7" d="M252.06,213c0.72,0.13,4.75-9.05,7.11-18.48c2.36-9.43,11.07-14.79,11.07-14.79s18.63,1.38,21.6,4.74
						c2.97,3.36,5.8,10.49,5.8,10.49s-1.94-11.75-9.06-17.59c-7.12-5.85-17.74-9.68-32.84-1.27
						C240.65,184.51,242.82,211.37,252.06,213z"/>
				</g>
				<g>
					<path class="st7" d="M279.22,177.31c0,0,10.47,4.74,5.73,9.09c-4.74,4.35-16.6-1.98-16.6-1.98s10.47,6.52,0,7.11
						c-10.47,0.59-25.69,9.09-25.69,9.09S265.39,173.55,279.22,177.31z"/>
				</g>
				<g>
					<path class="st7" d="M254.71,176.12c0.2-0.59,8.7-12.45,18.58-10.47s-5.34,8.5-5.34,8.5s8.1-7.91,20.75-3.16
						c12.65,4.74,8.3,22.73,8.3,22.73s-2.17-8.1-12.65-10.87C273.88,180.07,254.71,176.12,254.71,176.12z"/>
				</g>
				<g>
					<path class="st7" d="M256.69,221.38c0,0-22.55,4.4-22.53-18.78c0.01-18.58,7.31-25.89,8.7-20.95c0,0,17-18.78,13.83-7.71
						c-3.16,11.07-11.46,27.67-11.46,27.67L256.69,221.38z"/>
				</g>
				<g>
					<path class="st5" d="M254.06,211.15c-0.57-0.84-1.44-1.42-2.41-1.67c-2.01-0.52-5.5-0.92-7.51,1.71
						c-2.95,3.85,5.08,11.97,11.26,6.59C255.39,217.79,257.07,215.6,254.06,211.15z"/>
				</g>
				<g>
					<path class="st11" d="M266.2,331.24c0,0,62.76-12.25,76.35,0c13.6,12.25-14.21,65.14-14.21,65.14h-22.1
						c0,0,9.61-41.84,8.18-40.63s-82.65,24.18-72.67-22.77L266.2,331.24z"/>
				</g>
				<g>
					<path class="st7" d="M355.47,396.38c0,0,17.96,15.53,15.21,17.1c-2.75,1.57-33.38,0-33.38,0l1.46-17.1H355.47z"/>
				</g>
				<g>
					<path class="st11" d="M283.11,331.24c0,0,62.76-12.25,76.35,0c13.6,12.25-1.19,65.14-1.19,65.14h-20.49
						c0,0,1.98-42.08,0.54-40.87c-1.44,1.21-89.63,24.42-79.65-22.53L283.11,331.24z"/>
				</g>
				<g>
					<g>
						<path class="st5" d="M268,287.65c0,0,10.23,21.57,29.32,36.3l-4.25,7.86c0,0-30.82-19.37-40.97-36.89
							C252.11,294.91,263.76,291.63,268,287.65z"/>
					</g>
					<g>
						<path class="st5" d="M295.18,323.68c0,0,8.02,0.27,10.9,1.01c2.88,0.74,6.21-0.68,6.37,1.03c0.16,1.71-5.49,2.6-5.49,2.6
							s4.53,4,6.1,5.02c1.58,1.02,3.94,3.56,3.28,4.77c-0.66,1.21-7.89-4.21-7.89-4.21s5.65,5.17,5.28,6.41
							c-0.37,1.25-8.52-4.27-8.52-4.27s6.29,5.22,6.43,6.05c0.14,0.84-0.93,1.05-3.61-0.26c-2.68-1.31-5.07-3.33-5.07-3.33
							s4.15,4,4.48,4.65c0.33,0.65,0.31,1.79-3.45-0.56c-3.76-2.35-11.05-8.77-13.4-13.45L295.18,323.68z"/>
					</g>
				</g>
				<g>
					<path class="st4" d="M245.62,250.69c-0.89,0.76-11.66,13.52-0.91,50.86l28.22-15.44L245.62,250.69z"/>
				</g>
				<g>
					<path class="st0" d="M286.8,216.33c0.21,1.6-0.67,3.04-1.97,3.21c-1.3,0.17-2.52-0.99-2.74-2.59c-0.21-1.6,0.67-3.04,1.97-3.21
						C285.37,213.57,286.59,214.73,286.8,216.33z"/>
				</g>
				<g>
					<polygon class="st7" points="248.65,299.8 241.14,287.84 241.74,287.46 248.9,298.85 269.63,287.51 261.2,271.47 
						261.82,271.14 270.58,287.8 					"/>
				</g>
			</g>
			<g>
				<g>
					<path class="st7" d="M338.86,373.63l-0.43-0.25c8.32-14.27,10.11-25.61,5.32-33.68c-8.35-14.06-34.16-13.48-34.42-13.47
						l-0.01-0.5c0.27,0,26.36-0.6,34.86,13.72C349.07,347.68,347.28,359.18,338.86,373.63z"/>
				</g>
			</g>
		</g>
	</g>
	<g>
		<g>
			<path class="st2" d="M370.97,61.97c-43.76,0-79.24,28.9-79.24,64.54c0,27.46,21.07,50.91,50.75,60.23l0.03,0.03
				c1.02,0.93,1.57,2.29,1.42,3.66c-0.95,8.38-6.67,19.15-9.19,23.57c-0.45,0.79,0.28,1.75,1.16,1.52
				c12.3-3.16,20.54-13.52,24.86-20.53c1.6-2.59,4.49-4.05,7.53-3.96c0.89,0.03,1.78,0.04,2.68,0.04c43.76,0,79.24-28.9,79.24-64.54
				C450.2,90.87,414.73,61.97,370.97,61.97z"/>
		</g>
		<g>
			<path class="st7" d="M383.91,166.32c-3.79,0-7.52-1.01-10.5-2.89c-5.67-3.58-7.04-9.31-3.57-14.96c2.02-3.29,3.2-5.88,3.74-8.07
				c-3.98-2.14-8.53-5.84-13.63-11.1c-5.78-5.97-11.55-10.17-17.24-12.57c-2.53,3.44-3.09,8.3-1.49,13.89
				c1.97,6.89-0.21,10.56-2.39,12.43c-2.88,2.47-8.62,3.67-14.03,1.19c-3.58-1.64-5.63-4.4-5.63-7.57c0-4.08,2.33-6.87,4.58-9.56
				c2.83-3.39,5.55-6.64,3.55-12.44c-11.76,1.94-18.85,11.65-18.92,11.75c-0.22,0.3-0.64,0.37-0.94,0.16
				c-0.3-0.22-0.37-0.64-0.16-0.94c0.32-0.44,7.39-10.15,19.52-12.25c-0.87-1.99-2.26-4.27-4.33-6.92
				c-8.35-10.69-1.62-17.61,0.64-19.47c3.47-2.86,8.55-4.48,13.58-4.33c5.56,0.17,10.47,2.4,13.85,6.27
				c7.33,8.42,14.01,5.98,20.47,3.61c3.93-1.44,7.65-2.8,11.23-1.55c1.17,0.41,1.82,1.03,1.95,1.84c0.32,2.01-2.82,4.41-7.16,7.74
				c-4.35,3.34-9.73,7.46-11.96,11.76c4.26,1.58,8.96,4.14,14.02,7.96c3.85,2.91,7.64,5.18,11.33,6.8
				c0.66-5.61,0.34-11.61-0.24-15.38c-0.5-3.23,1.47-6.19,5.69-8.55c4.13-2.31,10.14-3.83,16.07-4.05
				c6.32-0.24,11.6,1.03,14.49,3.48c1.86,1.58,3.72,4.46,2,9.26c-2.05,5.71-5.13,10.37-8.99,13.71c0.46,0.28,0.93,0.56,1.4,0.84
				c5.04,3.01,9.81,5.86,10.85,10.44c0.64,2.84-0.23,6-2.68,9.68c-6.31,9.49-11.75,8.09-16.54,6.86c-4.43-1.14-8.25-2.13-12.77,4.85
				C396.08,163.79,389.92,166.32,383.91,166.32z M374.82,141.02c-0.63,2.34-1.88,5-3.83,8.16c-3.08,5.02-1.91,9.92,3.14,13.11
				c7.16,4.51,18.95,3.64,24.43-4.82c5.04-7.8,9.72-6.59,14.24-5.42c4.78,1.23,9.3,2.4,15.08-6.29c2.23-3.35,3.04-6.18,2.49-8.64
				c-0.91-4.02-5.43-6.72-10.22-9.58c-0.6-0.36-1.21-0.72-1.81-1.09c-2.35,1.81-4.95,3.16-7.77,4c-5.8,1.73-12.22,1.23-18.99-1.42
				c-0.88,5.6-2.87,10.7-6.91,12.7C381.97,143.07,378.68,142.83,374.82,141.02z M328.68,114.47c2.1,6.34-0.93,9.96-3.89,13.5
				c-2.19,2.62-4.27,5.1-4.27,8.69c0,2.62,1.76,4.93,4.84,6.35c4.89,2.25,10.03,1.21,12.59-0.99c2.69-2.31,3.37-6.12,1.97-11.03
				c-1.68-5.87-1.12-11.04,1.49-14.78c-4-1.5-7.96-2.11-11.87-1.82C329.25,114.42,328.97,114.44,328.68,114.47z M375.12,139.7
				c3.56,1.73,6.55,2.01,8.95,0.82c3.53-1.75,5.35-6.6,6.17-12.04c-3.89-1.68-7.9-4.05-11.96-7.11c-4.64-3.5-9.31-6.13-13.77-7.77
				c-0.73,2.01-0.7,4.05,0.52,6.05c1.8,2.97,3.59,5.31,5.17,7.37c2.55,3.33,4.56,5.96,5.02,9.25
				C375.36,137.34,375.33,138.48,375.12,139.7z M343.62,115.65c5.74,2.5,11.52,6.74,17.31,12.71c4.87,5.03,9.19,8.59,12.92,10.68
				c0.57-4.3-1.58-7.1-4.72-11.21c-1.6-2.09-3.41-4.45-5.25-7.49c-1.48-2.44-1.53-4.86-0.67-7.21c-1.44-0.47-2.86-0.84-4.24-1.09
				c-5.43-1-10.1-0.3-13.49,2.03C344.79,114.55,344.17,115.07,343.62,115.65z M391.77,127.65c6.6,2.64,12.83,3.17,18.41,1.5
				c2.49-0.74,4.81-1.91,6.92-3.47c-4.47-2.81-8.51-6.01-9.62-10.94c-0.08-0.36,0.15-0.73,0.51-0.81c0.37-0.08,0.73,0.15,0.81,0.51
				c1.03,4.58,5.04,7.62,9.43,10.35c3.84-3.21,6.9-7.77,8.93-13.42c1.17-3.27,0.63-5.88-1.6-7.77c-2.64-2.23-7.58-3.38-13.57-3.16
				c-5.73,0.22-11.51,1.67-15.46,3.88c-2.57,1.44-5.53,3.85-5.02,7.17C392.05,114.98,392.53,121.48,391.77,127.65z M331.44,112.97
				c3.59,0,7.21,0.71,10.85,2.12c0.7-0.79,1.51-1.51,2.42-2.13c4.04-2.77,10.62-3.89,19.05-1.1c2.35-4.63,7.92-8.91,12.45-12.38
				c3.21-2.46,6.84-5.24,6.65-6.46c-0.06-0.37-0.69-0.65-1.06-0.78c-3.12-1.09-6.62,0.19-10.32,1.54
				c-6.56,2.41-14.01,5.13-21.95-3.99c-6.63-7.61-18.96-7.22-25.55-1.79c-5.4,4.45-5.56,11.03-0.43,17.6
				c2.25,2.88,3.74,5.37,4.66,7.55c0.41-0.05,0.82-0.09,1.24-0.12C330.1,113,330.77,112.97,331.44,112.97z"/>
		</g>
	</g>
	<g>
		<g>
			<path class="st2" d="M514.24,109.98c26.1,0,47.26,17.23,47.26,38.49c0,16.38-12.57,30.36-30.27,35.92l-0.02,0.02
				c-0.61,0.56-0.94,1.36-0.85,2.18c0.56,5,3.98,11.42,5.48,14.06c0.27,0.47-0.17,1.04-0.69,0.91c-7.34-1.88-12.25-8.06-14.83-12.25
				c-0.95-1.54-2.68-2.42-4.49-2.36c-0.53,0.01-1.06,0.02-1.6,0.02c-26.1,0-47.26-17.23-47.26-38.49
				C466.98,127.22,488.14,109.98,514.24,109.98z"/>
		</g>
		<g>
			<rect x="488.87" y="136.53" class="st4" width="50.75" height="3.21"/>
		</g>
		<g>
			<rect x="488.87" y="155.15" class="st4" width="50.75" height="3.21"/>
		</g>
		<g>
			<rect x="481.12" y="145.84" class="st4" width="66.24" height="3.21"/>
		</g>
	</g>
</g>
<rect x="1565.36" y="228.12" class="st0" width="290" height="190"/>
<g>
	<g>
		<path class="st1" d="M1812.45,407.3c-7.43,0.96-225.54-2.84-225.54-2.84c-19.61-9.96-22.3-40.71-12.5-55.11
			c11.52-16.93,21.22-14.92,20.35-47.4c-1.51-56.3,43.16-27.08,63.31-40.64c63.63-42.82,77.32,10.4,126.62,0.68
			c73.26-14.45,26.28,38.35,60.42,75.36C1868.81,363.04,1833.93,404.53,1812.45,407.3z"/>
	</g>
	<g>
		<ellipse class="st2" cx="1706.11" cy="405.01" rx="130.62" ry="9.94"/>
	</g>
	<g>
		<g>
			<path class="st2" d="M1608.23,320.05c2.7,0.56,5.13,2.5,5.4,6.74c0.26,4.01-1.93,7.98-0.85,11.95c1.11,4.08,4.29,5.47,3.13,10.51
				c-0.41,1.8-1.08,3.55-1.04,5.43c0.07,3.95,2.83,6.36,4.18,9.46c1.74,4,1.1,9.51-1.22,12.8c-4.41,6.25-11.88,4-17.44,3.41
				c-3.23-0.34-6.14-2.65-6.95-7.34c-0.94-5.44,1.52-8.06,3.05-12.36c1.49-4.19-0.34-9.12-0.39-13.79c-0.05-5.23,2.97-8.1,3.53-12.9
				c0.4-3.47-1-7.05,0.39-10.33c0.74-1.74,2.1-2.81,3.51-3.28C1604.93,319.88,1606.63,319.72,1608.23,320.05z"/>
		</g>
		<g>
			<rect x="1606.32" y="345.08" class="st3" width="0.64" height="49.34"/>
		</g>
		<g>
			
				<rect x="1603.61" y="354.77" transform="matrix(0.9095 -0.4156 0.4156 0.9095 -5.0554 699.3429)" class="st3" width="0.64" height="13.03"/>
		</g>
		<g>
			
				<rect x="1604.64" y="371.61" transform="matrix(0.5712 -0.8208 0.8208 0.5712 384.7779 1480.4161)" class="st3" width="9.33" height="0.64"/>
		</g>
		<g>
			<path class="st3" d="M1607.76,402.83h-2.53c-2.87,0-5.2-2.33-5.2-5.2v-5.02h12.94v5.02
				C1612.96,400.5,1610.63,402.83,1607.76,402.83z"/>
		</g>
	</g>
	<g>
		<g>
			<circle class="st3" cx="1801.32" cy="279.94" r="10.98"/>
		</g>
		<g>
			<circle class="st0" cx="1801.4" cy="279.86" r="8.74"/>
		</g>
		<g>
			<circle class="st4" cx="1801.41" cy="279.78" r="0.98"/>
		</g>
		<g>
			<g>
				<path class="st4" d="M1801.41,279.97h0.2c0.11,0,0.19-0.09,0.19-0.19s-0.09-0.19-0.19-0.19h0l-0.01-6.03l0.24,0.35
					c0.06,0.09,0.18,0.11,0.27,0.05c0.09-0.06,0.11-0.18,0.05-0.27l-0.6-0.87c-0.05-0.07-0.14-0.1-0.22-0.08
					c-0.08,0.03-0.14,0.1-0.14,0.19l0.01,6.85C1801.22,279.88,1801.31,279.97,1801.41,279.97z"/>
			</g>
			<g>
				<path class="st4" d="M1800.74,273.93c0.06,0,0.11-0.02,0.15-0.07l0.66-0.81c0.07-0.08,0.06-0.21-0.03-0.27
					c-0.08-0.07-0.21-0.06-0.27,0.03l-0.66,0.81c-0.07,0.08-0.06,0.21,0.03,0.27C1800.66,273.92,1800.7,273.93,1800.74,273.93z"/>
			</g>
		</g>
		<g>
			<g>
				<path class="st4" d="M1804.93,280.6c0.05,0,0.1-0.02,0.14-0.06l0.58-0.6c0.05-0.06,0.07-0.14,0.04-0.21
					c-0.03-0.07-0.1-0.12-0.18-0.12h0l-4.55,0.01c-0.11,0-0.19,0.09-0.19,0.19v0.2c0,0.11,0.09,0.19,0.19,0.19s0.19-0.09,0.19-0.19
					v0l3.9-0.01l-0.26,0.27c-0.07,0.08-0.07,0.2,0,0.27C1804.83,280.58,1804.88,280.6,1804.93,280.6z"/>
			</g>
			<g>
				<path class="st4" d="M1805.51,280c0.04,0,0.09-0.01,0.12-0.04c0.08-0.07,0.1-0.19,0.03-0.27l-0.54-0.66
					c-0.07-0.08-0.19-0.09-0.27-0.03c-0.08,0.07-0.1,0.19-0.03,0.27l0.54,0.66C1805.4,279.98,1805.45,280,1805.51,280z"/>
			</g>
		</g>
	</g>
	<g>
		<g>
			<g>
				<g>
					<path class="st5" d="M1741.65,395.81c0,0,1.18,10.43,0.22,11.71c-0.55,0.73-12.89,3.69-13.46,2.07s8.68-5.11,8.99-8.26
						c0.32-3.15-0.4-6-0.4-6L1741.65,395.81z"/>
				</g>
				<g>
					<path class="st6" d="M1742.23,403.4c-5.99,4.05-8.27,3.23-9.11,2.28c-2.46,1.61-5.01,3.03-4.7,3.9
						c0.56,1.62,12.91-1.34,13.46-2.07C1742.23,407.06,1742.29,405.36,1742.23,403.4z"/>
				</g>
			</g>
			<g>
				<g>
					<path class="st5" d="M1731.95,390.76c0,0,1.18,10.43,0.22,11.71c-0.55,0.73-12.89,3.69-13.46,2.07
						c-0.56-1.62,8.68-5.11,8.99-8.26c0.32-3.15-0.4-6-0.4-6L1731.95,390.76z"/>
				</g>
				<g>
					<path class="st6" d="M1732.53,398.35c-5.99,4.05-8.27,3.23-9.11,2.28c-2.46,1.61-5.01,3.03-4.7,3.9
						c0.56,1.62,12.91-1.34,13.46-2.07C1732.53,402,1732.59,400.31,1732.53,398.35z"/>
				</g>
			</g>
			<g>
				<path class="st7" d="M1772.39,378.4l3.21,23.09c0.12,0.85,0.63,1.46,1.23,1.46l0,0c0.97,0,1.75-1.19,1.69-2.59l-0.95-21.96
					H1772.39L1772.39,378.4z"/>
			</g>
			<g>
				<path class="st7" d="M1790.3,378.4l3.21,23.09c0.12,0.85,0.63,1.46,1.23,1.46l0,0c0.97,0,1.75-1.19,1.69-2.59l-0.95-21.96
					H1790.3L1790.3,378.4z"/>
			</g>
			<g>
				<path class="st8" d="M1756.5,313.81v69.59h41.08c6.21,0,15.31-5.86,16.36-13.82l7.6-44.04c0.81-6.13-2.82-11.73-7.59-11.73
					H1756.5z"/>
			</g>
			<g>
				<path class="st9" d="M1719.97,332.37l16.94,44.4l47.78,6.62l-10.44-69.59h-16.44c-3.23,0-6.13,2.59-7.28,6.53l-2.31,7.89
					c-0.73,2.5-2.57,4.15-4.63,4.15H1719.97z"/>
			</g>
			<g>
				<path class="st9" d="M1733.62,356.49h41.25c0.15,0,0.26,0.39,0.26,0.88v11.36c0,0.49-0.12,0.88-0.26,0.88h-41.25
					c-0.15,0-0.26-0.39-0.26-0.88v-11.36C1733.36,356.88,1733.48,356.49,1733.62,356.49L1733.62,356.49z"/>
			</g>
			<g>
				<path class="st4" d="M1717.72,332.37c3.88-1.28,8.03,0.91,9.28,4.89l7.87,25.14c1.09,3.48,4.24,5.84,7.79,5.84h5.24h14.83
					c3.65,0,6.86-2.49,7.87-6.1l6.86-24.64c1.12-4.03,5.2-6.35,9.12-5.2c3.91,1.15,6.18,5.35,5.06,9.37l-8.01,28.78
					c-2.13,7.66-8.95,12.94-16.7,12.94h-19.02h-9.29c-7.55,0-14.23-5-16.54-12.39l-9.11-29.11
					C1711.71,337.92,1713.84,333.66,1717.72,332.37z"/>
			</g>
			<g>
				<path class="st9" d="M1795.31,332.34c2.68,0,5.07-1.65,6.03-4.15l3.01-7.89c1.37-3.59,4.64-6.06,8.41-6.46
					c5.64,0.64,9.73,5.92,8.74,11.66l-7.56,44.07c-1.37,7.97-8.28,13.79-16.36,13.79h-32.66l17.72-51.03H1795.31L1795.31,332.34z"/>
			</g>
			<g>
				<path class="st4" d="M1750.55,383.4h16.38c7.75,0,14.57-5.28,16.7-12.94l8.01-28.78c1.12-4.02-1.15-8.22-5.06-9.37
					c-3.92-1.15-8,1.18-9.12,5.2l-5.07,18.19l-1.8,6.45c-1,3.61-4.22,6.1-7.87,6.1h-4.64c-3.63,0-6.9,2.11-7.16,5.73L1750.55,383.4z
					"/>
			</g>
			<g>
				<path class="st5" d="M1748.09,309.18c0,0-15.34,9.88-18.22,9.62c-0.92-0.08-11.09-4.71-11.09-4.71l-1.6,3.07
					c0,0,0.73,0.1,1.39,0.78c2.31,2.35,7.78,7.9,13.52,7.43c3.9-0.32,16.79-5.73,16.79-5.73L1748.09,309.18z"/>
			</g>
			<g>
				<path class="st10" d="M1752.53,339.97c0,0-27.87,7.1-31.6,15.35s5.49,39.35,5.49,39.35h8.67l1-31.16l25.95-7.4l5.13-17.66
					L1752.53,339.97z"/>
			</g>
			<g>
				<path class="st10" d="M1772.47,338.72c0,0,2.7,22.31-7.55,24.94c-6.99,1.79-23.5,0.1-24.36,2.91
					c-0.55,1.79,2.86,32.95,2.86,32.95h-9.64c0,0-10.58-35.02-6.45-40.27c4.41-5.61,15.22-8.51,23-11.81c2.35-1,6.83-2.13,8.69-3.17
					C1768.16,339.19,1772.47,338.72,1772.47,338.72z"/>
			</g>
			<g>
				<path class="st11" d="M1747.87,308.89c-2.08,0.98-5.97,4-5.97,4l5.57,8.84c0,0-0.84,4.52,3.78,6.45l1.05,11.91
					c0,0,10.19,7.43,21.21,1.78c0,0-1.13-21.53-0.81-21.48l5.54,1.48c0,0,2.46-11.93-6.15-14.58
					C1767.12,305.76,1758.32,303.97,1747.87,308.89z"/>
			</g>
			<g>
				<path class="st12" d="M1747.49,321.87c0.07,0,0.13-0.06,0.13-0.13c0-0.03,0.15-2.59,1.99-4.57c0.05-0.06,0.05-0.15-0.01-0.2
					c-0.06-0.05-0.15-0.05-0.2,0.01c-1.91,2.06-2.06,4.64-2.07,4.75c0,0.08,0.06,0.14,0.13,0.15
					C1747.48,321.87,1747.48,321.87,1747.49,321.87z"/>
			</g>
			<g>
				<path class="st12" d="M1732.28,394.7c-0.3-1.23-7.27-30.24-5.05-35.49c0.94-2.22,3.24-4.32,6.66-6.08
					c2.87-1.47,6.42-2.64,9.76-3.2l0.04,0.22c-3.31,0.56-6.85,1.71-9.69,3.18c-3.37,1.73-5.64,3.8-6.56,5.96
					c-0.9,2.14-0.31,8.92,1.7,19.62c1.53,8.1,3.35,15.65,3.36,15.73L1732.28,394.7z"/>
			</g>
			<g>
				<g>
					<path class="st12" d="M1758.02,278.57c-2.26-0.17-4.79,0.93-5.52,3.08c-0.25,0.72-0.29,1.53-0.72,2.15
						c-0.88,1.26-2.96,1.22-3.78,2.53c-0.83,1.34,0.2,3.13-0.27,4.63c-0.31,0.99-1.22,1.66-1.74,2.56
						c-0.79,1.37-0.58,3.16,0.23,4.52c0.81,1.36,2.14,2.34,3.54,3.07c0.66,0.34,1.41,0.72,1.63,1.43c0.08,0.25,0.08,0.51,0.12,0.76
						c0.25,1.43,1.86,2.25,3.31,2.25c1.45,0,2.83-0.57,4.24-0.89c4.96-1.11,10.4,0.94,15.13-0.94c0.52-0.21,1.09-0.53,1.21-1.08
						c0.18-0.79-0.64-1.44-0.86-2.23c-0.41-1.41,1.13-2.55,1.84-3.84c0.71-1.3,0.52-3.04-0.46-4.15c-0.66-0.75-1.64-1.24-2.1-2.13
						c-0.44-0.87-0.29-1.91-0.38-2.88c-0.18-1.89-1.36-3.59-2.92-4.67c-1.79-1.24-3.86-1.41-5.89-1.97
						C1762.37,280.16,1760.42,278.74,1758.02,278.57z"/>
				</g>
				<g>
					<path class="st5" d="M1760.72,280.86c4.13,0,7.66,3.15,8.14,7.25c0.16,1.35-0.02,2.65-0.46,3.83
						c-0.95,2.93-1.73,5.29-2.79,7.04c-1.07,1.77-1.48,3.87-1.05,5.9l0.17,0.81c0.16,0.77-0.24,1.55-0.96,1.86
						c-2.22,0.98-3.77,0.75-4.68,0.39c-0.58-0.23-0.97-0.78-1.01-1.4l-0.25-3.95l0,0c-5.2-0.28-5.13-9.86-5.31-12.67l0.01,0
						c-0.01-0.11-0.02-0.21-0.03-0.32C1752.19,284.9,1755.92,280.86,1760.72,280.86z"/>
				</g>
				<g>
					<path class="st12" d="M1754.41,293.61c-0.06-0.39,0.2-0.76,0.59-0.82c0.39-0.06,0.76,0.2,0.82,0.59
						c0.06,0.39-0.2,0.76-0.59,0.82C1754.85,294.27,1754.48,294,1754.41,293.61z"/>
				</g>
				<g>
					<path class="st12" d="M1761.22,293.94c-0.06-0.39,0.2-0.76,0.59-0.82c0.39-0.06,0.76,0.2,0.82,0.59
						c0.06,0.39-0.2,0.76-0.59,0.82C1761.65,294.59,1761.28,294.33,1761.22,293.94z"/>
				</g>
				<g>
					<path class="st12" d="M1762.85,292.07c0.08-0.02,0.16-0.07,0.2-0.16c0.07-0.15,0.01-0.33-0.13-0.4
						c-0.04-0.02-1.1-0.53-2.39-0.17c-0.16,0.04-0.25,0.21-0.21,0.37c0.04,0.16,0.22,0.25,0.37,0.21c1.07-0.3,1.95,0.12,1.96,0.13
						C1762.71,292.08,1762.78,292.08,1762.85,292.07z"/>
				</g>
				<g>
					<path class="st12" d="M1756.14,291.84c0.08-0.03,0.15-0.09,0.18-0.18c0.06-0.15-0.02-0.33-0.17-0.38
						c-0.05-0.02-1.14-0.42-2.39,0.08c-0.15,0.06-0.23,0.23-0.17,0.39c0.06,0.15,0.24,0.23,0.39,0.17c1.04-0.41,1.95-0.08,1.96-0.07
						C1756.01,291.86,1756.08,291.86,1756.14,291.84z"/>
				</g>
				<g>
					<path class="st13" d="M1757.88,296.67c0.19,0.06,0.43,0.08,0.72,0.05c0.06-0.01,0.1-0.06,0.09-0.12
						c-0.01-0.06-0.06-0.1-0.12-0.09c-1.01,0.12-1.23-0.53-1.27-0.7c0.75-1.09,0.58-2.5,0.57-2.56c-0.01-0.06-0.06-0.1-0.12-0.09
						c-0.06,0.01-0.1,0.06-0.09,0.12c0,0.01,0.18,1.42-0.56,2.44c-0.02,0.02-0.02,0.05-0.02,0.08
						C1757.09,295.8,1757.19,296.46,1757.88,296.67z"/>
				</g>
				<g>
					<path class="st12" d="M1764.09,291.13c-0.8-1.38-1.36-2.88-1.99-4.34c-0.09-0.21-0.18-0.42-0.34-0.58
						c-0.23-0.25-0.57-0.37-0.9-0.47c-0.74-0.24-1.62-0.46-2.22,0.03c-0.66,0.55-0.53,1.6-0.94,2.36c-0.66,1.23-2.57,1.39-3.17,2.65
						c-0.48,1.01,0.06,2.38-0.68,3.21c-0.3,0.34-0.77,0.5-1.08,0.84c-1.01,1.09,0.16,3.14-0.85,4.23c-0.76-1.51-1.44-3.06-2.03-4.64
						c-0.15-0.4-0.3-0.82-0.28-1.25c0.03-0.82,0.63-1.48,1.07-2.17c0.81-1.26,1.12-2.77,1.6-4.19c0.56-1.68,1.37-3.28,2.38-4.74
						c0.17-0.24,0.35-0.49,0.6-0.65c0.3-0.2,0.67-0.25,1.03-0.29c1.77-0.22,3.56-0.4,5.34-0.25c1.78,0.15,3.56,0.64,5.02,1.66
						c0.57,0.4,1.09,0.88,1.5,1.44c0.46,0.63,0.77,1.34,1.09,2.05c0.38,0.87,0.77,1.75,0.85,2.7c0.07,0.78-0.08,1.56-0.24,2.32
						c-0.14,0.69-0.3,1.4-0.66,2.01C1767.51,295.92,1765.13,292.91,1764.09,291.13z"/>
				</g>
				<g>
					<path class="st5" d="M1766.05,294.41c0.12-0.27,0.33-0.49,0.6-0.62c0.55-0.26,1.53-0.58,2.27,0.06
						c1.07,0.94-0.78,3.74-2.87,2.55C1766.05,296.4,1765.44,295.86,1766.05,294.41z"/>
				</g>
				<g>
					<path class="st0" d="M1758.94,299.19c0.03,0.51-0.28,0.95-0.69,0.98c-0.42,0.03-0.78-0.37-0.82-0.88
						c-0.03-0.51,0.28-0.95,0.69-0.98C1758.54,298.29,1758.9,298.68,1758.94,299.19z"/>
				</g>
			</g>
			<g>
				<g>
					<path class="st5" d="M1721.1,315.16c0,0-3.95-3.28-4.99-2.94c-1.04,0.34-3.95,1.74-4.47,1.85c-0.52,0.11-3.29,0.08-3.72,0.36
						c-0.43,0.29,2.99,0.93,2.99,0.93s-2.99-0.14-3.17,0.38c-0.18,0.52,3.01,0.95,3.01,0.95s-3.03-0.24-3.04,0.27
						c-0.01,0.51,2.92,0.78,2.92,0.78s-2.35-0.15-2.35,0.25c0,0.41,3.85,1.26,5.2,0.46c3.17-1.91,6.33-1.14,6.33-1.14L1721.1,315.16
						L1721.1,315.16z"/>
				</g>
				<g>
					<path class="st5" d="M1718.56,313.27c0,0-2.83-1.82-3.84-1.83c-1.02-0.01-3.08-0.28-3.07,0.16c0.01,0.44,2.87,1,2.99,1.31
						c0.12,0.31,1.41,0.3,1.41,0.3l2.44,0.25L1718.56,313.27z"/>
				</g>
			</g>
			<g>
				<g>
					<path class="st5" d="M1758.38,320.39c0,0-0.2-5.13-1.15-5.68c-0.94-0.55-3.94-1.78-4.36-2.09c-0.43-0.31-2.26-2.39-2.76-2.52
						c-0.5-0.13,1.3,2.84,1.3,2.84s-1.89-2.32-2.41-2.1c-0.51,0.21,1.31,2.87,1.31,2.87s-1.85-2.41-2.23-2.08
						c-0.39,0.33,1.37,2.7,1.37,2.7s-1.46-1.85-1.76-1.58c-0.3,0.27,1.64,3.71,3.13,4.17c3.54,1.08,5.08,3.95,5.08,3.95
						L1758.38,320.39L1758.38,320.39z"/>
				</g>
				<g>
					<path class="st5" d="M1758.09,317.24c0,0-0.54-3.32-1.21-4.08c-0.67-0.76-1.85-2.47-2.17-2.18c-0.32,0.3,1.18,2.8,1.03,3.1
						c-0.15,0.3,0.72,1.25,0.72,1.25l1.45,1.98L1758.09,317.24z"/>
				</g>
			</g>
			<g>
				<path class="st5" d="M1754.85,319.46c0,0,6.34,20.38,10.76,20.65c3.53,0.21,3.73-2.46,2.74-6.72s-10.19-15.68-10.19-15.68
					L1754.85,319.46z"/>
			</g>
			<g>
				<path class="st5" d="M1777.9,321.77c0,0-5.38,18.55-11.3,18.47c-4.08-0.06-3.23-4.92-2.51-6.58c0.72-1.66,6.76-13.78,6.76-13.78
					L1777.9,321.77z"/>
			</g>
		</g>
	</g>
	<g>
		<g>
			<g>
				<path class="st4" d="M1693.17,373.84h-61.81v1.78h31.71c3.2,0,5.79,2.59,5.79,5.79l0,0c0,3.2-2.59,5.79-5.79,5.79h-31.71v1.67
					h61.81c4.15,0,7.51-3.36,7.51-7.51l0,0C1700.68,377.2,1697.32,373.84,1693.17,373.84L1693.17,373.84z"/>
			</g>
			<g>
				<path class="st14" d="M1671.68,381.35L1671.68,381.35c0-4.15-3.36-7.51-7.51-7.51h-32.81v1.78h31.71c3.2,0,5.79,2.59,5.79,5.79
					l0,0c0,3.2-2.59,5.79-5.79,5.79h-31.71v1.67h32.81C1668.31,388.86,1671.68,385.5,1671.68,381.35L1671.68,381.35z"/>
			</g>
			<g>
				<path class="st0" d="M1663.07,375.63h-31.71v0.04c2.88,0.33,5.12,2.78,5.12,5.75l0,0c0,2.97-2.24,5.42-5.12,5.75v0.04h31.71
					c3.2,0,5.79-2.59,5.79-5.79l0,0C1668.86,378.22,1666.27,375.63,1663.07,375.63L1663.07,375.63z"/>
			</g>
			<g>
				<path class="st15" d="M1668.86,381.39c0-3.22-2.59-5.82-5.79-5.82h-31.72v0.04c1.49,0.17,2.81,0.91,3.73,2
					c6.34-0.51,25.27-1.09,27.26,9.6h0.73C1666.27,387.21,1668.86,384.6,1668.86,381.39L1668.86,381.39z"/>
			</g>
		</g>
		<g>
			<g>
				<path class="st16" d="M1629.12,356.27h57.3v2.08h-29.4c-2.96,0-5.36,3.03-5.36,6.77l0,0c0,3.74,2.4,6.77,5.36,6.77h29.4v1.95
					h-57.3c-3.85,0-6.96-3.93-6.96-8.79l0,0C1622.16,360.21,1625.28,356.27,1629.12,356.27L1629.12,356.27z"/>
			</g>
			<g>
				<path class="st17" d="M1649.05,365.06L1649.05,365.06c0-4.85,3.12-8.79,6.96-8.79h30.41v2.08h-29.4c-2.96,0-5.36,3.03-5.36,6.77
					l0,0c0,3.74,2.4,6.77,5.36,6.77h29.4v1.95h-30.41C1652.17,373.85,1649.05,369.91,1649.05,365.06L1649.05,365.06z"/>
			</g>
			<g>
				<path class="st15" d="M1657.03,358.36h29.4v0.05c-2.67,0.39-4.74,3.25-4.74,6.72l0,0c0,3.47,2.07,6.34,4.74,6.72v0.05h-29.4
					c-2.96,0-5.36-3.03-5.36-6.77l0,0C1651.66,361.39,1654.06,358.36,1657.03,358.36L1657.03,358.36z"/>
			</g>
		</g>
		<g>
			<g>
				<path class="st18" d="M1628.33,388.86h80.35v2.15h-41.22c-4.15,0-7.52,3.12-7.52,6.98l0,0c0,3.85,3.37,6.98,7.52,6.98h41.22
					v2.01h-80.35c-5.39,0-9.76-4.05-9.76-9.06l0,0C1618.57,392.91,1622.94,388.86,1628.33,388.86L1628.33,388.86z"/>
			</g>
			<g>
				<path class="st19" d="M1656.27,397.92L1656.27,397.92c0-5,4.37-9.06,9.76-9.06h42.64v2.15h-41.22c-4.15,0-7.52,3.12-7.52,6.98
					l0,0c0,3.85,3.37,6.98,7.52,6.98h41.22v2.01h-42.64C1660.64,406.97,1656.27,402.92,1656.27,397.92L1656.27,397.92z"/>
			</g>
			<g>
				<path class="st0" d="M1667.46,391.01h41.22v0.05c-3.74,0.4-6.65,3.35-6.65,6.93l0,0c0,3.58,2.91,6.53,6.65,6.93v0.05h-41.22
					c-4.15,0-7.52-3.12-7.52-6.98l0,0C1659.94,394.14,1663.31,391.01,1667.46,391.01L1667.46,391.01z"/>
			</g>
			<g>
				<path class="st15" d="M1659.94,397.95c0-3.87,3.37-7.01,7.52-7.01h41.22v0.05c-1.94,0.21-3.65,1.1-4.85,2.41
					c-8.25-0.61-32.84-1.32-35.43,11.57h-0.95C1663.31,404.97,1659.94,401.83,1659.94,397.95L1659.94,397.95z"/>
			</g>
		</g>
	</g>
	<g>
		<g>
			<g>
				<g>
					<path class="st7" d="M1667.79,368.16c0,0,5.73,4.95,4.85,5.45c-0.88,0.5-10.65,0-10.65,0l0.47-5.45H1667.79z"/>
				</g>
				<g>
					<g>
						<path class="st5" d="M1665.38,327.21c0,0,1.77,10.16,5.62,16.39l-2.05,1.78c0,0-7.59-9.93-8.6-16
							C1660.35,329.38,1663.75,327.89,1665.38,327.21z"/>
					</g>
					<g>
						<path class="st5" d="M1670.42,343.29c0,0,2.25,0.93,2.99,1.45c0.74,0.52,1.84,0.47,1.7,0.98c-0.14,0.5-1.84,0.15-1.84,0.15
							s0.86,1.62,1.2,2.08c0.34,0.46,0.74,1.43,0.42,1.71c-0.32,0.27-1.79-2.04-1.79-2.04s1.05,2.07,0.81,2.39
							c-0.24,0.32-1.96-2.13-1.96-2.13s1.23,2.16,1.18,2.41c-0.05,0.25-0.38,0.2-1-0.46c-0.62-0.66-1.09-1.49-1.09-1.49
							s0.75,1.58,0.78,1.8c0.02,0.22-0.1,0.54-0.92-0.53c-0.82-1.07-2.21-3.68-2.37-5.26L1670.42,343.29z"/>
					</g>
				</g>
				<g>
					<path class="st4" d="M1641.47,347.94c0,0,11.9,3.7,24.53-0.64l-2.27-13.77c0,0,2.53-0.93,3.81-2.01
						c1.46-1.22,1.87-2.12,1.87-2.12s-4.74-7.78-6.91-9.32c-3.67-2.62-8.76-3.61-15.26-0.95c-6.39,2.62-7.1,4.85-7.52,12.52
						c-0.02,0.35-0.01,0.7,0.03,1.05L1641.47,347.94z"/>
				</g>
				<g>
					<path class="st7" d="M1659.29,303.98c-0.21-1.46-0.42-2.95-1.09-4.27c-2.56-5.03-11.1-4.83-14.45-0.92
						c-1.44,1.69-2.49,4.02-2.76,6.23c-0.32,2.65,0.88,5.57,3.27,6.75c1.69,0.83,3.7,0.72,5.51,0.2c1.81-0.52,3.48-1.42,5.21-2.14
						c0.83-0.35,1.68-0.66,2.41-1.19c0.54-0.39,1.59-0.93,1.91-1.51C1659.74,306.3,1659.41,304.86,1659.29,303.98z"/>
				</g>
				<g>
					<path class="st20" d="M1659.13,304.13c0,0,0.44-0.9,0.92-0.62c1.22,0.71,0.26,1.96-0.44,2.3L1659.13,304.13z"/>
				</g>
				<g>
					<path class="st5" d="M1659.2,304.72c-0.41-4.82-4.37-8.42-8.85-8.04c-4.47,0.38-7.76,4.61-7.35,9.43
						c0.41,4.82,4.37,8.42,8.85,8.04S1659.61,309.54,1659.2,304.72z"/>
				</g>
				<g>
					<path class="st5" d="M1649.53,314.77c0.91,0.74,0.84,3.83,0.84,3.83c0.18,1.5,5.56,0.69,5.4-0.68
						c-0.47-1.07-1.22-3.17-0.25-3.61c0.81-0.36,1.38-0.73,2.17-1.31c4.66-3.44,1.19-10.03,1.19-10.03s-17.1,2.4-14.4,7.43
						C1645.23,311.8,1648.57,313.99,1649.53,314.77z"/>
				</g>
				<g>
					<path class="st6" d="M1650.1,307.55c-0.06-0.46-0.48-0.79-0.95-0.72c-0.46,0.06-0.79,0.48-0.72,0.95
						c0.06,0.46,0.48,0.79,0.95,0.72S1650.16,308.01,1650.1,307.55z"/>
				</g>
				<g>
					<path class="st6" d="M1657.86,305.36c-0.06-0.46-0.48-0.79-0.95-0.72c-0.46,0.06-0.79,0.48-0.72,0.94
						c0.06,0.46,0.48,0.79,0.95,0.72C1657.59,306.24,1657.92,305.82,1657.86,305.36z"/>
				</g>
				<g>
					<path class="st20" d="M1654.2,308.86c-0.11,0.01-0.2-0.07-0.21-0.17s0.07-0.2,0.17-0.21c0.22-0.02,0.37-0.16,0.43-0.28
						c0.05-0.1,0.06-0.19,0.03-0.26c-0.06-0.1-0.51-0.32-0.97-0.48c-0.1-0.03-0.15-0.14-0.12-0.24c0.03-0.1,0.14-0.15,0.24-0.12
						c0.3,0.11,1.03,0.38,1.18,0.66c0.1,0.18,0.09,0.41-0.03,0.62C1654.8,308.65,1654.51,308.83,1654.2,308.86z"/>
				</g>
				<g>
					<path class="st7" d="M1647.56,306.66c-0.08,0.01-0.17-0.02-0.23-0.08c-0.11-0.11-0.11-0.29,0-0.41
						c0.76-0.75,1.94-0.93,1.99-0.94c0.16-0.02,0.3,0.09,0.32,0.24c0.02,0.16-0.09,0.3-0.24,0.32l0,0c-0.01,0-1.04,0.16-1.67,0.78
						C1647.69,306.63,1647.63,306.66,1647.56,306.66z"/>
				</g>
				<g>
					<path class="st7" d="M1657.8,304.04c-0.04,0-0.09,0-0.13-0.02c-0.82-0.33-1.83-0.07-1.84-0.07c-0.15,0.04-0.31-0.05-0.35-0.2
						c-0.04-0.15,0.05-0.31,0.2-0.35c0.05-0.01,1.2-0.31,2.19,0.09c0.15,0.06,0.22,0.23,0.16,0.37
						C1658,303.97,1657.9,304.03,1657.8,304.04z"/>
				</g>
				<g>
					<path class="st7" d="M1644.76,309.67c0.23,0.04,1.51-2.89,2.27-5.9c0.75-3.01,3.53-4.72,3.53-4.72s5.94,0.44,6.89,1.51
						c0.95,1.07,1.85,3.35,1.85,3.35s-0.62-3.75-2.89-5.61c-2.27-1.87-5.66-3.09-10.47-0.4
						C1641.12,300.58,1641.81,309.15,1644.76,309.67z"/>
				</g>
				<g>
					<path class="st7" d="M1653.42,298.29c0,0,3.34,1.51,1.83,2.9c-1.51,1.39-5.3-0.63-5.3-0.63s3.34,2.08,0,2.27s-8.2,2.9-8.2,2.9
						S1649.01,297.09,1653.42,298.29z"/>
				</g>
				<g>
					<path class="st7" d="M1645.6,297.91c0.06-0.19,2.77-3.97,5.93-3.34c3.15,0.63-1.7,2.71-1.7,2.71s2.58-2.52,6.62-1.01
						c4.03,1.51,2.65,7.25,2.65,7.25s-0.69-2.58-4.03-3.47C1651.72,299.17,1645.6,297.91,1645.6,297.91z"/>
				</g>
				<g>
					<path class="st7" d="M1646.23,312.34c0,0-7.19,1.4-7.19-5.99c0-5.93,2.33-8.26,2.77-6.68c0,0,5.42-5.99,4.41-2.46
						c-1.01,3.53-3.66,8.83-3.66,8.83L1646.23,312.34z"/>
				</g>
				<g>
					<path class="st5" d="M1645.4,309.08c-0.18-0.27-0.46-0.45-0.77-0.53c-0.64-0.17-1.75-0.29-2.4,0.54
						c-0.94,1.23,1.62,3.82,3.59,2.1C1645.82,311.2,1646.36,310.5,1645.4,309.08z"/>
				</g>
				<g>
					<path class="st11" d="M1649.27,347.39c0,0,20.02-3.91,24.35,0c4.34,3.91-4.53,20.78-4.53,20.78h-7.05
						c0,0,3.07-13.34,2.61-12.96c-0.46,0.39-26.36,7.71-23.18-7.26L1649.27,347.39z"/>
				</g>
				<g>
					<path class="st7" d="M1677.74,368.16c0,0,5.73,4.95,4.85,5.45c-0.88,0.5-10.65,0-10.65,0l0.47-5.45H1677.74z"/>
				</g>
				<g>
					<path class="st11" d="M1654.66,347.39c0,0,20.02-3.91,24.35,0c4.34,3.91-0.38,20.78-0.38,20.78h-6.53
						c0,0,0.63-13.42,0.17-13.03c-0.46,0.39-28.59,7.79-25.41-7.18L1654.66,347.39z"/>
				</g>
				<g>
					<g>
						<path class="st5" d="M1649.84,333.48c0,0,3.26,6.88,9.35,11.58l-1.36,2.51c0,0-9.83-6.18-13.07-11.77
							C1644.77,335.8,1648.49,334.75,1649.84,333.48z"/>
					</g>
					<g>
						<path class="st5" d="M1658.51,344.97c0,0,2.56,0.08,3.48,0.32c0.92,0.24,1.98-0.22,2.03,0.33c0.05,0.55-1.75,0.83-1.75,0.83
							s1.44,1.28,1.95,1.6s1.26,1.13,1.05,1.52c-0.21,0.39-2.52-1.34-2.52-1.34s1.8,1.65,1.68,2.05c-0.12,0.4-2.72-1.36-2.72-1.36
							s2.01,1.66,2.05,1.93c0.04,0.27-0.3,0.33-1.15-0.08c-0.85-0.42-1.62-1.06-1.62-1.06s1.32,1.27,1.43,1.48
							c0.11,0.21,0.1,0.57-1.1-0.18c-1.2-0.75-3.53-2.8-4.27-4.29L1658.51,344.97z"/>
					</g>
				</g>
				<g>
					<path class="st4" d="M1642.7,321.69c-0.28,0.24-3.72,4.31-0.29,16.22l9-4.92L1642.7,321.69z"/>
				</g>
				<g>
					<path class="st0" d="M1655.84,310.73c0.07,0.51-0.21,0.97-0.63,1.03c-0.41,0.05-0.81-0.31-0.87-0.83
						c-0.07-0.51,0.21-0.97,0.63-1.03C1655.38,309.85,1655.77,310.22,1655.84,310.73z"/>
				</g>
				<g>
					<polygon class="st7" points="1643.67,337.36 1641.28,333.54 1641.47,333.42 1643.75,337.05 1650.36,333.44 1647.67,328.32 
						1647.87,328.21 1650.67,333.53 					"/>
				</g>
			</g>
			<g>
				<g>
					<path class="st7" d="M1672.44,360.9l-0.14-0.08c2.65-4.55,3.23-8.17,1.7-10.74c-2.66-4.49-10.89-4.3-10.98-4.3l0-0.16
						c0.08,0,8.41-0.19,11.12,4.38C1675.7,352.63,1675.13,356.3,1672.44,360.9z"/>
				</g>
			</g>
		</g>
	</g>
	<g>
		<g>
			<path class="st2" d="M1682.68,261.5c-13.96,0-25.27,9.22-25.27,20.59c0,8.76,6.72,16.24,16.19,19.21l0.01,0.01
				c0.32,0.3,0.5,0.73,0.45,1.17c-0.3,2.67-2.13,6.11-2.93,7.52c-0.15,0.25,0.09,0.56,0.37,0.49c3.92-1.01,6.55-4.31,7.93-6.55
				c0.51-0.83,1.43-1.29,2.4-1.26c0.28,0.01,0.57,0.01,0.86,0.01c13.96,0,25.27-9.22,25.27-20.59
				C1707.96,270.72,1696.64,261.5,1682.68,261.5z"/>
		</g>
		<g>
			<path class="st7" d="M1686.81,294.78c-1.21,0-2.4-0.32-3.35-0.92c-1.81-1.14-2.25-2.97-1.14-4.77c0.64-1.05,1.02-1.87,1.19-2.57
				c-1.27-0.68-2.72-1.86-4.35-3.54c-1.84-1.9-3.68-3.24-5.5-4.01c-0.81,1.1-0.99,2.65-0.48,4.43c0.63,2.2-0.07,3.37-0.76,3.96
				c-0.92,0.79-2.75,1.17-4.48,0.38c-1.14-0.52-1.79-1.4-1.79-2.42c0-1.3,0.74-2.19,1.46-3.05c0.9-1.08,1.77-2.12,1.13-3.97
				c-3.75,0.62-6.01,3.72-6.04,3.75c-0.07,0.1-0.2,0.12-0.3,0.05c-0.1-0.07-0.12-0.2-0.05-0.3c0.1-0.14,2.36-3.24,6.23-3.91
				c-0.28-0.64-0.72-1.36-1.38-2.21c-2.66-3.41-0.52-5.62,0.2-6.21c1.11-0.91,2.73-1.43,4.33-1.38c1.77,0.05,3.34,0.77,4.42,2
				c2.34,2.69,4.47,1.91,6.53,1.15c1.26-0.46,2.44-0.89,3.58-0.49c0.37,0.13,0.58,0.33,0.62,0.59c0.1,0.64-0.9,1.41-2.28,2.47
				c-1.39,1.06-3.1,2.38-3.82,3.75c1.36,0.5,2.86,1.32,4.47,2.54c1.23,0.93,2.44,1.65,3.61,2.17c0.21-1.79,0.11-3.7-0.08-4.91
				c-0.16-1.03,0.47-1.97,1.82-2.73c1.32-0.74,3.23-1.22,5.13-1.29c2.02-0.08,3.7,0.33,4.62,1.11c0.59,0.5,1.19,1.42,0.64,2.95
				c-0.65,1.82-1.64,3.31-2.87,4.37c0.15,0.09,0.3,0.18,0.45,0.27c1.61,0.96,3.13,1.87,3.46,3.33c0.2,0.9-0.07,1.91-0.85,3.09
				c-2.01,3.03-3.75,2.58-5.28,2.19c-1.41-0.36-2.63-0.68-4.07,1.55C1690.7,293.98,1688.73,294.78,1686.81,294.78z M1683.91,286.71
				c-0.2,0.75-0.6,1.59-1.22,2.6c-0.98,1.6-0.61,3.17,1,4.18c2.28,1.44,6.04,1.16,7.79-1.54c1.61-2.49,3.1-2.1,4.54-1.73
				c1.53,0.39,2.97,0.77,4.81-2.01c0.71-1.07,0.97-1.97,0.79-2.75c-0.29-1.28-1.73-2.14-3.26-3.06c-0.19-0.12-0.39-0.23-0.58-0.35
				c-0.75,0.58-1.58,1.01-2.48,1.28c-1.85,0.55-3.9,0.39-6.06-0.45c-0.28,1.78-0.92,3.41-2.2,4.05
				C1686.19,287.36,1685.15,287.29,1683.91,286.71z M1669.2,278.24c0.67,2.02-0.3,3.18-1.24,4.31c-0.7,0.84-1.36,1.63-1.36,2.77
				c0,0.84,0.56,1.57,1.54,2.02c1.56,0.72,3.2,0.38,4.01-0.31c0.86-0.74,1.08-1.95,0.63-3.52c-0.54-1.87-0.36-3.52,0.48-4.72
				c-1.28-0.48-2.54-0.67-3.79-0.58C1669.38,278.23,1669.29,278.23,1669.2,278.24z M1684.01,286.29c1.14,0.55,2.09,0.64,2.85,0.26
				c1.12-0.56,1.71-2.11,1.97-3.84c-1.24-0.53-2.52-1.29-3.81-2.27c-1.48-1.12-2.97-1.95-4.39-2.48c-0.23,0.64-0.22,1.29,0.16,1.93
				c0.58,0.95,1.15,1.69,1.65,2.35c0.81,1.06,1.46,1.9,1.6,2.95C1684.09,285.54,1684.08,285.9,1684.01,286.29z M1673.96,278.62
				c1.83,0.8,3.68,2.15,5.52,4.05c1.55,1.6,2.93,2.74,4.12,3.41c0.18-1.37-0.5-2.27-1.51-3.57c-0.51-0.67-1.09-1.42-1.68-2.39
				c-0.47-0.78-0.49-1.55-0.21-2.3c-0.46-0.15-0.91-0.27-1.35-0.35c-1.73-0.32-3.22-0.1-4.3,0.65
				C1674.33,278.27,1674.14,278.43,1673.96,278.62z M1689.32,282.45c2.1,0.84,4.09,1.01,5.87,0.48c0.79-0.24,1.53-0.61,2.21-1.11
				c-1.43-0.9-2.71-1.92-3.07-3.49c-0.03-0.12,0.05-0.23,0.16-0.26c0.12-0.03,0.23,0.05,0.26,0.16c0.33,1.46,1.61,2.43,3.01,3.3
				c1.23-1.02,2.2-2.48,2.85-4.28c0.37-1.04,0.2-1.88-0.51-2.48c-0.84-0.71-2.42-1.08-4.33-1.01c-1.83,0.07-3.67,0.53-4.93,1.24
				c-0.82,0.46-1.76,1.23-1.6,2.29C1689.41,278.4,1689.56,280.48,1689.32,282.45z M1670.08,277.76c1.14,0,2.3,0.23,3.46,0.68
				c0.22-0.25,0.48-0.48,0.77-0.68c1.29-0.88,3.39-1.24,6.08-0.35c0.75-1.48,2.53-2.84,3.97-3.95c1.02-0.78,2.18-1.67,2.12-2.06
				c-0.02-0.12-0.22-0.21-0.34-0.25c-1-0.35-2.11,0.06-3.29,0.49c-2.09,0.77-4.47,1.64-7-1.27c-2.12-2.43-6.05-2.3-8.15-0.57
				c-1.72,1.42-1.77,3.52-0.14,5.61c0.72,0.92,1.19,1.71,1.48,2.41c0.13-0.02,0.26-0.03,0.4-0.04
				C1669.65,277.77,1669.86,277.76,1670.08,277.76z"/>
		</g>
	</g>
	<g>
		<g>
			<path class="st2" d="M1728.38,276.81c8.33,0,15.07,5.5,15.07,12.28c0,5.22-4.01,9.68-9.66,11.46l-0.01,0.01
				c-0.19,0.18-0.3,0.44-0.27,0.7c0.18,1.59,1.27,3.64,1.75,4.48c0.09,0.15-0.05,0.33-0.22,0.29c-2.34-0.6-3.91-2.57-4.73-3.91
				c-0.3-0.49-0.85-0.77-1.43-0.75c-0.17,0-0.34,0.01-0.51,0.01c-8.33,0-15.07-5.5-15.07-12.28
				C1713.31,282.31,1720.06,276.81,1728.38,276.81z"/>
		</g>
		<g>
			<rect x="1720.29" y="285.28" class="st4" width="16.19" height="1.02"/>
		</g>
		<g>
			<rect x="1720.29" y="291.22" class="st4" width="16.19" height="1.02"/>
		</g>
		<g>
			<rect x="1717.82" y="288.25" class="st4" width="21.13" height="1.02"/>
		</g>
	</g>
</g>
</svg>
