<?xml version="1.0" encoding="utf-8"?>
<!-- Generator: Adobe Illustrator 25.0.0, SVG Export Plug-In . SVG Version: 6.00 Build 0)  -->
<svg version="1.1" id="Camada_1" xmlns="http://www.w3.org/2000/svg" xmlns:xlink="http://www.w3.org/1999/xlink" x="0px" y="0px"
	 viewBox="0 0 920 550" style="enable-background:new 0 0 920 550;" xml:space="preserve">
<style type="text/css">
	.st0{fill:#FCE4DD;}
	.st1{fill:#FFFFFF;}
	.st2{fill:#4E2B12;}
	.st3{fill:#BE6528;}
	.st4{fill:#B45B1F;}
	.st5{fill:#FACA64;}
	.st6{fill:#EB9560;}
	.st7{fill:#E28B57;}
	.st8{fill:#392111;}
	.st9{fill:#F19B66;}
	.st10{fill:#F6AEA4;}
	.st11{fill:#E99C90;}
	.st12{fill:#E73C3D;}
	.st13{fill:#DD3332;}
	.st14{opacity:0.15;fill:#FFFFFF;}
	.st15{opacity:0.1;fill:#FFFFFF;}
	.st16{fill:#332917;}
	.st17{fill:#1C170E;}
	.st18{fill:#263346;}
	.st19{fill:#1B283B;}
	.st20{fill:#FFDB89;}
	.st21{fill:#FDCD69;}
</style>
<rect class="st0" width="920" height="550"/>
<g>
	<g>
		<path class="st1" d="M369.81,61.81c-74.89-9.98-140.7,6.6-154.35,84.6c-9.64,55.08,56.68,89.55,135.42,81.94
			c7.47-0.72,14.33-1.66,20.65-2.79c12.34,23.86,37.38,36.5,30.61,24.6c-6.54-11.5-6.59-23.05-5.37-31.01
			c38.17-13.25,46.27-36.34,52.01-56.65C459.39,124.97,444.71,71.79,369.81,61.81z"/>
		<path class="st1" d="M215.48,208.67c-16.71-65.15-67.09-72.6-119.33-61.89c-62.88,12.89-79.8,58.38-73.47,91.07
			c4.47,23.06,15.04,51.39,81.56,52.83c16.33,18.43,45.64,20.47,36.33,12.83c-4.24-3.48-7.74-9.01-10.36-14.19
			C185.25,282.21,225.76,248.76,215.48,208.67z"/>
		<path class="st1" d="M590.65,52.53c-69.55-9.27-123.17,7.82-124.2,81.34c-0.64,45.73,36.3,68.17,89.39,74.32
			c2.38,8.28,4.97,18.11,6.31,25.89c1.92,11.13,6.66-8.67,11.05-24.47c6.18,0.3,12.52,0.42,19,0.36
			c73.45-0.69,83.66-26.71,90.91-61.14C690.58,113.38,660.19,61.8,590.65,52.53z"/>
		<path class="st1" d="M809.65,113.41c-62.73-8.36-106.19,11.4-117.62,76.73c-6.66,38.04,35.87,65.01,87.97,69.73
			c1,6.22,0.19,13.59-4.58,21.6c-3.62,6.08,14.59-0.45,19.18-20.87c6.46,0.06,13.01-0.21,19.57-0.85
			c65.95-6.38,66.97-33.76,73.29-56.13C896.34,172.19,872.38,121.77,809.65,113.41z"/>
	</g>
	<g>
		<g>
			<path class="st2" d="M408.21,476c4.58-1.86,12.36,2.62,31.72-7.62c19.36-10.24,39.09-2.75,42.46-19.74
				c3.35-16.89-2.25-19.61,8.99-29.11c13.15-11.11,10.36-34.11,2.75-48.47s6.12-25.74,0-37.48c-6.12-11.74-25.1-7.5-30.34-21.99
				c-5.24-14.49-13.11-37.36-43.08-33.48s-35.71-5.25-54.2-3c-18.48,2.25-24.1,30.36-43.46,32.98
				c-19.36,2.62-31.59,19.24-24.35,35.61c7.24,16.37-5.62,21.74-4.87,39.48c0.75,17.74,12.86,21.99,11.36,32.98
				c-1.5,10.99-3.12,30.11,18.11,32.86s6.49,21.24,30.34,23.49C377.49,474.75,385.1,485.37,408.21,476z"/>
			<g>
				<g>
					<path class="st3" d="M455.22,494.61c-14.49-4.08-28.7-5.9-39.44-6.69c0,0,0.01,0,0.01-0.01c-3.57-11.17-4.6-22.75-4.41-34.76
						c-5,2.02-9.94,3.35-14.18,3.35c-3.99,0-8.6-1.18-13.3-3.01c-0.17,12.06-1.42,23.64-5.27,34.41c0,0,0,0,0,0
						c-10.75,0.79-25,2.61-39.52,6.7c-29.59,8.33-30.6,55.39-30.6,55.39h88.66h88.66C485.82,550,484.81,502.94,455.22,494.61z"/>
					<g>
						<path class="st4" d="M411.39,452.65c-5.01,2.02-9.94,3.36-14.19,3.36c-3.99,0-8.6-1.18-13.3-3c-0.01,1.2-0.04,2.39-0.08,3.58
							c5.37,2.26,10.7,3.79,15.24,3.79c3.71,0,7.94-1.02,12.29-2.62C411.35,456.06,411.36,454.36,411.39,452.65z"/>
						<g>
							<path class="st3" d="M446.17,399.57c-2.62,0.72-4.66,3.38-5.75,3.22c-2.5-0.37,1.66-6.63-4.35-14.81
								c-13.82-13.24-6.63-30.65-20.25-26.67c-9.88,2.89-18.11-14.12-25.22-7.5c-1.91,1.78-7.56,11.97-16.86,11.74
								c-10.24-0.25-14.74,5.75-16.11,19.61c-1.37,13.87,1.5,19.61-7.24,14.87c0,0,0,0,0,0v0.01c-0.4-0.19-0.83-0.34-1.29-0.47
								c-10.77-2.87-8.76,9.15-8.76,9.15s3.68,16.32,9.25,15.9c0.16-0.01,0.31-0.04,0.47-0.09c0,0,0,0,0,0s0.42-0.01,0.44,0.42
								c0,0,0,0,0,0c0.22,2.86,0.85,6.9,2.65,9.05c2.99,3.57,28.3,21.98,44.05,21.98c15.76,0,41.06-18.41,44.05-21.98
								c1.87-2.24,2.48-6.5,2.68-9.38c0,0,0,0,0,0c0.02-0.25,0.29-0.16,0.29-0.16l0,0c0.14,0.04,0.28,0.08,0.43,0.09
								c5.55,0.65,9.9-15.51,9.9-15.51S456.92,396.64,446.17,399.57z"/>
						</g>
					</g>
				</g>
				<path class="st5" d="M449.21,493.04c-2.64-0.64-5.25-1.21-7.82-1.71c-5.8,12.72-30.34,27.34-44.22,27.34
					c-14.35,0-38.42-14.62-44.22-27.34c-2.66,0.52-5.36,1.11-8.09,1.78c1.19,11.15,0.66,34.04-2.69,56.89h55h54.72
					C448.57,527.61,448.01,504.16,449.21,493.04z"/>
			</g>
		</g>
		<g>
			<g>
				<g>
					<path class="st6" d="M585.96,487.6c-2.39-11.45-2.31-23.36-1.39-35.76c-3.97,2.1-8.42,3.38-13.35,3.38
						c-4.46,0-8.51-1.01-12.16-2.71c0.4,12.25,0.21,24.11-2.39,35.18c-7.9,0.45-18.19,1.45-29.3,3.56
						c5.77,6.5,23.63,18.82,44.77,18.82c21.14,0,39-12.33,44.77-18.82C605,488.99,594.05,488.01,585.96,487.6z"/>
					<path class="st7" d="M571.21,456.18c-4.44,0-8.48-1.01-12.13-2.7c0.04,1.28,0.07,2.55,0.09,3.81
						c3.62,1.67,7.63,3.88,12.04,3.88c4.81,0,9.15-2.43,13.04-4.43c0.07-1.29,0.15-2.59,0.24-3.9
						C580.54,454.91,576.12,456.18,571.21,456.18z"/>
				</g>
				<g>
					<path class="st8" d="M633.83,355.52c-7.61-12.92-5.12-25.14-18.22-30.86c-8.47-3.7-13.45-7.69-16.92-10.06
						c3.58-2.66,6.61-6.69,7.22-12.82c1.67-16.68,1.19-30.86-8.22-34.32c-9.41-3.46-11.91-11.92-25.72-13.11
						c-13.81-1.19-24.41,1.55-34.3,10.72s-12.74,25.5-8.34,34.79c3.2,6.74,3.83,13.98,13.2,18.32c-6.18,2.98-12.94,8.62-21.14,19.09
						c-12.86,16.44-9.19,21.69-15.48,37.65c-5.9,14.95,3.42,30.48,18.34,35.77c-0.24-0.59-0.47-1.23-0.68-1.95
						c-1.91-6.76-1.92-13.75-0.02-16.25c0.52-0.69,1.14-1,2-1c0.85,0,2.33,0.32,4.65,1.79c1.12,4.7,2.69,7.08,4.66,7.08h0.06
						l0.1-0.01c2.11-0.14,2.46-2.47,3.1-6.71c0.31-2.07,1.04-6.9,1.97-7.62c0.38-0.06,0.82-0.09,1.37-0.09
						c0.39,0,0.78,0.01,1.18,0.03c0.44,0.01,0.87,0.03,1.31,0.03c2.53,0,5.41-0.49,7.62-4.09c0.83-1.36,2.41-2.81,4.34-2.81
						c1.69,0,3.44,1.14,5.06,3.31c0.75,1,2.25,2.19,5.15,2.19c4.47,0,10.22-2.77,14.11-5.36c0.06-0.04,0.13-0.07,0.26-0.07
						c1.1,0,3.18,1.68,4.86,3.03c1.48,1.2,3.02,2.44,4.5,3.13c1.04,0.49,2.32,0.72,4,0.72c1.38,0,2.85-0.16,4.27-0.3
						c1.3-0.14,2.53-0.27,3.57-0.27c1.62,0,1.95,0.33,1.98,0.37c0.64,0.75,1.01,4.35,1.23,6.51c0.47,4.63,0.85,8.29,3.64,8.29
						c0.15,0,0.31-0.01,0.46-0.04c2.21-0.42,2.49-2.88,2.74-5.04c0.11-0.92,0.22-1.94,0.46-2.87c2.33-1.56,3.81-1.89,4.65-1.89
						c0.79,0,1.36,0.29,1.85,0.93c1.89,2.48,1.89,9.5,0.02,16.33c-0.27,0.98-0.59,1.83-0.93,2.57c9.79-2.24,13.82-5.99,17.93-11.73
						C643.23,388.41,640.14,366.25,633.83,355.52z"/>
					<g>
						<path class="st9" d="M610.73,391.6L610.73,391.6l0-0.03c-1.01,3.14-0.46,7.02-2.04,7.32c-2.5,0.48-1.55-11.68-3.69-14.18
							c-2.14-2.5-10.6,0.83-14.41-0.95c-3.66-1.72-8.46-7.86-11.31-5.96c-6.31,4.21-14.41,6.91-16.91,3.57
							c-4.8-6.4-10-4.05-12.27-0.36c-2.9,4.73-6.91,2.74-10.36,3.34c-3.45,0.6-3.1,14.18-4.82,14.3c-1.73,0.12-3.16-6.31-3.16-6.31
							s-0.01-0.06-0.04-0.18v0.06c-12.61-8.51-12.6,7.11-9.8,17.01c2.73,9.67,9.47,8.37,9.81,8.3c0.37,1.19,12.39,38.65,39.48,38.65
							c26.83,0,39.11-37.75,39.51-38.99c0.01,0.01,0.01,0.01,0.01,0.01s6.94,1.24,9.67-8.69
							C623.13,398.58,623.13,382.88,610.73,391.6z"/>
					</g>
				</g>
			</g>
			<g>
				<g>
					<path class="st10" d="M616.88,491.25c-11.89-2.27-22.83-3.24-30.92-3.65c0,0,0,0,0,0
						C594.05,488.01,604.99,488.99,616.88,491.25z"/>
					<path class="st10" d="M556.66,487.69c-7.9,0.45-18.19,1.45-29.3,3.57C538.47,489.14,548.75,488.15,556.66,487.69
						C556.66,487.69,556.66,487.69,556.66,487.69z"/>
					<path class="st10" d="M631.4,494.61c-4.9-1.35-9.78-2.45-14.5-3.35c-5.77,6.5-23.63,18.82-44.77,18.82
						c-21.14,0-39-12.33-44.77-18.82c-4.72,0.9-9.6,2-14.5,3.35c-30.21,8.33-33.76,55.39-33.76,55.39h93.03h92.54
						C664.66,550,661.61,502.94,631.4,494.61z"/>
				</g>
				<g>
					<g>
						<path class="st11" d="M511.07,550h-1.65c-0.71-7.11-1.58-23.11-0.61-21.89c1.24,1.55,2.23,20.9,2.23,20.9
							C511.06,549.36,511.07,549.69,511.07,550z"/>
						<path class="st11" d="M634.44,550h-1.72v-0.02c0,0,0.99-19.35,2.23-20.9C635.88,527.91,635.13,542.51,634.44,550z"/>
					</g>
				</g>
			</g>
		</g>
		<g>
			<g>
				<path class="st12" d="M796.43,482.97c-17.21-4.76-35.41-7.16-48.51-8.37c0.04,0.11,0.07,0.22,0.11,0.32
					c0,0,2.8,18.23-18.35,18.23c-21.15,0-18.49-18.29-18.49-18.29c0.02-0.07,0.05-0.14,0.07-0.21c-12.43,1.22-29.69,3.63-46.64,8.32
					C632.8,491.76,624.93,550,624.93,550h208.85C833.78,550,828.25,491.76,796.43,482.97z"/>
				<g>
					<g>
						<g>
							<path class="st13" d="M800.95,550c1.17-6.54,2.75-23.9,1.12-22.8c-1.74,1.18-3.39,18.34-3.8,22.8H800.95z"/>
						</g>
						<g>
							<path class="st13" d="M659.68,550c-0.31-5.96-1.28-21.68-2.85-22.84c-1.58-1.17-0.72,16.26,0.18,22.84H659.68z"/>
						</g>
					</g>
				</g>
				<g>
					<path class="st14" d="M710.4,491.42c4.3,4.98,10.79,7.51,19.28,7.51c8.5,0,14.99-2.53,19.26-7.52
						c5.12-5.97,5.15-13.33,4.92-16.21c-2.07-0.23-4.06-0.42-5.94-0.6c0.04,0.11,0.07,0.22,0.11,0.32c0,0,2.8,18.23-18.35,18.23
						s-18.49-18.29-18.49-18.29c0.02-0.07,0.05-0.14,0.07-0.21c-1.87,0.18-3.84,0.39-5.91,0.64
						C705.16,478.25,705.3,485.51,710.4,491.42z"/>
					<path class="st15" d="M767.03,550h-75.34c7.6-12.9,21.62-21.55,37.67-21.55S759.43,537.1,767.03,550z"/>
				</g>
			</g>
			<g>
				<g>
					<path class="st6" d="M748.03,474.92c-2.62-7.3-3.86-14.91-4.41-22.75c-4.12,2.1-8.69,3.47-13.69,3.67v0.07
						c-5.3-0.21-10.12-1.74-14.43-4.06c-0.49,7.92-1.7,15.62-4.32,23.01c0,0-2.67,18.29,18.49,18.29
						C750.84,493.15,748.03,474.92,748.03,474.92z"/>
					<path class="st7" d="M729.61,456.16v0.07c-5.18-0.21-9.9-1.67-14.13-3.9c-0.09,1.31-0.19,2.61-0.32,3.91
						c4.81,2.98,10.32,5,16.47,5.24v-0.07c4.55-0.18,8.76-1.33,12.58-3.13c-0.24-1.97-0.43-3.96-0.57-5.96
						C739.43,454.51,734.74,455.95,729.61,456.16z"/>
				</g>
				<g>
					<g>
						<path class="st9" d="M775.3,378.37c-0.7,6.09-1.45,11.39-2.06,12.98c-1.2,3.1-1.83-12.44-6.31-23.64
							c-0.13-0.21-0.24-0.49-0.34-0.82c-0.67-1.58-1.42-3.05-2.27-4.36c-9.18,1.19-17.39-0.05-17.39-0.05s3.24,4.79-12.81,5.07
							c-16.04,0.28-40.25-3.66-40.25-3.66c-7.6,10.98-3.47,39.98-9.71,24.08c-1.42-3.61-2.87-7.03-4.32-10.26
							c-2.83,0.1-5.36,2.98-5.08,11.52c0.45,13.7,8.2,16.39,11.54,16.91l0,0.13l-0.03,0.03c0.18,7.32,4.16,14.22,5.46,17.9
							c3.55,10.04,17.06,31.19,37.88,32.02v-0.07c20.82-0.83,34.33-21.98,37.88-32.02c1.3-3.68,5.28-10.58,5.46-17.9l-0.03-0.03
							l-0.01-0.36c3.72-1.03,9.77-4.56,10.16-16.61C783.45,377.98,778.93,376.56,775.3,378.37z"/>
						<g>
							<path class="st16" d="M763.78,361.76c7.4,10.29,8.02,33.3,9.45,29.59c1.36-3.52,3.36-25.17,4.09-33.42
								C773.12,360.09,768.32,361.22,763.78,361.76z"/>
							<path class="st17" d="M673.04,335.18c0,0-11.26,3.66-7.74,12.39s11.68,22.1,18.86,40.41c6.24,15.9,2.11-13.09,9.71-24.08
								c0,0,24.2,3.94,40.25,3.66c16.04-0.28,12.81-5.07,12.81-5.07s18.58,2.82,31.1-4.08c12.52-6.9,17.73-18.58,15.62-20.84
								c-2.11-2.25-7.04-2.39-7.04-2.39s2.81-12.11-11.54-14.36c0,0-0.56-12.39-19.7-11.12c0,0,8.02-19.43-33.21-10.42
								c-41.23,9.01-42.36,21.68-42.36,21.68S663.76,318.28,673.04,335.18z"/>
						</g>
					</g>
				</g>
			</g>
		</g>
		<g>
			<g>
				<path class="st18" d="M283.73,487.18c-18.9-7.93-64.51-7.93-64.51-7.93s-1.33,13.42-18.4,13.42s-17.68-13.42-17.68-13.42
					s-45.11,0-65.23,7.93C95.57,495.99,86.22,550,86.22,550h114.61h113.39C314.21,550,305.88,496.47,283.73,487.18z"/>
				<g>
					<path class="st19" d="M272.23,550c1.18-6.54,2.76-23.9,1.12-22.8c-1.75,1.18-3.41,18.34-3.82,22.8H272.23z"/>
					<path class="st19" d="M130.13,550c-0.31-5.96-1.29-21.68-2.87-22.84c-1.59-1.17-0.73,16.26,0.18,22.84H130.13z"/>
				</g>
			</g>
			<g>
				<g>
					<path class="st6" d="M219.37,479.25c-2.15-6.88-3.2-14.01-3.69-21.32c-4.53,1.38-9.29,2.2-14.09,2.2
						c-5.07,0-10.1-0.91-14.85-2.44c-0.44,7.39-1.46,14.6-3.61,21.56c0,0,0,0,0,0c0,0,0.62,13.42,17.68,13.42
						C217.84,492.67,219.36,479.35,219.37,479.25C219.37,479.25,219.37,479.25,219.37,479.25z"/>
					<g>
						<path class="st9" d="M261.13,394.4c-4.28-4.86-7.85-3.92-10.32-1.84V370.1c-7.72,2.13-18.13-0.04-19.94-0.04
							c-2.69,0-13.72,6.08-18.67,2.55s-16.55-5.52-25.17-4.81c-8.63,0.71-18.38-8.77-24.75-4.81c-6.36,3.96-0.99,25.04-1.41,31.98
							c-0.42,6.93-6.08,13.44-6.51,13.44c-0.42,0-1.98-13.51-1.98-13.51l0,0c-2.23-3.09-6.7-7.02-12.44-0.5
							c-7.58,8.62,6.68,23.9,13.48,24.27c0.62,6.3,1.62,12.56,3.2,16.48c4.24,10.47,24.18,25.75,44.97,25.75
							s40.73-15.28,44.97-25.75c1.63-4.03,2.64-10.52,3.25-16.99C257.02,415.38,267.98,402.18,261.13,394.4z"/>
						<g>
							<path class="st20" d="M237.92,370.45c2.36,6.5,8.01,22.87,9.01,33.01l3.82-10.9c0,0,2.29-15.95,2.69-23.83
								C248.96,370.87,242.75,370.85,237.92,370.45z"/>
							<path class="st21" d="M152.33,394.9c0,0,1.56,13.51,1.98,13.51c0.42,0,6.08-6.51,6.51-13.44c0.42-6.93-4.95-28.01,1.41-31.98
								c6.36-3.96,16.12,5.52,24.75,4.81s20.22,1.27,25.17,4.81c4.95,3.54,15.98-2.55,18.67-2.55c2.69,0,24.46,4.81,28-6.93
								c3.54-11.74-4.67-16.27-4.67-16.27s10.46-22.35-6.51-32.54c-16.97-10.19-39.03,1.98-39.03,1.98s-18.67-7.5-29.41-1.98
								c-10.75,5.52-13.72,12.73-13.72,12.73s-16.4,1.56-19.09,17.12c0,0-7.35-0.85-6.79,8.35c0,0-5.68-1.35-1.84,11.18
								C140.19,371.62,152.33,394.9,152.33,394.9z"/>
						</g>
					</g>
				</g>
				<path class="st7" d="M201.35,460.9c-5,0-9.95-0.89-14.65-2.38c-0.09,1.37-0.2,2.73-0.33,4.08c5.75,2.26,11.99,3.68,18.31,3.68
					c3.95,0,7.87-0.55,11.65-1.52c-0.25-2.04-0.44-4.09-0.59-6.16C211.12,460.05,206.25,460.9,201.35,460.9z"/>
			</g>
		</g>
	</g>
</g>
<rect x="1286.72" y="184.04" class="st0" width="290" height="190.47"/>
<g>
	<g>
		<path class="st1" d="M1403.29,220.7c-23.61-3.14-44.35,2.08-48.65,26.65c-3.04,17.35,17.87,28.21,42.69,25.82
			c2.35-0.23,4.52-0.52,6.51-0.88c3.89,7.52,11.78,11.5,9.65,7.75c-2.06-3.62-2.08-7.26-1.69-9.77
			c12.03-4.17,14.59-11.45,16.4-17.85C1431.53,240.6,1426.9,223.85,1403.29,220.7z"/>
		<path class="st1" d="M1354.64,266.97c-5.27-20.53-21.15-22.87-37.61-19.5c-19.82,4.06-25.16,18.39-23.16,28.69
			c1.41,7.26,4.74,16.19,25.71,16.64c5.15,5.81,14.39,6.45,11.45,4.04c-1.34-1.1-2.44-2.84-3.27-4.47
			C1345.11,290.14,1357.88,279.6,1354.64,266.97z"/>
		<path class="st1" d="M1472.9,217.78c-21.92-2.92-38.82,2.46-39.15,25.63c-0.2,14.41,11.44,21.48,28.18,23.42
			c0.75,2.61,1.57,5.71,1.99,8.16c0.6,3.51,2.1-2.73,3.48-7.71c1.95,0.1,3.95,0.13,5.99,0.11c23.15-0.22,26.37-8.41,28.66-19.26
			C1504.4,236.95,1494.82,220.7,1472.9,217.78z"/>
		<path class="st1" d="M1541.93,236.96c-19.77-2.63-33.47,3.59-37.08,24.17c-2.1,11.99,11.31,20.48,27.73,21.97
			c0.31,1.96,0.06,4.28-1.44,6.81c-1.14,1.92,4.6-0.14,6.04-6.58c2.04,0.02,4.1-0.07,6.17-0.27c20.79-2.01,21.11-10.64,23.1-17.68
			C1569.26,255.48,1561.71,239.59,1541.93,236.96z"/>
	</g>
	<g>
		<g>
			<path class="st2" d="M1415.39,351.2c1.44-0.59,3.9,0.83,10-2.4c6.1-3.23,12.32-0.87,13.38-6.22c1.06-5.32-0.71-6.18,2.83-9.17
				c4.14-3.5,3.27-10.75,0.87-15.27c-2.4-4.53,1.93-8.11,0-11.81c-1.93-3.7-7.91-2.36-9.57-6.93c-1.65-4.57-4.13-11.77-13.58-10.55
				c-9.45,1.22-11.26-1.65-17.08-0.94c-5.83,0.71-7.6,9.57-13.7,10.39c-6.1,0.83-9.96,6.06-7.68,11.22s-1.77,6.85-1.54,12.44
				c0.24,5.59,4.05,6.93,3.58,10.39c-0.47,3.46-0.98,9.49,5.71,10.35c6.69,0.87,2.05,6.69,9.56,7.4S1408.11,354.15,1415.39,351.2z"
				/>
			<g>
				<g>
					<path class="st3" d="M1430.21,357.06c-4.57-1.28-9.05-1.86-12.43-2.11c0,0,0,0,0,0c-1.13-3.52-1.45-7.17-1.39-10.95
						c-1.58,0.64-3.13,1.06-4.47,1.06c-1.26,0-2.71-0.37-4.19-0.95c-0.05,3.8-0.45,7.45-1.66,10.84c0,0,0,0,0,0
						c-3.39,0.25-7.88,0.82-12.46,2.11c-9.33,2.62-9.65,17.45-9.65,17.45h27.95h27.95C1439.86,374.51,1439.54,359.69,1430.21,357.06
						z"/>
					<g>
						<path class="st4" d="M1416.4,343.84c-1.58,0.64-3.13,1.06-4.47,1.06c-1.26,0-2.71-0.37-4.19-0.95c0,0.38-0.01,0.75-0.02,1.13
							c1.69,0.71,3.37,1.2,4.81,1.2c1.17,0,2.5-0.32,3.88-0.83C1416.38,344.92,1416.39,344.38,1416.4,343.84z"/>
						<g>
							<path class="st3" d="M1427.36,327.12c-0.83,0.23-1.47,1.06-1.81,1.01c-0.79-0.12,0.52-2.09-1.37-4.67
								c-4.36-4.17-2.09-9.66-6.38-8.4c-3.12,0.91-5.71-4.45-7.95-2.36c-0.6,0.56-2.38,3.77-5.31,3.7
								c-3.23-0.08-4.64,1.81-5.08,6.18c-0.43,4.37,0.47,6.18-2.28,4.68c0,0,0,0,0,0v0c-0.13-0.06-0.26-0.11-0.41-0.15
								c-3.4-0.91-2.76,2.88-2.76,2.88s1.16,5.14,2.92,5.01c0.05,0,0.1-0.01,0.15-0.03c0,0,0,0,0,0s0.13,0,0.14,0.13c0,0,0,0,0,0
								c0.07,0.9,0.27,2.17,0.84,2.85c0.94,1.12,8.92,6.93,13.89,6.93c4.97,0,12.94-5.8,13.89-6.93c0.59-0.7,0.78-2.05,0.84-2.95
								c0,0,0,0,0,0c0.01-0.08,0.09-0.05,0.09-0.05l0,0c0.04,0.01,0.09,0.02,0.13,0.03c1.75,0.2,3.12-4.89,3.12-4.89
								S1430.75,326.19,1427.36,327.12z"/>
						</g>
					</g>
				</g>
				<path class="st5" d="M1428.32,356.57c-0.83-0.2-1.66-0.38-2.47-0.54c-1.83,4.01-9.56,8.61-13.94,8.61
					c-4.52,0-12.11-4.61-13.94-8.61c-0.84,0.16-1.69,0.35-2.55,0.56c0.38,3.51,0.21,10.72-0.85,17.93h17.34h17.25
					C1428.12,367.46,1427.94,360.07,1428.32,356.57z"/>
			</g>
		</g>
		<g>
			<g>
				<g>
					<path class="st6" d="M1471.42,354.85c-0.75-3.61-0.73-7.36-0.44-11.27c-1.25,0.66-2.65,1.06-4.21,1.06
						c-1.41,0-2.68-0.32-3.83-0.86c0.13,3.86,0.07,7.6-0.75,11.09c-2.49,0.14-5.73,0.46-9.24,1.12c1.82,2.05,7.45,5.93,14.11,5.93
						s12.29-3.88,14.11-5.93C1477.43,355.29,1473.98,354.98,1471.42,354.85z"/>
					<path class="st7" d="M1466.78,344.95c-1.4,0-2.67-0.32-3.82-0.85c0.01,0.4,0.02,0.8,0.03,1.2c1.14,0.52,2.41,1.22,3.8,1.22
						c1.52,0,2.88-0.77,4.11-1.4c0.02-0.41,0.05-0.82,0.08-1.23C1469.72,344.55,1468.32,344.95,1466.78,344.95z"/>
				</g>
				<g>
					<path class="st8" d="M1486.51,313.24c-2.4-4.07-1.61-7.92-5.74-9.72c-2.67-1.17-4.24-2.42-5.33-3.17
						c1.13-0.84,2.08-2.11,2.28-4.04c0.53-5.26,0.38-9.72-2.59-10.81c-2.97-1.09-3.75-3.75-8.11-4.13
						c-4.35-0.38-7.7,0.49-10.81,3.38c-3.12,2.89-4.02,8.03-2.63,10.96c1.01,2.12,1.21,4.41,4.16,5.77
						c-1.95,0.94-4.08,2.72-6.66,6.02c-4.05,5.18-2.9,6.83-4.88,11.86c-1.86,4.71,1.08,9.6,5.78,11.27
						c-0.08-0.18-0.15-0.39-0.21-0.61c-0.6-2.13-0.6-4.33-0.01-5.12c0.16-0.22,0.36-0.31,0.63-0.31c0.27,0,0.73,0.1,1.46,0.57
						c0.35,1.48,0.85,2.23,1.47,2.23h0.02l0.03,0c0.66-0.04,0.78-0.78,0.98-2.11c0.1-0.65,0.33-2.17,0.62-2.4
						c0.12-0.02,0.26-0.03,0.43-0.03c0.12,0,0.25,0,0.37,0.01c0.14,0,0.28,0.01,0.41,0.01c0.8,0,1.71-0.15,2.4-1.29
						c0.26-0.43,0.76-0.89,1.37-0.89c0.53,0,1.09,0.36,1.6,1.04c0.24,0.31,0.71,0.69,1.62,0.69c1.41,0,3.22-0.87,4.45-1.69
						c0.02-0.01,0.04-0.02,0.08-0.02c0.35,0,1,0.53,1.53,0.95c0.47,0.38,0.95,0.77,1.42,0.99c0.33,0.15,0.73,0.23,1.26,0.23
						c0.44,0,0.9-0.05,1.35-0.1c0.41-0.04,0.8-0.08,1.13-0.08c0.51,0,0.61,0.1,0.62,0.12c0.2,0.23,0.32,1.37,0.39,2.05
						c0.15,1.46,0.27,2.61,1.15,2.61c0.05,0,0.1,0,0.15-0.01c0.7-0.13,0.78-0.91,0.86-1.59c0.03-0.29,0.07-0.61,0.14-0.9
						c0.74-0.49,1.2-0.6,1.46-0.6c0.25,0,0.43,0.09,0.58,0.29c0.59,0.78,0.6,2.99,0.01,5.15c-0.09,0.31-0.18,0.58-0.29,0.81
						c3.08-0.7,4.36-1.89,5.65-3.7C1489.48,323.6,1488.5,316.62,1486.51,313.24z"/>
					<g>
						<path class="st9" d="M1479.23,324.61L1479.23,324.61v-0.01c-0.32,0.99-0.15,2.21-0.64,2.31c-0.79,0.15-0.49-3.68-1.16-4.47
							c-0.68-0.79-3.34,0.26-4.54-0.3c-1.15-0.54-2.67-2.48-3.57-1.88c-1.99,1.33-4.54,2.18-5.33,1.13
							c-1.51-2.02-3.15-1.28-3.87-0.11c-0.91,1.49-2.18,0.86-3.27,1.05c-1.09,0.19-0.98,4.47-1.52,4.5
							c-0.54,0.04-0.99-1.99-0.99-1.99s0-0.02-0.01-0.06v0.02c-3.97-2.68-3.97,2.24-3.09,5.36c0.86,3.05,2.98,2.64,3.09,2.61
							c0.12,0.37,3.91,12.18,12.44,12.18c8.46,0,12.33-11.89,12.45-12.28c0,0,0,0,0,0s2.19,0.39,3.05-2.74
							S1483.14,321.86,1479.23,324.61z"/>
					</g>
				</g>
			</g>
			<g>
				<g>
					<path class="st10" d="M1481.17,356c-3.75-0.71-7.2-1.02-9.75-1.15c0,0,0,0,0,0C1473.97,354.98,1477.42,355.29,1481.17,356z"/>
					<path class="st10" d="M1462.19,354.88c-2.49,0.14-5.73,0.46-9.24,1.12C1456.46,355.34,1459.7,355.02,1462.19,354.88
						C1462.19,354.88,1462.19,354.88,1462.19,354.88z"/>
					<path class="st10" d="M1485.75,357.06c-1.55-0.43-3.08-0.77-4.57-1.06c-1.82,2.05-7.45,5.93-14.11,5.93s-12.29-3.88-14.11-5.93
						c-1.49,0.28-3.02,0.63-4.57,1.06c-9.52,2.62-10.64,17.45-10.64,17.45h29.33h29.17
						C1496.23,374.51,1495.27,359.69,1485.75,357.06z"/>
				</g>
				<g>
					<g>
						<path class="st11" d="M1447.82,374.51h-0.52c-0.22-2.24-0.5-7.28-0.19-6.9c0.39,0.49,0.7,6.58,0.7,6.58
							C1447.81,374.31,1447.82,374.42,1447.82,374.51z"/>
						<path class="st11" d="M1486.71,374.51h-0.54v-0.01c0,0,0.31-6.1,0.7-6.58C1487.16,367.55,1486.92,372.15,1486.71,374.51z"/>
					</g>
				</g>
			</g>
		</g>
		<g>
			<g>
				<path class="st12" d="M1537.77,353.39c-5.42-1.5-11.16-2.26-15.29-2.64c0.01,0.03,0.02,0.07,0.03,0.1c0,0,0.88,5.74-5.78,5.74
					s-5.83-5.76-5.83-5.76c0.01-0.02,0.01-0.04,0.02-0.07c-3.92,0.39-9.36,1.14-14.7,2.62c-10.03,2.77-12.51,21.12-12.51,21.12
					h65.83C1549.54,374.51,1547.8,356.16,1537.77,353.39z"/>
				<g>
					<g>
						<g>
							<path class="st13" d="M1539.19,374.51c0.37-2.06,0.87-7.53,0.35-7.18c-0.55,0.37-1.07,5.78-1.2,7.18H1539.19z"/>
						</g>
						<g>
							<path class="st13" d="M1494.66,374.51c-0.1-1.88-0.4-6.83-0.9-7.2c-0.5-0.37-0.23,5.12,0.06,7.2H1494.66z"/>
						</g>
					</g>
				</g>
				<g>
					<path class="st14" d="M1510.65,356.06c1.36,1.57,3.4,2.37,6.08,2.37c2.68,0,4.72-0.8,6.07-2.37c1.61-1.88,1.62-4.2,1.55-5.11
						c-0.65-0.07-1.28-0.13-1.87-0.19c0.01,0.03,0.02,0.07,0.03,0.1c0,0,0.88,5.74-5.78,5.74s-5.83-5.76-5.83-5.76
						c0.01-0.02,0.01-0.04,0.02-0.07c-0.59,0.06-1.21,0.12-1.86,0.2C1509,351.91,1509.04,354.19,1510.65,356.06z"/>
					<path class="st15" d="M1528.5,374.51h-23.75c2.4-4.06,6.82-6.79,11.87-6.79C1521.68,367.72,1526.11,370.45,1528.5,374.51z"/>
				</g>
			</g>
			<g>
				<g>
					<path class="st6" d="M1522.51,350.86c-0.83-2.3-1.22-4.7-1.39-7.17c-1.3,0.66-2.74,1.09-4.31,1.16v0.02
						c-1.67-0.07-3.19-0.55-4.55-1.28c-0.16,2.49-0.54,4.92-1.36,7.25c0,0-0.84,5.76,5.83,5.76S1522.51,350.86,1522.51,350.86z"/>
					<path class="st7" d="M1516.71,344.95v0.02c-1.63-0.07-3.12-0.53-4.45-1.23c-0.03,0.41-0.06,0.82-0.1,1.23
						c1.51,0.94,3.25,1.58,5.19,1.65v-0.02c1.44-0.06,2.76-0.42,3.97-0.99c-0.08-0.62-0.14-1.25-0.18-1.88
						C1519.8,344.43,1518.32,344.88,1516.71,344.95z"/>
				</g>
				<g>
					<g>
						<path class="st9" d="M1531.11,320.44c-0.22,1.92-0.46,3.59-0.65,4.09c-0.38,0.98-0.58-3.92-1.99-7.45
							c-0.04-0.07-0.08-0.15-0.11-0.26c-0.21-0.5-0.45-0.96-0.72-1.37c-2.89,0.38-5.48-0.02-5.48-0.02s1.02,1.51-4.04,1.6
							c-5.06,0.09-12.69-1.15-12.69-1.15c-2.4,3.46-1.1,12.6-3.06,7.59c-0.45-1.14-0.9-2.21-1.36-3.23
							c-0.89,0.03-1.69,0.94-1.6,3.63c0.14,4.32,2.59,5.16,3.64,5.33l0,0.04l-0.01,0.01c0.06,2.31,1.31,4.48,1.72,5.64
							c1.12,3.16,5.38,9.83,11.94,10.09v-0.02c6.56-0.26,10.82-6.92,11.94-10.09c0.41-1.16,1.67-3.33,1.72-5.64l-0.01-0.01l0-0.11
							c1.17-0.32,3.08-1.44,3.2-5.23C1533.68,320.31,1532.25,319.87,1531.11,320.44z"/>
						<g>
							<path class="st16" d="M1527.48,315.21c2.33,3.24,2.53,10.49,2.98,9.32c0.43-1.11,1.06-7.93,1.29-10.53
								C1530.42,314.68,1528.91,315.03,1527.48,315.21z"/>
							<path class="st17" d="M1498.87,306.83c0,0-3.55,1.15-2.44,3.9c1.11,2.75,3.68,6.96,5.94,12.73c1.97,5.01,0.67-4.13,3.06-7.59
								c0,0,7.63,1.24,12.69,1.15c5.06-0.09,4.04-1.6,4.04-1.6s5.86,0.89,9.8-1.29c3.95-2.17,5.59-5.86,4.92-6.56
								c-0.67-0.71-2.22-0.75-2.22-0.75s0.89-3.81-3.64-4.52c0,0-0.18-3.9-6.21-3.5c0,0,2.53-6.12-10.47-3.28
								s-13.35,6.83-13.35,6.83S1495.95,301.51,1498.87,306.83z"/>
						</g>
					</g>
				</g>
			</g>
		</g>
		<g>
			<g>
				<path class="st18" d="M1376.16,354.72c-5.96-2.5-20.33-2.5-20.33-2.5s-0.42,4.23-5.8,4.23s-5.57-4.23-5.57-4.23
					s-14.22,0-20.56,2.5c-7.04,2.77-9.99,19.79-9.99,19.79h36.13h35.74C1385.77,374.51,1383.14,357.65,1376.16,354.72z"/>
				<g>
					<path class="st19" d="M1372.53,374.51c0.37-2.06,0.87-7.53,0.35-7.18c-0.55,0.37-1.08,5.78-1.2,7.18H1372.53z"/>
					<path class="st19" d="M1327.74,374.51c-0.1-1.88-0.41-6.83-0.9-7.2c-0.5-0.37-0.23,5.12,0.06,7.2H1327.74z"/>
				</g>
			</g>
			<g>
				<g>
					<path class="st6" d="M1355.87,352.22c-0.68-2.17-1.01-4.41-1.16-6.72c-1.43,0.44-2.93,0.69-4.44,0.69
						c-1.6,0-3.18-0.29-4.68-0.77c-0.14,2.33-0.46,4.6-1.14,6.79c0,0,0,0,0,0c0,0,0.19,4.23,5.57,4.23
						C1355.39,356.45,1355.87,352.25,1355.87,352.22C1355.87,352.22,1355.87,352.22,1355.87,352.22z"/>
					<g>
						<path class="st9" d="M1369.03,325.49c-1.35-1.53-2.48-1.23-3.25-0.58v-7.08c-2.43,0.67-5.72-0.01-6.29-0.01
							c-0.85,0-4.32,1.92-5.88,0.8c-1.56-1.11-5.22-1.74-7.93-1.52s-5.79-2.76-7.8-1.52c-2.01,1.25-0.31,7.89-0.45,10.07
							c-0.13,2.18-1.92,4.23-2.05,4.23c-0.13,0-0.62-4.26-0.62-4.26l0,0c-0.7-0.97-2.11-2.21-3.92-0.16
							c-2.39,2.71,2.11,7.53,4.25,7.65c0.2,1.98,0.51,3.96,1.01,5.19c1.34,3.3,7.62,8.11,14.18,8.11c6.55,0,12.84-4.81,14.18-8.11
							c0.51-1.27,0.83-3.32,1.03-5.35C1367.74,332.1,1371.19,327.94,1369.03,325.49z"/>
						<g>
							<path class="st20" d="M1361.72,317.94c0.74,2.05,2.52,7.2,2.84,10.4l1.2-3.43c0,0,0.72-5.02,0.85-7.51
								C1365.2,318.07,1363.24,318.07,1361.72,317.94z"/>
							<path class="st21" d="M1334.74,325.65c0,0,0.49,4.26,0.62,4.26c0.13,0,1.92-2.05,2.05-4.23c0.13-2.18-1.56-8.83,0.45-10.07
								c2.01-1.25,5.08,1.74,7.8,1.52s6.37,0.4,7.93,1.52c1.56,1.11,5.04-0.8,5.88-0.8c0.85,0,7.71,1.52,8.83-2.18
								c1.11-3.7-1.47-5.13-1.47-5.13s3.3-7.04-2.05-10.25c-5.35-3.21-12.3,0.62-12.3,0.62s-5.88-2.36-9.27-0.62
								c-3.39,1.74-4.32,4.01-4.32,4.01s-5.17,0.49-6.02,5.39c0,0-2.32-0.27-2.14,2.63c0,0-1.79-0.43-0.58,3.52
								C1330.91,318.31,1334.74,325.65,1334.74,325.65z"/>
						</g>
					</g>
				</g>
				<path class="st7" d="M1350.19,346.44c-1.58,0-3.14-0.28-4.62-0.75c-0.03,0.43-0.06,0.86-0.11,1.29
					c1.81,0.71,3.78,1.16,5.77,1.16c1.24,0,2.48-0.17,3.67-0.48c-0.08-0.64-0.14-1.29-0.19-1.94
					C1353.27,346.17,1351.73,346.44,1350.19,346.44z"/>
			</g>
		</g>
	</g>
</g>
</svg>
