<?xml version="1.0" encoding="utf-8"?>
<!-- Generator: Adobe Illustrator 26.1.0, SVG Export Plug-In . SVG Version: 6.00 Build 0)  -->
<svg version="1.1" xmlns="http://www.w3.org/2000/svg" xmlns:xlink="http://www.w3.org/1999/xlink" x="0px" y="0px"
	 viewBox="0 0 920 275" style="enable-background:new 0 0 920 275;" xml:space="preserve">
<style type="text/css">
	.st0{fill:none;}
	.st1{fill:#666666;}
	.st2{font-family:'Barlow-Regular';}
	.st3{font-size:12.5147px;}
	.st4{fill:#B3B3B3;}
	.st5{fill:#EFF1F2;}
	.st6{fill:#D8E0E3;}
	.st7{fill:#FFFFFF;}
	.st8{fill:#51BC00;}
	.st9{fill:#FEFEFE;}
	.st10{fill:#FBFBFB;}
	.st11{fill:#0092A7;}
	.st12{fill:#845CBC;}
	.st13{fill:#FF7900;}
	.st14{fill:#FDFDFD;}
	.st15{fill:#FCFCFC;}
	.st16{fill:#FFA200;}
	.st17{fill:#464646;}
	.st18{fill:#CCCCCC;}
</style>
<g id="Camada_2">
	<rect x="759.88" y="187.51" class="st0" width="156.79" height="114.01"/>
	<text transform="matrix(1 0 0 1 772.5225 196.2664)"><tspan x="0" y="0" class="st1 st2 st3">Reações inadequadas </tspan><tspan x="18.35" y="15.02" class="st1 st2 st3">frente a alguma </tspan><tspan x="8.53" y="30.04" class="st1 st2 st3">adversidade, como </tspan><tspan x="-7.85" y="45.05" class="st1 st2 st3">choros, gritos, risadas e </tspan><tspan x="2.38" y="60.07" class="st1 st2 st3">até comportamentos </tspan><tspan x="-7.62" y="75.09" class="st1 st2 st3">auto e heteroagressivos</tspan></text>
	<g>
		<path class="st4" d="M915.8,86.89c-0.48,0-0.87-0.39-0.87-0.87V21.69c0-8.4-6.83-15.23-15.22-15.23h-64.75
			c-0.48,0-0.87-0.39-0.87-0.87s0.39-0.87,0.87-0.87h64.75c9.36,0,16.97,7.62,16.97,16.98v64.32
			C916.68,86.5,916.28,86.89,915.8,86.89z"/>
	</g>
	<g>
		<path class="st4" d="M835.4,167.31h-64.3c-9.36,0-16.97-7.62-16.97-16.98V86.02c0-0.48,0.39-0.87,0.87-0.87
			c0.48,0,0.87,0.39,0.87,0.87v64.32c0,8.4,6.83,15.23,15.22,15.23h64.3c0.48,0,0.87,0.39,0.87,0.87
			C836.28,166.92,835.88,167.31,835.4,167.31z"/>
	</g>
	<path class="st5" d="M894.73,157.08H775.87c-6.47,0-11.71-5.24-11.71-11.71V26.47c0-6.47,5.24-11.71,11.71-11.71h118.86
		c6.47,0,11.71,5.24,11.71,11.71v118.9C906.44,151.83,901.2,157.08,894.73,157.08z"/>
	<path class="st6" d="M889.59,146.13H782.34c-3.26,0-5.91-2.65-5.91-5.91V32.94c0-3.26,2.65-5.91,5.91-5.91h107.25
		c3.26,0,5.91,2.65,5.91,5.91v107.28C895.5,143.49,892.85,146.13,889.59,146.13z"/>
	<path class="st7" d="M888.92,145.47H781.68c-3.26,0-5.91-2.65-5.91-5.91V32.27c0-3.26,2.65-5.91,5.91-5.91h107.25
		c3.26,0,5.91,2.65,5.91,5.91v107.28C894.83,142.82,892.19,145.47,888.92,145.47z"/>
	<g>
		<path class="st8" d="M899.7,169.77h-64.3c-1.84,0-3.33-1.49-3.33-3.33c0-1.84,1.49-3.33,3.33-3.33h64.3
			c7.04,0,12.77-5.73,12.77-12.77V86.02c0-1.84,1.49-3.33,3.33-3.33s3.33,1.49,3.33,3.33v64.32
			C919.13,161.05,910.41,169.77,899.7,169.77z"/>
	</g>
	<g>
		<path class="st8" d="M755,89.34c-1.84,0-3.33-1.49-3.33-3.33V21.69c0-10.71,8.71-19.43,19.43-19.43h63.85
			c1.84,0,3.33,1.49,3.33,3.33s-1.49,3.33-3.33,3.33H771.1c-7.04,0-12.77,5.73-12.77,12.77v64.32
			C758.33,87.85,756.84,89.34,755,89.34z"/>
	</g>
	<g>
		<path class="st9" d="M799.89,117.67c0-22.97,0-45.94,0-68.9c23.79,0,47.57,0,71.36-0.01c0.53,0,0.65,0.12,0.64,0.64
			c-0.02,23.58-0.02,47.15,0,70.73c0,0.53-0.12,0.65-0.64,0.64c-22.76-0.02-45.52-0.01-68.27-0.01c-0.04-0.22,0.14-0.27,0.28-0.34
			c3.2-1.65,6.34-3.41,9.51-5.11c3.81-2.05,7.62-4.09,11.41-6.18c0.59-0.33,1.21-0.61,1.8-0.96c0.62-0.37,0.79-0.32,1.21,0.29
			c1.33,1.9,2.61,3.82,3.91,5.74c0.97,1.43,1.94,2.86,2.92,4.29c1.23,1.8,3.03,1.83,4.28,0.04c2.29-3.28,4.5-6.61,6.75-9.91
			c0.68-1,0.74-1.02,1.9-0.8c3.98,0.74,7.95,1.52,11.92,2.27c1.94,0.37,3.27-0.93,2.92-2.88c-0.72-3.96-1.48-7.91-2.25-11.85
			c-0.25-1.27-0.24-1.31,0.81-2.02c3.1-2.09,6.18-4.22,9.29-6.29c0.47-0.31,0.92-0.64,1.31-1.05c0.81-0.85,0.83-2.11,0.05-2.99
			c-0.28-0.31-0.59-0.59-0.95-0.83c-3.27-2.17-6.49-4.43-9.76-6.6c-0.96-0.63-0.99-0.73-0.78-1.84c0.76-4,1.56-7.99,2.28-11.99
			c0.34-1.91-0.96-3.22-2.86-2.89c-1.68,0.29-3.35,0.63-5.03,0.95c-0.14,0.03-0.28,0.05-0.41,0.09c-0.55,0.17-0.84,0.56-0.74,1.02
			c0.09,0.45,0.52,0.73,1.08,0.65c1.53-0.23,3.03-0.58,4.55-0.84c0.28-0.05,0.55-0.12,0.83-0.16c0.68-0.08,0.98,0.2,0.87,0.89
			c-0.13,0.81-0.29,1.61-0.45,2.41c-0.69,3.56-1.36,7.12-2.05,10.68c-0.2,1.05-0.13,1.24,0.8,1.86c3.41,2.26,6.76,4.61,10.17,6.88
			c0.27,0.18,0.54,0.37,0.79,0.58c0.55,0.46,0.55,0.82-0.02,1.24c-0.55,0.4-1.1,0.79-1.66,1.17c-3.11,2.08-6.19,4.21-9.29,6.29
			c-0.93,0.63-0.99,0.79-0.77,1.93c0.83,4.25,1.63,8.5,2.44,12.75c0.19,1.02-0.09,1.3-1.12,1.1c-4.31-0.85-8.63-1.67-12.95-2.49
			c-0.75-0.14-1.23,0.09-1.65,0.71c-2.4,3.6-4.84,7.17-7.29,10.74c-0.08,0.12-0.15,0.23-0.24,0.34c-0.45,0.55-0.82,0.57-1.24-0.01
			c-0.64-0.89-1.26-1.8-1.87-2.71c-1.88-2.79-3.78-5.57-5.67-8.36c-0.58-0.86-0.98-0.96-1.88-0.47c-5.41,2.97-10.86,5.87-16.28,8.82
			c-2.28,1.24-4.56,2.48-6.86,3.68c-0.32,0.17-0.65,0.34-0.96,0.02c-0.3-0.32-0.12-0.65,0.05-0.97c2.52-4.72,5.08-9.42,7.63-14.13
			c1.62-3,3.24-6.01,4.87-9.01c0.47-0.87,0.37-1.28-0.44-1.83c-0.93-0.62-1.83-1.3-2.78-1.9c-0.2-0.13-0.39-0.27-0.61-0.34
			c-0.42-0.12-0.8-0.05-1.04,0.34c-0.24,0.38-0.12,0.72,0.17,1.01c0.42,0.42,0.94,0.7,1.4,1.05c0.28,0.21,0.58,0.39,0.87,0.59
			c0.68,0.47,0.7,0.6,0.32,1.31c-2.15,3.99-4.31,7.98-6.46,11.97c-1.91,3.56-3.87,7.1-5.75,10.68
			C800.16,117.53,800.11,117.72,799.89,117.67z"/>
		<path class="st4" d="M799.89,117.67c4.04-7.51,8.08-15.02,12.13-22.53c0.63-1.16,0.63-1.16-0.47-1.9
			c-0.56-0.38-1.13-0.75-1.68-1.15c-0.57-0.42-0.69-1.01-0.32-1.52c0.34-0.47,0.93-0.58,1.49-0.22c1.15,0.76,2.29,1.54,3.42,2.32
			c0.7,0.49,0.78,0.92,0.34,1.74c-2.56,4.74-5.12,9.48-7.67,14.22c-1.62,3-3.24,5.99-4.85,8.99c-0.14,0.26-0.47,0.54-0.14,0.87
			c0.33,0.34,0.61,0.02,0.87-0.13c7.68-4.14,15.35-8.28,23.02-12.42c1.11-0.6,1.43-0.52,2.13,0.51c2.47,3.63,4.93,7.26,7.4,10.89
			c0.53,0.79,0.7,0.79,1.23,0.01c2.49-3.67,5-7.33,7.47-11.02c0.45-0.67,0.95-0.84,1.72-0.69c4.42,0.87,8.84,1.71,13.27,2.55
			c0.59,0.11,0.79-0.09,0.68-0.69c-0.85-4.45-1.7-8.9-2.57-13.34c-0.14-0.72,0.04-1.19,0.65-1.6c3.7-2.49,7.39-5,11.07-7.51
			c0.78-0.53,0.78-0.68-0.02-1.23c-3.65-2.48-7.29-4.97-10.96-7.43c-0.68-0.46-0.89-0.95-0.72-1.76c0.87-4.4,1.7-8.8,2.54-13.2
			c0.12-0.65-0.06-0.85-0.69-0.73c-1.74,0.33-3.48,0.67-5.23,1.01c-0.8,0.16-1.36-0.13-1.48-0.76c-0.13-0.67,0.23-1.13,1.04-1.28
			c1.81-0.35,3.62-0.71,5.43-1.06c1.87-0.36,3.39,1.17,3.03,3.05c-0.81,4.19-1.6,8.39-2.43,12.58c-0.09,0.46,0.07,0.66,0.42,0.9
			c3.41,2.3,6.81,4.6,10.2,6.92c2.09,1.42,2.1,3.35,0.02,4.76c-3.4,2.31-6.79,4.63-10.2,6.92c-0.42,0.28-0.5,0.53-0.4,1.03
			c0.82,4.17,1.62,8.34,2.41,12.51c0.35,1.84-1.18,3.35-3.01,3c-4.19-0.8-8.39-1.6-12.58-2.42c-0.48-0.09-0.7,0.06-0.96,0.44
			c-2.32,3.45-4.66,6.88-7,10.32c-1.29,1.89-3.29,1.9-4.56,0.03c-2.3-3.38-4.6-6.75-6.87-10.15c-0.28-0.42-0.47-0.47-0.91-0.23
			c-7.36,3.99-14.72,7.97-22.09,11.94c-0.34,0.19-0.7,0.35-1.05,0.53c-0.37,0-0.75,0-1.12,0c-1.08-0.15-1.73-0.77-1.96-1.82
			C799.89,118.52,799.89,118.1,799.89,117.67z"/>
		<path class="st10" d="M799.89,118.94c0.45,0.83,1.04,1.51,1.96,1.82c-0.05,0-0.09,0-0.14,0c-0.61,0-1.45,0.24-1.76-0.07
			C799.65,120.39,799.89,119.55,799.89,118.94z"/>
		<path class="st4" d="M813.02,58.59c1.2,0.23,2.62,0.49,4.04,0.76c3,0.58,6.01,1.15,9.01,1.74c0.42,0.08,0.58-0.12,0.77-0.41
			c2.33-3.44,4.67-6.88,7.01-10.32c1.34-1.97,3.31-1.98,4.64-0.02c2.33,3.42,4.66,6.83,6.96,10.26c0.3,0.44,0.57,0.56,1.08,0.42
			c0.65-0.18,1.33-0.27,2-0.37c0.67-0.1,1.14,0.23,1.26,0.82c0.12,0.57-0.21,1.07-0.88,1.22c-1.09,0.24-2.2,0.44-3.3,0.65
			c-0.62,0.12-0.99-0.22-1.32-0.7c-2.47-3.66-4.95-7.31-7.43-10.96c-0.63-0.93-0.73-0.93-1.34-0.02c-2.47,3.63-4.95,7.26-7.39,10.9
			c-0.46,0.68-0.96,0.88-1.77,0.71c-4.4-0.87-8.8-1.7-13.2-2.54c-0.65-0.12-0.83,0.06-0.71,0.7c0.85,4.42,1.69,8.85,2.55,13.27
			c0.14,0.74-0.03,1.23-0.67,1.66c-3.7,2.49-7.39,5-11.08,7.5c-0.74,0.5-0.74,0.67,0.01,1.19c1.14,0.78,2.28,1.54,3.42,2.32
			c0.78,0.53,0.97,1.12,0.56,1.68c-0.39,0.54-1,0.57-1.73,0.07c-1.2-0.81-2.39-1.63-3.59-2.45c-1.77-1.21-1.78-3.23-0.02-4.43
			c3.47-2.37,6.94-4.74,10.43-7.08c0.42-0.28,0.5-0.55,0.41-1.03c-0.82-4.19-1.63-8.39-2.42-12.58
			C810.03,60.02,811.22,58.6,813.02,58.59z"/>
		<path class="st4" d="M835.82,67.65c0.93,0,1.87-0.01,2.8,0c1.65,0.03,2.66,1.11,2.55,2.74c-0.05,0.77-0.12,1.54-0.22,2.3
			c-0.1,0.77-0.55,1.14-1.21,1.06c-0.61-0.07-0.93-0.53-0.87-1.28c0.05-0.72,0.12-1.44,0.2-2.16c0.04-0.4-0.12-0.56-0.51-0.55
			c-1.82,0.01-3.65,0.01-5.47,0c-0.5,0-0.58,0.24-0.53,0.66c0.22,2.11,0.42,4.23,0.64,6.34c0.36,3.49,0.72,6.97,1.07,10.46
			c0.09,0.94,0.09,0.96,1.04,0.96c1.88,0,1.91,0.01,2.12-1.86c0.32-2.85,0.6-5.72,0.89-8.57c0.09-0.86,0.52-1.29,1.21-1.2
			c0.64,0.08,0.96,0.6,0.88,1.43c-0.33,3.21-0.65,6.41-0.99,9.62c-0.2,1.89-1.09,2.69-2.98,2.69c-0.54,0-1.08,0.01-1.61,0
			c-1.46-0.04-2.42-0.85-2.59-2.33c-0.34-2.9-0.62-5.81-0.91-8.71c-0.3-2.9-0.6-5.81-0.87-8.72c-0.16-1.8,0.85-2.86,2.68-2.87
			C834.04,67.65,834.93,67.65,835.82,67.65z"/>
		<path class="st4" d="M835.81,92.83c2.44,0,4.4,1.95,4.42,4.39c0.02,2.45-2,4.47-4.44,4.45c-2.42-0.02-4.4-2.02-4.38-4.44
			C831.41,94.79,833.37,92.83,835.81,92.83z"/>
		<path class="st9" d="M835.8,94.93c1.29-0.01,2.31,1.01,2.32,2.29c0.01,1.27-1.02,2.33-2.29,2.34c-1.26,0.01-2.32-1.04-2.33-2.31
			C833.49,95.98,834.52,94.94,835.8,94.93z"/>
	</g>
</g>
<g id="Camada_3">
	<rect x="575.77" y="188.21" class="st0" width="143.17" height="102.87"/>
	<text transform="matrix(1 0 0 1 577.2501 196.9705)"><tspan x="0" y="0" class="st1 st2 st3">Dificuldade em realizar </tspan><tspan x="11.71" y="15.02" class="st1 st2 st3">tarefas complexas, </tspan><tspan x="15.36" y="30.04" class="st1 st2 st3">onde várias ações </tspan><tspan x="21.38" y="45.05" class="st1 st2 st3">encadeadas são </tspan><tspan x="33.57" y="60.07" class="st1 st2 st3">necessárias</tspan></text>
	<g>
		<path class="st4" d="M728.3,86.89c-0.48,0-0.87-0.39-0.87-0.87V21.69c0-8.4-6.83-15.23-15.22-15.23h-64.75
			c-0.48,0-0.87-0.39-0.87-0.87s0.39-0.87,0.87-0.87h64.75c9.36,0,16.97,7.62,16.97,16.98v64.32
			C729.17,86.5,728.78,86.89,728.3,86.89z"/>
	</g>
	<g>
		<path class="st4" d="M647.9,167.31h-64.3c-9.36,0-16.97-7.62-16.97-16.98V86.02c0-0.48,0.39-0.87,0.87-0.87
			c0.48,0,0.87,0.39,0.87,0.87v64.32c0,8.4,6.83,15.23,15.22,15.23h64.3c0.48,0,0.87,0.39,0.87,0.87
			C648.77,166.92,648.38,167.31,647.9,167.31z"/>
	</g>
	<path class="st5" d="M707.22,157.08H588.37c-6.47,0-11.71-5.24-11.71-11.71V26.47c0-6.47,5.24-11.71,11.71-11.71h118.86
		c6.47,0,11.71,5.24,11.71,11.71v118.9C718.94,151.83,713.69,157.08,707.22,157.08z"/>
	<path class="st6" d="M702.09,146.13H594.84c-3.26,0-5.91-2.65-5.91-5.91V32.94c0-3.26,2.65-5.91,5.91-5.91h107.25
		c3.26,0,5.91,2.65,5.91,5.91v107.28C707.99,143.49,705.35,146.13,702.09,146.13z"/>
	<path class="st7" d="M701.42,145.47H594.17c-3.26,0-5.91-2.65-5.91-5.91V32.27c0-3.26,2.65-5.91,5.91-5.91h107.25
		c3.26,0,5.91,2.65,5.91,5.91v107.28C707.33,142.82,704.68,145.47,701.42,145.47z"/>
	<g>
		<path class="st11" d="M712.2,169.77h-64.3c-1.84,0-3.33-1.49-3.33-3.33c0-1.84,1.49-3.33,3.33-3.33h64.3
			c7.04,0,12.77-5.73,12.77-12.77V86.02c0-1.84,1.49-3.33,3.33-3.33s3.33,1.49,3.33,3.33v64.32
			C731.62,161.05,722.91,169.77,712.2,169.77z"/>
	</g>
	<g>
		<path class="st11" d="M567.49,89.34c-1.84,0-3.33-1.49-3.33-3.33V21.69c0-10.71,8.71-19.43,19.43-19.43h63.85
			c1.84,0,3.33,1.49,3.33,3.33s-1.49,3.33-3.33,3.33h-63.85c-7.04,0-12.77,5.73-12.77,12.77v64.32
			C570.82,87.85,569.33,89.34,567.49,89.34z"/>
	</g>
	<g>
		<path class="st9" d="M690.01,111.15c0,4.31-0.01,8.62,0.01,12.92c0,0.45-0.08,0.55-0.54,0.55c-25.8-0.01-51.59-0.02-77.39,0
			c-0.52,0-0.57-0.16-0.57-0.6c0.01-25.77,0.01-51.54,0-77.31c0-0.47,0.1-0.59,0.58-0.59c25.77,0.01,51.54,0.01,77.31,0
			c0.56,0,0.61,0.15,0.61,0.64c-0.01,21.21-0.01,42.41-0.01,63.62c-1.1-0.69-2.33-0.53-3.54-0.53c-3.39,0-6.77,0-10.16,0
			c-0.36,0-0.72-0.03-1.06,0.08c-0.4,0.13-0.68,0.38-0.67,0.82c0.01,0.42,0.26,0.71,0.67,0.84c0.3,0.09,0.6,0.08,0.91,0.08
			c4,0,8-0.02,12,0.02C688.87,111.71,689.4,111.34,690.01,111.15z"/>
		<path class="st4" d="M690.01,111.15c-0.38,0.58-0.91,0.77-1.61,0.77c-4.17-0.03-8.35-0.01-12.52-0.01c-0.13,0-0.26,0.01-0.38,0
			c-0.74-0.05-1.25-0.55-1.22-1.2c0.03-0.63,0.51-1.07,1.23-1.09c0.97-0.02,1.93-0.01,2.9-0.01c3.33,0,6.67,0.02,10-0.01
			c0.7-0.01,1.24,0.17,1.59,0.79C690.01,110.64,690.01,110.9,690.01,111.15z"/>
		<path class="st4" d="M664.12,55.66c0.83,2.33,0.59,4.48-0.84,6.43c-1.29,1.76-3.08,2.67-5.24,2.68c-6.86,0.03-13.72,0.05-20.58,0
			c-4.5-0.03-7.57-4.29-6.29-8.59c0.05-0.17,0.1-0.34,0.15-0.51c-3.09-0.33-6.41,2.08-7.39,5.29c-0.39,1.27-0.3,2.57-0.32,3.87
			c-0.01,0.44,0.33,0.37,0.58,0.42c4.45,0.89,7.39,3.5,8.64,7.86c1.68,5.87-2.2,12.11-8.2,13.25c-0.82,0.16-1.06,0.42-1.05,1.28
			c0.05,4.82,0.02,9.64,0.03,14.46c0,4.89,3.2,8.1,8.07,8.1c5.92,0,11.83-0.01,17.75,0.01c0.55,0,0.82-0.13,1.06-0.67
			c1.71-3.89,4.71-6.18,8.94-6.58c4-0.38,7.25,1.19,9.7,4.4c0.15,0.2,0.3,0.41,0.47,0.64c1.33-1.34,2.09-2.91,2.23-4.76
			c0.05-0.71,0.03-1.43,0.03-2.14c0-10.04,0-20.09,0-30.13c0-0.3-0.01-0.62,0.06-0.91c0.14-0.6,0.56-0.91,1.18-0.86
			c0.61,0.04,0.98,0.39,1.04,1.02c0.02,0.25,0.02,0.51,0.02,0.76c0,10.35-0.02,20.7,0.01,31.05c0.01,3.13-0.97,5.79-3.29,7.91
			c-0.36,0.32-0.18,0.59-0.1,0.88c1.45,5.32-1.35,10.9-6.49,12.88c-7.19,2.77-14.83-2.64-14.62-10.39c0.02-0.68-0.12-0.83-0.79-0.82
			c-5.79,0.03-11.58,0.02-17.36,0.02c-4.89,0-8.81-3.03-9.94-7.67c-0.2-0.82-0.25-1.66-0.25-2.5c0.01-4.95-0.02-9.89,0.02-14.84
			c0.01-0.74-0.2-0.95-0.91-1.09c-4.76-0.92-8.21-4.75-8.7-9.58c-0.46-4.53,2.22-8.99,6.51-10.85c0.79-0.34,1.61-0.63,2.48-0.71
			c0.48-0.04,0.63-0.24,0.61-0.72c-0.08-1.77-0.01-3.52,0.75-5.17c1.75-3.78,4.68-5.85,8.88-6.06c0.1-0.01,0.2-0.01,0.31,0
			c1.03,0.08,1.93-0.09,2.83-0.77c1.34-1.01,2.99-1.07,4.61-0.99c0.58,0.03,0.93-0.12,1.26-0.67c3.53-5.84,12.06-5.81,15.57,0.04
			c0.29,0.49,0.58,0.67,1.13,0.64c2.06-0.13,4.02,0.18,5.64,1.62c0.24,0.21,0.53,0.14,0.81,0.14c1.56-0.03,3.1,0.04,4.59,0.6
			c3.76,1.42,6.31,4.92,6.43,8.93c0.03,0.94,0.03,1.89,0,2.83c-0.02,0.74-0.46,1.18-1.12,1.19c-0.65,0.01-1.13-0.44-1.16-1.17
			c-0.04-1.04,0.01-2.09-0.05-3.13C671.62,58.68,667.92,55.35,664.12,55.66z"/>
		<path class="st4" d="M641.7,105.51c-2.61-0.01-4.73-0.7-6.62-2.08c-0.78-0.57-0.96-1.21-0.53-1.8c0.43-0.58,1.09-0.6,1.88-0.05
			c5.08,3.55,11.82,1.01,13.25-5.01c1.09-4.59-1.99-9.23-6.72-10.15c-4.58-0.89-9.15,2.34-9.88,6.94c-0.26,1.63-0.07,3.19,0.55,4.71
			c0.34,0.83,0.15,1.48-0.5,1.75c-0.65,0.27-1.25-0.04-1.61-0.85c-3.2-7.25,2.67-15.56,10.56-14.95c5.56,0.43,9.64,4.54,10.09,10.15
			c0.4,5.09-3.27,9.91-8.48,11.1C642.95,105.44,642.19,105.54,641.7,105.51z"/>
		<path class="st4" d="M641.22,98.7c1.02,0,1.88-0.01,2.74,0c0.84,0.01,1.35,0.45,1.36,1.12c0.01,0.67-0.51,1.15-1.33,1.16
			c-1.55,0.02-3.11,0.05-4.66-0.01c-1.42-0.06-1.87-1.02-1.04-2.18c1.07-1.49,2.16-2.96,3.24-4.44c0.37-0.51,0.72-1.05,0.93-1.65
			c0.27-0.79-0.04-1.51-0.79-1.8c-0.69-0.26-1.46,0.06-1.78,0.76c-0.05,0.11-0.07,0.25-0.11,0.36c-0.27,0.67-0.82,0.97-1.45,0.78
			c-0.59-0.17-0.9-0.79-0.75-1.47c0.58-2.55,3.74-3.67,5.84-2.06c1.33,1.02,1.79,2.62,1.2,4.23c-0.55,1.51-1.62,2.7-2.5,4
			C641.86,97.86,641.58,98.22,641.22,98.7z"/>
		<path class="st4" d="M647.58,71.82c2.8,0,5.6,0,8.4,0c0.23,0,0.46-0.02,0.69,0.02c0.54,0.08,0.87,0.39,0.95,0.94
			c0.08,0.57-0.15,0.98-0.68,1.23c-0.32,0.15-0.65,0.11-0.98,0.11c-5.57,0-11.15,0-16.72,0c-0.23,0-0.46,0.02-0.69-0.02
			c-0.65-0.1-1.07-0.61-1.01-1.22c0.07-0.64,0.45-1,1.1-1.05c0.23-0.02,0.46-0.01,0.69-0.01C642.08,71.82,644.83,71.82,647.58,71.82
			z"/>
		<path class="st4" d="M661.71,93.58c-2.29,0-4.59,0-6.88,0c-0.94,0-1.42-0.48-1.45-1.38c-0.02-0.93,0.51-1.5,1.45-1.5
			c4.56-0.01,9.13,0,13.69-0.01c0.64,0,1.17,0.21,1.4,1.04c0.16,0.61,0,1.13-0.38,1.55c-0.3,0.32-0.66,0.3-1.01,0.3
			C666.25,93.58,663.98,93.58,661.71,93.58z"/>
		<path class="st4" d="M644.63,77.62c1.89,0,3.77,0,5.66,0c0.9,0,1.42,0.42,1.43,1.12c0.01,0.69-0.54,1.17-1.41,1.17
			c-3.8,0.01-7.6,0.01-11.4,0c-0.89,0-1.39-0.46-1.38-1.18c0.01-0.72,0.51-1.11,1.43-1.11C640.86,77.62,642.74,77.62,644.63,77.62z"
			/>
		<path class="st4" d="M658.64,98.79c-1.3,0-2.6,0.01-3.9,0c-0.86-0.01-1.34-0.41-1.36-1.1c-0.02-0.71,0.5-1.18,1.37-1.19
			c2.62-0.01,5.25-0.01,7.87,0c0.9,0,1.4,0.43,1.4,1.16c0,0.73-0.48,1.13-1.41,1.13C661.29,98.8,659.97,98.79,658.64,98.79z"/>
		<path class="st4" d="M679.22,115.42c1.17,0,2.34-0.01,3.52,0c0.85,0.01,1.33,0.42,1.33,1.13c0,0.7-0.49,1.16-1.32,1.16
			c-2.37,0.01-4.74,0.01-7.11,0c-0.82,0-1.35-0.48-1.35-1.15c-0.01-0.67,0.52-1.13,1.34-1.14
			C676.82,115.41,678.02,115.42,679.22,115.42z"/>
		<path class="st9" d="M647.68,62.49c-3.39,0-6.78,0.02-10.17-0.01c-2.03-0.01-3.75-1.37-4.22-3.25c-0.49-1.92,0.39-3.92,2.13-4.87
			c0.66-0.36,1.38-0.52,2.12-0.53c0.76-0.01,1.53-0.04,2.29,0.01c0.86,0.05,1.34-0.29,1.7-1.08c1.77-3.85,6.48-5.15,10.01-2.8
			c1.04,0.69,1.88,1.6,2.34,2.75c0.36,0.88,0.91,1.19,1.82,1.14c0.86-0.05,1.74-0.06,2.6,0.02c2.37,0.22,4.12,2.21,3.99,4.49
			c-0.13,2.32-1.99,4.12-4.37,4.13C654.51,62.51,651.1,62.49,647.68,62.49z"/>
		<path class="st9" d="M622.44,67.4c4.66-0.01,8.45,3.76,8.49,8.43c0.04,4.64-3.86,8.54-8.5,8.51c-4.66-0.03-8.44-3.84-8.44-8.48
			C613.99,71.2,617.78,67.4,622.44,67.4z"/>
		<path class="st9" d="M660.41,105.19c4.64,0,8.46,3.81,8.46,8.46c0.01,4.62-3.81,8.46-8.45,8.48c-4.65,0.02-8.51-3.84-8.49-8.51
			C651.95,108.97,655.76,105.18,660.41,105.19z"/>
		<path class="st4" d="M643.33,55.67c-0.01-2.45,1.94-4.44,4.37-4.46c2.42-0.02,4.42,1.95,4.44,4.39c0.02,2.44-1.94,4.44-4.37,4.45
			C645.33,60.07,643.34,58.11,643.33,55.67z"/>
		<path class="st4" d="M623.91,75.94c0,1.55,0,3.1,0,4.65c0,0.93-0.46,1.49-1.18,1.47c-0.7-0.01-1.11-0.54-1.11-1.44
			c0-2.62-0.02-5.24,0.01-7.86c0.01-0.61-0.16-0.78-0.76-0.75c-0.92,0.04-1.4-0.39-1.39-1.13c0.02-0.71,0.44-1.08,1.1-1.13
			c0.73-0.05,1.48-0.05,2.21,0c0.74,0.05,1.11,0.53,1.11,1.37C623.91,72.73,623.91,74.34,623.91,75.94z"/>
		<path class="st4" d="M660.84,120.05c-2.37,0.01-4.01-1.55-4.07-3.51c-0.02-0.76,0.34-1.23,0.99-1.3c0.67-0.07,1.11,0.29,1.27,1.03
			c0.22,1.06,0.62,1.48,1.42,1.49c0.72,0,1.33-0.53,1.41-1.23c0.08-0.7-0.4-1.38-1.09-1.53c-0.17-0.04-0.36-0.02-0.53-0.07
			c-0.59-0.15-0.94-0.55-0.92-1.15c0.02-0.59,0.36-0.99,0.98-1.09c0.2-0.03,0.41-0.05,0.6-0.12c0.66-0.22,0.98-0.71,0.96-1.39
			c-0.01-0.66-0.5-1.21-1.17-1.31c-0.68-0.11-1.18,0.19-1.51,0.79c-0.06,0.11-0.07,0.24-0.12,0.36c-0.28,0.73-0.85,1.04-1.48,0.81
			c-0.64-0.23-0.9-0.8-0.7-1.56c0.72-2.71,4.17-3.63,6.17-1.66c1.25,1.23,1.5,3.14,0.52,4.61c-0.32,0.48-0.29,0.76,0.02,1.23
			c0.79,1.21,0.79,2.51,0.08,3.76C662.97,119.4,661.88,120.02,660.84,120.05z"/>
		<path class="st9" d="M645.63,55.62c0-1.15,0.94-2.1,2.08-2.12c1.17-0.02,2.14,0.96,2.13,2.14c-0.01,1.15-0.93,2.1-2.08,2.11
			C646.58,57.77,645.62,56.81,645.63,55.62z"/>
	</g>
</g>
<g id="Camada_4">
	<g>
		<path class="st4" d="M540.79,86.89c-0.48,0-0.87-0.39-0.87-0.87V21.69c0-8.4-6.83-15.23-15.22-15.23h-64.75
			c-0.48,0-0.87-0.39-0.87-0.87s0.39-0.87,0.87-0.87h64.75c9.36,0,16.97,7.62,16.97,16.98v64.32
			C541.67,86.5,541.27,86.89,540.79,86.89z"/>
	</g>
	<g>
		<path class="st4" d="M460.39,167.31h-64.3c-9.36,0-16.97-7.62-16.97-16.98V86.02c0-0.48,0.39-0.87,0.87-0.87
			c0.48,0,0.87,0.39,0.87,0.87v64.32c0,8.4,6.83,15.23,15.22,15.23h64.3c0.48,0,0.87,0.39,0.87,0.87
			C461.26,166.92,460.87,167.31,460.39,167.31z"/>
	</g>
	<path class="st5" d="M519.72,157.08H400.86c-6.47,0-11.71-5.24-11.71-11.71V26.47c0-6.47,5.24-11.71,11.71-11.71h118.86
		c6.47,0,11.71,5.24,11.71,11.71v118.9C531.43,151.83,526.19,157.08,519.72,157.08z"/>
	<path class="st6" d="M514.58,146.13H407.33c-3.26,0-5.91-2.65-5.91-5.91V32.94c0-3.26,2.65-5.91,5.91-5.91h107.25
		c3.26,0,5.91,2.65,5.91,5.91v107.28C520.49,143.49,517.84,146.13,514.58,146.13z"/>
	<path class="st7" d="M513.91,145.47H406.66c-3.26,0-5.91-2.65-5.91-5.91V32.27c0-3.26,2.65-5.91,5.91-5.91h107.25
		c3.26,0,5.91,2.65,5.91,5.91v107.28C519.82,142.82,517.18,145.47,513.91,145.47z"/>
	<g>
		<path class="st12" d="M524.69,169.77h-64.3c-1.84,0-3.33-1.49-3.33-3.33c0-1.84,1.49-3.33,3.33-3.33h64.3
			c7.04,0,12.77-5.73,12.77-12.77V86.02c0-1.84,1.49-3.33,3.33-3.33s3.33,1.49,3.33,3.33v64.32
			C544.12,161.05,535.4,169.77,524.69,169.77z"/>
	</g>
	<g>
		<path class="st12" d="M379.99,89.34c-1.84,0-3.33-1.49-3.33-3.33V21.69c0-10.71,8.72-19.43,19.43-19.43h63.85
			c1.84,0,3.33,1.49,3.33,3.33s-1.49,3.33-3.33,3.33h-63.85c-7.04,0-12.77,5.73-12.77,12.77v64.32
			C383.32,87.85,381.83,89.34,379.99,89.34z"/>
	</g>
	<rect x="383.47" y="187.2" class="st0" width="156.36" height="76.37"/>
	<text transform="matrix(1 0 0 1 410.4972 195.9608)"><tspan x="0" y="0" class="st1 st2 st3">Utilizar o mesmo </tspan><tspan x="-7.75" y="15.02" class="st1 st2 st3">material sempre da </tspan><tspan x="-8.1" y="30.04" class="st1 st2 st3">mesma maneira, de </tspan><tspan x="-20.8" y="45.05" class="st1 st2 st3">forma estereotipada ou </tspan><tspan x="21.29" y="60.07" class="st1 st2 st3">repetitiva </tspan></text>
	<g>
		<path class="st4" d="M486.12,49.24c1.77,0.47,3.07,1.45,3.57,3.3c0.14,0.51,0.14,1.02,0.14,1.53c0,21.9-0.01,43.81,0.02,65.71
			c0.01,3.06-2.14,4.77-4.75,4.76c-13.92-0.04-27.83-0.01-41.75-0.02c-4.98,0-8.8-3.21-9.66-8.11c-0.11-0.62-0.1-1.27-0.1-1.9
			c0-18.4,0.05-36.8-0.03-55.2c-0.02-5.57,3.9-9.34,8.01-9.92c0.05-0.01,0.1-0.09,0.15-0.13C456.52,49.24,471.32,49.24,486.12,49.24
			z"/>
		<path class="st9" d="M471.94,67.97c0.88,1.41,1.72,2.76,2.56,4.11c0.32,0.52,0.68,1.02,1.14,1.44c0.94,0.86,2.04,1.2,3.25,0.69
			c1.23-0.53,1.91-1.53,1.93-2.87c0.04-2.67,0.01-5.34,0.01-8.01c0-3.26,0.02-6.52-0.02-9.78c-0.01-0.57,0.15-0.69,0.69-0.67
			c1.22,0.04,2.45,0.01,3.67,0.02c0.85,0.01,1.08,0.23,1.08,1.1c0,3.23,0,6.47,0,9.7c0,13.7,0,27.39,0.01,41.09
			c0,0.6-0.08,0.79-0.77,0.79c-14.11-0.03-28.23-0.03-42.34-0.02c-1.93,0-3.72,0.53-5.32,1.62c-0.17,0.12-0.32,0.31-0.64,0.26
			c0-0.19,0-0.37,0-0.56c0-15.9,0-31.8,0-47.71c0-3.13,1.65-5.36,4.54-6.15c0.61-0.17,1.25-0.2,1.89-0.2
			c6.22,0,12.45,0.01,18.67-0.02c0.68,0,0.79,0.2,0.79,0.82c-0.02,5.68-0.01,11.37-0.02,17.05c0,0.54,0.02,1.08,0.18,1.6
			c0.69,2.14,3.13,2.84,4.85,1.38c0.53-0.45,0.92-1.01,1.29-1.59C470.23,70.72,471.07,69.37,471.94,67.97z"/>
		<path class="st9" d="M463.89,109.18c6.98,0,13.96,0,20.95,0c1.3,0,1.42,0.12,1.42,1.43c0,0.64-0.06,1.28,0.02,1.91
			c0.08,0.69-0.21,0.81-0.82,0.78c-1.2-0.04-2.4-0.01-3.6-0.01c-12.08,0.02-24.16,0.03-36.23,0.05c-0.32,0-0.64-0.01-0.95,0.04
			c-0.88,0.13-1.49,0.84-1.5,1.72c-0.01,0.88,0.58,1.6,1.46,1.75c0.31,0.05,0.63,0.05,0.95,0.05c13.28-0.01,26.56-0.01,39.84-0.04
			c0.72,0,0.92,0.18,0.86,0.88c-0.07,0.75-0.02,1.52-0.01,2.27c0.01,0.64-0.32,0.94-0.95,0.95c-0.15,0-0.29,0-0.44,0
			c-13.74,0-27.49,0-41.23,0c-2.59,0-4.6-0.98-5.82-3.34c-1.84-3.53,0.72-8.1,4.69-8.38c1.96-0.14,3.92-0.05,5.88-0.06
			C453.55,109.17,458.72,109.18,463.89,109.18z"/>
		<path class="st9" d="M466.68,69.31c0-5.34,0-10.67-0.01-16.01c0-0.39,0.12-0.5,0.5-0.5c3.16,0.01,6.32,0.03,9.47-0.01
			c0.61-0.01,0.53,0.32,0.53,0.69c0,4.14,0,8.27,0,12.41c0,1.15,0,2.29,0,3.45c-0.29-0.01-0.31-0.24-0.4-0.39
			c-1.06-1.67-2.1-3.35-3.16-5.03c-0.95-1.5-2.43-1.5-3.39-0.01c-1.15,1.8-2.28,3.62-3.41,5.43
			C466.78,69.35,466.73,69.33,466.68,69.31z"/>
	</g>
</g>
<g id="Camada_5">
	<rect x="203.83" y="187.9" class="st0" width="147.36" height="111.93"/>
	<text transform="matrix(1 0 0 1 232.3165 196.657)"><tspan x="0" y="0" class="st1 st2 st3">Dificuldade em  </tspan><tspan x="-26.61" y="15.02" class="st1 st2 st3">experimentar materiais </tspan><tspan x="9.02" y="30.04" class="st1 st2 st3">que não são </tspan><tspan x="-14.05" y="45.05" class="st1 st2 st3">comumente usados</tspan></text>
	<g>
		<path class="st4" d="M353.48,86.89c-0.48,0-0.87-0.39-0.87-0.87V21.69c0-8.4-6.83-15.23-15.22-15.23h-64.75
			c-0.48,0-0.87-0.39-0.87-0.87s0.39-0.87,0.87-0.87h64.75c9.36,0,16.97,7.62,16.97,16.98v64.32
			C354.35,86.5,353.96,86.89,353.48,86.89z"/>
	</g>
	<g>
		<path class="st4" d="M273.08,167.31h-64.3c-9.36,0-16.97-7.62-16.97-16.98V86.02c0-0.48,0.39-0.87,0.87-0.87
			c0.48,0,0.87,0.39,0.87,0.87v64.32c0,8.4,6.83,15.23,15.22,15.23h64.3c0.48,0,0.87,0.39,0.87,0.87
			C273.95,166.92,273.56,167.31,273.08,167.31z"/>
	</g>
	<path class="st5" d="M332.41,157.08H213.55c-6.47,0-11.71-5.24-11.71-11.71V26.47c0-6.47,5.24-11.71,11.71-11.71h118.86
		c6.47,0,11.71,5.24,11.71,11.71v118.9C344.12,151.83,338.87,157.08,332.41,157.08z"/>
	<path class="st6" d="M327.27,146.13H220.02c-3.26,0-5.91-2.65-5.91-5.91V32.94c0-3.26,2.65-5.91,5.91-5.91h107.25
		c3.26,0,5.91,2.65,5.91,5.91v107.28C333.18,143.49,330.53,146.13,327.27,146.13z"/>
	<path class="st7" d="M326.6,145.47H219.35c-3.26,0-5.91-2.65-5.91-5.91V32.27c0-3.26,2.65-5.91,5.91-5.91H326.6
		c3.26,0,5.91,2.65,5.91,5.91v107.28C332.51,142.82,329.87,145.47,326.6,145.47z"/>
	<g>
		<path class="st13" d="M337.38,169.77h-64.3c-1.84,0-3.33-1.49-3.33-3.33c0-1.84,1.49-3.33,3.33-3.33h64.3
			c7.04,0,12.77-5.73,12.77-12.77V86.02c0-1.84,1.49-3.33,3.33-3.33c1.84,0,3.33,1.49,3.33,3.33v64.32
			C356.81,161.05,348.09,169.77,337.38,169.77z"/>
	</g>
	<g>
		<path class="st13" d="M192.68,89.34c-1.84,0-3.33-1.49-3.33-3.33V21.69c0-10.71,8.72-19.43,19.43-19.43h63.85
			c1.84,0,3.33,1.49,3.33,3.33s-1.49,3.33-3.33,3.33h-63.85c-7.04,0-12.77,5.73-12.77,12.77v64.32
			C196.01,87.85,194.52,89.34,192.68,89.34z"/>
	</g>
	<g>
		<path class="st4" d="M310.02,105.38c-0.5,0.84-1.21,1.13-2.19,1.11c-3.79-0.05-7.58,0-11.37-0.03c-0.59,0-0.77,0.14-0.73,0.73
			c0.05,0.7,0.01,1.4,0.01,2.1c0,1.28-0.35,1.83-1.15,1.84c-0.82,0.01-1.19-0.56-1.19-1.82c0-2.88,0-5.76,0-8.64
			c0-2.65-0.01-5.3,0.01-7.94c0.01-0.54-0.14-0.7-0.69-0.69c-7.53,0.02-15.05,0.02-22.58,0c-0.43,0-0.72,0.15-1.02,0.44
			c-1.83,1.81-3.68,3.59-5.51,5.4c-0.42,0.42-0.88,0.66-1.46,0.43c-0.82-0.32-0.98-1.29-0.29-1.98c1.21-1.21,2.45-2.4,3.68-3.59
			c0.18-0.18,0.42-0.31,0.63-0.46c-0.32-0.32-0.56-0.22-0.78-0.22c-6.23-0.01-12.46,0-18.69-0.01c-0.4,0-0.73,0.03-1.05,0.35
			c-3.94,3.88-7.9,7.74-11.86,11.6c0.14,0.26,0.37,0.13,0.55,0.13c6.31,0.01,12.61,0,18.92,0.02c0.42,0,0.72-0.12,1.02-0.41
			c1.19-1.19,2.41-2.37,3.62-3.54c0.71-0.69,1.37-0.77,1.9-0.25c0.55,0.54,0.47,1.2-0.23,1.89c-1.37,1.35-2.76,2.68-4.12,4.03
			c-0.43,0.43-0.92,0.62-1.53,0.62c-2.18-0.02-4.36,0.01-6.54-0.02c-0.49-0.01-0.66,0.1-0.65,0.63c0.02,4.96,0.01,9.91,0.02,14.87
			c0,1.08,0.42,1.48,1.53,1.48c14.54,0,29.07,0,43.61,0c1.13,0,1.53-0.41,1.54-1.55c0.01-2.13,0-4.26,0-6.38
			c0-0.23-0.01-0.47,0.03-0.7c0.12-0.64,0.52-1.03,1.18-1c0.65,0.02,1.1,0.41,1.1,1.08c0.02,2.62,0.07,5.25-0.05,7.86
			c-0.07,1.48-1.07,2.42-2.47,2.89c-0.11,0.04-0.27-0.01-0.32,0.15c-15.27,0-30.53,0-45.8,0c-0.08-0.05-0.15-0.13-0.24-0.16
			c-1.7-0.7-2.46-1.79-2.46-3.65c-0.01-4.91-0.02-9.81,0.01-14.72c0-0.67-0.19-0.8-0.82-0.79c-3.74,0.03-7.48,0-11.21,0.02
			c-0.87,0-1.61-0.14-1.97-1.04c-0.36-0.87,0.08-1.47,0.67-2.05c4.39-4.27,8.78-8.55,13.14-12.85c0.6-0.59,1.24-0.93,2.07-0.82
			c0.67,0.09,0.86-0.12,0.86-0.82c-0.03-6.75-0.01-13.5-0.03-20.25c0-0.79,0.2-1.45,0.65-2.1c1.37-1.95,2.69-3.94,4.04-5.9
			c0.95-1.39,2.29-1.38,3.25,0.02c1.39,2.03,2.77,4.07,4.17,6.1c0.36,0.51,0.5,1.05,0.5,1.67c-0.01,6.8,0,13.6-0.02,20.4
			c0,0.68,0.12,0.93,0.86,0.89c1.28-0.07,1.29-0.02,1.29-1.34c0-13.24,0-26.48,0-39.72c0-0.21,0-0.42,0-0.62
			c0.03-1.35,0.68-2.01,2.02-2.02c2.96-0.01,5.92-0.01,8.88,0c1.31,0,2.02,0.69,2.03,2.02c0.02,2.41,0.01,4.83,0,7.24
			c0,0.89-0.49,1.44-1.19,1.43c-0.71-0.01-1.14-0.54-1.14-1.46c-0.01-2.08-0.02-4.15,0.01-6.23c0.01-0.56-0.16-0.68-0.69-0.68
			c-2.31,0.03-4.62,0.03-6.93,0c-0.49-0.01-0.69,0.09-0.65,0.63c0.05,0.75,0.05,1.51,0,2.26c-0.03,0.51,0.16,0.63,0.62,0.58
			c0.23-0.03,0.47-0.02,0.69,0.04c0.63,0.17,0.98,0.59,0.91,1.26c-0.07,0.61-0.45,0.96-1.08,1.03c-1.13,0.12-1.13,0.12-1.13,1.24
			c0,0.36,0,0.73,0,1.09c0,1.19,0,1.18,1.19,1.36c0.66,0.1,1.03,0.5,1.03,1.15c0,0.67-0.41,1.03-1.05,1.15
			c-0.37,0.07-0.9-0.19-1.09,0.14c-0.18,0.31-0.07,0.8-0.07,1.22c-0.01,0.6,0.03,1.2-0.01,1.79c-0.03,0.43,0.14,0.55,0.53,0.5
			c0.2-0.02,0.42-0.02,0.62,0c0.65,0.07,1.12,0.58,1.08,1.2c-0.05,0.66-0.43,1.04-1.08,1.12c-0.35,0.04-0.85-0.09-1.04,0.1
			c-0.28,0.27-0.07,0.78-0.1,1.19c-0.02,0.28,0,0.57,0,0.86c0,0.44-0.13,0.95,0.04,1.31c0.21,0.44,0.79,0.11,1.2,0.22
			c0.64,0.17,1.01,0.56,0.97,1.22c-0.04,0.66-0.44,1.02-1.1,1.08c-1.11,0.11-1.11,0.11-1.11,1.27c0,0.57,0.03,1.14-0.01,1.71
			c-0.04,0.52,0.09,0.8,0.66,0.7c0.05-0.01,0.1,0,0.16,0c0.9,0.01,1.43,0.45,1.42,1.18c-0.01,0.72-0.54,1.2-1.45,1.14
			c-0.68-0.04-0.84,0.19-0.79,0.82c0.06,0.72,0.04,1.45,0,2.18c-0.02,0.48,0.08,0.74,0.62,0.65c0.15-0.03,0.31-0.01,0.47,0
			c0.71,0.07,1.18,0.57,1.15,1.22c-0.03,0.62-0.49,1.06-1.18,1.1c-1.05,0.07-1.05,0.07-1.05,1.16c0,1.32,0.01,2.65-0.01,3.97
			c-0.01,0.39,0.09,0.54,0.51,0.54c2.39-0.02,4.78-0.03,7.16,0.01c0.61,0.01,0.58-0.31,0.58-0.72c-0.01-5.17,0-10.33,0-15.5
			c0-4.08,0-8.15,0-12.23c0-0.18,0-0.36,0-0.55c0.03-0.88,0.43-1.34,1.17-1.34c0.72,0.01,1.16,0.49,1.17,1.36
			c0.02,1.66,0.01,3.32,0.01,4.98c0,1.13,0,1.13,1.09,1.13c4.23,0,8.46,0.03,12.69-0.01c1.95-0.02,3.38,0.69,4.13,2.53
			c0.14,0.34,0.35,0.32,0.6,0.32c1.06,0,2.13-0.01,3.19,0c1.59,0.01,2.37,1.23,1.74,2.7c-0.04,0.1-0.07,0.2-0.13,0.28
			c-0.52,0.74-0.47,1.47,0.01,2.21c0.97,1.52-0.11,3.15-1.89,2.97c-0.93-0.09-1.87,0-2.8-0.02c-0.36-0.01-0.48,0.1-0.5,0.48
			c-0.08,1.53-0.09,1.52,1.39,1.52c0.78,0,1.56-0.02,2.34,0.01c1.4,0.06,2.17,1.27,1.66,2.57c-0.02,0.05-0.04,0.09-0.07,0.14
			c-0.64,0.93-0.53,1.8-0.02,2.79c0.72,1.41-0.14,2.66-1.74,2.69c-0.96,0.02-1.92,0.02-2.88-0.01c-0.47-0.01-0.7,0.06-0.68,0.62
			c0.06,1.29-0.13,1.07,1.08,1.05c0.87-0.02,1.52,0.26,2.14,0.88c4.27,4.21,8.57,8.39,12.86,12.58c0.4,0.39,0.81,0.77,1.04,1.29
			C310.02,104.75,310.02,105.07,310.02,105.38z"/>
		<path class="st9" d="M290.57,80.01c0,3.01-0.01,6.02,0.01,9.03c0,0.53-0.12,0.69-0.67,0.69c-4.83-0.02-9.66-0.02-14.48,0
			c-0.48,0-0.67-0.08-0.67-0.62c0-1.86-0.02-1.86,1.84-1.86c2.47,0,4.93,0,7.4,0c0.68,0,1.25-0.16,1.43-0.91
			c0.19-0.83-0.36-1.42-1.37-1.42c-2.36-0.01-4.72,0.01-7.09-0.01c-0.71-0.01-1.67,0.33-2.08-0.15c-0.35-0.41-0.1-1.34-0.12-2.03
			c0-0.1,0.01-0.21,0-0.31c-0.11-0.66,0.1-0.87,0.82-0.86c3.11,0.05,6.23,0.02,9.34,0.02c1.91,0,2.98-1.08,2.99-2.99
			c0-1.09,0.01-2.18,0-3.27c-0.02-1.74-1.11-2.84-2.9-2.84c-3.14-0.02-6.28-0.03-9.42,0.01c-0.71,0.01-0.91-0.19-0.84-0.87
			c0.06-0.57,0.05-1.14,0-1.71c-0.05-0.54,0.12-0.69,0.67-0.69c3.87,0.03,7.73,0.01,11.6,0.01c0.62,0,1.25-0.01,1.87,0
			c1.13,0.02,1.66,0.54,1.66,1.68C290.58,73.93,290.57,76.97,290.57,80.01z"/>
		<path class="st9" d="M306.64,103.6c-3.59,0-6.99-0.01-10.38,0.01c-0.42,0-0.51-0.14-0.51-0.51c0.01-3.13,0.01-6.25,0.01-9.59
			C299.41,96.9,302.96,100.19,306.64,103.6z"/>
		<path class="st9" d="M249.46,79.44c0-3.19,0.01-6.38-0.01-9.58c0-0.48,0.09-0.71,0.63-0.66c0.57,0.05,1.14,0.04,1.71,0
			c0.43-0.03,0.51,0.15,0.51,0.54c-0.01,6.46-0.01,12.93,0,19.39c0,0.5-0.16,0.63-0.62,0.6c-0.52-0.04-1.04-0.05-1.56,0
			c-0.57,0.05-0.68-0.18-0.68-0.7C249.47,85.83,249.46,82.63,249.46,79.44z"/>
		<path class="st14" d="M254.64,79.52c0-3.19,0.01-6.38-0.01-9.57c0-0.54,0.07-0.83,0.7-0.75c0.66,0.08,1.54-0.27,1.93,0.15
			c0.33,0.36,0.11,1.23,0.11,1.87c0,5.91-0.01,11.83,0.02,17.74c0,0.61-0.15,0.77-0.76,0.76c-1.99-0.03-1.99-0.01-1.99-1.96
			C254.64,85.02,254.64,82.27,254.64,79.52z"/>
		<path class="st9" d="M280.11,79.21c-1.58,0-3.16-0.02-4.74,0.01c-0.47,0.01-0.62-0.11-0.6-0.6c0.04-1.09,0.03-2.18,0.01-3.26
			c-0.01-0.4,0.05-0.6,0.53-0.6c3.19,0.02,6.38,0.02,9.56,0c0.52,0,0.75,0.17,0.73,0.72c-0.03,1.01-0.03,2.02,0,3.03
			c0.02,0.56-0.22,0.71-0.74,0.7C283.27,79.2,281.69,79.21,280.11,79.21z"/>
		<path class="st14" d="M250.42,66.82c1.02-1.5,1.98-2.91,3-4.4c1,1.47,1.97,2.89,3,4.4C254.39,66.82,252.49,66.82,250.42,66.82z"/>
		<path class="st15" d="M295.77,82.19c-0.08,0.23-0.11,0.36-0.17,0.47c-0.48,0.82-0.53,1.66-0.04,2.49c0.26,0.43,0.15,0.6-0.35,0.56
			c-0.74-0.06-1.69,0.31-2.17-0.14c-0.45-0.42-0.12-1.37-0.13-2.08c-0.02-1.29-0.01-1.29,1.28-1.29
			C294.69,82.19,295.18,82.19,295.77,82.19z"/>
		<path class="st14" d="M295.84,72.03c-0.72,1.16-0.88,2.26,0.09,3.48c-1.06,0-1.9,0-2.74,0c-0.25,0-0.28-0.16-0.28-0.37
			c0-0.91,0.01-1.81,0-2.72c-0.01-0.32,0.12-0.4,0.41-0.39C294.11,72.04,294.91,72.03,295.84,72.03z"/>
	</g>
</g>
<g id="Camada_6">
	<rect x="4.3" y="187.23" class="st0" width="162.55" height="49.34"/>
	<text transform="matrix(1 0 0 1 41.0724 195.991)"><tspan x="0" y="0" class="st1 st2 st3">Dificuldade em </tspan><tspan x="-28.72" y="13.21" class="st1 st2 st3">iniciar uma tarefa sem a </tspan><tspan x="-28.54" y="28.16" class="st1 st2 st3">orientação do professor</tspan></text>
	<g>
		<path class="st4" d="M165.97,86.89c-0.48,0-0.87-0.39-0.87-0.87V21.69c0-8.4-6.83-15.23-15.22-15.23H85.12
			c-0.48,0-0.87-0.39-0.87-0.87s0.39-0.87,0.87-0.87h64.75c9.36,0,16.97,7.62,16.97,16.98v64.32
			C166.85,86.5,166.46,86.89,165.97,86.89z"/>
	</g>
	<g>
		<path class="st4" d="M85.57,167.31h-64.3c-9.36,0-16.97-7.62-16.97-16.98V86.02c0-0.48,0.39-0.87,0.87-0.87
			c0.48,0,0.87,0.39,0.87,0.87v64.32c0,8.4,6.83,15.23,15.22,15.23h64.3c0.48,0,0.87,0.39,0.87,0.87
			C86.45,166.92,86.06,167.31,85.57,167.31z"/>
	</g>
	<path class="st5" d="M144.9,157.08H26.05c-6.47,0-11.71-5.24-11.71-11.71V26.47c0-6.47,5.24-11.71,11.71-11.71H144.9
		c6.47,0,11.71,5.24,11.71,11.71v118.9C156.61,151.83,151.37,157.08,144.9,157.08z"/>
	<path class="st6" d="M139.76,146.13H32.51c-3.26,0-5.91-2.65-5.91-5.91V32.94c0-3.26,2.65-5.91,5.91-5.91h107.25
		c3.26,0,5.91,2.65,5.91,5.91v107.28C145.67,143.49,143.03,146.13,139.76,146.13z"/>
	<path class="st7" d="M139.1,145.47H31.85c-3.26,0-5.91-2.65-5.91-5.91V32.27c0-3.26,2.65-5.91,5.91-5.91H139.1
		c3.26,0,5.91,2.65,5.91,5.91v107.28C145.01,142.82,142.36,145.47,139.1,145.47z"/>
	<path class="st16" d="M149.88,169.77h-64.3c-1.84,0-3.33-1.49-3.33-3.33c0-1.84,1.49-3.33,3.33-3.33h64.3
		c7.04,0,12.77-5.73,12.77-12.77V86.02c0-1.84,1.49-3.33,3.33-3.33c1.84,0,3.33,1.49,3.33,3.33v64.32
		C169.3,161.05,160.59,169.77,149.88,169.77z"/>
	<g>
		<path class="st16" d="M5.17,89.34c-1.84,0-3.33-1.49-3.33-3.33V21.69c0-10.71,8.72-19.43,19.43-19.43h63.85
			c1.84,0,3.33,1.49,3.33,3.33s-1.49,3.33-3.33,3.33H21.27c-7.04,0-12.77,5.73-12.77,12.77v64.32C8.5,87.85,7.01,89.34,5.17,89.34z"
			/>
	</g>
	<g>
		<path class="st4" d="M40.57,81.62c0.31-1.09,0.53-2.21,0.95-3.26c1.76-4.46,4.95-7.42,9.53-8.85c0.19-0.06,0.37-0.12,0.65-0.2
			c-1.16-1.45-1.9-3.01-2.21-4.79C48.47,58.53,54.01,52.93,60,53.95c0.69,0.12,0.86,0.01,0.83-0.68c-0.05-1.35-0.03-2.71-0.01-4.06
			c0.03-2.71,1.66-4.35,4.35-4.35c20.5,0,41.01,0,61.51,0c2.74,0,4.39,1.66,4.39,4.41c0,12.73,0,25.45,0,38.18
			c0,2.79-1.65,4.44-4.45,4.44c-6.95,0-13.9,0-20.86,0c-1.29,0-2.04-0.59-2.11-1.64c-0.07-1.06,0.65-1.86,1.75-1.89
			c1.32-0.03,2.65-0.01,3.98-0.01c5.69,0,11.37-0.02,17.06,0.02c0.86,0,1.11-0.26,1.11-1.11c-0.02-12.58-0.02-25.16,0-37.74
			c0-0.83-0.21-1.13-1.09-1.13c-20.36,0.02-40.71,0.02-61.07,0c-0.85,0-1.05,0.31-1.04,1.09c0.04,1.88,0.01,3.77,0.01,5.66
			c0,0.35,0.01,0.65,0.32,0.94c3.88,3.72,4.36,8.09,1.36,12.84c0.37,0,0.68,0,0.98,0c5.66,0,11.31,0.01,16.97-0.01
			c1.36,0,2.64,0.22,3.77,0.99c0.38,0.26,0.64,0.11,0.96-0.04c4.01-1.88,8.03-3.76,12.05-5.63c1.48-0.69,2.46-0.53,2.97,0.51
			c0.53,1.08,0.03,2-1.47,2.71c-3.78,1.76-7.55,3.53-11.33,5.28c-0.4,0.19-0.64,0.32-0.52,0.88c0.87,4.16-1.92,7.59-6.19,7.62
			c-4.71,0.03-9.43,0.02-14.14-0.01c-0.66,0-0.91,0.12-0.88,0.85c0.06,1.82,0.05,3.65,0,5.48c-0.02,0.67,0.17,0.82,0.82,0.81
			c6.3-0.03,12.61-0.02,18.91-0.01c0.41,0,0.82-0.03,1.21,0.15c0.74,0.35,1.14,1.05,1.03,1.86c-0.11,0.79-0.7,1.39-1.51,1.5
			c-0.29,0.04-0.59,0.02-0.88,0.02c-6.25,0-12.49,0.01-18.74-0.02c-0.71,0-0.85,0.2-0.85,0.87c0.02,9.04,0.02,18.09,0.01,27.13
			c-0.01,3.71-2.84,6.45-6.47,6.3c-1.37-0.06-2.59-0.55-3.62-1.45c-0.33-0.29-0.51-0.28-0.86-0.01c-2.02,1.62-4.26,1.97-6.6,0.84
			c-2.37-1.15-3.5-3.13-3.5-5.76c0-4.98-0.01-9.96,0.02-14.94c0-0.58-0.17-0.79-0.71-0.94c-3.61-0.99-6.37-4.11-6.74-7.58
			c-0.16-0.29,0.06-0.64-0.15-0.92C40.57,90.81,40.57,86.21,40.57,81.62z"/>
		<path class="st17" d="M40.57,95.4c0.24,0.28,0.22,0.59,0.15,0.92l-0.08,0.01l-0.07-0.05C40.57,95.99,40.57,95.7,40.57,95.4z"/>
		<path class="st18" d="M95.68,90.12c-0.01-1.01,0.77-1.8,1.76-1.79c0.94,0.01,1.73,0.8,1.75,1.74c0.01,0.97-0.82,1.8-1.79,1.79
			C96.45,91.85,95.69,91.09,95.68,90.12z"/>
		<path class="st9" d="M69.31,72.43c2.68,0,5.36,0.01,8.04-0.01c0.51,0,0.72,0.08,0.7,0.66c-0.05,1.29-0.05,2.59,0,3.89
			c0.02,0.62-0.21,0.72-0.75,0.71c-3.09-0.02-6.18-0.01-9.28-0.01c-1.79,0-2.35,0.57-2.35,2.39c0,4.62-0.01,9.25,0.01,13.87
			c0,0.6-0.12,0.79-0.75,0.78c-4.15-0.03-8.3-0.04-12.46,0c-0.7,0.01-0.8-0.22-0.79-0.84c0.03-3.77,0.02-7.54,0.01-11.31
			c-0.01-1.51-1.31-2.43-2.54-1.8c-0.69,0.35-1,0.95-1,1.73c0.01,2.21-0.02,4.42,0.02,6.63c0.01,0.6-0.12,0.83-0.76,0.79
			c-0.91-0.06-1.82-0.02-2.74-0.01c-0.3,0-0.59,0.04-0.57-0.43c0.08-2.56-0.2-5.13,0.16-7.67c0.73-5.19,5.27-9.21,10.5-9.36
			c2.23-0.07,2.23-0.07,2.23,2.11c0,3.3,0,6.6,0,9.89c0,1.31,0.65,2.1,1.73,2.11c1.09,0.02,1.8-0.82,1.8-2.15
			c0.01-3.74,0.02-7.48-0.01-11.22c0-0.61,0.14-0.79,0.77-0.78C63.95,72.45,66.63,72.43,69.31,72.43z"/>
		<path class="st9" d="M51.7,109.44c0-3.44,0.01-6.89-0.01-10.33c-0.01-0.64,0.1-0.89,0.84-0.88c4.12,0.04,8.24,0.04,12.36,0
			c0.68-0.01,0.8,0.19,0.8,0.83c-0.02,6.89-0.01,13.78-0.02,20.67c0,1.74-1.08,2.92-2.62,2.91c-1.51-0.01-2.58-1.17-2.58-2.86
			c-0.01-5.18,0-10.36-0.01-15.54c0-1.35-0.62-2.1-1.7-2.14c-0.92-0.03-1.65,0.55-1.79,1.47c-0.05,0.35-0.05,0.7-0.05,1.06
			c0,4.95,0,9.89,0,14.84c0,0.5,0.01,1-0.17,1.48c-0.43,1.14-1.63,1.86-2.8,1.68c-1.3-0.2-2.23-1.27-2.23-2.66
			C51.69,116.44,51.7,112.94,51.7,109.44z"/>
		<path class="st9" d="M58.69,68.89c-3.19,0-5.77-2.6-5.75-5.8c0.01-3.15,2.59-5.7,5.75-5.7c3.2,0,5.77,2.58,5.75,5.79
			C64.42,66.33,61.84,68.89,58.69,68.89z"/>
		<path class="st9" d="M81.58,75.06c0-0.68,0.02-1.36-0.01-2.03c-0.02-0.43,0.07-0.64,0.57-0.61c0.79,0.05,1.59-0.01,2.38,0.02
			c1.4,0.06,2.47,1.12,2.54,2.46c0.07,1.39-0.9,2.58-2.33,2.73c-0.9,0.09-1.82,0.02-2.74,0.05c-0.39,0.01-0.42-0.19-0.42-0.5
			C81.58,76.47,81.58,75.77,81.58,75.06z"/>
		<path class="st9" d="M48.16,100.33c-2.14-0.43-3.93-2.73-4.05-5.12c-0.08-1.76-0.08-1.77,1.68-1.76c0.76,0,1.78-0.26,2.21,0.13
			c0.5,0.45,0.14,1.49,0.16,2.27C48.18,97.34,48.16,98.83,48.16,100.33z"/>
	</g>
</g>
</svg>
