<?xml version="1.0" encoding="utf-8"?>
<!-- Generator: Adobe Illustrator 25.0.0, SVG Export Plug-In . SVG Version: 6.00 Build 0)  -->
<svg version="1.1" id="Camada_1" xmlns="http://www.w3.org/2000/svg" xmlns:xlink="http://www.w3.org/1999/xlink" x="0px" y="0px"
	 viewBox="0 0 290 190" style="enable-background:new 0 0 290 190;" xml:space="preserve">
<style type="text/css">
	.st0{fill:#FBD8D2;}
	.st1{fill:#18122E;}
	.st2{fill:#911440;}
	.st3{fill:#F3A2B9;}
	.st4{opacity:0.8;}
	.st5{fill:#6C1031;}
	.st6{fill:#EB593C;}
	.st7{fill:#C7143B;}
	.st8{fill:#EF795F;}
	.st9{opacity:0.8;fill:#6C1031;}
	.st10{fill:#F7C1CF;}
	.st11{fill:#A73E66;}
	.st12{fill:#FFFFFF;}
	.st13{fill:#460E22;}
	.st14{fill:#F7A514;}
	.st15{opacity:0.06;fill:#FFFFFF;}
	.st16{fill:#344A9A;}
	.st17{fill:#F2F2F2;}
	.st18{fill:#425CA7;}
	.st19{fill:#ED8A05;}
</style>
<rect x="-1361.6" y="-170.8" class="st0" width="921" height="551.7"/>
<g>
	<g>
		<path class="st1" d="M-798.54-39.69c-1.83-5.26-3.16-7.62-4-9.29c-2.04-4.02-2.68-4.43-2.64-5.78c0.07-2.8,2.27-3.06,3.05-6.18
			c0.92-3.65-1.1-7.24-2.85-10.34c-0.62-1.09-1.7-3.02-3.69-5.07c-5.71-5.9-9.22-5.8-10.17-9.37c-0.62-2.34,0.83-2.59,0.5-6.21
			c-0.37-4.12-2.54-7.05-3.8-8.75c-2.94-3.98-6.53-5.98-8.36-6.98c-1.55-0.85-1.32-0.55-3.53-1.68c-2.9-1.49-6.01-3.33-7.77-6.18
			c-0.49-0.78-0.64-1.37-0.83-1.85c-1.97-5.03-9.35-11.75-18.03-12.68c-5.82-0.62-10.05,1.59-11.63-0.71
			c-0.89-1.29,0.12-2.46-0.35-3.88c-1.53-4.55-15.28-6.29-28.02-2.83c-8.87,2.41-11.31,5.72-19.58,5.65
			c-5.32-0.04-5.2-1.42-10.32-1.21c-2.24,0.09-13.94,0.58-19.26,8.14c-1.15,1.63-2.96,4.96-5.53,7.94
			c-0.57,0.65-2.14,2.29-4.44,3.46c-2.16,1.1-2.67,0.48-5.46,1.34c-2.92,0.9-6.41,3.39-7.03,3.98c-5.51,5.18-2.86,11.94-7.54,14.43
			c-2.21,1.18-2.75-0.36-5.15,0.68c-6.43,2.8-9.33,16.9-9.58,22.95c-0.04,0.87-0.1,3.45-1.69,4.41c-1.2,0.72-2.16-0.16-3.33,0.17
			c-3.35,0.93-5.95,11-3.17,20.1c1.23,4.02,3.04,6.34,1.8,8.56c-1.32,2.36-4.21,1.28-6.03,3.43c-3.22,3.8-0.9,15.14,5.64,19.74
			c1.89,1.33,6.34,3.65,7.08,7.24c0.11,0.52,0.14,1.07,0.14,1.07c0.17,3.14-1.72,4.4-2.28,6.5c-1.04,3.96,3.06,9.41,7.07,11.48
			c1.29,0.67,1.76,0.56,2.61,1.35c1.91,1.76,1.52,4.06,2.45,8.19c0.77,3.41,1.15,5.12,2.32,6.48c2.96,3.47,7.16,1.52,9.29,4.59
			c1.75,2.54-0.95,4.56,0.94,8.1c1.03,1.93,3.39,4.31,6.35,4.94c1.47,0.31,2.19-0.01,3.17,0.71c1.42,1.03,0.92,2.78,2.12,4.58
			c0.34,0.52,1.64,2.4,4.23,4.23c6.46,4.55,16.22,4.94,16.22,4.94c18.92,0.78,19.31,6.53,38.97,6.3c9.36-0.11,5.99-1.38,29.58-4.35
			c0,0,9.08-1.14,18.18-5.47c2.81-1.34,4.15-2.32,5.29-3.53c3.23-3.43,2.24-6.04,5.23-8.44c2.11-1.7,2.89-0.67,7.17-2.81
			c2.66-1.34,4.72-2.37,6.06-4.57c1.52-2.49,0.43-3.74,1.96-8.13c0.94-2.69,1.28-4.11,2.55-5.12c1.96-1.55,3.39-0.31,5.94-1.25
			c4.52-1.67,8.15-8.56,7.9-14.02c-0.06-1.28-0.27-2.67,0.5-4.21c0.84-1.69,1.98-1.4,3.96-3.52c0.54-0.58,1.87-2.03,2.61-4.26
			c0.8-2.42,0.5-4.55,0.36-5.42c-0.12-0.79-0.3-1.33-0.41-1.69c-0.42-1.42-2.55-8.59-0.47-10.24c1.32-1.05,3.07,1.13,4.94,0.35
			C-795.74-21.18-795.82-31.87-798.54-39.69z"/>
		<path class="st2" d="M-937.44,107.57c3.73,3.13,7.88,5.87,12.4,7.71c4.53,1.85,9.33,2.6,14.18,3.09
			c9.61,0.96,19.46,0.63,28.83-1.83c9.32-2.45,17.98-7.13,24.47-14.33c3.51-3.89,6.51-8.28,9.08-12.84
			c0.93-1.65,1.82-3.34,2.62-5.07c-1.56-0.81-3.89-2.14-6.44-4.14c-16.66-13.08-18.02-35.49-18.34-40.78
			c-0.36-5.93-0.19-16.55,4.76-29.14c-11.86-15.24-23.09-31.45-33.52-48.7c-0.41-0.67-0.81-1.35-1.21-2.02
			c-0.4,0.67-0.81,1.35-1.21,2.02c-10.39,17.22-21.27,33.77-32.57,49.67c4.32,12.34,4.32,22.67,3.85,28.69
			c-0.48,6.16-2.15,27.52-18.38,40.26c-3.17,2.49-6.15,4.07-8.21,5.02C-951.18,93.15-945.09,101.14-937.44,107.57z"/>
		<g>
			<g>
				<path class="st2" d="M-682.93,241.23c0.06-63.72,0.56-84.95,1.15-87.84c0.04-0.2,0.52-2.48,1.02-5.62
					c0.22-1.37,0.45-2.96,0.65-4.79c0.73-6.44,0.35-8.02,1.7-10.64c0.43-0.83,2.25-4.27,3.81-6.9c0.69-1.16,1.37-2.52,3.47-9.44
					c5.15-16.95,4.6-20.46,4.25-22.09c-0.83-3.83-2.48-6.07-3.03-6.77c-1.86-2.38-4.03-3.68-5.36-4.33
					c0.39-2.21,0.68-4.17,0.91-5.81c0.46-3.31,0.48-4.16,0.16-5.13c-0.26-0.79-1.07-2.6-3.96-4.06c0.02-0.42,0.08-3.24-2.1-5.15
					c-1.14-1-2.39-1.3-3.03-1.41c1.02-8.07,3.01-14.17,4.66-18.29c2.35-5.88,4.06-12.06,7.01-17.66c0.89-1.68,3.11-5.76,1.84-9.52
					c-0.22-0.65-0.77-2.21-2.23-2.9c-1.72-0.81-3.64,0.12-4.09,0.34c-2.45,1.19-2.97,3.34-6.16,9.29c-1.47,2.74-1.5,2.54-2.6,4.61
					c-4.02,7.51-6.81,16.05-8.92,22.22c-1.51,4.4-3.79,10.84-6.85,18.75c-1.01-0.24-2.01-0.49-3.02-0.73
					c-0.33-2.48-0.72-5.75-1.04-9.59c-0.21-2.46-0.61-7.5-0.65-13.74c-0.06-9.62-0.09-14.43,0.37-19.93
					c0.36-4.28,0.85-7.81-1.15-9.21c-1.31-0.92-3.28-0.63-4.55,0.05c-1.05,0.56-2.49,1.87-3.64,8.17c-0.66,3.61-0.76,6.06-0.85,8.71
					c-0.22,5.98-0.75,5.12-1.41,13.76c-0.33,4.32-0.3,5.81-0.45,9.21c-0.07,1.55-0.14,2.68-0.21,3.87
					c-0.29,4.67-0.75,9.33-1.01,11.82c-0.36,0.38-0.76,0.86-1.14,1.44c-0.44,0.66-0.74,1.29-0.96,1.82
					c-0.17,0.67-0.46,1.84-0.77,3.29c-1.34,6.2-1.12,8.11-2.36,15.09c-0.61,3.43-0.53,2.65-0.76,4.32
					c-0.91,6.72,0.13,8.36-0.24,16.95c-0.13,3.09-0.29,4.37-0.11,6.99c0.07,1.09,0.23,2.72,0.88,6.15c0.22,1.16,0.43,2.21,0.64,3.15
					c0.48,2.19,0.89,4.11,1.37,5.69c0.93,3.06,2.17,5.08,2.63,5.94c2.9,5.34,2.14,14.16,1.84,17.64
					c-0.8,9.28-5.43,37.32-13.68,74.91C-714.9,236.31-698.92,238.77-682.93,241.23z"/>
				<path class="st3" d="M-680.06,65.93c-0.19,0.76-0.81,1.13-2.46,2.07c-4.51,2.57-4.93,2.7-5.56,2.64
					c-0.55-0.05-1.93-0.27-3.41-1.76c1.08-1.1,2.21-2.21,3.4-3.33c1.51-1.42,3-2.76,4.45-4.01c0.5,0.13,1.75,0.54,2.68,1.74
					C-680.64,63.69-679.78,64.8-680.06,65.93z"/>
				<path class="st3" d="M-699.7,103.46c0.58,1.48,2.6,1.79,2.85,1.83c1.2,0.18,2.85-0.09,3.66-1.22c0.21-0.29,0.11-0.29,0.52-2.07
					c0.45-1.98,0.9-3.34,0.38-4.47c-0.11-0.23-0.64-1.38-1.81-1.69c-1.32-0.35-2.49,0.63-2.78,0.88c-0.03,0.03-0.15,0.13-0.34,0.34
					c-0.88,0.95-1.41,2.06-1.78,3.09C-699.65,101.91-699.97,102.79-699.7,103.46z"/>
				<path class="st3" d="M-696.93,112.25c0.12,1.36,2.4,2.64,4.11,2.11c1.12-0.35,1.69-1.39,2.15-2.21
					c0.05-0.09,0.74-1.36,0.62-2.54c-0.01-0.07-0.02-0.13-0.02-0.14c-0.03-0.21-0.19-1.12-0.93-1.66c-0.08-0.06-0.45-0.32-0.95-0.38
					c-1.29-0.16-2.42,1.18-3.63,2.61C-696.51,111.14-696.98,111.7-696.93,112.25z"/>
				<g class="st4">
					<path class="st5" d="M-675.85,99.82c-0.38,0.55-0.99,1.4-1.77,2.41c-1.86,2.39-2.89,3.28-7.1,7.57
						c-2.48,2.54-3.18,3.3-4.7,4.39c-2.6,1.87-4.22,2.25-5.54,1.96c-0.32-0.07-1.06-0.24-1.69-0.88c-0.84-0.84-0.93-1.92-0.95-2.26
						c0.13,0.31,0.43,0.88,1.05,1.31c0.38,0.27,0.78,0.37,1.2,0.5c0,0,0.53,0.16,1.04,0.21c1.6,0.18,3.54-1.16,3.54-1.16
						c5.4-3.73,9.96-8.65,9.96-8.65C-678.9,103.19-677.24,101.37-675.85,99.82z"/>
					<path class="st5" d="M-677.05,83.57c0.02,0.02-1.15,1.24-2.48,3.24c-1.02,1.53-1.55,2.62-2.98,5.48
						c-1.47,2.93-2.21,4.4-2.44,4.83c-2.92,5.3-5.46,7.7-6.47,8.59c-2.15,1.9-3.1,2.14-3.52,2.21c-2.21,0.36-5.09-0.83-6.02-3.25
						c-0.51-1.32-0.26-2.56-0.1-3.15c0.04,0.59,0.21,1.74,1.04,2.75c1.46,1.76,3.85,1.74,4.07,1.73c3.77-0.1,6.69-4.66,9.26-8.57
						c2.34-3.57,1.96-4.11,4.52-7.74C-679.65,86.12-677.09,83.53-677.05,83.57z"/>
					<path class="st5" d="M-696.13,116.9c0.27-0.05,0.88,1.66,1.2,3.05c1.63,7.01-2.17,13.47-3.55,15.55
						c-1.38,2.1-3.01,3.87-3.26,3.71c-0.48-0.31,5.58-6.84,5.79-15.78C-695.86,120.3-696.5,116.97-696.13,116.9z"/>
					<path class="st5" d="M-699.85,94.44c0.19,0.06-0.24,2.61-1.29,5.51c-0.8,2.21-2.72,7.32-7.68,11.81
						c-3.77,3.42-7.69,5.01-7.75,4.9c-0.05-0.08,1.64-1.11,3.85-3.18c1.69-1.59,3.02-3.18,2.8-3.45c-0.19-0.23-1.21,0.74-2.97,0.8
						c-1.15,0.04-2.3-0.32-2.3-0.58c0.01-0.31,1.66-0.38,2.95-0.67c3.73-0.83,6.07-3.81,7.66-5.85
						C-700.95,99.1-700.1,94.36-699.85,94.44z"/>
					<path class="st5" d="M-678.14,67.81c-0.51,1.79-1.51,4.44-3.57,7.09c-1.41,1.81-2.74,2.89-4.63,4.4
						c-5.67,4.53-7.05,3.62-9.69,6.73c-2.03,2.39-1.66,3.46-4.61,7.05c-1.4,1.71-2.71,2.96-3.59,3.75c0.53-0.32,1.4-0.87,2.39-1.65
						c5.06-3.97,4.88-7.19,9.34-10.33c1.55-1.09,2.04-1.03,4.6-2.83c1.63-1.14,2.82-1.98,4.16-3.39c1.93-2.03,2.97-3.98,3.51-5.03
						c0.39-0.76,1.17-2.37,1.77-4.54C-678.31,68.55-678.21,68.12-678.14,67.81z"/>
					<path class="st5" d="M-691.21,68.53c-0.04-0.05-0.91,0.81-2.48,1.79c-1.5,0.94-2.08,1-5.24,2.57
						c-1.09,0.54-1.64,0.81-2.07,1.11c-0.93,0.65-1.69,1.4-2.81,2.83c-1.6,2.03-1.45,2.27-2.47,3.51c-1.47,1.81-3.03,2.83-4.83,4.02
						c-2.36,1.55-2.43,1.15-4.26,2.48c-0.98,0.71-2.77,2.03-4.26,4.27c-1.25,1.87-1.97,3.9-1.8,3.99c0.16,0.08,1.09-1.48,1.82-2.53
						c4.71-6.75,10.59-5.71,14.96-12.08c1.51-2.2,1.48-3.3,3.34-4.9c1.93-1.66,3.12-1.48,6.12-3.57
						C-692.81,70.37-691.16,68.59-691.21,68.53z"/>
					<path class="st5" d="M-693.23,68.28c0.01-0.07-1.18-0.23-4.02-0.57c-5.85-0.7-8.77-1.01-10.06-0.97
						c-2.4,0.06-6.2,0.65-10.86,3.55c-0.39,0.36-0.88,0.88-1.34,1.6c-0.43,0.69-0.69,1.34-0.84,1.83c0.1-0.27,0.27-0.67,0.53-1.1
						c0.39-0.63,2.18-3.3,10.09-4.31c2.46-0.31,4.44-0.32,8.38-0.25C-696.37,68.14-693.24,68.39-693.23,68.28z"/>
					<path class="st5" d="M-699.5,131.58c0.18,0.15-1.23,2.05-1.31,2.16c-3.95,5.28-11.36,7.76-11.54,7.41
						c-0.14-0.28,4.5-1.9,9.78-6.85C-701.3,133.11-699.68,131.43-699.5,131.58z"/>
					<path class="st5" d="M-712.1,78.09c0.06-0.06,1.24,0.88,2.56,2.25c0.94,0.98,1.64,1.86,2.1,2.47c-0.41,0.33-0.82,0.67-1.22,1
						c-0.15-0.58-0.41-1.42-0.89-2.34C-710.66,79.34-712.17,78.16-712.1,78.09z"/>
					<path class="st5" d="M-682.86,135.72c0.13,0.14-0.93,1.41-1.77,2.24c-4.76,4.65-12.53,4.4-12.57,4.18
						c-0.03-0.17,4.68,0.01,9.79-3.17C-684.98,137.46-683.03,135.54-682.86,135.72z"/>
				</g>
			</g>
			<g>
				<path class="st6" d="M-806.91,380.9c-1.88-7.99-4.86-17.51-9.69-27.75c-3.03-6.41-6.28-12.02-9.42-16.83
					c-2.24-9.42-4.49-18.85-6.73-28.27c-22.82-0.44-45.65-0.87-68.47-1.31c-0.31-0.24-0.62-0.48-0.93-0.71
					c-22.52,0.67-45.03,1.35-67.55,2.02c-2.24,9.42-4.49,18.85-6.73,28.27c-0.97,1.48-2.39,3.7-4.03,6.55c0,0-2.91,5.03-5.39,10.28
					c-5.39,11.41-9.15,25.67-9.69,27.75C-932.68,380.9-869.79,380.9-806.91,380.9z"/>
				<g>
					<path class="st7" d="M-953.46,331.58c-6.56-0.1-13.8-0.2-21.74-0.31c-0.11,0.56-0.22,1.12-0.34,1.68
						c8.07,0.01,15.41,0.01,22.07,0.01C-953.64,332.53-953.64,332.02-953.46,331.58z"/>
					<path class="st7" d="M-947.84,332.97c27.83-0.01,41.75-0.13,41.75-0.35c0-0.22-14.02-0.54-42.06-0.97
						c0.19,0.32,0.3,0.68,0.32,1.08C-947.83,332.81-947.83,332.89-947.84,332.97z"/>
					<path class="st8" d="M-946.65,309.06c-0.07-0.01-0.57,2.15-1.01,4.38c-0.16,0.8-0.51,2.61-0.79,4.66
						c-0.81,5.89-1.89,13.79,0.61,14.88c0.23,0.1,0.66,0.22,1.36,0c-0.08-0.19-0.16-0.38-0.24-0.57c0,0-1.09-2.72-1.24-5.85
						C-948.21,321.67-946.49,309.09-946.65,309.06z"/>
					<path class="st7" d="M-953.05,336.83c0.01-0.12,0.83,0.1,2.36-0.17c2.65-0.46,4.13-1.81,4.38-1.51
						c0.18,0.22-0.4,1.24-1.35,1.85C-949.83,338.38-953.08,337.07-953.05,336.83z"/>
					<path class="st7" d="M-853.43,335.15c0.03-0.11,1.27,0.55,3.37,0.5c2.5-0.05,3.73-1.04,4.54-0.34
						c0.49,0.43,0.69,1.37,0.34,1.85C-846.35,338.73-853.52,335.41-853.43,335.15z"/>
					<path class="st7" d="M-845.71,333.47c5.94,0.36,10.66-0.22,13.92-0.85c1.8-0.34,3.83-0.83,3.8-1.01
						c-0.04-0.29-5.61,0.67-13.39,0.5c-1.69-0.04-3.08-0.12-4.01-0.18C-845.49,332.45-845.6,332.96-845.71,333.47z"/>
					<path class="st7" d="M-853.16,332.46c-0.02-0.64-46.72-0.01-46.72,0.67c0,0.38,14.42,1,29,0.5
						C-863.68,333.39-853.15,332.76-853.16,332.46z"/>
					<path class="st8" d="M-840.9,380.9c0.65,0,1.31,0,1.96,0c-0.54-3.17-1.29-7.55-2.19-12.77c-4.29-24.93-4.82-27.44-4.88-27.43
						c-0.13,0.02,2.43,14.1,4.54,34.5C-841.23,377.49-841.04,379.43-840.9,380.9z"/>
					<path class="st7" d="M-901.38,307.38c0.3,0,0.61,4.97,0.67,8.08c0.15,7.56-0.95,14.84-1.35,14.81
						C-902.75,330.22-902.03,307.38-901.38,307.38z"/>
					<path class="st7" d="M-899.89,380.9c-0.47-7.84-0.37-13.6-0.14-17.65c0.02-0.38,0.03-0.42,0.04-0.77
						c0.11-2.16,0.29-7.56-0.38-14.38c-0.63-6.34-1.89-12.84-2.36-12.79c-0.44,0.05,0.01,6.12,0.34,13.46
						c0.34,7.6,0.65,18.54,0.39,32.13C-901.3,380.9-900.59,380.9-899.89,380.9z"/>
					<path class="st8" d="M-956.44,380.9c1.18-14.27,2.18-26.8,1.82-26.84c-0.34-0.03-1.88,10.82-3.79,26.8
						C-957.75,380.88-957.1,380.89-956.44,380.9z"/>
					<path class="st8" d="M-847.18,309.56c0.15-0.01,0.43,1.45,1.01,4.38c0.39,2,0.67,3.77,0.79,4.66
						c0.75,5.62,0.26,14.88-0.32,14.88C-846.64,333.48-847.79,309.61-847.18,309.56z"/>
				</g>
			</g>
			<g>
				<path class="st2" d="M-708.97,252.28c-8.22-11.79-14.38-20.02-16.33-22.67c-10.39-14.08-25.49-37.71-45.76-79.45
					c-17.11,16.52-34.21,33.04-51.32,49.57c20.98,31.1,39.32,53.55,54.02,69.75c0.78,0.86,1.23,1.35,1.5,1.65
					c5.57,6.05,46.87,50.85,64.1,41.92c1.7-0.88,3.82-3.62,8.06-9.11c4.61-5.96,7.75-11.39,9.78-15.27
					C-690.19,280.25-698.36,267.51-708.97,252.28z"/>
				<path class="st9" d="M-730.71,222c1.46,6.42,2.84,15.91,1.68,27.28c-1.45,14.17-6.2,24.96-9.63,31.35
					c-7.59-13.57-8.75-24.3-8.31-31.72c0.31-5.42,1.45-8.62,3.59-21.69c1.49-9.09,2.42-16.57,2.98-21.54
					C-737.18,211.11-733.95,216.56-730.71,222z"/>
				<path class="st3" d="M-773.17,247.18c22.22-11.96,35.73-28.79,43.09-39.93c-8.99-17.46-19.82-37.64-32.58-59.9
					c-11.46-19.99-19.51-32.98-35.41-42.8c-7.82-4.83-15.1-7.37-20.03-8.77c-7.05-2.77-9.07-3.2-15.74-6.07
					c-12.73-5.47-15.97-7.48-18.45-9.56c-1.2-1-2.09-1.89-2.6-2.4c-1.31,1.8-18.85,24.96-48.58,23.54
					c-26.38-1.26-41.18-20.86-43.07-23.45c-0.53,0.53-1.3,1.27-2.28,2.09c-0.11,0.09-1.37,1.13-2.85,2.15
					c-1.55,1.06-5.1,3.33-15.68,7.47c-0.31,0.12-0.02,0.01-2.46,0.94c-11.39,4.36-10.6,4.13-13.49,5.2
					c-5.47,2.03-8.29,2.86-12.53,4.42c-1.87,0.59-3.77,1.31-5.67,2.19c-16.74,7.7-25.21,23.27-29.11,32.45
					c-8.06,26.62-16.11,53.24-24.17,79.87c19.63,3.95,39.27,7.9,58.9,11.85c4.71,29.49,9.42,58.98,14.13,88.48
					c57.44-0.32,114.89-0.63,172.33-0.95c2.75-24.71,5.51-49.43,8.26-74.14c2.68,5.25,5.36,10.5,8.03,15.75
					C-787,253.66-780.22,250.97-773.17,247.18z"/>
				<path class="st10" d="M-803.49,105.69c-0.78-0.13-5.25,16.6-7.31,34.6c-4.09,35.71,2.62,65.02,3.75,64.92
					c1.07-0.09-3.3-26.97,0.43-69.03C-805.1,118.98-802.8,105.8-803.49,105.69z"/>
				<path class="st2" d="M-718.8,171.1c-6.01,32.99-13.49,57.62-19.73,75c-3.44,9.58-8.05,21.27-4.17,34.71
					c4.69,16.26,18.85,24.91,22.88,27.35c5.04,3.05,11.04,6.68,16.28,4.53c3.39-1.39,4.24-4.31,9.94-12.58
					c4.81-6.97,6.74-8.58,8.68-11.45c4.52-6.7,3.72-18.71,2.66-42.01c-0.03-0.66-0.83-18.32-0.85-18.7
					C-695.02,209-706.91,190.05-718.8,171.1z"/>
				<path class="st3" d="M-1016.99,208.81c12.31,1.53,24.52,3.82,36.73,6.11c5.23-18.05,11.18-38.35,17.7-60.58
					c-19.6-2.91-39.19-5.81-58.79-8.72c-4.83,23.56-9.71,44.14-14.2,61.58C-1029.35,207.48-1023.16,208.05-1016.99,208.81z"/>
				<path class="st10" d="M-998.65,105.05c0.77-0.16,5.9,16.38,8.67,34.28c5.49,35.52-0.05,65.07-1.18,65.02
					c-1.08-0.05,2.23-27.08-3.15-68.96C-996.52,118.27-999.33,105.2-998.65,105.05z"/>
				<path class="st2" d="M-1036.48,189.34c-1.87,4.09-4.39,10.29-6.31,18.13c-3.77,15.41-1.46,21.74-4.14,34.32
					c-2.9,13.62-6.74,11.57-13.2,29.52c-5.37,14.92-11,30.57-4.59,44.31c0.66,1.4,0.31,0.37,13.26,17.96
					c9.55,12.97,10.03,13.79,11.82,14.19c13.36,2.97,34.8-46.49,37.09-51.74c7.8-17.93,17.02-44.24,21.54-78.55
					c-5.79,0.29-16.06,0.01-27.5-4.81C-1024.48,205.92-1033.17,194.32-1036.48,189.34z"/>
				<path class="st6" d="M-849.45,82.25c-0.8,1.55-1.78,3.15-2.98,4.78c-8.76,11.89-27.06,23.9-48.18,23.96h-0.14
					c-21.07,0-39.37-11.92-48.17-23.75c-1.25-1.68-2.28-3.33-3.1-4.94c-0.17,0.12-0.35,0.23-0.52,0.35
					c0.83,1.62,1.86,3.28,3.12,4.96c8.9,11.96,27.39,24,48.67,24h0.14c21.34-0.05,39.82-12.2,48.68-24.21c1.2-1.63,2.19-3.23,3-4.8
					C-849.1,82.49-849.28,82.37-849.45,82.25z"/>
			</g>
		</g>
	</g>
	<g>
		<g>
			<g>
				<path class="st2" d="M-848.76-31.37c0.4-0.49,1.86-2.13,4.22-2.38c0.57-0.06,2.42-0.26,3.57,0.87c1.12,1.09,1.01,2.85,0.87,4.33
					c-0.62,6.26-2.06,10.39-2.06,10.39c-3.24,9.32-3.74,8.1-4.55,12.01c-0.91,4.45-0.45,6.91-2.49,8.33c-1.67,1.17-4.5,1.27-5.3,1.3
					c-1.24,0.05-2.29-0.08-3.03-0.22C-854.61-8.28-851.68-19.82-848.76-31.37z"/>
				<path class="st11" d="M-847.03-27.04c0.04-0.74,2-1.65,2.92-1.08c1.61,0.99-0.07,6.36-0.22,6.82c-1.25,3.89-2.56,3.58-3.79,7.36
					c-1.06,3.26-0.56,4.95-2.27,6.49c-1.34,1.21-3.19,1.57-3.26,1.42c-0.06-0.13,1.27-0.62,2.29-1.75c1.5-1.65,1.37-3.61,1.62-5.63
					c0.84-6.7,5.45-10.66,3.79-12.55C-846.38-26.45-847.05-26.59-847.03-27.04z"/>
			</g>
			<g>
				<path class="st2" d="M-952.51-31.37c-0.4-0.49-1.86-2.13-4.22-2.38c-0.57-0.06-2.42-0.26-3.57,0.87
					c-1.12,1.09-1.01,2.85-0.87,4.33c0.62,6.26,2.06,10.39,2.06,10.39c3.25,9.32,3.74,8.1,4.55,12.01c0.91,4.45,0.45,6.91,2.49,8.33
					c1.67,1.17,4.5,1.27,5.3,1.3c1.24,0.05,2.29-0.08,3.03-0.22C-946.67-8.28-949.59-19.82-952.51-31.37z"/>
				<path class="st11" d="M-954.25-27.04c-0.04-0.74-2-1.65-2.92-1.08c-1.61,0.99,0.07,6.36,0.22,6.82
					c1.25,3.89,2.56,3.58,3.79,7.36c1.06,3.26,0.56,4.95,2.27,6.49c1.34,1.21,3.19,1.57,3.26,1.42c0.06-0.13-1.27-0.62-2.29-1.75
					c-1.5-1.65-1.37-3.61-1.62-5.63c-0.84-6.7-5.45-10.66-3.79-12.55C-954.89-26.45-954.22-26.59-954.25-27.04z"/>
			</g>
		</g>
		<g>
			<path class="st5" d="M-928.88,25.26c0.73,1.74,1.94,4.21,3.86,6.87c2.99,4.14,6.03,6.41,10.55,9.74
				c5.68,4.17,8.6,6.27,12.73,6.72c2.81,0.3,4.95-0.19,7.14-0.7c0.29-0.07,0.61-0.15,0.98-0.25c5.07-1.43,11.61-5.76,12.55-6.39
				c2.18-1.46,5.58-3.72,10.33-6.81c0.02-1.07,0.07-2.73,0.25-4.76c0.19-2.14,0.43-3.7,0.52-4.34c0.32-2.15,0.74-5.52,1.11-10.74
				c-4.97,2.67-15.78,7.61-30.3,7.47c-15.11-0.14-26.17-5.72-31.05-8.57C-929.78,17.43-929.33,21.35-928.88,25.26z"/>
			<path class="st2" d="M-847.24-54.85c-0.43-7.99-1.12-19.3-7.62-31.25c-2.38-4.37-9.69-17.34-25.61-24.17
				c-18.94-8.12-36.3-1.64-40.33,0c-3.45,1.4-17.52,7.55-25.91,22.4c-6.24,11.04-6.8,21.56-7.29,32.68
				c-0.3,6.87,0.22,11.79,1.27,21.63c0.29,2.72,2.07,18.73,7.91,38.66c2.1,7.18,3.58,10.97,6.49,14.94
				c3.27,4.46,7.13,7.49,11.91,11.26c0.91,0.71,4.72,3.69,10.17,6.93c5.87,3.48,8.93,4.48,10.47,4.85c0.28,0.07,0.57,0.13,0.57,0.13
				c0.9,0.19,2.5,0.52,4.58,0.52c2.08,0,3.68-0.33,4.58-0.52c0,0,0.28-0.06,0.57-0.13c1.55-0.37,4.61-1.37,10.47-4.85
				c5.45-3.24,9.27-6.21,10.17-6.93c4.78-3.76,8.63-6.8,11.91-11.26c2.88-3.93,4.37-7.7,6.49-14.94c5.7-19.44,7.49-35.16,7.87-38.62
				C-847.46-43.63-846.91-48.69-847.24-54.85z"/>
			<g>
				<g>
					<path class="st12" d="M-885.79,4.36c-2.42-0.64-4.22-1.11-6.69-1.39c-3.06-0.34-5.64-0.22-7.46-0.03
						c-0.11,1.34-0.22,2.67-0.33,4.01c-0.11-1.34-0.22-2.67-0.33-4.01c-1.81-0.19-4.4-0.31-7.46,0.03
						c-2.47,0.28-4.27,0.74-6.69,1.39c-2.24,0.59-5.2,1.48-8.62,2.82c1.66,1.79,5.13,5.06,10.77,7.27c5.05,1.98,9.6,2.23,12.32,2.17
						c2.72,0.06,7.27-0.19,12.32-2.17c5.64-2.21,9.11-5.48,10.77-7.27C-880.59,5.84-883.55,4.95-885.79,4.36z"/>
					<path class="st5" d="M-881.81,8.6c-0.09,0.05-0.24,0.14-0.41,0.23c-6,3.29-11.69,3.4-17.54,3.45
						c-6.1,0.05-11.76,0.04-17.9-3.12c-0.54-0.28-0.98-0.52-1.28-0.7c-1.62-0.28-3.24-0.55-4.86-0.83
						c1.42,2.45,6.02,9.7,14.65,12.84c4.36,1.59,8.26,1.59,8.98,1.58c4.53-0.04,7.84-1.3,9.21-1.83
						c8.31-3.25,12.78-10.08,14.31-12.68C-878.37,7.9-880.09,8.25-881.81,8.6z"/>
					<path class="st13" d="M-875.97,7c-1.72-1.17-7.54-5.01-12.54-6.26c-0.96-0.24-1.73-0.43-2.82-0.49
						c-2.48-0.14-3.36,0.57-6.6,0.63c-0.54,0.01-1.83,0.01-2.17,0.02c-0.13,0-1.77,0.01-2.37,0c-3.24-0.04-4.13-0.8-6.72-0.64
						c-1.1,0.07-1.88,0.26-2.82,0.49c-5.01,1.25-10.73,5.03-12.54,6.26c1.39,1.32,2.58,1.69,3.41,1.78c2.58,0.29,4-1.83,8.16-2.47
						c0.93-0.15,1.63-0.17,1.87-0.16c1.84,0.04,3.11,0.72,8.34,0.92c1.04,0.04,2.76,0.1,5.01,0c4.22-0.19,5.17-0.73,6.78-0.87
						c0,0,0.87-0.06,1.79,0c3.63,0.25,6.52,3.09,9.89,2.53C-878.54,8.6-877.36,8.23-875.97,7z"/>
				</g>
				<g>
					<g class="st4">
						<path class="st5" d="M-914.27-8.71c-0.77,0.47-11.03,6.76-14.02,10.99c-0.51,0.71-1.35,1.94-1.27,3.51
							c0.05,0.96,0.51,1.81,1.44,3.46c0.87,1.54,2.09,3.43,2.28,3.36c0.27-0.11-3.03-3.72-2.28-7.87c0.04-0.2,0.07-0.33,0.1-0.43
							c0.77-2.98,2.99-4.77,4.66-6.08C-920.7-3.87-917.71-6.2-914.27-8.71z"/>
						<path class="st5" d="M-937.42,7.13c-0.23,0.09,0.74,2.39,1.72,4.08c1.48,2.55,3.63,4.89,3.88,4.76
							C-931.37,15.73-936.95,6.94-937.42,7.13z"/>
					</g>
					<g class="st4">
						<path class="st5" d="M-881.14-7.25c1.24,1.21,5.76,5.65,8.49,9.58c0.63,0.9,1.35,2.05,1.27,3.51
							c-0.05,0.96-0.51,1.81-1.44,3.46c-0.87,1.54-2.09,3.43-2.28,3.36c-0.27-0.11,3.03-3.72,2.28-7.87
							c-0.17-0.94-0.52-1.79-3.89-6.3C-878.48-3.89-880.02-5.85-881.14-7.25z"/>
						<path class="st5" d="M-863.52,7.19c0.23,0.09-0.74,2.39-1.72,4.08c-1.48,2.55-3.63,4.89-3.88,4.76
							C-869.57,15.79-863.99,7-863.52,7.19z"/>
					</g>
				</g>
				<g>
					<g>
						<path class="st13" d="M-902.59-5.14c0.1-0.17-0.68-0.88-1.52-1.38c-0.72-0.42-1.86-1.1-2.56-0.62
							c-0.45,0.31-0.66,1.07-0.4,1.38c0.26,0.33,0.84-0.03,1.94,0C-903.61-5.72-902.7-4.96-902.59-5.14z"/>
						<path class="st5" d="M-911.17-11.64c-0.12-0.02-1.51,2.8-0.28,4.56c0.91,1.3,2.86,1.48,2.97,1.24
							c0.12-0.24-1.86-0.8-2.63-2.63C-911.78-10.07-911.08-11.62-911.17-11.64z"/>
					</g>
					<g>
						<path class="st13" d="M-898.88-5.14c-0.11-0.21,0.75-0.93,1.52-1.38c0.74-0.43,1.82-1.07,2.56-0.62
							c0.47,0.28,0.75,0.97,0.55,1.29c-0.19,0.3-0.73,0.12-1.66,0.14C-897.72-5.68-898.76-4.91-898.88-5.14z"/>
						<path class="st5" d="M-890.31-11.64c0.12-0.02,1.51,2.8,0.28,4.56c-0.91,1.3-2.86,1.48-2.97,1.24
							c-0.12-0.24,1.86-0.8,2.63-2.63C-889.7-10.07-890.39-11.62-890.31-11.64z"/>
					</g>
				</g>
				<g>
					<path class="st5" d="M-888.84-28.56c-0.06,0.14,1.33,0.94,2.82,1.5c2.95,1.1,5.79,1.06,5.81,0.88c0.01-0.1-0.83-0.2-3.35-0.88
						C-887.02-28-888.78-28.71-888.84-28.56z"/>
					<path class="st5" d="M-912.68-28.56c0.06,0.14-1.33,0.94-2.82,1.5c-2.95,1.1-5.79,1.06-5.81,0.88c-0.01-0.1,0.83-0.2,3.35-0.88
						C-914.5-28-912.74-28.71-912.68-28.56z"/>
				</g>
				<g>
					<g>
						<path class="st5" d="M-866.3-35.87c0.1-0.19-2.41-2.11-5.09-3.03c-7.61-2.61-15.8,3.19-15.69,3.46
							c0.1,0.26,7.92-4.83,16.13-2.27C-868.66-37-866.38-35.7-866.3-35.87z"/>
						<g>
							<path class="st12" d="M-868.03-30.18c-0.55-0.93-1.75-2.63-3.9-3.9c-2.44-1.44-4.75-1.46-5.95-1.52
								c-5.72-0.25-10.03,3.76-11.15,4.87c1.38-0.04,3.46-0.03,5.95,0.32c0.65,0.09,1.23,0.19,1.76,0.29
								c1.47,0.29,2.46,0.57,2.9,0.68c4.14,1.08,8.44-0.1,8.73-0.18C-868.95-29.81-868.38-30.03-868.03-30.18z"/>
							<path class="st13" d="M-868.03-30.18c1.05-0.22,2.09-0.43,3.14-0.65c-0.95-0.88-2.39-2.03-4.33-3.03
								c-0.98-0.5-2.82-1.43-5.41-1.84c-3.88-0.61-6.95,0.36-7.79,0.65c-3.45,1.18-5.62,3.25-6.6,4.33
								c2.14-1.09,9.79-4.64,17.37-1.52C-870.27-31.67-869.07-30.95-868.03-30.18z"/>
							<path class="st13" d="M-880.99-34.95c1.75-0.69,3.58-1.12,5.44-0.46c0.43,0.15,0.77,0.03,1-0.21
								c0.41,0.17,0.81,0.35,1.16,0.55c0.3,0.62,0.46,1.31,0.46,2.04c0,2.61-2.11,4.72-4.72,4.72c-2.61,0-4.72-2.11-4.72-4.72
								c0-0.48,0.07-0.95,0.21-1.39C-881.76-34.57-881.37-34.75-880.99-34.95z"/>
							<path class="st5" d="M-868.03-30.18c-1.78,1.28-3.38,1.83-4.44,2.09c-4.35,1.09-8.64-0.37-10.32-0.94
								c-0.38-0.13-1.12-0.39-2.24-0.72c-1.67-0.49-3.06-0.79-4-0.97c0.5-0.02,1.39-0.06,2.49-0.04c6.25,0.12,8.75,1.75,13.49,1.52
								C-871.86-29.3-870.12-29.49-868.03-30.18z"/>
						</g>
					</g>
					<g>
						<path class="st5" d="M-934.98-35.87c-0.1-0.19,2.41-2.11,5.09-3.03c7.61-2.61,15.8,3.19,15.69,3.46
							c-0.1,0.26-7.92-4.83-16.13-2.27C-932.62-37-934.89-35.7-934.98-35.87z"/>
						<g>
							<path class="st12" d="M-934.59-30.61c1.08-1,2.81-2.39,5.24-3.46c0.86-0.38,3.24-1.4,5.95-1.52
								c5.72-0.25,10.03,3.76,11.15,4.87c-1.38-0.04-3.46-0.03-5.95,0.32c-2.31,0.33-3.84,0.78-4.65,0.97
								C-925.26-28.84-928.98-28.65-934.59-30.61z"/>
							<path class="st13" d="M-933.25-30.18c-1.05-0.22-2.09-0.43-3.14-0.65c0.95-0.88,2.39-2.03,4.33-3.03
								c0.98-0.5,2.82-1.43,5.41-1.84c3.88-0.61,6.95,0.36,7.79,0.65c3.45,1.18,5.62,3.25,6.6,4.33c-2.14-1.09-9.79-4.64-17.37-1.52
								C-931-31.67-932.21-30.95-933.25-30.18z"/>
							<path class="st13" d="M-920.29-34.95c-1.75-0.69-3.58-1.12-5.44-0.46c-0.43,0.15-0.77,0.03-1-0.21
								c-0.41,0.17-0.81,0.35-1.16,0.55c-0.3,0.62-0.46,1.31-0.46,2.04c0,2.61,2.11,4.72,4.72,4.72c2.61,0,4.72-2.11,4.72-4.72
								c0-0.48-0.07-0.95-0.21-1.39C-919.52-34.57-919.91-34.75-920.29-34.95z"/>
							<path class="st5" d="M-933.25-30.18c1.78,1.28,3.38,1.83,4.44,2.09c4.35,1.09,8.64-0.37,10.32-0.94
								c0.38-0.13,1.12-0.39,2.24-0.72c1.67-0.49,3.06-0.79,4-0.97c-0.5-0.02-1.39-0.06-2.49-0.04c-6.25,0.12-8.75,1.75-13.49,1.52
								C-929.42-29.3-931.15-29.5-933.25-30.18z"/>
						</g>
					</g>
				</g>
				<g>
					<path class="st13" d="M-942.12-41.14c-0.38-0.55,2.43-3.29,5.09-5.09c1.18-0.8,2.57-1.53,4.22-2.16
						c3.29-1.26,7.28-1.23,15.12-1.1c0.93,0.01,2.93,0.07,4.92,1.2c0.72,0.41,1.11,0.77,1.2,0.85c1.5,1.44,2.43,3.79,1.7,4.79
						c-0.88,1.2-3.71-0.2-9.74-1.3c-4.74-0.87-8.62-1.57-12.99-0.76C-938.34-43.65-941.71-40.55-942.12-41.14z"/>
					<path class="st13" d="M-859.15-41.14c0.38-0.55-2.43-3.29-5.09-5.09c-1.18-0.8-2.57-1.53-4.22-2.16
						c-3.29-1.26-7.28-1.23-15.12-1.1c-0.93,0.01-2.93,0.07-4.92,1.2c-0.72,0.41-1.11,0.77-1.2,0.85c-1.5,1.44-2.43,3.79-1.7,4.79
						c0.88,1.2,3.71-0.2,9.74-1.3c4.74-0.87,8.62-1.57,12.99-0.76C-862.94-43.65-859.56-40.55-859.15-41.14z"/>
				</g>
			</g>
			<g>
				<path class="st14" d="M-943.93-27.95c-0.02-0.17-0.01-0.25-0.06-0.4c-0.03-0.08-0.02-0.17,0-0.25c-2.37-1.58-4.42-3.51-6.1-5.76
					c-0.97-1.29-1.81-2.69-2.51-4.16c-0.07-0.15-0.25-0.21-0.4-0.14c-0.15,0.07-0.21,0.25-0.14,0.4c0.71,1.5,1.58,2.94,2.57,4.26
					c1.82,2.43,4.06,4.5,6.66,6.17C-943.92-27.88-943.93-27.91-943.93-27.95z"/>
				<path class="st14" d="M-856.78-28.05c0.02-0.15,0.01-0.22,0.05-0.36c0.02-0.08,0.02-0.15,0-0.23c2.12-1.41,3.94-3.14,5.44-5.14
					c0.86-1.15,1.62-2.4,2.24-3.71c0.06-0.13,0.22-0.19,0.36-0.13c0.13,0.06,0.19,0.22,0.13,0.36c-0.64,1.34-1.41,2.62-2.29,3.8
					c-1.62,2.17-3.62,4.02-5.95,5.51C-856.79-27.98-856.79-28.02-856.78-28.05z"/>
				<g>
					<circle class="st15" cx="-875.76" cy="-27.1" r="18.89"/>
					<circle class="st15" cx="-925.03" cy="-27.18" r="18.89"/>
					<g>
						<path class="st14" d="M-925.03-7.95c-10.6,0-19.23-8.63-19.23-19.23c0-10.6,8.63-19.23,19.23-19.23
							c10.6,0,19.23,8.63,19.23,19.23C-905.8-16.58-914.42-7.95-925.03-7.95z M-925.03-45.91c-10.33,0-18.73,8.4-18.73,18.73
							c0,10.33,8.4,18.73,18.73,18.73c10.33,0,18.73-8.4,18.73-18.73C-906.3-37.5-914.7-45.91-925.03-45.91z"/>
						<path class="st14" d="M-875.84-7.71c-10.6,0-19.23-8.63-19.23-19.23c0-10.6,8.63-19.23,19.23-19.23
							c10.6,0,19.23,8.63,19.23,19.23C-856.62-16.33-865.24-7.71-875.84-7.71z M-875.84-45.66c-10.33,0-18.73,8.4-18.73,18.73
							c0,10.33,8.4,18.73,18.73,18.73s18.73-8.4,18.73-18.73C-857.12-37.26-865.52-45.66-875.84-45.66z"/>
						<rect x="-906.08" y="-28.07" class="st14" width="11.38" height="0.63"/>
					</g>
				</g>
			</g>
			<path class="st1" d="M-846.1-68.73c-2.22-17.24-13.92-28.63-16.85-31.45c-13.9-13.4-30.22-15.21-36.84-15.42
				c0-0.01,0-0.01,0-0.02c-0.13,0-0.25,0-0.38,0c-0.1,0-0.19,0-0.29,0c0,0,0,0,0,0c-0.11,0-0.22,0-0.32,0c-0.11,0-0.22,0-0.32,0
				c0,0,0,0,0,0c-0.1,0-0.19,0-0.29,0c-0.13,0-0.25,0-0.38,0c0,0.01,0,0.01,0,0.02c-6.61,0.21-22.94,2.01-36.84,15.42
				c-2.93,2.82-14.63,14.21-16.85,31.45c-1.06,8.23-0.37,18.09,0,22.53c0.23,2.81,0.85,6.99,2.15,15.35
				c0.35,2.28,0.89,4.01,1.37,5.62c0.58,1.95,1.17,3.55,1.63,4.7c-0.16-1.6-0.33-3.92-0.36-6.72c-0.09-7.63-0.3-25.96,11.48-41.65
				c7.66-10.2,16.82-14.55,18.78-15.43c3.38-1.53,8.9-3.54,16.11-4.01c1.28-5.9,2.57-11.79,3.85-17.69
				c0.98,5.89,1.96,11.78,2.95,17.68c4.5,0.27,10.24,1.25,16.37,4.02c1.95,0.88,11.11,5.22,18.78,15.43
				c11.53,15.34,11.52,33.05,11.51,40.51c0,3.18-0.2,5.83-0.38,7.67c0.45-1.1,1.04-2.64,1.61-4.52c0.65-2.14,1.11-3.94,1.37-5.62
				c1.29-8.36,1.91-12.54,2.15-15.35C-845.73-50.64-845.04-60.51-846.1-68.73z"/>
		</g>
	</g>
	<g>
		<path class="st9" d="M-1019.14,261.86c-2.13-11.03-8.47-18.72-12.61-22.86c-0.58,3.64-1.81,9.18-4.77,15.27
			c-4.52,9.28-8.47,10.42-13.98,19.2c-3.95,6.29-11.44,18.24-7.26,28.59c2.66,6.58,9.05,10.08,13.4,11.82
			C-1025.51,300.96-1015.52,280.55-1019.14,261.86z"/>
		<g>
			<path class="st16" d="M-1084.64,174.49c-1.54,2.43-3.07,4.86-4.61,7.29c36.34,39.23,72.69,78.46,109.03,117.69
				c21.83-11.7,43.66-23.4,65.5-35.1c-33.46-41.06-66.91-82.11-100.37-123.17C-1038.27,152.3-1061.45,163.39-1084.64,174.49z"/>
			<path class="st17" d="M-1088.63,182.34c1.79-2.53,3.58-5.07,5.36-7.6c22.5-10.58,45.01-21.16,67.51-31.74
				c-0.52,3.73-1.04,7.45-1.56,11.18C-1041.09,163.56-1064.86,172.95-1088.63,182.34z"/>
			<path class="st12" d="M-1015.76,142.99c32.41,40.01,64.83,80.03,97.24,120.04c-1.34,3.95-2.68,7.9-4.02,11.85
				c-31.59-40.24-63.19-80.47-94.78-120.71C-1016.8,150.45-1016.28,146.72-1015.76,142.99z"/>
			<path class="st18" d="M-1089.25,181.78c34.26,40.8,68.51,81.59,102.77,122.39c22.35-9.54,44.71-19.08,67.06-28.61
				c-33.08-41.5-66.17-83.01-99.25-124.51C-1042.19,161.29-1065.72,171.53-1089.25,181.78z"/>
		</g>
		<g>
			<path class="st19" d="M-1080.42,189.74c-1.44,2.25-2.87,4.49-4.31,6.74c31.74,36.62,63.49,73.24,95.23,109.86
				c21.02-10.18,42.04-20.36,63.06-30.54c-30.01-38.73-60.01-77.47-90.02-116.2C-1037.78,169.66-1059.1,179.7-1080.42,189.74z"/>
			<path class="st17" d="M-1084.17,197.02c1.67-2.34,3.33-4.68,5-7.02c20.69-9.58,41.39-19.15,62.08-28.73
				c-0.7,5.31-1.41,10.62-2.11,15.93C-1040.86,183.8-1062.51,190.41-1084.17,197.02z"/>
			<path class="st12" d="M-1017.09,161.27c29.07,37.75,58.14,75.49,87.21,113.24c-1.54,3.85-3.08,7.7-4.62,11.55
				c-30.07-37.18-60.13-74.36-90.2-111.55C-1022.16,170.1-1019.63,165.69-1017.09,161.27z"/>
			<path class="st14" d="M-1084.73,196.49c31.19,37.38,62.37,74.77,93.56,112.15c19.67-7.3,39.34-14.6,59.01-21.91
				c-30.7-38.7-61.39-77.41-92.09-116.11C-1044.41,179.24-1064.57,187.86-1084.73,196.49z"/>
		</g>
		<g>
			<path class="st2" d="M-1060.12,327.28c-2.85-5.86-7.72-15.89-4.73-26.8c1.69-6.16,5.24-10.24,8.67-14.19
				c1.27-1.46,4.24-4.71,13.82-11.44c4.49-3.15,24.43-16.9,27.42-20.5c1.98-2.38,3.49-5.03,3.49-5.03c0.07-0.12,0.13-0.23,0.19-0.34
				c1.63-2.99,2.4-5.88,3.27-15.26c1.1-11.85,0.63-15.38,3.37-20.72c0.33-0.64,0.04-0.05,2.68-4.4c5.11-8.41,6.22-10.3,7.18-13.23
				c0.66-2,1.4-4.94,1.57-8.75c0.8-0.22,2.14-0.47,3.59,0c3.12,1.02,4.24,4.57,4.71,6.06c1.26,4,0.16,7.56-0.22,8.75
				c-0.41,1.27-0.35,0.53-3.36,6.73c0,0-0.86,1.77-2.02,5.38c-0.66,2.06-0.66,2.46-0.45,2.69c0.92,1.01,5.37-1.48,7.85-3.14
				c4.46-2.99,7.16-6.52,9.2-9.2c2.11-2.77,3.64-5.27,4.67-7.11c-0.99-1.23-1.97-2.47-2.96-3.7c0.81-0.46,2.33-1.17,4.35-1.3
				c0.51-0.03,3.26-0.17,6.06,1.57c1.93,1.2,2.93,2.7,3.36,3.36c0.51,0.79,1,1.56,1.12,2.69c0.13,1.2-0.22,2.17-0.45,2.69
				c1.87-1.1,3.24-0.77,3.59-0.67c2.81,0.79,3.47,4.87,3.59,5.61c0.2,1.23,0.1,2.27,0,2.92c0.71,0.15,1.83,0.49,2.92,1.35
				c2.32,1.83,2.64,4.56,2.69,5.16c0.66,0.59,1.62,1.62,2.24,3.14c0.47,1.15,0.72,2.52,0.45,5.38c-0.31,3.27-1.04,5.73-1.35,6.73
				c-2.91,9.61-4.81,14.31-5.83,15.7c-1.12,1.52-1.75,2.05-8.81,7.07c-14.79,10.53-16.98,12.18-19.11,13.93
				c0,0-6.22,5.08-11.6,11.03c-7.43,8.2-15.21,34.88-30.96,56.53c-4.56,6.27-13.64,18.52-20.94,16.63c-1.3-0.34-2.76-1.19-9.8-11.11
				C-1056.09,333.82-1058.81,329.99-1060.12,327.28z"/>
			<path class="st3" d="M-992.62,186.34c-0.18,2.47-0.37,4.93-0.55,7.4c0.11,1.05,0.84,1.93,1.85,2.22c1.02,0.3,2.13-0.07,2.77-0.92
				c0.69-2.16,0.54-3.87,0.37-4.81c-0.15-0.86-0.3-1.66-0.92-2.4C-990.27,186.42-992.14,186.35-992.62,186.34z"/>
			<g>
				<path class="st5" d="M-957.67,202.02c-1.07,1.78-2.64,4.43-4.49,7.69c-1.96,3.44-5.8,10.2-5.55,10.36
					c0.21,0.13,3.39-4.25,6.2-9.52C-959.68,207.08-958.45,204.08-957.67,202.02z"/>
				<path class="st5" d="M-950.57,209.94c-0.04-0.02-0.33,0.55-1.01,1.83c-1.43,2.68-2.1,3.8-3.01,5.45
					c-1.94,3.53-4.82,9.26-4.6,9.39c0.19,0.11,2.85-3.97,5.2-8.67C-952,213.96-950.46,209.99-950.57,209.94z"/>
				<path class="st5" d="M-944.96,216.44c-0.56,1.92-1.46,4.79-2.77,8.2c-2.31,6.02-4.28,9.52-4.11,9.61
					c0.18,0.09,2.85-3.76,4.75-8.92C-945.78,221.76-945.22,218.62-944.96,216.44z"/>
			</g>
		</g>
	</g>
</g>
<rect class="st0" width="290" height="190.04"/>
<g>
	<g>
		<path class="st1" d="M180.85,42.52c-0.64-1.85-1.11-2.67-1.4-3.26c-0.71-1.41-0.94-1.55-0.93-2.03c0.03-0.98,0.8-1.07,1.07-2.17
			c0.32-1.28-0.39-2.54-1-3.63c-0.22-0.38-0.6-1.06-1.3-1.78c-2-2.07-3.23-2.03-3.57-3.29c-0.22-0.82,0.29-0.91,0.18-2.18
			c-0.13-1.44-0.89-2.47-1.33-3.07c-1.03-1.4-2.29-2.1-2.93-2.45c-0.54-0.3-0.46-0.19-1.24-0.59c-1.02-0.52-2.11-1.17-2.72-2.17
			c-0.17-0.28-0.22-0.48-0.29-0.65c-0.69-1.76-3.28-4.12-6.33-4.45c-2.04-0.22-3.53,0.56-4.08-0.25c-0.31-0.45,0.04-0.86-0.12-1.36
			c-0.54-1.6-5.36-2.2-9.83-0.99c-3.11,0.84-3.97,2.01-6.87,1.98c-1.86-0.02-1.82-0.5-3.62-0.42c-0.79,0.03-4.89,0.2-6.76,2.85
			c-0.4,0.57-1.04,1.74-1.94,2.78c-0.2,0.23-0.75,0.8-1.56,1.21c-0.76,0.39-0.94,0.17-1.92,0.47c-1.02,0.32-2.25,1.19-2.47,1.4
			c-1.93,1.82-1,4.19-2.64,5.06c-0.78,0.41-0.97-0.13-1.8,0.24c-2.26,0.98-3.27,5.93-3.36,8.05c-0.01,0.3-0.03,1.21-0.59,1.55
			c-0.42,0.25-0.76-0.05-1.17,0.06c-1.18,0.32-2.09,3.86-1.11,7.05c0.43,1.41,1.07,2.22,0.63,3c-0.46,0.83-1.48,0.45-2.11,1.2
			c-1.13,1.33-0.32,5.31,1.98,6.92c0.66,0.47,2.22,1.28,2.48,2.54c0.04,0.18,0.05,0.37,0.05,0.37c0.06,1.1-0.6,1.54-0.8,2.28
			c-0.37,1.39,1.07,3.3,2.48,4.03c0.45,0.23,0.62,0.2,0.92,0.47c0.67,0.62,0.53,1.42,0.86,2.87c0.27,1.2,0.4,1.79,0.81,2.27
			c1.04,1.22,2.51,0.53,3.26,1.61c0.61,0.89-0.33,1.6,0.33,2.84c0.36,0.68,1.19,1.51,2.23,1.73c0.52,0.11,0.77,0,1.11,0.25
			c0.5,0.36,0.32,0.97,0.74,1.61c0.12,0.18,0.58,0.84,1.48,1.48c2.26,1.6,5.69,1.73,5.69,1.73c6.64,0.27,6.77,2.29,13.67,2.21
			c3.28-0.04,2.1-0.48,10.38-1.52c0,0,3.19-0.4,6.38-1.92c0.98-0.47,1.46-0.81,1.85-1.24c1.13-1.2,0.78-2.12,1.83-2.96
			c0.74-0.59,1.01-0.23,2.51-0.99c0.93-0.47,1.66-0.83,2.12-1.6c0.53-0.87,0.15-1.31,0.69-2.85c0.33-0.94,0.45-1.44,0.9-1.8
			c0.69-0.54,1.19-0.11,2.08-0.44c1.59-0.59,2.86-3,2.77-4.92c-0.02-0.45-0.09-0.94,0.17-1.48c0.3-0.59,0.69-0.49,1.39-1.24
			c0.19-0.2,0.66-0.71,0.92-1.49c0.28-0.85,0.17-1.59,0.13-1.9c-0.04-0.28-0.11-0.47-0.14-0.59c-0.15-0.5-0.89-3.01-0.17-3.59
			c0.46-0.37,1.08,0.4,1.73,0.12C181.83,49.02,181.8,45.27,180.85,42.52z"/>
		<path class="st2" d="M132.13,94.17c1.31,1.1,2.76,2.06,4.35,2.7c1.59,0.65,3.27,0.91,4.97,1.08c3.37,0.34,6.83,0.22,10.11-0.64
			c3.27-0.86,6.31-2.5,8.58-5.02c1.23-1.37,2.28-2.9,3.18-4.5c0.33-0.58,0.64-1.17,0.92-1.78c-0.55-0.28-1.37-0.75-2.26-1.45
			c-5.84-4.59-6.32-12.45-6.43-14.3c-0.13-2.08-0.07-5.81,1.67-10.22c-4.16-5.34-8.1-11.03-11.76-17.08
			c-0.14-0.24-0.28-0.47-0.43-0.71c-0.14,0.24-0.28,0.47-0.43,0.71c-3.64,6.04-7.46,11.84-11.42,17.42
			c1.51,4.33,1.52,7.95,1.35,10.06c-0.17,2.16-0.75,9.65-6.45,14.12c-1.11,0.87-2.16,1.43-2.88,1.76
			C127.31,89.12,129.45,91.92,132.13,94.17z"/>
		<g>
			<g>
				<path class="st2" d="M221.39,141.05c0.02-22.35,0.2-29.79,0.4-30.81c0.01-0.07,0.18-0.87,0.36-1.97
					c0.08-0.48,0.16-1.04,0.23-1.68c0.26-2.26,0.12-2.81,0.6-3.73c0.15-0.29,0.79-1.5,1.33-2.42c0.24-0.41,0.48-0.88,1.22-3.31
					c1.81-5.95,1.62-7.18,1.49-7.75c-0.29-1.34-0.87-2.13-1.06-2.38c-0.65-0.83-1.41-1.29-1.88-1.52c0.14-0.77,0.24-1.46,0.32-2.04
					c0.16-1.16,0.17-1.46,0.06-1.8c-0.09-0.28-0.38-0.91-1.39-1.43c0.01-0.15,0.03-1.14-0.74-1.81c-0.4-0.35-0.84-0.46-1.06-0.49
					c0.36-2.83,1.06-4.97,1.63-6.42c0.83-2.06,1.42-4.23,2.46-6.2c0.31-0.59,1.09-2.02,0.64-3.34c-0.08-0.23-0.27-0.78-0.78-1.02
					c-0.6-0.28-1.28,0.04-1.43,0.12c-0.86,0.42-1.04,1.17-2.16,3.26c-0.52,0.96-0.53,0.89-0.91,1.62c-1.41,2.64-2.39,5.63-3.13,7.79
					c-0.53,1.54-1.33,3.8-2.4,6.57c-0.35-0.09-0.71-0.17-1.06-0.26c-0.12-0.87-0.25-2.02-0.37-3.36c-0.07-0.86-0.22-2.63-0.23-4.82
					c-0.02-3.37-0.03-5.06,0.13-6.99c0.13-1.5,0.3-2.74-0.4-3.23c-0.46-0.32-1.15-0.22-1.6,0.02c-0.37,0.2-0.87,0.65-1.28,2.87
					c-0.23,1.27-0.26,2.13-0.3,3.05c-0.08,2.1-0.26,1.79-0.5,4.83c-0.12,1.52-0.1,2.04-0.16,3.23c-0.02,0.54-0.05,0.94-0.07,1.36
					c-0.1,1.64-0.26,3.27-0.36,4.15c-0.13,0.13-0.26,0.3-0.4,0.51c-0.15,0.23-0.26,0.45-0.34,0.64c-0.06,0.24-0.16,0.64-0.27,1.15
					c-0.47,2.17-0.39,2.85-0.83,5.29c-0.21,1.2-0.19,0.93-0.27,1.51c-0.32,2.36,0.04,2.93-0.08,5.95c-0.05,1.08-0.1,1.53-0.04,2.45
					c0.03,0.38,0.08,0.95,0.31,2.16c0.08,0.41,0.15,0.77,0.23,1.11c0.17,0.77,0.31,1.44,0.48,2c0.33,1.07,0.76,1.78,0.92,2.08
					c1.02,1.87,0.75,4.97,0.65,6.19c-0.28,3.25-1.9,13.09-4.8,26.27C210.18,139.33,215.79,140.19,221.39,141.05z"/>
				<path class="st3" d="M222.4,79.57c-0.07,0.27-0.28,0.4-0.86,0.73c-1.58,0.9-1.73,0.95-1.95,0.93c-0.19-0.02-0.68-0.09-1.2-0.62
					c0.38-0.38,0.77-0.78,1.19-1.17c0.53-0.5,1.05-0.97,1.56-1.41c0.17,0.05,0.61,0.19,0.94,0.61
					C222.2,78.78,222.5,79.17,222.4,79.57z"/>
				<path class="st3" d="M215.51,92.73c0.2,0.52,0.91,0.63,1,0.64c0.42,0.06,1-0.03,1.28-0.43c0.07-0.1,0.04-0.1,0.18-0.73
					c0.16-0.69,0.32-1.17,0.13-1.57c-0.04-0.08-0.23-0.48-0.63-0.59c-0.46-0.12-0.87,0.22-0.98,0.31c-0.01,0.01-0.05,0.05-0.12,0.12
					c-0.31,0.33-0.49,0.72-0.62,1.09C215.53,92.19,215.42,92.5,215.51,92.73z"/>
				<path class="st3" d="M216.48,95.81c0.04,0.48,0.84,0.93,1.44,0.74c0.39-0.12,0.59-0.49,0.75-0.77c0.02-0.03,0.26-0.48,0.22-0.89
					c0-0.02-0.01-0.04-0.01-0.05c-0.01-0.07-0.07-0.39-0.33-0.58c-0.03-0.02-0.16-0.11-0.33-0.13c-0.45-0.05-0.85,0.41-1.27,0.92
					C216.63,95.43,216.47,95.62,216.48,95.81z"/>
				<g class="st4">
					<path class="st5" d="M223.88,91.46c-0.13,0.19-0.35,0.49-0.62,0.85c-0.65,0.84-1.01,1.15-2.49,2.66
						c-0.87,0.89-1.12,1.16-1.65,1.54c-0.91,0.65-1.48,0.79-1.94,0.69c-0.11-0.02-0.37-0.09-0.59-0.31
						c-0.29-0.29-0.33-0.67-0.33-0.79c0.05,0.11,0.15,0.31,0.37,0.46c0.13,0.09,0.27,0.13,0.42,0.17c0,0,0.19,0.05,0.36,0.07
						c0.56,0.06,1.24-0.41,1.24-0.41c1.89-1.31,3.49-3.03,3.49-3.03C222.8,92.64,223.39,92,223.88,91.46z"/>
					<path class="st5" d="M223.46,85.75c0.01,0.01-0.4,0.44-0.87,1.14c-0.36,0.54-0.54,0.92-1.05,1.92
						c-0.52,1.03-0.77,1.54-0.86,1.69c-1.03,1.86-1.91,2.7-2.27,3.01c-0.76,0.67-1.09,0.75-1.23,0.78
						c-0.77,0.12-1.78-0.29-2.11-1.14c-0.18-0.46-0.09-0.9-0.04-1.1c0.01,0.21,0.07,0.61,0.37,0.97c0.51,0.62,1.35,0.61,1.43,0.61
						c1.32-0.04,2.35-1.63,3.25-3.01c0.82-1.25,0.69-1.44,1.59-2.71C222.54,86.65,223.44,85.74,223.46,85.75z"/>
					<path class="st5" d="M216.77,97.44c0.09-0.02,0.31,0.58,0.42,1.07c0.57,2.46-0.76,4.72-1.24,5.45
						c-0.48,0.73-1.06,1.36-1.14,1.3c-0.17-0.11,1.96-2.4,2.03-5.54C216.86,98.64,216.63,97.47,216.77,97.44z"/>
					<path class="st5" d="M215.46,89.57c0.07,0.02-0.09,0.92-0.45,1.93c-0.28,0.77-0.95,2.57-2.69,4.14
						c-1.32,1.2-2.7,1.76-2.72,1.72c-0.02-0.03,0.58-0.39,1.35-1.12c0.59-0.56,1.06-1.11,0.98-1.21c-0.07-0.08-0.42,0.26-1.04,0.28
						c-0.4,0.01-0.81-0.11-0.81-0.2c0-0.11,0.58-0.13,1.03-0.24c1.31-0.29,2.13-1.34,2.69-2.05
						C215.07,91.2,215.37,89.54,215.46,89.57z"/>
					<path class="st5" d="M223.07,80.23c-0.18,0.63-0.53,1.56-1.25,2.49c-0.49,0.64-0.96,1.01-1.62,1.54
						c-1.99,1.59-2.47,1.27-3.4,2.36c-0.71,0.84-0.58,1.22-1.62,2.47c-0.49,0.6-0.95,1.04-1.26,1.31c0.18-0.11,0.49-0.3,0.84-0.58
						c1.77-1.39,1.71-2.52,3.28-3.62c0.54-0.38,0.71-0.36,1.61-0.99c0.57-0.4,0.99-0.7,1.46-1.19c0.68-0.71,1.04-1.4,1.23-1.76
						c0.14-0.27,0.41-0.83,0.62-1.59C223.01,80.49,223.05,80.34,223.07,80.23z"/>
					<path class="st5" d="M218.49,80.48c-0.01-0.02-0.32,0.29-0.87,0.63c-0.53,0.33-0.73,0.35-1.84,0.9
						c-0.38,0.19-0.58,0.29-0.73,0.39c-0.33,0.23-0.59,0.49-0.99,0.99c-0.56,0.71-0.51,0.8-0.86,1.23c-0.52,0.63-1.06,0.99-1.7,1.41
						c-0.83,0.55-0.85,0.4-1.49,0.87c-0.34,0.25-0.97,0.71-1.49,1.5c-0.44,0.66-0.69,1.37-0.63,1.4c0.05,0.03,0.38-0.52,0.64-0.89
						c1.65-2.37,3.71-2,5.25-4.24c0.53-0.77,0.52-1.16,1.17-1.72c0.68-0.58,1.1-0.52,2.15-1.25
						C217.93,81.13,218.51,80.5,218.49,80.48z"/>
					<path class="st5" d="M217.78,80.39c0-0.03-0.41-0.08-1.41-0.2c-2.05-0.25-3.08-0.35-3.53-0.34c-0.84,0.02-2.18,0.23-3.81,1.24
						c-0.14,0.13-0.31,0.31-0.47,0.56c-0.15,0.24-0.24,0.47-0.29,0.64c0.04-0.1,0.09-0.23,0.19-0.39c0.14-0.22,0.76-1.16,3.54-1.51
						c0.86-0.11,1.56-0.11,2.94-0.09C216.68,80.34,217.78,80.43,217.78,80.39z"/>
					<path class="st5" d="M215.58,102.6c0.06,0.05-0.43,0.72-0.46,0.76c-1.38,1.85-3.98,2.72-4.05,2.6c-0.05-0.1,1.58-0.67,3.43-2.4
						C214.95,103.13,215.52,102.54,215.58,102.6z"/>
					<path class="st5" d="M211.16,83.83c0.02-0.02,0.44,0.31,0.9,0.79c0.33,0.34,0.58,0.65,0.74,0.87
						c-0.14,0.12-0.29,0.23-0.43,0.35c-0.05-0.21-0.14-0.5-0.31-0.82C211.67,84.27,211.14,83.86,211.16,83.83z"/>
					<path class="st5" d="M221.42,104.05c0.04,0.05-0.33,0.5-0.62,0.78c-1.67,1.63-4.4,1.54-4.41,1.47c-0.01-0.06,1.64,0,3.43-1.11
						C220.67,104.66,221.36,103.98,221.42,104.05z"/>
				</g>
			</g>
			<g>
				<path class="st6" d="M177.91,190.04c-0.66-2.8-1.7-6.14-3.4-9.73c-1.06-2.25-2.2-4.22-3.31-5.9c-0.79-3.31-1.57-6.61-2.36-9.92
					c-8.01-0.15-16.01-0.31-24.02-0.46c-0.11-0.08-0.22-0.17-0.33-0.25c-7.9,0.24-15.79,0.47-23.69,0.71
					c-0.79,3.31-1.57,6.61-2.36,9.92c-0.34,0.52-0.84,1.3-1.41,2.3c0,0-1.02,1.76-1.89,3.61c-1.89,4-3.21,9-3.4,9.73
					C133.8,190.04,155.85,190.04,177.91,190.04z"/>
				<g>
					<path class="st7" d="M126.51,172.74c-2.3-0.03-4.84-0.07-7.62-0.11c-0.04,0.2-0.08,0.39-0.12,0.59c2.83,0,5.41,0.01,7.74,0
						C126.45,173.07,126.45,172.89,126.51,172.74z"/>
					<path class="st7" d="M128.48,173.23c9.76,0,14.64-0.05,14.64-0.12c0-0.08-4.92-0.19-14.75-0.34c0.07,0.11,0.11,0.24,0.11,0.38
						C128.49,173.17,128.48,173.2,128.48,173.23z"/>
					<path class="st8" d="M128.9,164.84c-0.02,0-0.2,0.76-0.35,1.53c-0.06,0.28-0.18,0.92-0.28,1.63c-0.28,2.06-0.66,4.84,0.21,5.22
						c0.08,0.03,0.23,0.08,0.48,0c-0.03-0.07-0.06-0.13-0.08-0.2c0,0-0.38-0.95-0.44-2.05C128.35,169.26,128.96,164.85,128.9,164.84
						z"/>
					<path class="st7" d="M126.65,174.58c0.01-0.04,0.29,0.03,0.83-0.06c0.93-0.16,1.45-0.64,1.53-0.53
						c0.06,0.08-0.14,0.44-0.47,0.65C127.78,175.13,126.64,174.67,126.65,174.58z"/>
					<path class="st7" d="M161.59,173.99c0.01-0.04,0.45,0.19,1.18,0.18c0.88-0.02,1.31-0.37,1.59-0.12
						c0.17,0.15,0.24,0.48,0.12,0.65C164.08,175.25,161.56,174.08,161.59,173.99z"/>
					<path class="st7" d="M164.3,173.4c2.08,0.13,3.74-0.08,4.88-0.3c0.63-0.12,1.34-0.29,1.33-0.35c-0.02-0.1-1.97,0.23-4.7,0.18
						c-0.59-0.01-1.08-0.04-1.41-0.06C164.38,173.04,164.34,173.22,164.3,173.4z"/>
					<path class="st7" d="M161.69,173.05c-0.01-0.23-16.39,0-16.39,0.23c0,0.13,5.06,0.35,10.17,0.18
						C158,173.37,161.69,173.16,161.69,173.05z"/>
					<path class="st8" d="M165.99,190.04c0.23,0,0.46,0,0.69,0c-0.19-1.11-0.45-2.65-0.77-4.48c-1.5-8.74-1.69-9.62-1.71-9.62
						c-0.05,0.01,0.85,4.95,1.59,12.1C165.87,188.84,165.94,189.52,165.99,190.04z"/>
					<path class="st7" d="M144.78,164.25c0.11,0,0.21,1.74,0.24,2.83c0.05,2.65-0.33,5.2-0.47,5.19
						C144.3,172.26,144.55,164.25,144.78,164.25z"/>
					<path class="st7" d="M145.3,190.04c-0.16-2.75-0.13-4.77-0.05-6.19c0.01-0.13,0.01-0.15,0.02-0.27
						c0.04-0.76,0.1-2.65-0.13-5.04c-0.22-2.22-0.66-4.5-0.83-4.49c-0.15,0.02,0,2.15,0.12,4.72c0.12,2.67,0.23,6.5,0.14,11.27
						C144.81,190.04,145.05,190.04,145.3,190.04z"/>
					<path class="st8" d="M125.46,190.04c0.41-5,0.77-9.4,0.64-9.41c-0.12-0.01-0.66,3.8-1.33,9.4
						C125,190.03,125.23,190.04,125.46,190.04z"/>
					<path class="st8" d="M163.79,165.02c0.05,0,0.15,0.51,0.35,1.53c0.14,0.7,0.24,1.32,0.28,1.63c0.26,1.97,0.09,5.22-0.11,5.22
						C163.98,173.41,163.57,165.04,163.79,165.02z"/>
				</g>
			</g>
			<g>
				<path class="st2" d="M212.26,144.93c-2.88-4.14-5.04-7.02-5.73-7.95c-3.64-4.94-8.94-13.22-16.05-27.87
					c-6,5.79-12,11.59-18,17.38c7.36,10.91,13.79,18.78,18.95,24.46c0.28,0.3,0.43,0.47,0.53,0.58c1.96,2.12,16.44,17.83,22.48,14.7
					c0.6-0.31,1.34-1.27,2.83-3.19c1.62-2.09,2.72-4,3.43-5.35C218.85,154.74,215.98,150.27,212.26,144.93z"/>
				<path class="st9" d="M204.63,134.31c0.51,2.25,1,5.58,0.59,9.57c-0.51,4.97-2.17,8.75-3.38,11c-2.66-4.76-3.07-8.52-2.92-11.13
					c0.11-1.9,0.51-3.02,1.26-7.61c0.52-3.19,0.85-5.81,1.04-7.56C202.36,130.49,203.5,132.4,204.63,134.31z"/>
				<path class="st3" d="M189.74,143.14c7.79-4.19,12.53-10.1,15.11-14.01c-3.15-6.13-6.95-13.2-11.43-21.01
					c-4.02-7.01-6.84-11.57-12.42-15.01c-2.74-1.69-5.29-2.59-7.02-3.08c-2.47-0.97-3.18-1.12-5.52-2.13
					c-4.46-1.92-5.6-2.62-6.47-3.35c-0.42-0.35-0.73-0.66-0.91-0.84c-0.46,0.63-6.61,8.75-17.04,8.25
					c-9.25-0.44-14.44-7.32-15.11-8.23c-0.19,0.19-0.46,0.45-0.8,0.73c-0.04,0.03-0.48,0.4-1,0.75c-0.54,0.37-1.79,1.17-5.5,2.62
					c-0.11,0.04-0.01,0-0.86,0.33c-3.99,1.53-3.72,1.45-4.73,1.82c-1.92,0.71-2.91,1-4.4,1.55c-0.66,0.21-1.32,0.46-1.99,0.77
					c-5.87,2.7-8.84,8.16-10.21,11.38c-2.83,9.34-5.65,18.67-8.48,28.01c6.89,1.39,13.77,2.77,20.66,4.16
					c1.65,10.34,3.3,20.69,4.96,31.03c20.15-0.11,40.3-0.22,60.44-0.33c0.97-8.67,1.93-17.34,2.9-26c0.94,1.84,1.88,3.68,2.82,5.52
					C184.89,145.41,187.27,144.47,189.74,143.14z"/>
				<path class="st10" d="M179.11,93.51c-0.27-0.05-1.84,5.82-2.56,12.13c-1.43,12.52,0.92,22.8,1.31,22.77
					c0.38-0.03-1.16-9.46,0.15-24.21C178.55,98.17,179.35,93.55,179.11,93.51z"/>
				<path class="st2" d="M208.81,116.45c-2.11,11.57-4.73,20.21-6.92,26.31c-1.21,3.36-2.82,7.46-1.46,12.17
					c1.65,5.7,6.61,8.74,8.02,9.59c1.77,1.07,3.87,2.34,5.71,1.59c1.19-0.49,1.49-1.51,3.49-4.41c1.69-2.45,2.36-3.01,3.04-4.01
					c1.59-2.35,1.3-6.56,0.93-14.73c-0.01-0.23-0.29-6.43-0.3-6.56C217.15,129.75,212.98,123.1,208.81,116.45z"/>
				<path class="st3" d="M104.23,129.68c4.32,0.54,8.6,1.34,12.88,2.14c1.84-6.33,3.92-13.45,6.21-21.25
					c-6.87-1.02-13.75-2.04-20.62-3.06c-1.7,8.26-3.41,15.48-4.98,21.6C99.89,129.22,102.07,129.41,104.23,129.68z"/>
				<path class="st10" d="M110.66,93.29c0.27-0.06,2.07,5.75,3.04,12.02c1.93,12.46-0.02,22.82-0.41,22.8
					c-0.38-0.02,0.78-9.5-1.11-24.19C111.41,97.93,110.42,93.34,110.66,93.29z"/>
				<path class="st2" d="M97.39,122.85c-0.66,1.43-1.54,3.61-2.21,6.36c-1.32,5.41-0.51,7.62-1.45,12.04
					c-1.02,4.78-2.36,4.06-4.63,10.35c-1.88,5.23-3.86,10.72-1.61,15.54c0.23,0.49,0.11,0.13,4.65,6.3
					c3.35,4.55,3.52,4.84,4.15,4.98c4.69,1.04,12.21-16.31,13.01-18.15c2.74-6.29,5.97-15.52,7.55-27.55c-2.03,0.1-5.63,0-9.64-1.69
					C101.6,128.67,98.55,124.6,97.39,122.85z"/>
				<path class="st6" d="M162.99,85.29c-0.28,0.54-0.63,1.11-1.05,1.68c-3.07,4.17-9.49,8.38-16.9,8.4H145
					c-7.39,0-13.81-4.18-16.9-8.33c-0.44-0.59-0.8-1.17-1.09-1.73c-0.06,0.04-0.12,0.08-0.18,0.12c0.29,0.57,0.65,1.15,1.09,1.74
					c3.12,4.19,9.6,8.42,17.07,8.42h0.05c7.48-0.02,13.97-4.28,17.07-8.49c0.42-0.57,0.77-1.13,1.05-1.68
					C163.11,85.38,163.05,85.33,162.99,85.29z"/>
			</g>
		</g>
	</g>
	<g>
		<g>
			<g>
				<path class="st2" d="M163.23,45.44c0.14-0.17,0.65-0.75,1.48-0.84c0.2-0.02,0.85-0.09,1.25,0.3c0.39,0.38,0.35,1,0.3,1.52
					c-0.22,2.2-0.72,3.64-0.72,3.64c-1.14,3.27-1.31,2.84-1.59,4.21c-0.32,1.56-0.16,2.42-0.87,2.92c-0.59,0.41-1.58,0.45-1.86,0.46
					c-0.44,0.02-0.8-0.03-1.06-0.08C161.18,53.54,162.21,49.49,163.23,45.44z"/>
				<path class="st11" d="M163.84,46.96c0.01-0.26,0.7-0.58,1.02-0.38c0.57,0.35-0.02,2.23-0.08,2.39c-0.44,1.36-0.9,1.25-1.33,2.58
					c-0.37,1.14-0.2,1.73-0.8,2.28c-0.47,0.43-1.12,0.55-1.14,0.5c-0.02-0.05,0.45-0.22,0.8-0.61c0.53-0.58,0.48-1.27,0.57-1.97
					c0.29-2.35,1.91-3.74,1.33-4.4C164.07,47.17,163.83,47.12,163.84,46.96z"/>
			</g>
			<g>
				<path class="st2" d="M126.84,45.44c-0.14-0.17-0.65-0.75-1.48-0.84c-0.2-0.02-0.85-0.09-1.25,0.3c-0.39,0.38-0.35,1-0.3,1.52
					c0.22,2.2,0.72,3.64,0.72,3.64c1.14,3.27,1.31,2.84,1.59,4.21c0.32,1.56,0.16,2.42,0.87,2.92c0.59,0.41,1.58,0.45,1.86,0.46
					c0.44,0.02,0.8-0.03,1.06-0.08C128.89,53.54,127.87,49.49,126.84,45.44z"/>
				<path class="st11" d="M126.23,46.96c-0.01-0.26-0.7-0.58-1.02-0.38c-0.57,0.35,0.02,2.23,0.08,2.39
					c0.44,1.36,0.9,1.25,1.33,2.58c0.37,1.14,0.2,1.73,0.8,2.28c0.47,0.43,1.12,0.55,1.14,0.5c0.02-0.05-0.45-0.22-0.8-0.61
					c-0.53-0.58-0.48-1.27-0.57-1.97c-0.29-2.35-1.91-3.74-1.33-4.4C126.01,47.17,126.24,47.12,126.23,46.96z"/>
			</g>
		</g>
		<g>
			<path class="st5" d="M135.13,65.31c0.26,0.61,0.68,1.48,1.35,2.41c1.05,1.45,2.11,2.25,3.7,3.41c1.99,1.46,3.02,2.2,4.47,2.36
				c0.98,0.11,1.74-0.07,2.5-0.25c0.1-0.02,0.22-0.05,0.34-0.09c1.78-0.5,4.07-2.02,4.4-2.24c0.76-0.51,1.96-1.3,3.62-2.39
				c0.01-0.38,0.02-0.96,0.09-1.67c0.07-0.75,0.15-1.3,0.18-1.52c0.11-0.75,0.26-1.94,0.39-3.77c-1.74,0.94-5.53,2.67-10.63,2.62
				c-5.3-0.05-9.18-2.01-10.89-3C134.81,62.56,134.97,63.93,135.13,65.31z"/>
			<path class="st2" d="M163.76,37.21c-0.15-2.8-0.39-6.77-2.67-10.96c-0.83-1.53-3.4-6.08-8.98-8.48c-6.64-2.85-12.73-0.58-14.14,0
				c-1.21,0.49-6.14,2.65-9.09,7.86c-2.19,3.87-2.39,7.56-2.56,11.46c-0.11,2.41,0.08,4.14,0.45,7.59c0.1,0.95,0.73,6.57,2.77,13.56
				c0.74,2.52,1.26,3.85,2.28,5.24c1.15,1.56,2.5,2.63,4.18,3.95c0.32,0.25,1.66,1.29,3.57,2.43c2.06,1.22,3.13,1.57,3.67,1.7
				c0.1,0.02,0.2,0.04,0.2,0.04c0.31,0.07,0.88,0.18,1.61,0.18c0.73,0,1.29-0.12,1.61-0.18c0,0,0.1-0.02,0.2-0.04
				c0.54-0.13,1.62-0.48,3.67-1.7c1.91-1.14,3.25-2.18,3.57-2.43c1.68-1.32,3.03-2.38,4.18-3.95c1.01-1.38,1.53-2.7,2.28-5.24
				c2-6.82,2.63-12.33,2.76-13.55C163.69,41.14,163.88,39.37,163.76,37.21z"/>
			<g>
				<g>
					<path class="st12" d="M150.24,57.97c-0.85-0.23-1.48-0.39-2.35-0.49c-1.07-0.12-1.98-0.08-2.61-0.01
						c-0.04,0.47-0.08,0.94-0.11,1.41c-0.04-0.47-0.08-0.94-0.11-1.41c-0.64-0.06-1.54-0.11-2.61,0.01c-0.87,0.1-1.5,0.26-2.35,0.49
						c-0.78,0.21-1.82,0.52-3.02,0.99c0.58,0.63,1.8,1.78,3.78,2.55c1.77,0.69,3.37,0.78,4.32,0.76c0.95,0.02,2.55-0.07,4.32-0.76
						c1.98-0.78,3.2-1.92,3.78-2.55C152.07,58.49,151.03,58.18,150.24,57.97z"/>
					<path class="st5" d="M151.64,59.46c-0.03,0.02-0.08,0.05-0.15,0.08c-2.11,1.15-4.1,1.19-6.15,1.21
						c-2.14,0.02-4.13,0.01-6.28-1.09c-0.19-0.1-0.34-0.18-0.45-0.25c-0.57-0.1-1.14-0.19-1.71-0.29c0.5,0.86,2.11,3.4,5.14,4.5
						c1.53,0.56,2.9,0.56,3.15,0.55c1.59-0.01,2.75-0.45,3.23-0.64c2.91-1.14,4.48-3.54,5.02-4.45
						C152.85,59.22,152.24,59.34,151.64,59.46z"/>
					<path class="st13" d="M153.69,58.9c-0.6-0.41-2.64-1.76-4.4-2.19c-0.34-0.08-0.61-0.15-0.99-0.17
						c-0.87-0.05-1.18,0.2-2.31,0.22c-0.19,0-0.64,0.01-0.76,0.01c-0.04,0-0.62,0-0.83,0c-1.14-0.01-1.45-0.28-2.36-0.23
						c-0.39,0.02-0.66,0.09-0.99,0.17c-1.76,0.44-3.76,1.76-4.4,2.19c0.49,0.46,0.91,0.59,1.2,0.63c0.9,0.1,1.4-0.64,2.86-0.87
						c0.33-0.05,0.57-0.06,0.66-0.06c0.65,0.01,1.09,0.25,2.93,0.32c0.36,0.01,0.97,0.04,1.76,0c1.48-0.07,1.81-0.26,2.38-0.3
						c0,0,0.31-0.02,0.63,0c1.27,0.09,2.29,1.09,3.47,0.89C152.79,59.46,153.2,59.33,153.69,58.9z"/>
				</g>
				<g>
					<g class="st4">
						<path class="st5" d="M140.26,53.39c-0.27,0.16-3.87,2.37-4.92,3.85c-0.18,0.25-0.47,0.68-0.45,1.23
							c0.02,0.34,0.18,0.63,0.51,1.21c0.3,0.54,0.73,1.2,0.8,1.18c0.1-0.04-1.06-1.31-0.8-2.76c0.01-0.07,0.03-0.12,0.03-0.15
							c0.27-1.04,1.05-1.67,1.63-2.13C138,55.09,139.05,54.27,140.26,53.39z"/>
						<path class="st5" d="M132.14,58.95c-0.08,0.03,0.26,0.84,0.6,1.43c0.52,0.9,1.27,1.71,1.36,1.67
							C134.26,61.96,132.3,58.88,132.14,58.95z"/>
					</g>
					<g class="st4">
						<path class="st5" d="M151.87,53.9c0.44,0.42,2.02,1.98,2.98,3.36c0.22,0.32,0.47,0.72,0.45,1.23
							c-0.02,0.34-0.18,0.63-0.51,1.21c-0.3,0.54-0.73,1.2-0.8,1.18c-0.1-0.04,1.06-1.31,0.8-2.76c-0.06-0.33-0.18-0.63-1.36-2.21
							C152.81,55.08,152.27,54.39,151.87,53.9z"/>
						<path class="st5" d="M158.05,58.97c0.08,0.03-0.26,0.84-0.6,1.43c-0.52,0.9-1.27,1.71-1.36,1.67
							C155.93,61.98,157.89,58.9,158.05,58.97z"/>
					</g>
				</g>
				<g>
					<g>
						<path class="st13" d="M144.35,54.64c0.04-0.06-0.24-0.31-0.53-0.49c-0.25-0.15-0.65-0.39-0.9-0.22
							c-0.16,0.11-0.23,0.37-0.14,0.48c0.09,0.11,0.3-0.01,0.68,0C143.99,54.44,144.31,54.71,144.35,54.64z"/>
						<path class="st5" d="M141.34,52.36c-0.04-0.01-0.53,0.98-0.1,1.6c0.32,0.45,1,0.52,1.04,0.44c0.04-0.09-0.65-0.28-0.92-0.92
							C141.13,52.91,141.37,52.37,141.34,52.36z"/>
					</g>
					<g>
						<path class="st13" d="M145.65,54.64c-0.04-0.07,0.26-0.33,0.53-0.49c0.26-0.15,0.64-0.38,0.9-0.22
							c0.17,0.1,0.26,0.34,0.19,0.45c-0.07,0.11-0.26,0.04-0.58,0.05C146.06,54.45,145.7,54.72,145.65,54.64z"/>
						<path class="st5" d="M148.66,52.36c0.04-0.01,0.53,0.98,0.1,1.6c-0.32,0.45-1,0.52-1.04,0.44c-0.04-0.09,0.65-0.28,0.92-0.92
							C148.87,52.91,148.63,52.37,148.66,52.36z"/>
					</g>
				</g>
				<g>
					<path class="st5" d="M149.17,46.43c-0.02,0.05,0.47,0.33,0.99,0.53c1.03,0.39,2.03,0.37,2.04,0.31
						c0.01-0.03-0.29-0.07-1.17-0.31C149.81,46.63,149.2,46.38,149.17,46.43z"/>
					<path class="st5" d="M140.81,46.43c0.02,0.05-0.47,0.33-0.99,0.53c-1.03,0.39-2.03,0.37-2.04,0.31
						c-0.01-0.03,0.29-0.07,1.17-0.31C140.17,46.63,140.79,46.38,140.81,46.43z"/>
				</g>
				<g>
					<g>
						<path class="st5" d="M157.08,43.86c0.03-0.07-0.84-0.74-1.78-1.06c-2.67-0.92-5.54,1.12-5.5,1.21
							c0.04,0.09,2.78-1.69,5.66-0.8C156.25,43.47,157.05,43.92,157.08,43.86z"/>
						<g>
							<path class="st12" d="M156.47,45.86c-0.19-0.33-0.61-0.92-1.37-1.37c-0.86-0.5-1.67-0.51-2.09-0.53
								c-2.01-0.09-3.52,1.32-3.91,1.71c0.48-0.01,1.21-0.01,2.09,0.11c0.23,0.03,0.43,0.07,0.62,0.1c0.52,0.1,0.86,0.2,1.02,0.24
								c1.45,0.38,2.96-0.04,3.06-0.06C156.15,45.99,156.35,45.91,156.47,45.86z"/>
							<path class="st13" d="M156.47,45.86c0.37-0.08,0.73-0.15,1.1-0.23c-0.33-0.31-0.84-0.71-1.52-1.06
								c-0.34-0.18-0.99-0.5-1.9-0.65c-1.36-0.21-2.44,0.13-2.73,0.23c-1.21,0.42-1.97,1.14-2.32,1.52
								c0.75-0.38,3.43-1.63,6.09-0.53C155.69,45.34,156.11,45.59,156.47,45.86z"/>
							<path class="st13" d="M151.93,44.19c0.61-0.24,1.26-0.39,1.91-0.16c0.15,0.05,0.27,0.01,0.35-0.07
								c0.15,0.06,0.28,0.12,0.41,0.19c0.1,0.22,0.16,0.46,0.16,0.72c0,0.91-0.74,1.65-1.65,1.65s-1.65-0.74-1.65-1.65
								c0-0.17,0.03-0.33,0.07-0.49C151.66,44.32,151.79,44.26,151.93,44.19z"/>
							<path class="st5" d="M156.47,45.86c-0.62,0.45-1.19,0.64-1.56,0.73c-1.53,0.38-3.03-0.13-3.62-0.33
								c-0.13-0.05-0.39-0.14-0.78-0.25c-0.59-0.17-1.07-0.28-1.4-0.34c0.18-0.01,0.49-0.02,0.87-0.01
								c2.19,0.04,3.07,0.61,4.73,0.53C155.13,46.17,155.74,46.1,156.47,45.86z"/>
						</g>
					</g>
					<g>
						<path class="st5" d="M132.99,43.86c-0.03-0.07,0.84-0.74,1.78-1.06c2.67-0.92,5.54,1.12,5.5,1.21
							c-0.04,0.09-2.78-1.69-5.66-0.8C133.82,43.47,133.02,43.92,132.99,43.86z"/>
						<g>
							<path class="st12" d="M133.13,45.71c0.38-0.35,0.98-0.84,1.84-1.22c0.3-0.13,1.14-0.49,2.09-0.53
								c2.01-0.09,3.52,1.32,3.91,1.71c-0.48-0.01-1.21-0.01-2.09,0.11c-0.81,0.11-1.35,0.27-1.63,0.34
								C136.4,46.33,135.1,46.4,133.13,45.71z"/>
							<path class="st13" d="M133.6,45.86c-0.37-0.08-0.73-0.15-1.1-0.23c0.33-0.31,0.84-0.71,1.52-1.06
								c0.34-0.18,0.99-0.5,1.9-0.65c1.36-0.21,2.44,0.13,2.73,0.23c1.21,0.42,1.97,1.14,2.32,1.52c-0.75-0.38-3.43-1.63-6.09-0.53
								C134.39,45.34,133.96,45.59,133.6,45.86z"/>
							<path class="st13" d="M138.14,44.19c-0.61-0.24-1.26-0.39-1.91-0.16c-0.15,0.05-0.27,0.01-0.35-0.07
								c-0.15,0.06-0.28,0.12-0.41,0.19c-0.1,0.22-0.16,0.46-0.16,0.72c0,0.91,0.74,1.65,1.65,1.65s1.65-0.74,1.65-1.65
								c0-0.17-0.03-0.33-0.07-0.49C138.41,44.32,138.28,44.26,138.14,44.19z"/>
							<path class="st5" d="M133.6,45.86c0.62,0.45,1.19,0.64,1.56,0.73c1.53,0.38,3.03-0.13,3.62-0.33
								c0.13-0.05,0.39-0.14,0.78-0.25c0.59-0.17,1.07-0.28,1.4-0.34c-0.18-0.01-0.49-0.02-0.87-0.01
								c-2.19,0.04-3.07,0.61-4.73,0.53C134.94,46.17,134.33,46.1,133.6,45.86z"/>
						</g>
					</g>
				</g>
				<g>
					<path class="st13" d="M130.49,42.01c-0.13-0.19,0.85-1.15,1.78-1.78c0.41-0.28,0.9-0.54,1.48-0.76
						c1.15-0.44,2.55-0.43,5.3-0.39c0.33,0.01,1.03,0.02,1.73,0.42c0.25,0.14,0.39,0.27,0.42,0.3c0.53,0.51,0.85,1.33,0.6,1.68
						c-0.31,0.42-1.3-0.07-3.42-0.46c-1.66-0.3-3.02-0.55-4.56-0.27C131.81,41.14,130.63,42.22,130.49,42.01z"/>
					<path class="st13" d="M159.59,42.01c0.13-0.19-0.85-1.15-1.78-1.78c-0.41-0.28-0.9-0.54-1.48-0.76
						c-1.15-0.44-2.55-0.43-5.3-0.39c-0.33,0.01-1.03,0.02-1.73,0.42c-0.25,0.14-0.39,0.27-0.42,0.3c-0.53,0.51-0.85,1.33-0.6,1.68
						c0.31,0.42,1.3-0.07,3.42-0.46c1.66-0.3,3.02-0.55,4.56-0.27C158.26,41.14,159.44,42.22,159.59,42.01z"/>
				</g>
			</g>
			<g>
				<path class="st14" d="M129.85,46.64c-0.01-0.06,0-0.09-0.02-0.14c-0.01-0.03-0.01-0.06,0-0.09c-0.83-0.55-1.55-1.23-2.14-2.02
					c-0.34-0.45-0.63-0.94-0.88-1.46c-0.03-0.05-0.09-0.08-0.14-0.05c-0.05,0.03-0.08,0.09-0.05,0.14c0.25,0.53,0.55,1.03,0.9,1.49
					c0.64,0.85,1.42,1.58,2.34,2.16C129.86,46.67,129.85,46.65,129.85,46.64z"/>
				<path class="st14" d="M160.42,46.61c0.01-0.05,0-0.08,0.02-0.13c0.01-0.03,0.01-0.05,0-0.08c0.74-0.49,1.38-1.1,1.91-1.8
					c0.3-0.4,0.57-0.84,0.79-1.3c0.02-0.05,0.08-0.07,0.13-0.04c0.05,0.02,0.07,0.08,0.04,0.13c-0.22,0.47-0.49,0.92-0.8,1.33
					c-0.57,0.76-1.27,1.41-2.09,1.93C160.41,46.63,160.42,46.62,160.42,46.61z"/>
				<g>
					<circle class="st15" cx="153.76" cy="46.94" r="6.63"/>
					<circle class="st15" cx="136.48" cy="46.91" r="6.63"/>
					<g>
						<path class="st14" d="M136.48,53.66c-3.72,0-6.74-3.03-6.74-6.74c0-3.72,3.03-6.74,6.74-6.74s6.74,3.03,6.74,6.74
							C143.23,50.63,140.2,53.66,136.48,53.66z M136.48,40.34c-3.62,0-6.57,2.95-6.57,6.57c0,3.62,2.95,6.57,6.57,6.57
							c3.62,0,6.57-2.95,6.57-6.57C143.05,43.29,140.1,40.34,136.48,40.34z"/>
						<path class="st14" d="M153.73,53.74c-3.72,0-6.74-3.03-6.74-6.74c0-3.72,3.03-6.74,6.74-6.74c3.72,0,6.74,3.03,6.74,6.74
							C160.48,50.72,157.45,53.74,153.73,53.74z M153.73,40.43c-3.62,0-6.57,2.95-6.57,6.57c0,3.62,2.95,6.57,6.57,6.57
							c3.62,0,6.57-2.95,6.57-6.57C160.3,43.38,157.35,40.43,153.73,40.43z"/>
						<rect x="143.13" y="46.6" class="st14" width="3.99" height="0.22"/>
					</g>
				</g>
			</g>
			<path class="st1" d="M164.16,32.34c-0.78-6.05-4.88-10.04-5.91-11.03c-4.88-4.7-10.6-5.33-12.92-5.41c0,0,0-0.01,0-0.01
				c-0.04,0-0.09,0-0.13,0c-0.03,0-0.07,0-0.1,0c0,0,0,0,0,0c-0.04,0-0.08,0-0.11,0c-0.04,0-0.08,0-0.11,0c0,0,0,0,0,0
				c-0.03,0-0.07,0-0.1,0c-0.04,0-0.09,0-0.13,0c0,0,0,0.01,0,0.01c-2.32,0.07-8.04,0.71-12.92,5.41
				c-1.03,0.99-5.13,4.99-5.91,11.03c-0.37,2.89-0.13,6.34,0,7.9c0.08,0.99,0.3,2.45,0.75,5.38c0.12,0.8,0.31,1.41,0.48,1.97
				c0.2,0.68,0.41,1.25,0.57,1.65c-0.05-0.56-0.12-1.38-0.13-2.36c-0.03-2.68-0.11-9.1,4.03-14.61c2.69-3.58,5.9-5.1,6.59-5.41
				c1.19-0.54,3.12-1.24,5.65-1.41c0.45-2.07,0.9-4.14,1.35-6.2c0.34,2.07,0.69,4.13,1.03,6.2c1.58,0.09,3.59,0.44,5.74,1.41
				c0.68,0.31,3.9,1.83,6.59,5.41c4.04,5.38,4.04,11.59,4.04,14.21c0,1.12-0.07,2.05-0.13,2.69c0.16-0.38,0.37-0.93,0.57-1.59
				c0.23-0.75,0.39-1.38,0.48-1.97c0.45-2.93,0.67-4.4,0.75-5.38C164.29,38.68,164.54,35.22,164.16,32.34z"/>
		</g>
	</g>
	<g>
		<path class="st9" d="M103.48,148.29c-0.75-3.87-2.97-6.57-4.42-8.02c-0.2,1.28-0.63,3.22-1.67,5.36c-1.58,3.26-2.97,3.66-4.9,6.73
			c-1.38,2.21-4.01,6.4-2.55,10.03c0.93,2.31,3.17,3.54,4.7,4.15C101.24,162,104.74,154.84,103.48,148.29z"/>
		<g>
			<path class="st16" d="M80.5,117.64c-0.54,0.85-1.08,1.71-1.62,2.56c12.75,13.76,25.49,27.52,38.24,41.28
				c7.66-4.1,15.31-8.21,22.97-12.31c-11.73-14.4-23.47-28.8-35.2-43.2C96.76,109.86,88.63,113.75,80.5,117.64z"/>
			<path class="st17" d="M79.1,120.4c0.63-0.89,1.25-1.78,1.88-2.67c7.89-3.71,15.78-7.42,23.68-11.13
				c-0.18,1.31-0.37,2.61-0.55,3.92C95.77,113.81,87.44,117.1,79.1,120.4z"/>
			<path class="st12" d="M104.66,106.6c11.37,14.03,22.74,28.07,34.1,42.1c-0.47,1.39-0.94,2.77-1.41,4.16
				c-11.08-14.11-22.16-28.22-33.24-42.34C104.29,109.21,104.48,107.9,104.66,106.6z"/>
			<path class="st18" d="M78.89,120.2c12.02,14.31,24.03,28.62,36.05,42.93c7.84-3.35,15.68-6.69,23.52-10.04
				c-11.6-14.56-23.21-29.11-34.81-43.67C95.39,113.01,87.14,116.61,78.89,120.2z"/>
		</g>
		<g>
			<path class="st19" d="M81.98,122.99c-0.5,0.79-1.01,1.58-1.51,2.36c11.13,12.84,22.27,25.69,33.4,38.53
				c7.37-3.57,14.74-7.14,22.12-10.71c-10.52-13.58-21.05-27.17-31.57-40.75C96.94,115.95,89.46,119.47,81.98,122.99z"/>
			<path class="st17" d="M80.67,125.54c0.58-0.82,1.17-1.64,1.75-2.46c7.26-3.36,14.52-6.72,21.77-10.07
				c-0.25,1.86-0.49,3.72-0.74,5.59C95.86,120.91,88.26,123.23,80.67,125.54z"/>
			<path class="st12" d="M104.19,113.01c10.2,13.24,20.39,26.48,30.59,39.72c-0.54,1.35-1.08,2.7-1.62,4.05
				c-10.55-13.04-21.09-26.08-31.64-39.12C102.41,116.1,103.3,114.56,104.19,113.01z"/>
			<path class="st14" d="M80.47,125.36c10.94,13.11,21.88,26.22,32.81,39.33c6.9-2.56,13.8-5.12,20.7-7.68
				c-10.77-13.57-21.53-27.15-32.3-40.72C94.61,119.31,87.54,122.33,80.47,125.36z"/>
		</g>
		<g>
			<path class="st2" d="M89.1,171.23c-1-2.06-2.71-5.57-1.66-9.4c0.59-2.16,1.84-3.59,3.04-4.98c0.44-0.51,1.49-1.65,4.85-4.01
				c1.57-1.11,8.57-5.93,9.62-7.19c0.7-0.84,1.23-1.76,1.23-1.76c0.02-0.04,0.05-0.08,0.07-0.12c0.57-1.05,0.84-2.06,1.15-5.35
				c0.39-4.16,0.22-5.39,1.18-7.27c0.11-0.22,0.01-0.02,0.94-1.54c1.79-2.95,2.18-3.61,2.52-4.64c0.23-0.7,0.49-1.73,0.55-3.07
				c0.28-0.08,0.75-0.17,1.26,0c1.1,0.36,1.49,1.6,1.65,2.12c0.44,1.4,0.06,2.65-0.08,3.07c-0.14,0.44-0.12,0.19-1.18,2.36
				c0,0-0.3,0.62-0.71,1.89c-0.23,0.72-0.23,0.86-0.16,0.94c0.32,0.36,1.89-0.52,2.75-1.1c1.56-1.05,2.51-2.29,3.23-3.23
				c0.74-0.97,1.28-1.85,1.64-2.5c-0.35-0.43-0.69-0.86-1.04-1.3c0.28-0.16,0.82-0.41,1.52-0.46c0.18-0.01,1.14-0.06,2.12,0.55
				c0.68,0.42,1.03,0.95,1.18,1.18c0.18,0.28,0.35,0.55,0.39,0.94c0.05,0.42-0.08,0.76-0.16,0.94c0.65-0.39,1.14-0.27,1.26-0.24
				c0.99,0.28,1.22,1.71,1.26,1.97c0.07,0.43,0.04,0.8,0,1.02c0.25,0.05,0.64,0.17,1.02,0.47c0.81,0.64,0.92,1.6,0.94,1.81
				c0.23,0.21,0.57,0.57,0.79,1.1c0.16,0.4,0.25,0.88,0.16,1.89c-0.11,1.15-0.37,2.01-0.47,2.36c-1.02,3.37-1.69,5.02-2.05,5.51
				c-0.39,0.53-0.61,0.72-3.09,2.48c-5.19,3.69-5.95,4.27-6.7,4.89c0,0-2.18,1.78-4.07,3.87c-2.61,2.88-5.34,12.23-10.86,19.83
				c-1.6,2.2-4.79,6.5-7.34,5.83c-0.46-0.12-0.97-0.42-3.44-3.9C90.51,173.53,89.56,172.18,89.1,171.23z"/>
			<path class="st3" d="M112.77,121.8c-0.06,0.86-0.13,1.73-0.19,2.59c0.04,0.37,0.3,0.68,0.65,0.78c0.36,0.1,0.75-0.03,0.97-0.32
				c0.24-0.76,0.19-1.36,0.13-1.69c-0.05-0.3-0.11-0.58-0.32-0.84C113.6,121.83,112.94,121.8,112.77,121.8z"/>
			<g>
				<path class="st5" d="M125.03,127.3c-0.37,0.62-0.93,1.55-1.58,2.7c-0.69,1.21-2.03,3.58-1.95,3.63
					c0.07,0.04,1.19-1.49,2.17-3.34C124.33,129.08,124.76,128.02,125.03,127.3z"/>
				<path class="st5" d="M127.52,130.08c-0.02-0.01-0.12,0.19-0.35,0.64c-0.5,0.94-0.74,1.33-1.05,1.91
					c-0.68,1.24-1.69,3.25-1.61,3.29c0.07,0.04,1-1.39,1.82-3.04C127.02,131.49,127.56,130.1,127.52,130.08z"/>
				<path class="st5" d="M129.49,132.36c-0.2,0.67-0.51,1.68-0.97,2.88c-0.81,2.11-1.5,3.34-1.44,3.37c0.06,0.03,1-1.32,1.67-3.13
					C129.2,134.22,129.4,133.12,129.49,132.36z"/>
			</g>
		</g>
	</g>
</g>
</svg>
