<?xml version="1.0" encoding="utf-8"?>
<!-- Generator: Adobe Illustrator 25.0.0, SVG Export Plug-In . SVG Version: 6.00 Build 0)  -->
<svg version="1.1" id="Camada_1" xmlns="http://www.w3.org/2000/svg" xmlns:xlink="http://www.w3.org/1999/xlink" x="0px" y="0px"
	 viewBox="0 0 290 190" style="enable-background:new 0 0 290 190;" xml:space="preserve">
<style type="text/css">
	.st0{fill:#FFFFFF;}
	.st1{fill:#DEE6F6;}
	.st2{fill:#BECFEC;}
	.st3{fill:#181732;}
	.st4{fill:#EC6764;}
	.st5{fill:#EB5E66;}
	.st6{fill:#F18A8E;}
	.st7{fill:#23234F;}
	.st8{fill:#EF7C81;}
	.st9{fill:#F4A1A7;}
	.st10{fill:#9DC1E7;}
	.st11{fill:#354A9A;}
	.st12{fill:#F2F2F4;}
	.st13{fill:#B1D0EF;}
	.st14{fill:#4658A4;}
	.st15{fill:#94B2DE;}
	.st16{fill:#7F96CC;}
	.st17{fill:#3D4C9B;}
	.st18{fill:#DE534C;}
	.st19{fill:#E5615A;}
	.st20{fill:#21244C;}
	.st21{fill:#F29292;}
	.st22{fill:#EE7269;}
	.st23{fill:#EA6969;}
	.st24{fill:#171730;}
	.st25{clip-path:url(#SVGID_2_);fill:#F9F4F4;}
	.st26{clip-path:url(#SVGID_2_);}
	.st27{fill:#DE4E4E;}
	.st28{clip-path:url(#SVGID_4_);fill:#F9F4F4;}
	.st29{clip-path:url(#SVGID_4_);}
</style>
<rect x="-1284" y="-108.37" class="st0" width="920" height="550"/>
<g>
	<path class="st1" d="M-1254.54,363.74c2.81,4.35,5.89,8.01,9.25,10.86c0,0,61.18-6.14,122.63-5.84c41.65,0.2,83.29,0.4,124.94,0.6
		c1.35,0.01,2.7,0.01,4.05,0.02c0.26,0,0.52,0,0.77,0c1.27,0.01,2.54,0.01,3.82,0.02c0.61,0,1.23,0.01,1.84,0.01
		c2.67,0.01,5.34,0.03,8.02,0.04c41.46,0.2,82.93,0.4,124.39,0.6c1.59,0.01,3.17,0.01,4.76,0.02h0.25
		c23.84,0.11,47.68,0.23,71.52,0.35c11.15,0.05,22.31,0.11,33.46,0.16c7,0.03,14.01,0.07,21.01,0.1
		c11.19,0.05,22.37,0.11,33.56,0.16c26.48,0.13,52.96,0.26,79.43,0.38c9.21,0.04,98.43-0.78,106.44,0.51
		c42.27,6.82,78.93-4.45,83.64-5.99c0.34-0.11,0.51-0.17,0.51-0.17c25.78-66.29,118.31-295.79-41.86-341.73
		c-46.03-13.2-111.18-2.68-159-10.39C-709.65-0.82-730.82-42.35-786.6-62.48c-7.75-2.8-15.43-5.31-23.04-7.52
		c-0.67-0.2-1.35-0.39-2.02-0.58C-875.88-88.75-934.83-84.4-987.1-37.75c-38.61,34.45-26.98,80.67-90.84,118.67
		c-48.17,28.66-126.96-48.95-185.69,82.11C-1284.06,208.63-1282.69,320.26-1254.54,363.74z"/>
	<ellipse class="st2" cx="-829.67" cy="380.17" rx="429.41" ry="56.15"/>
	<g>
		<path class="st3" d="M-827.4,320.56c0,0-0.52,1.87-1.12,4.71c-2.09,9.87,5.45,19.16,15.54,19.16h36c0,0,5.13-3.03,4.88-23.63
			L-827.4,320.56z"/>
		<path class="st4" d="M-824.31,286.02l-3.09,34.54c0,0,26.57,9.15,55.31,0.23l-2.44-36.3l11.28-7.52c0,0-5.63-13.27-13.01-18.19
			c-7.33-4.89-21.75-9.76-36.57-4.2c-14.82,5.55-22.81,21.13-22.81,21.13L-824.31,286.02z"/>
		<path class="st3" d="M-804.93,283.42c-3.52,1.15-6.43,3.68-8.05,7.01c-5.21,10.71-14.01,22.73-14.42,30.12
			c-0.52,9.48,39.38,23.86,39.38,23.86c5.76-3.53-7.23-44.28-7.23-44.28l-4-18.57L-804.93,283.42z"/>
		<path class="st3" d="M-787.68,283.42c-3.52,1.15-6.43,3.68-8.05,7.01c-5.21,10.71-16.38,34.66-16.79,42.06
			c-0.52,9.48,39.11,10.34,39.11,10.34c5.76-3.53-4.59-42.68-4.59-42.68l-4-18.57L-787.68,283.42z"/>
		<g>
			<path class="st3" d="M-776.77,226.42c0.13-3.34,0.26-6.75-0.7-9.95c-3.67-12.25-22.77-15.28-31.82-7.91
				c-3.9,3.18-7.19,7.95-8.69,12.76c-1.8,5.77-0.3,12.77,4.54,16.37c3.42,2.54,7.95,3.11,12.19,2.68c4.24-0.43,8.32-1.75,12.48-2.66
				c1.98-0.43,4.02-0.78,5.84-1.68c1.35-0.66,3.92-1.43,4.87-2.6C-776.69,231.78-776.85,228.44-776.77,226.42z"/>
			<path class="st5" d="M-777.19,226.69c0,0,1.34-1.82,2.29-1.01c2.42,2.08-0.22,4.47-1.93,4.95L-777.19,226.69z"/>
			<path class="st6" d="M-777.26,228.04c1.04-10.91-6.33-20.54-16.45-21.5c-10.12-0.96-19.16,7.11-20.2,18.02
				c-1.04,10.91,6.33,20.54,16.44,21.5C-787.34,247.02-778.3,238.95-777.26,228.04z"/>
			<path class="st6" d="M-802.88,246.5c1.74,2.02,0.31,8.88,0.31,8.88c-0.21,3.42,12.11,3.8,12.31,0.68
				c-0.62-2.58-1.44-7.56,0.9-8.14c1.95-0.48,3.38-1.07,5.36-2.04c11.78-5.77,6.73-21.86,6.73-21.86s-39.09-1.6-35.11,10.7
				C-811.26,238.13-804.71,244.37-802.88,246.5z"/>
			<path class="st3" d="M-798.69,230.66c0.05-1.05-0.76-1.95-1.81-2c-1.05-0.05-1.95,0.76-2,1.81c-0.05,1.05,0.76,1.95,1.81,2
				C-799.63,232.52-798.74,231.71-798.69,230.66z"/>
			<path class="st3" d="M-780.51,228.92c0.05-1.05-0.76-1.95-1.81-2c-1.05-0.05-1.95,0.76-2,1.81c-0.05,1.05,0.76,1.95,1.81,2
				C-781.46,230.79-780.56,229.98-780.51,228.92z"/>
			<path class="st5" d="M-790.08,235.24c-0.24-0.02-0.41-0.23-0.39-0.47c0.02-0.24,0.23-0.41,0.47-0.39c0.5,0.05,0.88-0.2,1.08-0.44
				c0.16-0.19,0.22-0.41,0.17-0.57c-0.09-0.24-1.01-0.92-1.96-1.46c-0.21-0.12-0.28-0.38-0.16-0.59c0.12-0.21,0.38-0.28,0.59-0.16
				c0.64,0.36,2.14,1.27,2.35,1.95c0.14,0.44,0.02,0.95-0.32,1.38C-788.67,235.01-789.38,235.3-790.08,235.24z"/>
			<path class="st7" d="M-803.93,227.73c-0.19-0.01-0.37-0.1-0.49-0.26c-0.21-0.29-0.15-0.69,0.13-0.91
				c1.94-1.44,4.64-1.46,4.76-1.46c0.36,0,0.65,0.29,0.65,0.65c0,0.36-0.29,0.65-0.65,0.65l0,0c-0.02,0-2.39,0.02-3.98,1.21
				C-803.64,227.7-803.79,227.74-803.93,227.73z"/>
			<path class="st7" d="M-780,225.75c-0.1,0-0.2-0.02-0.29-0.07c-1.78-0.9-4.11-0.51-4.13-0.5c-0.36,0.06-0.69-0.18-0.75-0.53
				c-0.06-0.35,0.18-0.69,0.53-0.75c0.11-0.02,2.78-0.46,4.94,0.62c0.32,0.16,0.45,0.55,0.29,0.87
				C-779.54,225.62-779.77,225.75-780,225.75z"/>
			<path class="st3" d="M-811.45,233.21c0.5,0.18,4.55-5.82,7.45-12.22c2.9-6.4,9.79-9.08,9.79-9.08s13.06,3.39,14.74,6.17
				c1.68,2.77,2.77,8.21,2.77,8.21s0.14-8.6-4.16-13.68c-4.31-5.08-11.35-9.18-23.17-5.16
				C-815.87,211.48-817.8,230.85-811.45,233.21z"/>
			<path class="st6" d="M-809.79,232.15c-0.29-0.67-0.84-1.19-1.5-1.5c-1.36-0.63-3.79-1.36-5.56,0.24
				c-2.6,2.35,2.06,9.16,7.14,6.14C-809.71,237.04-808.23,235.7-809.79,232.15z"/>
			<path class="st3" d="M-819.27,215.88c-1.61-1.63-2.64-3.83-2.87-6.11c1.03-0.63,2.45-0.22,3.32,0.62
				c0.87,0.84,1.33,2.01,1.76,3.15c-0.45-3,1.77-5.51,3.75-7.46c2.4-2.37,5.01-4.73,8.23-5.89c4.44-1.61,9.37-1.66,14.03-2.13
				c3.45-0.53,7.02-0.62,10.45-1.09c0.68-0.06,1.35-0.12,2.03-0.17c1.01-0.07,2.9-0.84,3.12,0.68c0.24,1.65-0.55,3.32-1.7,4.53
				c-1.1,1.17-2.51,1.98-3.89,2.76c0.83-0.23,1.7-0.25,2.57-0.17c1.1,0.1,2.21,0.28,3.29,0.5c0.6,0.12,1.21,0.36,1.55,0.87
				c0.19,0.27,0.28,0.6,0.31,0.93c0.27,3-2.85,5.62-5.18,6.89c-7.55,4.09-16.67,3.39-25.1,5c-3.78,0.72-8.1,2.57-11.98,2.08
				c-1.31-0.16-4.62-1.61-5.9-3.09c-0.42-0.48-0.15-1.24,0.47-1.37C-820.43,216.28-819.84,216.12-819.27,215.88z"/>
			<g>
				<path class="st7" d="M-793.1,239.4c-0.09,0.03-0.16,0.09-0.19,0.19c-0.05,0.15,0.03,0.32,0.18,0.37
					c0.18,0.06,4.53,1.48,7.46-1.31c0.12-0.11,0.12-0.3,0.01-0.41c-0.11-0.12-0.3-0.12-0.41-0.01c-2.67,2.55-6.83,1.19-6.87,1.18
					C-792.98,239.39-793.05,239.39-793.1,239.4z"/>
			</g>
		</g>
		<g>
			<path class="st8" d="M-779.11,325.41c0,0,0.37,4.64,0.99,9.24c0,0.01,0,0.01,0,0.01c0.55,4.06,1.3,8.08,2.17,8.87
				c1.06,0.96,16.99,1.45,17.38-1.21c0.36-2.47-8.8-4.53-11.83-8.68c-0.24-0.32-0.41-0.65-0.51-0.99c-1.43-4.77-1.17-9.37-1.17-9.37
				L-779.11,325.41z"/>
			<path class="st8" d="M-789.67,288.84c0.21,1.38,4.23,17.2,7.49,29.98c1.92,7.52,3.58,13.99,4.06,15.82c0,0.01,0,0.01,0,0.01
				c0.09,0.33,0.13,0.51,0.13,0.51l7.76,1.39l-0.18-2.92l-1-16.39l-1.84-30.2c-0.28-2.71-2.85-5.55-7.23-5.47
				C-785.94,281.67-790.45,283.83-789.67,288.84z"/>
		</g>
		<path class="st9" d="M-764.65,277.91c0,0,7.9,18.41,3.67,27.07c-2.89,5.92-22.96-3.12-22.96-3.12v-5.42l13.75,0.21
			c0.18-4.13-4.33-12.16-4.33-12.16L-764.65,277.91z"/>
		<g>
			<path class="st8" d="M-797.04,324.6c0,0,0.35,4.41,0.95,8.99c0.58,4.45,1.39,9.05,2.35,9.92c1.11,1,21.89,1.9,22.3-0.87
				c0.38-2.65-14.1-5.25-16.75-9.8c-0.13-0.22-0.23-0.45-0.3-0.68c-1.49-4.97-1.22-9.77-1.22-9.77L-797.04,324.6z"/>
			<path class="st8" d="M-807.41,288.84c0.26,1.35,4.31,17.32,7.67,30.47v0c1.48,5.81,2.83,11.07,3.65,14.28
				c0.52,2.03,0.83,3.24,0.83,3.24l7.3-0.27l-0.23-3.72l-0.89-14.66l-1.9-31.13c-0.36-3.89-5.52-5.71-8.26-5.48
				C-803.81,281.96-808.08,285.3-807.41,288.84z"/>
		</g>
		<path class="st9" d="M-834.84,276.43c0,0-9.33,19.01-4.55,27.38c4.96,8.68,29.46,2.63,29.46,2.63l0.55-4.96l-19.28-3.63
			c-0.18-4.13,4.36-11.83,4.36-11.83L-834.84,276.43z"/>
		<path class="st9" d="M-809.39,301.48c0,0,4.76-2.96,6.72-3.65c1.96-0.69,3.34-2.81,4.1-1.87c0.76,0.93-2.18,3.64-2.18,3.64
			s4.18,0.57,5.5,0.55c1.31-0.02,3.67,0.54,3.76,1.5c0.09,0.96-6.22,0.62-6.22,0.62s5.29,0.81,5.56,1.68
			c0.27,0.87-6.6,0.83-6.6,0.83s5.68,0.59,6.09,1.02c0.41,0.43-0.14,0.97-2.2,1.25c-2.06,0.28-4.24,0.04-4.24,0.04
			s3.96,0.71,4.41,0.96c0.45,0.25,0.88,0.92-2.22,1.01c-3.1,0.09-9.83-0.8-13.01-2.61L-809.39,301.48z"/>
		<path class="st9" d="M-779.03,297.68c0,0-2.96-4.76-4.41-6.25c-1.45-1.48-1.76-4-2.85-3.5c-1.09,0.5,0.34,4.23,0.34,4.23
			s-4-1.34-5.17-1.94c-1.17-0.6-3.53-1.14-4.03-0.32c-0.51,0.82,5.3,3.31,5.3,3.31s-5.1-1.61-5.73-0.96
			c-0.63,0.66,5.56,3.66,5.56,3.66s-5.35-1.99-5.91-1.78c-0.56,0.21-0.31,0.93,1.42,2.09c1.72,1.16,3.79,1.91,3.79,1.91
			s-3.87-1.12-4.38-1.09s-1.19,0.44,1.54,1.89c2.74,1.45,9.17,3.63,12.82,3.42L-779.03,297.68z"/>
		<path class="st10" d="M-782.17,318.82c1.92,7.52,3.58,13.99,4.06,15.82c0,0.01,0,0.01,0,0.01c0.55,4.06,1.3,8.08,2.17,8.87
			c1.06,0.96,16.5,1.45,16.88-1.21c0.36-2.47-8.31-4.53-11.34-8.68l-1-16.39C-774.42,317.72-779.03,318.38-782.17,318.82z"/>
		<g>
			<path class="st11" d="M-778.47,333.73c0,0,3.69,1.24,8.72,0.25c0,0,14.53,5.54,14.24,9.87c0,0,0.7,1.26-5.88,1.24
				c-6.58-0.02-16.79,0.09-17.07-0.05C-778.75,344.91-781.8,343.41-778.47,333.73z"/>
			<path class="st12" d="M-779.25,345.09c0.29,0.14,10.85,0.01,17.65,0.01c6.8,0,6.08-1.28,6.08-1.28c0.02-0.29-0.03-0.59-0.13-0.89
				l-24.81-0.62C-780.3,344.47-779.41,345.02-779.25,345.09z"/>
		</g>
		<path class="st13" d="M-799.74,319.31L-799.74,319.31c1.48,5.81,2.83,11.08,3.65,14.28c0.58,4.45,1.39,9.05,2.35,9.92
			c1.11,1,18.01,1.59,18.41-1.19c0.38-2.65-10.22-4.93-12.86-9.48l-0.89-14.66C-789.68,318.3-799.74,319.31-799.74,319.31z"/>
		<g>
			<path class="st14" d="M-796.22,333.5c0,0,3.76,1.27,8.89,0.26c0,0,14.82,5.65,14.52,10.07c0,0,0.71,1.29-6,1.27
				c-6.71-0.02-17.12,0.1-17.41-0.05C-796.49,344.9-799.61,343.37-796.22,333.5z"/>
			<path class="st0" d="M-796.54,345.09c0.29,0.14,10.85,0.01,17.65,0.01c6.8,0,6.08-1.28,6.08-1.28c0.02-0.29-0.03-0.59-0.13-0.89
				l-24.81-0.62C-797.59,344.47-796.7,345.02-796.54,345.09z"/>
		</g>
	</g>
	<g>
		<path class="st2" d="M-467.93,127.17c8.09,1.67,15.37,7.51,16.2,20.21c0.78,12.03-5.78,23.93-2.54,35.84
			c3.34,12.23,12.85,16.41,9.38,31.53c-1.24,5.39-3.23,10.64-3.13,16.29c0.21,11.85,8.49,19.09,12.53,28.38
			c5.22,12,3.29,28.52-3.66,38.38c-13.22,18.75-35.63,12.01-52.3,10.24c-9.68-1.03-18.42-7.96-20.85-22.02
			c-2.81-16.32,4.55-24.18,9.15-37.08c4.48-12.56-1.03-27.35-1.17-41.38c-0.15-15.68,8.92-24.29,10.58-38.7
			c1.2-10.42-3-21.16,1.18-31c2.21-5.21,6.31-8.43,10.53-9.83C-477.82,126.66-472.73,126.18-467.93,127.17z"/>
		<rect x="-473.67" y="202.26" class="st15" width="1.93" height="148"/>
		
			<rect x="-481.79" y="231.32" transform="matrix(0.9095 -0.4156 0.4156 0.9095 -147.7671 -177.157)" class="st15" width="1.93" height="39.08"/>
		
			<rect x="-478.71" y="281.83" transform="matrix(0.5713 -0.8207 0.8207 0.5713 -431.3044 -260.1684)" class="st15" width="28" height="1.93"/>
		<path class="st15" d="M-455.34,375.46h-35.61c-0.88,0-1.6-0.72-1.6-1.6v-29.05h38.81v29.05
			C-453.74,374.75-454.46,375.46-455.34,375.46z"/>
	</g>
	<g>
		
			<ellipse transform="matrix(0.9732 -0.2298 0.2298 0.9732 -31.5584 -119.9416)" class="st15" cx="-530.84" cy="75.55" rx="25.4" ry="25.4"/>
		
			<ellipse transform="matrix(0.9523 -0.3052 0.3052 0.9523 -48.3465 -158.5563)" class="st0" cx="-531.34" cy="75.36" rx="20.2" ry="20.2"/>
		<path class="st16" d="M-529.1,75.16c0-1.25-1.01-2.26-2.26-2.26c-1.25,0-2.26,1.01-2.26,2.26c0,1.25,1.01,2.26,2.26,2.26
			C-530.11,77.42-529.1,76.41-529.1,75.16z"/>
		<g>
			<path class="st16" d="M-531.36,75.61h-0.45c-0.25,0-0.45-0.2-0.45-0.45c0-0.25,0.2-0.45,0.45-0.45h0l0.02-13.94l-0.56,0.81
				c-0.14,0.2-0.42,0.25-0.62,0.11c-0.2-0.14-0.26-0.42-0.11-0.62l1.38-2c0.11-0.16,0.31-0.23,0.5-0.17
				c0.19,0.06,0.31,0.23,0.31,0.43l-0.02,15.83C-530.91,75.41-531.11,75.61-531.36,75.61z"/>
			<path class="st16" d="M-529.81,61.65c-0.13,0-0.26-0.06-0.35-0.17l-1.53-1.87c-0.16-0.19-0.13-0.48,0.07-0.63
				c0.19-0.16,0.47-0.13,0.63,0.06l1.53,1.87c0.16,0.19,0.13,0.48-0.07,0.63C-529.61,61.62-529.71,61.65-529.81,61.65z"/>
		</g>
		<g>
			<path class="st16" d="M-539.49,77.07c-0.12,0-0.24-0.05-0.32-0.14l-1.33-1.38c-0.13-0.13-0.16-0.32-0.09-0.49
				c0.07-0.17,0.23-0.27,0.41-0.27h0l10.53,0.02c0.25,0,0.45,0.2,0.45,0.45v0.45c0,0.25-0.2,0.45-0.45,0.45
				c-0.25,0-0.45-0.2-0.45-0.45v0l-9.02-0.02l0.6,0.62c0.17,0.18,0.17,0.46-0.01,0.63C-539.27,77.02-539.38,77.07-539.49,77.07z"/>
			<path class="st16" d="M-540.83,75.68c-0.1,0-0.2-0.03-0.28-0.1c-0.19-0.16-0.22-0.44-0.06-0.63l1.25-1.53
				c0.16-0.19,0.44-0.22,0.63-0.06c0.19,0.16,0.22,0.44,0.06,0.63l-1.25,1.53C-540.57,75.63-540.7,75.68-540.83,75.68z"/>
		</g>
	</g>
	<g>
		<path class="st0" d="M-831.98-9.83h-98.61c-1.28,0-2.31,1.03-2.31,2.31v22.71h103.23V-7.52C-829.67-8.79-830.7-9.83-831.98-9.83z"
			/>
		<path class="st0" d="M-880.41-80.36v75.33h-1.88v-74.78C-881.67-80-881.04-80.19-880.41-80.36z"/>
	</g>
	<g>
		<g>
			<g>
				<rect x="-805.91" y="79.35" class="st0" width="57.61" height="76.48"/>
				<path class="st15" d="M-807.6,77.65v79.86h60.99V77.65H-807.6z M-804.22,81.04h54.23v73.1h-54.23V81.04z"/>
			</g>
			<rect x="-800.64" y="84.01" class="st2" width="46.66" height="67.35"/>
		</g>
		<g>
			<g>
				<rect x="-886.3" y="79.35" class="st0" width="57.61" height="76.48"/>
				<path class="st15" d="M-887.99,77.65v79.86H-827V77.65H-887.99z M-884.61,81.04h54.23v73.1h-54.23V81.04z"/>
			</g>
			<rect x="-881.03" y="84.01" class="st2" width="46.66" height="67.35"/>
		</g>
		<g>
			<g>
				<rect x="-973.99" y="79.35" class="st0" width="57.61" height="76.48"/>
				<path class="st15" d="M-975.68,77.65v79.86h60.99V77.65H-975.68z M-972.3,81.04h54.23v73.1h-54.23V81.04z"/>
			</g>
			<rect x="-968.71" y="84.01" class="st2" width="46.66" height="67.35"/>
		</g>
		<polygon class="st2" points="-1014.52,161.11 -712.99,161.11 -712.99,157.17 -1014.52,157.17 -1014.52,161.11 		"/>
	</g>
	<g>
		<g>
			<g>
				<path class="st6" d="M-527.11,383.48c0,0,21.9-5.04,22.24-4.95c0.35,0.08,2.77-2.09,2.77-2.09l-0.03-6.44l-4.07-5
					c0,0-20.31,4.92-23.65,5.02C-533.18,370.13-527.11,383.48-527.11,383.48z"/>
				<path class="st7" d="M-515.96,367.31c0,0,8.07,3.13,10.31,11.26c0,0,27.31,9.9,31.71,3.47c0,0,2.38-1.01-6.91-8.28
					c-9.29-7.27-23.56-18.76-24.11-18.87C-505.51,354.78-506.46,352.33-515.96,367.31z"/>
			</g>
			<path class="st17" d="M-607.47,274.23c0,0-19.67,7.5-31.57,15.25c-22.34,14.54-47.44,43.57-60.2,72.64
				c-19.57,44.57,75.87-4.63,97.82-30.86C-588.15,315.41-609.05,274.4-607.47,274.23z"/>
			<path class="st17" d="M-694.47,386.52c22.17,24.6,140.35-5.63,140.35-5.63l6.11-16.9c0,0-79.83-20.97-106.23-16.05
				C-680.65,352.87-717.63,360.81-694.47,386.52z"/>
			<path class="st14" d="M-554.43,300.52c0,0-24.03-4.48-37.67-0.52c-25.6,7.42-46.73,35.09-67.4,59.2
				c-2.97,3.46-9.28,14.52-9.5,18.49c-1.43,25.35,86.13-2.62,112.08-19.58C-539.63,346.8-556,300.23-554.43,300.52z"/>
			<path class="st14" d="M-662.68,392.79c22.17,24.6,147.66-5.74,147.66-5.74l-6.68-25.07c0,0-67.04-12.79-93.44-7.87
				C-641.56,359.03-685.84,367.09-662.68,392.79z"/>
			<path class="st15" d="M-613.72,163.36c0,0,40.7,3.54,48.73,12.65c8.04,9.11,18.86,35.23,18.86,35.23l-31.31,9.91l16.76,48.36
				l11.75,43.86c0,0-49.05,10.17-107.9-9.82l-1.64-66.18l-24.19-8.58c0,0,14.42-45.34,26.71-51.81
				C-634.61,165.76-613.72,163.36-613.72,163.36L-613.72,163.36z"/>
			<path class="st5" d="M-653.15,149.02c0,0-2.59-1.72-3.49-0.22c-2.29,3.83,2.28,5.66,4.76,5.47L-653.15,149.02L-653.15,149.02z"/>
			<path class="st6" d="M-657.43,140.52l0.02-0.01c-0.11-0.25-0.22-0.49-0.32-0.75c-4.51-11.18,1.6-24.16,13.61-28.22
				c10-3.38,21.01,0.86,25.72,9.92c1.75,3.36,2.46,6.95,2.29,10.45c-0.02,5.32-0.09,9.88-0.52,13.83
				c-0.71,6.53,0.86,13.04,4.3,18.56l2.7,4.34c-9.77,11.43-17.79,7.82-17.79,7.82l-3.69-8.49c-0.48-1.11-1.76-1.64-2.94-1.23
				c-0.01,0-0.01,0-0.02,0.01C-649.76,172.07-654.73,147.2-657.43,140.52L-657.43,140.52z"/>
			<path class="st3" d="M-632.62,142.23c-0.41-1,0.1-2.15,1.14-2.58c1.03-0.42,2.2,0.04,2.6,1.04c0.4,1-0.11,2.16-1.14,2.58
				C-631.05,143.7-632.21,143.23-632.62,142.23L-632.62,142.23z"/>
			<path class="st3" d="M-650.53,145.83c-0.4-1,0.11-2.16,1.14-2.58c1.03-0.42,2.2,0.04,2.6,1.04c0.4,1-0.11,2.16-1.14,2.58
				C-648.96,147.3-650.13,146.83-650.53,145.83L-650.53,145.83z"/>
			<path class="st3" d="M-627.06,136.65c0.19-0.08,0.37-0.21,0.5-0.38c0.4-0.52,0.3-1.24-0.21-1.61c-1.55-1.13-5.37-2.28-8.74,1.47
				c-0.44,0.48-0.4,1.21,0.08,1.63c0.48,0.41,1.23,0.35,1.66-0.13c2.77-3.08,5.44-1.18,5.55-1.1
				C-627.87,136.77-627.44,136.81-627.06,136.65L-627.06,136.65z"/>
			<path class="st3" d="M-645.73,141.02c0.19-0.08,0.37-0.21,0.5-0.38c0.4-0.51,0.3-1.24-0.21-1.61c-1.55-1.13-5.37-2.28-8.73,1.47
				c-0.44,0.48-0.4,1.21,0.08,1.63c0.48,0.41,1.22,0.36,1.66-0.13c2.76-3.08,5.44-1.18,5.55-1.1
				C-646.54,141.14-646.1,141.18-645.73,141.02L-645.73,141.02z"/>
			<polygon class="st3" points="-615.23,123.87 -615.37,139.27 -619.3,140.07 -628.34,123.98 -615.23,123.87 			"/>
			<path class="st6" d="M-620.04,139.88c0.07-0.76,0.44-1.48,1.01-2.02c1.17-1.11,3.37-2.71,5.71-1.77
				c3.43,1.38,1.03,9.75-5.15,8.62C-618.46,144.71-620.41,143.93-620.04,139.88L-620.04,139.88z"/>
			<path class="st5" d="M-639.58,152.74c2.14,0.11,3.36-1.48,3.37-1.5c0.12-0.15,0.08-0.37-0.07-0.48
				c-0.16-0.11-0.37-0.07-0.49,0.08c-0.06,0.08-1.42,1.83-3.84,0.99c-0.39-0.14-0.63-0.28-0.7-0.43c-0.1-0.21,0.06-0.6,0.27-1.14
				c0.49-1.24,1.31-3.31,0.4-6.85c-0.05-0.18-0.24-0.29-0.42-0.24c-0.19,0.05-0.3,0.24-0.25,0.42c0.86,3.33,0.11,5.2-0.38,6.43
				c-0.27,0.67-0.47,1.19-0.26,1.67c0.15,0.34,0.49,0.58,1.09,0.79C-640.4,152.64-639.97,152.72-639.58,152.74L-639.58,152.74z"/>
			<path class="st3" d="M-657.25,131.64c0,0-2.09,3.15,1.97,15.25c0,0-6.29-12.76-5.37-14.83
				C-659.73,129.98-657.25,131.64-657.25,131.64L-657.25,131.64z"/>
			<path class="st0" d="M-631.69,154.61l-12.15,2.94c0,0,0.21,5.47,6.54,4.09C-630.96,160.26-631.69,154.61-631.69,154.61
				L-631.69,154.61z"/>
			<path class="st3" d="M-616.02,117.25c-1.14-2.41-2.84-4.54-4.67-6.47c-1.83-1.93-4.3-3.38-6.96-3.48
				c-1.21-0.05-2.48,0.16-3.58-0.35c-0.74-0.35-1.28-1-1.96-1.47c-2.72-1.91-6.54-0.49-9.14,1.58c-2.6,2.07-4.84,4.8-8.01,5.8
				c-3.53,1.12-8.05,0.06-10.48,2.85c-0.82,0.94-1.22,2.17-1.91,3.2c-1.36,2.03-3.7,3.13-5.8,4.39c-2.1,1.25-4.22,3-4.56,5.42
				c-0.4,2.81,2.29,5.61,5.11,5.34c0.54-0.05,1.08-0.2,1.61-0.13c2.35,0.27,2.85,3.93,5.12,4.61c1.17,0.35,2.41-0.25,3.36-0.99
				c0.96-0.75,1.8-1.68,2.9-2.19c2.43-1.11,5.34,0.13,7.92-0.56c3.67-0.97,5.38-5.35,8.78-7.02c5.04-2.48,11.02,1.85,16.55,0.83
				C-614.89,127.34-613.52,122.52-616.02,117.25L-616.02,117.25z"/>
			<g>
				<path class="st7" d="M-617.66,360.18l-0.07-0.51c0.44-0.06,43.82-5.62,62.69-3.27l-0.06,0.51
					C-573.91,354.56-617.23,360.12-617.66,360.18z"/>
			</g>
			<path class="st6" d="M-551.01,212.79c0,0,11.18,48.59,7.09,62.68c-4.09,14.09-43.36,47.39-43.36,47.39l-6.23-8.73
				c0,0,28.11-28.55,25.25-45.56c-2.86-17.02-9.17-47.41-9.17-47.41L-551.01,212.79z"/>
			<path class="st6" d="M-678.04,230.44c0,0-5.21,17.68-4.61,33.44c0.6,15.75,11.65,46.86,11.65,46.86l11.18-0.1l1.37-73.25
				L-678.04,230.44z"/>
			<g>
				<polygon class="st18" points="-718.88,279.34 -708.49,255.49 -660.7,295.88 -695.49,302.86 				"/>
				<polygon class="st0" points="-588.39,331.86 -584.88,328.45 -645.11,281.99 -716.12,276.76 -717.37,279.48 -627.46,330.27 				
					"/>
				<polygon class="st19" points="-646.6,286.3 -583.8,335.45 -668.65,329.84 -718.88,279.34 				"/>
				<polygon class="st0" points="-716.12,276.76 -706.37,255.49 -673.52,279.9 				"/>
			</g>
		</g>
		<path class="st6" d="M-591.65,313.13c0,0-13.99-2.28-18.88-1.93c-4.89,0.35-9.89-2.84-10.66-0.17c-0.76,2.66,8.15,5.65,8.15,5.65
			s-8.54,5.04-11.4,6.2c-2.87,1.16-7.45,4.5-6.74,6.6c0.71,2.1,14.07-4.41,14.07-4.41s-10.7,6.56-10.47,8.63
			c0.23,2.07,15.1-4.33,15.1-4.33s-11.76,6.46-12.23,7.74c-0.47,1.29,1.21,1.92,5.94,0.62c4.73-1.31,9.23-3.82,9.23-3.82
			s-7.92,5.14-8.65,6.08c-0.73,0.94-1.03,2.74,5.77,0.09c6.8-2.65,20.55-10.71,25.75-17.44L-591.65,313.13L-591.65,313.13z"/>
	</g>
	<g>
		<path class="st20" d="M-1112.99,370.74h-54.3c-2.51,0-4.56-2.05-4.56-4.56V340.1c0-2.51,2.05-4.56,4.56-4.56h54.3
			c2.51,0,4.56,2.05,4.56,4.56v26.09C-1108.44,368.69-1110.49,370.74-1112.99,370.74z"/>
		<g>
			<g>
				<path class="st21" d="M-1068.67,379.51c-2.19,1.75-17.88-4.16-17.88-4.16c-1.2-5.32-2.07-12.44-2.69-20.38h15.34
					c-0.32,7.23-0.46,12.5-0.25,13.82C-1073.27,374.26-1066.48,377.76-1068.67,379.51z"/>
				<path class="st20" d="M-1087.66,369.33c1.19,0.85,2.79,2.08,4.86,3.86c3.73,3.21,9.22,2.06,11.66,1.31
					c1.91,2.32,3.77,3.97,2.47,5.01c-2.19,1.75-17.88-4.16-17.88-4.16C-1086.96,373.55-1087.32,371.51-1087.66,369.33z"/>
			</g>
			<path class="st22" d="M-1134.67,310.27c0,0,44.08-7.36,55.15,2.62c11.07,9.98,6.04,50.41,6.04,50.41h-16.68
				c0,0-0.36-29.61-3.32-29.61c-1.53,0-69.21,16.22-61.09-21.99L-1134.67,310.27z"/>
			<g>
				<path class="st21" d="M-1091.89,379.51c-2.19,1.75-17.88-4.16-17.88-4.16c-1.2-5.32-2.07-12.44-2.69-20.38h15.34
					c-0.32,7.23-0.46,12.5-0.25,13.82C-1096.49,374.26-1089.7,377.76-1091.89,379.51z"/>
				<path class="st20" d="M-1110.88,369.33c1.19,0.85,2.79,2.08,4.86,3.86c3.73,3.21,9.22,2.06,11.66,1.31
					c1.91,2.32,3.77,3.97,2.47,5.01c-2.19,1.75-17.88-4.16-17.88-4.16C-1110.18,373.55-1110.54,371.51-1110.88,369.33z"/>
			</g>
			<path class="st22" d="M-1095.74,310.27c10.38,10.69-0.97,53.03-0.97,53.03h-16.68c0,0,0.07-23.71-3.37-25.64
				c-1.34-0.75-47.18,2.62-38.49-28.21C-1155.25,309.44-1099.77,306.11-1095.74,310.27z"/>
			<g>
				<path class="st20" d="M-1093.07,346.81l-0.29-0.06c2.19-11.4,0.78-20.32-4.19-26.51c-6.64-8.28-17.48-8.7-17.59-8.7l0.01-0.3
					c0.11,0,11.08,0.42,17.81,8.81C-1092.3,326.32-1090.87,335.32-1093.07,346.81z"/>
			</g>
			<path class="st21" d="M-1108.53,248.8c0,0,0.93,20.93,8.42,25.09c8.59,4.76,15.78-2.98,15.78-2.98l6.3,3.03
				c0,0-14.65,24.27-31.77,10.91c-11.17-8.72-10.52-27.05-10.52-27.05L-1108.53,248.8z"/>
			<path class="st21" d="M-1084.5,271.77c0,0,0.46-6.07,1.11-8.22c0.65-2.15-0.31-4.73,0.99-4.79c1.3-0.06,1.79,4.24,1.79,4.24
				s3.18-3.3,4-4.46c0.82-1.16,2.82-2.87,3.72-2.33c0.9,0.54-3.44,5.84-3.44,5.84s4.09-4.11,5.03-3.79
				c0.93,0.32-3.51,6.31-3.51,6.31s4.15-4.6,4.79-4.67c0.64-0.08,0.76,0.74-0.31,2.72c-1.08,1.98-2.69,3.73-2.69,3.73
				s3.16-3.01,3.67-3.24c0.51-0.23,1.37-0.18-0.54,2.6c-1.9,2.77-7,8.09-10.62,9.71L-1084.5,271.77z"/>
			<path class="st20" d="M-1149.38,176.22c0,0-4.99,5.46-18.75,6.12c-13.75,0.67-8.35,17.25-9.98,20.44
				c-1.63,3.18-7.73,7.08-5.66,13.07c2.07,5.98,7.33,7.68,6.53,13.51c-0.79,5.83,1.05,19.07,11.64,18.06
				c10.59-1.01,15.46,16.72,38.57,5.79c23.11-10.93,16.22-25.18,23.32-31.11c7.61-6.35,0.67-21.64-10.96-26.59
				C-1126.28,190.56-1124.07,167.13-1149.38,176.22z"/>
			<path class="st0" d="M-1157.59,311.61c0,0,27.53,6.07,56.86-4.01l-4.63-29.33c0,0-3.77-33.23-9.21-36.15
				c-5.44-2.92-18.02-8.04-32.98-1.58C-1165.08,248.1-1157.59,311.61-1157.59,311.61z"/>
			<path class="st20" d="M-1119.96,208.27c-0.65-3.37-1.33-6.8-3.03-9.77c-6.53-11.37-26.31-9.92-33.62-0.45
				c-3.15,4.08-5.32,9.62-5.69,14.77c-0.44,6.18,2.68,12.82,8.37,15.28c4.01,1.73,8.67,1.24,12.79-0.17
				c4.13-1.42,7.9-3.69,11.84-5.57c1.88-0.9,3.83-1.72,5.44-3.04c1.2-0.98,3.57-2.34,4.26-3.73
				C-1118.63,213.6-1119.57,210.3-1119.96,208.27z"/>
			<path class="st23" d="M-1120.32,208.64c0,0,0.91-2.14,2.05-1.54c2.9,1.51,0.83,4.52-0.76,5.39L-1120.32,208.64z"/>
			<path class="st21" d="M-1120.08,210c-1.52-11.14-11.12-19.03-21.45-17.62c-10.33,1.41-17.47,11.58-15.95,22.72
				c1.52,11.14,11.12,19.03,21.45,17.62C-1125.7,231.31-1118.56,221.14-1120.08,210z"/>
			<path class="st21" d="M-1141.34,234.43c2.21,1.61,2.39,8.79,2.39,8.79c0.59,3.47,12.97,0.96,12.45-2.21
				c-1.22-2.43-3.2-7.21-1-8.34c1.84-0.94,3.13-1.86,4.87-3.29c10.41-8.52,1.61-23.4,1.61-23.4s-39.39,7.55-32.55,18.9
				C-1151.66,228.04-1143.66,232.74-1141.34,234.43z"/>
			<path class="st24" d="M-1140.85,217.64c-0.19-1.06-1.21-1.77-2.28-1.57c-1.06,0.19-1.77,1.21-1.57,2.28
				c0.19,1.06,1.21,1.77,2.28,1.57C-1141.36,219.72-1140.66,218.7-1140.85,217.64z"/>
			<path class="st24" d="M-1123.12,211.65c-0.19-1.06-1.21-1.77-2.28-1.57c-1.06,0.19-1.77,1.21-1.57,2.28
				c0.19,1.06,1.21,1.77,2.28,1.57C-1123.63,213.73-1122.92,212.71-1123.12,211.65z"/>
			<path class="st23" d="M-1131.19,220.19c-0.24,0.03-0.47-0.14-0.5-0.38c-0.03-0.24,0.14-0.47,0.38-0.5
				c0.51-0.07,0.84-0.4,0.98-0.7c0.11-0.23,0.12-0.46,0.03-0.61c-0.15-0.22-1.22-0.68-2.3-1c-0.24-0.07-0.37-0.32-0.3-0.55
				c0.07-0.24,0.32-0.37,0.55-0.3c0.72,0.21,2.43,0.77,2.81,1.4c0.24,0.41,0.25,0.95,0.01,1.45
				C-1129.84,219.64-1130.47,220.09-1131.19,220.19z"/>
			<path class="st20" d="M-1146.85,215.86c-0.19,0.03-0.39-0.03-0.54-0.17c-0.27-0.25-0.29-0.67-0.04-0.94
				c1.67-1.83,4.39-2.38,4.5-2.4c0.37-0.07,0.71,0.17,0.78,0.53c0.07,0.36-0.16,0.71-0.52,0.78l0,0c-0.02,0-2.4,0.49-3.78,1.99
				C-1146.56,215.77-1146.7,215.84-1146.85,215.86z"/>
			<path class="st20" d="M-1123.4,208.6c-0.1,0.01-0.2,0-0.31-0.03c-1.94-0.66-4.24,0.05-4.27,0.06c-0.35,0.11-0.73-0.08-0.84-0.43
				c-0.11-0.35,0.08-0.73,0.43-0.84c0.11-0.04,2.76-0.85,5.1-0.05c0.35,0.12,0.53,0.5,0.41,0.85
				C-1122.95,208.4-1123.16,208.57-1123.4,208.6z"/>
			<path class="st20" d="M-1153,223.17c0.54,0.07,3.18-6.87,4.58-13.94c1.4-7.07,7.65-11.35,7.65-11.35s13.83,0.33,16.16,2.71
				c2.32,2.37,4.68,7.55,4.68,7.55s-1.87-8.62-7.36-12.68c-5.49-4.06-13.48-6.51-24.34,0.28
				C-1162.5,202.51-1159.9,222.3-1153,223.17z"/>
			<path class="st21" d="M-1151.59,221.72c-0.45-0.6-1.11-1-1.85-1.15c-1.51-0.31-4.1-0.47-5.49,1.54c-2.04,2.96,4.2,8.67,8.57,4.46
				C-1150.36,226.58-1149.2,224.9-1151.59,221.72z"/>
			<path class="st21" d="M-1138.97,256.76c0,0-5.65,20.46,0.9,25.98c8.23,6.94,15.78-2.98,15.78-2.98l6.3,3.03
				c0,0-14.65,24.27-31.77,10.91c-11.17-8.72-10.52-27.05-10.52-27.05L-1138.97,256.76z"/>
			<path class="st0" d="M-1147.55,240.54c0,0-18.04,6.88-10.73,41.69l20.2-8.21l3.65-21.44L-1147.55,240.54z"/>
			<path class="st0" d="M-1124.59,221.63l-9.61,2.82c0,0,3.77,3.2,6.76,2.18C-1124.45,225.61-1124.59,221.63-1124.59,221.63
				L-1124.59,221.63z"/>
			<path class="st0" d="M-1119.94,240.5c0,0,10.89,1.32,13.92,10.63c3.02,9.31,6.86,19.16,6.86,19.16l-9.04,7.75L-1119.94,240.5z"/>
			<path class="st21" d="M-1122.46,280.63c0,0,0.46-6.07,1.11-8.22c0.65-2.15-0.31-4.73,0.99-4.79c1.3-0.06,1.79,4.24,1.79,4.24
				s3.18-3.3,4-4.46c0.82-1.16,2.82-2.87,3.72-2.33c0.9,0.54-3.45,5.84-3.45,5.84s4.09-4.11,5.03-3.79
				c0.93,0.32-3.51,6.31-3.51,6.31s4.15-4.6,4.79-4.67c0.64-0.08,0.76,0.74-0.31,2.72c-1.08,1.98-2.69,3.73-2.69,3.73
				s3.16-3.01,3.67-3.24c0.51-0.23,1.37-0.18-0.54,2.59c-1.9,2.77-7,8.09-10.62,9.71L-1122.46,280.63z"/>
		</g>
	</g>
	<g>
		<path class="st6" d="M-891.37,301.39c0,0,23.22-11.98,27-22.08c3.78-10.1,4.61-29.2,4.61-29.2h6.62c0,0,2.14,23.79-3.01,38.59
			c-5.15,14.8-22.29,26.08-22.29,26.08L-891.37,301.39z"/>
		<path class="st8" d="M-899.32,369.18c0,0,27.54,13.95,27.54,30.01c0,2.08-2.82,5.97-9.25,6.04c-19.15,0.21-58.58,0-58.58,0
			l18.76-32.43L-899.32,369.18z"/>
		<path class="st6" d="M-927.98,363.43c1.41,1.41,40.57,19.62,37.26,33.83c-0.52,2.22-4.3,8.14-11.37,8.07
			c-23.2-0.23-71.58-1.29-71.58-1.29l-0.05-4.84c0,0,34.11-10.92,43.44-10.92c0,0-23.27-14.98-13.31-24.84
			C-933.62,353.56-927.98,363.43-927.98,363.43z"/>
		<path class="st3" d="M-903.12,379.06c0,0,6.05-2.85,18.09-0.48l-4.72-9.4c0,0-18.68,5.17-20.26,4.29
			C-911.59,372.59-903.12,379.06-903.12,379.06z"/>
		<path class="st3" d="M-903.12,379.06c0,0-13.93-5.95-27.15,9.21c0,0-16.88,3.65-17.49-7.66c-0.83-15.33,5.69-19.29,5.69-19.29
			l32.07,12.16L-903.12,379.06z"/>
		<path class="st10" d="M-881.6,321.03l-3.8,51.83c0,0-31.75,6.17-61.21-8.7l9.64-38.54l-13.44-12.21c0,0,10.69-11.56,19.56-15.54
			c8.81-3.95,19.94-4.46,37.29-4.68c9.16-0.12,18.38-1.99,18.38-1.99l10.98,15.38L-881.6,321.03z"/>
		<g>
			<path class="st4" d="M-882.22,263.56c0.16-3.64,0.3-7.37-0.73-10.87c-3.96-13.38-24.8-16.75-34.7-8.74
				c-4.27,3.45-7.88,8.65-9.53,13.9c-1.98,6.29-0.38,13.93,4.9,17.88c3.72,2.78,8.67,3.42,13.29,2.97
				c4.62-0.45,9.09-1.88,13.63-2.86c2.17-0.47,4.39-0.84,6.38-1.81c1.48-0.72,4.28-1.55,5.33-2.82
				C-882.16,269.41-882.32,265.76-882.22,263.56z"/>
			<path class="st5" d="M-882.68,263.86c0,0,1.47-1.99,2.5-1.09c2.63,2.28-0.26,4.88-2.12,5.4L-882.68,263.86z"/>
			<path class="st6" d="M-882.77,265.33c1.17-11.91-6.83-22.44-17.87-23.52c-11.04-1.08-20.94,7.69-22.1,19.6
				c-1.17,11.91,6.83,22.44,17.87,23.52C-893.83,286.01-883.94,277.23-882.77,265.33z"/>
			<path class="st6" d="M-916.28,281.55c1.89,2.21,3.17,8.58,2.15,11.31c-1.3,2.74-1.11,4.48,0.25,5.46
				c4.97,3.56,10.16,2.39,12.6,1.59c2.6-0.84,3.81-2.84,2.81-5.39c-1.05-2.69-0.35-6.86,1.83-7.39c2.13-0.52,4.3-1.31,6.46-2.36
				c12.87-6.26,7.42-23.83,7.42-23.83s-42.65-1.88-38.35,11.56C-919.91,276.23-918.26,279.23-916.28,281.55z"/>
			<path class="st3" d="M-906.16,268.11c0.06-1.15-0.82-2.13-1.97-2.19c-1.15-0.06-2.13,0.82-2.19,1.97
				c-0.06,1.15,0.82,2.13,1.97,2.19C-907.2,270.14-906.22,269.26-906.16,268.11z"/>
			<path class="st3" d="M-886.32,266.28c0.06-1.15-0.82-2.13-1.97-2.19c-1.15-0.06-2.13,0.82-2.19,1.97
				c-0.06,1.15,0.82,2.13,1.97,2.19C-887.36,268.31-886.38,267.43-886.32,266.28z"/>
			<path class="st5" d="M-896.78,273.14c-0.26-0.03-0.45-0.26-0.42-0.52c0.03-0.26,0.26-0.45,0.52-0.42
				c0.54,0.05,0.96-0.21,1.18-0.48c0.17-0.21,0.24-0.44,0.18-0.62c-0.1-0.26-1.09-1.01-2.13-1.6c-0.23-0.13-0.31-0.42-0.18-0.64
				c0.13-0.23,0.42-0.31,0.64-0.18c0.69,0.4,2.33,1.4,2.56,2.14c0.15,0.48,0.02,1.04-0.35,1.5
				C-895.25,272.9-896.02,273.21-896.78,273.14z"/>
			<path class="st7" d="M-912.66,265.04c-0.2,0-0.4-0.09-0.54-0.26c-0.25-0.3-0.21-0.75,0.09-1c2.03-1.69,4.97-1.88,5.09-1.88
				c0.4-0.02,0.73,0.28,0.75,0.67c0.02,0.39-0.28,0.73-0.67,0.75l0,0c-0.03,0-2.6,0.17-4.27,1.56
				C-912.34,264.99-912.5,265.04-912.66,265.04z"/>
			<path class="st7" d="M-885.59,262.41c-0.1-0.02-0.2-0.07-0.29-0.15c-1.67-1.4-4.23-1.58-4.26-1.58
				c-0.39-0.02-0.69-0.36-0.66-0.75c0.02-0.39,0.36-0.69,0.75-0.66c0.12,0.01,3.06,0.21,5.08,1.91c0.3,0.25,0.34,0.7,0.09,1
				C-885.06,262.39-885.34,262.47-885.59,262.41z"/>
			<path class="st4" d="M-920.1,270.85c0.54,0.2,4.98-6.33,8.17-13.31c3.19-6.97,10.71-9.87,10.71-9.87s14.24,3.75,16.06,6.78
				c1.82,3.03,2.99,8.97,2.99,8.97s0.19-9.38-4.49-14.94c-4.68-5.56-12.36-10.06-25.27-5.71
				C-924.84,247.12-927.02,268.25-920.1,270.85z"/>
			<path class="st6" d="M-918.28,269.7c-0.32-0.73-0.91-1.31-1.63-1.64c-1.49-0.69-4.13-1.5-6.07,0.24
				c-2.84,2.56,2.22,10.01,7.78,6.73C-918.2,275.04-916.59,273.58-918.28,269.7z"/>
			<path class="st0" d="M-894.08,277.7c0,1.02-0.71,1.84-1.59,1.84c-0.88,0-1.59-0.82-1.59-1.84s0.71-1.84,1.59-1.84
				C-894.8,275.86-894.08,276.68-894.08,277.7z"/>
		</g>
		<path class="st4" d="M-923.53,255.77c0,0-13.99-5.01-22.64,7.08c-8.64,12.09-5.55,18.61-1.26,21c4.29,2.39,15.38,2.9,15.52-4.3
			c0.12-5.77-4.02-8.51-2.03-11.04c3.8-4.83,2.63-9.5,6.21-10.2c3.58-0.69,5.57-0.78,5.57-0.78L-923.53,255.77z"/>
		<path class="st6" d="M-859.81,251.02c0,0-0.18-7.16,0.06-9.42c0.24-2.26-1.21-4.63,0.08-4.94c1.28-0.31,2.58,3.87,2.58,3.87
			s2.53-3.88,3.13-5.19c0.6-1.31,2.26-3.38,3.25-3.02c0.99,0.36-2.32,6.45-2.32,6.45s3.29-4.85,4.28-4.72
			c0.99,0.14-2.29,6.93-2.29,6.93s3.25-5.35,3.88-5.55c0.62-0.2,0.9,0.59,0.21,2.76c-0.69,2.17-1.96,4.21-1.96,4.21
			s2.57-3.59,3.03-3.91c0.46-0.32,1.33-0.43-0.04,2.68c-1.37,3.11-5.42,9.35-8.71,11.65L-859.81,251.02z"/>
		<path class="st6" d="M-948.53,315.1c0,0-10.23,20.84-4.99,30.02c5.44,9.52,32.3,2.88,32.3,2.88l0.6-5.44l-19.41-4.76
			c2.15-5,3.05-12.19,3.05-12.19L-948.53,315.1z"/>
		<path class="st6" d="M-920.62,342.57c0,0,5.22-3.25,7.37-4c2.15-0.75,3.67-3.08,4.5-2.05s-2.39,3.99-2.39,3.99s4.59,0.62,6.03,0.6
			c1.44-0.02,4.02,0.59,4.12,1.64c0.1,1.05-6.82,0.68-6.82,0.68s5.8,0.89,6.09,1.84c0.3,0.95-7.24,0.91-7.24,0.91
			s6.23,0.64,6.67,1.12c0.44,0.48-0.15,1.06-2.41,1.37c-2.26,0.31-4.65,0.04-4.65,0.04s4.34,0.78,4.83,1.06
			c0.49,0.28,0.96,1.01-2.44,1.11c-3.4,0.1-10.77-0.88-14.26-2.86L-920.62,342.57z"/>
		<g>
			<path class="st0" d="M-973.66,404.03l17.16,0.36l-0.47-10.24l-11.52,1.7C-968.49,395.85-975.73,401.58-973.66,404.03z"/>
			<path class="st3" d="M-968.49,395.85c0,0-3.28,2.82-5.17,8.18c0,0-13.51,10.74-17.49,8c0,0-1.6-0.05,2.14-6.32
				c3.74-6.27,9.42-16.08,9.71-16.27C-979.01,389.26-975.85,387.2-968.49,395.85z"/>
			<path class="st0" d="M-979.16,389.11c-0.29,0.19-6.03,10.16-9.81,16.52c-3.78,6.36-2.18,6.41-2.18,6.41
				c0.26,0.18,0.57,0.3,0.91,0.37l14.35-22.89C-978,388.48-979,389.01-979.16,389.11z"/>
		</g>
	</g>
	<g>
		<g>
			<path class="st0" d="M-982.84,338.3l-0.56-16.4l-8.45-1.67l-0.59,17.72C-992.44,337.95-985.38,340.25-982.84,338.3z"/>
			<path class="st3" d="M-992.37,336.27c0,0,4.09,1.38,9.68,0.28c0,0,16.13,6.15,15.8,10.96c0,0,0.77,1.4-6.53,1.38
				c-7.3-0.02-18.64,0.1-18.95-0.05C-992.67,348.68-996.06,347.02-992.37,336.27z"/>
			<path class="st0" d="M-992.72,348.89c0.31,0.16,11.81,0.01,19.21,0.01c7.4,0.01,6.62-1.39,6.62-1.39
				c0.02-0.32-0.03-0.64-0.15-0.97l-27.01-0.67C-993.86,348.21-992.9,348.8-992.72,348.89z"/>
		</g>
		<g>
			<path class="st0" d="M-1021.69,338.3l-0.56-16.4l-8.45-1.67l-0.59,17.72C-1031.28,337.95-1024.23,340.25-1021.69,338.3z"/>
			<path class="st3" d="M-1031.22,336.27c0,0,4.09,1.38,9.68,0.28c0,0,16.13,6.15,15.8,10.96c0,0,0.77,1.4-6.53,1.38
				c-7.3-0.02-18.64,0.1-18.95-0.05C-1031.52,348.68-1034.91,347.02-1031.22,336.27z"/>
			<path class="st0" d="M-1031.57,348.89c0.31,0.16,11.81,0.01,19.21,0.01c7.4,0.01,6.62-1.39,6.62-1.39
				c0.02-0.32-0.03-0.64-0.15-0.97l-27.01-0.67C-1032.71,348.21-1031.75,348.8-1031.57,348.89z"/>
		</g>
		<polygon class="st14" points="-1036.18,239.64 -1033.72,326.85 -1017.6,327.97 -1009.46,269.44 -994.82,328.8 -978.14,327.97 
			-986.49,233.4 		"/>
		<path class="st6" d="M-992.98,184.41c0,0,15.5,23.1,31.84,34.24l-3.1,6.64c0,0-29.62-16.15-38.77-30.01
			C-1003.01,195.27-996.26,187.87-992.98,184.41z"/>
		<path class="st0" d="M-1037.83,209.08l0.39,38.02c0,0,27.07,4.71,53.43-8.37l-13.04-36.05c0,0,3.64-3.41,6.18-8.21
			c1.03-1.95,2.71-7.18,2.71-7.18s-4.37-7.62-9.68-10.1c-10.79-5.04-23.41-4.84-36.85,2.83c-13.44,7.66-19.94,24.14-19.94,24.14
			s6.26,7.53,12.89,8.59L-1037.83,209.08z"/>
		<path class="st3" d="M-1008.84,144.68c-0.55-3.21-1.11-6.48-2.67-9.34c-5.95-10.92-24.75-9.97-31.89-1.15
			c-3.08,3.81-5.25,9.01-5.72,13.9c-0.55,5.85,2.27,12.22,7.61,14.68c3.76,1.73,8.2,1.37,12.14,0.11c3.95-1.26,7.57-3.33,11.35-5.03
			c1.8-0.81,3.67-1.55,5.23-2.77c1.16-0.9,3.44-2.15,4.12-3.45C-1007.69,149.77-1008.51,146.62-1008.84,144.68z"/>
		<path class="st5" d="M-1009.18,145.03c0,0,0.91-2.01,1.98-1.42c2.72,1.5,0.69,4.3-0.84,5.1L-1009.18,145.03z"/>
		<path class="st6" d="M-1008.98,146.32c-1.2-10.6-10.15-18.29-19.98-17.17c-9.83,1.12-16.82,10.61-15.62,21.21
			c1.2,10.6,10.15,18.29,19.97,17.17C-1014.77,166.42-1007.78,156.92-1008.98,146.32z"/>
		<path class="st6" d="M-1029.67,169.05c2.06,1.57,2.08,8.39,2.08,8.39c0.49,3.3,12.29,1.18,11.86-1.83
			c-1.11-2.34-2.89-6.91-0.77-7.93c1.76-0.85,3.01-1.7,4.7-3.02c10.05-7.86,2.02-22.17,2.02-22.17s-37.54,6.32-31.29,17.24
			C-1039.33,162.76-1031.84,167.39-1029.67,169.05z"/>
		<path class="st3" d="M-1028.91,152.62c-0.42-0.93-1.52-1.35-2.46-0.93c-0.93,0.42-1.35,1.52-0.93,2.46
			c0.42,0.93,1.41,0.67,2.34,0.24C-1029.02,153.97-1028.49,153.56-1028.91,152.62z"/>
		<path class="st3" d="M-1011.9,147.82c-0.16-1.01-1.11-1.7-2.13-1.54c-1.01,0.16-1.7,1.11-1.54,2.13c0.16,1.01,1.01,0.92,2.02,0.76
			C-1012.53,149-1011.74,148.83-1011.9,147.82z"/>
		<path class="st5" d="M-1019.74,155.75c-0.23,0.03-0.44-0.14-0.47-0.37c-0.03-0.23,0.14-0.44,0.37-0.47
			c0.48-0.05,0.8-0.37,0.94-0.64c0.11-0.22,0.13-0.43,0.04-0.57c-0.13-0.21-1.14-0.68-2.16-1c-0.22-0.07-0.34-0.31-0.27-0.53
			c0.07-0.22,0.31-0.34,0.53-0.27c0.68,0.22,2.29,0.78,2.63,1.38c0.22,0.39,0.21,0.9-0.03,1.37
			C-1018.45,155.26-1019.06,155.68-1019.74,155.75z"/>
		<path class="st7" d="M-1034.51,151.31c-0.18,0.02-0.37-0.04-0.51-0.17c-0.25-0.24-0.26-0.64-0.02-0.89
			c1.63-1.7,4.21-2.16,4.32-2.18c0.35-0.06,0.67,0.17,0.73,0.52c0.06,0.34-0.17,0.67-0.51,0.73l0,0c-0.02,0-2.29,0.41-3.62,1.81
			C-1034.23,151.23-1034.36,151.3-1034.51,151.31z"/>
		<path class="st7" d="M-1012.11,144.92c-0.09,0.01-0.19,0-0.29-0.04c-1.82-0.67-4.03-0.04-4.05-0.03c-0.34,0.1-0.69-0.09-0.78-0.43
			c-0.1-0.33,0.09-0.69,0.43-0.78c0.11-0.03,2.63-0.75,4.84,0.06c0.33,0.12,0.5,0.48,0.37,0.81
			C-1011.67,144.74-1011.88,144.89-1012.11,144.92z"/>
		<path class="st3" d="M-1041.07,159.73c0.51,0.08,3.73-8.08,5.21-14.75c1.48-6.67,7.5-10.61,7.5-10.61s13.12,0.61,15.27,2.91
			c2.15,2.3,4.28,7.26,4.28,7.26s-1.59-8.22-6.71-12.19c-5.12-3.97-12.65-6.46-23.1-0.26
			C-1049.07,138.3-1047.59,158.76-1041.07,159.73z"/>
		<path class="st6" d="M-1035.39,158.48c-0.41-0.58-1.04-0.97-1.73-1.13c-1.43-0.33-3.88-0.54-5.25,1.35c-2,2.76,3.8,8.31,8.04,4.42
			C-1034.33,163.12-1033.2,161.55-1035.39,158.48z"/>
		<path class="st0" d="M-1013.66,157.14c0.03-2.76-0.99-2.05-2.45-1.37c-4.43,2.07-7.95,2.14-8.17,2.46
			c-0.56,0.81,2.8,4.3,6.23,4.16C-1014.62,162.24-1013.68,158.82-1013.66,157.14z"/>
		<path class="st3" d="M-1051.42,143.18c-1.86-1.23-3.29-3.12-3.96-5.25c0.86-0.81,2.28-0.7,3.28-0.08c1,0.63,1.67,1.65,2.31,2.64
			c-1.03-2.77,0.58-5.6,2.07-7.86c1.81-2.74,3.82-5.51,6.65-7.26c3.91-2.42,8.59-3.46,12.93-4.85c3.18-1.19,6.56-2,9.73-3.14
			c0.63-0.19,1.26-0.38,1.89-0.57c0.95-0.27,2.59-1.38,3.1,0.02c0.56,1.53,0.14,3.27-0.71,4.66c-0.82,1.33-1.99,2.39-3.15,3.41
			c0.74-0.39,1.57-0.58,2.41-0.67c1.07-0.12,2.16-0.18,3.23-0.19c0.59-0.01,1.23,0.1,1.65,0.51c0.23,0.22,0.38,0.51,0.48,0.82
			c0.86,2.81-1.59,5.93-3.55,7.6c-6.37,5.41-15.19,6.57-22.9,9.8c-3.45,1.45-7.19,4.07-10.99,4.39c-1.28,0.11-4.72-0.61-6.24-1.75
			c-0.49-0.37-0.39-1.15,0.18-1.4C-1052.44,143.79-1051.92,143.52-1051.42,143.18z"/>
		<path class="st6" d="M-1028.85,220.72c0,0,4.67-2.65,6.58-3.24c1.9-0.58,3.31-2.56,4-1.64c0.69,0.92-2.23,3.4-2.23,3.4
			s3.99,0.7,5.24,0.73c1.26,0.03,3.49,0.66,3.54,1.58c0.05,0.92-5.98,0.35-5.98,0.35s5.03,0.98,5.26,1.82
			c0.23,0.84-6.36,0.54-6.36,0.54s5.42,0.78,5.79,1.21c0.37,0.43-0.17,0.92-2.15,1.11c-1.99,0.19-4.06-0.13-4.06-0.13
			s3.77,0.83,4.18,1.09c0.42,0.26,0.8,0.92-2.17,0.89c-2.97-0.03-9.38-1.14-12.36-3L-1028.85,220.72z"/>
		<path class="st6" d="M-963.34,218.01c0,0,5.3,0.87,7.15,1.61c1.85,0.74,4.19,0.09,4.14,1.24c-0.04,1.15-3.87,1.25-3.87,1.25
			s2.66,3.05,3.62,3.87c0.96,0.81,2.31,2.71,1.76,3.45c-0.54,0.75-4.88-3.48-4.88-3.48s3.3,3.92,2.95,4.72
			c-0.35,0.8-5.29-3.57-5.29-3.57s3.73,4.01,3.74,4.58c0.02,0.57-0.71,0.61-2.37-0.49c-1.66-1.1-3.08-2.65-3.08-2.65
			s2.41,3.01,2.57,3.48c0.16,0.46,0.05,1.22-2.24-0.67c-2.29-1.89-6.58-6.78-7.73-10.1L-963.34,218.01z"/>
		<path class="st6" d="M-1054.06,219.15c1.76,3.59,9.96,5.13,16.39,5.8c4.48,0.46,8.11,0.5,8.11,0.5l0.71-4.73
			c0,0-4.65-1.31-8.89-2.97c-3.44-1.34-6.61-2.92-6.85-4.23c-0.07-0.39,0.01-0.91,0.2-1.53c-3.28-1.3-6.26-3.8-8.14-5.63
			C-1054.23,211.32-1055.37,216.48-1054.06,219.15z"/>
	</g>
	<g>
		<defs>
			
				<ellipse id="SVGID_1_" transform="matrix(0.7071 -0.7071 0.7071 0.7071 -508.9013 -461.6379)" cx="-811.7" cy="383.48" rx="27.83" ry="27.83"/>
		</defs>
		<clipPath id="SVGID_2_">
			<use xlink:href="#SVGID_1_"  style="overflow:visible;"/>
		</clipPath>
		<ellipse class="st25" cx="-814.39" cy="383.75" rx="41.48" ry="37.62"/>
		<g class="st26">
			<path class="st27" d="M-818.88,414.72c0,0,11.49,25.32,20.83,0.18c9.34-25.14-4.13-45.43-4.13-45.43
				C-797.51,386.53-818.88,414.72-818.88,414.72z"/>
			<path class="st27" d="M-845.27,373.24c-1.8,4.85,5.75,32.5,5.75,32.5c12.57-29.99,37.35-36.27,37.35-36.27
				C-819.78,361.93-843.48,368.4-845.27,373.24z"/>
			<path class="st27" d="M-779.02,374.5c0,0-8.26-8.44-23.16-5.03c0,0,16.7,7.54,22.26,18.13
				C-774.35,398.2-779.02,374.5-779.02,374.5z"/>
			<path class="st27" d="M-823.01,350.44c0,0,16.34,9.34,20.83,19.03c0,0-0.9-16.34-4.67-22.09
				C-810.62,341.64-823.01,350.44-823.01,350.44z"/>
		</g>
	</g>
</g>
<rect x="0.55" class="st0" width="289.45" height="189.27"/>
<g>
	<path class="st1" d="M9.78,164.87c0.88,1.36,1.85,2.51,2.9,3.4c0,0,19.17-1.92,38.41-1.83c13.05,0.06,26.09,0.13,39.14,0.19
		c0.42,0,0.85,0,1.27,0.01c0.08,0,0.16,0,0.24,0c0.4,0,0.8,0,1.2,0.01c0.19,0,0.38,0,0.58,0c0.84,0,1.67,0.01,2.51,0.01
		c12.99,0.06,25.98,0.13,38.97,0.19c0.5,0,0.99,0,1.49,0.01h0.08c7.47,0.04,14.94,0.07,22.4,0.11c3.49,0.02,6.99,0.03,10.48,0.05
		c2.19,0.01,4.39,0.02,6.58,0.03c3.5,0.02,7.01,0.03,10.51,0.05c8.29,0.04,16.59,0.08,24.88,0.12c2.88,0.01,30.84-0.24,33.35,0.16
		c13.24,2.14,24.73-1.4,26.2-1.88c0.11-0.03,0.16-0.05,0.16-0.05c8.08-20.77,37.06-92.66-13.11-107.05
		c-14.42-4.14-34.83-0.84-49.81-3.26c-27.74-4.47-34.37-17.48-51.85-23.79c-2.43-0.88-4.84-1.66-7.22-2.35
		c-0.21-0.06-0.42-0.12-0.63-0.18c-20.12-5.69-38.58-4.33-54.96,10.28c-12.1,10.79-8.45,25.27-28.46,37.17
		c-15.09,8.98-39.77-15.34-58.17,25.72C0.53,116.28,0.96,151.25,9.78,164.87z"/>
	<ellipse class="st2" cx="142.88" cy="170.02" rx="134.52" ry="17.59"/>
	<g>
		<path class="st3" d="M143.59,151.34c0,0-0.16,0.59-0.35,1.47c-0.65,3.09,1.71,6,4.87,6h11.28c0,0,1.61-0.95,1.53-7.4
			L143.59,151.34z"/>
		<path class="st4" d="M144.56,140.52l-0.97,10.82c0,0,8.32,2.87,17.33,0.07l-0.76-11.37l3.53-2.36c0,0-1.76-4.16-4.07-5.7
			c-2.3-1.53-6.81-3.06-11.46-1.32c-4.64,1.74-7.15,6.62-7.15,6.62L144.56,140.52z"/>
		<path class="st3" d="M150.63,139.71c-1.1,0.36-2.01,1.15-2.52,2.2c-1.63,3.36-4.39,7.12-4.52,9.44
			c-0.16,2.97,12.34,7.48,12.34,7.48c1.8-1.11-2.26-13.87-2.26-13.87l-1.25-5.82L150.63,139.71z"/>
		<path class="st3" d="M156.03,139.71c-1.1,0.36-2.01,1.15-2.52,2.2c-1.63,3.36-5.13,10.86-5.26,13.17
			c-0.16,2.97,12.25,3.24,12.25,3.24c1.8-1.11-1.44-13.37-1.44-13.37l-1.25-5.82L156.03,139.71z"/>
		<g>
			<path class="st3" d="M159.45,121.85c0.04-1.05,0.08-2.12-0.22-3.12c-1.15-3.84-7.13-4.79-9.97-2.48c-1.22,1-2.25,2.49-2.72,4
				c-0.56,1.81-0.1,4,1.42,5.13c1.07,0.8,2.49,0.97,3.82,0.84c1.33-0.13,2.61-0.55,3.91-0.83c0.62-0.14,1.26-0.25,1.83-0.52
				c0.42-0.21,1.23-0.45,1.53-0.81C159.48,123.53,159.43,122.48,159.45,121.85z"/>
			<path class="st5" d="M159.32,121.94c0,0,0.42-0.57,0.72-0.32c0.76,0.65-0.07,1.4-0.6,1.55L159.32,121.94z"/>
			<path class="st6" d="M159.3,122.36c0.32-3.42-1.98-6.43-5.15-6.74c-3.17-0.3-6,2.23-6.33,5.65c-0.32,3.42,1.98,6.44,5.15,6.74
				C156.14,128.31,158.97,125.78,159.3,122.36z"/>
			<path class="st6" d="M151.27,128.14c0.54,0.63,0.1,2.78,0.1,2.78c-0.07,1.07,3.79,1.19,3.86,0.21c-0.19-0.81-0.45-2.37,0.28-2.55
				c0.61-0.15,1.06-0.34,1.68-0.64c3.69-1.81,2.11-6.85,2.11-6.85s-12.24-0.5-11,3.35C148.65,125.52,150.7,127.48,151.27,128.14z"/>
			<path class="st3" d="M152.59,123.18c0.02-0.33-0.24-0.61-0.57-0.63c-0.33-0.02-0.61,0.24-0.63,0.57
				c-0.02,0.33,0.24,0.61,0.57,0.63C152.29,123.76,152.57,123.51,152.59,123.18z"/>
			<path class="st3" d="M158.28,122.64c0.02-0.33-0.24-0.61-0.57-0.63c-0.33-0.02-0.61,0.24-0.63,0.57
				c-0.02,0.33,0.24,0.61,0.57,0.63C157.98,123.22,158.26,122.97,158.28,122.64z"/>
			<path class="st5" d="M155.28,124.62c-0.07-0.01-0.13-0.07-0.12-0.15c0.01-0.07,0.07-0.13,0.15-0.12
				c0.16,0.01,0.28-0.06,0.34-0.14c0.05-0.06,0.07-0.13,0.05-0.18c-0.03-0.07-0.32-0.29-0.61-0.46c-0.07-0.04-0.09-0.12-0.05-0.18
				c0.04-0.07,0.12-0.09,0.18-0.05c0.2,0.11,0.67,0.4,0.74,0.61c0.04,0.14,0.01,0.3-0.1,0.43
				C155.72,124.54,155.5,124.64,155.28,124.62z"/>
			<path class="st7" d="M150.94,122.26c-0.06,0-0.11-0.03-0.15-0.08c-0.07-0.09-0.05-0.22,0.04-0.28c0.61-0.45,1.45-0.46,1.49-0.46
				c0.11,0,0.2,0.09,0.2,0.2c0,0.11-0.09,0.2-0.2,0.2l0,0c-0.01,0-0.75,0.01-1.25,0.38C151.04,122.25,150.99,122.27,150.94,122.26z"
				/>
			<path class="st7" d="M158.44,121.64c-0.03,0-0.06-0.01-0.09-0.02c-0.56-0.28-1.29-0.16-1.29-0.16c-0.11,0.02-0.22-0.06-0.24-0.17
				c-0.02-0.11,0.06-0.22,0.17-0.24c0.04-0.01,0.87-0.15,1.55,0.2c0.1,0.05,0.14,0.17,0.09,0.27
				C158.59,121.6,158.51,121.64,158.44,121.64z"/>
			<path class="st3" d="M148.59,123.98c0.16,0.06,1.42-1.82,2.33-3.83c0.91-2,3.07-2.84,3.07-2.84s4.09,1.06,4.62,1.93
				c0.53,0.87,0.87,2.57,0.87,2.57s0.05-2.69-1.3-4.28c-1.35-1.59-3.56-2.88-7.26-1.62C147.2,117.17,146.6,123.24,148.59,123.98z"/>
			<path class="st6" d="M149.11,123.65c-0.09-0.21-0.26-0.37-0.47-0.47c-0.43-0.2-1.19-0.43-1.74,0.08
				c-0.81,0.74,0.65,2.87,2.24,1.92C149.13,125.18,149.6,124.76,149.11,123.65z"/>
			<path class="st3" d="M146.14,118.55c-0.51-0.51-0.83-1.2-0.9-1.92c0.32-0.2,0.77-0.07,1.04,0.19c0.27,0.26,0.42,0.63,0.55,0.99
				c-0.14-0.94,0.56-1.73,1.17-2.34c0.75-0.74,1.57-1.48,2.58-1.85c1.39-0.5,2.94-0.52,4.4-0.67c1.08-0.17,2.2-0.19,3.27-0.34
				c0.21-0.02,0.42-0.04,0.63-0.05c0.32-0.02,0.91-0.26,0.98,0.21c0.07,0.52-0.17,1.04-0.53,1.42c-0.35,0.37-0.79,0.62-1.22,0.87
				c0.26-0.07,0.53-0.08,0.81-0.05c0.34,0.03,0.69,0.09,1.03,0.16c0.19,0.04,0.38,0.11,0.49,0.27c0.06,0.08,0.09,0.19,0.1,0.29
				c0.08,0.94-0.89,1.76-1.62,2.16c-2.36,1.28-5.22,1.06-7.86,1.57c-1.18,0.23-2.54,0.81-3.75,0.65c-0.41-0.05-1.45-0.5-1.85-0.97
				c-0.13-0.15-0.05-0.39,0.15-0.43C145.78,118.67,145.96,118.63,146.14,118.55z"/>
			<g>
				<path class="st7" d="M154.34,125.92c-0.03,0.01-0.05,0.03-0.06,0.06c-0.02,0.05,0.01,0.1,0.06,0.12
					c0.06,0.02,1.42,0.46,2.34-0.41c0.04-0.03,0.04-0.09,0-0.13c-0.04-0.04-0.09-0.04-0.13,0c-0.84,0.8-2.14,0.37-2.15,0.37
					C154.37,125.91,154.35,125.91,154.34,125.92z"/>
			</g>
		</g>
		<g>
			<path class="st8" d="M158.72,152.86c0,0,0.11,1.45,0.31,2.89c0,0,0,0,0,0c0.17,1.27,0.41,2.53,0.68,2.78
				c0.33,0.3,5.32,0.46,5.44-0.38c0.11-0.77-2.76-1.42-3.71-2.72c-0.07-0.1-0.13-0.2-0.16-0.31c-0.45-1.49-0.37-2.93-0.37-2.93
				L158.72,152.86z"/>
			<path class="st8" d="M155.41,141.41c0.07,0.43,1.33,5.39,2.35,9.39c0.6,2.36,1.12,4.38,1.27,4.96c0,0,0,0,0,0
				c0.03,0.1,0.04,0.16,0.04,0.16l2.43,0.44l-0.06-0.92l-0.31-5.14l-0.58-9.46c-0.09-0.85-0.89-1.74-2.27-1.72
				C156.58,139.16,155.17,139.84,155.41,141.41z"/>
		</g>
		<path class="st9" d="M163.25,137.98c0,0,2.48,5.77,1.15,8.48c-0.91,1.86-7.19-0.98-7.19-0.98v-1.7l4.31,0.07
			c0.06-1.29-1.36-3.81-1.36-3.81L163.25,137.98z"/>
		<g>
			<path class="st8" d="M153.1,152.61c0,0,0.11,1.38,0.3,2.82c0.18,1.39,0.44,2.84,0.74,3.11c0.35,0.31,6.86,0.6,6.98-0.27
				c0.12-0.83-4.42-1.65-5.25-3.07c-0.04-0.07-0.07-0.14-0.09-0.21c-0.47-1.56-0.38-3.06-0.38-3.06L153.1,152.61z"/>
			<path class="st8" d="M149.85,141.41c0.08,0.42,1.35,5.42,2.4,9.54v0c0.46,1.82,0.89,3.47,1.14,4.47
				c0.16,0.64,0.26,1.02,0.26,1.02l2.29-0.09l-0.07-1.17l-0.28-4.59l-0.59-9.75c-0.11-1.22-1.73-1.79-2.59-1.72
				C150.98,139.25,149.64,140.3,149.85,141.41z"/>
		</g>
		<path class="st9" d="M141.26,137.52c0,0-2.92,5.95-1.43,8.58c1.55,2.72,9.23,0.82,9.23,0.82l0.17-1.55l-6.04-1.14
			c-0.06-1.29,1.37-3.71,1.37-3.71L141.26,137.52z"/>
		<path class="st9" d="M149.23,145.37c0,0,1.49-0.93,2.11-1.14c0.61-0.22,1.05-0.88,1.29-0.59c0.24,0.29-0.68,1.14-0.68,1.14
			s1.31,0.18,1.72,0.17c0.41-0.01,1.15,0.17,1.18,0.47c0.03,0.3-1.95,0.19-1.95,0.19s1.66,0.25,1.74,0.53
			c0.09,0.27-2.07,0.26-2.07,0.26s1.78,0.18,1.91,0.32c0.13,0.14-0.04,0.3-0.69,0.39c-0.65,0.09-1.33,0.01-1.33,0.01
			s1.24,0.22,1.38,0.3c0.14,0.08,0.27,0.29-0.7,0.32c-0.97,0.03-3.08-0.25-4.08-0.82L149.23,145.37z"/>
		<path class="st9" d="M158.75,144.18c0,0-0.93-1.49-1.38-1.96c-0.45-0.46-0.55-1.25-0.89-1.1c-0.34,0.16,0.11,1.32,0.11,1.32
			s-1.25-0.42-1.62-0.61c-0.37-0.19-1.11-0.36-1.26-0.1c-0.16,0.26,1.66,1.04,1.66,1.04s-1.6-0.51-1.79-0.3
			c-0.2,0.21,1.74,1.15,1.74,1.15s-1.68-0.62-1.85-0.56c-0.17,0.07-0.1,0.29,0.44,0.66c0.54,0.36,1.19,0.6,1.19,0.6
			s-1.21-0.35-1.37-0.34c-0.16,0.01-0.37,0.14,0.48,0.59c0.86,0.46,2.87,1.14,4.02,1.07L158.75,144.18z"/>
		<path class="st10" d="M157.76,150.8c0.6,2.36,1.12,4.38,1.27,4.96c0,0,0,0,0,0c0.17,1.27,0.41,2.53,0.68,2.78
			c0.33,0.3,5.17,0.46,5.29-0.38c0.11-0.77-2.6-1.42-3.55-2.72l-0.31-5.14C160.19,150.46,158.74,150.66,157.76,150.8z"/>
		<g>
			<path class="st11" d="M158.92,155.47c0,0,1.16,0.39,2.73,0.08c0,0,4.55,1.73,4.46,3.09c0,0,0.22,0.4-1.84,0.39
				c-2.06-0.01-5.26,0.03-5.35-0.01C158.83,158.97,157.88,158.5,158.92,155.47z"/>
			<path class="st12" d="M158.67,159.03c0.09,0.04,3.4,0,5.53,0c2.13,0,1.91-0.4,1.91-0.4c0.01-0.09-0.01-0.18-0.04-0.28l-7.77-0.19
				C158.35,158.84,158.62,159,158.67,159.03z"/>
		</g>
		<path class="st13" d="M152.25,150.95L152.25,150.95c0.46,1.82,0.89,3.47,1.14,4.47c0.18,1.39,0.44,2.84,0.74,3.11
			c0.35,0.31,5.64,0.5,5.77-0.37c0.12-0.83-3.2-1.55-4.03-2.97l-0.28-4.59C155.41,150.64,152.25,150.95,152.25,150.95z"/>
		<g>
			<path class="st14" d="M153.36,155.4c0,0,1.18,0.4,2.78,0.08c0,0,4.64,1.77,4.55,3.15c0,0,0.22,0.4-1.88,0.4
				c-2.1-0.01-5.36,0.03-5.45-0.02C153.27,158.97,152.3,158.49,153.36,155.4z"/>
			<path class="st0" d="M153.26,159.03c0.09,0.04,3.4,0,5.53,0c2.13,0,1.91-0.4,1.91-0.4c0.01-0.09-0.01-0.18-0.04-0.28l-7.77-0.19
				C152.93,158.84,153.21,159,153.26,159.03z"/>
		</g>
	</g>
	<g>
		<path class="st2" d="M256.2,90.76c2.53,0.52,4.82,2.35,5.08,6.33c0.25,3.77-1.81,7.5-0.79,11.23c1.04,3.83,4.03,5.14,2.94,9.88
			c-0.39,1.69-1.01,3.33-0.98,5.1c0.07,3.71,2.66,5.98,3.93,8.89c1.64,3.76,1.03,8.94-1.15,12.02c-4.14,5.87-11.16,3.76-16.38,3.21
			c-3.03-0.32-5.77-2.49-6.53-6.9c-0.88-5.11,1.43-7.57,2.87-11.62c1.4-3.93-0.32-8.57-0.37-12.96c-0.05-4.91,2.79-7.61,3.31-12.12
			c0.38-3.26-0.94-6.63,0.37-9.71c0.69-1.63,1.98-2.64,3.3-3.08C253.1,90.6,254.7,90.45,256.2,90.76z"/>
		<rect x="254.4" y="114.28" class="st15" width="0.6" height="46.36"/>
		
			<rect x="251.86" y="123.39" transform="matrix(0.9095 -0.4156 0.4156 0.9095 -31.015 116.5264)" class="st15" width="0.6" height="12.24"/>
		
			<rect x="252.83" y="139.21" transform="matrix(0.5713 -0.8207 0.8207 0.5713 -4.2443 270.9032)" class="st15" width="8.77" height="0.6"/>
		<path class="st15" d="M260.15,168.54h-11.16c-0.28,0-0.5-0.22-0.5-0.5v-9.1h12.16v9.1C260.65,168.32,260.42,168.54,260.15,168.54z
			"/>
	</g>
	<g>
		
			<ellipse transform="matrix(0.9732 -0.2298 0.2298 0.9732 -10.8108 56.3302)" class="st15" cx="236.49" cy="74.59" rx="7.96" ry="7.96"/>
		
			<ellipse transform="matrix(0.9523 -0.3052 0.3052 0.9523 -11.471 75.6805)" class="st0" cx="236.34" cy="74.53" rx="6.33" ry="6.33"/>
		<path class="st16" d="M237.04,74.47c0-0.39-0.32-0.71-0.71-0.71c-0.39,0-0.71,0.32-0.71,0.71c0,0.39,0.32,0.71,0.71,0.71
			C236.72,75.18,237.04,74.86,237.04,74.47z"/>
		<g>
			<path class="st16" d="M236.33,74.61h-0.14c-0.08,0-0.14-0.06-0.14-0.14c0-0.08,0.06-0.14,0.14-0.14h0l0.01-4.37l-0.18,0.25
				c-0.04,0.06-0.13,0.08-0.2,0.04c-0.06-0.04-0.08-0.13-0.04-0.2l0.43-0.63c0.03-0.05,0.1-0.07,0.16-0.05
				c0.06,0.02,0.1,0.07,0.1,0.13l-0.01,4.96C236.47,74.55,236.41,74.61,236.33,74.61z"/>
			<path class="st16" d="M236.82,70.24c-0.04,0-0.08-0.02-0.11-0.05l-0.48-0.59c-0.05-0.06-0.04-0.15,0.02-0.2
				c0.06-0.05,0.15-0.04,0.2,0.02l0.48,0.59c0.05,0.06,0.04,0.15-0.02,0.2C236.88,70.23,236.85,70.24,236.82,70.24z"/>
		</g>
		<g>
			<path class="st16" d="M233.78,75.06c-0.04,0-0.07-0.01-0.1-0.04l-0.42-0.43c-0.04-0.04-0.05-0.1-0.03-0.15
				c0.02-0.05,0.07-0.09,0.13-0.09h0l3.3,0.01c0.08,0,0.14,0.06,0.14,0.14v0.14c0,0.08-0.06,0.14-0.14,0.14s-0.14-0.06-0.14-0.14v0
				l-2.83-0.01l0.19,0.19c0.05,0.06,0.05,0.14,0,0.2C233.85,75.05,233.82,75.06,233.78,75.06z"/>
			<path class="st16" d="M233.37,74.63c-0.03,0-0.06-0.01-0.09-0.03c-0.06-0.05-0.07-0.14-0.02-0.2l0.39-0.48
				c0.05-0.06,0.14-0.07,0.2-0.02c0.06,0.05,0.07,0.14,0.02,0.2l-0.39,0.48C233.45,74.61,233.41,74.63,233.37,74.63z"/>
		</g>
	</g>
	<g>
		<path class="st0" d="M142.16,47.84h-30.89c-0.4,0-0.72,0.32-0.72,0.72v7.11h32.34v-7.11C142.88,48.17,142.56,47.84,142.16,47.84z"
			/>
		<path class="st0" d="M126.98,25.75v23.6h-0.59V25.92C126.59,25.86,126.79,25.8,126.98,25.75z"/>
	</g>
	<g>
		<g>
			<g>
				<rect x="150.32" y="75.78" class="st0" width="18.05" height="23.96"/>
				<path class="st15" d="M149.79,75.25v25.02h19.11V75.25H149.79z M150.85,76.31h16.99v22.9h-16.99V76.31z"/>
			</g>
			<rect x="151.97" y="77.24" class="st2" width="14.62" height="21.1"/>
		</g>
		<g>
			<g>
				<rect x="125.14" y="75.78" class="st0" width="18.05" height="23.96"/>
				<path class="st15" d="M124.61,75.25v25.02h19.11V75.25H124.61z M125.67,76.31h16.99v22.9h-16.99V76.31z"/>
			</g>
			<rect x="126.79" y="77.24" class="st2" width="14.62" height="21.1"/>
		</g>
		<g>
			<g>
				<rect x="97.67" y="75.78" class="st0" width="18.05" height="23.96"/>
				<path class="st15" d="M97.14,75.25v25.02h19.11V75.25H97.14z M98.2,76.31h16.99v22.9H98.2V76.31z"/>
			</g>
			<rect x="99.32" y="77.24" class="st2" width="14.62" height="21.1"/>
		</g>
		<polygon class="st2" points="84.97,101.39 179.43,101.39 179.43,100.16 84.97,100.16 84.97,101.39 		"/>
	</g>
	<g>
		<g>
			<g>
				<path class="st6" d="M237.66,171.05c0,0,6.86-1.58,6.97-1.55c0.11,0.03,0.87-0.65,0.87-0.65l-0.01-2.02l-1.27-1.57
					c0,0-6.36,1.54-7.41,1.57C235.76,166.87,237.66,171.05,237.66,171.05z"/>
				<path class="st7" d="M241.16,165.99c0,0,2.53,0.98,3.23,3.53c0,0,8.55,3.1,9.93,1.09c0,0,0.75-0.31-2.16-2.59
					c-2.91-2.28-7.38-5.88-7.55-5.91C244.43,162.06,244.13,161.3,241.16,165.99z"/>
			</g>
			<path class="st17" d="M212.49,136.83c0,0-6.16,2.35-9.89,4.78c-7,4.56-14.86,13.65-18.86,22.76
				c-6.13,13.96,23.77-1.45,30.65-9.67C218.54,149.73,211.99,136.88,212.49,136.83z"/>
			<path class="st17" d="M185.23,172.01c6.94,7.71,43.97-1.76,43.97-1.76l1.91-5.29c0,0-25.01-6.57-33.28-5.03
				C189.56,161.47,177.98,163.95,185.23,172.01z"/>
			<path class="st14" d="M229.1,145.07c0,0-7.53-1.4-11.8-0.16c-8.02,2.32-14.64,10.99-21.11,18.55c-0.93,1.09-2.91,4.55-2.98,5.79
				c-0.45,7.94,26.98-0.82,35.11-6.13C233.74,159.57,228.61,144.97,229.1,145.07z"/>
			<path class="st14" d="M195.19,173.97c6.94,7.71,46.26-1.8,46.26-1.8l-2.09-7.85c0,0-21-4.01-29.27-2.47
				C201.81,163.4,187.94,165.92,195.19,173.97z"/>
			<path class="st15" d="M210.53,102.1c0,0,12.75,1.11,15.27,3.96c2.52,2.85,5.91,11.04,5.91,11.04l-9.81,3.11l5.25,15.15
				l3.68,13.74c0,0-15.37,3.19-33.8-3.07l-0.51-20.73l-7.58-2.69c0,0,4.52-14.2,8.37-16.23C203.99,102.85,210.53,102.1,210.53,102.1
				L210.53,102.1z"/>
			<path class="st5" d="M198.18,97.61c0,0-0.81-0.54-1.09-0.07c-0.72,1.2,0.72,1.77,1.49,1.71L198.18,97.61L198.18,97.61z"/>
			<path class="st6" d="M196.84,94.94L196.84,94.94c-0.03-0.08-0.06-0.16-0.09-0.24c-1.41-3.5,0.5-7.57,4.26-8.84
				c3.13-1.06,6.58,0.27,8.06,3.11c0.55,1.05,0.77,2.18,0.72,3.27c-0.01,1.67-0.03,3.1-0.16,4.33c-0.22,2.05,0.27,4.09,1.35,5.82
				l0.85,1.36c-3.06,3.58-5.57,2.45-5.57,2.45l-1.16-2.66c-0.15-0.35-0.55-0.51-0.92-0.39c0,0,0,0-0.01,0
				C199.24,104.83,197.68,97.03,196.84,94.94L196.84,94.94z"/>
			<path class="st3" d="M204.61,95.48c-0.13-0.31,0.03-0.67,0.36-0.81c0.32-0.13,0.69,0.01,0.81,0.33c0.13,0.31-0.03,0.68-0.36,0.81
				C205.1,95.94,204.74,95.79,204.61,95.48L204.61,95.48z"/>
			<path class="st3" d="M199,96.61c-0.13-0.31,0.03-0.68,0.36-0.81c0.32-0.13,0.69,0.01,0.81,0.33c0.13,0.31-0.03,0.68-0.36,0.81
				C199.49,97.07,199.13,96.92,199,96.61L199,96.61z"/>
			<path class="st3" d="M206.35,93.73c0.06-0.02,0.11-0.06,0.16-0.12c0.12-0.16,0.09-0.39-0.07-0.5c-0.49-0.35-1.68-0.71-2.74,0.46
				c-0.14,0.15-0.12,0.38,0.03,0.51c0.15,0.13,0.38,0.11,0.52-0.04c0.87-0.96,1.7-0.37,1.74-0.35
				C206.1,93.77,206.23,93.78,206.35,93.73L206.35,93.73z"/>
			<path class="st3" d="M200.5,95.1c0.06-0.02,0.11-0.06,0.16-0.12c0.12-0.16,0.09-0.39-0.07-0.5c-0.49-0.35-1.68-0.71-2.74,0.46
				c-0.14,0.15-0.12,0.38,0.03,0.51c0.15,0.13,0.38,0.11,0.52-0.04c0.87-0.96,1.7-0.37,1.74-0.35
				C200.25,95.14,200.39,95.15,200.5,95.1L200.5,95.1z"/>
			<polygon class="st3" points="210.06,89.73 210.01,94.55 208.78,94.8 205.95,89.76 210.06,89.73 			"/>
			<path class="st6" d="M208.55,94.74c0.02-0.24,0.14-0.46,0.32-0.63c0.37-0.35,1.06-0.85,1.79-0.55c1.07,0.43,0.32,3.05-1.61,2.7
				C209.04,96.26,208.43,96.01,208.55,94.74L208.55,94.74z"/>
			<path class="st5" d="M202.43,98.77c0.67,0.04,1.05-0.46,1.06-0.47c0.04-0.05,0.03-0.11-0.02-0.15c-0.05-0.03-0.12-0.02-0.15,0.03
				c-0.02,0.02-0.45,0.57-1.2,0.31c-0.12-0.04-0.2-0.09-0.22-0.14c-0.03-0.07,0.02-0.19,0.08-0.36c0.15-0.39,0.41-1.04,0.13-2.15
				c-0.01-0.06-0.07-0.09-0.13-0.07c-0.06,0.02-0.09,0.08-0.08,0.13c0.27,1.04,0.04,1.63-0.12,2.02c-0.08,0.21-0.15,0.37-0.08,0.52
				c0.05,0.11,0.15,0.18,0.34,0.25C202.17,98.74,202.31,98.76,202.43,98.77L202.43,98.77z"/>
			<path class="st3" d="M196.89,92.16c0,0-0.66,0.99,0.62,4.78c0,0-1.97-4-1.68-4.65C196.12,91.64,196.89,92.16,196.89,92.16
				L196.89,92.16z"/>
			<path class="st0" d="M204.9,99.36l-3.81,0.92c0,0,0.07,1.71,2.05,1.28C205.13,101.13,204.9,99.36,204.9,99.36L204.9,99.36z"/>
			<path class="st3" d="M209.81,87.65c-0.36-0.75-0.89-1.42-1.46-2.03c-0.57-0.6-1.35-1.06-2.18-1.09
				c-0.38-0.02-0.78,0.05-1.12-0.11c-0.23-0.11-0.4-0.31-0.61-0.46c-0.85-0.6-2.05-0.15-2.86,0.49c-0.81,0.65-1.52,1.5-2.51,1.82
				c-1.11,0.35-2.52,0.02-3.28,0.89c-0.26,0.29-0.38,0.68-0.6,1c-0.43,0.64-1.16,0.98-1.82,1.37c-0.66,0.39-1.32,0.94-1.43,1.7
				c-0.12,0.88,0.72,1.76,1.6,1.67c0.17-0.02,0.34-0.06,0.51-0.04c0.74,0.09,0.89,1.23,1.6,1.44c0.37,0.11,0.75-0.08,1.05-0.31
				c0.3-0.23,0.56-0.53,0.91-0.68c0.76-0.35,1.67,0.04,2.48-0.18c1.15-0.31,1.68-1.68,2.75-2.2c1.58-0.78,3.45,0.58,5.18,0.26
				C210.16,90.82,210.59,89.3,209.81,87.65L209.81,87.65z"/>
			<g>
				<path class="st7" d="M209.3,163.75l-0.02-0.16c0.14-0.02,13.73-1.76,19.64-1.02l-0.02,0.16C223,162,209.43,163.74,209.3,163.75z
					"/>
			</g>
			<path class="st6" d="M230.18,117.58c0,0,3.5,15.22,2.22,19.64c-1.28,4.41-13.58,14.85-13.58,14.85l-1.95-2.73
				c0,0,8.8-8.94,7.91-14.27c-0.9-5.33-2.87-14.85-2.87-14.85L230.18,117.58z"/>
			<path class="st6" d="M190.38,123.11c0,0-1.63,5.54-1.44,10.47c0.19,4.94,3.65,14.68,3.65,14.68l3.5-0.03l0.43-22.95
				L190.38,123.11z"/>
			<g>
				<polygon class="st18" points="177.59,138.43 180.84,130.96 195.81,143.61 184.92,145.8 				"/>
				<polygon class="st0" points="218.46,154.88 219.56,153.81 200.7,139.26 178.45,137.62 178.06,138.48 206.22,154.39 				"/>
				<polygon class="st19" points="200.23,140.61 219.9,156.01 193.32,154.25 177.59,138.43 				"/>
				<polygon class="st0" points="178.45,137.62 181.51,130.96 191.8,138.61 				"/>
			</g>
		</g>
		<path class="st6" d="M217.44,149.02c0,0-4.38-0.72-5.91-0.6c-1.53,0.11-3.1-0.89-3.34-0.05c-0.24,0.83,2.55,1.77,2.55,1.77
			s-2.67,1.58-3.57,1.94c-0.9,0.36-2.33,1.41-2.11,2.07c0.22,0.66,4.41-1.38,4.41-1.38s-3.35,2.05-3.28,2.7
			c0.07,0.65,4.73-1.36,4.73-1.36s-3.69,2.02-3.83,2.42c-0.15,0.4,0.38,0.6,1.86,0.19c1.48-0.41,2.89-1.2,2.89-1.2
			s-2.48,1.61-2.71,1.9c-0.23,0.29-0.32,0.86,1.81,0.03c2.13-0.83,6.44-3.35,8.07-5.46L217.44,149.02L217.44,149.02z"/>
	</g>
	<g>
		<path class="st20" d="M54.12,167.07H37.11c-0.79,0-1.43-0.64-1.43-1.43v-8.17c0-0.79,0.64-1.43,1.43-1.43h17.01
			c0.79,0,1.43,0.64,1.43,1.43v8.17C55.55,166.42,54.91,167.07,54.12,167.07z"/>
		<g>
			<g>
				<path class="st21" d="M68.01,169.81c-0.69,0.55-5.6-1.3-5.6-1.3c-0.38-1.67-0.65-3.9-0.84-6.39h4.81
					c-0.1,2.27-0.14,3.92-0.08,4.33C66.57,168.17,68.69,169.26,68.01,169.81z"/>
				<path class="st20" d="M62.06,166.62c0.37,0.27,0.87,0.65,1.52,1.21c1.17,1.01,2.89,0.64,3.65,0.41c0.6,0.73,1.18,1.24,0.77,1.57
					c-0.69,0.55-5.6-1.3-5.6-1.3C62.28,167.94,62.16,167.31,62.06,166.62z"/>
			</g>
			<path class="st22" d="M47.33,148.12c0,0,13.81-2.3,17.28,0.82c3.47,3.13,1.89,15.79,1.89,15.79h-5.22c0,0-0.11-9.28-1.04-9.28
				c-0.48,0-21.68,5.08-19.14-6.89L47.33,148.12z"/>
			<g>
				<path class="st21" d="M60.73,169.81c-0.69,0.55-5.6-1.3-5.6-1.3c-0.38-1.67-0.65-3.9-0.84-6.39h4.81
					c-0.1,2.27-0.14,3.92-0.08,4.33C59.29,168.17,61.42,169.26,60.73,169.81z"/>
				<path class="st20" d="M54.79,166.62c0.37,0.27,0.87,0.65,1.52,1.21c1.17,1.01,2.89,0.64,3.65,0.41c0.6,0.73,1.18,1.24,0.77,1.57
					c-0.69,0.55-5.6-1.3-5.6-1.3C55.01,167.94,54.89,167.31,54.79,166.62z"/>
			</g>
			<path class="st22" d="M59.53,148.12c3.25,3.35-0.3,16.61-0.3,16.61H54c0,0,0.02-7.43-1.06-8.03c-0.42-0.23-14.78,0.82-12.06-8.84
				C40.89,147.86,58.27,146.82,59.53,148.12z"/>
			<g>
				<path class="st20" d="M60.36,159.57l-0.09-0.02c0.69-3.57,0.24-6.37-1.31-8.31c-2.08-2.59-5.48-2.72-5.51-2.73l0-0.09
					c0.03,0,3.47,0.13,5.58,2.76C60.61,153.15,61.05,155.97,60.36,159.57z"/>
			</g>
			<path class="st21" d="M55.52,128.86c0,0,0.29,6.56,2.64,7.86c2.69,1.49,4.94-0.93,4.94-0.93l1.97,0.95c0,0-4.59,7.6-9.95,3.42
				c-3.5-2.73-3.29-8.47-3.29-8.47L55.52,128.86z"/>
			<path class="st21" d="M63.05,136.06c0,0,0.14-1.9,0.35-2.57c0.2-0.68-0.1-1.48,0.31-1.5c0.41-0.02,0.56,1.33,0.56,1.33
				s1-1.03,1.25-1.4c0.26-0.36,0.88-0.9,1.17-0.73c0.28,0.17-1.08,1.83-1.08,1.83s1.28-1.29,1.58-1.19c0.29,0.1-1.1,1.98-1.1,1.98
				s1.3-1.44,1.5-1.46c0.2-0.02,0.24,0.23-0.1,0.85c-0.34,0.62-0.84,1.17-0.84,1.17s0.99-0.94,1.15-1.01
				c0.16-0.07,0.43-0.05-0.17,0.81c-0.6,0.87-2.19,2.53-3.33,3.04L63.05,136.06z"/>
			<path class="st20" d="M42.73,106.13c0,0-1.56,1.71-5.87,1.92c-4.31,0.21-2.62,5.4-3.13,6.4c-0.51,1-2.42,2.22-1.77,4.09
				c0.65,1.87,2.29,2.4,2.05,4.23c-0.25,1.83,0.33,5.98,3.65,5.66c3.32-0.32,4.84,5.24,12.08,1.81c7.24-3.42,5.08-7.89,7.31-9.75
				c2.38-1.99,0.21-6.78-3.43-8.33C49.96,110.62,50.65,103.28,42.73,106.13z"/>
			<path class="st0" d="M40.15,148.54c0,0,8.63,1.9,17.81-1.26l-1.45-9.19c0,0-1.18-10.41-2.88-11.33
				c-1.7-0.91-5.64-2.52-10.33-0.49C37.81,128.64,40.15,148.54,40.15,148.54z"/>
			<path class="st20" d="M51.94,116.17c-0.2-1.05-0.42-2.13-0.95-3.06c-2.04-3.56-8.24-3.11-10.53-0.14
				c-0.99,1.28-1.67,3.01-1.78,4.63c-0.14,1.94,0.84,4.02,2.62,4.79c1.25,0.54,2.71,0.39,4.01-0.05c1.29-0.44,2.47-1.16,3.71-1.75
				c0.59-0.28,1.2-0.54,1.7-0.95c0.37-0.31,1.12-0.73,1.33-1.17C52.36,117.84,52.06,116.8,51.94,116.17z"/>
			<path class="st23" d="M51.83,116.28c0,0,0.29-0.67,0.64-0.48c0.91,0.47,0.26,1.42-0.24,1.69L51.83,116.28z"/>
			<path class="st21" d="M51.9,116.71c-0.48-3.49-3.48-5.96-6.72-5.52c-3.24,0.44-5.47,3.63-5,7.12c0.48,3.49,3.48,5.96,6.72,5.52
				C50.14,123.39,52.38,120.2,51.9,116.71z"/>
			<path class="st21" d="M45.24,124.36c0.69,0.5,0.75,2.75,0.75,2.75c0.18,1.09,4.06,0.3,3.9-0.69c-0.38-0.76-1-2.26-0.31-2.61
				c0.58-0.29,0.98-0.58,1.53-1.03c3.26-2.67,0.5-7.33,0.5-7.33s-12.34,2.37-10.2,5.92C42.01,122.36,44.52,123.83,45.24,124.36z"/>
			<path class="st24" d="M45.4,119.1c-0.06-0.33-0.38-0.55-0.71-0.49c-0.33,0.06-0.55,0.38-0.49,0.71c0.06,0.33,0.38,0.55,0.71,0.49
				C45.24,119.75,45.46,119.43,45.4,119.1z"/>
			<path class="st24" d="M50.95,117.23c-0.06-0.33-0.38-0.55-0.71-0.49c-0.33,0.06-0.55,0.38-0.49,0.71
				c0.06,0.33,0.38,0.55,0.71,0.49C50.79,117.88,51.01,117.56,50.95,117.23z"/>
			<path class="st23" d="M48.42,119.9c-0.08,0.01-0.15-0.04-0.16-0.12c-0.01-0.08,0.04-0.15,0.12-0.16
				c0.16-0.02,0.26-0.13,0.31-0.22c0.03-0.07,0.04-0.14,0.01-0.19c-0.05-0.07-0.38-0.21-0.72-0.31c-0.07-0.02-0.12-0.1-0.09-0.17
				c0.02-0.07,0.1-0.12,0.17-0.09c0.23,0.07,0.76,0.24,0.88,0.44c0.08,0.13,0.08,0.3,0,0.45C48.85,119.73,48.65,119.87,48.42,119.9z
				"/>
			<path class="st20" d="M43.52,118.55c-0.06,0.01-0.12-0.01-0.17-0.05c-0.09-0.08-0.09-0.21-0.01-0.29
				c0.52-0.57,1.37-0.74,1.41-0.75c0.11-0.02,0.22,0.05,0.24,0.16c0.02,0.11-0.05,0.22-0.16,0.24l0,0c-0.01,0-0.75,0.15-1.18,0.62
				C43.61,118.52,43.56,118.54,43.52,118.55z"/>
			<path class="st20" d="M50.86,116.27c-0.03,0-0.06,0-0.1-0.01c-0.61-0.21-1.33,0.02-1.34,0.02c-0.11,0.04-0.23-0.03-0.26-0.14
				c-0.03-0.11,0.03-0.23,0.14-0.26c0.03-0.01,0.86-0.27,1.6-0.02c0.11,0.04,0.17,0.16,0.13,0.27
				C51.01,116.21,50.94,116.26,50.86,116.27z"/>
			<path class="st20" d="M41.59,120.83c0.17,0.02,1-2.15,1.43-4.37c0.44-2.21,2.4-3.56,2.4-3.56s4.33,0.1,5.06,0.85
				c0.73,0.74,1.47,2.36,1.47,2.36s-0.59-2.7-2.3-3.97c-1.72-1.27-4.22-2.04-7.62,0.09C38.62,114.36,39.43,120.56,41.59,120.83z"/>
			<path class="st21" d="M42.03,120.38c-0.14-0.19-0.35-0.31-0.58-0.36c-0.47-0.1-1.28-0.15-1.72,0.48
				c-0.64,0.93,1.32,2.71,2.68,1.4C42.42,121.9,42.78,121.38,42.03,120.38z"/>
			<path class="st21" d="M45.99,131.36c0,0-1.77,6.41,0.28,8.14c2.58,2.18,4.94-0.93,4.94-0.93l1.97,0.95c0,0-4.59,7.6-9.95,3.42
				c-3.5-2.73-3.29-8.47-3.29-8.47L45.99,131.36z"/>
			<path class="st0" d="M43.3,126.27c0,0-5.65,2.16-3.36,13.06l6.33-2.57l1.14-6.71L43.3,126.27z"/>
			<path class="st0" d="M50.49,120.35l-3.01,0.88c0,0,1.18,1,2.12,0.68C50.53,121.6,50.49,120.35,50.49,120.35L50.49,120.35z"/>
			<path class="st0" d="M51.95,126.26c0,0,3.41,0.41,4.36,3.33c0.95,2.92,2.15,6,2.15,6l-2.83,2.43L51.95,126.26z"/>
			<path class="st21" d="M51.16,138.84c0,0,0.14-1.9,0.35-2.57c0.2-0.68-0.1-1.48,0.31-1.5c0.41-0.02,0.56,1.33,0.56,1.33
				s1-1.03,1.25-1.4c0.26-0.36,0.88-0.9,1.17-0.73c0.28,0.17-1.08,1.83-1.08,1.83s1.28-1.29,1.58-1.19c0.29,0.1-1.1,1.98-1.1,1.98
				s1.3-1.44,1.5-1.46c0.2-0.02,0.24,0.23-0.1,0.85c-0.34,0.62-0.84,1.17-0.84,1.17s0.99-0.94,1.15-1.01
				c0.16-0.07,0.43-0.05-0.17,0.81c-0.6,0.87-2.19,2.53-3.33,3.04L51.16,138.84z"/>
		</g>
	</g>
	<g>
		<path class="st6" d="M123.55,145.34c0,0,7.27-3.75,8.46-6.92c1.18-3.16,1.44-9.15,1.44-9.15h2.07c0,0,0.67,7.45-0.94,12.09
			c-1.61,4.64-6.98,8.17-6.98,8.17L123.55,145.34z"/>
		<path class="st8" d="M121.06,166.58c0,0,8.63,4.37,8.63,9.4c0,0.65-0.88,1.87-2.9,1.89c-6,0.07-18.35,0-18.35,0l5.88-10.16
			L121.06,166.58z"/>
		<path class="st6" d="M112.08,164.77c0.44,0.44,12.71,6.15,11.67,10.6c-0.16,0.7-1.35,2.55-3.56,2.53
			c-7.27-0.07-22.42-0.4-22.42-0.4l-0.02-1.52c0,0,10.68-3.42,13.61-3.42c0,0-7.29-4.69-4.17-7.78
			C110.32,161.68,112.08,164.77,112.08,164.77z"/>
		<path class="st3" d="M119.87,169.67c0,0,1.9-0.89,5.67-0.15l-1.48-2.94c0,0-5.85,1.62-6.35,1.34
			C117.22,167.64,119.87,169.67,119.87,169.67z"/>
		<path class="st3" d="M119.87,169.67c0,0-4.36-1.86-8.5,2.88c0,0-5.29,1.14-5.48-2.4c-0.26-4.8,1.78-6.04,1.78-6.04l10.05,3.81
			L119.87,169.67z"/>
		<path class="st10" d="M126.61,151.49l-1.19,16.24c0,0-9.95,1.93-19.18-2.72l3.02-12.07l-4.21-3.82c0,0,3.35-3.62,6.13-4.87
			c2.76-1.24,6.25-1.4,11.68-1.47c2.87-0.04,5.76-0.62,5.76-0.62l3.44,4.82L126.61,151.49z"/>
		<g>
			<path class="st4" d="M126.42,133.49c0.05-1.14,0.09-2.31-0.23-3.4c-1.24-4.19-7.77-5.25-10.87-2.74
				c-1.34,1.08-2.47,2.71-2.99,4.35c-0.62,1.97-0.12,4.37,1.54,5.6c1.17,0.87,2.71,1.07,4.16,0.93c1.45-0.14,2.85-0.59,4.27-0.89
				c0.68-0.15,1.37-0.26,2-0.57c0.46-0.22,1.34-0.48,1.67-0.88C126.44,135.32,126.39,134.18,126.42,133.49z"/>
			<path class="st5" d="M126.27,133.58c0,0,0.46-0.62,0.78-0.34c0.83,0.71-0.08,1.53-0.66,1.69L126.27,133.58z"/>
			<path class="st6" d="M126.25,134.04c0.37-3.73-2.14-7.03-5.6-7.37c-3.46-0.34-6.56,2.41-6.92,6.14c-0.37,3.73,2.14,7.03,5.6,7.37
				C122.78,140.52,125.88,137.77,126.25,134.04z"/>
			<path class="st6" d="M115.75,139.12c0.59,0.69,0.99,2.69,0.67,3.54c-0.41,0.86-0.35,1.4,0.08,1.71c1.56,1.11,3.18,0.75,3.95,0.5
				c0.82-0.26,1.19-0.89,0.88-1.69c-0.33-0.84-0.11-2.15,0.57-2.32c0.67-0.16,1.35-0.41,2.02-0.74c4.03-1.96,2.33-7.47,2.33-7.47
				s-13.36-0.59-12.01,3.62C114.61,137.46,115.13,138.4,115.75,139.12z"/>
			<path class="st3" d="M118.92,134.91c0.02-0.36-0.26-0.67-0.62-0.69c-0.36-0.02-0.67,0.26-0.69,0.62
				c-0.02,0.36,0.26,0.67,0.62,0.69C118.59,135.55,118.9,135.27,118.92,134.91z"/>
			<path class="st3" d="M125.13,134.34c0.02-0.36-0.26-0.67-0.62-0.69c-0.36-0.02-0.67,0.26-0.69,0.62
				c-0.02,0.36,0.26,0.67,0.62,0.69C124.81,134.98,125.11,134.7,125.13,134.34z"/>
			<path class="st5" d="M121.86,136.49c-0.08-0.01-0.14-0.08-0.13-0.16c0.01-0.08,0.08-0.14,0.16-0.13c0.17,0.02,0.3-0.07,0.37-0.15
				c0.05-0.07,0.08-0.14,0.06-0.19c-0.03-0.08-0.34-0.32-0.67-0.5c-0.07-0.04-0.1-0.13-0.05-0.2c0.04-0.07,0.13-0.1,0.2-0.06
				c0.22,0.12,0.73,0.44,0.8,0.67c0.05,0.15,0.01,0.33-0.11,0.47C122.34,136.41,122.1,136.51,121.86,136.49z"/>
			<path class="st7" d="M116.88,133.95c-0.06,0-0.13-0.03-0.17-0.08c-0.08-0.09-0.07-0.23,0.03-0.31c0.64-0.53,1.56-0.59,1.6-0.59
				c0.12-0.01,0.23,0.09,0.23,0.21c0.01,0.12-0.09,0.23-0.21,0.23l0,0c-0.01,0-0.82,0.05-1.34,0.49
				C116.98,133.93,116.93,133.95,116.88,133.95z"/>
			<path class="st7" d="M125.36,133.13c-0.03-0.01-0.06-0.02-0.09-0.05c-0.52-0.44-1.33-0.49-1.33-0.49
				c-0.12-0.01-0.22-0.11-0.21-0.24c0.01-0.12,0.11-0.22,0.24-0.21c0.04,0,0.96,0.07,1.59,0.6c0.09,0.08,0.11,0.22,0.03,0.31
				C125.53,133.12,125.44,133.15,125.36,133.13z"/>
			<path class="st4" d="M114.55,135.77c0.17,0.06,1.56-1.98,2.56-4.17c1-2.18,3.36-3.09,3.36-3.09s4.46,1.17,5.03,2.12
				c0.57,0.95,0.94,2.81,0.94,2.81s0.06-2.94-1.41-4.68c-1.47-1.74-3.87-3.15-7.92-1.79C113.07,128.34,112.38,134.96,114.55,135.77z
				"/>
			<path class="st6" d="M115.12,135.41c-0.1-0.23-0.28-0.41-0.51-0.51c-0.47-0.22-1.29-0.47-1.9,0.08c-0.89,0.8,0.69,3.14,2.44,2.11
				C115.14,137.08,115.65,136.63,115.12,135.41z"/>
			<path class="st0" d="M122.7,137.92c0,0.32-0.22,0.58-0.5,0.58c-0.28,0-0.5-0.26-0.5-0.58c0-0.32,0.22-0.58,0.5-0.58
				C122.48,137.34,122.7,137.6,122.7,137.92z"/>
		</g>
		<path class="st4" d="M113.48,131.05c0,0-4.38-1.57-7.09,2.22c-2.71,3.79-1.74,5.83-0.39,6.58c1.34,0.75,4.82,0.91,4.86-1.35
			c0.04-1.81-1.26-2.67-0.64-3.46c1.19-1.51,0.82-2.98,1.95-3.19c1.12-0.22,1.74-0.24,1.74-0.24L113.48,131.05z"/>
		<path class="st6" d="M133.44,129.56c0,0-0.06-2.24,0.02-2.95c0.08-0.71-0.38-1.45,0.02-1.55c0.4-0.1,0.81,1.21,0.81,1.21
			s0.79-1.21,0.98-1.62c0.19-0.41,0.71-1.06,1.02-0.95c0.31,0.11-0.73,2.02-0.73,2.02s1.03-1.52,1.34-1.48
			c0.31,0.04-0.72,2.17-0.72,2.17s1.02-1.68,1.21-1.74c0.19-0.06,0.28,0.18,0.06,0.87c-0.22,0.68-0.61,1.32-0.61,1.32
			s0.8-1.12,0.95-1.22c0.14-0.1,0.42-0.14-0.01,0.84c-0.43,0.97-1.7,2.93-2.73,3.65L133.44,129.56z"/>
		<path class="st6" d="M105.65,149.63c0,0-3.21,6.53-1.56,9.4c1.7,2.98,10.12,0.9,10.12,0.9l0.19-1.7l-6.08-1.49
			c0.67-1.57,0.96-3.82,0.96-3.82L105.65,149.63z"/>
		<path class="st6" d="M114.39,158.24c0,0,1.64-1.02,2.31-1.25c0.67-0.24,1.15-0.96,1.41-0.64c0.26,0.32-0.75,1.25-0.75,1.25
			s1.44,0.2,1.89,0.19c0.45-0.01,1.26,0.19,1.29,0.51c0.03,0.33-2.14,0.21-2.14,0.21s1.82,0.28,1.91,0.58
			c0.09,0.3-2.27,0.28-2.27,0.28s1.95,0.2,2.09,0.35c0.14,0.15-0.05,0.33-0.75,0.43c-0.71,0.1-1.46,0.01-1.46,0.01
			s1.36,0.24,1.51,0.33c0.15,0.09,0.3,0.32-0.76,0.35c-1.06,0.03-3.38-0.28-4.47-0.9L114.39,158.24z"/>
		<g>
			<path class="st0" d="M97.77,177.49l5.38,0.11L103,174.4l-3.61,0.53C99.39,174.93,97.12,176.73,97.77,177.49z"/>
			<path class="st3" d="M99.39,174.93c0,0-1.03,0.88-1.62,2.56c0,0-4.23,3.36-5.48,2.51c0,0-0.5-0.02,0.67-1.98
				c1.17-1.96,2.95-5.04,3.04-5.1C96.1,172.87,97.09,172.22,99.39,174.93z"/>
			<path class="st0" d="M96.05,172.82c-0.09,0.06-1.89,3.18-3.07,5.17c-1.18,1.99-0.68,2.01-0.68,2.01
				c0.08,0.06,0.18,0.09,0.28,0.12l4.5-7.17C96.41,172.62,96.1,172.79,96.05,172.82z"/>
		</g>
	</g>
	<g>
		<g>
			<path class="st0" d="M94.9,156.9l-0.17-5.14l-2.65-0.52l-0.18,5.55C91.89,156.79,94.1,157.51,94.9,156.9z"/>
			<path class="st3" d="M91.91,156.26c0,0,1.28,0.43,3.03,0.09c0,0,5.05,1.93,4.95,3.43c0,0,0.24,0.44-2.04,0.43
				c-2.29-0.01-5.84,0.03-5.94-0.02C91.82,160.15,90.76,159.63,91.91,156.26z"/>
			<path class="st0" d="M91.8,160.22c0.1,0.05,3.7,0,6.02,0c2.32,0,2.07-0.44,2.07-0.44c0.01-0.1-0.01-0.2-0.05-0.3l-8.46-0.21
				C91.44,160.01,91.75,160.19,91.8,160.22z"/>
		</g>
		<g>
			<path class="st0" d="M82.73,156.9l-0.17-5.14l-2.65-0.52l-0.18,5.55C79.72,156.79,81.93,157.51,82.73,156.9z"/>
			<path class="st3" d="M79.74,156.26c0,0,1.28,0.43,3.03,0.09c0,0,5.05,1.93,4.95,3.43c0,0,0.24,0.44-2.04,0.43
				c-2.29-0.01-5.84,0.03-5.94-0.02C79.65,160.15,78.58,159.63,79.74,156.26z"/>
			<path class="st0" d="M79.63,160.22c0.1,0.05,3.7,0,6.02,0c2.32,0,2.07-0.44,2.07-0.44c0.01-0.1-0.01-0.2-0.05-0.3l-8.46-0.21
				C79.27,160.01,79.58,160.19,79.63,160.22z"/>
		</g>
		<polygon class="st14" points="78.19,125.99 78.96,153.32 84.01,153.66 86.56,135.33 91.14,153.92 96.37,153.66 93.75,124.04 		"/>
		<path class="st6" d="M91.72,108.69c0,0,4.86,7.24,9.98,10.73l-0.97,2.08c0,0-9.28-5.06-12.15-9.4
			C88.58,112.09,90.69,109.78,91.72,108.69z"/>
		<path class="st0" d="M77.67,116.42l0.12,11.91c0,0,8.48,1.48,16.74-2.62l-4.08-11.29c0,0,1.14-1.07,1.94-2.57
			c0.32-0.61,0.85-2.25,0.85-2.25s-1.37-2.39-3.03-3.16c-3.38-1.58-7.33-1.52-11.54,0.89c-4.21,2.4-6.25,7.56-6.25,7.56
			s1.96,2.36,4.04,2.69L77.67,116.42z"/>
		<path class="st3" d="M86.75,96.25c-0.17-1-0.35-2.03-0.84-2.93c-1.86-3.42-7.75-3.12-9.99-0.36c-0.96,1.19-1.65,2.82-1.79,4.35
			c-0.17,1.83,0.71,3.83,2.39,4.6c1.18,0.54,2.57,0.43,3.8,0.03c1.24-0.39,2.37-1.04,3.56-1.58c0.56-0.25,1.15-0.49,1.64-0.87
			c0.36-0.28,1.08-0.67,1.29-1.08C87.11,97.84,86.86,96.85,86.75,96.25z"/>
		<path class="st5" d="M86.65,96.36c0,0,0.29-0.63,0.62-0.44c0.85,0.47,0.22,1.35-0.26,1.6L86.65,96.36z"/>
		<path class="st6" d="M86.71,96.76c-0.38-3.32-3.18-5.73-6.26-5.38c-3.08,0.35-5.27,3.33-4.89,6.65c0.38,3.32,3.18,5.73,6.26,5.38
			C84.89,103.06,87.08,100.08,86.71,96.76z"/>
		<path class="st6" d="M80.23,103.88c0.65,0.49,0.65,2.63,0.65,2.63c0.15,1.03,3.85,0.37,3.72-0.57c-0.35-0.73-0.9-2.17-0.24-2.48
			c0.55-0.27,0.94-0.53,1.47-0.95c3.15-2.46,0.63-6.94,0.63-6.94s-11.76,1.98-9.8,5.4C77.2,101.91,79.55,103.36,80.23,103.88z"/>
		<path class="st3" d="M80.46,98.73c-0.13-0.29-0.48-0.42-0.77-0.29c-0.29,0.13-0.42,0.48-0.29,0.77c0.13,0.29,0.44,0.21,0.73,0.08
			C80.43,99.16,80.6,99.03,80.46,98.73z"/>
		<path class="st3" d="M85.79,97.23c-0.05-0.32-0.35-0.53-0.67-0.48c-0.32,0.05-0.53,0.35-0.48,0.67c0.05,0.32,0.32,0.29,0.63,0.24
			C85.6,97.6,85.84,97.55,85.79,97.23z"/>
		<path class="st5" d="M83.34,99.71c-0.07,0.01-0.14-0.04-0.15-0.12c-0.01-0.07,0.04-0.14,0.12-0.15c0.15-0.02,0.25-0.11,0.29-0.2
			c0.03-0.07,0.04-0.14,0.01-0.18c-0.04-0.07-0.36-0.21-0.68-0.31c-0.07-0.02-0.11-0.1-0.09-0.17c0.02-0.07,0.1-0.11,0.17-0.09
			c0.21,0.07,0.72,0.25,0.82,0.43c0.07,0.12,0.07,0.28-0.01,0.43C83.74,99.56,83.55,99.69,83.34,99.71z"/>
		<path class="st7" d="M78.71,98.32c-0.06,0.01-0.12-0.01-0.16-0.05c-0.08-0.08-0.08-0.2-0.01-0.28c0.51-0.53,1.32-0.68,1.35-0.68
			c0.11-0.02,0.21,0.05,0.23,0.16c0.02,0.11-0.05,0.21-0.16,0.23l0,0c-0.01,0-0.72,0.13-1.14,0.57
			C78.8,98.3,78.76,98.32,78.71,98.32z"/>
		<path class="st7" d="M85.73,96.32c-0.03,0-0.06,0-0.09-0.01c-0.57-0.21-1.26-0.01-1.27-0.01c-0.11,0.03-0.22-0.03-0.25-0.13
			c-0.03-0.1,0.03-0.21,0.13-0.25c0.03-0.01,0.82-0.24,1.52,0.02c0.1,0.04,0.16,0.15,0.12,0.25C85.87,96.27,85.8,96.31,85.73,96.32z
			"/>
		<path class="st3" d="M76.66,100.96c0.16,0.02,1.17-2.53,1.63-4.62c0.46-2.09,2.35-3.32,2.35-3.32s4.11,0.19,4.78,0.91
			c0.67,0.72,1.34,2.27,1.34,2.27s-0.5-2.57-2.1-3.82c-1.6-1.24-3.96-2.02-7.24-0.08C74.15,94.25,74.61,100.66,76.66,100.96z"/>
		<path class="st6" d="M78.43,100.57c-0.13-0.18-0.32-0.3-0.54-0.35c-0.45-0.1-1.22-0.17-1.64,0.42c-0.63,0.87,1.19,2.6,2.52,1.38
			C78.77,102.02,79.12,101.53,78.43,100.57z"/>
		<path class="st0" d="M85.24,100.15c0.01-0.86-0.31-0.64-0.77-0.43c-1.39,0.65-2.49,0.67-2.56,0.77c-0.18,0.25,0.88,1.35,1.95,1.3
			C84.94,101.75,85.24,100.67,85.24,100.15z"/>
		<path class="st3" d="M73.41,95.78c-0.58-0.39-1.03-0.98-1.24-1.64c0.27-0.25,0.72-0.22,1.03-0.02c0.31,0.2,0.52,0.52,0.72,0.83
			c-0.32-0.87,0.18-1.76,0.65-2.46c0.57-0.86,1.2-1.73,2.08-2.28c1.22-0.76,2.69-1.09,4.05-1.52c1-0.37,2.05-0.63,3.05-0.98
			c0.2-0.06,0.4-0.12,0.59-0.18c0.3-0.08,0.81-0.43,0.97,0.01c0.17,0.48,0.04,1.03-0.22,1.46c-0.26,0.42-0.62,0.75-0.99,1.07
			c0.23-0.12,0.49-0.18,0.76-0.21c0.33-0.04,0.68-0.06,1.01-0.06c0.19,0,0.38,0.03,0.52,0.16c0.07,0.07,0.12,0.16,0.15,0.26
			c0.27,0.88-0.5,1.86-1.11,2.38c-1.99,1.69-4.76,2.06-7.17,3.07c-1.08,0.45-2.25,1.28-3.44,1.37c-0.4,0.03-1.48-0.19-1.96-0.55
			c-0.15-0.12-0.12-0.36,0.06-0.44C73.09,95.97,73.26,95.88,73.41,95.78z"/>
		<path class="st6" d="M80.48,120.07c0,0,1.46-0.83,2.06-1.01c0.6-0.18,1.04-0.8,1.25-0.51c0.22,0.29-0.7,1.07-0.7,1.07
			s1.25,0.22,1.64,0.23c0.39,0.01,1.09,0.21,1.11,0.49c0.02,0.29-1.87,0.11-1.87,0.11s1.58,0.31,1.65,0.57
			c0.07,0.26-1.99,0.17-1.99,0.17s1.7,0.24,1.81,0.38c0.12,0.14-0.05,0.29-0.67,0.35c-0.62,0.06-1.27-0.04-1.27-0.04
			s1.18,0.26,1.31,0.34c0.13,0.08,0.25,0.29-0.68,0.28c-0.93-0.01-2.94-0.36-3.87-0.94L80.48,120.07z"/>
		<path class="st6" d="M101,119.22c0,0,1.66,0.27,2.24,0.51c0.58,0.23,1.31,0.03,1.3,0.39c-0.01,0.36-1.21,0.39-1.21,0.39
			s0.83,0.96,1.13,1.21c0.3,0.25,0.72,0.85,0.55,1.08c-0.17,0.23-1.53-1.09-1.53-1.09s1.03,1.23,0.92,1.48
			c-0.11,0.25-1.66-1.12-1.66-1.12s1.17,1.26,1.17,1.43c0.01,0.18-0.22,0.19-0.74-0.15c-0.52-0.34-0.96-0.83-0.96-0.83
			s0.75,0.94,0.8,1.09c0.05,0.14,0.02,0.38-0.7-0.21c-0.72-0.59-2.06-2.12-2.42-3.16L101,119.22z"/>
		<path class="st6" d="M72.59,119.58c0.55,1.12,3.12,1.61,5.14,1.82c1.4,0.15,2.54,0.16,2.54,0.16l0.22-1.48
			c0,0-1.46-0.41-2.79-0.93c-1.08-0.42-2.07-0.91-2.14-1.32c-0.02-0.12,0-0.28,0.06-0.48c-1.03-0.41-1.96-1.19-2.55-1.76
			C72.53,117.12,72.17,118.74,72.59,119.58z"/>
	</g>
	<g>
		<defs>
			<circle id="SVGID_3_" cx="148.51" cy="171.05" r="8.72"/>
		</defs>
		<clipPath id="SVGID_4_">
			<use xlink:href="#SVGID_3_"  style="overflow:visible;"/>
		</clipPath>
		<ellipse class="st28" cx="147.67" cy="171.14" rx="12.99" ry="11.78"/>
		<g class="st29">
			<path class="st27" d="M146.26,180.84c0,0,3.6,7.93,6.52,0.06c2.93-7.87-1.29-14.23-1.29-14.23
				C152.95,172.01,146.26,180.84,146.26,180.84z"/>
			<path class="st27" d="M137.99,167.85c-0.56,1.52,1.8,10.18,1.8,10.18c3.94-9.39,11.7-11.36,11.7-11.36
				C145.98,164.3,138.55,166.33,137.99,167.85z"/>
			<path class="st27" d="M158.75,168.24c0,0-2.59-2.64-7.26-1.57c0,0,5.23,2.36,6.97,5.68
				C160.21,175.67,158.75,168.24,158.75,168.24z"/>
			<path class="st27" d="M144.97,160.7c0,0,5.12,2.92,6.52,5.96c0,0-0.28-5.12-1.46-6.92C148.85,157.95,144.97,160.7,144.97,160.7z"
				/>
		</g>
	</g>
</g>
</svg>
