<?xml version="1.0" encoding="utf-8"?>
<!-- Generator: Adobe Illustrator 25.0.0, SVG Export Plug-In . SVG Version: 6.00 Build 0)  -->
<svg version="1.1" id="Camada_1" xmlns="http://www.w3.org/2000/svg" xmlns:xlink="http://www.w3.org/1999/xlink" x="0px" y="0px"
	 viewBox="0 0 920 550" style="enable-background:new 0 0 920 550;" xml:space="preserve">
<style type="text/css">
	.st0{fill:#FEFBE1;}
	.st1{fill:#E4E1C7;}
	.st2{fill:#5C5C62;}
	.st3{fill:#373D42;}
	.st4{fill:#6A6E79;}
	.st5{fill:#A48B4E;}
	.st6{fill:#DBB968;}
	.st7{fill:#F2D490;}
	.st8{fill:#F7F19E;}
	.st9{fill:#C0A25B;}
	.st10{fill:#2490AC;}
	.st11{fill:#35AFC5;}
	.st12{fill:#F6AB87;}
	.st13{fill:#F28F6C;}
	.st14{fill:#7D4C37;}
	.st15{fill:#FBCCA6;}
	.st16{fill:#522F1D;}
	.st17{fill:#CA6B7A;}
	.st18{fill:#DD4D34;}
	.st19{fill:#C1D2CC;}
	.st20{fill:#F08366;}
	.st21{fill:#D5E0DC;}
	.st22{fill:#33224B;}
	.st23{fill:#432B64;}
	.st24{fill:#CA4242;}
	.st25{fill:#98282B;}
	.st26{fill:#FFFFFF;}
	.st27{fill:#A18F78;}
	.st28{fill:#FFEFCF;}
	.st29{fill:#85868F;}
	.st30{opacity:0.37;fill:#373D42;}
	.st31{fill:#B3A690;}
	.st32{fill:#E7E6E6;}
	.st33{fill:#E46C5F;}
	.st34{fill:#D2DCD3;}
	.st35{fill:#C1D1C3;}
	.st36{fill:#F7A520;}
	.st37{fill:#EB5B26;}
	.st38{fill:#FFDE2E;}
	.st39{fill:#20829B;}
	.st40{fill:#FDF2DE;}
	.st41{fill:#86BA6E;}
	.st42{fill:#E3D9C7;}
	.st43{fill:#628E57;}
	.st44{opacity:0.3;fill:#A1A49F;}
	.st45{fill:#144064;}
	.st46{fill:#002C30;}
	.st47{opacity:0.26;fill:#A1A49F;}
	.st48{fill:#E65931;}
	.st49{fill:#DC4127;}
	.st50{opacity:0.19;fill:#A1A49F;}
</style>
<rect class="st0" width="920" height="549.94"/>
<g>
	<path class="st1" d="M724.97,526.51H178.06c-6.83,0-12.42-5.59-12.42-12.42l0,0c0-6.83,5.59-12.42,12.42-12.42h546.91
		c6.83,0,12.42,5.59,12.42,12.42l0,0C737.39,520.92,731.8,526.51,724.97,526.51z"/>
	<g>
		<g>
			
				<rect x="489.37" y="424.68" transform="matrix(-1.836970e-16 1 -1 -1.836970e-16 994.7053 -133.3295)" class="st2" width="149.29" height="12.01"/>
			<path class="st3" d="M589.75,397.63H540.6c-13.51,0-24.57-11.06-24.57-24.57v0c0-13.51,11.06-24.57,24.57-24.57h49.16
				c13.51,0,24.57,11.06,24.57,24.57v0C614.32,386.57,603.27,397.63,589.75,397.63z"/>
			<rect x="596.93" y="209.54" class="st4" width="18.94" height="146.5"/>
			<path class="st5" d="M625.33,388.56H505.02c-10.5,0-19.09-8.59-19.09-19.09v0c0-10.5,8.59-19.09,19.09-19.09h120.32
				c10.5,0,19.09,8.59,19.09,19.09v0C644.42,379.97,635.83,388.56,625.33,388.56z"/>
			<path class="st6" d="M625.33,384.78H505.02c-10.5,0-19.09-8.59-19.09-19.09v0c0-10.5,8.59-19.09,19.09-19.09h120.32
				c10.5,0,19.09,8.59,19.09,19.09v0C644.42,376.2,635.83,384.78,625.33,384.78z"/>
			<g>
				<path class="st7" d="M642.37,282.33h-96.88c-16.94,0-30.8-13.86-30.8-30.8v-43.02c0-16.94,13.86-30.8,30.8-30.8h96.88
					c16.94,0,30.8,13.86,30.8,30.8v43.02C673.17,268.47,659.31,282.33,642.37,282.33z"/>
			</g>
			<g>
				<path class="st8" d="M635.17,282.33h-96.88c-16.94,0-30.8-13.86-30.8-30.8v-43.02c0-16.94,13.86-30.8,30.8-30.8h96.88
					c16.94,0,30.8,13.86,30.8,30.8v43.02C665.97,268.47,652.11,282.33,635.17,282.33z"/>
			</g>
			<path class="st2" d="M616.61,510.42H511.42c-2.81,0-5.11-2.3-5.11-5.11l0,0c0-2.81,2.3-5.11,5.11-5.11h105.19
				c2.81,0,5.11,2.3,5.11,5.11l0,0C621.72,508.12,619.42,510.42,616.61,510.42z"/>
			<path class="st6" d="M644.42,365.69c0,1.82-0.26,3.59-0.75,5.26c-0.91,3.15-2.6,5.96-4.86,8.23c-3.46,3.45-8.23,5.6-13.48,5.6
				H505.02c-8.68,0-16.05-5.86-18.33-13.83c-0.49-1.67-0.75-3.44-0.75-5.26c0-5.25,2.15-10.02,5.6-13.48
				c3.45-3.45,8.23-5.6,13.48-5.6h120.32C635.83,346.61,644.42,355.2,644.42,365.69z"/>
			<path class="st9" d="M643.67,370.96c-0.91,3.15-2.6,5.96-4.86,8.23c-3.46,3.45-8.23,5.6-13.48,5.6H505.02
				c-8.68,0-16.05-5.86-18.33-13.83H643.67z"/>
		</g>
		<g>
			<path class="st10" d="M599.48,306.52h-102.6c-1.56,0-2.82-1.26-2.82-2.82v-64.96c0-29.2,23.67-52.86,52.86-52.86h2.5
				c29.2,0,52.86,23.67,52.86,52.86v64.96C602.3,305.26,601.04,306.52,599.48,306.52z"/>
			<path class="st11" d="M582.29,306.52h-85.8c-1.33,0-2.42-1.08-2.42-2.42V231.2c0-25.03,20.29-45.32,45.32-45.32h0
				c25.03,0,45.32,20.29,45.32,45.32v72.91C584.7,305.44,583.62,306.52,582.29,306.52z"/>
			<path class="st12" d="M441.78,289.88L441.78,289.88c-6.36-4.82-7.62-13.89-2.79-20.26l33.94-44.8
				c4.82-6.36,13.89-7.62,20.26-2.79l0,0c6.36,4.82,7.62,13.89,2.79,20.26l-33.94,44.8C457.22,293.45,448.15,294.7,441.78,289.88z"
				/>
			<path class="st12" d="M644.8,288.43L644.8,288.43c6.1-5.16,6.86-14.28,1.7-20.38l-40.96-48.42c-5.16-6.1-14.28-6.86-20.38-1.7
				l0,0c-6.1,5.16-6.86,14.28-1.7,20.38l40.96,48.42C629.59,292.83,638.71,293.59,644.8,288.43z"/>
			<path class="st11" d="M596.03,256.09l31.02-24.12l-25.75-33.11c-6.66-8.57-19.01-10.11-27.57-3.45l0,0
				c-8.57,6.66-10.11,19.01-3.45,27.57L596.03,256.09z"/>
			<path class="st11" d="M490.94,256.41l-31.02-24.12l25.75-33.11c6.66-8.57,19.01-10.11,27.57-3.45h0
				c8.57,6.66,10.11,19.01,3.45,27.57L490.94,256.41z"/>
			<circle class="st13" cx="534.2" cy="200.84" r="30.35"/>
			<g>
				<path class="st14" d="M447.7,125.26V115.1c0-40.35,33.01-73.36,73.36-73.36h13.18c40.35,0,73.36,33.01,73.36,73.36v10.17
					c0,40.35-33.01,73.36-73.36,73.36h-13.18C480.71,198.62,447.7,165.61,447.7,125.26z"/>
				<g>
					
						<ellipse transform="matrix(0.9223 -0.3864 0.3864 0.9223 -18.0657 239.589)" class="st15" cx="586.95" cy="164.73" rx="15.79" ry="15.79"/>
					
						<ellipse transform="matrix(0.935 -0.3548 0.3548 0.935 -20.2633 218.9496)" class="st12" cx="586.95" cy="164.73" rx="9.65" ry="9.65"/>
				</g>
				<path class="st12" d="M517.02,225.93L517.02,225.93c-35.72,0-57.63-29.51-57.63-65.58v-36.17c0-36.07,29.23-65.58,64.95-65.58h0
					c35.72,0,64.95,29.51,64.95,65.58v36.17C589.3,196.42,552.75,225.93,517.02,225.93z"/>
				<path class="st15" d="M511.96,225.28L511.96,225.28c-34.8,0-56.14-29.51-56.14-65.58v-36.17c0-36.07,28.47-65.58,63.27-65.58h0
					c34.8,0,63.27,29.51,63.27,65.58v36.17C582.37,195.76,546.76,225.28,511.96,225.28z"/>
				<path class="st16" d="M487.4,171.46c0,3.23-2.62,5.84-5.84,5.84c-3.23,0-5.84-2.62-5.84-5.84c0-3.23,2.62-5.84,5.84-5.84
					C484.79,165.62,487.4,168.23,487.4,171.46z"/>
				<path class="st16" d="M538.01,171.46c0,3.23-2.62,5.84-5.84,5.84c-3.23,0-5.84-2.62-5.84-5.84c0-3.23,2.62-5.84,5.84-5.84
					C535.39,165.62,538.01,168.23,538.01,171.46z"/>
				<path class="st17" d="M507.91,204.56c-11.25,0-18.09-4.5-18.38-4.69l1.67-2.49c0.06,0.04,6.43,4.19,16.71,4.19
					c10.34,0,16.64-4.14,16.7-4.18l1.67,2.49C526,200.06,519.16,204.56,507.91,204.56z"/>
				<path class="st14" d="M598.19,136.13c-2.78,43.1-56.12-27.37-56.12-27.37s-102.75,60.42-99.97,17.31
					c2.78-43.1,39.97-75.8,83.08-73.02C568.27,55.83,600.96,93.02,598.19,136.13z"/>
				<path class="st14" d="M580.43,153.91c0,8.25-1.57,14.94,2.15,14.94c3.71,0,6.72-6.69,6.72-14.94s-3.01-14.94-6.72-14.94
					C578.87,138.97,580.43,145.66,580.43,153.91z"/>
				
					<ellipse transform="matrix(0.7894 -0.6139 0.6139 0.7894 38.013 337.4289)" class="st14" cx="510.77" cy="113.32" rx="33.84" ry="14.91"/>
				<path class="st14" d="M485.88,152.04c-0.49,0-0.98-0.09-1.47-0.27c-8.94-3.37-16.23-0.16-16.3-0.13c-2.08,0.98-4.56,0.08-5.53-2
					c-0.97-2.08-0.08-4.56,2-5.53c0.42-0.2,10.43-4.77,22.77-0.13c2.15,0.81,3.24,3.21,2.43,5.36
					C489.15,151.01,487.56,152.04,485.88,152.04z"/>
				<path class="st14" d="M545.18,152.04c-0.49,0-0.98-0.09-1.46-0.27c-8.94-3.37-16.23-0.16-16.31-0.13
					c-2.08,0.98-4.56,0.08-5.53-2c-0.97-2.08-0.08-4.56,2-5.53c0.42-0.2,10.44-4.77,22.77-0.13c2.15,0.81,3.24,3.21,2.43,5.36
					C548.45,151.01,546.87,152.04,545.18,152.04z"/>
			</g>
			<path class="st12" d="M387.2,278.84L387.2,278.84c-0.04-7.99,6.39-14.49,14.38-14.54l48.96-0.27
				c7.98-0.04,14.49,6.39,14.54,14.38v0c0.04,7.98-6.39,14.49-14.38,14.54l-48.96,0.27C393.75,293.26,387.24,286.83,387.2,278.84z"
				/>
			<g>
				<path class="st18" d="M418.92,266.1l-2.4,0.99c-0.98,0.4-2.1-0.06-2.51-1.04l-18.83-45.61c-0.4-0.98,0.06-2.1,1.04-2.51
					l2.4-0.99c0.98-0.4,2.1,0.06,2.51,1.04l18.83,45.61C420.37,264.57,419.9,265.7,418.92,266.1z"/>
				
					<rect x="407.09" y="222.03" transform="matrix(0.9243 -0.3816 0.3816 0.9243 -63.8254 175.378)" class="st19" width="6.43" height="53.19"/>
				
					<rect x="410.02" y="229.13" transform="matrix(0.9243 -0.3816 0.3816 0.9243 -66.313 177.0363)" class="st20" width="6.43" height="53.19"/>
				
					<rect x="397.34" y="223.97" transform="matrix(0.9243 -0.3816 0.3816 0.9243 -55.5529 169.8743)" class="st21" width="6.43" height="2.09"/>
				
					<rect x="398.81" y="227.52" transform="matrix(0.9243 -0.3816 0.3816 0.9243 -56.7965 170.702)" class="st21" width="6.43" height="2.09"/>
			</g>
			<path class="st15" d="M565.95,264.14L565.95,264.14c1.66-7.81,9.33-12.8,17.14-11.15l54.99,11.66
				c7.81,1.66,12.8,9.33,11.15,17.14l0,0c-1.66,7.81-9.33,12.8-17.14,11.15l-54.99-11.66C569.29,279.63,564.3,271.95,565.95,264.14z
				"/>
			
				<ellipse transform="matrix(0.866 -0.5 0.5 0.866 -57.701 323.2634)" class="st15" cx="574.37" cy="269.3" rx="20.58" ry="15.58"/>
			<path class="st15" d="M397.43,261.81c-9.84,5.68-14.33,16.33-10.03,23.78c4.3,7.45,15.77,8.89,25.61,3.2
				c9.84-5.68,14.33-16.33,10.03-23.78C418.74,257.56,407.27,256.13,397.43,261.81z"/>
			<path class="st12" d="M422.62,271.98L422.62,271.98c2.03,0.12,3.79-1.45,3.91-3.48l0.35-5.98c0.12-2.03-1.45-3.79-3.48-3.91l0,0
				c-2.03-0.12-3.79,1.45-3.91,3.48l-0.35,5.98C419.02,270.1,420.59,271.86,422.62,271.98z"/>
			<path class="st15" d="M423.41,271L423.41,271c2.03,0.12,3.79-1.45,3.91-3.48l0.35-5.98c0.12-2.03-1.45-3.79-3.48-3.91l0,0
				c-2.03-0.12-3.79,1.45-3.91,3.48l-0.35,5.98C419.82,269.13,421.38,270.89,423.41,271z"/>
		</g>
		<g>
			<path class="st22" d="M577.1,370.78h-79.97V300.4h107.78v42.57C604.91,358.33,592.46,370.78,577.1,370.78z"/>
			<path class="st23" d="M446.41,350.57l-0.02-2.77c-0.06-11.32,9.06-20.55,20.38-20.61l59.55-0.33
				c11.32-0.06,20.55,9.06,20.61,20.38l0.02,2.77c0.06,11.32-9.06,20.55-20.38,20.61l-59.55,0.33
				C455.69,371.02,446.47,361.89,446.41,350.57z"/>
			<path class="st22" d="M546.95,350.02c0.07,11.32-9.06,20.55-20.38,20.61l-59.55,0.33c-11.32,0.06-20.55-9.06-20.61-20.38
				l-0.02-2.77c-0.01-2.12,0.29-4.15,0.89-6.08c3.15,7.36,10.46,12.49,18.97,12.44l59.55-0.33c9.2-0.05,16.95-6.15,19.49-14.52
				c1.05,2.43,1.64,5.12,1.65,7.93L546.95,350.02z"/>
			<path class="st23" d="M522.84,349.57l-0.01-1.03c-0.06-11.8,9.45-21.42,21.25-21.48l32.76-0.18c11.8-0.06,21.42,9.45,21.48,21.25
				l0.01,1.03c0.06,11.8-9.45,21.42-21.25,21.48l-32.76,0.18C532.53,370.89,522.91,361.37,522.84,349.57z"/>
			<circle class="st22" cx="550.66" cy="348.97" r="19.7"/>
			<g>
				<path class="st15" d="M541.09,492.86l-35.01-2.03l8.17-141.16c0.56-9.61,8.8-16.94,18.4-16.39l0.22,0.01
					c9.61,0.56,16.94,8.8,16.39,18.4L541.09,492.86z"/>
				<path class="st15" d="M514.37,349.11L514.37,349.11c-0.05-9.37,7.51-17.01,16.88-17.06l18.49-0.1
					c9.37-0.05,17.01,7.51,17.06,16.88l0,0c0.05,9.37-7.51,17.01-16.88,17.06l-18.49,0.1C522.07,366.04,514.43,358.48,514.37,349.11
					z"/>
			</g>
			<g>
				<rect x="485.97" y="485.93" class="st24" width="56.52" height="22.69"/>
				<path class="st25" d="M510.84,497.93h6.54c4.36,0,7.92-3.57,7.92-7.92v-2.52c0-4.36-3.57-7.92-7.92-7.92h-6.54
					c-4.36,0-7.92,3.57-7.92,7.92V490C502.91,494.36,506.48,497.93,510.84,497.93z"/>
				<path class="st24" d="M515.33,508.62h-29.36v-22.69h52.04l0,0C538.01,498.46,527.85,508.62,515.33,508.62z"/>
				<path class="st26" d="M504.04,510.42h-36.15c0-13.88,8.1-25.13,18.07-25.13S504.04,496.54,504.04,510.42z"/>
				<rect x="467.89" y="505.33" class="st27" width="75.51" height="5.09"/>
				<path class="st28" d="M504.28,493.88l-7.3-6.53c-0.39-0.35-0.42-0.94-0.07-1.33l0,0c0.35-0.39,0.94-0.42,1.33-0.07l7.3,6.53
					c0.39,0.35,0.42,0.94,0.07,1.33l0,0C505.27,494.19,504.67,494.23,504.28,493.88z"/>
				<path class="st28" d="M509.77,493.88l-7.3-6.53c-0.39-0.35-0.42-0.94-0.07-1.33l0,0c0.35-0.39,0.94-0.42,1.33-0.07l7.3,6.53
					c0.39,0.35,0.42,0.94,0.07,1.33l0,0C510.76,494.19,510.16,494.23,509.77,493.88z"/>
			</g>
			<circle class="st22" cx="468.72" cy="348.97" r="19.7"/>
			<g>
				<path class="st12" d="M428.66,501.93l-34.06-8.33l36.23-148.19c2.3-9.41,11.79-15.17,21.2-12.87l0,0
					c9.41,2.3,15.17,11.79,12.87,21.2L428.66,501.93z"/>
				<path class="st12" d="M432.43,349.11L432.43,349.11c-0.05-9.37,7.51-17.01,16.88-17.06l18.49-0.1
					c9.37-0.05,17.01,7.51,17.06,16.88l0,0c0.05,9.37-7.51,17.01-16.88,17.06l-18.49,0.1C440.12,366.04,432.48,358.48,432.43,349.11
					z"/>
			</g>
			<g>
				<rect x="377.82" y="485.93" class="st24" width="56.52" height="22.69"/>
				<path class="st25" d="M402.69,497.93h6.55c4.36,0,7.92-3.57,7.92-7.92v-2.52c0-4.36-3.57-7.92-7.92-7.92h-6.55
					c-4.36,0-7.92,3.57-7.92,7.92V490C394.77,494.36,398.33,497.93,402.69,497.93z"/>
				<path class="st24" d="M407.18,508.62h-29.36v-22.69h52.04l0,0C429.87,498.46,419.71,508.62,407.18,508.62z"/>
				<path class="st26" d="M395.9,510.42h-36.15c0-13.88,8.1-25.13,18.07-25.13C387.8,485.29,395.9,496.54,395.9,510.42z"/>
				<rect x="359.75" y="505.33" class="st27" width="75.51" height="5.09"/>
				<path class="st28" d="M396.14,493.88l-7.3-6.53c-0.39-0.35-0.42-0.94-0.07-1.33l0,0c0.35-0.39,0.94-0.42,1.33-0.07l7.3,6.53
					c0.39,0.35,0.42,0.94,0.07,1.33l0,0C397.12,494.19,396.52,494.23,396.14,493.88z"/>
				<path class="st28" d="M401.63,493.88l-7.3-6.53c-0.39-0.35-0.42-0.94-0.07-1.33l0,0c0.35-0.39,0.94-0.42,1.33-0.07l7.3,6.53
					c0.39,0.35,0.42,0.94,0.07,1.33l0,0C402.61,494.19,402.01,494.23,401.63,493.88z"/>
			</g>
		</g>
		<g>
			<g>
				<g>
					<g>
						<rect x="207.37" y="501.67" class="st3" width="20.95" height="8.75"/>
						<rect x="204.09" y="308.73" class="st29" width="27.51" height="197.32"/>
					</g>
					<g>
						<rect x="275.38" y="501.67" class="st3" width="20.95" height="8.75"/>
						<rect x="272.1" y="308.73" class="st2" width="27.52" height="197.32"/>
					</g>
					<rect x="204.09" y="304.2" class="st30" width="27.51" height="30.59"/>
					<rect x="272.1" y="304.2" class="st30" width="27.52" height="30.59"/>
				</g>
				<g>
					<g>
						<rect x="606.7" y="501.67" class="st3" width="20.95" height="8.75"/>
						<rect x="603.41" y="308.73" class="st29" width="27.52" height="197.32"/>
					</g>
					<g>
						<rect x="674.71" y="501.67" class="st3" width="20.95" height="8.75"/>
						<rect x="671.44" y="308.73" class="st2" width="27.51" height="197.32"/>
					</g>
					<rect x="603.41" y="304.2" class="st30" width="27.52" height="30.59"/>
					<rect x="671.44" y="304.2" class="st30" width="27.51" height="30.59"/>
				</g>
			</g>
			<g>
				<path class="st27" d="M713.75,324.19H365.86c-7.98,0-14.52-6.53-14.52-14.52v-1.9c0-7.98,6.53-14.52,14.52-14.52h347.89
					c7.98,0,14.52,6.53,14.52,14.52v1.9C728.27,317.66,721.74,324.19,713.75,324.19z"/>
				<path class="st31" d="M605.31,324.19H190.23c-8.51,0-15.47-6.96-15.47-15.47l0,0c0-8.51,6.96-15.47,15.47-15.47h415.08
					c8.51,0,15.47,6.96,15.47,15.47l0,0C620.78,317.23,613.82,324.19,605.31,324.19z"/>
			</g>
		</g>
		<g>
			<path class="st26" d="M576.36,293.25H395.52c0.01-9.92,21.35-17.95,47.67-17.95c18.76,0,34.99,4.09,42.76,10.02
				c7.77-5.93,24-10.02,42.75-10.02C555.01,275.31,576.35,283.33,576.36,293.25z"/>
			<path class="st32" d="M573.25,293.25H398.63c6.85-6.76,24.22-11.55,44.55-11.55c18.76,0,34.99,4.09,42.76,10.02
				c7.77-5.93,24-10.02,42.75-10.02C549.04,281.7,566.4,286.5,573.25,293.25z"/>
			<path class="st33" d="M585.05,293.26H386.83c-1.42,0-2.58-1.15-2.58-2.58l0,0c0-1.42,1.15-2.58,2.58-2.58h198.22
				c1.42,0,2.58,1.15,2.58,2.58l0,0C587.63,292.1,586.47,293.26,585.05,293.26z"/>
		</g>
		<g>
			<g>
				<path class="st34" d="M238.01,221.19L238.01,221.19c-1.37,0-2.48-1.11-2.48-2.48v-3.14c0-1.37,1.11-2.48,2.48-2.48l0,0
					c1.37,0,2.48,1.11,2.48,2.48v3.14C240.49,220.08,239.38,221.19,238.01,221.19z"/>
				<path class="st35" d="M237.49,221.39L237.49,221.39c-0.94,0-1.7-0.76-1.7-1.7v-4.28c0-0.94,0.76-1.7,1.7-1.7l0,0
					c0.94,0,1.7,0.76,1.7,1.7v4.28C239.2,220.63,238.43,221.39,237.49,221.39z"/>
				<rect x="233.02" y="219.26" class="st31" width="1.72" height="1.3"/>
				<path class="st36" d="M232.98,234.68L232.98,234.68c-0.39,0-0.7-0.31-0.7-0.7v-15c0-0.39,0.31-0.7,0.7-0.7l0,0
					c0.39,0,0.7,0.31,0.7,0.7v15C233.68,234.36,233.37,234.68,232.98,234.68z"/>
				<path class="st36" d="M235.35,269.31h5.31c0.54,0,0.99-0.44,0.99-0.99v-49.25c0-0.54-0.44-0.99-0.99-0.99h-5.31
					c-0.54,0-0.99,0.44-0.99,0.99v49.25C234.37,268.87,234.81,269.31,235.35,269.31z"/>
			</g>
			
				<rect x="222.69" y="208.9" transform="matrix(0.9899 -0.1421 0.1421 0.9899 -31.0449 34.506)" class="st20" width="6.91" height="51.57"/>
			
				<rect x="215.84" y="222.9" transform="matrix(0.9813 -0.1927 0.1927 0.9813 -43.8055 46.9105)" class="st37" width="6.91" height="51.57"/>
			<g>
				<path class="st18" d="M245.89,272.31l-3.12-0.42c-1.28-0.17-2.17-1.35-2-2.62l7.98-59.43c0.17-1.28,1.35-2.17,2.62-2l3.12,0.42
					c1.28,0.17,2.17,1.35,2,2.62l-7.98,59.43C248.34,271.58,247.16,272.48,245.89,272.31z"/>
				
					<rect x="243.56" y="216.37" transform="matrix(0.9911 0.1332 -0.1332 0.9911 35.317 -30.7371)" class="st19" width="7.82" height="64.63"/>
				
					<rect x="242.32" y="225.62" transform="matrix(0.9911 0.1332 -0.1332 0.9911 36.5412 -30.4919)" class="st38" width="7.82" height="64.63"/>
				
					<rect x="247.7" y="216.65" transform="matrix(0.9911 0.1332 -0.1332 0.9911 31.2609 -31.5646)" class="st21" width="7.82" height="2.55"/>
				
					<rect x="247.07" y="221.27" transform="matrix(0.9911 0.1332 -0.1332 0.9911 31.8676 -31.4375)" class="st21" width="7.82" height="2.55"/>
			</g>
			<g>
				<path class="st39" d="M250.6,293.63h-34.67c-1.63,0-2.96-1.32-2.96-2.96v-42.15h40.58v42.15
					C253.56,292.3,252.24,293.63,250.6,293.63z"/>
				<path class="st10" d="M252.44,291.14h-29.53c-3.89,0-7.05-3.16-7.05-7.05v-35.57h37.7v41.5
					C253.56,290.64,253.06,291.14,252.44,291.14z"/>
			</g>
		</g>
		<g>
			<g>
				<path class="st40" d="M281.67,291.04c-3.81,0-6.92-3.32-6.92-7.41c0-4.09,3.1-7.41,6.92-7.41h86.84v14.82H281.67z"/>
				<path class="st41" d="M274.82,284.6c0.48,3.74,3.84,6.43,7.61,6.43h89.4c0.63,0,1.13,0.51,1.13,1.13l0,0
					c0,0.62-0.51,1.13-1.13,1.13l-93.85,0c-5.39,0-10.08-4.41-10.02-9.79c0.03-2.62,1.11-5,2.84-6.73c1.74-1.74,4.16-2.83,6.84-2.83
					h94.19c0.63,0,1.13,0.51,1.13,1.13l0,0c0,0.62-0.51,1.13-1.13,1.13h-89.66C277.76,276.21,274.23,280.08,274.82,284.6z"/>
				<path class="st26" d="M368.51,276.21v14.83h-86.85c-3.81,0-6.91-3.33-6.91-7.41c0-4.09,3.1-7.41,6.91-7.41H368.51z"/>
				<g>
					<rect x="273.77" y="277.82" class="st42" width="94.75" height="1.87"/>
					<rect x="273.77" y="282.69" class="st42" width="94.75" height="1.87"/>
					<rect x="273.77" y="287.56" class="st42" width="94.75" height="1.87"/>
				</g>
				<path class="st43" d="M282.17,291.04h-4.53c-4.09,0-7.41-3.33-7.41-7.41c0-4.09,3.33-7.41,7.41-7.41h4.53
					c-4.09,0-7.41,3.33-7.41,7.41C274.75,287.71,278.08,291.04,282.17,291.04z"/>
				<path class="st44" d="M368.51,276.21v14.83h-51.79c-3.81,0-6.93-3.33-6.93-7.41c0-4.09,3.11-7.41,6.93-7.41H368.51z"/>
			</g>
			<g>
				<path class="st26" d="M362.05,265.95c0,3.16-2.44,5.74-5.44,5.74h-72.07V260.2h72.07C359.61,260.2,362.05,262.78,362.05,265.95z
					"/>
				<g>
					<rect x="284.55" y="265" class="st42" width="79.25" height="1.88"/>
					<g>
						<rect x="284.55" y="261.39" class="st42" width="79.25" height="1.88"/>
						<rect x="284.55" y="268.62" class="st42" width="79.25" height="1.88"/>
					</g>
				</g>
				<path class="st45" d="M368.49,265.34c0.18,2.44-0.74,4.68-2.32,6.26c-1.46,1.45-3.45,2.34-5.67,2.34h-77.2
					c-0.62,0-1.13-0.51-1.13-1.13l0,0c0-0.62,0.51-1.13,1.13-1.13h73c3.36,0,6.07-2.91,5.72-6.33c-0.3-2.98-2.99-5.16-5.99-5.16
					H283.3c-0.62,0-1.13-0.51-1.13-1.13l0,0c0-0.62,0.51-1.13,1.13-1.13h76.9C364.44,257.94,368.18,261.11,368.49,265.34z"/>
				<path class="st46" d="M366.25,265.95c0,3.16-2.58,5.74-5.75,5.74h-4.2c3.17,0,5.75-2.58,5.75-5.74c0-3.17-2.58-5.75-5.75-5.75
					h4.2C363.67,260.2,366.25,262.78,366.25,265.95z"/>
				<path class="st47" d="M334.45,265.95c0,3.16-2.43,5.74-5.43,5.74h-44.48V260.2h44.48C332.02,260.2,334.45,262.78,334.45,265.95z
					"/>
			</g>
			<g>
				<path class="st26" d="M361.61,244.19v11.49h-72.07c-3,0-5.44-2.58-5.44-5.74c0-3.17,2.44-5.75,5.44-5.75H361.61z"/>
				<g>
					
						<rect x="282.36" y="248.99" transform="matrix(-1 -1.224647e-16 1.224647e-16 -1 643.9626 499.8568)" class="st42" width="79.25" height="1.88"/>
					<g>
						
							<rect x="282.36" y="245.37" transform="matrix(-1 -1.224647e-16 1.224647e-16 -1 643.9626 492.6231)" class="st42" width="79.25" height="1.88"/>
						
							<rect x="282.36" y="252.61" transform="matrix(-1 -1.224647e-16 1.224647e-16 -1 643.9626 507.0903)" class="st42" width="79.25" height="1.88"/>
					</g>
				</g>
				<path class="st48" d="M277.66,249.33c-0.18,2.44,0.74,4.68,2.32,6.26c1.46,1.45,3.45,2.34,5.67,2.34h77.2
					c0.62,0,1.13-0.51,1.13-1.13l0,0c0-0.63-0.51-1.13-1.13-1.13h-73c-3.36,0-6.07-2.91-5.72-6.33c0.3-2.98,2.99-5.16,5.99-5.16
					h72.74c0.62,0,1.13-0.51,1.13-1.13l0,0c0-0.62-0.51-1.13-1.13-1.13h-76.9C281.71,241.92,277.97,245.09,277.66,249.33z"/>
				<path class="st49" d="M279.9,249.93c0,3.16,2.58,5.74,5.75,5.74h4.2c-3.17,0-5.75-2.58-5.75-5.74c0-3.17,2.58-5.75,5.75-5.75
					h-4.2C282.48,244.19,279.9,246.77,279.9,249.93z"/>
				<path class="st50" d="M361.61,244.19v11.49h-41.97c-3,0-5.43-2.58-5.43-5.74c0-3.17,2.43-5.75,5.43-5.75H361.61z"/>
			</g>
		</g>
	</g>
</g>
<rect x="1056.32" y="85.4" class="st0" width="290" height="189.54"/>
<g>
	<path class="st1" d="M1278.21,261.45h-161.38c-2.02,0-3.66-1.65-3.66-3.66l0,0c0-2.02,1.65-3.66,3.66-3.66h161.38
		c2.02,0,3.66,1.65,3.66,3.66l0,0C1281.88,259.81,1280.23,261.45,1278.21,261.45z"/>
	<g>
		<g>
			
				<rect x="1208.69" y="231.41" transform="matrix(-1.836970e-16 1 -1 -1.836970e-16 1463.8992 -997.5372)" class="st2" width="44.05" height="3.54"/>
			<path class="st3" d="M1238.31,223.43h-14.5c-3.99,0-7.25-3.26-7.25-7.25v0c0-3.99,3.26-7.25,7.25-7.25h14.5
				c3.99,0,7.25,3.26,7.25,7.25v0C1245.56,220.16,1242.3,223.43,1238.31,223.43z"/>
			<rect x="1240.43" y="167.93" class="st4" width="5.59" height="43.23"/>
			<path class="st5" d="M1248.81,220.75h-35.5c-3.1,0-5.63-2.53-5.63-5.63v0c0-3.1,2.53-5.63,5.63-5.63h35.5
				c3.1,0,5.63,2.53,5.63,5.63v0C1254.44,218.22,1251.91,220.75,1248.81,220.75z"/>
			<path class="st6" d="M1248.81,219.64h-35.5c-3.1,0-5.63-2.53-5.63-5.63v0c0-3.1,2.53-5.63,5.63-5.63h35.5
				c3.1,0,5.63,2.53,5.63,5.63v0C1254.44,217.1,1251.91,219.64,1248.81,219.64z"/>
			<g>
				<path class="st7" d="M1253.84,189.4h-28.59c-5,0-9.09-4.09-9.09-9.09v-12.69c0-5,4.09-9.09,9.09-9.09h28.59
					c5,0,9.09,4.09,9.09,9.09v12.69C1262.93,185.31,1258.84,189.4,1253.84,189.4z"/>
			</g>
			<g>
				<path class="st8" d="M1251.71,189.4h-28.59c-5,0-9.09-4.09-9.09-9.09v-12.69c0-5,4.09-9.09,9.09-9.09h28.59
					c5,0,9.09,4.09,9.09,9.09v12.69C1260.8,185.31,1256.71,189.4,1251.71,189.4z"/>
			</g>
			<path class="st2" d="M1246.24,256.71h-31.04c-0.83,0-1.51-0.68-1.51-1.51l0,0c0-0.83,0.68-1.51,1.51-1.51h31.04
				c0.83,0,1.51,0.68,1.51,1.51l0,0C1247.75,256.03,1247.07,256.71,1246.24,256.71z"/>
			<path class="st6" d="M1254.44,214c0,0.54-0.08,1.06-0.22,1.55c-0.27,0.93-0.77,1.76-1.43,2.43c-1.02,1.02-2.43,1.65-3.98,1.65
				h-35.5c-2.56,0-4.74-1.73-5.41-4.08c-0.14-0.49-0.22-1.02-0.22-1.55c0-1.55,0.63-2.96,1.65-3.98c1.02-1.02,2.43-1.65,3.98-1.65
				h35.5C1251.91,208.37,1254.44,210.91,1254.44,214z"/>
			<path class="st9" d="M1254.22,215.56c-0.27,0.93-0.77,1.76-1.43,2.43c-1.02,1.02-2.43,1.65-3.98,1.65h-35.5
				c-2.56,0-4.74-1.73-5.41-4.08H1254.22z"/>
		</g>
		<g>
			<path class="st10" d="M1241.18,196.54h-30.27c-0.46,0-0.83-0.37-0.83-0.83v-19.17c0-8.61,6.98-15.6,15.6-15.6h0.74
				c8.61,0,15.6,6.98,15.6,15.6v19.17C1242.01,196.17,1241.64,196.54,1241.18,196.54z"/>
			<path class="st11" d="M1236.11,196.54h-25.32c-0.39,0-0.71-0.32-0.71-0.71v-21.51c0-7.39,5.99-13.37,13.37-13.37l0,0
				c7.39,0,13.37,5.99,13.37,13.37v21.51C1236.82,196.22,1236.5,196.54,1236.11,196.54z"/>
			<path class="st12" d="M1194.65,191.63L1194.65,191.63c-1.88-1.42-2.25-4.1-0.82-5.98l10.02-13.22c1.42-1.88,4.1-2.25,5.98-0.82
				l0,0c1.88,1.42,2.25,4.1,0.82,5.98l-10.02,13.22C1199.2,192.69,1196.53,193.05,1194.65,191.63z"/>
			<path class="st12" d="M1254.56,191.2L1254.56,191.2c1.8-1.52,2.02-4.21,0.5-6.01l-12.09-14.29c-1.52-1.8-4.21-2.02-6.01-0.5l0,0
				c-1.8,1.52-2.02,4.21-0.5,6.01l12.09,14.29C1250.07,192.5,1252.76,192.73,1254.56,191.2z"/>
			<path class="st11" d="M1240.17,181.66l9.15-7.12l-7.6-9.77c-1.97-2.53-5.61-2.98-8.14-1.02l0,0c-2.53,1.97-2.98,5.61-1.02,8.14
				L1240.17,181.66z"/>
			<path class="st11" d="M1209.15,181.76l-9.15-7.12l7.6-9.77c1.97-2.53,5.61-2.98,8.14-1.02h0c2.53,1.97,2.98,5.61,1.02,8.14
				L1209.15,181.76z"/>
			<circle class="st13" cx="1221.92" cy="165.36" r="8.96"/>
			<g>
				<path class="st14" d="M1196.4,143.06v-3c0-11.9,9.74-21.65,21.65-21.65h3.89c11.9,0,21.65,9.74,21.65,21.65v3
					c0,11.9-9.74,21.65-21.65,21.65h-3.89C1206.14,164.7,1196.4,154.96,1196.4,143.06z"/>
				<g>
					
						<ellipse transform="matrix(0.9223 -0.3864 0.3864 0.9223 36.3334 490.1723)" class="st15" cx="1237.49" cy="154.71" rx="4.66" ry="4.66"/>
					
						<ellipse transform="matrix(0.935 -0.3548 0.3548 0.935 25.6096 449.0883)" class="st12" cx="1237.49" cy="154.71" rx="2.85" ry="2.85"/>
				</g>
				<path class="st12" d="M1216.85,172.76L1216.85,172.76c-10.54,0-17-8.71-17-19.35v-10.67c0-10.64,8.62-19.35,19.17-19.35l0,0
					c10.54,0,19.17,8.71,19.17,19.35v10.67C1238.18,164.06,1227.39,172.76,1216.85,172.76z"/>
				<path class="st15" d="M1215.36,172.57L1215.36,172.57c-10.27,0-16.56-8.71-16.56-19.35v-10.67c0-10.64,8.4-19.35,18.67-19.35
					l0,0c10.27,0,18.67,8.71,18.67,19.35v10.67C1236.13,163.86,1225.63,172.57,1215.36,172.57z"/>
				<path class="st16" d="M1208.11,156.69c0,0.95-0.77,1.72-1.72,1.72c-0.95,0-1.72-0.77-1.72-1.72c0-0.95,0.77-1.72,1.72-1.72
					C1207.34,154.97,1208.11,155.74,1208.11,156.69z"/>
				<path class="st16" d="M1223.04,156.69c0,0.95-0.77,1.72-1.72,1.72c-0.95,0-1.72-0.77-1.72-1.72c0-0.95,0.77-1.72,1.72-1.72
					C1222.27,154.97,1223.04,155.74,1223.04,156.69z"/>
				<path class="st17" d="M1214.16,166.46c-3.32,0-5.34-1.33-5.42-1.38l0.49-0.74c0.02,0.01,1.9,1.24,4.93,1.24
					c3.05,0,4.91-1.22,4.93-1.23l0.49,0.74C1219.5,165.13,1217.48,166.46,1214.16,166.46z"/>
				<path class="st14" d="M1240.8,146.27c-0.82,12.72-16.56-8.08-16.56-8.08s-30.32,17.83-29.5,5.11
					c0.82-12.72,11.79-22.37,24.51-21.55C1231.97,122.57,1241.62,133.55,1240.8,146.27z"/>
				<path class="st14" d="M1235.56,151.51c0,2.43-0.46,4.41,0.63,4.41c1.1,0,1.98-1.97,1.98-4.41s-0.89-4.41-1.98-4.41
					C1235.1,147.1,1235.56,149.08,1235.56,151.51z"/>
				
					<ellipse transform="matrix(0.7894 -0.6139 0.6139 0.7894 170.2455 775.2889)" class="st14" cx="1215.01" cy="139.53" rx="9.98" ry="4.4"/>
				<path class="st14" d="M1207.66,150.96c-0.14,0-0.29-0.03-0.43-0.08c-2.64-0.99-4.79-0.05-4.81-0.04
					c-0.61,0.29-1.34,0.02-1.63-0.59c-0.29-0.61-0.02-1.34,0.59-1.63c0.12-0.06,3.08-1.41,6.72-0.04c0.63,0.24,0.95,0.95,0.72,1.58
					C1208.63,150.66,1208.16,150.96,1207.66,150.96z"/>
				<path class="st14" d="M1225.16,150.96c-0.14,0-0.29-0.03-0.43-0.08c-2.64-0.99-4.79-0.05-4.81-0.04
					c-0.61,0.29-1.35,0.02-1.63-0.59c-0.29-0.61-0.02-1.34,0.59-1.63c0.12-0.06,3.08-1.41,6.72-0.04c0.63,0.24,0.96,0.95,0.72,1.58
					C1226.12,150.66,1225.66,150.96,1225.16,150.96z"/>
			</g>
			<path class="st12" d="M1178.54,188.38L1178.54,188.38c-0.01-2.36,1.89-4.28,4.24-4.29l14.45-0.08c2.36-0.01,4.28,1.89,4.29,4.24
				v0c0.01,2.36-1.89,4.28-4.24,4.29l-14.45,0.08C1180.48,192.63,1178.56,190.73,1178.54,188.38z"/>
			<g>
				<path class="st18" d="M1187.91,184.62l-0.71,0.29c-0.29,0.12-0.62-0.02-0.74-0.31l-5.56-13.46c-0.12-0.29,0.02-0.62,0.31-0.74
					l0.71-0.29c0.29-0.12,0.62,0.02,0.74,0.31l5.56,13.46C1188.33,184.17,1188.19,184.5,1187.91,184.62z"/>
				
					<rect x="1184.41" y="171.61" transform="matrix(0.9243 -0.3816 0.3816 0.9243 21.2114 465.8907)" class="st19" width="1.9" height="15.69"/>
				
					<rect x="1185.28" y="173.71" transform="matrix(0.9243 -0.3816 0.3816 0.9243 20.4792 466.3861)" class="st20" width="1.9" height="15.69"/>
				
					<rect x="1181.54" y="172.18" transform="matrix(0.9243 -0.3816 0.3816 0.9243 23.6542 464.2728)" class="st21" width="1.9" height="0.62"/>
				
					<rect x="1181.97" y="173.23" transform="matrix(0.9243 -0.3816 0.3816 0.9243 23.2873 464.517)" class="st21" width="1.9" height="0.62"/>
			</g>
			<path class="st15" d="M1231.29,184.04L1231.29,184.04c0.49-2.3,2.75-3.78,5.06-3.29l16.22,3.44c2.3,0.49,3.78,2.75,3.29,5.06l0,0
				c-0.49,2.3-2.75,3.78-5.06,3.29l-16.22-3.44C1232.27,188.61,1230.8,186.34,1231.29,184.04z"/>
			<ellipse transform="matrix(0.866 -0.5 0.5 0.866 72.5137 641.7469)" class="st15" cx="1233.77" cy="185.56" rx="6.07" ry="4.6"/>
			<path class="st15" d="M1181.56,183.35c-2.9,1.68-4.23,4.82-2.96,7.02c1.27,2.2,4.65,2.62,7.56,0.95c2.9-1.68,4.23-4.82,2.96-7.02
				C1187.85,182.1,1184.47,181.67,1181.56,183.35z"/>
			<path class="st12" d="M1189,186.35L1189,186.35c0.6,0.03,1.12-0.43,1.15-1.03l0.1-1.77c0.03-0.6-0.43-1.12-1.03-1.15l0,0
				c-0.6-0.03-1.12,0.43-1.15,1.03l-0.1,1.77C1187.93,185.8,1188.4,186.32,1189,186.35z"/>
			<path class="st15" d="M1189.23,186.06L1189.23,186.06c0.6,0.03,1.12-0.43,1.15-1.03l0.1-1.77c0.03-0.6-0.43-1.12-1.03-1.15l0,0
				c-0.6-0.03-1.12,0.43-1.15,1.03l-0.1,1.77C1188.17,185.51,1188.63,186.03,1189.23,186.06z"/>
		</g>
		<g>
			<path class="st22" d="M1234.58,215.5h-23.6v-20.77h31.8v12.56C1242.79,211.83,1239.11,215.5,1234.58,215.5z"/>
			<path class="st23" d="M1196.01,209.54l0-0.82c-0.02-3.34,2.67-6.06,6.01-6.08l17.57-0.1c3.34-0.02,6.06,2.67,6.08,6.01l0,0.82
				c0.02,3.34-2.67,6.06-6.01,6.08l-17.57,0.1C1198.76,215.57,1196.03,212.88,1196.01,209.54z"/>
			<path class="st22" d="M1225.68,209.38c0.02,3.34-2.67,6.06-6.01,6.08l-17.57,0.1c-3.34,0.02-6.06-2.67-6.08-6.01l-0.01-0.82
				c0-0.62,0.09-1.23,0.26-1.79c0.93,2.17,3.09,3.69,5.6,3.67l17.57-0.1c2.71-0.01,5-1.81,5.75-4.28c0.31,0.72,0.48,1.51,0.49,2.34
				L1225.68,209.38z"/>
			<path class="st23" d="M1218.57,209.25l0-0.3c-0.02-3.48,2.79-6.32,6.27-6.34l9.67-0.05c3.48-0.02,6.32,2.79,6.34,6.27l0,0.3
				c0.02,3.48-2.79,6.32-6.27,6.34l-9.67,0.05C1221.43,215.53,1218.59,212.73,1218.57,209.25z"/>
			<circle class="st22" cx="1226.78" cy="209.07" r="5.81"/>
			<g>
				<path class="st15" d="M1223.95,251.52l-10.33-0.6l2.41-41.65c0.16-2.83,2.6-5,5.43-4.84l0.06,0c2.83,0.16,5,2.6,4.84,5.43
					L1223.95,251.52z"/>
				<path class="st15" d="M1216.07,209.11L1216.07,209.11c-0.02-2.77,2.21-5.02,4.98-5.04l5.46-0.03c2.77-0.02,5.02,2.21,5.04,4.98
					l0,0c0.02,2.77-2.21,5.02-4.98,5.04l-5.46,0.03C1218.34,214.11,1216.09,211.88,1216.07,209.11z"/>
			</g>
			<g>
				<rect x="1207.69" y="249.48" class="st24" width="16.68" height="6.69"/>
				<path class="st25" d="M1215.03,253.02h1.93c1.29,0,2.34-1.05,2.34-2.34v-0.74c0-1.29-1.05-2.34-2.34-2.34h-1.93
					c-1.29,0-2.34,1.05-2.34,2.34v0.74C1212.69,251.97,1213.74,253.02,1215.03,253.02z"/>
				<path class="st24" d="M1216.35,256.18h-8.66v-6.69h15.36l0,0C1223.04,253.18,1220.05,256.18,1216.35,256.18z"/>
				<path class="st26" d="M1213.02,256.71h-10.67c0-4.09,2.39-7.42,5.33-7.42C1210.63,249.29,1213.02,252.61,1213.02,256.71z"/>
				<rect x="1202.35" y="255.21" class="st27" width="22.28" height="1.5"/>
				<path class="st28" d="M1213.09,251.83l-2.15-1.93c-0.11-0.1-0.12-0.28-0.02-0.39l0,0c0.1-0.11,0.28-0.12,0.39-0.02l2.15,1.93
					c0.11,0.1,0.12,0.28,0.02,0.39l0,0C1213.38,251.92,1213.21,251.93,1213.09,251.83z"/>
				<path class="st28" d="M1214.71,251.83l-2.15-1.93c-0.11-0.1-0.12-0.28-0.02-0.39l0,0c0.1-0.11,0.28-0.12,0.39-0.02l2.15,1.93
					c0.11,0.1,0.12,0.28,0.02,0.39l0,0C1215,251.92,1214.83,251.93,1214.71,251.83z"/>
			</g>
			<circle class="st22" cx="1202.6" cy="209.07" r="5.81"/>
			<g>
				<path class="st12" d="M1190.78,254.2l-10.05-2.46l10.69-43.73c0.68-2.78,3.48-4.48,6.25-3.8v0c2.78,0.68,4.48,3.48,3.8,6.25
					L1190.78,254.2z"/>
				<path class="st12" d="M1191.89,209.11L1191.89,209.11c-0.02-2.77,2.21-5.02,4.98-5.04l5.46-0.03c2.77-0.02,5.02,2.21,5.04,4.98
					l0,0c0.02,2.77-2.21,5.02-4.98,5.04l-5.46,0.03C1194.16,214.11,1191.91,211.88,1191.89,209.11z"/>
			</g>
			<g>
				<rect x="1175.78" y="249.48" class="st24" width="16.68" height="6.69"/>
				<path class="st25" d="M1183.12,253.02h1.93c1.29,0,2.34-1.05,2.34-2.34v-0.74c0-1.29-1.05-2.34-2.34-2.34h-1.93
					c-1.29,0-2.34,1.05-2.34,2.34v0.74C1180.78,251.97,1181.83,253.02,1183.12,253.02z"/>
				<path class="st24" d="M1184.44,256.18h-8.66v-6.69h15.36l0,0C1191.13,253.18,1188.14,256.18,1184.44,256.18z"/>
				<path class="st26" d="M1181.11,256.71h-10.67c0-4.09,2.39-7.42,5.33-7.42C1178.72,249.29,1181.11,252.61,1181.11,256.71z"/>
				<rect x="1170.44" y="255.21" class="st27" width="22.28" height="1.5"/>
				<path class="st28" d="M1181.18,251.83l-2.15-1.93c-0.11-0.1-0.12-0.28-0.02-0.39l0,0c0.1-0.11,0.28-0.12,0.39-0.02l2.15,1.93
					c0.11,0.1,0.12,0.28,0.02,0.39l0,0C1181.47,251.92,1181.3,251.93,1181.18,251.83z"/>
				<path class="st28" d="M1182.8,251.83l-2.15-1.93c-0.11-0.1-0.12-0.28-0.02-0.39l0,0c0.1-0.11,0.28-0.12,0.39-0.02l2.15,1.93
					c0.11,0.1,0.12,0.28,0.02,0.39l0,0C1183.09,251.92,1182.92,251.93,1182.8,251.83z"/>
			</g>
		</g>
		<g>
			<g>
				<g>
					<g>
						<rect x="1125.48" y="254.12" class="st3" width="6.18" height="2.58"/>
						<rect x="1124.51" y="197.19" class="st29" width="8.12" height="58.22"/>
					</g>
					<g>
						<rect x="1145.55" y="254.12" class="st3" width="6.18" height="2.58"/>
						<rect x="1144.58" y="197.19" class="st2" width="8.12" height="58.22"/>
					</g>
					<rect x="1124.51" y="195.86" class="st30" width="8.12" height="9.03"/>
					<rect x="1144.58" y="195.86" class="st30" width="8.12" height="9.03"/>
				</g>
				<g>
					<g>
						<rect x="1243.31" y="254.12" class="st3" width="6.18" height="2.58"/>
						<rect x="1242.34" y="197.19" class="st29" width="8.12" height="58.22"/>
					</g>
					<g>
						<rect x="1263.38" y="254.12" class="st3" width="6.18" height="2.58"/>
						<rect x="1262.41" y="197.19" class="st2" width="8.12" height="58.22"/>
					</g>
					<rect x="1242.34" y="195.86" class="st30" width="8.12" height="9.03"/>
					<rect x="1262.41" y="195.86" class="st30" width="8.12" height="9.03"/>
				</g>
			</g>
			<g>
				<path class="st27" d="M1274.9,201.76h-102.65c-2.36,0-4.28-1.93-4.28-4.28v-0.56c0-2.36,1.93-4.28,4.28-4.28h102.65
					c2.36,0,4.28,1.93,4.28,4.28v0.56C1279.18,199.83,1277.26,201.76,1274.9,201.76z"/>
				<path class="st31" d="M1242.9,201.76h-122.48c-2.51,0-4.56-2.05-4.56-4.56l0,0c0-2.51,2.05-4.56,4.56-4.56h122.48
					c2.51,0,4.56,2.05,4.56,4.56l0,0C1247.47,199.7,1245.41,201.76,1242.9,201.76z"/>
			</g>
		</g>
		<g>
			<path class="st26" d="M1234.36,192.63H1181c0-2.93,6.3-5.3,14.06-5.3c5.54,0,10.32,1.21,12.62,2.96
				c2.29-1.75,7.08-2.96,12.62-2.96C1228.06,187.33,1234.36,189.7,1234.36,192.63z"/>
			<path class="st32" d="M1233.44,192.63h-51.52c2.02-1.99,7.15-3.41,13.15-3.41c5.54,0,10.32,1.21,12.62,2.96
				c2.29-1.75,7.08-2.96,12.62-2.96C1226.3,189.22,1231.42,190.64,1233.44,192.63z"/>
			<path class="st33" d="M1236.92,192.63h-58.49c-0.42,0-0.76-0.34-0.76-0.76l0,0c0-0.42,0.34-0.76,0.76-0.76h58.49
				c0.42,0,0.76,0.34,0.76,0.76l0,0C1237.68,192.29,1237.34,192.63,1236.92,192.63z"/>
		</g>
		<g>
			<g>
				<path class="st34" d="M1134.52,171.36L1134.52,171.36c-0.4,0-0.73-0.33-0.73-0.73v-0.93c0-0.4,0.33-0.73,0.73-0.73l0,0
					c0.4,0,0.73,0.33,0.73,0.73v0.93C1135.25,171.04,1134.93,171.36,1134.52,171.36z"/>
				<path class="st35" d="M1134.37,171.42L1134.37,171.42c-0.28,0-0.5-0.22-0.5-0.5v-1.26c0-0.28,0.22-0.5,0.5-0.5l0,0
					c0.28,0,0.5,0.22,0.5,0.5v1.26C1134.87,171.2,1134.65,171.42,1134.37,171.42z"/>
				<rect x="1133.05" y="170.8" class="st31" width="0.51" height="0.38"/>
				<path class="st36" d="M1133.04,175.34L1133.04,175.34c-0.11,0-0.21-0.09-0.21-0.21v-4.42c0-0.11,0.09-0.21,0.21-0.21l0,0
					c0.11,0,0.21,0.09,0.21,0.21v4.42C1133.25,175.25,1133.15,175.34,1133.04,175.34z"/>
				<path class="st36" d="M1133.74,185.56h1.57c0.16,0,0.29-0.13,0.29-0.29v-14.53c0-0.16-0.13-0.29-0.29-0.29h-1.57
					c-0.16,0-0.29,0.13-0.29,0.29v14.53C1133.45,185.43,1133.58,185.56,1133.74,185.56z"/>
			</g>
			
				<rect x="1130" y="167.74" transform="matrix(0.9899 -0.1421 0.1421 0.9899 -13.4387 162.4508)" class="st20" width="2.04" height="15.22"/>
			
				<rect x="1127.98" y="171.87" transform="matrix(0.9813 -0.1927 0.1927 0.9813 -13.4266 220.8866)" class="st37" width="2.04" height="15.22"/>
			<g>
				<path class="st18" d="M1136.85,186.45l-0.92-0.12c-0.38-0.05-0.64-0.4-0.59-0.77l2.36-17.54c0.05-0.38,0.4-0.64,0.77-0.59
					l0.92,0.12c0.38,0.05,0.64,0.4,0.59,0.77l-2.36,17.54C1137.57,186.23,1137.22,186.5,1136.85,186.45z"/>
				
					<rect x="1136.16" y="169.94" transform="matrix(0.9911 0.1332 -0.1332 0.9911 34.0254 -149.8392)" class="st19" width="2.31" height="19.07"/>
				
					<rect x="1135.79" y="172.67" transform="matrix(0.9911 0.1332 -0.1332 0.9911 34.3897 -149.7801)" class="st38" width="2.31" height="19.07"/>
				
					<rect x="1137.38" y="170.02" transform="matrix(0.9911 0.1332 -0.1332 0.9911 32.8321 -150.0983)" class="st21" width="2.31" height="0.75"/>
				
					<rect x="1137.2" y="171.39" transform="matrix(0.9911 0.1332 -0.1332 0.9911 33.0075 -150.0458)" class="st21" width="2.31" height="0.75"/>
			</g>
			<g>
				<path class="st39" d="M1138.24,192.74h-10.23c-0.48,0-0.87-0.39-0.87-0.87v-12.44h11.97v12.44
					C1139.11,192.35,1138.72,192.74,1138.24,192.74z"/>
				<path class="st10" d="M1138.78,192h-8.71c-1.15,0-2.08-0.93-2.08-2.08v-10.49h11.13v12.25
					C1139.11,191.86,1138.96,192,1138.78,192z"/>
			</g>
		</g>
		<g>
			<g>
				<path class="st40" d="M1147.41,191.97c-1.13,0-2.04-0.98-2.04-2.19s0.92-2.19,2.04-2.19h25.62v4.37H1147.41z"/>
				<path class="st41" d="M1145.38,190.08c0.14,1.1,1.13,1.9,2.25,1.9h26.38c0.18,0,0.33,0.15,0.33,0.33l0,0
					c0,0.18-0.15,0.33-0.33,0.33l-27.69,0c-1.59,0-2.98-1.3-2.96-2.89c0.01-0.77,0.33-1.48,0.84-1.99c0.51-0.51,1.23-0.83,2.02-0.83
					h27.79c0.18,0,0.33,0.15,0.33,0.33l0,0c0,0.18-0.15,0.33-0.33,0.33h-26.46C1146.25,187.6,1145.21,188.74,1145.38,190.08z"/>
				<path class="st26" d="M1173.03,187.6v4.37h-25.63c-1.13,0-2.04-0.98-2.04-2.19c0-1.21,0.92-2.19,2.04-2.19H1173.03z"/>
				<g>
					<rect x="1145.07" y="188.08" class="st42" width="27.96" height="0.55"/>
					<rect x="1145.07" y="189.51" class="st42" width="27.96" height="0.55"/>
					<rect x="1145.07" y="190.95" class="st42" width="27.96" height="0.55"/>
				</g>
				<path class="st43" d="M1147.55,191.97h-1.34c-1.21,0-2.19-0.98-2.19-2.19c0-1.21,0.98-2.19,2.19-2.19h1.34
					c-1.21,0-2.19,0.98-2.19,2.19C1145.36,190.99,1146.35,191.97,1147.55,191.97z"/>
				<path class="st44" d="M1173.03,187.6v4.37h-15.28c-1.13,0-2.04-0.98-2.04-2.19c0-1.21,0.92-2.19,2.04-2.19H1173.03z"/>
			</g>
			<g>
				<path class="st26" d="M1171.12,184.57c0,0.93-0.72,1.69-1.61,1.69h-21.26v-3.39h21.26
					C1170.4,182.87,1171.12,183.64,1171.12,184.57z"/>
				<g>
					<rect x="1148.26" y="184.29" class="st42" width="23.38" height="0.55"/>
					<g>
						<rect x="1148.26" y="183.22" class="st42" width="23.38" height="0.55"/>
						<rect x="1148.26" y="185.36" class="st42" width="23.38" height="0.55"/>
					</g>
				</g>
				<path class="st45" d="M1173.02,184.39c0.05,0.72-0.22,1.38-0.68,1.85c-0.43,0.43-1.02,0.69-1.67,0.69h-22.78
					c-0.18,0-0.33-0.15-0.33-0.33l0,0c0-0.18,0.15-0.33,0.33-0.33h21.54c0.99,0,1.79-0.86,1.69-1.87c-0.09-0.88-0.88-1.52-1.77-1.52
					h-21.46c-0.18,0-0.33-0.15-0.33-0.33l0,0c0-0.18,0.15-0.33,0.33-0.33h22.69C1171.83,182.21,1172.93,183.14,1173.02,184.39z"/>
				<path class="st46" d="M1172.36,184.57c0,0.93-0.76,1.69-1.7,1.69h-1.24c0.93,0,1.7-0.76,1.7-1.69c0-0.93-0.76-1.7-1.7-1.7h1.24
					C1171.6,182.87,1172.36,183.64,1172.36,184.57z"/>
				<path class="st47" d="M1162.98,184.57c0,0.93-0.72,1.69-1.6,1.69h-13.12v-3.39h13.12
					C1162.26,182.87,1162.98,183.64,1162.98,184.57z"/>
			</g>
			<g>
				<path class="st26" d="M1170.99,178.15v3.39h-21.26c-0.88,0-1.61-0.76-1.61-1.69c0-0.93,0.72-1.7,1.61-1.7H1170.99z"/>
				<g>
					
						<rect x="1147.61" y="179.57" transform="matrix(-1 -1.224647e-16 1.224647e-16 -1 2318.6011 359.6885)" class="st42" width="23.38" height="0.55"/>
					<g>
						
							<rect x="1147.61" y="178.5" transform="matrix(-1 -1.224647e-16 1.224647e-16 -1 2318.6011 357.5541)" class="st42" width="23.38" height="0.55"/>
						
							<rect x="1147.61" y="180.63" transform="matrix(-1 -1.224647e-16 1.224647e-16 -1 2318.6011 361.8229)" class="st42" width="23.38" height="0.55"/>
					</g>
				</g>
				<path class="st48" d="M1146.22,179.67c-0.05,0.72,0.22,1.38,0.68,1.85c0.43,0.43,1.02,0.69,1.67,0.69h22.78
					c0.18,0,0.33-0.15,0.33-0.33l0,0c0-0.18-0.15-0.33-0.33-0.33h-21.54c-0.99,0-1.79-0.86-1.69-1.87c0.09-0.88,0.88-1.52,1.77-1.52
					h21.46c0.18,0,0.33-0.15,0.33-0.33l0,0c0-0.18-0.15-0.33-0.33-0.33h-22.69C1147.42,177.48,1146.32,178.42,1146.22,179.67z"/>
				<path class="st49" d="M1146.88,179.85c0,0.93,0.76,1.69,1.7,1.69h1.24c-0.93,0-1.7-0.76-1.7-1.69c0-0.93,0.76-1.7,1.7-1.7h-1.24
					C1147.65,178.15,1146.88,178.91,1146.88,179.85z"/>
				<path class="st50" d="M1170.99,178.15v3.39h-12.39c-0.88,0-1.6-0.76-1.6-1.69c0-0.93,0.72-1.7,1.6-1.7H1170.99z"/>
			</g>
		</g>
	</g>
</g>
</svg>
