<?xml version="1.0" encoding="utf-8"?>
<!-- Generator: Adobe Illustrator 25.0.0, SVG Export Plug-In . SVG Version: 6.00 Build 0)  -->
<svg version="1.1" id="Camada_1" xmlns="http://www.w3.org/2000/svg" xmlns:xlink="http://www.w3.org/1999/xlink" x="0px" y="0px"
	 viewBox="0 0 920 550" style="enable-background:new 0 0 920 550;" xml:space="preserve">
<style type="text/css">
	.st0{fill:#C6BEC0;}
	.st1{fill:#EC6798;}
	.st2{fill:#841450;}
	.st3{fill:#FFFFFF;}
	.st4{fill:#FFE64E;}
	.st5{fill:#915714;}
	.st6{fill:#B9D03E;}
	.st7{fill:#3C7830;}
	.st8{fill:#8ED1E5;}
	.st9{fill:#0D709C;}
	.st10{fill:#A292C5;}
	.st11{fill:#563B8F;}
	.st12{fill:#563C90;}
	.st13{fill:#605C5E;}
</style>
<g>
	<path class="st0" d="M460.4,491.67l-1.95-1.42L241.56,332.67l83.59-257.26h270.5l83.59,257.26L460.4,491.67z M249.36,330.14
		L460.4,483.47l211.04-153.33L590.83,82.05H329.97L249.36,330.14z"/>
	<g>
		<g>
			
				<ellipse transform="matrix(0.7071 -0.7071 0.7071 0.7071 38.7121 254.483)" class="st1" cx="326.54" cy="80.51" rx="71.49" ry="71.49"/>
			<path class="st2" d="M326.54,9.02c39.48,0,71.49,32.01,71.49,71.49c0,39.48-32.01,71.49-71.49,71.49
				c-39.48,0-71.49-32.01-71.49-71.49C255.05,41.03,287.06,9.02,326.54,9.02z M326.54,4.35c-42,0-76.17,34.17-76.17,76.17
				c0,42,34.17,76.17,76.17,76.17c42,0,76.17-34.17,76.17-76.17C402.71,38.51,368.54,4.35,326.54,4.35L326.54,4.35z"/>
		</g>
		<g>
			<path class="st3" d="M326.83,113.54c-35.82,0-50.75-34.07-50.9-34.42c-0.32-0.74-0.28-1.59,0.11-2.3
				c0.65-1.2,16.24-29.34,50.79-29.34c34.58,0,49.62,28.18,50.25,29.38c0.36,0.7,0.4,1.52,0.09,2.25
				C377.02,79.45,362.33,113.54,326.83,113.54z"/>
			<path class="st2" d="M326.83,114.49c-36.85,0-52.2-35.05-52.35-35.41c-0.32-0.76-0.28-1.63,0.11-2.36
				c0.67-1.23,16.7-30.19,52.25-30.19c35.57,0,51.04,28.99,51.69,30.22c0.37,0.72,0.41,1.56,0.1,2.31
				C378.47,79.42,363.36,114.49,326.83,114.49z M280.07,78.18c2.93,5.97,16.91,30.86,46.77,30.86c29.61,0,43.38-25,46.21-30.89
				c-3.11-5.21-17.41-26.16-46.21-26.16C298.43,51.99,283.34,73.01,280.07,78.18z"/>
			<path class="st2" d="M326.83,105.71c-15.91,0-28.85-12.94-28.85-28.85s12.94-28.85,28.85-28.85c15.91,0,28.85,12.94,28.85,28.85
				S342.74,105.71,326.83,105.71z M326.83,53.47c-12.9,0-23.4,10.5-23.4,23.4c0,12.9,10.5,23.4,23.4,23.4
				c12.9,0,23.4-10.5,23.4-23.4C350.23,63.96,339.74,53.47,326.83,53.47z"/>
			<path class="st2" d="M338.49,76.86c0,6.44-5.22,11.66-11.66,11.66c-6.44,0-11.66-5.22-11.66-11.66c0-6.44,5.22-11.66,11.66-11.66
				C333.27,65.2,338.49,70.42,338.49,76.86z"/>
			<path class="st3" d="M326.66,70.32c0,4.03-3.26,7.29-7.29,7.29c-4.02,0-7.29-3.26-7.29-7.29c0-4.03,3.26-7.29,7.29-7.29
				C323.4,63.03,326.66,66.29,326.66,70.32z"/>
		</g>
	</g>
	<g>
		<g>
			
				<ellipse transform="matrix(1 -5.787056e-03 5.787056e-03 1 -0.456 3.4361)" class="st4" cx="593.52" cy="80.51" rx="71.49" ry="71.49"/>
			<path class="st5" d="M599.95,9.3c39.33,3.55,68.32,38.31,64.77,77.64c-3.55,39.32-38.31,68.32-77.64,64.77
				c-39.32-3.55-68.32-38.31-64.77-77.64C525.86,34.75,560.62,5.75,599.95,9.3z M600.37,4.65c-41.83-3.78-78.93,27.18-82.71,69.01
				c-3.78,41.83,27.18,78.93,69,82.71c41.83,3.78,78.93-27.18,82.71-69.01C673.15,45.53,642.2,8.43,600.37,4.65L600.37,4.65z"/>
		</g>
		<g>
			<path class="st3" d="M581.81,125.88c-3.65-0.33-7.84-2.13-10.79-6.52c-2.12-3.16-3.61-8.11-3.21-11.97
				c0.18-1.76-3.47-31.43-3.51-33.1c-0.53-22.59,10.02-37.57,27.55-39.08c10.7-0.92,20.53,2.42,27.68,9.42
				c6.41,6.28,10,15.64,9.86,25.69c-0.18,12.97-8.53,27.53-22.89,39.94c-1.84,1.59-3.5,3.35-5.11,5.04
				c-4.21,4.45-8.57,9.05-16.03,10.43C584.3,125.93,583.09,126,581.81,125.88z"/>
			<g>
				<path class="st5" d="M584.85,104.23c-1.44-0.13-2.55-0.69-3.88-1.45c-3.38-1.92-4.31-6.21-3.49-9.44
					c0.52-2.07,1.59-3.65,2.53-5.03c0.91-1.34,1.69-2.5,1.9-3.92c0.43-2.91-0.16-5.58-1.56-7.17c-3.83-4.33-3.7-8.17-3.27-10.67
					c1.16-6.71,4.35-12.12,8.99-15.23c5.86-3.94,13.39-4.61,19.64-1.75c2.82,1.29,5.32,3.25,7.23,5.66
					c5.56,7.03,5.76,19.55,0.45,27.33c-0.76,1.12-2.29,1.41-3.41,0.64c-1.12-0.77-1.41-2.29-0.64-3.42
					c4.13-6.06,4.02-16.11-0.25-21.51c-1.43-1.81-3.3-3.27-5.42-4.24c-4.64-2.12-10.47-1.59-14.86,1.36
					c-3.51,2.36-5.96,6.62-6.89,11.99c-0.32,1.82-0.28,3.88,2.11,6.58c2.38,2.69,3.38,6.75,2.74,11.14
					c-0.37,2.53-1.6,4.35-2.69,5.96c-0.82,1.21-1.52,2.25-1.84,3.49c-0.36,1.42-0.03,3.29,1.16,3.97c1.45,0.83,1.73,0.94,2.76,0.78
					c1.11-0.17,2.16-0.88,2.72-1.86c0.68-1.17,2.19-1.57,3.36-0.89c1.17,0.68,1.57,2.19,0.89,3.36c-1.31,2.26-3.64,3.85-6.23,4.25
					C586.14,104.26,585.46,104.29,584.85,104.23z"/>
			</g>
			<path class="st5" d="M630.9,69.84c0.15-10.5-3.61-20.28-10.3-26.84c-7.47-7.31-17.74-10.81-28.92-9.84
				c-18.31,1.58-29.67,17.24-28.78,40.83c0.4,10.5,2.36,23.46,3.08,31.86c0.21,2.46,0.18,8.28,3.64,13.51
				c3.05,4.61,7.45,6.47,11.27,6.82c1.33,0.12,2.55,0.25,3.68,0.24c6.64-0.06,14.01-4.53,18.41-9.18c1.68-1.77,3.41-3.61,5.34-5.27
				C623.32,99,630.7,83.39,630.9,69.84z M605.1,108.25c-2.11,1.82-3.93,3.75-5.69,5.61c-4.21,4.45-9.84,7.17-15.69,7.33
				c-2.9,0.08-7.19-0.35-10.02-4.57c-1.98-2.96-2.34-4.33-2.9-9.04c-1.13-9.56-2.79-28-2.99-33.71
				c-0.28-7.89,1.01-33.81,24.29-35.82c6.88-0.59,16.81,0.39,25.05,8.46c5.74,5.62,8.96,14.09,8.83,23.25
				C625.81,81.92,619.04,96.2,605.1,108.25z"/>
			<path class="st5" d="M598.91,72.12c-1.35-0.12-2.35-1.32-2.23-2.67c0.32-3.52-0.98-6.31-3.67-7.85c-2.9-1.66-6.82-1.48-9.54,0.46
				c-1.11,0.79-2.64,0.53-3.43-0.58c-0.79-1.11-0.53-2.64,0.58-3.43c4.29-3.06,10.26-3.34,14.83-0.72
				c4.38,2.51,6.61,7.09,6.11,12.56C601.45,71.24,600.26,72.24,598.91,72.12z"/>
		</g>
	</g>
	<g>
		<g>
			<path class="st6" d="M746.97,321.66c0,39.49-32.01,71.49-71.49,71.49c-39.49,0-71.49-32.01-71.49-71.49
				c0-39.48,32.01-71.49,71.49-71.49C714.96,250.16,746.97,282.17,746.97,321.66z"/>
			<path class="st7" d="M675.47,250.16c39.48,0,71.49,32.01,71.49,71.49c0,39.49-32.01,71.49-71.49,71.49
				c-39.49,0-71.49-32.01-71.49-71.49C603.98,282.17,635.99,250.16,675.47,250.16z M675.47,245.49c-42,0-76.17,34.17-76.17,76.17
				c0,42,34.17,76.17,76.17,76.17c42,0,76.17-34.17,76.17-76.17C751.64,279.66,717.47,245.49,675.47,245.49L675.47,245.49z"/>
		</g>
		<g>
			<path class="st3" d="M703.77,321.61c-3.57-1.63-6.13-3.93-7.05-9.86c-2.4-15.45-6.78-32.98-21.02-32.98
				c-7.18,0-17.21,4.98-21.47,32.99c-0.91,5.99-3.18,8.08-7.05,9.85c-6.63,3.03-10.91,9.22-10.91,15.78c0,5.38,2.07,9.99,5.99,13.33
				c4.08,3.48,9.85,5.32,16.35,5.32c1.89,0,3.84-0.16,5.83-0.47c0.03-0.01,0.06-0.02,0.1-0.03c2.96,2.43,6.66,3.82,10.61,3.88
				c0.09,0,0.18,0,0.27,0c4.05,0,7.85-1.4,10.87-3.92c0.08,0.02,0.16,0.05,0.24,0.06c8.83,1.41,16.91-0.36,22.18-4.85
				c3.92-3.35,5.99-7.96,5.99-13.33C714.69,330.83,710.4,324.64,703.77,321.61z"/>
			<path class="st7" d="M658.66,348.29c-1.16,1.92-4.59,1.97-7.65,0.11c-3.06-1.86-4.6-4.92-3.44-6.84
				c1.17-1.92,4.59-1.97,7.65-0.11C658.29,343.31,659.83,346.37,658.66,348.29z"/>
			<path class="st7" d="M657.25,357.2c-7.02,0-13.25-1.99-17.66-5.75c-4.24-3.61-6.47-8.6-6.47-14.4c0-7.08,4.63-13.77,11.79-17.04
				c4.18-1.91,6.63-4.17,7.62-10.64c4.6-30.25,15.44-33.75,23.2-33.75c15.39,0,20.11,17.06,22.71,33.75
				c0.99,6.4,3.76,8.89,7.62,10.65c7.16,3.27,11.79,9.96,11.79,17.04c0,5.81-2.24,10.79-6.47,14.4c-5.69,4.85-14.42,6.76-23.96,5.24
				c-1.27-0.2-2.14-1.4-1.94-2.68c0.2-1.27,1.4-2.15,2.68-1.94c8.07,1.29,15.61-0.28,20.19-4.18c3.21-2.74,4.84-6.39,4.84-10.85
				c0-5.26-3.56-10.28-9.06-12.79c-6.1-2.79-9.18-7.03-10.29-14.18c-4.08-26.25-11.43-29.79-18.09-29.79
				c-12.45,0-16.47,15.92-18.58,29.78c-1.29,8.46-5.05,11.79-10.3,14.19c-5.5,2.52-9.06,7.54-9.06,12.79
				c0,4.46,1.63,8.11,4.84,10.85c4.58,3.9,12.12,5.47,20.19,4.18c1.27-0.21,2.47,0.66,2.68,1.94c0.2,1.27-0.67,2.47-1.94,2.68
				C661.4,357.03,659.29,357.2,657.25,357.2z"/>
			<path class="st7" d="M692.29,348.29c1.16,1.92,4.59,1.97,7.65,0.11c3.06-1.86,4.6-4.92,3.44-6.84c-1.16-1.92-4.59-1.97-7.65-0.11
				C692.66,343.31,691.12,346.37,692.29,348.29z"/>
			<path class="st7" d="M675.4,360.85c-0.1,0-0.19,0-0.29,0c-5.88-0.09-11.23-2.86-14.7-7.59l-0.67-0.92
				c-2.16-2.99-4.2-5.81-8.39-7.75c-1.17-0.54-1.68-1.93-1.14-3.1c0.54-1.17,1.93-1.68,3.1-1.14c5.3,2.46,7.91,6.07,10.21,9.26
				l0.65,0.9c2.59,3.54,6.6,5.61,11,5.68c0.07,0,0.14,0,0.22,0c4.27,0,8.2-1.91,10.81-5.27c0.36-0.46,0.71-0.93,1.06-1.39
				c2.39-3.16,5.09-6.74,10.35-9.17c1.17-0.54,2.56-0.03,3.1,1.14c0.54,1.17,0.03,2.56-1.14,3.1c-4.2,1.95-6.33,4.77-8.59,7.75
				c-0.37,0.48-0.73,0.97-1.11,1.45C686.39,358.29,681.12,360.85,675.4,360.85z"/>
		</g>
	</g>
	<g>
		<g>
			
				<ellipse transform="matrix(0.2362 -0.9717 0.9717 0.2362 -107.11 807.4029)" class="st8" cx="460.03" cy="471.83" rx="71.49" ry="71.49"/>
			<path class="st9" d="M460.03,400.34c39.48,0,71.49,32.01,71.49,71.49c0,39.48-32.01,71.49-71.49,71.49s-71.49-32.01-71.49-71.49
				C388.54,432.35,420.55,400.34,460.03,400.34z M460.03,395.67c-42,0-76.17,34.17-76.17,76.17c0,42,34.17,76.17,76.17,76.17
				c42,0,76.17-34.17,76.17-76.17C536.2,429.84,502.03,395.67,460.03,395.67L460.03,395.67z"/>
		</g>
		<g>
			<path class="st3" d="M506.16,455.15c-0.18-0.73-0.71-1.31-1.41-1.56c-2.64-0.93-5.94-2.53-9.43-4.23
				c-7.63-3.72-16.27-7.93-23.58-7.93c-3.54,0-5.87,1.14-7.74,2.05c-1.42,0.69-2.54,1.24-3.97,1.24s-2.55-0.55-3.97-1.24
				c-1.87-0.91-4.2-2.05-7.74-2.05c-7.31,0-15.95,4.21-23.58,7.93c-3.49,1.7-6.78,3.31-9.43,4.24c-0.71,0.25-1.24,0.84-1.42,1.57
				c-0.07,0.29-0.06,0.59-0.02,0.88l-0.02,0c3.91,23.26,27.36,40.64,45.72,40.64h0.88c18.36,0,41.81-17.38,45.72-40.64l-0.02,0
				C506.22,455.75,506.23,455.45,506.16,455.15z"/>
			<path class="st9" d="M506.56,454.77c-6.15,8.51-20.83,16.17-46.53,16.17c-25.7,0-37.85-7.69-46.53-16.3
				c0,0,20.83,4.59,46.53,4.59C485.73,459.24,506.56,454.77,506.56,454.77z"/>
			<path class="st9" d="M460.5,498.27h-0.93c-19.42,0-44.23-18.38-48.37-42.99l4.61-0.77c3.7,22.01,26.56,39.09,43.76,39.09h0.93
				c17.2,0,40.06-17.07,43.76-39.09l4.61,0.77C504.73,479.89,479.92,498.27,460.5,498.27z"/>
			<g>
				<path class="st3" d="M484.44,492.17c0,14.07-11.51,25.57-25.57,25.57h0c-12.84,0-23.26-10.41-23.26-23.26v-26.59
					c0-3.85,13.41-7.1,24.31-2.78c10.59-3.7,24.52-1.56,24.52,2.78V492.17z"/>
				<path class="st9" d="M458.87,520.08c-14.11,0-25.59-11.48-25.59-25.59v-26.59c0-1.1,0.45-2.72,2.6-4.18
					c4.63-3.15,15.26-4.26,24.09-1.08c8.49-2.7,19.69-2.22,24.39,1.11c1.99,1.42,2.41,3.04,2.41,4.14v24.28
					C486.78,507.56,474.26,520.08,458.87,520.08z M437.95,468.04v26.45c0,11.54,9.39,20.92,20.92,20.92
					c12.81,0,23.24-10.42,23.24-23.24v-24.21c-0.93-1.72-11.48-4.11-21.41-0.64c-0.53,0.18-1.11,0.17-1.63-0.03
					C449.75,463.59,439.16,466.18,437.95,468.04z"/>
			</g>
			<path class="st9" d="M460.03,504.25c-1.29,0-2.34-1.05-2.34-2.34v-39.72c0-1.29,1.05-2.34,2.34-2.34c1.29,0,2.34,1.05,2.34,2.34
				v39.72C462.37,503.2,461.32,504.25,460.03,504.25z"/>
			<path class="st9" d="M451.98,464.2c-31.87,0-39.38-6.85-40.17-7.68c-0.55-0.57-0.76-1.39-0.58-2.16c0.19-0.77,0.75-1.4,1.5-1.66
				c2.8-0.98,6.28-2.68,9.97-4.48c8.07-3.93,17.21-8.39,24.95-8.39c3.74,0,6.2,1.2,8.18,2.17c1.5,0.73,2.68,1.31,4.2,1.31
				c1.52,0,2.7-0.58,4.2-1.31c1.98-0.96,4.44-2.17,8.18-2.17c7.73,0,16.88,4.46,24.95,8.39c3.69,1.8,7.18,3.5,9.97,4.48
				c0.75,0.26,1.31,0.88,1.5,1.65c0.19,0.77-0.03,1.58-0.57,2.15c-0.85,0.9-9.43,8.8-48.08,7.56h-0.25
				C457.12,464.15,454.48,464.2,451.98,464.2z M460.22,459.39c0.03,0,0.05,0,0.07,0c24.16,0.78,35.8-2.08,40.95-4.15
				c-1.88-0.85-3.88-1.82-5.93-2.83c-7.61-3.71-16.24-7.92-22.9-7.92c-2.66,0-4.35,0.82-6.13,1.69c-1.71,0.84-3.65,1.78-6.25,1.78
				c-2.59,0-4.54-0.95-6.25-1.78c-1.78-0.87-3.47-1.69-6.13-1.69c-6.65,0-15.28,4.21-22.9,7.92c-2.04,0.99-4.01,1.96-5.88,2.8
				c5.23,2.06,16.96,4.94,40.98,4.17L460.22,459.39z"/>
		</g>
	</g>
	<g>
		<g>
			<path class="st10" d="M317.04,321.66c0,39.49-32.01,71.49-71.49,71.49c-39.49,0-71.49-32.01-71.49-71.49
				c0-39.48,32.01-71.49,71.49-71.49C285.04,250.16,317.04,282.17,317.04,321.66z"/>
			<path class="st11" d="M245.55,250.16c39.48,0,71.49,32.01,71.49,71.49c0,39.49-32.01,71.49-71.49,71.49
				c-39.49,0-71.49-32.01-71.49-71.49C174.06,282.17,206.07,250.16,245.55,250.16z M245.55,245.49c-42,0-76.17,34.17-76.17,76.16
				c0,42,34.17,76.17,76.17,76.17c42,0,76.17-34.17,76.17-76.17C321.72,279.66,287.55,245.49,245.55,245.49L245.55,245.49z"/>
		</g>
		<g>
			<g>
				<path class="st3" d="M267.5,316.99v-34.08c0-4.04-3.28-7.31-7.31-7.31c-4.04,0-7.31,3.28-7.31,7.31v-7.22
					c0-4.04-3.28-7.31-7.31-7.31c-4.04,0-7.32,3.28-7.32,7.31v7.22c0-4.04-3.28-7.31-7.31-7.31c-4.04,0-7.31,3.28-7.31,7.31v13.7
					c0-4.04-3.28-7.32-7.32-7.32c-4.04,0-7.31,3.28-7.31,7.32v20.37v21.36c0,20.2,16.37,36.57,36.57,36.57
					c20.2,0,36.57-16.38,36.57-36.57v-21.36H267.5z"/>
				<path class="st11" d="M245.55,377.27c-21.45,0-38.91-17.46-38.91-38.91v-41.73c0-5.32,4.33-9.65,9.65-9.65
					c1.82,0,3.52,0.51,4.98,1.39v-5.44c0-5.32,4.33-9.65,9.65-9.65c1.84,0,3.56,0.52,5.03,1.42c0.51-4.85,4.62-8.64,9.6-8.64
					s9.09,3.79,9.6,8.64c1.47-0.9,3.19-1.42,5.03-1.42c5.32,0,9.65,4.33,9.65,9.65v31.74h12.29c1.29,0,2.34,1.05,2.34,2.34v21.36
					C284.46,359.81,267.01,377.27,245.55,377.27z M216.29,291.64c-2.75,0-4.98,2.23-4.98,4.98v41.73
					c0,18.88,15.36,34.24,34.24,34.24c18.88,0,34.24-15.36,34.24-34.24v-19.02H267.5c-1.29,0-2.34-1.05-2.34-2.34v-34.08
					c0-2.75-2.23-4.98-4.98-4.98c-2.74,0-4.98,2.23-4.98,4.98c0,1.29-1.05,2.34-2.34,2.34c-1.29,0-2.34-1.05-2.34-2.34v-7.22
					c0-2.74-2.23-4.98-4.98-4.98c-2.75,0-4.98,2.23-4.98,4.98v7.22c0,1.29-1.05,2.34-2.34,2.34c-1.29,0-2.34-1.05-2.34-2.34
					c0-2.75-2.23-4.98-4.98-4.98c-2.75,0-4.98,2.23-4.98,4.98v13.7c0,1.29-1.05,2.34-2.34,2.34c-1.29,0-2.34-1.05-2.34-2.34
					C221.27,293.88,219.04,291.64,216.29,291.64z"/>
			</g>
			<g>
				<path class="st3" d="M282.13,327.47v-17.58c0-9.39-14.15-9.93-14.63-0.55v22.57L282.13,327.47z"/>
				<path class="st11" d="M267.5,334.24c-1.29,0-2.34-1.05-2.34-2.34v-22.57c0-0.04,0-0.08,0-0.12c0.31-6.05,5.14-9.09,9.78-8.98
					c4.73,0.12,9.52,3.47,9.52,9.66v17.58c0,1.29-1.05,2.34-2.34,2.34c-1.29,0-2.34-1.05-2.34-2.34v-17.58
					c0-3.84-3.12-4.94-4.97-4.98c-2.16-0.08-4.79,1.09-4.99,4.49v22.51C269.83,333.19,268.79,334.24,267.5,334.24z"/>
			</g>
			<g>
				<line class="st12" x1="223.61" y1="293.69" x2="223.61" y2="320.15"/>
				<path class="st11" d="M223.61,322.49c-1.29,0-2.34-1.05-2.34-2.34v-26.46c0-1.29,1.05-2.34,2.34-2.34
					c1.29,0,2.34,1.05,2.34,2.34v26.46C225.94,321.44,224.9,322.49,223.61,322.49z"/>
			</g>
			<g>
				<line class="st12" x1="238.24" y1="282.92" x2="238.24" y2="316.99"/>
				<path class="st11" d="M238.24,319.33c-1.29,0-2.34-1.05-2.34-2.34v-34.08c0-1.29,1.05-2.34,2.34-2.34
					c1.29,0,2.34,1.05,2.34,2.34v34.08C240.57,318.29,239.53,319.33,238.24,319.33z"/>
			</g>
			<g>
				<line class="st12" x1="252.87" y1="282.92" x2="252.87" y2="317.16"/>
				<path class="st11" d="M252.87,319.49c-1.29,0-2.34-1.05-2.34-2.34v-34.24c0-1.29,1.05-2.34,2.34-2.34
					c1.29,0,2.34,1.05,2.34,2.34v34.24C255.2,318.45,254.16,319.49,252.87,319.49z"/>
			</g>
			<path class="st11" d="M244.39,346.12c-0.37,0-0.75-0.09-1.1-0.28c-1.14-0.61-1.56-2.03-0.95-3.16c4.3-8,14.04-13.18,24.84-13.18
				c1.29,0,2.34,1.05,2.34,2.34c0,1.29-1.05,2.34-2.34,2.34c-8.96,0-17.28,4.31-20.72,10.71
				C246.03,345.67,245.22,346.12,244.39,346.12z"/>
		</g>
	</g>
	<g>
		<g>
			<g>
				<g>
					<path class="st0" d="M557.89,246.16c0,52.28-41,94.98-92.59,97.72c-4.49-7.96-47.92-17.53-61.29-17.47
						c-25.29-17.69-41.83-47.03-41.83-80.24c0-54.04,43.81-97.86,97.86-97.86C514.07,148.3,557.89,192.11,557.89,246.16z"/>
					<path class="st13" d="M463.84,346.51l-0.78-1.38c-3.56-6.31-44.75-16.17-58.93-16.17c-0.04,0-0.08,0-0.12,0l-0.81,0l-0.67-0.46
						c-26.88-18.8-42.92-49.58-42.92-82.34c0-55.37,45.05-100.42,100.42-100.42c55.37,0,100.42,45.05,100.42,100.42
						c0,53.41-41.74,97.45-95.02,100.27L463.84,346.51z M404.83,323.85c7.2,0.15,21.14,2.54,33.79,5.81
						c14.97,3.87,24.33,7.76,27.87,11.58c49.92-3.34,88.83-44.85,88.83-95.08c0-52.55-42.75-95.29-95.3-95.29
						c-52.55,0-95.3,42.75-95.3,95.29C364.73,276.98,379.71,305.96,404.83,323.85z"/>
				</g>
				<g>
					<g>
						<path class="st3" d="M460.03,174.93L460.03,174.93c-34.75,0-56.02,25.08-56.02,56.02l0,45.27h0v50.18
							c15.87,11.1,35.18,17.62,56.02,17.62c1.77,0,3.52-0.05,5.26-0.14v-34.88h31.06c4.67,0,8.45-3.79,8.45-8.45v-31.49h8.87
							c2.44,0,4.33-2.57,3.99-5.44l-3.32-24.7c-0.54-4-0.95-8.02-1.19-12.06C511.49,197.82,489.59,174.93,460.03,174.93z"/>
						<path class="st13" d="M460.03,346.57c-20.7,0-40.57-6.25-57.48-18.08l-1.09-0.77v-96.79c0-34.49,24.09-58.58,58.58-58.58
							c29.96,0,53.9,23.36,55.7,54.33c0.22,3.75,0.6,7.63,1.17,11.87l3.32,24.7c0.27,2.33-0.41,4.56-1.86,6.18
							c-1.24,1.39-2.9,2.16-4.68,2.16h-6.31v28.93c0,6.07-4.94,11.01-11.01,11.01h-28.5v34.75l-2.43,0.13
							C463.6,346.53,461.78,346.57,460.03,346.57z M406.57,325.05c15.81,10.73,34.26,16.4,53.46,16.4c0.89,0,1.79-0.01,2.7-0.04
							v-34.98h33.62c3.25,0,5.89-2.64,5.89-5.89v-34.05h11.43c0.38,0,0.67-0.24,0.85-0.45c0.47-0.53,0.69-1.33,0.6-2.14l-3.31-24.65
							c-0.59-4.37-0.98-8.38-1.21-12.25c-1.67-28.69-22.94-49.51-50.59-49.51c-31.47,0-53.46,21.98-53.46,53.46V325.05z"/>
					</g>
				</g>
			</g>
		</g>
		<g>
			<path class="st13" d="M495.99,204.57c-2.82-4.78-6.96-8.88-11.97-11.85c-8.3-4.93-17.36-7.53-26.2-7.53
				c-6.01,0-11.79,1.16-17.19,3.45c-5.32,2.26-10,5.49-13.91,9.61c-7.44,7.85-11.39,18.33-11.12,29.48
				c-0.06,6.81,2.26,13.2,6.55,17.99c4.66,5.2,11.44,8.38,19.76,9.21c0.79,0.05,1.59,0.07,2.36,0.07c10.52,0,18.97-4.47,22.32-11.74
				c12.76,1.1,22.02-1.35,27.79-7.21c4.94-5.02,5.98-11.19,5.98-15.49C500.35,214.93,498.84,209.4,495.99,204.57z"/>
			<path class="st0" d="M482.07,196.25c-30.44-18.07-63.3,1.14-62.54,31.49c-0.13,11.28,7.26,21.58,22.57,23.11
				c11.8,0.74,20.21-4.69,21.69-11.94h0.85c25.85,3.03,31.78-8.98,31.78-18.36C496.42,210.62,491.11,201.62,482.07,196.25z"/>
			<path class="st13" d="M494.92,205.23c-2.71-4.6-6.7-8.54-11.53-11.41c-8.11-4.82-16.96-7.36-25.58-7.36
				c-5.85,0-11.47,1.13-16.71,3.35c-5.16,2.19-9.7,5.33-13.49,9.32c-7.2,7.6-11.03,17.75-10.77,28.6
				c-0.06,6.49,2.15,12.56,6.22,17.11c4.45,4.97,10.96,8.01,18.81,8.79l0.05,0.01l0.05,0c0.77,0.05,1.53,0.07,2.29,0.07
				c10.43,0,18.72-4.66,21.54-11.82c2.25,0.22,4.41,0.33,6.44,0.33c9.46,0,16.61-2.39,21.25-7.1c4.64-4.71,5.61-10.53,5.61-14.57
				C499.11,215.16,497.66,209.86,494.92,205.23z M477.94,238.97v-3.58c0-2.11,1.67-3.82,3.72-3.82h0.85c0.78,0,1.42-0.65,1.42-1.46
				c0-0.81-0.64-1.46-1.42-1.46h-0.85c-3.61,0-6.55,3.02-6.55,6.74v3.84c-0.92,0.05-1.87,0.08-2.86,0.08
				c-1.73,0-3.59-0.08-5.56-0.26v-2.88c0-5.85-4.63-10.6-10.32-10.6h-4.82v-1.46c0-3.71-2.94-6.74-6.55-6.74h-0.85
				c-0.78,0-1.42,0.65-1.42,1.46c0,0.81,0.64,1.46,1.42,1.46H445c2.05,0,3.72,1.71,3.72,3.82v1.46h-5.2c-3.74,0-6.78,3.13-6.78,6.97
				c0,0.81,0.64,1.46,1.42,1.46s1.42-0.65,1.42-1.46c0-2.23,1.77-4.05,3.94-4.05h12.85c4.12,0,7.48,3.45,7.48,7.69v2.66l0,0
				c-1.38,6.78-8.93,11.96-19.58,11.96c-0.69,0-1.4-0.02-2.11-0.07c-7.5-0.75-13.08-3.61-16.81-7.66h18.81
				c3.91,0,7.09-3.27,7.09-7.29c0-0.81-0.64-1.46-1.42-1.46s-1.42,0.65-1.42,1.46c0,2.41-1.91,4.37-4.26,4.37H423.1
				c-2.34-3.67-3.48-7.98-3.42-12.45c-0.08-3.34,0.24-6.55,0.93-9.58h7.94v2.82c0,2.11-1.67,3.82-3.72,3.82h-0.85
				c-0.78,0-1.42,0.65-1.42,1.46c0,0.81,0.63,1.46,1.42,1.46h0.85c3.61,0,6.55-3.02,6.55-6.74v-2.82h1.73
				c3.39,0,6.15-2.84,6.15-6.32v-6.86c0-2.02,1.6-3.66,3.56-3.66h0.85c0.78,0,1.42-0.65,1.42-1.46c0-0.81-0.64-1.46-1.42-1.46h-0.85
				c-3.53,0-6.4,2.95-6.4,6.58v6.86c0,1.88-1.49,3.41-3.32,3.41h-11.72c4.86-15.49,19.41-25.85,36.43-25.85
				c7.77,0,16.05,2.16,24.16,6.97c2.44,1.45,4.61,3.17,6.48,5.1h-21.77v-1.94c0-3.71-2.94-6.74-6.55-6.74h-0.85
				c-0.78,0-1.42,0.65-1.42,1.46c0,0.81,0.64,1.46,1.42,1.46h0.85c2.05,0,3.72,1.71,3.72,3.82v1.94h-8.67
				c-3.65,0-6.62,3.05-6.62,6.8c0,3.75,2.97,6.8,6.62,6.8h9.84v3.31c0,3.71,2.94,6.74,6.55,6.74h0.85c0.78,0,1.42-0.65,1.42-1.46
				c0-0.81-0.64-1.46-1.42-1.46h-0.85c-2.05,0-3.72-1.71-3.72-3.82v-3.31h7.66c1.83,0,3.31,1.53,3.31,3.4
				c0,0.81,0.64,1.46,1.42,1.46s1.42-0.65,1.42-1.46c0-3.48-2.76-6.32-6.15-6.32h-20.33c-2.09,0-3.78-1.74-3.78-3.89
				c0-2.14,1.7-3.89,3.78-3.89h35.15c0.18,0,0.36,0.07,0.52,0c3.51,4.7,5.43,10.23,5.43,16.2c0,0.05,0,0.11,0,0.16h-2.55
				c-2.05,0-3.72-1.71-3.72-3.82v-0.88c0-0.81-0.64-1.46-1.42-1.46s-1.42,0.65-1.42,1.46v0.88c0,3.71,2.94,6.74,6.55,6.74h2.33
				C495.07,230.32,490.56,237.37,477.94,238.97z"/>
		</g>
	</g>
</g>
<g>
	<path class="st0" d="M1313.06,306.8l-0.68-0.49l-75.1-54.57l28.95-89.08h93.67l28.95,89.08L1313.06,306.8z M1239.98,250.86
		l73.08,53.09l73.08-53.09l-27.91-85.91h-90.33L1239.98,250.86z"/>
	<g>
		<g>
			
				<ellipse transform="matrix(0.9358 -0.3527 0.3527 0.9358 23.3965 457.2682)" class="st1" cx="1266.71" cy="164.42" rx="24.76" ry="24.76"/>
			<path class="st2" d="M1266.71,139.66c13.67,0,24.76,11.08,24.76,24.76c0,13.67-11.08,24.76-24.76,24.76
				c-13.67,0-24.76-11.08-24.76-24.76C1241.95,150.75,1253.03,139.66,1266.71,139.66z M1266.71,138.05
				c-14.54,0-26.37,11.83-26.37,26.37c0,14.54,11.83,26.37,26.37,26.37s26.37-11.83,26.37-26.37
				C1293.08,149.88,1281.25,138.05,1266.71,138.05L1266.71,138.05z"/>
		</g>
		<g>
			<path class="st3" d="M1266.8,175.86c-12.41,0-17.57-11.8-17.62-11.92c-0.11-0.26-0.1-0.55,0.04-0.8
				c0.22-0.41,5.62-10.16,17.59-10.16c11.97,0,17.18,9.76,17.4,10.17c0.13,0.24,0.14,0.53,0.03,0.78
				C1284.18,164.05,1279.1,175.86,1266.8,175.86z"/>
			<path class="st2" d="M1266.81,176.19c-12.76,0-18.08-12.14-18.13-12.26c-0.11-0.26-0.1-0.57,0.04-0.82
				c0.23-0.43,5.78-10.45,18.09-10.45c12.32,0,17.68,10.04,17.9,10.47c0.13,0.25,0.14,0.54,0.03,0.8
				C1284.69,164.04,1279.45,176.19,1266.81,176.19z M1250.61,163.61c1.01,2.07,5.86,10.69,16.19,10.69c10.25,0,15.02-8.66,16-10.7
				c-1.08-1.81-6.03-9.06-16-9.06C1256.97,154.54,1251.75,161.82,1250.61,163.61z"/>
			<path class="st2" d="M1266.81,173.15c-5.51,0-9.99-4.48-9.99-9.99s4.48-9.99,9.99-9.99c5.51,0,9.99,4.48,9.99,9.99
				S1272.31,173.15,1266.81,173.15z M1266.81,155.06c-4.47,0-8.1,3.63-8.1,8.1c0,4.47,3.63,8.1,8.1,8.1c4.47,0,8.1-3.63,8.1-8.1
				C1274.91,158.69,1271.27,155.06,1266.81,155.06z"/>
			<path class="st2" d="M1270.84,163.16c0,2.23-1.81,4.04-4.04,4.04c-2.23,0-4.04-1.81-4.04-4.04c0-2.23,1.81-4.04,4.04-4.04
				C1269.04,159.12,1270.84,160.93,1270.84,163.16z"/>
			<path class="st3" d="M1266.75,160.89c0,1.39-1.13,2.52-2.52,2.52c-1.39,0-2.52-1.13-2.52-2.52c0-1.39,1.13-2.52,2.52-2.52
				C1265.62,158.37,1266.75,159.5,1266.75,160.89z"/>
		</g>
	</g>
	<g>
		<g>
			
				<ellipse transform="matrix(1 -5.787063e-03 5.787063e-03 1 -0.9287 7.8683)" class="st4" cx="1359.15" cy="164.42" rx="24.76" ry="24.76"/>
			<path class="st5" d="M1361.38,139.76c13.62,1.23,23.66,13.27,22.43,26.88c-1.23,13.62-13.27,23.66-26.88,22.43
				c-13.62-1.23-23.66-13.27-22.43-26.88C1335.73,148.58,1347.76,138.53,1361.38,139.76z M1361.53,138.15
				c-14.48-1.31-27.33,9.41-28.64,23.9c-1.31,14.48,9.41,27.33,23.89,28.64c14.48,1.31,27.33-9.41,28.64-23.9
				S1376.01,139.46,1361.53,138.15L1361.53,138.15z"/>
		</g>
		<g>
			<path class="st3" d="M1355.1,180.13c-1.27-0.11-2.72-0.74-3.73-2.26c-0.73-1.09-1.25-2.81-1.11-4.14
				c0.06-0.61-1.2-10.88-1.21-11.46c-0.18-7.82,3.47-13.01,9.54-13.53c3.7-0.32,7.11,0.84,9.58,3.26c2.22,2.17,3.46,5.42,3.42,8.9
				c-0.06,4.49-2.95,9.53-7.92,13.83c-0.64,0.55-1.21,1.16-1.77,1.75c-1.46,1.54-2.97,3.13-5.55,3.61
				C1355.96,180.15,1355.54,180.17,1355.1,180.13z"/>
			<g>
				<path class="st5" d="M1356.15,172.63c-0.5-0.05-0.88-0.24-1.34-0.5c-1.17-0.67-1.49-2.15-1.21-3.27
					c0.18-0.72,0.55-1.26,0.88-1.74c0.31-0.46,0.58-0.87,0.66-1.36c0.15-1.01-0.05-1.93-0.54-2.48c-1.33-1.5-1.28-2.83-1.13-3.7
					c0.4-2.32,1.51-4.2,3.11-5.28c2.03-1.36,4.64-1.6,6.8-0.61c0.98,0.45,1.84,1.13,2.51,1.96c1.92,2.43,2,6.77,0.16,9.46
					c-0.26,0.39-0.79,0.49-1.18,0.22c-0.39-0.27-0.49-0.79-0.22-1.18c1.43-2.1,1.39-5.58-0.09-7.45c-0.49-0.63-1.14-1.13-1.88-1.47
					c-1.61-0.73-3.63-0.55-5.14,0.47c-1.22,0.82-2.06,2.29-2.39,4.15c-0.11,0.63-0.1,1.34,0.73,2.28c0.82,0.93,1.17,2.34,0.95,3.86
					c-0.13,0.88-0.55,1.51-0.93,2.06c-0.28,0.42-0.53,0.78-0.64,1.21c-0.12,0.49-0.01,1.14,0.4,1.37c0.5,0.29,0.6,0.32,0.96,0.27
					c0.39-0.06,0.75-0.31,0.94-0.64c0.24-0.41,0.76-0.54,1.16-0.31c0.41,0.24,0.54,0.76,0.31,1.16c-0.45,0.78-1.26,1.33-2.16,1.47
					C1356.6,172.65,1356.36,172.65,1356.15,172.63z"/>
			</g>
			<path class="st5" d="M1372.1,160.73c0.05-3.64-1.25-7.02-3.57-9.29c-2.59-2.53-6.14-3.74-10.01-3.41
				c-6.34,0.55-10.27,5.97-9.97,14.14c0.14,3.64,0.82,8.12,1.07,11.03c0.07,0.85,0.06,2.87,1.26,4.68c1.05,1.6,2.58,2.24,3.9,2.36
				c0.46,0.04,0.88,0.09,1.28,0.08c2.3-0.02,4.85-1.57,6.37-3.18c0.58-0.61,1.18-1.25,1.85-1.83
				C1369.47,170.82,1372.03,165.42,1372.1,160.73z M1363.16,174.03c-0.73,0.63-1.36,1.3-1.97,1.94c-1.46,1.54-3.41,2.48-5.43,2.54
				c-1.01,0.03-2.49-0.12-3.47-1.58c-0.69-1.03-0.81-1.5-1-3.13c-0.39-3.31-0.97-9.7-1.04-11.67c-0.1-2.73,0.35-11.71,8.41-12.4
				c2.38-0.21,5.82,0.13,8.68,2.93c1.99,1.95,3.1,4.88,3.06,8.05C1370.34,164.91,1367.99,169.85,1363.16,174.03z"/>
			<path class="st5" d="M1361.02,161.51c-0.47-0.04-0.81-0.46-0.77-0.92c0.11-1.22-0.34-2.19-1.27-2.72c-1-0.58-2.36-0.51-3.3,0.16
				c-0.38,0.27-0.91,0.18-1.19-0.2c-0.27-0.38-0.18-0.91,0.2-1.19c1.49-1.06,3.55-1.16,5.14-0.25c1.52,0.87,2.29,2.46,2.12,4.35
				C1361.9,161.21,1361.49,161.56,1361.02,161.51z"/>
		</g>
	</g>
	<g>
		<g>
			<path class="st6" d="M1412.29,247.92c0,13.67-11.08,24.76-24.76,24.76c-13.67,0-24.76-11.08-24.76-24.76
				c0-13.67,11.08-24.76,24.76-24.76C1401.21,223.17,1412.29,234.25,1412.29,247.92z"/>
			<path class="st7" d="M1387.53,223.17c13.67,0,24.76,11.08,24.76,24.76c0,13.67-11.08,24.76-24.76,24.76
				c-13.67,0-24.76-11.08-24.76-24.76C1362.78,234.25,1373.86,223.17,1387.53,223.17z M1387.53,221.55
				c-14.54,0-26.37,11.83-26.37,26.37c0,14.54,11.83,26.37,26.37,26.37c14.54,0,26.37-11.83,26.37-26.37
				C1413.91,233.38,1402.08,221.55,1387.53,221.55L1387.53,221.55z"/>
		</g>
		<g>
			<path class="st3" d="M1397.33,247.91c-1.24-0.56-2.12-1.36-2.44-3.41c-0.83-5.35-2.35-11.42-7.28-11.42
				c-2.49,0-5.96,1.73-7.44,11.42c-0.32,2.07-1.1,2.8-2.44,3.41c-2.3,1.05-3.78,3.19-3.78,5.46c0,1.86,0.72,3.46,2.08,4.62
				c1.41,1.2,3.41,1.84,5.66,1.84c0.65,0,1.33-0.05,2.02-0.16c0.01,0,0.02-0.01,0.03-0.01c1.03,0.84,2.3,1.32,3.68,1.34
				c0.03,0,0.06,0,0.09,0c1.4,0,2.72-0.48,3.76-1.36c0.03,0.01,0.05,0.02,0.08,0.02c3.06,0.49,5.86-0.12,7.68-1.68
				c1.36-1.16,2.08-2.76,2.08-4.62C1401.11,251.1,1399.63,248.96,1397.33,247.91z"/>
			<path class="st7" d="M1381.71,257.15c-0.4,0.66-1.59,0.68-2.65,0.04c-1.06-0.64-1.59-1.7-1.19-2.37c0.4-0.66,1.59-0.68,2.65-0.04
				C1381.58,255.42,1382.11,256.48,1381.71,257.15z"/>
			<path class="st7" d="M1381.22,260.23c-2.43,0-4.59-0.69-6.11-1.99c-1.47-1.25-2.24-2.98-2.24-4.99c0-2.45,1.6-4.77,4.08-5.9
				c1.45-0.66,2.3-1.45,2.64-3.68c1.59-10.48,5.35-11.69,8.03-11.69c5.33,0,6.96,5.91,7.86,11.69c0.34,2.22,1.3,3.08,2.64,3.69
				c2.48,1.13,4.08,3.45,4.08,5.9c0,2.01-0.78,3.74-2.24,4.99c-1.97,1.68-4.99,2.34-8.3,1.81c-0.44-0.07-0.74-0.49-0.67-0.93
				c0.07-0.44,0.49-0.74,0.93-0.67c2.79,0.45,5.41-0.1,6.99-1.45c1.11-0.95,1.67-2.21,1.67-3.76c0-1.82-1.23-3.56-3.14-4.43
				c-2.11-0.97-3.18-2.44-3.56-4.91c-1.41-9.09-3.96-10.32-6.26-10.32c-4.31,0-5.7,5.51-6.43,10.31c-0.45,2.93-1.75,4.08-3.57,4.91
				c-1.91,0.87-3.14,2.61-3.14,4.43c0,1.54,0.56,2.81,1.67,3.76c1.58,1.35,4.2,1.89,6.99,1.45c0.44-0.07,0.86,0.23,0.93,0.67
				c0.07,0.44-0.23,0.86-0.67,0.93C1382.66,260.17,1381.93,260.23,1381.22,260.23z"/>
			<path class="st7" d="M1393.35,257.15c0.4,0.66,1.59,0.68,2.65,0.04c1.06-0.64,1.59-1.7,1.19-2.37c-0.4-0.66-1.59-0.68-2.65-0.04
				C1393.48,255.42,1392.95,256.48,1393.35,257.15z"/>
			<path class="st7" d="M1387.51,261.5c-0.03,0-0.07,0-0.1,0c-2.03-0.03-3.89-0.99-5.09-2.63l-0.23-0.32
				c-0.75-1.03-1.45-2.01-2.91-2.68c-0.41-0.19-0.58-0.67-0.39-1.07c0.19-0.41,0.67-0.58,1.07-0.39c1.84,0.85,2.74,2.1,3.54,3.21
				l0.23,0.31c0.9,1.23,2.29,1.94,3.81,1.97c0.02,0,0.05,0,0.07,0c1.48,0,2.84-0.66,3.74-1.82c0.12-0.16,0.25-0.32,0.37-0.48
				c0.83-1.09,1.76-2.33,3.58-3.18c0.41-0.19,0.89-0.01,1.07,0.39c0.19,0.41,0.01,0.89-0.39,1.07c-1.45,0.67-2.19,1.65-2.97,2.68
				c-0.13,0.17-0.25,0.34-0.38,0.5C1391.31,260.61,1389.49,261.5,1387.51,261.5z"/>
		</g>
	</g>
	<g>
		<g>
			
				<ellipse transform="matrix(0.2362 -0.9717 0.9717 0.2362 711.3824 1504.8669)" class="st8" cx="1312.93" cy="299.93" rx="24.76" ry="24.76"/>
			<path class="st9" d="M1312.93,275.17c13.67,0,24.76,11.08,24.76,24.76c0,13.67-11.08,24.76-24.76,24.76
				c-13.67,0-24.76-11.08-24.76-24.76C1288.17,286.25,1299.26,275.17,1312.93,275.17z M1312.93,273.55
				c-14.54,0-26.37,11.83-26.37,26.37c0,14.54,11.83,26.37,26.37,26.37s26.37-11.83,26.37-26.37
				C1339.3,285.38,1327.47,273.55,1312.93,273.55L1312.93,273.55z"/>
		</g>
		<g>
			<path class="st3" d="M1328.9,294.15c-0.06-0.25-0.25-0.45-0.49-0.54c-0.92-0.32-2.06-0.88-3.27-1.47
				c-2.64-1.29-5.63-2.75-8.17-2.75c-1.23,0-2.03,0.39-2.68,0.71c-0.49,0.24-0.88,0.43-1.37,0.43s-0.88-0.19-1.37-0.43
				c-0.65-0.32-1.45-0.71-2.68-0.71c-2.53,0-5.52,1.46-8.17,2.75c-1.21,0.59-2.35,1.15-3.27,1.47c-0.24,0.09-0.43,0.29-0.49,0.54
				c-0.02,0.1-0.02,0.2-0.01,0.3l-0.01,0c1.35,8.05,9.48,14.07,15.83,14.07h0.31c6.36,0,14.48-6.02,15.83-14.07l-0.01,0
				C1328.93,294.36,1328.93,294.25,1328.9,294.15z"/>
			<path class="st9" d="M1329.04,294.02c-2.13,2.95-7.21,5.6-16.11,5.6c-8.9,0-13.11-2.66-16.11-5.64c0,0,7.21,1.59,16.11,1.59
				C1321.83,295.56,1329.04,294.02,1329.04,294.02z"/>
			<path class="st9" d="M1313.09,309.08h-0.32c-6.72,0-15.32-6.37-16.75-14.89l1.6-0.27c1.28,7.62,9.2,13.54,15.15,13.54h0.32
				c5.95,0,13.87-5.91,15.15-13.54l1.6,0.27C1328.41,302.72,1319.82,309.08,1313.09,309.08z"/>
			<g>
				<path class="st3" d="M1321.38,306.97c0,4.87-3.98,8.86-8.86,8.86l0,0c-4.45,0-8.05-3.61-8.05-8.05v-9.21
					c0-1.33,4.64-2.46,8.42-0.96c3.67-1.28,8.49-0.54,8.49,0.96V306.97z"/>
				<path class="st9" d="M1312.53,316.63c-4.89,0-8.86-3.98-8.86-8.86v-9.21c0-0.38,0.16-0.94,0.9-1.45
					c1.6-1.09,5.29-1.48,8.34-0.37c2.94-0.93,6.82-0.77,8.45,0.39c0.69,0.49,0.84,1.05,0.84,1.44v8.41
					C1322.19,312.3,1317.86,316.63,1312.53,316.63z M1305.28,298.61v9.16c0,3.99,3.25,7.24,7.24,7.24c4.44,0,8.05-3.61,8.05-8.05
					v-8.38c-0.32-0.6-3.98-1.42-7.41-0.22c-0.18,0.06-0.38,0.06-0.56-0.01C1309.37,297.07,1305.7,297.97,1305.28,298.61z"/>
			</g>
			<path class="st9" d="M1312.93,311.15c-0.45,0-0.81-0.36-0.81-0.81v-13.75c0-0.45,0.36-0.81,0.81-0.81s0.81,0.36,0.81,0.81v13.75
				C1313.74,310.79,1313.38,311.15,1312.93,311.15z"/>
			<path class="st9" d="M1310.14,297.28c-11.04,0-13.64-2.37-13.91-2.66c-0.19-0.2-0.26-0.48-0.2-0.75
				c0.06-0.27,0.26-0.48,0.52-0.57c0.97-0.34,2.18-0.93,3.45-1.55c2.79-1.36,5.96-2.91,8.64-2.91c1.3,0,2.15,0.42,2.83,0.75
				c0.52,0.25,0.93,0.45,1.45,0.45s0.93-0.2,1.45-0.45c0.68-0.33,1.54-0.75,2.83-0.75c2.68,0,5.84,1.54,8.64,2.91
				c1.28,0.62,2.49,1.21,3.45,1.55c0.26,0.09,0.45,0.31,0.52,0.57c0.06,0.27-0.01,0.55-0.2,0.75c-0.29,0.31-3.26,3.05-16.65,2.62
				h-0.09C1311.92,297.27,1311.01,297.28,1310.14,297.28z M1312.99,295.62c0.01,0,0.02,0,0.03,0c8.37,0.27,12.4-0.72,14.18-1.44
				c-0.65-0.29-1.34-0.63-2.06-0.98c-2.64-1.29-5.62-2.74-7.93-2.74c-0.92,0-1.51,0.28-2.12,0.59c-0.59,0.29-1.26,0.62-2.16,0.62
				c-0.9,0-1.57-0.33-2.16-0.62c-0.62-0.3-1.2-0.59-2.12-0.59c-2.3,0-5.29,1.46-7.93,2.74c-0.71,0.34-1.39,0.68-2.04,0.97
				c1.81,0.71,5.87,1.71,14.19,1.44L1312.99,295.62z"/>
		</g>
	</g>
	<g>
		<g>
			<path class="st10" d="M1263.42,247.92c0,13.67-11.08,24.76-24.76,24.76c-13.67,0-24.76-11.08-24.76-24.76
				c0-13.67,11.08-24.76,24.76-24.76C1252.33,223.17,1263.42,234.25,1263.42,247.92z"/>
			<path class="st11" d="M1238.66,223.17c13.67,0,24.76,11.08,24.76,24.76c0,13.67-11.08,24.76-24.76,24.76
				c-13.67,0-24.76-11.08-24.76-24.76C1213.9,234.25,1224.99,223.17,1238.66,223.17z M1238.66,221.55
				c-14.54,0-26.37,11.83-26.37,26.37c0,14.54,11.83,26.37,26.37,26.37c14.54,0,26.37-11.83,26.37-26.37
				C1265.03,233.38,1253.2,221.55,1238.66,221.55L1238.66,221.55z"/>
		</g>
		<g>
			<g>
				<path class="st3" d="M1246.26,246.31v-11.8c0-1.4-1.13-2.53-2.53-2.53c-1.4,0-2.53,1.13-2.53,2.53v-2.5
					c0-1.4-1.13-2.53-2.53-2.53c-1.4,0-2.53,1.13-2.53,2.53v2.5c0-1.4-1.13-2.53-2.53-2.53c-1.4,0-2.53,1.13-2.53,2.53v4.75
					c0-1.4-1.13-2.53-2.53-2.53c-1.4,0-2.53,1.13-2.53,2.53v7.06v7.4c0,6.99,5.67,12.66,12.66,12.66c6.99,0,12.67-5.67,12.67-12.66
					v-7.4H1246.26z"/>
				<path class="st11" d="M1238.66,267.18c-7.43,0-13.47-6.04-13.47-13.47v-14.45c0-1.84,1.5-3.34,3.34-3.34
					c0.63,0,1.22,0.18,1.72,0.48v-1.88c0-1.84,1.5-3.34,3.34-3.34c0.64,0,1.23,0.18,1.74,0.49c0.18-1.68,1.6-2.99,3.32-2.99
					c1.72,0,3.15,1.31,3.32,2.99c0.51-0.31,1.1-0.49,1.74-0.49c1.84,0,3.34,1.5,3.34,3.34v10.99h4.26c0.45,0,0.81,0.36,0.81,0.81
					v7.4C1252.13,261.14,1246.09,267.18,1238.66,267.18z M1228.53,237.53c-0.95,0-1.72,0.77-1.72,1.72v14.45
					c0,6.54,5.32,11.86,11.86,11.86c6.54,0,11.86-5.32,11.86-11.86v-6.59h-4.26c-0.45,0-0.81-0.36-0.81-0.81v-11.8
					c0-0.95-0.77-1.72-1.72-1.72c-0.95,0-1.72,0.77-1.72,1.72c0,0.45-0.36,0.81-0.81,0.81c-0.45,0-0.81-0.36-0.81-0.81v-2.5
					c0-0.95-0.77-1.72-1.72-1.72c-0.95,0-1.72,0.77-1.72,1.72v2.5c0,0.45-0.36,0.81-0.81,0.81s-0.81-0.36-0.81-0.81
					c0-0.95-0.77-1.72-1.72-1.72c-0.95,0-1.72,0.77-1.72,1.72v4.75c0,0.45-0.36,0.81-0.81,0.81s-0.81-0.36-0.81-0.81
					C1230.25,238.3,1229.48,237.53,1228.53,237.53z"/>
			</g>
			<g>
				<path class="st3" d="M1251.32,249.94v-6.09c0-3.25-4.9-3.44-5.07-0.19v7.82L1251.32,249.94z"/>
				<path class="st11" d="M1246.26,252.28c-0.45,0-0.81-0.36-0.81-0.81v-7.82c0-0.01,0-0.03,0-0.04c0.11-2.1,1.78-3.15,3.39-3.11
					c1.64,0.04,3.3,1.2,3.3,3.34v6.09c0,0.45-0.36,0.81-0.81,0.81s-0.81-0.36-0.81-0.81v-6.09c0-1.33-1.08-1.71-1.72-1.73
					c-0.75-0.03-1.66,0.38-1.73,1.56v7.79C1247.07,251.92,1246.71,252.28,1246.26,252.28z"/>
			</g>
			<g>
				<line class="st12" x1="1231.06" y1="238.24" x2="1231.06" y2="247.4"/>
				<path class="st11" d="M1231.06,248.21c-0.45,0-0.81-0.36-0.81-0.81v-9.16c0-0.45,0.36-0.81,0.81-0.81s0.81,0.36,0.81,0.81v9.16
					C1231.87,247.85,1231.51,248.21,1231.06,248.21z"/>
			</g>
			<g>
				<line class="st12" x1="1236.13" y1="234.51" x2="1236.13" y2="246.31"/>
				<path class="st11" d="M1236.13,247.12c-0.45,0-0.81-0.36-0.81-0.81v-11.8c0-0.45,0.36-0.81,0.81-0.81s0.81,0.36,0.81,0.81v11.8
					C1236.94,246.76,1236.57,247.12,1236.13,247.12z"/>
			</g>
			<g>
				<line class="st12" x1="1241.19" y1="234.51" x2="1241.19" y2="246.37"/>
				<path class="st11" d="M1241.19,247.17c-0.45,0-0.81-0.36-0.81-0.81v-11.86c0-0.45,0.36-0.81,0.81-0.81
					c0.45,0,0.81,0.36,0.81,0.81v11.86C1242,246.81,1241.64,247.17,1241.19,247.17z"/>
			</g>
			<path class="st11" d="M1238.26,256.39c-0.13,0-0.26-0.03-0.38-0.1c-0.39-0.21-0.54-0.7-0.33-1.1c1.49-2.77,4.86-4.56,8.6-4.56
				c0.45,0,0.81,0.36,0.81,0.81c0,0.45-0.36,0.81-0.81,0.81c-3.1,0-5.98,1.49-7.18,3.71
				C1238.82,256.24,1238.55,256.39,1238.26,256.39z"/>
		</g>
	</g>
	<g>
		<g>
			<g>
				<g>
					<path class="st0" d="M1346.81,221.78c0,18.1-14.2,32.89-32.06,33.84c-1.55-2.76-16.59-6.07-21.22-6.05
						c-8.76-6.13-14.49-16.29-14.49-27.79c0-18.71,15.17-33.89,33.89-33.89C1331.64,187.89,1346.81,203.07,1346.81,221.78z"/>
					<path class="st13" d="M1314.25,256.53l-0.27-0.48c-1.23-2.19-15.49-5.6-20.41-5.6c-0.01,0-0.03,0-0.04,0l-0.28,0l-0.23-0.16
						c-9.31-6.51-14.86-17.17-14.86-28.51c0-19.17,15.6-34.77,34.77-34.77s34.77,15.6,34.77,34.77c0,18.49-14.45,33.74-32.9,34.72
						L1314.25,256.53z M1293.81,248.68c2.49,0.05,7.32,0.88,11.7,2.01c5.18,1.34,8.42,2.69,9.65,4.01
						c17.29-1.16,30.76-15.53,30.76-32.92c0-18.2-14.8-33-33-33s-33,14.8-33,33C1279.93,232.45,1285.12,242.49,1293.81,248.68z"/>
				</g>
				<g>
					<g>
						<path class="st3" d="M1312.93,197.11L1312.93,197.11c-12.03,0-19.4,8.68-19.4,19.4l0,15.68h0v17.38
							c5.5,3.84,12.18,6.1,19.4,6.1c0.61,0,1.22-0.02,1.82-0.05v-12.08h10.76c1.62,0,2.93-1.31,2.93-2.93v-10.9h3.07
							c0.85,0,1.5-0.89,1.38-1.89l-1.15-8.55c-0.19-1.38-0.33-2.78-0.41-4.18C1330.75,205.04,1323.17,197.11,1312.93,197.11z"/>
						<path class="st13" d="M1312.93,256.55c-7.17,0-14.05-2.16-19.91-6.26l-0.38-0.26v-33.52c0-11.94,8.34-20.28,20.28-20.28
							c10.37,0,18.66,8.09,19.29,18.81c0.08,1.3,0.21,2.64,0.41,4.11l1.15,8.55c0.09,0.81-0.14,1.58-0.64,2.14
							c-0.43,0.48-1,0.75-1.62,0.75h-2.19v10.02c0,2.1-1.71,3.81-3.81,3.81h-9.87v12.03l-0.84,0.04
							C1314.16,256.54,1313.54,256.55,1312.93,256.55z M1294.42,249.1c5.47,3.72,11.86,5.68,18.51,5.68c0.31,0,0.62,0,0.94-0.01
							v-12.11h11.64c1.13,0,2.04-0.92,2.04-2.04v-11.79h3.96c0.13,0,0.23-0.08,0.3-0.15c0.16-0.18,0.24-0.46,0.21-0.74l-1.15-8.54
							c-0.2-1.51-0.34-2.9-0.42-4.24c-0.58-9.93-7.94-17.14-17.52-17.14c-10.9,0-18.51,7.61-18.51,18.51V249.1z"/>
					</g>
				</g>
			</g>
		</g>
		<g>
			<path class="st13" d="M1325.38,207.38c-0.98-1.66-2.41-3.07-4.15-4.1c-2.88-1.71-6.01-2.61-9.07-2.61c-2.08,0-4.08,0.4-5.95,1.19
				c-1.84,0.78-3.46,1.9-4.82,3.33c-2.58,2.72-3.94,6.35-3.85,10.21c-0.02,2.36,0.78,4.57,2.27,6.23c1.61,1.8,3.96,2.9,6.84,3.19
				c0.27,0.02,0.55,0.03,0.82,0.03c3.64,0,6.57-1.55,7.73-4.07c4.42,0.38,7.62-0.47,9.62-2.5c1.71-1.74,2.07-3.88,2.07-5.36
				C1326.89,210.97,1326.37,209.05,1325.38,207.38z"/>
			<path class="st0" d="M1320.56,204.5c-10.54-6.26-21.92,0.39-21.66,10.9c-0.04,3.91,2.51,7.47,7.81,8c4.09,0.25,7-1.62,7.51-4.13
				h0.29c8.95,1.05,11.01-3.11,11.01-6.36C1325.53,209.47,1323.69,206.36,1320.56,204.5z"/>
			<path class="st13" d="M1325.01,207.61c-0.94-1.59-2.32-2.96-3.99-3.95c-2.81-1.67-5.87-2.55-8.86-2.55
				c-2.02,0-3.97,0.39-5.79,1.16c-1.79,0.76-3.36,1.84-4.67,3.23c-2.49,2.63-3.82,6.15-3.73,9.9c-0.02,2.25,0.74,4.35,2.16,5.92
				c1.54,1.72,3.79,2.77,6.51,3.04l0.02,0l0.02,0c0.27,0.02,0.53,0.02,0.79,0.02c3.61,0,6.48-1.61,7.46-4.09
				c0.78,0.08,1.53,0.11,2.23,0.11c3.28,0,5.75-0.83,7.36-2.46c1.61-1.63,1.94-3.64,1.94-5.05
				C1326.46,211.05,1325.96,209.21,1325.01,207.61z M1319.13,219.29v-1.24c0-0.73,0.58-1.32,1.29-1.32h0.3
				c0.27,0,0.49-0.23,0.49-0.5c0-0.28-0.22-0.5-0.49-0.5h-0.3c-1.25,0-2.27,1.05-2.27,2.33v1.33c-0.32,0.02-0.65,0.03-0.99,0.03
				c-0.6,0-1.24-0.03-1.93-0.09v-1c0-2.02-1.6-3.67-3.57-3.67h-1.67v-0.5c0-1.29-1.02-2.33-2.27-2.33h-0.3
				c-0.27,0-0.49,0.23-0.49,0.5c0,0.28,0.22,0.5,0.49,0.5h0.3c0.71,0,1.29,0.59,1.29,1.32v0.5h-1.8c-1.29,0-2.35,1.08-2.35,2.41
				c0,0.28,0.22,0.5,0.49,0.5c0.27,0,0.49-0.23,0.49-0.5c0-0.77,0.61-1.4,1.36-1.4h4.45c1.43,0,2.59,1.19,2.59,2.66v0.92l0,0
				c-0.48,2.35-3.09,4.14-6.78,4.14c-0.24,0-0.48-0.01-0.73-0.02c-2.6-0.26-4.53-1.25-5.82-2.65h6.51c1.35,0,2.46-1.13,2.46-2.52
				c0-0.28-0.22-0.5-0.49-0.5c-0.27,0-0.49,0.23-0.49,0.5c0,0.84-0.66,1.51-1.47,1.51h-7.29c-0.81-1.27-1.2-2.76-1.19-4.31
				c-0.03-1.16,0.08-2.27,0.32-3.32h2.75v0.98c0,0.73-0.58,1.32-1.29,1.32h-0.3c-0.27,0-0.49,0.23-0.49,0.5
				c0,0.28,0.22,0.5,0.49,0.5h0.3c1.25,0,2.27-1.05,2.27-2.33v-0.98h0.6c1.17,0,2.13-0.98,2.13-2.19v-2.38
				c0-0.7,0.55-1.27,1.23-1.27h0.29c0.27,0,0.49-0.23,0.49-0.5s-0.22-0.5-0.49-0.5h-0.29c-1.22,0-2.22,1.02-2.22,2.28v2.38
				c0,0.65-0.52,1.18-1.15,1.18h-4.06c1.68-5.36,6.72-8.95,12.62-8.95c2.69,0,5.56,0.75,8.37,2.41c0.85,0.5,1.6,1.1,2.24,1.77h-7.54
				v-0.67c0-1.29-1.02-2.33-2.27-2.33h-0.3c-0.27,0-0.49,0.23-0.49,0.5c0,0.28,0.22,0.5,0.49,0.5h0.3c0.71,0,1.29,0.59,1.29,1.32
				v0.67h-3c-1.26,0-2.29,1.06-2.29,2.36c0,1.3,1.03,2.36,2.29,2.36h3.41v1.15c0,1.29,1.02,2.33,2.27,2.33h0.3
				c0.27,0,0.49-0.23,0.49-0.5c0-0.28-0.22-0.5-0.49-0.5h-0.3c-0.71,0-1.29-0.59-1.29-1.32v-1.15h2.65c0.63,0,1.15,0.53,1.15,1.18
				c0,0.28,0.22,0.5,0.49,0.5c0.27,0,0.49-0.23,0.49-0.5c0-1.21-0.95-2.19-2.13-2.19h-7.04c-0.72,0-1.31-0.6-1.31-1.35
				c0-0.74,0.59-1.35,1.31-1.35h12.17c0.06,0,0.12,0.02,0.18,0c1.21,1.63,1.88,3.54,1.88,5.61c0,0.02,0,0.04,0,0.06h-0.88
				c-0.71,0-1.29-0.59-1.29-1.32v-0.3c0-0.28-0.22-0.5-0.49-0.5c-0.27,0-0.49,0.23-0.49,0.5v0.3c0,1.29,1.02,2.33,2.27,2.33h0.81
				C1325.06,216.3,1323.5,218.74,1319.13,219.29z"/>
		</g>
	</g>
</g>
</svg>
