<?xml version="1.0" encoding="utf-8"?>
<!-- Generator: Adobe Illustrator 26.1.0, SVG Export Plug-In . SVG Version: 6.00 Build 0)  -->
<svg version="1.1" id="Layer_1" xmlns="http://www.w3.org/2000/svg" xmlns:xlink="http://www.w3.org/1999/xlink" x="0px" y="0px"
	 viewBox="0 0 713 790.87" style="enable-background:new 0 0 713 790.87;" xml:space="preserve">
<style type="text/css">
	.st0{fill:#CC4E57;}
	.st1{fill:#E5A6AB;}
	.st2{fill:#FAEDEE;}
	.st3{fill:none;stroke:#FFFFFF;stroke-miterlimit:10;}
	.st4{fill:#FFFFFF;}
	.st5{font-family:'Barlow-Bold';}
	.st6{font-size:17px;}
	.st7{font-size:11px;}
	.st8{font-family:'Barlow-Regular';}
	.st9{font-size:11.5px;}
	.st10{fill:none;stroke:#CC4E57;stroke-miterlimit:10;}
	.st11{letter-spacing:19;}
	.st12{letter-spacing:27;}
	.st13{letter-spacing:38;}
	.st14{letter-spacing:82;}
	.st15{letter-spacing:72;}
</style>
<g>
	<rect x="8.49" class="st0" width="168.16" height="53.01"/>
	<rect x="176.65" class="st1" width="141.26" height="53.01"/>
	<rect x="317.91" class="st2" width="389.74" height="53.01"/>
	<path class="st3" d="M176.65,52.51V0.5 M317.91,52.51V0.5 M7.99,0h168.66 M8.49,52.51V0.5 M176.65,0h141.26 M317.91,0h390.24
		 M707.65,52.51V0.5 M7.99,53.01h168.66 M176.65,53.01h141.26 M317.91,53.01h390.24"/>
	<text transform="matrix(1 0 0 1 33.7861 35.0042)" class="st4 st5 st6">Escala SNAP</text>
	<text transform="matrix(1 0 0 1 129.3642 35.0042)" class="st4 st5 st6">-IV</text>
	<text transform="matrix(1 0 0 1 226.3408 35.0042)" class="st4 st5 st6">TD</text>
	<text transform="matrix(1 0 0 1 246.1455 35.0042)" class="st4 st5 st6">AH</text>
	<text transform="matrix(1 0 0 1 326.4267 19.5042)" class="st5 st7">Nome: __________________________________________________________</text>
	<text transform="matrix(1 0 0 1 326.4267 44.5042)" class="st5 st7">Data: _______________      Data pró</text>
	<text transform="matrix(1 0 0 1 495.2392 44.5042)" class="st5 st7">xima consulta: ______________________</text>
	<text transform="matrix(1 0 0 1 7.9892 74.012)" class="st8 st9">P</text>
	<text transform="matrix(1 0 0 1 14.5908 74.012)" class="st8 st9">or </text>
	<text transform="matrix(1 0 0 1 27.3486 74.012)" class="st8 st9">fa</text>
	<text transform="matrix(1 0 0 1 37.0361 74.012)" class="st8 st9">vo</text>
	<text transform="matrix(1 0 0 1 48.5752 74.012)" class="st8 st9">r,</text>
	<text transform="matrix(1 0 0 1 55.4111 74.012)" class="st8 st9"> responda as per</text>
	<text transform="matrix(1 0 0 1 136.6533 74.012)" class="st8 st9">guntas abaix</text>
	<text transform="matrix(1 0 0 1 199.2705 74.012)" class="st8 st9">o se aut</text>
	<text transform="matrix(1 0 0 1 237.8486 74.012)" class="st8 st9">o-av</text>
	<text transform="matrix(1 0 0 1 259.7939 74.012)" class="st8 st9">aliando de acordo com os crit</text>
	<text transform="matrix(1 0 0 1 405.0986 74.012)" class="st8 st9">érios do lado direit</text>
	<text transform="matrix(1 0 0 1 497.0674 74.012)" class="st8 st9">o da página.</text>
	<text transform="matrix(1 0 0 1 7.9892 92.848)" class="st8 st9">Após ler cada um dos it</text>
	<text transform="matrix(1 0 0 1 122.0986 92.848)" class="st8 st9">ens, circule o número que corresponde a como </text>
	<text transform="matrix(1 0 0 1 355.5517 92.848)" class="st8 st9">vo</text>
	<text transform="matrix(1 0 0 1 367.083 92.848)" class="st8 st9">cê se sentiu e se compor</text>
	<text transform="matrix(1 0 0 1 489.8642 92.848)" class="st8 st9">t</text>
	<text transform="matrix(1 0 0 1 493.872 92.848)" class="st8 st9">ou nos últimos seis meses.</text>
	<path class="st0" d="M379.33,119.02h89.55v28.01h-89.55V119.02z M468.88,119.02h85.04v28.01h-85.04V119.02z M553.92,119.02h76.54
		v28.01h-76.54V119.02z M630.45,119.02h79.82v28.01h-79.82V119.02z"/>
	<path class="st2" d="M8.49,190.03h370.84v28.01H8.49V190.03z M379.33,190.03h89.55v28.01h-89.55V190.03z M468.88,190.03h85.04
		v28.01h-85.04V190.03z M553.92,190.03h76.54v28.01h-76.54V190.03z M630.45,190.03h79.82v28.01h-79.82V190.03z M8.49,246.05h370.84
		v43.01H8.49V246.05z M379.33,246.05h89.55v43.01h-89.55V246.05z M468.88,246.05h85.04v43.01h-85.04V246.05z M553.92,246.05h76.54
		v43.01h-76.54V246.05z M630.45,246.05h79.82v43.01h-79.82V246.05z M8.49,317.06h370.84v43.01H8.49V317.06z M379.33,317.06h89.55
		v43.01h-89.55V317.06z M468.88,317.06h85.04v43.01h-85.04V317.06z M553.92,317.06h76.54v43.01h-76.54V317.06z M630.45,317.06h79.82
		v43.01h-79.82V317.06z M8.49,403.08h370.84v28.01H8.49V403.08z M379.33,403.08h89.55v28.01h-89.55V403.08z M468.88,403.08h85.04
		v28.01h-85.04V403.08z M553.92,403.08h76.54v28.01h-76.54V403.08z M630.45,403.08h79.82v28.01h-79.82V403.08z M8.49,459.09h370.84
		v28.01H8.49V459.09z M379.33,459.09h89.55v28.01h-89.55V459.09z M468.88,459.09h85.04v28.01h-85.04V459.09z M553.92,459.09h76.54
		v28.01h-76.54V459.09z M630.45,459.09h79.82v28.01h-79.82V459.09z M8.49,530.11h370.84v43.01H8.49V530.11z M379.33,530.11h89.55
		v43.01h-89.55V530.11z M468.88,530.11h85.04v43.01h-85.04V530.11z M553.92,530.11h76.54v43.01h-76.54V530.11z M630.45,530.11h79.82
		v43.01h-79.82V530.11z M8.49,616.13h370.84v28.01H8.49V616.13z M379.33,616.13h89.55v28.01h-89.55V616.13z M468.88,616.13h85.04
		v28.01h-85.04V616.13z M553.92,616.13h76.54v28.01h-76.54V616.13z M630.45,616.13h79.82v28.01h-79.82V616.13z M8.49,672.14h370.84
		v43.01H8.49V672.14z M379.33,672.14h89.55v43.01h-89.55V672.14z M468.88,672.14h85.04v43.01h-85.04V672.14z M553.92,672.14h76.54
		v43.01h-76.54V672.14z M630.45,672.14h79.82v43.01h-79.82V672.14z M8.49,743.16h370.84v43.01H8.49V743.16z M379.33,743.16h89.55
		v43.01h-89.55V743.16z M468.88,743.16h85.04v43.01h-85.04V743.16z M553.92,743.16h76.54v43.01h-76.54V743.16z M630.45,743.16h79.82
		v43.01h-79.82V743.16z"/>
	<path class="st3" d="M468.88,146.52v-27.01 M553.92,146.52v-27.01 M630.45,146.52v-27.01"/>
	<path class="st10" d="M468.88,189.53v-42.01 M553.92,189.53v-42.01 M630.45,189.53v-42.01 M379.33,190.03h89.55 M379.33,217.54
		v-27.01 M468.88,190.03h85.04 M468.88,217.54v-27.01 M553.92,190.03h76.54 M553.92,217.54v-27.01 M630.45,190.03h80.32
		 M630.45,217.54v-27.01 M7.99,218.04h371.34 M379.33,218.04h89.55 M379.33,245.55v-27.01 M468.88,218.04h85.04 M468.88,245.55
		v-27.01 M553.92,218.04h76.54 M553.92,245.55v-27.01 M630.45,218.04h80.32 M630.45,245.55v-27.01 M7.99,246.05h371.34
		 M379.33,246.05h89.55 M379.33,288.56v-42.01 M468.88,246.05h85.04 M468.88,288.56v-42.01 M553.92,246.05h76.54 M553.92,288.56
		v-42.01 M630.45,246.05h80.32 M630.45,288.56v-42.01 M7.99,289.06h371.34 M379.33,289.06h89.55 M379.33,316.56v-27.01
		 M468.88,289.06h85.04 M468.88,316.56v-27.01 M553.92,289.06h76.54 M553.92,316.56v-27.01 M630.45,289.06h80.32 M630.45,316.56
		v-27.01 M7.99,317.06h371.34 M379.33,317.06h89.55 M379.33,359.57v-42.01 M468.88,317.06h85.04 M468.88,359.57v-42.01
		 M553.92,317.06h76.54 M553.92,359.57v-42.01 M630.45,317.06h80.32 M630.45,359.57v-42.01 M7.99,360.07h371.34 M379.33,360.07
		h89.55 M379.33,402.58v-42.01 M468.88,360.07h85.04 M468.88,402.58v-42.01 M553.92,360.07h76.54 M553.92,402.58v-42.01
		 M630.45,360.07h80.32 M630.45,402.58v-42.01 M7.99,403.08h371.34 M379.33,403.08h89.55 M379.33,430.59v-27.01 M468.88,403.08
		h85.04 M468.88,430.59v-27.01 M553.92,403.08h76.54 M553.92,430.59v-27.01 M630.45,403.08h80.32 M630.45,430.59v-27.01
		 M7.99,431.09h371.34 M379.33,431.09h89.55 M379.33,458.59v-27.01 M468.88,431.09h85.04 M468.88,458.59v-27.01 M553.92,431.09
		h76.54 M553.92,458.59v-27.01 M630.45,431.09h80.32 M630.45,458.59v-27.01 M7.99,459.09h371.34 M379.33,459.09h89.55 M379.33,486.6
		v-27.01 M468.88,459.09h85.04 M468.88,486.6v-27.01 M553.92,459.09h76.54 M553.92,486.6v-27.01 M630.45,459.09h80.32 M630.45,486.6
		v-27.01 M7.99,487.1h371.34 M379.33,487.1h89.55 M379.33,529.61V487.6 M468.88,487.1h85.04 M468.88,529.61V487.6 M553.92,487.1
		h76.54 M553.92,529.61V487.6 M630.45,487.1h80.32 M630.45,529.61V487.6 M7.99,530.11h371.34 M379.33,530.11h89.55 M379.33,572.62
		v-42.01 M468.88,530.11h85.04 M468.88,572.62v-42.01 M553.92,530.11h76.54 M553.92,572.62v-42.01 M630.45,530.11h80.32
		 M630.45,572.62v-42.01 M7.99,573.12h371.34 M379.33,573.12h89.55 M379.33,615.63v-42.01 M468.88,573.12h85.04 M468.88,615.63
		v-42.01 M553.92,573.12h76.54 M553.92,615.63v-42.01 M630.45,573.12h80.32 M630.45,615.63v-42.01 M7.99,616.13h371.34
		 M379.33,616.13h89.55 M379.33,643.63v-27.01 M468.88,616.13h85.04 M468.88,643.63v-27.01 M553.92,616.13h76.54 M553.92,643.63
		v-27.01 M630.45,616.13h80.32 M630.45,643.63v-27.01 M7.99,644.13h371.34 M379.33,644.13h89.55 M379.33,671.64v-27.01
		 M468.88,644.13h85.04 M468.88,671.64v-27.01 M553.92,644.13h76.54 M553.92,671.64v-27.01 M630.45,644.13h80.32 M630.45,671.64
		v-27.01 M7.99,672.14h371.34 M379.33,672.14h89.55 M379.33,714.65v-42.01 M468.88,672.14h85.04 M468.88,714.65v-42.01
		 M553.92,672.14h76.54 M553.92,714.65v-42.01 M630.45,672.14h80.32 M630.45,714.65v-42.01 M7.99,715.15h371.34 M379.33,715.15
		h89.55 M379.33,742.66v-27.01 M468.88,715.15h85.04 M468.88,742.66v-27.01 M553.92,715.15h76.54 M553.92,742.66v-27.01
		 M630.45,715.15h80.32 M630.45,742.66v-27.01 M7.99,743.16h371.34 M379.33,743.16h89.55 M379.33,785.67v-42.01 M468.88,743.16
		h85.04 M468.88,785.67v-42.01 M553.92,743.16h76.54 M553.92,785.67v-42.01 M630.45,743.16h80.32 M630.45,785.67v-42.01
		 M8.49,189.53v-42.01 M710.27,189.53v-42.51 M8.49,217.54v-27.01 M710.27,217.54v-27.01 M8.49,245.55v-27.01 M710.27,245.55v-27.01
		 M8.49,288.56v-42.01 M710.27,288.56v-42.01 M8.49,316.56v-27.01 M710.27,316.56v-27.01 M8.49,359.57v-42.01 M710.27,359.57v-42.01
		 M8.49,402.58v-42.01 M710.27,402.58v-42.01 M8.49,430.59v-27.01 M710.27,430.59v-27.01 M8.49,458.59v-27.01 M710.27,458.59v-27.01
		 M8.49,486.6v-27.01 M710.27,486.6v-27.01 M8.49,529.61V487.6 M710.27,529.61V487.6 M8.49,572.62v-42.01 M710.27,572.62v-42.01
		 M8.49,615.63v-42.01 M710.27,615.63v-42.01 M8.49,643.63v-27.01 M710.27,643.63v-27.01 M8.49,671.64v-27.01 M710.27,671.64v-27.01
		 M8.49,714.65v-42.01 M710.27,714.65v-42.01 M8.49,742.66v-27.01 M710.27,742.66v-27.01 M8.49,785.67v-42.01 M710.27,785.67v-42.01
		 M7.99,786.17h371.34 M379.33,786.17h89.55 M468.88,786.17h85.04 M553.92,786.17h76.54 M630.45,786.17h80.32"/>
	<path class="st3" d="M379.83,147.02h89.05 M468.88,147.02h85.04 M553.92,147.02h76.54 M630.45,147.02h79.32"/>
	<path class="st10" d="M378.83,119.02h90.05 M379.33,146.52v-27.01 M468.88,119.02h85.04 M553.92,119.02h76.54 M630.45,119.02h80.32
		 M710.27,147.02v-27.51 M379.33,189.53v-42.01 M7.99,190.03h371.34 M7.99,147.02h371.84"/>
	<text transform="matrix(1 0 0 1 387.9111 138.5198)" class="st4 st5 st7">Nem um pouc</text>
	<text transform="matrix(1 0 0 1 454.1767 138.5198)" class="st4 st5 st7 st11">oS</text>
	<text transform="matrix(1 0 0 1 486.708 138.5198)" class="st4 st5 st7">ó um pouc</text>
	<text transform="matrix(1 0 0 1 536.5049 138.5198)" class="st4 st5 st7 st12">oB</text>
	<text transform="matrix(1 0 0 1 576.8643 138.5198)" class="st4 st5 st7">astant</text>
	<text transform="matrix(1 0 0 1 608.2861 138.5198)" class="st4 st5 st7 st13">eD</text>
	<text transform="matrix(1 0 0 1 659.0986 138.5198)" class="st4 st5 st7">emais</text>
	<text transform="matrix(1 0 0 1 16.997 166.5276)" class="st8 st7">1. Não consegue prestar muita at</text>
	<text transform="matrix(1 0 0 1 171.8174 166.5276)" class="st8 st7">enção a detalhes ou comet</text>
	<text transform="matrix(1 0 0 1 298.2783 166.5276)" class="st8 st7">e erros por </text>
	<text transform="matrix(1 0 0 1 16.997 181.5276)" class="st8 st7">descuido nos trabalhos da escola ou taref</text>
	<text transform="matrix(1 0 0 1 213.208 181.5276)" class="st8 st7">as;</text>
	<text transform="matrix(1 0 0 1 420.9892 174.0276)" class="st8 st7 st14">01</text>
	<text transform="matrix(1 0 0 1 589.2393 174.0276)" class="st8 st7 st15">23</text>
	<text transform="matrix(1 0 0 1 16.997 209.5355)" class="st8 st7">2.</text>
	<text transform="matrix(1 0 0 1 25.622 209.5355)" class="st8 st7">T</text>
	<text transform="matrix(1 0 0 1 31.1142 209.5355)" class="st8 st7">em diﬁ</text>
	<text transform="matrix(1 0 0 1 60.4424 209.5355)" class="st8 st7"> </text>
	<text transform="matrix(1 0 0 1 63.8174 209.5355)" class="st8 st7">culdade de mant</text>
	<text transform="matrix(1 0 0 1 142.208 209.5355)" class="st8 st7">er a at</text>
	<text transform="matrix(1 0 0 1 171.5127 209.5355)" class="st8 st7">enção em taref</text>
	<text transform="matrix(1 0 0 1 242.9189 209.5355)" class="st8 st7">as ou atividades de lazer;</text>
	<text transform="matrix(1 0 0 1 420.9892 209.5355)" class="st8 st7 st14">01</text>
	<text transform="matrix(1 0 0 1 589.2393 209.5355)" class="st8 st7 st15">23</text>
	<text transform="matrix(1 0 0 1 16.997 237.5433)" class="st8 st7">3. Parece não estar ouvindo quando se f</text>
	<text transform="matrix(1 0 0 1 204.8017 237.5433)" class="st8 st7">ala diretament</text>
	<text transform="matrix(1 0 0 1 273.5908 237.5433)" class="st8 st7">e com ele;</text>
	<text transform="matrix(1 0 0 1 420.9892 237.5433)" class="st8 st7 st14">01</text>
	<text transform="matrix(1 0 0 1 589.2393 237.5433)" class="st8 st7 st15">23</text>
	<text transform="matrix(1 0 0 1 16.997 265.5511)" class="st8 st7">4. Não segue instruções at</text>
	<text transform="matrix(1 0 0 1 142.6533 265.5511)" class="st8 st7">é o </text>
	<text transform="matrix(1 0 0 1 158.9033 265.5511)" class="st8 st7">ﬁ</text>
	<text transform="matrix(1 0 0 1 162.2705 265.5511)" class="st8 st7"> </text>
	<text transform="matrix(1 0 0 1 165.6455 265.5511)" class="st8 st7">m e não t</text>
	<text transform="matrix(1 0 0 1 208.4892 265.5511)" class="st8 st7">ermina de</text>
	<text transform="matrix(1 0 0 1 255.7392 265.5511)" class="st8 st7">ve</text>
	<text transform="matrix(1 0 0 1 266.6377 265.5511)" class="st8 st7">res de escola, taref</text>
	<text transform="matrix(1 0 0 1 356.9814 265.5511)" class="st8 st7">as </text>
	<text transform="matrix(1 0 0 1 16.997 280.5511)" class="st8 st7">ou obrigações;</text>
	<text transform="matrix(1 0 0 1 420.9892 273.0511)" class="st8 st7 st14">01</text>
	<text transform="matrix(1 0 0 1 589.2393 273.0511)" class="st8 st7 st15">23</text>
	<text transform="matrix(1 0 0 1 16.997 308.5589)" class="st8 st7">5. T</text>
	<text transform="matrix(1 0 0 1 33.3955 308.5589)" class="st8 st7">em diﬁ</text>
	<text transform="matrix(1 0 0 1 62.7314 308.5589)" class="st8 st7"> </text>
	<text transform="matrix(1 0 0 1 66.0986 308.5589)" class="st8 st7">culdade para or</text>
	<text transform="matrix(1 0 0 1 139.3017 308.5589)" class="st8 st7">ganizar taref</text>
	<text transform="matrix(1 0 0 1 199.3408 308.5589)" class="st8 st7">as e atividades;</text>
	<text transform="matrix(1 0 0 1 420.9892 308.5589)" class="st8 st7 st14">01</text>
	<text transform="matrix(1 0 0 1 589.2393 308.5589)" class="st8 st7 st15">23</text>
	<text transform="matrix(1 0 0 1 16.997 336.5667)" class="st8 st7">6. Evita, não gosta ou se env</text>
	<text transform="matrix(1 0 0 1 150.1533 336.5667)" class="st8 st7">olv</text>
	<text transform="matrix(1 0 0 1 163.7158 336.5667)" class="st8 st7">e contra a v</text>
	<text transform="matrix(1 0 0 1 218.0517 336.5667)" class="st8 st7">ontade em taref</text>
	<text transform="matrix(1 0 0 1 293.9033 336.5667)" class="st8 st7">as que e</text>
	<text transform="matrix(1 0 0 1 332.7627 336.5667)" class="st8 st7">xigem </text>
	<text transform="matrix(1 0 0 1 16.997 351.5667)" class="st8 st7">es</text>
	<text transform="matrix(1 0 0 1 28.0439 351.5667)" class="st8 st7">fo</text>
	<text transform="matrix(1 0 0 1 37.4424 351.5667)" class="st8 st7">rço mental prolongado;</text>
	<text transform="matrix(1 0 0 1 420.9892 344.0667)" class="st8 st7 st14">01</text>
	<text transform="matrix(1 0 0 1 589.2393 344.0667)" class="st8 st7 st15">23</text>
	<text transform="matrix(1 0 0 1 16.997 379.5745)" class="st8 st7">7.</text>
	<text transform="matrix(1 0 0 1 24.7627 379.5745)" class="st8 st7"> </text>
	<text transform="matrix(1 0 0 1 26.958 379.5745)" class="st8 st7">Pe</text>
	<text transform="matrix(1 0 0 1 39.1377 379.5745)" class="st8 st7">rde coisas neces</text>
	<text transform="matrix(1 0 0 1 118.333 379.5745)" class="st8 st7">sárias para atividades (p</text>
	<text transform="matrix(1 0 0 1 232.6767 379.5745)" class="st8 st7">. e</text>
	<text transform="matrix(1 0 0 1 243.6377 379.5745)" class="st8 st7">x.: brinquedos, de</text>
	<text transform="matrix(1 0 0 1 328.5674 379.5745)" class="st8 st7">ve</text>
	<text transform="matrix(1 0 0 1 339.4736 379.5745)" class="st8 st7">res da </text>
	<text transform="matrix(1 0 0 1 16.997 394.5745)" class="st8 st7">escola, lápis ou livros);</text>
	<text transform="matrix(1 0 0 1 420.9892 387.0745)" class="st8 st7 st14">01</text>
	<text transform="matrix(1 0 0 1 589.2393 387.0745)" class="st8 st7 st15">23</text>
	<text transform="matrix(1 0 0 1 16.997 422.5823)" class="st8 st7">8. Distrai-se com estímulos </text>
	<text transform="matrix(1 0 0 1 148.333 422.5823)" class="st8 st7">ex</text>
	<text transform="matrix(1 0 0 1 159.2939 422.5823)" class="st8 st7">t</text>
	<text transform="matrix(1 0 0 1 163.1299 422.5823)" class="st8 st7">ernos;</text>
	<text transform="matrix(1 0 0 1 420.9892 422.5823)" class="st8 st7 st14">01</text>
	<text transform="matrix(1 0 0 1 589.2393 422.5823)" class="st8 st7 st15">23</text>
	<text transform="matrix(1 0 0 1 16.997 450.5901)" class="st8 st7">9. É esquecido em atividades do dia a dia;</text>
	<text transform="matrix(1 0 0 1 420.9892 450.5901)" class="st8 st7 st14">01</text>
	<text transform="matrix(1 0 0 1 589.2393 450.5901)" class="st8 st7 st15">23</text>
	<text transform="matrix(1 0 0 1 16.997 478.598)" class="st8 st7">10. Me</text>
	<text transform="matrix(1 0 0 1 45.8955 478.598)" class="st8 st7">xe</text>
	<text transform="matrix(1 0 0 1 56.7705 478.598)" class="st8 st7"> com as mãos ou os pés ou se reme</text>
	<text transform="matrix(1 0 0 1 221.9892 478.598)" class="st8 st7">xe</text>
	<text transform="matrix(1 0 0 1 232.8642 478.598)" class="st8 st7"> na cadeira;</text>
	<text transform="matrix(1 0 0 1 420.9892 478.598)" class="st8 st7 st14">01</text>
	<text transform="matrix(1 0 0 1 589.2393 478.598)" class="st8 st7 st15">23</text>
	<text transform="matrix(1 0 0 1 16.997 506.6058)" class="st8 st7">11. Sai do lugar na sala de aula ou em outras situações em que se espera</text>
	<text transform="matrix(1 0 0 1 354.0517 506.6058)" class="st8 st7"> </text>
	<text transform="matrix(1 0 0 1 16.997 521.6058)" class="st8 st7">que </text>
	<text transform="matrix(1 0 0 1 37.0283 521.6058)" class="st8 st7">ﬁ</text>
	<text transform="matrix(1 0 0 1 40.3955 521.6058)" class="st8 st7"> </text>
	<text transform="matrix(1 0 0 1 43.7549 521.6058)" class="st8 st7">que sentado;</text>
	<text transform="matrix(1 0 0 1 420.9892 514.1058)" class="st8 st7 st14">01</text>
	<text transform="matrix(1 0 0 1 589.2393 514.1058)" class="st8 st7 st15">23</text>
	<text transform="matrix(1 0 0 1 16.997 549.6136)" class="st8 st7">12. Corre de um lado para outro ou sobe demais nas coisas em situações </text>
	<text transform="matrix(1 0 0 1 16.997 564.6136)" class="st8 st7">em que is</text>
	<text transform="matrix(1 0 0 1 62.1142 564.6136)" class="st8 st7">so é inapropriado;</text>
	<text transform="matrix(1 0 0 1 420.9892 557.1136)" class="st8 st7 st14">01</text>
	<text transform="matrix(1 0 0 1 589.2393 557.1136)" class="st8 st7 st15">23</text>
	<text transform="matrix(1 0 0 1 16.997 592.6214)" class="st8 st7">13. </text>
	<text transform="matrix(1 0 0 1 31.7705 592.6214)" class="st8 st7">Te</text>
	<text transform="matrix(1 0 0 1 43.122 592.6214)" class="st8 st7">m diﬁ</text>
	<text transform="matrix(1 0 0 1 66.5986 592.6214)" class="st8 st7"> </text>
	<text transform="matrix(1 0 0 1 69.958 592.6214)" class="st8 st7">culdade em brincar ou se env</text>
	<text transform="matrix(1 0 0 1 207.3486 592.6214)" class="st8 st7">olv</text>
	<text transform="matrix(1 0 0 1 220.9111 592.6214)" class="st8 st7">er em atividades de lazer de </text>
	<text transform="matrix(1 0 0 1 16.997 607.6214)" class="st8 st7">f</text>
	<text transform="matrix(1 0 0 1 20.3955 607.6214)" class="st8 st7">orma calma;</text>
	<text transform="matrix(1 0 0 1 420.9892 600.1214)" class="st8 st7 st14">01</text>
	<text transform="matrix(1 0 0 1 589.2393 600.1214)" class="st8 st7 st15">23</text>
	<text transform="matrix(1 0 0 1 16.997 635.6292)" class="st8 st7">14. Não para ou frequent</text>
	<text transform="matrix(1 0 0 1 132.2392 635.6292)" class="st8 st7">ement</text>
	<text transform="matrix(1 0 0 1 162.7627 635.6292)" class="st8 st7">e está a “</text>
	<text transform="matrix(1 0 0 1 204.208 635.6292)" class="st8 st7">mil por hora</text>
	<text transform="matrix(1 0 0 1 260.2861 635.6292)" class="st8 st7">”;</text>
	<text transform="matrix(1 0 0 1 420.9892 635.6292)" class="st8 st7 st14">01</text>
	<text transform="matrix(1 0 0 1 589.2393 635.6292)" class="st8 st7 st15">23</text>
	<text transform="matrix(1 0 0 1 16.997 663.637)" class="st8 st7">15. F</text>
	<text transform="matrix(1 0 0 1 37.6533 663.637)" class="st8 st7">ala em </text>
	<text transform="matrix(1 0 0 1 70.7861 663.637)" class="st8 st7">ex</text>
	<text transform="matrix(1 0 0 1 81.5127 663.637)" class="st8 st7">ces</text>
	<text transform="matrix(1 0 0 1 98.083 663.637)" class="st8 st7">so;</text>
	<text transform="matrix(1 0 0 1 420.9892 663.637)" class="st8 st7 st14">01</text>
	<text transform="matrix(1 0 0 1 589.2393 663.637)" class="st8 st7 st15">23</text>
	<text transform="matrix(1 0 0 1 16.997 691.6448)" class="st8 st7">16. Responde às per</text>
	<text transform="matrix(1 0 0 1 110.2627 691.6448)" class="st8 st7">guntas de f</text>
	<text transform="matrix(1 0 0 1 162.5517 691.6448)" class="st8 st7">orma precipitada, ant</text>
	<text transform="matrix(1 0 0 1 264.5049 691.6448)" class="st8 st7">es delas terem sido </text>
	<text transform="matrix(1 0 0 1 16.997 706.6448)" class="st8 st7">t</text>
	<text transform="matrix(1 0 0 1 20.833 706.6448)" class="st8 st7">erminadas;</text>
	<text transform="matrix(1 0 0 1 420.9892 699.1448)" class="st8 st7 st14">01</text>
	<text transform="matrix(1 0 0 1 589.2393 699.1448)" class="st8 st7 st15">23</text>
	<text transform="matrix(1 0 0 1 16.997 734.6526)" class="st8 st7">17</text>
	<text transform="matrix(1 0 0 1 25.5517 734.6526)" class="st8 st7">. T</text>
	<text transform="matrix(1 0 0 1 36.3017 734.6526)" class="st8 st7">em diﬁ</text>
	<text transform="matrix(1 0 0 1 65.6455 734.6526)" class="st8 st7"> </text>
	<text transform="matrix(1 0 0 1 69.0049 734.6526)" class="st8 st7">culdade de esperar sua v</text>
	<text transform="matrix(1 0 0 1 185.6767 734.6526)" class="st8 st7">ez;</text>
	<text transform="matrix(1 0 0 1 420.9892 734.6526)" class="st8 st7 st14">01</text>
	<text transform="matrix(1 0 0 1 589.2393 734.6526)" class="st8 st7 st15">23</text>
	<text transform="matrix(1 0 0 1 16.997 762.6605)" class="st8 st7">18. Int</text>
	<text transform="matrix(1 0 0 1 44.4502 762.6605)" class="st8 st7">errompe os outros ou se intromet</text>
	<text transform="matrix(1 0 0 1 203.0049 762.6605)" class="st8 st7">e (</text>
	<text transform="matrix(1 0 0 1 213.9424 762.6605)" class="st8 st7">p.e</text>
	<text transform="matrix(1 0 0 1 228.3174 762.6605)" class="st8 st7">x.: met</text>
	<text transform="matrix(1 0 0 1 261.2002 762.6605)" class="st8 st7">e-se nas conv</text>
	<text transform="matrix(1 0 0 1 326.333 762.6605)" class="st8 st7">ersas / </text>
	<text transform="matrix(1 0 0 1 16.997 777.6605)" class="st8 st7">jogos).</text>
	<text transform="matrix(1 0 0 1 420.9892 770.1605)" class="st8 st7 st14">01</text>
	<text transform="matrix(1 0 0 1 589.2393 770.1605)" class="st8 st7 st15">23</text>
</g>
</svg>
