<svg id="Layer_1" data-name="Layer 1" xmlns="http://www.w3.org/2000/svg" viewBox="0 0 68.03 69"><defs><style>.cls-1{fill:#ff36ce;}.cls-2{fill:#6960e5;}</style></defs><path class="cls-1" d="M2.65,18c1.9-.38,2.63-1.57,2.59-3.47-.07-3,0-6.1,0-9.24h18.5c0,.3.05.58.05.85,0,14,0,28,0,42.05A15.26,15.26,0,0,1,11.11,63.51a44.84,44.84,0,0,1-5.78.36V58.13c1.07-.07,2.1-.12,3.12-.23a10.55,10.55,0,0,0,9.46-10.21c.08-3.69.05-7.39,0-11.08,0-2.24-1.19-3.35-3.47-3.36-3,0-6,0-9.24,0,0-1.77,0-3.48,0-5.19,0-2.13-.51-2.71-2.58-3.23C2.64,22.55,2.64,20.28,2.65,18Z"/><path class="cls-1" d="M65.32,35.87c-2,.41-2.51,1-2.54,3-.06,3.52.08,7.05-.15,10.56A15.2,15.2,0,0,1,47.45,63.78c-1,0-2.05,0-3.15,0v-5.6a35.72,35.72,0,0,0,4.47-.51A10.64,10.64,0,0,0,57,47.35c.09-3.52,0-7,0-10.56,0-2.41-1.22-3.53-3.69-3.55-2.94,0-5.88,0-9,0V5.31H62.77V7.17q0,9.18,0,18.35c0,2.28.44,2.81,2.6,3.43C65.35,31.26,65.33,33.56,65.32,35.87Z"/><path class="cls-2" d="M45.27,68.45c-1,0-1.91,0-2.86,0-1.88,0-2.81-.92-2.83-2.74,0-3.09,0-6.28,0-9.5,0-1.83.92-2.72,2.83-2.79l1,0h1.51c.5,0,1,0,1.51,0a6,6,0,0,0,5.92-6.16c0-2,0-3.88,0-5.93,0-.92,0-1.85,0-2.81v-.55H43.68c-3.58,0-4.12-.54-4.12-4.1V4.18c0-2.88.73-3.62,3.54-3.63H64.05c2.5,0,3.35.84,3.36,3.31q0,10.83,0,21.64c0,.34,0,.63,0,.89v1c.13,8.38.34,22.39-.78,26.46a20,20,0,0,1-18.67,14.6C47,68.44,46.16,68.45,45.27,68.45Zm4.64-34.66h3.36c2.19,0,3.13.91,3.15,3,0,3.43.07,7,0,10.54a10.14,10.14,0,0,1-7.76,9.8,19.65,19.65,0,0,1-2.95.37l-1.46.12-.49.06v6.64h3.71A15.7,15.7,0,0,0,63.18,49.5c.16-2.35.14-11.74.14-18.6,0-3.28,0-6.07,0-7.41V4.76H43.78v29Z"/><path class="cls-2" d="M54.14,1.1h9.91c2.22,0,2.8.56,2.81,2.75,0,6.48,0,13.36,0,21.64a6.78,6.78,0,0,1,0,.83v.13l0,.88c.12,7.8.34,22.33-.76,26.34A19.43,19.43,0,0,1,47.92,67.87q-1.34,0-2.67,0c-.94,0-1.89,0-2.83,0-1.59,0-2.27-.68-2.29-2.19,0-3.06,0-6.25,0-9.5,0-1.53.69-2.18,2.3-2.24l.94,0h1.52c.62,0,1.1,0,1.55,0a6.63,6.63,0,0,0,6.43-6.7c0-2,0-3.89,0-5.94,0-.92,0-1.85,0-2.81v-1.1h-9.2c-3.27,0-3.57-.3-3.57-3.55V27.24q0-11.53,0-23.06c0-2.56.5-3.07,3-3.08h11M43.23,34.34h10c1.9,0,2.58.66,2.6,2.46,0,3.43.07,7,0,10.53a9.57,9.57,0,0,1-7.34,9.27,18.16,18.16,0,0,1-2.86.36c-.49,0-1,.07-1.48.13l-1,.1v7.69h4.27A16.24,16.24,0,0,0,63.73,49.53c.16-2.35.15-11.35.14-18.59,0-3.27,0-6.1,0-7.46V4.21H43.23V34.34M54.14,0h-11C40,0,39,1,39,4.18V33.79c0,3.85.81,4.65,4.67,4.65h8.1c0,3.08,0,5.9,0,8.73a5.5,5.5,0,0,1-5.4,5.62c-.5,0-1,0-1.48,0H43.36l-1,0c-2.18.08-3.33,1.2-3.36,3.33,0,3.17,0,6.35,0,9.52,0,2.12,1.21,3.25,3.37,3.28q1.43,0,2.85,0c.9,0,1.8,0,2.69,0A20.51,20.51,0,0,0,67.13,54c1.19-4.31.91-19.41.78-27.53a8.47,8.47,0,0,0,0-.94q0-10.82,0-21.64C68,1.06,66.86,0,64.05,0ZM44.33,33.24V5.31H62.77V7.17c0,5.44,0,10.87,0,16.31,0,4.21.09,22.56-.14,26A15.2,15.2,0,0,1,47.45,63.78H44.3v-5.6a35.72,35.72,0,0,0,4.47-.51A10.64,10.64,0,0,0,57,47.35c.09-3.52,0-7,0-10.56,0-2.41-1.22-3.53-3.69-3.55h-9Z"/><path class="cls-2" d="M5.48,68.44c-.74,0-1.47,0-2.21,0C2.1,68.39.69,68,.63,66c-.1-3.3-.11-6.72,0-10.18.05-1.54.93-2.37,2.63-2.45.39,0,.77,0,1.16,0H7.05c3.81-.15,6.2-2.59,6.23-6.37,0-1.91,0-3.81,0-5.8V37.89h-9c-3,0-3.74-.71-3.75-3.78V32.73c0-1.56,0-3.12,0-4.67a4.19,4.19,0,0,1,0-.6c0-2.08,0-8.5,0-14.16,0-4.16,0-8,0-9.46C.6,1.39,1.45.56,4,.55H25.07c2.5,0,3.35.84,3.35,3.31V15.07c0,10.9,0,22.18,0,33.27A20,20,0,0,1,8.28,68.43H5.48Zm5.36-34.65h3.61c2,0,2.91.88,2.93,2.82v.18c0,3.56.06,7.25,0,10.88a10.05,10.05,0,0,1-9,9.68c-.69.07-1.38.11-2.08.16l-1.53.1v6.83l.58,0c.63,0,1.26,0,1.88-.06a23.55,23.55,0,0,0,4-.31,15.76,15.76,0,0,0,13.1-15.84q0-15.16,0-30.32V6.15c0-.19,0-.39,0-.59l-.05-.81H4.67V8.91c0,6,0,16.13,0,18.52a6.4,6.4,0,0,1,0,.64c0,1.22,0,2.38,0,3.56v2.16Z"/><path class="cls-2" d="M14.61,1.1H25.07c2.2,0,2.8.59,2.8,2.75q0,5.6,0,11.19c0,10.91,0,22.19,0,33.29A19.49,19.49,0,0,1,8.27,67.88H5.47c-.73,0-1.46,0-2.18,0-2.06-.05-2.1-1.41-2.11-1.86-.1-3.28-.11-6.7,0-10.14,0-.78.27-1.83,2.11-1.92.37,0,.75,0,1.13,0H7.07c4.13-.17,6.72-2.81,6.76-6.91,0-1.91,0-3.8,0-5.81V37.34H4.32c-2.74,0-3.19-.46-3.2-3.24V32.68c0-1.51,0-3.08,0-4.61V28a4,4,0,0,1,0-.49c0-2.09,0-8.53,0-14.22,0-4.07,0-7.91,0-9.41,0-2.17.6-2.73,2.83-2.73H14.61M4.12,34.34h6.76l3.57,0c1.7,0,2.36.65,2.38,2.27v.18c0,3.56.06,7.25,0,10.86a9.5,9.5,0,0,1-8.48,9.15c-.67.07-1.34.11-2.06.16l-1,.07-1,.07V65L5.39,65c.63,0,1.25,0,1.86-.06a24.24,24.24,0,0,0,4.06-.32A16.31,16.31,0,0,0,24.86,48.21c0-10.14,0-20.44,0-30.41,0-3.88,0-7.77,0-11.65,0-.21,0-.43,0-.65l0-.27-.07-1H4.12V5.3c0,.69,0,2,0,3.63,0,6,0,16.12,0,18.52,0,.2,0,.39,0,.57v.12c0,1.15,0,2.31,0,3.48v2.72M14.61,0H4C1.14,0,.05,1.06,0,3.83c0,3.58,0,20,0,23.62a3.92,3.92,0,0,0,0,.6c0,2,0,4,0,6.06,0,3.38,1,4.33,4.3,4.33h8.42c0,3,0,5.79,0,8.55,0,3.49-2.19,5.69-5.7,5.83H4.41c-.4,0-.79,0-1.19,0C1.3,52.94.13,54,.07,55.84,0,59.24,0,62.64.08,66,.14,67.91,1.35,68.92,3.26,69c.74,0,1.47,0,2.21,0H8.28A20.58,20.58,0,0,0,29,48.34C29,33.51,29,18.68,29,3.86,29,1.08,27.88,0,25.07,0ZM5.22,33.24c0-1.75,0-3.43,0-5.11,0-.23,0-.46,0-.71-.07-3.05,0-19,0-22.12h18.5c0,.3.05.58.05.85,0,14,0,28,0,42.05A15.26,15.26,0,0,1,11.11,63.51a44.84,44.84,0,0,1-5.78.36V58.13c1.07-.07,2.1-.12,3.12-.23a10.55,10.55,0,0,0,9.46-10.21c.08-3.69.05-7.39,0-11.08,0-2.24-1.19-3.35-3.47-3.36l-3.58,0Z"/></svg>