<?xml version="1.0" encoding="utf-8"?>
<!-- Generator: Adobe Illustrator 24.0.1, SVG Export Plug-In . SVG Version: 6.00 Build 0)  -->
<svg version="1.1" id="Layer_1" xmlns="http://www.w3.org/2000/svg" xmlns:xlink="http://www.w3.org/1999/xlink" x="0px" y="0px"
	 viewBox="0 0 31.9 28.3" style="enable-background:new 0 0 31.9 28.3;" xml:space="preserve">
<style type="text/css">
	.st0{fill:#FFFFFF;}
</style>
<path class="st0" d="M31.7,8c-0.4-2.4-1.5-4.4-3.4-6c-1.9-1.6-4-2.2-6.5-1.9c-1.7,0.2-3.1,0.9-4.3,2C17,2.5,16.5,3,15.9,3.5
	c-0.1,0-0.1-0.1-0.1-0.1c-0.6-0.5-1.1-1-1.7-1.4c-2-1.6-4.2-2.2-6.7-1.8C5.2,0.5,3.5,1.7,2.2,3.4c-2,2.6-2.6,5.6-2,8.7
	c0.4,2.2,1.5,4.1,3.2,5.6c3.9,3.4,7.9,6.7,11.8,10.1c0.2,0.2,0.4,0.4,0.6,0.4c0.2,0,0.4-0.3,0.6-0.4c3.9-3.3,7.8-6.7,11.8-10
	c0.5-0.5,1-1,1.5-1.5C31.6,13.8,32.2,11,31.7,8z M22.9,17.9c0,0.4,0,0.7-0.1,1.1c-0.4,1.1-1.1,1.8-2.3,2.1c-0.3,0.1-0.5,0-0.8,0
	c-2,0-4,0-6,0c-0.8,0-1.7,0-2.5,0c-0.2,0-0.3-0.1-0.5-0.1c-1.2-0.4-1.8-1.2-2-2.4c-0.1-0.4,0-0.9,0.1-1.3c0.3-0.8,0.5-1.6,0.7-2.5
	c0.3-1.3,0.3-2.7,0.2-4C9.6,9.2,9.3,7.8,8.8,6.4C8.8,6.2,8.7,6,8.6,5.8c0,0,0,0,0,0c0.4,0,0.7,0,1.1,0c1.8,0,3.6,0,5.4,0
	c1.7,0,3.4,0,5,0c0.3,0,0.3,0,0.4,0.3c0.3,0.9,0.6,1.8,0.7,2.7c0.2,0.9,0.2,1.9,0.3,2.8c0,0.7,0,1.5-0.1,2.2
	c-0.1,0.9-0.3,1.8-0.5,2.7c0,0,0,0.1-0.1,0.1c-0.3,0-0.9,0-1.2,0c0,0-0.1,0-0.1,0c0-0.1,0.1-0.2,0.1-0.3c0.2-0.9,0.5-1.8,0.6-2.7
	c0.1-0.8,0.1-1.6,0.1-2.4c-0.1-1.4-0.3-2.6-0.7-4C19.4,7,19.4,7,19.3,7c-2.1,0-4,0-6.1,0c-0.9,0-1.7,0-2.6,0c-0.1,0-0.2,0-0.3,0
	c0,0.2,0.1,0.3,0.1,0.5c0.3,1.1,0.5,2.2,0.6,3.3c0.1,1.1,0,2.2-0.1,3.4c-0.2,1.2-0.5,2.4-0.8,3.5c-0.2,0.5-0.2,1,0.1,1.5
	c0.3,0.6,0.7,0.9,1.3,1.1c1,0.2,1.8-0.7,2-1.6c0.1-0.3,0.3-0.4,0.3-0.7c0,0,0-0.1,0-0.1c3.2,0,6.1-0.2,9.3-0.2
	C22.9,17.7,22.9,17.8,22.9,17.9z M14.2,9.7c-0.2,0-0.3-0.1-0.4-0.2c-0.1-0.2,0-0.3,0.1-0.5C14,8.9,14,8.9,14.1,8.9
	c0.5,0,0.9,0,1.4,0c1,0,2,0,3.1,0c0.2,0,0.3,0.1,0.4,0.3c0.1,0.2,0,0.3-0.1,0.5c-0.1,0.1-0.2,0.1-0.3,0.1c-0.7,0-1.4,0-2.1,0
	c0,0,0,0,0,0C15.7,9.7,14.9,9.7,14.2,9.7z M14,14.8c0.7,0,1.4,0,2,0c0,0,0,0,0,0c0.7,0,1.3,0,2,0c0.1,0,0.2,0,0.2,0
	c0.2,0,0.3,0.1,0.3,0.3c0.1,0.2,0.1,0.3-0.1,0.4c-0.1,0.1-0.3,0.2-0.4,0.2c-0.7,0-1.4,0-2.1,0c-0.6,0-1.3,0-1.9,0
	c-0.1,0-0.1,0-0.2,0c-0.3,0-0.5-0.4-0.3-0.7C13.8,14.9,13.9,14.8,14,14.8z M18,12.7c-0.5,0-0.9,0-1.4,0c0,0,0,0,0,0
	c-0.7,0-1.3,0-2,0c-0.1,0-0.1,0-0.2,0c-0.2,0-0.4-0.2-0.4-0.4c0-0.2,0.2-0.4,0.4-0.4c0.3,0,0.6,0,0.8,0c1,0,2,0,3.1,0
	c0.1,0,0.2,0,0.3,0c0.2,0,0.4,0.2,0.4,0.4c0,0.2-0.2,0.4-0.4,0.4C18.5,12.7,18.2,12.7,18,12.7z M12.5,12.8c-0.3,0-0.5-0.2-0.5-0.5
	c0-0.3,0.2-0.5,0.5-0.5s0.5,0.2,0.5,0.5C13,12.6,12.8,12.8,12.5,12.8z M13,15.2c0,0.3-0.2,0.5-0.5,0.5S12,15.5,12,15.2
	s0.2-0.5,0.5-0.5S13,14.9,13,15.2z M12.6,9.8c-0.3,0-0.5-0.2-0.5-0.5s0.2-0.5,0.5-0.5s0.5,0.2,0.5,0.5S12.8,9.8,12.6,9.8z"/>
<g>
</g>
<g>
</g>
<g>
</g>
<g>
</g>
<g>
</g>
<g>
</g>
<g>
</g>
<g>
</g>
<g>
</g>
<g>
</g>
<g>
</g>
<g>
</g>
<g>
</g>
<g>
</g>
<g>
</g>
</svg>
