<?xml version="1.0" encoding="utf-8"?>
<!-- Generator: Adobe Illustrator 25.2.0, SVG Export Plug-In . SVG Version: 6.00 Build 0)  -->
<svg version="1.1" id="Layer_1" xmlns="http://www.w3.org/2000/svg" xmlns:xlink="http://www.w3.org/1999/xlink" x="0px" y="0px"
	 viewBox="0 0 73 65" style="enable-background:new 0 0 73 65;" xml:space="preserve">
<style type="text/css">
	.st0{fill:#FFFFFF;}
	.st1{opacity:0.51;fill:#FFFFFF;}
</style>
<g>
	<g>
		<path class="st0" d="M20.9,16c0.8,0,1.6,0,2.3,0c3.9,0,7.8,0,11.8,0c3.7,0,7.3,0,11,0c0.6,0,0.6,0,0.8,0.6
			c0.7,1.9,1.2,3.8,1.6,5.8c0.4,2,0.5,4,0.6,6.1c0,1.6,0,3.3-0.2,4.9c-0.3,2-0.6,4-1.2,5.9c0,0.1-0.1,0.1-0.2,0.1c-0.7,0-1.3,0-2,0
			c-0.1,0-0.2,0-0.3,0c0.1-0.2,0.1-0.4,0.2-0.6c0.5-1.9,1-3.9,1.2-5.9c0.2-1.8,0.3-3.6,0.2-5.3c-0.1-3.1-0.7-6.2-1.6-9.1
			c-0.1-0.2-0.1-0.2-0.3-0.2c-4.7,0-9.3,0-14,0c-2,0-4,0-6.1,0c-0.2,0-0.4,0-0.7,0c0.1,0.4,0.2,0.7,0.3,1c0.6,2.4,1.1,4.8,1.2,7.2
			c0.2,2.4,0.1,4.9-0.2,7.3c-0.3,2.6-1,5.1-1.8,7.6c-0.4,1.1-0.4,2.2,0.1,3.2c0.6,1.2,1.5,2,2.8,2.3c2.1,0.4,4.3-1,4.7-3
			c0.1-0.6,0.1-1.3,0.2-1.9c0-0.1,0-0.1,0-0.2c6.9,0,13.8,0,20.7,0c0,0.2,0,0.4,0,0.6c0,0.8,0,1.6-0.3,2.3c-0.8,2.4-2.4,4-5,4.5
			c-0.6,0.1-1.2,0.1-1.8,0.1c-4.3,0-8.7,0-13,0c-1.8,0-3.7,0-5.5,0c-0.4,0-0.7-0.1-1.1-0.2c-2.5-0.9-4-2.7-4.4-5.3
			c-0.2-1,0-1.9,0.3-2.8c0.6-1.8,1.1-3.5,1.5-5.4c0.6-2.9,0.7-5.8,0.5-8.7c-0.2-3.3-0.9-6.4-2-9.5C21.2,16.9,21,16.5,20.9,16
			C20.9,16.1,20.9,16.1,20.9,16z"/>
		<path class="st0" d="M39.2,24.6c-1.6,0-3.2,0-4.8,0c-0.4,0-0.7-0.2-0.8-0.5c-0.1-0.4-0.1-0.7,0.1-1c0.1-0.1,0.3-0.2,0.5-0.2
			c1,0,2-0.1,3-0.1c2.2,0,4.5,0,6.7,0c0.4,0,0.8,0.2,0.9,0.7c0.1,0.3,0,0.7-0.3,1c-0.2,0.1-0.3,0.2-0.6,0.2
			C42.3,24.6,40.8,24.6,39.2,24.6C39.2,24.6,39.2,24.6,39.2,24.6z"/>
		<path class="st0" d="M38.4,35.9c1.4,0,2.9,0,4.3,0c0.2,0,0.3,0,0.5,0c0.4,0,0.6,0.2,0.7,0.6c0.1,0.3,0.1,0.6-0.2,0.9
			c-0.3,0.3-0.6,0.4-0.9,0.4c-1.5,0-3.1,0-4.6,0c-1.4,0-2.8,0-4.1,0c-0.1,0-0.2,0-0.3,0c-0.7-0.1-1.1-0.8-0.6-1.4
			c0.2-0.3,0.4-0.4,0.8-0.4C35.5,35.9,37,35.8,38.4,35.9C38.4,35.9,38.4,35.9,38.4,35.9z"/>
		<path class="st0" d="M39.7,31.2c-1.4,0-2.9,0-4.3,0c-0.1,0-0.2,0-0.4,0c-0.5-0.1-0.8-0.4-0.8-0.9c0-0.5,0.4-0.9,0.8-0.9
			c0.6,0,1.2,0,1.8,0c2.2,0,4.5,0,6.7,0c0.2,0,0.4,0,0.6,0c0.5,0,0.9,0.4,0.9,0.9c0,0.5-0.3,0.9-0.8,0.9c-0.5,0-1.1,0-1.6,0.1
			C41.7,31.2,40.7,31.2,39.7,31.2C39.7,31.2,39.7,31.2,39.7,31.2z"/>
		<circle class="st0" cx="30.8" cy="23.7" r="1.1"/>
		<circle class="st0" cx="30.7" cy="36.6" r="1.1"/>
		<circle class="st0" cx="30.7" cy="30.4" r="1.1"/>
	</g>
	<path class="st1" d="M36.5,65c-0.9,0-1.5-0.6-2-1.1c-0.1-0.1-0.2-0.2-0.3-0.3l-6-5.1C21.6,53,15,47.3,8.4,41.6
		c-3.9-3.4-6.5-7.8-7.5-13.1C-0.6,21,0.9,14.2,5.4,8.3c3.2-4.1,7.3-6.7,12.2-7.6c5.8-1.1,11.1,0.3,15.8,4.2C34.3,5.6,35.1,6.3,36,7
		l0.5,0.5l0.2-0.2c0.8-0.7,1.6-1.3,2.3-2c3.1-2.6,6.5-4.2,10.2-4.7C54.9-0.2,60,1.3,64.4,5.1c4.2,3.5,6.9,8.2,7.8,13.9
		c1.2,7.1-0.3,13.6-4.4,19.2c-0.9,1.2-2.1,2.5-3.4,3.6c-7.5,6.5-15,12.9-22.6,19.3l-3.3,2.9C38.1,64.4,37.4,65,36.5,65
		C36.5,65,36.5,65,36.5,65z M21.2,3.2c-1,0-2.1,0.1-3.1,0.3c-4.2,0.8-7.7,3-10.5,6.5c-4,5.2-5.4,11.2-4,18c0.9,4.7,3.1,8.6,6.6,11.5
		c6.6,5.7,13.2,11.3,19.8,16.9l6,5.1c0.1,0.1,0.3,0.2,0.4,0.4c0,0,0,0,0.1,0.1c0,0,0.1-0.1,0.1-0.1c0.1-0.1,0.2-0.2,0.4-0.3l3.1-2.6
		c7.5-6.4,15.1-12.8,22.6-19.3c1.2-1,2.2-2.1,3-3.1c3.7-5,5-10.7,3.9-17.1c-0.9-5-3.2-9.1-6.9-12.2c-3.8-3.2-8.2-4.5-13-3.8
		c-3.2,0.4-6,1.8-8.7,4.1c-0.8,0.7-1.6,1.3-2.3,2l-1.1,1c-0.5,0.4-1.2,0.5-1.8,0l0.9-1.1l-1,1l-1.4-1.2c-0.8-0.7-1.6-1.4-2.4-2.1
		C28.5,4.5,25,3.2,21.2,3.2z"/>
</g>
</svg>
